<?xml version="1.0" encoding="UTF-8"?>
<svg width="882px" height="300px" viewBox="0 0 882 300" version="1.1" xmlns="http://www.w3.org/2000/svg" xmlns:xlink="http://www.w3.org/1999/xlink">
    <!-- Generator: Sketch 61 (89581) - https://sketch.com -->
    <title>Group</title>
    <desc>Created with Sketch.</desc>
    <g id="Github-Covers" stroke="none" stroke-width="1" fill="none" fill-rule="evenodd">
        <g id="Website">
            <g id="Group">
                <rect id="Rectangle" fill="#FFFFFF" fill-rule="nonzero" x="0" y="0" width="882" height="300"></rect>
                <rect id="Rectangle" fill="#E9ECF0" fill-rule="nonzero" x="0" y="0" width="882" height="210"></rect>
                <path d="M62.0156,68.3516 L66.8672,68.3516 L73.2422,95.8672 L73.4297,95.8672 L79.8281,68.3516 L84.9141,68.3516 L91.2891,95.8672 L91.4766,95.8672 L97.875,68.3516 L102.727,68.3516 L94.2656,101 L88.5703,101 L82.4531,74.75 L82.2656,74.75 L76.1719,101 L70.4531,101 L62.0156,68.3516 Z M107.414,88.7656 C107.414,86.9062 107.641,85.1875 108.094,83.6094 C108.562,82.0156 109.25,80.6641 110.156,79.5547 C111.078,78.4297 112.188,77.5469 113.484,76.9062 C114.781,76.2656 116.273,75.9453 117.961,75.9453 C119.727,75.9453 121.266,76.25 122.578,76.8594 C123.891,77.4688 124.977,78.3047 125.836,79.3672 C126.695,80.4141 127.344,81.6484 127.781,83.0703 C128.219,84.4922 128.438,86.0234 128.438,87.6641 L128.438,89.9609 L111.961,89.9609 L111.961,92.5625 C111.961,93.4531 112.125,94.2422 112.453,94.9297 C112.797,95.6172 113.258,96.2031 113.836,96.6875 C114.414,97.1562 115.062,97.5156 115.781,97.7656 C116.5,98 117.242,98.1172 118.008,98.1172 C119.539,98.1172 120.867,97.7266 121.992,96.9453 C123.117,96.1641 123.758,94.9219 123.914,93.2188 L128.25,93.2188 C128.156,94.5312 127.812,95.7031 127.219,96.7344 C126.625,97.75 125.852,98.6172 124.898,99.3359 C123.961,100.055 122.898,100.609 121.711,101 C120.523,101.391 119.273,101.586 117.961,101.586 C116.195,101.586 114.648,101.266 113.32,100.625 C112.008,99.9844 110.906,99.1016 110.016,97.9766 C109.141,96.8516 108.484,95.5078 108.047,93.9453 C107.625,92.3828 107.414,90.6562 107.414,88.7656 Z M111.961,86.5156 L123.961,86.5156 L123.961,85.1562 C123.961,84.2656 123.797,83.4609 123.469,82.7422 C123.156,82.0234 122.719,81.4141 122.156,80.9141 C121.609,80.4141 120.969,80.0391 120.234,79.7891 C119.516,79.5234 118.758,79.3906 117.961,79.3906 C117.164,79.3906 116.406,79.5234 115.688,79.7891 C114.969,80.0391 114.328,80.4141 113.766,80.9141 C113.203,81.4141 112.758,82.0234 112.43,82.7422 C112.117,83.4609 111.961,84.2656 111.961,85.1562 L111.961,86.5156 Z M135,101 L135,68.3516 L139.312,68.3516 L139.312,80.5156 C140.078,79.0469 141.109,77.9219 142.406,77.1406 C143.703,76.3438 145.281,75.9453 147.141,75.9453 C148.766,75.9453 150.188,76.2812 151.406,76.9531 C152.625,77.625 153.633,78.5391 154.43,79.6953 C155.242,80.8359 155.844,82.1953 156.234,83.7734 C156.641,85.3359 156.844,87 156.844,88.7656 C156.844,90.5625 156.641,92.2344 156.234,93.7812 C155.844,95.3281 155.242,96.6797 154.43,97.8359 C153.633,98.9922 152.625,99.9062 151.406,100.578 C150.203,101.25 148.781,101.586 147.141,101.586 C145.281,101.586 143.703,101.195 142.406,100.414 C141.109,99.6172 140.078,98.4844 139.312,97.0156 L139.312,101 L135,101 Z M139.312,90.8281 C139.312,92.9375 139.891,94.6797 141.047,96.0547 C142.203,97.4297 143.867,98.1172 146.039,98.1172 C147.867,98.1172 149.359,97.6094 150.516,96.5938 C151.688,95.5625 152.273,94.2188 152.273,92.5625 L152.273,84.9688 C152.273,83.3125 151.688,81.9688 150.516,80.9375 C149.359,79.9062 147.867,79.3906 146.039,79.3906 C143.867,79.3906 142.203,80.0859 141.047,81.4766 C139.891,82.8516 139.312,84.5938 139.312,86.7031 L139.312,90.8281 Z M161.953,93.2656 L166.289,93.2656 C166.352,94.8906 166.93,96.1094 168.023,96.9219 C169.133,97.7188 170.438,98.1172 171.938,98.1172 C173.375,98.1172 174.625,97.7969 175.688,97.1562 C176.75,96.5156 177.281,95.5859 177.281,94.3672 C177.281,93.3828 176.961,92.5938 176.32,92 C175.68,91.4062 174.539,90.9531 172.898,90.6406 L168.867,89.8203 C166.852,89.3984 165.297,88.625 164.203,87.5 C163.125,86.3594 162.586,84.8281 162.586,82.9062 C162.586,81.9531 162.797,81.0547 163.219,80.2109 C163.656,79.3516 164.273,78.6094 165.07,77.9844 C165.883,77.3594 166.828,76.8672 167.906,76.5078 C169,76.1328 170.219,75.9453 171.562,75.9453 C172.719,75.9453 173.844,76.1016 174.938,76.4141 C176.047,76.7109 177.031,77.1797 177.891,77.8203 C178.766,78.4609 179.461,79.2812 179.977,80.2812 C180.508,81.2656 180.789,82.4453 180.82,83.8203 L176.508,83.8203 C176.445,82.1953 175.938,81.0547 174.984,80.3984 C174.047,79.7266 172.922,79.3906 171.609,79.3906 C170.266,79.3906 169.125,79.7109 168.188,80.3516 C167.266,80.9922 166.805,81.8281 166.805,82.8594 C166.805,83.8125 167.078,84.5547 167.625,85.0859 C168.172,85.6172 169.055,86.0078 170.273,86.2578 L174.398,87.125 C176.836,87.6406 178.641,88.4766 179.812,89.6328 C181,90.7734 181.594,92.3359 181.594,94.3203 C181.594,95.3516 181.359,96.3125 180.891,97.2031 C180.438,98.0781 179.773,98.8359 178.898,99.4766 C178.039,100.102 177.016,100.609 175.828,101 C174.641,101.391 173.328,101.586 171.891,101.586 C170.516,101.586 169.227,101.406 168.023,101.047 C166.836,100.703 165.789,100.188 164.883,99.5 C163.992,98.7969 163.289,97.9297 162.773,96.8984 C162.258,95.8516 161.984,94.6406 161.953,93.2656 Z M187.875,72.875 L187.875,68.3516 L192.375,68.3516 L192.375,72.875 L187.875,72.875 Z M187.969,101 L187.969,76.5312 L192.281,76.5312 L192.281,101 L187.969,101 Z M197.906,80.2109 L197.906,76.5312 L202.031,76.5312 L202.031,68.3516 L206.297,68.3516 L206.297,76.5312 L211.922,76.5312 L211.922,80.2109 L206.297,80.2109 L206.297,97.2969 L211.922,97.2969 L211.922,101 L202.031,101 L202.031,80.2109 L197.906,80.2109 Z M216.633,88.7656 C216.633,86.9062 216.859,85.1875 217.312,83.6094 C217.781,82.0156 218.469,80.6641 219.375,79.5547 C220.297,78.4297 221.406,77.5469 222.703,76.9062 C224,76.2656 225.492,75.9453 227.18,75.9453 C228.945,75.9453 230.484,76.25 231.797,76.8594 C233.109,77.4688 234.195,78.3047 235.055,79.3672 C235.914,80.4141 236.562,81.6484 237,83.0703 C237.438,84.4922 237.656,86.0234 237.656,87.6641 L237.656,89.9609 L221.18,89.9609 L221.18,92.5625 C221.18,93.4531 221.344,94.2422 221.672,94.9297 C222.016,95.6172 222.477,96.2031 223.055,96.6875 C223.633,97.1562 224.281,97.5156 225,97.7656 C225.719,98 226.461,98.1172 227.227,98.1172 C228.758,98.1172 230.086,97.7266 231.211,96.9453 C232.336,96.1641 232.977,94.9219 233.133,93.2188 L237.469,93.2188 C237.375,94.5312 237.031,95.7031 236.438,96.7344 C235.844,97.75 235.07,98.6172 234.117,99.3359 C233.18,100.055 232.117,100.609 230.93,101 C229.742,101.391 228.492,101.586 227.18,101.586 C225.414,101.586 223.867,101.266 222.539,100.625 C221.227,99.9844 220.125,99.1016 219.234,97.9766 C218.359,96.8516 217.703,95.5078 217.266,93.9453 C216.844,92.3828 216.633,90.6562 216.633,88.7656 Z M221.18,86.5156 L233.18,86.5156 L233.18,85.1562 C233.18,84.2656 233.016,83.4609 232.688,82.7422 C232.375,82.0234 231.938,81.4141 231.375,80.9141 C230.828,80.4141 230.188,80.0391 229.453,79.7891 C228.734,79.5234 227.977,79.3906 227.18,79.3906 C226.383,79.3906 225.625,79.5234 224.906,79.7891 C224.188,80.0391 223.547,80.4141 222.984,80.9141 C222.422,81.4141 221.977,82.0234 221.648,82.7422 C221.336,83.4609 221.18,84.2656 221.18,85.1562 L221.18,86.5156 Z" id="Shape" fill="#000000" fill-rule="nonzero"></path>
                <path d="M61.4091,145 L61.4091,133.364 L68.4318,133.364 L68.4318,134.614 L62.8182,134.614 L62.8182,138.545 L68.0682,138.545 L68.0682,139.795 L62.8182,139.795 L62.8182,143.75 L68.5227,143.75 L68.5227,145 L61.4091,145 Z M71.7898,136.273 L73.8807,139.841 L75.9716,136.273 L77.517,136.273 L74.6989,140.636 L77.517,145 L75.9716,145 L73.8807,141.614 L71.7898,145 L70.2443,145 L73.017,140.636 L70.2443,136.273 L71.7898,136.273 Z M79.4304,148.273 L79.4304,136.273 L80.7259,136.273 L80.7259,137.659 L80.8849,137.659 C80.9834,137.508 81.1198,137.314 81.294,137.08 C81.4721,136.841 81.7259,136.629 82.0554,136.443 C82.3887,136.254 82.8395,136.159 83.4077,136.159 C84.1425,136.159 84.7902,136.343 85.3509,136.71 C85.9115,137.078 86.349,137.598 86.6634,138.273 C86.9777,138.947 87.1349,139.742 87.1349,140.659 C87.1349,141.583 86.9777,142.384 86.6634,143.062 C86.349,143.737 85.9134,144.259 85.3565,144.631 C84.7997,144.998 84.1577,145.182 83.4304,145.182 C82.8698,145.182 82.4209,145.089 82.0838,144.903 C81.7467,144.714 81.4872,144.5 81.3054,144.261 C81.1236,144.019 80.9834,143.818 80.8849,143.659 L80.7713,143.659 L80.7713,148.273 L79.4304,148.273 Z M80.7486,140.636 C80.7486,141.625 80.9626,142.43 81.3906,143.051 C81.8224,143.669 82.4418,143.977 83.2486,143.977 C83.8092,143.977 84.277,143.83 84.652,143.534 C85.0308,143.235 85.3149,142.833 85.5043,142.33 C85.6974,141.822 85.794,141.258 85.794,140.636 C85.794,140.023 85.6993,139.47 85.5099,138.977 C85.3243,138.481 85.0421,138.089 84.6634,137.801 C84.2884,137.509 83.8168,137.364 83.2486,137.364 C82.4304,137.364 81.8092,137.665 81.3849,138.267 C80.9607,138.869 80.7486,139.659 80.7486,140.636 Z M90.5213,133.364 L90.5213,145 L89.1804,145 L89.1804,133.364 L90.5213,133.364 Z M96.5227,145.182 C95.7348,145.182 95.0436,144.994 94.4489,144.619 C93.858,144.244 93.3958,143.72 93.0625,143.045 C92.733,142.371 92.5682,141.583 92.5682,140.682 C92.5682,139.773 92.733,138.979 93.0625,138.301 C93.3958,137.623 93.858,137.097 94.4489,136.722 C95.0436,136.347 95.7348,136.159 96.5227,136.159 C97.3106,136.159 98,136.347 98.5909,136.722 C99.1856,137.097 99.6477,137.623 99.9773,138.301 C100.311,138.979 100.477,139.773 100.477,140.682 C100.477,141.583 100.311,142.371 99.9773,143.045 C99.6477,143.72 99.1856,144.244 98.5909,144.619 C98,144.994 97.3106,145.182 96.5227,145.182 Z M96.5227,143.977 C97.1212,143.977 97.6136,143.824 98,143.517 C98.3864,143.21 98.6723,142.807 98.858,142.307 C99.0436,141.807 99.1364,141.265 99.1364,140.682 C99.1364,140.098 99.0436,139.555 98.858,139.051 C98.6723,138.547 98.3864,138.14 98,137.83 C97.6136,137.519 97.1212,137.364 96.5227,137.364 C95.9242,137.364 95.4318,137.519 95.0455,137.83 C94.6591,138.14 94.3731,138.547 94.1875,139.051 C94.0019,139.555 93.9091,140.098 93.9091,140.682 C93.9091,141.265 94.0019,141.807 94.1875,142.307 C94.3731,142.807 94.6591,143.21 95.0455,143.517 C95.4318,143.824 95.9242,143.977 96.5227,143.977 Z M102.524,145 L102.524,136.273 L103.82,136.273 L103.82,137.591 L103.911,137.591 C104.066,137.159 104.352,136.809 104.768,136.54 C105.185,136.271 105.657,136.136 106.183,136.136 C106.426,136.136 106.638,136.165 106.82,136.222 C107.001,136.278 107.161,136.356 107.297,136.455 L106.842,137.591 C106.748,137.542 106.636,137.504 106.507,137.477 C106.382,137.447 106.236,137.432 106.07,137.432 C105.433,137.432 104.907,137.627 104.49,138.017 C104.073,138.403 103.865,138.89 103.865,139.477 L103.865,145 L102.524,145 Z M112.058,145.182 C111.217,145.182 110.492,144.996 109.882,144.625 C109.276,144.25 108.808,143.727 108.479,143.057 C108.153,142.383 107.99,141.598 107.99,140.705 C107.99,139.811 108.153,139.023 108.479,138.341 C108.808,137.655 109.267,137.121 109.854,136.739 C110.445,136.352 111.134,136.159 111.922,136.159 C112.376,136.159 112.825,136.235 113.268,136.386 C113.712,136.538 114.115,136.784 114.479,137.125 C114.842,137.462 115.132,137.909 115.348,138.466 C115.564,139.023 115.672,139.708 115.672,140.523 L115.672,141.091 L109.337,141.091 C109.367,142.023 109.63,142.737 110.126,143.233 C110.626,143.729 111.27,143.977 112.058,143.977 C112.585,143.977 113.037,143.864 113.416,143.636 C113.795,143.409 114.07,143.068 114.24,142.614 L115.536,142.977 C115.331,143.636 114.922,144.169 114.308,144.574 C113.695,144.979 112.945,145.182 112.058,145.182 Z M109.337,139.932 L114.308,139.932 C114.308,139.193 114.092,138.581 113.661,138.097 C113.229,137.608 112.649,137.364 111.922,137.364 C111.411,137.364 110.967,137.483 110.592,137.722 C110.217,137.96 109.922,138.277 109.706,138.67 C109.49,139.061 109.367,139.481 109.337,139.932 Z M126.848,133.364 L128.257,133.364 L128.257,141.682 C128.257,142.799 127.956,143.659 127.354,144.261 C126.755,144.86 125.95,145.159 124.939,145.159 C124.303,145.159 123.736,145.044 123.24,144.812 C122.744,144.578 122.354,144.244 122.07,143.812 C121.786,143.381 121.643,142.867 121.643,142.273 L123.03,142.273 C123.03,142.765 123.21,143.161 123.57,143.46 C123.929,143.759 124.386,143.909 124.939,143.909 C125.549,143.909 126.018,143.72 126.348,143.341 C126.681,142.958 126.848,142.405 126.848,141.682 L126.848,133.364 Z M134.445,145.182 C133.657,145.182 132.965,144.994 132.371,144.619 C131.78,144.244 131.318,143.72 130.984,143.045 C130.655,142.371 130.49,141.583 130.49,140.682 C130.49,139.773 130.655,138.979 130.984,138.301 C131.318,137.623 131.78,137.097 132.371,136.722 C132.965,136.347 133.657,136.159 134.445,136.159 C135.232,136.159 135.922,136.347 136.513,136.722 C137.107,137.097 137.57,137.623 137.899,138.301 C138.232,138.979 138.399,139.773 138.399,140.682 C138.399,141.583 138.232,142.371 137.899,143.045 C137.57,143.72 137.107,144.244 136.513,144.619 C135.922,144.994 135.232,145.182 134.445,145.182 Z M134.445,143.977 C135.043,143.977 135.536,143.824 135.922,143.517 C136.308,143.21 136.594,142.807 136.78,142.307 C136.965,141.807 137.058,141.265 137.058,140.682 C137.058,140.098 136.965,139.555 136.78,139.051 C136.594,138.547 136.308,138.14 135.922,137.83 C135.536,137.519 135.043,137.364 134.445,137.364 C133.846,137.364 133.354,137.519 132.967,137.83 C132.581,138.14 132.295,138.547 132.109,139.051 C131.924,139.555 131.831,140.098 131.831,140.682 C131.831,141.265 131.924,141.807 132.109,142.307 C132.295,142.807 132.581,143.21 132.967,143.517 C133.354,143.824 133.846,143.977 134.445,143.977 Z M140.952,148.386 C140.724,148.386 140.522,148.367 140.344,148.33 C140.166,148.295 140.043,148.261 139.974,148.227 L140.315,147.045 C140.804,147.17 141.211,147.167 141.537,147.034 C141.866,146.905 142.149,146.515 142.384,145.864 L142.679,145.045 L139.452,136.273 L140.906,136.273 L143.315,143.227 L143.406,143.227 L145.815,136.273 L147.27,136.273 L143.52,146.409 C143.027,147.727 142.171,148.386 140.952,148.386 Z M155.222,138.227 L154.017,138.568 C153.9,138.265 153.703,137.981 153.426,137.716 C153.15,137.451 152.718,137.318 152.131,137.318 C151.597,137.318 151.152,137.441 150.795,137.688 C150.443,137.93 150.267,138.239 150.267,138.614 C150.267,138.947 150.388,139.21 150.631,139.403 C150.873,139.597 151.252,139.758 151.767,139.886 L153.062,140.205 C154.608,140.583 155.381,141.371 155.381,142.568 C155.381,143.068 155.237,143.515 154.949,143.909 C154.665,144.303 154.267,144.614 153.756,144.841 C153.244,145.068 152.65,145.182 151.972,145.182 C151.081,145.182 150.345,144.989 149.761,144.602 C149.178,144.216 148.809,143.652 148.653,142.909 L149.926,142.591 C150.165,143.53 150.839,144 151.949,144 C152.574,144 153.07,143.867 153.438,143.602 C153.809,143.333 153.994,143.011 153.994,142.636 C153.994,142.019 153.563,141.61 152.699,141.409 L151.244,141.068 C150.445,140.879 149.858,140.585 149.483,140.188 C149.112,139.786 148.926,139.284 148.926,138.682 C148.926,138.189 149.064,137.754 149.341,137.375 C149.621,136.996 150.002,136.699 150.483,136.483 C150.968,136.267 151.517,136.159 152.131,136.159 C152.994,136.159 153.672,136.348 154.165,136.727 C154.661,137.106 155.013,137.606 155.222,138.227 Z M161.195,136.273 L161.195,137.409 L159.331,137.409 L159.331,142.5 C159.331,142.879 159.386,143.163 159.496,143.352 C159.609,143.538 159.753,143.663 159.928,143.727 C160.106,143.788 160.293,143.818 160.49,143.818 C160.638,143.818 160.759,143.811 160.854,143.795 C160.948,143.777 161.024,143.761 161.081,143.75 L161.354,144.955 C161.263,144.989 161.136,145.023 160.973,145.057 C160.81,145.095 160.604,145.114 160.354,145.114 C159.975,145.114 159.604,145.032 159.24,144.869 C158.88,144.706 158.581,144.458 158.342,144.125 C158.107,143.792 157.99,143.371 157.99,142.864 L157.99,137.409 L156.672,137.409 L156.672,136.273 L157.99,136.273 L157.99,134.182 L159.331,134.182 L159.331,136.273 L161.195,136.273 Z M163.212,145 L163.212,136.273 L164.507,136.273 L164.507,137.591 L164.598,137.591 C164.753,137.159 165.039,136.809 165.456,136.54 C165.873,136.271 166.344,136.136 166.871,136.136 C167.113,136.136 167.325,136.165 167.507,136.222 C167.689,136.278 167.848,136.356 167.984,136.455 L167.53,137.591 C167.435,137.542 167.323,137.504 167.195,137.477 C167.07,137.447 166.924,137.432 166.757,137.432 C166.121,137.432 165.594,137.627 165.178,138.017 C164.761,138.403 164.553,138.89 164.553,139.477 L164.553,145 L163.212,145 Z M172.746,145.182 C171.905,145.182 171.179,144.996 170.57,144.625 C169.964,144.25 169.496,143.727 169.166,143.057 C168.84,142.383 168.678,141.598 168.678,140.705 C168.678,139.811 168.84,139.023 169.166,138.341 C169.496,137.655 169.954,137.121 170.541,136.739 C171.132,136.352 171.821,136.159 172.609,136.159 C173.064,136.159 173.513,136.235 173.956,136.386 C174.399,136.538 174.803,136.784 175.166,137.125 C175.53,137.462 175.82,137.909 176.036,138.466 C176.251,139.023 176.359,139.708 176.359,140.523 L176.359,141.091 L170.024,141.091 C170.054,142.023 170.318,142.737 170.814,143.233 C171.314,143.729 171.958,143.977 172.746,143.977 C173.272,143.977 173.725,143.864 174.104,143.636 C174.482,143.409 174.757,143.068 174.928,142.614 L176.223,142.977 C176.018,143.636 175.609,144.169 174.996,144.574 C174.382,144.979 173.632,145.182 172.746,145.182 Z M170.024,139.932 L174.996,139.932 C174.996,139.193 174.78,138.581 174.348,138.097 C173.916,137.608 173.337,137.364 172.609,137.364 C172.098,137.364 171.655,137.483 171.28,137.722 C170.905,137.96 170.609,138.277 170.393,138.67 C170.178,139.061 170.054,139.481 170.024,139.932 Z M180.967,145.205 C180.414,145.205 179.912,145.1 179.462,144.892 C179.011,144.68 178.653,144.375 178.388,143.977 C178.123,143.576 177.99,143.091 177.99,142.523 C177.99,142.023 178.089,141.617 178.286,141.307 C178.482,140.992 178.746,140.746 179.075,140.568 C179.405,140.39 179.768,140.258 180.166,140.17 C180.568,140.08 180.971,140.008 181.376,139.955 C181.907,139.886 182.337,139.835 182.666,139.801 C183,139.763 183.242,139.701 183.393,139.614 C183.549,139.527 183.626,139.375 183.626,139.159 L183.626,139.114 C183.626,138.553 183.473,138.117 183.166,137.807 C182.863,137.496 182.403,137.341 181.786,137.341 C181.145,137.341 180.643,137.481 180.28,137.761 C179.916,138.042 179.661,138.341 179.513,138.659 L178.24,138.205 C178.467,137.674 178.77,137.261 179.149,136.966 C179.532,136.667 179.948,136.458 180.399,136.341 C180.854,136.22 181.301,136.159 181.74,136.159 C182.02,136.159 182.342,136.193 182.706,136.261 C183.073,136.326 183.428,136.46 183.768,136.665 C184.113,136.869 184.399,137.178 184.626,137.591 C184.854,138.004 184.967,138.557 184.967,139.25 L184.967,145 L183.626,145 L183.626,143.818 L183.558,143.818 C183.467,144.008 183.316,144.21 183.104,144.426 C182.892,144.642 182.609,144.826 182.257,144.977 C181.905,145.129 181.475,145.205 180.967,145.205 Z M181.172,144 C181.702,144 182.149,143.896 182.513,143.688 C182.88,143.479 183.157,143.21 183.342,142.881 C183.532,142.551 183.626,142.205 183.626,141.841 L183.626,140.614 C183.57,140.682 183.445,140.744 183.251,140.801 C183.062,140.854 182.842,140.902 182.592,140.943 C182.346,140.981 182.106,141.015 181.871,141.045 C181.64,141.072 181.452,141.095 181.308,141.114 C180.96,141.159 180.634,141.233 180.331,141.335 C180.032,141.434 179.789,141.583 179.604,141.784 C179.422,141.981 179.331,142.25 179.331,142.591 C179.331,143.057 179.503,143.409 179.848,143.648 C180.196,143.883 180.638,144 181.172,144 Z M187.415,145 L187.415,136.273 L188.71,136.273 L188.71,137.636 L188.824,137.636 C189.006,137.17 189.299,136.809 189.705,136.551 C190.11,136.29 190.597,136.159 191.165,136.159 C191.741,136.159 192.22,136.29 192.602,136.551 C192.989,136.809 193.29,137.17 193.506,137.636 L193.597,137.636 C193.82,137.186 194.155,136.828 194.602,136.562 C195.049,136.294 195.585,136.159 196.21,136.159 C196.991,136.159 197.629,136.403 198.125,136.892 C198.621,137.377 198.869,138.133 198.869,139.159 L198.869,145 L197.528,145 L197.528,139.159 C197.528,138.515 197.352,138.055 197,137.778 C196.648,137.502 196.233,137.364 195.756,137.364 C195.142,137.364 194.667,137.549 194.33,137.92 C193.992,138.288 193.824,138.754 193.824,139.318 L193.824,145 L192.46,145 L192.46,139.023 C192.46,138.527 192.299,138.127 191.977,137.824 C191.655,137.517 191.241,137.364 190.733,137.364 C190.384,137.364 190.059,137.456 189.756,137.642 C189.456,137.828 189.214,138.085 189.028,138.415 C188.847,138.741 188.756,139.117 188.756,139.545 L188.756,145 L187.415,145 Z M207.798,145 L205.139,136.273 L206.548,136.273 L208.435,142.955 L208.526,142.955 L210.389,136.273 L211.821,136.273 L213.662,142.932 L213.753,142.932 L215.639,136.273 L217.048,136.273 L214.389,145 L213.071,145 L211.162,138.295 L211.026,138.295 L209.116,145 L207.798,145 Z M222.183,145.182 C221.342,145.182 220.617,144.996 220.007,144.625 C219.401,144.25 218.933,143.727 218.604,143.057 C218.278,142.383 218.115,141.598 218.115,140.705 C218.115,139.811 218.278,139.023 218.604,138.341 C218.933,137.655 219.392,137.121 219.979,136.739 C220.57,136.352 221.259,136.159 222.047,136.159 C222.501,136.159 222.95,136.235 223.393,136.386 C223.837,136.538 224.24,136.784 224.604,137.125 C224.967,137.462 225.257,137.909 225.473,138.466 C225.689,139.023 225.797,139.708 225.797,140.523 L225.797,141.091 L219.462,141.091 C219.492,142.023 219.755,142.737 220.251,143.233 C220.751,143.729 221.395,143.977 222.183,143.977 C222.71,143.977 223.162,143.864 223.541,143.636 C223.92,143.409 224.195,143.068 224.365,142.614 L225.661,142.977 C225.456,143.636 225.047,144.169 224.433,144.574 C223.82,144.979 223.07,145.182 222.183,145.182 Z M219.462,139.932 L224.433,139.932 C224.433,139.193 224.217,138.581 223.786,138.097 C223.354,137.608 222.774,137.364 222.047,137.364 C221.536,137.364 221.092,137.483 220.717,137.722 C220.342,137.96 220.047,138.277 219.831,138.67 C219.615,139.061 219.492,139.481 219.462,139.932 Z M228.018,145 L228.018,133.364 L229.359,133.364 L229.359,137.659 L229.473,137.659 C229.571,137.508 229.708,137.314 229.882,137.08 C230.06,136.841 230.314,136.629 230.643,136.443 C230.977,136.254 231.428,136.159 231.996,136.159 C232.731,136.159 233.378,136.343 233.939,136.71 C234.5,137.078 234.937,137.598 235.251,138.273 C235.566,138.947 235.723,139.742 235.723,140.659 C235.723,141.583 235.566,142.384 235.251,143.062 C234.937,143.737 234.501,144.259 233.945,144.631 C233.388,144.998 232.746,145.182 232.018,145.182 C231.458,145.182 231.009,145.089 230.672,144.903 C230.335,144.714 230.075,144.5 229.893,144.261 C229.712,144.019 229.571,143.818 229.473,143.659 L229.314,143.659 L229.314,145 L228.018,145 Z M229.337,140.636 C229.337,141.625 229.551,142.43 229.979,143.051 C230.411,143.669 231.03,143.977 231.837,143.977 C232.397,143.977 232.865,143.83 233.24,143.534 C233.619,143.235 233.903,142.833 234.092,142.33 C234.286,141.822 234.382,141.258 234.382,140.636 C234.382,140.023 234.287,139.47 234.098,138.977 C233.912,138.481 233.63,138.089 233.251,137.801 C232.876,137.509 232.405,137.364 231.837,137.364 C231.018,137.364 230.397,137.665 229.973,138.267 C229.549,138.869 229.337,139.659 229.337,140.636 Z M243.956,138.227 L242.751,138.568 C242.634,138.265 242.437,137.981 242.161,137.716 C241.884,137.451 241.452,137.318 240.865,137.318 C240.331,137.318 239.886,137.441 239.53,137.688 C239.178,137.93 239.001,138.239 239.001,138.614 C239.001,138.947 239.123,139.21 239.365,139.403 C239.607,139.597 239.986,139.758 240.501,139.886 L241.797,140.205 C243.342,140.583 244.115,141.371 244.115,142.568 C244.115,143.068 243.971,143.515 243.683,143.909 C243.399,144.303 243.001,144.614 242.49,144.841 C241.979,145.068 241.384,145.182 240.706,145.182 C239.816,145.182 239.079,144.989 238.496,144.602 C237.912,144.216 237.543,143.652 237.388,142.909 L238.661,142.591 C238.899,143.53 239.573,144 240.683,144 C241.308,144 241.804,143.867 242.172,143.602 C242.543,143.333 242.729,143.011 242.729,142.636 C242.729,142.019 242.297,141.61 241.433,141.409 L239.979,141.068 C239.179,140.879 238.592,140.585 238.217,140.188 C237.846,139.786 237.661,139.284 237.661,138.682 C237.661,138.189 237.799,137.754 238.075,137.375 C238.356,136.996 238.736,136.699 239.217,136.483 C239.702,136.267 240.251,136.159 240.865,136.159 C241.729,136.159 242.407,136.348 242.899,136.727 C243.395,137.106 243.748,137.606 243.956,138.227 Z M246.134,145 L246.134,136.273 L247.474,136.273 L247.474,145 L246.134,145 Z M246.815,134.818 C246.554,134.818 246.329,134.729 246.139,134.551 C245.954,134.373 245.861,134.159 245.861,133.909 C245.861,133.659 245.954,133.445 246.139,133.267 C246.329,133.089 246.554,133 246.815,133 C247.077,133 247.3,133.089 247.486,133.267 C247.675,133.445 247.77,133.659 247.77,133.909 C247.77,134.159 247.675,134.373 247.486,134.551 C247.3,134.729 247.077,134.818 246.815,134.818 Z M253.726,136.273 L253.726,137.409 L251.862,137.409 L251.862,142.5 C251.862,142.879 251.917,143.163 252.027,143.352 C252.141,143.538 252.285,143.663 252.459,143.727 C252.637,143.788 252.824,143.818 253.021,143.818 C253.169,143.818 253.29,143.811 253.385,143.795 C253.48,143.777 253.555,143.761 253.612,143.75 L253.885,144.955 C253.794,144.989 253.667,145.023 253.504,145.057 C253.341,145.095 253.135,145.114 252.885,145.114 C252.506,145.114 252.135,145.032 251.771,144.869 C251.411,144.706 251.112,144.458 250.874,144.125 C250.639,143.792 250.521,143.371 250.521,142.864 L250.521,137.409 L249.203,137.409 L249.203,136.273 L250.521,136.273 L250.521,134.182 L251.862,134.182 L251.862,136.273 L253.726,136.273 Z M259.308,145.182 C258.467,145.182 257.742,144.996 257.132,144.625 C256.526,144.25 256.058,143.727 255.729,143.057 C255.403,142.383 255.24,141.598 255.24,140.705 C255.24,139.811 255.403,139.023 255.729,138.341 C256.058,137.655 256.517,137.121 257.104,136.739 C257.695,136.352 258.384,136.159 259.172,136.159 C259.626,136.159 260.075,136.235 260.518,136.386 C260.962,136.538 261.365,136.784 261.729,137.125 C262.092,137.462 262.382,137.909 262.598,138.466 C262.814,139.023 262.922,139.708 262.922,140.523 L262.922,141.091 L256.587,141.091 C256.617,142.023 256.88,142.737 257.376,143.233 C257.876,143.729 258.52,143.977 259.308,143.977 C259.835,143.977 260.287,143.864 260.666,143.636 C261.045,143.409 261.32,143.068 261.49,142.614 L262.786,142.977 C262.581,143.636 262.172,144.169 261.558,144.574 C260.945,144.979 260.195,145.182 259.308,145.182 Z M256.587,139.932 L261.558,139.932 C261.558,139.193 261.342,138.581 260.911,138.097 C260.479,137.608 259.899,137.364 259.172,137.364 C258.661,137.364 258.217,137.483 257.842,137.722 C257.467,137.96 257.172,138.277 256.956,138.67 C256.74,139.061 256.617,139.481 256.587,139.932 Z M273.007,145.182 C272.189,145.182 271.484,144.989 270.893,144.602 C270.303,144.216 269.848,143.684 269.53,143.006 C269.212,142.328 269.053,141.553 269.053,140.682 C269.053,139.795 269.215,139.013 269.541,138.335 C269.871,137.653 270.329,137.121 270.916,136.739 C271.507,136.352 272.196,136.159 272.984,136.159 C273.598,136.159 274.151,136.273 274.643,136.5 C275.136,136.727 275.539,137.045 275.854,137.455 C276.168,137.864 276.363,138.341 276.439,138.886 L275.098,138.886 C274.996,138.489 274.768,138.136 274.416,137.83 C274.068,137.519 273.598,137.364 273.007,137.364 C272.223,137.364 271.59,137.663 271.109,138.261 C270.632,138.856 270.393,139.648 270.393,140.636 C270.393,141.648 270.63,142.458 271.104,143.068 C271.577,143.674 272.212,143.977 273.007,143.977 C273.53,143.977 273.977,143.843 274.348,143.574 C274.723,143.305 274.973,142.932 275.098,142.455 L276.439,142.455 C276.363,142.97 276.176,143.434 275.876,143.847 C275.581,144.256 275.189,144.581 274.7,144.824 C274.215,145.062 273.651,145.182 273.007,145.182 Z M281.945,145.182 C281.157,145.182 280.465,144.994 279.871,144.619 C279.28,144.244 278.818,143.72 278.484,143.045 C278.155,142.371 277.99,141.583 277.99,140.682 C277.99,139.773 278.155,138.979 278.484,138.301 C278.818,137.623 279.28,137.097 279.871,136.722 C280.465,136.347 281.157,136.159 281.945,136.159 C282.732,136.159 283.422,136.347 284.013,136.722 C284.607,137.097 285.07,137.623 285.399,138.301 C285.732,138.979 285.899,139.773 285.899,140.682 C285.899,141.583 285.732,142.371 285.399,143.045 C285.07,143.72 284.607,144.244 284.013,144.619 C283.422,144.994 282.732,145.182 281.945,145.182 Z M281.945,143.977 C282.543,143.977 283.036,143.824 283.422,143.517 C283.808,143.21 284.094,142.807 284.28,142.307 C284.465,141.807 284.558,141.265 284.558,140.682 C284.558,140.098 284.465,139.555 284.28,139.051 C284.094,138.547 283.808,138.14 283.422,137.83 C283.036,137.519 282.543,137.364 281.945,137.364 C281.346,137.364 280.854,137.519 280.467,137.83 C280.081,138.14 279.795,138.547 279.609,139.051 C279.424,139.555 279.331,140.098 279.331,140.682 C279.331,141.265 279.424,141.807 279.609,142.307 C279.795,142.807 280.081,143.21 280.467,143.517 C280.854,143.824 281.346,143.977 281.945,143.977 Z M289.287,139.75 L289.287,145 L287.946,145 L287.946,136.273 L289.241,136.273 L289.241,137.636 L289.355,137.636 C289.56,137.193 289.87,136.837 290.287,136.568 C290.704,136.295 291.241,136.159 291.901,136.159 C292.783,136.159 293.495,136.43 294.037,136.972 C294.582,137.513 294.855,138.341 294.855,139.455 L294.855,145 L293.514,145 L293.514,139.545 C293.514,138.86 293.336,138.326 292.98,137.943 C292.624,137.557 292.135,137.364 291.514,137.364 C290.874,137.364 290.342,137.572 289.918,137.989 C289.497,138.402 289.287,138.989 289.287,139.75 Z M301.101,136.273 L301.101,137.409 L299.237,137.409 L299.237,142.5 C299.237,142.879 299.292,143.163 299.402,143.352 C299.516,143.538 299.66,143.663 299.834,143.727 C300.012,143.788 300.199,143.818 300.396,143.818 C300.544,143.818 300.665,143.811 300.76,143.795 C300.855,143.777 300.93,143.761 300.987,143.75 L301.26,144.955 C301.169,144.989 301.042,145.023 300.879,145.057 C300.716,145.095 300.51,145.114 300.26,145.114 C299.881,145.114 299.51,145.032 299.146,144.869 C298.786,144.706 298.487,144.458 298.249,144.125 C298.014,143.792 297.896,143.371 297.896,142.864 L297.896,137.409 L296.578,137.409 L296.578,136.273 L297.896,136.273 L297.896,134.182 L299.237,134.182 L299.237,136.273 L301.101,136.273 Z M306.683,145.182 C305.842,145.182 305.117,144.996 304.507,144.625 C303.901,144.25 303.433,143.727 303.104,143.057 C302.778,142.383 302.615,141.598 302.615,140.705 C302.615,139.811 302.778,139.023 303.104,138.341 C303.433,137.655 303.892,137.121 304.479,136.739 C305.07,136.352 305.759,136.159 306.547,136.159 C307.001,136.159 307.45,136.235 307.893,136.386 C308.337,136.538 308.74,136.784 309.104,137.125 C309.467,137.462 309.757,137.909 309.973,138.466 C310.189,139.023 310.297,139.708 310.297,140.523 L310.297,141.091 L303.962,141.091 C303.992,142.023 304.255,142.737 304.751,143.233 C305.251,143.729 305.895,143.977 306.683,143.977 C307.21,143.977 307.662,143.864 308.041,143.636 C308.42,143.409 308.695,143.068 308.865,142.614 L310.161,142.977 C309.956,143.636 309.547,144.169 308.933,144.574 C308.32,144.979 307.57,145.182 306.683,145.182 Z M303.962,139.932 L308.933,139.932 C308.933,139.193 308.717,138.581 308.286,138.097 C307.854,137.608 307.274,137.364 306.547,137.364 C306.036,137.364 305.592,137.483 305.217,137.722 C304.842,137.96 304.547,138.277 304.331,138.67 C304.115,139.061 303.992,139.481 303.962,139.932 Z M313.678,139.75 L313.678,145 L312.337,145 L312.337,136.273 L313.632,136.273 L313.632,137.636 L313.746,137.636 C313.95,137.193 314.261,136.837 314.678,136.568 C315.094,136.295 315.632,136.159 316.291,136.159 C317.174,136.159 317.886,136.43 318.428,136.972 C318.973,137.513 319.246,138.341 319.246,139.455 L319.246,145 L317.905,145 L317.905,139.545 C317.905,138.86 317.727,138.326 317.371,137.943 C317.015,137.557 316.526,137.364 315.905,137.364 C315.265,137.364 314.732,137.572 314.308,137.989 C313.888,138.402 313.678,138.989 313.678,139.75 Z M325.491,136.273 L325.491,137.409 L323.628,137.409 L323.628,142.5 C323.628,142.879 323.683,143.163 323.793,143.352 C323.906,143.538 324.05,143.663 324.224,143.727 C324.402,143.788 324.59,143.818 324.787,143.818 C324.935,143.818 325.056,143.811 325.151,143.795 C325.245,143.777 325.321,143.761 325.378,143.75 L325.651,144.955 C325.56,144.989 325.433,145.023 325.27,145.057 C325.107,145.095 324.901,145.114 324.651,145.114 C324.272,145.114 323.901,145.032 323.537,144.869 C323.177,144.706 322.878,144.458 322.639,144.125 C322.404,143.792 322.287,143.371 322.287,142.864 L322.287,137.409 L320.969,137.409 L320.969,136.273 L322.287,136.273 L322.287,134.182 L323.628,134.182 L323.628,136.273 L325.491,136.273 Z" id="Shape" fill="#000000" fill-rule="nonzero"></path>
                <rect id="Rectangle" fill="#D3D8E0" fill-rule="nonzero" x="620" y="105" width="52.5" height="52.5"></rect>
                <polygon id="Path" fill="#D3D8E0" fill-rule="nonzero" points="625.837 157.5 620 157.5 620 163.337 625.837 163.337"></polygon>
                <polygon id="Path" fill="#D3D8E0" fill-rule="nonzero" points="631.674 163.337 625.837 163.337 625.837 169.174 631.674 169.174"></polygon>
                <polygon id="Path" fill="#D3D8E0" fill-rule="nonzero" points="637.494 157.5 631.658 157.5 631.658 163.337 637.494 163.337"></polygon>
                <polygon id="Path" fill="#D3D8E0" fill-rule="nonzero" points="625.837 169.158 620 169.158 620 174.995 625.837 174.995"></polygon>
                <polygon id="Path" fill="#D3D8E0" fill-rule="nonzero" points="637.494 169.158 631.658 169.158 631.658 174.995 637.494 174.995"></polygon>
                <polygon id="Path" fill="#D3D8E0" fill-rule="nonzero" points="643.332 163.337 637.496 163.337 637.496 169.174 643.332 169.174"></polygon>
                <polygon id="Path" fill="#D3D8E0" fill-rule="nonzero" points="631.674 174.995 625.837 174.995 625.837 180.832 631.674 180.832"></polygon>
                <polygon id="Path" fill="#D3D8E0" fill-rule="nonzero" points="625.837 180.832 620 180.832 620 186.669 625.837 186.669"></polygon>
                <polygon id="Path" fill="#D3D8E0" fill-rule="nonzero" points="637.494 180.832 631.658 180.832 631.658 186.669 637.494 186.669"></polygon>
                <polygon id="Path" fill="#D3D8E0" fill-rule="nonzero" points="643.332 174.995 637.496 174.995 637.496 180.832 643.332 180.832"></polygon>
                <polygon id="Path" fill="#D3D8E0" fill-rule="nonzero" points="631.674 186.668 625.837 186.668 625.837 192.505 631.674 192.505"></polygon>
                <polygon id="Path" fill="#D3D8E0" fill-rule="nonzero" points="625.837 192.489 620 192.489 620 198.326 625.837 198.326"></polygon>
                <polygon id="Path" fill="#D3D8E0" fill-rule="nonzero" points="637.494 192.489 631.658 192.489 631.658 198.326 637.494 198.326"></polygon>
                <polygon id="Path" fill="#D3D8E0" fill-rule="nonzero" points="643.332 186.668 637.496 186.668 637.496 192.505 643.332 192.505"></polygon>
                <polygon id="Path" fill="#D3D8E0" fill-rule="nonzero" points="631.674 198.326 625.837 198.326 625.837 204.163 631.674 204.163"></polygon>
                <polygon id="Path" fill="#D3D8E0" fill-rule="nonzero" points="625.837 204.164 620 204.164 620 210.001 625.837 210.001"></polygon>
                <polygon id="Path" fill="#D3D8E0" fill-rule="nonzero" points="637.494 204.164 631.658 204.164 631.658 210.001 637.494 210.001"></polygon>
                <polygon id="Path" fill="#D3D8E0" fill-rule="nonzero" points="643.332 198.326 637.496 198.326 637.496 204.163 643.332 204.163"></polygon>
                <polygon id="Path" fill="#D3D8E0" fill-rule="nonzero" points="649.168 157.5 643.331 157.5 643.331 163.337 649.168 163.337"></polygon>
                <polygon id="Path" fill="#D3D8E0" fill-rule="nonzero" points="655.006 163.337 649.169 163.337 649.169 169.174 655.006 169.174"></polygon>
                <polygon id="Path" fill="#D3D8E0" fill-rule="nonzero" points="660.826 157.5 654.99 157.5 654.99 163.337 660.826 163.337"></polygon>
                <polygon id="Path" fill="#D3D8E0" fill-rule="nonzero" points="649.168 169.158 643.331 169.158 643.331 174.995 649.168 174.995"></polygon>
                <polygon id="Path" fill="#D3D8E0" fill-rule="nonzero" points="660.826 169.158 654.99 169.158 654.99 174.995 660.826 174.995"></polygon>
                <polygon id="Path" fill="#D3D8E0" fill-rule="nonzero" points="666.663 163.337 660.827 163.337 660.827 169.174 666.663 169.174"></polygon>
                <polygon id="Path" fill="#D3D8E0" fill-rule="nonzero" points="655.006 174.995 649.169 174.995 649.169 180.832 655.006 180.832"></polygon>
                <polygon id="Path" fill="#D3D8E0" fill-rule="nonzero" points="649.168 180.832 643.331 180.832 643.331 186.669 649.168 186.669"></polygon>
                <polygon id="Path" fill="#D3D8E0" fill-rule="nonzero" points="660.826 180.832 654.99 180.832 654.99 186.669 660.826 186.669"></polygon>
                <polygon id="Path" fill="#D3D8E0" fill-rule="nonzero" points="666.663 174.995 660.827 174.995 660.827 180.832 666.663 180.832"></polygon>
                <polygon id="Path" fill="#D3D8E0" fill-rule="nonzero" points="655.006 186.668 649.169 186.668 649.169 192.505 655.006 192.505"></polygon>
                <polygon id="Path" fill="#D3D8E0" fill-rule="nonzero" points="649.168 192.489 643.331 192.489 643.331 198.326 649.168 198.326"></polygon>
                <polygon id="Path" fill="#D3D8E0" fill-rule="nonzero" points="660.826 192.489 654.99 192.489 654.99 198.326 660.826 198.326"></polygon>
                <polygon id="Path" fill="#D3D8E0" fill-rule="nonzero" points="666.663 186.668 660.827 186.668 660.827 192.505 666.663 192.505"></polygon>
                <polygon id="Path" fill="#D3D8E0" fill-rule="nonzero" points="655.006 198.326 649.169 198.326 649.169 204.163 655.006 204.163"></polygon>
                <polygon id="Path" fill="#D3D8E0" fill-rule="nonzero" points="649.168 204.164 643.331 204.164 643.331 210.001 649.168 210.001"></polygon>
                <polygon id="Path" fill="#D3D8E0" fill-rule="nonzero" points="660.826 204.164 654.99 204.164 654.99 210.001 660.826 210.001"></polygon>
                <polygon id="Path" fill="#D3D8E0" fill-rule="nonzero" points="672.5 157.5 666.663 157.5 666.663 163.337 672.5 163.337"></polygon>
                <polygon id="Path" fill="#D3D8E0" fill-rule="nonzero" points="672.5 169.158 666.663 169.158 666.663 174.995 672.5 174.995"></polygon>
                <polygon id="Path" fill="#D3D8E0" fill-rule="nonzero" points="672.5 180.832 666.663 180.832 666.663 186.669 672.5 186.669"></polygon>
                <polygon id="Path" fill="#D3D8E0" fill-rule="nonzero" points="672.5 192.489 666.663 192.489 666.663 198.326 672.5 198.326"></polygon>
                <polygon id="Path" fill="#D3D8E0" fill-rule="nonzero" points="672.5 204.164 666.663 204.164 666.663 210.001 672.5 210.001"></polygon>
                <polygon id="Path" fill="#D3D8E0" fill-rule="nonzero" points="666.663 198.326 660.827 198.326 660.827 204.163 666.663 204.163"></polygon>
                <rect id="Rectangle" fill="#D3D8E0" fill-rule="nonzero" x="631.667" y="52.5" width="5.83333" height="52.5"></rect>
                <rect id="Rectangle" fill="#D3D8E0" fill-rule="nonzero" x="643.333" y="52.5" width="5.83333" height="52.5"></rect>
                <rect id="Rectangle" fill="#D3D8E0" fill-rule="nonzero" x="655" y="52.5" width="5.83333" height="52.5"></rect>
                <rect id="Rectangle" fill="#D3D8E0" fill-rule="nonzero" x="666.667" y="52.5" width="5.83333" height="52.5"></rect>
                <rect id="Rectangle" fill="#D3D8E0" fill-rule="nonzero" x="620" y="52.5" width="5.83668" height="52.5"></rect>
                <rect id="Rectangle" fill="#D3D8E0" fill-rule="nonzero" transform="translate(552.916335, 131.250000) rotate(-180.000000) translate(-552.916335, -131.250000) " x="549.99967" y="105" width="5.83333" height="52.5"></rect>
                <rect id="Rectangle" fill="#D3D8E0" fill-rule="nonzero" transform="translate(541.250335, 131.250000) rotate(-180.000000) translate(-541.250335, -131.250000) " x="538.33367" y="105" width="5.83333" height="52.5"></rect>
                <rect id="Rectangle" fill="#D3D8E0" fill-rule="nonzero" transform="translate(529.583335, 131.250000) rotate(-180.000000) translate(-529.583335, -131.250000) " x="526.66667" y="105" width="5.83333" height="52.5"></rect>
                <rect id="Rectangle" fill="#D3D8E0" fill-rule="nonzero" transform="translate(517.916335, 131.250000) rotate(-180.000000) translate(-517.916335, -131.250000) " x="514.99967" y="105" width="5.83333" height="52.5"></rect>
                <rect id="Rectangle" fill="#D3D8E0" fill-rule="nonzero" transform="translate(564.581660, 131.250000) rotate(-180.000000) translate(-564.581660, -131.250000) " x="561.66332" y="105" width="5.83668" height="52.5"></rect>
                <rect id="Rectangle" fill="#D3D8E0" fill-rule="nonzero" transform="translate(867.588335, 27.234400) rotate(-180.000000) translate(-867.588335, -27.234400) " x="864.67167" y="0.9844" width="5.83333" height="52.5"></rect>
                <rect id="Rectangle" fill="#D3D8E0" fill-rule="nonzero" transform="translate(855.921335, 27.234400) rotate(-180.000000) translate(-855.921335, -27.234400) " x="853.00467" y="0.9844" width="5.83333" height="52.5"></rect>
                <rect id="Rectangle" fill="#D3D8E0" fill-rule="nonzero" transform="translate(844.255335, 27.234400) rotate(-180.000000) translate(-844.255335, -27.234400) " x="841.33867" y="0.9844" width="5.83333" height="52.5"></rect>
                <rect id="Rectangle" fill="#D3D8E0" fill-rule="nonzero" transform="translate(832.588335, 27.234400) rotate(-180.000000) translate(-832.588335, -27.234400) " x="829.67167" y="0.9844" width="5.83333" height="52.5"></rect>
                <rect id="Rectangle" fill="#D3D8E0" fill-rule="nonzero" transform="translate(879.253660, 27.234400) rotate(-180.000000) translate(-879.253660, -27.234400) " x="876.33532" y="0.9844" width="5.83668" height="52.5"></rect>
                <path d="M567.5,163.333 L567.5,157.5 C596.495,157.5 620,181.005 620,210 L614.167,210 C614.167,184.227 593.273,163.333 567.5,163.333 Z M567.5,175 L567.5,169.166 C590.052,169.166 608.333,187.448 608.333,210 L602.5,210 C602.5,190.67 586.83,175 567.5,175 Z M567.5,180.834 L567.5,186.667 C580.387,186.667 590.833,197.114 590.833,210 L596.667,210 C596.667,193.892 583.608,180.834 567.5,180.834 Z M567.5,198.333 L567.5,192.5 C577.165,192.5 585,200.335 585,210 L579.167,210 C579.167,203.557 573.943,198.333 567.5,198.333 Z M567.5,210 L567.5,204.166 C570.722,204.166 573.333,206.778 573.333,210 L567.5,210 Z" id="Shape" fill="#D3D8E0"></path>
                <path d="M777,110.833 L777,105 C805.995,105 829.5,128.505 829.5,157.5 L823.667,157.5 C823.667,131.727 802.773,110.833 777,110.833 Z M777,122.5 L777,116.667 C799.552,116.667 817.833,134.949 817.833,157.5 L812,157.5 C812,138.17 796.33,122.5 777,122.5 Z M777,128.333 L777,134.167 C789.887,134.167 800.333,144.613 800.333,157.5 L806.167,157.5 C806.167,141.392 793.108,128.333 777,128.333 Z M777,145.833 L777,140 C786.665,140 794.5,147.835 794.5,157.5 L788.667,157.5 C788.667,151.056 783.443,145.833 777,145.833 Z M777,157.5 L777,151.667 C780.222,151.667 782.833,154.279 782.833,157.5 L777,157.5 Z" id="Shape" fill="#D3D8E0"></path>
                <path d="M729.112,52.5 L725,52.5 L725,48.3875 L773.387,0 L777.5,0 L777.5,4.1125 L729.112,52.5 Z M765.133,0 L756.879,0 L725,31.8791 L725,40.1333 L765.133,0 Z M748.625,0 L740.371,0 L725,15.3708 L725,23.625 L748.625,0 Z M725,0 L725,7.11666 L732.117,0 L725,0 Z M777.5,20.6208 L777.5,12.3667 L737.367,52.5 L745.621,52.5 L777.5,20.6208 Z M777.5,37.1291 L777.5,28.875 L753.875,52.5 L762.129,52.5 L777.5,37.1291 Z M777.5,45.3833 L770.383,52.5 L777.5,52.5 L777.5,45.3833 Z" id="Shape" fill="#D3D8E0" fill-rule="nonzero"></path>
                <path d="M672.5,105 L725,105 L725,52.5 C696.005,52.5 672.5,76.0051 672.5,105 Z" id="Path" fill="#D3D8E0" fill-rule="nonzero"></path>
                <path d="M777.5,157.5 L777.5,105 L725,105 C725,133.995 748.505,157.5 777.5,157.5 Z" id="Path" fill="#D3D8E0" fill-rule="nonzero"></path>
                <polygon id="Path" fill="#000000" fill-rule="nonzero" points="633.062 281.289 647.736 283.26 659.484 278.929 659.484 192.262 643.374 188.24 633.062 192.62"></polygon>
                <path d="M636.641,277.795 L636.641,227.692 L642.5,273.942 L646.259,225.91 L646.46,222.087 C646.741,219.067 647.341,217.309 648.259,216.811 C649.176,216.313 650.818,216.313 653.183,216.811 L653.183,275.824 L646.148,278.87 L636.641,277.795 Z" id="Path" fill="#C4C3C6" fill-rule="nonzero"></path>
                <path d="M642.912,192.202 C641.043,207.778 640.054,228.229 639.947,253.554 C639.84,278.88 638.738,287.036 636.641,278.023 L645.153,278.899 L642.912,192.202 Z" id="Path" fill="#FFFFFF"></path>
                <polygon id="Path" fill="#000000" fill-rule="nonzero" points="633.062 281.289 647.736 283.26 659.484 278.929 659.484 192.262 643.374 188.24 633.062 192.62"></polygon>
                <path d="M636.641,277.795 L636.641,227.692 L642.5,273.942 L646.259,225.91 L646.46,222.087 C646.741,219.067 647.341,217.309 648.259,216.811 C649.176,216.313 650.818,216.313 653.183,216.811 L653.183,275.824 L646.148,278.87 L636.641,277.795 Z" id="Path" fill="#D3D8E0" fill-rule="nonzero"></path>
                <polygon id="Path" fill="#FFFFFF" points="642.912 192.202 636.641 277.994 645.153 278.87"></polygon>
                <polygon id="Path" fill="#000000" fill-rule="nonzero" points="654.881 64.481 640.208 62.5 628.459 66.8403 628.459 176.265 644.57 180.276 654.881 175.906"></polygon>
                <path d="M651.304,67.975 L651.304,140.835 L645.414,71.8176 L641.655,142.637 L641.454,146.459 C641.173,149.479 640.573,151.238 639.655,151.736 C638.738,152.233 637.096,152.233 634.731,151.736 L634.731,69.966 L641.766,66.9795 L651.304,67.975 Z" id="Path" fill="#C4C3C6" fill-rule="nonzero"></path>
                <path d="M645.032,176.325 C646.902,160.735 647.907,140.285 648.047,114.973 C648.188,89.6606 649.29,73.9286 651.354,67.7764 L642.841,66.9004 L645.032,176.325 Z" id="Path" fill="#FFFFFF"></path>
                <polygon id="Path" fill="#000000" fill-rule="nonzero" points="654.881 64.481 640.208 62.5 628.459 66.8403 628.459 176.265 644.57 180.276 654.881 175.906"></polygon>
                <path d="M651.304,67.975 L651.304,140.835 L645.414,71.8176 L641.655,142.637 L641.454,146.459 C641.173,149.479 640.573,151.238 639.655,151.736 C638.738,152.233 637.096,152.233 634.731,151.736 L634.731,69.966 L641.766,66.9795 L651.304,67.975 Z" id="Path" fill="#D3D8E0" fill-rule="nonzero"></path>
                <path d="M645.032,176.325 C646.902,160.735 647.907,140.285 648.047,114.973 C648.188,89.6606 649.29,73.9286 651.354,67.7764 L642.841,66.9004 L645.032,176.325 Z" id="Path" fill="#FFFFFF"></path>
                <polygon id="Path" stroke="#979797" fill="#D8D8D8" points="554.059 101.822 554.059 227.144 736.72 183.343 736.72 83.9033"></polygon>
                <polygon id="Path" fill="#000000" fill-rule="nonzero" points="542.3 92.7036 730.619 74.4463 742.77 79.7921 741.835 189.067 554.762 233.765 542.3 228.439"></polygon>
                <polygon id="Path" fill="#D3D8E0" fill-rule="nonzero" points="546.893 96.7545 546.893 185.473 553.998 101.443 555.335 229.214 737.865 185.652 738.75 82.7081 730.318 79.0049"></polygon>
                <polygon id="Path" fill="#D3D8E0" points="554.36 100.12 737.604 82.4199 737.604 184.478 554.36 228.648"></polygon>
                <polygon id="Path" fill="#000000" points="561.827 109.617 729.564 91.5186 729.564 178.286 561.827 216.692"></polygon>
                <path d="M600.802,126.4 C627.877,126.4 623.374,110.88 655.856,107.088 C677.518,104.566 702.087,100.325 729.564,94.3652 L729.564,177.25 L565.274,214.989 L566.169,165.025 C566.169,148.878 573.717,126.4 600.802,126.4 Z" id="Path" fill="#D3D8E0"></path>
                <polygon id="Path" fill="#000000" points="659.484 110.861 716.921 104.609 719.222 107.456 719.222 170.61 666.369 182.397 664.077 179.709"></polygon>
                <polygon id="Path" fill="#D3D8E0" points="664.077 114.524 716.921 104.609 716.921 167.763 664.077 179.55"></polygon>
                <path d="M681.695,123.385 L673.836,125.047 C673.836,125.873 673.836,126.71 673.916,127.546 L678.137,126.799 L678.208,137.819 C678.182,138.282 678.008,138.724 677.712,139.082 C677.416,139.44 677.012,139.695 676.56,139.81 L674.248,140.497 L675.253,143.305 L678.791,142.359 C679.912,142.071 680.874,141.356 681.464,140.368 C681.77,139.817 681.922,139.195 681.906,138.566 L681.695,123.385 Z" id="Path" fill="#000000" fill-rule="nonzero"></path>
                <path d="M690.197,130.87 C697.855,128.215 702.984,126.666 705.584,126.221 C709.483,125.584 709.704,125.763 705.112,127.804 C701.492,129.43 697.674,130.585 693.755,131.238 C691.082,131.796 689.896,131.686 690.197,130.87 Z" id="Path" fill="#000000"></path>
                <path d="M711.916,132.781 C702.315,135.721 695.899,137.45 692.67,137.968 C687.816,138.764 687.534,138.605 693.313,136.425 C697.897,134.679 702.649,133.398 707.494,132.602 C710.844,131.945 712.318,132.005 711.916,132.781 Z" id="Path" fill="#000000"></path>
                <path d="M711.634,139.7 C694.609,144.637 683.219,147.71 677.464,148.918 C668.851,150.73 668.358,150.63 678.609,147.236 C686.85,144.506 695.238,142.236 703.735,140.436 C709.731,139.069 712.365,138.824 711.634,139.7 Z" id="Path" fill="#000000"></path>
                <path d="M711.634,146.618 C694.609,151.556 683.219,154.629 677.464,155.837 C668.851,157.648 668.358,157.549 678.609,154.154 C686.85,151.424 695.238,149.154 703.735,147.355 C709.731,146.021 712.365,145.776 711.634,146.618 Z" id="Path" fill="#000000"></path>
                <path d="M690.167,124.43 C694.944,122.552 698.147,121.556 699.775,121.444 C702.227,121.244 702.378,121.444 699.534,123.036 C697.375,124.266 694.977,125.026 692.499,125.266 C690.74,125.485 690.006,125.217 690.167,124.43 Z" id="Path" fill="#000000"></path>
                <path d="M671.001,164.588 C678.874,162.139 684.157,160.749 686.851,160.417 C690.871,159.919 691.142,160.118 686.449,162.039 C682.713,163.58 678.785,164.614 674.77,165.116 C671.986,165.534 670.73,165.404 671.001,164.588 Z" id="Path" fill="#000000"></path>
                <polygon id="Path" fill="#FFFFFF" points="726.458 95.2915 729.564 91.5186 729.564 178.196 561.827 216.692 565.375 212.998 726.478 175.966"></polygon>
                <path d="M554.059,228.647 C551.962,205.041 550.776,180.153 550.501,153.985 C550.226,127.817 550.226,109.377 550.501,98.6658 L729.604,79.0049 L737.644,82.519 L553.627,100.826 L554.059,228.647 Z" id="Path" fill="#FFFFFF"></path>
                <path d="M550.34,99.4825 L544.008,94.8535 L544.26,138.705 C545.338,123.919 546.213,113.489 546.883,107.417 C547.553,101.344 548.702,101.381 550.33,107.526 L550.34,99.4825 Z" id="Path" fill="#000000"></path>
                <path d="M583.204,140.297 C583.204,129.198 581.777,126.36 578.521,117.849 C583.174,117.222 612.902,111.418 625.314,109.746 C629.103,109.248 632.198,116.903 632.198,123.553 C632.198,127.376 635.213,140.984 633.977,151.307 C633.061,158.083 632.511,164.902 632.329,171.735 C635.022,171.377 635.816,170.829 636.912,172.571 C638.65,175.339 638.62,182.715 637.706,188.778 C637.042,193.228 635.897,196.971 634.64,197.648 C629.756,200.266 612.088,200.863 602.641,200.863 C598.403,200.998 594.17,200.471 590.098,199.3 C584.953,197.608 583.013,194.721 581.767,191.575 C578.681,184.169 582.199,149.884 583.204,140.297 Z" id="Path" fill="#000000"></path>
                <path d="M584.259,119.402 L624.269,112.832 C627.311,114.611 628.835,120.55 628.842018,130.651 C628.848,140.752 627.324,154.072 624.269,170.61 C603.572,174.347 592.266,176.484 590.35,177.021 C588.44,177.569 586.712,179.112 585.194,181.67 C584.524,167.899 584.976,156.375 586.551,147.097 C587.465,141.691 587.707,132.015 586.551,126.699 C586.113,124.178 585.342,121.725 584.259,119.402 Z" id="Path" fill="#D3D8E0"></path>
                <path d="M595.344,133.319 C606.942,130.406 614.701,128.707 618.621,128.222 C624.5,127.496 624.842,127.685 617.877,129.895 C612.293,131.68 606.553,132.946 600.731,133.678 C596.661,134.275 594.872,134.165 595.344,133.319 Z" id="Path" fill="#000000"></path>
                <path d="M588.862,126.241 C585.455,122.538 586.43,120.467 584.259,119.422 L623.937,112.832 C625.786,113.947 627.073,116.655 627.786,120.935 C604.095,126.948 591.12,128.717 588.862,126.241 Z" id="Path" fill="#FFFFFF"></path>
                <path d="M627.515,172.87 C628.198,172.78 629.254,173.995 630.037,176.135 C631.284,179.53 629.223,181.451 626.942,182.745 C621.304,184.099 603.324,188.061 602.902,187.374 C595.666,190.115 592.557,190.669 593.576,189.037 C594.38,187.743 594.148,187.046 594.179,184.288 C594.27,183.315 594.075,182.336 593.616,181.47 C593.158,180.605 592.456,179.889 591.596,179.41 L627.515,172.87 Z" id="Path" fill="#FFFFFF"></path>
                <path d="M631.203,182.765 C630.098,186.409 610.239,188.559 604.922,189.734 C599.606,190.909 591.184,193.059 592.249,191.416 C593.098,189.824 594.321,188.458 595.817,187.434 C597.193,186.538 609.445,181.412 619.012,179.271 C625.404,177.844 628.905,176.222 629.515,174.403 C632.449,177.479 631.203,181.68 631.203,182.765 Z" id="Path" fill="#D3D8E0"></path>
                <path d="M590.088,182.188 C590.493,182.669 590.791,183.228 590.964,183.83 C591.137,184.432 591.181,185.063 591.093,185.683 C591.093,186.031 591.023,186.37 590.973,186.678 L587.455,187.325 C587.43,186.761 587.474,186.196 587.586,185.643 C587.777,184.71 588.19,183.837 588.792,183.094 C589.145,182.694 589.589,182.384 590.088,182.188 Z" id="Path" fill="#C4C3C6"></path>
                <path d="M595.344,133.319 C606.942,130.406 614.701,128.707 618.621,128.222 C624.5,127.496 624.842,127.685 617.877,129.895 C612.293,131.68 606.553,132.946 600.731,133.678 C596.661,134.275 594.872,134.165 595.344,133.319 Z" id="Path" fill="#000000"></path>
                <path d="M595.324,147.614 C604.945,144.681 611.384,143.022 614.64,142.637 C619.535,142.02 619.816,142.249 614.057,144.538 C609.489,146.359 604.708,147.603 599.826,148.242 C596.45,148.789 594.942,148.61 595.324,147.614 Z" id="Path" fill="#000000"></path>
                <path d="M622.982,150.342 C610.922,153.256 602.882,154.951 598.862,155.429 C592.771,156.126 592.42,155.937 599.666,153.707 C605.475,151.922 611.435,150.666 617.475,149.954 C621.662,149.35 623.498,149.48 622.982,150.342 Z" id="Path" fill="#000000"></path>
                <path d="M595.264,140.238 C601.368,138.294 605.461,137.278 607.545,137.192 C610.671,137.053 610.872,137.302 607.234,138.984 C604.395,140.31 601.323,141.074 598.188,141.234 C596.058,141.453 595.083,141.124 595.264,140.238 Z" id="Path" fill="#000000"></path>
                <path d="M587.616,169.117 C589.244,168.968 590.631,168.46 590.169,168.908 C589.48,169.493 588.747,170.025 587.978,170.501 C587.586,170.74 587.214,170.949 586.852,171.128 C587.857,170.949 588.772,170.83 589.455,170.76 C592.852,170.431 593.083,170.531 589.325,171.636 C587.867,172.064 586.621,172.373 585.435,172.631 L586.038,172.631 C586.782,172.711 588.048,172.91 588.309,172.99 C588.862,173.139 587.807,173.189 586.872,173.497 C586.134,173.703 585.376,173.83 584.611,173.876 L584.209,169.894 C585.315,169.519 586.456,169.259 587.616,169.117 Z" id="Path" fill="#000000"></path>
                <path d="M627.786,116.475 C626.977,116.795 626.134,117.026 625.274,117.162 C624.178,117.271 623.023,117.749 623.575,117.301 C623.857,117.072 625.163,116.236 625.947,115.768 L626.59,115.41 C625.244,115.728 623.806,116.007 622.108,116.246 C617.736,116.873 617.967,116.644 621.736,115.33 C622.49,115.061 623.465,114.773 624.651,114.444 C624.186,114.422 623.723,114.372 623.264,114.295 C622.311,114.139 621.374,113.906 620.46,113.598 C619.877,113.299 621.465,113.19 623.274,112.602 C624.532,112.208 625.829,111.951 627.143,111.836 L627.786,116.475 Z" id="Path" fill="#000000"></path>
                <path d="M630.761,130.86 L629.283,140.228 C622.456,138.058 617.357,136.465 613.987,135.45 C608.721,133.867 606.751,132.384 606.63,130.472 C606.617,130.081 606.65,129.69 606.731,129.307 L606.731,129.238 C606.822,128.633 607.04,128.055 607.373,127.54 C607.706,127.025 608.144,126.586 608.661,126.251 L608.831,126.132 L630.761,130.86 Z" id="Path" fill="#000000" fill-rule="nonzero"></path>
                <path d="M636.882,147.884 L628.148,145.376 L629.153,136.048 L639.796,138.975 C641.304,136.645 643.123,135.341 644.68,135.759 C647.183,136.426 648.037,141.334 646.58,146.709 C645.123,152.085 641.897,155.928 639.394,155.261 C637.474,154.763 636.54,151.727 636.882,147.884 Z" id="Path" fill="#000000" fill-rule="nonzero"></path>
                <path d="M642.097,107.009 L646.891,115.202 L646.439,115.461 C632.067,123.703 622.439,128.807 617.555,130.771 C612.45,132.822 609.977,132.911 608.651,131.468 C608.387,131.166 608.164,130.831 607.987,130.473 L607.987,130.413 C607.685,129.889 607.496,129.309 607.432,128.709 C607.368,128.11 607.43,127.503 607.615,126.929 L607.676,126.72 L642.097,107.009 Z" id="Path" fill="#000000" fill-rule="nonzero"></path>
                <path d="M642.5,108.79 L645.324,113.608 C635.375,119.402 627.552,123.41 621.857,125.634 C616.162,127.857 612.015,128.521 609.415,127.625 L642.5,108.79 Z" id="Path" fill="#D3D8E0"></path>
                <path d="M641.716,109.636 L642.841,111.557 C634.801,116.163 629.217,119.149 626.088,120.516 C622.959,121.884 620.764,122.461 619.505,122.249 L641.716,109.636 Z" id="Path" fill="#FFFFFF"></path>
                <path d="M626.118,119.512 L626.57,120.278 C622.409,122.654 619.542,124.21 617.967,124.947 C616.954,125.515 615.837,125.877 614.681,126.012 L626.118,119.512 Z" id="Path" fill="#FFFFFF"></path>
                <path d="M642.047,111.469 L642.499,112.235 C638.339,114.605 635.474,116.158 633.907,116.894 C632.894,117.464 631.777,117.826 630.62,117.959 L642.047,111.469 Z" id="Path" fill="#000000"></path>
                <path d="M641.736,112.892 C638.932,108.303 639.113,103.047 642.279,101.165 C645.445,99.2838 650.229,101.593 653.023,106.143 C655.816,110.692 655.646,115.988 652.48,117.87 C649.314,119.751 644.51,117.491 641.736,112.892 Z" id="Path" fill="#000000" fill-rule="nonzero"></path>
                <path d="M643.072,103.017 C641.444,104.281 641.896,107.994 644.167,111.618 C646.328,115.042 649.384,117.143 651.353,116.685 L651.112,116.844 C649.213,117.919 645.755,115.749 643.374,111.996 C640.992,108.243 640.62,104.321 642.519,103.236 C642.693,103.138 642.879,103.064 643.072,103.017 Z" id="Path" fill="#D3D8E0"></path>
                <path d="M652.304,115.286 C654.098,114.218 653.851,110.549 651.752,107.09 C649.654,103.631 646.499,101.692 644.705,102.759 C642.912,103.827 643.159,107.497 645.257,110.956 C647.355,114.415 650.51,116.353 652.304,115.286 Z" id="Path" fill="#D3D8E0" fill-rule="nonzero"></path>
                <path d="M643.776,105.177 C643.722,104.74 643.787,104.296 643.963,103.892 C644.14,103.488 644.422,103.138 644.781,102.878 C646.298,102.001 649.012,103.694 650.811,106.65 C650.871,106.75 650.921,106.85 650.982,106.939 C651.039,107.377 650.975,107.821 650.799,108.226 C650.622,108.631 650.338,108.981 649.977,109.239 C648.459,110.115 645.735,108.422 643.947,105.466 L643.776,105.177 Z" id="Path" fill="#FFFFFF"></path>
                <path d="M649.313,103.733 L649.977,104.052 C649.192,105.754 648.32,107.415 647.364,109.029 C647.047,109.634 646.571,110.143 645.987,110.503 L649.313,103.733 Z" id="Path" fill="#000000"></path>
                <path d="M653.947,110.234 L653.524,110.831 C651.954,109.79 650.438,108.67 648.982,107.476 C648.425,107.072 647.991,106.525 647.726,105.894 L653.947,110.234 Z" id="Path" fill="#000000"></path>
                <path d="M647.615,108.352 C648.299,108.949 648.54,109.348 648.349,109.487 C647.344,108.821 646.378,108.1 645.455,107.327 C645.094,107.061 644.824,106.693 644.681,106.271 C645.713,106.886 646.695,107.582 647.615,108.352 Z" id="Path" fill="#000000"></path>
                <path d="M652.479,113.768 C653.565,114.674 653.977,115.221 653.715,115.4 C651.444,113.841 649.933,112.729 649.183,112.065 C648.629,111.668 648.186,111.137 647.896,110.522 C649.492,111.506 651.023,112.59 652.479,113.768 Z" id="Path" fill="#000000"></path>
                <path d="M651.746,106.541 L652.409,106.87 C651.623,108.643 650.73,110.368 649.736,112.036 C649.477,112.511 649.062,112.883 648.56,113.091 L651.746,106.541 Z" id="Path" fill="#000000"></path>
                <polygon id="Path" fill="#FFFFFF" points="666.369 117.372 666.369 183.124 664.077 179.55 664.077 114.524 716.921 104.609 719.222 107.456"></polygon>
            </g>
        </g>
    </g>
</svg>