<svg width="64" height="64" viewBox="0 0 64 64" fill="none" xmlns="http://www.w3.org/2000/svg">
<g clip-path="url(#clip0)">
<path d="M0 32C0 14.3269 14.3269 0 32 0C49.6731 0 64 14.3269 64 32C64 49.6731 49.6731 64 32 64C14.3269 64 0 49.6731 0 32Z" fill="#FF3861"/>
<g clip-path="url(#clip1)">
<path d="M45.367 82C37.6234 82 30.0856 80.4573 22.1066 78.8275C17.2303 77.8303 12.1889 76.7988 6.90004 76.0881L6.82742 76.0782C4.81176 75.8082 0.0905874 75.1746 -2.20453 71.4632C-3.67227 69.0908 -4.16078 65.3122 -2.24634 62.6742C-1.39475 61.5006 -0.429831 61.1248 0.686923 60.6907C1.23705 60.4769 1.85209 60.2356 2.66187 59.8444C4.21763 59.094 4.77215 58.619 5.61164 57.9006C6.45113 57.1821 7.47107 56.3105 9.66937 54.965C10.0831 54.7116 10.4957 54.468 10.9314 54.2102C12.5278 53.2658 14.1782 52.2895 15.9694 50.8041C16.3776 50.4658 17.1368 49.8355 17.4173 48.8647C17.6055 48.2101 17.534 47.5478 17.4712 46.9649C17.4448 46.7181 17.3755 46.0646 16.7946 44.4977C16.3859 43.3244 15.8726 42.1903 15.2608 41.1092C14.8752 40.4194 14.423 39.7691 13.9108 39.1676C13.323 38.4921 12.8324 37.7377 12.453 36.9262C12.1581 36.3103 11.8754 35.3174 11.2548 33.1411C10.2008 29.4485 9.91032 28.0314 10.7806 26.633C11.3489 25.7416 12.2022 25.0696 13.2012 24.7267C13.4822 24.6328 13.7725 24.5696 14.0671 24.5382L13.9823 24.3179C13.9207 24.1581 13.8635 24.0082 13.8162 23.8771C12.563 20.3222 13.9933 16.8996 14.9506 14.6296C17.063 9.61246 21.2033 7.16395 22.5643 6.36504C26.6121 3.96502 30.3255 3.727 32.3202 3.59917C33.0387 3.55289 33.8529 3.5 34.7353 3.5C37.3187 3.5 39.5049 3.96612 41.6096 4.96778C44.6353 6.40912 46.3869 8.46865 47.3309 9.5761C48.5126 10.9667 50.492 13.294 51.2093 16.6968C51.799 19.4903 51.3534 22.1812 51.0586 23.9608C51.0498 24.0159 51.0399 24.071 51.0311 24.1283C51.3771 24.1404 51.7159 24.2316 52.0213 24.395L52.5714 24.6881L52.7915 25.2743C53.9955 28.5335 54.0441 32.1082 52.929 35.399C52.808 35.7494 52.6737 36.0943 52.5197 36.4502C51.9179 37.9676 51.0025 39.3086 50.1168 40.6045C49.6151 41.3395 49.1408 42.037 48.725 42.7522C48.3161 43.5344 47.9489 44.3378 47.6247 45.1588C47.4839 45.4993 47.3375 45.8509 47.1846 46.2002C47.0317 46.5495 46.9227 46.8151 46.8292 47.0498C46.4485 47.9963 46.4144 48.2718 46.4023 48.6123C46.3869 49.0344 46.3561 49.9137 46.8182 50.6619C47.1571 51.2129 47.5972 51.4333 48.8229 51.9843C49.1331 52.1242 49.483 52.2829 49.867 52.4658C50.279 52.6528 50.6715 52.8802 51.0388 53.1446C51.4954 53.4576 52.4471 54.1088 55.2945 55.851C56.4289 56.5441 57.275 57.0532 57.9615 57.462C59.9178 58.6345 60.4437 58.9496 61.1908 59.8246C62.5199 61.3816 63.0106 62.9651 63.8226 65.5877C65.2947 70.3382 66.1056 72.9553 64.969 75.5559C63.3847 79.1823 58.9177 80.238 57.0142 80.6887C53.2723 81.5713 49.4632 82 45.367 82Z" fill="black"/>
<path d="M17.1971 31.1146C17.043 31.1466 16.8582 31.0782 16.5787 30.8325C16.0792 30.3917 15.8162 29.7162 15.2584 29.3405C14.7006 28.9647 13.8006 29.0044 13.3506 28.438C13.662 27.8606 14.5554 27.3978 15.1913 27.6964C15.8273 27.995 15.8955 29.1498 16.5578 29.3129C17.2466 29.4815 16.8879 28.3432 16.9858 27.9168C17.1718 27.0914 17.4259 26.4512 17.4886 25.5895C17.5513 24.7278 18.0211 24.136 18.2027 23.3382C18.2643 23.066 18.3127 22.6407 17.9749 22.5085C17.5403 22.3366 17.5965 22.7377 17.3852 22.9371C15.9648 24.2815 15.868 20.4522 15.9549 19.8671C16.4544 16.4114 18.5592 13.5783 21.1371 11.3403C23.7777 9.05157 26.9805 7.41078 30.4397 6.84989C33.8637 6.29892 38.2019 6.54024 41.3322 8.19095C41.9494 8.52153 42.5556 8.95239 42.7504 9.65873C42.9451 10.3651 42.6767 11.1067 42.6998 11.8207C42.7383 12.9833 43.7505 13.2478 44.3138 14.0973C44.9201 15.0109 44.8574 16.5216 45.0444 17.5861C45.1181 18.007 45.1324 18.3718 44.9696 18.7729C44.8177 19.1475 44.2797 19.5806 44.3336 20.0026C44.3875 20.4247 45.5175 20.8203 45.347 21.1938C45.2424 21.423 44.491 21.2853 44.2918 21.3679C43.6999 21.6093 44.0388 21.9564 44.5262 22.1327C45.4262 22.4633 45.7816 22.8269 45.3943 23.7856C45.2927 23.9757 45.2401 24.1882 45.2413 24.4038C45.2144 24.698 45.1636 24.9895 45.0895 25.2754C45.051 25.4429 45.0323 25.9719 44.9267 26.0843C44.7759 26.244 44.1917 26.2275 43.9805 26.2484C42.8065 26.3652 41.6072 26.2352 40.4409 26.4248C39.4881 26.579 38.5133 27.0562 37.5308 26.9316C37.2216 26.892 36.523 26.7289 36.6231 26.2892C36.6957 25.9641 37.5297 25.8793 37.7915 25.6997C38.2537 25.3812 38.7818 25.1179 39.2307 24.7729C39.6796 24.428 39.8743 23.9057 39.081 23.9553C38.3109 24.0027 37.5407 24.8666 36.8805 25.217C35.8507 25.768 34.9804 25.5311 33.878 25.5212C33.2651 25.5157 31.9327 26.1823 32.9438 26.6705C33.8064 27.0881 34.4292 27.0165 35.0673 27.8892C35.8529 28.9647 35.8232 29.8331 35.1531 30.9262C34.7284 31.6215 34.4589 32.4689 34.5865 33.2953C34.6404 33.6502 34.7615 34.0193 35.0783 34.2199C35.2214 33.8375 35.2115 32.8799 35.7231 32.7609C36.2809 32.632 36.425 33.497 36.5153 33.8695C36.6253 34.3047 36.9366 35.335 36.304 35.5389C35.7627 35.7141 35.448 34.9108 35.1036 34.6518C34.5051 35.3372 34.9265 36.4612 34.899 37.2711C34.8704 38.1384 34.5436 38.9538 33.8372 39.486C32.8833 40.2034 31.8337 40.1737 30.7918 39.7064C29.8015 39.2657 29.0138 39.2943 27.9784 39.6205C28.1071 40.3753 28.1457 40.3841 27.7078 41.031C27.2699 41.6778 26.9002 42.4117 26.4975 43.1004C25.9319 44.0767 25.5271 45.6349 24.2244 45.7704C22.6653 45.9324 22.4739 45.0365 22.1119 43.7869C21.916 43.1092 21.7686 42.5208 21.7378 41.8155C21.7136 41.2646 21.7257 40.61 21.389 40.1461C20.6001 39.0618 20.1006 40.5274 20.1413 41.2425C20.1787 41.9037 20.3779 42.7643 20.7696 43.3054C20.9643 43.5753 21.2306 43.755 21.3879 44.0591C21.5552 44.3897 21.6212 44.7665 21.7642 45.1059C22.0503 45.7814 22.3451 46.393 22.4893 47.1192C22.5993 47.6823 22.6543 48.3831 23.0526 48.8327C23.2946 49.1049 23.9119 49.2107 23.9977 49.5908C24.1154 50.1143 23.3992 50.263 23.3079 50.6928C23.1362 51.4884 24.1638 51.4641 24.6469 51.4245C25.4005 51.3594 26.339 51.2184 27.0377 51.5964C27.3337 51.7572 27.5053 52.0581 27.7837 52.2399C28.1137 52.4603 28.5043 52.5011 28.8839 52.5628C29.8513 52.7201 30.8278 52.8143 31.8073 52.8449C30.5002 52.6168 30.8556 50.8614 32.1836 51.2779C32.7997 51.4729 33.5435 52.403 34.2278 51.8476C34.5029 51.6272 34.4897 51.2658 34.6019 50.9583C34.7328 50.5991 35.0563 50.2608 35.042 49.8619C35.0178 48.8239 33.2508 47.9005 32.3915 47.712C31.4299 47.5005 29.8235 48.5363 29.0369 47.7219C28.4262 47.0894 29.2844 46.5792 29.8532 46.4701C30.3473 46.3743 30.6388 46.5374 31.0789 46.7192C31.5806 46.9263 32.0856 46.912 32.6072 47.0332C32.1979 46.7489 32.8272 46.4382 33.0891 46.3721C33.5402 46.2674 34.0793 46.4051 34.5381 46.3974C35.6483 46.3798 36.5186 46.4547 37.5902 46.7533C38.0083 46.8701 38.8302 47.0487 38.9501 46.4558C39.1229 45.5996 37.9104 45.1798 37.3074 45.1059C36.6792 45.0299 35.7891 45.1588 35.2786 44.6817C34.6085 44.0569 35.4865 43.3946 36.0311 43.0872C36.7738 42.6673 37.3514 42.4569 37.6672 41.6227C37.8972 41.0056 37.9511 40.2894 38.6838 40.6872C38.9908 40.8536 39.1724 41.1985 39.5299 40.8547C39.7764 40.6177 39.7797 39.907 39.9293 39.5852C40.332 38.7246 41.0142 38.0789 41.3916 37.1984C41.769 36.318 42.6503 36.0612 43.3896 35.5147C43.6779 35.3009 45.0532 34.0149 44.3138 33.6314C43.9287 33.4309 42.5182 34.5835 42.1452 34.7334C41.4444 35.0221 40.4641 35.2392 39.7313 34.9042C38.9435 34.5449 39.1515 33.9477 39.6928 33.5014C40.3452 32.9626 40.2055 32.7301 39.6928 32.135C39.2318 31.5973 39.2208 31.1377 39.9656 30.892C40.7688 30.6264 41.1759 30.8755 41.0659 31.6799C40.9328 32.6353 41.6523 33.4155 42.6194 33.5598C43.6922 33.7196 43.9937 32.7885 44.6681 32.2022C46.0555 31.0088 47.1426 32.9339 46.8312 34.1857C46.3691 36.048 44.2511 35.9587 43.1806 37.3251C42.4929 38.2067 42.0297 39.2601 41.6512 40.3004C41.3123 41.2293 40.738 42.523 40.76 43.5269C40.7787 44.447 41.7194 44.3147 42.2146 44.8988C42.6547 45.4167 42.6547 46.1407 42.5446 46.7721C42.2839 48.2751 41.3773 49.6085 40.507 50.8239C39.1294 52.749 36.7397 53.0278 34.5656 53.4223C32.3057 53.8278 29.8807 54.3193 27.5801 54.0394C25.351 53.7683 23.562 52.5639 22.1889 50.825C21.6091 50.0911 19.7793 48.1142 20.467 47.1082C20.8796 46.5054 21.356 46.9814 20.8884 46.0261C20.3944 45.0145 19.6781 44.1296 19.1951 43.1136C18.7924 42.274 18.3149 41.107 18.6747 40.1792C19.0345 40.6706 19.0741 41.3351 19.4163 41.8321C19.8179 40.61 19.1291 39.172 18.7649 38.0205C18.4513 37.0287 18.1829 35.6403 17.306 34.9725C16.8725 37.0155 17.7153 39.2701 18.0762 41.2668C17.877 40.7467 17.7252 40.2023 17.46 39.7086C17.2103 39.2447 16.8142 38.8623 16.6095 38.3731C16.1694 37.3141 16.7933 36.2089 16.5336 35.1334C16.4819 35.4045 16.4456 36.5163 15.8636 36.2353C15.5214 36.0689 15.7623 35.464 15.7601 35.1885C15.7524 34.4281 14.7028 32.7256 15.7216 32.2485C15.9967 32.5659 16.2839 33.5587 16.7691 33.6182C17.5899 33.7196 16.8868 31.6446 18.0046 32.4391C18.8122 33.0121 19.0895 34.3411 19.6253 35.1334C20.1611 35.9257 20.9456 36.2177 21.6454 36.8116C22.4541 37.4915 22.4155 38.6078 22.6609 39.5665C22.8281 40.221 22.8017 42.2001 23.7028 42.3059C24.363 42.3841 25.3158 41.193 25.7933 40.8216C26.2708 40.4502 26.6416 40.1285 26.8716 39.5808C27.0212 39.2249 27.0762 38.6056 27.4844 38.4348C28.018 38.2144 28.5792 38.9858 28.8575 38.1549C28.9983 37.7373 28.6089 36.697 29.2822 36.5912C29.9556 36.4855 29.851 38.0866 30.1558 38.4976C30.7367 39.2789 31.9162 39.2359 32.693 38.805C34.8264 37.6238 33.4423 34.5416 33.8185 32.6772C34.0122 31.7163 34.6899 30.7576 34.515 29.7427C34.3478 28.7741 33.3861 28.2848 32.5577 27.9631C31.4167 27.5223 30.2988 27.6479 29.1084 27.4617C27.8398 27.2633 26.6163 26.8226 25.3246 26.7807C24.9417 26.7686 22.2604 26.7664 23.5488 26.0391C24.4884 25.509 25.9176 25.9344 26.8925 26.1493C27.3205 26.2429 27.864 26.4798 28.2755 26.2429C27.2291 25.4209 26.0992 24.6054 24.7888 24.2914C24.2387 24.1592 22.9789 24.0126 23.0889 23.2027C23.233 22.1261 25.0319 22.6043 25.6514 22.849C26.8 23.3008 27.6505 24.2154 28.9785 24.0677C29.6893 23.9884 30.4815 23.5795 31.1944 23.8583C31.8282 24.1063 32.0042 24.7895 31.5245 25.2909C31.9745 25.1928 32.3596 24.914 32.7997 24.7829C33.3058 24.633 33.8449 24.644 34.3654 24.5911C35.2181 24.5052 36.2358 24.3972 36.9323 23.8462C37.2799 23.5718 37.467 23.1641 37.7915 22.8688C38.1403 22.5503 38.598 22.3586 38.993 22.1062C39.388 21.8539 39.7203 21.606 40.1626 21.4792C40.4464 21.3988 40.9152 21.4528 41.0692 21.1487C41.2397 20.8181 40.8238 20.5547 40.9889 20.2407C41.2089 19.8186 41.9934 20.0379 42.351 19.9663C42.0308 19.3679 41.1561 19.8109 40.6456 19.6941C39.9744 19.5409 39.8413 18.9095 40.3892 18.5029C40.8084 18.1922 41.5841 18.5029 41.9142 18.1723C42.3191 17.7668 41.6391 17.4197 41.3167 17.2798C40.3265 16.8511 38.521 17.2081 38.5122 15.7139C38.5067 14.9095 39.4969 14.6604 39.4496 13.9816C39.3968 13.2312 38.3439 13.2103 37.8323 13.359C37.0214 13.5927 36.4701 14.0048 35.5998 13.7051C34.8399 13.4248 34.1314 13.0208 33.5028 12.5095C33.2486 12.299 33.044 12.0687 33.0231 11.7271C33.0066 11.4351 33.4114 10.9965 33.3278 10.7794C33.1155 10.2229 31.9525 10.9932 31.6422 11.1001C29.0248 11.9959 25.68 9.08022 23.6973 11.9816C23.2572 12.6318 22.1944 12.8852 22.1031 13.7447C22.0206 14.5161 22.7511 15.077 22.7797 15.8142C22.805 16.4357 22.0866 17.0461 22.278 17.6577C22.4607 18.2395 23.5543 18.0842 23.5554 18.7101C23.5554 19.0506 23.0603 19.2798 22.8534 19.4814C22.6132 19.7251 22.4151 20.007 22.267 20.3156C21.8698 21.098 21.5089 21.8473 21.0479 22.5999C20.6397 23.2677 20.3966 23.9707 19.8531 24.5481C19.7067 24.7046 18.7209 25.519 19.1929 25.7305C19.556 25.8947 20.0401 24.7994 20.2426 24.5889C21.0017 23.7999 20.9346 24.957 21.0567 25.4771C21.1789 25.9972 22.2109 26.0876 21.9754 26.6749C21.7554 27.2358 20.8455 27.098 20.4065 27.2457C19.0136 27.7151 21.224 29.2722 21.8566 29.4661C22.7082 29.7262 23.277 27.6402 24.3355 28.0699C24.9659 28.3267 24.3355 28.9372 24.0681 29.2071C23.5697 29.7019 23.4718 30.3091 23.0262 30.8116C22.6609 31.2259 19.3734 33.4562 19.3646 32.0424C19.3646 31.4353 20.3548 31.2777 19.5846 30.7102C19.1742 30.4105 18.3666 30.211 17.9342 30.5174C17.6042 30.7642 17.4391 31.065 17.1971 31.1146Z" fill="#C4C3C6"/>
<path d="M24.4564 69.4214C24.3958 69.4214 24.3364 69.428 24.2781 69.4324C22.7136 69.5514 21.1567 69.5845 19.5899 69.6451C16.6072 69.7553 13.6629 70.1718 10.8551 71.2186C8.51152 72.0914 5.7829 73.6065 3.19071 73.0842C0.850481 72.6137 -0.16175 69.396 0.4995 67.4125C0.748157 66.6643 0.602924 66.6412 0.32236 66.0009C0.119914 65.537 0.0384957 65.2571 0.350967 64.7987C0.854881 64.0571 2.05856 63.786 2.78802 63.3188C5.3098 61.7056 7.72705 59.9259 10.2697 58.3281C12.8454 56.7116 15.4409 55.1138 18.0276 53.5171C19.7187 52.4724 18.8759 54.7182 19.6505 55.6008C20.4921 56.5595 20.9201 57.7717 21.7574 58.7965C22.5386 59.7507 23.6796 60.3469 23.9392 61.5403C24.1241 62.3899 24.2088 62.0207 24.7578 62.5585C25.155 62.9475 25.2892 63.6494 25.6655 64.1012C26.4731 65.0621 30.8367 67.8478 28.0014 69.1128C27.0122 69.5481 25.561 69.3685 24.4564 69.4214Z" fill="white"/>
<path d="M17.1932 31.2798C17.5068 29.0373 19.2298 31.1806 20.384 30.2274C20.3168 30.5426 20.3598 30.8809 20.2849 31.1927C20.2178 31.4693 19.4179 31.9817 19.7832 32.1922C20.0176 32.3255 20.9055 31.8693 21.1266 31.7426C21.5865 31.4803 22.9872 30.7508 23.1599 30.2373C23.1827 30.1697 23.2278 30.1118 23.2878 30.0731C23.3477 30.0345 23.419 30.0174 23.49 30.0247C24.0533 30.3332 24.5594 30.3001 25.0039 29.791C25.1458 29.628 25.3505 29.6048 25.5617 29.6632C26.3891 29.8924 27.2385 30.0015 28.0868 30.1194C28.5269 30.1811 28.945 30.4103 29.4159 30.3552C29.4949 30.3561 29.5733 30.341 29.6463 30.3107C29.7193 30.2804 29.7854 30.2355 29.8406 30.1789C30.2059 29.791 30.4568 29.3635 30.4865 28.8213C30.5011 28.7694 30.525 28.7205 30.5569 28.677C30.7471 28.5695 30.8912 28.3958 30.9618 28.1888C31.4547 27.6577 31.8772 27.5596 32.3921 27.8582C33.5441 27.2996 33.938 28.2902 34.4749 28.915C35.4068 29.9971 34.4166 31.0296 34.224 32.0192C33.8488 33.9487 34.334 35.9013 33.7839 37.8286C33.3691 39.2611 32.1808 39.379 31.2841 39.3283C30.3368 39.2754 29.2729 38.6143 29.5457 37.2049C29.5596 37.0553 29.5596 36.9048 29.5457 36.7553C28.923 37.0319 29.164 37.5608 29.1398 38.0115C29.1211 38.3862 29.0704 38.7564 28.6314 38.8931C28.2453 39.011 27.9625 38.9845 27.8723 38.4842C27.8349 38.2782 27.5884 38.3156 27.5312 38.6914C27.2935 40.2341 26.0624 40.8699 25.0094 41.7328C24.3636 42.2617 24.1028 43.508 23.0202 42.211C22.8749 42.0369 22.7253 41.9719 22.7066 41.6964C22.5889 39.9697 22.6626 38.0038 21.328 36.8412C20.2178 35.8737 18.8623 35.2985 18.8205 33.5773C17.8699 33.9079 18.2979 31.953 17.1701 32.5767L17.147 31.8296C17.1107 31.7415 17.1558 31.6555 17.1525 31.5674L17.1932 31.2798Z" fill="white"/>
<path d="M59.8515 70.6433C59.286 72.3028 59.341 74.143 59.2871 75.8742C59.2596 76.7458 59.5236 78.7987 58.2551 78.9034C57.256 78.9861 56.3065 77.5403 55.7102 76.9078C54.5511 75.6772 53.2533 74.5856 51.8428 73.6549C50.462 72.7381 49.0416 72.0218 47.5661 71.2813C47.1579 71.0774 46.4087 70.7645 46.4241 70.2036C46.4395 69.6262 47.1942 69.4245 47.5683 69.1116C48.4716 68.3623 48.8941 67.0818 50.1979 66.9253C51.4357 66.7777 52.4897 67.8212 53.7033 67.765C54.6088 67.7231 54.501 67.354 54.2127 66.7071C53.8067 65.7991 53.7077 65.2372 54.2788 64.3468C56.7378 60.5109 60.6811 64.9914 59.9197 68.1771C59.7558 68.8614 58.8635 69.4995 58.8811 70.1882C58.8965 70.6697 59.637 71.3507 59.8515 70.6433Z" fill="#C4C3C6"/>
<path d="M36.1847 46.2706C36.1847 46.3422 36.0901 46.4061 35.8382 46.4491C35.4421 46.5163 35.0328 46.4921 34.6279 46.4921C33.9236 46.4929 33.2219 46.5772 32.5374 46.7433C31.8883 46.8965 31.4239 46.7433 30.7869 46.6728C30.3523 46.6276 29.4666 46.6243 29.1585 47.0034C28.7877 47.4563 29.4512 47.7417 29.8187 47.7384C30.4491 47.7328 31.029 47.4243 31.6704 47.4353C32.9841 47.4585 34.0326 48.3169 35.0141 49.0959C35.4828 49.4684 35.8723 49.7274 35.3331 50.1891C34.8556 50.5979 34.9095 51.0034 34.7335 51.5599C34.3638 52.7235 33.3175 52.1825 32.5891 51.8001C32.2689 51.6326 31.8784 51.4122 31.5032 51.4288C31.1566 51.4431 30.8177 51.777 30.9629 52.1472C31.1555 52.6387 31.7331 52.4392 32.1039 52.5538C32.379 52.6387 32.4406 52.8844 32.2139 53.0728C32.0126 53.2403 31.7001 53.237 31.4559 53.2194C30.8672 53.1764 30.2841 52.999 29.6955 52.9241C29.1651 52.8558 28.6337 52.8139 28.1023 52.7599C27.7975 52.7279 26.5234 52.6078 27.0086 52.0602C27.1825 51.8629 27.4597 51.8662 27.6622 51.7219C27.0703 51.7494 26.4838 51.7362 25.8908 51.7274C25.3484 51.7186 24.8103 51.8717 24.269 51.8376C23.5814 51.7935 22.6296 51.0023 23.1171 50.2541C23.2524 50.0458 23.7255 49.8849 23.7321 49.6183C23.7387 49.3516 23.0411 48.9042 22.8695 48.686C22.2094 47.8496 22.2006 46.7764 21.9398 45.789C21.6735 44.7752 20.9804 43.9741 20.5095 43.054C20.1651 42.3763 19.8768 41.5377 19.857 40.7697C19.8372 40.0016 20.3312 39.4022 21.1333 39.7074C21.4579 39.8308 21.7825 40.0909 21.8969 40.4292C22.0498 40.8788 21.8254 41.3824 21.8408 41.8441C21.8595 42.395 22.1279 42.935 22.3172 43.4474C22.4846 43.9496 22.6061 44.4659 22.6803 44.9901C22.7815 45.5708 23.2535 45.2447 23.6705 45.3769C24.1183 45.5179 24.4715 45.6359 24.8489 45.2667C25.2097 44.9207 25.421 44.3852 25.6575 43.9565C25.9381 43.4441 26.233 42.9427 26.5377 42.4446C26.8128 41.9973 27.0373 41.476 27.3673 41.0694C27.7953 40.5416 28.0759 40.8061 28.4742 41.1796C28.8043 41.4926 29.1915 41.6678 29.5975 41.8573C30.0176 42.0658 30.3918 42.3566 30.6978 42.7124C31.035 43.0754 31.4152 43.3959 31.8299 43.6667C32.1292 43.8683 32.5913 44.1912 32.3251 44.6011C32.0709 44.9923 31.3865 45.0155 30.9783 45.0419C30.4194 45.0783 29.8583 45.0507 29.2994 45.0816C28.3388 45.1367 27.4036 45.5697 26.508 45.8981C26.3265 45.9653 25.8105 46.1868 26.0041 46.4733C26.1978 46.7598 26.7908 46.2904 26.9778 46.1956C27.9395 45.7086 28.9506 45.4573 29.976 45.1532C30.3996 45.0276 30.9596 44.7984 31.3612 45.086C31.699 45.3262 31.8222 45.583 32.2821 45.6138C32.742 45.6447 33.1965 45.5102 33.6564 45.5235C34.215 45.5393 34.7694 45.6252 35.3067 45.7791C35.5917 45.8662 36.1825 46.0921 36.1847 46.2706Z" fill="white"/>
<path d="M24.5299 69.4478C25.8502 69.2759 29.9024 69.4478 28.3544 67.0125C27.6623 65.9249 26.4014 65.1271 25.5729 64.1309C24.5519 62.9023 23.6783 61.5612 22.7123 60.2874C21.5702 58.7744 20.5206 57.3386 19.6008 55.6779C19.5072 55.7881 19.2707 55.8498 19.1761 55.9644C18.6402 55.3749 19.296 54.6113 18.9978 53.9721C18.6094 53.1391 17.6995 53.6096 17.1538 54.014C18.1506 53.5049 19.0385 52.7556 19.3785 51.6691C19.6833 50.6972 19.9638 49.5467 20.8484 50.9198C21.7815 52.3699 21.9014 54.1903 22.6661 55.7198C23.576 57.5369 24.9975 58.9937 25.8898 60.8438C26.2595 61.6086 26.66 62.3425 27.2618 62.9519C27.933 63.6306 28.5612 64.0351 28.9584 64.9464C29.4711 66.1221 29.9794 67.9954 28.6844 68.8219C27.527 69.5657 25.8469 69.3784 24.5299 69.4478Z" fill="#C4C3C6"/>
<path d="M41.2361 31.0903C41.1718 31.092 41.1074 31.0886 41.0436 31.0804C40.6244 31.0286 39.4339 30.73 39.4504 31.508C39.4603 32.0215 40.2371 32.1989 40.4715 32.5879C40.851 33.2182 40.1414 33.4143 39.7475 33.724C39.1523 34.1923 39.4603 34.7818 40.1634 34.8942C40.8015 34.9967 41.4573 34.6739 42.0283 34.4314C42.6775 34.1548 43.4014 33.8551 43.9372 33.3835C44.0583 33.2733 44.1969 33.0386 44.3773 33.0287C44.6051 33.0176 44.7184 33.3174 44.7668 33.4981C44.822 33.7464 44.821 34.0039 44.7639 34.2518C44.7068 34.4997 44.595 34.7316 44.4368 34.9306C44.0077 35.4661 43.3046 35.692 42.7303 36.027C42.464 36.1824 42.1438 36.3576 42.003 36.6474C41.838 36.978 41.8611 37.3439 41.6509 37.6711C41.2647 38.2717 40.6343 38.6684 40.2503 39.27C40.0415 39.5856 39.9464 39.963 39.9807 40.34C40.0039 40.6067 40.2129 40.9869 39.8773 41.1191C39.4867 41.2734 38.5878 40.8216 38.2688 40.6375C38.008 40.4866 37.9585 40.3158 37.8705 40.0326C37.7461 39.6315 37.5976 39.2348 37.5063 38.8205C37.3401 38.0766 37.8848 37.5488 37.9365 36.8248C37.9948 36.005 37.591 35.2524 37.5998 34.4358C37.6305 33.7373 37.4573 33.045 37.1014 32.4435C36.8813 32.0402 36.4412 31.2468 36.779 30.7906C36.9672 30.5339 37.4766 30.5603 37.7626 30.4942C38.1521 30.4038 38.5394 30.3058 38.9234 30.1956C39.6155 29.9961 40.126 30.0666 40.7784 30.3443C40.9875 30.4336 41.2801 30.5427 41.4089 30.7443C41.5728 31.0055 41.4287 31.0815 41.2361 31.0903Z" fill="white"/>
<path d="M3.32138 62.7139C3.52713 63.9624 1.27932 64.0825 0.724793 64.8913C0.240683 65.5943 0.691785 66.6235 0.71379 67.4125C0.743497 68.4968 0.577359 69.6252 0.93384 70.6754C1.90756 73.5481 4.6967 73.2539 6.97862 72.3801C9.69293 71.341 12.4535 70.4869 15.3141 69.9646C16.9216 69.6704 18.5345 69.547 20.1552 69.3575C21.2632 69.2285 22.9146 68.7106 23.9071 69.4159C22.8596 69.9062 21.2874 69.7872 20.1431 69.8137C18.7799 69.8456 17.4123 69.8291 16.0557 69.9933C13.2313 70.3349 10.8845 71.3156 8.31872 72.4506C6.69475 73.1713 4.54706 73.73 2.80097 73.1118C0.865625 72.4231 0.0206323 69.6396 -0.309443 67.7993C-0.749543 65.3111 1.07137 63.4687 3.32138 62.7139Z" fill="#C4C3C6"/>
<path d="M31.5045 45.2767C29.7221 45.2767 28.1245 45.8916 26.5864 46.729C26.3586 46.8536 26.0759 46.8756 25.8162 46.9494C25.7843 46.815 25.6875 46.653 25.7315 46.5516C25.8547 46.2684 25.9779 45.8508 26.2035 45.7693C27.9133 45.1445 29.6363 44.5505 31.5177 44.8017C31.7598 44.8337 32.0403 44.5736 32.3033 44.4502C32.1195 44.2816 31.9435 44.102 31.7532 43.9455C30.7629 43.14 29.7617 42.34 28.766 41.5389C30.3151 41.3185 30.7288 42.8811 31.751 43.4254C33.6412 44.4293 32.5883 44.7962 31.5045 45.2767Z" fill="#C4C3C6"/>
<path d="M37.1299 30.6341C36.4939 31.9212 38.0244 32.7355 37.8417 33.9289C37.603 35.4948 38.8386 37.1796 37.4677 38.6573C36.824 37.5785 37.9441 36.5758 37.5392 35.4276C37.2685 34.6562 37.2146 33.8242 36.9142 33.0617C36.7718 32.6776 36.5424 32.3317 36.2442 32.0512C35.9141 31.7526 35.3783 31.4925 35.4388 30.9493C36.0516 31.3195 36.495 30.1349 37.1299 30.6341Z" fill="#C4C3C6"/>
<path d="M41.4218 31.0804C41.2249 31.1377 40.7716 30.7047 40.5955 30.6209C40.1092 30.3906 39.5965 30.4215 39.0838 30.5262C38.6877 30.6077 38.0187 30.9041 37.6436 30.643C37.7723 30.3829 38.2828 30.2628 38.5359 30.1306C38.8571 29.9631 39.1773 29.7912 39.4843 29.5994C40.1191 29.2027 40.8189 28.9008 41.5747 29.1267C42.5089 29.4077 41.1346 30.5779 42.2239 30.8446L41.4218 31.0804Z" fill="#C4C3C6"/>
<path d="M15.8192 35.2181C15.9127 35.5069 15.9721 35.8176 16.0844 36.0501C16.1681 35.8196 16.2386 35.5845 16.2956 35.346C16.3308 35.0319 16.2824 34.7366 16.4771 34.4644C17.2594 34.795 16.8325 36.1427 16.7907 36.7598C16.7687 37.0903 17.0438 38.027 16.7775 38.2661C16.256 38.7322 14.654 35.4474 14.7068 34.9515C14.7564 34.4898 15.0248 34.265 15.4319 34.5757C15.6267 34.7267 15.7356 34.9636 15.8192 35.2181Z" fill="white"/>
<path d="M16.8865 27.8154C16.9756 27.8562 17.0218 27.9565 17.1253 28.1934C17.3112 28.6231 17.5654 29.4783 16.9569 29.6887C15.9887 30.0193 15.1063 28.4501 15.2702 27.6755C15.6531 27.8198 16.0514 27.7857 16.4508 27.7857C16.6852 27.789 16.804 27.7769 16.8865 27.8154Z" fill="white"/>
<path d="M15.4376 34.6463C14.3792 34.2143 15.5389 36.7664 15.6577 37.0639C15.2737 36.1471 14.6345 35.3658 14.3374 34.4016C14.2142 34.0093 14.0403 33.4154 14.366 33.0705C15.0944 32.3047 15.3727 34.2022 15.4376 34.6463Z" fill="#C4C3C6"/>
<path d="M17.1539 31.5609C17.1539 31.6491 17.1539 31.7361 17.1484 31.8232L17.1539 31.5609Z" fill="#C4C3C6"/>
<path d="M31.3989 25.098C31.4066 25.012 31.4209 24.9172 31.4363 24.8181C31.4891 24.4875 31.6344 24.4875 31.3736 24.2748C31.1976 24.1316 30.7806 24.1371 30.5671 24.1327C29.4669 24.1062 28.5185 24.5481 27.4303 24.1271C26.4291 23.7404 25.5676 22.9833 24.4927 22.7872C23.8556 22.6704 22.751 23.2853 23.6686 23.823C24.0272 24.0335 24.6588 23.9266 25.0604 24.0335C25.6644 24.1955 26.2024 24.5205 26.7361 24.8357C27.3687 25.2081 28.7561 25.7371 28.8122 26.5867C26.9946 26.9779 24.8678 25.4109 23.1933 26.4842C22.6695 26.8148 21.6375 26.6892 21.1545 26.1745C20.6946 25.6864 21.0445 24.8787 20.6275 24.3586C20.052 24.9834 20.0773 25.8374 19.141 26.1977C18.5986 25.5508 18.921 25.1894 19.4326 24.7431C19.9695 24.2792 20.2809 23.6335 20.6429 23.0318C21.0522 22.3475 21.5297 21.6445 21.7992 20.8896C21.9687 20.4169 21.95 19.6213 22.3241 19.2511C22.6024 18.9745 23.3539 19.2037 23.3572 18.7001C23.3605 18.1965 22.697 18.3783 22.4055 18.2836C21.2271 17.9056 22.5276 16.6527 22.6035 15.9375C22.7212 14.8213 21.4637 14.1392 22.027 12.9854C22.6596 11.6907 24.2704 10.9678 25.605 10.7077C27.372 10.3617 28.9113 11.0879 30.6409 11.1176C31.4649 11.132 31.8577 10.7771 32.5553 10.4675C32.9756 10.2813 33.8899 10.2835 33.7018 10.9424C33.5466 11.4824 32.9536 11.3986 33.4344 12.0389C33.7469 12.4543 34.3025 12.7838 34.7547 13.0306C35.1209 13.2445 35.5265 13.3823 35.9471 13.4357C36.3677 13.4891 36.7948 13.457 37.2028 13.3414C37.8288 13.1717 38.5319 12.7529 39.1579 13.1397C39.818 13.5474 39.8544 14.289 39.2437 14.7397C38.7838 15.0802 38.6276 15.4009 38.8454 16.0345C39.2294 17.1585 40.5464 16.6835 41.4255 16.9954C41.8414 17.143 42.4818 17.6455 42.3827 18.169C42.2551 18.8455 41.3815 18.3893 40.9315 18.4764C40.2031 18.6163 39.9633 19.38 40.7874 19.5585C41.3573 19.6819 42.2452 19.0814 42.6578 19.7546C43.1177 20.5062 41.5807 20.3321 41.1582 20.4158C41.1934 20.6803 41.519 21.1431 41.4398 21.3987C41.321 21.7833 40.7368 21.6643 40.4155 21.7359C39.4066 21.9563 38.6551 22.7773 37.8475 23.3712C36.9013 24.072 35.8131 24.6935 34.6282 24.8555C34.0626 24.9316 33.4487 24.7255 32.8997 24.8687C32.4981 24.9789 32.2846 25.3492 31.9094 25.4715C31.4407 25.6412 31.3714 25.4285 31.3989 25.098Z" fill="white"/>
<path d="M22.8893 26.4359C23.0213 26.4656 23.1478 26.4965 23.259 26.513C23.7849 26.589 24.313 26.481 24.8411 26.5031C25.5287 26.5411 26.213 26.6239 26.8898 26.751C28.2453 26.989 29.5975 27.3119 30.9816 27.3229C31.3777 27.3229 31.7749 27.2546 32.1721 27.2601C32.5088 27.2667 32.8256 27.5433 32.4339 27.7924C32.204 27.9378 31.9135 27.8849 31.6638 27.9753C31.414 28.0656 31.2171 28.2662 31.0333 28.4601C30.9123 28.588 30.7385 28.6508 30.6251 28.7819C30.3127 29.1477 30.3732 29.6855 29.965 30.0006C29.7791 30.1547 29.5596 30.2626 29.3243 30.3157C29.0889 30.3687 28.8444 30.3653 28.6106 30.3059C27.7755 30.0767 27.0702 29.5764 26.2659 29.2932C25.2251 28.9252 24.6607 29.0827 23.9554 29.9378C23.8597 30.048 23.7717 30.167 23.6044 30.1659L23.1643 30.2365C23.195 30.0361 23.2376 29.8378 23.292 29.6425C23.3717 29.4499 23.487 29.2742 23.6319 29.1246C23.9895 28.7488 24.4516 28.5483 24.9104 28.3301C24.3537 28.253 23.6121 28.6717 23.1852 29.0111C22.8332 29.291 22.5625 29.6723 22.1752 29.9103C22.0597 29.9797 21.6251 30.2056 21.5008 30.0976C21.4325 30.0425 21.4204 29.6668 21.3511 29.5533C20.9792 28.9483 20.044 28.9593 19.7679 28.2673C19.0857 26.5637 20.494 27.0552 21.2323 26.8844C21.4766 26.8271 21.7208 26.8127 21.8836 26.599C22.1202 26.2893 22.5251 26.3554 22.8893 26.4359Z" fill="black"/>
<path d="M44.2211 24.7739C44.214 24.8919 44.1761 25.0059 44.1111 25.1045C43.8217 25.5585 42.8535 25.7271 42.3606 25.7514C41.1875 25.8103 40.0258 26.01 38.9003 26.3464C38.7254 26.3993 38.2523 26.677 38.0872 26.5018C37.821 26.2263 38.3348 25.7943 38.5196 25.6654C39.3317 25.1193 40.2573 24.7658 41.2262 24.6318C41.7973 24.5657 42.3188 24.7905 42.8667 24.7596C43.21 24.7409 43.5918 24.2527 43.9362 24.3684C44.0233 24.3923 44.0995 24.4458 44.1515 24.5198C44.2035 24.5938 44.2281 24.6837 44.2211 24.7739Z" fill="white"/>
<path d="M39.1357 47.9809C40.3042 48.339 40.4968 47.1654 40.4681 46.934C40.3471 45.9555 39.9719 45.0078 39.6595 43.9467C41.871 45.4133 42.1559 47.0222 40.5683 48.6321C40.2745 48.9285 39.8993 49.1434 39.5615 49.3969L39.1357 47.9809Z" fill="white"/>
<path d="M18.2211 29.0066C18.0131 28.5768 18.2101 27.5564 18.5435 27.444C19.2234 27.2148 19.3136 29.2953 18.4521 29.1928C18.4008 29.1847 18.3524 29.1632 18.3119 29.1305C18.2713 29.0978 18.24 29.0551 18.2211 29.0066Z" fill="white"/>
<path d="M31.1072 46.7434C31.4599 46.6296 31.8337 46.5969 32.2008 46.6475C32.4517 46.6729 32.6035 46.8161 32.8324 46.8789C33.0788 46.9473 33.7357 46.7687 33.6862 47.2327C33.1966 47.3153 32.6475 47.1732 32.1458 47.1588C31.6441 47.1445 31.0929 47.2393 30.6143 47.1004C30.7394 46.9349 30.911 46.8106 31.1072 46.7434Z" fill="black"/>
<path d="M23.6025 30.167C24.3023 28.5669 25.5104 28.5912 26.8065 29.2557C28.2368 29.9907 29.6341 30.9736 30.6518 28.7521C30.4934 30.5438 29.4955 30.5526 27.9859 30.3245C26.8384 30.1504 25.5236 29.3086 24.3408 30.4347C24.2561 30.513 23.8567 30.2628 23.6025 30.167Z" fill="#C4C3C6"/>
<path d="M30.6528 28.7509L31.0764 28.4049L30.6528 28.7509Z" fill="#C4C3C6"/>
</g>
</g>
<defs>
<clipPath id="clip0">
<path d="M0 32C0 14.3269 14.3269 0 32 0C49.6731 0 64 14.3269 64 32C64 49.6731 49.6731 64 32 64C14.3269 64 0 49.6731 0 32Z" fill="white"/>
</clipPath>
<clipPath id="clip1">
<rect width="69" height="78.5" fill="white" transform="translate(-3.5 3.5)"/>
</clipPath>
</defs>
</svg>
