<svg width="266" height="108" viewBox="0 0 266 108" fill="none" xmlns="http://www.w3.org/2000/svg">
<g filter="url(#filter0_dd_9873_259276)">
<rect x="32" y="16" width="202" height="43.913" rx="21.9565" fill="#272D33"/>
<g opacity="0.4">
<g clip-path="url(#clip0_9873_259276)">
<path d="M62.2298 37.9155C62.2298 37.6701 62.1712 37.4398 62.0731 37.2305C61.4188 35.1197 58.3557 35.2739 53.9985 35.171C53.27 35.1539 53.6867 34.2937 53.9424 32.4054C54.1088 31.1773 53.3169 29.2915 51.9858 29.2915C49.7911 29.2915 51.9024 31.0227 49.9619 35.3037C48.9251 37.5911 46.6075 36.3098 46.6075 38.6074V43.8375C46.6075 44.7318 46.6953 45.5915 47.9531 45.733C49.1725 45.8701 48.8982 46.7391 50.6572 46.7391H59.4613C60.3581 46.7391 61.0875 46.0092 61.0875 45.1124C61.0875 44.7406 60.9573 44.402 60.747 44.1278C61.2446 43.8492 61.5862 43.3232 61.5862 42.7133C61.5862 42.3425 61.4564 42.0038 61.2466 41.7301C61.7457 41.452 62.0883 40.9255 62.0883 40.3147C62.0883 39.8711 61.9087 39.4691 61.6194 39.1749C61.9887 38.8767 62.2298 38.4259 62.2298 37.9155Z" fill="#FFDB5E"/>
<path d="M56.4059 39.542H60.604C61.1749 39.542 61.7106 39.2366 62.0024 38.7453C62.1224 38.5428 62.0556 38.2808 61.8526 38.1602C61.6501 38.0397 61.3881 38.1076 61.2676 38.31C61.1295 38.5438 60.8743 38.6882 60.6035 38.6882H56.3049C55.879 38.6882 55.5325 38.3418 55.5325 37.9158C55.5325 37.4898 55.879 37.1434 56.3049 37.1434H59.1773C59.413 37.1434 59.6043 36.9521 59.6043 36.7165C59.6043 36.4808 59.413 36.2896 59.1773 36.2896H56.3044C55.4076 36.2896 54.6782 37.019 54.6782 37.9158C54.6782 38.4159 54.91 38.8585 55.2661 39.1571C54.9661 39.4523 54.7792 39.8621 54.7792 40.3149C54.7792 40.8165 55.0124 41.2605 55.3706 41.5586C55.0724 41.8533 54.8875 42.2617 54.8875 42.7135C54.8875 43.26 55.1603 43.7421 55.575 44.0373C55.3193 44.3247 55.1593 44.6989 55.1593 45.1127C55.1593 46.0095 55.8887 46.7389 56.7855 46.7389H59.4613C60.0322 46.7389 60.5684 46.434 60.8602 45.9426C60.9807 45.7401 60.9138 45.4781 60.7114 45.3576C60.5084 45.2381 60.2464 45.3039 60.1263 45.5064C59.9873 45.7401 59.7321 45.885 59.4613 45.885H56.7855C56.3596 45.885 56.0131 45.5386 56.0131 45.1127C56.0131 44.6867 56.3596 44.3403 56.7855 44.3403H59.96C60.5308 44.3403 61.0675 44.0348 61.3588 43.5435C61.4793 43.3405 61.4125 43.0785 61.21 42.9585C61.0056 42.836 60.7445 42.9048 60.625 43.1073C60.484 43.3449 60.2351 43.4864 59.96 43.4864H56.5138C56.0878 43.4864 55.7414 43.1395 55.7414 42.7135C55.7414 42.2876 56.0878 41.9412 56.5138 41.9412H60.4615C61.0324 41.9412 61.5686 41.6362 61.8604 41.1449C61.9809 40.9424 61.9141 40.6804 61.7116 40.5598C61.5081 40.4398 61.2466 40.5062 61.1266 40.7087C60.9856 40.9458 60.7367 41.0873 60.4615 41.0873H56.4059C55.98 41.0873 55.6335 40.7409 55.6335 40.3149C55.6335 39.889 55.9795 39.542 56.4059 39.542Z" fill="#EE9547"/>
</g>
</g>
<rect x="75.9131" y="20.3911" width="35.1304" height="35.1304" rx="17.5652" fill="#BBD9F6" fill-opacity="0.13"/>
<g clip-path="url(#clip1_9873_259276)">
<path d="M102.205 34.9476C102.205 32.2885 100.049 30.1328 97.3904 30.1328C95.7764 30.1328 94.3521 30.9296 93.4783 32.1474C92.6044 30.9296 91.1802 30.1328 89.5666 30.1328C86.9074 30.1328 84.7518 32.288 84.7518 34.9476C84.7518 35.3243 84.7996 35.6893 84.8816 36.0411C85.55 40.1948 90.1682 44.5768 93.4783 45.78C96.7878 44.5768 101.407 40.1948 102.074 36.0416C102.157 35.6898 102.205 35.3248 102.205 34.9476Z" fill="#DD2E44"/>
</g>
<g opacity="0.4">
<g clip-path="url(#clip2_9873_259276)">
<path d="M141.783 37.9564C141.783 42.8069 137.85 46.739 133 46.739C128.15 46.739 124.217 42.8069 124.217 37.9564C124.217 33.1065 128.15 29.1738 133 29.1738C137.85 29.1738 141.783 33.1065 141.783 37.9564Z" fill="#FFCC4D"/>
<path d="M138.102 37.858C138.073 37.7921 137.371 36.2493 135.928 36.2493C134.485 36.2493 133.782 37.7921 133.753 37.858C133.708 37.959 133.737 38.077 133.824 38.1463C133.909 38.2156 134.031 38.218 134.121 38.1531C134.127 38.1488 134.737 37.713 135.928 37.713C137.111 37.713 137.72 38.1429 137.734 38.1527C137.777 38.1849 137.828 38.201 137.879 38.201C137.933 38.201 137.987 38.1829 138.031 38.1478C138.118 38.0785 138.148 37.9594 138.102 37.858ZM132.247 37.858C132.218 37.7921 131.516 36.2493 130.072 36.2493C128.63 36.2493 127.927 37.7921 127.898 37.858C127.853 37.959 127.882 38.077 127.968 38.1463C128.054 38.2156 128.176 38.218 128.266 38.1531C128.272 38.1488 128.881 37.713 130.072 37.713C131.256 37.713 131.865 38.1429 131.879 38.1527C131.922 38.1849 131.973 38.201 132.024 38.201C132.078 38.201 132.132 38.1829 132.176 38.1478C132.263 38.0785 132.292 37.9594 132.247 37.858ZM139.343 36.9812C139.15 36.9812 138.966 36.865 138.89 36.6743C138.022 34.5054 135.853 34.0487 135.831 34.0439C135.567 33.9912 135.396 33.734 135.449 33.4696C135.502 33.2051 135.759 33.0348 136.023 33.087C136.133 33.109 138.734 33.6569 139.796 36.3112C139.896 36.5615 139.774 36.8455 139.524 36.9455C139.465 36.9699 139.403 36.9812 139.343 36.9812ZM126.657 36.9812C126.597 36.9812 126.536 36.9699 126.476 36.946C126.226 36.846 126.104 36.562 126.204 36.3117C127.266 33.6574 129.867 33.1095 129.977 33.0875C130.242 33.0358 130.498 33.2061 130.551 33.4701C130.604 33.7335 130.433 33.9902 130.17 34.0439C130.08 34.0624 127.971 34.522 127.11 36.6743C127.034 36.865 126.85 36.9812 126.657 36.9812ZM133 39.9087C131.232 39.9087 130.059 39.7028 128.609 39.4208C128.277 39.3568 127.633 39.4208 127.633 40.3966C127.633 42.3483 129.875 44.7879 133 44.7879C136.125 44.7879 138.367 42.3483 138.367 40.3966C138.367 39.4208 137.723 39.3564 137.391 39.4208C135.941 39.7028 134.768 39.9087 133 39.9087Z" fill="#664500"/>
<path d="M128.609 40.396C128.609 40.396 130.072 40.8839 133 40.8839C135.928 40.8839 137.391 40.396 137.391 40.396C137.391 40.396 136.415 42.3477 133 42.3477C129.585 42.3477 128.609 40.396 128.609 40.396Z" fill="white"/>
<path d="M129.51 42.9479C129.178 44.2541 127.851 45.0435 126.545 44.7117C125.239 44.3804 124.449 43.0533 124.78 41.7471C125.112 40.4409 127.872 37.4983 128.346 37.6183C128.819 37.7388 129.841 41.6422 129.51 42.9479ZM136.48 42.9479C136.812 44.2541 138.139 45.0435 139.445 44.7117C140.752 44.3804 141.542 43.0533 141.21 41.7471C140.878 40.4409 138.117 37.4983 137.644 37.6183C137.172 37.7388 136.149 41.6422 136.48 42.9479Z" fill="#5DADEC"/>
</g>
</g>
<g opacity="0.4">
<g clip-path="url(#clip3_9873_259276)">
<path d="M180.816 38.2583C180.816 36.4071 179.316 34.9067 177.465 34.9067C176.987 34.9067 176.122 35.1888 176.122 35.1888L169.718 35.864C169.718 35.864 168.392 35.0926 167.579 35.0926C165.727 35.0926 164.227 36.593 164.227 38.4442C164.227 38.5598 164.233 38.674 164.244 38.7867C164.425 43.2078 168.057 46.7389 172.522 46.7389C177.103 46.7389 180.816 43.0253 180.816 38.4442C180.816 38.4188 180.812 38.3949 180.811 38.3695C180.812 38.3324 180.816 38.2958 180.816 38.2583Z" fill="#FFCB4C"/>
<path d="M178.438 35.8837C177.979 35.7647 177.946 36.0721 177.364 36.0038C176.794 35.9369 177.573 35.6432 177.269 35.471C177.166 35.4129 177.019 35.4007 176.838 35.4231C176.325 35.4861 168.566 35.6886 168.277 35.8281C168.02 35.9521 167.867 36.0955 167.634 35.8774C167.34 35.6032 166.918 35.7613 166.796 35.8525C166.639 35.9706 166.607 36.2048 166.911 36.4756C167.214 36.6805 167.727 36.8947 168.601 37.0411C168.697 37.0572 168.779 37.0635 168.856 37.0665C169.455 37.0865 169.538 36.2516 170.383 36.2292C170.937 36.2146 175.825 36.7513 176.228 36.6966C176.277 36.6898 176.329 36.6849 176.388 36.6849C177.151 36.6849 177.328 37.3924 178.139 36.8391C178.483 36.5595 179.023 36.035 178.438 35.8837Z" fill="#F19020"/>
<path d="M166.636 33.6216C167.38 34.3666 167.907 35.1561 168.277 35.8285C168.553 36.3305 168.743 36.7697 168.856 37.0668C169.455 37.0868 169.538 36.7399 170.383 36.7175C170.937 36.7028 171.253 37.0927 171.663 37.3171C172.396 37.7182 172.916 36.9609 173.478 36.9609C173.892 36.9609 174.56 37.5498 175.027 37.3337C175.704 37.02 175.825 36.7526 176.228 36.6974C176.385 36.3115 176.589 35.8699 176.838 35.4245C177.199 34.7784 177.657 34.1241 178.225 33.6226H166.636V33.6216Z" fill="#F36C24"/>
<path d="M178.038 33.7775C178.663 33.1613 166.797 33.7853 167.138 34.162C167.62 34.6958 168.211 35.7004 168.211 35.7004C168.211 35.7004 170.532 36.8739 172.286 35.395C173.505 36.1269 175.213 35.8678 175.975 34.6099C175.975 34.6099 176.569 34.8309 177.171 34.869C177.171 34.869 177.636 34.1737 178.038 33.7775Z" fill="#CE5C1F"/>
<path d="M172.522 45.5619C173.689 45.5619 174.635 44.4806 174.635 43.1467C174.635 41.8128 173.689 40.7314 172.522 40.7314C171.354 40.7314 170.408 41.8128 170.408 43.1467C170.408 44.4806 171.354 45.5619 172.522 45.5619Z" fill="#65471B"/>
<path d="M170.57 39.228C170.57 39.9468 170.133 40.5293 169.594 40.5293C169.055 40.5293 168.618 39.9468 168.618 39.228C168.618 38.5093 169.055 37.9268 169.594 37.9268C170.133 37.9268 170.57 38.5093 170.57 39.228ZM176.425 39.2276C176.425 39.9463 175.988 40.5288 175.449 40.5288C174.91 40.5288 174.473 39.9463 174.473 39.2276C174.473 38.5093 174.911 37.9263 175.449 37.9263C175.988 37.9268 176.425 38.5093 176.425 39.2276Z" fill="#65471B"/>
<path d="M178.926 30.9914C178.809 30.9914 178.698 31.0133 178.591 31.0446C178.255 30.6323 177.75 30.3634 177.177 30.3634C177.135 30.3634 177.095 30.3732 177.053 30.3761C176.694 29.9726 176.177 29.713 175.595 29.713C174.861 29.713 174.229 30.1224 173.894 30.7211C173.725 30.3317 173.339 30.059 172.887 30.059C172.537 30.059 172.229 30.2258 172.028 30.481C171.78 29.7638 171.107 29.2456 170.306 29.2456C169.66 29.2456 169.096 29.5818 168.77 30.0863C168.68 30.0721 168.59 30.058 168.496 30.058C167.798 30.058 167.198 30.4542 166.89 31.0299C166.791 31.0114 166.69 30.9992 166.585 30.9992C165.676 30.9992 164.938 31.7365 164.938 32.6459C164.938 33.5554 165.676 34.2927 166.585 34.2927C166.872 34.2927 167.139 34.2151 167.373 34.0853C167.556 34.2229 167.782 34.3078 168.029 34.3078C168.1 34.3078 168.168 34.3 168.235 34.2868C168.652 34.9597 169.39 35.4105 170.24 35.4105C171.074 35.4105 171.804 34.9787 172.227 34.3288C172.578 34.7591 173.106 35.0397 173.705 35.0397C174.591 35.0397 175.328 34.4356 175.547 33.6193C175.564 33.6198 175.579 33.6242 175.596 33.6242C175.734 33.6242 175.868 33.6091 175.999 33.5818C176.318 33.8531 176.726 34.0229 177.178 34.0229C177.751 34.0229 178.256 33.754 178.592 33.3417C178.698 33.3729 178.809 33.3949 178.926 33.3949C179.59 33.3949 180.128 32.8567 180.128 32.1931C180.128 31.5296 179.589 30.9914 178.926 30.9914Z" fill="#CCD6DD"/>
<path d="M177.301 33.0229C177.873 33.0229 178.336 32.5596 178.336 31.988C178.336 31.4165 177.873 30.9531 177.301 30.9531C176.729 30.9531 176.266 31.4165 176.266 31.988C176.266 32.5596 176.729 33.0229 177.301 33.0229Z" fill="#E1E8ED"/>
<path d="M173.437 32.054C173.437 31.4719 172.965 30.9996 172.383 30.9996C172.204 30.9996 172.037 31.0489 171.889 31.1279C171.766 30.8347 171.477 30.6283 171.139 30.6283C170.862 30.6283 170.618 30.7674 170.471 30.9786C170.145 30.6747 169.71 30.4844 169.228 30.4844C168.372 30.4844 167.659 31.0748 167.46 31.8691C167.281 31.69 167.035 31.5788 166.762 31.5788C166.22 31.5788 165.781 32.0184 165.781 32.5605C165.781 33.1026 166.22 33.5422 166.762 33.5422C167.105 33.5422 167.406 33.366 167.582 33.0996C167.834 33.6271 168.328 34.0135 168.923 34.114C169.113 34.4409 169.463 34.6629 169.868 34.6629C170.392 34.6629 170.829 34.2951 170.938 33.8042C171.097 33.892 171.276 33.9467 171.469 33.9467C171.991 33.9467 172.426 33.5812 172.537 33.0928C173.046 33.0172 173.437 32.5834 173.437 32.054Z" fill="#E1E8ED"/>
</g>
</g>
<g opacity="0.4">
<g clip-path="url(#clip4_9873_259276)">
<path d="M220.826 37.9564C220.826 42.8069 216.894 46.739 212.043 46.739C207.194 46.739 203.261 42.8069 203.261 37.9564C203.261 33.1065 207.194 29.1738 212.043 29.1738C216.894 29.1738 220.826 33.1065 220.826 37.9564Z" fill="#FFCC4D"/>
<path d="M215.696 43.7526C215.674 43.6653 215.126 41.616 212.043 41.616C208.961 41.616 208.413 43.6653 208.391 43.7526C208.365 43.8585 208.412 43.9683 208.507 44.0229C208.602 44.0761 208.721 44.0615 208.8 43.9853C208.809 43.9761 209.753 43.0798 212.043 43.0798C214.334 43.0798 215.278 43.9761 215.287 43.9849C215.334 44.0312 215.396 44.0556 215.459 44.0556C215.5 44.0556 215.541 44.0454 215.579 44.0244C215.675 43.9697 215.722 43.859 215.696 43.7526ZM210.925 37.6116C209.336 36.0234 206.784 36.0049 206.676 36.0049C206.407 36.0049 206.189 36.223 206.189 36.4918C206.188 36.7612 206.407 36.9798 206.676 36.9807C206.69 36.9807 207.615 36.9915 208.619 37.3403C208.33 37.6526 208.14 38.1376 208.14 38.6885C208.14 39.6321 208.686 40.3962 209.36 40.3962C210.034 40.3962 210.58 39.6321 210.58 38.6885C210.58 38.6036 210.57 38.5226 210.562 38.4411C210.568 38.4411 210.574 38.4445 210.58 38.4445C210.705 38.4445 210.83 38.3967 210.925 38.3015C211.115 38.1108 211.115 37.8024 210.925 37.6116ZM217.411 36.0049C217.303 36.0049 214.751 36.0234 213.162 37.6116C212.972 37.8024 212.972 38.1108 213.162 38.3015C213.257 38.3967 213.382 38.4445 213.507 38.4445C213.514 38.4445 213.519 38.4411 213.525 38.4411C213.517 38.5226 213.507 38.6036 213.507 38.6885C213.507 39.6321 214.053 40.3962 214.727 40.3962C215.401 40.3962 215.947 39.6321 215.947 38.6885C215.947 38.1376 215.757 37.6526 215.468 37.3403C216.472 36.9915 217.397 36.9807 217.412 36.9807C217.68 36.9798 217.899 36.7612 217.898 36.4918C217.898 36.223 217.68 36.0049 217.411 36.0049Z" fill="#664500"/>
</g>
</g>
</g>
<defs>
<filter id="filter0_dd_9873_259276" x="0" y="0" width="266" height="107.913" filterUnits="userSpaceOnUse" color-interpolation-filters="sRGB">
<feFlood flood-opacity="0" result="BackgroundImageFix"/>
<feColorMatrix in="SourceAlpha" type="matrix" values="0 0 0 0 0 0 0 0 0 0 0 0 0 0 0 0 0 0 127 0" result="hardAlpha"/>
<feOffset dy="16"/>
<feGaussianBlur stdDeviation="16"/>
<feColorMatrix type="matrix" values="0 0 0 0 0 0 0 0 0 0 0 0 0 0 0 0 0 0 0.16 0"/>
<feBlend mode="normal" in2="BackgroundImageFix" result="effect1_dropShadow_9873_259276"/>
<feColorMatrix in="SourceAlpha" type="matrix" values="0 0 0 0 0 0 0 0 0 0 0 0 0 0 0 0 0 0 127 0" result="hardAlpha"/>
<feOffset dy="4"/>
<feGaussianBlur stdDeviation="4"/>
<feColorMatrix type="matrix" values="0 0 0 0 0 0 0 0 0 0 0 0 0 0 0 0 0 0 0.1 0"/>
<feBlend mode="normal" in2="effect1_dropShadow_9873_259276" result="effect2_dropShadow_9873_259276"/>
<feBlend mode="normal" in="SourceGraphic" in2="effect2_dropShadow_9873_259276" result="shape"/>
</filter>
<clipPath id="clip0_9873_259276">
<rect width="17.5652" height="17.5652" fill="white" transform="translate(45.1739 29.1738)"/>
</clipPath>
<clipPath id="clip1_9873_259276">
<rect width="17.5652" height="17.5652" fill="white" transform="translate(84.6956 29.1738)"/>
</clipPath>
<clipPath id="clip2_9873_259276">
<rect width="17.5652" height="17.5652" fill="white" transform="translate(124.217 29.1738)"/>
</clipPath>
<clipPath id="clip3_9873_259276">
<rect width="17.5652" height="17.5652" fill="white" transform="translate(163.739 29.1738)"/>
</clipPath>
<clipPath id="clip4_9873_259276">
<rect width="17.5652" height="17.5652" fill="white" transform="translate(203.261 29.1738)"/>
</clipPath>
</defs>
</svg>
