<svg width="203" height="45" viewBox="0 0 203 45" fill="none" xmlns="http://www.w3.org/2000/svg">
<g clip-path="url(#clip0_10176_12195)">
<g filter="url(#filter0_dd_10176_12195)">
<rect x="0.666626" y="0.378662" width="202" height="43.913" rx="21.9565" fill="#272D33"/>
<g opacity="0.4">
<g clip-path="url(#clip1_10176_12195)">
<path d="M30.8964 22.2942C30.8964 22.0488 30.8378 21.8185 30.7397 21.6092C30.0854 19.4984 27.0223 19.6526 22.6651 19.5496C21.9366 19.5326 22.3533 18.6723 22.609 16.7841C22.7754 15.556 21.9835 13.6702 20.6524 13.6702C18.4577 13.6702 20.569 15.4013 18.6285 19.6823C17.5917 21.9697 15.274 20.6884 15.274 22.9861V28.2161C15.274 29.1105 15.3619 29.9702 16.6197 30.1117C17.8391 30.2488 17.5648 31.1178 19.3238 31.1178H28.1279C29.0247 31.1178 29.7541 30.3879 29.7541 29.4911C29.7541 29.1193 29.6239 28.7806 29.4136 28.5064C29.9112 28.2278 30.2528 27.7018 30.2528 27.0919C30.2528 26.7211 30.123 26.3825 29.9132 26.1088C30.4123 25.8307 30.7549 25.3042 30.7549 24.6933C30.7549 24.2498 30.5753 23.8477 30.286 23.5535C30.6553 23.2554 30.8964 22.8046 30.8964 22.2942Z" fill="#FFDB5E"/>
<path d="M25.0725 23.9207H29.2705C29.8414 23.9207 30.3772 23.6153 30.6689 23.1239C30.789 22.9214 30.7221 22.6594 30.5191 22.5389C30.3167 22.4184 30.0546 22.4862 29.9341 22.6887C29.796 22.9224 29.5409 23.0668 29.2701 23.0668H24.9715C24.5455 23.0668 24.1991 22.7204 24.1991 22.2945C24.1991 21.8685 24.5455 21.5221 24.9715 21.5221H27.8439C28.0795 21.5221 28.2708 21.3308 28.2708 21.0951C28.2708 20.8595 28.0795 20.6682 27.8439 20.6682H24.971C24.0742 20.6682 23.3447 21.3977 23.3447 22.2945C23.3447 22.7946 23.5765 23.2371 23.9327 23.5357C23.6326 23.8309 23.4457 24.2408 23.4457 24.6936C23.4457 25.1952 23.679 25.6392 24.0371 25.9373C23.739 26.232 23.554 26.6404 23.554 27.0922C23.554 27.6387 23.8268 28.1207 24.2415 28.4159C23.9859 28.7033 23.8258 29.0776 23.8258 29.4913C23.8258 30.3881 24.5553 31.1176 25.4521 31.1176H28.1278C28.6987 31.1176 29.2349 30.8126 29.5267 30.3213C29.6472 30.1188 29.5804 29.8568 29.3779 29.7363C29.1749 29.6167 28.9129 29.6826 28.7929 29.8851C28.6538 30.1188 28.3986 30.2637 28.1278 30.2637H25.4521C25.0261 30.2637 24.6797 29.9173 24.6797 29.4913C24.6797 29.0654 25.0261 28.7189 25.4521 28.7189H28.6265C29.1974 28.7189 29.7341 28.4135 30.0254 27.9222C30.1459 27.7192 30.079 27.4572 29.8765 27.3371C29.6721 27.2147 29.4111 27.2835 29.2915 27.486C29.1505 27.7236 28.9017 27.8651 28.6265 27.8651H25.1803C24.7543 27.8651 24.4079 27.5182 24.4079 27.0922C24.4079 26.6662 24.7543 26.3198 25.1803 26.3198H29.1281C29.6989 26.3198 30.2352 26.0149 30.5269 25.5235C30.6475 25.321 30.5806 25.059 30.3781 24.9385C30.1747 24.8185 29.9131 24.8848 29.7931 25.0873C29.6521 25.3245 29.4033 25.466 29.1281 25.466H25.0725C24.6465 25.466 24.3001 25.1195 24.3001 24.6936C24.3001 24.2676 24.646 23.9207 25.0725 23.9207Z" fill="#EE9547"/>
</g>
</g>
<rect x="44.5797" y="4.77002" width="35.1304" height="35.1304" rx="17.5652" fill="#BBD9F6" fill-opacity="0.13"/>
<g clip-path="url(#clip2_10176_12195)">
<path d="M70.8713 19.3263C70.8713 16.6671 68.7157 14.5115 66.057 14.5115C64.4429 14.5115 63.0187 15.3083 62.1448 16.5261C61.271 15.3083 59.8467 14.5115 58.2332 14.5115C55.574 14.5115 53.4183 16.6666 53.4183 19.3263C53.4183 19.703 53.4662 20.0679 53.5481 20.4197C54.2166 24.5734 58.8348 28.9555 62.1448 30.1587C65.4544 28.9555 70.0731 24.5734 70.7406 20.4202C70.8235 20.0684 70.8713 19.7035 70.8713 19.3263Z" fill="#DD2E44"/>
</g>
<g opacity="0.4">
<g clip-path="url(#clip3_10176_12195)">
<path d="M110.449 22.3353C110.449 27.1858 106.517 31.118 101.667 31.118C96.8167 31.118 92.884 27.1858 92.884 22.3353C92.884 17.4854 96.8167 13.5527 101.667 13.5527C106.517 13.5527 110.449 17.4854 110.449 22.3353Z" fill="#FFCC4D"/>
<path d="M106.769 22.2364C106.74 22.1705 106.037 20.6277 104.594 20.6277C103.151 20.6277 102.449 22.1705 102.419 22.2364C102.375 22.3374 102.404 22.4554 102.49 22.5247C102.576 22.594 102.698 22.5965 102.788 22.5316C102.794 22.5272 103.404 22.0915 104.594 22.0915C105.778 22.0915 106.387 22.5213 106.4 22.5311C106.443 22.5633 106.495 22.5794 106.546 22.5794C106.6 22.5794 106.654 22.5613 106.698 22.5262C106.784 22.4569 106.814 22.3379 106.769 22.2364ZM100.914 22.2364C100.884 22.1705 100.182 20.6277 98.7391 20.6277C97.2963 20.6277 96.5937 22.1705 96.5644 22.2364C96.5195 22.3374 96.5488 22.4554 96.6347 22.5247C96.7206 22.594 96.843 22.5965 96.9323 22.5316C96.9387 22.5272 97.5481 22.0915 98.7391 22.0915C99.9228 22.0915 100.532 22.5213 100.545 22.5311C100.588 22.5633 100.64 22.5794 100.691 22.5794C100.744 22.5794 100.799 22.5613 100.843 22.5262C100.93 22.4569 100.959 22.3379 100.914 22.2364ZM108.01 21.3596C107.816 21.3596 107.633 21.2434 107.556 21.0527C106.689 18.8839 104.52 18.4272 104.498 18.4223C104.234 18.3696 104.062 18.1124 104.116 17.848C104.168 17.5835 104.425 17.4133 104.69 17.4655C104.8 17.4874 107.401 18.0354 108.462 20.6897C108.562 20.94 108.44 21.2239 108.19 21.324C108.132 21.3484 108.07 21.3596 108.01 21.3596ZM95.3236 21.3596C95.2631 21.3596 95.2021 21.3484 95.1426 21.3244C94.8923 21.2244 94.7708 20.9404 94.8708 20.6901C95.9326 18.0358 98.5332 17.4879 98.6435 17.4659C98.9084 17.4142 99.1646 17.5845 99.2177 17.8485C99.2704 18.112 99.0997 18.3686 98.8367 18.4223C98.7464 18.4408 96.6381 18.9004 95.7769 21.0527C95.7003 21.2434 95.5168 21.3596 95.3236 21.3596ZM101.667 24.2871C99.8989 24.2871 98.7259 24.0812 97.2753 23.7992C96.944 23.7353 96.2995 23.7992 96.2995 24.775C96.2995 26.7267 98.5415 29.1663 101.667 29.1663C104.791 29.1663 107.034 26.7267 107.034 24.775C107.034 23.7992 106.389 23.7348 106.058 23.7992C104.607 24.0812 103.434 24.2871 101.667 24.2871Z" fill="#664500"/>
<path d="M97.2753 24.7749C97.2753 24.7749 98.7391 25.2628 101.667 25.2628C104.594 25.2628 106.058 24.7749 106.058 24.7749C106.058 24.7749 105.082 26.7266 101.667 26.7266C98.2512 26.7266 97.2753 24.7749 97.2753 24.7749Z" fill="white"/>
<path d="M98.1765 27.3263C97.8447 28.6325 96.5176 29.4219 95.2114 29.0901C93.9057 28.7588 93.1158 27.4317 93.4471 26.1255C93.7784 24.8194 96.539 21.8767 97.0123 21.9967C97.4856 22.1172 98.5078 26.0206 98.1765 27.3263ZM105.147 27.3263C105.479 28.6325 106.806 29.4219 108.112 29.0901C109.418 28.7588 110.208 27.4317 109.876 26.1255C109.545 24.8194 106.784 21.8767 106.311 21.9967C105.838 22.1172 104.816 26.0206 105.147 27.3263Z" fill="#5DADEC"/>
</g>
</g>
<g opacity="0.4">
<g clip-path="url(#clip4_10176_12195)">
<path d="M149.483 22.6374C149.483 20.7863 147.983 19.2859 146.132 19.2859C145.654 19.2859 144.789 19.5679 144.789 19.5679L138.384 20.2432C138.384 20.2432 137.059 19.4718 136.246 19.4718C134.394 19.4718 132.894 20.9721 132.894 22.8233C132.894 22.939 132.9 23.0531 132.911 23.1658C133.092 27.5869 136.723 31.118 141.188 31.118C145.769 31.118 149.483 27.4044 149.483 22.8233C149.483 22.798 149.479 22.774 149.477 22.7487C149.479 22.7116 149.483 22.675 149.483 22.6374Z" fill="#FFCB4C"/>
<path d="M147.105 20.2622C146.646 20.1431 146.613 20.4505 146.031 20.3822C145.461 20.3153 146.24 20.0216 145.935 19.8494C145.833 19.7913 145.686 19.7791 145.505 19.8016C144.992 19.8645 137.233 20.067 136.943 20.2065C136.686 20.3305 136.534 20.4739 136.3 20.2558C136.006 19.9816 135.585 20.1397 135.463 20.2309C135.306 20.349 135.273 20.5832 135.577 20.854C135.88 21.0589 136.394 21.2731 137.268 21.4195C137.364 21.4356 137.446 21.442 137.523 21.4449C138.121 21.4649 138.204 20.6301 139.05 20.6076C139.604 20.593 144.492 21.1297 144.894 21.075C144.943 21.0682 144.995 21.0633 145.055 21.0633C145.817 21.0633 145.994 21.7708 146.806 21.2175C147.15 20.9379 147.689 20.4134 147.105 20.2622Z" fill="#F19020"/>
<path d="M135.303 18.0002C136.046 18.7453 136.574 19.5348 136.943 20.2071C137.22 20.7092 137.41 21.1483 137.523 21.4455C138.121 21.4655 138.204 21.1186 139.05 21.0961C139.604 21.0815 139.92 21.4713 140.33 21.6958C141.062 22.0968 141.583 21.3396 142.144 21.3396C142.559 21.3396 143.227 21.9285 143.694 21.7124C144.371 21.3986 144.492 21.1312 144.894 21.0761C145.051 20.6902 145.256 20.2486 145.505 19.8031C145.866 19.1571 146.324 18.5028 146.891 18.0012H135.303V18.0002Z" fill="#F36C24"/>
<path d="M146.705 18.1564C147.33 17.5402 135.464 18.1642 135.804 18.5409C136.286 19.0747 136.878 20.0793 136.878 20.0793C136.878 20.0793 139.199 21.2528 140.952 19.7739C142.172 20.5058 143.88 20.2467 144.642 18.9888C144.642 18.9888 145.236 19.2099 145.838 19.2479C145.838 19.2479 146.303 18.5526 146.705 18.1564Z" fill="#CE5C1F"/>
<path d="M141.188 29.941C142.356 29.941 143.302 28.8597 143.302 27.5258C143.302 26.1919 142.356 25.1106 141.188 25.1106C140.021 25.1106 139.075 26.1919 139.075 27.5258C139.075 28.8597 140.021 29.941 141.188 29.941Z" fill="#65471B"/>
<path d="M139.237 23.607C139.237 24.3257 138.799 24.9082 138.261 24.9082C137.722 24.9082 137.285 24.3257 137.285 23.607C137.285 22.8882 137.722 22.3057 138.261 22.3057C138.799 22.3057 139.237 22.8882 139.237 23.607ZM145.092 23.6065C145.092 24.3252 144.655 24.9078 144.116 24.9078C143.577 24.9078 143.14 24.3252 143.14 23.6065C143.14 22.8882 143.577 22.3052 144.116 22.3052C144.655 22.3057 145.092 22.8882 145.092 23.6065Z" fill="#65471B"/>
<path d="M147.592 15.3705C147.475 15.3705 147.364 15.3925 147.258 15.4237C146.922 15.0114 146.417 14.7426 145.844 14.7426C145.801 14.7426 145.761 14.7523 145.719 14.7553C145.361 14.3518 144.844 14.0922 144.262 14.0922C143.527 14.0922 142.896 14.5016 142.561 15.1002C142.392 14.7109 142.005 14.4381 141.554 14.4381C141.203 14.4381 140.896 14.605 140.695 14.8602C140.447 14.1429 139.773 13.6248 138.972 13.6248C138.327 13.6248 137.762 13.9609 137.436 14.4654C137.346 14.4513 137.257 14.4371 137.163 14.4371C136.464 14.4371 135.865 14.8333 135.556 15.4091C135.457 15.3905 135.356 15.3784 135.252 15.3784C134.342 15.3784 133.605 16.1156 133.605 17.0251C133.605 17.9346 134.342 18.6718 135.252 18.6718C135.539 18.6718 135.806 18.5942 136.039 18.4645C136.223 18.6021 136.448 18.687 136.696 18.687C136.766 18.687 136.835 18.6791 136.901 18.666C137.319 19.3388 138.056 19.7897 138.906 19.7897C139.74 19.7897 140.471 19.3578 140.894 18.7079C141.245 19.1383 141.773 19.4188 142.372 19.4188C143.257 19.4188 143.995 18.8148 144.214 17.9985C144.231 17.999 144.246 18.0034 144.262 18.0034C144.4 18.0034 144.535 17.9882 144.665 17.9609C144.984 18.2322 145.393 18.402 145.845 18.402C146.417 18.402 146.923 18.1332 147.258 17.7209C147.365 17.7521 147.476 17.7741 147.593 17.7741C148.256 17.7741 148.795 17.2359 148.795 16.5723C148.795 15.9087 148.256 15.3705 147.592 15.3705Z" fill="#CCD6DD"/>
<path d="M145.968 17.4016C146.539 17.4016 147.002 16.9382 147.002 16.3667C147.002 15.7951 146.539 15.3318 145.968 15.3318C145.396 15.3318 144.933 15.7951 144.933 16.3667C144.933 16.9382 145.396 17.4016 145.968 17.4016Z" fill="#E1E8ED"/>
<path d="M142.104 16.4332C142.104 15.8511 141.632 15.3788 141.05 15.3788C140.87 15.3788 140.703 15.4281 140.556 15.5071C140.433 15.2139 140.144 15.0075 139.806 15.0075C139.529 15.0075 139.285 15.1465 139.138 15.3578C138.811 15.0538 138.376 14.8635 137.895 14.8635C137.039 14.8635 136.326 15.4539 136.126 16.2483C135.948 16.0692 135.702 15.9579 135.429 15.9579C134.887 15.9579 134.447 16.3976 134.447 16.9396C134.447 17.4817 134.887 17.9213 135.429 17.9213C135.772 17.9213 136.072 17.7452 136.248 17.4788C136.5 18.0062 136.994 18.3927 137.589 18.4932C137.78 18.8201 138.13 19.0421 138.535 19.0421C139.059 19.0421 139.496 18.6742 139.605 18.1834C139.763 18.2712 139.942 18.3258 140.135 18.3258C140.657 18.3258 141.093 17.9604 141.204 17.472C141.712 17.3963 142.104 16.9626 142.104 16.4332Z" fill="#E1E8ED"/>
</g>
</g>
<g opacity="0.4">
<g clip-path="url(#clip5_10176_12195)">
<path d="M189.493 22.3353C189.493 27.1858 185.561 31.118 180.71 31.118C175.86 31.118 171.927 27.1858 171.927 22.3353C171.927 17.4854 175.86 13.5527 180.71 13.5527C185.561 13.5527 189.493 17.4854 189.493 22.3353Z" fill="#FFCC4D"/>
<path d="M184.362 28.1315C184.34 28.0442 183.792 25.9949 180.71 25.9949C177.627 25.9949 177.08 28.0442 177.058 28.1315C177.031 28.2374 177.079 28.3472 177.174 28.4018C177.269 28.455 177.388 28.4404 177.466 28.3643C177.476 28.355 178.42 27.4587 180.71 27.4587C183 27.4587 183.945 28.355 183.954 28.3638C184.001 28.4101 184.063 28.4345 184.126 28.4345C184.167 28.4345 184.208 28.4243 184.246 28.4033C184.341 28.3486 184.389 28.2379 184.362 28.1315ZM179.591 21.9905C178.003 20.4023 175.451 20.3838 175.343 20.3838C175.074 20.3838 174.856 20.6019 174.856 20.8707C174.855 21.1401 175.073 21.3587 175.342 21.3596C175.357 21.3596 176.282 21.3704 177.286 21.7192C176.997 22.0315 176.807 22.5165 176.807 23.0674C176.807 24.011 177.353 24.7751 178.027 24.7751C178.7 24.7751 179.246 24.011 179.246 23.0674C179.246 22.9825 179.237 22.9015 179.228 22.82C179.235 22.82 179.24 22.8234 179.246 22.8234C179.371 22.8234 179.496 22.7756 179.591 22.6804C179.782 22.4897 179.782 22.1813 179.591 21.9905ZM186.077 20.3838C185.969 20.3838 183.418 20.4023 181.829 21.9905C181.638 22.1813 181.638 22.4897 181.829 22.6804C181.924 22.7756 182.049 22.8234 182.174 22.8234C182.18 22.8234 182.186 22.82 182.191 22.82C182.184 22.9015 182.174 22.9825 182.174 23.0674C182.174 24.011 182.72 24.7751 183.394 24.7751C184.068 24.7751 184.613 24.011 184.613 23.0674C184.613 22.5165 184.424 22.0315 184.134 21.7192C185.139 21.3704 186.064 21.3596 186.078 21.3596C186.347 21.3587 186.565 21.1401 186.565 20.8707C186.564 20.6019 186.347 20.3838 186.077 20.3838Z" fill="#664500"/>
</g>
</g>
</g>
</g>
<defs>
<filter id="filter0_dd_10176_12195" x="-31.3334" y="-15.6213" width="266" height="107.913" filterUnits="userSpaceOnUse" color-interpolation-filters="sRGB">
<feFlood flood-opacity="0" result="BackgroundImageFix"/>
<feColorMatrix in="SourceAlpha" type="matrix" values="0 0 0 0 0 0 0 0 0 0 0 0 0 0 0 0 0 0 127 0" result="hardAlpha"/>
<feOffset dy="16"/>
<feGaussianBlur stdDeviation="16"/>
<feColorMatrix type="matrix" values="0 0 0 0 0 0 0 0 0 0 0 0 0 0 0 0 0 0 0.16 0"/>
<feBlend mode="normal" in2="BackgroundImageFix" result="effect1_dropShadow_10176_12195"/>
<feColorMatrix in="SourceAlpha" type="matrix" values="0 0 0 0 0 0 0 0 0 0 0 0 0 0 0 0 0 0 127 0" result="hardAlpha"/>
<feOffset dy="4"/>
<feGaussianBlur stdDeviation="4"/>
<feColorMatrix type="matrix" values="0 0 0 0 0 0 0 0 0 0 0 0 0 0 0 0 0 0 0.1 0"/>
<feBlend mode="normal" in2="effect1_dropShadow_10176_12195" result="effect2_dropShadow_10176_12195"/>
<feBlend mode="normal" in="SourceGraphic" in2="effect2_dropShadow_10176_12195" result="shape"/>
</filter>
<clipPath id="clip0_10176_12195">
<rect width="202" height="43.913" fill="white" transform="translate(0.666626 0.378662)"/>
</clipPath>
<clipPath id="clip1_10176_12195">
<rect width="17.5652" height="17.5652" fill="white" transform="translate(13.8405 13.5527)"/>
</clipPath>
<clipPath id="clip2_10176_12195">
<rect width="17.5652" height="17.5652" fill="white" transform="translate(53.3622 13.5527)"/>
</clipPath>
<clipPath id="clip3_10176_12195">
<rect width="17.5652" height="17.5652" fill="white" transform="translate(92.884 13.5527)"/>
</clipPath>
<clipPath id="clip4_10176_12195">
<rect width="17.5652" height="17.5652" fill="white" transform="translate(132.406 13.5527)"/>
</clipPath>
<clipPath id="clip5_10176_12195">
<rect width="17.5652" height="17.5652" fill="white" transform="translate(171.927 13.5527)"/>
</clipPath>
</defs>
</svg>
