<svg width="267" height="109" viewBox="0 0 267 109" fill="none" xmlns="http://www.w3.org/2000/svg">
<g filter="url(#filter0_dd_10117_29999)">
<rect x="32.6665" y="16.3789" width="202" height="43.913" rx="21.9565" fill="#272D33"/>
<g opacity="0.4">
<g clip-path="url(#clip0_10117_29999)">
<path d="M62.8962 38.2949C62.8962 38.0495 62.8377 37.8192 62.7396 37.6099C62.0853 35.4991 59.0221 35.6533 54.665 35.5504C53.9365 35.5333 54.3532 34.6731 54.6089 32.7848C54.7753 31.5567 53.9834 29.6709 52.6523 29.6709C50.4576 29.6709 52.5689 31.402 50.6284 35.6831C49.5916 37.9705 47.2739 36.6892 47.2739 38.9868V44.2169C47.2739 45.1112 47.3618 45.9709 48.6196 46.1124C49.8389 46.2495 49.5647 47.1185 51.3237 47.1185H60.1278C61.0246 47.1185 61.754 46.3886 61.754 45.4918C61.754 45.12 61.6237 44.7814 61.4134 44.5072C61.9111 44.2286 62.2527 43.7026 62.2527 43.0927C62.2527 42.7219 62.1229 42.3832 61.9131 42.1095C62.4122 41.8314 62.7547 41.3049 62.7547 40.694C62.7547 40.2505 62.5752 39.8485 62.2858 39.5543C62.6552 39.2561 62.8962 38.8053 62.8962 38.2949Z" fill="#FFDB5E"/>
<path d="M57.0725 39.9214H61.2705C61.8414 39.9214 62.3772 39.616 62.6689 39.1247C62.789 38.9222 62.7221 38.6602 62.5191 38.5396C62.3167 38.4191 62.0546 38.4869 61.9341 38.6894C61.796 38.9231 61.5409 39.0676 61.2701 39.0676H56.9715C56.5455 39.0676 56.1991 38.7211 56.1991 38.2952C56.1991 37.8692 56.5455 37.5228 56.9715 37.5228H59.8439C60.0795 37.5228 60.2708 37.3315 60.2708 37.0959C60.2708 36.8602 60.0795 36.6689 59.8439 36.6689H56.971C56.0742 36.6689 55.3447 37.3984 55.3447 38.2952C55.3447 38.7953 55.5765 39.2379 55.9327 39.5365C55.6326 39.8317 55.4457 40.2415 55.4457 40.6943C55.4457 41.1959 55.679 41.6399 56.0371 41.938C55.739 42.2327 55.554 42.6411 55.554 43.0929C55.554 43.6394 55.8268 44.1215 56.2415 44.4167C55.9859 44.7041 55.8258 45.0783 55.8258 45.4921C55.8258 46.3889 56.5553 47.1183 57.4521 47.1183H60.1278C60.6987 47.1183 61.2349 46.8133 61.5267 46.322C61.6472 46.1195 61.5804 45.8575 61.3779 45.737C61.1749 45.6174 60.9129 45.6833 60.7929 45.8858C60.6538 46.1195 60.3986 46.2644 60.1278 46.2644H57.4521C57.0261 46.2644 56.6797 45.918 56.6797 45.4921C56.6797 45.0661 57.0261 44.7197 57.4521 44.7197H60.6265C61.1974 44.7197 61.7341 44.4142 62.0254 43.9229C62.1459 43.7199 62.079 43.4579 61.8765 43.3379C61.6721 43.2154 61.4111 43.2842 61.2915 43.4867C61.1505 43.7243 60.9017 43.8658 60.6265 43.8658H57.1803C56.7543 43.8658 56.4079 43.5189 56.4079 43.0929C56.4079 42.667 56.7543 42.3206 57.1803 42.3206H61.1281C61.6989 42.3206 62.2352 42.0156 62.5269 41.5243C62.6475 41.3218 62.5806 41.0598 62.3781 40.9392C62.1747 40.8192 61.9131 40.8856 61.7931 41.0881C61.6521 41.3252 61.4033 41.4667 61.1281 41.4667H57.0725C56.6465 41.4667 56.3001 41.1203 56.3001 40.6943C56.3001 40.2684 56.646 39.9214 57.0725 39.9214Z" fill="#EE9547"/>
</g>
</g>
<rect x="76.5796" y="20.7705" width="35.1304" height="35.1304" rx="17.5652" fill="#BBD9F6" fill-opacity="0.13"/>
<g clip-path="url(#clip1_10117_29999)">
<path d="M102.871 35.3275C102.871 32.6683 100.716 30.5127 98.0571 30.5127C96.4431 30.5127 95.0188 31.3095 94.145 32.5273C93.2711 31.3095 91.8468 30.5127 90.2333 30.5127C87.5741 30.5127 85.4185 32.6679 85.4185 35.3275C85.4185 35.7042 85.4663 36.0692 85.5482 36.421C86.2167 40.5746 90.8349 44.9567 94.145 46.1599C97.4545 44.9567 102.073 40.5746 102.741 36.4214C102.824 36.0696 102.871 35.7047 102.871 35.3275Z" fill="#DD2E44"/>
</g>
<g opacity="0.4">
<g clip-path="url(#clip2_10117_29999)">
<path d="M142.449 38.3363C142.449 43.1868 138.517 47.1189 133.666 47.1189C128.816 47.1189 124.884 43.1868 124.884 38.3363C124.884 33.4864 128.816 29.5537 133.666 29.5537C138.517 29.5537 142.449 33.4864 142.449 38.3363Z" fill="#FFCC4D"/>
<path d="M138.768 38.2373C138.739 38.1715 138.037 36.6287 136.594 36.6287C135.151 36.6287 134.448 38.1715 134.419 38.2373C134.374 38.3383 134.404 38.4564 134.49 38.5257C134.575 38.595 134.698 38.5974 134.788 38.5325C134.793 38.5281 135.403 38.0924 136.594 38.0924C137.777 38.0924 138.386 38.5223 138.4 38.5321C138.443 38.5643 138.495 38.5804 138.545 38.5804C138.599 38.5804 138.653 38.5623 138.698 38.5272C138.784 38.4579 138.814 38.3388 138.768 38.2373ZM132.913 38.2373C132.884 38.1715 132.182 36.6287 130.739 36.6287C129.296 36.6287 128.593 38.1715 128.564 38.2373C128.519 38.3383 128.548 38.4564 128.634 38.5257C128.72 38.595 128.843 38.5974 128.932 38.5325C128.938 38.5281 129.548 38.0924 130.739 38.0924C131.922 38.0924 132.531 38.5223 132.545 38.5321C132.588 38.5643 132.64 38.5804 132.69 38.5804C132.744 38.5804 132.798 38.5623 132.843 38.5272C132.929 38.4579 132.958 38.3388 132.913 38.2373ZM140.009 37.3605C139.816 37.3605 139.633 37.2444 139.556 37.0536C138.688 34.8848 136.52 34.4281 136.498 34.4233C136.234 34.3706 136.062 34.1134 136.115 33.849C136.168 33.5845 136.425 33.4142 136.689 33.4664C136.8 33.4884 139.4 34.0363 140.462 36.6906C140.562 36.9409 140.44 37.2249 140.19 37.3249C140.131 37.3493 140.07 37.3605 140.009 37.3605ZM127.323 37.3605C127.263 37.3605 127.202 37.3493 127.142 37.3254C126.892 37.2254 126.77 36.9414 126.87 36.6911C127.932 34.0368 130.533 33.4889 130.643 33.4669C130.908 33.4152 131.164 33.5855 131.217 33.8495C131.27 34.1129 131.099 34.3696 130.836 34.4233C130.746 34.4418 128.638 34.9014 127.777 37.0536C127.7 37.2444 127.516 37.3605 127.323 37.3605ZM133.666 40.2881C131.899 40.2881 130.726 40.0822 129.275 39.8002C128.944 39.7362 128.299 39.8002 128.299 40.776C128.299 42.7277 130.541 45.1673 133.666 45.1673C136.791 45.1673 139.033 42.7277 139.033 40.776C139.033 39.8002 138.389 39.7358 138.058 39.8002C136.607 40.0822 135.434 40.2881 133.666 40.2881Z" fill="#664500"/>
<path d="M129.275 40.7764C129.275 40.7764 130.739 41.2643 133.666 41.2643C136.594 41.2643 138.058 40.7764 138.058 40.7764C138.058 40.7764 137.082 42.7281 133.666 42.7281C130.251 42.7281 129.275 40.7764 129.275 40.7764Z" fill="white"/>
<path d="M130.177 43.3273C129.845 44.6335 128.518 45.4229 127.211 45.0911C125.906 44.7598 125.116 43.4327 125.447 42.1265C125.778 40.8203 128.539 37.8777 129.012 37.9977C129.486 38.1182 130.508 42.0216 130.177 43.3273ZM137.147 43.3273C137.479 44.6335 138.806 45.4229 140.112 45.0911C141.418 44.7598 142.208 43.4327 141.876 42.1265C141.545 40.8203 138.784 37.8777 138.311 37.9977C137.838 38.1182 136.816 42.0216 137.147 43.3273Z" fill="#5DADEC"/>
</g>
</g>
<g opacity="0.4">
<g clip-path="url(#clip3_10117_29999)">
<path d="M181.483 38.6387C181.483 36.7875 179.983 35.2871 178.131 35.2871C177.654 35.2871 176.789 35.5691 176.789 35.5691L170.384 36.2444C170.384 36.2444 169.058 35.473 168.246 35.473C166.394 35.473 164.894 36.9734 164.894 38.8245C164.894 38.9402 164.899 39.0544 164.911 39.1671C165.092 43.5881 168.723 47.1192 173.188 47.1192C177.769 47.1192 181.483 43.4057 181.483 38.8245C181.483 38.7992 181.479 38.7753 181.477 38.7499C181.479 38.7128 181.483 38.6762 181.483 38.6387Z" fill="#FFCB4C"/>
<path d="M179.105 36.2631C178.646 36.1441 178.612 36.4515 178.03 36.3832C177.46 36.3163 178.24 36.0226 177.935 35.8504C177.833 35.7923 177.686 35.7801 177.505 35.8025C176.992 35.8655 169.233 36.068 168.943 36.2075C168.686 36.3315 168.534 36.4749 168.3 36.2568C168.006 35.9826 167.585 36.1407 167.463 36.2319C167.306 36.35 167.273 36.5842 167.577 36.855C167.88 37.0599 168.393 37.2741 169.268 37.4205C169.364 37.4366 169.446 37.4429 169.522 37.4459C170.121 37.4659 170.204 36.631 171.05 36.6086C171.604 36.594 176.491 37.1307 176.894 37.076C176.943 37.0692 176.995 37.0643 177.054 37.0643C177.817 37.0643 177.994 37.7718 178.806 37.2185C179.15 36.9389 179.689 36.4144 179.105 36.2631Z" fill="#F19020"/>
<path d="M167.303 34.001C168.046 34.746 168.574 35.5355 168.944 36.2079C169.22 36.7099 169.41 37.1491 169.523 37.4462C170.121 37.4662 170.204 37.1193 171.05 37.0968C171.604 37.0822 171.92 37.4721 172.33 37.6965C173.063 38.0976 173.583 37.3403 174.144 37.3403C174.559 37.3403 175.227 37.9292 175.694 37.7131C176.371 37.3994 176.492 37.132 176.894 37.0768C177.051 36.6909 177.256 36.2493 177.505 35.8039C177.866 35.1578 178.324 34.5035 178.891 34.002H167.303V34.001Z" fill="#F36C24"/>
<path d="M178.705 34.1574C179.33 33.5412 167.463 34.1652 167.804 34.5419C168.286 35.0757 168.877 36.0803 168.877 36.0803C168.877 36.0803 171.199 37.2538 172.952 35.7749C174.172 36.5068 175.88 36.2477 176.642 34.9898C176.642 34.9898 177.236 35.2108 177.838 35.2489C177.838 35.2489 178.303 34.5536 178.705 34.1574Z" fill="#CE5C1F"/>
<path d="M173.188 45.9418C174.356 45.9418 175.302 44.8604 175.302 43.5265C175.302 42.1927 174.356 41.1113 173.188 41.1113C172.021 41.1113 171.075 42.1927 171.075 43.5265C171.075 44.8604 172.021 45.9418 173.188 45.9418Z" fill="#65471B"/>
<path d="M171.237 39.6074C171.237 40.3262 170.8 40.9087 170.261 40.9087C169.722 40.9087 169.285 40.3262 169.285 39.6074C169.285 38.8887 169.722 38.3062 170.261 38.3062C170.8 38.3062 171.237 38.8887 171.237 39.6074ZM177.092 39.607C177.092 40.3257 176.655 40.9082 176.116 40.9082C175.577 40.9082 175.14 40.3257 175.14 39.607C175.14 38.8887 175.577 38.3057 176.116 38.3057C176.655 38.3062 177.092 38.8887 177.092 39.607Z" fill="#65471B"/>
<path d="M179.592 31.3718C179.475 31.3718 179.364 31.3937 179.258 31.4249C178.922 31.0127 178.417 30.7438 177.844 30.7438C177.801 30.7438 177.761 30.7536 177.719 30.7565C177.361 30.353 176.844 30.0934 176.262 30.0934C175.527 30.0934 174.896 30.5028 174.561 31.1015C174.392 30.7121 174.005 30.4393 173.554 30.4393C173.203 30.4393 172.896 30.6062 172.694 30.8614C172.447 30.1442 171.773 29.626 170.972 29.626C170.327 29.626 169.762 29.9622 169.436 30.4667C169.346 30.4525 169.257 30.4384 169.163 30.4384C168.464 30.4384 167.865 30.8346 167.556 31.4103C167.457 31.3918 167.356 31.3796 167.252 31.3796C166.342 31.3796 165.605 32.1168 165.605 33.0263C165.605 33.9358 166.342 34.673 167.252 34.673C167.539 34.673 167.806 34.5955 168.039 34.4657C168.223 34.6033 168.448 34.6882 168.695 34.6882C168.766 34.6882 168.835 34.6804 168.901 34.6672C169.319 35.34 170.056 35.7909 170.906 35.7909C171.74 35.7909 172.471 35.3591 172.894 34.7092C173.245 35.1395 173.773 35.4201 174.371 35.4201C175.257 35.4201 175.995 34.816 176.214 33.9997C176.23 34.0002 176.246 34.0046 176.262 34.0046C176.4 34.0046 176.535 33.9895 176.665 33.9621C176.984 34.2334 177.393 34.4032 177.845 34.4032C178.417 34.4032 178.923 34.1344 179.258 33.7221C179.365 33.7533 179.476 33.7753 179.593 33.7753C180.256 33.7753 180.795 33.2371 180.795 32.5735C180.795 31.9099 180.256 31.3718 179.592 31.3718Z" fill="#CCD6DD"/>
<path d="M177.968 33.4028C178.539 33.4028 179.002 32.9394 179.002 32.3679C179.002 31.7963 178.539 31.333 177.968 31.333C177.396 31.333 176.933 31.7963 176.933 32.3679C176.933 32.9394 177.396 33.4028 177.968 33.4028Z" fill="#E1E8ED"/>
<path d="M174.104 32.4339C174.104 31.8518 173.632 31.3795 173.05 31.3795C172.87 31.3795 172.703 31.4288 172.556 31.5078C172.433 31.2146 172.144 31.0082 171.806 31.0082C171.529 31.0082 171.285 31.1473 171.138 31.3585C170.811 31.0545 170.377 30.8643 169.895 30.8643C169.039 30.8643 168.326 31.4546 168.126 32.249C167.948 32.0699 167.702 31.9587 167.429 31.9587C166.887 31.9587 166.447 32.3983 166.447 32.9404C166.447 33.4825 166.887 33.9221 167.429 33.9221C167.772 33.9221 168.073 33.7459 168.248 33.4795C168.5 34.007 168.994 34.3934 169.589 34.4939C169.78 34.8208 170.13 35.0428 170.535 35.0428C171.059 35.0428 171.496 34.6749 171.605 34.1841C171.763 34.2719 171.942 34.3266 172.135 34.3266C172.658 34.3266 173.093 33.9611 173.204 33.4727C173.712 33.3971 174.104 32.9633 174.104 32.4339Z" fill="#E1E8ED"/>
</g>
</g>
<g opacity="0.4">
<g clip-path="url(#clip4_10117_29999)">
<path d="M221.492 38.3363C221.492 43.1868 217.56 47.1189 212.71 47.1189C207.86 47.1189 203.927 43.1868 203.927 38.3363C203.927 33.4864 207.86 29.5537 212.71 29.5537C217.56 29.5537 221.492 33.4864 221.492 38.3363Z" fill="#FFCC4D"/>
<path d="M216.362 44.1325C216.34 44.0452 215.792 41.9959 212.71 41.9959C209.627 41.9959 209.08 44.0452 209.058 44.1325C209.031 44.2384 209.079 44.3482 209.174 44.4028C209.269 44.456 209.388 44.4413 209.466 44.3652C209.476 44.356 210.42 43.4596 212.71 43.4596C215 43.4596 215.945 44.356 215.954 44.3647C216.001 44.4111 216.063 44.4355 216.126 44.4355C216.166 44.4355 216.208 44.4252 216.246 44.4043C216.341 44.3496 216.389 44.2389 216.362 44.1325ZM211.591 37.9915C210.003 36.4033 207.451 36.3848 207.343 36.3848C207.074 36.3848 206.855 36.6029 206.855 36.8717C206.855 37.141 207.073 37.3596 207.342 37.3606C207.357 37.3606 208.282 37.3713 209.286 37.7202C208.996 38.0325 208.807 38.5175 208.807 39.0683C208.807 40.012 209.353 40.7761 210.026 40.7761C210.7 40.7761 211.246 40.012 211.246 39.0683C211.246 38.9834 211.237 38.9024 211.228 38.821C211.235 38.821 211.24 38.8244 211.246 38.8244C211.371 38.8244 211.496 38.7766 211.591 38.6814C211.782 38.4906 211.782 38.1823 211.591 37.9915ZM218.077 36.3848C217.969 36.3848 215.418 36.4033 213.829 37.9915C213.638 38.1823 213.638 38.4906 213.829 38.6814C213.924 38.7766 214.049 38.8244 214.174 38.8244C214.18 38.8244 214.186 38.821 214.191 38.821C214.184 38.9024 214.174 38.9834 214.174 39.0683C214.174 40.012 214.72 40.7761 215.394 40.7761C216.067 40.7761 216.613 40.012 216.613 39.0683C216.613 38.5175 216.424 38.0325 216.134 37.7202C217.138 37.3713 218.064 37.3606 218.078 37.3606C218.347 37.3596 218.565 37.141 218.565 36.8717C218.564 36.6029 218.347 36.3848 218.077 36.3848Z" fill="#664500"/>
</g>
</g>
</g>
<defs>
<filter id="filter0_dd_10117_29999" x="0.666504" y="0.378906" width="266" height="107.913" filterUnits="userSpaceOnUse" color-interpolation-filters="sRGB">
<feFlood flood-opacity="0" result="BackgroundImageFix"/>
<feColorMatrix in="SourceAlpha" type="matrix" values="0 0 0 0 0 0 0 0 0 0 0 0 0 0 0 0 0 0 127 0" result="hardAlpha"/>
<feOffset dy="16"/>
<feGaussianBlur stdDeviation="16"/>
<feColorMatrix type="matrix" values="0 0 0 0 0 0 0 0 0 0 0 0 0 0 0 0 0 0 0.16 0"/>
<feBlend mode="normal" in2="BackgroundImageFix" result="effect1_dropShadow_10117_29999"/>
<feColorMatrix in="SourceAlpha" type="matrix" values="0 0 0 0 0 0 0 0 0 0 0 0 0 0 0 0 0 0 127 0" result="hardAlpha"/>
<feOffset dy="4"/>
<feGaussianBlur stdDeviation="4"/>
<feColorMatrix type="matrix" values="0 0 0 0 0 0 0 0 0 0 0 0 0 0 0 0 0 0 0.1 0"/>
<feBlend mode="normal" in2="effect1_dropShadow_10117_29999" result="effect2_dropShadow_10117_29999"/>
<feBlend mode="normal" in="SourceGraphic" in2="effect2_dropShadow_10117_29999" result="shape"/>
</filter>
<clipPath id="clip0_10117_29999">
<rect width="17.5652" height="17.5652" fill="white" transform="translate(45.8403 29.5537)"/>
</clipPath>
<clipPath id="clip1_10117_29999">
<rect width="17.5652" height="17.5652" fill="white" transform="translate(85.3623 29.5537)"/>
</clipPath>
<clipPath id="clip2_10117_29999">
<rect width="17.5652" height="17.5652" fill="white" transform="translate(124.884 29.5537)"/>
</clipPath>
<clipPath id="clip3_10117_29999">
<rect width="17.5652" height="17.5652" fill="white" transform="translate(164.406 29.5537)"/>
</clipPath>
<clipPath id="clip4_10117_29999">
<rect width="17.5652" height="17.5652" fill="white" transform="translate(203.927 29.5537)"/>
</clipPath>
</defs>
</svg>
