<svg width="23" height="16" viewBox="0 0 23 16" fill="none" xmlns="http://www.w3.org/2000/svg">
<path d="M9.75247 2C13.0662 2 15.7525 4.68629 15.7525 8C15.7525 11.3137 13.0662 14 9.75247 14V16C13.8321 16 17.1985 12.9463 17.6906 9H22.7525V7H17.6906C17.1985 3.05369 13.8321 0 9.75247 0V2Z" fill="#5C6475"/>
<path fill-rule="evenodd" clip-rule="evenodd" d="M9.75247 12C7.88863 12 6.32253 10.7252 5.87849 9H0.752472V7H5.87849C6.32253 5.27477 7.88863 4 9.75247 4C11.9616 4 13.7525 5.79086 13.7525 8C13.7525 10.2091 11.9616 12 9.75247 12ZM9.75247 10C10.857 10 11.7525 9.10457 11.7525 8C11.7525 6.89543 10.857 6 9.75247 6C8.6479 6 7.75247 6.89543 7.75247 8C7.75247 9.10457 8.6479 10 9.75247 10Z" fill="#5C6475"/>
</svg>
