<svg width="162" height="72" viewBox="0 0 162 72" fill="none" xmlns="http://www.w3.org/2000/svg">
<rect x="12" y="12.0078" width="138" height="48" rx="8" fill="#272D33"/>
<path fill-rule="evenodd" clip-rule="evenodd" d="M37.9512 38.5452L44.2473 31.3496L45.7524 32.6666L38.0486 41.471L34.2928 37.7152L35.707 36.301L37.9512 38.5452Z" fill="#F4F6F8"/>
<path d="M57.343 42.0078V30.3714H64.7976V32.1385H59.451V35.2976H64.2862V37.0646H59.451V42.0078H57.343ZM69.7933 42.1783C68.9411 42.1783 68.2024 41.9908 67.5774 41.6158C66.9524 41.2408 66.4676 40.7161 66.1229 40.0419C65.782 39.3677 65.6115 38.5798 65.6115 37.6783C65.6115 36.7768 65.782 35.987 66.1229 35.3089C66.4676 34.6309 66.9524 34.1044 67.5774 33.7294C68.2024 33.3544 68.9411 33.1669 69.7933 33.1669C70.6456 33.1669 71.3842 33.3544 72.0092 33.7294C72.6342 34.1044 73.1172 34.6309 73.4581 35.3089C73.8028 35.987 73.9751 36.7768 73.9751 37.6783C73.9751 38.5798 73.8028 39.3677 73.4581 40.0419C73.1172 40.7161 72.6342 41.2408 72.0092 41.6158C71.3842 41.9908 70.6456 42.1783 69.7933 42.1783ZM69.8047 40.5305C70.2668 40.5305 70.6532 40.4036 70.9638 40.1499C71.2744 39.8923 71.5054 39.5476 71.657 39.1158C71.8123 38.6839 71.8899 38.2029 71.8899 37.6726C71.8899 37.1385 71.8123 36.6555 71.657 36.2237C71.5054 35.7881 71.2744 35.4415 70.9638 35.1839C70.6532 34.9264 70.2668 34.7976 69.8047 34.7976C69.3312 34.7976 68.9373 34.9264 68.6229 35.1839C68.3123 35.4415 68.0793 35.7881 67.924 36.2237C67.7725 36.6555 67.6967 37.1385 67.6967 37.6726C67.6967 38.2029 67.7725 38.6839 67.924 39.1158C68.0793 39.5476 68.3123 39.8923 68.6229 40.1499C68.9373 40.4036 69.3312 40.5305 69.8047 40.5305ZM77.7777 30.3714V42.0078H75.7209V30.3714H77.7777ZM81.9496 30.3714V42.0078H79.8928V30.3714H81.9496ZM87.8714 42.1783C87.0192 42.1783 86.2805 41.9908 85.6555 41.6158C85.0305 41.2408 84.5457 40.7161 84.201 40.0419C83.8601 39.3677 83.6896 38.5798 83.6896 37.6783C83.6896 36.7768 83.8601 35.987 84.201 35.3089C84.5457 34.6309 85.0305 34.1044 85.6555 33.7294C86.2805 33.3544 87.0192 33.1669 87.8714 33.1669C88.7237 33.1669 89.4624 33.3544 90.0874 33.7294C90.7124 34.1044 91.1953 34.6309 91.5362 35.3089C91.8809 35.987 92.0533 36.7768 92.0533 37.6783C92.0533 38.5798 91.8809 39.3677 91.5362 40.0419C91.1953 40.7161 90.7124 41.2408 90.0874 41.6158C89.4624 41.9908 88.7237 42.1783 87.8714 42.1783ZM87.8828 40.5305C88.3449 40.5305 88.7313 40.4036 89.0419 40.1499C89.3525 39.8923 89.5836 39.5476 89.7351 39.1158C89.8904 38.6839 89.968 38.2029 89.968 37.6726C89.968 37.1385 89.8904 36.6555 89.7351 36.2237C89.5836 35.7881 89.3525 35.4415 89.0419 35.1839C88.7313 34.9264 88.3449 34.7976 87.8828 34.7976C87.4093 34.7976 87.0154 34.9264 86.701 35.1839C86.3904 35.4415 86.1574 35.7881 86.0021 36.2237C85.8506 36.6555 85.7749 37.1385 85.7749 37.6726C85.7749 38.2029 85.8506 38.6839 86.0021 39.1158C86.1574 39.5476 86.3904 39.8923 86.701 40.1499C87.0154 40.4036 87.4093 40.5305 87.8828 40.5305ZM95.3501 42.0078L92.8842 33.2805H94.9808L96.5149 39.4169H96.5945L98.1626 33.2805H100.237L101.805 39.3828H101.89L103.401 33.2805H105.504L103.032 42.0078H100.89L99.2536 36.1101H99.1342L97.4979 42.0078H95.3501ZM106.94 42.0078V33.2805H108.996V42.0078H106.94ZM107.974 32.0419C107.648 32.0419 107.368 31.9339 107.133 31.718C106.898 31.4983 106.781 31.2351 106.781 30.9283C106.781 30.6177 106.898 30.3544 107.133 30.1385C107.368 29.9188 107.648 29.8089 107.974 29.8089C108.303 29.8089 108.584 29.9188 108.815 30.1385C109.049 30.3544 109.167 30.6177 109.167 30.9283C109.167 31.2351 109.049 31.4983 108.815 31.718C108.584 31.9339 108.303 32.0419 107.974 32.0419ZM113.168 36.8942V42.0078H111.112V33.2805H113.077V34.7635H113.18C113.38 34.2749 113.701 33.8866 114.14 33.5987C114.583 33.3108 115.13 33.1669 115.782 33.1669C116.384 33.1669 116.909 33.2957 117.356 33.5533C117.807 33.8108 118.155 34.1839 118.401 34.6726C118.651 35.1612 118.774 35.754 118.771 36.451V42.0078H116.714V36.7692C116.714 36.1858 116.562 35.7294 116.259 35.3999C115.96 35.0703 115.545 34.9055 115.015 34.9055C114.655 34.9055 114.335 34.9851 114.055 35.1442C113.778 35.2995 113.56 35.5249 113.401 35.8203C113.246 36.1158 113.168 36.4737 113.168 36.8942ZM124.657 45.4624C123.918 45.4624 123.284 45.362 122.754 45.1612C122.223 44.9643 121.797 44.6991 121.475 44.3658C121.153 44.0324 120.93 43.6631 120.805 43.2578L122.657 42.8089C122.74 42.9794 122.862 43.148 123.021 43.3146C123.18 43.4851 123.394 43.6252 123.663 43.7351C123.935 43.8487 124.278 43.9055 124.691 43.9055C125.274 43.9055 125.757 43.7635 126.14 43.4794C126.522 43.1991 126.714 42.737 126.714 42.093V40.4396H126.612C126.505 40.6518 126.35 40.8696 126.146 41.093C125.945 41.3165 125.678 41.504 125.344 41.6555C125.015 41.8071 124.6 41.8828 124.1 41.8828C123.43 41.8828 122.822 41.7256 122.276 41.4112C121.735 41.093 121.303 40.6196 120.981 39.9908C120.663 39.3582 120.504 38.5665 120.504 37.6158C120.504 36.6574 120.663 35.8487 120.981 35.1896C121.303 34.5268 121.737 34.0249 122.282 33.6839C122.827 33.3393 123.435 33.1669 124.106 33.1669C124.617 33.1669 125.038 33.254 125.367 33.4283C125.701 33.5987 125.966 33.8052 126.163 34.0476C126.36 34.2862 126.509 34.5116 126.612 34.7237H126.725V33.2805H128.754V42.1499C128.754 42.8961 128.576 43.5135 128.219 44.0021C127.863 44.4908 127.377 44.8563 126.759 45.0987C126.142 45.3411 125.441 45.4624 124.657 45.4624ZM124.674 40.2692C125.11 40.2692 125.481 40.1631 125.788 39.951C126.094 39.7389 126.327 39.4339 126.487 39.0362C126.646 38.6385 126.725 38.1612 126.725 37.6044C126.725 37.0552 126.646 36.5741 126.487 36.1612C126.331 35.7483 126.1 35.4283 125.793 35.201C125.49 34.9699 125.117 34.8544 124.674 34.8544C124.216 34.8544 123.833 34.9737 123.526 35.2124C123.219 35.451 122.988 35.7786 122.833 36.1953C122.678 36.6082 122.6 37.0779 122.6 37.6044C122.6 38.1385 122.678 38.6063 122.833 39.0078C122.992 39.4055 123.225 39.7161 123.532 39.9396C123.843 40.1593 124.223 40.2692 124.674 40.2692Z" fill="#F4F6F8"/>
<rect x="12.5" y="12.5078" width="137" height="47" rx="7.5" stroke="#BBD9F6" stroke-opacity="0.13"/>
<rect x="4" y="4.00781" width="154" height="64" rx="16" stroke="#BCD5FA" stroke-opacity="0.08" stroke-width="8"/>
</svg>
