<svg width="303" height="97" viewBox="0 0 303 97" fill="none" xmlns="http://www.w3.org/2000/svg">
<path d="M2 44.298L4.29771 51.1797L6.59542 45.1582L8.43359 55.9109L10.7313 52.0399L16.7053 60.212L27.7344 52.9001L31.4107 67.5238L34.1679 71.8249L36.4656 66.6636L41.9802 71.8249L45.1969 61.5023L53.4687 68.8141L55.7664 83.8679L58.0641 87.7388L62.2 82.1474L64.9573 85.1582L70.4718 78.2765L72.7695 82.1474L75.5267 76.9862L78.284 80.8571L82.4198 76.9862L87.4748 83.8679L90.2321 79.5668L102.18 88.1689L109.073 82.1474L111.831 83.8679L114.128 80.427L120.102 82.5775L126.536 79.1367L131.131 83.4378L136.186 76.1259L141.701 85.1582L151.351 73.1152L155.027 78.2765L161.461 74.4055L168.814 78.2765L185.357 75.2657L194.089 80.427L205.577 76.1259L216.147 75.2657L221.202 78.2765L233.609 70.9646L235.907 64.0829L243.26 67.9539L246.476 61.9324H250.612L251.991 35.2657L262.56 41.7173L268.075 23.2227L272.67 27.0937L274.508 8.16895L279.563 16.341L282.78 9.02916L286.456 19.3517L289.673 13.7603L294.728 22.3625L301.162 9.45927H303" stroke="#0C9846" stroke-width="4"/>
</svg>
