<svg width="375" height="160" viewBox="0 0 375 160" fill="none" xmlns="http://www.w3.org/2000/svg">
<g clip-path="url(#clip0_6035_296300)">
<path d="M183 128C183 105.908 200.908 88 223 88C245.092 88 263 105.908 263 128C263 150.092 245.092 168 223 168C200.908 168 183 150.092 183 128Z" fill="#FFE538"/>
<path d="M226.952 190.4C221.005 190.282 215.032 190.101 209.037 189.251C208.468 189.159 207.901 189.053 207.338 188.932C204.496 188.353 201.759 187.34 199.222 185.931C198.163 185.447 197.113 184.945 196.071 184.425C195.464 184.193 194.861 183.951 194.261 183.7C190.684 182.17 187.385 180.163 185.007 176.939C184.652 176.48 184.334 175.995 184.051 175.489C183.155 173.852 182.67 172.022 182.638 170.156C182.578 169.581 182.588 169 182.667 168.427C182.75 167.832 182.924 167.253 183.183 166.711C184.811 163.447 188.974 163.447 191.751 161.853C192.323 161.595 192.894 161.337 193.462 161.07C194.605 160.542 195.728 159.973 196.83 159.364C197.194 159.158 197.567 158.947 197.931 158.726C199.391 157.777 200.888 156.8 202.456 155.923C202.977 155.63 203.504 155.35 204.037 155.082C206.165 154.018 209.242 153.837 209.965 152.566C212.137 148.578 208.518 143.682 207.612 139.004C207.236 138.468 206.989 137.852 206.889 137.204C206.814 136.674 206.79 136.137 206.817 135.602V135.523L206.73 135.423C203.379 135.315 201.482 131.616 201.12 129.92C201.025 129.471 200.966 129.037 200.908 128.618C200.853 128.109 200.757 127.604 200.624 127.11C200.568 126.929 200.424 126.59 200.284 126.257C199.68 124.806 199.26 123.719 199.379 122.689C199.473 121.799 199.867 120.968 200.496 120.332C200.395 120.114 200.31 119.889 200.241 119.659C200.129 119.579 200.026 119.487 199.932 119.385C199.278 118.678 199.341 117.824 199.368 117.459V117.19C199.34 116.721 199.344 116.252 199.379 115.784C198.97 115.461 198.692 115.002 198.596 114.49L198.063 114.342V113.095C198.029 112.787 198.063 112.475 198.162 112.182C198.262 111.889 198.425 111.621 198.639 111.397C198.639 111.226 198.616 111.013 198.605 110.853C198.576 110.557 198.561 110.26 198.561 109.963V109.826C198.327 109.584 198.147 109.295 198.035 108.978C197.831 108.416 197.352 106.533 199.625 105.633C199.625 105.599 199.643 105.564 199.65 105.533C199.776 105.035 199.987 104.199 200.777 103.659C201.195 103.38 201.689 103.236 202.191 103.249C202.372 103.249 202.537 103.263 202.669 103.274C202.857 103.158 203.038 103.032 203.211 102.895C203.338 102.29 203.724 101.65 204.66 101.2C204.866 100.895 205.124 100.629 205.423 100.413C205.526 100.339 205.576 100.304 205.641 100.05C205.602 99.9031 205.572 99.7544 205.551 99.6043C205.344 98.0643 206.141 97.2654 206.634 96.9022C206.975 96.6621 207.375 96.5175 207.791 96.4833C207.907 96.3759 208.034 96.2811 208.167 96.199C208.841 95.7906 209.575 95.7906 209.977 95.7906H210.45C210.698 95.7211 210.94 95.6327 211.175 95.5275C211.639 95.319 212.124 95.159 212.622 95.0506C213.047 94.9705 213.48 94.9325 213.912 94.9369C214.325 94.9369 214.714 94.9643 215.09 94.9896C215.406 95.0106 215.702 95.0327 215.97 95.0327C216.046 95.0327 216.095 95.0148 216.408 94.8285C216.848 94.5443 217.33 94.3327 217.838 94.2011C218.364 94.0712 218.904 94.004 219.446 94.0011C219.961 93.9969 220.472 94.0717 220.964 94.2222C221.238 94.3138 221.501 94.4306 221.754 94.5696C222.207 94.3254 222.712 94.1927 223.228 94.1822C223.491 94.1822 223.755 94.2222 224.007 94.3001C224.266 94.3811 224.51 94.5043 224.73 94.6633C225.011 94.659 225.291 94.6896 225.565 94.7538C225.854 94.8306 226.136 94.9327 226.407 95.0569L226.491 95.0927C226.844 94.8611 227.256 94.7348 227.678 94.7296C228.503 94.7296 229.064 95.2285 229.351 95.498C229.588 95.4959 229.825 95.5201 230.055 95.5727L230.12 95.5896C230.815 95.7506 231.535 95.9517 232.032 96.5401C232.138 96.6611 232.228 96.7927 232.304 96.9348C233.192 97.0306 234.149 97.6243 234.37 99.0306C234.642 99.0021 234.915 98.9866 235.188 98.9843C235.747 98.9603 236.301 99.1032 236.779 99.3948C238.034 100.226 237.865 101.572 237.808 102.024C238.256 102.021 238.692 102.154 239.061 102.405C240.196 103.213 240.087 104.21 239.987 104.599C239.916 104.903 239.769 105.185 239.559 105.416C239.683 105.577 239.787 105.753 239.87 105.938C240.044 106.369 240.137 106.827 240.144 107.292C240.144 107.336 240.144 107.392 240.152 107.441C240.479 107.531 240.779 107.698 241.025 107.93C241.272 108.162 241.458 108.45 241.568 108.771C241.662 109.038 241.701 109.322 241.684 109.605V109.642C241.686 109.958 241.619 110.27 241.489 110.557C241.358 110.845 241.167 111.1 240.928 111.306L240.961 111.35C241.796 112.461 241.714 113.39 241.504 113.976C241.313 114.483 240.955 114.91 240.487 115.185C240.487 115.73 240.498 116.273 240.502 116.817C240.831 116.996 241.129 117.23 241.381 117.507C242.571 118.82 242.43 120.736 242.378 121.455V121.513C242.39 121.864 242.381 122.216 242.347 122.565C242.331 122.736 242.322 122.907 242.32 123.078C242.33 124.094 241.295 127.45 241.021 128.032C240.529 128.98 239.986 129.901 239.392 130.79C239.382 130.806 238.555 131.932 237.458 132.491V135.42C237.456 135.455 237.456 135.49 237.458 135.524C237.483 135.95 237.422 136.377 237.277 136.777C237.403 137.051 237.468 137.349 237.47 137.651C237.307 138.062 237.126 138.425 237.126 138.787C237.307 139.785 237.511 140.737 237.715 141.667C237.816 142.131 237.919 142.591 238.017 143.045C238.739 145.497 238.377 148.579 240.548 150.211C240.91 150.574 241.997 150.211 242.72 150.574C243.172 150.785 243.616 151.016 244.067 151.254C245.131 151.858 246.214 152.412 247.311 152.917C247.86 153.17 248.412 153.412 248.967 153.641C250.166 154.134 251.389 154.563 252.634 154.925C253.837 155.143 255.045 155.374 256.252 155.652C256.856 155.782 257.454 155.925 258.046 156.08C261.767 156.743 266.008 158.358 268.945 160.996C269.431 161.432 269.884 161.901 270.303 162.401C272.579 164.717 273.484 168.343 273.122 171.607C272.76 175.415 269.865 178.316 266.638 180.287C266.113 180.612 265.569 180.904 265.009 181.164C263.865 181.694 262.665 182.091 261.431 182.349C261.07 182.542 260.708 182.735 260.364 182.917C258.228 184.049 256.006 185.01 253.719 185.792C248.762 187.393 240.706 189.995 229.577 190.358C228.721 190.386 227.846 190.401 226.952 190.401V190.4Z" fill="black"/>
<path d="M240.074 153.523C238.497 152.979 236.477 152.376 235.998 150.352C235.829 149.954 235.69 149.544 235.581 149.126C235.364 148.295 235.234 147.445 235.191 146.588C235.15 145.778 235.515 144.981 235.355 144.177C235.332 143.962 235.256 143.755 235.134 143.576C234.818 143.779 234.801 144.194 234.625 144.53C234.34 145.073 233.72 145.295 233.402 145.835C233.125 146.315 233.1 146.899 232.586 147.22C231.94 147.622 231.12 147.503 230.457 147.962C229.47 148.641 228.688 149.557 227.671 150.203C227.179 150.515 226.661 150.783 226.122 151.003C221.135 153.393 216.893 147.922 215.886 143.481C215.886 143.886 215.481 144.493 215.281 144.29C214.07 144.09 214.675 141.459 212.951 142.566C212.733 143.049 212.636 143.578 212.671 144.107C212.801 146.482 213.033 148.769 213.107 151.117C213.122 151.587 213.13 152.058 213.13 152.533C213.261 153.596 213.06 154.809 212.253 155.615C210.031 157.84 204.58 159.257 206.397 162.687C208.82 167.137 214.675 167.542 218.713 170.777C219.318 171.386 219.721 172.194 220.287 172.912C220.684 173.48 221.117 174.021 221.582 174.535C222.487 175.497 223.49 176.167 224.768 176.24C225.419 176.272 226.07 176.19 226.693 175.998C227.313 175.803 227.905 175.528 228.453 175.178C229.049 174.82 229.632 174.44 230.201 174.039C230.765 173.639 231.313 173.22 231.846 172.771C232.299 172.37 232.751 171.961 233.193 171.547C233.605 171.147 234.028 170.768 234.459 170.392C234.89 170.016 235.315 169.65 235.743 169.281C238.501 166.731 241.935 164.709 243.751 161.068C244.962 158.64 244.356 155.403 241.922 154.046C241.316 153.882 240.69 153.746 240.075 153.523H240.074Z" fill="#C4C3C6"/>
<path d="M236.069 130.929C235.657 130.877 235.672 131.147 235.672 131.434C235.672 132.747 235.684 134.06 235.672 135.373C235.672 135.719 235.744 136.053 235.427 136.393C235.246 136.59 235.047 137.119 235.57 137.404C235.686 137.468 235.729 137.686 235.613 137.747C235.086 138.02 235.296 138.504 235.284 138.891C235.242 140.406 235.244 141.92 235.23 143.436C235.036 143.67 234.929 143.963 234.925 144.267C234.899 144.574 234.848 144.911 234.619 145.106C233.885 145.719 233.31 146.374 233.135 147.388C233.059 147.827 232.479 147.784 232.082 147.769C231.582 147.752 231.272 147.843 230.833 148.259C230.056 148.993 229.217 149.634 228.62 150.553C228.406 150.88 227.946 150.79 227.581 150.823C226.707 150.899 225.836 150.994 225.295 151.833C225.265 151.894 225.218 151.946 225.161 151.981C225.103 152.017 225.036 152.036 224.968 152.036C223.435 151.892 221.968 152.538 220.463 152.465C219.197 152.404 218.147 151.499 217.001 151.076C215.527 150.532 214.487 149.777 213.85 148.307C213.354 147.152 212.8 146.023 212.192 144.924C211.578 143.827 211.218 142.636 210.628 141.539C210.312 140.949 209.854 140.431 209.605 139.805C209.379 139.237 209.482 138.487 209.114 137.992C208.438 137.086 208.636 136.024 208.614 135.003C208.614 134.725 208.714 134.362 208.235 134.359C207.954 134.148 207.892 133.769 207.624 133.551C207.157 133.036 207.262 132.339 207.119 131.739C206.875 130.773 206.525 129.814 206.52 128.796V128.003C206.536 127.736 206.505 127.468 206.429 127.211C206.299 126.874 206.169 126.574 205.717 126.87C205.355 127.104 204.935 127.112 204.836 126.642C204.736 126.17 204.139 125.652 204.77 125.104C205.494 124.469 205.494 124.116 204.796 123.418C204.097 122.72 203.418 121.891 202.367 121.618C202.334 121.316 202.334 121.012 202.367 120.71C202.547 119.868 201.673 119.244 201.93 118.397C201.933 118.36 201.924 118.323 201.904 118.293C201.885 118.262 201.855 118.238 201.821 118.225C201.798 118.216 201.774 118.213 201.749 118.214C200.921 118.316 201.162 117.709 201.147 117.292C201.107 116.789 201.107 116.282 201.147 115.779C201.225 115.169 201.055 114.672 200.556 114.381C200.164 114.153 200.375 113.857 200.333 113.591C200.312 113.458 200.36 113.27 200.301 113.144C200.24 113.018 199.824 112.898 199.824 112.898C199.736 112.491 200.201 112.473 200.324 112.054C200.505 111.447 200.314 110.562 200.324 109.93C200.324 109.688 200.448 109.147 200.324 108.928C200.132 108.565 199.828 108.682 199.687 108.296C199.301 107.229 200.338 107.389 200.866 106.936C201.439 106.451 201.285 105.403 201.756 105.081C202.086 104.853 202.765 105.147 203.17 104.966C203.576 104.785 204.98 103.892 204.932 103.416C204.875 102.763 205.514 102.85 205.883 102.461C206.125 102.212 206.158 102.027 206.487 101.798C207.096 101.354 207.307 100.853 207.454 100.14C207.534 99.7534 207.408 99.7082 207.343 99.2555C207.289 98.8766 207.316 98.5419 207.662 98.3008C207.954 98.0976 208.214 98.2682 208.498 98.1797C208.903 98.0534 208.838 97.8166 209.098 97.6608C209.515 97.4071 210.266 97.5829 210.8 97.4713C211.549 97.3103 212.219 96.8755 212.972 96.7303C213.945 96.5492 214.993 96.7429 215.976 96.7471C216.993 96.7471 217.397 96.0734 218.277 95.8629C218.985 95.6913 219.774 95.6408 220.448 95.8513C220.838 95.9745 221.248 96.2987 221.643 96.3555C222.337 96.4534 222.822 95.7134 223.506 95.925C223.738 95.9966 223.905 96.2355 224.162 96.3176C224.469 96.4155 224.843 96.3282 225.162 96.4082C225.782 96.564 226.236 97.0008 226.917 96.7903C227.737 96.5366 227.574 96.1471 228.198 96.7355C228.395 96.9176 228.263 97.0282 228.56 97.1608C228.809 97.2713 229.373 97.1471 229.682 97.2219C229.937 97.284 230.541 97.4029 230.714 97.6082C230.885 97.8134 230.7 98.0955 230.85 98.304C231.503 99.2113 232.569 97.9019 232.661 99.3924C232.718 100.356 232.65 100.719 233.699 100.787C234.189 100.819 235.45 100.539 235.842 100.798C236.341 101.128 235.966 101.749 236.061 102.263C236.189 102.761 236.345 103.251 236.529 103.731C236.892 104.076 237.735 103.563 238.062 103.797C238.786 104.312 237.539 104.16 237.367 104.341C236.962 104.751 237.333 105.8 237.63 106.092C237.858 106.316 238.102 106.233 238.27 106.608C238.42 106.945 238.354 107.528 238.452 107.907C238.546 108.258 238.618 108.77 238.945 108.996C239.273 109.22 239.949 108.901 239.924 109.456C239.912 109.704 239.924 109.919 239.574 109.922C239.054 109.922 238.779 110.296 238.729 110.74C238.687 111.117 238.527 111.578 239.066 111.869C239.255 112.017 239.421 112.19 239.561 112.385C240.058 113.046 239.995 113.55 239.199 113.729C238.825 113.813 238.696 113.88 238.704 114.273C238.736 115.586 238.734 116.899 238.744 118.211C237.839 118.664 237.445 119.503 237.055 120.366C236.736 121.069 236.817 121.636 237.543 121.96C238.328 122.322 238.628 122.913 238.59 123.731C238.57 124.213 238.772 124.638 238.884 125.102C239.025 125.688 238.923 126.19 238.234 126.351C237.91 126.442 237.617 126.619 237.387 126.865C237.295 126.965 237.173 127.033 237.039 127.058C236.906 127.083 236.767 127.064 236.645 127.004C236.318 126.853 236.379 126.574 236.464 126.311C236.686 125.62 236.647 124.871 236.356 124.206C236.339 126.092 236.396 128.101 236.356 130.111C236.364 130.26 236.343 130.409 236.294 130.549C236.245 130.689 236.169 130.819 236.069 130.929Z" fill="black"/>
<path d="M204.081 122.498C204.419 122.936 204.923 123.211 205.246 123.659C205.843 124.49 205.662 125.038 204.779 125.483C205.287 126.374 204.882 127.273 206.179 126.189C206.965 127.057 206.688 128.798 206.916 129.907C207.153 131.047 207.919 132.334 207.537 133.511C204.58 134.171 203.04 130.334 202.868 129.511C202.662 128.525 202.627 127.496 202.325 126.53C202.061 125.674 201.042 123.761 201.146 122.843C201.239 122.02 202.159 120.012 204.081 122.498ZM236.155 130.881L236.137 130.86C235.878 130.55 236.077 129.634 236.093 129.265C236.133 128.439 236.073 127.606 236.043 126.779C236.013 125.994 235.995 125.208 235.99 124.422C235.99 124.105 235.896 123.436 236.115 123.173C236.477 122.731 236.536 123.566 236.591 123.804C236.772 124.578 237.291 125.436 236.889 126.249C236.783 126.462 236.431 126.647 236.742 126.832C237.103 127.05 237.136 126.621 237.226 126.432C237.513 125.833 238.391 126.366 238.626 125.815C238.766 125.491 238.424 125.046 238.352 124.738C238.29 124.331 238.258 123.92 238.258 123.509C238.195 122.62 237.855 122.445 237.101 122.13C236.196 121.744 236.466 120.872 236.776 120.154C237.043 119.531 237.259 118.785 237.872 118.417C238.151 118.249 238.467 118.152 238.791 118.134C241.121 118.185 240.576 121.176 240.602 121.485C240.639 122.005 240.539 122.524 240.545 123.043C240.545 123.606 239.677 126.654 239.413 127.213C239.136 127.81 238.147 129.423 237.966 129.679C237.717 130.026 236.503 131.256 236.156 130.881H236.155Z" fill="#C4C3C6"/>
<path d="M239.936 121.017C239.906 121.82 239.879 122.625 239.842 123.431C239.842 123.594 239.873 123.841 239.662 123.86C239.259 123.897 239.42 123.439 239.356 123.283C239.261 123.093 239.214 122.882 239.219 122.669C239.332 121.414 239.672 120.432 238.516 120.528C238.089 120.562 237.696 120.496 237.751 119.893C237.805 119.291 238.293 119.403 238.656 119.395H238.836C239.101 119.397 239.354 119.501 239.543 119.685C239.732 119.87 239.842 120.12 239.85 120.384C239.85 120.598 239.879 120.812 239.936 121.017Z" fill="black"/>
<path d="M215.385 122.71C215.393 122.732 215.396 122.756 215.392 122.78C215.388 122.803 215.379 122.825 215.364 122.843C215.261 123.009 214.763 122.961 214.606 122.968C213.701 123.017 212.775 123.253 211.89 123.446C211.25 123.586 210.624 123.844 210.345 124.48C210.268 124.662 210.236 124.854 210.148 125.024C210.062 125.195 209.889 125.322 209.922 125.499C209.972 125.777 210.349 125.787 210.563 125.767C210.885 125.715 211.195 125.594 211.468 125.414C211.868 125.191 212.303 125.04 212.755 124.966C213.708 124.829 214.675 124.785 215.637 124.836C216.031 124.848 216.512 124.973 216.904 124.879C217.255 124.796 217.32 124.475 217.584 124.288C217.997 123.996 218.639 124.434 219.05 124.04C219.249 123.847 219.206 123.516 219.05 123.303C218.847 123.016 218.447 123.022 218.168 122.845C217.833 122.629 217.74 122.248 217.597 121.902C217.527 121.711 217.421 121.536 217.284 121.386C217.146 121.237 216.98 121.116 216.796 121.031C216.021 120.678 215.002 120.705 214.175 120.798C213.269 120.899 212.483 121.322 211.612 121.548C210.772 121.767 210.025 121.955 209.3 122.455C208.947 122.702 207.87 123.973 207.605 123.129C207.222 121.813 206.933 120.471 206.741 119.114C206.636 118.474 206.543 117.806 206.66 117.16C206.71 116.844 206.827 116.541 207.002 116.271C207.182 115.995 207.507 115.8 207.606 115.468C207.75 114.988 207.406 114.479 207.441 113.99C207.456 113.79 207.484 113.446 207.69 113.35C208.002 113.193 208.164 113.533 208.205 113.779C208.386 114.831 208.896 113.844 209.403 113.661C209.765 113.53 210.11 113.535 210.436 113.307C210.762 113.081 210.979 112.778 211.245 112.518C211.511 112.259 211.833 112.09 212.224 112.23C212.557 112.348 212.801 112.467 213.143 112.291C213.721 111.993 214.08 111.287 214.513 110.821C214.671 110.65 214.985 110.027 215.253 110.036C215.485 110.036 215.38 110.317 215.321 110.469C215.198 110.785 215.085 111.126 214.942 111.43C214.799 111.736 214.45 111.957 214.318 112.288C214.212 112.551 214.258 112.92 214.609 112.796C214.902 112.693 215.037 112.333 215.302 112.183C215.483 112.076 215.822 112.058 215.898 112.311C215.956 112.493 215.778 112.743 215.698 112.898C215.566 113.149 215.359 113.803 215.912 113.608C216.157 113.524 216.497 112.957 216.776 113.064C216.978 113.142 216.882 113.51 217.052 113.588C217.287 113.694 217.513 112.911 217.584 112.753C217.876 112.079 218.223 111.287 218.786 110.798C219.088 110.533 219.509 110.435 219.761 110.105C220.037 109.742 220.123 109.601 220.576 109.483C220.966 109.38 221.023 109.184 221.247 108.89C221.5 108.56 221.789 108.733 222.138 108.663C222.556 108.582 222.586 108.137 222.729 107.807C222.913 107.45 223.205 107.16 223.565 106.981C224.785 106.276 226.28 106.042 227.473 106.896C228.724 107.786 229.389 109.277 230.421 110.379C230.882 110.87 231.404 111.303 231.831 111.829C232.266 112.406 232.591 113.058 232.792 113.751C233.091 114.658 233.353 115.636 233.277 116.589C233.245 117.002 233.135 117.403 233.097 117.817C233.076 118.065 233.097 118.462 232.812 118.577C232.631 118.649 232.253 118.475 232.136 118.682C231.983 118.951 232.438 118.954 232.581 118.979C232.858 119.028 233.17 119.262 232.861 119.523C232.617 119.734 232.187 119.644 231.899 119.616C231.257 119.566 230.611 119.615 229.983 119.759C229.327 119.895 228.663 120.096 227.991 120C227.64 119.949 227.325 119.777 226.978 119.719C226.422 119.624 225.881 119.9 225.336 119.965C224.899 120.001 224.467 120.07 224.043 120.178C223.576 120.303 223.102 120.317 222.632 120.419C222.494 120.439 222.367 120.509 222.277 120.616C222.188 120.724 222.141 120.861 222.146 121.001C222.115 121.341 222.279 121.817 222.009 122.098C221.875 122.238 221.235 122.206 221.24 122.445C221.24 122.59 221.663 122.668 221.743 122.835C221.875 123.115 221.761 123.494 221.838 123.795C221.897 124.035 221.989 124.263 222.067 124.497C222.105 124.613 222.158 125.041 222.266 125.099C222.51 125.233 222.538 124.627 222.584 124.493C222.931 123.508 223.388 124.976 223.636 125.139C223.884 125.302 224.179 125.089 224.419 125.002C224.718 124.894 225.087 124.821 225.177 124.473C225.268 124.125 225.069 123.747 225.438 123.536C225.757 123.355 226.283 123.445 226.628 123.443C227.637 123.443 228.643 123.494 229.649 123.498C230.604 123.498 231.544 123.355 232.496 123.316C232.767 123.307 233.106 123.3 233.317 123.498C233.449 123.621 233.472 124.105 233.641 124.129C234.081 124.19 233.749 122.788 233.822 122.542C233.895 122.296 234.144 122.108 234.378 122.296C234.559 122.443 234.559 122.769 234.573 122.982C234.616 123.43 234.709 123.873 234.727 124.322C234.745 124.773 234.727 125.2 234.184 125.185C233.822 125.175 233.877 125.305 234.003 125.617C234.164 125.98 234.245 126.373 234.24 126.768C234.261 127.615 234.165 128.46 233.956 129.28C233.696 130.186 233.172 130.678 232.622 131.387C232.204 131.93 231.552 132.736 230.785 132.447C230.147 132.208 229.761 131.496 229.084 131.345C228.361 131.185 227.715 131.78 226.995 131.754C226.753 131.743 226.517 131.694 226.27 131.699C226.101 131.699 225.88 131.773 225.727 131.654C225.53 131.494 225.688 131.144 225.407 131.061C225.168 130.989 224.818 131.229 224.593 131.293C224.231 131.4 223.857 131.429 223.507 131.584C222.724 131.921 222.041 132.439 221.175 132.562C220.308 132.685 219.546 132.38 218.721 132.138C218.419 132.05 217.997 131.956 217.772 132.251C217.548 132.547 217.73 132.978 217.272 133.124C216.877 133.255 216.378 133.167 215.965 133.185C215.506 133.196 215.053 133.277 214.62 133.427C213.822 133.717 213.251 134.268 212.639 134.828C212.327 135.111 212.032 135.233 211.618 135.107C211.219 134.988 210.828 134.842 210.449 134.67C209.712 134.329 209.411 133.363 209.109 132.676C208.886 132.206 208.698 131.722 208.545 131.225C208.412 130.754 208.402 130.259 208.264 129.791C207.982 128.839 207.26 128.114 207.237 127.071C207.226 126.61 207.376 126.165 207.456 125.717C207.548 125.19 207.383 123.473 208.328 123.865C208.663 124.005 208.912 124.284 209.301 124.248C209.69 124.211 209.955 123.913 210.227 123.671C210.905 123.069 211.782 122.81 212.666 122.702C213.389 122.61 214.186 122.477 214.913 122.52C215.042 122.551 215.331 122.583 215.385 122.71ZM222.461 136.61H223.236C223.647 136.653 224.063 136.622 224.464 136.524C224.609 136.475 224.826 136.271 224.979 136.289C225.13 136.308 225.236 136.509 225.382 136.567C226.003 136.814 226.98 136.288 227.302 137.169C227.386 137.368 227.416 137.586 227.388 137.8C227.36 138.014 227.275 138.217 227.143 138.387C226.493 139.193 225.964 139.348 224.924 138.703C224.595 138.497 224.21 138.394 223.822 138.409C222.347 138.409 220.872 138.389 219.4 138.409C219.001 138.409 218.605 138.349 218.236 138.529C217.867 138.708 217.576 138.928 217.17 138.788C216.909 138.698 216.944 138.487 217.17 138.411C217.34 138.354 217.665 138.44 217.667 138.165C217.667 137.541 218.06 137.328 218.572 137.117C219.249 136.822 219.974 136.654 220.711 136.622C221.298 136.635 221.88 136.611 222.461 136.611V136.61Z" fill="#C4C3C6"/>
<path d="M228.524 121.271H228.587C228.935 121.31 229.287 121.258 229.635 121.31C229.961 121.369 230.262 121.519 230.507 121.742C230.634 121.872 230.771 121.994 230.918 122.104C231.076 122.17 231.24 122.217 231.408 122.241C231.545 122.282 231.663 122.41 231.571 122.555C231.421 122.794 230.961 122.697 230.771 122.591C230.285 122.304 229.726 122.163 229.161 122.187C228.175 122.211 227.182 122.247 226.197 122.244C225.986 122.244 225.473 122.214 225.558 121.87C225.616 121.62 226.036 121.628 226.231 121.612C226.721 121.574 227.168 121.368 227.648 121.27C227.938 121.224 228.234 121.225 228.524 121.271ZM233.465 120.022C233.498 119.903 233.42 119.675 233.674 119.692C233.839 119.703 233.835 119.873 233.829 119.995C233.824 120.117 233.873 120.358 233.625 120.347C233.464 120.337 233.473 120.171 233.465 120.023V120.022Z" fill="#C4C3C6"/>
<path d="M203.787 123.722C203.731 124.085 203.745 124.362 203.483 124.487C203.302 124.578 203.132 124.456 202.982 124.321C202.801 124.153 202.579 124.02 202.39 123.855C202.01 123.523 202.167 123.104 202.359 122.806C202.792 122.138 202.866 122.974 203.136 123.044C203.53 123.145 203.867 123.318 203.788 123.722H203.787Z" fill="black"/>
<path d="M206.011 131.624C205.458 131.902 205.267 131.43 205.038 131.08C204.832 130.776 204.611 130.425 205.023 130.111C205.536 129.726 205.803 130.088 206.034 130.487C206.244 130.863 206.555 131.242 206.01 131.624H206.011Z" fill="white"/>
<path d="M238.699 121.788C238.657 121.91 238.743 122.139 238.5 122.136C238.332 122.136 238.363 121.955 238.357 121.835C238.357 121.694 238.28 121.481 238.538 121.483C238.699 121.486 238.699 121.647 238.699 121.789V121.788Z" fill="black"/>
<path d="M217.062 120.406C215.433 120.137 213.95 119.891 212.403 120.406C211.253 120.79 210.956 121.3 210.254 121.132C209.552 120.963 209.182 120.315 208.82 119.695C208.525 119.191 207.518 117.287 208.278 115.389C208.442 114.983 208.651 114.463 209.183 114.132C209.544 113.9 210.01 113.796 211.87 114.132C213.438 114.415 214.114 114.676 215.632 114.858C216.771 114.992 217.047 114.927 217.244 114.858C218.095 114.555 218.223 113.9 219.215 112.883C219.939 112.143 220.596 111.738 221.363 111.267C222.655 110.477 223.301 110.079 224.23 110.011C225.858 109.889 227.096 110.819 227.455 111.088C228.251 111.691 228.869 112.497 229.246 113.422C228.394 115.449 228.547 116.731 228.884 117.55C229.098 118.059 229.466 118.592 229.246 118.986C229.025 119.379 228.371 119.336 227.455 119.349C225.129 119.369 223.862 119.38 222.617 119.893C221.741 120.255 221.469 120.618 220.467 120.799C219.875 120.902 219.27 120.902 218.678 120.799C218.147 120.639 217.608 120.508 217.062 120.406ZM219.401 122.837C219.298 122.9 219.114 123.064 219.012 124.212C218.955 124.93 218.955 125.652 219.012 126.37C219.117 128.232 219.192 128.757 218.815 129.115C218.634 129.282 218.604 129.186 218.032 129.508C217.339 129.897 216.977 130.102 216.857 130.489C216.696 131.011 217.015 131.736 217.445 131.862C217.785 131.962 217.959 131.615 218.815 131.469C219.177 131.409 219.371 131.377 219.599 131.469C220.03 131.65 219.961 132.025 220.38 132.253C220.801 132.483 221.485 132.396 221.753 132.057C221.9 131.868 221.798 131.766 221.947 131.468C222.201 130.97 222.637 130.98 222.73 130.685C222.853 130.297 222.186 129.994 221.753 129.311C221.265 128.562 221.298 127.75 221.36 126.174C221.418 124.707 221.665 124.39 221.36 123.816C220.943 123.043 219.894 122.534 219.402 122.837H219.401Z" fill="white"/>
<path d="M211.665 134.995C210.997 134.966 210.564 134.189 209.958 133.095C209.391 132.074 208.802 130.982 208.821 129.486C208.821 128.932 208.845 127.564 209.579 127.207C210.036 126.984 210.337 127.362 211.284 127.388C211.962 127.415 212.495 127.207 213.56 126.82C215.045 126.276 215.295 125.913 216.215 125.87C216.655 125.852 217.3 125.826 217.73 126.251C218.223 126.729 218.286 127.626 217.92 128.53C215.782 129.021 214.909 129.907 214.508 130.618C213.941 131.619 214.162 132.534 213.182 133.847C212.821 134.332 212.311 135.022 211.665 134.995ZM224.716 128.794C225.902 129.541 226.255 129.086 227.46 129.777C228.307 130.274 229.041 130.943 229.615 131.74C230.158 132.487 230.281 133.01 230.791 133.115C231.383 133.241 231.958 132.713 232.163 132.525C232.647 132.08 232.912 131.539 233.339 129.777C233.789 127.914 234.008 126.97 233.73 126.439C233.265 125.546 232.215 125.247 231.575 125.064C230.777 124.836 229.856 124.908 228.048 125.064C226.068 125.235 225.941 125.4 225.109 125.26C224.171 125.102 223.723 124.791 223.344 125.064C222.856 125.427 222.944 126.419 223.149 127.029C223.476 127.997 224.272 128.515 224.716 128.794ZM185.401 170.177C185.47 169.615 185.808 167.795 187.211 166.536C188.872 165.055 190.468 165.74 193.875 164.109C195.18 163.483 194.683 163.508 196.902 162.295C198.827 161.236 199.303 161.16 202.756 159.463C204.781 158.467 205.792 157.971 205.986 157.845C207.191 157.062 207.951 156.337 209.217 156.226C209.763 156.182 210.314 156.252 210.832 156.43C211.1 157.441 211.369 158.453 211.64 159.463C212.958 161.437 214.304 163.392 215.677 165.328C218.98 169.988 220.382 171.62 222.54 173.017C224.046 173.985 225.118 174.674 226.578 174.634C227.758 174.603 229.283 174.091 233.241 169.173C236.879 164.64 241.757 158.58 240.299 154.608C240.151 154.206 239.756 153.324 240.099 152.99C240.578 152.52 242.088 153.574 244.337 154.608C245.992 155.368 247.458 155.79 250.393 156.631C253.955 157.654 254.012 157.325 257.055 158.25C259.051 158.868 261.007 159.612 262.91 160.475C265.719 161.692 267.145 162.32 268.159 163.306C268.723 163.851 270.51 165.586 270.782 168.161C270.844 168.728 271.001 170.881 268.972 173.825C264.415 180.423 253.698 183.988 253.228 184.141C246.843 186.201 237.26 189.194 223.355 188.585C216.751 188.297 206.958 187.765 196.708 182.112C194.382 180.83 184.746 175.514 185.401 170.177Z" fill="white"/>
</g>
<rect x="185" y="90" width="76" height="76" rx="38" stroke="black" stroke-width="4"/>
<g clip-path="url(#clip1_6035_296300)">
<rect x="303" y="32" width="48" height="48" rx="24" fill="#DEE3E9"/>
<path d="M327 59.9182C331.713 59.9182 335.534 56.0977 335.534 51.3849C335.534 46.6721 331.713 42.8516 327 42.8516C322.287 42.8516 318.467 46.6721 318.467 51.3849C318.467 56.0977 322.287 59.9182 327 59.9182Z" fill="#A7AEB7"/>
<path d="M312.067 74.8515C312.067 68.9606 316.843 64.185 322.734 64.185H331.267C337.158 64.185 341.934 68.9606 341.934 74.8515V95.6518C341.934 101.543 337.158 106.318 331.267 106.318H322.734C316.843 106.318 312.067 101.543 312.067 95.6518V74.8515Z" fill="#A7AEB7"/>
</g>
<g clip-path="url(#clip2_6035_296300)">
<rect x="96" y="88" width="24" height="24" rx="12" fill="#DEE3E9"/>
<path d="M108 101.959C110.356 101.959 112.267 100.049 112.267 97.6924C112.267 95.336 110.356 93.4258 108 93.4258C105.643 93.4258 103.733 95.336 103.733 97.6924C103.733 100.049 105.643 101.959 108 101.959Z" fill="#A7AEB7"/>
<path d="M100.533 109.426C100.533 106.48 102.921 104.092 105.867 104.092H110.133C113.079 104.092 115.467 106.48 115.467 109.426V119.826C115.467 122.771 113.079 125.159 110.133 125.159H105.867C102.921 125.159 100.533 122.771 100.533 119.826V109.426Z" fill="#A7AEB7"/>
</g>
<g clip-path="url(#clip3_6035_296300)">
<rect x="-8" width="48" height="48" rx="24" fill="#DEE3E9"/>
<path d="M16.0003 27.9182C20.7131 27.9182 24.5336 24.0977 24.5336 19.3849C24.5336 14.6721 20.7131 10.8516 16.0003 10.8516C11.2875 10.8516 7.46696 14.6721 7.46696 19.3849C7.46696 24.0977 11.2875 27.9182 16.0003 27.9182Z" fill="#A7AEB7"/>
<path d="M1.06689 42.8515C1.06689 36.9606 5.84252 32.185 11.7335 32.185H20.2669C26.1579 32.185 30.9335 36.9606 30.9335 42.8515V63.6518C30.9335 69.5429 26.1579 74.3183 20.2669 74.3183H11.7335C5.84252 74.3183 1.06689 69.5429 1.06689 63.6518V42.8515Z" fill="#A7AEB7"/>
</g>
<defs>
<clipPath id="clip0_6035_296300">
<rect x="183" y="88" width="80" height="80" rx="40" fill="white"/>
</clipPath>
<clipPath id="clip1_6035_296300">
<rect x="303" y="32" width="48" height="48" rx="24" fill="white"/>
</clipPath>
<clipPath id="clip2_6035_296300">
<rect x="96" y="88" width="24" height="24" rx="12" fill="white"/>
</clipPath>
<clipPath id="clip3_6035_296300">
<rect x="-8" width="48" height="48" rx="24" fill="white"/>
</clipPath>
</defs>
</svg>
