<svg width="416" height="456" viewBox="0 0 416 456" fill="none" xmlns="http://www.w3.org/2000/svg">
<g clip-path="url(#clip0_5989_327372)">
<path d="M168 272C168 241.072 193.072 216 224 216C254.928 216 280 241.072 280 272C280 302.928 254.928 328 224 328C193.072 328 168 302.928 168 272Z" fill="#623AD6"/>
<path d="M241.985 349.28C237.097 349.241 232.186 348.853 227.437 348.476L226.936 348.436C220.292 347.913 214.812 347.273 209.691 346.432C207.283 346.037 204.887 345.578 202.505 345.054L202.374 345.024C196.931 343.603 191.641 341.653 186.579 339.2L186.365 339.085C183.384 337.312 180.563 335.281 177.936 333.017L177.768 332.862C174.968 330.056 172.345 327.057 169.807 324.161L169.733 324.079L169.446 323.755L169.225 323.494L168.842 320.016C169.25 319.275 169.624 318.616 169.998 318C170.414 317.288 170.866 316.6 171.354 315.935C173.371 313.109 176.194 310.957 179.454 309.761C179.977 309.41 180.45 309.096 180.924 308.806C181.253 308.607 181.592 308.408 181.944 308.212C184.656 304.657 191.651 303.886 192.947 303.769C194.323 303.265 195.702 302.821 197.057 302.45L197.459 302.366C198.226 302.268 198.996 302.198 199.768 302.156C200.059 302.115 200.362 302.078 200.688 302.044C201.715 301.331 202.761 300.644 203.824 299.984L203.931 299.919C204.736 299.42 205.97 298.658 207.401 298.351C206.92 297.753 206.391 297.195 205.821 296.682C205.373 296.253 204.911 295.812 204.456 295.317L204.114 294.87C204.158 294.944 204.211 295.016 204.267 295.083L204.194 295.006C204.098 294.909 203.962 294.773 203.818 294.607L203.744 294.515C202.29 292.67 201.711 290.595 201.201 288.749V288.715C201.151 288.541 201.102 288.332 201.046 288.105C201.008 287.95 200.952 287.725 200.893 287.498C200.417 287.552 199.939 287.581 199.46 287.585C198.721 287.592 197.984 287.491 197.273 287.284C196.627 287.097 196.024 286.782 195.501 286.358C194.978 285.934 194.545 285.41 194.229 284.816C193.471 283.395 193.373 281.603 193.947 279.77C194.109 279.246 193.552 278.246 193.011 277.272C192.824 276.931 192.63 276.579 192.444 276.212C190.385 272.157 190.154 268.088 191.754 264.118L192.049 263.683C191.942 262.651 191.766 261.626 191.527 260.615C191.449 260.245 191.365 259.86 191.284 259.458C190.621 256.17 190.872 252.841 191.203 250.017C192.575 238.414 200.984 229.306 213.698 225.66C216.568 224.832 219.539 224.408 222.526 224.4C229.137 224.4 235.614 226.533 241.264 230.566C242.372 231.355 243.432 232.21 244.439 233.125C245.889 234.449 247.365 235.954 248.322 237.991C249.907 241.367 250.969 245.097 251.564 249.393C251.661 250.094 251.747 250.825 251.825 251.565C251.932 252.257 251.977 252.956 251.957 253.656V253.775C252.717 254.066 253.408 254.511 253.988 255.081C254.568 255.652 255.023 256.336 255.326 257.091C255.657 257.89 255.854 258.738 255.911 259.601C255.963 260.299 255.93 261.001 255.817 261.693C255.832 262.043 255.86 262.416 255.891 262.806C255.914 263.093 255.935 263.384 255.954 263.673V264.122C255.869 265.588 255.9 267.057 256.047 268.518C256.224 270.941 256.421 273.688 255.661 276.57L255.558 276.894C255.233 277.742 254.78 278.535 254.217 279.246C253.982 279.54 253.73 279.815 253.458 280.072C253.651 280.322 253.826 280.583 253.981 280.857C255.901 282.54 257.323 284.5 258.702 286.4C260.082 288.301 261.336 289.998 262.954 291.289C263.378 291.627 263.713 292.063 263.931 292.56C264.176 292.806 264.406 293.042 264.625 293.272C265.637 294.313 266.596 295.405 267.499 296.543C267.761 296.872 268.022 297.206 268.258 297.541C270.056 299.246 272.493 300.064 274.87 300.694C275.357 300.821 275.887 300.954 276.587 301.119C277.094 301.226 277.611 301.344 278.126 301.464C280.529 301.513 282.875 302.206 284.919 303.471C289.858 305.272 294.01 307.616 297.597 310.63C298.05 310.954 298.483 311.276 298.903 311.591C299.385 311.965 299.846 312.342 300.278 312.712L300.455 312.877C300.956 313.381 301.461 313.924 301.961 314.49L302.136 318.298C301.56 319.09 300.98 319.88 300.396 320.667L299.836 321.423C296.947 325.343 293.957 329.375 290.692 333.142L290.5 333.344C288.662 335.092 286.686 336.689 284.591 338.12L284.33 338.275C279.587 340.907 274.291 343.1 267.664 345.178L267.552 345.212C259.257 347.498 250.735 348.862 242.141 349.279L241.985 349.28Z" fill="black"/>
<path d="M171.822 322.065C174.393 325.002 176.965 327.942 179.718 330.703C182.209 332.851 184.883 334.775 187.711 336.454C192.598 338.815 197.704 340.695 202.955 342.068C205.28 342.58 207.62 343.028 209.975 343.414C215.605 344.338 221.286 344.938 226.958 345.387C231.889 345.779 236.844 346.183 241.795 346.223C250.171 345.823 258.478 344.497 266.562 342.269C272.109 340.53 277.578 338.43 282.662 335.609C284.619 334.272 286.464 332.778 288.178 331.141C291.575 327.221 294.668 322.999 297.739 318.858L299.466 316.504C299.02 315.998 298.56 315.504 298.081 315.023C297.258 314.322 296.404 313.659 295.52 313.037C289.876 308.265 282.979 305.627 275.714 304.093C275.1 303.947 274.49 303.798 273.883 303.636C270.858 302.836 267.968 301.774 265.737 299.541C265.471 299.161 265.192 298.791 264.901 298.43C264.06 297.371 263.167 296.355 262.225 295.385C261.815 294.961 261.4 294.542 260.981 294.131C256.003 288.992 250.931 283.92 246.848 277.962C246.65 277.534 246.471 277.098 246.312 276.655C245.541 274.462 245.342 272.211 245.382 269.861C245.426 267.102 246.166 264.426 246.318 261.675C246.119 259.323 245.521 256.971 244.869 254.686C244.094 252.063 243.245 249.461 242.326 246.885C241.303 244.07 240.136 241.226 239.452 238.292C236.838 237.975 234.225 237.637 231.633 237.157C229.687 236.796 227.738 236.413 225.781 236.075L225.652 236.178L223.753 237.35C220.39 238.538 217.104 239.927 213.685 240.958C211.29 241.68 208.873 242.425 206.369 242.722C204.199 242.982 201.863 243.1 199.708 242.618L199.571 242.598C199.237 243.523 198.938 244.462 198.672 245.412C198.128 248.056 197.851 250.748 197.844 253.447C198.078 257.541 198.763 261.597 199.887 265.542C201.702 271.291 204.184 276.808 207.282 281.98C209.279 285.119 211.468 288.131 213.836 290.999C214.128 291.349 214.391 291.72 214.62 292.111C214.842 292.485 215.029 292.877 215.182 293.282C217.291 300.746 207.147 303.179 201.925 304.961C201.231 305.016 200.55 305.082 199.897 305.182C199.136 305.222 198.406 305.278 197.683 305.374C195.639 305.941 193.632 306.635 191.675 307.452C191.019 307.726 190.368 308.012 189.709 308.299C187.103 308.95 184.612 309.993 182.32 311.394C181.756 311.739 181.202 312.107 180.659 312.483C177.815 313.45 175.347 315.287 173.603 317.734C173.176 318.316 172.78 318.921 172.416 319.545C172.032 320.186 171.664 320.83 171.307 321.478L171.823 322.065H171.822Z" fill="white"/>
<path d="M252.562 261.434C252.672 260.903 252.709 260.358 252.674 259.819C252.639 259.285 252.518 258.761 252.317 258.265C252.135 257.771 251.818 257.338 251.402 257.015C250.987 256.692 250.489 256.491 249.965 256.437C249.209 256.117 248.606 255.715 248.712 254.506C248.674 253.657 248.749 252.727 248.594 251.983C248.525 251.254 248.441 250.524 248.334 249.801C247.833 246.172 246.926 242.624 245.352 239.271C244.621 237.718 243.429 236.508 242.174 235.351C241.26 234.52 240.298 233.743 239.294 233.024C231.884 227.742 223.054 226.07 214.303 228.581C203.792 231.595 195.315 239.174 193.993 250.371C193.661 253.174 193.47 256.059 194.034 258.849C194.453 260.918 194.886 262.476 194.91 264.616C194.748 264.851 194.559 265.064 194.345 265.251C193.02 268.537 193.331 271.688 194.926 274.83C195.854 276.659 197.278 278.543 196.619 280.676C196.174 282.093 196.28 283.874 197.925 284.364C199.117 284.718 200.426 284.426 201.636 284.328C203.227 284.199 203.606 286.797 203.911 287.894C204.374 289.552 204.841 291.251 205.925 292.624C206.129 292.823 206.317 293.037 206.49 293.263C208.179 295.093 210.436 296.53 210.796 299.313C210.995 299.517 211.182 299.731 211.356 299.956L210.346 301.335C210.012 301.727 210.031 302.205 210.008 302.679C209.896 304.997 210.18 307.383 211.154 309.495C212.024 311.392 213.354 313.023 214.629 314.656C216.252 316.729 217.999 318.856 220.44 319.991C221.412 320.443 222.481 320.599 223.358 321.245C224.618 322.176 225.826 323.441 226.511 324.863C226.973 325.824 227.322 327.501 228.601 327.68C230.428 327.941 232.472 324.849 233.405 323.637C234.643 322.03 235.636 320.255 236.802 318.591C237.642 317.375 238.478 316.152 239.415 315.013C240.354 313.872 240.912 312.414 241.487 311.04C241.605 310.755 241.727 310.478 241.858 310.203C242.381 309.077 243 308.011 243.613 306.918C244.652 305.063 245.62 303.169 246.514 301.24C247.259 299.655 248.149 298.124 248.662 296.443C249.057 295.137 248.923 293.245 249.927 292.225C250.188 291.964 250.078 291.603 250.139 291.285C250.292 290.286 250.555 289.307 250.923 288.365C251.306 287.612 251.204 286.797 251.235 286.013C251.259 285.412 251.084 284.78 251.383 284.223C251.952 282.301 249.924 280.882 248.509 280.273C248.101 280.07 248.303 279.26 248.303 279.26C249.825 278.955 250.89 278.269 251.63 277.344C252.002 276.874 252.298 276.351 252.51 275.792C253.577 271.754 252.36 267.899 252.712 263.855C252.66 263.036 252.57 262.234 252.56 261.434H252.562Z" fill="black"/>
<path d="M209.561 301.689C210.706 302.635 210.389 304.713 210.215 305.991C209.953 307.864 208.995 310.159 209.876 311.983C210.398 313.063 212.352 312.935 211.689 314.354C211.254 315.28 209.597 315.425 208.996 316.27C208.501 316.964 208.559 317.851 208.153 318.567C208.085 318.69 206.974 320.044 206.886 319.696C206.809 319.505 206.755 319.306 206.724 319.102C206.774 320.149 206.42 324.164 204.793 324.082C203.816 324.035 203.269 322.166 203.009 321.468C202.077 318.857 201.436 316.152 201.099 313.401C199.305 313.52 199.149 316.134 198.888 317.472C198.467 319.78 198.169 322.137 197.415 324.366C196.659 326.596 195.285 328.684 194.847 331.057C194.616 332.332 194.924 334.697 193.325 335.142C193.325 335.142 193.732 329.308 193.777 328.687C193.973 325.917 194.221 323.109 195.494 320.585C196.016 319.553 197.941 316.588 195.985 315.862C194.363 315.257 194.124 317.618 193.111 318.214C191.246 319.325 192.448 316.298 193.111 315.576C193.954 314.665 195.107 313.899 195.692 312.788C194.174 312.266 192.274 312.508 191.057 313.604C190.406 314.189 189.277 315.817 190.678 316.217C190.137 316.064 187.663 318.775 187.281 319.247C185.19 318.256 188.092 314.543 188.288 313.118C188.452 311.936 188.883 310.083 187.363 310.337C186.372 310.502 185.683 311.831 184.769 312.205C184.703 311.584 184.271 311.33 183.681 311.536C183.336 308.288 190.824 306.962 193.072 306.782C192.644 307.622 190.807 309.283 191.337 310.329C191.997 311.635 194.143 310.047 194.872 309.584C198.375 307.353 201.666 304.741 205.182 302.565C206.245 301.909 208.001 300.767 209.276 301.518C209.376 301.567 209.472 301.624 209.561 301.689ZM250.519 288.36C250.669 286.395 250.824 284.429 250.979 282.465C255.019 285.532 256.894 290.522 260.857 293.658C261.066 293.823 261.008 294.327 261.075 294.672C261.284 294.946 261.336 295.215 261.053 295.473C258.76 293.924 257.635 291.425 255.958 289.464C255.515 290.248 254.997 290.454 254.812 289.803C254.549 288.992 254.607 288.086 254.007 287.423C253.893 287.68 253.812 287.953 253.764 288.229C253.68 289.721 253.693 289.654 252.632 289.63C252.412 289.63 251.939 290.382 251.994 290.721C252.233 292.228 251.273 293.448 251.176 295.335C250.654 292.384 250.715 289.923 251.788 286.541C250.952 287.735 250.735 288.049 250.519 288.36ZM258.077 334.916C259.666 332.323 260.185 329.358 261.85 326.839C262.789 325.417 263.042 323.563 263.836 322.025C264.765 320.221 266.017 318.588 266.987 316.797C267.588 315.692 267.964 314.445 268.358 313.246C268.495 312.823 268.495 312.394 269.018 312.259C268.098 317.375 265.428 321.927 263.405 326.614C262.152 329.487 260.792 332.324 259.569 335.214C259.477 335.426 258.981 335.553 258.673 335.549C258.503 335.555 258.334 335.213 258.077 334.916ZM276.268 317.963C276.506 315.585 277.956 313.831 279.278 311.995C280.287 310.595 281.154 309.097 282.134 307.678C282.549 307.08 280.424 306.779 282.153 306.212C279.553 305.708 277.11 305.235 274.664 304.757C277.71 304.171 280.723 304.472 283.299 306.163C284.169 306.732 283.977 308.745 283.347 309.647C281.59 312.155 278.996 314.02 277.618 316.873C277.388 317.349 276.743 317.621 276.292 317.984L276.268 317.963ZM274.661 321.643C274.211 323.702 273.208 325.511 272.22 327.356C271.233 329.201 270.57 331.156 269.736 333.054C269.582 333.295 269.393 333.512 269.174 333.696C269.115 333.494 268.965 333.269 269.012 333.098C269.594 330.908 269.861 328.54 270.913 326.599C271.875 324.829 272.422 322.529 274.634 321.618L274.661 321.643ZM251.811 273.577C251.634 273.605 251.289 273.411 250.928 273.095C249.505 271.874 250.393 274.728 250.424 275.185C249.4 275.15 248.028 274.783 247.812 273.812C247.595 272.839 248.529 271.719 249.601 271.423C250.725 271.113 251.378 271.964 251.742 272.745C252.013 273.305 251.992 273.549 251.811 273.579V273.577ZM251.72 261.723C251.612 261.928 251.459 262.062 251.284 262.408C251.023 262.931 251.111 263.597 250.716 264.044C249.59 263.676 250.351 262.368 250.472 261.618C250.563 261.058 250.113 258.093 251.076 258.354C251.901 258.58 251.882 260.584 251.845 261.198C251.842 261.38 251.799 261.559 251.72 261.723ZM229.111 258.973C229.111 259.518 228.164 260.329 227.948 260.712C227.484 261.555 227.153 262.465 226.966 263.409C226.689 264.729 226.008 267.557 227.545 268.449C228.458 268.971 228.764 268.187 229.181 267.582C229.834 266.645 230.64 267.408 231.451 266.909C231.044 266.648 230.172 266.372 230.929 265.818C231.492 265.412 232.382 265.911 232.793 266.3C233.474 266.949 233.775 267.693 234.715 268.051C235.604 268.388 236.589 268.356 237.519 268.271C239.229 268.108 241.018 267.575 241.843 265.919C242.282 265.037 242.201 264.284 242.144 263.354C242.11 262.803 242.337 261.736 243.04 262.361C243.451 262.725 243.529 263.323 243.853 263.752C244.547 264.669 245.023 265.211 244.845 266.442C244.553 268.469 244.877 270.727 244.079 272.653C243.231 274.694 243.763 276.951 243.872 279.107C244.046 282.682 244.213 286.406 244.04 290.027C243.905 292.885 243.343 296.083 240.876 297.884C240.616 298.077 240.25 298.347 239.895 298.297C239.438 298.233 239.372 297.774 238.98 297.648C237.757 297.287 236.164 300.244 234.958 300.602C233.977 300.895 233.585 300.254 232.745 299.972C231.019 299.389 228.103 304.396 226.595 302.084C225.905 301.038 227.88 300.053 228.437 299.399C229.1 298.615 230.883 297.75 231.208 296.786C231.664 295.435 228.884 295.983 228.225 295.432C228.646 294.739 229.668 295.096 230.316 294.872C231.185 294.573 231.415 293.678 231.819 292.944C232.787 291.185 234.379 289.836 235.269 288.031C235.947 286.656 236.153 284.895 237.882 284.528C238.598 284.378 239.382 284.348 239.422 283.368C239.456 282.584 238.743 282.388 238.094 282.26C236.812 281.999 234.475 282.013 233.652 283.253C234.08 283.402 235.797 283.287 235.512 284.16C235.337 284.705 234.207 284.628 233.767 284.67C231.091 284.916 228.685 286.429 225.976 286.426C224.492 286.426 222.995 286.191 221.515 286.079C221.045 286.042 219.602 285.912 220.469 285.318C220.744 285.127 221.206 285.281 221.515 285.132C221.851 284.922 222.115 284.612 222.267 284.247C222.529 283.753 222.833 282.388 223.519 282.287C224.118 282.2 224.321 282.822 224.124 283.236C223.969 283.56 223.242 283.808 223.655 284.348C224.439 285.379 225.406 282.916 225.612 282.52C225.849 283.197 226.955 284.534 227.669 283.666C227.998 283.267 227.669 282.58 228.06 282.226C228.525 281.806 229.302 282.29 229.828 282.142C230.712 281.902 231.921 280.206 231.659 279.269C231.135 277.478 228.579 278.813 227.66 279.364C225.811 280.484 224.787 279.998 222.999 279.067C221.637 278.351 220.015 278.33 220.687 276.333C221.318 274.579 221.643 272.731 221.645 270.869C221.645 269.071 221.565 267.273 221.477 265.476C221.4 263.908 221.138 262.124 219.496 261.452C218.067 260.864 216.127 261.452 214.915 260.349C216.459 258.734 221.187 260.14 222.492 261.52C223.6 262.696 222.871 264.047 223.539 265.301C224.205 266.557 224.679 265.367 224.713 264.579C224.756 263.556 224.507 262.529 224.566 261.509C224.642 260.095 225.919 259.912 226.955 259.28C227.379 259.019 228.769 258.018 229.072 258.792C229.099 258.849 229.112 258.911 229.111 258.975V258.973Z" fill="#C4C3C6"/>
<path d="M214.709 260.108C214.447 260.287 214.143 260.395 213.826 260.422C212.58 260.517 211.312 260.297 210.061 260.352C208.956 260.402 207.187 261.136 206.12 260.665C204.843 260.105 205.525 258.072 205.204 257.006C204.785 255.592 203.976 254.616 204.595 253.12C205.183 251.694 205.745 250.507 205.74 248.919C205.74 247.274 205.068 245.724 205.058 244.094C205.048 242.462 205.986 241.409 206.952 240.225C207.865 239.102 208.502 237.779 209.445 236.681C210.426 235.539 211.747 234.829 213.103 234.244C218.906 231.768 226.752 230.689 231.78 235.393C233.974 237.45 234.982 240.153 235.979 242.918C236.439 244.311 237.046 245.651 237.788 246.916C238.528 248.105 239.401 249.213 240.052 250.457C240.951 252.18 241.75 255.211 240.002 256.729C238.867 257.709 237.334 257.269 236.01 257.09C234.371 256.874 233.269 257.444 231.829 258.137C231.406 258.34 229.739 259.181 229.315 258.523C228.691 257.532 230.973 256.894 231.497 256.769C232.908 256.427 235.678 255.883 235.837 254.049C235.945 252.802 234.791 252.295 233.945 251.697C232.552 250.734 233.13 249.623 232.862 248.197C232.55 246.859 232.032 245.578 231.328 244.399C230.604 243.171 229.213 242.712 228.429 241.506C226.862 239.107 225.01 238.268 222.158 238.286C219.45 238.301 216.809 238.905 214.709 240.703C209.712 244.982 210.006 251.501 210.615 257.529C210.718 258.576 211.014 259.504 212.23 259.495C212.927 259.495 213.756 259.04 214.451 259.293C215.145 259.547 215.046 259.864 214.709 260.108ZM216.656 267.973C218.014 268.116 219.711 269.46 220.076 270.558C220.599 272.103 219.407 274.033 218.77 275.367C218.132 276.699 216.653 278.641 217.558 280.118C218.103 281.01 219.089 280.939 219.871 281.444C220.701 281.987 221.03 282.862 221.699 283.562C219.301 283.351 217.223 284.328 214.892 284.377C212.708 284.421 211.443 283.247 210.905 285.964C210.561 287.697 209.668 290.363 210.773 291.993C211.6 293.216 213.481 293.349 214.725 293.98C215.527 293.175 214.498 293.114 214.38 292.429C214.245 291.645 214.741 290.956 214.316 290.245C213.638 289.113 211.42 289.567 211.014 288.12C210.292 285.546 215.324 288.212 216.141 288.807C217.447 289.75 218.386 291.042 219.487 292.167C219.851 292.543 220.244 292.892 220.66 293.212C221.746 293.439 221.746 294.453 222.354 295.061C223.977 296.28 226.012 295.061 227.842 295.469C228.292 295.667 228.703 295.941 229.06 296.28C228.046 296.889 226.218 296.28 226.218 297.902C226.218 299.733 229.878 300.54 229.06 301.352C226.829 303.785 222.57 302.568 219.311 301.5C218.252 301.064 217.27 300.459 216.404 299.709C215.931 299.238 215.517 298.711 215.172 298.14C214.803 297.814 214.42 297.503 214.002 297.197C213.559 296.874 213.105 296.567 212.64 296.277C210.919 295.209 209.545 293.98 208.685 292.111C206.944 288.346 207.377 283.951 206.455 279.982C206.106 278.472 201.907 271.282 204.835 270.835C206.521 270.573 212.988 275.1 212.473 270.004C213.86 270.589 214.942 268.236 216.078 267.991C216.27 267.956 216.464 267.95 216.656 267.973ZM238.866 311.902C238.737 313.367 238.082 314.231 236.965 315.097C235.108 316.524 232.67 318.092 231.179 319.902C230.551 320.658 230.293 321.582 229.817 322.422C228.644 324.492 227.035 324.205 225.464 322.722C224.58 321.89 217.064 315.904 219.397 314.359C219.982 313.967 221.1 314.381 221.722 314.477C223.716 314.788 225.819 315.108 227.823 314.723C231.437 314.033 232.832 310.376 235.722 308.519C237.29 307.515 238.643 306.64 239.754 305.107C240.864 303.576 241.732 301.842 242.889 300.321C243.838 299.081 244.684 297.814 245.578 296.541C246.069 295.844 246.831 294.8 247.077 296.134C247.37 297.702 245.63 299.513 244.892 300.747C243.781 302.562 242.766 304.434 241.85 306.354C241.349 307.43 241.117 308.853 240.336 309.752C239.451 310.784 238.146 309.791 236.913 310.628C236.405 310.973 234.991 312.859 236.058 313.31C236.605 313.54 237.626 312.411 238.055 312.188C238.295 312.022 238.572 311.916 238.863 311.879L238.866 311.902Z" fill="#C4C3C6"/>
<path d="M225.362 289.708C225.21 289.737 225.054 289.731 224.905 289.69C224.29 289.539 223.785 289.251 223.141 289.45C222.964 289.505 222.776 289.711 222.603 289.732C222.431 289.754 222.242 289.559 222.08 289.508C221.805 289.47 221.526 289.459 221.249 289.474C220.799 289.424 220.413 289.16 219.98 289.052C219.635 289.004 219.296 288.916 218.971 288.792C218.71 288.666 218.568 288.42 218.845 288.217C219.122 288.012 219.464 288.086 219.744 288.028C220.099 287.915 220.466 287.837 220.836 287.792C221.259 287.792 221.684 287.832 222.107 287.832C222.739 287.832 223.371 287.832 224.003 287.809C225.281 287.784 226.556 287.688 227.823 287.521C228.408 287.44 228.989 287.336 229.569 287.228C230.085 287.1 230.592 286.938 231.087 286.74C231.441 286.63 233.423 286.696 232.629 287.456C232.462 287.581 232.279 287.683 232.085 287.758C231.873 287.872 231.687 288.021 231.481 288.143C231.22 288.285 231.053 288.214 230.804 288.285C230.557 288.355 230.31 288.514 230.053 288.594C229.087 288.873 228.087 289.269 227.065 289.21C226.68 289.17 226.292 289.262 225.966 289.471C225.78 289.584 225.575 289.664 225.362 289.708ZM238.939 311.874C238.457 312.223 237.962 312.559 237.499 312.92C236.938 313.371 236.37 314.621 235.67 313.657C234.969 312.692 235.268 310.979 236.363 310.583C237.125 310.306 238.426 307.876 239.413 310.499L238.939 311.874Z" fill="white"/>
<path d="M239.45 261.452C238.886 261.939 237.882 261.619 237.229 261.51C236.418 261.41 235.598 261.405 234.786 261.496C234.432 261.517 232.64 261.595 232.67 260.942C232.703 260.223 235.668 260.002 236.202 259.973C236.87 259.902 237.544 259.974 238.183 260.185C238.342 260.25 239.768 261.168 239.45 261.452ZM208.501 265.151C208.069 265.263 207.68 265.216 207.543 264.628C207.284 263.473 209.113 263.256 209.87 263.145C210.175 263.101 213.815 263.172 213.696 263.381C212.912 264.733 210.822 264.398 209.528 264.777C209.241 264.858 208.856 265.057 208.501 265.151ZM196.928 279.075C196.959 278.375 197.189 277.713 197.362 277.739C198.535 277.915 198.408 279.284 198.764 280.144C199.008 280.704 198.339 280.632 197.96 280.666C197.114 280.74 196.891 279.879 196.928 279.075ZM249.577 266.554C249.701 267.089 249.552 267.575 248.92 267.555C247.741 267.513 246.723 264.942 248.447 265.203C248.951 265.291 249.428 265.954 249.577 266.554ZM237.412 265.368V265.383C237.412 265.747 237.29 266.237 236.979 266.464C236.799 266.601 235.564 266.629 235.691 266.311C235.972 265.584 237.409 263.496 237.412 265.368ZM197.412 274.82C196.999 274.745 196.292 274.985 196.435 274.222C196.525 273.934 196.69 273.677 196.914 273.475C197.23 273.121 197.174 273.168 197.543 273.256C198.066 273.38 198.501 273.616 198.421 274.208C198.343 274.802 197.905 274.789 197.41 274.82H197.412ZM212.403 269.891C212.227 269.164 210.384 269.267 210.178 268.424C210.009 267.737 210.701 267.832 211.107 268.085C211.739 268.514 212.197 269.154 212.403 269.891Z" fill="#C4C3C6"/>
<path d="M216.655 268.092C216.316 268.437 215.573 268.45 215.13 268.456C215.637 268.157 215.167 267.436 215.391 267.007C215.759 266.325 216.752 266.929 216.823 267.53C216.841 267.631 216.835 267.734 216.806 267.831C216.776 267.929 216.725 268.018 216.655 268.092Z" fill="white"/>
<path d="M232.703 287.371C232.544 287.285 232.482 287.04 232.283 286.951C232.125 286.892 231.955 286.872 231.787 286.893C231.433 286.923 230.979 287.119 230.648 286.927C230.483 286.834 231.296 286.317 231.395 286.295C231.866 286.2 232.335 286.402 232.805 286.376C233.149 286.358 233.541 286.444 233.477 286.899C233.439 287.189 233.01 287.528 232.703 287.371ZM220.143 287.813C220.19 288.927 218.979 288.025 218.743 288.692C217.933 288.383 217.583 288.057 218.762 287.827C219.221 287.779 219.683 287.774 220.145 287.813H220.143Z" fill="#C4C3C6"/>
<path d="M232.656 266.062L230.629 266.091C230.548 265.284 231.335 265.546 231.675 265.25C231.697 265.221 231.726 265.198 231.759 265.183C231.793 265.168 231.829 265.161 231.865 265.164C231.902 265.166 231.937 265.177 231.968 265.196C231.999 265.215 232.025 265.242 232.043 265.273L232.656 266.062Z" fill="white"/>
<path d="M213.299 265.304C213.145 265.312 212.992 265.283 212.852 265.219C212.712 265.156 212.589 265.059 212.494 264.938C212.737 264.754 213.042 264.668 213.346 264.7C213.508 264.723 214.006 265.034 214.153 264.921C213.913 265.131 213.615 265.264 213.299 265.304ZM232.038 265.273L231.67 265.249L231.821 264.726L232.038 265.272V265.273Z" fill="#C4C3C6"/>
<path d="M214.566 260.31C213.52 259.165 212.159 259.908 210.957 259.787C210.132 259.701 209.8 259.589 209.816 258.705C209.871 255.308 210.037 251.882 209.779 248.476C209.557 245.554 211.334 243.918 212.899 241.78C214.653 239.384 217.216 238.271 220.201 238.096C222.104 237.984 224.288 237.651 226.102 238.393C229.671 239.854 230.922 243.5 233.127 246.219C234.34 247.716 232.345 251.294 235.114 251.527C236.537 251.646 236.848 253.443 236.512 254.548C236.046 256.073 234.327 256.738 232.832 256.95C231.892 257.083 231.085 257.563 230.34 258.129C230.025 258.418 229.673 258.665 229.294 258.863C228.861 259.043 228.37 259.043 227.923 259.178C225.311 259.962 224.602 262.302 224.986 264.811C225.078 265.399 225.546 266.551 224.449 266.619C223.996 266.648 223.023 265.484 223.043 264.889C223.202 260.3 219.801 260.535 216.665 260.364C215.975 260.32 215.273 260.326 214.566 260.31ZM226.556 300.956C226.089 300.81 225.663 300.554 225.315 300.21C224.675 299.638 223.953 299.074 224.345 298.166C225.062 296.51 226.369 296.227 227.944 295.814C228.861 295.569 231.061 294.847 231.652 296.023C232.436 297.591 229.957 298.253 229.232 299.121C228.283 300.241 227.607 301.216 226.556 300.956ZM225.437 278.875C224.213 278.918 223.041 278.389 223.283 277.11C223.429 276.329 223.693 275.573 224.067 274.873C224.524 274.036 224.757 273.894 225.61 274.326C226.734 274.895 228.385 276.168 227.85 277.632C227.57 278.391 226.485 278.842 225.437 278.875ZM242.38 288.366C242.366 288.954 242.006 290.385 241.713 290.826C241.256 291.509 240.59 291.478 239.994 291.005C239.19 290.36 239.181 289.255 239.383 288.322C239.548 287.566 240.188 286.416 241.045 286.254C241.776 286.119 242.351 287.561 242.38 288.282V288.366ZM235.83 273.215C235.83 274.232 235.597 274.721 236.419 275.445C236.87 275.843 238.092 276.644 236.942 277.026C236.22 277.266 235.096 276.481 234.526 276.096C233.68 275.523 232.742 274.468 233.261 273.37C233.541 272.779 234.614 272.014 235.299 272.294C235.73 272.471 235.824 272.816 235.83 273.215Z" fill="white"/>
<path d="M229.736 276.147C229.131 275.235 228.114 274.284 227.834 272.805C227.677 271.968 228.232 270.975 227.311 270.291C227.255 270.248 227.386 269.952 227.429 269.768C227.665 269.855 227.972 269.878 228.122 270.045C228.343 270.347 228.534 270.669 228.694 271.008C229.438 272.299 230.229 273.568 230.909 274.893C231.23 275.562 231.306 276.29 229.736 276.146V276.147Z" fill="black"/>
<path d="M214.785 275.102C215.401 275.073 215.976 275.16 216.235 275.488C216.787 276.194 216.07 277.433 215.756 278.102C214.921 279.84 213.609 281.76 211.671 282.364C211.014 281.104 210.38 280.051 210.743 278.598C211.054 277.364 211.527 275.944 212.833 275.485C213.465 275.274 214.121 275.146 214.785 275.102ZM210.908 287.048C211.341 287.331 211.527 288.079 211.845 288.448C212.498 289.21 213.64 289.071 214.339 289.755C214.86 290.278 214.486 290.748 214.579 291.386C214.688 292.133 216.031 293.385 215.025 294.102C214.303 294.624 211.889 293.606 211.194 293.205C209.823 292.421 209.389 290.443 209.411 288.966C209.411 288.322 209.53 287.163 210.298 286.956C210.4 286.925 210.507 286.917 210.613 286.933C210.718 286.948 210.818 286.988 210.907 287.048H210.908Z" fill="white"/>
</g>
<rect x="170" y="218" width="108" height="108" rx="54" stroke="black" stroke-width="4"/>
<g clip-path="url(#clip1_5989_327372)">
<path d="M256 64C256 19.8168 291.817 -16 336 -16C380.183 -16 416 19.8168 416 64C416 108.183 380.183 144 336 144C291.817 144 256 108.183 256 64Z" fill="#FF3861"/>
<path d="M397.038 149.301C396.069 149.036 395.12 148.465 394.168 148.655C388.276 149.415 382.764 150.556 376.872 150.175H354.078C353.825 150.147 353.57 150.147 353.318 150.175H273.467C272.739 150.175 272.023 149.964 271.411 149.571C268.583 147.761 265.891 145.748 263.356 143.547C263.285 143.488 263.217 143.425 263.154 143.358C261.192 141.391 259.403 139.26 257.806 136.987C257.721 136.866 257.644 136.739 257.575 136.608C257.279 136.058 256.998 135.499 256.733 134.933L256.674 134.8L256.568 134.573C256.215 133.802 255.909 133.078 255.642 132.366C255.578 132.192 255.526 132.013 255.488 131.832C255.336 131.114 255.208 130.39 255.107 129.663C254.914 128.909 254.799 128.136 254.764 127.358C254.688 125.253 255.291 123.181 256.474 121.442C256.68 120.933 256.886 120.453 257.099 119.985C257.168 119.838 257.246 119.695 257.331 119.556C258.305 117.998 259.387 116.507 260.573 115.101C260.653 115.008 260.737 114.919 260.825 114.834C261.309 114.358 261.836 113.867 262.429 113.333C262.665 113.12 262.926 112.937 263.208 112.789L263.377 112.699L263.537 112.615L263.6 112.579C265.741 111.426 267.844 110.201 269.903 108.907C270.202 108.722 270.526 108.579 270.865 108.482C270.97 108.453 271.072 108.412 271.168 108.362C272.24 107.768 273.274 107.107 274.261 106.383C274.661 106.103 275.059 105.825 275.463 105.552C275.56 105.482 275.659 105.419 275.76 105.362C275.888 105.288 276.021 105.219 276.152 105.152L276.278 105.084C276.531 104.954 276.781 104.821 277.04 104.693C277.499 104.461 277.962 104.238 278.421 104.011C278.8 103.821 279.196 103.632 279.577 103.442L280.032 103.219L280.133 103.171L280.204 103.135L280.429 103.025L280.619 102.937L280.933 102.785L281.08 102.718C282.171 102.204 283.273 101.712 284.385 101.244C286.227 100.469 288.091 99.7853 289.899 99.1221C291.345 98.5992 292.783 98.0546 294.213 97.4884C294.971 97.179 295.749 96.8989 296.493 96.6295C299.137 95.6779 301.419 94.8463 302.648 93.1347C304.076 91.1537 303.154 87.5305 302.343 84.3347C302.204 83.7928 302.069 83.2496 301.939 82.7053C301.623 81.3747 301.179 80.9074 300.798 80.6337C300.764 80.6087 300.729 80.5855 300.693 80.5642C300.615 80.5137 300.539 80.4653 300.467 80.4126C300.296 80.29 300.109 80.1909 299.912 80.1179L299.293 79.8926C298.556 79.6274 297.794 79.3537 297.011 79.0084C296.8 78.9163 296.598 78.8057 296.406 78.6779C295.97 78.3828 295.548 78.0659 295.143 77.7284C295.039 77.6432 294.941 77.5518 294.848 77.4547C294.32 76.9053 293.796 76.3137 293.299 75.6863C292.914 75.2014 292.653 74.6298 292.539 74.021C292.204 72.2589 291.547 70.5221 290.945 69.0568C290.852 68.8265 290.781 68.5875 290.735 68.3432C290.444 66.815 290.182 65.2814 289.949 63.7432L289.718 62.2842C289.151 58.7491 288.774 55.1861 288.589 51.6105V51.5263C288.567 51.289 288.567 51.05 288.589 50.8126L288.636 50.3579C288.716 49.5958 288.8 48.8 288.909 48C289.022 47.1699 289.406 46.4001 290.001 45.8104C290.596 45.2207 291.369 44.8441 292.2 44.7389C292.701 44.6947 293.177 44.5053 293.571 44.1958C294.069 43.7874 294.484 43 294.512 42.5937V42.4042C294.512 42.0253 294.566 41.6463 294.678 41.2842C294.84 40.7411 294.916 40.1747 294.905 39.6084C294.905 39.0379 294.827 38.4295 294.754 37.7768C294.699 37.2716 294.642 36.7558 294.602 36.2042C294.602 36.1032 294.592 36 294.592 35.8968C294.592 35.5179 294.602 35.1368 294.608 34.7663L294.621 34.019C294.621 33.7684 294.651 33.5221 294.701 33.2779C294.867 32.5495 294.964 31.8063 294.992 31.0611C295.004 30.6674 295.004 30.2611 295.006 29.8316C295.006 29.1095 295.006 28.3663 295.059 27.5789C295.187 25.5137 295.366 23.1074 295.838 20.7032C295.861 20.5853 295.891 20.4695 295.924 20.3537C296.329 19.0039 296.856 17.6939 297.499 16.44L297.636 16.1916L297.846 15.8126C298.025 15.5032 298.185 15.1874 298.326 14.8611C298.444 14.5832 298.594 14.3179 298.773 14.0737C299.011 13.7495 299.263 13.4 299.482 13.0632L299.766 12.6253C300.413 11.5789 301.122 10.5726 301.893 9.61263C301.977 9.50737 302.072 9.40842 302.168 9.31369C303.156 8.34737 304.175 7.47158 305.158 6.62105C305.549 6.28421 305.943 5.94526 306.331 5.60211C306.482 5.47158 306.629 5.33895 306.777 5.20632C307.478 4.55579 308.219 3.94947 308.994 3.38947C309.495 3.04 309.983 2.72421 310.459 2.42105C310.88 2.15158 311.274 1.89895 311.64 1.64421C311.685 1.59946 311.728 1.55162 311.766 1.50105C312.219 0.915789 312.834 0.47579 313.535 0.233685C314.149 0.0231581 314.608 -0.145263 315.021 -0.305263C316.832 -1.02105 318.566 -2.20632 320.402 -3.45895L321.198 -3.99789C321.345 -4.09684 321.497 -4.18526 321.655 -4.26316C322.185 -4.52 322.728 -4.75158 323.282 -4.95158C323.417 -5 323.552 -5.04211 323.691 -5.07368C325.847 -5.58561 328.045 -5.89572 330.259 -6H330.48C332.438 -5.98526 334.385 -5.83789 336.196 -5.68421C336.674 -5.64211 337.164 -5.61263 337.684 -5.57895C339.053 -5.51158 340.415 -5.37053 341.768 -5.15368C341.92 -5.12632 342.069 -5.09053 342.215 -5.04632C344.6 -4.31789 346.693 -3.27789 348.987 -2.09474C350.019 -1.56211 351.078 -1.07368 352.196 -0.557894C353.067 -0.157895 353.964 0.256843 354.857 0.696843C354.964 0.749475 355.067 0.806315 355.168 0.865263C356.198 1.50316 357.164 2.23368 358.057 3.05474L358.086 3.08C359.228 4.16597 360.429 5.18788 361.684 6.14105C362.798 6.96842 363.985 7.86737 365.12 8.85263C365.198 8.92 365.272 8.99158 365.345 9.06737C365.966 9.69895 366.545 10.3726 367.076 11.0842C367.208 11.2632 367.326 11.4547 367.425 11.6526L367.648 12.0884C367.779 12.3533 367.898 12.6237 368.004 12.8989C368.143 13.2096 368.359 13.4793 368.632 13.6821C368.821 13.8316 368.996 13.9979 369.154 14.1832L369.547 14.6463C369.771 14.92 369.954 15.2211 370.095 15.5432C370.154 15.6737 370.225 15.7979 370.312 15.9116C370.478 16.1368 370.617 16.3789 370.731 16.6337C371.299 17.9137 371.8 19.2232 372.232 20.5579C372.253 20.6274 372.274 20.6947 372.291 20.7642C372.913 23.0602 373.269 25.4204 373.352 27.7979V27.8295C373.375 28.5242 373.415 29.2126 373.457 29.9432V30.0379C373.505 30.2716 373.531 30.5095 373.535 30.7495L373.545 31.2042C373.566 31.9747 373.613 32.7537 373.665 33.5789L373.703 34.1832C373.714 34.3832 373.709 34.5853 373.691 34.7874V34.859C373.6 35.819 373.672 36.7895 373.901 37.7263C374.086 38.4126 374.076 39.1368 373.869 39.8168C373.819 39.9895 373.785 40.1663 373.766 40.3432C374.275 40.4888 374.772 40.6682 375.257 40.88C375.379 40.9221 375.501 40.9747 375.621 41.0316C376.748 41.5659 377.753 42.3271 378.573 43.2674L378.627 43.3305C378.893 43.6358 379.107 43.9832 379.263 44.3558L379.299 44.44C379.804 45.6653 380.004 46.84 380.183 47.8716V47.8989C380.261 48.3495 380.255 48.8126 380.168 49.2632L380.126 49.4968C380.074 50.7621 379.947 52.0232 379.747 53.2737C379.621 54.1368 379.501 54.9537 379.469 55.6063L379.425 56.6484C379.297 59.6526 379.152 63.0547 378 66.3284C377.67 67.226 377.254 68.089 376.756 68.9053C376.566 69.3263 376.377 69.7368 376.175 70.1284C376.125 70.2298 376.071 70.3288 376.013 70.4253C375.899 70.6088 375.782 70.79 375.661 70.9684C375.222 71.6158 374.594 72.1121 373.863 72.3895C373.177 72.979 372.411 73.4632 371.583 73.8337C370.846 74.16 370.048 74.3284 369.244 74.3284C368.599 74.3252 367.958 74.2229 367.343 74.0253C367.28 74.24 367.217 74.4611 367.137 74.6863C367.074 74.8758 367.011 75.0526 366.96 75.2126C366.916 75.4484 366.865 75.6905 366.813 75.9347C366.792 76.1179 366.754 76.301 366.707 76.4779C366.68 76.5726 366.659 76.6674 366.636 76.7579L366.598 76.9074C365.756 80.8295 365.467 84.8442 365.672 89.8358C365.756 90.1516 365.804 90.48 365.808 90.8084C365.802 91.0637 365.854 91.3171 365.96 91.5495C366.413 92.4568 366.971 92.9389 367.168 92.9916C370.067 93.8 372.68 95.0421 375.187 96.2421C375.804 96.5368 376.444 96.8421 377.063 97.1284C377.808 97.4737 378.648 97.8232 379.707 98.24L381.52 98.9347C382.152 99.1726 382.783 99.4105 383.411 99.6547L383.646 99.7474L384.406 100.053L384.722 100.181L385.463 100.497L385.775 100.632C386.154 100.8 386.499 100.954 386.815 101.103L388.335 101.825L390.427 102.815C395.429 105.168 400.6 107.604 405.606 110.227L405.724 110.291C408.137 111.682 410.486 113.183 412.762 114.787C416.208 117.667 420.202 120.518 421.884 124.903C422.048 125.476 422.152 126.061 422.196 126.657C422.232 127.101 422.246 127.549 422.24 128C422.235 128.452 422.207 128.903 422.156 129.352C420.349 133.069 418.434 137.596 415.752 141.217C415.347 141.74 414.915 142.243 414.459 142.722C410.215 146.693 404.404 147.855 398.901 148.947L397.029 149.301H397.04H397.038Z" fill="black"/>
<path d="M410.927 122.474C409.788 120.963 408.588 119.518 406.916 118.55C406.748 118.453 406.659 118.259 406.503 118.171C405.619 117.601 405.078 116.613 404.112 116.182C403.213 115.782 402.67 114.958 401.832 114.472C401.272 114.146 400.817 113.577 400.12 113.405C398.84 112.965 398.861 111.474 397.08 111.348C395.44 111.314 394.988 109.683 393.695 109.655C392.207 109.691 392.712 107.847 390.752 107.596C387.857 107.003 385.32 105.575 382.577 104.544C382.072 104.375 381.596 104.123 381.057 104.087C380.882 104.083 380.71 104.039 380.554 103.959C380.399 103.879 380.263 103.764 380.158 103.624C379.758 103.132 379.329 102.665 378.874 102.224C378.819 102.167 378.737 102.104 378.684 102.034C377.46 101.574 376.251 101.074 375.059 100.535C371.996 99.1205 369 97.5205 365.743 96.611C364.118 96.1584 362.88 94.6532 362.158 93.2047C361.795 92.4605 361.606 91.6434 361.604 90.8153C361.434 90.4 361.328 89.9613 361.289 89.5142C361.208 88.4185 361.17 87.3202 361.175 86.2216C361.057 87.4847 360.958 88.7521 361.101 90.0237C361.276 91.5353 361.291 93.0489 361.398 94.5605C361.476 95.7016 362.146 96.6131 362.324 97.6995C362.764 99.2216 367.167 98.0216 370.88 100.752C371.013 100.841 371.217 100.942 371.183 101.083C371.131 101.314 370.937 101.139 370.804 101.118C370.373 101.055 369.853 100.841 369.598 101.329C369.282 101.944 369.95 102.255 370.293 102.634C374.038 105.866 371.417 110.864 370.407 114.786C368.977 119.573 366.52 123.895 363.916 128.121C360.743 133.906 357.611 139.718 353.857 145.158C353.638 145.506 353.221 145.864 353.676 146.331H382.758C384.074 145.72 385.363 145.055 386.623 144.337C387.051 144.053 387.474 143.763 387.889 143.464C389.748 142.116 391.716 141.474 393.973 141.579C394.331 141.344 394.689 141.104 395.047 140.87C397.868 139.024 400.674 137.129 403.282 134.994C401.103 134.849 398.927 134.721 396.743 134.502C392.221 133.506 387.577 133.609 383.017 132.79C379.333 132.278 375.617 131.525 371.876 131.613C371.116 131.657 370.971 131.472 371.213 130.75C371.556 129.727 372.181 128.83 372.543 127.824C373.257 126.274 375.335 126.651 376.714 126.735C377.592 126.811 378.426 127.234 379.303 127.207C381.063 127.15 382.746 127.638 384.423 127.967C386.962 128.472 389.539 128.493 392.087 128.872C394.097 129.171 396.124 129.51 398.171 129.575C400.087 129.638 401.973 130.017 403.899 130.085C405.124 130.133 406.341 130.281 407.541 130.527L407.781 130.573C408.571 129.567 409.297 128.51 409.952 127.413C410.621 126.013 411.169 124.575 411.735 123.139C411.414 122.99 411.135 122.761 410.927 122.474ZM374.415 61.2363C374.301 62.4068 374.12 63.5732 373.868 64.7226C374.023 64.2742 374.162 63.8258 374.293 63.3753C374.773 61.0447 374.981 58.6889 375.135 56.3184C374.84 58.0026 374.529 59.67 374.415 61.2363ZM363.097 73.3942C363.503 72.2153 363.598 70.9563 364.116 69.811C364.216 69.5726 364.383 69.3681 364.596 69.2217C364.809 69.0754 365.06 68.9935 365.318 68.9858C364.786 68.7963 364.379 69.1374 364.019 70.0089C363.296 71.7597 362.754 73.5796 362.4 75.4405C362.015 77.1331 361.727 78.8489 361.537 80.5753C361.783 78.8426 362.137 77.1289 362.592 75.4405C362.636 74.7458 362.866 74.0826 363.097 73.3942ZM368.021 70.5605L368.335 70.4342C367.799 70.4041 367.275 70.2605 366.798 70.0131C367.162 70.2784 367.577 70.4658 368.019 70.5605H368.021ZM375.295 45.7542L375.278 45.7374C374.793 45.1716 374.194 44.7146 373.52 44.3963C374.994 46.07 375.583 47.9963 375.71 50.03C375.788 49.5121 375.88 48.9921 375.979 48.4763C375.826 47.5774 375.67 46.6658 375.322 45.8153C375.313 45.7951 375.304 45.7747 375.295 45.7542ZM371.868 43.8553C370.59 43.5963 369.678 43.1437 369.689 41.7647C369.369 40.7795 369.508 39.5563 369.781 38.6489C369.433 37.2744 369.322 35.8503 369.455 34.4384V34.3416C369.383 33.1479 369.297 31.9563 369.282 30.7542L369.316 32.4279C369.266 30.9079 369.148 29.4089 369.093 27.8953V27.9942C369.025 25.8542 368.706 23.7295 368.143 21.6637C367.751 20.4557 367.296 19.2688 366.781 18.1079C366.533 17.7646 366.324 17.3946 366.158 17.0047C366.051 16.8721 365.937 16.7416 365.826 16.611C365.025 15.9945 364.402 15.1775 364.019 14.2426C363.961 14.0947 363.898 13.9486 363.83 13.8047C363.762 13.6595 363.655 13.47 363.571 13.3016C363.14 12.7271 362.672 12.1821 362.169 11.67C361.133 10.7881 360.064 9.94544 358.964 9.14368C357.594 8.10738 356.283 6.99474 355.038 5.81105C354.324 5.15372 353.548 4.56581 352.722 4.05526C350.758 3.08684 348.731 2.23842 346.786 1.23421C344.798 0.206841 342.796 -0.80579 340.649 -1.46053C338.924 -1.76579 337.148 -1.79947 335.413 -1.94895C333.61 -2.11858 331.802 -2.219 329.992 -2.25C328.013 -2.16158 326.049 -1.8879 324.118 -1.43737C323.693 -1.28368 323.276 -1.10684 322.87 -0.908947C320.651 0.587895 318.463 2.17526 315.958 3.16474C315.411 3.37947 314.863 3.57526 314.31 3.76474C314.04 4.11842 313.72 4.43 313.36 4.68895C312.489 5.29526 311.571 5.83 310.697 6.44053C309.861 7.02579 309.135 7.71842 308.371 8.39C307.026 9.57737 305.634 10.7142 304.35 11.9689C303.546 12.9437 302.893 13.9984 302.198 15.07C301.933 15.4763 301.651 15.87 301.362 16.2616C301.164 16.726 300.939 17.1787 300.689 17.6174L300.343 18.2363C299.842 19.2456 299.429 20.2966 299.11 21.3774C298.695 23.4679 298.529 25.6153 298.394 27.7521C298.327 28.8721 298.367 29.99 298.335 31.1079C298.3 32.0835 298.176 33.0538 297.964 34.0068C297.954 34.63 297.941 35.251 297.935 35.8721C298.021 37.0763 298.228 38.2574 298.251 39.4721C298.268 40.4363 298.135 41.3984 297.855 42.3226C297.855 42.4784 297.853 42.6363 297.844 42.7921C297.739 44.3689 296.724 46.0889 295.524 47.0763C294.575 47.8419 293.427 48.3203 292.215 48.4553C292.093 49.3521 292.004 50.2553 291.906 51.1584C291.906 51.1963 291.916 51.2363 291.918 51.2763C292.095 54.7416 292.457 58.1963 293.007 61.6216C293.327 63.6005 293.615 65.59 293.998 67.5584C294.76 69.4005 295.434 71.2721 295.809 73.2616C296.226 73.7795 296.661 74.2805 297.127 74.7605C297.43 75.0174 297.748 75.2574 298.076 75.4805C298.954 75.8595 299.866 76.171 300.769 76.5037C301.295 76.6974 301.792 76.9605 302.244 77.2889C302.354 77.3563 302.459 77.4258 302.56 77.4995C304.034 78.5563 304.775 80.0679 305.181 81.7837C306.181 86.0026 308.076 91.4258 305.28 95.31C302.893 98.63 298.739 99.531 295.171 100.969C291.941 102.274 288.623 103.354 285.402 104.706C284.061 105.268 282.737 105.868 281.428 106.506C281.512 106.527 281.588 106.579 281.636 106.653C281.88 107.032 280.306 107.754 279.899 107.895C279.192 108.161 278.457 108.386 277.906 108.952C277.163 109.691 276.249 110.234 275.244 110.531C273.737 111.005 272.844 112.721 271.061 112.405L270.967 112.39L270.183 112.87C269.739 113.649 268.836 113.832 268.179 114.308C267.23 115.005 266.173 115.752 264.983 115.893L264.874 115.914L264.524 116.104C264.017 116.563 263.514 117.026 263.026 117.506C261.952 118.769 260.975 120.106 260.095 121.51C259.518 122.771 259.023 124.066 258.613 125.388C258.461 126.293 258.36 127.207 258.308 128.125C258.308 128.15 258.308 128.175 258.316 128.201C261.358 127.411 264.64 127.472 267.743 127.251C271.493 126.982 275.257 126.923 279.004 126.579C282.247 126.285 285.495 125.948 288.754 125.891C290.712 125.855 292.623 126.013 294.562 125.687C296.068 125.432 297.522 125.224 298.722 126.386C299.409 127.051 300.834 129.354 300.386 130.335C299.981 131.222 299.089 130.213 298.438 130.057C297.198 129.758 295.729 130.55 294.489 130.716C291.676 131.095 288.762 130.649 285.935 130.845C283.844 130.988 281.754 130.967 279.689 131.226C277.651 131.481 275.634 131.914 273.579 132.022C271.487 132.131 269.415 131.912 267.331 131.952C265.731 131.982 264.194 132.462 262.613 132.659C261.533 132.794 260.455 132.527 259.381 132.508C259.718 133.266 260.084 134.028 260.482 134.769C261.954 136.864 263.602 138.826 265.413 140.634C267.809 142.714 270.353 144.617 273.026 146.327H318.853C319.116 146.045 319.042 145.737 318.874 145.464C318.103 144.186 317.4 142.868 316.503 141.662C316.234 141.447 315.943 141.245 315.933 140.849C315.831 140.416 315.608 140.02 315.291 139.708C314.979 139.485 314.691 139.241 314.613 138.834C314.6 138.401 314.209 138.171 314.066 137.796C313.986 137.487 313.701 137.295 313.63 136.984C313.559 136.792 313.454 136.614 313.32 136.459C313.137 136.32 312.99 136.139 312.891 135.932C312.791 135.724 312.743 135.496 312.75 135.266C312.73 135.083 312.665 134.908 312.56 134.756C311.011 132.746 310.423 130.194 309.226 127.975C306.154 122.217 303.887 116.102 301.777 109.946C301.588 109.413 301.476 108.788 300.998 108.455C299.746 107.413 299.644 105.361 299.238 103.866C298.844 101.775 299.556 100.668 301.666 100.087C303.497 99.6658 303.013 98.1289 305.468 98.0679C306.28 97.9837 306.884 97.7247 306.912 96.7795C306.92 96.6192 306.983 96.4667 307.091 96.3479C307.623 95.7268 307.712 94.9795 307.68 94.2047C307.592 91.8405 307.68 89.4742 307.491 87.1016C307.364 85.4658 307.217 83.9374 306.541 82.4405C305.423 79.9858 304.899 77.3458 304.259 74.7416C303.958 73.5079 303.402 73.2489 302.249 73.6953C299.322 74.8363 296.826 72.491 297.087 69.4889C296.676 67.371 296.091 65.3058 296.07 63.091C296.049 60.8763 295 58.7753 294.779 56.5268C294.653 54.0553 292.906 47.0005 297.548 48.451C298.118 48.6826 298.769 48.5142 299 47.9395C298.716 49.0089 298.986 49.9605 299.598 50.8658C299.815 51.2174 300.072 51.4974 300.512 51.371C300.906 51.2595 300.99 50.9037 301 50.5374C300.969 47.3142 301.093 44.0953 300.895 40.87C300.775 39.1605 301.139 37.4384 301.335 35.7226C301.482 34.4405 301.63 33.1037 300.4 32.15C300.16 31.9605 300.143 31.6658 300.169 31.3647C300.303 29.79 300.533 28.2237 300.463 26.6363C300.437 26.4468 300.471 26.2537 300.56 26.0847C301.175 25.1374 301.68 24.1226 302.07 23.0616C302.324 22.3963 302.609 21.7858 302.508 21.0763C302.467 20.8731 302.49 20.6624 302.574 20.4727C302.657 20.2829 302.796 20.1233 302.973 20.0153C303.28 19.8144 303.527 19.5346 303.688 19.2052C303.849 18.8759 303.918 18.5092 303.889 18.1437C303.889 17.8932 303.832 17.5121 304.004 17.4174C305.106 16.8111 305.175 15.6911 305.621 14.6953C306.19 13.4384 307.259 12.4153 308.27 11.3942C308.851 10.8089 309.341 10.8237 309.922 11.2279C310.247 11.4532 310.594 11.7163 310.962 11.5668C311.632 11.2932 312.186 11.0489 312.558 11.9816C312.672 12.2616 313.108 12.2279 313.434 12.1711C314.226 11.87 315.287 12.3374 315.762 11.4384C316.394 10.5395 317.674 11.47 317.96 9.85947C318.066 9.16895 318.514 8.7921 319.066 8.5521C319.958 8.17316 320.659 7.54158 321.371 6.91C321.358 7.1121 321.158 7.15421 321.055 7.27842C320.724 7.67421 320.529 8.10789 320.866 8.57105C321.52 9.90158 325.695 6.24053 326.457 5.60895C327.251 4.87842 327.609 4.99421 328.08 5.96263C328.912 7.70789 330.501 5.80684 330.922 4.74158C331.007 4.52156 331.148 4.32724 331.33 4.17748C331.512 4.02772 331.73 3.9276 331.962 3.88684C331.899 4.00053 331.773 4.00474 331.668 4.04895C331.141 4.30158 330.868 4.75631 330.682 5.27421C330.293 6.07 331.272 7.00684 332.002 6.43842C332.99 5.75421 333.838 6.20474 334.746 6.64895C336.009 7.11421 336.849 6.43842 337.882 7.83631C338.092 8.03401 338.351 8.17009 338.633 8.22953C338.914 8.28897 339.207 8.26946 339.478 8.17316C340.562 7.81947 341.706 7.81737 342.815 7.60052C344.468 7.45947 344.377 6.09105 345.129 6.45947C345.735 6.85947 344.691 7.8321 345.623 8.30368C346.493 8.70579 348.002 7.81316 347.878 6.80895C347.927 6.84403 347.967 6.8898 347.995 6.94273C348.023 6.99565 348.038 7.05432 348.04 7.11421C348.173 7.84684 348.638 8.27421 349.303 8.53316C350.404 8.8721 351.04 10.3795 352.343 9.96895C352.912 9.75842 353.164 10.0068 353.375 10.4637C353.666 11.0868 354.186 11.4447 354.739 11.8489C355.988 12.7563 357.367 13.6258 357.527 15.4216C357.542 15.5823 357.602 15.7355 357.7 15.8644C357.797 15.9933 357.928 16.0929 358.078 16.1521C358.794 16.4258 359.284 16.9332 359.733 17.5226C360.032 17.9142 360.478 18.0763 360.962 18.1816C361.847 18.3711 362.221 19.1921 361.8 19.9732C361.4 20.6658 360.602 21.9037 361.71 22.3416C362.884 22.7879 362.96 23.8868 363.19 24.8405C363.295 25.2784 363.407 25.8574 363.059 26.31C362.444 27.1037 362.598 27.8174 363.215 28.5353C366.369 32.27 361.219 29.75 362.508 32.7332C362.943 33.8279 363.792 34.8258 363.741 36.0679C363.615 37.4489 363.998 38.6953 364.59 39.8932C364.767 40.251 364.832 40.5247 364.541 40.8321C364.055 41.35 364.002 41.9605 364.226 42.6026C364.379 43.0384 364.322 43.4405 364.226 43.8953C363.943 45.3689 364.358 46.7605 364.962 48.0784C365.251 48.7163 365.88 48.8595 366.388 48.4068C367.598 47.3311 369.049 46.4279 369.381 44.6321C369.407 44.4868 369.346 44.1395 369.651 44.2932C370.362 44.651 370.92 44.1668 371.552 44.0447C371.762 44.0026 371.981 43.9521 372.198 43.9247L371.868 43.8553Z" fill="black"/>
<path d="M386.238 105.191L384.743 104.486C383.413 103.854 382.045 103.313 380.672 102.789C382.466 103.73 384.356 104.454 386.238 105.189V105.191Z" fill="black"/>
<path d="M375.158 45.9263C374.684 45.1431 373.933 44.5073 372.777 44.0947C370.659 43.3452 369.105 43.5726 368.215 45.7052C367.583 47.2021 366.248 49.3326 365.036 46.96C363.825 44.5873 365.322 41.8947 365.202 39.4442C365.065 36.6315 363.272 34.3431 362.731 31.6631C362.731 31.6758 364.6 30.96 364.714 30.3831C364.903 29.3726 363.543 28.2442 363.36 27.2736C363.078 25.7515 364.244 24.2315 363.288 22.7705C362.636 21.7705 361.688 21.8821 361.827 20.4905C361.92 19.5642 362.383 18.9684 361.8 18.1494C361.131 17.2 359.579 17.0484 358.796 16.1452C356.96 14.0252 356.206 11.56 353.646 10.0484C352.349 9.29049 350.674 9.03575 349.56 7.99575C348.8 7.28417 348.406 5.83996 347.16 5.90523C347.251 6.49049 347.674 7.40838 347.082 7.85681C345.975 8.69049 345.987 7.41049 345.731 6.91786C345.16 5.82733 345.32 5.70102 344.002 6.32838C342.756 6.91786 341.669 7.58523 340.229 7.64628C337.547 7.75786 335.131 5.48207 332.349 5.80839C331.682 5.88839 330.779 6.91575 330.981 5.38733C331.112 4.39786 332.429 4.21681 332.996 3.57681C331.789 2.00628 330.246 5.55154 329.575 5.94102C328.076 6.81049 328.857 4.44207 326.954 4.79996C325.432 5.08839 324.002 6.87365 322.756 7.67996C319.688 9.66102 322.606 6.75365 322.198 6.01681C320.478 6.70733 318.762 7.66312 317.617 9.12207C317.091 9.78944 316.815 10.1494 316.072 10.6084C315.577 10.92 314.627 11.6821 314.057 11.8126C312.726 12.12 311.848 10.4715 310.552 10.3136C308.983 10.1242 307.545 11.2168 306.56 12.2968C303.928 15.1473 302.808 19.2758 301.604 22.8652C300.051 27.4947 300.404 31.2168 300.893 35.9579C301.392 40.7684 301.509 46.32 300.278 51.0336C298.886 50.101 299.267 47.8336 299.027 46.3936C298.918 49.5831 295.606 46.9958 294.333 49.1579C293.147 51.1452 294.537 55.0252 294.859 57.1157C295.392 60.6273 295.899 64.1368 296.379 67.6505C296.737 70.2989 297.116 74.4189 300.653 74.3347C302.069 74.301 303.053 73.2379 303.958 74.6884C304.678 75.8273 304.747 77.7284 305.12 79.0273C306.109 82.48 307.124 85.9389 307.402 89.5368C307.592 91.901 308.16 96.741 305.415 97.7558C304.707 98.0168 304.149 97.8189 303.528 98.3979C302.909 98.9768 303.149 99.1579 302.802 99.8336C302.171 101.061 301.543 101.958 301.295 103.392C301.141 104.293 301.091 108.244 300.08 105.97C299.747 105.223 299.642 103.756 299.771 102.943C299.939 101.855 301.861 100.663 301.564 99.8147C295.905 100.109 300.878 109.282 301.754 111.602C303.762 116.888 305.859 122.08 308.232 127.217C309.415 129.775 310.465 132.669 312.293 134.855C313.284 134.122 311.434 132.362 311.352 131.41C311.133 128.884 314.642 131.274 315.646 131.924C316.303 132.352 316.876 132.996 317.579 133.322C318.44 133.722 319.371 133.737 320.24 134.223C328.204 138.665 338.461 140.04 347.307 137.602C349.368 137.032 351.451 136.21 353.189 134.941C354.853 133.737 355.387 132.116 356.768 130.739C359.189 128.32 361.556 129.082 360.533 132.465C359.874 134.634 358.204 136.457 356.935 138.282C355.474 140.373 352.682 143.499 353.025 146.242C355.446 145.545 356.549 141.8 357.659 139.743C361.592 132.442 366.316 125.686 369.457 117.962C371.133 113.836 374.261 108.215 371.756 103.874C371.238 102.973 370.512 102.219 369.855 101.429C370.644 101.465 371.425 101.674 372.221 101.661C372.032 100.28 367.92 98.8757 366.752 98.6042C363.764 97.9094 361.952 97.8442 361.684 94.3136C361.177 87.7242 361.086 81.7663 362.596 75.2736C362.964 73.6821 363.221 71.5115 363.996 70.0652C365.354 67.5284 367.364 71.2757 369.6 70.2884C371.558 69.4252 373.244 66.96 373.937 64.9936C375.017 61.9179 375.044 58.5726 375.194 55.3515C375.347 52.4042 376.663 48.4168 375.156 45.9263H375.158Z" fill="#C4C3C6"/>
<path d="M312.295 134.922C311.969 134.089 311.571 133.274 311.344 132.413C311.118 131.554 310.087 130.322 311.009 129.874C311.859 129.463 313.181 129.907 314.301 130.541C318.588 132.96 322.666 135.642 327.68 136.802C331.628 137.712 335.434 137.874 339.392 137.954C341.101 137.987 342.866 137.587 344.512 138.002C346.091 138.402 346.819 137.27 347.817 136.642C350.407 135.011 353.784 134.758 355.853 132.312C356.516 131.524 356.653 130.432 357.287 129.638C358.428 128.206 361.198 128.215 361.864 130.063C362.451 131.691 359.249 135.638 358.474 136.96C357.558 138.533 356.611 140.084 355.668 141.64C355.344 142.175 353.322 146.314 352.878 146.314H318.855C317.209 143.68 315.71 140.962 314.009 138.383C313.457 137.24 312.682 136.158 312.295 134.922Z" fill="white"/>
<path d="M380.419 104.337C385.636 106.105 390.598 108.244 395.402 111.015C398.848 112.975 402.123 115.221 405.192 117.731C407.407 119.558 409.154 122.623 411.617 123.339C411.948 122.499 412.284 121.659 412.655 120.825C412.802 120.497 412.952 120.173 413.112 119.849C409.92 117.68 406.769 115.449 403.417 113.539C397.297 110.337 390.99 107.442 384.75 104.486C382.503 103.421 380.164 102.615 377.859 101.714C378.649 102.745 379.386 103.988 380.419 104.337ZM374.47 131.842C382.529 132.924 390.638 133.983 398.731 134.884C400.112 135.032 401.499 135.148 402.887 135.263C404.176 134.232 405.409 133.133 406.581 131.971C407.04 131.449 407.484 130.912 407.912 130.36C397.268 128.992 386.598 127.699 375.948 126.327C372.162 125.838 371.141 128.705 370.962 131.133C370.819 132.973 373.308 131.164 374.47 131.842ZM288.257 102.998C287.036 103.552 285.962 104.375 284.786 105.009C282.748 106.103 280.88 107.451 278.912 108.657C276.887 109.893 274.741 110.914 272.697 112.11C270.689 113.28 268.743 114.554 266.703 115.672C264.899 116.651 262.579 117.573 261.402 119.358C265.657 118.617 269.48 115.526 273.188 113.491C277.56 111.082 281.876 108.564 286.249 106.164C287.546 105.455 290.099 104.558 290.832 103.213C291.489 102.004 289.413 102.548 288.79 102.779C288.609 102.844 288.431 102.917 288.257 102.998Z" fill="#C4C3C6"/>
<path d="M302.871 98.9428L304.191 98.7344C301.496 101.562 301.793 103.547 301.248 107.019C301.185 107.33 300.985 107.614 300.848 107.911C300.595 107.663 300.212 107.459 300.107 107.151C298.692 103.404 298.861 101.048 302.871 98.9407V98.9428Z" fill="white"/>
<path d="M312.45 135.431L313.069 136.666L312.45 135.431ZM314.324 138.864L314.97 139.892L314.324 138.864ZM315.625 140.997L316.118 141.797L315.623 140.997H315.625ZM313.36 137.178L313.595 137.629L313.36 137.176V137.178ZM313.741 137.936L314.014 138.382L313.741 137.936Z" fill="#C4C3C6"/>
<path d="M351.922 89.8404C352.457 89.7982 353.124 90.1351 353.619 89.7877C354.92 88.8698 352.493 86.6888 354.206 85.9688C354.817 85.7119 355.756 85.0951 355.987 85.2951C356.792 85.9835 355.335 86.1751 355.43 86.7477C355.893 89.5351 354.36 92.0467 354.305 94.6972C353.783 100.466 346.823 103.468 345.162 108.817C344.783 110.024 343.722 110.674 342.632 111.162C341.935 111.478 341.194 111.666 340.518 112.036C340.198 112.213 339.821 112.434 339.634 112.76C339.444 113.087 339.47 113.653 339.907 113.71C340.211 113.748 340.585 113.466 340.83 113.331C341.209 113.112 341.754 112.668 342.225 112.794C343.074 113.021 342.314 113.819 342.002 114.125C341.183 114.952 342.225 116.162 340.929 117.167C337.063 120.184 333.754 118.453 330.465 116.424C329.448 115.796 330.162 113.866 328.573 113.192C326.547 112.335 323.969 112.051 323.036 109.664C321.552 105.861 316.674 104.984 315.512 101.518C314.301 97.9077 312.059 94.4298 312.451 90.3477C312.478 90.053 312.916 89.5667 313.15 89.5751C313.785 89.5961 314.766 89.6319 314.987 90.0172C318.154 95.6025 323.865 96.5793 329.215 98.6972C333.232 100.289 335.779 98.6551 338.907 97.3077C340.166 96.7604 341.486 96.333 342.874 96.3561C345.202 96.4109 346.6 95.3456 348.356 93.9667C349.114 93.373 350.337 93.1582 350.876 92.3035C351.413 91.4467 350.425 89.9604 351.92 89.8404H351.922Z" fill="black"/>
<path d="M332.954 85.3646C328.352 85.5667 325.413 83.8278 323.889 80.3204C326.169 80.2678 326.242 77.7394 327.861 76.7772C329.714 75.6783 331.651 76.573 333.524 75.7941C335.164 75.1141 337.586 76.0509 338.983 75.4846C341.666 74.3962 341.04 80.0109 343.847 77.432C343.994 77.2973 344.057 78.0762 343.735 78.4804C342.684 80.4804 340.882 81.7962 339.335 83.3709C337.324 85.4446 334.632 85.0762 332.952 85.3646H332.954ZM326.558 90.6488C330.032 90.9646 333.329 91.0741 336.55 90.2341C337.501 89.9857 338.272 89.1141 339.213 88.7646C340.922 88.1309 342.253 89.4846 342.764 90.5141C343.32 91.6383 341.217 91.2594 341.089 91.5036C339.567 94.3836 336.392 94.1646 334.084 95.512C331.779 96.8594 324.581 94.3478 324.221 91.7415C324.053 90.533 325.899 91.0973 326.558 90.6467V90.6488Z" fill="white"/>
<path d="M324.87 64.5729C326.876 64.6213 328.451 65.4929 330.15 66.1434C332.621 67.095 333.827 63.5876 336.392 63.7476C337.436 63.8129 338.806 63.0129 339.377 64.1729C339.844 65.1224 338.364 65.4445 337.811 66.0992C334.771 69.6887 330.758 70.2718 326.621 69.1266C325.316 68.7687 324.326 66.7118 323.556 65.2424C323.24 64.6403 324.423 64.6529 324.87 64.5729Z" fill="black"/>
<path d="M327.082 71.0348C327.289 71.039 327.493 71.0601 327.697 71.0937C332.796 71.9548 337.392 68.8327 342.421 68.8874C344.264 68.9085 345.992 69.5253 347.238 70.919C346.43 70.9948 345.609 71.2032 344.817 71.1232C340.805 70.7211 336.986 71.9864 333.07 72.3653C331.838 72.4853 330.573 72.2874 329.329 72.1759C326.318 71.9169 323.434 72.4664 320.619 73.4769C320.238 73.6159 319.798 73.6074 319.388 73.6664C319.912 72.2769 321.118 71.6432 322.516 71.4116C323.247 71.3105 323.983 71.2473 324.72 71.2222C325.516 71.1674 326.293 71.0116 327.082 71.0327V71.0348Z" fill="white"/>
<path d="M324.05 79.0275C324.001 79.0349 323.951 79.0391 323.901 79.0402C323.16 79.0633 322.368 78.817 321.64 78.6739C320.913 78.5342 320.194 78.3607 319.484 78.1539C318.064 77.7496 316.711 77.1396 315.467 76.3433C315.124 76.1188 314.791 75.8778 314.471 75.6212C313.823 75.1012 313.96 74.3896 314.429 73.8002C314.692 73.4482 315.071 73.2005 315.499 73.1012C315.793 73.0423 316.602 73.0275 316.762 73.3665C318.349 76.7118 321.052 74.476 323.206 74.6718C324.483 74.7694 325.764 74.7919 327.044 74.7391C327.688 74.7223 328.33 74.6991 328.974 74.6844C329.29 74.6844 329.623 74.6486 329.943 74.6697C330.259 74.6928 330.682 74.9812 330.252 75.2212C329.979 75.377 329.591 75.3139 329.303 75.3012C328.482 75.2718 327.669 75.4907 326.897 75.7433C325.684 76.1223 324.518 76.6381 323.305 77.0275C323.044 77.1118 323.014 77.697 323.065 77.9054C323.294 78.8444 324.471 77.6107 324.854 78.3475C325.065 78.7896 324.431 78.9791 324.05 79.0275ZM332.202 88.9244C330.446 88.5981 328.676 88.3539 326.947 87.9139C326.257 87.7391 325.823 87.0928 326.137 86.2507C326.461 85.377 327.109 85.7791 327.657 85.8928C331.297 86.6654 335.073 86.4612 338.608 85.2991C340.061 84.8318 340.13 86.0086 340.427 86.5202C340.791 87.137 339.838 87.1307 339.433 87.2233C337.054 87.7918 334.774 88.9075 332.202 88.9244Z" fill="black"/>
<path d="M371.146 109.436C371.413 110.922 370.268 112.335 368.632 113.297C368.466 113.394 367.074 111.882 366.651 110.939C366.002 109.495 365.666 107.897 365.287 106.354C365.211 106.047 365.541 105.331 365.68 105.331C366.821 105.341 368.141 105.141 369.028 105.663C370.072 106.274 371.129 107.293 371.146 109.436Z" fill="white"/>
<path d="M345.772 75.1405C345.254 75.3089 344.856 75.2037 344.098 74.7468C343.397 74.3195 342.915 74.3679 342.101 74.3258C341.826 74.3115 341.557 74.2407 341.31 74.118C341.064 73.9952 340.846 73.823 340.669 73.6121C341.81 72.5384 343.423 72.4732 344.894 72.391C345.52 72.3616 348.442 71.6753 348.475 72.5721C348.528 73.9047 346.863 74.7974 345.772 75.1405Z" fill="black"/>
<path d="M296.168 48.7867C296.507 48.7593 296.848 48.7656 297.189 48.7993C297.745 48.9909 298.234 49.3446 298.592 49.814C299.328 50.7509 299.596 51.9677 300.112 53.0245C299.771 53.4372 298.307 51.673 297.96 51.3298C297.2 50.5782 296.303 49.8519 295.64 49.0182C295.522 48.8793 295.808 48.8119 296.166 48.7867H296.168Z" fill="white"/>
<path d="M352.038 71.7547C352.055 71.9968 351.739 72.3063 351.56 72.3926C351.428 71.8937 350.849 71.4979 350.485 71.1716C350.188 70.9021 349.449 70.439 349.377 70.0074C349.314 69.6284 350.194 68.8874 350.546 68.9926C351.693 69.3358 351.933 70.3926 352.04 71.7547H352.038ZM300.493 56.5674C300.589 56.7007 300.643 56.8591 300.649 57.0231C300.656 57.187 300.614 57.3492 300.529 57.4895C300.282 57.8748 300.011 58.2453 299.718 58.5968C299.381 58.2811 299.181 58.1442 299.476 57.7526C299.773 57.359 300.104 56.839 300.493 56.5695V56.5674Z" fill="black"/>
<path d="M371.792 131.465C376.036 131.303 380.156 132.202 384.301 132.884C390.644 133.922 397.122 134.113 403.541 134.724C404.594 133.85 405.613 132.939 406.581 131.968C406.912 131.589 407.227 131.208 407.533 130.827C396.792 129.635 386.063 128.183 375.027 126.804C372.307 126.577 372.143 129.134 371.246 130.924C371.206 130.983 371.604 131.471 371.794 131.465H371.792ZM300.695 130.501C299.901 128.663 299.878 126.101 297.152 126.174C285.366 126.981 273.918 127.886 262.461 128.482C261.086 128.553 259.737 128.692 258.404 128.892C258.495 129.591 258.615 130.288 258.762 130.983C259.044 131.745 259.364 132.478 259.71 133.208C268.91 131.903 278.324 132.728 287.552 131.734C291.72 131.284 295.893 130.614 300.12 131.014C300.301 131.033 300.726 130.57 300.695 130.501Z" fill="white"/>
<path d="M332.415 41.908C332.162 40.1585 331.383 37.2722 333.832 36.9669C335.754 36.7248 336.836 35.3059 338.592 35.148C347.676 34.2069 353.175 31.0427 357.263 41.5964C358.453 44.0659 360.533 46.1227 359.143 49.2006C358.84 49.8701 358.251 50.169 357.964 49.769C354.581 44.7459 351.722 54.9627 340.497 50.4048C339.63 50.0575 338.367 49.5543 339.019 48.0469C338.943 47.3817 337.832 47.668 337.352 47.6196C336.815 47.9985 337.851 49.369 338.002 49.9017C334 49.8069 332.019 45.6659 332.415 41.908ZM303.737 48.9901C304.781 45.6322 303.649 40.308 307.891 36.8975C310.394 34.8827 313.487 36.6238 316.306 36.3753C319.476 36.0981 322.652 36.8496 325.362 38.5185C328.558 40.4532 327.291 43.2911 327.009 46.0217C326.79 48.1438 325.567 49.7796 324.849 51.6532C324.148 53.4974 322.602 52.0659 321.508 52.5732C316.417 54.9185 310.863 53.1648 305.562 54.1417C303.87 54.4575 303.567 51.8869 303.737 48.9901ZM322.093 61.0406C322 60.5038 321.861 60.2132 321.946 60.1059C322.533 59.3817 323.169 58.6932 323.788 57.9922C323.95 58.1396 324.261 58.4027 324.251 58.4132C323.619 59.2196 322.962 60.0027 322.093 61.0406ZM332.695 80.8196C330.706 80.8301 329.432 80.9459 328.19 79.4301C328.836 79.6217 329.489 79.9922 330.124 79.9669C332.377 79.8701 334.781 80.6785 336.819 78.9901C336.954 78.8785 337.331 79.0575 337.594 79.1017C336.703 80.6701 333.826 80.8701 332.697 80.8196H332.695Z" fill="#C4C3C6"/>
<path d="M343.122 35.6002C345.593 35.3855 348.052 35.1034 350.526 35.0107C351.111 34.9855 352.055 35.4613 352.236 35.937C352.566 36.7834 351.779 36.3013 351.452 36.2655C349.77 35.697 349.05 35.617 347.758 37.217C346.463 38.7665 343.175 38.1665 341.556 39.756C342.368 40.137 343.229 40.4023 344.116 40.5476C343.722 40.7349 343.316 40.8907 342.897 41.0107C341.198 41.3686 340.01 42.5476 338.812 43.6339C337.332 44.977 335.423 44.3413 334.871 43.4444C334.303 42.4928 334.871 40.5728 336.772 40.1518C336.962 40.1097 337.273 39.6465 337.215 39.5244C335.025 34.7434 339.181 36.5328 340.962 35.9392C341.633 35.7118 342.398 35.7497 343.122 35.6802V35.5981V35.6002ZM346.21 43.0486C347.89 42.977 349.486 43.2381 350.975 44.0697C351.596 44.4192 352.427 44.5328 352.461 45.4381C352.461 45.5792 351.943 45.8592 351.659 45.8697C350.876 45.897 349.882 46.5728 349.459 45.2213C349.311 44.7539 348.821 44.4444 348.419 44.8949C346.257 47.3139 344.356 48.7392 342.025 44.836C341.467 43.8991 340.021 45.6992 339.151 46.4192C338.57 46.9013 338.01 47.217 337.53 46.756C337.002 46.2423 337.699 45.7728 338.055 45.4592C340.393 43.396 343.278 43.116 346.208 43.0486H346.21ZM350.905 41.5918C351.179 41.5244 351.375 41.8549 351.528 42.0255C351.73 42.2381 351.943 42.4402 352.17 42.6276C352.604 43.0065 353.063 43.3876 353.486 43.7686C353.092 44.2592 352.273 43.3792 351.964 43.1434C351.45 42.7644 350.903 42.4086 350.427 41.9792C350.448 42.0149 350.827 41.6128 350.905 41.5918Z" fill="black"/>
<path d="M345.568 42.4011C344.952 42.5127 344.331 42.5021 344.11 42.1169C343.998 41.9274 344.032 41.8284 344.225 41.719C344.376 41.6366 344.542 41.5858 344.714 41.5695C345.097 41.5379 345.484 41.5821 345.853 41.6958C346.025 41.7379 346.194 41.7884 346.362 41.8369C346.457 41.8642 346.825 42.0432 346.905 42.0095C346.474 42.1843 346.026 42.3155 345.568 42.4011ZM340.4 45.879C340.267 45.6579 341.444 44.9674 341.747 45.1042C342.204 45.3127 342.364 46.2958 342.126 46.6832C341.728 47.319 340.773 46.3316 340.415 45.8874C340.411 45.8883 340.408 45.8883 340.404 45.8874C340.401 45.8852 340.399 45.8823 340.398 45.879H340.4ZM321.505 47.5127C321.625 47.3127 320.564 46.6916 320.291 46.8137C319.878 47.0032 319.735 47.8874 319.954 48.239C320.312 48.8074 321.175 47.919 321.501 47.519L321.505 47.5127Z" fill="white"/>
<path d="M325.739 43.9371C325.688 44.0255 325.596 44.4571 325.339 44.6086C323.739 45.5686 322.133 44.9392 320.897 44.0529C316.764 41.0908 312.735 41.4634 309.213 45.3455C308.941 45.6465 308.48 45.7729 308.107 45.9813C308.2 45.516 308.147 44.9371 308.408 44.6065C309.865 42.775 311.893 41.8508 314.086 41.2171C314.406 41.1244 314.678 40.876 314.973 40.7013C313.629 40.2044 312.202 40.7139 310.819 40.5981C309.587 40.5371 307.53 41.1686 307.297 40.0423C306.77 37.5034 309.328 37.0381 310.825 37.3792C313.413 37.9497 315.783 36.8865 318.288 37.1644C321.278 37.495 325.714 41.1476 325.739 43.935V43.9371Z" fill="black"/>
<path d="M316.83 44.8052C318.567 45.1673 322.451 44.4262 323.493 47.2346C321.666 47.0599 320.405 44.9799 318.908 47.7125C318.034 49.2957 315.866 49.8704 314.112 48.0409C313.733 47.6473 313.541 46.8473 312.729 47.182C311.868 47.5357 312.463 48.1504 312.411 48.6915C312.293 49.9273 311.512 48.7546 311.038 48.7778C310.066 48.8304 309.074 48.5673 308.091 48.4388C310.565 45.8136 312.828 44.6957 316.83 44.8052Z" fill="black"/>
<path d="M315.08 44.3781H315.046C314.634 44.3444 314.299 44.0876 313.935 43.915C314.787 43.4855 315.602 42.9402 316.501 42.6602C317.217 42.435 317.585 43.1192 317.886 43.6939C317.352 43.8392 316.817 43.9781 316.282 44.1276C315.891 44.2413 315.493 44.4118 315.08 44.3802V44.3781ZM296.568 57.4834C297.503 56.7865 299.611 56.6539 298.4 54.7002C297.143 52.6729 296.105 54.9402 295.158 55.2897C295.036 55.3318 294.931 55.3697 294.838 55.395C295.027 56.755 295.211 58.1171 295.373 59.4834C295.764 62.7802 296.133 66.0665 296.977 69.2813C297.293 70.2497 297.682 71.1929 298.141 72.1023L298.819 71.9971C300.149 71.7865 300.465 71.256 299.72 69.9802C298.888 68.5529 300.6 67.4897 300.545 66.0329C300.505 64.9697 300.507 63.9044 299.596 63.4855C298.737 63.0981 298.225 63.9444 297.893 64.7781C297.754 65.1318 297.286 65.3486 296.971 65.6371C296.836 65.2055 296.543 64.755 296.592 64.3465C296.781 62.7192 298.152 61.0539 296.019 59.5929C295.535 59.2518 295.766 58.0876 296.568 57.4834ZM371.025 59.0476C370.183 58.2876 369.219 57.6076 368.528 56.7192C367.838 55.8308 367.168 54.1171 366.314 54.5444C365.257 55.0729 365.84 56.675 366.189 57.9044C366.592 59.3192 366.952 60.8644 366.779 62.2918C366.653 63.395 367.651 62.9107 367.905 63.6392C368.533 65.4392 366.152 66.6139 367.215 68.2013C368.314 69.8371 369.895 69.3108 371.411 68.8371C371.626 68.7823 371.848 68.7631 372.069 68.7802C372.158 68.6497 372.242 68.5171 372.326 68.3823C373.032 66.9718 373.623 65.5108 374.099 64.0097C373.975 64.157 373.821 64.2762 373.647 64.3593C373.473 64.4424 373.283 64.4876 373.091 64.4918C372.853 64.5086 372.577 63.9929 372.318 63.7297L374.356 61.776L374.533 62.0834C374.912 59.7739 375.069 57.4392 375.213 55.1002C375.107 55.0729 375.023 54.9613 375.023 54.7634C375.023 54.416 375.265 54.0265 375.259 53.6476C375.252 53.3183 375.176 52.994 375.036 52.696C374.76 52.1023 374.276 51.6308 373.832 51.1592C373.389 50.6897 372.926 50.2202 372.659 49.6223C372.154 48.5002 371.198 48.7171 370.432 49.5171C369.716 50.2644 369.385 51.9381 370.12 52.1802C372.781 53.0602 373.516 54.1865 371.722 56.595C371.244 57.2329 371.242 58.2202 371.025 59.0476Z" fill="white"/>
<path d="M318.352 35.2909C316.512 35.232 314.672 35.3225 312.84 35.4278C311.417 35.512 309.636 35.872 308.295 35.2383C308.632 34.4214 309.944 33.6425 310.657 33.0909C311.658 32.3566 312.392 31.3159 312.748 30.1267C313.219 28.5899 313.064 26.5541 311.954 25.2741C310.242 23.3036 307.962 24.552 306.127 25.5562C303.247 27.1267 303.068 24.5941 303.531 22.3604C304.082 19.6972 304.851 15.5014 307.371 14.053C308.815 13.2257 310.413 13.8888 311.958 13.8993C315.322 13.9204 317.575 11.1351 320.701 10.4467C322.701 10.0046 324.752 9.94987 326.775 9.68461C328.544 9.45303 330.017 8.66145 331.718 8.18987C333.701 7.6425 335.813 8.4004 337.697 8.99408C339.891 9.68882 342.259 10.3751 344.577 10.3814C346.893 10.3857 349.365 9.71829 351.539 10.752C353.125 11.5099 354.179 12.9393 355.129 14.3625C356.16 15.9057 357.348 17.4046 358.213 19.0446C358.794 20.1393 360.15 23.5772 358.685 24.5183C358.156 24.8551 357.527 24.4172 356.973 24.3709C356.137 24.2951 355.71 24.693 355.19 25.2762C354.337 26.2278 353.318 26.7836 352.137 27.2257C351.257 27.5562 349.371 28.0572 350.297 29.3436C350.63 29.8025 351.167 30.1225 351.55 30.5393C353.019 32.1393 354.712 33.7857 356.028 35.5078C356.765 36.4678 357.384 37.5078 358.076 38.4951C358.51 39.1141 359.91 40.3962 359.788 41.2046C359.558 42.6951 358.344 40.8741 358.139 40.4888C357.682 39.632 357.27 38.752 356.809 37.8993C355.925 36.2825 354.84 34.653 353.114 33.8446C350.026 32.4004 345.788 33.1288 342.541 33.6236C340.177 33.9857 338.005 35.0446 335.699 35.6046C334.436 35.9099 332.935 36.0615 331.971 37.0257C330.245 38.7351 332.005 41.1393 332.16 43.0804C332.571 48.253 335.68 49.853 340.75 50.4593C345.402 51.013 349.71 51.0615 354.171 49.5415C356.108 48.8804 357.135 50.9436 358.175 52.3772C358.731 53.1351 360.053 52.4846 360.581 53.7457C361.495 55.9372 359.56 57.7246 360.07 60.0088C360.369 61.3541 352.219 63.5625 350.375 62.7309C348.135 61.7204 345.828 60.4278 343.308 60.3941C343.853 60.3941 344.318 61.8362 344.356 62.2362C344.397 62.5912 344.339 62.9506 344.19 63.2751C344.04 63.5996 343.804 63.8767 343.508 64.0762C342.259 64.9141 341.548 63.8867 341.701 62.6278C341.912 61.17 341.664 59.6828 340.99 58.373C340.531 57.5183 339.981 56.5751 339.16 56.0214C338.522 55.5878 337.737 55.7583 337.807 56.6404C337.876 57.5751 339.074 58.3036 339.579 59.0046C340.057 59.6699 341.173 61.0636 340.28 61.8025C338.891 62.9436 336.125 61.2025 334.51 61.893C332.419 62.7857 330.137 62.3983 327.954 62.2341C326.851 62.152 325.735 62.1204 324.645 62.3372C324 62.4636 323.154 62.8214 322.554 62.3646C321.918 61.8762 322.659 60.4783 323.144 60.0699C325.174 58.3648 326.575 56.0297 327.125 53.4362C327.567 51.3583 327.236 49.2299 327.314 47.1288C327.375 45.2993 328.173 43.6025 328.15 41.7814C328.066 36.672 323.261 35.4446 318.352 35.2909Z" fill="white"/>
<path d="M311.886 53.7088C313.406 53.5425 315.206 53.4478 316.96 53.1383C320.573 52.5025 322.438 53.2583 321.579 57.5678C320.653 62.2415 315.215 66.5194 310.8 65.5804C307.838 64.951 303.575 59.5804 304.686 57.4857C306.074 54.8962 308.417 53.2941 311.886 53.7088ZM301.432 45.8331C301.458 44.1834 301.535 42.5349 301.663 40.8899C301.698 40.6148 301.804 40.3536 301.971 40.132C302.326 39.612 302.981 40.3383 303.128 40.7004C303.206 40.9467 303.213 41.2099 303.149 41.4604C303.114 41.6941 302.939 42.2731 303.366 42.1425C303.601 42.0491 303.815 41.9103 303.996 41.7341C304.128 41.6162 304.267 41.5088 304.413 41.4099C304.318 41.6478 304.427 41.9004 304.425 42.1446C304.425 42.8436 304.099 43.5383 303.918 44.2078C303.475 45.8872 303.157 47.5971 302.966 49.3236C302.707 51.4583 302.545 53.6099 302.219 55.7404C302.166 56.0983 302.211 56.5467 302.011 56.8667C301.684 57.3973 301.442 56.2078 301.432 55.9867C301.404 53.3699 301.408 50.751 301.408 48.1341C301.411 47.3678 301.419 46.6015 301.429 45.8331H301.432ZM363.558 43.172C363.453 43.7552 363.229 44.9404 363.008 46.1257C361.518 45.031 360.918 43.431 360.829 41.6983C360.775 40.6962 360.291 38.8478 361.857 39.0078C363.457 39.1762 363.478 41.092 363.56 43.172H363.558Z" fill="white"/>
<path d="M313.381 52.6795C313.174 52.6681 312.968 52.6456 312.764 52.6121C311.433 52.1595 308.878 52.9679 308.972 51.3574C309.078 49.5195 311.442 51.231 312.673 50.6584C314.309 49.8984 315.966 50.49 317.614 50.4689C317.827 50.4689 318.042 50.6247 318.254 50.711C317.947 51.0479 317.697 51.5784 317.32 51.6942C315.905 52.1279 314.452 52.4226 313.383 52.6795H313.381ZM344.995 50.2837C343.08 50.2037 341.092 50.3805 339.741 48.9258C341.315 48.9574 342.886 48.9847 344.461 49.0184C344.642 49.0289 344.821 49.0605 344.995 49.1089C346.099 49.3826 348.195 48.5784 348.124 49.6795C348.046 50.8437 346.099 50.0837 344.995 50.2837Z" fill="black"/>
</g>
<rect x="258" y="-14" width="156" height="156" rx="78" stroke="black" stroke-width="4"/>
<g clip-path="url(#clip2_5989_327372)">
<rect x="72" y="336" width="48" height="48" rx="24" fill="#DEE3E9"/>
<path d="M95.9998 363.919C100.713 363.919 104.533 360.099 104.533 355.386C104.533 350.673 100.713 346.853 95.9998 346.853C91.287 346.853 87.4665 350.673 87.4665 355.386C87.4665 360.099 91.287 363.919 95.9998 363.919Z" fill="#A7AEB7"/>
<path d="M81.0664 378.853C81.0664 372.962 85.842 368.186 91.733 368.186H100.266C106.157 368.186 110.933 372.962 110.933 378.853V399.653C110.933 405.544 106.157 410.319 100.266 410.319H91.733C85.842 410.319 81.0664 405.544 81.0664 399.653V378.853Z" fill="#A7AEB7"/>
</g>
<g clip-path="url(#clip3_5989_327372)">
<rect x="88" y="80" width="64" height="64" rx="32" fill="#DEE3E9"/>
<path d="M120 117.225C126.284 117.225 131.378 112.131 131.378 105.847C131.378 99.5637 126.284 94.4697 120 94.4697C113.716 94.4697 108.622 99.5637 108.622 105.847C108.622 112.131 113.716 117.225 120 117.225Z" fill="#A7AEB7"/>
<path d="M100.089 137.136C100.089 129.282 106.456 122.914 114.311 122.914H125.689C133.544 122.914 139.911 129.282 139.911 137.136V164.87C139.911 172.725 133.544 179.092 125.689 179.092H114.311C106.456 179.092 100.089 172.725 100.089 164.87V137.136Z" fill="#A7AEB7"/>
</g>
<g clip-path="url(#clip4_5989_327372)">
<rect x="304" y="377" width="96" height="96" rx="48" fill="#DEE3E9"/>
<path d="M352.001 432.837C361.426 432.837 369.067 425.196 369.067 415.771C369.067 406.345 361.426 398.704 352.001 398.704C342.575 398.704 334.934 406.345 334.934 415.771C334.934 425.196 342.575 432.837 352.001 432.837Z" fill="#A7AEB7"/>
<path d="M322.134 462.704C322.134 450.922 331.685 441.371 343.467 441.371H360.534C372.316 441.371 381.867 450.922 381.867 462.704V504.305C381.867 516.087 372.316 525.637 360.534 525.637H343.467C331.685 525.637 322.134 516.087 322.134 504.305V462.704Z" fill="#A7AEB7"/>
</g>
<defs>
<clipPath id="clip0_5989_327372">
<rect x="168" y="216" width="112" height="112" rx="56" fill="white"/>
</clipPath>
<clipPath id="clip1_5989_327372">
<rect x="256" y="-16" width="160" height="160" rx="80" fill="white"/>
</clipPath>
<clipPath id="clip2_5989_327372">
<rect x="72" y="336" width="48" height="48" rx="24" fill="white"/>
</clipPath>
<clipPath id="clip3_5989_327372">
<rect x="88" y="80" width="64" height="64" rx="32" fill="white"/>
</clipPath>
<clipPath id="clip4_5989_327372">
<rect x="304" y="377" width="96" height="96" rx="48" fill="white"/>
</clipPath>
</defs>
</svg>
