<svg width="391" height="168" viewBox="0 0 391 168" fill="none" xmlns="http://www.w3.org/2000/svg">
<g clip-path="url(#clip0_6332_284158)">
<path d="M191 128C191 105.908 208.908 88 231 88C253.092 88 271 105.908 271 128C271 150.092 253.092 168 231 168C208.908 168 191 150.092 191 128Z" fill="#FFE538"/>
<path d="M234.952 190.4C229.005 190.282 223.032 190.101 217.037 189.251C216.468 189.159 215.901 189.053 215.338 188.932C212.496 188.353 209.759 187.34 207.222 185.931C206.163 185.447 205.113 184.945 204.071 184.425C203.464 184.193 202.861 183.951 202.261 183.7C198.684 182.17 195.385 180.163 193.007 176.939C192.652 176.48 192.334 175.995 192.051 175.489C191.155 173.852 190.67 172.022 190.638 170.156C190.578 169.581 190.588 169 190.667 168.427C190.75 167.832 190.924 167.253 191.183 166.711C192.811 163.447 196.974 163.447 199.751 161.853C200.323 161.595 200.894 161.337 201.462 161.07C202.605 160.542 203.728 159.973 204.83 159.364C205.194 159.158 205.567 158.947 205.931 158.726C207.391 157.777 208.888 156.8 210.456 155.923C210.977 155.63 211.504 155.35 212.037 155.082C214.165 154.018 217.242 153.837 217.965 152.566C220.137 148.578 216.518 143.682 215.612 139.004C215.236 138.468 214.989 137.852 214.889 137.204C214.814 136.674 214.79 136.137 214.817 135.602V135.523L214.73 135.423C211.379 135.315 209.482 131.616 209.12 129.92C209.025 129.471 208.966 129.037 208.908 128.618C208.853 128.109 208.757 127.604 208.624 127.11C208.568 126.929 208.424 126.59 208.284 126.257C207.68 124.806 207.26 123.719 207.379 122.689C207.473 121.799 207.867 120.968 208.496 120.332C208.395 120.114 208.31 119.889 208.241 119.659C208.129 119.579 208.026 119.487 207.932 119.385C207.278 118.678 207.341 117.824 207.368 117.459V117.19C207.34 116.721 207.344 116.252 207.379 115.784C206.97 115.461 206.692 115.002 206.596 114.49L206.063 114.342V113.095C206.029 112.787 206.063 112.475 206.162 112.182C206.262 111.889 206.425 111.621 206.639 111.397C206.639 111.226 206.616 111.013 206.605 110.853C206.576 110.557 206.561 110.26 206.561 109.963V109.826C206.327 109.584 206.147 109.295 206.035 108.978C205.831 108.416 205.352 106.533 207.625 105.633C207.625 105.599 207.643 105.564 207.65 105.533C207.776 105.035 207.987 104.199 208.777 103.659C209.195 103.38 209.689 103.236 210.191 103.249C210.372 103.249 210.537 103.263 210.669 103.274C210.857 103.158 211.038 103.032 211.211 102.895C211.338 102.29 211.724 101.65 212.66 101.2C212.866 100.895 213.124 100.629 213.423 100.413C213.526 100.339 213.576 100.304 213.641 100.05C213.602 99.9031 213.572 99.7544 213.551 99.6043C213.344 98.0643 214.141 97.2654 214.634 96.9022C214.975 96.6621 215.375 96.5175 215.791 96.4833C215.907 96.3759 216.034 96.2811 216.167 96.199C216.841 95.7906 217.575 95.7906 217.977 95.7906H218.45C218.698 95.7211 218.94 95.6327 219.175 95.5275C219.639 95.319 220.124 95.159 220.622 95.0506C221.047 94.9705 221.48 94.9325 221.912 94.9369C222.325 94.9369 222.714 94.9643 223.09 94.9896C223.406 95.0106 223.702 95.0327 223.97 95.0327C224.046 95.0327 224.095 95.0148 224.408 94.8285C224.848 94.5443 225.33 94.3327 225.838 94.2011C226.364 94.0712 226.904 94.004 227.446 94.0011C227.961 93.9969 228.472 94.0717 228.964 94.2222C229.238 94.3138 229.501 94.4306 229.754 94.5696C230.207 94.3254 230.712 94.1927 231.228 94.1822C231.491 94.1822 231.755 94.2222 232.007 94.3001C232.266 94.3811 232.51 94.5043 232.73 94.6633C233.011 94.659 233.291 94.6896 233.565 94.7538C233.854 94.8306 234.136 94.9327 234.407 95.0569L234.491 95.0927C234.844 94.8611 235.256 94.7348 235.678 94.7296C236.503 94.7296 237.064 95.2285 237.351 95.498C237.588 95.4959 237.825 95.5201 238.055 95.5727L238.12 95.5896C238.815 95.7506 239.535 95.9517 240.032 96.5401C240.138 96.6611 240.228 96.7927 240.304 96.9348C241.192 97.0306 242.149 97.6243 242.37 99.0306C242.642 99.0021 242.915 98.9866 243.188 98.9843C243.747 98.9603 244.301 99.1032 244.779 99.3948C246.034 100.226 245.865 101.572 245.808 102.024C246.256 102.021 246.692 102.154 247.061 102.405C248.196 103.213 248.087 104.21 247.987 104.599C247.916 104.903 247.769 105.185 247.559 105.416C247.683 105.577 247.787 105.753 247.87 105.938C248.044 106.369 248.137 106.827 248.144 107.292C248.144 107.336 248.144 107.392 248.152 107.441C248.479 107.531 248.779 107.698 249.025 107.93C249.272 108.162 249.458 108.45 249.568 108.771C249.662 109.038 249.701 109.322 249.684 109.605V109.642C249.686 109.958 249.619 110.27 249.489 110.557C249.358 110.845 249.167 111.1 248.928 111.306L248.961 111.35C249.796 112.461 249.714 113.39 249.504 113.976C249.313 114.483 248.955 114.91 248.487 115.185C248.487 115.73 248.498 116.273 248.502 116.817C248.831 116.996 249.129 117.23 249.381 117.507C250.571 118.82 250.43 120.736 250.378 121.455V121.513C250.39 121.864 250.381 122.216 250.347 122.565C250.331 122.736 250.322 122.907 250.32 123.078C250.33 124.094 249.295 127.45 249.021 128.032C248.529 128.98 247.986 129.901 247.392 130.79C247.382 130.806 246.555 131.932 245.458 132.491V135.42C245.456 135.455 245.456 135.49 245.458 135.524C245.483 135.95 245.422 136.377 245.277 136.777C245.403 137.051 245.468 137.349 245.47 137.651C245.307 138.062 245.126 138.425 245.126 138.787C245.307 139.785 245.511 140.737 245.715 141.667C245.816 142.131 245.919 142.591 246.017 143.045C246.739 145.497 246.377 148.579 248.548 150.211C248.91 150.574 249.997 150.211 250.72 150.574C251.172 150.785 251.616 151.016 252.067 151.254C253.131 151.858 254.214 152.412 255.311 152.917C255.86 153.17 256.412 153.412 256.967 153.641C258.166 154.134 259.389 154.563 260.634 154.925C261.837 155.143 263.045 155.374 264.252 155.652C264.856 155.782 265.454 155.925 266.046 156.08C269.767 156.743 274.008 158.358 276.945 160.996C277.431 161.432 277.884 161.901 278.303 162.401C280.579 164.717 281.484 168.343 281.122 171.607C280.76 175.415 277.865 178.316 274.638 180.287C274.113 180.612 273.569 180.904 273.009 181.164C271.865 181.694 270.665 182.091 269.431 182.349C269.07 182.542 268.708 182.735 268.364 182.917C266.228 184.049 264.006 185.01 261.719 185.792C256.762 187.393 248.706 189.995 237.577 190.358C236.721 190.386 235.846 190.401 234.952 190.401V190.4Z" fill="black"/>
<path d="M248.074 153.523C246.497 152.979 244.477 152.376 243.998 150.352C243.829 149.954 243.69 149.544 243.581 149.126C243.364 148.295 243.234 147.445 243.191 146.588C243.15 145.778 243.515 144.981 243.355 144.177C243.332 143.962 243.256 143.755 243.134 143.576C242.818 143.779 242.801 144.194 242.625 144.53C242.34 145.073 241.72 145.295 241.402 145.835C241.125 146.315 241.1 146.899 240.586 147.22C239.94 147.622 239.12 147.503 238.457 147.962C237.47 148.641 236.688 149.557 235.671 150.203C235.179 150.515 234.661 150.783 234.122 151.003C229.135 153.393 224.893 147.922 223.886 143.481C223.886 143.886 223.481 144.493 223.281 144.29C222.07 144.09 222.675 141.459 220.951 142.566C220.733 143.049 220.636 143.578 220.671 144.107C220.801 146.482 221.033 148.769 221.107 151.117C221.122 151.587 221.13 152.058 221.13 152.533C221.261 153.596 221.06 154.809 220.253 155.615C218.031 157.84 212.58 159.257 214.397 162.687C216.82 167.137 222.675 167.542 226.713 170.777C227.318 171.386 227.721 172.194 228.287 172.912C228.684 173.48 229.117 174.021 229.582 174.535C230.487 175.497 231.49 176.167 232.768 176.24C233.419 176.272 234.07 176.19 234.693 175.998C235.313 175.803 235.905 175.528 236.453 175.178C237.049 174.82 237.632 174.44 238.201 174.039C238.765 173.639 239.313 173.22 239.846 172.771C240.299 172.37 240.751 171.961 241.193 171.547C241.605 171.147 242.028 170.768 242.459 170.392C242.89 170.016 243.315 169.65 243.743 169.281C246.501 166.731 249.935 164.709 251.751 161.068C252.962 158.64 252.356 155.403 249.922 154.046C249.316 153.882 248.69 153.746 248.075 153.523H248.074Z" fill="#C4C3C6"/>
<path d="M244.069 130.929C243.657 130.877 243.672 131.147 243.672 131.434C243.672 132.747 243.684 134.06 243.672 135.373C243.672 135.719 243.744 136.053 243.427 136.393C243.246 136.59 243.047 137.119 243.57 137.404C243.686 137.468 243.729 137.686 243.613 137.747C243.086 138.02 243.296 138.504 243.284 138.891C243.242 140.406 243.244 141.92 243.23 143.436C243.036 143.67 242.929 143.963 242.925 144.267C242.899 144.574 242.848 144.911 242.619 145.106C241.885 145.719 241.31 146.374 241.135 147.388C241.059 147.827 240.479 147.784 240.082 147.769C239.582 147.752 239.272 147.843 238.833 148.259C238.056 148.993 237.217 149.634 236.62 150.553C236.406 150.88 235.946 150.79 235.581 150.823C234.707 150.899 233.836 150.994 233.295 151.833C233.265 151.894 233.218 151.946 233.161 151.981C233.103 152.017 233.036 152.036 232.968 152.036C231.435 151.892 229.968 152.538 228.463 152.465C227.197 152.404 226.147 151.499 225.001 151.076C223.527 150.532 222.487 149.777 221.85 148.307C221.354 147.152 220.8 146.023 220.192 144.924C219.578 143.827 219.218 142.636 218.628 141.539C218.312 140.949 217.854 140.431 217.605 139.805C217.379 139.237 217.482 138.487 217.114 137.992C216.438 137.086 216.636 136.024 216.614 135.003C216.614 134.725 216.714 134.362 216.235 134.359C215.954 134.148 215.892 133.769 215.624 133.551C215.157 133.036 215.262 132.339 215.119 131.739C214.875 130.773 214.525 129.814 214.52 128.796V128.003C214.536 127.736 214.505 127.468 214.429 127.211C214.299 126.874 214.169 126.574 213.717 126.87C213.355 127.104 212.935 127.112 212.836 126.642C212.736 126.17 212.139 125.652 212.77 125.104C213.494 124.469 213.494 124.116 212.796 123.418C212.097 122.72 211.418 121.891 210.367 121.618C210.334 121.316 210.334 121.012 210.367 120.71C210.547 119.868 209.673 119.244 209.93 118.397C209.933 118.36 209.924 118.323 209.904 118.293C209.885 118.262 209.855 118.238 209.821 118.225C209.798 118.216 209.774 118.213 209.749 118.214C208.921 118.316 209.162 117.709 209.147 117.292C209.107 116.789 209.107 116.282 209.147 115.779C209.225 115.169 209.055 114.672 208.556 114.381C208.164 114.153 208.375 113.857 208.333 113.591C208.312 113.458 208.36 113.27 208.301 113.144C208.24 113.018 207.824 112.898 207.824 112.898C207.736 112.491 208.201 112.473 208.324 112.054C208.505 111.447 208.314 110.562 208.324 109.93C208.324 109.688 208.448 109.147 208.324 108.928C208.132 108.565 207.828 108.682 207.687 108.296C207.301 107.229 208.338 107.389 208.866 106.936C209.439 106.451 209.285 105.403 209.756 105.081C210.086 104.853 210.765 105.147 211.17 104.966C211.576 104.785 212.98 103.892 212.932 103.416C212.875 102.763 213.514 102.85 213.883 102.461C214.125 102.212 214.158 102.027 214.487 101.798C215.096 101.354 215.307 100.853 215.454 100.14C215.534 99.7534 215.408 99.7082 215.343 99.2555C215.289 98.8766 215.316 98.5419 215.662 98.3008C215.954 98.0976 216.214 98.2682 216.498 98.1797C216.903 98.0534 216.838 97.8166 217.098 97.6608C217.515 97.4071 218.266 97.5829 218.8 97.4713C219.549 97.3103 220.219 96.8755 220.972 96.7303C221.945 96.5492 222.993 96.7429 223.976 96.7471C224.993 96.7471 225.397 96.0734 226.277 95.8629C226.985 95.6913 227.774 95.6408 228.448 95.8513C228.838 95.9745 229.248 96.2987 229.643 96.3555C230.337 96.4534 230.822 95.7134 231.506 95.925C231.738 95.9966 231.905 96.2355 232.162 96.3176C232.469 96.4155 232.843 96.3282 233.162 96.4082C233.782 96.564 234.236 97.0008 234.917 96.7903C235.737 96.5366 235.574 96.1471 236.198 96.7355C236.395 96.9176 236.263 97.0282 236.56 97.1608C236.809 97.2713 237.373 97.1471 237.682 97.2219C237.937 97.284 238.541 97.4029 238.714 97.6082C238.885 97.8134 238.7 98.0955 238.85 98.304C239.503 99.2113 240.569 97.9019 240.661 99.3924C240.718 100.356 240.65 100.719 241.699 100.787C242.189 100.819 243.45 100.539 243.842 100.798C244.341 101.128 243.966 101.749 244.061 102.263C244.189 102.761 244.345 103.251 244.529 103.731C244.892 104.076 245.735 103.563 246.062 103.797C246.786 104.312 245.539 104.16 245.367 104.341C244.962 104.751 245.333 105.8 245.63 106.092C245.858 106.316 246.102 106.233 246.27 106.608C246.42 106.945 246.354 107.528 246.452 107.907C246.546 108.258 246.618 108.77 246.945 108.996C247.273 109.22 247.949 108.901 247.924 109.456C247.912 109.704 247.924 109.919 247.574 109.922C247.054 109.922 246.779 110.296 246.729 110.74C246.687 111.117 246.527 111.578 247.066 111.869C247.255 112.017 247.421 112.19 247.561 112.385C248.058 113.046 247.995 113.55 247.199 113.729C246.825 113.813 246.696 113.88 246.704 114.273C246.736 115.586 246.734 116.899 246.744 118.211C245.839 118.664 245.445 119.503 245.055 120.366C244.736 121.069 244.817 121.636 245.543 121.96C246.328 122.322 246.628 122.913 246.59 123.731C246.57 124.213 246.772 124.638 246.884 125.102C247.025 125.688 246.923 126.19 246.234 126.351C245.91 126.442 245.617 126.619 245.387 126.865C245.295 126.965 245.173 127.033 245.039 127.058C244.906 127.083 244.767 127.064 244.645 127.004C244.318 126.853 244.379 126.574 244.464 126.311C244.686 125.62 244.647 124.871 244.356 124.206C244.339 126.092 244.396 128.101 244.356 130.111C244.364 130.26 244.343 130.409 244.294 130.549C244.245 130.689 244.169 130.819 244.069 130.929Z" fill="black"/>
<path d="M212.081 122.498C212.419 122.936 212.923 123.211 213.246 123.659C213.843 124.49 213.662 125.038 212.779 125.483C213.287 126.374 212.882 127.273 214.179 126.189C214.965 127.057 214.688 128.798 214.916 129.907C215.154 131.047 215.919 132.334 215.537 133.511C212.58 134.171 211.04 130.334 210.868 129.511C210.662 128.525 210.627 127.496 210.325 126.53C210.061 125.674 209.042 123.761 209.146 122.843C209.239 122.02 210.159 120.012 212.081 122.498ZM244.155 130.881L244.137 130.86C243.878 130.55 244.077 129.634 244.094 129.265C244.134 128.439 244.074 127.606 244.043 126.779C244.013 125.994 243.995 125.208 243.99 124.422C243.99 124.105 243.896 123.436 244.115 123.173C244.477 122.731 244.536 123.566 244.591 123.804C244.772 124.578 245.291 125.436 244.889 126.249C244.783 126.462 244.431 126.647 244.742 126.832C245.103 127.05 245.136 126.621 245.226 126.432C245.514 125.833 246.391 126.366 246.626 125.815C246.766 125.491 246.424 125.046 246.353 124.738C246.29 124.331 246.258 123.92 246.258 123.509C246.195 122.62 245.855 122.445 245.101 122.13C244.196 121.744 244.466 120.872 244.776 120.154C245.043 119.531 245.259 118.785 245.873 118.417C246.151 118.249 246.467 118.152 246.791 118.134C249.121 118.185 248.576 121.176 248.602 121.485C248.639 122.005 248.539 122.524 248.545 123.043C248.545 123.606 247.677 126.654 247.414 127.213C247.136 127.81 246.147 129.423 245.966 129.679C245.717 130.026 244.503 131.256 244.156 130.881H244.155Z" fill="#C4C3C6"/>
<path d="M247.936 121.017C247.906 121.82 247.879 122.625 247.842 123.431C247.842 123.594 247.873 123.841 247.662 123.86C247.259 123.897 247.42 123.439 247.356 123.283C247.261 123.093 247.214 122.882 247.219 122.669C247.332 121.414 247.672 120.432 246.516 120.528C246.089 120.562 245.696 120.496 245.751 119.893C245.805 119.291 246.293 119.403 246.656 119.395H246.836C247.101 119.397 247.354 119.501 247.543 119.685C247.732 119.87 247.842 120.12 247.85 120.384C247.85 120.598 247.879 120.812 247.936 121.017Z" fill="black"/>
<path d="M223.385 122.71C223.393 122.732 223.396 122.756 223.392 122.78C223.388 122.803 223.379 122.825 223.364 122.843C223.261 123.009 222.763 122.961 222.606 122.968C221.701 123.017 220.775 123.253 219.89 123.446C219.25 123.586 218.624 123.844 218.345 124.48C218.268 124.662 218.236 124.854 218.148 125.024C218.062 125.195 217.889 125.322 217.922 125.499C217.972 125.777 218.349 125.787 218.563 125.767C218.885 125.715 219.195 125.594 219.468 125.414C219.868 125.191 220.303 125.04 220.755 124.966C221.708 124.829 222.675 124.785 223.637 124.836C224.031 124.848 224.512 124.973 224.904 124.879C225.255 124.796 225.32 124.475 225.584 124.288C225.997 123.996 226.639 124.434 227.05 124.04C227.249 123.847 227.206 123.516 227.05 123.303C226.847 123.016 226.447 123.022 226.168 122.845C225.833 122.629 225.74 122.248 225.597 121.902C225.527 121.711 225.421 121.536 225.284 121.386C225.146 121.237 224.98 121.116 224.796 121.031C224.021 120.678 223.002 120.705 222.175 120.798C221.269 120.899 220.483 121.322 219.612 121.548C218.772 121.767 218.025 121.955 217.3 122.455C216.947 122.702 215.87 123.973 215.605 123.129C215.222 121.813 214.933 120.471 214.741 119.114C214.636 118.474 214.543 117.806 214.66 117.16C214.71 116.844 214.827 116.541 215.002 116.271C215.182 115.995 215.507 115.8 215.606 115.468C215.75 114.988 215.406 114.479 215.441 113.99C215.456 113.79 215.484 113.446 215.69 113.35C216.002 113.193 216.164 113.533 216.205 113.779C216.386 114.831 216.896 113.844 217.403 113.661C217.765 113.53 218.11 113.535 218.436 113.307C218.762 113.081 218.979 112.778 219.245 112.518C219.511 112.259 219.833 112.09 220.224 112.23C220.557 112.348 220.801 112.467 221.143 112.291C221.721 111.993 222.08 111.287 222.513 110.821C222.671 110.65 222.985 110.027 223.253 110.036C223.485 110.036 223.38 110.317 223.321 110.469C223.198 110.785 223.085 111.126 222.942 111.43C222.799 111.736 222.45 111.957 222.318 112.288C222.212 112.551 222.258 112.92 222.609 112.796C222.902 112.693 223.037 112.333 223.302 112.183C223.483 112.076 223.822 112.058 223.898 112.311C223.956 112.493 223.778 112.743 223.698 112.898C223.566 113.149 223.359 113.803 223.912 113.608C224.157 113.524 224.497 112.957 224.776 113.064C224.978 113.142 224.882 113.51 225.052 113.588C225.287 113.694 225.513 112.911 225.584 112.753C225.876 112.079 226.223 111.287 226.786 110.798C227.088 110.533 227.509 110.435 227.761 110.105C228.037 109.742 228.123 109.601 228.576 109.483C228.966 109.38 229.023 109.184 229.247 108.89C229.5 108.56 229.789 108.733 230.138 108.663C230.556 108.582 230.586 108.137 230.729 107.807C230.913 107.45 231.205 107.16 231.565 106.981C232.785 106.276 234.28 106.042 235.473 106.896C236.724 107.786 237.389 109.277 238.421 110.379C238.882 110.87 239.404 111.303 239.831 111.829C240.266 112.406 240.591 113.058 240.792 113.751C241.091 114.658 241.353 115.636 241.277 116.589C241.245 117.002 241.135 117.403 241.097 117.817C241.076 118.065 241.097 118.462 240.812 118.577C240.631 118.649 240.253 118.475 240.136 118.682C239.983 118.951 240.438 118.954 240.581 118.979C240.858 119.028 241.17 119.262 240.861 119.523C240.617 119.734 240.187 119.644 239.899 119.616C239.257 119.566 238.611 119.615 237.983 119.759C237.327 119.895 236.663 120.096 235.991 120C235.64 119.949 235.325 119.777 234.978 119.719C234.422 119.624 233.881 119.9 233.336 119.965C232.899 120.001 232.467 120.07 232.043 120.178C231.576 120.303 231.102 120.317 230.632 120.419C230.494 120.439 230.367 120.509 230.277 120.616C230.188 120.724 230.141 120.861 230.146 121.001C230.115 121.341 230.279 121.817 230.009 122.098C229.875 122.238 229.235 122.206 229.24 122.445C229.24 122.59 229.663 122.668 229.743 122.835C229.875 123.115 229.761 123.494 229.838 123.795C229.897 124.035 229.989 124.263 230.067 124.497C230.105 124.613 230.158 125.041 230.266 125.099C230.51 125.233 230.538 124.627 230.584 124.493C230.931 123.508 231.388 124.976 231.636 125.139C231.884 125.302 232.179 125.089 232.419 125.002C232.718 124.894 233.087 124.821 233.177 124.473C233.268 124.125 233.069 123.747 233.438 123.536C233.757 123.355 234.283 123.445 234.628 123.443C235.637 123.443 236.643 123.494 237.649 123.498C238.604 123.498 239.544 123.355 240.496 123.316C240.767 123.307 241.106 123.3 241.317 123.498C241.449 123.621 241.472 124.105 241.641 124.129C242.081 124.19 241.749 122.788 241.822 122.542C241.895 122.296 242.144 122.108 242.378 122.296C242.559 122.443 242.559 122.769 242.573 122.982C242.616 123.43 242.709 123.873 242.727 124.322C242.745 124.773 242.727 125.2 242.184 125.185C241.822 125.175 241.877 125.305 242.003 125.617C242.164 125.98 242.245 126.373 242.24 126.768C242.261 127.615 242.165 128.46 241.956 129.28C241.696 130.186 241.172 130.678 240.622 131.387C240.204 131.93 239.552 132.736 238.785 132.447C238.147 132.208 237.761 131.496 237.084 131.345C236.361 131.185 235.715 131.78 234.995 131.754C234.753 131.743 234.517 131.694 234.27 131.699C234.101 131.699 233.88 131.773 233.727 131.654C233.53 131.494 233.688 131.144 233.407 131.061C233.168 130.989 232.818 131.229 232.593 131.293C232.231 131.4 231.857 131.429 231.507 131.584C230.724 131.921 230.041 132.439 229.175 132.562C228.308 132.685 227.546 132.38 226.721 132.138C226.419 132.05 225.997 131.956 225.772 132.251C225.548 132.547 225.73 132.978 225.272 133.124C224.877 133.255 224.378 133.167 223.965 133.185C223.506 133.196 223.053 133.277 222.62 133.427C221.822 133.717 221.251 134.268 220.639 134.828C220.327 135.111 220.032 135.233 219.618 135.107C219.219 134.988 218.828 134.842 218.449 134.67C217.712 134.329 217.411 133.363 217.109 132.676C216.886 132.206 216.698 131.722 216.545 131.225C216.412 130.754 216.402 130.259 216.264 129.791C215.982 128.839 215.26 128.114 215.237 127.071C215.226 126.61 215.376 126.165 215.456 125.717C215.548 125.19 215.383 123.473 216.328 123.865C216.663 124.005 216.912 124.284 217.301 124.248C217.69 124.211 217.955 123.913 218.227 123.671C218.905 123.069 219.782 122.81 220.666 122.702C221.389 122.61 222.186 122.477 222.913 122.52C223.042 122.551 223.331 122.583 223.385 122.71ZM230.461 136.61H231.236C231.647 136.653 232.063 136.622 232.464 136.524C232.609 136.475 232.826 136.271 232.979 136.289C233.13 136.308 233.236 136.509 233.382 136.567C234.003 136.814 234.98 136.288 235.302 137.169C235.386 137.368 235.416 137.586 235.388 137.8C235.36 138.014 235.275 138.217 235.143 138.387C234.493 139.193 233.964 139.348 232.924 138.703C232.595 138.497 232.21 138.394 231.822 138.409C230.347 138.409 228.872 138.389 227.4 138.409C227.001 138.409 226.605 138.349 226.236 138.529C225.867 138.708 225.576 138.928 225.17 138.788C224.909 138.698 224.944 138.487 225.17 138.411C225.34 138.354 225.665 138.44 225.667 138.165C225.667 137.541 226.06 137.328 226.572 137.117C227.249 136.822 227.974 136.654 228.711 136.622C229.298 136.635 229.88 136.611 230.461 136.611V136.61Z" fill="#C4C3C6"/>
<path d="M236.524 121.271H236.587C236.935 121.31 237.287 121.258 237.635 121.31C237.961 121.369 238.262 121.519 238.507 121.742C238.634 121.872 238.771 121.994 238.918 122.104C239.076 122.17 239.24 122.217 239.408 122.241C239.545 122.282 239.663 122.41 239.571 122.555C239.421 122.794 238.961 122.697 238.771 122.591C238.285 122.304 237.726 122.163 237.161 122.187C236.175 122.211 235.182 122.247 234.197 122.244C233.986 122.244 233.473 122.214 233.558 121.87C233.616 121.62 234.036 121.628 234.231 121.612C234.721 121.574 235.168 121.368 235.648 121.27C235.938 121.224 236.234 121.225 236.524 121.271ZM241.465 120.022C241.498 119.903 241.42 119.675 241.674 119.692C241.839 119.703 241.835 119.873 241.829 119.995C241.824 120.117 241.873 120.358 241.625 120.347C241.464 120.337 241.473 120.171 241.465 120.023V120.022Z" fill="#C4C3C6"/>
<path d="M211.787 123.722C211.731 124.085 211.745 124.362 211.483 124.487C211.302 124.578 211.132 124.456 210.982 124.321C210.801 124.153 210.579 124.02 210.39 123.855C210.01 123.523 210.167 123.104 210.359 122.806C210.792 122.138 210.866 122.974 211.136 123.044C211.53 123.145 211.867 123.318 211.788 123.722H211.787Z" fill="black"/>
<path d="M214.011 131.624C213.458 131.902 213.267 131.43 213.038 131.08C212.832 130.776 212.611 130.425 213.023 130.111C213.536 129.726 213.803 130.088 214.034 130.487C214.244 130.863 214.555 131.242 214.01 131.624H214.011Z" fill="white"/>
<path d="M246.699 121.788C246.657 121.91 246.743 122.139 246.5 122.136C246.332 122.136 246.363 121.955 246.357 121.835C246.357 121.694 246.28 121.481 246.538 121.483C246.699 121.486 246.699 121.647 246.699 121.789V121.788Z" fill="black"/>
<path d="M225.062 120.406C223.433 120.137 221.95 119.891 220.403 120.406C219.253 120.79 218.956 121.3 218.254 121.132C217.552 120.963 217.182 120.315 216.82 119.695C216.525 119.191 215.518 117.287 216.278 115.389C216.442 114.983 216.651 114.463 217.183 114.132C217.544 113.9 218.01 113.796 219.87 114.132C221.438 114.415 222.114 114.676 223.632 114.858C224.771 114.992 225.047 114.927 225.244 114.858C226.095 114.555 226.223 113.9 227.215 112.883C227.939 112.143 228.596 111.738 229.363 111.267C230.655 110.477 231.301 110.079 232.23 110.011C233.858 109.889 235.096 110.819 235.455 111.088C236.251 111.691 236.869 112.497 237.246 113.422C236.394 115.449 236.547 116.731 236.884 117.55C237.098 118.059 237.466 118.592 237.246 118.986C237.025 119.379 236.371 119.336 235.455 119.349C233.129 119.369 231.862 119.38 230.617 119.893C229.741 120.255 229.469 120.618 228.467 120.799C227.875 120.902 227.27 120.902 226.678 120.799C226.147 120.639 225.608 120.508 225.062 120.406ZM227.401 122.837C227.298 122.9 227.114 123.064 227.012 124.212C226.955 124.93 226.955 125.652 227.012 126.37C227.117 128.232 227.192 128.757 226.815 129.115C226.634 129.282 226.604 129.186 226.032 129.508C225.339 129.897 224.977 130.102 224.857 130.489C224.696 131.011 225.015 131.736 225.445 131.862C225.785 131.962 225.959 131.615 226.815 131.469C227.177 131.409 227.371 131.377 227.599 131.469C228.03 131.65 227.961 132.025 228.38 132.253C228.801 132.483 229.485 132.396 229.753 132.057C229.9 131.868 229.798 131.766 229.947 131.468C230.201 130.97 230.637 130.98 230.73 130.685C230.853 130.297 230.186 129.994 229.753 129.311C229.265 128.562 229.298 127.75 229.36 126.174C229.418 124.707 229.665 124.39 229.36 123.816C228.943 123.043 227.894 122.534 227.402 122.837H227.401Z" fill="white"/>
<path d="M219.665 134.995C218.997 134.966 218.564 134.189 217.958 133.095C217.391 132.074 216.802 130.982 216.821 129.486C216.821 128.932 216.845 127.564 217.579 127.207C218.036 126.984 218.337 127.362 219.284 127.388C219.962 127.415 220.495 127.207 221.56 126.82C223.045 126.276 223.295 125.913 224.215 125.87C224.655 125.852 225.3 125.826 225.73 126.251C226.223 126.729 226.286 127.626 225.92 128.53C223.782 129.021 222.909 129.907 222.508 130.618C221.941 131.619 222.162 132.534 221.182 133.847C220.821 134.332 220.311 135.022 219.665 134.995ZM232.716 128.794C233.902 129.541 234.255 129.086 235.46 129.777C236.307 130.274 237.041 130.943 237.615 131.74C238.158 132.487 238.281 133.01 238.791 133.115C239.383 133.241 239.958 132.713 240.163 132.525C240.647 132.08 240.912 131.539 241.339 129.777C241.789 127.914 242.008 126.97 241.73 126.439C241.265 125.546 240.215 125.247 239.575 125.064C238.777 124.836 237.856 124.908 236.048 125.064C234.068 125.235 233.941 125.4 233.109 125.26C232.171 125.102 231.723 124.791 231.344 125.064C230.856 125.427 230.944 126.419 231.149 127.029C231.476 127.997 232.272 128.515 232.716 128.794ZM193.401 170.177C193.47 169.615 193.808 167.795 195.211 166.536C196.872 165.055 198.468 165.74 201.875 164.109C203.18 163.483 202.683 163.508 204.902 162.295C206.827 161.236 207.303 161.16 210.756 159.463C212.781 158.467 213.792 157.971 213.986 157.845C215.191 157.062 215.951 156.337 217.217 156.226C217.764 156.182 218.314 156.252 218.832 156.43C219.1 157.441 219.369 158.453 219.64 159.463C220.958 161.437 222.304 163.392 223.677 165.328C226.98 169.988 228.382 171.62 230.54 173.017C232.046 173.985 233.118 174.674 234.578 174.634C235.758 174.603 237.283 174.091 241.241 169.173C244.879 164.64 249.757 158.58 248.299 154.608C248.151 154.206 247.756 153.324 248.099 152.99C248.578 152.52 250.088 153.574 252.337 154.608C253.992 155.368 255.458 155.79 258.394 156.631C261.955 157.654 262.012 157.325 265.055 158.25C267.051 158.868 269.007 159.612 270.91 160.475C273.719 161.692 275.145 162.32 276.159 163.306C276.723 163.851 278.51 165.586 278.782 168.161C278.844 168.728 279.001 170.881 276.973 173.825C272.415 180.423 261.698 183.988 261.228 184.141C254.843 186.201 245.26 189.194 231.355 188.585C224.751 188.297 214.958 187.765 204.708 182.112C202.382 180.83 192.746 175.514 193.401 170.177Z" fill="white"/>
</g>
<rect x="193" y="90" width="76" height="76" rx="38" stroke="black" stroke-width="4"/>
<g clip-path="url(#clip1_6332_284158)">
<rect x="311" y="32" width="48" height="48" rx="24" fill="#DEE3E9"/>
<path d="M335 59.9182C339.713 59.9182 343.534 56.0977 343.534 51.3849C343.534 46.6721 339.713 42.8516 335 42.8516C330.287 42.8516 326.467 46.6721 326.467 51.3849C326.467 56.0977 330.287 59.9182 335 59.9182Z" fill="#A7AEB7"/>
<path d="M320.067 74.8515C320.067 68.9606 324.843 64.185 330.734 64.185H339.267C345.158 64.185 349.934 68.9606 349.934 74.8515V95.6518C349.934 101.543 345.158 106.318 339.267 106.318H330.734C324.843 106.318 320.067 101.543 320.067 95.6518V74.8515Z" fill="#A7AEB7"/>
</g>
<g clip-path="url(#clip2_6332_284158)">
<rect x="104" y="88" width="24" height="24" rx="12" fill="#DEE3E9"/>
<path d="M116 101.959C118.356 101.959 120.267 100.049 120.267 97.6924C120.267 95.336 118.356 93.4258 116 93.4258C113.643 93.4258 111.733 95.336 111.733 97.6924C111.733 100.049 113.643 101.959 116 101.959Z" fill="#A7AEB7"/>
<path d="M108.533 109.426C108.533 106.48 110.921 104.092 113.867 104.092H118.133C121.079 104.092 123.467 106.48 123.467 109.426V119.826C123.467 122.771 121.079 125.159 118.133 125.159H113.867C110.921 125.159 108.533 122.771 108.533 119.826V109.426Z" fill="#A7AEB7"/>
</g>
<g clip-path="url(#clip3_6332_284158)">
<rect width="48" height="48" rx="24" fill="#DEE3E9"/>
<path d="M24.0003 27.9182C28.7131 27.9182 32.5336 24.0977 32.5336 19.3849C32.5336 14.6721 28.7131 10.8516 24.0003 10.8516C19.2875 10.8516 15.467 14.6721 15.467 19.3849C15.467 24.0977 19.2875 27.9182 24.0003 27.9182Z" fill="#A7AEB7"/>
<path d="M9.06689 42.8515C9.06689 36.9606 13.8425 32.185 19.7335 32.185H28.2669C34.1579 32.185 38.9335 36.9606 38.9335 42.8515V63.6518C38.9335 69.5429 34.1579 74.3183 28.2669 74.3183H19.7335C13.8425 74.3183 9.06689 69.5429 9.06689 63.6518V42.8515Z" fill="#A7AEB7"/>
</g>
<defs>
<clipPath id="clip0_6332_284158">
<rect x="191" y="88" width="80" height="80" rx="40" fill="white"/>
</clipPath>
<clipPath id="clip1_6332_284158">
<rect x="311" y="32" width="48" height="48" rx="24" fill="white"/>
</clipPath>
<clipPath id="clip2_6332_284158">
<rect x="104" y="88" width="24" height="24" rx="12" fill="white"/>
</clipPath>
<clipPath id="clip3_6332_284158">
<rect width="48" height="48" rx="24" fill="white"/>
</clipPath>
</defs>
</svg>
