<svg width="328" height="488" viewBox="0 0 328 488" fill="none" xmlns="http://www.w3.org/2000/svg">
<g clip-path="url(#clip0_6332_284079)">
<path d="M80 272C80 227.817 115.817 192 160 192C204.183 192 240 227.817 240 272C240 316.183 204.183 352 160 352C115.817 352 80 316.183 80 272Z" fill="#FFE538"/>
<path d="M167.905 396.8C156.01 396.564 144.065 396.202 132.073 394.501C130.935 394.318 129.802 394.105 128.675 393.863C122.991 392.705 117.518 390.68 112.444 387.861C110.327 386.893 108.226 385.889 106.143 384.851C104.929 384.385 103.722 383.901 102.522 383.4C95.3681 380.339 88.7702 376.326 84.0144 369.878C83.305 368.96 82.6671 367.99 82.1029 366.977C80.3095 363.704 79.3391 360.044 79.2755 356.312C79.1556 355.161 79.1753 354.001 79.3344 352.855C79.4999 351.664 79.8479 350.506 80.366 349.421C83.6229 342.895 91.9471 342.895 97.5029 339.705C98.646 339.19 99.7871 338.674 100.924 338.139C103.21 337.084 105.457 335.946 107.661 334.729C108.387 334.316 109.134 333.895 109.863 333.453C112.783 331.554 115.777 329.6 118.911 327.847C119.953 327.259 121.008 326.699 122.073 326.164C126.33 324.036 132.484 323.674 133.93 321.133C138.273 313.156 131.035 303.364 129.225 294.009C128.472 292.936 127.977 291.704 127.779 290.409C127.629 289.348 127.58 288.275 127.633 287.204V287.047L127.461 286.846C120.758 286.63 116.964 279.232 116.24 275.84C116.05 274.941 115.932 274.074 115.817 273.236C115.705 272.217 115.515 271.209 115.248 270.219C115.137 269.857 114.848 269.179 114.568 268.514C113.36 265.613 112.52 263.438 112.758 261.377C112.946 259.598 113.733 257.936 114.991 256.663C114.79 256.228 114.619 255.778 114.482 255.318C114.258 255.157 114.051 254.974 113.865 254.771C112.555 253.356 112.682 251.649 112.737 250.918V250.379C112.681 249.443 112.688 248.504 112.758 247.569C111.94 246.923 111.384 246.003 111.191 244.979L110.126 244.684V242.19C110.058 241.574 110.126 240.951 110.325 240.364C110.524 239.777 110.849 239.241 111.278 238.794C111.278 238.453 111.231 238.025 111.21 237.705C111.151 237.114 111.122 236.521 111.122 235.927V235.653C110.654 235.169 110.295 234.59 110.069 233.956C109.663 232.832 108.705 229.065 113.25 227.265C113.25 227.198 113.286 227.129 113.301 227.065C113.551 226.07 113.974 224.398 115.553 223.318C116.39 222.76 117.378 222.473 118.383 222.497C118.745 222.497 119.073 222.527 119.339 222.548C119.713 222.316 120.075 222.063 120.423 221.79C120.675 220.579 121.448 219.299 123.32 218.4C123.732 217.79 124.248 217.257 124.846 216.825C125.052 216.678 125.151 216.609 125.282 216.099C125.204 215.806 125.144 215.509 125.103 215.209C124.688 212.129 126.282 210.531 127.267 209.804C127.951 209.324 128.75 209.035 129.583 208.967C129.814 208.752 130.067 208.562 130.334 208.398C131.682 207.581 133.149 207.581 133.953 207.581H134.901C135.395 207.442 135.88 207.265 136.349 207.055C137.278 206.638 138.248 206.318 139.244 206.101C140.095 205.941 140.959 205.865 141.825 205.874C142.65 205.874 143.427 205.929 144.181 205.979C144.812 206.021 145.404 206.065 145.941 206.065C146.092 206.065 146.189 206.03 146.817 205.657C147.697 205.089 148.661 204.665 149.675 204.402C150.728 204.142 151.808 204.008 152.892 204.002C153.922 203.994 154.945 204.143 155.928 204.444C156.475 204.628 157.002 204.861 157.507 205.139C158.414 204.651 159.425 204.385 160.457 204.364C160.983 204.364 161.509 204.444 162.014 204.6C162.532 204.762 163.021 205.009 163.461 205.327C164.023 205.318 164.583 205.379 165.13 205.508C165.707 205.661 166.271 205.865 166.814 206.114L166.983 206.185C167.688 205.722 168.511 205.47 169.355 205.459C171.006 205.459 172.128 206.457 172.703 206.996C173.177 206.992 173.65 207.04 174.109 207.145L174.24 207.179C175.629 207.501 177.069 207.903 178.065 209.08C178.275 209.322 178.457 209.585 178.608 209.87C180.385 210.061 182.299 211.249 182.741 214.061C183.284 214.004 183.83 213.973 184.377 213.969C185.495 213.921 186.602 214.206 187.558 214.79C190.067 216.453 189.73 219.143 189.617 220.049C190.511 220.042 191.385 220.308 192.122 220.811C194.391 222.425 194.174 224.419 193.974 225.198C193.833 225.807 193.538 226.369 193.118 226.832C193.366 227.154 193.574 227.505 193.741 227.876C194.088 228.737 194.273 229.655 194.288 230.583C194.288 230.672 194.288 230.783 194.305 230.882C194.958 231.061 195.557 231.397 196.051 231.86C196.544 232.324 196.917 232.901 197.137 233.541C197.324 234.076 197.402 234.644 197.368 235.211V235.284C197.372 235.916 197.239 236.54 196.978 237.115C196.717 237.689 196.334 238.2 195.857 238.613L195.922 238.699C197.591 240.922 197.427 242.779 197.008 243.952C196.627 244.967 195.909 245.821 194.974 246.371C194.974 247.459 194.995 248.545 195.004 249.634C195.663 249.992 196.259 250.459 196.762 251.015C199.143 253.64 198.861 257.472 198.755 258.91V259.025C198.781 259.729 198.762 260.432 198.694 261.131C198.662 261.472 198.643 261.814 198.64 262.156C198.661 264.188 196.589 270.899 196.042 272.063C195.058 273.96 193.971 275.802 192.785 277.579C192.764 277.613 191.109 279.863 188.915 280.981V286.84C188.912 286.91 188.912 286.979 188.915 287.049C188.966 287.899 188.844 288.754 188.553 289.554C188.806 290.101 188.937 290.697 188.941 291.301C188.614 292.124 188.252 292.851 188.252 293.575C188.614 295.571 189.023 297.474 189.429 299.335C189.631 300.261 189.838 301.181 190.033 302.091C191.478 306.994 190.753 313.158 195.097 316.421C195.821 317.148 197.993 316.421 199.44 317.148C200.345 317.571 201.231 318.032 202.134 318.508C204.263 319.716 206.427 320.823 208.623 321.834C209.72 322.339 210.825 322.823 211.934 323.282C214.331 324.268 216.779 325.126 219.267 325.851C221.673 326.286 224.09 326.748 226.505 327.303C227.711 327.564 228.907 327.851 230.092 328.16C237.534 329.487 246.017 332.716 251.89 337.992C252.863 338.863 253.768 339.802 254.606 340.802C259.158 345.434 260.968 352.687 260.244 359.215C259.52 366.83 253.73 372.632 247.275 376.575C246.225 377.223 245.138 377.809 244.019 378.329C241.73 379.388 239.33 380.181 236.863 380.697C236.141 381.084 235.417 381.47 234.728 381.834C230.456 384.098 226.012 386.02 221.438 387.583C211.524 390.785 195.412 395.99 173.153 396.716C171.442 396.773 169.692 396.802 167.905 396.802V396.8Z" fill="black"/>
<path d="M194.147 323.047C190.993 321.958 186.953 320.752 185.996 316.704C185.658 315.908 185.379 315.088 185.162 314.251C184.729 312.59 184.467 310.889 184.383 309.175C184.301 307.556 185.029 305.963 184.709 304.354C184.664 303.923 184.512 303.51 184.267 303.152C183.636 303.558 183.602 304.388 183.25 305.059C182.68 306.146 181.44 306.59 180.804 307.67C180.25 308.63 180.2 309.798 179.172 310.44C177.88 311.245 176.24 311.007 174.913 311.925C172.941 313.283 171.377 315.114 169.343 316.407C168.358 317.03 167.322 317.567 166.244 318.007C156.269 322.786 147.785 311.845 145.772 302.963C145.772 303.771 144.962 304.986 144.562 304.579C142.141 304.179 143.349 298.918 139.903 301.131C139.465 302.097 139.271 303.156 139.343 304.213C139.602 308.965 140.065 313.537 140.215 318.234C140.244 319.173 140.261 320.116 140.261 321.066C140.522 323.192 140.12 325.617 138.505 327.23C134.063 331.681 123.16 334.514 126.793 341.373C131.64 350.274 143.349 351.085 151.425 357.554C152.636 358.771 153.442 360.388 154.575 361.824C155.368 362.961 156.233 364.043 157.164 365.07C158.975 366.994 160.981 368.333 163.537 368.481C164.838 368.544 166.14 368.38 167.385 367.996C168.625 367.607 169.809 367.056 170.905 366.356C172.098 365.64 173.264 364.88 174.402 364.078C175.53 363.278 176.625 362.441 177.692 361.542C178.598 360.739 179.503 359.923 180.385 359.093C181.21 358.293 182.057 357.535 182.918 356.784C183.781 356.032 184.629 355.299 185.486 354.563C191.002 349.462 197.869 345.417 201.503 338.135C203.924 333.281 202.711 326.807 197.844 324.091C196.631 323.765 195.381 323.491 194.149 323.047H194.147Z" fill="#C4C3C6"/>
<path d="M186.139 277.859C185.314 277.754 185.343 278.295 185.343 278.87C185.343 281.495 185.368 284.12 185.343 286.748C185.343 287.438 185.488 288.108 184.855 288.788C184.493 289.182 184.095 290.238 185.141 290.809C185.373 290.937 185.459 291.373 185.225 291.495C184.173 292.04 184.592 293.009 184.568 293.784C184.484 296.813 184.488 299.84 184.461 302.872C184.073 303.34 183.857 303.927 183.85 304.535C183.798 305.15 183.697 305.824 183.238 306.213C181.77 307.438 180.621 308.75 180.269 310.777C180.118 311.655 178.958 311.569 178.164 311.539C177.164 311.506 176.543 311.687 175.665 312.518C174.112 313.988 172.434 315.27 171.24 317.108C170.813 317.76 169.893 317.582 169.162 317.647C167.415 317.798 165.672 317.99 164.589 319.668C164.53 319.79 164.437 319.892 164.321 319.964C164.206 320.035 164.073 320.073 163.937 320.072C160.869 319.786 157.937 321.076 154.926 320.931C152.394 320.809 150.295 318.998 148.002 318.152C145.055 317.066 142.975 315.554 141.701 312.615C140.708 310.306 139.601 308.048 138.383 305.849C137.156 303.655 136.436 301.272 135.257 299.078C134.623 297.899 133.707 296.864 133.21 295.611C132.758 294.474 132.964 292.975 132.227 291.986C130.876 290.173 131.272 288.049 131.227 286.007C131.227 285.451 131.427 284.725 130.469 284.718C129.907 284.297 129.783 283.539 129.248 283.104C128.314 282.072 128.524 280.678 128.238 279.478C127.749 277.548 127.05 275.63 127.04 273.592V272.007C127.072 271.473 127.011 270.937 126.859 270.424C126.598 269.75 126.339 269.15 125.434 269.742C124.709 270.209 123.869 270.226 123.672 269.285C123.472 268.342 122.278 267.306 123.541 266.209C124.987 264.939 124.987 264.232 123.592 262.836C122.194 261.44 120.836 259.784 118.735 259.236C118.668 258.633 118.668 258.025 118.735 257.422C119.095 255.737 117.345 254.489 117.861 252.794C117.867 252.721 117.848 252.648 117.809 252.586C117.769 252.524 117.711 252.477 117.642 252.451C117.596 252.434 117.548 252.427 117.499 252.43C115.842 252.632 116.324 251.419 116.295 250.586C116.213 249.578 116.213 248.566 116.295 247.558C116.45 246.339 116.109 245.346 115.112 244.763C114.328 244.308 114.749 243.714 114.665 243.184C114.623 242.916 114.72 242.542 114.602 242.289C114.48 242.036 113.648 241.796 113.648 241.796C113.472 240.984 114.402 240.948 114.648 240.11C115.01 238.895 114.627 237.125 114.648 235.862C114.648 235.377 114.897 234.295 114.648 233.857C114.263 233.131 113.657 233.365 113.375 232.592C112.602 230.459 114.676 230.779 115.733 229.872C116.878 228.904 116.57 226.807 117.512 226.163C118.173 225.708 119.53 226.295 120.341 225.933C121.152 225.571 123.96 223.786 123.863 222.832C123.749 221.527 125.027 221.702 125.766 220.923C126.25 220.426 126.316 220.055 126.975 219.596C128.192 218.71 128.615 217.708 128.907 216.28C129.067 215.508 128.817 215.417 128.686 214.512C128.579 213.754 128.632 213.085 129.324 212.603C129.907 212.196 130.427 212.537 130.996 212.36C131.806 212.108 131.676 211.634 132.196 211.323C133.029 210.815 134.533 211.167 135.6 210.944C137.099 210.622 138.438 209.752 139.943 209.462C141.89 209.099 143.985 209.487 145.952 209.495C147.985 209.495 148.794 208.148 150.554 207.727C151.97 207.384 153.547 207.283 154.897 207.704C155.676 207.95 156.497 208.598 157.286 208.712C158.674 208.908 159.644 207.428 161.013 207.851C161.476 207.994 161.81 208.472 162.324 208.636C162.939 208.832 163.686 208.657 164.324 208.817C165.564 209.129 166.472 210.003 167.834 209.582C169.474 209.074 169.147 208.295 170.396 209.472C170.789 209.836 170.526 210.057 171.12 210.323C171.619 210.544 172.745 210.295 173.364 210.445C173.874 210.569 175.082 210.807 175.427 211.217C175.77 211.628 175.4 212.192 175.701 212.609C177.006 214.424 179.139 211.805 179.322 214.786C179.436 216.712 179.301 217.438 181.398 217.575C182.379 217.638 184.901 217.078 185.684 217.596C186.682 218.257 185.933 219.499 186.122 220.527C186.379 221.523 186.69 222.504 187.059 223.464C187.783 224.152 189.469 223.127 190.124 223.594C191.573 224.626 189.078 224.32 188.735 224.683C187.924 225.504 188.665 227.6 189.261 228.186C189.716 228.632 190.204 228.468 190.541 229.217C190.84 229.891 190.707 231.057 190.903 231.815C191.093 232.516 191.236 233.542 191.89 233.992C192.545 234.44 193.899 233.803 193.848 234.912C193.823 235.409 193.848 235.838 193.147 235.845C192.107 235.845 191.558 236.592 191.459 237.48C191.375 238.234 191.055 239.156 192.133 239.739C192.509 240.034 192.842 240.382 193.122 240.771C194.116 242.093 193.989 243.102 192.398 243.459C191.65 243.628 191.392 243.76 191.408 244.548C191.472 247.173 191.467 249.798 191.488 252.424C189.678 253.329 188.89 255.007 188.109 256.733C187.472 258.139 187.634 259.272 189.086 259.92C190.657 260.645 191.257 261.828 191.181 263.464C191.141 264.428 191.543 265.276 191.768 266.205C192.05 267.377 191.846 268.382 190.467 268.704C189.819 268.884 189.234 269.239 188.775 269.731C188.591 269.932 188.346 270.067 188.079 270.117C187.811 270.167 187.535 270.129 187.29 270.009C186.636 269.708 186.758 269.15 186.928 268.624C187.372 267.241 187.295 265.743 186.712 264.413C186.678 268.186 186.792 272.203 186.712 276.224C186.729 276.521 186.687 276.818 186.589 277.099C186.49 277.379 186.338 277.638 186.139 277.859Z" fill="black"/>
<path d="M122.162 260.996C122.838 261.872 123.846 262.421 124.492 263.318C125.686 264.979 125.324 266.076 123.558 266.967C124.574 268.748 123.764 270.545 126.358 268.377C127.93 270.114 127.377 273.596 127.831 275.815C128.307 278.095 129.838 280.668 129.073 283.021C123.16 284.341 120.08 276.668 119.737 275.021C119.324 273.051 119.254 270.992 118.65 269.059C118.122 267.348 116.084 263.522 116.292 261.687C116.478 260.04 118.318 256.023 122.162 260.996ZM186.309 277.762L186.273 277.72C185.755 277.099 186.153 275.268 186.187 274.531C186.267 272.878 186.147 271.213 186.086 269.558C186.025 267.988 185.99 266.416 185.981 264.844C185.981 264.211 185.791 262.872 186.229 262.345C186.953 261.461 187.071 263.133 187.183 263.609C187.545 265.156 188.583 266.872 187.779 268.497C187.566 268.924 186.863 269.295 187.484 269.663C188.206 270.099 188.271 269.242 188.452 268.863C189.027 267.665 190.783 268.733 191.252 267.63C191.532 266.981 190.848 266.093 190.705 265.476C190.58 264.662 190.517 263.84 190.515 263.017C190.389 261.24 189.709 260.891 188.202 260.259C186.391 259.489 186.932 257.743 187.551 256.308C188.086 255.061 188.518 253.571 189.745 252.834C190.303 252.497 190.934 252.303 191.583 252.268C196.242 252.371 195.151 258.352 195.204 258.971C195.278 260.011 195.078 261.049 195.09 262.087C195.09 263.213 193.353 269.308 192.827 270.425C192.271 271.619 190.294 274.847 189.932 275.358C189.433 276.053 187.006 278.512 186.311 277.762H186.309Z" fill="#C4C3C6"/>
<path d="M193.873 258.034C193.812 259.64 193.757 261.251 193.683 262.861C193.683 263.188 193.747 263.682 193.323 263.72C192.517 263.794 192.839 262.878 192.713 262.567C192.523 262.185 192.428 261.763 192.437 261.337C192.665 258.828 193.345 256.864 191.033 257.055C190.178 257.125 189.393 256.992 189.502 255.786C189.61 254.581 190.587 254.807 191.313 254.79H191.673C192.201 254.793 192.708 255.002 193.086 255.371C193.464 255.74 193.684 256.241 193.7 256.769C193.7 257.196 193.757 257.624 193.873 258.034Z" fill="black"/>
<path d="M144.77 261.421C144.787 261.465 144.792 261.513 144.784 261.559C144.777 261.606 144.757 261.649 144.728 261.686C144.522 262.019 143.526 261.922 143.212 261.937C141.402 262.033 139.549 262.505 137.781 262.892C136.501 263.172 135.248 263.688 134.69 264.96C134.536 265.324 134.471 265.707 134.296 266.048C134.124 266.389 133.779 266.644 133.844 266.998C133.945 267.553 134.699 267.574 135.126 267.534C135.77 267.429 136.389 267.187 136.936 266.827C137.736 266.383 138.606 266.08 139.509 265.932C141.416 265.659 143.349 265.57 145.273 265.671C146.063 265.697 147.025 265.945 147.808 265.758C148.509 265.591 148.64 264.949 149.168 264.577C149.993 263.991 151.277 264.867 152.101 264.08C152.499 263.694 152.412 263.031 152.101 262.606C151.694 262.031 150.894 262.044 150.336 261.69C149.667 261.259 149.48 260.497 149.193 259.804C149.055 259.422 148.842 259.071 148.567 258.773C148.292 258.474 147.96 258.232 147.591 258.063C146.042 257.356 144.004 257.41 142.349 257.596C140.539 257.798 138.966 258.644 137.225 259.097C135.545 259.534 134.05 259.909 132.6 260.909C131.894 261.404 129.741 263.945 129.21 262.259C128.445 259.626 127.867 256.942 127.482 254.227C127.271 252.947 127.086 251.612 127.32 250.32C127.421 249.688 127.654 249.082 128.004 248.543C128.364 247.989 129.014 247.6 129.212 246.937C129.501 245.977 128.812 244.958 128.882 243.981C128.911 243.581 128.968 242.892 129.381 242.701C130.004 242.385 130.328 243.065 130.41 243.558C130.772 245.663 131.791 243.688 132.806 243.322C133.53 243.061 134.221 243.069 134.871 242.614C135.524 242.162 135.957 241.556 136.49 241.036C137.023 240.518 137.667 240.181 138.448 240.461C139.113 240.697 139.602 240.934 140.286 240.583C141.442 239.985 142.16 238.574 143.027 237.642C143.343 237.301 143.97 236.054 144.507 236.071C144.97 236.071 144.76 236.633 144.642 236.939C144.395 237.57 144.17 238.252 143.884 238.861C143.597 239.471 142.901 239.913 142.635 240.577C142.425 241.103 142.515 241.84 143.219 241.591C143.804 241.385 144.073 240.665 144.604 240.366C144.966 240.151 145.644 240.116 145.795 240.623C145.911 240.985 145.555 241.486 145.395 241.796C145.132 242.299 144.717 243.606 145.825 243.217C146.313 243.048 146.993 241.913 147.551 242.128C147.955 242.284 147.764 243.021 148.105 243.177C148.574 243.387 149.027 241.823 149.168 241.505C149.751 240.158 150.446 238.574 151.572 237.596C152.176 237.065 153.019 236.869 153.522 236.21C154.073 235.484 154.246 235.202 155.151 234.966C155.932 234.76 156.046 234.368 156.494 233.781C157 233.12 157.579 233.465 158.275 233.326C159.111 233.164 159.172 232.273 159.459 231.614C159.825 230.899 160.411 230.32 161.13 229.962C163.57 228.551 166.56 228.084 168.947 229.791C171.448 231.572 172.779 234.553 174.842 236.758C175.764 237.741 176.808 238.606 177.663 239.659C178.532 240.812 179.183 242.116 179.585 243.503C180.183 245.316 180.707 247.271 180.553 249.179C180.49 250.004 180.269 250.806 180.193 251.633C180.151 252.13 180.193 252.924 179.625 253.153C179.263 253.299 178.507 252.949 178.271 253.364C177.966 253.903 178.875 253.907 179.162 253.958C179.715 254.057 180.341 254.524 179.722 255.046C179.233 255.467 178.374 255.288 177.797 255.231C176.513 255.132 175.221 255.229 173.966 255.518C172.654 255.789 171.326 256.191 169.983 256C169.28 255.899 168.65 255.553 167.955 255.438C166.844 255.248 165.762 255.8 164.671 255.93C163.797 256.002 162.934 256.141 162.086 256.356C161.151 256.606 160.204 256.633 159.265 256.838C158.987 256.877 158.734 257.018 158.555 257.233C158.375 257.448 158.282 257.722 158.292 258.002C158.229 258.682 158.557 259.633 158.019 260.196C157.749 260.476 156.469 260.412 156.48 260.89C156.48 261.181 157.326 261.337 157.486 261.669C157.749 262.229 157.522 262.987 157.675 263.589C157.793 264.069 157.979 264.526 158.134 264.993C158.21 265.225 158.315 266.082 158.532 266.198C159.021 266.465 159.075 265.254 159.168 264.985C159.863 263.017 160.776 265.951 161.271 266.278C161.768 266.604 162.357 266.179 162.837 266.004C163.435 265.787 164.174 265.642 164.353 264.945C164.536 264.25 164.139 263.494 164.875 263.071C165.513 262.709 166.566 262.89 167.256 262.886C169.273 262.886 171.286 262.987 173.299 262.996C175.208 262.996 177.088 262.709 178.991 262.631C179.534 262.614 180.212 262.6 180.633 262.996C180.899 263.242 180.945 264.21 181.282 264.259C182.162 264.381 181.499 261.577 181.644 261.084C181.789 260.591 182.288 260.217 182.755 260.591C183.117 260.886 183.117 261.539 183.147 261.964C183.231 262.861 183.419 263.745 183.454 264.644C183.49 265.545 183.454 266.4 182.368 266.37C181.644 266.349 181.753 266.61 182.006 267.233C182.328 267.96 182.49 268.745 182.48 269.537C182.521 271.229 182.33 272.919 181.911 274.56C181.391 276.372 180.345 277.356 179.244 278.774C178.408 279.861 177.105 281.471 175.57 280.894C174.294 280.417 173.522 278.991 172.168 278.69C170.722 278.37 169.429 279.56 167.989 279.507C167.507 279.486 167.033 279.387 166.541 279.398C166.202 279.398 165.76 279.545 165.454 279.307C165.061 278.987 165.376 278.288 164.814 278.122C164.336 277.979 163.635 278.459 163.187 278.585C162.463 278.8 161.713 278.859 161.014 279.168C159.448 279.842 158.082 280.878 156.349 281.124C154.616 281.37 153.092 280.76 151.442 280.276C150.837 280.101 149.993 279.911 149.545 280.503C149.096 281.094 149.461 281.956 148.545 282.248C147.753 282.509 146.755 282.334 145.93 282.37C145.012 282.391 144.107 282.553 143.24 282.854C141.644 283.433 140.503 284.537 139.277 285.657C138.654 286.223 138.065 286.465 137.235 286.214C136.438 285.976 135.657 285.684 134.899 285.341C133.425 284.659 132.823 282.726 132.219 281.351C131.772 280.413 131.395 279.443 131.09 278.45C130.825 277.507 130.804 276.518 130.528 275.583C129.964 273.678 128.52 272.227 128.473 270.143C128.452 269.221 128.751 268.33 128.911 267.433C129.096 266.381 128.766 262.945 130.656 263.73C131.326 264.01 131.825 264.568 132.602 264.497C133.381 264.423 133.909 263.825 134.454 263.343C135.81 262.139 137.564 261.621 139.332 261.404C140.779 261.221 142.372 260.953 143.827 261.04C144.084 261.103 144.663 261.166 144.77 261.421ZM158.922 289.221H160.471C161.294 289.305 162.126 289.244 162.928 289.048C163.219 288.949 163.652 288.543 163.957 288.579C164.261 288.617 164.471 289.019 164.764 289.134C166.006 289.627 167.96 288.577 168.604 290.339C168.772 290.736 168.832 291.172 168.776 291.6C168.72 292.028 168.551 292.433 168.286 292.774C166.987 294.385 165.928 294.697 163.848 293.406C163.189 292.993 162.421 292.788 161.644 292.819C158.694 292.819 155.745 292.779 152.8 292.819C152.002 292.819 151.21 292.699 150.471 293.059C149.734 293.417 149.151 293.857 148.341 293.577C147.819 293.396 147.888 292.974 148.341 292.823C148.68 292.707 149.33 292.88 149.334 292.33C149.334 291.082 150.12 290.657 151.145 290.233C152.498 289.644 153.948 289.308 155.423 289.244C156.595 289.269 157.76 289.223 158.922 289.223V289.221Z" fill="#C4C3C6"/>
<path d="M171.048 258.542H171.175C171.869 258.619 172.575 258.514 173.269 258.619C173.922 258.737 174.524 259.036 175.015 259.483C175.267 259.744 175.543 259.988 175.836 260.207C176.151 260.339 176.48 260.432 176.817 260.48C177.09 260.563 177.326 260.819 177.143 261.11C176.842 261.588 175.922 261.392 175.543 261.182C174.57 260.606 173.451 260.326 172.322 260.373C170.349 260.422 168.364 260.493 166.393 260.487C165.972 260.487 164.945 260.428 165.116 259.739C165.231 259.238 166.071 259.255 166.463 259.224C167.442 259.148 168.337 258.735 169.297 258.539C169.876 258.447 170.467 258.449 171.048 258.542ZM180.93 256.043C180.996 255.805 180.84 255.35 181.347 255.384C181.678 255.405 181.669 255.746 181.659 255.99C181.648 256.232 181.745 256.714 181.25 256.693C180.928 256.672 180.945 256.342 180.93 256.045V256.043Z" fill="#C4C3C6"/>
<path d="M121.574 263.444C121.463 264.171 121.49 264.724 120.966 264.975C120.604 265.156 120.265 264.912 119.964 264.642C119.602 264.305 119.158 264.04 118.781 263.71C118.021 263.046 118.334 262.208 118.718 261.613C119.585 260.276 119.732 261.947 120.271 262.088C121.061 262.291 121.734 262.636 121.577 263.444H121.574Z" fill="black"/>
<path d="M126.021 279.249C124.916 279.805 124.535 278.862 124.076 278.161C123.663 277.552 123.221 276.851 124.046 276.224C125.072 275.453 125.606 276.177 126.067 276.975C126.488 277.727 127.11 278.485 126.019 279.249H126.021Z" fill="white"/>
<path d="M191.398 259.575C191.314 259.819 191.486 260.278 191 260.272C190.663 260.272 190.726 259.91 190.714 259.67C190.714 259.388 190.56 258.963 191.076 258.967C191.398 258.971 191.398 259.293 191.398 259.577V259.575Z" fill="black"/>
<path d="M148.124 256.811C144.866 256.275 141.899 255.782 138.807 256.811C136.506 257.58 135.912 258.601 134.508 258.264C133.103 257.925 132.364 256.63 131.64 255.39C131.051 254.382 129.036 250.574 130.556 246.778C130.884 245.965 131.301 244.925 132.367 244.264C133.089 243.801 134.019 243.592 137.739 244.264C140.876 244.83 142.228 245.352 145.263 245.717C147.541 245.984 148.095 245.854 148.489 245.717C150.19 245.11 150.447 243.801 152.43 241.765C153.878 240.285 155.192 239.477 156.727 238.534C159.31 236.955 160.602 236.159 162.459 236.022C165.716 235.778 168.192 237.639 168.91 238.176C170.501 239.382 171.739 240.994 172.493 242.843C170.788 246.898 171.095 249.462 171.769 251.1C172.196 252.119 172.933 253.184 172.493 253.971C172.051 254.759 170.741 254.672 168.91 254.698C164.257 254.738 161.724 254.761 159.234 255.786C157.482 256.51 156.937 257.237 154.935 257.599C153.751 257.804 152.54 257.804 151.356 257.599C150.294 257.278 149.215 257.016 148.124 256.811ZM152.802 261.675C152.596 261.801 152.228 262.127 152.023 264.424C151.909 265.86 151.909 267.304 152.023 268.74C152.234 272.464 152.383 273.515 151.63 274.23C151.268 274.563 151.209 274.371 150.063 275.016C148.678 275.795 147.954 276.203 147.714 276.978C147.392 278.022 148.03 279.472 148.891 279.723C149.571 279.923 149.918 279.23 151.63 278.938C152.354 278.818 152.741 278.755 153.198 278.938C154.059 279.3 153.922 280.049 154.76 280.506C155.602 280.965 156.971 280.792 157.506 280.115C157.8 279.736 157.596 279.531 157.895 278.936C158.402 277.94 159.274 277.961 159.459 277.369C159.706 276.595 158.373 275.988 157.506 274.622C156.531 273.123 156.596 271.5 156.72 268.348C156.836 265.414 157.331 264.78 156.72 263.632C155.887 262.085 153.788 261.068 152.804 261.675H152.802Z" fill="white"/>
<path d="M137.33 285.99C135.993 285.933 135.128 284.377 133.916 282.19C132.783 280.148 131.604 277.964 131.642 274.973C131.642 273.863 131.69 271.129 133.158 270.415C134.071 269.969 134.673 270.724 136.568 270.777C137.924 270.83 138.989 270.415 141.12 269.64C144.09 268.552 144.589 267.825 146.429 267.739C147.309 267.703 148.6 267.653 149.461 268.501C150.446 269.457 150.572 271.253 149.84 273.059C145.564 274.042 143.819 275.815 143.017 277.236C141.882 279.238 142.324 281.068 140.364 283.695C139.642 284.663 138.623 286.044 137.33 285.99ZM163.431 273.588C165.804 275.082 166.509 274.173 168.92 275.554C170.614 276.548 172.082 277.885 173.229 279.48C174.316 280.975 174.562 282.019 175.583 282.23C176.766 282.482 177.916 281.425 178.326 281.051C179.294 280.16 179.825 279.078 180.678 275.554C181.579 271.828 182.017 269.939 181.461 268.878C180.53 267.093 178.429 266.495 177.149 266.129C175.553 265.672 173.711 265.817 170.097 266.129C166.137 266.47 165.882 266.8 164.219 266.52C162.343 266.204 161.446 265.581 160.688 266.129C159.711 266.855 159.888 268.838 160.299 270.057C160.951 271.994 162.545 273.03 163.431 273.588ZM84.8018 356.354C84.9408 355.23 85.6166 351.59 88.4229 349.072C91.745 346.11 94.9366 347.48 101.749 344.217C104.36 342.966 103.366 343.017 107.804 340.59C111.654 338.472 112.606 338.32 119.511 334.926C123.562 332.935 125.585 331.941 125.972 331.691C128.383 330.124 129.903 328.674 132.433 328.453C133.527 328.365 134.627 328.503 135.665 328.859C136.2 330.882 136.739 332.905 137.28 334.926C139.916 338.874 142.607 342.785 145.353 346.657C151.96 355.977 154.764 359.24 159.08 362.034C162.092 363.971 164.236 365.348 167.156 365.268C169.516 365.206 172.566 364.181 180.482 354.345C187.758 345.28 197.513 333.16 194.598 325.217C194.303 324.413 193.511 322.649 194.198 321.979C195.156 321.04 198.177 323.148 202.673 325.217C205.985 326.737 208.916 327.579 214.787 329.261C221.909 331.308 222.025 330.651 228.109 332.499C232.102 333.737 236.014 335.223 239.821 336.95C245.438 339.383 248.29 340.64 250.318 342.613C251.446 343.701 255.021 347.173 255.564 352.322C255.688 353.457 256.002 357.762 251.945 363.651C242.829 376.846 221.396 383.977 220.457 384.282C207.686 388.402 188.52 394.388 160.709 393.171C147.503 392.594 127.916 391.531 107.417 380.223C102.764 377.659 83.4924 367.028 84.8018 356.354Z" fill="white"/>
</g>
<rect x="82" y="194" width="156" height="156" rx="78" stroke="black" stroke-width="4"/>
<g clip-path="url(#clip1_6332_284079)">
<rect width="96" height="96" rx="48" fill="#DEE3E9"/>
<path d="M48.0006 55.8374C57.4262 55.8374 65.0672 48.1964 65.0672 38.7707C65.0672 29.3451 57.4262 21.7041 48.0006 21.7041C38.5749 21.7041 30.9339 29.3451 30.9339 38.7707C30.9339 48.1964 38.5749 55.8374 48.0006 55.8374Z" fill="#A7AEB7"/>
<path d="M18.1338 85.7041C18.1338 73.9222 27.685 64.3709 39.4671 64.3709H56.5338C68.3158 64.3709 77.8671 73.9222 77.8671 85.7041V127.305C77.8671 139.087 68.3158 148.637 56.5338 148.637H39.4671C27.685 148.637 18.1338 139.087 18.1338 127.305V85.7041Z" fill="#A7AEB7"/>
</g>
<g clip-path="url(#clip2_6332_284079)">
<rect x="160" y="96" width="48" height="48" rx="24" fill="#DEE3E9"/>
<path d="M184 123.919C188.713 123.919 192.533 120.099 192.533 115.386C192.533 110.673 188.713 106.853 184 106.853C179.287 106.853 175.466 110.673 175.466 115.386C175.466 120.099 179.287 123.919 184 123.919Z" fill="#A7AEB7"/>
<path d="M169.066 138.853C169.066 132.962 173.842 128.186 179.733 128.186H188.266C194.157 128.186 198.933 132.962 198.933 138.853V159.653C198.933 165.544 194.157 170.319 188.266 170.319H179.733C173.842 170.319 169.066 165.544 169.066 159.653V138.853Z" fill="#A7AEB7"/>
</g>
<g clip-path="url(#clip3_6332_284079)">
<rect x="16" y="392" width="96" height="96" rx="48" fill="#DEE3E9"/>
<path d="M64.0006 447.837C73.4262 447.837 81.0672 440.196 81.0672 430.771C81.0672 421.345 73.4262 413.704 64.0006 413.704C54.5749 413.704 46.9339 421.345 46.9339 430.771C46.9339 440.196 54.5749 447.837 64.0006 447.837Z" fill="#A7AEB7"/>
<path d="M34.1338 477.704C34.1338 465.922 43.685 456.371 55.4671 456.371H72.5338C84.3158 456.371 93.8671 465.922 93.8671 477.704V519.305C93.8671 531.087 84.3158 540.637 72.5338 540.637H55.4671C43.685 540.637 34.1338 531.087 34.1338 519.305V477.704Z" fill="#A7AEB7"/>
</g>
<defs>
<clipPath id="clip0_6332_284079">
<rect x="80" y="192" width="160" height="160" rx="80" fill="white"/>
</clipPath>
<clipPath id="clip1_6332_284079">
<rect width="96" height="96" rx="48" fill="white"/>
</clipPath>
<clipPath id="clip2_6332_284079">
<rect x="160" y="96" width="48" height="48" rx="24" fill="white"/>
</clipPath>
<clipPath id="clip3_6332_284079">
<rect x="16" y="392" width="96" height="96" rx="48" fill="white"/>
</clipPath>
</defs>
</svg>
