<svg width="328" height="456" viewBox="0 0 328 456" fill="none" xmlns="http://www.w3.org/2000/svg">
<g clip-path="url(#clip0_5989_327370)">
<path d="M80 256C80 211.817 115.817 176 160 176C204.183 176 240 211.817 240 256C240 300.183 204.183 336 160 336C115.817 336 80 300.183 80 256Z" fill="#FFE538"/>
<path d="M167.905 380.8C156.01 380.564 144.065 380.202 132.073 378.501C130.935 378.318 129.802 378.105 128.675 377.863C122.991 376.705 117.518 374.68 112.444 371.861C110.327 370.893 108.226 369.889 106.143 368.851C104.929 368.385 103.722 367.901 102.522 367.4C95.3681 364.339 88.7702 360.326 84.0144 353.878C83.305 352.96 82.6671 351.99 82.1029 350.977C80.3095 347.704 79.3391 344.044 79.2755 340.312C79.1556 339.161 79.1753 338.001 79.3344 336.855C79.4999 335.664 79.8479 334.506 80.366 333.421C83.6229 326.895 91.9471 326.895 97.5029 323.705C98.646 323.19 99.7871 322.674 100.924 322.139C103.21 321.084 105.457 319.946 107.661 318.729C108.387 318.316 109.134 317.895 109.863 317.453C112.783 315.554 115.777 313.6 118.911 311.847C119.953 311.259 121.008 310.699 122.073 310.164C126.33 308.036 132.484 307.674 133.93 305.133C138.273 297.156 131.035 287.364 129.225 278.009C128.472 276.936 127.977 275.704 127.779 274.409C127.629 273.348 127.58 272.275 127.633 271.204V271.047L127.461 270.846C120.758 270.63 116.964 263.232 116.24 259.84C116.05 258.941 115.932 258.074 115.817 257.236C115.705 256.217 115.515 255.209 115.248 254.219C115.137 253.857 114.848 253.179 114.568 252.514C113.36 249.613 112.52 247.438 112.758 245.377C112.946 243.598 113.733 241.936 114.991 240.663C114.79 240.228 114.619 239.778 114.482 239.318C114.258 239.157 114.051 238.974 113.865 238.771C112.555 237.356 112.682 235.649 112.737 234.918V234.379C112.681 233.443 112.688 232.504 112.758 231.569C111.94 230.923 111.384 230.003 111.191 228.979L110.126 228.684V226.19C110.058 225.574 110.126 224.951 110.325 224.364C110.524 223.777 110.849 223.241 111.278 222.794C111.278 222.453 111.231 222.025 111.21 221.705C111.151 221.114 111.122 220.521 111.122 219.927V219.653C110.654 219.169 110.295 218.59 110.069 217.956C109.663 216.832 108.705 213.065 113.25 211.265C113.25 211.198 113.286 211.129 113.301 211.065C113.551 210.07 113.974 208.398 115.553 207.318C116.39 206.76 117.378 206.473 118.383 206.497C118.745 206.497 119.073 206.527 119.339 206.548C119.713 206.316 120.075 206.063 120.423 205.79C120.675 204.579 121.448 203.299 123.32 202.4C123.732 201.79 124.248 201.257 124.846 200.825C125.052 200.678 125.151 200.609 125.282 200.099C125.204 199.806 125.144 199.509 125.103 199.209C124.688 196.129 126.282 194.531 127.267 193.804C127.951 193.324 128.75 193.035 129.583 192.967C129.814 192.752 130.067 192.562 130.334 192.398C131.682 191.581 133.149 191.581 133.953 191.581H134.901C135.395 191.442 135.88 191.265 136.349 191.055C137.278 190.638 138.248 190.318 139.244 190.101C140.095 189.941 140.959 189.865 141.825 189.874C142.65 189.874 143.427 189.929 144.181 189.979C144.812 190.021 145.404 190.065 145.941 190.065C146.092 190.065 146.189 190.03 146.817 189.657C147.697 189.089 148.661 188.665 149.675 188.402C150.728 188.142 151.808 188.008 152.892 188.002C153.922 187.994 154.945 188.143 155.928 188.444C156.475 188.628 157.002 188.861 157.507 189.139C158.414 188.651 159.425 188.385 160.457 188.364C160.983 188.364 161.509 188.444 162.014 188.6C162.532 188.762 163.021 189.009 163.461 189.327C164.023 189.318 164.583 189.379 165.13 189.508C165.707 189.661 166.271 189.865 166.814 190.114L166.983 190.185C167.688 189.722 168.511 189.47 169.355 189.459C171.006 189.459 172.128 190.457 172.703 190.996C173.177 190.992 173.65 191.04 174.109 191.145L174.24 191.179C175.629 191.501 177.069 191.903 178.065 193.08C178.275 193.322 178.457 193.585 178.608 193.87C180.385 194.061 182.299 195.249 182.741 198.061C183.284 198.004 183.83 197.973 184.377 197.969C185.495 197.921 186.602 198.206 187.558 198.79C190.067 200.453 189.73 203.143 189.617 204.049C190.511 204.042 191.385 204.308 192.122 204.811C194.391 206.425 194.174 208.419 193.974 209.198C193.833 209.807 193.538 210.369 193.118 210.832C193.366 211.154 193.574 211.505 193.741 211.876C194.088 212.737 194.273 213.655 194.288 214.583C194.288 214.672 194.288 214.783 194.305 214.882C194.958 215.061 195.557 215.397 196.051 215.86C196.544 216.324 196.917 216.901 197.137 217.541C197.324 218.076 197.402 218.644 197.368 219.211V219.284C197.372 219.916 197.239 220.54 196.978 221.115C196.717 221.689 196.334 222.2 195.857 222.613L195.922 222.699C197.591 224.922 197.427 226.779 197.008 227.952C196.627 228.967 195.909 229.821 194.974 230.371C194.974 231.459 194.995 232.545 195.004 233.634C195.663 233.992 196.259 234.459 196.762 235.015C199.143 237.64 198.861 241.472 198.755 242.91V243.025C198.781 243.729 198.762 244.432 198.694 245.131C198.662 245.472 198.643 245.814 198.64 246.156C198.661 248.188 196.589 254.899 196.042 256.063C195.058 257.96 193.971 259.802 192.785 261.579C192.764 261.613 191.109 263.863 188.915 264.981V270.84C188.912 270.91 188.912 270.979 188.915 271.049C188.966 271.899 188.844 272.754 188.553 273.554C188.806 274.101 188.937 274.697 188.941 275.301C188.614 276.124 188.252 276.851 188.252 277.575C188.614 279.571 189.023 281.474 189.429 283.335C189.631 284.261 189.838 285.181 190.033 286.091C191.478 290.994 190.753 297.158 195.097 300.421C195.821 301.148 197.993 300.421 199.44 301.148C200.345 301.571 201.231 302.032 202.134 302.508C204.263 303.716 206.427 304.823 208.623 305.834C209.72 306.339 210.825 306.823 211.934 307.282C214.331 308.268 216.779 309.126 219.267 309.851C221.673 310.286 224.09 310.748 226.505 311.303C227.711 311.564 228.907 311.851 230.092 312.16C237.534 313.487 246.017 316.716 251.89 321.992C252.863 322.863 253.768 323.802 254.606 324.802C259.158 329.434 260.968 336.687 260.244 343.215C259.52 350.83 253.73 356.632 247.275 360.575C246.225 361.223 245.138 361.809 244.019 362.329C241.73 363.388 239.33 364.181 236.863 364.697C236.141 365.084 235.417 365.47 234.728 365.834C230.456 368.098 226.012 370.02 221.438 371.583C211.524 374.785 195.412 379.99 173.153 380.716C171.442 380.773 169.692 380.802 167.905 380.802V380.8Z" fill="black"/>
<path d="M194.147 307.047C190.993 305.958 186.953 304.752 185.996 300.704C185.658 299.908 185.379 299.088 185.162 298.251C184.729 296.59 184.467 294.889 184.383 293.175C184.301 291.556 185.029 289.963 184.709 288.354C184.664 287.923 184.512 287.51 184.267 287.152C183.636 287.558 183.602 288.388 183.25 289.059C182.68 290.146 181.44 290.59 180.804 291.67C180.25 292.63 180.2 293.798 179.172 294.44C177.88 295.245 176.24 295.007 174.913 295.925C172.941 297.283 171.377 299.114 169.343 300.407C168.358 301.03 167.322 301.567 166.244 302.007C156.269 306.786 147.785 295.845 145.772 286.963C145.772 287.771 144.962 288.986 144.562 288.579C142.141 288.179 143.349 282.918 139.903 285.131C139.465 286.097 139.271 287.156 139.343 288.213C139.602 292.965 140.065 297.537 140.215 302.234C140.244 303.173 140.261 304.116 140.261 305.066C140.522 307.192 140.12 309.617 138.505 311.23C134.063 315.681 123.16 318.514 126.793 325.373C131.64 334.274 143.349 335.085 151.425 341.554C152.636 342.771 153.442 344.388 154.575 345.824C155.368 346.961 156.233 348.043 157.164 349.07C158.975 350.994 160.981 352.333 163.537 352.481C164.838 352.544 166.14 352.38 167.385 351.996C168.625 351.607 169.809 351.056 170.905 350.356C172.098 349.64 173.264 348.88 174.402 348.078C175.53 347.278 176.625 346.441 177.692 345.542C178.598 344.739 179.503 343.923 180.385 343.093C181.21 342.293 182.057 341.535 182.918 340.784C183.781 340.032 184.629 339.299 185.486 338.563C191.002 333.462 197.869 329.417 201.503 322.135C203.924 317.281 202.711 310.807 197.844 308.091C196.631 307.765 195.381 307.491 194.149 307.047H194.147Z" fill="#C4C3C6"/>
<path d="M186.139 261.859C185.314 261.754 185.343 262.295 185.343 262.87C185.343 265.495 185.368 268.12 185.343 270.748C185.343 271.438 185.488 272.108 184.855 272.788C184.493 273.182 184.095 274.238 185.141 274.809C185.373 274.937 185.459 275.373 185.225 275.495C184.173 276.04 184.592 277.009 184.568 277.784C184.484 280.813 184.488 283.84 184.461 286.872C184.073 287.34 183.857 287.927 183.85 288.535C183.798 289.15 183.697 289.824 183.238 290.213C181.77 291.438 180.621 292.75 180.269 294.777C180.118 295.655 178.958 295.569 178.164 295.539C177.164 295.506 176.543 295.687 175.665 296.518C174.112 297.988 172.434 299.27 171.24 301.108C170.813 301.76 169.893 301.582 169.162 301.647C167.415 301.798 165.672 301.99 164.589 303.668C164.53 303.79 164.437 303.892 164.321 303.964C164.206 304.035 164.073 304.073 163.937 304.072C160.869 303.786 157.937 305.076 154.926 304.931C152.394 304.809 150.295 302.998 148.002 302.152C145.055 301.066 142.975 299.554 141.701 296.615C140.708 294.306 139.601 292.048 138.383 289.849C137.156 287.655 136.436 285.272 135.257 283.078C134.623 281.899 133.707 280.864 133.21 279.611C132.758 278.474 132.964 276.975 132.227 275.986C130.876 274.173 131.272 272.049 131.227 270.007C131.227 269.451 131.427 268.725 130.469 268.718C129.907 268.297 129.783 267.539 129.248 267.104C128.314 266.072 128.524 264.678 128.238 263.478C127.749 261.548 127.05 259.63 127.04 257.592V256.007C127.072 255.473 127.011 254.937 126.859 254.424C126.598 253.75 126.339 253.15 125.434 253.742C124.709 254.209 123.869 254.226 123.672 253.285C123.472 252.342 122.278 251.306 123.541 250.209C124.987 248.939 124.987 248.232 123.592 246.836C122.194 245.44 120.836 243.784 118.735 243.236C118.668 242.633 118.668 242.025 118.735 241.422C119.095 239.737 117.345 238.489 117.861 236.794C117.867 236.721 117.848 236.648 117.809 236.586C117.769 236.524 117.711 236.477 117.642 236.451C117.596 236.434 117.548 236.427 117.499 236.43C115.842 236.632 116.324 235.419 116.295 234.586C116.213 233.578 116.213 232.566 116.295 231.558C116.45 230.339 116.109 229.346 115.112 228.763C114.328 228.308 114.749 227.714 114.665 227.184C114.623 226.916 114.72 226.542 114.602 226.289C114.48 226.036 113.648 225.796 113.648 225.796C113.472 224.984 114.402 224.948 114.648 224.11C115.01 222.895 114.627 221.125 114.648 219.862C114.648 219.377 114.897 218.295 114.648 217.857C114.263 217.131 113.657 217.365 113.375 216.592C112.602 214.459 114.676 214.779 115.733 213.872C116.878 212.904 116.57 210.807 117.512 210.163C118.173 209.708 119.53 210.295 120.341 209.933C121.152 209.571 123.96 207.786 123.863 206.832C123.749 205.527 125.027 205.702 125.766 204.923C126.25 204.426 126.316 204.055 126.975 203.596C128.192 202.71 128.615 201.708 128.907 200.28C129.067 199.508 128.817 199.417 128.686 198.512C128.579 197.754 128.632 197.085 129.324 196.603C129.907 196.196 130.427 196.537 130.996 196.36C131.806 196.108 131.676 195.634 132.196 195.323C133.029 194.815 134.533 195.167 135.6 194.944C137.099 194.622 138.438 193.752 139.943 193.462C141.89 193.099 143.985 193.487 145.952 193.495C147.985 193.495 148.794 192.148 150.554 191.727C151.97 191.384 153.547 191.283 154.897 191.704C155.676 191.95 156.497 192.598 157.286 192.712C158.674 192.908 159.644 191.428 161.013 191.851C161.476 191.994 161.81 192.472 162.324 192.636C162.939 192.832 163.686 192.657 164.324 192.817C165.564 193.129 166.472 194.003 167.834 193.582C169.474 193.074 169.147 192.295 170.396 193.472C170.789 193.836 170.526 194.057 171.12 194.323C171.619 194.544 172.745 194.295 173.364 194.445C173.874 194.569 175.082 194.807 175.427 195.217C175.77 195.628 175.4 196.192 175.701 196.609C177.006 198.424 179.139 195.805 179.322 198.786C179.436 200.712 179.301 201.438 181.398 201.575C182.379 201.638 184.901 201.078 185.684 201.596C186.682 202.257 185.933 203.499 186.122 204.527C186.379 205.523 186.69 206.504 187.059 207.464C187.783 208.152 189.469 207.127 190.124 207.594C191.573 208.626 189.078 208.32 188.735 208.683C187.924 209.504 188.665 211.6 189.261 212.186C189.716 212.632 190.204 212.468 190.541 213.217C190.84 213.891 190.707 215.057 190.903 215.815C191.093 216.516 191.236 217.542 191.89 217.992C192.545 218.44 193.899 217.803 193.848 218.912C193.823 219.409 193.848 219.838 193.147 219.845C192.107 219.845 191.558 220.592 191.459 221.48C191.375 222.234 191.055 223.156 192.133 223.739C192.509 224.034 192.842 224.382 193.122 224.771C194.116 226.093 193.989 227.102 192.398 227.459C191.65 227.628 191.392 227.76 191.408 228.548C191.472 231.173 191.467 233.798 191.488 236.424C189.678 237.329 188.89 239.007 188.109 240.733C187.472 242.139 187.634 243.272 189.086 243.92C190.657 244.645 191.257 245.828 191.181 247.464C191.141 248.428 191.543 249.276 191.768 250.205C192.05 251.377 191.846 252.382 190.467 252.704C189.819 252.884 189.234 253.239 188.775 253.731C188.591 253.932 188.346 254.067 188.079 254.117C187.811 254.167 187.535 254.129 187.29 254.009C186.636 253.708 186.758 253.15 186.928 252.624C187.372 251.241 187.295 249.743 186.712 248.413C186.678 252.186 186.792 256.203 186.712 260.224C186.729 260.521 186.687 260.818 186.589 261.099C186.49 261.379 186.338 261.638 186.139 261.859Z" fill="black"/>
<path d="M122.162 244.996C122.838 245.872 123.846 246.421 124.492 247.318C125.686 248.979 125.324 250.076 123.558 250.967C124.574 252.748 123.764 254.545 126.358 252.377C127.93 254.114 127.377 257.596 127.831 259.815C128.307 262.095 129.838 264.668 129.073 267.021C123.16 268.341 120.08 260.668 119.737 259.021C119.324 257.051 119.254 254.992 118.65 253.059C118.122 251.348 116.084 247.522 116.292 245.687C116.478 244.04 118.318 240.023 122.162 244.996ZM186.309 261.762L186.273 261.72C185.756 261.099 186.153 259.268 186.187 258.531C186.267 256.878 186.147 255.213 186.086 253.558C186.025 251.988 185.99 250.416 185.981 248.844C185.981 248.211 185.791 246.872 186.229 246.345C186.953 245.461 187.071 247.133 187.183 247.609C187.545 249.156 188.583 250.872 187.779 252.497C187.566 252.924 186.863 253.295 187.484 253.663C188.206 254.099 188.271 253.242 188.452 252.863C189.027 251.665 190.783 252.733 191.252 251.63C191.532 250.981 190.848 250.093 190.705 249.476C190.58 248.662 190.517 247.84 190.516 247.017C190.389 245.24 189.709 244.891 188.202 244.259C186.391 243.489 186.932 241.743 187.551 240.308C188.086 239.061 188.518 237.571 189.745 236.834C190.303 236.497 190.934 236.303 191.583 236.268C196.242 236.371 195.151 242.352 195.204 242.971C195.278 244.011 195.078 245.049 195.09 246.087C195.09 247.213 193.353 253.308 192.827 254.425C192.271 255.619 190.294 258.847 189.932 259.358C189.433 260.053 187.006 262.512 186.311 261.762H186.309Z" fill="#C4C3C6"/>
<path d="M193.873 242.034C193.812 243.64 193.757 245.251 193.683 246.861C193.683 247.188 193.747 247.682 193.323 247.72C192.517 247.794 192.839 246.878 192.713 246.567C192.523 246.185 192.428 245.763 192.437 245.337C192.665 242.828 193.345 240.864 191.033 241.055C190.178 241.125 189.393 240.992 189.502 239.786C189.61 238.581 190.587 238.807 191.313 238.79H191.673C192.201 238.793 192.708 239.002 193.086 239.371C193.464 239.74 193.684 240.241 193.7 240.769C193.7 241.196 193.757 241.624 193.873 242.034Z" fill="black"/>
<path d="M144.77 245.421C144.787 245.465 144.792 245.513 144.784 245.559C144.777 245.606 144.757 245.649 144.728 245.686C144.522 246.019 143.526 245.922 143.212 245.937C141.402 246.033 139.549 246.505 137.781 246.892C136.501 247.172 135.248 247.688 134.69 248.96C134.536 249.324 134.471 249.707 134.296 250.048C134.124 250.389 133.779 250.644 133.844 250.998C133.945 251.553 134.699 251.574 135.126 251.534C135.77 251.429 136.389 251.187 136.936 250.827C137.736 250.383 138.606 250.08 139.509 249.932C141.416 249.659 143.349 249.57 145.273 249.671C146.063 249.697 147.025 249.945 147.808 249.758C148.509 249.591 148.64 248.949 149.168 248.577C149.993 247.991 151.277 248.867 152.101 248.08C152.499 247.694 152.412 247.031 152.101 246.606C151.694 246.031 150.894 246.044 150.336 245.69C149.667 245.259 149.48 244.497 149.193 243.804C149.055 243.422 148.842 243.071 148.567 242.773C148.292 242.474 147.96 242.232 147.591 242.063C146.042 241.356 144.004 241.41 142.349 241.596C140.539 241.798 138.966 242.644 137.225 243.097C135.545 243.534 134.05 243.909 132.6 244.909C131.894 245.404 129.741 247.945 129.21 246.259C128.445 243.626 127.867 240.942 127.482 238.227C127.271 236.947 127.086 235.612 127.32 234.32C127.421 233.688 127.654 233.082 128.004 232.543C128.364 231.989 129.014 231.6 129.212 230.937C129.501 229.977 128.812 228.958 128.882 227.981C128.911 227.581 128.968 226.892 129.381 226.701C130.004 226.385 130.328 227.065 130.41 227.558C130.772 229.663 131.791 227.688 132.806 227.322C133.53 227.061 134.221 227.069 134.871 226.614C135.524 226.162 135.957 225.556 136.49 225.036C137.023 224.518 137.667 224.181 138.448 224.461C139.113 224.697 139.602 224.934 140.286 224.583C141.442 223.985 142.16 222.574 143.027 221.642C143.343 221.301 143.97 220.054 144.507 220.071C144.97 220.071 144.76 220.633 144.642 220.939C144.395 221.57 144.17 222.252 143.884 222.861C143.597 223.471 142.901 223.913 142.635 224.577C142.425 225.103 142.515 225.84 143.219 225.591C143.804 225.385 144.073 224.665 144.604 224.366C144.966 224.151 145.644 224.116 145.795 224.623C145.911 224.985 145.555 225.486 145.395 225.796C145.132 226.299 144.717 227.606 145.825 227.217C146.313 227.048 146.993 225.913 147.551 226.128C147.955 226.284 147.764 227.021 148.105 227.177C148.574 227.387 149.027 225.823 149.168 225.505C149.751 224.158 150.446 222.574 151.572 221.596C152.176 221.065 153.019 220.869 153.522 220.21C154.073 219.484 154.246 219.202 155.151 218.966C155.932 218.76 156.046 218.368 156.494 217.781C157 217.12 157.579 217.465 158.275 217.326C159.111 217.164 159.172 216.273 159.459 215.614C159.825 214.899 160.411 214.32 161.13 213.962C163.57 212.551 166.56 212.084 168.947 213.791C171.448 215.572 172.779 218.553 174.842 220.758C175.764 221.741 176.808 222.606 177.663 223.659C178.532 224.812 179.183 226.116 179.585 227.503C180.183 229.316 180.707 231.271 180.553 233.179C180.49 234.004 180.269 234.806 180.193 235.633C180.151 236.13 180.193 236.924 179.625 237.153C179.263 237.299 178.507 236.949 178.271 237.364C177.966 237.903 178.875 237.907 179.162 237.958C179.715 238.057 180.341 238.524 179.722 239.046C179.233 239.467 178.374 239.288 177.797 239.231C176.513 239.132 175.221 239.229 173.966 239.518C172.654 239.789 171.326 240.191 169.983 240C169.28 239.899 168.65 239.553 167.955 239.438C166.844 239.248 165.762 239.8 164.671 239.93C163.797 240.002 162.934 240.141 162.086 240.356C161.151 240.606 160.204 240.633 159.265 240.838C158.987 240.877 158.734 241.018 158.555 241.233C158.375 241.448 158.282 241.722 158.292 242.002C158.229 242.682 158.557 243.633 158.019 244.196C157.749 244.476 156.469 244.412 156.48 244.89C156.48 245.181 157.326 245.337 157.486 245.669C157.749 246.229 157.522 246.987 157.675 247.589C157.793 248.069 157.979 248.526 158.134 248.993C158.21 249.225 158.315 250.082 158.532 250.198C159.021 250.465 159.075 249.254 159.168 248.985C159.863 247.017 160.776 249.951 161.271 250.278C161.768 250.604 162.357 250.179 162.837 250.004C163.435 249.787 164.174 249.642 164.353 248.945C164.536 248.25 164.139 247.494 164.875 247.071C165.513 246.709 166.566 246.89 167.256 246.886C169.273 246.886 171.286 246.987 173.299 246.996C175.208 246.996 177.088 246.709 178.991 246.631C179.534 246.614 180.212 246.6 180.633 246.996C180.899 247.242 180.945 248.21 181.282 248.259C182.162 248.381 181.499 245.577 181.644 245.084C181.789 244.591 182.288 244.217 182.755 244.591C183.117 244.886 183.117 245.539 183.147 245.964C183.231 246.861 183.419 247.745 183.454 248.644C183.49 249.545 183.454 250.4 182.368 250.37C181.644 250.349 181.753 250.61 182.006 251.233C182.328 251.96 182.49 252.745 182.48 253.537C182.521 255.229 182.33 256.919 181.911 258.56C181.391 260.372 180.345 261.356 179.244 262.774C178.408 263.861 177.105 265.471 175.57 264.894C174.294 264.417 173.522 262.991 172.168 262.69C170.722 262.37 169.429 263.56 167.989 263.507C167.507 263.486 167.033 263.387 166.541 263.398C166.202 263.398 165.76 263.545 165.454 263.307C165.061 262.987 165.376 262.288 164.814 262.122C164.336 261.979 163.635 262.459 163.187 262.585C162.463 262.8 161.713 262.859 161.014 263.168C159.448 263.842 158.082 264.878 156.349 265.124C154.616 265.37 153.092 264.76 151.442 264.276C150.837 264.101 149.993 263.911 149.545 264.503C149.096 265.094 149.461 265.956 148.545 266.248C147.753 266.509 146.755 266.334 145.93 266.37C145.012 266.391 144.107 266.553 143.24 266.854C141.644 267.433 140.503 268.537 139.277 269.657C138.654 270.223 138.065 270.465 137.235 270.214C136.438 269.976 135.657 269.684 134.899 269.341C133.425 268.659 132.823 266.726 132.219 265.351C131.772 264.413 131.395 263.443 131.09 262.45C130.825 261.507 130.804 260.518 130.528 259.583C129.964 257.678 128.52 256.227 128.473 254.143C128.452 253.221 128.751 252.33 128.911 251.433C129.096 250.381 128.766 246.945 130.656 247.73C131.326 248.01 131.825 248.568 132.602 248.497C133.381 248.423 133.909 247.825 134.454 247.343C135.81 246.139 137.564 245.621 139.332 245.404C140.779 245.221 142.372 244.953 143.827 245.04C144.084 245.103 144.663 245.166 144.77 245.421ZM158.922 273.221H160.471C161.294 273.305 162.126 273.244 162.928 273.048C163.219 272.949 163.652 272.543 163.957 272.579C164.261 272.617 164.471 273.019 164.764 273.134C166.006 273.627 167.96 272.577 168.604 274.339C168.772 274.736 168.832 275.172 168.776 275.6C168.72 276.028 168.551 276.433 168.286 276.774C166.987 278.385 165.928 278.697 163.848 277.406C163.189 276.993 162.421 276.788 161.644 276.819C158.694 276.819 155.745 276.779 152.8 276.819C152.002 276.819 151.21 276.699 150.471 277.059C149.734 277.417 149.151 277.857 148.341 277.577C147.819 277.396 147.888 276.974 148.341 276.823C148.68 276.707 149.33 276.88 149.334 276.33C149.334 275.082 150.12 274.657 151.145 274.233C152.498 273.644 153.948 273.308 155.423 273.244C156.595 273.269 157.76 273.223 158.922 273.223V273.221Z" fill="#C4C3C6"/>
<path d="M171.048 242.542H171.175C171.869 242.619 172.575 242.514 173.269 242.619C173.922 242.737 174.524 243.036 175.015 243.483C175.267 243.744 175.543 243.988 175.836 244.207C176.151 244.339 176.48 244.432 176.817 244.48C177.09 244.563 177.326 244.819 177.143 245.11C176.842 245.588 175.922 245.392 175.543 245.182C174.57 244.606 173.451 244.326 172.322 244.373C170.349 244.422 168.364 244.493 166.393 244.487C165.972 244.487 164.945 244.428 165.116 243.739C165.231 243.238 166.071 243.255 166.463 243.224C167.442 243.148 168.337 242.735 169.297 242.539C169.876 242.447 170.467 242.449 171.048 242.542ZM180.93 240.043C180.996 239.805 180.84 239.35 181.347 239.384C181.678 239.405 181.669 239.746 181.659 239.99C181.648 240.232 181.745 240.714 181.25 240.693C180.928 240.672 180.945 240.342 180.93 240.045V240.043Z" fill="#C4C3C6"/>
<path d="M121.574 247.444C121.463 248.171 121.49 248.724 120.966 248.975C120.604 249.156 120.265 248.912 119.964 248.642C119.602 248.305 119.158 248.04 118.781 247.71C118.021 247.046 118.334 246.208 118.718 245.613C119.585 244.276 119.732 245.947 120.271 246.088C121.061 246.291 121.734 246.636 121.576 247.444H121.574Z" fill="black"/>
<path d="M126.021 263.249C124.916 263.805 124.535 262.862 124.076 262.161C123.663 261.552 123.221 260.851 124.046 260.224C125.072 259.453 125.606 260.177 126.067 260.975C126.488 261.727 127.11 262.485 126.019 263.249H126.021Z" fill="white"/>
<path d="M191.398 243.575C191.314 243.819 191.486 244.278 191 244.272C190.663 244.272 190.726 243.91 190.714 243.67C190.714 243.388 190.56 242.963 191.076 242.967C191.398 242.971 191.398 243.293 191.398 243.577V243.575Z" fill="black"/>
<path d="M148.124 240.811C144.866 240.275 141.899 239.782 138.807 240.811C136.506 241.58 135.912 242.601 134.508 242.264C133.103 241.925 132.364 240.63 131.64 239.39C131.051 238.382 129.036 234.574 130.556 230.778C130.884 229.965 131.301 228.925 132.367 228.264C133.089 227.801 134.019 227.592 137.739 228.264C140.876 228.83 142.228 229.352 145.263 229.717C147.541 229.984 148.095 229.854 148.489 229.717C150.19 229.11 150.447 227.801 152.43 225.765C153.878 224.285 155.192 223.477 156.727 222.534C159.31 220.955 160.602 220.159 162.459 220.022C165.716 219.778 168.192 221.639 168.91 222.176C170.501 223.382 171.739 224.994 172.493 226.843C170.788 230.898 171.095 233.462 171.769 235.1C172.196 236.119 172.933 237.184 172.493 237.971C172.051 238.759 170.741 238.672 168.91 238.698C164.257 238.738 161.724 238.761 159.234 239.786C157.482 240.51 156.937 241.237 154.935 241.599C153.751 241.804 152.54 241.804 151.356 241.599C150.294 241.278 149.215 241.016 148.124 240.811ZM152.802 245.675C152.596 245.801 152.228 246.127 152.023 248.424C151.909 249.86 151.909 251.304 152.023 252.74C152.234 256.464 152.383 257.515 151.63 258.23C151.268 258.563 151.209 258.371 150.063 259.016C148.678 259.795 147.954 260.203 147.714 260.978C147.392 262.022 148.03 263.472 148.891 263.723C149.571 263.923 149.918 263.23 151.63 262.938C152.354 262.818 152.741 262.755 153.198 262.938C154.059 263.3 153.922 264.049 154.76 264.506C155.602 264.965 156.971 264.792 157.506 264.115C157.8 263.736 157.596 263.531 157.895 262.936C158.402 261.94 159.274 261.961 159.459 261.369C159.706 260.595 158.373 259.988 157.506 258.622C156.531 257.123 156.596 255.5 156.72 252.348C156.836 249.414 157.331 248.78 156.72 247.632C155.887 246.085 153.788 245.068 152.804 245.675H152.802Z" fill="white"/>
<path d="M137.33 269.99C135.993 269.933 135.128 268.377 133.916 266.19C132.783 264.148 131.604 261.964 131.642 258.973C131.642 257.863 131.69 255.129 133.158 254.415C134.071 253.969 134.673 254.724 136.568 254.777C137.924 254.83 138.989 254.415 141.12 253.64C144.09 252.552 144.589 251.825 146.429 251.739C147.309 251.703 148.6 251.653 149.461 252.501C150.446 253.457 150.572 255.253 149.84 257.059C145.564 258.042 143.819 259.815 143.017 261.236C141.882 263.238 142.324 265.068 140.364 267.695C139.642 268.663 138.623 270.044 137.33 269.99ZM163.431 257.588C165.804 259.082 166.509 258.173 168.92 259.554C170.614 260.548 172.082 261.885 173.229 263.48C174.316 264.975 174.562 266.019 175.583 266.23C176.766 266.482 177.916 265.425 178.326 265.051C179.294 264.16 179.825 263.078 180.678 259.554C181.579 255.828 182.017 253.939 181.461 252.878C180.53 251.093 178.429 250.495 177.149 250.129C175.553 249.672 173.711 249.817 170.097 250.129C166.137 250.47 165.882 250.8 164.219 250.52C162.343 250.204 161.446 249.581 160.688 250.129C159.711 250.855 159.888 252.838 160.299 254.057C160.951 255.994 162.545 257.03 163.431 257.588ZM84.8018 340.354C84.9408 339.23 85.6166 335.59 88.4229 333.072C91.745 330.11 94.9366 331.48 101.749 328.217C104.36 326.966 103.366 327.017 107.804 324.59C111.654 322.472 112.606 322.32 119.511 318.926C123.562 316.935 125.585 315.941 125.972 315.691C128.383 314.124 129.903 312.674 132.433 312.453C133.527 312.365 134.627 312.503 135.665 312.859C136.2 314.882 136.739 316.905 137.28 318.926C139.916 322.874 142.607 326.785 145.353 330.657C151.96 339.977 154.764 343.24 159.08 346.034C162.092 347.971 164.236 349.348 167.156 349.268C169.516 349.206 172.566 348.181 180.482 338.345C187.758 329.28 197.513 317.16 194.598 309.217C194.303 308.413 193.511 306.649 194.198 305.979C195.156 305.04 198.177 307.148 202.673 309.217C205.985 310.737 208.916 311.579 214.787 313.261C221.909 315.308 222.025 314.651 228.109 316.499C232.102 317.737 236.014 319.223 239.821 320.95C245.438 323.383 248.29 324.64 250.318 326.613C251.446 327.701 255.021 331.173 255.564 336.322C255.688 337.457 256.002 341.762 251.945 347.651C242.829 360.846 221.396 367.977 220.457 368.282C207.686 372.402 188.52 378.388 160.709 377.171C147.503 376.594 127.916 375.531 107.417 364.223C102.764 361.659 83.4924 351.028 84.8018 340.354Z" fill="white"/>
</g>
<rect x="82" y="178" width="156" height="156" rx="78" stroke="black" stroke-width="4"/>
<g clip-path="url(#clip1_5989_327370)">
<rect y="-16" width="96" height="96" rx="48" fill="#DEE3E9"/>
<path d="M48.0006 39.8374C57.4262 39.8374 65.0672 32.1964 65.0672 22.7707C65.0672 13.3451 57.4262 5.7041 48.0006 5.7041C38.5749 5.7041 30.9339 13.3451 30.9339 22.7707C30.9339 32.1964 38.5749 39.8374 48.0006 39.8374Z" fill="#A7AEB7"/>
<path d="M18.1338 69.7041C18.1338 57.9222 27.685 48.3709 39.4671 48.3709H56.5338C68.3158 48.3709 77.8671 57.9222 77.8671 69.7041V111.305C77.8671 123.087 68.3158 132.637 56.5338 132.637H39.4671C27.685 132.637 18.1338 123.087 18.1338 111.305V69.7041Z" fill="#A7AEB7"/>
</g>
<g clip-path="url(#clip2_5989_327370)">
<rect x="160" y="80" width="48" height="48" rx="24" fill="#DEE3E9"/>
<path d="M184 107.919C188.713 107.919 192.533 104.099 192.533 99.3859C192.533 94.673 188.713 90.8525 184 90.8525C179.287 90.8525 175.466 94.673 175.466 99.3859C175.466 104.099 179.287 107.919 184 107.919Z" fill="#A7AEB7"/>
<path d="M169.066 122.853C169.066 116.962 173.842 112.186 179.733 112.186H188.266C194.157 112.186 198.933 116.962 198.933 122.853V143.653C198.933 149.544 194.157 154.319 188.266 154.319H179.733C173.842 154.319 169.066 149.544 169.066 143.653V122.853Z" fill="#A7AEB7"/>
</g>
<g clip-path="url(#clip3_5989_327370)">
<rect x="16" y="376" width="96" height="96" rx="48" fill="#DEE3E9"/>
<path d="M64.0006 431.837C73.4262 431.837 81.0672 424.196 81.0672 414.771C81.0672 405.345 73.4262 397.704 64.0006 397.704C54.5749 397.704 46.9339 405.345 46.9339 414.771C46.9339 424.196 54.5749 431.837 64.0006 431.837Z" fill="#A7AEB7"/>
<path d="M34.1338 461.704C34.1338 449.922 43.685 440.371 55.4671 440.371H72.5338C84.3158 440.371 93.8671 449.922 93.8671 461.704V503.305C93.8671 515.087 84.3158 524.637 72.5338 524.637H55.4671C43.685 524.637 34.1338 515.087 34.1338 503.305V461.704Z" fill="#A7AEB7"/>
</g>
<defs>
<clipPath id="clip0_5989_327370">
<rect x="80" y="176" width="160" height="160" rx="80" fill="white"/>
</clipPath>
<clipPath id="clip1_5989_327370">
<rect y="-16" width="96" height="96" rx="48" fill="white"/>
</clipPath>
<clipPath id="clip2_5989_327370">
<rect x="160" y="80" width="48" height="48" rx="24" fill="white"/>
</clipPath>
<clipPath id="clip3_5989_327370">
<rect x="16" y="376" width="96" height="96" rx="48" fill="white"/>
</clipPath>
</defs>
</svg>
