<svg width="391" height="184" viewBox="0 0 391 184" fill="none" xmlns="http://www.w3.org/2000/svg">
<g clip-path="url(#clip0_6332_284102)">
<path d="M255 84C255 68.5359 267.536 56 283 56C298.464 56 311 68.5359 311 84C311 99.4641 298.464 112 283 112C267.536 112 255 99.4641 255 84Z" fill="#623AD6"/>
<path d="M291.992 122.64C289.548 122.62 287.093 122.427 284.718 122.238L284.468 122.218C281.146 121.956 278.406 121.637 275.845 121.216C274.642 121.019 273.444 120.789 272.252 120.527L272.187 120.512C269.466 119.802 266.821 118.826 264.289 117.6L264.183 117.543C262.692 116.656 261.282 115.641 259.968 114.508L259.884 114.431C258.484 113.028 257.172 111.529 255.903 110.081L255.867 110.039L255.723 109.877L255.612 109.747L255.421 108.008C255.625 107.637 255.812 107.308 255.999 107C256.207 106.644 256.433 106.3 256.677 105.968C257.686 104.555 259.097 103.479 260.727 102.88C260.988 102.705 261.225 102.548 261.462 102.403C261.626 102.303 261.796 102.204 261.972 102.106C263.328 100.329 266.826 99.9432 267.473 99.8843C268.162 99.6323 268.851 99.4105 269.528 99.2248L269.73 99.1828C270.113 99.1341 270.498 99.0992 270.884 99.0782C271.029 99.0576 271.181 99.0391 271.344 99.0222C271.858 98.6653 272.38 98.3218 272.912 97.9921L272.966 97.9597C273.368 97.7099 273.985 97.3289 274.7 97.1757C274.46 96.8766 274.196 96.5975 273.91 96.3408C273.686 96.1264 273.456 95.9061 273.228 95.6585L273.057 95.4352C273.079 95.4721 273.106 95.5082 273.134 95.5414L273.097 95.503C273.049 95.4544 272.981 95.3866 272.909 95.3034L272.872 95.2577C272.145 94.3351 271.855 93.2977 271.6 92.3744V92.3575C271.575 92.2705 271.551 92.1659 271.523 92.0524C271.504 91.975 271.476 91.8623 271.446 91.7488C271.209 91.776 270.969 91.7905 270.73 91.7923C270.36 91.796 269.992 91.7454 269.637 91.642C269.313 91.5485 269.012 91.3912 268.75 91.1792C268.489 90.9672 268.273 90.7049 268.114 90.4078C267.736 89.6975 267.686 88.8015 267.974 87.8848C268.055 87.6232 267.776 87.1229 267.506 86.6359C267.412 86.4657 267.315 86.2896 267.222 86.1061C266.193 84.0783 266.077 82.0439 266.877 80.0588L267.025 79.8415C266.971 79.3257 266.883 78.8128 266.764 78.3074C266.725 78.1224 266.683 77.9301 266.642 77.7289C266.311 76.085 266.436 74.4205 266.602 73.0087C267.288 67.2068 271.492 62.6531 277.849 60.8302C279.284 60.4159 280.77 60.2038 282.263 60.2002C285.569 60.2002 288.807 61.2664 291.632 63.2831C292.186 63.6776 292.716 64.1048 293.219 64.5623C293.944 65.2247 294.683 65.977 295.161 66.9954C295.954 68.6835 296.484 70.5484 296.782 72.6963C296.831 73.047 296.873 73.4125 296.912 73.7824C296.966 74.1287 296.988 74.478 296.979 74.828V74.8877C297.358 75.0331 297.704 75.2554 297.994 75.5407C298.284 75.826 298.512 76.1681 298.663 76.5456C298.828 76.9451 298.927 77.369 298.956 77.8004C298.981 78.1497 298.965 78.5004 298.908 78.8467C298.916 79.0214 298.93 79.2078 298.945 79.403C298.957 79.5467 298.967 79.6919 298.977 79.8363V80.061C298.934 80.7938 298.95 81.5287 299.023 82.259C299.112 83.4704 299.211 84.8439 298.83 86.2851L298.779 86.4472C298.616 86.871 298.39 87.2676 298.108 87.6232C297.991 87.7699 297.865 87.9077 297.729 88.0359C297.825 88.1611 297.913 88.2916 297.99 88.4286C298.95 89.2701 299.662 90.2501 300.351 91.1999C301.041 92.1504 301.668 92.9992 302.477 93.6447C302.689 93.8135 302.856 94.0316 302.966 94.2799C303.088 94.4029 303.203 94.5208 303.313 94.6358C303.819 95.1567 304.298 95.7027 304.749 96.2716C304.881 96.4359 305.011 96.6031 305.129 96.7704C306.028 97.6229 307.247 98.0319 308.435 98.3472C308.678 98.4106 308.944 98.4769 309.294 98.5595C309.547 98.6132 309.806 98.6722 310.063 98.7319C311.264 98.7563 312.438 99.1028 313.46 99.7355C315.929 100.636 318.005 101.808 319.799 103.315C320.025 103.477 320.242 103.638 320.452 103.795C320.692 103.983 320.923 104.171 321.139 104.356L321.227 104.439C321.478 104.691 321.731 104.962 321.98 105.245L322.068 107.149C321.78 107.545 321.49 107.94 321.198 108.334L320.918 108.712C319.474 110.672 317.979 112.688 316.346 114.571L316.25 114.672C315.331 115.546 314.343 116.345 313.295 117.06L313.165 117.137C310.794 118.453 308.146 119.55 304.832 120.589L304.776 120.606C300.628 121.749 296.368 122.431 292.071 122.639L291.992 122.64Z" fill="black"/>
<path d="M256.911 109.032C258.197 110.5 259.482 111.97 260.859 113.351C262.104 114.425 263.442 115.387 264.855 116.226C267.299 117.407 269.852 118.347 272.477 119.034C273.64 119.289 274.81 119.513 275.988 119.706C278.802 120.168 281.643 120.468 284.479 120.693C286.945 120.889 289.422 121.091 291.898 121.111C296.086 120.911 300.239 120.248 304.281 119.134C307.054 118.264 309.789 117.214 312.331 115.804C313.31 115.136 314.232 114.389 315.089 113.57C316.787 111.61 318.334 109.499 319.87 107.428L320.733 106.252C320.51 105.998 320.28 105.751 320.041 105.511C319.629 105.161 319.202 104.829 318.76 104.518C315.938 102.132 312.489 100.813 308.857 100.046C308.55 99.9731 308.245 99.8987 307.942 99.8176C306.429 99.4175 304.984 98.8863 303.868 97.77C303.735 97.5801 303.596 97.3948 303.451 97.2144C303.03 96.6849 302.584 96.1768 302.112 95.6921C301.908 95.4798 301.7 95.2706 301.491 95.065C299.001 92.4956 296.465 89.9594 294.424 86.9804C294.325 86.7667 294.235 86.5486 294.156 86.3268C293.771 85.2304 293.671 84.1052 293.691 82.93C293.713 81.5506 294.083 80.2125 294.159 78.8368C294.059 77.6608 293.76 76.4848 293.435 75.3427C293.047 74.0309 292.623 72.7302 292.163 71.4418C291.651 70.0345 291.068 68.6124 290.726 67.1453C289.419 66.9869 288.112 66.8182 286.816 66.578C285.844 66.3974 284.869 66.2058 283.89 66.0371L283.826 66.0887L282.876 66.6745C281.195 67.2684 279.552 67.9632 277.842 68.4783C276.645 68.8393 275.437 69.2122 274.185 69.3603C273.099 69.4907 271.931 69.5496 270.854 69.3087L270.786 69.2984C270.618 69.7611 270.469 70.2305 270.336 70.7057C270.064 72.0276 269.925 73.3734 269.922 74.723C270.039 76.7702 270.381 78.7982 270.943 80.7703C271.851 83.6449 273.092 86.4035 274.641 88.9897C275.64 90.5588 276.734 92.0648 277.918 93.4992C278.064 93.6738 278.195 93.8595 278.31 94.0548C278.421 94.242 278.514 94.438 278.591 94.6406C279.645 98.3727 274.574 99.5892 271.962 100.48C271.615 100.507 271.275 100.54 270.948 100.591C270.568 100.61 270.203 100.638 269.842 100.686C268.82 100.97 267.816 101.317 266.838 101.725C266.51 101.862 266.184 102.005 265.855 102.149C264.552 102.474 263.306 102.996 262.16 103.696C261.878 103.869 261.601 104.053 261.33 104.241C259.908 104.725 258.673 105.643 257.802 106.866C257.588 107.158 257.39 107.46 257.208 107.772C257.016 108.092 256.832 108.414 256.654 108.739L256.912 109.032H256.911Z" fill="white"/>
<path d="M297.281 78.7164C297.336 78.4512 297.354 78.1786 297.337 77.9089C297.319 77.6421 297.259 77.3799 297.158 77.1322C297.067 76.8852 296.909 76.6686 296.701 76.507C296.493 76.3454 296.244 76.2452 295.982 76.2178C295.604 76.0579 295.303 75.8568 295.356 75.2526C295.337 74.8281 295.375 74.3632 295.297 73.9911C295.263 73.6263 295.221 73.2616 295.167 72.8998C294.916 71.0857 294.463 69.3114 293.676 67.6351C293.311 66.8584 292.715 66.2535 292.087 65.6751C291.63 65.2597 291.149 64.8712 290.647 64.5116C286.942 61.8708 282.527 61.0344 278.152 62.29C272.896 63.7969 268.657 67.5864 267.996 73.185C267.831 74.5864 267.735 76.0292 268.017 77.424C268.226 78.4586 268.443 79.2374 268.455 80.3073C268.374 80.4252 268.279 80.5313 268.173 80.6249C267.51 82.268 267.666 83.8434 268.463 85.4143C268.927 86.3288 269.639 87.2712 269.31 88.3374C269.087 89.0462 269.14 89.9363 269.962 90.1817C270.558 90.3586 271.213 90.2127 271.818 90.1633C272.614 90.0992 272.803 91.3982 272.955 91.9464C273.187 92.7754 273.42 93.625 273.963 94.3117C274.064 94.4112 274.159 94.518 274.245 94.6308C275.089 95.5459 276.218 96.2643 276.398 97.6562C276.497 97.7579 276.591 97.8648 276.678 97.9775L276.173 98.6672C276.006 98.8632 276.016 99.1019 276.004 99.3392C275.948 100.498 276.09 101.691 276.577 102.747C277.012 103.695 277.677 104.511 278.314 105.327C279.126 106.364 280 107.428 281.22 107.995C281.706 108.221 282.24 108.299 282.679 108.622C283.309 109.088 283.913 109.72 284.256 110.431C284.486 110.911 284.661 111.75 285.3 111.84C286.214 111.97 287.236 110.424 287.703 109.818C288.322 109.015 288.818 108.127 289.401 107.295C289.821 106.687 290.239 106.075 290.707 105.506C291.177 104.935 291.456 104.207 291.743 103.519C291.802 103.377 291.864 103.239 291.929 103.101C292.191 102.538 292.5 102.005 292.807 101.458C293.326 100.531 293.81 99.5838 294.257 98.6193C294.63 97.8272 295.075 97.0616 295.331 96.2209C295.529 95.568 295.462 94.6219 295.963 94.112C296.094 93.9816 296.039 93.8011 296.069 93.6419C296.146 93.1425 296.278 92.653 296.461 92.1822C296.653 91.8057 296.602 91.3982 296.618 91.0062C296.629 90.7056 296.542 90.3895 296.691 90.111C296.976 89.1501 295.962 88.4406 295.254 88.1362C295.05 88.0346 295.151 87.6293 295.151 87.6293C295.912 87.4768 296.445 87.1341 296.815 86.6714C297.001 86.4363 297.149 86.1748 297.255 85.8955C297.788 83.8766 297.18 81.949 297.356 79.9271C297.33 79.5174 297.285 79.1166 297.28 78.7164H297.281Z" fill="black"/>
<path d="M275.78 98.8446C276.353 99.3177 276.194 100.357 276.107 100.995C275.976 101.932 275.497 103.079 275.938 103.991C276.199 104.532 277.176 104.467 276.844 105.177C276.627 105.64 275.799 105.713 275.498 106.135C275.25 106.482 275.279 106.926 275.077 107.284C275.043 107.345 274.487 108.022 274.443 107.848C274.405 107.753 274.377 107.653 274.362 107.551C274.387 108.074 274.21 110.082 273.397 110.041C272.908 110.017 272.635 109.083 272.504 108.734C272.038 107.429 271.718 106.076 271.549 104.7C270.653 104.76 270.574 106.067 270.444 106.736C270.233 107.89 270.084 109.068 269.707 110.183C269.329 111.298 268.642 112.342 268.424 113.528C268.308 114.166 268.462 115.348 267.662 115.571C267.662 115.571 267.866 112.654 267.889 112.344C267.987 110.958 268.11 109.555 268.747 108.292C269.008 107.777 269.97 106.294 268.992 105.931C268.181 105.629 268.062 106.809 267.556 107.107C266.623 107.662 267.224 106.149 267.556 105.788C267.977 105.333 268.553 104.949 268.846 104.394C268.087 104.133 267.137 104.254 266.528 104.802C266.203 105.095 265.638 105.909 266.339 106.108C266.069 106.032 264.832 107.388 264.641 107.623C263.595 107.128 265.046 105.271 265.144 104.559C265.226 103.968 265.442 103.042 264.681 103.168C264.186 103.251 263.841 103.916 263.384 104.103C263.351 103.792 263.135 103.665 262.841 103.768C262.668 102.144 266.412 101.481 267.536 101.391C267.322 101.811 266.403 102.642 266.668 103.165C266.999 103.818 268.071 103.023 268.436 102.792C270.188 101.676 271.833 100.371 273.591 99.2823C274.122 98.9544 275.001 98.3834 275.638 98.7592C275.688 98.7835 275.736 98.8122 275.78 98.8446ZM296.259 92.1799C296.334 91.1977 296.412 90.2147 296.489 89.2325C298.51 90.7659 299.447 93.2608 301.428 94.8288C301.533 94.9114 301.504 95.1634 301.537 95.3358C301.642 95.4728 301.668 95.6077 301.526 95.7366C300.38 94.9622 299.818 93.7125 298.979 92.7318C298.757 93.1238 298.499 93.2269 298.406 92.9013C298.275 92.496 298.303 92.0428 298.003 91.7113C297.947 91.8402 297.906 91.9765 297.882 92.1143C297.84 92.8607 297.847 92.8268 297.316 92.8151C297.206 92.8151 296.97 93.1908 296.997 93.3603C297.116 94.1141 296.637 94.7242 296.588 95.6674C296.327 94.1922 296.357 92.9617 296.894 91.2706C296.476 91.8675 296.368 92.0244 296.259 92.1799ZM300.039 115.458C300.833 114.161 301.092 112.679 301.925 111.42C302.394 110.709 302.521 109.782 302.918 109.012C303.382 108.11 304.009 107.294 304.494 106.399C304.794 105.846 304.982 105.223 305.179 104.623C305.247 104.411 305.247 104.197 305.509 104.129C305.049 106.688 303.714 108.964 302.702 111.307C302.076 112.744 301.396 114.162 300.784 115.607C300.739 115.713 300.49 115.777 300.336 115.774C300.252 115.777 300.167 115.606 300.039 115.458ZM309.134 106.982C309.253 105.792 309.978 104.915 310.639 103.997C311.144 103.297 311.577 102.549 312.067 101.839C312.275 101.54 311.212 101.39 312.076 101.106C310.777 100.854 309.555 100.617 308.332 100.379C309.855 100.085 311.362 100.236 312.65 101.082C313.084 101.366 312.989 102.373 312.673 102.824C311.795 104.078 310.498 105.01 309.809 106.436C309.694 106.674 309.371 106.811 309.146 106.992L309.134 106.982ZM308.33 108.821C308.106 109.851 307.604 110.756 307.11 111.678C306.616 112.601 306.285 113.578 305.868 114.527C305.791 114.648 305.696 114.756 305.587 114.848C305.558 114.747 305.482 114.634 305.506 114.549C305.797 113.454 305.93 112.27 306.456 111.299C306.938 110.415 307.211 109.264 308.317 108.809L308.33 108.821ZM296.906 84.7886C296.817 84.8026 296.645 84.7054 296.464 84.5477C295.752 83.9368 296.197 85.3641 296.212 85.5925C295.7 85.5748 295.014 85.3914 294.906 84.9058C294.797 84.4195 295.265 83.8595 295.8 83.7114C296.362 83.5566 296.689 83.9818 296.871 84.3723C297.007 84.6523 296.996 84.7746 296.906 84.7894V84.7886ZM296.86 78.8615C296.806 78.9639 296.729 79.0309 296.642 79.2041C296.511 79.4657 296.556 79.7987 296.358 80.022C295.795 79.8378 296.175 79.1842 296.236 78.8092C296.281 78.5292 296.057 77.0466 296.538 77.1771C296.951 77.2898 296.941 78.2919 296.923 78.5992C296.921 78.6901 296.9 78.7796 296.86 78.8615ZM285.555 77.4865C285.555 77.7592 285.082 78.1644 284.974 78.356C284.742 78.7776 284.576 79.2324 284.483 79.7044C284.345 80.3646 284.004 81.7786 284.773 82.2244C285.229 82.4853 285.382 82.0933 285.591 81.7912C285.917 81.3225 286.32 81.7042 286.725 81.4544C286.522 81.324 286.086 81.1862 286.464 80.9092C286.746 80.7058 287.191 80.9556 287.397 81.1501C287.737 81.4743 287.887 81.8464 288.357 82.0255C288.802 82.1942 289.295 82.178 289.76 82.1353C290.614 82.0542 291.509 81.7875 291.922 80.9593C292.141 80.5186 292.101 80.1421 292.072 79.6772C292.055 79.4016 292.168 78.8681 292.52 79.1805C292.725 79.3625 292.764 79.6617 292.927 79.8761C293.274 80.3344 293.512 80.6056 293.422 81.2208C293.277 82.2347 293.439 83.3636 293.039 84.3266C292.616 85.3472 292.882 86.4753 292.936 87.5533C293.023 89.3408 293.106 91.2028 293.02 93.0133C292.952 94.4427 292.672 96.0417 291.438 96.9421C291.308 97.0386 291.125 97.1735 290.947 97.1484C290.719 97.1167 290.686 96.8868 290.49 96.8242C289.878 96.6437 289.082 98.1218 288.479 98.3008C287.988 98.4475 287.792 98.1269 287.372 97.9862C286.509 97.6944 285.051 100.198 284.297 99.0421C283.953 98.5189 284.94 98.0267 285.219 97.6996C285.55 97.3076 286.442 96.8751 286.604 96.3932C286.832 95.7175 285.442 95.9916 285.112 95.716C285.323 95.3697 285.834 95.548 286.158 95.436C286.593 95.2864 286.708 94.8392 286.91 94.4722C287.394 93.5924 288.189 92.9182 288.634 92.0156C288.973 91.3281 289.077 90.4476 289.941 90.2641C290.299 90.1889 290.691 90.1742 290.711 89.6842C290.728 89.2922 290.371 89.1942 290.047 89.1301C289.406 88.9997 288.237 89.0063 287.826 89.6267C288.04 89.7012 288.898 89.6437 288.756 90.0799C288.668 90.3525 288.103 90.3142 287.884 90.3348C286.546 90.4579 285.342 91.2146 283.988 91.2132C283.246 91.2132 282.497 91.0953 281.758 91.0393C281.522 91.0208 280.801 90.956 281.234 90.6591C281.372 90.5633 281.603 90.6406 281.758 90.5662C281.926 90.4608 282.057 90.3061 282.133 90.1234C282.264 89.8765 282.416 89.1942 282.76 89.1434C283.059 89.0999 283.16 89.4108 283.062 89.6179C282.984 89.78 282.621 89.9038 282.827 90.1742C283.219 90.6893 283.703 89.458 283.806 89.2598C283.925 89.5987 284.477 90.2671 284.835 89.8331C284.999 89.6334 284.835 89.29 285.03 89.1132C285.263 88.9032 285.651 89.1448 285.914 89.0712C286.356 88.9511 286.96 88.1029 286.829 87.6343C286.568 86.7391 285.289 87.4066 284.83 87.6822C283.905 88.2422 283.393 87.9991 282.5 87.5334C281.819 87.1753 281.007 87.1649 281.343 86.1665C281.659 85.2897 281.822 84.3657 281.822 83.4343C281.822 82.5354 281.783 81.6364 281.738 80.7382C281.7 79.9542 281.569 79.0619 280.748 78.7259C280.033 78.4319 279.064 78.7259 278.457 78.1747C279.229 77.3672 281.593 78.0701 282.246 78.7598C282.8 79.3478 282.435 80.0235 282.769 80.6505C283.102 81.2783 283.34 80.6837 283.357 80.2895C283.378 79.7781 283.253 79.2645 283.283 78.7546C283.321 78.0473 283.959 77.9559 284.477 77.6398C284.689 77.5094 285.384 77.0091 285.536 77.3959C285.549 77.4245 285.556 77.4557 285.555 77.4873V77.4865Z" fill="#C4C3C6"/>
<path d="M278.354 78.0537C278.223 78.143 278.071 78.1971 277.913 78.2106C277.29 78.2578 276.656 78.148 276.03 78.1753C275.478 78.2003 274.594 78.5673 274.06 78.3322C273.421 78.0522 273.762 77.0354 273.602 76.5026C273.393 75.7953 272.988 75.3075 273.298 74.5596C273.592 73.8463 273.872 73.2532 273.87 72.4588C273.87 71.6365 273.534 70.8614 273.529 70.0464C273.524 69.2307 273.993 68.7039 274.476 68.1122C274.933 67.5507 275.251 66.8891 275.722 66.3401C276.213 65.7691 276.873 65.4139 277.551 65.1214C280.453 63.8835 284.376 63.3441 286.89 65.6961C287.987 66.7247 288.491 68.0761 288.989 69.4584C289.22 70.1549 289.523 70.8249 289.894 71.4575C290.264 72.0521 290.7 72.6062 291.026 73.2281C291.475 74.0895 291.875 75.6052 291.001 76.3641C290.434 76.8541 289.667 76.6338 289.005 76.5446C288.185 76.4363 287.634 76.7215 286.914 77.0678C286.703 77.1695 285.87 77.5902 285.657 77.2608C285.346 76.7657 286.486 76.4466 286.749 76.384C287.454 76.2131 288.839 75.9412 288.919 75.0238C288.972 74.4004 288.395 74.147 287.972 73.8478C287.276 73.3666 287.565 72.8111 287.431 72.0978C287.275 71.429 287.016 70.7885 286.664 70.199C286.302 69.5852 285.606 69.3553 285.214 68.7525C284.431 67.553 283.505 67.1337 282.079 67.1425C280.725 67.1499 279.404 67.452 278.354 68.351C275.856 70.4907 276.003 73.7498 276.308 76.7642C276.359 77.2874 276.507 77.7516 277.115 77.7472C277.464 77.7472 277.878 77.5195 278.226 77.6462C278.573 77.773 278.523 77.9314 278.354 78.0537ZM279.328 81.9862C280.007 82.0577 280.855 82.7297 281.038 83.2786C281.3 84.0508 280.704 85.0161 280.385 85.683C280.066 86.3491 279.326 87.3202 279.779 88.0585C280.051 88.5043 280.544 88.469 280.936 88.7217C281.35 88.9928 281.515 89.4305 281.849 89.7805C280.65 89.6752 279.612 90.1637 278.446 90.188C277.354 90.2101 276.722 89.6228 276.453 90.9816C276.28 91.8481 275.834 93.1811 276.386 93.996C276.8 94.6076 277.741 94.6739 278.363 94.9893C278.763 94.587 278.249 94.5567 278.19 94.2141C278.122 93.8221 278.371 93.4773 278.158 93.1221C277.819 92.5562 276.71 92.7832 276.507 92.0596C276.146 90.7723 278.662 92.1053 279.071 92.403C279.724 92.8745 280.193 93.5207 280.743 94.083C280.925 94.2708 281.122 94.4455 281.33 94.6054C281.873 94.7188 281.873 95.2258 282.177 95.5301C282.988 96.1395 284.006 95.5301 284.921 95.7342C285.146 95.833 285.352 95.97 285.53 96.1395C285.023 96.4438 284.109 96.1395 284.109 96.9507C284.109 97.8659 285.939 98.2697 285.53 98.6757C284.414 99.8922 282.285 99.2836 280.656 98.7494C280.126 98.5313 279.635 98.229 279.202 97.8541C278.965 97.6186 278.758 97.3551 278.586 97.0694C278.402 96.9065 278.21 96.7511 278.001 96.5978C277.779 96.4364 277.552 96.283 277.32 96.138C276.459 95.6038 275.773 94.9893 275.342 94.055C274.472 92.1723 274.689 89.9751 274.227 87.9907C274.053 87.2355 271.954 83.6404 273.418 83.4172C274.261 83.286 277.494 85.5496 277.237 83.0016C277.93 83.2941 278.471 82.1174 279.039 81.9951C279.135 81.9774 279.232 81.9744 279.328 81.9862ZM290.433 103.951C290.369 104.683 290.041 105.115 289.482 105.548C288.554 106.261 287.335 107.045 286.589 107.95C286.276 108.328 286.147 108.79 285.909 109.21C285.322 110.246 284.517 110.102 283.732 109.361C283.29 108.944 279.532 105.951 280.698 105.179C280.991 104.983 281.55 105.19 281.861 105.238C282.858 105.393 283.91 105.553 284.912 105.361C286.718 105.016 287.416 103.187 288.861 102.259C289.645 101.757 290.322 101.319 290.877 100.553C291.432 99.7876 291.866 98.9203 292.444 98.1599C292.919 97.5402 293.342 96.9065 293.789 96.2699C294.034 95.9214 294.415 95.3997 294.538 96.0665C294.685 96.8505 293.815 97.7561 293.446 98.3728C292.891 99.2804 292.383 100.216 291.925 101.177C291.674 101.714 291.559 102.426 291.168 102.876C290.725 103.391 290.073 102.895 289.456 103.313C289.202 103.486 288.496 104.429 289.029 104.654C289.302 104.769 289.813 104.205 290.028 104.094C290.148 104.01 290.286 103.957 290.431 103.939L290.433 103.951Z" fill="#C4C3C6"/>
<path d="M283.681 92.8536C283.605 92.868 283.527 92.865 283.453 92.8447C283.145 92.7689 282.893 92.6252 282.571 92.7246C282.482 92.7519 282.388 92.8551 282.302 92.8654C282.215 92.8764 282.121 92.7792 282.04 92.7534C281.902 92.7347 281.763 92.729 281.624 92.7364C281.4 92.7114 281.207 92.5795 280.99 92.5257C280.817 92.5015 280.648 92.4577 280.485 92.3953C280.355 92.3326 280.284 92.2096 280.423 92.1079C280.561 92.0055 280.732 92.0423 280.872 92.0136C281.05 91.9569 281.233 91.9178 281.418 91.8957C281.63 91.8957 281.842 91.9156 282.053 91.9156C282.369 91.9156 282.685 91.9156 283.002 91.9038C283.64 91.8913 284.278 91.8433 284.911 91.7601C285.204 91.7196 285.494 91.6673 285.785 91.6135C286.043 91.5494 286.296 91.4683 286.544 91.3696C286.72 91.3143 287.711 91.3475 287.314 91.7277C287.231 91.7901 287.139 91.8409 287.042 91.8787C286.936 91.9355 286.843 92.0099 286.74 92.0711C286.61 92.1418 286.527 92.1064 286.402 92.1418C286.278 92.1772 286.155 92.2567 286.026 92.2965C285.544 92.4358 285.043 92.634 284.533 92.6045C284.34 92.5846 284.146 92.6305 283.983 92.735C283.89 92.7916 283.788 92.8317 283.681 92.8536ZM290.469 103.936C290.229 104.111 289.981 104.279 289.75 104.46C289.469 104.685 289.185 105.31 288.835 104.828C288.484 104.345 288.634 103.489 289.181 103.291C289.562 103.152 290.213 101.937 290.707 103.249L290.469 103.936Z" fill="white"/>
<path d="M290.725 78.7256C290.443 78.9688 289.941 78.8089 289.615 78.7543C289.209 78.7044 288.799 78.7022 288.393 78.7477C288.216 78.758 287.32 78.7971 287.335 78.4707C287.352 78.1111 288.834 78.0006 289.101 77.9858C289.435 77.9504 289.772 77.9866 290.091 78.0919C290.171 78.1243 290.884 78.5834 290.725 78.7256ZM275.251 80.5751C275.035 80.6311 274.84 80.6075 274.772 80.3135C274.642 79.7358 275.556 79.6275 275.935 79.5722C276.088 79.5501 277.908 79.5855 277.848 79.6901C277.456 80.3658 276.411 80.1986 275.764 80.3879C275.62 80.4284 275.428 80.5279 275.251 80.5751ZM269.464 87.5368C269.48 87.1868 269.595 86.8559 269.681 86.8692C270.267 86.9569 270.204 87.6414 270.382 88.0717C270.504 88.3517 270.169 88.3156 269.98 88.3326C269.557 88.3694 269.446 87.9391 269.464 87.5368ZM295.789 81.2766C295.85 81.544 295.776 81.7872 295.46 81.7769C294.87 81.7562 294.361 80.4704 295.223 80.6009C295.475 80.6451 295.714 80.9767 295.789 81.2766ZM289.706 80.6834V80.6908C289.706 80.8728 289.645 81.1181 289.489 81.2316C289.399 81.3001 288.782 81.3141 288.845 81.155C288.986 80.7917 289.704 79.7476 289.706 80.6834ZM269.706 85.4095C269.499 85.3719 269.146 85.492 269.217 85.1103C269.262 84.9668 269.345 84.8378 269.457 84.7368C269.615 84.5599 269.587 84.5835 269.771 84.6277C270.033 84.6896 270.25 84.8075 270.211 85.1037C270.171 85.4007 269.953 85.394 269.705 85.4095H269.706ZM277.202 82.9448C277.113 82.5815 276.192 82.6331 276.089 82.2116C276.004 81.8682 276.351 81.9154 276.553 82.0421C276.869 82.2566 277.099 82.5763 277.202 82.9448Z" fill="#C4C3C6"/>
<path d="M279.327 82.0459C279.158 82.2183 278.787 82.225 278.565 82.2279C278.818 82.0783 278.583 81.718 278.695 81.5036C278.879 81.1624 279.376 81.4645 279.411 81.7652C279.42 81.8153 279.417 81.8668 279.403 81.9155C279.388 81.9643 279.362 82.0089 279.327 82.0459Z" fill="white"/>
<path d="M287.352 91.6853C287.272 91.6426 287.241 91.5202 287.142 91.4753C287.062 91.4458 286.977 91.4359 286.893 91.4466C286.717 91.4613 286.49 91.5593 286.324 91.4635C286.241 91.4171 286.648 91.1585 286.697 91.1474C286.933 91.1002 287.168 91.2012 287.403 91.1879C287.574 91.1791 287.77 91.2218 287.739 91.4495C287.719 91.5947 287.505 91.7641 287.352 91.6853ZM281.072 91.9064C281.095 92.4634 280.49 92.0125 280.372 92.3462C279.966 92.1915 279.792 92.0287 280.381 91.9137C280.61 91.8894 280.842 91.8872 281.072 91.9064H281.072Z" fill="#C4C3C6"/>
<path d="M287.328 81.0314L286.314 81.0461C286.274 80.6423 286.667 80.7735 286.837 80.6254C286.849 80.6109 286.863 80.5995 286.88 80.5919C286.896 80.5844 286.915 80.5811 286.933 80.5823C286.951 80.5834 286.969 80.589 286.984 80.5986C287 80.6082 287.012 80.6214 287.022 80.6372L287.328 81.0314Z" fill="white"/>
<path d="M277.649 80.652C277.572 80.656 277.496 80.6415 277.426 80.6097C277.356 80.5779 277.294 80.5297 277.247 80.4692C277.369 80.3768 277.521 80.3342 277.673 80.3499C277.754 80.3617 278.003 80.5171 278.077 80.4604C277.956 80.5655 277.808 80.6322 277.649 80.652ZM287.019 80.6365L286.835 80.6247L286.911 80.3631L287.019 80.6358V80.6365Z" fill="#C4C3C6"/>
<path d="M278.283 78.155C277.76 77.5825 277.08 77.9538 276.478 77.8934C276.066 77.8507 275.9 77.7947 275.908 77.3526C275.935 75.6541 276.019 73.941 275.89 72.2381C275.778 70.777 276.667 69.9591 277.45 68.8899C278.326 67.6918 279.608 67.1355 281.101 67.0478C282.052 66.9918 283.144 66.8253 284.051 67.1967C285.836 67.9269 286.461 69.7498 287.564 71.1093C288.17 71.8579 287.172 73.647 288.557 73.7634C289.269 73.8231 289.424 74.7213 289.256 75.2739C289.023 76.0366 288.163 76.3689 287.416 76.475C286.946 76.5413 286.542 76.7815 286.17 77.0645C286.013 77.2092 285.837 77.3326 285.647 77.4314C285.43 77.5213 285.185 77.5213 284.962 77.5891C283.655 77.9811 283.301 79.1512 283.493 80.4053C283.539 80.6993 283.773 81.2755 283.224 81.3094C282.998 81.3241 282.512 80.742 282.521 80.4444C282.601 78.1498 280.9 78.2677 279.332 78.1822C278.987 78.1601 278.637 78.1631 278.283 78.155ZM284.278 98.4778C284.044 98.4051 283.831 98.2772 283.658 98.105C283.338 97.8191 282.977 97.5369 283.173 97.083C283.531 96.2548 284.184 96.1133 284.972 95.907C285.43 95.7847 286.53 95.4236 286.826 96.0116C287.218 96.7956 285.979 97.1265 285.616 97.5605C285.142 98.1205 284.803 98.6082 284.278 98.4778ZM283.719 87.4377C283.106 87.4591 282.521 87.1946 282.641 86.555C282.714 86.1645 282.846 85.7865 283.033 85.4365C283.262 85.0179 283.378 84.9472 283.805 85.1631C284.367 85.4475 285.192 86.0841 284.925 86.8158C284.785 87.1953 284.243 87.4208 283.719 87.4377ZM292.19 92.183C292.183 92.477 292.003 93.1925 291.856 93.4128C291.628 93.7547 291.295 93.7392 290.997 93.5027C290.595 93.1799 290.59 92.6273 290.691 92.1609C290.774 91.7829 291.094 91.2081 291.523 91.1271C291.888 91.0593 292.175 91.7807 292.19 92.141V92.183ZM288.915 84.6075C288.915 85.1159 288.798 85.3606 289.21 85.7224C289.435 85.9213 290.046 86.3221 289.471 86.513C289.11 86.6331 288.548 86.2404 288.263 86.048C287.84 85.7614 287.371 85.2338 287.631 84.6849C287.771 84.3894 288.307 84.007 288.65 84.147C288.865 84.2354 288.912 84.4078 288.915 84.6075Z" fill="white"/>
<path d="M285.868 86.0736C285.566 85.6175 285.057 85.1422 284.917 84.4024C284.838 83.9839 285.116 83.4873 284.656 83.1454C284.628 83.124 284.693 82.9759 284.715 82.8838C284.832 82.9273 284.986 82.9391 285.061 83.0223C285.171 83.1734 285.267 83.3347 285.347 83.5042C285.719 84.1497 286.115 84.7841 286.454 85.4465C286.615 85.7811 286.653 86.1451 285.868 86.0728V86.0736Z" fill="black"/>
<path d="M278.393 85.5515C278.701 85.5368 278.988 85.5802 279.118 85.7446C279.393 86.0975 279.035 86.7172 278.878 87.0517C278.46 87.9205 277.805 88.8806 276.836 89.1827C276.507 88.5527 276.19 88.0258 276.371 87.2993C276.527 86.6826 276.763 85.9722 277.416 85.7431C277.732 85.6377 278.06 85.5736 278.393 85.5515ZM276.454 91.5244C276.671 91.6658 276.763 92.0401 276.923 92.2244C277.249 92.6053 277.82 92.536 278.169 92.8779C278.43 93.1395 278.243 93.3746 278.289 93.6936C278.344 94.0672 279.015 94.6928 278.513 95.0516C278.152 95.3125 276.945 94.8033 276.597 94.6029C275.912 94.2109 275.694 93.222 275.705 92.4837C275.705 92.1617 275.765 91.5818 276.149 91.4787C276.2 91.4629 276.254 91.4589 276.306 91.4668C276.359 91.4747 276.409 91.4944 276.453 91.5244H276.454Z" fill="white"/>
</g>
<rect x="257" y="58" width="52" height="52" rx="26" stroke="black" stroke-width="4"/>
<g clip-path="url(#clip1_6332_284102)">
<path d="M120 40C120 17.9084 137.908 0 160 0C182.092 0 200 17.9084 200 40C200 62.0916 182.092 80 160 80C137.908 80 120 62.0916 120 40Z" fill="#FF3861"/>
<path d="M190.519 82.6505C190.035 82.5179 189.56 82.2326 189.084 82.3274C186.138 82.7074 183.382 83.2779 180.436 83.0874H169.039C168.913 83.0735 168.785 83.0735 168.659 83.0874H128.734C128.369 83.0874 128.012 82.9821 127.705 82.7853C126.291 81.8805 124.945 80.874 123.678 79.7737C123.642 79.7441 123.609 79.7125 123.577 79.6789C122.596 78.6957 121.702 77.63 120.903 76.4937C120.861 76.433 120.822 76.3697 120.787 76.3042C120.639 76.0289 120.499 75.7495 120.366 75.4663L120.337 75.4L120.284 75.2863C120.107 74.9011 119.955 74.5389 119.821 74.1832C119.789 74.0961 119.763 74.0067 119.744 73.9158C119.668 73.5568 119.604 73.1951 119.554 72.8316C119.457 72.4543 119.399 72.0681 119.382 71.6789C119.344 70.6263 119.645 69.5905 120.237 68.7211C120.34 68.4663 120.443 68.2263 120.549 67.9926C120.584 67.919 120.623 67.8474 120.665 67.7779C121.153 66.999 121.694 66.2537 122.286 65.5505C122.326 65.504 122.368 65.4594 122.413 65.4168C122.655 65.179 122.918 64.9337 123.215 64.6663C123.333 64.56 123.463 64.4684 123.604 64.3947L123.688 64.3495L123.768 64.3074L123.8 64.2895C124.871 63.7128 125.922 63.1005 126.952 62.4537C127.101 62.3611 127.263 62.2895 127.433 62.2411C127.485 62.2263 127.536 62.2062 127.584 62.1811C128.12 61.8842 128.637 61.5537 129.131 61.1916C129.331 61.0516 129.529 60.9126 129.732 60.7758C129.78 60.7411 129.829 60.7095 129.88 60.6811C129.944 60.6442 130.011 60.6095 130.076 60.5758L130.139 60.5421C130.265 60.4768 130.391 60.4105 130.52 60.3463C130.749 60.2305 130.981 60.1189 131.211 60.0053C131.4 59.9105 131.598 59.8158 131.788 59.7211L132.016 59.6095L132.066 59.5853L132.102 59.5674L132.215 59.5126L132.309 59.4684L132.466 59.3926L132.54 59.3589C133.086 59.1018 133.637 58.8561 134.193 58.6221C135.114 58.2347 136.045 57.8926 136.949 57.5611C137.672 57.2996 138.391 57.0273 139.106 56.7442C139.485 56.5895 139.875 56.4495 140.246 56.3147C141.568 55.839 142.709 55.4232 143.324 54.5674C144.038 53.5768 143.577 51.7653 143.172 50.1674C143.102 49.8964 143.034 49.6248 142.969 49.3526C142.812 48.6874 142.589 48.4537 142.399 48.3168C142.382 48.3044 142.364 48.2928 142.346 48.2821C142.307 48.2568 142.269 48.2326 142.234 48.2063C142.148 48.145 142.055 48.0954 141.956 48.0589L141.646 47.9463C141.278 47.8137 140.897 47.6768 140.505 47.5042C140.4 47.4581 140.299 47.4028 140.203 47.3389C139.985 47.1914 139.774 47.033 139.572 46.8642C139.52 46.8216 139.471 46.7759 139.424 46.7274C139.16 46.4526 138.898 46.1568 138.649 45.8432C138.457 45.6007 138.326 45.3149 138.269 45.0105C138.102 44.1295 137.774 43.2611 137.473 42.5284C137.426 42.4133 137.391 42.2937 137.367 42.1716C137.222 41.4075 137.091 40.6407 136.975 39.8716L136.859 39.1421C136.575 37.3745 136.387 35.593 136.295 33.8053V33.7632C136.283 33.6445 136.283 33.525 136.295 33.4063L136.318 33.1789C136.358 32.7979 136.4 32.4 136.455 32C136.511 31.5849 136.703 31.2001 137 30.9052C137.298 30.6104 137.684 30.422 138.1 30.3695C138.351 30.3474 138.588 30.2526 138.785 30.0979C139.035 29.8937 139.242 29.5 139.256 29.2968V29.2021C139.256 29.0126 139.283 28.8232 139.339 28.6421C139.42 28.3705 139.458 28.0874 139.453 27.8042C139.453 27.5189 139.414 27.2147 139.377 26.8884C139.349 26.6358 139.321 26.3779 139.301 26.1021C139.301 26.0516 139.296 26 139.296 25.9484C139.296 25.7589 139.301 25.5684 139.304 25.3832L139.311 25.0095C139.311 24.8842 139.325 24.7611 139.351 24.6389C139.434 24.2747 139.482 23.9032 139.496 23.5305C139.502 23.3337 139.502 23.1305 139.503 22.9158C139.503 22.5547 139.503 22.1832 139.529 21.7895C139.594 20.7568 139.683 19.5537 139.919 18.3516C139.931 18.2926 139.945 18.2347 139.962 18.1768C140.164 17.5019 140.428 16.8469 140.749 16.22L140.818 16.0958L140.923 15.9063C141.013 15.7516 141.093 15.5937 141.163 15.4305C141.222 15.2916 141.297 15.1589 141.386 15.0368C141.505 14.8747 141.632 14.7 141.741 14.5316L141.883 14.3126C142.206 13.7895 142.561 13.2863 142.946 12.8063C142.988 12.7537 143.036 12.7042 143.084 12.6568C143.578 12.1737 144.087 11.7358 144.579 11.3105C144.775 11.1421 144.972 10.9726 145.165 10.8011C145.241 10.7358 145.315 10.6695 145.388 10.6032C145.739 10.2779 146.109 9.97474 146.497 9.69474C146.747 9.52 146.992 9.36211 147.229 9.21053C147.44 9.07579 147.637 8.94947 147.82 8.8221C147.843 8.79973 147.864 8.77581 147.883 8.75053C148.109 8.45789 148.417 8.23789 148.767 8.11684C149.075 8.01158 149.304 7.92737 149.511 7.84737C150.416 7.48947 151.283 6.89684 152.201 6.27053L152.599 6.00105C152.673 5.95158 152.748 5.90737 152.827 5.86842C153.093 5.74 153.364 5.62421 153.641 5.52421C153.708 5.5 153.776 5.47895 153.845 5.46316C154.923 5.20719 156.023 5.05214 157.129 5H157.24C158.219 5.00737 159.193 5.08105 160.098 5.15789C160.337 5.17895 160.582 5.19368 160.842 5.21053C161.526 5.24421 162.207 5.31474 162.884 5.42316C162.96 5.43684 163.035 5.45474 163.107 5.47684C164.3 5.84105 165.346 6.36105 166.494 6.95263C167.009 7.21895 167.539 7.46316 168.098 7.72105C168.534 7.92105 168.982 8.12842 169.428 8.34842C169.482 8.37474 169.534 8.40316 169.584 8.43263C170.099 8.75158 170.582 9.11684 171.028 9.52737L171.043 9.54C171.614 10.083 172.215 10.5939 172.842 11.0705C173.399 11.4842 173.993 11.9337 174.56 12.4263C174.599 12.46 174.636 12.4958 174.673 12.5337C174.983 12.8495 175.273 13.1863 175.538 13.5421C175.604 13.6316 175.663 13.7274 175.713 13.8263L175.824 14.0442C175.889 14.1766 175.949 14.3119 176.002 14.4495C176.071 14.6048 176.179 14.7396 176.316 14.8411C176.411 14.9158 176.498 14.9989 176.577 15.0916L176.774 15.3232C176.885 15.46 176.977 15.6105 177.047 15.7716C177.077 15.8368 177.113 15.8989 177.156 15.9558C177.239 16.0684 177.308 16.1895 177.365 16.3168C177.649 16.9568 177.9 17.6116 178.116 18.2789C178.126 18.3137 178.137 18.3474 178.145 18.3821C178.457 19.5301 178.635 20.7102 178.676 21.8989V21.9147C178.687 22.2621 178.707 22.6063 178.728 22.9716V23.0189C178.753 23.1358 178.765 23.2547 178.767 23.3747L178.773 23.6021C178.783 23.9874 178.806 24.3768 178.833 24.7895L178.852 25.0916C178.857 25.1916 178.855 25.2926 178.845 25.3937V25.4295C178.8 25.9095 178.836 26.3947 178.951 26.8632C179.043 27.2063 179.038 27.5684 178.935 27.9084C178.909 27.9947 178.893 28.0832 178.883 28.1716C179.137 28.2444 179.386 28.3341 179.628 28.44C179.689 28.4611 179.751 28.4874 179.811 28.5158C180.374 28.783 180.876 29.1635 181.286 29.6337L181.314 29.6653C181.446 29.8179 181.554 29.9916 181.632 30.1779L181.649 30.22C181.902 30.8326 182.002 31.42 182.092 31.9358V31.9495C182.131 32.1747 182.127 32.4063 182.084 32.6316L182.063 32.7484C182.037 33.3811 181.974 34.0116 181.874 34.6368C181.811 35.0684 181.751 35.4768 181.735 35.8032L181.713 36.3242C181.648 37.8263 181.576 39.5274 181 41.1642C180.835 41.613 180.627 42.0445 180.378 42.4526C180.283 42.6632 180.188 42.8684 180.087 43.0642C180.063 43.1149 180.036 43.1644 180.006 43.2126C179.95 43.3044 179.891 43.395 179.831 43.4842C179.611 43.8079 179.297 44.056 178.932 44.1947C178.588 44.4895 178.205 44.7316 177.792 44.9168C177.423 45.08 177.024 45.1642 176.622 45.1642C176.299 45.1626 175.979 45.1115 175.672 45.0126C175.64 45.12 175.608 45.2305 175.568 45.3432C175.537 45.4379 175.505 45.5263 175.48 45.6063C175.458 45.7242 175.433 45.8453 175.406 45.9674C175.396 46.0589 175.377 46.1505 175.354 46.2389C175.34 46.2863 175.329 46.3337 175.318 46.379L175.299 46.4537C174.878 48.4147 174.734 50.4221 174.836 52.9179C174.878 53.0758 174.902 53.24 174.904 53.4042C174.901 53.5319 174.927 53.6585 174.98 53.7747C175.206 54.2284 175.485 54.4695 175.584 54.4958C177.034 54.9 178.34 55.5211 179.594 56.1211C179.902 56.2684 180.222 56.4211 180.532 56.5642C180.904 56.7368 181.324 56.9116 181.854 57.12L182.76 57.4674C183.076 57.5863 183.392 57.7053 183.705 57.8274L183.823 57.8737L184.203 58.0263L184.361 58.0905L184.732 58.2484L184.887 58.3158C185.077 58.4 185.249 58.4768 185.407 58.5516L186.167 58.9126L187.214 59.4074C189.715 60.5842 192.3 61.8021 194.803 63.1137L194.862 63.1453C196.069 63.841 197.243 64.5913 198.381 65.3937C200.104 66.8337 202.101 68.2589 202.942 70.4516C203.024 70.7379 203.076 71.0305 203.098 71.3284C203.116 71.5505 203.123 71.7747 203.12 72C203.118 72.2258 203.104 72.4514 203.078 72.6758C202.175 74.5347 201.217 76.7979 199.876 78.6084C199.673 78.8702 199.458 79.1214 199.229 79.3611C197.107 81.3463 194.202 81.9274 191.451 82.4737L190.515 82.6505H190.52H190.519Z" fill="black"/>
<path d="M197.463 69.2371C196.894 68.4813 196.294 67.7592 195.458 67.275C195.374 67.2266 195.33 67.1297 195.252 67.0855C194.81 66.8003 194.539 66.3066 194.056 66.0908C193.606 65.8908 193.335 65.4792 192.916 65.236C192.636 65.0729 192.409 64.7887 192.06 64.7024C191.42 64.4824 191.431 63.7371 190.54 63.6739C189.72 63.6571 189.494 62.8413 188.847 62.8276C188.103 62.8455 188.356 61.9234 187.376 61.7982C185.929 61.5013 184.66 60.7876 183.289 60.2718C183.036 60.1876 182.798 60.0613 182.529 60.0434C182.441 60.0414 182.355 60.0195 182.277 59.9794C182.199 59.9393 182.132 59.882 182.079 59.8118C181.879 59.5662 181.664 59.3325 181.437 59.1118C181.41 59.0834 181.369 59.0518 181.342 59.0171C180.73 58.787 180.126 58.5371 179.53 58.2676C177.998 57.5603 176.5 56.7603 174.872 56.3055C174.059 56.0792 173.44 55.3266 173.079 54.6024C172.897 54.2303 172.803 53.8217 172.802 53.4076C172.717 53.2 172.664 52.9807 172.644 52.7571C172.604 52.2093 172.585 51.6601 172.587 51.1108C172.529 51.7424 172.479 52.3761 172.551 53.0118C172.638 53.7676 172.645 54.5245 172.699 55.2803C172.738 55.8508 173.073 56.3066 173.162 56.8497C173.382 57.6108 175.583 57.0108 177.44 58.3761C177.506 58.4203 177.609 58.4708 177.592 58.5413C177.565 58.6571 177.469 58.5697 177.402 58.5592C177.186 58.5276 176.926 58.4203 176.799 58.6645C176.641 58.9718 176.975 59.1276 177.146 59.3171C179.019 60.9329 177.709 63.4318 177.203 65.3929C176.489 67.7866 175.26 69.9476 173.958 72.0603C172.372 74.9529 170.805 77.8592 168.929 80.5792C168.819 80.7529 168.611 80.9318 168.838 81.1655H183.379C184.037 80.86 184.682 80.5275 185.312 80.1687C185.525 80.0266 185.737 79.8813 185.944 79.7318C186.874 79.0582 187.858 78.7371 188.986 78.7897C189.165 78.6718 189.344 78.5518 189.523 78.435C190.934 77.5118 192.337 76.5645 193.641 75.4971C192.552 75.4245 191.463 75.3603 190.372 75.2508C188.111 74.7529 185.789 74.8045 183.509 74.395C181.666 74.1392 179.809 73.7624 177.938 73.8066C177.558 73.8287 177.485 73.7361 177.606 73.375C177.778 72.8634 178.091 72.415 178.272 71.9118C178.629 71.1371 179.667 71.3255 180.357 71.3676C180.796 71.4055 181.213 71.6171 181.652 71.6034C182.532 71.575 183.373 71.8192 184.212 71.9834C185.481 72.2361 186.77 72.2466 188.043 72.4361C189.049 72.5855 190.062 72.755 191.085 72.7876C192.043 72.8192 192.986 73.0087 193.95 73.0424C194.562 73.0666 195.171 73.1403 195.771 73.2634L195.891 73.2866C196.285 72.7834 196.649 72.255 196.976 71.7066C197.311 71.0066 197.584 70.2876 197.867 69.5697C197.707 69.4949 197.568 69.3804 197.463 69.2371ZM179.207 38.6182C179.151 39.2034 179.06 39.7866 178.934 40.3613C179.012 40.1371 179.081 39.9129 179.146 39.6876C179.386 38.5224 179.491 37.3445 179.567 36.1592C179.42 37.0013 179.264 37.835 179.207 38.6182ZM173.549 44.6971C173.752 44.1076 173.799 43.4781 174.058 42.9055C174.108 42.7863 174.191 42.684 174.298 42.6109C174.404 42.5377 174.53 42.4967 174.659 42.4929C174.393 42.3982 174.19 42.5687 174.01 43.0045C173.648 43.8798 173.377 44.7898 173.2 45.7203C173.007 46.5666 172.863 47.4245 172.769 48.2876C172.892 47.4213 173.069 46.5645 173.296 45.7203C173.318 45.3729 173.433 45.0413 173.549 44.6971ZM176.011 43.2803L176.167 43.2171C175.899 43.202 175.637 43.1303 175.399 43.0066C175.581 43.1392 175.789 43.2329 176.01 43.2803H176.011ZM179.647 30.8771L179.639 30.8687C179.397 30.5858 179.097 30.3573 178.76 30.1982C179.497 31.035 179.792 31.9982 179.855 33.015C179.894 32.7561 179.94 32.496 179.99 32.2382C179.913 31.7887 179.835 31.3329 179.661 30.9076C179.656 30.8975 179.652 30.8874 179.647 30.8771ZM177.934 29.9276C177.295 29.7982 176.839 29.5718 176.844 28.8824C176.684 28.3897 176.754 27.7782 176.891 27.3245C176.716 26.6372 176.661 25.9251 176.727 25.2192V25.1708C176.692 24.5739 176.649 23.9782 176.641 23.3771L176.658 24.2139C176.633 23.4539 176.574 22.7045 176.546 21.9476V21.9971C176.512 20.9271 176.353 19.8648 176.072 18.8318C175.876 18.2278 175.648 17.6344 175.391 17.0539C175.267 16.8823 175.162 16.6973 175.079 16.5024C175.025 16.4361 174.969 16.3708 174.913 16.3055C174.513 15.9973 174.201 15.5887 174.01 15.1213C173.98 15.0473 173.949 14.9743 173.915 14.9024C173.881 14.8297 173.827 14.735 173.785 14.6508C173.57 14.3636 173.336 14.091 173.084 13.835C172.566 13.3941 172.032 12.9727 171.482 12.5718C170.797 12.0537 170.142 11.4974 169.519 10.9055C169.162 10.5769 168.774 10.2829 168.361 10.0276C167.379 9.54342 166.365 9.11921 165.393 8.6171C164.399 8.10342 163.398 7.59711 162.324 7.26974C161.462 7.11711 160.574 7.10026 159.706 7.02553C158.805 6.94071 157.901 6.8905 156.996 6.875C156.006 6.91921 155.024 7.05605 154.059 7.28132C153.846 7.35816 153.638 7.44658 153.435 7.54553C152.325 8.29395 151.232 9.08763 149.979 9.58237C149.705 9.68974 149.432 9.78763 149.155 9.88237C149.02 10.0592 148.86 10.215 148.68 10.3445C148.244 10.6476 147.785 10.915 147.349 11.2203C146.931 11.5129 146.567 11.8592 146.185 12.195C145.513 12.7887 144.817 13.3571 144.175 13.9845C143.773 14.4718 143.446 14.9992 143.099 15.535C142.966 15.7382 142.825 15.935 142.681 16.1308C142.582 16.363 142.469 16.5893 142.344 16.8087L142.172 17.1182C141.921 17.6228 141.715 18.1483 141.555 18.6887C141.347 19.7339 141.264 20.8076 141.197 21.8761C141.163 22.4361 141.183 22.995 141.167 23.5539C141.15 24.0417 141.088 24.5269 140.982 25.0034C140.977 25.315 140.971 25.6255 140.967 25.9361C141.011 26.5382 141.114 27.1287 141.125 27.7361C141.134 28.2182 141.067 28.6992 140.927 29.1613C140.927 29.2392 140.926 29.3182 140.922 29.3961C140.87 30.1845 140.362 31.0445 139.762 31.5382C139.288 31.9209 138.713 32.1602 138.107 32.2276C138.046 32.6761 138.002 33.1276 137.953 33.5792C137.953 33.5982 137.958 33.6182 137.959 33.6382C138.047 35.3708 138.229 37.0982 138.503 38.8108C138.663 39.8003 138.807 40.795 138.999 41.7792C139.38 42.7003 139.717 43.636 139.904 44.6308C140.113 44.8897 140.331 45.1403 140.563 45.3803C140.715 45.5087 140.874 45.6287 141.038 45.7403C141.477 45.9297 141.933 46.0855 142.384 46.2518C142.647 46.3487 142.896 46.4803 143.122 46.6445C143.177 46.6782 143.23 46.7129 143.28 46.7497C144.017 47.2782 144.387 48.0339 144.591 48.8918C145.091 51.0013 146.038 53.7129 144.64 55.655C143.446 57.315 141.37 57.7655 139.585 58.4845C137.971 59.1371 136.312 59.6771 134.701 60.3529C134.031 60.6339 133.369 60.9339 132.714 61.2529C132.756 61.2634 132.794 61.2897 132.818 61.3266C132.94 61.516 132.153 61.8771 131.95 61.9476C131.596 62.0803 131.229 62.1929 130.953 62.476C130.582 62.8455 130.124 63.1168 129.622 63.2655C128.869 63.5024 128.422 64.3603 127.531 64.2024L127.483 64.195L127.092 64.435C126.87 64.8245 126.418 64.916 126.09 65.1539C125.615 65.5024 125.086 65.876 124.492 65.9466L124.437 65.9571L124.262 66.0518C124.009 66.2813 123.757 66.5129 123.513 66.7529C122.976 67.3845 122.487 68.0529 122.047 68.755C121.759 69.3855 121.512 70.0329 121.306 70.6939C121.231 71.1466 121.18 71.6034 121.154 72.0624C121.154 72.075 121.154 72.0876 121.158 72.1003C122.679 71.7055 124.32 71.736 125.872 71.6255C127.746 71.4908 129.629 71.4613 131.502 71.2897C133.123 71.1424 134.747 70.9739 136.377 70.9455C137.356 70.9276 138.312 71.0066 139.281 70.8434C140.034 70.7161 140.761 70.6118 141.361 71.1929C141.704 71.5255 142.417 72.6771 142.193 73.1676C141.991 73.6108 141.544 73.1066 141.219 73.0287C140.599 72.8792 139.864 73.275 139.244 73.3582C137.838 73.5476 136.381 73.3245 134.967 73.4224C133.922 73.4939 132.877 73.4834 131.844 73.6129C130.825 73.7403 129.817 73.9571 128.79 74.0108C127.743 74.0655 126.707 73.956 125.665 73.9761C124.865 73.9908 124.097 74.2308 123.306 74.3297C122.766 74.3971 122.227 74.2634 121.691 74.2539C121.859 74.6329 122.042 75.0139 122.241 75.3845C122.977 76.4318 123.801 77.4129 124.706 78.3171C125.904 79.357 127.177 80.3083 128.513 81.1634H151.426C151.558 81.0224 151.521 80.8687 151.437 80.7318C151.052 80.0929 150.7 79.4339 150.252 78.8308C150.117 78.7234 149.972 78.6224 149.966 78.4245C149.915 78.2079 149.804 78.0101 149.645 77.8539C149.49 77.7424 149.345 77.6203 149.306 77.4171C149.3 77.2003 149.104 77.0855 149.033 76.8982C148.993 76.7434 148.851 76.6476 148.815 76.4918C148.78 76.3958 148.727 76.307 148.66 76.2297C148.569 76.1601 148.495 76.0696 148.445 75.9658C148.396 75.862 148.372 75.7479 148.375 75.6329C148.365 75.5414 148.332 75.4538 148.28 75.3782C147.505 74.3729 147.212 73.0971 146.613 71.9876C145.077 69.1087 143.943 66.0508 142.889 62.9729C142.794 62.7066 142.738 62.3939 142.499 62.2276C141.873 61.7066 141.822 60.6803 141.619 59.9329C141.422 58.8876 141.778 58.3339 142.833 58.0434C143.749 57.8329 143.506 57.0645 144.734 57.0339C145.14 56.9918 145.442 56.8624 145.456 56.3897C145.46 56.3096 145.491 56.2333 145.545 56.1739C145.812 55.8634 145.856 55.4897 145.84 55.1024C145.796 53.9203 145.84 52.7371 145.745 51.5508C145.682 50.7329 145.609 49.9687 145.271 49.2203C144.712 47.9929 144.45 46.6729 144.13 45.3708C143.979 44.7539 143.701 44.6245 143.124 44.8476C141.661 45.4182 140.413 44.2455 140.543 42.7445C140.338 41.6855 140.045 40.6529 140.035 39.5455C140.024 38.4382 139.5 37.3876 139.39 36.2634C139.326 35.0276 138.453 31.5003 140.774 32.2255C141.059 32.3413 141.384 32.2571 141.5 31.9697C141.358 32.5045 141.493 32.9803 141.799 33.4329C141.907 33.6087 142.036 33.7487 142.256 33.6855C142.453 33.6297 142.495 33.4518 142.5 33.2687C142.484 31.6571 142.546 30.0476 142.447 28.435C142.387 27.5803 142.57 26.7192 142.667 25.8613C142.741 25.2203 142.815 24.5518 142.2 24.075C142.08 23.9803 142.072 23.8329 142.084 23.6824C142.152 22.895 142.266 22.1118 142.232 21.3182C142.218 21.2234 142.235 21.1269 142.28 21.0424C142.587 20.5687 142.84 20.0613 143.035 19.5308C143.162 19.1982 143.304 18.8929 143.254 18.5382C143.234 18.4365 143.245 18.3312 143.287 18.2363C143.328 18.1415 143.398 18.0616 143.486 18.0076C143.64 17.9072 143.763 17.7673 143.844 17.6026C143.924 17.4379 143.959 17.2546 143.944 17.0718C143.944 16.9466 143.916 16.7561 144.002 16.7087C144.553 16.4055 144.587 15.8455 144.811 15.3476C145.095 14.7192 145.63 14.2076 146.135 13.6971C146.425 13.4045 146.671 13.4118 146.961 13.6139C147.123 13.7266 147.297 13.8582 147.481 13.7834C147.816 13.6466 148.093 13.5245 148.279 13.9908C148.336 14.1308 148.554 14.1139 148.717 14.0855C149.113 13.935 149.643 14.1687 149.881 13.7192C150.197 13.2697 150.837 13.735 150.98 12.9297C151.033 12.5845 151.257 12.3961 151.533 12.2761C151.979 12.0866 152.33 11.7708 152.685 11.455C152.679 11.5561 152.579 11.5771 152.527 11.6392C152.362 11.8371 152.264 12.0539 152.433 12.2855C152.76 12.9508 154.847 11.1203 155.229 10.8045C155.625 10.4392 155.804 10.4971 156.04 10.9813C156.456 11.8539 157.251 10.9034 157.461 10.3708C157.504 10.2608 157.574 10.1636 157.665 10.0887C157.756 10.0139 157.865 9.9638 157.981 9.94342C157.95 10.0003 157.886 10.0024 157.834 10.0245C157.571 10.1508 157.434 10.3782 157.341 10.6371C157.146 11.035 157.636 11.5034 158.001 11.2192C158.495 10.8771 158.919 11.1024 159.373 11.3245C160.004 11.5571 160.424 11.2192 160.941 11.9182C161.046 12.017 161.176 12.085 161.316 12.1148C161.457 12.1445 161.603 12.1347 161.739 12.0866C162.281 11.9097 162.853 11.9087 163.407 11.8003C164.234 11.7297 164.189 11.0455 164.564 11.2297C164.867 11.4297 164.345 11.9161 164.812 12.1518C165.246 12.3529 166.001 11.9066 165.939 11.4045C165.963 11.422 165.983 11.4449 165.997 11.4714C166.011 11.4978 166.019 11.5272 166.02 11.5571C166.086 11.9234 166.319 12.1371 166.652 12.2666C167.202 12.4361 167.52 13.1897 168.172 12.9845C168.456 12.8792 168.582 13.0034 168.687 13.2318C168.833 13.5434 169.093 13.7224 169.37 13.9245C169.994 14.3782 170.683 14.8129 170.763 15.7108C170.771 15.7911 170.801 15.8678 170.85 15.9322C170.898 15.9967 170.964 16.0464 171.039 16.0761C171.397 16.2129 171.642 16.4666 171.866 16.7613C172.016 16.9571 172.239 17.0382 172.481 17.0908C172.923 17.1855 173.111 17.5961 172.9 17.9866C172.7 18.3329 172.301 18.9518 172.855 19.1708C173.442 19.3939 173.48 19.9434 173.595 20.4203C173.647 20.6392 173.703 20.9287 173.53 21.155C173.222 21.5518 173.299 21.9087 173.607 22.2676C175.184 24.135 172.61 22.875 173.254 24.3666C173.472 24.9139 173.896 25.4129 173.871 26.0339C173.807 26.7245 173.999 27.3476 174.295 27.9466C174.383 28.1255 174.416 28.2624 174.271 28.4161C174.027 28.675 174.001 28.9803 174.113 29.3013C174.19 29.5192 174.161 29.7203 174.113 29.9476C173.972 30.6845 174.179 31.3803 174.481 32.0392C174.625 32.3582 174.94 32.4297 175.194 32.2034C175.799 31.6655 176.524 31.2139 176.691 30.316C176.703 30.2434 176.673 30.0697 176.825 30.1466C177.181 30.3255 177.46 30.0834 177.776 30.0224C177.881 30.0013 177.991 29.9761 178.099 29.9624L177.934 29.9276Z" fill="black"/>
<path d="M185.119 60.5956L184.372 60.243C183.706 59.9272 183.022 59.6566 182.336 59.3945C183.233 59.8651 184.178 60.2272 185.119 60.5945V60.5956Z" fill="black"/>
<path d="M179.579 30.9631C179.342 30.5716 178.966 30.2537 178.388 30.0473C177.329 29.6726 176.553 29.7863 176.107 30.8526C175.792 31.601 175.124 32.6663 174.518 31.48C173.913 30.2937 174.661 28.9473 174.601 27.7221C174.533 26.3158 173.636 25.1716 173.365 23.8316C173.365 23.8379 174.3 23.48 174.357 23.1916C174.452 22.6863 173.772 22.1221 173.68 21.6368C173.539 20.8758 174.122 20.1158 173.644 19.3852C173.318 18.8852 172.844 18.941 172.914 18.2452C172.96 17.7821 173.192 17.4842 172.9 17.0747C172.565 16.6 171.789 16.5242 171.398 16.0726C170.48 15.0126 170.103 13.78 168.823 13.0242C168.175 12.6452 167.337 12.5179 166.78 11.9979C166.4 11.6421 166.203 10.92 165.58 10.9526C165.625 11.2452 165.837 11.7042 165.541 11.9284C164.987 12.3452 164.994 11.7052 164.865 11.4589C164.58 10.9137 164.66 10.8505 164.001 11.1642C163.378 11.4589 162.835 11.7926 162.115 11.8231C160.774 11.8789 159.565 10.741 158.175 10.9042C157.841 10.9442 157.389 11.4579 157.491 10.6937C157.556 10.1989 158.215 10.1084 158.498 9.7884C157.895 9.00314 157.123 10.7758 156.787 10.9705C156.038 11.4052 156.428 10.221 155.477 10.4C154.716 10.5442 154.001 11.4368 153.378 11.84C151.844 12.8305 153.303 11.3768 153.099 11.0084C152.239 11.3537 151.381 11.8316 150.808 12.561C150.545 12.8947 150.407 13.0747 150.036 13.3042C149.788 13.46 149.314 13.841 149.028 13.9063C148.363 14.06 147.924 13.2358 147.276 13.1568C146.492 13.0621 145.773 13.6084 145.28 14.1484C143.964 15.5737 143.404 17.6379 142.802 19.4326C142.025 21.7473 142.202 23.6084 142.446 25.9789C142.696 28.3842 142.755 31.16 142.139 33.5168C141.443 33.0505 141.634 31.9168 141.514 31.1968C141.459 32.7916 139.803 31.4979 139.166 32.5789C138.574 33.5726 139.268 35.5126 139.429 36.5579C139.696 38.3137 139.949 40.0684 140.189 41.8252C140.368 43.1495 140.558 45.2095 142.326 45.1674C143.035 45.1505 143.526 44.6189 143.979 45.3442C144.339 45.9137 144.374 46.8642 144.56 47.5137C145.055 49.24 145.562 50.9695 145.701 52.7684C145.796 53.9505 146.08 56.3705 144.707 56.8779C144.354 57.0084 144.075 56.9095 143.764 57.1989C143.455 57.4884 143.575 57.5789 143.401 57.9168C143.085 58.5305 142.772 58.9789 142.647 59.6958C142.571 60.1463 142.545 62.1221 142.04 60.9852C141.874 60.6116 141.821 59.8779 141.885 59.4716C141.969 58.9273 142.931 58.3316 142.782 57.9073C139.953 58.0547 142.439 62.641 142.877 63.801C143.881 66.4442 144.929 69.04 146.116 71.6084C146.707 72.8873 147.233 74.3347 148.146 75.4273C148.642 75.061 147.717 74.181 147.676 73.7052C147.566 72.4421 149.321 73.6368 149.823 73.9621C150.152 74.1758 150.438 74.4979 150.789 74.661C151.22 74.861 151.685 74.8684 152.12 75.1116C156.102 77.3326 161.231 78.02 165.654 76.801C166.684 76.5158 167.725 76.1052 168.595 75.4705C169.426 74.8684 169.694 74.0579 170.384 73.3694C171.595 72.16 172.778 72.541 172.266 74.2326C171.937 75.3168 171.102 76.2284 170.467 77.141C169.737 78.1863 168.341 79.7495 168.513 81.121C169.723 80.7726 170.275 78.9 170.829 77.8716C172.796 74.221 175.158 70.8431 176.728 66.981C177.566 64.9179 179.131 62.1073 177.878 59.9368C177.619 59.4863 177.256 59.1095 176.927 58.7147C177.322 58.7326 177.713 58.8368 178.111 58.8305C178.016 58.14 175.96 57.4379 175.376 57.3021C173.882 56.9547 172.976 56.9221 172.842 55.1568C172.588 51.8621 172.543 48.8831 173.298 45.6368C173.482 44.841 173.611 43.7558 173.998 43.0326C174.677 41.7642 175.682 43.6379 176.8 43.1442C177.779 42.7126 178.622 41.48 178.968 40.4968C179.508 38.9589 179.522 37.2863 179.597 35.6758C179.674 34.2021 180.332 32.2084 179.578 30.9631H179.579Z" fill="#C4C3C6"/>
<path d="M148.148 75.4611C147.984 75.0443 147.785 74.6369 147.672 74.2064C147.559 73.7769 147.043 73.1611 147.504 72.9369C147.93 72.7316 148.591 72.9537 149.151 73.2706C151.294 74.4801 153.333 75.8211 155.84 76.4011C157.814 76.8558 159.717 76.9369 161.696 76.9769C162.551 76.9937 163.433 76.7937 164.256 77.0011C165.045 77.2011 165.41 76.6348 165.909 76.3211C167.203 75.5053 168.892 75.379 169.926 74.1558C170.258 73.7622 170.326 73.2158 170.643 72.819C171.214 72.1032 172.599 72.1074 172.932 73.0316C173.225 73.8453 171.624 75.819 171.237 76.48C170.779 77.2664 170.305 78.0422 169.834 78.82C169.672 79.0874 168.661 81.1569 168.439 81.1569H151.428C150.604 79.84 149.855 78.4811 149.004 77.1916C148.729 76.6201 148.341 76.079 148.148 75.4611Z" fill="white"/>
<path d="M182.21 60.169C184.818 61.0532 187.299 62.1227 189.701 63.5079C191.424 64.4879 193.061 65.6112 194.596 66.8658C195.703 67.7795 196.577 69.3122 197.809 69.67C197.974 69.25 198.142 68.83 198.327 68.4132C198.401 68.249 198.476 68.0869 198.556 67.9248C196.96 66.8406 195.384 65.7248 193.709 64.7701C190.649 63.169 187.495 61.7216 184.375 60.2437C183.252 59.7111 182.082 59.3079 180.93 58.8574C181.324 59.3732 181.693 59.9943 182.21 60.169ZM179.235 73.9216C183.264 74.4627 187.319 74.9922 191.365 75.4427C192.056 75.5164 192.75 75.5743 193.443 75.6322C194.088 75.1167 194.705 74.5671 195.291 73.9858C195.52 73.7248 195.742 73.4564 195.956 73.1806C190.634 72.4964 185.299 71.8501 179.974 71.1637C178.081 70.9195 177.571 72.3532 177.481 73.5669C177.41 74.4869 178.654 73.5827 179.235 73.9216ZM136.129 59.4995C135.518 59.7764 134.981 60.1879 134.393 60.5048C133.374 61.0522 132.44 61.7258 131.456 62.329C130.443 62.9469 129.371 63.4574 128.349 64.0553C127.344 64.6406 126.372 65.2774 125.352 65.8364C124.45 66.3258 123.29 66.7869 122.701 67.6795C124.829 67.309 126.74 65.7637 128.594 64.7458C130.78 63.5416 132.938 62.2827 135.124 61.0827C135.773 60.7279 137.05 60.2795 137.416 59.6069C137.744 59.0027 136.706 59.2743 136.395 59.39C136.305 59.4227 136.216 59.4592 136.129 59.4995Z" fill="#C4C3C6"/>
<path d="M143.436 57.4714L144.096 57.3672C142.748 58.7809 142.897 59.7735 142.624 61.5093C142.592 61.6651 142.492 61.8072 142.424 61.9556C142.298 61.8314 142.106 61.7293 142.053 61.5756C141.346 59.7019 141.43 58.524 143.436 57.4703V57.4714Z" fill="white"/>
<path d="M148.225 75.7148L148.535 76.3327L148.225 75.7148ZM149.162 77.4317L149.485 77.9454L149.162 77.4317ZM149.812 78.498L150.059 78.898L149.811 78.498H149.812ZM148.68 76.5885L148.798 76.8138L148.68 76.5875V76.5885ZM148.87 76.9675L149.007 77.1906L148.87 76.9675Z" fill="#C4C3C6"/>
<path d="M167.961 52.9202C168.228 52.8991 168.562 53.0675 168.809 52.8939C169.46 52.4349 168.246 51.3444 169.103 50.9844C169.408 50.856 169.878 50.5475 169.994 50.6475C170.396 50.9918 169.667 51.0875 169.715 51.3739C169.946 52.7675 169.18 54.0233 169.153 55.3486C168.892 58.2328 165.412 59.7339 164.581 62.4086C164.392 63.0118 163.861 63.337 163.316 63.5812C162.967 63.7391 162.597 63.8328 162.259 64.0181C162.099 64.1065 161.911 64.217 161.817 64.3802C161.722 64.5433 161.735 64.8265 161.954 64.8549C162.105 64.8739 162.293 64.7328 162.415 64.6654C162.604 64.556 162.877 64.3339 163.113 64.397C163.537 64.5107 163.157 64.9096 163.001 65.0623C162.592 65.476 163.113 66.0812 162.464 66.5833C160.532 68.0918 158.877 67.2265 157.233 66.2118C156.724 65.8981 157.081 64.9328 156.286 64.596C155.274 64.1675 153.984 64.0254 153.518 62.8318C152.776 60.9307 150.337 60.4918 149.756 58.7591C149.151 56.9539 148.029 55.2149 148.225 53.1739C148.239 53.0265 148.458 52.7833 148.575 52.7875C148.893 52.7981 149.383 52.816 149.494 53.0086C151.077 55.8012 153.933 56.2896 156.607 57.3486C158.616 58.1444 159.89 57.3275 161.454 56.6539C162.083 56.3802 162.743 56.1665 163.437 56.1781C164.601 56.2054 165.3 55.6728 166.178 54.9833C166.557 54.6865 167.168 54.5791 167.438 54.1518C167.706 53.7233 167.213 52.9802 167.96 52.9202H167.961Z" fill="black"/>
<path d="M158.477 50.6828C156.176 50.7838 154.706 49.9144 153.944 48.1607C155.084 48.1344 155.121 46.8702 155.931 46.3891C156.857 45.8396 157.825 46.287 158.762 45.8975C159.582 45.5575 160.793 46.026 161.492 45.7428C162.833 45.1986 162.52 48.006 163.923 46.7165C163.997 46.6491 164.029 47.0386 163.867 47.2407C163.342 48.2407 162.441 48.8986 161.667 49.686C160.662 50.7228 159.316 50.5386 158.476 50.6828H158.477ZM155.279 53.3249C157.016 53.4828 158.664 53.5375 160.275 53.1175C160.751 52.9933 161.136 52.5575 161.606 52.3828C162.461 52.066 163.126 52.7428 163.382 53.2575C163.66 53.8196 162.609 53.6302 162.544 53.7523C161.783 55.1923 160.196 55.0828 159.042 55.7565C157.89 56.4302 154.291 55.1744 154.111 53.8712C154.026 53.267 154.95 53.5491 155.279 53.3239V53.3249Z" fill="white"/>
<path d="M154.435 40.2864C155.438 40.3107 156.225 40.7464 157.075 41.0717C158.311 41.5475 158.914 39.7938 160.196 39.8738C160.718 39.9064 161.403 39.5064 161.688 40.0864C161.922 40.5612 161.182 40.7222 160.905 41.0496C159.385 42.8443 157.379 43.1359 155.311 42.5633C154.658 42.3843 154.163 41.3559 153.778 40.6212C153.62 40.3201 154.212 40.3264 154.435 40.2864Z" fill="black"/>
<path d="M155.541 43.5174C155.644 43.5195 155.746 43.53 155.849 43.5469C158.398 43.9774 160.696 42.4163 163.211 42.4437C164.132 42.4542 164.996 42.7627 165.619 43.4595C165.215 43.4974 164.804 43.6016 164.409 43.5616C162.402 43.3606 160.493 43.9932 158.535 44.1827C157.919 44.2427 157.286 44.1437 156.664 44.0879C155.159 43.9585 153.717 44.2332 152.31 44.7385C152.119 44.8079 151.899 44.8037 151.694 44.8332C151.956 44.1385 152.559 43.8216 153.258 43.7058C153.624 43.6553 153.991 43.6236 154.36 43.6111C154.758 43.5837 155.146 43.5058 155.541 43.5163V43.5174Z" fill="white"/>
<path d="M154.025 47.5138C154 47.5174 153.975 47.5196 153.95 47.5201C153.58 47.5317 153.184 47.4085 152.82 47.3369C152.457 47.2671 152.097 47.1803 151.742 47.0769C151.032 46.8748 150.355 46.5698 149.734 46.1717C149.562 46.0594 149.396 45.9389 149.236 45.8106C148.911 45.5506 148.98 45.1948 149.215 44.9001C149.346 44.7241 149.535 44.6003 149.749 44.5506C149.897 44.5211 150.301 44.5138 150.381 44.6832C151.175 46.3559 152.526 45.238 153.603 45.3359C154.241 45.3847 154.882 45.3959 155.522 45.3696C155.844 45.3611 156.165 45.3496 156.487 45.3422C156.645 45.3422 156.811 45.3243 156.971 45.3348C157.129 45.3464 157.341 45.4906 157.126 45.6106C156.989 45.6885 156.796 45.6569 156.651 45.6506C156.241 45.6359 155.835 45.7454 155.448 45.8717C154.842 46.0611 154.259 46.319 153.652 46.5138C153.522 46.5559 153.507 46.8485 153.532 46.9527C153.647 47.4222 154.236 46.8053 154.427 47.1738C154.532 47.3948 154.216 47.4896 154.025 47.5138ZM158.101 52.4622C157.223 52.299 156.338 52.1769 155.474 51.9569C155.128 51.8696 154.911 51.5464 155.068 51.1254C155.23 50.6885 155.555 50.8896 155.828 50.9464C157.648 51.3327 159.537 51.2306 161.304 50.6496C162.03 50.4159 162.065 51.0043 162.214 51.2601C162.396 51.5685 161.919 51.5653 161.717 51.6117C160.527 51.8959 159.387 52.4538 158.101 52.4622Z" fill="black"/>
<path d="M177.573 62.7176C177.706 63.4607 177.134 64.167 176.316 64.6481C176.233 64.6965 175.537 63.9407 175.325 63.4691C175.001 62.747 174.833 61.9481 174.643 61.1765C174.605 61.0228 174.771 60.6649 174.84 60.6649C175.411 60.6702 176.071 60.5702 176.514 60.8312C177.036 61.1365 177.564 61.646 177.573 62.7176Z" fill="white"/>
<path d="M164.886 45.5707C164.627 45.655 164.428 45.6023 164.049 45.3739C163.699 45.1602 163.458 45.1844 163.05 45.1634C162.913 45.1562 162.778 45.1209 162.655 45.0595C162.532 44.9981 162.423 44.912 162.334 44.8065C162.905 44.2697 163.711 44.2371 164.447 44.196C164.76 44.1813 166.221 43.8381 166.238 44.2865C166.264 44.9529 165.431 45.3992 164.886 45.5707Z" fill="black"/>
<path d="M140.084 32.3933C140.254 32.3796 140.424 32.3828 140.595 32.3996C140.873 32.4954 141.117 32.6723 141.296 32.907C141.664 33.3754 141.798 33.9839 142.056 34.5123C141.885 34.7186 141.154 33.8365 140.98 33.6649C140.6 33.2891 140.152 32.926 139.82 32.5091C139.761 32.4396 139.904 32.406 140.083 32.3933H140.084Z" fill="white"/>
<path d="M168.019 43.8769C168.028 43.9979 167.87 44.1527 167.78 44.1958C167.714 43.9464 167.424 43.7485 167.242 43.5853C167.094 43.4506 166.724 43.219 166.689 43.0032C166.657 42.8137 167.097 42.4432 167.273 42.4958C167.846 42.6674 167.966 43.1958 168.02 43.8769H168.019ZM142.246 36.2832C142.294 36.3499 142.321 36.4291 142.325 36.511C142.328 36.593 142.307 36.6741 142.264 36.7443C142.141 36.9369 142.005 37.1221 141.859 37.2979C141.691 37.14 141.591 37.0716 141.738 36.8758C141.886 36.679 142.052 36.419 142.246 36.2843V36.2832Z" fill="black"/>
<path d="M177.896 73.732C180.018 73.6509 182.078 74.1004 184.151 74.4415C187.322 74.9604 190.561 75.0562 193.771 75.3615C194.297 74.9246 194.806 74.4688 195.291 73.9836C195.456 73.7941 195.614 73.6036 195.766 73.413C190.396 72.8172 185.032 72.0909 179.514 71.4015C178.154 71.2878 178.072 72.5667 177.623 73.4615C177.603 73.4909 177.802 73.7351 177.897 73.732H177.896ZM142.347 73.2499C141.951 72.3309 141.939 71.0499 140.576 71.0867C134.683 71.4899 128.959 71.9425 123.231 72.2404C122.543 72.2762 121.868 72.3457 121.202 72.4457C121.247 72.7951 121.307 73.1436 121.381 73.4909C121.522 73.872 121.682 74.2383 121.855 74.6036C126.455 73.9509 131.162 74.3636 135.776 73.8667C137.86 73.6415 139.946 73.3067 142.06 73.5067C142.151 73.5162 142.363 73.2846 142.347 73.2499Z" fill="white"/>
<path d="M158.207 28.954C158.081 28.0793 157.692 26.6361 158.916 26.4835C159.877 26.3624 160.418 25.6529 161.296 25.574C165.838 25.1035 168.587 23.5214 170.632 28.7982C171.226 30.0329 172.266 31.0614 171.572 32.6003C171.42 32.935 171.125 33.0845 170.982 32.8845C169.291 30.3729 167.861 35.4814 162.249 33.2024C161.815 33.0287 161.183 32.7771 161.51 32.0235C161.472 31.6908 160.916 31.834 160.676 31.8098C160.407 31.9993 160.925 32.6845 161.001 32.9508C159 32.9035 158.01 30.8329 158.207 28.954ZM143.869 32.495C144.391 30.8161 143.824 28.154 145.945 26.4487C147.197 25.4414 148.743 26.3119 150.153 26.1877C151.738 26.0491 153.326 26.4248 154.681 27.2593C156.279 28.2266 155.645 29.6456 155.504 31.0108C155.395 32.0719 154.783 32.8898 154.424 33.8266C154.074 34.7487 153.301 34.0329 152.754 34.2866C150.209 35.4593 147.432 34.5824 144.781 35.0708C143.935 35.2287 143.783 33.9435 143.869 32.495ZM153.046 38.5203C153 38.2519 152.931 38.1066 152.973 38.0529C153.266 37.6908 153.584 37.3466 153.894 36.9961C153.975 37.0698 154.131 37.2014 154.125 37.2066C153.81 37.6098 153.481 38.0014 153.046 38.5203ZM158.347 48.4098C157.353 48.415 156.716 48.4729 156.095 47.715C156.418 47.8108 156.744 47.9961 157.062 47.9835C158.189 47.935 159.391 48.3393 160.41 47.495C160.477 47.4393 160.665 47.5287 160.797 47.5508C160.352 48.335 158.913 48.435 158.349 48.4098H158.347Z" fill="#C4C3C6"/>
<path d="M163.561 25.8001C164.797 25.6927 166.026 25.5517 167.263 25.5054C167.556 25.4927 168.027 25.7306 168.118 25.9685C168.283 26.3917 167.889 26.1506 167.726 26.1327C166.885 25.8485 166.525 25.8085 165.879 26.6085C165.231 27.3833 163.587 27.0833 162.778 27.878C163.184 28.0685 163.615 28.2012 164.058 28.2738C163.861 28.3675 163.658 28.4454 163.448 28.5054C162.599 28.6843 162.005 29.2738 161.406 29.8169C160.666 30.4885 159.711 30.1706 159.436 29.7222C159.151 29.2464 159.436 28.2864 160.386 28.0759C160.481 28.0548 160.637 27.8233 160.607 27.7622C159.513 25.3717 161.59 26.2664 162.481 25.9696C162.817 25.8559 163.199 25.8748 163.561 25.8401V25.7991V25.8001ZM165.105 29.5243C165.945 29.4885 166.743 29.6191 167.487 30.0348C167.798 30.2096 168.214 30.2664 168.23 30.719C168.23 30.7896 167.971 30.9296 167.829 30.9348C167.438 30.9485 166.941 31.2864 166.729 30.6106C166.656 30.3769 166.41 30.2222 166.209 30.4475C165.128 31.6569 164.178 32.3696 163.013 30.418C162.734 29.9496 162.01 30.8496 161.576 31.2096C161.285 31.4506 161.005 31.6085 160.765 31.378C160.501 31.1212 160.849 30.8864 161.027 30.7296C162.197 29.698 163.639 29.558 165.104 29.5243H165.105ZM167.453 28.7959C167.589 28.7622 167.687 28.9275 167.764 29.0127C167.865 29.119 167.971 29.2201 168.085 29.3138C168.302 29.5033 168.531 29.6938 168.743 29.8843C168.546 30.1296 168.137 29.6896 167.982 29.5717C167.725 29.3822 167.451 29.2043 167.214 28.9896C167.224 29.0075 167.414 28.8064 167.453 28.7959Z" fill="black"/>
<path d="M164.784 29.201C164.476 29.2568 164.165 29.2516 164.055 29.0589C163.999 28.9642 164.016 28.9147 164.113 28.86C164.188 28.8188 164.271 28.7934 164.357 28.7852C164.548 28.7694 164.742 28.7916 164.926 28.8484C165.013 28.8694 165.097 28.8947 165.181 28.9189C165.228 28.9326 165.413 29.0221 165.453 29.0052C165.237 29.0927 165.013 29.1583 164.784 29.201ZM162.2 30.94C162.134 30.8294 162.722 30.4842 162.874 30.5526C163.102 30.6568 163.182 31.1484 163.063 31.3421C162.864 31.66 162.386 31.1663 162.207 30.9442C162.206 30.9446 162.204 30.9446 162.202 30.9442C162.201 30.9431 162.2 30.9416 162.199 30.94H162.2ZM152.753 31.7568C152.813 31.6568 152.282 31.3463 152.145 31.4073C151.939 31.5021 151.867 31.9442 151.977 32.12C152.156 32.4042 152.587 31.96 152.75 31.76L152.753 31.7568Z" fill="white"/>
<path d="M154.869 29.9685C154.844 30.0127 154.798 30.2285 154.669 30.3043C153.869 30.7843 153.066 30.4696 152.448 30.0264C150.382 28.5454 148.367 28.7317 146.606 30.6727C146.47 30.8233 146.24 30.8864 146.054 30.9906C146.1 30.758 146.074 30.4685 146.204 30.3033C146.933 29.3875 147.946 28.9254 149.043 28.6085C149.203 28.5622 149.339 28.438 149.486 28.3506C148.815 28.1022 148.101 28.357 147.409 28.2991C146.794 28.2685 145.765 28.5843 145.648 28.0212C145.385 26.7517 146.664 26.5191 147.413 26.6896C148.706 26.9748 149.892 26.4433 151.144 26.5822C152.639 26.7475 154.857 28.5738 154.869 29.9675V29.9685Z" fill="black"/>
<path d="M150.415 30.4021C151.283 30.5831 153.225 30.2126 153.746 31.6168C152.833 31.5295 152.202 30.4895 151.454 31.8558C151.017 32.6474 149.933 32.9347 149.056 32.02C148.866 31.8231 148.771 31.4231 148.364 31.5905C147.934 31.7673 148.232 32.0747 148.205 32.3452C148.146 32.9631 147.756 32.3768 147.519 32.3884C147.033 32.4147 146.537 32.2831 146.045 32.2189C147.282 30.9063 148.414 30.3473 150.415 30.4021Z" fill="black"/>
<path d="M149.54 30.1895H149.523C149.317 30.1727 149.149 30.0443 148.967 29.958C149.394 29.7432 149.801 29.4706 150.251 29.3306C150.608 29.218 150.793 29.5601 150.943 29.8474C150.676 29.9201 150.408 29.9895 150.141 30.0643C149.945 30.1211 149.746 30.2064 149.54 30.1906V30.1895ZM140.284 36.7422C140.752 36.3938 141.805 36.3274 141.2 35.3506C140.572 34.3369 140.053 35.4706 139.579 35.6453C139.518 35.6664 139.465 35.6853 139.419 35.698C139.514 36.378 139.605 37.059 139.686 37.7422C139.882 39.3906 140.066 41.0338 140.488 42.6411C140.646 43.1253 140.841 43.5969 141.071 44.0517L141.409 43.999C142.075 43.8938 142.233 43.6285 141.86 42.9906C141.444 42.2769 142.3 41.7453 142.273 41.0169C142.253 40.4853 142.254 39.9527 141.798 39.7432C141.368 39.5495 141.113 39.9727 140.946 40.3895C140.877 40.5664 140.643 40.6748 140.485 40.819C140.418 40.6032 140.272 40.378 140.296 40.1738C140.391 39.3601 141.076 38.5274 140.009 37.7969C139.767 37.6264 139.883 37.0443 140.284 36.7422ZM177.513 37.5243C177.092 37.1443 176.609 36.8043 176.264 36.3601C175.919 35.9159 175.584 35.059 175.157 35.2727C174.628 35.5369 174.92 36.338 175.095 36.9527C175.296 37.6601 175.476 38.4327 175.389 39.1464C175.326 39.698 175.825 39.4559 175.953 39.8201C176.266 40.7201 175.076 41.3074 175.607 42.1011C176.157 42.919 176.947 42.6559 177.705 42.419C177.813 42.3917 177.924 42.3821 178.035 42.3906C178.079 42.3253 178.121 42.259 178.163 42.1917C178.516 41.4864 178.812 40.7559 179.049 40.0053C178.987 40.079 178.91 40.1386 178.823 40.1801C178.736 40.2217 178.642 40.2443 178.545 40.2464C178.426 40.2548 178.288 39.9969 178.159 39.8653L179.178 38.8885L179.266 39.0422C179.456 37.8874 179.535 36.7201 179.606 35.5506C179.554 35.5369 179.512 35.4811 179.512 35.3822C179.512 35.2085 179.633 35.0138 179.629 34.8243C179.626 34.6596 179.588 34.4975 179.518 34.3485C179.38 34.0517 179.138 33.8159 178.916 33.5801C178.695 33.3453 178.463 33.1106 178.329 32.8117C178.077 32.2506 177.599 32.359 177.216 32.759C176.858 33.1327 176.693 33.9696 177.06 34.0906C178.391 34.5306 178.758 35.0938 177.861 36.298C177.622 36.6169 177.621 37.1106 177.513 37.5243Z" fill="white"/>
<path d="M151.176 25.645C150.256 25.6155 149.336 25.6608 148.42 25.7134C147.709 25.7555 146.818 25.9355 146.148 25.6187C146.316 25.2102 146.972 24.8208 147.329 24.545C147.829 24.1778 148.196 23.6575 148.374 23.0629C148.61 22.2944 148.532 21.2766 147.977 20.6366C147.121 19.6513 145.981 20.2755 145.063 20.7776C143.623 21.5629 143.534 20.2966 143.765 19.1797C144.041 17.8481 144.425 15.7502 145.685 15.026C146.408 14.6123 147.206 14.9439 147.979 14.9492C149.661 14.9597 150.788 13.5671 152.351 13.2229C153.351 13.0018 154.376 12.9744 155.388 12.8418C156.272 12.726 157.009 12.3302 157.859 12.0944C158.851 11.8208 159.906 12.1997 160.849 12.4966C161.945 12.8439 163.13 13.1871 164.289 13.1902C165.446 13.1923 166.682 12.8587 167.77 13.3755C168.562 13.7544 169.09 14.4692 169.564 15.1808C170.08 15.9523 170.674 16.7018 171.106 17.5218C171.397 18.0692 172.075 19.7881 171.342 20.2587C171.078 20.4271 170.763 20.2081 170.486 20.185C170.069 20.1471 169.855 20.346 169.595 20.6376C169.169 21.1134 168.659 21.3913 168.069 21.6123C167.629 21.7776 166.685 22.0281 167.149 22.6713C167.315 22.9008 167.583 23.0608 167.775 23.2692C168.51 24.0692 169.356 24.8923 170.014 25.7534C170.382 26.2334 170.692 26.7534 171.038 27.2471C171.255 27.5566 171.955 28.1976 171.894 28.6018C171.779 29.3471 171.172 28.4366 171.07 28.2439C170.841 27.8155 170.635 27.3755 170.404 26.9492C169.962 26.1408 169.42 25.326 168.557 24.9218C167.013 24.1997 164.894 24.5639 163.271 24.8113C162.089 24.9923 161.002 25.5218 159.85 25.8018C159.218 25.9544 158.468 26.0302 157.985 26.5123C157.122 27.3671 158.002 28.5692 158.08 29.5397C158.285 32.126 159.84 32.926 162.375 33.2292C164.701 33.506 166.855 33.5302 169.085 32.7702C170.054 32.4397 170.568 33.4713 171.088 34.1881C171.365 34.5671 172.026 34.2418 172.291 34.8723C172.748 35.9681 171.78 36.8618 172.035 38.0039C172.184 38.6766 168.11 39.7808 167.188 39.365C166.068 38.8597 164.914 38.2134 163.654 38.1966C163.926 38.1966 164.159 38.9176 164.178 39.1176C164.198 39.2951 164.17 39.4748 164.095 39.637C164.02 39.7993 163.902 39.9379 163.754 40.0376C163.13 40.4566 162.774 39.9429 162.851 39.3134C162.956 38.5845 162.832 37.8409 162.495 37.186C162.265 36.7587 161.991 36.2871 161.58 36.0102C161.261 35.7934 160.869 35.8787 160.903 36.3197C160.938 36.7871 161.537 37.1513 161.79 37.5018C162.029 37.8344 162.586 38.5313 162.14 38.9008C161.445 39.4713 160.062 38.6008 159.255 38.946C158.21 39.3923 157.069 39.1987 155.977 39.1166C155.425 39.0755 154.868 39.0597 154.322 39.1681C154 39.2313 153.577 39.4102 153.277 39.1818C152.959 38.9376 153.33 38.2387 153.572 38.0344C154.587 37.1819 155.287 36.0143 155.562 34.7176C155.783 33.6787 155.618 32.6144 155.657 31.5639C155.688 30.6492 156.086 29.8008 156.075 28.8902C156.033 26.3355 153.631 25.7218 151.176 25.645Z" fill="white"/>
<path d="M147.943 34.8544C148.703 34.7713 149.603 34.7239 150.48 34.5692C152.286 34.2513 153.219 34.6292 152.789 36.7839C152.326 39.1207 149.607 41.2597 147.4 40.7902C145.919 40.4755 143.787 37.7902 144.343 36.7428C145.037 35.4481 146.208 34.6471 147.943 34.8544ZM142.716 30.9165C142.729 30.0917 142.768 29.2674 142.832 28.445C142.849 28.3074 142.902 28.1768 142.985 28.066C143.163 27.806 143.49 28.1692 143.564 28.3502C143.603 28.4734 143.606 28.605 143.575 28.7302C143.557 28.8471 143.469 29.1365 143.683 29.0713C143.8 29.0245 143.907 28.9551 143.998 28.8671C144.064 28.8081 144.134 28.7544 144.206 28.705C144.159 28.8239 144.214 28.9502 144.213 29.0723C144.213 29.4218 144.049 29.7692 143.959 30.1039C143.737 30.9436 143.578 31.7986 143.483 32.6618C143.354 33.7292 143.273 34.805 143.109 35.8702C143.083 36.0492 143.105 36.2734 143.005 36.4334C142.842 36.6986 142.721 36.1039 142.716 35.9934C142.702 34.685 142.704 33.3755 142.704 32.0671C142.705 31.6839 142.709 31.3007 142.715 30.9165H142.716ZM173.779 29.586C173.726 29.8776 173.615 30.4702 173.504 31.0628C172.759 30.5155 172.459 29.7155 172.415 28.8492C172.387 28.3481 172.145 27.4239 172.928 27.5039C173.728 27.5881 173.739 28.546 173.78 29.586H173.779Z" fill="white"/>
<path d="M148.69 34.3397C148.587 34.334 148.484 34.3228 148.382 34.306C147.717 34.0797 146.439 34.4839 146.486 33.6787C146.539 32.7597 147.721 33.6155 148.337 33.3292C149.155 32.9492 149.983 33.245 150.807 33.2345C150.914 33.2345 151.021 33.3124 151.127 33.3555C150.974 33.5239 150.848 33.7892 150.66 33.8471C149.952 34.0639 149.226 34.2113 148.691 34.3397H148.69ZM164.498 33.1418C163.54 33.1018 162.546 33.1903 161.87 32.4629C162.658 32.4787 163.443 32.4924 164.23 32.5092C164.321 32.5145 164.41 32.5303 164.498 32.5545C165.049 32.6913 166.098 32.2892 166.062 32.8397C166.023 33.4218 165.049 33.0418 164.498 33.1418Z" fill="black"/>
</g>
<rect x="122" y="2" width="76" height="76" rx="38" stroke="black" stroke-width="4"/>
<g clip-path="url(#clip2_6332_284102)">
<rect x="56" y="40" width="24" height="24" rx="12" fill="#DEE3E9"/>
<path d="M67.9999 53.9591C70.3563 53.9591 72.2666 52.0488 72.2666 49.6924C72.2666 47.336 70.3563 45.4258 67.9999 45.4258C65.6435 45.4258 63.7332 47.336 63.7332 49.6924C63.7332 52.0488 65.6435 53.9591 67.9999 53.9591Z" fill="#A7AEB7"/>
<path d="M60.5332 61.4258C60.5332 58.4803 62.921 56.0925 65.8665 56.0925H70.1332C73.0787 56.0925 75.4665 58.4803 75.4665 61.4258V71.8259C75.4665 74.7714 73.0787 77.1591 70.1332 77.1591H65.8665C62.921 77.1591 60.5332 74.7714 60.5332 71.8259V61.4258Z" fill="#A7AEB7"/>
</g>
<g clip-path="url(#clip3_6332_284102)">
<rect y="88" width="32" height="32" rx="16" fill="#DEE3E9"/>
<path d="M16 106.612C19.1419 106.612 21.6889 104.065 21.6889 100.923C21.6889 97.7814 19.1419 95.2344 16 95.2344C12.8581 95.2344 10.3111 97.7814 10.3111 100.923C10.3111 104.065 12.8581 106.612 16 106.612Z" fill="#A7AEB7"/>
<path d="M6.04443 116.568C6.04443 112.64 9.22818 109.457 13.1555 109.457H18.8444C22.7718 109.457 25.9555 112.64 25.9555 116.568V130.435C25.9555 134.362 22.7718 137.546 18.8444 137.546H13.1555C9.22818 137.546 6.04443 134.362 6.04443 130.435V116.568Z" fill="#A7AEB7"/>
</g>
<g clip-path="url(#clip4_6332_284102)">
<rect x="343" y="136" width="48" height="48" rx="24" fill="#DEE3E9"/>
<path d="M367 163.918C371.713 163.918 375.534 160.098 375.534 155.385C375.534 150.672 371.713 146.852 367 146.852C362.287 146.852 358.467 150.672 358.467 155.385C358.467 160.098 362.287 163.918 367 163.918Z" fill="#A7AEB7"/>
<path d="M352.067 178.852C352.067 172.961 356.843 168.185 362.734 168.185H371.267C377.158 168.185 381.934 172.961 381.934 178.852V199.652C381.934 205.543 377.158 210.318 371.267 210.318H362.734C356.843 210.318 352.067 205.543 352.067 199.652V178.852Z" fill="#A7AEB7"/>
</g>
<defs>
<clipPath id="clip0_6332_284102">
<rect x="255" y="56" width="56" height="56" rx="28" fill="white"/>
</clipPath>
<clipPath id="clip1_6332_284102">
<rect x="120" width="80" height="80" rx="40" fill="white"/>
</clipPath>
<clipPath id="clip2_6332_284102">
<rect x="56" y="40" width="24" height="24" rx="12" fill="white"/>
</clipPath>
<clipPath id="clip3_6332_284102">
<rect y="88" width="32" height="32" rx="16" fill="white"/>
</clipPath>
<clipPath id="clip4_6332_284102">
<rect x="343" y="136" width="48" height="48" rx="24" fill="white"/>
</clipPath>
</defs>
</svg>
