<svg width="416" height="489" viewBox="0 0 416 489" fill="none" xmlns="http://www.w3.org/2000/svg">
<g clip-path="url(#clip0_6332_284023)">
<path d="M168 288C168 257.072 193.072 232 224 232C254.928 232 280 257.072 280 288C280 318.928 254.928 344 224 344C193.072 344 168 318.928 168 288Z" fill="#623AD6"/>
<path d="M241.985 365.28C237.097 365.241 232.186 364.853 227.437 364.476L226.936 364.436C220.292 363.913 214.812 363.273 209.691 362.432C207.283 362.037 204.887 361.578 202.505 361.054L202.374 361.024C196.931 359.603 191.641 357.653 186.579 355.2L186.365 355.085C183.384 353.312 180.563 351.281 177.936 349.017L177.768 348.862C174.968 346.056 172.345 343.057 169.807 340.161L169.733 340.079L169.446 339.755L169.225 339.494L168.842 336.016C169.25 335.275 169.624 334.616 169.998 334C170.414 333.288 170.866 332.6 171.354 331.935C173.371 329.109 176.194 326.957 179.454 325.761C179.977 325.41 180.45 325.096 180.924 324.806C181.253 324.607 181.592 324.408 181.944 324.212C184.656 320.657 191.651 319.886 192.947 319.769C194.323 319.265 195.702 318.821 197.057 318.45L197.459 318.366C198.226 318.268 198.996 318.198 199.768 318.156C200.059 318.115 200.362 318.078 200.688 318.044C201.715 317.331 202.761 316.644 203.824 315.984L203.931 315.919C204.736 315.42 205.97 314.658 207.401 314.351C206.92 313.753 206.391 313.195 205.821 312.682C205.373 312.253 204.911 311.812 204.456 311.317L204.114 310.87C204.158 310.944 204.211 311.016 204.267 311.083L204.194 311.006C204.098 310.909 203.962 310.773 203.818 310.607L203.744 310.515C202.29 308.67 201.711 306.595 201.201 304.749V304.715C201.151 304.541 201.102 304.332 201.046 304.105C201.008 303.95 200.952 303.725 200.893 303.498C200.417 303.552 199.939 303.581 199.46 303.585C198.721 303.592 197.984 303.491 197.273 303.284C196.627 303.097 196.024 302.782 195.501 302.358C194.978 301.934 194.545 301.41 194.229 300.816C193.471 299.395 193.373 297.603 193.947 295.77C194.109 295.246 193.552 294.246 193.011 293.272C192.824 292.931 192.63 292.579 192.444 292.212C190.385 288.157 190.154 284.088 191.754 280.118L192.049 279.683C191.942 278.651 191.766 277.626 191.527 276.615C191.449 276.245 191.365 275.86 191.284 275.458C190.621 272.17 190.872 268.841 191.203 266.017C192.575 254.414 200.984 245.306 213.698 241.66C216.568 240.832 219.539 240.408 222.526 240.4C229.137 240.4 235.614 242.533 241.264 246.566C242.372 247.355 243.432 248.21 244.439 249.125C245.889 250.449 247.365 251.954 248.322 253.991C249.907 257.367 250.968 261.097 251.564 265.393C251.661 266.094 251.747 266.825 251.825 267.565C251.932 268.257 251.977 268.956 251.957 269.656V269.775C252.717 270.066 253.408 270.511 253.988 271.081C254.568 271.652 255.023 272.336 255.326 273.091C255.657 273.89 255.854 274.738 255.911 275.601C255.963 276.299 255.93 277.001 255.817 277.693C255.832 278.043 255.86 278.416 255.891 278.806C255.914 279.093 255.935 279.384 255.954 279.673V280.122C255.869 281.588 255.9 283.057 256.047 284.518C256.224 286.941 256.421 289.688 255.661 292.57L255.558 292.894C255.233 293.742 254.78 294.535 254.216 295.246C253.982 295.54 253.73 295.815 253.458 296.072C253.651 296.322 253.826 296.583 253.981 296.857C255.901 298.54 257.323 300.5 258.702 302.4C260.082 304.301 261.336 305.998 262.954 307.289C263.378 307.627 263.713 308.063 263.931 308.56C264.176 308.806 264.406 309.042 264.625 309.272C265.637 310.313 266.596 311.405 267.499 312.543C267.761 312.872 268.022 313.206 268.258 313.541C270.056 315.246 272.493 316.064 274.87 316.694C275.356 316.821 275.887 316.954 276.587 317.119C277.094 317.226 277.611 317.344 278.126 317.464C280.529 317.513 282.875 318.206 284.919 319.471C289.858 321.272 294.01 323.616 297.597 326.63C298.05 326.954 298.483 327.276 298.903 327.591C299.385 327.965 299.846 328.342 300.278 328.712L300.455 328.877C300.956 329.381 301.461 329.924 301.961 330.49L302.136 334.298C301.56 335.09 300.98 335.88 300.396 336.667L299.836 337.423C296.947 341.343 293.957 345.375 290.692 349.142L290.5 349.344C288.662 351.092 286.686 352.689 284.591 354.12L284.33 354.275C279.587 356.907 274.291 359.1 267.664 361.178L267.552 361.212C259.257 363.498 250.735 364.862 242.141 365.279L241.985 365.28Z" fill="black"/>
<path d="M171.822 338.065C174.393 341.002 176.965 343.942 179.718 346.703C182.209 348.851 184.883 350.775 187.711 352.454C192.598 354.815 197.704 356.695 202.955 358.068C205.28 358.58 207.62 359.028 209.975 359.414C215.605 360.338 221.286 360.938 226.958 361.387C231.889 361.779 236.844 362.183 241.795 362.223C250.171 361.823 258.478 360.497 266.562 358.269C272.109 356.53 277.578 354.43 282.662 351.609C284.619 350.272 286.464 348.778 288.178 347.141C291.575 343.221 294.668 338.999 297.739 334.858L299.466 332.504C299.02 331.998 298.56 331.504 298.081 331.023C297.258 330.322 296.404 329.659 295.52 329.037C289.876 324.265 282.979 321.627 275.713 320.093C275.1 319.947 274.49 319.798 273.883 319.636C270.858 318.836 267.968 317.774 265.737 315.541C265.471 315.161 265.192 314.791 264.901 314.43C264.06 313.371 263.167 312.355 262.225 311.385C261.815 310.961 261.4 310.542 260.981 310.131C256.003 304.992 250.931 299.92 246.848 293.962C246.65 293.534 246.471 293.098 246.312 292.655C245.541 290.462 245.342 288.211 245.382 285.861C245.426 283.102 246.166 280.426 246.318 277.675C246.119 275.323 245.521 272.971 244.869 270.686C244.094 268.063 243.245 265.461 242.326 262.885C241.303 260.07 240.136 257.226 239.452 254.292C236.838 253.975 234.225 253.637 231.633 253.157C229.687 252.796 227.738 252.413 225.781 252.075L225.652 252.178L223.753 253.35C220.39 254.538 217.104 255.927 213.685 256.958C211.29 257.68 208.873 258.425 206.369 258.722C204.199 258.982 201.863 259.1 199.708 258.618L199.571 258.598C199.237 259.523 198.937 260.462 198.672 261.412C198.128 264.056 197.851 266.748 197.844 269.447C198.078 273.541 198.763 277.597 199.887 281.542C201.702 287.291 204.184 292.808 207.281 297.98C209.279 301.119 211.468 304.131 213.836 306.999C214.128 307.349 214.391 307.72 214.62 308.111C214.841 308.485 215.029 308.877 215.182 309.282C217.291 316.746 207.147 319.179 201.925 320.961C201.231 321.016 200.55 321.082 199.897 321.182C199.136 321.222 198.405 321.278 197.683 321.374C195.639 321.941 193.632 322.635 191.675 323.452C191.019 323.726 190.368 324.012 189.709 324.299C187.103 324.95 184.612 325.993 182.32 327.394C181.756 327.739 181.202 328.107 180.659 328.483C177.815 329.45 175.347 331.287 173.603 333.734C173.176 334.316 172.78 334.921 172.416 335.545C172.032 336.186 171.664 336.83 171.307 337.478L171.823 338.065H171.822Z" fill="white"/>
<path d="M252.562 277.434C252.672 276.903 252.709 276.358 252.674 275.819C252.639 275.285 252.518 274.761 252.317 274.265C252.135 273.771 251.818 273.338 251.402 273.015C250.987 272.692 250.489 272.491 249.965 272.437C249.209 272.117 248.606 271.715 248.712 270.506C248.674 269.657 248.749 268.727 248.594 267.983C248.525 267.254 248.441 266.524 248.334 265.801C247.833 262.172 246.926 258.624 245.352 255.271C244.621 253.718 243.429 252.508 242.174 251.351C241.26 250.52 240.298 249.743 239.294 249.024C231.884 243.742 223.054 242.07 214.303 244.581C203.792 247.595 195.315 255.174 193.993 266.371C193.661 269.174 193.47 272.059 194.034 274.849C194.453 276.918 194.886 278.476 194.91 280.616C194.748 280.851 194.559 281.064 194.345 281.251C193.02 284.537 193.331 287.688 194.926 290.83C195.854 292.659 197.278 294.543 196.619 296.676C196.174 298.093 196.28 299.874 197.925 300.364C199.117 300.718 200.426 300.426 201.636 300.328C203.227 300.199 203.606 302.797 203.911 303.894C204.374 305.552 204.841 307.251 205.925 308.624C206.129 308.823 206.317 309.037 206.49 309.263C208.179 311.093 210.436 312.53 210.796 315.313C210.995 315.517 211.182 315.731 211.356 315.956L210.346 317.335C210.012 317.727 210.031 318.205 210.008 318.679C209.896 320.997 210.18 323.383 211.154 325.495C212.024 327.392 213.354 329.023 214.629 330.656C216.252 332.729 217.999 334.856 220.44 335.991C221.412 336.443 222.481 336.599 223.358 337.245C224.618 338.176 225.826 339.441 226.511 340.863C226.973 341.824 227.322 343.501 228.601 343.68C230.428 343.941 232.472 340.849 233.405 339.637C234.643 338.03 235.636 336.255 236.802 334.591C237.642 333.375 238.478 332.152 239.415 331.013C240.354 329.872 240.912 328.414 241.487 327.04C241.605 326.755 241.727 326.478 241.858 326.203C242.381 325.077 243 324.011 243.613 322.918C244.652 321.063 245.62 319.169 246.514 317.24C247.259 315.655 248.149 314.124 248.662 312.443C249.057 311.137 248.923 309.245 249.927 308.225C250.188 307.964 250.078 307.603 250.139 307.285C250.292 306.286 250.555 305.307 250.923 304.365C251.306 303.612 251.204 302.797 251.235 302.013C251.259 301.412 251.084 300.78 251.383 300.223C251.952 298.301 249.924 296.882 248.509 296.273C248.101 296.07 248.303 295.26 248.303 295.26C249.825 294.955 250.89 294.269 251.63 293.344C252.002 292.874 252.298 292.351 252.51 291.792C253.577 287.754 252.36 283.899 252.712 279.855C252.66 279.036 252.57 278.234 252.56 277.434H252.562Z" fill="black"/>
<path d="M209.561 317.689C210.706 318.635 210.389 320.713 210.215 321.991C209.953 323.864 208.995 326.159 209.876 327.983C210.398 329.063 212.352 328.935 211.689 330.354C211.254 331.28 209.597 331.425 208.996 332.27C208.501 332.964 208.558 333.851 208.153 334.567C208.085 334.69 206.974 336.044 206.886 335.696C206.809 335.505 206.755 335.306 206.724 335.102C206.774 336.149 206.42 340.164 204.793 340.082C203.816 340.035 203.269 338.166 203.009 337.468C202.077 334.857 201.436 332.152 201.099 329.401C199.305 329.52 199.149 332.134 198.888 333.472C198.467 335.78 198.169 338.137 197.414 340.366C196.658 342.596 195.285 344.684 194.847 347.057C194.616 348.332 194.924 350.697 193.325 351.142C193.325 351.142 193.732 345.308 193.777 344.687C193.973 341.917 194.221 339.109 195.494 336.585C196.016 335.553 197.941 332.588 195.985 331.862C194.362 331.257 194.124 333.618 193.111 334.214C191.246 335.325 192.448 332.298 193.111 331.576C193.954 330.665 195.107 329.899 195.692 328.788C194.174 328.266 192.274 328.508 191.057 329.604C190.406 330.189 189.277 331.817 190.678 332.217C190.137 332.064 187.663 334.775 187.281 335.247C185.19 334.256 188.092 330.543 188.288 329.118C188.452 327.936 188.883 326.083 187.362 326.337C186.372 326.502 185.682 327.831 184.769 328.205C184.702 327.584 184.271 327.33 183.681 327.536C183.336 324.288 190.824 322.962 193.072 322.782C192.644 323.622 190.806 325.283 191.337 326.329C191.997 327.635 194.143 326.047 194.872 325.584C198.375 323.353 201.666 320.741 205.182 318.565C206.245 317.909 208.001 316.767 209.276 317.518C209.376 317.567 209.472 317.624 209.561 317.689ZM250.519 304.36C250.669 302.395 250.824 300.429 250.978 298.465C255.019 301.532 256.894 306.522 260.857 309.658C261.066 309.823 261.008 310.327 261.075 310.672C261.284 310.946 261.336 311.215 261.053 311.473C258.76 309.924 257.635 307.425 255.958 305.464C255.514 306.248 254.997 306.454 254.812 305.803C254.549 304.992 254.607 304.086 254.007 303.423C253.893 303.68 253.812 303.953 253.764 304.229C253.68 305.721 253.693 305.654 252.632 305.63C252.412 305.63 251.939 306.382 251.994 306.721C252.233 308.228 251.273 309.448 251.176 311.335C250.654 308.384 250.715 305.923 251.788 302.541C250.952 303.735 250.735 304.049 250.519 304.36ZM258.077 350.916C259.666 348.323 260.185 345.358 261.85 342.839C262.789 341.417 263.042 339.563 263.836 338.025C264.765 336.221 266.017 334.588 266.987 332.797C267.588 331.692 267.964 330.445 268.358 329.246C268.495 328.823 268.495 328.394 269.018 328.259C268.098 333.375 265.428 337.927 263.405 342.614C262.152 345.487 260.792 348.324 259.569 351.214C259.477 351.426 258.981 351.553 258.673 351.549C258.503 351.555 258.334 351.213 258.077 350.916ZM276.268 333.963C276.506 331.585 277.956 329.831 279.278 327.995C280.287 326.595 281.154 325.097 282.134 323.678C282.549 323.08 280.424 322.779 282.153 322.212C279.553 321.708 277.11 321.235 274.664 320.757C277.71 320.171 280.723 320.472 283.299 322.163C284.169 322.732 283.977 324.745 283.346 325.647C281.59 328.155 278.996 330.02 277.618 332.873C277.388 333.349 276.743 333.621 276.292 333.984L276.268 333.963ZM274.661 337.643C274.211 339.702 273.208 341.511 272.22 343.356C271.233 345.201 270.57 347.156 269.736 349.054C269.582 349.295 269.393 349.512 269.174 349.696C269.115 349.494 268.965 349.269 269.012 349.098C269.594 346.908 269.861 344.54 270.913 342.599C271.875 340.829 272.422 338.529 274.634 337.618L274.661 337.643ZM251.811 289.577C251.634 289.605 251.289 289.411 250.928 289.095C249.505 287.874 250.393 290.728 250.424 291.185C249.4 291.15 248.028 290.783 247.812 289.812C247.595 288.839 248.529 287.719 249.601 287.423C250.725 287.113 251.378 287.964 251.742 288.745C252.013 289.305 251.992 289.549 251.811 289.579V289.577ZM251.72 277.723C251.612 277.928 251.459 278.062 251.284 278.408C251.023 278.931 251.111 279.597 250.716 280.044C249.59 279.676 250.351 278.368 250.472 277.618C250.563 277.058 250.113 274.093 251.076 274.354C251.901 274.58 251.882 276.584 251.845 277.198C251.842 277.38 251.799 277.559 251.72 277.723ZM229.11 274.973C229.11 275.518 228.164 276.329 227.948 276.712C227.484 277.555 227.153 278.465 226.966 279.409C226.689 280.729 226.008 283.557 227.545 284.449C228.458 284.971 228.764 284.187 229.181 283.582C229.834 282.645 230.64 283.408 231.451 282.909C231.044 282.648 230.172 282.372 230.929 281.818C231.492 281.412 232.382 281.911 232.793 282.3C233.474 282.949 233.775 283.693 234.715 284.051C235.604 284.388 236.589 284.356 237.519 284.271C239.229 284.108 241.018 283.575 241.843 281.919C242.282 281.037 242.201 280.284 242.144 279.354C242.11 278.803 242.337 277.736 243.04 278.361C243.451 278.725 243.529 279.323 243.853 279.752C244.547 280.669 245.023 281.211 244.845 282.442C244.553 284.469 244.877 286.727 244.079 288.653C243.231 290.694 243.763 292.951 243.872 295.107C244.046 298.682 244.213 302.406 244.04 306.027C243.905 308.885 243.343 312.083 240.876 313.884C240.616 314.077 240.25 314.347 239.895 314.297C239.438 314.233 239.372 313.774 238.98 313.648C237.757 313.287 236.164 316.244 234.958 316.602C233.977 316.895 233.585 316.254 232.745 315.972C231.019 315.389 228.102 320.396 226.595 318.084C225.905 317.038 227.88 316.053 228.437 315.399C229.1 314.615 230.883 313.75 231.208 312.786C231.664 311.435 228.884 311.983 228.225 311.432C228.646 310.739 229.668 311.096 230.316 310.872C231.185 310.573 231.415 309.678 231.819 308.944C232.787 307.185 234.379 305.836 235.269 304.031C235.947 302.656 236.153 300.895 237.882 300.528C238.598 300.378 239.382 300.348 239.422 299.368C239.456 298.584 238.742 298.388 238.094 298.26C236.812 297.999 234.475 298.013 233.652 299.253C234.08 299.402 235.797 299.287 235.512 300.16C235.337 300.705 234.206 300.628 233.767 300.67C231.091 300.916 228.685 302.429 225.976 302.426C224.492 302.426 222.995 302.191 221.515 302.079C221.045 302.042 219.602 301.912 220.469 301.318C220.744 301.127 221.206 301.281 221.515 301.132C221.851 300.922 222.115 300.612 222.267 300.247C222.529 299.753 222.833 298.388 223.519 298.287C224.118 298.2 224.321 298.822 224.124 299.236C223.969 299.56 223.242 299.808 223.655 300.348C224.439 301.379 225.406 298.916 225.612 298.52C225.849 299.197 226.954 300.534 227.669 299.666C227.998 299.267 227.669 298.58 228.06 298.226C228.525 297.806 229.302 298.29 229.828 298.142C230.712 297.902 231.921 296.206 231.658 295.269C231.135 293.478 228.578 294.813 227.66 295.364C225.811 296.484 224.787 295.998 222.999 295.067C221.637 294.351 220.015 294.33 220.687 292.333C221.318 290.579 221.643 288.731 221.645 286.869C221.645 285.071 221.565 283.273 221.477 281.476C221.4 279.908 221.138 278.124 219.496 277.452C218.067 276.864 216.127 277.452 214.914 276.349C216.459 274.734 221.186 276.14 222.492 277.52C223.6 278.696 222.871 280.047 223.538 281.301C224.205 282.557 224.679 281.367 224.713 280.579C224.756 279.556 224.507 278.529 224.566 277.509C224.642 276.095 225.918 275.912 226.954 275.28C227.379 275.019 228.769 274.018 229.072 274.792C229.099 274.849 229.112 274.911 229.11 274.975V274.973Z" fill="#C4C3C6"/>
<path d="M214.709 276.108C214.447 276.287 214.143 276.395 213.826 276.422C212.58 276.517 211.312 276.297 210.061 276.352C208.956 276.402 207.187 277.136 206.12 276.665C204.843 276.105 205.525 274.072 205.204 273.006C204.785 271.592 203.976 270.616 204.595 269.12C205.183 267.694 205.745 266.507 205.74 264.919C205.74 263.274 205.068 261.724 205.058 260.094C205.048 258.462 205.986 257.409 206.952 256.225C207.865 255.102 208.502 253.779 209.445 252.681C210.426 251.539 211.747 250.829 213.103 250.244C218.906 247.768 226.752 246.689 231.78 251.393C233.974 253.45 234.982 256.153 235.979 258.918C236.439 260.311 237.046 261.651 237.788 262.916C238.528 264.105 239.401 265.213 240.052 266.457C240.951 268.18 241.75 271.211 240.002 272.729C238.867 273.709 237.334 273.269 236.01 273.09C234.371 272.874 233.269 273.444 231.829 274.137C231.406 274.34 229.739 275.181 229.315 274.523C228.691 273.532 230.973 272.894 231.497 272.769C232.908 272.427 235.678 271.883 235.837 270.049C235.945 268.802 234.791 268.295 233.945 267.697C232.552 266.734 233.13 265.623 232.862 264.197C232.55 262.859 232.032 261.578 231.328 260.399C230.604 259.171 229.213 258.712 228.429 257.506C226.862 255.107 225.01 254.268 222.158 254.286C219.45 254.301 216.809 254.905 214.709 256.703C209.712 260.982 210.006 267.501 210.615 273.529C210.718 274.576 211.014 275.504 212.23 275.495C212.927 275.495 213.756 275.04 214.451 275.293C215.145 275.547 215.046 275.864 214.709 276.108ZM216.656 283.973C218.014 284.116 219.711 285.46 220.076 286.558C220.599 288.103 219.407 290.033 218.77 291.367C218.132 292.699 216.653 294.641 217.558 296.118C218.103 297.01 219.089 296.939 219.871 297.444C220.701 297.987 221.03 298.862 221.699 299.562C219.301 299.351 217.223 300.328 214.892 300.377C212.708 300.421 211.443 299.247 210.905 301.964C210.561 303.697 209.668 306.363 210.773 307.993C211.6 309.216 213.481 309.349 214.725 309.98C215.527 309.175 214.498 309.114 214.38 308.429C214.245 307.645 214.741 306.956 214.316 306.245C213.638 305.113 211.42 305.567 211.014 304.12C210.292 301.546 215.324 304.212 216.141 304.807C217.447 305.75 218.386 307.042 219.487 308.167C219.851 308.543 220.244 308.892 220.66 309.212C221.746 309.439 221.746 310.453 222.354 311.061C223.977 312.28 226.012 311.061 227.842 311.469C228.292 311.667 228.703 311.941 229.06 312.28C228.046 312.889 226.218 312.28 226.218 313.902C226.218 315.733 229.878 316.54 229.06 317.352C226.829 319.785 222.57 318.568 219.311 317.5C218.252 317.064 217.27 316.459 216.404 315.709C215.931 315.238 215.517 314.711 215.172 314.14C214.803 313.814 214.42 313.503 214.002 313.197C213.559 312.874 213.105 312.567 212.64 312.277C210.919 311.209 209.545 309.98 208.685 308.111C206.944 304.346 207.377 299.951 206.455 295.982C206.106 294.472 201.907 287.282 204.835 286.835C206.521 286.573 212.988 291.1 212.473 286.004C213.86 286.589 214.942 284.236 216.078 283.991C216.27 283.956 216.464 283.95 216.656 283.973ZM238.866 327.902C238.737 329.367 238.082 330.231 236.965 331.097C235.108 332.524 232.67 334.092 231.179 335.902C230.551 336.658 230.293 337.582 229.817 338.422C228.644 340.492 227.035 340.205 225.464 338.722C224.58 337.89 217.064 331.904 219.397 330.359C219.982 329.967 221.1 330.381 221.722 330.477C223.716 330.788 225.819 331.108 227.823 330.723C231.437 330.033 232.832 326.376 235.722 324.519C237.29 323.515 238.643 322.64 239.754 321.107C240.864 319.576 241.732 317.842 242.889 316.321C243.838 315.081 244.684 313.814 245.578 312.541C246.069 311.844 246.831 310.8 247.077 312.134C247.37 313.702 245.63 315.513 244.892 316.747C243.781 318.562 242.766 320.434 241.85 322.354C241.349 323.43 241.117 324.853 240.336 325.752C239.451 326.784 238.146 325.791 236.913 326.628C236.405 326.973 234.991 328.859 236.058 329.31C236.605 329.54 237.626 328.411 238.055 328.188C238.295 328.022 238.572 327.916 238.863 327.879L238.866 327.902Z" fill="#C4C3C6"/>
<path d="M225.362 305.708C225.21 305.737 225.054 305.731 224.905 305.69C224.29 305.539 223.785 305.251 223.141 305.45C222.964 305.505 222.775 305.711 222.603 305.732C222.431 305.754 222.242 305.559 222.08 305.508C221.805 305.47 221.526 305.459 221.249 305.474C220.799 305.424 220.413 305.16 219.98 305.052C219.635 305.004 219.296 304.916 218.97 304.792C218.71 304.666 218.568 304.42 218.845 304.217C219.122 304.012 219.464 304.086 219.744 304.028C220.099 303.915 220.466 303.837 220.836 303.792C221.259 303.792 221.683 303.832 222.106 303.832C222.739 303.832 223.371 303.832 224.003 303.809C225.281 303.784 226.556 303.688 227.823 303.521C228.408 303.44 228.989 303.336 229.569 303.228C230.085 303.1 230.592 302.938 231.087 302.74C231.441 302.63 233.423 302.696 232.629 303.456C232.462 303.581 232.279 303.683 232.085 303.758C231.873 303.872 231.687 304.021 231.481 304.143C231.22 304.285 231.053 304.214 230.804 304.285C230.557 304.355 230.31 304.514 230.053 304.594C229.087 304.873 228.087 305.269 227.065 305.21C226.68 305.17 226.292 305.262 225.966 305.471C225.78 305.584 225.575 305.664 225.362 305.708ZM238.939 327.874C238.457 328.223 237.962 328.559 237.499 328.92C236.938 329.371 236.37 330.621 235.67 329.657C234.969 328.692 235.268 326.979 236.363 326.583C237.125 326.306 238.426 323.876 239.413 326.499L238.939 327.874Z" fill="white"/>
<path d="M239.45 277.452C238.885 277.939 237.882 277.619 237.229 277.51C236.418 277.41 235.598 277.405 234.786 277.496C234.432 277.517 232.64 277.595 232.669 276.942C232.703 276.223 235.668 276.002 236.202 275.973C236.869 275.902 237.544 275.974 238.183 276.185C238.342 276.25 239.768 277.168 239.45 277.452ZM208.501 281.151C208.069 281.263 207.68 281.216 207.543 280.628C207.284 279.473 209.113 279.256 209.87 279.145C210.175 279.101 213.815 279.172 213.696 279.381C212.912 280.733 210.822 280.398 209.528 280.777C209.241 280.858 208.856 281.057 208.501 281.151ZM196.928 295.075C196.959 294.375 197.189 293.713 197.361 293.739C198.535 293.915 198.408 295.284 198.764 296.144C199.008 296.704 198.339 296.632 197.96 296.666C197.114 296.74 196.891 295.879 196.928 295.075ZM249.577 282.554C249.701 283.089 249.552 283.575 248.92 283.555C247.741 283.513 246.723 280.942 248.447 281.203C248.951 281.291 249.428 281.954 249.577 282.554ZM237.412 281.368V281.383C237.412 281.747 237.289 282.237 236.979 282.464C236.799 282.601 235.564 282.629 235.691 282.311C235.972 281.584 237.409 279.496 237.412 281.368ZM197.412 290.82C196.999 290.745 196.292 290.985 196.435 290.222C196.525 289.934 196.69 289.677 196.913 289.475C197.23 289.121 197.174 289.168 197.543 289.256C198.066 289.38 198.501 289.616 198.421 290.208C198.343 290.802 197.905 290.789 197.41 290.82H197.412ZM212.403 285.891C212.227 285.164 210.384 285.267 210.178 284.424C210.009 283.737 210.701 283.832 211.107 284.085C211.739 284.514 212.197 285.154 212.403 285.891Z" fill="#C4C3C6"/>
<path d="M216.655 284.092C216.316 284.437 215.573 284.45 215.13 284.456C215.637 284.157 215.166 283.436 215.39 283.007C215.759 282.325 216.752 282.929 216.823 283.53C216.841 283.631 216.835 283.734 216.806 283.831C216.776 283.929 216.725 284.018 216.655 284.092Z" fill="white"/>
<path d="M232.703 303.371C232.544 303.285 232.482 303.04 232.283 302.951C232.125 302.892 231.955 302.872 231.787 302.893C231.433 302.923 230.979 303.119 230.648 302.927C230.483 302.834 231.296 302.317 231.395 302.295C231.866 302.2 232.335 302.402 232.805 302.376C233.149 302.358 233.541 302.444 233.477 302.899C233.439 303.189 233.01 303.528 232.703 303.371ZM220.143 303.813C220.19 304.927 218.979 304.025 218.743 304.692C217.933 304.383 217.583 304.057 218.762 303.827C219.221 303.779 219.683 303.774 220.145 303.813H220.143Z" fill="#C4C3C6"/>
<path d="M232.656 282.062L230.629 282.091C230.548 281.284 231.335 281.546 231.675 281.25C231.697 281.221 231.726 281.198 231.759 281.183C231.793 281.168 231.829 281.161 231.865 281.164C231.902 281.166 231.937 281.177 231.968 281.196C231.999 281.215 232.025 281.242 232.043 281.273L232.656 282.062Z" fill="white"/>
<path d="M213.299 281.304C213.145 281.312 212.992 281.283 212.852 281.219C212.712 281.156 212.589 281.059 212.494 280.938C212.737 280.754 213.042 280.668 213.346 280.7C213.508 280.723 214.006 281.034 214.153 280.921C213.913 281.131 213.615 281.264 213.299 281.304ZM232.038 281.273L231.669 281.249L231.821 280.726L232.038 281.272V281.273Z" fill="#C4C3C6"/>
<path d="M214.566 276.31C213.52 275.165 212.159 275.908 210.957 275.787C210.132 275.701 209.8 275.589 209.816 274.705C209.871 271.308 210.037 267.882 209.779 264.476C209.557 261.554 211.334 259.918 212.899 257.78C214.653 255.384 217.216 254.271 220.201 254.096C222.104 253.984 224.288 253.651 226.102 254.393C229.671 255.854 230.922 259.5 233.127 262.219C234.34 263.716 232.345 267.294 235.114 267.527C236.537 267.646 236.848 269.443 236.512 270.548C236.046 272.073 234.327 272.738 232.832 272.95C231.892 273.083 231.085 273.563 230.34 274.129C230.025 274.418 229.673 274.665 229.294 274.863C228.861 275.043 228.37 275.043 227.923 275.178C225.311 275.962 224.602 278.302 224.986 280.811C225.078 281.399 225.546 282.551 224.449 282.619C223.996 282.648 223.023 281.484 223.043 280.889C223.202 276.3 219.801 276.535 216.665 276.364C215.975 276.32 215.273 276.326 214.566 276.31ZM226.556 316.956C226.088 316.81 225.663 316.554 225.315 316.21C224.675 315.638 223.953 315.074 224.345 314.166C225.062 312.51 226.369 312.227 227.944 311.814C228.861 311.569 231.061 310.847 231.652 312.023C232.436 313.591 229.957 314.253 229.232 315.121C228.283 316.241 227.607 317.216 226.556 316.956ZM225.437 294.875C224.213 294.918 223.041 294.389 223.283 293.11C223.429 292.329 223.693 291.573 224.067 290.873C224.524 290.036 224.757 289.894 225.61 290.326C226.734 290.895 228.385 292.168 227.85 293.632C227.57 294.391 226.485 294.842 225.437 294.875ZM242.38 304.366C242.366 304.954 242.006 306.385 241.713 306.826C241.256 307.509 240.59 307.478 239.994 307.005C239.19 306.36 239.181 305.255 239.383 304.322C239.548 303.566 240.187 302.416 241.045 302.254C241.776 302.119 242.351 303.561 242.38 304.282V304.366ZM235.83 289.215C235.83 290.232 235.597 290.721 236.419 291.445C236.87 291.843 238.092 292.644 236.942 293.026C236.22 293.266 235.096 292.481 234.526 292.096C233.68 291.523 232.742 290.468 233.261 289.37C233.541 288.779 234.614 288.014 235.299 288.294C235.73 288.471 235.824 288.816 235.83 289.215Z" fill="white"/>
<path d="M229.736 292.147C229.131 291.235 228.114 290.284 227.834 288.805C227.677 287.968 228.232 286.975 227.311 286.291C227.255 286.248 227.386 285.952 227.429 285.768C227.665 285.855 227.972 285.878 228.122 286.045C228.343 286.347 228.534 286.669 228.694 287.008C229.438 288.299 230.229 289.568 230.909 290.893C231.23 291.562 231.306 292.29 229.736 292.146V292.147Z" fill="black"/>
<path d="M214.785 291.102C215.401 291.073 215.976 291.16 216.235 291.488C216.786 292.194 216.07 293.433 215.756 294.102C214.921 295.84 213.609 297.76 211.671 298.364C211.014 297.104 210.38 296.051 210.743 294.598C211.054 293.364 211.527 291.944 212.833 291.485C213.465 291.274 214.121 291.146 214.785 291.102ZM210.908 303.048C211.341 303.331 211.527 304.079 211.845 304.448C212.498 305.21 213.64 305.071 214.339 305.755C214.86 306.278 214.486 306.748 214.579 307.386C214.688 308.133 216.03 309.385 215.025 310.102C214.303 310.624 211.889 309.606 211.194 309.205C209.823 308.421 209.389 306.443 209.411 304.966C209.411 304.322 209.53 303.163 210.298 302.956C210.4 302.925 210.507 302.917 210.613 302.933C210.718 302.948 210.818 302.988 210.906 303.048H210.908Z" fill="white"/>
</g>
<rect x="170" y="234" width="108" height="108" rx="54" stroke="black" stroke-width="4"/>
<g clip-path="url(#clip1_6332_284023)">
<path d="M256 80C256 35.8168 291.817 0 336 0C380.183 0 416 35.8168 416 80C416 124.183 380.183 160 336 160C291.817 160 256 124.183 256 80Z" fill="#FF3861"/>
<path d="M397.038 165.301C396.069 165.036 395.12 164.465 394.168 164.655C388.276 165.415 382.764 166.556 376.872 166.175H354.078C353.825 166.147 353.57 166.147 353.318 166.175H273.467C272.739 166.175 272.023 165.964 271.411 165.571C268.583 163.761 265.891 161.748 263.356 159.547C263.285 159.488 263.217 159.425 263.154 159.358C261.192 157.391 259.403 155.26 257.806 152.987C257.721 152.866 257.644 152.739 257.575 152.608C257.278 152.058 256.998 151.499 256.733 150.933L256.674 150.8L256.568 150.573C256.215 149.802 255.909 149.078 255.642 148.366C255.578 148.192 255.526 148.013 255.488 147.832C255.336 147.114 255.208 146.39 255.107 145.663C254.914 144.909 254.799 144.136 254.764 143.358C254.688 141.253 255.291 139.181 256.474 137.442C256.68 136.933 256.886 136.453 257.099 135.985C257.168 135.838 257.246 135.695 257.331 135.556C258.305 133.998 259.387 132.507 260.573 131.101C260.653 131.008 260.737 130.919 260.825 130.834C261.309 130.358 261.836 129.867 262.429 129.333C262.665 129.12 262.926 128.937 263.208 128.789L263.377 128.699L263.537 128.615L263.6 128.579C265.741 127.426 267.844 126.201 269.903 124.907C270.202 124.722 270.526 124.579 270.865 124.482C270.97 124.453 271.072 124.412 271.168 124.362C272.24 123.768 273.274 123.107 274.261 122.383C274.661 122.103 275.059 121.825 275.463 121.552C275.56 121.482 275.659 121.419 275.76 121.362C275.888 121.288 276.021 121.219 276.152 121.152L276.278 121.084C276.531 120.954 276.781 120.821 277.04 120.693C277.499 120.461 277.962 120.238 278.421 120.011C278.8 119.821 279.196 119.632 279.577 119.442L280.032 119.219L280.133 119.171L280.204 119.135L280.429 119.025L280.619 118.937L280.933 118.785L281.08 118.718C282.171 118.204 283.273 117.712 284.385 117.244C286.227 116.469 288.09 115.785 289.899 115.122C291.345 114.599 292.783 114.055 294.213 113.488C294.971 113.179 295.749 112.899 296.493 112.629C299.137 111.678 301.419 110.846 302.648 109.135C304.076 107.154 303.154 103.531 302.343 100.335C302.204 99.7928 302.069 99.2496 301.939 98.7053C301.623 97.3747 301.179 96.9074 300.798 96.6337C300.764 96.6087 300.729 96.5855 300.693 96.5642C300.615 96.5137 300.539 96.4653 300.467 96.4126C300.296 96.29 300.109 96.1909 299.912 96.1179L299.293 95.8926C298.556 95.6274 297.794 95.3537 297.011 95.0084C296.8 94.9163 296.598 94.8057 296.406 94.6779C295.97 94.3828 295.548 94.0659 295.143 93.7284C295.039 93.6432 294.941 93.5518 294.848 93.4547C294.32 92.9053 293.796 92.3137 293.299 91.6863C292.914 91.2014 292.653 90.6298 292.539 90.021C292.204 88.2589 291.547 86.5221 290.945 85.0568C290.852 84.8265 290.781 84.5875 290.735 84.3432C290.444 82.815 290.182 81.2814 289.949 79.7432L289.718 78.2842C289.151 74.7491 288.774 71.1861 288.589 67.6105V67.5263C288.567 67.289 288.567 67.05 288.589 66.8126L288.636 66.3579C288.716 65.5958 288.8 64.8 288.909 64C289.022 63.1699 289.406 62.4001 290.001 61.8104C290.596 61.2207 291.369 60.8441 292.2 60.7389C292.701 60.6947 293.177 60.5053 293.571 60.1958C294.069 59.7874 294.484 59 294.512 58.5937V58.4042C294.512 58.0253 294.566 57.6463 294.678 57.2842C294.84 56.7411 294.916 56.1747 294.905 55.6084C294.905 55.0379 294.827 54.4295 294.754 53.7768C294.699 53.2716 294.642 52.7558 294.602 52.2042C294.602 52.1032 294.592 52 294.592 51.8968C294.592 51.5179 294.602 51.1368 294.608 50.7663L294.621 50.019C294.621 49.7684 294.651 49.5221 294.701 49.2779C294.867 48.5495 294.964 47.8063 294.992 47.0611C295.004 46.6674 295.004 46.2611 295.006 45.8316C295.006 45.1095 295.006 44.3663 295.059 43.5789C295.187 41.5137 295.366 39.1074 295.838 36.7032C295.861 36.5853 295.891 36.4695 295.924 36.3537C296.329 35.0039 296.856 33.6939 297.499 32.44L297.636 32.1916L297.846 31.8126C298.025 31.5032 298.185 31.1874 298.326 30.8611C298.444 30.5832 298.594 30.3179 298.773 30.0737C299.011 29.7495 299.263 29.4 299.482 29.0632L299.766 28.6253C300.413 27.5789 301.122 26.5726 301.893 25.6126C301.977 25.5074 302.072 25.4084 302.168 25.3137C303.156 24.3474 304.175 23.4716 305.158 22.6211C305.549 22.2842 305.943 21.9453 306.331 21.6021C306.482 21.4716 306.629 21.3389 306.777 21.2063C307.478 20.5558 308.219 19.9495 308.994 19.3895C309.495 19.04 309.983 18.7242 310.459 18.4211C310.88 18.1516 311.274 17.8989 311.64 17.6442C311.685 17.5995 311.728 17.5516 311.766 17.5011C312.219 16.9158 312.834 16.4758 313.535 16.2337C314.149 16.0232 314.608 15.8547 315.021 15.6947C316.832 14.9789 318.566 13.7937 320.402 12.5411L321.198 12.0021C321.345 11.9032 321.497 11.8147 321.655 11.7368C322.185 11.48 322.728 11.2484 323.282 11.0484C323.417 11 323.552 10.9579 323.691 10.9263C325.846 10.4144 328.045 10.1043 330.259 10H330.48C332.438 10.0147 334.385 10.1621 336.196 10.3158C336.674 10.3579 337.164 10.3874 337.684 10.4211C339.053 10.4884 340.415 10.6295 341.768 10.8463C341.92 10.8737 342.069 10.9095 342.215 10.9537C344.6 11.6821 346.693 12.7221 348.987 13.9053C350.019 14.4379 351.078 14.9263 352.196 15.4421C353.067 15.8421 353.964 16.2568 354.857 16.6968C354.964 16.7495 355.067 16.8063 355.168 16.8653C356.198 17.5032 357.164 18.2337 358.057 19.0547L358.086 19.08C359.228 20.166 360.429 21.1879 361.684 22.1411C362.798 22.9684 363.985 23.8674 365.12 24.8526C365.198 24.92 365.272 24.9916 365.345 25.0674C365.966 25.6989 366.545 26.3726 367.076 27.0842C367.208 27.2632 367.326 27.4547 367.425 27.6526L367.648 28.0884C367.779 28.3533 367.897 28.6237 368.004 28.8989C368.143 29.2096 368.359 29.4793 368.632 29.6821C368.821 29.8316 368.996 29.9979 369.154 30.1832L369.547 30.6463C369.771 30.92 369.954 31.2211 370.095 31.5432C370.154 31.6737 370.225 31.7979 370.312 31.9116C370.478 32.1368 370.617 32.3789 370.731 32.6337C371.299 33.9137 371.8 35.2232 372.232 36.5579C372.253 36.6274 372.274 36.6947 372.291 36.7642C372.913 39.0602 373.269 41.4204 373.352 43.7979V43.8295C373.375 44.5242 373.415 45.2126 373.457 45.9432V46.0379C373.505 46.2716 373.531 46.5095 373.535 46.7495L373.545 47.2042C373.566 47.9747 373.613 48.7537 373.665 49.5789L373.703 50.1832C373.714 50.3832 373.709 50.5853 373.691 50.7874V50.859C373.6 51.819 373.672 52.7895 373.901 53.7263C374.086 54.4126 374.076 55.1368 373.869 55.8168C373.819 55.9895 373.785 56.1663 373.766 56.3432C374.275 56.4888 374.772 56.6682 375.257 56.88C375.379 56.9221 375.501 56.9747 375.621 57.0316C376.748 57.5659 377.753 58.3271 378.573 59.2674L378.627 59.3305C378.893 59.6358 379.107 59.9832 379.263 60.3558L379.299 60.44C379.804 61.6653 380.004 62.84 380.183 63.8716V63.8989C380.261 64.3495 380.255 64.8126 380.168 65.2632L380.126 65.4968C380.074 66.7621 379.947 68.0232 379.747 69.2737C379.621 70.1368 379.501 70.9537 379.469 71.6063L379.425 72.6484C379.297 75.6526 379.152 79.0547 378 82.3284C377.67 83.226 377.254 84.089 376.756 84.9053C376.566 85.3263 376.377 85.7368 376.175 86.1284C376.125 86.2298 376.071 86.3288 376.013 86.4253C375.899 86.6088 375.782 86.79 375.661 86.9684C375.222 87.6158 374.594 88.1121 373.863 88.3895C373.177 88.979 372.411 89.4632 371.583 89.8337C370.846 90.16 370.048 90.3284 369.244 90.3284C368.599 90.3252 367.958 90.2229 367.343 90.0253C367.28 90.24 367.217 90.4611 367.137 90.6863C367.074 90.8758 367.011 91.0526 366.96 91.2126C366.916 91.4484 366.865 91.6905 366.813 91.9347C366.792 92.1179 366.754 92.301 366.707 92.4779C366.68 92.5726 366.659 92.6674 366.636 92.7579L366.598 92.9074C365.756 96.8295 365.467 100.844 365.672 105.836C365.756 106.152 365.804 106.48 365.808 106.808C365.802 107.064 365.854 107.317 365.96 107.549C366.413 108.457 366.971 108.939 367.168 108.992C370.067 109.8 372.68 111.042 375.187 112.242C375.804 112.537 376.444 112.842 377.063 113.128C377.808 113.474 378.648 113.823 379.707 114.24L381.52 114.935C382.152 115.173 382.783 115.411 383.411 115.655L383.646 115.747L384.406 116.053L384.722 116.181L385.463 116.497L385.775 116.632C386.154 116.8 386.499 116.954 386.815 117.103L388.335 117.825L390.427 118.815C395.429 121.168 400.6 123.604 405.606 126.227L405.724 126.291C408.137 127.682 410.485 129.183 412.762 130.787C416.208 133.667 420.202 136.518 421.884 140.903C422.048 141.476 422.152 142.061 422.196 142.657C422.232 143.101 422.246 143.549 422.24 144C422.235 144.452 422.207 144.903 422.156 145.352C420.349 149.069 418.434 153.596 415.752 157.217C415.347 157.74 414.915 158.243 414.459 158.722C410.215 162.693 404.404 163.855 398.901 164.947L397.029 165.301H397.04H397.038Z" fill="black"/>
<path d="M410.927 138.474C409.788 136.963 408.588 135.518 406.916 134.55C406.748 134.453 406.659 134.259 406.503 134.171C405.619 133.601 405.078 132.613 404.112 132.182C403.213 131.782 402.67 130.958 401.832 130.472C401.272 130.146 400.817 129.577 400.12 129.405C398.84 128.965 398.861 127.474 397.08 127.348C395.44 127.314 394.988 125.683 393.695 125.655C392.207 125.691 392.712 123.847 390.752 123.596C387.857 123.003 385.32 121.575 382.577 120.544C382.072 120.375 381.596 120.123 381.057 120.087C380.882 120.083 380.71 120.039 380.554 119.959C380.399 119.879 380.263 119.764 380.158 119.624C379.758 119.132 379.329 118.665 378.874 118.224C378.819 118.167 378.737 118.104 378.684 118.034C377.46 117.574 376.251 117.074 375.059 116.535C371.996 115.121 369 113.521 365.743 112.611C364.118 112.158 362.88 110.653 362.158 109.205C361.795 108.461 361.606 107.643 361.604 106.815C361.434 106.4 361.328 105.961 361.289 105.514C361.208 104.419 361.17 103.32 361.175 102.222C361.057 103.485 360.958 104.752 361.101 106.024C361.276 107.535 361.291 109.049 361.398 110.561C361.476 111.702 362.146 112.613 362.324 113.699C362.764 115.222 367.167 114.022 370.88 116.752C371.013 116.841 371.217 116.942 371.183 117.083C371.131 117.314 370.937 117.139 370.804 117.118C370.373 117.055 369.853 116.841 369.598 117.329C369.282 117.944 369.95 118.255 370.293 118.634C374.038 121.866 371.417 126.864 370.407 130.786C368.977 135.573 366.52 139.895 363.916 144.121C360.743 149.906 357.611 155.718 353.857 161.158C353.638 161.506 353.221 161.864 353.676 162.331H382.758C384.074 161.72 385.363 161.055 386.623 160.337C387.051 160.053 387.474 159.763 387.889 159.464C389.748 158.116 391.716 157.474 393.973 157.579C394.331 157.344 394.689 157.104 395.047 156.87C397.868 155.024 400.674 153.129 403.282 150.994C401.103 150.849 398.927 150.721 396.743 150.502C392.221 149.506 387.577 149.609 383.017 148.79C379.333 148.278 375.617 147.525 371.876 147.613C371.116 147.657 370.971 147.472 371.213 146.75C371.556 145.727 372.181 144.83 372.543 143.824C373.257 142.274 375.335 142.651 376.714 142.735C377.592 142.811 378.426 143.234 379.303 143.207C381.063 143.15 382.746 143.638 384.423 143.967C386.962 144.472 389.539 144.493 392.087 144.872C394.097 145.171 396.124 145.51 398.171 145.575C400.087 145.638 401.973 146.017 403.899 146.085C405.124 146.133 406.341 146.281 407.541 146.527L407.781 146.573C408.571 145.567 409.297 144.51 409.952 143.413C410.621 142.013 411.169 140.575 411.735 139.139C411.413 138.99 411.135 138.761 410.927 138.474ZM374.415 77.2363C374.301 78.4068 374.12 79.5732 373.868 80.7226C374.023 80.2742 374.162 79.8258 374.293 79.3753C374.773 77.0447 374.981 74.6889 375.135 72.3184C374.84 74.0026 374.529 75.67 374.415 77.2363ZM363.097 89.3942C363.503 88.2153 363.598 86.9563 364.116 85.811C364.216 85.5726 364.383 85.3681 364.596 85.2217C364.809 85.0754 365.06 84.9935 365.318 84.9858C364.786 84.7963 364.379 85.1374 364.019 86.0089C363.296 87.7597 362.754 89.5796 362.4 91.4405C362.015 93.1331 361.727 94.8489 361.537 96.5753C361.783 94.8426 362.137 93.1289 362.592 91.4405C362.636 90.7458 362.866 90.0826 363.097 89.3942ZM368.021 86.5605L368.335 86.4342C367.799 86.4041 367.275 86.2605 366.798 86.0131C367.162 86.2784 367.577 86.4658 368.019 86.5605H368.021ZM375.295 61.7542L375.278 61.7374C374.793 61.1716 374.194 60.7146 373.52 60.3963C374.994 62.07 375.583 63.9963 375.71 66.03C375.788 65.5121 375.88 64.9921 375.979 64.4763C375.826 63.5774 375.67 62.6658 375.322 61.8153C375.313 61.7951 375.304 61.7747 375.295 61.7542ZM371.868 59.8553C370.59 59.5963 369.678 59.1437 369.689 57.7647C369.369 56.7795 369.508 55.5563 369.781 54.6489C369.433 53.2744 369.322 51.8503 369.455 50.4384V50.3416C369.383 49.1479 369.297 47.9563 369.282 46.7542L369.316 48.4279C369.266 46.9079 369.148 45.4089 369.093 43.8953V43.9942C369.025 41.8542 368.706 39.7295 368.143 37.6637C367.751 36.4557 367.296 35.2688 366.781 34.1079C366.533 33.7646 366.324 33.3946 366.158 33.0047C366.051 32.8721 365.937 32.7416 365.826 32.611C365.025 31.9945 364.402 31.1775 364.019 30.2426C363.961 30.0947 363.898 29.9486 363.83 29.8047C363.762 29.6595 363.655 29.47 363.571 29.3016C363.14 28.7271 362.672 28.1821 362.169 27.67C361.133 26.7881 360.064 25.9454 358.964 25.1437C357.594 24.1074 356.283 22.9947 355.038 21.8111C354.324 21.1537 353.548 20.5658 352.722 20.0553C350.758 19.0868 348.731 18.2384 346.786 17.2342C344.798 16.2068 342.796 15.1942 340.649 14.5395C338.924 14.2342 337.148 14.2005 335.413 14.0511C333.61 13.8814 331.802 13.781 329.992 13.75C328.013 13.8384 326.049 14.1121 324.118 14.5626C323.693 14.7163 323.276 14.8932 322.87 15.0911C320.651 16.5879 318.463 18.1753 315.958 19.1647C315.411 19.3795 314.863 19.5753 314.31 19.7647C314.04 20.1184 313.72 20.43 313.36 20.6889C312.489 21.2953 311.571 21.83 310.697 22.4405C309.861 23.0258 309.135 23.7184 308.371 24.39C307.026 25.5774 305.634 26.7142 304.35 27.9689C303.546 28.9437 302.893 29.9984 302.198 31.07C301.933 31.4763 301.651 31.87 301.362 32.2616C301.164 32.726 300.939 33.1787 300.689 33.6174L300.343 34.2363C299.842 35.2456 299.429 36.2966 299.11 37.3774C298.695 39.4679 298.529 41.6153 298.394 43.7521C298.327 44.8721 298.367 45.99 298.335 47.1079C298.3 48.0835 298.176 49.0538 297.964 50.0068C297.954 50.63 297.941 51.251 297.935 51.8721C298.021 53.0763 298.228 54.2574 298.251 55.4721C298.268 56.4363 298.135 57.3984 297.855 58.3226C297.855 58.4784 297.853 58.6363 297.844 58.7921C297.739 60.3689 296.724 62.0889 295.524 63.0763C294.575 63.8419 293.427 64.3203 292.215 64.4553C292.093 65.3521 292.004 66.2553 291.906 67.1584C291.906 67.1963 291.916 67.2363 291.918 67.2763C292.095 70.7416 292.457 74.1963 293.007 77.6216C293.327 79.6005 293.615 81.59 293.998 83.5584C294.76 85.4005 295.434 87.2721 295.809 89.2616C296.226 89.7795 296.661 90.2805 297.127 90.7605C297.43 91.0174 297.748 91.2574 298.076 91.4805C298.954 91.8595 299.866 92.171 300.769 92.5037C301.295 92.6974 301.792 92.9605 302.244 93.2889C302.354 93.3563 302.459 93.4258 302.56 93.4995C304.034 94.5563 304.775 96.0679 305.181 97.7837C306.181 102.003 308.076 107.426 305.28 111.31C302.893 114.63 298.739 115.531 295.171 116.969C291.941 118.274 288.623 119.354 285.402 120.706C284.061 121.268 282.737 121.868 281.428 122.506C281.512 122.527 281.588 122.579 281.636 122.653C281.88 123.032 280.306 123.754 279.899 123.895C279.192 124.161 278.457 124.386 277.906 124.952C277.163 125.691 276.249 126.234 275.244 126.531C273.737 127.005 272.844 128.721 271.061 128.405L270.967 128.39L270.183 128.87C269.739 129.649 268.836 129.832 268.179 130.308C267.23 131.005 266.173 131.752 264.983 131.893L264.874 131.914L264.524 132.104C264.017 132.563 263.514 133.026 263.026 133.506C261.952 134.769 260.975 136.106 260.095 137.51C259.518 138.771 259.023 140.066 258.613 141.388C258.461 142.293 258.36 143.207 258.308 144.125C258.308 144.15 258.308 144.175 258.316 144.201C261.358 143.411 264.64 143.472 267.743 143.251C271.493 142.982 275.257 142.923 279.004 142.579C282.247 142.285 285.495 141.948 288.754 141.891C290.712 141.855 292.623 142.013 294.562 141.687C296.068 141.432 297.522 141.224 298.722 142.386C299.409 143.051 300.834 145.354 300.386 146.335C299.981 147.222 299.089 146.213 298.438 146.057C297.198 145.758 295.729 146.55 294.489 146.716C291.676 147.095 288.762 146.649 285.935 146.845C283.844 146.988 281.754 146.967 279.689 147.226C277.651 147.481 275.634 147.914 273.579 148.022C271.487 148.131 269.415 147.912 267.331 147.952C265.731 147.982 264.194 148.462 262.613 148.659C261.533 148.794 260.455 148.527 259.381 148.508C259.718 149.266 260.084 150.028 260.482 150.769C261.954 152.864 263.602 154.826 265.413 156.634C267.809 158.714 270.353 160.617 273.026 162.327H318.853C319.116 162.045 319.042 161.737 318.874 161.464C318.103 160.186 317.4 158.868 316.503 157.662C316.234 157.447 315.943 157.245 315.933 156.849C315.831 156.416 315.608 156.02 315.291 155.708C314.979 155.485 314.691 155.241 314.613 154.834C314.6 154.401 314.209 154.171 314.066 153.796C313.986 153.487 313.701 153.295 313.63 152.984C313.559 152.792 313.454 152.614 313.32 152.459C313.137 152.32 312.99 152.139 312.89 151.932C312.791 151.724 312.743 151.496 312.75 151.266C312.73 151.083 312.665 150.908 312.56 150.756C311.011 148.746 310.423 146.194 309.226 143.975C306.154 138.217 303.887 132.102 301.777 125.946C301.588 125.413 301.476 124.788 300.998 124.455C299.746 123.413 299.644 121.361 299.238 119.866C298.844 117.775 299.556 116.668 301.666 116.087C303.497 115.666 303.013 114.129 305.468 114.068C306.28 113.984 306.884 113.725 306.912 112.779C306.92 112.619 306.983 112.467 307.091 112.348C307.623 111.727 307.712 110.979 307.68 110.205C307.592 107.841 307.68 105.474 307.491 103.102C307.364 101.466 307.217 99.9374 306.541 98.4405C305.423 95.9858 304.899 93.3458 304.259 90.7416C303.958 89.5079 303.402 89.2489 302.249 89.6953C299.322 90.8363 296.826 88.491 297.087 85.4889C296.676 83.371 296.091 81.3058 296.07 79.091C296.049 76.8763 295 74.7753 294.779 72.5268C294.653 70.0553 292.906 63.0005 297.548 64.451C298.118 64.6826 298.769 64.5142 299 63.9395C298.716 65.0089 298.986 65.9605 299.598 66.8658C299.815 67.2174 300.072 67.4974 300.512 67.371C300.906 67.2595 300.99 66.9037 301 66.5374C300.969 63.3142 301.093 60.0953 300.895 56.87C300.775 55.1605 301.139 53.4384 301.335 51.7226C301.482 50.4405 301.63 49.1037 300.4 48.15C300.16 47.9605 300.143 47.6658 300.169 47.3647C300.303 45.79 300.533 44.2237 300.463 42.6363C300.437 42.4468 300.47 42.2537 300.56 42.0847C301.175 41.1374 301.68 40.1226 302.07 39.0616C302.324 38.3963 302.609 37.7858 302.508 37.0763C302.467 36.8731 302.49 36.6624 302.574 36.4727C302.657 36.2829 302.796 36.1233 302.973 36.0153C303.28 35.8144 303.527 35.5346 303.688 35.2052C303.849 34.8759 303.918 34.5092 303.889 34.1437C303.889 33.8932 303.832 33.5121 304.004 33.4174C305.106 32.8111 305.175 31.6911 305.621 30.6953C306.19 29.4384 307.259 28.4153 308.27 27.3942C308.851 26.8089 309.341 26.8237 309.922 27.2279C310.247 27.4532 310.594 27.7163 310.962 27.5668C311.632 27.2932 312.186 27.0489 312.558 27.9816C312.672 28.2616 313.108 28.2279 313.434 28.1711C314.226 27.87 315.287 28.3374 315.762 27.4384C316.394 26.5395 317.674 27.47 317.96 25.8595C318.066 25.1689 318.514 24.7921 319.066 24.5521C319.958 24.1732 320.659 23.5416 321.371 22.91C321.358 23.1121 321.158 23.1542 321.055 23.2784C320.724 23.6742 320.529 24.1079 320.866 24.5711C321.52 25.9016 325.695 22.2405 326.457 21.6089C327.251 20.8784 327.609 20.9942 328.08 21.9626C328.912 23.7079 330.501 21.8068 330.922 20.7416C331.007 20.5216 331.148 20.3272 331.33 20.1775C331.512 20.0277 331.73 19.9276 331.962 19.8868C331.899 20.0005 331.773 20.0047 331.668 20.0489C331.141 20.3016 330.868 20.7563 330.682 21.2742C330.293 22.07 331.272 23.0068 332.002 22.4384C332.99 21.7542 333.838 22.2047 334.746 22.6489C336.009 23.1142 336.849 22.4384 337.882 23.8363C338.092 24.034 338.351 24.1701 338.633 24.2295C338.914 24.289 339.207 24.2695 339.478 24.1732C340.562 23.8195 341.706 23.8174 342.815 23.6005C344.468 23.4595 344.377 22.0911 345.129 22.4595C345.735 22.8595 344.691 23.8321 345.623 24.3037C346.493 24.7058 348.002 23.8132 347.878 22.8089C347.927 22.844 347.967 22.8898 347.995 22.9427C348.023 22.9956 348.038 23.0543 348.04 23.1142C348.173 23.8468 348.638 24.2742 349.303 24.5332C350.404 24.8721 351.04 26.3795 352.343 25.9689C352.912 25.7584 353.164 26.0068 353.375 26.4637C353.666 27.0868 354.186 27.4447 354.739 27.8489C355.988 28.7563 357.367 29.6258 357.527 31.4216C357.542 31.5823 357.602 31.7355 357.7 31.8644C357.797 31.9933 357.928 32.0929 358.078 32.1521C358.794 32.4258 359.284 32.9332 359.733 33.5226C360.032 33.9142 360.478 34.0763 360.962 34.1816C361.847 34.3711 362.221 35.1921 361.8 35.9732C361.4 36.6658 360.602 37.9037 361.71 38.3416C362.884 38.7879 362.96 39.8868 363.19 40.8405C363.295 41.2784 363.407 41.8574 363.059 42.31C362.444 43.1037 362.598 43.8174 363.215 44.5353C366.369 48.27 361.219 45.75 362.508 48.7332C362.943 49.8279 363.792 50.8258 363.741 52.0679C363.615 53.4489 363.998 54.6953 364.59 55.8932C364.767 56.251 364.832 56.5247 364.541 56.8321C364.055 57.35 364.002 57.9605 364.226 58.6026C364.379 59.0384 364.322 59.4405 364.226 59.8953C363.943 61.3689 364.358 62.7605 364.962 64.0784C365.251 64.7163 365.88 64.8595 366.388 64.4068C367.598 63.3311 369.049 62.4279 369.381 60.6321C369.407 60.4868 369.346 60.1395 369.651 60.2932C370.362 60.651 370.92 60.1668 371.552 60.0447C371.762 60.0026 371.981 59.9521 372.198 59.9247L371.868 59.8553Z" fill="black"/>
<path d="M386.238 121.191L384.743 120.486C383.413 119.854 382.045 119.313 380.672 118.789C382.466 119.73 384.356 120.454 386.238 121.189V121.191Z" fill="black"/>
<path d="M375.158 61.9263C374.684 61.1431 373.933 60.5073 372.777 60.0947C370.659 59.3452 369.105 59.5726 368.215 61.7052C367.583 63.2021 366.248 65.3326 365.036 62.96C363.825 60.5873 365.322 57.8947 365.202 55.4442C365.065 52.6315 363.272 50.3431 362.73 47.6631C362.73 47.6758 364.6 46.96 364.714 46.3831C364.903 45.3726 363.543 44.2442 363.36 43.2736C363.078 41.7515 364.244 40.2315 363.288 38.7705C362.636 37.7705 361.688 37.8821 361.827 36.4905C361.92 35.5642 362.383 34.9684 361.8 34.1494C361.13 33.2 359.579 33.0484 358.796 32.1452C356.96 30.0252 356.206 27.56 353.646 26.0484C352.349 25.2905 350.674 25.0358 349.56 23.9958C348.8 23.2842 348.406 21.84 347.16 21.9052C347.25 22.4905 347.674 23.4084 347.082 23.8568C345.975 24.6905 345.987 23.4105 345.73 22.9179C345.16 21.8273 345.32 21.701 344.002 22.3284C342.756 22.9179 341.669 23.5852 340.229 23.6463C337.547 23.7579 335.13 21.4821 332.349 21.8084C331.682 21.8884 330.779 22.9158 330.981 21.3873C331.112 20.3979 332.429 20.2168 332.996 19.5768C331.789 18.0063 330.246 21.5515 329.575 21.941C328.076 22.8105 328.857 20.4421 326.954 20.8C325.432 21.0884 324.002 22.8736 322.756 23.68C319.688 25.661 322.606 22.7536 322.198 22.0168C320.478 22.7073 318.762 23.6631 317.617 25.1221C317.09 25.7894 316.815 26.1494 316.072 26.6084C315.577 26.92 314.627 27.6821 314.057 27.8126C312.726 28.12 311.848 26.4715 310.552 26.3136C308.983 26.1242 307.545 27.2168 306.56 28.2968C303.928 31.1473 302.808 35.2758 301.604 38.8652C300.05 43.4947 300.404 47.2168 300.893 51.9579C301.392 56.7684 301.509 62.32 300.278 67.0336C298.886 66.101 299.267 63.8336 299.027 62.3936C298.918 65.5831 295.606 62.9958 294.333 65.1579C293.147 67.1452 294.537 71.0252 294.859 73.1157C295.392 76.6273 295.899 80.1368 296.379 83.6505C296.737 86.2989 297.116 90.4189 300.653 90.3347C302.069 90.301 303.053 89.2379 303.958 90.6884C304.678 91.8273 304.747 93.7284 305.12 95.0273C306.109 98.48 307.124 101.939 307.402 105.537C307.592 107.901 308.16 112.741 305.415 113.756C304.707 114.017 304.149 113.819 303.528 114.398C302.909 114.977 303.149 115.158 302.802 115.834C302.17 117.061 301.543 117.958 301.295 119.392C301.141 120.293 301.09 124.244 300.08 121.97C299.747 121.223 299.642 119.756 299.77 118.943C299.939 117.855 301.861 116.663 301.564 115.815C295.905 116.109 300.878 125.282 301.754 127.602C303.762 132.888 305.859 138.08 308.232 143.217C309.415 145.775 310.465 148.669 312.293 150.855C313.284 150.122 311.434 148.362 311.352 147.41C311.133 144.884 314.642 147.274 315.646 147.924C316.303 148.352 316.876 148.996 317.579 149.322C318.44 149.722 319.37 149.737 320.24 150.223C328.204 154.665 338.461 156.04 347.307 153.602C349.368 153.032 351.45 152.21 353.189 150.941C354.853 149.737 355.387 148.116 356.768 146.739C359.189 144.32 361.556 145.082 360.533 148.465C359.874 150.634 358.204 152.457 356.935 154.282C355.474 156.373 352.682 159.499 353.025 162.242C355.446 161.545 356.549 157.8 357.659 155.743C361.592 148.442 366.316 141.686 369.457 133.962C371.133 129.836 374.261 124.215 371.756 119.874C371.238 118.973 370.512 118.219 369.855 117.429C370.644 117.465 371.425 117.674 372.221 117.661C372.032 116.28 367.92 114.876 366.752 114.604C363.764 113.909 361.952 113.844 361.684 110.314C361.177 103.724 361.086 97.7663 362.596 91.2736C362.964 89.6821 363.221 87.5115 363.996 86.0652C365.354 83.5284 367.364 87.2757 369.6 86.2884C371.558 85.4252 373.244 82.96 373.937 80.9936C375.017 77.9179 375.044 74.5726 375.194 71.3515C375.347 68.4042 376.663 64.4168 375.156 61.9263H375.158Z" fill="#C4C3C6"/>
<path d="M312.295 150.922C311.969 150.089 311.571 149.274 311.343 148.413C311.118 147.554 310.087 146.322 311.009 145.874C311.859 145.463 313.181 145.907 314.301 146.541C318.588 148.96 322.666 151.642 327.68 152.802C331.628 153.712 335.434 153.874 339.392 153.954C341.101 153.987 342.866 153.587 344.512 154.002C346.091 154.402 346.819 153.27 347.817 152.642C350.407 151.011 353.783 150.758 355.853 148.312C356.516 147.524 356.653 146.432 357.287 145.638C358.428 144.206 361.198 144.215 361.863 146.063C362.451 147.691 359.249 151.638 358.474 152.96C357.558 154.533 356.611 156.084 355.668 157.64C355.343 158.175 353.322 162.314 352.878 162.314H318.855C317.209 159.68 315.71 156.962 314.009 154.383C313.457 153.24 312.682 152.158 312.295 150.922Z" fill="white"/>
<path d="M380.419 120.337C385.636 122.105 390.598 124.244 395.402 127.015C398.848 128.975 402.123 131.221 405.192 133.731C407.407 135.558 409.154 138.623 411.617 139.339C411.948 138.499 412.284 137.659 412.655 136.825C412.802 136.497 412.952 136.173 413.112 135.849C409.92 133.68 406.769 131.449 403.417 129.539C397.297 126.337 390.99 123.442 384.75 120.486C382.503 119.421 380.164 118.615 377.859 117.714C378.649 118.745 379.385 119.988 380.419 120.337ZM374.47 147.842C382.529 148.924 390.638 149.983 398.731 150.884C400.112 151.032 401.499 151.148 402.887 151.263C404.176 150.232 405.409 149.133 406.581 147.971C407.04 147.449 407.484 146.912 407.912 146.36C397.268 144.992 386.598 143.699 375.948 142.327C372.162 141.838 371.141 144.705 370.962 147.133C370.819 148.973 373.308 147.164 374.47 147.842ZM288.257 118.998C287.036 119.552 285.962 120.375 284.786 121.009C282.748 122.103 280.88 123.451 278.912 124.657C276.887 125.893 274.741 126.914 272.697 128.11C270.689 129.28 268.743 130.554 266.703 131.672C264.899 132.651 262.579 133.573 261.402 135.358C265.657 134.617 269.48 131.526 273.188 129.491C277.56 127.082 281.876 124.564 286.249 122.164C287.546 121.455 290.099 120.558 290.832 119.213C291.489 118.004 289.413 118.548 288.79 118.779C288.609 118.844 288.431 118.917 288.257 118.998Z" fill="#C4C3C6"/>
<path d="M302.871 114.943L304.191 114.734C301.496 117.562 301.793 119.547 301.248 123.019C301.185 123.33 300.985 123.614 300.848 123.911C300.595 123.663 300.212 123.459 300.107 123.151C298.692 119.404 298.861 117.048 302.871 114.941V114.943Z" fill="white"/>
<path d="M312.45 151.431L313.069 152.666L312.45 151.431ZM314.324 154.864L314.97 155.892L314.324 154.864ZM315.625 156.997L316.118 157.797L315.623 156.997H315.625ZM313.36 153.178L313.595 153.629L313.36 153.176V153.178ZM313.741 153.936L314.014 154.382L313.741 153.936Z" fill="#C4C3C6"/>
<path d="M351.922 105.84C352.457 105.798 353.124 106.135 353.619 105.788C354.92 104.87 352.493 102.689 354.206 101.969C354.817 101.712 355.756 101.095 355.987 101.295C356.792 101.984 355.335 102.175 355.43 102.748C355.893 105.535 354.36 108.047 354.305 110.697C353.783 116.466 346.823 119.468 345.162 124.817C344.783 126.024 343.722 126.674 342.632 127.162C341.935 127.478 341.194 127.666 340.518 128.036C340.198 128.213 339.821 128.434 339.634 128.76C339.444 129.087 339.47 129.653 339.907 129.71C340.211 129.748 340.585 129.466 340.83 129.331C341.208 129.112 341.754 128.668 342.225 128.794C343.074 129.021 342.314 129.819 342.002 130.125C341.183 130.952 342.225 132.162 340.928 133.167C337.063 136.184 333.754 134.453 330.465 132.424C329.448 131.796 330.162 129.866 328.573 129.192C326.547 128.335 323.968 128.051 323.036 125.664C321.552 121.861 316.674 120.984 315.512 117.518C314.301 113.908 312.059 110.43 312.451 106.348C312.478 106.053 312.916 105.567 313.15 105.575C313.785 105.596 314.766 105.632 314.987 106.017C318.154 111.602 323.865 112.579 329.215 114.697C333.232 116.289 335.779 114.655 338.907 113.308C340.166 112.76 341.486 112.333 342.874 112.356C345.202 112.411 346.6 111.346 348.356 109.967C349.114 109.373 350.337 109.158 350.876 108.304C351.413 107.447 350.425 105.96 351.92 105.84H351.922Z" fill="black"/>
<path d="M332.954 101.365C328.352 101.567 325.413 99.8278 323.889 96.3204C326.169 96.2678 326.242 93.7394 327.861 92.7772C329.714 91.6783 331.651 92.573 333.524 91.7941C335.164 91.1141 337.586 92.0509 338.983 91.4846C341.666 90.3962 341.04 96.0109 343.847 93.432C343.994 93.2973 344.057 94.0762 343.735 94.4804C342.684 96.4804 340.882 97.7962 339.335 99.3709C337.324 101.445 334.632 101.076 332.952 101.365H332.954ZM326.558 106.649C330.032 106.965 333.329 107.074 336.55 106.234C337.501 105.986 338.272 105.114 339.213 104.765C340.922 104.131 342.253 105.485 342.764 106.514C343.32 107.638 341.217 107.259 341.089 107.504C339.567 110.384 336.392 110.165 334.084 111.512C331.779 112.859 324.581 110.348 324.221 107.741C324.053 106.533 325.899 107.097 326.558 106.647V106.649Z" fill="white"/>
<path d="M324.869 80.5729C326.876 80.6213 328.451 81.4929 330.149 82.1434C332.621 83.095 333.827 79.5876 336.392 79.7476C337.436 79.8129 338.806 79.0129 339.377 80.1729C339.844 81.1224 338.364 81.4445 337.811 82.0992C334.771 85.6887 330.758 86.2718 326.621 85.1266C325.316 84.7687 324.326 82.7118 323.556 81.2424C323.24 80.6403 324.423 80.6529 324.869 80.5729Z" fill="black"/>
<path d="M327.082 87.0348C327.289 87.039 327.493 87.0601 327.697 87.0937C332.796 87.9548 337.392 84.8327 342.421 84.8874C344.263 84.9085 345.992 85.5253 347.238 86.919C346.43 86.9948 345.609 87.2032 344.817 87.1232C340.805 86.7211 336.986 87.9864 333.07 88.3653C331.838 88.4853 330.573 88.2874 329.329 88.1759C326.318 87.9169 323.434 88.4664 320.619 89.4769C320.238 89.6159 319.798 89.6074 319.388 89.6664C319.912 88.2769 321.118 87.6432 322.516 87.4116C323.247 87.3105 323.983 87.2473 324.72 87.2222C325.516 87.1674 326.293 87.0116 327.082 87.0327V87.0348Z" fill="white"/>
<path d="M324.05 95.0275C324.001 95.0349 323.951 95.0391 323.901 95.0402C323.16 95.0633 322.368 94.817 321.64 94.6739C320.913 94.5342 320.194 94.3607 319.484 94.1539C318.064 93.7496 316.711 93.1396 315.467 92.3433C315.124 92.1188 314.791 91.8778 314.471 91.6212C313.823 91.1012 313.96 90.3896 314.429 89.8002C314.692 89.4482 315.071 89.2005 315.499 89.1012C315.793 89.0423 316.602 89.0275 316.762 89.3665C318.349 92.7118 321.052 90.476 323.206 90.6718C324.483 90.7694 325.764 90.7919 327.044 90.7391C327.688 90.7223 328.33 90.6991 328.974 90.6844C329.29 90.6844 329.623 90.6486 329.943 90.6697C330.259 90.6928 330.682 90.9812 330.252 91.2212C329.979 91.377 329.591 91.3139 329.303 91.3012C328.482 91.2718 327.669 91.4907 326.897 91.7433C325.684 92.1223 324.518 92.6381 323.305 93.0275C323.044 93.1118 323.014 93.697 323.065 93.9054C323.294 94.8444 324.471 93.6107 324.854 94.3475C325.065 94.7896 324.431 94.9791 324.05 95.0275ZM332.202 104.924C330.446 104.598 328.675 104.354 326.947 103.914C326.257 103.739 325.823 103.093 326.137 102.251C326.461 101.377 327.109 101.779 327.657 101.893C331.297 102.665 335.073 102.461 338.608 101.299C340.061 100.832 340.13 102.009 340.427 102.52C340.791 103.137 339.838 103.131 339.433 103.223C337.054 103.792 334.774 104.908 332.202 104.924Z" fill="black"/>
<path d="M371.145 125.436C371.413 126.922 370.268 128.335 368.632 129.297C368.465 129.394 367.074 127.882 366.651 126.939C366.002 125.495 365.665 123.897 365.287 122.354C365.211 122.047 365.541 121.331 365.68 121.331C366.821 121.341 368.141 121.141 369.028 121.663C370.072 122.274 371.129 123.293 371.145 125.436Z" fill="white"/>
<path d="M345.772 91.1405C345.254 91.3089 344.856 91.2037 344.098 90.7468C343.397 90.3195 342.915 90.3679 342.101 90.3258C341.826 90.3115 341.557 90.2407 341.31 90.118C341.064 89.9952 340.846 89.823 340.669 89.6121C341.81 88.5384 343.423 88.4732 344.894 88.391C345.519 88.3616 348.442 87.6753 348.475 88.5721C348.528 89.9047 346.863 90.7974 345.772 91.1405Z" fill="black"/>
<path d="M296.168 64.7867C296.507 64.7593 296.848 64.7656 297.189 64.7993C297.745 64.9909 298.234 65.3446 298.592 65.814C299.328 66.7509 299.596 67.9677 300.112 69.0245C299.77 69.4372 298.307 67.673 297.96 67.3298C297.2 66.5782 296.303 65.8519 295.64 65.0182C295.522 64.8793 295.808 64.8119 296.166 64.7867H296.168Z" fill="white"/>
<path d="M352.038 87.7547C352.055 87.9968 351.739 88.3063 351.56 88.3926C351.428 87.8937 350.849 87.4979 350.485 87.1716C350.188 86.9021 349.449 86.439 349.377 86.0074C349.314 85.6284 350.194 84.8874 350.546 84.9926C351.693 85.3358 351.933 86.3926 352.04 87.7547H352.038ZM300.493 72.5674C300.589 72.7007 300.643 72.8591 300.649 73.0231C300.656 73.187 300.614 73.3492 300.529 73.4895C300.282 73.8748 300.011 74.2453 299.718 74.5968C299.381 74.2811 299.181 74.1442 299.476 73.7526C299.773 73.359 300.104 72.839 300.493 72.5695V72.5674Z" fill="black"/>
<path d="M371.792 147.465C376.036 147.303 380.156 148.202 384.301 148.884C390.644 149.922 397.122 150.113 403.541 150.724C404.594 149.85 405.613 148.939 406.581 147.968C406.912 147.589 407.227 147.208 407.533 146.827C396.792 145.635 386.063 144.183 375.027 142.804C372.307 142.577 372.143 145.134 371.246 146.924C371.206 146.983 371.604 147.471 371.794 147.465H371.792ZM300.695 146.501C299.901 144.663 299.878 142.101 297.152 142.174C285.366 142.981 273.918 143.886 262.461 144.482C261.086 144.553 259.737 144.692 258.404 144.892C258.495 145.591 258.615 146.288 258.762 146.983C259.044 147.745 259.364 148.478 259.71 149.208C268.91 147.903 278.324 148.728 287.552 147.734C291.72 147.284 295.893 146.614 300.12 147.014C300.301 147.033 300.726 146.57 300.695 146.501Z" fill="white"/>
<path d="M332.415 57.908C332.162 56.1585 331.383 53.2722 333.832 52.9669C335.754 52.7248 336.836 51.3059 338.592 51.148C347.676 50.2069 353.175 47.0427 357.263 57.5964C358.453 60.0659 360.533 62.1227 359.143 65.2006C358.84 65.8701 358.251 66.169 357.964 65.769C354.581 60.7459 351.722 70.9627 340.497 66.4048C339.63 66.0575 338.367 65.5543 339.019 64.0469C338.943 63.3817 337.832 63.668 337.352 63.6196C336.815 63.9985 337.851 65.369 338.002 65.9017C334 65.8069 332.019 61.6659 332.415 57.908ZM303.737 64.9901C304.781 61.6322 303.649 56.308 307.891 52.8975C310.394 50.8827 313.487 52.6238 316.305 52.3753C319.476 52.0981 322.652 52.8496 325.362 54.5185C328.558 56.4532 327.291 59.2911 327.009 62.0217C326.79 64.1438 325.567 65.7796 324.849 67.6532C324.148 69.4974 322.602 68.0659 321.508 68.5732C316.417 70.9185 310.863 69.1648 305.562 70.1417C303.87 70.4575 303.567 67.8869 303.737 64.9901ZM322.093 77.0406C322 76.5038 321.861 76.2132 321.945 76.1059C322.533 75.3817 323.169 74.6932 323.788 73.9922C323.95 74.1396 324.261 74.4027 324.251 74.4132C323.619 75.2196 322.962 76.0027 322.093 77.0406ZM332.695 96.8196C330.705 96.8301 329.432 96.9459 328.19 95.4301C328.836 95.6217 329.489 95.9922 330.124 95.9669C332.377 95.8701 334.781 96.6785 336.819 94.9901C336.954 94.8785 337.331 95.0575 337.594 95.1017C336.703 96.6701 333.825 96.8701 332.697 96.8196H332.695Z" fill="#C4C3C6"/>
<path d="M343.122 51.6002C345.593 51.3855 348.052 51.1034 350.526 51.0107C351.111 50.9855 352.054 51.4613 352.236 51.937C352.566 52.7834 351.779 52.3013 351.452 52.2655C349.77 51.697 349.05 51.617 347.758 53.217C346.463 54.7665 343.174 54.1665 341.556 55.756C342.368 56.137 343.229 56.4023 344.116 56.5476C343.722 56.7349 343.316 56.8907 342.897 57.0107C341.198 57.3686 340.01 58.5476 338.812 59.6339C337.332 60.977 335.423 60.3413 334.871 59.4444C334.303 58.4928 334.871 56.5728 336.772 56.1518C336.962 56.1097 337.273 55.6465 337.214 55.5244C335.025 50.7434 339.181 52.5328 340.962 51.9392C341.633 51.7118 342.398 51.7497 343.122 51.6802V51.5981V51.6002ZM346.21 59.0486C347.89 58.977 349.486 59.2381 350.974 60.0697C351.596 60.4192 352.427 60.5328 352.461 61.4381C352.461 61.5792 351.943 61.8592 351.659 61.8697C350.876 61.897 349.882 62.5728 349.459 61.2213C349.311 60.7539 348.821 60.4444 348.419 60.8949C346.257 63.3139 344.356 64.7392 342.025 60.836C341.467 59.8991 340.021 61.6992 339.151 62.4192C338.57 62.9013 338.01 63.217 337.53 62.756C337.002 62.2423 337.699 61.7728 338.054 61.4592C340.393 59.396 343.278 59.116 346.208 59.0486H346.21ZM350.905 57.5918C351.179 57.5244 351.374 57.8549 351.528 58.0255C351.73 58.2381 351.943 58.4402 352.17 58.6276C352.604 59.0065 353.063 59.3876 353.486 59.7686C353.092 60.2592 352.273 59.3792 351.964 59.1434C351.45 58.7644 350.903 58.4086 350.427 57.9792C350.448 58.0149 350.827 57.6128 350.905 57.5918Z" fill="black"/>
<path d="M345.568 58.4011C344.952 58.5127 344.331 58.5021 344.109 58.1169C343.998 57.9274 344.032 57.8284 344.225 57.719C344.376 57.6366 344.542 57.5858 344.714 57.5695C345.097 57.5379 345.484 57.5821 345.853 57.6958C346.025 57.7379 346.194 57.7884 346.362 57.8369C346.457 57.8642 346.825 58.0432 346.905 58.0095C346.474 58.1843 346.026 58.3155 345.568 58.4011ZM340.4 61.879C340.267 61.6579 341.444 60.9674 341.747 61.1042C342.204 61.3127 342.364 62.2958 342.126 62.6832C341.728 63.319 340.773 62.3316 340.415 61.8874C340.411 61.8883 340.408 61.8883 340.404 61.8874C340.401 61.8852 340.399 61.8823 340.398 61.879H340.4ZM321.505 63.5127C321.625 63.3127 320.564 62.6916 320.291 62.8137C319.878 63.0032 319.735 63.8874 319.954 64.239C320.312 64.8074 321.175 63.919 321.501 63.519L321.505 63.5127Z" fill="white"/>
<path d="M325.739 59.9371C325.688 60.0255 325.596 60.4571 325.339 60.6086C323.739 61.5686 322.133 60.9392 320.897 60.0529C316.764 57.0908 312.735 57.4634 309.213 61.3455C308.941 61.6465 308.48 61.7729 308.107 61.9813C308.2 61.516 308.147 60.9371 308.408 60.6065C309.865 58.775 311.893 57.8508 314.086 57.2171C314.406 57.1244 314.678 56.876 314.973 56.7013C313.629 56.2044 312.202 56.7139 310.819 56.5981C309.587 56.5371 307.53 57.1686 307.297 56.0423C306.77 53.5034 309.328 53.0381 310.825 53.3792C313.413 53.9497 315.783 52.8865 318.288 53.1644C321.278 53.495 325.714 57.1476 325.739 59.935V59.9371Z" fill="black"/>
<path d="M316.83 60.8052C318.567 61.1673 322.451 60.4262 323.493 63.2346C321.666 63.0599 320.405 60.9799 318.908 63.7125C318.034 65.2957 315.866 65.8704 314.112 64.0409C313.733 63.6473 313.541 62.8473 312.729 63.182C311.868 63.5357 312.463 64.1504 312.411 64.6915C312.293 65.9273 311.512 64.7546 311.038 64.7778C310.066 64.8304 309.074 64.5673 308.091 64.4388C310.565 61.8136 312.828 60.6957 316.83 60.8052Z" fill="black"/>
<path d="M315.08 60.3781H315.046C314.634 60.3444 314.299 60.0876 313.935 59.915C314.787 59.4855 315.602 58.9402 316.501 58.6602C317.217 58.435 317.585 59.1192 317.886 59.6939C317.352 59.8392 316.817 59.9781 316.282 60.1276C315.891 60.2413 315.493 60.4118 315.08 60.3802V60.3781ZM296.568 73.4834C297.503 72.7865 299.611 72.6539 298.4 70.7002C297.143 68.6729 296.105 70.9402 295.158 71.2897C295.036 71.3318 294.931 71.3697 294.838 71.395C295.027 72.755 295.211 74.1171 295.373 75.4834C295.764 78.7802 296.133 82.0665 296.977 85.2813C297.293 86.2497 297.682 87.1929 298.141 88.1023L298.819 87.9971C300.149 87.7865 300.465 87.256 299.72 85.9802C298.888 84.5529 300.6 83.4897 300.545 82.0329C300.505 80.9697 300.507 79.9044 299.596 79.4855C298.737 79.0981 298.225 79.9444 297.893 80.7781C297.754 81.1318 297.286 81.3486 296.971 81.6371C296.836 81.2055 296.543 80.755 296.592 80.3465C296.781 78.7192 298.152 77.0539 296.019 75.5929C295.535 75.2518 295.766 74.0876 296.568 73.4834ZM371.025 75.0476C370.183 74.2876 369.219 73.6076 368.528 72.7192C367.838 71.8308 367.168 70.1171 366.314 70.5444C365.257 71.0729 365.84 72.675 366.189 73.9044C366.592 75.3192 366.952 76.8644 366.779 78.2918C366.653 79.395 367.651 78.9107 367.905 79.6392C368.533 81.4392 366.152 82.6139 367.215 84.2013C368.314 85.8371 369.895 85.3108 371.411 84.8371C371.626 84.7823 371.848 84.7631 372.069 84.7802C372.158 84.6497 372.242 84.5171 372.326 84.3823C373.032 82.9718 373.623 81.5108 374.099 80.0097C373.975 80.157 373.821 80.2762 373.647 80.3593C373.473 80.4424 373.283 80.4876 373.091 80.4918C372.853 80.5086 372.577 79.9929 372.318 79.7297L374.356 77.776L374.533 78.0834C374.912 75.7739 375.069 73.4392 375.213 71.1002C375.107 71.0729 375.023 70.9613 375.023 70.7634C375.023 70.416 375.265 70.0265 375.259 69.6476C375.252 69.3183 375.176 68.994 375.036 68.696C374.76 68.1023 374.276 67.6308 373.832 67.1592C373.389 66.6897 372.926 66.2202 372.659 65.6223C372.154 64.5002 371.198 64.7171 370.432 65.5171C369.716 66.2644 369.385 67.9381 370.12 68.1802C372.781 69.0602 373.516 70.1865 371.722 72.595C371.244 73.2329 371.242 74.2202 371.025 75.0476Z" fill="white"/>
<path d="M318.352 51.2909C316.512 51.232 314.672 51.3225 312.84 51.4278C311.417 51.512 309.636 51.872 308.295 51.2383C308.632 50.4214 309.943 49.6425 310.657 49.0909C311.658 48.3566 312.392 47.3159 312.748 46.1267C313.219 44.5899 313.063 42.5541 311.954 41.2741C310.242 39.3036 307.962 40.552 306.127 41.5562C303.247 43.1267 303.068 40.5941 303.531 38.3604C304.082 35.6972 304.851 31.5014 307.371 30.053C308.815 29.2257 310.413 29.8888 311.958 29.8993C315.322 29.9204 317.575 27.1351 320.701 26.4467C322.701 26.0046 324.752 25.9499 326.775 25.6846C328.543 25.453 330.017 24.6614 331.718 24.1899C333.701 23.6425 335.813 24.4004 337.697 24.9941C339.891 25.6888 342.259 26.3751 344.577 26.3814C346.893 26.3857 349.365 25.7183 351.539 26.752C353.125 27.5099 354.179 28.9393 355.129 30.3625C356.16 31.9057 357.348 33.4046 358.213 35.0446C358.794 36.1393 360.15 39.5772 358.685 40.5183C358.156 40.8551 357.527 40.4172 356.973 40.3709C356.137 40.2951 355.71 40.693 355.19 41.2762C354.337 42.2278 353.318 42.7836 352.137 43.2257C351.257 43.5562 349.371 44.0572 350.297 45.3436C350.63 45.8025 351.167 46.1225 351.55 46.5393C353.019 48.1393 354.712 49.7857 356.028 51.5078C356.765 52.4678 357.383 53.5078 358.076 54.4951C358.51 55.1141 359.91 56.3962 359.788 57.2046C359.558 58.6951 358.343 56.8741 358.139 56.4888C357.682 55.632 357.27 54.752 356.809 53.8993C355.925 52.2825 354.84 50.653 353.114 49.8446C350.026 48.4004 345.788 49.1288 342.541 49.6236C340.177 49.9857 338.005 51.0446 335.699 51.6046C334.436 51.9099 332.935 52.0615 331.971 53.0257C330.245 54.7351 332.005 57.1393 332.16 59.0804C332.571 64.253 335.68 65.853 340.75 66.4593C345.402 67.013 349.71 67.0615 354.171 65.5415C356.108 64.8804 357.135 66.9436 358.175 68.3772C358.731 69.1351 360.053 68.4846 360.581 69.7457C361.495 71.9372 359.56 73.7246 360.07 76.0088C360.369 77.3541 352.219 79.5625 350.375 78.7309C348.135 77.7204 345.828 76.4278 343.308 76.3941C343.853 76.3941 344.318 77.8362 344.356 78.2362C344.397 78.5912 344.339 78.9506 344.19 79.2751C344.04 79.5996 343.804 79.8767 343.508 80.0762C342.259 80.9141 341.548 79.8867 341.701 78.6278C341.912 77.17 341.664 75.6828 340.99 74.373C340.531 73.5183 339.981 72.5751 339.16 72.0214C338.522 71.5878 337.737 71.7583 337.807 72.6404C337.876 73.5751 339.074 74.3036 339.579 75.0046C340.057 75.6699 341.173 77.0636 340.28 77.8025C338.891 78.9436 336.125 77.2025 334.51 77.893C332.419 78.7857 330.137 78.3983 327.954 78.2341C326.851 78.152 325.735 78.1204 324.645 78.3372C324 78.4636 323.154 78.8214 322.554 78.3646C321.918 77.8762 322.659 76.4783 323.143 76.0699C325.174 74.3648 326.575 72.0297 327.125 69.4362C327.567 67.3583 327.236 65.2299 327.314 63.1288C327.375 61.2993 328.173 59.6025 328.15 57.7814C328.066 52.672 323.261 51.4446 318.352 51.2909Z" fill="white"/>
<path d="M311.886 69.7088C313.406 69.5425 315.206 69.4478 316.96 69.1383C320.573 68.5025 322.438 69.2583 321.579 73.5678C320.653 78.2415 315.215 82.5194 310.8 81.5804C307.838 80.951 303.575 75.5804 304.686 73.4857C306.074 70.8962 308.417 69.2941 311.886 69.7088ZM301.431 61.8331C301.458 60.1834 301.535 58.5349 301.663 56.8899C301.698 56.6148 301.804 56.3536 301.97 56.132C302.326 55.612 302.981 56.3383 303.128 56.7004C303.206 56.9467 303.213 57.2099 303.149 57.4604C303.114 57.6941 302.939 58.2731 303.366 58.1425C303.601 58.0491 303.815 57.9103 303.996 57.7341C304.128 57.6162 304.267 57.5088 304.413 57.4099C304.318 57.6478 304.427 57.9004 304.425 58.1446C304.425 58.8436 304.099 59.5383 303.918 60.2078C303.475 61.8872 303.156 63.5971 302.966 65.3236C302.707 67.4583 302.545 69.6099 302.219 71.7404C302.166 72.0983 302.21 72.5467 302.01 72.8667C301.684 73.3973 301.442 72.2078 301.431 71.9867C301.404 69.3699 301.408 66.751 301.408 64.1341C301.41 63.3678 301.419 62.6015 301.429 61.8331H301.431ZM363.558 59.172C363.453 59.7552 363.229 60.9404 363.008 62.1257C361.518 61.031 360.918 59.431 360.829 57.6983C360.775 56.6962 360.29 54.8478 361.857 55.0078C363.457 55.1762 363.478 57.092 363.56 59.172H363.558Z" fill="white"/>
<path d="M313.381 68.6795C313.174 68.6681 312.968 68.6456 312.764 68.6121C311.433 68.1595 308.878 68.9679 308.972 67.3574C309.078 65.5195 311.442 67.231 312.673 66.6584C314.309 65.8984 315.966 66.49 317.614 66.4689C317.827 66.4689 318.042 66.6247 318.254 66.711C317.947 67.0479 317.696 67.5784 317.32 67.6942C315.905 68.1279 314.452 68.4226 313.383 68.6795H313.381ZM344.995 66.2837C343.08 66.2037 341.092 66.3805 339.741 64.9258C341.315 64.9574 342.886 64.9847 344.461 65.0184C344.642 65.0289 344.821 65.0605 344.995 65.1089C346.099 65.3826 348.195 64.5784 348.124 65.6795C348.046 66.8437 346.099 66.0837 344.995 66.2837Z" fill="black"/>
</g>
<rect x="258" y="2" width="156" height="156" rx="78" stroke="black" stroke-width="4"/>
<g clip-path="url(#clip2_6332_284023)">
<rect x="72" y="352" width="48" height="48" rx="24" fill="#DEE3E9"/>
<path d="M95.9998 379.919C100.713 379.919 104.533 376.099 104.533 371.386C104.533 366.673 100.713 362.853 95.9998 362.853C91.287 362.853 87.4665 366.673 87.4665 371.386C87.4665 376.099 91.287 379.919 95.9998 379.919Z" fill="#A7AEB7"/>
<path d="M81.0664 394.853C81.0664 388.962 85.842 384.186 91.733 384.186H100.266C106.157 384.186 110.933 388.962 110.933 394.853V415.653C110.933 421.544 106.157 426.319 100.266 426.319H91.733C85.842 426.319 81.0664 421.544 81.0664 415.653V394.853Z" fill="#A7AEB7"/>
</g>
<g clip-path="url(#clip3_6332_284023)">
<rect x="88" y="96" width="64" height="64" rx="32" fill="#DEE3E9"/>
<path d="M120 133.225C126.284 133.225 131.378 128.131 131.378 121.847C131.378 115.564 126.284 110.47 120 110.47C113.716 110.47 108.622 115.564 108.622 121.847C108.622 128.131 113.716 133.225 120 133.225Z" fill="#A7AEB7"/>
<path d="M100.089 153.136C100.089 145.282 106.456 138.914 114.311 138.914H125.689C133.544 138.914 139.911 145.282 139.911 153.136V180.87C139.911 188.725 133.544 195.092 125.689 195.092H114.311C106.456 195.092 100.089 188.725 100.089 180.87V153.136Z" fill="#A7AEB7"/>
</g>
<g clip-path="url(#clip4_6332_284023)">
<rect x="304" y="393" width="96" height="96" rx="48" fill="#DEE3E9"/>
<path d="M352.001 448.837C361.426 448.837 369.067 441.196 369.067 431.771C369.067 422.345 361.426 414.704 352.001 414.704C342.575 414.704 334.934 422.345 334.934 431.771C334.934 441.196 342.575 448.837 352.001 448.837Z" fill="#A7AEB7"/>
<path d="M322.134 478.704C322.134 466.922 331.685 457.371 343.467 457.371H360.534C372.316 457.371 381.867 466.922 381.867 478.704V520.305C381.867 532.087 372.316 541.637 360.534 541.637H343.467C331.685 541.637 322.134 532.087 322.134 520.305V478.704Z" fill="#A7AEB7"/>
</g>
<defs>
<clipPath id="clip0_6332_284023">
<rect x="168" y="232" width="112" height="112" rx="56" fill="white"/>
</clipPath>
<clipPath id="clip1_6332_284023">
<rect x="256" width="160" height="160" rx="80" fill="white"/>
</clipPath>
<clipPath id="clip2_6332_284023">
<rect x="72" y="352" width="48" height="48" rx="24" fill="white"/>
</clipPath>
<clipPath id="clip3_6332_284023">
<rect x="88" y="96" width="64" height="64" rx="32" fill="white"/>
</clipPath>
<clipPath id="clip4_6332_284023">
<rect x="304" y="393" width="96" height="96" rx="48" fill="white"/>
</clipPath>
</defs>
</svg>
