<svg width="375" height="177" viewBox="0 0 375 177" fill="none" xmlns="http://www.w3.org/2000/svg">
<g clip-path="url(#clip0_6035_296170)">
<path d="M247 77C247 61.5359 259.536 49 275 49C290.464 49 303 61.5359 303 77C303 92.4641 290.464 105 275 105C259.536 105 247 92.4641 247 77Z" fill="#623AD6"/>
<path d="M283.992 115.64C281.548 115.62 279.093 115.427 276.718 115.238L276.468 115.218C273.146 114.956 270.406 114.637 267.845 114.216C266.642 114.019 265.444 113.789 264.252 113.527L264.187 113.512C261.466 112.802 258.821 111.826 256.289 110.6L256.183 110.543C254.692 109.656 253.282 108.641 251.968 107.508L251.884 107.431C250.484 106.028 249.172 104.529 247.903 103.081L247.867 103.039L247.723 102.877L247.612 102.747L247.421 101.008C247.625 100.637 247.812 100.308 247.999 100C248.207 99.6441 248.433 99.3 248.677 98.9677C249.686 97.5546 251.097 96.4786 252.727 95.8803C252.988 95.7049 253.225 95.548 253.462 95.4028C253.626 95.3034 253.796 95.2039 253.972 95.1059C255.328 93.3286 258.826 92.9432 259.473 92.8843C260.162 92.6323 260.851 92.4105 261.528 92.2248L261.73 92.1828C262.113 92.1341 262.498 92.0992 262.884 92.0782C263.029 92.0576 263.181 92.0391 263.344 92.0222C263.858 91.6653 264.38 91.3218 264.912 90.9921L264.966 90.9597C265.368 90.7099 265.985 90.3289 266.7 90.1757C266.46 89.8766 266.196 89.5975 265.91 89.3408C265.686 89.1264 265.456 88.9061 265.228 88.6585L265.057 88.4352C265.079 88.4721 265.106 88.5082 265.134 88.5414L265.097 88.503C265.049 88.4544 264.981 88.3866 264.909 88.3034L264.872 88.2577C264.145 87.3351 263.855 86.2977 263.6 85.3744V85.3575C263.575 85.2705 263.551 85.1659 263.523 85.0524C263.504 84.975 263.476 84.8623 263.446 84.7488C263.209 84.776 262.969 84.7905 262.73 84.7923C262.36 84.796 261.992 84.7454 261.637 84.642C261.313 84.5485 261.012 84.3912 260.75 84.1792C260.489 83.9672 260.273 83.7049 260.114 83.4078C259.736 82.6975 259.686 81.8015 259.974 80.8848C260.055 80.6232 259.776 80.1229 259.506 79.6359C259.412 79.4657 259.315 79.2896 259.222 79.1061C258.193 77.0783 258.077 75.0439 258.877 73.0588L259.025 72.8415C258.971 72.3257 258.883 71.8128 258.764 71.3074C258.725 71.1224 258.683 70.9301 258.642 70.7289C258.311 69.085 258.436 67.4205 258.602 66.0087C259.288 60.2068 263.492 55.6531 269.849 53.8302C271.284 53.4159 272.77 53.2038 274.263 53.2002C277.569 53.2002 280.807 54.2664 283.632 56.2831C284.186 56.6776 284.716 57.1048 285.219 57.5623C285.944 58.2247 286.683 58.977 287.161 59.9954C287.954 61.6835 288.484 63.5484 288.782 65.6963C288.831 66.047 288.873 66.4125 288.912 66.7824C288.966 67.1287 288.988 67.478 288.979 67.828V67.8877C289.358 68.0331 289.704 68.2554 289.994 68.5407C290.284 68.826 290.512 69.1681 290.663 69.5456C290.828 69.9451 290.927 70.369 290.956 70.8004C290.981 71.1497 290.965 71.5004 290.908 71.8467C290.916 72.0214 290.93 72.2078 290.945 72.403C290.957 72.5467 290.967 72.6919 290.977 72.8363V73.061C290.934 73.7938 290.95 74.5287 291.023 75.259C291.112 76.4704 291.211 77.8439 290.83 79.2851L290.779 79.4472C290.616 79.871 290.39 80.2676 290.108 80.6232C289.991 80.7699 289.865 80.9077 289.729 81.0359C289.825 81.1611 289.913 81.2916 289.99 81.4286C290.95 82.2701 291.662 83.2501 292.351 84.1999C293.041 85.1504 293.668 85.9992 294.477 86.6447C294.689 86.8135 294.856 87.0316 294.966 87.2799C295.088 87.4029 295.203 87.5208 295.313 87.6358C295.819 88.1567 296.298 88.7027 296.749 89.2716C296.881 89.4359 297.011 89.6031 297.129 89.7704C298.028 90.6229 299.247 91.0319 300.435 91.3472C300.678 91.4106 300.944 91.4769 301.294 91.5595C301.547 91.6132 301.806 91.6722 302.063 91.7319C303.264 91.7563 304.438 92.1028 305.46 92.7355C307.929 93.6359 310.005 94.8082 311.799 96.315C312.025 96.4771 312.242 96.6378 312.452 96.7955C312.692 96.9826 312.923 97.1712 313.139 97.3562L313.227 97.4387C313.478 97.6907 313.731 97.9619 313.98 98.2448L314.068 100.149C313.78 100.545 313.49 100.94 313.198 101.334L312.918 101.712C311.474 103.672 309.979 105.688 308.346 107.571L308.25 107.672C307.331 108.546 306.343 109.345 305.295 110.06L305.165 110.137C302.794 111.453 300.146 112.55 296.832 113.589L296.776 113.606C292.628 114.749 288.368 115.431 284.071 115.639L283.992 115.64Z" fill="black"/>
<path d="M248.911 102.032C250.197 103.5 251.482 104.97 252.859 106.351C254.104 107.425 255.442 108.387 256.855 109.226C259.299 110.407 261.852 111.347 264.477 112.034C265.64 112.289 266.81 112.513 267.988 112.706C270.802 113.168 273.643 113.468 276.479 113.693C278.945 113.889 281.422 114.091 283.898 114.111C288.086 113.911 292.239 113.248 296.281 112.134C299.054 111.264 301.789 110.214 304.331 108.804C305.31 108.136 306.232 107.389 307.089 106.57C308.787 104.61 310.334 102.499 311.87 100.428L312.733 99.2517C312.51 98.9983 312.28 98.7514 312.041 98.5112C311.629 98.1606 311.202 97.8292 310.76 97.518C307.938 95.1321 304.489 93.8131 300.857 93.0461C300.55 92.9731 300.245 92.8987 299.942 92.8176C298.429 92.4175 296.984 91.8863 295.868 90.77C295.735 90.5801 295.596 90.3948 295.451 90.2144C295.03 89.6849 294.584 89.1768 294.112 88.6921C293.908 88.4798 293.7 88.2706 293.491 88.065C291.001 85.4956 288.465 82.9594 286.424 79.9804C286.325 79.7667 286.235 79.5486 286.156 79.3268C285.771 78.2304 285.671 77.1052 285.691 75.93C285.713 74.5506 286.083 73.2125 286.159 71.8368C286.059 70.6608 285.76 69.4848 285.435 68.3427C285.047 67.0309 284.623 65.7302 284.163 64.4418C283.651 63.0345 283.068 61.6124 282.726 60.1453C281.419 59.9869 280.112 59.8182 278.816 59.578C277.844 59.3974 276.869 59.2058 275.89 59.0371L275.826 59.0887L274.876 59.6745C273.195 60.2684 271.552 60.9632 269.842 61.4783C268.645 61.8393 267.437 62.2122 266.185 62.3603C265.099 62.4907 263.931 62.5496 262.854 62.3087L262.786 62.2984C262.618 62.7611 262.469 63.2305 262.336 63.7057C262.064 65.0276 261.925 66.3734 261.922 67.723C262.039 69.7702 262.381 71.7982 262.943 73.7703C263.851 76.6449 265.092 79.4035 266.641 81.9897C267.64 83.5588 268.734 85.0648 269.918 86.4992C270.064 86.6738 270.195 86.8595 270.31 87.0548C270.421 87.242 270.514 87.438 270.591 87.6406C271.645 91.3727 266.574 92.5892 263.962 93.4801C263.615 93.5073 263.275 93.5405 262.948 93.5906C262.568 93.6105 262.203 93.6385 261.842 93.6864C260.82 93.9701 259.816 94.3171 258.838 94.7253C258.51 94.8624 258.184 95.0053 257.855 95.149C256.552 95.4743 255.306 95.9961 254.16 96.6964C253.878 96.8688 253.601 97.053 253.33 97.2409C251.908 97.7247 250.673 98.643 249.802 99.8663C249.588 100.158 249.39 100.46 249.208 100.772C249.016 101.092 248.832 101.414 248.654 101.739L248.912 102.032H248.911Z" fill="white"/>
<path d="M289.281 71.7164C289.336 71.4512 289.354 71.1786 289.337 70.9089C289.319 70.6421 289.259 70.3799 289.158 70.1322C289.067 69.8852 288.909 69.6686 288.701 69.507C288.493 69.3454 288.244 69.2452 287.982 69.2178C287.604 69.0579 287.303 68.8568 287.356 68.2526C287.337 67.8281 287.375 67.3632 287.297 66.9911C287.263 66.6263 287.221 66.2616 287.167 65.8998C286.916 64.0857 286.463 62.3114 285.676 60.6351C285.311 59.8584 284.715 59.2535 284.087 58.6751C283.63 58.2597 283.149 57.8712 282.647 57.5116C278.942 54.8708 274.527 54.0344 270.152 55.29C264.896 56.7969 260.657 60.5864 259.996 66.185C259.831 67.5864 259.735 69.0292 260.017 70.424C260.226 71.4586 260.443 72.2374 260.455 73.3073C260.374 73.4252 260.279 73.5313 260.173 73.6249C259.51 75.268 259.666 76.8434 260.463 78.4143C260.927 79.3288 261.639 80.2712 261.31 81.3374C261.087 82.0462 261.14 82.9363 261.962 83.1817C262.558 83.3586 263.213 83.2127 263.818 83.1633C264.614 83.0992 264.803 84.3982 264.955 84.9464C265.187 85.7754 265.42 86.625 265.963 87.3117C266.064 87.4112 266.159 87.518 266.245 87.6308C267.089 88.5459 268.218 89.2643 268.398 90.6562C268.497 90.7579 268.591 90.8648 268.678 90.9775L268.173 91.6672C268.006 91.8632 268.016 92.1019 268.004 92.3392C267.948 93.4982 268.09 94.6912 268.577 95.7471C269.012 96.6954 269.677 97.5111 270.314 98.3275C271.126 99.3642 272 100.428 273.22 100.995C273.706 101.221 274.24 101.299 274.679 101.622C275.309 102.088 275.913 102.72 276.256 103.431C276.486 103.911 276.661 104.75 277.3 104.84C278.214 104.97 279.236 103.424 279.703 102.818C280.322 102.015 280.818 101.127 281.401 100.295C281.821 99.687 282.239 99.0754 282.707 98.5058C283.177 97.9355 283.456 97.2068 283.743 96.5193C283.802 96.3771 283.864 96.2386 283.929 96.1008C284.191 95.5378 284.5 95.0051 284.807 94.4583C285.326 93.5308 285.81 92.5838 286.257 91.6193C286.63 90.8272 287.075 90.0616 287.331 89.2209C287.529 88.568 287.462 87.6219 287.963 87.112C288.094 86.9816 288.039 86.8011 288.069 86.6419C288.146 86.1425 288.278 85.653 288.461 85.1822C288.653 84.8057 288.602 84.3982 288.618 84.0062C288.629 83.7056 288.542 83.3895 288.691 83.111C288.976 82.1501 287.962 81.4406 287.254 81.1362C287.05 81.0346 287.151 80.6293 287.151 80.6293C287.912 80.4768 288.445 80.1341 288.815 79.6714C289.001 79.4363 289.149 79.1748 289.255 78.8955C289.788 76.8766 289.18 74.949 289.356 72.9271C289.33 72.5174 289.285 72.1166 289.28 71.7164H289.281Z" fill="black"/>
<path d="M267.78 91.8446C268.353 92.3177 268.194 93.3566 268.107 93.9955C267.976 94.932 267.497 96.0793 267.938 96.9915C268.199 97.5316 269.176 97.4675 268.844 98.177C268.627 98.6398 267.799 98.7127 267.498 99.1349C267.25 99.482 267.279 99.9256 267.077 100.284C267.043 100.345 266.487 101.022 266.443 100.848C266.405 100.753 266.377 100.653 266.362 100.551C266.387 101.074 266.21 103.082 265.397 103.041C264.908 103.017 264.635 102.083 264.504 101.734C264.038 100.429 263.718 99.0759 263.549 97.7003C262.653 97.76 262.574 99.0672 262.444 99.7362C262.233 100.89 262.084 102.068 261.707 103.183C261.329 104.298 260.642 105.342 260.424 106.528C260.308 107.166 260.462 108.348 259.662 108.571C259.662 108.571 259.866 105.654 259.889 105.344C259.987 103.958 260.11 102.555 260.747 101.292C261.008 100.777 261.97 99.2941 260.992 98.9308C260.181 98.6287 260.062 99.8092 259.556 100.107C258.623 100.662 259.224 99.1489 259.556 98.7879C259.977 98.3325 260.553 97.9494 260.846 97.3938C260.087 97.1329 259.137 97.2538 258.528 97.802C258.203 98.0945 257.638 98.9087 258.339 99.1084C258.069 99.0318 256.832 100.388 256.641 100.623C255.595 100.128 257.046 98.2714 257.144 97.5588C257.226 96.9679 257.442 96.0417 256.681 96.1684C256.186 96.2509 255.841 96.9156 255.384 97.1027C255.351 96.7918 255.135 96.6651 254.841 96.7682C254.668 95.1442 258.412 94.4811 259.536 94.3912C259.322 94.8112 258.403 95.6416 258.668 96.1647C258.999 96.8176 260.071 96.0233 260.436 95.7919C262.188 94.6763 263.833 93.3706 265.591 92.2823C266.122 91.9544 267.001 91.3834 267.638 91.7592C267.688 91.7835 267.736 91.8122 267.78 91.8446ZM288.259 85.1799C288.334 84.1977 288.412 83.2147 288.489 82.2325C290.51 83.7659 291.447 86.2608 293.428 87.8288C293.533 87.9114 293.504 88.1634 293.537 88.3358C293.642 88.4728 293.668 88.6077 293.526 88.7366C292.38 87.9622 291.818 86.7125 290.979 85.7318C290.757 86.1238 290.499 86.2269 290.406 85.9013C290.275 85.496 290.303 85.0428 290.003 84.7113C289.947 84.8402 289.906 84.9765 289.882 85.1143C289.84 85.8607 289.847 85.8268 289.316 85.8151C289.206 85.8151 288.97 86.1908 288.997 86.3603C289.116 87.1141 288.637 87.7242 288.588 88.6674C288.327 87.1922 288.357 85.9617 288.894 84.2706C288.476 84.8675 288.368 85.0244 288.259 85.1799ZM292.039 108.458C292.833 107.161 293.092 105.679 293.925 104.42C294.394 103.709 294.521 102.782 294.918 102.012C295.382 101.11 296.009 100.294 296.494 99.3987C296.794 98.8461 296.982 98.2227 297.179 97.6229C297.247 97.4115 297.247 97.1971 297.509 97.1293C297.049 99.6876 295.714 101.964 294.702 104.307C294.076 105.744 293.396 107.162 292.784 108.607C292.739 108.713 292.49 108.777 292.336 108.774C292.252 108.777 292.167 108.606 292.039 108.458ZM301.134 99.9816C301.253 98.7923 301.978 97.9155 302.639 96.9974C303.144 96.2974 303.577 95.5487 304.067 94.8392C304.275 94.54 303.212 94.3897 304.076 94.106C302.777 93.854 301.555 93.6175 300.332 93.3787C301.855 93.0855 303.362 93.2358 304.65 94.0817C305.084 94.3661 304.989 95.3726 304.673 95.8236C303.795 97.0777 302.498 98.0098 301.809 99.4363C301.694 99.6743 301.371 99.8106 301.146 99.9919L301.134 99.9816ZM300.33 101.821C300.106 102.851 299.604 103.756 299.11 104.678C298.616 105.601 298.285 106.578 297.868 107.527C297.791 107.648 297.696 107.756 297.587 107.848C297.558 107.747 297.482 107.634 297.506 107.549C297.797 106.454 297.93 105.27 298.456 104.299C298.938 103.415 299.211 102.264 300.317 101.809L300.33 101.821ZM288.906 77.7886C288.817 77.8026 288.645 77.7054 288.464 77.5477C287.752 76.9368 288.197 78.3641 288.212 78.5925C287.7 78.5748 287.014 78.3914 286.906 77.9058C286.797 77.4195 287.265 76.8595 287.8 76.7114C288.362 76.5566 288.689 76.9818 288.871 77.3723C289.007 77.6523 288.996 77.7746 288.906 77.7894V77.7886ZM288.86 71.8615C288.806 71.9639 288.729 72.0309 288.642 72.2041C288.511 72.4657 288.556 72.7987 288.358 73.022C287.795 72.8378 288.175 72.1842 288.236 71.8092C288.281 71.5292 288.057 70.0466 288.538 70.1771C288.951 70.2898 288.941 71.2919 288.923 71.5992C288.921 71.6901 288.9 71.7796 288.86 71.8615ZM277.555 70.4865C277.555 70.7592 277.082 71.1644 276.974 71.356C276.742 71.7776 276.576 72.2324 276.483 72.7044C276.345 73.3646 276.004 74.7786 276.773 75.2244C277.229 75.4853 277.382 75.0933 277.591 74.7912C277.917 74.3225 278.32 74.7042 278.725 74.4544C278.522 74.324 278.086 74.1862 278.464 73.9092C278.746 73.7058 279.191 73.9556 279.397 74.1501C279.737 74.4743 279.887 74.8464 280.357 75.0255C280.802 75.1942 281.295 75.178 281.76 75.1353C282.614 75.0542 283.509 74.7875 283.922 73.9593C284.141 73.5186 284.101 73.1421 284.072 72.6772C284.055 72.4016 284.168 71.8681 284.52 72.1805C284.725 72.3625 284.764 72.6617 284.927 72.8761C285.274 73.3344 285.512 73.6056 285.422 74.2208C285.277 75.2347 285.439 76.3636 285.039 77.3266C284.616 78.3472 284.882 79.4753 284.936 80.5533C285.023 82.3408 285.106 84.2028 285.02 86.0133C284.952 87.4427 284.672 89.0417 283.438 89.9421C283.308 90.0386 283.125 90.1735 282.947 90.1484C282.719 90.1167 282.686 89.8868 282.49 89.8242C281.878 89.6437 281.082 91.1218 280.479 91.3008C279.988 91.4475 279.792 91.1269 279.372 90.9862C278.509 90.6944 277.051 93.1982 276.297 92.0421C275.953 91.5189 276.94 91.0267 277.219 90.6996C277.55 90.3076 278.442 89.8751 278.604 89.3932C278.832 88.7175 277.442 88.9916 277.112 88.716C277.323 88.3697 277.834 88.548 278.158 88.436C278.593 88.2864 278.708 87.8392 278.91 87.4722C279.394 86.5924 280.189 85.9182 280.634 85.0156C280.973 84.3281 281.077 83.4476 281.941 83.2641C282.299 83.1889 282.691 83.1742 282.711 82.6842C282.728 82.2922 282.371 82.1942 282.047 82.1301C281.406 81.9997 280.237 82.0063 279.826 82.6267C280.04 82.7012 280.898 82.6437 280.756 83.0799C280.668 83.3525 280.103 83.3142 279.884 83.3348C278.546 83.4579 277.342 84.2146 275.988 84.2132C275.246 84.2132 274.497 84.0953 273.758 84.0393C273.522 84.0208 272.801 83.956 273.234 83.6591C273.372 83.5633 273.603 83.6406 273.758 83.5662C273.926 83.4608 274.057 83.3061 274.133 83.1234C274.264 82.8765 274.416 82.1942 274.76 82.1434C275.059 82.0999 275.16 82.4108 275.062 82.6179C274.984 82.78 274.621 82.9038 274.827 83.1742C275.219 83.6893 275.703 82.458 275.806 82.2598C275.925 82.5987 276.477 83.2671 276.835 82.8331C276.999 82.6334 276.835 82.29 277.03 82.1132C277.263 81.9032 277.651 82.1448 277.914 82.0712C278.356 81.9511 278.96 81.1029 278.829 80.6343C278.568 79.7391 277.289 80.4066 276.83 80.6822C275.905 81.2422 275.393 80.9991 274.5 80.5334C273.819 80.1753 273.007 80.1649 273.343 79.1665C273.659 78.2897 273.822 77.3657 273.822 76.4343C273.822 75.5354 273.783 74.6364 273.738 73.7382C273.7 72.9542 273.569 72.0619 272.748 71.7259C272.033 71.4319 271.064 71.7259 270.457 71.1747C271.229 70.3672 273.593 71.0701 274.246 71.7598C274.8 72.3478 274.435 73.0235 274.769 73.6505C275.102 74.2783 275.34 73.6837 275.357 73.2895C275.378 72.7781 275.253 72.2645 275.283 71.7546C275.321 71.0473 275.959 70.9559 276.477 70.6398C276.689 70.5094 277.384 70.0091 277.536 70.3959C277.549 70.4245 277.556 70.4557 277.555 70.4873V70.4865Z" fill="#C4C3C6"/>
<path d="M270.354 71.0537C270.223 71.143 270.071 71.1971 269.913 71.2106C269.29 71.2578 268.656 71.148 268.03 71.1753C267.478 71.2003 266.594 71.5673 266.06 71.3322C265.421 71.0522 265.762 70.0354 265.602 69.5026C265.393 68.7953 264.988 68.3075 265.298 67.5596C265.592 66.8463 265.872 66.2532 265.87 65.4588C265.87 64.6365 265.534 63.8614 265.529 63.0464C265.524 62.2307 265.993 61.7039 266.476 61.1122C266.933 60.5507 267.251 59.8891 267.722 59.3401C268.213 58.7691 268.873 58.4139 269.551 58.1214C272.453 56.8835 276.376 56.3441 278.89 58.6961C279.987 59.7247 280.491 61.0761 280.989 62.4584C281.22 63.1549 281.523 63.8249 281.894 64.4575C282.264 65.0521 282.7 65.6062 283.026 66.2281C283.475 67.0895 283.875 68.6052 283.001 69.3641C282.434 69.8541 281.667 69.6338 281.005 69.5446C280.185 69.4363 279.634 69.7215 278.914 70.0678C278.703 70.1695 277.87 70.5902 277.657 70.2608C277.346 69.7657 278.486 69.4466 278.749 69.384C279.454 69.2131 280.839 68.9412 280.919 68.0238C280.972 67.4004 280.395 67.147 279.972 66.8478C279.276 66.3666 279.565 65.8111 279.431 65.0978C279.275 64.429 279.016 63.7885 278.664 63.199C278.302 62.5852 277.606 62.3553 277.214 61.7525C276.431 60.553 275.505 60.1337 274.079 60.1425C272.725 60.1499 271.404 60.452 270.354 61.351C267.856 63.4907 268.003 66.7498 268.308 69.7642C268.359 70.2874 268.507 70.7516 269.115 70.7472C269.464 70.7472 269.878 70.5195 270.226 70.6462C270.573 70.773 270.523 70.9314 270.354 71.0537ZM271.328 74.9862C272.007 75.0577 272.855 75.7297 273.038 76.2786C273.3 77.0508 272.704 78.0161 272.385 78.683C272.066 79.3491 271.326 80.3202 271.779 81.0585C272.051 81.5043 272.544 81.469 272.936 81.7217C273.35 81.9928 273.515 82.4305 273.849 82.7805C272.65 82.6752 271.612 83.1637 270.446 83.188C269.354 83.2101 268.722 82.6228 268.453 83.9816C268.28 84.8481 267.834 86.1811 268.386 86.996C268.8 87.6076 269.741 87.6739 270.363 87.9893C270.763 87.587 270.249 87.5567 270.19 87.2141C270.122 86.8221 270.371 86.4773 270.158 86.1221C269.819 85.5562 268.71 85.7832 268.507 85.0596C268.146 83.7723 270.662 85.1053 271.071 85.403C271.724 85.8745 272.193 86.5207 272.743 87.083C272.925 87.2708 273.122 87.4455 273.33 87.6054C273.873 87.7188 273.873 88.2258 274.177 88.5301C274.988 89.1395 276.006 88.5301 276.921 88.7342C277.146 88.833 277.352 88.97 277.53 89.1395C277.023 89.4438 276.109 89.1395 276.109 89.9507C276.109 90.8659 277.939 91.2697 277.53 91.6757C276.414 92.8922 274.285 92.2836 272.656 91.7494C272.126 91.5313 271.635 91.229 271.202 90.8541C270.965 90.6186 270.758 90.3551 270.586 90.0694C270.402 89.9065 270.21 89.7511 270.001 89.5978C269.779 89.4364 269.552 89.283 269.32 89.138C268.459 88.6038 267.773 87.9893 267.342 87.055C266.472 85.1723 266.689 82.9751 266.227 80.9907C266.053 80.2355 263.954 76.6404 265.418 76.4172C266.261 76.286 269.494 78.5496 269.237 76.0016C269.93 76.2941 270.471 75.1174 271.039 74.9951C271.135 74.9774 271.232 74.9744 271.328 74.9862ZM282.433 96.9507C282.369 97.6832 282.041 98.115 281.482 98.5482C280.554 99.2615 279.335 100.045 278.589 100.95C278.276 101.328 278.147 101.79 277.909 102.21C277.322 103.246 276.517 103.102 275.732 102.361C275.29 101.944 271.532 98.9513 272.698 98.1791C272.991 97.9831 273.55 98.1901 273.861 98.238C274.858 98.3935 275.91 98.5534 276.912 98.3611C278.718 98.0162 279.416 96.1874 280.861 95.259C281.645 94.7572 282.322 94.3195 282.877 93.5532C283.432 92.7876 283.866 91.9203 284.444 91.1599C284.919 90.5402 285.342 89.9065 285.789 89.2699C286.034 88.9214 286.415 88.3997 286.538 89.0665C286.685 89.8505 285.815 90.7561 285.446 91.3728C284.891 92.2804 284.383 93.2163 283.925 94.1765C283.674 94.7144 283.559 95.4262 283.168 95.8757C282.725 96.3915 282.073 95.8948 281.456 96.3134C281.202 96.4858 280.496 97.429 281.029 97.6544C281.302 97.7694 281.813 97.205 282.028 97.0937C282.148 97.0104 282.286 96.9574 282.431 96.9389L282.433 96.9507Z" fill="#C4C3C6"/>
<path d="M275.681 85.8536C275.605 85.868 275.527 85.865 275.453 85.8447C275.145 85.7689 274.893 85.6252 274.571 85.7246C274.482 85.7519 274.388 85.8551 274.302 85.8654C274.215 85.8764 274.121 85.7792 274.04 85.7534C273.902 85.7347 273.763 85.729 273.624 85.7364C273.4 85.7114 273.207 85.5795 272.99 85.5257C272.817 85.5015 272.648 85.4577 272.485 85.3953C272.355 85.3326 272.284 85.2096 272.423 85.1079C272.561 85.0055 272.732 85.0423 272.872 85.0136C273.05 84.9569 273.233 84.9178 273.418 84.8957C273.63 84.8957 273.842 84.9156 274.053 84.9156C274.369 84.9156 274.685 84.9156 275.002 84.9038C275.64 84.8913 276.278 84.8433 276.911 84.7601C277.204 84.7196 277.494 84.6673 277.785 84.6135C278.043 84.5494 278.296 84.4683 278.544 84.3696C278.72 84.3143 279.711 84.3475 279.314 84.7277C279.231 84.7901 279.139 84.8409 279.042 84.8787C278.936 84.9355 278.843 85.0099 278.74 85.0711C278.61 85.1418 278.527 85.1064 278.402 85.1418C278.278 85.1772 278.155 85.2567 278.026 85.2965C277.544 85.4358 277.043 85.634 276.533 85.6045C276.34 85.5846 276.146 85.6305 275.983 85.735C275.89 85.7916 275.788 85.8317 275.681 85.8536ZM282.469 96.9364C282.229 97.1111 281.981 97.2791 281.75 97.4596C281.469 97.6851 281.185 98.3099 280.835 97.828C280.484 97.3454 280.634 96.4892 281.181 96.291C281.562 96.1524 282.213 94.9374 282.707 96.249L282.469 96.9364Z" fill="white"/>
<path d="M282.725 71.7256C282.443 71.9688 281.941 71.8089 281.615 71.7543C281.209 71.7044 280.799 71.7022 280.393 71.7477C280.216 71.758 279.32 71.7971 279.335 71.4707C279.352 71.1111 280.834 71.0006 281.101 70.9858C281.435 70.9504 281.772 70.9866 282.091 71.0919C282.171 71.1243 282.884 71.5834 282.725 71.7256ZM267.251 73.5751C267.035 73.6311 266.84 73.6075 266.772 73.3135C266.642 72.7358 267.556 72.6275 267.935 72.5722C268.088 72.5501 269.908 72.5855 269.848 72.6901C269.456 73.3658 268.411 73.1986 267.764 73.3879C267.62 73.4284 267.428 73.5279 267.251 73.5751ZM261.464 80.5368C261.48 80.1868 261.595 79.8559 261.681 79.8692C262.267 79.9569 262.204 80.6414 262.382 81.0717C262.504 81.3517 262.169 81.3156 261.98 81.3326C261.557 81.3694 261.446 80.9391 261.464 80.5368ZM287.789 74.2766C287.85 74.544 287.776 74.7872 287.46 74.7769C286.87 74.7562 286.361 73.4704 287.223 73.6009C287.475 73.6451 287.714 73.9767 287.789 74.2766ZM281.706 73.6834V73.6908C281.706 73.8728 281.645 74.1181 281.489 74.2316C281.399 74.3001 280.782 74.3141 280.845 74.155C280.986 73.7917 281.704 72.7476 281.706 73.6834ZM261.706 78.4095C261.499 78.3719 261.146 78.492 261.217 78.1103C261.262 77.9668 261.345 77.8378 261.457 77.7368C261.615 77.5599 261.587 77.5835 261.771 77.6277C262.033 77.6896 262.25 77.8075 262.211 78.1037C262.171 78.4007 261.953 78.394 261.705 78.4095H261.706ZM269.202 75.9448C269.113 75.5815 268.192 75.6331 268.089 75.2116C268.004 74.8682 268.351 74.9154 268.553 75.0421C268.869 75.2566 269.099 75.5763 269.202 75.9448Z" fill="#C4C3C6"/>
<path d="M271.327 75.0459C271.158 75.2183 270.787 75.225 270.565 75.2279C270.818 75.0783 270.583 74.718 270.695 74.5036C270.879 74.1624 271.376 74.4645 271.411 74.7652C271.42 74.8153 271.417 74.8668 271.403 74.9155C271.388 74.9643 271.362 75.0089 271.327 75.0459Z" fill="white"/>
<path d="M279.352 84.6853C279.272 84.6426 279.241 84.5202 279.142 84.4753C279.062 84.4458 278.977 84.4359 278.893 84.4466C278.717 84.4613 278.49 84.5593 278.324 84.4635C278.241 84.4171 278.648 84.1585 278.697 84.1474C278.933 84.1002 279.168 84.2012 279.403 84.1879C279.574 84.1791 279.77 84.2218 279.739 84.4495C279.719 84.5947 279.505 84.7641 279.352 84.6853ZM273.072 84.9064C273.095 85.4634 272.49 85.0125 272.372 85.3462C271.966 85.1915 271.792 85.0287 272.381 84.9137C272.61 84.8894 272.842 84.8872 273.072 84.9064H273.072Z" fill="#C4C3C6"/>
<path d="M279.328 74.0314L278.314 74.0461C278.274 73.6423 278.667 73.7735 278.837 73.6254C278.849 73.6109 278.863 73.5995 278.88 73.5919C278.896 73.5844 278.915 73.5811 278.933 73.5823C278.951 73.5834 278.969 73.589 278.984 73.5986C279 73.6082 279.012 73.6214 279.022 73.6372L279.328 74.0314Z" fill="white"/>
<path d="M269.649 73.652C269.572 73.656 269.496 73.6415 269.426 73.6097C269.356 73.5779 269.294 73.5297 269.247 73.4692C269.369 73.3768 269.521 73.3342 269.673 73.3499C269.754 73.3617 270.003 73.5171 270.077 73.4604C269.956 73.5655 269.808 73.6322 269.649 73.652ZM279.019 73.6365L278.835 73.6247L278.911 73.3631L279.019 73.6358V73.6365Z" fill="#C4C3C6"/>
<path d="M270.283 71.155C269.76 70.5825 269.08 70.9538 268.478 70.8934C268.066 70.8507 267.9 70.7947 267.908 70.3526C267.935 68.6541 268.019 66.941 267.89 65.2381C267.778 63.777 268.667 62.9591 269.45 61.8899C270.326 60.6918 271.608 60.1355 273.101 60.0478C274.052 59.9918 275.144 59.8253 276.051 60.1967C277.836 60.9269 278.461 62.7498 279.564 64.1093C280.17 64.8579 279.172 66.647 280.557 66.7634C281.269 66.8231 281.424 67.7213 281.256 68.2739C281.023 69.0366 280.163 69.3689 279.416 69.475C278.946 69.5413 278.542 69.7815 278.17 70.0645C278.013 70.2092 277.837 70.3326 277.647 70.4314C277.43 70.5213 277.185 70.5213 276.962 70.5891C275.655 70.9811 275.301 72.1512 275.493 73.4053C275.539 73.6993 275.773 74.2755 275.224 74.3094C274.998 74.3241 274.512 73.742 274.521 73.4444C274.601 71.1498 272.9 71.2677 271.332 71.1822C270.987 71.1601 270.637 71.1631 270.283 71.155ZM276.278 91.4778C276.044 91.4051 275.831 91.2772 275.658 91.105C275.338 90.8191 274.977 90.5369 275.173 90.083C275.531 89.2548 276.184 89.1133 276.972 88.907C277.43 88.7847 278.53 88.4236 278.826 89.0116C279.218 89.7956 277.979 90.1265 277.616 90.5605C277.142 91.1205 276.803 91.6082 276.278 91.4778ZM275.719 80.4377C275.106 80.4591 274.521 80.1946 274.641 79.555C274.714 79.1645 274.846 78.7865 275.033 78.4365C275.262 78.0179 275.378 77.9472 275.805 78.1631C276.367 78.4475 277.192 79.0841 276.925 79.8158C276.785 80.1953 276.243 80.4208 275.719 80.4377ZM284.19 85.183C284.183 85.477 284.003 86.1925 283.856 86.4128C283.628 86.7547 283.295 86.7392 282.997 86.5027C282.595 86.1799 282.59 85.6273 282.691 85.1609C282.774 84.7829 283.094 84.2081 283.523 84.1271C283.888 84.0593 284.175 84.7807 284.19 85.141V85.183ZM280.915 77.6075C280.915 78.1159 280.798 78.3606 281.21 78.7224C281.435 78.9213 282.046 79.3221 281.471 79.513C281.11 79.6331 280.548 79.2404 280.263 79.048C279.84 78.7614 279.371 78.2338 279.631 77.6849C279.771 77.3894 280.307 77.007 280.65 77.147C280.865 77.2354 280.912 77.4078 280.915 77.6075Z" fill="white"/>
<path d="M277.868 79.0736C277.566 78.6175 277.057 78.1422 276.917 77.4024C276.838 76.9839 277.116 76.4873 276.656 76.1454C276.628 76.124 276.693 75.9759 276.715 75.8838C276.832 75.9273 276.986 75.9391 277.061 76.0223C277.171 76.1734 277.267 76.3347 277.347 76.5042C277.719 77.1497 278.115 77.7841 278.454 78.4465C278.615 78.7811 278.653 79.1451 277.868 79.0728V79.0736Z" fill="black"/>
<path d="M270.393 78.5515C270.701 78.5368 270.988 78.5802 271.118 78.7446C271.393 79.0975 271.035 79.7172 270.878 80.0517C270.46 80.9205 269.805 81.8806 268.836 82.1827C268.507 81.5527 268.19 81.0258 268.371 80.2993C268.527 79.6826 268.763 78.9722 269.416 78.7431C269.732 78.6377 270.06 78.5736 270.393 78.5515ZM268.454 84.5244C268.671 84.6658 268.763 85.0401 268.923 85.2244C269.249 85.6053 269.82 85.536 270.169 85.8779C270.43 86.1395 270.243 86.3746 270.289 86.6936C270.344 87.0672 271.015 87.6928 270.513 88.0516C270.152 88.3125 268.945 87.8033 268.597 87.6029C267.912 87.2109 267.694 86.222 267.705 85.4837C267.705 85.1617 267.765 84.5818 268.149 84.4787C268.2 84.4629 268.254 84.4589 268.306 84.4668C268.359 84.4747 268.409 84.4944 268.453 84.5244H268.454Z" fill="white"/>
</g>
<rect x="249" y="51" width="52" height="52" rx="26" stroke="black" stroke-width="4"/>
<g clip-path="url(#clip1_6035_296170)">
<path d="M112 33C112 10.9084 129.908 -7 152 -7C174.092 -7 192 10.9084 192 33C192 55.0916 174.092 73 152 73C129.908 73 112 55.0916 112 33Z" fill="#FF3861"/>
<path d="M182.519 75.6505C182.035 75.5179 181.56 75.2326 181.084 75.3274C178.138 75.7074 175.382 76.2779 172.436 76.0874H161.039C160.913 76.0735 160.785 76.0735 160.659 76.0874H120.734C120.369 76.0874 120.012 75.9821 119.705 75.7853C118.291 74.8805 116.945 73.874 115.678 72.7737C115.642 72.7441 115.609 72.7125 115.577 72.6789C114.596 71.6957 113.702 70.63 112.903 69.4937C112.861 69.433 112.822 69.3697 112.787 69.3042C112.639 69.0289 112.499 68.7495 112.366 68.4663L112.337 68.4L112.284 68.2863C112.107 67.9011 111.955 67.5389 111.821 67.1832C111.789 67.0961 111.763 67.0067 111.744 66.9158C111.668 66.5568 111.604 66.1951 111.554 65.8316C111.457 65.4543 111.399 65.0681 111.382 64.6789C111.344 63.6263 111.645 62.5905 112.237 61.7211C112.34 61.4663 112.443 61.2263 112.549 60.9926C112.584 60.919 112.623 60.8474 112.665 60.7779C113.153 59.999 113.694 59.2537 114.286 58.5505C114.326 58.504 114.368 58.4594 114.413 58.4168C114.655 58.179 114.918 57.9337 115.215 57.6663C115.333 57.56 115.463 57.4684 115.604 57.3947L115.688 57.3495L115.768 57.3074L115.8 57.2895C116.871 56.7128 117.922 56.1005 118.952 55.4537C119.101 55.3611 119.263 55.2895 119.433 55.2411C119.485 55.2263 119.536 55.2062 119.584 55.1811C120.12 54.8842 120.637 54.5537 121.131 54.1916C121.331 54.0516 121.529 53.9126 121.732 53.7758C121.78 53.7411 121.829 53.7095 121.88 53.6811C121.944 53.6442 122.011 53.6095 122.076 53.5758L122.139 53.5421C122.265 53.4768 122.391 53.4105 122.52 53.3463C122.749 53.2305 122.981 53.1189 123.211 53.0053C123.4 52.9105 123.598 52.8158 123.788 52.7211L124.016 52.6095L124.066 52.5853L124.102 52.5674L124.215 52.5126L124.309 52.4684L124.466 52.3926L124.54 52.3589C125.086 52.1018 125.637 51.8561 126.193 51.6221C127.114 51.2347 128.045 50.8926 128.949 50.5611C129.672 50.2996 130.391 50.0273 131.106 49.7442C131.485 49.5895 131.875 49.4495 132.246 49.3147C133.568 48.839 134.709 48.4232 135.324 47.5674C136.038 46.5768 135.577 44.7653 135.172 43.1674C135.102 42.8964 135.034 42.6248 134.969 42.3526C134.812 41.6874 134.589 41.4537 134.399 41.3168C134.382 41.3044 134.364 41.2928 134.346 41.2821C134.307 41.2568 134.269 41.2326 134.234 41.2063C134.148 41.145 134.055 41.0954 133.956 41.0589L133.646 40.9463C133.278 40.8137 132.897 40.6768 132.505 40.5042C132.4 40.4581 132.299 40.4028 132.203 40.3389C131.985 40.1914 131.774 40.033 131.572 39.8642C131.52 39.8216 131.471 39.7759 131.424 39.7274C131.16 39.4526 130.898 39.1568 130.649 38.8432C130.457 38.6007 130.326 38.3149 130.269 38.0105C130.102 37.1295 129.774 36.2611 129.473 35.5284C129.426 35.4133 129.391 35.2937 129.367 35.1716C129.222 34.4075 129.091 33.6407 128.975 32.8716L128.859 32.1421C128.575 30.3745 128.387 28.593 128.295 26.8053V26.7632C128.283 26.6445 128.283 26.525 128.295 26.4063L128.318 26.1789C128.358 25.7979 128.4 25.4 128.455 25C128.511 24.5849 128.703 24.2001 129 23.9052C129.298 23.6104 129.684 23.422 130.1 23.3695C130.351 23.3474 130.588 23.2526 130.785 23.0979C131.035 22.8937 131.242 22.5 131.256 22.2968V22.2021C131.256 22.0126 131.283 21.8232 131.339 21.6421C131.42 21.3705 131.458 21.0874 131.453 20.8042C131.453 20.5189 131.414 20.2147 131.377 19.8884C131.349 19.6358 131.321 19.3779 131.301 19.1021C131.301 19.0516 131.296 19 131.296 18.9484C131.296 18.7589 131.301 18.5684 131.304 18.3832L131.311 18.0095C131.311 17.8842 131.325 17.7611 131.351 17.6389C131.434 17.2747 131.482 16.9032 131.496 16.5305C131.502 16.3337 131.502 16.1305 131.503 15.9158C131.503 15.5547 131.503 15.1832 131.529 14.7895C131.594 13.7568 131.683 12.5537 131.919 11.3516C131.931 11.2926 131.945 11.2347 131.962 11.1768C132.164 10.5019 132.428 9.84693 132.749 9.22L132.818 9.09579L132.923 8.90632C133.013 8.75158 133.093 8.59369 133.163 8.43053C133.222 8.29158 133.297 8.15895 133.386 8.03684C133.505 7.87474 133.632 7.7 133.741 7.53158L133.883 7.31263C134.206 6.78947 134.561 6.28632 134.946 5.80632C134.988 5.75368 135.036 5.70421 135.084 5.65684C135.578 5.17368 136.087 4.73579 136.579 4.31053C136.775 4.14211 136.972 3.97263 137.165 3.80105C137.241 3.73579 137.315 3.66947 137.388 3.60316C137.739 3.27789 138.109 2.97474 138.497 2.69474C138.747 2.52 138.992 2.36211 139.229 2.21053C139.44 2.07579 139.637 1.94947 139.82 1.8221C139.843 1.79973 139.864 1.77581 139.883 1.75053C140.109 1.45789 140.417 1.23789 140.767 1.11684C141.075 1.01158 141.304 0.927368 141.511 0.847368C142.416 0.489474 143.283 -0.103158 144.201 -0.729474L144.599 -0.998947C144.673 -1.04842 144.748 -1.09263 144.827 -1.13158C145.093 -1.26 145.364 -1.37579 145.641 -1.47579C145.708 -1.5 145.776 -1.52105 145.845 -1.53684C146.923 -1.79281 148.023 -1.94786 149.129 -2H149.24C150.219 -1.99263 151.193 -1.91895 152.098 -1.84211C152.337 -1.82105 152.582 -1.80632 152.842 -1.78947C153.526 -1.75579 154.207 -1.68526 154.884 -1.57684C154.96 -1.56316 155.035 -1.54526 155.107 -1.52316C156.3 -1.15895 157.346 -0.638947 158.494 -0.0473683C159.009 0.218947 159.539 0.463158 160.098 0.721053C160.534 0.921053 160.982 1.12842 161.428 1.34842C161.482 1.37474 161.534 1.40316 161.584 1.43263C162.099 1.75158 162.582 2.11684 163.028 2.52737L163.043 2.54C163.614 3.08298 164.215 3.59394 164.842 4.07053C165.399 4.48421 165.993 4.93368 166.56 5.42632C166.599 5.46 166.636 5.49579 166.673 5.53368C166.983 5.84947 167.273 6.18632 167.538 6.54211C167.604 6.63158 167.663 6.72737 167.713 6.82632L167.824 7.04421C167.889 7.17664 167.949 7.31185 168.002 7.44947C168.071 7.60478 168.179 7.73964 168.316 7.84105C168.411 7.91579 168.498 7.99895 168.577 8.09158L168.774 8.32316C168.885 8.46 168.977 8.61053 169.047 8.77158C169.077 8.83684 169.113 8.89895 169.156 8.95579C169.239 9.06842 169.308 9.18947 169.365 9.31684C169.649 9.95684 169.9 10.6116 170.116 11.2789C170.126 11.3137 170.137 11.3474 170.145 11.3821C170.457 12.5301 170.635 13.7102 170.676 14.8989V14.9147C170.687 15.2621 170.707 15.6063 170.728 15.9716V16.0189C170.753 16.1358 170.765 16.2547 170.767 16.3747L170.773 16.6021C170.783 16.9874 170.806 17.3768 170.833 17.7895L170.852 18.0916C170.857 18.1916 170.855 18.2926 170.845 18.3937V18.4295C170.8 18.9095 170.836 19.3947 170.951 19.8632C171.043 20.2063 171.038 20.5684 170.935 20.9084C170.909 20.9947 170.893 21.0832 170.883 21.1716C171.137 21.2444 171.386 21.3341 171.628 21.44C171.689 21.4611 171.751 21.4874 171.811 21.5158C172.374 21.783 172.876 22.1635 173.286 22.6337L173.314 22.6653C173.446 22.8179 173.554 22.9916 173.632 23.1779L173.649 23.22C173.902 23.8326 174.002 24.42 174.092 24.9358V24.9495C174.131 25.1747 174.127 25.4063 174.084 25.6316L174.063 25.7484C174.037 26.3811 173.974 27.0116 173.874 27.6368C173.811 28.0684 173.751 28.4768 173.735 28.8032L173.713 29.3242C173.648 30.8263 173.576 32.5274 173 34.1642C172.835 34.613 172.627 35.0445 172.378 35.4526C172.283 35.6632 172.188 35.8684 172.087 36.0642C172.063 36.1149 172.036 36.1644 172.006 36.2126C171.95 36.3044 171.891 36.395 171.831 36.4842C171.611 36.8079 171.297 37.056 170.932 37.1947C170.588 37.4895 170.205 37.7316 169.792 37.9168C169.423 38.08 169.024 38.1642 168.622 38.1642C168.299 38.1626 167.979 38.1115 167.672 38.0126C167.64 38.12 167.608 38.2305 167.568 38.3432C167.537 38.4379 167.505 38.5263 167.48 38.6063C167.458 38.7242 167.433 38.8453 167.406 38.9674C167.396 39.0589 167.377 39.1505 167.354 39.2389C167.34 39.2863 167.329 39.3337 167.318 39.379L167.299 39.4537C166.878 41.4147 166.734 43.4221 166.836 45.9179C166.878 46.0758 166.902 46.24 166.904 46.4042C166.901 46.5319 166.927 46.6585 166.98 46.7747C167.206 47.2284 167.485 47.4695 167.584 47.4958C169.034 47.9 170.34 48.5211 171.594 49.1211C171.902 49.2684 172.222 49.4211 172.532 49.5642C172.904 49.7368 173.324 49.9116 173.854 50.12L174.76 50.4674C175.076 50.5863 175.392 50.7053 175.705 50.8274L175.823 50.8737L176.203 51.0263L176.361 51.0905L176.732 51.2484L176.887 51.3158C177.077 51.4 177.249 51.4768 177.407 51.5516L178.167 51.9126L179.214 52.4074C181.715 53.5842 184.3 54.8021 186.803 56.1137L186.862 56.1453C188.069 56.841 189.243 57.5913 190.381 58.3937C192.104 59.8337 194.101 61.2589 194.942 63.4516C195.024 63.7379 195.076 64.0305 195.098 64.3284C195.116 64.5505 195.123 64.7747 195.12 65C195.118 65.2258 195.104 65.4514 195.078 65.6758C194.175 67.5347 193.217 69.7979 191.876 71.6084C191.673 71.8702 191.458 72.1214 191.229 72.3611C189.107 74.3463 186.202 74.9274 183.451 75.4737L182.515 75.6505H182.52H182.519Z" fill="black"/>
<path d="M189.463 62.2371C188.894 61.4813 188.294 60.7592 187.458 60.275C187.374 60.2266 187.33 60.1297 187.252 60.0855C186.81 59.8003 186.539 59.3066 186.056 59.0908C185.606 58.8908 185.335 58.4792 184.916 58.236C184.636 58.0729 184.409 57.7887 184.06 57.7024C183.42 57.4824 183.431 56.7371 182.54 56.6739C181.72 56.6571 181.494 55.8413 180.847 55.8276C180.103 55.8455 180.356 54.9234 179.376 54.7982C177.929 54.5013 176.66 53.7876 175.289 53.2718C175.036 53.1876 174.798 53.0613 174.529 53.0434C174.441 53.0414 174.355 53.0195 174.277 52.9794C174.199 52.9393 174.132 52.882 174.079 52.8118C173.879 52.5662 173.664 52.3325 173.437 52.1118C173.41 52.0834 173.369 52.0518 173.342 52.0171C172.73 51.787 172.126 51.5371 171.53 51.2676C169.998 50.5603 168.5 49.7603 166.872 49.3055C166.059 49.0792 165.44 48.3266 165.079 47.6024C164.897 47.2303 164.803 46.8217 164.802 46.4076C164.717 46.2 164.664 45.9807 164.644 45.7571C164.604 45.2093 164.585 44.6601 164.587 44.1108C164.529 44.7424 164.479 45.3761 164.551 46.0118C164.638 46.7676 164.645 47.5245 164.699 48.2803C164.738 48.8508 165.073 49.3066 165.162 49.8497C165.382 50.6108 167.583 50.0108 169.44 51.3761C169.506 51.4203 169.609 51.4708 169.592 51.5413C169.565 51.6571 169.469 51.5697 169.402 51.5592C169.186 51.5276 168.926 51.4203 168.799 51.6645C168.641 51.9718 168.975 52.1276 169.146 52.3171C171.019 53.9329 169.709 56.4318 169.203 58.3929C168.489 60.7866 167.26 62.9476 165.958 65.0603C164.372 67.9529 162.805 70.8592 160.929 73.5792C160.819 73.7529 160.611 73.9318 160.838 74.1655H175.379C176.037 73.86 176.682 73.5275 177.312 73.1687C177.525 73.0266 177.737 72.8813 177.944 72.7318C178.874 72.0582 179.858 71.7371 180.986 71.7897C181.165 71.6718 181.344 71.5518 181.523 71.435C182.934 70.5118 184.337 69.5645 185.641 68.4971C184.552 68.4245 183.463 68.3603 182.372 68.2508C180.111 67.7529 177.789 67.8045 175.509 67.395C173.666 67.1392 171.809 66.7624 169.938 66.8066C169.558 66.8287 169.485 66.7361 169.606 66.375C169.778 65.8634 170.091 65.415 170.272 64.9118C170.629 64.1371 171.667 64.3255 172.357 64.3676C172.796 64.4055 173.213 64.6171 173.652 64.6034C174.532 64.575 175.373 64.8192 176.212 64.9834C177.481 65.2361 178.77 65.2466 180.043 65.4361C181.049 65.5855 182.062 65.755 183.085 65.7876C184.043 65.8192 184.986 66.0087 185.95 66.0424C186.562 66.0666 187.171 66.1403 187.771 66.2634L187.891 66.2866C188.285 65.7834 188.649 65.255 188.976 64.7066C189.311 64.0066 189.584 63.2876 189.867 62.5697C189.707 62.4949 189.568 62.3804 189.463 62.2371ZM171.207 31.6182C171.151 32.2034 171.06 32.7866 170.934 33.3613C171.012 33.1371 171.081 32.9129 171.146 32.6876C171.386 31.5224 171.491 30.3445 171.567 29.1592C171.42 30.0013 171.264 30.835 171.207 31.6182ZM165.549 37.6971C165.752 37.1076 165.799 36.4781 166.058 35.9055C166.108 35.7863 166.191 35.684 166.298 35.6109C166.404 35.5377 166.53 35.4967 166.659 35.4929C166.393 35.3982 166.19 35.5687 166.01 36.0045C165.648 36.8798 165.377 37.7898 165.2 38.7203C165.007 39.5666 164.863 40.4245 164.769 41.2876C164.892 40.4213 165.069 39.5645 165.296 38.7203C165.318 38.3729 165.433 38.0413 165.549 37.6971ZM168.011 36.2803L168.167 36.2171C167.899 36.202 167.637 36.1303 167.399 36.0066C167.581 36.1392 167.789 36.2329 168.01 36.2803H168.011ZM171.647 23.8771L171.639 23.8687C171.397 23.5858 171.097 23.3573 170.76 23.1982C171.497 24.035 171.792 24.9982 171.855 26.015C171.894 25.7561 171.94 25.496 171.99 25.2382C171.913 24.7887 171.835 24.3329 171.661 23.9076C171.656 23.8975 171.652 23.8874 171.647 23.8771ZM169.934 22.9276C169.295 22.7982 168.839 22.5718 168.844 21.8824C168.684 21.3897 168.754 20.7782 168.891 20.3245C168.716 19.6372 168.661 18.9251 168.727 18.2192V18.1708C168.692 17.5739 168.649 16.9782 168.641 16.3771L168.658 17.2139C168.633 16.4539 168.574 15.7045 168.546 14.9476V14.9971C168.512 13.9271 168.353 12.8648 168.072 11.8318C167.876 11.2278 167.648 10.6344 167.391 10.0539C167.267 9.88229 167.162 9.69728 167.079 9.50237C167.025 9.43605 166.969 9.37079 166.913 9.30552C166.513 8.99726 166.201 8.58873 166.01 8.12132C165.98 8.04734 165.949 7.97432 165.915 7.90237C165.881 7.82974 165.827 7.735 165.785 7.65079C165.57 7.36357 165.336 7.09103 165.084 6.835C164.566 6.39407 164.032 5.97272 163.482 5.57184C162.797 5.05369 162.142 4.49737 161.519 3.90553C161.162 3.57686 160.774 3.28291 160.361 3.02763C159.379 2.54342 158.365 2.11921 157.393 1.6171C156.399 1.10342 155.398 0.597105 154.324 0.269737C153.462 0.117105 152.574 0.100263 151.706 0.0255259C150.805 -0.0592893 149.901 -0.109501 148.996 -0.125C148.006 -0.0807895 147.024 0.0560523 146.059 0.281315C145.846 0.358158 145.638 0.446579 145.435 0.545526C144.325 1.29395 143.232 2.08763 141.979 2.58237C141.705 2.68974 141.432 2.78763 141.155 2.88237C141.02 3.05921 140.86 3.215 140.68 3.34447C140.244 3.64763 139.785 3.915 139.349 4.22026C138.931 4.51289 138.567 4.85921 138.185 5.195C137.513 5.78868 136.817 6.3571 136.175 6.98447C135.773 7.47184 135.446 7.99921 135.099 8.535C134.966 8.73816 134.825 8.935 134.681 9.13079C134.582 9.36299 134.469 9.58933 134.344 9.80868L134.172 10.1182C133.921 10.6228 133.715 11.1483 133.555 11.6887C133.347 12.7339 133.264 13.8076 133.197 14.8761C133.163 15.4361 133.183 15.995 133.167 16.5539C133.15 17.0417 133.088 17.5269 132.982 18.0034C132.977 18.315 132.971 18.6255 132.967 18.9361C133.011 19.5382 133.114 20.1287 133.125 20.7361C133.134 21.2182 133.067 21.6992 132.927 22.1613C132.927 22.2392 132.926 22.3182 132.922 22.3961C132.87 23.1845 132.362 24.0445 131.762 24.5382C131.288 24.9209 130.713 25.1602 130.107 25.2276C130.046 25.6761 130.002 26.1276 129.953 26.5792C129.953 26.5982 129.958 26.6182 129.959 26.6382C130.047 28.3708 130.229 30.0982 130.503 31.8108C130.663 32.8003 130.807 33.795 130.999 34.7792C131.38 35.7003 131.717 36.636 131.904 37.6308C132.113 37.8897 132.331 38.1403 132.563 38.3803C132.715 38.5087 132.874 38.6287 133.038 38.7403C133.477 38.9297 133.933 39.0855 134.384 39.2518C134.647 39.3487 134.896 39.4803 135.122 39.6445C135.177 39.6782 135.23 39.7129 135.28 39.7497C136.017 40.2782 136.387 41.0339 136.591 41.8918C137.091 44.0013 138.038 46.7129 136.64 48.655C135.446 50.315 133.37 50.7655 131.585 51.4845C129.971 52.1371 128.312 52.6771 126.701 53.3529C126.031 53.6339 125.369 53.9339 124.714 54.2529C124.756 54.2634 124.794 54.2897 124.818 54.3266C124.94 54.516 124.153 54.8771 123.95 54.9476C123.596 55.0803 123.229 55.1929 122.953 55.476C122.582 55.8455 122.124 56.1168 121.622 56.2655C120.869 56.5024 120.422 57.3603 119.531 57.2024L119.483 57.195L119.092 57.435C118.87 57.8245 118.418 57.916 118.09 58.1539C117.615 58.5024 117.086 58.876 116.492 58.9466L116.437 58.9571L116.262 59.0518C116.009 59.2813 115.757 59.5129 115.513 59.7529C114.976 60.3845 114.487 61.0529 114.047 61.755C113.759 62.3855 113.512 63.0329 113.306 63.6939C113.231 64.1466 113.18 64.6034 113.154 65.0624C113.154 65.075 113.154 65.0876 113.158 65.1003C114.679 64.7055 116.32 64.736 117.872 64.6255C119.746 64.4908 121.629 64.4613 123.502 64.2897C125.123 64.1424 126.747 63.9739 128.377 63.9455C129.356 63.9276 130.312 64.0066 131.281 63.8434C132.034 63.7161 132.761 63.6118 133.361 64.1929C133.704 64.5255 134.417 65.6771 134.193 66.1676C133.991 66.6108 133.544 66.1066 133.219 66.0287C132.599 65.8792 131.864 66.275 131.244 66.3582C129.838 66.5476 128.381 66.3245 126.967 66.4224C125.922 66.4939 124.877 66.4834 123.844 66.6129C122.825 66.7403 121.817 66.9571 120.79 67.0108C119.743 67.0655 118.707 66.956 117.665 66.9761C116.865 66.9908 116.097 67.2308 115.306 67.3297C114.766 67.3971 114.227 67.2634 113.691 67.2539C113.859 67.6329 114.042 68.0139 114.241 68.3845C114.977 69.4318 115.801 70.4129 116.706 71.3171C117.904 72.357 119.177 73.3083 120.513 74.1634H143.426C143.558 74.0224 143.521 73.8687 143.437 73.7318C143.052 73.0929 142.7 72.4339 142.252 71.8308C142.117 71.7234 141.972 71.6224 141.966 71.4245C141.915 71.2079 141.804 71.0101 141.645 70.8539C141.49 70.7424 141.345 70.6203 141.306 70.4171C141.3 70.2003 141.104 70.0855 141.033 69.8982C140.993 69.7434 140.851 69.6476 140.815 69.4918C140.78 69.3958 140.727 69.307 140.66 69.2297C140.569 69.1601 140.495 69.0696 140.445 68.9658C140.396 68.862 140.372 68.7479 140.375 68.6329C140.365 68.5414 140.332 68.4538 140.28 68.3782C139.505 67.3729 139.212 66.0971 138.613 64.9876C137.077 62.1087 135.943 59.0508 134.889 55.9729C134.794 55.7066 134.738 55.3939 134.499 55.2276C133.873 54.7066 133.822 53.6803 133.619 52.9329C133.422 51.8876 133.778 51.3339 134.833 51.0434C135.749 50.8329 135.506 50.0645 136.734 50.0339C137.14 49.9918 137.442 49.8624 137.456 49.3897C137.46 49.3096 137.491 49.2333 137.545 49.1739C137.812 48.8634 137.856 48.4897 137.84 48.1024C137.796 46.9203 137.84 45.7371 137.745 44.5508C137.682 43.7329 137.609 42.9687 137.271 42.2203C136.712 40.9929 136.45 39.6729 136.13 38.3708C135.979 37.7539 135.701 37.6245 135.124 37.8476C133.661 38.4182 132.413 37.2455 132.543 35.7445C132.338 34.6855 132.045 33.6529 132.035 32.5455C132.024 31.4382 131.5 30.3876 131.39 29.2634C131.326 28.0276 130.453 24.5003 132.774 25.2255C133.059 25.3413 133.384 25.2571 133.5 24.9697C133.358 25.5045 133.493 25.9803 133.799 26.4329C133.907 26.6087 134.036 26.7487 134.256 26.6855C134.453 26.6297 134.495 26.4518 134.5 26.2687C134.484 24.6571 134.546 23.0476 134.447 21.435C134.387 20.5803 134.57 19.7192 134.667 18.8613C134.741 18.2203 134.815 17.5518 134.2 17.075C134.08 16.9803 134.072 16.8329 134.084 16.6824C134.152 15.895 134.266 15.1118 134.232 14.3182C134.218 14.2234 134.235 14.1269 134.28 14.0424C134.587 13.5687 134.84 13.0613 135.035 12.5308C135.162 12.1982 135.304 11.8929 135.254 11.5382C135.234 11.4365 135.245 11.3312 135.287 11.2363C135.328 11.1415 135.398 11.0616 135.486 11.0076C135.64 10.9072 135.763 10.7673 135.844 10.6026C135.924 10.4379 135.959 10.2546 135.944 10.0718C135.944 9.94658 135.916 9.75605 136.002 9.70868C136.553 9.40553 136.587 8.84553 136.811 8.34763C137.095 7.71921 137.63 7.20763 138.135 6.6971C138.425 6.40447 138.671 6.41184 138.961 6.61395C139.123 6.72658 139.297 6.85816 139.481 6.78342C139.816 6.64658 140.093 6.52447 140.279 6.99079C140.336 7.13079 140.554 7.11395 140.717 7.08553C141.113 6.935 141.643 7.16868 141.881 6.71921C142.197 6.26974 142.837 6.735 142.98 5.92974C143.033 5.58447 143.257 5.39605 143.533 5.27605C143.979 5.08658 144.33 4.77079 144.685 4.455C144.679 4.55605 144.579 4.57711 144.527 4.63921C144.362 4.8371 144.264 5.05395 144.433 5.28553C144.76 5.95079 146.847 4.12026 147.229 3.80447C147.625 3.43921 147.804 3.4971 148.04 3.98132C148.456 4.85395 149.251 3.90342 149.461 3.37079C149.504 3.26078 149.574 3.16362 149.665 3.08874C149.756 3.01386 149.865 2.9638 149.981 2.94342C149.95 3.00026 149.886 3.00237 149.834 3.02447C149.571 3.15079 149.434 3.37816 149.341 3.6371C149.146 4.035 149.636 4.50342 150.001 4.21921C150.495 3.8771 150.919 4.10237 151.373 4.32447C152.004 4.55711 152.424 4.21921 152.941 4.91816C153.046 5.01701 153.176 5.08505 153.316 5.11477C153.457 5.14449 153.603 5.13473 153.739 5.08658C154.281 4.90974 154.853 4.90868 155.407 4.80026C156.234 4.72974 156.189 4.04553 156.564 4.22974C156.867 4.42974 156.345 4.91605 156.812 5.15184C157.246 5.35289 158.001 4.90658 157.939 4.40447C157.963 4.42202 157.983 4.4449 157.997 4.47136C158.011 4.49782 158.019 4.52716 158.02 4.55711C158.086 4.92342 158.319 5.1371 158.652 5.26658C159.202 5.43605 159.52 6.18974 160.172 5.98447C160.456 5.87921 160.582 6.00342 160.687 6.23184C160.833 6.54342 161.093 6.72237 161.37 6.92447C161.994 7.37816 162.683 7.81289 162.763 8.71079C162.771 8.79115 162.801 8.86777 162.85 8.93221C162.898 8.99665 162.964 9.04643 163.039 9.07605C163.397 9.21289 163.642 9.46658 163.866 9.76132C164.016 9.9571 164.239 10.0382 164.481 10.0908C164.923 10.1855 165.111 10.5961 164.9 10.9866C164.7 11.3329 164.301 11.9518 164.855 12.1708C165.442 12.3939 165.48 12.9434 165.595 13.4203C165.647 13.6392 165.703 13.9287 165.53 14.155C165.222 14.5518 165.299 14.9087 165.607 15.2676C167.184 17.135 164.61 15.875 165.254 17.3666C165.472 17.9139 165.896 18.4129 165.871 19.0339C165.807 19.7245 165.999 20.3476 166.295 20.9466C166.383 21.1255 166.416 21.2624 166.271 21.4161C166.027 21.675 166.001 21.9803 166.113 22.3013C166.19 22.5192 166.161 22.7203 166.113 22.9476C165.972 23.6845 166.179 24.3803 166.481 25.0392C166.625 25.3582 166.94 25.4297 167.194 25.2034C167.799 24.6655 168.524 24.2139 168.691 23.316C168.703 23.2434 168.673 23.0697 168.825 23.1466C169.181 23.3255 169.46 23.0834 169.776 23.0224C169.881 23.0013 169.991 22.9761 170.099 22.9624L169.934 22.9276Z" fill="black"/>
<path d="M177.119 53.5956L176.372 53.243C175.706 52.9272 175.022 52.6566 174.336 52.3945C175.233 52.8651 176.178 53.2272 177.119 53.5945V53.5956Z" fill="black"/>
<path d="M171.579 23.9631C171.342 23.5716 170.966 23.2537 170.388 23.0473C169.33 22.6726 168.553 22.7863 168.107 23.8526C167.792 24.601 167.124 25.6663 166.518 24.48C165.913 23.2937 166.661 21.9473 166.601 20.7221C166.533 19.3158 165.636 18.1716 165.365 16.8316C165.365 16.8379 166.3 16.48 166.357 16.1916C166.452 15.6863 165.772 15.1221 165.68 14.6368C165.539 13.8758 166.122 13.1158 165.644 12.3852C165.318 11.8852 164.844 11.941 164.914 11.2452C164.96 10.7821 165.192 10.4842 164.9 10.0747C164.565 9.59998 163.79 9.52419 163.398 9.07261C162.48 8.01261 162.103 6.77998 160.823 6.02419C160.175 5.64525 159.337 5.51788 158.78 4.99788C158.4 4.64209 158.203 3.91998 157.58 3.95261C157.625 4.24524 157.837 4.70419 157.541 4.9284C156.987 5.34524 156.994 4.70524 156.865 4.45893C156.58 3.91367 156.66 3.85051 156.001 4.16419C155.378 4.45893 154.835 4.79261 154.115 4.82314C152.774 4.87893 151.565 3.74103 150.175 3.90419C149.841 3.94419 149.39 4.45788 149.491 3.69367C149.556 3.19893 150.215 3.1084 150.498 2.7884C149.895 2.00314 149.123 3.77577 148.787 3.97051C148.038 4.40524 148.428 3.22103 147.477 3.39998C146.716 3.54419 146.001 4.43682 145.378 4.83998C143.844 5.83051 145.303 4.37682 145.099 4.0084C144.239 4.35367 143.381 4.83156 142.808 5.56103C142.545 5.89472 142.407 6.07472 142.036 6.30419C141.788 6.45998 141.314 6.84103 141.028 6.9063C140.363 7.05998 139.924 6.23577 139.276 6.15682C138.492 6.06209 137.773 6.6084 137.28 7.1484C135.964 8.57367 135.404 10.6379 134.802 12.4326C134.025 14.7473 134.202 16.6084 134.446 18.9789C134.696 21.3842 134.755 24.16 134.139 26.5168C133.443 26.0505 133.634 24.9168 133.514 24.1968C133.459 25.7916 131.803 24.4979 131.166 25.5789C130.574 26.5726 131.268 28.5126 131.43 29.5579C131.696 31.3137 131.95 33.0684 132.19 34.8252C132.368 36.1495 132.558 38.2095 134.326 38.1674C135.035 38.1505 135.526 37.6189 135.979 38.3442C136.339 38.9137 136.374 39.8642 136.56 40.5137C137.055 42.24 137.562 43.9695 137.701 45.7684C137.796 46.9505 138.08 49.3705 136.707 49.8779C136.354 50.0084 136.075 49.9095 135.764 50.1989C135.455 50.4884 135.575 50.5789 135.401 50.9168C135.085 51.5305 134.772 51.9789 134.647 52.6958C134.571 53.1463 134.545 55.1221 134.04 53.9852C133.874 53.6116 133.821 52.8779 133.885 52.4716C133.97 51.9273 134.931 51.3316 134.782 50.9073C131.953 51.0547 134.439 55.641 134.877 56.801C135.881 59.4442 136.93 62.04 138.116 64.6084C138.707 65.8873 139.233 67.3347 140.146 68.4273C140.642 68.061 139.717 67.181 139.676 66.7052C139.566 65.4421 141.321 66.6368 141.823 66.9621C142.152 67.1758 142.438 67.4979 142.79 67.661C143.22 67.861 143.685 67.8684 144.12 68.1116C148.102 70.3326 153.231 71.02 157.654 69.801C158.684 69.5158 159.725 69.1052 160.595 68.4705C161.426 67.8684 161.694 67.0579 162.384 66.3694C163.595 65.16 164.778 65.541 164.266 67.2326C163.937 68.3168 163.102 69.2284 162.467 70.141C161.737 71.1863 160.341 72.7495 160.513 74.121C161.723 73.7726 162.275 71.9 162.83 70.8716C164.796 67.221 167.158 63.8431 168.728 59.981C169.566 57.9179 171.131 55.1073 169.878 52.9368C169.619 52.4863 169.256 52.1095 168.927 51.7147C169.322 51.7326 169.713 51.8368 170.111 51.8305C170.016 51.14 167.96 50.4379 167.376 50.3021C165.882 49.9547 164.976 49.9221 164.842 48.1568C164.588 44.8621 164.543 41.8831 165.298 38.6368C165.482 37.841 165.611 36.7558 165.998 36.0326C166.677 34.7642 167.682 36.6379 168.8 36.1442C169.779 35.7126 170.622 34.48 170.968 33.4968C171.508 31.9589 171.522 30.2863 171.597 28.6758C171.674 27.2021 172.332 25.2084 171.578 23.9631H171.579Z" fill="#C4C3C6"/>
<path d="M140.148 68.4611C139.984 68.0443 139.785 67.6369 139.672 67.2064C139.559 66.7769 139.043 66.1611 139.504 65.9369C139.93 65.7316 140.591 65.9537 141.151 66.2706C143.294 67.4801 145.333 68.8211 147.84 69.4011C149.814 69.8558 151.717 69.9369 153.696 69.9769C154.551 69.9937 155.433 69.7937 156.256 70.0011C157.045 70.2011 157.41 69.6348 157.909 69.3211C159.203 68.5053 160.892 68.379 161.926 67.1558C162.258 66.7622 162.326 66.2158 162.643 65.819C163.214 65.1032 164.599 65.1074 164.932 66.0316C165.225 66.8453 163.624 68.819 163.237 69.48C162.779 70.2664 162.305 71.0422 161.834 71.82C161.672 72.0874 160.661 74.1569 160.439 74.1569H143.428C142.604 72.84 141.855 71.4811 141.004 70.1916C140.729 69.6201 140.341 69.079 140.148 68.4611Z" fill="white"/>
<path d="M174.21 53.169C176.818 54.0532 179.299 55.1227 181.701 56.5079C183.424 57.4879 185.061 58.6112 186.596 59.8658C187.703 60.7795 188.577 62.3122 189.809 62.67C189.974 62.25 190.142 61.83 190.327 61.4132C190.401 61.249 190.476 61.0869 190.556 60.9248C188.96 59.8406 187.384 58.7248 185.709 57.7701C182.649 56.169 179.495 54.7216 176.375 53.2437C175.252 52.7111 174.082 52.3079 172.93 51.8574C173.324 52.3732 173.693 52.9943 174.21 53.169ZM171.235 66.9216C175.264 67.4627 179.319 67.9922 183.365 68.4427C184.056 68.5164 184.75 68.5743 185.443 68.6322C186.088 68.1167 186.705 67.5671 187.291 66.9858C187.52 66.7248 187.742 66.4564 187.956 66.1806C182.634 65.4964 177.299 64.8501 171.974 64.1637C170.081 63.9195 169.571 65.3532 169.481 66.5669C169.41 67.4869 170.654 66.5827 171.235 66.9216ZM128.129 52.4995C127.518 52.7764 126.981 53.1879 126.393 53.5048C125.374 54.0522 124.44 54.7258 123.456 55.329C122.443 55.9469 121.371 56.4574 120.349 57.0553C119.344 57.6406 118.372 58.2774 117.352 58.8364C116.45 59.3258 115.29 59.7869 114.701 60.6795C116.829 60.309 118.74 58.7637 120.594 57.7458C122.78 56.5416 124.938 55.2827 127.124 54.0827C127.773 53.7279 129.05 53.2795 129.416 52.6069C129.744 52.0027 128.706 52.2743 128.395 52.39C128.305 52.4227 128.216 52.4592 128.129 52.4995Z" fill="#C4C3C6"/>
<path d="M135.436 50.4714L136.096 50.3672C134.748 51.7809 134.897 52.7735 134.624 54.5093C134.592 54.6651 134.492 54.8072 134.424 54.9556C134.298 54.8314 134.106 54.7293 134.053 54.5756C133.346 52.7019 133.43 51.524 135.436 50.4703V50.4714Z" fill="white"/>
<path d="M140.225 68.7148L140.535 69.3327L140.225 68.7148ZM141.162 70.4317L141.485 70.9454L141.162 70.4317ZM141.812 71.498L142.059 71.898L141.811 71.498H141.812ZM140.68 69.5885L140.798 69.8138L140.68 69.5875V69.5885ZM140.87 69.9675L141.007 70.1906L140.87 69.9675Z" fill="#C4C3C6"/>
<path d="M159.961 45.9202C160.228 45.8991 160.562 46.0675 160.809 45.8939C161.46 45.4349 160.246 44.3444 161.103 43.9844C161.408 43.856 161.878 43.5475 161.994 43.6475C162.396 43.9918 161.667 44.0875 161.715 44.3739C161.946 45.7675 161.18 47.0233 161.153 48.3486C160.892 51.2328 157.412 52.7339 156.581 55.4086C156.392 56.0118 155.861 56.337 155.316 56.5812C154.967 56.7391 154.597 56.8328 154.259 57.0181C154.099 57.1065 153.911 57.217 153.817 57.3802C153.722 57.5433 153.735 57.8265 153.954 57.8549C154.105 57.8739 154.293 57.7328 154.415 57.6654C154.604 57.556 154.877 57.3339 155.113 57.397C155.537 57.5107 155.157 57.9096 155.001 58.0623C154.592 58.476 155.113 59.0812 154.464 59.5833C152.532 61.0918 150.877 60.2265 149.233 59.2118C148.724 58.8981 149.081 57.9328 148.286 57.596C147.274 57.1675 145.984 57.0254 145.518 55.8318C144.776 53.9307 142.337 53.4918 141.756 51.7591C141.151 49.9539 140.029 48.2149 140.225 46.1739C140.239 46.0265 140.458 45.7833 140.575 45.7875C140.893 45.7981 141.383 45.816 141.494 46.0086C143.077 48.8012 145.933 49.2896 148.607 50.3486C150.616 51.1444 151.89 50.3275 153.454 49.6539C154.083 49.3802 154.743 49.1665 155.437 49.1781C156.601 49.2054 157.3 48.6728 158.178 47.9833C158.557 47.6865 159.168 47.5791 159.438 47.1518C159.706 46.7233 159.213 45.9802 159.96 45.9202H159.961Z" fill="black"/>
<path d="M150.477 43.6828C148.176 43.7838 146.706 42.9144 145.944 41.1607C147.084 41.1344 147.121 39.8702 147.931 39.3891C148.857 38.8396 149.825 39.287 150.762 38.8975C151.582 38.5575 152.793 39.026 153.492 38.7428C154.833 38.1986 154.52 41.006 155.923 39.7165C155.997 39.6491 156.029 40.0386 155.867 40.2407C155.342 41.2407 154.441 41.8986 153.667 42.686C152.662 43.7228 151.316 43.5386 150.476 43.6828H150.477ZM147.279 46.3249C149.016 46.4828 150.664 46.5375 152.275 46.1175C152.751 45.9933 153.136 45.5575 153.606 45.3828C154.461 45.066 155.126 45.7428 155.382 46.2575C155.66 46.8196 154.609 46.6302 154.544 46.7523C153.783 48.1923 152.196 48.0828 151.042 48.7565C149.89 49.4302 146.291 48.1744 146.111 46.8712C146.026 46.267 146.95 46.5491 147.279 46.3239V46.3249Z" fill="white"/>
<path d="M146.435 33.2864C147.438 33.3107 148.225 33.7464 149.075 34.0717C150.311 34.5475 150.914 32.7938 152.196 32.8738C152.718 32.9064 153.403 32.5064 153.688 33.0864C153.922 33.5612 153.182 33.7222 152.905 34.0496C151.385 35.8443 149.379 36.1359 147.311 35.5633C146.658 35.3843 146.163 34.3559 145.778 33.6212C145.62 33.3201 146.212 33.3264 146.435 33.2864Z" fill="black"/>
<path d="M147.541 36.5174C147.644 36.5195 147.746 36.53 147.849 36.5469C150.398 36.9774 152.696 35.4163 155.211 35.4437C156.132 35.4542 156.996 35.7627 157.619 36.4595C157.215 36.4974 156.804 36.6016 156.409 36.5616C154.402 36.3606 152.493 36.9932 150.535 37.1827C149.919 37.2427 149.286 37.1437 148.664 37.0879C147.159 36.9585 145.717 37.2332 144.31 37.7385C144.119 37.8079 143.899 37.8037 143.694 37.8332C143.956 37.1385 144.559 36.8216 145.258 36.7058C145.624 36.6553 145.991 36.6236 146.36 36.6111C146.758 36.5837 147.146 36.5058 147.541 36.5163V36.5174Z" fill="white"/>
<path d="M146.025 40.5138C146 40.5174 145.975 40.5196 145.95 40.5201C145.58 40.5317 145.184 40.4085 144.82 40.3369C144.457 40.2671 144.097 40.1803 143.742 40.0769C143.032 39.8748 142.355 39.5698 141.734 39.1717C141.562 39.0594 141.396 38.9389 141.236 38.8106C140.911 38.5506 140.98 38.1948 141.215 37.9001C141.346 37.7241 141.535 37.6003 141.749 37.5506C141.897 37.5211 142.301 37.5138 142.381 37.6832C143.175 39.3559 144.526 38.238 145.603 38.3359C146.241 38.3847 146.882 38.3959 147.522 38.3696C147.844 38.3611 148.165 38.3496 148.487 38.3422C148.645 38.3422 148.811 38.3243 148.971 38.3348C149.129 38.3464 149.341 38.4906 149.126 38.6106C148.989 38.6885 148.796 38.6569 148.651 38.6506C148.241 38.6359 147.835 38.7454 147.448 38.8717C146.842 39.0611 146.259 39.319 145.652 39.5138C145.522 39.5559 145.507 39.8485 145.532 39.9527C145.647 40.4222 146.236 39.8053 146.427 40.1738C146.532 40.3948 146.216 40.4896 146.025 40.5138ZM150.101 45.4622C149.223 45.299 148.338 45.1769 147.474 44.9569C147.128 44.8696 146.911 44.5464 147.068 44.1254C147.23 43.6885 147.555 43.8896 147.828 43.9464C149.648 44.3327 151.537 44.2306 153.304 43.6496C154.03 43.4159 154.065 44.0043 154.214 44.2601C154.396 44.5685 153.919 44.5653 153.717 44.6117C152.527 44.8959 151.387 45.4538 150.101 45.4622Z" fill="black"/>
<path d="M169.573 55.7176C169.706 56.4607 169.134 57.167 168.316 57.6481C168.233 57.6965 167.537 56.9407 167.325 56.4691C167.001 55.747 166.833 54.9481 166.643 54.1765C166.605 54.0228 166.771 53.6649 166.84 53.6649C167.411 53.6702 168.071 53.5702 168.514 53.8312C169.036 54.1365 169.564 54.646 169.573 55.7176Z" fill="white"/>
<path d="M156.886 38.5707C156.627 38.655 156.428 38.6023 156.049 38.3739C155.699 38.1602 155.458 38.1844 155.05 38.1634C154.913 38.1562 154.778 38.1209 154.655 38.0595C154.532 37.9981 154.423 37.912 154.334 37.8065C154.905 37.2697 155.711 37.2371 156.447 37.196C156.76 37.1813 158.221 36.8381 158.238 37.2865C158.264 37.9529 157.431 38.3992 156.886 38.5707Z" fill="black"/>
<path d="M132.084 25.3933C132.254 25.3796 132.424 25.3828 132.595 25.3996C132.873 25.4954 133.117 25.6723 133.296 25.907C133.664 26.3754 133.798 26.9839 134.056 27.5123C133.885 27.7186 133.154 26.8365 132.98 26.6649C132.6 26.2891 132.152 25.926 131.82 25.5091C131.761 25.4396 131.904 25.406 132.083 25.3933H132.084Z" fill="white"/>
<path d="M160.019 36.8769C160.028 36.9979 159.87 37.1527 159.78 37.1958C159.714 36.9464 159.424 36.7485 159.242 36.5853C159.094 36.4506 158.724 36.219 158.689 36.0032C158.657 35.8137 159.097 35.4432 159.273 35.4958C159.846 35.6674 159.966 36.1958 160.02 36.8769H160.019ZM134.246 29.2832C134.294 29.3499 134.321 29.4291 134.325 29.511C134.328 29.593 134.307 29.6741 134.264 29.7443C134.141 29.9369 134.005 30.1221 133.859 30.2979C133.691 30.14 133.591 30.0716 133.738 29.8758C133.886 29.679 134.052 29.419 134.246 29.2843V29.2832Z" fill="black"/>
<path d="M169.896 66.732C172.018 66.6509 174.078 67.1004 176.151 67.4415C179.322 67.9604 182.561 68.0562 185.771 68.3615C186.297 67.9246 186.806 67.4688 187.291 66.9836C187.456 66.7941 187.614 66.6036 187.766 66.413C182.396 65.8172 177.032 65.0909 171.514 64.4015C170.154 64.2878 170.072 65.5667 169.623 66.4615C169.603 66.4909 169.802 66.7351 169.897 66.732H169.896ZM134.347 66.2499C133.951 65.3309 133.939 64.0499 132.576 64.0867C126.683 64.4899 120.959 64.9425 115.231 65.2404C114.543 65.2762 113.868 65.3457 113.202 65.4457C113.247 65.7951 113.307 66.1436 113.381 66.4909C113.522 66.872 113.682 67.2383 113.855 67.6036C118.455 66.9509 123.162 67.3636 127.776 66.8667C129.86 66.6415 131.946 66.3067 134.06 66.5067C134.151 66.5162 134.363 66.2846 134.347 66.2499Z" fill="white"/>
<path d="M150.207 21.954C150.081 21.0793 149.692 19.6361 150.916 19.4835C151.877 19.3624 152.418 18.6529 153.296 18.574C157.838 18.1035 160.587 16.5214 162.632 21.7982C163.226 23.0329 164.266 24.0614 163.572 25.6003C163.42 25.935 163.125 26.0845 162.982 25.8845C161.291 23.3729 159.861 28.4814 154.249 26.2024C153.815 26.0287 153.183 25.7771 153.51 25.0235C153.472 24.6908 152.916 24.834 152.676 24.8098C152.407 24.9993 152.925 25.6845 153.001 25.9508C151 25.9035 150.01 23.8329 150.207 21.954ZM135.869 25.495C136.391 23.8161 135.824 21.154 137.945 19.4487C139.197 18.4414 140.743 19.3119 142.153 19.1877C143.738 19.0491 145.326 19.4248 146.681 20.2593C148.279 21.2266 147.645 22.6456 147.504 24.0108C147.395 25.0719 146.783 25.8898 146.424 26.8266C146.074 27.7487 145.301 27.0329 144.754 27.2866C142.209 28.4593 139.432 27.5824 136.781 28.0708C135.935 28.2287 135.783 26.9435 135.869 25.495ZM145.046 31.5203C145 31.2519 144.931 31.1066 144.973 31.0529C145.266 30.6908 145.584 30.3466 145.894 29.9961C145.975 30.0698 146.131 30.2014 146.125 30.2066C145.81 30.6098 145.481 31.0014 145.046 31.5203ZM150.347 41.4098C149.353 41.415 148.716 41.4729 148.095 40.715C148.418 40.8108 148.744 40.9961 149.062 40.9835C150.189 40.935 151.391 41.3393 152.41 40.495C152.477 40.4393 152.665 40.5287 152.797 40.5508C152.352 41.335 150.913 41.435 150.349 41.4098H150.347Z" fill="#C4C3C6"/>
<path d="M155.561 18.8001C156.797 18.6927 158.026 18.5517 159.263 18.5054C159.556 18.4927 160.027 18.7306 160.118 18.9685C160.283 19.3917 159.889 19.1506 159.726 19.1327C158.885 18.8485 158.525 18.8085 157.879 19.6085C157.231 20.3833 155.587 20.0833 154.778 20.878C155.184 21.0685 155.615 21.2012 156.058 21.2738C155.861 21.3675 155.658 21.4454 155.448 21.5054C154.599 21.6843 154.005 22.2738 153.406 22.8169C152.666 23.4885 151.711 23.1706 151.436 22.7222C151.151 22.2464 151.436 21.2864 152.386 21.0759C152.481 21.0548 152.637 20.8233 152.607 20.7622C151.513 18.3717 153.59 19.2664 154.481 18.9696C154.817 18.8559 155.199 18.8748 155.561 18.8401V18.7991V18.8001ZM157.105 22.5243C157.945 22.4885 158.743 22.6191 159.487 23.0348C159.798 23.2096 160.214 23.2664 160.23 23.719C160.23 23.7896 159.971 23.9296 159.829 23.9348C159.438 23.9485 158.941 24.2864 158.729 23.6106C158.656 23.3769 158.41 23.2222 158.209 23.4475C157.128 24.6569 156.178 25.3696 155.013 23.418C154.734 22.9496 154.01 23.8496 153.576 24.2096C153.285 24.4506 153.005 24.6085 152.765 24.378C152.501 24.1212 152.849 23.8864 153.027 23.7296C154.197 22.698 155.639 22.558 157.104 22.5243H157.105ZM159.453 21.7959C159.589 21.7622 159.687 21.9275 159.764 22.0127C159.865 22.119 159.971 22.2201 160.085 22.3138C160.302 22.5033 160.531 22.6938 160.743 22.8843C160.546 23.1296 160.137 22.6896 159.982 22.5717C159.725 22.3822 159.451 22.2043 159.214 21.9896C159.224 22.0075 159.414 21.8064 159.453 21.7959Z" fill="black"/>
<path d="M156.784 22.201C156.476 22.2568 156.165 22.2516 156.055 22.0589C155.999 21.9642 156.016 21.9147 156.113 21.86C156.188 21.8188 156.271 21.7934 156.357 21.7852C156.548 21.7694 156.742 21.7916 156.926 21.8484C157.013 21.8694 157.097 21.8947 157.181 21.9189C157.228 21.9326 157.413 22.0221 157.453 22.0052C157.237 22.0927 157.013 22.1583 156.784 22.201ZM154.2 23.94C154.134 23.8294 154.722 23.4842 154.874 23.5526C155.102 23.6568 155.182 24.1484 155.063 24.3421C154.864 24.66 154.386 24.1663 154.207 23.9442C154.206 23.9446 154.204 23.9446 154.202 23.9442C154.201 23.9431 154.2 23.9416 154.199 23.94H154.2ZM144.753 24.7568C144.813 24.6568 144.282 24.3463 144.145 24.4073C143.939 24.5021 143.867 24.9442 143.977 25.12C144.156 25.4042 144.587 24.96 144.75 24.76L144.753 24.7568Z" fill="white"/>
<path d="M146.869 22.9685C146.844 23.0127 146.798 23.2285 146.669 23.3043C145.869 23.7843 145.066 23.4696 144.448 23.0264C142.382 21.5454 140.367 21.7317 138.606 23.6727C138.47 23.8233 138.24 23.8864 138.054 23.9906C138.1 23.758 138.074 23.4685 138.204 23.3033C138.933 22.3875 139.946 21.9254 141.043 21.6085C141.203 21.5622 141.339 21.438 141.486 21.3506C140.815 21.1022 140.101 21.357 139.409 21.2991C138.794 21.2685 137.765 21.5843 137.648 21.0212C137.385 19.7517 138.664 19.5191 139.413 19.6896C140.706 19.9748 141.892 19.4433 143.144 19.5822C144.639 19.7475 146.857 21.5738 146.869 22.9675V22.9685Z" fill="black"/>
<path d="M142.415 23.4021C143.283 23.5831 145.225 23.2126 145.746 24.6168C144.833 24.5295 144.202 23.4895 143.454 24.8558C143.017 25.6474 141.933 25.9347 141.056 25.02C140.866 24.8231 140.771 24.4231 140.364 24.5905C139.934 24.7673 140.232 25.0747 140.205 25.3452C140.146 25.9631 139.756 25.3768 139.519 25.3884C139.033 25.4147 138.537 25.2831 138.045 25.2189C139.282 23.9063 140.414 23.3473 142.415 23.4021Z" fill="black"/>
<path d="M141.54 23.1895H141.523C141.317 23.1727 141.149 23.0443 140.967 22.958C141.394 22.7432 141.801 22.4706 142.251 22.3306C142.608 22.218 142.793 22.5601 142.943 22.8474C142.676 22.9201 142.408 22.9895 142.141 23.0643C141.945 23.1211 141.746 23.2064 141.54 23.1906V23.1895ZM132.284 29.7422C132.752 29.3938 133.805 29.3274 133.2 28.3506C132.572 27.3369 132.053 28.4706 131.579 28.6453C131.518 28.6664 131.465 28.6853 131.419 28.698C131.514 29.378 131.605 30.059 131.686 30.7422C131.882 32.3906 132.066 34.0338 132.488 35.6411C132.646 36.1253 132.841 36.5969 133.071 37.0517L133.409 36.999C134.075 36.8938 134.233 36.6285 133.86 35.9906C133.444 35.2769 134.3 34.7453 134.273 34.0169C134.253 33.4853 134.254 32.9527 133.798 32.7432C133.368 32.5495 133.113 32.9727 132.946 33.3895C132.877 33.5664 132.643 33.6748 132.485 33.819C132.418 33.6032 132.272 33.378 132.296 33.1738C132.391 32.3601 133.076 31.5274 132.009 30.7969C131.767 30.6264 131.883 30.0443 132.284 29.7422ZM169.513 30.5243C169.092 30.1443 168.609 29.8043 168.264 29.3601C167.919 28.9159 167.584 28.059 167.157 28.2727C166.628 28.5369 166.92 29.338 167.095 29.9527C167.296 30.6601 167.476 31.4327 167.389 32.1464C167.326 32.698 167.825 32.4559 167.953 32.8201C168.266 33.7201 167.076 34.3074 167.607 35.1011C168.157 35.919 168.947 35.6559 169.705 35.419C169.813 35.3917 169.924 35.3821 170.035 35.3906C170.079 35.3253 170.121 35.259 170.163 35.1917C170.516 34.4864 170.812 33.7559 171.049 33.0053C170.987 33.079 170.91 33.1386 170.823 33.1801C170.736 33.2217 170.642 33.2443 170.545 33.2464C170.426 33.2548 170.288 32.9969 170.159 32.8653L171.178 31.8885L171.266 32.0422C171.456 30.8874 171.535 29.7201 171.606 28.5506C171.554 28.5369 171.512 28.4811 171.512 28.3822C171.512 28.2085 171.633 28.0138 171.629 27.8243C171.626 27.6596 171.588 27.4975 171.518 27.3485C171.38 27.0517 171.138 26.8159 170.916 26.5801C170.695 26.3453 170.463 26.1106 170.329 25.8117C170.077 25.2506 169.599 25.359 169.216 25.759C168.858 26.1327 168.693 26.9696 169.06 27.0906C170.391 27.5306 170.758 28.0938 169.861 29.298C169.622 29.6169 169.621 30.1106 169.513 30.5243Z" fill="white"/>
<path d="M143.176 18.645C142.256 18.6155 141.336 18.6608 140.42 18.7134C139.709 18.7555 138.818 18.9355 138.148 18.6187C138.316 18.2102 138.972 17.8208 139.329 17.545C139.829 17.1778 140.196 16.6575 140.374 16.0629C140.61 15.2944 140.532 14.2766 139.977 13.6366C139.121 12.6513 137.981 13.2755 137.063 13.7776C135.623 14.5629 135.534 13.2966 135.765 12.1797C136.041 10.8481 136.425 8.75024 137.685 8.02603C138.408 7.61234 139.206 7.94392 139.979 7.94918C141.661 7.95971 142.788 6.56708 144.351 6.22287C145.351 6.00182 146.376 5.97445 147.388 5.84182C148.272 5.72603 149.009 5.33024 149.859 5.09445C150.851 4.82076 151.906 5.19971 152.849 5.49655C153.945 5.84392 155.13 6.18708 156.289 6.19024C157.446 6.19234 158.682 5.85866 159.77 6.3755C160.562 6.75445 161.09 7.46918 161.564 8.18076C162.08 8.95234 162.674 9.70182 163.106 10.5218C163.397 11.0692 164.075 12.7881 163.342 13.2587C163.078 13.4271 162.763 13.2081 162.486 13.185C162.069 13.1471 161.855 13.346 161.595 13.6376C161.169 14.1134 160.659 14.3913 160.069 14.6123C159.629 14.7776 158.685 15.0281 159.149 15.6713C159.315 15.9008 159.583 16.0608 159.775 16.2692C160.51 17.0692 161.356 17.8923 162.014 18.7534C162.382 19.2334 162.692 19.7534 163.038 20.2471C163.255 20.5566 163.955 21.1976 163.894 21.6018C163.779 22.3471 163.172 21.4366 163.07 21.2439C162.841 20.8155 162.635 20.3755 162.404 19.9492C161.962 19.1408 161.42 18.326 160.557 17.9218C159.013 17.1997 156.894 17.5639 155.271 17.8113C154.089 17.9923 153.002 18.5218 151.85 18.8018C151.218 18.9544 150.468 19.0302 149.985 19.5123C149.122 20.3671 150.002 21.5692 150.08 22.5397C150.285 25.126 151.84 25.926 154.375 26.2292C156.701 26.506 158.855 26.5302 161.085 25.7702C162.054 25.4397 162.568 26.4713 163.088 27.1881C163.365 27.5671 164.026 27.2418 164.291 27.8723C164.748 28.9681 163.78 29.8618 164.035 31.0039C164.184 31.6766 160.11 32.7808 159.188 32.365C158.068 31.8597 156.914 31.2134 155.654 31.1966C155.926 31.1966 156.159 31.9176 156.178 32.1176C156.198 32.2951 156.17 32.4748 156.095 32.637C156.02 32.7993 155.902 32.9379 155.754 33.0376C155.13 33.4566 154.774 32.9429 154.851 32.3134C154.956 31.5845 154.832 30.8409 154.495 30.186C154.265 29.7587 153.991 29.2871 153.58 29.0102C153.261 28.7934 152.869 28.8787 152.903 29.3197C152.938 29.7871 153.537 30.1513 153.79 30.5018C154.029 30.8344 154.586 31.5313 154.14 31.9008C153.445 32.4713 152.062 31.6008 151.255 31.946C150.21 32.3923 149.069 32.1987 147.977 32.1166C147.425 32.0755 146.868 32.0597 146.322 32.1681C146 32.2313 145.577 32.4102 145.277 32.1818C144.959 31.9376 145.33 31.2387 145.572 31.0344C146.587 30.1819 147.287 29.0143 147.562 27.7176C147.783 26.6787 147.618 25.6144 147.657 24.5639C147.688 23.6492 148.086 22.8008 148.075 21.8902C148.033 19.3355 145.631 18.7218 143.176 18.645Z" fill="white"/>
<path d="M139.943 27.8544C140.703 27.7713 141.603 27.7239 142.48 27.5692C144.286 27.2513 145.219 27.6292 144.789 29.7839C144.326 32.1207 141.607 34.2597 139.4 33.7902C137.919 33.4755 135.787 30.7902 136.343 29.7428C137.037 28.4481 138.208 27.6471 139.943 27.8544ZM134.716 23.9165C134.729 23.0917 134.768 22.2674 134.832 21.445C134.849 21.3074 134.902 21.1768 134.985 21.066C135.163 20.806 135.491 21.1692 135.564 21.3502C135.603 21.4734 135.606 21.605 135.575 21.7302C135.557 21.8471 135.469 22.1365 135.683 22.0713C135.8 22.0245 135.907 21.9551 135.998 21.8671C136.064 21.8081 136.134 21.7544 136.206 21.705C136.159 21.8239 136.214 21.9502 136.213 22.0723C136.213 22.4218 136.049 22.7692 135.959 23.1039C135.737 23.9436 135.578 24.7986 135.483 25.6618C135.354 26.7292 135.273 27.805 135.109 28.8702C135.083 29.0492 135.105 29.2734 135.005 29.4334C134.842 29.6986 134.721 29.1039 134.716 28.9934C134.702 27.685 134.704 26.3755 134.704 25.0671C134.705 24.6839 134.709 24.3007 134.715 23.9165H134.716ZM165.779 22.586C165.726 22.8776 165.615 23.4702 165.504 24.0628C164.759 23.5155 164.459 22.7155 164.415 21.8492C164.387 21.3481 164.145 20.4239 164.928 20.5039C165.728 20.5881 165.739 21.546 165.78 22.586H165.779Z" fill="white"/>
<path d="M140.69 27.3397C140.587 27.334 140.484 27.3228 140.382 27.306C139.717 27.0797 138.439 27.4839 138.486 26.6787C138.539 25.7597 139.721 26.6155 140.337 26.3292C141.155 25.9492 141.983 26.245 142.807 26.2345C142.914 26.2345 143.021 26.3124 143.127 26.3555C142.974 26.5239 142.848 26.7892 142.66 26.8471C141.952 27.0639 141.226 27.2113 140.691 27.3397H140.69ZM156.498 26.1418C155.54 26.1018 154.546 26.1903 153.87 25.4629C154.658 25.4787 155.443 25.4924 156.23 25.5092C156.321 25.5145 156.41 25.5303 156.498 25.5545C157.049 25.6913 158.098 25.2892 158.062 25.8397C158.023 26.4218 157.049 26.0418 156.498 26.1418Z" fill="black"/>
</g>
<rect x="114" y="-5" width="76" height="76" rx="38" stroke="black" stroke-width="4"/>
<g clip-path="url(#clip2_6035_296170)">
<rect x="48" y="33" width="24" height="24" rx="12" fill="#DEE3E9"/>
<path d="M59.9999 46.9591C62.3563 46.9591 64.2666 45.0488 64.2666 42.6924C64.2666 40.336 62.3563 38.4258 59.9999 38.4258C57.6435 38.4258 55.7332 40.336 55.7332 42.6924C55.7332 45.0488 57.6435 46.9591 59.9999 46.9591Z" fill="#A7AEB7"/>
<path d="M52.5332 54.4258C52.5332 51.4803 54.921 49.0925 57.8665 49.0925H62.1332C65.0787 49.0925 67.4665 51.4803 67.4665 54.4258V64.8259C67.4665 67.7714 65.0787 70.1591 62.1332 70.1591H57.8665C54.921 70.1591 52.5332 67.7714 52.5332 64.8259V54.4258Z" fill="#A7AEB7"/>
</g>
<g clip-path="url(#clip3_6035_296170)">
<rect x="-8" y="81" width="32" height="32" rx="16" fill="#DEE3E9"/>
<path d="M8.00002 99.6121C11.1419 99.6121 13.6889 97.0651 13.6889 93.9233C13.6889 90.7814 11.1419 88.2344 8.00002 88.2344C4.85814 88.2344 2.31115 90.7814 2.31115 93.9233C2.31115 97.0651 4.85814 99.6121 8.00002 99.6121Z" fill="#A7AEB7"/>
<path d="M-1.95557 109.568C-1.95557 105.64 1.22818 102.457 5.15553 102.457H10.8444C14.7718 102.457 17.9555 105.64 17.9555 109.568V123.435C17.9555 127.362 14.7718 130.546 10.8444 130.546H5.15553C1.22818 130.546 -1.95557 127.362 -1.95557 123.435V109.568Z" fill="#A7AEB7"/>
</g>
<g clip-path="url(#clip4_6035_296170)">
<rect x="335" y="129" width="48" height="48" rx="24" fill="#DEE3E9"/>
<path d="M359 156.918C363.713 156.918 367.534 153.098 367.534 148.385C367.534 143.672 363.713 139.852 359 139.852C354.287 139.852 350.467 143.672 350.467 148.385C350.467 153.098 354.287 156.918 359 156.918Z" fill="#A7AEB7"/>
<path d="M344.067 171.852C344.067 165.961 348.843 161.185 354.734 161.185H363.267C369.158 161.185 373.934 165.961 373.934 171.852V192.652C373.934 198.543 369.158 203.318 363.267 203.318H354.734C348.843 203.318 344.067 198.543 344.067 192.652V171.852Z" fill="#A7AEB7"/>
</g>
<defs>
<clipPath id="clip0_6035_296170">
<rect x="247" y="49" width="56" height="56" rx="28" fill="white"/>
</clipPath>
<clipPath id="clip1_6035_296170">
<rect x="112" y="-7" width="80" height="80" rx="40" fill="white"/>
</clipPath>
<clipPath id="clip2_6035_296170">
<rect x="48" y="33" width="24" height="24" rx="12" fill="white"/>
</clipPath>
<clipPath id="clip3_6035_296170">
<rect x="-8" y="81" width="32" height="32" rx="16" fill="white"/>
</clipPath>
<clipPath id="clip4_6035_296170">
<rect x="335" y="129" width="48" height="48" rx="24" fill="white"/>
</clipPath>
</defs>
</svg>
