<svg width="157" height="123" viewBox="0 0 157 123" fill="none" xmlns="http://www.w3.org/2000/svg">
<g clip-path="url(#clip0_9867_224700)">
<rect x="0.333496" y="0.732422" width="156" height="87.7526" rx="6.70968" fill="#BCD5FA" fill-opacity="0.08"/>
<g clip-path="url(#clip1_9867_224700)">
<rect x="0.333496" y="0.732422" width="78.1936" height="87.9706" fill="#BCD5FA" fill-opacity="0.08"/>
<rect x="0.333496" y="85.3779" width="78.1936" height="3.35484" fill="#4038FF"/>
</g>
<path fill-rule="evenodd" clip-rule="evenodd" d="M140.333 10.7126C136.651 10.7126 133.667 13.6973 133.667 17.3792C133.667 21.0611 136.651 24.0459 140.333 24.0459C144.015 24.0459 147 21.0611 147 17.3792C147 13.6973 144.015 10.7126 140.333 10.7126ZM132 17.3792C132 12.7769 135.731 9.0459 140.333 9.0459C144.936 9.0459 148.667 12.7769 148.667 17.3792C148.667 21.9816 144.936 25.7126 140.333 25.7126C135.731 25.7126 132 21.9816 132 17.3792Z" fill="#B5C1C9"/>
<path fill-rule="evenodd" clip-rule="evenodd" d="M134.21 23.0316C135.732 24.6802 137.912 25.7126 140.333 25.7126C144.936 25.7126 148.667 21.9816 148.667 17.3792C148.667 12.7769 144.936 9.0459 140.333 9.0459V10.7126C144.015 10.7126 147 13.6973 147 17.3792C147 21.0611 144.015 24.0459 140.333 24.0459C138.397 24.0459 136.653 23.22 135.435 21.9011L134.21 23.0316Z" fill="#4038FF"/>
</g>
<rect x="0.354492" y="98.5469" width="117.388" height="10.0618" rx="3.35394" fill="#BBD9F6" fill-opacity="0.13"/>
<rect x="0.354492" y="111.963" width="85.5254" height="10.0618" rx="3.35394" fill="#BBD9F6" fill-opacity="0.13"/>
<defs>
<clipPath id="clip0_9867_224700">
<rect x="0.333496" y="0.732422" width="156" height="87.7526" rx="6.70968" fill="white"/>
</clipPath>
<clipPath id="clip1_9867_224700">
<rect x="0.333496" y="0.732422" width="156.387" height="87.9703" rx="6.70968" fill="white"/>
</clipPath>
</defs>
</svg>
