<svg width="335" height="381" viewBox="0 0 335 381" fill="none" xmlns="http://www.w3.org/2000/svg">
<g opacity="0.25" clip-path="url(#clip0_5989_318230)">
<path fill-rule="evenodd" clip-rule="evenodd" d="M223.09 154.623V159.953H217.751V154.623H212.399V159.953H207.047V154.623H201.708V149.28H196.355V154.623H201.694V159.953H196.355V154.623H191V159.966H196.352V165.296H201.691V170.639H196.352V175.981H201.691V181.311H196.352V175.981H191V181.325H196.352V186.654H191V192H196.352V186.657H201.691V192H207.044V186.657H212.396V192H217.749V186.657H223.088H223.101V181.327H228.44V175.984H223.101V170.641H228.44V165.298H223.101V159.968H228.44V154.626H223.101V149.283H217.749V154.626H223.09V154.623ZM222.693 186.72H227.96V192H222.68V186.72H222.693ZM196.28 170.4H191V165.12H196.28V170.4ZM207.32 154.56H212.6V149.28H207.32V154.56ZM202.04 181.44V186.72H207.32V181.44H202.04ZM228.44 181.313H233.72V175.983H228.44V170.64H233.72V165.297H228.44V159.953H233.72V154.623H228.44V149.28H233.72V154.623H239V159.967H233.72V165.297H239V170.64H233.72V175.983H239V181.327H233.72V186.657H239V192H233.72V186.657H228.44V181.313ZM217.88 160.32H212.6V165.6H217.88V160.32ZM217.4 170.4H222.68V165.12H217.4V170.4ZM217.88 175.68V170.4H212.6V175.68H217.88ZM217.4 175.68V180.96H222.68V175.68H217.4ZM207.32 175.68V180.96H212.6V175.68H207.32ZM207.32 170.4H202.04V175.68H207.32V170.4ZM207.32 165.12V170.4H212.6V165.12H207.32ZM207.32 165.6V160.32H202.04V165.6H207.32ZM212.6 181.44H217.88V186.72H212.6V181.44ZM196.28 144V149.28H191V144H196.28ZM207.32 149.28V144H202.04V149.28H207.32ZM217.88 144V149.28H212.6V144H217.88ZM227.96 149.28V144H222.68V149.28H227.96ZM239 149.28V144H233.72V149.28H239Z" fill="#0B0C0F"/>
<path fill-rule="evenodd" clip-rule="evenodd" d="M319.09 298.623V303.953H313.751V298.623H308.399V303.953H303.047V298.623H297.708V293.28H292.355V298.623H297.694V303.953H292.355V298.623H287V303.966H292.352V309.296H297.691V314.639H292.352V319.981H297.691V325.311H292.352V319.981H287V325.325H292.352V330.654H287V336H292.352V330.657H297.691V336H303.044V330.657H308.396V336H313.749V330.657H319.088H319.101V325.327H324.44V319.984H319.101V314.641H324.44V309.298H319.101V303.968H324.44V298.626H319.101V293.283H313.749V298.626H319.09V298.623ZM318.693 330.72H323.96V336H318.68V330.72H318.693ZM292.28 314.4H287V309.12H292.28V314.4ZM303.32 298.56H308.6V293.28H303.32V298.56ZM298.04 325.44V330.72H303.32V325.44H298.04ZM324.44 325.313H329.72V319.983H324.44V314.64H329.72V309.297H324.44V303.953H329.72V298.623H324.44V293.28H329.72V298.623H335V303.967H329.72V309.297H335V314.64H329.72V319.983H335V325.327H329.72V330.657H335V336H329.72V330.657H324.44V325.313ZM313.88 304.32H308.6V309.6H313.88V304.32ZM313.4 314.4H318.68V309.12H313.4V314.4ZM313.88 319.68V314.4H308.6V319.68H313.88ZM313.4 319.68V324.96H318.68V319.68H313.4ZM303.32 319.68V324.96H308.6V319.68H303.32ZM303.32 314.4H298.04V319.68H303.32V314.4ZM303.32 309.12V314.4H308.6V309.12H303.32ZM303.32 309.6V304.32H298.04V309.6H303.32ZM308.6 325.44H313.88V330.72H308.6V325.44ZM292.28 288V293.28H287V288H292.28ZM303.32 293.28V288H298.04V293.28H303.32ZM313.88 288V293.28H308.6V288H313.88ZM323.96 293.28V288H318.68V293.28H323.96ZM335 293.28V288H329.72V293.28H335Z" fill="#0B0C0F"/>
<path fill-rule="evenodd" clip-rule="evenodd" d="M191 53.28V48H239V53.28H191ZM191 59.04V64.32H239V59.04H191ZM191 69.12V74.4H239V69.12H191ZM191 84.96V79.68H239V84.96H191ZM191 90.72V96H239V90.72H191Z" fill="#0B0C0F"/>
<path fill-rule="evenodd" clip-rule="evenodd" d="M191 293.28V288H239V293.28H191ZM191 299.04V304.32H239V299.04H191ZM191 309.12V314.4H239V309.12H191ZM191 324.96V319.68H239V324.96H191ZM191 330.72V336H239V330.72H191Z" fill="#0B0C0F"/>
<path fill-rule="evenodd" clip-rule="evenodd" d="M281.72 96H287V144H281.72V96ZM275.96 96H270.68V144H275.96V96ZM265.88 96H260.6V144H265.88V96ZM250.04 96H255.32V144H250.04V96ZM244.28 96H239V144H244.28V96Z" fill="#0B0C0F"/>
<path fill-rule="evenodd" clip-rule="evenodd" d="M281.72 336H287V384H281.72V336ZM275.96 336H270.68V384H275.96V336ZM265.88 336H260.6V384H265.88V336ZM250.04 336H255.32V384H250.04V336ZM244.28 336H239V384H244.28V336Z" fill="#0B0C0F"/>
<path fill-rule="evenodd" clip-rule="evenodd" d="M191 5.33338V0C164.491 0 143 21.4907 143 48H148.333C148.333 24.4347 167.435 5.33338 191 5.33338ZM191 15.9086V10.56C170.322 10.56 153.56 27.3224 153.56 48H158.909C158.909 30.2774 173.277 15.9086 191 15.9086ZM191 21.6V26.88C179.337 26.88 169.88 36.3366 169.88 48H164.6C164.6 33.4194 176.419 21.6 191 21.6ZM191 37.12V31.68C181.986 31.68 174.68 38.986 174.68 48H180.12C180.12 41.9916 184.992 37.12 191 37.12ZM191 48V42.72C188.083 42.72 185.72 45.0829 185.72 48H191Z" fill="#0B0C0F"/>
<path fill-rule="evenodd" clip-rule="evenodd" d="M239 245.333V240C212.491 240 191 261.491 191 288H196.333C196.333 264.435 215.435 245.333 239 245.333ZM239 255.909V250.56C218.322 250.56 201.56 267.322 201.56 288H206.909C206.909 270.277 221.277 255.909 239 255.909ZM239 261.6V266.88C227.337 266.88 217.88 276.337 217.88 288H212.6C212.6 273.419 224.419 261.6 239 261.6ZM239 277.12V271.68C229.986 271.68 222.68 278.986 222.68 288H228.12C228.12 281.992 232.992 277.12 239 277.12ZM239 288V282.72C236.083 282.72 233.72 285.083 233.72 288H239Z" fill="#0B0C0F"/>
<path fill-rule="evenodd" clip-rule="evenodd" d="M95 186.667V192C121.509 192 143 170.509 143 144H137.667C137.667 167.565 118.565 186.667 95 186.667ZM95 176.091V181.44C115.678 181.44 132.44 164.678 132.44 144H127.091C127.091 161.723 112.723 176.091 95 176.091ZM95 170.4V165.12C106.664 165.12 116.12 155.664 116.12 144H121.4C121.4 158.581 109.581 170.4 95 170.4ZM95 154.88V160.32C104.014 160.32 111.32 153.014 111.32 144H105.88C105.88 150.009 101.008 154.88 95 154.88ZM95 144L95 149.28C97.9171 149.28 100.28 146.917 100.28 144H95Z" fill="#0B0C0F"/>
<path fill-rule="evenodd" clip-rule="evenodd" d="M287 234.667V240C313.509 240 335 218.509 335 192H329.667C329.667 215.565 310.565 234.667 287 234.667ZM287 224.091V229.44C307.678 229.44 324.44 212.678 324.44 192H319.091C319.091 209.723 304.723 224.091 287 224.091ZM287 218.4V213.12C298.664 213.12 308.12 203.664 308.12 192H313.4C313.4 206.581 301.581 218.4 287 218.4ZM287 202.88V208.32C296.014 208.32 303.32 201.014 303.32 192H297.88C297.88 198.009 293.008 202.88 287 202.88ZM287 192V197.28C289.917 197.28 292.28 194.917 292.28 192H287Z" fill="#0B0C0F"/>
<path fill-rule="evenodd" clip-rule="evenodd" d="M292.333 48H287C287 74.5092 308.491 96 335 96V90.6667C311.435 90.6667 292.333 71.5652 292.333 48ZM302.909 48H297.56C297.56 68.6776 314.322 85.44 335 85.44V80.0914C317.277 80.0914 302.909 65.7226 302.909 48ZM308.6 48H313.88C313.88 59.6637 323.336 69.12 335 69.12V74.4C320.419 74.4 308.6 62.5808 308.6 48ZM324.12 48H318.68C318.68 57.0143 325.986 64.32 335 64.32V58.88C328.991 58.88 324.12 54.0084 324.12 48ZM335 48L329.72 48C329.72 50.9171 332.083 53.28 335 53.28V48Z" fill="#0B0C0F"/>
<path fill-rule="evenodd" clip-rule="evenodd" d="M335 149.333V144C308.491 144 287 165.491 287 192H292.333C292.333 168.435 311.435 149.333 335 149.333ZM335 159.909V154.56C314.322 154.56 297.56 171.322 297.56 192H302.909C302.909 174.277 317.277 159.909 335 159.909ZM335 165.6V170.88C323.336 170.88 313.88 180.336 313.88 192H308.6C308.6 177.419 320.419 165.6 335 165.6ZM335 181.12V175.68C325.986 175.68 318.68 182.986 318.68 192H324.12C324.12 185.991 328.992 181.12 335 181.12ZM335 192V186.72C332.083 186.72 329.72 189.083 329.72 192H335Z" fill="#0B0C0F"/>
<path fill-rule="evenodd" clip-rule="evenodd" d="M-1 53.3334V48C25.5092 48 47 69.4907 47 96H41.6667C41.6667 72.4347 22.5652 53.3334 -1 53.3334ZM-1 63.9086L-1 58.56C19.6776 58.56 36.44 75.3224 36.44 96H31.0914C31.0914 78.2774 16.7226 63.9086 -1 63.9086ZM-1 69.6V74.8801C10.6637 74.8801 20.12 84.3364 20.12 96H25.4C25.4 81.4192 13.5808 69.6 -1 69.6ZM-1 85.1197V79.68C8.0143 79.68 15.32 86.9858 15.32 96H9.88001C9.88001 89.9914 5.00837 85.1197 -1 85.1197ZM-1 96L-1 90.72C1.9171 90.72 4.28 93.0829 4.28 96H-1Z" fill="#0B0C0F"/>
<path d="M47 144L47 96H95C95 122.509 73.5092 144 47 144Z" fill="#0B0C0F"/>
<path fill-rule="evenodd" clip-rule="evenodd" d="M239 44.2402V48H242.76L287 3.76021V0L283.24 0L239 44.2402ZM287 11.52V19.023L258.023 48H250.52L287 11.52ZM287 33.9464V26.4L265.4 48L272.947 48L287 33.9464ZM287 48H280.28L287 41.28V48ZM275.48 0L267.977 0L239 28.977V36.48L275.48 0ZM253.053 0L260.6 0L239 21.6V14.0535L253.053 0ZM239 6.72L245.72 0L239 0V6.72Z" fill="#0B0C0F"/>
<path fill-rule="evenodd" clip-rule="evenodd" d="M239 284.24V288H242.76L287 243.76V240H283.24L239 284.24ZM287 251.52V259.023L258.023 288H250.52L287 251.52ZM287 273.946V266.4L265.4 288H272.947L287 273.946ZM287 288H280.28L287 281.28V288ZM275.48 240H267.977L239 268.977V276.48L275.48 240ZM253.053 240H260.6L239 261.6V254.054L253.053 240ZM239 246.72L245.72 240H239V246.72Z" fill="#0B0C0F"/>
</g>
<defs>
<clipPath id="clip0_5989_318230">
<rect width="384" height="384" fill="white" transform="matrix(0 -1 -1 0 335 384)"/>
</clipPath>
</defs>
</svg>
