<svg width="512" height="256" viewBox="0 0 512 256" fill="none" xmlns="http://www.w3.org/2000/svg" opacity="0.25">
<path fill-rule="evenodd" clip-rule="evenodd" d="M362.787 206.164V213.27H355.668V206.164H348.532V213.27H341.396V206.164H334.277V199.04H327.14V206.164H334.259V213.27H327.14V206.164H320V213.288H327.136V220.394H334.255V227.518H327.136V234.642H334.255V241.748H327.136V234.642H320V241.766H327.136V248.872H320V256H327.136V248.876H334.255V256H341.392V248.876H348.528V256H355.665V248.876H362.784H362.801V241.77H369.92V234.646H362.801V227.522H369.92V220.397H362.801V213.291H369.92V206.167H362.801V199.043H355.665V206.167H362.787V206.164ZM362.257 248.96H369.28V256H362.24V248.96H362.257ZM327.04 227.2H320V220.16H327.04V227.2ZM341.76 206.08H348.8V199.04H341.76V206.08ZM334.72 241.92V248.96H341.76V241.92H334.72ZM369.92 241.751H376.96V234.645H369.92V227.52H376.96V220.395H369.92V213.271H376.96V206.164H369.92V199.04H376.96V206.164H384V213.289H376.96V220.395H384V227.52H376.96V234.645H384V241.769H376.96V248.876H384V256H376.96V248.876H369.92V241.751ZM355.84 213.76H348.8V220.8H355.84V213.76ZM355.2 227.2H362.24V220.16H355.2V227.2ZM355.84 234.24V227.2H348.8V234.24H355.84ZM355.2 234.24V241.28H362.24V234.24H355.2ZM341.76 234.24V241.28H348.8V234.24H341.76ZM341.76 227.2H334.72V234.24H341.76V227.2ZM341.76 220.16V227.2H348.8V220.16H341.76ZM341.76 220.8V213.76H334.72V220.8H341.76ZM348.8 241.92H355.84V248.96H348.8V241.92ZM327.04 192V199.04H320V192H327.04ZM341.76 199.04V192H334.72V199.04H341.76ZM355.84 192V199.04H348.8V192H355.84ZM369.28 199.04V192H362.24V199.04H369.28ZM384 199.04V192H376.96V199.04H384Z" fill="#0B0C0F"/>
<path fill-rule="evenodd" clip-rule="evenodd" d="M320 71.04V64H384V71.04H320ZM320 78.72V85.76H384V78.72H320ZM320 92.16V99.2H384V92.16H320ZM320 113.28V106.24H384V113.28H320ZM320 120.96V128H384V120.96H320Z" fill="#0B0C0F"/>
<path fill-rule="evenodd" clip-rule="evenodd" d="M440.96 128H448V192H440.96V128ZM433.28 128H426.24V192H433.28V128ZM419.84 128H412.8V192H419.84V128ZM398.72 128H405.76V192H398.72V128ZM391.04 128H384V192H391.04V128Z" fill="#0B0C0F"/>
<path fill-rule="evenodd" clip-rule="evenodd" d="M320 7.11117V0C284.654 0 256 28.6542 256 64H263.111C263.111 32.5796 288.58 7.11117 320 7.11117ZM320 21.2115V14.08C292.43 14.08 270.08 36.4299 270.08 64H277.211C277.211 40.3699 296.37 21.2115 320 21.2115ZM320 28.8V35.84C304.449 35.84 291.84 48.4488 291.84 64H284.8C284.8 44.5593 300.559 28.8 320 28.8ZM320 49.4933V42.24C307.982 42.24 298.24 51.9814 298.24 64H305.493C305.493 55.9888 311.989 49.4933 320 49.4933ZM320 64V56.96C316.111 56.96 312.96 60.1105 312.96 64H320Z" fill="#0B0C0F"/>
<path fill-rule="evenodd" clip-rule="evenodd" d="M192 248.889V256C227.346 256 256 227.346 256 192H248.889C248.889 223.42 223.42 248.889 192 248.889ZM192 234.788V241.92C219.57 241.92 241.92 219.57 241.92 192H234.789C234.789 215.63 215.63 234.788 192 234.788ZM192 227.2V220.16C207.552 220.16 220.16 207.551 220.16 192H227.2C227.2 211.441 211.441 227.2 192 227.2ZM192 206.507V213.76C204.019 213.76 213.76 204.019 213.76 192H206.507C206.507 200.011 200.011 206.507 192 206.507ZM192 192V199.04C195.889 199.04 199.04 195.89 199.04 192H192Z" fill="#0B0C0F"/>
<path fill-rule="evenodd" clip-rule="evenodd" d="M455.111 64H448C448 99.3456 476.654 128 512 128V120.889C480.58 120.889 455.111 95.4203 455.111 64ZM469.212 64H462.08C462.08 91.5701 484.43 113.92 512 113.92V106.789C488.37 106.789 469.212 87.6301 469.212 64ZM476.8 64H483.84C483.84 79.5516 496.449 92.16 512 92.16V99.2C492.559 99.2 476.8 83.4411 476.8 64ZM497.493 64H490.24C490.24 76.0191 499.981 85.76 512 85.76V78.5067C503.989 78.5067 497.493 72.0112 497.493 64ZM512 64H504.96C504.96 67.8895 508.11 71.04 512 71.04V64Z" fill="#0B0C0F"/>
<path fill-rule="evenodd" clip-rule="evenodd" d="M512 199.111V192C476.654 192 448 220.654 448 256H455.111C455.111 224.58 480.58 199.111 512 199.111ZM512 213.212V206.08C484.43 206.08 462.08 228.43 462.08 256H469.211C469.211 232.37 488.37 213.212 512 213.212ZM512 220.8V227.84C496.448 227.84 483.84 240.449 483.84 256H476.8C476.8 236.559 492.559 220.8 512 220.8ZM512 241.493V234.24C499.981 234.24 490.24 243.981 490.24 256H497.493C497.493 247.989 503.989 241.493 512 241.493ZM512 256V248.96C508.111 248.96 504.96 252.11 504.96 256H512Z" fill="#0B0C0F"/>
<path fill-rule="evenodd" clip-rule="evenodd" d="M64 71.1112V64C99.3456 64 128 92.6542 128 128H120.889C120.889 96.5796 95.4203 71.1112 64 71.1112ZM64 85.2115V78.08C91.5701 78.08 113.92 100.43 113.92 128H106.789C106.789 104.37 87.6301 85.2115 64 85.2115ZM64 92.8V99.8401C79.5516 99.8401 92.16 112.449 92.16 128H99.2C99.2 108.559 83.4411 92.8 64 92.8ZM64 113.493L64 106.24C76.0191 106.24 85.76 115.981 85.76 128H78.5067C78.5067 119.989 72.0112 113.493 64 113.493ZM64 128V120.96C67.8895 120.96 71.04 124.11 71.04 128H64Z" fill="#0B0C0F"/>
<path d="M128 192L128 128H192C192 163.346 163.346 192 128 192Z" fill="#0B0C0F"/>
<path fill-rule="evenodd" clip-rule="evenodd" d="M5.01305 0H0V5.01352L58.9864 64H64V58.987L5.01305 0ZM48.64 64H38.636L0 25.3634V15.36L48.64 64ZM18.738 64H28.8L0 35.2V45.2623L18.738 64ZM0 64V55.04L8.96 64H0ZM64 48.64L64 38.6362L25.364 0H15.36L64 48.64ZM64 18.7377V28.8L35.2 0H45.262L64 18.7377ZM55.04 0L64 8.96V0H55.04Z" fill="#0B0C0F"/>
<path fill-rule="evenodd" clip-rule="evenodd" d="M384 58.9869V64H389.014L448 5.01362V0L442.987 0L384 58.9869ZM448 15.36V25.364L409.363 64H399.36L448 15.36ZM448 45.2619V35.2L419.2 64H429.262L448 45.2619ZM448 64H439.04L448 55.04V64ZM432.64 0L422.636 0L384 38.636V48.64L432.64 0ZM402.738 0L412.8 0L384 28.8V18.7381L402.738 0ZM384 8.96L392.96 0L384 0V8.96Z" fill="#0B0C0F"/>
</svg>
