<svg width="384" height="384" viewBox="0 0 384 384" fill="none" xmlns="http://www.w3.org/2000/svg">
<g clip-path="url(#clip0_5989_282799)">
<path fill-rule="evenodd" clip-rule="evenodd" d="M21.213 113.836V106.73H28.3317V113.836H35.4681L35.4681 106.73H42.6045L42.6045 113.836H49.7232V120.96H56.8596V113.836H49.7409L49.7409 106.73H56.8596L56.8596 113.836H64V106.712H56.8636V99.6059H49.7449V92.482H56.8636V85.3581H49.7449L49.7449 78.2518H56.8636L56.8636 85.3581H64V78.2336H56.8636V71.1279H64V64H56.8636V71.1239H49.7449V64H42.6079V71.1239H35.4715V64H28.3351V71.1239H21.2164H21.1987L21.1987 78.2302H14.08L14.08 85.3541H21.1987L21.1987 92.478H14.08V99.6025H21.1987L21.1987 106.709H14.08L14.08 113.833H21.1987L21.1987 120.957H28.3351L28.3351 113.833H21.213V113.836ZM21.7425 71.04H14.72L14.72 64H21.76V71.04H21.7425ZM56.96 92.8H64L64 99.84H56.96V92.8ZM42.24 113.92H35.2V120.96H42.24V113.92ZM49.28 78.08V71.04H42.24V78.08H49.28ZM14.08 78.2487H7.04L7.04 85.3554H14.08L14.08 92.4797H7.04L7.04 99.6046H14.08L14.08 106.729H7.04L7.04 113.836H14.08L14.08 120.96H7.04L7.04 113.836H0L0 106.711H7.04L7.04 99.6046H0L0 92.4797H7.04L7.04 85.3554H0L0 78.231H7.04L7.04 71.1243H0L0 64H7.04L7.04 71.1243H14.08L14.08 78.2487ZM28.16 106.24H35.2V99.2H28.16L28.16 106.24ZM28.8 92.8H21.76V99.84H28.8V92.8ZM28.16 85.76L28.16 92.8H35.2V85.76H28.16ZM28.8 85.76V78.72H21.76V85.76H28.8ZM42.24 85.76L42.24 78.72H35.2L35.2 85.76H42.24ZM42.24 92.8H49.28V85.76H42.24V92.8ZM42.24 99.84V92.8H35.2V99.84H42.24ZM42.24 99.2V106.24H49.28V99.2H42.24ZM35.2 78.08H28.16L28.16 71.04H35.2V78.08ZM56.96 128V120.96H64V128H56.96ZM42.24 120.96V128H49.28V120.96H42.24ZM28.16 128V120.96H35.2V128H28.16ZM14.72 120.96L14.72 128H21.76V120.96H14.72ZM0 120.96L0 128H7.04L7.04 120.96H0Z" fill="white"/>
<path fill-rule="evenodd" clip-rule="evenodd" d="M192 248.96V256H128L128 248.96H192ZM192 241.28V234.24H128V241.28H192ZM192 227.84V220.8H128V227.84H192ZM192 206.72V213.76H128V206.72H192ZM192 199.04V192H128V199.04H192Z" fill="#1F252E"/>
<path fill-rule="evenodd" clip-rule="evenodd" d="M256 376.96V384H192L192 376.96H256ZM256 369.28V362.24H192V369.28H256ZM256 355.84V348.8H192V355.84H256ZM256 334.72V341.76H192V334.72H256ZM256 327.04V320H192V327.04H256Z" fill="#1F252E"/>
<path fill-rule="evenodd" clip-rule="evenodd" d="M71.04 384H64L64 320H71.04L71.04 384ZM78.72 384H85.76L85.76 320H78.72L78.72 384ZM92.16 384H99.2L99.2 320H92.16L92.16 384ZM113.28 384H106.24L106.24 320H113.28L113.28 384ZM120.96 384H128V320H120.96L120.96 384Z" fill="#1F252E"/>
<path fill-rule="evenodd" clip-rule="evenodd" d="M71.04 64H64L64 0L71.04 0L71.04 64ZM78.72 64H85.76L85.76 0L78.72 0L78.72 64ZM92.16 64H99.2L99.2 0L92.16 0L92.16 64ZM113.28 64H106.24L106.24 0L113.28 0L113.28 64ZM120.96 64H128V0L120.96 0L120.96 64Z" fill="#1F252E"/>
<path fill-rule="evenodd" clip-rule="evenodd" d="M320 263.111V256C284.654 256 256 284.654 256 320H263.111C263.111 288.58 288.58 263.111 320 263.111ZM320 277.212V270.08C292.43 270.08 270.08 292.43 270.08 320H277.211C277.211 296.37 296.37 277.212 320 277.212ZM320 284.8V291.84C304.448 291.84 291.84 304.449 291.84 320H284.8C284.8 300.559 300.559 284.8 320 284.8ZM320 305.493V298.24C307.981 298.24 298.24 307.981 298.24 320H305.493C305.493 311.989 311.989 305.493 320 305.493ZM320 320V312.96C316.111 312.96 312.96 316.11 312.96 320H320Z" fill="white"/>
<path fill-rule="evenodd" clip-rule="evenodd" d="M0 248.889V256C35.3456 256 64 227.346 64 192H56.8889C56.8889 223.42 31.4203 248.889 0 248.889ZM0 234.788V241.92C27.5701 241.92 49.92 219.57 49.92 192H42.7886C42.7886 215.63 23.6301 234.788 0 234.788ZM0 227.2L0 220.16C15.5516 220.16 28.16 207.551 28.16 192H35.2C35.2 211.441 19.4411 227.2 0 227.2ZM0 206.507V213.76C12.0191 213.76 21.76 204.019 21.76 192H14.5067C14.5067 200.011 8.01116 206.507 0 206.507ZM0 192V199.04C3.88946 199.04 7.04 195.89 7.04 192H0Z" fill="#1F252E"/>
<path fill-rule="evenodd" clip-rule="evenodd" d="M64 263.111V256C28.6544 256 0 284.654 0 320H7.11111C7.11111 288.58 32.5797 263.111 64 263.111ZM64 277.212L64 270.08C36.4299 270.08 14.08 292.43 14.08 320H21.2114C21.2114 296.37 40.3699 277.212 64 277.212ZM64 284.8V291.84C48.4484 291.84 35.84 304.449 35.84 320H28.8C28.8 300.559 44.5589 284.8 64 284.8ZM64 305.493V298.24C51.9809 298.24 42.24 307.981 42.24 320H49.4933C49.4933 311.989 55.9888 305.493 64 305.493ZM64 320L64 312.96C60.1105 312.96 56.96 316.11 56.96 320H64Z" fill="#4038FF"/>
<path d="M384 320V384H320C320 348.654 348.654 320 384 320Z" fill="#1F252E"/>
<path fill-rule="evenodd" clip-rule="evenodd" d="M128 133.013V128H122.986L64 186.986V192H69.0129L128 133.013ZM64 176.64V166.636L102.637 128H112.64L64 176.64ZM64 146.738L64 156.8L92.8 128H82.7376L64 146.738ZM64 128H72.96L64 136.96L64 128ZM79.36 192H89.3638L128 153.364L128 143.36L79.36 192ZM109.262 192H99.2L128 163.2L128 173.262L109.262 192ZM128 183.04L119.04 192H128V183.04Z" fill="#1F252E"/>
</g>
<defs>
<clipPath id="clip0_5989_282799">
<rect width="384" height="384" fill="white" transform="matrix(0 1 1 0 0 0)"/>
</clipPath>
</defs>
</svg>
