<svg width="384" height="256" viewBox="0 0 384 256" fill="none" xmlns="http://www.w3.org/2000/svg">
<g clip-path="url(#clip0_5965_280755)">
<path fill-rule="evenodd" clip-rule="evenodd" d="M362.787 142.164V149.27H355.668V142.164H348.532V149.27H341.396V142.164H334.277V135.04H327.14V142.164H334.259V149.27H327.14V142.164H320V149.288H327.136V156.394H334.255V163.518H327.136V170.642H334.255V177.748H327.136V170.642H320V177.766H327.136V184.872H320V192H327.136V184.876H334.255V192H341.392V184.876H348.528V192H355.665V184.876H362.784H362.801V177.77H369.92V170.646H362.801V163.522H369.92V156.397H362.801V149.291H369.92V142.167H362.801V135.043H355.665V142.167H362.787V142.164ZM362.257 184.96H369.28V192H362.24V184.96H362.257ZM327.04 163.2H320V156.16H327.04V163.2ZM341.76 142.08H348.8V135.04H341.76V142.08ZM334.72 177.92V184.96H341.76V177.92H334.72ZM369.92 177.751H376.96V170.645H369.92V163.52H376.96V156.395H369.92V149.271H376.96V142.164H369.92V135.04H376.96V142.164H384V149.289H376.96V156.395H384V163.52H376.96V170.645H384V177.769H376.96V184.876H384V192H376.96V184.876H369.92V177.751ZM355.84 149.76H348.8V156.8H355.84V149.76ZM355.2 163.2H362.24V156.16H355.2V163.2ZM355.84 170.24V163.2H348.8V170.24H355.84ZM355.2 170.24V177.28H362.24V170.24H355.2ZM341.76 170.24V177.28H348.8V170.24H341.76ZM341.76 163.2H334.72V170.24H341.76V163.2ZM341.76 156.16V163.2H348.8V156.16H341.76ZM341.76 156.8V149.76H334.72V156.8H341.76ZM348.8 177.92H355.84V184.96H348.8V177.92ZM327.04 128V135.04H320V128H327.04ZM341.76 135.04V128H334.72V135.04H341.76ZM355.84 128V135.04H348.8V128H355.84ZM369.28 135.04V128H362.24V135.04H369.28ZM384 135.04V128H376.96V135.04H384Z" fill="white"/>
<path fill-rule="evenodd" clip-rule="evenodd" d="M256 71.04V64H320V71.04H256ZM256 78.72V85.76H320V78.72H256ZM256 92.16V99.2H320V92.16H256ZM256 113.28V106.24H320V113.28H256ZM256 120.96V128H320V120.96H256Z" fill="#5252FF"/>
<path fill-rule="evenodd" clip-rule="evenodd" d="M256 7.11117L256 0C220.654 0 192 28.6542 192 64H199.111C199.111 32.5796 224.58 7.11117 256 7.11117ZM256 21.2115V14.08C228.43 14.08 206.08 36.4299 206.08 64H213.211C213.211 40.3699 232.37 21.2115 256 21.2115ZM256 28.8V35.84C240.449 35.84 227.84 48.4488 227.84 64H220.8C220.8 44.5593 236.559 28.8 256 28.8ZM256 49.4933V42.24C243.982 42.24 234.24 51.9814 234.24 64H241.493C241.493 55.9888 247.989 49.4933 256 49.4933ZM256 64V56.96C252.111 56.96 248.96 60.1105 248.96 64H256Z" fill="white"/>
<path fill-rule="evenodd" clip-rule="evenodd" d="M256 248.889V256C291.346 256 320 227.346 320 192H312.889C312.889 223.42 287.42 248.889 256 248.889ZM256 234.788V241.92C283.57 241.92 305.92 219.57 305.92 192H298.789C298.789 215.63 279.63 234.788 256 234.788ZM256 227.2V220.16C271.552 220.16 284.16 207.551 284.16 192H291.2C291.2 211.441 275.441 227.2 256 227.2ZM256 206.507V213.76C268.019 213.76 277.76 204.019 277.76 192H270.507C270.507 200.011 264.011 206.507 256 206.507ZM256 192V199.04C259.889 199.04 263.04 195.89 263.04 192H256Z" fill="#5252FF"/>
<path fill-rule="evenodd" clip-rule="evenodd" d="M128 71.1112V64C163.346 64 192 92.6542 192 128H184.889C184.889 96.5796 159.42 71.1112 128 71.1112ZM128 85.2115V78.08C155.57 78.08 177.92 100.43 177.92 128H170.789C170.789 104.37 151.63 85.2115 128 85.2115ZM128 92.8V99.8401C143.552 99.8401 156.16 112.449 156.16 128H163.2C163.2 108.559 147.441 92.8 128 92.8ZM128 113.493V106.24C140.019 106.24 149.76 115.981 149.76 128H142.507C142.507 119.989 136.011 113.493 128 113.493ZM128 128V120.96C131.889 120.96 135.04 124.11 135.04 128H128Z" fill="#5252FF"/>
<path d="M192 192V128H256C256 163.346 227.346 192 192 192Z" fill="#261EE4"/>
<path fill-rule="evenodd" clip-rule="evenodd" d="M69.0131 0H64V5.01352L122.986 64H128V58.987L69.0131 0ZM112.64 64H102.636L64 25.3634V15.36L112.64 64ZM82.738 64H92.8L64 35.2V45.2623L82.738 64ZM64 64V55.04L72.96 64H64ZM128 48.64V38.6362L89.364 0H79.36L128 48.64ZM128 18.7377V28.8L99.2 0H109.262L128 18.7377ZM119.04 0L128 8.96V0H119.04Z" fill="#261EE4"/>
</g>
<defs>
<clipPath id="clip0_5965_280755">
<rect width="256" height="384" fill="white" transform="matrix(0 -1 -1 0 384 256)"/>
</clipPath>
</defs>
</svg>
