<svg width="192" height="192" viewBox="0 0 192 192" fill="none" xmlns="http://www.w3.org/2000/svg">
<g clip-path="url(#clip0_5965_280749)">
<path fill-rule="evenodd" clip-rule="evenodd" d="M21.213 113.836V106.73H28.3317V113.836H35.4681L35.4681 106.73H42.6045L42.6045 113.836H49.7232V120.96H56.8596V113.836H49.7409L49.7409 106.73H56.8596L56.8596 113.836H64L64 106.712H56.8636V99.6059H49.7449V92.482H56.8636V85.3581H49.7449L49.7449 78.2518H56.8636L56.8636 85.3581H64L64 78.2336H56.8636V71.1279H64V64H56.8636V71.1239H49.7449V64H42.6079V71.1239H35.4715V64H28.3351V71.1239H21.2164H21.1987L21.1987 78.2302H14.08L14.08 85.3541H21.1987L21.1987 92.478H14.08V99.6025H21.1987L21.1987 106.709H14.08L14.08 113.833H21.1987L21.1987 120.957H28.3351L28.3351 113.833H21.213V113.836ZM21.7426 71.04H14.72L14.72 64H21.76V71.04H21.7426ZM56.96 92.8H64V99.84H56.96V92.8ZM42.24 113.92H35.2V120.96H42.24V113.92ZM49.28 78.08V71.04H42.24V78.08H49.28ZM14.08 78.2487H7.04L7.04 85.3554H14.08L14.08 92.4797H7.04L7.04 99.6046H14.08L14.08 106.729H7.04L7.04 113.836H14.08L14.08 120.96H7.04L7.04 113.836H0L0 106.711H7.04L7.04 99.6046H0L0 92.4797H7.04L7.04 85.3554H0L0 78.231H7.04L7.04 71.1243H0L0 64H7.04L7.04 71.1243H14.08L14.08 78.2487ZM28.16 106.24H35.2V99.2H28.16L28.16 106.24ZM28.8 92.8H21.76V99.84H28.8V92.8ZM28.16 85.76L28.16 92.8H35.2V85.76H28.16ZM28.8 85.76V78.72H21.76V85.76H28.8ZM42.24 85.76L42.24 78.72H35.2L35.2 85.76H42.24ZM42.24 92.8H49.28V85.76H42.24V92.8ZM42.24 99.84V92.8H35.2V99.84H42.24ZM42.24 99.2V106.24H49.28V99.2H42.24ZM35.2 78.08H28.16L28.16 71.04H35.2V78.08ZM56.96 128V120.96H64V128H56.96ZM42.24 120.96V128H49.28V120.96H42.24ZM28.16 128V120.96H35.2V128H28.16ZM14.72 120.96L14.72 128H21.76V120.96H14.72ZM0 120.96L0 128H7.04L7.04 120.96H0Z" fill="white"/>
<path fill-rule="evenodd" clip-rule="evenodd" d="M192 120.96V128H128L128 120.96H192ZM192 113.28V106.24H128V113.28H192ZM192 99.84V92.8H128V99.84H192ZM192 78.72V85.76H128V78.72H192ZM192 71.04V64H128V71.04H192Z" fill="#261EE4"/>
<path fill-rule="evenodd" clip-rule="evenodd" d="M71.04 64H64L64 0L71.04 0L71.04 64ZM78.72 64H85.76L85.76 0L78.72 0L78.72 64ZM92.16 64H99.2L99.2 0L92.16 0L92.16 64ZM113.28 64H106.24L106.24 0L113.28 0L113.28 64ZM120.96 64H128L128 0L120.96 0L120.96 64Z" fill="#261EE4"/>
<path fill-rule="evenodd" clip-rule="evenodd" d="M128 184.889L128 192C163.346 192 192 163.346 192 128H184.889C184.889 159.42 159.42 184.889 128 184.889ZM128 170.788V177.92C155.57 177.92 177.92 155.57 177.92 128H170.789C170.789 151.63 151.63 170.788 128 170.788ZM128 163.2V156.16C143.551 156.16 156.16 143.551 156.16 128H163.2C163.2 147.441 147.441 163.2 128 163.2ZM128 142.507V149.76C140.018 149.76 149.76 140.019 149.76 128H142.507C142.507 136.011 136.011 142.507 128 142.507ZM128 128V135.04C131.889 135.04 135.04 131.89 135.04 128H128Z" fill="white"/>
<path fill-rule="evenodd" clip-rule="evenodd" d="M128 133.013V128H122.986L64 186.986V192H69.0129L128 133.013ZM64 176.64V166.636L102.637 128H112.64L64 176.64ZM64 146.738L64 156.8L92.8 128H82.7376L64 146.738ZM64 128H72.96L64 136.96L64 128ZM79.36 192H89.3638L128 153.364L128 143.36L79.36 192ZM109.262 192H99.2L128 163.2L128 173.262L109.262 192ZM128 183.04L119.04 192H128V183.04Z" fill="#261EE4"/>
</g>
<defs>
<clipPath id="clip0_5965_280749">
<rect width="192" height="192" fill="white" transform="matrix(0 1 1 0 0 0)"/>
</clipPath>
</defs>
</svg>
