<svg width="41" height="32" viewBox="0 0 41 32" fill="none" xmlns="http://www.w3.org/2000/svg">
<g id="Group 3">
<path id="Vector" d="M34.3617 3.29298C31.8122 2.12318 29.0783 1.26132 26.2198 0.767696C26.1678 0.758169 26.1158 0.781977 26.089 0.829594C25.7374 1.45495 25.3479 2.27078 25.0752 2.91202C22.0007 2.45174 18.942 2.45174 15.9305 2.91202C15.6577 2.25653 15.2541 1.45495 14.901 0.829594C14.8741 0.783566 14.8221 0.759758 14.7701 0.767696C11.9132 1.25974 9.17927 2.1216 6.62823 3.29298C6.60614 3.3025 6.58721 3.31839 6.57465 3.33901C1.38899 11.0863 -0.0315838 18.6431 0.6653 26.1063C0.668453 26.1428 0.68895 26.1777 0.71733 26.1999C4.13868 28.7125 7.45285 30.2378 10.7055 31.2489C10.7575 31.2648 10.8127 31.2457 10.8458 31.2028C11.6152 30.1521 12.3011 29.0443 12.8891 27.8792C12.9238 27.811 12.8907 27.73 12.8198 27.703C11.7319 27.2903 10.696 26.7872 9.69955 26.2158C9.62073 26.1698 9.61442 26.057 9.68693 26.0031C9.89662 25.8459 10.1064 25.6824 10.3066 25.5174C10.3428 25.4872 10.3933 25.4809 10.4359 25.4999C16.9821 28.4887 24.0692 28.4887 30.5383 25.4999C30.5808 25.4793 30.6313 25.4857 30.6691 25.5158C30.8694 25.6809 31.0791 25.8459 31.2904 26.0031C31.3629 26.057 31.3581 26.1698 31.2793 26.2158C30.2829 26.7983 29.247 27.2903 28.1575 27.7014C28.0866 27.7284 28.055 27.811 28.0897 27.8792C28.6904 29.0426 29.3763 30.1505 30.1315 31.2013C30.163 31.2457 30.2198 31.2648 30.2718 31.2489C33.5402 30.2378 36.8544 28.7125 40.2757 26.1999C40.3057 26.1777 40.3246 26.1444 40.3278 26.1079C41.1618 17.4796 38.9308 9.98476 34.4137 3.34059C34.4026 3.31839 34.3838 3.3025 34.3617 3.29298Z" fill="#5865F2"/>
<g id="Vector_2">
<path d="M10.2719 17.5305C10.2719 19.7526 11.8958 21.562 13.8667 21.562C15.869 21.562 17.4614 19.7526 17.4614 17.5305C17.493 15.3242 15.8848 13.4989 13.8667 13.4989C11.8643 13.4989 10.2719 15.3083 10.2719 17.5305Z" fill="#080A0F"/>
<path d="M23.5631 17.5305C23.5631 19.7526 25.1871 21.562 27.1579 21.562C29.176 21.562 30.7527 19.7526 30.7527 17.5305C30.7842 15.3242 29.176 13.4989 27.1579 13.4989C25.1555 13.4989 23.5631 15.3083 23.5631 17.5305Z" fill="#080A0F"/>
</g>
</g>
</svg>
