<svg width="88" height="26" viewBox="0 0 88 26" fill="none" xmlns="http://www.w3.org/2000/svg">
<g clip-path="url(#clip0_1832_564721)">
<path d="M20.8266 13L10.8533 0H19.0981C20.1883 0 21.2169 0.508746 21.8835 1.37759L30.5066 12.6176L30.0578 13H20.8266Z" fill="url(#paint0_linear_1832_564721)"/>
<path d="M20.8266 13L10.8533 0H19.0981C20.1883 0 21.2169 0.508746 21.8835 1.37759L30.5066 12.6176L30.0578 13H20.8266Z" fill="url(#paint1_radial_1832_564721)"/>
<path d="M20.8266 13H11.5954L11.3066 13.5909L14.3154 17.5128C15.2133 18.6832 15.2133 20.3168 14.3154 21.4872L10.8533 26H19.0981C20.1883 26 21.2169 25.4913 21.8835 24.6224L24.0115 21.8485C25.0727 20.4653 25.0727 18.5347 24.0115 17.1515L20.8266 13Z" fill="url(#paint2_linear_1832_564721)"/>
<path d="M9.93491 0C8.84867 0 7.82328 0.50513 7.15639 1.36875L1.44071 8.77062C0.506955 9.97985 0 11.4681 0 13C0 14.5319 0.506955 16.0201 1.44071 17.2294L7.15639 24.6312C7.82328 25.4949 8.84867 26 9.93491 26H19.0982C19.2344 26 19.3696 25.9921 19.5032 25.9765C18.5706 25.8677 17.713 25.3866 17.1297 24.6312L10.8892 16.5497C10.1055 15.5348 9.68 14.2857 9.68 13C9.68 11.7143 10.1055 10.4652 10.8892 9.45034L17.1297 1.36876C17.713 0.613384 18.5706 0.132266 19.5032 0.023521C19.3696 0.00793687 19.2344 0 19.0982 0H9.93491Z" fill="url(#paint3_linear_1832_564721)"/>
<path d="M9.93491 0C8.84867 0 7.82328 0.50513 7.15639 1.36875L1.44071 8.77062C0.506955 9.97985 0 11.4681 0 13C0 14.5319 0.506955 16.0201 1.44071 17.2294L7.15639 24.6312C7.82328 25.4949 8.84867 26 9.93491 26H19.0982C19.2344 26 19.3696 25.9921 19.5032 25.9765C18.5706 25.8677 17.713 25.3866 17.1297 24.6312L10.8892 16.5497C10.1055 15.5348 9.68 14.2857 9.68 13C9.68 11.7143 10.1055 10.4652 10.8892 9.45034L17.1297 1.36876C17.713 0.613384 18.5706 0.132266 19.5032 0.023521C19.3696 0.00793687 19.2344 0 19.0982 0H9.93491Z" fill="url(#paint4_radial_1832_564721)" fill-opacity="0.5"/>
<path d="M20.8268 13H11.5962L11.3081 13.5909H20.5387L20.8268 13Z" fill="url(#paint5_linear_1832_564721)"/>
<path d="M11.3561 13.4922H20.5867L20.5387 13.5907H11.3081L11.3561 13.4922Z" fill="#2F2BAD"/>
<path d="M19.1316 0C20.2093 0.0103074 21.2237 0.517494 21.8835 1.37744L30.5066 12.6175L30.0584 12.9998L21.4192 1.73875C20.8706 1.02361 20.0276 0.601221 19.1316 0.590941C18.2388 0.601185 17.3985 1.02063 16.8496 1.7315L10.8882 9.45239C10.1051 10.4667 9.67993 11.7149 9.67993 12.9998C9.67993 14.2847 10.1051 15.533 10.8882 16.5473L16.8496 24.2682C17.3985 24.9791 18.2388 25.3985 19.1316 25.4087C20.0276 25.3985 20.8706 24.9761 21.4192 24.2609L23.5473 21.487C24.4452 20.3166 24.4452 18.6831 23.5473 17.5126L20.5385 13.5907L20.8266 12.9998L24.0115 17.1513C25.0727 18.5346 25.0727 20.4651 24.0115 21.8484L21.8835 24.6222C21.2237 25.4822 20.2093 25.9894 19.1316 25.9997C18.0578 25.9894 17.0465 25.4858 16.3865 24.6309L10.4251 16.9101C9.56192 15.792 9.09326 14.4161 9.09326 12.9998C9.09326 11.5835 9.56192 10.2076 10.4251 9.08963L16.3865 1.36874C17.0465 0.513916 18.0578 0.010271 19.1316 0Z" fill="url(#paint6_linear_1832_564721)"/>
<path d="M19.1806 0.000809563C19.1643 0.000426105 19.148 0.000156084 19.1316 0C18.0578 0.010271 17.0465 0.513916 16.3865 1.36874L10.4251 9.08963C9.56192 10.2076 9.09326 11.5835 9.09326 12.9998C9.09326 14.4161 9.56192 15.792 10.4251 16.9101L16.3865 24.6309C17.0465 25.4858 18.0578 25.9894 19.1316 25.9997C19.148 25.9995 19.1643 25.9993 19.1806 25.9989C18.125 25.974 17.1343 25.4728 16.4843 24.6309L10.523 16.9101C9.65974 15.792 9.19109 14.4161 9.19109 12.9998C9.19109 11.5835 9.65974 10.2076 10.523 9.08963L16.4843 1.36874C17.1343 0.526906 18.125 0.0256594 19.1806 0.000809563Z" fill="url(#paint7_linear_1832_564721)"/>
<path d="M30.1175 12.9494L21.5171 1.73875C20.9684 1.02361 20.1254 0.601221 19.2295 0.590941C19.2131 0.591128 19.1968 0.591452 19.1806 0.591912C20.0582 0.616708 20.8806 1.03664 21.4192 1.73875L30.0584 12.9998L30.1175 12.9494Z" fill="url(#paint8_linear_1832_564721)"/>
<path d="M19.1806 25.4078C19.1968 25.4082 19.2131 25.4086 19.2295 25.4087C20.1254 25.3985 20.9684 24.9761 21.5171 24.2609L23.6451 21.487C24.5431 20.3166 24.5431 18.6831 23.6451 17.5126L20.6363 13.5907L20.8864 13.0778L20.8266 12.9998L20.5385 13.5907L23.5473 17.5126C24.4452 18.6831 24.4452 20.3166 23.5473 21.487L21.4192 24.2609C20.8806 24.963 20.0582 25.383 19.1806 25.4078Z" fill="url(#paint9_linear_1832_564721)"/>
<path d="M50.519 4.0625H48.1726V19.4261H50.519V4.0625Z" fill="white"/>
<path fill-rule="evenodd" clip-rule="evenodd" d="M35.134 13.3624C35.1358 15.139 35.6425 16.5837 36.6544 17.6965V17.6991C37.1422 18.2334 37.7377 18.6566 38.401 18.9404C39.0643 19.2242 39.7801 19.3621 40.5005 19.3448C41.3002 19.3353 42.0845 19.1215 42.7798 18.7235C43.0344 18.5654 43.2722 18.3816 43.4897 18.1749C43.6434 18.0361 43.7891 17.8886 43.9259 17.7329C43.9776 17.6724 44.0259 17.609 44.0704 17.5431H44.184V21.5357H37.1434V23.6807H44.5856C45.6597 23.6807 46.5304 22.8037 46.5304 21.7218V7.60867H44.184V9.07764H44.0704L43.7168 8.64085C43.3444 8.28786 42.9126 8.00438 42.4416 7.80367C41.8338 7.51636 41.1693 7.37147 40.4979 7.37988C39.7781 7.36341 39.0631 7.50327 38.4016 7.78994C37.7402 8.07662 37.1478 8.50339 36.6647 9.04124C35.6425 10.1454 35.1323 11.5857 35.134 13.3624ZM37.2687 13.365C37.2687 12.1932 37.5888 11.2607 38.229 10.5674C38.894 9.90138 39.7937 9.52753 40.7316 9.52753C41.6694 9.52753 42.5691 9.90138 43.2341 10.5674C43.8743 11.259 44.1952 12.1915 44.1969 13.365C44.1986 14.5384 43.8777 15.4718 43.2341 16.1651C42.5684 16.8299 41.669 17.2029 40.7316 17.2029C39.7941 17.2029 38.8947 16.8299 38.229 16.1651C37.5888 15.4701 37.2687 14.5367 37.2687 13.365Z" fill="white"/>
<path fill-rule="evenodd" clip-rule="evenodd" d="M65.3055 15.6728C65.5939 16.4065 66.0264 17.0723 66.5764 17.6293C67.4041 18.4557 68.452 19.0151 69.5895 19.2378C70.7269 19.4605 71.9035 19.3366 72.9723 18.8815C74.0411 18.4264 74.9549 17.6603 75.5995 16.6788C75.8286 16.3299 76.0202 15.9593 76.1721 15.5734H73.6484C73.5267 15.7861 73.3837 15.9826 73.2194 16.1629C72.562 16.8277 71.6737 17.2007 70.748 17.2007C69.8223 17.2007 68.9341 16.8277 68.2767 16.1629C67.7919 15.6299 67.4925 14.9567 67.3784 14.1434L76.5431 14.1434C76.5775 13.8856 76.5956 13.6248 76.5969 13.3627C76.6132 12.5688 76.4739 11.7795 76.1873 11.0412C75.9006 10.3029 75.4724 9.63042 74.9277 9.06309C74.3829 8.49577 73.7327 8.04504 73.015 7.73733C72.2973 7.42963 71.5266 7.27113 70.748 7.27113C69.9695 7.27113 69.1988 7.42963 68.4811 7.73733C67.7634 8.04504 67.1131 8.49577 66.5684 9.06309C66.0236 9.63042 65.5954 10.3029 65.3088 11.0412C65.0221 11.7795 64.8829 12.5688 64.8991 13.3627C64.8788 14.1529 65.017 14.939 65.3055 15.6728ZM67.4963 11.9984C67.6511 11.4415 67.9112 10.9638 68.2767 10.5651C68.9334 9.89904 69.8219 9.52517 70.748 9.52517C71.6741 9.52517 72.5626 9.89904 73.2194 10.5651C73.5832 10.9631 73.8423 11.4408 73.9967 11.9984H67.4963Z" fill="white"/>
<path fill-rule="evenodd" clip-rule="evenodd" d="M53.7607 17.6293C53.2107 17.0723 52.7782 16.4065 52.4898 15.6728C52.2013 14.939 52.063 14.1529 52.0834 13.3627C52.0671 12.5688 52.2064 11.7795 52.493 11.0412C52.7797 10.3029 53.2079 9.63042 53.7526 9.06309C54.2974 8.49577 54.9476 8.04504 55.6653 7.73734C56.383 7.42963 57.1537 7.27113 57.9323 7.27113C58.7108 7.27113 59.4815 7.42963 60.1992 7.73734C60.9169 8.04504 61.5672 8.49577 62.1119 9.06309C62.6567 9.63042 63.0849 10.3029 63.3715 11.0412C63.6582 11.7795 63.7975 12.5688 63.7812 13.3627C63.7799 13.6248 63.7618 13.8856 63.7273 14.1434L54.5627 14.1434C54.6767 14.9567 54.9762 15.6299 55.4609 16.1629C56.1183 16.8277 57.0066 17.2007 57.9323 17.2007C58.858 17.2007 59.7463 16.8277 60.4036 16.1629C60.568 15.9826 60.711 15.7861 60.8326 15.5734H63.3564C63.2044 15.9593 63.0129 16.3299 62.7837 16.6788C62.1391 17.6603 61.2254 18.4264 60.1566 18.8815C59.0877 19.3366 57.9112 19.4605 56.7737 19.2378C55.6363 19.0151 54.5883 18.4557 53.7607 17.6293ZM55.4609 10.5651C55.0955 10.9638 54.8353 11.4415 54.6806 11.9984H61.181C61.0266 11.4408 60.7674 10.9631 60.4036 10.5651C59.7469 9.89904 58.8584 9.52518 57.9323 9.52518C57.0062 9.52518 56.1177 9.89904 55.4609 10.5651Z" fill="white"/>
<path d="M76.8533 7.60702H79.3133L81.8224 17.0632H82.9401L85.4492 7.60702H87.9092C87.5444 8.94312 87.1799 10.2793 86.8154 11.6155C86.105 14.2192 85.3947 16.823 84.6824 19.4261H80.08L76.8533 7.60702Z" fill="white"/>
</g>
<defs>
<linearGradient id="paint0_linear_1832_564721" x1="20.6799" y1="0" x2="20.6799" y2="13" gradientUnits="userSpaceOnUse">
<stop offset="0.0536645" stop-color="#181759"/>
<stop offset="0.1875" stop-color="#242189"/>
<stop offset="1" stop-color="#201D7F"/>
</linearGradient>
<radialGradient id="paint1_radial_1832_564721" cx="0" cy="0" r="1" gradientUnits="userSpaceOnUse" gradientTransform="translate(15.2533 -1.09306e-06) rotate(67.3426) scale(14.0872 12.5112)">
<stop stop-color="#111048"/>
<stop offset="0.636996" stop-color="#111048" stop-opacity="0"/>
</radialGradient>
<linearGradient id="paint2_linear_1832_564721" x1="18.3333" y1="26" x2="18.3333" y2="13" gradientUnits="userSpaceOnUse">
<stop stop-color="#3836A6"/>
<stop offset="0.184295" stop-color="#242291"/>
<stop offset="0.388422" stop-color="#2B29A3"/>
<stop offset="0.478039" stop-color="#3330B7"/>
<stop offset="0.598793" stop-color="#3330B7"/>
<stop offset="0.729654" stop-color="#201E8E"/>
</linearGradient>
<linearGradient id="paint3_linear_1832_564721" x1="9.97333" y1="0" x2="9.97333" y2="26" gradientUnits="userSpaceOnUse">
<stop stop-color="#AFADF2"/>
<stop offset="0.0660341" stop-color="#504DC7"/>
<stop offset="0.29271" stop-color="#3834AC"/>
<stop offset="0.38355" stop-color="#2F2BAE"/>
<stop offset="0.480862" stop-color="#332FB6"/>
<stop offset="0.562202" stop-color="#2F2BAF"/>
<stop offset="0.653042" stop-color="#1F1C80"/>
<stop offset="0.937093" stop-color="#1A1871"/>
<stop offset="1" stop-color="#0D0C31"/>
</linearGradient>
<radialGradient id="paint4_radial_1832_564721" cx="0" cy="0" r="1" gradientUnits="userSpaceOnUse" gradientTransform="translate(19.9467) rotate(146.906) scale(23.809 18.4519)">
<stop stop-color="#BDBBEF"/>
<stop offset="0.697917" stop-color="#9896DF" stop-opacity="0"/>
</radialGradient>
<linearGradient id="paint5_linear_1832_564721" x1="11.2934" y1="13.2955" x2="20.6801" y2="13.2955" gradientUnits="userSpaceOnUse">
<stop stop-color="white"/>
<stop offset="0.0001" stop-color="#222085"/>
<stop offset="1" stop-color="#3532A9"/>
</linearGradient>
<linearGradient id="paint6_linear_1832_564721" x1="9.09326" y1="-0.000162158" x2="30.6896" y2="25.8469" gradientUnits="userSpaceOnUse">
<stop stop-color="#6159E4"/>
<stop offset="1" stop-color="#4A43D5"/>
</linearGradient>
<linearGradient id="paint7_linear_1832_564721" x1="19.6054" y1="0" x2="19.6054" y2="25.9997" gradientUnits="userSpaceOnUse">
<stop stop-color="#958AFF"/>
<stop offset="0.5" stop-color="#958AFF"/>
<stop offset="1" stop-color="#958AFF"/>
</linearGradient>
<linearGradient id="paint8_linear_1832_564721" x1="19.6054" y1="0" x2="19.6054" y2="25.9997" gradientUnits="userSpaceOnUse">
<stop stop-color="#958AFF"/>
<stop offset="0.5" stop-color="#958AFF"/>
<stop offset="1" stop-color="#958AFF"/>
</linearGradient>
<linearGradient id="paint9_linear_1832_564721" x1="19.6054" y1="0" x2="19.6054" y2="25.9997" gradientUnits="userSpaceOnUse">
<stop stop-color="#958AFF"/>
<stop offset="0.5" stop-color="#958AFF"/>
<stop offset="1" stop-color="#958AFF"/>
</linearGradient>
<clipPath id="clip0_1832_564721">
<rect width="88" height="26" fill="white"/>
</clipPath>
</defs>
</svg>
