<svg width="16" height="16" viewBox="0 0 16 16" fill="none" xmlns="http://www.w3.org/2000/svg">
<g id="Read">
<g id="Vector">
<path fill-rule="evenodd" clip-rule="evenodd" d="M2 6.53548C2 6.20113 2.1671 5.8889 2.4453 5.70343L7.4453 2.3701C7.7812 2.14617 8.2188 2.14617 8.5547 2.3701L13.5547 5.70343C13.8329 5.8889 14 6.20113 14 6.53548V13.0003C14 13.5526 13.5523 14.0003 13 14.0003H3C2.44772 14.0003 2 13.5526 2 13.0003V6.53548ZM7.38955 11.7924C7.74929 12.0696 8.25067 12.0696 8.6104 11.7924L11.8104 9.32626C12.2478 8.98913 12.3292 8.36121 11.992 7.92376C11.6549 7.48631 11.027 7.40498 10.5895 7.74211L7.99998 9.73779L5.41041 7.74211C4.97296 7.40498 4.34504 7.48631 4.00791 7.92376C3.67079 8.36121 3.75211 8.98913 4.18957 9.32626L7.38955 11.7924Z" fill="#F4F6F8"/>
</g>
</g>
</svg>
