<svg width="40" height="40" viewBox="0 0 40 40" fill="none" xmlns="http://www.w3.org/2000/svg">
<g id="Telegram">
<path id="Vector" d="M20.0002 36.669C29.2049 36.669 36.6668 29.2066 36.6668 20.0012C36.6668 10.7959 29.2049 3.3335 20.0002 3.3335C10.7954 3.3335 3.3335 10.7959 3.3335 20.0012C3.3335 29.2066 10.7954 36.669 20.0002 36.669Z" fill="url(#paint0_linear_3088_143770)"/>
<path id="Vector_2" d="M10.8776 19.8251C15.7363 17.7081 18.9761 16.3125 20.5972 15.6382C25.2257 13.7129 26.1875 13.3785 26.8143 13.3673C26.9522 13.365 27.2605 13.3992 27.4602 13.5612C27.6288 13.698 27.6752 13.8829 27.6974 14.0126C27.7196 14.1423 27.7472 14.4378 27.7253 14.6687C27.4744 17.3043 26.3891 23.7001 25.837 26.652C25.6034 27.901 25.1433 28.3198 24.698 28.3608C23.7301 28.4499 22.9952 27.7212 22.0577 27.1066C20.5909 26.145 19.7622 25.5464 18.3383 24.608C16.6928 23.5236 17.7595 22.9275 18.6973 21.9535C18.9427 21.6985 23.2071 17.8195 23.2897 17.4676C23.3 17.4236 23.3096 17.2595 23.2121 17.1729C23.1147 17.0863 22.9708 17.1159 22.867 17.1394C22.7199 17.1728 20.3766 18.7218 15.837 21.7864C15.1718 22.2432 14.5693 22.4657 14.0295 22.454C13.4344 22.4412 12.2897 22.1176 11.4388 21.8409C10.395 21.5016 9.56545 21.3222 9.63769 20.746C9.67531 20.4458 10.0886 20.1389 10.8776 19.8251Z" fill="white"/>
</g>
<defs>
<linearGradient id="paint0_linear_3088_143770" x1="20.0002" y1="3.3335" x2="20.0002" y2="36.4216" gradientUnits="userSpaceOnUse">
<stop stop-color="#2AABEE"/>
<stop offset="1" stop-color="#229ED9"/>
</linearGradient>
</defs>
</svg>
