<svg width="40" height="40" viewBox="0 0 40 40" fill="none" xmlns="http://www.w3.org/2000/svg">
<g id="Twitter">
<path id="Symbol" d="M35.9049 11.6575C35.9293 12.0192 35.9293 12.3808 35.9293 12.7458C35.9293 23.8666 27.6742 36.6923 12.5793 36.6923V36.6856C8.12025 36.6923 3.75381 35.3824 0 32.9126C0.648385 32.9926 1.30002 33.0326 1.95328 33.0342C5.64859 33.0376 9.23827 31.766 12.1454 29.4245C8.63376 29.3562 5.55434 27.008 4.47857 23.58C5.70871 23.8233 6.97623 23.7733 8.18363 23.435C4.35507 22.6417 1.60065 19.192 1.60065 15.1856C1.60065 15.1489 1.60065 15.1139 1.60065 15.0789C2.74142 15.7305 4.01869 16.0922 5.32521 16.1322C1.71928 13.6607 0.607759 8.74107 2.78529 4.8947C6.95186 10.1526 13.0993 13.3491 19.6986 13.6874C19.0372 10.7643 19.9407 7.70115 22.0727 5.64631C25.378 2.45988 30.5765 2.6232 33.6835 6.01128C35.5214 5.63964 37.283 4.94803 38.895 3.9681C38.2823 5.91629 37.0002 7.57116 35.2874 8.62275C36.9141 8.4261 38.5034 7.97946 40 7.29785C38.8982 8.99106 37.5105 10.4659 35.9049 11.6575Z" fill="#1D9BF0"/>
</g>
</svg>
