<svg width="24" height="24" viewBox="0 0 24 24" fill="none" xmlns="http://www.w3.org/2000/svg">
<path fill-rule="evenodd" clip-rule="evenodd" d="M12 5C9.79088 5 8.00002 6.79086 8.00002 9C8.00002 11.2091 9.79088 13 12 13C14.2092 13 16 11.2091 16 9C16 6.79086 14.2092 5 12 5ZM10 9C10 7.89543 10.8954 7 12 7C13.1046 7 14 7.89543 14 9C14 10.1046 13.1046 11 12 11C10.8954 11 10 10.1046 10 9Z" fill="#4038FF"/>
<path d="M16.8321 17.4453L14.5352 14H9.46484L7.16797 17.4453L8.83207 18.5547L10.5352 16H13.4648L15.168 18.5547L16.8321 17.4453Z" fill="#4038FF"/>
<path fill-rule="evenodd" clip-rule="evenodd" d="M12 1C5.92487 1 1 5.92487 1 12C1 18.0751 5.92487 23 12 23C18.0751 23 23 18.0751 23 12C23 5.92487 18.0751 1 12 1ZM3 12C3 7.02944 7.02944 3 12 3C16.9706 3 21 7.02944 21 12C21 16.9706 16.9706 21 12 21C7.02944 21 3 16.9706 3 12Z" fill="#4038FF"/>
</svg>
