<svg width="24" height="24" viewBox="0 0 24 24" fill="none" xmlns="http://www.w3.org/2000/svg">
<path d="M2 4C2 2.89543 2.89543 2 4 2H20C21.1046 2 22 2.89543 22 4V7H20V4H4V18H11V20H4C2.89543 20 2 19.1046 2 18V4Z" fill="#4038FF"/>
<path d="M6 7C6.55228 7 7 6.55228 7 6C7 5.44772 6.55228 5 6 5C5.44772 5 5 5.44772 5 6C5 6.55228 5.44772 7 6 7Z" fill="#4038FF"/>
<path d="M9 7C9.55228 7 10 6.55228 10 6C10 5.44772 9.55228 5 9 5C8.44772 5 8 5.44772 8 6C8 6.55228 8.44772 7 9 7Z" fill="#4038FF"/>
<path d="M13 6C13 6.55228 12.5523 7 12 7C11.4477 7 11 6.55228 11 6C11 5.44772 11.4477 5 12 5C12.5523 5 13 5.44772 13 6Z" fill="#4038FF"/>
<path fill-rule="evenodd" clip-rule="evenodd" d="M17 8C14.7908 8 13 9.79086 13 12C13 14.2091 14.7908 16 17 16C19.2091 16 21 14.2091 21 12C21 9.79086 19.2091 8 17 8ZM15 12C15 10.8954 15.8954 10 17 10C18.1046 10 19 10.8954 19 12C19 13.1046 18.1046 14 17 14C15.8954 14 15 13.1046 15 12Z" fill="#4038FF"/>
<path d="M22.1343 20.8987L19.5352 17H14.4648L11.8662 20.8979L13.5303 22.0073L15.5352 19H18.4648L20.4702 22.0081L22.1343 20.8987Z" fill="#4038FF"/>
</svg>
