<svg width="24" height="24" viewBox="0 0 24 24" fill="none" xmlns="http://www.w3.org/2000/svg">
<path d="M6.33331 19H4.33331C3.22874 19 2.33331 18.1046 2.33331 17V7H4.33331V17H8.33331V18.7639L11.8612 17H14.3333V19H12.3333L6.33331 22V19Z" fill="#A7AEB7"/>
<path fill-rule="evenodd" clip-rule="evenodd" d="M18.3333 15H20.3333C21.4379 15 22.3333 14.1046 22.3333 13V4C22.3333 2.89543 21.4379 2 20.3333 2H8.33331C7.22874 2 6.33331 2.89543 6.33331 4V13C6.33331 14.1046 7.22874 15 8.33331 15H12.3333L18.3333 18V15ZM12.8054 13H8.33331V4H20.3333V13H16.3333V14.7639L12.8054 13Z" fill="#F2F5F9"/>
</svg>
