<svg width="24" height="24" viewBox="0 0 24 24" fill="none" xmlns="http://www.w3.org/2000/svg">
<path fill-rule="evenodd" clip-rule="evenodd" d="M15 4C13.8954 4 13 4.89543 13 6C13 7.10457 13.8954 8 15 8C16.1046 8 17 7.10457 17 6C17 4.89543 16.1046 4 15 4ZM11 6C11 3.79086 12.7909 2 15 2C17.2091 2 19 3.79086 19 6C19 8.20914 17.2091 10 15 10C12.7909 10 11 8.20914 11 6Z" fill="#A7AEB7"/>
<path fill-rule="evenodd" clip-rule="evenodd" d="M7.70711 10.8787C8.26972 10.3161 9.03278 10 9.82843 10H11.4142L12.4142 11H14C15.1046 11 16 11.8954 16 13V13.523L19.4787 12.1315C19.6958 12.0446 19.9276 12 20.1615 12C21.1769 12 22 12.8231 22 13.8385V16.5884L12.4856 21.8742C12.2406 22.0103 11.9497 22.0373 11.6838 21.9487L5.83772 20H2V13H5.58579L7.70711 10.8787ZM5 15H4V18H5V15ZM7 18.2792L11.8989 19.9122L20 15.4116V14.077L15.1926 16H10V14H14V13H11.5858L10.5858 12H9.82843C9.56321 12 9.30886 12.1054 9.12132 12.2929L7 14.4142V18.2792Z" fill="#F2F5F9"/>
</svg>
