<svg width="24" height="24" viewBox="0 0 24 24" fill="none" xmlns="http://www.w3.org/2000/svg">
<path fill-rule="evenodd" clip-rule="evenodd" d="M15 2C12.7909 2 11 3.79086 11 6C11 8.20914 12.7909 10 15 10C17.2091 10 19 8.20914 19 6C19 3.79086 17.2091 2 15 2ZM13 6C13 4.89543 13.8954 4 15 4C16.1046 4 17 4.89543 17 6C17 7.10457 16.1046 8 15 8C13.8954 8 13 7.10457 13 6Z" fill="#4038FF"/>
<path fill-rule="evenodd" clip-rule="evenodd" d="M9.82843 10C9.03278 10 8.26972 10.3161 7.70711 10.8787L5.58579 13H2V20H5.83772L11.6838 21.9487C11.9497 22.0373 12.2406 22.0103 12.4856 21.8742L22 16.5884V13.8385C22 12.8231 21.1769 12 20.1615 12C19.9276 12 19.6958 12.0446 19.4787 12.1315L16 13.523V13C16 11.8954 15.1046 11 14 11H12.4142L11.4142 10H9.82843ZM4 15H5V18H4V15ZM11.8989 19.9122L7 18.2792V14.4142L9.12132 12.2929C9.30886 12.1054 9.56321 12 9.82843 12H10.5858L11.5858 13H14V14H10V16H15.1926L20 14.077V15.4116L11.8989 19.9122Z" fill="#4038FF"/>
</svg>
