<svg width="512" height="304" viewBox="0 0 512 304" fill="none" xmlns="http://www.w3.org/2000/svg">
<path d="M194.949 212.696C193.853 247.969 54.4792 280.423 9.96123 225.092C4.73317 214.731 1.4242 203.86 0.130615 192.797C0.307425 111.648 225.82 131.316 194.949 212.696Z" fill="black"/>
<path d="M344.685 204.394C342.438 255.301 194.027 270.323 158.895 224.967C153.554 215.128 150.207 204.752 148.962 194.18C149.961 116.71 377.73 126.511 344.685 204.394Z" fill="black"/>
<path d="M252.639 160.794C251.156 214.452 107.56 229.137 72.8858 181.054C67.5657 170.598 64.1861 159.649 62.8409 148.51C62.7158 61.4666 285.723 73.4707 252.639 160.794Z" fill="black"/>
<path d="M178.064 209.728L180.51 207.533L178.064 209.728Z" fill="white"/>
<path d="M181.045 202.115C179.152 248.401 48.4094 261.906 17.4016 220.618C12.673 211.654 9.70773 202.211 8.60095 192.592C9.315 122.142 209.999 131.312 181.045 202.115Z" fill="black"/>
<path d="M25.4909 214.873C24.7902 214.234 24.1396 213.579 23.5422 212.906C23.5777 213.134 23.6188 213.36 23.6654 213.584C23.392 213.728 23.6292 214.981 23.8437 216.113C24.0694 217.305 24.27 218.364 23.8236 217.858C29.4579 254.222 176.339 255.642 174.019 199.194C174.192 195.115 173.54 190.701 171.938 185.94C171.595 186.722 171.4 188.009 171.147 189.667C169.994 197.252 167.658 212.614 144.652 223.107C126.728 231.345 98.4738 233.789 73.2872 231.071C53.7164 228.14 35.7562 222.396 25.4909 214.873Z" fill="#DEE3E9"/>
<path fill-rule="evenodd" clip-rule="evenodd" d="M92.627 226.971C193.987 227.418 201.752 152.47 99.6069 150.073C-1.75288 149.612 -9.5182 224.52 92.627 226.971Z" fill="#DEE3E9"/>
<path fill-rule="evenodd" clip-rule="evenodd" d="M92.627 226.971C193.987 227.418 201.752 152.47 99.6069 150.073C-1.75288 149.612 -9.5182 224.52 92.627 226.971Z" fill="#DEE3E9"/>
<path fill-rule="evenodd" clip-rule="evenodd" d="M19.809 191.987C31.9479 236.931 175.99 232.082 172.598 183.047C185.915 237.229 23.7362 242.39 19.809 191.987Z" fill="white"/>
<path d="M41.1999 232.615L41.0185 215.328C41.0185 215.328 43.4559 216.619 47.9114 218.101C50.3116 218.857 52.7445 219.538 55.1985 220.139L55.5189 238.49C53.176 238.049 50.8432 237.514 48.5367 236.888C44.2031 235.69 41.3164 234.014 41.1999 232.615Z" fill="white"/>
<path d="M329.525 206.277L331.97 204.08L329.525 206.277Z" fill="white"/>
<path d="M332.505 198.657C330.613 244.984 199.962 258.501 168.932 217.177C164.211 208.208 161.242 198.762 160.117 189.14C160.849 118.613 361.465 127.75 332.505 198.657Z" fill="black"/>
<path fill-rule="evenodd" clip-rule="evenodd" d="M174.892 206.724C193.342 229.596 262.54 234.843 295.907 217.95C323.922 203.877 321.263 181.846 323.173 177.046C345.709 250.637 180.923 248.902 174.892 206.724Z" fill="#DEE3E9"/>
<path fill-rule="evenodd" clip-rule="evenodd" d="M244.108 223.536C345.442 223.983 353.204 148.968 251.102 146.569C149.768 146.108 141.989 221.095 244.108 223.536Z" fill="#DEE3E9"/>
<path fill-rule="evenodd" clip-rule="evenodd" d="M244.108 223.536C345.442 223.983 353.204 148.968 251.102 146.569C149.768 146.108 141.989 221.095 244.108 223.536Z" fill="#DEE3E9"/>
<path fill-rule="evenodd" clip-rule="evenodd" d="M170.538 189.357C182.672 234.341 326.617 229.487 323.28 180.409C336.573 234.639 174.482 239.805 170.538 189.357Z" fill="white"/>
<path d="M239.176 161.127L241.598 158.94L239.176 161.127Z" fill="white"/>
<path d="M243.976 155.27C242.054 203.117 109.262 217.059 77.7232 174.392C72.9193 165.133 69.9067 155.379 68.7821 145.444C69.5075 72.6245 273.393 82.1013 243.976 155.27Z" fill="black"/>
<path fill-rule="evenodd" clip-rule="evenodd" d="M85.9417 161.576C104.221 184.504 172.777 189.747 205.835 172.822C233.589 158.723 230.955 136.651 232.847 131.856C255.174 205.585 91.9169 203.832 85.9417 161.576Z" fill="#DEE3E9"/>
<path fill-rule="evenodd" clip-rule="evenodd" d="M154.533 178.418C254.91 178.88 262.6 103.712 161.446 101.307C61.0692 100.846 53.3792 175.973 154.533 178.418Z" fill="#DEE3E9"/>
<path fill-rule="evenodd" clip-rule="evenodd" d="M154.533 178.418C254.91 178.88 262.6 103.712 161.446 101.307C61.0692 100.846 53.3792 175.973 154.533 178.418Z" fill="#DEE3E9"/>
<path fill-rule="evenodd" clip-rule="evenodd" d="M82.4293 143.339C94.4504 188.408 237.042 183.545 233.736 134.375C246.924 188.775 86.3184 193.896 82.4293 143.339Z" fill="white"/>
<path d="M255.987 42.1249L258.495 41.2888L255.987 42.1249Z" fill="white"/>
<path d="M412.216 212.377C419.626 214.654 428.409 215.533 438.565 215.014C469.019 212.343 495.952 186.147 503.678 150.328C512.935 107.523 491.696 65.4559 454.379 57.0755C449.68 56.0113 261.577 6.28952 256.195 5.08291C218.878 -3.3093 182.273 25.7577 173.017 68.5502C168.639 88.792 170.974 109.35 179.354 126.384C182.887 133.587 192.33 145.082 198.111 149.557L412.216 212.377Z" fill="black"/>
<path fill-rule="evenodd" clip-rule="evenodd" d="M264.331 109.895C291.889 120.097 342.371 169.216 360.406 123.842C365.488 111.037 381.025 80.3736 399.906 70.3595C420.095 59.6536 428.295 60.0132 435.003 60.1865C407.711 53.7325 271.43 17.0939 253.499 13.0646C225.145 6.69479 195.838 30.7665 188.038 66.85C184.194 84.6273 186.292 101.991 192.795 115.819C198.541 128.003 202.874 130.167 206.057 131.582C208.195 132.525 228.294 96.5517 264.331 109.895Z" fill="#DEE3E9"/>
<path d="M248.37 23.6806L408.784 67.4516C401.475 70.8623 394.794 75.4631 389.018 81.0632C382.162 87.5789 375.815 97.5822 375.815 97.5822L206.157 51.5785C208.609 45.6285 211.829 40.0199 215.737 34.8933C223.378 25.0274 236.206 20.6197 248.37 23.6806Z" fill="white"/>
<path d="M281.649 32.5299L410.361 65.3273C408.692 66.0965 407.168 67.1342 405.849 68.3974C404.285 69.867 385.21 86.8283 385.21 86.8283C385.21 86.8283 385.208 68.3684 372.327 65.1848C332.419 55.3215 284.385 42.5723 281.515 41.6268C271.854 38.4434 278.873 31.8393 281.649 32.5299Z" fill="black"/>
<path d="M245.336 22.4955L273.235 30.0516C271.683 30.7927 270.266 31.7939 269.041 33.0134C268.41 33.6293 264.367 36.0323 256.829 34.4675C249.641 32.9752 246.74 31.8165 245.228 31.2959C236.23 28.1985 242.751 21.8223 245.336 22.4955Z" fill="black"/>
<path fill-rule="evenodd" clip-rule="evenodd" d="M389.886 124.724C397.885 90.3041 427.251 67.7312 455.235 74.2397C483.22 80.7482 499.606 113.995 491.607 148.415C483.608 182.835 454.356 205.452 426.278 198.905C398.199 192.359 381.884 159.155 389.886 124.724Z" fill="#DEE3E9"/>
<path fill-rule="evenodd" clip-rule="evenodd" d="M416.693 195.215C398.279 185.268 383.817 157.829 390.289 127.249C397.61 92.3795 428.501 68.6913 452.185 73.7081C454.345 74.239 456.489 74.8538 458.603 75.5486C455.206 73.9281 451.548 72.6567 447.803 71.7951C424.119 66.7784 391.509 89.1204 384.191 123.982C377.278 156.919 395.068 187.631 416.326 195.155L416.693 195.215Z" fill="white"/>
<path fill-rule="evenodd" clip-rule="evenodd" d="M371.444 121.796C379.754 82.9107 412.989 56.1089 438.124 61.3355C440.416 61.8938 442.689 62.5456 444.929 63.2868C441.337 61.5352 437.462 60.1757 433.488 59.2734C408.353 54.0468 373.309 79.3772 365.001 118.254C361.426 134.982 363.012 158.347 367.192 156.675C371.373 155.003 367.444 140.367 371.444 121.796Z" fill="white"/>
<path d="M159.831 230.254L158.159 228.582L159.831 230.254Z" fill="white"/>
<path d="M317 109.182C317.236 104.935 315.768 100.155 312.597 94.8427C301.973 79.1067 269.723 68.6752 233.223 69.8001C189.628 71.1381 154.781 88.5199 156.552 109.56C156.776 112.213 158.535 219.097 158.795 222.128C160.565 243.121 198.163 258.277 241.757 256.927C262.368 256.3 281.515 252.061 295.693 245.146C301.689 242.21 310.26 235.532 313.034 231.826L317 109.182Z" fill="black"/>
<path d="M337.42 128.104C335.742 123.489 332.967 119.353 329.336 116.053C315.495 103.468 286.604 95.5691 254.554 96.5565C244.167 96.842 233.832 98.1327 223.692 100.411C221.307 100.969 218.865 101.245 216.416 101.231C214.125 101.231 211.81 101.231 209.472 101.315C165.564 102.659 130.524 120.122 132.304 141.26C132.53 143.925 134.298 251.306 134.56 254.351C136.34 275.442 179.001 292.965 224.119 292.965C257.356 292.965 285.844 289.396 317.323 272.742C317.798 272.48 318.297 272.219 318.795 271.921C328.661 266.226 334.885 255.822 335.247 244.419L338.749 136.169C338.854 133.418 338.402 130.674 337.42 128.104Z" fill="black"/>
<path fill-rule="evenodd" clip-rule="evenodd" d="M268.529 226.91C271.705 209.055 290.268 176.742 245.225 175.464C228.081 174.977 186.365 169.248 168.014 159.764C148.386 149.593 144.291 142.489 142.273 138.511C145.222 132.674 145.437 239.341 146.523 250.53C148.219 268.29 187.009 281.575 233.155 280.343C255.839 279.728 276.136 275.69 290.69 269.628C303.525 264.276 304.659 261.34 305.316 259.28C305.758 257.871 264.374 250.259 268.529 226.91Z" fill="#DEE3E9"/>
<path fill-rule="evenodd" clip-rule="evenodd" d="M239.195 138.637C200.904 139.702 168.58 126.675 166.999 109.688C165.418 92.7004 195.192 77.9503 233.482 76.8857C271.773 75.821 304.108 88.7766 305.678 105.824C307.247 122.87 277.496 137.573 239.195 138.637Z" fill="#DEE3E9"/>
<path fill-rule="evenodd" clip-rule="evenodd" d="M306.992 116.207C301.746 131.058 273.689 142.94 238.864 143.922C199.174 145.046 165.692 131.608 164.075 113.898C163.98 112.272 163.98 110.642 164.075 109.016C163.333 111.741 163.884 130.459 164.066 133.279C165.684 150.977 198.357 160.326 238.019 159.122C263.513 158.347 305.148 132.673 306.944 116.243L306.992 116.207Z" fill="#DEE3E9"/>
<path fill-rule="evenodd" clip-rule="evenodd" d="M305.283 107.269C300.447 121.003 274.487 130.499 240.879 131.982C202.573 133.712 169.121 123.874 167.282 107.649C167.19 106.155 167.19 104.657 167.282 103.163C166.612 105.657 166.382 108.255 166.602 110.833C168.441 127.058 200.063 140.698 238.36 138.968C274.542 137.333 303.839 122.353 305.319 107.231L305.283 107.269Z" fill="white"/>
<path d="M177.391 145.495L177.525 125.738C177.525 125.738 180.224 127.262 185.174 129.044C187.841 129.956 190.547 130.782 193.277 131.518V152.494C190.668 151.944 188.071 151.286 185.506 150.524C180.687 149.069 177.494 147.096 177.391 145.495Z" fill="white"/>
<path d="M161.504 246.318L161.907 156.675C161.907 156.675 170.003 161.428 184.853 165.558C192.855 167.566 200.971 169.152 209.163 170.311V265.372C201.335 264.958 193.546 264.045 185.85 262.641C171.392 259.887 161.812 253.491 161.504 246.318Z" fill="white"/>
<path d="M492.04 249.984L494.267 247.682L492.04 249.984Z" fill="white"/>
<path d="M494.892 254.883C496.729 280.736 453.623 300.21 403.473 300.68C379.746 300.894 356.097 296.621 338.603 288.813C331.702 285.792 324.062 281.777 319.945 277.098C317.605 274.44 315.854 271.591 314.745 268.638C310.039 260.385 310.758 224.819 313.278 219.073C322.511 199.24 357.557 184.87 399.543 184.478C449.708 184.018 492.791 203.662 494.613 229.525C494.88 232.788 494.626 251.147 494.892 254.883Z" fill="black"/>
<path fill-rule="evenodd" clip-rule="evenodd" d="M328.343 261.377C333.646 267.776 358.581 278.169 387.446 278.837C419.869 279.586 445.606 271.812 459.237 264.668C475.257 256.261 482.34 234.93 483.578 229.988C483.762 234.157 483.79 238.251 483.774 241.844C483.751 246.986 483.64 246.081 483.773 247.904C485.345 269.589 448.999 287.564 403.785 287.951C381.489 288.156 360.959 284.028 345.683 277.221C332.192 271.195 330.533 267.696 329.511 265.153C328.285 262.161 328.528 261.908 328.343 261.377Z" fill="#DEE3E9"/>
<path fill-rule="evenodd" clip-rule="evenodd" d="M404.875 269.828C449.927 269.278 485.33 251.214 483.927 229.476C482.524 207.738 444.897 190.545 399.843 191.145C354.789 191.745 319.404 209.75 320.791 231.497C322.178 253.245 359.838 270.36 404.875 269.828Z" fill="#DEE3E9"/>
<path fill-rule="evenodd" clip-rule="evenodd" d="M404.875 269.828C449.927 269.278 485.33 251.214 483.927 229.476C482.524 207.738 444.897 190.545 399.843 191.145C354.789 191.745 319.404 209.75 320.791 231.497C322.178 253.245 359.838 270.36 404.875 269.828Z" fill="#DEE3E9"/>
<path fill-rule="evenodd" clip-rule="evenodd" d="M321.791 236.851C330.38 254.652 363.994 267.752 403.258 267.294C448.005 266.772 483.144 248.857 481.735 227.276C481.657 226.092 481.47 224.91 481.174 223.736C482.39 226.24 483.093 228.827 483.265 231.429C484.658 253.009 449.534 270.926 404.788 271.447C362.508 271.937 326.791 256.729 321.791 236.851Z" fill="white"/>
<path fill-rule="evenodd" clip-rule="evenodd" d="M471.053 223.668C462.524 208.495 432.74 198.203 398.929 199.873C360.422 201.763 331.294 218.463 333.854 237.154C333.998 238.175 334.237 239.192 334.569 240.198C333.366 238.06 332.599 235.839 332.288 233.59C329.713 214.898 358.842 198.208 397.364 196.309C433.736 194.521 465.515 206.554 471.007 223.666L471.053 223.668Z" fill="white"/>
<path d="M352.839 251.513C366.494 256.758 384.538 259.296 403.8 257.874C441.852 255.064 469.89 237.766 466.411 219.249C465.843 216.193 464.426 213.212 462.227 210.451C467.8 215.016 471.006 220.575 471.371 226.304C472.365 244.921 442.087 260.539 403.761 261.177C383.959 261.468 365.819 257.777 352.838 251.533L352.839 251.513Z" fill="black"/>
<path d="M452.508 278.566L452.331 260.044C452.331 260.044 448.792 261.472 442.301 263.143C438.802 263.998 435.254 264.773 431.673 265.463L431.673 285.128C435.095 284.612 438.5 283.995 441.865 283.281C448.185 281.916 452.373 280.066 452.508 278.566Z" fill="white"/>
<path d="M160.892 243.49L160.97 214.587C162.087 215.893 163.421 217.003 164.916 217.871C165.674 218.321 169.042 221.605 169.481 229.29C169.9 236.62 169.532 239.722 169.42 241.317C168.757 250.81 160.91 246.162 160.892 243.49Z" fill="black"/>
<path d="M160.892 208.364L160.97 146.852C162.087 148.158 163.421 149.268 164.916 150.135C165.674 150.586 169.042 153.87 169.481 161.555C169.9 168.884 169.532 204.596 169.42 206.191C168.757 215.684 160.91 211.036 160.892 208.364Z" fill="black"/>
<path fill-rule="evenodd" clip-rule="evenodd" d="M321.994 136.748C315.761 153.996 282.294 165.92 238.968 167.783C189.585 169.955 146.46 157.601 144.09 137.225C143.972 135.349 143.972 133.467 144.09 131.591C143.227 134.723 142.93 137.986 143.213 141.224C145.583 161.599 186.35 178.728 235.72 176.556C282.365 174.503 320.134 155.691 322.042 136.7L321.994 136.748Z" fill="white"/>
<path d="M293.675 99.6559L269.804 100.234L269.876 103.235C269.898 104.115 269.485 105.281 268.037 106.695C266.586 108.112 264.307 109.55 261.228 110.848C255.088 113.437 246.358 115.224 236.52 115.462C226.683 115.701 217.876 114.339 211.618 112.05C208.48 110.902 206.134 109.577 204.616 108.231C203.102 106.89 202.633 105.745 202.611 104.865L202.539 101.864L178.668 102.443L178.74 105.443C178.839 109.514 181.034 113.023 184.236 115.86C187.433 118.693 191.854 121.069 197.041 122.965C207.432 126.766 221.507 128.866 236.836 128.494C252.166 128.123 266.122 125.344 276.317 121.045C281.406 118.899 285.706 116.312 288.763 113.327C291.823 110.339 293.846 106.727 293.747 102.656L293.675 99.6559Z" fill="white"/>
<path d="M293.675 97.6549L269.804 98.2333L269.876 101.234C269.898 102.114 269.484 103.281 268.037 104.694C266.586 106.111 264.307 107.549 261.228 108.847C255.088 111.436 246.357 113.223 236.52 113.461C226.683 113.7 217.876 112.338 211.618 110.049C208.48 108.901 206.134 107.576 204.616 106.23C203.102 104.889 202.633 103.744 202.611 102.864L202.539 99.8632L178.668 100.442L178.74 103.442C178.839 107.513 181.034 111.022 184.236 113.859C187.433 116.692 191.854 119.068 197.041 120.965C207.432 124.765 221.507 126.865 236.836 126.493C252.166 126.122 266.122 123.343 276.317 119.044C281.405 116.898 285.706 114.311 288.763 111.326C291.823 108.338 293.846 104.726 293.747 100.655L293.675 97.6549Z" fill="black"/>
<path d="M236.593 118.463C256.825 117.973 273.07 111.122 272.877 103.162L290.747 102.729C291.034 114.572 266.865 124.764 236.764 125.493C206.662 126.223 182.028 117.213 181.741 105.37L199.611 104.937C199.804 112.897 216.361 118.953 236.593 118.463Z" fill="#DEE3E9"/>
<path fill-rule="evenodd" clip-rule="evenodd" d="M348.438 235L369.091 232.267L368.737 229.564C368.652 228.916 368.861 227.951 369.963 226.641C371.066 225.33 372.877 223.914 375.395 222.537C380.416 219.793 387.73 217.48 396.134 216.368C404.538 215.256 412.198 215.587 417.754 216.932C420.541 217.607 422.654 218.503 424.057 219.483C425.459 220.461 425.909 221.339 425.994 221.988L426.347 224.691L447 221.958L446.646 219.255C446.186 215.744 443.938 212.946 440.925 210.842C437.913 208.739 433.898 207.143 429.278 206.025C420.022 203.783 407.763 203.319 394.653 205.054C381.543 206.789 369.821 210.426 361.456 214.999C357.283 217.281 353.814 219.867 351.446 222.683C349.077 225.499 347.625 228.786 348.084 232.297L348.438 235ZM376.919 211.614C360.631 216.565 349.798 224.499 350.773 231.941C350.652 231.023 350.712 230.097 350.939 229.17C352.555 222.586 362.641 215.954 376.919 211.614Z" fill="white"/>
<path fill-rule="evenodd" clip-rule="evenodd" d="M346.438 236L367.091 233.355L366.737 230.74C366.652 230.112 366.861 229.178 367.963 227.91C369.066 226.641 370.877 225.272 373.395 223.939C378.416 221.283 385.73 219.045 394.134 217.969C402.538 216.893 410.198 217.213 415.754 218.515C418.541 219.168 420.654 220.035 422.057 220.983C423.459 221.93 423.909 222.78 423.994 223.408L424.347 226.023L445 223.379L444.646 220.763C444.186 217.365 441.938 214.658 438.925 212.622C435.913 210.586 431.898 209.042 427.278 207.959C418.022 205.79 405.763 205.341 392.653 207.02C379.543 208.699 367.821 212.218 359.456 216.644C355.283 218.853 351.814 221.355 349.446 224.08C347.077 226.805 345.625 229.986 346.084 233.384L346.438 236ZM374.919 213.369C358.631 218.16 347.798 225.837 348.773 233.04C348.652 232.151 348.712 231.255 348.939 230.358C350.555 223.986 360.641 217.569 374.919 213.369Z" fill="black"/>
<path d="M393.866 217.13C376.697 219.389 363.483 226.574 364.352 233.177L349.188 235.173C347.895 225.348 367.554 214.659 393.098 211.297C418.642 207.936 440.397 213.175 441.69 223L426.526 224.995C425.657 218.392 411.034 214.87 393.866 217.13Z" fill="#DEE3E9"/>
<path fill-rule="evenodd" clip-rule="evenodd" d="M487.1 138.716L466.348 137.497L466.113 141.492C465.335 154.76 454.597 164.541 442.558 163.834C430.52 163.128 421 152.157 421.779 138.89L422.014 134.895L401.262 133.677L401.027 137.672C399.577 162.379 417.391 183.903 441.298 185.306C465.205 186.71 485.415 167.418 486.865 142.711L487.1 138.716ZM442.324 167.829C442.324 167.829 442.324 167.829 442.324 167.829V167.829ZM405.022 137.906C404.003 155.276 413.325 170.728 427.384 177.6C414.416 171.261 405.478 157.622 404.969 141.912C404.926 140.59 404.943 139.254 405.022 137.906Z" fill="white"/>
<path fill-rule="evenodd" clip-rule="evenodd" d="M485.099 140.717L464.347 139.498L464.112 143.493C463.334 156.76 452.596 166.542 440.557 165.835C428.519 165.128 418.999 154.158 419.778 140.891L420.013 136.896L399.261 135.678L399.026 139.673C397.576 164.38 415.39 185.904 439.297 187.307C463.204 188.711 483.414 169.419 484.865 144.712L485.099 140.717ZM440.323 169.83C440.323 169.83 440.323 169.83 440.323 169.83V169.83ZM403.021 139.907C402.002 157.277 411.324 172.729 425.383 179.601C412.415 173.262 403.477 159.623 402.968 143.913C402.925 142.591 402.942 141.255 403.021 139.907Z" fill="black"/>
<path d="M438.026 168.806C452.427 170.258 465.345 159.102 466.878 143.889L479.598 145.171C477.316 167.805 458.098 184.403 436.672 182.243C415.246 180.084 399.727 159.984 402.009 137.35L414.728 138.632C413.195 153.845 423.626 167.355 438.026 168.806Z" fill="#DEE3E9"/>
</svg>
