<svg width="719" height="600" viewBox="0 0 719 600" fill="none" xmlns="http://www.w3.org/2000/svg">
<path fill-rule="evenodd" clip-rule="evenodd" d="M132.74 320.01H139.394V326.663H132.74V333.333H139.394V340.003H132.74V346.657H126.07V353.326H132.74V346.673H139.394V353.326H132.74V360H139.41V353.33H146.064V346.677H152.734V353.33H159.403V346.677H166.057V353.33H159.403V360H166.074V353.33H172.727V360H179.4V353.33H172.731V346.677H179.4V340.006H172.731V333.337H179.4V326.667H172.731V319.997H166.077V313.343H159.407V319.997H152.737V313.343H146.067V319.997H139.413V313.343H132.744V319.997H126.074V326.667H132.744V320.01H132.74ZM172.731 313.34H179.4V320.01H172.731V313.34ZM152.737 353.33V360H146.067V353.33H152.737ZM132.74 340.006V333.337H126.07V340.006H132.74ZM166.077 346.66H172.731V340.006H166.077V346.66ZM166.061 313.34V306.67H159.407V313.34H152.737V306.67H146.067V313.34H139.397V306.67H132.744V313.34H126.074V306.67H132.744V300H139.413V306.67H146.067V300H152.737V306.67H159.407V300H166.077V306.67H172.731V300H179.4V306.67H172.731V313.34H166.061ZM139.413 326.663V333.333H146.067V326.663H139.413ZM152.737 326.663V320.01H146.067V326.663H152.737ZM159.407 326.663H152.737V333.333H159.407V326.663ZM159.407 326.663H166.061V320.01H159.407V326.663ZM159.407 340.006H166.061V333.337H159.407V340.006ZM152.737 340.006V346.66H159.407V340.006H152.737ZM146.064 340.006H152.734V333.337H146.064V340.006ZM146.064 340.006H139.41V346.66H146.064V340.006ZM166.077 333.337V326.667H172.731V333.337L166.077 333.337ZM119.4 353.33H126.07V360H119.4V353.33ZM126.07 340.006H119.4V346.677H126.07V340.006ZM119.4 326.663H126.07V333.333H119.4V326.663ZM126.07 313.34H119.4V320.01H126.07V313.34ZM126.07 300H119.4V306.67H126.07V300Z" fill="#4038FF"/>
<path fill-rule="evenodd" clip-rule="evenodd" d="M552.74 560.01H559.394V566.663H552.74V573.333H559.394V580.003H552.74V586.657H546.07V593.326H552.74V586.673H559.394V593.326H552.74V600H559.41V593.33H566.064V586.677H572.733V593.33H579.403V586.677H586.057V593.33H579.403V600H586.074V593.33H592.727V600H599.4V593.33H592.73V586.677H599.4V580.006H592.73V573.337H599.4V566.667H592.73V559.997H586.077V553.343H579.407V559.997H572.737V553.343H566.067V559.997H559.413V553.343H552.743V559.997H546.074V566.667H552.743V560.01H552.74ZM592.73 553.34H599.4V560.01H592.73V553.34ZM572.737 593.33V600H566.067V593.33H572.737ZM552.74 580.006V573.337H546.07V580.006H552.74ZM586.077 586.66H592.73V580.006H586.077V586.66ZM586.061 553.34V546.67H579.407V553.34H572.737V546.67H566.067V553.34H559.397V546.67H552.743V553.34H546.074V546.67H552.743V540H559.413V546.67H566.067V540H572.737V546.67H579.407V540H586.077V546.67H592.73V540H599.4V546.67H592.73V553.34H586.061ZM559.413 566.663V573.333H566.067V566.663H559.413ZM572.737 566.663V560.01H566.067V566.663H572.737ZM579.407 566.663H572.737V573.333H579.407V566.663ZM579.407 566.663H586.061V560.01H579.407V566.663ZM579.407 580.006H586.061V573.337H579.407V580.006ZM572.737 580.006V586.66H579.407V580.006H572.737ZM566.064 580.006H572.733V573.337H566.064V580.006ZM566.064 580.006H559.41V586.66H566.064V580.006ZM586.077 573.337V566.667H592.73V573.337L586.077 573.337ZM539.4 593.33H546.07V600H539.4V593.33ZM546.07 580.006H539.4V586.677H546.07V580.006ZM539.4 566.663H546.07V573.333H539.4V566.663ZM546.07 553.34H539.4V560.01H546.07V553.34ZM546.07 540H539.4V546.67H546.07V540Z" fill="#4038FF"/>
<path fill-rule="evenodd" clip-rule="evenodd" d="M366.07 300H359.4V240H366.07V300ZM372.734 300H379.401V240H372.734V300ZM386.067 300H392.733V240H386.067V300ZM406.067 300H399.4V240H406.067V300ZM412.734 300H419.4V240H412.734V300Z" fill="#4038FF"/>
<path fill-rule="evenodd" clip-rule="evenodd" d="M354.701 120.4H359.4V115.7L304.101 60.4H299.4V65.1L354.701 120.4ZM313.534 60.4H322.967L359.4 96.8333V106.267L313.534 60.4ZM341.834 60.4H332.4L359.4 87.4V77.9667L341.834 60.4ZM359.4 60.4V68.5333L351.268 60.4H359.4ZM299.4 74.5334V83.9667L335.834 120.4H345.268L299.4 74.5334ZM299.4 102.833V93.4L326.4 120.4H316.967L299.4 102.833ZM307.534 120.4L299.4 112.267V120.4H307.534Z" fill="#1F242C"/>
<path fill-rule="evenodd" clip-rule="evenodd" d="M419.4 66.6699V60H479.4V66.6699H419.4ZM419.4 73.3333V80H479.4V73.3333H419.4ZM419.4 86.6667V93.3333H479.4V86.6667H419.4ZM419.4 106.667V100H479.4V106.667H419.4ZM419.4 113.333V120H479.4V113.333H419.4Z" fill="#1F242C"/>
<path fill-rule="evenodd" clip-rule="evenodd" d="M179.4 246.67V240H239.4V246.67H179.4ZM179.4 253.333V260H239.4V253.333H179.4ZM179.4 266.667V273.333H239.4V266.667H179.4ZM179.4 286.667V280H239.4V286.667H179.4ZM179.4 293.333V300H239.4V293.333H179.4Z" fill="#1F242C"/>
<path fill-rule="evenodd" clip-rule="evenodd" d="M419.4 233.33V240H479.4V233.33H419.4ZM419.4 213.327V206.657H479.4V213.327H419.4ZM419.4 193.323V199.993H479.4V193.323H419.4ZM419.4 180V186.67H479.4V180H419.4ZM419.4 226.66V219.99H479.4V226.66H419.4Z" fill="#1F242C"/>
<path fill-rule="evenodd" clip-rule="evenodd" d="M6.66673 180H0C0 213.137 26.8633 240 60 240V233.333C30.5434 233.333 6.66673 209.457 6.66673 180ZM20.0002 180H13.3335C13.3335 205.773 34.2267 226.667 60 226.667V220C37.91 220 20.0002 202.09 20.0002 180ZM26.6664 180H33.3331C33.3331 194.726 45.2733 206.667 60 206.667V213.333C41.59 213.333 26.6664 198.41 26.6664 180ZM46.6665 180H39.9998C39.9998 191.046 48.9534 200 60 200V193.333C52.6367 193.333 46.6665 187.363 46.6665 180ZM60 180H53.3333C53.3333 183.683 56.3167 186.667 60 186.667V180Z" fill="#1F242C"/>
<path fill-rule="evenodd" clip-rule="evenodd" d="M532.734 420H539.4C539.4 386.863 512.537 360 479.4 360V366.667C508.857 366.667 532.734 390.543 532.734 420ZM519.4 420H526.067C526.067 394.227 505.174 373.333 479.4 373.333V380C501.49 380 519.4 397.91 519.4 420ZM512.733 420H506.067C506.067 405.273 494.127 393.333 479.4 393.333V386.667C497.81 386.667 512.733 401.59 512.733 420ZM492.734 420H499.4C499.4 408.953 490.447 400 479.4 400V406.667C486.764 406.667 492.734 412.637 492.734 420ZM479.4 420H486.067C486.067 416.317 483.084 413.333 479.4 413.333V420Z" fill="#1F242C"/>
<path d="M539.4 360V300H599.4C599.4 333.137 572.537 360 539.4 360Z" fill="#1F242C"/>
<path d="M238.801 540V480H298.801C298.801 513.137 271.937 540 238.801 540Z" fill="#1F242C"/>
<path fill-rule="evenodd" clip-rule="evenodd" d="M532.73 540H539.4V480H532.73V540ZM512.727 540H506.057V480H512.727V540ZM492.724 540H499.394V480H492.724V540ZM479.4 540H486.07V480H479.4V540ZM526.061 540H519.391V480H526.061V540Z" fill="#1F242C"/>
<path fill-rule="evenodd" clip-rule="evenodd" d="M712.73 420H719.4V360H712.73V420ZM692.727 420H686.057V360H692.727V420ZM672.724 420H679.394V360H672.724V420ZM659.4 420H666.07V360H659.4V420ZM706.061 420H699.391V360H706.061V420Z" fill="#1F242C"/>
<path fill-rule="evenodd" clip-rule="evenodd" d="M232.131 60H238.801V0H232.131V60ZM212.127 60H205.458V0H212.127V60ZM192.124 60H198.794V0H192.124V60ZM178.801 60H185.471V0H178.801V60ZM225.461 60H218.791V0H225.461V60Z" fill="#4038FF"/>
</svg>
