<svg width="24" height="24" viewBox="0 0 24 24" fill="none" xmlns="http://www.w3.org/2000/svg">
<path fill-rule="evenodd" clip-rule="evenodd" d="M18.6666 23H6.66663V21H18.6666V23Z" fill="#A7AEB7"/>
<path fill-rule="evenodd" clip-rule="evenodd" d="M8.94588 13L9.40095 11.6348C9.57693 11.1069 9.66664 10.554 9.66664 9.99753V9.7596C9.66664 9.1385 9.47277 8.50001 9.21341 7.68204L9.19461 7.62277C8.95713 6.8745 8.66664 5.95918 8.66664 5C8.66664 2.79086 10.4575 1 12.6666 1C14.8758 1 16.6666 2.79086 16.6666 5C16.6666 5.95918 16.3762 6.8745 16.1387 7.62277L16.1199 7.68204C15.8605 8.50001 15.6666 9.1385 15.6666 9.7596V9.99753C15.6666 10.554 15.7564 11.1069 15.9323 11.6348L16.3874 13H18.2847L20.5611 17.5528L19.6666 19H5.66664L4.77222 17.5528L7.04861 13H8.94588ZM10.6666 5C10.6666 3.89543 11.5621 3 12.6666 3C13.7712 3 14.6666 3.89543 14.6666 5C14.6666 5.6211 14.4728 6.25958 14.2134 7.07755L14.1946 7.13683C13.9571 7.8851 13.6666 8.80042 13.6666 9.7596V9.99753C13.6666 10.769 13.791 11.5354 14.035 12.2673L14.2792 13H11.0541L11.2983 12.2673C11.5423 11.5354 11.6666 10.769 11.6666 9.99753V9.7596C11.6666 8.80042 11.3762 7.8851 11.1387 7.13683L11.1199 7.07755C10.8605 6.25958 10.6666 5.6211 10.6666 5ZM7.28468 17L8.28468 15H17.0486L18.0486 17H7.28468Z" fill="#F2F5F9"/>
</svg>
