<svg width="24" height="24" viewBox="0 0 24 24" fill="none" xmlns="http://www.w3.org/2000/svg">
<path fill-rule="evenodd" clip-rule="evenodd" d="M8.7342 11.6348L8.27914 13H6.38186L4.10547 17.5528L4.9999 19H18.9999L19.8943 17.5528L17.6179 13H15.7207L15.2656 11.6348C15.0896 11.1069 14.9999 10.554 14.9999 9.99753V9.7596C14.9999 9.1385 15.1938 8.50001 15.4531 7.68204L15.4719 7.62277C15.7094 6.8745 15.9999 5.95918 15.9999 5C15.9999 2.79086 14.209 1 11.9999 1C9.79076 1 7.9999 2.79086 7.9999 5C7.9999 5.95918 8.29039 6.8745 8.52786 7.62277L8.54667 7.68204C8.80602 8.50001 8.9999 9.1385 8.9999 9.7596V9.99753C8.9999 10.554 8.91018 11.1069 8.7342 11.6348ZM11.9999 3C10.8953 3 9.9999 3.89543 9.9999 5C9.9999 5.6211 10.1938 6.25958 10.4531 7.07755L10.4719 7.13683C10.7094 7.8851 10.9999 8.80042 10.9999 9.7596V9.99753C10.9999 10.769 10.8755 11.5354 10.6316 12.2673L10.3873 13H13.6125L13.3682 12.2673C13.1243 11.5354 12.9999 10.769 12.9999 9.99753V9.7596C12.9999 8.80042 13.2904 7.8851 13.5279 7.13683L13.5467 7.07755C13.806 6.25958 13.9999 5.6211 13.9999 5C13.9999 3.89543 13.1045 3 11.9999 3ZM7.61793 15L6.61793 17H17.3819L16.3819 15H7.61793Z" fill="#4038FF"/>
<path d="M6 23H18V21H6V23Z" fill="#4038FF"/>
</svg>
