<svg width="24" height="24" viewBox="0 0 24 24" fill="none" xmlns="http://www.w3.org/2000/svg">
<path d="M11.3334 14.4143L16.0405 9.70718L14.6263 8.29297L11.3334 11.5859L10.0405 10.293L8.62628 11.7072L11.3334 14.4143Z" fill="#A7AEB7"/>
<path d="M4.33331 22H20.3333V20H4.33331V22Z" fill="#A7AEB7"/>
<path fill-rule="evenodd" clip-rule="evenodd" d="M11.9191 2.58579C12.7001 1.80474 13.9665 1.80474 14.7475 2.58579L20.7475 8.58579C21.5286 9.36684 21.5286 10.6332 20.7475 11.4142L14.1617 18H8.50489L3.9191 13.4142C3.13805 12.6332 3.13805 11.3668 3.9191 10.5858L11.9191 2.58579ZM13.3333 4L19.3333 10L13.3333 16H9.33331L5.33331 12L13.3333 4Z" fill="#F2F5F9"/>
</svg>
