<svg width="24" height="24" viewBox="0 0 24 24" fill="none" xmlns="http://www.w3.org/2000/svg">
<path d="M11.0001 14.4143L15.7072 9.70718L14.293 8.29297L11.0001 11.5859L9.70718 10.293L8.29297 11.7072L11.0001 14.4143Z" fill="#4038FF"/>
<path fill-rule="evenodd" clip-rule="evenodd" d="M14.4142 2.58579C13.6332 1.80474 12.3668 1.80474 11.5858 2.58579L3.58579 10.5858C2.80474 11.3668 2.80474 12.6332 3.58579 13.4142L8.17157 18H13.8284L20.4142 11.4142C21.1953 10.6332 21.1953 9.36684 20.4142 8.58579L14.4142 2.58579ZM19 10L13 4L5 12L9 16H13L19 10Z" fill="#4038FF"/>
<path d="M4 22H20V20H4V22Z" fill="#4038FF"/>
</svg>
