<svg width="21" height="20" viewBox="0 0 21 20" fill="none" xmlns="http://www.w3.org/2000/svg">
<path fill-rule="evenodd" clip-rule="evenodd" d="M10.5 19.75C15.8848 19.75 20.25 15.3848 20.25 10C20.25 4.61522 15.8848 0.25 10.5 0.25C5.11522 0.25 0.75 4.61522 0.75 10C0.75 15.3848 5.11522 19.75 10.5 19.75ZM13.4514 8.24905H16.125C16.0395 7.57224 15.8442 6.97148 15.539 6.44677C15.2379 5.92205 14.8472 5.47909 14.367 5.11787C13.8868 4.75285 13.3354 4.47529 12.7128 4.28517C12.0942 4.09506 11.4227 4 10.6984 4C9.59963 4 8.61076 4.23574 7.73176 4.70722C6.85275 5.17491 6.15688 5.85551 5.64413 6.74905C5.13138 7.64259 4.875 8.72624 4.875 10C4.875 11.27 5.12731 12.3517 5.63192 13.2452C6.1406 14.1388 6.83241 14.8213 7.70734 15.2928C8.58634 15.7643 9.58336 16 10.6984 16C11.5001 16 12.2183 15.8878 12.8532 15.6635C13.4921 15.4354 14.0414 15.1274 14.5013 14.7395C14.9652 14.3479 15.3335 13.9049 15.6061 13.4106C15.8829 12.9125 16.0558 12.3954 16.125 11.8593L13.4514 11.8479C13.3903 12.1597 13.2805 12.4373 13.1217 12.6806C12.9671 12.924 12.7718 13.1312 12.5357 13.3023C12.2997 13.4696 12.0291 13.597 11.7239 13.6844C11.4227 13.7719 11.0952 13.8156 10.7411 13.8156C10.1103 13.8156 9.55487 13.6711 9.07467 13.3821C8.59448 13.0932 8.22009 12.6654 7.95151 12.0989C7.68699 11.5323 7.55473 10.8327 7.55473 10C7.55473 9.19011 7.68699 8.5019 7.95151 7.93536C8.21602 7.36502 8.58837 6.93156 9.06857 6.63498C9.54877 6.3346 10.1124 6.18441 10.7594 6.18441C11.1175 6.18441 11.4492 6.23194 11.7544 6.327C12.0637 6.42205 12.3363 6.55894 12.5724 6.73764C12.8084 6.91635 13.0017 7.13308 13.1523 7.38783C13.3028 7.63878 13.4025 7.92586 13.4514 8.24905Z" fill="#F4F6F8"/>
</svg>
