<svg width="384" height="384" viewBox="0 0 384 384" fill="none" xmlns="http://www.w3.org/2000/svg">
<g clip-path="url(#clip0_7735_408904)">
<path fill-rule="evenodd" clip-rule="evenodd" d="M21.213 270.164V277.27H28.3317V270.164H35.4681L35.4681 277.27H42.6045L42.6045 270.164H49.7232V263.04H56.8596V270.164H49.7409L49.7409 277.27H56.8596L56.8596 270.164H64V277.288H56.8636V284.394H49.7449V291.518H56.8636V298.642H49.7449L49.7449 305.748H56.8636L56.8636 298.642H64V305.766H56.8636V312.872H64V320H56.8636V312.876H49.7449V320H42.6079V312.876H35.4715V320H28.3351V312.876H21.2164H21.1987L21.1987 305.77H14.08L14.08 298.646H21.1987L21.1987 291.522H14.08V284.398H21.1987L21.1987 277.291H14.08L14.08 270.167H21.1987L21.1987 263.043H28.3351L28.3351 270.167H21.213V270.164ZM21.7425 312.96H14.72L14.72 320H21.76V312.96H21.7425ZM56.96 291.2H64L64 284.16H56.96V291.2ZM42.24 270.08H35.2V263.04H42.24V270.08ZM49.28 305.92V312.96H42.24V305.92H49.28ZM14.08 305.751H7.04L7.04 298.645H14.08L14.08 291.52H7.04L7.04 284.395H14.08L14.08 277.271H7.04L7.04 270.164H14.08L14.08 263.04H7.04L7.04 270.164H0L0 277.289H7.04L7.04 284.395H0L0 291.52H7.04L7.04 298.645H0L0 305.769H7.04L7.04 312.876H0L0 320H7.04L7.04 312.876H14.08L14.08 305.751ZM28.16 277.76H35.2V284.8H28.16L28.16 277.76ZM28.8 291.2H21.76V284.16H28.8V291.2ZM28.16 298.24L28.16 291.2H35.2V298.24H28.16ZM28.8 298.24V305.28H21.76V298.24H28.8ZM42.24 298.24L42.24 305.28H35.2L35.2 298.24H42.24ZM42.24 291.2H49.28V298.24H42.24V291.2ZM42.24 284.16V291.2H35.2V284.16H42.24ZM42.24 284.8V277.76H49.28V284.8H42.24ZM35.2 305.92H28.16L28.16 312.96H35.2V305.92ZM56.96 256V263.04H64V256H56.96ZM42.24 263.04V256H49.28V263.04H42.24ZM28.16 256V263.04H35.2V256H28.16ZM14.72 263.04L14.72 256H21.76V263.04H14.72ZM0 263.04L0 256H7.04L7.04 263.04H0Z" fill="#1F252E"/>
<path fill-rule="evenodd" clip-rule="evenodd" d="M192 135.04V128H128L128 135.04H192ZM192 142.72V149.76H128V142.72H192ZM192 156.16V163.2H128V156.16H192ZM192 177.28V170.24H128V177.28H192ZM192 184.96V192H128V184.96H192Z" fill="#1F252E"/>
<path fill-rule="evenodd" clip-rule="evenodd" d="M256 7.04V0H192L192 7.04H256ZM256 14.72V21.76H192V14.72H256ZM256 28.16V35.2H192V28.16H256ZM256 49.28V42.24H192V49.28H256ZM256 56.96V64H192V56.96H256Z" fill="white"/>
<path fill-rule="evenodd" clip-rule="evenodd" d="M71.04 0H64L64 64H71.04L71.04 0ZM78.72 0H85.76L85.76 64H78.72L78.72 0ZM92.16 0H99.2L99.2 64H92.16L92.16 0ZM113.28 0H106.24L106.24 64H113.28L113.28 0ZM120.96 0H128V64H120.96L120.96 0Z" fill="#1F252E"/>
<path fill-rule="evenodd" clip-rule="evenodd" d="M71.04 320H64L64 384H71.04L71.04 320ZM78.72 320H85.76L85.76 384H78.72L78.72 320ZM92.16 320H99.2L99.2 384H92.16L92.16 320ZM113.28 320H106.24L106.24 384H113.28L113.28 320ZM120.96 320H128V384H120.96L120.96 320Z" fill="#1F252E"/>
<path fill-rule="evenodd" clip-rule="evenodd" d="M320 120.889V128C284.654 128 256 99.3458 256 64H263.111C263.111 95.4204 288.58 120.889 320 120.889ZM320 106.788V113.92C292.43 113.92 270.08 91.5701 270.08 64H277.211C277.211 87.6301 296.37 106.788 320 106.788ZM320 99.2V92.1599C304.448 92.1599 291.84 79.5515 291.84 64H284.8C284.8 83.4411 300.559 99.2 320 99.2ZM320 78.5071V85.76C307.981 85.76 298.24 76.0189 298.24 64H305.493C305.493 72.0115 311.989 78.5071 320 78.5071ZM320 64V71.04C316.111 71.04 312.96 67.8895 312.96 64H320Z" fill="#1F252E"/>
<path fill-rule="evenodd" clip-rule="evenodd" d="M0 135.111V128C35.3456 128 64 156.654 64 192H56.8889C56.8889 160.58 31.4203 135.111 0 135.111ZM0 149.212V142.08C27.5701 142.08 49.92 164.43 49.92 192H42.7886C42.7886 168.37 23.6301 149.212 0 149.212ZM0 156.8L0 163.84C15.5516 163.84 28.16 176.449 28.16 192H35.2C35.2 172.559 19.4411 156.8 0 156.8ZM0 177.493V170.24C12.0191 170.24 21.76 179.981 21.76 192H14.5067C14.5067 183.989 8.01116 177.493 0 177.493ZM0 192V184.96C3.88946 184.96 7.04 188.11 7.04 192H0Z" fill="#1F252E"/>
<path fill-rule="evenodd" clip-rule="evenodd" d="M64 120.889V128C28.6544 128 0 99.3458 0 64H7.11111C7.11111 95.4204 32.5797 120.889 64 120.889ZM64 106.788L64 113.92C36.4299 113.92 14.08 91.5701 14.08 64H21.2114C21.2114 87.6301 40.3699 106.788 64 106.788ZM64 99.2V92.1599C48.4484 92.1599 35.84 79.5515 35.84 64H28.8C28.8 83.4411 44.5589 99.2 64 99.2ZM64 78.5071V85.76C51.9809 85.76 42.24 76.0189 42.24 64H49.4933C49.4933 72.0115 55.9888 78.5071 64 78.5071ZM64 64L64 71.04C60.1105 71.04 56.96 67.8895 56.96 64H64Z" fill="#4038FF"/>
<path d="M384 64V0H320C320 35.3458 348.654 64 384 64Z" fill="#1F252E"/>
<path fill-rule="evenodd" clip-rule="evenodd" d="M128 250.987V256H122.986L64 197.014V192H69.0129L128 250.987ZM64 207.36V217.364L102.637 256H112.64L64 207.36ZM64 237.262L64 227.2L92.8 256H82.7376L64 237.262ZM64 256H72.96L64 247.04L64 256ZM79.36 192H89.3638L128 230.636L128 240.64L79.36 192ZM109.262 192H99.2L128 220.8L128 210.738L109.262 192ZM128 200.96L119.04 192H128V200.96Z" fill="#1F252E"/>
</g>
<defs>
<clipPath id="clip0_7735_408904">
<rect width="384" height="384" fill="white" transform="matrix(0 -1 1 0 0 384)"/>
</clipPath>
</defs>
</svg>
