<svg width="24" height="24" viewBox="0 0 24 24" fill="none" xmlns="http://www.w3.org/2000/svg">
<path fill-rule="evenodd" clip-rule="evenodd" d="M16.9437 12.0001L9 7.23389V16.7663L16.9437 12.0001ZM13.0563 12.0001L11 13.2339V10.7663L13.0563 12.0001Z" fill="#4038FF"/>
<path fill-rule="evenodd" clip-rule="evenodd" d="M7.5 2C7.15163 2 6.82837 2.1813 6.64672 2.47855L1.14672 11.4785C0.951094 11.7987 0.951094 12.2013 1.14672 12.5215L6.64672 21.5215C6.82837 21.8187 7.15163 22 7.5 22H16.5C16.8484 22 17.1716 21.8187 17.3533 21.5215L22.8533 12.5215C23.0489 12.2013 23.0489 11.7987 22.8533 11.4785L17.3533 2.47855C17.1716 2.1813 16.8484 2 16.5 2H7.5ZM3.17195 12L8.06083 4H15.9392L20.8281 12L15.9392 20H8.06083L3.17195 12Z" fill="#4038FF"/>
</svg>
