<svg width="24" height="24" viewBox="0 0 24 24" fill="none" xmlns="http://www.w3.org/2000/svg">
<path d="M8 4H16V2H8V4Z" fill="#4038FF"/>
<path fill-rule="evenodd" clip-rule="evenodd" d="M11 11C9.89543 11 9 11.8954 9 13H4V15H9C9 16.1046 9.89543 17 11 17H13C14.1046 17 15 16.1046 15 15H20V13H15C15 11.8954 14.1046 11 13 11H11ZM11 13H13V15H11V13Z" fill="#4038FF"/>
<path fill-rule="evenodd" clip-rule="evenodd" d="M2 8C2 6.89543 2.89543 6 4 6H20C21.1046 6 22 6.89543 22 8V20C22 21.1046 21.1046 22 20 22H4C2.89543 22 2 21.1046 2 20V8ZM20 8L4 8V20H20V8Z" fill="#4038FF"/>
</svg>
