<svg width="24" height="24" viewBox="0 0 24 24" fill="none" xmlns="http://www.w3.org/2000/svg">
<path d="M8 4H16V2H8V4Z" fill="#4038FF"/>
<path fill-rule="evenodd" clip-rule="evenodd" d="M2 8C2 6.89543 2.89543 6 4 6H20C21.1046 6 22 6.89543 22 8V20C22 21.1046 21.1046 22 20 22H4C2.89543 22 2 21.1046 2 20V8ZM20 8L4 8V13H9C9 11.8954 9.89543 11 11 11H13C14.1046 11 15 11.8954 15 13H20V8ZM4 20V15H9C9 16.1046 9.89543 17 11 17H13C14.1046 17 15 16.1046 15 15H20V20H4ZM13 13H11V15H13V13Z" fill="#4038FF"/>
</svg>
