<svg xmlns="http://www.w3.org/2000/svg" width="237" height="100" viewBox="0 0 237 100">
  <g fill="none" fill-rule="evenodd">
    <rect width="237" height="100" fill="#4038FF" rx="3"/>
    <g fill="#536DFF" transform="rotate(-90 50 50)">
      <path fill-rule="nonzero" d="M49.253181,208 L48,208 L48,206.746667 L62.7465143,192 L64,192 L64,193.253333 L49.253181,208 Z M60.2310095,192 L57.7155048,192 L48,201.715535 L48,204.231101 L60.2310095,192 Z M55.2,192 L52.6844952,192 L48,196.684434 L48,199.2 L55.2,192 Z M48,192 L48,194.168887 L50.1686857,192 L48,192 Z M64,198.284434 L64,195.768899 L51.7686857,208 L54.2844952,208 L64,198.284434 Z M64,203.315535 L64,200.8 L56.8,208 L59.3155048,208 L64,203.315535 Z M64,205.831101 L61.8310095,208 L64,208 L64,205.831101 Z" transform="matrix(-1 0 0 1 112 0)"/>
      <path d="M46.2222064,208 L48,208 C48,216.836409 40.8364413,224 32,224 L32,222.222222 C39.855089,222.222222 46.2222064,215.855076 46.2222064,208 Z M42.6666192,208 L44.4444128,208 C44.4444128,214.872889 38.8728826,220.444444 32,220.444444 L32,218.666667 C37.8906762,218.666667 42.6666192,213.890702 42.6666192,208 Z M40.888968,208 L39.1111744,208 C39.1111744,211.92704 35.9271174,215.111111 32,215.111111 L32,216.888889 C36.9093238,216.888889 40.888968,212.909369 40.888968,208 Z M35.5555872,208 L37.3333808,208 C37.3333808,210.945707 34.9457651,213.333333 32,213.333333 L32,211.555556 C33.9635587,211.555556 35.5555872,209.96352 35.5555872,208 Z M32,208 L33.7777936,208 C33.7777936,208.982187 32.9822064,209.777778 32,209.777778 L32,208 Z" transform="matrix(0 -1 -1 0 256 256)"/>
      <path d="M26.6684698,69.3360356 L26.6684698,71.1102578 L28.4427046,71.1102578 L28.4427046,72.8888889 L26.6684698,72.8888889 L26.6684698,74.66752 L28.4427046,74.66752 L28.4427046,76.4417422 L30.2213523,76.4417422 L30.2213523,78.2203733 L28.4427046,78.2203733 L28.4427046,76.4461511 L26.6684698,76.4461511 L26.6684698,78.2203733 L28.4427046,78.2203733 L28.4427046,80 L26.6640569,80 L26.6640569,78.2213689 L24.8898221,78.2213689 L24.8898221,76.4471467 L23.1111744,76.4471467 L23.1111744,78.2213689 L21.3325267,78.2213689 L21.3325267,76.4471467 L19.5582918,76.4471467 L19.5582918,78.2213689 L21.3325267,78.2213689 L21.3325267,80 L19.5537367,80 L19.5537367,78.2213689 L17.7796441,78.2213689 L17.7796441,80 L16,80 L16,78.2213689 L17.7786477,78.2213689 L17.7786477,76.4471467 L16,76.4471467 L16,74.6683733 L17.7786477,74.6683733 L17.7786477,72.8897422 L16,72.8897422 L16,71.1111111 L17.7786477,71.1111111 L17.7786477,69.3368889 L17.7786477,69.33248 L19.5528826,69.33248 L19.5528826,67.5582578 L21.3315302,67.5582578 L21.3315302,69.33248 L23.1101779,69.33248 L23.1101779,67.5582578 L24.888968,67.5582578 L24.888968,69.33248 L26.6632028,69.33248 L26.6632028,67.5582578 L28.4418505,67.5582578 L28.4418505,69.33248 L30.2204982,69.33248 L30.2204982,71.1111111 L28.4418505,71.1111111 L28.4418505,69.3360356 L26.6684698,69.3360356 Z M17.7786477,69.3316267 L17.7786477,67.5572622 L16,67.5572622 L16,69.3360356 L17.7786477,69.3360356 L17.7786477,69.3316267 Z M23.1101779,78.2213689 L23.1101779,80 L24.888968,80 L24.888968,78.2213689 L23.1101779,78.2213689 Z M28.4427046,74.6683733 L28.4427046,72.8897422 L30.2213523,72.8897422 L30.2213523,74.6683733 L28.4427046,74.6683733 Z M19.5528826,76.4427378 L17.7786477,76.4427378 L17.7786477,74.6683733 L19.5528826,74.6683733 L19.5528826,76.4427378 Z M19.5572954,67.5572622 L19.5572954,65.7786311 L21.3315302,65.7786311 L21.3315302,67.5572622 L23.1101779,67.5572622 L23.1101779,65.7786311 L24.888968,65.7786311 L24.888968,67.5572622 L26.6676157,67.5572622 L26.6676157,65.7786311 L28.4418505,65.7786311 L28.4418505,67.5572622 L30.2204982,67.5572622 L30.2204982,65.7786311 L28.4418505,65.7786311 L28.4418505,64 L26.6632028,64 L26.6632028,65.7786311 L24.888968,65.7786311 L24.888968,64 L23.1101779,64 L23.1101779,65.7786311 L21.3315302,65.7786311 L21.3315302,64 L19.5528826,64 L19.5528826,65.7786311 L17.7786477,65.7786311 L17.7786477,64 L16,64 L16,65.7786311 L17.7786477,65.7786311 L17.7786477,67.5572622 L19.5572954,67.5572622 Z M26.6632028,71.1102578 L26.6632028,72.8888889 L24.888968,72.8888889 L24.888968,71.1102578 L26.6632028,71.1102578 Z M23.1101779,71.1102578 L23.1101779,69.3360356 L24.888968,69.3360356 L24.888968,71.1102578 L23.1101779,71.1102578 Z M21.3315302,71.1102578 L23.1101779,71.1102578 L23.1101779,72.8888889 L21.3315302,72.8888889 L21.3315302,71.1102578 Z M21.3315302,71.1102578 L19.5572954,71.1102578 L19.5572954,69.3360356 L21.3315302,69.3360356 L21.3315302,71.1102578 Z M21.3315302,74.6683733 L19.5572954,74.6683733 L19.5572954,72.8897422 L21.3315302,72.8897422 L21.3315302,74.6683733 Z M23.1101779,74.6683733 L23.1101779,76.4427378 L21.3315302,76.4427378 L21.3315302,74.6683733 L23.1101779,74.6683733 Z M24.8898221,74.6683733 L23.1111744,74.6683733 L23.1111744,72.8897422 L24.8898221,72.8897422 L24.8898221,74.6683733 Z M24.8898221,74.6683733 L26.6640569,74.6683733 L26.6640569,76.4427378 L24.8898221,76.4427378 L24.8898221,74.6683733 Z M19.5528826,72.8897422 L19.5528826,71.1111111 L17.7786477,71.1111111 L17.7786477,72.8897422 L19.5528826,72.8897422 Z M32,78.2213689 L30.2213523,78.2213689 L30.2213523,80 L32,80 L32,78.2213689 Z M30.2213523,74.6683733 L32,74.6683733 L32,76.4471467 L30.2213523,76.4471467 L30.2213523,74.6683733 Z M32,71.1102578 L30.2213523,71.1102578 L30.2213523,72.8888889 L32,72.8888889 L32,71.1102578 Z M30.2213523,67.5572622 L32,67.5572622 L32,69.3360356 L30.2213523,69.3360356 L30.2213523,67.5572622 Z M30.2213523,64 L32,64 L32,65.7786311 L30.2213523,65.7786311 L30.2213523,64 Z" transform="matrix(0 1 1 0 -48 48)"/>
      <path d="M94.6684698,149.336036 L94.6684698,151.110258 L96.4427046,151.110258 L96.4427046,152.888889 L94.6684698,152.888889 L94.6684698,154.66752 L96.4427046,154.66752 L96.4427046,156.441742 L98.2213523,156.441742 L98.2213523,158.220373 L96.4427046,158.220373 L96.4427046,156.446151 L94.6684698,156.446151 L94.6684698,158.220373 L96.4427046,158.220373 L96.4427046,160 L94.6640569,160 L94.6640569,158.221369 L92.8898221,158.221369 L92.8898221,156.447147 L91.1111744,156.447147 L91.1111744,158.221369 L89.3325267,158.221369 L89.3325267,156.447147 L87.5582918,156.447147 L87.5582918,158.221369 L89.3325267,158.221369 L89.3325267,160 L87.5537367,160 L87.5537367,158.221369 L85.7796441,158.221369 L85.7796441,160 L84,160 L84,158.221369 L85.7786477,158.221369 L85.7786477,156.447147 L84,156.447147 L84,154.668373 L85.7786477,154.668373 L85.7786477,152.889742 L84,152.889742 L84,151.111111 L85.7786477,151.111111 L85.7786477,149.336889 L85.7786477,149.33248 L87.5528826,149.33248 L87.5528826,147.558258 L89.3315302,147.558258 L89.3315302,149.33248 L91.1101779,149.33248 L91.1101779,147.558258 L92.888968,147.558258 L92.888968,149.33248 L94.6632028,149.33248 L94.6632028,147.558258 L96.4418505,147.558258 L96.4418505,149.33248 L98.2204982,149.33248 L98.2204982,151.111111 L96.4418505,151.111111 L96.4418505,149.336036 L94.6684698,149.336036 Z M85.7786477,149.331627 L85.7786477,147.557262 L84,147.557262 L84,149.336036 L85.7786477,149.336036 L85.7786477,149.331627 Z M91.1101779,158.221369 L91.1101779,160 L92.888968,160 L92.888968,158.221369 L91.1101779,158.221369 Z M96.4427046,154.668373 L96.4427046,152.889742 L98.2213523,152.889742 L98.2213523,154.668373 L96.4427046,154.668373 Z M87.5528826,156.442738 L85.7786477,156.442738 L85.7786477,154.668373 L87.5528826,154.668373 L87.5528826,156.442738 Z M87.5572954,147.557262 L87.5572954,145.778631 L89.3315302,145.778631 L89.3315302,147.557262 L91.1101779,147.557262 L91.1101779,145.778631 L92.888968,145.778631 L92.888968,147.557262 L94.6676157,147.557262 L94.6676157,145.778631 L96.4418505,145.778631 L96.4418505,147.557262 L98.2204982,147.557262 L98.2204982,145.778631 L96.4418505,145.778631 L96.4418505,144 L94.6632028,144 L94.6632028,145.778631 L92.888968,145.778631 L92.888968,144 L91.1101779,144 L91.1101779,145.778631 L89.3315302,145.778631 L89.3315302,144 L87.5528826,144 L87.5528826,145.778631 L85.7786477,145.778631 L85.7786477,144 L84,144 L84,145.778631 L85.7786477,145.778631 L85.7786477,147.557262 L87.5572954,147.557262 Z M94.6632028,151.110258 L94.6632028,152.888889 L92.888968,152.888889 L92.888968,151.110258 L94.6632028,151.110258 Z M91.1101779,151.110258 L91.1101779,149.336036 L92.888968,149.336036 L92.888968,151.110258 L91.1101779,151.110258 Z M89.3315302,151.110258 L91.1101779,151.110258 L91.1101779,152.888889 L89.3315302,152.888889 L89.3315302,151.110258 Z M89.3315302,151.110258 L87.5572954,151.110258 L87.5572954,149.336036 L89.3315302,149.336036 L89.3315302,151.110258 Z M89.3315302,154.668373 L87.5572954,154.668373 L87.5572954,152.889742 L89.3315302,152.889742 L89.3315302,154.668373 Z M91.1101779,154.668373 L91.1101779,156.442738 L89.3315302,156.442738 L89.3315302,154.668373 L91.1101779,154.668373 Z M92.8898221,154.668373 L91.1111744,154.668373 L91.1111744,152.889742 L92.8898221,152.889742 L92.8898221,154.668373 Z M92.8898221,154.668373 L94.6640569,154.668373 L94.6640569,156.442738 L92.8898221,156.442738 L92.8898221,154.668373 Z M87.5528826,152.889742 L87.5528826,151.111111 L85.7786477,151.111111 L85.7786477,152.889742 L87.5528826,152.889742 Z M100,158.221369 L98.2213523,158.221369 L98.2213523,160 L100,160 L100,158.221369 Z M98.2213523,154.668373 L100,154.668373 L100,156.447147 L98.2213523,156.447147 L98.2213523,154.668373 Z M100,151.110258 L98.2213523,151.110258 L98.2213523,152.888889 L100,152.888889 L100,151.110258 Z M98.2213523,147.557262 L100,147.557262 L100,149.336036 L98.2213523,149.336036 L98.2213523,147.557262 Z M98.2213523,144 L100,144 L100,145.778631 L98.2213523,145.778631 L98.2213523,144 Z" transform="matrix(0 1 1 0 -60 60)"/>
      <path d="M58.6684698,37.3360356 L58.6684698,39.1102578 L60.4427046,39.1102578 L60.4427046,40.8888889 L58.6684698,40.8888889 L58.6684698,42.66752 L60.4427046,42.66752 L60.4427046,44.4417422 L62.2213523,44.4417422 L62.2213523,46.2203733 L60.4427046,46.2203733 L60.4427046,44.4461511 L58.6684698,44.4461511 L58.6684698,46.2203733 L60.4427046,46.2203733 L60.4427046,48 L58.6640569,48 L58.6640569,46.2213689 L56.8898221,46.2213689 L56.8898221,44.4471467 L55.1111744,44.4471467 L55.1111744,46.2213689 L53.3325267,46.2213689 L53.3325267,44.4471467 L51.5582918,44.4471467 L51.5582918,46.2213689 L53.3325267,46.2213689 L53.3325267,48 L51.5537367,48 L51.5537367,46.2213689 L49.7796441,46.2213689 L49.7796441,48 L48,48 L48,46.2213689 L49.7786477,46.2213689 L49.7786477,44.4471467 L48,44.4471467 L48,42.6683733 L49.7786477,42.6683733 L49.7786477,40.8897422 L48,40.8897422 L48,39.1111111 L49.7786477,39.1111111 L49.7786477,37.3368889 L49.7786477,37.33248 L51.5528826,37.33248 L51.5528826,35.5582578 L53.3315302,35.5582578 L53.3315302,37.33248 L55.1101779,37.33248 L55.1101779,35.5582578 L56.888968,35.5582578 L56.888968,37.33248 L58.6632028,37.33248 L58.6632028,35.5582578 L60.4418505,35.5582578 L60.4418505,37.33248 L62.2204982,37.33248 L62.2204982,39.1111111 L60.4418505,39.1111111 L60.4418505,37.3360356 L58.6684698,37.3360356 Z M49.7786477,37.3316267 L49.7786477,35.5572622 L48,35.5572622 L48,37.3360356 L49.7786477,37.3360356 L49.7786477,37.3316267 Z M55.1101779,46.2213689 L55.1101779,48 L56.888968,48 L56.888968,46.2213689 L55.1101779,46.2213689 Z M60.4427046,42.6683733 L60.4427046,40.8897422 L62.2213523,40.8897422 L62.2213523,42.6683733 L60.4427046,42.6683733 Z M51.5528826,44.4427378 L49.7786477,44.4427378 L49.7786477,42.6683733 L51.5528826,42.6683733 L51.5528826,44.4427378 Z M51.5572954,35.5572622 L51.5572954,33.7786311 L53.3315302,33.7786311 L53.3315302,35.5572622 L55.1101779,35.5572622 L55.1101779,33.7786311 L56.888968,33.7786311 L56.888968,35.5572622 L58.6676157,35.5572622 L58.6676157,33.7786311 L60.4418505,33.7786311 L60.4418505,35.5572622 L62.2204982,35.5572622 L62.2204982,33.7786311 L60.4418505,33.7786311 L60.4418505,32 L58.6632028,32 L58.6632028,33.7786311 L56.888968,33.7786311 L56.888968,32 L55.1101779,32 L55.1101779,33.7786311 L53.3315302,33.7786311 L53.3315302,32 L51.5528826,32 L51.5528826,33.7786311 L49.7786477,33.7786311 L49.7786477,32 L48,32 L48,33.7786311 L49.7786477,33.7786311 L49.7786477,35.5572622 L51.5572954,35.5572622 Z M58.6632028,39.1102578 L58.6632028,40.8888889 L56.888968,40.8888889 L56.888968,39.1102578 L58.6632028,39.1102578 Z M55.1101779,39.1102578 L55.1101779,37.3360356 L56.888968,37.3360356 L56.888968,39.1102578 L55.1101779,39.1102578 Z M53.3315302,39.1102578 L55.1101779,39.1102578 L55.1101779,40.8888889 L53.3315302,40.8888889 L53.3315302,39.1102578 Z M53.3315302,39.1102578 L51.5572954,39.1102578 L51.5572954,37.3360356 L53.3315302,37.3360356 L53.3315302,39.1102578 Z M53.3315302,42.6683733 L51.5572954,42.6683733 L51.5572954,40.8897422 L53.3315302,40.8897422 L53.3315302,42.6683733 Z M55.1101779,42.6683733 L55.1101779,44.4427378 L53.3315302,44.4427378 L53.3315302,42.6683733 L55.1101779,42.6683733 Z M56.8898221,42.6683733 L55.1111744,42.6683733 L55.1111744,40.8897422 L56.8898221,40.8897422 L56.8898221,42.6683733 Z M56.8898221,42.6683733 L58.6640569,42.6683733 L58.6640569,44.4427378 L56.8898221,44.4427378 L56.8898221,42.6683733 Z M51.5528826,40.8897422 L51.5528826,39.1111111 L49.7786477,39.1111111 L49.7786477,40.8897422 L51.5528826,40.8897422 Z M64,46.2213689 L62.2213523,46.2213689 L62.2213523,48 L64,48 L64,46.2213689 Z M62.2213523,42.6683733 L64,42.6683733 L64,44.4471467 L62.2213523,44.4471467 L62.2213523,42.6683733 Z M64,39.1102578 L62.2213523,39.1102578 L62.2213523,40.8888889 L64,40.8888889 L64,39.1102578 Z M62.2213523,35.5572622 L64,35.5572622 L64,37.3360356 L62.2213523,37.3360356 L62.2213523,35.5572622 Z M62.2213523,32 L64,32 L64,33.7786311 L62.2213523,33.7786311 L62.2213523,32 Z" transform="matrix(0 1 1 0 16 -16)"/>
      <path d="M14.2213523,96 L16,96 L16,80 L14.2213523,80 L14.2213523,96 Z M12.4444128,96 L10.6666192,96 L10.6666192,80 L12.4444128,80 L12.4444128,96 Z M8.88896797,96 L7.11117438,96 L7.11117438,80 L8.88896797,80 L8.88896797,96 Z M3.55558719,96 L5.33338078,96 L5.33338078,80 L3.55558719,80 L3.55558719,96 Z M1.77779359,96 L0,96 L0,80 L1.77779359,80 L1.77779359,96 Z" transform="matrix(0 1 1 0 -80 80)"/>
      <path d="M64,81.7786311 L64,80 L48,80 L48,81.7786311 L64,81.7786311 Z M64,83.5555556 L64,85.3333333 L48,85.3333333 L48,83.5555556 L64,83.5555556 Z M64,87.1111111 L64,88.8888889 L48,88.8888889 L48,87.1111111 L64,87.1111111 Z M64,92.4444444 L64,90.6666667 L48,90.6666667 L48,92.4444444 L64,92.4444444 Z M64,94.2222222 L64,96 L48,96 L48,94.2222222 L64,94.2222222 Z" transform="matrix(0 1 1 0 -32 32)"/>
      <path d="M16,129.778631 L16,128 L0,128 L0,129.778631 L16,129.778631 Z M16,131.555556 L16,133.333333 L0,133.333333 L0,131.555556 L16,131.555556 Z M16,135.111111 L16,136.888889 L0,136.888889 L0,135.111111 L16,135.111111 Z M16,140.444444 L16,138.666667 L0,138.666667 L0,140.444444 L16,140.444444 Z M16,142.222222 L16,144 L0,144 L0,142.222222 L16,142.222222 Z" transform="matrix(0 1 1 0 -128 128)"/>
      <path d="M14.2222064,176 L16,176 C16,184.836409 8.83644128,192 0,192 L0,190.222222 C7.85508897,190.222222 14.2222064,183.855076 14.2222064,176 Z M10.6666192,176 L12.4444128,176 C12.4444128,182.872889 6.87288256,188.444444 0,188.444444 L0,186.666667 C5.89067616,186.666667 10.6666192,181.890702 10.6666192,176 Z M8.88896797,176 L7.11117438,176 C7.11117438,179.92704 3.92711744,183.111111 0,183.111111 L0,184.888889 C4.90932384,184.888889 8.88896797,180.909369 8.88896797,176 Z M3.55558719,176 L5.33338078,176 C5.33338078,178.945707 2.94576512,181.333333 0,181.333333 L0,179.555556 C1.96355872,179.555556 3.55558719,177.96352 3.55558719,176 Z M0,176 L1.77779359,176 C1.77779359,176.982187 0.982206406,177.777778 0,177.777778 L0,176 Z" transform="matrix(1 0 0 -1 0 368)"/>
      <path d="M33.7777936,64 L32,64 C32,55.1635911 39.1635587,48 48,48 L48,49.7777778 C40.144911,49.7777778 33.7777936,56.1449244 33.7777936,64 Z M37.3333808,64 L35.5555872,64 C35.5555872,57.1271111 41.1271174,51.5555556 48,51.5555556 L48,53.3333333 C42.1093238,53.3333333 37.3333808,58.1092978 37.3333808,64 Z M39.1111744,64 L40.888968,64 C40.888968,60.0728178 44.0728826,56.8888889 48,56.8888889 L48,55.1111111 C43.0906762,55.1111111 39.1111744,59.0906311 39.1111744,64 Z M44.4444128,64 L42.6667616,64 C42.6667616,61.0541511 45.0542349,58.6666667 48,58.6666667 L48,60.4444444 C46.0364413,60.4444444 44.4444128,62.03648 44.4444128,64 Z M48,64 L46.2222064,64 C46.2222064,63.0178133 47.0177936,62.2222222 48,62.2222222 L48,64 Z" transform="matrix(1 0 0 -1 0 112)"/>
      <path fill-rule="nonzero" d="M16,32 L16,48 L32,48 C32,39.1635911 24.8364413,32 16,32 Z" transform="matrix(0 -1 -1 0 64 64)"/>
      <path fill-rule="nonzero" d="M0,32 L16,32 L16,16 C7.16355872,16 0,23.1635911 0,32 Z" transform="matrix(0 1 1 0 -16 16)"/>
      <path d="M33.7786477,16 L32,16 L32,0 L33.7786477,0 L33.7786477,16 Z M39.1128826,16 L40.8915302,16 L40.8915302,0 L39.1128826,0 L39.1128826,16 Z M44.4471174,16 L42.6684698,16 L42.6684698,0 L44.4471174,0 L44.4471174,16 Z M48,16 L46.2213523,16 L46.2213523,0 L48,0 L48,16 Z M35.5572954,16 L37.3359431,16 L37.3359431,0 L35.5572954,0 L35.5572954,16 Z" transform="matrix(0 1 1 0 32 -32)"/>
    </g>
  </g>
</svg>
