<?xml version="1.0" encoding="UTF-8" standalone="no"?>
<svg
   xmlns:dc="http://purl.org/dc/elements/1.1/"
   xmlns:cc="http://creativecommons.org/ns#"
   xmlns:rdf="http://www.w3.org/1999/02/22-rdf-syntax-ns#"
   xmlns:svg="http://www.w3.org/2000/svg"
   xmlns="http://www.w3.org/2000/svg"
   xmlns:sodipodi="http://sodipodi.sourceforge.net/DTD/sodipodi-0.dtd"
   xmlns:inkscape="http://www.inkscape.org/namespaces/inkscape"
   width="125"
   height="79"
   viewBox="0 0 125 79"
   fill="none"
   version="1.1"
   id="svg3987"
   sodipodi:docname="fm-avatars-bg-right-alt.svg"
   inkscape:version="1.0.1 (1.0.1+r74)">
  <metadata
     id="metadata3991">
    <rdf:RDF>
      <cc:Work
         rdf:about="">
        <dc:format>image/svg+xml</dc:format>
        <dc:type
           rdf:resource="http://purl.org/dc/dcmitype/StillImage" />
      </cc:Work>
    </rdf:RDF>
  </metadata>
  <sodipodi:namedview
     pagecolor="#ffffff"
     bordercolor="#666666"
     borderopacity="1"
     objecttolerance="10"
     gridtolerance="10"
     guidetolerance="10"
     inkscape:pageopacity="0"
     inkscape:pageshadow="2"
     inkscape:window-width="1528"
     inkscape:window-height="1122"
     id="namedview3989"
     showgrid="false"
     inkscape:zoom="5.388"
     inkscape:cx="31.935191"
     inkscape:cy="36.327176"
     inkscape:window-x="72"
     inkscape:window-y="41"
     inkscape:window-maximized="1"
     inkscape:current-layer="svg3987" />
  <g
     clip-path="url(#clip0)"
     id="g3883"
     transform="translate(0.06456949,-4.2592412)">
    <path
       d="M 72,47.5 C 72,30.103 86.103,16 103.5,16 v 0 c 17.397,0 31.5,14.103 31.5,31.5 v 0 C 135,64.897 120.897,79 103.5,79 v 0 C 86.103,79 72,64.897 72,47.5 Z"
       fill="#00efe1"
       id="path3727" />
    <path
       d="m 102.359,93.7656 c -0.925,0 -1.853,-0.0346 -2.7587,-0.1039 -1.4622,-0.1108 -4.8862,-0.3716 -8.9109,-1.6683 -5.073,-1.6364 -9.3278,-4.326 -12.6469,-8.0003 -2.599,-2.8743 -8.4479,-10.4906 -6.7094,-19.0752 0.1858,-0.9174 0.7508,-3.7109 2.9225,-6.4024 3.9236,-4.8621 9.8187,-5.5466 12.1713,-5.6149 h 0.0616 c 0.2798,0.002 0.5568,-0.0558 0.8125,-0.1694 0.2801,-0.1261 0.6738,-0.3976 0.8606,-0.7509 0.0847,-0.1598 0.0827,-0.4033 -0.0097,-1.7413 -0.0134,-0.1878 -0.0269,-0.3851 -0.0414,-0.6084 -0.0298,-0.3049 -0.0356,-0.6116 -0.0173,-0.9174 -0.026,-0.4158 -0.0712,-1.1157 -0.1521,-2.2881 -0.179,-2.6222 -0.3022,-4.4194 -0.3292,-4.7968 -0.0616,-0.36 -0.1261,-0.6853 -0.1925,-1.0011 -0.2676,-1.3476 -0.5208,-2.6125 0.2137,-4.0699 0.2407,-0.4765 0.5566,-0.9111 0.9356,-1.287 0.4744,-1.7021 1.1788,-3.3314 2.0937,-4.843 0.6902,-1.1397 2.525,-4.1671 6.257,-6.3282 1.418,-0.8211 3.7866,-2.1929 6.8076,-2.1929 0.451,0.0017 0.901,0.0339 1.348,0.0963 2.49,0.3379 4.279,1.5402 5.715,2.5028 1.59,1.0637 2.998,2.3769 4.17,3.889 1.636,2.136 2.348,4.1123 2.818,5.4195 0.356,0.9854 0.645,1.9932 0.867,3.0169 0.214,0.1965 0.408,0.4149 0.577,0.6517 1.129,1.5729 0.786,3.3325 0.455,5.0354 -0.041,0.2118 -0.084,0.4313 -0.125,0.6594 -0.123,0.6661 -0.2,1.3534 -0.28,2.0812 -0.063,0.567 -0.128,1.1551 -0.217,1.7452 -0.241,1.5835 -0.467,3.219 -0.674,4.868 0.104,0.1365 0.229,0.2562 0.37,0.3552 0.368,0.2541 0.77,0.283 1.515,0.3147 0.159,0.0068 0.317,0.0135 0.471,0.0241 2.022,0.1309 3.417,0.746 5.723,1.7645 1.883,0.8326 3.658,1.6181 5.295,3.4269 1.409,1.6015 2.382,3.5399 2.822,5.6275 0.394,1.879 0.377,3.9996 -0.98,8.2467 -0.564,1.7654 -2.063,6.4495 -4.56,10.0565 -2.571,3.7099 -6.554,6.8105 -11.519,8.9667 -4.686,2.035 -9.929,3.1112 -15.159,3.1112 z"
       fill="#000000"
       id="path3729" />
    <path
       d="m 101.136,77.8139 c -0.222,-0.0722 -0.318,-0.2648 -0.414,-0.4573 -0.097,-1.5402 1.155,-3.2729 -0.235,-4.506 -0.193,-0.2551 -0.339,-0.516 -0.259,-0.6796 0.08,-0.1636 0.435,-0.103 0.501,-0.3157 0.074,-0.2388 -0.198,-0.3851 -0.337,-0.5304 -0.323,-0.3418 -0.5598,-0.7923 -0.9785,-1.0272 0.0587,-0.0308 0.1174,-0.1116 0.1761,-0.1386 C 99.0419,69.8896 98.422,69.8703 97.9243,69.4786 97.4555,69.1137 97.1455,68.5978 96.6248,68.2917 96.104,67.9855 95.5659,67.8363 95.1982,67.3002 94.8439,66.7861 94.6341,66.1787 94.3222,65.6396 93.993,65.0698 93.6897,64.5269 93.5319,63.8819 93.374,63.237 93.27,62.618 92.9543,62.0375 92.3324,60.9113 91.3794,60.0064 90.7797,58.8609 90.4313,58.1957 90.1001,57.443 90.0905,56.6796 c -0.0077,-0.6064 0.4467,-1.4102 0.0202,-1.9618 -0.4264,-0.5516 -0.9934,0.0048 -1.3852,0.2984 -0.4921,0.3744 -1.0576,0.6411 -1.6595,0.7826 -1.3285,0.3186 -2.7127,0.2628 -4.043,0.5651 -2.3026,0.5217 -4.172,2.0118 -5.872,3.5742 -1.4574,1.3351 -3.3884,3.4163 -2.6183,5.5831 0.1627,0.4582 0.4197,0.8664 0.8904,0.5969 0.2445,-0.1406 0.4293,-0.3928 0.6873,-0.5352 0.258,-0.1425 0.5131,-0.233 0.7595,-0.3735 0.9626,-0.5497 1.6365,-0.9453 2.7752,-0.7644 0.7981,0.1261 1.8107,0.4091 1.8974,1.3612 0.0587,0.6411 -0.3158,1.2389 -0.1791,1.8867 0.1175,0.5516 0.5352,0.9886 0.8664,1.4247 0.3913,0.496 0.7413,1.0234 1.0463,1.5767 0.2888,0.5593 0.3803,1.1311 0.5689,1.7212 0.0991,0.2866 0.2575,0.549 0.465,0.7701 0.1925,0.2224 0.4178,0.4264 0.6238,0.6661 0.2374,0.2432 0.4402,0.5178 0.6026,0.8163 0.5689,3.9034 3.4538,6.2744 6.9125,7.4334 0.4322,0.1453 0.8731,0.2714 1.3188,0.3783 0.3292,0.0317 0.6642,0.077 0.9992,0.1241 0.6538,0.1247 1.3148,0.208 1.9791,0.2494 1.2919,0.077 2.6395,-0.0193 3.41,-1.1744 0.28,-0.4027 0.454,-0.8702 0.505,-1.3585 0.05,-0.4883 -0.024,-0.9815 -0.217,-1.4331 0.193,0.0962 0.385,0.1925 0.578,0.0962 0.289,-0.0962 0.481,-0.2887 0.327,-0.8663 -0.059,-0.1091 -0.131,-0.2108 -0.213,-0.3032 z M 81.2286,61.9307 c 0.0225,0.0055 0.0437,0.0156 0.0621,0.0297 0.0183,0.0141 0.0336,0.0318 0.0448,0.0521 -0.0338,-0.0287 -0.0695,-0.055 -0.1069,-0.0789 z"
       fill="#c4c3c6"
       id="path3731" />
    <path
       d="m 96.5249,72.6113 c 7e-4,0.0101 0.0036,0.0199 0.0086,0.0286 -0.0044,-0.009 -0.0073,-0.0186 -0.0086,-0.0286 z"
       fill="#c4c3c6"
       id="path3733" />
    <path
       d="m 79.2046,63.8642 c 0,0 0,0 0,-0.0048 0.0162,0.0104 0.0334,0.0191 0.0514,0.0261 -0.0179,-0.0052 -0.0351,-0.0123 -0.0514,-0.0213 z"
       fill="#c4c3c6"
       id="path3735" />
    <path
       d="m 79.6268,64.04 v 0.0097 h -0.0125 z"
       fill="#c4c3c6"
       id="path3737" />
    <path
       d="m 79.6328,64.0522 c 0,0 0,-0.0061 0,-0.0102 l 0.0112,0.0081 z"
       fill="#c4c3c6"
       id="path3739" />
    <path
       d="m 83.4062,65.513 0.0286,-0.0086 c -0.0162,0.0019 -0.0257,0.0086 -0.0286,0.0086 z"
       fill="#c4c3c6"
       id="path3741" />
    <path
       d="m 83.4987,56.1626 c -0.0103,0.0158 -0.0235,0.0296 -0.0387,0.0407 0.0108,-0.0154 0.0239,-0.0291 0.0387,-0.0407 z"
       fill="#c4c3c6"
       id="path3743" />
    <path
       d="m 96.5763,72.6906 c -0.0194,-0.0103 -0.0353,-0.0261 -0.0455,-0.0456 0.0148,0.0187 0.0333,0.0341 0.0542,0.0456 z"
       fill="#c4c3c6"
       id="path3745" />
    <path
       d="m 116.897,55.7287 c 0.289,0.3648 0.412,0.7479 0.314,1.1965 -0.037,0.1723 -0.102,0.3408 -0.152,0.5111 0.266,-0.0641 0.532,-0.1283 0.798,-0.1925 0.66,-0.153 1.34,-0.3552 2.022,-0.4206 l -0.03,-0.0174 c 0.185,-0.1405 0.353,-0.0741 0.517,0 0.172,0.0016 0.343,0.0161 0.513,0.0433 0.112,0.0193 0.224,0.0453 0.335,0.0742 0.047,-0.0786 0.086,-0.1622 0.114,-0.2494 0.009,-0.024 0.035,-0.0413 0.053,-0.0616 l 0.46,0.0559 c 0.377,0.0606 0.747,-0.465 1.031,-0.1925 0.126,0.1223 0.284,0.2067 0.456,0.2435 0.062,-0.0067 0.125,-0.0135 0.192,-0.0164 0.255,-0.0131 0.51,-0.006 0.763,0.0212 0.005,-0.063 0.015,-0.1255 0.03,-0.1867 -0.429,-0.1762 -0.857,-0.3851 -1.299,-0.4207 -0.917,-0.0799 -1.854,0.1781 -2.769,-0.1136 -0.561,-0.026 -1.131,0.0529 -1.679,-0.1319 -0.097,-0.2888 -0.391,-0.1925 -0.587,-0.2888 -0.238,-0.1164 -0.667,-0.0269 -0.385,-0.5775 0.097,-0.1877 -0.385,-0.4082 -0.598,-0.618 -0.065,-0.0645 -0.217,-0.0106 -0.199,0.0606 0.105,0.4255 -0.202,0.8972 0.1,1.2813 z"
       fill="#c4c3c6"
       id="path3747" />
    <path
       d="m 108.285,41.316 c -0.673,0.2079 -1.375,0.3378 -1.985,0.72 -0.196,0.0675 -0.386,0.1492 -0.569,0.2445 -0.488,0.2965 -1.252,0.4457 -0.776,1.313 -0.091,0.1579 -0.083,0.3283 0.096,0.3793 0.179,0.051 0.14,-0.1656 0.2,-0.2599 0.097,-0.1502 0.171,-0.3167 0.279,-0.4563 0.721,-0.9251 1.829,-1.2081 2.819,-1.6759 0.063,-0.04 0.121,-0.0879 0.172,-0.1425 -0.081,-0.0443 -0.176,-0.1415 -0.236,-0.1222 z"
       fill="#c4c3c6"
       id="path3749" />
    <path
       d="m 116.236,37.8461 c -0.464,0.0212 -0.593,-0.1512 -0.482,-0.6017 0.041,-0.1626 -0.058,-0.3754 -0.138,-0.5438 -0.042,-0.0876 -0.152,-0.0097 -0.202,0.0596 -0.113,0.1647 -0.32,0.2657 -0.157,0.5613 0.101,0.1828 0.192,0.5178 -0.193,0.6603 -0.172,0.0645 -0.148,0.2888 -0.121,0.4091 0.044,0.1925 0.201,0.0116 0.309,0.0212 0.394,0.0337 0.717,-0.3437 1.178,-0.1723 0.061,-0.0241 0.244,-0.0732 0.241,-0.0963 -0.033,-0.2426 -0.247,-0.3061 -0.435,-0.2974 z"
       fill="#c4c3c6"
       id="path3751" />
    <path
       d="m 98.5349,46.38 c 0.0852,-0.1577 0.1053,-0.3426 0.0558,-0.515 -0.0424,-0.1386 -0.2253,-0.1925 -0.3851,-0.0847 l -0.2425,0.0154 c -0.3206,0.1097 -0.6074,0.2744 -0.6325,0.644 -0.0048,0.0732 0.2888,0.1348 0.3533,0.2512 0.1396,0.2436 -0.0587,0.2166 -0.2118,0.1983 0.0328,0.0231 0.0799,0.0722 0.0963,0.0636 0.334,-0.1733 0.7451,-0.2388 0.9665,-0.5728 z"
       fill="#c4c3c6"
       id="path3753" />
    <path
       d="m 115.621,35.886 c -0.424,-0.6565 0.184,-1.7443 -0.886,-2.1178 -0.046,-0.0164 -0.07,-0.1444 -0.075,-0.2224 -0.066,-0.9943 -0.258,-1.9252 -1.166,-2.5374 -0.154,-0.0976 -0.272,-0.2421 -0.337,-0.412 -0.33,-1.1552 -1.285,-1.8453 -2.104,-2.5519 -0.7,-0.6026 -1.587,-1.03 -2.381,-1.5546 -0.741,-0.4731 -1.519,-0.8836 -2.328,-1.2274 -1.047,-0.463 -2.18,-0.4178 -3.295,-0.4081 -1.059,0.0086 -2.155,0.1309 -3.0605,0.6064 -1.1667,0.6113 -2.317,1.2861 -3.4337,2.0138 -1.0473,0.6825 -1.8193,1.5777 -2.6183,2.4451 -1.1022,1.1965 -1.7057,2.7405 -2.4518,4.1806 -0.3321,0.6411 -0.4813,1.1706 0.2243,1.6365 0.0636,0.0423 0.077,0.1607 0.1146,0.2445 -0.0491,0.0173 -0.0963,0.0394 -0.1473,0.0519 -0.1386,0.0357 -0.3215,-0.3494 -0.4139,0.027 -0.0684,0.2772 0.1434,0.3764 0.3677,0.4813 0.1867,0.0838 0.3282,0.2618 0.5073,0.3697 0.3687,0.2204 0.2195,0.5544 0.2079,0.8576 0,0.0318 -0.078,0.0963 -0.0963,0.0867 -0.2801,-0.1088 -0.5467,-0.2349 -0.5448,-0.6036 -0.003,-0.0567 -0.022,-0.1115 -0.0549,-0.1578 -0.0895,-0.1339 -0.1646,-0.3418 -0.3773,-0.2157 -0.1665,0.0963 -0.3417,0.2436 -0.1415,0.4727 0.2002,0.2291 0.0789,0.385 -0.1021,0.5294 l -0.4813,-0.0077 c -0.3321,-0.0058 -0.4601,0.2724 -0.6314,0.4755 -0.0472,0.0568 -0.0174,0.1839 -0.0058,0.2763 0,0.0145 0.0962,0.0327 0.1386,0.026 0.7114,-0.1088 1.3977,0.593 1.2976,1.3265 -0.0443,0.3254 -0.3177,0.1338 -0.4746,0.1925 -0.1867,0.0751 -0.0683,-0.0962 -0.0712,-0.1684 -0.0058,-0.1435 0.1059,-0.3851 -0.0491,-0.4024 -0.155,-0.0173 -0.1925,0.2397 -0.2233,0.3985 -0.0528,0.2994 -0.0888,0.6015 -0.1078,0.9049 -0.0087,0.1588 0.0443,0.3138 0.2339,0.1116 0.2147,-0.2291 0.5362,-0.3504 0.7451,-0.1646 0.2368,0.2099 0.4408,0.5246 0.309,0.9261 -0.1156,0.3523 -0.1714,0.7238 -0.2532,1.0868 l -0.3244,0.0202 c 0.0318,-0.042 0.0537,-0.0907 0.0638,-0.1425 0.0101,-0.0517 0.0083,-0.105 -0.0053,-0.156 -0.0137,-0.0509 -0.0388,-0.098 -0.0735,-0.1377 -0.0346,-0.0397 -0.0779,-0.0709 -0.1265,-0.0913 -0.2272,-0.0963 -0.1386,0.1925 -0.2089,0.2936 l -0.0607,0.0895 c -0.0308,-0.0587 -0.0904,-0.1203 -0.0866,-0.1771 0.0443,-0.6142 -0.4466,-1.1032 -0.3937,-1.726 0.0135,-0.156 -0.0828,-0.439 -0.2792,-0.3985 -0.1732,0.0356 -0.0481,0.3003 -0.0741,0.4476 -0.0319,0.2481 0.0288,0.4993 0.1704,0.7056 0.2965,0.5034 -0.0674,1.1195 0.3157,1.5893 v 0.9905 c 0,0.4839 0,0.9681 0,1.4526 -0.0722,0.385 0.0713,0.799 -0.127,1.1734 0.0385,0.5468 -0.0722,1.0887 0.1367,1.648 0.0856,0.2301 0.3417,0.0963 0.3456,0.3514 0.0067,0.3735 0.1347,0.7335 -0.1579,1.0791 -0.0404,0.0703 -0.059,0.1509 -0.0535,0.2318 0.0055,0.0809 0.0348,0.1583 0.0843,0.2225 0.0557,-0.0535 0.1159,-0.1021 0.18,-0.1453 -0.0044,-0.0611 0.0042,-0.1225 0.025,-0.18 0.2051,-0.3918 0.0202,-0.9068 0.4332,-1.2515 0.13,-0.1078 0.1338,-0.333 -0.0481,-0.5496 -0.182,-0.2166 0,-0.592 -0.2282,-0.8356 0.1646,-0.127 0.0664,-0.513 0.257,-0.4745 0.2417,0.0481 -0.0442,0.2888 0,0.4476 0.0251,0.0962 0.0809,0.179 0.1021,0.2724 0.1713,0.7431 0.668,1.2514 1.1291,1.8357 0.723,0.9116 1.5932,1.5652 2.5789,2.1091 0.9626,0.5304 2.0436,0.463 3.089,0.567 -0.0789,0.4492 -0.1582,0.8968 -0.2377,1.3428 l -0.2542,0.1656 c 0.026,-0.1463 -0.0144,-0.2772 -0.18,-0.2493 -0.1492,0.025 -0.181,0.1925 -0.1357,0.309 0.2503,0.6488 -0.1242,1.1407 -0.4226,1.6364 -0.7017,1.1552 -0.825,2.4172 -0.7557,3.7225 0.0116,0.2185 0.259,0.3754 0.1714,0.6247 0.1665,-0.0375 0.1559,0.208 0.2147,0.1848 0.1299,-0.0519 0.075,-0.1655 0.025,-0.281 -0.128,-0.2946 0.0847,-0.5218 0.2454,-0.6999 0.1608,-0.178 0.1993,0.1406 0.337,0.1829 0.204,0.0636 0.385,0.1926 0.5775,0.2888 0.1387,0.0674 0.1704,0.1926 0.0597,0.258 -0.5776,0.3437 0.0626,0.2994 0.1357,0.4274 0.0366,0.0645 0.1165,0.104 0.1772,0.155 -0.2792,0.2339 -0.6931,0.0722 -0.9684,0.3282 -0.0174,0.0164 -0.1252,-0.0279 -0.156,-0.0693 -0.0616,-0.0856 -0.0837,-0.2502 -0.2281,-0.1675 -0.0416,0.0344 -0.0752,0.0773 -0.0988,0.1258 -0.0236,0.0484 -0.0365,0.1014 -0.0379,0.1553 -0.0106,0.4736 0.2503,0.7701 0.7075,0.695 0.5657,-0.0892 1.1164,-0.256 1.6365,-0.4957 2.1004,-1.0127 4.3224,-1.4045 6.6324,-1.4035 0.096,0 0.322,0 0.176,-0.1386 -0.268,-0.2484 -0.6,-0.5391 -0.936,-0.5863 -1.156,-0.1626 -1.471,-0.2618 -1.271,-1.3476 0.269,-1.4565 -0.51,-2.9841 0.376,-4.3597 0.423,-0.8375 0.851,-1.675 1.459,-2.395 0.162,-0.1925 0.441,-0.2888 0.667,-0.4274 -0.31,-0.1974 -0.655,-0.051 -0.98,-0.0963 -0.005,-0.1328 -0.193,-0.3186 0.043,-0.385 0.289,-0.0799 0.096,-0.18 0.096,-0.3225 0,-0.3802 -0.041,-0.6912 -0.376,-0.9135 -0.006,0 0.039,-0.0693 0.047,-0.1088 0.025,-0.1251 0.364,-0.0626 0.198,-0.2474 -0.034,-0.0441 -0.077,-0.081 -0.125,-0.1085 -0.049,-0.0275 -0.102,-0.0451 -0.158,-0.0518 -0.055,-0.0067 -0.112,-0.0024 -0.165,0.0127 -0.054,0.0151 -0.105,0.0408 -0.148,0.0754 -0.224,-0.0346 -0.444,0.1502 -0.669,0.0068 0.069,-0.0566 0.146,-0.1045 0.227,-0.1425 0.149,-0.0481 0.422,0.0067 0.409,-0.182 -0.018,-0.2618 -0.289,-0.102 -0.445,-0.1203 -0.136,-0.0061 -0.272,0.0152 -0.399,0.0626 -0.048,0.0098 -0.091,0.0376 -0.119,0.0777 -0.028,0.04 -0.04,0.0894 -0.033,0.1379 0.018,0.1675 0.114,0.2041 0.26,0.1752 -0.031,0.1868 -0.218,0.1107 -0.315,0.1858 l 0.012,0.0366 -0.009,0.0115 c 0.003,-0.0158 0.003,-0.0322 0,-0.0481 l -0.952,-0.1771 -0.335,-0.0867 0.017,-0.1338 0.268,-0.1145 c 0.288,0.0337 0.212,-0.1925 0.217,-0.3321 0,-0.0462 -0.131,-0.1367 -0.203,-0.1386 -0.233,0 -0.014,0.2175 -0.125,0.2888 l -0.157,-0.0126 -0.032,-0.102 -0.078,0.0963 -0.324,0.0086 c -0.641,-0.0962 -1.093,0.4351 -1.681,0.516 -0.0669,-0.019 -0.1366,-0.0262 -0.206,-0.0212 -0.9828,0.2676 -1.8626,0.9684 -2.9735,0.7027 -0.025,-0.0067 -0.0712,0.0713 -0.1078,0.1098 0.0578,0.0279 0.1155,0.0539 0.1714,0.0847 0.4379,0.2426 0.8769,-0.0193 1.3149,0.0048 0.0568,0.3436 -0.3013,0.3754 -0.4342,0.5776 l -0.1155,0.0259 c 0.0847,-0.1877 -0.0654,-0.3523 -0.1694,-0.3455 -0.1925,0.0125 -0.4466,-0.0174 -0.5564,0.2339 -0.3042,-0.0443 -0.3379,-0.3947 -0.5776,-0.5121 l 0.1194,-0.1386 c 0.102,-0.0106 0.2541,0.0279 0.0684,-0.1464 -0.2157,-0.2012 -0.3966,-0.4389 -0.5921,-0.6613 0.0588,-0.385 -0.4861,-0.4505 -0.4274,-0.8307 -0.2175,0.1607 0.1252,0.385 -0.0664,0.5602 -0.0487,0.0677 -0.0846,0.1437 -0.1059,0.2243 -0.1318,0 -0.1752,-0.104 -0.2185,-0.2031 0.0963,-0.0914 0.0308,-0.102 -0.0289,-0.1174 -0.0101,-0.0047 -0.0208,-0.0079 -0.0317,-0.0097 -0.0145,-0.0317 -0.0299,-0.0625 -0.0443,-0.0962 0.0366,-0.2108 -0.0318,-0.3225 -0.2647,-0.2802 -0.1675,0.0549 -0.1868,0.1839 -0.1666,0.3322 0.0145,0.18 0.0154,0.3542 -0.1857,0.4447 l -0.0722,-0.1925 c -0.0559,-0.6565 -0.2445,-0.8298 -0.8414,-0.7162 -0.2214,0.0414 -0.2791,-0.053 -0.307,-0.2253 -0.1517,-0.8484 -0.0746,-1.7219 0.2233,-2.5307 0.0327,-0.0866 0.1088,-0.18 0.1752,-0.1097 0.0301,0.0441 0.05,0.0944 0.058,0.1473 0.008,0.0528 0.0039,0.1067 -0.0118,0.1578 -0.2561,0.696 -0.2946,1.4122 -0.2599,2.1428 0.0058,0.1242 0.0192,0.1839 0.1309,0.2041 0.064,0.0059 0.1285,0.0059 0.1925,0 -0.014,-0.0745 -0.0243,-0.1497 -0.0308,-0.2253 -0.0183,-0.6401 -0.2888,-1.3168 0.3918,-1.829 0.9232,-0.693 1.9695,-1.0069 3.0967,-1.0983 0.7307,-0.0597 1.4642,-0.0963 2.1958,-0.1415 0.333,-0.0221 0.4197,-0.3966 0.3638,-0.514 -0.0962,-0.2099 -0.3629,-0.3601 -0.5862,-0.4814 -0.0364,-0.0223 -0.0771,-0.0367 -0.1195,-0.042 -0.0423,-0.0054 -0.0854,-0.0017 -0.1262,0.0109 -0.0408,0.0126 -0.0785,0.0337 -0.1104,0.062 -0.032,0.0283 -0.0576,0.063 -0.0751,0.102 -0.0183,0.0346 0.0231,0.0963 0.0375,0.1502 -0.0087,0.0075 -0.0194,0.0125 -0.0308,0.0142 -0.0115,0.0017 -0.0231,1e-4 -0.0337,-0.0046 0.0414,-0.3957 -0.18,-1.0531 0.6604,-0.6286 0.2769,0.13 0.5649,0.2351 0.8606,0.3138 0.119,0.0199 0.241,0.0143 0.357,-0.0164 0.02,0 0.049,-0.1328 0.035,-0.1415 -0.461,-0.2887 -0.7184,-0.9221 -1.398,-0.8528 -0.0084,-0.0166 -0.0177,-0.0327 -0.0279,-0.0482 -0.0173,0.0122 -0.0374,0.0199 -0.0584,0.0224 -0.021,0.0025 -0.0422,-2e-4 -0.0619,-0.0079 l 0.1203,-0.0145 -0.0895,-0.0529 c -0.0106,0.0221 -0.0203,0.0443 -0.0308,0.0674 -0.0938,-0.116 -0.2229,-0.1982 -0.3678,-0.2339 -0.7402,-0.2551 -1.4891,-0.0799 -2.2342,-0.0809 -0.4556,0.0991 -0.8705,0.334 -1.1898,0.6738 l -0.1463,-0.0471 c -0.0963,-0.0828 -0.309,-0.028 -0.2888,-0.2301 0.0125,-0.0372 0.0339,-0.0707 0.0625,-0.0976 0.0285,-0.0268 0.0633,-0.0462 0.1012,-0.0564 0.7585,-0.1011 1.3476,-0.6017 2.0494,-0.8404 0.2323,-0.0451 0.4729,-0.0165 0.6882,0.0818 0.053,0.1021 0.105,0.0674 0.1579,0 0.6873,0.0241 1.3198,0.2561 1.9464,0.5121 0.4185,0.3918 0.8545,0.2195 1.2585,0 0.226,-0.1222 0.296,-0.3224 0,-0.514 -0.243,-0.1579 -0.395,-0.438 0,-0.5265 0.394,-0.0886 0.338,-0.2686 0.244,-0.5237 0.014,-0.013 0.029,-0.0252 0.044,-0.0366 0.463,0.1213 0.804,0.3369 0.746,0.8972 -0.014,0.1405 -0.044,0.3292 0.203,0.3215 l 0.096,0.2002 c -0.007,0.0125 -0.022,0.027 -0.02,0.0356 0.009,0.0258 0.02,0.0509 0.033,0.0751 -0.627,0.3138 -0.346,0.7412 -0.096,1.1118 0.078,0.1165 -0.043,0.3966 0.228,0.3572 0.218,-0.0318 0.215,-0.2619 0.294,-0.4149 0.181,-0.0838 0.205,-0.2503 0.215,-0.4197 0.015,-0.232 0.128,-0.2667 0.316,-0.1675 0.017,0.1588 0.034,0.3176 0.051,0.4765 -0.157,0.3109 -0.044,0.5949 0.091,0.8769 -0.106,0.0963 -0.066,0.2041 -0.011,0.31 0.011,0.3234 0,0.6488 0.042,0.9684 0.011,0.0895 0.253,0.2377 0.259,0.1684 0.037,-0.3609 0.468,-0.3975 0.519,-0.6122 0.066,-0.2695 0.444,-0.6507 -0.065,-0.9039 l -0.068,-0.0356 c -0.036,-0.0761 -0.053,-0.1603 -0.048,-0.2446 0.006,-0.0842 0.032,-0.1658 0.078,-0.2367 0.11,-0.1704 0.148,-0.4573 0.375,-0.4669 0.289,-0.0135 0.118,0.2744 0.178,0.4178 0.05,0.1203 0.185,0.2166 0.254,0.1251 0.378,-0.4948 1.053,-0.6565 1.356,-1.2273 l 0.343,-0.1704 c 0.817,-0.0452 1.411,-0.6738 2.202,-0.8278 0.568,-0.1079 1.172,-0.0154 1.71,-0.2888 0.047,-0.0201 0.095,-0.0369 0.144,-0.0501 -0.026,0.0078 -0.053,0.0111 -0.08,0.0096 -0.278,-0.0577 -0.225,-0.5852 -0.658,-0.4601 -0.045,0.0125 -0.006,-0.2272 0.107,-0.2368 0.605,-0.0481 1.256,-0.1771 1.799,0.1117 0.798,0.4245 1.124,1.2032 1.48,2.0378 0.341,0.8048 0.65,1.6837 1.245,2.3806 0.038,0.0348 0.079,0.0652 0.123,0.0905 0.036,-0.0544 0.061,-0.1147 0.076,-0.1781 0.015,-0.6633 -0.237,-1.2514 -0.545,-1.8136 -0.014,-0.0857 -0.028,-0.1713 -0.042,-0.257 0.163,-0.0135 0.32,-0.0664 0.482,0.0655 0.089,0.075 -0.02,0.3022 0.192,0.2493 0.16,-0.0395 0.091,-0.1791 0.096,-0.2821 0.014,-0.1925 -0.101,-0.385 -0.257,-0.3792 -0.723,0 -0.494,-0.3437 -0.314,-0.7268 0.096,-0.2051 -0.116,-0.3774 -0.174,-0.5689 -0.004,-0.0154 -0.065,-0.0145 -0.096,-0.0212 0.043,0.1405 0.083,0.283 0.13,0.4216 0.062,0.182 0.064,0.181 -0.229,0.129 l -0.105,-0.1646 c -0.096,-0.1681 -0.192,-0.3366 -0.289,-0.5054 -0.051,-0.0895 -0.238,-0.1338 -0.153,-0.2589 0.085,-0.1252 0.193,0.0096 0.295,0.0433 0.059,0.0092 0.119,0.0092 0.178,0 -0.036,-0.0564 -0.08,-0.1079 -0.129,-0.1531 -0.289,-0.2069 -0.503,-0.41 -0.031,-0.6526 0.024,-0.0125 0.03,-0.0616 0.044,-0.0963 -0.064,0 -0.129,0 -0.192,0 -0.198,0.0077 -0.37,-0.0365 -0.417,-0.2579 -0.009,-0.0234 -0.012,-0.0485 -0.009,-0.0733 0.002,-0.0249 0.011,-0.0487 0.025,-0.0694 0.014,-0.0207 0.033,-0.0377 0.055,-0.0496 0.022,-0.0118 0.046,-0.0182 0.071,-0.0186 0.119,-0.0115 0.297,0.1877 0.344,-0.05 0.04,-0.2022 -0.135,-0.3283 -0.261,-0.4813 -0.233,-0.2888 -0.377,-0.6421 -0.558,-0.9694 0.481,-0.2272 0.123,-0.283 -0.066,-0.4235 -0.122,-0.0915 -0.169,-0.2792 -0.264,-0.413 -0.249,-0.3523 -0.01,-0.7893 -0.162,-1.1205 -0.439,-0.9626 -1.418,-1.6672 -1.301,-2.8821 0.004,-0.0452 -0.077,-0.1164 -0.133,-0.1463 -0.91,-0.4717 -0.963,-0.7325 -0.264,-1.4121 0.187,-0.181 0.401,-0.4813 0.658,-0.207 0.205,0.2195 0.174,0.5602 -0.081,0.7951 -0.349,0.3215 -0.241,0.4592 0.171,0.5699 0.443,0.1184 0.674,-0.0327 0.761,-0.4621 0.028,-0.1386 0.097,-0.2493 0.252,-0.2243 0.155,0.0251 0.199,0.1531 0.15,0.2888 -0.106,0.2888 0.078,0.4332 0.289,0.5179 0.283,0.1136 0.392,0.3591 0.577,0.5622 0.271,0.3042 -0.02,0.7595 0.363,0.9809 0.383,0.2214 0.488,0.6257 0.682,0.9568 0.315,0.543 0.055,1.3275 0.72,1.7597 0.115,0.0751 0.015,0.2888 -0.137,0.385 -0.087,0.0549 -0.269,0.0588 -0.208,0.1993 0.029,0.0664 0.218,0.0905 0.333,0.0866 0.374,-0.0134 0.369,-0.4216 0.299,-0.5284 z m -23.1294,4.6638 0.0174,-0.0221 0.0192,0.0144 z m 11.8004,7.9898 c -0.04,-0.0256 -0.07,-0.0655 -0.082,-0.1117 0.022,0.0318 0.05,0.0684 0.082,0.1107 z m -0.085,0.3754 c -0.137,0.1309 -0.114,0.2483 0.072,0.3716 -0.053,-0.0236 -0.099,-0.0611 -0.133,-0.1085 -0.034,-0.0474 -0.055,-0.103 -0.06,-0.1611 0.009,-0.0914 0.059,-0.1059 0.121,-0.103 z m -2.62,-0.5583 c -0.08,0.0125 -0.159,0.0221 -0.239,0.0298 0.029,-0.0332 0.07,-0.0546 0.114,-0.0603 0.044,-0.0057 0.088,0.0048 0.125,0.0295 z m -6.9661,-18.6748 0.2176,-0.2002 c -0.0204,0.0459 -0.0504,0.087 -0.0879,0.1206 -0.0375,0.0335 -0.0817,0.0587 -0.1297,0.0738 z m 6.1611,9.6628 c -0.02,-0.0097 -0.038,-0.0174 -0.056,-0.0251 0.024,-0.0019 0.049,-0.0019 0.073,0 l -0.017,0.0222 z m 8.278,-0.825 c 0.02,-0.0283 0.037,-0.0583 0.051,-0.0895 0.036,0.0143 0.074,0.0252 0.112,0.0327 -0.058,0.0115 -0.113,0.0308 -0.168,0.051 z"
       fill="#c4c3c6"
       id="path3755" />
    <path
       d="m 100.844,39.2562 -0.005,0.0065 c 0,-0.0031 0,-0.0062 0,-0.0093 z"
       fill="#c4c3c6"
       id="path3757" />
    <path
       d="m 100.118,54.2388 -0.006,0.0135 c 0.002,-0.0047 0.004,-0.0092 0.006,-0.0135 z"
       fill="#c4c3c6"
       id="path3759" />
    <path
       d="m 108.031,42.5625 c -0.176,0.2503 -0.482,0.2685 -0.714,0.4023 -0.209,0.1194 -0.611,0.2041 -0.53,0.4303 0.112,0.3119 0.414,0.077 0.633,-0.0221 0.054,-0.0213 0.11,-0.0324 0.168,-0.0327 0.343,0.0751 0.495,-0.1232 0.627,-0.2763 0.07,-0.0789 0.039,-0.2666 0.013,-0.3976 -0.009,-0.0481 -0.191,-0.1136 -0.197,-0.1039 z"
       fill="#c4c3c6"
       id="path3761" />
    <path
       d="m 96.6345,46.9576 c 0.3109,0.3909 0.7701,0.4506 1.2216,0.5401 0.0212,0 0.0481,-0.0174 0.1049,-0.0385 -0.0545,-0.0122 -0.1079,-0.0286 -0.1598,-0.0491 -0.3523,-0.1861 -0.7053,-0.3732 -1.0589,-0.5612 -0.0433,-0.0241 -0.0827,-0.0568 -0.1241,-0.0847 0.0028,0.0654 -0.0174,0.1521 0.0163,0.1934 z"
       fill="#c4c3c6"
       id="path3763" />
    <path
       d="m 107.788,45.9594 c -0.205,-0.0068 -0.362,0.0779 -0.408,0.281 -0.033,0.1521 0.071,0.3196 0.207,0.2956 0.193,-0.0337 0.289,-0.233 0.379,-0.4284 0.014,-0.1261 -0.073,-0.1454 -0.178,-0.1482 z"
       fill="#c4c3c6"
       id="path3765" />
    <path
       d="m 115.75,43.8904 c -0.054,-0.1242 -0.179,-0.0962 -0.289,-0.0837 0.001,0.063 0.013,0.1255 0.034,0.1848 0.176,0.2946 0.36,0.5843 0.588,0.9511 0.009,-0.0685 0.009,-0.1376 0,-0.206 -0.108,-0.2831 -0.21,-0.568 -0.333,-0.8462 z"
       fill="#c4c3c6"
       id="path3767" />
    <path
       d="m 115.083,45.1805 c -0.108,-0.0279 -0.126,0.1059 -0.096,0.1781 0.096,0.2253 0.049,0.5429 0.36,0.6363 0.065,0.0202 0.224,0.0241 0.154,-0.1482 -0.101,-0.2484 -0.083,-0.5805 -0.418,-0.6662 z"
       fill="#c4c3c6"
       id="path3769" />
    <path
       d="m 112.63,42.4419 c -0.003,0.032 -0.003,0.0642 0,0.0963 0.02,0.1296 0.073,0.2519 0.153,0.3554 0.081,0.1034 0.187,0.1845 0.308,0.2356 0,0 0.055,-0.0722 0.049,-0.0818 -0.163,-0.1974 -0.331,-0.3937 -0.51,-0.6055 z"
       fill="#c4c3c6"
       id="path3771" />
    <path
       d="m 102.474,46.6255 c -0.106,0.0154 -0.272,-0.0183 -0.25,0.0962 0.048,0.2542 0.313,0.1579 0.481,0.2205 0.109,0.0404 0.231,-0.0433 0.204,-0.1338 -0.067,-0.2176 -0.305,-0.1021 -0.435,-0.1829 z"
       fill="#c4c3c6"
       id="path3773" />
    <path
       d="m 101.434,43.3613 c -0.192,0.1531 -0.357,0.3321 -0.532,0.5015 l 0.096,0.051 c 0.256,-0.0962 0.468,-0.1925 0.545,-0.4379 0.024,-0.0799 -0.048,-0.1637 -0.109,-0.1146 z"
       fill="#c4c3c6"
       id="path3775" />
    <path
       d="m 103.431,60.827 c -0.01,-0.2522 -0.266,-0.1675 -0.441,-0.1464 l -0.533,0.0472 c -0.016,-0.0148 -0.037,-0.0252 -0.058,-0.0301 -0.022,-0.0049 -0.045,-0.0042 -0.067,0.002 -0.021,0.0063 -0.041,0.0179 -0.057,0.0337 -0.015,0.0159 -0.027,0.0355 -0.033,0.057 l -0.66,0.1213 c -0.796,-0.0828 -1.39,0.5063 -2.1173,0.6392 -0.0905,0.0163 -0.2311,0.0067 -0.2137,0.1376 0.0067,0.0491 0.1665,0.1232 0.2435,0.1097 0.9025,-0.1597 1.8035,-0.334 2.7045,-0.5053 l 0.128,0.0067 c 0.123,0.0568 0.192,0.0154 0.206,-0.1184 l 0.487,-0.1983 c 0.174,0.0414 0.421,0.1126 0.411,-0.1559 z"
       fill="#c4c3c6"
       id="path3777" />
    <path
       d="m 99.8535,43.4687 c 0.0337,0.0279 0.0712,0.0847 0.0963,0.0809 0.2062,-0.0292 0.3922,-0.1386 0.5182,-0.3042 -0.041,-0.026 -0.097,-0.0828 -0.115,-0.0722 -0.17,0.0876 -0.332,0.1915 -0.4995,0.2955 z"
       fill="#c4c3c6"
       id="path3779" />
    <path
       d="m 103.054,46.8543 c 0.052,0.0231 0.119,0.078 0.153,0.0626 0.061,-0.027 0.101,-0.0963 0.15,-0.1493 l -0.129,-0.0962 z"
       fill="#c4c3c6"
       id="path3781" />
    <path
       d="m 107.489,53.4629 c 0.339,-0.3456 0.052,-0.6739 -0.023,-1.0088 -0.009,-0.0608 -0.04,-0.1161 -0.087,-0.1555 -0.047,-0.0394 -0.107,-0.0601 -0.169,-0.0583 -0.023,0 -0.086,0.1502 -0.091,0.234 -0.024,0.3436 -0.034,0.6873 -0.048,1.0309 l -0.092,0.1252 c -0.113,0.0134 -0.146,0.0885 -0.145,0.1925 -0.193,0.1299 -0.385,0.2638 -0.578,0.385 -0.532,0.335 -1.181,0.5295 -1.427,1.2014 -0.322,0.3706 -0.63,0.7508 -0.295,1.2649 0.176,0.2705 0.467,0.2599 0.749,0.2387 l 0.027,0.0269 0.081,0.1781 c 0.047,-0.0962 0.146,-0.1925 0.136,-0.2888 -0.128,-1.0001 0.304,-1.7471 1.04,-2.3641 l 0.158,-0.0405 c 0.373,0 0.476,-0.2685 0.597,-0.5227 0.024,-0.0388 0.045,-0.0793 0.062,-0.1213 l 0.005,-0.0067 c 0.124,0.0125 0.174,-0.0231 0.091,-0.1425 z"
       fill="#c4c3c6"
       id="path3783" />
    <path
       d="m 102.461,42.6582 c -0.271,0.0366 -0.404,0.2811 -0.455,0.54 0.037,0.2185 0.089,0.5295 0.289,0.489 0.371,-0.075 0.323,-0.5958 0.636,-0.7855 -0.158,-0.0876 -0.327,-0.2627 -0.47,-0.2435 z"
       fill="#c4c3c6"
       id="path3785" />
    <path
       d="m 112.47,38.0635 c -0.736,-0.7701 -1.715,-1.0262 -2.755,-1.0464 -0.584,-0.0106 -1.108,0.025 -1.671,-0.1694 -0.437,-0.1502 -0.781,-0.3745 -1.265,-0.3244 -1.144,0.1184 -3.306,2.2496 -4.313,0.8548 0.356,-0.1271 3.432,0.1049 3.197,-0.7403 -0.114,-0.41 -1.597,-0.2329 -1.906,-0.1925 0.24,-0.3321 0.614,-0.5776 0.842,-0.9328 0.205,-0.3205 0.242,-0.7595 0.494,-1.0473 0.333,-0.385 0.726,-0.2512 1.139,-0.4303 0.448,-0.1925 0.473,-0.5573 0.776,-0.8866 0.662,-0.7219 1.628,-0.1723 2.386,-0.6218 0.254,-0.1511 0.571,-0.4332 0.281,-0.7489 -0.212,-0.2301 -0.578,-0.0251 -0.838,-0.0761 -0.435,-0.0856 -0.464,-0.3205 -0.793,-0.5583 -0.503,-0.3658 -0.782,-0.154 -1.271,0.1146 -0.149,-0.6257 0.398,-1.2332 0.2,-1.8714 -0.168,-0.539 -0.803,-0.9279 -1.234,-1.2456 -0.431,-0.3177 -0.687,-0.4255 -0.746,-0.9732 -0.113,-1.0531 0.577,-2.2939 -0.929,-2.5856 -1.019,-0.1983 -2.103,0.361 -3.036,0.6912 -1.395,0.4919 -2.8264,1.029 -4.0297,1.9117 -1.0425,0.7701 -2.0821,1.829 -2.9697,2.7676 -0.4245,0.4505 -0.6218,0.9751 -0.4245,1.5863 0.079,0.2455 0.3418,0.4563 0.309,0.7345 -0.0288,0.2532 -0.2656,0.2888 -0.3321,0.5073 -0.3032,0.9771 0.6893,2.678 1.4353,3.2277 -0.2358,0.2223 -0.2715,0.541 -0.2378,0.8509 -0.5929,0.1107 -0.797,1.1176 -1.028,1.5835 -0.2696,0.541 -1.1417,1.1552 -1.186,1.7404 -0.0443,0.5853 0.2888,0.4005 0.6998,0.3283 0.5641,-0.0963 1.0589,-0.0558 1.6365,-0.0202 1.2334,0.0612 2.463,0.1849 3.6839,0.3706 0.9058,0.1463 1.6793,-0.1203 1.1696,-1.1551 0.2967,-0.2243 0.9257,-0.208 0.9537,-0.6797 0.594,-0.0202 1.401,0.5247 1.846,-0.0962 0.166,-0.233 0,-0.5776 0.335,-0.696 0.23,-0.078 0.611,0.2445 0.809,0.336 -0.833,0.3513 -0.937,3.7975 0.033,3.9149 0.364,0.0433 1.031,-0.797 1.399,-0.9559 0.619,-0.2676 1.194,-0.4967 1.784,-0.8307 0.309,-0.1752 2.183,-0.9867 1.252,-1.3659 -0.599,-0.2436 -1.926,0.5506 -2.457,0.8143 1.011,-1.4064 3.165,-1.9589 4.807,-1.674 0.867,0.1502 1.829,0.5593 2.341,1.3111 0.301,0.4428 0.345,1.9898 1.033,2.0331 0.491,0.0317 0.339,-0.62 -0.012,-1.39 -0.462,-1.0021 -1.259,-2.2093 -1.408,-2.3642 z"
       fill="#ffffff"
       id="path3787" />
    <path
       d="m 94.8431,41.9691 c -0.3273,0.0231 -0.6335,0.3764 -0.645,0.6064 -0.0135,0.2696 0.3735,0.0722 0.5612,0.0568 0.2647,-0.0212 0.3725,-0.0626 0.2243,0.257 -0.0061,0.0347 -0.0051,0.0703 0.0032,0.1045 0.0082,0.0343 0.0234,0.0664 0.0446,0.0945 0.0213,0.0281 0.0481,0.0515 0.0788,0.0688 0.0306,0.0173 0.0646,0.028 0.0996,0.0316 L 95.256,43.156 c 0.2994,0.1078 0.7566,-0.5429 0.9309,0.1925 0.0048,0.0221 0.0702,0.0308 0.1078,0.0452 0.0183,-0.0731 0.0385,-0.1472 0.0548,-0.2214 0.0241,-0.1164 -0.0279,-0.2676 0.13,-0.3234 0.0443,-0.0164 0.104,0.0125 0.1569,0.0212 -0.1068,0.385 0.258,0.1925 0.3851,0.3013 0.3301,0.2888 1.3775,0.0212 1.6085,-0.3851 -0.0087,0.0076 -0.0194,0.0125 -0.0309,0.0143 -0.0114,0.0017 -0.0231,10e-5 -0.0336,-0.0046 -0.053,-0.0231 -0.1203,-0.0511 -0.1271,-0.1021 -0.0818,-0.6151 -0.5448,-0.7171 -1.0377,-0.7653 -0.4168,-0.0414 -0.8317,-0.0895 -1.2466,-0.1511 -0.33,-0.0623 -0.6693,-0.0571 -0.9972,0.0154 l -0.1454,-0.0472 c -0.0221,0.0953 0.0741,0.206 -0.1684,0.2234 z"
       fill="#ffffff"
       id="path3789" />
    <path
       d="m 105.94,50.1107 c -0.31,-0.1974 -0.655,-0.0511 -0.98,-0.0963 -0.222,-0.0645 -0.408,0.025 -0.595,0.1319 -0.545,0.309 -0.823,0.8211 -1.059,1.3669 -0.032,0.0755 -0.038,0.1594 -0.017,0.2387 0.057,0.1146 0.116,0.2291 0.017,0.3514 -0.028,0.0668 -0.039,0.1395 -0.032,0.2118 0.011,0.0852 0.011,0.1717 0,0.257 -0.013,0.0691 -0.001,0.1407 0.035,0.2012 0.048,0.4226 0.228,0.437 0.502,0.1607 0.422,-0.8375 0.851,-1.6749 1.459,-2.395 0.166,-0.1973 0.445,-0.2916 0.67,-0.4283 z"
       fill="#ffffff"
       id="path3791" />
    <path
       d="m 103.186,48.7325 c 0.04,0.0963 0.217,0.1136 0.157,0.2686 -0.009,0.0269 -0.009,0.0559 0,0.0828 0.076,0.1665 0.063,0.2714 -0.052,0.3696 -0.007,0.3398 0.342,0.6883 -0.037,1.0252 -0.015,0.0234 -0.026,0.0499 -0.03,0.0777 -0.005,0.0279 -0.003,0.0563 0.005,0.0834 0.008,0.0271 0.021,0.0522 0.04,0.0734 0.018,0.0212 0.041,0.0381 0.067,0.0495 0.122,0.0443 0.201,-0.0366 0.289,-0.1136 0.347,-0.2946 0.684,-0.5882 0.803,-1.0589 0.019,-0.078 0.188,-0.1184 0.289,-0.1752 -0.13,-0.0414 -0.268,-0.1319 -0.385,-0.1136 -0.249,0.0385 -0.325,-0.2271 -0.322,-0.2811 0.01,-0.18 0.198,-0.0596 0.301,-0.0962 0.122,-0.0571 0.239,-0.1244 0.35,-0.2012 -0.043,-0.026 -0.083,-0.0693 -0.128,-0.076 -0.628,-0.0963 -0.406,-0.3851 -0.159,-0.6739 -0.223,-0.0346 -0.444,0.1502 -0.668,0.0068 -0.015,-0.0098 -0.032,-0.0143 -0.05,-0.0127 -0.017,0.0016 -0.034,0.0091 -0.046,0.0213 -0.032,0.1868 -0.219,0.1107 -0.316,0.1858 l 0.013,0.0366 -0.026,0.0298 c 0.008,0.0358 0.022,0.0696 0.044,0.099 0.022,0.0294 0.049,0.0538 0.081,0.0714 0.06,0.0443 0.147,0.0809 0.05,0.1694 -0.097,0.0424 -0.202,0.0674 -0.27,0.1521 z"
       fill="#ffffff"
       id="path3793" />
    <path
       d="m 107.21,52.6206 c -0.123,0.0087 -0.141,0.1222 -0.137,0.2224 0.013,0.2243 -0.017,0.4489 -0.087,0.6622 -0.03,0.0424 -0.061,0.0838 -0.091,0.1252 -0.055,0.0593 -0.104,0.1238 -0.146,0.1925 -0.193,0.13 -0.385,0.2638 -0.578,0.3851 -0.531,0.3349 -1.18,0.5294 -1.427,1.2013 0.085,0 0.08,0.0597 0.107,0.1271 0.065,0.1607 0.158,0.3937 0.283,0.4235 0.144,0.0356 0.096,-0.2146 0.131,-0.334 0.172,-0.5631 0.559,-0.9328 1.029,-1.2514 0.169,-0.1136 0.184,-0.0558 0.193,0.0962 l 0.158,-0.0404 c 0.255,-0.179 0.534,-0.333 0.659,-0.644 l 0.005,-0.0067 c 0.085,-0.0125 0.096,-0.0732 0.091,-0.1425 l 0.01,-0.1733 c 0.204,-0.2156 0.082,-0.4505 0.029,-0.6738 -0.012,-0.0508 -0.042,-0.0957 -0.084,-0.1267 -0.041,-0.031 -0.093,-0.0461 -0.145,-0.0427 z"
       fill="#ffffff"
       id="path3795" />
    <path
       d="m 90.5873,38.3837 c 0.3176,0.1434 0.4947,0.4399 0.6651,0.7335 0.1011,0.1752 0.1926,0.4091 0.464,0.3138 0.2387,-0.0828 0.3263,-0.2772 0.3302,-0.5285 0.0115,-0.7614 -0.541,-0.8991 -1.1099,-1.0252 l -0.4813,-0.0077 c -0.1569,0.2234 -0.155,0.3841 0.1319,0.5141 z"
       fill="#ffffff"
       id="path3797" />
    <path
       d="m 98.9457,41.4331 c -0.0942,-0.116 -0.2236,-0.1982 -0.3687,-0.2339 -0.7402,-0.2551 -1.4892,-0.0799 -2.2342,-0.0809 0.153,0.5988 0.7277,0.3215 1.0704,0.4313 0.5112,0.1627 1.1648,0.6141 1.6798,-0.0828 -0.008,-0.0168 -0.0174,-0.0329 -0.0279,-0.0481 -0.0172,0.0121 -0.037,0.0198 -0.0579,0.0223 -0.0208,0.0025 -0.042,-2e-4 -0.0615,-0.0079 z"
       fill="#ffffff"
       id="path3799" />
    <path
       d="m 106.196,42.2859 c 0.02,-0.0136 0.036,-0.0316 0.048,-0.0525 0.012,-0.0209 0.019,-0.0442 0.021,-0.0682 0.002,-0.0241 -0.002,-0.0482 -0.011,-0.0706 -0.008,-0.0224 -0.022,-0.0426 -0.04,-0.059 -0.195,0.0675 -0.385,0.1492 -0.569,0.2445 -0.488,0.2965 -1.251,0.4457 -0.775,1.3131 0.441,-0.4361 0.881,-0.8741 1.326,-1.3073 z"
       fill="#ffffff"
       id="path3801" />
    <path
       d="m 118.48,55.8721 c -0.139,0.1165 -0.428,-0.1434 -0.459,0.1242 -0.028,0.2387 0.263,0.2503 0.436,0.3119 0.521,0.1858 1.046,0.1136 1.573,0.0106 0.218,-0.0433 0.24,-0.1463 0.13,-0.3148 -0.561,-0.0212 -1.131,0.0529 -1.68,-0.1319 z"
       fill="#ffffff"
       id="path3803" />
    <path
       d="m 99.9007,47.974 c -0.0669,-0.019 -0.1366,-0.0262 -0.206,-0.0212 -0.9828,0.2677 -1.8617,0.9684 -2.9725,0.7028 -0.026,-0.0068 -0.0722,0.0712 -0.1079,0.1097 0.0568,0.0279 0.1146,0.0539 0.1704,0.0847 0.438,0.2426 0.877,-0.0192 1.315,0.0048 0.2685,0.1011 0.4572,-0.0895 0.6738,-0.1829 0.2204,-0.2041 0.5179,-0.2695 0.7768,-0.4033 -0.385,0.2416 -0.7595,0.6045 -1.0107,0.7653 -0.8259,0.5256 -1.545,0.4938 -2.2679,-0.1531 -0.1181,-0.1134 -0.2425,-0.2201 -0.3726,-0.3196 -0.155,-0.1088 -0.385,-0.1396 -0.5256,-0.2435 -0.205,-0.1531 -0.1809,-0.5574 -0.3417,-0.8154 -0.0741,-0.1184 -0.3754,-0.4649 -0.4909,-0.2445 -0.0645,0.1213 0.1983,0.465 0.2637,0.5545 0.0957,0.1058 0.1857,0.2167 0.2696,0.3321 0.1087,0.1848 0.0635,0.3995 0.154,0.5776 0.179,0.3523 0.7181,0.2493 0.8663,0.6055 -0.3321,0.2839 -0.6959,-0.4034 -0.9626,-0.5198 -0.4139,-0.182 -0.7508,0.0673 -0.4813,0.4813 0.514,0.7701 1.7192,0.8827 2.5567,0.8355 0.3206,-0.0183 0.6681,-0.0481 0.9626,-0.1829 0.2417,-0.1107 0.4813,-0.4399 0.7701,-0.3908 -0.0202,0.3947 -0.4091,0.8096 -0.6796,1.0752 -0.2223,0.2176 -0.6517,0.4948 -0.5246,0.8616 0.0963,0.2743 0.4361,0.3099 0.3764,0.6276 -0.0068,0.0366 -0.1223,0.0963 -0.1444,0.154 -0.0254,0.1051 -0.0393,0.2125 -0.0414,0.3206 -0.0453,0.2811 -0.1367,0.5641 -0.13,0.85 0.2657,0.0385 0.1117,-0.2725 0.2253,-0.3966 0.1723,-0.1926 0.5092,0 0.6382,0.1588 0.181,0.2214 0.1848,0.5477 0.3514,0.7845 0.0962,0.1281 0.4206,0.3678 0.1318,0.4813 0.1772,0.0126 0.6527,0.207 0.8029,0.3062 0.192,0.1261 0.204,0.4148 0.439,0.4813 -0.123,0.0471 -0.256,0.0683 -0.38,0.1145 0.451,0.8279 1.415,0.4005 1.042,-0.464 -0.105,-0.2425 -0.729,-1.3265 -1.011,-0.6931 0.043,-0.3648 -0.4308,-0.3783 -0.6127,-0.59 -0.2609,-0.3052 -0.1435,-0.8962 0.0452,-1.211 0.1213,-0.2041 0.3003,-0.3494 0.4149,-0.5603 0.1145,-0.2108 0.1516,-0.3455 0.3756,-0.4485 0.33,-0.1502 0.795,-0.1011 1.132,0 0.439,0.1347 0.704,0.1877 0.49,-0.3774 -0.075,-0.2002 -0.146,-0.3369 -0.108,-0.5525 0.039,-0.2156 0.209,-0.3321 0.006,-0.5256 -0.032,-0.0295 -0.068,-0.0536 -0.108,-0.0712 l 0.148,-0.0539 c -0.018,-0.2888 0.545,-0.0703 0.413,-0.466 -0.262,0.0126 -0.401,-0.1588 -0.527,-0.3513 0.137,-0.0674 0.277,-0.1319 0.412,-0.205 0.064,-0.0414 0.126,-0.0874 0.184,-0.1377 -0.07,-0.0375 -0.144,-0.0654 -0.221,-0.0828 -0.4,-0.0356 -0.688,0.2359 -1.017,0.3918 -0.075,0.0347 -0.124,0.1213 -0.184,0.1839 0.073,0.0327 0.145,0.0683 0.22,0.0962 0.103,0.0385 0.209,0.0713 0.314,0.1069 -0.095,0.0276 -0.186,0.0671 -0.271,0.1174 -0.06,0.0505 -0.099,0.122 -0.109,0.2002 0,0.0366 0.087,0.105 0.145,0.1184 0.035,0.0087 0.07,0.0164 0.106,0.0231 -0.189,0.0082 -0.378,0.0343 -0.562,0.078 -0.223,0.0501 -0.7346,0.3514 -0.956,0.2253 -0.1762,-0.0963 -0.2619,-0.7259 -0.1714,-0.876 0.077,-0.1271 0.5154,-0.3177 0.8134,-0.5295 0.275,-0.1925 0.43,-0.4081 0.072,-0.6064 -0.244,-0.1348 -0.5273,-0.0645 -0.8084,0.0886 0.0449,-0.0286 0.0874,-0.0608 0.1271,-0.0963 z"
       fill="#ffffff"
       id="path3805" />
    <path
       d="m 102.231,42.1511 c 0.078,0.1165 -0.044,0.3966 0.227,0.3572 0.219,-0.0318 0.215,-0.2619 0.294,-0.4149 -0.16,-0.2763 -0.171,-0.5208 0.114,-0.7384 0.107,-0.0818 0.177,-0.2175 0.048,-0.3552 -0.055,-0.0362 -0.118,-0.0581 -0.184,-0.0635 -0.07,-0.0119 -0.142,-0.0088 -0.211,0.0089 -0.068,0.0178 -0.132,0.0498 -0.188,0.0941 -0.628,0.3119 -0.347,0.7412 -0.1,1.1118 z"
       fill="#ffffff"
       id="path3807" />
    <path
       d="m 102.21,43.6872 c 0.371,-0.075 0.323,-0.5958 0.635,-0.7855 -0.156,-0.0876 -0.325,-0.2627 -0.468,-0.2435 -0.272,0.0366 -0.404,0.2811 -0.456,0.54 0.038,0.2185 0.091,0.5295 0.289,0.489 z"
       fill="#ffffff"
       id="path3809" />
    <path
       d="m 100.73,48.4804 c 0.138,0.2194 0.274,0.154 0.429,0.0115 0.096,-0.0857 0.174,-0.2358 0.35,-0.1319 0.45,0.2657 0.639,-0.0519 0.825,-0.3735 l -0.336,-0.0866 -0.874,0.2493 c -0.152,0.0857 -0.364,0.104 -0.394,0.3312 z"
       fill="#ffffff"
       id="path3811" />
    <path
       d="m 102.906,60.6807 -0.533,0.0471 c -0.077,-0.001 -0.152,0.0208 -0.216,0.0626 l -0.658,0.1213 c 0.029,0.4062 0.499,0.1068 0.612,0.385 l 0.127,0.0068 c 0.079,-0.0212 0.126,-0.0963 0.206,-0.1184 l 0.488,-0.1983 c 0.077,-0.1117 0.11,-0.2166 -0.026,-0.3061 z"
       fill="#ffffff"
       id="path3813" />
    <path
       d="m 104.089,43.1375 c 0.072,-0.0683 0.056,-0.2291 0.08,-0.3475 l -0.067,-0.0356 c -0.227,0.0298 -0.47,-0.0501 -0.674,0.1049 -0.106,0.0963 -0.066,0.2041 -0.01,0.31 0.251,0.7855 0.472,0.1598 0.671,-0.0318 z"
       fill="#ffffff"
       id="path3815" />
    <path
       d="m 102.318,40.9285 c 0.218,0.052 0.317,-0.0962 0.366,-0.257 0.088,-0.2888 0.155,-0.5775 0.079,-0.8846 -0.564,-0.1752 -0.668,0.0962 -0.573,0.5776 0.017,0.1199 0.027,0.2408 0.031,0.3619 z"
       fill="#ffffff"
       id="path3817" />
    <path
       d="m 90.6393,44.4161 c 0.1646,-0.1559 0.2888,-0.4813 -0.0154,-0.667 -0.233,-0.1415 -0.2513,-0.3697 -0.3466,-0.5709 v 0.9906 c 0.1637,0.0327 0.2003,0.3994 0.362,0.2473 z"
       fill="#ffffff"
       id="path3819" />
    <path
       d="m 121.3,56.6123 0.459,0.0558 c 0.031,-0.1203 0.061,-0.2406 0.096,-0.361 -0.149,0.0116 -0.298,0.0222 -0.447,0.0356 -0.224,0.0193 -0.105,0.1675 -0.108,0.2696 z"
       fill="#ffffff"
       id="path3821" />
    <path
       d="m 90.5152,46.0402 c -0.1541,-0.0962 0.1386,-0.4534 -0.2426,-0.4187 -0.0722,0.385 0.0722,0.799 -0.1271,1.1734 0.4582,-0.0876 0.1637,-0.5429 0.3697,-0.7547 z"
       fill="#ffffff"
       id="path3823" />
    <path
       d="m 91.038,43.5265 c 0.1848,-0.0529 0.3359,-0.1348 0.3205,-0.3639 v -0.3013 l -0.3244,0.0202 c -0.1386,0.2166 -0.2108,0.4313 0.0039,0.645 z"
       fill="#ffffff"
       id="path3825" />
    <path
       d="m 98.1497,46.1788 c 0.1579,-0.1348 0.0616,-0.2715 -0.0308,-0.3985 l -0.2426,0.0154 c -0.052,0.1463 -0.1203,0.3032 0.0539,0.4062 0.0358,0.0139 0.0744,0.0191 0.1126,0.0151 0.0382,-0.004 0.0748,-0.0171 0.1069,-0.0382 z"
       fill="#ffffff"
       id="path3827" />
    <path
       d="m 101.581,47.4581 c -0.009,0.3215 0.335,0.1425 0.435,0.308 l 0.267,-0.1145 c -0.037,-0.0616 -0.073,-0.1232 -0.111,-0.1849 l -0.16,-0.0125 c -0.015,-0.0136 -0.035,-0.0211 -0.055,-0.0211 -0.021,0 -0.04,0.0075 -0.055,0.0211 z"
       fill="#ffffff"
       id="path3829" />
    <path
       d="m 94.1182,48.0807 c 0.0765,0.0667 0.1568,0.1287 0.2407,0.1858 l -0.0597,-0.3533 c -0.0241,-0.0635 -0.0472,-0.1261 -0.0712,-0.1925 -0.1204,0.0963 -0.2956,0.1762 -0.1098,0.36 z"
       fill="#ffffff"
       id="path3831" />
    <path
       d="M 100.697,78.4976 C 99.5669,76.968 98.3155,75.6204 97.042,74.1764 96.8129,73.903 96.5886,73.621 96.3681,73.3341 96.2038,73.0655 96.0894,72.7694 96.0302,72.4601 95.934,71.9345 95.9388,71.329 95.573,70.9006 c -0.3456,-0.4071 -0.8972,-0.4649 -1.3169,-0.7575 -0.9895,-0.6912 -0.8307,-2.5028 -0.8769,-3.5675 -0.0318,-0.7479 0.0077,-1.5007 -0.0963,-2.2448 -0.1039,-0.7441 -0.4736,-1.083 -0.7768,-1.7096 -0.2599,-0.5362 -0.1925,-1.1648 -0.463,-1.7164 -0.2888,-0.5949 -0.7306,-1.1051 -1.0993,-1.6509 -0.7547,-1.1166 -0.9328,-2.0147 -0.7201,-3.3152 0.0828,-0.5092 0.1675,-1.8531 -0.7325,-1.6432 -0.5477,0.128 -0.8125,0.9145 -1.1484,1.2938 -0.7249,0.8191 -1.8925,0.5775 -2.8551,0.5255 -2.3941,-0.1395 -4.7409,0.6556 -6.6132,2.1419 -0.4573,0.3629 -1.0079,0.7826 -1.1552,1.3813 -0.1049,0.4409 0.131,1.0782 -0.2945,1.3939 0.1473,-0.8461 -1.0031,-0.2041 -1.2919,-0.0231 -0.617,0.385 -1.1137,0.8538 -1.2773,1.6008 -0.0799,0.3639 -0.0231,0.8827 0.4639,0.7586 0.3629,-0.0963 0.6238,-0.6026 0.8664,-0.8529 0.443,-0.4373 0.9484,-0.8065 1.4998,-1.0955 0.6054,-0.3234 0.9683,-0.282 1.6017,-0.1232 0.903,0.2253 2.5481,-0.874 2.7647,0.7701 0.0799,0.6084 -0.5006,0.9482 -0.2744,1.5498 0.2118,0.5574 0.6931,0.9877 1.0782,1.4151 0.436,0.4813 0.8519,1.0521 1.0973,1.6605 0.0886,0.2195 0.2648,0.7133 0.2118,0.9501 -0.0654,0.2936 -0.463,0.4534 -0.5679,0.7277 -0.4072,1.0589 1.4439,2.0109 1.829,2.8417 0.1427,0.3209 0.2652,0.6504 0.3667,0.9867 0.0866,0.3147 0.1858,0.6247 0.2946,0.9298 0.1087,0.3052 0.231,0.6055 0.3648,0.9068 1.5556,2.8542 3.6146,5.7757 6.2657,7.7424 0.3311,0.2451 0.6716,0.4755 1.0213,0.6911 0.3196,0.1925 0.6517,0.3697 0.9934,0.5333 0.7565,0.4039 1.5719,0.6862 2.4162,0.8365 1.7443,0.2532 3.8622,-0.0356 4.8242,-1.672 0.578,-0.8664 -0.192,-1.7328 -0.502,-2.5221 -0.235,-0.3971 -0.494,-0.7799 -0.774,-1.1465 z"
       fill="#ffffff"
       id="path3833" />
    <path
       d="m 93.381,35.7124 c 0.2416,0.0183 0.2531,-0.1675 0.2531,-0.3475 -0.0077,-0.1358 0.0183,-0.3263 -0.1925,-0.2888 -0.1713,0.0327 -0.4476,0.0106 -0.4322,0.2888 0.0091,0.0932 0.0518,0.1799 0.1202,0.2438 0.0684,0.064 0.1578,0.1008 0.2514,0.1037 z"
       fill="#ffffff"
       id="path3835" />
    <path
       d="m 112.389,30.2155 c 0.143,0.0125 0.243,-0.0433 0.235,-0.2291 -0.069,-0.1829 -0.153,-0.3851 -0.398,-0.4005 -0.185,-0.0106 -0.156,0.1579 -0.16,0.2753 -0.007,0.2185 0.113,0.335 0.323,0.3543 z"
       fill="#ffffff"
       id="path3837" />
    <path
       d="m 107.383,30.2099 c 0.142,-0.0096 0.188,-0.1049 0.193,-0.2233 0.01,-0.1463 -0.018,-0.2888 -0.193,-0.3148 -0.155,-0.0221 -0.222,0.0867 -0.229,0.2272 -0.002,0.0699 0.019,0.1385 0.061,0.1949 0.041,0.0563 0.101,0.0972 0.168,0.116 z"
       fill="#ffffff"
       id="path3839" />
    <path
       d="m 107.409,26.4814 c 0.067,-0.0056 0.13,-0.0322 0.181,-0.0759 0.05,-0.0438 0.086,-0.1025 0.101,-0.1677 -0.064,-0.0346 -0.132,-0.0962 -0.2,-0.1011 -0.032,-0.0031 -0.064,0.0012 -0.094,0.0127 -0.03,0.0115 -0.057,0.0298 -0.078,0.0535 -0.022,0.0236 -0.037,0.052 -0.046,0.0828 -0.008,0.0308 -0.01,0.0632 -0.004,0.0946 0.013,0.0277 0.032,0.0517 0.057,0.0695 0.024,0.0177 0.053,0.0286 0.083,0.0316 z"
       fill="#ffffff"
       id="path3841" />
    <path
       d="m 95.2879,43.3064 c 0.0174,-0.0144 0.0511,-0.0394 0.0501,-0.0414 -0.025,-0.0375 -0.0539,-0.0731 -0.0818,-0.1088 -0.0142,0.0121 -0.0294,0.0231 -0.0453,0.0328 0.026,0.0385 0.0511,0.078 0.077,0.1174 z"
       fill="#ffffff"
       id="path3843" />
    <path
       d="m 103.167,57.5451 c 0.007,-0.1206 -0.002,-0.2415 -0.024,-0.36 -0.147,0.0866 -0.114,0.2397 -0.133,0.3715 -0.022,0.1483 -0.137,0.2301 -0.209,0.3312 -0.201,0.2888 -0.526,-0.0116 -0.68,0.2233 -0.046,0.1006 -0.079,0.2072 -0.096,0.3167 -0.148,-0.13 -0.117,-0.2994 -0.096,-0.4659 l -0.256,0.1473 c -0.064,0.076 -0.193,0.0751 -0.223,0.1925 l -0.007,0.0087 c -0.078,0.0154 -0.127,0.0962 -0.213,0.0962 -0.024,0.0106 -0.046,0.0252 -0.064,0.0433 -0.142,0.2888 -0.435,0.3639 -0.705,0.4467 -0.329,0.0963 -0.6046,0.3186 -0.6267,0.6209 -0.0193,0.2686 0.3277,0.2618 0.5387,0.2406 0.674,-0.0654 1.348,-0.1309 2.016,-0.2579 0.229,-0.0443 0.474,-0.0655 0.688,-0.3312 0.439,-0.5602 -0.006,-1.0935 0.09,-1.6239 z"
       fill="#ffffff"
       id="path3845" />
    <path
       d="m 103.167,53.6955 c -0.005,-0.0549 -0.056,-0.1049 -0.086,-0.1569 -0.023,0.059 -0.038,0.1208 -0.044,0.1838 0.028,0.6959 -0.044,1.3923 -0.214,2.0677 -0.096,0.3745 0.159,0.7326 0.248,1.0993 0.005,0.0183 0.069,0.0222 0.105,0.0337 0.05,-0.3109 0.097,-0.6209 0.151,-0.9318 0.003,-0.0419 0.003,-0.0841 0,-0.1261 h 0.021 c -0.059,-0.7258 -0.117,-1.4478 -0.181,-2.1697 z"
       fill="#ffffff"
       id="path3847" />
    <path
       d="m 97.9331,55.0444 0.0068,-0.0077 c 0.0491,-0.0635 0.0356,-0.1088 -0.0405,-0.1348 -0.1829,-0.0462 0,-0.3272 -0.2089,-0.3311 -0.0394,0 -0.1338,0.1723 -0.1145,0.2397 0.0963,0.3485 -0.0587,0.6498 -0.1521,0.9626 -0.1511,0.4977 -0.1126,0.8125 0.5237,0.6517 0.0192,-0.2243 0.0375,-0.4476 0.0568,-0.6738 -0.078,-0.2311 -0.1685,-0.4602 -0.0713,-0.7066 z"
       fill="#ffffff"
       id="path3849" />
    <path
       d="M 97.9616,56.4471 97.9558,56.4194 H 97.9473 Z"
       fill="#ffffff"
       id="path3851" />
    <path
       d="m 98.0197,56.5382 -0.0578,-0.0914 0.0202,0.1088 z"
       fill="#ffffff"
       id="path3853" />
    <path
       d="m 101.476,47.7283 c 0.008,-0.0202 -0.025,-0.0597 -0.051,-0.1155 -0.037,0.0481 -0.066,0.0712 -0.075,0.1011 -0.008,0.0298 0.028,0.0635 0.036,0.0616 0.033,-0.0077 0.079,-0.0222 0.09,-0.0472 z"
       fill="#ffffff"
       id="path3855" />
    <path
       d="m 95.54,47.6629 0.0229,0.0028 -0.0105,-0.0314 z"
       fill="#ffffff"
       id="path3857" />
    <path
       d="m 95.6958,47.8247 0.0443,0.0818 c 0.0789,0.3658 0.3638,0.568 0.6266,0.7884 0.1021,-0.0106 0.2551,0.0279 0.0684,-0.1463 -0.2147,-0.2012 -0.3956,-0.439 -0.592,-0.6613 h -0.0886 z"
       fill="#ffffff"
       id="path3859" />
    <path
       d="m 103.197,40.7215 0.385,-0.0346 0.089,-0.7027 c 0,-0.0789 0.072,-0.1444 0.04,-0.2282 l 0.063,-0.2541 c 0.078,-0.0337 0.071,-0.0751 0.011,-0.1213 l -0.303,-0.3196 c -0.193,0.0443 -0.456,0.0106 -0.396,0.3456 0.344,0.4303 0.164,0.849 -0.026,1.2687 z"
       fill="#000000"
       id="path3861" />
    <path
       d="m 97.063,50.2334 c -0.6863,0.153 -1.5854,-0.3321 -1.7269,-0.8895 -0.078,-0.0712 -0.0308,-0.179 -0.0761,-0.2608 -0.1049,-0.2359 -0.5535,-0.2888 -0.3677,-0.6806 -0.1925,0.283 -0.5208,-0.5189 -0.6786,0.0808 -0.0506,-0.0243 -0.105,-0.04 -0.1608,-0.0462 -0.5236,0.0414 -0.5622,-0.5053 -0.876,-0.7152 -0.0664,-0.0443 -0.1386,-0.0789 -0.2079,-0.1184 -0.0173,0.0472 -0.0645,0.1098 -0.0481,0.1406 0.1752,0.3561 0.2888,0.7912 0.5583,1.0425 0.6738,0.6151 1.3477,1.2408 2.1293,1.7404 0.4592,0.3121 1.0186,0.4412 1.5681,0.3619 0.1657,-0.0143 0.3242,-0.0739 0.4583,-0.1722 0.1341,-0.0983 0.2386,-0.2315 0.3022,-0.3851 -0.2736,-0.1246 -0.5797,-0.159 -0.8741,-0.0982 z"
       fill="#000000"
       id="path3863" />
    <path
       d="m 110.239,34.4995 c -0.173,-0.026 -0.289,0.1289 -0.334,0.2676 -0.096,0.2618 -0.248,0.3561 -0.526,0.3783 -0.074,0.0034 -0.147,0.023 -0.214,0.0574 -0.066,0.0344 -0.124,0.0828 -0.17,0.1419 -0.045,0.059 -0.078,0.1273 -0.095,0.2001 -0.016,0.0728 -0.017,0.1483 -0.002,0.2215 0.054,0.2887 0.329,0.101 0.519,0.0645 0.104,-0.016 0.21,-0.0234 0.316,-0.0222 0.738,0.0183 0.932,-0.2772 0.755,-0.9626 -0.039,-0.1588 -0.08,-0.3206 -0.249,-0.3465 z"
       fill="#000000"
       id="path3865" />
    <path
       d="m 111.952,35.5205 c -0.158,-0.6989 -0.525,-0.0135 -0.806,-0.0212 -0.245,-0.0472 -0.497,0.1194 -0.467,0.2888 0.055,0.3023 0.46,0.4139 0.674,0.4168 0.346,10e-4 0.653,-0.4466 0.599,-0.6844 z"
       fill="#000000"
       id="path3867" />
    <path
       d="m 109.511,34.5957 c 0.008,-0.0315 0.006,-0.0646 -0.004,-0.0951 -0.011,-0.0306 -0.031,-0.0574 -0.056,-0.0772 -0.026,-0.0197 -0.057,-0.0316 -0.089,-0.0342 -0.032,-0.0026 -0.065,0.0043 -0.093,0.0197 -0.224,0.0895 -0.578,-0.0414 -0.635,0.3388 -0.02,0.1387 0.111,0.13 0.233,0.1262 0.172,-0.1647 0.557,0.0924 0.644,-0.2782 z"
       fill="#000000"
       id="path3869" />
    <path
       d="m 100.193,51.5463 -0.192,0.1618 c -0.0966,0.07 -0.1828,0.1533 -0.2562,0.2474 -0.076,0.0712 -0.0962,0.179 -0.1607,0.257 -0.156,0.2599 -0.0443,0.5419 -0.0655,0.8134 0.1579,0.2657 0.4111,0.4197 0.6664,0.5708 l 0.013,0.0173 c 0.059,0.1387 0.193,0.1406 0.311,0.1714 l 0.586,0.3542 c 0.345,0.1358 0.636,0.3206 0.564,0.7576 -0.132,0.8134 -0.299,1.6172 -0.69,2.3584 -0.145,0.2763 -0.396,0.6344 -0.317,0.8529 0.079,0.2185 0.499,-0.0173 0.77,0 0.009,0.0148 0.022,0.0264 0.038,0.0332 0.016,0.0067 0.033,0.0082 0.05,0.0043 0.062,-0.0311 0.119,-0.0717 0.169,-0.1203 0.026,-0.0221 0.051,-0.0433 0.075,-0.0674 0.064,-0.0524 0.133,-0.097 0.208,-0.1328 0.096,-0.0472 0.142,-0.1415 0.223,-0.2012 0.345,-0.6815 0.272,-1.4439 0.405,-2.163 0.05,-0.2734 0.193,-0.5833 -0.115,-0.8134 -0.102,-0.078 -0.232,-0.1714 -0.149,-0.2965 0.082,-0.1251 0.244,-0.1068 0.385,-0.0298 0.162,0.0914 0.288,0.1598 0.35,-0.1261 0.311,-1.4594 -1.581,-3.27 -2.868,-2.6492 z"
       fill="#000000"
       id="path3871" />
    <path
       d="m 103.648,51.2033 c -0.245,-0.3773 -0.215,-0.9019 -0.646,-1.1849 -0.079,-0.0511 -0.05,-0.1704 0.075,-0.1541 0.152,0.0193 0.303,0.0241 0.324,-0.153 -0.004,-0.0535 -0.019,-0.1056 -0.044,-0.1527 -0.026,-0.047 -0.061,-0.0879 -0.104,-0.1197 -0.155,-0.1127 -0.436,-0.1502 -0.505,-0.0289 -0.213,0.3744 -0.427,0.1848 -0.66,0.0741 -0.067,-0.0241 -0.13,-0.0414 -0.146,0.0597 0,0.0337 0.005,0.0664 0.008,0.0962 l 0.265,0.2474 c 0.32,0.0896 0.393,0.3658 0.45,0.6315 0.123,0.5699 0.097,1.16 0.33,1.7183 0.153,0.3639 0.256,0.5275 0.586,0.1925 0.009,-0.077 0.02,-0.154 0.03,-0.231 0.007,-0.0558 0.009,-0.1122 0.006,-0.1685 l 0.021,-0.2406 c 0.037,-0.0519 0.057,-0.1148 0.055,-0.179 -0.002,-0.0641 -0.025,-0.1258 -0.066,-0.1753 0.009,-0.0731 0.015,-0.154 0.021,-0.232 z"
       fill="#000000"
       id="path3873" />
    <path
       d="m 98.2028,54.7075 c -0.1781,0.2561 -0.1511,0.49 0.0703,0.7056 0.1685,0.233 0.3234,0.4765 0.5083,0.695 0.308,0.3658 0.6507,0.7153 0.6969,1.2158 0.0154,0.156 -0.0549,0.3292 0.1665,0.3273 0.1733,0 0.2763,-0.0963 0.3792,-0.2946 0.144,-0.2762 -0.0278,-0.7056 0.385,-0.8461 -0.007,-0.0404 0,-0.1011 -0.026,-0.1165 -0.7776,-0.4919 -1.4813,-1.0848 -2.1802,-1.6865 z"
       fill="#000000"
       id="path3875" />
    <path
       d="m 96.3546,49.1533 c 0.207,-0.3773 -0.2474,-0.3138 -0.3311,-0.4977 l -0.4419,-0.3118 c -0.0218,0.017 -0.0424,0.0357 -0.0616,0.0558 -0.0837,0.0837 -0.0558,0.1752 -0.0183,0.2676 0.2667,0.1925 0.4149,0.593 0.8529,0.4861 z"
       fill="#000000"
       id="path3877" />
    <path
       d="m 103.612,48.6668 c -0.112,-0.0414 -0.223,-0.1174 -0.335,-0.1184 -0.256,0 -0.528,-0.0173 -0.762,0.0645 -0.167,0.0587 0.01,0.2349 0.033,0.3591 0.346,-0.0231 0.649,0.2637 1.01,0.1472 0.602,-0.0827 0.09,-0.2964 0.054,-0.4524 z"
       fill="#000000"
       id="path3879" />
    <path
       d="m 103.456,48.3968 0.336,-0.0809 c 0.114,-0.1502 0.012,-0.2339 -0.096,-0.3167 l -0.153,-0.1059 c -0.192,0.0539 -0.509,-0.1357 -0.561,0.1473 -0.052,0.283 0.324,0.2137 0.474,0.3562 z"
       fill="#000000"
       id="path3881" />
  </g>
  <path
     d="m 103.56457,70.677259 c -15.152801,0 -27.436501,-12.2837 -27.436501,-27.4365 h -8.127 c 0,19.6412 15.9223,35.5635 35.563501,35.5635 z m 27.437,-27.4365 c 0,15.1528 -12.284,27.4365 -27.437,27.4365 v 8.127 c 19.641,0 35.563,-15.9223 35.563,-35.5635 z m -27.437,-27.4365 c 15.153,0 27.437,12.2837 27.437,27.4365 h 8.126 c 0,-19.6412 -15.922,-35.5635002 -35.563,-35.5635002 z m 0,-8.1270002 c -19.641201,0 -35.563501,15.9223002 -35.563501,35.5635002 h 8.127 c 0,-15.1528 12.2837,-27.4365 27.436501,-27.4365 z"
     fill="black"
     id="path3885" />
  <g
     clip-path="url(#clip1)"
     id="g3975"
     transform="translate(5.8256516,0.24373282)">
    <path
       d="M 0,13 C 0,-0.254834 10.7452,-11 24,-11 v 0 c 13.2548,0 24,10.745166 24,24 v 0 C 48,26.2548 37.2548,37 24,37 v 0 C 10.7452,37 0,26.2548 0,13 Z"
       fill="#623ad6"
       id="path3887" />
    <path
       d="M 23.5646,44.0965 C 23.404,44.0698 23.2462,44.0354 23.091,43.9933 22.9373,43.9511 22.7859,43.9008 22.6375,43.8425 22.4974,43.7841 22.3615,43.716 22.2309,43.6386 21.6292,43.3152 21.0274,43.0037 20.4281,42.6966 L 19.8289,42.39 c -2.0436,-0.9564 -4.1705,-1.7696 -5.7931,-3.3315 -0.1689,-0.132 -0.3359,-0.2684 -0.5004,-0.411 -0.8063,-0.7112 -1.4613,-1.5639 -1.3831,-2.656 0.1251,-1.6264 2.252,-1.5013 3.3779,-2.1694 0.1889,-0.103 0.372,-0.2127 0.5492,-0.329 0.178,-0.1169 0.3495,-0.2434 0.5136,-0.3791 0.0938,-0.0938 0.0625,-0.2502 0,-0.431 -0.0626,-0.1808 -0.1608,-0.3866 -0.1977,-0.5786 -0.0913,-0.2258 -0.177,-0.4416 -0.2502,-0.6512 -0.5348,-1.4631 -0.5517,-2.6272 -0.563,-3.508 C 15.5684,27.0151 15.5365,26.8574 15.3163,26.646 15.2456,26.5784 15.2456,26.5784 15.0423,26.5003 14.667,26.3545 14.0952,26.1349 13.1951,25.445 12.2768,24.7425 11.1358,23.8686 10.8556,22.3636 10.8216,22.1854 10.8007,22.005 10.7931,21.8238 10.3692,21.6846 9.99171,21.4319 9.7015,21.0931 9.0647,20.3506 9.11225,19.5631 9.15853,18.8012 9.18293,18.4002 9.21296,17.9042 9.20107,17.1779 9.01131,17.1415 8.8261,17.0844 8.64873,17.0078 7.19499,16.3854 6.54068,14.6251 6.64202,13.2077 6.70457,12.3545 7.02609,11.8584 7.2394,11.5306 7.36451,11.3355 7.42706,11.2372 7.48961,10.9739 7.53778,10.76 7.5309,10.7156 7.49337,10.4691 7.40236,9.94265 7.39202,9.40542 7.46271,8.87586 7.54654,8.19341 7.69666,7.80182 7.92436,7.21007 8.03445,6.92295 8.17457,6.56514 8.3516,6.0497 8.62871,5.25215 8.71378,4.91874 8.77571,4.67353 8.84825,4.36472 8.94724,4.06272 9.07159,3.77089 c 0.96021,-2.29571 3.20711,-4.9217 5.87191,-5.26386 0.0963,-0.01252 0.1801,-0.02002 0.2502,-0.02628 0.0749,-0.00172 0.1492,-0.01371 0.2208,-0.03565 0.2258,-0.07319 0.3422,-0.20705 0.705,-0.70248 0.2354,-0.33388 0.4931,-0.65153 0.7712,-0.95081 0.9596,-1.01211 2.5835,-2.09366 4.2593,-2.09366 0.252,-3.3e-4 0.5035,0.0244 0.7506,0.07382 0.4545,0.09734 0.89,0.26828 1.2893,0.50605 0.6931,-0.71873 1.7546,-1.16474 2.8286,-1.16474 0.6962,0 1.3249,0.19392 1.8191,0.56298 0.2762,0.20224 0.5045,0.46278 0.6687,0.76315 0.0976,-0.00625 0.207,-0.01063 0.3278,-0.01063 0.3093,-8.6e-4 0.6178,0.03313 0.9195,0.10133 0.8401,0.19079 1.2811,0.57362 1.7077,0.94331 0.4772,0.42211 0.9899,0.80218 1.5325,1.13597 0.1789,0.11259 0.3003,0.18766 0.3979,0.24208 0.2198,0.12472 0.429,0.26719 0.6255,0.42598 0.4423,0.35351 0.8249,0.775939 1.1329,1.251071 0.1323,0.203343 0.2831,0.3940979 0.4503,0.569861 0.1172,0.132249 0.2567,0.242787 0.4123,0.326528 0.4334,0.250765 0.8253,0.567301 1.1616,0.9383 0.5498,0.58049 1.5638,1.6489 1.2817,3.03571 0.3753,0.39596 0.6437,0.68809 0.8051,1.13722 0.2952,0.81695 0.0531,1.54006 -0.0857,1.901 -0.0369,0.27711 -0.112,1.01211 -0.2046,1.91413 -0.0951,0.93453 -0.1789,1.75153 -0.1876,2.02673 0.0315,0.1018 0.0723,0.2004 0.1219,0.2946 0.2291,0.4895 0.4325,0.9906 0.6093,1.5013 0.3028,0.8539 0.4692,1.3236 0.5211,1.8766 0.1507,1.6201 -0.3453,2.6942 -0.7882,3.3097 -0.2774,0.3922 -0.6358,0.7203 -1.0509,0.9621 -0.1576,0.0988 -0.1776,0.1113 -0.2709,0.2389 -0.072,0.0866 -0.1201,0.1906 -0.1394,0.3015 -0.1108,0.5005 -0.3729,0.9547 -0.7507,1.3011 -0.6637,0.6106 -1.4181,0.7419 -1.9948,0.7713 0.0482,1.4613 0.1307,1.7872 0.1645,1.8597 0.0857,0.1809 0.1935,0.3505 0.3209,0.5048 0.1226,0.156 0.2498,0.3155 0.3816,0.4786 l 0.4009,0.5004 c 0.8201,1.2736 2.3051,2.7917 3.2334,4.3162 0.1039,0.1695 0.2008,0.3396 0.2928,0.5123 0.2539,0.5661 0.5323,1.1147 0.8257,1.6551 0.0976,0.1808 0.197,0.3597 0.2977,0.5392 0.0351,0.1308 0.1602,0.1933 0.2227,0.3184 0.4379,1.3137 0.8758,2.7524 0.8132,3.9409 0,0.3128 -0.4066,0.5161 -0.9183,0.7356 -0.1739,0.0757 -0.359,0.1533 -0.5473,0.2396 -0.1608,0.0882 -0.411,0.1508 -0.5986,0.2759 -0.7413,0.5292 -1.4969,1.2667 -2.2839,1.9391 -0.157,0.1339 -0.3127,0.2652 -0.4741,0.3922 -1.3706,1.3606 -3.3723,1.298 -5.0994,1.8366 -0.1668,0.0325 -0.3336,0.0628 -0.5004,0.0907 -0.8319,0.1407 -1.6677,0.2383 -2.5278,0.4341 -0.5016,0.0626 -0.992,0.195 -1.4568,0.3935 -0.1877,0.0707 -0.3754,0.1457 -0.563,0.2233 -0.371,0.1551 -0.735,0.3209 -1.0903,0.4898 -0.1677,0.0819 -0.3347,0.1614 -0.5042,0.2346 -0.5067,0.2189 -1.0296,0.3797 -1.6064,0.3559 -0.0875,-0.0313 -0.177,-0.0663 -0.2589,-0.1051 z"
       fill="#000000"
       id="path3889" />
    <path
       d="m 26.6525,4.07079 c -0.075,0.18766 -0.2877,0.38971 -0.1401,0.59363 0.1476,0.20392 0.4635,0.12511 0.6512,0.23395 -0.0976,0.19829 -0.3547,0.22644 -0.5292,0.3234 0.1958,0.11635 0.4573,0.0932 0.638,0.23458 -0.0882,0.08757 -0.2151,0.13136 -0.3065,0.2158 0.1208,0.07382 0.2771,0.06631 0.3966,0.142 -0.1364,0.18453 -0.5505,0.30901 -0.1683,0.50043 0.1714,0.08507 0.3672,0.02689 0.5324,-0.04317 0.3909,-0.16701 0.7018,-0.4804 1.0296,-0.7425 0.5086,-0.40722 0.9908,-0.69997 1.5307,-0.20643 0.0888,0.08132 0.4591,0.4141 0.5204,0.12135 0.0344,-0.16326 -0.2808,-0.31652 -0.3872,-0.3872 -0.1876,-0.12511 -0.4654,-0.28399 -0.3284,-0.54797 0.0888,-0.17139 0.2796,-0.2058 0.4529,-0.18328 0.4197,0.05442 0.8245,0.39659 1.136,0.65869 0.2708,0.22832 1.0008,0.87574 0.608,1.2642 -0.3753,0.37532 -0.9658,-0.7594 -1.3724,0.01126 -0.3203,0.60802 0.2927,1.15598 0.6981,1.51316 0.1094,0.09634 0.4735,0.39284 0.2865,0.55548 C 31.7969,8.41824 31.5204,8.29689 31.416,8.25373 30.671,7.94909 30.6359,7.34983 30.4777,6.66425 30.3375,6.05435 29.5644,6.09689 29.0671,6.14256 c -0.3009,0.02752 -1.582,0.19328 -1.2955,0.71686 0.2784,0.50856 1.2242,0.65743 1.699,0.88137 1.0465,0.49417 1.9929,1.80529 1.8972,3.00261 -0.0769,0.957 -0.9827,1.1434 -1.789,1.1259 -1.0372,-0.0194 -2.0549,-0.2671 -3.0651,0.1207 -1.4162,0.5443 -1.9392,2.0643 -2.0437,3.4624 -0.0819,1.1053 0.493,3.1752 -0.7462,3.8157 -0.5692,0.294 -1.1735,0.0726 -1.7747,0.1314 -0.5629,0.0544 -1.2804,0.6962 -0.608,1.1704 0.431,0.3027 1.3875,0.3002 1.6039,0.8519 0.2684,0.6837 -0.7119,0.9784 -1.1829,1.0009 -0.4247,0.02 -1.2711,-0.1714 -1.4975,0.3203 -0.1038,0.2264 -0.0225,0.5104 -0.2396,0.6843 -0.2171,0.1739 -0.5467,0.0901 -0.8013,0.0463 -1.607,-0.2803 -0.7669,1.8734 -0.2633,2.5459 0.1657,0.2221 0.3696,0.431 0.6255,0.5498 0.2827,0.1314 0.5986,0.0951 0.8932,0.1877 0.3347,0.107 0.6212,0.264 0.9821,0.2684 0.3416,0.0037 0.685,-0.0676 1.0215,-0.1189 0.6512,-0.0995 1.3474,-0.2071 1.9048,-0.583 0.4941,-0.3334 0.6624,-0.8858 -0.072,-0.9496 -0.2714,-0.0237 -0.5686,0.0438 -0.8275,-0.0625 -0.4029,-0.1658 -0.2715,-0.3947 0.0938,-0.4379 0.5942,-0.0719 1.4387,0.269 1.9216,-0.2352 0.1164,-0.122 0.2502,-0.3753 0.1933,-0.5479 -0.0888,-0.2653 -0.4122,-0.1677 -0.6105,-0.0945 -0.6437,0.2364 -1.2104,0.5505 -1.926,0.4954 -0.4704,-0.0363 -1.2085,-0.3002 -1.607,0.0713 0.3822,0.214 -0.1996,0.3753 -0.3672,0.4041 -0.3053,0.0538 -0.7394,0.0319 -0.9308,-0.2558 -0.2796,-0.4204 0.2415,-0.7544 0.5999,-0.8013 0.5354,-0.0707 1.0753,0.1169 1.6157,0.0744 0.3616,-0.0288 0.7088,-0.1432 1.0722,-0.1639 0.2746,-0.015 0.6324,0.0444 0.8476,-0.1689 -0.1977,-0.4153 -1.5082,0.0864 -1.4556,-0.4898 0.5085,-0.1363 1.059,0.0851 1.5638,0.1295 0.5367,0.0476 1.0478,-0.1545 1.5814,-0.1401 0.8557,0.0225 1.1847,0.705 1.029,1.4769 -0.3891,1.9229 -2.7005,2.94 -4.4463,3.1383 -2.0968,0.2383 -4.1135,-0.7938 -5.2889,-2.5203 -0.5842,-0.8582 -0.9564,-1.8378 -1.3762,-2.7817 -0.4241,-0.9596 -0.872,-1.9454 -0.9383,-3.0076 -0.0294,-0.4535 0.3885,-2.489 -0.4441,-2.4765 -0.2571,0.0038 -0.6812,0.3366 -0.7269,-0.132 -0.0219,-0.2189 0.1114,-0.3753 0.0094,-0.5961 -0.0907,-0.1977 -0.2746,-0.3372 -0.3691,-0.5367 -0.1022,-0.2186 -0.1657,-0.4534 -0.1876,-0.6937 0.4041,-0.0676 0.7362,0.4135 0.9677,0.673 0.1445,0.1614 0.2952,0.331 0.496,0.4223 0.1796,0.0819 0.366,0.0832 0.513,0.2296 0.3321,0.3315 0.4641,0.9295 0.6687,1.343 0.2316,0.4657 0.5666,0.8722 0.9796,1.1885 0.3534,0.284 0.6974,0.553 0.8845,0.9783 0.162,0.3691 0.2108,0.7751 0.2902,1.1673 0.1182,0.5836 0.5523,1.8478 1.363,1.3893 0.4204,-0.2377 0.6024,-0.351 1.111,-0.3191 0.3672,0.0238 1.2792,-0.015 1.3311,-0.5329 0.0407,-0.3997 -0.5561,-0.6518 -0.795,-0.872 -0.1652,-0.153 -0.2972,-0.3382 -0.3879,-0.5442 -0.0908,-0.2061 -0.1382,-0.4286 -0.1395,-0.6537 0,-0.1776 0.0588,-0.5342 0.294,-0.5417 0.067,0 0.1689,0.097 0.2384,0.1151 0.1251,0.0325 0.2658,0.0037 0.3916,-0.0213 0.2746,-0.0538 0.5173,-0.1094 0.8006,-0.1088 0.2421,0 0.4861,0.0119 0.7207,-0.0626 0.6624,-0.2095 0.8463,-0.9183 0.9045,-1.5363 0.0769,-0.8132 0.0363,-1.6307 0.1288,-2.4464 0.1251,-1.1016 0.3666,-2.2201 0.8464,-3.2259 0.2239,-0.4698 0.5123,-0.8983 0.9264,-1.2192 0.3803,-0.2952 0.8826,-0.51542 1.1666,-0.91764 C 27.5058,8.86925 26.7445,8.24435 26.2109,7.96223 25.8981,7.79584 25.5228,7.64634 25.1644,7.67261 24.806,7.69888 24.9673,7.84588 24.8673,8.1011 24.833,8.17877 24.7825,8.24821 24.7192,8.30475 24.6558,8.36128 24.5811,8.40361 24.5001,8.42888 24.0622,8.59527 23.4911,8.49143 23.1145,8.23559 22.7379,7.97975 22.4715,7.52498 21.9804,7.48495 21.5976,7.4543 21.1891,7.65197 20.8151,7.51685 20.3866,7.36234 20.2633,6.78998 20.0119,6.45345 19.8205,6.19823 19.5252,5.77287 19.9049,5.54455 20.107,5.42319 20.4203,5.48825 20.5749,5.2812 20.8301,4.93715 20.426,4.57559 20.0744,4.68131 19.6147,4.8208 19.3632,5.42569 19.2018,5.82666 c -0.0995,0.25021 -0.2533,0.53296 -0.3053,0.7938 -0.0462,0.23208 0.0751,0.2571 0.2859,0.3503 0.3278,0.1445 0.9002,0.40159 0.6587,0.86824 C 19.6484,8.21432 19.0592,8.16928 18.7339,8.03479 18.5488,7.96169 18.3837,7.84546 18.2525,7.69575 18.1213,7.54605 18.0277,7.3672 17.9795,7.17406 17.8776,6.71367 17.8801,5.93801 18.1672,5.54267 18.3586,5.27932 18.6976,5.29246 18.799,5.6365 19.0892,5.65714 19.1899,5.24304 19.29,5.04287 19.4625,4.70949 19.7415,4.44331 20.0826,4.2866 20.5717,4.05202 21.5463,3.80306 21.8885,4.40045 22.1087,4.7864 21.7152,5.15109 21.8165,5.53329 22.2826,5.46448 22.6691,5.75848 23.1264,5.73658 23.3898,5.72345 23.6268,5.60147 23.8808,5.53579 24.1479,5.46573 24.4263,5.48262 24.694,5.42257 25.0799,5.33749 25.5328,4.99846 25.2401,4.57434 25.0093,4.24031 24.5314,4.18276 24.1629,4.13021 23.7056,4.06766 23.2352,4.00886 22.9975,3.55785 22.9175,3.94381 23.0151,4.43798 22.7686,4.77889 22.4733,5.18737 22.2094,4.84145 22.1306,4.50366 22.038,4.10519 22.0743,3.70047 21.8866,3.32328 21.5738,2.69337 20.9646,2.63519 20.3296,2.71151 19.8974,2.7628 18.9629,2.74654 18.8909,3.34892 c 0.299,0.04629 0.6531,-0.20642 0.9158,0.03566 0.3221,0.2965 -0.0081,0.71749 -0.177,0.99272 -0.1214,0.19829 -0.6256,1.28109 -0.979,0.92767 -0.1776,-0.18016 0.0982,-0.57549 0.1827,-0.75064 -0.3804,0 -0.6137,-0.16389 -0.9665,-0.28212 -0.3659,-0.12511 -0.4147,0.12135 -0.2145,0.39534 0.222,0.30401 0.4266,0.55234 0.0888,0.8795 -0.3015,0.2915 -0.675,0.31276 -0.9671,0.01251 -0.3797,0.2621 -0.8526,0.49042 -1.181,0.81757 -0.1595,0.15826 -0.4904,0.7669 -0.795,0.62053 -0.3047,-0.14638 0.3503,-0.65431 0.4697,-0.75064 0.366,-0.2915 0.7507,-0.5511 0.9715,-0.97708 0.1332,-0.2571 0.4341,-1.07842 0.0913,-1.30111 -0.2208,-0.14325 -0.6537,0.33716 -0.8263,0.44162 -0.7901,0.47791 -1.7377,0.63304 -2.4809,1.19915 -0.3165,0.24146 -0.8132,0.71436 -0.6812,1.16975 0.147,0.50042 0.7219,0.21018 1.0509,0.1739 C 13.3637,7.25413 13.1579,7.6576 12.8126,7.57878 12.5549,7.52061 12.229,7.3148 12.1045,7.07835 11.7749,6.45282 12.3835,5.72908 12.7982,5.32311 13.3333,4.78927 13.9233,4.31351 14.5585,3.90377 15.2878,3.44588 16.0541,3.34455 16.8417,3.05117 17.0919,2.95797 17.5185,2.7922 17.4616,2.45691 17.424,2.2311 17.0819,2.0278 17.3208,1.80511 c 0.2127,-0.1983 0.6181,0.00813 0.8795,-0.08695 0.2878,-0.10509 0.4542,-0.27211 0.5661,0.12511 0.1064,0.37532 0.1545,0.28274 0.4836,0.10634 0.329,-0.1764 0.6781,-0.19204 1.0371,-0.16952 0.3591,0.02252 0.8413,0.14199 1.1635,-0.07131 0.2239,-0.14826 0.2502,-0.44914 0.456,-0.61553 C 22.1975,0.8568 22.6347,0.958137 22.97,0.836783 23.087,0.794247 23.2884,0.71543 23.3109,0.573434 23.3397,0.394531 23.1827,0.349493 23.0432,0.397659 22.7667,0.49274 22.6917,0.88057 22.4339,1.01068 22.0861,1.1852 21.829,0.831153 21.5951,0.630983 21.4612,0.517136 21.3036,0.397034 21.1166,0.429561 21.2698,0.577187 21.5701,0.653502 21.6633,0.867435 21.7965,1.17082 21.4881,1.22712 21.2648,1.16206 20.6824,0.994418 20.4516,0.443323 20.6881,-0.0996399 c 0.2264,-0.5223201 0.7225,-0.8970141 1.303,-0.8538521 0.531,0.039408 1.0496,0.362183 1.5869,0.178902 0.5224,-0.178277 0.6487,-0.79881 1.0684,-1.10156 0.2077,-0.15013 0.5737,-0.20768 0.6187,0.13323 0.035,0.27149 -0.2377,0.56298 -0.3897,0.759402 -0.152,0.196417 -0.4222,0.534205 -0.0838,0.696218 0.2696,0.129485 0.5342,-0.113221 0.7625,-0.22394 0.1126,-0.055047 0.3697,-0.192665 0.4967,-0.11072 0.1945,0.125107 -0.0182,0.389082 -0.092,0.521069 -0.1107,0.1945409 -0.2145,0.40472 0.0451,0.531078 0.1576,0.07694 0.3234,0.025021 0.4647,-0.062554 0.3666,-0.219562 0.6162,-0.671822 0.7963,-1.045265 0.2183,-0.452258 0.1708,-0.885128 0.2753,-1.364288 0.3365,-1.54632 3.3322,-0.03003 3.9358,0.65055 -0.202,0.00501 -0.8951,-0.18766 -0.8839,0.19455 0.2184,0.07568 0.488,-0.0194 0.6806,0.13824 0.1777,0.145747 0.1426,0.349045 0.1533,0.552343 0.0206,0.4065971 0.2458,0.750641 0.7056,0.5955083 0.1069,-0.0349853 0.2032,-0.0962913 0.2802,-0.1782768 0.0569,-0.0625535 0.0757,-0.1945405 0.147,-0.2377025 0.1514,-0.090703 0.4141,0.05317 0.451,0.213932 0.0419,0.1832811 -0.147,0.349047 -0.1101,0.549844 0.0326,0.1764 0.1771,0.308388 0.2646,0.457265 0.1733,0.292127 0.0626,0.478537 0.0507,0.786297 -0.0175,0.40159 0.2533,0.31714 0.5104,0.11384 0.2784,-0.22018 0.5161,-0.61239 0.6819,-0.04691 0.1201,0.40847 -0.0801,0.76753 -0.3872,1.01336 -0.2928,0.23458 -0.5005,0.46915 -0.2503,0.8426 0.269,0.40284 0.7876,0.40472 1.1579,0.66369 0.1564,0.10947 0.3128,0.22269 0.5004,0.11322 0.157,-0.09196 0.1714,-0.31277 0.3022,-0.42099 0.2858,-0.23957 0.4735,0.22395 0.5823,0.43788 0.2083,0.41598 0.4285,0.78567 0.7676,1.10907 0.3127,0.29963 0.6724,0.6149 0.6224,1.09343 C 37.66,7.01079 37.3191,7.45242 36.8994,7.52748 36.5641,7.59004 36.1975,7.37798 36.2113,7.00454 36.2144,6.91571 36.4446,6.19135 36.1644,6.53289 35.8954,6.86004 36.2357,7.5106 36.0312,7.90155 35.7384,8.45953 34.7938,8.83985 34.2033,8.6034 34.0463,8.54085 33.8743,8.422 33.8449,8.2456 34.1952,8.05293 34.725,8.26436 35.1129,8.1574 35.5826,8.02729 35.5426,7.58816 35.2004,7.32294 34.8745,7.07272 34.4354,7.00204 34.0901,6.77184 33.8906,6.63798 33.7085,6.47972 33.5171,6.33397 33.4089,6.25077 33.038,6.09314 32.9904,5.97616 32.7946,5.49137 33.8312,5.75848 33.9863,5.82228 34.3916,5.98867 34.8326,6.29519 35.2924,6.21449 35.6271,6.15569 36.053,5.79163 35.8729,5.41944 35.7203,5.10667 35.2668,5.06414 34.9634,5.04975 34.2753,5.01659 33.0868,5.22302 33.3601,4.174 33.4114,3.98071 33.4633,3.81182 33.4258,3.61102 33.382,3.37957 33.2538,3.17815 33.2319,2.94045 33.1975,2.56138 33.2594,2.22547 33.1337,1.85578 33.0793,1.69564 32.8422,1.26277 32.7233,1.61807 c -0.0775,0.23145 0.147,0.66495 0.1971,0.89264 0.05,0.22769 0.167,1.07154 -0.2765,0.91203 C 32.4531,3.35393 32.2942,3.12186 32.1184,3.01614 31.9236,2.91152 31.7118,2.84186 31.4929,2.81034 31.1038,2.7359 30.6541,2.68211 30.2994,2.89354 30.0035,3.07056 29.7921,3.34204 29.4236,3.17002 29.1109,3.02427 28.8707,2.63519 28.4853,2.72777 28.0544,2.83161 27.8335,3.3533 27.547,3.6423 27.3982,3.7943 27.1855,3.97508 26.9578,3.94005 26.8896,3.36206 27.7022,3.07744 27.9586,2.65708 28.1025,2.42001 28.1382,2.08097 27.7873,2.06095 27.4363,2.04093 27.1242,2.36371 26.9484,2.63644 26.6607,3.0837 26.4642,3.58225 26.1715,4.02825 26.3298,4.01136 26.5062,3.9657 26.6519,4.05265 Z"
       fill="#c4c3c6"
       id="path3891" />
    <path
       d="m 14.6123,6.91779 c 0.0088,-0.01001 0.0182,-0.02002 0.0275,-0.0294 0.3197,-0.31965 0.7738,-0.47353 1.1366,-0.73625 0.3754,-0.26961 0.7131,-0.6468 1.141,-0.82883 0.0719,0.21518 0.0957,0.46164 0.3928,0.41035 C 17.598,5.68424 17.9326,5.35834 17.882,5.05057 17.8232,4.68839 17.359,4.52575 17.264,4.17483 17.2089,3.97341 17.2996,3.82328 17.5323,3.8852 c 0.2646,0.07069 0.3922,0.4041 0.5993,0.55673 0.3127,0.22832 0.5004,-0.04942 0.7888,-0.13637 0.4378,-0.13324 -0.0226,0.3453 -0.0851,0.51607 -0.0707,0.19329 -0.0676,0.39346 -0.2096,0.5561 -0.142,0.16264 -0.3302,0.21581 -0.4041,0.42411 -0.0982,0.27711 -0.0863,0.67495 -0.0913,0.9677 -0.0056,0.33841 0.0695,0.63116 0.3078,0.88075 0.3059,0.32027 1.1378,0.73187 1.251,0.01376 C 19.8105,6.88714 18.876,7.30937 18.6914,6.85086 18.6051,6.63505 18.8165,6.40235 18.9385,6.24659 19.1073,6.03568 19.2425,5.80001 19.3395,5.54787 19.5134,5.11 19.965,4.36812 20.553,4.42942 c 0.451,0.04691 0.3478,0.91015 0.0419,1.08029 -0.1783,0.09946 -0.5404,0.02628 -0.663,0.20831 -0.1402,0.2083 0.2051,0.4754 0.2983,0.6443 0.2953,0.53295 0.3391,1.14973 1.126,0.97645 0.2596,-0.05692 0.5236,-0.21518 0.7963,-0.13449 0.3128,0.09258 0.4935,0.45602 0.6993,0.68309 0.4279,0.47165 1.2718,0.7644 1.8185,0.27523 0.1951,-0.1739 0.1639,-0.45914 0.4091,-0.58738 0.2452,-0.12823 0.5629,-0.05629 0.8006,0.06256 0.5274,0.25772 0.8552,0.77441 1.3449,1.08029 0.1558,0.09696 0.3234,0.11948 0.3216,0.29525 0,0.10947 -0.122,0.26586 -0.1802,0.35156 -0.1707,0.2334 -0.3742,0.44093 -0.6043,0.61614 -0.4722,0.38718 -0.9414,0.72058 -1.2973,1.22788 -0.4104,0.5837 -0.6825,1.2567 -0.862,1.9448 -0.3822,1.4669 -0.2665,2.9988 -0.5492,4.4807 -0.1013,0.5298 -0.3015,1.2223 -0.8589,1.4431 -0.3252,0.1295 -0.6674,0.0107 -1.0008,-0.0137 -0.1587,-0.0206 -0.32,-0.0011 -0.4692,0.0569 -0.137,0.0625 -0.2502,0.2058 -0.3997,0.2364 -0.2921,0.0595 -0.344,-0.1876 -0.3128,-0.4253 -0.3409,0.4335 -0.1876,1.146 0.1151,1.5582 0.3266,0.4485 0.984,0.5123 1.2893,0.9608 -0.2365,0.3559 -0.72,0.613 -1.1041,0.7744 -0.2302,0.0963 -0.4473,0.1483 -0.6943,0.0882 -0.2058,-0.05 -0.3691,-0.1751 -0.588,-0.1251 -0.4079,0.0951 -0.6425,0.5405 -1.1035,0.5004 -0.4153,-0.0356 -0.6374,-0.4147 -0.7625,-0.7694 -0.3009,-0.8563 -0.1964,-1.926 -0.9108,-2.5916 -0.3446,-0.3209 -0.7056,-0.5536 -0.9727,-0.9558 -0.2746,-0.4135 -0.451,-0.8757 -0.6681,-1.3186 -0.217,-0.4429 -0.399,-0.6574 -0.8663,-0.7982 -0.4529,-0.1363 -0.7394,-0.446 -1.0503,-0.7932 -0.2671,-0.2983 -0.6881,-0.6987 -0.4466,-1.1259 0.1146,-0.1831 0.2893,-0.3206 0.4942,-0.3891 0.2727,-0.0945 0.3471,0.0275 0.5692,0.1201 0.4266,0.1777 0.4103,-0.3365 0.4685,-0.6118 0.0626,-0.2871 0.2934,-0.5004 0.4898,-0.1926 0.1845,0.289 0.1927,0.5285 0.5079,0.7419 0.3754,0.2539 0.792,0.3465 1.228,0.4234 0.4885,0.0857 0.7218,0.3353 1.0602,0.67 0.3385,0.3346 0.7632,0.4766 1.2392,0.4873 0.4735,0.0115 0.9396,-0.1193 1.338,-0.3753 0.4054,-0.254 0.7044,-0.5292 1.2054,-0.5105 0.4867,0.0182 0.5599,-0.2721 0.5874,-0.725 0.0257,-0.4378 0.0876,-0.9114 0.0307,-1.3442 -0.0626,-0.4661 -0.3209,-0.8226 -0.6825,-1.1091 -0.4022,-0.3184 -0.71,-0.3979 -1.1885,-0.2302 -0.5004,0.1751 -1.0378,0.1507 -1.5576,0.2321 -0.5198,0.0813 -1.0008,0.2827 -1.5013,0.4416 -0.4285,0.1357 -0.872,0.1839 -1.3054,0.2946 -0.4035,0.1032 -0.6913,0.1251 -0.974,-0.2095 -0.2427,-0.2878 -0.4767,-0.6706 -0.3128,-1.0478 0.1639,-0.3772 0.5161,-0.6168 0.6131,-1.02338 C 15.6213,9.71267 15.6057,9.29481 15.236,9.34736 14.9414,9.38864 14.6023,9.86405 14.3971,9.41679 14.0318,8.61986 15.6895,8.7531 16.0385,8.58859 16.2437,8.49226 16.8517,8.13383 16.564,7.84921 16.2975,7.58523 15.9597,8.1357 15.6595,7.96556 15.3723,7.80292 15.6832,7.42885 15.5175,7.2293 15.3517,7.02976 15.0127,7.33565 14.845,7.39445 14.3884,7.55083 14.3765,7.18114 14.6123,6.91779 Z"
       fill="#ffffff"
       id="path3893" />
    <path
       d="m 17.4223,1.69639 c -0.0268,0.15437 -0.0248,0.31234 0.0056,0.46602 0.0588,0.31715 0.0538,0.58425 -0.2001,0.80944 -0.4142,0.36719 -1.0478,0.43788 -1.5514,0.62554 -0.7609,0.28045 -1.464,0.69813 -2.0742,1.2323 -0.5518,0.48291 -1.1998,1.12596 -1.4669,1.82342 -0.1164,0.30526 -0.0626,0.58926 0.2721,0.68121 0.1877,0.05067 0.6756,0.06881 0.563,0.38408 -0.0989,0.28149 -0.5211,0.16827 -0.6525,0.42286 -0.1576,0.31276 0.2052,0.6199 -0.167,0.86448 -0.1069,0.07069 -0.2502,0.10885 -0.3184,0.22395 -0.0907,0.147 -0.0081,0.28586 0,0.43787 0.0157,0.34404 -0.4078,0.44224 -0.5267,0.73124 -0.1069,0.2615 0.0057,0.6362 -0.2014,0.8564 -0.1101,0.1169 -0.2671,0.1038 -0.3634,0.2427 -0.087,0.1251 -0.0957,0.197 -0.2565,0.2314 -0.1758,0.0375 -0.4823,-0.0369 -0.56298,0.1789 -0.08382,0.2308 0.15698,0.4917 0.28208,0.6556 0.152,0.1983 0.3128,0.431 0.2121,0.6918 C 10.2531,13.6935 9.94342,13.2181 9.71072,13.1793 9.37231,13.1224 9.27723,13.7166 8.91942,13.5671 8.58163,13.4258 8.66921,12.9272 8.76554,12.6657 8.89502,12.3211 9.09207,12.0277 9.1246,11.6517 9.15963,11.2458 9.31914,10.9155 9.14274,10.522 8.97202,10.1762 8.92478,9.78244 9.00887,9.40609 9.06705,9.08519 9.05328,8.58288 9.29912,8.33768 c 0.35405,-0.35343 0.40409,0.31276 0.55735,0.4754 0.23583,0.25021 0.63303,0.15138 0.72873,0.55235 0.0263,0.10884 0.01,0.33528 0.1401,0.38845 0.1533,0.06255 0.274,-0.15826 0.294,-0.27961 C 11.0462,9.31288 10.9868,9.14774 10.9518,8.99261 10.9085,8.79233 10.8768,8.58975 10.8567,8.38584 10.8173,8.03304 10.8398,7.50009 10.6528,7.18669 10.4876,6.90958 10.3444,7.49633 10.2775,7.61331 10.1774,7.79033 9.8058,8.0712 9.72636,7.73091 9.67256,7.49884 9.86523,7.21609 9.94592,7.01029 10.0266,6.80449 10.3112,5.27507 10.6834,5.38391 10.8986,5.44646 10.7335,5.783 10.8336,5.92312 11.0175,6.17834 11.2276,5.7561 11.2345,5.59409 11.247,5.28507 10.908,5.21877 10.7585,5.00671 10.5708,4.74211 10.6897,4.4112 10.8292,4.15536 11.541,2.848 12.8747,1.682 14.1795,0.993917 c 0.7031,-0.369064 1.4825,-0.574239 2.0949,-1.101563 0.6362,-0.547342 1.2098,-1.158484 1.9173,-1.618254 0.3128,-0.20392 0.6111,-0.41473 0.9095,-0.63867 0.1208,-0.09133 0.2627,-0.18766 0.421,-0.18078 0.1583,0.00688 0.279,0.16577 0.4285,0.13199 0,-0.12511 -0.1414,-0.19517 -0.122,-0.33278 0.0488,-0.35093 0.7632,-0.46915 1.0315,-0.51294 0.4277,-0.07022 0.8646,-0.06174 1.2892,0.02502 0.1833,0.03691 1.0347,0.22457 0.7275,0.53733 -0.0969,0.09884 -0.2652,0.09196 -0.359,0.19392 -0.132,0.14199 -0.02,0.2083 0.1251,0.20955 0.3578,0 0.7237,-0.20079 1.0415,-0.34217 0.6956,-0.31151 1.3449,-0.81194 2.0887,-0.99397 0.2502,-0.06255 0.5454,-0.08319 0.7781,0.05505 0.2759,0.16452 0.3922,0.56298 0.5236,0.83884 0.1789,0.37532 0.0432,0.47353 -0.1564,0.77629 -0.1726,0.26335 -0.1564,0.59488 -0.3641,0.85072 -0.3434,0.423487 -1.0365,1.0352581 -1.6357,0.965824 -0.2283,-0.026272 -0.5286,-0.226443 -0.5305,-0.483537 0,-0.19892 0.219,-0.312767 0.361,-0.410977 0.1645,-0.11009 0.3828,-0.23457 0.4191,-0.44788 0.0256,-0.15013 -0.0732,-0.54922 -0.2872,-0.42724 -0.1251,0.06944 -0.115,0.26147 -0.192,0.36531 -0.0863,0.1176 -0.2202,0.13637 -0.3472,0.18766 -0.3159,0.12511 -0.1707,0.380326 -0.3196,0.617403 -0.1689,0.268354 -0.6725,0.085698 -0.9158,0.036906 -0.3972,-0.079442 -0.8007,-0.157634 -1.2016,-0.050668 -0.5005,0.131988 -1.3574,0.6774531 -1.2849,1.294228 0.0319,0.267103 0.3309,0.331533 0.5486,0.385954 0.2502,0.062554 0.5004,0.150127 0.6762,0.347797 0.1971,0.22394 0.1251,0.50043 -0.1526,0.60864 C 21.3976,1.9979 21.0116,1.95724 20.7032,1.94348 20.3367,1.93034 19.9025,1.84151 19.5516,1.98539 19.3327,2.07484 19.0468,2.48581 18.7878,2.39887 18.4557,2.2894 18.8504,1.88217 18.6659,1.68451 18.5651,1.57817 18.375,1.57566 18.2461,1.52187 18.0897,1.45931 17.944,1.31857 17.7626,1.34234 17.5562,1.37299 17.4592,1.52062 17.4223,1.69639 Z"
       fill="#ffffff"
       id="path3895" />
    <path
       d="m 23.7782,40.1849 c -0.02,0.0832 -0.1151,0.1332 -0.324,0.1251 -0.4973,-0.0244 -1.2236,-0.3072 -1.2198,-0.8989 0.0037,-0.6468 0.7381,-1.1804 1.2936,-1.3512 0.3935,-0.1207 0.8132,0.0075 1.2035,-0.1207 0.329,-0.1082 0.4917,-0.4185 0.7657,-0.6055 0.1958,-0.1339 0.5079,-0.1795 0.6486,-0.3828 0.1946,-0.2809 -0.147,-0.5005 -0.0888,-0.7876 0.0682,-0.3328 0.5361,-0.4278 0.7763,-0.593 0.3184,-0.2195 0.5448,-0.5555 0.7506,-0.8757 0.4742,-0.7363 0.8258,-1.5382 1.1886,-2.3314 0.3809,-0.8294 0.8332,-1.6182 1.2773,-2.4139 0.4185,-0.7507 0.7012,-1.5676 1.126,-2.3176 0.1119,-0.1983 0.3609,-0.7663 0.6737,-0.6543 0.1814,0.0625 0.212,0.3853 0.2339,0.5411 0.0682,0.4904 -0.0075,0.977 0.0163,1.4662 0.0438,0.9177 0.0269,1.8359 -0.1752,2.7361 -0.364,1.622 -1.1966,3.0651 -2.1268,4.4188 -0.4591,0.6605 -0.8907,1.3398 -1.3349,2.011 -0.1207,0.1839 -0.5048,0.8526 -0.7932,0.7182 -0.4378,-0.204 0.4023,-1.1823 0.5161,-1.4044 0.1808,-0.354 0.2371,-0.76 -0.0751,-1.0596 -0.2552,-0.2446 -0.5961,-0.2615 -0.8594,-0.025 -0.5599,0.5004 -0.6099,1.3624 -1.1172,1.8884 -0.4235,0.4379 -1.1022,0.5524 -1.684,0.5036 -0.3396,-0.0288 -0.9464,-0.1783 -1.1009,0.2471 -0.107,0.294 0.055,0.558 0.2383,0.7688 0.1295,0.1482 0.2152,0.2971 0.1908,0.3972 z"
       fill="#c4c3c6"
       id="path3897" />
    <path
       d="m 26.6687,15.3975 c 0.9933,0.08 1.8766,0.7162 2.8618,0.2452 0.3666,-0.1758 0.7506,-0.1877 1.1479,-0.2252 0.8319,-0.0751 0.7562,0.486 0.4841,0.8132 -0.6049,0.7318 -0.8451,1.6783 -1.6126,2.3463 -0.3753,0.3259 -0.7506,1.0635 -0.6556,1.7565 0.0814,0.6043 -1.3999,2.5222 -1.9003,2.3258 -0.533,-0.209 -0.9383,-0.6593 -1.0009,-1.3624 -0.1201,-1.37 0.2277,-2.7524 -0.3647,-4.1286 -0.3346,-0.78 0.0857,-1.5857 1.0403,-1.7708 z"
       fill="#c4c3c6"
       id="path3899" />
    <path
       d="m 23.1383,25.0771 c 0.3184,0.0445 0.64,0.0757 0.9552,0.137 0.3247,0.0626 0.8801,0.0901 0.9214,0.2434 0.1201,0.4497 -0.2471,0.8225 -0.6311,0.9946 -1.0447,0.4685 -2.1894,0.7644 -3.3028,0.6455 -1.0441,-0.1107 -2.0593,-0.5004 -2.5522,-1.6889 -0.3172,-0.7682 -0.4266,-1.455 -0.1057,-2.2088 0.0156,-0.0369 0.0957,-0.0869 0.1132,-0.0763 0.6174,0.3641 1.2148,0.2796 1.8034,-0.0676 0.3059,-0.1801 1.0071,0.0413 1.3436,0.0582 0.523,0.0263 1.0478,0.0232 1.5701,0.0657 0.3203,0.0263 1.46,-0.0306 1.4325,0.4804 -0.0194,0.3541 -0.3753,0.289 -0.5705,0.2333 -0.6824,-0.1964 -1.2567,0.1927 -1.8766,0.3128 -0.5154,0.0988 -0.9383,-0.5123 -1.4475,-0.122 -0.1989,0.152 -0.6117,0.177 -0.5254,0.4904 0.0438,0.157 0.4304,0.2503 0.6774,0.3128 0.2471,0.0626 0.5105,0.0475 0.7669,0.0669 0.0293,-0.0315 0.0659,-0.0554 0.1066,-0.0692 0.0408,-0.0139 0.0843,-0.0174 0.1268,-0.0102 0.3465,0.0919 0.6843,0.2433 1.0577,0.1514 0.0504,-5e-4 0.0991,0.0175 0.137,0.0506 z"
       fill="#ffffff"
       id="path3901" />
    <path
       d="m 16.7031,14.4811 c -0.0732,0.1076 -0.9239,-0.2903 -1.0215,-0.3572 -0.2083,-0.142 -0.304,-0.3572 -0.4216,-0.5699 -0.3528,-0.638 -0.4623,1.2549 -1.0703,0.6881 -0.1019,-0.0951 -0.0625,-0.2621 -0.2383,-0.2808 -0.2152,-0.0232 -0.6318,0.431 -0.8132,0.5379 -0.0282,-0.4547 0.3515,-0.6136 0.7181,-0.7175 0.7431,-0.2095 1.2067,-0.6167 0.9077,-1.4743 -0.0757,-0.2171 -0.2897,0.1194 -0.4586,0.1382 -0.1488,0.0169 -0.3471,0.1501 -0.4966,0.0682 -0.2027,-0.1114 0.0256,-0.3835 0.0569,-0.5273 0.0356,-0.1621 0.0625,-0.3266 0.0913,-0.4898 0.0626,-0.3435 0.1251,-0.6881 0.1914,-1.029 0.0438,-0.219 0.2384,-0.2346 0.279,-0.052 0.167,0.7507 0.4698,0.5261 0.8182,0.1477 0.1251,0.3597 -0.4785,0.5079 -0.0413,1.1616 0.6005,0.8995 1.1022,0.3127 1.5013,0.2464 1.2836,-0.2108 2.5378,-0.5629 3.7964,-0.8845 0.3277,-0.0838 0.6086,-0.1607 0.9283,-0.0093 0.2896,0.1369 0.5329,0.3753 0.7312,0.6255 0.2466,0.3112 0.3834,0.6952 0.3891,1.0922 0.0146,0.4589 0.0044,0.9183 -0.0307,1.3761 -0.0175,0.2659 -0.1201,0.5074 -0.3809,0.6106 -0.2609,0.1032 -0.5286,0 -0.7888,0.0719 -0.2715,0.0732 -0.5048,0.2621 -0.7363,0.4141 -0.2502,0.167 -0.5229,0.3284 -0.8282,0.3753 -0.3215,0.0488 -0.6924,-0.0081 -1.0083,-0.0707 -0.3635,-0.0725 -0.7056,-0.2189 -0.9715,-0.4822 -0.1345,-0.1339 -0.2189,-0.3266 -0.3828,-0.4248 -0.1639,-0.0982 -0.3647,-0.1145 -0.533,-0.2002 0.077,-0.2915 0.5812,-0.4378 0.8439,-0.3947 0.2102,0.0351 0.2214,0.2102 0.359,0.3472 0.1639,0.1633 0.3816,0.2077 0.5993,0.2596 0.3118,0.0702 0.6314,0.0996 0.9508,0.0876 -0.1751,0.0081 -0.3084,-0.1658 -0.1251,-0.269 0.082,-0.0457 0.2021,0.0088 0.2871,-0.0231 -0.2095,-0.0501 -0.4272,0.0844 -0.6393,0.0856 -0.2183,-0.0058 -0.4336,-0.0531 -0.6343,-0.1394 -0.3127,-0.1252 -0.6943,-0.2071 -0.688,-0.6006 0.0125,-0.7825 1.2285,-1.0415 1.8384,-1.0458 0.4153,-0.0038 0.7625,0.1082 1.0559,0.4116 0.2602,0.2683 0.4185,0.6468 0.8332,0.6993 0.426,0.0544 0.5448,-0.4879 0.5117,-0.8213 -0.0382,-0.3922 -0.2965,-0.7206 -0.5918,-0.9652 -0.7237,-0.5999 -1.7671,-0.4823 -2.6272,-0.3159 -0.3365,0.0657 -0.6606,0.1739 -0.9345,0.4009 -0.3754,0.3128 -0.8264,0.3222 -1.2749,0.2596 -0.1741,-0.0242 -0.3516,-0.0027 -0.5148,0.0626 -0.0798,0.0285 -0.1508,0.0772 -0.2062,0.1412 -0.0554,0.0641 -0.0933,0.1414 -0.11,0.2245 -0.0166,0.083 -0.0116,0.169 0.0148,0.2495 0.0263,0.0805 0.0731,0.1528 0.1356,0.2099 0.2784,0.2502 0.563,0.4923 0.6994,0.862 0.04,0.0969 0.1032,0.1839 0.03,0.2896 z"
       fill="#c4c3c6"
       id="path3903" />
    <path
       d="m 23.9377,40.114 c -0.1409,-0.0247 -0.2738,-0.0831 -0.3873,-0.1703 -0.1135,-0.0871 -0.2042,-0.2004 -0.2645,-0.3302 -0.172,-0.3521 -0.2389,-0.9758 0.2903,-1.0215 0.2314,-0.02 0.4691,0.0982 0.6962,0.1314 0.6255,0.0894 1.3417,-0.0732 1.7565,-0.5774 0.3865,-0.4697 0.3753,-1.1428 0.755,-1.6151 0.3916,-0.4867 1.2748,-0.6024 1.5838,0.0394 0.269,0.5599 -0.0988,1.146 -0.3127,1.6533 -0.1971,0.4604 -0.5824,1.866 -1.3631,1.4744 -0.4378,-0.219 0.1677,-0.6256 0.1076,-0.8977 -0.1795,-0.0262 -0.3177,0.1083 -0.4704,0.1752 -0.1876,0.0832 -0.4016,0.1076 -0.5867,0.2027 -0.1852,0.095 -0.3341,0.242 -0.4867,0.3803 -0.3659,0.3271 -0.7963,0.6512 -1.318,0.5555 z"
       fill="#ffffff"
       id="path3905" />
    <path
       d="m 21.0409,36.1272 c 0.0219,0.0062 0.0463,0.0125 0.0726,0.0181 0.2421,0.0482 0.4235,0.0119 0.5517,0.2646 0.0824,0.1852 0.0909,0.3949 0.0238,0.5861 -0.1808,0.5342 -0.7638,0.4454 -1.1523,0.1921 -0.8638,-0.563 -0.9576,-1.7396 -1.2229,-2.6423 -0.2033,-0.6918 -0.4078,-1.403 -0.7012,-2.0642 -0.1301,-0.2915 -0.5724,-0.7507 -0.3966,-1.0928 0.2771,-0.543 0.6731,0.3709 0.7613,0.5673 0.2502,0.5511 0.568,1.0597 0.8995,1.5638 0.3315,0.5042 0.7288,0.9796 1.0165,1.5013 0.1407,0.2546 0.1207,0.3947 0.0206,0.6525 -0.09,0.232 -0.1019,0.3828 0.127,0.4535 z"
       fill="#c4c3c6"
       id="path3907" />
    <path
       d="m 35.7906,30.6242 c 0.0038,0.0294 0.0075,0.0575 0.01,0.0838 0.0732,0.6662 0.5004,1.6589 -0.329,1.9767 -0.2915,0.112 -1.9116,0.1683 -1.9886,-0.1877 -0.07,-0.3234 0.7,-0.7631 0.8401,-1.0371 0.2721,-0.5329 -0.0575,-1.5926 0.6187,-1.8872 0.6155,-0.2659 0.79,0.5773 0.8488,1.0515 z"
       fill="#c4c3c6"
       id="path3909" />
    <path
       d="m 32.1742,17.1059 c -0.0094,-0.2983 0.1489,-0.6205 0.2434,-0.8895 0.1689,-0.4779 0.2233,-0.9195 0.247,-1.4212 0.284,0.0094 0.8714,0.1076 0.6881,-0.4466 -0.1219,-0.3653 -0.6186,-0.2289 -0.8319,-0.5305 -0.2721,-0.3847 -0.0845,-1.9022 0.5498,-1.6676 0.4723,0.1745 0.5392,1.2992 0.543,1.7077 0.0056,0.5442 -0.1633,1.0252 -0.3522,1.5263 -0.1583,0.4191 -0.2934,0.6524 0.2396,0.6111 -0.0957,0.4523 -0.8132,1.243 -1.1935,1.4882 -0.0843,-0.1082 -0.1311,-0.2408 -0.1333,-0.3779 z"
       fill="#c4c3c6"
       id="path3911" />
    <path
       d="m 18.4824,37.8315 c -0.0957,-1.005 -0.0957,-2.0169 0,-3.0219 0.1351,0.8025 0.5292,1.5012 0.9026,2.215 0.192,0.3477 0.3548,0.7107 0.4867,1.0853 0.0876,0.2671 0.1126,0.6512 0.4197,0.7631 0.2772,0.1014 0.5699,-0.1088 0.8545,-0.0406 0.274,0.0657 0.3954,0.3909 0.1401,0.563 -0.2145,0.1451 -0.6468,0.1688 -0.8932,0.1976 -0.2121,0.0257 -0.4148,0.0463 -0.6087,0.1445 -0.1595,0.0813 -0.2927,0.2039 -0.4691,0.2502 -0.4742,0.132 -0.7969,-0.329 -0.9765,-0.7087 -0.1939,-0.4116 -0.1876,-0.9427 0.1095,-1.3074 0.3753,0.3672 -0.0088,1.8141 0.9877,1.4932 0.3841,-0.1251 0.1157,-0.7719 0.0551,-1.0634 -0.0607,-0.2915 -0.1664,-1.0634 -0.446,-1.2411 -0.3353,-0.2102 -0.254,0.6149 -0.5624,0.6712 z"
       fill="#c4c3c6"
       id="path3913" />
    <path
       d="m 18.5397,37.8633 c 0.0219,-0.0888 0.045,-0.1783 0.0625,-0.2684 0.0626,-0.2777 0.1777,-0.9007 0.5911,-0.5867 0.2459,0.1877 0.3016,0.6205 0.3491,0.9026 0.039,0.2758 0.0935,0.5492 0.1633,0.8189 0.0625,0.2164 0.192,0.4785 0.0625,0.6962 -0.1789,0.3084 -0.6712,0.2277 -0.9283,0.0732 -0.3597,-0.2171 -0.4216,-0.6637 -0.4028,-1.049 0.0152,-0.1985 0.0496,-0.395 0.1026,-0.5868 z"
       fill="#ffffff"
       id="path3915" />
    <path
       d="m 14.4597,7.0842 c 0.0569,0 0.0888,0.10071 0.1251,0.1445 0.0245,0.02844 0.0559,0.05011 0.0912,0.06292 0.0352,0.01282 0.0732,0.01635 0.1102,0.01027 C 14.9526,7.28187 15.099,7.15614 15.2535,7.10422 15.408,7.0523 15.58,6.95284 15.7477,6.97348 c 0.1395,0.01752 0.1958,0.12511 0.1251,0.24584 -0.0757,0.13323 -0.2289,0.2133 -0.2283,0.38532 -0.0023,0.03185 0.0032,0.06377 0.0162,0.09296 0.0129,0.02918 0.0329,0.05473 0.058,0.07439 0.0252,0.01965 0.0548,0.03282 0.0863,0.03832 0.0314,0.00551 0.0637,0.00319 0.0941,-0.00675 0.152,-0.03815 0.2564,-0.18015 0.4134,-0.21268 0.1314,-0.02752 0.3629,0.04254 0.3704,0.20643 0.0087,0.17577 -0.2377,0.20955 -0.3585,0.25021 -0.0975,0.03253 -0.2927,0.15076 -0.0994,0.19517 0.0901,0.02064 0.2877,0.00938 0.2502,0.15513 -0.0375,0.14575 -0.2734,0.2621 -0.4041,0.3184 -0.3753,0.16013 -0.7632,0.07193 -1.151,0.14012 -0.1576,0.02752 -0.3171,0.08132 -0.3909,0.2352 -0.0445,0.0907 -0.0826,0.28086 0.0075,0.35905 0.1201,0.10509 0.3409,-0.06693 0.4503,-0.1201 0.0872,-0.03581 0.1692,-0.08292 0.244,-0.14012 0.0557,-0.04691 0.1063,-0.11322 0.1877,-0.10947 0.1301,0.00563 0.1632,0.16827 0.2051,0.26398 0.072,0.16139 0.1927,0.32903 0.1026,0.50918 -0.0158,0.03797 -0.04,0.07192 -0.0706,0.0994 C 15.6252,9.98095 15.5889,10.0013 15.5494,10.0129 15.5156,9.82529 15.5225,9.57507 15.2911,9.51252 15.049,9.44997 14.8763,9.69017 14.6655,9.75022 14.2076,9.87846 14.314,9.12469 14.2958,8.88511 14.2868,8.73565 14.232,8.59259 14.1388,8.47539 14.0688,8.38594 14.0006,8.26396 14.1332,8.19139 14.354,8.07129 14.618,8.3703 14.7906,8.46663 14.9783,8.57172 15.3255,8.69432 15.5413,8.62239 15.7571,8.55045 15.5932,8.40283 15.4818,8.33464 15.353,8.2552 15.2079,8.20953 15.079,8.12759 15.0371,8.10132 14.9645,8.06504 14.9539,8.01124 14.9433,7.95744 14.9902,7.92241 15.029,7.88613 15.1339,7.77281 15.2293,7.65105 15.3142,7.52207 15.3605,7.46754 15.3985,7.4064 15.4268,7.34067 15.1935,7.23058 14.8776,7.39071 14.6468,7.43825 14.5673,7.45452 14.4316,7.49518 14.3803,7.40823 14.3359,7.33191 14.344,7.1724 14.4134,7.11047 14.4255,7.09677 14.4418,7.08752 14.4597,7.0842 Z"
       fill="#c4c3c6"
       id="path3917" />
    <path
       d="m 26.7113,4.09584 c -0.0464,0.01438 -0.0936,0.02608 -0.1413,0.03503 -0.1064,0.02126 -0.6756,0.15638 -0.7106,0 -0.0257,-0.11385 0.4735,-0.45977 0.5542,-0.56298 0.3453,-0.44351 0.3753,-1.11408 0.867,-1.44561 0.3065,-0.20643 1.0677,-0.3478 1.0509,0.22206 C 28.3196,2.7378 27.8404,2.9361 27.5846,3.15754 27.4107,3.30704 27.33,3.50346 27.2149,3.69612 27.1614,3.79261 27.0894,3.87758 27.003,3.94618 26.9165,4.01477 26.8174,4.06563 26.7113,4.09584 Z"
       fill="#ffffff"
       id="path3919" />
    <path
       d="m 11.0108,15.824 c 0.0231,0.2471 -0.0244,0.5192 0.0437,0.7469 0.0957,0.3209 0.4204,0.6167 0.3841,0.972 -0.0363,0.3553 -0.3321,0.3078 -0.4429,0.0244 -0.1319,-0.3403 -0.1376,-0.7506 -0.2126,-1.1078 -0.0526,-0.2502 -0.2021,-0.8576 0.1082,-0.9927 0.072,0.1058 0.1133,0.2294 0.1195,0.3572 z"
       fill="#c4c3c6"
       id="path3921" />
    <path
       d="m 11.1985,19.812 c -0.2396,-0.0569 -0.3916,-0.2564 -0.3128,-0.5141 0.0744,-0.2503 -0.1426,-0.7169 0.2677,-0.7044 0.2596,0.0081 0.5943,0.3128 0.5787,0.705 -0.0163,0.2871 -0.127,0.5379 -0.5336,0.5135 z"
       fill="#c4c3c6"
       id="path3923" />
    <path
       d="m 28.5407,13.6299 c 0.1114,0 0.1989,0.0363 0.2052,0.1201 0.0062,0.0951 -0.2659,0.2846 -0.3378,0.319 -0.1082,0.0519 -0.319,0.0782 -0.3572,-0.0788 -0.0513,-0.2133 0.2671,-0.3603 0.4898,-0.3603 z"
       fill="#c4c3c6"
       id="path3925" />
    <path
       d="m 28.5162,15.1436 c -0.2973,0.1074 -0.617,0.1371 -0.9289,0.0863 -0.1395,-0.02 -0.4035,-0.0657 -0.5005,-0.1695 -0.237,-0.2446 0.5593,-0.0701 0.6581,-0.0532 0.2533,0.0451 0.5173,0.0701 0.7713,0.1364 z"
       fill="#c4c3c6"
       id="path3927" />
    <path
       d="M 10.236,6.12305 C 10.1284,6.44707 10.0206,6.77152 9.9126,7.09638 10.0189,6.77068 10.1267,6.44624 10.236,6.12305 Z"
       fill="#c4c3c6"
       id="path3929" />
    <path
       d="M 14.0259,1.08154 13.6274,1.30173 Z"
       fill="#c4c3c6"
       id="path3931" />
    <path
       d="m 15.8337,0.262695 -0.3191,0.12886 z"
       fill="#c4c3c6"
       id="path3933" />
    <path
       d="m 22.0828,23.0752 -0.2683,0.0213 z"
       fill="#c4c3c6"
       id="path3935" />
    <path
       d="m 22.7707,23.1062 -0.1877,-0.03 z"
       fill="#c4c3c6"
       id="path3937" />
    <path
       d="M 9.80581,7.43701 9.76953,7.57275 Z"
       fill="#c4c3c6"
       id="path3939" />
    <path
       d="M 14.2098,0.952637 14.0659,1.05335 Z"
       fill="#c4c3c6"
       id="path3941" />
    <path
       d="M 18.6139,5.34587 C 18.7728,4.91926 19.3258,4.41383 19.5003,4.19864 19.6661,3.99472 19.9476,3.61627 19.6517,3.40296 19.3389,3.17777 18.983,3.57936 18.659,3.5606 c 0.0412,0 0.1876,-0.41598 0.2139,-0.46602 0.0789,-0.15767 0.206,-0.28607 0.3628,-0.36657 0.4122,-0.20642 0.9083,-0.0982 1.3436,-0.21143 0.4485,-0.11697 0.7751,-0.17702 1.0903,0.2302 0.1358,0.17515 0.2402,0.35906 0.3929,0.52107 0.1376,0.14575 0.2777,0.26648 0.3303,0.46852 0.0888,0.34342 -0.1596,0.82821 0.1126,1.11595 0.2858,-0.17139 0.349,-0.61927 0.3396,-0.92328 -0.005,-0.1689 -0.1933,-0.7938 0.1395,-0.79005 0.2233,0 0.2402,0.41848 0.3265,0.56298 0.1758,0.2915 0.5336,0.2696 0.8326,0.27148 0.5036,0.00313 1.2961,-0.02252 1.4663,0.58487 0.1876,0.66495 -0.5217,0.91328 -1.0372,0.9921 -0.5191,0.07294 -1.0338,0.17422 -1.5419,0.30338 -0.152,0.04066 -0.4135,0.17265 -0.563,0.07694 C 22.2977,5.82315 22.4053,5.60672 22.3302,5.45659 22.0625,5.50601 21.8855,5.76185 21.624,5.82753 21.5545,5.38966 22.1526,4.79665 21.7628,4.41383 21.2662,3.92779 20.1959,4.22617 19.7374,4.60649 19.4465,4.84795 19.3621,5.15821 19.2151,5.48724 19.1243,5.68616 18.8791,6.06336 18.6521,5.78312 18.5501,5.66114 18.5532,5.50913 18.6139,5.34587 Z"
       fill="#000000"
       id="path3943" />
    <path
       d="m 29.6978,-2.12465 c 0.0084,0.00783 0.0147,0.01768 0.0183,0.02861 0.0036,0.01094 0.0044,0.02262 0.0023,0.03394 -0.0031,0.07006 -0.1251,0.11072 -0.1664,0.152 -0.1676,0.16827 -0.1526,0.41786 -0.0363,0.6099 0.214,0.354676 0.6819,0.461016 0.8489,0.855102 0.0775,0.18203 0.0857,0.4797843 -0.1714,0.5104354 C 29.9936,0.0891075 29.7597,-0.126076 29.5758,-0.184876 29.086,-0.343136 28.5486,-0.216778 28.0989,0.00278401 27.6449,0.217562 27.2703,0.570247 27.0286,1.01052 c -0.0869,0.16451 -0.3528,1.10844 -0.6843,0.83446 -0.2984,-0.24584 0.152,-0.922663 0.289,-1.131591 0.2979,-0.442553 0.6395,-0.854125 1.0196,-1.228547 0.511,-0.516062 1.0715,-1.053402 1.6758,-1.461872 0.0381,-0.02502 0.2934,-0.20455 0.3691,-0.14762 z"
       fill="#ffffff"
       id="path3945" />
    <path
       d="M 31.2402,0.256888 C 31.0651,1.34969 30.5609,1.87201 29.455,1.48544 29.1322,1.37284 28.7913,1.31091 28.4685,1.19832 28.3284,1.14952 28.2133,1.0313 28.0869,0.948102 28.1701,0.84051 28.2377,0.714153 28.3371,0.628455 c 0.8088,-0.6805801 1.8041,-0.414729 2.7267,-0.516065 0.0651,-0.010008 0.142,0.113847 0.1764,0.144498 z"
       fill="#000000"
       id="path3947" />
    <path
       d="m 21.9573,24.9839 c -0.135,-0.0332 -0.2648,-0.0845 -0.386,-0.1526 -0.1251,-0.0732 -0.3753,-0.1958 -0.3509,-0.3754 0.0394,-0.3346 0.4423,-0.1213 0.6062,-0.0894 0.1732,0.0331 0.3127,-0.0275 0.4822,-0.0557 0.3541,-0.0575 0.715,-0.0256 1.071,-0.0087 0.3559,0.0168 0.7181,0.0287 1.0634,-0.0664 0.3453,-0.095 0.6036,-0.4297 0.9345,-0.4791 0.2502,-0.0369 0.6837,-0.01 0.5868,0.3365 -0.0807,0.2878 -0.4955,0.7119 -0.7457,0.8595 -0.3603,0.2133 -0.7756,0.1689 -1.1729,0.1251 -0.4253,-0.0475 -0.8244,0.0501 -1.2385,0.0207 -0.2862,-0.0125 -0.5708,-0.0508 -0.8501,-0.1145 z"
       fill="#000000"
       id="path3949" />
    <path
       d="M 32.8415,2.37016 C 33.0386,2.49527 32.0997,2.68293 32.0158,2.67605 31.6768,2.65353 31.3547,2.53343 31.0181,2.49214 30.6653,2.44835 30.3056,2.50215 29.9585,2.40707 29.824,2.37016 29.6457,2.37329 29.7051,2.18563 c 0.0532,-0.17327 0.1082,-0.37532 0.3803,-0.38095 0.735,-0.01939 1.4688,-0.07694 2.2038,-0.0907 0.4679,-0.00876 0.3084,0.49855 0.5523,0.65618 z"
       fill="#ffffff"
       id="path3951" />
    <path
       d="M 23.7889,2.87501 C 23.6964,2.60603 23.9141,2.31203 24.0548,2.10873 24.1955,1.90543 24.2831,1.53074 23.9722,1.4294 23.6613,1.32807 23.5118,1.7528 23.2216,1.7528 c -0.182,0 -0.5336,-0.22581 -0.5148,-0.43787 0.0325,-0.358431 0.805,-0.18766 1.0227,-0.21518 0.3503,-0.04567 0.7682,-0.23708 1.1185,-0.09133 0.4378,0.18203 -0.1589,0.71811 -0.3128,0.90702 -0.1539,0.18891 -0.1914,0.37032 -0.2389,0.6099 -0.0288,0.14512 -0.2065,0.7719 -0.4379,0.4729 C 23.8291,2.96096 23.8056,2.9194 23.7889,2.87501 Z"
       fill="#ffffff"
       id="path3953" />
    <path
       d="M 21.766,1.09346 C 21.5983,1.0575 21.4413,0.982964 21.3074,0.875779 21.1861,0.781323 20.9809,0.607425 20.959,0.444786 c -0.03,-0.22957 0.1733,-0.257094 0.3566,-0.18766 0.3503,0.133865 0.4704,0.64555 0.8795,0.669321 0.3984,0.023144 0.5204,-0.531703 0.8757,-0.644299 0.4416,-0.140745 0.6068,0.250213 0.2621,0.526073 C 23.0258,1.05843 22.5385,1.09034 22.1607,1.11598 22.0287,1.12682 21.8959,1.11924 21.766,1.09346 Z"
       fill="#000000"
       id="path3955" />
    <path
       d="m 24.5729,2.5192 c 0.0377,-0.23294 0.1104,-0.45882 0.2158,-0.66995 0.082,-0.15326 0.2771,-0.52357 0.4929,-0.36969 0.1595,0.11447 0.1351,0.51857 0.1132,0.68809 -0.0381,0.28586 -0.1363,0.68808 -0.4622,0.77003 -0.3259,0.08194 -0.3954,-0.1445 -0.3597,-0.41848 z"
       fill="#000000"
       id="path3957" />
    <path
       d="m 16.7026,14.4808 c -0.1382,-0.6675 -1.0358,-0.8257 -1.0415,-1.6214 0,-0.3409 0.2058,-0.4673 0.3603,-0.4517 1.3193,0.1327 2.3689,-0.8081 3.64,-0.8757 0.964,-0.0488 1.8041,0.0901 2.377,0.9671 0.2834,0.4341 0.254,0.8632 0.0263,1.2942 -0.0625,0.1145 -0.1833,0.2777 -0.2777,0.2777 -0.4204,0 -0.7638,-0.1651 -0.9915,-0.5536 -0.4829,-0.8232 -2.2632,-0.8469 -2.7523,-0.0281 -0.0889,0.1476 -0.0982,0.5261 -0.0451,0.5473 0.4316,0.1708 0.8852,0.3691 1.3362,0.3797 0.284,0.0069 0.5704,-0.0625 0.9276,0.0832 l -0.8132,0.167 c 0,0.0213 -0.0062,0.0495 -0.0206,0.0551 -0.416,0.1514 -1.2886,-0.1383 -1.5463,-0.5123 -0.3854,-0.1339 -0.6581,0.1839 -0.994,0.2502 z"
       fill="#000000"
       id="path3959" />
    <path
       d="M 16.5152,8.32517 C 16.2857,8.48968 16.0774,8.42525 15.8797,8.26261 15.682,8.09998 15.7996,8.04993 15.9585,8.00427 L 16.5378,7.836 c 0.0625,-0.01689 0.1695,-0.0907 0.2258,-0.03565 0.1401,0.13699 -0.1489,0.45476 -0.2484,0.52482 z"
       fill="#000000"
       id="path3961" />
    <path
       d="m 26.6728,18.1749 c -0.2114,-0.2546 -0.1876,-0.6256 -0.1564,-0.9684 0.1389,-1.5532 1.9936,-1.4193 2.9982,-0.7537 -0.1839,0.6987 -0.6374,1.7102 -1.3543,2.0017 -0.3953,0.1595 -0.917,0.0913 -1.2854,-0.1126 -0.0774,-0.0424 -0.1459,-0.0991 -0.2021,-0.167 z"
       fill="#ffffff"
       id="path3963" />
    <path
       d="m 21.9575,24.9907 1.0634,0.1101 c -0.3753,0.1827 -0.7206,0.0275 -1.0634,-0.1101 z"
       fill="#c4c3c6"
       id="path3965" />
    <path
       d="m 19.3467,15.4398 c 0.0438,-0.0501 0.4441,-0.1664 0.5479,-0.299 0.0626,-0.0814 0.1377,-0.2215 0.2384,-0.2609 0.1007,-0.0394 0.5048,0.1351 0.5598,0.0438 -0.2946,0.4867 -0.8676,0.4104 -1.3461,0.5161 z"
       fill="#000000"
       id="path3967" />
    <path
       d="m 17.8828,14.2129 c 0.4541,0.3859 0.9965,0.4691 1.5638,0.4573 l 0.488,0.0256 c -0.7407,0.0895 -1.5307,0.3484 -2.0518,-0.4829 z"
       fill="#ffffff"
       id="path3969" />
    <path
       d="m 35.6728,31.9459 c 0.0256,0.3241 -0.3284,0.8026 -0.5961,0.4254 0.0194,0.0275 0.1044,-0.7131 0.1695,-0.7506 0.2058,-0.1114 0.3609,0.0838 0.4122,0.2458 0.0076,0.0259 0.0124,0.0525 0.0144,0.0794 z"
       fill="#ffffff"
       id="path3971" />
    <path
       d="m 17.7036,13.2817 c 0.5042,-0.648 1.0634,-0.7475 1.6783,-0.6105 z"
       fill="#c4c3c6"
       id="path3973" />
  </g>
  <path
     d="m 29.825652,31.910433 c -10.3093,0 -18.66667,-8.3574 -18.66667,-18.6667 H 0.4923216 c 0,16.2004 13.1329804,29.3333 29.3333304,29.3333 z m 18.6667,-18.6667 c 0,10.3093 -8.3574,18.6667 -18.6667,18.6667 v 10.6666 c 16.2004,0 29.3333,-13.1329 29.3333,-29.3333 z m -18.6667,-18.6666702 c 10.3093,0 18.6667,8.35736 18.6667,18.6666702 h 10.6666 c 0,-16.2003502 -13.1329,-29.3333 -29.3333,-29.3333 z m 0,-10.6666298 c -16.20035,0 -29.3333304,13.1329498 -29.3333304,29.3333 H 11.158982 c 0,-10.3093102 8.35737,-18.6666702 18.66667,-18.6666702 z"
     fill="#000000"
     id="path3977" />
  <defs
     id="defs3985">
    <clipPath
       id="clip0">
      <path
         d="M72 47.5C72 30.103 86.103 16 103.5 16V16C120.897 16 135 30.103 135 47.5V47.5C135 64.897 120.897 79 103.5 79V79C86.103 79 72 64.897 72 47.5V47.5Z"
         fill="white"
         id="path3979" />
    </clipPath>
    <clipPath
       id="clip1">
      <path
         d="M0 13C0 -0.254834 10.7452 -11 24 -11V-11C37.2548 -11 48 -0.254834 48 13V13C48 26.2548 37.2548 37 24 37V37C10.7452 37 0 26.2548 0 13V13Z"
         fill="white"
         id="path3982" />
    </clipPath>
  </defs>
</svg>
