<?xml version="1.0" encoding="UTF-8" standalone="no"?>
<svg
   xmlns:dc="http://purl.org/dc/elements/1.1/"
   xmlns:cc="http://creativecommons.org/ns#"
   xmlns:rdf="http://www.w3.org/1999/02/22-rdf-syntax-ns#"
   xmlns:svg="http://www.w3.org/2000/svg"
   xmlns="http://www.w3.org/2000/svg"
   xmlns:sodipodi="http://sodipodi.sourceforge.net/DTD/sodipodi-0.dtd"
   xmlns:inkscape="http://www.inkscape.org/namespaces/inkscape"
   width="338"
   height="70"
   viewBox="0 0 338 70"
   fill="none"
   version="1.1"
   id="svg3413"
   sodipodi:docname="fm-avatars-bg-left-alt.svg"
   inkscape:version="1.0.1 (1.0.1+r74)">
  <metadata
     id="metadata3417">
    <rdf:RDF>
      <cc:Work
         rdf:about="">
        <dc:format>image/svg+xml</dc:format>
        <dc:type
           rdf:resource="http://purl.org/dc/dcmitype/StillImage" />
      </cc:Work>
    </rdf:RDF>
  </metadata>
  <sodipodi:namedview
     pagecolor="#ffffff"
     bordercolor="#666666"
     borderopacity="1"
     objecttolerance="10"
     gridtolerance="10"
     guidetolerance="10"
     inkscape:pageopacity="0"
     inkscape:pageshadow="2"
     inkscape:window-width="1528"
     inkscape:window-height="1122"
     id="namedview3415"
     showgrid="false"
     inkscape:zoom="3.9852071"
     inkscape:cx="189.07424"
     inkscape:cy="35"
     inkscape:window-x="72"
     inkscape:window-y="41"
     inkscape:window-maximized="1"
     inkscape:current-layer="svg3413" />
  <g
     clip-path="url(#clip0)"
     id="g3360"
     transform="translate(-5.8104593,5.7313858)">
    <path
       d="M 290,24 C 290,10.7452 300.745,0 314,0 v 0 c 13.255,0 24,10.7452 24,24 v 0 c 0,13.2548 -10.745,24 -24,24 v 0 C 300.745,48 290,37.2548 290,24 Z"
       fill="#ff3861"
       id="path3308" />
    <g
       clip-path="url(#clip1)"
       id="g3358">
      <path
         d="m 324.025,61.5 c -5.807,0 -11.461,-1.157 -17.445,-2.3794 -3.657,-0.7479 -7.438,-1.5215 -11.405,-2.0545 l -0.054,-0.0075 c -1.512,-0.2024 -5.053,-0.6777 -6.774,-3.4612 -1.101,-1.7793 -1.467,-4.6132 -0.032,-6.5918 0.639,-0.8801 1.363,-1.162 2.2,-1.4876 0.413,-0.1603 0.874,-0.3413 1.482,-0.6347 1.166,-0.5628 1.582,-0.919 2.212,-1.4579 0.629,-0.5388 1.394,-1.1925 3.043,-2.2016 0.31,-0.1901 0.62,-0.3728 0.947,-0.5662 1.197,-0.7082 2.435,-1.4405 3.778,-2.5545 0.306,-0.2538 0.876,-0.7265 1.086,-1.4546 0.141,-0.4909 0.088,-0.9876 0.041,-1.4248 -0.02,-0.1851 -0.072,-0.6752 -0.508,-1.8504 -0.306,-0.88 -0.691,-1.7306 -1.15,-2.5414 -0.289,-0.5173 -0.629,-1.0051 -1.013,-1.4562 -0.441,-0.5066 -0.809,-1.0724 -1.093,-1.681 -0.221,-0.462 -0.433,-1.2066 -0.899,-2.8389 -0.79,-2.7694 -1.008,-3.8323 -0.355,-4.881 0.426,-0.6686 1.066,-1.1726 1.815,-1.4298 0.211,-0.0704 0.428,-0.1178 0.649,-0.1413 l -0.063,-0.1653 c -0.046,-0.1198 -0.089,-0.2322 -0.125,-0.3306 -0.94,-2.6661 0.133,-5.2331 0.851,-6.9356 1.584,-3.76285 4.69,-5.59924 5.71,-6.19842 3.036,-1.80002 5.821,-1.97853 7.317,-2.0744 0.539,-0.03471 1.15,-0.07438 1.812,-0.07438 1.937,0 3.577,0.34959 5.155,1.10084 2.27,1.081 3.583,2.62565 4.291,3.45623 0.887,1.04299 2.371,2.78846 2.909,5.34053 0.442,2.0951 0.108,4.1133 -0.113,5.448 -0.007,0.0413 -0.014,0.0827 -0.021,0.1256 0.26,0.0091 0.514,0.0775 0.743,0.2 l 0.413,0.2199 0.165,0.4397 c 0.903,2.4443 0.939,5.1253 0.103,7.5934 -0.091,0.2628 -0.192,0.5215 -0.307,0.7885 -0.451,1.138 -1.138,2.1438 -1.802,3.1157 -0.377,0.5512 -0.732,1.0744 -1.044,1.6108 -0.307,0.5866 -0.582,1.1891 -0.825,1.8049 -0.106,0.2554 -0.216,0.519 -0.33,0.781 -0.115,0.262 -0.197,0.4612 -0.267,0.6372 -0.285,0.7099 -0.311,0.9166 -0.32,1.1719 -0.012,0.3166 -0.035,0.9761 0.312,1.5372 0.254,0.4133 0.584,0.5786 1.503,0.9918 0.233,0.105 0.495,0.224 0.783,0.3612 0.309,0.1402 0.604,0.3107 0.879,0.509 0.343,0.2348 1.056,0.7232 3.192,2.0298 0.851,0.5199 1.485,0.9017 2,1.2083 1.467,0.8793 1.862,1.1157 2.422,1.7719 0.997,1.1678 1.365,2.3554 1.974,4.3224 1.104,3.5628 1.712,5.5257 0.86,7.4761 -1.188,2.7199 -4.539,3.5116 -5.966,3.8496 -2.807,0.662 -5.663,0.9835 -8.736,0.9835 z"
         fill="#000000"
         id="path3310" />
      <path
         d="m 302.898,23.3357 c -0.116,0.024 -0.255,-0.0272 -0.464,-0.2115 -0.375,-0.3306 -0.572,-0.8372 -0.99,-1.1191 -0.419,-0.2818 -1.094,-0.252 -1.431,-0.6768 0.233,-0.4331 0.903,-0.7802 1.38,-0.5562 0.477,0.2239 0.528,1.0901 1.025,1.2124 0.517,0.1264 0.248,-0.7273 0.321,-1.0471 0.14,-0.6191 0.33,-1.0992 0.377,-1.7455 0.047,-0.6463 0.4,-1.0901 0.536,-1.6885 0.046,-0.2041 0.082,-0.5231 -0.171,-0.6223 -0.326,-0.1289 -0.284,0.1719 -0.442,0.3215 -1.066,1.0083 -1.138,-1.8637 -1.073,-2.3025 0.375,-2.5918 1.953,-4.7166 3.887,-6.39511 1.98,-1.71654 4.382,-2.94714 6.977,-3.3678 2.567,-0.41323 5.821,-0.23224 8.169,1.00579 0.463,0.24794 0.917,0.57108 1.064,1.10084 0.146,0.52976 -0.056,1.08596 -0.038,1.62151 0.028,0.87191 0.788,1.07026 1.21,1.70747 0.455,0.6851 0.408,1.8182 0.548,2.6165 0.055,0.3157 0.066,0.5893 -0.056,0.8901 -0.114,0.281 -0.517,0.6058 -0.477,0.9224 0.04,0.3165 0.888,0.6132 0.76,0.8934 -0.078,0.1719 -0.642,0.0685 -0.791,0.1305 -0.444,0.181 -0.19,0.4414 0.175,0.5736 0.675,0.2479 0.942,0.5207 0.651,1.2397 -0.076,0.1425 -0.115,0.3019 -0.114,0.4636 -0.02,0.2207 -0.059,0.4393 -0.114,0.6537 -0.029,0.1257 -0.043,0.5224 -0.122,0.6067 -0.113,0.1198 -0.551,0.1074 -0.71,0.1231 -0.88,0.0876 -1.78,-0.0099 -2.655,0.1322 -0.714,0.1157 -1.445,0.4736 -2.182,0.3802 -0.232,-0.0297 -0.756,-0.1521 -0.681,-0.4818 0.055,-0.2438 0.68,-0.3075 0.876,-0.4422 0.347,-0.2388 0.743,-0.4363 1.08,-0.695 0.336,-0.2587 0.482,-0.6504 -0.112,-0.6133 -0.578,0.0356 -1.156,0.6835 -1.651,0.9463 -0.772,0.4133 -1.425,0.2356 -2.252,0.2281 -0.459,-0.0041 -1.459,0.4959 -0.7,0.862 0.647,0.3133 1.114,0.2595 1.592,0.9141 0.589,0.8066 0.567,1.4579 0.065,2.2777 -0.319,0.5215 -0.521,1.157 -0.425,1.7769 0.04,0.2661 0.131,0.543 0.369,0.6934 0.107,-0.2868 0.099,-1.005 0.483,-1.0942 0.418,-0.0967 0.527,0.552 0.594,0.8314 0.083,0.3264 0.316,1.0991 -0.158,1.252 -0.406,0.1314 -0.642,-0.471 -0.901,-0.6653 -0.448,0.5141 -0.132,1.3571 -0.153,1.9645 -0.021,0.6504 -0.267,1.262 -0.796,1.6612 -0.716,0.538 -1.503,0.5157 -2.284,0.1653 -0.743,-0.3306 -1.334,-0.3091 -2.11,-0.0645 0.096,0.5662 0.125,0.5728 -0.203,1.0579 -0.329,0.4851 -0.606,1.0355 -0.908,1.5521 -0.424,0.7322 -0.728,1.9008 -1.705,2.0025 -1.169,0.1215 -1.313,-0.5504 -1.584,-1.4876 -0.147,-0.5083 -0.258,-0.9496 -0.281,-1.4786 -0.018,-0.4132 -0.009,-0.9041 -0.261,-1.252 -0.592,-0.8133 -0.967,0.2859 -0.936,0.8223 0.028,0.4958 0.177,1.1413 0.471,1.5471 0.146,0.2025 0.346,0.3372 0.464,0.5653 0.125,0.2479 0.175,0.5306 0.282,0.7851 0.214,0.5066 0.436,0.9653 0.544,1.51 0.082,0.4223 0.123,0.9479 0.422,1.2851 0.182,0.2041 0.645,0.2835 0.709,0.5686 0.088,0.3926 -0.449,0.5041 -0.517,0.8265 -0.129,0.5967 0.642,0.5785 1.004,0.5487 0.565,-0.0487 1.269,-0.1545 1.793,0.1289 0.222,0.1207 0.351,0.3463 0.56,0.4827 0.247,0.1653 0.54,0.1959 0.825,0.2421 0.725,0.118 1.458,0.1887 2.192,0.2116 -0.98,-0.1711 -0.714,-1.4876 0.282,-1.1752 0.463,0.1463 1.02,0.8438 1.534,0.4273 0.206,-0.1653 0.196,-0.4364 0.28,-0.667 0.098,-0.2694 0.341,-0.5231 0.33,-0.8223 -0.018,-0.7785 -1.343,-1.4711 -1.988,-1.6124 -0.721,-0.1587 -1.926,0.6182 -2.516,0.0074 -0.458,-0.4744 0.186,-0.857 0.613,-0.9388 0.37,-0.0719 0.589,0.0504 0.919,0.1868 0.376,0.1553 0.755,0.1446 1.146,0.2355 -0.307,-0.2132 0.165,-0.4463 0.362,-0.4959 0.338,-0.0785 0.742,0.0248 1.086,0.019 0.833,-0.0132 1.486,0.043 2.289,0.267 0.314,0.0876 0.93,0.2215 1.02,-0.2232 0.13,-0.6421 -0.779,-0.957 -1.232,-1.0124 -0.471,-0.057 -1.138,0.0397 -1.521,-0.3182 -0.503,-0.4686 0.156,-0.9653 0.564,-1.1958 0.557,-0.3149 0.99,-0.4728 1.227,-1.0984 0.173,-0.4628 0.213,-1 0.763,-0.7017 0.23,0.1248 0.366,0.3835 0.634,0.1257 0.185,-0.1777 0.188,-0.7108 0.3,-0.9521 0.302,-0.6455 0.813,-1.1298 1.096,-1.7901 0.283,-0.6604 0.944,-0.8529 1.499,-1.2628 0.216,-0.1604 1.248,-1.1248 0.693,-1.4124 -0.289,-0.1505 -1.347,0.714 -1.626,0.8264 -0.526,0.2165 -1.261,0.3793 -1.811,0.1281 -0.591,-0.2694 -0.435,-0.7174 -0.029,-1.0521 0.49,-0.4041 0.385,-0.5785 0,-1.0248 -0.345,-0.4033 -0.354,-0.7479 0.205,-0.9322 0.602,-0.1992 0.908,-0.0124 0.825,0.5909 -0.1,0.7165 0.44,1.3017 1.165,1.4099 0.805,0.1199 1.031,-0.5785 1.537,-1.0182 1.04,-0.895 1.856,0.5488 1.622,1.4877 -0.346,1.3967 -1.935,1.3297 -2.738,2.3545 -0.516,0.6612 -0.863,1.4513 -1.147,2.2315 -0.254,0.6967 -0.685,1.6669 -0.668,2.4198 0.014,0.6901 0.719,0.5909 1.091,1.029 0.33,0.3884 0.33,0.9314 0.247,1.4049 -0.195,1.1273 -0.875,2.1273 -1.528,3.0389 -1.033,1.4438 -2.825,1.6529 -4.456,1.9488 -1.695,0.3041 -3.514,0.6727 -5.239,0.4628 -1.672,-0.2033 -3.014,-1.1066 -4.044,-2.4108 -0.434,-0.5504 -1.807,-2.0331 -1.291,-2.7876 0.309,-0.4521 0.667,-0.095 0.316,-0.8116 -0.37,-0.7587 -0.908,-1.4223 -1.27,-2.1843 -0.302,-0.6298 -0.66,-1.505 -0.39,-2.2009 0.27,0.3686 0.299,0.867 0.556,1.2397 0.301,-0.9165 -0.215,-1.995 -0.489,-2.8587 -0.235,-0.7438 -0.436,-1.7851 -1.094,-2.286 -0.325,1.5323 0.307,3.2232 0.578,4.7208 -0.149,-0.3901 -0.263,-0.7984 -0.462,-1.1687 -0.188,-0.3479 -0.485,-0.6347 -0.638,-1.0016 -0.33,-0.7942 0.138,-1.6232 -0.057,-2.4298 -0.039,0.2033 -0.066,1.0372 -0.503,0.8265 -0.256,-0.1248 -0.075,-0.5786 -0.077,-0.7852 -0.006,-0.5702 -0.793,-1.8471 -0.029,-2.2049 0.206,0.238 0.422,0.9826 0.786,1.0272 0.615,0.0761 0.088,-1.4801 0.926,-0.8843 0.606,0.4298 0.814,1.4265 1.216,2.0207 0.402,0.5942 0.99,0.8132 1.515,1.2587 0.606,0.5099 0.577,1.3471 0.761,2.0661 0.126,0.4909 0.106,1.9753 0.782,2.0546 0.495,0.0587 1.21,-0.8347 1.568,-1.1132 0.358,-0.2785 0.636,-0.5199 0.808,-0.9306 0.113,-0.267 0.154,-0.7314 0.46,-0.8595 0.4,-0.1653 0.821,0.4132 1.03,-0.21 0.106,-0.3132 -0.187,-1.0934 0.318,-1.1727 0.505,-0.0793 0.427,1.1215 0.656,1.4298 0.435,0.5859 1.32,0.5537 1.902,0.2306 1.601,-0.886 0.562,-3.1976 0.845,-4.596 0.145,-0.7206 0.653,-1.4396 0.522,-2.2008 -0.125,-0.7265 -0.847,-1.0934 -1.468,-1.3347 -0.856,-0.3306 -1.694,-0.2364 -2.587,-0.3761 -0.951,-0.1487 -1.869,-0.4793 -2.838,-0.5107 -0.287,-0.0091 -2.298,-0.0108 -1.332,-0.5562 0.705,-0.3975 1.777,-0.0785 2.508,0.0826 0.321,0.0703 0.729,0.248 1.037,0.0703 -0.784,-0.6166 -1.632,-1.2281 -2.615,-1.4637 -0.412,-0.0992 -1.357,-0.2091 -1.275,-0.8165 0.109,-0.8075 1.458,-0.4488 1.922,-0.2653 0.862,0.3388 1.5,1.0248 2.496,0.914 0.533,-0.0595 1.127,-0.3661 1.662,-0.157 0.475,0.186 0.607,0.6984 0.247,1.0744 0.338,-0.0735 0.626,-0.2826 0.957,-0.381 0.379,-0.1124 0.783,-0.1041 1.174,-0.1438 0.639,-0.0645 1.403,-0.1454 1.925,-0.5587 0.261,-0.2058 0.401,-0.5115 0.644,-0.733 0.262,-0.2389 0.605,-0.3827 0.902,-0.5719 0.296,-0.1893 0.545,-0.3753 0.877,-0.4703 0.213,-0.0603 0.564,-0.0198 0.68,-0.2479 0.128,-0.248 -0.184,-0.4455 -0.061,-0.681 0.165,-0.3166 0.754,-0.1521 1.022,-0.2058 -0.24,-0.4488 -0.896,-0.1165 -1.279,-0.2042 -0.503,-0.1148 -0.603,-0.5884 -0.192,-0.8934 0.314,-0.233 0.896,0 1.143,-0.2479 0.304,-0.3041 -0.206,-0.5645 -0.448,-0.6694 -0.742,-0.3215 -2.096,-0.0537 -2.103,-1.1744 -0.004,-0.6033 0.738,-0.7901 0.703,-1.2992 -0.04,-0.56281 -0.829,-0.57851 -1.213,-0.4669 -0.608,0.1752 -1.022,0.4843 -1.674,0.2595 -0.57,-0.2103 -1.102,-0.51323 -1.573,-0.89674 -0.191,-0.15785 -0.344,-0.33058 -0.36,-0.58678 -0.012,-0.21901 0.291,-0.54794 0.229,-0.71075 -0.16,-0.41736 -1.032,0.16033 -1.265,0.2405 -1.963,0.6719 -4.471,-1.5149 -5.958,0.66116 -0.33,0.48761 -1.127,0.67769 -1.196,1.32231 -0.062,0.5785 0.486,0.9992 0.508,1.5521 0.019,0.4661 -0.52,0.924 -0.377,1.3827 0.137,0.4363 0.957,0.3198 0.958,0.7892 0,0.2554 -0.371,0.4273 -0.526,0.5785 -0.18,0.1828 -0.329,0.3942 -0.44,0.6257 -0.298,0.5868 -0.569,1.1487 -0.914,1.7132 -0.306,0.5008 -0.489,1.0281 -0.896,1.4612 -0.11,0.1173 -0.85,0.7281 -0.496,0.8868 0.273,0.1231 0.636,-0.6984 0.788,-0.8562 0.569,-0.5918 0.519,0.276 0.61,0.6661 0.092,0.3901 0.866,0.4578 0.689,0.8983 -0.165,0.4207 -0.847,0.3174 -1.176,0.4281 -1.045,0.3521 0.613,1.5199 1.087,1.6653 0.639,0.1951 1.066,-1.3694 1.859,-1.0471 0.473,0.1926 0,0.6505 -0.2,0.8529 -0.374,0.3711 -0.447,0.8265 -0.782,1.2034 -0.274,0.3107 -2.739,1.9834 -2.746,0.9231 0,-0.4554 0.743,-0.5736 0.165,-0.9992 -0.308,-0.2248 -0.913,-0.3744 -1.238,-0.1446 -0.247,0.1851 -0.371,0.4107 -0.552,0.4479 z"
         fill="#c4c3c6"
         id="path3312" />
      <path
         d="m 308.342,52.0659 c -0.045,0 -0.09,0.005 -0.133,0.0083 -1.174,0.0892 -2.341,0.114 -3.516,0.1595 -2.238,0.0826 -4.446,0.395 -6.552,1.1802 -1.757,0.6545 -3.804,1.7909 -5.748,1.3991 -1.755,-0.3529 -2.514,-2.7661 -2.018,-4.2537 0.186,-0.5612 0.077,-0.5785 -0.133,-1.0587 -0.152,-0.348 -0.213,-0.5579 0.021,-0.9017 0.378,-0.5562 1.281,-0.7595 1.828,-1.1099 1.891,-1.2099 3.704,-2.5447 5.611,-3.743 1.932,-1.2124 3.879,-2.4108 5.819,-3.6083 1.268,-0.7835 0.636,0.9008 1.217,1.5628 0.631,0.719 0.952,1.6281 1.58,2.3967 0.586,0.7157 1.442,1.1628 1.637,2.0579 0.138,0.6372 0.202,0.3603 0.613,0.7636 0.298,0.2918 0.399,0.8182 0.681,1.1571 0.606,0.7206 3.879,2.8099 1.752,3.7587 -0.742,0.3264 -1.83,0.1917 -2.659,0.2314 z"
         fill="#ffffff"
         id="path3314" />
      <path
         d="m 302.895,23.4597 c 0.235,-1.6818 1.527,-0.0744 2.393,-0.7892 -0.05,0.2363 -0.018,0.4901 -0.074,0.7239 -0.051,0.2075 -0.651,0.5918 -0.377,0.7496 0.176,0.1 0.842,-0.2421 1.008,-0.3372 0.345,-0.1967 1.395,-0.7438 1.525,-1.1289 0.017,-0.0507 0.051,-0.0942 0.096,-0.1231 0.045,-0.029 0.098,-0.0418 0.151,-0.0364 0.423,0.2314 0.803,0.2066 1.136,-0.1752 0.106,-0.1223 0.26,-0.1397 0.418,-0.0959 0.621,0.1719 1.258,0.2537 1.894,0.3422 0.33,0.0463 0.644,0.2182 0.997,0.1768 0.059,7e-4 0.118,-0.0107 0.173,-0.0334 0.054,-0.0227 0.104,-0.0563 0.145,-0.0988 0.274,-0.2909 0.463,-0.6116 0.485,-1.0182 0.011,-0.039 0.029,-0.0756 0.053,-0.1083 0.142,-0.0806 0.25,-0.2109 0.303,-0.3661 0.37,-0.3983 0.687,-0.4719 1.073,-0.2479 0.864,-0.419 1.159,0.324 1.562,0.7926 0.699,0.8115 -0.044,1.5859 -0.188,2.3281 -0.281,1.4471 0.083,2.9116 -0.33,4.357 -0.311,1.0744 -1.202,1.1629 -1.875,1.1249 -0.71,-0.0397 -1.508,-0.5356 -1.304,-1.5926 0.011,-0.1122 0.011,-0.2251 0,-0.3372 -0.467,0.2074 -0.286,0.6041 -0.304,0.9421 -0.014,0.281 -0.052,0.5587 -0.381,0.6612 -0.29,0.0884 -0.502,0.0686 -0.57,-0.3066 -0.028,-0.1546 -0.213,-0.1265 -0.256,0.1554 -0.178,1.157 -1.101,1.6339 -1.891,2.281 -0.484,0.3967 -0.68,1.3314 -1.492,0.3587 -0.109,-0.1306 -0.221,-0.1794 -0.235,-0.386 -0.088,-1.2951 -0.033,-2.7694 -1.034,-3.6414 -0.833,-0.7256 -1.849,-1.157 -1.881,-2.4479 -0.713,0.2479 -0.392,-1.2182 -1.237,-0.7504 l -0.018,-0.5604 c -0.027,-0.0661 0.007,-0.1306 0.004,-0.1967 z"
         fill="#ffffff"
         id="path3316" />
      <path
         d="m 334.889,52.9825 c -0.425,1.2446 -0.383,2.6248 -0.424,3.9232 -0.02,0.6537 0.178,2.1934 -0.774,2.2719 -0.749,0.062 -1.461,-1.0223 -1.908,-1.4967 -0.87,-0.9229 -1.843,-1.7416 -2.901,-2.4397 -1.036,-0.6876 -2.101,-1.2248 -3.207,-1.7802 -0.307,-0.1529 -0.869,-0.3876 -0.857,-0.8083 0.012,-0.433 0.578,-0.5843 0.858,-0.819 0.678,-0.562 0.995,-1.5223 1.972,-1.6397 0.929,-0.1107 1.719,0.6719 2.629,0.6298 0.68,-0.0314 0.599,-0.3083 0.383,-0.7934 -0.305,-0.681 -0.379,-1.1025 0.049,-1.7703 1.844,-2.8769 4.802,0.4835 4.231,2.8728 -0.123,0.5132 -0.792,0.9917 -0.779,1.5083 0.011,0.3611 0.567,0.8719 0.728,0.3413 z"
         fill="#c4c3c6"
         id="path3318" />
      <path
         d="m 317.139,34.703 c 0,0.0537 -0.071,0.1016 -0.26,0.1339 -0.297,0.0504 -0.604,0.0322 -0.908,0.0322 -0.528,6e-4 -1.054,0.0639 -1.568,0.1884 -0.487,0.1149 -0.835,0 -1.313,-0.0529 -0.326,-0.0338 -0.99,-0.0363 -1.221,0.248 -0.278,0.3397 0.22,0.5537 0.495,0.5512 0.473,-0.0041 0.908,-0.2355 1.389,-0.2272 0.985,0.0173 1.772,0.6611 2.508,1.2454 0.351,0.2794 0.643,0.4736 0.239,0.8199 -0.358,0.3066 -0.318,0.6107 -0.45,1.0281 -0.277,0.8727 -1.062,0.4669 -1.608,0.1801 -0.24,-0.1256 -0.533,-0.2909 -0.814,-0.2785 -0.26,0.0108 -0.514,0.2612 -0.406,0.5389 0.145,0.3686 0.578,0.219 0.856,0.3049 0.206,0.0637 0.253,0.248 0.083,0.3893 -0.151,0.1256 -0.386,0.1231 -0.569,0.1099 -0.441,-0.0322 -0.879,-0.1653 -1.32,-0.2215 -0.398,-0.0512 -0.796,-0.0826 -1.195,-0.1231 -0.229,-0.024 -1.184,-0.1141 -0.82,-0.5248 0.13,-0.148 0.338,-0.1455 0.49,-0.2537 -0.444,0.0206 -0.884,0.0107 -1.329,0.0041 -0.406,-0.0066 -0.81,0.1083 -1.216,0.0826 -0.516,-0.033 -1.23,-0.6264 -0.864,-1.1876 0.102,-0.1562 0.456,-0.2768 0.461,-0.4768 0.005,-0.2 -0.518,-0.5356 -0.647,-0.6992 -0.495,-0.6273 -0.501,-1.4323 -0.697,-2.1728 -0.2,-0.7603 -0.719,-1.3611 -1.073,-2.0512 -0.258,-0.5083 -0.474,-1.1372 -0.489,-1.7133 -0.015,-0.576 0.356,-1.0256 0.957,-0.7967 0.244,0.0926 0.487,0.2876 0.573,0.5414 0.115,0.3371 -0.054,0.7148 -0.042,1.0611 0.014,0.4132 0.215,0.8182 0.357,1.2025 0.126,0.3766 0.217,0.7639 0.272,1.157 0.076,0.4356 0.43,0.191 0.743,0.2901 0.336,0.1058 0.601,0.1943 0.884,-0.0826 0.271,-0.2595 0.429,-0.6612 0.606,-0.9827 0.211,-0.3843 0.432,-0.7603 0.661,-1.1339 0.206,-0.3355 0.374,-0.7264 0.622,-1.0314 0.321,-0.3958 0.531,-0.1975 0.83,0.0827 0.247,0.2347 0.538,0.3661 0.842,0.5082 0.315,0.1564 0.596,0.3745 0.826,0.6414 0.253,0.2722 0.538,0.5126 0.849,0.7157 0.224,0.1512 0.571,0.3934 0.371,0.7008 -0.191,0.2934 -0.704,0.3108 -1.01,0.3306 -0.419,0.0273 -0.84,0.0066 -1.259,0.0297 -0.721,0.0414 -1.422,0.3662 -2.094,0.6124 -0.136,0.0505 -0.523,0.2166 -0.378,0.4315 0.146,0.2148 0.59,-0.1372 0.731,-0.2083 0.721,-0.3653 1.479,-0.5537 2.248,-0.7818 0.318,-0.0943 0.738,-0.2662 1.039,-0.0504 0.254,0.1801 0.346,0.3727 0.691,0.3958 0.345,0.0232 0.686,-0.0777 1.031,-0.0677 0.418,0.0118 0.834,0.0763 1.237,0.1917 0.214,0.0653 0.657,0.2347 0.659,0.3686 z"
         fill="#ffffff"
         id="path3320" />
      <path
         d="m 308.398,52.0858 c 0.99,-0.1289 4.029,0 2.868,-1.8264 -0.519,-0.8158 -1.465,-1.4141 -2.086,-2.1612 -0.766,-0.9215 -1.421,-1.9273 -2.145,-2.8827 -0.857,-1.1347 -1.644,-2.2116 -2.334,-3.4571 -0.07,0.0827 -0.248,0.129 -0.319,0.2149 -0.401,-0.4421 0.09,-1.0149 -0.133,-1.4942 -0.292,-0.6248 -0.974,-0.2719 -1.383,0.0314 0.747,-0.3818 1.413,-0.9438 1.668,-1.7587 0.229,-0.7289 0.439,-1.5918 1.103,-0.562 0.699,1.0876 0.789,2.4529 1.363,3.6 0.682,1.3629 1.748,2.4554 2.418,3.8431 0.277,0.5735 0.577,1.1239 1.029,1.581 0.503,0.5091 0.974,0.8124 1.272,1.4959 0.385,0.8818 0.766,2.2868 -0.205,2.9066 -0.868,0.5579 -2.128,0.4174 -3.116,0.4694 z"
         fill="#c4c3c6"
         id="path3322" />
      <path
         d="m 320.927,23.3175 c -0.048,0.0013 -0.097,-0.0012 -0.144,-0.0074 -0.315,-0.0388 -1.208,-0.2628 -1.195,0.3207 0.007,0.3851 0.59,0.5182 0.765,0.8099 0.285,0.4727 -0.247,0.6198 -0.543,0.8521 -0.446,0.3512 -0.215,0.7934 0.312,0.8777 0.479,0.0768 0.971,-0.1653 1.399,-0.3471 0.487,-0.2075 1.03,-0.4323 1.432,-0.786 0.091,-0.0826 0.195,-0.2587 0.33,-0.2661 0.171,-0.0083 0.256,0.2165 0.292,0.352 0.041,0.1863 0.041,0.3794 -0.002,0.5653 -0.043,0.186 -0.127,0.3599 -0.246,0.5091 -0.321,0.4017 -0.849,0.5711 -1.279,0.8224 -0.2,0.1165 -0.44,0.2479 -0.546,0.4653 -0.124,0.2479 -0.106,0.5223 -0.264,0.7677 -0.29,0.4505 -0.762,0.748 -1.05,1.1992 -0.157,0.2367 -0.228,0.5198 -0.203,0.8025 0.018,0.2 0.175,0.4851 -0.077,0.5843 -0.293,0.1157 -0.967,-0.2231 -1.207,-0.3612 -0.195,-0.1132 -0.232,-0.2413 -0.298,-0.4537 -0.094,-0.3008 -0.205,-0.5983 -0.273,-0.9091 -0.125,-0.5578 0.283,-0.9537 0.322,-1.4967 0.044,-0.6149 -0.259,-1.1793 -0.252,-1.7917 0.023,-0.5239 -0.107,-1.0432 -0.374,-1.4943 -0.165,-0.3025 -0.495,-0.8975 -0.242,-1.2397 0.141,-0.1925 0.523,-0.1727 0.738,-0.2223 0.292,-0.0677 0.582,-0.1413 0.87,-0.2239 0.519,-0.1496 0.902,-0.0967 1.392,0.1115 0.156,0.067 0.376,0.1488 0.473,0.3 0.122,0.1959 0.014,0.2529 -0.13,0.2595 z"
         fill="#ffffff"
         id="path3324" />
      <path
         d="m 292.491,47.0352 c 0.155,0.9363 -1.531,1.0264 -1.947,1.633 -0.363,0.5273 -0.025,1.2992 -0.008,1.891 0.022,0.8132 -0.103,1.6595 0.165,2.4471 0.73,2.1546 2.822,1.9339 4.533,1.2785 2.036,-0.7793 4.106,-1.4198 6.252,-1.8116 1.206,-0.2206 2.415,-0.3132 3.631,-0.4553 0.831,-0.0967 2.069,-0.4852 2.814,0.0438 -0.786,0.3677 -1.965,0.2785 -2.823,0.2983 -1.023,0.024 -2.048,0.0116 -3.066,0.1347 -2.118,0.2562 -3.878,0.9918 -5.803,1.843 -1.218,0.5405 -2.828,0.9595 -4.138,0.4959 -1.451,-0.5166 -2.085,-2.6042 -2.333,-3.9844 -0.33,-1.8661 1.036,-3.2479 2.723,-3.814 z"
         fill="#c4c3c6"
         id="path3326" />
      <path
         d="m 313.628,33.9574 c -1.337,0 -2.535,0.4611 -3.688,1.0892 -0.171,0.0934 -0.383,0.11 -0.578,0.1653 -0.024,-0.1008 -0.097,-0.2223 -0.064,-0.2983 0.093,-0.2124 0.185,-0.5256 0.355,-0.5868 1.282,-0.4686 2.574,-0.9141 3.985,-0.7256 0.182,0.0239 0.392,-0.1711 0.589,-0.2637 -0.137,-0.1264 -0.269,-0.2611 -0.412,-0.3785 -0.743,-0.6041 -1.494,-1.2041 -2.241,-1.805 1.162,-0.1652 1.473,1.0067 2.239,1.4149 1.418,0.7529 0.628,1.0281 -0.185,1.3885 z"
         fill="#c4c3c6"
         id="path3328" />
      <path
         d="m 317.848,22.9754 c -0.477,0.9653 0.67,1.5761 0.533,2.4711 -0.179,1.1744 0.748,2.4381 -0.28,3.5463 -0.483,-0.8091 0.357,-1.5611 0.054,-2.4223 -0.203,-0.5785 -0.244,-1.2025 -0.469,-1.7744 -0.107,-0.2881 -0.279,-0.5475 -0.503,-0.7579 -0.247,-0.2239 -0.649,-0.419 -0.604,-0.8264 0.46,0.2777 0.792,-0.6108 1.269,-0.2364 z"
         fill="#c4c3c6"
         id="path3330" />
      <path
         d="m 321.067,23.3105 c -0.148,0.043 -0.488,-0.2818 -0.62,-0.3446 -0.365,-0.1728 -0.749,-0.1496 -1.134,-0.0711 -0.297,0.0611 -0.799,0.2835 -1.08,0.0876 0.096,-0.1951 0.479,-0.2851 0.669,-0.3843 0.241,-0.1256 0.481,-0.2546 0.711,-0.3984 0.477,-0.2975 1.001,-0.5239 1.568,-0.3545 0.701,0.2107 -0.33,1.0884 0.487,1.2884 z"
         fill="#c4c3c6"
         id="path3332" />
      <path
         d="m 301.865,26.4137 c 0.07,0.2166 0.114,0.4496 0.198,0.624 0.063,-0.1729 0.116,-0.3492 0.159,-0.5281 0.026,-0.2355 -0.01,-0.457 0.136,-0.6612 0.587,0.248 0.267,1.2587 0.235,1.7215 -0.016,0.248 0.19,0.9505 -0.01,1.1298 -0.391,0.3496 -1.592,-2.1141 -1.553,-2.486 0.037,-0.3463 0.239,-0.5149 0.544,-0.2818 0.146,0.1132 0.228,0.2909 0.291,0.4818 z"
         fill="#ffffff"
         id="path3334" />
      <path
         d="m 302.665,20.8618 c 0.067,0.0306 0.102,0.1058 0.179,0.2835 0.14,0.3223 0.33,0.9636 -0.126,1.1215 -0.726,0.2479 -1.388,-0.929 -1.265,-1.51 0.287,0.1083 0.586,0.0827 0.885,0.0827 0.176,0.0025 0.265,-0.0066 0.327,0.0223 z"
         fill="#ffffff"
         id="path3336" />
      <path
         d="m 301.578,25.9848 c -0.794,-0.3239 0.076,1.5901 0.165,1.8133 -0.288,-0.6876 -0.767,-1.2736 -0.99,-1.9967 -0.093,-0.2943 -0.223,-0.7397 0.021,-0.9984 0.547,-0.5744 0.755,0.8488 0.804,1.1818 z"
         fill="#c4c3c6"
         id="path3338" />
      <path
         d="m 302.865,23.6709 c 0,0.0661 0,0.1314 -0.004,0.1967 z"
         fill="#c4c3c6"
         id="path3340" />
      <path
         d="m 313.549,18.8235 c 0.006,-0.0645 0.017,-0.1355 0.028,-0.2099 0.04,-0.2479 0.149,-0.2479 -0.047,-0.4075 -0.132,-0.1074 -0.444,-0.1033 -0.605,-0.1066 -0.825,-0.0198 -1.536,0.3116 -2.352,-0.0041 -0.751,-0.2901 -1.397,-0.8579 -2.203,-1.005 -0.478,-0.0876 -1.307,0.3736 -0.618,0.7769 0.269,0.1579 0.742,0.0777 1.043,0.1579 0.453,0.1214 0.857,0.3652 1.257,0.6016 0.475,0.2794 1.515,0.6761 1.557,1.3133 -1.363,0.2933 -2.958,-0.8819 -4.214,-0.0769 -0.393,0.2479 -1.167,0.1537 -1.529,-0.2322 -0.345,-0.3662 -0.083,-0.972 -0.395,-1.362 -0.432,0.4686 -0.413,1.1091 -1.115,1.3793 -0.407,-0.4851 -0.165,-0.7562 0.219,-1.0909 0.402,-0.3479 0.636,-0.8322 0.907,-1.2835 0.307,-0.5132 0.665,-1.0405 0.868,-1.6066 0.127,-0.3546 0.113,-0.9513 0.393,-1.229 0.209,-0.2074 0.773,-0.0355 0.775,-0.4132 0.002,-0.3777 -0.495,-0.2413 -0.714,-0.3124 -0.884,-0.2835 0.092,-1.2231 0.149,-1.7595 0.088,-0.8372 -0.855,-1.3488 -0.433,-2.21408 0.475,-0.97109 1.683,-1.51324 2.684,-1.70828 1.325,-0.25951 2.48,0.28512 3.777,0.30744 0.618,0.01074 0.912,-0.25538 1.436,-0.48761 0.315,-0.13967 1.001,-0.13802 0.859,0.3562 -0.116,0.40496 -0.561,0.34215 -0.2,0.82232 0.234,0.31158 0.651,0.55869 0.99,0.74381 0.275,0.16044 0.579,0.2638 0.894,0.3038 0.316,0.0401 0.636,0.016 0.942,-0.0707 0.47,-0.12731 0.997,-0.44136 1.467,-0.15128 0.495,0.30578 0.522,0.86198 0.064,1.19998 -0.345,0.2554 -0.462,0.4959 -0.299,0.9711 0.288,0.843 1.276,0.4868 1.935,0.7207 0.312,0.1107 0.792,0.4876 0.718,0.8802 -0.096,0.5074 -0.751,0.1653 -1.088,0.2305 -0.547,0.105 -0.726,0.6777 -0.108,0.8116 0.427,0.0926 1.093,-0.3578 1.402,0.1471 0.345,0.5637 -0.807,0.4331 -1.124,0.4959 0.026,0.1984 0.27,0.5455 0.211,0.7372 -0.089,0.2884 -0.527,0.1992 -0.768,0.2529 -0.757,0.1653 -1.321,0.781 -1.926,1.2265 -0.71,0.5256 -1.526,0.9917 -2.415,1.1132 -0.424,0.057 -0.884,-0.0975 -1.296,0.0099 -0.301,0.0827 -0.461,0.3603 -0.743,0.4521 -0.351,0.1273 -0.403,-0.0323 -0.383,-0.2802 z"
         fill="#ffffff"
         id="path3342" />
      <path
         d="m 307.167,19.8267 c 0.099,0.0223 0.194,0.0454 0.277,0.0578 0.395,0.0571 0.791,-0.0239 1.187,-0.0074 0.516,0.0285 1.029,0.0906 1.536,0.186 1.017,0.1785 2.031,0.4206 3.069,0.4289 0.297,0 0.595,-0.0513 0.893,-0.0471 0.253,0.0049 0.49,0.2124 0.197,0.3992 -0.173,0.109 -0.391,0.0694 -0.578,0.1371 -0.187,0.0678 -0.335,0.2182 -0.473,0.3637 -0.091,0.0959 -0.221,0.143 -0.306,0.2413 -0.234,0.2744 -0.189,0.6777 -0.495,0.9141 -0.14,0.1155 -0.304,0.1964 -0.481,0.2362 -0.176,0.0398 -0.36,0.0373 -0.535,-0.0073 -0.626,-0.1719 -1.155,-0.5471 -1.758,-0.7595 -0.781,-0.2761 -1.204,-0.1579 -1.733,0.4835 -0.072,0.0826 -0.138,0.1719 -0.264,0.171 l -0.33,0.0529 c 0.023,-0.1502 0.055,-0.299 0.096,-0.4454 0.06,-0.1445 0.146,-0.2762 0.255,-0.3885 0.268,-0.2818 0.615,-0.4322 0.959,-0.5958 -0.418,-0.0579 -0.974,0.2562 -1.294,0.5107 -0.264,0.2099 -0.467,0.4959 -0.757,0.6744 -0.087,0.0521 -0.413,0.2215 -0.506,0.1405 -0.051,-0.0413 -0.061,-0.3231 -0.113,-0.4083 -0.278,-0.4537 -0.98,-0.4454 -1.187,-0.9644 -0.512,-1.2777 0.545,-0.9091 1.098,-1.0372 0.184,-0.043 0.367,-0.0538 0.489,-0.2141 0.177,-0.2322 0.481,-0.1826 0.754,-0.1223 z"
         fill="#000000"
         id="path3344" />
      <path
         d="m 323.166,18.5806 c -0.005,0.0885 -0.034,0.174 -0.083,0.2479 -0.217,0.3405 -0.943,0.467 -1.312,0.4852 -0.88,0.0442 -1.752,0.194 -2.596,0.4463 -0.131,0.0396 -0.486,0.2479 -0.609,0.1165 -0.2,-0.2066 0.185,-0.5306 0.324,-0.6273 0.609,-0.4095 1.303,-0.6747 2.03,-0.7752 0.428,-0.0496 0.819,0.119 1.23,0.0959 0.258,-0.0141 0.544,-0.3802 0.802,-0.2934 0.066,0.0178 0.123,0.058 0.162,0.1135 0.039,0.0555 0.057,0.1229 0.052,0.1906 z"
         fill="#ffffff"
         id="path3346" />
      <path
         d="m 319.352,35.9856 c 0.876,0.2686 1.021,-0.6116 0.999,-0.7851 -0.09,-0.7339 -0.372,-1.4447 -0.606,-2.2405 1.658,1.1 1.872,2.3066 0.681,3.5141 -0.22,0.2223 -0.501,0.3834 -0.755,0.5735 z"
         fill="#ffffff"
         id="path3348" />
      <path
         d="m 303.666,21.755 c -0.156,-0.3223 -0.009,-1.0876 0.241,-1.1719 0.51,-0.1719 0.578,1.3884 -0.068,1.3115 -0.039,-0.0061 -0.075,-0.0222 -0.105,-0.0467 -0.031,-0.0245 -0.054,-0.0565 -0.068,-0.0929 z"
         fill="#ffffff"
         id="path3350" />
      <path
         d="m 313.331,35.0575 c 0.264,-0.0853 0.545,-0.1099 0.82,-0.0719 0.188,0.019 0.302,0.1265 0.474,0.1736 0.184,0.0512 0.677,-0.0827 0.64,0.2653 -0.367,0.062 -0.779,-0.0447 -1.155,-0.0554 -0.377,-0.0107 -0.79,0.0603 -1.149,-0.0438 0.094,-0.1241 0.223,-0.2174 0.37,-0.2678 z"
         fill="#000000"
         id="path3352" />
      <path
         d="m 307.702,22.6251 c 0.525,-1.2 1.431,-1.1818 2.403,-0.6834 1.073,0.5512 2.121,1.2884 2.884,-0.3777 -0.119,1.3438 -0.867,1.3504 -1.999,1.1793 -0.861,-0.1306 -1.847,-0.762 -2.734,0.0827 -0.064,0.0586 -0.363,-0.129 -0.554,-0.2009 z"
         fill="#c4c3c6"
         id="path3354" />
      <path
         d="m 312.99,21.5632 0.317,-0.2595 z"
         fill="#c4c3c6"
         id="path3356" />
    </g>
  </g>
  <path
     d="m 308.18954,48.398086 c -10.309,0 -18.667,-8.3574 -18.667,-18.6667 h -10.666 c 0,16.2004 13.133,29.3333 29.333,29.3333 z m 18.667,-18.6667 c 0,10.3093 -8.358,18.6667 -18.667,18.6667 v 10.6666 c 16.2,0 29.333,-13.1329 29.333,-29.3333 z m -18.667,-18.66667 c 10.309,0 18.667,8.35737 18.667,18.66667 h 10.666 c 0,-16.20035 -13.133,-29.33333023 -29.333,-29.33333023 z m 0,-10.66666023 c -16.2,0 -29.333,13.13298023 -29.333,29.33333023 h 10.666 c 0,-10.3093 8.358,-18.66667 18.667,-18.66667 z"
     fill="#000000"
     id="path3362" />
  <g
     clip-path="url(#clip2)"
     id="g3398">
    <path
       d="M-5 63C-5 45.3269 9.32689 31 27 31V31C44.6731 31 59 45.3269 59 63V63C59 80.6731 44.6731 95 27 95V95C9.32689 95 -5 80.6731 -5 63V63Z"
       fill="#FFE538"
       id="path3364" />
    <path
       d="M30.6077 106.5C24.2188 106.5 17.3434 105.488 11.7454 103.721C5.21902 101.664 1.62972 99.0541 1.07771 95.9636C0.663089 93.6429 1.9441 89.8717 4.04817 87.1921C4.68558 86.3801 5.11258 86.0422 6.25497 85.14C6.67578 84.8083 7.19808 84.3974 7.90604 83.8243C7.94689 83.7909 12.1352 80.3934 15.6552 76.4328C15.9485 76.1011 16.3978 75.5999 16.6305 74.8523C16.8261 74.2335 16.7964 73.7495 16.6528 72.3967C16.4634 70.612 16.3137 69.1936 15.8669 68.774L15.8025 68.7555C15.1786 68.5717 14.5759 68.3228 14.0041 68.0128C13.7912 67.9014 11.9001 66.8841 10.3901 65.2998C8.47785 63.2911 7.91471 61.1981 7.19437 58.547C6.56067 56.1954 5.69182 52.9873 6.78346 50.1914L6.81564 50.1109C6.90913 49.8959 6.97204 49.6688 7.00253 49.4364C7.04337 49.0923 6.99139 48.9302 6.85029 48.497C6.67873 48.0166 6.56206 47.5183 6.5025 47.0117C6.11882 43.2838 9.75886 40.5832 10.9582 39.6958C11.5993 39.2205 13.0994 38.1078 15.2517 37.7551C15.5463 37.7068 15.7468 37.6907 15.8928 37.6783C15.9931 37.6729 16.0928 37.66 16.1911 37.64C16.6726 37.5508 16.8434 37.4555 17.2568 37.2229C17.7418 36.9371 18.2523 36.6968 18.7816 36.505C20.054 36.052 21.158 36.0099 22.0442 35.9654C22.5232 35.962 23.0007 35.9119 23.47 35.8156L24.746 35.5H26.0407C29.3242 35.5 31.3924 36.0174 31.6177 36.0755C34.4285 36.8107 36.3085 38.4469 37.3185 39.3257C37.8977 39.8356 38.4454 40.3804 38.9584 40.957C39.5475 41.6043 39.7926 41.8716 40.4189 42.1526L40.6095 42.2343C41.3481 42.5202 42.0247 42.9459 42.6022 43.488C43.9983 44.821 44.356 46.4659 44.549 47.3496C45.007 49.4537 44.7124 51.1778 44.5701 52.007C44.3399 53.3549 43.9314 54.3735 43.1901 56.2239C42.9675 56.8074 42.6855 57.3665 42.3484 57.8923C42.1619 58.1782 41.9551 58.4503 41.7296 58.7067L41.7407 58.7425C41.8397 59.0705 41.9635 59.4852 42.0712 59.9802C42.3571 61.3095 42.3187 62.2625 42.2482 63.7057C42.1442 65.9731 42.0551 67.9299 40.5228 69.4411C40.4511 69.5117 40.3768 69.581 40.3001 69.6515L40.258 69.6887C40.258 69.7567 40.258 69.8533 40.258 69.9362C40.258 70.06 40.2654 70.1837 40.2654 70.2927C40.2567 72.4462 39.0698 74.1369 38.2319 75.0615C38.3792 75.0986 38.5277 75.132 38.6762 75.1642C39.7898 75.3902 40.9237 75.5014 42.0601 75.4959C42.7719 75.4955 43.4831 75.4542 44.1901 75.3721C45.146 75.2552 46.0932 75.0758 47.0257 74.835C48.0158 74.5986 48.9503 74.3733 50.0444 74.3733C50.8215 74.3758 51.5942 74.4895 52.3391 74.7112C53.3685 75.0038 54.3416 75.4669 55.2179 76.0813C58.3035 78.3413 58.5312 83.2191 58.3926 85.9247C58.1884 89.9224 57.0076 94.0031 55.2365 96.8411C51.3576 103.069 42.6071 106.5 30.6077 106.5Z"
       fill="black"
       id="path3366" />
    <path
       d="M12.1254 51.3423C12.2001 51.5018 12.261 51.6674 12.3073 51.8374C12.3556 52.0849 13.0401 52.0057 12.6465 52.4141C12.3816 52.6889 12.066 52.351 11.9608 52.1592C11.8271 51.9203 11.5437 51.5057 12.1217 51.346L12.1254 51.3423Z"
       fill="black"
       id="path3368" />
    <path
       d="M10.2675 46.4065C10.5386 46.5786 10.7143 46.4894 10.9272 46.3261C11.2589 46.0785 11.6277 46.1119 11.9817 46.2679C12.379 46.4437 12.1154 46.7766 12.1191 47.0328C12.1302 47.9153 12.1191 48.7977 12.1079 49.6814C12.0312 49.7499 11.952 49.8155 11.8703 49.8782C11.8542 49.8225 11.8394 49.7668 11.8233 49.7136C11.6809 49.2569 11.1314 49.2928 10.8331 49.5812C10.3739 50.0243 10.3096 50.752 10.2836 51.3523C10.252 52.1415 10.3194 52.9315 10.4841 53.7039C10.6079 54.2906 10.7725 54.9849 11.1883 55.4367C11.6042 55.8885 12.1377 55.8365 12.6575 56.0766C12.922 56.2003 13.1712 56.3544 13.4001 56.5358C13.6303 56.7152 13.8085 56.9343 14.1006 56.9999C14.0165 56.3984 13.5375 55.9231 13.056 55.5951C12.5746 55.2671 11.9421 55.0778 11.5535 54.6532C11.4655 54.5638 11.3988 54.4558 11.3583 54.3371C11.3178 54.2184 11.3046 54.0921 11.3195 53.9676C11.3578 53.7908 11.4434 53.6278 11.5671 53.496C11.6238 53.5426 11.6902 53.576 11.7614 53.5938C11.8922 53.8098 12.0597 54.0012 12.2565 54.1594C12.9483 54.6025 13.5907 55.0258 14.3605 55.3451C14.8373 55.5472 15.3244 55.724 15.8198 55.8748C16.0586 55.9466 16.3458 56.0555 16.6069 56.0469C17.6248 56.3438 18.7176 56.2416 19.6628 55.761C20.2358 55.4813 19.7346 54.6272 19.1677 54.9057C18.7875 55.0944 18.3725 55.2027 17.9486 55.2238C17.9325 55.2238 17.9177 55.2139 17.9003 55.2114L17.3619 55.1359C17.4038 55.1173 17.4486 55.106 17.4944 55.1025C19.2989 54.9181 20.4648 53.6544 21.7607 52.5925C21.8981 52.4799 22.1728 52.2942 22.1939 52.3165C23.0231 53.2175 24.0776 52.3053 24.9811 52.6878C25.8574 53.0591 26.6434 52.5405 27.4157 52.1754C28.4232 51.6989 29.5012 52.0293 30.5433 52.1754C31.0384 52.2435 31.4555 51.7001 31.9815 51.9885C31.9444 51.9675 31.3292 52.5813 31.25 52.6482C30.427 53.3475 29.4244 53.6123 28.4665 54.0591C27.1665 54.6765 25.9521 55.4599 24.8537 56.3897C24.4964 56.6892 24.1498 56.9999 23.814 57.3217C23.6358 57.4913 23.335 58.1101 23.5727 58.3118C23.8103 58.5136 24.288 58.2945 24.5554 58.245C25.8698 57.9975 27.2436 58.245 28.4875 57.6373C30.6126 56.6026 33.1103 56.9244 34.3269 58.3007C34.8765 58.9195 35.1488 59.6721 34.8752 60.4134C34.6277 61.0744 33.822 61.0224 33.2464 61.0236C32.2971 61.0236 31.2859 60.5929 30.4109 60.8021C27.8947 61.4048 25.5492 61.3071 23.3325 59.8849C22.1023 59.0953 21.752 59.8367 21.7656 60.8751C21.7929 63.7465 23.7732 65.5758 25.4527 67.5561C26.8203 69.1651 28.8217 70.0984 29.719 72.2742C30.573 74.3411 32.8256 74.184 34.6425 74.0342C36.3976 73.8894 37.0857 72.3918 37.3593 70.7939C37.4397 70.3261 37.9905 69.5377 37.3345 69.4176C36.5795 69.279 36.2132 70.1157 36.1488 70.8595C36.0981 71.4425 35.7961 71.7927 35.2824 71.9239C34.7106 72.0688 33.9606 72.3113 33.6054 71.7606C32.9246 70.7073 31.8305 70.81 30.8713 70.5093C30.6238 70.4325 30.3762 70.3508 30.1287 70.2716C30.2648 70.06 30.3861 69.836 30.5421 69.6392C30.9889 69.0822 31.5124 68.8619 32.2748 69.0079C33.0732 69.1602 33.9989 69.0302 34.5324 68.4485C34.822 68.1341 34.5918 67.8396 34.348 67.592C33.9333 67.1712 33.7848 66.7863 33.6536 66.2182C33.562 65.8184 34.2873 65.8679 34.5076 65.8853C35.176 65.936 35.8394 65.9892 36.509 66.0214C36.6677 66.0193 36.8261 66.006 36.983 65.9818C36.8798 66.1185 36.7673 66.2479 36.6464 66.3692C36.1203 66.8284 36.2354 67.4311 36.5808 67.8024C36.8456 68.0871 37.0362 67.5549 37.2058 67.399C37.6501 66.9781 38.1749 66.6774 38.5672 66.1835C38.9232 65.7217 39.2009 65.2044 39.3891 64.6525C39.6563 63.925 39.7701 63.15 39.7232 62.3764C39.6923 61.9952 39.4757 60.4555 38.8074 60.9692C38.139 61.4828 37.3679 61.3491 36.6142 61.2712C36.5605 60.7365 36.5304 60.2001 36.5238 59.6622C36.5312 59.4926 36.5424 59.323 36.5622 59.1535C36.6513 58.3614 37.0325 57.7301 37.4088 57.0803C38.1207 56.3537 38.9949 55.8065 39.9596 55.4837C40.0446 55.4432 40.1187 55.383 40.1758 55.3081C40.2328 55.2332 40.2712 55.1457 40.2876 55.053C40.3198 54.0381 40.3532 52.939 39.7171 52.1333C39.4695 51.8214 39.0165 51.2397 39.3519 50.8424C39.7381 50.3844 40.4659 50.2384 41.0377 50.2161C41.3446 50.205 41.9635 50.2248 42.0959 50.5701C42.21 50.3829 42.276 50.1702 42.2877 49.9513C42.274 49.6765 42.2241 49.4047 42.1392 49.143C41.987 48.5403 41.7679 47.9549 41.581 47.3633C41.3657 46.6986 41.0414 46.206 40.2715 46.1862C40.0511 46.1852 39.8327 46.2299 39.6304 46.3175C39.428 46.405 39.246 46.5335 39.0957 46.6949C38.931 46.8625 38.801 47.0611 38.7133 47.2791C38.6614 47.3929 38.6352 47.5167 38.6366 47.6417C38.6366 47.7742 38.7603 47.8744 38.7244 48.013C38.7244 48.0279 38.7182 48.0415 38.7158 48.0551C38.5705 48.164 38.4216 48.2664 38.269 48.3621C37.6973 48.3581 37.1268 48.3113 36.5622 48.2222C36.5982 48.1376 36.61 48.0446 36.5961 47.9536C36.5822 47.8627 36.5433 47.7774 36.4836 47.7073C36.424 47.6373 36.346 47.5853 36.2585 47.5571C36.1709 47.5288 36.0772 47.5256 35.9879 47.5477L35.6055 47.6318C35.5346 47.6473 35.4682 47.6786 35.4111 47.7234L34.869 47.7544C34.7452 47.7584 34.6272 47.8077 34.5373 47.893L32.5348 48.3113C32.4613 48.326 32.3931 48.36 32.3372 48.4098C32.2813 48.4596 32.2397 48.5235 32.2167 48.5948L32.1152 48.617C32.0941 47.7247 31.6795 46.8496 30.8305 46.4152C29.9133 45.9461 28.943 45.6602 27.959 45.3743C26.5357 44.9609 25.194 45.1131 24.069 46.1404C23.1457 46.9833 23.0553 48.5774 23.7831 49.5775C23.2985 49.6561 22.8188 49.7619 22.3461 49.8943C21.9575 50.0032 21.9055 50.4847 22.1307 50.7261C21.1295 50.9513 20.1504 51.2607 19.1479 51.481C18.8489 51.5445 18.5464 51.5904 18.2419 51.6184C17.7171 51.6358 17.1932 51.6316 16.6701 51.606C17.0277 51.4493 17.319 51.1721 17.4931 50.8226C17.8622 50.4096 18.1319 49.9177 18.2815 49.3844C18.2979 49.3093 18.2976 49.2316 18.2805 49.1566C18.2635 49.0817 18.2302 49.0114 18.1829 48.9508C18.1357 48.8902 18.0756 48.8408 18.0071 48.806C17.9386 48.7712 17.8633 48.7519 17.7865 48.7495C17.7127 48.7026 17.6274 48.6771 17.54 48.6758C17.4526 48.6745 17.3665 48.6974 17.2914 48.742C17.1676 48.8151 17.0438 48.8918 16.9201 48.9698C16.8543 48.9177 16.7747 48.886 16.6912 48.8785C16.6076 48.8711 16.5237 48.8881 16.4498 48.9277C16.7505 47.9722 16.5636 46.815 16.0203 45.9015C15.9682 45.8137 15.8898 45.7444 15.7963 45.7035C15.7487 45.6308 15.6852 45.5699 15.6106 45.5253C15.316 45.3235 15.0871 45.5562 14.8395 45.6701C14.6205 45.4003 14.6068 44.7752 14.6539 44.5228C14.7776 43.8792 15.0759 43.592 15.644 43.321C16.8565 42.7503 18.1189 42.2925 19.4153 41.9533C21.9414 41.2829 24.5618 41.0395 27.1681 41.233C27.6137 41.2652 27.7449 40.7874 27.5654 40.4842C27.813 40.4842 28.0605 40.4768 28.3081 40.4842L28.9739 40.5188C29.4067 40.5507 29.8368 40.6123 30.2611 40.7033C32.0409 41.0919 33.4791 42.2751 35.0992 43.0549C35.191 43.1009 35.2947 43.1176 35.3963 43.1028C35.4979 43.088 35.5925 43.0423 35.6673 42.9719C35.8043 43.0346 35.9453 43.0879 36.0894 43.1316C36.5956 43.2851 36.8778 42.6501 36.5696 42.3122L36.6055 42.3358L36.5548 42.2962C36.5292 42.2702 36.501 42.247 36.4706 42.2268L36.4508 42.2132L36.2515 42.0548C36.2367 41.9583 36.1936 41.8683 36.1278 41.7961C35.9867 41.6329 35.7871 41.5315 35.572 41.5139C35.1611 41.1897 34.7477 40.8703 34.3257 40.5634C33.9185 40.2305 33.5076 39.9037 33.0719 39.6067C32.2159 39.0215 31.2458 38.6241 30.2252 38.4408C28.1212 37.8677 26.0233 38.5064 23.9477 38.4618C20.2891 38.3838 17.1689 39.8233 14.0462 41.2293C13.8827 41.278 13.7237 41.3405 13.5709 41.4162C13.5073 41.4488 13.4458 41.4852 13.3865 41.5251L13.0684 41.6674C11.52 42.3506 10.1227 43.7158 9.88258 45.7134C9.84174 46.0476 9.99274 46.2332 10.2675 46.4065ZM40.1948 48.091C40.2183 48.0671 40.2394 48.041 40.2579 48.013L40.2654 48.0353C40.248 48.0564 40.2332 48.0786 40.2158 48.0997C40.1985 48.1207 40.1552 48.1764 40.1255 48.2234L40.0426 48.2371C40.0933 48.1876 40.1453 48.1418 40.1948 48.091Z"
       fill="#C4C3C6"
       id="path3370" />
    <path
       d="M10.2713 55.0221C10.2069 54.5394 10.0683 54.0653 9.85912 53.1123C9.71307 56.1954 10.4606 57.6138 12.2689 58.1868C12.5947 58.2695 12.9254 58.3311 13.2591 58.3712C13.1848 58.1675 13.059 57.9865 12.8939 57.846C12.7288 57.7054 12.5301 57.61 12.3172 57.5692C10.8567 57.3291 10.4421 56.2932 10.2713 55.0221Z"
       fill="#C4C3C6"
       id="path3372" />
    <path
       d="M9.994 49.6392C10.3777 49.5798 10.4309 49.3595 10.3331 49.0265C10.2799 48.8409 10.3096 48.3718 10.291 47.9126C10.27 47.3594 10.1784 46.8247 9.78112 46.8432C9.29842 46.8655 9.19446 47.524 9.25387 47.9572C9.34174 48.5958 9.33555 49.7431 9.994 49.6392Z"
       fill="#C4C3C6"
       id="path3374" />
    <path
       d="M27.8057 59.3875C27.9613 59.4058 28.1181 59.4124 28.2747 59.4073C28.572 59.3961 28.8682 59.3639 29.1609 59.3107C29.5706 59.2426 29.9914 59.1498 30.286 58.8305C30.4097 58.7067 29.7303 58.4889 29.3812 58.5075C28.6597 58.5471 27.9591 58.6807 27.4863 59.3194C27.4863 59.3194 27.7524 59.3788 27.8007 59.3862L27.8057 59.3875Z"
       fill="#C4C3C6"
       id="path3376" />
    <path
       d="M24.6173 53.5603C24.4935 53.611 24.1445 53.3585 24.0158 53.3128C23.7647 53.2409 23.5005 53.2274 23.2434 53.2731C22.7484 53.3474 22.2669 53.5603 21.8189 53.7682C21.3238 53.996 20.7507 54.2918 20.5812 54.8512C20.549 54.9564 20.5589 55.0715 20.4834 55.1606C20.7545 55.1173 21.0589 54.8846 21.3003 54.746C21.9191 54.3945 22.538 53.9774 23.2472 53.8326C23.7039 53.7447 24.1816 53.741 24.6173 53.5603Z"
       fill="#C4C3C6"
       id="path3378" />
    <path
       d="M12.1662 51.3C12.1962 51.3241 12.2296 51.3437 12.2653 51.3582C12.566 51.482 12.9881 51.3334 13.3111 51.3681C14.1323 51.4412 14.9074 51.7796 15.5191 52.3322C15.7803 52.5724 15.9659 52.9511 16.2617 53.1405C16.539 53.3187 16.8806 53.2729 17.1814 53.2011C17.8646 53.0395 18.5322 52.8179 19.1765 52.5389C19.4476 52.4214 19.6926 52.2134 19.9897 52.1602C20.1035 52.1404 20.2966 52.1218 20.3709 52.2382C20.4451 52.3545 20.2582 52.586 20.413 52.6875C20.5491 52.7778 21.2261 52.3347 21.3474 52.2568C21.7905 51.9696 22.1952 51.628 22.6358 51.3371C23.4688 50.7864 24.4515 50.4015 25.459 50.3878C26.5432 50.3742 27.672 50.6354 28.7513 50.7443C29.6919 50.8421 30.7068 51.0723 31.6413 50.826C32.059 50.712 32.4493 50.5146 32.7886 50.2455C32.9862 50.0671 33.1734 49.8774 33.3493 49.6774C33.4574 49.5539 33.5902 49.4544 33.7391 49.3853C33.9867 49.316 33.9223 49.5982 33.8778 49.7962C33.754 50.3718 33.3022 50.8161 33.0114 51.3112C32.7694 51.7002 32.5667 52.1123 32.4062 52.5414C32.2824 52.9127 32.2576 53.3125 32.0992 53.6739C31.6314 54.7346 30.4506 54.8101 29.4926 55.1591C29.109 55.299 28.5644 55.4809 28.3193 55.8337C27.948 56.3721 28.7748 56.5429 29.1436 56.533C29.63 56.5206 30.1164 56.533 30.6041 56.5144C31.0447 56.4946 31.4816 56.4092 31.9235 56.4191C32.6255 56.4415 33.3075 56.6592 33.8926 57.0478C34.4561 57.4391 34.9709 57.8962 35.4261 58.4093C35.6402 58.6346 35.9744 58.8895 36.1266 59.1519C36.2653 59.3995 36.1403 59.7497 36.0623 59.9973C35.9447 60.3686 35.7541 60.7164 35.6737 61.1025C35.5967 61.5249 35.5934 61.9575 35.6638 62.381C35.7875 63.2239 36.0239 64.0222 36.0202 64.8799C36.0051 65.0283 36.0473 65.1769 36.1382 65.2952C36.2291 65.4135 36.3618 65.4925 36.5091 65.5161C36.8024 65.5867 37.1279 65.5161 37.0908 65.1658C37.0549 64.7797 36.9262 64.3799 36.8742 63.99C36.8099 63.5012 36.7504 63.011 36.696 62.5197C36.5895 61.5914 36.4621 60.652 36.4484 59.7151C36.4567 59.2446 36.536 58.7781 36.6836 58.3313C36.7987 57.96 37.071 57.606 37.0958 57.2174C37.1082 56.8216 37.2012 56.4324 37.3693 56.0738C37.5512 55.6703 37.7183 55.252 37.6874 54.8002C37.6564 54.3484 37.4757 53.9202 37.6094 53.4511C37.7332 53.0179 37.9671 52.6293 38.0475 52.1813C38.1837 51.4213 37.9857 50.8198 37.3049 50.4485C36.6502 50.0772 35.9757 49.7059 35.4967 49.1093C35.2689 48.8271 35.0437 48.457 35.0585 48.0796C35.4583 48.1253 35.8098 48.6452 36.1242 48.8605C36.4663 49.0994 36.8525 49.2677 37.2604 49.3556C37.9869 49.5029 39.1169 49.3989 39.664 48.8457C40.0204 48.4868 40.2358 47.9966 40.5662 47.6191C40.7779 47.8122 40.6479 48.2244 40.4982 48.4224C40.4078 48.5462 40.1392 48.6353 40.1355 48.8036C40.1355 49.0672 40.5625 49.1006 40.7321 49.0338C41.0279 48.91 41.2346 48.5734 41.3225 48.2838C41.4289 47.9323 41.3732 47.5696 41.3014 47.2181C41.2371 46.9025 41.1653 46.4161 40.9573 46.1587C40.7494 45.9012 40.2494 45.7057 39.9672 45.499C39.6528 45.2737 39.3484 45.0039 39.0501 44.7564C38.7518 44.5088 38.5649 44.1499 38.2827 43.8739C38.0005 43.5979 37.7035 43.3169 37.4052 43.0471C36.8434 42.5523 36.246 42.0993 35.618 41.6918C34.4929 40.9319 33.3901 40.1299 32.1809 39.5024C30.8615 38.8179 29.458 38.4008 27.9653 38.3946C26.4046 38.3885 24.8451 38.6496 23.2869 38.7263C21.8942 38.7775 20.5142 39.0118 19.1827 39.4232C18.5209 39.6358 17.8787 39.905 17.263 40.2277C16.7878 40.4752 16.3397 40.7859 15.8248 40.9505C15.008 41.2091 14.1119 41.12 13.4225 41.7154C12.4323 42.5706 14.2418 42.953 14.3409 43.6957C14.4139 44.2415 13.6218 46.2651 14.8916 45.6623C15.2543 45.4903 15.7815 45.291 15.8088 45.8827C15.8224 46.1648 15.654 46.5634 15.9573 46.7428C16.0984 46.8258 16.2791 46.7924 16.388 46.9446C16.4969 47.0968 16.4486 47.2713 16.4202 47.4236C16.3212 47.9583 16.1244 48.5202 15.6776 48.8605C15.449 49.0272 15.1821 49.1337 14.9015 49.17C14.7344 49.1947 14.5711 49.186 14.4065 49.1947C14.1985 49.2046 14.2183 49.1947 14.1713 49.3643C14.0946 49.6489 14.1428 49.9745 13.8916 50.1923C13.6007 50.4398 13.1935 50.2443 12.9014 50.1056C12.6638 49.9943 12.3036 49.743 12.0487 49.9398C11.8457 50.097 11.8741 50.4349 11.9088 50.6539C11.9435 50.873 11.9843 51.1527 12.1662 51.3ZM31.7217 48.7962C31.8962 49.7133 29.3701 49.5388 28.9456 49.493C27.7364 49.3692 26.4306 49.0375 25.438 48.3073C26.7314 48.5115 27.9307 48.2986 29.255 48.2603C29.7278 48.2466 31.4927 48.1365 31.6957 48.7058C31.7082 48.735 31.7181 48.7653 31.7254 48.7962H31.7217ZM15.3842 49.4014C15.5612 49.4559 15.7147 49.5945 15.9288 49.613C16.2419 49.6403 16.5415 49.4893 16.8076 49.3457C17.0464 49.2145 17.5824 49.1081 17.7866 49.3593C18.0341 49.6601 17.5601 50.5364 17.2383 50.6428C16.8893 50.7567 16.5452 50.5042 16.2803 50.3086C15.9857 50.0908 15.6454 49.9373 15.357 49.7282C15.1899 49.597 15.0067 49.2826 15.3917 49.4014H15.3842Z"
       fill="white"
       id="path3380" />
    <path
       d="M17.9066 55.6263C17.4356 55.6202 16.9819 55.4479 16.6256 55.1399C16.2543 54.7872 16.0921 54.2736 15.8669 53.8292C15.5723 53.2463 15.1242 52.6571 14.5376 52.344C14.2499 52.1826 13.9135 52.1312 13.5908 52.1992C13.3036 52.2685 12.9298 52.5123 13.0845 52.8552C13.1972 53.1089 13.5635 53.1708 13.7801 53.3044C14.8111 53.9406 15.3049 55.1474 16.3038 55.8169C16.4256 55.8982 16.5564 55.965 16.6936 56.0162C17.2031 56.1968 17.7564 56.2129 18.2754 56.062C18.6393 55.958 19.0279 55.885 19.3683 55.7056C19.4698 55.6511 19.7656 55.4964 19.7396 55.3342C19.6975 55.1177 19.0935 55.4184 18.9908 55.458C18.6447 55.5876 18.2757 55.6449 17.9066 55.6263Z"
       fill="white"
       id="path3382" />
    <path
       d="M24.2286 63.5411C24.9372 64.1855 25.7151 64.7492 26.548 65.2219C27.7746 65.8939 28.9318 66.6799 30.2809 67.1663C30.8861 67.3841 31.5458 67.29 32.1597 67.4633C32.4542 67.5436 32.7221 67.7008 32.9357 67.9188C33.14 68.1205 33.2971 68.3532 33.6103 68.1663C34.0138 67.9312 33.6276 67.3668 33.4989 67.0697C33.2798 66.5672 33.0533 66.0684 32.8417 65.5622C32.6139 65.0201 32.5422 64.4137 33.0397 64.0337C33.5373 63.6537 34.1375 63.2911 33.7118 62.6351C33.2266 61.8813 32.3639 61.6796 31.526 61.9408C29.891 62.4507 28.2833 62.8071 26.605 62.1128C25.9143 61.8269 25.3499 61.2303 24.5306 61.2464C23.3808 61.2835 23.5875 62.9767 24.2286 63.5411Z"
       fill="white"
       id="path3384" />
    <path
       d="M10.7628 51.9337C10.7912 52.2135 10.8172 52.4932 10.8358 52.7729C10.8432 52.888 10.8469 53.1974 11.04 53.1331C11.8037 52.8793 11.3073 51.9572 11.4979 51.3434C11.6217 50.9609 11.269 50.6589 11.0029 50.7555C10.6563 50.8792 10.6984 51.1886 10.7256 51.4906C10.7331 51.6392 10.7479 51.7864 10.7628 51.9337Z"
       fill="white"
       id="path3386" />
    <path
       d="M26.0972 51.7808C25.7259 51.6694 25.3546 51.5333 24.9833 51.454C24.7622 51.4034 24.5314 51.4146 24.3162 51.4862C23.9238 51.6397 23.2023 51.532 23.2344 52.0172C23.2592 52.3328 23.8879 51.9207 24.2543 51.9182C24.5192 51.9182 24.7853 51.8971 25.5737 51.8625H25.5662L26.0972 51.7808Z"
       fill="white"
       id="path3388" />
    <path
       d="M35.4483 65.2692C35.4854 64.8768 35.1129 64.7667 34.7515 64.7827C34.39 64.7988 33.9531 64.8719 33.9581 65.2692C33.9574 65.3001 33.9611 65.3309 33.9692 65.3608C34.0187 65.5316 34.2007 65.5402 34.3504 65.5365C34.4321 65.5365 34.5547 65.5489 34.6871 65.56C35.0176 65.586 35.4186 65.5897 35.4483 65.2692Z"
       fill="white"
       id="path3390" />
    <path
       d="M12.4771 53.175C12.4977 53.1209 12.5053 53.0627 12.4994 53.0051C12.4935 52.9475 12.4742 52.892 12.4431 52.8432C12.4119 52.7944 12.3698 52.7535 12.32 52.7239C12.2703 52.6942 12.2143 52.6767 12.1565 52.6725C11.8471 52.623 11.6862 52.9139 11.7382 53.1911C12.003 53.2419 12.3434 53.5699 12.4771 53.175Z"
       fill="white"
       id="path3392" />
    <path
       d="M13.0253 48.3597C12.9015 48.538 13.2629 48.9018 13.4473 48.8858C13.6317 48.8697 13.7419 48.6506 13.8038 48.5045C13.8357 48.4246 13.8597 48.3416 13.8756 48.257C13.9412 47.9352 13.9313 47.4958 13.5699 47.502C13.0228 47.5144 13.2134 48.0788 13.0253 48.3597Z"
       fill="white"
       id="path3394" />
    <path
       d="M13.0302 44.3251C13.0948 44.3395 13.1616 44.3409 13.2267 44.3291C13.2918 44.3173 13.3539 44.2925 13.4093 44.2563C13.4647 44.22 13.5123 44.1731 13.5492 44.1181C13.5861 44.0632 13.6116 44.0014 13.6243 43.9365C13.6286 43.9061 13.6286 43.8752 13.6243 43.8449C13.5859 43.4847 13.0772 43.3127 12.7802 43.2755C12.5413 43.2446 12.0475 43.2755 12.1613 43.5231C12.3012 43.8226 12.6985 44.2335 13.0302 44.3251Z"
       fill="white"
       id="path3396" />
  </g>
  <path
     d="M27 91C11.536 91 -1 78.464 -1 63H-9C-9 82.8823 7.11775 99 27 99V91ZM55 63C55 78.464 42.464 91 27 91V99C46.8823 99 63 82.8823 63 63H55ZM27 35C42.464 35 55 47.536 55 63H63C63 43.1177 46.8823 27 27 27V35ZM27 27C7.11775 27 -9 43.1177 -9 63H-1C-1 47.536 11.536 35 27 35V27Z"
     fill="black"
     id="path3400" />
  <defs
     id="defs3411">
    <clipPath
       id="clip0">
      <path
         d="M290 24C290 10.7452 300.745 0 314 0V0C327.255 0 338 10.7452 338 24V24C338 37.2548 327.255 48 314 48V48C300.745 48 290 37.2548 290 24V24Z"
         fill="white"
         id="path3402" />
    </clipPath>
    <clipPath
       id="clip1">
      <rect
         width="51.75"
         height="58.875"
         fill="white"
         transform="translate(287.375 2.625)"
         id="rect3405" />
    </clipPath>
    <clipPath
       id="clip2">
      <path
         d="M-5 63C-5 45.3269 9.32689 31 27 31V31C44.6731 31 59 45.3269 59 63V63C59 80.6731 44.6731 95 27 95V95C9.32689 95 -5 80.6731 -5 63V63Z"
         fill="white"
         id="path3408" />
    </clipPath>
  </defs>
</svg>
