<svg width="1440" height="40" viewBox="0 0 1440 40" fill="none" xmlns="http://www.w3.org/2000/svg">
<rect width="1440" height="40" fill="black"/>
<path d="M960 40.001L920 40.001L920 0.000973066C942.091 0.000974997 960 17.91 960 40.001Z" fill="#1F242C"/>
<path fill-rule="evenodd" clip-rule="evenodd" d="M1000 35.5544V40.001H960.001V35.5544H1000ZM1000 31.1122V26.6678H960V31.1122H1000ZM1000 22.2232V17.7787H960V22.2232H1000ZM1000 8.88998V13.3344H960V8.88998H1000ZM1000 4.44534V0.000892639H960V4.44534H1000Z" fill="#1F242C"/>
<path fill-rule="evenodd" clip-rule="evenodd" d="M760 35.5534V40L720 40V35.5534L760 35.5534ZM760 31.1113V26.6668L720 26.6668V31.1113L760 31.1113ZM760 22.2222V17.7777L720 17.7777V22.2222L760 22.2222ZM760 8.889V13.3334L720 13.3334V8.889L760 8.889ZM760 4.44436V-8.39233e-05L720 -8.39233e-05V4.44436L760 4.44436Z" fill="white"/>
<path fill-rule="evenodd" clip-rule="evenodd" d="M920 4.44545L920 0.000978311C897.909 0.000977345 880 17.9098 880 40.0009L884.445 40.0009C884.445 20.3632 900.363 4.44545 920 4.44545ZM920 13.3345L920 8.89004C902.818 8.89004 888.889 22.8188 888.889 40.001L893.334 40.001C893.334 25.2743 905.274 13.3345 920 13.3345ZM920 17.7788L920 22.2232C910.182 22.2232 902.222 30.183 902.222 40.0008L897.778 40.0008C897.778 27.7275 907.727 17.7788 920 17.7788ZM920 31.1121L920 26.668C912.635 26.668 906.667 32.6366 906.667 40.001L911.111 40.001C911.111 35.0921 915.091 31.1121 920 31.1121ZM920 40.0011L920 35.5566C917.545 35.5566 915.556 37.5456 915.556 40.0011L920 40.0011Z" fill="#2F2FF4"/>
<path fill-rule="evenodd" clip-rule="evenodd" d="M160 4.44643L160 0.00195265C137.909 0.00195291 120 17.9108 120 40.0019L124.444 40.0019C124.444 20.3642 140.362 4.44643 160 4.44643ZM160 13.3355L160 8.89102C142.818 8.89102 128.889 22.8198 128.889 40.002L133.333 40.002C133.333 25.2753 145.273 13.3355 160 13.3355ZM160 17.7797L160 22.2242C150.182 22.2242 142.222 30.184 142.222 40.0017L137.778 40.0017C137.778 27.7285 147.726 17.7797 160 17.7797ZM160 31.1131L160 26.6689C152.635 26.6689 146.666 32.6376 146.666 40.002L151.111 40.002C151.111 35.0931 155.091 31.1131 160 31.1131ZM160 40.0021L160 35.5576C157.544 35.5576 155.555 37.5466 155.555 40.0021L160 40.0021Z" fill="#1F242C"/>
<path fill-rule="evenodd" clip-rule="evenodd" d="M4.44662 0.000553131H0V40.0006H4.44662V0.000553131ZM17.7824 0.00143814H22.2291V40.0015H17.7824V0.00143814ZM31.1179 0.00143814H26.6713V40.0015H31.1179V0.00143814ZM40 0.00143814H35.5534V40.0015H40V0.00143814ZM8.89356 0.00143814H13.3402V40.0015H8.89356V0.00143814Z" fill="#1F242C"/>
<path fill-rule="evenodd" clip-rule="evenodd" d="M286.447 0.000553131H282V40.0006H286.447V0.000553131ZM299.782 0.00143814H304.229V40.0015H299.782V0.00143814ZM313.118 0.00143814H308.671V40.0015H313.118V0.00143814ZM322 0.00143814H317.553V40.0015H322V0.00143814ZM290.894 0.00143814H295.34V40.0015H290.894V0.00143814Z" fill="white"/>
<path fill-rule="evenodd" clip-rule="evenodd" d="M365.133 0.000644684H362V3.13396L398.866 40.0005H402V36.8672L365.133 0.000644684ZM392.577 40.0005H386.289L362 15.7117V9.42286L392.577 40.0005ZM373.711 40.0005H380L362 22.0006V28.2894L373.711 40.0005ZM362 40.0005V34.5783L367.422 40.0005H362ZM402 30.5782V24.2894L377.711 0.000564575H371.422L402 30.5782ZM402 11.7122V18.001L384 0.00104523H390.289L402 11.7122ZM396.577 0.00062561L402 5.42285V0.00062561H396.577Z" fill="#1F242C"/>
<path d="M1240 40.0005L1200 40.0005L1200 0.000484784C1222.09 0.000486716 1240 17.9095 1240 40.0005Z" fill="#2F2FF4"/>
<path fill-rule="evenodd" clip-rule="evenodd" d="M1280 35.5539V40.0005H1240V35.5539H1280ZM1280 31.1118V26.6673H1240V31.1118H1280ZM1280 22.2227V17.7782H1240V22.2227H1280ZM1280 8.88949V13.3339H1240V8.88949H1280ZM1280 4.44485V0.000404358H1240V4.44485H1280Z" fill="#1F242C"/>
<path fill-rule="evenodd" clip-rule="evenodd" d="M1124.45 40.001L1120 40.001L1120 0.000976562L1124.45 0.000976757L1124.45 40.001ZM1128.89 40.0005L1133.33 40.0005L1133.33 0.000488864L1128.89 0.00048867L1128.89 40.0005ZM1137.78 40.0005L1142.22 40.0005L1142.22 0.000489253L1137.78 0.000489058L1137.78 40.0005ZM1151.11 40.0005L1146.67 40.0005L1146.67 0.000489447L1151.11 0.000489641L1151.11 40.0005ZM1155.56 40.0005L1160 40.0005L1160 0.00049003L1155.56 0.000489835L1155.56 40.0005Z" fill="white"/>
<path fill-rule="evenodd" clip-rule="evenodd" d="M1200 4.44496L1200 0.00049003C1177.91 0.000489064 1160 17.9093 1160 40.0004L1164.44 40.0004C1164.44 20.3627 1180.36 4.44496 1200 4.44496ZM1200 13.334L1200 8.88955C1182.82 8.88955 1168.89 22.8183 1168.89 40.0005L1173.33 40.0005C1173.33 25.2739 1185.27 13.334 1200 13.334ZM1200 17.7783L1200 22.2227C1190.18 22.2227 1182.22 30.1825 1182.22 40.0003L1177.78 40.0003C1177.78 27.727 1187.73 17.7783 1200 17.7783ZM1200 31.1116L1200 26.6675C1192.64 26.6675 1186.67 32.6361 1186.67 40.0005L1191.11 40.0005C1191.11 35.0917 1195.09 31.1116 1200 31.1116ZM1200 40.0006L1200 35.5562C1197.54 35.5562 1195.56 37.5451 1195.56 40.0006L1200 40.0006Z" fill="#1F242C"/>
<path fill-rule="evenodd" clip-rule="evenodd" d="M1391.11 26.661H1386.67V22.2255H1391.11V17.7789H1386.67V13.3323H1391.11V8.89681H1395.55V4.45025H1391.11V8.88579H1386.67V4.45025H1391.11V0.00120544H1386.66V4.44776H1382.22V8.8833H1377.78V4.44776H1373.33V8.8833H1368.9V4.44776H1373.33V0.00120544H1368.88V4.44776H1364.45V0.00120544H1360V4.44776H1364.45V8.8833H1360V13.3302H1364.45V17.7768H1360V22.2233H1364.45V26.6589V26.6699H1368.88V31.1054H1373.33V26.6699H1377.78V31.1054H1382.22V26.6699H1386.66V31.1054H1391.1V26.6699H1395.55V22.2233H1391.1V26.661H1391.11ZM1364.45 26.6716V31.1075H1360V26.6606H1364.45V26.6716ZM1377.78 4.44725V0.00069809H1382.22V4.44725H1377.78ZM1391.11 13.3303V17.7769H1395.55V13.3303H1391.11ZM1368.88 8.89419H1364.45V13.3301H1368.88V8.89419ZM1368.89 31.1069V35.5534H1373.33V31.1069H1377.78V35.5534H1382.22V31.1069H1386.67V35.5534H1391.1V31.1069H1395.55V35.5534H1391.1V40H1386.66V35.5534H1382.22V40H1377.78V35.5534H1373.33V40H1368.88V35.5534H1364.45V40H1360V35.5534H1364.45V31.1069H1368.89ZM1386.66 22.2251V17.7786H1382.22V22.2251H1386.66ZM1377.78 22.2251V26.6606H1382.22V22.2251H1377.78ZM1373.33 22.2251H1377.78V17.7785H1373.33V22.2251ZM1373.33 22.2251H1368.89V26.6606H1373.33V22.2251ZM1373.33 13.3303H1368.89V17.7769H1373.33V13.3303ZM1377.78 13.3301V8.89419H1373.33V13.3301H1377.78ZM1382.22 13.3303H1377.78V17.7769H1382.22V13.3303ZM1382.22 13.3301H1386.66V8.89419H1382.22V13.3301ZM1368.88 17.7761V22.2227H1364.45V17.7761H1368.88ZM1400 4.44725H1395.55V0.00069809H1400V4.44725ZM1395.55 13.3301H1400V8.88317H1395.55V13.3301ZM1400 22.2251H1395.55V17.7785H1400V22.2251ZM1395.55 31.1075H1400V26.6606H1395.55V31.1075ZM1395.55 40.0005H1400V35.5539H1395.55V40.0005Z" fill="white"/>
<path fill-rule="evenodd" clip-rule="evenodd" d="M831.107 26.661H826.671V22.2255H831.107V17.7789H826.671V13.3323H831.107V8.89681H835.553V4.45025H831.107V8.88579H826.671V4.45025H831.107V0.00120544H826.66V4.44776H822.224V8.8833H817.778V4.44776H813.331V8.8833H808.896V4.44776H813.331V0.00120544H808.884V4.44776H804.449V0.00120544H800V4.44776H804.447V8.8833H800V13.3302H804.447V17.7768H800V22.2233H804.447V26.6589V26.6699H808.882V31.1054H813.329V26.6699H817.775V31.1054H822.222V26.6699H826.658V31.1054H831.104V26.6699H835.551V22.2233H831.104V26.661H831.107ZM804.447 26.6716V31.1075H800V26.6606H804.447V26.6716ZM817.776 4.44725V0.00069809H822.223V4.44725H817.776ZM831.107 13.3303V17.7769H835.553V13.3303H831.107ZM808.882 8.89419H804.447V13.3301H808.882V8.89419ZM808.893 31.1069V35.5534H813.329V31.1069H817.776V35.5534H822.222V31.1069H826.669V35.5534H831.105V31.1069H835.551V35.5534H831.105V40H826.658V35.5534H822.222V40H817.776V35.5534H813.329V40H808.882V35.5534H804.447V40H800V35.5534H804.447V31.1069H808.893ZM826.658 22.2251V17.7785H822.223V22.2251H826.658ZM817.776 22.2251V26.6606H822.223V22.2251H817.776ZM813.329 22.2251H817.775V17.7785H813.329V22.2251ZM813.329 22.2251H808.894V26.6606H813.329V22.2251ZM813.329 13.3303H808.894V17.7769H813.329V13.3303ZM817.775 13.3301V8.89419H813.329V13.3301H817.775ZM822.225 13.3303H817.778V17.7769H822.225V13.3303ZM822.225 13.3301H826.66V8.89419H822.225V13.3301ZM808.882 17.7761V22.2227H804.447V17.7761H808.882ZM840 4.44725H835.553V0.00069809H840V4.44725ZM835.553 13.3301H840V8.88317H835.553V13.3301ZM840 22.2251H835.553V17.7785H840V22.2251ZM835.553 31.1075H840V26.6606H835.553V31.1075ZM835.553 40.0005H840V35.5539H835.553V40.0005Z" fill="#1F242C"/>
<path fill-rule="evenodd" clip-rule="evenodd" d="M111.107 26.661H106.671V22.2255H111.107V17.7789H106.671V13.3323H111.107V8.89681H115.553V4.45025H111.107V8.88579H106.671V4.45025H111.107V0.00120544H106.66V4.44776H102.224V8.8833H97.7779V4.44776H93.3313V8.8833H88.8957V4.44776H93.3313V0.00120544H88.8843V4.44776H84.4491V0.00120544H80V4.44776H84.4466V8.8833H80V13.3302H84.4466V17.7768H80V22.2233H84.4466V26.6589V26.6699H88.8822V31.1054H93.3288V26.6699H97.7754V31.1054H102.222V26.6699H106.658V31.1054H111.104V26.6699H115.551V22.2233H111.104V26.661H111.107ZM84.4466 26.6716V31.1075H80V26.6606H84.4466V26.6716ZM97.7756 4.44725V0.00069809H102.223V4.44725H97.7756ZM111.107 13.3303V17.7769H115.553V13.3303H111.107ZM88.882 8.89419H84.4465V13.3301H88.882V8.89419ZM88.8934 31.1069V35.5534H93.329V31.1069H97.7756V35.5534H102.223V31.1069H106.669V35.5534H111.105V31.1069H115.551V35.5534H111.105V40H106.658V35.5534H102.223V40H97.7756V35.5534H93.329V40H88.8824V35.5534H84.4468V40H80.0002V35.5534H84.4468V31.1069H88.8934ZM106.658 22.2251V17.7785H102.223V22.2251H106.658ZM97.7756 22.2251V26.6606H102.223V22.2251H97.7756ZM93.3286 22.2251H97.7752V17.7785H93.3286V22.2251ZM93.3291 22.2251H88.8935V26.6606H93.3291V22.2251ZM93.3291 13.3303H88.8935V17.7769H93.3291V13.3303ZM97.7752 13.3301V8.89419H93.3286V13.3301H97.7752ZM102.225 13.3303H97.7781V17.7769H102.225V13.3303ZM102.225 13.3301H106.66V8.89419H102.225V13.3301ZM88.882 17.7761V22.2227H84.4465V17.7761H88.882ZM120 4.44725H115.553V0.00069809H120V4.44725ZM115.553 13.3301H120V8.88317H115.553V13.3301ZM120 22.2251H115.553V17.7785H120V22.2251ZM115.553 31.1075H120V26.6606H115.553V31.1075ZM115.553 40.0005H120V35.5539H115.553V40.0005Z" fill="#2F2FF4"/>
</svg>
