<svg xmlns="http://www.w3.org/2000/svg" width="375" height="80" viewBox="0 0 375 80">
  <g fill="none" fill-rule="evenodd" transform="rotate(90 241 240)">
    <path fill="#F2F5F9" fill-rule="nonzero" d="M44.1329524,480.8 L41,480.8 L41,477.666667 L77.8662857,440.8 L81,440.8 L81,443.933333 L44.1329524,480.8 Z M71.5775238,440.8 L65.2887619,440.8 L41,465.088838 L41,471.377752 L71.5775238,440.8 Z M59,440.8 L52.7112381,440.8 L41,452.511086 L41,458.8 L59,440.8 Z M41,440.8 L41,446.222217 L46.4217143,440.8 L41,440.8 Z M81,456.511086 L81,450.222248 L50.4217143,480.8 L56.7112381,480.8 L81,456.511086 Z M81,469.088838 L81,462.8 L63,480.8 L69.2887619,480.8 L81,469.088838 Z M81,475.377752 L75.5775238,480.8 L81,480.8 L81,475.377752 Z" transform="matrix(-1 0 0 1 122 0)"/>
    <path fill="#4038FF" d="M72.1067616,134.140089 L67.6711744,134.140089 L67.6711744,138.575644 L72.1067616,138.575644 L72.1067616,143.022222 L67.6711744,143.022222 L67.6711744,147.4688 L72.1067616,147.4688 L72.1067616,151.904356 L76.5533808,151.904356 L76.5533808,156.350933 L72.1067616,156.350933 L72.1067616,151.915378 L67.6711744,151.915378 L67.6711744,156.350933 L72.1067616,156.350933 L72.1067616,160.8 L67.6601423,160.8 L67.6601423,156.353422 L63.2245552,156.353422 L63.2245552,151.917867 L58.7779359,151.917867 L58.7779359,156.353422 L54.3313167,156.353422 L54.3313167,151.917867 L49.8957295,151.917867 L49.8957295,156.353422 L54.3313167,156.353422 L54.3313167,160.8 L49.8843416,160.8 L49.8843416,156.353422 L45.4491103,156.353422 L45.4491103,160.8 L41,160.8 L41,156.353422 L45.4466192,156.353422 L45.4466192,151.917867 L41,151.917867 L41,147.470933 L45.4466192,147.470933 L45.4466192,143.024356 L41,143.024356 L41,138.577778 L45.4466192,138.577778 L45.4466192,134.142222 L45.4466192,134.1312 L49.8822064,134.1312 L49.8822064,129.695644 L54.3288256,129.695644 L54.3288256,134.1312 L58.7754448,134.1312 L58.7754448,129.695644 L63.2224199,129.695644 L63.2224199,134.1312 L67.6580071,134.1312 L67.6580071,129.695644 L72.1046263,129.695644 L72.1046263,134.1312 L76.5512456,134.1312 L76.5512456,138.577778 L72.1046263,138.577778 L72.1046263,134.140089 L72.1067616,134.140089 Z M45.4466192,134.129067 L45.4466192,129.693156 L41,129.693156 L41,134.140089 L45.4466192,134.140089 L45.4466192,134.129067 Z M58.7754448,156.353422 L58.7754448,160.8 L63.2224199,160.8 L63.2224199,156.353422 L58.7754448,156.353422 Z M72.1067616,147.470933 L72.1067616,143.024356 L76.5533808,143.024356 L76.5533808,147.470933 L72.1067616,147.470933 Z M49.8822064,151.906844 L45.4466192,151.906844 L45.4466192,147.470933 L49.8822064,147.470933 L49.8822064,151.906844 Z M49.8932384,129.693156 L49.8932384,125.246578 L54.3288256,125.246578 L54.3288256,129.693156 L58.7754448,129.693156 L58.7754448,125.246578 L63.2224199,125.246578 L63.2224199,129.693156 L67.6690391,129.693156 L67.6690391,125.246578 L72.1046263,125.246578 L72.1046263,129.693156 L76.5512456,129.693156 L76.5512456,125.246578 L72.1046263,125.246578 L72.1046263,120.8 L67.6580071,120.8 L67.6580071,125.246578 L63.2224199,125.246578 L63.2224199,120.8 L58.7754448,120.8 L58.7754448,125.246578 L54.3288256,125.246578 L54.3288256,120.8 L49.8822064,120.8 L49.8822064,125.246578 L45.4466192,125.246578 L45.4466192,120.8 L41,120.8 L41,125.246578 L45.4466192,125.246578 L45.4466192,129.693156 L49.8932384,129.693156 Z M67.6580071,138.575644 L67.6580071,143.022222 L63.2224199,143.022222 L63.2224199,138.575644 L67.6580071,138.575644 Z M58.7754448,138.575644 L58.7754448,134.140089 L63.2224199,134.140089 L63.2224199,138.575644 L58.7754448,138.575644 Z M54.3288256,138.575644 L58.7754448,138.575644 L58.7754448,143.022222 L54.3288256,143.022222 L54.3288256,138.575644 Z M54.3288256,138.575644 L49.8932384,138.575644 L49.8932384,134.140089 L54.3288256,134.140089 L54.3288256,138.575644 Z M54.3288256,147.470933 L49.8932384,147.470933 L49.8932384,143.024356 L54.3288256,143.024356 L54.3288256,147.470933 Z M58.7754448,147.470933 L58.7754448,151.906844 L54.3288256,151.906844 L54.3288256,147.470933 L58.7754448,147.470933 Z M63.2245552,147.470933 L58.7779359,147.470933 L58.7779359,143.024356 L63.2245552,143.024356 L63.2245552,147.470933 Z M63.2245552,147.470933 L67.6601423,147.470933 L67.6601423,151.906844 L63.2245552,151.906844 L63.2245552,147.470933 Z M49.8822064,143.024356 L49.8822064,138.577778 L45.4466192,138.577778 L45.4466192,143.024356 L49.8822064,143.024356 Z M81,156.353422 L76.5533808,156.353422 L76.5533808,160.8 L81,160.8 L81,156.353422 Z M76.5533808,147.470933 L81,147.470933 L81,151.917867 L76.5533808,151.917867 L76.5533808,147.470933 Z M81,138.575644 L76.5533808,138.575644 L76.5533808,143.022222 L81,143.022222 L81,138.575644 Z M76.5533808,129.693156 L81,129.693156 L81,134.140089 L76.5533808,134.140089 L76.5533808,129.693156 Z M76.5533808,120.8 L81,120.8 L81,125.246578 L76.5533808,125.246578 L76.5533808,120.8 Z" transform="matrix(0 1 1 0 -79.8 79.8)"/>
    <path fill="#4038FF" d="M72.1067616,334.140089 L67.6711744,334.140089 L67.6711744,338.575644 L72.1067616,338.575644 L72.1067616,343.022222 L67.6711744,343.022222 L67.6711744,347.4688 L72.1067616,347.4688 L72.1067616,351.904356 L76.5533808,351.904356 L76.5533808,356.350933 L72.1067616,356.350933 L72.1067616,351.915378 L67.6711744,351.915378 L67.6711744,356.350933 L72.1067616,356.350933 L72.1067616,360.8 L67.6601423,360.8 L67.6601423,356.353422 L63.2245552,356.353422 L63.2245552,351.917867 L58.7779359,351.917867 L58.7779359,356.353422 L54.3313167,356.353422 L54.3313167,351.917867 L49.8957295,351.917867 L49.8957295,356.353422 L54.3313167,356.353422 L54.3313167,360.8 L49.8843416,360.8 L49.8843416,356.353422 L45.4491103,356.353422 L45.4491103,360.8 L41,360.8 L41,356.353422 L45.4466192,356.353422 L45.4466192,351.917867 L41,351.917867 L41,347.470933 L45.4466192,347.470933 L45.4466192,343.024356 L41,343.024356 L41,338.577778 L45.4466192,338.577778 L45.4466192,334.142222 L45.4466192,334.1312 L49.8822064,334.1312 L49.8822064,329.695644 L54.3288256,329.695644 L54.3288256,334.1312 L58.7754448,334.1312 L58.7754448,329.695644 L63.2224199,329.695644 L63.2224199,334.1312 L67.6580071,334.1312 L67.6580071,329.695644 L72.1046263,329.695644 L72.1046263,334.1312 L76.5512456,334.1312 L76.5512456,338.577778 L72.1046263,338.577778 L72.1046263,334.140089 L72.1067616,334.140089 Z M45.4466192,334.129067 L45.4466192,329.693156 L41,329.693156 L41,334.140089 L45.4466192,334.140089 L45.4466192,334.129067 Z M58.7754448,356.353422 L58.7754448,360.8 L63.2224199,360.8 L63.2224199,356.353422 L58.7754448,356.353422 Z M72.1067616,347.470933 L72.1067616,343.024356 L76.5533808,343.024356 L76.5533808,347.470933 L72.1067616,347.470933 Z M49.8822064,351.906844 L45.4466192,351.906844 L45.4466192,347.470933 L49.8822064,347.470933 L49.8822064,351.906844 Z M49.8932384,329.693156 L49.8932384,325.246578 L54.3288256,325.246578 L54.3288256,329.693156 L58.7754448,329.693156 L58.7754448,325.246578 L63.2224199,325.246578 L63.2224199,329.693156 L67.6690391,329.693156 L67.6690391,325.246578 L72.1046263,325.246578 L72.1046263,329.693156 L76.5512456,329.693156 L76.5512456,325.246578 L72.1046263,325.246578 L72.1046263,320.8 L67.6580071,320.8 L67.6580071,325.246578 L63.2224199,325.246578 L63.2224199,320.8 L58.7754448,320.8 L58.7754448,325.246578 L54.3288256,325.246578 L54.3288256,320.8 L49.8822064,320.8 L49.8822064,325.246578 L45.4466192,325.246578 L45.4466192,320.8 L41,320.8 L41,325.246578 L45.4466192,325.246578 L45.4466192,329.693156 L49.8932384,329.693156 Z M67.6580071,338.575644 L67.6580071,343.022222 L63.2224199,343.022222 L63.2224199,338.575644 L67.6580071,338.575644 Z M58.7754448,338.575644 L58.7754448,334.140089 L63.2224199,334.140089 L63.2224199,338.575644 L58.7754448,338.575644 Z M54.3288256,338.575644 L58.7754448,338.575644 L58.7754448,343.022222 L54.3288256,343.022222 L54.3288256,338.575644 Z M54.3288256,338.575644 L49.8932384,338.575644 L49.8932384,334.140089 L54.3288256,334.140089 L54.3288256,338.575644 Z M54.3288256,347.470933 L49.8932384,347.470933 L49.8932384,343.024356 L54.3288256,343.024356 L54.3288256,347.470933 Z M58.7754448,347.470933 L58.7754448,351.906844 L54.3288256,351.906844 L54.3288256,347.470933 L58.7754448,347.470933 Z M63.2245552,347.470933 L58.7779359,347.470933 L58.7779359,343.024356 L63.2245552,343.024356 L63.2245552,347.470933 Z M63.2245552,347.470933 L67.6601423,347.470933 L67.6601423,351.906844 L63.2245552,351.906844 L63.2245552,347.470933 Z M49.8822064,343.024356 L49.8822064,338.577778 L45.4466192,338.577778 L45.4466192,343.024356 L49.8822064,343.024356 Z M81,356.353422 L76.5533808,356.353422 L76.5533808,360.8 L81,360.8 L81,356.353422 Z M76.5533808,347.470933 L81,347.470933 L81,351.917867 L76.5533808,351.917867 L76.5533808,347.470933 Z M81,338.575644 L76.5533808,338.575644 L76.5533808,343.022222 L81,343.022222 L81,338.575644 Z M76.5533808,329.693156 L81,329.693156 L81,334.140089 L76.5533808,334.140089 L76.5533808,329.693156 Z M76.5533808,320.8 L81,320.8 L81,325.246578 L76.5533808,325.246578 L76.5533808,320.8 Z" transform="matrix(0 1 1 0 -279.8 279.8)"/>
    <path fill="#4038FF" d="M36.5533808,200.8 L41,200.8 L41,160.8 L36.5533808,160.8 L36.5533808,200.8 Z M32.111032,200.8 L27.666548,200.8 L27.666548,160.8 L32.111032,160.8 L32.111032,200.8 Z M23.2224199,200.8 L18.7779359,200.8 L18.7779359,160.8 L23.2224199,160.8 L23.2224199,200.8 Z M9.88896797,200.8 L14.333452,200.8 L14.333452,160.8 L9.88896797,160.8 L9.88896797,200.8 Z M5.44448399,200.8 L1,200.8 L1,160.8 L5.44448399,160.8 L5.44448399,200.8 Z" transform="matrix(0 1 1 0 -159.8 159.8)"/>
    <path fill="#1F242C" d="M41,285.246578 L41,280.8 L1,280.8 L1,285.246578 L41,285.246578 Z M41,289.688889 L41,294.133333 L1,294.133333 L1,289.688889 L41,289.688889 Z M41,298.577778 L41,303.022222 L1,303.022222 L1,298.577778 L41,298.577778 Z M41,311.911111 L41,307.466667 L1,307.466667 L1,311.911111 L41,311.911111 Z M41,316.355556 L41,320.8 L1,320.8 L1,316.355556 L41,316.355556 Z" transform="matrix(0 1 1 0 -279.8 279.8)"/>
    <path fill="#1F242C" d="M36.555516,400 L41,400 C41,422.091022 23.0911032,440 1,440 L1,435.555556 C20.6377224,435.555556 36.555516,419.637689 36.555516,400 Z M27.666548,400 L32.111032,400 C32.111032,417.182222 18.1822064,431.111111 1,431.111111 L1,426.666667 C15.7266904,426.666667 27.666548,414.726756 27.666548,400 Z M23.2224199,400 L18.7779359,400 C18.7779359,409.8176 10.8177936,417.777778 1,417.777778 L1,422.222222 C13.2733096,422.222222 23.2224199,412.273422 23.2224199,400 Z M9.88896797,400 L14.333452,400 C14.333452,407.364267 8.36441281,413.333333 1,413.333333 L1,408.888889 C5.9088968,408.888889 9.88896797,404.9088 9.88896797,400 Z M1,400 L5.44448399,400 C5.44448399,402.455467 3.45551601,404.444444 1,404.444444 L1,400 Z" transform="matrix(1 0 0 -1 0 840)"/>
  </g>
</svg>
