<svg width="375" height="26" viewBox="0 0 375 26" fill="none" xmlns="http://www.w3.org/2000/svg">
<rect width="375" height="25.0006" transform="translate(0 0.637695)" fill="black"/>
<path d="M100 25.6377L75 25.6377L75 0.637693C88.8069 0.637694 100 11.8308 100 25.6377Z" fill="#1F242C"/>
<path fill-rule="evenodd" clip-rule="evenodd" d="M125 22.8586V25.6377H100V22.8586H125ZM125 20.0821V17.3043H100V20.0821H125ZM125 14.5264V11.7486H100V14.5264H125ZM125 6.19292V8.9707H100V6.19292H125ZM125 3.41504V0.63726H100V3.41504H125Z" fill="#1F242C"/>
<path fill-rule="evenodd" clip-rule="evenodd" d="M74.9999 3.41549L74.9999 0.637696C61.1931 0.637696 50 11.8307 50 25.6376L52.7778 25.6376C52.7778 13.3641 62.7264 3.41549 74.9999 3.41549ZM74.9991 8.97116L74.9991 6.19336C64.2602 6.19336 55.5547 14.8989 55.5547 25.6377L58.3325 25.6377C58.3325 16.4336 65.7949 8.97116 74.9991 8.97116ZM74.9982 11.749L74.9982 14.5268C68.862 14.5268 63.8871 19.5017 63.8871 25.6378L61.1094 25.6378C61.1094 17.967 67.3274 11.749 74.9982 11.749ZM75.0013 20.0823L75.0013 17.3047C70.3984 17.3047 66.668 21.0351 66.668 25.6379L69.4457 25.6379C69.4457 22.5698 71.9333 20.0823 75.0013 20.0823ZM75.0004 25.6372L75.0004 22.8594C73.4658 22.8594 72.2227 24.1025 72.2227 25.6372L75.0004 25.6372Z" fill="#2F2FF4"/>
<path d="M275 25.6377L250 25.6377L250 0.637693C263.807 0.637694 275 11.8308 275 25.6377Z" fill="#2F2FF4"/>
<path fill-rule="evenodd" clip-rule="evenodd" d="M300 22.8586V25.6377H275V22.8586H300ZM300 20.082V17.3043H275V20.082H300ZM300 14.5264V11.7486H275V14.5264H300ZM300 6.19292V8.9707H275V6.19292H300ZM300 3.41504V0.63726H275V3.41504H300Z" fill="#1F242C"/>
<path fill-rule="evenodd" clip-rule="evenodd" d="M202.779 25.6377L200 25.6377L200 0.637696L202.779 0.637696L202.779 25.6377ZM205.555 25.6377L208.332 25.6377L208.332 0.637696L205.555 0.637696L205.555 25.6377ZM211.109 25.6377L213.887 25.6377L213.887 0.637696L211.109 0.637696L211.109 25.6377ZM219.446 25.6377L216.668 25.6377L216.668 0.637696L219.446 0.637696L219.446 25.6377ZM222.223 25.6377L225 25.6377L225 0.637696L222.223 0.637696L222.223 25.6377Z" fill="white"/>
<path fill-rule="evenodd" clip-rule="evenodd" d="M250 3.41549L250 0.637696C236.193 0.637696 225 11.8307 225 25.6376L227.778 25.6376C227.778 13.3641 237.726 3.41549 250 3.41549ZM249.999 8.97116L249.999 6.19336C239.26 6.19336 230.555 14.8989 230.555 25.6377L233.332 25.6377C233.332 16.4336 240.795 8.97116 249.999 8.97116ZM249.998 11.749L249.998 14.5268C243.862 14.5268 238.887 19.5017 238.887 25.6378L236.109 25.6378C236.109 17.967 242.327 11.749 249.998 11.749ZM250.001 20.0823L250.001 17.3047C245.398 17.3047 241.668 21.0351 241.668 25.6379L244.446 25.6379C244.446 22.5698 246.933 20.0823 250.001 20.0823ZM250 25.6381L250 22.8604C248.466 22.8604 247.223 24.1035 247.223 25.6381L250 25.6381Z" fill="#1F242C"/>
<path fill-rule="evenodd" clip-rule="evenodd" d="M369.442 17.3004H366.669V14.5281H369.442V11.7491H366.669V8.96995H369.442V6.19774H372.221V3.41864H369.442V6.19085H366.669V3.41864H369.442V0.637987H366.663V3.41709H363.89V6.1893H361.111V3.41709H358.332V6.1893H355.56V3.41709H358.332V0.637987H355.553V3.41709H352.781V0.637987H350V3.41709H352.779V6.1893H350V8.96862H352.779V11.7477H350V14.5268H352.779V17.299V17.3059H355.551V20.0781H358.33V17.3059H361.11V20.0781H363.889V17.3059H366.661V20.0781H369.44V17.3059H372.219V14.5268H369.44V17.3004H369.442ZM352.779 17.3067V20.0791H350V17.2998H352.779V17.3067ZM361.109 3.41699V0.637894H363.889V3.41699H361.109ZM369.441 8.96895V11.748H372.221V8.96895H369.441ZM355.55 6.19632H352.777V8.96875H355.55V6.19632ZM355.558 20.0785V22.8576H358.33V20.0785H361.11V22.8576H363.889V20.0785H366.668V22.8576H369.44V20.0785H372.219V22.8576H369.44V25.6367H366.661V22.8576H363.889V25.6367H361.11V22.8576H358.33V25.6367H355.551V22.8576H352.779V25.6367H350V22.8576H352.779V20.0785H355.558ZM366.663 14.5283V11.7492H363.891V14.5283H366.663ZM361.109 14.5276V17.2998H363.889V14.5276H361.109ZM358.332 14.5283H361.111V11.7492H358.332V14.5283ZM358.331 14.5276H355.559V17.2998H358.331V14.5276ZM358.331 8.96895H355.559V11.748H358.331V8.96895ZM361.111 8.96875V6.19632H358.332V8.96875H361.111ZM363.892 8.96895H361.113V11.748H363.892V8.96895ZM363.891 8.96875H366.663V6.19632H363.891V8.96875ZM355.55 11.7473V14.5264H352.777V11.7473H355.55ZM375.002 3.41699H372.223V0.637894H375.002V3.41699ZM372.223 8.96875H375.002V6.18943H372.223V8.96875ZM375.002 14.5283H372.223V11.7492H375.002V14.5283ZM372.223 20.0791H375.002V17.2998H372.223V20.0791ZM372.223 25.6377H375.002V22.8586H372.223V25.6377Z" fill="white"/>
<path fill-rule="evenodd" clip-rule="evenodd" d="M19.4416 17.3004H16.6694V14.5281H19.4416V11.7491H16.6694V8.96995H19.4416V6.19774H22.2208V3.41864H19.4416V6.19085H16.6694V3.41864H19.4416V0.637987H16.6625V3.41709H13.8903V6.1893H11.1112V3.41709H8.33204V6.1893H5.55981V3.41709H8.33204V0.637987H5.55269V3.41709H2.78068V0.637987H0V3.41709H2.77913V6.1893H0V8.96862H2.77913V11.7477H0V14.5268H2.77913V17.299V17.3059H5.55136V20.0781H8.33048V17.3059H11.1096V20.0781H13.889V17.3059H16.6612V20.0781H19.4403V17.3059H22.2194V14.5268H19.4403V17.3004H19.4416ZM2.77913 17.3067V20.0791H0V17.2998H2.77913V17.3067ZM11.1094 3.41699V0.637894H13.8887V3.41699H11.1094ZM19.4414 8.96895V11.748H22.2205V8.96895H19.4414ZM5.54957 6.19632H2.77734V8.96875H5.54957V6.19632ZM5.55825 20.0785V22.8576H8.33048V20.0785H11.1096V22.8576H13.889V20.0785H16.6681V22.8576H19.4403V20.0785H22.2194V22.8576H19.4403V25.6367H16.6612V22.8576H13.889V25.6367H11.1096V22.8576H8.33048V25.6367H5.55136V22.8576H2.77913V25.6367H0V22.8576H2.77913V20.0785H5.55825ZM16.6629 14.5283V11.7492H13.8906V14.5283H16.6629ZM11.1094 14.5286V17.3008H13.8887V14.5286H11.1094ZM8.33203 14.5283H11.1112V11.7492H8.33203V14.5283ZM8.33082 14.5286H5.55859V17.3008H8.33082V14.5286ZM8.33082 8.96895H5.55859V11.748H8.33082V8.96895ZM11.1112 8.96875V6.19632H8.33203V8.96875H11.1112ZM13.8924 8.96895H11.1133V11.748H13.8924V8.96895ZM13.8906 8.96875H16.6629V6.19632H13.8906V8.96875ZM5.54957 11.7473V14.5264H2.77734V11.7473H5.54957ZM25.0018 3.41699H22.2227V0.637894H25.0018V3.41699ZM22.2227 8.96875H25.0018V6.18943H22.2227V8.96875ZM25.0018 14.5283H22.2227V11.7492H25.0018V14.5283ZM22.2227 20.0791H25.0018V17.2998H22.2227V20.0791ZM22.2227 25.6377H25.0018V22.8586H22.2227V25.6377Z" fill="#1F242C"/>
</svg>
