<svg width="204" height="173" viewBox="0 0 204 173" fill="none" xmlns="http://www.w3.org/2000/svg">
<path fill-rule="evenodd" clip-rule="evenodd" d="M196.332 23.5909H192.564V19.8228H196.332V16.0453H192.564V12.2678H196.332V8.49969H200.109V4.72221H196.332V8.49033H192.564V4.72221H196.332V0.942619H192.554V4.7201H188.786V8.48822H185.009V4.7201H181.231V8.48822H177.463V4.7201H181.231V0.942619H177.453V4.7201H173.686V0.942619H169.906V4.7201H173.684V8.48822H169.906V12.266H173.684V16.0435H169.906V19.821H173.684V23.5891V23.5984H177.452V27.3666H181.229V23.5984H185.007V27.3666H188.785V23.5984H192.553V27.3666H196.33V23.5984H200.108V19.821H196.33V23.5909H196.332ZM173.684 23.6001V27.3685H169.906V23.5907H173.684V23.6001ZM185.007 4.71982V0.942345H188.785V4.71982H185.007ZM196.332 12.2657V16.0432H200.11V12.2657H196.332ZM177.452 8.49772H173.684V12.2661H177.452V8.49772ZM177.461 27.3684V31.1458H181.229V27.3684H185.006V31.1458H188.784V27.3684H192.562V31.1458H196.33V27.3684H200.107V31.1458H196.33V34.9233H192.552V31.1458H188.784V34.9233H185.006V31.1458H181.229V34.9233H177.451V31.1458H173.683V34.9233H169.906V31.1458H173.683V27.3684H177.461ZM192.553 19.8227V16.0452H188.784V19.8227H192.553ZM185.007 19.8228V23.591H188.785V19.8228H185.007ZM181.229 19.8227H185.007V16.0452H181.229V19.8227ZM181.23 19.8228H177.462V23.591H181.23V19.8228ZM181.23 12.2657H177.462V16.0432H181.23V12.2657ZM185.007 12.2661V8.49772H181.229V12.2661H185.007ZM188.787 12.2657H185.009V16.0432H188.787V12.2657ZM188.786 12.2661H192.555V8.49772H188.786V12.2661ZM177.452 16.0432V19.8207H173.684V16.0432H177.452ZM203.887 4.71982H200.11V0.942345H203.887V4.71982ZM200.11 12.2661H203.887V8.48836H200.11V12.2661ZM203.887 19.8227H200.11V16.0452H203.887V19.8227ZM200.11 27.3685H203.887V23.5907H200.11V27.3685ZM200.11 34.9236H203.887V31.1461H200.11V34.9236Z" fill="#261EE4"/>
<path fill-rule="evenodd" clip-rule="evenodd" d="M70.6234 102.886H67.9619V105.548L99.2808 136.867H101.943V134.205L70.6234 102.886ZM93.9383 136.867H88.5958L67.9619 116.233V110.89L93.9383 136.867ZM77.9109 136.867H83.2534L67.9619 121.575V126.918L77.9109 136.867ZM67.9619 136.867V132.261L72.5678 136.867H67.9619ZM101.943 128.862V123.52L81.3092 102.886H75.9661L101.943 128.862ZM101.943 112.835V118.178L86.6512 102.886H91.9936L101.943 112.835ZM97.3367 102.886L101.943 107.492V102.886H97.3367Z" fill="#5252FF"/>
<path fill-rule="evenodd" clip-rule="evenodd" d="M30.204 138.052L33.9814 138.052L33.9814 172.033L30.204 172.033L30.204 138.052ZM26.4301 138.052L22.6544 138.052L22.6544 172.033L26.4301 172.033L26.4301 138.052ZM18.8784 138.052L15.1028 138.052L15.1028 172.033L18.8784 172.033L18.8784 138.052ZM7.55207 138.052L11.3277 138.052L11.3277 172.033L7.55207 172.033L7.55207 138.052ZM3.77558 138.052L-8.54087e-05 138.052L-8.39233e-05 172.033L3.77558 172.033L3.77558 138.052Z" fill="#261EE4"/>
<path fill-rule="evenodd" clip-rule="evenodd" d="M169.905 65.1275V68.905H135.924V65.1275H169.905ZM169.905 61.3533V57.5776H135.924V61.3533H169.905ZM169.905 53.8026V50.0269H135.924V53.8026H169.905ZM169.905 42.4757V46.2514H135.924V42.4757H169.905ZM169.905 38.6992V34.9236H135.924V38.6992H169.905Z" fill="#5252FF"/>
</svg>
