<svg width="602" height="549" viewBox="0 0 602 549" fill="none" xmlns="http://www.w3.org/2000/svg">
<path fill-rule="evenodd" clip-rule="evenodd" d="M304.218 254.943H298.175V248.9H304.218V242.842H298.175V236.784H304.218V230.742H310.276V224.684H304.218V230.726H298.175V224.684H304.218V218.622H298.16V224.68H292.117V230.723H286.059V224.68H280.001V230.723H273.958V224.68H280.001V218.622H273.942V224.68H267.9V218.622H261.838V224.68H267.896V230.723H261.838V236.782H267.896V242.84H261.838V248.898H267.896V254.94V254.955H273.939V260.998H279.997V254.955H286.055V260.998H292.114V254.955H298.157V260.998H304.215V254.955H310.273V248.898H304.215V254.943H304.218ZM267.896 254.958V261.002H261.838V254.943H267.896V254.958ZM286.055 224.68V218.622H292.114V224.68H286.055ZM304.217 236.781V242.839H310.275V236.781H304.217ZM273.939 230.738H267.896V236.782H273.939V230.738ZM273.955 261.002V267.06H279.998V261.002H286.056V267.06H292.115V261.002H298.173V267.06H304.216V261.002H310.274V267.06H304.216V273.118H298.158V267.06H292.115V273.118H286.056V267.06H279.998V273.118H273.94V267.06H267.897V273.118H261.839V267.06H267.897V261.002H273.955ZM298.156 248.9V242.842H292.113V248.9H298.156ZM286.055 248.901V254.944H292.114V248.901H286.055ZM279.997 248.9H286.055V242.842H279.997V248.9ZM279.997 248.901H273.954V254.944H279.997V248.901ZM279.997 236.781H273.954V242.839H279.997V236.781ZM286.055 236.782V230.738H279.997V236.782H286.055ZM292.117 236.781H286.059V242.839H292.117V236.781ZM292.117 236.782H298.16V230.738H292.117V236.782ZM273.939 242.84V248.897H267.896V242.84H273.939ZM316.333 224.68H310.275V218.622H316.333V224.68ZM310.275 236.782H316.333V230.723H310.275V236.782ZM316.333 248.9H310.275V242.842H316.333V248.9ZM310.275 261.002H316.333V254.943H310.275V261.002ZM310.275 273.118H316.333V267.06H310.275V273.118Z" fill="#4038FF"/>
<path fill-rule="evenodd" clip-rule="evenodd" d="M576.696 254.943H570.653V248.9H576.696V242.842H570.653V236.784H576.696V230.742H582.754V224.684H576.696V230.726H570.653V224.684H576.696V218.622H570.638V224.68H564.595V230.723H558.537V224.68H552.479V230.723H546.436V224.68H552.479V218.622H546.42V224.68H540.378V218.622H534.316V224.68H540.374V230.723H534.316V236.782H540.374V242.84H534.316V248.898H540.374V254.94V254.955H546.417V260.998H552.475V254.955H558.533V260.998H564.592V254.955H570.635V260.998H576.693V254.955H582.751V248.898H576.693V254.943H576.696ZM540.374 254.958V261.002H534.316V254.943H540.374V254.958ZM558.533 224.68V218.622H564.592V224.68H558.533ZM576.696 236.781V242.839H582.754V236.781H576.696ZM546.417 230.738H540.374V236.782H546.417V230.738ZM546.432 261.002V267.06H552.475V261.002H558.533V267.06H564.592V261.002H570.65V267.06H576.693V261.002H582.751V267.06H576.693V273.118H570.635V267.06H564.592V273.118H558.533V267.06H552.475V273.118H546.417V267.06H540.374V273.118H534.316V267.06H540.374V261.002H546.432ZM570.634 248.9V242.842H564.591V248.9H570.634ZM558.533 248.901V254.944H564.592V248.901H558.533ZM552.475 248.9H558.533V242.842H552.475V248.9ZM552.475 248.901H546.432V254.944H552.475V248.901ZM552.475 236.781H546.432V242.839H552.475V236.781ZM558.533 236.782V230.738H552.475V236.782H558.533ZM564.595 236.781H558.537V242.839H564.595V236.781ZM564.595 236.782H570.638V230.738H564.595V236.782ZM546.417 242.84V248.897H540.374V242.84H546.417ZM588.812 224.68H582.754V218.622H588.812V224.68ZM582.754 236.782H588.812V230.723H582.754V236.782ZM588.812 248.9H582.754V242.842H588.812V248.9ZM582.754 261.002H588.812V254.943H582.754V261.002ZM582.754 273.118H588.812V267.06H582.754V273.118Z" fill="#261EE4"/>
<path fill-rule="evenodd" clip-rule="evenodd" d="M414.38 255.321H408.337V249.278H414.38V243.22H408.337V237.162H414.38V231.119H420.438V225.061H414.38V231.104H408.337V225.061H414.38V219H408.322V225.058H402.279V231.101H396.221V225.058H390.163V231.101H384.12V225.058H390.163V219H384.104V225.058H378.062V219H372V225.058H378.058V231.101H372V237.159H378.058V243.217H372V249.275H378.058V255.318V255.333H384.101V261.376H390.159V255.333H396.217V261.376H402.276V255.333H408.319V261.376H414.377V255.333H420.435V249.275H414.377V255.321H414.38ZM378.058 255.336V261.379H372V255.321H378.058V255.336ZM396.217 225.058V219H402.276V225.058H396.217ZM414.38 237.159V243.217H420.438V237.159H414.38ZM384.101 231.116H378.058V237.16H384.101V231.116ZM384.116 261.38V267.438H390.159V261.38H396.217V267.438H402.276V261.38H408.334V267.438H414.377V261.38H420.435V267.438H414.377V273.496H408.319V267.438H402.276V273.496H396.217V267.438H390.159V273.496H384.101V267.438H378.058V273.496H372V267.438H378.058V261.38H384.116ZM408.319 249.278V243.22H402.276V249.278H408.319ZM396.217 249.278V255.321H402.276V249.278H396.217ZM390.159 249.278H396.217V243.22H390.159V249.278ZM390.159 249.278H384.116V255.321H390.159V249.278ZM390.159 237.159H384.116V243.217H390.159V237.159ZM396.217 237.16V231.116H390.159V237.16H396.217ZM402.279 237.159H396.221V243.217H402.279V237.159ZM402.279 237.16H408.322V231.116H402.279V237.16ZM384.101 243.217V249.275H378.058V243.217H384.101ZM426.496 225.058H420.438V219H426.496V225.058ZM420.438 237.16H426.496V231.101H420.438V237.16ZM426.496 249.278H420.438V243.22H426.496V249.278ZM420.438 261.379H426.496V255.321H420.438V261.379ZM420.438 273.496H426.496V267.438H420.438V273.496Z" fill="#261EE4"/>
<path fill-rule="evenodd" clip-rule="evenodd" d="M364.772 273.118H370.83V327.613H364.772V273.118ZM358.72 273.118H352.665V327.613H358.72V273.118ZM346.609 273.118H340.554V327.613H346.609V273.118ZM328.444 273.118H334.499V327.613H328.444V273.118ZM322.389 273.118H316.334V327.613H322.389V273.118Z" fill="#4038FF"/>
<path fill-rule="evenodd" clip-rule="evenodd" d="M375.098 382.109H370.83V386.378L421.056 436.605H425.325V432.336L375.098 382.109ZM412.488 436.605H403.92L370.83 403.514V394.946L412.488 436.605ZM386.785 436.605H395.353L370.83 412.082V420.65L386.785 436.605ZM370.83 436.605V429.218L378.216 436.605H370.83ZM425.325 423.768V415.2L392.234 382.109H383.665L425.325 423.768ZM425.325 398.064V406.632L400.802 382.109H409.37L425.325 398.064ZM417.938 382.109L425.325 389.496V382.109H417.938Z" fill="#F2F5F9"/>
<path fill-rule="evenodd" clip-rule="evenodd" d="M322.937 163.748L316.879 163.748L316.879 109.253L322.937 109.253L322.937 163.748ZM328.989 163.748L335.044 163.748L335.044 109.252L328.989 109.252L328.989 163.748ZM341.099 163.748L347.154 163.748L347.154 109.252L341.099 109.252L341.099 163.748ZM359.265 163.748L353.209 163.748L353.209 109.252L359.265 109.252L359.265 163.748ZM365.32 163.748L371.375 163.748L371.375 109.252L365.32 109.252L365.32 163.748Z" fill="#5252FF"/>
<path fill-rule="evenodd" clip-rule="evenodd" d="M310.276 438.504L316.334 438.504L316.334 493L310.276 493L310.276 438.504ZM304.225 438.504L298.17 438.504L298.17 493L304.225 493L304.225 438.504ZM292.114 438.504L286.059 438.504L286.059 493L292.114 493L292.114 438.504ZM273.949 438.504L280.004 438.504L280.004 493L273.949 493L273.949 438.504ZM267.894 438.504L261.839 438.504L261.839 493L267.894 493L267.894 438.504Z" fill="#261EE4"/>
<path fill-rule="evenodd" clip-rule="evenodd" d="M534.316 321.555V327.613H479.82V321.555H534.316ZM534.316 315.503V309.448H479.82V315.503H534.316ZM534.316 303.393V297.338H479.82V303.393H534.316ZM534.316 285.228V291.283H479.82V285.228H534.316ZM534.316 279.172V273.117H479.82V279.172H534.316Z" fill="#5252FF"/>
<path fill-rule="evenodd" clip-rule="evenodd" d="M316.334 333.672V327.613H261.838V333.672H316.334ZM316.334 351.839V357.898H261.838V351.839H316.334ZM316.334 370.008V363.95H261.838V370.008H316.334ZM316.335 382.109V376.051H261.839V382.109H316.335ZM316.334 339.73V345.788H261.838V339.73H316.334Z" fill="#5252FF"/>
<path d="M207.342 218.622L207.342 273.118H152.847C152.847 243.021 177.246 218.622 207.342 218.622Z" fill="#4038FF"/>
<path d="M480.366 55.1355V109.631H425.87C425.87 79.5344 450.269 55.1355 480.366 55.1355Z" fill="#5252FF"/>
<path fill-rule="evenodd" clip-rule="evenodd" d="M213.4 55.1357H207.342V109.631H213.4V55.1357ZM231.569 55.1355H237.627V109.631H231.569V55.1355ZM249.737 55.1355H243.679V109.631H249.737V55.1355ZM261.838 55.1355H255.78V109.631H261.838V55.1355ZM219.458 55.1355H225.516V109.631H219.458V55.1355Z" fill="#4038FF"/>
</svg>
