<svg width="204" height="205" viewBox="0 0 204 205" fill="none" xmlns="http://www.w3.org/2000/svg">
<path fill-rule="evenodd" clip-rule="evenodd" d="M162.35 159.132H158.582V155.364H162.35V151.587H158.582V147.809H162.35V144.041H166.128V140.264H162.35V144.032H158.582V140.264H162.35V136.484H158.573V140.262H154.805V144.03H151.027V140.262H147.25V144.03H143.481V140.262H147.25V136.484H143.472V140.262H139.704V136.484H135.924V140.262H139.702V144.03H135.924V147.808H139.702V151.585H135.924V155.362H139.702V159.131V159.14H143.47V162.908H147.247V159.14H151.025V162.908H154.803V159.14H158.571V162.908H162.348V159.14H166.126V155.362H162.348V159.132H162.35ZM139.702 159.142V162.91H135.924V159.132H139.702V159.142ZM151.025 140.262V136.484H154.803V140.262H151.025ZM162.35 147.807V151.585H166.128V147.807H162.35ZM143.47 144.039H139.702V147.808H143.47V144.039ZM143.48 162.91V166.687H147.248V162.91H151.026V166.687H154.804V162.91H158.581V166.687H162.349V162.91H166.127V166.687H162.349V170.465H158.572V166.687H154.804V170.465H151.026V166.687H147.248V170.465H143.471V166.687H139.703V170.465H135.925V166.687H139.703V162.91H143.48ZM158.571 155.364V151.587H154.803V155.364H158.571ZM151.025 155.364V159.132H154.803V155.364H151.025ZM147.247 155.364H151.025V151.587H147.247V155.364ZM147.248 155.364H143.479V159.132H147.248V155.364ZM147.248 147.807H143.479V151.585H147.248V147.807ZM151.025 147.808V144.039H147.247V147.808H151.025ZM154.805 147.807H151.027V151.585H154.805V147.807ZM154.805 147.808H158.573V144.039H154.805V147.808ZM143.47 151.585V155.362H139.702V151.585H143.47ZM169.905 140.262H166.128V136.484H169.905V140.262ZM166.128 147.808H169.905V144.03H166.128V147.808ZM169.905 155.364H166.128V151.587H169.905V155.364ZM166.128 162.91H169.905V159.132H166.128V162.91ZM166.128 170.465H169.905V166.688H166.128V170.465Z" fill="#4038FF"/>
<path fill-rule="evenodd" clip-rule="evenodd" d="M94.3874 22.6481H90.6193V18.88H94.3874V15.1025H90.6193V11.3251H94.3874V7.55694H98.1649V3.77946H94.3874V7.54758H90.6193V3.77946H94.3874V-0.0001297H90.6099V3.77735H86.8418V7.54547H83.0642V3.77735H79.2867V7.54547H75.5186V3.77735H79.2867V-0.0001297H75.5089V3.77735H71.7411V-0.0001297H67.9614V3.77735H71.7389V7.54547H67.9614V11.3232H71.7389V15.1007H67.9614V18.8782H71.7389V22.6463V22.6557H75.5071V26.4238H79.2846V22.6557H83.0621V26.4238H86.8399V22.6557H90.6081V26.4238H94.3856V22.6557H98.1631V18.8782H94.3856V22.6481H94.3874ZM71.7389 22.6573V26.4258H67.9614V22.648H71.7389V22.6573ZM83.0618 3.77756V8.01086e-05H86.8397V3.77756H83.0618ZM94.3876 11.323V15.1004H98.1652V11.323H94.3876ZM75.5071 7.55448H71.739V11.3229H75.5071V7.55448ZM75.5174 26.4256V30.2031H79.2855V26.4256H83.063V30.2031H86.8408V26.4256H90.6184V30.2031H94.3865V26.4256H98.164V30.2031H94.3865V33.9806H90.609V30.2031H86.8408V33.9806H83.063V30.2031H79.2855V33.9806H75.508V30.2031H71.7398V33.9806H67.9623V30.2031H71.7398V26.4256H75.5174ZM90.608 18.8794V15.102H86.8399V18.8794H90.608ZM83.0618 18.8796V22.6477H86.8397V18.8796H83.0618ZM79.2843 18.8794H83.0618V15.102H79.2843V18.8794ZM79.2846 18.8796H75.5165V22.6477H79.2846V18.8796ZM79.2846 11.323H75.5165V15.1004H79.2846V11.323ZM83.0618 11.3229V7.55448H79.2843V11.3229H83.0618ZM86.8418 11.323H83.0643V15.1004H86.8418V11.323ZM86.8418 11.3229H90.61V7.55448H86.8418V11.3229ZM75.5071 15.1005V18.878H71.739V15.1005H75.5071ZM101.942 3.77756H98.1647V8.01086e-05H101.942V3.77756ZM98.1647 11.3229H101.942V7.54512H98.1647V11.3229ZM101.942 18.8794H98.1647V15.102H101.942V18.8794ZM98.1647 26.4258H101.942V22.648H98.1647V26.4258ZM98.1647 33.9808H101.942V30.2034H98.1647V33.9808Z" fill="#261EE4"/>
<path fill-rule="evenodd" clip-rule="evenodd" d="M200.109 170.465H203.886V204.446H200.109V170.465ZM196.335 170.465H192.56V204.446H196.335V170.465ZM188.784 170.465H185.008V204.446H188.784V170.465ZM177.456 170.465H181.232V204.446H177.456V170.465ZM173.681 170.465H169.905V204.446H173.681V170.465Z" fill="#4038FF"/>
<path fill-rule="evenodd" clip-rule="evenodd" d="M105.719 68.2858H101.943C101.943 87.0527 117.157 102.267 135.924 102.267V98.4912C119.241 98.4912 105.719 84.9685 105.719 68.2858ZM113.27 68.286H109.495C109.495 82.8828 121.328 94.7157 135.924 94.7157V90.9401C123.414 90.9401 113.27 80.7968 113.27 68.286ZM117.046 68.2867H120.822C120.822 76.6273 127.584 83.3894 135.925 83.3894V87.165C125.498 87.165 117.046 78.7133 117.046 68.2867ZM128.373 68.2859H124.598C124.598 74.5423 129.668 79.6129 135.924 79.6129V75.8372C131.754 75.8372 128.373 72.456 128.373 68.2859ZM135.924 68.286H132.149C132.149 70.372 133.838 72.0617 135.924 72.0617V68.286Z" fill="#261EE4"/>
<path d="M101.943 136.484V170.465H67.9619C67.9619 151.698 83.1759 136.484 101.943 136.484Z" fill="#4038FF"/>
<path d="M33.981 170.465H67.962V204.446C49.195 204.446 33.981 189.232 33.981 170.465Z" fill="#5252FF"/>
<path fill-rule="evenodd" clip-rule="evenodd" d="M105.72 34.5415H101.943V68.5226H105.72V34.5415ZM117.049 34.5422H120.827V68.5232H117.049V34.5422ZM128.379 34.5422H124.601V68.5232H128.379V34.5422ZM135.924 34.5422H132.147V68.5232H135.924V34.5422ZM109.499 34.5422H113.276V68.5232H109.499V34.5422Z" fill="#4038FF"/>
<path fill-rule="evenodd" clip-rule="evenodd" d="M3.77752 102.503H0V136.484H3.77752V102.503ZM15.1063 102.504H18.8839V136.485H15.1063V102.504ZM26.4355 102.504H22.658V136.485H26.4355V102.504ZM33.9814 102.504H30.2038V136.485H33.9814V102.504ZM7.55565 102.504H11.3332V136.485H7.55565V102.504Z" fill="#5252FF"/>
</svg>
