<svg width="502" height="264" viewBox="0 0 502 264" fill="none" xmlns="http://www.w3.org/2000/svg">
<path fill-rule="evenodd" clip-rule="evenodd" d="M179.387 63.7437H175.224V59.5801H179.387V55.4062H175.224V51.2324H179.387V47.0688H183.561V42.8949H179.387V47.0585H175.224V42.8949H179.387V38.7187H175.213V42.8926H171.05V47.0561H166.876V42.8926H162.702V47.0561H158.538V42.8926H162.702V38.7187H158.528V42.8926H154.364V38.7187H150.188V42.8926H154.362V47.0561H150.188V51.2303H154.362V55.4042H150.188V59.5781H154.362V63.7417V63.752H158.526V67.9155H162.699V63.752H166.873V67.9155H171.048V63.752H175.211V67.9155H179.385V63.752H183.559V59.5781H179.385V63.7437H179.387ZM154.362 63.7535V67.9173H150.188V63.7431H154.362V63.7535ZM166.873 42.8923V38.7184H171.048V42.8923H166.873ZM179.387 51.2302V55.4041H183.561V51.2302H179.387ZM158.526 47.0661H154.362V51.2299H158.526V47.0661ZM158.536 67.9167V72.0906H162.7V67.9167H166.873V72.0906H171.048V67.9167H175.222V72.0906H179.385V67.9167H183.559V72.0906H179.385V76.2644H175.211V72.0906H171.048V76.2644H166.873V72.0906H162.7V76.2644H158.526V72.0906H154.362V76.2644H150.188V72.0906H154.362V67.9167H158.536ZM175.211 59.5796V55.4057H171.048V59.5796H175.211ZM166.873 59.5796V63.7431H171.048V59.5796H166.873ZM162.699 59.5796H166.873V55.4057H162.699V59.5796ZM162.699 59.5796H158.536V63.7431H162.699V59.5796ZM162.699 51.2302H158.536V55.4041H162.699V51.2302ZM166.873 51.2299V47.0661H162.699V51.2299H166.873ZM171.05 51.2302H166.876V55.4041H171.05V51.2302ZM171.05 51.2299H175.213V47.0661H171.05V51.2299ZM158.526 55.404V59.5779H154.362V55.404H158.526ZM187.735 42.8923H183.561V38.7184H187.735V42.8923ZM183.561 51.2299H187.735V47.0557H183.561V51.2299ZM187.735 59.5796H183.561V55.4057H187.735V59.5796ZM183.561 67.9173H187.735V63.7431H183.561V67.9173ZM183.561 76.2652H187.735V72.0913H183.561V76.2652Z" fill="#DEE3E9"/>
<path fill-rule="evenodd" clip-rule="evenodd" d="M404.669 25.9462H400.505V21.7827H404.669V17.6088H400.505V13.4349H404.669V9.27139H408.843V5.0975H404.669V9.26105H400.505V5.0975H404.669V0.921284H400.495V5.09517H396.331V9.25871H392.157V5.09517H387.983V9.25871H383.82V5.09517H387.983V0.921284H383.809V5.09517H379.646V0.921284H375.47V5.09517H379.644V9.25871H375.47V13.4329H379.644V17.6068H375.47V21.7807H379.644V25.9442V25.9546H383.807V30.1181H387.981V25.9546H392.155V30.1181H396.329V25.9546H400.493V30.1181H404.667V25.9546H408.841V21.7807H404.667V25.9462H404.669ZM379.644 25.9565V30.1204H375.47V25.9461H379.644V25.9565ZM392.155 5.09528V0.921394H396.329V5.09528H392.155ZM404.669 13.4328V17.6067H408.843V13.4328H404.669ZM383.807 9.2691H379.643V13.433H383.807V9.2691ZM383.818 30.1199V34.2938H387.981V30.1199H392.155V34.2938H396.33V30.1199H400.503V34.2938H404.667V30.1199H408.841V34.2938H404.667V38.4677H400.493V34.2938H396.33V38.4677H392.155V34.2938H387.981V38.4677H383.807V34.2938H379.644V38.4677H375.47V34.2938H379.644V30.1199H383.818ZM400.493 21.7827V17.6088H396.329V21.7827H400.493ZM392.155 21.7826V25.9462H396.329V21.7826H392.155ZM387.981 21.7827H392.155V17.6088H387.981V21.7827ZM387.981 21.7826H383.818V25.9462H387.981V21.7826ZM387.981 13.4328H383.818V17.6067H387.981V13.4328ZM392.155 13.433V9.2691H387.981V13.433H392.155ZM396.331 13.4328H392.158V17.6067H396.331V13.4328ZM396.331 13.433H400.495V9.2691H396.331V13.433ZM383.807 17.607V21.7809H379.643V17.607H383.807ZM413.017 5.09528H408.843V0.921394H413.017V5.09528ZM408.843 13.433H413.017V9.25875H408.843V13.433ZM413.017 21.7827H408.843V17.6088H413.017V21.7827ZM408.843 30.1204H413.017V25.9461H408.843V30.1204ZM408.843 38.4683H413.017V34.2944H408.843V38.4683Z" fill="#DEE3E9"/>
<path fill-rule="evenodd" clip-rule="evenodd" d="M375.47 109.638V113.812H337.923V109.638H375.47ZM375.469 105.468V101.296H337.922V105.468H375.469ZM375.469 97.1245V92.9526H337.922V97.1245H375.469ZM375.469 84.6087V88.7806H337.922V84.6087H375.469ZM375.469 80.4367V76.2648H337.922V80.4367H375.469Z" fill="#DEE3E9"/>
<path fill-rule="evenodd" clip-rule="evenodd" d="M187.735 117.986V113.812H150.188V117.986H187.735ZM187.735 130.504V134.678H150.188V130.504H187.735ZM187.735 143.022V138.848H150.188V143.022H187.735ZM187.735 151.359V147.185H150.188V151.359H187.735ZM187.735 122.16V126.334H150.188V122.16H187.735Z" fill="#DEE3E9"/>
<path fill-rule="evenodd" clip-rule="evenodd" d="M116.813 1.1713H112.641C112.641 21.9076 129.452 38.7183 150.188 38.7183V34.5464C131.755 34.5464 116.813 19.6047 116.813 1.1713ZM125.157 1.17093H120.985C120.985 17.2994 134.06 30.3741 150.188 30.3741V26.2022C136.365 26.2022 125.157 14.9946 125.157 1.17093ZM129.329 1.17123H133.501C133.501 10.3871 140.972 17.8588 150.188 17.8588V22.0307C138.668 22.0307 129.329 12.692 129.329 1.17123ZM141.844 1.17109H137.673C137.673 8.08407 143.275 13.6867 150.188 13.6867V9.51486C145.58 9.51486 141.844 5.77885 141.844 1.17109ZM150.188 1.17095H146.016C146.016 3.47583 147.883 5.34283 150.188 5.34283V1.17095Z" fill="#DEE3E9"/>
<path fill-rule="evenodd" clip-rule="evenodd" d="M375.47 184.734V188.906C396.206 188.906 413.017 172.095 413.017 151.359H408.845C408.845 169.792 393.904 184.734 375.47 184.734ZM375.47 176.39V180.562C391.598 180.562 404.673 167.487 404.673 151.359H400.501C400.501 165.182 389.294 176.39 375.47 176.39ZM375.47 172.218V168.046C384.686 168.046 392.158 160.574 392.158 151.359H396.33C396.33 162.879 386.991 172.218 375.47 172.218ZM375.47 159.702V163.874C382.383 163.874 387.986 158.271 387.986 151.359H383.814C383.814 155.966 380.078 159.702 375.47 159.702ZM375.47 151.359V155.531C377.775 155.531 379.642 153.664 379.642 151.359H375.47Z" fill="#2F2FF4"/>
<path d="M262.829 188.656L262.829 151.109H300.376C300.376 171.845 283.565 188.656 262.829 188.656Z" fill="#4038FF"/>
<path d="M75.0941 76.2651V113.812H37.5471C37.5471 93.0758 54.3578 76.2651 75.0941 76.2651Z" fill="#2F2FF4"/>
<path fill-rule="evenodd" clip-rule="evenodd" d="M4.17417 1.16993H0.000244141V38.7169H4.17417V1.16993ZM16.6921 1.17081H20.866V38.7178H16.6921V1.17081ZM29.2097 1.17081H25.0358V38.7178H29.2097V1.17081ZM37.5472 1.17081H33.3732V38.7178H37.5472V1.17081ZM8.34818 1.17081H12.5221V38.7178H8.34818V1.17081Z" fill="white"/>
<path fill-rule="evenodd" clip-rule="evenodd" d="M304.925 226.453H300.751V264H304.925V226.453ZM317.443 226.453H321.617V264H317.443V226.453ZM329.96 226.453H325.786V264H329.96V226.453ZM338.298 226.453H334.124V264H338.298V226.453ZM309.099 226.453H313.273V264H309.099V226.453Z" fill="#DEE3E9"/>
<path fill-rule="evenodd" clip-rule="evenodd" d="M501.547 230.627L501.547 226.453L464 226.453L464 230.627L501.547 230.627ZM501.547 243.144L501.547 247.318L464 247.318L464 243.144L501.547 243.144ZM501.547 255.662L501.547 251.488L464 251.488L464 255.662L501.547 255.662ZM501.547 263.999L501.547 259.825L464 259.825L464 263.999L501.547 263.999ZM501.547 234.8L501.547 238.974L464 238.974L464 234.8L501.547 234.8Z" fill="#DEE3E9"/>
</svg>
