<?xml version="1.0" encoding="UTF-8"?>
<svg width="500px" height="350px" viewBox="0 0 500 350" version="1.1" xmlns="http://www.w3.org/2000/svg" xmlns:xlink="http://www.w3.org/1999/xlink">
    <title>2AEC3150-D9A8-4494-B9CE-C785BF01536A</title>
    <g id="Joystream-Testnet-Token-Information-Page" stroke="none" stroke-width="1" fill="none" fill-rule="evenodd">
        <g id="Main-Page" transform="translate(-205.000000, -5945.000000)">
            <g id="Group-3-Copy" transform="translate(205.000000, 5945.000000)">
                <g id="Group-16" transform="translate(250.000000, 175.000000) rotate(-180.000000) translate(-250.000000, -175.000000) ">
                    <g id="Group-8" transform="translate(250.000000, 175.000000) rotate(-90.000000) translate(-250.000000, -175.000000) translate(75.000000, -75.000000)">
                        <g id="Group-Copy-2" transform="translate(175.000000, 250.000000) scale(1, -1) rotate(-360.000000) translate(-175.000000, -250.000000) ">
                            <path d="M338.383452,216.175111 L332.838968,216.175111 L332.838968,221.719556 L338.383452,221.719556 L338.383452,227.277778 L332.838968,227.277778 L332.838968,232.836 L338.383452,232.836 L338.383452,238.380444 L343.941726,238.380444 L343.941726,243.938667 L338.383452,243.938667 L338.383452,238.394222 L332.838968,238.394222 L332.838968,243.938667 L338.383452,243.938667 L338.383452,249.5 L332.825178,249.5 L332.825178,243.941778 L327.280694,243.941778 L327.280694,238.397333 L321.72242,238.397333 L321.72242,243.941778 L316.164146,243.941778 L316.164146,238.397333 L310.619662,238.397333 L310.619662,243.941778 L316.164146,243.941778 L316.164146,249.5 L310.605427,249.5 L310.605427,243.941778 L305.061388,243.941778 L305.061388,249.5 L299.5,249.5 L299.5,243.941778 L305.058274,243.941778 L305.058274,238.397333 L299.5,238.397333 L299.5,232.838667 L305.058274,232.838667 L305.058274,227.280444 L299.5,227.280444 L299.5,221.722222 L305.058274,221.722222 L305.058274,216.177778 L305.058274,216.164 L310.602758,216.164 L310.602758,210.619556 L316.161032,210.619556 L316.161032,216.164 L321.719306,216.164 L321.719306,210.619556 L327.278025,210.619556 L327.278025,216.164 L332.822509,216.164 L332.822509,210.619556 L338.380783,210.619556 L338.380783,216.164 L343.939057,216.164 L343.939057,221.722222 L338.380783,221.722222 L338.380783,216.175111 L338.383452,216.175111 Z M305.058274,216.161333 L305.058274,210.616444 L299.5,210.616444 L299.5,216.175111 L305.058274,216.175111 L305.058274,216.161333 Z M321.719306,243.941778 L321.719306,249.5 L327.278025,249.5 L327.278025,243.941778 L321.719306,243.941778 Z M338.383452,232.838667 L338.383452,227.280444 L343.941726,227.280444 L343.941726,232.838667 L338.383452,232.838667 Z M310.602758,238.383556 L305.058274,238.383556 L305.058274,232.838667 L310.602758,232.838667 L310.602758,238.383556 Z M310.616548,210.616444 L310.616548,205.058222 L316.161032,205.058222 L316.161032,210.616444 L321.719306,210.616444 L321.719306,205.058222 L327.278025,205.058222 L327.278025,210.616444 L332.836299,210.616444 L332.836299,205.058222 L338.380783,205.058222 L338.380783,210.616444 L343.939057,210.616444 L343.939057,205.058222 L338.380783,205.058222 L338.380783,199.5 L332.822509,199.5 L332.822509,205.058222 L327.278025,205.058222 L327.278025,199.5 L321.719306,199.5 L321.719306,205.058222 L316.161032,205.058222 L316.161032,199.5 L310.602758,199.5 L310.602758,205.058222 L305.058274,205.058222 L305.058274,199.5 L299.5,199.5 L299.5,205.058222 L305.058274,205.058222 L305.058274,210.616444 L310.616548,210.616444 Z M332.822509,221.719556 L332.822509,227.277778 L327.278025,227.277778 L327.278025,221.719556 L332.822509,221.719556 Z M321.719306,221.719556 L321.719306,216.175111 L327.278025,216.175111 L327.278025,221.719556 L321.719306,221.719556 Z M316.161032,221.719556 L321.719306,221.719556 L321.719306,227.277778 L316.161032,227.277778 L316.161032,221.719556 Z M316.161032,221.719556 L310.616548,221.719556 L310.616548,216.175111 L316.161032,216.175111 L316.161032,221.719556 Z M316.161032,232.838667 L310.616548,232.838667 L310.616548,227.280444 L316.161032,227.280444 L316.161032,232.838667 Z M321.719306,232.838667 L321.719306,238.383556 L316.161032,238.383556 L316.161032,232.838667 L321.719306,232.838667 Z M327.280694,232.838667 L321.72242,232.838667 L321.72242,227.280444 L327.280694,227.280444 L327.280694,232.838667 Z M327.280694,232.838667 L332.825178,232.838667 L332.825178,238.383556 L327.280694,238.383556 L327.280694,232.838667 Z M310.602758,227.280444 L310.602758,221.722222 L305.058274,221.722222 L305.058274,227.280444 L310.602758,227.280444 Z M349.5,243.941778 L343.941726,243.941778 L343.941726,249.5 L349.5,249.5 L349.5,243.941778 Z M343.941726,232.838667 L349.5,232.838667 L349.5,238.397333 L343.941726,238.397333 L343.941726,232.838667 Z M349.5,221.719556 L343.941726,221.719556 L343.941726,227.277778 L349.5,227.277778 L349.5,221.719556 Z M343.941726,210.616444 L349.5,210.616444 L349.5,216.175111 L343.941726,216.175111 L343.941726,210.616444 Z M343.941726,199.5 L349.5,199.5 L349.5,205.058222 L343.941726,205.058222 L343.941726,199.5 Z" id="Shape" fill="#E7EDF5"></path>
                            <path d="M138.883452,416.675111 L133.338968,416.675111 L133.338968,422.219556 L138.883452,422.219556 L138.883452,427.777778 L133.338968,427.777778 L133.338968,433.336 L138.883452,433.336 L138.883452,438.880444 L144.441726,438.880444 L144.441726,444.438667 L138.883452,444.438667 L138.883452,438.894222 L133.338968,438.894222 L133.338968,444.438667 L138.883452,444.438667 L138.883452,450 L133.325178,450 L133.325178,444.441778 L127.780694,444.441778 L127.780694,438.897333 L122.22242,438.897333 L122.22242,444.441778 L116.664146,444.441778 L116.664146,438.897333 L111.119662,438.897333 L111.119662,444.441778 L116.664146,444.441778 L116.664146,450 L111.105427,450 L111.105427,444.441778 L105.561388,444.441778 L105.561388,450 L100,450 L100,444.441778 L105.558274,444.441778 L105.558274,438.897333 L100,438.897333 L100,433.338667 L105.558274,433.338667 L105.558274,427.780444 L100,427.780444 L100,422.222222 L105.558274,422.222222 L105.558274,416.677778 L105.558274,416.664 L111.102758,416.664 L111.102758,411.119556 L116.661032,411.119556 L116.661032,416.664 L122.219306,416.664 L122.219306,411.119556 L127.778025,411.119556 L127.778025,416.664 L133.322509,416.664 L133.322509,411.119556 L138.880783,411.119556 L138.880783,416.664 L144.439057,416.664 L144.439057,422.222222 L138.880783,422.222222 L138.880783,416.675111 L138.883452,416.675111 Z M105.558274,416.661333 L105.558274,411.116444 L100,411.116444 L100,416.675111 L105.558274,416.675111 L105.558274,416.661333 Z M122.219306,444.441778 L122.219306,450 L127.778025,450 L127.778025,444.441778 L122.219306,444.441778 Z M138.883452,433.338667 L138.883452,427.780444 L144.441726,427.780444 L144.441726,433.338667 L138.883452,433.338667 Z M111.102758,438.883556 L105.558274,438.883556 L105.558274,433.338667 L111.102758,433.338667 L111.102758,438.883556 Z M111.116548,411.116444 L111.116548,405.558222 L116.661032,405.558222 L116.661032,411.116444 L122.219306,411.116444 L122.219306,405.558222 L127.778025,405.558222 L127.778025,411.116444 L133.336299,411.116444 L133.336299,405.558222 L138.880783,405.558222 L138.880783,411.116444 L144.439057,411.116444 L144.439057,405.558222 L138.880783,405.558222 L138.880783,400 L133.322509,400 L133.322509,405.558222 L127.778025,405.558222 L127.778025,400 L122.219306,400 L122.219306,405.558222 L116.661032,405.558222 L116.661032,400 L111.102758,400 L111.102758,405.558222 L105.558274,405.558222 L105.558274,400 L100,400 L100,405.558222 L105.558274,405.558222 L105.558274,411.116444 L111.116548,411.116444 Z M133.322509,422.219556 L133.322509,427.777778 L127.778025,427.777778 L127.778025,422.219556 L133.322509,422.219556 Z M122.219306,422.219556 L122.219306,416.675111 L127.778025,416.675111 L127.778025,422.219556 L122.219306,422.219556 Z M116.661032,422.219556 L122.219306,422.219556 L122.219306,427.777778 L116.661032,427.777778 L116.661032,422.219556 Z M116.661032,422.219556 L111.116548,422.219556 L111.116548,416.675111 L116.661032,416.675111 L116.661032,422.219556 Z M116.661032,433.338667 L111.116548,433.338667 L111.116548,427.780444 L116.661032,427.780444 L116.661032,433.338667 Z M122.219306,433.338667 L122.219306,438.883556 L116.661032,438.883556 L116.661032,433.338667 L122.219306,433.338667 Z M127.780694,433.338667 L122.22242,433.338667 L122.22242,427.780444 L127.780694,427.780444 L127.780694,433.338667 Z M127.780694,433.338667 L133.325178,433.338667 L133.325178,438.883556 L127.780694,438.883556 L127.780694,433.338667 Z M111.102758,427.780444 L111.102758,422.222222 L105.558274,422.222222 L105.558274,427.780444 L111.102758,427.780444 Z M150,444.441778 L144.441726,444.441778 L144.441726,450 L150,450 L150,444.441778 Z M144.441726,433.338667 L150,433.338667 L150,438.897333 L144.441726,438.897333 L144.441726,433.338667 Z M150,422.219556 L144.441726,422.219556 L144.441726,427.777778 L150,427.777778 L150,422.219556 Z M144.441726,411.116444 L150,411.116444 L150,416.675111 L144.441726,416.675111 L144.441726,411.116444 Z M144.441726,400 L150,400 L150,405.558222 L144.441726,405.558222 L144.441726,400 Z" id="Shape-Copy-6" fill="#4038FF"></path>
                            <path d="M87.883452,16.6751111 L82.338968,16.6751111 L82.338968,22.2195556 L87.883452,22.2195556 L87.883452,27.7777778 L82.338968,27.7777778 L82.338968,33.336 L87.883452,33.336 L87.883452,38.8804444 L93.441726,38.8804444 L93.441726,44.4386667 L87.883452,44.4386667 L87.883452,38.8942222 L82.338968,38.8942222 L82.338968,44.4386667 L87.883452,44.4386667 L87.883452,50 L82.3251779,50 L82.3251779,44.4417778 L76.780694,44.4417778 L76.780694,38.8973333 L71.2224199,38.8973333 L71.2224199,44.4417778 L65.6641459,44.4417778 L65.6641459,38.8973333 L60.1196619,38.8973333 L60.1196619,44.4417778 L65.6641459,44.4417778 L65.6641459,50 L60.105427,50 L60.105427,44.4417778 L54.5613879,44.4417778 L54.5613879,50 L49,50 L49,44.4417778 L54.558274,44.4417778 L54.558274,38.8973333 L49,38.8973333 L49,33.3386667 L54.558274,33.3386667 L54.558274,27.7804444 L49,27.7804444 L49,22.2222222 L54.558274,22.2222222 L54.558274,16.6777778 L54.558274,16.664 L60.102758,16.664 L60.102758,11.1195556 L65.661032,11.1195556 L65.661032,16.664 L71.219306,16.664 L71.219306,11.1195556 L76.7780249,11.1195556 L76.7780249,16.664 L82.3225089,16.664 L82.3225089,11.1195556 L87.8807829,11.1195556 L87.8807829,16.664 L93.4390569,16.664 L93.4390569,22.2222222 L87.8807829,22.2222222 L87.8807829,16.6751111 L87.883452,16.6751111 Z M54.558274,16.6613333 L54.558274,11.1164444 L49,11.1164444 L49,16.6751111 L54.558274,16.6751111 L54.558274,16.6613333 Z M71.219306,44.4417778 L71.219306,50 L76.7780249,50 L76.7780249,44.4417778 L71.219306,44.4417778 Z M87.883452,33.3386667 L87.883452,27.7804444 L93.441726,27.7804444 L93.441726,33.3386667 L87.883452,33.3386667 Z M60.102758,38.8835556 L54.558274,38.8835556 L54.558274,33.3386667 L60.102758,33.3386667 L60.102758,38.8835556 Z M60.116548,11.1164444 L60.116548,5.55822222 L65.661032,5.55822222 L65.661032,11.1164444 L71.219306,11.1164444 L71.219306,5.55822222 L76.7780249,5.55822222 L76.7780249,11.1164444 L82.3362989,11.1164444 L82.3362989,5.55822222 L87.8807829,5.55822222 L87.8807829,11.1164444 L93.4390569,11.1164444 L93.4390569,5.55822222 L87.8807829,5.55822222 L87.8807829,-1.42108547e-14 L82.3225089,-1.42108547e-14 L82.3225089,5.55822222 L76.7780249,5.55822222 L76.7780249,-1.42108547e-14 L71.219306,-1.42108547e-14 L71.219306,5.55822222 L65.661032,5.55822222 L65.661032,-1.42108547e-14 L60.102758,-1.42108547e-14 L60.102758,5.55822222 L54.558274,5.55822222 L54.558274,-1.42108547e-14 L49,-1.42108547e-14 L49,5.55822222 L54.558274,5.55822222 L54.558274,11.1164444 L60.116548,11.1164444 Z M82.3225089,22.2195556 L82.3225089,27.7777778 L76.7780249,27.7777778 L76.7780249,22.2195556 L82.3225089,22.2195556 Z M71.219306,22.2195556 L71.219306,16.6751111 L76.7780249,16.6751111 L76.7780249,22.2195556 L71.219306,22.2195556 Z M65.661032,22.2195556 L71.219306,22.2195556 L71.219306,27.7777778 L65.661032,27.7777778 L65.661032,22.2195556 Z M65.661032,22.2195556 L60.116548,22.2195556 L60.116548,16.6751111 L65.661032,16.6751111 L65.661032,22.2195556 Z M65.661032,33.3386667 L60.116548,33.3386667 L60.116548,27.7804444 L65.661032,27.7804444 L65.661032,33.3386667 Z M71.219306,33.3386667 L71.219306,38.8835556 L65.661032,38.8835556 L65.661032,33.3386667 L71.219306,33.3386667 Z M76.780694,33.3386667 L71.2224199,33.3386667 L71.2224199,27.7804444 L76.780694,27.7804444 L76.780694,33.3386667 Z M76.780694,33.3386667 L82.3251779,33.3386667 L82.3251779,38.8835556 L76.780694,38.8835556 L76.780694,33.3386667 Z M60.102758,27.7804444 L60.102758,22.2222222 L54.558274,22.2222222 L54.558274,27.7804444 L60.102758,27.7804444 Z M99,44.4417778 L93.441726,44.4417778 L93.441726,50 L99,50 L99,44.4417778 Z M93.441726,33.3386667 L99,33.3386667 L99,38.8973333 L93.441726,38.8973333 L93.441726,33.3386667 Z M99,22.2195556 L93.441726,22.2195556 L93.441726,27.7777778 L99,27.7777778 L99,22.2195556 Z M93.441726,11.1164444 L99,11.1164444 L99,16.6751111 L93.441726,16.6751111 L93.441726,11.1164444 Z M93.441726,-1.42108547e-14 L99,-1.42108547e-14 L99,5.55822222 L93.441726,5.55822222 L93.441726,-1.42108547e-14 Z" id="Shape-Copy-16" fill="#E7EDF5"></path>
                            <path d="M255.055605,299.5 L249.5,299.5 C249.5,271.886222 271.886121,249.5 299.5,249.5 L299.5,255.055556 C274.952847,255.055556 255.055605,274.952889 255.055605,299.5 Z M266.166815,299.5 L260.61121,299.5 C260.61121,278.022222 278.022242,260.611111 299.5,260.611111 L299.5,266.166667 C281.091637,266.166667 266.166815,281.091556 266.166815,299.5 Z M271.72242,299.5 L277.278025,299.5 C277.278025,287.227556 287.227758,277.277778 299.5,277.277778 L299.5,271.722222 C284.158363,271.722222 271.72242,284.158222 271.72242,299.5 Z M288.38879,299.5 L282.83363,299.5 C282.83363,290.294222 290.294484,282.833333 299.5,282.833333 L299.5,288.388889 C293.363879,288.388889 288.38879,293.364 288.38879,299.5 Z M299.5,299.5 L293.944395,299.5 C293.944395,296.430667 296.430605,293.944444 299.5,293.944444 L299.5,299.5 Z" id="Shape" fill="#E7EDF5" transform="translate(274.500000, 274.500000) rotate(-270.000000) translate(-274.500000, -274.500000) "></path>
                            <path d="M255.055605,399.5 L249.5,399.5 C249.5,371.886222 271.886121,349.5 299.5,349.5 L299.5,355.055556 C274.952847,355.055556 255.055605,374.952889 255.055605,399.5 Z M266.166815,399.5 L260.61121,399.5 C260.61121,378.022222 278.022242,360.611111 299.5,360.611111 L299.5,366.166667 C281.091637,366.166667 266.166815,381.091556 266.166815,399.5 Z M271.72242,399.5 L277.278025,399.5 C277.278025,387.227556 287.227758,377.277778 299.5,377.277778 L299.5,371.722222 C284.158363,371.722222 271.72242,384.158222 271.72242,399.5 Z M288.38879,399.5 L282.83363,399.5 C282.83363,390.294222 290.294484,382.833333 299.5,382.833333 L299.5,388.388889 C293.363879,388.388889 288.38879,393.364 288.38879,399.5 Z M299.5,399.5 L293.944395,399.5 C293.944395,396.430667 296.430605,393.944444 299.5,393.944444 L299.5,399.5 Z" id="Shape-Copy-15" fill="#E7EDF5" transform="translate(274.500000, 374.500000) rotate(-270.000000) translate(-274.500000, -374.500000) "></path>
                            <path d="M6.05560498,348.5 L0.5,348.5 C0.5,320.886222 22.886121,298.5 50.5,298.5 L50.5,304.055556 C25.952847,304.055556 6.05560498,323.952889 6.05560498,348.5 Z M17.1668149,348.5 L11.61121,348.5 C11.61121,327.022222 29.022242,309.611111 50.5,309.611111 L50.5,315.166667 C32.091637,315.166667 17.1668149,330.091556 17.1668149,348.5 Z M22.7224199,348.5 L28.2780249,348.5 C28.2780249,336.227556 38.227758,326.277778 50.5,326.277778 L50.5,320.722222 C35.158363,320.722222 22.7224199,333.158222 22.7224199,348.5 Z M39.38879,348.5 L33.8336299,348.5 C33.8336299,339.294222 41.294484,331.833333 50.5,331.833333 L50.5,337.388889 C44.363879,337.388889 39.38879,342.364 39.38879,348.5 Z M50.5,348.5 L44.944395,348.5 C44.944395,345.430667 47.430605,342.944444 50.5,342.944444 L50.5,348.5 Z" id="Shape-Copy-4" fill="#E7EDF5" transform="translate(25.500000, 323.500000) rotate(-180.000000) translate(-25.500000, -323.500000) "></path>
                            <path d="M199.5,199.5 L199.5,249.5 L249.5,249.5 C249.5,221.886222 227.113879,199.5 199.5,199.5 Z" id="Path" fill="#E7EDF5" fill-rule="nonzero" transform="translate(224.500000, 224.500000) rotate(-180.000000) translate(-224.500000, -224.500000) "></path>
                            <path d="M153.91619,500 L150,500 L150,496.083333 L196.082857,450 L200,450 L200,453.916667 L153.91619,500 Z M188.221905,450 L180.360952,450 L150,480.361048 L150,488.22219 L188.221905,450 Z M172.5,450 L164.639048,450 L150,464.638857 L150,472.5 L172.5,450 Z M150,450 L150,456.777771 L156.777143,450 L150,450 Z M200,469.638857 L200,461.77781 L161.777143,500 L169.639048,500 L200,469.638857 Z M200,485.361048 L200,477.5 L177.5,500 L185.360952,500 L200,485.361048 Z M200,493.22219 L193.221905,500 L200,500 L200,493.22219 Z" id="Shape" fill="#E7EDF5" fill-rule="nonzero"></path>
                            <path d="M103.41619,199.5 L99.5,199.5 L99.5,195.583333 L145.582857,149.5 L149.5,149.5 L149.5,153.416667 L103.41619,199.5 Z M137.721905,149.5 L129.860952,149.5 L99.5,179.861048 L99.5,187.72219 L137.721905,149.5 Z M122,149.5 L114.139048,149.5 L99.5,164.138857 L99.5,172 L122,149.5 Z M99.5,149.5 L99.5,156.277771 L106.277143,149.5 L99.5,149.5 Z M149.5,169.138857 L149.5,161.27781 L111.277143,199.5 L119.139048,199.5 L149.5,169.138857 Z M149.5,184.861048 L149.5,177 L127,199.5 L134.860952,199.5 L149.5,184.861048 Z M149.5,192.72219 L142.721905,199.5 L149.5,199.5 L149.5,192.72219 Z" id="Shape-Copy-3" fill="#E7EDF5" fill-rule="nonzero"></path>
                            <path d="M255.058274,100 L249.5,100 L249.5,50 L255.058274,50 L255.058274,100 Z M271.727758,100 L277.286032,100 L277.286032,50 L271.727758,50 L271.727758,100 Z M288.397242,100 L282.838968,100 L282.838968,50 L288.397242,50 L288.397242,100 Z M299.5,100 L293.941726,100 L293.941726,50 L299.5,50 L299.5,100 Z M260.616548,100 L266.174822,100 L266.174822,50 L260.616548,50 L260.616548,100 Z" id="Shape" fill="#4038FF"></path>
                            <path d="M106.058274,348.5 L100.5,348.5 L100.5,298.5 L106.058274,298.5 L106.058274,348.5 Z M122.727758,348.5 L128.286032,348.5 L128.286032,298.5 L122.727758,298.5 L122.727758,348.5 Z M139.397242,348.5 L133.838968,348.5 L133.838968,298.5 L139.397242,298.5 L139.397242,348.5 Z M150.5,348.5 L144.941726,348.5 L144.941726,298.5 L150.5,298.5 L150.5,348.5 Z M111.616548,348.5 L117.174822,348.5 L117.174822,298.5 L111.616548,298.5 L111.616548,348.5 Z" id="Shape-Copy" fill="#E7EDF5"></path>
                        </g>
                    </g>
                </g>
            </g>
        </g>
    </g>
</svg>