<svg width="326" height="133" viewBox="0 0 326 133" fill="none" xmlns="http://www.w3.org/2000/svg">
<path d="M184 1.99997H238.496V56.4955C208.399 56.4955 184 32.0965 184 1.99997Z" fill="#261EE4"/>
<path fill-rule="evenodd" clip-rule="evenodd" d="M160.372 104.059H165.047V108.733H160.372V113.419H165.047V118.105H160.372V122.779H155.686V127.466H160.372V122.791H165.047V127.466H160.372V132.154H165.058V127.468H169.733V122.794H174.419V127.468H179.105V122.794H183.779V127.468H179.105V132.154H183.791V127.468H188.466V132.154H193.154V127.468H188.468V122.794H193.154V118.107H188.468V113.421H193.154V108.735H188.468V104.061V104.049H183.794V99.3747H179.108V104.049H174.422V99.3747H169.735V104.049H165.061V99.3747H160.375V104.049H155.688V108.735H160.375V104.059H160.372ZM188.468 104.047V99.3721H193.154V104.059H188.468V104.047ZM174.422 127.468V132.154H169.735V127.468H174.422ZM160.372 118.107V113.421H155.686V118.107H160.372ZM183.794 122.782H188.468V118.107H183.794V122.782ZM183.782 99.3721V94.686H179.108V99.3721H174.422V94.686H169.735V99.3721H165.049V94.686H160.375V99.3721H155.688V94.686H160.375V90H165.061V94.686H169.735V90H174.422V94.686H179.108V90H183.794V94.686H188.468V90H193.154V94.686H188.468V99.3721H183.782ZM165.061 108.733V113.419H169.735V108.733H165.061ZM174.422 108.733V104.059H169.735V108.733H174.422ZM179.108 108.733H174.422V113.419H179.108V108.733ZM179.108 108.733H183.782V104.059H179.108V108.733ZM179.108 118.107H183.782V113.421H179.108V118.107ZM174.422 118.107V122.782H179.108V118.107H174.422ZM169.733 118.107H174.419V113.421H169.733V118.107ZM169.733 118.107H165.058V122.782H169.733V118.107ZM183.794 113.421V108.735H188.468V113.421H183.794ZM151 127.468H155.686V132.154H151V127.468ZM155.686 118.107H151V122.794H155.686V118.107ZM151 108.733H155.686V113.419H151V108.733ZM155.686 99.3721H151V104.059H155.686V99.3721ZM155.686 90H151V94.686H155.686V90Z" fill="#5252FF"/>
<path fill-rule="evenodd" clip-rule="evenodd" d="M287.84 77.1542H283.154V35H287.84V77.1542ZM292.522 77.1542H297.206V35L292.522 35V77.1542ZM301.889 77.1542H306.573V35H301.889V77.1542ZM315.941 77.1542H311.257V35H315.941V77.1542ZM320.625 77.1542H325.309V35H320.625V77.1542Z" fill="#261EE4"/>
<path fill-rule="evenodd" clip-rule="evenodd" d="M120.154 4.68605V0L78 0V4.68605L120.154 4.68605ZM120.154 9.3676V14.0514L78 14.0514V9.3676L120.154 9.3676ZM120.154 18.7352V23.419L78 23.419V18.7352L120.154 18.7352ZM120.154 32.7866V28.1028L78 28.1028V32.7866L120.154 32.7866ZM120.154 37.4704V42.1542L78 42.1542V37.4704L120.154 37.4704Z" fill="#5252FF"/>
<path d="M42.1543 48L9.53674e-05 48L9.53674e-05 90.1542C23.2809 90.1542 42.1543 71.2808 42.1543 48Z" fill="#F2F5F9"/>
</svg>
