<svg width="381" height="388" viewBox="0 0 381 388" fill="none" xmlns="http://www.w3.org/2000/svg">
<path fill-rule="evenodd" clip-rule="evenodd" d="M263.927 54.4956H269.982C269.982 24.399 245.584 0 215.487 0V6.05506C242.241 6.05506 263.927 27.7414 263.927 54.4956ZM251.817 54.4952H257.872C257.872 31.0863 238.895 12.1097 215.487 12.1097V18.1648C235.55 18.1648 251.817 34.4316 251.817 54.4952ZM245.762 54.4952H239.707C239.707 41.1194 228.862 30.275 215.487 30.275V24.2199C232.208 24.2199 245.762 37.7741 245.762 54.4952ZM227.596 54.4953H233.651C233.651 44.4619 225.519 36.3301 215.486 36.3301V42.3852C222.174 42.3852 227.596 47.8076 227.596 54.4953ZM215.487 54.4954H221.542C221.542 51.1501 218.832 48.4404 215.487 48.4404V54.4954Z" fill="#5252FF"/>
<path d="M216 202H270.496V256.496C240.399 256.496 216 232.097 216 202Z" fill="#261EE4"/>
<path fill-rule="evenodd" clip-rule="evenodd" d="M58.058 54.8751H52V109.371H58.058V54.8751ZM76.2263 54.8754H82.2843V109.371H76.2263V54.8754ZM94.3941 54.8754H88.3361V109.371H94.3941V54.8754ZM106.495 54.8754H100.437V109.371H106.495V54.8754ZM64.1161 54.8754H70.1741V109.371H64.1161V54.8754Z" fill="#5252FF"/>
<path fill-rule="evenodd" clip-rule="evenodd" d="M178.218 358.961H182.892V363.635H178.218V368.321H182.892V373.008H178.218V377.682H173.532V382.368H178.218V377.694H182.892V382.368H178.218V387.057H182.904V382.371H187.579V377.696H192.265V382.371H196.951V377.696H201.625V382.371H196.951V387.057H201.637V382.371H206.311V387.057H211V382.371H206.314V377.696H211V373.01H206.314V368.324H211V363.638H206.314V358.963V358.952H201.639V354.277H196.953V358.952H192.267V354.277H187.581V358.952H182.906V354.277H178.22V358.952H173.534V363.638H178.22V358.961H178.218ZM206.314 358.949V354.275H211V358.961H206.314V358.949ZM192.267 382.371V387.057H187.581V382.371H192.267ZM178.218 373.01V368.324H173.532V373.01H178.218ZM201.639 377.685H206.314V373.01H201.639V377.685ZM201.628 354.275V349.589H196.953V354.275H192.267V349.589H187.581V354.275H182.895V349.589H178.22V354.275H173.534V349.589H178.22V344.902H182.906V349.589H187.581V344.902H192.267V349.589H196.953V344.902H201.639V349.589H206.314V344.902H211V349.589H206.314V354.275H201.628ZM182.906 363.635V368.321H187.581V363.635H182.906ZM192.267 363.635V358.961H187.581V363.635H192.267ZM196.953 363.635H192.267V368.321H196.953V363.635ZM196.953 363.635H201.628V358.961H196.953V363.635ZM196.953 373.01H201.628V368.324H196.953V373.01ZM192.267 373.01V377.685H196.953V373.01H192.267ZM187.579 373.01H192.265V368.324H187.579V373.01ZM187.579 373.01H182.904V377.685H187.579V373.01ZM201.639 368.324V363.638H206.314V368.324H201.639ZM168.846 382.371H173.532V387.057H168.846V382.371ZM173.532 373.01H168.846V377.696H173.532V373.01ZM168.846 363.635H173.532V368.321H168.846V363.635ZM173.532 354.275H168.846V358.961H173.532V354.275ZM173.532 344.902H168.846V349.589H173.532V344.902Z" fill="#5252FF"/>
<path fill-rule="evenodd" clip-rule="evenodd" d="M4.68619 344.902H9.53674e-05L9.53674e-05 302.748H4.68619L4.68619 344.902ZM9.36778 344.902H14.0516L14.0516 302.748H9.36778L9.36778 344.902ZM18.7351 344.902H23.4189L23.4189 302.748H18.7351L18.7351 344.902ZM32.7866 344.902H28.1028L28.1028 302.748H32.7866L32.7866 344.902ZM37.4705 344.902H42.1543L42.1543 302.748H37.4705L37.4705 344.902Z" fill="#261EE4"/>
<path fill-rule="evenodd" clip-rule="evenodd" d="M127.154 223.434V218.748L85 218.748V223.434H127.154ZM127.154 228.116V232.8H85V228.116H127.154ZM127.154 237.483V242.167H85V237.483H127.154ZM127.154 251.535V246.851H85V251.535H127.154ZM127.154 256.219V260.902H85V256.219H127.154Z" fill="#5252FF"/>
<path d="M380.154 327H338V369.154C361.281 369.154 380.154 350.281 380.154 327Z" fill="#F2F5F9"/>
</svg>
