<svg width="346" height="211" viewBox="0 0 346 211" fill="none" xmlns="http://www.w3.org/2000/svg">
<path fill-rule="evenodd" clip-rule="evenodd" d="M333.38 110.321H327.337V104.278H333.38V98.2202H327.337V92.1623H333.38V86.1193H339.438V80.0614H333.38V86.1043H327.337V80.0614H333.38V74H327.321V80.058H321.278V86.1009H315.22V80.058H309.162V86.1009H303.119V80.058H309.162V74H303.104V80.058H297.061V74H291V80.058H297.058V86.1009H291V92.1594H297.058V98.2173H291V104.275H297.058V110.318V110.333H303.101V116.376H309.159V110.333H315.217V116.376H321.276V110.333H327.319V116.376H333.377V110.333H339.435V104.275H333.377V110.321H333.38ZM297.058 110.336V116.379H291V110.321H297.058V110.336ZM315.217 80.0581V74.0001H321.276V80.0581H315.217ZM333.38 92.1592V98.2172H339.438V92.1592H333.38ZM303.101 86.1161H297.058V92.1595H303.101V86.1161ZM303.116 116.379V122.437H309.159V116.379H315.217V122.437H321.276V116.379H327.334V122.437H333.377V116.379H339.435V122.437H333.377V128.495H327.319V122.437H321.276V128.495H315.217V122.437H309.159V128.495H303.101V122.437H297.058V128.495H291V122.437H297.058V116.379H303.116ZM327.318 104.278V98.2201H321.275V104.278H327.318ZM315.217 104.278V110.321H321.276V104.278H315.217ZM309.159 104.278H315.217V98.2201H309.159V104.278ZM309.159 104.278H303.116V110.321H309.159V104.278ZM309.159 92.1592H303.116V98.2172H309.159V92.1592ZM315.217 92.1595V86.1161H309.159V92.1595H315.217ZM321.279 92.1592H315.221V98.2172H321.279V92.1592ZM321.279 92.1595H327.322V86.1161H321.279V92.1595ZM303.101 98.2173V104.275H297.058V98.2173H303.101ZM345.496 80.0581H339.438V74.0001H345.496V80.0581ZM339.438 92.1595H345.496V86.101H339.438V92.1595ZM345.496 104.278H339.438V98.2201H345.496V104.278ZM339.438 116.379H345.496V110.321H339.438V116.379ZM339.438 128.496H345.496V122.438H339.438V128.496Z" fill="#261EE4"/>
<path fill-rule="evenodd" clip-rule="evenodd" d="M112.268 74.0004H108V78.2692L158.226 128.496H162.496V124.227L112.268 74.0004ZM149.658 128.496H141.091L108 95.4051V86.8372L149.658 128.496ZM123.955 128.496H132.523L108 103.973V112.541L123.955 128.496ZM108 128.496V121.109L115.386 128.496H108ZM162.495 115.659V107.091L129.405 74.0001H120.836L162.495 115.659ZM162.495 89.9555V98.5233L137.972 74.0003H146.54L162.495 89.9555ZM155.108 74L162.495 81.3872V74H155.108Z" fill="#F2F5F9"/>
<path fill-rule="evenodd" clip-rule="evenodd" d="M34.058 54.4963L28 54.4963L28 0.000680932L34.058 0.000681197L34.058 54.4963ZM40.1099 54.4956L46.1649 54.4956L46.1649 2.38208e-06L40.1099 2.1174e-06L40.1099 54.4956ZM52.2201 54.4956L58.2751 54.4956L58.2751 2.38208e-06L52.2201 2.1174e-06L52.2201 54.4956ZM70.3854 54.4956L64.3303 54.4956L64.3303 2.1174e-06L70.3854 2.38208e-06L70.3854 54.4956ZM76.4405 54.4956L82.4956 54.4956L82.4956 2.38208e-06L76.4405 2.1174e-06L76.4405 54.4956Z" fill="#5252FF"/>
<path d="M260.496 7V61.4956H206C206 31.3989 230.399 7 260.496 7Z" fill="#5252FF"/>
</svg>
