<svg width="437" height="465" viewBox="0 0 437 465" fill="none" xmlns="http://www.w3.org/2000/svg">
<path fill-rule="evenodd" clip-rule="evenodd" d="M152.218 226.943H146.175V220.9H152.218V214.842H146.175V208.784H152.218V202.741H158.276V196.683H152.218V202.726H146.175V196.683H152.218V190.622H146.16V196.68H140.117V202.723H134.059V196.68H128.001V202.723H121.958V196.68H128.001V190.622H121.942V196.68H115.9V190.622H109.838V196.68H115.896V202.723H109.838V208.782H115.896V214.839H109.838V220.897H115.896V226.94V226.955H121.939V232.998H127.997V226.955H134.055V232.998H140.114V226.955H146.157V232.998H152.215V226.955H158.273V220.897H152.215V226.943H152.218ZM115.896 226.958V233.002H109.838V226.943H115.896V226.958ZM134.055 196.68V190.622H140.114V196.68H134.055ZM152.217 208.781V214.839H158.275V208.781H152.217ZM121.939 202.738H115.896V208.782H121.939V202.738ZM121.955 233.002V239.06H127.998V233.002H134.056V239.06H140.115V233.002H146.173V239.06H152.216V233.002H158.274V239.06H152.216V245.118H146.158V239.06H140.115V245.118H134.056V239.06H127.998V245.118H121.94V239.06H115.897V245.118H109.839V239.06H115.897V233.002H121.955ZM146.156 220.9V214.842H140.113V220.9H146.156ZM134.055 220.901V226.943H140.114V220.901H134.055ZM127.997 220.9H134.055V214.842H127.997V220.9ZM127.997 220.901H121.954V226.943H127.997V220.901ZM127.997 208.781H121.954V214.839H127.997V208.781ZM134.055 208.782V202.738H127.997V208.782H134.055ZM140.117 208.781H134.059V214.839H140.117V208.781ZM140.117 208.782H146.16V202.738H140.117V208.782ZM121.939 214.839V220.897H115.896V214.839H121.939ZM164.333 196.68H158.275V190.622H164.333V196.68ZM158.275 208.782H164.333V202.723H158.275V208.782ZM164.333 220.9H158.275V214.842H164.333V220.9ZM158.275 233.002H164.333V226.943H158.275V233.002ZM158.275 245.118H164.333V239.06H158.275V245.118Z" fill="#4038FF"/>
<path fill-rule="evenodd" clip-rule="evenodd" d="M424.696 226.943H418.653V220.9H424.696V214.842H418.653V208.784H424.696V202.741H430.754V196.683H424.696V202.726H418.653V196.683H424.696V190.622H418.638V196.68H412.595V202.723H406.537V196.68H400.479V202.723H394.436V196.68H400.479V190.622H394.42V196.68H388.378V190.622H382.316V196.68H388.374V202.723H382.316V208.782H388.374V214.839H382.316V220.897H388.374V226.94V226.955H394.417V232.998H400.475V226.955H406.533V232.998H412.592V226.955H418.635V232.998H424.693V226.955H430.751V220.897H424.693V226.943H424.696ZM388.374 226.958V233.002H382.316V226.943H388.374V226.958ZM406.534 196.68V190.622H412.592V196.68H406.534ZM424.696 208.781V214.839H430.754V208.781H424.696ZM394.418 202.738H388.375V208.782H394.418V202.738ZM394.433 233.002V239.06H400.476V233.002H406.534V239.06H412.592V233.002H418.65V239.06H424.693V233.002H430.751V239.06H424.693V245.118H418.635V239.06H412.592V245.118H406.534V239.06H400.476V245.118H394.418V239.06H388.375V245.118H382.317V239.06H388.375V233.002H394.433ZM418.635 220.9V214.842H412.592V220.9H418.635ZM406.534 220.901V226.943H412.592V220.901H406.534ZM400.475 220.9H406.534V214.842H400.475V220.9ZM400.476 220.901H394.433V226.943H400.476V220.901ZM400.476 208.781H394.433V214.839H400.476V208.781ZM406.534 208.782V202.738H400.475V208.782H406.534ZM412.595 208.781H406.537V214.839H412.595V208.781ZM412.595 208.782H418.638V202.738H412.595V208.782ZM394.418 214.839V220.897H388.375V214.839H394.418ZM436.812 196.68H430.754V190.622H436.812V196.68ZM430.754 208.782H436.812V202.723H430.754V208.782ZM436.812 220.9H430.754V214.842H436.812V220.9ZM430.754 233.002H436.812V226.943H430.754V233.002ZM430.754 245.118H436.812V239.06H430.754V245.118Z" fill="#261EE4"/>
<path fill-rule="evenodd" clip-rule="evenodd" d="M262.38 227.321H256.337V221.278H262.38V215.22H256.337V209.162H262.38V203.119H268.438V197.061H262.38V203.104H256.337V197.061H262.38V191H256.322V197.058H250.279V203.101H244.221V197.058H238.163V203.101H232.12V197.058H238.163V191H232.104V197.058H226.062V191H220V197.058H226.058V203.101H220V209.159H226.058V215.217H220V221.275H226.058V227.318V227.333H232.101V233.376H238.159V227.333H244.217V233.376H250.276V227.333H256.319V233.376H262.377V227.333H268.435V221.275H262.377V227.321H262.38ZM226.058 227.336V233.379H220V227.321H226.058V227.336ZM244.217 197.058V191H250.276V197.058H244.217ZM262.38 209.159V215.217H268.438V209.159H262.38ZM232.101 203.116H226.058V209.16H232.101V203.116ZM232.116 233.38V239.438H238.159V233.38H244.217V239.438H250.276V233.38H256.334V239.438H262.377V233.38H268.435V239.438H262.377V245.496H256.319V239.438H250.276V245.496H244.217V239.438H238.159V245.496H232.101V239.438H226.058V245.496H220V239.438H226.058V233.38H232.116ZM256.319 221.278V215.22H250.276V221.278H256.319ZM244.217 221.278V227.321H250.276V221.278H244.217ZM238.159 221.278H244.217V215.22H238.159V221.278ZM238.159 221.278H232.116V227.321H238.159V221.278ZM238.159 209.159H232.116V215.217H238.159V209.159ZM244.217 209.16V203.116H238.159V209.16H244.217ZM250.279 209.159H244.221V215.217H250.279V209.159ZM250.279 209.16H256.322V203.116H250.279V209.16ZM232.101 215.217V221.275H226.058V215.217H232.101ZM274.496 197.058H268.438V191H274.496V197.058ZM268.438 209.16H274.496V203.101H268.438V209.16ZM274.496 221.278H268.438V215.22H274.496V221.278ZM268.438 233.379H274.496V227.321H268.438V233.379ZM268.438 245.496H274.496V239.438H268.438V245.496Z" fill="#261EE4"/>
<path fill-rule="evenodd" clip-rule="evenodd" d="M212.772 245.118H218.83V299.613H212.772V245.118ZM206.72 245.118H200.665V299.613H206.72V245.118ZM194.609 245.118H188.554V299.613H194.609V245.118ZM176.444 245.118H182.499V299.613H176.444V245.118ZM170.389 245.118H164.334V299.613H170.389V245.118Z" fill="#4038FF"/>
<path fill-rule="evenodd" clip-rule="evenodd" d="M223.098 354.109H218.83V358.378L269.056 408.605H273.325V404.336L223.098 354.109ZM260.488 408.605H251.92L218.83 375.514V366.946L260.488 408.605ZM234.785 408.605H243.353L218.83 384.082V392.65L234.785 408.605ZM218.83 408.605V401.218L226.216 408.605H218.83ZM273.325 395.768V387.2L240.234 354.109H231.665L273.325 395.768ZM273.325 370.064V378.632L248.802 354.109H257.37L273.325 370.064ZM265.938 354.109L273.325 361.496V354.109H265.938Z" fill="#F2F5F9"/>
<path fill-rule="evenodd" clip-rule="evenodd" d="M170.937 97.4963L164.879 97.4963L164.879 43.0007L170.937 43.0007L170.937 97.4963ZM176.989 97.4956L183.044 97.4956L183.044 43L176.989 43L176.989 97.4956ZM189.099 97.4956L195.154 97.4956L195.154 43L189.099 43L189.099 97.4956ZM207.265 97.4956L201.209 97.4956L201.209 43L207.265 43L207.265 97.4956ZM213.32 97.4956L219.375 97.4956L219.375 43L213.32 43L213.32 97.4956Z" fill="#5252FF"/>
<path fill-rule="evenodd" clip-rule="evenodd" d="M158.276 410.504L164.334 410.504L164.334 465L158.276 465L158.276 410.504ZM152.225 410.504L146.17 410.504L146.17 465L152.225 465L152.225 410.504ZM140.114 410.504L134.059 410.504L134.059 465L140.114 465L140.114 410.504ZM121.949 410.504L128.004 410.504L128.004 465L121.949 465L121.949 410.504ZM115.894 410.504L109.839 410.504L109.839 465L115.894 465L115.894 410.504Z" fill="#261EE4"/>
<path fill-rule="evenodd" clip-rule="evenodd" d="M382.316 293.555V299.613H327.82V293.555H382.316ZM382.316 287.503V281.448H327.82V287.503H382.316ZM382.316 275.393V269.338H327.82V275.393H382.316ZM382.316 257.228V263.283H327.82V257.228H382.316ZM382.316 251.172V245.117H327.82V251.172H382.316Z" fill="#5252FF"/>
<path fill-rule="evenodd" clip-rule="evenodd" d="M164.334 305.672V299.614H109.838V305.672H164.334ZM164.334 323.84V329.898H109.838V323.84H164.334ZM164.334 342.008V335.95H109.838V342.008H164.334ZM164.335 354.109V348.051H109.839V354.109H164.335ZM164.334 311.73V317.788H109.838V311.73H164.334Z" fill="#5252FF"/>
<path d="M55.3423 190.622L55.3423 245.118H0.846714C0.846714 215.021 25.2456 190.622 55.3423 190.622Z" fill="#4038FF"/>
<path d="M328.366 0V54.4956H273.87C273.87 24.3989 298.269 0 328.366 0Z" fill="#5252FF"/>
<path fill-rule="evenodd" clip-rule="evenodd" d="M61.4003 27.1357H55.3423V81.6312H61.4003V27.1357ZM79.5686 27.1355H85.6266V81.6311H79.5686V27.1355ZM97.7373 27.1355H91.6793V81.6311H97.7373V27.1355ZM109.838 27.1355H103.78V81.6311H109.838V27.1355ZM67.4584 27.1355H73.5164V81.6311H67.4584V27.1355Z" fill="#4038FF"/>
</svg>
