<svg width="256" height="256" viewBox="0 0 256 256" fill="none" xmlns="http://www.w3.org/2000/svg">
<path d="M213.081 72.3252L214 70.4001C216.081 66.0379 215.553 61.3213 214.467 57.5688C213.336 53.659 211.263 49.5946 208.672 45.6218C203.465 37.6408 195.443 28.933 185.728 20.9651C175.945 12.9418 165.783 6.766 156.926 3.27262C152.52 1.53505 148.11 0.330349 144.039 0.0580157C140.443 -0.182535 136.102 0.249985 132.468 2.78801C129.088 2.07801 125.792 1.74437 122.684 1.90436C117.268 2.18314 111.592 4.05067 107.786 8.97924C103.003 15.1737 103.473 23.1281 105.406 29.8084L106.472 33.4899L60.6719 86.2902C56.828 85.5589 53.0883 85.2711 49.6253 85.6058C44.6876 86.0831 39.4397 87.9488 35.9587 92.5824C31.4321 98.6077 32.1816 106.084 34.2462 112.2C32.7757 115.852 32.9631 119.77 33.6839 123.038C34.671 127.512 36.9226 132.199 39.8076 136.751C45.623 145.926 55.0182 156.119 66.5097 165.425C78.0011 174.73 89.9249 181.801 100.109 185.582C100.806 185.841 101.504 186.087 102.2 186.32C98.2223 186.172 93.946 186.087 89.2959 186.087C79.4086 186.087 72.1956 186.26 65.1788 186.644C57.4383 187.077 50.9736 187.684 44.84 188.55C37.9582 189.528 30.6348 190.728 23.5444 193.662C17.5213 196.162 13.7308 200.606 12.6145 206.51C12.1115 209.233 11.5472 211.944 10.983 214.655C10.5413 216.586 10.1365 218.504 9.75626 220.435C9.6663 220.914 9.56544 221.393 9.46459 221.871C9.41415 222.111 9.36371 222.35 9.31464 222.589C8.83623 224.731 8.37008 226.872 8.08794 229.347C7.57681 233.459 9.31986 237.527 12.639 239.968C13.619 240.725 14.6476 241.415 15.718 242.035C20.1285 244.581 24.7908 246.656 29.6289 248.224C38.3136 251.008 47.2382 252.965 56.2852 254.066C65.4858 255.291 74.7531 255.936 84.0333 255.997H86.9774C97.7098 256.052 108.433 255.348 119.068 253.893C125.079 253.051 130.44 252.073 135.481 250.835C140.64 249.656 145.691 248.041 150.582 246.008C154.601 244.342 158.393 242.167 161.868 239.534C166.726 235.784 168.578 230.412 166.934 224.792C165.388 219.519 163.377 212.563 161.426 205.483C160.255 201.293 157.55 197.709 153.857 195.457C150.357 193.384 146.551 191.888 142.584 191.026C137.947 189.88 133.244 189.029 128.501 188.476C126.133 188.182 123.862 187.92 121.673 187.689C124.122 186.853 126.47 185.425 128.349 183.105C128.98 182.325 129.502 181.515 129.928 180.685C134.948 180.161 139.985 178.278 143.399 173.734C147.087 168.825 147.244 162.888 146.133 157.776C146.12 157.716 146.107 157.656 146.094 157.596C146.078 157.528 146.063 157.46 146.047 157.392L150.4 152L219.981 213.679C220.12 213.711 220.257 213.74 220.393 213.769C222.797 214.267 225.358 214.336 227.82 214.064C232.513 213.545 238.353 211.585 242.316 206.969C246.197 202.447 247.44 196.321 247.512 191.579C247.55 189.069 247.274 186.49 246.621 184.118L246.593 184.019L182.132 116.756L180.396 118.541C180.257 118.51 180.12 118.48 179.984 118.451C179.939 118.442 179.893 118.433 179.848 118.424L192.754 103.544C199.463 104.056 207.048 102.72 211.826 96.5326C215.565 91.6906 216.069 85.7294 215.25 80.3793C214.848 77.7586 214.103 75.0582 213.081 72.3252Z" fill="black"/>
<path d="M178.731 28.6803C160.113 13.4108 140.879 5.90035 134.567 11.1856L134.799 11.2496C146.574 14.5067 161.019 22.3373 174.918 33.7369C188.746 45.0772 199.274 57.6853 204.889 68.6326C208.439 61.1894 197.216 43.8398 178.731 28.6803Z" fill="#A7AEB7"/>
<path d="M186.908 97.2569C192.918 89.8194 181.354 69.1787 160.915 52.5936C140.476 36.0085 121.221 27.7937 115.211 35.2313C115.143 35.315 115.077 35.4005 115.014 35.4877L114.764 35.2701L61.5094 96.6642C51.4539 93.8932 43.6438 94.4286 40.256 98.9381C37.952 102.005 37.9733 106.537 39.9286 111.932C40.1102 111.583 40.3191 111.25 40.5559 110.935C46.8617 102.541 70.5745 109.796 93.52 127.14C116.465 144.484 129.955 165.347 123.649 173.741C123.436 174.024 123.203 174.29 122.952 174.537C128.556 174.891 132.825 173.654 135.099 170.626C142.281 161.067 126.871 137.27 100.681 117.474C100.224 117.128 99.7663 116.786 99.3087 116.447C118.022 127.973 132.388 141.635 138.864 152.969L186.641 97.8866L186.473 97.7419C186.626 97.5879 186.771 97.4263 186.908 97.2569Z" fill="#A7AEB7"/>
<path d="M216.429 206.04C219.717 209.158 229.902 208.629 234.337 203.462C238.772 198.295 238.427 187.359 235.14 184.241C235.103 184.206 235.065 184.172 235.026 184.139L235.138 184.025L180.233 129.576L180.158 129.652C180.091 129.574 180.02 129.499 179.946 129.428C176.658 126.31 166.473 126.839 162.038 132.006C157.603 137.173 157.948 148.109 161.235 151.227C161.272 151.262 161.31 151.296 161.349 151.33L161.237 151.444L216.142 205.893L216.217 205.816C216.284 205.894 216.355 205.969 216.429 206.04Z" fill="#A7AEB7"/>
<path d="M120.226 179.772C114.213 187.196 91.4876 178.759 69.4663 160.927C47.445 143.094 34.4672 122.619 40.4797 115.194C46.4921 107.77 69.218 116.207 91.2393 134.039C113.261 151.872 126.238 172.347 120.226 179.772Z" fill="#A7AEB7"/>
<path d="M112.02 15.418C119.782 5.36653 146.572 14.6622 171.859 36.1803C197.145 57.6985 211.352 83.2908 203.59 93.3422C201.131 96.5262 196.763 97.7688 191.139 97.2966C191.405 97.0379 191.654 96.7592 191.884 96.4613C198.699 87.6356 186.265 65.1983 164.112 46.3461C141.958 27.4939 118.474 19.3657 111.659 28.1914C111.404 28.5229 111.175 28.8736 110.973 29.2426C109.301 23.4671 109.53 18.6427 112.02 15.418Z" fill="#A7AEB7"/>
<path d="M31.652 211.477C35.2511 212.378 38.8869 213.112 42.5485 213.677C42.4325 214.17 42.2574 214.662 42.0823 215.154C41.6985 216.232 41.3147 217.311 41.5533 218.389C41.8697 219.773 44.06 220.704 47.2726 221.333C55.1968 222.885 69.3092 222.533 76.2951 222.359L77.0617 222.34C79.1534 222.291 81.4104 222.247 83.7802 222.201C98.3673 221.92 117.231 221.555 128.17 219.282C130.867 218.721 132.205 216.188 132.749 213.547C133.254 213.47 133.758 213.391 134.262 213.31C137.733 212.748 141.169 211.977 144.552 211C147.247 210.343 149.799 209.177 152.079 207.56C152.446 207.369 152.695 207.002 152.742 206.582C152.789 206.163 152.627 205.747 152.311 205.476C152.021 205.162 151.706 204.872 151.37 204.61C150.147 203.501 148.644 203.002 147.158 202.508C146.759 202.375 146.36 202.242 145.969 202.098C141.887 200.776 137.711 199.777 133.48 199.11C130.748 198.592 127.96 198.32 125.174 198.049C124.521 197.985 123.868 197.922 123.216 197.855C118.694 197.34 114.173 196.888 109.639 196.599C104.898 196.285 100.144 195.997 95.4032 195.997L94.719 195.989C88.9584 195.929 83.187 195.868 77.4155 196.097C75.3788 196.181 73.3422 196.242 71.3055 196.304C70.2873 196.334 69.2689 196.365 68.2506 196.398C66.8724 196.437 65.4943 196.53 64.1162 196.622C63.7224 196.648 63.3287 196.675 62.9349 196.7C61.4238 196.787 59.937 196.939 58.4316 197.093C57.5509 197.183 56.6639 197.274 55.7618 197.353L55.2078 197.402C51.5789 197.724 47.9416 198.047 44.3485 198.608C39.2324 199.306 34.1723 200.385 29.208 201.835C27.0365 202.381 24.9651 203.284 23.0736 204.509C21.2895 205.765 21.3629 207.146 23.2692 208.276C23.4271 208.377 23.585 208.462 23.7494 208.551C23.7885 208.572 23.828 208.593 23.8679 208.615C26.3405 209.889 28.9542 210.85 31.652 211.477Z" fill="#A7AEB7"/>
<path d="M64.8304 240.737C64.9818 240.579 65.0862 240.49 65.0862 240.49C66.1966 240.506 67.5668 240.552 69.1802 240.605C76.497 240.849 88.8144 241.26 104.574 239.824C119.646 238.451 136.011 235.336 145.312 233.338C145.567 235.073 139.05 240.207 131.208 242.314C123.507 244.383 102.527 247.633 73.7662 246.372C67.1901 246.398 58.801 245.95 47.5395 244.759C19.2795 241.77 15.0679 237.415 14.8777 235.481C14.7196 233.978 15.5041 231.915 16.261 229.925C16.8611 228.347 17.4438 226.815 17.5257 225.644L17.7162 222.92C47.0854 229.004 79.4781 229.084 109.88 228.084C109.759 230.724 106.279 235.076 102.55 238.564C100.639 238.667 98.7348 238.753 96.833 238.839L96.8319 238.839C96.1736 238.869 95.5155 238.899 94.8574 238.929C91.5412 239.073 88.2367 239.133 84.9205 239.133C76.5537 239.206 68.1987 238.857 59.8437 238.328C59.4008 238.299 58.9578 238.27 58.5149 238.242C56.4389 238.109 54.364 237.975 52.2973 237.728C47.4108 237.139 42.5361 236.514 37.6848 235.709C31.2804 234.776 24.9938 233.132 18.9358 230.806L18.9212 230.801C18.5833 230.669 18.1482 230.5 17.975 230.903C17.7992 231.311 17.7054 231.78 18.3734 232.104C19.8992 232.839 21.4641 233.484 23.0606 234.039C29.8821 236.291 36.9042 237.844 44.0243 238.677C49.0279 239.374 53.9261 239.987 59.0586 240.359C60.9811 240.499 62.9052 240.626 64.8304 240.737Z" fill="#A7AEB7"/>
<path d="M159.598 112.108C158.477 113.482 154.257 113.93 152.144 112.344C150.031 110.758 149.564 106.792 150.685 105.417C150.711 105.386 150.738 105.356 150.766 105.328L150.735 105.301L179.325 71.7153L188.272 78.5156L159.682 112.101L159.635 112.061C159.629 112.068 159.624 112.075 159.618 112.082C159.612 112.091 159.605 112.1 159.598 112.108Z" fill="black"/>
<path d="M116.497 95.5613C117.208 94.7059 119.912 94.4478 121.275 95.4527C122.638 96.4577 122.958 98.9457 122.246 99.8011C122.23 99.8206 122.213 99.8391 122.195 99.8568L122.215 99.8738L104.061 120.772L98.2891 116.463L116.443 95.5651L116.474 95.5908C116.481 95.5807 116.489 95.5709 116.497 95.5613Z" fill="black"/>
<path d="M154.877 82.1721C155.718 81.1614 155.34 78.2222 153.731 77.0353C152.122 75.8484 148.93 76.1541 148.09 77.1648C148.081 77.1762 148.072 77.1878 148.063 77.1997L148.027 77.1694L137.275 89.2527L137.299 89.2728C137.277 89.2937 137.257 89.3156 137.238 89.3386C136.398 90.3493 136.775 93.2886 138.384 94.4755C139.993 95.6624 143.185 95.3566 144.025 94.346C144.035 94.3346 144.044 94.323 144.053 94.3111L144.088 94.3414L154.84 82.2581L154.816 82.238C154.838 82.2171 154.858 82.1951 154.877 82.1721Z" fill="black"/>
<path d="M182.375 120.193L185.147 122.408L155.606 149.494L181.461 120.638C180.361 119.644 177.97 118.29 174.791 121.099C170.355 125.019 142.805 151.463 142.805 151.463L186.132 102.228L182.375 120.193Z" fill="black"/>
<path d="M201.199 141.983L213.785 163.147C213.785 163.147 200.912 152.327 189.424 148.347L213.265 173.478L213.216 173.525C213.232 173.539 213.248 173.554 213.263 173.57C214.624 174.946 214.626 179.588 212.665 181.706C210.704 183.823 206.352 183.88 204.991 182.504C204.96 182.473 204.93 182.44 204.903 182.406L204.87 182.437L172.689 148.515C164.662 151.269 158.304 156.544 158.304 156.544L182.375 128.172L201.199 141.983Z" fill="black"/>
<path d="M172.125 36.1714C197.041 56.9981 211.109 81.1592 203.547 90.1367C203.357 90.3622 203.155 90.576 202.942 90.7782C203.624 78.6455 190.208 57.9361 169.069 40.0368C146.172 20.6495 122.065 11.2062 111.974 16.9881C112.303 16.1511 112.75 15.3908 113.318 14.7163C120.88 5.73884 147.209 15.3446 172.125 36.1714Z" fill="white"/>
<path d="M126.151 47.8416C126.27 47.9308 126.386 48.0247 126.498 48.123L79.5872 104.027C76.3647 102.348 73.2205 100.888 70.1984 99.6575L114.039 48.224L114.115 48.289C114.134 48.2632 114.154 48.2378 114.174 48.213C115.974 46.0092 122.755 45.2952 126.151 47.8416Z" fill="white"/>
<path d="M146.787 60.056C147.627 59.0453 147.25 56.1061 145.641 54.9192C144.032 53.7323 140.84 54.038 140 55.0487C139.995 55.0547 139.99 55.0608 139.985 55.067L139.972 55.0835L139.937 55.0533L129.185 67.1366L129.209 67.1567C129.187 67.1776 129.167 67.1995 129.148 67.2225C128.308 68.2332 128.685 71.1725 130.294 72.3594C131.903 73.5463 135.095 73.2405 135.935 72.2299C135.944 72.2185 135.954 72.2069 135.962 72.195L135.998 72.2253L146.75 60.142L146.726 60.1218C146.748 60.101 146.768 60.079 146.787 60.056Z" fill="white"/>
<path d="M144.902 149.452L143.79 150.688C143.864 150.745 143.939 150.8 144.016 150.854C146.897 152.873 151.954 152.809 154.803 151.579C157.159 152.765 160.772 152.53 162.57 151.515L181.169 129.593C181.281 128.64 181.153 127.497 180.791 126.402L155.606 149.494L180.677 121.513C180.734 121.063 180.751 120.582 180.729 120.082C179.458 119.287 177.387 118.805 174.791 121.099C171.101 124.36 151.417 143.206 144.902 149.452Z" fill="white"/>
<path d="M235.065 187.907C236.298 189.14 236.324 193.277 234.569 195.154C232.814 197.031 228.893 197.059 227.66 195.825C227.632 195.797 227.605 195.768 227.58 195.737L227.551 195.765L176.84 147.723L184.356 139.782L235.066 187.825L235.022 187.866C235.036 187.879 235.051 187.893 235.065 187.907Z" fill="white"/>
<path d="M140.272 126.008C141.437 124.599 140.924 120.51 138.702 118.863C136.48 117.216 132.064 117.651 130.898 119.06L130.86 119.109L130.811 119.067L120.115 131.155C123.165 133.81 126.026 136.494 128.676 139.174L140.221 126.128L140.188 126.1C140.217 126.071 140.245 126.04 140.272 126.008Z" fill="white"/>
<path d="M45.1675 117.147C51.1076 115.455 63.3902 119.026 75.9045 126.546C89.0187 134.426 98.1851 144.116 98.7666 150.119C92.1401 152.754 76.8302 146.398 61.9992 134.388C54.9964 128.718 49.2044 122.68 45.1675 117.147Z" fill="white"/>
<path d="M117.174 150.597C118.03 130.368 56.4186 92.7291 48.4577 107.16L48.6911 107.166C58.6158 107.389 73.8988 113.329 89.1122 123.604C101.996 132.305 112.021 142.218 117.174 150.597Z" fill="white"/>
<path fill-rule="evenodd" clip-rule="evenodd" d="M151.327 205.137C150.151 204.234 148.709 203.804 147.277 203.376C146.825 203.241 146.374 203.107 145.933 202.958C145.793 202.907 145.651 202.864 145.507 202.827C142.258 203.817 138.949 204.639 135.596 205.29C132.966 205.802 130.324 206.26 127.682 206.685L127.357 206.738C124.822 207.146 122.276 207.556 119.719 207.775C119.54 207.794 119.366 207.848 119.194 207.902C118.864 208.006 118.541 208.107 118.197 207.95C114.544 208.549 110.807 208.887 107.13 209.214C104.528 209.444 101.92 209.636 99.3095 209.829L99.3075 209.829L99.2811 209.831C98.4314 209.894 97.5816 209.956 96.7317 210.021C92.6407 210.326 88.562 210.598 84.4588 210.751C79.82 210.925 75.1689 211.056 70.5301 211.11C66.4756 211.165 62.409 211.11 58.3546 211.034C55.055 210.958 51.7554 210.783 48.4559 210.566C43.2891 210.318 38.1449 209.779 33.0539 208.952C30.3299 208.554 27.6715 207.855 25.1398 206.87C25.0709 206.841 25.0019 206.814 24.9329 206.786C24.7951 206.73 24.6567 206.674 24.5189 206.609C23.5083 206.151 22.9848 205.617 22.9482 205.039C22.4764 205.352 22.148 205.665 21.9634 205.977C21.6663 206.125 21.572 206.795 21.5142 207.207C21.2497 208.055 20.3578 211.106 19.3367 214.6L19.3363 214.602C17.794 219.879 15.9569 226.165 15.5405 227.391C14.73 229.839 13.9194 232.288 13.072 234.71C12.6354 235.962 15.532 237.263 16.8356 237.848L16.8388 237.849C16.9541 237.901 17.0569 237.947 17.1438 237.987C18.2104 238.479 19.1782 234.634 19.4198 233.481C19.9451 231.962 21.245 227.607 22.6103 222.975C22.837 223.054 23.0644 223.132 23.2924 223.207C30.417 225.459 37.7513 227.013 45.1878 227.845C50.4138 228.542 55.5297 229.155 60.8903 229.528C66.2509 229.9 71.6238 230.189 76.9967 230.285C84.8541 230.429 92.7115 230.477 100.52 230.177C101.262 230.198 101.981 230.15 102.716 230.1C103.194 230.067 103.678 230.035 104.179 230.02C104.887 229.98 105.594 229.941 106.301 229.903L106.303 229.902C108.777 229.766 111.252 229.63 113.726 229.444C118.144 229.107 122.538 228.675 126.931 228.098C132.772 227.385 138.566 226.346 144.286 224.986C146.876 224.387 149.419 223.616 151.898 222.677C153.295 227.419 154.64 231.929 155.177 233.481C155.418 234.634 156.386 238.479 157.453 237.987C157.54 237.947 157.644 237.9 157.761 237.848C159.064 237.262 161.961 235.962 161.524 234.71C160.677 232.288 159.866 229.839 159.056 227.391C158.64 226.165 156.803 219.879 155.26 214.602C154.239 211.107 153.347 208.055 153.082 207.207C153.009 206.689 152.879 205.76 152.359 205.98C152.344 205.968 152.329 205.956 152.313 205.944C152.01 205.651 151.68 205.381 151.327 205.137ZM148.073 209.721C146.937 210.147 145.762 210.489 144.557 210.74C141.174 211.591 137.739 212.264 134.269 212.756C131.615 213.127 128.96 213.443 126.282 213.726C126.079 213.748 125.876 213.77 125.673 213.791L125.249 213.836L125.242 213.837C122.912 214.086 120.588 214.335 118.246 214.468C118.065 214.475 117.887 214.519 117.71 214.563C117.377 214.645 117.05 214.726 116.724 214.555C112.986 214.969 109.248 215.111 105.595 215.241C102.602 215.354 99.6184 215.418 96.6279 215.482L95.1611 215.514C91.0579 215.601 86.9548 215.667 82.8638 215.601C78.2128 215.547 73.5739 215.427 68.9229 215.241C64.8441 215.078 60.7897 214.849 56.7474 214.544C53.46 214.293 50.1726 213.944 46.8974 213.563C41.7683 213.014 36.6816 212.184 31.6659 211.078C29.9191 210.718 28.2088 210.234 26.5511 209.631C26.1209 211.022 25.1889 214.197 24.1276 217.813L24.1272 217.814C23.7877 218.971 23.435 220.173 23.0812 221.375C28.1296 222.972 33.31 224.145 38.5665 224.878C43.6334 225.683 48.7248 226.307 53.8284 226.896C55.9868 227.144 58.1534 227.277 60.3215 227.41L60.3272 227.411C60.7882 227.439 61.2492 227.468 61.7103 227.497C70.4366 228.026 79.163 228.374 87.9016 228.302C91.3652 228.302 94.8166 228.242 98.2802 228.098C98.958 228.068 99.6359 228.038 100.314 228.009L100.343 228.008C103.72 227.861 107.103 227.715 110.519 227.485C115.545 227.149 120.559 226.66 125.561 226.019C132.799 225.199 139.969 223.874 147.016 222.054C148.478 221.69 149.914 221.238 151.317 220.701C151.03 219.725 150.745 218.755 150.469 217.815C149.43 214.273 148.515 211.155 148.073 209.721Z" fill="white"/>
</svg>
