<svg xmlns="http://www.w3.org/2000/svg" width="482" height="438" viewBox="0 0 482 438">
  <g fill="none" fill-rule="evenodd">
    <g transform="matrix(1 0 0 -1 0 438)">
      <path fill="#261EE4" d="M428.43968,277.230431 L423.580696,277.230431 L423.580696,282.08938 L428.43968,282.08938 L428.43968,286.960404 L423.580696,286.960404 L423.580696,291.831428 L428.43968,291.831428 L428.43968,296.690377 L433.310749,296.690377 L433.310749,301.561401 L428.43968,301.561401 L428.43968,296.702452 L423.580696,296.702452 L423.580696,301.561401 L428.43968,301.561401 L428.43968,306.435152 L423.56861,306.435152 L423.56861,301.564128 L418.709626,301.564128 L418.709626,296.705178 L413.838557,296.705178 L413.838557,301.564128 L408.967488,301.564128 L408.967488,296.705178 L404.108504,296.705178 L404.108504,301.564128 L408.967488,301.564128 L408.967488,306.435152 L404.096029,306.435152 L404.096029,301.564128 L399.237434,301.564128 L399.237434,306.435152 L394.363636,306.435152 L394.363636,301.564128 L399.234706,301.564128 L399.234706,296.705178 L394.363636,296.705178 L394.363636,291.833765 L399.234706,291.833765 L399.234706,286.962741 L394.363636,286.962741 L394.363636,282.091717 L399.234706,282.091717 L399.234706,277.232768 L399.234706,277.220693 L404.09369,277.220693 L404.09369,272.361744 L408.964759,272.361744 L408.964759,277.220693 L413.835828,277.220693 L413.835828,272.361744 L418.707287,272.361744 L418.707287,277.220693 L423.566271,277.220693 L423.566271,272.361744 L428.437341,272.361744 L428.437341,277.220693 L433.30841,277.220693 L433.30841,282.091717 L428.437341,282.091717 L428.437341,277.230431 L428.43968,277.230431 Z M399.234706,277.218356 L399.234706,272.359017 L394.363636,272.359017 L394.363636,277.230431 L399.234706,277.230431 L399.234706,277.218356 Z M413.835828,301.564128 L413.835828,306.435152 L418.707287,306.435152 L418.707287,301.564128 L413.835828,301.564128 Z M428.43968,291.833765 L428.43968,286.962741 L433.310749,286.962741 L433.310749,291.833765 L428.43968,291.833765 Z M404.09369,296.693104 L399.234706,296.693104 L399.234706,291.833765 L404.09369,291.833765 L404.09369,296.693104 Z M404.105775,272.359017 L404.105775,267.487994 L408.964759,267.487994 L408.964759,272.359017 L413.835828,272.359017 L413.835828,267.487994 L418.707287,267.487994 L418.707287,272.359017 L423.578357,272.359017 L423.578357,267.487994 L428.437341,267.487994 L428.437341,272.359017 L433.30841,272.359017 L433.30841,267.487994 L428.437341,267.487994 L428.437341,262.61697 L423.566271,262.61697 L423.566271,267.487994 L418.707287,267.487994 L418.707287,262.61697 L413.835828,262.61697 L413.835828,267.487994 L408.964759,267.487994 L408.964759,262.61697 L404.09369,262.61697 L404.09369,267.487994 L399.234706,267.487994 L399.234706,262.61697 L394.363636,262.61697 L394.363636,267.487994 L399.234706,267.487994 L399.234706,272.359017 L404.105775,272.359017 Z M423.566271,282.08938 L423.566271,286.960404 L418.707287,286.960404 L418.707287,282.08938 L423.566271,282.08938 Z M413.835828,282.08938 L413.835828,277.230431 L418.707287,277.230431 L418.707287,282.08938 L413.835828,282.08938 Z M408.964759,282.08938 L413.835828,282.08938 L413.835828,286.960404 L408.964759,286.960404 L408.964759,282.08938 Z M408.964759,282.08938 L404.105775,282.08938 L404.105775,277.230431 L408.964759,277.230431 L408.964759,282.08938 Z M408.964759,291.833765 L404.105775,291.833765 L404.105775,286.962741 L408.964759,286.962741 L408.964759,291.833765 Z M413.835828,291.833765 L413.835828,296.693104 L408.964759,296.693104 L408.964759,291.833765 L413.835828,291.833765 Z M418.709626,291.833765 L413.838557,291.833765 L413.838557,286.962741 L418.709626,286.962741 L418.709626,291.833765 Z M418.709626,291.833765 L423.56861,291.833765 L423.56861,296.693104 L418.709626,296.693104 L418.709626,291.833765 Z M404.09369,286.962741 L404.09369,282.091717 L399.234706,282.091717 L399.234706,286.962741 L404.09369,286.962741 Z M438.181818,301.564128 L433.310749,301.564128 L433.310749,306.435152 L438.181818,306.435152 L438.181818,301.564128 Z M433.310749,291.833765 L438.181818,291.833765 L438.181818,296.705178 L433.310749,296.705178 L433.310749,291.833765 Z M438.181818,282.08938 L433.310749,282.08938 L433.310749,286.960404 L438.181818,286.960404 L438.181818,282.08938 Z M433.310749,272.359017 L438.181818,272.359017 L438.181818,277.230431 L433.310749,277.230431 L433.310749,272.359017 Z M433.310749,262.61697 L438.181818,262.61697 L438.181818,267.487994 L433.310749,267.487994 L433.310749,262.61697 Z"/>
      <path fill="#FFF" d="M121.712407,14.613461 L116.853423,14.613461 L116.853423,19.4724105 L121.712407,19.4724105 L121.712407,24.3434343 L116.853423,24.3434343 L116.853423,29.2144582 L121.712407,29.2144582 L121.712407,34.0734077 L126.583476,34.0734077 L126.583476,38.9444315 L121.712407,38.9444315 L121.712407,34.085482 L116.853423,34.085482 L116.853423,38.9444315 L121.712407,38.9444315 L121.712407,43.8181818 L116.841338,43.8181818 L116.841338,38.947158 L111.982354,38.947158 L111.982354,34.0882085 L107.111284,34.0882085 L107.111284,38.947158 L102.240215,38.947158 L102.240215,34.0882085 L97.381231,34.0882085 L97.381231,38.947158 L102.240215,38.947158 L102.240215,43.8181818 L97.3687561,43.8181818 L97.3687561,38.947158 L92.5101618,38.947158 L92.5101618,43.8181818 L87.6363636,43.8181818 L87.6363636,38.947158 L92.5074329,38.947158 L92.5074329,34.0882085 L87.6363636,34.0882085 L87.6363636,29.2167952 L92.5074329,29.2167952 L92.5074329,24.3457713 L87.6363636,24.3457713 L87.6363636,19.4747475 L92.5074329,19.4747475 L92.5074329,14.615798 L92.5074329,14.6037236 L97.366417,14.6037236 L97.366417,9.74477414 L102.237486,9.74477414 L102.237486,14.6037236 L107.108555,14.6037236 L107.108555,9.74477414 L111.980015,9.74477414 L111.980015,14.6037236 L116.838999,14.6037236 L116.838999,9.74477414 L121.710068,9.74477414 L121.710068,14.6037236 L126.581137,14.6037236 L126.581137,19.4747475 L121.710068,19.4747475 L121.710068,14.613461 L121.712407,14.613461 Z M92.5074329,14.6013867 L92.5074329,9.74204768 L87.6363636,9.74204768 L87.6363636,14.613461 L92.5074329,14.613461 L92.5074329,14.6013867 Z M107.108555,38.947158 L107.108555,43.8181818 L111.980015,43.8181818 L111.980015,38.947158 L107.108555,38.947158 Z M121.712407,29.2167952 L121.712407,24.3457713 L126.583476,24.3457713 L126.583476,29.2167952 L121.712407,29.2167952 Z M97.366417,34.0761341 L92.5074329,34.0761341 L92.5074329,29.2167952 L97.366417,29.2167952 L97.366417,34.0761341 Z M97.3785021,9.74204768 L97.3785021,4.87102384 L102.237486,4.87102384 L102.237486,9.74204768 L107.108555,9.74204768 L107.108555,4.87102384 L111.980015,4.87102384 L111.980015,9.74204768 L116.851084,9.74204768 L116.851084,4.87102384 L121.710068,4.87102384 L121.710068,9.74204768 L126.581137,9.74204768 L126.581137,4.87102384 L121.710068,4.87102384 L121.710068,0 L116.838999,0 L116.838999,4.87102384 L111.980015,4.87102384 L111.980015,0 L107.108555,0 L107.108555,4.87102384 L102.237486,4.87102384 L102.237486,0 L97.366417,0 L97.366417,4.87102384 L92.5074329,4.87102384 L92.5074329,0 L87.6363636,0 L87.6363636,4.87102384 L92.5074329,4.87102384 L92.5074329,9.74204768 L97.3785021,9.74204768 Z M116.838999,19.4724105 L116.838999,24.3434343 L111.980015,24.3434343 L111.980015,19.4724105 L116.838999,19.4724105 Z M107.108555,19.4724105 L107.108555,14.613461 L111.980015,14.613461 L111.980015,19.4724105 L107.108555,19.4724105 Z M102.237486,19.4724105 L107.108555,19.4724105 L107.108555,24.3434343 L102.237486,24.3434343 L102.237486,19.4724105 Z M102.237486,19.4724105 L97.3785021,19.4724105 L97.3785021,14.613461 L102.237486,14.613461 L102.237486,19.4724105 Z M102.237486,29.2167952 L97.3785021,29.2167952 L97.3785021,24.3457713 L102.237486,24.3457713 L102.237486,29.2167952 Z M107.108555,29.2167952 L107.108555,34.0761341 L102.237486,34.0761341 L102.237486,29.2167952 L107.108555,29.2167952 Z M111.982354,29.2167952 L107.111284,29.2167952 L107.111284,24.3457713 L111.982354,24.3457713 L111.982354,29.2167952 Z M111.982354,29.2167952 L116.841338,29.2167952 L116.841338,34.0761341 L111.982354,34.0761341 L111.982354,29.2167952 Z M97.366417,24.3457713 L97.366417,19.4747475 L92.5074329,19.4747475 L92.5074329,24.3457713 L97.366417,24.3457713 Z M131.454545,38.947158 L126.583476,38.947158 L126.583476,43.8181818 L131.454545,43.8181818 L131.454545,38.947158 Z M126.583476,29.2167952 L131.454545,29.2167952 L131.454545,34.0882085 L126.583476,34.0882085 L126.583476,29.2167952 Z M131.454545,19.4724105 L126.583476,19.4724105 L126.583476,24.3434343 L131.454545,24.3434343 L131.454545,19.4724105 Z M126.583476,9.74204768 L131.454545,9.74204768 L131.454545,14.613461 L126.583476,14.613461 L126.583476,9.74204768 Z M126.583476,0 L131.454545,0 L131.454545,4.87102384 L126.583476,4.87102384 L126.583476,0 Z"/>
      <path fill="#261EE4" d="M258.038022,262.61697 L262.909091,262.61697 L262.909091,218.798788 L258.038022,218.798788 L258.038022,262.61697 Z M253.171631,262.61697 L248.3029,262.61697 L248.3029,218.798788 L253.171631,218.798788 L253.171631,262.61697 Z M243.43456,262.61697 L238.56583,262.61697 L238.56583,218.798788 L243.43456,218.798788 L243.43456,262.61697 Z M228.828369,262.61697 L233.6971,262.61697 L233.6971,218.798788 L228.828369,218.798788 L228.828369,262.61697 Z M223.959639,262.61697 L219.090909,262.61697 L219.090909,218.798788 L223.959639,218.798788 L223.959639,262.61697 Z"/>
      <path fill="#FFF" d="M263.639394,354.686175 L263.639394,349.815152 L219.821212,349.815152 L219.821212,354.686175 L263.639394,354.686175 Z M263.639394,359.552525 L263.639394,364.421212 L219.821212,364.421212 L219.821212,359.552525 L263.639394,359.552525 Z M263.639394,369.289899 L263.639394,374.158586 L219.821212,374.158586 L219.821212,369.289899 L263.639394,369.289899 Z M263.639394,383.89596 L263.639394,379.027273 L219.821212,379.027273 L219.821212,383.89596 L263.639394,383.89596 Z M263.639394,388.764646 L263.639394,393.633333 L219.821212,393.633333 L219.821212,388.764646 L263.639394,388.764646 Z"/>
      <path fill="#261EE4" d="M219.090909 92.2152663L219.090909 87.3442424 175.272727 87.3442424 175.272727 92.2152663 219.090909 92.2152663zM219.090909 97.0816162L219.090909 101.950303 175.272727 101.950303 175.272727 97.0816162 219.090909 97.0816162zM219.090909 106.81899L219.090909 111.687677 175.272727 111.687677 175.272727 106.81899 219.090909 106.81899zM219.090909 121.425051L219.090909 116.556364 175.272727 116.556364 175.272727 121.425051 219.090909 121.425051zM219.090909 126.293737L219.090909 131.162424 175.272727 131.162424 175.272727 126.293737 219.090909 126.293737zM394.363636 223.669812L394.363636 218.798788 350.545455 218.798788 350.545455 223.669812 394.363636 223.669812zM394.363636 228.536162L394.363636 233.404848 350.545455 233.404848 350.545455 228.536162 394.363636 228.536162zM394.363636 238.273535L394.363636 243.142222 350.545455 243.142222 350.545455 238.273535 394.363636 238.273535zM394.363636 252.879596L394.363636 248.010909 350.545455 248.010909 350.545455 252.879596 394.363636 252.879596zM394.363636 257.748283L394.363636 262.61697 350.545455 262.61697 350.545455 257.748283 394.363636 257.748283z"/>
      <path fill="#261EE4" d="M443.050548,174.980606 L438.181818,174.980606 C438.181818,150.780895 457.800201,131.162424 482,131.162424 L482,136.031111 C460.487768,136.031111 443.050548,153.468411 443.050548,174.980606 Z M452.788009,174.980606 L447.919279,174.980606 C447.919279,156.158263 463.177674,140.899798 482,140.899798 L482,145.768485 C465.86758,145.768485 452.788009,158.848115 452.788009,174.980606 Z M457.656739,174.980606 L462.525469,174.980606 C462.525469,164.225482 471.245053,155.505859 482,155.505859 L482,150.637172 C468.555147,150.637172 457.656739,161.53563 457.656739,174.980606 Z M472.26254,174.980606 L467.394199,174.980606 C467.394199,166.912997 473.932621,160.374545 482,160.374545 L482,165.243232 C476.622527,165.243232 472.26254,169.603239 472.26254,174.980606 Z M482,174.980606 L477.13127,174.980606 C477.13127,172.290754 479.310094,170.111919 482,170.111919 L482,174.980606 Z" transform="rotate(90 460.09 153.072)"/>
      <path fill="#261EE4" fill-rule="nonzero" d="M43.8181818,262.61697 L87.6363636,262.61697 L87.6363636,218.798788 C63.4365642,218.798788 43.8181818,238.417259 43.8181818,262.61697 Z"/>
      <path fill="#261EE4" fill-rule="nonzero" d="M307.165455,437.889697 L350.983636,437.889697 L350.983636,394.071515 C326.783837,394.071515 307.165455,413.689986 307.165455,437.889697 Z" transform="rotate(-180 329.075 415.98)"/>
      <path fill="#261EE4" d="M4.87106923 350.253333L0 350.253333 0 306.435152 4.87106923 306.435152 4.87106923 350.253333zM19.4795988 350.253333L24.3506681 350.253333 24.3506681 306.435152 19.4795988 306.435152 19.4795988 350.253333zM34.0881284 350.253333L29.2170592 350.253333 29.2170592 306.435152 34.0881284 306.435152 34.0881284 350.253333zM43.8181818 350.253333L38.9471126 350.253333 38.9471126 306.435152 43.8181818 306.435152 43.8181818 350.253333zM9.74213847 350.253333L14.6132077 350.253333 14.6132077 306.435152 9.74213847 306.435152 9.74213847 350.253333zM355.854706 87.3442424L350.983636 87.3442424 350.983636 43.5260606 355.854706 43.5260606 355.854706 87.3442424zM370.463235 87.3442424L375.334304 87.3442424 375.334304 43.5260606 370.463235 43.5260606 370.463235 87.3442424zM385.071765 87.3442424L380.200696 87.3442424 380.200696 43.5260606 385.071765 43.5260606 385.071765 87.3442424zM394.801818 87.3442424L389.930749 87.3442424 389.930749 43.5260606 394.801818 43.5260606 394.801818 87.3442424zM360.725775 87.3442424L365.596844 87.3442424 365.596844 43.5260606 360.725775 43.5260606 360.725775 87.3442424z"/>
    </g>
    <g transform="translate(127 125)">
      <g transform="rotate(18 32.254 214.14)">
        <path fill="#B7CEFF" d="M103.934846,36.5914868 C128.88081,46.1957635 146.526986,62.5024117 143.055737,71.5721603 C142.976697,71.778678 142.887512,71.9802687 142.788392,72.1769363 L142.995811,72.2639685 L114.136584,140.458076 C104.225053,131.452187 85.7902927,122.678746 63.804277,117.436995 C47.6857991,113.594141 32.4774081,112.321502 20.4916843,113.337498 L53.9237312,34.3429095 L54.2331943,34.4747301 C54.2674004,34.3704673 54.3040314,34.267282 54.3431017,34.1651982 C57.8143505,25.0954496 78.9888809,26.9872101 103.934846,36.5914868 Z"/>
        <path fill="#FFF" d="M68.867051,42.9112396 C69.0100012,42.9600768 69.1512891,43.0144601 69.2908106,43.0740567 L39.4756448,116.863668 L29.8496448,113.510658 L57.28898,47.0815093 L57.3823265,47.1206569 C57.3926444,47.0896933 57.4036938,47.0590497 57.4154789,47.0287332 C58.4625465,44.3352336 64.7878652,41.5176362 68.867051,42.9112396 Z"/>
        <path fill="#4038FF" d="M127.643759,52.0791026 C128.295268,50.4000379 132.231021,48.6436136 134.769182,49.5123534 C137.307342,50.3810932 139.00326,54.0650782 138.351751,55.7441429 C138.336916,55.7823751 138.320178,55.8196952 138.301574,55.8561039 L138.340504,55.872216 L121.26714,97.2825943 L110.491684,93.5223803 L127.565048,52.112002 L127.623131,52.1364057 C127.629551,52.1171037 127.636426,52.0980012 127.643759,52.0791026 Z" transform="rotate(-180 124.492 73.283)"/>
        <path fill="#4038FF" d="M74.518018 92.030412C74.936845 90.9809966 77.4669725 89.8832314 79.0986468 90.4261937 80.7303212 90.9691561 81.8205543 93.2716467 81.4017273 94.3210622 81.3921906 94.3449573 81.38143 94.3682824 81.3694706 94.3910378L81.3944969 94.4011079 70.4187628 120.282594 63.4916843 117.932461 74.4674184 92.0509741 74.504757 92.0662264C74.5088841 92.0541627 74.5133039 92.0422236 74.518018 92.030412zM104.666571 62.4522544C106.592853 63.0937544 107.879934 65.8141044 107.385485 67.0539693 107.374226 67.082201 107.361523 67.1097591 107.347404 67.1366442L107.376949 67.1485418 100.78422 82.1932864 100.74014 82.1752661C100.735268 82.1895192 100.73005 82.2036249 100.724485 82.2175801 100.230036 83.457445 97.2430802 84.7544343 95.316798 84.1129343 93.3905158 83.4714343 92.103435 80.7510843 92.5978835 79.5112194 92.6091421 79.4829877 92.6218456 79.4554296 92.6359644 79.4285445L92.6064194 79.4166469 99.1991482 64.3719023 99.2432284 64.3899226C99.2481008 64.3756695 99.2533185 64.3615638 99.2588838 64.3476086 99.7533323 63.1077436 102.740288 61.8107544 104.666571 62.4522544z"/>
        <path fill="#FFF" d="M89.9122204,43.6307294 C91.8385026,44.2722294 93.1255835,46.9925795 92.6311349,48.2324444 C92.6198763,48.260676 92.6071728,48.2882342 92.5930541,48.3151193 L92.622599,48.3270169 L86.0298703,63.3717614 L85.98579,63.3537411 C85.9809176,63.3679942 85.9756999,63.3821 85.9701347,63.3960552 C85.4756861,64.6359201 82.4887301,65.9329094 80.5624478,65.2914094 C78.6361656,64.6499094 77.3490848,61.9295593 77.8435334,60.6896944 C77.8547919,60.6614627 77.8674954,60.6339046 77.8816142,60.6070195 L77.8520692,60.5951219 L84.444798,45.5503774 L84.4888783,45.5683977 C84.4937506,45.5541446 84.4989684,45.5400388 84.5045336,45.5260836 C84.9989822,44.2862187 87.9859382,42.9892294 89.9122204,43.6307294 Z"/>
        <path fill="#B7CEFF" d="M195.956534,88.4713882 C202.508995,90.6816708 206.881625,100.070814 205.196322,104.352687 C205.157948,104.450185 205.114659,104.545361 205.066556,104.638217 L205.167052,104.679224 L174.785599,177.091677 L174.635663,177.029565 C174.619051,177.078786 174.601264,177.127499 174.582295,177.175693 C172.896992,181.457566 162.731015,185.942532 156.178554,183.732249 C149.626093,181.521966 145.253463,172.132823 146.938766,167.85095 C146.97714,167.753452 147.020429,167.658276 147.068532,167.565421 L146.968036,167.524413 L177.349489,95.1119603 L177.499425,95.1740727 C177.516037,95.1248516 177.533824,95.0761383 177.552793,95.0279441 C179.238096,90.7460713 189.404073,86.2611055 195.956534,88.4713882 Z" transform="rotate(94 176.068 136.102)"/>
        <path fill="#FFF" d="M145.997535,93.5161582 C149.184949,96.3318092 149.979211,102.219421 148.246418,104.34423 C148.204641,104.395459 148.160232,104.444358 148.113252,104.490948 L148.168274,104.534686 L147.976839,104.754021 C149.751688,106.982853 150.104262,110.603628 148.961513,112.002807 C148.930758,112.040463 148.898062,112.076406 148.863472,112.110649 L148.904026,112.142839 L131.589045,131.927838 L131.528665,131.879402 C131.514405,131.898799 131.499674,131.917808 131.484472,131.936422 C130.234446,133.466949 125.629771,134.055943 122.804824,132.633732 C119.911954,133.883352 114.776494,133.948378 111.84972,131.897453 C111.772162,131.843105 111.695797,131.78702 111.620627,131.729275 L145.997535,93.5161582 Z" transform="rotate(-18 130.62 113.516)"/>
        <polygon fill="#4038FF" points="150.727 97.946 153.847 100.44 123.847 127.946" transform="rotate(-18 138.847 112.946)"/>
        <path fill="#4038FF" d="M152.668638,82.1917851 L148.60409,101.627752 C146.63924,98.7923559 144.1552,98.7017328 141.151969,101.355883 C138.148737,104.010032 127.32096,114.288667 108.668638,132.191785 L152.668638,82.1917851 Z" transform="rotate(-18 130.669 107.192)"/>
        <path fill="#4038FF" d="M141.475897,100.85622 L188.689904,117.353427 C173.273177,117.340695 162.029203,119.649125 154.957981,124.278717 C147.88676,128.908309 143.30664,136.960055 141.217622,148.433954 L141.475897,100.85622 Z" transform="rotate(22 164.954 124.645)"/>
        <path fill="#4038FF" d="M173.303335,108.023289 C174.017581,106.192125 178.323458,104.273167 181.098193,105.217575 C183.872928,106.161984 185.723635,110.176396 185.00939,112.007561 C184.993126,112.049256 184.974782,112.089959 184.954399,112.129671 L184.996955,112.147195 L166.282252,157.309833 L154.502523,153.221876 L173.217225,108.059238 L173.280716,108.085782 C173.287757,108.064732 173.295296,108.0439 173.303335,108.023289 Z" transform="rotate(96 169.833 131.14)"/>
        <path fill="#FFF" d="M191.539955,99.9936824 C192.174865,98.3397372 196.002338,96.6065444 198.468756,97.4595968 C200.935174,98.3126491 202.580191,101.938595 201.945281,103.592541 C201.930824,103.630201 201.914517,103.666965 201.896399,103.702833 L201.934225,103.718662 L178.309503,170.609441 L167.83869,166.916931 L191.463412,100.026151 L191.519848,100.050127 C191.526107,100.031114 191.532809,100.012298 191.539955,99.9936824 Z" transform="rotate(96 184.96 133.922)"/>
        <path fill="#FFF" d="M103.277292,107.567818 C105.940142,108.461214 107.719375,112.249758 107.03586,113.976478 C107.020296,114.015795 107.002735,114.054174 106.983218,114.091616 L107.02406,114.108186 L99.9680673,130.331538 C96.5671596,128.575034 92.9614173,126.880089 89.1826673,125.272551 L95.7192457,110.24125 L95.7801814,110.266346 L95.801823,110.207416 C96.4853379,108.480697 100.614441,106.674422 103.277292,107.567818 Z"/>
        <ellipse cx="55.903" cy="153.522" fill="#B7CEFF" rx="52.105" ry="17.568" transform="rotate(21 55.903 153.522)"/>
        <path fill="#B7CEFF" d="M65.4916843,4.86646432 C69.9300866,-2.21926011 90.8637515,-1.00128914 113.638156,7.90376073 C136.248341,16.7445988 152.533168,29.9793622 151.439736,38.2825943 C142.581273,29.4713159 128.456209,20.5977731 111.542174,13.9841944 C94.5397841,7.33606745 78.1315927,4.30585804 65.7367132,4.85521558 L65.4916843,4.86646432 Z"/>
        <path fill="#FFF" d="M12.5683051,134.976881 C17.8368997,131.589046 30.6777214,131.291237 44.9701332,134.681856 C60.1638601,138.286295 72.1049207,144.898231 74.4910449,150.559259 C69.0715476,155.258163 52.3054339,153.82138 34.1836077,146.673311 C25.6300936,143.299418 18.1295866,139.187627 12.4917811,135.027091 Z"/>
        <path fill="#B7CEFF" d="M45.0435888 16.0299099C49.3856434 3.88609023 78.1782531 4.45674435 109.353682 17.3045015 140.529112 30.1522587 162.28186 50.4119347 157.939805 62.5557543 156.56438 66.4025313 152.735534 68.9735107 147.154693 70.2825943 147.331143 69.9489776 147.484265 69.6017032 147.612975 69.2417281 151.425511 58.5788621 132.374631 40.8101107 105.061644 29.554111 77.7486577 18.2981114 52.5164363 17.8172816 48.7039006 28.4801476 48.5607012 28.8806463 48.4497567 29.2911697 48.3702934 29.7109963 44.9434151 24.6573533 43.6505481 19.9259538 45.0435888 16.0299099zM1.94123732 119.217827C5.87755328 107.731393 34.6109272 107.256699 66.1190241 118.157569 97.6271211 129.058439 119.978466 147.206935 116.04215 158.693369 114.79525 162.331907 111.06016 164.865504 105.536864 166.282594 105.702012 165.965037 105.843454 165.635549 105.960136 165.295061 109.416414 155.209411 89.8404611 139.291313 62.2360222 129.740993 34.6315833 120.190674 9.45189761 120.624644 5.99562018 130.710294 5.86580193 131.089112 5.76847671 131.476159 5.70284951 131.870787 2.1212566 127.273821.678367794 122.902965 1.94123732 119.217827z"/>
        <path fill="#FFF" d="M109.607772,17.2120509 C140.208591,29.5082045 161.37844,48.4290745 156.891954,59.4729968 C156.779232,59.7504708 156.651388,60.0203325 156.508767,60.2825943 C153.360126,48.3502575 133.903649,32.5584083 107.869347,21.9044796 C79.6706351,10.3648165 53.42341,8.80949241 45.4916843,17.5605628 C45.5472207,16.6488043 45.7394781,15.7745091 46.0765859,14.9446855 C50.5630725,3.90076317 79.0069535,4.91589723 109.607772,17.2120509 Z"/>
        <path fill="#FFF" fill-rule="nonzero" d="M12.4427408,124.584668 C15.6031309,108.148916 86.9218278,125.167596 92.4427408,144.973577 C84.8367582,138.498164 72.0438573,132.069887 56.869032,127.708929 C38.9510122,122.5598 22.3259956,121.618895 12.6702446,124.517873 L12.4427408,124.584668 Z"/>
      </g>
      <polygon fill="#8B613B" fill-rule="nonzero" points="115.55 210.47 115.45 210.55 115.53 210.45"/>
      <path fill="#4038FF" fill-rule="nonzero" d="M80.2050885,273.997008 L77.2152287,273.997008 C67.7908165,273.935147 58.3794029,273.280221 49.0357997,272.036043 C39.8481336,270.917332 30.7848178,268.930893 21.9651104,266.102865 C17.0518018,264.510508 12.3170169,262.404 7.83802271,259.817719 C6.75092844,259.188411 5.7063431,258.487129 4.71112763,257.718481 C1.34037711,255.239773 -0.429766803,251.109034 0.0893026326,246.93317 C0.375830867,244.419112 0.849225341,242.244451 1.33507756,240.069791 C1.48457056,239.340714 1.6465213,238.611637 1.78355654,237.88256 C2.16974677,235.921594 2.5808525,233.973199 3.02933147,232.012234 C3.60238794,229.25934 4.17544441,226.506446 4.68621213,223.740982 C5.81986732,217.744952 9.66931186,213.232218 15.7860668,210.693019 C22.9866459,207.713859 30.4239222,206.494541 37.4127196,205.501488 C43.6415943,204.621568 50.2068282,204.005623 58.067668,203.565663 C65.1935006,203.175984 72.5186572,203 82.5596031,203 C91.3672319,203 98.8543393,203.301687 105.519235,203.754218 C110.676743,204.106186 116.195526,204.659279 122.37457,205.426066 C127.190553,205.987686 131.967033,206.852532 136.676066,208.015546 C140.705161,208.891789 144.56994,210.41093 148.124738,212.515711 C151.874368,214.802719 154.622113,218.442557 155.811169,222.697647 C157.791951,229.887854 159.835022,236.952358 161.404699,242.307303 C163.074037,248.014215 161.192917,253.469722 156.259648,257.27852 C152.731177,259.951725 148.879854,262.160897 144.798519,263.852783 C139.831742,265.917304 134.701879,267.557207 129.463029,268.755197 C124.342894,270.012226 118.898858,271.005279 112.794561,271.860059 C101.994082,273.338346 91.104341,274.052406 80.2050885,273.997008 L80.2050885,273.997008 Z"/>
      <g fill="#B7CEFF" fill-rule="nonzero" transform="rotate(-1 13646.906 -212.054)">
        <path d="M3.04725483,6.297345 L3.04725483,9.07010197 C3.04725483,11.7665445 0.583483285,16.5140866 1.06155003,19.2232482 C1.39125123,21.1692657 5.96640724,25.2827793 34.8075325,26.3090557 C63.6486578,27.3353321 73.8334372,24.9023711 82.624878,22.12558 C86.5284059,20.8926443 96.8967025,9.79508888 96.7822626,5 C66.0531549,8.16704809 33.2314001,10.380166 3.04725483,6.297345 Z" transform="rotate(5 48.891 15.774)"/>
        <path d="M52.1841994,16.8337608 C47.7138361,19.8070362 49.8601731,22.0516021 58.6232103,23.5674584 C88.2498103,28.6923561 110.442877,28.0084166 118.608109,26.8556006 C126.773342,25.7027845 133.977483,21.3341334 133.935864,19.5539516 C124.312418,20.4165896 107.431494,21.5310511 92.0696037,21.0497664 C72.4643424,20.4355377 58.3682668,17.6836071 52.1841994,16.8337608 Z" transform="rotate(-6 91.927 22.254)"/>
      </g>
      <path fill="#B7CEFF" fill-rule="nonzero" d="M35.2241893,227.945609 L35.2241893,229.939054 C35.2241893,231.894163 33.6423782,233.849273 34.0749047,235.804383 C34.39621,237.210017 36.6206319,238.155625 39.8831173,238.79455 C48.2370571,240.430197 63.3631257,239.98295 70.1352544,239.81683 C85.3354704,239.459032 109.124426,239.395139 122.038431,236.711656 C126.153611,235.855496 127.154601,230.47575 126.981591,227 C96.9518957,229.274572 64.796642,230.884662 35.2241893,227.945609 Z"/>
      <path fill="#B7CEFF" fill-rule="nonzero" d="M110.417061,232.725192 C106.619648,233.20971 102.859465,233.375466 99.0992814,233.541222 C95.5624753,233.681477 92.0256691,233.770731 88.488863,233.859984 C84.3191547,233.974738 80.1618563,234.038491 75.992148,233.974738 C71.2639967,233.974738 66.5482551,233.770731 61.8201038,233.566723 C57.6834884,233.371216 53.5716928,233.099206 49.4847168,232.750693 C46.1340584,232.457432 42.7958098,232.062167 39.469971,231.6159 C34.2675609,231.003705 29.107434,230.05833 24.0197127,228.785294 C21.2800081,228.148116 18.6256111,227.171955 16.1146407,225.878185 C15.9036733,225.763431 15.7051158,225.661427 15.5065582,225.533922 C13.5706223,224.386379 13.4961632,222.983827 15.3080007,221.708779 C17.228814,220.464963 19.3324533,219.547883 21.5377434,218.992927 C26.579156,217.520108 31.7179052,216.424944 36.9135427,215.716054 C40.7481852,215.116782 44.632467,214.785269 48.504339,214.441006 C50.9863082,214.224248 53.3565888,213.918237 55.7889186,213.777981 C57.5883463,213.663227 59.387774,213.522972 61.1872016,213.47197 C64.2896632,213.369966 67.3921247,213.293463 70.4945862,213.165959 C76.5878206,212.923699 82.681055,213 88.7618796,213.063955 C93.5768999,213.063955 98.40433,213.357216 103.21935,213.675978 C107.823403,213.969239 112.415046,214.428256 117.006689,214.951025 C120.493856,215.308039 124.005842,215.575799 127.43096,216.226073 C131.727798,216.903375 135.967824,217.917881 140.113823,219.260687 C141.987709,219.949213 144.022924,220.382729 145.598975,221.810783 C145.940031,222.077129 146.25959,222.371346 146.554533,222.690566 C146.875049,222.965622 147.039425,223.387868 146.991936,223.814158 C146.944448,224.240448 146.691463,224.613612 146.318746,224.807145 C144.003592,226.448846 141.411309,227.633557 138.674281,228.300776 C135.238941,229.292244 131.749907,230.075621 128.22519,230.646864 C125.519844,231.08038 122.810361,231.462894 120.096741,231.794407 C117.391395,232.125919 114.673638,232.482933 111.943472,232.648689 C111.434668,232.610437 110.888635,233.031203 110.417061,232.725192 Z"/>
      <path fill="#FFF" fill-rule="nonzero" d="M145.554606 222.346655C143.984282 221.14012 141.944097 220.76377 140.077018 220.13283 139.935409 220.081923 139.790962 220.037588 139.644251 220 136.345422 221.005326 132.98494 221.84057 129.579338 222.501623 126.908551 223.021872 124.225398 223.486776 121.542246 223.918472 118.859093 224.350168 116.163576 224.792933 113.455694 225.025385 112.924009 225.08073 112.441784 225.446012 111.910099 225.202491 108.200672 225.811293 104.404691 226.154436 100.670534 226.48651 97.1589426 226.796445 93.6349866 227.039966 90.1110305 227.305625 85.9564718 227.615561 81.8142778 227.892289 77.6473543 228.047257 72.9363815 228.224363 68.2130439 228.357193 63.5020711 228.412538 59.3846066 228.467884 55.2547774 228.412538 51.137313 228.335054 47.7864635 228.25757 44.4356141 228.080464 41.0847646 227.859082 35.8376904 227.607721 30.6135286 227.060559 25.4433456 226.220851 22.676961 225.816358 19.9773143 225.106201 17.4062529 224.106647 17.196052 224.018094 16.9858511 223.94061 16.7756502 223.840988 15.7493753 223.376084 15.2176907 222.833697 15.1805964 222.247033 13.511354 223.353946 13.6102721 224.460859 15.4897153 225.501357L16.1079532 225.789155C18.6200354 226.94272 21.2823143 227.81276 24.0337632 228.379331 29.1274203 229.502738 34.2932115 230.345572 39.5020756 230.903092 42.8281955 231.290512 46.1666802 231.644724 49.5051649 231.899314 53.6102646 232.20925 57.727729 232.441701 61.869923 232.607738 66.5932606 232.795913 71.3042334 232.917674 76.027571 232.97302 80.1821298 233.039434 84.3490532 232.97302 88.5159767 232.884466 92.0522975 232.806983 95.5762536 232.740568 99.1125744 232.607738 102.822002 232.474909 106.617983 232.33101 110.413963 231.910383 110.920918 232.176042 111.427873 231.843968 111.959558 231.82183 114.69217 231.666862 117.400052 231.356927 120.120298 231.069129 122.840545 230.781332 125.536062 230.460327 128.23158 230.083977 131.755944 229.584346 135.244643 228.900582 138.6798 228.036188 141.417481 227.464791 144.010031 226.435786 146.321221 225.003246 146.692584 224.835234 146.94465 224.511277 146.991966 224.1412 147.039282 223.771123 146.875503 223.404557 146.556151 223.165771 146.248644 222.86799 145.913606 222.593979 145.554606 222.346655L145.554606 222.346655zM93.9580848 247.774992C86.0282807 248.08006 78.0487601 248.031249 70.0692394 247.884817 64.6128382 247.787195 59.156437 247.494331 53.712465 247.116047 48.2684929 246.737764 43.0731041 246.115427 37.7658528 245.407671 30.2137301 244.562079 22.7654626 242.984301 15.5300857 240.697432 13.8366839 240.134515 12.1768452 239.478603 10.5584217 238.732799 9.84995962 238.403326 9.9493929 237.927421 10.1358303 237.51253 10.3222677 237.097638 10.7945758 237.280679 11.1550214 237.414908 17.5805929 239.776971 24.248637 241.44634 31.0416773 242.393606 36.1873495 243.211186 41.35788 243.845726 46.5408397 244.443658 49.2006799 244.748725 51.8729493 244.882955 54.5452187 245.053792 63.4072097 245.590711 72.2692007 245.944589 81.1436209 245.871373 84.6610731 245.871373 88.1660962 245.810359 91.6835485 245.663927 95.8100296 245.480887 99.9365107 245.322252 104.112708 245.04159 109.21695 244.699914 114.308763 244.203672 119.388146 243.552862 126.7391 242.72022 134.020301 241.374518 141.176463 239.525974 144.208943 238.771497 147.132215 237.643994 149.876875 236.170234 150.461046 235.840761 150.597766 235.999396 150.809062 236.56072 151.025744 236.919796 151.05997 237.357397 150.901669 237.744743 150.743368 238.132089 150.410554 238.425103 150.001167 238.537556 146.28645 240.25126 142.400008 241.580391 138.404761 242.50343 132.5958 243.884622 126.711419 244.93983 120.780212 245.663927 116.318143 246.249656 111.856075 246.688953 107.369148 247.030628 104.137567 247.274682 100.905985 247.433317 97.6744036 247.616357 96.3817709 247.652966 95.2010007 247.8116 93.9580848 247.774992z"/>
      <path fill="#4038FF" fill-rule="nonzero" d="M90.3854003,258.774992 C82.7930347,259.08006 75.1530681,259.031249 67.5131016,258.884817 C62.2888876,258.787195 57.0646737,258.494331 51.8523601,258.116047 C46.6400464,257.737764 41.6657379,257.115427 36.5843271,256.407671 C29.3535714,255.562079 22.2222514,253.984301 15.2947629,251.697432 C13.6734208,251.134515 12.0842135,250.478603 10.5346591,249.732799 C9.85634432,249.403326 9.95154639,248.927421 10.1300503,248.51253 C10.3085542,248.097638 10.760764,248.280679 11.1058716,248.414908 C17.2580144,250.776971 23.642312,252.44634 30.1462868,253.393606 C35.0729942,254.211186 40.0235021,254.845726 44.9859103,255.443658 C47.5325659,255.748725 50.0911217,255.882955 52.6496774,256.053792 C61.1345625,256.590711 69.6194475,256.944589 78.1162328,256.871373 C81.4840062,256.871373 84.8398794,256.810359 88.2076528,256.663927 C92.158539,256.480887 96.1094251,256.322252 100.107912,256.04159 C104.994952,255.699914 109.870092,255.203672 114.733331,254.552862 C121.771479,253.72022 128.742841,252.374518 135.594486,250.525974 C138.497924,249.771497 141.296802,248.643994 143.924668,247.170234 C144.48398,246.840761 144.614883,246.999396 144.817187,247.56072 C145.024648,247.919796 145.057418,248.357397 144.905854,248.744743 C144.754289,249.132089 144.435636,249.425103 144.04367,249.537556 C140.487027,251.25126 136.765965,252.580391 132.940728,253.50343 C127.378958,254.884622 121.744976,255.93983 116.06616,256.663927 C111.793967,257.249656 107.521774,257.688953 103.22578,258.030628 C100.131713,258.274682 97.0376454,258.433317 93.9435779,258.616357 C92.7059509,258.652966 91.5754262,258.8116 90.3854003,258.774992 Z"/>
      <path fill="#FFF" fill-rule="nonzero" d="M17.0508963,225.919761 C16.4594324,229.506124 13.9165055,247.534408 13.223065,251.077821 C13.1430885,252.271382 12.7131823,256.274826 11.5710451,255.931223 C10.4289078,255.587619 6.72746656,254.649791 7.01300087,253.210951 C7.52288358,250.655399 7.99197567,248.078371 8.46106776,245.501343 C8.86897393,243.35382 11.2487383,226.592575 11.6158539,224.359151 C11.6158539,223.82227 11.6158539,222.855885 12.1869225,223.027687 C12.7579912,223.199489 16.9693151,224.158792 17.0508963,225.275504 C17.0689381,225.439599 17.0689381,225.605338 17.0508963,225.769434 L17.0508963,225.919761 Z" transform="rotate(8 12.03 239.48)"/>
      <path fill="#FFF" fill-rule="nonzero" d="M154.050896,225.919761 C153.459432,229.506124 150.916506,247.534408 150.223065,251.077821 C150.143088,252.271382 149.713182,256.274826 148.571045,255.931223 C147.428908,255.587619 143.727467,254.649791 144.013001,253.210951 C144.522884,250.655399 144.991976,248.078371 145.461068,245.501343 C145.868974,243.35382 148.248738,226.592575 148.615854,224.359151 C148.615854,223.82227 148.615854,222.855885 149.186923,223.027687 C149.757991,223.199489 153.969315,224.158792 154.050896,225.275504 C154.068938,225.439599 154.068938,225.605338 154.050896,225.769434 L154.050896,225.919761 Z" transform="scale(-1 1) rotate(8 0 -1891.761)"/>
      <polygon fill="#8B613B" fill-rule="nonzero" points="278.475 244.445 278.555 244.555 278.445 244.475"/>
    </g>
  </g>
</svg>
