<svg viewBox="0 0 400 320" xmlns="http://www.w3.org/2000/svg">
  <g fill="none" fill-rule="evenodd">
    <path d="M192.895305 226.173678c-7.186666-4.095489-20.608363-11.765189-20.56264-20.035342l9.480712-83.3547544c.045605-8.2487741 4.509321-15.8887766 11.712249-20.0464356l73.005766-42.1402391c7.202927-4.157659 16.052738-4.202464 23.220826-.117563l72.474979 41.3015464c7.186666 4.0954882 11.588754 11.7183808 11.54303 19.9885341l-.461102 83.4015616c-.045605 8.248774-4.509322 15.888777-11.712249 20.046436l-73.005766 42.140239c-7.202927 4.157659-16.052738 4.202464-23.220826.117563l-72.474979-41.301546z" fill="#000"/>
    <path d="M248.584583 199.746924c-1.792817-1.904452-4.068855-1.471358-6.559052-.403214-2.254122-1.369682-4.386133-2.896091-4.802888-6.506135-.07407-.643096-3.566314-1.027017-4.007439-1.228325-3.583629-1.63621-1.463306-5.69495-5.768786-5.864106-2.672574-.104953-2.632908 1.322908-4.185109-.613254-.232775-.290325-.915426-1.099179-2.047954-2.426564l-1.198825-9.724902-10.741992-11.094417c-8.393525-2.650418-12.765109-3.989625-13.114754-4.017621.552336.515019 3.858173 3.095122 9.917511 7.740311l10.200711 9.867721c1.479219 5.636401 2.630308 9.021099 3.453268 10.154094-1.807323-1.781704-13.854203-9.143129-16.102819-10.101082-2.321829-.989773-6.719497-1.460983-9.050064-2.4424 1.510554 1.727927 13.824065 12.037151 15.956103 12.728996 2.423274.786718 5.692898-.853056 6.938356 1.649499.573047 1.151173.59691 3.548596 2.032666 2.428252.677863-.529096 2.119858 1.706602 2.535941 1.762308 2.484108.333482 2.306008 2.484994 4.384501 3.66809 4.179401 2.377981 4.093115 4.213343 4.810602 9.909951.206369 1.638636 3.787302 1.693217 4.006393 3.304237.036299.266922.348824.442868.604625.449074 4.072119.09316 9.460832 10.116514 11.537149 13.690188-.217135-2.823874-1.961898-11.836831-3.488808-12.771687-2.116105-1.295167-4.056759-1.614514-5.630347-3.893486-.397785-.576651-3.237103-2.455537-2.976569-3.347031.742168-2.538166.096394-2.410338.019781-4.752034 1.364132.230588 2.044745 1.397882 2.981797 2.090935 1.038721.76696 2.171462.8749 3.678938.006396 2.203332-.424406 4.337903-.602975 6.617064-.263794zm-22.980694-60.800316c.350801.203886.701888.408516 1.052189.61327.149559-.064642.298582-.129594.448391-.19467.199019.107489.398324.215721.597593.322776-.166355.293989-.289891.609829-.066913.716693.214968.103393.424694-.159166.587724-.458549.191208.093135.382649.185246.573857.278381-.112556.400326.008509.395622.266274.153301.447952.253662.895903.507325 1.34439.761297.362203.721574.622073 1.667054 1.834324.528699.984617.146471 1.578987 1.07862 2.670422 1.010145-.204682 1.416749.146858 1.5927 1.377517.688986.488821.272072.978143.543275 1.466696.815192.0584.363678.22963.397224.539395.026936.108586-.200033.216384-.399942.324702-.60013.618284.301161 1.270299.550041 1.635385 1.24492-3.578857 4.679099-7.320572 9.209094-10.695417 14.073814-4.36975 6.298853-6.732169 15.329403-7.236836 22.061177-.042875.578934-.05968 1.148623-.067186 1.712109-.015138 1.13153-.045246 2.282193 1.440428.730553.249043-.260675.714404-.556672.872231-.469515 1.491977.823434 2.958938-.964183 4.410711-2.215906 2.393511-2.06367 4.791407-2.89018 7.140039-3.489321 2.809345-.717231 5.704314-1.801732 8.386133-1.898653 2.700772-.097545 5.378308-4.289947 7.918058-6.737951 1.966689-1.896474-.591084-3.906391 1.487586-5.514725.208605-.098821.417728-.19792.626601-.296586 0 0-.078294-.106023-.079046-.10472.425041.289043.802396.674396 1.283028.849703 4.873313 1.781359 9.714267 3.634315 14.027426 6.456244 4.270396 2.793164 3.894781 9.260907 3.826747 16.05458-2.357974-2.060156-4.370101-3.818574-6.382478-5.576557.061889.837433.347939 1.375503.712125 1.813444 2.005141 2.409027 3.59548 5.34007 5.899373 7.371867l.13411.908111c-.602741.834208-.544594 1.311768.047123 1.500913-.040727 6.091715 1.313001 12.350685-.815258 18.560357-.489206 1.427127-1.270689 1.56822-1.861703.956942-.745234-.771019-1.105994-1.942662-1.270837-3.258081-.06904-.550419-.082352-1.175136-.584567-1.148751-2.427412.1276-6.519522-2.397986-6.481078-4.643592.028609-1.654526.283329-3.51757-1.180284-4.082087-.4173 2.238515-.811565 4.349687-1.239567 6.64395-1.657853-1.186131-2.522629-3.229603-4.669105-3.536993.632533 3.026963 6.315039 5.166398 8.728834 5.48704 2.858778.379841 4.181574 2.27704 4.21353 5.93919.012409 1.450752.578078 2.304959 1.848313 2.4249 1.239036.116381 1.601092 1.531878 1.520943 3.050115-.32338 6.137902.607958 24.297779-.88998 30.788364-.235147 1.018279-.589068 1.540747-1.428355 1.862021-3.91459 1.498359-7.677865 2.422569-11.140462 1.83675-3.495691-.591053-8.361445-13.979215-11.43629-15.389777-2.626742-1.204276-5.429013-2.104236-7.784084-3.814843-.505016-.878774-.92709-1.934199-2.396745-.759954-.756529.65388-.943966-.013003-1.294895-.299734.750764-1.875631.108392-1.865994-1.069955-1.132322-.19403-.108078-.38806-.216157-.582108-.324825-.543563-1.66741-3.462416-2.24809-4.785836-.951712-.316763.208226-.576186.229636-.762919.014062.030018-.280167-.065961-.282381-.257761-.071977l-.130089.072421-.044428-.118865c-.319388.094996-.470568-.357029-.87465.013742-5.821538-.022736-6.484367-4.538161-12.061234-5.25474-8.331857-1.071171-15.794161-3.801145-21.732881-9.463917-.283792-.271086-.88639-.314288-.55396-1.129905.78775-1.933556.143073-3.092155-.090009-4.451062-.529819-3.089736-1.601912-5.812738-1.696823-9.185971-.082156-2.91554-.171997-5.954758 1.878629-9.357439.309716-.00508.336027-.154839.209569-.381308.126659-.2822.253855-.56409.380264-.845855.683708-.386294 1.102518-.827852.617769-1.462806.019786-.156424.082303-.302624.189107-.439438l.038101-.579956c.906761-3.884288-4.189348-3.282148-4.511477-6.649511-.616257-6.444182-3.302147-11.425879-2.921737-18.590647.221675-4.172538-.418794-8.178824 1.130298-12.633072 2.632203-7.567505.404927-10.927151 1.652762-18.2927435.073799-.4360369-.202553-1.2116069.314369-1.2920054.552576-.0864201 1.247531-.8684947 1.742248-.1826316 1.382369 1.9154193 3.748772 2.2897085 5.785684 2.9569005 4.692861 1.538158 12.975379-.198367 17.485983 1.665688.11636.79135.354443 1.302858 1.250874.299184.198841.101598.397182.204064.595236.305785-.095367.559596.075924.647588.506128.278022.981829-.050782 1.449802.805428 2.178727 1.201785l.441436-.198111c1.096321.591311 2.19316 1.182342 3.289981 1.772785.71027.232189 1.091904 1.169896 2.14759.6588z" fill="#C4C3C6"/>
    <path d="M207.674254 119.985329c-5.013723-2.8207857-5.520253-7.1611656-1.131366-9.6945099l63.971599-36.9255559c4.388887-2.5333443 12.011208-2.300327 17.024931.5204587l62.639227 35.2416416c5.013723 2.8207857 5.520253 7.1611656 1.131366 9.6945099l-63.971599 36.9255556c-4.388887 2.533345-12.011208 2.300327-17.024931-.520458l-62.639227-35.241642z" fill="#FFF"/>
    <path d="M280.704884 246.140936l.716585-71.811754c.057356-5.747904 3.653237-12.456269 8.031624-14.983552l63.818557-36.8372176c4.378387-2.5272836 7.881275.0835449 7.823918 5.8314488l-.716585 71.8117538c-.057356 5.747904-3.653237 12.456269-8.031624 14.983553l-63.818557 36.837217c-4.378387 2.527284-7.881275-.083545-7.823918-5.831449z" fill="#C4C3C6"/>
    <path d="M131.22153802 110.76615142c-1.0206905-7.9214917-1.08124785-30.6092254.05052851-34.77555204 1.08533532-3.99536634 6.1861174-7.9116035 7.51811825-9.01861267 4.76678092-3.9603697 10.62179355-6.8513956 15.68403045-10.4430714 4.30489072-3.05384557 8.97776717-5.62719523 14.52367389-6.08776349-.44132497 1.64360478 6.2808346 5.4553836 8.38044843 7.09254097 3.60472609 2.8121189 5.33407924 6.39616118 4.19948025 11.03579924-.39527516 1.61866033-.65555246 3.29492337-.74606732 4.95874139-.10595377 1.93064342-.04345842 1.81528922 2.1479932.71129392 1.78649718 1.76239025 3.74225289 3.472109 5.43561972 5.40639965 3.73082106 4.26321051 66.10800813 49.5531604 67.09339775 53.3870156.82328451 3.2053714-1.1797022 10.94375457 1.23010788 13.45448947 1.4616741 1.52286584.52774552 10.28486168-.25083873 12.94742504-.0824172.28168265.27235439.82457635.57261898 1.06239502 1.7885701 1.41713476.54244227 1.97062204-.68203204 2.53705303-.60954725.2814023-1.2266436.55258731-1.85568171.78954205-7.31484445 2.74611992-18.037122 7.20936299-25.17311655 3.94285083-5.51099768-2.52365389-10.68788123-5.7698468-16.01362325-8.69508138-10.9452189-5.84269361-26.71235682-18.4677422-36.9499557-25.4376595-5.56139955-3.7860498-10.83277116-8.05976858-16.9210271-11.00080324-1.79691897-.86816251-3.05063589-1.92991248-4.04467503-3.5144429-.65264758-1.04150807-1.4702826-1.99371222-2.02390725-3.0798296-.57784766-1.13253833-1.1331836-1.16622151-2.15299008-.53618579-2.15323872 1.32974522-4.38046056 2.54197149-6.5859234 3.7877384-1.75843533.99326008-3.60302452 2.85443946-5.27499542 2.70833141-1.85222242-.16217756-2.90100641-2.7715782-4.31750214-4.29909139-.88179993-.9517776-3.65814346-5.49010064-3.84368159-6.93352262z" fill="#000"/>
    <path d="M135.96340493 107.85971622c-.06266327-8.4606703.38970187-16.8945916 1.0143658-25.33060294.34832874-4.70654835 2.7527823-8.0729115 6.36802041-10.60612856 4.53370294-3.1765619 9.2211339-6.16332587 14.01458973-8.94025124 2.43909635-1.41228187 4.5342576-3.477003 7.40388661-4.13885097-.06837989 6.48145376.06853692 13.00676335-1.59987414 19.32269899-1.81399041 6.86255446-4.53567463 13.49748084-9.5682555 18.58195806-4.92226726 4.97249903-11.20618932 8.25596843-17.63273292 11.11117666zM169.48201466 57.86949636c2.09691317 1.84811331 3.79364911 3.3667837 5.5188084 4.8518574.59363723.51142366 1.13829962.96198173.9367267 1.88086393-1.81176284 8.26908435-2.13691588 16.82349046-4.89761426 24.91607354-1.50106265 4.4014254-1.3553387 4.33277892-5.3495084 2.13660372-1.78816644-.98296503-2.32696378-1.84317638-1.55775223-3.88952194 3.56089368-9.47615412 6.0656076-19.18206933 5.34933979-29.89587665zM137.0441837 112.31965782c8.01738178-5.55785731 16.9288551-9.55417012 23.55029363-16.70123703.34902625-.37697302.66855998-.52419818 1.24465794-.03026384 3.28191804 2.8158687 3.40865364 4.05709466.52129173 7.35340466-.60703959.69346094-1.24477222 1.36542662-1.91876992 1.99412971-4.85912852 4.53275764-10.99846096 7.18250855-16.39282416 10.92849835-.52525596.36449874-1.01022076.43282078-1.61329948.01464744-1.7215842-1.19296676-3.49344883-2.31409945-5.39134973-3.5591793z" fill="#C4C3C6"/>
    <path d="M162.56272948 114.36483229c5.37722593-5.29074648 10.4997214-10.2422647 15.49979387-15.31410063 1.25364385-1.27177124 2.02947432-1.19828031 3.02604904.10654824.41571326.54450572.98748702.9699264 1.49237685 1.44435414 16.28603089 15.28943163 32.23044855 30.96647071 50.25170828 44.2862596 3.17068618 2.34334094 6.34939047 4.6765593 9.57155816 6.9481744.69570885.49102592 1.33674643 1.13529204 1.30437472 1.81865429-.03343881.70106476-1.07167072.7126339-1.69948934.90546093-3.98107183 1.22175358-8.09977108 1.77883971-12.18804717 2.4768434-.30544482.05283193-.68263638.00514853-.95776252-.13326853-2.4368214-1.22449812-5.004455-2.26103965-7.2584535-3.76472412-8.44546916-5.63504024-16.79143228-11.42004644-25.16754658-17.1601537-4.85060452-3.32421215-9.65732447-6.71317637-14.5364689-9.99418444-6.16740999-4.1475173-11.9526636-8.93032092-19.33809291-11.61986358z" fill="#FFF"/>
    <path d="M245.44462523 152.47416095l-10.2244826-8.03538574c-5.42074246-4.07220528-10.55656182-7.92566875-15.68795593-11.78665212-12.93760278-9.73420006-24.68488608-20.84388627-37.0524903-31.2364581-2.33767138-1.96536786-3.49879573-3.70542623-2.70150206-6.86558422 1.1177809-4.42864608 1.6810911-8.99642558 2.52724239-13.76129877 4.75415565 4.59162237 9.31852553 8.88394035 13.75184879 13.30482751 10.25418819 10.22359102 20.3097331 20.66835356 33.26952567 27.7152026.60579231.32898077 12.85390655 10.89837426 13.0187255 11.66369577 1.49647327 6.94352247 1.4907503 11.68606004 3.09908854 19.00165307z" fill="#B1B2B7"/>
    <path d="M244.140199 215.944534c-8.953974-1.001679-17.899657-.969735-26.743249-.679737-10.126374.329499-16.977525-5.497008-25.060554-10.564578 9.581132-5.07059 42.435513 2.064825 51.803803 11.244315z" fill="#FFF"/>
    <g>
      <path d="M119.889702 212.272889c-2.90348 6.353529-4.034861 13.252561-5.643792 19.992902-.342817 1.436004.380647 2.715086.918757 4.007544.45548 1.094525 1.768413 2.306498.414314 3.395908-1.375931 1.106675-2.65061 2.882871-4.846403 2.176508-.613728-.196944-1.05525-.249036-1.62216-.005999-11.3888238 4.870441-22.8473951 2.945044-34.1389641.002579-14.2317784-3.708588-27.9046794-8.945903-41.0397603-15.5694-7.2860383-3.67464-12.3273048-9.261169-16.47982945-16.038339-1.87394807-3.059105-4.96739899-5.365727-6.20018088-8.921767-.07339973-.211727-.38258823-.424194-.34525496-.581609.62999493-2.628902-.86219422-4.549648-1.96615417-6.722116-1.42233983-2.797515-.01098607-4.663606 2.47413576-6.582699 8.5144455-6.577529 15.285931-14.6507751 19.7426906-24.4567235.7991152-1.7585624-.8519349-4.1301232-2.9767512-4.3410828-3.9754728-.3931171-7.9636002-.6735411-12.28289751-1.0280382 1.53453709-2.2591188.70049935-4.0440975-.59449794-6.0516613-2.00173707-3.0999054-2.8872819-6.4630083-1.461301-10.2636065 1.99849311-5.3265514 3.65272277-10.7607843 7.46545725-15.2339246 1.8387485-2.1570051 8.8161798-2.5966255 10.6370632-.5120594 4.6942943 5.3711743 5.1133292 5.5931925 12.0089003 8.9938837 1.8477863.9118343 2.4752414.5346495 3.4107169-1.2234759 7.462594-14.0218665 11.8822454-29.0396226 15.2404091-44.39989776.4114274-1.88213358 1.1270932-2.72469574 2.9270196-3.34777273 2.7852409-.96393104 7.0787797-1.19872712 14.0629493-.54442019 8.5504933.80104686 19.9061726 2.71931063 22.2829483 3.6000107C110.387451 91.77057299 118.69288 95.23268 125.872171 100.8593368c10.548428 8.2672511 26.734611 24.2734157 33.705133 35.9763233.968886 1.6264605-1.16267 6.7488682-4.870271 13.4911471.38026-.0755262.818361-.1406689 1.338494-.1923644-1.080748.8610253-1.95262 1.7130744-2.665435 2.5581677-.787059 1.3782871-1.627155 2.809752-2.509075 4.2805956-1.778489 4.6744571-1.195727 9.2370472-7.240585 14.0523486 7.980133 1.531706 12.230768 8.1489228 19.649152 9.610438 3.064988.604014 5.44605-.5060227 8.509493.1053682 6.211162 1.2396013 13.08641 4.2798981 19.164079 6.0922781 1.903166.567226 3.82218.987283 5.289393 2.547398 1.22608 1.304115 2.881177-.145088 4.463864.43151 8.333866 3.03562 16.76076 5.823343 25.158893 8.68681 6.464616 2.203343 12.898193 4.424442 18.420808 8.631299 1.386561 1.056125-.71099 1.319094.325456 2.815342 2.624366 3.786458 11.597533 16.677899 2.814927 17.128972 1.360407 8.953458-.195821 13.643845-.266031 22.739328-.030092 3.797647-.795448 4.626753-3.655498 7.427666-2.256425 2.209361-3.510262 2.805447-3.600292 5.536506-2.347413.071844-4.183998-1.256457-6.168834-2.016766-20.724229-7.940092-38.604377-20.53416-56.43075-33.269717-4.328177-3.091968-43.487688-14.81814-56.684421-21.330811.230774 2.10298.221292 4.028179-.730969 6.111713z" fill="#000"/>
      <path d="M132.430711 197.118113l.072986-.005924c.334031-1.270583-.531654-.761794-1.089021-.710889-3.375816-1.478729-6.67974-3.160737-10.425214-3.614132.230345-3.723708 1.113133-7.313591 2.296548-10.8429207.925517-2.7611682 2.916473-4.3110791 5.806836-4.2196063 10.342741.3303404 20.566117 1.4922883 28.887255 8.312964 14.082929 11.543006 30.749357 18.925389 46.139175 28.357888 3.122672 1.913894 15.603838 4.579919 20.357376 10.454174 4.366941 5.39651 1.149859 14.054035 1.271941 15.284475.27063 2.732797.709793 5.449763 1.143137 8.680168-6.165119-4.094959-12.012305-7.934959-17.812436-11.841128-10.907579-7.3453-22.346805-13.796087-34.192577-19.54513-1.653143-.80244-2.390584-2.883538-4.516532-2.877154-.254186-.179194-.5083-.356992-.762449-.535488l.099617.094887c-.739962-.988895-1.709747-1.475017-2.975205-1.316307l.036983.026765c-.054066-1.017833-.758419-1.259546-1.62021-1.314499 0 0 .126256.087191.125546.087228-1.513033-1.169821-3.064813-2.262913-4.652561-3.284798-1.898556-1.221923-3.848541-2.342032-5.845202-3.369767-4.932788-2.539041-10.150462-4.514288-15.581373-6.068107-2.215725-.72886-3.973934-3.1555-6.76462-1.752699zM90.5784186 100.9352871c2.2023041-4.2645442 2.2143105-4.3475797 6.4508816-2.395926 10.8998906 5.0222157 18.5328458 5.0898959 27.5255638 13.083784 1.72781 1.5360804 2.348152 2.3841583.189812 4.4622052-13.19581 12.7118291-23.0111305 27.8741917-31.9162772 43.6722479-6.9220552 12.279784-13.9875758 24.4806443-20.8943456 36.7686898-1.1073238 1.970955-2.0889146 2.478631-4.4049537 1.709922-10.8271597-3.593972-22.0837495-5.272737-33.4078258-6.406051-2.6488794-.264251-5.3389411-.104555-8.048185-.400495-3.3418507-.364108-2.2430211-1.468072-1.2341254-3.123745 3.1550786-5.1812572 6.0284679-10.5422874 9.4092131-15.5735982 12.9768136-19.3105409 20.5288528-34.1025674 27.2736661-56.0500401 2.0094948-6.5417412 9.006878-13.6993091 6.7328406-20.4773705-.8165904-2.43521273.2786357-4.25609466 3.2242383-4.33167908 6.5419907-.16985764 10.1661327 1.25911427 16.3709536 3.07844118 2.2531474.6603451.6763408 1.8408032.3289702 2.6407014-4.588919 10.5596873-9.2537639 21.0878176-13.8774163 31.6326014-.4643321 1.057516-.7934374 2.1713531-1.1847379 3.2591843-.7815704 1.0947045-1.7476496 2.1517793-.6531025 3.9234692.5313679-1.2126173.9715323-2.2171719 1.4110269-3.2209925 5.5691583-10.749584 11.1477416-21.4947834 16.7038032-32.251349z" fill="#C4C3C6"/>
      <path d="M124.619796 119.7201859c2.563074-.0565799 5.115518-.5212779 7.740027-.5547275 3.237221-.042149 2.317098 1.1358877 1.547998 2.8283478-2.404757 5.2961275-4.519064 10.7305343-7.157205 15.9102452-10.12659 19.8802584-15.600797 34.8310099-19.4596145 56.4953836-1.1493241 6.457257-6.9936628 14.080324-4.020736 20.264371 1.0677052 2.221845.2355694 4.081517-2.5710497 4.495905-6.2330831.922222-18.8789317-10.494945-15.7029444-21.064519.3191204-1.060076-9.4353215.30836-9.1895826-.772065.6179649-1.132341 19.9547496-18.8593497 18.6996078-20.4176216-.3649058 1.215429-.6671714 2.2223091-.9688832 3.2284131-4.0555909 10.8743475 20.1247016-60.1753054 31.0823826-60.4137326z" fill="#C4C3C6"/>
      <path d="M34.1212737 191.830159c-2.6488794-.264251-5.3389411-.104555-8.048185-.400495-3.3418507-.364108-2.2430211-1.468072-1.2341254-3.123745 3.1550786-5.1812572 6.0284679-10.5422874 9.4092131-15.5735982 12.9768136-19.3105409 20.5288528-34.1025674 27.2736661-56.0500401 2.0094948-6.5417412 9.006878-13.6993091 6.7328406-20.4773705-.8165904-2.43521273.2786357-4.25609466 3.2242383-4.33167908C78.0209121 91.70337348 45.44535 192.963473 34.1212737 191.830159z" fill="#FFF"/>
      <path d="M26.2219872 142.0346881c-.0535746-.1050155-.084758-.236231-.164022-.3112983-5.9550613-5.6259318-5.9565145-6.3466953.2913421-12.9228262.123774 3.0182087 2.3968806 3.5169452 4.3359517 4.4171563 1.6865822.7829556 3.3751068 1.5629498 5.0547626 2.3605634 5.4783496 2.6008493 5.4771036 2.6037735 3.1169664 8.1793229-4.8939471 11.5618714-5.3665015 11.7949971-17.5539697 9.4202154-1.0670182-.2073587-1.7028951-.4756021-1.8530502-1.6306462-.1681827-1.2883909-.6129329-2.5648721-.6075602-3.8453841.0300593-6.8292344.9727526-7.4782463 6.9017398-4.9664702.3883705.220734.8089522.4840415 1.0845402-.0900576.039799-.0814247-.3927283-.4005329-.6067007-.6105754z" fill="#C4C3C6"/>
      <path d="M236.280016 215.433081c.221152 5.599199 1.047926 11.08995 2.016865 16.492199 1.107982 6.186111-1.691276 10.976333-3.934034 16.447216-3.840077-5.377168-2.62174-26.268023 1.917169-32.939415z" fill="#FFF"/>
    </g>
    <path d="M299.220998 145.476437c1.182271-.456222 1.68901.595419 1.64983 2.863586-.787373-.426203-1.249534-1.575029-1.64983-2.863586z" fill="#FDFDFD"/>
    <path d="M197.402018 229.55017c-.304817-.092846-.609033-.185724-.913196-.277599.054204-.061227.099619-.164224.166061-.175315.375168-.06529.701428-.013315.86288.320515-.000026-.000502-.115745.132399-.115745.132399z" fill="#B1B2B7"/>
  </g>
</svg>
