<svg xmlns="http://www.w3.org/2000/svg" viewBox="0 0 582.17 415.41">
  <defs>
    <style>
      .cls-2,
      .cls-4,
      .cls-5 {
        fill: none;
      }
      .cls-2,
      .cls-3,
      .cls-4,
      .cls-5 {
        stroke: #4038ff;
        stroke-linecap: square;
      }
      .cls-2,
      .cls-3,
      .cls-4 {
        stroke-miterlimit: 10;
      }
      .cls-2 {
        stroke-width: 2px;
      }
      .cls-3,
      .cls-4,
      .cls-5 {
        stroke-width: 12px;
      }
      .cls-3 {
        fill: url("#lines");
      }
    </style>
    <pattern id="lines" data-name="lines" width="16" height="16" patternUnits="userSpaceOnUse"><path fill="none" d="M0 0h16v16H0z"/><path
      class="cls-2"
      d="M1.98 78.02l66-66M-14.02 78.02l66-66M-30.02 78.02l66-66M-46.02 78.02l66-66M-62.02 78.02l66-66M1.98 62.02l66-66M-14.02 62.02l66-66M-30.02 62.02l66-66M-46.02 62.02l66-66M-62.02 62.02l66-66M1.98 46.02l66-66M-14.02 46.02l66-66M-30.02 46.02l66-66M-46.02 46.02l66-66M-62.02 46.02l66-66M1.98 30.02l66-66M-14.02 30.02l66-66M-30.02 30.02l66-66M-46.02 30.02l66-66M-62.02 30.02l66-66M1.98 14.02l66-66M-14.02 14.02l66-66M-30.02 14.02l66-66M-46.02 14.02l66-66M-62.02 14.02l66-66"/></pattern>
  </defs>
  <g id="Layer_2" data-name="Layer 2">
    <g id="Layer_35" data-name="Layer 35"><path class="cls-3" d="M6 91.37a37.39 37.39 0 0 1 37.27-37.5c14.91 0 28.75 13 28.75 37.5z"/><path class="cls-4" d="M43.27 53.87h138.86v.25M138 332a37.39 37.39 0 0 1-37.27 37.5c-14.91 0-28.75-13-28.75-37.5V91.37"/><path class="cls-3" d="M182.13 369.52h-72.58c-8.78 0-.67-.73-.18-.93 17.36-7 26.85-18.64 28.67-36.57h44.09"/><path class="cls-5" d="M115.78 107.42h66.35M115.78 160.52h66.35M115.78 213.62h66.35M115.78 264.34h61.09"/><path class="cls-3" d="M97.75 53.92A47.78 47.78 0 0 1 145.38 6c19.06 0 36.75 16.65 36.75 47.92z"/><path class="cls-4" d="M182.13 361.49zM145.38 6h246.33v.31m0 0a48.9 48.9 0 0 1 5.44-.31c19.06 0 36.75 16.65 36.75 47.92v307.57M266.51 361.49a47.78 47.78 0 0 1-47.64 47.92c-19.05 0-36.74-16.65-36.74-47.92"/><path class="cls-3" d="M229.86 408.23c-.63.25-11 1.18.23 1.18H440.7a47.78 47.78 0 0 0 47.64-47.92H266.5c-2.32 22.91-14.45 37.77-36.64 46.74z"/><path class="cls-5" d="M238.06 74.43h143.51M238.06 142.3h143.51M238.06 210.16h143.51M238.06 275h89.65"/><path class="cls-4" d="M433.9 53.87h68.59v.24m0 0a35.58 35.58 0 0 1 4.15-.24c14.53 0 28 12.7 28 36.55V325"/><path class="cls-3" d="M433.9 325h142.27a36.43 36.43 0 0 1-36.32 36.54h-106"/><path class="cls-5" d="M433.9 106.06h60.86M433.9 157.81h60.86M433.9 209.56h60.86M433.9 259h38"/><path class="cls-4" d="M182.13 53.92v315.6"/></g>
  </g>
</svg>
