<svg xmlns="http://www.w3.org/2000/svg" 
  xmlns:xlink="http://www.w3.org/1999/xlink" viewBox="0 0 800 600">
  <defs>
    <style>.cls-1,.cls-2,.cls-5,.cls-6,.cls-7{fill:none;}.cls-2,.cls-3,.cls-5,.cls-6,.cls-7{stroke:currentColor;stroke-miterlimit:10;}.cls-2,.cls-7{stroke-linecap:square;}.cls-2{stroke-width:2px;}.cls-3,.cls-5,.cls-6,.cls-7{stroke-width:12px;}.cls-3,.cls-4{fill:url(#lines);}.cls-6{fill-rule:evenodd;}</style>
    <pattern id="lines" data-name="lines" width="16" height="16" patternTransform="translate(0 256)" patternUnits="userSpaceOnUse" viewBox="0 0 16 16">
      <rect class="cls-1" width="16" height="16"/>
      <line class="cls-2" x1="1.98" y1="78.02" x2="67.98" y2="12.02"/>
      <line class="cls-2" x1="-14.02" y1="78.02" x2="51.98" y2="12.02"/>
      <line class="cls-2" x1="-30.02" y1="78.02" x2="35.98" y2="12.02"/>
      <line class="cls-2" x1="-46.02" y1="78.02" x2="19.98" y2="12.02"/>
      <line class="cls-2" x1="-62.02" y1="78.02" x2="3.98" y2="12.02"/>
      <line class="cls-2" x1="1.98" y1="62.02" x2="67.98" y2="-3.98"/>
      <line class="cls-2" x1="-14.02" y1="62.02" x2="51.98" y2="-3.98"/>
      <line class="cls-2" x1="-30.02" y1="62.02" x2="35.98" y2="-3.98"/>
      <line class="cls-2" x1="-46.02" y1="62.02" x2="19.98" y2="-3.98"/>
      <line class="cls-2" x1="-62.02" y1="62.02" x2="3.98" y2="-3.98"/>
      <line class="cls-2" x1="1.98" y1="46.02" x2="67.98" y2="-19.98"/>
      <line class="cls-2" x1="-14.02" y1="46.02" x2="51.98" y2="-19.98"/>
      <line class="cls-2" x1="-30.02" y1="46.02" x2="35.98" y2="-19.98"/>
      <line class="cls-2" x1="-46.02" y1="46.02" x2="19.98" y2="-19.98"/>
      <line class="cls-2" x1="-62.02" y1="46.02" x2="3.98" y2="-19.98"/>
      <line class="cls-2" x1="1.98" y1="30.02" x2="67.98" y2="-35.98"/>
      <line class="cls-2" x1="-14.02" y1="30.02" x2="51.98" y2="-35.98"/>
      <line class="cls-2" x1="-30.02" y1="30.02" x2="35.98" y2="-35.98"/>
      <line class="cls-2" x1="-46.02" y1="30.02" x2="19.98" y2="-35.98"/>
      <line class="cls-2" x1="-62.02" y1="30.02" x2="3.98" y2="-35.98"/>
      <line class="cls-2" x1="1.98" y1="14.02" x2="67.98" y2="-51.98"/>
      <line class="cls-2" x1="-14.02" y1="14.02" x2="51.98" y2="-51.98"/>
      <line class="cls-2" x1="-30.02" y1="14.02" x2="35.98" y2="-51.98"/>
      <line class="cls-2" x1="-46.02" y1="14.02" x2="19.98" y2="-51.98"/>
      <line class="cls-2" x1="-62.02" y1="14.02" x2="3.98" y2="-51.98"/>
    </pattern>
  </defs>
  <title>Validator (2)-2x</title>
  <g id="Layer_2" data-name="Layer 2">
    <g id="Validator">
      <path class="cls-3" d="M564.16,496v53H272.6V496"/>
      <path class="cls-4" d="M326.17,169h47V365l-34.54,23.9V208.81C337.93,190.94,334.19,177.11,326.17,169Z"/>
      <path class="cls-5" d="M476.93,161.89l19.7-14.12a25.92,25.92,0,0,0,11.53-21.55h0a25.89,25.89,0,0,0-25.9-25.9"/>
      <path class="cls-5" d="M354.49,100.32a25.89,25.89,0,0,0-25.89,25.9h0a25.89,25.89,0,0,0,11.53,21.55l16.69,11.12a25.89,25.89,0,0,1,11.53,21.55V358.58a25.9,25.9,0,0,1-17,24.34L246.09,429.73V496H590.66V429.73l-75-38.93"/>
      <path id="Rectangle-Copy-21" class="cls-6" d="M463.14,162.05a29.74,29.74,0,0,0,0,59.48h33.17a29.74,29.74,0,0,0,0-59.48Z"/>
      <path id="Rectangle-Copy-23" class="cls-6" d="M454.33,281a29.28,29.28,0,0,0,0,58.55H503.4a29.28,29.28,0,0,0,0-58.55Z"/>
      <path id="Rectangle-Copy-22" class="cls-6" d="M451.27,222.24a29.69,29.69,0,0,0,0,59.37h55.19a29.69,29.69,0,0,0,0-59.37Z"/>
      <path id="Rectangle-Copy-24" class="cls-6" d="M469.27,339.29a29.26,29.26,0,0,0,0,58.51h27.24a29.26,29.26,0,0,0,0-58.51Z"/>
      <path id="Path-8" class="cls-5" d="M362.49,164.66,324.34,163q-18.66,1.23-23.19-13.93l22.55-59.7q0-42.07-27.25-57.85c-10.35-6-19.57-4.7-29.39-2.73L243.3,89.85l-44.42,61.58q-14.35,28.09-7.78,63.17t26.61,55.65q-18.47,30.78-13.57,70t51.23,60l53,.49"/>
      <path id="Line-2" class="cls-5" d="M220,371.24,126.12,379"/>
      <path id="Line-2-Copy-3" class="cls-5" d="M189,179.4l-60.55-.29"/>
      <path id="Line-2-Copy-3-2" data-name="Line-2-Copy-3" class="cls-5" d="M215.15,268.31l-48.39-.19"/>
      <path id="Line-2-Copy-3-3" data-name="Line-2-Copy-3" class="cls-5" d="M595.11,464.51H245.78"/>
      <path id="Line-2-Copy-3-4" data-name="Line-2-Copy-3" class="cls-5" d="M718.37,550.27l-597.29.07"/>
      <path class="cls-7" d="M201.16,246.44c6.88,17,27.6,28.95,54.89,27.84"/>
      <path class="cls-7" d="M311.37,265.12c29.66-10,57.28-34.68,57-62"/>
      <path class="cls-5" d="M349.67,103.55c0,7.31,31.81,13.24,71.06,13.24s71.06-5.93,71.06-13.24"/>
      <path class="cls-5" d="M349.67,104.78c0-7.31,31.81-13.24,71.06-13.24s71.06,5.93,71.06,13.24"/>
      <rect class="cls-1" width="800" height="600"/>
    </g>
  </g>
</svg>