<svg viewBox="0 0 198 284" xmlns="http://www.w3.org/2000/svg">
  <g fill="none" fill-rule="evenodd">
    <path d="M6.99933386 151.9688097c-4.19859782 1.5834228-6.12752074 1.61823978-6.70200237 6.02893232l2.53101522 7.22726947c-.39118327 3.00338426-3.10629075 7.36838941-1.33783577 9.83599169.71606199.99915252.37591198 4.4020589.37964801 5.4292195-4.38071264 3.0206445 1.83124092 16.0882308.32389707 19.07253562-1.00489591 1.9895365-.8052029 4.84527947.599079 8.5672289-.42488853 4.36798822-.66421759 6.82836653-.71798717 7.38113492-.08065438.82915244-.07446178 1.64664374.0112166 2.44364176.05711893.53133198 3.70298945 4.09567918 10.93761153 10.6930416.8925858.04716425 1.56182615.05515638 2.00772102.02397637l85.58115793-5.98441754c6.01845834-.4208516 10.82363522-5.14274008 11.29424038-11.09847701l2.62059898-66.04215241c.52439456-6.636457-4.48347568-12.42977337-11.1853903-12.93973442-.59571008-.0453287-1.19404325-.04715868-1.79014762-.005475l-69.16857024 2.10885407c-3.95079925.2762668-7.52155014 2.4381475-9.57228572 5.79545896l-4.36492748 7.14593413-11.44703907 4.31703706z" fill="#000" fill-rule="nonzero"/>
    <path d="M28.89870055 163.50065399c.98817342-.37258219 1.82239686-1.06166645 2.36972424-1.95743683l4.87747402-7.98260335c.79743654-1.30510575 2.18590826-2.14552274 3.72214383-2.2529468l53.5357715-3.74358583c2.45160972-.17143325 5.69016505.90657803 9.71566608 3.2340339.23178999-.01620834 4.88962956 8.40969497 4.68567135 10.98949324l-3.02157377 49.45825736c-.183037 2.31518108-4.65442106-1.1353645-6.99464876-.97171983-8.71487365 4.2548286-15.68484499 6.56492911-20.909914 6.93030153-6.21734727.43475927-7.06876886-1.46241327-16.23877015-.82118432-3.3100914.23146414-13.6547994 2.91154634-17.34961883 3.16991328l-25.32448559 1.77086054c-.26007382.01818614-.52119009.0150739-.78068447-.00930477-2.6018974-.24444055-4.50793455-2.53071918-4.25725321-5.10654622l.76679673-7.87906865c.05153883-.52957689.01159527-1.06384502-.11811741-1.57988897l-2.50245219-9.95566005c-.36114211-1.43675396-.0144205-2.95890642.93503575-4.1049272 2.96137385-3.5744627 4.48496586-6.38952165 4.57077571-8.44517702.1166624-2.79475694-.68549505-5.3924877-2.40647246-7.79319239-.68762884-.95921864-.98494397-2.14000633-.8328125-3.30751668l.1545645-1.18619268c.22341608-1.71457283 1.38226317-3.16944431 3.01486317-3.7850019l12.38831646-4.67090636z" fill="#C4C3C6" fill-rule="nonzero"/>
    <path d="M49.67259832 153.90140304c.45819768-.73791678.97042484-1.46051355 1.5648334-2.15960254 1.59104346-1.87176521 5.52584695-2.010677 9.65096406-2.29004566-1.19284154 1.05694368-2.2109866 1.95888287-3.22886212 2.86090476.50677338-.06316099.82637252-.20440937 1.08328927-.37306742 1.41320703-.92850122 3.15338316-1.71106014 4.33033231-2.74461636l.54790818-.09587639c.52104573.20864433.80948292.16328468.9098359-.08712477 3.69839306-.25879086 7.46425078-1.09511065 11.28521552-.5059817.87814829.13542928.98286931.44847157.62628313.71768024-.44977542.33946687-1.15210068.53989935-1.94647565.66675345-.33239377.05310649-.71124407.08679451-.68296551.29087553.13672453.98640571-1.29626515 2.77320056-2.66018648 2.85902216-1.00492139.06311602-2.14192627.04323985-2.44882143.66699872 1.36886841.0693515 2.65988345.13504558 4.06285023.20625082-.6794439.73125821-1.89862274 1.17712093-2.0327781 2.06836506 1.82178498-.39540428 2.98156093-2.81479417 3.11723162-3.81590113.16073563-1.18566507 1.27994841-1.81212403 3.50192913-1.99076994.88023886-.0706681 1.38489096-.34050135 1.42667054-.86511769.04038098-.51170282.89068314-.72369089 1.81414217-.75957806 1.80841422-.0704062 5.32176521-.3886929 8.91590995-.66196104l-.42683652-6.10404654-40.0618686 2.80139875.651399 9.31543975zM93.40706447 214.9647927c-.79521507-.09473253-1.53239135-.01606728-2.28964148.14611766-.5092523.305979-.90354621.27934936-1.27533038.02960816-.33541227-.22568884-.58918897-.61356186-1.06556635-.67956513.0623762.78923648.28426584.7405416.06583293 1.60312072-.0766724.30296724.9362625.91223458 1.08296785 1.10331487.58031378.75515266 1.25788894.84611793 2.01120726 1.26473058.5435735.30216006 1.28622831 3.32733374 1.40468937 4.27800465-.77437961-1.18753934-2.7955945-4.52207509-4.2085407-4.51833903-.08876324.00011538-.19978531-.056536-.21645073-.14626017-.10058659-.54153548-1.34268249-.52902704-1.43928158-1.07998774-.33584116-1.9153773-.33400657-2.53522429-1.81908959-3.30127457-.73856624-.38113366-.70974189-1.10841667-1.57591086-1.19945752-.14507945-.01519782-.67911718-.75688955-.90599202-.57256274-.48053964.39031015-.52548331-.41817949-.74172802-.80154362-.46999404-.83340466-1.5782632-.25204678-2.43027818-.49649764-.7496123-.21496345-5.17554706-3.58613625-5.72558256-4.1559556.8228582.31092732 2.35443246.43190354 3.17438947.74572454.79409231.30371979 5.08251348 2.68284739 5.73624106 3.2682441-.30259397-.37507444-.75337084-1.50685726-1.35233056-3.39534834l-3.68682016-3.24048874c-2.17140702-1.51458971-3.35677787-2.35636267-3.5561124-2.5253189.12162584.00642436 1.65743607.4204176 4.60743079 1.24197953l3.89320888 3.64960229.564306 3.27003997c.41287318.4379729.66187377.70492033.74700168.80084226.56765674.63970104.53206595.15839947 1.4600675.17072561 1.49499847.01988382.82211402 1.40728076 2.0893378 1.928262.15598673.06409625 1.37237815.16344607 1.40789033.37973473.19968091 1.21413708.96204995 1.71061444 1.76434867 2.15317052.84683991-.38180651 1.6291593-.54754953 2.27973598.07937755zM111.18876324 159.08274032c-.70559096-.12433964-1.43515916-.05575937-2.22148652.10455242-.61807457.32525305-.97715186.2860646-1.21389361.0010562-.21340963-.2575445-.27644918-.69216158-.69494147-.77686654-.2990827.87308696-.06814197.82481906-.66480096 1.77193104-.2095209.33265898.46774772 1.03059128.51921622 1.24523725.20390492.84829806.80046894.96555934 1.31979284 1.44651405.37468353.34715541-.29770609 3.70622463-.61718138 4.75897177-.19055845-1.33058944-.58143233-5.06300044-1.91313568-5.09392757-.0836052-.0020749-.16242803-.067388-.13743874-.16688264.15082084-.60050334-1.0240374-.61750506-.86519028-1.22831738.55220184-2.1234486.83493436-2.80788906-.2156918-3.69066674-.52242833-.43920184-.16558492-1.24161202-.93963875-1.36363512-.12967356-.02038203-.29612075-.85266799-.59324249-.65474735-.62927885.41909092-.30505866-.47482435-.33481295-.90353174-.06458577-.93197316-1.37135825-.31748498-2.06254097-.60856471-.60815895-.25597684-3.24599115-4.08850357-3.50541542-4.7313901.63360033.36376537 2.02043022.53535359 2.6499882.902242.60979062.3550924 3.56792136 3.08870999 3.91788914 3.75137088-.11479357-.42169513-.02602143-1.68268514.26631771-3.78297153l-2.0013474-3.66987793c-1.3573167-1.726403-2.09149344-2.68536562-2.20253224-2.87688566.1115743.0101116 1.36955391.50537746 3.77393787 1.48579883l2.01015155 4.1267748-.95127891 3.62504592c.1900852.49388814.30345036.79485058.34009548.90288732.24433033.7204932.4290246.18811801 1.29696635.224752 1.39823142.05904568.13587237 1.57442985 1.09252792 2.18117783.117773.07464996 1.2177248.21453729 1.15309873.45426193-.36246503 1.3457038.13007825 1.91286827.684653 2.42147818.97022289-.40061306 1.78176047-.56423155 2.10993456.14421259z" fill="#000"/>
    <path d="M11.41223809 213.46495257l2.48709207-5.33796278-.81657293-11.67753695c-.24008894-.9565334-1.15138615-2.6171081-2.73389173-4.98172408l7.27356368-7.1522187c-2.26875507-4.4437495-3.97498722-7.46482184-5.11869644-9.06321693-.68546583-.9579752-.98195024-2.13715732-.8304856-3.30301924l.15388718-1.18451785c.22243666-1.71215192 1.37721936-3.16483705 3.004289-3.77931373l12.3463515-4.66270405c.984826-.3719278 1.81617249-1.05993765 2.36155164-1.9543845l4.86011347-7.97080897c.79459824-1.30317745 2.17832334-2.14223333 3.70941936-2.249298 14.96705122-1.3280627 27.99624836-2.76021971 39.08759154-4.29647103 11.09134329-1.53625123 19.6349453-3.1638418 25.63080543-4.8827716-.55011543-1.25432626-2.55587795-1.76046677-6.01728554-1.51842157-.23425996.01638105-.4627471-.01836052-.69376188-.0022064l-61.21474892 4.28055224c-1.53109612.10706467-2.91482123.94612055-3.70941937 2.249298l-4.86011346 7.97080896c-.54537916.89444685-1.37672564 1.58245671-2.36155165 1.9543846l-12.3463515 4.66270406c-1.62706974.61447658-2.78185234 2.0671617-3.0042891 3.77931363l-.15388707 1.18451784c-.15146465 1.16586192.14501976 2.34504404.8304856 3.30301924 1.71556383 2.39759264 2.51539973 4.99181129 2.39950792 7.78265605-.08524312 2.05277772-1.60336827 4.86370426-4.55437519 8.43277958-.94613247 1.1442935-1.29148973 2.66427662-.93135634 4.09907678l2.49546255 9.94212204c.12935035.51534213.16923355 1.04887096.11793893 1.5777025l-.76316351 7.8679795c-.21987389 2.26683172 1.22966116 4.30932608 3.35189036 4.92966136z" fill="#C4C3C6" fill-rule="nonzero"/>
    <path d="M29.8382276 170.07125866l14.26181317-19.31781407-5.45974077.38178226c-1.47996597.1034893-2.81605429.93494803-3.58171715 2.22893188l-4.68313178 7.91457717c-.52551915.88813672-1.3278916 1.5705006-2.27924684 1.93834613l-11.926743 4.61152679c-1.5717714.60773223-2.68535132 2.04965148-2.89709586 3.75130518l-.14649 1.17725486c-.09612267.77247559.1059235 2.57115004.6061384 5.39602336l2.53775339 5.63066389-2.10246983 9.47231777-3.65437809 2.5868637c1.77073937 5.22738912 2.69812227 8.01193708 2.7821487 8.35364367.1260396.51256.29274621 2.96624358.24417506 3.49186602l-.72264374 7.82023448c-.20819983 2.25307597 1.19705343 4.2863458 3.24989094 4.90711545l.5858245-6.33961714c.04857114-.52562254-.55150069-3.33755637-.67754029-3.85011626l1.5387472-8.65579025-2.51735634-3.0243658 4.38667369-8.37441886-.62187723-8.89325876-.80044422-4.21812277 2.03101957-3.63900981 9.84669052-3.3499389z" fill="#FFF" fill-rule="nonzero"/>
    <path d="M38.83703674 164.3364592l-.9314079 44.1816969c-.01952066.92596564.71529832 1.6924337 1.64126405 1.71195425a1.68075088 1.68075088 0 0 0 .01189532.00020863c.93460589.01307012 1.70465262-.73043956 1.7243528-1.66492938l.93140801-44.1816968c.01952055-.92596574-.71529843-1.6924338-1.64126406-1.71195436a1.67521256 1.67521256 0 0 0-.01189532-.00020853c-.93460599-.01307021-1.70465261.73043957-1.7243529 1.66492929zM59.1827004 162.9137518l-.9314079 44.1816969c-.01952066.92596563.71529833 1.6924337 1.64126406 1.71195425a1.68075088 1.68075088 0 0 0 .01189532.00020863c.93460588.01307012 1.70465261-.73043957 1.7243528-1.66492938l.931408-44.1816968c.01952055-.92596574-.71529843-1.6924338-1.64126406-1.71195436a1.67521256 1.67521256 0 0 0-.01189532-.00020853c-.93460598-.01307022-1.70465261.73043957-1.7243529 1.66492928zM49.00986862 163.6251055l-.931408 44.1816969c-.01952056.92596563.71529842 1.6924337 1.64126405 1.71195425a1.68116914 1.68116914 0 0 0 .01189533.00020863c.93460598.01307012 1.70465261-.73043956 1.72435289-1.66492938l.93140791-44.1816968c.01952065-.92596574-.71529833-1.6924338-1.64126406-1.71195435a1.67518447 1.67518447 0 0 0-.01189522-.00020854c-.93460598-.01307022-1.70465271.73043957-1.7243529 1.66492928zM68.78429147 183.68666068l-.4850581 22.78637922c-.01983402.93173164.71940514 1.70312802 1.65113688 1.72296193a1.68643008 1.68643008 0 0 0 .01285658.00022475c.9410724.0128593 1.71633789-.73577504 1.73636807-1.67672218l.48505801-22.78637921c.01983402-.93173164-.71940515-1.70312802-1.65113678-1.72296194a1.68132235 1.68132235 0 0 0-.01285668-.00022464c-.94107232-.0128594-1.7163379.73577504-1.73636798 1.67672207z" fill="#000"/>
    <g>
      <path d="M25.45454941 159.78278027c-4.72824443 1.789171-6.90071757 1.82792987-7.54633956 6.8152685l2.85289271 8.17325068c-.43962505 3.39604138-3.49617995 8.33103908-1.50364336 11.12191389.80679447 1.1300482.4247732 4.97787717.42930661 6.13937058-4.93289892 3.41429418 2.06756844 18.19282242.37084137 21.56693528-1.13115138 2.24940858-.9053382 5.47868761.67743955 9.6878369l-.80630598 8.3462086c-.09057558.93756309-.0833419 1.8619674.0134076 2.7632236.06449966.60083745 4.171857 4.63248407 12.32207205 12.09494028 1.00530577.05361501 1.7590523.06286485 2.2612395.0277485l96.38542402-6.73992542c6.77826318-.47398234 12.18868318-5.8118741 12.7168224-12.54635017l2.93056103-74.67828275c.5885038-7.5042033-5.05353678-14.05675442-12.60184962-14.63553267-.67094405-.05144558-1.34482918-.0537045-2.01618879-.00675846l-77.9016794 2.36272078c-4.4495713.31114434-8.47050837 2.75462274-10.77912187 6.55035164l-4.91381292 8.07909215-12.89106534 4.8779881z" fill="#000" fill-rule="nonzero"/>
      <path d="M50.13612362 172.97766797c1.11267346-.4194401 2.05200783-1.1951688 2.66830586-2.20356177l5.49210249-8.98623261c.89792448-1.46919294 2.4613357-2.41528955 4.19111287-2.53624735l60.28043572-4.2152187c2.7604742-.19303115 6.4070116 1.02044217 10.9396132 3.64041987.26099168-.01825032 5.50548097 9.46683309 5.2757798 12.37095603l-3.4031703 55.67598867c-.20614012 2.60623887-5.24077677-1.27801026-7.87583622-1.09374896-9.8128792 4.78989069-17.66099133 7.39053786-23.5443368 7.80194145-7.00063506.4895321-7.95928564-1.64612859-18.28456257-.92411489-3.72711087.26062498-15.375126 3.2778296-19.53543435 3.5687467l-28.51497204 1.9939611c-.29283902.02047729-.58685147.01697874-.87903714-.01045986-2.92968749-.27512171-5.07580994-2.8487854-4.79349854-5.74843885l.863548-8.86960488c.0580418-.59615389.013076-1.1975872-.13296853-1.77850332l-2.81753146-11.2071949c-.40661288-1.61736956-.01618164-3.3308869 1.0529114-4.62099811 3.33452367-4.0238841 5.0501151-7.1928685 5.14677415-9.50695338.1314124-3.14610372-.77175449-6.0703947-2.7095006-8.77287297-.77424027-1.07979466-1.10898989-2.40902013-.93767052-3.7233076l.1740594-1.33531844c.25159481-1.93012556 1.55646422-3.56791893 3.39475553-4.2608923l13.94912065-5.25834493z" fill="#C4C3C6" fill-rule="nonzero"/>
      <path d="M73.50100997 162.04067392c.51776261-.80625258 1.09632698-1.59592249 1.76737342-2.36014533 1.79617987-2.0461561 6.2272742-2.20738677 10.87301494-2.52233476-1.34578602 1.15614139-2.49447584 2.14273132-3.64286217 3.1294108.57080323-.07015872.93103214-.22505734 1.22074559-.40970803 1.59361119-1.01654174 3.5550448-1.87465205 4.88287782-3.00523684l.61720313-.10595492c.58620669.2263677.91111049.17616808 1.0247273-.09729547 4.16518102-.2914476 8.40774877-1.21319188 12.70886745-.57979152.98849906.14560688 1.10565012.48690412.70345777.78150858-.50729977.37149078-1.29863986.59190429-2.1934508.73226385-.37441976.05876014-.80110392.09644723-.76976242.3190467.15153429 1.07591247-1.46646163 3.0289705-3.00250493 3.12595963-1.13173859.07133346-2.41200477.0524404-2.75911396.73376568 1.54123262.07230518 2.99480819.14081105 4.57443247.21505508-.7668787.79953108-2.14082044 1.28899842-2.29407452 2.26174746 2.05237749-.43589363 3.3642775-3.078493 3.51950778-4.17111488.18390783-1.2940514 1.4457272-1.98031829 3.9482093-2.18069432.9913594-.07926703 1.56028158-.37491682 1.60861604-.94741825.04672774-.55840831 1.00472434-.7917935 2.04466596-.83321796 2.03652304-.08126162 5.99348503-.4371695 10.04131387-.74415698l-.46563983-6.6589598-45.1182213 3.15497338.7106171 10.1622979zM122.62011883 231.07462993c-.89424921-.10747102-1.7231585-.01884213-2.57460377.16421999-.57251215.34577015-1.01590154.31548466-1.43407714.03291958-.37726535-.25535123-.66280399-.69406081-1.19851235-.76890516.07048805.89247803.3199783.83751246.07473282 1.8128014-.08608381.34255475 1.05321438 1.03194561 1.21826637 1.2480793.6528862.85416462 1.41484947.95732385 2.26212878 1.43101271.61137323.34191457 1.44780736 3.76303861 1.58143299 4.83808762-.87130043-1.34318286-3.1455925-5.11468842-4.73442798-5.11108489-.09981293.00009148-.22468051-.0640174-.24345997-.1654828-.11334621-.61240012-1.51005917-.59880194-1.61892558-1.22185827-.37849043-2.16601257-.37669991-2.86692066-2.0469905-3.73380566-.83067435-.43130192-.79858156-1.2536843-1.77261583-1.35701194-.16314635-.01724924-.76398993-.85617205-1.0190263-.64783921-.5401881.44114255-.59108214-.47309881-.8344145-.90669331-.52886776-.94260167-1.77484447-.28570259-2.73303018-.56249664-.84302243-.24340511-5.82140262-4.05739629-6.44015986-4.7019767.92542846.35195117 2.64771428.48942164 3.56988178.84464364.89307859.34378847 5.71639074 3.03593692 6.45175503 3.69817761-.34042736-.42425866-.84781678-1.70425106-1.52216826-3.83997719l-4.14719928-3.66589144c-2.44238085-1.71361796-3.7756828-2.66599674-3.9999059-2.85713624.1367693.00731798 1.86394717.4761271 5.18153385 1.4064274l4.37946011 4.12859859.63599115 3.69793483c.46446247.49543124.74457721.79739877.84034435.90590254.63860292.72360888.59837008.1793484 1.64189942.1936945 1.68111246.02314134.9250738 1.5916824 2.35027718 2.18135314.17543297.0725471 1.54329078.1854244 1.58331876.43001434.22507192 1.37300637 1.0825629 1.93474676 1.98493054 2.4355317.95209111-.43136581 1.83172487-.61844041 2.56356427.09076056zM142.59059855 167.89264376c-.79347923-.14091144-1.61383503-.06368548-2.49797474.1172426-.69487085.36751449-1.09866354.32304197-1.3650018.00065885-.24008848-.29131895-.31116732-.7827993-.7817928-.8787648-.33592735.98712914-.07625943.93265055-.746773 2.00335316-.2354553.3760684.52642905 1.16556959.58439927 1.40830784.22966201.95932112.90053997 1.09217956 1.48472234 1.6362592.42147894.39271804-.33312656 4.19075814-.69190636 5.38103358-.21486723-1.50467626-.65604725-5.7253503-2.15353708-5.76091064-.09401356-.00238296-.18267734-.07627188-.15462139-.18876633.16933005-.67896514-1.15178445-.69870928-.97343373-1.38932778.6200028-2.40088984.93762763-3.17470984-.24417207-4.17339382-.58765545-.4968675-.186746-1.40405187-1.05720922-1.54237429-.14582449-.02310487-.33336006-.9643019-.66738054-.74063062-.70742746.47361771-.3432421-.53705305-.3768907-1.02183485-.07303663-1.05387736-1.54220778-.35960897-2.31955882-.6890591-.68397629-.28972048-3.65186516-4.62459495-3.9438669-5.35166717.71263274.41161547 2.2721741.60625482 2.98026278 1.02139991.68585533.4017977 4.01342826 3.49419952 4.4072531 4.24367236-.12926953-.4768913-.03000397-1.902743.29779815-4.27755644l-2.25210171-4.15067431c-1.52704043-1.9527666-2.35303293-3.0374578-2.47797873-3.254072.12546793.01148304 1.54026191.57207135 4.24438154 1.68176588l2.26220283 4.66732461-1.06809367 4.09867528c.2139651.55855888.34157555.8989282.38282997 1.02110942.27506338.81482047.48251434.21290692 1.45851523.25471531 1.57231185.06738538.1534812 1.78037985 1.22949122 2.4668957.13246654.0844641 1.36940429.24313067 1.29683954.51417565-.40699042 1.52152204.14711665 2.16307206.7709498 2.73843957 1.09082167-.45257355 2.0033093-.63723035 2.3726475.16400323z" fill="#000"/>
      <path d="M30.59668832 228.79247294l2.79746219-6.01259157-.91981779-13.15400716c-.27019731-1.0774918-1.29557908-2.9481037-3.0761453-5.6118358l8.1820949-8.05574497c-2.55280958-5.00579868-4.47263476-8.40899517-5.75947544-10.20958935-.77124955-1.07916034-1.10491445-2.40745581-.9346323-3.7207023l.1730056-1.33426085c.25007167-1.92859668 1.54906506-3.56482896 3.3794684-4.25683112l13.8892655-5.2509743c1.10789903-.41885223 2.04310083-1.19376385 2.65656675-2.20124094l5.46686476-8.97807073c.89379822-1.46785845 2.45041475-2.4128576 4.17289782-2.53330535 16.83790442-1.494473 31.4956991-3.10639462 43.97338424-4.835765 12.47768524-1.72937028 22.08913365-3.56188254 28.83434724-5.4975368-.61900937-1.41296551-2.87555657-1.98329774-6.76964061-1.71099685-.26354146.01842861-.52059507-.02072812-.78048644-.00255475l-68.866593 4.8156213c-1.72248307.12044775-3.2790996 1.0654469-4.17289782 2.53330534l-5.46686475 8.97807074c-.61346593 1.00747708-1.54866773 1.7823887-2.65656676 2.20124094l-13.8892655 5.2509743c-1.83040334.69200216-3.12939663 2.32823443-3.37946839 4.25683112l-.1730056 1.33426085c-.17028215 1.31324649.16338275 2.64154196.93463229 3.7207023 1.93026107 2.70089132 2.83034143 5.62317643 2.70024128 8.7668555-.0956938 2.31230152-1.80331416 5.4784611-5.12286074 9.49847882-1.06429123 1.28887163-1.4526686 3.0009914-1.04737256 4.61722906l2.80840683 11.199352c.14557158.58050963.19049379 1.18149629.13283986 1.77718278l-.85777764 8.86265032c-.24713301 2.5534047 1.38380825 4.85427609 3.77139298 5.55325247z" fill="#C4C3C6" fill-rule="nonzero"/>
      <path d="M51.11232264 180.69737509l15.91781355-21.76339148-6.09864653.4264589c-1.65315357.11559977-3.14507157 1.05180872-3.9994574 2.50974097l-5.22580104 8.91735788c-.58641488 1.0006641-1.48223975 1.76920231-2.54471112 2.18313609l-13.31975863 5.1893152c-1.75535055.68387626-2.99827994 2.30830355-3.23361206 4.226119l-.16280846 1.32680206c-.1068304.87060346.12013934 2.89806484.68090925 6.08238435l2.83882539 6.34821589-2.34191938 10.67493785-4.08037212 2.91312109c1.98173179 5.89313606 3.01965 9.0323056 3.11375475 9.41750872.14115706.57780469.32911254 3.3435139.27522621 3.9359183l-.80172262 8.81381895c-.23098314 2.53933597 1.34021964 4.83206377 3.6338225 5.53319394l.6499312-7.14508467c.05388632-.59240439-.61842166-3.76221004-.75957873-4.34001473l1.71277796-9.75501267-2.81420025-3.41059535 4.89431155-9.4358632-.7009599-10.02419345-.8971308-4.75488828 2.26622298-4.10016041 10.9970837-3.76882495z" fill="#FFF" fill-rule="nonzero"/>
      <path d="M61.23492522 173.79086396l-1.02826129 49.9800805c-.02144313 1.04227495.80610452 1.90458892 1.84837957 1.92603215a1.88589882 1.88589882 0 0 0 .0115422.0002021c1.05065457.0151881 1.91643751-.82078935 1.93805072-1.87133133l1.02826129-49.9800805c.02144312-1.04227505-.80610453-1.90458902-1.84837958-1.92603215a1.88590113 1.88590113 0 0 0-.0115422-.0002022c-1.05065457-.0151881-1.9164375.82078945-1.93805071 1.87133143zM84.1126284 172.19109911l-1.02826129 49.9800805c-.02144313 1.04227495.80610462 1.90458892 1.84837967 1.92603215a1.88534003 1.88534003 0 0 0 .0115422.0002021c1.05065447.01518811 1.91643742-.82078935 1.93805072-1.87133133l1.02826129-49.9800805c.02144312-1.04227505-.80610463-1.90458902-1.84837968-1.92603214a1.88478375 1.88478375 0 0 0-.0115422-.0002022c-1.05065447-.01518812-1.9164374.82078944-1.9380507 1.87133142zM72.67377681 172.99098154l-1.02826129 49.9800805c-.02144313 1.04227495.80610462 1.90458891 1.84837957 1.92603215a1.88589882 1.88589882 0 0 0 .0115422.0002021c1.05065457.0151881 1.91643752-.82078935 1.93805072-1.87133133l1.02826129-49.9800805c.02144322-1.04227506-.80610453-1.90458902-1.84837958-1.92603215a1.88590113 1.88590113 0 0 0-.0115422-.0002022c-1.05065447-.01518811-1.9164374.82078944-1.93805071 1.87133143zM94.9186278 195.68466677l-.53581116 25.78722068c-.02179138 1.04876437.8107347 1.91662129 1.85949916 1.93841266a1.89624326 1.89624326 0 0 0 .01261401.00022024c1.05792401.01495262 1.92957347-.82678816 1.95155264-1.88458954l.53581116-25.78722068c.02179138-1.04876437-.8107347-1.91662129-1.85949907-1.93841277a1.90397913 1.90397913 0 0 0-.012614-.00022013c-1.05792411-.01495262-1.92957357.82678806-1.95155274 1.88458954z" fill="#000"/>
    </g>
    <g>
      <path d="M48.54987839 108.12065362c-4.73291712 1.78875282-6.9074572 1.82771398-7.55420158 6.81260683l2.85476719 8.1688432c-.44038932 3.39437604-3.50035069 8.32720046-1.50620698 11.11646624.8074452 1.12939672.42466824 4.97532699.42908735 6.13623494-4.9379319 3.4130784 2.06767399 18.18344912.36899114 21.556036-1.13245524 2.24839125-.90675738 5.4760209.67709354 9.68288877l-.80792395 8.34208763c-.09075733.93710014-.08361117 1.86103832.01313816 2.76183071.03886487.36185449 3.51011023 26.87679732 8.37413967 31.01978288 2.83757613 2.41693322 3.51894112 8.27978923 2.0440949 17.58856702.0139041 6.5187354 5.69857834 10.09920241 17.05402281 10.74140202l83.60130409-53.98103126c6.78474933-.47443589 12.20085116-5.81019189 12.7301801-12.54133032l2.94096997-74.64097306c.58982947-7.50048422-5.05690015-14.04915919-12.6123222-14.6268751-.67157501-.05135123-1.34609981-.0535402-2.01810185-.00654924l-77.97589677 2.3694861c-4.45382841.31144202-8.47883328 2.75410047-10.79002667 6.54815354l-4.91930412 8.07552512-12.9038048 4.87684798z" fill="#000" fill-rule="nonzero"/>
      <path d="M73.26891092 121.1316483c1.10892407-.41910535 2.04500251-1.1944556 2.65905692-2.20248678l5.4721083-8.98300823c.8946555-1.46866571 2.45272197-2.41421083 4.17678459-2.53476904l60.0812928-4.20129326c2.75135448-.19239345 6.38616177 1.02158831 10.9044209 3.64194535.26012978-.01819005 5.4894133 9.46586505 5.26109198 12.36927831l-3.3800029 55.66259888c-.20490157 2.60560132-5.22381682-1.27884717-7.85017153-1.09519456-9.77957797 4.78669102-17.60132185 7.38505778-23.46523108 7.79510226-6.97750783.48791487-7.93346511-1.6474656-18.22463153-.92783714-3.71479794.25976398-15.32385897 3.27377612-19.47042338 3.56373215a91932308090265150 91932308090265150 0 0 1-34.07588997-3.7714351l.85880027-8.86740242c.0577226-.59600637.0127754-1.19731277-.1329138-1.77812784l-2.81067674-11.20525353c-.40562363-1.61708928-.01684497-3.330133 1.04845484-4.61972092 3.32269232-4.0222516 5.03196023-7.19014654 5.12780365-9.5036845.13030348-3.14536015-.77052228-6.0691805-2.70247741-8.77146135-.77192642-1.07971556-1.1058611-2.40871092-.93538788-3.72266266l.17319978-1.33497754c.25035218-1.92963257 1.55057814-3.56677284 3.38267512-4.25919327l13.90211707-5.2541488z" fill="#C4C3C6" fill-rule="nonzero"/>
      <path d="M96.44389671 110.13991852c.51508934-.8304648 1.0909252-1.64368303 1.75915923-2.43043817 1.78865092-2.10648327 6.21252646-2.26250028 10.8503596-2.57658125-1.34102086 1.18945935-2.4856438 2.20448075-3.6299637 3.21959524.56975857-.0710434.92907123-.22998797 1.21790804-.41978655 1.58878762-1.0448835 3.54519762-1.92548587 4.86835262-3.08862585l.61600362-.10785998c.58582726.23486588.91011252.18383858 1.0229184-.09798186 4.15807029-.29095608 8.39194328-1.23189821 12.68789037-.56853642.98731053.15249317 1.10507379.50482167.70418722.8077781-.50565296.38202315-1.29525865.60754562-2.18836128.75025093-.37370494.05974187-.79964244.09762605-.76783219.32731459.15380042 1.11018177-1.4571582 3.12104593-2.99060355 3.21752368-1.1298247.07095243-2.40815735.04848868-2.75314714.75048498 1.53902004.0781658 2.99050955.15220837 4.56786666.232464-.76383642.8229522-2.13451856 1.32465729-2.2852756 2.32771396 2.04819445-.44486549 3.35192762-3.16771905 3.50437918-4.29442313.18061686-1.33441677 1.43889257-2.03938491 3.93704373-2.24026245.98964399-.07946265 1.55700046-.3831101 1.60392995-.97354601.04535794-.57590288 1.00133258-.81441931 2.03957168-.85473241 2.03318858-.07909173 5.98321173-.43702432 10.02407428-.74428311l-.48039393-6.86995328-45.04120068 3.14958757.73313349 10.48429742zM145.69690335 179.29455723c-.89424921-.10750557-1.7231555-.01887293-2.5745962.16421064-.5725056.34582699-1.01589456.3155287-1.43407378.03290314-.3772687-.25540568-.6628137-.69420336-1.1985222-.76907044.07050195.89264909.31999085.83767702.0747613 1.8131477-.0860782.34261869 1.05322865 1.03215878 1.21828377 1.24833626.65289833.85433756 1.41486178.95752848 2.26214688 1.43132089.6113775.34198943 1.447864 3.76377805 1.58150631 4.8390339-.87131991-1.34345235-3.14566707-5.11571204-4.73449942-5.1121329-.09981277.00008997-.22468114-.06403314-.24346217-.16551817-.11335562-.6125185-1.5100657-.59893985-1.6189417-1.22211646-.37852385-2.16643106-.37674441-2.86747256-2.04704549-3.73454911-.83067957-.4313971-.79859983-1.2539356-1.7726338-1.3572983-.16314634-.017255-.764002-.85634721-1.01903453-.64797858-.54018019.44121799-.59108838-.47319828-.83442724-.90687915-.52888158-.94278955-1.7748456-.28578506-2.73303376-.5626469-.84302465-.24346485-5.82145531-4.05826082-6.44022158-4.7029738.92543227.35203283 2.6477169.48955668 3.56988823.84486092.89308228.343868 5.7164276 3.03660525 6.45180088 3.69898368-.3404334-.42434489-.8478421-1.704589-1.52222599-3.84073238l-4.14724904-3.66665498c-2.4424032-1.71398299-3.77571762-2.6665641-3.99994324-2.85774357.13676911.0073215 1.86395113.47624723 5.18154597 1.40677713l4.37951676 4.12945378.63604832 3.69864908c.46446932.49553296.7445884.79756238.84035705.90608825.63861313.72375689.59837163.17939215 1.64189928.19375739 1.68110958.02317232.92509706 1.5920001 2.35030705 2.18180573.17543379.07256363 1.5432907.18548406 1.58332249.4301211.22509314 1.37327135 1.08259136 1.93513224 1.9849651 2.43602687.95208243-.43143293 1.83171154-.61852926 2.56356075.09081828zM165.66656236 116.10050423c-.7934822-.14094979-1.61383801-.06371986-2.49797589.11723234-.69486548.36757613-1.09865996.32309013-1.36500266.00063955-.240093-.29137853-.31117865-.78295621-.78180554-.87894814-.33591444.98731793-.07624744.93283324-.74674708 2.00373611-.23545014.37613914.5264459 1.16580552.58442 1.4085922.22967579.95951196.90055555 1.09240642 1.48474562 1.63660008.42148445.392801-.33306927 4.19157644-.69183273 5.3820794-.2148882-1.50497405-.65612644-5.7264818-2.15361845-5.7620692-.09401419-.00238483-.18267848-.07629009-.15462408-.18880576.16932103-.6790962-1.15179564-.69886211-.9734539-1.3896143.61997009-2.40135156.93758538-3.17531896-.24422972-4.17421508-.5876624-.49697291-.18676551-1.40432986-1.05723104-1.54269139-.1458254-.02311097-.33337292-.96449592-.66739071-.74078522-.70742156.47370102-.34325075-.5371626-.37690576-1.02204006-.07305174-1.05408527-1.54221442-.35970087-2.31957003-.68922652-.68398143-.2897859-3.65193278-4.62555077-3.94394492-5.35276984.7126392.4117059 2.27218492.6064047 2.98027926 1.02164083.6858625.4018861 4.01348079 3.49493948 4.40731643 4.24456482-.12927705-.47698662-.0300301-1.90311686.2977394-4.2783906l-2.25216008-4.15152005c-1.52706924-1.9531706-2.3530774-3.03808477-2.47802598-3.2547438.12546792.01148702 1.54027053.57220473 4.24440859 1.68215379l2.26226923 4.66827008-1.06803873 4.09946505c.21397291.55867167.34158805.89911.382844 1.02131506.2750746.81498393.48251726.21295584 1.45851963.2547854 1.57231528.06742015.15350642 1.78073037 1.2295269 2.46739576.13246842.08448297 1.36940922.24319724 1.29684798.51429429-.40697043 1.52181502.14714631 2.16349932.77098867 2.73898747 1.09081543-.45264655 2.00330109-.6373276 2.37265159.16406773z" fill="#000"/>
      <path d="M53.64839322 176.69804217l2.80018356-6.0158753-.92030692-13.16100217c-.27041578-1.07805985-1.29668579-2.94964195-3.07881-5.61474731l8.18979865-8.06026388c-2.55501162-5.0084016-4.47650244-8.4133625-5.76447246-10.21488266-.77192653-1.07971566-1.10586111-2.40871103-.93538789-3.72266276l.17319968-1.33497754c.25035228-1.92963258 1.55057824-3.56677285 3.38267523-4.25919328l13.90211706-5.2541488c1.10892407-.41910536 2.04500251-1.1944556 2.65905692-2.20248678l5.4721083-8.98300824c.8946555-1.4686657 2.45272197-2.41421083 4.17678459-2.53476903 16.85335363-1.49572193 31.52460558-3.10889674 44.01375594-4.83952445 12.48914996-1.73062759 22.10944473-3.56437544 28.86088181-5.5012434-.6195381-1.41370292-2.8781343-1.9842791-6.77578962-1.7117285-.26378387.01844557-.52107102-.0207252-.78120081-.00253516l-68.9297448 4.8200373c-1.7240626.1205582-3.28212898 1.06610342-4.17678457 2.53476914l-5.4721083 8.98300824c-.61405442 1.00803108-1.55013286 1.78338132-2.65905692 2.20248678l-13.90211707 5.2541487c-1.83209699.69242053-3.13232294 2.3295608-3.38267512 4.25919337l-.17319979 1.33497745c-.17047322 1.31395183.16346146 2.64294709.93538789 3.72266276 1.93195512 2.70228074 2.83278089 5.62610119 2.70247737 8.77146084-.09584339 2.31353836-1.80511127 5.4814337-5.1278036 9.503685-1.06529977 1.28958792-1.45407847 3.00263164-1.04845486 4.61972092l2.81067672 11.20525354c.1456892.58081507.19063644 1.18212146.13291381 1.77812783l-.85880025 8.86740242c-.24742763 2.55477398 1.38494448 4.85682915 3.77469545 5.55611497z" fill="#C4C3C6" fill-rule="nonzero"/>
      <path d="M74.2096937 128.93181723l16.01652298-21.73928928-6.13257577.42883148c-1.66235071.11624288-3.16297787 1.05181194-4.02280435 2.50802537l-5.25907866 8.9068448c-.59014917.99948442-1.49130495 1.76733552-2.55985414 2.18118446l-13.39595522 5.18825041c-1.7653922.68373599-3.01599239 2.30639125-3.25356856 4.22150886l-.16436083 1.3249357c-.10784912.86937874.11937889 2.8937542.68168373 6.07312648l2.85140053 6.3375072-2.36011593 10.66042844-4.10436484 2.91085371c1.98979177 5.8835161 3.03190548 9.01757031 3.12634106 9.40216167.14165353.57688802.32928844 3.33844729.27481302 3.93000931l-.8104885 8.8012823c-.2335086 2.53572464 1.3452543 4.8243166 3.65119394 5.52329105l.65703735-7.13492292c.05447548-.59156103-.61999141-3.75638595-.76164495-4.33327397l1.72704378-9.7415434-2.82808334-3.40420836 4.92601122-9.424427-.69990745-10.0091429-.89975354-4.74747166 2.28076869-4.09525933 11.05973978-3.76870242z" fill="#FFF" fill-rule="nonzero"/>
      <path fill="#000" d="M84.35408582 120.22201935l-.98289387 53.53764707 3.66690412.06067823.98289388-53.53764678zM107.2317891 118.6222545l-.98289397 53.53764708 3.66690412.06067822.98289398-53.53764678zM95.7929374 119.42213692l-.98289386 53.53764708 3.66690412.06067822.98289398-53.53764678zM118.07818488 142.10593886l-.53019303 29.36814158 3.6518879.06100996.53019303-29.36814157z"/>
    </g>
    <g>
      <path d="M69.35791402 192.13080904c-4.9932571 1.88933714-7.28749066 1.93027701-7.96932445 7.19676303l3.01274446 8.63069651c-.46428285 3.58612205-3.69217439 8.79735057-1.58797743 11.74442133.85200667 1.19329322.4485537 5.25648932.45333497 6.4829921-5.20939055 3.60542043 2.18335155 19.2110732.39151022 22.77404595-1.19456088 2.3753153-.9561089 5.78533748.71535594 10.23006652-.50392302 5.2155435-.78777023 8.15332827-.85154161 8.81335463-.09565709.99003949-.08802293 1.9661832.01414423 2.91788266.06811144.63446622 4.40565151 4.89174443 13.01262018 12.77183415 1.0616497.05661096 1.85764125.06637418 2.38797463.02928966l101.78755666-7.11767933c7.15816648-.50054776 12.87185145-6.13723296 13.42962817-13.24864454l3.09520914-78.8580807c.62152832-7.92422072-5.33669553-14.8434913-13.30806482-15.45462355-.70854726-.05432148-1.42020196-.0567032-2.12918968-.00712594l-11.73590529.35597822-70.39131944.26187783c-4.69895733.3285831-9.08587698 4.78637095-11.52390137 8.79456117l-5.18925971 8.53130946-13.6135948 5.15108084z" fill="#000" fill-rule="nonzero"/>
      <path d="M95.47044884 206.13790177c1.17094987-.44259117 2.1593825-1.26140032 2.8077762-2.32593744l5.77812057-9.48655819c.9446866-1.550993 2.58989753-2.54953291 4.41039726-2.67683466l63.4419969-4.43629658c2.90525368-.20315513 6.74338993 1.07891574 11.51440876 3.84621259.27468026-.01920752 5.79655432 9.99658057 5.555487 13.06276054l-3.56858058 58.78307903c-.21633997 2.75167325-5.51603091-1.3505864-8.2892929-1.15666103-10.32657234 5.05495258-18.5858149 7.79891928-24.77772738 8.23189998-7.36780128.51520686-8.37725029-1.73989485-19.24406284-.9800133-3.92258864.27429412-16.18099398 3.45717459-20.55950041 3.76334959l-30.01051249 2.09853946c-.30819771.02155128-.61763609.01778815-.92515747-.01125109-3.08345566-.29117038-5.34277942-3.00900503-5.04634097-6.07045356l.90676089-9.36451203c.06094627-.62941812.01347963-1.26443469-.14036401-1.87781266l-2.96799442-11.83345708c-.42832692-1.70774881-.01781637-3.5168244 1.10706132-4.87869876 3.50851705-4.247715 5.31336778-7.59319083 5.41455207-10.03642769.13756472-3.3216915-.81367579-6.4094326-2.85372141-9.2632233-.81511487-1.14025246-1.16774029-2.54375572-.98774284-3.93136766l.18287616-1.40981634c.26433923-2.03780787 1.63728095-3.76671678 3.57185309-4.49793903l14.6797075-5.5485808z" fill="#C4C3C6" fill-rule="nonzero"/>
      <path d="M119.93525895 194.47410496c.54284962-.87217755 1.14969174-1.72625912 1.8538698-2.55257366 1.88486126-2.21240348 6.54547707-2.37729878 11.4315365-2.70822538-1.4130596 1.2493486-2.61917094 2.31547592-3.82496299 3.38170099.60026098-.07473895.9788372-.24172957 1.28317421-.44110221 1.67404855-1.097592 3.73534977-2.02276509 5.12958127-3.24447077l.64898927-.11341067c.61711578.24648631.95876445.19282569 1.07767407-.10313437 4.38062092-.30652856 8.841257-1.29561116 13.36690214-.60006429 1.04010058.15989275 1.16407987.52983655.74167074.8480614-.53280042.40127537-1.36470875.6382821-2.30563199.78834854-.39371467.06282418-.84245135.10270752-.8089943.3438917.16176214 1.16573972-1.53587629 3.2776933-3.151393 3.37937123-1.19029388.07477766-2.53701921.05149696-2.90063702.78873102 1.62134759.08170955 3.15048233.15911095 4.8122176.24300512-.80490418.86434889-2.24904659 1.3915078-2.40811153 2.44483266 2.15789181-.46763687 3.53203787-3.3271606 3.6929179-4.51032496.19060226-1.4012854 1.51637279-2.14186018 4.14823768-2.3533989 1.04261484-.08367997 1.64040117-.40267038 1.68998396-1.02268582.04792355-.60475373 1.05510569-.85544458 2.14890621-.89802727 2.14199444-.08354149 6.30345272-.46034983 10.56059939-.78396889l-.50444316-7.21387325-47.45192194 3.31816162.76983519 11.00915616zM171.88548795 267.41821554c-.9436496-.11353172-1.81834008-.01998518-2.71680655.17327867-.60411776.36509232-1.07199985.33308914-1.51328832.03468832-.39811718-.26966164-.69945039-.73293894-1.26475304-.8119996.07442733.94243059.33769562.88440163.0789538 1.91426148-.09082117.36172197 1.11144308 1.08975371 1.28562303 1.3179921.68899275.90200315 1.49304911 1.01097518 2.38715317 1.51121827.645161.36108116 1.5279717 3.97371745 1.66903378 5.10893957-.91949672-1.4184008-3.3196055-5.4011013-4.99620187-5.39737776-.10532647.00009198-.23709458-.06761122-.25691636-.1747566-.11963825-.64668024-1.59349997-.63239193-1.70841167-1.29032426-.3995078-2.28725654-.39765433-3.02739203-2.16024988-3.9428793-.87657973-.45548305-.84275643-1.32388965-1.87059796-1.43305023-.17215873-.01822297-.80623368-.90412828-1.0753466-.68414882-.5700034.465804-.62375548-.49960684-.88055088-.9574806-.55812868-.99538303-1.87289476-.30178352-2.88402114-.59411795-.88960023-.25707099-6.14316265-4.28477353-6.79613083-4.9654608.97656372.37169623 2.79398899.51694877 3.76711171.89209872.94242648.36307505 6.03229793 3.2061413 6.80831493 3.90548304-.35925307-.44802047-.8947344-1.79967561-1.60644402-4.05496556l-4.37646279-3.87127158c-2.57737651-1.80964872-3.98437385-2.81539736-4.22099189-3.01724574.14432424.00773458 1.96692889.50287003 5.46781395 1.48540635l4.62157654 4.3598867.67131067 3.90492821c.49014293.52318266.78574563.84206462.88680818.95664593.67391406.76413957.63143089.18941662 1.73260161.20461915 1.77397183.02452278.97625296 1.68081086 2.48020931 2.3035567.185127.07661628 1.62854576.19588118 1.67079731.45416198.23757452 1.44986032 1.1424588 2.04308345 2.09469545 2.57194194 1.00465882-.45545903 1.93287056-.65295839 2.70517036.09597167zM192.95581774 200.70117567c-.837315-.1488388-1.70298026-.06733263-2.63594761.1236764-.73323349.38804669-1.15933295.34106517-1.44039848.00062484-.2533656-.3076346-.3283957-.8266252-.8250209-.92798665-.35443205 1.04235812-.08042455.98484473-.78791967 2.1154365-.24844162.39710326.55556686 1.2308293.61675176 1.48715558.2423971 1.01302253.95033784 1.15335189 1.56681661 1.72791126.44477945.41471923-.3513126 4.42528395-.72984832 5.6821558-.22681317-1.58889837-.6925785-6.04581218-2.27278605-6.08343915-.09920691-.00252096-.1927712-.08055057-.16317164-.19933923.17864825-.71695553-1.21544032-.7378727-1.02727406-1.46713312.6541262-2.53522767.98925582-3.35233957-.25787315-4.40697733-.62014093-.52470522-.1971329-1.4826416-1.11568462-1.62874966-.15388072-.0244052-.35182294-1.01828788-.70428174-.78211594-.74647903.50008865-.3622297-.56712684-.39776123-1.07904268-.07712554-1.11286238-1.62741193-.37981403-2.44771756-.72774245-.72177205-.30596945-3.85381793-4.88360444-4.16198652-5.65138293.75201779.43468782 2.39771167.64030112 3.14493347 1.07871693.72376015.42432001 4.23529416 3.68996372 4.65091154 4.48140132-.13643476-.50358743-.03175945-2.0092339.31402675-4.51694004l-2.37671133-4.38308988c-1.61148858-2.06213446-2.4831618-3.20757386-2.61501976-3.43631828.13239865.01213226 1.62536915.60416764 4.47891135 1.77610603l2.3873979 4.92865473-1.12688115 4.32800979c.2258127.58983014.36048849.94925617.4040281 1.0782774.29029884.86043717.50917749.2248474 1.53909155.26904509 1.6591632.071238.16205015 1.88002975 1.29753022 2.60502247.13978753.08919838 1.44505717.25680846 1.36849828.54301902-.4293933 1.60665595.15535357 2.2841397.81367492 2.89173986 1.1510506-.47784589 2.11393103-.67279053 2.50371134.17330432z" fill="#000"/>
      <path d="M74.77089077 264.83770682l2.95264734-6.34990602-.9714402-13.89224226c-.2852516-1.1379709-1.36767566-3.11360144-3.24727216-5.92689155l8.63636048-8.50750812c-2.69483684-5.28682332-4.72145849-8.88108177-6.07986495-10.78277556-.81414145-1.13975294-1.16639664-2.54260504-.98670558-3.92954377l.18256482-1.40913235c.2638892-2.03681907 1.63498783-3.76482501 3.56705797-4.49558992l14.6607226-5.54510952c1.1694355-.44231425 2.15656501-1.26067681 2.80407437-2.32466901l5.77024025-9.48170156c.94339826-1.55019895 2.58646044-2.54816988 4.40463704-2.67530917 17.77333107-1.57767815 33.24542458-3.27948204 46.4162806-5.10541189 13.17085581-1.82592983 23.31622853-3.76090295 30.43611784-5.80491934-.65345633-1.49228512-3.03539588-2.0947133-7.14581765-1.80728462-.2781827.01945243-.5495191-.02191196-.82384922-.00272893l-72.69251469 5.0831558c-1.8181766.1271393-3.46123878 1.12511013-4.40463704 2.67530917l-5.77024035 9.48170157c-.64750935 1.0639922-1.63463886 1.88235477-2.80407427 2.32466901l-14.6607226 5.54510952c-1.93207014.7307649-3.30316877 2.45877075-3.56705797 4.49558992l-.18256491 1.40913236c-.17969097 1.38693862.17256423 2.78979082.98670568 3.92954376 2.03760959 2.85254059 2.98781232 5.93885901 2.850608 9.25895519-.1009192 2.4420634-1.90328715 5.78583951-5.40710357 10.03132849-1.12337063 1.3611607-1.53325804 3.16934875-1.10538068 4.8763052l2.96487897 11.82796692c.15368218.61309344.20112391 1.247809.14029033 1.87692303l-.9050847 9.35998557c-.2607626 2.69669129 1.4608818 5.12675125 3.98114425 5.86504808z" fill="#C4C3C6" fill-rule="nonzero"/>
      <path d="M96.6311758 214.29139294l16.8284557-22.99195894-6.44714064.45082799c-1.7476195.12220546-3.32483237 1.11130563-4.22811146 2.651529l-5.5248543 9.42068647c-.6199733 1.0571453-1.5670241 1.86908527-2.69022538 2.30642487l-14.08110473 5.4827433c-1.8556849.72254582-3.1697173 2.4386766-3.41859391 4.46469543l-.17217884 1.40166026c-.11297888.91972301.12685632 3.06154973.71950582 6.42548026l3.00071032 6.7061982-2.47627922 11.27727126-4.31367021 3.07766948c2.09466609 6.22548936 3.19173024 9.54169855 3.29119246 9.94862757.14919323.6103936.34774726 3.53211754.2907518 4.15794453l-.84798186 9.31108095c-.24431082 2.68260144 1.41655249 5.10459062 3.84117447 5.84515732l.68743208-7.54819927c.05699556-.625827-.65356612-3.97441922-.80275935-4.58481281l1.81114225-10.30541768-2.9748278-3.60285658 5.17445007-9.96842578-.74050122-10.58966072-.94814987-5.023084 2.39592249-4.33158161 11.62564133-3.9819995z" fill="#FFF" fill-rule="nonzero"/>
      <path fill="#000" d="M107.15219768 205.04952184l-1.03530401 56.52281819 3.8695219.06419414 1.0353041-56.52281829zM131.29349499 203.36139788l-1.03530401 56.52281819 3.8695219.06419414 1.03530411-56.52281829zM119.22284638 204.20545986l-1.0353041 56.52281819 3.869522.06419414 1.035304-56.52281828zM142.73983304 228.15492128l-.55846427 31.00564903 3.85370225.06454226.55846426-31.00564912z"/>
    </g>
    <g>
      <path d="M61.23812624 129.57861393c7.97891604-4.12616493 22.64641354-17.62858184 23.86679513-13.83684152 1.57816726 4.90338524 5.0468574 16.87171165 10.60955517 21.05777088 1.84139656 1.38569367 4.13478203 2.28767383 7.03486505 2.41171692 4.28894978.18344802 7.86968006-2.83152469 10.74219073-9.04491807 5.4151936-18.52693165 11.67400854-29.84447974 18.7764449-33.95264425 10.6536543-6.16224674-5.24798404-11.592442-4.26133756-15.11662824 1.40773797-5.02827667-30.06278938 12.1296513-41.4984219 18.72417641-12.9775673 7.48370437-31.56245457 33.01135976-25.27009152 29.75736787z" fill="#000"/>
      <path d="M87.71038024 112.11138845c.01403435.31041748.02701362.61936417.04277428 1.01237184-.00017967-.00448016.03010435.75835158.03877933.9698805.03276395.79891283.06073413 1.36398594.09849546 1.93108969.06693147 1.00518633.16010735 1.90611813.29970976 2.82134416.33379699 2.18835625.92631259 4.38124463 1.94469635 7.22091403 3.63412805 10.13343187 10.21553211 16.04485174 16.95885094 14.93385115 5.318035-.87617686 7.75986284-5.31427556 7.80218502-10.9014787.0025854-.34131726-.32664695-7.13753186-.23165853-9.62531272.02630412-.68891231.0682565-1.37749875.12736726-2.07168032.01623843-.19070014.33532085-4.44461797.46293456-5.75245518.58816514-6.02775348 1.77511976-10.70665305 4.32338595-15.51416027.5166609-.97472196.9447642-1.63758209 1.83158355-2.88705242.12272007-.17279092.1988095-.27990722.2506604-.35300704.1013058-.14282176.18492716-.26115476.26651496-.37731184 3.56612611-5.07711753 5.37372187-10.2019426 7.41475503-22.56761698.69979865-4.23975597 1.20610752-7.52873617 1.56250741-10.07783358.12067511-.86311077.21973663-1.60966394.30405383-2.28226538.00962505-.01688935.01924638-.03384595.02886402-.05086876 1.1551387-2.04455358 9.22892222-12.93729686 24.22135072-32.67823085-1.57794383-2.5496698-3.12212851-4.30323758-4.63255378-5.2607043-.4069379-.25796005-6.81444924-4.50840854-7.32382332-4.84520222-2.13923041-1.4144415-4.0877813-2.69601514-5.93884653-3.9039981-5.50492089-3.59244599-12.57763476-7.50354035-21.21814171-11.7332831l-7.10588797 10.28147255c-12.5824427 14.4912599-23.76654497 26.4010795-33.55230677 35.72945775-3.90118276 3.47032993-6.50629149 6.2730839-7.81532614 8.40826245-4.06617184 6.63237011-8.58392605 12.91071127-9.91229185 14.15220156-2.95474947 2.76150786-6.65426273 13.87436085-6.2840948 15.15502452-.26437468.41602511-3.40747075 3.91466505-3.69883691 4.37409783-1.3847659 2.1835303-2.4302731 3.88694736-3.43070953 5.62376333-2.32656206 4.03904743-3.94538412 7.47888249-4.81751718 10.66374655-.80240467 2.93022923-.96126945 5.74581351-.2949205 8.14458465-.12793283.20512822-.26282018.41756978-.40482474.63760977-.36695285.56860352-.73781387 1.12441017-1.34205984 2.01685917-1.90593053 2.814989-2.42436444 3.61097417-3.17886788 5.00168038-1.56333308 2.88154685-7.91433896 9.53025358-7.32413013 12.53108536 1.5147153 7.70135179 11.99454941 9.14887398 19.73983606 6.37230162 6.8134632-2.44252723 16.72414067-11.73102811 26.92210644-23.32756775 2.38525209-2.71237145 6.56067108-5.33878693 10.26862299-6.42884043 1.4194396-.41728297 2.6107942-.55875154 3.40996609-.47248963.07971232 1.05092269.13829692 2.0570041.1867977 3.12976071z" fill="#000" fill-rule="nonzero"/>
      <path d="M45.6403303 112.13530338c5.92359544-6.55766738 13.52870324-14.55830402 17.51418873-18.5347033 3.9854855-3.97639936 5.129422-6.41362807 9.6239939-9.20949947-2.8588862 4.77418543-5.36578443 8.03303078-7.52069462 9.7765362-1.99933424 1.61763126-23.61570364 25.9191867-26.61855861 29.70160533-1.76105962 2.21824396-3.16650514 3.52855-4.2436317 5.30680303l-2.11671757 2.9871405c6.19219807 7.33705293 17.24900564 1.6519377 33.17042279-17.05534564 4.67078168-5.48805654 17.36808558-13.7517033 22.81574415-13.02363674 2.1428664.2863889 3.7778066 1.35527445 4.46047823 3.4519337.91552727 9.37661624-.1427964 10.21569732 2.45410936 17.41412144 3.16119931 8.76260263 8.0049235 11.86484194 11.22570857 11.3441732 4.0923189-.66155994.21554787-4.90110863 1.07313248-15.25564.50111017-6.05043554-1.5440465-12.63721459 3.50449832-22.18514726 1.8575751-3.51309178 9.2271321-17.52615461 10.400793-26.29889883.6756565-5.05031867.15538075-9.29008942-1.5608273-12.7193124l13.994119-21.7821461c13.72119006-13.13853026 9.61540419-11.37048413 6.15386433-14.4359446-1.28337106-1.13652399-8.28649003-5.84550209-21.009357-14.1269333L87.65986786 45.95208758C77.39560066 56.85211527 70.74147539 64.28288393 67.6974921 68.24439334c-7.76351104 10.10361047-9.41199342 15.90817135-9.2486806 17.18089388 3.2758007-3.50045262 10.52430852-9.39842084 7.38741039-5.9145473-3.55237358 3.55942658-24.02875502 28.27037835-20.19589158 32.62456346z" fill="#C4C3C6"/>
      <path d="M110.48272767 121.24987825c2.2096209 1.140898 2.87221936 4.74835195 1.47995513 8.05747402-1.39226423 3.30912205-3.20762545 4.9443091-5.41724637 3.80341108-2.2096209-1.140898-4.71000758-8.5462982-1.05813096-10.2839659 3.65187665-1.73766778 2.7858013-2.7178172 4.9954222-1.5769192z" fill="#000"/>
      <path d="M107.83165198 123.35540862c.28258183.77617256.49515385 3.57147393.6377161 8.38590402-.37633058.49410206-1.01805905.50392129-1.92518537.0294577-1.3606895-.7116954-2.71403326-5.69095372-.35474275-6.98809541 2.3592905-1.29714169 1.21833929-2.59152516 1.64221202-1.42726631z" fill="#FFF"/>
      <path d="M40.66159419 120.75916106c-.93706796.68382184-3.41613895 3.88235832-7.43721298 9.59560925.02256096 1.59065797.72874688 2.51257417 2.11855776 2.7657486 2.08471628.37976166 7.58500111-4.42697093 6.00098911-8.1576307-1.58401199-3.73065976.72326805-5.22945995-.68233389-4.20372715z" fill="#000"/>
      <path d="M39.97432717 122.30392084c-.3807947.01813677-2.44147364 2.49857085-6.18203683 7.44130224.3103644 1.00080851 1.06803433 1.61096473 2.2730099 1.83046871 1.80746336.32925597 6.43589617-3.15318501 4.97937732-5.98175857-1.45651881-2.82857366-.49915836-3.31721744-1.07035039-3.29001238zM132.38729227 16.93073836c-5.11303601 6.95599364-12.02351317 22.60269599-17.06719955 31.01275573 3.64744072 4.5523621 3.50068376 7.9533774 4.60172017 9.93749992 6.43203232-9.47262335 18.73010182-26.60967771 24.40673925-33.2227498-3.84145392-2.53478618-8.03810622-5.25563023-11.94125987-7.72750585zM69.44606472 111.00842695c2.4417068-2.83895782 8.9051981-6.3303067 12.529305-8.00156527-.1005655-.64157987-18.5052566 6.51774669-24.94333554 12.96684018-6.83287594 6.844566-16.90368712 13.00659015-17.74120615 18.62350433 4.86040994.4329195 11.46338925-1.85588058 30.15523669-23.58877924zM96.49075358 109.8457106c-2.2527247-6.7683915-4.88531115-6.7201345-5.479948-6.6924468 2.13358074 2.15160654 2.03962018 4.33741953 1.7533941 6.15640955-1.5749594 10.008994 5.66123308 21.00437879 7.92985938 22.3763774 2.2686263 1.37199861.97691633-1.1417549.89237307-2.3840413-4.5990456-8.42192419-5.6875022-14.87186903-5.09567855-19.45629885zM62.66326912 94.57676113c2.59776435-2.21526887 5.06164669-4.05749917 6.38286778-4.70147834 1.09064443-1.2154087 5.38483036-5.48930436 5.08268664-5.85950654-2.03865518-2.49786684-13.10934567 7.46276398-18.26121737 12.90742717-3.64519703 3.85236121-6.25856931 8.3038736-6.58721227 11.40350181 1.12672828-1.37734702 5.58768668-5.96066169 13.38287522-13.7499441z" fill="#FFF"/>
    </g>
  </g>
</svg>
