<svg xmlns="http://www.w3.org/2000/svg" width="500" height="450" viewBox="0 0 500 450">
  <g fill="none" fill-rule="evenodd">
    <g transform="matrix(0 -1 -1 0 500 450)">
      <path fill="#E7EDF5" d="M338.383452,216.175111 L332.838968,216.175111 L332.838968,221.719556 L338.383452,221.719556 L338.383452,227.277778 L332.838968,227.277778 L332.838968,232.836 L338.383452,232.836 L338.383452,238.380444 L343.941726,238.380444 L343.941726,243.938667 L338.383452,243.938667 L338.383452,238.394222 L332.838968,238.394222 L332.838968,243.938667 L338.383452,243.938667 L338.383452,249.5 L332.825178,249.5 L332.825178,243.941778 L327.280694,243.941778 L327.280694,238.397333 L321.72242,238.397333 L321.72242,243.941778 L316.164146,243.941778 L316.164146,238.397333 L310.619662,238.397333 L310.619662,243.941778 L316.164146,243.941778 L316.164146,249.5 L310.605427,249.5 L310.605427,243.941778 L305.061388,243.941778 L305.061388,249.5 L299.5,249.5 L299.5,243.941778 L305.058274,243.941778 L305.058274,238.397333 L299.5,238.397333 L299.5,232.838667 L305.058274,232.838667 L305.058274,227.280444 L299.5,227.280444 L299.5,221.722222 L305.058274,221.722222 L305.058274,216.177778 L305.058274,216.164 L310.602758,216.164 L310.602758,210.619556 L316.161032,210.619556 L316.161032,216.164 L321.719306,216.164 L321.719306,210.619556 L327.278025,210.619556 L327.278025,216.164 L332.822509,216.164 L332.822509,210.619556 L338.380783,210.619556 L338.380783,216.164 L343.939057,216.164 L343.939057,221.722222 L338.380783,221.722222 L338.380783,216.175111 L338.383452,216.175111 Z M305.058274,216.161333 L305.058274,210.616444 L299.5,210.616444 L299.5,216.175111 L305.058274,216.175111 L305.058274,216.161333 Z M321.719306,243.941778 L321.719306,249.5 L327.278025,249.5 L327.278025,243.941778 L321.719306,243.941778 Z M338.383452,232.838667 L338.383452,227.280444 L343.941726,227.280444 L343.941726,232.838667 L338.383452,232.838667 Z M310.602758,238.383556 L305.058274,238.383556 L305.058274,232.838667 L310.602758,232.838667 L310.602758,238.383556 Z M310.616548,210.616444 L310.616548,205.058222 L316.161032,205.058222 L316.161032,210.616444 L321.719306,210.616444 L321.719306,205.058222 L327.278025,205.058222 L327.278025,210.616444 L332.836299,210.616444 L332.836299,205.058222 L338.380783,205.058222 L338.380783,210.616444 L343.939057,210.616444 L343.939057,205.058222 L338.380783,205.058222 L338.380783,199.5 L332.822509,199.5 L332.822509,205.058222 L327.278025,205.058222 L327.278025,199.5 L321.719306,199.5 L321.719306,205.058222 L316.161032,205.058222 L316.161032,199.5 L310.602758,199.5 L310.602758,205.058222 L305.058274,205.058222 L305.058274,199.5 L299.5,199.5 L299.5,205.058222 L305.058274,205.058222 L305.058274,210.616444 L310.616548,210.616444 Z M332.822509,221.719556 L332.822509,227.277778 L327.278025,227.277778 L327.278025,221.719556 L332.822509,221.719556 Z M321.719306,221.719556 L321.719306,216.175111 L327.278025,216.175111 L327.278025,221.719556 L321.719306,221.719556 Z M316.161032,221.719556 L321.719306,221.719556 L321.719306,227.277778 L316.161032,227.277778 L316.161032,221.719556 Z M316.161032,221.719556 L310.616548,221.719556 L310.616548,216.175111 L316.161032,216.175111 L316.161032,221.719556 Z M316.161032,232.838667 L310.616548,232.838667 L310.616548,227.280444 L316.161032,227.280444 L316.161032,232.838667 Z M321.719306,232.838667 L321.719306,238.383556 L316.161032,238.383556 L316.161032,232.838667 L321.719306,232.838667 Z M327.280694,232.838667 L321.72242,232.838667 L321.72242,227.280444 L327.280694,227.280444 L327.280694,232.838667 Z M327.280694,232.838667 L332.825178,232.838667 L332.825178,238.383556 L327.280694,238.383556 L327.280694,232.838667 Z M310.602758,227.280444 L310.602758,221.722222 L305.058274,221.722222 L305.058274,227.280444 L310.602758,227.280444 Z M349.5,243.941778 L343.941726,243.941778 L343.941726,249.5 L349.5,249.5 L349.5,243.941778 Z M343.941726,232.838667 L349.5,232.838667 L349.5,238.397333 L343.941726,238.397333 L343.941726,232.838667 Z M349.5,221.719556 L343.941726,221.719556 L343.941726,227.277778 L349.5,227.277778 L349.5,221.719556 Z M343.941726,210.616444 L349.5,210.616444 L349.5,216.175111 L343.941726,216.175111 L343.941726,210.616444 Z M343.941726,199.5 L349.5,199.5 L349.5,205.058222 L343.941726,205.058222 L343.941726,199.5 Z"/>
      <path fill="#4038FF" d="M138.883452,416.675111 L133.338968,416.675111 L133.338968,422.219556 L138.883452,422.219556 L138.883452,427.777778 L133.338968,427.777778 L133.338968,433.336 L138.883452,433.336 L138.883452,438.880444 L144.441726,438.880444 L144.441726,444.438667 L138.883452,444.438667 L138.883452,438.894222 L133.338968,438.894222 L133.338968,444.438667 L138.883452,444.438667 L138.883452,450 L133.325178,450 L133.325178,444.441778 L127.780694,444.441778 L127.780694,438.897333 L122.22242,438.897333 L122.22242,444.441778 L116.664146,444.441778 L116.664146,438.897333 L111.119662,438.897333 L111.119662,444.441778 L116.664146,444.441778 L116.664146,450 L111.105427,450 L111.105427,444.441778 L105.561388,444.441778 L105.561388,450 L100,450 L100,444.441778 L105.558274,444.441778 L105.558274,438.897333 L100,438.897333 L100,433.338667 L105.558274,433.338667 L105.558274,427.780444 L100,427.780444 L100,422.222222 L105.558274,422.222222 L105.558274,416.677778 L105.558274,416.664 L111.102758,416.664 L111.102758,411.119556 L116.661032,411.119556 L116.661032,416.664 L122.219306,416.664 L122.219306,411.119556 L127.778025,411.119556 L127.778025,416.664 L133.322509,416.664 L133.322509,411.119556 L138.880783,411.119556 L138.880783,416.664 L144.439057,416.664 L144.439057,422.222222 L138.880783,422.222222 L138.880783,416.675111 L138.883452,416.675111 Z M105.558274,416.661333 L105.558274,411.116444 L100,411.116444 L100,416.675111 L105.558274,416.675111 L105.558274,416.661333 Z M122.219306,444.441778 L122.219306,450 L127.778025,450 L127.778025,444.441778 L122.219306,444.441778 Z M138.883452,433.338667 L138.883452,427.780444 L144.441726,427.780444 L144.441726,433.338667 L138.883452,433.338667 Z M111.102758,438.883556 L105.558274,438.883556 L105.558274,433.338667 L111.102758,433.338667 L111.102758,438.883556 Z M111.116548,411.116444 L111.116548,405.558222 L116.661032,405.558222 L116.661032,411.116444 L122.219306,411.116444 L122.219306,405.558222 L127.778025,405.558222 L127.778025,411.116444 L133.336299,411.116444 L133.336299,405.558222 L138.880783,405.558222 L138.880783,411.116444 L144.439057,411.116444 L144.439057,405.558222 L138.880783,405.558222 L138.880783,400 L133.322509,400 L133.322509,405.558222 L127.778025,405.558222 L127.778025,400 L122.219306,400 L122.219306,405.558222 L116.661032,405.558222 L116.661032,400 L111.102758,400 L111.102758,405.558222 L105.558274,405.558222 L105.558274,400 L100,400 L100,405.558222 L105.558274,405.558222 L105.558274,411.116444 L111.116548,411.116444 Z M133.322509,422.219556 L133.322509,427.777778 L127.778025,427.777778 L127.778025,422.219556 L133.322509,422.219556 Z M122.219306,422.219556 L122.219306,416.675111 L127.778025,416.675111 L127.778025,422.219556 L122.219306,422.219556 Z M116.661032,422.219556 L122.219306,422.219556 L122.219306,427.777778 L116.661032,427.777778 L116.661032,422.219556 Z M116.661032,422.219556 L111.116548,422.219556 L111.116548,416.675111 L116.661032,416.675111 L116.661032,422.219556 Z M116.661032,433.338667 L111.116548,433.338667 L111.116548,427.780444 L116.661032,427.780444 L116.661032,433.338667 Z M122.219306,433.338667 L122.219306,438.883556 L116.661032,438.883556 L116.661032,433.338667 L122.219306,433.338667 Z M127.780694,433.338667 L122.22242,433.338667 L122.22242,427.780444 L127.780694,427.780444 L127.780694,433.338667 Z M127.780694,433.338667 L133.325178,433.338667 L133.325178,438.883556 L127.780694,438.883556 L127.780694,433.338667 Z M111.102758,427.780444 L111.102758,422.222222 L105.558274,422.222222 L105.558274,427.780444 L111.102758,427.780444 Z M150,444.441778 L144.441726,444.441778 L144.441726,450 L150,450 L150,444.441778 Z M144.441726,433.338667 L150,433.338667 L150,438.897333 L144.441726,438.897333 L144.441726,433.338667 Z M150,422.219556 L144.441726,422.219556 L144.441726,427.777778 L150,427.777778 L150,422.219556 Z M144.441726,411.116444 L150,411.116444 L150,416.675111 L144.441726,416.675111 L144.441726,411.116444 Z M144.441726,400 L150,400 L150,405.558222 L144.441726,405.558222 L144.441726,400 Z"/>
      <path fill="#E7EDF5" d="M87.883452,16.6751111 L82.338968,16.6751111 L82.338968,22.2195556 L87.883452,22.2195556 L87.883452,27.7777778 L82.338968,27.7777778 L82.338968,33.336 L87.883452,33.336 L87.883452,38.8804444 L93.441726,38.8804444 L93.441726,44.4386667 L87.883452,44.4386667 L87.883452,38.8942222 L82.338968,38.8942222 L82.338968,44.4386667 L87.883452,44.4386667 L87.883452,50 L82.3251779,50 L82.3251779,44.4417778 L76.780694,44.4417778 L76.780694,38.8973333 L71.2224199,38.8973333 L71.2224199,44.4417778 L65.6641459,44.4417778 L65.6641459,38.8973333 L60.1196619,38.8973333 L60.1196619,44.4417778 L65.6641459,44.4417778 L65.6641459,50 L60.105427,50 L60.105427,44.4417778 L54.5613879,44.4417778 L54.5613879,50 L49,50 L49,44.4417778 L54.558274,44.4417778 L54.558274,38.8973333 L49,38.8973333 L49,33.3386667 L54.558274,33.3386667 L54.558274,27.7804444 L49,27.7804444 L49,22.2222222 L54.558274,22.2222222 L54.558274,16.6777778 L54.558274,16.664 L60.102758,16.664 L60.102758,11.1195556 L65.661032,11.1195556 L65.661032,16.664 L71.219306,16.664 L71.219306,11.1195556 L76.7780249,11.1195556 L76.7780249,16.664 L82.3225089,16.664 L82.3225089,11.1195556 L87.8807829,11.1195556 L87.8807829,16.664 L93.4390569,16.664 L93.4390569,22.2222222 L87.8807829,22.2222222 L87.8807829,16.6751111 L87.883452,16.6751111 Z M54.558274,16.6613333 L54.558274,11.1164444 L49,11.1164444 L49,16.6751111 L54.558274,16.6751111 L54.558274,16.6613333 Z M71.219306,44.4417778 L71.219306,50 L76.7780249,50 L76.7780249,44.4417778 L71.219306,44.4417778 Z M87.883452,33.3386667 L87.883452,27.7804444 L93.441726,27.7804444 L93.441726,33.3386667 L87.883452,33.3386667 Z M60.102758,38.8835556 L54.558274,38.8835556 L54.558274,33.3386667 L60.102758,33.3386667 L60.102758,38.8835556 Z M60.116548,11.1164444 L60.116548,5.55822222 L65.661032,5.55822222 L65.661032,11.1164444 L71.219306,11.1164444 L71.219306,5.55822222 L76.7780249,5.55822222 L76.7780249,11.1164444 L82.3362989,11.1164444 L82.3362989,5.55822222 L87.8807829,5.55822222 L87.8807829,11.1164444 L93.4390569,11.1164444 L93.4390569,5.55822222 L87.8807829,5.55822222 L87.8807829,-1.42108547e-14 L82.3225089,-1.42108547e-14 L82.3225089,5.55822222 L76.7780249,5.55822222 L76.7780249,-1.42108547e-14 L71.219306,-1.42108547e-14 L71.219306,5.55822222 L65.661032,5.55822222 L65.661032,-1.42108547e-14 L60.102758,-1.42108547e-14 L60.102758,5.55822222 L54.558274,5.55822222 L54.558274,-1.42108547e-14 L49,-1.42108547e-14 L49,5.55822222 L54.558274,5.55822222 L54.558274,11.1164444 L60.116548,11.1164444 Z M82.3225089,22.2195556 L82.3225089,27.7777778 L76.7780249,27.7777778 L76.7780249,22.2195556 L82.3225089,22.2195556 Z M71.219306,22.2195556 L71.219306,16.6751111 L76.7780249,16.6751111 L76.7780249,22.2195556 L71.219306,22.2195556 Z M65.661032,22.2195556 L71.219306,22.2195556 L71.219306,27.7777778 L65.661032,27.7777778 L65.661032,22.2195556 Z M65.661032,22.2195556 L60.116548,22.2195556 L60.116548,16.6751111 L65.661032,16.6751111 L65.661032,22.2195556 Z M65.661032,33.3386667 L60.116548,33.3386667 L60.116548,27.7804444 L65.661032,27.7804444 L65.661032,33.3386667 Z M71.219306,33.3386667 L71.219306,38.8835556 L65.661032,38.8835556 L65.661032,33.3386667 L71.219306,33.3386667 Z M76.780694,33.3386667 L71.2224199,33.3386667 L71.2224199,27.7804444 L76.780694,27.7804444 L76.780694,33.3386667 Z M76.780694,33.3386667 L82.3251779,33.3386667 L82.3251779,38.8835556 L76.780694,38.8835556 L76.780694,33.3386667 Z M60.102758,27.7804444 L60.102758,22.2222222 L54.558274,22.2222222 L54.558274,27.7804444 L60.102758,27.7804444 Z M99,44.4417778 L93.441726,44.4417778 L93.441726,50 L99,50 L99,44.4417778 Z M93.441726,33.3386667 L99,33.3386667 L99,38.8973333 L93.441726,38.8973333 L93.441726,33.3386667 Z M99,22.2195556 L93.441726,22.2195556 L93.441726,27.7777778 L99,27.7777778 L99,22.2195556 Z M93.441726,11.1164444 L99,11.1164444 L99,16.6751111 L93.441726,16.6751111 L93.441726,11.1164444 Z M93.441726,-1.42108547e-14 L99,-1.42108547e-14 L99,5.55822222 L93.441726,5.55822222 L93.441726,-1.42108547e-14 Z"/>
      <path fill="#4038FF" d="M393.941726,199.5 L399.5,199.5 L399.5,149.5 L393.941726,149.5 L393.941726,199.5 Z M388.38879,199.5 L382.833185,199.5 L382.833185,149.5 L388.38879,149.5 L388.38879,199.5 Z M377.278025,199.5 L371.72242,199.5 L371.72242,149.5 L377.278025,149.5 L377.278025,199.5 Z M360.61121,199.5 L366.166815,199.5 L366.166815,149.5 L360.61121,149.5 L360.61121,199.5 Z M355.055605,199.5 L349.5,199.5 L349.5,149.5 L355.055605,149.5 L355.055605,199.5 Z"/>
      <path fill="#E7EDF5" d="M349.5 305.058222L349.5 299.5 299.5 299.5 299.5 305.058222 349.5 305.058222zM349.5 310.611111L349.5 316.166667 299.5 316.166667 299.5 310.611111 349.5 310.611111zM349.5 321.722222L349.5 327.277778 299.5 327.277778 299.5 321.722222 349.5 321.722222zM349.5 338.388889L349.5 332.833333 299.5 332.833333 299.5 338.388889 349.5 338.388889zM349.5 343.944444L349.5 349.5 299.5 349.5 299.5 343.944444 349.5 343.944444zM349.5 143.941689L349.5 149.5 299.5 149.5 299.5 143.941689 349.5 143.941689zM349.5 127.272222L349.5 121.713911 299.5 121.713911 299.5 127.272222 349.5 127.272222zM349.5 110.6028L349.5 116.161111 299.5 116.161111 299.5 110.6028 349.5 110.6028zM349.5 99.5L349.5 105.058356 299.5 105.058356 299.5 99.5 349.5 99.5zM349.5 138.383333L349.5 132.824978 299.5 132.824978 299.5 138.383333 349.5 138.383333z"/>
      <path fill="#E7EDF5" d="M443.944395,249.5 L449.5,249.5 C449.5,277.113778 427.113879,299.5 399.5,299.5 L399.5,293.944444 C424.047153,293.944444 443.944395,274.047111 443.944395,249.5 Z M432.833185,249.5 L438.38879,249.5 C438.38879,270.977778 420.977758,288.388889 399.5,288.388889 L399.5,282.833333 C417.908363,282.833333 432.833185,267.908444 432.833185,249.5 Z M427.278025,249.5 L421.72242,249.5 C421.72242,261.772 411.772242,271.722222 399.5,271.722222 L399.5,277.277778 C414.841637,277.277778 427.278025,264.841778 427.278025,249.5 Z M410.61121,249.5 L416.166815,249.5 C416.166815,258.705333 408.705516,266.166667 399.5,266.166667 L399.5,260.611111 C405.636121,260.611111 410.61121,255.636 410.61121,249.5 Z M399.5,249.5 L405.055605,249.5 C405.055605,252.569333 402.569395,255.055556 399.5,255.055556 L399.5,249.5 Z" transform="rotate(90 424.5 274.5)"/>
      <path fill="#E7EDF5" d="M255.055605,299.5 L249.5,299.5 C249.5,271.886222 271.886121,249.5 299.5,249.5 L299.5,255.055556 C274.952847,255.055556 255.055605,274.952889 255.055605,299.5 Z M266.166815,299.5 L260.61121,299.5 C260.61121,278.022222 278.022242,260.611111 299.5,260.611111 L299.5,266.166667 C281.091637,266.166667 266.166815,281.091556 266.166815,299.5 Z M271.72242,299.5 L277.278025,299.5 C277.278025,287.227556 287.227758,277.277778 299.5,277.277778 L299.5,271.722222 C284.158363,271.722222 271.72242,284.158222 271.72242,299.5 Z M288.38879,299.5 L282.83363,299.5 C282.83363,290.294222 290.294484,282.833333 299.5,282.833333 L299.5,288.388889 C293.363879,288.388889 288.38879,293.364 288.38879,299.5 Z M299.5,299.5 L293.944395,299.5 C293.944395,296.430667 296.430605,293.944444 299.5,293.944444 L299.5,299.5 Z" transform="rotate(90 274.5 274.5)"/>
      <path fill="#E7EDF5" d="M255.055605,100 L249.5,100 C249.5,72.3862222 271.886121,50 299.5,50 L299.5,55.5555556 C274.952847,55.5555556 255.055605,75.4528889 255.055605,100 Z M266.166815,100 L260.61121,100 C260.61121,78.5222222 278.022242,61.1111111 299.5,61.1111111 L299.5,66.6666667 C281.091637,66.6666667 266.166815,81.5915556 266.166815,100 Z M271.72242,100 L277.278025,100 C277.278025,87.7275556 287.227758,77.7777778 299.5,77.7777778 L299.5,72.2222222 C284.158363,72.2222222 271.72242,84.6582222 271.72242,100 Z M288.38879,100 L282.83363,100 C282.83363,90.7942222 290.294484,83.3333333 299.5,83.3333333 L299.5,88.8888889 C293.363879,88.8888889 288.38879,93.864 288.38879,100 Z M299.5,100 L293.944395,100 C293.944395,96.9306667 296.430605,94.4444444 299.5,94.4444444 L299.5,100 Z" transform="rotate(90 274.5 75)"/>
      <path fill="#E7EDF5" d="M6.05560498,348.5 L0.5,348.5 C0.5,320.886222 22.886121,298.5 50.5,298.5 L50.5,304.055556 C25.952847,304.055556 6.05560498,323.952889 6.05560498,348.5 Z M17.1668149,348.5 L11.61121,348.5 C11.61121,327.022222 29.022242,309.611111 50.5,309.611111 L50.5,315.166667 C32.091637,315.166667 17.1668149,330.091556 17.1668149,348.5 Z M22.7224199,348.5 L28.2780249,348.5 C28.2780249,336.227556 38.227758,326.277778 50.5,326.277778 L50.5,320.722222 C35.158363,320.722222 22.7224199,333.158222 22.7224199,348.5 Z M39.38879,348.5 L33.8336299,348.5 C33.8336299,339.294222 41.294484,331.833333 50.5,331.833333 L50.5,337.388889 C44.363879,337.388889 39.38879,342.364 39.38879,348.5 Z M50.5,348.5 L44.944395,348.5 C44.944395,345.430667 47.430605,342.944444 50.5,342.944444 L50.5,348.5 Z" transform="rotate(-180 25.5 323.5)"/>
      <path fill="#E7EDF5" fill-rule="nonzero" d="M199.5,199.5 L199.5,249.5 L249.5,249.5 C249.5,221.886222 227.113879,199.5 199.5,199.5 Z" transform="rotate(-180 224.5 224.5)"/>
      <path fill="#E7EDF5" fill-rule="nonzero" d="M149.5 399.5L199.5 399.5 199.5 349.5C171.886121 349.5 149.5 371.886222 149.5 399.5zM153.91619 500L150 500 150 496.083333 196.082857 450 200 450 200 453.916667 153.91619 500zM188.221905 450L180.360952 450 150 480.361048 150 488.22219 188.221905 450zM172.5 450L164.639048 450 150 464.638857 150 472.5 172.5 450zM150 450L150 456.777771 156.777143 450 150 450zM200 469.638857L200 461.77781 161.777143 500 169.639048 500 200 469.638857zM200 485.361048L200 477.5 177.5 500 185.360952 500 200 485.361048zM200 493.22219L193.221905 500 200 500 200 493.22219zM103.41619 199.5L99.5 199.5 99.5 195.583333 145.582857 149.5 149.5 149.5 149.5 153.416667 103.41619 199.5zM137.721905 149.5L129.860952 149.5 99.5 179.861048 99.5 187.72219 137.721905 149.5zM122 149.5L114.139048 149.5 99.5 164.138857 99.5 172 122 149.5zM99.5 149.5L99.5 156.277771 106.277143 149.5 99.5 149.5zM149.5 169.138857L149.5 161.27781 111.277143 199.5 119.139048 199.5 149.5 169.138857zM149.5 184.861048L149.5 177 127 199.5 134.860952 199.5 149.5 184.861048zM149.5 192.72219L142.721905 199.5 149.5 199.5 149.5 192.72219z"/>
      <path fill="#4038FF" d="M255.058274,399.5 L249.5,399.5 L249.5,349.5 L255.058274,349.5 L255.058274,399.5 Z M271.727758,399.5 L277.286032,399.5 L277.286032,349.5 L271.727758,349.5 L271.727758,399.5 Z M288.397242,399.5 L282.838968,399.5 L282.838968,349.5 L288.397242,349.5 L288.397242,399.5 Z M299.5,399.5 L293.941726,399.5 L293.941726,349.5 L299.5,349.5 L299.5,399.5 Z M260.616548,399.5 L266.174822,399.5 L266.174822,349.5 L260.616548,349.5 L260.616548,399.5 Z"/>
      <path fill="#E7EDF5" d="M106.058274,348.5 L100.5,348.5 L100.5,298.5 L106.058274,298.5 L106.058274,348.5 Z M122.727758,348.5 L128.286032,348.5 L128.286032,298.5 L122.727758,298.5 L122.727758,348.5 Z M139.397242,348.5 L133.838968,348.5 L133.838968,298.5 L139.397242,298.5 L139.397242,348.5 Z M150.5,348.5 L144.941726,348.5 L144.941726,298.5 L150.5,298.5 L150.5,348.5 Z M111.616548,348.5 L117.174822,348.5 L117.174822,298.5 L111.616548,298.5 L111.616548,348.5 Z"/>
    </g>
    <g transform="translate(89 66)">
      <g fill-rule="nonzero" transform="translate(.043)">
        <path fill="#000" d="M151.292088,0.0228096 C145.217708,0.124663066 139.154131,0.573986139 133.131084,1.368576 C120.43675,3.02582771 109.307284,10.6705496 103.204889,21.9245875 C101.25084,25.5480018 99.5216446,29.2882432 98.0271098,33.1241011 C94.1266682,43.1603251 91.7727175,49.2003072 94.2817735,56.5267507 C94.8061537,57.9803966 95.4295565,59.3963898 96.1475988,60.7647744 C96.6904673,61.8459494 97.4203745,63.3103258 97.3701933,63.8030131 L97.160345,64.0904141 C96.1704713,65.3756114 95.3771505,66.8008214 94.8063943,68.3193139 C92.9131975,73.3374259 93.7845242,77.8993459 95.0253665,82.8718387 C96.011876,87.079561 97.3423475,91.1991402 99.0033607,95.1890227 C99.8290682,97.2099533 100.139279,97.967232 100.326317,100.065715 C100.422439,101.325428 100.44833,102.589517 100.40387,103.852109 C100.349127,106.680499 100.280698,110.202301 102.940298,113.933952 C103.882601,115.245862 105.024788,116.401903 106.325242,117.359954 C106.744545,117.713911 106.889795,118.296751 106.685634,118.806083 C102.049109,131.527913 98.2948774,144.554166 95.449625,157.792251 C94.081049,164.101386 92.9314452,170.533693 91.9962516,176.920381 C91.8958893,177.600108 91.800089,178.288957 91.7088506,178.950436 C89.4689479,195.031204 71.0296673,204.95338 54.7572986,213.671209 C50.7975521,215.797064 47.0613396,217.804308 43.6398996,219.857172 C41.390873,221.202939 39.1144749,222.452905 36.7057812,223.775862 C30.9212666,226.969206 24.9451514,230.240102 19.4890951,234.897823 C12.1900231,241.120282 -0.0426300708,250.24 0.597369929,266.88 C1.23736993,283.52 10.4063124,292.96194 27.7416084,294.668099 C29.4842618,294.841452 31.3364013,294.928128 33.2524077,294.928128 C33.6492948,294.928128 34.0461818,294.928128 34.4385069,294.928128 C46.7237575,294.700032 61.4988688,289.931607 57.5573699,302.08 C55.0255043,309.871759 56.9173699,330.88 97.2373699,337.28 C137.55737,343.68 230.938649,269.924244 238.693913,258.204672 C241.960248,253.264113 244.473866,248.314429 246.905369,243.524413 C250.527533,236.380447 253.948973,229.628805 259.50083,223.7713 C260.960645,222.229371 262.479764,220.669194 263.953264,219.159199 C265.590993,217.484974 267.278904,215.751444 268.934881,213.995105 L269.464063,213.433989 C270.69122,212.138404 271.945748,210.810885 273.168342,209.378442 C276.498544,208.598354 279.646269,207.745275 282.556774,206.832891 C291.968015,203.876767 305.147402,198.484577 310.913669,185.797878 C315.14713,176.491561 314.827796,164.233682 310.046904,152.162842 C305.339002,140.30185 297.296337,130.963599 287.976335,126.588718 C286.667064,125.977421 285.261992,125.4528 283.637949,124.850627 C279.123197,123.235227 274.737291,121.280174 270.517867,119.002245 C266.941322,117.081677 264.696857,115.626424 262.712422,114.339963 C259.943336,112.547128 257.55289,110.996076 253.802992,109.828224 C250.763198,108.892934 247.599534,108.422307 244.419123,108.432276 C240.484332,108.470478 236.575606,109.075838 232.813598,110.229673 C232.699956,110.265601 232.581516,110.284059 232.46233,110.284416 C231.900595,110.263969 231.408485,109.902123 231.221488,109.372032 L231.198678,109.299041 L231.175869,109.244298 C231.009809,108.768622 231.124342,108.240007 231.472394,107.875722 L235.778846,103.405041 C240.210175,98.7915648 241.242028,91.8814398 238.351769,86.1746688 L213.119789,36.5227315 L200.711367,12.1118976 C198.706023,8.16276795 195.060167,5.29983666 190.748134,4.2882048 C178.672369,1.44277241 166.307979,0.00380669448 153.901506,0 C153.039303,0 152.158853,0 151.292088,0.0228096 Z"/>
        <path fill="#C4C3C6" d="M153.901506,6.84288 C165.7796,6.84644964 177.617404,8.22418449 189.178833,10.948608 C191.528059,11.5014432 193.51514,13.0597413 194.61208,15.2094413 L232.252482,89.2630886 C233.831343,92.3701683 233.269262,96.1362897 230.851973,98.6469581 C229.416488,100.134144 227.981004,101.624371 226.54552,103.11764 C224.384389,105.350695 223.677142,108.616408 224.720752,111.543506 C224.720752,111.584563 224.748124,111.630182 224.766371,111.67124 C225.929663,114.918996 228.998897,117.09334 232.448645,117.11361 C233.228849,117.113038 234.004847,116.999327 234.752414,116.776028 C237.879743,115.806283 241.131388,115.2961 244.405437,115.261471 C246.899779,115.240434 249.382709,115.600413 251.768376,116.32896 L252.178985,116.461216 C252.313407,116.505933 252.445459,116.551294 252.575365,116.597333 L252.958873,116.737516 C253.021794,116.76123 253.084235,116.785122 253.146225,116.809197 L253.512972,116.955868 C253.693862,117.030331 253.871199,117.106514 254.045745,117.184531 L254.391343,117.343047 L254.730858,117.506661 L255.065646,117.675582 L255.397066,117.850015 L255.726474,118.030166 L256.055229,118.216243 L256.384688,118.408452 L256.716208,118.606999 L257.051148,118.812091 L257.562937,119.132453 L260.228018,120.848804 L261.115948,121.412652 L261.831258,121.858862 L262.59397,122.325839 L263.13104,122.649037 L263.692572,122.981982 L264.279922,123.324878 L264.894449,123.677933 L265.537509,124.041354 L266.55857,124.606371 L267.278904,124.996608 L268.05355,125.409295 L268.809665,125.80468 L269.54751,126.183313 L270.267345,126.545747 L270.969431,126.892531 L271.654027,127.224218 L272.321395,127.541356 L272.971794,127.844499 L273.605486,128.134196 L274.222731,128.410999 L274.823789,128.675458 L275.408921,128.928125 L275.978387,129.16955 L276.803783,129.511814 L277.595396,129.831884 L278.599848,130.227333 L279.547888,130.591038 L282.636192,131.74745 L283.171844,131.953056 L283.514844,132.087667 L284.008842,132.287272 L284.479021,132.485757 L284.779674,132.618375 L285.070392,132.751872 C301.233274,140.338345 312.008529,166.833976 304.686648,182.932992 C301.527544,189.884333 295.273434,194.276161 288.511265,197.292534 L287.875903,197.571325 C287.769787,197.617131 287.663567,197.66261 287.557253,197.707767 L286.918313,197.974876 L286.27758,198.234467 L285.635528,198.486758 L284.992631,198.731966 L284.349362,198.970307 L283.706196,199.201997 L283.063605,199.427255 L282.422063,199.646296 L281.782045,199.859337 L281.144023,200.066596 L280.508472,200.268288 C277.023165,201.363149 273.291514,202.334838 269.350015,203.192479 C267.656232,205.308959 265.854946,207.337118 263.953264,209.268956 C260.851158,212.562662 257.644129,215.751444 254.532899,219.031465 C249.758588,224.069942 246.460486,229.548248 243.480453,235.185059 L242.925141,236.24375 L242.375588,237.305744 L241.830097,238.370629 L239.955902,242.060474 L239.164144,243.607629 C237.304294,247.219262 235.343686,250.838755 232.991513,254.395469 C228.094767,261.798441 221.260024,267.589377 213.913685,272.8532 L212.931267,273.552015 L211.943537,274.245154 L210.951246,274.933189 L209.955145,275.61669 L208.455496,276.634694 L206.449644,277.981502 L202.532532,280.593551 C198.163288,283.511759 193.865855,286.437737 189.922426,289.58612 C186.579132,292.255482 155.587464,306.915357 143.547417,312.32 C132.613506,317.224237 122.889675,324.002124 110.911319,324.062728 L104.402186,324.062728 L103.822415,324.062728 C103.242382,324.062728 102.661697,324.056147 102.081546,324.048712 L101.22142,324.034692 L100.381995,324.014351 L99.5449512,323.98619 L98.9886429,323.962453 L98.4339901,323.934313 L97.6056371,323.883034 L97.0561676,323.842262 C96.9647903,323.835002 96.8735168,323.827505 96.7823521,323.819761 L96.236709,323.770298 L95.6939154,323.714575 L95.15421,323.652224 L94.6178318,323.582871 L94.0850194,323.506148 L93.5560118,323.421681 C90.5181002,322.911767 85.307417,320.64 69.947417,312.32 C69.947417,290.56 79.36,290.56 84.48,283.52 C100.281401,268.154016 115.000755,264.049132 117.947417,259.84 C119.544089,257.55904 114.418088,263.460004 113.108817,261.667169 C112.397305,260.735361 111.571168,259.896962 110.649942,259.171799 C109.919528,258.739684 109.241928,258.098868 108.587991,257.40422 L108.233469,257.020914 L107.360798,256.052586 L107.014424,255.675891 C106.091176,254.688164 105.167528,253.854628 104.153768,253.651876 L103.651957,253.651876 C102.531279,253.639912 101.421409,253.871848 100.399308,254.331602 C100.019327,254.874739 99.4140598,255.364332 98.7846058,255.825579 L97.8474223,256.499339 C97.4703188,256.773839 97.1230446,257.042187 96.8546964,257.310536 C95.6549114,258.22292 94.4596884,259.094246 93.2644653,259.938202 C92.0692423,260.782157 90.8785812,261.594179 89.6970439,262.397076 C89.0784475,262.76203 88.4510923,263.113845 87.8056354,263.468288 L86.8227058,264.003894 L85.8056166,264.555266 L84.7473607,265.134228 C81.7228077,267.022863 80.663874,258.063432 77.6621306,259.929257 C76.6311367,260.535992 75.6001428,261.133604 74.4915962,261.708406 C72.835648,262.293661 71.2279943,263.007496 69.6833325,263.843384 C68.1231559,264.673654 66.6040365,265.604285 65.094041,266.580536 L64.2713149,267.08358 L63.443703,267.583699 L62.6111845,268.080081 L61.7737384,265.371912 L60.931344,265.858382 C60.3680936,266.180726 59.8015304,266.498954 59.2316265,266.811981 L58.3742616,267.277485 C51.4952426,270.96815 44.1331591,273.831895 36.239897,273.996124 L35.1769697,273.996124 C33.5666119,273.996124 31.9380065,273.927695 30.3367725,273.768028 L29.8329446,273.715575 C29.6653284,273.69708 29.4980563,273.677564 29.3311812,273.657001 L28.8318002,273.592148 C28.6657722,273.569465 28.5001942,273.54571 28.3351191,273.520856 L27.8414558,273.442966 L27.3511278,273.358321 C27.1882764,273.328963 27.0260338,273.298451 26.8644529,273.266761 L26.3817489,273.168129 L25.9033333,273.062264 C25.7446114,273.025752 25.5866573,272.988009 25.4295238,272.949008 L24.9606383,272.828203 C24.6497598,272.745114 24.3423757,272.656887 24.0389096,272.56331 L23.5867018,272.418904 C18.720765,270.810465 14.945345,267.761255 14.0780897,262.363228 C13.6171457,259.483516 12.1519517,269.938829 12.8637967,266.361941 L13.0392374,265.504811 C13.0691876,265.362244 13.0994648,265.219856 13.1300268,265.077696 L13.3164788,264.227885 C13.3480112,264.086843 13.3797442,263.946131 13.4116355,263.8058 L13.6045457,262.968789 L13.8966089,261.735741 L14.5552667,259.006099 L14.7284799,258.275081 L14.8913278,257.570253 L14.9682324,257.228421 C15.0473057,256.873605 15.1295329,256.518789 15.2151956,256.164324 L15.3911851,255.455964 C16.8672051,249.676535 19.3098285,244.05292 23.9460909,240.112097 C28.0468769,236.610063 32.5916263,233.905922 37.2271865,231.324155 L38.5537982,230.589254 L41.8799371,228.75816 C43.4322243,227.899747 44.9815218,227.029911 46.5147499,226.123634 L47.1708257,225.732925 C47.8866821,225.303922 48.622049,224.87416 49.3744333,224.442857 L50.5154611,223.794646 L51.680145,223.143536 L52.8666154,222.48894 L54.0730024,221.830269 L56.5380471,220.498357 L60.3382436,218.455258 L61.6248644,217.759815 L62.9183132,217.056188 L64.2167202,216.343791 C79.819874,207.740056 96.0901186,197.115089 98.4878637,179.903877 C98.5791021,179.242399 98.6749025,178.585482 98.7707028,177.919442 C99.6465914,171.947889 100.755138,165.707182 102.146524,159.23838 C104.926288,146.310099 108.5983,133.58991 113.136189,121.169157 C114.380717,117.805812 113.267455,114.024432 110.399037,111.871964 C109.672075,111.344146 109.035751,110.701659 108.514964,109.969644 C107.512374,108.566466 107.273888,107.282954 107.23724,105.717336 L107.232109,105.350849 C107.231766,105.288872 107.231658,105.226432 107.231752,105.163506 L107.240558,104.383612 L107.263363,103.107108 L107.267856,102.412834 L107.264774,101.926722 L107.255037,101.420719 L107.23711,100.893728 C107.218333,100.445519 107.189425,99.9743047 107.146388,99.4772275 C106.99183,97.731107 106.734625,96.4978631 106.377177,95.3567939 L106.299048,95.1135366 L106.177891,94.7570067 L106.05005,94.4016607 L105.915544,94.0445233 L105.524402,93.0607722 L104.909972,91.5491276 L104.664695,90.9284511 L104.407829,90.258748 L104.139415,89.5329655 L103.93055,88.9475841 L103.642023,88.1066926 L103.418119,87.4268798 L103.109603,86.4492804 L102.870755,85.6588373 L102.625529,84.8160223 L102.458511,84.2235809 L102.202694,83.2868676 L102.028631,82.6290724 L101.85176,81.9435929 L101.672084,81.2295475 L101.514092,80.5865891 L101.296467,79.6653748 C101.273626,79.5657686 101.251243,79.4670534 101.229326,79.369203 L101.103504,78.7922692 C101.083494,78.6977735 101.06397,78.6040904 101.044942,78.5111938 L100.936813,77.963043 C100.392743,75.0876784 100.377347,72.9641972 101.215892,70.7371315 C101.556407,69.8328938 101.922524,69.219013 102.281202,68.701807 L102.495251,68.4015349 L102.809508,67.9742938 L103.012155,67.6913533 C103.377433,67.1669112 103.705723,66.5953969 103.953044,65.7190195 C104.622155,63.3427856 103.967477,61.2857932 103.025591,59.2528941 L102.82696,58.8325412 L102.622173,58.4122951 L102.09666,57.3583343 C101.604094,56.3704307 101.119565,55.3667948 100.7597,54.3142195 C99.8995593,51.8008516 99.9324369,49.3847546 100.638554,46.41966 L100.758926,45.9339195 C100.77996,45.8521267 100.801477,45.7699073 100.823473,45.6872487 L100.961158,45.1859232 L101.110126,44.6734421 L101.270167,44.1491931 L101.441073,43.6125636 L101.622637,43.0629414 L101.814649,42.4997139 L102.016902,41.9222687 L102.339027,41.0281033 L102.802425,39.7804049 L103.433809,38.1247317 L104.409236,35.6103475 C105.800414,32.038247 107.410794,28.5554394 109.231185,25.1817984 C114.27074,15.8485682 123.492434,9.50950303 134.011535,8.14758912 C139.780486,7.3849589 145.587968,6.94935968 151.406136,6.84288 L153.901506,6.84288 Z"/>
        <path fill="#FFF" d="M145.21539 252.079636L141.648569 249.77469C140.324485 248.721762 135.049842 252.834187 134.216802 251.357739L94.08 275.357241C94.6167677 277.192561 95.5829494 278.366626 96.6940585 279.135841 101.871879 282.672423 136.712568 268.155176 148.958049 259.136762 153.608931 255.711532 145.55038 252.235385 145.21539 252.079636zM280.468838 144.922252C284.447711 142.828728 290.468914 141.290515 295.918296 141.451574 300.365147 146.760794 303.765117 153.495551 305.573466 160.39882 304.157555 161.538967 302.277348 161.955183 299.975453 161.15437L299.758417 161.075713C287.796415 156.561663 276.515365 160.720745 266.013325 169.049518L265.69532 169.303176C265.126865 169.755373 264.571042 170.21385 264.021536 170.684888 260.96614 173.288124 257.237008 169.284229 259.382881 165.817299L259.454946 165.704446 259.625482 165.453226C265.196343 157.05619 272.04307 149.318606 280.468838 144.922252z"/>
        <path fill="#000" d="M111.315983 49.323479C111.710601 50.4476606 111.737759 51.6681641 111.393535 52.8087859 110.94344 54.1034728 110.19486 55.2740085 109.208376 56.225664 108.373544 57.138048 105.198448 59.5649894 105.198448 59.5649894 105.198448 59.5649894 106.434728 54.5468774 105.198448 52.9456435 104.194826 51.609001 102.342686 52.8772147 102.059847 50.012329 101.959485 48.985897 102.005104 48.643753 102.598154 47.9685888 104.089901 46.6000128 106.147327 45.8701056 108.095267 46.7916134 109.450157 47.443968 110.741181 48.0415795 111.315983 49.323479zM137.551585 46.5954509C136.570772 45.7378099 134.358241 45.3272371 132.113776 44.9075405 131.703203 44.8299878 131.29263 44.7706829 130.877496 44.7250637 134.207697 46.244183 136.3518 48.1054464 136.201256 50.1309389 136.765512 49.826333 137.267023 49.4176939 137.679318 48.926592 138.270036 48.2414541 138.213625 47.2119445 137.551585 46.5954509L137.551585 46.5954509z"/>
        <path fill="#FFF" d="M137.560709,37.863936 L138.331673,33.2107776 C138.43888,32.8087499 138.43888,32.3856488 138.331673,31.9836211 C137.984967,31.0712371 136.766934,30.966313 135.799807,31.0301798 C126.667768,31.6236042 115.343491,32.9320709 107.20669,37.12 C115.691861,28.8446771 130.603781,27.4490726 142.464773,26.8149658 C142.96638,25.2792266 142.58836,23.5921395 141.479398,22.4172749 C143.199242,20.7886694 155.97718,11.8792397 190.916925,15.1820698 C190.76182,15.1820698 190.460733,14.995031 190.301066,14.9357261 L189.566597,14.6483251 C189.110405,14.4658483 188.626841,14.2833715 188.152401,14.1100186 C187.208084,13.7541888 186.254643,13.4166067 185.301201,13.0881485 C183.394319,12.431232 181.464627,11.8244966 179.525811,11.2633805 C167.851478,7.93218454 155.722914,6.47250709 143.591567,6.93868032 C142.597059,6.91627855 141.602367,6.97425142 140.617195,7.11203328 C140.32067,7.17590016 140.056079,7.33556736 139.754992,7.40399616 C139.2988,7.49979648 138.842608,7.52260608 138.386416,7.57734912 C136.525153,7.81000704 134.668451,8.06091264 132.820874,8.38480896 C129.171338,9.02347776 125.553735,9.9449856 122.218972,11.578153 C121.156233,12.091965 120.130384,12.6788176 119.148799,13.3344922 C113.77942,16.9475328 110.125322,22.6636186 107.716628,28.6716672 C105.307934,34.6797158 103.975853,41.05728 102.338124,47.3253581 C103.629148,45.7560576 106.24769,45.8062387 107.812428,47.0972621 C109.377167,48.3882854 109.983902,50.5688832 109.86073,52.5943757 C109.737558,54.6198682 108.984842,56.567808 108.223001,58.4381952 L103.008726,71.6677632 C105.835669,66.9881371 108.1425,62.013459 109.888102,56.8323994 C111.790422,51.1938662 113.273046,44.9394739 117.8669,41.1576422 C123.163289,36.8055706 130.758886,37.179648 137.560709,37.863936 Z"/>
        <path fill="#000" d="M114.107417 117.12C111.534603 115.43691 99.7848724 154.705705 97.467417 163.2 97.0810521 165.406097 97.408363 169.452168 96.362009 171.432392 96.4669332 183.589908 99.8016967 193.165379 106.58071 198.457206 109.114914 200.40195 112.038625 201.777448 115.152557 202.489943L129.62753 138.942397C120.87227 140.779272 115.058899 140.758473 112.187417 138.88 110.725162 137.923418 116.721856 126.576607 117.947417 120.96 118.87821 116.694281 115.217976 117.846508 114.107417 117.12zM239.031495 99.5593421C234.929417 103.573832 230.443407 107.243805 225.906596 110.85597L222.013229 113.944641C216.502016 118.319149 211.056238 122.729203 206.272348 127.688141 202.781601 131.236205 199.727756 135.189051 197.175879 139.462456 194.122305 144.69197 192.052271 150.372273 190.152626 156.137493L189.638154 157.711657 188.364885 161.654664C186.831989 166.38557 185.239955 171.095392 183.143413 175.583739 178.919075 184.625464 172.486768 192.814111 163.983349 198.042071 155.790141 203.082993 144.686428 205.628544 135.348177 202.4352 137.144947 193.331261 140.131931 184.406206 143.350857 175.539879L144.069602 173.570502 145.156926 170.619421 146.470073 167.071528 147.539209 164.170413C149.312512 159.335918 165.718418 105.964512 169.147417 103.04L145.489325 193.45278C148.760922 194.338213 152.187116 194.493949 155.525549 193.908972 160.388556 193.005711 164.932229 190.391731 169.04708 186.340746 169.688588 183.079278 176.5487 161.285695 189.627417 120.96L229.798169 84.678359C233.194839 89.4335755 236.279105 94.4043636 239.031495 99.5593421z"/>
        <path fill="#FFF" d="M162.217886,132.847672 C157.241338,148.23959 153.672396,159.83447 151.51106,167.632312 C149.144944,176.169185 146.958264,184.753198 144.951019,193.384351 C147.063188,192.928159 153.866301,189.627607 154.427417,187.52 L160.827417,153.6 C160.869923,153.440875 161.333413,146.523433 162.217886,132.847672 Z"/>
        <path fill="#FFF" d="M210.899906,70.3882956 C197.343895,111.342302 189.896808,134.696356 188.558645,140.450458 C190.670814,139.994266 197.473927,136.693714 198.035043,134.586107 L209.509437,91.1406232 C209.551943,90.9814987 210.015432,84.0640561 210.899906,70.3882956 Z" transform="rotate(38 199.73 105.42)"/>
        <path fill="#000" d="M38.6212076.315492206C31.3761662 5.26195794 25.9944776 9.04772923 22.4761418 11.6728061 18.6243847 14.5466908 14.83274 17.5001532 11.1012076 20.5331933 12.1465204 21.0367977 16.1250333 21.8744315 17.0662267 21.1572947L31.1017416 8.74502015C31.1728617 8.69092309 33.6793503 5.88108045 38.6212076.315492206zM30.9412076 27.8354922C23.6961662 32.7819579 18.3144776 36.5677292 14.7961418 39.1928061 10.9443847 42.0666908 7.15274001 45.0201532 3.4212076 48.0531933 4.46652037 48.5567977 8.44503328 49.3944315 9.38622668 48.6772947L23.4217416 36.2650202C23.4928617 36.2109231 25.9993503 33.4010804 30.9412076 27.8354922zM35.4212076 14.3954922C28.1761662 19.3419579 22.7944776 23.1277292 19.2761418 25.7528061 15.4243847 28.6266908 11.63274 31.5801532 7.9012076 34.6131933 8.94652037 35.1167977 12.9250333 35.9544315 13.8662267 35.2372947L27.9017416 22.8250202C27.9728617 22.7709231 30.4793503 19.9610804 35.4212076 14.3954922zM27.7412076 41.9154922C20.4961662 46.8619579 15.1144776 50.6477292 11.5961418 53.2728061 7.74438474 56.1466908 3.95274001 59.1001532.221207598 62.1331933 1.26652037 62.6367977 5.24503328 63.4744315 6.18622668 62.7572947L20.2217416 50.3450202C20.2928617 50.2909231 22.7993503 47.4810804 27.7412076 41.9154922z" transform="translate(162.025 112.325)"/>
        <path fill="#000" d="M190.267417,22.4 C190.300182,22.4183286 190.078685,21.9916619 189.602928,21.12 L189.169394,21.1675772 C189.115871,21.5006179 189.056997,21.8336585 188.987417,22.1666991 C189.051644,22.5843215 189.105167,23.0072302 189.147985,23.4195662 C189.28697,24.71039 189.303097,26.0112422 189.196156,27.3050402 C189.401225,27.5621056 189.894963,32.3270921 190.67737,41.6 C191.95737,39.04 193.87737,38.4 195.79737,40.96 L216.193002,85.4761364 L220.987417,82.56 L190.267417,22.4 Z"/>
        <path fill="#FFF" d="M192.59737,21.12 C192.630135,21.1383286 192.408638,20.7116619 191.932881,19.84 L191.499347,19.8875772 C191.445824,20.2206179 191.386949,20.5536585 191.31737,20.8866991 C191.381597,21.3043215 191.43512,21.7272302 191.477938,22.1395662 C191.616923,23.43039 191.63305,24.7312422 191.526108,26.0250402 C191.731178,26.2821056 192.007711,26.6891552 192.35571,27.2461892 L218.522955,84.1961364 L223.31737,81.28 L192.59737,21.12 Z"/>
        <path fill="#000" d="M22.1213229 274.559155C25.3739719 276.055465 28.845593 276.452352 32.2259757 276.954163 37.7002797 277.72969 42.3534381 276.575524 46.4363565 273.683267 52.0429562 269.714396 57.7362324 265.877821 63.4431943 262.018437 67.4987412 259.281285 71.7002695 256.74942 74.6016506 252.812483 73.4246753 252.780549 72.471234 253.469399 71.6090311 254.135439L59.866649 263.195412C56.217113 266.010117 52.5402055 268.838508 48.407106 271.032791 44.2740065 273.227075 39.6299719 274.778127 34.6666029 274.873928 27.0025773 275.010785 19.265561 271.703393 12.1535277 267.898752 15.1358558 270.590132 18.4935568 272.833722 22.1213229 274.559155L22.1213229 274.559155zM124.837514 83.3371546L121.698913 81.9685786 121.698913 81.945769C120.394204 81.3390336 120.271032 80.686679 120.594928 80.0206387 121.228193 78.7962494 121.602445 77.4545333 121.694351 76.0791398L121.694351 76.0791398C121.711053 75.7098067 121.677287 75.3399216 121.593989 74.9797171 120.973567 72.4387277 117.219107 72.0007834 115.964579 71.9232307 115.706736 71.913343 115.45068 71.9698953 115.220986 72.0874598 113.636532 72.9152885 111.743179 72.8964577 110.175503 72.0372787 109.477244 71.6376938 108.697256 71.4021375 107.894543 71.3484288 104.888237 71.2070093 101.653836 70.7371315 102.812564 76.070016 103.770567 80.4859546 107.219379 83.5150694 112.812293 81.088128 113.820477 80.631936 115.157119 80.9786419 116.484638 81.2888525 116.675405 81.3323928 116.812504 81.4995472 116.817877 81.6951456 116.823251 81.890744 116.695536 82.0651735 116.507448 82.1191219 115.79906 82.2980272 115.118929 82.5743785 114.486517 82.9402675 111.95009 84.5369395 106.516843 83.3234688 107.137264 87.529559 107.652761 91.0331136 111.562326 87.6572928 113.916277 88.0633037 114.080818 88.0910887 114.243758 88.127636 114.404403 88.1727898 114.683437 88.2608041 114.889759 88.4975592 114.938795 88.786007 114.987831 89.0744548 114.871335 89.3660889 114.637061 89.5413658 114.473891 89.6585364 114.295957 89.7536387 114.107878 89.8242048 110.946467 91.0057421 105.923793 90.7958938 109.340671 96.6032179 109.5869 97.1194164 109.906502 97.5972833 110.289551 98.021975 110.987143 98.864318 112.131106 99.1906465 113.168122 98.8431206 117.8669 97.2418867 120.681605 93.4965504 123.030993 89.2311552 123.797396 87.9492557 125.047362 84.0989952 124.855761 83.3006592L124.837514 83.3371546z"/>
        <path fill="#C4C3C6" d="M123.432442,131.168886 L116.206361,125.315942 C107.137264,155.000356 104.117273,180.236897 109.422786,188.183762 C110.22107,189.476937 111.495848,190.404347 112.97196,190.765809 C116.443581,175.18229 120.727224,162.107827 124.185159,146.515185 C126.803701,138.112128 125.70884,127.820436 123.432442,131.168886 Z"/>
        <path fill="#000" d="M113.199077,168.126842 L112.32669,166.4 L112.32669,166.4 L112.974471,167.11114 L112.974471,167.11114 L113.905377,168.143834 L113.905377,168.143834 L114.787871,169.135741 L114.787871,169.135741 L115.349589,169.774372 L115.349589,169.774372 L116.152672,170.698387 L116.152672,170.698387 L116.661979,171.291792 L116.661979,171.291792 L117.387243,172.148022 L117.387243,172.148022 L118.066578,172.963632 L118.066578,172.963632 L118.494237,173.484824 L118.494237,173.484824 L118.901907,173.987991 L118.901907,173.987991 L119.28976,174.473145 L119.28976,174.473145 L119.657964,174.940297 L119.657964,174.940297 L120.00669,175.389459 L120.00669,175.389459 L118.973225,179.2 L116.058105,173.911605 L116.058105,173.911605 L114.586915,170.908726 L114.586915,170.908726 L113.199077,168.126842 L113.199077,168.126842 Z M114.971685,155.520928 L114.24669,154.24 L114.24669,154.24 L114.963462,154.954104 L114.963462,154.954104 L115.657031,155.650308 L115.657031,155.650308 L116.654233,156.66108 L116.654233,156.66108 L117.290504,157.312585 L117.290504,157.312585 L117.90414,157.946231 L117.90414,157.946231 L118.782509,158.863234 L118.782509,158.863234 L119.340268,159.452277 L119.340268,159.452277 L119.875961,160.023497 L119.875961,160.023497 L120.638482,160.846934 L120.638482,160.846934 L121.11972,161.373647 L121.11972,161.373647 L121.57946,161.882576 L121.57946,161.882576 L122.017864,162.373732 L122.017864,162.373732 L122.435096,162.847126 L122.435096,162.847126 L123.021599,163.523938 C123.08416,163.596922 123.145856,163.669167 123.20669,163.740673 L122.143031,167.68 L118.515095,161.898861 L118.515095,161.898861 L116.213863,157.733204 L116.213863,157.733204 L114.971685,155.520928 L114.971685,155.520928 Z M117.196976,144.491987 L116.16669,142.72 L116.16669,142.72 L117.223919,143.759261 L117.223919,143.759261 L118.232896,144.76115 L118.232896,144.76115 L119.194065,145.725701 L119.194065,145.725701 L120.107872,146.652945 L120.107872,146.652945 L120.974763,147.542916 L120.974763,147.542916 L121.79518,148.395644 L121.79518,148.395644 L122.569571,149.211164 L122.569571,149.211164 L123.298379,149.989506 L123.298379,149.989506 L123.98205,150.730704 L123.98205,150.730704 L124.412975,151.204216 L124.412975,151.204216 L125.022406,151.883579 L125.022406,151.883579 L125.404249,152.315897 L125.404249,152.315897 L125.76669,152.731755 L125.76669,152.731755 L124.750065,156.8 L120.674281,150.57068 L120.674281,150.57068 L118.848208,147.359037 L118.848208,147.359037 L117.196976,144.491987 L117.196976,144.491987 Z M119.218073,132.269642 L118.08669,130.56 L118.08669,130.56 L119.174577,131.509735 L119.174577,131.509735 L120.217013,132.42778 L120.217013,132.42778 L120.886898,133.022218 L120.886898,133.022218 L121.854383,133.887504 L121.854383,133.887504 L122.777377,134.721169 L122.777377,134.721169 L123.939453,135.783577 L123.939453,135.783577 L124.760038,136.543556 L124.760038,136.543556 L125.537334,137.271998 L125.537334,137.271998 L126.031661,137.740118 L126.031661,137.740118 L126.963502,138.634371 L126.963502,138.634371 L127.613093,139.268353 L127.613093,139.268353 L128.220838,139.870899 L128.220838,139.870899 L128.787095,140.442034 C128.847721,140.503749 128.907585,140.564883 128.96669,140.625436 L127.927239,144.64 L123.112843,138.239927 L123.112843,138.239927 L120.930146,134.877507 L120.930146,134.877507 L119.218073,132.269642 L119.218073,132.269642 Z"/>
        <path fill="#FFF" d="M124.947 120.89088C111.717432 121.803264 106.243128 165.141504 105.002285 172.828339 104.089901 173.339274 103.565281 173.133988 103.25507 172.563748 101.270635 168.914212 106.93654 147.190349 116.94083 118.851702 118.469073 119.317018 123.409633 120.46206 124.947 120.89088zM153.974497 210.737894C159.033666 207.33014 165.798993 208.151286 171.537889 206.075612 175.830655 204.524559 179.407201 201.376835 182.148915 197.73186 184.890629 194.086886 190.307906 184.640471 192.187417 180.48 198.019465 167.56612 201.787417 156.8 206.746787 141.433206 208.927456 143.286055 207.915643 151.90449 204.258901 162.807735 201.429204 171.244994 191.426612 194.450642 179.387417 206.08 169.310017 215.814347 156.99499 215.053206 154.047487 213.621028 153.545676 213.379246 153.00737 213.041664 152.88876 212.494234 152.820746 212.084754 152.953053 211.667478 153.244589 211.372001 153.458068 211.128568 153.703614 210.91525 153.974497 210.737894z"/>
        <path fill="#000" d="M142.738488,30.564864 C142.806917,30.4827494 142.884378,30.3948869 142.971191,30.3017236 L143.157379,30.1084622 C143.19052,30.0751182 143.224724,30.0412184 143.260002,30.0067793 L143.484658,29.7938064 C143.524282,29.7572766 143.565003,29.7202406 143.606834,29.6827152 L143.871234,29.4518203 C147.993522,25.9436719 161.094194,18.8202922 191.496289,19.7622374 C192.153303,19.7808761 192.333175,20.4230127 192.351903,21.2189032 L192.353252,21.4394234 C192.35289,21.4766944 192.352255,21.514195 192.351376,21.5518808 L192.343411,21.7798668 C192.341674,21.8181175 192.339753,21.8564653 192.337678,21.894866 L192.322407,22.1432905 L192.260695,22.9862051 C192.252474,23.1128637 192.245964,23.2346951 192.242537,23.3496585 L192.239882,23.5166976 L192.194262,34.501801 L192.186879,35.0209056 L192.176533,35.5429428 C192.125461,37.634909 191.935536,39.7603913 190.793753,41.4769766 C190.757258,41.5317197 190.7162,41.5819008 190.675143,41.6366438 C190.46752,41.5173663 190.261026,41.3965691 190.055456,41.2746233 L189.441313,40.9057115 L188.831485,40.5321356 L187.015591,39.4056956 L186.410726,39.0357353 C186.309796,38.9745527 186.20879,38.9136398 186.107682,38.8530429 L185.499606,38.4936257 C183.060764,37.0740969 180.533661,35.8900711 177.564185,35.582976 C174.133741,35.2273263 173.160088,40.4783126 176.51528,40.9629101 L176.651801,40.9797274 C179.432084,41.2551014 181.80941,42.4884033 184.111935,43.9074998 L184.686198,44.2656977 L185.544241,44.8116452 L186.401681,45.3599302 C186.497061,45.4206455 186.592501,45.4812365 186.688025,45.5416474 C188.175268,48.4790321 188.583755,51.8454159 187.842191,55.0532506 C186.868107,59.4922268 184.094303,63.371772 180.839995,66.5227557 L180.588738,66.7636992 C180.21674,67.1029554 180.030101,67.6000938 180.086927,68.1003418 C180.283089,69.341184 181.752028,69.2590694 182.75565,68.884992 C188.27123,66.7493873 192.049897,61.6115387 192.445168,55.710167 C193.779464,55.7328463 194.565679,57.0489993 194.943941,58.4026456 L195.016427,58.6828334 C195.027553,58.7294832 195.038206,58.7760746 195.048391,58.822556 L195.103931,59.0997139 C195.112268,59.1455498 195.120148,59.1911727 195.127577,59.2365312 C195.91831,64.0478362 195.838014,73.3156591 194.88669,87.04 C181.522077,100.10396 174.033253,107.905703 172.420217,110.44523 L168.620074,116.428165 L167.269049,118.539634 L166.364266,119.943885 L165.455301,121.344629 L164.54138,122.741189 L163.62173,124.132885 L162.695577,125.51904 C156.652771,134.509572 150.148802,143.105974 142.227553,150.470369 L141.952756,150.720362 L141.671144,150.969381 L141.383039,151.215964 L141.088764,151.458651 L140.788639,151.69598 C139.02148,153.061934 136.972221,154.079862 134.928481,153.444741 C133.614648,153.043292 132.601901,152.030546 131.735137,150.981304 C126.391275,144.501311 124.795975,135.687307 124.843158,127.271975 L124.846637,126.871557 L124.846637,125.09697 C124.846637,124.481111 124.837514,123.878938 124.810142,123.272202 C124.897217,122.593051 124.794585,121.903051 124.513617,121.278643 C123.18838,120.46434 121.615159,119.957397 119.995659,119.513323 L119.299343,119.326141 C118.678922,119.161912 118.058501,119.002245 117.442641,118.833454 C116.266804,118.644503 115.122967,118.292907 114.044011,117.788774 C113.480486,117.52877 112.938896,117.223649 112.424529,116.87639 C111.858158,116.656692 111.325326,116.358798 110.841543,115.991378 C110.40799,115.6575 110.026674,115.260809 109.710187,114.814403 C109.369137,114.473424 109.106102,114.06253 108.939222,113.610056 C108.774169,113.155342 108.690772,112.675037 108.692879,112.191299 C108.370125,109.380754 109.673984,107.778306 111.569045,106.630015 L111.850471,106.465128 C111.898039,106.438157 119.227417,106.24 125.179089,99.2445696 C126.318762,97.8596199 127.28116,96.3378676 128.043975,94.714583 C128.427664,94.2170875 128.752218,93.6766744 129.011102,93.1042253 C129.440806,92.1506368 129.679108,91.1013478 129.871289,90.0367211 L129.975485,89.4367807 L130.143131,88.4383233 L130.238949,87.9014607 L130.307474,87.547098 L130.381185,87.1963857 L130.461346,86.8500212 C130.922272,84.9582518 131.733013,83.295414 133.837613,82.3837133 C134.521816,82.1087433 135.129167,81.6720144 135.607638,81.1109376 C136.670834,79.8110587 136.534371,78.9342704 136.101486,78.1630385 L136.004516,77.9992744 L135.900448,77.8380474 L135.791256,77.678663 L135.404569,77.1358711 L135.282704,76.9553344 C134.847864,76.2892449 134.564195,75.5710757 135.06477,74.5782682 C135.348694,74.0406692 135.772713,73.5898542 136.291926,73.273559 C137.980539,72.1955423 139.856703,71.5227535 141.757609,70.9040102 L143.660733,70.2902752 C145.243493,69.772164 146.805748,69.210292 148.253281,68.4014285 C154.740331,64.7747021 155.844884,55.9747584 152.820331,49.1318784 C152.670135,48.7707337 152.412019,48.4648185 152.0813,48.2559898 C151.354651,47.8160903 150.688518,48.0977191 150.104512,48.543936 L149.931796,48.6821818 L149.764137,48.8269613 L149.601665,48.9749327 L149.44451,49.1227546 C146.176023,52.1944834 142.099532,54.2707086 137.693004,55.1079936 L137.514278,55.1385906 C136.941012,55.2272138 136.312263,55.2185659 136.023341,54.5788109 C135.845107,54.1334184 135.9238,53.6262885 136.228628,53.2558541 C138.15832,51.549696 139.983088,50.18112 142.264048,49.268736 C142.181933,49.1090688 142.099819,48.9585254 142.008581,48.812544 C141.917342,48.6665626 141.826104,48.529705 141.725741,48.3974093 C141.20877,47.8500317 140.608263,47.3881026 139.946593,47.0288333 L139.67085,46.8919757 C139.623203,46.8691661 139.574036,46.8463565 139.522334,46.8235469 C138.383928,46.1330381 137.086467,45.8900027 135.764425,45.7213856 L134.439169,45.5637578 C134.350937,45.5530607 134.262794,45.5421418 134.174782,45.5308903 L133.911173,45.4960282 L133.386552,45.4184755 C132.069159,45.0965849 130.768874,44.7083266 129.490672,44.2551859 C130.316456,43.8845298 131.229126,43.7564905 132.122431,43.8837088 L132.328186,43.9176038 L132.857369,43.9176038 C135.290752,43.801432 137.724745,44.1339025 140.037831,44.8984166 C140.170127,44.9394739 140.297861,44.9850931 140.425594,45.0352742 C140.96029,45.2331812 141.480653,45.4674854 141.983046,45.7364876 L142.282296,45.902039 L142.69743,46.1118874 C143.894803,46.7932667 145.131761,47.4026051 146.401709,47.9366554 C143.664557,44.8026163 139.919221,43.0234675 135.708569,42.5216563 C135.530654,42.4988467 135.357301,42.4669133 135.174824,42.4669133 L134.027706,42.4688378 C133.418485,42.4720454 132.848245,42.480599 132.278005,42.5034086 C132.1229,42.5307802 131.972357,42.5307802 131.821813,42.5307802 C130.430428,42.4623514 129.061852,42.4623514 127.542732,43.1831347 C127.439498,43.2118753 127.337396,43.2444704 127.23664,43.2808473 L127.08654,43.33824 C126.517529,43.5407974 126.01121,43.8883025 125.617602,44.3464243 C125.493374,44.4674255 125.376097,44.595364 125.266334,44.7296256 C123.9569,46.3269493 124.611507,48.4389146 125.753447,50.4198188 L125.937588,50.7314099 C125.968881,50.7831289 126.000458,50.8347335 126.032292,50.8862121 L126.226161,51.1934766 C126.258914,51.2444039 126.29187,51.2951815 126.325002,51.3457978 L126.525692,51.6474649 L126.729314,51.9446944 L126.934577,52.2369214 L127.242723,52.6646467 L127.547294,53.0779392 C127.530829,53.3544936 127.491153,53.6291753 127.428684,53.8990848 C127.345858,54.2371777 127.240703,54.569406 127.113912,54.8935834 L126.993038,55.2026058 L126.877785,55.4819773 C126.405507,56.5877318 126.008983,56.9865608 124.80558,57.4938778 C121.534684,58.447319 117.926205,58.0321843 115.645245,55.2950323 L115.200486,54.7564448 L114.90972,54.3970725 C113.664047,52.8378284 112.627167,51.2456661 112.684559,49.3326029 C112.701355,48.9674609 112.756399,48.6050872 112.848788,48.2514278 C112.949485,47.8630596 113.080667,47.4832416 113.241113,47.1155098 C115.328316,42.5111224 119.324051,40.2286363 124.338896,39.0504923 L124.618541,38.9861683 C125.079295,38.8766822 125.549173,38.7671962 126.019051,38.6759578 L126.847094,38.5156701 C127.034169,38.4807076 127.22796,38.446037 127.437808,38.4113664 C127.962429,38.3246899 128.482488,38.2562611 128.997985,38.1969562 C130.312664,38.0530081 131.634902,37.9918267 132.956884,38.0137034 L133.523409,38.0281651 L134.919357,38.0281651 C136.246876,38.0509747 137.569832,38.1102797 138.883665,38.1969562 C139.330733,38.2334515 139.768678,38.2745088 140.20206,38.3292518 C142.231645,38.5848675 144.228004,39.054482 146.157868,39.7299605 L146.638929,39.9031142 L147.647114,40.3228109 L152.665226,42.3984845 C153.038374,42.5719607 153.469053,42.5719607 153.842201,42.3984845 C154.693759,41.9258696 154.353136,40.7697371 153.832891,39.9686099 L153.719029,39.802752 C153.046845,38.8642646 152.317055,37.9684057 151.533869,37.120343 C151.27384,36.8420659 151.004687,36.5637888 150.735533,36.2900736 C150.280871,35.8334037 149.537158,35.4228847 148.676035,35.0333996 L148.236484,34.8402936 C148.161859,34.8083627 148.086619,34.7765487 148.01086,34.7448372 L147.550896,34.5556815 L146.8481,34.2750326 C144.220978,32.7583442 139.92075,32.2133333 133.947417,32.64 C124.987417,33.28 116.160976,33.0488678 104.64669,38.4 C114.429044,30.5122065 127.114672,27.9153615 142.703574,30.609465 L142.738488,30.564864 Z"/>
        <path fill="#FFF" d="M140.015021 58.9445683C139.435658 58.7438438 138.787865 58.6526054 138.226749 58.4883763 136.818636 58.0778035 135.412044 57.6550656 134.006973 57.2201626 133.687638 57.1198003 132.017976 56.3077786 131.726013 56.4491981 133.83362 55.5368141 142.086133 49.8024806 142.26861 49.2915456 142.045076 47.7404928 137.843548 50.2039296 135.982284 51.7914778 132.767736 54.6237605 129.094666 56.8883834 125.120353 58.4883763 122.839393 59.4007603 116.908897 63.465431 119.778344 66.4215552 121.603112 68.3329997 125.676907 67.7125786 127.9898 67.4297395 131.162945 67.0631387 134.293268 66.3909367 137.337174 65.4224947 138.600826 65.00736 139.882726 64.5101107 140.854415 63.5977267 141.778759 62.6110686 141.981588 61.1492375 141.360788 59.9481907 141.053728 59.4569091 140.573475 59.0987543 140.015021 58.9445683L140.015021 58.9445683zM176.045066 35.2818893C181.186349 34.3695053 187.376875 36.2398925 190.59759 45.1173888 186.373253 39.7616947 182.094172 37.9323648 177.194669 37.863936 174.827033 38.8675584 173.681991 36.49536 176.045066 35.2818893z"/>
        <path fill="#C4C3C6" d="M181.309521,49.2003072 C183.772958,52.2659174 184.329512,57.1517338 178.116177,62.9362483 C181.108797,57.9181363 181.177226,54.3233434 179.598801,51.0205133 C177.938262,49.8480998 179.516687,48.1191322 181.309521,49.2003072 Z"/>
        <path fill="#000" d="M223.349254,218.260798 C227.863434,227.566234 230.696639,237.800742 216.96,259.84 C223.576178,240.72077 219.56714,231.121788 219.56714,225.195864 C215.895967,220.728916 219.385598,214.141472 223.349254,218.260798 Z" transform="scale(1 -1) rotate(47 770.295 0)"/>
        <path fill="#FFF" d="M3.86645813,3.81740876 L30.9289335,18.9203652 C23.2211957,22.4222733 18.1335473,24.2641337 15.6659882,24.4459466 C11.9646494,24.7186658 6.8467968,23.5294447 4.14598815,19.3259466 C2.34544905,16.5236145 2.25227238,11.3541019 3.86645813,3.81740876 Z" transform="rotate(-21 587.222 -182.017)"/>
        <path fill="#C4C3C6" d="M159.580716,108.233495 C157.786053,115.290834 148.824131,122.890834 137.61707,127.459747 L137.290366,127.484264 L156.200236,103.164264 C157.590367,103.917441 160.263409,105.54887 159.580716,108.233495 Z" transform="rotate(-8 148.49 115.324)"/>
        <path fill="#000" d="M270.914754,205.519058 C270.72764,204.914288 270.266766,203.202708 269.627417,203.52 C265.763471,205.066491 260.4269,208.976993 256.708935,210.842819 C252.99097,212.708644 248.260259,213.579971 244.847943,211.216896 C240.441128,208.206029 240.395509,201.823903 240.938378,196.513828 C242.306954,183.28426 245.085163,167.62775 256.448906,159.07415 C246.868874,162.189942 239.852641,171.062876 236.376458,180.223212 C232.690426,189.903606 232.202301,200.482698 232.27073,210.838257 C232.339158,221.193815 232.854655,231.640612 231.075507,241.859313 C230.263485,246.521595 228.899471,251.243182 225.934223,254.933775 C221.947105,259.901706 215.683589,262.319524 209.757654,264.655227 C178.280406,277.045402 148.085058,292.907197 121.119549,313.308104 C115.0157,317.924767 108.95747,322.888136 105.006847,329.466424 C102.839935,333.065779 127.352402,325.153833 132.48,323.84 C152.315228,318.762583 156.16,315.52 175.36,304 C194.56,292.48 199.347353,283.938463 215.884313,271.890432 C224.789181,265.389696 234.711357,259.523067 240.422881,250.09814 C244.774952,242.92224 246.303196,234.222659 251.225507,227.420836 C256.07939,220.710252 263.716044,216.57259 269.331768,210.486989 C270.531553,209.173156 271.38007,206.924129 270.914754,205.519058 Z"/>
        <g transform="rotate(-6 142.734 -998.218)">
          <path fill="#000" d="M23.3681456,10.0502632 C23.324663,9.97687838 23.2736536,9.90804424 23.2159138,9.84483524 C23.1204154,9.58669759 22.91743,9.38063246 22.657827,9.27828105 C22.5399229,9.20500922 22.4041881,9.16410994 22.2647745,9.15984744 C20.4265313,9.04689405 18.5924913,8.89038379 16.7626544,8.69031664 L20.9239982,2.69997594 C21.1751231,2.29857005 21.0524876,1.77334541 20.6482037,1.51880071 C20.2439198,1.26425602 19.7068058,1.37408996 19.4402904,1.76580575 L13.9816287,10.4623838 L19.7365437,10.8200146 L17.0379721,14.0295513 L11.2635765,14.1074799 L5.98379739,20.9342331 L1.53755008,20.9319488 C1.49583901,22.0178329 1.47501491,22.703348 1.4750778,22.988494 C1.47511961,23.0693893 1.47516141,23.1502847 1.47520322,23.2311801 C1.42015784,23.3958084 1.39253593,23.5680778 1.3930655,23.7414009 C1.3710331,24.5969955 2.03909455,25.3186468 2.90882953,25.3787548 L6.13522285,25.4986441 C6.54564756,25.4909403 6.93393298,25.3151654 7.20619037,25.0138223 C7.24920525,24.9657117 7.2873868,24.9136339 7.32020424,24.8583128 C7.42583184,24.7674664 7.50642783,24.6519455 7.55455768,24.5224064 C8.02722668,23.2924517 8.62549216,22.1127302 9.34021431,21.0012647 C9.44789604,20.8581975 9.56191634,20.7151335 9.66325628,20.5658403 C9.68603356,20.5218284 9.7050897,20.4760511 9.72023267,20.4289698 C10.4549794,19.4088213 11.3165587,18.5069697 12.0449636,17.4805952 C13.6423348,17.5809794 15.2397209,17.710403 16.837122,17.8688659 C17.1057453,17.9785339 17.4015573,18.0068582 17.6865322,17.9501977 L17.7625951,17.9502367 C18.1184233,18.000919 18.4532802,17.7727967 18.529292,17.4279222 C18.5934417,17.3521455 18.6506678,17.2709662 18.7003079,17.185324 C18.9934881,16.6568918 19.3148223,16.1440095 19.6629763,15.648807 L19.7136495,15.5803831 L19.7579841,15.5119559 L19.7580066,15.555515 L19.998705,15.2320572 C20.1823982,14.9894656 20.3724363,14.7593226 20.5624776,14.5354023 C20.9425603,14.0875618 21.335333,13.6646187 21.7471471,13.2914671 C21.9625523,13.0862281 22.1779608,12.8872117 22.3806825,12.6695207 L22.5010607,12.5637963 C22.6087713,12.4767336 22.7101434,12.3896676 22.8241959,12.3088308 C23.5528363,11.7995904 23.7829303,10.8382753 23.3618135,10.0627054 L23.3681456,10.0502632 Z" transform="rotate(-5 12.482 13.44)"/>
          <path fill="#C4C3C6" d="M19.3793659,8.70391363 C17.828349,8.61030935 17.5473462,8.34571684 16.003423,8.17993266 L20.5004328,1.47289807 C20.5432162,1.40574326 19.9351427,1.41315598 18.6762121,1.49513622 L14.4719718,1.81917637 L4.86462278,15.600695 L14.3959854,4.42249318 L16.6489129,4.39004882 L6.27282359,19.2067422 L1.83060743,19.1443868 C1.83545214,19.5863804 1.8378999,19.9255091 1.83795073,20.1617729 C1.83798537,20.2288005 1.83802001,20.2958281 1.83805465,20.3628556 C1.79160882,20.4992615 1.7682998,20.6419988 1.76874695,20.7856094 C1.7501504,21.4945304 2.31382159,22.0924753 3.04766001,22.1422859 L5.76992844,22.2416479 C6.11622436,22.2352679 6.44384156,22.0896289 6.6735611,21.8399467 C6.70985528,21.800084 6.74207137,21.7569342 6.76976152,21.7110969 C6.85888552,21.635825 6.92688929,21.5401083 6.96749987,21.4327763 C7.36632399,20.4136747 10.1417354,16.4485866 10.7563351,15.5981678 C11.6548559,15.6536264 13.6440903,15.7387295 16.7240383,15.853477 L20.7181471,9.9761446 C19.9040464,9.13034587 19.457786,8.70626888 19.3793659,8.70391363 Z" transform="rotate(-5 11.243 11.835)"/>
        </g>
        <path fill="#000" d="M125.239 19.16L125.239 19.16 125.239 19.16 125.298 19.069 125.298 19.069z"/>
        <path fill="#FFF" d="M101.913866,71.4077338 C101.954458,71.5499087 102.024389,71.682001 102.119152,71.795497 C102.616401,72.361175 103.551595,72.1513267 104.199388,71.7635635 C107.566085,69.7517568 108.136325,65.518295 109.035023,62.0877312 C109.399976,60.7100314 109.790781,59.3414554 110.207436,57.9820032 C111.033144,55.2448512 111.936404,52.5441946 112.807731,49.8298522 C113.008455,49.2048691 113.154437,48.4019712 112.634378,48.0050842 C112.36644,47.8245406 112.032015,47.7727047 111.721994,47.8636646 C111.095491,48.0699411 110.593688,48.544981 110.353418,49.1592499 C110.118766,49.7675099 109.965379,50.4040666 109.897226,51.0524467 C108.86096,57.664822 106.359304,63.9618244 102.575344,69.4826035 C102.315697,69.8200929 102.10952,70.1955207 101.964047,70.595712 C101.871689,70.8563625 101.854303,71.1376949 101.913866,71.4077338 Z"/>
        <path fill="#FFF" d="M94.0654899,212.568234 L89.2070451,209.88471 C87.4094917,208.666879 85.8991403,207.157601 84.7591731,205.44 L30.08,233.368524 C30.6360478,235.147873 31.8985797,236.697538 33.6428595,237.741673 C43.3734349,243.422792 69.937495,233.766083 99.9731763,214.738906 L99.2706406,213.943788 C97.4767334,213.675577 95.7281971,213.213494 94.0654899,212.568234 L94.0654899,212.568234 Z" transform="rotate(-3 65.027 222.4)"/>
        <path fill="#000" d="M247.867417,112.64 C247.389279,109.408758 220.400829,106.373821 219.707417,111.36 C218.115307,122.7648 212.989219,138.14402 209.467417,149.12 C205.699271,160.85782 194.229216,199.543077 178.107417,215.04 C161.985618,230.536923 136.12067,231.243289 126.907417,228.48 C117.694164,225.716711 112.855715,223.453547 108.679193,214.788879 C108.060402,213.499123 107.556637,212.157276 107.173759,210.778952 C106.717567,215.340872 109.910911,220.358984 106.758625,224.305044 C105.912608,225.730059 104.918698,227.061899 103.793377,228.278477 C101.459143,230.811407 98.492675,232.677259 95.1987194,233.684352 C93.5746759,234.341268 91.8958893,234.952566 90.2946554,235.568425 C88.6934215,236.184284 87.1606164,236.813829 85.81485,237.493555 C78.6416516,241.113308 71.7166403,245.205222 65.0854855,249.74231 C57.2663546,255.088881 49.830425,261.110615 43.9273005,268.514611 C41.7512647,271.251763 39.7622676,274.239821 38.8316359,277.61108 C37.9010042,280.982339 38.1473479,284.818913 40.1545927,287.683799 C40.4331882,288.148004 40.8515821,288.512103 41.3498157,288.723917 C41.8785419,288.8438 42.4303562,288.812177 42.9419258,288.632678 C54.4059252,285.721362 65.4041848,281.214257 75.6143969,275.243443 C77.3114311,274.248945 78.9902177,273.217951 80.6325089,272.150461 C84.0166992,270.126273 87.2284947,267.826903 90.2353505,265.275648 C91.7803207,264.059136 93.3009607,262.804608 94.7972705,261.512064 C97.7716423,258.9361 96.883113,270.070308 97.28,272 C97.6495155,273.309271 122.890399,258.41807 123.964467,258.028657 C125.04108,257.613522 126.122255,257.27594 127.239925,256.961167 C150.4,248.32 173.891148,265.932646 177.12452,267.864156 C173.474984,262.846044 169.369256,258.740316 164.670479,254.730388 C163.488797,253.776328 162.25519,252.888435 160.975324,252.070789 C159.697652,251.250978 158.367239,250.516431 156.992767,249.871944 C155.414157,249.096158 153.795434,248.404813 152.143446,247.800832 C147.16183,245.944131 142.925526,242.703268 144.294102,241.334692 C144.531322,241.079224 144.777666,240.832881 145.028572,240.600223 C151.244194,240.184203 157.378746,238.957292 163.276252,236.950687 C173.951144,233.264655 183.727339,226.595128 190.260008,217.384612 C200.246051,203.301965 201.833599,184.958484 209.502187,169.484452 C208.909137,175.414948 245.481533,147.426181 247.867417,133.12 C249.701309,122.066468 249.53708,123.693532 247.867417,112.64 Z"/>
        <path fill="#FFF" d="M129.887559 42.5125325C135.024281 42.1703885 141.228492 42.936791 144.540446 46.5270221 140.261365 44.3509862 135.968598 43.6028314 131.069096 43.5526502 128.70146 43.9540992 127.542732 42.9915341 129.887559 42.5125325zM103.870929 50.3088538C104.176541 50.0835296 104.541098 49.9519718 104.920171 49.9302144 105.072642 49.9303296 105.224972 49.9394694 105.376363 49.9575859L105.732193 49.9575859 106.051527 49.9575859C107.876295 50.235863 108.816051 52.0788787 109.276805 53.9127706 108.820613 51.6318106 106.357176 51.1254374 104.441169 51.8416589 104.333038 51.8341766 104.226786 51.8095384 104.126397 51.7686682 103.829872 51.6409344 103.606338 51.3444096 103.510538 50.7331123 103.617432 50.5809624 103.738069 50.438947 103.870929 50.3088538zM127.574666 46.3764787C126.348054 48.4399781 126.5035 51.0428031 127.966991 52.9456435 128.569164 53.775913 130.86381 53.2102349 130.247951 52.3708416 128.9407 50.697632 128.808009 48.3891802 129.914931 46.5772032 130.425866 45.6556954 128.071915 45.4686566 127.574666 46.3764787zM119.778344 69.7608806C120.795653 70.4497306 120.234536 73.2644352 119.203542 72.5664614 116.981887 71.0610278 110.567828 74.642135 111.858851 71.8776115 112.178186 71.1887616 117.310346 68.086656 119.778344 69.7608806zM109.910911 99.4954752C110.873477 99.0849024 112.825978 100.781937 111.854289 101.201633 109.751244 102.114017 109.842483 108.3456 108.236687 106.146755 107.8398 105.599324 107.57977 100.494536 109.910911 99.4954752zM215.227417 149.12L215.089117 150.527478C210.817227 171.887852 209.132831 184.123653 210.035932 187.234883 210.234541 187.919102 210.472241 188.597775 210.746893 189.264125 208.932611 194.876931 206.597736 200.327239 203.763292 205.541868L203.496091 206.036332 203.318778 206.372681 203.144043 206.713752 202.973532 207.058994C202.945557 207.116851 202.917827 207.17486 202.890376 207.233007L202.729291 207.583473C202.703093 207.642132 202.677242 207.700908 202.651774 207.759788L202.503819 208.114239C201.837315 209.77336 201.524025 211.496764 202.317163 213.03254 202.899785 214.158683 203.971743 214.916148 205.082006 215.560615L205.452893 215.771603C205.514738 215.806188 205.576546 215.840511 205.638241 215.874616 209.513695 218.025321 213.519194 219.932846 217.631528 221.58614 214.405322 223.318861 210.74876 224.086914 207.098055 223.798671L206.642854 223.762999 206.332072 223.741891 206.017883 223.725412C204.652049 223.667109 203.249315 223.799224 202.577192 224.902656 201.956771 225.924526 202.408401 227.329597 203.238671 228.168991 203.902886 228.840505 204.786074 229.266771 205.680356 229.643987L206.3499 229.920768C209.461873 231.233392 212.412965 232.898739 215.145282 234.884137 218.895156 237.593208 222.197033 240.873534 224.9306 244.605588L223.839033 243.728574 222.74455 242.853392C218.724122 239.65137 214.612239 236.54608 210.049617 234.195287 202.527011 230.322217 194.383984 229.131556 186.400624 232.238223 182.670827 233.685065 179.225566 235.773079 175.848703 237.94824L174.659357 238.71866 172.88137 239.87602C170.907649 241.15749 168.935598 242.412731 166.921226 243.528975 163.895195 245.187887 160.734285 246.558397 157.480364 247.629801 157.053718 247.495579 156.627643 247.364136 156.20301 247.235102L154.934308 246.85486 153.679481 246.486861 150.637394 245.605898 149.472261 245.263316C148.707385 245.035934 147.967426 244.810072 147.25935 244.582779L147.148266 244.554249 146.924576 244.491864 146.699886 244.422605C146.662423 244.410504 146.62497 244.398129 146.587553 244.385484L146.363683 244.306429C146.326511 244.29273 146.289426 244.278773 146.252454 244.264564L146.032185 244.176329C145.995768 244.161135 145.959515 244.145699 145.923453 244.130029L145.709565 244.033231C145.674367 244.016643 145.639409 243.999832 145.60472 243.982803L145.399997 243.878058 145.202928 243.768358C144.11023 243.133202 143.445777 242.272553 144.22186 241.410732L144.294102 241.334692C144.531322 241.079224 144.777666 240.832881 145.028572 240.600223 151.244194 240.184203 157.378746 238.957292 163.276252 236.950687 173.951144 233.264655 183.727339 226.595128 190.260008 217.384612 196.792678 208.174095 214.716268 150.151421 215.227417 149.12zM261.947417 125.44C260.578841 120.303278 254.779163 116.747317 249.82948 115.730009 243.898984 114.511976 237.995859 115.529285 232.621917 117.399672L232.46225 117.458977C230.231471 118.243627 231.253341 121.774553 233.693968 121.728934 234.15016 121.728934 234.565295 121.728934 235.00324 121.728934 240.477544 121.795842 247.325603 125.592864 255.547417 133.12 260.644353 131.129477 262.777686 128.569477 261.947417 125.44z"/>
      </g>
      <g transform="rotate(6 -2259.698 166.759)">
        <path fill="#000" d="M11.0255901,36.1037815 C18.0111091,37.5335446 24.699297,30.5809195 25.964076,20.5746585 C27.228855,10.5683976 22.5912789,2.68888416 15.60576,2.97527273 C8.62024098,3.26166131 1.93205302,10.2142865 0.667274043,18.5043957 C-0.597504937,26.7945049 4.04007113,34.6740183 11.0255901,36.1037815 Z"/>
        <path fill="#C4C3C6" d="M19.0876404,39.6918522 C28.2076235,41.6502438 36.6169577,34.0097599 37.8704141,22.6263537 C39.1238704,11.2429476 35.3837258,-0.208179758 26.2637427,0.33675563 C17.1437596,0.881691017 6.09749006,10.7810626 4.8440337,19.8055645 C3.59057735,28.8300663 9.96765728,37.7334606 19.0876404,39.6918522 Z"/>
        <path fill="#FFF" fill-rule="nonzero" d="M4.89725564,25.7824933 C2.95530549,16.3944322 8.20904053,8.14634535 20.6584607,1.03823288 C6.33848023,16.3909644 9.14094296,23.3048991 7.91154927,25.2349824 C7.09195348,26.5217045 6.08718894,26.7042082 4.89725564,25.7824933 Z"/>
        <path fill="#000" d="M24.8261454,42.411681 C32.9501708,43.0856272 39.7783864,36.1459595 40.0773919,27.0610115 C40.3763974,18.0670837 34.0329654,11.4853801 25.90894,12.2108529 C17.7849146,12.8621993 10.956699,19.4255821 10.6576935,27.0200909 C10.358688,34.7056199 16.70212,41.6636084 24.8261454,42.411681 Z"/>
        <path fill="#C4C3C6" d="M28.2722321,41.5412884 C35.328439,42.3531707 41.3934975,35.154132 41.8189195,25.5896099 C42.2443415,16.1077946 36.8690284,9.02464204 29.8128216,9.64112136 C22.7566148,10.1991164 16.6915562,17.0764528 16.2661342,25.1299065 C15.8407122,33.266067 21.2160253,40.6709219 28.2722321,41.5412884 Z"/>
        <path fill="#FFF" fill-rule="nonzero" d="M16.846415,30.928391 C14.8140382,23.2448981 17.0058583,12.6769289 32.6076201,4.14097157 C23.363251,13.0243569 20.4547703,20.1676745 20.7195823,27.8197733 C20.9843944,35.4718721 18.8787919,38.6118839 16.846415,30.928391 Z"/>
        <path fill="#000" d="M40.6182171,44.3077308 C48.0349878,44.9152798 54.2858208,38.0993912 54.5798434,29.1982351 C54.8738659,20.3712054 49.0997376,13.6733172 41.6829668,14.1238655 C34.266196,14.5223791 28.015363,21.0508107 27.7213405,28.8197431 C27.427318,36.6628019 33.2014463,43.6481471 40.6182171,44.3077308 Z"/>
        <path fill="#C4C3C6" d="M42.2037405,39.6622615 C48.2077931,40.0394071 53.2679912,33.8646837 53.5060094,25.9688776 C53.7440277,18.1368331 49.0697333,12.2994338 43.0656808,12.8324347 C37.0616283,13.3206768 32.0014301,19.2481375 31.7634119,26.1700355 C31.5253937,33.1556951 36.199688,39.240357 42.2037405,39.6622615 Z"/>
        <path fill="#FFF" fill-rule="nonzero" d="M32.3757853,32.5044312 C30.4414308,25.0424608 32.95998,15.0595332 47.8092625,7.07576644 C39.010753,15.488851 36.2425495,22.3671802 36.4945896,29.771896 C36.7466297,37.1766118 34.6317817,35.972204 32.3757853,32.5044312 Z"/>
      </g>
      <g transform="rotate(6 -2593.673 763.271)">
        <path fill="#000" d="M12.6382574,41.3514932 C20.6364464,42.9991195 28.2942013,34.9870735 29.7423315,23.4560876 C31.1904618,11.9251016 25.88059,2.84493087 17.8824009,3.1749585 C9.8842119,3.50498614 2.22645707,11.5170321 0.778326818,21.0703641 C-0.669803438,30.6236961 4.64006835,39.7038669 12.6382574,41.3514932 Z"/>
        <path fill="#C4C3C6" d="M21.685826,45.3902584 C32.1651631,47.6329326 41.8279276,38.8833462 43.2682144,25.8475102 C44.7085013,12.8116741 40.4108797,-0.301713675 29.9315426,0.322325236 C19.4522054,0.946364147 6.75946447,12.2827413 5.31917762,22.6172515 C3.87889077,32.9517617 11.2064888,43.1475842 21.685826,45.3902584 Z"/>
        <path fill="#FFF" fill-rule="nonzero" d="M5.4112529,29.4601962 C3.18010333,18.7823776 9.21623599,9.40114608 23.5196509,1.31650171 C7.06710779,18.7784334 10.2869194,26.6422234 8.87444169,28.8374667 C7.93278992,30.3009623 6.77839365,30.5085388 5.4112529,29.4601962 Z"/>
        <path fill="#000" d="M28.4485666,48.4405936 C37.6322474,49.2092751 45.3510999,41.2941118 45.6891061,30.9321102 C46.0271123,20.6739234 38.8562761,13.1670425 29.6725952,13.9944936 C20.4889143,14.7373985 12.7700619,22.2233833 12.4320557,30.8854375 C12.0940495,39.6513064 19.2648857,47.5873659 28.4485666,48.4405936 Z"/>
        <path fill="#C4C3C6" d="M32.4629545,47.3214455 C40.5775924,48.2469912 47.5524097,40.0400871 48.041645,29.136532 C48.5308803,18.3272626 42.3492702,10.2524686 34.2346324,10.955255 C26.1199945,11.5913694 19.1451772,19.4315328 18.6559419,28.6124701 C18.1667066,37.887693 24.3483167,46.3292276 32.4629545,47.3214455 Z"/>
        <path fill="#FFF" fill-rule="nonzero" d="M19.2490329,35.1697683 C16.9490217,26.3482297 19.4294725,14.2149789 37.0857589,4.41471254 C26.6240411,14.6138663 23.3325559,22.8152212 23.6322398,31.6007157 C23.9319238,40.3862102 21.5490441,43.9913069 19.2490329,35.1697683 Z"/>
        <path fill="#000" d="M46.0388801,50.4618488 C54.5151896,51.1561219 61.6589987,43.3673048 61.9950245,33.1955604 C62.3310502,23.1085236 55.7320464,15.4545508 47.255737,15.9694122 C38.7794275,16.4248114 31.6356184,23.8851386 31.2995926,32.7630409 C30.9635669,41.7256508 37.5625707,49.7081134 46.0388801,50.4618488 Z"/>
        <path fill="#C4C3C6" d="M48.0461984,45.149536 C54.9331998,45.5805596 60.7375448,38.5237329 61.0105657,29.4999544 C61.2835866,20.5490464 55.921896,13.877733 49.0348946,14.4868768 C42.1478932,15.0448677 36.3435482,21.8191085 36.0705273,29.7298492 C35.7975064,37.7134601 41.159197,44.6673595 48.0461984,45.149536 Z"/>
        <path fill="#FFF" fill-rule="nonzero" d="M36.748745,37.2770838 C34.5822679,28.797572 37.403043,17.4533362 54.0342395,8.38087389 C44.1799089,17.9411972 41.0795209,25.7574804 41.3618058,34.1719302 C41.6440907,42.58638 39.275461,41.2177348 36.748745,37.2770838 Z"/>
      </g>
    </g>
  </g>
</svg>
