<svg xmlns="http://www.w3.org/2000/svg" viewBox="0 0 568.79 488.82">
    <defs>
        <pattern id="lines" data-name="lines" width="16" height="16" patternTransform="translate(176)" patternUnits="userSpaceOnUse">
            <path fill="none" d="M0 0h16v16H0z"/>
            <path class="cls-2" d="M1.98 78.02l66-66M-14.02 78.02l66-66M-30.02 78.02l66-66M-46.02 78.02l66-66M-62.02 78.02l66-66M1.98 62.02l66-66M-14.02 62.02l66-66M-30.02 62.02l66-66M-46.02 62.02l66-66M-62.02 62.02l66-66M1.98 46.02l66-66M-14.02 46.02l66-66M-30.02 46.02l66-66M-46.02 46.02l66-66M-62.02 46.02l66-66M1.98 30.02l66-66M-14.02 30.02l66-66M-30.02 30.02l66-66M-46.02 30.02l66-66M-62.02 30.02l66-66M1.98 14.02l66-66M-14.02 14.02l66-66M-30.02 14.02l66-66M-46.02 14.02l66-66M-62.02 14.02l66-66"/>
        </pattern>
        <style>
            .cls-2,.cls-4,.cls-7,.cls-8{fill:none;stroke:#4038ff}.cls-2,.cls-4{stroke-linecap:square}.cls-2,.cls-4,.cls-7,.cls-8{stroke-miterlimit:10}.cls-2{stroke-width:2px}.cls-4,.cls-7,.cls-8{stroke-width:12px}.cls-7{fill-rule:evenodd}
        </style>
    </defs>
    <g id="Layer_2" data-name="Layer 2">
        <g id="Layer_21" data-name="Layer 21">
            <path d="M341.38 102.25c-7.85 5.68-16 10.85-32.61 18.39-40.47 18.37-89.33 23.8-84.83 22.82" stroke-width="12" stroke-linejoin="bevel" stroke-linecap="square" stroke="#4038ff" fill="none"/>
            <ellipse class="cls-4" cx="404.96" cy="170.06" rx="22.64" ry="165.07" transform="rotate(-6.42 404.897 170.004)"/>
            <path class="cls-4" d="M74.27 283A62.81 62.81 0 0110 225.36l-3.78-45.28a62.81 62.81 0 0157.44-67.77L229.9 94.58l1 3c-6.87 9.09-8.17 44.57-2.57 86.13a412.24 412.24 0 008.51 45.25"/>
            <path class="cls-4" d="M56.73 156.54c4.18 3.71 8.2 20.66 9.49 41.19 1.21 19.38-.41 35.9-3.69 41.23"/>
            <path fill-rule="evenodd" fill="#fff" stroke-width="12" stroke-miterlimit="10" stroke="#4038ff" d="M189.42 455.76v-.01h0v.01z"/>
            <path fill="#fff" stroke-width="12" stroke-miterlimit="10" stroke="#4038ff" d="M264.13 474.89l-34.51 7.2"/>
            <path id="Rectangle-Copy-21" class="cls-7" d="M261.26 275.41a22.46 22.46 0 00.67 44.92l32.6-.49a22.46 22.46 0 00-.67-44.91z"/>
            <path id="Rectangle-Copy-23" class="cls-7" d="M256 365.3a22.11 22.11 0 00.66 44.21l44.6-.67a22.1 22.1 0 00-.66-44.2z"/>
            <path id="Rectangle-Copy-22" class="cls-7" d="M253 321a22.41 22.41 0 00.66 44.82l49.23-.73a22.42 22.42 0 00-.67-44.83z"/>
            <path id="Rectangle-Copy-24" class="cls-7" d="M267.88 409.17a22.1 22.1 0 00.66 44.19l28.12-.42a22.09 22.09 0 00-.65-44.18z"/>
            <path id="Line-2" class="cls-8" d="M102.8 436.91l-69.39 15.74"/>
            <path id="Line-2-Copy-3" class="cls-8" d="M73.47 296.74l-59.41 6.17"/>
            <path id="Line-2-Copy-3-2" data-name="Line-2-Copy-3" class="cls-8" d="M88.29 360.46l-36.2 5"/>
            <path id="Path-8" class="cls-8" d="M189.43 455.78L163.15 327.7c-2.72-6.86-1-14.64 4.06-16.1l64.37-17.23q25.83-18.51 23.51-42.18c-.88-9-5.72-14.08-11.25-19.24l-48 12.3-78.34.14s-53.16 12.08-43 71.49q5.35 26.4 20.72 41.72-13.6 23.44-9.46 53A48.92 48.92 0 0099 439a56.1 56.1 0 0041.4 17.24l49.07-.45"/>
            <path class="cls-4" d="M133.6 358c14.93-5.28 28.72-18 28.36-31.78"/>
            <path d="M268.54 453.36a21.76 21.76 0 01-18.69-10.19l-60.42 12.61a34 34 0 0040.19 26.31l34.51-7.2a33.93 33.93 0 0025.06-21.84z" fill="url(#lines)" fill-rule="evenodd" stroke-width="12" stroke-miterlimit="10" stroke="#4038ff"/>
            <path class="cls-8" d="M378.14 133.53c23.82-2.79 45.44 14.68 48.29 39s-14.15 46.33-38 49.11"/>
            <path id="Line-2-Copy-3-3" data-name="Line-2-Copy-3" class="cls-8" d="M223.94 143.46l-88.29 10.25"/>
            <path d="M379.68 14.49c-8.68 9.17-17.84 17.69-37.1 30.87-48.17 33-112.68 49.22-112.68 49.22-11.2 39.27-6.53 84 4.25 131.27.69 3 1.4 6 2.13 9l7.56-1.94c5.53 5.16 10.37 10.25 11.25 19.24.92 9.37-1.5 18.12-7.19 26.27.14.48.28 1 .41 1.43a22 22 0 0112.95-4.48l32.6-.48a22.28 22.28 0 0122.42 20.64q4.19.65 8.49 1.41a304.24 304.24 0 0142.39 10.58 238.93 238.93 0 0148.07 21.89c-35.55-99.95-45.43-238.93-35.55-314.92z" fill="url(#lines)" stroke-width="12" stroke-linejoin="bevel" stroke-linecap="square" stroke="#4038ff"/>
            <path class="cls-8" d="M451.6 87.6a97.47 97.47 0 0123.33 153.73M483.61 39.16a151.26 151.26 0 0136.21 238.57"/>
        </g>
    </g>
</svg>
