<svg viewBox="0 0 168 212" version="1.1" xmlns="http://www.w3.org/2000/svg" xmlns:xlink="http://www.w3.org/1999/xlink">
    <g id="Current-page---Roles" stroke="none" stroke-width="1" fill="none" fill-rule="evenodd">
        <g id="Roles_main_page_v2" transform="translate(-356.000000, -930.000000)">
            <g id="Group-5" transform="translate(356.000000, 930.000000)">
                <g id="Group-3">
                    <ellipse id="Oval" fill="#00DBB0" cx="84" cy="84.5" rx="84" ry="84.5"></ellipse>
                    <g id="Group-52" transform="translate(0.000000, 14.000000)" fill-rule="nonzero">
                        <path d="M125.2363,180.921343 C125.2363,180.921343 120.675048,180.751693 118.394422,182.551869 C118.394422,182.551869 113.044805,179.130591 102.674057,181.609369 L98.7697754,165.831904 C98.7697754,165.831904 95.0156584,148.970563 100.21511,141.326881 C103.72521,136.133702 110.876803,129.31942 119.332951,119.517411 C123.087068,115.125357 127.929879,111.685229 132.125105,108.084876 C137.57796,103.372371 138.497718,95.1066387 138.272471,88.1981073 C137.953372,78.5751734 132.125105,69.6308401 132.125105,69.6308401 C132.125105,69.6308401 76.0855234,63.0993091 67.5167514,68.2830639 C67.5167514,68.2830639 36.0666362,89.7155337 6.41849725,127.660619 C7.12459945,127.889192 7.79935354,128.205832 8.42694985,128.60312 C8.42694985,128.60312 0.205433625,139.59268 0.261745379,147.717037 C-0.0106361095,149.222448 0.102396251,150.77268 0.590230617,152.222191 C0.958555089,154.066339 1.20001515,155.933765 1.31289814,157.811222 C1.27898645,159.496795 1.33224146,161.182999 1.47244811,162.863026 C1.47244811,162.863026 0.393139474,167.961956 0.120965992,168.781932 C-0.15120749,169.601907 0.120965992,174.993012 0.120965992,174.993012 C0.120965992,174.993012 25.0764587,163.183477 28.6053287,161.128825 C28.6053287,161.128825 43.4340908,162.354076 48.8681752,161.40215 C48.8681752,161.40215 53.804839,167.745181 54.349186,168.942157 L56.723665,181.929819 C56.723665,181.929819 51.8714688,182.768645 50.1539603,184.568821 C49.4219075,184.568821 41.3505559,183.41897 38.5725093,186.576348 C38.5725093,186.576348 37.1741007,192.325603 37.8592271,193.277529 C38.5443535,194.229455 41.6133441,193.97498 42.5518733,193.013629 C42.5518733,193.013629 47.5260784,198.508409 52.5659804,197.961759 C57.6058825,197.415108 64.5416137,194.06923 69.9850833,195.303906 C75.4285529,196.538582 83.6500692,198.951385 88.6899712,197.528208 C92.3047557,196.390774 95.7927335,194.881028 99.0982606,193.023054 L100.571752,194.23888 C100.571752,194.23888 101.125484,193.69223 100.99409,193.296379 C100.99409,193.296379 116.432896,194.851506 120.703204,197.000408 C126.615938,200.006986 133.260725,192.466979 133.260725,192.466979 C133.260725,192.466979 133.861384,192.636629 135.137784,192.872254 C135.072087,192.881679 137.746895,180.506643 125.2363,180.921343 Z M85.44266,181.034443 C82.8147781,181.100418 82.0357989,181.976944 82.0357989,181.976944 L74.8748207,181.128693 C74.2835473,180.025967 71.4773448,166.99118 71.4773448,166.99118 C71.3834919,165.106178 73.3544033,159.969549 73.3544033,159.969549 C74.4617558,159.931121 75.5554403,159.711459 76.5923292,159.319223 C77.9156555,160.959174 84.4290484,168.744232 84.4290484,168.744232 C85.6303659,171.88276 85.4708159,181.034443 85.4708159,181.034443 L85.44266,181.034443 Z" id="Shape" fill="#010101"></path>
                        <path d="M89.6008793,182.221621 C89.6008793,182.221621 94.5159366,182.725273 96.8635579,185.253219 L97.5757576,184.991707 L94.4543884,169.107296 C94.4543884,169.107296 90.8670121,170.133971 89.0909091,171.809583 L89.6008793,182.221621 Z" id="Path" fill="#C4C3C6"></path>
                        <path d="M100.969697,186.761842 C100.969697,186.761842 107.672603,182.547697 117.423134,185.385795 L118.208411,188.25256 C118.208411,188.25256 131.689011,187.726986 130.60458,190.536416 C129.520149,193.345846 124.0606,194.291879 121.349522,193.460517 C118.638444,192.629155 111.187655,189.103034 102.652435,190.221072 C102.173121,189.028369 101.610767,187.872329 100.969697,186.761842 L100.969697,186.761842 Z" id="Path" fill="#C4C3C6"></path>
                        <path d="M61.2578768,172.074468 L60.7937387,186.316893 C57.9190611,186.184301 55.0477037,186.643455 52.3540036,187.666477 C52.3540036,187.666477 53.0738912,190.164645 51.8425045,190.480505 C50.6111178,190.796365 45.8181818,191.542944 45.8181818,191.542944 L46.1591812,191.983234 C46.1591812,191.983234 51.90881,195.189694 55.1009432,193.648679 C57.6868553,192.394809 61.0305438,190.777222 68.3620309,190.89208 C75.693518,191.006939 79.5108168,194.940834 84.1427253,194.577116 C88.7746338,194.213399 94.6474012,192.768099 95.8787879,191.207941 C95.8787879,191.207941 94.5432069,189.121349 89.2956051,188.81506 C84.0480032,188.508771 83.0155328,188.4992 82.2956452,185.378884 C82.2956452,185.378884 75.6651013,185.16831 71.9993578,186.336036 C71.9993578,186.336036 68.2104756,169.107296 67.8315874,169.107296 C67.4526992,169.107296 62.4892635,170.093163 61.2578768,172.074468 Z" id="Path" fill="#C4C3C6"></path>
                        <path d="M32.2424242,155.960122 C34.268045,155.238954 57.0702161,137.665236 57.0702161,137.665236 C55.7507751,139.629469 41.4692196,150.949904 41.4692196,150.949904 C41.4692196,150.949904 42.1661075,151.168152 44.2567711,150.238225 C46.3474347,149.308299 59.6719308,140.901002 59.9785615,140.587863 L54.9423851,146.214869 L61.6510924,141.641147 C63.2197196,142.008555 64.8276656,142.171169 66.4363891,142.125089 C65.0232403,143.581077 63.7245629,145.148452 62.5524007,146.812679 C65.3399522,144.649176 68.9451854,141.859396 68.9451854,141.859396 L71.6026512,141.859396 C70.8689463,143.352055 69.9778441,144.758442 68.9451854,146.053555 L74.371619,144.222169 L72.9220922,146.30027 C75.3286783,144.468884 80.4577731,142.71341 80.4577731,142.71341 C79.4449627,143.339687 73.6840229,149.156474 73.6840229,149.156474 C75.1056742,147.609759 87.6961151,139.952097 87.6961151,139.952097 L88.8575949,139.762316 C88.1514151,140.587863 85.2337779,144.772533 85.2337779,144.772533 L90.2049114,139.81925 C91.4785628,139.260701 92.814001,138.862401 94.1818182,138.633119 C94.1818182,138.633119 92.2026566,145.275453 91.3942667,150.019977 C90.5208339,154.944794 92.8995445,162.877638 92.8995445,162.877638 C91.305041,163.829967 89.574397,164.521549 87.7704498,164.927273 C85.7355372,161.748441 79.3334606,155.200998 79.3334606,155.200998 L81.8329651,149.507569 C78.9078853,152.351728 75.3634401,154.446129 71.4911491,155.618516 C70.9429307,155.618516 70.4132959,150.873992 70.4132959,150.873992 C68.5549282,152.771801 65.9717972,164.282017 65.9717972,164.282017 C65.5722481,165.230922 62.7010701,165.800265 61.4931311,165.695886 C60.2851922,165.591506 59.2073389,163.741142 59.2073389,163.741142 L61.8555128,162.630923 L57.9250652,161.805376 C56.7171263,161.292967 53.1862277,156.387129 53.1862277,156.387129 C53.3813563,155.789319 62.9519497,149.982021 62.9519497,149.982021 L52.1734173,155.07764 L32.2424242,155.960122 Z" id="Path" fill="#C4C3C6"></path>
                        <path d="M120.488088,185.355355 L121.25365,186.568579 C125.088031,185.993709 129.00553,186.728473 132.363636,188.652361 C131.317368,186.119137 128.830813,184.464969 126.07109,184.466275 C120.161324,184.114347 120.488088,185.355355 120.488088,185.355355 Z" id="Path" fill="#FFFFFF"></path>
                        <path d="M75.6350928,104.581238 C65.2793444,113.946643 36.4848485,131.313466 36.4848485,131.313466 C36.4848485,131.313466 44.8341112,135.626355 59.4405662,128.249298 C74.0470212,120.87224 87.6740069,106.81933 89.0909091,104.840588 L81.7781722,109.451249 L86.5994435,104.523605 C86.5994435,104.523605 84.5549201,104.811771 83.3567344,104.840588 L70.7282368,112.525023 C74.1040777,110.728786 81.1220228,104.840588 81.1220228,104.840588 L75.6350928,104.581238 Z" id="Path" fill="#FFFFFF"></path>
                        <path d="M57.9046633,122.09112 C57.9046633,122.09112 72.1920534,114.063879 74.6666667,112.171674 C74.6666667,112.171674 67.1961359,119.877045 60.7901558,122.637324 C57.3799662,124.224829 53.7647548,125.279759 50.0606061,125.76824 L57.9046633,122.09112 Z" id="Path" fill="#010101"></path>
                        <path d="M4.24242424,168.257511 C4.24242424,168.257511 5.85109305,164.276371 6.67413291,161.779885 C6.87989287,161.16522 24.1543771,142.564505 32.6934156,138.138915 L33.90927,138.138915 C25.0990024,145.77022 26.2493877,145.013709 23.9860281,147.188678 C23.9860281,147.188678 39.1000327,136.190899 41.1389269,135.472214 C41.1389269,135.472214 36.6589713,140.503012 35.5272915,141.533758 C35.5272915,141.533758 46.5167441,136.417853 48.0412384,135.595147 C47.2722541,136.683601 46.4184361,137.708155 45.4879443,138.659016 C45.4879443,138.659016 60.6113016,131.377598 61.9393939,130.866953 C61.9580941,130.885866 12.0613029,167.765779 4.24242424,168.257511 Z" id="Path" fill="#C4C3C6"></path>
                        <path d="M18.9605459,153.001903 C21.2196926,151.655625 23.3890037,150.176647 25.4559373,148.573519 C26.8014112,147.289288 28.4809338,147.687842 25.4559373,150.238591 C22.4309407,152.78934 21.530865,153.568736 18.9605459,153.781298 C16.3902267,153.993861 18.9605459,153.001903 18.9605459,153.001903 Z" id="Path" fill="#010101"></path>
                        <path d="M86.551561,184.841501 C86.551561,184.841501 86.4320975,185.914378 87.249963,186.077455 C88.5089245,186.326363 92.8923161,185.588223 98.3692582,188.652361 C98.3692582,188.652361 98.9206282,187.905638 96.5313581,186.000208 C94.1420881,184.094778 88.352703,184.154859 86.551561,184.841501 Z" id="Path" fill="#FFFFFF"></path>
                        <path d="M40.7272727,191.201717 C40.7272727,191.201717 41.2420936,188.736504 42.0619934,188.358505 C42.8818933,187.980506 48.5830574,187.684681 49.5364294,187.849028 C49.5364294,187.849028 50.2991269,188.547505 49.9845142,188.802243 C49.6699015,189.056982 44.3500861,189.484286 43.4634502,190.19098 C42.74792,190.833483 41.7605328,191.198221 40.7272727,191.201717 L40.7272727,191.201717 Z" id="Path" fill="#FFFFFF"></path>
                        <path d="M60.2587985,186.310625 C61.9739075,186.346759 63.6777302,186.562372 65.3333333,186.95279 C65.3333333,186.95279 61.3528974,184.239418 59.3939394,184.411265 L60.2587985,186.310625 Z" id="Path" fill="#010101"></path>
                        <path d="M30.5454545,135.081387 C30.5454545,135.081387 28.8580694,134.62984 28.9334832,133.199943 L24.2861039,136.15381 L29.5745011,131.4502 L28.6318278,130.942211 C27.811702,131.4502 19.6198711,137.687186 19.6198711,137.687186 L26.5485198,130.866953 C25.9211549,130.919045 25.2905381,130.919045 24.6631732,130.866953 C22.9192276,131.986412 8.54345993,145.513992 6.29047076,149.502653 C4.03748159,153.491313 5.64945292,158.909871 5.64945292,158.909871 C5.64945292,158.909871 18.6583443,144.57327 30.5454545,135.081387 Z" id="Path" fill="#C4C3C6"></path>
                        <path d="M22.0606061,130.017167 C22.0606061,130.017167 9.69908749,139.862957 5.02072816,147.862661 C5.02072816,147.862661 3.65145225,146.622322 4.54528514,143.420518 C5.43911802,140.218713 13.6072291,131.507497 15.1857,130.401769 L13.1698216,134.545846 L18.0003227,130.084473 C19.3477041,130.295437 20.7207873,130.272676 22.0606061,130.017167 L22.0606061,130.017167 Z" id="Path" fill="#C4C3C6"></path>
                        <path d="M60.6111003,30.4552025 C60.6111003,30.4552025 56.3012721,23.4518308 56.0101944,21.2088591 C59.920803,19.602864 64.1293343,18.8668294 68.3481339,19.0510636 C68.3481339,19.0510636 67.5312384,11.2527146 69.4185488,9.22741529 C69.4185488,9.22741529 78.0757636,12.4262526 80.6860734,14.3001277 C80.6860734,14.3001277 80.2447621,5.47020106 83.5029546,4.06006273 C83.5029546,4.06006273 91.0146377,8.19583758 91.4465595,11.3284268 C91.4465595,11.3284268 92.7986625,4.30612713 96.2634263,3.14205321 C98.0641025,5.18809835 99.7505719,7.3334285 101.315033,9.56811985 C101.315033,9.56811985 104.638953,1.05050574 107.455834,0 C107.455834,0 112.826688,5.57430523 113.314947,8.1485175 C113.314947,8.1485175 113.559077,5.17681658 118.948709,3.14205321 C118.948709,3.14205321 124.582472,8.68796639 124.328952,11.9341238 C124.328952,11.9341238 127.145833,5.66894539 130.789,4.94021618 C130.789,4.94021618 135.549529,6.32196247 135.652815,12.5114287 C135.652815,12.5114287 139.821799,9.06652702 142.713797,7.94977317 C142.713797,7.94977317 147.277144,13.0130216 146.582314,15.9184744 C146.582314,15.9184744 151.220778,13.7985349 154.169113,14.4515519 C154.169113,14.4515519 156.582242,18.2371582 154.47897,24.171096 C154.47897,24.171096 162.469523,23.4234388 164.046977,25.1648177 C164.046977,25.1648177 161.755913,32.7360302 160.572823,33.190303 C160.572823,33.190303 166.81691,35.613091 168,37.40179 C168,37.40179 162.826328,43.2126956 161.643238,43.8089286 L166.863858,50.71766 C166.863858,50.71766 163.784068,55.0237872 161.12681,55.0237872 C161.12681,55.0237872 162.657315,60.8914769 162.497692,64.7622593 C162.497692,64.7622593 156.450787,65.2449241 154.432022,63.5981854 C154.432022,63.5981854 155.314645,68.2734091 154.873334,70.9611896 C154.873334,70.9611896 148.394507,70.3744206 147.361651,68.5857216 C147.361651,68.5857216 145.530678,75.5417731 143.756043,77.0276236 C143.756043,77.0276236 138.713825,73.7152181 138.272514,71.9265192 C138.272514,71.9265192 137.474398,76.1380061 135.249062,77.3304721 C135.249062,77.3304721 129.12704,72.7120325 129.418118,71.226182 C129.418118,71.226182 128.084794,76.7342391 125.57777,77.0276236 C125.57777,77.0276236 121.728032,73.3082654 121.728032,71.3492142 C121.728032,71.3492142 120.554332,74.9266121 118.629463,75.0780364 C118.629463,75.0780364 115.38066,72.0968714 114.638881,70.3460285 C114.638881,70.3460285 110.939377,76.4503186 109.314976,77.0465516 C109.314976,77.0465516 103.108448,70.1946043 102.366669,68.4059053 C102.366669,68.4059053 101.183579,72.7972086 99.5497877,73.8855704 C98.4458828,73.1297116 97.5352792,72.1210825 96.8925298,70.9422615 C96.8925298,70.9422615 94.5263496,76.0055099 93.0521818,76.3083584 C93.0521818,76.3083584 90.0944565,75.3619568 89.2024442,73.8855704 C87.968526,75.3169986 86.3908438,76.4053631 84.6203175,77.0465516 C83.2814136,75.8431051 82.1348945,74.438502 81.2212809,72.8823847 C81.2212809,72.8823847 77.6720106,76.3083584 75.1649864,76.3083584 C75.1649864,76.3083584 72.4983389,72.1347275 72.9490398,70.052644 C72.9490398,70.052644 67.2213815,73.4880817 63.559436,73.3366575 C63.559436,73.3366575 61.9068657,68.7182178 62.4984107,66.7780946 C62.4984107,66.7780946 57.9914008,66.4468541 56.6674667,65.7086609 C56.6674667,65.7086609 54.8552731,59.9734673 57.7284919,56.5853497 C57.7284919,56.5853497 50.1135232,51.6356695 49.2121212,49.5535861 C51.9417297,46.9818469 54.9570075,44.7366057 58.1979721,42.862527 L49.7473286,35.4616667 C52.9375615,32.9715529 56.6555362,31.2581601 60.6111003,30.4552025 L60.6111003,30.4552025 Z" id="Path" fill="#010101"></path>
                        <path d="M101.818182,61.4784831 C101.818182,61.4784831 107.84058,74.3911342 109.445323,75.6309013 C109.445323,75.6309013 114.517787,64.5683642 115.393939,60.6487929 C115.393939,60.6487929 111.114625,54.6406908 109.279315,51.8369099 C109.279315,51.8369099 104.603426,59.2373657 101.818182,61.4784831 Z" id="Path" fill="#C4C3C6"></path>
                        <path d="M131.063204,60.3347639 C131.063204,60.3347639 146.672975,59.0864842 150.468923,44.5542716 C154.26487,30.022059 137.812608,22.0572887 131.063204,22.0945508 C124.313801,22.1318128 110.389015,29.2022932 111.184176,41.8620861 C111.979337,54.5218789 122.628816,59.8876189 131.063204,60.3347639 Z" id="Path" fill="#FFFFFF"></path>
                        <path d="M131.048622,57.7854077 C131.048622,57.7854077 144.676015,56.677709 147.993827,43.7608148 C151.311638,30.8439207 136.943829,23.7659133 131.048622,23.7940751 C125.153415,23.822237 112.99748,30.1211003 113.728524,41.367059 C114.459567,52.6130177 123.681957,57.4099166 131.048622,57.7854077 Z" id="Path" fill="#C4C3C6"></path>
                        <path d="M131.476334,56.0858369 C131.476334,56.0858369 143.450327,55.1377211 146.358296,43.8172189 C149.266266,32.4967167 136.646058,26.3150019 131.476334,26.3434454 C126.306611,26.3718888 115.615546,31.8804414 116.271265,41.7218831 C116.926983,51.5633247 124.995173,55.7634775 131.476334,56.0858369 Z" id="Path" fill="#FFFFFF"></path>
                        <path d="M129.610721,53.5364807 C129.610721,53.5364807 136.326875,52.7403809 137.780023,51.0122619 C137.780023,51.0122619 145.381107,44.2162883 142.893988,38.7698009 C142.893988,38.7698009 138.95372,31.0029739 135.302219,30.1000803 C131.650718,29.1971867 123.770182,29.6437792 121.869911,35.7310299 C119.96964,41.8182805 118.23704,49.4297709 129.610721,53.5364807 Z" id="Path" fill="#010101"></path>
                        <path d="M139.887266,48.3087125 C139.887266,48.3087125 133.71756,50.833128 129.142487,48.8578835 C126.317831,47.5526971 124.153949,45.2662899 123.115159,42.4892704 C123.115159,42.4892704 122.109023,47.6621078 127.025803,49.575349 C131.942584,51.4885902 137.466843,51.4265871 139.070966,49.575349 C140.447285,47.9898389 139.887266,48.3087125 139.887266,48.3087125 Z" id="Path" fill="#FFFFFF"></path>
                        <path d="M86.0634094,61.1845494 C86.0634094,61.1845494 101.695718,59.9111083 105.498172,45.0542955 C109.300625,30.1974827 92.8233267,22.0474597 86.0634094,22.0946242 C79.3034921,22.1417887 65.4081066,29.3579549 66.2155411,42.2998896 C67.0229757,55.2418242 77.6135128,60.760069 86.0634094,61.1845494 Z" id="Path" fill="#FFFFFF"></path>
                        <path d="M85.6527337,58.6351931 C85.6527337,58.6351931 99.6169271,57.5284985 103.012852,44.6108616 C106.408776,31.6932246 91.6931035,24.6159591 85.6527337,24.643859 C79.612364,24.6717589 67.1511288,30.9678281 67.9121202,42.2207732 C68.6731117,53.4737183 78.0998935,58.2631949 85.6527337,58.6351931 Z" id="Path" fill="#C4C3C6"></path>
                        <path d="M85.6641704,56.9356223 C85.6641704,56.9356223 97.6252715,55.9766223 100.538514,44.3055918 C103.451756,32.6345613 90.8370431,26.305161 85.6641704,26.343521 C80.4912976,26.381881 69.790734,32.0303912 70.4536834,42.1574317 C71.1166328,52.2844721 79.1934107,56.5999723 85.6641704,56.9356223 Z" id="Path" fill="#FFFFFF"></path>
                        <path d="M83.7877476,54.3862661 C83.7877476,54.3862661 90.5062875,53.5969497 91.9644321,51.854678 C91.9644321,51.854678 99.5597045,45.1166109 97.0771671,39.6106476 C97.0771671,39.6106476 93.1364851,31.8426188 89.4818947,30.9474185 C85.8273044,30.0522181 77.9459403,30.4853796 76.0540438,36.5785174 C74.1621473,42.6716552 72.3994534,50.2664194 83.7877476,54.3862661 Z" id="Path" fill="#010101"></path>
                        <path d="M94.9154543,48.8615841 C94.9154543,48.8615841 88.7455342,51.6158824 84.1745264,49.4565893 C81.3462873,48.0319684 79.1807617,45.5293463 78.1456868,42.4892704 C78.1456868,42.4892704 77.1393127,48.1514166 82.0489137,50.2819191 C86.9585147,52.4124216 92.5453021,52.2972593 94.1065928,50.2819191 C95.4797763,48.5065004 94.9154543,48.8615841 94.9154543,48.8615841 Z" id="Path" fill="#FFFFFF"></path>
                        <path d="M110.036588,23.7939914 C110.036588,23.7939914 104.845502,24.0261397 105.232759,27.6631289 C105.302675,28.8655557 105.882439,29.9718705 106.812741,30.6780774 C107.743043,31.3842843 108.926012,31.6160873 110.036588,31.309791 C110.036588,31.309791 112.397011,31.1356799 112.802709,27.6631289 C112.950333,26.7613036 112.73744,25.8355013 112.214105,25.1034803 C111.690769,24.3714592 110.90318,23.8978287 110.036588,23.7939914 Z" id="Path" fill="#C4C3C6"></path>
                        <path d="M72.1212121,101.974249 C72.1212121,101.974249 34.6649785,125.348218 33.3603444,125.5736 C30.4441357,125.906757 27.4944453,125.811831 24.6060606,125.291873 C27.7541994,123.723591 47.6735038,105.833912 47.6735038,105.833912 L49.7439014,105.514621 C49.3562927,106.294067 41.3394108,113.872529 41.3394108,113.872529 C42.6534988,112.708057 52.1168228,105.514621 52.1168228,105.514621 L54.0832278,104.98873 C53.2985566,105.927821 48.0422048,110.47302 48.0422048,110.47302 L54.7355449,105.646094 L56.1914409,104.594312 C57.0105503,104.41232 57.8479453,104.324097 58.6872626,104.331367 L53.9603275,108.388239 L60.0202583,104.453449 L72.1212121,101.974249 Z" id="Path" fill="#FFFFFF"></path>
                        <path d="M73.1032637,73.2612628 C73.6688278,73.9893129 72.7639253,74.9988758 72.7639253,74.9988758 C74.0081663,73.9698982 75.0073295,73.2903848 75.0073295,73.2903848 C75.1392945,74.3193623 76.5532047,79.7651774 77.552368,79.376884 C78.5515312,78.9885906 81.3227953,75.6686819 81.3227953,75.6686819 L81.2002564,79.1439079 L82.5858885,75.0182904 L83.4153825,74.513509 C83.4153825,74.513509 84.9801098,80.1146415 86.101812,80.1146415 C87.2235141,80.1146415 90.2021517,76.7461961 90.2021517,76.7461961 L90.4472295,80.4252762 C90.6923073,79.3962986 92.030809,75.7366333 92.030809,75.7366333 C92.2853128,77.0180015 95.4053414,78.6488338 95.4053414,78.6488338 C95.4053414,78.6488338 95.8860709,83.5025015 96.2536876,82.3570359 C96.5364696,81.4736684 98.1860316,78.2896624 98.1860316,78.2896624 C101.796216,84.5703083 95.2545244,94.3261803 95.2545244,94.3261803 C91.1259064,94.3261803 92.0967915,86.152604 92.0967915,86.152604 C91.9742526,86.7932881 86.3374637,90.9480276 83.6981646,91.3169063 C81.9072116,91.569297 82.651871,83.6966482 82.651871,83.6966482 C82.0297505,85.1139191 73.5745671,88.1329004 70.9541201,87.8708023 C68.3336731,87.6087043 72.3586043,80.8815209 72.3586043,80.8815209 C72.3586043,80.8815209 54.8449693,85.1527484 60.5288885,78.9400539 C64.0730902,74.9503391 72.4057347,72.3584806 73.1032637,73.2612628 Z" id="Path" fill="#FFFFFF"></path>
                        <path d="M37.3292666,103.677051 C37.5976679,103.492125 30.8588798,111.305258 30.8588798,111.305258 L38.7479589,103.695544 L39.4860623,105.091737 C40.0888285,105.654686 40.7983005,106.100455 41.5757576,106.404713 C39.8694926,108.485133 15.9530256,125.294928 15.9530256,125.294928 C16.7582293,125.812721 18.8287531,126.977757 18.8287531,126.977757 L18.2727791,127.467811 C16.5705384,127.273518 14.9509408,126.651808 13.5757576,125.66478 C13.5757576,125.66478 24.2734638,112.442555 37.3292666,103.677051 Z" id="Path" fill="#FFFFFF"></path>
                        <path d="M66.1818182,95.3335568 C64.9683834,96.8131673 63.5501369,98.1032391 61.9720713,99.1628459 C61.9720713,99.1628459 64.5411888,94.7245615 63.9642642,95.2136032 C62.910401,95.5470772 61.8260636,95.7696814 60.7280776,95.8779618 C60.7280776,95.8779618 57.2665298,99.6426604 53.6877943,100.399291 C53.6877943,100.399291 53.985271,100.159384 52.6060606,101.967915 C52.6060606,101.967915 61.7827679,102.235504 65.9835003,99.2920267 C65.8844483,97.9692787 65.951095,96.6389942 66.1818182,95.3335568 L66.1818182,95.3335568 Z" id="Path" fill="#FFFFFF"></path>
                        <path d="M85.2880306,115.569102 L87.1894698,113.021459 C87.1894698,113.021459 85.4040809,113.113765 84.1989433,113.021459 C84.1989433,113.021459 81.8422299,116.95369 84.1989433,118.079822 C84.1989433,118.079822 87.4572782,118.449046 89.0909091,116.95369 C88.4115424,116.000512 87.9201577,114.91845 87.644744,113.769137 C87.644744,113.769137 86.1003826,115.550641 85.7433048,116.01217 L85.2880306,115.569102 Z" id="Path" fill="#C4C3C6"></path>
                        <path d="M65.3465462,136.073861 L67.2105675,132.566524 C67.2105675,132.566524 64.9860515,133.044387 63.517695,133.170615 C63.517695,133.170615 61.3547268,138.463178 64.4760834,139.364807 C64.4760834,139.364807 69.5405942,138.832846 71.2727273,136.65992 C71.2727273,136.65992 68.2568814,134.856661 67.9139718,133.37799 C67.9139718,133.37799 66.3488973,135.875502 65.9884026,136.515659 L65.3465462,136.073861 Z" id="Path" fill="#C4C3C6"></path>
                        <path d="M77.3469891,134.015951 C77.3469891,134.015951 76.3783139,138.476448 79.6330627,139.364807 C79.6330627,139.364807 83.8952337,139.168433 85.6969697,137.045723 C84.6944853,135.649801 83.8623689,134.146775 83.2171611,132.566524 L77.3469891,134.015951 Z" id="Path" fill="#C4C3C6"></path>
                        <path d="M70.4243512,92.5410363 C70.4243512,92.5410363 70.3586903,99.2262338 73.4541316,99.4172395 C76.5495729,99.6082451 79.7575758,96.1605933 79.7575758,96.1605933 C79.098221,94.4642588 78.5835402,92.7132745 78.2192352,90.9270386 C78.2192352,90.9270386 71.3623637,92.5410363 70.4243512,92.5410363 Z" id="Path" fill="#FFFFFF"></path>
                        <path d="M134.456609,65.4334764 C135.971455,68.8373854 133.197173,72.2317597 133.197173,72.2317597 C130.854447,71.7359522 128.969697,66.3011395 128.969697,66.3011395 L134.456609,65.4334764 Z" id="Path" fill="#C4C3C6"></path>
                        <path d="M117.717912,63.7339056 L118.762916,64.5311871 C118.862299,65.72488 118.663495,66.9271962 118.192183,67.9828326 C117.291871,67.6911443 117.090909,66.1743648 117.090909,66.1743648 L117.717912,63.7339056 Z" id="Path" fill="#C4C3C6"></path>
                        <path d="M137.454545,65.2956056 C137.454545,65.2956056 139.837163,69.410422 142.300891,69.6824034 C142.300891,69.6824034 144.4199,65.6640966 142.757137,63.7339056 C141.069102,64.4381396 139.288561,64.9625381 137.454545,65.2956056 Z" id="Path" fill="#C4C3C6"></path>
                        <path d="M117.090403,187.358471 C117.090403,187.893117 112.119393,187.024317 109.019599,188.394348 C105.919805,189.764379 106.392335,185.231024 109.407073,185.253301 C112.421812,185.275578 117.147107,185.130778 117.090403,187.358471 Z" id="Path" fill="#FFFFFF"></path>
                        <path d="M81.4540979,186.689965 C81.5106397,187.230303 76.1957124,186.103837 73.3215053,188.063705 C70.4472981,190.023573 70.6451943,186.5068 73.6136378,185.966463 C76.5820812,185.426125 81.2185072,184.372925 81.4540979,186.689965 Z" id="Path" fill="#FFFFFF"></path>
                        <path d="M102.676508,92.5951236 C102.540037,92.5951236 103.868356,89.1066091 103.85016,88.5481031 C103.831964,87.9895971 105.378637,88.9433535 106.852526,89.4073431 C107.261939,89.5362291 105.405931,92.990374 102.676508,92.5951236 Z" id="Path" fill="#C4C3C6"></path>
                        <path d="M95.7286598,127.467811 L88.2424242,129.84433 C88.2424242,129.84433 89.1260137,134.914236 90.6504481,136.815451 C90.6504481,136.815451 94.048869,136.750213 99.2727273,131.410036 C99.2727273,131.410036 95.806338,128.399779 95.7286598,127.467811" id="Path" fill="#C4C3C6"></path>
                        <path d="M78.979973,118.969957 L73.8181818,122.72509 C73.8181818,122.72509 74.1623012,123.836127 77.6034953,122.72509 C81.0446894,121.614053 79.4445342,121.002552 78.979973,118.969957 Z" id="Path" fill="#C4C3C6"></path>
                        <path d="M100.749091,96.0257511 L98.4242424,99.3239804 C98.4242424,99.3239804 99.2852973,99.8022735 100.985881,98.6762919 C102.686464,97.5503103 101.351829,97.1716616 100.749091,96.0257511 Z" id="Path" fill="#C4C3C6"></path>
                        <path d="M90.6781759,160.445257 C90.6781759,160.445257 87.5895964,162.005641 86.7587505,155.505634 C85.9279045,149.005628 87.6618439,146.890014 89.5854328,143.903266 C91.5090218,140.916518 93.6132295,141.270716 91.7799498,145.119026 C89.4092897,149.840384 89.0097889,155.397642 90.6781759,160.445257 Z" id="Path" fill="#FFFFFF"></path>
                        <path d="M65.1863776,163.15743 C65.1863776,163.15743 62.2423439,163.367334 62.8776825,158.587253 C63.5130211,153.807172 64.3541735,152.051613 66.5912812,150.486876 C68.8283889,148.922139 69.2758104,149.236995 68.0856691,152.251976 C66.5561758,155.689523 65.5762476,159.375445 65.1863776,163.15743 Z" id="Path" fill="#FFFFFF"></path>
                        <path d="M61.9393939,33.9976667 C60.9127273,33.8448661 57.6969697,36.5443442 57.6969697,36.5443442 C58.2824242,37.7497715 60.8533333,39.9399142 60.8533333,39.9399142 L61.9393939,33.9976667 Z" id="Path" fill="#C4C3C6"></path>
                        <path d="M106.504102,18.695279 C106.438324,16.8024889 105.998788,14.9431033 105.212121,13.2297714 C105.212121,13.2297714 106.494807,9.59563808 108.065633,9.34763948 C109.387059,11.1391683 110.428192,13.1311866 111.151515,15.2519138 C111.057776,16.1642297 111.026717,17.0821843 111.058567,17.9989752 C109.508225,17.8618951 107.948182,18.1004005 106.504102,18.695279 L106.504102,18.695279 Z" id="Path" fill="#C4C3C6"></path>
                        <path d="M108.78001,66.2832618 C108.78001,66.2832618 111.35059,60.5159926 112.848485,57.6417509 L108.606061,51.8369099 L108.78001,66.2832618 Z" id="Path" fill="#FFFFFF"></path>
                        <path d="M121.605051,109.604284 C122.613534,109.222793 127.272727,105.269149 127.272727,105.269149 C125.346524,105.728674 123.521169,103.67382 123.521169,103.67382 C122.744637,104.454144 120.576398,109.977106 121.605051,109.604284 Z" id="Path" fill="#C4C3C6"></path>
                        <path d="M113.047039,116.410476 C114.461409,115.356255 115.811593,114.224716 117.090909,113.021459 C115.956323,113.20301 114.798338,113.20301 113.663751,113.021459 C113.232053,113.445086 112.491998,116.62229 113.047039,116.410476 Z" id="Path" fill="#C4C3C6"></path>
                        <path d="M104.03513,126.605897 C104.73835,126.929515 108.606061,120.669528 108.606061,120.669528 C106.799052,122.161278 104.804549,123.360233 102.684208,124.229327 C102.557989,125.272344 103.123668,126.267498 104.03513,126.605897 Z" id="Path" fill="#C4C3C6"></path>
                        <path d="M109.192507,27.3566265 C109.192507,27.3566265 109.120785,28.7190838 109.960951,28.8829236 C110.801116,29.0467634 111.231445,27.1065552 111.139232,26.4770654 C110.995789,25.6147507 110.11464,24.1056998 107.583897,24.8386674 C105.053154,25.5716349 104.940449,25.9165608 105.462991,26.4943117 C105.985533,27.0720626 108.331849,24.9593915 109.192507,27.3566265 Z" id="Path" fill="#FFFFFF"></path>
                        <path d="M54.3995628,133.969648 L61.0909091,130.866953 C61.0909091,130.866953 11.3438251,167.407725 4.24242424,167.407725 L54.3995628,133.969648 Z" id="Path" fill="#FFFFFF"></path>
                        <path d="M18.2021822,152.957511 C19.9448809,152.463027 21.5541898,151.650789 22.9286359,150.57201 C24.2804016,149.658414 26.2655122,148.736359 27.1162739,147.399801 C27.1708262,147.309471 27.1614492,147.19896 27.0922808,147.117037 C27.0231124,147.035114 26.9068791,146.996852 26.794875,147.019136 C25.1689749,147.391342 23.6943214,148.812492 22.3614614,149.709169 C21.0286015,150.605847 19.4594188,151.55328 17.9564066,152.42458 C17.8314945,152.504645 17.7846161,152.651129 17.8432311,152.778228 C17.9018461,152.905326 18.050527,152.979587 18.2021822,152.957511 L18.2021822,152.957511 Z" id="Path" fill="#FFFFFF"></path>
                        <path d="M5.50316727,158.909871 C5.50316727,158.909871 28.3882897,136.414577 30.5454545,135.718846 C30.1548347,135.560262 29.7847892,135.35789 29.4429036,135.11588 C29.4429036,135.11588 16.7491868,145.236443 5.09090909,156.646427 L5.50316727,158.909871 Z" id="Path" fill="#FFFFFF"></path>
                        <path d="M135.590104,33.1416309 C135.590104,33.1416309 132.113475,33.290116 132.378001,35.7252719 C132.425903,36.5271953 132.814336,37.2643967 133.436474,37.7341338 C134.058611,38.2038709 134.848939,38.3566773 135.590104,38.1505287 C135.590104,38.1505287 137.167814,38.0416396 137.422892,35.7252719 C137.522995,35.1255594 137.383362,34.5091017 137.036743,34.0204811 C136.690124,33.5318606 136.167015,33.2140655 135.590104,33.1416309 Z" id="Path" fill="#FFFFFF"></path>
                        <path d="M89.7690293,33.9914163 C89.7690293,33.9914163 86.29867,34.1139968 86.5594484,36.1453309 C86.6094854,36.8123317 86.9979144,37.4250347 87.6187566,37.8162702 C88.2395988,38.2075057 89.0280647,38.3364453 89.7690293,38.1679092 C89.7690293,38.1679092 91.34373,38.071596 91.6045084,36.1453309 C91.7050493,35.6451192 91.5652772,35.1308355 91.2180459,34.7233633 C90.8708146,34.3158912 90.346748,34.0511675 89.7690293,33.9914163 Z" id="Path" fill="#FFFFFF"></path>
                        <path d="M130.583427,38.2403433 C130.583427,38.2403433 128.854759,38.3217754 128.975766,39.5342084 C129.002089,39.9341377 129.197068,40.30106 129.50778,40.5353867 C129.818493,40.7697135 130.212707,40.8471363 130.583427,40.7466413 C130.583427,40.7466413 131.369971,40.6923533 131.499622,39.5342084 C131.549113,39.2343829 131.479177,38.9264194 131.30609,38.6819827 C131.133003,38.4375461 130.871859,38.2779536 130.583427,38.2403433 L130.583427,38.2403433 Z" id="Path" fill="#FFFFFF"></path>
                        <path d="M85.6137304,38.2403433 C85.6137304,38.2403433 83.8850621,38.3217754 84.0060688,39.5342084 C84.0323924,39.9341377 84.2273706,40.30106 84.5380831,40.5353867 C84.8487957,40.7697135 85.2430101,40.8471363 85.6137304,40.7466413 C85.6137304,40.7466413 86.4002745,40.6923533 86.5299246,39.5342084 C86.5794155,39.2343829 86.5094803,38.9264194 86.3363931,38.6819827 C86.1633059,38.4375461 85.9021618,38.2779536 85.6137304,38.2403433 Z" id="Path" fill="#FFFFFF"></path>
                        <path d="M141.652499,17.8454936 C140.31615,17.3308162 138.90197,16.9908344 137.454545,16.8362674 C137.454545,16.8362674 139.654389,14.1987099 141.018483,13.5965665 C141.018483,13.5965665 141.902263,16.9380381 141.652499,17.8454936 Z" id="Path" fill="#C4C3C6"></path>
                        <path d="M96.7272727,64.8439529 C96.7272727,64.8439529 96.9348924,68.0808848 98.4574369,69.6824034 C98.4574369,69.6824034 100.334665,67.2165731 100.101093,66.030263 L99.0889468,63.7339056 C99.0889468,63.7339056 97.2030679,64.6575327 96.7272727,64.8439529 Z" id="Path" fill="#C4C3C6"></path>
                        <path d="M46.6196348,94.3261803 C46.5011769,96.4647439 50.015428,99.1240013 50.015428,99.1240013 C50.5879745,101.439229 45.5633851,103.326744 43.7272877,102.703771 C41.8911902,102.080798 42.5328371,97.7292859 42.5328371,97.7292859 L46.6196348,94.3261803 Z" id="Path" fill="#FFFFFF"></path>
                        <path d="M50.9090909,92.1765038 C50.9090909,92.1765038 51.7929293,95.106298 53.1098485,95.1746599 C54.4267677,95.2430218 56.8484848,92.606207 56.8484848,92.1765038 C56.1631777,90.7448734 55.8108533,89.147396 55.8232323,87.527897 C55.8232323,87.527897 52.2525253,89.529923 50.9090909,92.1765038 Z" id="Path" fill="#FFFFFF"></path>
                        <path d="M128.121212,80.0236915 C128.121212,80.0236915 130.539876,78.883899 130.441155,77.3304721 C130.441155,77.3304721 136.16697,81.2186353 133.215214,82.8455972 C130.974248,84.1508435 129.108422,82.3032766 128.121212,80.0236915 Z" id="Path" fill="#C4C3C6"></path>
                        <path d="M90.7878788,120.633603 C90.7878788,120.633603 91.0636364,124.16389 91.9106061,124.918455 C91.9106061,124.918455 99.3363636,123.032042 101.818182,121.711553 C101.818182,121.711553 99.3363636,117.902796 99.5234848,116.420615 C99.5234848,116.411632 91.9007576,120.768347 90.7878788,120.633603 Z" id="Path" fill="#C4C3C6"></path>
                        <path d="M74.8514528,123.742288 C74.8514528,123.742288 74.1212948,129.145491 75.563802,130.866953 C75.563802,130.866953 83.5777308,129.483813 85.6969697,128.011117 C84.8108483,126.262219 84.2079722,124.352236 83.9160966,122.369099 C83.9160966,122.369099 77.2823445,122.597964 74.8514528,123.742288 Z" id="Path" fill="#C4C3C6"></path>
                        <path d="M101.818182,113.637277 C102.542038,115.748229 103.398908,117.813028 104.383838,119.819742 C106.671206,118.762837 108.692396,117.223502 110.30303,115.311695 C110.30303,115.311695 107.939394,110.209179 107.929293,108.772548 C107.929293,108.76264 102.939394,113.359858 101.818182,113.637277 Z" id="Path" fill="#C4C3C6"></path>
                        <path d="M69.7877614,62.0343348 C71.0847114,62.9935588 72.4299771,63.8846521 73.8181818,64.7040531 C73.8181818,64.7040531 71.6719829,67.7493592 69.0522096,67.9828326 C69.0320575,67.9828326 67.9740722,64.5010327 69.7877614,62.0343348 Z" id="Path" fill="#C4C3C6"></path>
                        <path d="M60.2431934,86.1534287 C60.2431934,86.1534287 60.1592882,91.1793383 61.7441645,91.776824 C63.2795934,91.6609651 64.7815644,91.2922011 66.1818182,90.6872912 C66.1818182,90.6872912 65.0071451,87.9634591 66.1818182,85.8283262 C66.1818182,85.8283262 60.9330807,86.7333414 60.2431934,86.1534287 Z" id="Path" fill="#FFFFFF"></path>
                        <path d="M84.1057668,97.1441835 C85.8870516,96.5947051 87.6269898,95.9371981 89.3141946,95.1759657 C89.3141946,95.1759657 90.9876605,99.1817659 91.6363636,99.6846585 C91.6363636,99.6846585 85.0553177,101.583512 81.4545455,101.019925 C81.4545455,101.019925 84.0399564,98.4707797 84.1057668,97.1441835 Z" id="Path" fill="#FFFFFF"></path>
                        <path d="M110.30303,104.855902 C110.30303,104.855902 111.454338,110.275601 114.434194,110.467449 C117.414049,110.659297 118.787879,104.855902 118.787879,104.855902 C118.787879,104.855902 115.150133,102.51536 115.00501,101.124464 C115.00501,101.124464 111.763934,104.961419 110.30303,104.855902" id="Path" fill="#C4C3C6"></path>
                        <path d="M120.848038,92.6266094 C120.848038,92.6266094 118.565582,95.2689772 117.090909,95.7201132 C117.090909,95.7201132 118.29319,100.323541 120.735324,101.069297 C123.177457,101.815052 124.727273,94.7533932 124.727273,94.7533932 C124.727273,94.7533932 121.928212,94.0352585 120.848038,92.6266094 Z" id="Path" fill="#C4C3C6"></path>
                        <path d="M115.112132,85.8283262 C115.112132,85.8283262 117.014331,88.5640415 118.787879,88.9720804 C118.787879,88.9720804 116.269992,92.8484499 113.844,92.6166096 C113.844,92.6166096 111.169894,90.9566332 111.151515,88.3322012 C111.188273,88.3322012 114.092112,87.0524429 115.112132,85.8283262 Z" id="Path" fill="#C4C3C6"></path>
                        <path d="M102.398164,101.124464 C102.398164,101.124464 104.995665,104.251209 106.909091,104.150347 C106.909091,104.150347 103.984424,107.44214 101.178727,107.038689 C99.1699591,106.47645 98.0098136,104.537749 98.5613984,102.664913 C99.8928469,102.271502 101.178217,101.75543 102.398164,101.124464 Z" id="Path" fill="#C4C3C6"></path>
                        <path d="M95.0874892,107.072961 C95.0874892,107.072961 98.2096577,110.702115 99.2727273,111.175483 C99.2727273,111.175483 95.5280406,115.426513 92.0036296,114.619003 C92.0036296,114.619003 89.7051007,110.739242 91.4289974,107.769091 C92.6670215,107.640335 93.8911362,107.407413 95.0874892,107.072961 Z" id="Path" fill="#C4C3C6"></path>
                        <path d="M108.879062,93.4774734 C108.879062,93.4194566 111.846941,95.720791 112.848485,95.8464942 C112.848485,95.8464942 111.442648,101.909253 108.208303,101.039001 C108.208303,101.039001 105.157729,100.516849 105.21286,95.720791 C106.648831,95.4535596 107.948038,94.6585862 108.879062,93.4774734 L108.879062,93.4774734 Z" id="Path" fill="#C4C3C6"></path>
                        <path d="M128.550221,85.8283262 C128.550221,85.8283262 131.362615,89.3834318 134.060606,89.1997054 C134.060606,89.1997054 132.249234,93.1773818 129.026898,92.5618984 C129.026898,92.5618984 125.385087,92.3597993 124.727273,89.4385497 C124.736806,89.4385497 128.178413,86.9306845 128.550221,85.8283262 Z" id="Path" fill="#C4C3C6"></path>
                        <path d="M120.417737,77.3304721 C120.417737,77.3304721 123.456942,80.4693441 125.575758,80.8605658 C125.575758,80.8605658 123.226845,86.3831609 120.456086,85.7826811 C117.685328,85.1822012 117.090909,81.7976783 117.090909,81.7976783 C118.491479,80.5248537 119.620945,79.0082263 120.417737,77.3304721 Z" id="Path" fill="#C4C3C6"></path>
                        <path d="M108.919465,79.8798283 C108.919465,79.8798283 112.454818,80.9465866 113.69697,81.1992398 C113.69697,81.1992398 110.534262,85.4101276 107.916189,84.9422512 C105.298116,84.4743748 105.212121,81.1992398 105.212121,81.1992398 C106.514031,80.9637043 107.766895,80.517821 108.919465,79.8798283 Z" id="Path" fill="#C4C3C6"></path>
                        <path d="M86.5466489,66.6861773 C86.5466489,66.6861773 91.9166488,66.2529123 93.3333333,65.4334764 C93.3333333,65.4334764 92.8260071,71.6027929 89.9447772,73.0815451 C87.7807711,71.6568293 86.5007426,69.2477818 86.5466489,66.6861773 Z" id="Path" fill="#C4C3C6"></path>
                        <path d="M121.336149,64.583691 L126.259686,65.8333754 C126.259686,65.8333754 127.19572,70.4222166 124.602907,73.0815451 C122.451892,70.8595943 121.267639,67.7789832 121.336149,64.583691 Z" id="Path" fill="#C4C3C6"></path>
                        <path d="M77.2121212,65.4334764 C77.2121212,65.4334764 80.5876768,67.1569848 83.1515152,66.994209 C82.9365739,69.0988423 81.7881001,71.0097131 80.0036364,72.2317597 C78.5086435,70.2225514 77.5497519,67.8873263 77.2121212,65.4334764 L77.2121212,65.4334764 Z" id="Path" fill="#C4C3C6"></path>
                        <path d="M126.424242,99.5339561 C126.424242,99.5339561 128.683807,101.088109 129.914627,101.124464 C129.914627,101.124464 133.037602,97.3072456 133.212121,96.0257511 C133.212121,96.0257511 129.115512,96.9346125 128.19699,96.2257006 C128.19699,96.2257006 127.765285,98.7705125 126.424242,99.5339561 Z" id="Path" fill="#C4C3C6"></path>
                        <path d="M145.090909,62.3813642 C146.576333,61.5877045 147.968138,60.6156769 149.23812,59.4849785 C149.23812,59.4849785 151.731989,62.564802 150.836044,65.4322238 C148.554883,65.4767207 146.401717,64.3333174 145.090909,62.3813642 L145.090909,62.3813642 Z" id="Path" fill="#C4C3C6"></path>
                        <path d="M67.030303,59.8495729 C67.030303,59.8495729 64.4332831,56.904772 63.8144986,55.2360515 C62.7009085,57.0118426 62.0541408,59.0636193 61.9393939,61.1845494 C61.9393939,61.1845494 65.8677382,60.8508053 67.030303,59.8495729 Z" id="Path" fill="#C4C3C6"></path>
                        <path d="M45.341255,158.909871 C45.341255,158.909871 92.6875678,113.357824 98.4242424,98.5751073 C98.4242424,98.5751073 49.5125298,148.037481 28,156.940709 L45.341255,158.909871 Z" id="Path" fill="#010101"></path>
                        <path d="M84.0255338,17.1710182 C85.7306681,17.2309814 87.4265855,17.4567997 89.0909091,17.8454936 C89.0909091,17.8454936 87.3994355,13.0585921 85.6084636,11.8969957 C85.6084636,11.8969957 83.7632197,14.6698388 84.0255338,17.1710182 Z" id="Path" fill="#C4C3C6"></path>
                        <path d="M64.0237154,28.8927039 C64.0237154,28.8927039 67.0764163,23.6210383 68.7272727,22.944206 C68.7272727,22.944206 63.6732543,23.2778557 62.7878788,23.449447 C62.7878788,23.449447 63.0922266,28.4637257 64.0237154,28.8927039 Z" id="Path" fill="#C4C3C6"></path>
                        <path d="M72.969697,21.2446352 C72.969697,21.2446352 74.2362559,19.7067309 78.9090909,18.2752224 C78.9090909,18.2752224 75.5507906,16.1666492 73.9100211,15.2961373 C73.3591846,17.233361 73.0434383,19.2307749 72.969697,21.2446352 Z" id="Path" fill="#C4C3C6"></path>
                        <path d="M145.090909,20.8640959 C145.090909,20.8640959 149.782618,23.4198801 150.452862,24.6437768 C150.777916,22.6724507 150.970724,20.686234 151.030303,18.695279 C148.871192,18.9650184 146.826791,19.7115476 145.090909,20.8640959 L145.090909,20.8640959 Z" id="Path" fill="#C4C3C6"></path>
                        <path d="M154.041109,52.6866953 C154.041109,52.6866953 152.234625,56.2342649 151.030303,56.6917147 C151.030303,56.6917147 152.826751,59.9312059 156.931483,58.0453926 C157.196972,55.8838087 156.062673,53.7808412 154.041109,52.6866953 Z" id="Path" fill="#C4C3C6"></path>
                        <path d="M154.424242,50.1373391 C156.426652,50.0430424 158.415273,49.7683294 160.363636,49.3168566 C160.363636,49.3168566 158.411099,45.4097972 156.346112,44.1888412 C155.888347,46.2214507 155.24527,48.2118781 154.424242,50.1373391 L154.424242,50.1373391 Z" id="Path" fill="#C4C3C6"></path>
                        <path d="M155.272727,35.6909871 C155.272727,35.6909871 156.686417,39.4263076 156.221512,41.639485 C156.221512,41.639485 159.826895,40.2387398 161.212121,38.2403433 C161.193146,38.2403433 158.318327,35.8030467 155.272727,35.6909871 Z" id="Path" fill="#C4C3C6"></path>
                        <path d="M152.727273,28.3062627 C153.716694,29.5574687 154.567817,30.8923148 155.268554,32.2918455 C156.517517,31.0186602 157.653683,29.6597714 158.666667,28.2275999 C156.69576,27.9572908 154.688438,27.9838763 152.727273,28.3062627 L152.727273,28.3062627 Z" id="Path" fill="#C4C3C6"></path>
                        <path d="M116.523963,22.0944206 C116.523963,22.0944206 120.39387,19.3646199 123.030303,17.9118108 C122.118439,15.5222876 120.534771,13.4364234 118.463625,11.8969957 C118.463625,11.8969957 115.299905,14.9229104 116.523963,22.0944206 Z" id="Path" fill="#C4C3C6"></path>
                        <path d="M126.424242,16.9957082 C128.393209,16.8607103 130.369367,16.8607103 132.338333,16.9957082 C132.511205,14.8308072 131.793041,12.6882072 130.344495,11.0472103 C128.471521,12.6093699 127.108143,14.6781267 126.424242,16.9957082 Z" id="Path" fill="#C4C3C6"></path>
                        <path d="M62.7878788,50.9792154 C62.7878788,50.9792154 60.9727839,46.4305257 61.2047127,45.0386266 C59.6196067,46.4468667 58.1628193,47.9680162 56.8484848,49.5873163 C56.8484848,49.5873163 60.2971652,51.2794289 62.7878788,50.9428259" id="Path" fill="#C4C3C6"></path>
                        <path d="M94.2087573,18.2805028 C96.7838049,18.8521113 99.3240888,19.557952 101.818182,20.3948498 C101.818182,20.3948498 99.680157,13.8014255 96.8618516,11.0472103 C96.8618516,11.0472103 93.868617,15.0069742 94.2087573,18.2805028 Z" id="Path" fill="#C4C3C6"></path>
                    </g>
                </g>
            </g>
        </g>
    </g>
</svg>
