<svg xmlns="http://www.w3.org/2000/svg" viewBox="0 0 660 600">
    <g fill="none" fill-rule="evenodd">
        <path d="M373.34 379.61h6.653v6.653h-6.653v6.67h6.653v6.67h-6.653v6.654h-6.67v6.67h6.67v-6.654h6.653v6.653h-6.653v6.674h6.67v-6.67h6.653v-6.653h6.67v6.653h6.67v-6.653h6.653v6.653h-6.653v6.67h6.67v-6.67h6.653v6.67H420v-6.67h-6.67v-6.653H420v-6.67h-6.67v-6.67H420v-6.67h-6.67v-6.67h-6.653v-6.654h-6.67v6.654h-6.67v-6.654h-6.67v6.654h-6.654v-6.654h-6.67v6.654h-6.67v6.67h6.67v-6.657h-.003zm39.99-.016v-6.654H420v6.67h-6.67v-.016zm-19.993 33.336v6.67h-6.67v-6.67h6.67zm-19.997-13.324v-6.67h-6.67v6.67h6.67zm33.337 6.654h6.653v-6.654h-6.653v6.654zm-.017-33.32v-6.67h-6.653v6.67h-6.67v-6.67h-6.67v6.67h-6.67v-6.67h-6.654v6.67h-6.67v-6.67h6.67v-6.67h6.67v6.67h6.653v-6.67h6.67v6.67h6.67v-6.67h6.67v6.67h6.654v-6.67H420v6.67h-6.67v6.67h-6.67zm-26.647 13.323v6.67h6.653v-6.67h-6.653zm13.324 0v-6.653h-6.67v6.653h6.67zm6.67 0h-6.67v6.67h6.67v-6.67zm0 0h6.653v-6.653h-6.653v6.653zm0 13.343h6.653v-6.67h-6.653v6.67zm-6.67 0v6.654h6.67v-6.654h-6.67zm-6.674 0h6.67v-6.67h-6.67v6.67zm0 0h-6.653v6.654h6.653v-6.654zm20.014-6.67v-6.67h6.653v6.67h-6.653zM360 412.93h6.67v6.67H360v-6.67zm6.67-13.324H360v6.67h6.67v-6.67zM360 386.263h6.67v6.67H360v-6.67zm6.67-13.323H360v6.67h6.67v-6.67zm0-13.34H360v6.67h6.67v-6.67zM73.34 379.61h6.653v6.653H73.34v6.67h6.653v6.67H73.34v6.654h-6.67v6.67h6.67v-6.654h6.653v6.653H73.34v6.674h6.67v-6.67h6.653v-6.653h6.67v6.653h6.67v-6.653h6.653v6.653h-6.653v6.67h6.67v-6.67h6.653v6.67H120v-6.67h-6.67v-6.653H120v-6.67h-6.67v-6.67H120v-6.67h-6.67v-6.67h-6.653v-6.654h-6.67v6.654h-6.67v-6.654h-6.67v6.654h-6.654v-6.654h-6.67v6.654h-6.67v6.67h6.67v-6.657h-.003zm39.99-.016v-6.654H120v6.67h-6.67v-.016zM93.337 412.93v6.67h-6.67v-6.67h6.67zM73.34 399.606v-6.67h-6.67v6.67h6.67zm33.337 6.654h6.653v-6.654h-6.653v6.654zm-.017-33.32v-6.67h-6.653v6.67h-6.67v-6.67h-6.67v6.67h-6.67v-6.67h-6.654v6.67h-6.67v-6.67h6.67v-6.67h6.67v6.67h6.653v-6.67h6.67v6.67h6.67v-6.67h6.67v6.67h6.654v-6.67H120v6.67h-6.67v6.67h-6.67zm-26.647 13.323v6.67h6.653v-6.67h-6.653zm13.324 0v-6.653h-6.67v6.653h6.67zm6.67 0h-6.67v6.67h6.67v-6.67zm0 0h6.653v-6.653h-6.653v6.653zm0 13.343h6.653v-6.67h-6.653v6.67zm-6.67 0v6.654h6.67v-6.654h-6.67zm-6.674 0h6.67v-6.67h-6.67v6.67zm0 0H80.01v6.654h6.653v-6.654zm20.014-6.67v-6.67h6.653v6.67h-6.653zM60 412.93h6.67v6.67H60v-6.67zm6.67-13.324H60v6.67h6.67v-6.67zM60 386.263h6.67v6.67H60v-6.67zm6.67-13.323H60v6.67h6.67v-6.67zm0-13.34H60v6.67h6.67v-6.67z" fill="#4038FF"/>
        <path d="M493.34 20.01h6.653v6.653h-6.653v6.67h6.653v6.67h-6.653v6.654h-6.67v6.67h6.67v-6.654h6.653v6.653h-6.653V60h6.67v-6.67h6.653v-6.653h6.67v6.653h6.67v-6.653h6.653v6.653h-6.653V60h6.67v-6.67h6.653V60H540v-6.67h-6.67v-6.653H540v-6.67h-6.67v-6.67H540v-6.67h-6.67v-6.67h-6.653v-6.654h-6.67v6.654h-6.67v-6.654h-6.67v6.654h-6.654v-6.654h-6.67v6.654h-6.67v6.67h6.67V20.01h-.003zm39.99-.016V13.34H540v6.67h-6.67v-.016zM513.337 53.33V60h-6.67v-6.67h6.67zM493.34 40.006v-6.67h-6.67v6.67h6.67zm33.337 6.654h6.653v-6.654h-6.653v6.654zm-.017-33.32V6.67h-6.653v6.67h-6.67V6.67h-6.67v6.67h-6.67V6.67h-6.654v6.67h-6.67V6.67h6.67V0h6.67v6.67h6.653V0h6.67v6.67h6.67V0h6.67v6.67h6.654V0H540v6.67h-6.67v6.67h-6.67zm-26.647 13.323v6.67h6.653v-6.67h-6.653zm13.324 0V20.01h-6.67v6.653h6.67zm6.67 0h-6.67v6.67h6.67v-6.67zm0 0h6.653V20.01h-6.653v6.653zm0 13.343h6.653v-6.67h-6.653v6.67zm-6.67 0v6.654h6.67v-6.654h-6.67zm-6.674 0h6.67v-6.67h-6.67v6.67zm0 0h-6.653v6.654h6.653v-6.654zm20.014-6.67v-6.67h6.653v6.67h-6.653zM480 53.33h6.67V60H480v-6.67zm6.67-13.324H480v6.67h6.67v-6.67zM480 26.663h6.67v6.67H480v-6.67zm6.67-13.323H480v6.67h6.67v-6.67zm0-13.34H480v6.67h6.67V0z" fill="#1F242C"/>
        <path d="M306.67 359.6H300v-60h6.67v60zm6.663 0H320v-60h-6.667v60zm13.333 0h6.667v-60h-6.667v60zm20 0H340v-60h6.667v60zm6.667 0H360v-60h-6.667v60z" fill="#4038FF"/>
        <path d="M299 485.67V479h60v6.67h-60zm0 6.663V499h60v-6.667h-60zm0 13.334v6.666h60v-6.666h-60zm0 20V519h60v6.667h-60zm0 6.666V539h60v-6.667h-60zM360 126.27v-6.67h60v6.67h-60zm0 6.663v6.667h60v-6.667h-60zm0 13.334v6.666h60v-6.666h-60zm0 20V159.6h60v6.667h-60zm0 6.666v6.667h60v-6.667h-60zM120 306.27v-6.67h60v6.67h-60zm0 6.663v6.667h60v-6.667h-60zm0 13.334v6.666h60v-6.666h-60zm0 20V339.6h60v6.667h-60zm0 6.666v6.667h60v-6.667h-60zM360 292.93v6.67h60v-6.67h-60zm0-20.003v-6.67h60v6.67h-60zm0-20.004v6.67h60v-6.67h-60zm0-13.323v6.67h60v-6.67h-60zm0 46.66v-6.67h60v6.67h-60z" fill="#1F242C"/>
        <path d="M473.333 479.6H480c0-33.137-26.863-60-60-60v6.667c29.457 0 53.333 23.876 53.333 53.333zm-13.333 0h6.667c0-25.773-20.894-46.667-46.667-46.667v6.667c22.09 0 40 17.91 40 40zm-6.667 0h-6.667c0-14.727-11.94-26.667-26.666-26.667v-6.666c18.41 0 33.333 14.923 33.333 33.333zm-20 0H440c0-11.047-8.953-20-20-20v6.667c7.363 0 13.333 5.97 13.333 13.333zm-13.333 0h6.667a6.665 6.665 0 00-6.667-6.667v6.667z" fill="#FFF"/>
        <path d="M60 186.267V179.6c-33.137 0-60 26.863-60 60h6.667c0-29.457 23.876-53.333 53.333-53.333zm0 13.333v-6.667c-25.773 0-46.667 20.894-46.667 46.667H20c0-22.09 17.91-40 40-40zm0 6.667v6.667c-14.727 0-26.667 11.94-26.667 26.666h-6.666c0-18.41 14.923-33.333 33.333-33.333zm0 20V219.6c-11.047 0-20 8.953-20 20h6.667c0-7.363 5.97-13.333 13.333-13.333zm0 13.333v-6.667a6.665 6.665 0 00-6.667 6.667H60z" fill="#1F242C"/>
        <path d="M180 238h60v60c-33.137 0-60-26.863-60-60z" fill="#4038FF" fill-rule="nonzero"/>
        <path d="M600 359.6h-60v-60c33.137 0 60 26.863 60 60zM179.4 539.6h60v60c-33.137 0-60-26.863-60-60z" fill="#1F242C" fill-rule="nonzero"/>
        <path d="M473.33 600H480v-60h-6.67v60zm-20.003 0h-6.67v-60h6.67v60zm-20.004 0h6.67v-60h-6.67v60zM420 600h6.67v-60H420v60zm46.66 0h-6.67v-60h6.67v60z" fill="#4038FF"/>
        <path d="M653.33 479.6H660v-60h-6.67v60zm-20.003 0h-6.67v-60h6.67v60zm-20.004 0h6.67v-60h-6.67v60zm-13.323 0h6.67v-60H600v60zm46.66 0h-6.67v-60h6.67v60zM172.73 119.6h6.67v-60h-6.67v60zm-20.003 0h-6.67v-60h6.67v60zm-20.004 0h6.67v-60h-6.67v60zm-13.323 0h6.67v-60h-6.67v60zm46.66 0h-6.67v-60h6.67v60z" fill="#1F242C"/>
        <g fill-rule="nonzero">
            <path d="M406.717 511.27s-9.812-.365-14.718 3.509c0 0-11.507-7.362-33.816-2.028l-8.399-33.947s-8.075-36.279 3.11-52.725c7.55-11.174 22.934-25.835 41.124-46.925 8.076-9.45 18.493-16.852 27.517-24.599 11.73-10.139 13.709-27.924 13.224-42.788-.686-20.705-13.224-39.95-13.224-39.95s-120.547-14.053-138.98-2.9c0 0-76.972 48.188-140.748 129.83a19.04 19.04 0 014.32 2.029s-17.685 23.645-17.564 41.125a19.51 19.51 0 00.707 9.693 88.545 88.545 0 011.554 12.026c-.073 3.626.042 7.254.343 10.87 0 0-2.321 19.262-2.907 21.027-.585 1.764 0 13.363 0 13.363s63.002-27.482 70.593-31.903c0 0 31.898-5.656 43.587-7.704 0 0 10.62 13.648 11.79 16.223l5.108 27.944s-10.437 1.805-14.132 5.678c-1.574 0-18.937-2.474-24.913 4.32 0 0-3.008 12.37-1.534 14.418s8.075 1.5 10.094-.568c0 0 10.7 11.823 21.542 10.647 10.841-1.177 25.76-8.376 37.47-5.72 11.71 2.657 29.395 7.849 40.237 4.787a117.93 117.93 0 0022.389-9.694l3.17 2.616s1.19-1.176.908-2.028c0 0 33.21 3.347 42.397 7.97 12.719 6.469 27.012-9.754 27.012-9.754s1.292.365 4.038.872c-.141.02 5.613-26.606-21.3-25.714zm-85.6.244c-5.654.142-7.33 2.028-7.33 2.028l-15.403-1.826c-1.272-2.372-7.309-30.418-7.309-30.418-.202-4.056 4.038-15.108 4.038-15.108a21.82 21.82 0 006.965-1.399c2.847 3.529 16.858 20.28 16.858 20.28 2.584 6.752 2.24 26.443 2.24 26.443h-.06z" fill="#010101"/>
            <path d="M330.061 514.068s10.573 1.084 15.623 6.523l1.532-.563-6.715-34.177s-7.716 2.21-11.537 5.814l1.097 22.403zM354.517 523.837s14.418-9.067 35.393-2.96l1.689 6.167s28.998-1.13 26.666 4.914c-2.333 6.045-14.077 8.08-19.91 6.292-5.83-1.79-21.858-9.376-40.219-6.97a58.577 58.577 0 00-3.62-7.443zM269.092 492.235l-.998 30.644a45.243 45.243 0 00-18.155 2.904s1.548 5.375-1.1 6.055c-2.65.68-12.96 2.286-12.96 2.286l.734.947s12.368 6.9 19.235 3.583c5.562-2.697 12.755-6.178 28.526-5.93 15.77.247 23.982 8.71 33.946 7.928 9.964-.782 22.597-3.892 25.245-7.249 0 0-2.872-4.49-14.16-5.149-11.289-.659-13.51-.68-15.058-7.393 0 0-14.263-.453-22.149 2.06 0 0-8.15-37.07-8.965-37.07-.815 0-11.492 2.121-14.141 6.384zM206.677 457.564c4.357-1.552 53.407-39.363 53.407-39.363-2.838 4.226-33.56 28.583-33.56 28.583s1.5.47 5.997-1.531 33.16-20.09 33.82-20.764l-10.834 12.107 14.43-9.84c3.375.79 6.834 1.14 10.295 1.04a83.593 83.593 0 00-8.355 10.086c5.996-4.655 13.751-10.657 13.751-10.657h5.717a49.499 49.499 0 01-5.717 9.024l11.673-3.94-3.118 4.47c5.177-3.94 16.21-7.717 16.21-7.717-2.179 1.348-14.57 13.863-14.57 13.863 3.057-3.328 30.14-19.804 30.14-19.804l2.5-.408c-1.52 1.776-7.796 10.78-7.796 10.78l10.693-10.658a36.194 36.194 0 018.555-2.552s-4.257 14.292-5.996 24.5c-1.88 10.596 3.238 27.665 3.238 27.665a37.607 37.607 0 01-11.033 4.41c-4.378-6.84-18.15-20.928-18.15-20.928l5.377-12.25c-6.292 6.12-13.916 10.626-22.246 13.149-1.18 0-2.319-10.209-2.319-10.209-3.997 4.084-9.554 28.85-9.554 28.85-.86 2.04-7.036 3.266-9.634 3.041-2.598-.224-4.917-4.206-4.917-4.206l5.697-2.388-8.455-1.777c-2.599-1.102-10.194-11.657-10.194-11.657.42-1.287 21.007-13.782 21.007-13.782l-23.186 10.964-42.873 1.899z" fill="#C4C3C6"/>
            <path d="M396.503 520.81l1.647 2.611a37.036 37.036 0 0123.899 4.483c-2.251-5.45-7.6-9.01-13.536-9.006-12.713-.758-12.01 1.913-12.01 1.913zM300.019 347.017c-22.276 20.15-84.217 57.517-84.217 57.517s17.96 9.28 49.38-6.593c31.42-15.872 60.734-46.109 63.782-50.366l-15.73 9.92 10.37-10.602s-4.397.62-6.975.682l-27.165 16.534c7.262-3.865 22.358-16.534 22.358-16.534l-11.803-.558z" fill="#FFF"/>
            <path d="M261.879 384.691s30.734-17.271 36.057-21.342c0 0-16.07 16.578-29.85 22.517a79.203 79.203 0 01-23.08 6.737l16.873-7.912z" fill="#010101"/>
            <path d="M146.445 484.023s3.46-8.566 5.231-13.937c.443-1.323 37.602-41.344 55.97-50.866h2.616c-18.952 16.42-16.477 14.791-21.346 19.471 0 0 32.512-23.663 36.898-25.209 0 0-9.637 10.824-12.071 13.042 0 0 23.64-11.007 26.919-12.777a53.855 53.855 0 01-5.493 6.592s32.532-15.667 35.389-16.766c.04.041-107.293 79.392-124.113 80.45z" fill="#C4C3C6"/>
            <path d="M178.106 451.199a138.392 138.392 0 0013.972-9.528c2.894-2.763 6.507-1.906 0 3.582-6.507 5.489-8.443 7.165-13.972 7.623-5.53.457 0-1.677 0-1.677z" fill="#010101"/>
            <path d="M323.502 519.705s-.257 2.308 1.502 2.66c2.708.535 12.137-1.053 23.919 5.54 0 0 1.186-1.607-3.954-5.707-5.14-4.1-17.593-3.97-21.467-2.493zM224.928 533.39s1.108-5.305 2.872-6.118c1.763-.813 14.027-1.45 16.078-1.096 0 0 1.64 1.503.964 2.05-.677.549-12.12 1.468-14.028 2.989-1.539 1.382-3.663 2.167-5.886 2.175z" fill="#FFF"/>
            <path d="M266.943 522.866c3.69.078 7.354.542 10.916 1.382 0 0-8.563-5.838-12.777-5.469l1.86 4.087z" fill="#010101"/>
            <path d="M203.026 412.641s-3.63-.971-3.467-4.048l-9.997 6.356 11.376-10.12-2.028-1.094c-1.764 1.093-19.386 14.513-19.386 14.513l14.904-14.675a24.5 24.5 0 01-4.055 0c-3.752 2.409-34.676 31.515-39.522 40.097-4.846 8.582-1.379 20.24-1.379 20.24s27.984-30.846 53.554-51.269zM184.774 401.745s-26.59 21.184-36.654 38.396c0 0-2.946-2.668-1.023-9.557 1.923-6.89 19.493-25.632 22.889-28.012l-4.337 8.917 10.391-9.6c2.899.455 5.852.406 8.734-.144z" fill="#C4C3C6"/>
            <path d="M267.7 187.527s-9.27-15.068-9.896-19.894a62.645 62.645 0 0126.54-4.643s-1.757-16.779 2.303-21.136c0 0 18.622 6.882 24.237 10.914 0 0-.95-18.998 6.06-22.032 0 0 16.158 8.898 17.087 15.638 0 0 2.909-15.109 10.362-17.614a158.634 158.634 0 0110.866 13.827s7.15-18.327 13.21-20.587c0 0 11.553 11.994 12.604 17.532 0 0 .525-6.394 12.118-10.772 0 0 12.12 11.933 11.574 18.917 0 0 6.06-13.48 13.896-15.048 0 0 10.24 2.973 10.463 16.29 0 0 8.968-7.411 15.189-9.814 0 0 9.816 10.894 8.321 17.145 0 0 9.978-4.561 16.32-3.156 0 0 5.191 8.145.667 20.913 0 0 17.189-1.61 20.582 2.138 0 0-4.928 16.29-7.473 17.267 0 0 13.431 5.213 15.976 9.062 0 0-11.129 12.502-13.674 13.785l11.23 14.865s-6.625 9.265-12.34 9.265c0 0 3.292 12.625 2.948 20.953 0 0-13.007 1.039-17.35-2.504 0 0 1.899 10.06.95 15.842 0 0-13.937-1.262-16.16-5.111 0 0-3.938 14.967-7.755 18.164 0 0-10.847-7.127-11.796-10.976 0 0-1.717 9.062-6.504 11.627 0 0-13.169-9.937-12.543-13.134 0 0-2.868 11.851-8.26 12.483 0 0-8.282-8.003-8.282-12.218 0 0-2.525 7.697-6.665 8.023 0 0-6.989-6.414-8.584-10.181 0 0-7.958 13.134-11.453 14.416 0 0-13.35-14.742-14.946-18.59 0 0-2.545 9.447-6.06 11.79a18.274 18.274 0 01-5.716-6.334s-5.09 10.894-8.26 11.546c0 0-6.363-2.036-8.282-5.213a23.647 23.647 0 01-9.857 6.801 37.73 37.73 0 01-7.311-8.96s-7.635 7.372-13.028 7.372c0 0-5.736-8.98-4.767-13.46 0 0-12.32 7.392-20.198 7.066 0 0-3.555-9.937-2.282-14.111 0 0-9.696-.713-12.543-2.301 0 0-3.899-12.34 2.282-19.63 0 0-16.38-10.65-18.32-15.13a104.4 104.4 0 0119.33-14.396l-18.178-15.924a56.122 56.122 0 0123.369-10.772z" fill="#010101"/>
            <path d="M356.342 254.277s12.955 27.783 16.407 30.45c0 0 10.911-23.802 12.796-32.235 0 0-9.206-12.927-13.153-18.96 0 0-10.059 15.923-16.05 20.745z" fill="#C4C3C6"/>
            <path d="M419.251 251.816s33.579-2.686 41.744-33.953c8.166-31.268-27.225-48.405-41.744-48.325-14.519.08-44.472 15.294-42.762 42.532 1.71 27.24 24.619 38.784 42.762 39.746z" fill="#FFF"/>
            <path d="M419.22 246.331s29.314-2.383 36.45-30.175c7.138-27.792-23.769-43.021-36.45-42.96-12.681.06-38.83 13.613-37.258 37.81 1.573 24.196 21.411 34.517 37.258 35.325z" fill="#C4C3C6"/>
            <path d="M420.14 242.674s25.757-2.04 32.013-26.397c6.255-24.357-20.893-37.658-32.013-37.597-11.12.062-34.119 11.914-32.708 33.089 1.41 21.175 18.766 30.212 32.708 30.905z" fill="#FFF"/>
            <path d="M416.127 237.19s14.447-1.714 17.573-5.432c0 0 16.35-14.622 11-26.34 0 0-8.475-16.712-16.33-18.655-7.855-1.942-24.807-.981-28.895 12.116-4.087 13.097-7.814 29.474 16.652 38.31z" fill="#010101"/>
            <path d="M438.233 225.941s-13.272 5.432-23.114 1.182c-6.076-2.809-10.73-7.728-12.965-13.703 0 0-2.164 11.13 8.412 15.246 10.577 4.117 22.46 3.983 25.91 0 2.961-3.411 1.757-2.725 1.757-2.725zM322.452 253.645s33.626-2.74 41.806-34.706-27.265-49.502-41.806-49.4c-14.542.101-44.432 15.628-42.695 43.473 1.736 27.846 24.518 39.72 42.695 40.633z" fill="#FFF"/>
            <path d="M321.568 248.16s30.039-2.382 37.344-30.175c7.305-27.794-24.35-43.021-37.344-42.961-12.993.06-39.799 13.606-38.162 37.818 1.637 24.212 21.915 34.517 38.162 35.317z" fill="#C4C3C6"/>
            <path d="M321.593 244.503s25.73-2.064 31.996-27.175c6.267-25.111-20.869-38.73-31.996-38.648-11.128.083-34.146 12.237-32.72 34.026 1.426 21.79 18.8 31.075 32.72 31.797z" fill="#FFF"/>
            <path d="M317.556 239.017s14.453-1.698 17.59-5.446c0 0 16.338-14.498 10.997-26.345 0 0-8.477-16.713-16.338-18.64-7.861-1.926-24.815-.994-28.885 12.116s-7.861 29.451 16.636 38.315z" fill="#010101"/>
            <path d="M341.493 227.13s-13.272 5.927-23.105 1.28c-6.084-3.064-10.742-8.45-12.968-14.99 0 0-2.165 12.183 8.396 16.767s22.579 4.336 25.937 0c2.954-3.82 1.74-3.056 1.74-3.056z" fill="#FFF"/>
            <path d="M374.02 173.195s-11.166.5-10.333 8.325c.15 2.587 1.397 4.967 3.399 6.487 2 1.52 4.546 2.018 6.935 1.36 0 0 5.077-.375 5.95-7.847a7.43 7.43 0 00-1.266-5.507c-1.126-1.575-2.82-2.594-4.684-2.818z" fill="#C4C3C6"/>
            <path d="M292.46 341.408s-80.572 50.291-83.379 50.776a64.776 64.776 0 01-18.831-.606c6.772-3.374 49.62-41.866 49.62-41.866l4.454-.687c-.834 1.677-18.079 17.983-18.079 17.983 2.827-2.505 23.184-17.983 23.184-17.983l4.23-1.131c-1.688 2.02-12.995 11.8-12.995 11.8l14.398-10.386 3.132-2.263a23.798 23.798 0 015.368-.566l-10.168 8.73 13.036-8.467 26.03-5.334zM294.573 279.629c1.216 1.566-.73 3.739-.73 3.739 2.676-2.214 4.826-3.676 4.826-3.676.284 2.214 3.325 13.93 5.474 13.095 2.15-.835 8.11-7.978 8.11-7.978l-.263 7.477 2.981-8.877 1.784-1.086s3.366 12.052 5.78 12.052c2.412 0 8.82-7.248 8.82-7.248l.527 7.916c.527-2.214 3.406-10.088 3.406-10.088.548 2.757 7.26 6.266 7.26 6.266s1.033 10.443 1.824 7.978c.608-1.9 4.157-8.751 4.157-8.751 7.766 13.513-6.306 34.504-6.306 34.504-8.881 0-6.793-17.586-6.793-17.586-.264 1.378-12.389 10.318-18.066 11.111-3.853.544-2.251-16.395-2.251-16.395-1.338 3.05-19.526 9.545-25.163 8.98-5.637-.563 3.02-15.037 3.02-15.037s-37.673 9.19-25.446-4.178c7.624-8.584 25.548-14.16 27.049-12.218zM217.619 345.072c.577-.398-13.919 16.412-13.919 16.412l16.97-16.373 1.588 3.004a14.124 14.124 0 004.496 2.825c-3.67 4.477-55.118 40.645-55.118 40.645 1.732 1.114 6.186 3.62 6.186 3.62l-1.196 1.055a21.514 21.514 0 01-10.104-3.88s23.012-28.449 51.097-47.308zM279.684 327.12a41.99 41.99 0 01-9.056 8.239s5.527-9.55 4.286-8.497a34.19 34.19 0 01-6.962 1.429s-7.446 8.1-15.144 9.728c0 0 .64-.516-2.327 3.375 0 0 19.74.576 28.776-5.757a34.258 34.258 0 01.427-8.517z" fill="#FFF"/>
            <path d="M320.784 370.658l4.09-5.481s-3.84.199-6.433 0c0 0-5.07 8.46 0 10.884 0 0 7.009.794 10.523-2.423a19.727 19.727 0 01-3.11-6.852s-3.323 3.833-4.091 4.826l-.98-.954zM277.887 414.777l4.01-7.547s-4.785 1.028-7.944 1.3c0 0-4.653 11.387 2.062 13.327 0 0 10.894-1.144 14.62-5.82 0 0-6.487-3.88-7.225-7.06 0 0-3.367 5.373-4.142 6.75l-1.38-.95zM303.702 410.349s-2.084 9.597 4.917 11.508c0 0 9.169-.422 13.044-4.99a46.948 46.948 0 01-5.334-9.637l-12.627 3.119z" fill="#C4C3C6"/>
            <path d="M288.81 321.111s-.141 14.384 6.518 14.795c6.658.411 13.559-7.007 13.559-7.007a69.33 69.33 0 01-3.31-11.26s-14.75 3.472-16.767 3.472z" fill="#FFF"/>
            <path d="M426.55 262.787c3.26 7.324-2.708 14.627-2.708 14.627-5.04-1.067-9.094-12.76-9.094-12.76l11.803-1.867zM390.544 259.13l2.248 1.715c.214 2.569-.214 5.156-1.228 7.427-1.937-.628-2.369-3.891-2.369-3.891l1.349-5.251zM433 262.49s5.125 8.853 10.425 9.439c0 0 4.558-8.646.981-12.8A55.299 55.299 0 01433 262.49z" fill="#C4C3C6"/>
            <path d="M389.194 525.12c0 1.15-10.693-.718-17.361 2.23-6.668 2.947-5.652-6.807.833-6.759 6.485.048 16.65-.264 16.528 4.53zM312.536 523.682c.122 1.163-11.311-1.261-17.494 2.956s-5.757-3.35.629-4.513c6.385-1.162 16.359-3.428 16.865 1.557z" fill="#FFF"/>
            <path d="M358.188 321.228c-.293 0 2.564-7.506 2.525-8.708-.04-1.202 3.288.85 6.458 1.849.88.277-3.112 7.71-8.983 6.859zM343.243 396.26l-16.104 5.113s1.9 10.908 5.18 15c0 0 7.31-.141 18.547-11.631 0 0-7.456-6.477-7.623-8.482M307.214 377.976l-11.103 8.08s.74 2.39 8.142 0c7.403-2.391 3.96-3.707 2.961-8.08zM354.042 328.609l-5 7.096s1.851 1.03 5.51-1.393c3.658-2.423.787-3.237-.51-5.703z" fill="#C4C3C6"/>
            <path d="M332.378 467.214s-6.643 3.357-8.43-10.628c-1.788-13.985 1.942-18.537 6.08-24.964 4.138-6.426 8.664-5.664 4.72 2.616-5.1 10.159-5.958 22.116-2.37 32.976zM277.543 473.05s-6.333.451-4.967-9.834c1.367-10.284 3.177-14.062 7.989-17.428 4.812-3.367 5.774-2.69 3.214 3.797a77.245 77.245 0 00-6.236 23.465z" fill="#FFF"/>
            <path d="M270.558 195.15c-2.208-.33-9.126 5.479-9.126 5.479 1.26 2.593 6.79 7.306 6.79 7.306l2.336-12.786zM366.422 162.225a30.758 30.758 0 00-2.78-11.76s2.76-7.819 6.139-8.353a46.915 46.915 0 016.638 12.704 43.178 43.178 0 00-.2 5.91 20.874 20.874 0 00-9.797 1.499z" fill="#C4C3C6"/>
            <path d="M371.317 264.615s5.53-12.409 8.752-18.593l-9.126-12.49.374 31.083z" fill="#FFF"/>
            <path d="M398.906 357.825c2.169-.821 12.191-9.328 12.191-9.328-4.143.989-8.07-3.432-8.07-3.432-1.67 1.679-6.334 13.562-4.121 12.76zM380.496 372.469a99.409 99.409 0 008.7-7.292c-2.441.39-4.932.39-7.373 0-.929.911-2.52 7.748-1.327 7.292zM361.11 394.405c1.513.697 9.833-12.772 9.833-12.772a49.525 49.525 0 01-12.738 7.659c-.272 2.244.945 4.385 2.906 5.113z" fill="#C4C3C6"/>
            <path d="M376.066 179.894s-.154 2.932 1.653 3.284c1.808.353 2.733-3.822 2.535-5.176-.309-1.855-2.204-5.102-7.648-3.525-5.444 1.577-5.686 2.319-4.562 3.562 1.124 1.243 6.171-3.302 8.022 1.855zM254.339 410.25l14.394-6.677s-107.012 78.621-122.288 78.621L254.34 410.25zM176.474 451.103c3.75-1.064 7.21-2.811 10.168-5.132 2.907-1.966 7.178-3.95 9.008-6.826a.516.516 0 00-.052-.608.67.67 0 00-.64-.21c-3.497.8-6.67 3.858-9.537 5.787-2.867 1.93-6.242 3.968-9.475 5.843-.269.172-.37.487-.244.76.126.274.446.434.772.386zM149.157 463.91s49.229-48.4 53.87-49.897a11.763 11.763 0 01-2.373-1.298s-27.305 21.776-52.383 46.325l.886 4.87zM428.989 193.308s-7.479.319-6.91 5.558c.103 1.726.939 3.312 2.277 4.323a5.304 5.304 0 004.633.896s3.394-.235 3.943-5.219a4.948 4.948 0 00-.831-3.668c-.746-1.05-1.871-1.735-3.112-1.89zM330.423 195.136s-7.465.264-6.904 4.634c.107 1.435.943 2.754 2.278 3.595 1.336.842 3.032 1.12 4.626.757 0 0 3.387-.207 3.948-4.352.216-1.076-.084-2.182-.831-3.06-.747-.876-1.875-1.446-3.117-1.574zM418.22 204.278s-3.72.175-3.46 2.784c.057.86.477 1.65 1.145 2.154a2.67 2.67 0 002.314.454s1.692-.116 1.97-2.608a2.482 2.482 0 00-.415-1.834 2.269 2.269 0 00-1.555-.95zM321.484 204.278s-3.718.175-3.458 2.784c.057.86.476 1.65 1.144 2.154a2.67 2.67 0 002.314.454s1.692-.116 1.971-2.608a2.482 2.482 0 00-.416-1.834 2.269 2.269 0 00-1.555-.95z" fill="#FFF"/>
            <path d="M442.03 160.396a35.684 35.684 0 00-9.03-2.171s4.732-5.675 7.666-6.97c0 0 1.901 7.189 1.364 9.141zM345.39 261.518s.447 6.965 3.722 10.41c0 0 4.039-5.305 3.536-7.857l-2.177-4.941s-4.057 1.987-5.08 2.388z" fill="#C4C3C6"/>
            <path d="M237.604 324.952c-.255 4.602 7.304 10.323 7.304 10.323 1.232 4.982-9.577 9.043-13.526 7.702-3.95-1.34-2.57-10.703-2.57-10.703l8.792-7.322zM246.83 320.327s1.902 6.304 4.735 6.45c2.833.148 8.042-5.525 8.042-6.45-1.474-3.08-2.232-6.517-2.206-10.002 0 0-7.68 4.308-10.57 10.002z" fill="#FFF"/>
            <path d="M412.923 294.179s5.202-2.452 4.99-5.795c0 0 12.317 8.366 5.967 11.867-4.82 2.808-8.834-1.167-10.957-6.072zM332.614 381.555s.594 7.596 2.415 9.22c0 0 15.974-4.06 21.313-6.9 0 0-5.339-8.195-4.936-11.384 0-.02-16.398 9.354-18.792 9.064zM298.333 388.244s-1.57 11.625 1.533 15.33c0 0 17.239-2.977 21.797-6.145a39.661 39.661 0 01-3.83-12.14s-14.27.493-19.5 2.955zM356.342 366.502a114.45 114.45 0 005.519 13.302 36.853 36.853 0 0012.733-9.7s-5.085-10.978-5.107-14.069c0-.021-10.733 9.87-13.145 10.467zM287.44 255.473a100.438 100.438 0 008.67 5.744s-4.616 6.553-10.251 7.055c-.044 0-2.32-7.492 1.582-12.799z" fill="#C4C3C6"/>
            <path d="M266.91 307.368s-.181 10.813 3.228 12.099a29.718 29.718 0 009.546-2.344s-2.527-5.86 0-10.455c0 0-11.29 1.947-12.775.7zM318.24 331.015a96.17 96.17 0 0011.204-4.234s3.6 8.618 4.996 9.7c0 0-14.157 4.086-21.903 2.873 0 0 5.562-5.484 5.703-8.339z" fill="#FFF"/>
            <path d="M374.594 347.608s2.476 11.661 8.886 12.074c6.41.413 9.366-12.074 9.366-12.074s-7.826-5.036-8.138-8.029c0 0-6.972 8.256-10.114 8.029M397.277 321.295s-4.91 5.686-8.082 6.656c0 0 2.586 9.905 7.84 11.51 5.253 1.604 8.587-13.59 8.587-13.59s-6.021-1.545-8.345-4.576zM384.939 306.668s4.091 5.886 7.907 6.764c0 0-5.417 8.34-10.635 7.842 0 0-5.753-3.572-5.792-9.218.079 0 6.325-2.754 8.52-5.388zM357.59 339.58s5.587 6.727 9.703 6.51c0 0-6.291 7.083-12.327 6.214-4.32-1.21-6.816-5.38-5.63-9.41a46.882 46.882 0 008.253-3.315zM341.863 352.378s6.716 7.809 9.003 8.827c0 0-8.055 9.147-15.636 7.41 0 0-4.945-8.348-1.237-14.739a47.462 47.462 0 007.87-1.498zM371.53 323.126c0-.125 6.385 4.827 8.54 5.097 0 0-3.025 13.045-9.982 11.173 0 0-6.562-1.124-6.444-11.443 3.09-.575 5.884-2.286 7.887-4.827zM413.845 306.668s6.05 7.65 11.854 7.254c0 0-3.897 8.558-10.828 7.234 0 0-7.834-.435-9.25-6.72.021 0 7.425-5.396 8.224-7.768zM396.352 288.384s6.537 6.754 11.095 7.596c0 0-5.053 11.882-11.013 10.59-5.96-1.292-7.239-8.574-7.239-8.574a30.935 30.935 0 007.157-9.612zM371.617 293.87s7.605 2.295 10.277 2.838c0 0-6.803 9.06-12.435 8.054-5.631-1.007-5.816-8.054-5.816-8.054a26.037 26.037 0 007.974-2.839zM323.491 265.482s11.551-.932 14.599-2.695c0 0-1.091 13.274-7.29 16.455-4.654-3.065-7.408-8.248-7.309-13.76zM398.327 260.958l10.591 2.69s2.014 9.872-3.564 15.594c-4.627-4.78-7.174-11.409-7.027-18.284zM303.411 262.787s7.262 3.708 12.777 3.358c-.463 4.528-2.933 8.64-6.772 11.269a31.754 31.754 0 01-6.005-14.627zM409.272 336.157s4.86 3.344 7.508 3.422c0 0 6.718-8.213 7.094-10.97 0 0-8.813 1.956-10.788.43 0 0-.93 5.476-3.814 7.118zM449.426 256.22a46.067 46.067 0 008.921-6.232s5.365 6.626 3.438 12.796c-4.907.096-9.539-2.364-12.359-6.564zM281.51 250.772s-5.587-6.336-6.918-9.926a26.84 26.84 0 00-4.034 12.799s8.45-.718 10.951-2.873z" fill="#C4C3C6"/>
            <path d="M234.854 463.91S336.7 365.9 349.04 334.094c0 0-105.215 106.423-151.49 125.58l37.303 4.236z" fill="#010101"/>
            <path d="M318.068 158.945c3.668.13 7.316.615 10.896 1.451 0 0-3.639-10.3-7.491-12.798 0 0-3.97 5.966-3.405 11.347zM275.042 184.166s6.566-11.343 10.118-12.8c0 0-10.872.719-12.777 1.088 0 0 .655 10.789 2.659 11.712zM294.285 167.71s2.725-3.309 12.777-6.389c0 0-7.224-4.537-10.754-6.41a54.038 54.038 0 00-2.023 12.799zM449.426 166.891s10.093 5.5 11.534 8.133a96.386 96.386 0 001.243-12.8c-4.645.581-9.043 2.187-12.777 4.667zM468.68 235.36s-3.887 7.634-6.477 8.618c0 0 3.864 6.97 12.694 2.912.57-4.65-1.87-9.175-6.218-11.53zM469.503 229.875a71.494 71.494 0 0012.777-1.765s-4.2-8.406-8.642-11.033a74.19 74.19 0 01-4.135 12.798zM471.329 198.793s3.04 8.037 2.04 12.799c0 0 7.756-3.014 10.736-7.314-.041 0-6.225-5.244-12.776-5.485zM465.853 182.904a49.718 49.718 0 015.467 8.575 71.23 71.23 0 007.31-8.744 42.908 42.908 0 00-12.777.169zM387.976 169.538s8.324-5.873 13.995-8.999a29.036 29.036 0 00-9.823-12.941s-6.805 6.51-4.172 21.94zM409.272 158.568c4.236-.29 8.487-.29 12.722 0a17.257 17.257 0 00-4.289-12.799 26.41 26.41 0 00-8.433 12.799zM272.383 231.687s-3.904-9.787-3.405-12.782a83.426 83.426 0 00-9.371 9.787s7.418 3.64 12.776 2.917M339.973 161.332a161.38 161.38 0 0116.369 4.55s-4.6-14.187-10.662-20.113c0 0-6.439 8.52-5.707 15.563z" fill="#C4C3C6"/>
        </g>
    </g>
</svg>
