<svg xmlns="http://www.w3.org/2000/svg" viewBox="0 0 180 211">
  <g id="Illustrations" fill="none" fill-rule="evenodd">
    <g id="Group-52" fill-rule="nonzero" transform="translate(.931 .4)">
      <path id="Shape" fill="#010101" d="M133.439 191.75s-4.86-.18-7.29 1.73c0 0-5.7-3.63-16.75-1l-4.16-16.74s-4-17.89 1.54-26c3.74-5.51 11.36-12.74 20.37-23.14 4-4.66 9.16-8.31 13.63-12.13 5.81-5 6.79-13.77 6.55-21.1-.34-10.21-6.55-19.7-6.55-19.7s-59.71-6.93-68.84-1.43c0 0-33.51 22.74-65.1 63a9.45 9.45 0 0 1 2.14 1s-8.76 11.66-8.7 20.28a9.58 9.58 0 0 0 .35 4.78 43.48 43.48 0 0 1 .77 5.93 51.68 51.68 0 0 0 .17 5.36s-1.15 5.41-1.44 6.28c-.29.87 0 6.59 0 6.59s26.59-12.53 30.35-14.71c0 0 15.8 1.3 21.59.29 0 0 5.26 6.73 5.84 8l2.53 13.78s-5.17.89-7 2.8c-.78 0-9.38-1.22-12.34 2.13 0 0-1.49 6.1-.76 7.11.73 1.01 4 .74 5-.28 0 0 5.3 5.83 10.67 5.25 5.37-.58 12.76-4.13 18.56-2.82 5.8 1.31 14.56 3.87 19.93 2.36a58.55 58.55 0 0 0 11.09-4.78l1.57 1.29s.59-.58.45-1c0 0 16.45 1.65 21 3.93 6.3 3.19 13.38-4.81 13.38-4.81s.64.18 2 .43c-.07.01 2.78-13.12-10.55-12.68zm-42.4.12c-2.8.07-3.63 1-3.63 1l-7.63-.9c-.63-1.17-3.62-15-3.62-15-.1-2 2-7.45 2-7.45a10.85 10.85 0 0 0 3.45-.69c1.41 1.74 8.35 10 8.35 10 1.28 3.33 1.11 13.04 1.11 13.04h-.03z"/>
      <path id="Path" fill="#C4C3C6" d="M95.539 192.4s5.59.52 8.26 3.13l.81-.27-3.55-16.4s-4.08 1.06-6.1 2.79l.58 10.75zM107.539 198.12s7.17-4.41 17.6-1.44l.84 3s14.42-.55 13.26 2.39c-1.16 2.94-7 3.93-9.9 3.06-2.9-.87-10.87-4.56-20-3.39a28.23 28.23 0 0 0-1.8-3.62zM65.279 182.19l-.49 14.88a22.42 22.42 0 0 0-8.91 1.41s.76 2.61-.54 2.94c-1.3.33-6.36 1.11-6.36 1.11l.36.46s6.07 3.35 9.44 1.74c2.73-1.31 6.26-3 14-2.88 7.74.12 11.77 4.23 16.66 3.85 4.89-.38 11.09-1.89 12.39-3.52 0 0-1.41-2.18-6.95-2.5-5.54-.32-6.63-.33-7.39-3.59 0 0-7-.22-10.87 1 0 0-4-18-4.4-18-.4 0-5.64 1.03-6.94 3.1zM34.359 165.6c2.18-.76 26.72-19.28 26.72-19.28-1.42 2.07-16.79 14-16.79 14s.75.23 3-.75 16.59-9.84 16.92-10.17l-5.42 5.93 7.22-4.82a20.47 20.47 0 0 0 5.15.51 41.15 41.15 0 0 0-4.18 4.94c3-2.28 6.88-5.22 6.88-5.22h2.86a24.18 24.18 0 0 1-2.86 4.42l5.84-1.93-1.56 2.19c2.59-1.93 8.11-3.78 8.11-3.78-1.09.66-7.29 6.79-7.29 6.79 1.53-1.63 15.08-9.7 15.08-9.7l1.25-.2c-.76.87-3.9 5.28-3.9 5.28l5.35-5.22a18.4 18.4 0 0 1 4.28-1.25s-2.13 7-3 12c-.94 5.19 1.62 13.55 1.62 13.55a19.05 19.05 0 0 1-5.52 2.16c-2.19-3.35-9.08-10.25-9.08-10.25l2.69-6a27.46 27.46 0 0 1-11.13 6.44c-.59 0-1.16-5-1.16-5-2 2-4.78 14.13-4.78 14.13-.43 1-3.52 1.6-4.82 1.49-1.3-.11-2.46-2.06-2.46-2.06l2.85-1.17-4.23-.87c-1.3-.54-5.1-5.71-5.1-5.71.21-.63 10.51-6.75 10.51-6.75l-11.6 5.37-21.45.93z"/>
      <path id="Path" fill="#FFF" d="M128.679 196.12l.82 1.31a18.32 18.32 0 0 1 11.9 2.25 7.28 7.28 0 0 0-6.74-4.52c-6.33-.38-5.98.96-5.98.96zM79.969 111.14c-10.89 9.75-41.17 27.83-41.17 27.83s8.78 4.49 24.14-3.19c15.36-7.68 29.69-22.31 31.18-24.37l-7.69 4.8 5.07-5.13s-2.15.3-3.41.33l-13.28 8c3.55-1.87 10.93-8 10.93-8l-5.77-.27z"/>
      <path id="Path" fill="#010101" d="M61.069 129.83s15.3-8.23 17.95-10.17c0 0-8 7.9-14.86 10.73a40.77 40.77 0 0 1-11.49 3.21l8.4-3.77z"/>
      <path id="Path" fill="#C4C3C6" d="M4.129 178.12s1.72-4.21 2.6-6.85c.22-.65 18.69-20.32 27.82-25h1.3c-9.42 8.07-8.19 7.27-10.61 9.57 0 0 16.16-11.63 18.34-12.39 0 0-4.79 5.32-6 6.41 0 0 11.75-5.41 13.38-6.28a26.54 26.54 0 0 1-2.73 3.24s16.17-7.7 17.59-8.24c.02.02-53.33 39.02-61.69 39.54z"/>
      <path id="Path" fill="#010101" d="M19.829 162.2a69.28 69.28 0 0 0 7-5c1.45-1.45 3.26-1 0 1.88s-4.23 3.76-7 4c-2.77.24 0-.88 0-.88z"/>
      <path id="Path" fill="#FFF" d="M91.449 195.71s-.13 1.25.76 1.44c1.37.29 6.14-.57 12.1 3 0 0 .6-.87-2-3.09-2.6-2.22-8.9-2.15-10.86-1.35zM43.069 202.74s.54-3 1.4-3.46c.86-.46 6.84-.82 7.84-.62 0 0 .8.85.47 1.16-.33.31-5.91.83-6.84 1.69a4 4 0 0 1-2.87 1.23z"/>
      <path id="Path" fill="#010101" d="M64.789 197.07a20.47 20.47 0 0 1 4.87.71s-3.82-3-5.7-2.81l.83 2.1z"/>
      <path id="Path" fill="#C4C3C6" d="M32.189 143.09s-1.79-.48-1.71-2l-4.93 3.14 5.61-5-1-.54c-.87.54-9.56 7.17-9.56 7.17l7.35-7.25a12.06 12.06 0 0 1-2 0c-1.85 1.19-17.1 15.57-19.49 19.81-2.39 4.24-.68 10-.68 10s13.8-15.24 26.41-25.33zM23.639 137.85s-13 10.24-17.92 18.56c0 0-1.44-1.29-.5-4.62s9.53-12.39 11.19-13.54l-2.12 4.31 5.08-4.64a12.62 12.62 0 0 0 4.27-.07z"/>
      <path id="Path" fill="#010101" d="M64.519 32.18s-4.59-7.4-4.9-9.77a31.24 31.24 0 0 1 13.14-2.28s-.87-8.24 1.14-10.38c0 0 9.22 3.38 12 5.36 0 0-.47-9.33 3-10.82 0 0 8 4.37 8.46 7.68 0 0 1.44-7.42 5.13-8.65a78 78 0 0 1 5.38 6.79s3.54-9 6.54-10.11c0 0 5.72 5.89 6.24 8.61 0 0 .26-3.14 6-5.29 0 0 6 5.86 5.73 9.29 0 0 3-6.62 6.88-7.39 0 0 5.07 1.46 5.18 8 0 0 4.44-3.64 7.52-4.82 0 0 4.86 5.35 4.12 8.42 0 0 4.94-2.24 8.08-1.55 0 0 2.57 4 .33 10.27 0 0 8.51-.79 10.19 1.05 0 0-2.44 8-3.7 8.48 0 0 6.65 2.56 7.91 4.45 0 0-5.51 6.14-6.77 6.77l5.56 7.3s-3.28 4.55-6.11 4.55c0 0 1.63 6.2 1.46 10.29 0 0-6.44.51-8.59-1.23 0 0 .94 4.94.47 7.78 0 0-6.9-.62-8-2.51 0 0-1.95 7.35-3.84 8.92 0 0-5.37-3.5-5.84-5.39 0 0-.85 4.45-3.22 5.71 0 0-6.52-4.88-6.21-6.45 0 0-1.42 5.82-4.09 6.13 0 0-4.1-3.93-4.1-6 0 0-1.25 3.78-3.3 3.94 0 0-3.46-3.15-4.25-5 0 0-3.94 6.45-5.67 7.08 0 0-6.61-7.24-7.4-9.13 0 0-1.26 4.64-3 5.79a9 9 0 0 1-2.83-3.11s-2.52 5.35-4.09 5.67c0 0-3.15-1-4.1-2.56a11.71 11.71 0 0 1-4.88 3.34 18.56 18.56 0 0 1-3.62-4.4s-3.78 3.62-6.45 3.62c0 0-2.84-4.41-2.36-6.61 0 0-6.1 3.63-10 3.47 0 0-1.76-4.88-1.13-6.93 0 0-4.8-.35-6.21-1.13 0 0-1.93-6.06 1.13-9.64 0 0-8.11-5.23-9.07-7.43a51.66 51.66 0 0 1 9.57-7.07l-9-7.82a27.89 27.89 0 0 1 11.57-5.29z"/>
      <path id="Path" fill="#C4C3C6" d="M107.849 64.95s6.53 13.54 8.27 14.84c0 0 5.5-11.6 6.45-15.71 0 0-4.64-6.3-6.63-9.24 0 0-5.07 7.76-8.09 10.11z"/>
      <path id="Path" fill="#FFF" d="M139.759 64.08s16.49-1.34 20.5-16.94c4.01-15.6-13.37-24.15-20.5-24.11-7.13.04-21.84 7.63-21 21.22.84 13.59 12.09 19.35 21 19.83z"/>
      <path id="Path" fill="#C4C3C6" d="M139.769 61.66s14.54-1.18 18.08-14.94c3.54-13.76-11.79-21.3-18.08-21.27-6.29.03-19.26 6.74-18.48 18.72.78 11.98 10.62 17.09 18.48 17.49z"/>
      <path id="Path" fill="#FFF" d="M139.779 59.24s12.6-1 15.66-12.94c3.06-11.94-10.22-18.46-15.66-18.43-5.44.03-16.69 5.84-16 16.22.69 10.38 9.18 14.81 16 15.15z"/>
      <path id="Path" fill="#010101" d="M138.279 56.1s7.21-.82 8.77-2.6c0 0 8.16-7 5.49-12.61 0 0-4.23-8-8.15-8.93-3.92-.93-12.38-.47-14.42 5.8-2.04 6.27-3.9 14.11 8.31 18.34z"/>
      <path id="Path" fill="#FFF" d="M149.359 51.15s-6.5 2.85-11.32.62a12.69 12.69 0 0 1-6.35-7.19s-1.06 5.84 4.12 8 11 2.09 12.69 0c1.45-1.79.86-1.43.86-1.43zM91.439 64.79s16.65-1.35 20.7-17.1c4.05-15.75-13.5-24.39-20.7-24.34-7.2.05-22 7.7-21.14 21.42.86 13.72 12.14 19.57 21.14 20.02z"/>
      <path id="Path" fill="#C4C3C6" d="M91.449 62.34s14.68-1.19 18.25-15.08c3.57-13.89-11.9-21.5-18.25-21.47-6.35.03-19.45 6.8-18.65 18.9.8 12.1 10.71 17.25 18.65 17.65z"/>
      <path id="Path" fill="#FFF" d="M91.459 60.02s12.81-1 15.93-13.17c3.12-12.17-10.39-18.77-15.93-18.73-5.54.04-17 5.93-16.29 16.49.71 10.56 9.36 15.06 16.29 15.41z"/>
      <path id="Path" fill="#010101" d="M89.939 56.73s7.28-.82 8.86-2.63c0 0 8.23-7 5.54-12.72 0 0-4.27-8.07-8.23-9-3.96-.93-12.5-.48-14.55 5.85-2.05 6.33-3.96 14.22 8.38 18.5z"/>
      <path id="Path" fill="#FFF" d="M101.129 51.74s-6.56 2.87-11.42.62a12.77 12.77 0 0 1-6.41-7.26s-1.07 5.9 4.15 8.12c5.22 2.22 11.16 2.1 12.82 0 1.46-1.85.86-1.48.86-1.48z"/>
      <path id="Path" fill="#C4C3C6" d="M116.819 24.79s-5.63.24-5.21 4a4.16 4.16 0 0 0 5.21 3.77s2.56-.18 3-3.77a3.44 3.44 0 0 0-3-4z"/>
      <path id="Path" fill="#FFF" d="M76.759 107.99s-39.62 24.89-41 25.13a31.65 31.65 0 0 1-9.26-.3c3.33-1.67 24.4-20.72 24.4-20.72l2.19-.34c-.41.83-8.89 8.9-8.89 8.9 1.39-1.24 11.4-8.9 11.4-8.9l2.08-.56c-.83 1-6.39 5.84-6.39 5.84l7.08-5.14 1.54-1.12a11.63 11.63 0 0 1 2.64-.28l-5 4.32 6.41-4.19 12.8-2.64zM78.489 78.4c.6.75-.36 1.79-.36 1.79 1.32-1.06 2.38-1.76 2.38-1.76.14 1.06 1.64 6.67 2.7 6.27 1.06-.4 4-3.82 4-3.82l-.13 3.58 1.47-4.25.88-.52s1.66 5.77 2.85 5.77c1.19 0 4.35-3.47 4.35-3.47l.26 3.79c.26-1.06 1.68-4.83 1.68-4.83.27 1.32 3.58 3 3.58 3s.51 5 .9 3.82c.3-.91 2.05-4.19 2.05-4.19 3.83 6.47-3.11 16.52-3.11 16.52-4.38 0-3.35-8.42-3.35-8.42-.13.66-6.11 4.94-8.91 5.32-1.9.26-1.11-7.85-1.11-7.85-.66 1.46-9.63 4.57-12.41 4.3-2.78-.27 1.49-7.2 1.49-7.2s-18.58 4.4-12.55-2c3.76-4.11 12.6-6.78 13.34-5.85zM39.549 110.18c.28-.2-6.75 8.25-6.75 8.25l8.23-8.23.77 1.51a6.82 6.82 0 0 0 2.18 1.42c-1.78 2.25-26.73 20.43-26.73 20.43.84.56 3 1.82 3 1.82l-.58.53a10.22 10.22 0 0 1-4.9-1.95s11.16-14.3 24.78-23.78zM70.509 100.96a21.48 21.48 0 0 1-4.67 4.15s2.85-4.81 2.21-4.28a18 18 0 0 1-3.59.72s-3.84 4.08-7.81 4.9c0 0 .33-.26-1.2 1.7 0 0 10.18.29 14.84-2.9a16.86 16.86 0 0 1 .22-4.29z"/>
      <path id="Path" fill="#C4C3C6" d="M91.199 122.74l2.13-2.76s-2 .1-3.35 0c0 0-2.64 4.26 0 5.48 0 0 3.65.4 5.48-1.22a9.78 9.78 0 0 1-1.62-3.45s-1.73 1.93-2.13 2.43l-.51-.48zM70.069 143.7l2.12-3.89s-2.53.53-4.2.67c0 0-2.46 5.87 1.09 6.87 0 0 5.76-.59 7.73-3 0 0-3.43-2-3.82-3.64 0 0-1.78 2.77-2.19 3.48l-.73-.49zM82.879 142.41s-1 4.77 2.36 5.72c0 0 4.4-.21 6.26-2.48a23.59 23.59 0 0 1-2.56-4.79l-6.06 1.55z"/>
      <path id="Path" fill="#FFF" d="M74.899 98.4s-.07 7 3.23 7.2c3.3.2 6.72-3.41 6.72-3.41a33.28 33.28 0 0 1-1.64-5.48s-7.31 1.69-8.31 1.69z"/>
      <path id="Path" fill="#C4C3C6" d="M143.779 68.95c1.72 3.57-1.43 7.13-1.43 7.13-2.66-.52-4.8-6.22-4.8-6.22l6.23-.91zM125.269 67.32l1.3.82a6.17 6.17 0 0 1-.71 3.55c-1.12-.3-1.37-1.86-1.37-1.86l.78-2.51zM146.819 68.51s2.35 4.69 4.78 5c0 0 2.09-4.58.45-6.78a22.85 22.85 0 0 1-5.23 1.78z"/>
      <path id="Path" fill="#FFF" d="M124.699 198.6c0 .48-5.26-.3-8.54.93-3.28 1.23-2.78-2.84.41-2.82 3.19.02 8.19-.11 8.13 1.89zM87.409 198.53c.06.59-5.58-.64-8.63 1.5-3.05 2.14-2.84-1.7.31-2.29 3.15-.59 8.07-1.74 8.32.79z"/>
      <path id="Path" fill="#C4C3C6" d="M109.549 98.37c-.15 0 1.31-4.06 1.29-4.71-.02-.65 1.68.46 3.3 1 .45.15-1.59 4.17-4.59 3.71zM102.509 134.6l-7.71 2.55s.91 5.44 2.48 7.48c0 0 3.5-.07 8.88-5.8 0 0-3.57-3.23-3.65-4.23M84.139 125.83l-6 4.36s.4 1.29 4.4 0 2.14-2 1.6-4.36zM107.369 102.19l-2.16 3.31s.8.48 2.38-.65c1.58-1.13.34-1.51-.22-2.66z"/>
      <path id="Path" fill="#FFF" d="M96.509 170.25s-3.42 1.63-4.34-5.16c-.92-6.79 1-9 3.13-12.12 2.13-3.12 4.46-2.75 2.43 1.27a20 20 0 0 0-1.22 16.01zM69.829 173.04s-3.29.22-2.58-4.79 1.65-6.85 4.15-8.49c2.5-1.64 3-1.31 1.67 1.85a35.79 35.79 0 0 0-3.24 11.43z"/>
      <path id="Path" fill="#C4C3C6" d="M66.409 36.07c-1.21-.18-5 3-5 3 .69 1.42 3.72 4 3.72 4l1.28-7zM113.219 19.77a14.67 14.67 0 0 0-1.39-5.73s1.38-3.81 3.07-4.07a22.66 22.66 0 0 1 3.32 6.19 20.5 20.5 0 0 0-.1 2.88 10.69 10.69 0 0 0-4.9.73z"/>
      <path id="Path" fill="#FFF" d="M116.119 70.22s2.66-6.14 4.21-9.2l-4.39-6.18.18 15.38z"/>
      <path id="Path" fill="#C4C3C6" d="M129.939 116.54c1-.44 5.62-5 5.62-5-1.91.53-3.72-1.84-3.72-1.84-.77.9-2.92 7.27-1.9 6.84zM120.489 124.42a53 53 0 0 0 4.59-4 11.85 11.85 0 0 1-3.89 0c-.49.5-1.33 4.25-.7 4zM110.999 134.17c.76.32 4.94-5.87 4.94-5.87a25.44 25.44 0 0 1-6.4 3.52 2.18 2.18 0 0 0 1.46 2.35z"/>
      <path id="Path" fill="#FFF" d="M116.809 29.01s-.07 1.58.75 1.77c.82.19 1.24-2.06 1.15-2.79-.14-1-1-2.75-3.47-1.9-2.47.85-2.58 1.25-2.07 1.92.51.67 2.8-1.78 3.64 1zM58.319 142.22l7.18-3.32s-53.38 39.1-61 39.1l53.82-35.78zM19.069 162.73a14 14 0 0 0 5-2.82c1.43-1.08 3.53-2.17 4.43-3.75a.31.31 0 0 0-.34-.45c-1.72.44-3.28 2.12-4.69 3.18-1.41 1.06-3.07 2.18-4.66 3.21a.35.35 0 0 0 .26.63zM5.729 168.27s23.87-24.25 26.12-25a5.65 5.65 0 0 1-1.15-.65s-13.24 10.91-25.4 23.21l.43 2.44zM144.429 35.13s-3.68.15-3.4 2.61a2.71 2.71 0 0 0 3.4 2.45s1.67-.11 1.94-2.45a2.24 2.24 0 0 0-1.94-2.61zM96.069 35.97s-3.46.14-3.2 2.46a2.56 2.56 0 0 0 3.2 2.31s1.57-.11 1.83-2.31a2.11 2.11 0 0 0-1.83-2.46zM139.189 40.43s-2 .09-1.86 1.43a1.49 1.49 0 0 0 1.86 1.34s.91-.06 1.06-1.34a1.23 1.23 0 0 0-1.06-1.43zM90.829 40.93s-2 .09-1.86 1.43a1.49 1.49 0 0 0 1.86 1.34s.91-.06 1.06-1.34a1.23 1.23 0 0 0-1.06-1.43z"/>
      <path id="Path" fill="#C4C3C6" d="M150.329 19.77a15.62 15.62 0 0 0-4.37-1.19s2.29-3.11 3.71-3.82c0 0 .92 3.94.66 5.01zM102.869 69.17s.24 3.82 2 5.71c0 0 2.17-2.91 1.9-4.31l-1.17-2.71s-2.18 1.09-2.73 1.31z"/>
      <path id="Path" fill="#FFF" d="M49.379 100.11c-.12 2.3 3.44 5.16 3.44 5.16.58 2.49-4.51 4.52-6.37 3.85-1.86-.67-1.21-5.35-1.21-5.35l4.14-3.66zM53.389 97.41s1 3 2.49 3.07c1.49.07 4.23-2.63 4.23-3.07a10 10 0 0 1-1.16-4.76s-4.04 2.05-5.56 4.76z"/>
      <path id="Path" fill="#C4C3C6" d="M136.929 84.67s2.45-1.24 2.35-2.93c0 0 5.8 4.23 2.81 6-2.27 1.42-4.16-.59-5.16-3.07zM96.339 128.3s.28 3.93 1.14 4.77c0 0 7.54-2.1 10.06-3.57 0 0-2.52-4.24-2.33-5.89 0-.01-7.74 4.84-8.87 4.69zM79.989 130.75s-.82 5.43.8 7.16c0 0 9-1.39 11.38-2.87a17.16 17.16 0 0 1-2-5.67s-7.45.23-10.18 1.38zM108.709 120.6a54.27 54.27 0 0 0 2.54 6.24 17 17 0 0 0 5.86-4.55s-2.34-5.15-2.35-6.6c0-.01-4.94 4.63-6.05 4.91zM74.429 65.83a46.37 46.37 0 0 0 4 2.63s-2.13 3-4.73 3.23c-.02 0-1.07-3.43.73-5.86z"/>
      <path id="Path" fill="#FFF" d="M63.889 91.4s-.09 5.72 1.61 6.4a14.13 14.13 0 0 0 4.76-1.24s-1.26-3.1 0-5.53c0 0-5.63 1.03-6.37.37zM89.419 102.69a45.32 45.32 0 0 0 5.54-2.27s1.78 4.62 2.47 5.2c0 0-7 2.19-10.83 1.54 0 0 2.75-2.94 2.82-4.47z"/>
      <path id="Path" fill="#C4C3C6" d="M117.839 111.69s1.19 5.65 4.27 5.85c3.08.2 4.5-5.85 4.5-5.85s-3.76-2.44-3.91-3.89c0 0-3.35 4-4.86 3.89M128.479 97.8s-2.43 2.87-4 3.36c0 0 1.28 5 3.88 5.81 2.6.81 4.25-6.86 4.25-6.86s-2.98-.78-4.13-2.31zM122.569 90.48s2.07 2.95 4 3.39c0 0-2.74 4.18-5.38 3.93 0 0-2.91-1.79-2.93-4.62.04 0 3.2-1.38 4.31-2.7zM109.069 107.6s2.62 3.41 4.55 3.3c0 0-2.95 3.59-5.78 3.15a3.91 3.91 0 0 1-2.64-4.77 21.06 21.06 0 0 0 3.87-1.68zM101.909 113.24s3.26 3.91 4.37 4.42c0 0-3.91 4.58-7.59 3.71 0 0-2.4-4.18-.6-7.38a22.41 22.41 0 0 0 3.82-.75zM115.939 99.21c0-.06 3.23 2.32 4.32 2.45 0 0-1.53 6.27-5.05 5.37 0 0-3.32-.54-3.26-5.5a6.7 6.7 0 0 0 3.99-2.32zM137.069 90.48s2.95 3.87 5.78 3.67c0 0-1.9 4.33-5.28 3.66 0 0-3.82-.22-4.51-3.4.01 0 3.62-2.73 4.01-3.93zM129.069 81.74s3.17 3.45 5.38 3.88c0 0-2.45 6.07-5.34 5.41-2.89-.66-3.51-4.38-3.51-4.38a15.77 15.77 0 0 0 3.47-4.91zM116.269 84.28s3.7 1.14 5 1.41c0 0-3.31 4.5-6.05 4-2.74-.5-2.83-4-2.83-4a12.5 12.5 0 0 0 3.88-1.41zM91.799 71.14s5.61-.46 7.09-1.33c0 0-.53 6.55-3.54 8.12a8 8 0 0 1-3.55-6.79zM129.549 68.46l5.26 1.25s1 4.59-1.77 7.25a11.46 11.46 0 0 1-3.49-8.5zM82.269 69.44s3.41 1.8 6 1.63a7.62 7.62 0 0 1-3.18 5.47 15.7 15.7 0 0 1-2.82-7.1zM134.999 106.05s2.46 1.71 3.8 1.75c0 0 3.4-4.2 3.59-5.61 0 0-4.46 1-5.46.22 0 0-.47 2.8-1.93 3.64zM154.539 65.83a23.23 23.23 0 0 0 4.49-3s2.7 3.19 1.73 6.16a7.43 7.43 0 0 1-6.22-3.16zM71.799 63.11s-2.77-3-3.43-4.7a12.31 12.31 0 0 0-2 6.06s4.19-.34 5.43-1.36z"/>
      <path id="Path" fill="#010101" d="M48.979 168.35s50.51-48.81 56.63-64.65c0 0-52.18 53-75.13 62.54l18.5 2.11z"/>
      <path id="Path" fill="#C4C3C6" d="M89.749 18.32a30.1 30.1 0 0 1 5.6.72s-1.87-5.11-3.85-6.35c0 0-2.04 2.96-1.75 5.63zM68.579 30.79s3.31-5.53 5.1-6.24c0 0-5.48.35-6.44.53 0 0 .33 5.26 1.34 5.71zM77.989 22.11s1.32-1.59 6.19-3.07c0 0-3.5-2.18-5.21-3.08a25.77 25.77 0 0 0-.98 6.15zM155.209 22.18s4.55 2.84 5.2 4.2a56.82 56.82 0 0 0 .56-6.61 12.42 12.42 0 0 0-5.76 2.41zM163.729 55.92s-1.8 3.8-3 4.29c0 0 1.79 3.47 5.88 1.45a5.87 5.87 0 0 0-2.88-5.74zM164.949 52.93a31.16 31.16 0 0 0 5.81-.84s-1.91-4-3.93-5.25a36.48 36.48 0 0 1-1.88 6.09zM165.699 37.7s1.49 4 1 6.37c0 0 3.8-1.5 5.26-3.64-.02 0-3.05-2.61-6.26-2.73zM162.649 29.65a27 27 0 0 1 2.61 4.56 37.24 37.24 0 0 0 3.49-4.65 18.42 18.42 0 0 0-6.1.09zM123.489 23.35s4.11-2.95 6.91-4.52a14.56 14.56 0 0 0-4.85-6.5s-3.36 3.27-2.06 11.02zM134.399 17.91a44.07 44.07 0 0 1 6.14 0 8.58 8.58 0 0 0-2.07-6.29 13 13 0 0 0-4.07 6.29zM66.839 54.18s-1.8-5-1.57-6.53a41.08 41.08 0 0 0-4.32 5s3.42 1.86 5.89 1.49M100.539 20.13a74.46 74.46 0 0 1 7.83 2.28s-2.2-7.11-5.1-10.08c0 0-3.08 4.27-2.73 7.8z"/>
    </g>
  </g>
</svg>
