<svg width="589" height="628" viewBox="0 0 589 628" fill="none" xmlns="http://www.w3.org/2000/svg">
<g clip-path="url(#clip0)">
<path fill-rule="evenodd" clip-rule="evenodd" d="M406.29 518.159L413.584 518.159L413.584 525.453L406.29 525.453L406.29 532.765L413.584 532.765L413.584 540.078L406.29 540.078L406.29 547.372L398.977 547.372L398.977 554.684L406.29 554.684L406.29 547.39L413.584 547.39L413.584 554.684L406.29 554.684L406.29 562L413.602 562L413.602 554.688L420.896 554.688L420.896 547.394L428.208 547.394L428.208 554.688L435.52 554.688L435.52 547.394L442.814 547.394L442.814 554.688L435.52 554.688L435.52 562L442.833 562L442.833 554.688L450.127 554.688L450.127 562L457.443 562L457.443 554.688L450.131 554.688L450.131 547.394L457.443 547.394L457.443 540.081L450.131 540.081L450.131 532.769L457.443 532.769L457.443 525.457L450.131 525.457L450.131 518.163L450.131 518.145L442.837 518.145L442.837 510.851L435.524 510.851L435.524 518.145L428.212 518.145L428.212 510.851L420.899 510.851L420.899 518.145L413.605 518.145L413.605 510.851L406.293 510.851L406.293 518.145L398.981 518.145L398.981 525.457L406.293 525.457L406.293 518.159L406.29 518.159ZM450.131 518.141L450.131 510.847L457.443 510.847L457.443 518.159L450.131 518.159L450.131 518.141ZM428.212 554.688L428.212 562L420.899 562L420.899 554.688L428.212 554.688ZM406.29 540.081L406.29 532.769L398.977 532.769L398.977 540.081L406.29 540.081ZM442.837 547.376L450.131 547.376L450.131 540.081L442.837 540.081L442.837 547.376ZM442.818 510.847L442.818 503.534L435.524 503.534L435.524 510.847L428.212 510.847L428.212 503.534L420.899 503.534L420.899 510.847L413.587 510.847L413.587 503.534L406.293 503.534L406.293 510.847L398.981 510.847L398.981 503.534L406.293 503.534L406.293 496.222L413.605 496.222L413.605 503.534L420.899 503.534L420.899 496.222L428.212 496.222L428.212 503.534L435.524 503.534L435.524 496.222L442.837 496.222L442.837 503.534L450.131 503.534L450.131 496.222L457.443 496.222L457.443 503.534L450.131 503.534L450.131 510.847L442.818 510.847ZM413.605 525.453L413.605 532.765L420.899 532.765L420.899 525.453L413.605 525.453ZM428.212 525.453L428.212 518.159L420.899 518.159L420.899 525.453L428.212 525.453ZM435.524 525.453L428.212 525.453L428.212 532.765L435.524 532.765L435.524 525.453ZM435.524 525.453L442.818 525.453L442.818 518.159L435.524 518.159L435.524 525.453ZM435.524 540.081L442.818 540.081L442.818 532.769L435.524 532.769L435.524 540.081ZM428.212 540.081L428.212 547.376L435.524 547.376L435.524 540.081L428.212 540.081ZM420.896 540.081L428.208 540.081L428.208 532.769L420.896 532.769L420.896 540.081ZM420.896 540.081L413.602 540.081L413.602 547.376L420.896 547.376L420.896 540.081ZM442.837 532.769L442.837 525.457L450.131 525.457L450.131 532.769L442.837 532.769ZM391.665 554.688L398.977 554.688L398.977 562L391.665 562L391.665 554.688ZM398.977 540.081L391.665 540.081L391.665 547.394L398.977 547.394L398.977 540.081ZM391.665 525.453L398.977 525.453L398.977 532.765L391.665 532.765L391.665 525.453ZM398.977 510.847L391.665 510.847L391.665 518.159L398.977 518.159L398.977 510.847ZM398.977 496.222L391.665 496.222L391.665 503.534L398.977 503.534L398.977 496.222Z" fill="#181C20"/>
<path fill-rule="evenodd" clip-rule="evenodd" d="M473.383 -8.06286L480.677 -8.06286L480.677 -0.768849L473.383 -0.768848L473.383 6.5433L480.677 6.5433L480.677 13.8554L473.383 13.8554L473.383 21.1495L466.071 21.1495L466.071 28.4616L473.383 28.4616L473.383 21.1676L480.677 21.1676L480.677 28.4616L473.383 28.4616L473.383 35.7778L480.695 35.7778L480.695 28.4657L487.989 28.4657L487.989 21.1717L495.301 21.1717L495.301 28.4657L502.614 28.4657L502.614 21.1717L509.908 21.1717L509.908 28.4657L502.614 28.4657L502.614 35.7778L509.926 35.7778L509.926 28.4657L517.22 28.4657L517.22 35.7778L524.536 35.7778L524.536 28.4657L517.224 28.4657L517.224 21.1717L524.536 21.1717L524.536 13.8589L517.224 13.8589L517.224 6.5468L524.536 6.5468L524.536 -0.765343L517.224 -0.765342L517.224 -8.05936L517.224 -8.07748L509.93 -8.07748L509.93 -15.3715L502.618 -15.3715L502.618 -8.07748L495.305 -8.07748L495.305 -15.3715L487.993 -15.3715L487.993 -8.07748L480.699 -8.07748L480.699 -15.3715L473.386 -15.3715L473.386 -8.07748L466.074 -8.07748L466.074 -0.76534L473.386 -0.76534L473.386 -8.06286L473.383 -8.06286ZM517.224 -8.08099L517.224 -15.3756L524.536 -15.3756L524.536 -8.06287L517.224 -8.06287L517.224 -8.08099ZM495.305 28.4657L495.305 35.7778L487.993 35.7778L487.993 28.4657L495.305 28.4657ZM473.383 13.8589L473.383 6.5468L466.071 6.5468L466.071 13.8589L473.383 13.8589ZM509.93 21.1535L517.224 21.1535L517.224 13.8589L509.93 13.8589L509.93 21.1535ZM509.912 -15.3756L509.912 -22.6877L502.618 -22.6877L502.618 -15.3756L495.305 -15.3756L495.305 -22.6877L487.993 -22.6877L487.993 -15.3756L480.68 -15.3756L480.68 -22.6877L473.386 -22.6877L473.386 -15.3756L466.074 -15.3756L466.074 -22.6877L473.386 -22.6877L473.386 -29.9999L480.699 -29.9999L480.699 -22.6877L487.993 -22.6877L487.993 -29.9999L495.305 -29.9999L495.305 -22.6877L502.618 -22.6877L502.618 -29.9999L509.93 -29.9999L509.93 -22.6877L517.224 -22.6877L517.224 -29.9999L524.536 -29.9999L524.536 -22.6877L517.224 -22.6877L517.224 -15.3756L509.912 -15.3756ZM480.699 -0.768849L480.699 6.5433L487.993 6.5433L487.993 -0.768849L480.699 -0.768849ZM495.305 -0.768849L495.305 -8.06286L487.993 -8.06286L487.993 -0.768849L495.305 -0.768849ZM502.618 -0.76885L495.305 -0.768849L495.305 6.5433L502.618 6.54329L502.618 -0.76885ZM502.618 -0.76885L509.912 -0.76885L509.912 -8.06286L502.618 -8.06286L502.618 -0.76885ZM502.618 13.8589L509.912 13.8589L509.912 6.5468L502.618 6.5468L502.618 13.8589ZM495.305 13.8589L495.305 21.1535L502.618 21.1535L502.618 13.8589L495.305 13.8589ZM487.989 13.8589L495.301 13.8589L495.301 6.5468L487.989 6.5468L487.989 13.8589ZM487.989 13.8589L480.695 13.8589L480.695 21.1535L487.989 21.1535L487.989 13.8589ZM509.93 6.5468L509.93 -0.765342L517.224 -0.765342L517.224 6.5468L509.93 6.5468ZM458.758 28.4657L466.071 28.4657L466.071 35.7778L458.758 35.7778L458.758 28.4657ZM466.071 13.8589L458.758 13.8589L458.758 21.1717L466.071 21.1717L466.071 13.8589ZM458.758 -0.768848L466.071 -0.768848L466.071 6.5433L458.758 6.5433L458.758 -0.768848ZM466.071 -15.3756L458.758 -15.3756L458.758 -8.06286L466.071 -8.06286L466.071 -15.3756ZM466.071 -29.9999L458.758 -29.9999L458.758 -22.6877L466.071 -22.6877L466.071 -29.9999Z" fill="#181C20"/>
<path fill-rule="evenodd" clip-rule="evenodd" d="M70.7464 232.453L63.4341 232.453L63.4341 166.676L70.7464 166.676L70.7464 232.453ZM78.0515 232.453L85.3603 232.453L85.3602 166.676L78.0515 166.676L78.0515 232.453ZM92.6684 232.453L99.9771 232.453L99.9771 166.676L92.6684 166.676L92.6684 232.453ZM114.595 232.453L107.286 232.453L107.286 166.676L114.595 166.676L114.595 232.453ZM121.903 232.453L129.212 232.453L129.212 166.676L121.903 166.676L121.903 232.453Z" fill="#4038FF"/>
<path fill-rule="evenodd" clip-rule="evenodd" d="M129.212 371.321L129.212 364.009L194.99 364.009L194.99 371.321L129.212 371.321ZM129.212 378.626L129.212 385.935L194.99 385.935L194.99 378.626L129.212 378.626ZM129.212 393.243L129.212 400.552L194.99 400.552L194.99 393.243L129.212 393.243ZM129.212 415.169L129.212 407.861L194.99 407.861L194.99 415.169L129.212 415.169ZM129.212 422.478L129.212 429.787L194.99 429.787L194.99 422.478L129.212 422.478ZM129.212 159.363L129.212 166.676L194.99 166.676L194.99 159.363L129.212 159.363ZM129.212 137.434L129.212 130.121L194.99 130.121L194.99 137.434L129.212 137.434ZM129.212 115.504L129.212 122.816L194.99 122.816L194.99 115.504L129.212 115.504ZM129.212 100.898L129.212 108.21L194.99 108.21L194.99 100.898L129.212 100.898ZM129.212 152.051L129.212 144.739L194.99 144.739L194.99 152.051L129.212 152.051Z" fill="#181C20"/>
<path fill-rule="evenodd" clip-rule="evenodd" d="M-2.34375 356.7L-2.34375 364.009C33.9837 364.009 63.434 334.559 63.434 298.231L56.1254 298.231C56.1254 330.524 29.9493 356.7 -2.34375 356.7ZM-2.34375 342.083L-2.34375 349.392C25.9115 349.392 48.8167 326.486 48.8167 298.231L41.5081 298.231C41.5081 322.448 21.8736 342.083 -2.34375 342.083ZM-2.34375 334.775L-2.34375 327.466C13.8007 327.466 26.8908 314.376 26.8908 298.231L34.1994 298.231C34.1994 318.414 17.8392 334.775 -2.34375 334.775ZM-2.34375 312.849L-2.34375 320.157C9.76638 320.157 19.5822 310.342 19.5822 298.231L12.2735 298.231C12.2735 306.304 5.7285 312.849 -2.34375 312.849ZM-2.34375 298.231L-2.34375 305.54C1.69413 305.54 4.96489 302.269 4.96489 298.231L-2.34375 298.231Z" fill="#181C20"/>
<path fill-rule="evenodd" clip-rule="evenodd" d="M260.768 305.54L260.768 298.231C224.44 298.231 194.99 327.681 194.99 364.009L202.298 364.009C202.298 331.716 228.474 305.54 260.768 305.54ZM260.768 320.157L260.768 312.849C232.512 312.849 209.607 335.754 209.607 364.009L216.916 364.009C216.916 339.792 236.55 320.157 260.768 320.157ZM260.768 327.466L260.768 334.775C244.622 334.775 231.533 347.864 231.533 364.009L224.224 364.009C224.224 343.826 240.585 327.466 260.768 327.466ZM260.768 349.392L260.768 342.083C248.657 342.083 238.842 351.899 238.842 364.009L246.15 364.009C246.15 355.937 252.695 349.392 260.768 349.392ZM260.768 364.009L260.768 356.7C256.73 356.7 253.459 359.971 253.459 364.009L260.768 364.009Z" fill="#181C20"/>
<path fill-rule="evenodd" clip-rule="evenodd" d="M260.767 43.0865L260.767 35.7778C224.44 35.7778 194.99 65.228 194.99 101.556L202.298 101.556C202.298 69.2625 228.474 43.0865 260.767 43.0865ZM260.767 57.7039L260.767 50.3952C232.512 50.3952 209.607 73.3004 209.607 101.556L216.916 101.556C216.916 77.3384 236.55 57.7039 260.767 57.7039ZM260.767 65.0126L260.767 72.3213C244.622 72.3213 231.533 85.4108 231.533 101.556L224.224 101.556C224.224 81.3728 240.585 65.0126 260.767 65.0126ZM260.767 86.9382L260.767 79.6301C248.657 79.6301 238.842 89.4452 238.842 101.556L246.15 101.556C246.15 93.4832 252.695 86.9382 260.767 86.9382ZM260.767 101.556L260.767 94.2469C256.73 94.2469 253.459 97.5176 253.459 101.556L260.767 101.556Z" fill="#181C20"/>
<path fill-rule="evenodd" clip-rule="evenodd" d="M529.872 362.693L522.563 362.693C522.563 399.021 552.013 428.471 588.341 428.471L588.341 421.163C556.048 421.163 529.872 394.986 529.872 362.693ZM544.489 362.693L537.18 362.693C537.18 390.949 560.086 413.854 588.341 413.854L588.341 406.545C564.124 406.545 544.489 386.911 544.489 362.693ZM551.798 362.693L559.107 362.693C559.107 378.838 572.196 391.928 588.341 391.928L588.341 399.237C568.158 399.237 551.798 382.876 551.798 362.693ZM573.723 362.693L566.415 362.693C566.415 374.804 576.23 384.619 588.341 384.619L588.341 377.311C580.268 377.311 573.723 370.766 573.723 362.693ZM588.341 362.693L581.032 362.693C581.032 366.731 584.303 370.002 588.341 370.002L588.341 362.693Z" fill="#181C20"/>
<path d="M392.323 495.564L326.545 495.564L326.545 429.787C362.873 429.787 392.323 459.237 392.323 495.564ZM386.513 627.778L391.665 627.778L391.665 622.625L331.04 562L325.887 562L325.887 567.153L386.513 627.778ZM341.382 562L351.724 562L391.665 601.942L391.665 612.283L341.382 562ZM362.065 562L372.407 562L391.665 581.258L391.665 591.6L362.065 562ZM391.665 562L391.665 570.917L382.749 562L391.665 562ZM325.887 587.836L325.887 577.494L376.172 627.778L365.829 627.778L325.887 587.836ZM325.887 608.519L325.887 598.178L355.487 627.778L345.146 627.778L325.887 608.519ZM325.887 618.861L334.804 627.778L325.887 627.778L325.887 618.861ZM452.949 232.453L458.101 232.453L458.101 227.301L397.476 166.676L392.323 166.676L392.323 171.828L452.949 232.453ZM407.818 166.676L418.159 166.676L458.101 206.617L458.101 216.959L407.818 166.676ZM428.501 166.676L438.842 166.676L458.101 185.934L458.101 196.276L428.501 166.676ZM458.101 166.676L458.101 175.592L449.185 166.676L458.101 166.676ZM392.323 192.512L392.323 182.17L442.607 232.453L432.264 232.453L392.323 192.512ZM392.323 213.195L392.323 202.853L421.923 232.453L411.581 232.453L392.323 213.195ZM392.323 223.537L401.24 232.453L392.323 232.453L392.323 223.537Z" fill="#181C20"/>
<path fill-rule="evenodd" clip-rule="evenodd" d="M253.455 495.564L260.768 495.564L260.768 429.787L253.455 429.787L253.455 495.564ZM231.526 495.564L224.213 495.564L224.213 429.787L231.526 429.787L231.526 495.564ZM209.596 495.564L216.908 495.564L216.908 429.787L209.596 429.787L209.596 495.564ZM194.99 495.564L202.302 495.564L202.302 429.787L194.99 429.787L194.99 495.564ZM246.143 495.564L238.831 495.564L238.831 429.787L246.143 429.787L246.143 495.564Z" fill="#4038FF"/>
<path fill-rule="evenodd" clip-rule="evenodd" d="M449.473 428.471L456.785 428.471L456.785 362.693L449.473 362.693L449.473 428.471ZM427.543 428.471L420.231 428.471L420.231 362.693L427.543 362.693L427.543 428.471ZM405.614 428.471L412.926 428.471L412.926 362.693L405.614 362.693L405.614 428.471ZM391.007 428.471L398.32 428.471L398.32 362.693L391.007 362.693L391.007 428.471ZM442.161 428.471L434.848 428.471L434.848 362.693L442.161 362.693L442.161 428.471Z" fill="#181C20"/>
</g>
<defs>
<clipPath id="clip0">
<rect width="627.318" height="592" fill="white" transform="translate(-3 627.778) rotate(-90)"/>
</clipPath>
</defs>
</svg>
