<svg fill="none" height="549" viewBox="0 0 648 549" width="648" xmlns="http://www.w3.org/2000/svg" xmlns:xlink="http://www.w3.org/1999/xlink"><clipPath id="a"><path d="m0 0h650v557.911h-650z" transform="matrix(-1 0 0 -1 650 548.911)"/></clipPath><g clip-path="url(#a)"><path clip-rule="evenodd" d="m541.678 116.546v-7.207h7.207v7.207h7.226v-7.207h7.226v7.207h7.208v7.226h7.225v-7.226h-7.208v-7.207h7.208v7.207h7.23v-7.225h-7.226v-7.208h-7.207v-7.2259h7.207v-7.2258h-7.207v-7.2078h7.207v7.2078h7.226v-7.2263h-7.226v-7.2073h7.226v-7.2298h-7.226v7.2258h-7.207v-7.2258h-7.227v7.2258h-7.225v-7.2258h-7.226v7.2258h-7.208-.018v7.2078h-7.208v7.2258h7.208v7.2257h-7.208v7.226h7.208v7.208h-7.208v7.226h7.208v7.226h7.226v-7.226h-7.211zm-.018-43.3223h-7.209v-7.2258h7.227v7.2258zm36.114 21.6593h7.226v7.226h-7.226zm-14.434 21.663h-7.225v7.226h7.225zm7.209-36.1145v-7.2078h-7.209v7.2078zm-36.098.0179h-7.225v7.2079h7.225v7.2257h-7.225v7.226h7.225v7.226h-7.225v7.208h7.225v7.226h-7.225v-7.226h-7.226v-7.226h7.226v-7.208h-7.226v-7.226h7.226v-7.2257h-7.226v-7.2258h7.226v-7.2078h-7.226v-7.2258h7.226v7.2258h7.225zm14.434 28.8676h7.226v-7.208h-7.226zm0-14.434h-7.207v7.226h7.207zm0-7.2257v7.2257h7.226v-7.2257zm0 0v-7.2079h-7.207v7.2079zm14.455 0v-7.2079h-7.225v7.2079zm0 7.2257h7.209v-7.2257h-7.209zm0 7.23v-7.2259h-7.225v7.2259zm0 0v7.208h7.209v-7.208zm-7.225-21.6815h-7.226v-7.2078h7.226zm21.659 50.5665v-7.226h7.226v7.226zm-14.434-7.226v7.226h7.227v-7.226zm-14.455 7.226v-7.226h7.226v7.226zm-14.434-7.226v7.226h7.227v-7.226zm-14.451 0v7.226h7.226v-7.226z" fill="#4038ff" fill-rule="evenodd"/><g fill="#181c20"><path clip-rule="evenodd" d="m21.6776 50.2465v-7.2078h7.2078v7.2078h7.2257v-7.2078h7.2257v7.2078h7.2077v7.2258h7.2257v-7.2258h-7.2078v-7.2078h7.2078v7.2078h7.2297v-7.2258h-7.2256v-7.2078h-7.2078v-7.2257h7.2078v-7.2258h-7.2078v-7.2078h7.2078v7.2078h7.2256v-7.2263h-7.2256v-7.2073h7.2256v-7.229808l-7.2256.000001v7.225757h-7.2078v-7.225756h-7.2263v7.225756h-7.2257v-7.225755l-7.2256.000001v7.225754l-7.2078.00001h-.0179v7.20784h-7.2078v7.2258h7.2078v7.2257h-7.2078v7.2263h7.2078v7.2079h-7.2078v7.2257h7.2078v7.2258h7.2257v-7.2258h-7.2113zm-.0179-43.32274h-7.2083v-7.225763l7.2262-.000001v7.225764zm36.1146 21.65934h7.2256v7.2263h-7.2256zm-14.4341 21.6634h-7.2257v7.2258h7.2257zm7.2084-36.1149v-7.20785h-7.2084v7.20785zm-36.0972.0179h-7.22572v7.2079h7.22572v7.2257h-7.22572l.00001 7.2263h7.22571v7.2258h-7.22571v7.2078h7.22571v7.2258h-7.22571v-7.2258h-7.22568558l-.00000063-7.2257h7.22568621v-7.2079h-7.22568684l-.00000063-7.2263h7.22567747v-7.2257h-7.22567811l-.00000063-7.2258h7.22567874v-7.20784h-7.22567937l-.00000063-7.225762 7.22568-.000001v7.225763h7.22572zm14.434 28.8678h7.2257v-7.2079h-7.2257zm0-14.4342h-7.2078v7.2263h7.2078zm0-7.2257v7.2257h7.2257v-7.2258zm0 0v-7.2079h-7.2078v7.2079zm14.4548-.0001v-7.2078h-7.2257v7.2078zm0 7.2258h7.2084v-7.2258h-7.2084zm0 7.2298v-7.2257h-7.2257v7.2257zm0 0v7.2079l7.2084-.0001v-7.2078zm-7.2257-21.6813h-7.2256v-7.20785h7.2256zm21.6598 50.5664v-7.2257h7.2256v7.2257zm-14.4341-7.2257v7.2257h7.2263v-7.2257zm-14.4548 7.2257v-7.2257h7.2257v7.2257zm-14.434-7.2257v7.2257h7.2262v-7.2257zm-14.45139495 0 .00000063 7.2257h7.22568432v-7.2257z" fill-rule="evenodd"/><path clip-rule="evenodd" d="m396.576 390.348h-7.226v-65h7.226zm7.219 0h7.222v-65h-7.222zm14.444 0h7.222v-65h-7.222zm21.667 0h-7.223v-65h7.223zm7.222 0h7.222v-65h-7.222zm-260.004 0h7.226v-65h-7.226zm-21.67 0h-7.226v-65h7.226zm-21.67 0h7.226v-65h-7.226zm-14.434 0h7.226v-65h-7.226zm50.548 0h-7.225v-65h7.225z" fill-rule="evenodd"/><path clip-rule="evenodd" d="m382.128 520.348h7.222c0-35.898-29.102-65-65-65v7.222c31.911 0 57.778 25.867 57.778 57.778zm-14.445 0h7.223c0-27.921-22.635-50.555-50.556-50.555v7.222c23.931 0 43.333 19.402 43.333 43.333zm-7.221 0h-7.223c0-15.953-12.935-28.889-28.889-28.889v-7.222c19.944 0 36.112 16.167 36.112 36.111zm-21.667 0h7.222c0-11.967-9.7-21.667-21.667-21.667v7.223c7.977 0 14.445 6.467 14.445 14.444zm-14.445 0h7.222c0-3.99-3.232-7.222-7.222-7.222z" fill-rule="evenodd"/><path clip-rule="evenodd" d="m331.572 260.348h-7.222c0 35.898 29.102 65 65 65v-7.222c-31.911 0-57.778-25.867-57.778-57.778zm14.445 0h-7.222c0 27.921 22.634 50.556 50.555 50.556v-7.223c-23.931 0-43.333-19.402-43.333-43.333zm7.222 0h7.223c0 15.954 12.934 28.889 28.888 28.889v7.222c-19.944 0-36.111-16.167-36.111-36.111zm21.667 0h-7.222c0 11.968 9.699 21.667 21.666 21.667v-7.223c-7.977 0-14.444-6.467-14.444-14.444zm14.444 0h-7.222c0 3.99 3.232 7.222 7.222 7.222z" fill-rule="evenodd"/><path clip-rule="evenodd" d="m72.2223 260.348h-7.2223c0 35.898 29.102 65 65 65v-7.222c-31.9113 0-57.7777-25.867-57.7777-57.778zm14.4445 0h-7.2222c0 27.921 22.6344 50.556 50.5554 50.556v-7.223c-23.931 0-43.3332-19.402-43.3332-43.333zm7.2223 0h7.2219c0 15.954 12.935 28.889 28.889 28.889v7.222c-19.944 0-36.1109-16.167-36.1109-36.111zm21.6659 0h-7.221c0 11.968 9.699 21.667 21.666 21.667v-7.223c-7.977 0-14.445-6.467-14.445-14.444zm14.445 0h-7.222c0 3.99 3.232 7.222 7.222 7.222z" fill-rule="evenodd"/><path clip-rule="evenodd" d="m323 124.776v7.222c35.898 0 65-29.102 65-65.0002h-7.222c0 31.9113-25.867 57.7782-57.778 57.7782zm0-14.445v7.222c27.921 0 50.556-22.6341 50.556-50.5552h-7.223c0 23.9309-19.402 43.3332-43.333 43.3332zm0-7.222v-7.2226c15.954 0 28.889-12.9347 28.889-28.8886h7.222c0 19.9441-16.167 36.1112-36.111 36.1112zm0-21.6666v7.2217c11.968 0 21.667-9.6991 21.667-21.6663h-7.223c0 7.977-6.467 14.4446-14.444 14.4446zm0-14.4446v7.2223c3.99 0 7.222-3.2321 7.222-7.2223z" fill-rule="evenodd"/><path d="m519.35 130.348v65h-65c0-35.898 29.102-65 65-65zm130.65 5.741v-5.091h-5.092l-59.908 59.908v5.092h5.092zm-65 44.598v-10.22l39.469-39.469h10.22zm0-20.439v-10.219l19.031-19.031h10.219zm0-29.25h8.811l-8.811 8.81zm25.531 65h-10.22l49.689-49.69v10.221zm20.438 0h-10.219l29.25-29.25v10.219zm10.22 0 8.811-8.812v8.812z"/><path d="m257 66.9978v5.091l-59.908 59.9092h-5.092v-5.092l59.908-59.9082z"/><path d="m192 106.467v10.219l49.689-49.6882h-10.22z"/><path d="m192 86.0286v10.2192l29.25-29.25h-10.219z"/><path d="m200.811 66.9978h-8.811v8.8103z"/><path d="m207.311 131.998h10.22l39.469-39.4694v-10.2205z"/><path d="m227.75 131.998h10.219l19.031-19.031v-10.219z"/><path d="m257 123.186-8.811 8.812h8.811z"/></g><path clip-rule="evenodd" d="m519.35 267.574v-7.226h-65v7.226zm0 21.67v7.226h-65v-7.226zm0 21.67v-7.225h-65v7.225zm0 14.434v-7.226h-65v7.226zm0-50.548v7.225h-65v-7.225z" fill="#4038ff" fill-rule="evenodd"/><path clip-rule="evenodd" d="m453.051 9.22453v-7.22576l-65 .00001v7.22575zm0 21.67037v7.2257h-65v-7.2257zm0 21.6703v-7.2258h-65v7.2258zm0 14.4336v-7.2258h-65v7.2258zm0-50.5485v7.2257h-65v-7.2257z" fill="#181c20" fill-rule="evenodd"/></g></svg>