<svg width="660" height="660" viewBox="0 0 660 660" fill="none" xmlns="http://www.w3.org/2000/svg">
<path fill-rule="evenodd" clip-rule="evenodd" d="M286.66 219.99H280.007V213.337H286.66V206.667H280.007V199.997H286.66V193.343H293.33V186.674H286.66V193.327H280.007V186.674H286.66V180H279.99V186.67H273.337V193.323H266.667V186.67H259.997V193.323H253.344V186.67H259.997V180H253.327V186.67H246.674V180H240V186.67H246.67V193.323H240V199.994H246.67V206.663H240V213.333H246.67V219.987V220.003H253.323V226.657H259.993V220.003H266.663V226.657H273.334V220.003H279.987V226.657H286.657V220.003H293.327V213.333H286.657V219.99H286.66ZM246.67 220.006V226.66H240V219.99H246.67V220.006ZM266.663 186.67V180H273.334V186.67H266.663ZM286.66 199.994V206.663H293.33V199.994H286.66ZM253.323 193.34H246.67V199.994H253.323V193.34ZM253.34 226.66V233.33H259.993V226.66H266.663V233.33H273.334V226.66H280.004V233.33H286.657V226.66H293.327V233.33H286.657V240H279.987V233.33H273.334V240H266.663V233.33H259.993V240H253.323V233.33H246.67V240H240V233.33H246.67V226.66H253.34ZM279.987 213.337V206.667H273.334V213.337H279.987ZM266.663 213.337V219.99H273.334V213.337H266.663ZM259.993 213.337H266.663V206.667H259.993V213.337ZM259.993 213.337H253.34V219.99H259.993V213.337ZM259.993 199.994H253.34V206.663H259.993V199.994ZM266.663 199.994V193.34H259.993V199.994H266.663ZM273.337 199.994H266.667V206.663H273.337V199.994ZM273.337 199.994H279.99V193.34H273.337V199.994ZM253.323 206.663V213.333H246.67V206.663H253.323ZM300 186.67H293.33V180H300V186.67ZM293.33 199.994H300V193.323H293.33V199.994ZM300 213.337H293.33V206.667H300V213.337ZM293.33 226.66H300V219.99H293.33V226.66ZM293.33 240H300V233.33H293.33V240Z" fill="#1F242C"/>
<path fill-rule="evenodd" clip-rule="evenodd" d="M646.66 159.59H640.007V152.937H646.66V146.267H640.007V139.597H646.66V132.944H653.33V126.274H646.66V132.927H640.007V126.274H646.66V119.6H639.99V126.27H633.337V132.923H626.667V126.27H619.997V132.923H613.344V126.27H619.997V119.6H613.327V126.27H606.674V119.6H600V126.27H606.67V132.923H600V139.594H606.67V146.264H600V152.933H606.67V159.587V159.603H613.323V166.257H619.993V159.603H626.663V166.257H633.334V159.603H639.987V166.257H646.657V159.603H653.327V152.933H646.657V159.59H646.66ZM606.67 159.607V166.26H600V159.59H606.67V159.607ZM626.663 126.27V119.6H633.334V126.27H626.663ZM646.66 139.594V146.264H653.33V139.594H646.66ZM613.323 132.94H606.67V139.594H613.323V132.94ZM613.34 166.26V172.93H619.993V166.26H626.663V172.93H633.334V166.26H640.004V172.93H646.657V166.26H653.327V172.93H646.657V179.6H639.987V172.93H633.334V179.6H626.663V172.93H619.993V179.6H613.323V172.93H606.67V179.6H600V172.93H606.67V166.26H613.34ZM639.987 152.937V146.267H633.334V152.937H639.987ZM626.663 152.937V159.59H633.334V152.937H626.663ZM619.993 152.937H626.663V146.267H619.993V152.937ZM619.993 152.937H613.34V159.59H619.993V152.937ZM619.993 139.594H613.34V146.264H619.993V139.594ZM626.663 139.594V132.94H619.993V139.594H626.663ZM633.337 139.594H626.667V146.264H633.337V139.594ZM633.337 139.594H639.99V132.94H633.337V139.594ZM613.323 146.264V152.933H606.67V146.264H613.323ZM660 126.27H653.33V119.6H660V126.27ZM653.33 139.594H660V132.923H653.33V139.594ZM660 152.937H653.33V146.267H660V152.937ZM653.33 166.26H660V159.59H653.33V166.26ZM653.33 179.6H660V172.93H653.33V179.6Z" fill="#4038FF"/>
<path fill-rule="evenodd" clip-rule="evenodd" d="M166.66 579.59H160.007V572.937H166.66V566.267H160.007V559.597H166.66V552.944H173.33V546.274H166.66V552.927H160.007V546.274H166.66V539.6H159.99V546.27H153.337V552.923H146.667V546.27H139.997V552.923H133.344V546.27H139.997V539.6H133.327V546.27H126.674V539.6H120V546.27H126.67V552.923H120V559.594H126.67V566.264H120V572.933H126.67V579.587V579.603H133.323V586.257H139.993V579.603H146.663V586.257H153.334V579.603H159.987V586.257H166.657V579.603H173.327V572.933H166.657V579.59H166.66ZM126.67 579.606V586.26H120V579.59H126.67V579.606ZM146.663 546.27V539.6H153.334V546.27H146.663ZM166.66 559.594V566.264H173.33V559.594H166.66ZM133.323 552.94H126.67V559.594H133.323V552.94ZM133.34 586.26V592.93H139.993V586.26H146.663V592.93H153.334V586.26H160.004V592.93H166.657V586.26H173.327V592.93H166.657V599.6H159.987V592.93H153.334V599.6H146.663V592.93H139.993V599.6H133.323V592.93H126.67V599.6H120V592.93H126.67V586.26H133.34ZM159.987 572.937V566.267H153.334V572.937H159.987ZM146.663 572.937V579.59H153.334V572.937H146.663ZM139.993 572.937H146.663V566.267H139.993V572.937ZM139.993 572.937H133.34V579.59H139.993V572.937ZM139.993 559.594H133.34V566.264H139.993V559.594ZM146.663 559.594V552.94H139.993V559.594H146.663ZM153.337 559.594H146.667V566.264H153.337V559.594ZM153.337 559.594H159.99V552.94H153.337V559.594ZM133.323 566.264V572.933H126.67V566.264H133.323ZM180 546.27H173.33V539.6H180V546.27ZM173.33 559.594H180V552.923H173.33V559.594ZM180 572.937H173.33V566.267H180V572.937ZM173.33 586.26H180V579.59H173.33V586.26ZM173.33 599.6H180V592.93H173.33V599.6ZM353.33 240H360V300H353.33V240ZM346.667 240H340V300H346.667V240ZM333.334 240H326.667V300H333.334V240ZM313.333 240H320V300H313.333V240ZM306.667 240H300V300H306.667V240Z" fill="#1F242C"/>
<path fill-rule="evenodd" clip-rule="evenodd" d="M361 113.93V120.6H301V113.93H361ZM361 107.267V100.6H301V107.267H361ZM361 93.9334V87.2668H301V93.9334H361ZM361 73.9334V80.6001H301V73.9334H361ZM361 67.2668V60.6001H301V67.2668H361Z" fill="#4038FF"/>
<path fill-rule="evenodd" clip-rule="evenodd" d="M300 473.33V480H240V473.33H300ZM300 466.667V460H240V466.667H300ZM300 453.333V446.667H240V453.333H300ZM300 433.333V440H240V433.333H300ZM300 426.667V420H240V426.667H300ZM600 293.33V300H540V293.33H600ZM600 286.667V280H540V286.667H600ZM600 273.333V266.667H540V273.333H600ZM600 253.333V260H540V253.333H600ZM600 246.667V240H540V246.667H600Z" fill="white"/>
<path fill-rule="evenodd" clip-rule="evenodd" d="M300 306.67V300H240V306.67H300ZM300 326.673V333.343H240V326.673H300ZM300 346.677V340.007H240V346.677H300ZM300 360V353.33H240V360H300ZM300 313.34V320.01H240V313.34H300ZM186.667 120H180C180 153.137 206.863 180 240 180V173.333C210.543 173.333 186.667 149.457 186.667 120ZM200 120H193.333C193.333 145.773 214.227 166.667 240 166.667V160C217.91 160 200 142.09 200 120ZM206.667 120H213.334C213.334 134.727 225.273 146.667 240 146.667V153.333C221.59 153.333 206.667 138.41 206.667 120ZM226.667 120H220C220 131.047 228.953 140 240 140V133.333C232.637 133.333 226.667 127.363 226.667 120ZM240 120H233.333C233.333 123.683 236.317 126.667 240 126.667V120Z" fill="#1F242C"/>
<path fill-rule="evenodd" clip-rule="evenodd" d="M600 413.333V420C633.137 420 660 393.137 660 360H653.333C653.333 389.457 629.457 413.333 600 413.333ZM600 400V406.667C625.773 406.667 646.667 385.773 646.667 360H640C640 382.09 622.09 400 600 400ZM600 393.333V386.666C614.727 386.666 626.667 374.727 626.667 360H633.333C633.333 378.41 618.41 393.333 600 393.333ZM600 373.333V380C611.047 380 620 371.047 620 360H613.333C613.333 367.363 607.363 373.333 600 373.333ZM600 360V366.667C603.683 366.667 606.667 363.683 606.667 360H600Z" fill="#1F242C"/>
<path d="M420 419.6V359.6H480C480 392.737 453.137 419.6 420 419.6Z" fill="#4038FF"/>
<path d="M120 240V300H60C60 266.863 86.8635 240 120 240Z" fill="#4038FF"/>
<path d="M480.6 60L420.6 60V0C453.736 0 480.6 26.8635 480.6 60Z" fill="#1F242C"/>
<path fill-rule="evenodd" clip-rule="evenodd" d="M6.66993 120H0V180H6.66993V120ZM26.6733 120H33.3432V180H26.6733V120ZM46.6767 120H40.0068V180H46.6767V120ZM60 120H53.3301V180H60V120ZM13.3399 120H20.0098V180H13.3399V120Z" fill="#1F242C"/>
<path fill-rule="evenodd" clip-rule="evenodd" d="M487.27 480H480.6V540H487.27V480ZM507.273 480H513.943V540H507.273V480ZM527.276 480H520.606V540H527.276V480ZM540.6 480H533.93V540H540.6V480ZM493.939 480H500.609V540H493.939V480Z" fill="#4038FF"/>
<path d="M451.553 183.544C451.521 181.863 451.375 180.187 451.113 178.526V178.526C451.385 177.861 452.002 177.833 452.554 177.814C455.52 177.711 458.374 177.225 461.406 178.517C463.755 179.528 466.15 177.243 467.956 175.399C469.912 173.423 471.746 171.776 474.459 171.869C476.181 171.935 476.939 169.838 478.323 169.06C480.073 167.965 481.365 167.347 482.478 170.156C483.676 173.171 486.969 172.637 488.476 169.276C489.439 166.742 491.053 164.507 493.154 162.797V162.797C497.328 157.61 501.304 156.814 506.011 160.231C509.513 160.286 512.931 161.314 515.883 163.199C516.333 163.417 516.732 163.727 517.055 164.109C517.377 164.492 517.615 164.938 517.754 165.418C518.065 166.545 518.705 167.554 519.592 168.316C520.478 169.078 521.571 169.559 522.732 169.697C525.38 170.212 527.064 171.71 528.009 174.556C528.418 174.87 528.908 175.062 529.422 175.108C529.935 175.154 530.451 175.054 530.91 174.818C533.502 173.292 535.467 174.332 537.254 176.579C539.247 177.27 541.308 177.751 543.402 178.011C545.329 178.123 547.041 178.947 547.144 181.756C547.21 184.34 546.34 186.147 544.103 186.784C543.163 186.971 542.315 187.473 541.699 188.207H460.358C457.611 186.32 454.657 184.756 451.553 183.544V183.544Z" fill="black" stroke="black" stroke-width="16.6227" stroke-miterlimit="10"/>
<path d="M471.165 185.988C469.453 186.11 467.778 186.756 465.991 186.531C465.387 186.499 464.784 186.621 464.241 186.886C463.697 187.152 463.23 187.551 462.884 188.048H460.077C457.414 186.236 454.558 184.726 451.562 183.544C451.529 181.595 451.347 179.652 451.02 177.73C451.295 177.643 451.582 177.602 451.871 177.609C454.837 177.506 457.691 177.019 460.723 178.311C463.071 179.313 465.467 177.037 467.273 175.193C469.079 173.349 471.062 171.56 473.776 171.663C475.497 171.729 476.255 169.632 477.64 168.854C479.409 167.815 480.663 167.197 481.776 170.025C482.974 173.04 486.267 172.506 487.774 169.145C488.737 166.611 490.351 164.376 492.452 162.666C493.697 162.778 494.838 163.125 496.195 162.338C497.851 161.346 499.292 162.338 499.844 164.398C501.276 169.912 504.317 173.405 508.996 174.996C509.973 175.39 510.863 175.973 511.616 176.71C512.409 177.442 513.364 177.975 514.404 178.265C515.444 178.555 516.537 178.593 517.595 178.376C520.402 177.843 523.162 177.674 525.745 179.827C527.073 180.951 528.449 180.698 529.244 178.47C530.18 175.858 530.938 175.736 532.987 177.374C533.212 177.562 533.417 177.777 533.642 177.964C534.924 179.032 536.196 180.183 537.132 177.487C537.216 177.234 537.609 177.234 537.899 177.262C538.608 177.874 539.479 178.268 540.407 178.395C542.569 178.489 543.879 180.361 545.039 182.14C546.199 183.919 544.889 185.651 543.027 186.25C538.564 187.701 533.932 187.065 529.45 188.048H510.736C507.405 186.7 503.943 187.196 500.518 187.112C499.819 187.117 499.121 187.06 498.432 186.943C498.021 186.864 497.648 186.65 497.373 186.334C497.099 186.018 496.937 185.62 496.916 185.202C496.835 184.79 496.871 184.364 497.02 183.972C497.169 183.58 497.424 183.237 497.758 182.983C498.31 182.608 498.946 182.43 499.517 182.046C500.537 181.447 500.64 180.792 499.695 179.902C496.672 177.037 489.505 177.496 486.819 180.726C485.556 182.252 486.23 183.413 487.241 184.574C488.064 185.511 489.308 186.316 488.176 188.001H480.475C477.668 185.585 474.337 185.754 471.165 185.988Z" fill="#C4C3C6"/>
<path d="M451.553 183.544C451.553 182.589 451.497 181.625 451.385 180.651C452.087 180.024 453.06 179.977 454.557 181.035C454.716 181.132 454.899 181.183 455.085 181.183C455.272 181.183 455.455 181.132 455.614 181.035C458.421 178.517 461.472 180.782 464.391 180.52C466.309 180.352 466.908 182.29 467.376 184.106H452.938C452.48 183.91 452.002 183.732 451.553 183.544Z" fill="white"/>
<path d="M529.432 188.048C533.493 186.269 537.909 187.111 542.017 185.595C542.765 185.333 543.757 185.698 544.141 184.593C544.59 183.282 543.523 182.786 543.009 181.953C541.643 179.752 539.603 178.854 537.638 177.777C536.702 177.992 536.262 177.571 536.571 176.401C538.579 177.096 540.656 177.576 542.765 177.833C544.693 177.945 546.405 178.769 546.508 181.578C546.574 184.162 545.703 185.969 543.467 186.606C542.527 186.793 541.679 187.295 541.062 188.029L529.432 188.048Z" fill="#C4C3C6"/>
<path d="M536.571 176.401L537.638 177.777C537.75 179.275 537.89 180.782 537.956 182.29C538.005 182.698 537.912 183.112 537.692 183.46C537.472 183.808 537.139 184.069 536.749 184.2C535.888 184.499 535.439 184.003 535.055 183.095C533.876 180.286 533.848 180.352 531.313 178.414C530.601 182.814 528.374 184.022 524.987 181.391C524.039 180.656 522.938 180.144 521.765 179.894C520.592 179.645 519.378 179.663 518.213 179.949C515.247 180.464 512.374 180.305 510.044 177.534C509.249 176.597 508.079 176.457 507.04 176.036C503.073 174.425 500.491 171.055 498.881 166.673C498.488 165.634 498.591 164.108 497.3 163.948C496.008 163.789 495.672 165.128 495.176 166.13C494.989 166.504 494.886 166.944 494.53 168.002L492.49 162.666C496.663 157.479 500.64 156.683 505.347 160.1C505.655 160.632 506.131 161.045 506.701 161.274C507.271 161.503 507.901 161.535 508.491 161.364C511.298 160.671 515.041 163.153 516.416 166.448C516.893 167.6 518.288 168.19 517.904 169.847C518.25 169.557 518.774 169.07 519.036 169.407C520.702 171.513 522.919 171.551 525.081 171.879C526.335 172.075 526.25 173.976 527.326 174.425C527.736 174.739 528.225 174.93 528.739 174.977C529.252 175.023 529.768 174.923 530.227 174.687C532.819 173.114 534.784 174.154 536.571 176.401Z" fill="white"/>
<path d="M527.326 174.378C525.848 173.601 524.435 172.506 522.647 173.498C522.355 173.674 522.006 173.729 521.673 173.655C521.341 173.58 521.05 173.38 520.86 173.096C519.279 170.081 517.454 171.064 515.545 172.469C515.162 172.759 514.61 172.974 514.292 172.469C513.852 171.748 514.432 171.345 514.853 170.952C516.93 169.023 517.127 166.729 514.853 164.679C512.982 162.947 511.026 160.597 507.994 162.413C506.544 163.274 505.421 162.076 505.271 160.054C508.773 160.108 512.191 161.136 515.143 163.022C515.593 163.239 515.993 163.549 516.315 163.931C516.638 164.314 516.876 164.76 517.015 165.241C517.326 166.367 517.967 167.374 518.853 168.135C519.74 168.895 520.833 169.374 521.992 169.51C524.697 170.034 526.381 171.532 527.326 174.378Z" fill="#C4C3C6"/>
<path d="M556.604 251.676C547.07 251.676 539.35 249.953 532.36 246.264C532.098 246.264 531.621 246.264 531.294 246.264C530.966 246.264 530.358 246.264 529.974 246.208L526.232 245.927C520.945 245.515 515.48 245.085 510.184 245.085C506.427 245.06 502.673 245.323 498.956 245.871C498.723 245.901 498.489 245.916 498.254 245.918C497.978 245.92 497.703 245.898 497.431 245.853C494.249 245.281 491.002 244.982 487.559 244.663C472.354 243.268 455.128 241.677 444.18 214.918C443.911 214.258 443.796 213.544 443.845 212.832C443.894 212.12 444.104 211.429 444.461 210.811C444.818 210.193 445.311 209.665 445.903 209.267C446.494 208.869 447.169 208.612 447.876 208.514C450.786 208.112 453.696 207.578 456.522 207.054C459.74 206.464 462.828 205.893 465.879 205.528L466.29 205.078C465.227 203.233 464.662 201.142 464.653 199.011C464.72 196.118 465.753 193.331 467.588 191.094C469.423 188.858 471.954 187.301 474.777 186.672C475.21 186.573 475.622 186.399 475.994 186.157C478.539 184.485 481.52 183.599 484.565 183.61C490.272 183.61 495.381 186.653 496.729 190.857C497.178 192.252 498.843 192.888 502.287 193.909C505.487 194.845 510.353 196.296 512.58 200.631C514.107 200.661 515.63 200.801 517.136 201.052C518.259 201.248 519.394 201.364 520.533 201.399C521.424 201.418 522.309 201.256 523.134 200.921L526.877 199.358C535.832 195.613 545.086 191.709 555.753 190.295C557.493 190.061 559.037 189.902 560.488 189.789C560.89 189.789 561.292 189.789 561.676 189.789C563.606 189.756 565.521 190.121 567.304 190.862C569.086 191.603 570.696 192.704 572.034 194.096C572.821 194.937 573.489 195.882 574.018 196.905C576.128 196.336 578.281 195.938 580.455 195.716H580.942C581.321 195.715 581.698 195.762 582.065 195.856C586.65 196.989 589.251 200.172 589.064 204.17C596.952 205.312 605.064 206.548 612.616 210.218H612.943H613.299C621.551 211.426 626.193 216.988 625.126 224.384C624.752 226.931 622.964 232.81 614.309 232.81C612.919 232.789 611.532 232.683 610.155 232.492C609.335 232.391 608.51 232.341 607.684 232.342C603.118 232.342 598.814 233.906 594.266 235.563L592.704 236.125C594.659 238.728 596.671 242.126 595.071 245.487C593.2 249.551 588.091 249.663 585.059 249.729C580.839 249.822 576.638 250.225 572.146 250.665C567.094 251.17 561.854 251.676 556.604 251.676Z" fill="black"/>
<path d="M484.584 188.244C488.326 188.244 491.592 190.117 492.275 192.224C494.876 200.444 508.622 196.352 509.118 205.434C509.118 205.518 509.464 205.668 509.651 205.668H509.707C510.658 205.388 511.645 205.253 512.636 205.266C515.247 205.266 517.848 206.033 520.589 206.033C522.093 206.053 523.586 205.769 524.978 205.2C535.055 201.034 544.946 196.409 556.427 194.901C557.943 194.705 559.43 194.536 560.881 194.433H561.732C567.403 194.433 571.089 198.646 570.809 202.953C574.043 201.537 577.483 200.645 580.998 200.313C583.562 200.949 584.863 202.373 584.32 204.732C583.852 206.736 585.34 207.597 586.865 208.477C595.287 209.694 603.783 210.818 611.353 214.684C611.566 214.772 611.796 214.811 612.026 214.797H612.691C618.417 215.639 621.262 218.785 620.56 223.663C620.036 227.305 617.294 228.129 614.375 228.129C613.179 228.108 611.985 228.015 610.8 227.848C609.789 227.722 608.77 227.659 607.75 227.661C599.142 227.661 592.012 232.127 584.011 233.925L587.997 237.623C592.554 243.334 592.292 244.935 585.022 245.113C575.665 245.319 566.065 247.042 556.633 247.042C549.072 247.042 541.596 245.937 534.354 242.051C533.287 241.49 531.696 241.639 530.339 241.536C523.649 241.05 516.959 240.413 510.259 240.413C506.271 240.384 502.285 240.66 498.338 241.237C480.42 238.044 460.761 242.894 448.597 213.149C455.998 212.138 463.063 210.34 469.379 209.9V208.692C470.409 207.498 471.536 206.389 472.747 205.378C471.724 204.657 470.886 203.705 470.301 202.598C469.715 201.492 469.399 200.263 469.379 199.011V198.937C469.379 195.369 472.045 192.195 475.928 191.212C476.868 190.98 477.763 190.595 478.576 190.07C480.357 188.899 482.443 188.28 484.574 188.291L484.584 188.244ZM484.574 178.929C480.679 178.919 476.864 180.038 473.589 182.149C465.561 184.209 459.984 191.1 459.984 198.937V199.011C459.985 199.896 460.057 200.779 460.199 201.652C458.693 201.904 457.196 202.176 455.717 202.457C452.91 202.962 450.103 203.487 447.296 203.871C445.881 204.064 444.528 204.579 443.343 205.376C442.157 206.174 441.17 207.232 440.456 208.47C439.743 209.708 439.322 211.094 439.226 212.52C439.13 213.946 439.362 215.375 439.904 216.697C445.209 229.655 452.48 238.4 462.146 243.418C470.567 247.791 479.391 248.605 487.185 249.326C490.525 249.635 493.679 249.925 496.664 250.459C497.208 250.553 497.758 250.6 498.31 250.599C498.783 250.602 499.256 250.568 499.723 250.496C503.203 249.989 506.715 249.748 510.231 249.775C515.34 249.775 520.468 250.169 525.904 250.59C527.149 250.684 528.384 250.787 529.647 250.871C530.208 250.918 530.723 250.927 531.144 250.936C538.63 254.681 546.724 256.404 556.623 256.404C562.097 256.404 567.459 255.88 572.652 255.384C577.031 254.962 581.167 254.56 585.218 254.447C588.512 254.373 596.241 254.204 599.366 247.51C600.006 246.128 600.354 244.629 600.388 243.106C600.421 241.584 600.141 240.071 599.563 238.662C602.181 237.672 604.943 237.116 607.741 237.014C608.366 237.015 608.991 237.052 609.612 237.127C611.181 237.346 612.763 237.465 614.347 237.482C624.406 237.482 628.916 231.032 629.795 224.993C631.246 214.956 624.902 207.129 614.019 205.528H613.879C607.086 202.382 600.096 201.006 593.219 199.957C591.909 195.763 588.344 192.467 583.225 191.222C582.488 191.035 581.731 190.941 580.97 190.941C580.658 190.942 580.345 190.961 580.035 190.997C578.715 191.128 577.415 191.325 576.151 191.559C575.946 191.315 575.73 191.081 575.506 190.847C573.735 188.984 571.598 187.509 569.229 186.513C566.86 185.517 564.311 185.023 561.742 185.061C561.236 185.061 560.722 185.061 560.207 185.117C558.663 185.23 557.026 185.398 555.201 185.642C543.916 187.14 534.372 191.147 525.137 195.004L521.394 196.558C521.135 196.657 520.857 196.698 520.58 196.68C519.667 196.641 518.758 196.544 517.857 196.39C517.024 196.268 516.136 196.137 515.181 196.043C514.202 194.811 513.045 193.732 511.747 192.841C509.242 191.266 506.504 190.097 503.635 189.377C502.783 189.134 501.595 188.778 500.827 188.441C498.507 182.749 491.976 178.854 484.556 178.854L484.574 178.929Z" fill="black"/>
<path d="M590.973 208.065C589.457 207.129 587.96 206.305 588.428 204.32C588.98 201.961 587.67 200.575 585.106 199.901C579.176 200.368 573.516 202.576 568.834 206.249C563.931 210.172 557.915 212.016 551.281 212.475C546.48 212.803 541.549 213.046 538.892 217.559C538.162 218.795 536.684 218.748 535.233 218.495C525.118 216.622 514.882 214.909 507.321 207.878C504.729 205.481 501.707 205.369 498.47 206.455C494.287 207.859 490.787 207.55 487.026 204.882C482.02 201.333 478.698 202.438 473.486 208.308V209.479C483.648 213.317 490.834 222.802 503.784 221.491C506.956 221.173 509.118 223.579 511.167 225.48C512.941 227.197 515.045 228.536 517.351 229.417C519.658 230.297 522.119 230.7 524.585 230.601C532.763 230.395 539.35 232.361 542.681 239.86C544.684 244.383 550.102 244.542 554.537 244.317C562.827 243.877 570.968 245.862 579.314 244.907C582.168 244.579 585.125 244.523 588.063 244.167C593.574 243.493 594.51 241.209 592.115 237.22L588.119 233.475C585.537 228.55 585.537 228.55 580.203 228.241C589.027 226.79 599.132 227.305 608.733 224.496C610.295 224.038 611.811 223.794 612.784 222.53C615.105 218.242 611.708 217.503 608.274 217.428C602.454 217.306 597.766 214.993 593.06 212.409C591.001 211.351 590.037 210.125 590.973 208.065Z" fill="#C4C3C6"/>
<path d="M473.523 198.581C473.523 202.653 476.929 206.277 481.561 206.67C482.957 206.806 484.31 207.229 485.535 207.912C486.76 208.595 487.831 209.524 488.682 210.64C490.853 213.186 494.296 212.831 497.281 210.78C500.818 208.346 503.924 208.702 506.638 212.035C509.183 215.199 513.487 216.248 517.221 217.343C522.535 218.907 527.944 220.236 533.502 221.538C537.638 222.474 542.372 221.098 544.15 217.69C544.833 216.388 547.135 215.902 551.392 215.63C559.28 215.124 566.242 212.98 571.875 208.187L571.997 208.084C578.425 202.756 573.868 193.384 565.054 194.04C563.603 194.143 562.116 194.311 560.6 194.508C549.119 196.034 539.228 200.659 529.151 204.807C523.64 207.091 518.858 203.786 513.88 205.266C513.772 205.27 513.664 205.253 513.562 205.214C513.461 205.176 513.369 205.117 513.291 205.041C512.832 195.959 499.087 200.051 496.448 191.83C495.409 188.553 488.279 185.988 482.759 189.63C481.933 190.153 481.025 190.533 480.073 190.754C476.153 191.69 473.523 194.911 473.523 198.478V198.581Z" fill="white"/>
<path d="M592.114 237.211C591.992 240.956 589.822 243.381 585.564 243.624C579.651 243.971 573.625 244.495 567.786 243.839C563.107 243.306 558.429 242.229 553.601 242.182C549.661 242.182 546.442 240.825 545.432 237.014C543.561 230.048 537.338 227.783 530.461 227.839C521.74 227.904 514.825 226.107 509.988 219.338C508.266 216.931 505.468 215.152 501.781 216.922C497.103 219.16 493.089 217.858 490.104 214.741C481.215 205.378 467.647 210.668 452.676 212.718C464.84 242.454 484.49 237.613 502.418 240.806C513.113 239.168 523.77 240.319 534.428 241.106C535.776 241.209 537.376 241.049 538.433 241.621C554.714 250.337 572.165 245.057 589.101 244.682C596.409 244.523 596.671 242.913 592.114 237.211Z" fill="black"/>
<path d="M611.37 221.547C600.722 225.086 589.353 223.541 578.424 225.152C575.692 225.554 572.81 225.592 571.182 227.876C569.947 229.627 567.57 231.621 569.872 233.719C571.743 235.404 574.251 234.505 576.094 233.222C580.268 230.311 584.179 231.481 588.118 233.513C597.035 231.509 604.886 226.172 614.907 227.436C618.772 227.914 623.927 228.373 624.667 223.251C625.378 218.373 622.533 215.227 616.797 214.385C614.991 216.772 614.009 219.647 611.37 221.547Z" fill="black"/>
<path d="M611.37 221.547C613.972 222.221 617.041 223.045 618.716 220.779C620.39 218.514 617.527 216.529 616.844 214.385C616.398 214.427 615.948 214.389 615.515 214.272C607.946 210.396 599.468 209.282 591.019 208.065C587.145 209.507 586.78 211.735 589.943 213.87C594.911 217.231 599.599 221.36 606.842 220.564C608.264 220.405 609.845 221.191 611.37 221.547Z" fill="white"/>
<path d="M473.824 219.871L239.898 173.583V115.534C239.898 111.312 246.13 101.238 253.27 101.153C284.906 100.76 321.632 96.959 361.68 100.433C403.094 104.037 434.768 111.293 462.128 119.701C475.059 123.68 474.909 129.157 474.722 132.724C474.46 138.417 474.123 214.16 473.824 219.871Z" fill="black"/>
<path d="M460.358 189.686L253.072 170.025V126.245C253.072 121.152 258.593 116.452 264.918 116.124C296.937 114.443 329.032 114.915 360.987 117.538C392.096 120.081 422.981 124.877 453.397 131.891C458.272 133.024 461.322 136.572 461.154 140.86C460.892 147.686 460.63 182.833 460.358 189.686Z" fill="#C4C3C6"/>
<path d="M459.489 362.782L426.982 367.21V160.84C426.982 149.699 434.253 139.681 443.236 138.454C452.218 137.228 459.489 145.279 459.489 156.421V362.782Z" fill="black"/>
<path d="M440.427 152.414L440.016 152.47C434.785 153.181 430.537 160.896 430.537 169.706V224.009L433.007 223.672V169.95C433.007 163.115 436.301 157.132 440.353 156.589H440.493C444.545 156.037 447.838 161.121 447.838 167.946V221.65L449.897 221.369V167.066C449.897 158.265 445.658 151.702 440.427 152.414Z" fill="#C4C3C6"/>
<path d="M454.557 260.027L432.615 263.014V236.406L454.557 233.419V260.027Z" fill="#C4C3C6"/>
<path d="M455.193 241.658L433.26 244.645V240.544L455.193 237.557V241.658Z" fill="black"/>
<path d="M455.193 231.883L433.26 234.87V232.52L455.193 229.533V231.883Z" fill="white"/>
<path d="M455.193 226.275V263.201L453.977 263.37V226.444L455.193 226.275Z" fill="black"/>
<path d="M433.26 229.262V266.188L431.969 266.357V229.43L433.26 229.262Z" fill="black"/>
<path d="M455.192 327.279L431.865 330.453V256.441C431.865 251.76 434.588 247.538 437.957 247.079L449.101 245.562C452.469 245.113 455.192 248.558 455.192 253.268V327.279Z" fill="black"/>
<path d="M440.427 249.532L440.016 249.588C434.785 250.3 430.537 258.014 430.537 266.815V321.118L433.007 320.791V267.059C433.007 260.233 436.301 254.251 440.353 253.698H440.493C444.545 253.146 447.838 258.23 447.838 265.064V318.815L449.897 318.534V264.231C449.897 255.355 445.658 248.802 440.427 249.532Z" fill="#C4C3C6"/>
<path d="M443.582 141.6L442.936 141.694C434.749 142.808 428.105 154.895 428.105 168.686V323.993L431.97 323.469V169.07C431.97 158.368 437.126 148.996 443.479 148.135H443.694C450.048 147.264 455.194 155.241 455.194 165.924V320.304L458.422 319.864V164.538C458.422 150.766 451.779 140.486 443.582 141.6Z" fill="white"/>
<path d="M251.621 355.451L281.564 351.369V144.999C281.564 133.866 274.855 125.74 266.592 126.873C258.33 128.005 251.621 137.939 251.621 149.081V355.451Z" fill="black"/>
<path d="M269.222 140.083L269.606 140.036C274.425 139.381 278.336 145.982 278.336 154.792V209.095L276.09 209.479V155.681C276.09 148.847 273.058 143.725 269.325 144.24H269.194C265.451 144.755 262.429 150.7 262.429 157.526V211.286L260.557 211.539V157.235C260.492 148.416 264.403 140.739 269.222 140.083Z" fill="#C4C3C6"/>
<path d="M256.197 251.395L276.418 248.642V222.034L256.197 224.787V251.395Z" fill="#C4C3C6"/>
<path d="M255.607 233.194L275.819 230.442V226.341L255.607 229.093V233.194Z" fill="black"/>
<path d="M255.607 223.42L275.819 220.667V218.317L255.607 221.07V223.42Z" fill="white"/>
<path d="M255.607 217.812V254.738L256.73 254.578V217.652L255.607 217.812Z" fill="black"/>
<path d="M275.818 215.059V251.985L277.016 251.816V214.89L275.818 215.059Z" fill="black"/>
<path d="M255.607 318.806L277.129 315.885V241.199C277.129 236.864 274.611 233.709 271.514 234.112L261.222 235.507C258.115 235.928 255.607 239.785 255.607 244.13V318.806Z" fill="black"/>
<path d="M269.222 237.201L269.605 237.145C274.424 236.49 278.335 243.1 278.335 251.901V306.204L276.052 306.513V252.79C276.052 245.965 273.021 240.843 269.287 241.349H269.156C265.413 241.855 262.391 247.8 262.391 254.634V308.385L260.52 308.647V254.344C260.492 245.525 264.403 237.857 269.222 237.201Z" fill="#C4C3C6"/>
<path d="M266.313 130.093L266.902 130.018C274.453 128.989 280.582 139.381 280.582 153.135V308.442L277.008 308.928V154.53C277.008 143.828 272.264 135.804 266.406 136.6H266.21C260.352 137.396 255.608 146.712 255.608 157.413V311.84L252.633 312.243V156.936C252.633 143.145 258.752 131.123 266.313 130.093Z" fill="white"/>
<path d="M432.55 355.957L389.508 361.808V155.438C389.508 144.296 399.136 133.96 411.029 132.34C422.922 130.721 432.55 138.445 432.55 149.586V355.957Z" fill="black"/>
<path d="M409.035 146.188L408.492 146.263C401.568 147.199 395.963 155.101 395.963 163.911V218.214L399.229 217.765V164.042C399.229 157.217 403.58 151.084 408.941 150.354H409.128C414.49 149.624 418.841 154.567 418.841 161.393V215.096L421.564 214.731V160.428C421.564 151.618 415.949 145.242 409.035 146.188Z" fill="#C4C3C6"/>
<path d="M425.981 253.417L396.975 257.368V230.76L425.981 226.809V253.417Z" fill="#C4C3C6"/>
<path d="M426.833 235.02L397.826 238.971V234.861L426.833 230.919V235.02Z" fill="black"/>
<path d="M426.833 225.246L397.826 229.197V226.837L426.833 222.896V225.246Z" fill="white"/>
<path d="M426.832 219.637V256.563L425.223 256.779V219.853L426.832 219.637Z" fill="black"/>
<path d="M397.826 223.579V260.505L396.113 260.739V223.813L397.826 223.579Z" fill="black"/>
<path d="M426.831 320.641L395.953 324.835V253.577C395.953 247.341 399.565 241.808 404.01 241.199L418.756 239.196C423.21 238.587 426.813 243.147 426.813 249.373L426.831 320.641Z" fill="black"/>
<path d="M409.035 243.297L408.492 243.371C401.568 244.308 395.963 252.219 395.963 261.02V315.323L399.229 314.883V261.16C399.229 254.326 403.58 248.203 408.941 247.472H409.128C414.49 246.742 418.841 251.685 418.841 258.52V312.271L421.564 311.896V257.593C421.564 248.736 415.949 242.36 409.035 243.297Z" fill="#C4C3C6"/>
<path d="M411.478 135.514L410.626 135.636C399.782 137.106 390.977 149.493 390.977 163.284V318.544L396.095 317.851V163.443C396.095 152.751 402.907 143.154 411.319 142.003H411.599C420.021 140.86 426.814 148.556 426.814 159.305V313.666L431.081 313.085V157.779C431.099 143.987 422.313 133.998 411.478 135.514Z" fill="white"/>
<path d="M274.547 353.822L317.589 347.97V141.6C317.589 130.458 307.961 122.744 296.068 124.354C284.175 125.964 274.547 136.319 274.547 147.451V353.822Z" fill="black"/>
<path d="M298.061 137.658L298.613 137.583C305.528 136.647 311.132 143.014 311.132 151.824V206.127L307.867 206.567V152.844C307.867 146.019 303.516 141.076 298.154 141.806H297.977C292.606 142.536 288.264 148.669 288.264 155.494V209.245L285.541 209.619V155.316C285.541 146.496 291.146 138.594 298.061 137.658Z" fill="#C4C3C6"/>
<path d="M281.115 249.495L310.131 245.553V218.944L281.115 222.886V249.495Z" fill="#C4C3C6"/>
<path d="M280.264 231.331L309.27 227.38V223.279L280.264 227.23V231.331Z" fill="black"/>
<path d="M280.264 221.557L309.27 217.606V215.256L280.264 219.207V221.557Z" fill="white"/>
<path d="M280.264 215.948V252.874L281.873 252.65V215.724L280.264 215.948Z" fill="black"/>
<path d="M309.27 211.997V248.923L310.982 248.689V211.763L309.27 211.997Z" fill="black"/>
<path d="M280.264 316.952L311.142 312.748V241.49C311.142 235.254 307.53 230.704 303.085 231.303L288.339 233.316C283.894 233.915 280.282 239.458 280.282 245.684L280.264 316.952Z" fill="black"/>
<path d="M298.061 234.758L298.613 234.683C305.528 233.747 311.132 240.122 311.132 248.923V303.226L307.867 303.676V249.953C307.867 243.128 303.516 238.184 298.154 238.915H297.977C292.606 239.645 288.264 245.768 288.264 252.593V306.382L285.541 306.747V252.444C285.541 243.615 291.146 235.694 298.061 234.758Z" fill="#C4C3C6"/>
<path d="M295.619 127.603L296.48 127.49C307.315 126.011 316.13 136.001 316.13 149.792V305.099L311.011 305.801V151.431C311.011 140.739 304.199 132.996 295.797 134.138H295.507C287.085 135.28 280.292 144.877 280.292 155.578V309.977L276.025 310.557V155.251C275.997 141.459 284.784 129.082 295.619 127.603Z" fill="white"/>
<path d="M396.59 358.157L349 364.626V150.616C349 139.063 359.648 128.249 372.795 126.46C385.941 124.672 396.59 132.584 396.59 144.137V358.157Z" fill="black"/>
<path d="M372.159 140.617L371.56 140.701C363.906 141.74 357.693 149.989 357.693 159.117V215.471L361.315 214.975V159.23C361.315 152.142 366.124 145.748 372.066 144.942H372.262C378.204 144.137 383.013 149.221 383.013 156.299V212.054L386.026 211.642V155.269C386.026 146.131 379.823 139.578 372.159 140.617Z" fill="#C4C3C6"/>
<path d="M389.32 251.882L357.207 256.245V228.653L389.32 224.281V251.882Z" fill="#C4C3C6"/>
<path d="M390.266 232.792L358.152 237.164V232.904L390.266 228.532V232.792Z" fill="black"/>
<path d="M390.266 222.652L358.152 227.024V224.581L390.266 220.218V222.652Z" fill="white"/>
<path d="M390.266 216.838V255.131L388.479 255.374V217.081L390.266 216.838Z" fill="black"/>
<path d="M358.152 221.201V259.503L356.271 259.756V221.463L358.152 221.201Z" fill="black"/>
<path d="M390.247 321.577L356.094 326.258V251.91C356.094 245.675 359.696 240.141 364.15 239.533L382.19 237.08C386.635 236.471 390.247 241.031 390.247 247.257V321.577Z" fill="black"/>
<path d="M372.159 241.311L371.56 241.396C363.906 242.435 357.693 250.683 357.693 259.812V316.212L361.315 315.725V259.943C361.315 252.856 366.124 246.461 372.066 245.656H372.262C378.204 244.851 383.013 249.934 383.013 257.013V312.758L386.026 312.355V255.973C386.026 246.845 379.823 240.291 372.159 241.311Z" fill="#C4C3C6"/>
<path d="M373.262 129.7L372.327 129.822C360.303 131.46 350.6 144.381 350.6 158.687V319.723L356.27 318.956V158.855C356.27 147.76 363.802 137.742 373.113 136.478L373.403 136.45C382.704 135.186 390.245 143.154 390.245 154.239V314.34L394.924 313.703V152.648C394.98 138.323 385.258 128.024 373.262 129.7Z" fill="white"/>
<path d="M309.551 361.527L357.141 355.048V141.038C357.141 129.485 346.492 121.564 333.346 123.352C320.199 125.14 309.551 135.954 309.551 147.508V361.527Z" fill="black"/>
<path d="M333.973 137.387L334.581 137.303C342.235 136.263 348.439 142.826 348.439 151.955V208.299L344.827 208.795V153.004C344.827 145.916 340.018 140.832 334.076 141.637H333.879C327.938 142.452 323.128 148.847 323.128 155.925V211.67L320.115 212.082V155.766C320.115 146.628 326.319 138.379 333.973 137.387Z" fill="#C4C3C6"/>
<path d="M316.822 253.277L348.926 248.905V221.313L316.822 225.676V253.277Z" fill="#C4C3C6"/>
<path d="M315.877 234.439L347.981 230.076V225.816L315.877 230.189V234.439Z" fill="black"/>
<path d="M315.877 224.309L347.981 219.937V217.493L315.877 221.866V224.309Z" fill="white"/>
<path d="M315.877 218.486V256.779L317.664 256.535V218.242L315.877 218.486Z" fill="black"/>
<path d="M347.98 214.113V252.416L349.871 252.153V213.86L347.98 214.113Z" fill="black"/>
<path d="M315.877 323.234L350.03 318.553V244.261C350.03 238.035 346.418 233.475 341.974 234.084L323.933 236.537C319.489 237.145 315.877 242.679 315.877 248.914V323.234Z" fill="black"/>
<path d="M333.973 238.053L334.581 237.969C342.235 236.93 348.439 243.493 348.439 252.622V308.966L344.827 309.462V253.717C344.827 246.629 340.018 241.546 334.076 242.351H333.879C327.938 243.165 323.128 249.56 323.128 256.638V312.383L320.115 312.795V256.479C320.115 247.341 326.319 239.093 333.973 238.053Z" fill="#C4C3C6"/>
<path d="M332.879 126.723L333.815 126.592C345.811 124.962 355.532 135.233 355.532 149.539V310.595L349.862 311.372V151.271C349.862 140.177 342.32 132.209 333.019 133.482H332.711C323.41 134.746 315.868 144.718 315.868 155.859V315.959L311.19 316.596V155.559C311.152 141.281 320.883 128.352 332.879 126.723Z" fill="white"/>
<path d="M513.928 387.902L191.719 325.762V188.984C191.72 183.621 192.905 178.325 195.19 173.474C197.475 168.623 200.803 164.336 204.936 160.922C209.069 157.508 213.905 155.049 219.098 153.722C224.291 152.395 229.713 152.233 234.976 153.247L478.755 200.257C488.653 202.168 497.577 207.468 503.996 215.247C510.414 223.026 513.926 232.797 513.928 242.885V387.902Z" fill="black"/>
<path d="M497.469 257.556L209.17 205.209V192.102C209.175 190.263 209.556 188.445 210.291 186.76C211.026 185.074 212.098 183.557 213.441 182.303C214.784 181.048 216.37 180.082 218.101 179.465C219.832 178.848 221.671 178.592 223.505 178.713C269.009 181.641 314.327 186.982 359.266 194.714C401.611 201.985 443.532 211.539 484.846 223.335C488.863 224.486 492.372 226.963 494.803 230.363C497.234 233.763 498.444 237.885 498.236 242.061C497.98 247.223 497.725 252.388 497.469 257.556Z" fill="#C4C3C6"/>
<path d="M544.942 530.005C544.939 547.388 531.071 561.563 513.689 561.708C492.415 561.887 462.385 561.92 430.346 561.269C388.478 560.418 343.178 558.397 309.501 554C287.778 551.164 264.849 545.923 243.501 540.021C216.122 532.452 191.344 523.796 175.046 517.729C162.932 513.22 155.16 501.578 155.16 488.652V324.948C155.16 311.569 162.76 288.782 192.939 287.61C194.567 287.547 196.204 287.687 197.814 287.935L514.984 336.726C528.084 338.786 544.973 350.133 544.973 375.88L544.942 530.005Z" fill="black"/>
<path d="M209.17 364.027H227.004V202.925C227.004 194.237 223.018 187.187 218.087 187.187C213.156 187.187 209.17 194.237 209.17 202.925V364.027Z" fill="black"/>
<path d="M219.649 197.813H219.874C222.737 197.813 225.067 203.384 225.067 210.256V252.659H223.692V210.705C223.692 205.378 221.886 201.062 219.668 201.062H219.593C217.366 201.062 215.56 205.378 215.56 210.705V252.659H214.438V210.256C214.456 203.384 216.777 197.813 219.649 197.813Z" fill="#C4C3C6"/>
<path d="M211.893 283.303H223.926V262.537H211.893V283.303Z" fill="#C4C3C6"/>
<path d="M211.537 269.034H223.57V265.832H211.537V269.034Z" fill="black"/>
<path d="M211.537 261.413H223.57V259.578H211.537V261.413Z" fill="white"/>
<path d="M211.545 257.032V285.85H212.209V257.032H211.545Z" fill="black"/>
<path d="M223.57 257.032V285.85H224.281V257.032H223.57Z" fill="black"/>
<path d="M224.356 335.855H211.555V275.466C211.555 274.396 211.98 273.37 212.737 272.613C213.493 271.856 214.519 271.431 215.588 271.431H220.332C221.402 271.431 222.428 271.856 223.184 272.613C223.94 273.37 224.365 274.396 224.365 275.466V335.855H224.356Z" fill="black"/>
<path d="M219.649 273.613H219.874C222.737 273.613 225.067 279.183 225.067 286.055V328.459H223.692V286.505C223.692 281.178 221.886 276.852 219.668 276.852H219.593C217.366 276.852 215.56 281.178 215.56 286.505V328.459H214.438V286.055C214.456 279.183 216.777 273.613 219.649 273.613Z" fill="#C4C3C6"/>
<path d="M217.909 189.705H218.264C222.765 189.705 226.405 198.44 226.405 209.207V330.416H224.281V209.91C224.281 201.558 221.474 194.798 217.974 194.798H217.852C214.372 194.798 211.546 201.558 211.546 209.91V330.416H209.777V209.207C209.777 198.44 213.399 189.705 217.909 189.705Z" fill="white"/>
<path d="M497.467 409.904H479.633V248.802C479.633 240.113 483.628 233.063 488.55 233.063C493.472 233.063 497.467 240.113 497.467 248.802V409.904Z" fill="black"/>
<path d="M486.997 243.69H486.773C483.9 243.69 481.57 249.307 481.57 256.133V298.536H482.927V256.582C482.927 251.255 484.733 246.939 486.96 246.939H487.035C489.262 246.939 491.058 251.255 491.058 256.582V298.536H492.237V256.133C492.237 249.26 489.861 243.69 486.997 243.69Z" fill="#C4C3C6"/>
<path d="M494.746 308.413H482.713V329.18H494.746V308.413Z" fill="#C4C3C6"/>
<path d="M495.101 311.709H483.068V314.911H495.101V311.709Z" fill="black"/>
<path d="M495.101 305.446H483.068V307.281H495.101V305.446Z" fill="white"/>
<path d="M494.428 302.908V331.726H495.092V302.908H494.428Z" fill="black"/>
<path d="M482.357 302.908V331.726H483.069V302.908H482.357Z" fill="black"/>
<path d="M486.334 317.317H491.078C491.607 317.317 492.132 317.422 492.621 317.625C493.11 317.827 493.555 318.125 493.929 318.499C494.304 318.874 494.601 319.319 494.803 319.808C495.006 320.298 495.11 320.823 495.11 321.353V381.751H482.301V321.362C482.3 320.831 482.403 320.306 482.605 319.815C482.807 319.324 483.104 318.878 483.479 318.503C483.853 318.127 484.298 317.829 484.788 317.625C485.278 317.422 485.803 317.317 486.334 317.317V317.317Z" fill="black"/>
<path d="M486.997 319.489H486.773C483.9 319.489 481.57 325.06 481.57 331.932V374.335H482.927V332.382C482.927 327.054 484.733 322.729 486.96 322.729H487.035C489.262 322.729 491.058 327.054 491.058 332.382V374.335H492.237V331.932C492.237 325.06 489.861 319.489 486.997 319.489Z" fill="#C4C3C6"/>
<path d="M488.729 235.582H488.373C483.882 235.582 480.242 244.317 480.242 255.084V376.292H482.357V255.786C482.357 247.435 485.164 240.675 488.673 240.675H488.785C492.275 240.675 495.101 247.435 495.101 255.786V376.292H496.916V255.084C496.916 244.317 493.22 235.582 488.729 235.582Z" fill="white"/>
<path d="M482.61 401.478H450.365V240.375C450.508 236.192 452.269 232.228 455.277 229.319C458.285 226.41 462.304 224.784 466.487 224.784C470.671 224.784 474.69 226.41 477.698 229.319C480.706 232.228 482.467 236.192 482.61 240.375V401.478Z" fill="black"/>
<path d="M463.67 235.263H463.23C458.046 235.263 453.873 240.881 453.873 247.706V290.11H456.325V248.156C456.325 242.828 459.59 238.512 463.614 238.512H463.745C467.768 238.512 471.034 242.828 471.034 248.156V290.11H473.074V247.706C473.064 240.834 468.844 235.263 463.67 235.263Z" fill="#C4C3C6"/>
<path d="M477.687 299.987H455.932V320.753H477.687V299.987Z" fill="#C4C3C6"/>
<path d="M478.323 303.283H456.568V306.485H478.323V303.283Z" fill="black"/>
<path d="M478.323 297.019H456.568V298.854H478.323V297.019Z" fill="white"/>
<path d="M477.107 294.482V323.3H478.315V294.482H477.107Z" fill="black"/>
<path d="M455.287 294.482V323.3H456.569V294.482H455.287Z" fill="black"/>
<path d="M462.463 308.891H471.034C472.968 308.891 474.822 309.659 476.189 311.027C477.556 312.395 478.324 314.25 478.324 316.184V373.296H455.184V316.212C455.18 315.253 455.365 314.302 455.73 313.415C456.094 312.527 456.629 311.72 457.305 311.04C457.982 310.36 458.785 309.82 459.67 309.451C460.555 309.083 461.505 308.892 462.463 308.891V308.891Z" fill="black"/>
<path d="M463.67 311.063H463.23C458.046 311.063 453.873 316.634 453.873 323.506V365.909H456.325V323.955C456.325 318.628 459.59 314.302 463.614 314.302H463.745C467.768 314.302 471.034 318.628 471.034 323.955V365.909H473.074V323.506C473.064 316.634 468.844 311.063 463.67 311.063Z" fill="#C4C3C6"/>
<path d="M466.806 227.155H466.17C458.039 227.155 451.451 235.891 451.451 246.658V367.866H455.288V247.36C455.288 239.008 460.396 232.249 466.703 232.249H466.909C473.216 232.249 478.324 239.008 478.324 247.36V367.866H481.525V246.658C481.525 235.891 474.937 227.155 466.806 227.155Z" fill="white"/>
<path d="M222.549 364.027H252.267V202.925C252.267 194.237 245.614 187.187 237.408 187.187C229.202 187.187 222.549 194.237 222.549 202.925V364.027Z" fill="black"/>
<path d="M240.001 197.813H240.385C245.166 197.813 249.04 203.384 249.04 210.256V252.659H246.776V210.705C246.776 205.378 243.772 201.062 240.067 201.062H239.945C236.202 201.062 233.227 205.378 233.227 210.705V252.659H231.355V210.256C231.346 203.384 235.22 197.813 240.001 197.813Z" fill="#C4C3C6"/>
<path d="M227.089 283.303H247.141V262.537H227.089V283.303Z" fill="#C4C3C6"/>
<path d="M226.499 269.034H246.551V265.832H226.499V269.034Z" fill="black"/>
<path d="M226.499 261.413H246.551V259.578H226.499V261.413Z" fill="white"/>
<path d="M226.498 257.032V285.85H227.612V257.032H226.498Z" fill="black"/>
<path d="M246.551 257.032V285.85H247.73V257.032H246.551Z" fill="black"/>
<path d="M247.823 335.855H226.498V278.154C226.498 276.371 227.206 274.661 228.466 273.4C229.726 272.139 231.435 271.431 233.216 271.431H241.114C242.896 271.431 244.604 272.139 245.864 273.4C247.124 274.661 247.832 276.371 247.832 278.154V335.855H247.823Z" fill="black"/>
<path d="M240.001 273.613H240.385C245.166 273.613 249.04 279.183 249.04 286.055V328.459H246.776V286.505C246.776 281.178 243.772 276.852 240.067 276.852H239.945C236.202 276.852 233.227 281.178 233.227 286.505V328.459H231.355V286.055C231.346 279.183 235.22 273.613 240.001 273.613Z" fill="#C4C3C6"/>
<path d="M237.108 189.705H237.726C245.212 189.705 251.294 198.44 251.294 209.207V330.416H247.757V209.91C247.757 201.558 243.078 194.798 237.239 194.798H237.043C231.232 194.798 226.526 201.558 226.526 209.91V330.416H223.578V209.207C223.55 198.44 229.623 189.705 237.108 189.705Z" fill="white"/>
<path d="M455.858 393.988H413.209V232.885C413.209 224.197 422.762 217.147 434.534 217.147C446.305 217.147 455.858 224.197 455.858 232.885V393.988Z" fill="black"/>
<path d="M432.539 227.773H431.996C428.7 227.776 425.539 229.088 423.209 231.421C420.879 233.754 419.57 236.918 419.57 240.216V282.619H422.817V240.666C422.816 239.399 423.064 238.145 423.547 236.974C424.03 235.804 424.739 234.74 425.633 233.844C426.528 232.947 427.589 232.236 428.758 231.75C429.927 231.265 431.18 231.014 432.446 231.013H432.623C435.179 231.013 437.631 232.029 439.438 233.837C441.246 235.646 442.261 238.099 442.261 240.656V282.61H444.956V240.216C444.957 238.583 444.637 236.966 444.014 235.457C443.39 233.948 442.476 232.577 441.323 231.422C440.17 230.266 438.801 229.349 437.294 228.723C435.787 228.097 434.171 227.774 432.539 227.773Z" fill="#C4C3C6"/>
<path d="M449.345 292.497H420.572V313.263H449.345V292.497Z" fill="#C4C3C6"/>
<path d="M450.187 295.792H421.414V298.994H450.187V295.792Z" fill="black"/>
<path d="M450.187 289.529H421.414V291.364H450.187V289.529Z" fill="white"/>
<path d="M448.588 286.992V315.81H450.188V286.992H448.588Z" fill="black"/>
<path d="M419.721 286.992V315.81H421.414V286.992H419.721Z" fill="black"/>
<path d="M429.218 301.401H440.549C443.105 301.401 445.557 302.417 447.364 304.225C449.171 306.034 450.187 308.487 450.187 311.044V365.834H419.58V311.035C419.583 308.479 420.599 306.029 422.406 304.222C424.213 302.416 426.663 301.401 429.218 301.401Z" fill="black"/>
<path d="M432.539 303.573H431.996C428.7 303.575 425.539 304.888 423.209 307.221C420.879 309.554 419.57 312.717 419.57 316.016V358.419H422.817V316.465C422.825 313.914 423.842 311.47 425.647 309.668C427.451 307.866 429.896 306.852 432.446 306.85H432.623C435.18 306.852 437.632 307.87 439.439 309.68C441.246 311.49 442.261 313.944 442.261 316.503V358.457H444.956V316.016C444.957 314.383 444.637 312.766 444.014 311.257C443.39 309.748 442.476 308.377 441.323 307.221C440.17 306.066 438.801 305.149 437.294 304.523C435.787 303.897 434.171 303.574 432.539 303.573V303.573Z" fill="#C4C3C6"/>
<path d="M434.953 219.665H434.111C428.946 219.67 423.994 221.727 420.344 225.385C416.695 229.042 414.646 233.999 414.648 239.168V360.376H419.729V239.87C419.728 237.887 420.117 235.923 420.875 234.09C421.632 232.257 422.743 230.592 424.143 229.188C425.544 227.785 427.207 226.672 429.038 225.912C430.868 225.152 432.831 224.76 434.813 224.759H435.103C437.085 224.76 439.047 225.152 440.878 225.912C442.709 226.672 444.372 227.785 445.772 229.188C447.173 230.592 448.284 232.257 449.041 234.09C449.798 235.923 450.188 237.887 450.186 239.87V360.376H454.425V239.168C454.426 236.608 453.924 234.073 452.946 231.707C451.968 229.342 450.534 227.192 448.726 225.381C446.918 223.57 444.771 222.133 442.408 221.153C440.045 220.172 437.511 219.667 434.953 219.665V219.665Z" fill="white"/>
<path d="M245.287 365.9H287.936V204.797C287.936 196.109 278.383 189.059 266.612 189.059C254.841 189.059 245.287 196.109 245.287 204.797V365.9Z" fill="black"/>
<path d="M268.604 199.686H269.147C272.443 199.688 275.604 201 277.934 203.333C280.264 205.667 281.573 208.83 281.573 212.128V254.532H278.326V212.578C278.327 211.311 278.079 210.057 277.596 208.887C277.113 207.716 276.404 206.652 275.51 205.756C274.616 204.86 273.554 204.148 272.385 203.663C271.216 203.177 269.963 202.926 268.698 202.925H268.52C267.254 202.925 266.001 203.174 264.832 203.659C263.663 204.144 262.6 204.854 261.705 205.75C260.81 206.645 260.1 207.708 259.616 208.878C259.132 210.048 258.882 211.302 258.882 212.568V254.522H256.188V212.128C256.186 210.496 256.506 208.879 257.13 207.37C257.753 205.861 258.667 204.489 259.82 203.334C260.973 202.178 262.343 201.262 263.85 200.636C265.357 200.01 266.972 199.687 268.604 199.686V199.686Z" fill="#C4C3C6"/>
<path d="M251.799 285.176H280.572V264.409H251.799V285.176Z" fill="#C4C3C6"/>
<path d="M250.948 270.907H279.721V267.705H250.948V270.907Z" fill="black"/>
<path d="M250.948 263.286H279.721V261.451H250.948V263.286Z" fill="white"/>
<path d="M250.947 258.904V287.722H252.547V258.904H250.947Z" fill="black"/>
<path d="M279.721 258.904V287.722H281.414V258.904H279.721Z" fill="black"/>
<path d="M281.555 337.728H250.948V282.947C250.948 280.39 251.964 277.937 253.771 276.128C255.579 274.32 258.03 273.304 260.586 273.304H271.927C274.483 273.304 276.934 274.32 278.742 276.128C280.549 277.937 281.564 280.39 281.564 282.947V337.728H281.555Z" fill="black"/>
<path d="M268.604 275.485H269.147C272.443 275.488 275.604 276.8 277.934 279.133C280.264 281.466 281.573 284.63 281.573 287.928V330.331H278.326V288.377C278.319 285.826 277.301 283.382 275.497 281.58C273.692 279.778 271.247 278.764 268.698 278.762H268.52C265.963 278.765 263.512 279.783 261.705 281.593C259.897 283.403 258.882 285.856 258.882 288.415V330.369H256.188V287.928C256.186 286.295 256.506 284.678 257.13 283.169C257.753 281.66 258.667 280.289 259.82 279.133C260.973 277.978 262.343 277.061 263.85 276.435C265.357 275.809 266.972 275.486 268.604 275.485V275.485Z" fill="#C4C3C6"/>
<path d="M266.191 191.577H267.033C272.198 191.582 277.15 193.64 280.799 197.297C284.449 200.954 286.498 205.911 286.495 211.08V332.288H281.415V211.782C281.416 209.799 281.027 207.835 280.269 206.002C279.512 204.169 278.401 202.504 277.001 201.101C275.6 199.697 273.937 198.584 272.106 197.824C270.275 197.064 268.313 196.672 266.331 196.671H266.041C264.059 196.672 262.097 197.064 260.266 197.824C258.435 198.584 256.772 199.697 255.371 201.101C253.971 202.504 252.86 204.169 252.103 206.002C251.345 207.835 250.956 209.799 250.957 211.782V332.288H246.719V211.08C246.718 208.52 247.22 205.985 248.198 203.619C249.176 201.254 250.61 199.104 252.418 197.293C254.226 195.482 256.373 194.046 258.736 193.065C261.099 192.084 263.632 191.579 266.191 191.577V191.577Z" fill="white"/>
<path d="M420.189 391.179H372.992V224.15C372.992 215.124 383.556 207.822 396.591 207.822C409.625 207.822 420.189 215.096 420.189 224.15V391.179Z" fill="black"/>
<path d="M395.973 218.841H395.374C387.776 218.841 381.619 224.618 381.619 231.743V275.747H385.212V232.174C385.212 226.65 389.984 222.174 395.87 222.174H396.066C401.952 222.174 406.733 226.65 406.733 232.174V275.682H409.718V231.677C409.718 224.581 403.561 218.841 395.973 218.841Z" fill="#C4C3C6"/>
<path d="M412.985 285.924H381.143V307.458H412.985V285.924Z" fill="#C4C3C6"/>
<path d="M413.92 289.342H382.078V292.666H413.92V289.342Z" fill="black"/>
<path d="M413.92 282.854H382.078V284.754H413.92V282.854Z" fill="white"/>
<path d="M412.15 280.222V310.108H413.919V280.222H412.15Z" fill="black"/>
<path d="M380.205 280.213V310.099H382.076V280.213H380.205Z" fill="black"/>
<path d="M389.685 295.156H404.282C406.838 295.156 409.289 296.172 411.096 297.981C412.904 299.789 413.919 302.242 413.919 304.799V361.968H380.047V304.799C380.047 302.242 381.062 299.789 382.87 297.981C384.677 296.172 387.129 295.156 389.685 295.156V295.156Z" fill="black"/>
<path d="M395.973 297.412H395.374C387.776 297.412 381.619 303.189 381.619 310.314V354.318H385.212V310.782C385.212 305.258 389.984 300.774 395.87 300.774H396.066C401.952 300.774 406.733 305.258 406.733 310.782V354.29H409.718V310.286C409.718 303.189 403.561 297.412 395.973 297.412Z" fill="#C4C3C6"/>
<path d="M397.058 210.415H396.123C384.23 210.415 374.602 219.469 374.602 230.638V356.322H380.216V231.35C380.216 222.689 387.701 215.677 396.918 215.677H397.227C406.453 215.677 413.929 222.689 413.929 231.35V356.322H418.608V230.62C418.608 219.45 408.961 210.415 397.058 210.415Z" fill="white"/>
<path d="M280.854 377.135H328.06V210.106C328.06 201.08 317.496 193.778 304.461 193.778C291.427 193.778 280.854 201.08 280.854 210.106V377.135Z" fill="black"/>
<path d="M305.097 204.797H305.696C313.294 204.797 319.451 210.574 319.451 217.699V261.703H315.858V218.13C315.858 212.606 311.086 208.13 305.2 208.13H305.003C299.109 208.13 294.336 212.606 294.336 218.13V261.638H291.352V217.633C291.333 210.537 297.49 204.797 305.097 204.797Z" fill="#C4C3C6"/>
<path d="M288.068 293.424H319.91V271.89H288.068V293.424Z" fill="#C4C3C6"/>
<path d="M287.131 278.631H318.973V275.307H287.131V278.631Z" fill="black"/>
<path d="M287.131 270.71H318.973V268.81H287.131V270.71Z" fill="white"/>
<path d="M287.131 266.179V296.064H288.899V266.179H287.131Z" fill="black"/>
<path d="M318.973 266.169V296.055H320.844V266.169H318.973Z" fill="black"/>
<path d="M321.004 347.924H287.131V290.756C287.131 288.198 288.147 285.745 289.954 283.937C291.762 282.128 294.213 281.112 296.769 281.112H311.366C313.922 281.112 316.374 282.128 318.181 283.937C319.988 285.745 321.004 288.198 321.004 290.756V347.924Z" fill="black"/>
<path d="M305.097 283.368H305.696C313.294 283.368 319.451 289.145 319.451 296.27V340.274H315.858V296.738C315.858 291.214 311.086 286.73 305.2 286.73H305.003C299.109 286.73 294.336 291.214 294.336 296.738V340.246H291.352V296.242C291.333 289.145 297.49 283.368 305.097 283.368Z" fill="#C4C3C6"/>
<path d="M303.993 196.371H304.928C316.821 196.371 326.449 205.425 326.449 216.594V342.278H320.835V217.306C320.835 208.645 313.35 201.633 304.133 201.633H303.824C294.598 201.633 287.122 208.645 287.122 217.306V342.278H282.443V216.576C282.443 205.406 292.09 196.371 303.993 196.371Z" fill="white"/>
<path d="M338.081 198.721H361.576C364.2 198.721 366.797 199.238 369.221 200.243C371.645 201.247 373.847 202.72 375.702 204.576C377.557 206.432 379.029 208.636 380.033 211.061C381.037 213.486 381.553 216.085 381.553 218.71V365.376H318.104V218.71C318.104 216.085 318.62 213.486 319.624 211.061C320.628 208.636 322.1 206.432 323.955 204.576C325.81 202.72 328.012 201.247 330.436 200.243C332.86 199.238 335.457 198.721 338.081 198.721Z" fill="black"/>
<path d="M350.46 200.594H349.197C333.206 200.594 320.246 210.228 320.246 222.128V356.013H327.797V222.905C327.797 213.683 337.847 206.211 350.254 206.211H350.675C363.082 206.211 373.132 213.701 373.132 222.905V356.013H379.429V222.128C379.42 210.228 366.451 200.594 350.46 200.594Z" fill="white"/>
<path d="M349.375 209.544H348.57C338.361 209.544 330.09 215.695 330.09 223.288V270.102H334.909V223.757C334.909 217.868 341.328 213.102 349.244 213.102H349.506C357.422 213.102 363.841 217.868 363.841 223.757V270.102H367.855V223.288C367.855 215.695 359.583 209.544 349.375 209.544Z" fill="#C4C3C6"/>
<path d="M371.859 276.899H329.051V299.837H371.859V276.899Z" fill="#C4C3C6"/>
<path d="M373.123 280.541H330.314V284.08H373.123V280.541Z" fill="black"/>
<path d="M373.123 273.622H330.314V275.654H373.123V273.622Z" fill="white"/>
<path d="M370.746 270.813V302.646H373.123V270.813H370.746Z" fill="black"/>
<path d="M327.797 270.813V302.646H330.314V270.813H327.797Z" fill="black"/>
<path d="M341.927 286.73H358.77C362.572 286.73 366.218 288.241 368.906 290.931C371.594 293.621 373.105 297.269 373.105 301.073V357.885H327.555V301.073C327.555 299.186 327.927 297.318 328.649 295.575C329.372 293.833 330.431 292.25 331.767 290.917C333.102 289.585 334.686 288.529 336.43 287.811C338.173 287.092 340.041 286.725 341.927 286.73V286.73Z" fill="black"/>
<path d="M350.863 289.126H350.058C339.85 289.126 331.578 295.278 331.578 302.871V349.684H336.397V303.339C336.397 297.45 342.816 292.684 350.732 292.684H350.994C358.91 292.684 365.329 297.45 365.329 303.339V349.684H369.343V302.871C369.343 295.278 361.071 289.126 350.863 289.126Z" fill="#C4C3C6"/>
<path d="M343.162 186.896C339.968 186.347 336.893 185.676 333.936 184.883C333.88 184.724 333.824 184.565 333.758 184.415C330.652 184.49 327.452 184.415 324.177 184.19C321.819 184.19 319.498 184.237 317.178 184.293L317 184.855C327.835 187.786 332.271 193.703 332.271 193.703C337.608 190.618 343.691 189.063 349.853 189.209V188.628C347.672 188.029 345.427 187.458 343.162 186.896Z" fill="black"/>
<path d="M389.31 194.733C386.381 194.18 383.565 193.516 380.889 192.72C380.842 192.561 380.786 192.401 380.73 192.252C377.802 192.325 374.873 192.25 371.953 192.027C369.792 192.027 367.639 192.027 365.534 192.13L365.375 192.692C375.293 195.622 379.364 201.539 379.364 201.539C384.169 198.479 389.772 196.912 395.467 197.036V196.465C393.455 195.866 391.397 195.285 389.31 194.733Z" fill="black"/>
<path d="M426.644 204.161C424.419 203.492 422.233 202.701 420.094 201.792C420.094 201.652 420.038 201.511 420.001 201.371C417.675 201.223 415.36 200.942 413.067 200.528C411.355 200.378 409.643 200.247 407.977 200.154L407.809 200.631C415.444 203.899 418.214 209.357 418.214 209.357C422.174 207.064 426.767 206.106 431.313 206.623V206.127C429.826 205.453 428.244 204.797 426.644 204.161Z" fill="black"/>
<path d="M289.545 180.455C292.081 180.455 294.589 180.455 297.087 180.23L297.471 179.884C299.707 180.423 301.972 180.839 304.254 181.129C305.883 181.494 307.501 181.859 309.055 182.252L308.858 182.73C303.373 183.148 298.049 184.779 293.269 187.505C291.467 184.353 288.245 182.283 283.604 181.297L283.931 180.839C285.784 180.651 287.664 180.53 289.545 180.455Z" fill="black"/>
<path d="M456.681 211.482C454.916 210.918 453.188 210.246 451.506 209.469C451.506 209.329 451.431 209.189 451.385 209.057C449.62 209.027 447.859 208.871 446.117 208.589C444.825 208.533 443.534 208.496 442.28 208.486L442.215 208.973C445.921 210.736 449.014 213.57 451.095 217.109C452.322 215.907 453.791 214.979 455.405 214.388C457.018 213.797 458.738 213.557 460.452 213.683V213.177C459.216 212.597 457.953 212.035 456.681 211.482Z" fill="black"/>
<path d="M265.629 177.908C263.73 177.519 261.856 177.019 260.015 176.41L259.791 176.017C258.021 176.144 256.245 176.144 254.476 176.017C253.185 176.092 251.903 176.176 250.658 176.288L250.714 176.766C254.856 178.198 258.559 180.674 261.466 183.956C262.432 182.628 263.699 181.547 265.162 180.802C266.626 180.056 268.245 179.668 269.887 179.668L269.728 179.172C268.399 178.76 267.014 178.329 265.629 177.908Z" fill="black"/>
<path d="M240.749 175.296C238.85 174.906 236.976 174.406 235.135 173.798C235.069 173.667 234.994 173.536 234.92 173.405C233.151 173.546 231.376 173.565 229.605 173.461C228.304 173.526 227.022 173.611 225.787 173.723L225.843 174.201C229.985 175.633 233.688 178.109 236.594 181.391C237.561 180.063 238.828 178.983 240.292 178.237C241.755 177.492 243.374 177.104 245.016 177.103L244.866 176.607C243.528 176.157 242.143 175.717 240.749 175.296Z" fill="black"/>
<path d="M480.177 217.577C478.413 217.013 476.684 216.341 475.002 215.564C475.002 215.424 474.918 215.283 474.881 215.152C473.116 215.122 471.355 214.966 469.613 214.684C468.312 214.628 467.03 214.591 465.776 214.581L465.711 215.068C469.417 216.831 472.51 219.665 474.591 223.204C475.818 222.002 477.287 221.074 478.901 220.483C480.514 219.892 482.234 219.652 483.948 219.778V219.272C482.713 218.691 481.449 218.13 480.177 217.577Z" fill="black"/>
<path d="M489.216 221.5C489.276 220.285 488.926 219.085 488.221 218.093C487.517 217.102 486.5 216.376 485.333 216.033C444.006 203.817 401.999 194.035 359.528 186.737C314.782 179.048 269.637 173.896 224.31 171.307C223.749 171.276 223.188 171.358 222.661 171.551C222.133 171.744 221.651 172.042 221.243 172.428C220.835 172.813 220.509 173.278 220.287 173.794C220.065 174.31 219.95 174.865 219.949 175.427V175.427C266.741 177.924 313.346 183.154 359.528 191.091C403.329 198.607 446.637 208.762 489.216 221.5V221.5Z" fill="white"/>
<path d="M326.395 185.342C328.606 186.622 330.58 188.272 332.233 190.22C334.747 188.73 337.46 187.605 340.29 186.878C335.695 186.231 331.045 185.773 326.395 185.342Z" fill="white"/>
<path d="M383.753 194.77C380.254 193.834 376.754 193.263 373.227 192.701C375.586 194.088 377.664 195.904 379.355 198.056C381.166 196.891 383.111 195.948 385.147 195.248L383.753 194.77Z" fill="white"/>
<path d="M414.574 201.455C416.026 202.717 417.259 204.21 418.223 205.874C420.88 204.321 423.85 203.384 426.916 203.131C422.846 202.401 418.766 201.867 414.574 201.455Z" fill="white"/>
<path d="M289.977 180.455C291.321 181.389 292.445 182.607 293.27 184.022C294.655 183.181 296.107 182.458 297.612 181.859C295.085 181.391 292.531 180.885 289.977 180.455Z" fill="white"/>
<path d="M446.098 207.896C448.109 209.474 449.805 211.418 451.094 213.626C452.459 212.295 454.12 211.307 455.941 210.743C452.691 209.788 449.41 208.839 446.098 207.896Z" fill="white"/>
<path d="M258.387 177.58C259.506 178.461 260.54 179.445 261.475 180.52C262.229 179.46 263.183 178.557 264.282 177.861C262.335 177.777 260.361 177.693 258.387 177.58Z" fill="white"/>
<path d="M230.719 172.965C232.918 174.288 234.9 175.943 236.595 177.871C237.468 176.663 238.595 175.662 239.898 174.94C236.791 174.341 233.778 173.648 230.719 172.965Z" fill="white"/>
<path d="M470.146 214.46C471.919 215.945 473.422 217.725 474.591 219.722C476.169 218.177 478.14 217.096 480.29 216.594C476.921 215.845 473.524 215.181 470.146 214.46Z" fill="white"/>
<path d="M501.642 350.395C501.493 333.72 502.082 325.35 501.858 303.479C501.764 295.353 491.874 291.392 486.353 297.319C467.92 317.092 443.058 306.588 418.805 308.338C417.242 308.451 415.062 312.514 413.509 312.58C411.013 312.673 408.493 312.708 405.948 312.683C402.654 312.683 402.205 307.926 398.781 307.758C394.102 307.533 384.82 307.599 380.01 307.159C376.651 306.85 372.16 309.855 368.735 309.425C365.498 309.013 362.045 305.071 358.742 304.584C356.496 304.256 353.502 307.14 351.256 306.775C344.388 305.651 335.892 299.856 328.753 300.221C324.739 300.399 322.568 303.966 318.404 303.498C315.194 303.17 311.676 300.277 308.411 299.669C301.449 298.377 299.868 302.908 292.728 302.019C289.837 301.663 285.57 305.689 282.707 305.277C275.96 304.284 264.442 299.453 258.949 298.723C256.329 298.367 253.335 302.964 251.099 302.58C244.156 301.354 239.337 299.931 237.672 298.171C232.525 292.712 231.982 300.979 223.889 300.493C221.082 300.315 219.94 297.16 216.403 296.616C215.916 296.532 213.212 299.135 212.726 299.06C210.452 298.695 208.141 298.311 205.904 297.965C204.611 297.766 203.289 297.852 202.032 298.216C200.775 298.58 199.611 299.213 198.623 300.072C197.635 300.93 196.845 301.994 196.309 303.189C195.773 304.383 195.503 305.681 195.518 306.99V307.252C195.526 309.55 196.41 311.758 197.988 313.426C199.567 315.095 201.722 316.098 204.014 316.231C255.34 318.946 306.476 324.5 357.189 332.868C410.627 341.613 453.398 349.15 490.33 359.271C491.676 359.627 493.087 359.666 494.452 359.385C495.816 359.104 497.097 358.51 498.193 357.649C499.289 356.789 500.171 355.687 500.77 354.428C501.368 353.169 501.667 351.789 501.642 350.395V350.395Z" fill="black"/>
<path d="M468.237 203.861C468.368 202.925 467.236 132.921 467.367 131.994C455.914 150.073 432.699 172.394 410.458 172.702C409.344 172.702 407.173 175.034 406.041 175.024C404.273 175.024 402.476 174.931 400.661 174.828C398.312 174.697 398.612 171.907 396.207 171.691C392.894 171.401 386.26 171.13 382.836 170.755C380.44 170.465 377.221 172.103 374.817 171.691C372.412 171.279 370.035 168.883 367.687 168.471C366.077 168.199 363.944 169.828 362.334 169.529C357.441 168.592 351.368 164.847 346.297 164.847C343.433 164.847 341.244 166.813 338.278 166.42C335.985 166.121 333.477 164.286 331.148 163.808C326.188 162.806 321.079 159.333 315.999 158.565C313.931 158.256 310.908 160.512 308.868 160.166C304.059 159.351 295.843 156.093 291.932 155.485C290.061 155.194 287.937 157.835 286.318 157.526C281.368 156.589 277.897 155.56 276.746 154.455C273.059 151.037 272.704 155.962 266.94 155.391C264.956 155.185 264.133 153.275 261.597 152.826C261.251 152.77 259.332 154.23 258.986 154.165C254.579 153.369 249.957 152.479 246.719 152.189C246.644 153.125 246.86 162.61 246.794 163.555C279.544 166.448 318.768 171.186 361.951 179.097C404.011 186.784 439.577 195.632 468.237 203.861Z" fill="black"/>
<path d="M466.806 227.155H466.17C458.039 227.155 451.451 235.891 451.451 246.658V336.033C453.566 336.033 455.288 334.75 455.288 333.224V247.36C455.288 239.008 460.396 232.249 466.703 232.249H466.909C473.216 232.249 478.324 239.008 478.324 247.36V328.037C478.324 329.348 479.756 330.415 481.525 330.415V246.658C481.525 235.891 474.937 227.155 466.806 227.155Z" fill="white"/>
<path d="M525.501 474.5L174.398 340.555V319.564C174.398 312.72 183.83 307.393 194.638 308.123C249.659 311.756 304.453 318.259 358.797 327.607C412.058 336.755 464.771 348.845 516.697 363.821C525.015 366.228 530.246 371.536 529.956 377.303C529.507 386.473 525.956 465.325 525.501 474.5Z" fill="#C4C3C6"/>
<path d="M186.506 518.314H206.764V335.425C206.764 325.547 202.226 317.542 196.64 317.542C191.053 317.542 186.506 325.547 186.506 335.425V518.314Z" fill="black"/>
<path d="M198.428 329.573H198.68C201.937 329.573 204.575 335.902 204.575 343.701V391.853H203.041V344.216C203.041 338.168 200.992 333.262 198.465 333.262H198.381C195.855 333.262 193.805 338.168 193.805 344.216V391.853H192.524V343.701C192.505 335.874 195.143 329.573 198.428 329.573Z" fill="#C4C3C6"/>
<path d="M189.604 426.644H203.266V403.06H189.604V426.644Z" fill="#C4C3C6"/>
<path d="M189.202 410.447H202.863V406.814H189.202V410.447Z" fill="black"/>
<path d="M189.202 401.777H202.863V399.69H189.202V401.777Z" fill="white"/>
<path d="M189.211 396.815V429.537H189.969V396.815H189.211Z" fill="black"/>
<path d="M202.863 396.815V429.537H203.668V396.815H202.863Z" fill="black"/>
<path d="M203.733 486.322H189.201V417.197C189.201 416.127 189.626 415.101 190.383 414.344C191.139 413.587 192.165 413.162 193.234 413.162H199.709C200.779 413.162 201.805 413.587 202.561 414.344C203.317 415.101 203.742 416.127 203.742 417.197V486.322H203.733Z" fill="black"/>
<path d="M198.428 415.634H198.68C201.937 415.634 204.575 421.963 204.575 429.771V477.923H203.041V430.277C203.041 424.229 200.992 419.323 198.465 419.323H198.381C195.855 419.323 193.805 424.229 193.805 430.277V477.923H192.524V429.771C192.505 422.01 195.143 415.634 198.428 415.634Z" fill="#C4C3C6"/>
<path d="M196.435 320.369H196.837C201.937 320.369 206.082 330.284 206.082 342.503V480.133H203.668V343.308C203.668 333.833 200.458 326.146 196.5 326.146H196.369C192.411 326.146 189.202 333.833 189.202 343.308V480.142H187.199V342.512C187.199 330.256 191.335 320.369 196.435 320.369Z" fill="white"/>
<path d="M527.157 558.919H512.336V399.689C512.336 391.094 515.658 384.129 519.747 384.129C523.836 384.129 527.157 391.094 527.157 399.689V558.919Z" fill="black"/>
<path d="M518.438 394.596H518.251C515.865 394.596 513.928 400.101 513.928 406.899V460.824H515.06V407.348C515.06 402.077 516.557 397.808 518.41 397.808H518.466C520.337 397.808 521.816 402.077 521.816 407.348V460.824H522.751V406.899C522.77 400.101 520.843 394.596 518.438 394.596Z" fill="#C4C3C6"/>
<path d="M524.903 468.879H514.9V489.411H524.903V468.879Z" fill="#C4C3C6"/>
<path d="M525.192 472.137H515.189V475.302H525.192V472.137Z" fill="black"/>
<path d="M525.192 465.948H515.189V467.765H525.192V465.948Z" fill="white"/>
<path d="M524.631 463.439V491.93H525.183V463.439H524.631Z" fill="black"/>
<path d="M514.609 463.439V491.93H515.199V463.439H514.609Z" fill="black"/>
<path d="M518.588 477.68H521.17C522.24 477.68 523.265 478.105 524.022 478.862C524.778 479.619 525.203 480.645 525.203 481.715V541.374H514.555V481.715C514.555 480.645 514.98 479.619 515.736 478.862C516.492 478.105 517.518 477.68 518.588 477.68V477.68Z" fill="black"/>
<path d="M518.438 479.824H518.251C515.865 479.824 513.928 485.329 513.928 492.126V534.052H515.06V492.576C515.06 487.305 516.557 483.035 518.41 483.035H518.466C520.337 483.035 521.816 487.305 521.816 492.576V534.052H522.751V492.126C522.77 485.329 520.843 479.824 518.438 479.824Z" fill="#C4C3C6"/>
<path d="M519.897 386.582H519.607C515.864 386.582 512.842 395.214 512.842 405.859V525.701H514.601V406.552C514.601 398.304 516.95 391.572 519.85 391.572H519.944C522.844 391.572 525.193 398.266 525.193 406.552V525.691H526.662V405.85C526.662 395.214 523.63 386.582 519.897 386.582Z" fill="white"/>
<path d="M172.676 491.508H187.497V332.279C187.497 323.684 184.185 316.718 180.087 316.718C175.988 316.718 172.676 323.684 172.676 332.279V491.508Z" fill="black"/>
<path d="M181.387 327.186H181.575C183.951 327.186 185.888 332.691 185.888 339.488V393.414H184.765V339.937C184.765 334.666 183.259 330.397 181.415 330.397H181.35C179.479 330.397 178 334.666 178 339.937V393.414H177.064V339.488C177.064 332.691 179.001 327.186 181.387 327.186Z" fill="#C4C3C6"/>
<path d="M174.941 422H184.943V401.468H174.941V422Z" fill="#C4C3C6"/>
<path d="M174.642 407.9H184.645V404.736H174.642V407.9Z" fill="black"/>
<path d="M174.642 400.354H184.645V398.538H174.642V400.354Z" fill="white"/>
<path d="M174.643 396.019V424.51H175.195V396.019H174.643Z" fill="black"/>
<path d="M184.654 396.029V424.519H185.244V396.029H184.654Z" fill="black"/>
<path d="M185.281 473.954H174.605V414.295C174.605 413.225 175.03 412.198 175.786 411.442C176.542 410.685 177.568 410.26 178.638 410.26H181.22C182.29 410.26 183.316 410.685 184.072 411.442C184.828 412.198 185.253 413.225 185.253 414.295V473.954H185.281Z" fill="black"/>
<path d="M181.387 412.413H181.575C183.951 412.413 185.888 417.918 185.888 424.716V466.641H184.765V425.165C184.765 419.894 183.259 415.624 181.415 415.624H181.35C179.479 415.624 178 419.894 178 425.165V466.641H177.064V424.716C177.064 417.918 179.001 412.413 181.387 412.413Z" fill="#C4C3C6"/>
<path d="M180.948 319.171H181.238C184.981 319.171 188.003 327.803 188.003 338.448V465.29H186.235V339.141C186.235 330.893 183.886 324.161 180.995 324.161H180.892C178 324.161 175.652 330.855 175.652 339.141V465.28H174.164V338.439C174.164 327.803 177.205 319.171 180.948 319.171Z" fill="white"/>
<path d="M513.872 546.748H493.623V391.947C493.623 382.069 498.161 374.064 503.747 374.064C509.333 374.064 513.872 382.069 513.872 391.947V546.748Z" fill="black"/>
<path d="M501.979 386.095H501.727C498.47 386.095 495.822 392.415 495.822 400.223V448.375H497.366V400.738C497.366 394.68 499.415 389.774 501.942 389.774H502.026C504.552 389.774 506.602 394.68 506.602 400.738V451.375H507.883V400.223C507.883 392.415 505.235 386.095 501.979 386.095Z" fill="#C4C3C6"/>
<path d="M510.782 459.591H497.121V483.176H510.782V459.591Z" fill="#C4C3C6"/>
<path d="M511.185 463.327H497.523V466.96H511.185V463.327Z" fill="black"/>
<path d="M511.185 456.221H497.523V458.309H511.185V456.221Z" fill="white"/>
<path d="M510.428 453.337V486.059H511.186V453.337H510.428Z" fill="black"/>
<path d="M496.719 453.337V486.059H497.523V453.337H496.719Z" fill="black"/>
<path d="M500.659 469.694H507.134C508.204 469.694 509.23 470.119 509.986 470.876C510.742 471.632 511.167 472.659 511.167 473.729V542.853H496.654V473.729C496.654 472.659 497.079 471.632 497.835 470.876C498.592 470.119 499.618 469.694 500.687 469.694H500.659Z" fill="black"/>
<path d="M501.979 472.156H501.727C498.47 472.156 495.822 478.485 495.822 486.294V534.436H497.366V486.799C497.366 480.751 499.415 475.845 501.942 475.845H502.026C504.552 475.845 506.602 480.751 506.602 486.799V534.436H507.883V486.294C507.883 478.485 505.235 472.156 501.979 472.156Z" fill="#C4C3C6"/>
<path d="M503.952 376.892H503.549C498.44 376.892 494.305 386.797 494.305 399.025V536.655H496.719V399.83C496.719 390.346 499.928 382.668 503.886 382.668H504.017C507.975 382.668 511.185 390.346 511.185 399.83V536.664H513.187V399.034C513.187 386.797 509.079 376.892 503.952 376.892Z" fill="white"/>
<path d="M498 538.496H460.424V381.695C460.532 376.908 462.508 372.354 465.93 369.007C469.351 365.66 473.946 363.786 478.731 363.786C483.516 363.786 488.111 365.66 491.532 369.007C494.953 372.354 497.93 376.908 498.038 381.695L498 538.496Z" fill="black"/>
<path d="M475.498 375.843H475.03C469.135 375.843 464.363 382.172 464.363 389.971V438.123H467.17V390.486C467.17 384.438 470.913 379.532 475.442 379.532H475.601C480.167 379.532 483.873 384.438 483.873 390.486V441.123H486.184V389.971C486.156 382.172 481.384 375.843 475.498 375.843Z" fill="#C4C3C6"/>
<path d="M491.406 449.339H466.703V472.924H491.406V449.339Z" fill="#C4C3C6"/>
<path d="M492.134 453.084H467.432V456.717H492.134V453.084Z" fill="black"/>
<path d="M492.134 445.969H467.432V448.057H492.134V445.969Z" fill="white"/>
<path d="M490.76 443.085V475.807H492.135V443.085H490.76Z" fill="black"/>
<path d="M465.982 443.085V475.807H467.433V443.085H465.982Z" fill="black"/>
<path d="M473.139 459.46H484.845C486.778 459.46 488.632 460.229 489.999 461.596C491.366 462.964 492.134 464.819 492.134 466.754V532.62H465.859V466.735C465.864 464.805 466.633 462.957 467.998 461.593C469.362 460.23 471.211 459.463 473.139 459.46V459.46Z" fill="black"/>
<path d="M475.498 461.904H475.03C469.135 461.904 464.363 468.233 464.363 476.041V524.193H467.17V476.547C467.17 470.499 470.913 465.593 475.442 465.593H475.601C480.167 465.593 483.873 470.499 483.873 476.547V524.193H486.184V476.041C486.156 468.233 481.384 461.904 475.498 461.904Z" fill="#C4C3C6"/>
<path d="M479.053 366.639H478.323C469.097 366.639 461.621 376.554 461.621 388.773V526.403H465.981V389.578C465.981 380.103 471.773 372.416 478.932 372.416H479.137C486.296 372.416 492.097 380.103 492.097 389.578V526.412H495.727V388.782C495.765 376.554 488.279 366.639 479.053 366.639Z" fill="white"/>
<path d="M201.703 520.186H235.445V337.297C235.445 327.42 227.893 319.415 218.602 319.415C209.31 319.415 201.759 327.42 201.759 337.297L201.703 520.186Z" fill="black"/>
<path d="M221.52 331.445H221.95C227.377 331.445 231.775 337.774 231.775 345.573V393.725H229.211V346.088C229.211 340.04 225.796 335.134 221.595 335.134H221.445C217.234 335.134 213.828 340.04 213.828 346.088V393.725H211.686V345.573C211.686 337.746 216.093 331.445 221.52 331.445Z" fill="#C4C3C6"/>
<path d="M206.848 428.517H229.613V404.932H206.848V428.517Z" fill="#C4C3C6"/>
<path d="M206.184 412.32H228.949V408.687H206.184V412.32Z" fill="black"/>
<path d="M206.184 403.65H228.949V401.562H206.184V403.65Z" fill="white"/>
<path d="M206.184 398.688V431.41H207.447V398.688H206.184Z" fill="black"/>
<path d="M228.959 398.688V431.41H230.297V398.688H228.959Z" fill="black"/>
<path d="M230.4 488.194H206.184V421.72C206.184 419.937 206.892 418.227 208.152 416.966C209.412 415.706 211.121 414.997 212.903 414.997H223.682C225.464 414.997 227.173 415.706 228.433 416.966C229.693 418.227 230.4 419.937 230.4 421.72V488.194Z" fill="black"/>
<path d="M221.52 417.506H221.95C227.377 417.506 231.775 423.835 231.775 431.644V479.796H229.211V432.149C229.211 426.101 225.796 421.195 221.595 421.195H221.445C217.234 421.195 213.828 426.101 213.828 432.149V479.796H211.686V431.644C211.686 423.882 216.093 417.506 221.52 417.506Z" fill="#C4C3C6"/>
<path d="M218.236 322.242H218.909C227.415 322.242 234.311 332.157 234.311 344.375V482.005H230.287V345.18C230.287 335.705 224.945 328.019 218.348 328.019H218.123C211.527 328.019 206.184 335.705 206.184 345.18V482.015H202.834V344.384C202.834 332.129 209.73 322.242 218.236 322.242Z" fill="white"/>
<path d="M466.627 556.073H418.195V373.184C418.195 363.316 429.04 355.311 442.411 355.311C455.782 355.311 466.627 363.316 466.627 373.184V556.073Z" fill="black"/>
<path d="M440.148 367.332H439.53C437.676 367.334 435.84 367.7 434.128 368.411C432.415 369.122 430.859 370.164 429.549 371.477C428.239 372.79 427.2 374.348 426.491 376.062C425.783 377.777 425.419 379.614 425.42 381.47V429.622H429.107V381.975C429.105 380.537 429.387 379.113 429.937 377.784C430.486 376.455 431.291 375.247 432.307 374.23C433.323 373.213 434.529 372.406 435.857 371.855C437.185 371.305 438.608 371.021 440.045 371.021H440.251C441.687 371.022 443.109 371.307 444.436 371.858C445.763 372.409 446.968 373.216 447.983 374.233C448.997 375.251 449.802 376.458 450.351 377.786C450.899 379.115 451.181 380.538 451.18 381.975V429.622H454.249V381.47C454.251 377.724 452.767 374.131 450.123 371.48C447.479 368.829 443.891 367.337 440.148 367.332Z" fill="#C4C3C6"/>
<path d="M459.235 440.829H426.561V464.413H459.235V440.829Z" fill="#C4C3C6"/>
<path d="M460.19 444.574H427.516V448.206H460.19V444.574Z" fill="black"/>
<path d="M460.19 437.458H427.516V439.546H460.19V437.458Z" fill="white"/>
<path d="M458.375 434.584V467.306H460.19V434.584H458.375Z" fill="black"/>
<path d="M425.598 434.575V467.297H427.516V434.575H425.598Z" fill="black"/>
<path d="M435.075 450.94H450.561C453.117 450.94 455.569 451.956 457.376 453.765C459.183 455.573 460.199 458.026 460.199 460.584V524.062H425.438V460.574C425.438 458.017 426.453 455.564 428.26 453.755C430.068 451.947 432.519 450.931 435.075 450.931V450.94Z" fill="black"/>
<path d="M440.148 453.403H439.53C435.787 453.405 432.198 454.895 429.552 457.544C426.906 460.193 425.42 463.785 425.42 467.531V515.683H429.107V468.046C429.105 466.608 429.387 465.183 429.937 463.854C430.486 462.525 431.291 461.318 432.307 460.3C433.323 459.283 434.529 458.476 435.857 457.925C437.185 457.375 438.608 457.091 440.045 457.091H440.251C441.687 457.093 443.109 457.377 444.436 457.928C445.763 458.479 446.968 459.287 447.983 460.304C448.997 461.321 449.802 462.528 450.351 463.857C450.899 465.185 451.181 466.608 451.18 468.046V515.683H454.249V467.531C454.25 465.677 453.886 463.84 453.178 462.127C452.47 460.414 451.432 458.856 450.123 457.544C448.813 456.233 447.258 455.192 445.547 454.481C443.835 453.77 442.001 453.404 440.148 453.403V453.403Z" fill="#C4C3C6"/>
<path d="M442.889 358.138H441.953C439.049 358.138 436.173 358.711 433.491 359.823C430.808 360.936 428.371 362.566 426.318 364.622C424.266 366.677 422.638 369.118 421.529 371.803C420.419 374.488 419.849 377.366 419.852 380.271V517.902H425.615V381.077C425.613 376.527 427.416 372.162 430.629 368.942C433.842 365.722 438.201 363.911 442.748 363.906H443.066C445.319 363.907 447.549 364.352 449.629 365.215C451.71 366.079 453.6 367.344 455.191 368.939C456.783 370.533 458.046 372.426 458.906 374.508C459.767 376.591 460.21 378.823 460.208 381.077V517.911H465.009V380.281C465.012 377.373 464.443 374.492 463.332 371.805C462.222 369.117 460.593 366.675 458.539 364.619C456.484 362.562 454.044 360.931 451.359 359.819C448.673 358.707 445.795 358.136 442.889 358.138V358.138Z" fill="white"/>
<path d="M227.518 524.184H275.94V341.295C275.94 331.417 265.105 323.412 251.734 323.412C238.362 323.412 227.518 331.417 227.518 341.295V524.184Z" fill="black"/>
<path d="M251.999 335.443H252.617C254.47 335.444 256.304 335.811 258.016 336.521C259.727 337.232 261.282 338.273 262.591 339.585C263.901 340.897 264.939 342.454 265.647 344.168C266.355 345.881 266.719 347.717 266.718 349.571V397.723H263.04V350.086C263.042 348.648 262.76 347.224 262.21 345.895C261.661 344.566 260.856 343.358 259.84 342.341C258.824 341.324 257.618 340.517 256.29 339.966C254.962 339.415 253.539 339.132 252.102 339.132H251.896C248.994 339.134 246.212 340.29 244.161 342.344C242.11 344.398 240.958 347.183 240.958 350.086V397.723H237.889V349.571C237.889 345.826 239.375 342.234 242.021 339.584C244.667 336.935 248.256 335.446 251.999 335.443V335.443Z" fill="#C4C3C6"/>
<path d="M234.909 432.515H267.584V408.93H234.909V432.515Z" fill="#C4C3C6"/>
<path d="M233.946 416.317H266.621V412.685H233.946V416.317Z" fill="black"/>
<path d="M233.946 407.657H266.621V405.569H233.946V407.657Z" fill="white"/>
<path d="M233.955 402.685V435.408H235.77V402.685H233.955Z" fill="black"/>
<path d="M266.631 402.685V435.408H268.549V402.685H266.631Z" fill="black"/>
<path d="M268.679 492.201H233.927V428.695C233.927 426.137 234.942 423.684 236.75 421.876C238.557 420.067 241.009 419.051 243.565 419.051H259.069C261.625 419.051 264.077 420.067 265.884 421.876C267.692 423.684 268.707 426.137 268.707 428.695V492.201H268.679Z" fill="black"/>
<path d="M253.999 421.514H254.617C256.47 421.515 258.304 421.881 260.016 422.592C261.727 423.303 263.282 424.344 264.591 425.656C265.901 426.968 266.939 428.525 267.647 430.238C268.355 431.952 268.719 433.788 268.718 435.642V483.803H265.04V436.147C265.042 434.709 264.76 433.285 264.21 431.956C263.661 430.627 262.856 429.419 261.84 428.402C260.824 427.385 259.618 426.578 258.29 426.027C256.962 425.477 255.539 425.193 254.102 425.193H253.896C250.994 425.196 248.212 426.351 246.161 428.405C244.11 430.459 242.958 433.244 242.958 436.147V483.803H239.889V435.642C239.887 433.787 240.252 431.95 240.96 430.236C241.669 428.522 242.708 426.964 244.018 425.652C245.329 424.34 246.885 423.299 248.597 422.589C250.31 421.879 252.145 421.514 253.999 421.514V421.514Z" fill="#C4C3C6"/>
<path d="M251.247 326.24H252.183C255.087 326.241 257.963 326.815 260.646 327.928C263.328 329.042 265.765 330.673 267.818 332.73C269.87 334.786 271.498 337.227 272.607 339.912C273.717 342.598 274.286 345.476 274.284 348.382V486.013H268.52V349.178C268.52 344.628 266.714 340.264 263.5 337.046C260.285 333.828 255.925 332.019 251.378 332.016H251.06C246.523 332.034 242.179 333.85 238.978 337.067C235.777 340.284 233.981 344.639 233.983 349.178V486.022H229.174V348.392C229.169 342.526 231.491 336.899 235.629 332.746C239.768 328.592 245.385 326.252 251.247 326.24V326.24Z" fill="white"/>
<path d="M426.13 552.89H372.533V363.222C372.533 352.979 384.529 344.675 399.332 344.675C414.134 344.675 426.13 352.979 426.13 363.222V552.89Z" fill="black"/>
<path d="M398.668 357.155H397.984C389.367 357.155 382.377 363.709 382.377 371.807V421.738H386.447V372.388C386.447 366.106 391.865 361.022 398.555 361.022H398.78C405.461 361.022 410.888 366.106 410.888 372.388V421.785H414.275V371.807C414.228 363.709 407.239 357.155 398.668 357.155Z" fill="#C4C3C6"/>
<path d="M417.933 433.367H381.777V457.822H417.933V433.367Z" fill="#C4C3C6"/>
<path d="M418.999 437.252H382.844V441.025H418.999V437.252Z" fill="black"/>
<path d="M418.999 429.875H382.844V432.037H418.999V429.875Z" fill="white"/>
<path d="M416.998 426.888V460.827H419.01V426.888H416.998Z" fill="black"/>
<path d="M380.711 426.878V460.818H382.835V426.878H380.711Z" fill="black"/>
<path d="M390.171 443.853H409.363C411.919 443.853 414.37 444.869 416.177 446.677C417.985 448.486 419 450.939 419 453.496V519.718H380.543V453.496C380.543 450.94 381.557 448.489 383.362 446.681C385.168 444.872 387.617 443.855 390.171 443.853Z" fill="black"/>
<path d="M398.668 446.409H397.984C389.367 446.409 382.377 452.963 382.377 461.061V511.001H386.447V461.595C386.447 455.322 391.865 450.229 398.555 450.229H398.78C405.461 450.229 410.888 455.322 410.888 461.595V511.001H414.275V461.061C414.228 452.972 407.239 446.409 398.668 446.409Z" fill="#C4C3C6"/>
<path d="M399.856 347.605H398.799C385.288 347.605 374.34 357.904 374.34 370.562V513.305H380.721V371.396C380.721 361.565 389.208 353.607 399.688 353.607H400.034C410.514 353.607 419.001 361.574 419.001 371.396V513.305H424.325V370.562C424.325 357.885 413.368 347.605 399.856 347.605Z" fill="white"/>
<path d="M267.912 536.945H321.509V349.268C321.509 339.035 309.504 328.73 294.711 328.73C279.917 328.73 267.912 340.035 267.912 350.268V536.945Z" fill="black"/>
<path d="M295.413 341.201H296.096C304.724 341.201 311.713 347.755 311.713 355.863V405.794H307.634V356.387C307.634 350.114 302.216 345.03 295.535 345.03H295.301C288.62 345.03 283.203 350.114 283.203 356.387V405.794H279.834V355.863C279.834 347.764 286.796 341.201 295.413 341.201Z" fill="#C4C3C6"/>
<path d="M276.1 441.877H312.256V417.422H276.1V441.877Z" fill="#C4C3C6"/>
<path d="M275.034 425.071H311.189V421.298H275.034V425.071Z" fill="black"/>
<path d="M275.034 416.093H311.189V413.93H275.034V416.093Z" fill="white"/>
<path d="M275.033 410.934V444.873H277.045V410.934H275.033Z" fill="black"/>
<path d="M311.189 410.943V444.883H313.313V410.943H311.189Z" fill="black"/>
<path d="M313.49 503.764H275.005V437.571C275.005 435.013 276.02 432.56 277.828 430.752C279.635 428.943 282.086 427.927 284.643 427.927H303.852C306.409 427.927 308.86 428.943 310.667 430.752C312.475 432.56 313.49 435.013 313.49 437.571V503.764Z" fill="black"/>
<path d="M295.413 430.436H296.096C304.724 430.436 311.713 436.99 311.713 445.089V495.038H307.634V445.651C307.634 439.368 302.216 434.284 295.535 434.284H295.301C288.62 434.284 283.203 439.368 283.203 445.651V495.038H279.834V445.117C279.834 436.99 286.796 430.436 295.413 430.436Z" fill="#C4C3C6"/>
<path d="M294.178 331.661H295.235C308.747 331.661 319.704 341.959 319.704 354.618V497.36H313.322V355.451C313.322 345.62 304.826 337.662 294.356 337.662H294C283.52 337.662 275.034 345.63 275.034 355.451V497.36H269.719V354.599C269.719 341.941 280.666 331.661 294.178 331.661Z" fill="white"/>
<path d="M341.702 332.348H347.751C356.101 332.345 366.11 334.661 372.018 340.565C377.925 346.469 383.248 356.479 383.256 364.834L382.256 512.05C382.256 515.109 381.041 518.043 378.879 520.206C376.717 522.37 373.785 523.585 370.728 523.585H321.725C318.668 523.585 315.736 522.37 313.574 520.206C311.412 518.043 310.197 515.109 310.197 512.05V365.834C310.197 361.696 311.012 355.598 312.595 351.774C314.178 347.951 316.497 344.477 319.422 341.55C322.347 338.624 325.819 336.302 329.64 334.719C333.461 333.135 337.557 332.32 341.693 332.32L341.702 332.348Z" fill="black"/>
<path d="M346.941 335.473H345.509C327.348 335.473 312.629 349.418 312.629 362.919V512.949H321.209V363.808C321.209 353.341 332.625 341.849 346.707 341.849H347.203C361.239 341.849 372.692 353.341 372.692 363.808V512.949H379.84V362.919C379.822 349.418 365.103 335.473 346.941 335.473Z" fill="white"/>
<path d="M371.252 423.115H322.643V449.162H371.252V423.115Z" fill="#C4C3C6"/>
<path d="M372.674 427.253H324.064V431.269H372.674V427.253Z" fill="black"/>
<path d="M372.674 419.398H324.064V421.701H372.674V419.398Z" fill="white"/>
<path d="M369.969 416.196V452.345H372.673V416.196H369.969Z" fill="black"/>
<path d="M321.211 416.205V452.354H324.074V416.205H321.211Z" fill="black"/>
<path d="M335.301 434.275H358.338C362.14 434.275 365.786 435.786 368.475 438.476C371.163 441.166 372.673 444.814 372.673 448.618V515.093H321.004V448.618C321.004 444.814 322.514 441.166 325.203 438.476C327.891 435.786 331.537 434.275 335.339 434.275H335.301Z" fill="black"/>
<path d="M347.4 436.99H346.464C334.871 436.99 325.477 443.984 325.477 452.597V505.786H330.95V453.169C330.95 446.484 338.24 441.063 347.232 441.063H347.531C356.523 441.063 363.803 446.484 363.803 453.169V505.786H368.369V452.607C368.388 443.993 358.993 436.99 347.4 436.99Z" fill="#C4C3C6"/>
<path d="M528.992 372V371.943C529.068 370.37 528.62 368.817 527.718 367.533C526.817 366.249 525.515 365.309 524.021 364.862C471.062 349.072 417.234 336.428 362.813 326.995C305.489 317.034 247.653 310.362 189.583 307.01C188.865 306.966 188.146 307.071 187.47 307.318C186.795 307.565 186.176 307.95 185.653 308.449C185.13 308.947 184.713 309.549 184.429 310.216C184.145 310.884 183.999 311.603 184 312.33V312.33C243.966 315.564 303.695 322.339 362.879 332.62C418.986 342.344 474.458 355.495 528.992 372V372Z" fill="white"/>
<path d="M460.722 132.921C460.816 130.477 459.59 128.455 457.775 128.033C426.306 120.79 394.326 115.991 362.118 113.681C327.891 111.231 293.53 111.297 259.312 113.877C257.516 114.018 256 116.068 256 118.371C291.31 115.539 326.784 115.386 362.118 117.912C395.333 120.278 428.306 125.296 460.722 132.921V132.921Z" fill="white"/>
<path d="M331.586 162.956C331.39 156.664 326.908 154.848 321.883 154.595C316.269 154.324 311.122 152.667 305.798 151.431C301.12 146.44 295.983 144.128 289.227 147.517C286.869 148.697 284.081 148.257 281.62 146.937C281.453 146.873 281.29 146.798 281.133 146.712L281.62 146.937C279.15 140.617 274.77 137.303 267.846 136.151C262.363 135.215 256.842 132.827 254.821 126.667C253.97 124.073 252.089 122.791 249.984 121.742C241.862 117.716 233.366 115.038 224.168 115.188C211.873 107.623 201.458 109.383 190.567 120.89C184.952 124.354 181.266 129.485 178.215 135.262C174.276 142.752 165.649 143.903 162.533 137.218C159.604 130.936 156.329 132.303 151.716 134.615C148.086 136.432 146.102 141.094 141.601 140.954C134.499 140.739 129.709 144.409 124.618 148.781C119.828 152.844 113.596 157.891 107.458 155.672C99.5229 152.788 92.056 153.884 84.3177 154.108C82.8767 154.108 81.2486 154.202 80.5749 155.672C77.3561 162.46 70.7688 161.439 65.0891 162.413C63.2644 162.731 60.869 161.477 59.6058 163.143C55.4981 168.443 48.6113 170.933 45.5703 177.262H317.345C319.039 175.39 321.284 174.669 323.642 174.098C329.49 172.693 331.764 168.677 331.586 162.956Z" fill="black" stroke="black" stroke-width="16.6227" stroke-miterlimit="10"/>
<path d="M43.709 176.822C46.7219 170.493 53.6087 168.002 57.7445 162.703C59.0171 161.074 61.4031 162.291 63.2277 161.973C68.9074 161.037 75.4948 161.973 78.7136 155.232C79.4154 153.762 81.0528 153.706 82.4564 153.659C90.1853 153.444 97.6522 152.348 105.587 155.223C111.725 157.451 117.985 152.414 122.748 148.304C127.838 143.931 132.638 140.261 139.74 140.476C144.241 140.617 146.215 135.954 149.846 134.138C154.468 131.825 157.743 130.458 160.662 136.741C163.778 143.426 172.405 142.237 176.345 134.784C179.395 129.007 183.035 123.877 188.696 120.412C191.943 120.665 194.937 121.433 198.362 119.691C202.694 117.491 206.446 119.579 207.887 124.26C211.63 136.488 219.593 144.24 231.822 147.761C234.323 148.611 236.648 149.912 238.681 151.599C240.896 153.256 243.428 154.439 246.12 155.073C248.811 155.708 251.605 155.781 254.326 155.288C261.812 154.108 268.886 153.715 275.623 158.509C279.122 160.999 282.687 160.381 284.783 155.503C287.244 149.708 289.209 149.427 294.514 153.069C295.104 153.481 295.647 154.005 296.227 154.371C299.577 156.73 302.917 159.305 305.359 153.322C305.584 152.76 306.613 152.76 307.362 152.816C309.411 154.005 311.301 155.213 313.912 155.316C319.582 155.541 322.988 159.688 326.076 163.743C328.883 167.488 325.683 171.523 320.798 172.862C309.13 176.082 297.041 174.669 285.317 176.841H236.398C227.687 173.845 218.62 174.968 209.702 174.678C207.871 174.689 206.042 174.567 204.229 174.313C203.263 174.2 202.361 173.772 201.662 173.095C200.964 172.418 200.508 171.53 200.364 170.568C200.167 169.62 200.273 168.634 200.668 167.75C201.063 166.866 201.726 166.129 202.563 165.643C204.023 164.8 205.67 164.407 207.167 163.658C209.833 162.329 210.105 160.849 207.635 158.902C199.728 152.564 180.995 153.565 173.949 160.775C170.646 164.154 172.396 166.729 175.035 169.304C177.187 171.392 180.443 173.18 177.402 176.906H157.303C149.939 171.448 141.247 171.822 132.975 172.328C128.521 172.609 124.142 174.041 119.445 173.545C117.926 173.448 116.404 173.7 114.998 174.283C113.592 174.865 112.338 175.763 111.332 176.906L43.709 176.822Z" fill="#C4C3C6"/>
<path d="M77.0293 168.087C79.1159 162.029 81.399 156.384 89.5209 161.261C89.9553 161.484 90.4364 161.6 90.9245 161.6C91.4125 161.6 91.8936 161.484 92.328 161.261C99.7294 155.644 107.645 160.7 115.271 160.119C120.306 159.745 121.821 164.042 123.094 168.077L77.0293 168.087Z" fill="white"/>
<path d="M285.289 176.822C295.891 172.88 307.446 174.678 318.188 171.392C320.144 170.792 322.727 171.616 323.728 169.154C324.907 166.252 322.128 165.156 320.79 163.312C317.215 158.424 311.882 156.421 306.754 154.033C304.181 154.52 303.161 153.593 303.947 150.99C309.271 152.226 314.464 153.874 320.041 154.155C325.075 154.408 329.548 156.224 329.735 162.516C329.913 168.236 327.639 172.253 321.8 173.657C319.433 174.228 317.187 174.949 315.494 176.822H285.289Z" fill="#C4C3C6"/>
<path d="M303.937 151.927L306.744 154.97C307.025 158.312 307.409 161.645 307.558 164.988C307.635 165.953 307.36 166.913 306.784 167.691C306.207 168.469 305.369 169.012 304.424 169.22C302.159 169.875 300.98 168.78 299.979 166.767C296.901 160.625 296.826 160.662 290.126 156.468C288.255 166.102 282.5 168.78 273.564 162.956C267.772 159.211 262.214 158.808 255.861 159.754C248.104 160.896 240.581 160.54 234.508 154.389C232.421 152.292 229.352 152.002 226.648 151.075C216.271 147.489 209.618 140.008 205.314 130.215C204.285 127.902 204.547 124.532 201.188 124.176C197.978 123.83 196.93 126.779 195.573 129.017C194.942 130.332 194.385 131.682 193.908 133.061L188.668 121.302C199.56 109.795 209.974 108.035 222.269 115.6C224.487 118.081 226.948 119.167 230.494 118.409C237.886 116.855 247.729 122.369 251.229 129.644C252.455 132.2 256.104 133.511 255.112 137.19C256.048 136.535 257.367 135.449 258.069 136.254C262.42 140.935 268.231 141.01 273.873 141.75C277.148 142.171 276.914 146.431 279.73 147.367C282.182 148.687 284.97 149.127 287.328 147.948C294.131 144.624 299.287 146.937 303.937 151.927Z" fill="white"/>
<path d="M279.767 146.497C275.902 144.783 272.216 142.386 267.603 144.549C266.106 145.251 263.785 145.036 262.924 143.613C258.779 136.919 254.026 139.11 249.02 142.227C248.009 142.864 246.559 143.351 245.754 142.227C244.594 140.617 246.1 139.727 247.214 138.857C252.641 134.569 253.165 129.494 247.326 124.944C242.376 121.096 237.333 115.872 229.407 119.898C225.665 121.826 222.68 119.158 222.277 114.664C231.475 114.551 239.971 117.229 248.093 121.218C250.199 122.266 252.079 123.549 252.931 126.142C254.961 132.303 260.473 134.709 265.956 135.627C272.908 136.863 277.297 140.196 279.767 146.497Z" fill="#C4C3C6"/>
<path d="M521 536C450.294 570 206.999 535.5 170.5 473C159.41 454.012 163 440 163 440C163 440 177.554 476.228 384 505.5C450.999 515 531.5 515 531.5 515C531.5 515 538.076 527.789 521 536Z" fill="black"/>
<path d="M343.854 425.779H344.911C354.671 425.779 364.032 429.659 370.934 436.564C377.835 443.47 381.712 452.836 381.712 462.602V554.356H307.053V462.602C307.053 452.836 310.93 443.47 317.832 436.564C324.733 429.659 334.094 425.779 343.854 425.779V425.779Z" fill="black"/>
<path d="M343.89 431.181H345.331C363.213 431.181 377.707 444.785 377.707 461.563V518.905H369.285V462.63C369.285 449.616 358.057 439.074 344.19 439.074H343.722C329.864 439.074 318.627 449.616 318.627 462.63V518.868H311.59V461.525C311.525 444.748 326.009 431.181 343.89 431.181Z" fill="#C4C3C6"/>
<path d="M371.279 536.498H316.756V464.887C316.756 457.652 319.627 450.714 324.739 445.598C329.85 440.482 336.783 437.606 344.013 437.604C351.244 437.604 358.18 440.478 363.293 445.595C368.407 450.711 371.279 457.651 371.279 464.887V536.498Z" fill="black"/>
<path d="M343.657 441.555H344.677C357.777 441.555 368.323 451.489 368.323 463.744V520.45H362.175V464.549C362.175 455.046 353.969 447.341 343.845 447.341H343.461C333.346 447.341 325.14 455.046 325.14 464.549V520.45H320.068V463.744C320.068 451.489 330.604 441.555 343.657 441.555Z" fill="white"/>
<path d="M410.936 514.756C400.954 517.297 375.124 519.106 344.854 519.106C314.584 519.106 288.72 517.297 278.772 514.756C275.921 515.487 274.355 516.276 274.355 517.076C274.355 520.765 305.936 523.758 344.889 523.758C383.842 523.758 415.411 520.765 415.411 517.076C415.399 516.276 413.834 515.487 410.936 514.756Z" fill="#C4C3C6"/>
<path d="M408.548 512.1C398.926 514.547 374.047 516.299 344.878 516.299C315.709 516.299 290.819 514.547 281.208 512.1C278.46 512.807 276.953 513.561 276.953 514.35C276.953 517.9 307.362 520.788 344.878 520.788C382.394 520.788 412.791 517.9 412.791 514.42C412.791 513.584 411.284 512.83 408.548 512.1Z" fill="black"/>
<path d="M408.548 510C398.926 512.448 374.047 514.188 344.878 514.188C315.709 514.188 290.819 512.448 281.208 510C278.46 510.696 276.953 511.462 276.953 512.25C276.953 515.8 307.362 518.689 344.878 518.689C382.394 518.689 412.791 515.8 412.791 512.25C412.791 511.462 411.284 510.696 408.548 510Z" fill="white"/>
<path d="M420.442 526.925C409.081 529.825 379.692 531.878 345.225 531.878C310.759 531.878 281.381 529.825 270.02 526.925C266.774 527.76 265 528.653 265 529.581C265 533.78 300.939 537.191 345.225 537.191C389.512 537.191 425.462 533.78 425.462 529.581C425.462 528.653 423.688 527.76 420.442 526.925Z" fill="#C4C3C6"/>
<path d="M417.661 523.932C406.717 526.716 378.418 528.7 345.226 528.7C312.035 528.7 283.782 526.716 272.803 523.932C269.673 524.732 267.969 525.591 267.969 526.484C267.969 530.532 302.551 533.815 345.226 533.815C387.901 533.815 422.53 530.532 422.53 526.484C422.53 525.591 420.779 524.732 417.661 523.932Z" fill="black"/>
<path d="M417.661 521.623C406.717 524.407 378.418 526.391 345.226 526.391C312.035 526.391 283.782 524.407 272.803 521.623C269.673 522.424 267.969 523.282 267.969 524.175C267.969 528.224 302.551 531.507 345.226 531.507C387.901 531.507 422.53 528.224 422.53 524.175C422.53 523.282 420.779 522.424 417.661 521.623Z" fill="white"/>
<path d="M347.471 345H346.529C334.642 345 325 354.126 325 365.404V414.935H330.615V366.213C330.615 357.464 338.088 350.385 347.316 350.385H347.626C356.842 350.385 364.328 357.464 364.328 366.213V415H369V365.404C368.935 354.126 359.294 345 347.471 345Z" fill="#C4C3C6"/>
</svg>
