<svg width="500" height="450" viewBox="0 0 500 450" fill="none" xmlns="http://www.w3.org/2000/svg">
<path fill-rule="evenodd" clip-rule="evenodd" d="M283.825 111.617V117.161H278.28V111.617H272.722V117.161H267.164V111.617H261.62V106.058H256.061V111.617H261.606V117.161H256.061V111.617H250.5V117.175H256.058V122.719H261.603V128.278H256.058V133.836H261.603V139.38H256.058V133.836H250.5V139.395H256.058V144.939H250.5V150.5H256.058V144.942H261.603V150.5H267.161V144.942H272.72V150.5H278.278V144.942H283.822H283.836V139.397H289.38V133.839H283.836V128.281H289.38V122.722H283.836V117.177H289.38V111.619H283.836V106.061H278.278V111.619H283.825V111.617ZM283.839 144.942H289.384V150.5H283.825V144.942H283.839ZM256.058 128.281H250.5V122.722H256.058V128.281ZM267.161 111.617H272.72V106.058H267.161V111.617ZM261.616 139.397V144.942H267.161V139.397H261.616ZM289.384 139.383H294.942V133.839H289.384V128.281H294.942V122.722H289.384V117.164H294.942V111.619H289.384V106.061H294.942V111.619H300.5V117.177H294.942V122.722H300.5V128.281H294.942V133.839H300.5V139.397H294.942V144.942H300.5V150.5H294.942V144.942H289.384V139.383ZM278.28 117.177H272.722V122.722H278.28V117.177ZM278.28 128.281H283.825V122.722H278.28V128.281ZM278.28 133.839V128.281H272.722V133.839H278.28ZM278.28 133.839V139.383H283.825V133.839H278.28ZM267.161 133.839V139.383H272.72V133.839H267.161ZM267.161 128.281H261.616V133.839H267.161V128.281ZM267.161 122.719V128.278H272.72V122.719H267.161ZM267.161 122.719V117.175H261.616V122.719H267.161ZM272.72 139.397H278.278V144.942H272.72V139.397ZM256.058 100.5V106.058H250.5V100.5H256.058ZM267.161 106.058V100.5H261.603V106.058H267.161ZM278.28 100.5V106.058H272.722V100.5H278.28ZM289.384 106.058V100.5H283.825V106.058H289.384ZM300.5 106.058V100.5H294.942V106.058H300.5Z" fill="#E7EDF5"/>
<path fill-rule="evenodd" clip-rule="evenodd" d="M83.3249 311.117V316.661H77.7805V311.117H72.2222V316.661H66.664V311.117H61.1196V305.558H55.5613V311.117H61.1058V316.661H55.5613V311.117H50V316.675H55.5582V322.219H61.1027V327.778H55.5582V333.336H61.1027V338.88H55.5582V333.336H50V338.895H55.5582V344.439H50V350H55.5582V344.442H61.1027V350H66.6613V344.442H72.2195V350H77.7778V344.442H83.3222H83.336V338.897H88.8804V333.339H83.336V327.781H88.8804V322.222H83.336V316.677H88.8804V311.119H83.336V305.561H77.7778V311.119H83.3249V311.117ZM83.3387 344.442H88.8835V350H83.3249V344.442H83.3387ZM55.5582 327.781H50V322.222H55.5582V327.781ZM66.6613 311.117H72.2195V305.558H66.6613V311.117ZM61.1165 338.897V344.442H66.6613V338.897H61.1165ZM88.8835 338.883H94.4418V333.339H88.8835V327.781H94.4418V322.222H88.8835V316.664H94.4418V311.119H88.8835V305.561H94.4418V311.119H100V316.677H94.4418V322.222H100V327.781H94.4418V333.339H100V338.897H94.4418V344.442H100V350H94.4418V344.442H88.8835V338.883ZM77.7805 316.677H72.2222V322.222H77.7805V316.677ZM77.7805 327.781H83.3249V322.222H77.7805V327.781ZM77.7805 333.339V327.781H72.2222V333.339H77.7805ZM77.7805 333.339V338.883H83.3249V333.339H77.7805ZM66.6613 333.339V338.883H72.2195V333.339H66.6613ZM66.6613 327.781H61.1165V333.339H66.6613V327.781ZM66.6613 322.219V327.778H72.2195V322.219H66.6613ZM66.6613 322.219V316.675H61.1165V322.219H66.6613ZM72.2195 338.897H77.7778V344.442H72.2195V338.897ZM55.5582 300V305.558H50V300H55.5582ZM66.6613 305.558V300H61.1027V305.558H66.6613ZM77.7805 300V305.558H72.2222V300H77.7805ZM88.8835 305.558V300H83.3249V305.558H88.8835ZM100 305.558V300H94.4418V305.558H100Z" fill="#4038FF"/>
<path fill-rule="evenodd" clip-rule="evenodd" d="M483.325 362.117V367.661H477.78V362.117H472.222V367.661H466.664V362.117H461.12V356.558H455.561V362.117H461.106V367.661H455.561V362.117H450V367.675H455.558V373.219H461.103V378.778H455.558V384.336H461.103V389.88H455.558V384.336H450V389.895H455.558V395.439H450V401H455.558V395.442H461.103V401H466.661V395.442H472.22V401H477.778V395.442H483.322H483.336V389.897H488.88V384.339H483.336V378.781H488.88V373.222H483.336V367.677H488.88V362.119H483.336V356.561H477.778V362.119H483.325V362.117ZM483.339 395.442H488.884V401H483.325V395.442H483.339ZM455.558 378.781H450V373.222H455.558V378.781ZM466.661 362.117H472.22V356.558H466.661V362.117ZM461.116 389.897V395.442H466.661V389.897H461.116ZM488.884 389.883H494.442V384.339H488.884V378.781H494.442V373.222H488.884V367.664H494.442V362.119H488.884V356.561H494.442V362.119H500V367.677H494.442V373.222H500V378.781H494.442V384.339H500V389.897H494.442V395.442H500V401H494.442V395.442H488.884V389.883ZM477.78 367.677H472.222V373.222H477.78V367.677ZM477.78 378.781H483.325V373.222H477.78V378.781ZM477.78 384.339V378.781H472.222V384.339H477.78ZM477.78 384.339V389.883H483.325V384.339H477.78ZM466.661 384.339V389.883H472.22V384.339H466.661ZM466.661 378.781H461.116V384.339H466.661V378.781ZM466.661 373.219V378.778H472.22V373.219H466.661ZM466.661 373.219V367.675H461.116V373.219H466.661ZM472.22 389.897H477.778V395.442H472.22V389.897ZM455.558 351V356.558H450V351H455.558ZM466.661 356.558V351H461.103V356.558H466.661ZM477.78 351V356.558H472.222V351H477.78ZM488.884 356.558V351H483.325V356.558H488.884ZM500 356.558V351H494.442V356.558H500Z" fill="#E7EDF5"/>
<path fill-rule="evenodd" clip-rule="evenodd" d="M300.5 56.0583V50.5H350.5V56.0583H300.5ZM300.5 61.6112V67.1668H350.5V61.6112H300.5ZM300.5 72.722V78.2776H350.5V72.722H300.5ZM300.5 89.3888V83.8332H350.5V89.3888H300.5ZM300.5 94.9444V100.5H350.5V94.9444H300.5Z" fill="#4038FF"/>
<path fill-rule="evenodd" clip-rule="evenodd" d="M194.942 100.5H200.5V150.5H194.942V100.5ZM189.389 100.5H183.833V150.5H189.389V100.5ZM178.278 100.5H172.722V150.5H178.278V100.5ZM161.611 100.5H167.167V150.5H161.611V100.5ZM156.056 100.5H150.5V150.5H156.056V100.5ZM356.058 100.5H350.5V150.5H356.058V100.5ZM372.728 100.5H378.286V150.5H372.728V100.5ZM389.397 100.5H383.839V150.5H389.397V100.5ZM400.5 100.5H394.942V150.5H400.5V100.5ZM361.617 100.5H367.175V150.5H361.617V100.5Z" fill="#E7EDF5"/>
<path fill-rule="evenodd" clip-rule="evenodd" d="M206.056 0.5L200.5 0.5C200.5 28.1138 222.886 50.5 250.5 50.5V44.9445C225.953 44.9445 206.056 25.0471 206.056 0.5ZM217.167 0.5L211.611 0.5C211.611 21.9778 229.022 39.3889 250.5 39.3889V33.8333C232.092 33.8333 217.167 18.9084 217.167 0.5ZM222.722 0.5L228.278 0.5C228.278 12.772 238.228 22.7222 250.5 22.7222V28.2778C235.158 28.2778 222.722 15.8418 222.722 0.5ZM239.389 0.5L233.833 0.5C233.833 9.70533 241.294 17.1667 250.5 17.1667V11.6111C244.364 11.6111 239.389 6.636 239.389 0.5ZM250.5 0.5L244.944 0.5C244.944 3.56933 247.431 6.05556 250.5 6.05556V0.5Z" fill="#E7EDF5"/>
<path fill-rule="evenodd" clip-rule="evenodd" d="M244.944 200.5H250.5C250.5 172.886 228.114 150.5 200.5 150.5V156.056C225.047 156.056 244.944 175.953 244.944 200.5ZM233.833 200.5H239.389C239.389 179.022 221.978 161.611 200.5 161.611V167.167C218.908 167.167 233.833 182.092 233.833 200.5ZM228.278 200.5H222.722C222.722 188.228 212.772 178.278 200.5 178.278V172.722C215.842 172.722 228.278 185.158 228.278 200.5ZM211.611 200.5H217.166C217.166 191.294 209.706 183.833 200.5 183.833V189.389C206.636 189.389 211.611 194.364 211.611 200.5ZM200.5 200.5H206.056C206.056 197.431 203.569 194.944 200.5 194.944V200.5Z" fill="#E7EDF5"/>
<path fill-rule="evenodd" clip-rule="evenodd" d="M444.444 200.5H450C450 172.886 427.614 150.5 400 150.5V156.056C424.547 156.056 444.444 175.953 444.444 200.5ZM433.333 200.5H438.889C438.889 179.022 421.478 161.611 400 161.611V167.167C418.408 167.167 433.333 182.092 433.333 200.5ZM427.778 200.5H422.222C422.222 188.228 412.272 178.278 400 178.278V172.722C415.342 172.722 427.778 185.158 427.778 200.5ZM411.111 200.5H416.666C416.666 191.294 409.206 183.833 400 183.833V189.389C406.136 189.389 411.111 194.364 411.111 200.5ZM400 200.5H405.556C405.556 197.431 403.069 194.944 400 194.944V200.5Z" fill="#E7EDF5"/>
<path fill-rule="evenodd" clip-rule="evenodd" d="M201.5 405.056V399.5C173.886 399.5 151.5 421.886 151.5 449.5H157.056C157.056 424.953 176.953 405.056 201.5 405.056ZM201.5 416.167V410.611C180.022 410.611 162.611 428.022 162.611 449.5H168.167C168.167 431.092 183.092 416.167 201.5 416.167ZM201.5 421.722V427.278C189.228 427.278 179.278 437.228 179.278 449.5H173.722C173.722 434.158 186.158 421.722 201.5 421.722ZM201.5 438.389V432.834C192.294 432.834 184.833 440.294 184.833 449.5H190.389C190.389 443.364 195.364 438.389 201.5 438.389ZM201.5 449.5V443.944C198.431 443.944 195.944 446.431 195.944 449.5H201.5Z" fill="#E7EDF5"/>
<path d="M250.5 200.5H300.5V250.5C272.886 250.5 250.5 228.114 250.5 200.5Z" fill="#E7EDF5"/>
<path d="M100.5 300.5V250.5H150.5C150.5 278.114 128.114 300.5 100.5 300.5ZM0 296.084V300H3.91666L50 253.917V250H46.0833L0 296.084ZM50 261.778V269.639L19.6389 300H11.7778L50 261.778ZM50 277.5V285.361L35.3611 300H27.5L50 277.5ZM50 300H43.2222L50 293.223V300ZM30.3611 250H38.2222L0 288.223V280.361L30.3611 250ZM14.6389 250H22.5L0 272.5V264.639L14.6389 250ZM6.7778 250L0 256.778V250H6.7778ZM300.5 346.584V350.5H304.417L350.5 304.417V300.5H346.583L300.5 346.584ZM350.5 312.278V320.139L320.139 350.5H312.278L350.5 312.278ZM350.5 328V335.861L335.861 350.5H328L350.5 328ZM350.5 350.5H343.722L350.5 343.723V350.5ZM330.861 300.5H338.722L300.5 338.723V330.861L330.861 300.5ZM315.139 300.5H323L300.5 323V315.139L315.139 300.5ZM307.278 300.5L300.5 307.278V300.5H307.278Z" fill="#E7EDF5"/>
<path fill-rule="evenodd" clip-rule="evenodd" d="M100.5 194.942V200.5H150.5V194.942H100.5ZM100.5 178.272V172.714H150.5V178.272H100.5ZM100.5 161.603V167.161H150.5V161.603H100.5ZM100.5 150.5V156.058H150.5V150.5H100.5ZM100.5 189.383V183.825H150.5V189.383H100.5Z" fill="#4038FF"/>
<path fill-rule="evenodd" clip-rule="evenodd" d="M151.5 343.942V349.5H201.5V343.942H151.5ZM151.5 327.272V321.714H201.5V327.272H151.5ZM151.5 310.603V316.161H201.5V310.603H151.5ZM151.5 299.5V305.058H201.5V299.5H151.5ZM151.5 338.383V332.825H201.5V338.383H151.5Z" fill="#E7EDF5"/>
<path d="M320.768 133.709C320.748 132.662 320.657 131.616 320.494 130.581V130.581C320.663 130.167 321.048 130.149 321.392 130.138C323.241 130.073 325.02 129.77 326.909 130.575C328.373 131.206 329.867 129.782 330.992 128.632C332.211 127.401 333.354 126.373 335.046 126.432C336.119 126.473 336.591 125.165 337.455 124.681C338.545 123.998 339.35 123.613 340.044 125.364C340.791 127.243 342.844 126.91 343.783 124.815C344.383 123.236 345.389 121.843 346.699 120.777V120.777C349.301 117.543 351.779 117.047 354.713 119.178C356.896 119.212 359.026 119.852 360.867 121.028C361.147 121.163 361.396 121.356 361.597 121.595C361.798 121.833 361.947 122.111 362.033 122.411C362.227 123.113 362.626 123.742 363.178 124.217C363.731 124.692 364.413 124.992 365.136 125.078C366.787 125.399 367.836 126.333 368.425 128.107C368.68 128.302 368.986 128.422 369.306 128.451C369.626 128.48 369.948 128.417 370.234 128.27C371.849 127.319 373.074 127.967 374.188 129.367C375.431 129.798 376.715 130.098 378.02 130.26C379.221 130.33 380.289 130.844 380.353 132.595C380.394 134.205 379.851 135.332 378.457 135.729C377.871 135.845 377.343 136.158 376.958 136.616H326.256C324.544 135.439 322.703 134.464 320.768 133.709V133.709Z" fill="black" stroke="black" stroke-width="10.3615" stroke-miterlimit="10"/>
<path d="M332.993 135.232C331.925 135.308 330.881 135.711 329.767 135.571C329.391 135.551 329.015 135.627 328.677 135.792C328.338 135.958 328.047 136.207 327.831 136.516H326.081C324.421 135.387 322.641 134.446 320.774 133.709C320.753 132.494 320.64 131.283 320.435 130.085C320.607 130.031 320.786 130.005 320.966 130.009C322.815 129.945 324.594 129.642 326.484 130.447C327.948 131.071 329.441 129.653 330.566 128.504C331.692 127.354 332.929 126.239 334.62 126.303C335.693 126.344 336.166 125.037 337.029 124.553C338.131 123.905 338.913 123.52 339.607 125.282C340.353 127.161 342.406 126.829 343.346 124.733C343.946 123.154 344.952 121.761 346.262 120.695C347.038 120.765 347.749 120.981 348.595 120.491C349.627 119.872 350.525 120.491 350.869 121.775C351.762 125.212 353.657 127.389 356.574 128.381C357.183 128.627 357.738 128.989 358.207 129.449C358.701 129.906 359.297 130.238 359.945 130.419C360.593 130.599 361.275 130.623 361.934 130.488C363.684 130.155 365.404 130.05 367.014 131.392C367.842 132.093 368.7 131.935 369.195 130.546C369.779 128.918 370.251 128.842 371.528 129.863C371.668 129.98 371.797 130.114 371.937 130.231C372.736 130.896 373.529 131.614 374.112 129.933C374.165 129.776 374.41 129.776 374.59 129.793C375.032 130.175 375.575 130.42 376.154 130.499C377.501 130.558 378.317 131.725 379.041 132.834C379.764 133.943 378.947 135.022 377.787 135.396C375.005 136.3 372.117 135.904 369.324 136.516H357.659C355.582 135.676 353.424 135.985 351.289 135.933C350.854 135.936 350.418 135.901 349.989 135.828C349.733 135.779 349.5 135.645 349.329 135.448C349.158 135.251 349.057 135.003 349.044 134.742C348.994 134.486 349.016 134.22 349.109 133.976C349.202 133.731 349.361 133.518 349.569 133.359C349.913 133.126 350.31 133.015 350.665 132.776C351.301 132.402 351.365 131.994 350.776 131.439C348.892 129.653 344.425 129.939 342.751 131.953C341.963 132.904 342.383 133.628 343.013 134.351C343.526 134.935 344.302 135.437 343.596 136.487H338.796C337.046 134.982 334.97 135.087 332.993 135.232Z" fill="#C4C3C6"/>
<path d="M320.768 133.709C320.768 133.114 320.733 132.513 320.663 131.906C321.1 131.515 321.707 131.486 322.64 132.145C322.739 132.206 322.853 132.237 322.969 132.237C323.086 132.237 323.2 132.206 323.299 132.145C325.049 130.575 326.95 131.988 328.77 131.824C329.966 131.719 330.339 132.927 330.63 134.059H321.631C321.345 133.937 321.048 133.826 320.768 133.709Z" fill="white"/>
<path d="M369.312 136.516C371.843 135.408 374.596 135.933 377.157 134.987C377.623 134.824 378.241 135.052 378.481 134.363C378.761 133.546 378.096 133.237 377.775 132.717C376.923 131.346 375.652 130.786 374.427 130.114C373.844 130.249 373.57 129.986 373.762 129.256C375.014 129.69 376.308 129.989 377.623 130.149C378.825 130.219 379.892 130.733 379.956 132.484C379.997 134.095 379.455 135.221 378.061 135.618C377.475 135.734 376.946 136.047 376.562 136.505L369.312 136.516Z" fill="#C4C3C6"/>
<path d="M373.762 129.256L374.427 130.114C374.497 131.048 374.585 131.988 374.625 132.927C374.656 133.182 374.598 133.44 374.461 133.657C374.324 133.873 374.116 134.036 373.873 134.118C373.336 134.305 373.056 133.995 372.817 133.429C372.082 131.678 372.065 131.719 370.484 130.511C370.041 133.254 368.653 134.007 366.541 132.367C365.951 131.909 365.264 131.59 364.533 131.434C363.802 131.279 363.045 131.29 362.319 131.468C360.47 131.789 358.679 131.69 357.227 129.963C356.731 129.379 356.002 129.291 355.355 129.029C352.882 128.025 351.272 125.924 350.269 123.193C350.024 122.545 350.088 121.594 349.283 121.495C348.478 121.395 348.268 122.23 347.959 122.854C347.842 123.088 347.778 123.362 347.557 124.022L346.285 120.695C348.886 117.462 351.365 116.966 354.299 119.096C354.491 119.427 354.788 119.685 355.143 119.828C355.498 119.97 355.891 119.99 356.259 119.884C358.008 119.452 360.341 120.998 361.199 123.053C361.496 123.771 362.365 124.138 362.126 125.171C362.342 124.99 362.669 124.687 362.832 124.897C363.87 126.21 365.252 126.233 366.6 126.438C367.381 126.56 367.329 127.745 368 128.025C368.255 128.221 368.56 128.34 368.88 128.369C369.2 128.398 369.522 128.335 369.808 128.188C371.423 127.208 372.648 127.856 373.762 129.256Z" fill="white"/>
<path d="M368 127.996C367.078 127.511 366.197 126.829 365.083 127.447C364.901 127.556 364.684 127.591 364.476 127.545C364.269 127.498 364.087 127.373 363.969 127.196C362.984 125.317 361.846 125.93 360.656 126.805C360.417 126.986 360.073 127.12 359.875 126.805C359.601 126.356 359.962 126.105 360.225 125.86C361.52 124.658 361.642 123.228 360.225 121.95C359.058 120.87 357.839 119.405 355.95 120.537C355.046 121.074 354.346 120.327 354.252 119.067C356.435 119.101 358.566 119.741 360.406 120.917C360.686 121.052 360.935 121.246 361.136 121.484C361.337 121.722 361.486 122 361.572 122.3C361.767 123.002 362.166 123.63 362.718 124.104C363.271 124.578 363.952 124.876 364.675 124.961C366.361 125.288 367.411 126.222 368 127.996Z" fill="#C4C3C6"/>
<path d="M386.25 176.178C380.306 176.178 375.494 175.104 371.137 172.805C370.974 172.805 370.677 172.805 370.473 172.805C370.268 172.805 369.889 172.805 369.65 172.77L367.317 172.595C364.022 172.338 360.616 172.07 357.314 172.07C354.972 172.054 352.632 172.218 350.315 172.56C350.17 172.578 350.024 172.588 349.878 172.589C349.706 172.59 349.534 172.576 349.365 172.548C347.382 172.192 345.358 172.005 343.211 171.807C333.733 170.937 322.996 169.945 316.172 153.266C316.004 152.854 315.932 152.409 315.963 151.965C315.993 151.522 316.125 151.091 316.347 150.706C316.569 150.32 316.877 149.991 317.245 149.743C317.614 149.495 318.035 149.335 318.475 149.274C320.289 149.023 322.103 148.69 323.865 148.364C325.871 147.996 327.796 147.64 329.697 147.412L329.954 147.132C329.291 145.982 328.939 144.678 328.933 143.35C328.975 141.547 329.619 139.81 330.763 138.415C331.907 137.021 333.484 136.051 335.244 135.659C335.514 135.597 335.771 135.489 336.002 135.338C337.589 134.296 339.447 133.744 341.345 133.75C344.903 133.75 348.087 135.647 348.927 138.267C349.207 139.137 350.245 139.534 352.392 140.17C354.386 140.753 357.419 141.658 358.807 144.36C359.759 144.378 360.709 144.466 361.648 144.623C362.348 144.745 363.055 144.817 363.765 144.839C364.32 144.851 364.872 144.749 365.387 144.541L367.72 143.566C373.301 141.232 379.07 138.798 385.719 137.917C386.804 137.771 387.766 137.672 388.67 137.602C388.921 137.602 389.172 137.602 389.411 137.602C390.614 137.581 391.808 137.809 392.919 138.271C394.03 138.733 395.034 139.419 395.867 140.287C396.358 140.81 396.774 141.4 397.104 142.037C398.419 141.683 399.761 141.435 401.117 141.296H401.42C401.656 141.296 401.891 141.325 402.12 141.384C404.978 142.09 406.599 144.074 406.483 146.566C411.4 147.278 416.456 148.048 421.163 150.336H421.367H421.589C426.733 151.089 429.626 154.556 428.961 159.166C428.728 160.753 427.614 164.418 422.219 164.418C421.352 164.405 420.488 164.339 419.629 164.22C419.118 164.157 418.604 164.126 418.089 164.127C415.243 164.127 412.56 165.101 409.726 166.134L408.752 166.484C409.971 168.107 411.225 170.225 410.227 172.32C409.061 174.853 405.876 174.923 403.986 174.964C401.356 175.023 398.737 175.273 395.937 175.548C392.788 175.863 389.522 176.178 386.25 176.178Z" fill="black"/>
<path d="M341.357 136.639C343.69 136.639 345.725 137.806 346.151 139.119C347.772 144.243 356.34 141.693 356.649 147.354C356.649 147.406 356.865 147.5 356.982 147.5H357.017C357.609 147.325 358.225 147.241 358.842 147.249C360.47 147.249 362.091 147.727 363.8 147.727C364.738 147.739 365.668 147.563 366.536 147.208C372.817 144.611 378.982 141.728 386.139 140.788C387.084 140.666 388.011 140.561 388.915 140.497H389.446C392.98 140.497 395.278 143.123 395.103 145.807C397.12 144.924 399.264 144.369 401.455 144.162C403.053 144.558 403.864 145.445 403.526 146.916C403.234 148.165 404.161 148.702 405.112 149.251C410.361 150.009 415.657 150.71 420.376 153.12C420.509 153.175 420.652 153.199 420.796 153.19H421.21C424.779 153.715 426.552 155.676 426.115 158.717C425.788 160.987 424.079 161.5 422.26 161.5C421.514 161.487 420.77 161.429 420.032 161.325C419.401 161.246 418.766 161.207 418.13 161.209C412.764 161.209 408.32 163.992 403.333 165.113L405.818 167.418C408.658 170.978 408.495 171.976 403.963 172.087C398.13 172.215 392.146 173.289 386.267 173.289C381.554 173.289 376.894 172.6 372.38 170.179C371.715 169.828 370.723 169.922 369.878 169.858C365.707 169.554 361.537 169.157 357.361 169.157C354.875 169.14 352.391 169.311 349.93 169.671C338.761 167.681 326.507 170.704 318.925 152.163C323.538 151.532 327.942 150.412 331.879 150.138V149.385C332.521 148.64 333.224 147.949 333.978 147.319C333.341 146.87 332.818 146.276 332.453 145.586C332.089 144.897 331.892 144.131 331.879 143.35V143.304C331.879 141.08 333.541 139.102 335.961 138.489C336.547 138.344 337.105 138.104 337.612 137.777C338.722 137.047 340.022 136.661 341.351 136.668L341.357 136.639ZM341.351 130.832C338.922 130.826 336.544 131.523 334.503 132.84C329.499 134.124 326.023 138.419 326.023 143.304V143.35C326.023 143.902 326.068 144.452 326.157 144.996C325.218 145.154 324.285 145.323 323.363 145.498C321.613 145.813 319.864 146.14 318.114 146.379C317.232 146.5 316.389 146.821 315.65 147.318C314.911 147.815 314.295 148.474 313.85 149.246C313.406 150.018 313.143 150.882 313.084 151.77C313.024 152.659 313.169 153.55 313.506 154.375C316.813 162.452 321.345 167.903 327.37 171.031C332.619 173.756 338.119 174.264 342.978 174.713C345.06 174.906 347.026 175.087 348.886 175.419C349.225 175.478 349.569 175.507 349.913 175.507C350.208 175.509 350.502 175.487 350.794 175.443C352.962 175.127 355.152 174.976 357.344 174.993C360.528 174.993 363.724 175.238 367.113 175.501C367.889 175.559 368.659 175.624 369.446 175.676C369.796 175.705 370.117 175.711 370.379 175.717C375.045 178.051 380.09 179.125 386.261 179.125C389.673 179.125 393.015 178.798 396.252 178.489C398.982 178.226 401.56 177.975 404.086 177.905C406.139 177.859 410.956 177.754 412.904 173.581C413.303 172.72 413.52 171.785 413.541 170.836C413.562 169.887 413.387 168.944 413.027 168.066C414.659 167.449 416.381 167.102 418.124 167.039C418.514 167.039 418.904 167.063 419.291 167.109C420.269 167.246 421.255 167.32 422.242 167.331C428.512 167.331 431.323 163.31 431.872 159.545C432.776 153.289 428.821 148.41 422.038 147.412H421.951C417.716 145.451 413.359 144.593 409.072 143.94C408.256 141.325 406.034 139.271 402.843 138.495C402.384 138.378 401.912 138.32 401.438 138.32C401.243 138.321 401.048 138.332 400.854 138.355C400.032 138.436 399.221 138.559 398.434 138.705C398.305 138.553 398.171 138.407 398.031 138.261C396.928 137.1 395.595 136.18 394.119 135.559C392.642 134.939 391.053 134.631 389.452 134.655C389.137 134.655 388.816 134.655 388.495 134.69C387.533 134.76 386.512 134.865 385.375 135.017C378.341 135.95 372.391 138.448 366.635 140.853L364.302 141.821C364.14 141.883 363.967 141.908 363.794 141.897C363.225 141.873 362.658 141.812 362.097 141.716C361.578 141.64 361.024 141.559 360.429 141.5C359.819 140.732 359.097 140.059 358.288 139.504C356.727 138.523 355.02 137.794 353.232 137.345C352.701 137.193 351.96 136.972 351.482 136.761C350.035 133.213 345.964 130.785 341.339 130.785L341.351 130.832Z" fill="black"/>
<path d="M407.673 148.994C406.728 148.41 405.795 147.897 406.086 146.659C406.43 145.189 405.614 144.325 404.016 143.905C400.319 144.196 396.791 145.572 393.873 147.862C390.817 150.307 387.066 151.457 382.931 151.743C379.939 151.947 376.865 152.099 375.209 154.912C374.754 155.682 373.832 155.653 372.928 155.495C366.623 154.328 360.242 153.26 355.53 148.877C353.914 147.383 352.03 147.313 350.012 147.99C347.405 148.865 345.224 148.673 342.879 147.01C339.758 144.798 337.688 145.486 334.439 149.146V149.875C340.773 152.268 345.253 158.18 353.325 157.363C355.302 157.164 356.65 158.664 357.927 159.849C359.033 160.919 360.344 161.754 361.782 162.303C363.219 162.852 364.753 163.103 366.291 163.041C371.388 162.913 375.494 164.138 377.571 168.813C378.819 171.632 382.196 171.731 384.961 171.591C390.128 171.317 395.203 172.554 400.405 171.959C402.184 171.754 404.027 171.719 405.859 171.497C409.294 171.077 409.877 169.653 408.384 167.167L405.894 164.833C404.284 161.763 404.284 161.763 400.959 161.57C406.459 160.666 412.759 160.987 418.743 159.236C419.717 158.95 420.662 158.798 421.268 158.01C422.715 155.338 420.598 154.877 418.457 154.83C414.829 154.754 411.907 153.312 408.973 151.702C407.69 151.042 407.089 150.278 407.673 148.994Z" fill="#C4C3C6"/>
<path d="M334.463 143.082C334.463 145.621 336.586 147.879 339.473 148.124C340.343 148.209 341.186 148.473 341.95 148.899C342.713 149.324 343.381 149.903 343.911 150.599C345.264 152.186 347.411 151.964 349.271 150.686C351.476 149.169 353.412 149.391 355.104 151.468C356.69 153.441 359.373 154.095 361.7 154.777C365.013 155.752 368.385 156.581 371.849 157.392C374.427 157.976 377.378 157.118 378.487 154.993C378.912 154.182 380.347 153.879 383.001 153.709C387.918 153.394 392.257 152.058 395.768 149.07L395.844 149.006C399.851 145.685 397.011 139.843 391.516 140.252C390.612 140.316 389.685 140.421 388.74 140.543C381.584 141.495 375.419 144.378 369.137 146.963C365.702 148.387 362.721 146.327 359.618 147.249C359.551 147.252 359.483 147.241 359.42 147.217C359.357 147.193 359.299 147.156 359.251 147.109C358.965 141.448 350.397 143.998 348.752 138.874C348.105 136.832 343.66 135.233 340.219 137.503C339.705 137.829 339.139 138.066 338.545 138.203C336.101 138.787 334.463 140.794 334.463 143.018V143.082Z" fill="white"/>
<path d="M408.384 167.161C408.308 169.496 406.955 171.007 404.301 171.159C400.615 171.375 396.859 171.702 393.22 171.293C390.303 170.961 387.387 170.289 384.377 170.26C381.922 170.26 379.916 169.414 379.286 167.039C378.119 162.697 374.24 161.284 369.954 161.319C364.518 161.36 360.207 160.24 357.192 156.02C356.119 154.521 354.375 153.412 352.077 154.515C349.161 155.909 346.658 155.098 344.798 153.155C339.257 147.319 330.8 150.616 321.468 151.894C329.05 170.43 341.298 167.412 352.473 169.402C359.14 168.381 365.783 169.099 372.427 169.589C373.266 169.653 374.264 169.554 374.923 169.91C385.072 175.343 395.949 172.052 406.506 171.819C411.061 171.719 411.225 170.715 408.384 167.161Z" fill="black"/>
<path d="M420.387 157.398C413.75 159.604 406.664 158.641 399.851 159.645C398.148 159.895 396.352 159.919 395.337 161.343C394.567 162.434 393.085 163.677 394.52 164.984C395.687 166.035 397.25 165.475 398.399 164.675C401 162.86 403.438 163.59 405.894 164.856C411.452 163.607 416.346 160.281 422.592 161.069C425.001 161.366 428.215 161.652 428.676 158.46C429.119 155.419 427.346 153.458 423.77 152.933C422.645 154.421 422.032 156.213 420.387 157.398Z" fill="black"/>
<path d="M420.388 157.398C422.009 157.818 423.922 158.332 424.966 156.919C426.01 155.507 424.225 154.27 423.8 152.933C423.522 152.96 423.241 152.936 422.971 152.863C418.253 150.447 412.969 149.753 407.702 148.994C405.287 149.893 405.06 151.282 407.031 152.612C410.128 154.707 413.05 157.281 417.565 156.785C418.451 156.686 419.437 157.176 420.388 157.398Z" fill="white"/>
<path d="M334.649 156.353L188.836 127.5V91.3165C188.836 88.6844 192.72 82.4049 197.17 82.3523C216.89 82.1072 239.783 79.7378 264.746 81.903C290.561 84.1498 310.304 88.6727 327.358 93.9135C335.419 96.3938 335.326 99.8079 335.209 102.031C335.046 105.58 334.836 152.793 334.649 156.353Z" fill="black"/>
<path d="M326.256 137.538L197.048 125.282V97.9928C197.048 94.818 200.489 91.8883 204.432 91.6841C224.39 90.6359 244.396 90.9303 264.315 92.5653C283.706 94.1502 302.957 97.1403 321.917 101.512C324.956 102.218 326.857 104.43 326.752 107.103C326.589 111.357 326.425 133.266 326.256 137.538Z" fill="#C4C3C6"/>
<path d="M325.714 245.434L305.451 248.195V119.557C305.451 112.612 309.983 106.368 315.583 105.603C321.182 104.839 325.714 109.858 325.714 116.802V245.434Z" fill="black"/>
<path d="M313.833 114.305L313.576 114.34C310.316 114.783 307.668 119.592 307.668 125.084V158.933L309.208 158.722V125.235C309.208 120.975 311.261 117.246 313.786 116.907H313.874C316.399 116.563 318.452 119.732 318.452 123.986V157.462L319.735 157.287V123.438C319.735 117.952 317.093 113.861 313.833 114.305Z" fill="#C4C3C6"/>
<path d="M322.64 181.384L308.963 183.246V166.66L322.64 164.798V181.384Z" fill="#C4C3C6"/>
<path d="M323.036 169.933L309.365 171.795V169.239L323.036 167.377V169.933Z" fill="black"/>
<path d="M323.036 163.841L309.365 165.702V164.238L323.036 162.376V163.841Z" fill="white"/>
<path d="M323.037 160.345V183.362L322.278 183.467V160.45L323.037 160.345Z" fill="black"/>
<path d="M309.365 162.207V185.224L308.56 185.329V162.312L309.365 162.207Z" fill="black"/>
<path d="M323.037 223.304L308.496 225.282V179.149C308.496 176.231 310.193 173.599 312.293 173.313L319.24 172.367C321.339 172.087 323.037 174.235 323.037 177.17V223.304Z" fill="black"/>
<path d="M313.833 174.842L313.576 174.877C310.316 175.32 307.668 180.129 307.668 185.615V219.464L309.208 219.26V185.767C309.208 181.512 311.261 177.783 313.786 177.439H313.874C316.399 177.094 318.452 180.263 318.452 184.524V218.028L319.735 217.853V184.004C319.735 178.472 317.093 174.386 313.833 174.842Z" fill="#C4C3C6"/>
<path d="M315.798 107.564L315.396 107.622C310.292 108.317 306.151 115.851 306.151 124.447V221.255L308.56 220.929V124.687C308.56 118.016 311.774 112.174 315.734 111.637H315.868C319.829 111.095 323.037 116.067 323.037 122.726V218.956L325.049 218.682V121.862C325.049 113.277 320.908 106.869 315.798 107.564Z" fill="white"/>
<path d="M196.144 240.865L214.808 238.32V109.682C214.808 102.743 210.626 97.6777 205.476 98.3838C200.326 99.09 196.144 105.282 196.144 112.227V240.865Z" fill="black"/>
<path d="M207.115 106.618L207.354 106.589C210.358 106.181 212.796 110.295 212.796 115.787V149.636L211.396 149.875V116.341C211.396 112.081 209.506 108.889 207.179 109.21H207.097C204.764 109.531 202.88 113.236 202.88 117.491V151.001L201.714 151.159V117.31C201.673 111.812 204.111 107.027 207.115 106.618Z" fill="#C4C3C6"/>
<path d="M198.996 176.003L211.6 174.287V157.701L198.996 159.417V176.003Z" fill="#C4C3C6"/>
<path d="M198.628 164.658L211.227 162.942V160.386L198.628 162.102V164.658Z" fill="black"/>
<path d="M198.628 158.565L211.227 156.849V155.384L198.628 157.1V158.565Z" fill="white"/>
<path d="M198.628 155.069V178.086L199.328 177.987V154.97L198.628 155.069Z" fill="black"/>
<path d="M211.227 153.353V176.371L211.973 176.266V153.248L211.227 153.353Z" fill="black"/>
<path d="M198.628 218.022L212.043 216.202V169.648C212.043 166.945 210.474 164.979 208.544 165.23L202.128 166.099C200.192 166.362 198.628 168.766 198.628 171.474V218.022Z" fill="black"/>
<path d="M207.115 167.156L207.354 167.121C210.358 166.712 212.796 170.832 212.796 176.318V210.167L211.373 210.36V176.873C211.373 172.618 209.483 169.426 207.156 169.741H207.074C204.741 170.056 202.857 173.762 202.857 178.022V211.527L201.691 211.69V177.841C201.673 172.344 204.111 167.564 207.115 167.156Z" fill="#C4C3C6"/>
<path d="M205.301 100.391L205.668 100.345C210.375 99.7028 214.195 106.181 214.195 114.754V211.562L211.967 211.865V115.623C211.967 108.953 209.01 103.951 205.359 104.448H205.237C201.586 104.944 198.628 110.75 198.628 117.421V213.68L196.774 213.931V117.123C196.774 108.527 200.588 101.033 205.301 100.391Z" fill="white"/>
<path d="M308.922 241.18L282.092 244.827V116.19C282.092 109.245 288.094 102.802 295.507 101.792C302.92 100.782 308.922 105.597 308.922 112.542V241.18Z" fill="black"/>
<path d="M294.265 110.424L293.926 110.47C289.61 111.054 286.116 115.979 286.116 121.471V155.32L288.152 155.04V121.553C288.152 117.298 290.864 113.476 294.206 113.021H294.323C297.665 112.565 300.377 115.647 300.377 119.901V153.377L302.074 153.149V119.3C302.074 113.808 298.575 109.834 294.265 110.424Z" fill="#C4C3C6"/>
<path d="M304.827 177.264L286.746 179.726V163.14L304.827 160.678V177.264Z" fill="#C4C3C6"/>
<path d="M305.358 165.796L287.277 168.258V165.696L305.358 163.24V165.796Z" fill="black"/>
<path d="M305.358 159.703L287.277 162.166V160.695L305.358 158.238V159.703Z" fill="white"/>
<path d="M305.358 156.207V179.224L304.355 179.359V156.341L305.358 156.207Z" fill="black"/>
<path d="M287.277 158.664V181.681L286.21 181.827V158.81L287.277 158.664Z" fill="black"/>
<path d="M305.358 219.166L286.111 221.781V177.363C286.111 173.476 288.362 170.027 291.133 169.647L300.325 168.399C303.101 168.019 305.346 170.861 305.346 174.742L305.358 219.166Z" fill="black"/>
<path d="M294.265 170.955L293.926 171.001C289.61 171.585 286.116 176.517 286.116 182.002V215.851L288.152 215.577V182.09C288.152 177.83 290.864 174.013 294.206 173.558H294.323C297.665 173.102 300.377 176.184 300.377 180.444V213.949L302.074 213.715V179.866C302.074 174.346 298.575 170.371 294.265 170.955Z" fill="#C4C3C6"/>
<path d="M295.787 103.771L295.256 103.846C288.496 104.763 283.008 112.484 283.008 121.08V217.859L286.198 217.427V121.179C286.198 114.515 290.444 108.533 295.688 107.815H295.863C301.112 107.103 305.346 111.9 305.346 118.6V214.818L308.006 214.457V117.649C308.018 109.052 302.541 102.825 295.787 103.771Z" fill="white"/>
<path d="M210.433 239.849L237.263 236.202V107.564C237.263 100.619 231.261 95.8102 223.848 96.814C216.435 97.8178 210.433 104.272 210.433 111.211V239.849Z" fill="black"/>
<path d="M225.091 105.107L225.435 105.06C229.745 104.477 233.239 108.445 233.239 113.937V147.786L231.203 148.06V114.573C231.203 110.318 228.491 107.237 225.149 107.692H225.038C221.69 108.147 218.984 111.97 218.984 116.225V149.729L217.287 149.963V116.114C217.287 110.616 220.78 105.691 225.091 105.107Z" fill="#C4C3C6"/>
<path d="M214.528 174.818L232.615 172.361V155.775L214.528 158.232V174.818Z" fill="#C4C3C6"/>
<path d="M213.997 163.496L232.078 161.034V158.477L213.997 160.94V163.496Z" fill="black"/>
<path d="M213.997 157.404L232.078 154.941V153.476L213.997 155.939V157.404Z" fill="white"/>
<path d="M213.997 153.908V176.925L215 176.785V153.768L213.997 153.908Z" fill="black"/>
<path d="M232.078 151.445V174.462L233.145 174.316V151.299L232.078 151.445Z" fill="black"/>
<path d="M213.997 216.867L233.245 214.246V169.828C233.245 165.942 230.993 163.105 228.223 163.479L219.031 164.734C216.26 165.107 214.009 168.562 214.009 172.443L213.997 216.867Z" fill="black"/>
<path d="M225.091 165.632L225.435 165.586C229.745 165.002 233.239 168.976 233.239 174.462V208.311L231.203 208.591V175.104C231.203 170.85 228.491 167.768 225.149 168.224H225.038C221.69 168.679 218.984 172.496 218.984 176.75V210.278L217.287 210.506V176.657C217.287 171.153 220.78 166.216 225.091 165.632Z" fill="#C4C3C6"/>
<path d="M223.568 98.8391L224.105 98.7691C230.859 97.847 236.353 104.074 236.353 112.67V209.478L233.163 209.916V113.692C233.163 107.027 228.917 102.201 223.679 102.913H223.498C218.249 103.625 214.015 109.607 214.015 116.277V212.519L211.355 212.881V116.073C211.338 107.476 216.814 99.7612 223.568 98.8391Z" fill="white"/>
<path d="M286.507 242.551L256.843 246.584V113.184C256.843 105.982 263.48 99.2418 271.675 98.1271C279.87 97.0124 286.507 101.944 286.507 109.145V242.551Z" fill="black"/>
<path d="M271.279 106.951L270.905 107.004C266.134 107.652 262.261 112.793 262.261 118.483V153.61L264.519 153.301V118.553C264.519 114.135 267.517 110.149 271.22 109.647H271.343C275.046 109.146 278.044 112.315 278.044 116.727V151.48L279.922 151.223V116.085C279.922 110.389 276.055 106.303 271.279 106.951Z" fill="#C4C3C6"/>
<path d="M281.975 176.306L261.958 179.026V161.827L281.975 159.102V176.306Z" fill="#C4C3C6"/>
<path d="M282.564 164.407L262.547 167.132V164.477L282.564 161.751V164.407Z" fill="black"/>
<path d="M282.564 158.086L262.547 160.812V159.289L282.564 156.569V158.086Z" fill="white"/>
<path d="M282.564 154.462V178.331L281.45 178.483V154.614L282.564 154.462Z" fill="black"/>
<path d="M262.547 157.182V181.057L261.375 181.214V157.345L262.547 157.182Z" fill="black"/>
<path d="M282.553 219.75L261.264 222.668V176.324C261.264 172.437 263.51 168.988 266.286 168.609L277.531 167.08C280.302 166.7 282.553 169.543 282.553 173.423V219.75Z" fill="black"/>
<path d="M271.279 169.718L270.905 169.77C266.134 170.418 262.261 175.559 262.261 181.25V216.406L264.519 216.102V181.331C264.519 176.913 267.517 172.927 271.22 172.426H271.343C275.046 171.924 278.044 175.093 278.044 179.505V214.252L279.922 214.001V178.857C279.922 173.167 276.055 169.081 271.279 169.718Z" fill="#C4C3C6"/>
<path d="M271.967 100.146L271.384 100.222C263.889 101.243 257.84 109.297 257.84 118.215V218.594L261.375 218.116V118.32C261.375 111.404 266.07 105.159 271.874 104.372L272.054 104.354C277.852 103.566 282.553 108.533 282.553 115.443V215.239L285.469 214.842V114.45C285.504 105.521 279.444 99.1017 271.967 100.146Z" fill="white"/>
<path d="M232.253 244.652L261.917 240.614V107.214C261.917 100.012 255.28 95.0749 247.085 96.1895C238.89 97.3042 232.253 104.045 232.253 111.246V244.652Z" fill="black"/>
<path d="M247.476 104.938L247.855 104.885C252.626 104.237 256.493 108.328 256.493 114.019V149.14L254.242 149.449V114.672C254.242 110.254 251.244 107.085 247.54 107.587H247.418C243.714 108.095 240.716 112.081 240.716 116.493V151.241L238.838 151.498V116.394C238.838 110.698 242.705 105.556 247.476 104.938Z" fill="#C4C3C6"/>
<path d="M236.785 177.176L256.796 174.451V157.252L236.785 159.971V177.176Z" fill="#C4C3C6"/>
<path d="M236.196 165.434L256.207 162.714V160.059L236.196 162.784V165.434Z" fill="black"/>
<path d="M236.196 159.119L256.207 156.394V154.871L236.196 157.596V159.119Z" fill="white"/>
<path d="M236.196 155.489V179.359L237.31 179.207V155.338L236.196 155.489Z" fill="black"/>
<path d="M256.207 152.764V176.639L257.385 176.476V152.606L256.207 152.764Z" fill="black"/>
<path d="M236.196 220.783L257.485 217.865V171.556C257.485 167.675 255.233 164.833 252.463 165.212L241.218 166.741C238.447 167.121 236.196 170.57 236.196 174.456V220.783Z" fill="black"/>
<path d="M247.476 167.687L247.855 167.634C252.626 166.986 256.493 171.077 256.493 176.767V211.889L254.242 212.198V177.45C254.242 173.032 251.244 169.863 247.54 170.365H247.418C243.714 170.873 240.716 174.859 240.716 179.271V214.019L238.838 214.276V179.172C238.838 173.476 242.705 168.334 247.476 167.687Z" fill="#C4C3C6"/>
<path d="M246.794 98.2905L247.377 98.2088C254.854 97.1933 260.914 103.595 260.914 112.513V212.904L257.38 213.389V113.593C257.38 106.677 252.679 101.71 246.881 102.504H246.689C240.891 103.292 236.19 109.507 236.19 116.452V216.248L233.274 216.645V116.265C233.25 107.366 239.316 99.306 246.794 98.2905Z" fill="white"/>
<path d="M359.647 261.092L158.804 222.358V137.1C158.805 133.757 159.544 130.456 160.968 127.432C162.392 124.408 164.467 121.736 167.043 119.608C169.619 117.48 172.633 115.947 175.87 115.12C179.107 114.293 182.487 114.192 185.768 114.824L337.723 144.127C343.893 145.318 349.456 148.622 353.456 153.471C357.457 158.319 359.646 164.41 359.647 170.698V261.092Z" fill="black"/>
<path d="M349.388 179.843L169.682 147.214V139.043C169.685 137.897 169.922 136.764 170.38 135.713C170.838 134.663 171.506 133.717 172.344 132.935C173.181 132.153 174.17 131.551 175.249 131.166C176.328 130.782 177.474 130.622 178.617 130.698C206.981 132.523 235.229 135.852 263.241 140.672C289.636 145.204 315.767 151.159 341.52 158.512C344.023 159.23 346.211 160.774 347.726 162.893C349.242 165.012 349.996 167.582 349.866 170.184C349.707 173.402 349.547 176.622 349.388 179.843Z" fill="#C4C3C6"/>
<path d="M378.98 349.67C378.978 360.505 370.334 369.341 359.499 369.432C346.238 369.543 327.52 369.564 307.549 369.158C281.451 368.627 253.214 367.367 232.222 364.627C218.681 362.859 204.389 359.592 191.082 355.913C174.016 351.195 158.571 345.799 148.411 342.018C140.861 339.207 136.016 331.95 136.016 323.893V221.851C136.016 213.511 140.753 199.307 159.565 198.577C160.58 198.537 161.6 198.625 162.604 198.779L360.306 229.192C368.472 230.476 379 237.55 379 253.599L378.98 349.67Z" fill="black"/>
<path d="M169.682 246.21H180.798V145.79C180.798 140.374 178.314 135.979 175.24 135.979C172.166 135.979 169.682 140.374 169.682 145.79V246.21Z" fill="black"/>
<path d="M176.214 142.603H176.354C178.139 142.603 179.591 146.076 179.591 150.359V176.791H178.734V150.64C178.734 147.319 177.608 144.628 176.226 144.628H176.179C174.791 144.628 173.665 147.319 173.665 150.64V176.791H172.965V150.359C172.977 146.076 174.423 142.603 176.214 142.603Z" fill="#C4C3C6"/>
<path d="M171.379 195.892H178.88V182.948H171.379V195.892Z" fill="#C4C3C6"/>
<path d="M171.157 186.998H178.658V185.002H171.157V186.998Z" fill="black"/>
<path d="M171.157 182.247H178.658V181.104H171.157V182.247Z" fill="white"/>
<path d="M171.163 179.516V197.479H171.577V179.516H171.163Z" fill="black"/>
<path d="M178.658 179.516V197.479H179.101V179.516H178.658Z" fill="black"/>
<path d="M179.148 228.65H171.169V191.007C171.169 190.34 171.434 189.701 171.905 189.229C172.377 188.757 173.016 188.492 173.683 188.492H176.64C177.306 188.492 177.946 188.757 178.417 189.229C178.889 189.701 179.154 190.34 179.154 191.007V228.65H179.148Z" fill="black"/>
<path d="M176.214 189.852H176.354C178.139 189.852 179.591 193.324 179.591 197.608V224.039H178.734V197.888C178.734 194.567 177.608 191.871 176.226 191.871H176.179C174.791 191.871 173.665 194.567 173.665 197.888V224.039H172.965V197.608C172.977 193.324 174.423 189.852 176.214 189.852Z" fill="#C4C3C6"/>
<path d="M175.129 137.549H175.351C178.156 137.549 180.425 142.994 180.425 149.706V225.259H179.101V150.144C179.101 144.938 177.351 140.724 175.17 140.724H175.094C172.924 140.724 171.163 144.938 171.163 150.144V225.259H170.061V149.706C170.061 142.994 172.318 137.549 175.129 137.549Z" fill="white"/>
<path d="M349.388 274.807H338.271V174.386C338.271 168.971 340.762 164.576 343.83 164.576C346.897 164.576 349.388 168.971 349.388 174.386V274.807Z" fill="black"/>
<path d="M342.861 171.2H342.721C340.931 171.2 339.479 174.702 339.479 178.956V205.387H340.324V179.236C340.324 175.915 341.45 173.225 342.838 173.225H342.885C344.273 173.225 345.393 175.915 345.393 179.236V205.387H346.128V178.956C346.128 174.672 344.646 171.2 342.861 171.2Z" fill="#C4C3C6"/>
<path d="M347.691 211.544H340.19V224.489H347.691V211.544Z" fill="#C4C3C6"/>
<path d="M347.912 213.599H340.412V215.595H347.912V213.599Z" fill="black"/>
<path d="M347.912 209.694H340.412V210.838H347.912V209.694Z" fill="white"/>
<path d="M347.492 208.113V226.076H347.907V208.113H347.492Z" fill="black"/>
<path d="M339.968 208.113V226.076H340.412V208.113H339.968Z" fill="black"/>
<path d="M342.447 217.094H345.404C345.734 217.094 346.061 217.16 346.366 217.286C346.671 217.412 346.948 217.598 347.182 217.831C347.415 218.065 347.6 218.342 347.727 218.647C347.853 218.952 347.918 219.279 347.918 219.61V257.258H339.933V219.616C339.933 219.285 339.997 218.957 340.123 218.651C340.249 218.345 340.434 218.067 340.668 217.833C340.901 217.599 341.178 217.413 341.484 217.287C341.789 217.16 342.117 217.094 342.447 217.094V217.094Z" fill="black"/>
<path d="M342.861 218.448H342.721C340.931 218.448 339.479 221.921 339.479 226.204V252.636H340.324V226.485C340.324 223.164 341.45 220.468 342.838 220.468H342.885C344.273 220.468 345.393 223.164 345.393 226.485V252.636H346.128V226.204C346.128 221.921 344.646 218.448 342.861 218.448Z" fill="#C4C3C6"/>
<path d="M343.94 166.146H343.719C340.919 166.146 338.65 171.591 338.65 178.302V253.855H339.968V178.74C339.968 173.534 341.718 169.321 343.905 169.321H343.975C346.151 169.321 347.912 173.534 347.912 178.74V253.855H349.044V178.302C349.044 171.591 346.74 166.146 343.94 166.146Z" fill="white"/>
<path d="M340.126 269.554H320.027V169.134C320.116 166.526 321.213 164.055 323.088 162.242C324.963 160.429 327.469 159.415 330.076 159.415C332.684 159.415 335.19 160.429 337.065 162.242C338.939 164.055 340.037 166.526 340.126 169.134V269.554Z" fill="black"/>
<path d="M328.321 165.948H328.047C324.816 165.948 322.214 169.449 322.214 173.704V200.135H323.742V173.984C323.742 170.663 325.778 167.973 328.286 167.973H328.368C330.876 167.973 332.911 170.663 332.911 173.984V200.135H334.183V173.704C334.177 169.42 331.546 165.948 328.321 165.948Z" fill="#C4C3C6"/>
<path d="M337.058 206.292H323.497V219.236H337.058V206.292Z" fill="#C4C3C6"/>
<path d="M337.455 208.346H323.894V210.342H337.455V208.346Z" fill="black"/>
<path d="M337.455 204.442H323.894V205.586H337.455V204.442Z" fill="white"/>
<path d="M336.696 202.86V220.824H337.449V202.86H336.696Z" fill="black"/>
<path d="M323.095 202.86V220.824H323.894V202.86H323.095Z" fill="black"/>
<path d="M327.568 211.842H332.911C334.116 211.842 335.272 212.321 336.124 213.174C336.976 214.026 337.455 215.183 337.455 216.388V251.988H323.031V216.406C323.028 215.808 323.144 215.215 323.371 214.662C323.598 214.109 323.932 213.606 324.353 213.182C324.775 212.758 325.276 212.421 325.827 212.191C326.379 211.962 326.971 211.843 327.568 211.842V211.842Z" fill="black"/>
<path d="M328.321 213.196H328.047C324.816 213.196 322.214 216.668 322.214 220.952V247.383H323.742V221.232C323.742 217.911 325.778 215.215 328.286 215.215H328.368C330.876 215.215 332.911 217.911 332.911 221.232V247.383H334.183V220.952C334.177 216.668 331.546 213.196 328.321 213.196Z" fill="#C4C3C6"/>
<path d="M330.275 160.894H329.878C324.81 160.894 320.703 166.339 320.703 173.05V248.603H323.095V173.488C323.095 168.282 326.279 164.068 330.211 164.068H330.339C334.27 164.068 337.455 168.282 337.455 173.488V248.603H339.449V173.05C339.449 166.339 335.343 160.894 330.275 160.894Z" fill="white"/>
<path d="M178.022 246.21H196.546V145.79C196.546 140.374 192.399 135.979 187.284 135.979C182.169 135.979 178.022 140.374 178.022 145.79V246.21Z" fill="black"/>
<path d="M188.9 142.603H189.139C192.119 142.603 194.534 146.076 194.534 150.359V176.791H193.123V150.64C193.123 147.319 191.25 144.628 188.941 144.628H188.865C186.532 144.628 184.677 147.319 184.677 150.64V176.791H183.511V150.359C183.505 146.076 185.919 142.603 188.9 142.603Z" fill="#C4C3C6"/>
<path d="M180.851 195.892H193.35V182.948H180.851V195.892Z" fill="#C4C3C6"/>
<path d="M180.483 186.998H192.983V185.002H180.483V186.998Z" fill="black"/>
<path d="M180.483 182.247H192.983V181.104H180.483V182.247Z" fill="white"/>
<path d="M180.483 179.516V197.479H181.177V179.516H180.483Z" fill="black"/>
<path d="M192.983 179.516V197.479H193.717V179.516H192.983Z" fill="black"/>
<path d="M193.776 228.65H180.483V192.682C180.483 191.571 180.925 190.505 181.71 189.719C182.495 188.934 183.56 188.492 184.671 188.492H189.594C190.704 188.492 191.77 188.934 192.555 189.719C193.34 190.505 193.781 191.571 193.781 192.682V228.65H193.776Z" fill="black"/>
<path d="M188.9 189.852H189.139C192.119 189.852 194.534 193.324 194.534 197.608V224.039H193.123V197.888C193.123 194.567 191.25 191.871 188.941 191.871H188.865C186.532 191.871 184.677 194.567 184.677 197.888V224.039H183.511V197.608C183.505 193.324 185.919 189.852 188.9 189.852Z" fill="#C4C3C6"/>
<path d="M187.097 137.549H187.482C192.148 137.549 195.94 142.994 195.94 149.706V225.259H193.735V150.144C193.735 144.938 190.819 140.724 187.179 140.724H187.057C183.435 140.724 180.501 144.938 180.501 150.144V225.259H178.664V149.706C178.646 142.994 182.431 137.549 187.097 137.549Z" fill="white"/>
<path d="M323.451 264.886H296.866V164.465C296.866 159.049 302.821 154.655 310.158 154.655C317.496 154.655 323.451 159.049 323.451 164.465V264.886Z" fill="black"/>
<path d="M308.916 161.279H308.578C306.523 161.28 304.553 162.098 303.1 163.552C301.648 165.007 300.832 166.979 300.832 169.035V195.466H302.856V169.315C302.855 168.526 303.01 167.744 303.311 167.014C303.612 166.285 304.054 165.621 304.611 165.063C305.169 164.504 305.831 164.061 306.559 163.758C307.288 163.455 308.069 163.299 308.858 163.298H308.968C310.562 163.298 312.09 163.931 313.216 165.059C314.343 166.186 314.976 167.715 314.976 169.309V195.46H316.656V169.035C316.657 168.017 316.457 167.009 316.068 166.068C315.68 165.128 315.11 164.273 314.391 163.553C313.673 162.833 312.819 162.261 311.88 161.871C310.94 161.481 309.933 161.279 308.916 161.279Z" fill="#C4C3C6"/>
<path d="M319.391 201.623H301.456V214.567H319.391V201.623Z" fill="#C4C3C6"/>
<path d="M319.916 203.677H301.981V205.673H319.916V203.677Z" fill="black"/>
<path d="M319.916 199.773H301.981V200.917H319.916V199.773Z" fill="white"/>
<path d="M318.919 198.192V216.155H319.916V198.192H318.919Z" fill="black"/>
<path d="M300.925 198.192V216.155H301.981V198.192H300.925Z" fill="black"/>
<path d="M306.845 207.173H313.909C315.502 207.173 317.03 207.806 318.157 208.934C319.283 210.061 319.916 211.59 319.916 213.184V247.337H300.838V213.178C300.839 211.585 301.473 210.058 302.6 208.932C303.726 207.806 305.253 207.173 306.845 207.173Z" fill="black"/>
<path d="M308.916 208.527H308.578C306.523 208.529 304.553 209.346 303.1 210.801C301.648 212.255 300.832 214.227 300.832 216.283V242.715H302.856V216.563C302.861 214.973 303.495 213.45 304.62 212.326C305.744 211.203 307.268 210.571 308.858 210.57H308.968C310.562 210.571 312.09 211.206 313.217 212.334C314.343 213.462 314.976 214.992 314.976 216.587V242.738H316.656V216.283C316.657 215.265 316.457 214.257 316.068 213.317C315.68 212.376 315.11 211.521 314.391 210.801C313.673 210.081 312.819 209.509 311.88 209.119C310.94 208.729 309.933 208.528 308.916 208.527V208.527Z" fill="#C4C3C6"/>
<path d="M310.421 156.225H309.896C306.676 156.228 303.59 157.51 301.315 159.79C299.04 162.069 297.762 165.16 297.764 168.381V243.934H300.931V168.819C300.93 167.583 301.173 166.358 301.645 165.216C302.117 164.074 302.809 163.035 303.682 162.161C304.556 161.286 305.592 160.592 306.733 160.118C307.874 159.645 309.098 159.4 310.333 159.4H310.514C311.749 159.4 312.973 159.645 314.114 160.118C315.255 160.592 316.292 161.286 317.165 162.161C318.038 163.035 318.73 164.074 319.202 165.216C319.674 166.358 319.917 167.583 319.916 168.819V243.934H322.558V168.381C322.559 166.786 322.246 165.205 321.636 163.731C321.027 162.256 320.133 160.917 319.006 159.788C317.879 158.659 316.54 157.763 315.067 157.152C313.594 156.541 312.015 156.225 310.421 156.225V156.225Z" fill="white"/>
<path d="M192.195 247.378H218.78V146.957C218.78 141.541 212.825 137.147 205.488 137.147C198.15 137.147 192.195 141.541 192.195 146.957V247.378Z" fill="black"/>
<path d="M206.73 143.771H207.068C209.123 143.772 211.093 144.59 212.546 146.044C213.998 147.499 214.814 149.471 214.814 151.527V177.958H212.79V151.807C212.791 151.017 212.636 150.236 212.335 149.506C212.034 148.776 211.592 148.113 211.034 147.555C210.477 146.996 209.815 146.552 209.087 146.25C208.358 145.947 207.577 145.791 206.788 145.79H206.677C205.888 145.79 205.107 145.945 204.378 146.247C203.65 146.55 202.987 146.992 202.429 147.551C201.872 148.109 201.429 148.771 201.127 149.501C200.825 150.23 200.67 151.012 200.67 151.801V177.952H198.99V151.527C198.989 150.509 199.189 149.501 199.577 148.56C199.966 147.62 200.536 146.765 201.255 146.045C201.973 145.325 202.827 144.753 203.766 144.363C204.706 143.973 205.713 143.771 206.73 143.771V143.771Z" fill="#C4C3C6"/>
<path d="M196.255 197.059H214.19V184.115H196.255V197.059Z" fill="#C4C3C6"/>
<path d="M195.724 188.165H213.659V186.169H195.724V188.165Z" fill="black"/>
<path d="M195.724 183.415H213.659V182.271H195.724V183.415Z" fill="white"/>
<path d="M195.724 180.683V198.647H196.721V180.683H195.724Z" fill="black"/>
<path d="M213.659 180.683V198.647H214.715V180.683H213.659Z" fill="black"/>
<path d="M214.802 229.817H195.724V195.67C195.724 194.076 196.357 192.547 197.483 191.42C198.61 190.293 200.138 189.659 201.731 189.659H208.8C210.394 189.659 211.922 190.293 213.048 191.42C214.175 192.547 214.808 194.076 214.808 195.67V229.817H214.802Z" fill="black"/>
<path d="M206.73 191.019H207.068C209.123 191.021 211.093 191.838 212.546 193.293C213.998 194.747 214.814 196.719 214.814 198.775V225.206H212.79V199.055C212.785 197.465 212.151 195.941 211.026 194.818C209.901 193.695 208.377 193.063 206.788 193.062H206.677C205.084 193.063 203.556 193.698 202.429 194.826C201.303 195.954 200.67 197.484 200.67 199.079V225.23H198.99V198.775C198.989 197.757 199.189 196.749 199.577 195.809C199.966 194.868 200.536 194.013 201.255 193.293C201.973 192.573 202.827 192.001 203.766 191.611C204.706 191.221 205.713 191.02 206.73 191.019V191.019Z" fill="#C4C3C6"/>
<path d="M205.225 138.717H205.75C208.97 138.72 212.056 140.002 214.331 142.282C216.606 144.561 217.883 147.652 217.882 150.873V226.426H214.715V151.311C214.715 150.075 214.473 148.85 214.001 147.708C213.529 146.566 212.836 145.527 211.963 144.653C211.09 143.778 210.053 143.084 208.912 142.61C207.771 142.136 206.548 141.892 205.313 141.891H205.132C203.896 141.892 202.673 142.136 201.532 142.61C200.391 143.084 199.354 143.778 198.481 144.653C197.608 145.527 196.916 146.566 196.444 147.708C195.971 148.85 195.729 150.075 195.73 151.311V226.426H193.088V150.873C193.087 149.277 193.4 147.697 194.01 146.223C194.619 144.748 195.513 143.408 196.64 142.28C197.767 141.151 199.105 140.255 200.578 139.644C202.051 139.032 203.63 138.717 205.225 138.717V138.717Z" fill="white"/>
<path d="M301.217 263.135H271.798V159.02C271.798 153.394 278.383 148.842 286.507 148.842C294.632 148.842 301.217 153.377 301.217 159.02V263.135Z" fill="black"/>
<path d="M286.122 155.711H285.749C281.013 155.711 277.175 159.312 277.175 163.753V191.183H279.415V164.022C279.415 160.578 282.39 157.789 286.058 157.789H286.181C289.849 157.789 292.83 160.578 292.83 164.022V191.142H294.69V163.712C294.69 159.289 290.853 155.711 286.122 155.711Z" fill="#C4C3C6"/>
<path d="M296.726 197.526H276.878V210.949H296.726V197.526Z" fill="#C4C3C6"/>
<path d="M297.309 199.656H277.461V201.728H297.309V199.656Z" fill="black"/>
<path d="M297.309 195.612H277.461V196.797H297.309V195.612Z" fill="white"/>
<path d="M296.207 193.972V212.601H297.309V193.972H296.207Z" fill="black"/>
<path d="M276.295 193.966V212.595H277.461V193.966H276.295Z" fill="black"/>
<path d="M282.203 203.281H291.302C292.895 203.281 294.423 203.914 295.55 205.041C296.676 206.168 297.309 207.697 297.309 209.292V244.926H276.195V209.292C276.195 207.697 276.828 206.168 277.955 205.041C279.081 203.914 280.61 203.281 282.203 203.281V203.281Z" fill="black"/>
<path d="M286.122 204.687H285.749C281.013 204.687 277.175 208.288 277.175 212.729V240.158H279.415V213.021C279.415 209.578 282.39 206.782 286.058 206.782H286.181C289.849 206.782 292.83 209.578 292.83 213.021V240.141H294.69V212.712C294.69 208.288 290.853 204.687 286.122 204.687Z" fill="#C4C3C6"/>
<path d="M286.799 150.459H286.216C278.802 150.459 272.801 156.102 272.801 163.065V241.407H276.3V163.508C276.3 158.11 280.966 153.739 286.711 153.739H286.904C292.655 153.739 297.315 158.11 297.315 163.508V241.407H300.231V163.053C300.231 156.091 294.218 150.459 286.799 150.459Z" fill="white"/>
<path d="M214.365 254.381H243.79V150.266C243.79 144.64 237.205 140.088 229.08 140.088C220.955 140.088 214.365 144.64 214.365 150.266V254.381Z" fill="black"/>
<path d="M229.477 146.957H229.85C234.586 146.957 238.424 150.558 238.424 154.999V182.428H236.184V155.268C236.184 151.824 233.21 149.035 229.541 149.035H229.418C225.744 149.035 222.769 151.824 222.769 155.268V182.388H220.909V154.958C220.897 150.535 224.735 146.957 229.477 146.957Z" fill="#C4C3C6"/>
<path d="M218.862 202.201H238.71V188.778H218.862V202.201Z" fill="#C4C3C6"/>
<path d="M218.278 192.98H238.126V190.908H218.278V192.98Z" fill="black"/>
<path d="M218.278 188.043H238.126V186.858H218.278V188.043Z" fill="white"/>
<path d="M218.278 185.218V203.847H219.381V185.218H218.278Z" fill="black"/>
<path d="M238.126 185.212V203.841H239.293V185.212H238.126Z" fill="black"/>
<path d="M239.392 236.172H218.278V200.538C218.278 198.943 218.911 197.414 220.038 196.287C221.164 195.16 222.693 194.527 224.286 194.527H233.385C234.978 194.527 236.506 195.16 237.633 196.287C238.759 197.414 239.392 198.943 239.392 200.538V236.172Z" fill="black"/>
<path d="M229.477 195.933H229.85C234.586 195.933 238.424 199.534 238.424 203.975V231.404H236.184V204.267C236.184 200.824 233.21 198.028 229.541 198.028H229.418C225.744 198.028 222.769 200.824 222.769 204.267V231.387H220.909V203.958C220.897 199.534 224.735 195.933 229.477 195.933Z" fill="#C4C3C6"/>
<path d="M228.789 141.705H229.372C236.785 141.705 242.787 147.348 242.787 154.31V232.653H239.287V154.754C239.287 149.356 234.621 144.984 228.876 144.984H228.684C222.933 144.984 218.272 149.356 218.272 154.754V232.653H215.356V154.299C215.356 147.336 221.37 141.705 228.789 141.705Z" fill="white"/>
<path d="M250.036 143.169H264.682C266.317 143.169 267.937 143.492 269.447 144.118C270.958 144.744 272.331 145.662 273.487 146.819C274.644 147.976 275.561 149.349 276.187 150.861C276.812 152.373 277.134 153.993 277.134 155.629V247.051H237.584V155.629C237.584 153.993 237.906 152.373 238.532 150.861C239.158 149.349 240.075 147.976 241.231 146.819C242.388 145.662 243.76 144.744 245.271 144.118C246.782 143.492 248.401 143.169 250.036 143.169Z" fill="black"/>
<path d="M257.753 144.337H256.966C246.998 144.337 238.92 150.342 238.92 157.76V241.215H243.627V158.244C243.627 152.495 249.891 147.838 257.625 147.838H257.887C265.621 147.838 271.885 152.507 271.885 158.244V241.215H275.81V157.76C275.805 150.342 267.721 144.337 257.753 144.337Z" fill="white"/>
<path d="M257.076 149.916H256.575C250.211 149.916 245.055 153.75 245.055 158.483V187.663H248.059V158.775C248.059 155.104 252.06 152.134 256.995 152.134H257.158C262.092 152.134 266.093 155.104 266.093 158.775V187.663H268.596V158.483C268.596 153.75 263.44 149.916 257.076 149.916Z" fill="#C4C3C6"/>
<path d="M271.092 191.9H244.408V206.199H271.092V191.9Z" fill="#C4C3C6"/>
<path d="M271.879 194.171H245.196V196.377H271.879V194.171Z" fill="black"/>
<path d="M271.879 189.858H245.196V191.124H271.879V189.858Z" fill="white"/>
<path d="M270.398 188.107V207.949H271.879V188.107H270.398Z" fill="black"/>
<path d="M243.626 188.107V207.949H245.195V188.107H243.626Z" fill="black"/>
<path d="M252.434 198.028H262.932C265.302 198.028 267.575 198.97 269.251 200.647C270.926 202.324 271.868 204.598 271.868 206.969V242.382H243.475V206.969C243.475 205.793 243.707 204.628 244.157 203.542C244.608 202.456 245.268 201.469 246.1 200.639C246.933 199.808 247.92 199.15 249.007 198.702C250.094 198.254 251.258 198.025 252.434 198.028V198.028Z" fill="black"/>
<path d="M258.004 199.522H257.502C251.139 199.522 245.983 203.356 245.983 208.089V237.269H248.987V208.381C248.987 204.71 252.988 201.74 257.922 201.74H258.085C263.02 201.74 267.021 204.71 267.021 208.381V237.269H269.523V208.089C269.523 203.356 264.367 199.522 258.004 199.522Z" fill="#C4C3C6"/>
<path d="M253.204 135.799C251.213 135.456 249.296 135.038 247.453 134.544C247.418 134.445 247.383 134.346 247.342 134.252C245.405 134.299 243.411 134.252 241.369 134.112C239.9 134.112 238.453 134.141 237.007 134.176L236.896 134.526C243.65 136.353 246.414 140.041 246.414 140.041C249.741 138.119 253.533 137.149 257.374 137.24V136.878C256.015 136.505 254.615 136.149 253.204 135.799Z" fill="black"/>
<path d="M281.97 140.683C280.144 140.339 278.388 139.925 276.72 139.429C276.691 139.329 276.656 139.23 276.621 139.137C274.796 139.182 272.97 139.136 271.15 138.997C269.803 138.997 268.461 138.997 267.149 139.061L267.05 139.411C273.232 141.238 275.77 144.926 275.77 144.926C278.765 143.018 282.258 142.042 285.807 142.119V141.763C284.553 141.389 283.27 141.028 281.97 140.683Z" fill="black"/>
<path d="M305.242 146.56C303.855 146.143 302.492 145.65 301.159 145.084C301.159 144.996 301.124 144.909 301.1 144.821C299.651 144.729 298.208 144.554 296.779 144.296C295.711 144.202 294.644 144.121 293.606 144.062L293.501 144.36C298.26 146.397 299.986 149.799 299.986 149.799C302.455 148.37 305.318 147.773 308.152 148.095V147.786C307.225 147.366 306.239 146.957 305.242 146.56Z" fill="black"/>
<path d="M219.783 131.783C221.364 131.783 222.927 131.783 224.484 131.643L224.723 131.427C226.118 131.764 227.529 132.023 228.952 132.204C229.967 132.431 230.976 132.659 231.944 132.904L231.821 133.202C228.402 133.462 225.084 134.479 222.104 136.178C220.981 134.213 218.972 132.923 216.079 132.309L216.284 132.023C217.438 131.906 218.611 131.83 219.783 131.783Z" fill="black"/>
<path d="M323.964 151.124C322.864 150.772 321.787 150.353 320.739 149.869C320.739 149.782 320.692 149.694 320.663 149.612C319.563 149.594 318.465 149.496 317.379 149.321C316.574 149.286 315.769 149.262 314.988 149.256L314.947 149.56C317.257 150.659 319.185 152.425 320.482 154.631C321.247 153.882 322.163 153.304 323.168 152.935C324.174 152.567 325.247 152.417 326.314 152.495V152.18C325.545 151.818 324.757 151.468 323.964 151.124Z" fill="black"/>
<path d="M204.875 130.196C203.691 129.954 202.523 129.642 201.376 129.262L201.236 129.017C200.133 129.096 199.026 129.096 197.923 129.017C197.118 129.064 196.319 129.116 195.543 129.186L195.578 129.484C198.16 130.377 200.468 131.92 202.28 133.966C202.882 133.138 203.672 132.464 204.584 132C205.496 131.535 206.505 131.293 207.529 131.293L207.43 130.984C206.602 130.727 205.738 130.459 204.875 130.196Z" fill="black"/>
<path d="M189.366 128.568C188.183 128.325 187.014 128.013 185.867 127.634C185.826 127.552 185.779 127.471 185.733 127.389C184.631 127.477 183.524 127.489 182.42 127.424C181.609 127.465 180.81 127.517 180.04 127.587L180.075 127.885C182.657 128.778 184.965 130.321 186.777 132.367C187.379 131.539 188.169 130.866 189.081 130.401C189.994 129.937 191.003 129.694 192.026 129.694L191.933 129.385C191.099 129.105 190.235 128.83 189.366 128.568Z" fill="black"/>
<path d="M338.609 154.923C337.51 154.572 336.432 154.152 335.384 153.669C335.384 153.581 335.332 153.493 335.308 153.412C334.208 153.393 333.111 153.295 332.024 153.12C331.214 153.085 330.415 153.062 329.633 153.056L329.592 153.359C331.902 154.458 333.83 156.225 335.127 158.431C335.892 157.681 336.808 157.103 337.814 156.735C338.82 156.366 339.892 156.216 340.96 156.295V155.98C340.19 155.618 339.403 155.268 338.609 154.923Z" fill="black"/>
<path d="M344.244 157.369C344.281 156.611 344.063 155.863 343.624 155.245C343.184 154.627 342.55 154.174 341.823 153.96C316.063 146.346 289.878 140.248 263.405 135.699C235.513 130.907 207.373 127.695 179.119 126.082C178.769 126.062 178.42 126.113 178.091 126.234C177.762 126.354 177.461 126.54 177.207 126.78C176.953 127.02 176.75 127.31 176.611 127.632C176.472 127.953 176.401 128.299 176.401 128.65V128.65C205.567 130.206 234.618 133.466 263.405 138.413C290.708 143.099 317.703 149.429 344.244 157.369V157.369Z" fill="white"/>
<path d="M242.752 134.83C244.13 135.627 245.361 136.656 246.391 137.87C247.958 136.942 249.649 136.24 251.413 135.787C248.549 135.384 245.65 135.098 242.752 134.83Z" fill="white"/>
<path d="M278.505 140.707C276.324 140.123 274.142 139.767 271.943 139.417C273.414 140.281 274.71 141.413 275.764 142.755C276.893 142.029 278.105 141.441 279.374 141.004L278.505 140.707Z" fill="white"/>
<path d="M297.718 144.874C298.622 145.66 299.391 146.591 299.992 147.628C301.648 146.66 303.5 146.076 305.411 145.918C302.873 145.463 300.331 145.13 297.718 144.874Z" fill="white"/>
<path d="M220.051 131.783C220.89 132.366 221.59 133.125 222.104 134.007C222.968 133.483 223.873 133.032 224.811 132.659C223.236 132.367 221.644 132.052 220.051 131.783Z" fill="white"/>
<path d="M317.367 148.889C318.621 149.872 319.678 151.084 320.482 152.46C321.333 151.631 322.368 151.015 323.503 150.663C321.477 150.068 319.432 149.476 317.367 148.889Z" fill="white"/>
<path d="M200.361 129.992C201.059 130.541 201.703 131.154 202.285 131.824C202.756 131.164 203.35 130.601 204.035 130.167C202.822 130.114 201.591 130.062 200.361 129.992Z" fill="white"/>
<path d="M183.114 127.115C184.485 127.94 185.72 128.971 186.777 130.173C187.321 129.42 188.024 128.796 188.836 128.346C186.899 127.973 185.021 127.541 183.114 127.115Z" fill="white"/>
<path d="M332.357 152.98C333.462 153.906 334.399 155.015 335.127 156.26C336.111 155.297 337.34 154.623 338.679 154.31C336.58 153.844 334.462 153.429 332.357 152.98Z" fill="white"/>
<path d="M351.989 237.713C351.896 227.319 352.263 222.102 352.123 208.469C352.065 203.403 345.9 200.934 342.459 204.629C330.969 216.954 315.472 210.406 300.354 211.498C299.38 211.568 298.021 214.1 297.053 214.141C295.497 214.2 293.926 214.221 292.34 214.206C290.287 214.206 290.007 211.241 287.872 211.136C284.956 210.996 279.17 211.037 276.172 210.762C274.078 210.57 271.279 212.443 269.144 212.175C267.126 211.918 264.974 209.461 262.915 209.157C261.515 208.953 259.648 210.751 258.249 210.523C253.968 209.823 248.672 206.21 244.221 206.438C241.719 206.549 240.366 208.772 237.771 208.48C235.77 208.276 233.577 206.473 231.541 206.093C227.202 205.288 226.216 208.113 221.766 207.558C219.964 207.337 217.304 209.846 215.519 209.589C211.314 208.971 204.134 205.959 200.711 205.504C199.078 205.282 197.211 208.148 195.817 207.908C191.489 207.144 188.486 206.257 187.447 205.16C184.24 201.757 183.901 206.91 178.856 206.607C177.106 206.496 176.395 204.529 174.19 204.191C173.887 204.138 172.201 205.761 171.898 205.714C170.481 205.486 169.04 205.247 167.646 205.031C166.84 204.908 166.016 204.961 165.232 205.188C164.448 205.415 163.723 205.809 163.107 206.345C162.491 206.88 161.999 207.543 161.665 208.288C161.331 209.032 161.162 209.841 161.172 210.657V210.821C161.177 212.253 161.728 213.629 162.712 214.669C163.696 215.709 165.039 216.334 166.468 216.417C198.461 218.109 230.336 221.572 261.947 226.788C295.256 232.239 321.917 236.937 344.938 243.246C345.777 243.468 346.657 243.492 347.507 243.317C348.358 243.141 349.156 242.771 349.839 242.235C350.523 241.699 351.072 241.011 351.445 240.227C351.818 239.442 352.005 238.582 351.989 237.713V237.713Z" fill="black"/>
<path d="M331.167 146.373C331.249 145.79 330.543 102.154 330.625 101.576C323.486 112.846 309.015 126.759 295.151 126.951C294.457 126.951 293.104 128.404 292.398 128.399C291.296 128.399 290.176 128.34 289.044 128.276C287.581 128.194 287.767 126.455 286.268 126.321C284.203 126.14 280.068 125.971 277.933 125.737C276.44 125.556 274.434 126.578 272.935 126.321C271.436 126.064 269.955 124.57 268.491 124.313C267.487 124.144 266.158 125.16 265.154 124.973C262.104 124.389 258.319 122.055 255.157 122.055C253.373 122.055 252.008 123.28 250.159 123.035C248.73 122.848 247.167 121.705 245.715 121.407C242.623 120.783 239.439 118.617 236.272 118.139C234.983 117.946 233.099 119.353 231.827 119.137C228.829 118.629 223.708 116.598 221.27 116.219C220.104 116.038 218.78 117.684 217.771 117.491C214.685 116.907 212.522 116.265 211.804 115.577C209.506 113.447 209.284 116.516 205.692 116.16C204.455 116.032 203.942 114.841 202.361 114.561C202.145 114.526 200.95 115.437 200.734 115.396C197.987 114.9 195.106 114.345 193.088 114.164C193.041 114.748 193.175 120.66 193.134 121.249C213.548 123.053 237.998 126.006 264.915 130.937C291.133 135.729 313.302 141.244 331.167 146.373Z" fill="black"/>
<path d="M330.275 160.894H329.878C324.81 160.894 320.703 166.339 320.703 173.05V228.761C322.022 228.761 323.095 227.961 323.095 227.01V173.488C323.095 168.282 326.279 164.068 330.211 164.068H330.339C334.27 164.068 337.455 168.282 337.455 173.488V223.777C337.455 224.594 338.347 225.259 339.449 225.259V173.05C339.449 166.339 335.343 160.894 330.275 160.894Z" fill="white"/>
<path d="M366.862 315.072L148.008 231.579V218.495C148.008 214.229 153.887 210.908 160.624 211.363C194.92 213.628 229.075 217.681 262.95 223.508C296.149 229.211 329.007 236.747 361.374 246.082C366.559 247.582 369.819 250.891 369.639 254.486C369.359 260.201 367.146 309.352 366.862 315.072Z" fill="#C4C3C6"/>
<path d="M155.555 342.382H168.183V228.381C168.183 222.224 165.354 217.234 161.872 217.234C158.39 217.234 155.555 222.224 155.555 228.381V342.382Z" fill="black"/>
<path d="M162.986 224.734H163.143C165.173 224.734 166.818 228.679 166.818 233.54V263.555H165.861V233.861C165.861 230.091 164.584 227.033 163.009 227.033H162.957C161.382 227.033 160.105 230.091 160.105 233.861V263.555H159.305V233.54C159.294 228.661 160.939 224.734 162.986 224.734Z" fill="#C4C3C6"/>
<path d="M157.486 285.242H166.001V270.541H157.486V285.242Z" fill="#C4C3C6"/>
<path d="M157.235 275.145H165.75V272.881H157.235V275.145Z" fill="black"/>
<path d="M157.235 269.741H165.75V268.44H157.235V269.741Z" fill="white"/>
<path d="M157.241 266.648V287.045H157.713V266.648H157.241Z" fill="black"/>
<path d="M165.75 266.648V287.045H166.252V266.648H165.75Z" fill="black"/>
<path d="M166.293 322.44H157.235V279.353C157.235 278.686 157.5 278.046 157.971 277.574C158.443 277.103 159.082 276.838 159.749 276.838H163.785C164.451 276.838 165.091 277.103 165.562 277.574C166.034 278.046 166.299 278.686 166.299 279.353V322.44H166.293Z" fill="black"/>
<path d="M162.986 278.378H163.143C165.173 278.378 166.818 282.324 166.818 287.191V317.205H165.861V287.506C165.861 283.736 164.584 280.678 163.009 280.678H162.957C161.382 280.678 160.105 283.736 160.105 287.506V317.205H159.305V287.191C159.294 282.353 160.939 278.378 162.986 278.378Z" fill="#C4C3C6"/>
<path d="M161.743 218.997H161.994C165.173 218.997 167.757 225.177 167.757 232.793V318.583H166.252V233.295C166.252 227.389 164.251 222.598 161.784 222.598H161.703C159.235 222.598 157.235 227.389 157.235 233.295V318.589H155.987V232.799C155.987 225.16 158.565 218.997 161.743 218.997Z" fill="white"/>
<path d="M367.895 367.693H358.656V268.44C358.656 263.082 360.726 258.74 363.275 258.74C365.824 258.74 367.895 263.082 367.895 268.44V367.693Z" fill="black"/>
<path d="M362.459 265.265H362.342C360.855 265.265 359.647 268.697 359.647 272.934V306.547H360.353V273.214C360.353 269.928 361.286 267.267 362.441 267.267H362.476C363.643 267.267 364.564 269.928 364.564 273.214V306.547H365.148V272.934C365.159 268.697 363.958 265.265 362.459 265.265Z" fill="#C4C3C6"/>
<path d="M366.489 311.568H360.254V324.366H366.489V311.568Z" fill="#C4C3C6"/>
<path d="M366.67 313.599H360.435V315.571H366.67V313.599Z" fill="black"/>
<path d="M366.67 309.741H360.435V310.874H366.67V309.741Z" fill="white"/>
<path d="M366.32 308.177V325.936H366.664V308.177H366.32Z" fill="black"/>
<path d="M360.073 308.177V325.936H360.441V308.177H360.073Z" fill="black"/>
<path d="M362.552 317.054H364.162C364.828 317.054 365.468 317.319 365.939 317.791C366.411 318.262 366.676 318.902 366.676 319.569V356.756H360.038V319.569C360.038 318.902 360.303 318.262 360.774 317.791C361.246 317.319 361.885 317.054 362.552 317.054V317.054Z" fill="black"/>
<path d="M362.459 318.39H362.342C360.855 318.39 359.647 321.822 359.647 326.059V352.193H360.353V326.339C360.353 323.053 361.286 320.392 362.441 320.392H362.476C363.643 320.392 364.564 323.053 364.564 326.339V352.193H365.148V326.059C365.159 321.822 363.958 318.39 362.459 318.39Z" fill="#C4C3C6"/>
<path d="M363.369 260.269H363.188C360.855 260.269 358.971 265.65 358.971 272.286V346.987H360.067V272.718C360.067 267.576 361.531 263.38 363.34 263.38H363.398C365.206 263.38 366.67 267.553 366.67 272.718V346.981H367.586V272.28C367.586 265.65 365.696 260.269 363.369 260.269Z" fill="white"/>
<path d="M146.935 325.674H156.173V226.42C156.173 221.063 154.109 216.721 151.554 216.721C148.999 216.721 146.935 221.063 146.935 226.42V325.674Z" fill="black"/>
<path d="M152.365 223.246H152.481C153.963 223.246 155.17 226.677 155.17 230.914V264.528H154.47V231.194C154.47 227.909 153.531 225.247 152.382 225.247H152.341C151.175 225.247 150.253 227.909 150.253 231.194V264.528H149.67V230.914C149.67 226.677 150.877 223.246 152.365 223.246Z" fill="#C4C3C6"/>
<path d="M148.346 282.347H154.581V269.549H148.346V282.347Z" fill="#C4C3C6"/>
<path d="M148.159 273.558H154.394V271.585H148.159V273.558Z" fill="black"/>
<path d="M148.159 268.854H154.394V267.722H148.159V268.854Z" fill="white"/>
<path d="M148.159 266.152V283.911H148.504V266.152H148.159Z" fill="black"/>
<path d="M154.4 266.158V283.917H154.768V266.158H154.4Z" fill="black"/>
<path d="M154.791 314.731H148.136V277.544C148.136 276.877 148.401 276.237 148.872 275.765C149.344 275.294 149.983 275.029 150.65 275.029H152.26C152.926 275.029 153.566 275.294 154.037 275.765C154.509 276.237 154.774 276.877 154.774 277.544V314.731H154.791Z" fill="black"/>
<path d="M152.365 276.371H152.481C153.963 276.371 155.17 279.802 155.17 284.039V310.173H154.47V284.32C154.47 281.034 153.531 278.373 152.382 278.373H152.341C151.175 278.373 150.253 281.034 150.253 284.32V310.173H149.67V284.039C149.67 279.802 150.877 276.371 152.365 276.371Z" fill="#C4C3C6"/>
<path d="M152.09 218.25H152.271C154.604 218.25 156.488 223.631 156.488 230.266V309.331H155.385V230.698C155.385 225.557 153.921 221.361 152.119 221.361H152.055C150.253 221.361 148.789 225.533 148.789 230.698V309.325H147.861V230.261C147.861 223.631 149.757 218.25 152.09 218.25Z" fill="white"/>
<path d="M359.612 360.106H346.991V263.613C346.991 257.456 349.82 252.467 353.302 252.467C356.784 252.467 359.612 257.456 359.612 263.613V360.106Z" fill="black"/>
<path d="M352.199 259.966H352.042C350.012 259.966 348.362 263.905 348.362 268.772V298.787H349.324V269.093C349.324 265.317 350.601 262.259 352.176 262.259H352.229C353.803 262.259 355.081 265.317 355.081 269.093V300.657H355.88V268.772C355.88 263.905 354.229 259.966 352.199 259.966Z" fill="#C4C3C6"/>
<path d="M357.688 305.779H349.172V320.48H357.688V305.779Z" fill="#C4C3C6"/>
<path d="M357.938 308.107H349.423V310.372H357.938V308.107Z" fill="black"/>
<path d="M357.938 303.678H349.423V304.979H357.938V303.678Z" fill="white"/>
<path d="M357.466 301.88V322.277H357.939V301.88H357.466Z" fill="black"/>
<path d="M348.921 301.88V322.277H349.423V301.88H348.921Z" fill="black"/>
<path d="M351.377 312.076H355.413C356.08 312.076 356.719 312.341 357.19 312.812C357.662 313.284 357.927 313.924 357.927 314.591V357.678H348.88V314.591C348.88 313.924 349.145 313.284 349.617 312.812C350.088 312.341 350.728 312.076 351.394 312.076H351.377Z" fill="black"/>
<path d="M352.199 313.61H352.042C350.012 313.61 348.362 317.556 348.362 322.423V352.432H349.324V322.738C349.324 318.968 350.601 315.91 352.176 315.91H352.229C353.803 315.91 355.081 318.968 355.081 322.738V352.432H355.88V322.423C355.88 317.556 354.229 313.61 352.199 313.61Z" fill="#C4C3C6"/>
<path d="M353.43 254.229H353.179C349.994 254.229 347.417 260.404 347.417 268.025V353.815H348.921V268.527C348.921 262.615 350.922 257.83 353.389 257.83H353.471C355.938 257.83 357.938 262.615 357.938 268.527V353.821H359.187V268.031C359.187 260.404 356.626 254.229 353.43 254.229Z" fill="white"/>
<path d="M349.72 354.962H326.297V257.223C326.364 254.239 327.596 251.401 329.729 249.314C331.862 247.228 334.726 246.06 337.708 246.06C340.691 246.06 343.555 247.228 345.688 249.314C347.82 251.401 349.676 254.239 349.743 257.223L349.72 354.962Z" fill="black"/>
<path d="M335.693 253.575H335.402C331.727 253.575 328.752 257.521 328.752 262.382V292.397H330.502V262.703C330.502 258.933 332.835 255.875 335.658 255.875H335.757C338.604 255.875 340.913 258.933 340.913 262.703V294.267H342.354V262.382C342.336 257.521 339.362 253.575 335.693 253.575Z" fill="#C4C3C6"/>
<path d="M345.608 299.388H330.211V314.089H345.608V299.388Z" fill="#C4C3C6"/>
<path d="M346.063 301.723H330.666V303.987H346.063V301.723Z" fill="black"/>
<path d="M346.063 297.287H330.666V298.589H346.063V297.287Z" fill="white"/>
<path d="M345.206 295.49V315.887H346.063V295.49H345.206Z" fill="black"/>
<path d="M329.762 295.49V315.887H330.666V295.49H329.762Z" fill="black"/>
<path d="M334.223 305.697H341.52C342.725 305.697 343.881 306.176 344.733 307.028C345.585 307.881 346.063 309.037 346.063 310.243V351.3H329.686V310.231C329.689 309.029 330.168 307.876 331.018 307.026C331.869 306.176 333.021 305.698 334.223 305.697V305.697Z" fill="black"/>
<path d="M335.693 307.22H335.402C331.727 307.22 328.752 311.165 328.752 316.032V346.047H330.502V316.348C330.502 312.578 332.835 309.519 335.658 309.519H335.757C338.604 309.519 340.913 312.578 340.913 316.348V346.047H342.354V316.032C342.336 311.165 339.362 307.22 335.693 307.22Z" fill="#C4C3C6"/>
<path d="M337.909 247.839H337.455C331.704 247.839 327.043 254.019 327.043 261.635V347.425H329.761V262.137C329.761 256.231 333.372 251.439 337.834 251.439H337.962C342.424 251.439 346.04 256.231 346.04 262.137V347.43H348.303V261.641C348.326 254.019 343.66 247.839 337.909 247.839Z" fill="white"/>
<path d="M165.027 343.549H186.059V229.548C186.059 223.391 181.353 218.402 175.561 218.402C169.769 218.402 165.062 223.391 165.062 229.548L165.027 343.549Z" fill="black"/>
<path d="M177.38 225.901H177.649C181.032 225.901 183.773 229.846 183.773 234.708V264.722H182.175V235.029C182.175 231.258 180.046 228.2 177.427 228.2H177.334C174.709 228.2 172.586 231.258 172.586 235.029V264.722H171.25V234.708C171.25 229.829 173.998 225.901 177.38 225.901Z" fill="#C4C3C6"/>
<path d="M168.235 286.409H182.426V271.708H168.235V286.409Z" fill="#C4C3C6"/>
<path d="M167.821 276.312H182.012V274.048H167.821V276.312Z" fill="black"/>
<path d="M167.821 270.908H182.012V269.607H167.821V270.908Z" fill="white"/>
<path d="M167.821 267.815V288.212H168.608V267.815H167.821Z" fill="black"/>
<path d="M182.017 267.815V288.212H182.851V267.815H182.017Z" fill="black"/>
<path d="M182.916 323.608H167.821V282.172C167.821 281.061 168.262 279.995 169.047 279.209C169.833 278.423 170.898 277.982 172.009 277.982H178.728C179.838 277.982 180.904 278.423 181.689 279.209C182.474 279.995 182.916 281.061 182.916 282.172V323.608Z" fill="black"/>
<path d="M177.38 279.546H177.649C181.032 279.546 183.773 283.491 183.773 288.358V318.373H182.175V288.673C182.175 284.903 180.046 281.845 177.427 281.845H177.334C174.709 281.845 172.586 284.903 172.586 288.673V318.373H171.25V288.358C171.25 283.52 173.998 279.546 177.38 279.546Z" fill="#C4C3C6"/>
<path d="M175.333 220.164H175.753C181.055 220.164 185.354 226.345 185.354 233.961V319.75H182.846V234.462C182.846 228.556 179.515 223.765 175.403 223.765H175.263C171.151 223.765 167.821 228.556 167.821 234.462V319.756H165.733V233.966C165.733 226.327 170.031 220.164 175.333 220.164Z" fill="white"/>
<path d="M330.164 365.919H299.975V251.918C299.975 245.767 306.735 240.777 315.069 240.777C323.404 240.777 330.164 245.767 330.164 251.918V365.919Z" fill="black"/>
<path d="M313.658 248.271H313.273C312.117 248.271 310.973 248.5 309.905 248.943C308.838 249.386 307.868 250.036 307.051 250.854C306.234 251.672 305.587 252.644 305.145 253.712C304.704 254.781 304.477 255.926 304.477 257.083V287.098H306.775V257.398C306.775 256.502 306.95 255.614 307.293 254.785C307.635 253.957 308.137 253.204 308.77 252.57C309.404 251.936 310.155 251.433 310.983 251.09C311.811 250.747 312.698 250.57 313.594 250.57H313.722C314.617 250.571 315.504 250.748 316.331 251.091C317.158 251.435 317.909 251.938 318.542 252.572C319.174 253.206 319.676 253.959 320.018 254.787C320.36 255.615 320.535 256.502 320.534 257.398V287.098H322.447V257.083C322.449 254.748 321.524 252.509 319.876 250.856C318.228 249.204 315.991 248.274 313.658 248.271Z" fill="#C4C3C6"/>
<path d="M325.556 294.083H305.189V308.784H325.556V294.083Z" fill="#C4C3C6"/>
<path d="M326.151 296.418H305.784V298.682H326.151V296.418Z" fill="black"/>
<path d="M326.151 291.982H305.784V293.284H326.151V291.982Z" fill="white"/>
<path d="M325.02 290.191V310.588H326.151V290.191H325.02Z" fill="black"/>
<path d="M304.588 290.185V310.582H305.784V290.185H304.588Z" fill="black"/>
<path d="M310.497 300.386H320.149C321.743 300.386 323.271 301.02 324.397 302.147C325.524 303.274 326.157 304.803 326.157 306.397V345.966H304.489V306.391C304.489 304.797 305.122 303.268 306.249 302.141C307.375 301.014 308.903 300.38 310.497 300.38V300.386Z" fill="black"/>
<path d="M313.658 301.921H313.273C310.94 301.922 308.703 302.851 307.053 304.502C305.404 306.154 304.477 308.393 304.477 310.727V340.742H306.775V311.048C306.775 310.152 306.95 309.264 307.293 308.436C307.635 307.607 308.137 306.855 308.77 306.221C309.404 305.586 310.155 305.083 310.983 304.74C311.811 304.397 312.698 304.22 313.594 304.22H313.722C314.617 304.221 315.504 304.398 316.331 304.742C317.158 305.085 317.909 305.589 318.542 306.223C319.174 306.857 319.676 307.609 320.018 308.437C320.36 309.265 320.535 310.153 320.534 311.048V340.742H322.447V310.727C322.448 309.572 322.221 308.427 321.78 307.359C321.339 306.291 320.692 305.32 319.875 304.503C319.059 303.685 318.09 303.036 317.023 302.593C315.956 302.15 314.813 301.922 313.658 301.921V301.921Z" fill="#C4C3C6"/>
<path d="M315.367 242.539H314.784C312.973 242.539 311.181 242.896 309.509 243.59C307.837 244.283 306.317 245.3 305.038 246.581C303.759 247.862 302.744 249.383 302.052 251.057C301.361 252.731 301.006 254.525 301.007 256.336V342.125H304.6V256.838C304.598 254.002 305.722 251.281 307.725 249.274C309.728 247.267 312.445 246.138 315.279 246.134H315.478C316.882 246.135 318.272 246.413 319.568 246.951C320.865 247.489 322.043 248.278 323.036 249.272C324.028 250.266 324.815 251.445 325.351 252.744C325.888 254.042 326.164 255.433 326.163 256.838V342.131H329.155V256.342C329.157 254.529 328.802 252.734 328.11 251.058C327.418 249.383 326.403 247.861 325.122 246.579C323.841 245.297 322.32 244.28 320.646 243.587C318.973 242.894 317.178 242.538 315.367 242.539V242.539Z" fill="white"/>
<path d="M181.119 346.041H211.303V232.04C211.303 225.883 204.548 220.894 196.214 220.894C187.879 220.894 181.119 225.883 181.119 232.04V346.041Z" fill="black"/>
<path d="M196.379 228.393H196.764C197.919 228.394 199.062 228.622 200.129 229.065C201.196 229.508 202.165 230.157 202.981 230.975C203.797 231.793 204.445 232.763 204.886 233.831C205.327 234.899 205.554 236.044 205.553 237.2V267.214H203.261V237.52C203.262 236.624 203.086 235.736 202.744 234.908C202.401 234.08 201.899 233.327 201.266 232.693C200.633 232.058 199.881 231.555 199.053 231.212C198.226 230.869 197.339 230.692 196.443 230.692H196.314C194.506 230.694 192.771 231.414 191.493 232.694C190.214 233.975 189.496 235.711 189.496 237.52V267.214H187.583V237.2C187.583 234.865 188.51 232.626 190.159 230.974C191.808 229.323 194.045 228.394 196.379 228.393V228.393Z" fill="#C4C3C6"/>
<path d="M185.727 288.901H206.094V274.2H185.727V288.901Z" fill="#C4C3C6"/>
<path d="M185.126 278.804H205.493V276.54H185.126V278.804Z" fill="black"/>
<path d="M185.126 273.406H205.493V272.105H185.126V273.406Z" fill="white"/>
<path d="M185.132 270.307V290.704H186.263V270.307H185.132Z" fill="black"/>
<path d="M205.499 270.307V290.704H206.695V270.307H205.499Z" fill="black"/>
<path d="M206.776 326.105H185.114V286.52C185.114 284.925 185.747 283.397 186.874 282.269C188.001 281.142 189.529 280.509 191.122 280.509H200.786C202.38 280.509 203.908 281.142 205.034 282.269C206.161 283.397 206.794 284.925 206.794 286.52V326.105H206.776Z" fill="black"/>
<path d="M197.625 282.044H198.01C199.165 282.044 200.309 282.273 201.376 282.716C202.443 283.159 203.412 283.808 204.228 284.625C205.044 285.443 205.691 286.414 206.133 287.482C206.574 288.55 206.801 289.694 206.8 290.85V320.871H204.508V291.165C204.508 290.269 204.333 289.381 203.99 288.553C203.648 287.724 203.146 286.972 202.513 286.337C201.88 285.703 201.128 285.2 200.3 284.857C199.472 284.514 198.585 284.337 197.689 284.337H197.561C195.752 284.339 194.018 285.059 192.74 286.339C191.461 287.619 190.743 289.355 190.743 291.165V320.871H188.83V290.85C188.829 289.694 189.056 288.549 189.498 287.48C189.939 286.412 190.587 285.441 191.404 284.623C192.221 283.805 193.191 283.157 194.258 282.714C195.326 282.271 196.47 282.044 197.625 282.044V282.044Z" fill="#C4C3C6"/>
<path d="M195.91 222.656H196.494C198.304 222.657 200.097 223.015 201.769 223.709C203.441 224.403 204.96 225.42 206.24 226.702C207.519 227.983 208.533 229.505 209.225 231.179C209.917 232.853 210.272 234.647 210.27 236.458V322.248H206.677V236.954C206.677 234.118 205.552 231.398 203.548 229.392C201.544 227.386 198.827 226.259 195.992 226.257H195.794C192.966 226.268 190.258 227.4 188.263 229.405C186.267 231.41 185.148 234.125 185.149 236.954V322.254H182.151V236.464C182.148 232.808 183.596 229.301 186.176 226.712C188.755 224.123 192.257 222.664 195.91 222.656V222.656Z" fill="white"/>
<path d="M304.921 363.935H271.512V245.708C271.512 239.324 278.989 234.147 288.216 234.147C297.443 234.147 304.921 239.324 304.921 245.708V363.935Z" fill="black"/>
<path d="M287.802 241.927H287.376C282.005 241.927 277.648 246.012 277.648 251.06V282.184H280.185V251.422C280.185 247.506 283.562 244.337 287.732 244.337H287.872C292.037 244.337 295.419 247.506 295.419 251.422V282.213H297.531V251.06C297.502 246.012 293.145 241.927 287.802 241.927Z" fill="#C4C3C6"/>
<path d="M299.811 289.432H277.274V304.676H299.811V289.432Z" fill="#C4C3C6"/>
<path d="M300.476 291.854H277.939V294.206H300.476V291.854Z" fill="black"/>
<path d="M300.476 287.255H277.939V288.603H300.476V287.255Z" fill="white"/>
<path d="M299.228 285.393V306.549H300.482V285.393H299.228Z" fill="black"/>
<path d="M276.61 285.388V306.543H277.934V285.388H276.61Z" fill="black"/>
<path d="M282.506 295.968H294.469C296.062 295.968 297.59 296.602 298.717 297.729C299.843 298.856 300.476 300.385 300.476 301.979V343.258H276.504V301.979C276.504 300.386 277.137 298.858 278.262 297.731C279.387 296.604 280.914 295.97 282.506 295.968Z" fill="black"/>
<path d="M287.802 297.562H287.376C282.005 297.562 277.648 301.647 277.648 306.695V337.824H280.185V307.028C280.185 303.117 283.562 299.943 287.732 299.943H287.872C292.037 299.943 295.419 303.117 295.419 307.028V337.824H297.531V306.695C297.502 301.653 293.145 297.562 287.802 297.562Z" fill="#C4C3C6"/>
<path d="M288.543 235.974H287.884C279.462 235.974 272.638 242.393 272.638 250.284V339.26H276.615V250.803C276.615 244.675 281.905 239.715 288.438 239.715H288.654C295.186 239.715 300.476 244.681 300.476 250.803V339.26H303.795V250.284C303.795 242.382 296.965 235.974 288.543 235.974Z" fill="white"/>
<path d="M206.298 353.996H239.707V237.01C239.707 230.632 232.224 224.208 223.003 224.208C213.781 224.208 206.298 231.255 206.298 237.634V353.996Z" fill="black"/>
<path d="M223.44 231.982H223.866C229.243 231.982 233.6 236.067 233.6 241.121V272.245H231.057V241.448C231.057 237.538 227.68 234.369 223.516 234.369H223.37C219.206 234.369 215.829 237.538 215.829 241.448V272.245H213.729V241.121C213.729 236.073 218.068 231.982 223.44 231.982Z" fill="#C4C3C6"/>
<path d="M211.402 294.737H233.939V279.493H211.402V294.737Z" fill="#C4C3C6"/>
<path d="M210.737 284.261H233.274V281.909H210.737V284.261Z" fill="black"/>
<path d="M210.737 278.664H233.274V277.316H210.737V278.664Z" fill="white"/>
<path d="M210.737 275.449V296.604H211.991V275.449H210.737Z" fill="black"/>
<path d="M233.274 275.455V296.61H234.598V275.455H233.274Z" fill="black"/>
<path d="M234.708 333.313H210.719V292.052C210.719 290.458 211.352 288.929 212.479 287.802C213.605 286.675 215.133 286.041 216.727 286.041H228.701C230.294 286.041 231.822 286.675 232.949 287.802C234.076 288.929 234.708 290.458 234.708 292.052V333.313Z" fill="black"/>
<path d="M223.44 287.605H223.866C229.243 287.605 233.6 291.69 233.6 296.739V327.874H231.057V297.089C231.057 293.173 227.68 290.004 223.516 290.004H223.37C219.206 290.004 215.829 293.173 215.829 297.089V327.874H213.729V296.756C213.729 291.69 218.068 287.605 223.44 287.605Z" fill="#C4C3C6"/>
<path d="M222.67 226.035H223.329C231.751 226.035 238.581 232.455 238.581 240.345V329.321H234.603V240.864C234.603 234.737 229.308 229.776 222.781 229.776H222.559C216.027 229.776 210.737 234.743 210.737 240.864V329.321H207.424V240.333C207.424 232.443 214.248 226.035 222.67 226.035Z" fill="white"/>
<path d="M252.294 226.463H256.064C261.269 226.462 267.508 227.905 271.19 231.585C274.873 235.266 278.191 241.505 278.195 246.713L277.572 338.478C277.572 340.385 276.815 342.213 275.467 343.562C274.12 344.91 272.292 345.668 270.386 345.668H239.841C237.935 345.668 236.108 344.91 234.76 343.562C233.413 342.213 232.656 340.385 232.656 338.478V247.337C232.656 244.757 233.163 240.956 234.15 238.573C235.137 236.189 236.583 234.024 238.406 232.2C240.229 230.375 242.393 228.928 244.775 227.941C247.157 226.954 249.71 226.446 252.288 226.446L252.294 226.463Z" fill="black"/>
<path d="M255.56 228.411H254.668C243.347 228.411 234.172 237.104 234.172 245.519V339.038H239.52V246.074C239.52 239.549 246.636 232.386 255.414 232.386H255.723C264.472 232.386 271.611 239.549 271.611 246.074V339.038H276.067V245.519C276.056 237.104 266.881 228.411 255.56 228.411Z" fill="white"/>
<path d="M270.713 283.042H240.413V299.277H270.713V283.042Z" fill="#C4C3C6"/>
<path d="M271.599 285.621H241.299V288.125H271.599V285.621Z" fill="black"/>
<path d="M271.599 280.725H241.299V282.16H271.599V280.725Z" fill="white"/>
<path d="M269.914 278.729V301.261H271.599V278.729H269.914Z" fill="black"/>
<path d="M239.52 278.735V301.267H241.305V278.735H239.52Z" fill="black"/>
<path d="M248.304 289.998H262.664C265.034 289.998 267.307 290.94 268.982 292.617C270.658 294.293 271.599 296.568 271.599 298.939V340.375H239.392V298.939C239.392 296.568 240.333 294.293 242.009 292.617C243.685 290.94 245.958 289.998 248.328 289.998H248.304Z" fill="black"/>
<path d="M255.846 291.691H255.262C248.036 291.691 242.18 296.05 242.18 301.419V334.574H245.592V301.775C245.592 297.608 250.136 294.229 255.741 294.229H255.927C261.532 294.229 266.07 297.608 266.07 301.775V334.574H268.916V301.425C268.928 296.056 263.072 291.691 255.846 291.691Z" fill="#C4C3C6"/>
<path d="M369.038 251.18V251.145C369.086 250.164 368.806 249.196 368.244 248.396C367.682 247.595 366.871 247.009 365.94 246.731C332.928 236.888 299.376 229.007 265.453 223.127C229.721 216.918 193.67 212.759 157.473 210.67C157.026 210.642 156.578 210.707 156.157 210.862C155.735 211.016 155.35 211.256 155.024 211.567C154.697 211.877 154.438 212.252 154.261 212.668C154.083 213.084 153.992 213.533 153.993 213.986V213.986C191.372 216.002 228.603 220.225 265.495 226.633C300.468 232.695 335.045 240.892 369.038 251.18V251.18Z" fill="white"/>
<path d="M326.484 102.154C326.542 100.631 325.778 99.3702 324.646 99.1075C305.031 94.5923 285.096 91.6012 265.02 90.1609C243.685 88.6341 222.267 88.675 200.938 90.2835C199.818 90.371 198.873 91.6491 198.873 93.0848C220.884 91.3195 242.996 91.2239 265.02 92.7988C285.724 94.2731 306.278 97.4014 326.484 102.154V102.154Z" fill="white"/>
<path d="M245.989 120.876C245.866 116.954 243.072 115.822 239.94 115.664C236.441 115.495 233.233 114.462 229.914 113.692C226.998 110.581 223.796 109.14 219.585 111.252C218.115 111.988 216.377 111.713 214.843 110.89C214.739 110.851 214.637 110.804 214.54 110.75L214.843 110.89C213.303 106.951 210.574 104.885 206.257 104.167C202.84 103.584 199.398 102.096 198.139 98.2555C197.608 96.6389 196.435 95.8394 195.123 95.1857C190.061 92.6762 184.765 91.0071 179.031 91.1005C171.367 86.385 164.876 87.4822 158.087 94.6546C154.587 96.814 152.289 100.012 150.388 103.613C147.932 108.282 142.554 109 140.612 104.833C138.787 100.917 136.745 101.769 133.87 103.21C131.607 104.342 130.37 107.249 127.565 107.161C123.138 107.027 120.152 109.315 116.979 112.04C113.992 114.573 110.108 117.719 106.282 116.335C101.336 114.538 96.6815 115.221 91.858 115.361C90.9598 115.361 89.9449 115.419 89.525 116.335C87.5186 120.567 83.4125 119.93 79.8721 120.537C78.7348 120.736 77.2416 119.954 76.4543 120.993C73.8938 124.296 69.601 125.848 67.7054 129.793H237.112C238.167 128.626 239.567 128.177 241.037 127.821C244.682 126.945 246.1 124.442 245.989 120.876Z" fill="black" stroke="black" stroke-width="10.3615" stroke-miterlimit="10"/>
<path d="M66.5447 129.519C68.4228 125.574 72.7155 124.022 75.2935 120.718C76.0867 119.703 77.574 120.462 78.7114 120.263C82.2517 119.68 86.3578 120.263 88.3642 116.061C88.8017 115.145 89.8224 115.11 90.6972 115.081C95.5149 114.947 100.169 114.264 105.115 116.055C108.941 117.444 112.843 114.305 115.812 111.743C118.985 109.017 121.977 106.729 126.404 106.864C129.209 106.951 130.44 104.045 132.703 102.913C135.584 101.471 137.626 100.619 139.446 104.535C141.388 108.702 146.765 107.961 149.221 103.315C151.122 99.7145 153.391 96.5164 156.92 94.357C158.944 94.5146 160.81 94.9932 162.945 93.9077C165.645 92.5362 167.984 93.8376 168.882 96.7556C171.215 104.377 176.179 109.21 183.802 111.404C185.361 111.934 186.81 112.745 188.077 113.797C189.458 114.83 191.036 115.567 192.714 115.962C194.392 116.358 196.133 116.404 197.829 116.096C202.495 115.361 206.905 115.116 211.104 118.104C213.286 119.656 215.508 119.271 216.814 116.23C218.348 112.618 219.573 112.443 222.88 114.713C223.248 114.97 223.586 115.297 223.947 115.524C226.036 116.995 228.118 118.6 229.64 114.871C229.78 114.52 230.422 114.52 230.888 114.556C232.166 115.297 233.344 116.05 234.971 116.114C238.505 116.254 240.629 118.839 242.553 121.366C244.303 123.701 242.308 126.216 239.264 127.05C231.991 129.058 224.455 128.177 217.147 129.531H186.654C181.224 127.663 175.572 128.364 170.014 128.183C168.873 128.19 167.732 128.113 166.602 127.955C166 127.885 165.438 127.618 165.002 127.196C164.567 126.774 164.283 126.22 164.193 125.621C164.07 125.03 164.136 124.415 164.382 123.864C164.628 123.313 165.042 122.853 165.564 122.551C166.474 122.026 167.5 121.781 168.433 121.314C170.096 120.485 170.265 119.563 168.725 118.349C163.796 114.398 152.12 115.022 147.728 119.516C145.669 121.623 146.76 123.228 148.404 124.833C149.746 126.134 151.776 127.249 149.88 129.572H137.352C132.762 126.169 127.343 126.403 122.187 126.718C119.411 126.893 116.681 127.786 113.753 127.476C112.806 127.416 111.858 127.573 110.982 127.936C110.105 128.299 109.323 128.859 108.696 129.572L66.5447 129.519Z" fill="#C4C3C6"/>
<path d="M87.3143 124.074C88.615 120.298 90.0381 116.779 95.1008 119.82C95.3715 119.958 95.6714 120.031 95.9757 120.031C96.2799 120.031 96.5798 119.958 96.8505 119.82C101.464 116.318 106.398 119.469 111.152 119.108C114.29 118.874 115.235 121.553 116.028 124.068L87.3143 124.074Z" fill="white"/>
<path d="M217.129 129.519C223.738 127.062 230.941 128.183 237.636 126.134C238.855 125.761 240.465 126.274 241.089 124.739C241.824 122.93 240.092 122.247 239.258 121.098C237.03 118.051 233.705 116.802 230.509 115.314C228.905 115.618 228.269 115.04 228.759 113.417C232.078 114.188 235.315 115.215 238.791 115.39C241.929 115.548 244.717 116.68 244.834 120.602C244.945 124.167 243.527 126.671 239.888 127.546C238.412 127.902 237.012 128.352 235.957 129.519H217.129Z" fill="#C4C3C6"/>
<path d="M228.754 114.001L230.503 115.898C230.678 117.981 230.917 120.059 231.011 122.142C231.059 122.744 230.887 123.343 230.528 123.828C230.169 124.313 229.646 124.651 229.057 124.78C227.645 125.189 226.91 124.506 226.286 123.251C224.367 119.423 224.321 119.446 220.145 116.832C218.978 122.837 215.391 124.506 209.821 120.876C206.211 118.541 202.746 118.291 198.786 118.88C193.951 119.592 189.261 119.37 185.476 115.536C184.175 114.229 182.262 114.048 180.577 113.47C174.108 111.235 169.962 106.572 167.279 100.467C166.637 99.0258 166.8 96.9248 164.706 96.7031C162.706 96.4871 162.053 98.3255 161.207 99.7203C160.813 100.54 160.466 101.382 160.169 102.241L156.902 94.9114C163.692 87.7389 170.183 86.6418 177.847 91.3573C179.229 92.9038 180.763 93.5808 182.974 93.1081C187.582 92.1393 193.717 95.5767 195.899 100.111C196.663 101.705 198.938 102.522 198.319 104.815C198.903 104.407 199.725 103.73 200.162 104.232C202.875 107.15 206.497 107.196 210.014 107.657C212.055 107.92 211.909 110.575 213.665 111.159C215.193 111.982 216.931 112.256 218.401 111.521C222.641 109.449 225.855 110.89 228.754 114.001Z" fill="white"/>
<path d="M213.688 110.616C211.279 109.548 208.981 108.054 206.106 109.402C205.173 109.84 203.726 109.706 203.189 108.819C200.606 104.646 197.643 106.012 194.522 107.955C193.892 108.352 192.988 108.655 192.487 107.955C191.764 106.951 192.703 106.397 193.397 105.854C196.78 103.181 197.106 100.018 193.467 97.1816C190.381 94.783 187.237 91.5265 182.297 94.036C179.964 95.2382 178.104 93.575 177.853 90.7737C183.586 90.7036 188.882 92.3727 193.945 94.8589C195.257 95.5125 196.43 96.3121 196.96 97.9286C198.226 101.769 201.661 103.269 205.079 103.841C209.413 104.611 212.148 106.689 213.688 110.616Z" fill="#C4C3C6"/>
<path d="M364.057 353.407C319.984 374.6 168.33 353.095 145.578 314.137C138.666 302.301 140.903 293.567 140.903 293.567C140.903 293.567 149.976 316.149 278.66 334.395C320.423 340.317 370.602 340.317 370.602 340.317C370.602 340.317 374.701 348.288 364.057 353.407Z" fill="black"/>
<path d="M253.635 284.702H254.294C260.378 284.702 266.213 287.121 270.515 291.425C274.817 295.73 277.234 301.568 277.234 307.655V364.848H230.696V307.655C230.696 301.568 233.113 295.73 237.415 291.425C241.717 287.121 247.551 284.702 253.635 284.702V284.702Z" fill="black"/>
<path d="M253.658 288.07H254.557C265.703 288.07 274.737 296.549 274.737 307.007V342.751H269.488V307.673C269.488 299.561 262.489 292.989 253.845 292.989H253.554C244.916 292.989 237.911 299.561 237.911 307.673V342.728H233.525V306.984C233.484 296.526 242.512 288.07 253.658 288.07Z" fill="#C4C3C6"/>
<path d="M270.73 353.717H236.744V309.079C236.744 304.57 238.534 300.245 241.72 297.056C244.906 293.867 249.228 292.075 253.734 292.073C258.242 292.073 262.565 293.865 265.752 297.054C268.94 300.243 270.73 304.569 270.73 309.079V353.717Z" fill="black"/>
<path d="M253.513 294.536H254.148C262.314 294.536 268.887 300.728 268.887 308.367V343.714H265.055V308.869C265.055 302.946 259.94 298.143 253.629 298.143H253.39C247.085 298.143 241.97 302.946 241.97 308.869V343.714H238.809V308.367C238.809 300.728 245.376 294.536 253.513 294.536Z" fill="white"/>
<path d="M295.45 340.165C289.228 341.748 273.128 342.876 254.259 342.876C235.391 342.876 219.269 341.748 213.068 340.165C211.291 340.62 210.315 341.112 210.315 341.611C210.315 343.91 230 345.776 254.281 345.776C278.562 345.776 298.24 343.91 298.24 341.611C298.232 341.112 297.257 340.62 295.45 340.165Z" fill="#C4C3C6"/>
<path d="M293.961 338.509C287.963 340.035 272.455 341.126 254.274 341.126C236.092 341.126 220.577 340.035 214.586 338.509C212.873 338.95 211.934 339.42 211.934 339.912C211.934 342.124 230.889 343.925 254.274 343.925C277.659 343.925 296.606 342.124 296.606 339.955C296.606 339.434 295.667 338.964 293.961 338.509Z" fill="black"/>
<path d="M293.961 337.2C287.963 338.726 272.455 339.81 254.274 339.81C236.092 339.81 220.577 338.726 214.586 337.2C212.873 337.634 211.934 338.111 211.934 338.603C211.934 340.815 230.889 342.616 254.274 342.616C277.659 342.616 296.606 340.815 296.606 338.603C296.606 338.111 295.667 337.634 293.961 337.2Z" fill="white"/>
<path d="M301.376 347.75C294.294 349.557 275.975 350.837 254.491 350.837C233.006 350.837 214.694 349.557 207.612 347.75C205.589 348.27 204.483 348.827 204.483 349.405C204.483 352.023 226.885 354.149 254.491 354.149C282.096 354.149 304.505 352.023 304.505 349.405C304.505 348.827 303.399 348.27 301.376 347.75Z" fill="#C4C3C6"/>
<path d="M299.641 345.884C292.82 347.62 275.18 348.856 254.491 348.856C233.801 348.856 216.19 347.62 209.347 345.884C207.396 346.383 206.333 346.918 206.333 347.475C206.333 349.999 227.89 352.045 254.491 352.045C281.091 352.045 302.677 349.999 302.677 347.475C302.677 346.918 301.585 346.383 299.641 345.884Z" fill="black"/>
<path d="M299.641 344.445C292.82 346.181 275.18 347.417 254.491 347.417C233.801 347.417 216.19 346.181 209.347 344.445C207.396 344.944 206.333 345.479 206.333 346.036C206.333 348.56 227.89 350.606 254.491 350.606C281.091 350.606 302.677 348.56 302.677 346.036C302.677 345.479 301.585 344.944 299.641 344.445Z" fill="white"/>
<path d="M255.89 234.35H255.303C247.893 234.35 241.883 240.039 241.883 247.069V277.943H245.383V247.572C245.383 242.119 250.041 237.706 255.794 237.706H255.987C261.731 237.706 266.398 242.119 266.398 247.572V277.983H269.31V247.069C269.27 240.039 263.26 234.35 255.89 234.35Z" fill="#C4C3C6"/>
</svg>
