<svg width="600" height="600" viewBox="0 0 600 600" fill="none" xmlns="http://www.w3.org/2000/svg">
<path d="M421.552 153.544C421.521 151.863 421.374 150.187 421.113 148.526V148.526C421.384 147.861 422.002 147.833 422.554 147.814C425.52 147.711 428.374 147.224 431.405 148.517C433.754 149.528 436.149 147.243 437.955 145.399C439.911 143.423 441.745 141.775 444.458 141.869C446.18 141.935 446.938 139.837 448.323 139.06C450.073 137.965 451.364 137.347 452.477 140.156C453.675 143.17 456.969 142.637 458.475 139.276C459.439 136.742 461.052 134.507 463.154 132.797V132.797C467.327 127.61 471.304 126.814 476.01 130.231C479.512 130.286 482.93 131.314 485.882 133.199C486.332 133.417 486.732 133.727 487.054 134.109C487.377 134.491 487.615 134.938 487.753 135.418C488.065 136.545 488.704 137.554 489.591 138.316C490.478 139.078 491.571 139.559 492.731 139.697C495.379 140.212 497.064 141.71 498.009 144.556C498.418 144.87 498.908 145.061 499.421 145.108C499.935 145.154 500.451 145.054 500.909 144.818C503.501 143.292 505.466 144.331 507.253 146.578C509.247 147.27 511.307 147.75 513.401 148.011C515.328 148.123 517.041 148.947 517.144 151.756C517.209 154.34 516.339 156.147 514.103 156.784C513.163 156.97 512.314 157.472 511.698 158.207H430.357C427.611 156.32 424.656 154.755 421.552 153.544V153.544Z" fill="black" stroke="black" stroke-width="16.6227" stroke-miterlimit="10"/>
<path d="M441.165 155.988C439.452 156.11 437.778 156.756 435.99 156.531C435.386 156.498 434.784 156.621 434.241 156.886C433.697 157.152 433.23 157.551 432.884 158.048H430.077C427.414 156.236 424.558 154.726 421.562 153.544C421.528 151.595 421.347 149.652 421.019 147.73C421.294 147.643 421.582 147.602 421.871 147.608C424.837 147.505 427.691 147.018 430.722 148.311C433.071 149.312 435.466 147.037 437.272 145.193C439.078 143.348 441.062 141.56 443.775 141.663C445.497 141.729 446.255 139.631 447.64 138.854C449.408 137.815 450.662 137.197 451.776 140.025C452.973 143.039 456.267 142.506 457.774 139.145C458.737 136.611 460.351 134.376 462.452 132.666C463.697 132.778 464.838 133.124 466.195 132.338C467.851 131.345 469.292 132.338 469.844 134.398C471.276 139.912 474.317 143.405 478.995 144.996C479.972 145.39 480.862 145.972 481.615 146.71C482.408 147.442 483.364 147.975 484.404 148.265C485.443 148.555 486.537 148.593 487.594 148.376C490.401 147.842 493.162 147.674 495.744 149.827C497.073 150.951 498.448 150.698 499.244 148.47C500.179 145.858 500.937 145.736 502.987 147.374C503.211 147.562 503.417 147.777 503.642 147.964C504.924 149.031 506.196 150.183 507.132 147.487C507.216 147.234 507.609 147.234 507.899 147.262C508.608 147.874 509.479 148.267 510.407 148.395C512.568 148.488 513.878 150.361 515.038 152.14C516.199 153.919 514.889 155.651 513.027 156.25C508.563 157.701 503.932 157.065 499.45 158.048H480.736C477.405 156.699 473.942 157.196 470.518 157.111C469.819 157.117 469.12 157.06 468.431 156.943C468.02 156.864 467.648 156.649 467.373 156.334C467.098 156.018 466.937 155.619 466.915 155.201C466.835 154.79 466.871 154.364 467.02 153.972C467.169 153.579 467.424 153.237 467.757 152.982C468.31 152.608 468.946 152.43 469.517 152.046C470.536 151.447 470.639 150.792 469.694 149.902C466.672 147.037 459.505 147.496 456.819 150.726C455.556 152.252 456.23 153.413 457.24 154.574C458.064 155.51 459.308 156.316 458.176 158.001H450.475C447.668 155.585 444.337 155.754 441.165 155.988Z" fill="#C4C3C6"/>
<path d="M421.552 153.544C421.552 152.589 421.496 151.625 421.384 150.651C422.086 150.024 423.059 149.977 424.556 151.035C424.715 151.132 424.898 151.183 425.085 151.183C425.271 151.183 425.454 151.132 425.613 151.035C428.42 148.517 431.471 150.782 434.39 150.52C436.308 150.352 436.907 152.29 437.375 154.106H422.937C422.479 153.909 422.001 153.732 421.552 153.544Z" fill="white"/>
<path d="M499.431 158.048C503.492 156.269 507.908 157.111 512.016 155.595C512.765 155.332 513.756 155.698 514.14 154.593C514.589 153.282 513.522 152.786 513.008 151.953C511.642 149.752 509.602 148.854 507.637 147.777C506.701 147.992 506.261 147.571 506.57 146.401C508.579 147.096 510.655 147.576 512.765 147.833C514.692 147.945 516.404 148.769 516.507 151.578C516.573 154.162 515.703 155.969 513.466 156.606C512.526 156.793 511.678 157.295 511.062 158.029L499.431 158.048Z" fill="#C4C3C6"/>
<path d="M506.57 146.401L507.637 147.777C507.749 149.275 507.89 150.782 507.955 152.29C508.004 152.698 507.911 153.112 507.691 153.46C507.471 153.808 507.138 154.069 506.748 154.2C505.887 154.499 505.438 154.003 505.054 153.095C503.875 150.286 503.847 150.352 501.312 148.413C500.6 152.814 498.373 154.022 494.986 151.391C494.038 150.656 492.937 150.144 491.764 149.894C490.591 149.645 489.377 149.663 488.212 149.949C485.246 150.464 482.373 150.305 480.043 147.533C479.248 146.597 478.078 146.457 477.039 146.035C473.072 144.425 470.49 141.054 468.88 136.673C468.487 135.634 468.59 134.107 467.299 133.948C466.008 133.789 465.671 135.128 465.175 136.13C464.988 136.504 464.885 136.944 464.529 138.002L462.489 132.666C466.662 127.479 470.639 126.683 475.346 130.1C475.654 130.632 476.13 131.045 476.7 131.274C477.27 131.503 477.9 131.535 478.49 131.364C481.297 130.671 485.04 133.152 486.415 136.448C486.892 137.6 488.287 138.19 487.903 139.847C488.249 139.556 488.773 139.07 489.035 139.407C490.701 141.513 492.918 141.551 495.08 141.878C496.334 142.075 496.249 143.976 497.325 144.425C497.735 144.739 498.224 144.93 498.738 144.977C499.251 145.023 499.767 144.923 500.226 144.687C502.818 143.114 504.783 144.154 506.57 146.401Z" fill="white"/>
<path d="M497.325 144.378C495.847 143.601 494.434 142.506 492.647 143.498C492.354 143.673 492.006 143.729 491.673 143.654C491.34 143.579 491.049 143.379 490.86 143.096C489.278 140.081 487.454 141.064 485.545 142.468C485.161 142.759 484.609 142.974 484.291 142.468C483.851 141.747 484.432 141.345 484.853 140.952C486.93 139.023 487.126 136.729 484.853 134.679C482.981 132.947 481.026 130.597 477.994 132.413C476.544 133.274 475.421 132.076 475.271 130.053C478.773 130.108 482.191 131.136 485.143 133.021C485.593 133.239 485.992 133.549 486.315 133.931C486.637 134.314 486.876 134.76 487.014 135.24C487.326 136.366 487.966 137.374 488.853 138.134C489.739 138.895 490.832 139.374 491.992 139.51C494.696 140.034 496.38 141.532 497.325 144.378Z" fill="#C4C3C6"/>
<path d="M526.604 221.676C517.069 221.676 509.349 219.953 502.36 216.264C502.098 216.264 501.62 216.264 501.293 216.264C500.965 216.264 500.357 216.264 499.974 216.208L496.231 215.927C490.944 215.515 485.48 215.085 480.183 215.085C476.426 215.06 472.672 215.323 468.955 215.871C468.722 215.901 468.488 215.916 468.253 215.918C467.977 215.919 467.702 215.897 467.43 215.852C464.248 215.281 461.002 214.982 457.558 214.663C442.353 213.268 425.127 211.677 414.179 184.918C413.91 184.258 413.795 183.544 413.844 182.832C413.893 182.12 414.104 181.429 414.46 180.811C414.817 180.193 415.31 179.665 415.902 179.267C416.494 178.869 417.169 178.611 417.875 178.514C420.785 178.112 423.695 177.578 426.521 177.054C429.74 176.464 432.828 175.893 435.878 175.528L436.29 175.078C435.226 173.233 434.662 171.142 434.652 169.011C434.719 166.118 435.752 163.331 437.587 161.094C439.423 158.858 441.954 157.3 444.777 156.671C445.209 156.573 445.621 156.399 445.993 156.156C448.539 154.485 451.519 153.599 454.564 153.61C460.272 153.61 465.381 156.653 466.728 160.856C467.177 162.251 468.843 162.888 472.286 163.909C475.486 164.845 480.352 166.296 482.579 170.631C484.106 170.66 485.629 170.801 487.136 171.052C488.258 171.248 489.393 171.364 490.532 171.399C491.423 171.418 492.308 171.256 493.134 170.921L496.876 169.358C505.831 165.613 515.085 161.708 525.752 160.295C527.493 160.061 529.036 159.901 530.487 159.789C530.889 159.789 531.292 159.789 531.675 159.789C533.605 159.756 535.521 160.121 537.303 160.862C539.085 161.603 540.696 162.704 542.033 164.096C542.821 164.936 543.488 165.882 544.017 166.905C546.127 166.335 548.28 165.938 550.455 165.716H550.941C551.32 165.715 551.697 165.762 552.064 165.856C556.649 166.989 559.25 170.172 559.063 174.17C566.951 175.312 575.064 176.548 582.615 180.218H582.942H583.298C591.551 181.426 596.192 186.987 595.125 194.384C594.751 196.931 592.964 202.81 584.308 202.81C582.918 202.789 581.531 202.683 580.154 202.492C579.334 202.39 578.509 202.34 577.684 202.342C573.117 202.342 568.813 203.906 564.266 205.563L562.703 206.125C564.659 208.727 566.67 212.126 565.07 215.487C563.199 219.551 558.09 219.663 555.058 219.728C550.838 219.822 546.637 220.225 542.146 220.665C537.093 221.17 531.853 221.676 526.604 221.676Z" fill="black"/>
<path d="M454.583 158.244C458.325 158.244 461.591 160.117 462.274 162.223C464.875 170.444 478.621 166.352 479.117 175.434C479.117 175.518 479.463 175.668 479.65 175.668H479.706C480.657 175.388 481.644 175.253 482.635 175.265C485.246 175.265 487.847 176.033 490.588 176.033C492.092 176.052 493.585 175.769 494.977 175.2C505.054 171.034 514.945 166.408 526.426 164.901C527.942 164.704 529.429 164.536 530.88 164.433H531.731C537.402 164.433 541.088 168.646 540.808 172.953C544.042 171.536 547.482 170.645 550.997 170.313C553.561 170.949 554.862 172.372 554.319 174.732C553.851 176.735 555.339 177.597 556.864 178.477C565.286 179.694 573.782 180.817 581.352 184.684C581.565 184.772 581.795 184.811 582.025 184.797H582.69C588.416 185.639 591.261 188.785 590.559 193.663C590.035 197.305 587.293 198.129 584.374 198.129C583.178 198.108 581.984 198.014 580.8 197.848C579.788 197.722 578.769 197.659 577.749 197.661C569.141 197.661 562.011 202.127 554.01 203.924L557.996 207.623C562.553 213.334 562.291 214.935 555.021 215.113C545.664 215.319 536.064 217.041 526.632 217.041C519.071 217.041 511.595 215.937 504.353 212.051C503.286 211.489 501.695 211.639 500.338 211.536C493.648 211.049 486.958 210.413 480.258 210.413C476.27 210.384 472.284 210.66 468.337 211.237C450.419 208.044 430.76 212.894 418.596 183.149C425.997 182.138 433.062 180.34 439.378 179.9V178.692C440.408 177.498 441.535 176.389 442.746 175.378C441.723 174.657 440.885 173.705 440.3 172.598C439.714 171.492 439.398 170.263 439.378 169.011V168.936C439.378 165.369 442.044 162.195 445.927 161.212C446.867 160.98 447.762 160.594 448.575 160.07C450.356 158.898 452.442 158.279 454.573 158.291L454.583 158.244ZM454.573 148.928C450.678 148.919 446.863 150.037 443.588 152.149C435.56 154.209 429.983 161.1 429.983 168.936V169.011C429.984 169.896 430.056 170.779 430.198 171.652C428.692 171.904 427.195 172.176 425.716 172.457C422.909 172.962 420.102 173.487 417.295 173.87C415.88 174.064 414.527 174.579 413.342 175.376C412.156 176.173 411.169 177.232 410.455 178.47C409.742 179.708 409.321 181.093 409.225 182.519C409.129 183.946 409.361 185.375 409.903 186.697C415.208 199.655 422.479 208.4 432.145 213.418C440.566 217.79 449.39 218.605 457.184 219.326C460.524 219.635 463.678 219.925 466.663 220.459C467.207 220.552 467.757 220.599 468.309 220.599C468.782 220.602 469.255 220.568 469.722 220.496C473.202 219.989 476.714 219.748 480.23 219.775C485.339 219.775 490.467 220.169 495.903 220.59C497.148 220.683 498.383 220.786 499.646 220.871C500.207 220.918 500.722 220.927 501.143 220.936C508.629 224.681 516.723 226.404 526.622 226.404C532.096 226.404 537.458 225.88 542.651 225.383C547.03 224.962 551.166 224.56 555.217 224.447C558.511 224.372 566.24 224.204 569.365 217.51C570.005 216.128 570.353 214.629 570.387 213.106C570.42 211.584 570.14 210.071 569.562 208.662C572.18 207.672 574.942 207.116 577.74 207.014C578.365 207.015 578.99 207.052 579.611 207.126C581.18 207.346 582.762 207.465 584.346 207.482C594.405 207.482 598.915 201.031 599.794 194.992C601.245 184.956 594.901 177.129 584.018 175.528H583.878C577.085 172.382 570.095 171.005 563.218 169.957C561.908 165.762 558.343 162.467 553.224 161.222C552.487 161.035 551.73 160.941 550.969 160.941C550.657 160.942 550.344 160.961 550.034 160.997C548.714 161.128 547.414 161.325 546.15 161.559C545.945 161.315 545.729 161.081 545.505 160.847C543.734 158.984 541.597 157.508 539.228 156.513C536.859 155.517 534.31 155.022 531.741 155.061C531.235 155.061 530.721 155.061 530.206 155.117C528.662 155.23 527.025 155.398 525.2 155.641C513.915 157.139 504.371 161.147 495.136 165.004L491.393 166.558C491.134 166.656 490.856 166.698 490.579 166.68C489.666 166.641 488.757 166.544 487.856 166.39C487.023 166.268 486.135 166.137 485.18 166.043C484.201 164.811 483.044 163.732 481.746 162.841C479.241 161.266 476.503 160.097 473.634 159.377C472.782 159.134 471.594 158.778 470.826 158.441C468.506 152.748 461.975 148.854 454.555 148.854L454.573 148.928Z" fill="black"/>
<path d="M560.972 178.065C559.456 177.129 557.959 176.305 558.427 174.32C558.979 171.96 557.669 170.575 555.105 169.901C549.175 170.368 543.515 172.576 538.833 176.249C533.93 180.171 527.914 182.016 521.28 182.475C516.479 182.802 511.548 183.046 508.891 187.559C508.161 188.794 506.683 188.748 505.232 188.495C495.117 186.622 484.881 184.909 477.32 177.878C474.728 175.481 471.706 175.368 468.469 176.455C464.286 177.859 460.786 177.55 457.025 174.882C452.019 171.333 448.697 172.438 443.485 178.308V179.479C453.647 183.317 460.833 192.802 473.783 191.491C476.955 191.173 479.117 193.579 481.166 195.479C482.94 197.197 485.044 198.536 487.35 199.416C489.657 200.297 492.118 200.7 494.584 200.601C502.762 200.395 509.349 202.361 512.68 209.86C514.683 214.382 520.101 214.542 524.536 214.317C532.826 213.877 540.967 215.862 549.313 214.907C552.167 214.579 555.124 214.523 558.062 214.167C563.573 213.493 564.509 211.208 562.114 207.22L558.118 203.475C555.536 198.55 555.536 198.55 550.202 198.241C559.026 196.79 569.131 197.305 578.732 194.496C580.294 194.037 581.81 193.794 582.783 192.53C585.104 188.242 581.707 187.502 578.273 187.427C572.453 187.306 567.765 184.993 563.059 182.409C561 181.351 560.036 180.125 560.972 178.065Z" fill="#C4C3C6"/>
<path d="M443.523 168.581C443.523 172.653 446.929 176.277 451.56 176.67C452.956 176.806 454.309 177.229 455.534 177.912C456.76 178.595 457.831 179.524 458.681 180.64C460.852 183.186 464.295 182.83 467.28 180.78C470.817 178.346 473.924 178.702 476.637 182.035C479.182 185.199 483.487 186.248 487.22 187.343C492.535 188.907 497.943 190.236 503.501 191.538C507.637 192.474 512.372 191.098 514.149 187.69C514.833 186.388 517.134 185.901 521.392 185.63C529.28 185.124 536.241 182.98 541.874 178.187L541.996 178.084C548.424 172.756 543.867 163.384 535.053 164.04C533.603 164.143 532.115 164.311 530.599 164.508C519.118 166.034 509.228 170.659 499.15 174.807C493.639 177.091 488.857 173.786 483.88 175.265C483.771 175.27 483.663 175.253 483.562 175.214C483.46 175.175 483.368 175.116 483.29 175.041C482.832 165.959 469.086 170.05 466.447 161.83C465.409 158.553 458.279 155.988 452.758 159.63C451.933 160.153 451.025 160.533 450.073 160.753C446.152 161.69 443.523 164.91 443.523 168.478V168.581Z" fill="white"/>
<path d="M562.114 207.211C561.992 210.956 559.821 213.381 555.564 213.624C549.65 213.971 543.624 214.495 537.785 213.839C533.107 213.306 528.428 212.229 523.6 212.182C519.661 212.182 516.442 210.825 515.431 207.014C513.56 200.048 507.338 197.783 500.46 197.839C491.739 197.904 484.825 196.107 479.987 189.337C478.265 186.931 475.468 185.152 471.781 186.922C467.102 189.16 463.088 187.858 460.103 184.74C451.214 175.378 437.647 180.668 422.675 182.718C434.839 212.454 454.489 207.613 472.417 210.806C483.112 209.168 493.77 210.319 504.428 211.106C505.775 211.209 507.375 211.049 508.432 211.621C524.714 220.337 542.164 215.057 559.101 214.682C566.409 214.523 566.67 212.913 562.114 207.211Z" fill="black"/>
<path d="M581.37 191.547C570.722 195.086 559.353 193.541 548.424 195.152C545.692 195.554 542.81 195.592 541.182 197.876C539.947 199.627 537.57 201.621 539.872 203.718C541.743 205.404 544.251 204.505 546.094 203.222C550.268 200.31 554.179 201.481 558.118 203.512C567.035 201.509 574.886 196.172 584.907 197.436C588.772 197.914 593.927 198.372 594.667 193.251C595.378 188.373 592.533 185.227 586.797 184.385C584.991 186.772 584.009 189.646 581.37 191.547Z" fill="black"/>
<path d="M581.37 191.547C583.972 192.221 587.041 193.045 588.716 190.779C590.39 188.514 587.527 186.529 586.844 184.385C586.398 184.427 585.948 184.389 585.515 184.272C577.946 180.396 569.468 179.282 561.019 178.065C557.145 179.507 556.78 181.735 559.943 183.87C564.911 187.231 569.599 191.36 576.842 190.564C578.264 190.405 579.845 191.191 581.37 191.547Z" fill="white"/>
<path d="M443.822 189.871L209.897 143.582V85.5343C209.897 81.3118 216.128 71.2376 223.268 71.1533C254.904 70.7601 291.63 66.9589 331.678 70.4324C373.092 74.037 404.766 81.293 432.126 89.7007C445.057 93.6798 444.907 99.1569 444.72 102.724C444.458 108.416 444.121 184.16 443.822 189.871Z" fill="black"/>
<path d="M430.357 159.686L223.071 140.025V96.2451C223.071 91.1518 228.592 86.4518 234.917 86.1241C266.936 84.4425 299.031 84.9148 330.986 87.5378C362.095 90.0805 392.98 94.8774 423.396 101.891C428.271 103.024 431.321 106.572 431.153 110.86C430.891 117.685 430.629 152.833 430.357 159.686Z" fill="#C4C3C6"/>
<path d="M429.487 332.782L396.981 337.21V130.84C396.981 119.698 404.251 109.68 413.234 108.454C422.217 107.227 429.487 115.279 429.487 126.421V332.782Z" fill="black"/>
<path d="M410.427 122.414L410.015 122.47C404.785 123.181 400.536 130.896 400.536 139.706V194.009L403.007 193.672V139.95C403.007 133.115 406.3 127.132 410.352 126.589H410.492C414.544 126.037 417.838 131.121 417.838 137.946V191.65L419.896 191.369V137.066C419.896 128.265 415.657 121.702 410.427 122.414Z" fill="#C4C3C6"/>
<path d="M424.556 230.027L402.614 233.014V206.405L424.556 203.419V230.027Z" fill="#C4C3C6"/>
<path d="M425.192 211.658L403.259 214.645V210.544L425.192 207.557V211.658Z" fill="black"/>
<path d="M425.192 201.883L403.259 204.87V202.52L425.192 199.533V201.883Z" fill="white"/>
<path d="M425.192 196.275V233.201L423.976 233.37V196.444L425.192 196.275Z" fill="black"/>
<path d="M403.26 199.262V236.188L401.968 236.356V199.43L403.26 199.262Z" fill="black"/>
<path d="M425.192 297.279L401.865 300.453V226.441C401.865 221.76 404.588 217.538 407.957 217.079L419.101 215.562C422.469 215.113 425.192 218.558 425.192 223.268V297.279Z" fill="black"/>
<path d="M410.427 219.532L410.015 219.588C404.785 220.3 400.536 228.014 400.536 236.815V291.118L403.007 290.791V237.059C403.007 230.233 406.3 224.251 410.352 223.698H410.492C414.544 223.146 417.838 228.23 417.838 235.064V288.815L419.896 288.534V234.231C419.896 225.355 415.657 218.802 410.427 219.532Z" fill="#C4C3C6"/>
<path d="M413.58 111.6L412.935 111.693C404.747 112.808 398.104 124.895 398.104 138.686V293.993L401.968 293.468V139.07C401.968 128.368 407.124 118.996 413.477 118.135H413.693C420.046 117.264 425.192 125.241 425.192 135.924V290.304L428.421 289.864V134.538C428.421 120.766 421.777 110.486 413.58 111.6Z" fill="white"/>
<path d="M221.621 325.451L251.564 321.369V114.998C251.564 103.866 244.855 95.7395 236.592 96.8724C228.33 98.0053 221.621 107.939 221.621 119.08V325.451Z" fill="black"/>
<path d="M239.222 110.083L239.605 110.036C244.424 109.381 248.335 115.981 248.335 124.792V179.095L246.09 179.479V125.681C246.09 118.846 243.058 113.725 239.325 114.24H239.194C235.451 114.755 232.428 120.7 232.428 127.526V181.286L230.557 181.538V127.235C230.491 118.416 234.403 110.738 239.222 110.083Z" fill="#C4C3C6"/>
<path d="M226.197 221.395L246.417 218.642V192.034L226.197 194.786V221.395Z" fill="#C4C3C6"/>
<path d="M225.607 203.194L245.818 200.442V196.341L225.607 199.093V203.194Z" fill="black"/>
<path d="M225.607 193.42L245.818 190.667V188.317L225.607 191.07V193.42Z" fill="white"/>
<path d="M225.607 187.811V224.737L226.73 224.578V187.652L225.607 187.811Z" fill="black"/>
<path d="M245.818 185.059V221.985L247.016 221.816V184.89L245.818 185.059Z" fill="black"/>
<path d="M225.607 288.806L247.128 285.885V211.199C247.128 206.864 244.611 203.709 241.514 204.112L231.221 205.507C228.115 205.928 225.607 209.785 225.607 214.13V288.806Z" fill="black"/>
<path d="M239.221 207.201L239.605 207.145C244.424 206.49 248.335 213.1 248.335 221.901V276.204L246.052 276.513V222.79C246.052 215.965 243.02 210.843 239.287 211.349H239.156C235.413 211.855 232.391 217.8 232.391 224.634V278.385L230.519 278.647V224.344C230.491 215.525 234.403 207.857 239.221 207.201Z" fill="#C4C3C6"/>
<path d="M236.312 100.093L236.901 100.018C244.452 98.9883 250.581 109.381 250.581 123.134V278.441L247.007 278.928V124.53C247.007 113.828 242.263 105.804 236.405 106.6H236.209C230.351 107.396 225.607 116.712 225.607 127.413V281.84L222.632 282.243V126.936C222.632 113.145 228.751 101.123 236.312 100.093Z" fill="white"/>
<path d="M402.548 325.957L359.506 331.808V125.438C359.506 114.296 369.134 103.96 381.027 102.34C392.92 100.72 402.548 108.445 402.548 119.586V325.957Z" fill="black"/>
<path d="M379.034 116.187L378.491 116.262C371.567 117.199 365.962 125.101 365.962 133.911V188.214L369.228 187.765V134.042C369.228 127.217 373.579 121.084 378.94 120.354H379.128C384.489 119.624 388.84 124.567 388.84 131.392V185.096L391.563 184.731V130.428C391.563 121.618 385.949 115.242 379.034 116.187Z" fill="#C4C3C6"/>
<path d="M395.98 223.417L366.973 227.368V200.76L395.98 196.809V223.417Z" fill="#C4C3C6"/>
<path d="M396.831 205.02L367.824 208.971V204.861L396.831 200.919V205.02Z" fill="black"/>
<path d="M396.831 195.245L367.824 199.196V196.837L396.831 192.895V195.245Z" fill="white"/>
<path d="M396.831 189.637V226.563L395.222 226.779V189.852L396.831 189.637Z" fill="black"/>
<path d="M367.824 193.579V230.505L366.112 230.739V193.813L367.824 193.579Z" fill="black"/>
<path d="M396.831 290.641L365.953 294.835V223.576C365.953 217.341 369.565 211.808 374.009 211.199L388.756 209.196C393.21 208.587 396.812 213.147 396.812 219.373L396.831 290.641Z" fill="black"/>
<path d="M379.034 213.296L378.491 213.371C371.567 214.308 365.962 222.219 365.962 231.02V285.323L369.228 284.883V231.16C369.228 224.326 373.579 218.202 378.94 217.472H379.128C384.489 216.742 388.84 221.685 388.84 228.52V282.271L391.563 281.896V227.593C391.563 218.736 385.949 212.36 379.034 213.296Z" fill="#C4C3C6"/>
<path d="M381.476 105.514L380.625 105.636C369.78 107.106 360.975 119.492 360.975 133.284V288.544L366.093 287.851V133.443C366.093 122.751 372.905 113.154 381.317 112.002H381.598C390.019 110.86 396.812 118.556 396.812 129.304V283.666L401.079 283.085V127.778C401.098 113.987 392.312 103.997 381.476 105.514Z" fill="white"/>
<path d="M244.546 323.822L287.588 317.97V111.6C287.588 100.458 277.96 92.7435 266.067 94.3538C254.174 95.9642 244.546 106.319 244.546 117.451V323.822Z" fill="black"/>
<path d="M268.06 107.658L268.612 107.583C275.527 106.647 281.132 113.014 281.132 121.824V176.127L277.866 176.567V122.844C277.866 116.019 273.515 111.075 268.153 111.806H267.976C262.605 112.536 258.263 118.669 258.263 125.494V179.245L255.54 179.619V125.316C255.54 116.496 261.145 108.594 268.06 107.658Z" fill="#C4C3C6"/>
<path d="M251.114 219.494L280.131 215.553V188.944L251.114 192.886V219.494Z" fill="#C4C3C6"/>
<path d="M250.263 201.331L279.27 197.38V193.279L250.263 197.23V201.331Z" fill="black"/>
<path d="M250.263 191.556L279.27 187.605V185.255L250.263 189.206V191.556Z" fill="white"/>
<path d="M250.263 185.948V222.874L251.872 222.65V185.724L250.263 185.948Z" fill="black"/>
<path d="M279.27 181.997V218.923L280.982 218.689V181.763L279.27 181.997Z" fill="black"/>
<path d="M250.263 286.952L281.141 282.748V211.489C281.141 205.254 277.529 200.704 273.085 201.303L258.338 203.316C253.893 203.915 250.282 209.458 250.282 215.684L250.263 286.952Z" fill="black"/>
<path d="M268.06 204.758L268.612 204.683C275.527 203.747 281.132 210.122 281.132 218.923V273.226L277.866 273.676V219.953C277.866 213.128 273.515 208.184 268.153 208.915H267.976C262.605 209.645 258.263 215.768 258.263 222.593V276.382L255.54 276.747V222.444C255.54 213.615 261.145 205.694 268.06 204.758Z" fill="#C4C3C6"/>
<path d="M265.618 97.6027L266.479 97.4903C277.314 96.011 286.128 106.001 286.128 119.792V275.099L281.01 275.801V121.43C281.01 110.738 274.198 102.996 265.796 104.138H265.505C257.084 105.28 250.291 114.877 250.291 125.578V279.977L246.024 280.557V125.25C245.996 111.459 254.782 99.082 265.618 97.6027Z" fill="white"/>
<path d="M366.589 328.157L318.999 334.626V120.616C318.999 109.063 329.648 98.2487 342.794 96.4605C355.941 94.6722 366.589 102.584 366.589 114.137V328.157Z" fill="black"/>
<path d="M342.158 110.617L341.559 110.701C333.905 111.74 327.692 119.989 327.692 129.117V185.471L331.313 184.975V129.23C331.313 122.142 336.123 115.747 342.065 114.942H342.261C348.203 114.137 353.012 119.221 353.012 126.299V182.053L356.025 181.641V125.269C356.025 116.131 349.821 109.577 342.158 110.617Z" fill="#C4C3C6"/>
<path d="M359.319 221.882L327.206 226.245V198.653L359.319 194.281V221.882Z" fill="#C4C3C6"/>
<path d="M360.264 202.791L328.151 207.164V202.904L360.264 198.531V202.791Z" fill="black"/>
<path d="M360.264 192.652L328.151 197.024V194.581L360.264 190.218V192.652Z" fill="white"/>
<path d="M360.264 186.838V225.131L358.477 225.374V187.081L360.264 186.838Z" fill="black"/>
<path d="M328.151 191.201V229.503L326.27 229.756V191.463L328.151 191.201Z" fill="black"/>
<path d="M360.245 291.577L326.092 296.258V221.91C326.092 215.674 329.694 210.141 334.148 209.533L352.189 207.08C356.633 206.471 360.245 211.031 360.245 217.257V291.577Z" fill="black"/>
<path d="M342.158 211.311L341.559 211.396C333.905 212.435 327.692 220.683 327.692 229.812V286.212L331.313 285.725V229.943C331.313 222.856 336.123 216.461 342.065 215.656H342.261C348.203 214.851 353.012 219.934 353.012 227.013V282.758L356.025 282.355V225.973C356.025 216.845 349.821 210.291 342.158 211.311Z" fill="#C4C3C6"/>
<path d="M343.262 99.6999L342.327 99.8216C330.303 101.46 320.6 114.38 320.6 128.687V289.723L326.27 288.956V128.855C326.27 117.76 333.802 107.742 343.113 106.478L343.403 106.45C352.704 105.186 360.245 113.154 360.245 124.239V284.34L364.924 283.703V122.648C364.98 108.323 355.258 98.024 343.262 99.6999Z" fill="white"/>
<path d="M279.55 331.527L327.14 325.048V111.038C327.14 99.4846 316.492 91.5638 303.345 93.3521C290.199 95.1403 279.55 105.954 279.55 117.508V331.527Z" fill="black"/>
<path d="M303.972 107.387L304.58 107.302C312.234 106.263 318.438 112.826 318.438 121.955V178.299L314.826 178.795V123.003C314.826 115.916 310.017 110.832 304.075 111.637H303.878C297.937 112.452 293.127 118.846 293.127 125.925V181.669L290.114 182.081V125.765C290.114 116.627 296.318 108.379 303.972 107.387Z" fill="#C4C3C6"/>
<path d="M286.821 223.277L318.925 218.905V191.313L286.821 195.676V223.277Z" fill="#C4C3C6"/>
<path d="M285.876 204.439L317.98 200.076V195.816L285.876 200.189V204.439Z" fill="black"/>
<path d="M285.876 194.309L317.98 189.937V187.493L285.876 191.865V194.309Z" fill="white"/>
<path d="M285.876 188.485V226.779L287.663 226.535V188.242L285.876 188.485Z" fill="black"/>
<path d="M317.98 184.113V222.416L319.87 222.153V183.86L317.98 184.113Z" fill="black"/>
<path d="M285.876 293.234L320.029 288.553V214.261C320.029 208.035 316.417 203.475 311.972 204.084L293.932 206.537C289.487 207.145 285.876 212.678 285.876 218.914V293.234Z" fill="black"/>
<path d="M303.972 208.053L304.58 207.969C312.234 206.93 318.438 213.493 318.438 222.622V278.966L314.826 279.462V223.717C314.826 216.629 310.017 211.546 304.075 212.351H303.878C297.937 213.165 293.127 219.56 293.127 226.638V282.383L290.114 282.795V226.479C290.114 217.341 296.318 209.093 303.972 208.053Z" fill="#C4C3C6"/>
<path d="M302.877 96.7226L303.813 96.5915C315.809 94.9624 325.531 105.233 325.531 119.539V280.595L319.86 281.372V121.271C319.86 110.177 312.319 102.209 303.018 103.482H302.709C293.408 104.746 285.866 114.718 285.866 125.859V285.959L281.188 286.596V125.559C281.15 111.281 290.882 98.3517 302.877 96.7226Z" fill="white"/>
<path d="M483.926 357.902L161.717 295.762V158.984C161.719 153.621 162.904 148.325 165.189 143.474C167.474 138.622 170.802 134.336 174.935 130.922C179.068 127.508 183.904 125.049 189.097 123.722C194.29 122.395 199.712 122.233 204.975 123.247L448.753 170.257C458.652 172.168 467.576 177.468 473.994 185.247C480.413 193.026 483.924 202.797 483.926 212.884V357.902Z" fill="black"/>
<path d="M467.467 227.556L179.168 175.209V162.102C179.173 160.263 179.555 158.445 180.289 156.759C181.024 155.074 182.096 153.557 183.439 152.302C184.782 151.048 186.369 150.082 188.1 149.465C189.83 148.847 191.669 148.592 193.503 148.713C239.008 151.641 284.325 156.982 329.264 164.714C371.609 171.984 413.53 181.539 454.845 193.335C458.861 194.486 462.37 196.963 464.801 200.363C467.232 203.762 468.442 207.885 468.234 212.06C467.979 217.222 467.723 222.387 467.467 227.556Z" fill="#C4C3C6"/>
<path d="M514.942 500.005C514.938 517.388 501.07 531.563 483.688 531.708C462.414 531.887 432.384 531.92 400.345 531.269C358.477 530.418 313.177 528.397 279.5 524C257.777 521.164 234.848 515.923 213.5 510.021C186.121 502.452 161.343 493.796 145.045 487.729C132.931 483.22 125.159 471.578 125.159 458.652V294.948C125.159 281.569 132.759 258.782 162.938 257.61C164.566 257.547 166.203 257.687 167.813 257.935L484.984 306.726C498.083 308.786 514.973 320.133 514.973 345.88L514.942 500.005Z" fill="black"/>
<path d="M179.168 334.027H197.003V172.925C197.003 164.236 193.016 157.186 188.085 157.186C183.154 157.186 179.168 164.236 179.168 172.925V334.027Z" fill="black"/>
<path d="M189.648 167.813H189.873C192.736 167.813 195.066 173.384 195.066 180.256V222.659H193.69V180.705C193.69 175.378 191.884 171.062 189.667 171.062H189.592C187.365 171.062 185.559 175.378 185.559 180.705V222.659H184.436V180.256C184.455 173.384 186.775 167.813 189.648 167.813Z" fill="#C4C3C6"/>
<path d="M181.891 253.303H193.924V232.537H181.891V253.303Z" fill="#C4C3C6"/>
<path d="M181.535 239.034H193.569V235.832H181.535V239.034Z" fill="black"/>
<path d="M181.535 231.413H193.569V229.578H181.535V231.413Z" fill="white"/>
<path d="M181.545 227.031V255.849H182.209V227.031H181.545Z" fill="black"/>
<path d="M193.569 227.031V255.849H194.28V227.031H193.569Z" fill="black"/>
<path d="M194.355 305.855H181.554V245.466C181.554 244.396 181.979 243.37 182.735 242.613C183.492 241.856 184.518 241.431 185.587 241.431H190.331C191.401 241.431 192.427 241.856 193.183 242.613C193.939 243.37 194.364 244.396 194.364 245.466V305.855H194.355Z" fill="black"/>
<path d="M189.648 243.612H189.873C192.736 243.612 195.066 249.183 195.066 256.055V298.459H193.69V256.505C193.69 251.177 191.884 246.852 189.667 246.852H189.592C187.365 246.852 185.559 251.177 185.559 256.505V298.459H184.436V256.055C184.455 249.183 186.775 243.612 189.648 243.612Z" fill="#C4C3C6"/>
<path d="M187.908 159.705H188.263C192.764 159.705 196.404 168.44 196.404 179.207V300.415H194.28V179.909C194.28 171.558 191.473 164.798 187.973 164.798H187.852C184.371 164.798 181.545 171.558 181.545 179.909V300.415H179.776V179.207C179.776 168.44 183.398 159.705 187.908 159.705Z" fill="white"/>
<path d="M467.467 379.904H449.633V218.802C449.633 210.113 453.628 203.063 458.55 203.063C463.472 203.063 467.467 210.113 467.467 218.802V379.904Z" fill="black"/>
<path d="M456.997 213.69H456.772C453.9 213.69 451.57 219.307 451.57 226.132V268.536H452.927V226.582C452.927 221.255 454.732 216.938 456.959 216.938H457.034C459.261 216.938 461.058 221.255 461.058 226.582V268.536H462.237V226.132C462.237 219.26 459.86 213.69 456.997 213.69Z" fill="#C4C3C6"/>
<path d="M464.744 278.413H452.711V299.18H464.744V278.413Z" fill="#C4C3C6"/>
<path d="M465.1 281.709H453.067V284.911H465.1V281.709Z" fill="black"/>
<path d="M465.1 275.445H453.067V277.28H465.1V275.445Z" fill="white"/>
<path d="M464.426 272.908V301.726H465.091V272.908H464.426Z" fill="black"/>
<path d="M452.356 272.908V301.726H453.067V272.908H452.356Z" fill="black"/>
<path d="M456.332 287.317H461.076C461.606 287.317 462.13 287.422 462.62 287.624C463.109 287.827 463.554 288.124 463.928 288.499C464.303 288.874 464.6 289.319 464.802 289.808C465.005 290.298 465.109 290.823 465.109 291.352V351.751H452.3V291.362C452.298 290.831 452.402 290.305 452.604 289.815C452.806 289.324 453.103 288.878 453.477 288.502C453.852 288.127 454.297 287.829 454.787 287.625C455.277 287.422 455.802 287.317 456.332 287.317V287.317Z" fill="black"/>
<path d="M456.997 289.489H456.772C453.9 289.489 451.57 295.06 451.57 301.932V344.335H452.927V302.382C452.927 297.054 454.732 292.729 456.959 292.729H457.034C459.261 292.729 461.058 297.054 461.058 302.382V344.335H462.237V301.932C462.237 295.06 459.86 289.489 456.997 289.489Z" fill="#C4C3C6"/>
<path d="M458.728 205.582H458.372C453.881 205.582 450.241 214.317 450.241 225.084V346.292H452.356V225.786C452.356 217.435 455.163 210.675 458.672 210.675H458.784C462.274 210.675 465.1 217.435 465.1 225.786V346.292H466.915V225.084C466.915 214.317 463.219 205.582 458.728 205.582Z" fill="white"/>
<path d="M452.608 371.478H420.364V210.375C420.507 206.192 422.268 202.228 425.275 199.319C428.283 196.41 432.303 194.784 436.486 194.784C440.67 194.784 444.689 196.41 447.697 199.319C450.705 202.228 452.466 206.192 452.608 210.375V371.478Z" fill="black"/>
<path d="M433.67 205.263H433.23C428.046 205.263 423.873 210.881 423.873 217.706V260.109H426.325V218.155C426.325 212.828 429.59 208.512 433.614 208.512H433.745C437.768 208.512 441.034 212.828 441.034 218.155V260.109H443.074V217.706C443.064 210.834 438.844 205.263 433.67 205.263Z" fill="#C4C3C6"/>
<path d="M447.687 269.987H425.932V290.753H447.687V269.987Z" fill="#C4C3C6"/>
<path d="M448.323 273.283H426.568V276.485H448.323V273.283Z" fill="black"/>
<path d="M448.323 267.019H426.568V268.854H448.323V267.019Z" fill="white"/>
<path d="M447.106 264.482V293.3H448.314V264.482H447.106Z" fill="black"/>
<path d="M425.286 264.482V293.3H426.568V264.482H425.286Z" fill="black"/>
<path d="M432.463 278.891H441.034C442.967 278.891 444.821 279.659 446.188 281.027C447.555 282.395 448.323 284.25 448.323 286.184V343.296H425.183V286.212C425.179 285.253 425.365 284.302 425.729 283.415C426.093 282.527 426.628 281.72 427.305 281.04C427.981 280.36 428.785 279.82 429.67 279.451C430.555 279.082 431.504 278.892 432.463 278.891V278.891Z" fill="black"/>
<path d="M433.67 281.063H433.23C428.046 281.063 423.873 286.634 423.873 293.506V335.909H426.325V293.955C426.325 288.628 429.59 284.302 433.614 284.302H433.745C437.768 284.302 441.034 288.628 441.034 293.955V335.909H443.074V293.506C443.064 286.634 438.844 281.063 433.67 281.063Z" fill="#C4C3C6"/>
<path d="M436.804 197.155H436.168C428.037 197.155 421.449 205.891 421.449 216.658V337.866H425.286V217.36C425.286 209.008 430.395 202.249 436.701 202.249H436.907C443.214 202.249 448.323 209.008 448.323 217.36V337.866H451.523V216.658C451.523 205.891 444.936 197.155 436.804 197.155Z" fill="white"/>
<path d="M192.549 334.027H222.267V172.925C222.267 164.236 215.614 157.186 207.408 157.186C199.202 157.186 192.549 164.236 192.549 172.925V334.027Z" fill="black"/>
<path d="M210 167.813H210.383C215.165 167.813 219.039 173.384 219.039 180.256V222.659H216.774V180.705C216.774 175.378 213.771 171.062 210.065 171.062H209.944C206.201 171.062 203.225 175.378 203.225 180.705V222.659H201.354V180.256C201.344 173.384 205.218 167.813 210 167.813Z" fill="#C4C3C6"/>
<path d="M197.087 253.303H217.139V232.537H197.087V253.303Z" fill="#C4C3C6"/>
<path d="M196.497 239.034H216.549V235.832H196.497V239.034Z" fill="black"/>
<path d="M196.497 231.413H216.549V229.578H196.497V231.413Z" fill="white"/>
<path d="M196.497 227.031V255.849H197.611V227.031H196.497Z" fill="black"/>
<path d="M216.549 227.031V255.849H217.728V227.031H216.549Z" fill="black"/>
<path d="M217.822 305.855H196.497V248.153C196.497 246.371 197.205 244.661 198.465 243.4C199.725 242.139 201.434 241.431 203.216 241.431H211.113C212.895 241.431 214.604 242.139 215.864 243.4C217.123 244.661 217.831 246.371 217.831 248.153V305.855H217.822Z" fill="black"/>
<path d="M210 243.612H210.383C215.165 243.612 219.039 249.183 219.039 256.055V298.459H216.774V256.505C216.774 251.177 213.771 246.852 210.065 246.852H209.944C206.201 246.852 203.225 251.177 203.225 256.505V298.459H201.354V256.055C201.344 249.183 205.218 243.612 210 243.612Z" fill="#C4C3C6"/>
<path d="M207.108 159.705H207.726C215.212 159.705 221.294 168.44 221.294 179.207V300.415H217.757V179.909C217.757 171.558 213.078 164.798 207.239 164.798H207.043C201.232 164.798 196.526 171.558 196.526 179.909V300.415H193.578V179.207C193.55 168.44 199.623 159.705 207.108 159.705Z" fill="white"/>
<path d="M425.857 363.987H383.207V202.885C383.207 194.197 392.761 187.147 404.532 187.147C416.303 187.147 425.857 194.197 425.857 202.885V363.987Z" fill="black"/>
<path d="M402.539 197.773H401.996C398.7 197.776 395.539 199.088 393.209 201.421C390.879 203.754 389.57 206.918 389.57 210.216V252.619H392.817V210.665C392.816 209.399 393.064 208.145 393.547 206.974C394.03 205.804 394.739 204.74 395.633 203.844C396.527 202.947 397.589 202.236 398.758 201.75C399.927 201.264 401.18 201.014 402.445 201.013H402.623C405.179 201.013 407.631 202.029 409.438 203.837C411.245 205.646 412.261 208.098 412.261 210.656V252.61H414.956V210.216C414.957 208.583 414.637 206.966 414.013 205.457C413.39 203.948 412.476 202.577 411.323 201.421C410.17 200.266 408.801 199.349 407.293 198.723C405.786 198.097 404.171 197.774 402.539 197.773Z" fill="#C4C3C6"/>
<path d="M419.344 262.497H390.571V283.263H419.344V262.497Z" fill="#C4C3C6"/>
<path d="M420.186 265.792H391.413V268.994H420.186V265.792Z" fill="black"/>
<path d="M420.186 259.529H391.413V261.364H420.186V259.529Z" fill="white"/>
<path d="M418.586 256.992V285.81H420.186V256.992H418.586Z" fill="black"/>
<path d="M389.72 256.992V285.81H391.414V256.992H389.72Z" fill="black"/>
<path d="M399.217 271.401H410.549C413.105 271.401 415.556 272.417 417.363 274.225C419.171 276.034 420.186 278.487 420.186 281.044V335.834H389.579V281.035C389.582 278.479 390.598 276.028 392.406 274.222C394.213 272.415 396.663 271.401 399.217 271.401Z" fill="black"/>
<path d="M402.539 273.573H401.996C398.7 273.575 395.539 274.887 393.209 277.221C390.879 279.554 389.57 282.717 389.57 286.016V328.419H392.817V286.465C392.824 283.914 393.842 281.47 395.646 279.668C397.451 277.865 399.896 276.852 402.445 276.85H402.623C405.18 276.852 407.631 277.87 409.439 279.68C411.246 281.49 412.261 283.944 412.261 286.503V328.456H414.956V286.016C414.957 284.383 414.637 282.766 414.013 281.257C413.39 279.748 412.476 278.377 411.323 277.221C410.17 276.066 408.801 275.149 407.293 274.523C405.786 273.897 404.171 273.574 402.539 273.573V273.573Z" fill="#C4C3C6"/>
<path d="M404.953 189.665H404.111C398.946 189.67 393.994 191.727 390.344 195.384C386.695 199.042 384.646 203.999 384.648 209.167V330.376H389.729V209.87C389.728 207.886 390.117 205.922 390.874 204.09C391.632 202.257 392.742 200.591 394.143 199.188C395.544 197.785 397.207 196.672 399.037 195.912C400.868 195.151 402.831 194.76 404.813 194.758H405.103C407.085 194.76 409.047 195.151 410.878 195.912C412.708 196.672 414.372 197.785 415.772 199.188C417.173 200.591 418.284 202.257 419.041 204.09C419.798 205.922 420.187 207.886 420.186 209.87V330.376H424.425V209.167C424.426 206.608 423.923 204.073 422.946 201.707C421.968 199.342 420.534 197.192 418.726 195.381C416.917 193.57 414.771 192.133 412.407 191.153C410.044 190.172 407.511 189.666 404.953 189.665V189.665Z" fill="white"/>
<path d="M215.286 335.9H257.936V174.797C257.936 166.109 248.382 159.059 236.611 159.059C224.84 159.059 215.286 166.109 215.286 174.797V335.9Z" fill="black"/>
<path d="M238.604 169.685H239.147C242.443 169.688 245.604 171 247.934 173.333C250.264 175.666 251.573 178.83 251.573 182.128V224.531H248.326V182.578C248.327 181.311 248.079 180.057 247.596 178.887C247.113 177.716 246.404 176.652 245.51 175.756C244.616 174.86 243.554 174.148 242.385 173.662C241.216 173.177 239.963 172.926 238.698 172.925H238.52C237.254 172.925 236.001 173.174 234.832 173.659C233.662 174.144 232.6 174.854 231.705 175.749C230.81 176.645 230.1 177.708 229.616 178.878C229.131 180.048 228.882 181.302 228.882 182.568V224.522H226.187V182.128C226.186 180.495 226.506 178.878 227.13 177.369C227.753 175.86 228.667 174.489 229.82 173.334C230.973 172.178 232.342 171.261 233.849 170.635C235.357 170.009 236.972 169.687 238.604 169.685V169.685Z" fill="#C4C3C6"/>
<path d="M221.799 255.175H250.572V234.409H221.799V255.175Z" fill="#C4C3C6"/>
<path d="M220.947 240.907H249.72V237.705H220.947V240.907Z" fill="black"/>
<path d="M220.947 233.286H249.72V231.45H220.947V233.286Z" fill="white"/>
<path d="M220.947 228.904V257.722H222.547V228.904H220.947Z" fill="black"/>
<path d="M249.72 228.904V257.722H251.414V228.904H249.72Z" fill="black"/>
<path d="M251.554 307.728H220.947V252.947C220.947 250.389 221.963 247.937 223.77 246.128C225.577 244.32 228.029 243.304 230.585 243.304H241.926C244.482 243.304 246.933 244.32 248.741 246.128C250.548 247.937 251.563 250.389 251.563 252.947V307.728H251.554Z" fill="black"/>
<path d="M238.604 245.485H239.147C242.443 245.487 245.604 246.8 247.934 249.133C250.264 251.466 251.573 254.629 251.573 257.928V300.331H248.326V258.377C248.319 255.826 247.301 253.382 245.497 251.58C243.692 249.778 241.247 248.764 238.698 248.762H238.52C235.963 248.764 233.511 249.782 231.704 251.592C229.897 253.402 228.882 255.856 228.882 258.415V300.369H226.187V257.928C226.186 256.295 226.506 254.678 227.13 253.169C227.753 251.66 228.667 250.289 229.82 249.133C230.973 247.978 232.342 247.061 233.849 246.435C235.357 245.809 236.972 245.486 238.604 245.485V245.485Z" fill="#C4C3C6"/>
<path d="M236.19 161.577H237.032C242.197 161.582 247.149 163.639 250.799 167.297C254.448 170.954 256.497 175.911 256.495 181.08V302.288H251.414V181.782C251.415 179.799 251.026 177.835 250.269 176.002C249.511 174.169 248.4 172.504 247 171.1C245.599 169.697 243.936 168.584 242.105 167.824C240.275 167.064 238.312 166.672 236.33 166.671H236.04C234.058 166.672 232.096 167.064 230.265 167.824C228.434 168.584 226.771 169.697 225.371 171.1C223.97 172.504 222.859 174.169 222.102 176.002C221.345 177.835 220.956 179.799 220.957 181.782V302.288H216.718V181.08C216.717 178.52 217.219 175.985 218.197 173.619C219.175 171.254 220.609 169.104 222.417 167.293C224.225 165.482 226.372 164.045 228.736 163.065C231.099 162.084 233.632 161.579 236.19 161.577V161.577Z" fill="white"/>
<path d="M390.188 361.179H342.991V194.15C342.991 185.124 353.555 177.821 366.589 177.821C379.624 177.821 390.188 185.096 390.188 194.15V361.179Z" fill="black"/>
<path d="M365.972 188.841H365.373C357.775 188.841 351.618 194.618 351.618 201.743V245.747H355.211V202.174C355.211 196.65 359.983 192.174 365.869 192.174H366.065C371.951 192.174 376.732 196.65 376.732 202.174V245.682H379.717V201.677C379.717 194.581 373.56 188.841 365.972 188.841Z" fill="#C4C3C6"/>
<path d="M382.983 255.924H351.141V277.458H382.983V255.924Z" fill="#C4C3C6"/>
<path d="M383.918 259.342H352.077V262.665H383.918V259.342Z" fill="black"/>
<path d="M383.918 252.853H352.077V254.754H383.918V252.853Z" fill="white"/>
<path d="M382.15 250.222V280.108H383.918V250.222H382.15Z" fill="black"/>
<path d="M350.205 250.213V280.099H352.076V250.213H350.205Z" fill="black"/>
<path d="M359.684 265.156H374.281C376.837 265.156 379.288 266.172 381.096 267.98C382.903 269.789 383.918 272.242 383.918 274.799V331.967H350.046V274.799C350.046 272.242 351.061 269.789 352.869 267.98C354.676 266.172 357.128 265.156 359.684 265.156V265.156Z" fill="black"/>
<path d="M365.972 267.412H365.373C357.775 267.412 351.618 273.189 351.618 280.314V324.318H355.211V280.782C355.211 275.258 359.983 270.773 365.869 270.773H366.065C371.951 270.773 376.732 275.258 376.732 280.782V324.29H379.717V280.286C379.717 273.189 373.56 267.412 365.972 267.412Z" fill="#C4C3C6"/>
<path d="M367.057 180.415H366.121C354.229 180.415 344.6 189.469 344.6 200.638V326.322H350.214V201.35C350.214 192.689 357.7 185.677 366.917 185.677H367.225C376.451 185.677 383.928 192.689 383.928 201.35V326.322H388.606V200.619C388.606 189.45 378.959 180.415 367.057 180.415Z" fill="white"/>
<path d="M250.852 347.135H298.058V180.106C298.058 171.08 287.494 163.778 274.46 163.778C261.426 163.778 250.852 171.08 250.852 180.106V347.135Z" fill="black"/>
<path d="M275.096 174.797H275.695C283.293 174.797 289.45 180.574 289.45 187.699V231.703H285.857V188.13C285.857 182.606 281.085 178.13 275.199 178.13H275.003C269.108 178.13 264.336 182.606 264.336 188.13V231.638H261.351V187.633C261.332 180.537 267.489 174.797 275.096 174.797Z" fill="#C4C3C6"/>
<path d="M258.067 263.424H289.909V241.89H258.067V263.424Z" fill="#C4C3C6"/>
<path d="M257.131 248.631H288.973V245.307H257.131V248.631Z" fill="black"/>
<path d="M257.131 240.71H288.973V238.809H257.131V240.71Z" fill="white"/>
<path d="M257.131 236.179V266.064H258.899V236.179H257.131Z" fill="black"/>
<path d="M288.973 236.169V266.055H290.844V236.169H288.973Z" fill="black"/>
<path d="M291.003 317.923H257.131V260.755C257.131 258.198 258.146 255.745 259.954 253.936C261.761 252.128 264.213 251.112 266.769 251.112H281.366C283.922 251.112 286.373 252.128 288.18 253.936C289.988 255.745 291.003 258.198 291.003 260.755V317.923Z" fill="black"/>
<path d="M275.096 253.368H275.695C283.293 253.368 289.45 259.145 289.45 266.27V310.274H285.857V266.738C285.857 261.214 281.085 256.729 275.199 256.729H275.003C269.108 256.729 264.336 261.214 264.336 266.738V310.246H261.351V266.242C261.332 259.145 267.489 253.368 275.096 253.368Z" fill="#C4C3C6"/>
<path d="M273.992 166.371H274.928C286.821 166.371 296.449 175.425 296.449 186.594V312.278H290.835V187.306C290.835 178.645 283.349 171.633 274.133 171.633H273.824C264.598 171.633 257.122 178.645 257.122 187.306V312.278H252.443V186.576C252.443 175.406 262.09 166.371 273.992 166.371Z" fill="white"/>
<path d="M308.08 168.721H331.575C334.199 168.721 336.796 169.238 339.22 170.243C341.644 171.247 343.846 172.72 345.701 174.576C347.556 176.432 349.028 178.635 350.032 181.061C351.036 183.486 351.552 186.085 351.552 188.71V335.375H288.103V188.71C288.103 186.085 288.619 183.486 289.623 181.061C290.627 178.635 292.099 176.432 293.954 174.576C295.809 172.72 298.011 171.247 300.435 170.243C302.859 169.238 305.456 168.721 308.08 168.721Z" fill="black"/>
<path d="M320.459 170.594H319.196C303.205 170.594 290.245 180.228 290.245 192.127V326.013H297.796V192.905C297.796 183.682 307.846 176.211 320.253 176.211H320.674C333.082 176.211 343.131 183.701 343.131 192.905V326.013H349.428V192.127C349.419 180.228 336.45 170.594 320.459 170.594Z" fill="white"/>
<path d="M319.374 179.544H318.569C308.36 179.544 300.089 185.695 300.089 193.288V240.102H304.908V193.757C304.908 187.868 311.327 183.102 319.243 183.102H319.505C327.421 183.102 333.84 187.868 333.84 193.757V240.102H337.854V193.288C337.854 185.695 329.582 179.544 319.374 179.544Z" fill="#C4C3C6"/>
<path d="M341.859 246.899H299.05V269.837H341.859V246.899Z" fill="#C4C3C6"/>
<path d="M343.122 250.541H300.314V254.08H343.122V250.541Z" fill="black"/>
<path d="M343.122 243.622H300.314V245.654H343.122V243.622Z" fill="white"/>
<path d="M340.745 240.813V272.646H343.122V240.813H340.745Z" fill="black"/>
<path d="M297.796 240.813V272.646H300.313V240.813H297.796Z" fill="black"/>
<path d="M311.926 256.729H328.768C332.57 256.729 336.216 258.241 338.905 260.931C341.593 263.621 343.103 267.269 343.103 271.073V327.885H297.553V271.073C297.553 269.186 297.925 267.318 298.648 265.575C299.371 263.833 300.43 262.25 301.765 260.917C303.1 259.585 304.685 258.529 306.428 257.811C308.172 257.092 310.04 256.725 311.926 256.729V256.729Z" fill="black"/>
<path d="M320.861 259.126H320.057C309.848 259.126 301.577 265.278 301.577 272.871V319.684H306.396V273.339C306.396 267.45 312.814 262.684 320.73 262.684H320.992C328.908 262.684 335.327 267.45 335.327 273.339V319.684H339.342V272.871C339.342 265.278 331.07 259.126 320.861 259.126Z" fill="#C4C3C6"/>
<path d="M313.161 156.896C309.967 156.347 306.891 155.676 303.935 154.883C303.878 154.724 303.822 154.565 303.757 154.415C300.65 154.49 297.45 154.415 294.175 154.19C291.817 154.19 289.497 154.237 287.176 154.293L286.998 154.855C297.834 157.786 302.269 163.703 302.269 163.703C307.606 160.618 313.689 159.063 319.851 159.209V158.628C317.671 158.029 315.425 157.458 313.161 156.896Z" fill="black"/>
<path d="M359.309 164.733C356.381 164.18 353.564 163.515 350.888 162.72C350.841 162.56 350.785 162.401 350.729 162.251C347.802 162.325 344.872 162.25 341.952 162.027C339.791 162.027 337.639 162.027 335.533 162.13L335.374 162.691C345.293 165.622 349.363 171.539 349.363 171.539C354.168 168.479 359.772 166.912 365.466 167.036V166.465C363.455 165.865 361.396 165.285 359.309 164.733Z" fill="black"/>
<path d="M396.644 174.161C394.419 173.492 392.232 172.701 390.094 171.792C390.094 171.652 390.038 171.511 390.001 171.371C387.675 171.223 385.36 170.942 383.067 170.528C381.355 170.378 379.642 170.247 377.977 170.154L377.808 170.631C385.444 173.899 388.213 179.357 388.213 179.357C392.174 177.064 396.767 176.106 401.313 176.623V176.127C399.825 175.453 398.244 174.797 396.644 174.161Z" fill="black"/>
<path d="M259.545 150.455C262.081 150.455 264.588 150.455 267.087 150.23L267.47 149.883C269.707 150.423 271.972 150.839 274.254 151.129C275.882 151.494 277.501 151.859 279.054 152.252L278.858 152.73C273.373 153.148 268.048 154.779 263.269 157.505C261.466 154.353 258.244 152.283 253.603 151.297L253.931 150.838C255.783 150.651 257.664 150.53 259.545 150.455Z" fill="black"/>
<path d="M426.68 181.482C424.916 180.918 423.188 180.246 421.506 179.469C421.506 179.329 421.431 179.188 421.384 179.057C419.619 179.027 417.859 178.871 416.116 178.589C414.825 178.533 413.534 178.496 412.28 178.486L412.214 178.973C415.92 180.736 419.013 183.57 421.094 187.109C422.321 185.906 423.791 184.979 425.404 184.388C427.017 183.797 428.738 183.557 430.451 183.682V183.177C429.216 182.596 427.953 182.035 426.68 181.482Z" fill="black"/>
<path d="M235.629 147.908C233.729 147.519 231.855 147.019 230.014 146.41L229.79 146.017C228.02 146.144 226.244 146.144 224.475 146.017C223.184 146.092 221.902 146.176 220.657 146.288L220.713 146.766C224.856 148.198 228.559 150.674 231.465 153.956C232.431 152.628 233.698 151.547 235.161 150.802C236.625 150.056 238.244 149.668 239.886 149.668L239.727 149.172C238.398 148.76 237.013 148.329 235.629 147.908Z" fill="black"/>
<path d="M210.748 145.296C208.849 144.906 206.975 144.406 205.134 143.798C205.069 143.667 204.994 143.536 204.919 143.405C203.151 143.546 201.375 143.565 199.604 143.461C198.303 143.526 197.022 143.611 195.786 143.723L195.843 144.2C199.984 145.633 203.687 148.109 206.594 151.391C207.561 150.063 208.827 148.982 210.291 148.237C211.754 147.492 213.373 147.103 215.015 147.103L214.865 146.607C213.527 146.157 212.142 145.717 210.748 145.296Z" fill="black"/>
<path d="M450.176 187.577C448.411 187.013 446.683 186.341 445.001 185.564C445.001 185.424 444.917 185.283 444.88 185.152C443.115 185.122 441.354 184.966 439.611 184.684C438.311 184.628 437.029 184.591 435.775 184.581L435.71 185.068C439.416 186.831 442.509 189.665 444.589 193.204C445.817 192.002 447.286 191.074 448.899 190.483C450.513 189.892 452.233 189.652 453.946 189.778V189.272C452.711 188.691 451.448 188.13 450.176 187.577Z" fill="black"/>
<path d="M459.214 191.5C459.274 190.285 458.924 189.085 458.22 188.093C457.515 187.101 456.498 186.376 455.331 186.032C414.004 173.817 371.997 164.035 329.526 156.737C284.78 149.048 239.635 143.896 194.308 141.307C193.747 141.275 193.186 141.358 192.659 141.551C192.132 141.744 191.649 142.042 191.241 142.427C190.833 142.813 190.508 143.278 190.285 143.794C190.063 144.309 189.948 144.865 189.948 145.427V145.427C236.739 147.924 283.345 153.154 329.526 161.09C373.328 168.607 416.636 178.762 459.214 191.5V191.5Z" fill="white"/>
<path d="M296.393 155.342C298.604 156.621 300.579 158.271 302.232 160.22C304.746 158.73 307.458 157.604 310.288 156.877C305.694 156.231 301.043 155.773 296.393 155.342Z" fill="white"/>
<path d="M353.751 164.77C350.252 163.834 346.752 163.263 343.225 162.701C345.584 164.088 347.663 165.904 349.354 168.056C351.164 166.891 353.109 165.948 355.146 165.247L353.751 164.77Z" fill="white"/>
<path d="M384.573 171.455C386.025 172.717 387.258 174.21 388.223 175.874C390.879 174.321 393.849 173.384 396.915 173.131C392.845 172.401 388.765 171.867 384.573 171.455Z" fill="white"/>
<path d="M259.975 150.455C261.32 151.389 262.444 152.607 263.269 154.022C264.654 153.181 266.106 152.458 267.611 151.859C265.084 151.391 262.53 150.885 259.975 150.455Z" fill="white"/>
<path d="M416.097 177.896C418.109 179.474 419.804 181.418 421.094 183.626C422.459 182.295 424.12 181.307 425.941 180.743C422.691 179.788 419.41 178.839 416.097 177.896Z" fill="white"/>
<path d="M228.386 147.58C229.506 148.461 230.54 149.445 231.474 150.52C232.229 149.46 233.182 148.557 234.281 147.861C232.335 147.777 230.36 147.693 228.386 147.58Z" fill="white"/>
<path d="M200.717 142.964C202.916 144.288 204.898 145.943 206.594 147.87C207.466 146.663 208.594 145.662 209.897 144.94C206.79 144.341 203.777 143.648 200.717 142.964Z" fill="white"/>
<path d="M440.145 184.46C441.917 185.945 443.421 187.725 444.589 189.721C446.167 188.177 448.138 187.096 450.288 186.594C446.919 185.845 443.523 185.18 440.145 184.46Z" fill="white"/>
<path d="M471.64 320.395C471.491 303.72 472.08 295.35 471.856 273.479C471.762 265.352 461.872 261.392 456.351 267.319C437.918 287.092 413.056 276.588 388.803 278.338C387.24 278.451 385.06 282.514 383.507 282.58C381.012 282.673 378.491 282.708 375.946 282.683C372.653 282.683 372.203 277.926 368.779 277.758C364.1 277.533 354.818 277.599 350.009 277.159C346.649 276.85 342.158 279.855 338.733 279.424C335.496 279.012 332.043 275.071 328.74 274.584C326.494 274.256 323.5 277.14 321.255 276.775C314.386 275.651 305.89 269.856 298.751 270.221C294.737 270.399 292.566 273.966 288.402 273.498C285.193 273.17 281.674 270.277 278.409 269.669C271.447 268.377 269.866 272.908 262.726 272.019C259.835 271.663 255.568 275.689 252.705 275.277C245.959 274.284 234.44 269.453 228.948 268.723C226.328 268.367 223.333 272.964 221.097 272.58C214.154 271.354 209.335 269.931 207.67 268.171C202.523 262.712 201.981 270.979 193.887 270.492C191.08 270.315 189.938 267.159 186.401 266.616C185.915 266.532 183.21 269.135 182.724 269.06C180.45 268.695 178.139 268.311 175.903 267.965C174.609 267.766 173.287 267.852 172.03 268.216C170.773 268.579 169.61 269.213 168.621 270.071C167.633 270.93 166.843 271.994 166.307 273.189C165.771 274.383 165.501 275.681 165.516 276.99V277.252C165.524 279.55 166.408 281.758 167.986 283.426C169.565 285.094 171.72 286.098 174.013 286.231C225.338 288.946 276.475 294.5 327.187 302.868C380.625 311.613 423.396 319.15 460.328 329.271C461.675 329.627 463.086 329.666 464.45 329.385C465.814 329.103 467.095 328.509 468.191 327.649C469.287 326.789 470.169 325.687 470.768 324.428C471.366 323.169 471.665 321.789 471.64 320.395V320.395Z" fill="black"/>
<path d="M438.236 173.861C438.367 172.925 437.235 102.921 437.366 101.994C425.913 120.073 402.698 142.393 380.456 142.702C379.343 142.702 377.172 145.034 376.04 145.024C374.271 145.024 372.475 144.931 370.66 144.828C368.311 144.697 368.61 141.907 366.206 141.691C362.893 141.401 356.259 141.129 352.834 140.755C350.439 140.465 347.22 142.103 344.816 141.691C342.411 141.279 340.034 138.882 337.685 138.47C336.076 138.199 333.943 139.828 332.333 139.528C327.44 138.592 321.367 134.847 316.295 134.847C313.432 134.847 311.243 136.813 308.276 136.42C305.984 136.12 303.476 134.285 301.146 133.808C296.187 132.806 291.078 129.333 285.997 128.565C283.929 128.256 280.907 130.512 278.867 130.166C274.058 129.351 265.842 126.093 261.931 125.485C260.06 125.194 257.936 127.835 256.317 127.526C251.367 126.589 247.896 125.559 246.745 124.455C243.058 121.037 242.702 125.962 236.938 125.391C234.955 125.185 234.131 123.275 231.596 122.826C231.249 122.769 229.331 124.23 228.985 124.164C224.578 123.369 219.955 122.479 216.718 122.189C216.643 123.125 216.858 132.609 216.793 133.555C249.542 136.448 288.767 141.186 331.95 149.097C374.009 156.784 409.575 165.631 438.236 173.861Z" fill="black"/>
<path d="M436.804 197.155H436.168C428.037 197.155 421.449 205.891 421.449 216.658V306.033C423.564 306.033 425.286 304.75 425.286 303.224V217.36C425.286 209.008 430.395 202.249 436.701 202.249H436.907C443.214 202.249 448.323 209.008 448.323 217.36V298.037C448.323 299.348 449.754 300.415 451.523 300.415V216.658C451.523 205.891 444.936 197.155 436.804 197.155Z" fill="white"/>
<path d="M495.5 444.5L144.398 310.555V289.564C144.398 282.72 153.829 277.393 164.637 278.123C219.658 281.756 274.453 288.259 328.796 297.607C382.057 306.755 434.771 318.845 486.696 333.821C495.014 336.227 500.245 341.536 499.955 347.303C499.506 356.472 495.955 435.325 495.5 444.5Z" fill="#C4C3C6"/>
<path d="M156.505 488.313H176.763V305.424C176.763 295.547 172.225 287.542 166.639 287.542C161.053 287.542 156.505 295.547 156.505 305.424V488.313Z" fill="black"/>
<path d="M168.426 299.573H168.679C171.935 299.573 174.574 305.902 174.574 313.701V361.853H173.039V314.216C173.039 308.168 170.99 303.262 168.464 303.262H168.38C165.853 303.262 163.804 308.168 163.804 314.216V361.853H162.522V313.701C162.503 305.874 165.142 299.573 168.426 299.573Z" fill="#C4C3C6"/>
<path d="M159.603 396.644H173.264V373.06H159.603V396.644Z" fill="#C4C3C6"/>
<path d="M159.2 380.447H172.862V376.814H159.2V380.447Z" fill="black"/>
<path d="M159.2 371.777H172.862V369.689H159.2V371.777Z" fill="white"/>
<path d="M159.21 366.815V399.537H159.968V366.815H159.21Z" fill="black"/>
<path d="M172.862 366.815V399.537H173.666V366.815H172.862Z" fill="black"/>
<path d="M173.732 456.321H159.2V387.197C159.2 386.127 159.625 385.101 160.381 384.344C161.138 383.587 162.164 383.162 163.233 383.162H169.708C170.778 383.162 171.804 383.587 172.56 384.344C173.316 385.101 173.741 386.127 173.741 387.197V456.321H173.732Z" fill="black"/>
<path d="M168.426 385.634H168.679C171.935 385.634 174.574 391.963 174.574 399.771V447.923H173.039V400.277C173.039 394.229 170.99 389.323 168.464 389.323H168.38C165.853 389.323 163.804 394.229 163.804 400.277V447.923H162.522V399.771C162.503 392.01 165.142 385.634 168.426 385.634Z" fill="#C4C3C6"/>
<path d="M166.433 290.369H166.836C171.935 290.369 176.08 300.284 176.08 312.503V450.133H173.666V313.308C173.666 303.833 170.457 296.146 166.499 296.146H166.368C162.41 296.146 159.2 303.833 159.2 313.308V450.142H157.198V312.512C157.198 300.256 161.334 290.369 166.433 290.369Z" fill="white"/>
<path d="M497.157 528.919H482.336V369.689C482.336 361.094 485.657 354.129 489.746 354.129C493.835 354.129 497.157 361.094 497.157 369.689V528.919Z" fill="black"/>
<path d="M488.436 364.596H488.249C485.863 364.596 483.926 370.101 483.926 376.899V430.824H485.058V377.348C485.058 372.077 486.556 367.807 488.408 367.807H488.464C490.336 367.807 491.814 372.077 491.814 377.348V430.824H492.75V376.899C492.769 370.101 490.841 364.596 488.436 364.596Z" fill="#C4C3C6"/>
<path d="M494.902 438.879H484.899V459.411H494.902V438.879Z" fill="#C4C3C6"/>
<path d="M495.192 442.137H485.189V445.302H495.192V442.137Z" fill="black"/>
<path d="M495.192 435.948H485.189V437.765H495.192V435.948Z" fill="white"/>
<path d="M494.631 433.439V461.93H495.183V433.439H494.631Z" fill="black"/>
<path d="M484.609 433.439V461.93H485.199V433.439H484.609Z" fill="black"/>
<path d="M488.586 447.68H491.169C492.238 447.68 493.264 448.105 494.02 448.862C494.777 449.618 495.201 450.645 495.201 451.715V511.374H484.553V451.715C484.553 450.645 484.978 449.618 485.734 448.862C486.491 448.105 487.516 447.68 488.586 447.68V447.68Z" fill="black"/>
<path d="M488.436 449.824H488.249C485.863 449.824 483.926 455.329 483.926 462.126V504.052H485.058V462.576C485.058 457.305 486.556 453.035 488.408 453.035H488.464C490.336 453.035 491.814 457.305 491.814 462.576V504.052H492.75V462.126C492.769 455.329 490.841 449.824 488.436 449.824Z" fill="#C4C3C6"/>
<path d="M489.896 356.582H489.606C485.863 356.582 482.841 365.214 482.841 375.859V495.701H484.6V376.552C484.6 368.304 486.949 361.572 489.849 361.572H489.943C492.844 361.572 495.192 368.266 495.192 376.552V495.691H496.661V375.85C496.661 365.214 493.63 356.582 489.896 356.582Z" fill="white"/>
<path d="M142.676 461.508H157.497V302.279C157.497 293.684 154.185 286.718 150.087 286.718C145.988 286.718 142.676 293.684 142.676 302.279V461.508Z" fill="black"/>
<path d="M151.387 297.185H151.574C153.951 297.185 155.888 302.691 155.888 309.488V363.414H154.765V309.937C154.765 304.666 153.259 300.397 151.415 300.397H151.35C149.478 300.397 148 304.666 148 309.937V363.414H147.064V309.488C147.064 302.691 149.001 297.185 151.387 297.185Z" fill="#C4C3C6"/>
<path d="M144.94 392H154.943V371.468H144.94V392Z" fill="#C4C3C6"/>
<path d="M144.641 377.9H154.643V374.736H144.641V377.9Z" fill="black"/>
<path d="M144.641 370.354H154.643V368.538H144.641V370.354Z" fill="white"/>
<path d="M144.641 366.019V394.51H145.193V366.019H144.641Z" fill="black"/>
<path d="M154.653 366.029V394.519H155.242V366.029H154.653Z" fill="black"/>
<path d="M155.28 443.953H144.603V384.295C144.603 383.225 145.028 382.198 145.785 381.442C146.541 380.685 147.567 380.26 148.636 380.26H151.219C152.288 380.26 153.314 380.685 154.071 381.442C154.827 382.198 155.252 383.225 155.252 384.295V443.953H155.28Z" fill="black"/>
<path d="M151.387 382.413H151.574C153.951 382.413 155.888 387.918 155.888 394.716V436.641H154.765V395.165C154.765 389.894 153.259 385.624 151.415 385.624H151.35C149.478 385.624 148 389.894 148 395.165V436.641H147.064V394.716C147.064 387.918 149.001 382.413 151.387 382.413Z" fill="#C4C3C6"/>
<path d="M150.946 289.171H151.236C154.979 289.171 158.002 297.803 158.002 308.448V435.29H156.233V309.141C156.233 300.893 153.884 294.161 150.993 294.161H150.89C147.999 294.161 145.65 300.855 145.65 309.141V435.28H144.162V308.439C144.162 297.803 147.204 289.171 150.946 289.171Z" fill="white"/>
<path d="M483.87 516.748H463.622V361.946C463.622 352.069 468.16 344.064 473.746 344.064C479.332 344.064 483.87 352.069 483.87 361.946V516.748Z" fill="black"/>
<path d="M471.977 356.095H471.725C468.469 356.095 465.821 362.415 465.821 370.223V418.375H467.364V370.738C467.364 364.68 469.414 359.774 471.94 359.774H472.024C474.551 359.774 476.6 364.68 476.6 370.738V421.375H477.882V370.223C477.882 362.415 475.234 356.095 471.977 356.095Z" fill="#C4C3C6"/>
<path d="M480.782 429.591H467.121V453.176H480.782V429.591Z" fill="#C4C3C6"/>
<path d="M481.185 433.327H467.523V436.96H481.185V433.327Z" fill="black"/>
<path d="M481.185 426.221H467.523V428.309H481.185V426.221Z" fill="white"/>
<path d="M480.427 423.337V456.059H481.185V423.337H480.427Z" fill="black"/>
<path d="M466.719 423.337V456.059H467.523V423.337H466.719Z" fill="black"/>
<path d="M470.658 439.693H477.133C478.203 439.693 479.228 440.119 479.985 440.875C480.741 441.632 481.166 442.659 481.166 443.729V512.853H466.653V443.729C466.653 442.659 467.078 441.632 467.834 440.875C468.591 440.119 469.616 439.693 470.686 439.693H470.658Z" fill="black"/>
<path d="M471.977 442.156H471.725C468.469 442.156 465.821 448.485 465.821 456.293V504.436H467.364V456.799C467.364 450.751 469.414 445.845 471.94 445.845H472.024C474.551 445.845 476.6 450.751 476.6 456.799V504.436H477.882V456.293C477.882 448.485 475.234 442.156 471.977 442.156Z" fill="#C4C3C6"/>
<path d="M473.952 346.891H473.549C468.44 346.891 464.305 356.797 464.305 369.025V506.655H466.719V369.83C466.719 360.345 469.928 352.668 473.886 352.668H474.017C477.975 352.668 481.185 360.345 481.185 369.83V506.664H483.187V369.034C483.187 356.797 479.079 346.891 473.952 346.891Z" fill="white"/>
<path d="M468 508.496H430.423V351.694C430.531 346.908 432.507 342.354 435.929 339.007C439.35 335.66 443.945 333.786 448.73 333.786C453.515 333.786 458.11 335.66 461.531 339.007C464.953 342.354 467.929 346.908 468.037 351.694L468 508.496Z" fill="black"/>
<path d="M445.497 345.843H445.029C439.134 345.843 434.362 352.172 434.362 359.971V408.123H437.169V360.486C437.169 354.438 440.912 349.532 445.441 349.532H445.6C450.166 349.532 453.872 354.438 453.872 360.486V411.123H456.183V359.971C456.155 352.172 451.383 345.843 445.497 345.843Z" fill="#C4C3C6"/>
<path d="M461.404 419.339H436.701V442.924H461.404V419.339Z" fill="#C4C3C6"/>
<path d="M462.134 423.084H437.431V426.717H462.134V423.084Z" fill="black"/>
<path d="M462.134 415.969H437.431V418.057H462.134V415.969Z" fill="white"/>
<path d="M460.758 413.085V445.807H462.134V413.085H460.758Z" fill="black"/>
<path d="M435.981 413.085V445.807H437.431V413.085H435.981Z" fill="black"/>
<path d="M443.139 429.46H454.845C456.778 429.46 458.632 430.229 459.999 431.596C461.366 432.964 462.134 434.819 462.134 436.754V502.62H435.859V436.735C435.864 434.805 436.633 432.957 437.997 431.593C439.362 430.23 441.211 429.463 443.139 429.46V429.46Z" fill="black"/>
<path d="M445.497 431.904H445.029C439.134 431.904 434.362 438.233 434.362 446.041V494.193H437.169V446.547C437.169 440.499 440.912 435.593 445.441 435.593H445.6C450.166 435.593 453.872 440.499 453.872 446.547V494.193H456.183V446.041C456.155 438.233 451.383 431.904 445.497 431.904Z" fill="#C4C3C6"/>
<path d="M449.053 336.639H448.323C439.097 336.639 431.62 346.554 431.62 358.772V496.403H435.981V359.578C435.981 350.103 441.773 342.416 448.931 342.416H449.137C456.295 342.416 462.096 350.103 462.096 359.578V496.412H465.727V358.782C465.764 346.554 458.279 336.639 449.053 336.639Z" fill="white"/>
<path d="M171.701 490.186H205.443V307.297C205.443 297.419 197.892 289.414 188.6 289.414C179.309 289.414 171.757 297.419 171.757 307.297L171.701 490.186Z" fill="black"/>
<path d="M191.52 301.445H191.95C197.377 301.445 201.775 307.774 201.775 315.573V363.725H199.211V316.088C199.211 310.04 195.796 305.134 191.594 305.134H191.445C187.234 305.134 183.828 310.04 183.828 316.088V363.725H181.685V315.573C181.685 307.746 186.092 301.445 191.52 301.445Z" fill="#C4C3C6"/>
<path d="M176.848 398.517H199.613V374.932H176.848V398.517Z" fill="#C4C3C6"/>
<path d="M176.183 382.319H198.949V378.687H176.183V382.319Z" fill="black"/>
<path d="M176.183 373.65H198.949V371.562H176.183V373.65Z" fill="white"/>
<path d="M176.183 368.687V401.41H177.447V368.687H176.183Z" fill="black"/>
<path d="M198.958 368.687V401.41H200.296V368.687H198.958Z" fill="black"/>
<path d="M200.399 458.194H176.183V391.72C176.183 389.937 176.891 388.227 178.151 386.966C179.411 385.705 181.12 384.997 182.902 384.997H193.681C195.463 384.997 197.172 385.705 198.432 386.966C199.691 388.227 200.399 389.937 200.399 391.72V458.194Z" fill="black"/>
<path d="M191.52 387.506H191.95C197.377 387.506 201.775 393.835 201.775 401.644V449.796H199.211V402.149C199.211 396.101 195.796 391.195 191.594 391.195H191.445C187.234 391.195 183.828 396.101 183.828 402.149V449.796H181.685V401.644C181.685 393.882 186.092 387.506 191.52 387.506Z" fill="#C4C3C6"/>
<path d="M188.235 292.242H188.909C197.414 292.242 204.311 302.157 204.311 314.375V452.005H200.287V315.18C200.287 305.705 194.944 298.019 188.347 298.019H188.123C181.526 298.019 176.183 305.705 176.183 315.18V452.015H172.833V314.384C172.833 302.129 179.73 292.242 188.235 292.242Z" fill="white"/>
<path d="M436.627 526.073H388.195V343.184C388.195 333.316 399.039 325.311 412.411 325.311C425.782 325.311 436.627 333.316 436.627 343.184V526.073Z" fill="black"/>
<path d="M410.146 337.332H409.529C407.674 337.333 405.839 337.7 404.126 338.411C402.413 339.122 400.857 340.164 399.547 341.477C398.237 342.79 397.198 344.348 396.489 346.062C395.781 347.777 395.417 349.614 395.418 351.47V399.622H399.105V351.975C399.104 350.537 399.386 349.113 399.935 347.784C400.484 346.455 401.289 345.247 402.305 344.23C403.321 343.213 404.527 342.406 405.855 341.855C407.183 341.304 408.606 341.021 410.043 341.021H410.249C411.686 341.022 413.108 341.307 414.434 341.858C415.761 342.409 416.966 343.216 417.981 344.233C418.996 345.25 419.8 346.458 420.349 347.786C420.898 349.114 421.179 350.538 421.178 351.975V399.622H424.247V351.47C424.25 347.724 422.766 344.131 420.122 341.48C417.477 338.829 413.889 337.337 410.146 337.332Z" fill="#C4C3C6"/>
<path d="M429.235 410.829H396.56V434.413H429.235V410.829Z" fill="#C4C3C6"/>
<path d="M430.189 414.574H397.514V418.206H430.189V414.574Z" fill="black"/>
<path d="M430.189 407.458H397.514V409.546H430.189V407.458Z" fill="white"/>
<path d="M428.374 404.584V437.306H430.189V404.584H428.374Z" fill="black"/>
<path d="M395.596 404.574V437.297H397.514V404.574H395.596Z" fill="black"/>
<path d="M405.075 420.94H420.56C423.116 420.94 425.568 421.956 427.375 423.765C429.183 425.573 430.198 428.026 430.198 430.584V494.062H395.437V430.574C395.437 428.017 396.452 425.564 398.26 423.755C400.067 421.947 402.518 420.931 405.075 420.931V420.94Z" fill="black"/>
<path d="M410.146 423.402H409.529C405.785 423.405 402.196 424.895 399.55 427.544C396.905 430.193 395.418 433.785 395.418 437.531V485.682H399.105V438.046C399.104 436.607 399.386 435.183 399.935 433.854C400.484 432.525 401.289 431.318 402.305 430.3C403.321 429.283 404.527 428.476 405.855 427.925C407.183 427.375 408.606 427.091 410.043 427.091H410.249C411.686 427.093 413.108 427.377 414.434 427.928C415.761 428.479 416.966 429.286 417.981 430.304C418.996 431.321 419.8 432.528 420.349 433.856C420.898 435.185 421.179 436.608 421.178 438.046V485.682H424.247V437.531C424.248 435.677 423.885 433.84 423.177 432.127C422.469 430.413 421.43 428.856 420.121 427.544C418.812 426.232 417.257 425.191 415.545 424.481C413.834 423.77 411.999 423.404 410.146 423.402V423.402Z" fill="#C4C3C6"/>
<path d="M412.888 328.138H411.952C409.048 328.138 406.173 328.711 403.49 329.823C400.807 330.936 398.37 332.566 396.318 334.622C394.265 336.677 392.637 339.117 391.528 341.803C390.418 344.488 389.848 347.366 389.851 350.271V487.902H395.615V351.076C395.612 346.527 397.416 342.162 400.628 338.942C403.841 335.722 408.2 333.91 412.747 333.905H413.066C415.318 333.907 417.548 334.352 419.628 335.215C421.709 336.079 423.599 337.344 425.191 338.939C426.783 340.533 428.045 342.426 428.906 344.508C429.766 346.591 430.209 348.823 430.208 351.076V487.911H435.008V350.281C435.012 347.373 434.442 344.492 433.332 341.805C432.222 339.117 430.592 336.675 428.538 334.619C426.483 332.562 424.043 330.931 421.358 329.819C418.672 328.707 415.794 328.136 412.888 328.138V328.138Z" fill="white"/>
<path d="M197.517 494.184H245.94V311.295C245.94 301.417 235.104 293.412 221.733 293.412C208.362 293.412 197.517 301.417 197.517 311.295V494.184Z" fill="black"/>
<path d="M221.998 305.443H222.615C224.468 305.444 226.303 305.811 228.014 306.521C229.726 307.232 231.281 308.273 232.59 309.585C233.899 310.897 234.938 312.454 235.646 314.168C236.354 315.881 236.718 317.717 236.716 319.571V367.723H233.039V320.086C233.04 318.648 232.758 317.224 232.209 315.895C231.66 314.566 230.854 313.358 229.839 312.341C228.823 311.324 227.616 310.517 226.289 309.966C224.961 309.415 223.538 309.132 222.101 309.132H221.895C218.993 309.134 216.211 310.29 214.16 312.344C212.109 314.398 210.956 317.183 210.956 320.086V367.723H207.887V319.571C207.887 315.826 209.374 312.234 212.02 309.584C214.666 306.935 218.255 305.446 221.998 305.443V305.443Z" fill="#C4C3C6"/>
<path d="M204.909 402.515H237.584V378.93H204.909V402.515Z" fill="#C4C3C6"/>
<path d="M203.946 386.317H236.62V382.685H203.946V386.317Z" fill="black"/>
<path d="M203.946 377.657H236.62V375.569H203.946V377.657Z" fill="white"/>
<path d="M203.955 372.685V405.408H205.77V372.685H203.955Z" fill="black"/>
<path d="M236.63 372.685V405.408H238.548V372.685H236.63Z" fill="black"/>
<path d="M238.679 462.201H203.927V398.695C203.927 396.137 204.942 393.684 206.75 391.876C208.557 390.067 211.009 389.051 213.565 389.051H229.069C231.625 389.051 234.077 390.067 235.884 391.876C237.692 393.684 238.707 396.137 238.707 398.695V462.201H238.679Z" fill="black"/>
<path d="M223.998 391.514H224.615C226.468 391.515 228.303 391.881 230.014 392.592C231.726 393.303 233.281 394.344 234.59 395.655C235.899 396.967 236.938 398.525 237.646 400.238C238.354 401.951 238.718 403.788 238.716 405.642V453.803H235.039V406.147C235.04 404.709 234.758 403.285 234.209 401.956C233.66 400.627 232.854 399.419 231.839 398.402C230.823 397.385 229.616 396.578 228.289 396.027C226.961 395.476 225.538 395.193 224.101 395.193H223.895C220.993 395.196 218.211 396.351 216.16 398.405C214.109 400.459 212.956 403.244 212.956 406.147V453.803H209.887V405.642C209.886 403.787 210.25 401.95 210.959 400.236C211.667 398.522 212.706 396.964 214.017 395.652C215.327 394.34 216.883 393.299 218.596 392.589C220.308 391.879 222.144 391.514 223.998 391.514V391.514Z" fill="#C4C3C6"/>
<path d="M221.247 296.24H222.182C225.087 296.241 227.963 296.815 230.645 297.928C233.328 299.042 235.765 300.673 237.818 302.73C239.87 304.786 241.498 307.226 242.607 309.912C243.716 312.598 244.286 315.476 244.284 318.382V456.012H238.52V319.178C238.52 314.628 236.714 310.264 233.5 307.046C230.285 303.828 225.925 302.019 221.378 302.016H221.06C216.523 302.034 212.178 303.85 208.977 307.067C205.777 310.283 203.981 314.639 203.983 319.178V456.022H199.174V318.392C199.169 312.526 201.491 306.899 205.629 302.745C209.768 298.592 215.385 296.252 221.247 296.24V296.24Z" fill="white"/>
<path d="M396.129 522.89H342.532V333.222C342.532 322.979 354.528 314.675 369.331 314.675C384.134 314.675 396.129 322.979 396.129 333.222V522.89Z" fill="black"/>
<path d="M368.667 327.155H367.983C359.366 327.155 352.376 333.709 352.376 341.807V391.738H356.446V342.388C356.446 336.106 361.864 331.022 368.554 331.022H368.779C375.46 331.022 380.887 336.106 380.887 342.388V391.785H384.274V341.807C384.227 333.709 377.238 327.155 368.667 327.155Z" fill="#C4C3C6"/>
<path d="M387.933 403.367H351.777V427.822H387.933V403.367Z" fill="#C4C3C6"/>
<path d="M388.999 407.252H352.844V411.025H388.999V407.252Z" fill="black"/>
<path d="M388.999 399.874H352.844V402.037H388.999V399.874Z" fill="white"/>
<path d="M386.997 396.888V430.827H389.009V396.888H386.997Z" fill="black"/>
<path d="M350.71 396.878V430.818H352.834V396.878H350.71Z" fill="black"/>
<path d="M360.17 413.853H379.361C381.918 413.853 384.369 414.869 386.176 416.677C387.984 418.486 388.999 420.939 388.999 423.496V489.718H350.542V423.496C350.542 420.94 351.556 418.489 353.361 416.68C355.167 414.872 357.616 413.855 360.17 413.853Z" fill="black"/>
<path d="M368.667 416.409H367.983C359.366 416.409 352.376 422.963 352.376 431.061V481.001H356.446V431.595C356.446 425.322 361.864 420.229 368.554 420.229H368.779C375.46 420.229 380.887 425.322 380.887 431.595V481.001H384.274V431.061C384.227 422.972 377.238 416.409 368.667 416.409Z" fill="#C4C3C6"/>
<path d="M369.855 317.605H368.798C355.286 317.605 344.338 327.904 344.338 340.562V483.304H350.72V341.395C350.72 331.565 359.207 323.607 369.687 323.607H370.033C380.513 323.607 388.999 331.574 388.999 341.395V483.304H394.324V340.562C394.324 327.885 383.366 317.605 369.855 317.605Z" fill="white"/>
<path d="M237.912 506.945H291.509V319.268C291.509 309.035 279.504 298.73 264.71 298.73C249.917 298.73 237.912 310.035 237.912 320.268V506.945Z" fill="black"/>
<path d="M265.412 311.201H266.095C274.722 311.201 281.712 317.755 281.712 325.863V375.794H277.632V326.387C277.632 320.114 272.214 315.03 265.533 315.03H265.3C258.619 315.03 253.201 320.114 253.201 326.387V375.794H249.832V325.863C249.832 317.764 256.794 311.201 265.412 311.201Z" fill="#C4C3C6"/>
<path d="M246.099 411.877H282.255V387.422H246.099V411.877Z" fill="#C4C3C6"/>
<path d="M245.032 395.071H281.188V391.298H245.032V395.071Z" fill="black"/>
<path d="M245.032 386.093H281.188V383.93H245.032V386.093Z" fill="white"/>
<path d="M245.032 380.934V414.873H247.044V380.934H245.032Z" fill="black"/>
<path d="M281.188 380.943V414.883H283.312V380.943H281.188Z" fill="black"/>
<path d="M283.49 473.764H245.004V407.57C245.004 405.013 246.02 402.56 247.827 400.751C249.634 398.943 252.086 397.927 254.642 397.927H273.852C276.408 397.927 278.859 398.943 280.667 400.751C282.474 402.56 283.49 405.013 283.49 407.57V473.764Z" fill="black"/>
<path d="M265.412 400.436H266.095C274.722 400.436 281.712 406.99 281.712 415.089V465.038H277.632V415.65C277.632 409.368 272.214 404.284 265.533 404.284H265.3C258.619 404.284 253.201 409.368 253.201 415.65V465.038H249.832V415.117C249.832 406.99 256.794 400.436 265.412 400.436Z" fill="#C4C3C6"/>
<path d="M264.177 301.661H265.234C278.746 301.661 289.703 311.959 289.703 324.618V467.36H283.321V325.451C283.321 315.62 274.825 307.662 264.354 307.662H263.999C253.519 307.662 245.032 315.63 245.032 325.451V467.36H239.717V324.599C239.717 311.941 250.665 301.661 264.177 301.661Z" fill="white"/>
<path d="M311.701 302.348H317.749C326.099 302.345 336.108 304.66 342.016 310.565C347.924 316.469 353.247 326.479 353.254 334.834L352.254 482.05C352.254 485.109 351.04 488.043 348.878 490.206C346.716 492.369 343.784 493.585 340.726 493.585H291.724C288.666 493.585 285.734 492.369 283.572 490.206C281.41 488.043 280.196 485.109 280.196 482.05V335.834C280.196 331.696 281.011 325.598 282.593 321.774C284.176 317.95 286.496 314.476 289.421 311.55C292.345 308.624 295.818 306.302 299.639 304.718C303.46 303.135 307.556 302.32 311.692 302.32L311.701 302.348Z" fill="black"/>
<path d="M316.941 305.473H315.509C297.347 305.473 282.629 319.418 282.629 332.919V482.949H291.209V333.808C291.209 323.341 302.625 311.849 316.707 311.849H317.203C331.239 311.849 342.691 323.341 342.691 333.808V482.949H349.84V332.919C349.822 319.418 335.103 305.473 316.941 305.473Z" fill="white"/>
<path d="M341.251 393.115H292.641V419.161H341.251V393.115Z" fill="#C4C3C6"/>
<path d="M342.673 397.253H294.063V401.269H342.673V397.253Z" fill="black"/>
<path d="M342.673 389.398H294.063V391.701H342.673V389.398Z" fill="white"/>
<path d="M339.969 386.196V422.345H342.673V386.196H339.969Z" fill="black"/>
<path d="M291.209 386.205V422.354H294.073V386.205H291.209Z" fill="black"/>
<path d="M305.301 404.275H328.338C332.14 404.275 335.786 405.786 338.474 408.476C341.162 411.166 342.673 414.814 342.673 418.618V485.093H291.003V418.618C291.003 414.814 292.514 411.166 295.202 408.476C297.89 405.786 301.536 404.275 305.338 404.275H305.301Z" fill="black"/>
<path d="M317.399 406.99H316.464C304.87 406.99 295.476 413.984 295.476 422.597V475.786H300.95V423.169C300.95 416.484 308.239 411.063 317.231 411.063H317.53C326.523 411.063 333.802 416.484 333.802 423.169V475.786H338.369V422.607C338.387 413.993 328.993 406.99 317.399 406.99Z" fill="#C4C3C6"/>
<path d="M498.992 342V341.943C499.068 340.37 498.62 338.817 497.718 337.533C496.817 336.249 495.515 335.308 494.021 334.862C441.062 319.072 387.234 306.428 332.813 296.995C275.489 287.034 217.653 280.362 159.583 277.01C158.865 276.966 158.146 277.07 157.47 277.318C156.795 277.565 156.176 277.95 155.653 278.449C155.13 278.947 154.713 279.549 154.429 280.216C154.145 280.884 153.999 281.603 154 282.33V282.33C213.966 285.564 273.695 292.339 332.879 302.619C388.986 312.344 444.458 325.495 498.992 342V342Z" fill="white"/>
<path d="M430.722 102.921C430.816 100.477 429.59 98.4547 427.775 98.0334C396.307 90.7897 364.326 85.9911 332.118 83.6805C297.891 81.231 263.53 81.2968 229.313 83.8771C227.516 84.0176 226 86.068 226 88.3712C261.311 85.5393 296.785 85.3859 332.118 87.9124C365.333 90.2776 398.307 95.2963 430.722 102.921V102.921Z" fill="white"/>
<path d="M301.586 132.956C301.39 126.664 296.908 124.848 291.883 124.595C286.269 124.324 281.122 122.666 275.798 121.43C271.12 116.44 265.983 114.128 259.227 117.517C256.869 118.697 254.081 118.257 251.62 116.936C251.452 116.873 251.29 116.798 251.133 116.712L251.62 116.936C249.149 110.617 244.77 107.302 237.846 106.151C232.363 105.214 226.842 102.827 224.821 96.6664C223.97 94.073 222.089 92.7903 219.984 91.7417C211.862 87.7157 203.366 85.038 194.168 85.1878C181.872 77.6229 171.458 79.383 160.567 90.8897C154.952 94.3538 151.266 99.4845 148.215 105.261C144.276 112.751 135.649 113.903 132.533 107.218C129.604 100.936 126.329 102.303 121.716 104.615C118.086 106.432 116.102 111.094 111.601 110.954C104.499 110.738 99.7085 114.409 94.6183 118.781C89.8275 122.844 83.5957 127.891 77.4575 125.672C69.5228 122.788 62.0559 123.883 54.3176 124.108C52.8766 124.108 51.2485 124.202 50.5748 125.672C47.356 132.46 40.7686 131.439 35.0889 132.413C33.2643 132.731 30.8689 131.477 29.6057 133.143C25.498 138.442 18.6112 140.933 15.5702 147.262H287.345C289.038 145.389 291.284 144.668 293.642 144.097C299.49 142.693 301.764 138.676 301.586 132.956Z" fill="black" stroke="black" stroke-width="16.6227" stroke-miterlimit="10"/>
<path d="M13.7081 146.822C16.7211 140.493 23.6079 138.002 27.7437 132.703C29.0162 131.074 31.4022 132.291 33.2269 131.973C38.9066 131.037 45.4939 131.973 48.7127 125.232C49.4145 123.762 51.052 123.706 52.4555 123.659C60.1844 123.443 67.6513 122.348 75.5861 125.222C81.7243 127.451 87.9841 122.414 92.7469 118.303C97.8371 113.931 102.637 110.261 109.739 110.476C114.24 110.617 116.214 105.954 119.845 104.138C124.467 101.825 127.742 100.458 130.661 106.741C133.777 113.425 142.405 112.236 146.344 104.784C149.394 99.0071 153.034 93.8764 158.695 90.4122C161.942 90.665 164.936 91.4327 168.361 89.6913C172.693 87.4911 176.445 89.5789 177.886 94.2602C181.629 106.488 189.592 114.24 201.822 117.76C204.323 118.611 206.647 119.912 208.68 121.599C210.895 123.256 213.427 124.438 216.119 125.073C218.811 125.708 221.604 125.781 224.325 125.288C231.811 124.108 238.885 123.715 245.622 128.509C249.121 130.999 252.686 130.381 254.782 125.503C257.243 119.708 259.208 119.427 264.514 123.069C265.103 123.481 265.646 124.005 266.226 124.37C269.576 126.73 272.916 129.304 275.358 123.322C275.583 122.76 276.612 122.76 277.361 122.816C279.41 124.005 281.3 125.213 283.911 125.316C289.581 125.541 292.987 129.688 296.075 133.742C298.882 137.487 295.682 141.523 290.797 142.861C279.129 146.082 267.04 144.668 255.316 146.841H206.397C197.686 143.845 188.619 144.968 179.702 144.678C177.871 144.689 176.041 144.567 174.228 144.313C173.262 144.2 172.36 143.772 171.662 143.095C170.963 142.418 170.507 141.53 170.363 140.568C170.166 139.62 170.272 138.634 170.667 137.75C171.062 136.866 171.725 136.128 172.562 135.643C174.022 134.8 175.669 134.407 177.166 133.658C179.833 132.329 180.104 130.849 177.634 128.902C169.727 122.563 150.994 123.565 143.948 130.774C140.645 134.154 142.395 136.729 145.034 139.304C147.186 141.392 150.442 143.18 147.401 146.906H127.302C119.938 141.448 111.246 141.822 102.974 142.328C98.5201 142.609 94.141 144.041 89.4438 143.545C87.9248 143.447 86.4036 143.7 84.9972 144.282C83.5909 144.865 82.3367 145.763 81.3313 146.906L13.7081 146.822Z" fill="#C4C3C6"/>
<path d="M47.0284 138.087C49.1151 132.029 51.3982 126.383 59.5201 131.261C59.9545 131.484 60.4355 131.6 60.9236 131.6C61.4117 131.6 61.8928 131.484 62.3272 131.261C69.7286 125.644 77.6446 130.7 85.2706 130.119C90.3046 129.745 91.8205 134.042 93.093 138.077L47.0284 138.087Z" fill="white"/>
<path d="M255.288 146.822C265.889 142.88 277.445 144.678 288.187 141.392C290.142 140.792 292.725 141.616 293.726 139.154C294.905 136.252 292.126 135.156 290.788 133.312C287.214 128.424 281.88 126.421 276.753 124.033C274.179 124.52 273.16 123.593 273.945 120.99C279.27 122.226 284.463 123.874 290.04 124.155C295.074 124.408 299.546 126.224 299.733 132.516C299.911 138.236 297.637 142.253 291.799 143.657C289.431 144.228 287.186 144.949 285.492 146.822H255.288Z" fill="#C4C3C6"/>
<path d="M273.936 121.927L276.743 124.97C277.024 128.312 277.408 131.645 277.557 134.988C277.634 135.953 277.359 136.913 276.783 137.691C276.206 138.469 275.368 139.012 274.423 139.219C272.158 139.875 270.979 138.779 269.978 136.766C266.9 130.625 266.825 130.662 260.125 126.468C258.254 136.102 252.499 138.779 243.563 132.956C237.771 129.211 232.213 128.808 225.86 129.754C218.103 130.896 210.58 130.54 204.507 124.389C202.42 122.292 199.351 122.002 196.647 121.075C186.27 117.489 179.617 110.008 175.313 100.215C174.284 97.9023 174.546 94.5318 171.187 94.176C167.977 93.8296 166.929 96.7788 165.572 99.0164C164.941 100.332 164.384 101.682 163.907 103.061L158.667 91.3017C169.559 79.795 179.973 78.0349 192.268 85.5998C194.486 88.0809 196.947 89.167 200.493 88.4086C207.885 86.8544 217.728 92.369 221.228 99.6437C222.454 102.2 226.103 103.51 225.111 107.19C226.047 106.535 227.366 105.449 228.068 106.254C232.419 110.935 238.23 111.01 243.872 111.75C247.147 112.171 246.913 116.431 249.73 117.367C252.181 118.687 254.969 119.127 257.327 117.948C264.13 114.624 269.286 116.936 273.936 121.927Z" fill="white"/>
<path d="M249.767 116.496C245.902 114.783 242.216 112.386 237.603 114.549C236.106 115.251 233.785 115.036 232.924 113.613C228.779 106.918 224.026 109.109 219.02 112.227C218.009 112.864 216.559 113.351 215.754 112.227C214.594 110.617 216.1 109.727 217.214 108.857C222.641 104.568 223.165 99.4939 217.326 94.9437C212.376 91.0957 207.333 85.8713 199.407 89.8973C195.665 91.826 192.68 89.1576 192.277 84.6636C201.475 84.5512 209.971 87.2289 218.093 91.2174C220.199 92.266 222.079 93.5487 222.931 96.1421C224.961 102.303 230.473 104.709 235.956 105.626C242.908 106.862 247.297 110.195 249.767 116.496Z" fill="#C4C3C6"/>
<path d="M491 506C420.294 540 177 505.5 140.5 443C129.411 424.012 133 410 133 410C133 410 147.555 446.228 354 475.5C421 485 501.5 485 501.5 485C501.5 485 508.076 497.789 491 506Z" fill="black"/>
<path d="M313.853 395.779H314.91C324.671 395.779 334.031 399.658 340.933 406.564C347.834 413.47 351.712 422.836 351.712 432.602V524.356H277.052V432.602C277.052 422.836 280.929 413.47 287.831 406.564C294.732 399.658 304.093 395.779 313.853 395.779V395.779Z" fill="black"/>
<path d="M313.89 401.181H315.331C333.213 401.181 347.707 414.785 347.707 431.563V488.905H339.285V432.63C339.285 419.616 328.057 409.074 314.19 409.074H313.722C299.864 409.074 288.626 419.616 288.626 432.63V488.868H281.59V431.525C281.524 414.748 296.009 401.181 313.89 401.181Z" fill="#C4C3C6"/>
<path d="M341.278 506.498H286.755V434.887C286.755 427.652 289.626 420.714 294.738 415.598C299.849 410.482 306.782 407.606 314.012 407.604C321.243 407.604 328.179 410.478 333.292 415.595C338.406 420.711 341.278 427.651 341.278 434.887V506.498Z" fill="black"/>
<path d="M313.656 411.555H314.676C327.776 411.555 338.322 421.489 338.322 433.744V490.45H332.174V434.549C332.174 425.046 323.968 417.341 313.844 417.341H313.46C303.345 417.341 295.139 425.046 295.139 434.549V490.45H290.067V433.744C290.067 421.489 300.603 411.555 313.656 411.555Z" fill="white"/>
<path d="M380.936 484.756C370.954 487.296 345.124 489.106 314.854 489.106C284.584 489.106 258.72 487.296 248.773 484.756C245.921 485.487 244.356 486.276 244.356 487.076C244.356 490.765 275.936 493.758 314.889 493.758C353.843 493.758 385.411 490.765 385.411 487.076C385.399 486.276 383.834 485.487 380.936 484.756Z" fill="#C4C3C6"/>
<path d="M378.548 482.1C368.925 484.547 344.046 486.299 314.878 486.299C285.709 486.299 260.818 484.547 251.207 482.1C248.46 482.807 246.953 483.561 246.953 484.35C246.953 487.9 277.362 490.788 314.878 490.788C352.393 490.788 382.791 487.9 382.791 484.42C382.791 483.584 381.284 482.83 378.548 482.1Z" fill="black"/>
<path d="M378.548 480C368.925 482.448 344.046 484.188 314.878 484.188C285.709 484.188 260.818 482.448 251.207 480C248.46 480.696 246.953 481.462 246.953 482.25C246.953 485.8 277.362 488.689 314.878 488.689C352.393 488.689 382.791 485.8 382.791 482.25C382.791 481.462 381.284 480.696 378.548 480Z" fill="white"/>
<path d="M390.442 496.925C379.081 499.825 349.692 501.878 315.225 501.878C280.759 501.878 251.381 499.825 240.02 496.925C236.774 497.76 235 498.653 235 499.581C235 503.78 270.939 507.191 315.225 507.191C359.512 507.191 395.462 503.78 395.462 499.581C395.462 498.653 393.688 497.76 390.442 496.925Z" fill="#C4C3C6"/>
<path d="M387.66 493.932C376.716 496.716 348.417 498.7 315.225 498.7C282.034 498.7 253.781 496.716 242.802 493.932C239.672 494.732 237.968 495.591 237.968 496.484C237.968 500.532 272.551 503.815 315.225 503.815C357.9 503.815 392.529 500.532 392.529 496.484C392.529 495.591 390.779 494.732 387.66 493.932Z" fill="black"/>
<path d="M387.66 491.623C376.716 494.407 348.417 496.391 315.225 496.391C282.034 496.391 253.781 494.407 242.802 491.623C239.672 492.424 237.968 493.282 237.968 494.175C237.968 498.224 272.551 501.507 315.225 501.507C357.9 501.507 392.529 498.224 392.529 494.175C392.529 493.282 390.779 492.424 387.66 491.623Z" fill="white"/>
<path d="M317.471 315H316.529C304.642 315 295 324.126 295 335.404V384.935H300.615V336.213C300.615 327.464 308.088 320.385 317.316 320.385H317.626C326.842 320.385 334.328 327.464 334.328 336.213V385H339V335.404C338.935 324.126 329.294 315 317.471 315Z" fill="#C4C3C6"/>
</svg>
