<svg viewBox="0 0 400 320" xmlns="http://www.w3.org/2000/svg">
  <g fill="none" fill-rule="evenodd">
    <path d="M92.86605157 200.45200847c-.00017792 4.18815317 2.24165857 8.06078927 5.87848028 10.15471729l36.6760565 21.11652172c3.62742057 2.08851528 8.09179712 2.09025226 11.71398031.00455894l36.71289325-21.1396944c3.62218456-2.08569369 5.85286954-5.9425234 5.85304719-10.1198491l-.04024465-95.63389823c.00017769-4.18815376-2.24165846-8.06078966-5.87848012-10.15471777l-36.67605638-21.11652211c-3.62742023-2.08851508-8.09179694-2.09025239-11.71398085-.00455821L98.67885376 94.69826094c-3.62218336 2.08569323-5.85286895 5.9425226-5.85304608 10.1198486l.0402439 95.63389893z" fill="#000"/>
    <path d="M144.85811424 170.94805612c-.0055336 3.00715106 1.83307585 4.38796589 4.1066497 3.08413568l33.13918942-19.00438741c2.27357332-1.3038305 4.1211552-4.79857218 4.12668904-7.80572308l.06913728-37.57001148c.00553417-3.00715187-1.83307586-4.38796589-4.10664961-3.08413563l-33.13918917 19.00438756c-2.27357384 1.3038302-4.1211553 4.79857096-4.12668897 7.80572197l-.0691377 37.5700124z" fill="#FFF"/>
    <path d="M144.27916715 170.27595707c-.00553367 3.007151 1.83307585 4.38796589 4.1066496 3.08413563l33.13918961-19.00438731c2.27357332-1.3038305 4.1211547-4.79857131 4.12668904-7.80572308l.06913719-37.57001153c.00553359-3.00715106-1.83307585-4.38796589-4.1066497-3.08413568l-33.13918917 19.00438756c-2.27357375 1.30383026-4.1211553 4.79857096-4.12668947 7.80572283l-.0691371 37.57001158z" fill="#FFF"/>
    <path d="M138.17270059 173.36826838c2.61117093 1.52153327 4.72857843.6214139 4.72936153-2.01047247l.01141714-38.36188787c.00078319-2.63188631-2.11535455-5.99889824-4.72652574-7.52043167l-32.62281193-19.00936265c-2.61117128-1.52153347-4.72857896-.6214142-4.72936215 2.01047212l-.0114167 38.36188812c-.00078319 2.63188631 2.11535446 5.9988982 4.72652574 7.52043167l32.6228121 19.00936275zM104.55280592 98.2821795c-2.61372794 1.48968844-2.88999004 3.76022917-.6170487 5.0713947 19.8079653 1.99633712 34.64797412 3.00618325 44.52002687 3.0295375 6.71301792.0158817 16.75061523-.93511042 30.11279077-2.85297475 2.61372787-1.48968848 2.88999003-3.76022917.6170487-5.0713947l-33.12996938-19.11130739c-2.27294124-1.31116548-6.23436914-1.1664445-8.84809651.32324311L104.55280592 98.2821795z" fill="#C4C3C6"/>
    <path d="M104.78461227 105.19790693c-2.621891-1.54357538-4.75424808-.61989756-4.76275254 2.0630916l-.09193611 39.64057381c-.00850496 2.68299002 2.11006291 6.10929822 4.73195332 7.65287442l33.1710771 19.04557473c2.62189108 1.54357544 4.75424773.61989737 4.76275313-2.0630924l-.20280362-39.19428883c.00850455-2.68298911-2.11006333-6.1092973-4.73195383-7.65287356l-32.87633745-19.49185977z" fill="#C4C3C6"/>
    <path d="M100.73252477 112.85296539c-4.18715741 6.33115757-5.18452003 37.3411517-2.99208752 93.0299826-4.38663873-.42348685-2.49760707.88612234 5.66709311 3.9288288 8.16469932 3.04270596 21.77050935 8.9817477 40.81742838 17.81712421-25.97162914-11.92110477-35.4430427-26.92137926-28.41424104-45.00082486 10.54320213-27.11916975-10.75270827-28.78597675-15.07819293-69.77511075z" fill="#000"/>
    <path d="M48.75285124 221.85203712c-.00553298 3.0071514 1.83307654 4.38796629 4.10664986 3.08413578l33.13918926-19.00438751c2.27357332-1.3038305 4.12115606-4.79857168 4.12668904-7.80572308l.06913736-37.57001143c.00553435-3.00715177-1.83307568-4.38796579-4.10664986-3.08413578L52.9486785 176.4763031c-2.27357418 1.30383-4.12115555 4.79857081-4.1266899 7.80572258l-.06913736 37.57001143zM48.17390424 170.94805612c-.0055341 3.00715192 1.83307585 4.38796589 4.1066497 3.08413568l33.13918942-19.00438741c2.27357332-1.3038305 4.1211547-4.79857131 4.12668904-7.80572308l.06913728-37.57001148c.00553367-3.007151-1.83307586-4.38796589-4.10664961-3.08413563L52.3697309 125.57232176c-2.27357384 1.3038302-4.1211558 4.79857183-4.12668947 7.80572283l-.0691372 37.57001153z" fill="#FFF"/>
    <path d="M186.94499833 203.31074908c-.00017792 4.18815317 2.24165848 8.06078922 5.87848063 10.1547175l36.67605607 21.11652146c3.62742056 2.08851528 8.09179712 2.09025227 11.7139803.00455894l36.71289336-21.13969457c3.62218446-2.08569352 5.85286918-5.9425228 5.85304703-10.11984884l-.04024411-44.72991715c.00017743-4.18815333-2.2416587-8.06078923-5.87848037-10.15471734l-36.67605673-21.11652232c-3.62742014-2.08851502-8.09179694-2.09025238-11.7139807-.00455846l-36.7128932 21.1396943c-3.62218376 2.08569392-5.8528691 5.94252286-5.85304651 10.11984915l.04024423 44.72991733z" fill="#000"/>
    <path d="M199.75866866 150.1843837c-2.61372773 1.48968821-2.88998975 3.76022887-.6170486 5.07139453l33.12996906 19.11130731c2.2729415 1.31116586 6.2343697 1.16644494 8.84809694-.32324344l32.65475197-18.61150152c2.6137281-1.48968787 2.88998966-3.76022892.61704812-5.0713947l-20.63162113-11.90152796c-4.1661158-2.40325976-32.43303518-.56775862-37.97633042 2.59162997l-16.02486594 9.1333358z" fill="#C4C3C6"/>
    <path d="M237.20022004 222.88177047c-.00553405 3.00715125 1.83307563 4.38796587 4.10664981 3.08413586l33.13918931-19.0043876c2.27357332-1.3038305 4.1211558-4.79857124 4.12668899-7.80572299l.06913741-37.57001152c.00553405-3.00715125-1.83307563-4.38796587-4.10664981-3.08413586l-33.13918931 19.0043876c-2.27357332 1.3038305-4.1211549 4.79857166-4.12668894 7.8057229l-.06913746 37.5700116z" fill="#FFF"/>
    <path d="M197.1267172 157.13162066c-2.6218905-1.54357545-4.75424754-.61989771-4.76275249 2.06309209l-.09193627 39.64057349c-.00850452 2.68299027 2.11006361 6.10929862 4.73195383 7.65287356l33.17107727 19.04557483c2.62189058 1.5435763 4.7542481.61989873 4.76275263-2.06309154l-.20280329-39.1942884c.00850443-2.68299011-2.1100628-6.10929804-4.73195372-7.65287374l-32.87633796-19.49186029z" fill="#C4C3C6"/>
    <path d="M141.49763092 228.88991567c-.00017836 4.18815292 2.24165865 8.06078932 5.87848036 10.15471734l36.67605607 21.11652147c3.62742057 2.08851528 8.09179712 2.09025226 11.71398031.00455894l36.71289412-21.1396939c3.62218369-2.08569419 5.85286867-5.9425239 5.85304632-10.1198496l-.04024445-95.63389857c.0001783-4.18815284-2.24165866-8.06078932-5.87848032-10.15471743l-36.67605635-21.11652198c-3.62742008-2.0885151-8.09179693-2.09025238-11.71398065-.00455855l-36.71289324 21.1396944c-3.62218372 2.08569383-5.85286905 5.94252276-5.85304632 10.1198488l.04024415 95.63389908z" fill="#000"/>
    <path d="M191.75285124 248.46093712c-.00553385 3.0071509 1.83307568 4.38796579 4.106649 3.08413528l33.13918926-19.00438751c2.27357428-1.30383018 4.1211559-4.79857142 4.12668995-7.80572267l.06913655-37.57001201c.00553404-3.00715126-1.83307563-4.38796588-4.10664895-3.08413537l-33.13918931 19.0043876c-2.27357419 1.30383-4.12115576 4.79857116-4.1266898 7.8057224l-.0691367 37.57001228zM191.17390424 197.55695512c-.00553348 3.00715227 1.83307654 4.38796629 4.10664986 3.08413578l33.13918926-19.00438751c2.27357409-1.30382984 4.1211557-4.79857107 4.12668889-7.80572282l.06913746-37.5700116c.00553405-3.00715126-1.83307563-4.38796588-4.10664895-3.08413537l-33.1391897 19.00438749c-2.27357384 1.3038302-4.1211555 4.7985713-4.12668937 7.80572265l-.06913745 37.57001138z" fill="#FFF"/>
    <path d="M185.06743759 200.64926638c2.6111718 1.52153377 4.7285793.6214144 4.7293624-2.01047197l.01141662-38.36188817c.0007831-2.63188636-2.11535464-5.9988983-4.72652557-7.52043157l-32.62281202-19.0093627c-2.61117128-1.52153347-4.72857896-.6214142-4.72936214 2.01047212l-.0114167 38.36188812c-.0007832 2.63188631 2.11535471 5.99889834 4.72652565 7.52043162l32.62281176 19.00936255zM153.18438414 126.72008705c-2.61372787 1.48968848-2.88999003 3.76022917-.6170487 5.0713947l33.12996938 19.11130739c2.27294124 1.31116548 6.23436914 1.1664445 8.84809651-.32324311l32.65475175-18.61150153c2.6137283-1.48968823 2.8899898-3.76022918.61704918-5.07139454l-33.12996967-19.11130767c-2.27294123-1.31116571-6.23436918-1.16644464-8.8480967.32324323l-32.65475175 18.61150153zM151.67934996 182.71078733c-2.62189108-1.54357543-4.7542486-.61989786-4.76275313 2.06309241l-.09193552 39.640573c-.0085054 2.68298977 2.11006274 6.10929812 4.73195332 7.65287442L184.7276919 251.112902c2.62189108 1.54357544 4.75424774.61989737 4.76275313-2.0630924l-.20280455-39.19428822c.0085054-2.68298977-2.11006274-6.10929812-4.73195332-7.65287442l-32.8763372-19.49185962z" fill="#C4C3C6"/>
    <path d="M147.62726235 140.13396338c-4.18715756 6.33115783-5.1845205 37.34115293-2.9920881 93.0299826-4.38663786-.42348634-2.4976067.88612372 5.66709311 3.92882881 8.16470018 3.04270646 21.77050935 8.9817477 40.81742838 17.81712421-25.97162828-11.92110427-35.4430427-26.92137926-28.41424104-45.00082486 10.543203-27.11916925-10.752708-28.78597543-15.07819235-69.77511076z" fill="#000"/>
    <path d="M45.97131492 228.88991567c-.00017786 4.18815206 2.24165915 8.06078846 5.87848036 10.15471734l36.67605607 21.11652147c3.62742057 2.08851528 8.09179712 2.09025226 11.71398081.00455807l36.71289412-21.1396939c3.62218319-2.08569332 5.85286817-5.94252303 5.85304582-10.11984873l-.04024415-95.6338991c.00017835-4.18815291-2.24165866-8.06078931-5.87848037-10.15471733l-36.6760565-21.11652172c-3.62742013-2.08851503-8.09179703-2.09025221-11.7139809-.00455812l-36.71289274 21.13969353c-3.62218387 2.08569409-5.85286945 5.94252345-5.85304667 10.1198494l.04024415 95.6338991z" fill="#000"/>
    <path d="M96.22653524 248.46093712c-.00553385 3.0071509 1.83307568 4.38796579 4.106649 3.08413528l33.13918926-19.00438751c2.27357418-1.30383 4.12115605-4.79857168 4.1266899-7.80572258l.0691365-37.57001193c.00553434-3.00715177-1.83307518-4.38796665-4.1066485-3.08413615l-33.13918976 19.00438838c-2.27357419 1.30383-4.12115556 4.79857081-4.1266894 7.80572172l-.069137 37.5700128zM95.64758824 197.55695512c-.00553298 3.0071514 1.83307654 4.38796629 4.10664986 3.08413578l33.13918926-19.00438751c2.27357419-1.30383 4.12115606-4.79857168 4.12668904-7.80572308l.06913736-37.57001143c.00553385-3.0071509-1.83307568-4.38796579-4.106649-3.08413528l-33.1391896 19.00438731c-2.27357384 1.3038302-4.1211553 4.79857096-4.12668947 7.80572283l-.06913745 37.57001138z" fill="#FFF"/>
    <path d="M89.54112159 200.64926638c2.6111718 1.52153377 4.7285793.6214144 4.7293624-2.01047197l.01141662-38.36188817c.0007831-2.63188636-2.11535464-5.9988983-4.72652557-7.52043157l-32.62281202-19.0093627c-2.61117128-1.52153347-4.72857896-.6214142-4.72936214 2.01047212l-.0114167 38.36188812c-.0007832 2.63188631 2.11535471 5.99889834 4.72652565 7.52043162l32.62281176 19.00936255zM57.65806814 126.72008705c-2.61372787 1.48968848-2.88999003 3.76022917-.6170487 5.0713947l33.12996938 19.11130739c2.27294124 1.31116548 6.23436914 1.1664445 8.84809651-.32324311l32.65475175-18.61150153c2.6137283-1.48968823 2.88998986-3.76022927.61704913-5.07139446l-21.46624909-12.38299073c-3.88790707-2.242772-26.10518884-3.21714398-28.90187414-1.62317995l-24.26469484 13.8296077zM56.15303396 182.71078733c-2.62189108-1.54357543-4.7542486-.61989786-4.76275263 2.06309154l-.09193602 39.64057387c-.0085054 2.68298977 2.11006274 6.10929812 4.73195382 7.65287356L89.2013759 251.112902c2.62189108 1.54357543 4.75424774.61989736 4.76275313-2.06309241l-.20280405-39.19428908c.0085049-2.68298891-2.11006274-6.10929812-4.73195382-7.65287356l-32.8763372-19.49185962z" fill="#C4C3C6"/>
    <path d="M94.33608031 255.98218668c-.00172348 4.19083036 2.23725168 8.06511542 5.87097778 10.159041l36.64483781 21.11649627c3.6243325 2.08851258 8.08585722 2.08860468 11.70649723.00024181l36.69724684-21.1667458c3.62063932-2.08836327 5.85132375-5.94848004 5.85304248-10.12847697l-.02370973-44.75849574c.00172342-4.19083046-2.23725178-8.06511546-5.87097778-10.159041l-36.6448378-21.11649629c-3.6243325-2.08851255-8.0858573-2.08860475-11.70649723-.00024182l-36.69724659 21.16674595c-3.62064001 2.08836287-5.85132404 5.94847987-5.85304307 10.12847664l.02371006 44.75849595z" fill="#000"/>
    <path d="M107.1611736 202.81713453c-2.61260815 1.4916043-2.88953175 3.76369828-.6185262 5.07486395l33.1017556 19.1113075c2.27100552 1.31116565 6.22995669 1.16489128 8.84256477-.32671306l32.64076395-18.63544055c2.61260816-1.49160428 2.88953178-3.76369826.61852617-5.07486396l-20.61405136-11.9015281c-4.16256807-2.4032598-32.41211056-.55616173-37.95303136 2.60729062l-16.01800157 9.1450836z" fill="#C4C3C6"/>
    <path d="M144.55197994 275.54718678c-.00664009 3.00907577 1.83028557 4.39009499 4.10288846 3.08459292l33.12503687-19.02875665c2.27260306-1.30550197 4.12029495-4.8031582 4.12693452-7.81223428l.08295925-37.59405363c.0066401-3.00907579-1.83028554-4.39009505-4.10288842-3.084593l-33.12503704 19.02875655c-2.2726028 1.30550212-4.12029435 4.80315855-4.12693452 7.81223427l-.08295912 37.59405382z" fill="#FFF"/>
    <path d="M104.52833965 209.76978418c-2.61964649-1.54359553-4.75098248-.61854102-4.7604722 2.0661671L99.66136 251.5018991c-.00948975 2.68470812 2.10646045 6.11242546 4.72610693 7.65602087l33.1428614 19.04551775c2.61964642 1.5435955 4.75098245.618541 4.76047219-2.0661671l-.18820871-39.21926876c.00948974-2.68470811-2.10646046-6.11242546-4.72610697-7.656021l-32.8481452-19.49219668z" fill="#C4C3C6"/>
    <path d="M136.93016528 128.23002102c-2.46397253 23.5500502-14.59499674 24.50770329-8.58915623 40.0888516 4.0038927 10.3874324-1.39141196 19.00574619-16.1859167 25.85494207 10.8499056-5.07630975 18.60033237-8.4885487 23.25128032-10.23671685 4.65094795-1.74816814 5.7270176-2.50059546 3.2282091-2.25728418 1.24889888-31.9956683.6807605-49.81226597-1.70441649-53.44979264zM50.9858191 128.38903843c-1.46502206 5.17243484-2.10603775 38.93383378-1.92304725 101.28419674-.18487692 2.35875822 2.5941844 4.5841348 8.33718274 6.6761279 5.74299783 2.09199397 34.06564113 17.51247077 84.96792716 46.26143114-17.8075914-23.64634294-31.00423044-35.86350363-39.589919-36.65148084-12.87853139-1.18196729-22.9557133-15.1010162-29.63067299-24.6289409-6.97688798-9.95889954-6.05269198-25.46231196-4.40802191-29.17447208 7.50968346-16.94999732-15.25251137-34.13425237-17.75344875-63.76686196z" fill="#000"/>
    <g>
      <path d="M235.97167815 177.76721144c3.17126804 3.64852929 8.05497636 5.32587029 12.8059223 4.39827656l47.9116038-9.35445467c4.73866425-.92519623 8.62559817-4.30148308 10.19884058-8.85896466l15.9457109-46.1926688c1.57324241-4.55748158.5942111-9.6050148-2.56885893-13.24411226L286.3587389 65.58049707c-3.1712683-3.64852914-8.05497634-5.3258702-12.80592225-4.39827637l-47.91160376 9.35445497c-4.7386643.92519593-8.62559814 4.30148216-10.19884094 8.85896381l-15.94571056 46.19266925c-1.57324276 4.55748165-.59421162 9.6050149 2.56885845 13.24411235l33.9061583 38.93479036z" fill="#000"/>
      <path d="M207.93255017 123.63150256c-1.14683952 3.27527838.33204931 5.46222037 3.30319082 4.88467267l43.30680664-8.4182319c2.97114154-.5775477 6.3094247-3.70088059 7.45626438-6.97615799l14.32810361-40.91986645c1.14683967-3.275278-.33204924-5.46222029-3.30319074-4.88467238l-26.96922639 5.24243662c-5.4458601 1.05859832-28.65836848 24.04462671-31.09063045 30.99096344l-7.03131787 20.08085599z" fill="#C4C3C6"/>
      <path d="M295.56932907 158.6311211c2.27230867 2.62378437 4.91816569 2.43552948 5.90968713-.42047895l14.45223127-41.62864917c.99152133-2.8560085-.04676197-7.29825825-2.31907065-9.92204263l-28.38921428-32.7803946c-2.27230877-2.62378434-4.9181658-2.43552951-5.90968714.42047894l-14.45223127 41.62864916c-.99152142 2.85600852.04676188 7.29825827 2.31907065 9.92204263l28.38921429 32.78039461z" fill="#FFF"/>
      <path d="M210.90250628 131.67476337c-3.4508428.6391098-4.60732007 3.05711258-2.58306429 5.40076048l29.93727662 34.60135783c2.02425584 2.3436482 6.46270012 3.72544866 9.91354306 3.08633955l43.29281047-8.5065958c3.45084293-.6391091 4.6073198-3.05711283 2.58306357-5.40075993L264.19027276 126.86628c-2.0242554-2.34364798-6.4627002-3.72544906-9.91354303-3.08633936l-43.37422345 7.89482273z" fill="#C4C3C6"/>
      <g>
        <path d="M294.8363645 193.90210982l90.8470457-2.06485236 9.0102371-54.1847771-60.3152557 7.44165782-10.2010695-3.25019936c-.8195131-1.22401477-1.80057879-2.31539025-2.91258922-3.23872221l-8.92082193-7.41347397-8.27102041-8.70180475c-1.11646227-1.17414861-2.3515011-2.21032442-3.68186828-3.08819056l-7.78438856-5.14100335-5.55726654-7.29445915-.05367942-.06788547c-1.67142195-2.0370188-4.11473805-3.17335462-6.65196602-3.09469326l-.78235409.02413632c-2.67490686.08322387-4.90121251 2.17838435-5.29543579 4.98568741l-.1164248.83536364c-1.02284493 7.29698603 1.13500203 14.71235856 5.8666285 20.1602429l7.5848613 8.73342609c1.70031383 2.3237679 2.16060328 5.40107174 1.22505592 8.14791706l-4.37081942 7.54668619c-10.2220899 2.13729774-18.97515952 2.87038928-26.25920909 2.19927464-7.28404957-.67111474-17.5038999-3.15227304-30.65955093-7.4434751l-16.16998117-8.0943504c-6.62857077-2.6633878-20.24432838 4.41402285-23.26213456 11.1782835-.88015038 1.97277403-.05770976 4.33477736 1.81811939 5.24394393 29.22266707 16.51971247 50.46441014 27.28557677 63.72522908 32.29759278 9.1901149 3.47346599 22.91966785 4.90135756 41.18865844 4.28367476z" fill="#000" fill-rule="nonzero"/>
        <path d="M244.48232336 163.32734017l-13.83937338-6.57343683-16.06510861-8.39518709c-2.01739262-1.05394562-4.27530044-1.47399021-6.50533701-1.21050752-2.2401369.2658147-8.67550717 4.97420313-10.2529275 6.66959841l-1.39676342 1.50146135 49.23176698 23.60323952 11.82646098 4.86809722 38.5530249 4.60347598 85.55908701-1.07257314.96183092-36.34996613-34.07378628 2.07147567-19.04115273 7.59662255-8.44335275-14.94569862-17.48614966-16.6655501-13.88162446-10.67394037-8.45562513-9.64240696-2.23220497 3.97154475 1.27661564 7.06418131 14.58280539 20.35801449-1.62732667 10.75607613-6.5318172 8.30800783-13.192181 4.31279645-13.08670087.7771767-15.88016018-.9325016z" fill="#C4C3C7"/>
        <path fill="#FFF" d="M247.0963394 178.49512252l.23224218-.34559595-2.80476853-2.24701521-40.23755959-21.32376081-2.71589606 2.68511347M381.6279079 186.87280935l-4.09715727-7.66397116c-26.43868697-1.13921048-43.28693892-2.24426725-50.54475643-3.31517016-7.25781762-1.07090291-12.18741666-3.73447327-14.78879734-7.99071105-4.9757708 3.83609907-10.10815924 6.6009159-15.3971654 8.29445033-5.28900615 1.69353443-13.6973433 3.26444437-25.22501147 4.71272983l-5.1655344 3.6043304 24.69347142 2.89973454 12.91657012.81025768 77.60838077-1.3516504z"/>
      </g>
    </g>
  </g>
</svg>
