<svg xmlns="http://www.w3.org/2000/svg" viewBox="0 0 735.09 497.12">
    <defs>
        <pattern id="lines" data-name="lines" width="16" height="16" patternTransform="translate(0 240)" patternUnits="userSpaceOnUse">
            <path class="cls-1" d="M0 0h16v16H0z"/>
            <path class="cls-2" d="M1.98 78.02l66-66M-14.02 78.02l66-66M-30.02 78.02l66-66M-46.02 78.02l66-66M-62.02 78.02l66-66M1.98 62.02l66-66M-14.02 62.02l66-66M-30.02 62.02l66-66M-46.02 62.02l66-66M-62.02 62.02l66-66M1.98 46.02l66-66M-14.02 46.02l66-66M-30.02 46.02l66-66M-46.02 46.02l66-66M-62.02 46.02l66-66M1.98 30.02l66-66M-14.02 30.02l66-66M-30.02 30.02l66-66M-46.02 30.02l66-66M-62.02 30.02l66-66M1.98 14.02l66-66M-14.02 14.02l66-66M-30.02 14.02l66-66M-46.02 14.02l66-66M-62.02 14.02l66-66"/>
        </pattern>
        <pattern id="lines-3" data-name="lines" width="16" height="16" patternUnits="userSpaceOnUse">
            <path class="cls-1" d="M0 0h16v16H0z"/>
            <path class="cls-2" d="M1.98 78.02l66-66M-14.02 78.02l66-66M-30.02 78.02l66-66M-46.02 78.02l66-66M-62.02 78.02l66-66M1.98 62.02l66-66M-14.02 62.02l66-66M-30.02 62.02l66-66M-46.02 62.02l66-66M-62.02 62.02l66-66M1.98 46.02l66-66M-14.02 46.02l66-66M-30.02 46.02l66-66M-46.02 46.02l66-66M-62.02 46.02l66-66M1.98 30.02l66-66M-14.02 30.02l66-66M-30.02 30.02l66-66M-46.02 30.02l66-66M-62.02 30.02l66-66M1.98 14.02l66-66M-14.02 14.02l66-66M-30.02 14.02l66-66M-46.02 14.02l66-66M-62.02 14.02l66-66"/>
        </pattern>
        <style>
            .cls-1,.cls-2,.cls-4{fill:none}.cls-2,.cls-4,.cls-5{stroke:currentColor}.cls-2,.cls-4{stroke-linecap:square}.cls-2,.cls-4,.cls-5{stroke-miterlimit:10}.cls-2{stroke-width:2px}.cls-4,.cls-5{stroke-width:12px}.cls-5{fill:#fff}
        </style>
    </defs>
    <g id="Layer_2" data-name="Layer 2">
        <g id="Layer_27" data-name="Layer 27">
            <path d="M101.19 106.87a95.21 95.21 0 00-39.6 181.78 93 93 0 01-19-12v-9c0-15.39 10.49-27.86 23.43-27.86h70.3c12.95 0 23.44 12.47 23.44 27.86v9a92.33 92.33 0 01-19 12 95.21 95.21 0 00-39.58-181.79zm0 132.7A41.79 41.79 0 11143 197.78a41.79 41.79 0 01-41.81 41.79z" fill="url(#lines)" stroke-width="12" stroke-miterlimit="10" stroke-linecap="square" stroke="currentColor"/>
            <path class="cls-4" d="M607.4 249.39a121.69 121.69 0 00121.69-121.7A121.69 121.69 0 00607.4 6a121.56 121.56 0 00-101.09 53.92q-2.9 4.3-5.43 8.87l-2.56 5"/>
            <path class="cls-4" d="M607.4 175.64a53.43 53.43 0 01-53.4-53.42 53.43 53.43 0 0153.4-53.43 53.43 53.43 0 0153.42 53.43 53.42 53.42 0 01-53.42 53.42zM534.19 199.77c4.1-13.86 15.21-23.8 28.27-23.8h89.88c16.54 0 29.95 15.95 29.95 35.62v11.5c-7.33 6-34.45 26.8-74.89 26.8a118.35 118.35 0 01-56.74-14.61M343.74 265.85l143.32 32.5 40.55-176.86-36.07-45.59-156.07-35.89-49.04 26.19-40.55 176.86 22.87 6"/>
            <path class="cls-5" d="M380.73 274.63l35.56 47.82M425.6 283.16l14.12 44.36"/>
            <path d="M248.86 491.54l177.72-70.42c19.36-9.68 19.36-9.68 38.62-31.37L528 325l20.82-98.17a22.29 22.29 0 00-44.22-5.65l-17.15 72.52-52.3 32.7-55.23-15.31c-27.59-11.18-41.9-29.68-36.34-59.37L355.12 196c5.53-31.85-16.53-42.29-35-42.28a49.32 49.32 0 00-7.82.9s-8.45 31.54-10.43 38.29l-38.9 69.72s-49.32 31.3-41.65 95.95" stroke-width="12" stroke-miterlimit="10" stroke="currentColor" fill="none"/>
            <path class="cls-5" d="M220.7 336.62l-33.45 15.84"/>
            <path class="cls-4" d="M361.93 332.55c-21.82-8.71-26.79-31.66-23.58-52.88l7.34-37.24"/>
            <path stroke-linejoin="bevel" fill="url(#lines-3)" stroke-width="12" stroke="currentColor" d="M286.43 66.2l241.18 55.29-36.07-45.59-156.07-35.89-49.04 26.19z"/>
            <path d="M223.12 363.1c-5.82-15.51-1.11-16.63 2.82-26.46L185.8 353.5l37 83.14" fill="url(#lines)"/>
        </g>
    </g>
</svg>
