<svg width="20" height="21" viewBox="0 0 20 21" fill="none" xmlns="http://www.w3.org/2000/svg">
<path fill-rule="evenodd" clip-rule="evenodd" d="M20 10.9561C20 16.4789 15.5228 20.9561 10 20.9561C4.47715 20.9561 0 16.4789 0 10.9561C0 5.43321 4.47715 0.956055 10 0.956055C15.5228 0.956055 20 5.43321 20 10.9561ZM9 14.9561V9.95605H11V14.9561H9ZM10 8.95605C10.5523 8.95605 11 8.50834 11 7.95605C11 7.40377 10.5523 6.95605 10 6.95605C9.44771 6.95605 9 7.40377 9 7.95605C9 8.50834 9.44772 8.95605 10 8.95605Z" fill="#A7AEB7"/>
</svg>
