<svg xmlns="http://www.w3.org/2000/svg" viewBox="0 0 115 132">
  <path fill="#4038FF" d="M51.8632479,113.692308 C51.8632479,116.996758 54.5417036,119.675214 57.8461538,119.675214 C61.0755029,119.675214 63.7069885,117.117122 63.8249334,113.916617 L63.8290598,113.692308 L75.7948718,113.692308 C75.7948718,123.605293 67.7591395,131.641026 57.8461538,131.641026 C48.0433124,131.641026 40.0762395,123.782873 39.9004036,114.022037 L39.8974359,113.692308 L51.8632479,113.692308 Z M57.8461538,0.0170940171 C80.7446789,0.0170940171 99.3510474,18.3944773 99.7208849,41.2048694 L99.7264957,41.8974359 L99.7290133,42.7471895 C99.8296148,59.6728461 102.939199,72.4370007 107.970315,81.6607137 C109.68296,84.8005623 111.479713,87.2561251 113.231127,89.1048397 C113.722208,89.6232025 114.168617,90.0493904 114.560113,90.3888896 L115.011027,90.7655111 L111.692308,101.726496 L4,101.726496 L0.681280877,90.7655111 L0.941070899,90.5514405 C1.37612842,90.1888926 1.88825326,89.7095963 2.46118052,89.1048397 C4.21259434,87.2561251 6.00934765,84.8005623 7.7219923,81.6607137 C12.8369604,72.2832722 15.965812,59.2463908 15.965812,41.8974359 C15.965812,18.7676126 34.7163306,0.0170940171 57.8461538,0.0170940171 Z M57.8461538,11.982906 C41.324866,11.982906 27.9316239,25.3761481 27.9316239,41.8974359 C27.9316239,61.1937802 24.3297062,76.2017706 18.2267256,87.3905683 C17.8577861,88.0669575 17.4833926,88.7221051 17.1042444,89.3563017 L16.859,89.76 L98.833,89.76 L98.5880633,89.3563017 C98.3352978,88.9335039 98.0846456,88.5013947 97.8363137,88.0598877 L97.465582,87.3905683 C91.4594742,76.3793705 87.8756605,61.669262 87.7634019,42.8130699 L87.7606838,41.8974359 L87.7566761,41.4027459 C87.4925061,25.1096226 74.2022288,11.982906 57.8461538,11.982906 Z"/>
</svg>
