<svg xmlns="http://www.w3.org/2000/svg" width="659" height="1020" viewBox="0 0 659 1020">
  <g fill="none" fill-rule="evenodd" transform="matrix(1 0 0 -1 0 1020)">
    <path fill="#261EE4" d="M226.660142 980.010133L220.006762 980.010133 220.006762 986.663467 226.660142 986.663467 226.660142 993.333333 220.006762 993.333333 220.006762 1000.0032 226.660142 1000.0032 226.660142 1006.65653 233.330071 1006.65653 233.330071 1013.3264 226.660142 1013.3264 226.660142 1006.67307 220.006762 1006.67307 220.006762 1013.3264 226.660142 1013.3264 226.660142 1020 219.990214 1020 219.990214 1013.33013 213.336833 1013.33013 213.336833 1006.6768 206.666904 1006.6768 206.666904 1013.33013 199.996975 1013.33013 199.996975 1006.6768 193.343594 1006.6768 193.343594 1013.33013 199.996975 1013.33013 199.996975 1020 193.326512 1020 193.326512 1013.33013 186.673665 1013.33013 186.673665 1020 180 1020 180 1013.33013 186.669929 1013.33013 186.669929 1006.6768 180 1006.6768 180 1000.0064 186.669929 1000.0064 186.669929 993.336533 180 993.336533 180 986.666667 186.669929 986.666667 186.669929 980.013333 186.669929 979.9968 193.32331 979.9968 193.32331 973.343467 199.993238 973.343467 199.993238 979.9968 206.663167 979.9968 206.663167 973.343467 213.33363 973.343467 213.33363 979.9968 219.987011 979.9968 219.987011 973.343467 226.65694 973.343467 226.65694 979.9968 233.326868 979.9968 233.326868 986.666667 226.65694 986.666667 226.65694 980.010133 226.660142 980.010133zM186.669929 979.9936L186.669929 973.339733 180 973.339733 180 980.010133 186.669929 980.010133 186.669929 979.9936zM206.663167 1013.33013L206.663167 1020 213.33363 1020 213.33363 1013.33013 206.663167 1013.33013zM226.660142 1000.0064L226.660142 993.336533 233.330071 993.336533 233.330071 1000.0064 226.660142 1000.0064zM193.32331 1006.66027L186.669929 1006.66027 186.669929 1000.0064 193.32331 1000.0064 193.32331 1006.66027zM193.339858 973.339733L193.339858 966.669867 199.993238 966.669867 199.993238 973.339733 206.663167 973.339733 206.663167 966.669867 213.33363 966.669867 213.33363 973.339733 220.003559 973.339733 220.003559 966.669867 226.65694 966.669867 226.65694 973.339733 233.326868 973.339733 233.326868 966.669867 226.65694 966.669867 226.65694 960 219.987011 960 219.987011 966.669867 213.33363 966.669867 213.33363 960 206.663167 960 206.663167 966.669867 199.993238 966.669867 199.993238 960 193.32331 960 193.32331 966.669867 186.669929 966.669867 186.669929 960 180 960 180 966.669867 186.669929 966.669867 186.669929 973.339733 193.339858 973.339733zM219.987011 986.663467L219.987011 993.333333 213.33363 993.333333 213.33363 986.663467 219.987011 986.663467zM206.663167 986.663467L206.663167 980.010133 213.33363 980.010133 213.33363 986.663467 206.663167 986.663467zM199.993238 986.663467L206.663167 986.663467 206.663167 993.333333 199.993238 993.333333 199.993238 986.663467zM199.993238 986.663467L193.339858 986.663467 193.339858 980.010133 199.993238 980.010133 199.993238 986.663467zM199.993238 1000.0064L193.339858 1000.0064 193.339858 993.336533 199.993238 993.336533 199.993238 1000.0064zM206.663167 1000.0064L206.663167 1006.66027 199.993238 1006.66027 199.993238 1000.0064 206.663167 1000.0064zM213.336833 1000.0064L206.666904 1000.0064 206.666904 993.336533 213.336833 993.336533 213.336833 1000.0064zM213.336833 1000.0064L219.990214 1000.0064 219.990214 1006.66027 213.336833 1006.66027 213.336833 1000.0064zM193.32331 993.336533L193.32331 986.666667 186.669929 986.666667 186.669929 993.336533 193.32331 993.336533zM240 1013.33013L233.330071 1013.33013 233.330071 1020 240 1020 240 1013.33013zM233.330071 1000.0064L240 1000.0064 240 1006.6768 233.330071 1006.6768 233.330071 1000.0064zM240 986.663467L233.330071 986.663467 233.330071 993.333333 240 993.333333 240 986.663467zM233.330071 973.339733L240 973.339733 240 980.010133 233.330071 980.010133 233.330071 973.339733zM233.330071 960L240 960 240 966.669867 233.330071 966.669867 233.330071 960zM46.6601423 740.010133L40.0067616 740.010133 40.0067616 746.663467 46.6601423 746.663467 46.6601423 753.333333 40.0067616 753.333333 40.0067616 760.0032 46.6601423 760.0032 46.6601423 766.656533 53.3300712 766.656533 53.3300712 773.3264 46.6601423 773.3264 46.6601423 766.673067 40.0067616 766.673067 40.0067616 773.3264 46.6601423 773.3264 46.6601423 780 39.9902135 780 39.9902135 773.330133 33.3368327 773.330133 33.3368327 766.6768 26.6669039 766.6768 26.6669039 773.330133 19.9969751 773.330133 19.9969751 766.6768 13.3435943 766.6768 13.3435943 773.330133 19.9969751 773.330133 19.9969751 780 13.3265125 780 13.3265125 773.330133 6.67366548 773.330133 6.67366548 780 0 780 0 773.330133 6.66992883 773.330133 6.66992883 766.6768 0 766.6768 0 760.0064 6.66992883 760.0064 6.66992883 753.336533 0 753.336533 0 746.666667 6.66992883 746.666667 6.66992883 740.013333 6.66992883 739.9968 13.3233096 739.9968 13.3233096 733.343467 19.9932384 733.343467 19.9932384 739.9968 26.6631673 739.9968 26.6631673 733.343467 33.3336299 733.343467 33.3336299 739.9968 39.9870107 739.9968 39.9870107 733.343467 46.6569395 733.343467 46.6569395 739.9968 53.3268683 739.9968 53.3268683 746.666667 46.6569395 746.666667 46.6569395 740.010133 46.6601423 740.010133zM6.66992883 739.9936L6.66992883 733.339733 0 733.339733 0 740.010133 6.66992883 740.010133 6.66992883 739.9936zM26.6631673 773.330133L26.6631673 780 33.3336299 780 33.3336299 773.330133 26.6631673 773.330133zM46.6601423 760.0064L46.6601423 753.336533 53.3300712 753.336533 53.3300712 760.0064 46.6601423 760.0064zM13.3233096 766.660267L6.66992883 766.660267 6.66992883 760.0064 13.3233096 760.0064 13.3233096 766.660267zM13.3398577 733.339733L13.3398577 726.669867 19.9932384 726.669867 19.9932384 733.339733 26.6631673 733.339733 26.6631673 726.669867 33.3336299 726.669867 33.3336299 733.339733 40.0035587 733.339733 40.0035587 726.669867 46.6569395 726.669867 46.6569395 733.339733 53.3268683 733.339733 53.3268683 726.669867 46.6569395 726.669867 46.6569395 720 39.9870107 720 39.9870107 726.669867 33.3336299 726.669867 33.3336299 720 26.6631673 720 26.6631673 726.669867 19.9932384 726.669867 19.9932384 720 13.3233096 720 13.3233096 726.669867 6.66992883 726.669867 6.66992883 720 0 720 0 726.669867 6.66992883 726.669867 6.66992883 733.339733 13.3398577 733.339733zM39.9870107 746.663467L39.9870107 753.333333 33.3336299 753.333333 33.3336299 746.663467 39.9870107 746.663467zM26.6631673 746.663467L26.6631673 740.010133 33.3336299 740.010133 33.3336299 746.663467 26.6631673 746.663467zM19.9932384 746.663467L26.6631673 746.663467 26.6631673 753.333333 19.9932384 753.333333 19.9932384 746.663467zM19.9932384 746.663467L13.3398577 746.663467 13.3398577 740.010133 19.9932384 740.010133 19.9932384 746.663467zM19.9932384 760.0064L13.3398577 760.0064 13.3398577 753.336533 19.9932384 753.336533 19.9932384 760.0064zM26.6631673 760.0064L26.6631673 766.660267 19.9932384 766.660267 19.9932384 760.0064 26.6631673 760.0064zM33.3368327 760.0064L26.6669039 760.0064 26.6669039 753.336533 33.3368327 753.336533 33.3368327 760.0064zM33.3368327 760.0064L39.9902135 760.0064 39.9902135 766.660267 33.3368327 766.660267 33.3368327 760.0064zM13.3233096 753.336533L13.3233096 746.666667 6.66992883 746.666667 6.66992883 753.336533 13.3233096 753.336533zM60 773.330133L53.3300712 773.330133 53.3300712 780 60 780 60 773.330133zM53.3300712 760.0064L60 760.0064 60 766.6768 53.3300712 766.6768 53.3300712 760.0064zM60 746.663467L53.3300712 746.663467 53.3300712 753.333333 60 753.333333 60 746.663467zM53.3300712 733.339733L60 733.339733 60 740.010133 53.3300712 740.010133 53.3300712 733.339733zM53.3300712 720L60 720 60 726.669867 53.3300712 726.669867 53.3300712 720z"/>
    <path fill="#FFF" d="M346.660142,140.010133 L340.006762,140.010133 L340.006762,146.663467 L346.660142,146.663467 L346.660142,153.333333 L340.006762,153.333333 L340.006762,160.0032 L346.660142,160.0032 L346.660142,166.656533 L353.330071,166.656533 L353.330071,173.3264 L346.660142,173.3264 L346.660142,166.673067 L340.006762,166.673067 L340.006762,173.3264 L346.660142,173.3264 L346.660142,180 L339.990214,180 L339.990214,173.330133 L333.336833,173.330133 L333.336833,166.6768 L326.666904,166.6768 L326.666904,173.330133 L319.996975,173.330133 L319.996975,166.6768 L313.343594,166.6768 L313.343594,173.330133 L319.996975,173.330133 L319.996975,180 L313.326512,180 L313.326512,173.330133 L306.673665,173.330133 L306.673665,180 L300,180 L300,173.330133 L306.669929,173.330133 L306.669929,166.6768 L300,166.6768 L300,160.0064 L306.669929,160.0064 L306.669929,153.336533 L300,153.336533 L300,146.666667 L306.669929,146.666667 L306.669929,140.013333 L306.669929,139.9968 L313.32331,139.9968 L313.32331,133.343467 L319.993238,133.343467 L319.993238,139.9968 L326.663167,139.9968 L326.663167,133.343467 L333.33363,133.343467 L333.33363,139.9968 L339.987011,139.9968 L339.987011,133.343467 L346.65694,133.343467 L346.65694,139.9968 L353.326868,139.9968 L353.326868,146.666667 L346.65694,146.666667 L346.65694,140.010133 L346.660142,140.010133 Z M306.669929,139.9936 L306.669929,133.339733 L300,133.339733 L300,140.010133 L306.669929,140.010133 L306.669929,139.9936 Z M326.663167,173.330133 L326.663167,180 L333.33363,180 L333.33363,173.330133 L326.663167,173.330133 Z M346.660142,160.0064 L346.660142,153.336533 L353.330071,153.336533 L353.330071,160.0064 L346.660142,160.0064 Z M313.32331,166.660267 L306.669929,166.660267 L306.669929,160.0064 L313.32331,160.0064 L313.32331,166.660267 Z M313.339858,133.339733 L313.339858,126.669867 L319.993238,126.669867 L319.993238,133.339733 L326.663167,133.339733 L326.663167,126.669867 L333.33363,126.669867 L333.33363,133.339733 L340.003559,133.339733 L340.003559,126.669867 L346.65694,126.669867 L346.65694,133.339733 L353.326868,133.339733 L353.326868,126.669867 L346.65694,126.669867 L346.65694,120 L339.987011,120 L339.987011,126.669867 L333.33363,126.669867 L333.33363,120 L326.663167,120 L326.663167,126.669867 L319.993238,126.669867 L319.993238,120 L313.32331,120 L313.32331,126.669867 L306.669929,126.669867 L306.669929,120 L300,120 L300,126.669867 L306.669929,126.669867 L306.669929,133.339733 L313.339858,133.339733 Z M339.987011,146.663467 L339.987011,153.333333 L333.33363,153.333333 L333.33363,146.663467 L339.987011,146.663467 Z M326.663167,146.663467 L326.663167,140.010133 L333.33363,140.010133 L333.33363,146.663467 L326.663167,146.663467 Z M319.993238,146.663467 L326.663167,146.663467 L326.663167,153.333333 L319.993238,153.333333 L319.993238,146.663467 Z M319.993238,146.663467 L313.339858,146.663467 L313.339858,140.010133 L319.993238,140.010133 L319.993238,146.663467 Z M319.993238,160.0064 L313.339858,160.0064 L313.339858,153.336533 L319.993238,153.336533 L319.993238,160.0064 Z M326.663167,160.0064 L326.663167,166.660267 L319.993238,166.660267 L319.993238,160.0064 L326.663167,160.0064 Z M333.336833,160.0064 L326.666904,160.0064 L326.666904,153.336533 L333.336833,153.336533 L333.336833,160.0064 Z M333.336833,160.0064 L339.990214,160.0064 L339.990214,166.660267 L333.336833,166.660267 L333.336833,160.0064 Z M313.32331,153.336533 L313.32331,146.666667 L306.669929,146.666667 L306.669929,153.336533 L313.32331,153.336533 Z M360,173.330133 L353.330071,173.330133 L353.330071,180 L360,180 L360,173.330133 Z M353.330071,160.0064 L360,160.0064 L360,166.6768 L353.330071,166.6768 L353.330071,160.0064 Z M360,146.663467 L353.330071,146.663467 L353.330071,153.333333 L360,153.333333 L360,146.663467 Z M353.330071,133.339733 L360,133.339733 L360,140.010133 L353.330071,140.010133 L353.330071,133.339733 Z M353.330071,120 L360,120 L360,126.669867 L353.330071,126.669867 L353.330071,120 Z"/>
    <path fill="#FFF" fill-rule="nonzero" d="M603.699429,360 L599,360 L599,355.3 L654.299429,300 L659,300 L659,304.7 L603.699429,360 Z M644.866286,300 L635.433143,300 L599,336.433257 L599,345.866629 L644.866286,300 Z M626,300 L616.566857,300 L599,317.566629 L599,327 L626,300 Z M599,300 L599,308.133326 L607.132571,300 L599,300 Z M659,323.566629 L659,314.133371 L613.132571,360 L622.566857,360 L659,323.566629 Z M659,342.433257 L659,333 L632,360 L641.433143,360 L659,342.433257 Z M659,351.866629 L650.866286,360 L659,360 L659,351.866629 Z"/>
    <path fill="#FFF" d="M240,246.669867 L240,240 L180,240 L180,246.669867 L240,246.669867 Z M240,253.333333 L240,260 L180,260 L180,253.333333 L240,253.333333 Z M240,266.666667 L240,273.333333 L180,273.333333 L180,266.666667 L240,266.666667 Z M240,286.666667 L240,280 L180,280 L180,286.666667 L240,286.666667 Z M240,293.333333 L240,300 L180,300 L180,293.333333 L240,293.333333 Z"/>
    <path fill="#261EE4" d="M600 906.669867L600 900 540 900 540 906.669867 600 906.669867zM600 913.333333L600 920 540 920 540 913.333333 600 913.333333zM600 926.666667L600 933.333333 540 933.333333 540 926.666667 600 926.666667zM600 946.666667L600 940 540 940 540 946.666667 600 946.666667zM600 953.333333L600 960 540 960 540 953.333333 600 953.333333zM420 233.330027L420 240 360 240 360 233.330027 420 233.330027zM420 213.326667L420 206.656693 360 206.656693 360 213.326667 420 213.326667zM420 193.32336L420 199.993333 360 199.993333 360 193.32336 420 193.32336zM420 180L420 186.670027 360 186.670027 360 180 420 180zM420 226.66L420 219.989973 360 219.989973 360 226.66 420 226.66z"/>
    <path fill="#FFF" d="M652.333274,780 L659,780 C659,813.136533 632.136655,840 599,840 L599,833.333333 C628.456584,833.333333 652.333274,809.456533 652.333274,780 Z M638.999822,780 L645.666548,780 C645.666548,805.773333 624.77331,826.666667 599,826.666667 L599,820 C621.090036,820 638.999822,802.090133 638.999822,780 Z M632.33363,780 L625.666904,780 C625.666904,794.7264 613.72669,806.666667 599,806.666667 L599,813.333333 C617.409964,813.333333 632.33363,798.410133 632.33363,780 Z M612.333452,780 L619.000178,780 C619.000178,791.0464 610.046619,800 599,800 L599,793.333333 C606.363345,793.333333 612.333452,787.3632 612.333452,780 Z M599,780 L605.666726,780 C605.666726,783.6832 602.683274,786.666667 599,786.666667 L599,780 Z"/>
    <path fill="#261EE4" d="M366.666726,840 L360,840 C360,806.863467 386.863345,780 420,780 L420,786.666667 C390.543416,786.666667 366.666726,810.543467 366.666726,840 Z M380.000178,840 L373.333452,840 C373.333452,814.226667 394.22669,793.333333 420,793.333333 L420,800 C397.909964,800 380.000178,817.909867 380.000178,840 Z M386.666904,840 L393.33363,840 C393.33363,825.273067 405.27331,813.333333 420,813.333333 L420,806.666667 C401.590036,806.666667 386.666904,821.589867 386.666904,840 Z M406.666548,840 L400.000356,840 C400.000356,828.953067 408.953381,820 420,820 L420,826.666667 C412.636655,826.666667 406.666548,832.6368 406.666548,840 Z M420,840 L413.333274,840 C413.333274,836.3168 416.316726,833.333333 420,833.333333 L420,840 Z"/>
    <path fill="#261EE4" fill-rule="nonzero" d="M180,660 L180,720 L240,720 C240,686.863467 213.136655,660 180,660 Z" transform="rotate(-180 210 690)"/>
    <path fill="#261EE4" fill-rule="nonzero" d="M599,1020 L659,1020 L659,960 C625.863345,960 599,986.863467 599,1020 Z"/>
    <path fill="#FFF" d="M246.669929,960 L240,960 L240,900 L246.669929,900 L246.669929,960 Z M266.67331,960 L273.343238,960 L273.343238,900 L266.67331,900 L266.67331,960 Z M286.67669,960 L280.006762,960 L280.006762,900 L286.67669,900 L286.67669,960 Z M300,960 L293.330071,960 L293.330071,900 L300,900 L300,960 Z M253.339858,960 L260.009786,960 L260.009786,900 L253.339858,900 L253.339858,960 Z"/>
    <path fill="#261EE4" d="M66.6699288 840L60 840 60 780 66.6699288 780 66.6699288 840zM86.6733096 840L93.3432384 840 93.3432384 780 86.6733096 780 86.6733096 840zM106.67669 840L100.006762 840 100.006762 780 106.67669 780 106.67669 840zM120 840L113.330071 840 113.330071 780 120 780 120 840zM73.3398577 840L80.0097865 840 80.0097865 780 73.3398577 780 73.3398577 840zM545.669929 660L539 660 539 600 545.669929 600 545.669929 660zM565.67331 660L572.343238 660 572.343238 600 565.67331 600 565.67331 660zM585.67669 660L579.006762 660 579.006762 600 585.67669 600 585.67669 660zM599 660L592.330071 660 592.330071 600 599 600 599 660zM552.339858 660L559.009786 660 559.009786 600 552.339858 600 552.339858 660z"/>
    <path fill="#261EE4" fill-rule="nonzero" d="M424.699429,60 L420,60 L420,55.3 L475.299429,0 L480,0 L480,4.7 L424.699429,60 Z M465.866286,0 L456.433143,0 L420,36.4332571 L420,45.8666286 L465.866286,0 Z M447,0 L437.566857,0 L420,17.5666286 L420,27 L447,0 Z M420,0 L420,8.13332571 L428.132571,0 L420,0 Z M480,23.5666286 L480,14.1333714 L434.132571,60 L443.566857,60 L480,23.5666286 Z M480,42.4332571 L480,33 L453,60 L462.433143,60 L480,42.4332571 Z M480,51.8666286 L471.866286,60 L480,60 L480,51.8666286 Z"/>
    <path fill="#261EE4" fill-rule="nonzero" d="M64.6994286,360 L60,360 L60,355.3 L115.299429,300 L120,300 L120,304.7 L64.6994286,360 Z M105.866286,300 L96.4331429,300 L60,336.433257 L60,345.866629 L105.866286,300 Z M87,300 L77.5668571,300 L60,317.566629 L60,327 L87,300 Z M60,300 L60,308.133326 L68.1325714,300 L60,300 Z M120,323.566629 L120,314.133371 L74.1325714,360 L83.5668571,360 L120,323.566629 Z M120,342.433257 L120,333 L93,360 L102.433143,360 L120,342.433257 Z M120,351.866629 L111.866286,360 L120,360 L120,351.866629 Z" transform="rotate(90 90 330)"/>
  </g>
</svg>
