<svg xmlns="http://www.w3.org/2000/svg" width="1401" height="3" viewBox="0 0 1401 3">
  <g fill="none" fill-rule="evenodd" stroke="#536DFF">
    <g transform="translate(80)">
      <line x1=".5" x2=".5" y2="3"/>
      <line x1="960.5" x2="960.5" y2="3"/>
      <line x1="480.5" x2="480.5" y2="3"/>
      <line x1="240.5" x2="240.5" y2="3"/>
      <line x1="1200.5" x2="1200.5" y2="3"/>
      <line x1="720.5" x2="720.5" y2="3"/>
      <line x1="120.5" x2="120.5" y2="3"/>
      <line x1="1080.5" x2="1080.5" y2="3"/>
      <line x1="600.5" x2="600.5" y2="3"/>
      <line x1="360.5" x2="360.5" y2="3"/>
      <line x1="1320.5" x2="1320.5" y2="3"/>
      <line x1="840.5" x2="840.5" y2="3"/>
    </g>
    <g opacity=".4">
      <line x1=".5" x2=".5" y2="3"/>
      <line x1="960.5" x2="960.5" y2="3"/>
      <line x1="480.5" x2="480.5" y2="3"/>
      <line x1="240.5" x2="240.5" y2="3"/>
      <line x1="1200.5" x2="1200.5" y2="3"/>
      <line x1="720.5" x2="720.5" y2="3"/>
      <line x1="120.5" x2="120.5" y2="3"/>
      <line x1="1080.5" x2="1080.5" y2="3"/>
      <line x1="600.5" x2="600.5" y2="3"/>
      <line x1="360.5" x2="360.5" y2="3"/>
      <line x1="1320.5" x2="1320.5" y2="3"/>
      <line x1="840.5" x2="840.5" y2="3"/>
    </g>
  </g>
</svg>
