<svg xmlns="http://www.w3.org/2000/svg" width="659" height="1358" viewBox="0 0 659 1358">
  <g fill="none" fill-rule="evenodd" transform="matrix(1 0 0 -1 0 1358)">
    <path fill="#261EE4" d="M226.660142,1258.01013 L220.006762,1258.01013 L220.006762,1264.66347 L226.660142,1264.66347 L226.660142,1271.33333 L220.006762,1271.33333 L220.006762,1278.0032 L226.660142,1278.0032 L226.660142,1284.65653 L233.330071,1284.65653 L233.330071,1291.3264 L226.660142,1291.3264 L226.660142,1284.67307 L220.006762,1284.67307 L220.006762,1291.3264 L226.660142,1291.3264 L226.660142,1298 L219.990214,1298 L219.990214,1291.33013 L213.336833,1291.33013 L213.336833,1284.6768 L206.666904,1284.6768 L206.666904,1291.33013 L199.996975,1291.33013 L199.996975,1284.6768 L193.343594,1284.6768 L193.343594,1291.33013 L199.996975,1291.33013 L199.996975,1298 L193.326512,1298 L193.326512,1291.33013 L186.673665,1291.33013 L186.673665,1298 L180,1298 L180,1291.33013 L186.669929,1291.33013 L186.669929,1284.6768 L180,1284.6768 L180,1278.0064 L186.669929,1278.0064 L186.669929,1271.33653 L180,1271.33653 L180,1264.66667 L186.669929,1264.66667 L186.669929,1258.01333 L186.669929,1257.9968 L193.32331,1257.9968 L193.32331,1251.34347 L199.993238,1251.34347 L199.993238,1257.9968 L206.663167,1257.9968 L206.663167,1251.34347 L213.33363,1251.34347 L213.33363,1257.9968 L219.987011,1257.9968 L219.987011,1251.34347 L226.65694,1251.34347 L226.65694,1257.9968 L233.326868,1257.9968 L233.326868,1264.66667 L226.65694,1264.66667 L226.65694,1258.01013 L226.660142,1258.01013 Z M186.669929,1257.9936 L186.669929,1251.33973 L180,1251.33973 L180,1258.01013 L186.669929,1258.01013 L186.669929,1257.9936 Z M206.663167,1291.33013 L206.663167,1298 L213.33363,1298 L213.33363,1291.33013 L206.663167,1291.33013 Z M226.660142,1278.0064 L226.660142,1271.33653 L233.330071,1271.33653 L233.330071,1278.0064 L226.660142,1278.0064 Z M193.32331,1284.66027 L186.669929,1284.66027 L186.669929,1278.0064 L193.32331,1278.0064 L193.32331,1284.66027 Z M193.339858,1251.33973 L193.339858,1244.66987 L199.993238,1244.66987 L199.993238,1251.33973 L206.663167,1251.33973 L206.663167,1244.66987 L213.33363,1244.66987 L213.33363,1251.33973 L220.003559,1251.33973 L220.003559,1244.66987 L226.65694,1244.66987 L226.65694,1251.33973 L233.326868,1251.33973 L233.326868,1244.66987 L226.65694,1244.66987 L226.65694,1238 L219.987011,1238 L219.987011,1244.66987 L213.33363,1244.66987 L213.33363,1238 L206.663167,1238 L206.663167,1244.66987 L199.993238,1244.66987 L199.993238,1238 L193.32331,1238 L193.32331,1244.66987 L186.669929,1244.66987 L186.669929,1238 L180,1238 L180,1244.66987 L186.669929,1244.66987 L186.669929,1251.33973 L193.339858,1251.33973 Z M219.987011,1264.66347 L219.987011,1271.33333 L213.33363,1271.33333 L213.33363,1264.66347 L219.987011,1264.66347 Z M206.663167,1264.66347 L206.663167,1258.01013 L213.33363,1258.01013 L213.33363,1264.66347 L206.663167,1264.66347 Z M199.993238,1264.66347 L206.663167,1264.66347 L206.663167,1271.33333 L199.993238,1271.33333 L199.993238,1264.66347 Z M199.993238,1264.66347 L193.339858,1264.66347 L193.339858,1258.01013 L199.993238,1258.01013 L199.993238,1264.66347 Z M199.993238,1278.0064 L193.339858,1278.0064 L193.339858,1271.33653 L199.993238,1271.33653 L199.993238,1278.0064 Z M206.663167,1278.0064 L206.663167,1284.66027 L199.993238,1284.66027 L199.993238,1278.0064 L206.663167,1278.0064 Z M213.336833,1278.0064 L206.666904,1278.0064 L206.666904,1271.33653 L213.336833,1271.33653 L213.336833,1278.0064 Z M213.336833,1278.0064 L219.990214,1278.0064 L219.990214,1284.66027 L213.336833,1284.66027 L213.336833,1278.0064 Z M193.32331,1271.33653 L193.32331,1264.66667 L186.669929,1264.66667 L186.669929,1271.33653 L193.32331,1271.33653 Z M240,1291.33013 L233.330071,1291.33013 L233.330071,1298 L240,1298 L240,1291.33013 Z M233.330071,1278.0064 L240,1278.0064 L240,1284.6768 L233.330071,1284.6768 L233.330071,1278.0064 Z M240,1264.66347 L233.330071,1264.66347 L233.330071,1271.33333 L240,1271.33333 L240,1264.66347 Z M233.330071,1251.33973 L240,1251.33973 L240,1258.01013 L233.330071,1258.01013 L233.330071,1251.33973 Z M233.330071,1238 L240,1238 L240,1244.66987 L233.330071,1244.66987 L233.330071,1238 Z"/>
    <path fill="#FFF" fill-rule="nonzero" d="M603.699429,179 L599,179 L599,174.3 L654.299429,119 L659,119 L659,123.7 L603.699429,179 Z M644.866286,119 L635.433143,119 L599,155.433257 L599,164.866629 L644.866286,119 Z M626,119 L616.566857,119 L599,136.566629 L599,146 L626,119 Z M599,119 L599,127.133326 L607.132571,119 L599,119 Z M659,142.566629 L659,133.133371 L613.132571,179 L622.566857,179 L659,142.566629 Z M659,161.433257 L659,152 L632,179 L641.433143,179 L659,161.433257 Z M659,170.866629 L650.866286,179 L659,179 L659,170.866629 Z" transform="rotate(90 629 149)"/>
    <path fill="#FFF" d="M240,65.6698667 L240,59 L180,59 L180,65.6698667 L240,65.6698667 Z M240,72.3333333 L240,79 L180,79 L180,72.3333333 L240,72.3333333 Z M240,85.6666667 L240,92.3333333 L180,92.3333333 L180,85.6666667 L240,85.6666667 Z M240,105.666667 L240,99 L180,99 L180,105.666667 L240,105.666667 Z M240,112.333333 L240,119 L180,119 L180,112.333333 L240,112.333333 Z"/>
    <path fill="#261EE4" d="M60 665.669867L60 659 0 659 0 665.669867 60 665.669867zM60 672.333333L60 679 0 679 0 672.333333 60 672.333333zM60 685.666667L60 692.333333 0 692.333333 0 685.666667 60 685.666667zM60 705.666667L60 699 0 699 0 705.666667 60 705.666667zM60 712.333333L60 719 0 719 0 712.333333 60 712.333333zM420 53.3300267L420 60 360 60 360 53.3300267 420 53.3300267zM420 33.3266667L420 26.6566933 360 26.6566933 360 33.3266667 420 33.3266667zM420 13.32336L420 19.9933333 360 19.9933333 360 13.32336 420 13.32336zM420 0L420 6.67002667 360 6.67002667 360 0 420 0zM420 46.66L420 39.9899733 360 39.9899733 360 46.66 420 46.66z"/>
    <path fill="#FFF" d="M533.333274,658 L540,658 C540,691.136533 513.136655,718 480,718 L480,711.333333 C509.456584,711.333333 533.333274,687.456533 533.333274,658 Z M519.999822,658 L526.666548,658 C526.666548,683.773333 505.77331,704.666667 480,704.666667 L480,698 C502.090036,698 519.999822,680.090133 519.999822,658 Z M513.33363,658 L506.666904,658 C506.666904,672.7264 494.72669,684.666667 480,684.666667 L480,691.333333 C498.409964,691.333333 513.33363,676.410133 513.33363,658 Z M493.333452,658 L500.000178,658 C500.000178,669.0464 491.046619,678 480,678 L480,671.333333 C487.363345,671.333333 493.333452,665.3632 493.333452,658 Z M480,658 L486.666726,658 C486.666726,661.6832 483.683274,664.666667 480,664.666667 L480,658 Z"/>
    <path fill="#261EE4" fill-rule="nonzero" d="M540,778 L600,778 L600,718 C566.863345,718 540,744.863467 540,778 Z"/>
    <path fill="#FFF" d="M486.669929,1358 L480,1358 L480,1298 L486.669929,1298 L486.669929,1358 Z M506.67331,1358 L513.343238,1358 L513.343238,1298 L506.67331,1298 L506.67331,1358 Z M526.67669,1358 L520.006762,1358 L520.006762,1298 L526.67669,1298 L526.67669,1358 Z M540,1358 L533.330071,1358 L533.330071,1298 L540,1298 L540,1358 Z M493.339858,1358 L500.009786,1358 L500.009786,1298 L493.339858,1298 L493.339858,1358 Z"/>
    <path fill="#261EE4" d="M66.6699288,1358 L60,1358 L60,1298 L66.6699288,1298 L66.6699288,1358 Z M86.6733096,1358 L93.3432384,1358 L93.3432384,1298 L86.6733096,1298 L86.6733096,1358 Z M106.67669,1358 L100.006762,1358 L100.006762,1298 L106.67669,1298 L106.67669,1358 Z M120,1358 L113.330071,1358 L113.330071,1298 L120,1298 L120,1358 Z M73.3398577,1358 L80.0097865,1358 L80.0097865,1298 L73.3398577,1298 L73.3398577,1358 Z"/>
    <path fill="#261EE4" fill-rule="nonzero" d="M124.699429,179 L120,179 L120,174.3 L175.299429,119 L180,119 L180,123.7 L124.699429,179 Z M165.866286,119 L156.433143,119 L120,155.433257 L120,164.866629 L165.866286,119 Z M147,119 L137.566857,119 L120,136.566629 L120,146 L147,119 Z M120,119 L120,127.133326 L128.132571,119 L120,119 Z M180,142.566629 L180,133.133371 L134.132571,179 L143.566857,179 L180,142.566629 Z M180,161.433257 L180,152 L153,179 L162.433143,179 L180,161.433257 Z M180,170.866629 L171.866286,179 L180,179 L180,170.866629 Z" transform="rotate(90 150 149)"/>
  </g>
</svg>
