<svg viewBox="0 0 168 280" xmlns="http://www.w3.org/2000/svg">
  <g fill="none" fill-rule="evenodd">
    <path d="M167.31743365 223.01528483c.00030734 7.24024873-3.87195573 13.93504834-10.15373823 17.55491589l-63.34955239 36.50508063c-6.26554345 3.6105104-13.97674004 3.61351411-20.23323978.0078807l-63.41317848-36.545139C3.91122504 236.93238963.05822313 230.26491658.05791722 223.04338472L.12742924 57.71676706c-.0003065-7.24024887 3.87195628-13.935049 10.15373888-17.55491637l63.3495522-36.50508075C79.89626416.04626 87.60746045.04325658 93.8639597 3.64888934l63.41317924 36.5451396c6.25649927 3.60563288 10.109501 10.27310604 10.10980736 17.49463764l-.06951265 165.32661825z" fill="#000"/>
    <path d="M80.51296103 256.84858832c.00955849 5.1985978-3.16622197 7.58567468-7.09330436 5.33168445l-57.24041718-32.8537388c-3.9270824-2.25399024-7.11835952-8.29550636-7.12791802-13.49410415l-.11941872-64.9489673c-.0095585-5.1985978 3.1662216-7.58567333 7.0933035-5.33168396l57.24041767 32.85373967c3.9270819 2.25398937 7.11835989 8.29550499 7.12791838 13.49410278l.11941873 64.9489673zM81.51296094 168.84858898c.0095585 5.1985978-3.16622246 7.58567382-7.0933035 5.33168395L17.1792389 141.32653377c-3.9270819-2.25398937-7.11835902-8.2955055-7.1279175-13.49410329L9.9319024 62.88346274c-.00955844-5.1985977 3.16622227-7.58567416 7.09330355-5.33168386L74.26562408 90.4055177c3.92708209 2.2539903 7.11835964 8.29550617 7.12791814 13.49410396l.11941872 64.94896731z" fill="#FFF"/>
    <path d="M92.060494 174.19440614c-4.51020415 2.63034326-8.16754503 1.07426701-8.16889748-3.47559349l-.01971993-66.31791952c-.00135288-4.54986025 3.65379394-10.37056526 8.16399861-13.00090882l56.34849388-32.86233846c4.51020468-2.63034356 8.16754513-1.07426706 8.168898 3.47559319l.01971968 66.31791967c.00135288 4.54986025-3.65379394 10.37056526-8.16399861 13.00090882l-56.34849414 32.86233861zM147.13122244 46.3897114c4.51462098 2.57529107 4.99180051 6.50047588 1.06581104 8.76714711L90.97254142 88.1954348c-3.92598937 2.26667105-10.76845572 2.01648523-15.28307631-.55880573l-56.40366223-32.1745391c-4.51462064-2.57529087-4.9918006-6.50047652-1.06581124-8.76714757l57.2244924-33.03857609c3.92598966-2.26667135 10.76845557-2.01648475 15.2830762.55880613l56.4036622 32.17453895zM149.73082815 143.18335156c4.52872042-2.66844853 8.21188248-1.07164552 8.22657255 3.56655903l.15879895 68.52844185c.01468998 4.6382046-3.64465436 10.56141787-8.17337444 13.2298662L92.6473278 261.43316008c-4.52872026 2.66844843-8.21188196 1.07164522-8.2265728-3.56656004l.35029714-67.75692758c-.01468997-4.63820576 3.64465505-10.56141828 8.1733753-13.2298667l56.7864007-33.6964542z" fill="#C4C3C6"/>
    <path d="M156.729887 69.578882c7.2323634 10.9449576 8.9550809 64.5533286 5.1681525 160.8251126 7.5769198-.732101 4.3140479 1.53188-9.7886157 6.791943-14.1026636 5.260062-37.603607 15.52715-70.502831 30.801263 44.8600862-20.608549 61.2198007-46.540199 49.0791435-77.794949-18.2109855-46.882126 18.5728599-49.76361 26.0441507-120.6233696z" fill="#000"/>
  </g>
</svg>
