<svg xmlns="http://www.w3.org/2000/svg" viewBox="0 0 586.37 501.36">
    <defs>
        <pattern id="lines" data-name="lines" width="16" height="16" patternTransform="translate(-256 480)" patternUnits="userSpaceOnUse">
            <path fill="none" d="M0 0h16v16H0z"/>
            <path class="cls-2" d="M1.98 78.02l66-66M-14.02 78.02l66-66M-30.02 78.02l66-66M-46.02 78.02l66-66M-62.02 78.02l66-66M1.98 62.02l66-66M-14.02 62.02l66-66M-30.02 62.02l66-66M-46.02 62.02l66-66M-62.02 62.02l66-66M1.98 46.02l66-66M-14.02 46.02l66-66M-30.02 46.02l66-66M-46.02 46.02l66-66M-62.02 46.02l66-66M1.98 30.02l66-66M-14.02 30.02l66-66M-30.02 30.02l66-66M-46.02 30.02l66-66M-62.02 30.02l66-66M1.98 14.02l66-66M-14.02 14.02l66-66M-30.02 14.02l66-66M-46.02 14.02l66-66M-62.02 14.02l66-66"/>
        </pattern>
        <style>
            .cls-2,.cls-3,.cls-5{fill:none}.cls-2,.cls-3,.cls-4,.cls-5{stroke:#4038ff}.cls-2,.cls-3{stroke-linecap:square}.cls-2,.cls-3,.cls-5{stroke-miterlimit:10}.cls-2{stroke-width:2px}.cls-3,.cls-4,.cls-5{stroke-width:12px}.cls-4{stroke-linejoin:bevel;fill:url(#lines)}
        </style>
    </defs>
    <g id="Layer_2" data-name="Layer 2">
        <g id="Layer_28" data-name="Layer 28">
            <path class="cls-3" d="M400.94 495.36h179.43V250.68H400.94"/>
            <path class="cls-4" d="M400.94 495.36V250.68"/>
            <path class="cls-3" d="M221.51 495.36h179.43V250.68H221.51M400.94 6l-35.97 44.84-.11 199.84h215.51V6H400.94z"/>
            <path class="cls-4" d="M400.94 250.68V6l-35.97 44.84-.11 199.84h36.08z"/>
            <circle class="cls-5" cx="315.21" cy="374.99" r="17.79"/>
            <circle class="cls-5" cx="490.4" cy="374.99" r="17.79"/>
            <circle class="cls-5" cx="490.4" cy="128.34" r="17.79"/>
            <path class="cls-5" d="M332.99 374.99h139.63"/>
            <path class="cls-3" d="M42.08 250.68L6.11 295.52 6 453.87l36.08 41.49h179.43V250.68H42.08z"/>
            <path class="cls-4" d="M42.08 495.36V250.68L6.11 295.52 6 453.87l36.08 41.49z"/>
            <circle class="cls-5" cx="135.78" cy="374.99" r="17.79"/>
            <path class="cls-5" d="M153.56 374.99h139.63M490.4 357.2V146.12"/>
        </g>
    </g>
</svg>
