<?xml version="1.0" encoding="UTF-8"?>
<svg width="349px" height="388px" viewBox="0 0 349 388" version="1.1" xmlns="http://www.w3.org/2000/svg" xmlns:xlink="http://www.w3.org/1999/xlink">
    <!-- Generator: Sketch 63.1 (92452) - https://sketch.com -->
    <title>future testnets</title>
    <desc>Created with Sketch.</desc>
    <g id="Illustrations" stroke="none" stroke-width="1" fill="none" fill-rule="evenodd">
        <g id="Other" transform="translate(-134.000000, -6460.000000)">
            <g id="future-testnets" transform="translate(134.000000, 6460.000000)">
                <g id="Group-44" transform="translate(174.500000, 194.000000) scale(1, -1) translate(-174.500000, -194.000000) translate(0.000000, 0.000000)">
                    <g id="Group-53">
                        <polygon id="Rectangle-Copy-32" fill="#000000" fill-rule="nonzero" points="158 3.48048396 183.555556 0 204 7.61658375 204 159.935324 175.954758 167 158 159.315802"></polygon>
                        <path d="M164.237288,9.6127726 L164.237288,97.6806095 L174.494162,16.3790974 L181.036046,100.797578 L181.389831,107.526119 C181.877089,112.829119 182.916637,115.918671 184.508475,116.794776 C186.100313,117.670881 188.95907,117.670881 193.084746,116.794776 L193.084746,13.0712996 L180.904708,7.7238806 L164.237288,9.6127726 Z" id="Path-Copy-36" fill="#C4C3C6" fill-rule="nonzero"></path>
                        <path d="M168.135593,3.02136707 C171.383841,30.4126208 173.105508,66.3537178 173.300593,110.844658 C173.495678,155.335598 175.412429,169.654452 179.050847,153.801218 L164.237288,155.345994 L168.135593,3.02136707 Z" id="Path-Copy-47" fill="#FFFFFF" transform="translate(171.644068, 81.534937) scale(-1, -1) translate(-171.644068, -81.534937) "></path>
                        <polygon id="Rectangle-Copy-33" fill="#000000" fill-rule="nonzero" points="158 3.48048396 183.555556 0 204 7.61658375 204 159.935324 175.954758 167 158 159.315802"></polygon>
                        <path d="M164.237288,9.6127726 L164.237288,97.6806095 L174.494162,16.3790974 L181.036046,100.797578 L181.389831,107.526119 C181.877089,112.829119 182.916637,115.918671 184.508475,116.794776 C186.100313,117.670881 188.95907,117.670881 193.084746,116.794776 L193.084746,13.0712996 L180.904708,7.7238806 L164.237288,9.6127726 Z" id="Path-Copy-49" fill="#C4C3C6" fill-rule="nonzero"></path>
                        <polygon id="Path-Copy-48" fill="#FFFFFF" transform="translate(171.644068, 83.886194) scale(-1, -1) translate(-171.644068, -83.886194) " points="168.135593 7.7238806 179.050847 158.503731 164.237288 160.048507"></polygon>
                        <polygon id="Rectangle-Copy-32" fill="#000000" fill-rule="nonzero" transform="translate(173.000000, 284.500000) scale(-1, -1) translate(-173.000000, -284.500000) " points="150 184.480484 175.555556 181 196 188.616584 196 380.935324 167.954758 388 150 380.315802"></polygon>
                        <path d="M160.915254,232.437037 L160.915254,360.504874 L171.172128,239.203362 L177.714012,363.621843 L178.067797,370.350384 C178.555055,375.653384 179.594603,378.742936 181.186441,379.619041 C182.778279,380.495146 185.637036,380.495146 189.762712,379.619041 L189.762712,235.895564 L177.582674,230.548145 L160.915254,232.437037 Z" id="Path-Copy-36" fill="#C4C3C6" fill-rule="nonzero" transform="translate(175.338983, 305.412132) scale(-1, -1) translate(-175.338983, -305.412132) "></path>
                        <path d="M178.847458,187.951493 C182.095706,215.342746 183.817372,251.283843 184.012457,295.774784 C184.207542,340.265724 186.124294,367.91791 189.762712,378.731343 L174.949153,380.276119 L178.847458,187.951493 Z" id="Path-Copy-47" fill="#FFFFFF"></path>
                        <polygon id="Rectangle-Copy-33" fill="#000000" fill-rule="nonzero" transform="translate(173.000000, 284.500000) scale(-1, -1) translate(-173.000000, -284.500000) " points="150 184.480484 175.555556 181 196 188.616584 196 380.935324 167.954758 388 150 380.315802"></polygon>
                        <path d="M160.915254,232.437037 L160.915254,360.504874 L171.172128,239.203362 L177.714012,363.621843 L178.067797,370.350384 C178.555055,375.653384 179.594603,378.742936 181.186441,379.619041 C182.778279,380.495146 185.637036,380.495146 189.762712,379.619041 L189.762712,235.895564 L177.582674,230.548145 L160.915254,232.437037 Z" id="Path-Copy-49" fill="#C4C3C6" fill-rule="nonzero" transform="translate(175.338983, 305.412132) scale(-1, -1) translate(-175.338983, -305.412132) "></path>
                        <path d="M178.847458,187.951493 C182.095706,215.342746 183.817372,251.283843 184.012457,295.774784 C184.207542,340.265724 186.124294,367.91791 189.762712,378.731343 L174.949153,380.276119 L178.847458,187.951493 Z" id="Path-Copy-48" fill="#FFFFFF"></path>
                        <path d="M338.5,98.5521437 L20.5,130.149585 L20.5,350.364488 L338.5,273.367532 L338.5,98.5521437 Z" id="Rectangle" stroke="#979797" fill="#D8D8D8" transform="translate(179.500000, 224.500000) scale(1, -1) translate(-179.500000, -224.500000) "></path>
                        <polygon id="Rectangle-Copy-19" fill="#000000" fill-rule="nonzero" transform="translate(174.500000, 227.000000) scale(1, -1) translate(-174.500000, -227.000000) " points="0 119.075153 327.839043 87 349 96.3918818 347.361088 288.435998 21.6963976 367 0 357.639209"></polygon>
                        <polygon id="Path" fill="#C4C3C6" fill-rule="nonzero" transform="translate(175.000000, 227.000000) scale(1, -1) translate(-175.000000, -227.000000) " points="8 126.197051 8 282.124371 20.3703704 134.435301 22.6898148 359 340.453704 282.449121 342 101.51068 327.310185 95"></polygon>
                        <polygon id="Rectangle-Copy-21" fill="#C4C3C6" transform="translate(180.500000, 224.500000) scale(1, -1) translate(-180.500000, -224.500000) " points="21 127.115809 340 96 340 275.38159 21 353"></polygon>
                        <polygon id="Rectangle-Copy-19" fill="#000000" transform="translate(180.000000, 227.000000) scale(1, -1) translate(-180.000000, -227.000000) " points="34 148.79689 326 117 326 269.494549 34 337"></polygon>
                        <path d="M101.837838,176.306017 C148.989189,176.306017 141.13576,149.024714 197.686486,142.368144 C235.386971,137.93043 278.158142,130.474382 326,120 L326,265.675786 L40,332 L41.5459459,244.181763 C41.5459459,215.809755 54.6864865,176.306017 101.837838,176.306017 Z" id="Rectangle-Copy-22" fill="#C4C3C6" transform="translate(183.000000, 226.000000) scale(1, -1) translate(-183.000000, -226.000000) "></path>
                        <polygon id="Rectangle" fill="#000000" transform="translate(256.000000, 245.639513) scale(1, -1) translate(-256.000000, -245.639513) " points="204 188.279025 304 177.279025 308 182.279025 308 293.279025 216 314 212 309.279025"></polygon>
                        <polygon id="Rectangle-Copy-31" fill="#C4C3C6" transform="translate(258.000000, 248.139513) scale(1, -1) translate(-258.000000, -248.139513) " points="212 199.708708 304 182.279025 304 293.279025 212 314"></polygon>
                        <path d="M242.687794,246 L229,248.92559 C229.051626,250.384291 229.09981,251.848939 229.141111,253.309795 L236.496106,252.004385 L236.613126,271.365565 C236.613126,272.934403 235.480794,274.263758 233.756483,274.859069 L229.719323,276.062741 L231.419542,281 L237.573371,279.333512 C239.638414,278.719361 241.359283,277.450168 242.236926,275.787004 C242.753716,274.880224 243.02916,273.733818 242.99755,272.621269 L242.687794,246 Z" id="Path" fill="#000000" fill-rule="nonzero" transform="translate(236.000000, 263.500000) scale(1, -1) translate(-236.000000, -263.500000) "></path>
                        <path d="M257.471806,275.35144 C270.802913,270.639536 279.730546,267.910571 284.254705,267.164545 C291.040942,266.045507 291.435006,266.360772 283.438852,269.961538 C275.442698,273.562305 270.729739,274.535693 263.704085,275.993987 C259.020316,276.966182 256.942889,276.752 257.471806,275.35144 Z" id="Rectangle-Copy-4" fill="#000000" transform="translate(273.391304, 271.591497) scale(1, -1) translate(-273.391304, -271.591497) "></path>
                        <path d="M295.275987,255.709446 C278.574444,260.860165 267.406214,263.899308 261.771296,264.826875 C253.31892,266.218226 252.842843,265.933315 262.89064,262.098959 C272.938438,258.264604 278.816116,257.109603 287.578307,255.380853 C293.419769,254.228354 295.985662,254.337885 295.275987,255.709446 Z" id="Rectangle-Copy-5" fill="#000000" transform="translate(275.391304, 260.091497) scale(1, -1) translate(-275.391304, -260.091497) "></path>
                        <path d="M294.795312,234.954291 C265.150073,243.642102 245.326464,249.04648 235.324485,251.167423 C220.321517,254.348839 219.47648,254.164752 237.311321,248.20245 C255.146162,242.240148 265.57904,239.840358 281.131931,236.255931 C291.500524,233.866313 296.054985,233.432433 294.795312,234.954291 Z" id="Rectangle-Copy-34" fill="#000000" transform="translate(259.500000, 243.641608) scale(1, -1) translate(-259.500000, -243.641608) "></path>
                        <path d="M294.795312,222.737191 C265.150073,231.425003 245.326464,236.82938 235.324485,238.950324 C220.321517,242.131739 219.47648,241.947652 237.311321,235.985351 C255.146162,230.023049 265.57904,227.623259 281.131931,224.038832 C291.500524,221.649214 296.054985,221.215334 294.795312,222.737191 Z" id="Rectangle-Copy-35" fill="#000000" transform="translate(259.500000, 231.424508) scale(1, -1) translate(-259.500000, -231.424508) "></path>
                        <path d="M257.429697,283.019706 C265.727572,279.713545 271.29924,277.941713 274.144701,277.704212 C278.412892,277.347961 278.673853,277.721543 273.723405,280.507693 C268.772956,283.293844 265.815517,283.744722 261.407085,284.424373 C258.468131,284.877474 257.142335,284.409252 257.429697,283.019706 Z" id="Rectangle-Copy-2" fill="#000000" transform="translate(267.391304, 281.091497) scale(1, -1) translate(-267.391304, -281.091497) "></path>
                        <path d="M224.063347,214.952535 C237.754842,210.645295 246.948095,208.201284 251.643105,207.620499 C258.68562,206.749322 259.116206,207.091421 250.947966,210.474806 C242.779725,213.858191 237.899951,214.665863 230.626039,215.877359 C225.776764,216.685023 223.5892,216.376748 224.063347,214.952535 Z" id="Rectangle-Copy-36" fill="#000000" transform="translate(240.500000, 211.764479) scale(1, -1) translate(-240.500000, -211.764479) "></path>
                        <polygon id="Path-3" fill="#FFFFFF" transform="translate(180.000000, 227.000000) scale(1, -1) translate(-180.000000, -227.000000) " points="320.592593 123.623169 326 117 326 269.334643 34 337 40.1798942 330.500362 320.641796 265.415115"></polygon>
                        <path d="M333.461295,96 C337.119246,137.484592 339.18195,181.243277 339.649407,227.276053 C340.116864,273.308829 340.116864,305.721819 339.649407,324.515021 L27.9232526,359 L14,352.822303 L334.284077,320.59406 L333.461295,96 Z" id="Path-Copy-35" fill="#FFFFFF" transform="translate(177.000000, 227.500000) scale(-1, 1) translate(-177.000000, -227.500000) "></path>
                        <path d="M3,262.102704 L14,254.019339 L13.5655205,331.083365 C11.6957869,305.096258 10.1739467,286.769371 9,276.102704 C7.82605328,265.436037 5.82605328,265.497997 3,276.288584 L3,262.102704 Z" id="Rectangle" fill="#000000" transform="translate(8.500000, 292.551352) scale(-1, -1) translate(-8.500000, -292.551352) "></path>
                        <path d="M71.154563,198.564131 C71.154563,179.050041 68.6763675,174.063675 63,159.104553 C71.1112295,158.005929 122.858608,147.802219 144.474217,144.874497 C151.05646,143.982967 156.445939,157.453154 156.445939,169.130846 C156.445939,175.859428 161.749295,199.773279 159.545571,217.919121 C157.924656,231.266026 156.682182,244.872432 156.682182,253.817864 C161.371658,253.182698 162.758134,252.223252 164.66333,255.292696 C167.676317,260.146894 167.622993,273.117976 166.041676,283.770131 C164.880524,291.591942 162.895498,298.163417 160.695652,299.352792 C152.191773,303.950523 121.436104,305 105,305 C95.3230223,305 88.3206899,303.983958 83.1638382,302.269534 C74.2104514,299.292929 70.82014,294.211096 68.653313,288.68656 C63.3325478,275.669603 69.4918238,215.402285 71.154563,198.564131 Z" id="Oval" fill="#000000" transform="translate(115.055896, 224.916247) scale(1, -1) translate(-115.055896, -224.916247) "></path>
                        <path d="M73.0434783,190.119474 L142.692308,178.564972 C147.998885,181.695 150.652174,192.133137 150.652174,209.879381 C150.652174,227.625625 147.998885,251.0381 142.692308,280.116806 C106.672558,286.676814 86.9939996,290.433366 83.6566332,291.386462 C80.3192669,292.339558 77.3242667,295.058195 74.6716327,299.542373 C73.5126985,275.359852 74.3000771,255.107848 77.0337686,238.786361 C78.6241971,229.290718 79.0496576,212.288453 77.0337686,202.944537 C75.6898426,196.715261 74.3597458,192.440239 73.0434783,190.119474 Z" id="Rectangle" fill="#C4C3C6" transform="translate(111.847826, 239.053672) scale(1, -1) translate(-111.847826, -239.053672) "></path>
                        <path d="M92.3477414,271.885475 C112.529923,266.750773 126.035764,263.760147 132.865263,262.913596 C143.109512,261.64377 143.695597,261.969428 131.572204,265.862799 C119.448811,269.756169 112.329773,270.844159 101.717188,272.473657 C94.6421308,273.559989 91.518982,273.363928 92.3477414,271.885475 Z" id="Rectangle" fill="#000000" transform="translate(116.413043, 267.706215) scale(1, -1) translate(-116.413043, -267.706215) "></path>
                        <path d="M81.0530223,297.644624 C75.1219441,291.130494 76.8335544,287.486623 73.0434783,285.652489 L142.128503,274.073446 C145.341918,276.03822 147.574446,280.784659 148.826087,288.312762 C107.598096,298.876757 85.0070744,301.987378 81.0530223,297.644624 Z" id="Path" fill="#FFFFFF" transform="translate(110.934783, 286.807910) scale(1, -1) translate(-110.934783, -286.807910) "></path>
                        <path d="M148.352652,164.019452 C149.539426,163.861986 151.377362,165.99322 152.737529,169.747383 C154.904582,175.728618 151.316906,179.093515 147.358087,181.373731 C137.538428,183.75659 106.236184,190.721065 105.508493,189.510076 C92.9098864,194.318391 87.495238,195.288889 89.2645479,192.421569 C90.6639,190.153798 90.2576705,189.0114 90.3210944,184.081815 C90.4026949,177.739459 86.5693072,176.207783 85.826087,175.514724 L148.352652,164.019452 Z" id="Path-Copy-6" fill="#FFFFFF" transform="translate(119.608696, 179.019774) scale(1, -1) translate(-119.608696, -179.019774) "></path>
                        <path d="M154.768093,175.033024 C152.839089,181.436145 118.27094,185.219014 109.014859,187.294271 C99.7587786,189.369528 85.1029605,193.135989 86.8882194,190.25201 C87.6673236,188.993414 89.3428024,185.731374 93.0903682,183.277684 C95.5037247,181.697556 116.816041,172.701756 133.485858,168.942162 C144.59907,166.435766 150.693874,163.579339 151.770272,160.372881 C156.929004,165.808441 154.768684,173.140387 154.768093,175.033024 Z" id="Path-Copy-5" fill="#C4C3C6" transform="translate(120.978261, 175.836158) scale(1, -1) translate(-120.978261, -175.836158) "></path>
                        <path d="M83.1989729,168.559322 C84.522296,170.054192 85.07938,172.102481 84.8702247,174.704189 C84.820628,175.321128 84.751492,175.921834 84.6642944,176.504203 L78.537133,177.655367 C78.4961577,177.389107 78.5247127,175.90117 78.7749332,174.697342 C78.985708,173.683291 79.6287371,171.601189 80.8684192,170.218347 C81.8734735,169.097227 83.0756401,168.56877 83.1989729,168.559322 Z" id="Path-Copy-2" fill="#C4C3C6" transform="translate(81.717391, 173.107345) scale(1, -1) translate(-81.717391, -173.107345) "></path>
                        <path d="M92.3477414,271.885475 C112.529923,266.750773 126.035764,263.760147 132.865263,262.913596 C143.109512,261.64377 143.695597,261.969428 131.572204,265.862799 C119.448811,269.756169 112.329773,270.844159 101.717188,272.473657 C94.6421308,273.559989 91.518982,273.363928 92.3477414,271.885475 Z" id="Rectangle-Copy" fill="#000000" transform="translate(116.413043, 267.706215) scale(1, -1) translate(-116.413043, -267.706215) "></path>
                        <path d="M92.3184557,246.122267 C109.054792,240.960859 120.262853,238.01909 125.942638,237.29696 C134.462317,236.213765 134.957039,236.609761 124.918389,240.640345 C114.879739,244.670928 108.962926,245.660011 100.142676,247.143202 C94.2625087,248.131996 91.6544354,247.791684 92.3184557,246.122267 Z" id="Rectangle-Copy-4" fill="#000000" transform="translate(112.304348, 242.237288) scale(1, -1) translate(-112.304348, -242.237288) "></path>
                        <path d="M140.463923,225.379896 C119.496224,230.521049 105.475239,233.502806 98.4009679,234.325166 C87.7895606,235.558706 87.1918769,235.219182 99.8062314,231.297992 C112.420586,227.376801 119.799627,226.307942 130.799988,224.70674 C138.133561,223.639272 141.354873,223.863658 140.463923,225.379896 Z" id="Rectangle-Copy-5" fill="#000000" transform="translate(115.500000, 229.502825) scale(1, -1) translate(-115.500000, -229.502825) "></path>
                        <path d="M92.2664665,254.924308 C102.873316,251.510437 109.995362,249.725182 113.632603,249.568545 C119.088464,249.333589 119.422041,249.766554 113.094076,252.723917 C106.766111,255.68128 102.985733,256.07493 97.3506072,256.670269 C93.5938566,257.067161 91.899143,256.485174 92.2664665,254.924308 Z" id="Rectangle-Copy-2" fill="#000000" transform="translate(105.000000, 253.152542) scale(1, -1) translate(-105.000000, -253.152542) "></path>
                        <path d="M78.89823,192.893376 C81.7205806,192.625889 84.0761433,191.734689 83.3327777,192.535437 C82.9569567,192.940268 80.8752211,194.478099 79.5199284,195.32279 C78.8379659,195.747826 78.1893634,196.114039 77.5617107,196.432478 C79.3963547,196.1219 80.9057501,195.907799 82.0898971,195.790173 C88.0018346,195.202918 88.4156279,195.376882 81.8727783,197.317636 C79.3247341,198.073442 77.1518229,198.613047 75.0900891,199.035814 C75.4231063,199.05979 75.7724821,199.091042 76.1407616,199.130126 C77.4435195,199.26838 79.6204407,199.616065 80.1065165,199.750443 C81.0679637,200.01624 79.2258186,200.100724 77.604193,200.652492 C76.8037005,200.924865 75.4864403,201.142396 73.6524124,201.305085 L72.9565217,194.343392 C75.4964902,193.511406 77.4770596,193.028068 78.89823,192.893376 Z" id="Path" fill="#000000" transform="translate(79.804348, 196.757062) scale(1, -1) translate(-79.804348, -196.757062) "></path>
                        <path d="M148.826087,299.570768 C146.836946,300.291064 145.378608,300.698104 144.451075,300.791887 C142.548077,300.984299 140.532001,301.814133 141.500968,301.031745 C141.990845,300.636196 144.253071,299.151146 145.625636,298.34112 C146.013649,298.112131 146.383311,297.901463 146.737226,297.707211 C144.392647,298.266028 141.896374,298.748986 138.936083,299.176636 C131.334671,300.274754 131.735697,299.870884 138.290758,297.564034 C139.603721,297.101978 141.294555,296.585333 143.363258,296.014101 C142.598523,295.970366 141.798283,295.883305 140.94614,295.746696 C139.252641,295.475207 136.586836,294.787262 136.071396,294.519692 C135.051867,293.990445 137.840249,293.812056 140.96617,292.696267 C142.52621,292.139414 144.772874,291.692636 147.706163,291.355932 L148.826087,299.570768 Z" id="Path" fill="#000000" transform="translate(141.065217, 296.358757) scale(1, -1) translate(-141.065217, -296.358757) "></path>
                        <path d="M133.293932,243.165075 L149.045522,248.564859 C143.22898,259.605194 138.932843,267.858223 136.157112,273.323947 C131.819188,281.8658 128.67148,284.804576 125.265436,284.402688 C124.652142,284.330324 124.207197,284.204012 123.276683,283.884076 L123.167873,283.846701 C121.138696,283.151081 119.618863,281.733519 118.641608,279.643229 L118.485711,279.309774 L133.293932,243.165075 Z" id="Path" fill="#000000" fill-rule="nonzero" transform="translate(133.765616, 263.801773) scale(1, -1) rotate(80.000000) translate(-133.765616, -263.801773) "></path>
                        <path d="M168.017089,231.758448 C172.083027,229.773863 178.862281,235.311958 183.158979,244.128127 C187.455673,252.944298 187.64274,261.70004 183.576802,263.684625 C180.441186,265.21512 175.691863,262.271606 171.711947,256.800894 L157.329607,263.441456 L147.955775,249.873396 L165.315638,241.596101 C164.61789,236.788994 165.507131,232.983559 168.017089,231.758448 Z" id="Combined-Shape" fill="#000000" fill-rule="nonzero" transform="translate(167.231876, 247.721537) scale(1, -1) rotate(41.000000) translate(-167.231876, -247.721537) "></path>
                        <path d="M151.379414,249.990275 L167.124318,255.385865 L166.828957,256.247798 C157.458661,283.592539 150.701254,301.345283 146.53588,309.547849 C142.196104,318.09385 139.048252,321.034663 135.643373,320.63391 C135.030288,320.56175 134.585522,320.435564 133.655403,320.115876 L133.54664,320.07853 C131.518324,319.38345 129.999466,317.966025 129.023272,315.875471 L128.867544,315.541974 L151.379414,249.990275 Z" id="Path" fill="#000000" fill-rule="nonzero" transform="translate(147.995931, 285.329879) scale(1, -1) rotate(41.000000) translate(-147.995931, -285.329879) "></path>
                        <path d="M143.225341,252.576546 L153.019753,252.562182 C153.175589,272.660496 152.469656,287.976814 150.901953,298.511135 C149.334251,309.045457 146.74277,315.886413 143.127512,319.034004 L143.225341,252.576546 Z" id="Rectangle" fill="#C4C3C6" transform="translate(148.084200, 285.798093) scale(1, -1) rotate(-300.000000) translate(-148.084200, -285.798093) "></path>
                        <path d="M152.84147,270.110799 L156.733983,270.10509 C156.732449,286.324676 156.418922,297.370246 155.793402,303.241801 C155.167883,309.113356 154.136362,312.925957 152.698839,314.679604 L152.84147,270.110799 Z" id="Rectangle-Copy-23" fill="#FFFFFF" transform="translate(154.716411, 292.392347) scale(1, -1) rotate(-300.000000) translate(-154.716411, -292.392347) "></path>
                        <path d="M135.61155,269.949159 L137.168555,269.946876 C137.165201,278.296607 137.037924,283.982738 136.786724,287.005269 C136.535524,290.0278 136.122272,291.990327 135.546967,292.892851 L135.61155,269.949159 Z" id="Rectangle-Copy-29" fill="#FFFFFF" transform="translate(136.357761, 281.419863) scale(1, -1) rotate(-300.000000) translate(-136.357761, -281.419863) "></path>
                        <path d="M163.347667,284.093347 L164.904672,284.091064 C164.901317,292.440795 164.77404,298.126926 164.52284,301.149457 C164.27164,304.171988 163.858388,306.134515 163.283083,307.037039 L163.347667,284.093347 Z" id="Rectangle-Copy-30" fill="#000000" transform="translate(164.093877, 295.564051) scale(1, -1) rotate(-300.000000) translate(-164.093877, -295.564051) "></path>
                        <path d="M179.376876,316.216323 C170.400845,313.313721 164.577514,306.146462 166.574374,300.030023 C168.570224,293.916677 177.509625,291.526079 186.483941,294.428127 C195.459971,297.330728 201.283302,304.497987 199.286442,310.614426 C197.290592,316.727772 188.351191,319.11837 179.376876,316.216323 Z" id="Shape" fill="#000000" fill-rule="nonzero" transform="translate(182.930408, 305.322225) scale(1, -1) rotate(41.000000) translate(-182.930408, -305.322225) "></path>
                        <path d="M179.432517,307.25089 C186.205125,309.315759 192.648013,308.611811 194.703231,305.760506 C194.672404,305.921887 194.629949,306.081093 194.575582,306.238099 C193.327514,309.842413 186.274842,310.922501 178.822996,308.650542 C171.371151,306.378584 166.341996,301.614924 167.590063,298.01061 C167.703778,297.68221 167.865681,297.374765 168.071683,297.088901 C167.395885,300.627032 172.306458,305.078259 179.432517,307.25089 Z" id="Combined-Shape" fill="#C4C3C6" transform="translate(181.051667, 303.464305) scale(1, -1) rotate(41.000000) translate(-181.051667, -303.464305) "></path>
                        <ellipse id="Oval" fill="#C4C3C6" transform="translate(184.900163, 306.236069) scale(1, -1) rotate(59.000000) translate(-184.900163, -306.236069) " cx="184.900163" cy="306.236069" rx="12.8392671" ry="6.59269571"></ellipse>
                        <path d="M175.829821,310.238816 C176.807629,307.346801 182.332041,306.480147 188.169128,308.30315 C188.358329,308.36224 188.545536,308.423431 188.730647,308.486622 C189.986802,309.887817 190.530643,311.364644 190.094208,312.656016 C189.1164,315.54803 183.591988,316.414684 177.754901,314.591682 C177.565022,314.53238 177.377151,314.470962 177.191392,314.40753 C175.936854,313.006 175.393535,311.529745 175.829821,310.238816 Z" id="Combined-Shape" fill="#FFFFFF" transform="translate(182.962014, 311.447416) scale(1, -1) rotate(41.000000) translate(-182.962014, -311.447416) "></path>
                        <path d="M183.339256,302.739819 L184.637001,302.741365 C184.650187,307.539182 184.554986,310.806246 184.351398,312.542556 C184.14781,314.278866 183.807124,315.405791 183.32934,315.923333 L183.339256,302.739819 Z" id="Rectangle-Copy-24" fill="#000000" transform="translate(183.983772, 309.331576) scale(1, -1) rotate(26.000000) translate(-183.983772, -309.331576) "></path>
                        <path d="M187.948025,300.773674 L189.240071,300.773031 C189.245101,305.591995 189.144804,308.873635 188.93918,310.617951 C188.733556,312.362266 188.392464,313.49474 187.915904,314.015373 L187.948025,300.773674 Z" id="Rectangle-Copy-26" fill="#000000" transform="translate(188.578077, 307.394202) scale(1, -1) rotate(125.000000) translate(-188.578077, -307.394202) "></path>
                        <path d="M181.0843,306.235971 C181.265236,304.656959 181.5658,303.930664 181.985989,304.057087 C181.989898,307.136091 181.916568,309.23285 181.765997,310.347364 C181.615427,311.461878 181.365577,312.185471 181.016448,312.518144 C180.880745,309.909041 180.903363,307.814984 181.0843,306.235971 Z" id="Rectangle-Copy-27" fill="#000000" transform="translate(181.457674, 308.280587) scale(1, -1) rotate(125.000000) translate(-181.457674, -308.280587) "></path>
                        <path d="M188.465642,296.174948 C188.692058,293.707769 189.067874,292.57298 189.593091,292.770581 C189.597501,297.581526 189.505514,300.857701 189.317128,302.599105 C189.128743,304.340509 188.816319,305.471085 188.379856,305.990832 C188.210631,301.914088 188.239227,298.642127 188.465642,296.174948 Z" id="Rectangle-Copy-28" fill="#000000" transform="translate(188.932263, 299.369717) scale(1, -1) rotate(125.000000) translate(-188.932263, -299.369717) "></path>
                        <path d="M187.663409,298.180846 L188.961154,298.182391 C189.029801,303.663196 188.962081,307.063366 188.757995,308.382903 C188.553909,309.70244 188.2129,310.558806 187.734967,310.952001 L187.663409,298.180846 Z" id="Rectangle-Copy-25" fill="#000000" transform="translate(188.325240, 304.566423) scale(1, -1) rotate(26.000000) translate(-188.325240, -304.566423) "></path>
                        <polygon id="Path" fill="#FFFFFF" transform="translate(260.000000, 245.000000) scale(1, -1) translate(-260.000000, -245.000000) " points="216 198.429683 216 314 212 307.720975 212 193.429683 304 176 308 181"></polygon>
                    </g>
                </g>
                <g id="Group-44-Copy" transform="translate(173.000000, 103.500000) scale(-1, 1) translate(-173.000000, -103.500000) translate(150.000000, 0.000000)"></g>
            </g>
        </g>
    </g>
</svg>