<svg width="22" height="21" xmlns="http://www.w3.org/2000/svg">
  <path d="M21.714.1320781c-.179438-.1323014-.40975-.1666018-.61875-.0966011L11 3.4620135.90475.035477C.695062-.0345237.46475-.0002233.286.1320781.105875.2636795 0 .4750817 0 .6997841v16.1001712c0 .3017032.189062.5684061.47025.6643071l10.3125 3.5000372C10.853562 20.9880999 10.926438 21 11 21c.073562 0 .146438-.0119001.21725-.0357004l10.3125-3.5000372c.281188-.095901.47025-.3626039.47025-.6643071V.6997841c0-.2247024-.105875-.4361046-.286-.567706zM9.372 16.7523548l-6.804188-2.3093245.435188-1.3279142 6.804188 2.3093246L9.372 16.7523548zm-6.787-6.4764689l.385-1.3440142 6.82 2.0258215-.385 1.3440143-6.82-2.0258216zm6.787-1.9236204L2.567812 6.0422409 3.003 4.7143268l6.804188 2.3093246L9.372 8.3522655zm3.256 8.4000893l-.435188-1.3279141L18.997 13.1151161l.435187 1.3279142L12.628 16.7523548zm-.418-5.7953616l6.82-2.0258216.385 1.3440143-6.82 2.0258216-.385-1.3440143zm.418-2.6047277l-.435188-1.3279141L18.997 4.7150268l.435187 1.3279141L12.628 8.3522655z" fill="#001AFF" fill-rule="nonzero"/>
</svg>
