<?xml version="1.0" encoding="UTF-8"?>
<svg width="202px" height="267px" viewBox="0 0 202 267" version="1.1" xmlns="http://www.w3.org/2000/svg" xmlns:xlink="http://www.w3.org/1999/xlink">
    <title>646F690D-6790-4640-A424-6F5904433E82</title>
    <g id="Joystream-Testnet-Token-Information-Page" stroke="none" stroke-width="1" fill="none" fill-rule="evenodd">
        <g id="Main-Page" transform="translate(-354.000000, -5945.000000)">
            <g id="Group-3-Copy" transform="translate(205.000000, 5945.000000)">
                <g id="bounties-2" transform="translate(149.000000, 0.000000)">
                    <g id="bounties">
                        <path d="M169.456384,135.508078 C167.863877,134.014482 166.369976,132.419557 164.984059,130.733315 C163.239852,128.189749 161.719262,125.467688 159.930332,122.924123 C153.719006,113.617708 146.186588,105.260255 137.568708,98.1132033 C134.85361,95.9795817 132.032467,93.9838471 129.116015,92.1335933 C133.006937,90.1255153 133.275277,87.1803343 129.965756,84.6367688 C128.94671,83.9743298 127.868822,83.4067075 126.745683,82.9410585 C127.115387,82.6618778 127.503906,82.4084102 127.908487,82.1824513 C129.45425,81.5346908 130.586569,80.175837 130.94272,78.5411815 C131.29887,76.9065259 130.834147,75.2012598 129.697417,73.9716435 C129.294908,73.391532 129.697417,73.1684123 129.921033,72.8114206 C133.498589,68.6320936 137.500303,64.8336719 141.86214,61.4769359 C145.738699,58.1290504 150.868563,56.6016325 155.949963,57.2822841 C158.824594,57.6712617 161.750608,57.3808385 164.492103,56.434429 C169.302331,55.2108724 172.434515,50.5901325 171.781993,45.6800557 C171.522641,42.2253505 170.65991,38.8424936 169.232768,35.6842897 C167.410971,31.2717548 163.372724,28.1605372 158.633358,27.5181058 C155.63958,27.1396788 152.600451,27.3519455 149.688708,28.1428412 C144.711738,29.4173092 139.423798,28.3126048 135.377269,25.1530362 C131.078442,22.0175814 127.432725,18.076823 124.64369,13.5508078 C121.731131,9.06272876 117.731973,5.37939415 113.015646,2.8410585 C106.971016,-0.612655162 99.3839903,0.216459972 94.2318819,4.89376045 C89.4720763,9.58087662 84.9920503,14.5426652 80.8149077,19.7535376 C77.7010273,23.6683514 73.0293668,26.0315922 68.024059,26.2240111 C65.3709485,26.3091679 62.758157,25.5598532 60.5552768,24.0820613 C57.3304435,21.9406978 53.1839036,21.7518568 49.7769742,23.5911978 C47.2548269,24.7979454 44.8832068,26.2956383 42.7107011,28.0535933 C38.5984327,31.1344749 35.487297,35.3562257 33.7660517,40.1913092 C32.5279062,43.1610794 33.9268716,46.5709648 36.896679,47.8220056 C41.9504059,50.410195 47.2724723,52.2844011 52.5050923,54.5155989 C56.619631,56.2113092 60.6447232,58.0855153 64.7145387,60.0043454 C70.1260517,62.5479109 72.2280443,68.1705292 76.342583,72.0974373 C73.4016874,72.5434567 71.1273676,74.9042301 70.7969004,77.8539276 C70.3496679,81.2007242 72.8094465,82.3163231 75.2692251,83.8335376 C73.3908487,84.8152646 71.5571956,85.6184958 70.7969004,87.6711978 C70.3841359,89.6163113 70.8593728,91.6438472 72.0938745,93.2045682 C66.0000918,96.5668064 60.2092092,100.448684 54.7859779,104.806797 C43.3366215,114.079105 33.1038475,124.753935 24.3294465,136.579053 C16.7293888,146.654283 10.6982512,157.817205 6.4401476,169.690028 C1.39539492,182.820455 -0.696281046,196.896497 0.313062731,210.922563 C0.89248705,219.584921 3.88165862,227.914385 8.94464945,234.974875 C12.3559613,239.185144 16.6642446,242.584485 21.5566052,244.926017 C22.8983026,245.550752 24.2847232,246.08624 25.6711439,246.577103 C52.1374018,259.762227 82.5336475,262.795103 111.092546,255.100279 C137.061886,260.942364 164.29626,255.578879 186.093432,240.329749 C186.994437,239.707719 187.768514,238.920216 188.374317,238.009304 C189.11972,237.30883 189.821683,236.563719 190.47631,235.778106 L191.549668,234.617883 C191.627113,234.438647 191.732803,234.272931 191.862731,234.127019 C196.362549,228.148074 199.423071,221.216113 200.80738,213.867744 C202.282842,204.701803 201.671418,195.322032 199.01845,186.424011 C193.445411,167.31245 183.300171,149.838897 169.456384,135.508078 Z" id="Path" fill="#000000" fill-rule="nonzero"></path>
                        <path d="M7.51350554,201.105292 C7.60947773,186.142748 12.29136,171.567706 20.9304797,159.33727 C27.7813631,149.203202 35.9981641,140.058656 45.3493727,132.161281 C45.3493727,132.161281 45.3493727,131.938162 45.7518819,131.58117 C43.4859589,131.838855 41.2790735,132.472303 39.2222878,133.455376 C37.0698012,134.449693 34.9922047,135.598037 33.0057565,136.891421 C34.5996241,134.149563 36.4091469,131.538295 38.4172694,129.082228 C43.1388951,123.015405 58.603115,103.798749 67.0848708,102.635097 C69.4676436,102.308194 56.0489772,122.907645 61.1217712,124.947075 C64.6459736,126.363921 83.8147202,103.048373 84.9741697,102.635097 C87.6575646,101.787242 93.0690775,109.447688 92.7560148,111.678886 C92.2940242,114.540386 92.0993876,117.438514 92.1746125,120.335933 C92.1746125,123.771978 96.602214,125.556936 97.4519557,122.968747 C98.4419508,120.711309 99.5773118,118.520157 100.850923,116.409025 C102.687733,112.813072 105.122394,109.553946 108.051365,106.770251 C109.850828,104.622637 112.674448,103.615221 115.430701,104.137437 C117.701892,104.673988 119.7776,105.833186 121.423616,107.484234 C126.38562,112.591485 130.412007,118.527037 133.32,125.021448 C133.658509,125.8185 134.143963,126.545064 134.751144,127.163398 C134.905864,126.292583 134.905864,125.4014 134.751144,124.530585 C134.289146,120.418534 134.68505,116.255579 135.913948,112.303621 C136.540074,109.80468 137.434539,109.536936 139.312915,111.366518 C141.748189,113.580086 144.020075,115.966235 146.110849,118.506351 C146.577912,119.264239 147.242637,119.881215 148.033948,120.291309 L148.033948,120.692925 C147.975898,120.564404 147.900676,120.444316 147.810332,120.335933 C147.778472,119.768716 147.609696,119.217584 147.318376,118.729471 C145.299017,114.655633 142.823442,110.823267 139.939041,107.305738 C140.028487,106.948747 139.312915,106.725627 139.894317,106.145515 C145.935032,111.947854 151.387815,118.330187 156.173579,125.199944 C157.494039,126.871231 158.675669,128.647203 159.706716,130.510195 L159.393653,130.777939 C156.565601,129.419827 153.920887,127.710577 151.522362,125.690808 L150.359557,124.887577 L150.091218,124.664457 C149.867601,124.664457 150.091218,124.976825 150.091218,125.15532 C151.523373,127.348903 153.306108,129.293499 155.368561,130.911811 C162.952673,137.678256 169.65408,145.369264 175.315129,153.8039 C183.437505,165.694915 189.61196,178.799682 193.606937,192.626741 C195.809125,199.873191 196.040651,207.573581 194.277786,214.938719 C192.551621,221.954106 188.092851,227.993007 181.889446,231.717326 C181.855781,231.228931 140.482586,240.515143 140.878229,240.225627 C143.887523,237.154397 122.838371,228.571511 79.0110701,230.557103 C67.8159061,231.064299 89.7107386,238.875201 88.701107,243.94429 C87.9080701,247.925915 65.6163078,248.797894 60.3763838,248.406685 C56.6922604,248.131632 5.21771218,246.175487 7.51350554,201.105292 Z M76.7749077,223.86351 C82.3324004,223.86351 61.1217712,199.320334 58.8856089,175.520891 C56.6494465,151.721448 66.6792639,132.384401 61.1217712,132.384401 C55.5642786,132.384401 46.9594096,147.259053 50.6863469,175.520891 C54.4132841,203.78273 71.2174151,223.86351 76.7749077,223.86351 Z" id="Shape" fill="#FEFEFE" fill-rule="nonzero"></path>
                        <path d="M116.205904,144.284123 L87.8811808,144.284123 L87.8811808,154.071643 L105.190734,154.071643 L105.190734,193.920836 C105.190734,197.136735 103.187976,199.93317 100.183838,201.051744 L93.1741847,203.708357 L96.178322,214.194986 L106.621275,210.140156 C110.197629,208.741939 113.058713,206.085326 114.775362,202.729604 C115.776742,200.7721 116.205904,198.674774 116.205904,196.437627 L116.205904,144.284123 Z" id="Path" fill="#000000" fill-rule="nonzero"></path>
                        <path d="M86.9867159,41.4854039 C90.9455333,48.7152753 92.5109728,57.0093038 91.4590406,65.1807242 C91.4796677,65.3884608 91.4796677,65.597723 91.4590406,65.8054596 C91.1012546,66.7425627 90.9670849,67.9474095 89.8490037,68.3490251 C88.7309225,68.7506407 87.7917343,67.8581616 87.0314391,67.0549304 C85.0914741,64.832587 83.4662815,62.3551662 82.2013284,59.6919777 C78.2656827,52.5521448 74.3747601,45.367688 70.7969004,38.0047354 C70.6809741,37.7158167 70.5911701,37.4171345 70.5285609,37.1122563 C71.3783026,37.1122563 72.183321,37.9601114 73.077786,37.1122563 L69.7682657,34.9703064 C69.3475436,33.9196916 69.4070735,32.7382243 69.9312807,31.7350099 C70.4554879,30.7317955 71.3922136,30.0066542 72.4963838,29.7493036 C76.3230368,28.5989602 79.6781157,26.2524905 82.0671587,23.0557103 C84.2138745,20.7352646 86.1369742,18.2809471 88.1942435,15.8712535 C88.820369,15.1572702 92.264059,11.1857382 92.7560148,10.8287465 C95.6492723,8.39200733 99.1358367,6.76034663 102.863469,6.09860724 C107.279376,5.43169437 111.689575,7.33738305 114.223173,11.0072423 C115.166398,12.0969296 116.927717,15.4259421 117.771218,19.3370474 C118.595709,23.1600139 118.514765,27.5617052 118.382435,29.0353203 C118.241552,31.5800133 115.295223,47.417884 114.223173,50.5886908 C112.650291,56.114968 110.738495,61.5395672 108.498598,66.8318106 C107.77179,68.7507997 106.745384,70.5430223 105.457417,72.1420613 C103.757934,74.0162674 102.282066,73.8823955 100.985092,71.7850696 C99.5094899,69.1096398 98.4679488,66.2178727 97.8991882,63.2172702 C96.1047689,55.4574912 93.0855487,48.0316367 88.9545387,41.2176602 C87.113583,38.4062669 84.9191842,35.841821 82.4249446,33.5869638 C82.2013284,33.5869638 81.9777122,32.9622284 81.5304797,33.1853482 C84.0946125,36.7552646 85.9133579,39.5219499 86.9867159,41.4854039 Z" id="Shape" fill="#C4C3C6" fill-rule="nonzero"></path>
                        <path d="M140.922952,31.9805014 C142.380467,32.596403 143.076264,34.262607 142.488266,35.7289136 C142.1551,36.8319315 141.641296,37.8723366 140.967675,38.8079666 C140.296827,39.6558217 139.670701,40.5483008 138.999852,41.4407799 C139.402362,41.8423955 139.581255,41.4407799 139.894317,41.4407799 C143.338007,39.4327019 146.379188,36.9783844 149.688708,34.7025627 C150.135401,34.2454501 150.748335,33.9879453 151.388192,33.9885794 C155.336648,33.7679746 158.900274,36.3370249 159.930332,40.1466852 C160.02178,40.3332028 160.182065,40.477139 160.377565,40.5483008 C161.27203,40.9052925 161.495646,41.7531476 161.808708,42.5117549 C163.076536,44.8365329 162.288694,47.7450763 160.019779,49.1161003 C156.429935,48.1031534 152.596903,48.3876221 149.196753,49.9193315 C148.794244,49.9193315 148.481181,50.410195 148.033948,50.2763231 C147.917591,50.0028234 147.69259,49.7898462 147.412737,49.6883071 C147.132883,49.586768 146.82333,49.6057936 146.558081,49.7408357 L146.558081,49.7408357 C145.797786,49.0268524 145.484723,49.7408357 145.30583,50.2763231 C145.126937,50.8118106 145.30583,51.3472981 145.037491,51.8827855 C143.982938,53.0807417 142.707582,54.0654337 141.280738,54.7833426 C140.744059,53.5338719 140.699336,53.5338719 139.536531,54.5602228 L140.117934,54.7833426 C140.379761,54.8385932 140.577449,55.0537743 140.609889,55.3188301 C139.522797,56.7080364 138.277039,57.9660043 136.89786,59.0672423 C133.275277,62.9049025 129.563247,66.6979387 125.851218,70.446351 C124.925008,71.6661291 123.619523,72.5449829 122.139188,72.9452925 C120.439705,73.2576602 120.037196,72.9452925 120.439705,71.1603343 C121.121377,68.7304965 122.129335,66.4038307 123.436162,64.2436212 C124.23308,62.4372935 125.238712,60.730017 126.43262,59.1564903 L126.879852,59.1564903 C127.505978,59.1564903 128.534613,59.8704735 128.713506,59.1564903 C128.892399,58.442507 127.505978,58.7994986 126.969299,58.3086351 C128.266273,55.5865738 130.01048,53.1322563 131.441624,50.4994429 C131.709963,50.0978273 132.157196,49.7408357 132.067749,48.9822284 C130.660769,50.3452385 129.387803,51.8395206 128.266273,53.444624 C125.806494,56.434429 123.436162,59.5134819 120.976384,62.369415 C120.585837,62.8556919 120.135,63.2905328 119.634686,63.6635097 C118.784945,64.3328691 118.114096,64.2882451 117.845756,63.0833983 C117.86555,62.8309149 117.86555,62.5772746 117.845756,62.3247911 C119.391642,54.8417317 122.028528,47.6251865 125.672325,40.9052925 C128.186215,34.8644953 134.411859,31.2211977 140.922952,31.9805014 Z M151.209299,39.9235655 C149.778155,39.9235655 149.107306,41.4407799 147.944502,42.1101393 C147.541993,42.1101393 146.915867,42.6456267 147.273653,43.3149861 C147.631439,43.9843454 148.123395,43.3149861 148.525904,43.3149861 C149.875155,42.5284865 151.470391,42.2738153 152.998229,42.6010028 C153.624354,42.6010028 154.205756,41.7531476 154.205756,40.9499164 C154.205756,40.1466852 153.713801,39.7896936 152.908782,40.1466852 C152.370944,40.4185004 151.732065,40.4017251 151.209299,40.1020613 L151.209299,39.9235655 Z M134.706421,48.0897493 C135.130842,48.9052507 135.72562,49.6204426 136.450627,50.1870752 C136.584797,49.0268524 136.584797,49.0268524 134.706421,48.2682451 L134.706421,48.0897493 Z" id="Shape" fill="#C4C3C6" fill-rule="nonzero"></path>
                        <path d="M56.798524,29.7046797 C60.4417023,30.6598341 63.6174961,32.893798 65.7431734,35.9966574 C71.5728932,44.3581616 75.8032336,53.7229181 78.2209594,63.6188858 C78.2209594,63.6188858 78.2209594,64.0205014 78.2209594,64.2436212 L73.7486347,59.7812256 C74.1064207,59.7812256 74.0169742,59.37961 73.7486347,59.1564903 C70.3630801,54.8817298 66.2991858,51.1886309 61.7180812,48.2236212 C60.4736989,47.4754658 51.6009701,45.4328568 48.4501845,41.6490251 C48.0477557,41.1657415 48.6730597,39.9318381 48.4501845,39.4178273 C47.7753154,37.8613954 46.7564056,33.5348493 47.704797,31.9805014 C49.1543479,29.6047877 53.1242688,30.2631618 53.6678967,30.1955432 L56.798524,29.7046797 Z M68.1582288,46.8849025 C68.6140568,46.8007749 69.0626406,46.6814181 69.4999262,46.5279109 C69.9471587,46.5279109 70.2154982,45.9477994 69.9024354,45.5015599 C69.5893727,45.0553203 69.27631,45.1445682 69.0079705,45.5015599 C68.739631,45.8585515 67.9346125,46.1709192 67.5321033,45.2338162 C67.1295941,44.2967131 66.2798524,44.1628412 65.4301107,43.9397214 C64.580369,43.7166017 64.580369,43.9397214 64.6250923,44.5644568 C65.6220872,45.5821771 66.8271425,46.3736171 68.1582288,46.8849025 L68.1582288,46.8849025 Z M61.8522509,44.2520891 C61.5391882,44.2520891 61.1814022,44.4752089 61.4050185,44.6983287 C61.6286347,44.9214485 62.1205904,46.3047911 63.0150554,46.4832869 C63.9095203,46.6617827 63.4622878,46.0370474 63.4622878,45.6800557 C63.4622878,45.3230641 62.6125461,44.4752089 61.8522509,44.2520891 L61.8522509,44.2520891 Z M61.315572,41.2176602 C62.2100369,42.1101393 63.2833948,42.0208914 64.1778598,42.3332591 C63.4622878,41.5300279 62.6125461,40.9052925 61.315572,41.2176602 L61.315572,41.2176602 Z" id="Shape" fill="#C4C3C6" fill-rule="nonzero"></path>
                        <path d="M140.922952,31.9805014 C134.411859,31.2211977 128.186215,34.8644953 125.672325,40.9052925 C122.118296,47.5956957 119.557234,54.765781 118.069373,62.1909192 C118.089166,62.4434027 118.089166,62.697043 118.069373,62.9495265 C117.575205,60.5650559 117.575205,58.1049163 118.069373,55.7204457 C118.659088,49.2010325 119.841668,42.7486212 121.602509,36.4428969 C122.142334,34.585868 122.940196,32.8134393 123.972841,31.1772702 C125.166176,28.6747906 128.111127,27.5386043 130.681328,28.5890808 C133.498893,29.4369359 136.316458,30.329415 139.089299,31.2665181 C139.76589,31.2807416 140.415546,31.5337031 140.922952,31.9805014 L140.922952,31.9805014 Z" id="Path" fill="#FEFEFE" fill-rule="nonzero"></path>
                        <path d="M56.798524,29.7046797 L53.6678967,30.1955432 C51.6988463,30.4106125 49.9362874,31.5118206 48.8825092,33.1853482 C48.6141697,33.5869638 48.48,33.8547075 48.8825092,34.2563231 C50.1794834,35.3272981 49.1508487,35.6396657 48.2563838,35.9074095 L48.2563838,35.9074095 C48.2563838,34.7471866 47.3619188,33.9885794 47.1830258,32.8729805 L46.3780074,33.7208357 C45.5010758,34.7488742 45.1377114,36.1177563 45.3896743,37.4441264 C45.6416372,38.7704965 46.4818391,39.9117581 47.6749815,40.5483008 C47.943321,40.5483008 48.2563838,40.9945404 48.5247232,40.5483008 C48.6365603,40.3233866 48.6365603,40.0592318 48.5247232,39.8343175 C48.0774908,38.9864624 48.5247232,38.3171031 48.8825092,37.5138719 C49.5086347,38.5402228 50.8950554,39.2988301 50.0453137,40.8606685 C49.195572,42.422507 50.3583764,41.8870195 50.8056089,42.1547632 C54.3834686,44.1628412 58.0060517,46.0370474 61.4944649,48.1343733 C66.0755695,51.0993829 70.1394638,54.7924819 73.5250185,59.0672423 C73.5250185,59.2903621 73.7933579,59.5134819 73.5250185,59.6919777 C66.9091056,53.9646413 59.3415422,49.4341839 51.1633948,46.3047911 C48.2116605,45.0553203 45.3046494,43.7612256 42.2187454,42.422507 C41.0905688,41.9614695 40.2482587,40.9940557 39.9484275,39.8149914 C39.6485962,38.6359271 39.9267525,37.3848471 40.698155,36.4428969 C42.8253624,32.988924 46.2892841,30.5663319 50.2689299,29.7493036 C52.4057599,29.177059 54.6540384,29.161694 56.798524,29.7046797 Z" id="Path" fill="#FEFEFE" fill-rule="nonzero"></path>
                        <path d="M160.019779,49.1607242 C162.288694,47.7897003 163.076536,44.8811569 161.808708,42.5563788 C161.495646,41.7977716 161.27203,40.9499164 160.377565,40.5929248 C160.182065,40.5217629 160.02178,40.3778268 159.930332,40.1913092 C158.900274,36.3816488 155.336648,33.8125985 151.388192,34.0332033 C153.893702,32.6309187 156.921766,32.5147133 159.527823,33.7208357 C164.592111,36.5326649 167.36001,42.1987161 166.459926,47.9112535 C166.208088,49.5459413 165.307828,51.0108444 163.961857,51.9761131 C162.615886,52.9413818 160.937352,53.3258719 159.304207,53.0430084 C157.00413,52.754149 154.690013,52.590286 152.372103,52.5521448 C154.820156,51.2069793 157.378636,50.0724015 160.019779,49.1607242 L160.019779,49.1607242 Z" id="Path" fill="#FEFEFE" fill-rule="nonzero"></path>
                        <path d="M107.335793,80.3528691 C108.953989,81.9814387 110.704137,83.4739702 112.568413,84.8152646 C109.366131,86.1412024 105.670357,85.1086834 103.623764,82.3163231 C104.831292,79.9512535 104.920738,79.9066295 106.888561,80.3528691 L107.335793,80.3528691 Z" id="Path" fill="#C4C3C6" fill-rule="nonzero"></path>
                        <path d="M114.089004,80.3528691 L118.561328,83.3872981 C116.723959,84.244365 114.61404,84.3090731 112.727385,83.5662164 C110.84073,82.8233597 109.343685,81.3384357 108.588044,79.46039 C108.588044,79.46039 108.588044,79.46039 108.588044,79.2372702 C109.691082,78.8265904 110.925341,78.9763697 111.897565,79.6388858 C112.53899,80.0922917 113.303012,80.3412142 114.089004,80.3528691 Z" id="Path" fill="#C4C3C6" fill-rule="nonzero"></path>
                        <path d="M94.7685609,82.5394429 C96.2263388,84.2479891 97.9116499,85.7493905 99.7775646,87.0018384 C100.001181,87.0018384 100.40369,87.3142061 100.314244,87.6711978 C100.224797,88.0281894 99.7775646,88.0728134 99.4645018,88.1620613 C96.9762796,88.7931036 94.3391661,88.0631415 92.5323985,86.2432312 C92.1298893,83.9227855 92.1298893,83.9674095 94.2766052,82.9856825 C94.4554982,82.8518106 94.5896679,82.6733148 94.7685609,82.5394429 Z" id="Path" fill="#C4C3C6" fill-rule="nonzero"></path>
                        <path d="M100.985092,81.6023398 C102.547782,83.0505469 104.206281,84.3922909 105.949373,85.6184958 C106.351882,85.8862396 106.754391,86.2878552 105.949373,86.6002228 C103.192182,87.3526499 100.247488,86.4486017 98.3911439,84.2797772 C98.3911439,82.2270752 99.1514391,81.6469638 100.985092,81.6023398 Z" id="Path" fill="#C4C3C6" fill-rule="nonzero"></path>
                        <path d="M84.9741697,87.5819499 L88.999262,89.3222841 C87.5753518,91.3250731 84.7972825,91.8036748 82.7827306,90.3932591 C82.0671587,89.8131476 81.39631,89.1437883 80.680738,88.5190529 C79.9651661,87.8943175 80.680738,87.3142061 81.7540959,87.2695822 C82.8342386,87.2851383 83.9112521,87.3896154 84.9741697,87.5819499 Z" id="Path" fill="#C4C3C6" fill-rule="nonzero"></path>
                        <path d="M88.999262,84.8152646 C90.5806113,85.8381931 92.0762811,86.987302 93.4715867,88.2513092 C93.4715867,88.2513092 94.0977122,88.6083008 93.9188192,88.9652925 C93.7399262,89.3222841 93.4268635,89.2776602 93.1138007,89.3669081 C92.5191206,89.5675395 91.8748277,89.5675395 91.2801476,89.3669081 C89.9167603,89.0463001 88.5958299,88.5670281 87.3445018,87.9389415 C86.6736531,85.395376 86.8972694,84.9937604 88.999262,84.8598886 L88.999262,84.8598886 L88.999262,84.8152646 Z" id="Path" fill="#C4C3C6" fill-rule="nonzero"></path>
                        <path d="M76.0295203,74.1055153 C76.4630414,74.0607463 76.8704685,74.3194424 77.0134317,74.7302507 C78.1917908,76.6442715 78.8685083,78.8233747 78.9812546,81.0668524 C78.9812546,82.1378273 78.9812546,82.2270752 77.5501107,81.7808357 L77.058155,81.423844 L77.058155,81.423844 C77.0047169,81.1178568 76.882383,80.827959 76.700369,80.5759889 C75.5265072,78.6250271 75.2807788,76.2549255 76.0295203,74.1055153 Z" id="Path" fill="#C4C3C6" fill-rule="nonzero"></path>
                        <path d="M126.924576,79.9958774 C124.423897,80.4379178 121.92503,79.2093255 120.752768,76.9614485 C120.484428,75.6673538 121.647232,74.9533705 123.615055,75.2211142 C122.675867,76.8275766 123.883395,77.2738162 124.956753,77.6754318 C126.030111,78.0770474 126.969299,78.5679109 126.924576,79.9958774 Z" id="Path" fill="#C4C3C6" fill-rule="nonzero"></path>
                        <path d="M80.2335055,89.456156 C80.9043542,90.1255153 82.2460517,90.7056267 81.9329889,91.5981058 C81.6199262,92.490585 80.2335055,92.3120891 79.2495941,92.401337 C77.9680413,92.6595564 76.6362114,92.4538975 75.4928413,91.8212256 C75.4928413,89.3222841 75.7164576,89.1437883 78.1762362,89.3669081 C78.8470849,89.456156 79.5179336,89.9916435 80.2335055,89.456156 Z" id="Path" fill="#C4C3C6" fill-rule="nonzero"></path>
                        <path d="M114.223173,77.8985515 C114.537729,77.0186042 115.296084,76.3708844 116.215951,76.1964976 C117.135819,76.0221108 118.079415,76.3471778 118.695498,77.0506964 C120.077959,78.6014895 121.656483,79.9665063 123.391439,81.1114763 C123.972841,81.5577159 123.928118,81.6023398 123.391439,81.9147075 C121.277922,81.1429205 119.277433,80.0923693 117.443247,78.7910306 C116.658286,77.8575165 115.378216,77.5027311 114.223173,77.8985515 Z" id="Path" fill="#FEFEFE" fill-rule="nonzero"></path>
                        <path d="M79.6521033,75.9797214 C79.6521033,74.6856267 80.144059,74.3286351 81.2621402,74.7748747 C82.8768722,75.3408923 84.1659422,76.578257 84.7952768,78.1662953 C85.0309073,78.7280497 85.0310727,79.3605957 84.795736,79.9224727 C84.5603992,80.4843497 84.1091938,80.9286819 83.5430258,81.1561003 C83.0033424,81.46053 82.359679,81.5226329 81.7715346,81.3270201 C81.1833903,81.1314072 80.7058043,80.6963842 80.4571218,80.1297493 C81.3515867,79.7281337 82.7380074,80.1297493 82.9616236,78.7017827 C83.0017638,77.6995081 82.4862099,76.7564245 81.6199262,76.2474652 C81.0348866,75.8751143 80.3157007,75.7772613 79.6521033,75.9797214 Z" id="Path" fill="#C4C3C6" fill-rule="nonzero"></path>
                        <path d="M115.96738,90.9287465 C114.297655,91.1626824 112.597478,90.8328264 111.137269,89.9916435 C110.063911,89.411532 110.063911,88.6083008 111.137269,88.0281894 C112.154396,87.4087742 113.359519,87.171449 114.536236,87.3588301 C115.251808,88.5636769 116.280443,89.456156 115.96738,90.9287465 Z" id="Path" fill="#C4C3C6" fill-rule="nonzero"></path>
                        <path d="M114.223173,77.8985515 C115.310853,77.6003344 116.473769,77.9467028 117.219631,78.7910306 C119.053817,80.0923693 121.054305,81.1429205 123.167823,81.9147075 C119.591018,83.1461201 115.671626,81.3863094 114.223173,77.8985515 L114.223173,77.8985515 Z" id="Path" fill="#C4C3C6" fill-rule="nonzero"></path>
                        <path d="M126.119557,90.482507 C124.558339,89.443407 123.725619,87.6085659 123.972841,85.7523677 C124.464797,84.7260167 125.269815,84.2797772 126.343173,85.2168802 C126.343173,85.9308635 126.745683,86.466351 126.969299,87.1357103 C127.541009,88.3088905 127.182117,89.7224225 126.119557,90.482507 Z" id="Path" fill="#C4C3C6" fill-rule="nonzero"></path>
                        <path d="M80.2335055,89.456156 C79.5179336,90.1701393 78.8470849,89.456156 78.1762362,89.456156 C75.7164576,89.2330362 75.4928413,89.456156 75.4928413,91.9104735 C74.1052158,91.2990444 73.4675535,89.6885453 74.0616974,88.2959331 C74.9171677,87.2354896 76.4262401,86.9686527 77.5948339,87.6711978 C78.5572203,88.1340949 79.4462619,88.7354969 80.2335055,89.456156 L80.2335055,89.456156 Z" id="Path" fill="#FEFEFE" fill-rule="nonzero"></path>
                        <path d="M121.244723,90.7948747 C120.258121,90.6244241 119.367668,90.1008579 118.740221,89.3222841 C118.069373,88.5636769 117.219631,87.6265738 118.114096,86.6002228 C118.503929,86.1733907 119.055923,85.9301436 119.634686,85.9301436 C120.21345,85.9301436 120.765443,86.1733907 121.155277,86.6002228 C121.687874,87.9425753 121.719616,89.4311338 121.244723,90.7948747 Z" id="Path" fill="#C4C3C6" fill-rule="nonzero"></path>
                        <path d="M76.0295203,74.1055153 C75.1957367,76.3140986 75.4266451,78.7826244 76.6556458,80.7991086 C76.8376598,81.0510788 76.9599936,81.3409766 77.0134317,81.6469638 C75.5395727,81.3779632 74.3205957,80.346607 73.8137403,78.9397579 C73.306885,77.5329089 73.5887674,75.9632258 74.5536531,74.8194986 C75.0008856,74.3732591 75.4033948,73.9716435 76.0295203,74.1055153 Z" id="Path" fill="#FEFEFE" fill-rule="nonzero"></path>
                        <path d="M79.6521033,75.9797214 C80.3157007,75.7772613 81.0348866,75.8751143 81.6199262,76.2474652 C82.4862099,76.7564245 83.0017638,77.6995081 82.9616236,78.7017827 C82.7380074,79.9958774 81.3515867,79.7281337 80.4571218,80.1297493 C79.7240439,78.8778349 79.4401188,77.4141451 79.6521033,75.9797214 L79.6521033,75.9797214 Z" id="Path" fill="#FEFEFE" fill-rule="nonzero"></path>
                        <path d="M126.119557,90.482507 C127.182117,89.7224225 127.541009,88.3088905 126.969299,87.1357103 C126.745683,86.466351 126.29845,85.9308635 126.343173,85.2168802 C127.411273,85.9624517 128.374002,86.8479969 129.205461,87.8496936 C129.551066,88.2311769 129.692748,88.7546902 129.586574,89.2578995 C129.480399,89.7611088 129.139202,90.183189 128.668782,90.3932591 C127.908487,90.8841226 127.014022,91.7319777 126.119557,90.482507 Z" id="Path" fill="#FEFEFE" fill-rule="nonzero"></path>
                        <path d="M84.9741697,87.5819499 C83.9112521,87.3896154 82.8342386,87.2851383 81.7540959,87.2695822 C80.8149077,87.2695822 80.5465683,87.7158217 80.680738,88.5190529 C79.7472482,88.001569 78.9141743,87.3214762 78.2209594,86.5109749 C80.501845,84.7260167 81.6646494,84.9491365 84.9741697,87.5819499 Z" id="Path" fill="#FEFEFE" fill-rule="nonzero"></path>
                        <path d="M126.924576,79.9958774 C126.924576,78.5679109 125.940664,78.1216713 124.822583,77.6754318 C123.704502,77.2291922 122.541697,76.8275766 123.480886,75.2211142 C125.415918,75.0805721 127.18641,76.3078675 127.729594,78.1662953 C127.95321,78.9695265 128.042657,79.7727577 126.924576,79.9958774 Z" id="Path" fill="#FEFEFE" fill-rule="nonzero"></path>
                        <path d="M89.7595572,77.452312 C90.2815706,77.3944886 90.7990379,77.5943538 91.1459779,77.9877994 C91.7721033,78.5679109 91.7273801,79.1033983 90.8776384,79.3711421 C89.7179709,79.6620528 88.5041693,79.6620528 87.3445018,79.3711421 C86.4053137,79.3711421 86.2711439,78.434039 86.2711439,77.6754318 C86.2711439,76.9168245 86.2711439,76.381337 87.2103321,76.470585 C87.1286737,77.337195 87.73531,78.1182138 88.5967528,78.2555432 C89.4464945,78.5232869 89.6701107,78.1216713 89.7595572,77.452312 Z" id="Path" fill="#C4C3C6" fill-rule="nonzero"></path>
                        <path d="M88.7756458,84.7260167 C86.6736531,84.7260167 86.4500369,85.2615042 87.1208856,87.8050696 C86.1838279,87.3450607 85.3238808,86.7429288 84.5716605,86.0201114 C83.5430258,85.1722563 83.9902583,84.5921448 84.9741697,84.2797772 C86.2247927,83.7045717 87.6929613,83.8769139 88.7756458,84.7260167 L88.7756458,84.7260167 Z" id="Path" fill="#FEFEFE" fill-rule="nonzero"></path>
                        <path d="M100.985092,81.6023398 C99.1514391,81.6023398 98.5700369,82.2270752 98.2122509,84.2797772 C98.0754705,84.2165853 97.9535626,84.1253574 97.8544649,84.0120334 C97.1836162,83.2088022 95.7524723,82.5394429 97.0494465,81.2007242 C98.2760516,80.3286652 99.9608034,80.5005869 100.985092,81.6023398 L100.985092,81.6023398 Z" id="Path" fill="#FEFEFE" fill-rule="nonzero"></path>
                        <path d="M94.7685609,82.5394429 C94.7685609,82.5394429 94.4554982,82.8518106 94.2766052,82.8964345 C92.1298893,83.8781616 92.1298893,83.8335376 92.5323985,86.1539833 L92.264059,86.1539833 C91.5037638,85.2615042 90.1173432,84.5475209 90.8776384,83.0303064 C91.6379336,81.5130919 93.2032472,81.8254596 94.7685609,82.5394429 Z" id="Path" fill="#FEFEFE" fill-rule="nonzero"></path>
                        <path d="M114.089004,80.3528691 C113.303012,80.3412142 112.53899,80.0922917 111.897565,79.6388858 C110.925341,78.9763697 109.691082,78.8265904 108.588044,79.2372702 C109.018815,78.4568004 109.799933,77.9310933 110.68655,77.8249354 C111.573168,77.7187775 112.456764,78.0451625 113.060369,78.7017827 C113.532173,79.1609248 113.885166,79.7275233 114.089004,80.3528691 Z" id="Path" fill="#FEFEFE" fill-rule="nonzero"></path>
                        <path d="M107.335793,80.3528691 L106.709668,80.3528691 C104.741845,79.9066295 104.652399,79.9512535 103.444871,82.3163231 C102.863469,81.5577159 101.879557,80.8437326 103.042362,79.8620056 C104.375353,78.8557674 106.265465,79.0718619 107.335793,80.3528691 L107.335793,80.3528691 Z" id="Path" fill="#FEFEFE" fill-rule="nonzero"></path>
                        <path d="M121.244723,90.7948747 C121.759487,89.4284545 121.759487,87.922019 121.244723,86.5555989 C122.390671,87.36969 123.163443,88.6065931 123.391439,89.9916435 C123.615055,91.0626184 122.944207,91.2857382 121.244723,90.7948747 Z" id="Path" fill="#FEFEFE" fill-rule="nonzero"></path>
                        <path d="M115.96738,90.9287465 C116.325166,89.456156 115.251808,88.5636769 114.536236,87.4927019 C115.659392,87.3506291 116.706126,88.0855842 116.951292,89.1884123 C117.264354,89.9916435 117.085461,90.8394986 115.96738,90.9287465 Z" id="Path" fill="#FEFEFE" fill-rule="nonzero"></path>
                        <path d="M89.7595572,77.452312 C89.7595572,78.1216713 89.2676015,78.5232869 88.5967528,78.389415 C87.73531,78.2520857 87.1286737,77.4710669 87.2103321,76.6044568 C88.1514633,76.4018697 89.128475,76.7268173 89.7595572,77.452312 Z" id="Path" fill="#FEFEFE" fill-rule="nonzero"></path>
                        <path d="M79.0259779,63.9312535 C79.017883,64.0501136 79.017883,64.169385 79.0259779,64.2882451 L79.0259779,64.2882451 L79.0259779,63.8866295 L79.0259779,63.9312535 Z" id="Path" fill="#BFAF9F" fill-rule="nonzero"></path>
                        <path d="M88.999262,84.8152646 L88.7309225,84.8152646 L88.999262,84.8152646 Z" id="Path" fill="#FEFEFE" fill-rule="nonzero"></path>
                        <path d="M77.058155,81.6023398 L77.5501107,81.9593315 C77.3264945,81.9593315 77.0134317,82.0039554 77.058155,81.6023398 Z" id="Path" fill="#FEFEFE" fill-rule="nonzero"></path>
                        <path d="M95.4394096,98.9164345 C96.1997048,99.2288022 95.9760886,99.9874095 96.1997048,100.478273 C96.2753902,100.651615 96.2445648,100.852921 96.1204566,100.995805 C95.9963485,101.138689 95.8010238,101.197746 95.6183026,101.147632 C95.1263469,101.147632 94.5002214,100.746017 94.5449446,100.032033 C94.5896679,99.3180501 94.9921771,99.2288022 95.4394096,98.9164345 Z" id="Path" fill="#FEFEFE" fill-rule="nonzero"></path>
                        <path d="M109.190506,37.1295842 C109.170502,45.6127841 108.418562,54.0787618 106.942901,62.4350451 C106.789881,63.6807401 106.314809,64.8661841 105.563689,65.8765878 C105.001788,66.6357516 104.388804,66.7875844 103.673657,65.8765878 C102.331414,64.3925005 101.275276,62.6770918 100.557659,60.8154956 C97.7992347,54.6915741 95.4494656,48.3145979 92.4356314,42.3425091 C91.1005525,39.6289909 89.5816512,37.0081049 87.8893392,34.4978162 C85.190171,30.0093668 85.6619738,24.318641 89.0642237,20.3267581 C90.8520915,18.3529322 92.8442869,16.530939 94.7854005,14.7089458 C96.0358415,13.5026574 97.5870717,12.6468687 99.2806108,12.2290106 C102.089846,12.0250375 104.710945,13.6404508 105.768017,16.2272735 C108.383692,22.8776576 109.550048,30.0009881 109.190506,37.1295842 Z" id="Path" fill="#FEFEFE" fill-rule="nonzero"></path>
                        <path d="M180.771365,175.625014 C179.167837,173.181451 176.845294,171.205036 174.420664,169.511532 C173.660369,168.976045 173.39203,169.15454 173.436753,170.047019 C173.414514,170.358993 173.414514,170.672149 173.436753,170.984123 C174.02626,176.150712 173.784692,181.378097 172.721181,186.468635 C171.322702,194.031277 168.268503,201.19271 163.776531,207.441894 C159.428226,213.22869 153.691893,217.83212 147.09476,220.829081 C146.153849,220.963418 145.244876,221.265736 144.411365,221.72156 C142.560697,222.616484 140.628893,223.333699 138.642066,223.86351 C134.007568,225.1774 129.233927,225.941284 124.420074,226.139331 C118.281735,226.518024 112.120476,226.248787 106.038819,225.3361 C96.9542993,224.083288 88.2956548,220.703975 80.7701845,215.474206 C74.8896121,211.491793 70.044927,206.168352 66.6376384,199.94507 C65.9667897,198.650975 65.2512177,197.446128 64.580369,196.152033 C64.806029,205.49498 67.9312327,214.537949 73.5250185,222.033928 C55.2779336,212.529025 43.5157196,198.383231 41.9504059,177.409972 L41.9504059,175.714262 C41.995311,175.599482 41.995311,175.47205 41.9504059,175.35727 C40.869207,161.778955 45.4295552,148.354182 54.5623616,138.230139 C54.5623616,138.944123 52.9225092,150.977716 57.1115867,163.888914 C57.415573,165.28458 58.0266123,166.595398 58.9005166,167.726574 C58.8856089,159.158774 65.0221598,136.262784 73.0479705,123.45961 C77.898896,115.721172 87.2181824,109.515111 88.28369,109.13532 C90.9670849,108.287465 93.0690775,109.447688 92.7560148,111.678886 C92.2940242,114.540386 92.0993876,117.438514 92.1746125,120.335933 C92.1746125,123.771978 92.1746125,127.163398 92.1746125,130.599443 L94.4107749,130.599443 C94.4107749,127.788134 96.4680443,125.690808 97.317786,123.102618 C98.307781,120.845181 99.4431421,118.654029 100.716753,116.542897 C102.553563,112.946944 104.988224,109.687818 107.917196,106.904123 C109.716658,104.756509 112.540278,103.749093 115.296531,104.271309 C117.567722,104.80786 119.64343,105.967057 121.289446,107.618106 C126.25145,112.725357 130.277837,118.660909 133.18583,125.15532 C133.524339,125.952371 134.009793,126.678936 134.616974,127.29727 C134.771694,126.426455 134.771694,125.535272 134.616974,124.664457 C134.17943,120.499017 134.621242,116.288317 135.913948,112.303621 C136.540074,109.80468 137.434539,109.536936 139.312915,111.366518 C141.748189,113.580086 144.020075,115.966235 146.110849,118.506351 C146.577912,119.264239 147.242637,119.881215 148.033948,120.291309 C148.002089,119.724092 147.833312,119.17296 147.541993,118.684847 C145.522634,114.611009 143.047058,110.778643 140.162657,107.261114 C139.939041,106.948747 139.223469,106.725627 139.804871,106.145515 C135.93593,102.158029 131.394469,98.8803325 126.387897,96.462117 C125.985387,96.462117 125.538155,95.7927577 125.135646,96.1497493 C124.733137,96.5067409 125.135646,96.9976045 125.359262,97.3992201 C127.499864,102.750748 129.33643,108.218418 130.860221,113.776212 C131.620517,116.542897 131.709963,117.123008 131.3969,118.238607 L131.039114,117.658496 C129.043784,112.999256 126.649684,108.520284 123.883395,104.271309 C121.713192,100.442009 118.643748,97.1956217 114.938745,94.8110306 C113.341099,93.8548869 111.445822,93.521169 109.616679,93.8739276 C106.662407,94.5837068 104.098072,96.4067393 102.460959,98.9610585 C98.987581,104.087255 96.5703856,109.851374 95.3499631,115.918162 C94.9921771,117.524624 94.6343911,119.131086 94.2766052,120.871421 C93.9635424,119.755822 94.5002214,118.863343 94.5002214,117.92624 C94.5052636,112.644958 95.074982,107.379283 96.1997048,102.218607 C97.2730627,97.0868524 94.1871587,94.3201671 89.0887085,95.5250139 C86.5951132,96.2108843 84.2671522,97.3950531 82.2460517,99.0056825 C76.2875752,103.755523 71.2804886,109.584155 67.4873801,116.185905 C66.0562362,118.506351 64.759262,120.648301 63.0150554,123.548858 C65.4775789,113.442141 70.3922495,104.094349 77.3264945,96.3282451 C72.5485161,98.5336677 68.0455753,101.28934 63.9095203,104.539053 C63.9095203,104.539053 58.4078124,110.337275 52.9225092,116.766017 C48.3662999,122.105866 43.7223655,128.223346 43.1579336,128.680613 C42.8637948,128.854837 42.7642282,129.23235 42.9343173,129.528468 C43.1579336,129.930084 43.5604428,129.528468 43.9182288,129.528468 L53.6678967,128.011253 C53.9971586,127.874901 54.3672694,127.874901 54.6965314,128.011253 C54.6965314,129.171476 53.5337269,129.573092 52.818155,130.242451 C50.7161624,132.205905 48.5694465,134.124735 46.6016236,136.222061 C43.2473801,139.836602 39.8484133,143.406518 36.7625092,147.244178 C34.8394096,149.653872 32.7821402,151.974318 31.0826568,154.562507 C17.1439114,176.264624 13.3227169,190.079356 12.8802952,197.535376 C11.0916059,227.679701 46.845031,242.658014 70.0664207,246.175487 C78.5851986,247.465874 88.2421771,244.56251 89.7148339,244.078162 C90.9670849,243.676546 90.9223616,243.185682 90.0726199,242.203955 C87.7660734,239.673522 85.7138837,236.923415 83.9455351,233.993148 C84.457795,234.211898 84.9389744,234.496964 85.376679,234.841003 C85.8686347,235.242618 86.3158672,235.688858 86.8078229,236.04585 C93.6410481,240.791495 101.299907,244.226547 109.393063,246.175487 C114.595235,247.516789 119.941736,248.22108 125.314539,248.272813 C142.048111,249.378561 158.737726,245.545213 173.302583,237.250696 C174.161561,236.967242 174.974984,236.561434 175.717638,236.04585 L178.892989,233.68078 L179.832177,232.877549 C180.252862,232.769572 180.638168,232.55428 180.950258,232.252813 C180.950258,231.895822 181.397491,231.940446 181.710554,231.851198 C181.676888,231.362803 181.896313,230.891243 182.291956,230.601727 C186.050721,226.844941 198.273063,202.295265 180.771365,175.625014 Z" id="Path" fill="#C4C3C6" fill-rule="nonzero"></path>
                        <polygon id="Path" fill="#BFAF9F" fill-rule="nonzero" points="63.8200738 104.896045 63.7753506 104.896045 63.8200738 104.896045"></polygon>
                        <path d="M35.79229,258.282188 C33.9699576,257.251554 38.3801664,224.844815 45.759016,220.527212 C56.8272905,214.050808 55.1765552,217.850615 69.2611019,212.762608 C83.3456485,207.674602 89.8223248,206.849625 79.3531081,213.445908 C72.3736304,217.84343 50.1397567,231.298528 35.79229,258.282188 Z" id="Rectangle-Copy-40" fill="#000000" transform="translate(59.951882, 233.502339) rotate(-118.000000) translate(-59.951882, -233.502339) "></path>
                        <path d="M163.584471,247.727006 C162.560202,246.696397 165.018271,214.349909 169.160615,210.046879 C175.374131,203.592334 174.449125,207.383983 182.357793,202.318344 C190.26646,197.252705 193.904104,196.435395 188.027168,203.01019 C184.109211,207.393386 171.627808,220.803804 163.584471,247.727006 Z" id="Rectangle-Copy-41" fill="#000000" transform="translate(177.140271, 223.012992) rotate(-182.000000) translate(-177.140271, -223.012992) "></path>
                    </g>
                </g>
            </g>
        </g>
    </g>
</svg>