<svg xmlns="http://www.w3.org/2000/svg" width="375" height="236" viewBox="0 0 375 236">
  <g fill="none" fill-rule="evenodd" transform="matrix(-1 0 0 1 375 0)">
    <path fill="#261EE4" d="M128.979595 212.734208L125.193529 212.734208 125.193529 216.446011 128.979595 216.446011 128.979595 220.167039 125.193529 220.167039 125.193529 223.888066 128.979595 223.888066 128.979595 227.599869 132.775078 227.599869 132.775078 231.320896 128.979595 231.320896 128.979595 227.609093 125.193529 227.609093 125.193529 231.320896 128.979595 231.320896 128.979595 235.044006 125.184112 235.044006 125.184112 231.322979 121.398046 231.322979 121.398046 227.611176 117.602563 227.611176 117.602563 231.322979 113.80708 231.322979 113.80708 227.611176 110.021013 227.611176 110.021013 231.322979 113.80708 231.322979 113.80708 235.044006 110.011293 235.044006 110.011293 231.322979 106.22553 231.322979 106.22553 235.044006 102.427921 235.044006 102.427921 231.322979 106.223404 231.322979 106.223404 227.611176 102.427921 227.611176 102.427921 223.889851 106.223404 223.889851 106.223404 220.168824 102.427921 220.168824 102.427921 216.447797 106.223404 216.447797 106.223404 212.735993 106.223404 212.72677 110.009471 212.72677 110.009471 209.014966 113.804954 209.014966 113.804954 212.72677 117.600437 212.72677 117.600437 209.014966 121.396223 209.014966 121.396223 212.72677 125.18229 212.72677 125.18229 209.014966 128.977773 209.014966 128.977773 212.72677 132.773256 212.72677 132.773256 216.447797 128.977773 216.447797 128.977773 212.734208 128.979595 212.734208zM106.223404 212.724984L106.223404 209.012883 102.427921 209.012883 102.427921 212.734208 106.223404 212.734208 106.223404 212.724984zM117.600437 231.322979L117.600437 235.044006 121.396223 235.044006 121.396223 231.322979 117.600437 231.322979zM128.979595 223.889851L128.979595 220.168824 132.775078 220.168824 132.775078 223.889851 128.979595 223.889851zM110.009471 227.601952L106.223404 227.601952 106.223404 223.889851 110.009471 223.889851 110.009471 227.601952zM110.018887 209.012883L110.018887 205.291856 113.804954 205.291856 113.804954 209.012883 117.600437 209.012883 117.600437 205.291856 121.396223 205.291856 121.396223 209.012883 125.191706 209.012883 125.191706 205.291856 128.977773 205.291856 128.977773 209.012883 132.773256 209.012883 132.773256 205.291856 128.977773 205.291856 128.977773 201.570829 125.18229 201.570829 125.18229 205.291856 121.396223 205.291856 121.396223 201.570829 117.600437 201.570829 117.600437 205.291856 113.804954 205.291856 113.804954 201.570829 110.009471 201.570829 110.009471 205.291856 106.223404 205.291856 106.223404 201.570829 102.427921 201.570829 102.427921 205.291856 106.223404 205.291856 106.223404 209.012883 110.018887 209.012883zM125.18229 216.446011L125.18229 220.167039 121.396223 220.167039 121.396223 216.446011 125.18229 216.446011zM117.600437 216.446011L117.600437 212.734208 121.396223 212.734208 121.396223 216.446011 117.600437 216.446011zM113.804954 216.446011L117.600437 216.446011 117.600437 220.167039 113.804954 220.167039 113.804954 216.446011zM113.804954 216.446011L110.018887 216.446011 110.018887 212.734208 113.804954 212.734208 113.804954 216.446011zM113.804954 223.889851L110.018887 223.889851 110.018887 220.168824 113.804954 220.168824 113.804954 223.889851zM117.600437 223.889851L117.600437 227.601952 113.804954 227.601952 113.804954 223.889851 117.600437 223.889851zM121.398046 223.889851L117.602563 223.889851 117.602563 220.168824 121.398046 220.168824 121.398046 223.889851zM121.398046 223.889851L125.184112 223.889851 125.184112 227.601952 121.398046 227.601952 121.398046 223.889851zM110.009471 220.168824L110.009471 216.447797 106.223404 216.447797 106.223404 220.168824 110.009471 220.168824zM136.570561 231.322979L132.775078 231.322979 132.775078 235.044006 136.570561 235.044006 136.570561 231.322979zM132.775078 223.889851L136.570561 223.889851 136.570561 227.611176 132.775078 227.611176 132.775078 223.889851zM136.570561 216.446011L132.775078 216.446011 132.775078 220.167039 136.570561 220.167039 136.570561 216.446011zM132.775078 209.012883L136.570561 209.012883 136.570561 212.734208 132.775078 212.734208 132.775078 209.012883zM132.775078 201.570829L136.570561 201.570829 136.570561 205.291856 132.775078 205.291856 132.775078 201.570829zM26.5516743 78.8415008L22.7656079 78.8415008 22.7656079 82.5533042 26.5516743 82.5533042 26.5516743 86.2743313 22.7656079 86.2743313 22.7656079 89.9953584 26.5516743 89.9953584 26.5516743 93.7071618 30.3471573 93.7071618 30.3471573 97.4281889 26.5516743 97.4281889 26.5516743 93.7163855 22.7656079 93.7163855 22.7656079 97.4281889 26.5516743 97.4281889 26.5516743 101.151299 22.7561913 101.151299 22.7561913 97.4302717 18.9701249 97.4302717 18.9701249 93.7184683 15.1746418 93.7184683 15.1746418 97.4302717 11.3791588 97.4302717 11.3791588 93.7184683 7.59309236 93.7184683 7.59309236 97.4302717 11.3791588 97.4302717 11.3791588 101.151299 7.58337203 101.151299 7.58337203 97.4302717 3.79760934 97.4302717 3.79760934 101.151299 0 101.151299 0 97.4302717 3.79548302 97.4302717 3.79548302 93.7184683 0 93.7184683 0 89.9971436 3.79548302 89.9971436 3.79548302 86.2761165 0 86.2761165 0 82.5550894 3.79548302 82.5550894 3.79548302 78.843286 3.79548302 78.8340623 7.58154947 78.8340623 7.58154947 75.1222589 11.3770325 75.1222589 11.3770325 78.8340623 15.1725155 78.8340623 15.1725155 75.1222589 18.9683023 75.1222589 18.9683023 78.8340623 22.7543687 78.8340623 22.7543687 75.1222589 26.5498518 75.1222589 26.5498518 78.8340623 30.3453348 78.8340623 30.3453348 82.5550894 26.5498518 82.5550894 26.5498518 78.8415008 26.5516743 78.8415008zM3.79548302 78.8322771L3.79548302 75.1201761 0 75.1201761 0 78.8415008 3.79548302 78.8415008 3.79548302 78.8322771zM15.1725155 97.4302717L15.1725155 101.151299 18.9683023 101.151299 18.9683023 97.4302717 15.1725155 97.4302717zM26.5516743 89.9971436L26.5516743 86.2761165 30.3471573 86.2761165 30.3471573 89.9971436 26.5516743 89.9971436zM7.58154947 93.7092445L3.79548302 93.7092445 3.79548302 89.9971436 7.58154947 89.9971436 7.58154947 93.7092445zM7.59096604 75.1201761L7.59096604 71.399149 11.3770325 71.399149 11.3770325 75.1201761 15.1725155 75.1201761 15.1725155 71.399149 18.9683023 71.399149 18.9683023 75.1201761 22.7637853 75.1201761 22.7637853 71.399149 26.5498518 71.399149 26.5498518 75.1201761 30.3453348 75.1201761 30.3453348 71.399149 26.5498518 71.399149 26.5498518 67.6781219 22.7543687 67.6781219 22.7543687 71.399149 18.9683023 71.399149 18.9683023 67.6781219 15.1725155 67.6781219 15.1725155 71.399149 11.3770325 71.399149 11.3770325 67.6781219 7.58154947 67.6781219 7.58154947 71.399149 3.79548302 71.399149 3.79548302 67.6781219 0 67.6781219 0 71.399149 3.79548302 71.399149 3.79548302 75.1201761 7.59096604 75.1201761zM22.7543687 82.5533042L22.7543687 86.2743313 18.9683023 86.2743313 18.9683023 82.5533042 22.7543687 82.5533042zM15.1725155 82.5533042L15.1725155 78.8415008 18.9683023 78.8415008 18.9683023 82.5533042 15.1725155 82.5533042zM11.3770325 82.5533042L15.1725155 82.5533042 15.1725155 86.2743313 11.3770325 86.2743313 11.3770325 82.5533042zM11.3770325 82.5533042L7.59096604 82.5533042 7.59096604 78.8415008 11.3770325 78.8415008 11.3770325 82.5533042zM11.3770325 89.9971436L7.59096604 89.9971436 7.59096604 86.2761165 11.3770325 86.2761165 11.3770325 89.9971436zM15.1725155 89.9971436L15.1725155 93.7092445 11.3770325 93.7092445 11.3770325 89.9971436 15.1725155 89.9971436zM18.9701249 89.9971436L15.1746418 89.9971436 15.1746418 86.2761165 18.9701249 86.2761165 18.9701249 89.9971436zM18.9701249 89.9971436L22.7561913 89.9971436 22.7561913 93.7092445 18.9701249 93.7092445 18.9701249 89.9971436zM7.58154947 86.2761165L7.58154947 82.5550894 3.79548302 82.5550894 3.79548302 86.2761165 7.58154947 86.2761165zM34.1426404 97.4302717L30.3471573 97.4302717 30.3471573 101.151299 34.1426404 101.151299 34.1426404 97.4302717zM30.3471573 89.9971436L34.1426404 89.9971436 34.1426404 93.7184683 30.3471573 93.7184683 30.3471573 89.9971436zM34.1426404 82.5533042L30.3471573 82.5533042 30.3471573 86.2743313 34.1426404 86.2743313 34.1426404 82.5533042zM30.3471573 75.1201761L34.1426404 75.1201761 34.1426404 78.8415008 30.3471573 78.8415008 30.3471573 75.1201761zM30.3471573 67.6781219L34.1426404 67.6781219 34.1426404 71.399149 30.3471573 71.399149 30.3471573 67.6781219zM341.426404 171.81868L341.426404 168.097652 307.283763 168.097652 307.283763 171.81868 341.426404 171.81868zM341.426404 175.536136L341.426404 179.255378 307.283763 179.255378 307.283763 175.536136 341.426404 175.536136zM341.426404 182.97462L341.426404 186.693862 307.283763 186.693862 307.283763 182.97462 341.426404 182.97462zM341.426404 194.132346L341.426404 190.413104 307.283763 190.413104 307.283763 194.132346 341.426404 194.132346zM341.426404 197.851587L341.426404 201.570829 307.283763 201.570829 307.283763 197.851587 341.426404 197.851587z"/>
    <path fill="#FFF" d="M371.20634,101.151299 L375,101.151299 C375,119.637716 359.713574,134.624476 340.85736,134.624476 L340.85736,130.905234 C357.619452,130.905234 371.20634,117.584695 371.20634,101.151299 Z M363.619019,101.151299 L367.412679,101.151299 C367.412679,115.529888 355.523507,127.185992 340.85736,127.185992 L340.85736,123.46675 C353.427562,123.46675 363.619019,113.475081 363.619019,101.151299 Z M359.825662,101.151299 L356.032001,101.151299 C356.032001,109.366955 349.237495,116.028266 340.85736,116.028266 L340.85736,119.747508 C351.33344,119.747508 359.825662,111.42206 359.825662,101.151299 Z M348.444681,101.151299 L352.238341,101.151299 C352.238341,107.313934 347.143372,112.309024 340.85736,112.309024 L340.85736,108.589782 C345.047427,108.589782 348.444681,105.259127 348.444681,101.151299 Z M340.85736,101.151299 L344.65102,101.151299 C344.65102,103.206106 342.953305,104.870541 340.85736,104.870541 L340.85736,101.151299 Z"/>
    <path fill="#261EE4" d="M208.649503,134.624476 L204.855842,134.624476 C204.855842,116.138058 220.142268,101.151299 238.998483,101.151299 L238.998483,104.870541 C222.23639,104.870541 208.649503,118.19108 208.649503,134.624476 Z M216.236824,134.624476 L212.443163,134.624476 C212.443163,120.245887 224.332335,108.589782 238.998483,108.589782 L238.998483,112.309024 C226.42828,112.309024 216.236824,122.300693 216.236824,134.624476 Z M220.030484,134.624476 L223.824144,134.624476 C223.824144,126.408522 230.618348,119.747508 238.998483,119.747508 L238.998483,116.028266 C228.522403,116.028266 220.030484,124.353715 220.030484,134.624476 Z M231.411162,134.624476 L227.617805,134.624476 C227.617805,128.461543 232.71247,123.46675 238.998483,123.46675 L238.998483,127.185992 C234.808415,127.185992 231.411162,130.516647 231.411162,134.624476 Z M238.998483,134.624476 L235.204822,134.624476 C235.204822,132.569669 236.902538,130.905234 238.998483,130.905234 L238.998483,134.624476 Z"/>
    <path fill="#261EE4" fill-rule="nonzero" d="M136.570561,34.2049451 L136.570561,67.6781219 L170.713202,67.6781219 C170.713202,49.1917046 155.426776,34.2049451 136.570561,34.2049451 Z" transform="rotate(-180 153.642 50.942)"/>
    <path fill="#261EE4" fill-rule="nonzero" d="M340.85736,235.044006 L375,235.044006 L375,201.570829 C356.143785,201.570829 340.85736,216.557589 340.85736,235.044006 Z"/>
    <path fill="#FFF" d="M4.36604448,201.570829 L0.570561457,201.570829 L0.570561457,168.097652 L4.36604448,168.097652 L4.36604448,201.570829 Z M15.7488484,201.570829 L19.5443314,201.570829 L19.5443314,168.097652 L15.7488484,168.097652 L15.7488484,201.570829 Z M27.1316523,201.570829 L23.3361693,201.570829 L23.3361693,168.097652 L27.1316523,168.097652 L27.1316523,201.570829 Z M34.7132018,201.570829 L30.9177188,201.570829 L30.9177188,168.097652 L34.7132018,168.097652 L34.7132018,201.570829 Z M8.1615275,201.570829 L11.9570105,201.570829 L11.9570105,168.097652 L8.1615275,168.097652 L8.1615275,201.570829 Z"/>
    <path fill="#261EE4" d="M310.510202,34.2049451 L306.714719,34.2049451 L306.714719,0.731768276 L310.510202,0.731768276 L310.510202,34.2049451 Z M321.893006,34.2049451 L325.688489,34.2049451 L325.688489,0.731768276 L321.893006,0.731768276 L321.893006,34.2049451 Z M333.27581,34.2049451 L329.480327,34.2049451 L329.480327,0.731768276 L333.27581,0.731768276 L333.27581,34.2049451 Z M340.85736,34.2049451 L337.061877,34.2049451 L337.061877,0.731768276 L340.85736,0.731768276 L340.85736,34.2049451 Z M314.305685,34.2049451 L318.101168,34.2049451 L318.101168,0.731768276 L314.305685,0.731768276 L314.305685,34.2049451 Z"/>
  </g>
</svg>
