<svg xmlns="http://www.w3.org/2000/svg" width="375" height="546" viewBox="0 0 375 546">
  <g fill="#1F242C" fill-rule="evenodd" opacity=".6" transform="matrix(1 0 0 -1 0 546)">
    <path d="M128.784172 522.73303L125.003842 522.73303 125.003842 526.513333 128.784172 526.513333 128.784172 530.30303 125.003842 530.30303 125.003842 534.092727 128.784172 534.092727 128.784172 537.87303 132.573904 537.87303 132.573904 541.662727 128.784172 541.662727 128.784172 537.882424 125.003842 537.882424 125.003842 541.662727 128.784172 541.662727 128.784172 545.454545 124.99444 545.454545 124.99444 541.664848 121.21411 541.664848 121.21411 537.884545 117.424377 537.884545 117.424377 541.664848 113.634645 541.664848 113.634645 537.884545 109.854315 537.884545 109.854315 541.664848 113.634645 541.664848 113.634645 545.454545 109.844609 545.454545 109.844609 541.664848 106.064583 541.664848 106.064583 545.454545 102.272727 545.454545 102.272727 541.664848 106.06246 541.664848 106.06246 537.884545 102.272727 537.884545 102.272727 534.094545 106.06246 534.094545 106.06246 530.304848 102.272727 530.304848 102.272727 526.515152 106.06246 526.515152 106.06246 522.734848 106.06246 522.725455 109.84279 522.725455 109.84279 518.945152 113.632522 518.945152 113.632522 522.725455 117.422254 522.725455 117.422254 518.945152 121.21229 518.945152 121.21229 522.725455 124.99262 522.725455 124.99262 518.945152 128.782352 518.945152 128.782352 522.725455 132.572084 522.725455 132.572084 526.515152 128.782352 526.515152 128.782352 522.73303 128.784172 522.73303zM106.06246 522.723636L106.06246 518.94303 102.272727 518.94303 102.272727 522.73303 106.06246 522.73303 106.06246 522.723636zM117.422254 541.664848L117.422254 545.454545 121.21229 545.454545 121.21229 541.664848 117.422254 541.664848zM128.784172 534.094545L128.784172 530.304848 132.573904 530.304848 132.573904 534.094545 128.784172 534.094545zM109.84279 537.875152L106.06246 537.875152 106.06246 534.094545 109.84279 534.094545 109.84279 537.875152zM109.852192 518.94303L109.852192 515.153333 113.632522 515.153333 113.632522 518.94303 117.422254 518.94303 117.422254 515.153333 121.21229 515.153333 121.21229 518.94303 125.002022 518.94303 125.002022 515.153333 128.782352 515.153333 128.782352 518.94303 132.572084 518.94303 132.572084 515.153333 128.782352 515.153333 128.782352 511.363636 124.99262 511.363636 124.99262 515.153333 121.21229 515.153333 121.21229 511.363636 117.422254 511.363636 117.422254 515.153333 113.632522 515.153333 113.632522 511.363636 109.84279 511.363636 109.84279 515.153333 106.06246 515.153333 106.06246 511.363636 102.272727 511.363636 102.272727 515.153333 106.06246 515.153333 106.06246 518.94303 109.852192 518.94303zM124.99262 526.513333L124.99262 530.30303 121.21229 530.30303 121.21229 526.513333 124.99262 526.513333zM117.422254 526.513333L117.422254 522.73303 121.21229 522.73303 121.21229 526.513333 117.422254 526.513333zM113.632522 526.513333L117.422254 526.513333 117.422254 530.30303 113.632522 530.30303 113.632522 526.513333zM113.632522 526.513333L109.852192 526.513333 109.852192 522.73303 113.632522 522.73303 113.632522 526.513333zM113.632522 534.094545L109.852192 534.094545 109.852192 530.304848 113.632522 530.304848 113.632522 534.094545zM117.422254 534.094545L117.422254 537.875152 113.632522 537.875152 113.632522 534.094545 117.422254 534.094545zM121.21411 534.094545L117.424377 534.094545 117.424377 530.304848 121.21411 530.304848 121.21411 534.094545zM121.21411 534.094545L124.99444 534.094545 124.99444 537.875152 121.21411 537.875152 121.21411 534.094545zM109.84279 530.304848L109.84279 526.515152 106.06246 526.515152 106.06246 530.304848 109.84279 530.304848zM136.363636 541.664848L132.573904 541.664848 132.573904 545.454545 136.363636 545.454545 136.363636 541.664848zM132.573904 534.094545L136.363636 534.094545 136.363636 537.884545 132.573904 537.884545 132.573904 534.094545zM136.363636 526.513333L132.573904 526.513333 132.573904 530.30303 136.363636 530.30303 136.363636 526.513333zM132.573904 518.94303L136.363636 518.94303 136.363636 522.73303 132.573904 522.73303 132.573904 518.94303zM132.573904 511.363636L136.363636 511.363636 136.363636 515.153333 132.573904 515.153333 132.573904 511.363636zM60.6023536 11.3693939L56.8220236 11.3693939 56.8220236 15.149697 60.6023536 15.149697 60.6023536 18.9393939 56.8220236 18.9393939 56.8220236 22.7290909 60.6023536 22.7290909 60.6023536 26.5093939 64.3920859 26.5093939 64.3920859 30.2990909 60.6023536 30.2990909 60.6023536 26.5187879 56.8220236 26.5187879 56.8220236 30.2990909 60.6023536 30.2990909 60.6023536 34.0909091 56.8126213 34.0909091 56.8126213 30.3012121 53.0322913 30.3012121 53.0322913 26.5209091 49.242559 26.5209091 49.242559 30.3012121 45.4528268 30.3012121 45.4528268 26.5209091 41.6724968 26.5209091 41.6724968 30.3012121 45.4528268 30.3012121 45.4528268 34.0909091 41.6627912 34.0909091 41.6627912 30.3012121 37.8827645 30.3012121 37.8827645 34.0909091 34.0909091 34.0909091 34.0909091 30.3012121 37.8806414 30.3012121 37.8806414 26.5209091 34.0909091 26.5209091 34.0909091 22.7309091 37.8806414 22.7309091 37.8806414 18.9412121 34.0909091 18.9412121 34.0909091 15.1515152 37.8806414 15.1515152 37.8806414 11.3712121 37.8806414 11.3618182 41.6609714 11.3618182 41.6609714 7.58151515 45.4507037 7.58151515 45.4507037 11.3618182 49.2404359 11.3618182 49.2404359 7.58151515 53.0304715 7.58151515 53.0304715 11.3618182 56.8108015 11.3618182 56.8108015 7.58151515 60.6005338 7.58151515 60.6005338 11.3618182 64.3902661 11.3618182 64.3902661 15.1515152 60.6005338 15.1515152 60.6005338 11.3693939 60.6023536 11.3693939zM37.8806414 11.36L37.8806414 7.57939394 34.0909091 7.57939394 34.0909091 11.3693939 37.8806414 11.3693939 37.8806414 11.36zM49.2404359 30.3012121L49.2404359 34.0909091 53.0304715 34.0909091 53.0304715 30.3012121 49.2404359 30.3012121zM60.6023536 22.7309091L60.6023536 18.9412121 64.3920859 18.9412121 64.3920859 22.7309091 60.6023536 22.7309091zM41.6609714 26.5115152L37.8806414 26.5115152 37.8806414 22.7309091 41.6609714 22.7309091 41.6609714 26.5115152zM41.6703737 7.57939394L41.6703737 3.78969697 45.4507037 3.78969697 45.4507037 7.57939394 49.2404359 7.57939394 49.2404359 3.78969697 53.0304715 3.78969697 53.0304715 7.57939394 56.8202038 7.57939394 56.8202038 3.78969697 60.6005338 3.78969697 60.6005338 7.57939394 64.3902661 7.57939394 64.3902661 3.78969697 60.6005338 3.78969697 60.6005338 0 56.8108015 0 56.8108015 3.78969697 53.0304715 3.78969697 53.0304715 0 49.2404359 0 49.2404359 3.78969697 45.4507037 3.78969697 45.4507037 0 41.6609714 0 41.6609714 3.78969697 37.8806414 3.78969697 37.8806414 0 34.0909091 0 34.0909091 3.78969697 37.8806414 3.78969697 37.8806414 7.57939394 41.6703737 7.57939394zM56.8108015 15.149697L56.8108015 18.9393939 53.0304715 18.9393939 53.0304715 15.149697 56.8108015 15.149697zM49.2404359 15.149697L49.2404359 11.3693939 53.0304715 11.3693939 53.0304715 15.149697 49.2404359 15.149697zM45.4507037 15.149697L49.2404359 15.149697 49.2404359 18.9393939 45.4507037 18.9393939 45.4507037 15.149697zM45.4507037 15.149697L41.6703737 15.149697 41.6703737 11.3693939 45.4507037 11.3693939 45.4507037 15.149697zM45.4507037 22.7309091L41.6703737 22.7309091 41.6703737 18.9412121 45.4507037 18.9412121 45.4507037 22.7309091zM49.2404359 22.7309091L49.2404359 26.5115152 45.4507037 26.5115152 45.4507037 22.7309091 49.2404359 22.7309091zM53.0322913 22.7309091L49.242559 22.7309091 49.242559 18.9412121 53.0322913 18.9412121 53.0322913 22.7309091zM53.0322913 22.7309091L56.8126213 22.7309091 56.8126213 26.5115152 53.0322913 26.5115152 53.0322913 22.7309091zM41.6609714 18.9412121L41.6609714 15.1515152 37.8806414 15.1515152 37.8806414 18.9412121 41.6609714 18.9412121zM68.1818182 30.3012121L64.3920859 30.3012121 64.3920859 34.0909091 68.1818182 34.0909091 68.1818182 30.3012121zM64.3920859 22.7309091L68.1818182 22.7309091 68.1818182 26.5209091 64.3920859 26.5209091 64.3920859 22.7309091zM68.1818182 15.149697L64.3920859 15.149697 64.3920859 18.9393939 68.1818182 18.9393939 68.1818182 15.149697zM64.3920859 7.57939394L68.1818182 7.57939394 68.1818182 11.3693939 64.3920859 11.3693939 64.3920859 7.57939394zM64.3920859 0L68.1818182 0 68.1818182 3.78969697 64.3920859 3.78969697 64.3920859 0zM34.0909091 242.426061L34.0909091 238.636364 0 238.636364 0 242.426061 34.0909091 242.426061zM34.0909091 246.212121L34.0909091 250 0 250 0 246.212121 34.0909091 246.212121zM34.0909091 253.787879L34.0909091 257.575758 0 257.575758 0 253.787879 34.0909091 253.787879zM34.0909091 265.151515L34.0909091 261.363636 0 261.363636 0 265.151515 34.0909091 265.151515zM34.0909091 268.939394L34.0909091 272.727273 0 272.727273 0 268.939394 34.0909091 268.939394zM340.909091 481.062424L340.909091 477.272727 306.818182 477.272727 306.818182 481.062424 340.909091 481.062424zM340.909091 484.848485L340.909091 488.636364 306.818182 488.636364 306.818182 484.848485 340.909091 484.848485zM340.909091 492.424242L340.909091 496.212121 306.818182 496.212121 306.818182 492.424242 340.909091 492.424242zM340.909091 503.787879L340.909091 500 306.818182 500 306.818182 503.787879 340.909091 503.787879zM340.909091 507.575758L340.909091 511.363636 306.818182 511.363636 306.818182 507.575758 340.909091 507.575758zM238.636364 132.573879L238.636364 136.363636 204.545455 136.363636 204.545455 132.573879 238.636364 132.573879zM238.636364 121.208333L238.636364 117.418576 204.545455 117.418576 204.545455 121.208333 238.636364 121.208333zM238.636364 109.842818L238.636364 113.632576 204.545455 113.632576 204.545455 109.842818 238.636364 109.842818zM238.636364 102.272727L238.636364 106.062515 204.545455 106.062515 204.545455 102.272727 238.636364 102.272727zM238.636364 128.784091L238.636364 124.994303 204.545455 124.994303 204.545455 128.784091 238.636364 128.784091zM370.643906 409.090909L374.431818 409.090909C374.431818 427.918485 359.168554 443.181818 340.340909 443.181818L340.340909 439.393939C357.077604 439.393939 370.643906 425.827576 370.643906 409.090909zM363.068081 409.090909L366.855993 409.090909C366.855993 423.734848 354.984835 435.606061 340.340909 435.606061L340.340909 431.818182C352.892066 431.818182 363.068081 421.642121 363.068081 409.090909zM359.280472 409.090909L355.492559 409.090909C355.492559 417.458182 348.708347 424.242424 340.340909 424.242424L340.340909 428.030303C350.801116 428.030303 359.280472 419.551212 359.280472 409.090909zM347.916734 409.090909L351.704647 409.090909C351.704647 415.367273 346.617397 420.454545 340.340909 420.454545L340.340909 416.666667C344.524628 416.666667 347.916734 413.274545 347.916734 409.090909zM340.340909 409.090909L344.128822 409.090909C344.128822 411.183636 342.433678 412.878788 340.340909 412.878788L340.340909 409.090909zM140.151549 102.272727L136.363636 102.272727C136.363636 83.4451515 151.626901 68.1818182 170.454545 68.1818182L170.454545 71.969697C153.71785 71.969697 140.151549 85.5360606 140.151549 102.272727zM147.727374 102.272727L143.939461 102.272727C143.939461 87.6287879 155.81062 75.7575758 170.454545 75.7575758L170.454545 79.5454545C157.903389 79.5454545 147.727374 89.7215152 147.727374 102.272727zM151.515286 102.272727L155.303199 102.272727C155.303199 93.9051515 162.087108 87.1212121 170.454545 87.1212121L170.454545 83.3333333C159.994338 83.3333333 151.515286 91.8124242 151.515286 102.272727zM162.87872 102.272727L159.091111 102.272727C159.091111 95.9960606 164.178057 90.9090909 170.454545 90.9090909L170.454545 94.6969697C166.270827 94.6969697 162.87872 98.0890909 162.87872 102.272727zM170.454545 102.272727L166.666633 102.272727C166.666633 100.18 168.361776 98.4848485 170.454545 98.4848485L170.454545 102.272727z"/>
    <path fill-rule="nonzero" d="M102.272727,340.909091 L102.272727,375 L136.363636,375 C136.363636,356.172424 121.100372,340.909091 102.272727,340.909091 Z" transform="rotate(-180 119.318 357.955)"/>
    <path fill-rule="nonzero" d="M340.340909,545.454545 L374.431818,545.454545 L374.431818,511.363636 C355.604173,511.363636 340.340909,526.62697 340.340909,545.454545 Z"/>
    <path d="M140.153369 511.363636L136.363636 511.363636 136.363636 477.272727 140.153369 477.272727 140.153369 511.363636zM151.518926 511.363636L155.308658 511.363636 155.308658 477.272727 151.518926 477.272727 151.518926 511.363636zM162.884483 511.363636L159.094751 511.363636 159.094751 477.272727 162.884483 477.272727 162.884483 511.363636zM170.454545 511.363636L166.664813 511.363636 166.664813 477.272727 170.454545 477.272727 170.454545 511.363636zM143.943101 511.363636L147.732833 511.363636 147.732833 477.272727 143.943101 477.272727 143.943101 511.363636zM37.8806414 443.181818L34.0909091 443.181818 34.0909091 409.090909 37.8806414 409.090909 37.8806414 443.181818zM49.2461986 443.181818L53.0359309 443.181818 53.0359309 409.090909 49.2461986 409.090909 49.2461986 443.181818zM60.6117559 443.181818L56.8220236 443.181818 56.8220236 409.090909 60.6117559 409.090909 60.6117559 443.181818zM68.1818182 443.181818L64.3920859 443.181818 64.3920859 409.090909 68.1818182 409.090909 68.1818182 443.181818zM41.6703737 443.181818L45.460106 443.181818 45.460106 409.090909 41.6703737 409.090909 41.6703737 443.181818zM310.607914 272.727273L306.818182 272.727273 306.818182 238.636364 310.607914 238.636364 310.607914 272.727273zM321.973471 272.727273L325.763204 272.727273 325.763204 238.636364 321.973471 238.636364 321.973471 272.727273zM333.339029 272.727273L329.549296 272.727273 329.549296 238.636364 333.339029 238.636364 333.339029 272.727273zM340.909091 272.727273L337.119359 272.727273 337.119359 238.636364 340.909091 238.636364 340.909091 272.727273zM314.397646 272.727273L318.187379 272.727273 318.187379 238.636364 314.397646 238.636364 314.397646 272.727273z"/>
    <path fill-rule="nonzero" d="M343.579221,204.545455 L340.909091,204.545455 L340.909091,201.875 L372.329221,170.454545 L375,170.454545 L375,173.125 L343.579221,204.545455 Z M366.969481,170.454545 L361.60974,170.454545 L340.909091,191.15526 L340.909091,196.51513 L366.969481,170.454545 Z M356.25,170.454545 L350.89026,170.454545 L340.909091,180.435584 L340.909091,185.795455 L356.25,170.454545 Z M340.909091,170.454545 L340.909091,175.075753 L345.52987,170.454545 L340.909091,170.454545 Z M375,183.844675 L375,178.48487 L348.938961,204.545455 L354.299351,204.545455 L375,183.844675 Z M375,194.564351 L375,189.204545 L359.659091,204.545455 L365.018831,204.545455 L375,194.564351 Z M375,199.924221 L370.378571,204.545455 L375,204.545455 L375,199.924221 Z"/>
  </g>
</svg>
