<svg viewBox="0 0 400 320" xmlns="http://www.w3.org/2000/svg">
  <g fill="none" fill-rule="evenodd">
    <path d="M169.95246165 255.45149326l55.4412075 32.15911984c5.48337443 3.1806755 12.22385942 3.19729338 17.68621108.04360318l55.36404286-31.96444505c5.46235132-3.15369 8.81820205-8.99943003 8.80534365-15.33850943l-.13001116-64.09305394c-.01289177-6.3555092-3.40986747-12.2392437-8.907454-15.4281629l-55.4412074-32.15912003c-5.48337468-3.18067554-12.2238594-3.19729357-17.68621072-.04360357l-55.36404286 31.96444505c-5.46235166 3.1536902-8.81820265 8.99943038-8.805344 15.33850982l-6.74033467 64.00505043c.012892 6.35550906 10.28021335 12.3272473 15.77779972 15.5161666z" fill="#000"/>
    <path d="M212.33687176 235.3838458c-1.75384063-.27100074-3.39365406-.14692056-5.0849524.16398652-1.15393265.65297516-2.02525255.5644605-2.82797163-.02538507-.72415665-.5329971-1.25383434-1.42570641-2.3037042-1.60891008.07193598 1.78366984.56761903 1.689927.0112669 3.61864656-.1953019.67743561 1.99769935 2.12407242 2.3066825 2.56541972 1.2222846 1.74425137 2.7158111 1.99826119 4.34963946 2.99635325 1.17891651.7204227 2.57029337 7.5936755 2.75293223 9.7453161-1.61593634-2.73299335-5.81398298-10.39599987-8.94466963-10.48964934-.19666406-.00615205-.43787672-.14188067-.46726628-.34534846-.17738594-1.22804154-2.93029114-1.28957346-3.0980514-2.53857416-.58325394-4.34206716-.5271519-5.73924635-3.75303177-7.5734247-1.60429162-.91253801-1.47937462-2.5499588-3.39072315-2.81776303-.3201466-.04474083-1.4410371-1.75530434-1.95915136-1.35616851-1.09739975.84515572-1.12909782-.98065681-1.57600219-1.86049034-.97130258-1.91268418-3.47547192-.68219945-5.34258322-1.29481122-1.64271432-.53874073-11.16532602-8.45805524-12.33608852-9.78232511 1.79693343.760362 5.17997004 1.14371831 6.97023346 1.9103941 1.73380829.74203637 11.03504413 6.41506432 12.43422794 7.78194086-.63890676-.86738423-1.54258434-3.45130935-2.71103265-7.7517753l-7.89607962-7.57132132c-4.68358459-3.57117953-7.2390975-5.55440733-7.666537-5.9496824.26892144.0232684 3.63674315 1.06747409 10.10346511 3.1326173l8.31898637 8.50848953.9756893 7.41236737c.87794917 1.01714163 1.4071974 1.636905 1.58774476 1.85929001 1.20393562 1.48307614 1.16549073.39551423 3.22043708.49033994 3.31048993.15282284 1.70324408 3.23180132 4.46703243 4.49778609.34020648.15575968 3.02677288.46759499 3.0872921.95773662.34046222 2.75143593 1.98780544 3.92571097 3.72813947 4.98131662 1.9082216-.79952458 3.6553595-1.11664178 5.04407591.34362844zm-18.00355791-46.42864238c-.80864036.38332158-1.10721928-.33288636-1.65448556-.51366297-.84639647-.4557481-1.69280991-.91194502-2.53882637-1.36835153-.11274023.04946782-.22548047.09893563-.33822157.14840294-.56251969-.30589731-.9270115-.960525-1.68144341-.92732857-.3286323.27903183-.46079014.21106993-.3906004-.21454025-.15280772-.07856728-.3058393-.15770282-.45925102-.23617992-.68348014.75931633-.86934085.36846653-.96319187-.23480874-3.4776072-1.44466166-9.83456267-.1684518-13.45045178-1.36595414-1.56945608-.51943631-3.39055369-.81765874-4.4638272-2.28399247-.38410108-.52505543-.9139449.06663298-1.3382184.12936225-.39690093.05834256-.18015384.6504936-.2344527.98213199-.91815832 5.60206885.81262646 8.17291768-1.16854714 13.921027-1.16594711 3.38334965-.65131188 6.43777727-.79846625 9.61400213-.252502 5.4539743 1.83984567 9.2625998 2.3494501 14.17339306.2663735 2.56610157 4.1803098 2.13597822 3.50493666 5.08887501l-.02605734.44143385c-.08133606.10359058-.12857746.21457589-.14291535.33358505.37615548.4862322.05668318.82015064-.46671936 1.11050763-.09559878.21386475-.19180166.42781963-.28759045.64201347.0984679.1731646.07907728.28706195-.15896772.28920357-1.55732537 2.57976707-1.47133633 4.8946851-1.39194235 7.11537768.091747 2.56930534.93101556 4.64889674 1.35548985 7.00473911.18673592 1.0361303.68874242 1.92201893.09398376 3.39006255-.25098956.61925287.2124572.65551253.43211399.86353182 4.59653643 4.34541377 10.34788766 6.46594742 16.75840893 7.32812148 4.29083292.57678477 4.82549238 4.01905542 9.30053444 4.0688302.30854531-.28009495.4272731.06497287.67225177-.00558761l.03481266.0907655.09959409-.05442422c.1462615-.15915716.22005111-.15693551.19853718.05624892.1447396.16520485.34403424.150347.5863641-.0064546 1.01006892-.9798347 3.25697546-.521361 3.68409108.75143204.14976668.08383431.29951651.16721999.44926631.25060553.90168793-.5521335 1.3954144-.55589062.8287637.86824896.27135026.22030777.41914471.72919587.99703237.2354731 1.12315757-.88601318 1.45347814-.079935 1.84657034.59208294 1.81983167 1.31578869 3.9789023 2.01674967 6.00474183 2.94847345 2.37143776 1.09131312 6.18623896 11.31376382 8.87660893 11.78335315 2.66490154.46541933 5.55251721-.21739893 8.55324855-1.33659685.64335536-.23997578.91249786-.63587127 1.08757886-1.40999706 1.11528245-4.93434067.2982165-18.76859672.51260133-23.44091333.05315187-1.15571675-.2330401-2.2356615-1.1861136-2.3311964-.97707599-.09841974-1.41665429-.7520676-1.43427479-1.85691019-.0449643-2.78896894-1.0723435-4.24109538-3.27195246-4.5462915-1.85722836-.25763352-6.23719072-1.91853697-6.74026946-4.22714924 1.65167062.24605157 2.32779274 1.8070137 3.60876327 2.71951727.31621728-1.7447348.60752122-3.35023082.91582235-5.05257145 1.12819905.43805034.9427782 1.85537087.9300039 3.115161-.01704216 1.7098539 3.14256134 3.6559501 5.00776037 3.57231561.3858967-.01729227.39960996.45851505.45574595.87805366.13403915 1.00263338.41787645 1.89687176.9950198 2.48817136.45770725.46879459 1.05763409.36570722 1.4257283-.71834666 1.60136398-4.71690598.52591014-9.49076989.52328154-14.12948982-.45589644-.1473368-.50325318-.51133072-.04458354-1.14323363l-.1081471-.69229073c-1.78228142-1.56009523-3.02107516-3.80100313-4.57581196-5.6467006-.28238287-.33552993-.50526224-.74687454-.5575001-1.38493992 1.55667249 1.34995617 3.11315478 2.70024156 4.93716559 4.28223477.0144513-5.17312118.26715037-10.09632602-3.03098851-12.2471811-3.33117056-2.17299836-7.06265076-3.61105006-10.81860496-4.99476016-.37043018-.1361789-.66264324-.43173643-.99097472-.65421783.00057015-.00098753.06134428.08018719.06134428.08018719-.16000743.0739708-.32020482.14827081-.48000518.22236116-1.58887845 1.213184.3884339 2.75803254-1.11276067 4.19126442-1.93862506 1.8500361-3.97344647 5.02769277-6.04893983 5.08691531-2.06092815.05885327-4.28019893.86857722-6.43569885 1.399096-1.80201448.44316004-3.6406317 1.05919069-5.46898655 2.61736516-1.10897925.94511382-2.226649 2.298235-3.37809282 1.6628564-.12180475-.06725157-.47787018.15556104-.66785316.35268021-1.1333683 1.17331727-1.11663523.29723515-1.11130206-.56436038.00263086-.42906278.0123749-.86279715.04210736-1.30342587.35042827-5.12354978 2.11607314-11.98729759 5.43993526-16.75961826 2.56708592-3.68575024 5.41804241-7.11455654 8.14298207-10.65781607-.28450629-.53119786-.7870854-.7243605-1.26402725-.95714759-.08214655.1518428-.16389604.30347607-.24624948.45519942-.23604868.2802535-.36785657.25375227-.41477366-.02352036-.37705697-.20979337-.7547011-.41904793-1.13196506-.6289608-.94095213.6813311-1.21215452.54538162-1.06271146-.53235636-.83858616.04605884-1.30066044-.66710263-2.05833465-.7841336-.92549451.86011811-1.13051936.13866916-1.41295787-.41284198-.34615938-.19590498-.69190475-.39157082-1.03765022-.5872367-.19678967.18309411-.28982438.18600136-.20553454-.11822653-.14749713-.07198988-.29516738-.1432019-.4426645-.21519179-.12365069.22707667-.28340057.42584977-.44921904.34591559-.17199467-.0826221-.07879368-.32245075.04744273-.54540102-.15377123-.082635-.30757624-.16616732-.46115743-.2491315-.1147935.04872137-.22898294.09735248-.34358634.1457446-.2704104-.15787724-.54142495-.31566427-.81221554-.47288321z" fill="#C4C3C6"/>
    <path d="M180.59662016 173.92894721l47.91452521 27.44522689c3.83513945 2.19675077 9.64227024 2.41979954 12.97058972.4981934l48.51296777-28.008975c3.32831922-1.921606 2.91746062-5.26019398-.917679-7.45694465l-47.91452556-27.44522669c-3.83513875-2.19675117-9.64227006-2.41979965-12.97058928-.49819365l-48.51296742 28.0089748c-3.32831949 1.92160615-2.9174608 5.26019408.91767856 7.4569449z" fill="#FFF"/>
    <path d="M236.95066185 271.30325943l.13145863-55.18458917c.0105224-4.41704387 2.71073319-9.5518094 6.03109009-11.46881835l48.39690737-27.9419675c3.32035699-1.917009 6.00350898.10967058 5.99298624 4.52671465l-.13145855 55.18458912c-.01052158 4.41704409-2.7107328 9.55180906-6.03108979 11.46881806l-48.3969078 27.94196775c-3.320357 1.917009-6.00350829-.10967017-5.9929862-4.52671456z" fill="#C4C3C6"/>
    <g>
      <g fill-rule="nonzero">
        <path d="M260.129451 82.30356801l-4.83121317 3.031712-5.3818264 3.8561913.03878397 1.5473043-.03945074.36793575c-.59300853 5.53067043-3.6234105 10.2895639-8.37864708 13.15708212l-.549009.33106512-.21351045.06979233-.24791397 2.9027612c-.6744691 7.54489454-8.48140473 13.39037059-16.60027623 12.3809159l-7.32496728-.9107451 4.8155885-29.07412596 4.99460188-16.26683536 11.65076609-14.2545335 12.28712884 1.3593936 33.8991282 10.7662092-24.11918315 10.7358771z" fill="#000"/>
        <path d="M263.58424336 70.03809284l-15.59168292-4.37741693-7.54839571-.4387807-8.94086834 11.2289926-5.01814088 14.6857673-4.5291125 21.44370891c4.33966158.3154775 9.0897102-3.56574133 9.68607372-7.82519681l.84382971-6.19270128 2.8035757-1.10753266c3.16150469-2.1166359 5.28322836-5.44083502 5.87243272-9.20060236l.12386484-3.8738773 7.44213582-5.80363006 5.05075468-3.50240448 9.80553316-5.03632623z" fill="#C4C3C7"/>
        <path d="M225.09104708 95.71710442l.44255496 13.35720524c-.02881792 1.17813176-.90728243 2.19103167-2.05608703 2.3707395l-2.48156084.37472222 4.0950929-16.10266696z" fill="#FFF"/>
        <g>
          <path d="M247.45302729 86.42019652l-6.63207281 2.39532476-8.10483286 3.44919434-.71380638 2.33735786-.1461025.3276381c-2.57038206 5.76413594-7.4020646 10.18359156-13.3710637 12.23021832l-.5893382.20206993-.96182703.1132794-1.7011652 4.02898696c-3.28455112 7.70029943-13.35655364 12.21390518-21.33111968 9.46592911l-6.5075454-2.24245173 15.57568434-30.51594754 11.46686771-17.03501691 17.49050843-12.94452471 12.35252147 4.0565054 30.66039884 18.12177044-27.48710703 6.00966627z" fill="#000"/>
          <path d="M259.00039386 77.96175279l-16.95064184-9.92138397-8.75943996-2.81433364-14.2424755 10.57167698-10.75315827 15.85560498-12.40073051 24.00264258c5.01509685 1.69281432 11.89564126-1.4565918 14.0011189-6.31654642l3.03372055-7.07280571 3.67156684-.45841932c4.42592167-1.54391744 8.02282436-4.8331799 9.95538198-9.10390593l1.4212166-4.54726268 10.68882487-4.60617103 7.1105596-2.60963407 13.22405674-2.97946177z" fill="#C4C3C7"/>
          <path d="M204.79200321 97.80031116l-3.54600934 15.85588808c-.39281366 1.37635157-1.7376751 2.2807518-3.14771078 2.11679066l-3.04175045-.3700191 9.73547057-17.60265964z" fill="#FFF"/>
        </g>
        <path d="M280.21243884 36.30114346l80.16918814-1.84215206 12.9288533 64.44932548-44.1585756-5.87150917-11.97161772 4.31650459c-.92201216 1.49880354-2.04121408 2.84569292-3.3227468 3.99702614l-10.28050614 9.2437894-9.45620554 10.75790444c-1.27646233 1.45160005-2.69933785 2.74310195-4.24187285 3.84919926l-9.02567224 6.47730633-6.29383737 8.96029949-.06090004.08347086c-1.89943046 2.50722823-4.7520517 3.9692488-7.76626286 3.98157243l-.92942737.00394286c-3.17778559.01263992-5.90624457-2.40064181-6.48993686-5.74279467l-.17263893-.99455444c-1.51498058-8.68729197.73972554-17.64965044 6.12997486-24.36605126l8.64062625-10.76695283c1.92188142-2.85151005 2.34111017-6.55254108 1.11751573-9.7996532l-5.4983756-8.84559041c-12.21891142-2.12827796-22.6365626-2.6381717-31.25295255-1.52968121-8.61638985 1.1084906-20.64203457 4.50569336-36.07693388 10.19160842l-18.855088 10.3624953c-7.75630005 3.46457247-24.20641154-4.43175201-28.0668556-12.39799745-1.12590613-2.32332812-.24738672-5.1837572 1.9411646-6.35018447 33.9971752-20.9902484 58.76074012-34.76173106 74.2906948-41.31444819 10.76268892-4.5412145 26.99681875-6.82550637 48.70238827-6.85287564z" fill="#000"/>
      </g>
      <path d="M221.58930728 75.58429774l-16.16151445 8.45172102-18.72914117 10.7264309c-2.35194317 1.34663714-5.01564983 1.94437539-7.6744856 1.72252661-2.67092517-.22421672-10.50672982-5.59157734-12.44977118-7.55531757l-1.72052073-1.7391199 57.48343456-30.32822708 13.841788-6.32532987 45.58796595-7.13063147 73.89589893-2.8099405 2.64301355 43.48299987-12.80324735-.5477552-22.9232309-8.29630052-9.408552 18.24963354-20.07500063 20.6885576-16.04236841 13.36320474-9.64210422 11.90028905-2.81452087-4.66158074 1.2241717-8.51184935 16.47508756-24.98780444-2.37642582-12.81038924-8.09895831-9.6732908-15.84254054-4.61000918-15.57130269-.38108775-18.81767538 1.78327028z" fill="#C4C3C7"/>
      <path fill="#FFF" d="M224.55783075 56.88058786l.2877831.40777931-3.21495212 2.83594518-46.56497093 27.49540918-3.31036098-3.12924786M355.87792254 40.44507166l1.10820097 15.85677134-12.92490715-1.99722492-24.04513835 1.66757295-18.19055963 10.45048542-29.1131859-7.48098464-19.78459904-6.3132462-6.29882933-4.07600043 29.27544366-4.48022842 15.34262165-1.50236543z"/>
      <g>
        <path d="M144.32224399 159.98519424c-.9933902-.1017533-4.44987845 1.03606977-5.22027641 1.47381157-1.23661191.70339166-3.14081618.9936442-3.53062796 2.19958781-.35168482 1.08863018.6126668 2.60502116 1.0097346 3.92879976.49801091 1.6603084.97028806 3.3298504 1.5323876 4.96853924.26638497.7761465.15950203 1.14004417-.6855969 1.34755106-.81037798.19864383-1.57131407.5936666-2.36690426.86509064-1.21056508.41367962-2.11099735 1.08149786-2.96449514 2.1405884-2.8914946 3.58844115-6.55005516 6.42605412-9.92657234 9.53250504-6.2158915 5.71838427-17.0533016 14.230577-22.62291894 20.5951184-2.76509812 3.08403683-5.72220661 6.01907239-8.24691243 9.28887715-3.26829693 4.23415274-1.03691356 18.25583436-.9413367 18.7049024.1927631.9022775 16.84306458 2.85287877 19.11153554 2.80545842 2.71335793-.057171 43.55621511-33.16413296 46.97372905-34.97932975 1.5506797-.8240044 2.99104828-1.85744697 4.4409264-2.77016435-.40533752-1.62888681-.47298068-1.68841783.8019314-1.31692314 1.09883306.31962333 2.18020002.754034 3.20254146 1.26919963 2.93013885 1.47770865 5.58946183.88704455 8.0174868-1.07061524 1.41370036-1.14038516 4.98374938-5.01441954 6.01577566-4.46475317.53448124-3.75836825-.47645797-7.26587068-1.86460075-10.60368915-1.63274008-3.92512054-2.67653273-8.26796624-4.6006974-12.05418146-.53790915-1.05805143-2.3818257-5.05940627-4.8886283-6.40390023-2.61406778-1.40202438-17.79438802-4.89968564-23.24648098-5.45647303z" fill="#000"/>
        <path d="M145.3740006 163.24794235c.9022662 4.7148839 2.11157326 9.39994983 4.65583532 13.43513588 2.6016403 4.12570121 6.5933382 6.94819503 10.87731977 9.2007653 3.94292135 2.07242129 8.30527062 2.97427651 12.6065874 4.00619439.0049789-2.01202453-1.04351007-3.72171362-1.60458047-5.56118818-1.10359711-3.61526053-2.36324607-7.19183792-3.7730165-10.69490972-1.12429188-2.79342614-2.99073274-4.90720694-6.0678149-5.85547108-5.51530861-1.69988048-11.05596278-3.28468415-16.69433062-4.53052659zM174.43943846 194.53853178c-7.43614124-1.35263851-13.73389996-4.64048682-19.7273548-8.58002452-1.29423317-.8508928-1.95825367-.64473297-2.88018584.3576508-2.05967203 2.2388976-2.08640103 2.13192579.71867543 3.86175464 5.15737978 3.18103658 10.9699155 4.8477216 16.38020523 7.43815376.60117138.2880159.98549063.0083896 1.41830369-.29292068 1.25699233-.87583128 2.5330353-1.7273629 4.09035629-2.784614M143.51363631 163.97400162c-1.09154494 1.0813181-2.08480891 2.09621316-3.11467672 3.06878093-.36093713.34065945-.39827474.66740528-.25712476 1.05921156 1.45123025 4.02417806 2.09425028 8.3935089 4.1256254 12.16959659.28175165.52376862.59653213 1.02941664.92981515 1.5177551 1.58392833 2.32248807 2.38072728 2.4014266 4.68259714.61808126.40384149-.31308938.36455237-.54171542.1865175-.819655-3.37468404-5.27224617-4.40187768-11.6340852-6.55275371-17.61377044" fill="#C4C3C6"/>
        <path d="M137.19203045 180.01017217c-2.97615197 4.58213442-7.08757431 7.773925-10.83781953 11.31787046-2.9667744 2.80370078-5.99372184 5.54251095-8.98464897 8.3205423-5.16465275 4.79718657-10.35432643 9.56736506-15.4602345 14.42694245-1.36254695 1.29700135-2.46475383 2.87495826-3.6709669 4.3367554-.13629716.16501759-.22864098.41236078-.24259028.62624128-.19277542 2.86136202-.48418067 5.72231051-.31132133 8.58916876.02736353.45212918-.13181251 1.15416677.32916928 1.28087309.44937778.12335665.98098312-.21332982 1.419438-.60965914 2.02899421-1.83597627 4.09198143-3.63348335 6.16041343-5.42407805 11.75697898-10.17708415 24.74822408-18.6030801 37.5365347-27.31708786.39674426-.270082.77163842-.59255974 1.20066619-.79207863 1.02816349-.4783732 1.20174736-.9907765.55724458-2.02533274-2.5701983-4.12617694-5.04068319-8.3170574-7.69588467-12.73015732" fill="#FFF"/>
        <path d="M97.83485623 229.05032435c5.17543547.078764 8.37099623.82918123 13.27863327.92399533.54090535.01053304 9.52871468-6.49612717 9.84264474-6.84845318 6.72195745-7.53595223 15.2920646-12.59959783 23.74333674-17.83057398 3.65437971-2.26144953 7.24204964-4.63055871 11.06033326-7.07915315-3.08270496-1.31457239-6.07561788-2.40943734-8.8903673-3.85227932-2.00857569-1.02935588-3.3580804-.52871555-5.03850845.72131461-8.88681876 6.6142068-18.16255611 12.70171279-26.6923895 19.79980319-3.38325313 2.8152671-6.76211164 5.63467013-10.33176404 8.60970584l-6.97191872 5.55564066z" fill="#B1B2B7"/>
        <path d="M160.64620287 165.41655406c-1.15262252.70497613-2.22114145 1.38036405-3.31966366 2.10596782.66410875.92055642 1.95590678 2.12865148 3.77297032 3.41679554 4.74664978 3.36497292 11.65499165 6.30354625 16.95583643 7.24527508 22.66336398 4.02629297 38.51379495 9.04914337 47.72704953 14.96512004 10.47327941 6.72505803 12.93219252 15.50927082 5.76756496 21.83746279-2.79169736 2.46577998-6.40850044 3.18424069-11.1162433 3.23819191-2.27207474.0260391-3.65491614-.05311187-8.61430339-.41177909-1.57229773-.11370906-2.54631383-.17859973-3.53091111-.23146374-.38102215-.02045705-.74678093-.03780409-1.09774911-.05204233-2.04645524 2.18240252-5.34397278 3.72185713-9.38200686 4.63197404-4.38893528.9892036-9.77335518 1.32234916-16.50087432 1.2510611-2.8928756-.03065487-5.79131937-.13057589-9.54912132-.3070847-.79067154-.03713923-7.691327-1.32398814-8.4078073-1.35820132-1.07884966 1.1808074-17.01767872 3.91938632-22.9153752 2.38891458-2.65142496-.68805305-13.96646746-1.77792808-25.24739566-2.1620021-3.63170224-.12364505-9.2427664-1.24923805-16.8331922-3.37677701-29.6047415-7.43654123-47.99430343-11.3984913-55.16868588-11.88585019-5.08427049-.34537649-7.66683841-.66700154-10.7627496-1.64591974-5.14315696-1.62625247-8.87034371-4.6928543-10.51724201-8.86046626-1.15766092-2.81147422-2.21507254-8.89730192-4.05123061-21.14351834-.41161333-2.74524615-.8337606-5.64113368-1.28888494-8.82493818-.10837007-.75809857-1.45609383-10.30278652-1.55507857-10.90167828-.5511002-3.334346-.29786448-5.93143318 1.47028634-8.23091895 2.54941407-3.31552118 7.15109516-4.43428232 12.01822028-3.83314468 2.37756237.29365227 4.53599668.89722632 7.7218596 1.9859937.13449023.04596198 5.29009215 1.8601873 6.8926475 2.38695496 6.16318649 2.02586905 11.1708408 3.04818053 16.24681221 3.0655511.02817512.00009642.05627893.0002373.08431235.0004227.83185074-.31738663 1.7603736-.66372407 2.8397129-1.05745644 3.18770325-1.16284296 7.34486188-2.61273416 12.74861478-4.43056713 15.7605887-5.30189286 23.20757931-6.45454365 32.27470283-5.6679729.20744252.01799562.41925183.03687711.67525547.06007798.13102923.01187482.32313676.02939513.63300828.05763457 2.2401606.20356892 3.38827869.26554481 4.96916672.2340886 7.79722993-.15514766 14.15529945-1.71082738 21.450859-4.73711868 1.58291302-.65661232 6.64019551-2.89661153 6.86875076-2.99492818.8319802-.35788932 1.6413792-.73101472 2.43625156-1.12133646 2.87042161-1.40951902 10.15170668-5.89960293 10.53557957-6.10433313 6.28382454-3.35133874 13.56696207-3.39748608 19.60678956 1.84649648 7.6585599 6.64941946 7.31567133 17.3929567-.5498754 27.50220352-2.20414421 2.832892-4.09079176 4.80990605-6.218575 6.50312977-.8898921.7081489-1.80799195 1.35717539-2.86756774 2.0410858-.5977891.3858471-1.20262585.75982373-2.06421094 1.28119454-.22812308.13804393-1.051748.63478168-1.04691324.6318624-.42417733.25608922-.75706533.45804378-1.09059359.66203881z" fill="#000" fill-rule="nonzero"/>
        <path d="M198.04248843 103.69616063c-1.42510298-.14633323-6.38311092 1.48394162-7.48809804 2.11137106-1.77368058 1.00819469-4.50522271 1.42364444-5.06392357 3.1528819-.50405485 1.56101861.87997875 3.7360197 1.45013925 5.63456695.71510732 2.3811942 1.39330253 4.77561923 2.20033906 7.12583616.38246287 1.11315387.22928594 1.6349617-.98295854 1.93218873-1.16243943.28453136-2.25387082.85070298-3.39506635 1.23961182-1.73643557.59274002-3.02786694 1.55005976-4.25180628 3.0685081-4.1464826 5.14485092-9.39366602 9.2126482-14.23613442 13.66609332-8.9145878 8.19794358-24.45778184 20.40046597-32.44499348 29.52530855-3.9653709 4.42155568-8.20625066 8.62935387-11.82669133 13.31741226-4.68675357 6.07068591-1.47991541 26.1795915-1.34261983 26.82362317.2769015 1.29400333 24.16328251 4.0982034 27.41748132 4.03114233 3.8924044-.08085998 62.46948376-47.54137759 67.37130012-50.14306538 2.22417414-1.1810304 4.29001536-2.66245437 6.36954873-3.97074661-.5821506-2.3360952-.6792122-2.42149456 1.149858-1.88821828 1.57645589.4588165 3.12790353 1.08223796 4.59470994 1.82144273 4.20402339 2.1203446 8.01869086 1.27439925 11.50098371-1.5320005 2.02754012-1.63479736 7.14731948-7.18892521 8.62803367-6.40024027.76517547-5.3895161-.68651681-10.4199164-2.67925328-15.20713582-2.34386555-5.62954938-3.84303454-11.85789854-6.60490353-17.2883699-.7720932-1.51753618-3.41893215-7.25649801-7.01560625-9.18562854-3.75057445-2.0116773-25.52884662-7.0338492-33.3503389-7.83458178z" fill="#000"/>
        <path d="M199.55263347 108.3755847c1.29629753 6.76181661 3.03304596 13.4809999 6.6845748 19.26876882 3.73387782 5.9175971 9.46131146 9.96688964 15.60780205 13.19899725 5.65715037 2.97362073 11.91550173 4.2687498 18.08635352 5.75037157.00630683-2.88536834-1.49850561-5.33760613-2.30414898-7.9757621-1.5846587-5.18497081-3.39316438-10.31453228-5.41699533-15.33874445-1.61400504-4.00641688-4.2923722-7.03848745-8.70697221-8.39963615-7.91265238-2.44002667-15.8616163-4.71503648-23.95061385-6.50399494zM241.26124396 153.26034129c-10.66802487-1.94285738-19.703795-6.66045543-28.30329881-12.31249091-1.85698628-1.22077162-2.80946645-.92540117-4.13160143.51169779-2.953758 3.20986554-2.9921463 3.05645 1.03257448 5.53829913 7.39980329 4.56394954 15.73882693 6.95649531 23.50119507 10.6735859.86252575.41328265 1.41373204.01244042 2.0344958-.41947789 1.80284559-1.25547541 3.6330303-2.47609577 5.8666349-3.99161402M196.8841627 109.41602706c-1.56541895 1.55022534-2.98987709 3.00523662-4.46686267 4.39953268-.51763841.48837723-.57106518.9569359-.36841676 1.51886955 2.08352321 5.77152874 3.00777757 12.03769282 5.92344042 17.45368524.40440239.75123431.85617835 1.47649639 1.33448998 2.17694295 2.27317758 3.33125273 3.41625248 3.44478652 6.71764284.8883123.57919791-.44882222.52274112-.77670278.26722695-1.17535966-4.84331831-7.5621362-6.3195137-16.68584258-9.40752076-25.26198306" fill="#C4C3C6"/>
        <path d="M187.82220801 132.41028539c-4.26751462 6.56983474-10.16420054 11.14535715-15.54261623 16.22604178-4.2548005 4.01945224-8.59594888 7.9458224-12.8854082 11.92845309-7.40692344 6.87732432-14.84975166 13.71590696-22.17237742 20.68272802-1.95409311 1.85941594-3.5346009 4.12184854-5.26435808 6.21765705-.19545564.23658911-.32782446.59125722-.34774604.89796902-.27535635 4.10329398-.69220165 8.20595463-.44303694 12.31728248.03944202.64839323-.18861152 1.65509375.47273953 1.83698972.64470295.17708773 1.40717383-.30552116 2.03599112-.87370006 2.90991656-2.63206334 5.8686137-5.20894551 8.8351243-7.7759126 16.86166378-14.58970055 35.49466216-26.66771704 53.8364226-39.15884482.56903452-.3871499 1.10670237-.84944773 1.72207828-1.13539228 1.47474583-.6855905 1.72354652-1.42033714.79855007-2.90422389-3.68877322-5.91826636-7.23453003-11.92928022-11.04536299-18.25904751" fill="#FFF"/>
        <path d="M131.38302166 202.72062289c7.42441659.11510204 12.0088969 1.19257523 19.04915203 1.33058223.77595617.0153299 13.66665166-9.31190024 14.11685129-9.81702767 9.63980637-10.80424082 21.93188922-18.06227003 34.05342876-25.5603112 5.24142508-3.24154412 10.3871075-6.63750673 15.86358192-10.14736046-4.42281822-1.88646014-8.71673463-3.45780874-12.75521249-5.5281045-2.88181528-1.47699553-4.8175298-.75960602-7.2276566 1.03231844-12.7457755 9.48150056-26.04968994 18.2075173-38.2831535 28.38308593-4.85225216 4.03586569-9.69819867 8.07766485-14.81778242 12.34257221l-9.999209 7.96424502z" fill="#B1B2B7"/>
        <path d="M199.94131717 212.75926536c-1.21827254 6.81104035-22.04612534 3.5128343-34.3248397 1.84384253.49971417-.6321912 1.17216924-1.3248841 2.01736704-2.07807995-1.51981418.19596133-2.65171084.58754476-3.39568998 1.17475029-.3893823.30733046-.7312429.4909462-1.06487625.5808166-.51096784-.0645896-.999001-.12383711-1.46123616-.17654637-.14782217-.01956251-.29840693-.0400354-.4517544-.06141967-.04078605-.01412717-.08212903-.02862442-.12406378-.04346668-.00696268-.00246396-.00918876.00636376-.00701019.02506254-3.88440464-.54914258-9.50563617-1.67094769-16.86369347-3.36541447-6.87825609-1.28909516-11.8647437-2.52112525-14.9594638-3.69609013-4.64207953-1.7624464 21.5816875 7.91808186 28.61065137 9.34798084-3.01782242 2.26614063-10.2618297.86125634-19.48231049-.06094556-4.77826077-1.08867352-22.05903457-4.94786604-25.24204716-6.56235642 1.84714683 1.24932923 7.49509 2.99276648 9.63471082 4.24200128 1.02769952.60003134-2.13350392 1.73576066-6.76745453 1.24984908-11.14695031-1.16886063-21.08224296-4.09741766-29.29658273-9.47951573-20.67233592-13.54467172-52.16062155-1.17073102-55.62540029-9.99777117-1.58780468-2.86862324-6.60508406-36.7664872-6.53194503-39.89418916.13151498-5.62407597-5.23471205.31347826 22.5045389 7.2292813l21.56483483.38791937c5.79716388-4.95105672 8.43469104-6.31597837 14.72125203-8.65290042 10.92018055-4.05939141 27.15899014-4.49877152 32.85247353-4.61711406 15.4738316-.32163304 25.33479061-5.54839133 32.57285436-8.68303868 12.38700278-5.36454012 14.18949562-13.89439167 18.82308482-9.85135156 3.64678219 3.18200103 4.78947452 10.32984583-1.994253 19.0918354-5.57279107 7.19792069-7.51755835 6.55851594-17.12444619 13.25448471-1.69331989 2.01643408-1.3319368 4.44233488.38721563 6.94417433 4.37048104 6.36025073 17.51613377 13.2112883 27.9861571 15.07316231 45.73090817 8.13228353 53.86181736 18.99283583 47.25311991 24.86218081-.59147236.52530124-1.63794683.80237884-3.00008675.92295047a21.70968259 21.70968259 0 0 1-.0581079-.00163385c-3.01216071-.0887641-6.19309363-1.08778116-10.34777356-1.65193377-7.08431384-.96195879-19.1950454-2.75549328-30.4577886-4.97021692.25329362-1.26235178.92831474-2.75856864 2.0250615-4.48864932-2.03807434.5472469-3.4191278 1.30466958-4.1431605 2.27226705-.80865617 1.08068736-1.62537075 1.32079578-2.82742984 1.20249174-5.01920277-1.0751735-9.67222374-2.22699156-13.38248087-3.41517488-3.99896638-1.28064056-10.02624088-2.02222412-18.08182549-2.2247504 7.4014151 3.18221723 12.0080804 4.45518982 20.2442492 6.36658625 8.23616879 1.91139642 22.85314818 5.4537904 35.81814962 7.90092227z" fill="#C4C3C6"/>
        <path d="M144.66488722 135.33968222c-.52897946-3.21269467 3.55382628-5.90849532 9.11920175-6.02124004 5.56537547-.11274472 9.3414817 1.16187462 9.87046125 4.37456926.52897946 3.21269467-6.81455504 10.09210946-12.39514502 6.70473692-5.58058986-3.38737154-6.0655382-1.84537052-6.59451798-5.05806614z" fill="#000"/>
        <path d="M151.8401535 138.17043833c.7495753-.86915514 4.22935017-2.8938397 10.4393244-6.07405466 1.01621778.21043415 1.6510823 1.08548624 1.90459325 2.6251553.38026646 2.30950307-4.87364215 7.25438332-8.87046147 4.81900956-3.99681963-2.4353747-4.59781943-.06637896-3.47345619-1.3701102z" fill="#FFF"/>
        <path d="M200.67036392 208.66792978c1.65588113.60209546 7.5892823 1.3501225 17.80020347 2.24408111 1.75604811-.99171035 2.11424764-2.31938184 1.07459761-3.98301426-1.55947527-2.4954496-12.1650255-5.54741867-14.82656746-1.5583412-2.66154196 3.98907746-6.53205484 2.39413104-4.04823362 3.29727435z" fill="#000"/>
        <path d="M205.63237752 209.05111935c.38263703.40261232 5.11542922 1.13280245 14.19837659 2.19057039.82302969-.94567909.78385229-2.139709-.11753123-3.58208996-1.35207528-2.16357144-9.64809801-5.07372543-11.42290667-1.77165346-1.77480964 3.3020722-3.23189521 2.55925476-2.6579387 3.16317303zM27.19626089 176.20442553c-.9555401-5.74235987-1.91059448-11.95514044-2.73410656-17.6691549 13.09295998 2.10287408 27.28971335 3.91180578 44.394449 5.0827781-4.27830102 5.10990699-6.08050279 9.4995084-8.88295756 11.07517298-14.53863371-.31705573-19.83846006 2.79347632-32.77738488 1.51120382zM178.41644864 187.31350063c28.6692353 5.08388666 41.89247348 11.29196519 45.8234402 16.54728982-6.73282448 2.3817814-15.8680782-3.54794975-29.32409645-6.63114037-12.6785422-2.90504769-22.32748851-6.641211-28.94683994-11.20848977-3.06988057-2.60047888-4.30895072-4.1377846-3.71720932-4.6119163 5.05265074 2.76682548 10.95448676 4.98033336 16.16470551 5.90425662zM149.75883052 157.25647723c5.68616564-2.1447013 11.04662513-8.27540566 16.08137742-18.39211325 1.3077692-.84721059 3.69899935-2.7523714 4.32468751.54618274.62568816 3.29855414-5.37074247 17.97527836-18.05428098 22.35046153-2.30505038.79512642-4.24095205 3.14554033-5.39392903 6.24084904-.59680574-.62909187-.88565767-2.21914656-.71705529-5.24201835 2.5270001-.5836509 2.24878587-2.70421625 3.75920037-5.50336171zM164.27697762 204.75890009c16.06597488 4.18881168 25.40465741 6.51429068 28.01604564 6.97643726-3.86419863 1.40268837-11.3664896 1.04702922-19.12069431-.79211449-10.95926121-2.59932003-32.50918438-9.17607796-31.49574813-12.85598765.1501992-.54538938 11.79983177 3.02948355 12.3076769 2.60945851 1.94538852 1.09534911 5.37629595 2.4494188 10.2927199 4.06220637z" fill="#FFF"/>
        <path d="M166.95878622 180.73081883c-4.72324432.98831578-14.39318834-5.3586348-23.46264522-7.80335684-7.99186514-2.15425147-16.71767719-4.96651218-13.27640346-5.73633417 2.41189689-.5395477 10.09110966-3.52333407 16.1037588-4.3444881 6.01265011-.82115418 7.974906-2.0012576 10.36672507-3.1787549 2.68304575-.6196921-3.4207916 6.93811735-1.24736228 9.12826512 5.68836716 5.73212323 16.53803356 10.88381694 11.51592709 11.9346689zM35.92745006 160.78387012c-8.44482656-1.31411566-9.64090452 2.22672054-10.57374106 6.293976-.09197493.40101915-6.94328577-8.7326966-5.96580239-13.01390193 1.17769601-5.15810146 3.7146329-7.27512528 8.308252-3.93685847 8.40630604 6.10901587 26.7370048 10.72667209 26.58096289 11.63684803-.15604198.91017606-9.90484485.33405213-18.34967144-.98006363z" fill="#000"/>
      </g>
    </g>
  </g>
</svg>
