<svg xmlns="http://www.w3.org/2000/svg" viewBox="0 0 689.71 534.45">
    <defs>
        <pattern id="lines" data-name="lines" width="16" height="16" patternTransform="translate(0 480)" patternUnits="userSpaceOnUse">
            <path class="cls-1" d="M0 0h16v16H0z"/>
            <path class="cls-2" d="M1.98 78.02l66-66M-14.02 78.02l66-66M-30.02 78.02l66-66M-46.02 78.02l66-66M-62.02 78.02l66-66M1.98 62.02l66-66M-14.02 62.02l66-66M-30.02 62.02l66-66M-46.02 62.02l66-66M-62.02 62.02l66-66M1.98 46.02l66-66M-14.02 46.02l66-66M-30.02 46.02l66-66M-46.02 46.02l66-66M-62.02 46.02l66-66M1.98 30.02l66-66M-14.02 30.02l66-66M-30.02 30.02l66-66M-46.02 30.02l66-66M-62.02 30.02l66-66M1.98 14.02l66-66M-14.02 14.02l66-66M-30.02 14.02l66-66M-46.02 14.02l66-66M-62.02 14.02l66-66"/>
        </pattern>
        <pattern id="lines-9" data-name="lines" width="16" height="16" patternTransform="translate(0 336)" patternUnits="userSpaceOnUse">
            <path class="cls-1" d="M0 0h16v16H0z"/>
            <path class="cls-2" d="M1.98 78.02l66-66M-14.02 78.02l66-66M-30.02 78.02l66-66M-46.02 78.02l66-66M-62.02 78.02l66-66M1.98 62.02l66-66M-14.02 62.02l66-66M-30.02 62.02l66-66M-46.02 62.02l66-66M-62.02 62.02l66-66M1.98 46.02l66-66M-14.02 46.02l66-66M-30.02 46.02l66-66M-46.02 46.02l66-66M-62.02 46.02l66-66M1.98 30.02l66-66M-14.02 30.02l66-66M-30.02 30.02l66-66M-46.02 30.02l66-66M-62.02 30.02l66-66M1.98 14.02l66-66M-14.02 14.02l66-66M-30.02 14.02l66-66M-46.02 14.02l66-66M-62.02 14.02l66-66"/>
        </pattern>
        <style>
            .cls-1,.cls-2,.cls-3,.cls-5{fill:none}.cls-2,.cls-3,.cls-4,.cls-5,.cls-6{stroke:currentColor}.cls-2,.cls-3{stroke-linecap:square}.cls-2,.cls-3,.cls-5,.cls-6{stroke-miterlimit:10}.cls-2{stroke-width:2px}.cls-3,.cls-4,.cls-5,.cls-6{stroke-width:12px}.cls-4{stroke-linejoin:bevel;fill:url(#lines)}.cls-6{fill:#fff}
        </style>
    </defs>
    <g id="Layer_2" data-name="Layer 2">
        <g id="Layer_33" data-name="Layer 33">
            <path class="cls-3" d="M6 379.76v148.69h202.76V379.76"/>
            <path class="cls-4" d="M6 379.76h202.76"/>
            <path class="cls-3" d="M208.76 231.07l-37.16-29.81-131.22-.08L6 231.07v148.69h202.76V231.07z"/>
            <path class="cls-4" d="M6 231.07h202.76l-37.16-29.81-131.22-.08L6 231.07z"/>
            <path class="cls-3" d="M411.52 379.76l-37.16-29.81-165.6-.08V528.45h202.76V379.76z"/>
            <path class="cls-4" d="M208.76 379.76h202.76l-37.16-29.81-165.6-.08v29.89z"/>
            <circle class="cls-5" cx="105.74" cy="308.72" r="14.74"/>
            <path class="cls-5" d="M460.85 131.21l18.82-32.93M442 99.65L474.26 76"/>
            <path class="cls-6" d="M409 85.32l36.26-24.16"/>
            <path class="cls-3" d="M450.34 181.47l11.94-54.35-29.56-37.36-127.89-29.41-40.18 21.46-33.23 144.93 197.63 45.31 4.93-21.48"/>
            <path class="cls-4" d="M264.65 81.81l197.63 45.31-29.56-37.36-127.89-29.41-40.18 21.46z"/>
            <path class="cls-5" d="M685.89 155.15L552.39 44.82c-16.14-11.14-16.14-11.14-41.77-17L431.83 6.24l-87 26.33a20.2 20.2 0 0014.82 37.58l65-18 48.8 27.24 12 50.52c3.17 26.78-5.27 46.22-31.27 54.77l-49.27 15.18c-27.69 9.51-26.35 31.58-18.26 46.26a43.67 43.67 0 004.11 5.81s28.73-7.06 35-8.43l72.32.44s46.39 25.48 94.36-8.84"/>
            <path class="cls-6" d="M575.2 245.15l27.18 19.64"/>
            <path class="cls-3" d="M510.31 134.81c2.61 21.13-13.44 35.1-31.69 41.81l-32.76 10.43"/>
            <path d="M593.1 232.76c-9.79 10.19-12.38 7-21.39 7.58L599.47 265l50.31-59.08" fill="url(#lines-9)"/>
            <circle class="cls-5" cx="345.57" cy="179.24" r="14.74"/>
            <circle class="cls-5" cx="105.74" cy="453.9" r="14.74"/>
            <circle class="cls-5" cx="310.14" cy="453.9" r="14.74"/>
            <path class="cls-5" d="M105.74 323.46v115.7M120.48 453.9H295.4"/>
        </g>
    </g>
</svg>
