<svg width="24" height="24" viewBox="0 0 24 24" fill="none" xmlns="http://www.w3.org/2000/svg">
<g clip-path="url(#clip0)">
<path d="M12 24C18.6274 24 24 18.6274 24 12C24 5.37258 18.6274 0 12 0C5.37258 0 0 5.37258 0 12C0 18.6274 5.37258 24 12 24Z" fill="#F0F0F0"/>
<path d="M23.9999 12C23.9999 7.24242 21.2312 3.13167 17.2173 1.19067V22.8092C21.2312 20.8682 23.9999 16.7575 23.9999 12Z" fill="#D80027"/>
<path d="M0 12C0 16.7575 2.76867 20.8682 6.78263 22.8092V1.19067C2.76867 3.13167 0 7.24242 0 12Z" fill="#D80027"/>
<path d="M14.087 13.5652L16.174 12.5217L15.1305 11.9999V10.9565L13.0435 11.9999L14.087 9.91298H13.0435L12.0001 8.34778L10.9566 9.91298H9.91309L10.9566 11.9999L8.86961 10.9565V11.9999L7.82617 12.5217L9.91309 13.5652L9.39138 14.6086H11.4783V16.1738H12.5218V14.6086H14.6088L14.087 13.5652Z" fill="#D80027"/>
</g>
<defs>
<clipPath id="clip0">
<rect width="24" height="24" fill="white"/>
</clipPath>
</defs>
</svg>
