<svg width="600" height="271" viewBox="0 0 600 271" fill="none" xmlns="http://www.w3.org/2000/svg">
<path d="M371.642 259.65L509.017 236.641C535.597 230.562 551.95 224.15 560.598 220.312C563.848 218.933 567.016 217.196 570.072 215.117C582.747 206.448 590.763 193.593 595.337 184.686L595.573 117.538C594.142 93.5577 505.859 74.0078 385.038 68.3151C384.948 67.0236 384.864 65.7396 384.775 64.4482H378.985V52.5728L371.09 45.8929L359.51 49.6039L351.089 57.026V67.1053C336.936 66.7564 322.435 66.6006 307.666 66.6377C307.578 60.7 307.491 54.7623 307.403 48.8246L301.087 47.3402C300.911 41.4025 300.736 35.4648 300.56 29.5271C300.213 28.7849 299.86 28.0427 299.508 27.3005C298.806 24.3317 298.104 21.3628 297.402 18.394C297.439 16.875 297.26 15.3611 296.876 13.9407C296.676 13.1985 295.218 7.85459 292.665 8.00303C291.086 8.09952 289.592 10.2297 288.981 13.1985L287.402 22.8472C287.055 23.3445 286.702 23.8418 286.349 24.3317L283.191 31.7538C283.37 36.7018 283.546 41.6499 283.718 46.598L276.875 48.8246V67.0014C124.147 70.2448 3.8948 94.285 4.00007 122.511C4.00936 123.445 4.14143 124.369 4.38956 125.235L6.36333 168.358C6.49153 173.493 7.78273 178.435 10.0477 182.46C11.9774 185.836 14.5258 188.403 17.4164 189.882C17.5954 196.314 17.7708 202.747 17.9428 209.179C30.2167 217.136 42.8817 223.833 55.8392 229.219C67.24 233.963 78.8427 237.681 90.5776 240.352C120.053 248.516 219.531 270.04 371.642 259.65Z" fill="black" stroke="black" stroke-width="16" stroke-miterlimit="10"/>
<path d="M334.172 66.4076C325.295 66.2888 316.294 66.2418 307.171 66.2665V69.8885C315.529 69.8588 323.775 69.9009 331.909 70.0147L334.172 66.4076Z" fill="white"/>
<path d="M334.015 70.0444C338.278 70.1087 342.51 70.1904 346.71 70.2893L351.384 69.2725V66.7341C346.387 66.6154 341.347 66.5164 336.262 66.4373C335.509 67.6471 334.757 68.842 334.015 70.0444Z" fill="white"/>
<path d="M36.1074 118.941C36.1074 115.549 38.1022 112.261 41.8971 109.018L40.1023 108.81C36.1513 108.281 32.1879 107.749 28.2123 107.214C24.8017 106.754 21.3927 106.284 17.9856 105.804C9.0378 111 4.22706 116.485 4.24812 122.133C4.24812 128.152 9.76415 133.897 19.8751 139.204C26.8017 137.254 33.7319 135.31 40.6655 133.37L46.3342 131.804C39.6865 127.766 36.1074 123.439 36.1074 118.941Z" fill="#C4C3C6"/>
<path d="M69.0238 88.147C48.644 92.912 32.3801 98.2707 21.248 104.03L31.2011 105.389L41.8016 106.799C42.6806 106.917 43.5648 106.992 44.4333 107.081C51.3073 102.294 62.2341 97.7586 76.5136 93.6171C74.0363 91.7615 71.5397 89.9382 69.0238 88.147Z" fill="#C4C3C6"/>
<path d="M239.895 71.6254C252.337 71.0118 265.092 70.5566 278.16 70.2597C278.16 69.0425 278.107 67.8253 278.075 66.6155C264.741 66.8926 251.676 67.3255 238.879 67.9143C239.221 69.1464 239.563 70.3859 239.895 71.6254Z" fill="#C4C3C6"/>
<path d="M237.205 67.9885C229.099 68.3695 221.123 68.805 213.277 69.2948C213.614 70.5788 213.967 71.8554 214.33 73.132C222.141 72.5878 230.11 72.1127 238.236 71.707C237.892 70.47 237.549 69.2305 237.205 67.9885Z" fill="#C4C3C6"/>
<path d="M211.609 69.3987C201.514 70.0469 191.661 70.7891 182.05 71.6253C182.952 72.9168 183.841 74.2206 184.718 75.5368C193.75 74.6906 203.049 73.9286 212.614 73.2508C212.281 71.9692 211.946 70.6852 211.609 69.3987Z" fill="#C4C3C6"/>
<path d="M179.976 71.796C167.244 72.9168 154.985 74.1934 143.274 75.611L146.164 79.9232C157.68 78.3646 169.891 76.9544 182.687 75.7223C181.792 74.4012 180.888 73.0924 179.976 71.796Z" fill="#C4C3C6"/>
<path d="M141.28 75.8485C132.097 76.9767 123.27 78.1914 114.8 79.4928C116 81.0663 117.205 82.6472 118.41 84.2132C126.532 82.7808 135.143 81.4374 144.201 80.1904L141.28 75.8485Z" fill="#C4C3C6"/>
<path d="M115.8 83.8422L112.726 79.812C97.7414 82.15 83.9777 84.7329 71.6719 87.5384C74.1281 89.3049 76.5616 91.1011 78.9722 92.9269C89.7411 89.9135 102.305 87.1154 116.384 84.5844L115.8 83.8422Z" fill="#C4C3C6"/>
<path d="M37.186 136.628C32.3822 137.989 27.5768 139.34 22.7695 140.681C37.386 147.687 60.108 153.929 88.8935 159.036L109.452 150.827C82.3248 146.002 61.4449 140.05 49.0181 133.362C45.0705 134.426 41.1265 135.515 37.186 136.628Z" fill="#C4C3C6"/>
<path d="M406.986 69.1315C399.639 68.6713 392.158 68.2631 384.543 67.9069V69.2725L381.312 71.5511C389.473 71.9618 397.454 72.4368 405.255 72.9762C405.823 71.6921 406.407 70.3858 406.986 69.1315Z" fill="#C4C3C6"/>
<path d="M442.741 71.8703C431.824 70.8806 420.506 69.9949 408.786 69.2131C408.202 70.4972 407.628 71.7886 407.055 73.0726C418.715 73.9138 429.896 74.896 440.598 76.0192C441.304 74.6313 442.014 73.2582 442.741 71.8703Z" fill="#C4C3C6"/>
<path d="M483.174 76.472C471.068 74.8243 458.173 73.3547 444.63 72.0781C443.9 73.424 443.17 74.802 442.44 76.2122C455.973 77.6447 468.657 79.2998 480.337 81.148C481.295 79.5819 482.226 78.0158 483.174 76.472Z" fill="#C4C3C6"/>
<path d="M527.007 83.8718C514.427 81.2369 500.379 78.847 485.084 76.7317C484.122 78.2903 483.173 79.8638 482.236 81.4521C497.126 83.8495 510.369 86.566 521.654 89.5497C523.45 87.6595 525.235 85.7669 527.007 83.8718Z" fill="#C4C3C6"/>
<path d="M573.799 97.5655C562.624 92.7189 547.513 88.2656 529.17 84.3319C527.37 86.2765 525.563 88.2038 523.749 90.1137C539.908 94.567 551.813 99.5027 558.487 104.869C563.607 102.533 568.711 100.099 573.799 97.5655Z" fill="#C4C3C6"/>
<path d="M503.117 157.432C522.639 153.944 539.655 150.01 553.593 145.705C549.322 144.008 545.066 142.259 540.824 140.458C538.368 139.414 535.901 138.343 533.423 137.244C522.265 141.037 508.385 144.555 492.264 147.709C495.892 150.96 499.51 154.201 503.117 157.432Z" fill="#C4C3C6"/>
<path d="M451.42 164.899C469.115 162.858 485.632 160.498 500.669 157.863C498.915 156.289 497.148 154.708 495.369 153.12L489.869 148.17C476.368 150.745 461.357 153.061 445.099 155.087C447.186 158.397 449.294 161.668 451.42 164.899Z" fill="#C4C3C6"/>
<path d="M409.249 168.981C423.197 167.868 436.619 166.584 449.43 165.122C447.325 161.895 445.233 158.627 443.156 155.317C430.666 156.846 417.45 158.197 403.628 159.347C405.519 162.539 407.393 165.75 409.249 168.981Z" fill="#C4C3C6"/>
<path d="M361.015 171.965C376.958 171.223 392.427 170.287 407.333 169.13C405.47 165.908 403.593 162.692 401.701 159.481C387.569 160.639 372.816 161.581 357.573 162.294C358.735 165.515 359.882 168.739 361.015 171.965Z" fill="#C4C3C6"/>
<path d="M310.014 168.12C310.147 169.892 310.275 171.666 310.398 173.442C327.088 173.219 343.426 172.744 359.295 172.039C358.158 168.808 356.998 165.592 355.816 162.39C340.873 163.073 325.457 163.533 309.688 163.749C309.8 165.208 309.909 166.665 310.014 168.12Z" fill="#C4C3C6"/>
<path d="M308.098 163.786C305.571 163.815 303.033 163.84 300.482 163.86C289.604 163.949 278.902 163.917 268.375 163.763C268.517 167.007 268.654 170.243 268.801 173.486C279.139 173.605 289.623 173.627 300.255 173.553C303.112 173.553 305.961 173.523 308.803 173.464C308.579 170.238 308.343 167.012 308.098 163.786Z" fill="#C4C3C6"/>
<path d="M234.163 162.962C234.114 166.208 234.06 169.454 234 172.699C244.878 173.066 255.954 173.313 267.228 173.442C267.08 170.198 266.944 166.955 266.801 163.711C255.696 163.548 244.818 163.261 234.168 162.85L234.163 162.962Z" fill="#C4C3C6"/>
<path d="M232.594 162.821C218.204 162.257 204.298 161.477 190.982 160.498L173.434 169.337C192.103 170.822 211.856 171.92 232.431 172.64C232.491 169.37 232.545 166.096 232.594 162.821Z" fill="#C4C3C6"/>
<path d="M564.551 114.844C564.551 122.459 554.419 129.688 536.376 136.22C539.397 137.534 542.424 138.84 545.455 140.102C549.241 141.675 553.035 143.204 556.835 144.688C581.704 136.643 595.905 127.432 595.868 117.724C595.868 110.962 588.92 104.55 576.304 98.6863C572.967 100.349 569.62 101.982 566.262 103.585C564.251 104.545 562.237 105.485 560.219 106.405C563.04 109.129 564.551 111.95 564.551 114.844Z" fill="#C4C3C6"/>
<path d="M307.171 76.3236H326.645C326.996 75.1163 327.347 73.9114 327.698 72.7091H344.541L346.704 72.2489C333.819 71.9743 320.619 71.8704 307.171 71.8704V76.3236Z" fill="#C4C3C6"/>
<path d="M58.5549 137.615C60.2076 137.222 61.8603 136.829 63.5183 136.457C67.4658 135.582 71.4134 134.973 75.4083 134.312L78.8716 133.734C69.7922 129.518 64.8078 124.931 64.7868 120.114C64.8094 118.819 65.1247 117.568 65.6868 116.544C57.2654 116.297 48.8527 115.873 40.4489 115.275L39.3962 115.193C38.6576 116.448 38.2404 118.016 38.2119 119.646C38.2119 126.052 45.2122 132.153 58.5549 137.615Z" fill="#C4C3C6"/>
<path d="M72.951 136.955C69.3561 137.541 65.777 138.246 62.2031 139.033C70.5614 142.128 81.025 144.971 93.4782 147.62V139.159C89.4306 137.92 85.7673 136.643 82.5145 135.314C79.3249 135.938 76.109 136.443 72.951 136.955Z" fill="#C4C3C6"/>
<path d="M69.3556 97.6399C55.0445 102.39 45.1967 107.6 40.8018 113.07C48.5003 113.63 56.2059 114.03 63.9186 114.273L67.1292 114.362C69.8662 111.037 74.9401 107.83 82.0457 104.787C77.8455 102.294 73.6155 99.9111 69.3556 97.6399Z" fill="#C4C3C6"/>
<path d="M131.711 83.8049C122.01 85.2894 112.91 86.9074 104.499 88.6145C106.783 90.9153 109.033 93.2805 111.247 95.71C118.947 93.8842 127.479 92.1622 136.732 90.5665C135.111 88.2359 133.437 85.9821 131.711 83.8049Z" fill="#C4C3C6"/>
<path d="M197.135 82.2613C196.819 80.3216 196.523 78.377 196.246 76.4275C186.956 77.1697 177.945 78.0455 169.266 78.9807C170.385 81.1183 171.478 83.2855 172.545 85.4825C180.44 84.5547 188.714 83.7012 197.251 82.9293C197.214 82.6769 197.167 82.4542 197.135 82.2613Z" fill="#C4C3C6"/>
<path d="M227.194 74.2454C217.134 74.8243 207.348 75.4997 197.835 76.2716C198.151 78.4389 198.482 80.6061 198.846 82.7585C208.146 81.9347 217.794 81.2073 227.715 80.5913C227.508 78.4834 227.335 76.3681 227.194 74.2454Z" fill="#C4C3C6"/>
<path d="M278.16 72.2413C261.148 72.6124 244.642 73.2582 228.763 74.1562C228.91 76.274 229.086 78.3868 229.289 80.4947C239.742 79.8614 250.49 79.3517 261.533 78.9658L266.117 77.8079L267.412 78.795L271.096 78.6911C271.201 77.4294 271.301 76.175 271.401 74.9207H273.507C273.638 76.1528 273.765 77.3848 273.891 78.6318L275.591 78.5501V76.3235L278.223 74.8391L278.16 72.2413Z" fill="#C4C3C6"/>
<path d="M167.407 79.1514C155.585 80.4502 144.369 81.8976 133.848 83.4859C135.532 85.6581 137.158 87.907 138.727 90.2326C148.622 88.5626 159.338 87.0411 170.739 85.668C169.655 83.471 168.544 81.2988 167.407 79.1514Z" fill="#C4C3C6"/>
<path d="M102.247 89.0822C90.8408 91.4572 80.7298 94.0253 72.1084 96.7492C76.2454 99.0006 80.3561 101.351 84.4405 103.8C92.5747 100.686 100.815 98.1541 109.131 96.2148C106.871 93.7754 104.576 91.3979 102.247 89.0822Z" fill="#C4C3C6"/>
<path d="M246.185 157.9C240.287 157.717 234.472 157.489 228.742 157.217V160.706C234.314 160.938 239.96 161.136 245.68 161.299L246.185 157.9Z" fill="#C4C3C6"/>
<path d="M286.117 158.561C273.032 158.561 260.232 158.33 247.8 157.952L247.273 161.336C259.906 161.693 272.917 161.886 286.159 161.908C286.154 160.795 286.117 159.681 286.117 158.561Z" fill="#C4C3C6"/>
<path d="M324.608 158.093C316.127 158.316 307.518 158.462 298.781 158.531C295.054 158.531 291.351 158.531 287.67 158.531C287.67 159.652 287.717 160.757 287.733 161.878C291.944 161.878 296.193 161.866 300.481 161.841C309.13 161.777 317.643 161.648 326.019 161.455C325.535 160.364 325.066 159.228 324.608 158.093Z" fill="#C4C3C6"/>
<path d="M372.548 155.933C357.773 156.891 342.336 157.603 326.414 158.041C326.883 159.184 327.367 160.32 327.856 161.44C344.336 161.054 360.247 160.423 375.479 159.577C374.504 158.39 373.527 157.175 372.548 155.933Z" fill="#C4C3C6"/>
<path d="M414.292 152.422C401.797 153.736 388.586 154.872 374.785 155.785C375.785 157.032 376.801 158.256 377.833 159.444C392.375 158.612 406.287 157.581 419.466 156.364C417.719 155.117 415.994 153.803 414.292 152.422Z" fill="#C4C3C6"/>
<path d="M450.298 147.813C439.982 149.402 428.892 150.841 417.139 152.118C418.935 153.499 420.753 154.815 422.592 156.067C434.782 154.909 446.294 153.598 457.13 152.133C454.809 150.827 452.524 149.394 450.298 147.813Z" fill="#C4C3C6"/>
<path d="M530.644 135.626C526.228 134.201 521.834 132.657 517.486 130.928C510.965 133.941 502.459 136.806 492.222 139.463L494.853 140.584C497.485 141.697 500.059 142.878 502.675 143.954L503.012 144.087C514.112 141.564 523.655 138.81 531.434 135.879L530.644 135.626Z" fill="#C4C3C6"/>
<path d="M401.212 74.6387C399.998 76.8257 398.786 79.0202 397.575 81.2221C409.355 82.083 420.603 83.1073 431.219 84.2874L436.04 77.5333C425.05 76.415 413.441 75.4502 401.212 74.6387Z" fill="#C4C3C6"/>
<path d="M399.281 74.5126C393.417 74.1316 387.424 73.7951 381.301 73.5032L380.322 74.1786V76.3236L374.543 78.5502V79.8268C381.754 80.1979 388.794 80.6284 395.665 81.1183C396.865 78.8916 398.076 76.6947 399.281 74.5126Z" fill="#C4C3C6"/>
<path d="M438.125 77.7485L433.282 84.4878C445.209 85.8461 456.315 87.3973 466.442 89.1192C469.421 86.7515 472.5 84.614 475.626 82.6471C464.178 80.8213 451.646 79.1662 438.125 77.7485Z" fill="#C4C3C6"/>
<path d="M478.727 83.189C475.6 85.0593 472.521 87.0707 469.516 89.3048L469.121 89.6091C479.416 91.4201 488.669 93.4018 496.717 95.5468C500.401 93.5725 504.038 91.383 507.633 89.0599C499.028 86.9371 489.364 84.9703 478.727 83.189Z" fill="#C4C3C6"/>
<path d="M510.338 89.7352C506.812 92.0732 503.243 94.2924 499.622 96.3335C510.396 99.3617 518.807 102.672 524.418 106.205C530.576 104.787 536.713 103.095 542.84 101.544C535.197 97.2761 524.228 93.2978 510.338 89.7352Z" fill="#C4C3C6"/>
<path d="M545.524 103.132C543.445 103.644 541.366 104.179 539.287 104.713C535.16 105.782 531.018 106.888 526.865 107.89C530.549 110.688 532.46 113.597 532.476 116.611C532.476 121.138 528.133 125.517 520.102 129.644C524.923 131.477 529.786 133.11 534.671 134.609C548.234 129.072 555.603 122.905 555.603 116.329C555.572 111.742 552.098 107.311 545.524 103.132Z" fill="#C4C3C6"/>
<path d="M499.285 144.845C495.822 143.36 492.306 141.965 488.858 140.324C478.521 142.878 466.578 145.238 453.299 147.346C455.704 148.927 458.157 150.315 460.641 151.651C474.968 149.639 487.953 147.375 499.406 144.889L499.285 144.845Z" fill="#C4C3C6"/>
<path d="M93.9732 140.376C95.4048 140.035 96.8417 139.693 98.2839 139.374C101.71 138.632 105.163 138.053 108.611 137.474C109.616 137.311 110.616 137.14 111.621 136.962C103.679 133.711 99.3207 130.112 99.2734 126.245C99.288 125.191 99.5552 124.176 100.031 123.365C92.7047 123.3 85.3798 123.088 78.0567 122.727L77.125 122.675C76.5006 123.664 76.1461 124.935 76.125 126.259C76.1934 131.425 82.32 136.198 93.9732 140.376Z" fill="#C4C3C6"/>
<path d="M103.093 108.157C90.6665 112.187 82.1346 116.507 78.3555 120.96C85.068 121.287 91.7789 121.492 98.4879 121.576C99.4196 121.576 100.351 121.576 101.283 121.576C103.636 118.875 108.03 116.225 114.194 113.679C110.52 111.759 106.82 109.918 103.093 108.157Z" fill="#C4C3C6"/>
<path d="M157.26 96.1406C148.838 97.4766 140.943 98.9017 133.611 100.401C135.629 102.212 137.603 104.082 139.533 106.012C146.222 104.431 153.633 102.924 161.681 101.507C160.249 99.6364 158.776 97.8477 157.26 96.1406Z" fill="#C4C3C6"/>
<path d="M214.188 93.8991C213.893 92.3479 213.625 90.7892 213.367 89.2306C205.293 89.9728 197.456 90.8041 189.908 91.6873C190.898 93.3795 191.863 95.1114 192.803 96.8828C199.695 96.0218 206.856 95.2178 214.288 94.4706C214.257 94.2554 214.22 94.0772 214.188 93.8991Z" fill="#C4C3C6"/>
<path d="M227.168 93.2311L227.426 92.8303C225.762 91.4424 224.083 90.0247 222.436 88.4364C219.857 88.6541 217.302 88.8768 214.772 89.1044C215.057 90.8412 215.364 92.573 215.694 94.2999C219.436 93.9214 223.268 93.5651 227.168 93.2311Z" fill="#C4C3C6"/>
<path d="M188.292 91.9099C178.013 93.1271 168.26 94.4557 159.117 95.8807C160.596 97.6027 162.033 99.3765 163.407 101.225C172.012 99.7402 181.302 98.3523 191.234 97.0831C190.276 95.3117 189.296 93.5873 188.292 91.9099Z" fill="#C4C3C6"/>
<path d="M131.653 100.817C121.748 102.887 112.968 105.099 105.479 107.415C109.1 109.152 112.693 110.975 116.258 112.885C122.084 110.658 129.29 108.476 137.696 106.435C135.713 104.5 133.699 102.628 131.653 100.817Z" fill="#C4C3C6"/>
<path d="M275.67 80.1162H273.954L274.096 81.4819L275.675 80.7397L275.67 80.1162Z" fill="white"/>
<path d="M270.949 82.9589L271.17 80.2275L267.518 80.3389L270.949 82.9589Z" fill="white"/>
<path d="M374.268 81.3557V82.9589L370.326 84.4433C461.041 88.8224 527.444 102.694 531.454 119.802C531.585 119.265 531.651 118.7 531.649 118.132C531.586 100.542 465.783 86.0836 374.268 81.3557Z" fill="black"/>
<path d="M249.442 83.6862L261.675 80.5244C150.485 84.3988 65.5344 101.625 65.6133 121.628C65.616 122.179 65.6817 122.725 65.8081 123.246C70.1135 104.758 146.817 88.9411 248.363 84.3468L249.442 83.6862Z" fill="white"/>
<path d="M308.071 75.6259C314.665 75.6259 321.196 75.6457 327.667 75.6852C327.951 74.7055 328.241 73.7184 328.525 72.7164H345.31L347.462 72.2562C334.63 71.9594 321.477 71.8258 308.071 71.8629V75.6259Z" fill="white"/>
<path d="M381.954 73.5032L380.975 74.1786V76.3236L378.948 77.0658C483.163 81.8679 559.74 97.8477 564.32 117.509C564.465 116.914 564.543 116.29 564.551 115.661C564.462 95.2945 487.821 78.6318 381.954 73.5032Z" fill="black"/>
<path d="M272.433 74.8984H274.538L274.665 76.086L277.17 76.0266L279.217 74.8984L279.16 72.2413C144.001 75.2102 37.8491 95.6581 37.9385 119.624C37.9448 120.252 38.0193 120.876 38.1596 121.472C43.423 98.7308 143.985 79.5373 272.301 76.1454C272.338 75.7297 272.37 75.3141 272.433 74.8984Z" fill="white"/>
<path d="M297.955 51.8306V87.4567L305.85 84.4879V50.3462L297.955 51.8306ZM301.982 64.3294C301.966 64.441 301.932 64.5458 301.882 64.6359C301.833 64.726 301.77 64.7989 301.697 64.849V78.899C301.697 79.8491 300.645 79.9901 300.645 79.0326V59.4012C300.645 58.4511 301.697 58.3175 301.697 59.275C301.817 59.2928 301.929 59.3681 302.015 59.4883C302.1 59.6085 302.153 59.7664 302.166 59.9356C302.205 61.4051 302.143 62.8766 301.982 64.3294ZM304.613 73.1246C304.613 74.0747 303.561 74.2157 303.561 73.2582V57.9167C303.561 56.9667 304.613 56.8331 304.613 57.7906V73.1246Z" fill="white"/>
<path d="M285.064 52.2017V70.0147L295.591 75.9524V87.8278H297.17V52.2017H285.064ZM291.644 62.652C291.65 62.7495 291.643 62.8479 291.622 62.9415C291.602 63.0351 291.568 63.122 291.524 63.1972C291.479 63.2724 291.425 63.3344 291.363 63.3797C291.301 63.425 291.234 63.4526 291.165 63.461C291.026 63.4774 290.888 63.4156 290.781 63.289C290.675 63.1624 290.608 62.9813 290.596 62.7856V60.0617C290.585 59.8659 290.628 59.6715 290.718 59.5213C290.808 59.371 290.936 59.2771 291.075 59.2601C291.214 59.2436 291.352 59.3055 291.458 59.4321C291.565 59.5587 291.632 59.7397 291.644 59.9355V62.652Z" fill="#C4C3C6"/>
<path d="M284.539 72.2414L291.381 76.6946V89.3122L294.54 88.57V76.6946L284.539 70.757V72.2414Z" fill="white"/>
<path d="M288.223 48.4906C290.133 48.9853 292.07 49.2337 294.012 49.2329C295.954 49.2347 297.892 48.9863 299.802 48.4906C299.627 42.8053 299.451 37.115 299.276 31.4198C297.591 32.3182 295.813 32.8197 294.012 32.9042C292.416 32.9851 290.82 32.735 289.275 32.162C289.315 32.4063 289.315 32.66 289.275 32.9042C289.196 33.2517 289.059 33.5675 288.876 33.8256C288.693 34.0837 288.469 34.2767 288.223 34.3886C288.953 34.0548 289.734 34.017 290.479 34.2795C291.223 34.5419 291.901 35.0941 292.433 35.8731C293.207 37.1348 293.881 39.6361 292.96 41.0685C292.609 41.5138 292.179 41.8177 291.716 41.9483C291.253 42.0788 290.774 42.0313 290.328 41.8107C291.47 42.4416 292.397 43.5846 292.433 44.7796C292.481 46.457 290.818 48.602 288.223 48.4906Z" fill="white"/>
<path d="M306.645 79.6635V73.7258H325.066L320.329 79.6635H306.645Z" fill="#C4C3C6"/>
<path d="M320.855 81.8901L325.593 75.9524V74.468L320.855 80.4057V81.8901Z" fill="white"/>
<path d="M313.483 82.1945C318.826 82.1945 323.157 81.7259 323.157 81.148C323.157 80.57 318.826 80.1014 313.483 80.1014C308.14 80.1014 303.809 80.57 303.809 81.148C303.809 81.7259 308.14 82.1945 313.483 82.1945Z" fill="#C4C3C6"/>
<path d="M321.383 84.1168L328.225 90.0545L337.699 86.3434L332.962 80.4058L321.383 84.1168Z" fill="white"/>
<path d="M328.225 91.5389V103.414L338.225 98.2188V87.8279L328.225 91.5389ZM330.472 99.3321C330.484 99.5279 330.44 99.7223 330.35 99.8726C330.26 100.023 330.132 100.117 329.993 100.134C329.924 100.143 329.854 100.133 329.788 100.104C329.721 100.075 329.66 100.027 329.606 99.9645C329.553 99.9017 329.509 99.8247 329.477 99.7378C329.445 99.6509 329.425 99.5559 329.419 99.4583V94.6785C329.413 94.5809 329.42 94.4825 329.441 94.389C329.461 94.2954 329.495 94.2085 329.539 94.1333C329.584 94.0581 329.639 93.9961 329.7 93.9508C329.762 93.9055 329.829 93.8779 329.898 93.8695C329.968 93.8603 330.037 93.8705 330.104 93.8996C330.17 93.9286 330.232 93.9759 330.285 94.0387C330.338 94.1015 330.382 94.1785 330.414 94.2654C330.447 94.3523 330.466 94.4473 330.472 94.5449V99.3321ZM333.277 97.8477C333.289 98.0435 333.245 98.2379 333.155 98.3881C333.066 98.5384 332.937 98.6323 332.799 98.6493C332.66 98.6658 332.522 98.6039 332.415 98.4773C332.309 98.3507 332.242 98.1697 332.23 97.9739V93.1941C332.224 93.0965 332.231 92.9981 332.251 92.9046C332.272 92.811 332.306 92.7241 332.35 92.6489C332.395 92.5737 332.449 92.5116 332.511 92.4664C332.572 92.4211 332.64 92.3934 332.709 92.3851C332.848 92.3686 332.986 92.4305 333.092 92.5571C333.199 92.6837 333.265 92.8647 333.277 93.0605V97.8477ZM336.083 95.2055C336.089 95.303 336.082 95.4014 336.062 95.495C336.041 95.5885 336.007 95.6754 335.963 95.7506C335.918 95.8259 335.864 95.8879 335.802 95.9332C335.74 95.9784 335.673 96.0061 335.604 96.0145C335.465 96.0309 335.327 95.9691 335.221 95.8425C335.114 95.7158 335.048 95.5348 335.035 95.3391V92.1995C335.024 92.0037 335.068 91.8094 335.157 91.6591C335.247 91.5088 335.376 91.4149 335.514 91.3979C335.653 91.3815 335.791 91.4433 335.898 91.5699C336.004 91.6965 336.071 91.8776 336.083 92.0733V95.2055Z" fill="white"/>
<path d="M288.223 110.094C297.334 109.931 304.602 110.005 309.276 110.094C309.276 110.094 329.103 110.473 344.015 104.156C345.262 103.629 348.178 102.36 348.225 100.445C348.216 100.16 348.165 99.88 348.074 99.6243C347.983 99.3686 347.855 99.1426 347.699 98.9609C345.667 95.9921 340.599 95.3761 339.277 95.2499V99.7031L328.751 104.899H298.749L288.223 110.094Z" fill="white"/>
<path d="M282.434 121.969L287.171 119.001C289.523 119.001 292.96 119.001 297.171 119.001C309.245 118.926 315.282 118.889 322.435 118.258C333.567 117.286 339.699 115.713 346.121 112.321C347.236 111.734 348.142 111.207 348.752 110.836V106.383C350.766 106.589 352.733 107.345 354.542 108.61C355.34 109.17 356.101 109.831 356.816 110.584C356.907 110.68 356.979 110.809 357.023 110.957C357.067 111.105 357.082 111.268 357.066 111.427C357.051 111.586 357.005 111.737 356.934 111.862C356.863 111.988 356.77 112.085 356.663 112.143C354.5 113.293 351.631 114.696 348.242 116.032C337.752 120.151 329.399 120.789 321.398 121.227C310.424 121.828 297.329 122.214 282.434 121.969Z" fill="white"/>
<path d="M348.752 101.93V104.899C352.35 105.837 355.762 107.863 358.752 110.836C358.965 110.648 359.145 110.394 359.279 110.094C359.446 109.635 359.532 109.126 359.532 108.61C359.532 108.094 359.446 107.585 359.279 107.125C356.064 104.38 352.479 102.61 348.752 101.93Z" fill="#C4C3C6"/>
<path d="M309.535 156.111H299.803V149.431C303.011 150.421 306.332 150.421 309.54 149.431L309.535 156.111Z" fill="#C4C3C6"/>
<path d="M329.009 155.369H321.383V147.576C322.304 147.843 326.473 147.947 329.015 146.834L329.009 155.369Z" fill="#C4C3C6"/>
<path d="M345.442 154.694L338.752 154.998V143.865C341.009 144.121 343.28 143.776 345.447 142.848L345.442 154.694Z" fill="#C4C3C6"/>
<path d="M355.852 153.951L351.384 154.256V141.638C352.913 141.892 354.462 141.54 355.858 140.621L355.852 153.951Z" fill="#C4C3C6"/>
<path d="M360.59 153.194L358.227 153.513V138.981C359.071 138.955 359.893 138.589 360.595 137.927L360.59 153.194Z" fill="#C4C3C6"/>
<path d="M280.854 98.961C281.033 105.888 281.209 112.816 281.381 119.743L282.96 119.001V110.836L296.645 104.646V92.6522L280.854 98.961ZM285.065 105.129C285.077 105.325 285.033 105.519 284.943 105.669C284.853 105.819 284.725 105.913 284.586 105.93C284.447 105.947 284.31 105.885 284.203 105.758C284.096 105.632 284.03 105.451 284.018 105.255V100.638C284.011 100.541 284.019 100.442 284.039 100.349C284.06 100.255 284.093 100.168 284.138 100.093C284.182 100.018 284.237 99.956 284.299 99.9107C284.36 99.8654 284.428 99.8378 284.497 99.8294C284.636 99.8129 284.773 99.8748 284.88 100.001C284.987 100.128 285.053 100.309 285.065 100.505V105.129ZM288.344 102.813C288.351 102.911 288.344 103.009 288.323 103.103C288.302 103.196 288.269 103.283 288.224 103.358C288.18 103.433 288.125 103.496 288.064 103.541C288.002 103.586 287.935 103.614 287.865 103.622C287.796 103.631 287.726 103.621 287.66 103.592C287.594 103.563 287.532 103.516 287.479 103.453C287.425 103.39 287.381 103.313 287.349 103.226C287.317 103.139 287.298 103.044 287.292 102.947V99.6438C287.28 99.448 287.324 99.2537 287.414 99.1034C287.503 98.9532 287.632 98.8593 287.771 98.8423C287.84 98.8331 287.91 98.8433 287.976 98.8724C288.042 98.9014 288.104 98.9487 288.157 99.0115C288.211 99.0742 288.255 99.1513 288.287 99.2382C288.319 99.3251 288.338 99.4201 288.344 99.5177V102.813ZM291.618 102.323C291.63 102.519 291.586 102.713 291.496 102.864C291.406 103.014 291.278 103.108 291.139 103.125C291 103.141 290.862 103.079 290.756 102.953C290.649 102.826 290.583 102.645 290.571 102.449V97.8477C290.559 97.6519 290.603 97.4576 290.693 97.3073C290.782 97.157 290.911 97.0631 291.05 97.0461C291.189 97.0297 291.326 97.0915 291.433 97.2181C291.539 97.3447 291.606 97.5258 291.618 97.7215V102.323ZM295.008 100.342C295.019 100.537 294.976 100.732 294.886 100.882C294.796 101.032 294.668 101.126 294.529 101.143C294.391 101.16 294.254 101.099 294.147 100.974C294.041 100.849 293.974 100.67 293.96 100.475V96.1851C293.954 96.0876 293.961 95.9892 293.982 95.8956C294.002 95.8021 294.036 95.7152 294.08 95.64C294.125 95.5647 294.179 95.5027 294.241 95.4574C294.303 95.4122 294.37 95.3845 294.439 95.3761C294.578 95.3597 294.716 95.4215 294.823 95.5481C294.929 95.6748 294.996 95.8558 295.008 96.0515V100.342Z" fill="white"/>
<path d="M308.224 88.0282V99.4137L310.855 98.2188V92.2811L312.434 89.3122V86.3434L308.224 88.0282Z" fill="white"/>
<path d="M357.7 113.011V114.918C357.7 115.214 357.616 115.497 357.468 115.706C357.32 115.914 357.119 116.032 356.91 116.032C356.701 116.032 356.5 115.914 356.352 115.706C356.204 115.497 356.121 115.214 356.121 114.918V113.916L355.068 114.488V116.403C355.068 116.698 354.985 116.981 354.837 117.19C354.689 117.399 354.488 117.516 354.278 117.516C354.069 117.516 353.868 117.399 353.72 117.19C353.572 116.981 353.489 116.698 353.489 116.403V115.282C352.762 115.638 352.052 115.965 351.383 116.254V117.887C351.383 118.183 351.3 118.466 351.152 118.675C351.004 118.883 350.803 119.001 350.594 119.001C350.385 119.001 350.184 118.883 350.036 118.675C349.888 118.466 349.804 118.183 349.804 117.887V116.922C349.204 117.167 348.662 117.368 348.225 117.516C348.052 117.583 347.878 117.635 347.699 117.694V119.372C347.699 119.667 347.616 119.95 347.468 120.159C347.32 120.368 347.119 120.485 346.91 120.485C346.7 120.485 346.499 120.368 346.351 120.159C346.203 119.95 346.12 119.667 346.12 119.372V118.214C345.243 118.496 344.366 118.766 343.488 119.023V120.856C343.488 121.151 343.405 121.435 343.257 121.643C343.109 121.852 342.908 121.969 342.699 121.969C342.489 121.969 342.289 121.852 342.141 121.643C341.993 121.435 341.909 121.151 341.909 120.856V119.476C340.857 119.768 339.804 120.04 338.751 120.292V121.598C338.751 121.894 338.668 122.177 338.52 122.386C338.372 122.594 338.171 122.712 337.962 122.712C337.752 122.712 337.552 122.594 337.404 122.386C337.255 122.177 337.172 121.894 337.172 121.598V120.663C336.12 120.906 335.067 121.131 334.014 121.339V122.341C334.014 122.636 333.931 122.919 333.783 123.128C333.635 123.337 333.434 123.454 333.225 123.454C333.015 123.454 332.815 123.337 332.667 123.128C332.518 122.919 332.435 122.636 332.435 122.341V121.635C331.383 121.828 330.33 122.007 329.277 122.17V123.083C329.277 123.378 329.194 123.661 329.046 123.87C328.898 124.079 328.697 124.196 328.488 124.196C328.278 124.196 328.078 124.079 327.929 123.87C327.781 123.661 327.698 123.378 327.698 123.083V122.407L325.593 122.682V123.825C325.593 124.12 325.51 124.403 325.362 124.612C325.214 124.821 325.013 124.938 324.803 124.938C324.594 124.938 324.393 124.821 324.245 124.612C324.097 124.403 324.014 124.12 324.014 123.825V122.868C323.145 122.971 322.266 123.061 321.382 123.142V123.825C321.382 124.12 321.299 124.403 321.151 124.612C321.003 124.821 320.802 124.938 320.593 124.938C320.383 124.938 320.182 124.821 320.034 124.612C319.886 124.403 319.803 124.12 319.803 123.825V123.283C318.935 123.357 318.056 123.432 317.171 123.491V124.567C317.171 124.862 317.088 125.146 316.94 125.354C316.792 125.563 316.591 125.681 316.382 125.681C316.173 125.681 315.972 125.563 315.824 125.354C315.676 125.146 315.592 124.862 315.592 124.567V123.595L312.961 123.743V125.309C312.961 125.605 312.878 125.888 312.729 126.097C312.581 126.305 312.381 126.423 312.171 126.423C311.962 126.423 311.761 126.305 311.613 126.097C311.465 125.888 311.382 125.605 311.382 125.309V123.825L308.224 123.944V125.309C308.224 125.605 308.141 125.888 307.992 126.097C307.844 126.305 307.644 126.423 307.434 126.423C307.225 126.423 307.024 126.305 306.876 126.097C306.728 125.888 306.645 125.605 306.645 125.309V123.981L304.013 124.048V126.052C304.013 126.347 303.93 126.63 303.782 126.839C303.634 127.048 303.433 127.165 303.223 127.165C303.014 127.165 302.813 127.048 302.665 126.839C302.517 126.63 302.434 126.347 302.434 126.052V124.077H299.802V126.052C299.802 126.347 299.719 126.63 299.571 126.839C299.423 127.048 299.222 127.165 299.013 127.165C298.803 127.165 298.603 127.048 298.454 126.839C298.306 126.63 298.223 126.347 298.223 126.052V124.137H295.065V126.052C295.065 126.347 294.982 126.63 294.834 126.839C294.686 127.048 294.485 127.165 294.276 127.165C294.066 127.165 293.865 127.048 293.717 126.839C293.569 126.63 293.486 126.347 293.486 126.052V124.174H290.854V126.052C290.863 126.14 290.863 126.23 290.854 126.319L292.539 127.803C294.91 130.396 296.921 133.584 298.471 137.207C298.941 138.036 299.311 138.969 299.565 139.968C300.542 142.686 301.326 145.532 301.908 148.466C302.955 148.65 304.011 148.725 305.066 148.689C306.483 148.643 307.894 148.394 309.276 147.947V140.525C309.485 138.523 310.181 136.686 311.246 135.331C312.311 133.975 313.678 133.185 315.112 133.098C316.545 133.01 317.955 133.629 319.1 134.849C320.244 136.069 321.051 137.814 321.382 139.783V145.72C323.851 145.905 326.326 145.656 328.751 144.978V138.298C329.498 134.587 331.798 132.205 334.014 132.36C336.841 132.568 339.425 136.932 338.751 142.009C339.627 142.128 340.508 142.128 341.383 142.009C342.832 141.823 344.253 141.322 345.594 140.525V133.845C345.789 132.978 346.174 132.221 346.695 131.684C347.215 131.147 347.844 130.857 348.489 130.857C349.134 130.857 349.762 131.147 350.282 131.684C350.803 132.221 351.188 132.978 351.383 133.845V139.783C352.236 140.202 353.163 140.202 354.015 139.783C354.62 139.479 355.163 138.969 355.594 138.298V130.134C355.684 129.658 355.895 129.245 356.185 128.972C356.476 128.698 356.827 128.584 357.173 128.649C357.43 128.731 357.666 128.913 357.852 129.176C358.039 129.439 358.168 129.771 358.226 130.134V136.814C358.757 136.756 359.271 136.525 359.728 136.138C360.185 135.752 360.572 135.221 360.858 134.587V110.836C359.835 111.646 358.781 112.372 357.7 113.011ZM303.802 137.927C303.814 138.123 303.77 138.317 303.68 138.467C303.591 138.618 303.462 138.712 303.323 138.729C303.185 138.745 303.047 138.683 302.94 138.557C302.834 138.43 302.767 138.249 302.755 138.053V132.939C302.743 132.742 302.787 132.547 302.878 132.396C302.968 132.245 303.097 132.151 303.237 132.134C303.376 132.117 303.515 132.179 303.622 132.307C303.729 132.434 303.796 132.616 303.808 132.813L303.802 137.927ZM324.972 136.443C324.983 136.638 324.94 136.833 324.85 136.983C324.76 137.133 324.632 137.227 324.493 137.244C324.354 137.261 324.216 137.199 324.11 137.072C324.003 136.946 323.936 136.765 323.924 136.569V130.794C323.913 130.597 323.957 130.402 324.047 130.251C324.137 130.1 324.266 130.006 324.406 129.989C324.546 129.972 324.684 130.034 324.791 130.162C324.898 130.289 324.965 130.471 324.977 130.668L324.972 136.443ZM342.051 133.474C342.063 133.67 342.019 133.864 341.93 134.014C341.84 134.164 341.711 134.258 341.573 134.275C341.503 134.284 341.434 134.274 341.367 134.245C341.301 134.216 341.239 134.169 341.186 134.106C341.133 134.043 341.089 133.966 341.056 133.879C341.024 133.793 341.005 133.698 340.999 133.6V127.996C340.992 127.899 341 127.8 341.02 127.707C341.041 127.613 341.074 127.526 341.119 127.451C341.163 127.376 341.218 127.314 341.28 127.269C341.341 127.223 341.409 127.196 341.478 127.187C341.547 127.178 341.617 127.188 341.683 127.217C341.749 127.246 341.811 127.294 341.864 127.356C341.918 127.419 341.962 127.496 341.994 127.583C342.026 127.67 342.046 127.765 342.051 127.863V133.474ZM353.394 127.699C353.406 127.895 353.362 128.089 353.272 128.24C353.182 128.39 353.054 128.484 352.915 128.501C352.776 128.517 352.638 128.456 352.532 128.329C352.425 128.202 352.359 128.021 352.347 127.826V124.204C352.34 124.106 352.347 124.008 352.368 123.914C352.389 123.82 352.422 123.734 352.467 123.658C352.511 123.583 352.566 123.521 352.627 123.476C352.689 123.431 352.756 123.403 352.826 123.395C352.964 123.378 353.102 123.44 353.209 123.567C353.315 123.693 353.382 123.874 353.394 124.07V127.699ZM359.71 124.07C359.722 124.266 359.678 124.46 359.588 124.61C359.498 124.761 359.37 124.855 359.231 124.872C359.093 124.888 358.956 124.827 358.85 124.702C358.743 124.577 358.676 124.398 358.663 124.204V119.914C358.656 119.816 358.663 119.718 358.684 119.624C358.705 119.53 358.738 119.444 358.783 119.368C358.827 119.293 358.882 119.231 358.944 119.186C359.005 119.141 359.072 119.113 359.142 119.105C359.281 119.088 359.418 119.15 359.525 119.277C359.631 119.403 359.698 119.584 359.71 119.78V124.07Z" fill="white"/>
<path d="M274.012 95.9922C276.47 94.7601 279.454 93.5206 281.907 92.2811H291.381L280.854 95.9922H274.012Z" fill="white"/>
<path d="M320.855 83.3745L326.119 81.1478V76.6946L320.855 83.3745Z" fill="white"/>
<path d="M366.121 121.227C365.946 105.888 365.77 90.5493 365.595 75.2102L383.49 66.3037V69.2726L379.28 71.4992V74.468L373.49 77.4369C373.316 78.4314 373.142 79.4186 372.963 80.4057L367.174 83.3746C367.353 95.7447 367.528 108.115 367.7 120.485L366.121 121.227Z" fill="white"/>
<path d="M366.647 72.9835V70.7569L378.227 64.8192H381.911L366.647 72.9835Z" fill="white"/>
<path d="M366.647 59.6238V69.2725L377.701 63.3348V55.9127L366.647 59.6238ZM368.705 63.8915C368.648 64.0704 368.543 64.2098 368.412 64.2794C368.282 64.349 368.138 64.3429 368.011 64.2626C367.946 64.2211 367.888 64.1616 367.84 64.0876C367.792 64.0136 367.755 63.9267 367.732 63.8321C367.678 63.5327 367.643 63.2272 367.626 62.9192C367.626 62.6668 367.626 62.4145 367.626 62.177C367.616 62.0494 367.633 61.9203 367.674 61.8059L367.748 61.6352C367.838 61.4851 367.966 61.3917 368.105 61.3754C368.174 61.3669 368.244 61.3776 368.31 61.4069C368.376 61.4362 368.437 61.4835 368.49 61.5461C368.596 61.6733 368.662 61.8548 368.674 62.0508C368.664 62.5133 368.689 62.976 368.748 63.4313C368.761 63.5294 368.761 63.6301 368.748 63.7282L368.705 63.8915ZM371.079 63.8321C370.94 63.8486 370.803 63.7867 370.696 63.6601C370.589 63.5335 370.523 63.3525 370.511 63.1567C370.436 62.3771 370.406 61.5903 370.421 60.8039C370.415 60.6088 370.458 60.417 370.542 60.2621C370.633 60.112 370.761 60.0186 370.9 60.0023C370.969 59.9938 371.039 60.0045 371.104 60.0338C371.17 60.0631 371.232 60.1104 371.285 60.173C371.338 60.2353 371.383 60.312 371.415 60.3986C371.448 60.4853 371.468 60.5801 371.474 60.6777C371.457 61.4614 371.485 62.2458 371.558 63.0231C371.565 63.1212 371.557 63.2202 371.536 63.3142C371.515 63.4082 371.481 63.4954 371.436 63.5708C371.391 63.6461 371.336 63.708 371.274 63.7528C371.212 63.7977 371.144 63.8247 371.074 63.8321H371.079ZM373.927 61.6649C373.936 61.7916 373.921 61.9194 373.885 62.036L373.806 62.2067C373.739 62.3187 373.649 62.4001 373.549 62.4407C373.449 62.4813 373.343 62.4792 373.244 62.4348C373.145 62.3903 373.057 62.3054 372.993 62.1909C372.928 62.0763 372.888 61.9372 372.879 61.791V60.1879C372.868 60.0579 372.885 59.9262 372.927 59.8093L373 59.646C373.045 59.5704 373.099 59.5078 373.16 59.462C373.222 59.4161 373.289 59.3878 373.358 59.3788C373.497 59.3663 373.634 59.4272 373.743 59.5496C373.849 59.6767 373.915 59.8583 373.927 60.0543V61.6649ZM376.874 61.5906C376.785 61.739 376.659 61.8322 376.522 61.8504C376.453 61.8589 376.383 61.8482 376.317 61.8189C376.252 61.7897 376.19 61.7423 376.137 61.6797C376.034 61.5487 375.966 61.3697 375.948 61.175C375.879 60.6851 375.864 60.1804 375.795 59.6906C375.78 59.5878 375.78 59.4816 375.795 59.3788L375.837 59.1933C375.896 59.0157 376.002 58.8779 376.132 58.8098C376.262 58.7417 376.406 58.7488 376.532 58.8296C376.596 58.8703 376.654 58.9286 376.702 59.0013C376.75 59.074 376.787 59.1594 376.811 59.2527C376.911 59.8464 376.932 60.4476 377.016 61.0488C377.019 61.1485 377.007 61.2478 376.982 61.3409C376.956 61.434 376.918 61.5189 376.869 61.5906H376.874Z" fill="white"/>
<path d="M367.701 57.3972L359.279 50.7173V49.2329L370.332 46.264L377.701 53.6861L367.701 57.3972Z" fill="white"/>
<path d="M358.226 50.7173H357.174L353.447 54.2205C356.475 55.6456 359.493 57.0904 362.5 58.555C362.68 58.6486 362.856 58.7577 363.027 58.8816H366.648V57.3972L358.226 50.7173Z" fill="#C4C3C6"/>
<path d="M351.384 60.366V69.2725H355.595V61.1082H361.911V69.2725H366.121V59.6238H351.384V60.366Z" fill="#C4C3C6"/>
<path d="M373.49 121.227V101.188H368.227V120.485L373.49 121.227Z" fill="#C4C3C6"/>
<path d="M389.28 103.414V122.712L394.544 123.454V103.414H389.28Z" fill="#C4C3C6"/>
<path d="M408.755 105.641C408.579 112.321 408.404 119.001 408.229 125.681L412.966 126.423V105.641H408.755Z" fill="#C4C3C6"/>
<path d="M425.771 109.352L425.329 129.392L429.277 130.134V109.352H425.771Z" fill="#C4C3C6"/>
<path d="M440.387 113.063C440.282 120.109 440.175 127.148 440.066 134.179L442.967 134.958V113.063H440.387Z" fill="#C4C3C6"/>
<path d="M452.967 116.032C452.883 123.315 452.795 130.591 452.704 137.86L455.073 138.669V116.032H452.967Z" fill="#C4C3C6"/>
<path d="M463.809 118.258L464.02 137.927L462.178 138.669V118.258H463.809Z" fill="#C4C3C6"/>
<path d="M471.968 119.743L472.173 135.136L470.336 135.7V119.743H471.968Z" fill="#C4C3C6"/>
<path d="M477.263 121.969L477.436 133.066L475.857 133.474V121.969H477.263Z" fill="#C4C3C6"/>
<path d="M482.553 123.454C482.606 125.963 482.653 128.464 482.7 130.972L481.39 131.247V123.454H482.553Z" fill="#C4C3C6"/>
<path d="M487.816 124.938C487.868 126.252 487.916 127.566 487.963 128.879L486.652 129.021V124.938H487.816Z" fill="#C4C3C6"/>
<path d="M477.179 101.188C463.078 96.4672 432.966 88.1989 372.964 81.8901L368.227 84.1168V97.4766L373.764 98.3227C374.249 95.7518 375.372 93.5112 376.928 92.0068C378.485 90.5024 380.371 89.8337 382.247 90.1217C384.123 90.4097 385.863 91.6354 387.153 93.5768C388.444 95.5183 389.198 98.0471 389.28 100.705L395.028 101.596C396.033 97.4543 398.538 94.5077 401.475 94.5077C405.655 94.5745 407.391 98.5082 408.086 103.652L412.555 104.394C413.123 99.3024 415.787 95.7621 418.997 96.2296C422.997 96.8531 424.64 101.106 425.276 106.435L429.377 107.088C429.903 102.635 432.171 99.5399 434.898 99.9333C438.293 100.483 439.709 104.194 440.272 108.84L443.04 109.345C443.504 104.891 445.572 101.752 448.056 102.145C451.214 102.709 452.504 106.643 452.983 111.512L455.03 112.046C455.03 107.689 456.741 104.446 458.846 104.81C461.625 105.337 462.446 109.53 462.657 114.31L464.499 114.911C464.499 114.644 464.499 114.384 464.499 114.169C464.499 110.398 465.741 107.585 467.278 107.897C469.442 108.387 469.978 112.491 470.078 116.967L471.836 117.657C471.836 116.485 471.873 115.379 471.836 114.466C471.836 111.846 472.731 109.901 473.836 110.116C475.879 110.562 475.91 115.312 475.858 119.32L477.605 120.062C477.605 118.815 477.647 117.635 477.605 116.678C477.605 114.058 478.5 112.113 479.605 112.328C481.71 112.788 481.679 117.843 481.621 121.91L482.837 122.496C482.837 120.953 482.884 119.453 482.863 118.288C482.863 115.854 483.642 114.043 484.605 114.243C486.621 114.711 486.384 120.344 486.348 124.241C486.953 124.552 487.542 124.857 488.106 125.161C488.106 123.677 488.137 122.192 488.106 121.034C488.106 119.179 488.658 117.798 489.332 117.954C490.911 118.348 490.527 123.573 490.553 126.482L491.774 127.158C491.774 126 491.811 124.872 491.774 124.003C491.774 122.148 492.327 120.767 493 120.923C493.974 121.168 494.195 123.261 494.237 125.51C497.185 123.172 499.843 120.181 499.769 116.826C499.648 109.597 487.021 104.483 477.179 101.188Z" fill="#C4C3C6"/>
<path d="M227.693 128.649V108.61H232.957V127.907L227.693 128.649Z" fill="#C4C3C6"/>
<path d="M211.904 110.836V130.134L206.641 130.876V110.836H211.904Z" fill="#C4C3C6"/>
<path d="M192.429 113.063C192.605 119.743 192.78 126.423 192.956 133.103L188.219 133.845V113.063H192.429Z" fill="#C4C3C6"/>
<path d="M175.408 116.774L175.85 136.814L171.902 137.556V116.774H175.408Z" fill="#C4C3C6"/>
<path d="M160.785 120.485C160.894 127.531 161.003 134.57 161.112 141.601L158.217 142.38V120.485H160.785Z" fill="#C4C3C6"/>
<path d="M148.217 123.454C148.301 130.737 148.389 138.014 148.48 145.282L146.111 146.091V123.454H148.217Z" fill="#C4C3C6"/>
<path d="M129.206 127.165C129.139 132.301 129.073 137.432 129.006 142.558L130.848 143.122V127.165H129.206Z" fill="#C4C3C6"/>
<path d="M123.916 129.392L123.742 140.488L125.321 140.896V129.392H123.916Z" fill="#C4C3C6"/>
<path d="M118.621 130.876C118.574 133.385 118.526 135.886 118.474 138.395L119.795 138.669V130.876H118.621Z" fill="#C4C3C6"/>
<path d="M113.357 132.36L113.215 136.302L114.531 136.443V132.36H113.357Z" fill="#C4C3C6"/>
<path d="M124.005 108.61C138.1 103.889 168.217 95.621 228.22 89.3123L232.957 91.5389V104.899L227.414 105.745C226.925 103.179 225.802 100.945 224.247 99.4456C222.692 97.9461 220.808 97.28 218.935 97.5676C217.062 97.8553 215.324 99.0777 214.035 101.014C212.745 102.951 211.989 105.474 211.903 108.127L206.156 109.018C205.15 104.876 202.645 101.93 199.708 101.93C195.529 101.997 193.787 105.93 193.097 111.074L188.629 111.816C188.06 106.725 185.397 103.184 182.186 103.652C178.186 104.275 176.544 108.528 175.907 113.857L171.807 114.51C171.28 110.057 169.012 106.962 166.285 107.355C162.891 107.905 161.475 111.616 160.912 116.262L158.143 116.767C157.68 112.313 155.611 109.174 153.127 109.567C149.943 110.131 148.674 114.065 148.2 118.934L146.153 119.468C146.153 115.112 144.442 111.868 142.337 112.232C139.558 112.759 138.737 116.952 138.526 121.732L136.684 122.333C136.684 122.066 136.684 121.806 136.684 121.591C136.684 117.821 135.437 115.008 133.905 115.319C131.742 115.809 131.205 119.914 131.1 124.389L129.347 125.079C129.347 123.907 129.305 122.801 129.347 121.888C129.347 119.268 128.452 117.323 127.347 117.539C125.305 117.984 125.273 122.734 125.326 126.742L123.578 127.484C123.578 126.237 123.536 125.057 123.578 124.1C123.578 121.48 122.684 119.535 121.578 119.75C119.473 120.21 119.504 125.265 119.562 129.332L118.347 129.919C118.347 128.375 118.294 126.876 118.32 125.71C118.32 123.276 117.541 121.465 116.578 121.665C114.562 122.133 114.799 127.766 114.836 131.663C114.225 131.975 113.641 132.279 113.073 132.583C113.099 131.099 113.041 129.614 113.073 128.456C113.073 126.601 112.546 125.22 111.852 125.376C110.272 125.77 110.651 130.995 110.625 133.904L109.409 134.58C109.409 133.422 109.372 132.294 109.409 131.425C109.409 129.57 108.883 128.189 108.188 128.345C107.214 128.59 106.988 130.683 106.951 132.932C104.004 130.594 101.346 127.603 101.419 124.248C101.525 117.019 114.157 111.905 124.005 108.61Z" fill="white"/>
<path d="M364.463 75.9524C364.306 76.3166 364.13 76.6639 363.936 76.9915C361.194 81.519 358.047 85.5566 355.594 90.4255V102.672C355.957 102.717 359.473 103.236 360.857 107.125C361.183 108.05 361.362 109.062 361.384 110.094V123.454H365.068C364.892 107.62 364.717 91.7862 364.542 75.9524H364.463Z" fill="#C4C3C6"/>
<path d="M251.906 134.587V130.134L277.697 130.876V135.329L251.906 134.587Z" fill="#C4C3C6"/>
<path d="M250.854 129.392V124.196L254.012 121.969L257.17 122.712V124.196H252.959L251.906 125.681H278.749V130.134L250.854 129.392Z" fill="white"/>
<path d="M278.223 135.329V130.876L281.381 129.392V133.845L278.223 135.329Z" fill="white"/>
<path d="M297.697 90.0545L306.645 86.3434V84.859L297.697 88.5701V90.0545Z" fill="white"/>
<path d="M292.434 9.15344C293.302 9.51777 294.049 10.3075 294.54 11.3801C294.837 12.0536 295.017 12.8165 295.066 13.6067V18.06C295.27 18.0617 295.471 18.1295 295.654 18.2582C295.836 18.3869 295.995 18.573 296.119 18.8022C296.195 19.0349 296.234 19.2881 296.234 19.5444C296.234 19.8006 296.195 20.0539 296.119 20.2866C295.592 22.3796 290.903 22.5132 290.329 22.5132C290.189 22.5132 290.056 22.435 289.957 22.2958C289.858 22.1567 289.803 21.9679 289.803 21.771C289.803 21.5742 289.858 21.3854 289.957 21.2462C290.056 21.107 290.189 21.0288 290.329 21.0288C290.855 21.0883 291.383 21.0883 291.908 21.0288C292.804 20.9392 293.688 20.6898 294.54 20.2866C295.003 19.8561 295.098 19.6483 295.066 19.5444C295.035 19.4405 294.598 19.485 294.013 19.5444C293.488 19.6049 292.96 19.6049 292.434 19.5444C292.189 19.4309 291.965 19.2373 291.782 18.9794C291.6 18.7215 291.462 18.4066 291.382 18.06C291.345 17.8153 291.345 17.5624 291.382 17.3178H292.961C293.083 16.9718 293.146 16.5908 293.146 16.2044C293.146 15.8181 293.083 15.4371 292.961 15.0911C292.832 14.7853 292.651 14.53 292.434 14.3489V13.6067H291.382C291.836 13.283 292.205 12.7628 292.434 12.1223C292.586 11.6565 292.664 11.1502 292.664 10.6379C292.664 10.1255 292.586 9.6192 292.434 9.15344Z" fill="white"/>
<path d="M295.592 22.5133C295.919 22.5692 296.232 22.7326 296.506 22.9904C296.781 23.2482 297.008 23.5933 297.171 23.9977C297.354 24.6901 297.348 25.4541 297.153 26.1405C296.959 26.8268 296.589 27.386 296.118 27.7088V29.9354C295.782 30.2225 295.43 30.4708 295.065 30.6776C293.73 31.4324 292.28 31.688 290.854 31.4198C291.286 30.7601 291.641 30.0087 291.907 29.1932C292.432 27.5683 292.615 25.7649 292.433 23.9977C293.157 23.8935 293.866 23.6436 294.539 23.2555C294.904 23.0503 295.256 22.802 295.592 22.5133Z" fill="#C4C3C6"/>
<path d="M336.12 82.6324L338.752 85.6012L354.542 78.9213L354.016 78.1791L339.804 84.1168L339.278 83.3746L354.016 77.4369H348.752L336.12 82.6324Z" fill="white"/>
<path d="M327.172 75.2102H343.488V73.7257C343.667 73.2359 343.841 72.7386 344.015 72.2413H326.646V73.7257C326.819 74.223 326.993 74.7203 327.172 75.2102Z" fill="white"/>
<path d="M327.172 81.1479V75.9524H343.488V78.9212L335.593 81.8901L333.488 78.9212L327.172 81.1479Z" fill="#C4C3C6"/>
<path d="M349.278 75.9524V73.7258L352.436 71.4991V72.9836L349.278 75.9524Z" fill="white"/>
<path d="M366.121 72.9836H361.384V72.2414C361.736 71.9964 362.089 71.7515 362.436 71.4992V70.757H366.121V72.9836Z" fill="#C4C3C6"/>
<path d="M355.594 70.757L354.542 72.2414L349.805 76.6946H356.647V74.468H365.069V73.7258H360.331V70.757H355.594Z" fill="#C4C3C6"/>
<path d="M258.748 118.258V103.414H274.012V117.516H270.854L266.643 112.321L258.748 118.258Z" fill="white"/>
<path d="M279.275 98.9609H253.484C253.663 106.136 253.839 113.31 254.011 120.485L258.221 121.227V125.681H262.958V117.516L266.117 113.805L269.801 117.516V125.681H277.17C278.047 124.691 278.924 123.701 279.801 122.712C279.622 114.8 279.447 106.883 279.275 98.9609ZM258.748 118.258H257.695V103.414H258.748V118.258ZM275.064 117.516H274.012V103.414H275.064V117.516Z" fill="#C4C3C6"/>
<path d="M327.125 92.0287H312.166C312.271 95.1905 312.373 98.3474 312.471 101.499L314.914 101.826V103.785H317.661V100.193L319.493 98.5601L321.63 100.193V103.785H325.903L327.43 102.479C327.328 99.0005 327.226 95.5171 327.125 92.0287ZM315.219 100.52H314.608V93.9881H315.219V100.52ZM324.693 100.193H324.082V93.9881H324.693V100.193Z" fill="#C4C3C6"/>
<path d="M283.486 117.516V111.579C295.313 112.321 305.461 112.083 313.488 111.579C327.451 110.718 335.115 109.01 342.963 105.641C344.968 104.787 346.605 103.978 347.7 103.414V110.094C344.94 111.538 342.129 112.776 339.278 113.805C330.115 117.115 322.962 117.368 313.488 117.516C301.487 117.709 291.35 117.65 283.486 117.516Z" fill="#C4C3C6"/>
<path d="M251.111 85.2301L265.849 80.0347L271.639 85.2301L259.006 90.4256L251.111 85.2301Z" fill="white"/>
<path d="M332.852 125.577C323.251 126.178 313.588 126.608 303.935 126.519C303.872 126.713 303.772 126.877 303.645 126.992C303.518 127.107 303.37 127.167 303.219 127.165C303.066 127.165 302.917 127.103 302.789 126.985C302.661 126.868 302.56 126.701 302.498 126.504L299.745 126.452C299.686 126.666 299.582 126.848 299.447 126.975C299.312 127.101 299.152 127.166 298.99 127.161C298.828 127.155 298.671 127.079 298.54 126.943C298.41 126.807 298.312 126.618 298.261 126.401C297.208 126.371 296.136 126.331 295.045 126.282C295.037 126.577 294.946 126.856 294.793 127.057C294.639 127.258 294.436 127.365 294.226 127.354C294.017 127.343 293.819 127.216 293.676 126.999C293.534 126.783 293.458 126.495 293.466 126.2C292.587 126.156 291.702 126.111 290.834 126.052C290.842 126.14 290.842 126.23 290.834 126.319L292.518 127.803C294.889 130.396 296.9 133.584 298.45 137.207C298.92 138.036 299.29 138.969 299.545 139.968C300.528 142.685 301.32 145.531 301.908 148.466C302.955 148.65 304.011 148.725 305.066 148.689C306.484 148.643 307.895 148.394 309.277 147.947V140.525C309.485 138.523 310.182 136.686 311.247 135.331C312.312 133.975 313.679 133.185 315.112 133.098C316.546 133.01 317.956 133.629 319.1 134.849C320.245 136.069 321.052 137.814 321.383 139.783V145.72C323.851 145.905 326.327 145.656 328.751 144.978V138.298C329.499 134.587 331.799 132.205 334.015 132.36C336.841 132.568 339.426 136.932 338.752 142.009C339.401 142.097 340.053 142.119 340.705 142.076C339.042 135.783 336.351 130.131 332.852 125.577Z" fill="#C4C3C6"/>
<path d="M233.399 179.543C223.441 179.216 214.056 178.867 205.771 178.526C205.81 180.649 205.856 182.771 205.908 184.894C215.317 186.591 224.636 189.162 233.804 192.591C233.71 188.242 233.574 183.892 233.399 179.543Z" fill="white"/>
<path d="M265.77 180.441C255.311 180.203 244.884 179.914 234.989 179.595V179.662C235.168 184.167 235.289 188.672 235.379 193.185C236.684 193.679 237.988 194.192 239.289 194.721C248.021 198.291 256.659 202.143 265.196 206.433C265.327 197.771 265.506 189.14 265.77 180.441Z" fill="white"/>
<path d="M358.642 233.012C358.216 218.286 358.042 203.546 358.216 188.806C358.251 185.762 358.304 182.714 358.374 179.661C353.742 179.939 349.042 180.186 344.273 180.404C335.394 180.856 323.815 181.035 310.856 181.02C310.609 199.219 310.577 217.388 310.588 235.617C313.395 237.799 316.17 240.025 318.914 242.297C323.504 246.102 328.053 249.998 332.562 253.986C341.384 253.764 350.331 253.455 359.406 253.059C359.1 246.389 358.846 239.706 358.642 233.012Z" fill="white"/>
<path d="M409.682 207.316C409.913 196.797 410.145 186.28 410.376 175.765C394.618 177.249 377.806 178.516 359.943 179.565C359.83 184.691 359.762 189.817 359.737 194.944C359.664 209.625 359.916 224.305 360.406 238.964C360.564 243.655 360.748 248.341 360.958 253.022C376.52 252.309 392.465 251.302 408.792 250.001C409.048 235.775 409.345 221.547 409.682 207.316Z" fill="white"/>
<path d="M455.073 170.777C441.704 172.544 427.33 174.157 411.95 175.616C411.424 200.369 410.808 225.114 410.371 249.837L416.919 249.288C430.719 248.093 443.404 246.794 455.084 245.384L455.073 170.777Z" fill="white"/>
<path d="M499.811 163.704C486.828 166.148 472.442 168.437 456.651 170.569V245.236C472.968 243.247 487.258 241.057 499.811 238.697V163.704Z" fill="white"/>
<path d="M552.972 150.619C539.413 155.072 522.249 159.414 501.391 163.4V238.363C523.686 234.095 540.382 229.256 552.972 223.994V150.619Z" fill="white"/>
<path d="M595.336 125.309C592.64 128.42 589.829 131.326 586.915 134.016C581.283 139.211 570.53 144.733 554.545 150.099V223.355C579.488 212.571 587.673 200.05 591.652 186.987C594.092 178.732 595.171 169.805 594.81 160.876C594.989 149.011 595.164 137.155 595.336 125.309Z" fill="white"/>
<path d="M309.066 204.407C309.108 196.619 309.182 188.83 309.287 181.042C296.192 181.042 281.765 180.797 267.338 180.478C267.212 184.758 267.1 189.043 267.001 193.333C266.9 197.964 266.817 202.598 266.754 207.235C272.57 210.203 278.333 213.447 284.013 216.987C292.518 222.287 300.855 228.12 309.014 234.429C309.008 224.424 309.014 214.419 309.066 204.407Z" fill="white"/>
<path d="M57.6865 156.386C73.6925 159.859 85.3035 162.227 88.4931 162.702V240.352C85.8614 210.731 80.3717 165.797 76.3399 165.107C70.445 164.112 71.7292 163.756 65.8605 163.162L61.8656 162.851C60.7199 162.759 59.6441 162.044 58.8646 160.856C58.0852 159.668 57.6628 158.1 57.6865 156.482V156.386Z" fill="white"/>
<path d="M204.309 183.796C201.61 183.712 198.914 183.603 196.219 183.469C198.556 183.751 200.893 184.063 203.219 184.427L204.324 184.62L204.309 183.796Z" fill="#C4C3C6"/>
<path d="M233.558 183.9C224.331 184.026 215.11 184.078 205.883 183.833C205.883 184.189 205.883 184.575 205.909 184.894C215.318 186.591 224.637 189.162 233.805 192.591C233.738 189.696 233.656 186.799 233.558 183.9Z" fill="#C4C3C6"/>
<path d="M265.68 183.603C261.038 183.536 256.396 183.521 251.753 183.603L235.137 183.885C235.242 186.982 235.323 190.085 235.379 193.192C236.684 193.687 237.988 194.199 239.29 194.728C248.021 198.298 256.659 202.151 265.196 206.441C265.312 198.82 265.473 191.208 265.68 183.603Z" fill="#C4C3C6"/>
<path d="M309.066 204.407C309.101 197.697 309.161 190.988 309.245 184.278H306.008C293.087 184.322 280.165 183.803 267.243 183.603C267.156 186.839 267.075 190.075 267.001 193.311C266.9 197.942 266.817 202.576 266.754 207.212C272.57 210.181 278.333 213.425 284.013 216.965C292.518 222.264 300.855 228.098 309.014 234.407C309.008 224.424 309.014 214.419 309.066 204.407Z" fill="#C4C3C6"/>
<path d="M358.642 233.012C358.215 218.286 358.042 203.546 358.215 188.806C358.215 186.727 358.273 184.657 358.31 182.578C342.488 183.514 326.651 184.115 310.813 184.263C310.603 201.386 310.576 218.516 310.587 235.639C313.394 237.821 316.17 240.048 318.914 242.319C323.503 246.124 328.053 250.021 332.562 254.009C341.383 253.786 350.331 253.477 359.405 253.081C359.1 246.396 358.845 239.706 358.642 233.012Z" fill="#C4C3C6"/>
<path d="M409.682 207.316C409.889 198.177 410.09 189.023 410.287 179.854C394.807 179.914 379.364 181.198 363.885 182.2L359.885 182.445C359.811 186.596 359.762 190.75 359.737 194.907C359.664 209.587 359.916 224.268 360.406 238.927C360.564 243.618 360.748 248.304 360.958 252.984C376.52 252.272 392.465 251.265 408.792 249.964C409.048 235.763 409.345 221.547 409.682 207.316Z" fill="#C4C3C6"/>
<path d="M455.072 186.364C443.259 183.091 431.301 180.966 419.281 180.003C416.797 179.929 414.314 179.889 411.834 179.884C411.334 203.219 410.781 226.54 410.339 249.875L416.887 249.325C430.687 248.13 443.377 246.832 455.051 245.429L455.072 186.364Z" fill="#C4C3C6"/>
<path d="M499.811 212.631C495.858 208.838 492.069 204.704 488.184 200.755C483.616 197.604 478.881 194.961 474.021 192.851C468.273 190.5 462.483 188.484 456.651 186.802V245.228C472.968 243.239 487.258 241.05 499.811 238.682V212.631Z" fill="#C4C3C6"/>
<path d="M501.391 238.393C510.702 236.611 519.044 234.726 526.507 232.759C524.813 231.928 523.125 231.077 521.444 230.206C514.507 226.599 508.417 220.476 502.238 214.902L501.391 214.115V238.393Z" fill="#C4C3C6"/>
<path d="M289.534 219.57C380.464 221.864 449.015 213.195 494.806 204.726C539.055 196.562 590.158 183.343 595.863 147.576C596.213 145.383 596.39 143.143 596.389 140.896C596.092 142.404 595.74 143.891 595.337 145.349C586.321 178.088 553.314 190.951 495.19 201.928C452.992 209.843 410.517 214.493 367.958 215.859C332.767 217.099 303.556 216.972 283.218 216.601L289.534 219.57Z" fill="black"/>
<path d="M289.534 221.797C380.464 224.09 449.015 215.421 494.806 206.953C539.055 198.788 590.158 185.569 595.863 149.802C596.213 147.61 596.39 145.37 596.389 143.122C596.092 144.631 595.74 146.117 595.337 147.576C586.321 180.315 553.314 193.177 495.19 204.154C452.992 212.069 410.517 216.72 367.958 218.086C332.767 219.325 303.556 219.199 283.218 218.828L289.534 221.797Z" fill="white"/>
<path d="M93.7352 224.766C93.2615 211.747 92.7352 198.635 92.1562 185.428C91.8053 177.724 91.4544 170.055 91.1035 162.42L114.262 154.256C115.14 174.048 116.017 193.84 116.894 213.632L93.7352 224.766Z" fill="#C4C3C6"/>
<path d="M106.262 150.545C105.899 142.187 105.499 150.099 105.062 141.638C104.809 136.695 104.535 123.558 104.262 118.63C110.578 119.372 116.368 121.598 121.857 121.598C122.527 134.31 123.194 147.019 123.857 159.726C117.994 162.108 112.13 148.162 106.262 150.545Z" fill="black"/>
<path d="M145.843 159.451L136.369 163.162L137.948 217.344L147.422 214.375L145.843 159.451ZM142.333 185.614C142.333 186.564 141.28 186.698 141.28 185.74V167.927C141.28 166.985 142.333 166.844 142.333 167.801V185.614Z" fill="#C4C3C6"/>
<path d="M155.843 148.318L142.158 153.513V157.967L147.948 156.482L149.527 211.406L156.896 206.953C156.548 187.413 156.197 167.868 155.843 148.318ZM152.685 176.463C152.685 177.413 151.632 177.546 151.632 176.589V157.536C151.632 156.594 152.685 156.453 152.685 157.41V176.463Z" fill="white"/>
<path d="M140.58 116.403L122.158 122.341C122.86 137.437 123.562 152.529 124.264 167.615H127.948V160.193L134.264 157.967V151.287L141.106 148.318C140.934 137.685 140.759 127.046 140.58 116.403ZM127.069 139.597C127.069 140.547 126.016 140.681 126.016 139.723V129.087C126.016 128.137 127.069 128.004 127.069 128.961V139.597ZM132.511 135.641C132.511 136.591 131.459 136.725 131.459 135.767V126.861C131.459 125.911 132.511 125.777 132.511 126.735V135.641ZM138.475 132.917C138.486 133.113 138.443 133.307 138.353 133.458C138.263 133.608 138.135 133.702 137.996 133.719C137.857 133.735 137.719 133.673 137.613 133.547C137.506 133.42 137.439 133.239 137.427 133.043V124.879C137.415 124.682 137.459 124.487 137.55 124.336C137.64 124.185 137.769 124.09 137.909 124.074C138.048 124.057 138.187 124.119 138.294 124.246C138.401 124.374 138.468 124.556 138.48 124.753L138.475 132.917Z" fill="#C4C3C6"/>
<path d="M96.8301 164.988C100.999 164.246 105.962 166.71 109.125 170.451C112.11 173.984 115.12 180.842 115.078 186.579C115.076 191.252 115.406 195.915 116.063 200.495C116.173 201.148 116.289 201.802 116.399 202.455C115.698 186.383 114.985 170.317 114.262 154.256L91.1035 162.42L91.3246 167.074C93.0832 166.025 94.9357 165.324 96.8301 164.988Z" fill="white"/>
<path d="M131.459 127.722V126.861C131.459 125.911 132.511 125.777 132.511 126.735V128.531C133.182 129.089 133.829 129.704 134.448 130.371C138.012 134.223 139.838 140.406 140.401 146.5C140.462 147.192 140.494 147.888 140.496 148.585L141.106 148.318C140.931 137.68 140.756 127.041 140.58 116.403L122.158 122.341C122.2 123.202 122.237 124.055 122.279 124.909C125.454 124.803 128.601 125.767 131.459 127.722ZM137.427 124.879C137.421 124.782 137.429 124.683 137.45 124.59C137.471 124.497 137.505 124.41 137.55 124.336C137.595 124.261 137.649 124.199 137.711 124.154C137.772 124.109 137.84 124.082 137.909 124.074C137.978 124.065 138.048 124.076 138.114 124.106C138.18 124.136 138.241 124.183 138.294 124.246C138.347 124.31 138.391 124.387 138.423 124.474C138.455 124.56 138.474 124.655 138.48 124.753V132.917C138.492 133.113 138.448 133.307 138.358 133.458C138.268 133.608 138.14 133.702 138.001 133.719C137.862 133.735 137.724 133.673 137.618 133.547C137.511 133.42 137.445 133.239 137.433 133.043L137.427 124.879Z" fill="white"/>
</svg>
