<svg width="660" height="660" viewBox="0 0 660 660" fill="none" xmlns="http://www.w3.org/2000/svg">
<path fill-rule="evenodd" clip-rule="evenodd" d="M373.34 379.61L379.993 379.61L379.993 386.263L373.34 386.263L373.34 392.933L379.993 392.933L379.993 399.603L373.34 399.603L373.34 406.257L366.67 406.257L366.67 412.926L373.34 412.926L373.34 406.273L379.993 406.273L379.993 412.926L373.34 412.926L373.34 419.6L380.01 419.6L380.01 412.93L386.663 412.93L386.663 406.277L393.333 406.277L393.333 412.93L400.003 412.93L400.003 406.277L406.656 406.277L406.656 412.93L400.003 412.93L400.003 419.6L406.673 419.6L406.673 412.93L413.326 412.93L413.326 419.6L420 419.6L420 412.93L413.33 412.93L413.33 406.277L420 406.277L420 399.606L413.33 399.606L413.33 392.937L420 392.937L420 386.267L413.33 386.267L413.33 379.613L413.33 379.597L406.677 379.597L406.677 372.943L400.007 372.943L400.007 379.597L393.337 379.597L393.337 372.943L386.666 372.943L386.666 379.597L380.013 379.597L380.013 372.943L373.343 372.943L373.343 379.597L366.673 379.597L366.673 386.267L373.343 386.267L373.343 379.61L373.34 379.61ZM413.33 379.594L413.33 372.94L420 372.94L420 379.61L413.33 379.61L413.33 379.594ZM393.337 412.93L393.337 419.6L386.666 419.6L386.666 412.93L393.337 412.93ZM373.34 399.606L373.34 392.937L366.67 392.937L366.67 399.606L373.34 399.606ZM406.677 406.26L413.33 406.26L413.33 399.606L406.677 399.606L406.677 406.26ZM406.66 372.94L406.66 366.27L400.007 366.27L400.007 372.94L393.337 372.94L393.337 366.27L386.666 366.27L386.666 372.94L379.996 372.94L379.996 366.27L373.343 366.27L373.343 372.94L366.673 372.94L366.673 366.27L373.343 366.27L373.343 359.6L380.013 359.6L380.013 366.27L386.666 366.27L386.666 359.6L393.337 359.6L393.337 366.27L400.007 366.27L400.007 359.6L406.677 359.6L406.677 366.27L413.33 366.27L413.33 359.6L420 359.6L420 366.27L413.33 366.27L413.33 372.94L406.66 372.94ZM380.013 386.263L380.013 392.933L386.666 392.933L386.666 386.263L380.013 386.263ZM393.337 386.263L393.337 379.61L386.666 379.61L386.666 386.263L393.337 386.263ZM400.007 386.263L393.337 386.263L393.337 392.933L400.007 392.933L400.007 386.263ZM400.007 386.263L406.66 386.263L406.66 379.61L400.007 379.61L400.007 386.263ZM400.007 399.606L406.66 399.606L406.66 392.937L400.007 392.937L400.007 399.606ZM393.337 399.606L393.337 406.26L400.007 406.26L400.007 399.606L393.337 399.606ZM386.663 399.606L393.333 399.606L393.333 392.937L386.663 392.937L386.663 399.606ZM386.663 399.606L380.01 399.606L380.01 406.26L386.663 406.26L386.663 399.606ZM406.677 392.937L406.677 386.267L413.33 386.267L413.33 392.937L406.677 392.937ZM360 412.93L366.67 412.93L366.67 419.6L360 419.6L360 412.93ZM366.67 399.606L360 399.606L360 406.277L366.67 406.277L366.67 399.606ZM360 386.263L366.67 386.263L366.67 392.933L360 392.933L360 386.263ZM366.67 372.94L360 372.94L360 379.61L366.67 379.61L366.67 372.94ZM366.67 359.6L360 359.6L360 366.27L366.67 366.27L366.67 359.6Z" fill="#1F242C"/>
<path fill-rule="evenodd" clip-rule="evenodd" d="M13.3398 440.01L19.9932 440.01L19.9932 446.663L13.3398 446.663L13.3398 453.333L19.9932 453.333L19.9932 460.003L13.3398 460.003L13.3398 466.656L6.66992 466.656L6.66992 473.326L13.3398 473.326L13.3398 466.673L19.9932 466.673L19.9932 473.326L13.3398 473.326L13.3398 480L20.0098 480L20.0098 473.33L26.6631 473.33L26.6631 466.677L33.3331 466.677L33.3331 473.33L40.003 473.33L40.003 466.677L46.6564 466.677L46.6564 473.33L40.003 473.33L40.003 480L46.6735 480L46.6735 473.33L53.3264 473.33L53.3263 480L60 480L60 473.33L53.3301 473.33L53.3301 466.677L60 466.677L60 460.006L53.3301 460.006L53.3301 453.337L60 453.337L60 446.667L53.3301 446.667L53.3301 440.013L53.3301 439.997L46.6767 439.997L46.6767 433.343L40.0068 433.343L40.0068 439.997L33.3369 439.997L33.3369 433.343L26.6664 433.343L26.6664 439.997L20.013 439.997L20.013 433.343L13.3431 433.343L13.3431 439.997L6.67315 439.997L6.67315 446.667L13.3431 446.667L13.3431 440.01L13.3398 440.01ZM53.3301 439.994L53.3301 433.34L60 433.34L60 440.01L53.3301 440.01L53.3301 439.994ZM33.3368 473.33L33.3368 480L26.6664 480L26.6664 473.33L33.3368 473.33ZM13.3398 460.006L13.3398 453.336L6.66992 453.336L6.66992 460.006L13.3398 460.006ZM46.6767 466.66L53.3301 466.66L53.3301 460.006L46.6767 460.006L46.6767 466.66ZM46.6602 433.34L46.6602 426.67L40.0068 426.67L40.0068 433.34L33.3369 433.34L33.3369 426.67L26.6664 426.67L26.6664 433.34L19.9965 433.34L19.9965 426.67L13.3431 426.67L13.3431 433.34L6.67316 433.34L6.67316 426.67L13.3431 426.67L13.3431 420L20.013 420L20.013 426.67L26.6664 426.67L26.6664 420L33.3369 420L33.3369 426.67L40.0068 426.67L40.0068 420L46.6767 420L46.6767 426.67L53.3301 426.67L53.3301 420L60 420L60 426.67L53.3301 426.67L53.3301 433.34L46.6602 433.34ZM20.013 446.663L20.013 453.333L26.6664 453.333L26.6664 446.663L20.013 446.663ZM33.3369 446.663L33.3369 440.01L26.6664 440.01L26.6664 446.663L33.3369 446.663ZM40.0068 446.663L33.3369 446.663L33.3369 453.333L40.0068 453.333L40.0068 446.663ZM40.0068 446.663L46.6602 446.663L46.6602 440.01L40.0068 440.01L40.0068 446.663ZM40.0068 460.006L46.6602 460.006L46.6602 453.337L40.0068 453.337L40.0068 460.006ZM33.3368 460.006L33.3368 466.66L40.0068 466.66L40.0068 460.006L33.3368 460.006ZM26.6631 460.006L33.3331 460.006L33.3331 453.336L26.6631 453.336L26.6631 460.006ZM26.6631 460.006L20.0098 460.006L20.0098 466.66L26.6631 466.66L26.6631 460.006ZM46.6767 453.337L46.6767 446.667L53.3301 446.667L53.3301 453.337L46.6767 453.337ZM-4.66227e-06 473.33L6.66992 473.33L6.66992 480L-5.24537e-06 480L-4.66227e-06 473.33ZM6.66992 460.006L-3.49747e-06 460.006L-4.08061e-06 466.677L6.66992 466.677L6.66992 460.006ZM-2.33099e-06 446.663L6.66992 446.663L6.66992 453.333L-2.91409e-06 453.333L-2.33099e-06 446.663ZM6.66992 433.34L-1.1662e-06 433.34L-1.74934e-06 440.01L6.66992 440.01L6.66992 433.34ZM6.66992 420L0 420L-5.83098e-07 426.67L6.66992 426.67L6.66992 420Z" fill="#4038FF"/>
<path fill-rule="evenodd" clip-rule="evenodd" d="M613.34 20.0101L619.993 20.0101L619.993 26.6634L613.34 26.6634L613.34 33.3333L619.993 33.3333L619.993 40.0032L613.34 40.0032L613.34 46.6565L606.67 46.6565L606.67 53.3264L613.34 53.3264L613.34 46.673L619.993 46.673L619.993 53.3264L613.34 53.3264L613.34 60L620.01 60L620.01 53.3301L626.663 53.3301L626.663 46.6768L633.333 46.6768L633.333 53.3301L640.003 53.3301L640.003 46.6768L646.656 46.6768L646.656 53.3301L640.003 53.3301L640.003 60L646.673 60L646.673 53.3301L653.326 53.3301L653.326 60L660 60L660 53.3301L653.33 53.3301L653.33 46.6768L660 46.6768L660 40.0064L653.33 40.0064L653.33 33.3365L660 33.3365L660 26.6667L653.33 26.6667L653.33 20.0133L653.33 19.9968L646.677 19.9968L646.677 13.3435L640.007 13.3434L640.007 19.9968L633.337 19.9968L633.337 13.3434L626.666 13.3434L626.666 19.9968L620.013 19.9968L620.013 13.3434L613.343 13.3434L613.343 19.9968L606.673 19.9968L606.673 26.6666L613.343 26.6666L613.343 20.0101L613.34 20.0101ZM653.33 19.9936L653.33 13.3397L660 13.3397L660 20.0101L653.33 20.0101L653.33 19.9936ZM633.337 53.3301L633.337 60L626.666 60L626.666 53.3301L633.337 53.3301ZM613.34 40.0064L613.34 33.3365L606.67 33.3365L606.67 40.0064L613.34 40.0064ZM646.677 46.6603L653.33 46.6603L653.33 40.0064L646.677 40.0064L646.677 46.6603ZM646.66 13.3397L646.66 6.66985L640.007 6.66985L640.007 13.3397L633.337 13.3397L633.337 6.66985L626.666 6.66985L626.666 13.3397L619.996 13.3397L619.996 6.66985L613.343 6.66985L613.343 13.3397L606.673 13.3397L606.673 6.66985L613.343 6.66985L613.343 -1.93377e-05L620.013 -1.87546e-05L620.013 6.66985L626.666 6.66985L626.666 -1.81729e-05L633.337 -1.75898e-05L633.337 6.66985L640.007 6.66985L640.007 -1.70067e-05L646.677 -1.64235e-05L646.677 6.66985L653.33 6.66985L653.33 -1.58419e-05L660 -1.52588e-05L660 6.66985L653.33 6.66985L653.33 13.3397L646.66 13.3397ZM620.013 26.6634L620.013 33.3333L626.666 33.3333L626.666 26.6634L620.013 26.6634ZM633.337 26.6634L633.337 20.0101L626.666 20.0101L626.666 26.6634L633.337 26.6634ZM640.007 26.6635L633.337 26.6634L633.337 33.3333L640.007 33.3333L640.007 26.6635ZM640.007 26.6635L646.66 26.6635L646.66 20.0101L640.007 20.0101L640.007 26.6635ZM640.007 40.0064L646.66 40.0064L646.66 33.3365L640.007 33.3365L640.007 40.0064ZM633.337 40.0064L633.337 46.6602L640.007 46.6602L640.007 40.0064L633.337 40.0064ZM626.663 40.0064L633.333 40.0064L633.333 33.3365L626.663 33.3365L626.663 40.0064ZM626.663 40.0064L620.01 40.0064L620.01 46.6602L626.663 46.6602L626.663 40.0064ZM646.677 33.3365L646.677 26.6666L653.33 26.6667L653.33 33.3365L646.677 33.3365ZM600 53.3301L606.67 53.3301L606.67 60L600 60L600 53.3301ZM606.67 40.0064L600 40.0064L600 46.6768L606.67 46.6768L606.67 40.0064ZM600 26.6634L606.67 26.6634L606.67 33.3333L600 33.3333L600 26.6634ZM606.67 13.3397L600 13.3397L600 20.0101L606.67 20.0101L606.67 13.3397ZM606.67 -1.99211e-05L600 -2.05042e-05L600 6.66985L606.67 6.66985L606.67 -1.99211e-05ZM426.67 359.6L420 359.6L420 299.6L426.67 299.6L426.67 359.6ZM433.333 359.6L440 359.6L440 299.6L433.333 299.6L433.333 359.6ZM446.666 359.6L453.333 359.6L453.333 299.6L446.666 299.6L446.666 359.6ZM466.667 359.6L460 359.6L460 299.6L466.667 299.6L466.667 359.6ZM473.333 359.6L480 359.6L480 299.6L473.333 299.6L473.333 359.6Z" fill="white"/>
<path fill-rule="evenodd" clip-rule="evenodd" d="M299 485.67L299 479L359 479L359 485.67L299 485.67ZM299 492.333L299 499L359 499L359 492.333L299 492.333ZM299 505.667L299 512.333L359 512.333L359 505.667L299 505.667ZM299 525.667L299 519L359 519L359 525.667L299 525.667ZM299 532.333L299 539L359 539L359 532.333L299 532.333Z" fill="#4038FF"/>
<path fill-rule="evenodd" clip-rule="evenodd" d="M360 113.33L360 120L420 120L420 113.33L360 113.33ZM360 93.3267L360 86.6567L420 86.6567L420 93.3267L360 93.3267ZM360 73.3234L360 79.9933L420 79.9933L420 73.3234L360 73.3234ZM360 60L360 66.67L420 66.67L420 60L360 60ZM360 106.66L360 99.99L420 99.99L420 106.66L360 106.66ZM473.333 300L480 300C480 266.863 453.137 240 420 240L420 246.667C449.457 246.667 473.333 270.543 473.333 300ZM460 300L466.667 300C466.667 274.227 445.773 253.333 420 253.333L420 260C442.09 260 460 277.91 460 300ZM453.333 300L446.666 300C446.666 285.273 434.727 273.333 420 273.333L420 266.667C438.41 266.667 453.333 281.59 453.333 300ZM433.333 300L440 300C440 288.953 431.047 280 420 280L420 286.667C427.363 286.667 433.333 292.637 433.333 300ZM420 300L426.667 300C426.667 296.317 423.683 293.333 420 293.333L420 300Z" fill="#1F242C"/>
<path fill-rule="evenodd" clip-rule="evenodd" d="M60 186.267L60 179.6C26.8635 179.6 -2.34847e-06 206.463 -5.24537e-06 239.6L6.66665 239.6C6.66665 210.143 30.5435 186.267 60 186.267ZM60 199.6L60 192.933C34.2267 192.933 13.3333 213.827 13.3333 239.6L20 239.6C20 217.51 37.9099 199.6 60 199.6ZM60 206.267L60 212.934C45.2731 212.934 33.3333 224.873 33.3333 239.6L26.6667 239.6C26.6667 221.19 41.5899 206.267 60 206.267ZM60 226.267L60 219.6C48.9531 219.6 40 228.553 40 239.6L46.6667 239.6C46.6667 232.237 52.6368 226.267 60 226.267ZM60 239.6L60 232.933C56.3168 232.933 53.3333 235.917 53.3333 239.6L60 239.6Z" fill="#1F242C"/>
<path d="M240 180L240 240L180 240C180 206.863 206.863 180 240 180Z" fill="#4038FF"/>
<path d="M540 359.6L540 299.6L600 299.6C600 332.737 573.137 359.6 540 359.6Z" fill="#4038FF"/>
<path d="M238 539.6L298 539.6L298 599.6C264.863 599.6 238 572.737 238 539.6Z" fill="#1F242C"/>
<path fill-rule="evenodd" clip-rule="evenodd" d="M653.33 479.6L660 479.6L660 419.6L653.33 419.6L653.33 479.6ZM633.327 479.6L626.657 479.6L626.657 419.6L633.327 419.6L633.327 479.6ZM613.323 479.6L619.993 479.6L619.993 419.6L613.323 419.6L613.323 479.6ZM600 479.6L606.67 479.6L606.67 419.6L600 419.6L600 479.6ZM646.66 479.6L639.99 479.6L639.99 419.6L646.66 419.6L646.66 479.6Z" fill="#1F242C"/>
<path fill-rule="evenodd" clip-rule="evenodd" d="M172.73 120L179.4 120L179.4 60.0001L172.73 60.0001L172.73 120ZM152.727 120L146.057 120L146.057 60.0001L152.727 60.0001L152.727 120ZM132.724 120L139.394 120L139.394 60.0001L132.724 60.0001L132.724 120ZM119.4 120L126.07 120L126.07 60.0001L119.4 60.0001L119.4 120ZM166.061 120L159.391 120L159.391 60.0001L166.061 60.0001L166.061 120Z" fill="#4038FF"/>
<g clip-path="url(#clip0_268_57773)">
<path d="M401.642 454.65L539.017 431.641C565.597 425.562 581.95 419.15 590.598 415.312C593.848 413.933 597.016 412.196 600.072 410.117C612.747 401.448 620.763 388.593 625.337 379.686L625.573 312.538C624.142 288.558 535.859 269.008 415.038 263.315C414.948 262.024 414.864 260.74 414.775 259.448H408.985V247.573L401.09 240.893L389.51 244.604L381.089 252.026V262.105C366.936 261.756 352.435 261.601 337.666 261.638C337.578 255.7 337.491 249.762 337.403 243.825L331.087 242.34C330.911 236.403 330.736 230.465 330.56 224.527C330.213 223.785 329.86 223.043 329.508 222.301C328.806 219.332 328.104 216.363 327.402 213.394C327.439 211.875 327.26 210.361 326.876 208.941C326.676 208.199 325.218 202.855 322.665 203.003C321.086 203.1 319.592 205.23 318.981 208.199L317.402 217.847C317.055 218.345 316.702 218.842 316.349 219.332L313.191 226.754C313.37 231.702 313.546 236.65 313.718 241.598L306.875 243.825V262.001C154.147 265.245 33.8948 289.285 34.0001 317.511C34.0094 318.445 34.1414 319.369 34.3896 320.235L36.3633 363.358C36.4915 368.493 37.7827 373.435 40.0477 377.46C41.9774 380.836 44.5258 383.403 47.4164 384.882C47.5954 391.314 47.7708 397.747 47.9428 404.179C60.2167 412.136 72.8817 418.833 85.8392 424.219C97.24 428.963 108.843 432.681 120.578 435.352C150.053 443.516 249.531 465.04 401.642 454.65Z" fill="black" stroke="black" stroke-width="16" stroke-miterlimit="10"/>
<path d="M364.173 261.408C355.295 261.289 346.295 261.242 337.172 261.267V264.889C345.53 264.859 353.776 264.901 361.91 265.015L364.173 261.408Z" fill="white"/>
<path d="M364.014 265.044C368.277 265.109 372.509 265.19 376.709 265.289L381.383 264.273V261.734C376.386 261.615 371.346 261.516 366.261 261.437C365.508 262.647 364.756 263.842 364.014 265.044Z" fill="white"/>
<path d="M66.1074 313.941C66.1074 310.549 68.1022 307.261 71.8971 304.018L70.1023 303.81C66.1513 303.281 62.1879 302.749 58.2123 302.214C54.8017 301.754 51.3927 301.284 47.9856 300.804C39.0378 306 34.2271 311.485 34.2481 317.133C34.2481 323.152 39.7641 328.897 49.8751 334.204C56.8017 332.254 63.7319 330.31 70.6655 328.37L76.3342 326.804C69.6865 322.766 66.1074 318.439 66.1074 313.941Z" fill="#C4C3C6"/>
<path d="M99.0238 283.147C78.644 287.912 62.3801 293.271 51.248 299.03L61.2011 300.388L71.8016 301.799C72.6806 301.917 73.5648 301.992 74.4333 302.081C81.3073 297.293 92.2341 292.759 106.514 288.617C104.036 286.761 101.54 284.938 99.0238 283.147Z" fill="#C4C3C6"/>
<path d="M269.895 266.625C282.337 266.012 295.092 265.557 308.16 265.26C308.16 264.042 308.107 262.825 308.075 261.615C294.741 261.893 281.676 262.325 268.879 262.914C269.221 264.146 269.563 265.386 269.895 266.625Z" fill="#C4C3C6"/>
<path d="M267.205 262.989C259.099 263.37 251.123 263.805 243.277 264.295C243.614 265.579 243.967 266.855 244.33 268.132C252.141 267.588 260.11 267.113 268.236 266.707C267.892 265.47 267.549 264.23 267.205 262.989Z" fill="#C4C3C6"/>
<path d="M241.61 264.399C231.515 265.047 221.662 265.789 212.051 266.625C212.953 267.917 213.842 269.221 214.719 270.537C223.751 269.691 233.05 268.929 242.615 268.251C242.282 266.969 241.947 265.685 241.61 264.399Z" fill="#C4C3C6"/>
<path d="M209.975 266.796C197.243 267.917 184.984 269.193 173.273 270.611L176.163 274.923C187.679 273.365 199.89 271.954 212.686 270.722C211.791 269.401 210.887 268.092 209.975 266.796Z" fill="#C4C3C6"/>
<path d="M171.281 270.849C162.098 271.977 153.271 273.191 144.801 274.493C146.001 276.066 147.206 277.647 148.411 279.213C156.533 277.781 165.144 276.437 174.202 275.19L171.281 270.849Z" fill="#C4C3C6"/>
<path d="M145.8 278.842L142.726 274.812C127.741 277.15 113.978 279.733 101.672 282.538C104.128 284.305 106.562 286.101 108.972 287.927C119.741 284.913 132.305 282.115 146.384 279.584L145.8 278.842Z" fill="#C4C3C6"/>
<path d="M67.186 331.628C62.3822 332.989 57.5768 334.34 52.7695 335.681C67.386 342.687 90.108 348.929 118.893 354.036L139.452 345.827C112.325 341.002 91.4449 335.05 79.0181 328.362C75.0705 329.426 71.1265 330.515 67.186 331.628Z" fill="#C4C3C6"/>
<path d="M436.985 264.132C429.638 263.671 422.157 263.263 414.542 262.907V264.273L411.311 266.551C419.472 266.962 427.453 267.437 435.254 267.976C435.822 266.692 436.406 265.386 436.985 264.132Z" fill="#C4C3C6"/>
<path d="M472.741 266.87C461.824 265.881 450.506 264.995 438.786 264.213C438.202 265.497 437.628 266.789 437.055 268.073C448.715 268.914 459.896 269.896 470.598 271.019C471.304 269.631 472.014 268.258 472.741 266.87Z" fill="#C4C3C6"/>
<path d="M513.175 271.472C501.069 269.824 488.174 268.355 474.631 267.078C473.901 268.424 473.171 269.802 472.441 271.212C485.974 272.645 498.658 274.3 510.338 276.148C511.296 274.582 512.227 273.016 513.175 271.472Z" fill="#C4C3C6"/>
<path d="M557.007 278.872C544.427 276.237 530.379 273.847 515.084 271.732C514.122 273.29 513.173 274.864 512.236 276.452C527.126 278.85 540.369 281.566 551.654 284.55C553.45 282.66 555.235 280.767 557.007 278.872Z" fill="#C4C3C6"/>
<path d="M603.8 292.566C592.625 287.719 577.514 283.266 559.171 279.332C557.371 281.277 555.564 283.204 553.75 285.114C569.909 289.567 581.814 294.503 588.488 299.869C593.608 297.533 598.712 295.099 603.8 292.566Z" fill="#C4C3C6"/>
<path d="M533.117 352.432C552.639 348.944 569.655 345.01 583.593 340.705C579.322 339.008 575.066 337.259 570.824 335.458C568.368 334.414 565.901 333.343 563.423 332.244C552.265 336.037 538.385 339.555 522.264 342.709C525.892 345.96 529.51 349.201 533.117 352.432Z" fill="#C4C3C6"/>
<path d="M481.419 359.899C499.115 357.858 515.631 355.498 530.669 352.863C528.914 351.289 527.147 349.708 525.368 348.12L519.868 343.17C506.367 345.745 491.356 348.061 475.098 350.087C477.185 353.397 479.293 356.668 481.419 359.899Z" fill="#C4C3C6"/>
<path d="M439.25 363.981C453.198 362.868 466.62 361.584 479.431 360.122C477.326 356.895 475.234 353.627 473.157 350.317C460.667 351.846 447.451 353.197 433.629 354.347C435.52 357.539 437.394 360.75 439.25 363.981Z" fill="#C4C3C6"/>
<path d="M391.016 366.965C406.959 366.223 422.428 365.287 437.334 364.13C435.471 360.908 433.594 357.692 431.702 354.481C417.57 355.639 402.817 356.581 387.574 357.294C388.736 360.515 389.883 363.739 391.016 366.965Z" fill="#C4C3C6"/>
<path d="M340.014 363.12C340.147 364.892 340.275 366.666 340.398 368.442C357.088 368.219 373.426 367.744 389.295 367.039C388.158 363.808 386.998 360.592 385.816 357.39C370.873 358.073 355.457 358.533 339.688 358.749C339.8 360.208 339.909 361.665 340.014 363.12Z" fill="#C4C3C6"/>
<path d="M338.098 358.786C335.571 358.815 333.033 358.84 330.482 358.86C319.604 358.949 308.902 358.917 298.375 358.763C298.517 362.007 298.654 365.243 298.801 368.486C309.139 368.605 319.623 368.627 330.255 368.553C333.112 368.553 335.961 368.523 338.803 368.464C338.579 365.238 338.343 362.012 338.098 358.786Z" fill="#C4C3C6"/>
<path d="M264.163 357.962C264.114 361.208 264.06 364.454 264 367.7C274.878 368.066 285.954 368.313 297.228 368.442C297.08 365.198 296.944 361.955 296.801 358.711C285.696 358.548 274.818 358.261 264.168 357.85L264.163 357.962Z" fill="#C4C3C6"/>
<path d="M262.594 357.821C248.204 357.257 234.298 356.477 220.982 355.498L203.434 364.337C222.103 365.822 241.856 366.92 262.431 367.64C262.491 364.37 262.545 361.096 262.594 357.821Z" fill="#C4C3C6"/>
<path d="M594.55 309.844C594.55 317.459 584.418 324.688 566.375 331.22C569.396 332.534 572.423 333.84 575.454 335.102C579.24 336.675 583.034 338.204 586.834 339.689C611.703 331.643 625.904 322.432 625.867 312.724C625.867 305.963 618.919 299.55 606.303 293.686C602.966 295.349 599.619 296.982 596.261 298.585C594.25 299.545 592.236 300.485 590.218 301.405C593.039 304.129 594.55 306.95 594.55 309.844Z" fill="#C4C3C6"/>
<path d="M337.172 271.324H356.646C356.997 270.116 357.348 268.911 357.699 267.709H374.542L376.705 267.249C363.82 266.974 350.62 266.87 337.172 266.87V271.324Z" fill="#C4C3C6"/>
<path d="M88.5539 332.615C90.2066 332.222 91.8593 331.829 93.5173 331.457C97.4649 330.582 101.412 329.973 105.407 329.312L108.871 328.734C99.7913 324.518 94.8068 319.931 94.7858 315.114C94.8084 313.819 95.1238 312.568 95.6858 311.544C87.2644 311.297 78.8518 310.873 70.4479 310.275L69.3952 310.193C68.6566 311.448 68.2394 313.016 68.2109 314.646C68.2109 321.052 75.2112 327.153 88.5539 332.615Z" fill="#C4C3C6"/>
<path d="M102.951 331.955C99.3561 332.541 95.777 333.246 92.2031 334.033C100.561 337.128 111.025 339.971 123.478 342.62V334.159C119.431 332.92 115.767 331.643 112.515 330.314C109.325 330.938 106.109 331.443 102.951 331.955Z" fill="#C4C3C6"/>
<path d="M99.3547 292.64C85.0435 297.39 75.1957 302.6 70.8008 308.07C78.4994 308.63 86.205 309.03 93.9176 309.273L97.1283 309.362C99.8652 306.037 104.939 302.83 112.045 299.787C107.845 297.294 103.615 294.911 99.3547 292.64Z" fill="#C4C3C6"/>
<path d="M161.712 278.805C152.011 280.289 142.911 281.907 134.5 283.614C136.784 285.915 139.034 288.281 141.248 290.71C148.948 288.884 157.48 287.162 166.733 285.567C165.112 283.236 163.438 280.982 161.712 278.805Z" fill="#C4C3C6"/>
<path d="M227.135 277.261C226.819 275.322 226.523 273.377 226.246 271.427C216.956 272.17 207.945 273.045 199.266 273.981C200.385 276.118 201.478 278.285 202.545 280.482C210.44 279.555 218.714 278.701 227.251 277.929C227.214 277.677 227.167 277.454 227.135 277.261Z" fill="#C4C3C6"/>
<path d="M257.195 269.245C247.135 269.824 237.349 270.5 227.836 271.272C228.152 273.439 228.483 275.606 228.847 277.759C238.147 276.935 247.795 276.207 257.716 275.591C257.509 273.483 257.336 271.368 257.195 269.245Z" fill="#C4C3C6"/>
<path d="M308.159 267.241C291.147 267.612 274.641 268.258 258.762 269.156C258.909 271.274 259.085 273.387 259.288 275.495C269.741 274.861 280.489 274.352 291.532 273.966L296.116 272.808L297.411 273.795L301.095 273.691C301.2 272.429 301.3 271.175 301.4 269.921H303.506C303.637 271.153 303.764 272.385 303.89 273.632L305.59 273.55V271.324L308.222 269.839L308.159 267.241Z" fill="#C4C3C6"/>
<path d="M197.407 274.151C185.585 275.45 174.369 276.897 163.848 278.486C165.532 280.658 167.158 282.907 168.727 285.233C178.622 283.563 189.338 282.041 200.739 280.668C199.655 278.471 198.544 276.299 197.407 274.151Z" fill="#C4C3C6"/>
<path d="M132.248 284.082C120.842 286.457 110.731 289.025 102.109 291.749C106.246 294.001 110.357 296.351 114.441 298.8C122.576 295.686 130.816 293.154 139.132 291.215C136.872 288.775 134.577 286.398 132.248 284.082Z" fill="#C4C3C6"/>
<path d="M276.185 352.9C270.287 352.717 264.472 352.489 258.742 352.217V355.705C264.314 355.938 269.96 356.136 275.68 356.299L276.185 352.9Z" fill="#C4C3C6"/>
<path d="M316.117 353.56C303.032 353.56 290.232 353.33 277.8 352.952L277.273 356.336C289.906 356.693 302.917 356.886 316.159 356.908C316.154 355.795 316.117 354.681 316.117 353.56Z" fill="#C4C3C6"/>
<path d="M354.608 353.093C346.127 353.316 337.518 353.461 328.781 353.531C325.054 353.531 321.351 353.531 317.67 353.531C317.67 354.651 317.717 355.757 317.733 356.878C321.944 356.878 326.193 356.866 330.481 356.841C339.13 356.777 347.643 356.648 356.019 356.455C355.535 355.364 355.066 354.228 354.608 353.093Z" fill="#C4C3C6"/>
<path d="M402.548 350.933C387.773 351.891 372.336 352.603 356.414 353.041C356.883 354.184 357.367 355.32 357.856 356.44C374.336 356.054 390.247 355.423 405.479 354.577C404.504 353.39 403.527 352.175 402.548 350.933Z" fill="#C4C3C6"/>
<path d="M444.292 347.422C431.797 348.736 418.586 349.872 404.785 350.785C405.785 352.032 406.801 353.256 407.833 354.444C422.375 353.612 436.287 352.581 449.466 351.364C447.719 350.117 445.994 348.803 444.292 347.422Z" fill="#C4C3C6"/>
<path d="M480.298 342.813C469.982 344.402 458.892 345.841 447.139 347.118C448.935 348.499 450.753 349.815 452.592 351.067C464.782 349.909 476.294 348.598 487.13 347.133C484.809 345.827 482.524 344.394 480.298 342.813Z" fill="#C4C3C6"/>
<path d="M560.643 330.626C556.227 329.201 551.833 327.657 547.485 325.928C540.964 328.941 532.458 331.806 522.221 334.463L524.852 335.584C527.484 336.697 530.058 337.878 532.674 338.954L533.011 339.087C544.111 336.564 553.654 333.81 561.433 330.878L560.643 330.626Z" fill="#C4C3C6"/>
<path d="M431.211 269.639C429.997 271.826 428.785 274.02 427.574 276.222C439.354 277.083 450.602 278.107 461.218 279.287L466.039 272.533C455.049 271.415 443.44 270.45 431.211 269.639Z" fill="#C4C3C6"/>
<path d="M429.281 269.513C423.417 269.132 417.424 268.795 411.301 268.503L410.322 269.179V271.324L404.543 273.55V274.827C411.754 275.198 418.794 275.628 425.665 276.118C426.865 273.892 428.076 271.695 429.281 269.513Z" fill="#C4C3C6"/>
<path d="M468.124 272.749L463.281 279.488C475.208 280.846 486.314 282.397 496.441 284.119C499.42 281.752 502.499 279.614 505.625 277.647C494.177 275.821 481.645 274.166 468.124 272.749Z" fill="#C4C3C6"/>
<path d="M508.727 278.189C505.6 280.059 502.521 282.071 499.516 284.305L499.121 284.609C509.416 286.42 518.669 288.402 526.717 290.547C530.401 288.573 534.038 286.383 537.633 284.06C529.028 281.937 519.364 279.97 508.727 278.189Z" fill="#C4C3C6"/>
<path d="M540.337 284.735C536.811 287.073 533.242 289.292 529.621 291.333C540.395 294.362 548.806 297.672 554.417 301.205C560.575 299.787 566.712 298.095 572.839 296.544C565.196 292.276 554.227 288.298 540.337 284.735Z" fill="#C4C3C6"/>
<path d="M575.524 298.132C573.445 298.644 571.366 299.179 569.287 299.713C565.16 300.782 561.018 301.888 556.865 302.89C560.549 305.688 562.46 308.597 562.476 311.611C562.476 316.138 558.133 320.517 550.102 324.644C554.923 326.477 559.786 328.11 564.671 329.609C578.234 324.072 585.603 317.905 585.603 311.329C585.572 306.742 582.098 302.311 575.524 298.132Z" fill="#C4C3C6"/>
<path d="M529.285 339.844C525.822 338.36 522.306 336.965 518.858 335.324C508.521 337.878 496.578 340.238 483.299 342.346C485.704 343.927 488.157 345.315 490.641 346.651C504.968 344.639 517.953 342.375 529.406 339.889L529.285 339.844Z" fill="#C4C3C6"/>
<path d="M123.973 335.376C125.405 335.035 126.842 334.694 128.284 334.374C131.71 333.632 135.163 333.053 138.611 332.474C139.616 332.311 140.616 332.14 141.621 331.962C133.679 328.711 129.321 325.112 129.273 321.245C129.288 320.192 129.555 319.176 130.031 318.365C122.705 318.301 115.38 318.088 108.057 317.727L107.125 317.675C106.501 318.664 106.146 319.935 106.125 321.259C106.193 326.425 112.32 331.198 123.973 335.376Z" fill="#C4C3C6"/>
<path d="M133.093 303.157C120.667 307.187 112.135 311.507 108.355 315.96C115.068 316.287 121.779 316.492 128.488 316.576C129.42 316.576 130.351 316.576 131.283 316.576C133.636 313.874 138.03 311.225 144.194 308.679C140.52 306.759 136.82 304.918 133.093 303.157Z" fill="#C4C3C6"/>
<path d="M187.26 291.141C178.838 292.477 170.943 293.902 163.611 295.401C165.629 297.212 167.603 299.082 169.533 301.012C176.222 299.431 183.633 297.924 191.681 296.507C190.249 294.636 188.776 292.848 187.26 291.141Z" fill="#C4C3C6"/>
<path d="M244.188 288.899C243.893 287.348 243.625 285.789 243.367 284.231C235.293 284.973 227.456 285.804 219.908 286.687C220.898 288.38 221.863 290.111 222.803 291.883C229.695 291.022 236.856 290.218 244.288 289.471C244.257 289.255 244.22 289.077 244.188 288.899Z" fill="#C4C3C6"/>
<path d="M257.169 288.231L257.427 287.83C255.763 286.442 254.084 285.025 252.437 283.436C249.858 283.654 247.303 283.877 244.773 284.104C245.058 285.841 245.365 287.573 245.695 289.3C249.437 288.921 253.269 288.565 257.169 288.231Z" fill="#C4C3C6"/>
<path d="M218.292 286.91C208.013 288.127 198.26 289.456 189.117 290.881C190.596 292.603 192.033 294.377 193.407 296.225C202.012 294.74 211.302 293.352 221.234 292.083C220.276 290.312 219.296 288.587 218.292 286.91Z" fill="#C4C3C6"/>
<path d="M161.653 295.817C151.748 297.887 142.968 300.099 135.479 302.415C139.1 304.152 142.693 305.975 146.258 307.885C152.084 305.658 159.29 303.476 167.696 301.435C165.713 299.5 163.699 297.628 161.653 295.817Z" fill="#C4C3C6"/>
<path d="M305.669 275.116H303.953L304.095 276.482L305.674 275.74L305.669 275.116Z" fill="white"/>
<path d="M300.949 277.959L301.17 275.228L297.518 275.339L300.949 277.959Z" fill="white"/>
<path d="M404.268 276.356V277.959L400.326 279.443C491.041 283.822 557.444 297.694 561.454 314.802C561.585 314.265 561.651 313.7 561.649 313.132C561.586 295.542 495.783 281.084 404.268 276.356Z" fill="black"/>
<path d="M279.442 278.686L291.675 275.524C180.485 279.399 95.5344 296.625 95.6133 316.628C95.616 317.179 95.6817 317.725 95.8081 318.246C100.114 299.758 176.817 283.941 278.363 279.347L279.442 278.686Z" fill="white"/>
<path d="M338.07 270.626C344.664 270.626 351.195 270.646 357.666 270.685C357.95 269.706 358.24 268.718 358.524 267.716H375.309L377.461 267.256C364.629 266.959 351.476 266.826 338.07 266.863V270.626Z" fill="white"/>
<path d="M411.953 268.503L410.974 269.179V271.324L408.947 272.066C513.162 276.868 589.74 292.848 594.319 312.509C594.464 311.914 594.542 311.29 594.55 310.661C594.461 290.294 517.821 273.632 411.953 268.503Z" fill="black"/>
<path d="M302.432 269.899H304.537L304.664 271.086L307.169 271.027L309.217 269.899L309.159 267.241C174 270.21 67.8481 290.658 67.9376 314.624C67.9438 315.252 68.0184 315.876 68.1586 316.472C73.422 293.731 173.984 274.537 302.3 271.145C302.337 270.73 302.369 270.314 302.432 269.899Z" fill="white"/>
<path d="M327.955 246.831V282.457L335.85 279.488V245.346L327.955 246.831ZM331.982 259.329C331.966 259.441 331.932 259.546 331.882 259.636C331.833 259.726 331.77 259.799 331.697 259.849V273.899C331.697 274.849 330.645 274.99 330.645 274.033V254.401C330.645 253.451 331.697 253.317 331.697 254.275C331.817 254.293 331.929 254.368 332.015 254.488C332.1 254.609 332.153 254.766 332.166 254.936C332.205 256.405 332.143 257.877 331.982 259.329ZM334.613 268.125C334.613 269.075 333.561 269.216 333.561 268.258V252.917C333.561 251.967 334.613 251.833 334.613 252.791V268.125Z" fill="white"/>
<path d="M315.064 247.202V265.015L325.591 270.952V282.828H327.17V247.202H315.064ZM321.644 257.652C321.65 257.75 321.643 257.848 321.622 257.942C321.602 258.035 321.568 258.122 321.524 258.197C321.479 258.272 321.425 258.334 321.363 258.38C321.301 258.425 321.234 258.453 321.165 258.461C321.026 258.477 320.888 258.416 320.781 258.289C320.675 258.162 320.608 257.981 320.596 257.786V255.062C320.585 254.866 320.628 254.672 320.718 254.521C320.808 254.371 320.936 254.277 321.075 254.26C321.214 254.244 321.352 254.306 321.458 254.432C321.565 254.559 321.632 254.74 321.644 254.936V257.652Z" fill="#C4C3C6"/>
<path d="M314.539 267.241L321.381 271.695V284.312L324.54 283.57V271.695L314.539 265.757V267.241Z" fill="white"/>
<path d="M318.223 243.491C320.133 243.985 322.07 244.234 324.012 244.233C325.954 244.235 327.892 243.986 329.802 243.491C329.627 237.805 329.451 232.115 329.276 226.42C327.591 227.318 325.813 227.82 324.012 227.904C322.416 227.985 320.82 227.735 319.275 227.162C319.315 227.406 319.315 227.66 319.275 227.904C319.196 228.252 319.059 228.567 318.876 228.826C318.693 229.084 318.469 229.277 318.223 229.389C318.953 229.055 319.734 229.017 320.479 229.279C321.223 229.542 321.901 230.094 322.433 230.873C323.207 232.135 323.881 234.636 322.96 236.069C322.609 236.514 322.179 236.818 321.716 236.948C321.253 237.079 320.774 237.031 320.328 236.811C321.47 237.442 322.397 238.585 322.433 239.78C322.481 241.457 320.818 243.602 318.223 243.491Z" fill="white"/>
<path d="M336.645 274.663V268.726H355.066L350.329 274.663H336.645Z" fill="#C4C3C6"/>
<path d="M350.855 276.89L355.593 270.952V269.468L350.855 275.406V276.89Z" fill="white"/>
<path d="M343.483 277.194C348.826 277.194 353.157 276.726 353.157 276.148C353.157 275.57 348.826 275.101 343.483 275.101C338.14 275.101 333.809 275.57 333.809 276.148C333.809 276.726 338.14 277.194 343.483 277.194Z" fill="#C4C3C6"/>
<path d="M351.383 279.117L358.225 285.054L367.699 281.343L362.962 275.406L351.383 279.117Z" fill="white"/>
<path d="M358.225 286.539V298.414L368.225 293.219V282.828L358.225 286.539ZM360.472 294.332C360.484 294.528 360.44 294.722 360.35 294.872C360.26 295.023 360.132 295.117 359.993 295.134C359.924 295.143 359.854 295.133 359.788 295.104C359.721 295.075 359.66 295.027 359.606 294.964C359.553 294.902 359.509 294.825 359.477 294.738C359.445 294.651 359.425 294.556 359.419 294.458V289.678C359.413 289.581 359.42 289.482 359.441 289.389C359.461 289.295 359.495 289.208 359.539 289.133C359.584 289.058 359.639 288.996 359.7 288.951C359.762 288.905 359.829 288.878 359.898 288.869C359.968 288.86 360.037 288.87 360.104 288.9C360.17 288.929 360.232 288.976 360.285 289.039C360.338 289.101 360.382 289.178 360.414 289.265C360.447 289.352 360.466 289.447 360.472 289.545V294.332ZM363.277 292.848C363.289 293.043 363.245 293.238 363.155 293.388C363.066 293.538 362.937 293.632 362.799 293.649C362.66 293.666 362.522 293.604 362.415 293.477C362.309 293.351 362.242 293.17 362.23 292.974V288.194C362.224 288.096 362.231 287.998 362.251 287.905C362.272 287.811 362.306 287.724 362.35 287.649C362.395 287.574 362.449 287.512 362.511 287.466C362.572 287.421 362.64 287.393 362.709 287.385C362.848 287.369 362.986 287.43 363.092 287.557C363.199 287.684 363.265 287.865 363.277 288.06V292.848ZM366.083 290.205C366.089 290.303 366.082 290.401 366.062 290.495C366.041 290.588 366.007 290.675 365.963 290.751C365.918 290.826 365.864 290.888 365.802 290.933C365.74 290.978 365.673 291.006 365.604 291.014C365.465 291.031 365.327 290.969 365.221 290.842C365.114 290.716 365.048 290.535 365.035 290.339V287.199C365.024 287.004 365.068 286.809 365.157 286.659C365.247 286.509 365.376 286.415 365.514 286.398C365.653 286.381 365.791 286.443 365.898 286.57C366.004 286.696 366.071 286.878 366.083 287.073V290.205Z" fill="white"/>
<path d="M318.223 305.094C327.334 304.931 334.602 305.005 339.276 305.094C339.276 305.094 359.103 305.473 374.015 299.156C375.262 298.629 378.178 297.36 378.225 295.445C378.216 295.16 378.165 294.88 378.074 294.624C377.983 294.369 377.855 294.143 377.699 293.961C375.667 290.992 370.599 290.376 369.277 290.25V294.703L358.751 299.899H328.749L318.223 305.094Z" fill="white"/>
<path d="M312.434 316.969L317.171 314.001C319.523 314.001 322.96 314.001 327.171 314.001C339.245 313.926 345.282 313.889 352.435 313.258C363.567 312.286 369.699 310.713 376.121 307.321C377.236 306.734 378.142 306.207 378.752 305.836V301.383C380.766 301.589 382.733 302.345 384.542 303.61C385.34 304.171 386.101 304.831 386.816 305.584C386.907 305.68 386.979 305.809 387.023 305.957C387.067 306.105 387.082 306.268 387.066 306.427C387.051 306.586 387.005 306.737 386.934 306.862C386.863 306.988 386.77 307.085 386.663 307.143C384.5 308.293 381.631 309.696 378.242 311.032C367.752 315.151 359.399 315.789 351.398 316.227C340.424 316.828 327.329 317.214 312.434 316.969Z" fill="white"/>
<path d="M378.752 296.93V299.899C382.35 300.837 385.762 302.863 388.752 305.836C388.965 305.648 389.145 305.394 389.279 305.094C389.446 304.635 389.532 304.126 389.532 303.61C389.532 303.094 389.446 302.585 389.279 302.125C386.064 299.38 382.479 297.61 378.752 296.93Z" fill="#C4C3C6"/>
<path d="M339.535 351.111H329.803V344.431C333.011 345.421 336.332 345.421 339.54 344.431L339.535 351.111Z" fill="#C4C3C6"/>
<path d="M359.009 350.369H351.383V342.576C352.304 342.843 356.473 342.947 359.015 341.834L359.009 350.369Z" fill="#C4C3C6"/>
<path d="M375.442 349.694L368.752 349.998V338.865C371.009 339.121 373.28 338.776 375.447 337.848L375.442 349.694Z" fill="#C4C3C6"/>
<path d="M385.851 348.951L381.383 349.256V336.638C382.912 336.892 384.462 336.54 385.857 335.621L385.851 348.951Z" fill="#C4C3C6"/>
<path d="M390.59 348.194L388.227 348.513V333.981C389.071 333.955 389.893 333.59 390.595 332.927L390.59 348.194Z" fill="#C4C3C6"/>
<path d="M310.855 293.961C311.034 300.888 311.21 307.816 311.382 314.743L312.961 314.001V305.836L326.646 299.646V287.652L310.855 293.961ZM315.066 300.129C315.078 300.325 315.034 300.519 314.944 300.669C314.854 300.819 314.726 300.913 314.587 300.93C314.448 300.947 314.311 300.885 314.204 300.758C314.097 300.632 314.031 300.451 314.019 300.255V295.638C314.012 295.541 314.02 295.442 314.04 295.349C314.061 295.255 314.094 295.168 314.139 295.093C314.183 295.018 314.238 294.956 314.3 294.911C314.361 294.865 314.428 294.838 314.498 294.829C314.637 294.813 314.774 294.875 314.881 295.001C314.988 295.128 315.054 295.309 315.066 295.505V300.129ZM318.345 297.813C318.352 297.911 318.345 298.009 318.324 298.103C318.303 298.196 318.27 298.283 318.225 298.358C318.181 298.433 318.126 298.496 318.064 298.541C318.003 298.586 317.936 298.614 317.866 298.622C317.797 298.631 317.727 298.621 317.661 298.592C317.595 298.563 317.533 298.516 317.48 298.453C317.426 298.39 317.382 298.313 317.35 298.226C317.318 298.139 317.299 298.044 317.293 297.947V294.644C317.281 294.448 317.325 294.254 317.415 294.103C317.504 293.953 317.633 293.859 317.772 293.842C317.841 293.833 317.911 293.843 317.977 293.872C318.043 293.901 318.105 293.949 318.158 294.011C318.212 294.074 318.256 294.151 318.288 294.238C318.32 294.325 318.339 294.42 318.345 294.518V297.813ZM321.619 297.323C321.631 297.519 321.587 297.713 321.497 297.864C321.407 298.014 321.279 298.108 321.14 298.125C321.001 298.141 320.863 298.079 320.757 297.953C320.65 297.826 320.584 297.645 320.572 297.449V292.848C320.56 292.652 320.604 292.458 320.694 292.307C320.783 292.157 320.912 292.063 321.051 292.046C321.189 292.03 321.327 292.091 321.434 292.218C321.54 292.345 321.607 292.526 321.619 292.722V297.323ZM325.009 295.342C325.02 295.537 324.977 295.732 324.887 295.882C324.797 296.032 324.669 296.126 324.53 296.143C324.392 296.16 324.255 296.099 324.148 295.974C324.042 295.849 323.975 295.67 323.961 295.475V291.185C323.955 291.088 323.962 290.989 323.983 290.896C324.003 290.802 324.037 290.715 324.081 290.64C324.126 290.565 324.18 290.503 324.242 290.457C324.304 290.412 324.371 290.384 324.44 290.376C324.579 290.36 324.717 290.422 324.823 290.548C324.93 290.675 324.997 290.856 325.009 291.052V295.342Z" fill="white"/>
<path d="M338.225 283.028V294.414L340.856 293.219V287.281L342.435 284.312V281.343L338.225 283.028Z" fill="white"/>
<path d="M387.701 308.011V309.919C387.701 310.214 387.617 310.497 387.469 310.706C387.321 310.915 387.12 311.032 386.911 311.032C386.702 311.032 386.501 310.915 386.353 310.706C386.205 310.497 386.121 310.214 386.121 309.919V308.917L385.069 309.488V311.403C385.069 311.698 384.986 311.981 384.838 312.19C384.69 312.399 384.489 312.516 384.279 312.516C384.07 312.516 383.869 312.399 383.721 312.19C383.573 311.981 383.49 311.698 383.49 311.403V310.282C382.763 310.638 382.053 310.965 381.384 311.254V312.887C381.384 313.183 381.301 313.466 381.153 313.675C381.005 313.883 380.804 314.001 380.595 314.001C380.386 314.001 380.185 313.883 380.037 313.675C379.889 313.466 379.805 313.183 379.805 312.887V311.922C379.205 312.167 378.663 312.368 378.226 312.516C378.053 312.583 377.879 312.635 377.7 312.694V314.372C377.7 314.667 377.617 314.95 377.469 315.159C377.321 315.368 377.12 315.485 376.911 315.485C376.701 315.485 376.5 315.368 376.352 315.159C376.204 314.95 376.121 314.667 376.121 314.372V313.214C375.244 313.496 374.367 313.766 373.489 314.023V315.856C373.489 316.151 373.406 316.435 373.258 316.643C373.11 316.852 372.909 316.97 372.7 316.97C372.49 316.97 372.29 316.852 372.142 316.643C371.994 316.435 371.91 316.151 371.91 315.856V314.476C370.858 314.768 369.805 315.04 368.752 315.292V316.598C368.752 316.894 368.669 317.177 368.521 317.386C368.373 317.594 368.172 317.712 367.963 317.712C367.753 317.712 367.553 317.594 367.405 317.386C367.256 317.177 367.173 316.894 367.173 316.598V315.663C366.121 315.906 365.068 316.131 364.015 316.339V317.341C364.015 317.636 363.932 317.919 363.784 318.128C363.636 318.337 363.435 318.454 363.226 318.454C363.016 318.454 362.816 318.337 362.667 318.128C362.519 317.919 362.436 317.636 362.436 317.341V316.636C361.384 316.828 360.331 317.007 359.278 317.17V318.083C359.278 318.378 359.195 318.661 359.047 318.87C358.899 319.079 358.698 319.196 358.489 319.196C358.279 319.196 358.078 319.079 357.93 318.87C357.782 318.661 357.699 318.378 357.699 318.083V317.407L355.594 317.682V318.825C355.594 319.12 355.511 319.403 355.363 319.612C355.215 319.821 355.014 319.938 354.804 319.938C354.595 319.938 354.394 319.821 354.246 319.612C354.098 319.403 354.015 319.12 354.015 318.825V317.868C353.146 317.971 352.267 318.061 351.383 318.142V318.825C351.383 319.12 351.3 319.403 351.152 319.612C351.004 319.821 350.803 319.938 350.594 319.938C350.384 319.938 350.183 319.821 350.035 319.612C349.887 319.403 349.804 319.12 349.804 318.825V318.283C348.936 318.357 348.057 318.432 347.172 318.491V319.567C347.172 319.863 347.089 320.146 346.941 320.354C346.793 320.563 346.592 320.681 346.383 320.681C346.174 320.681 345.973 320.563 345.825 320.354C345.677 320.146 345.593 319.863 345.593 319.567V318.595L342.962 318.743V320.309C342.962 320.605 342.879 320.888 342.73 321.097C342.582 321.305 342.382 321.423 342.172 321.423C341.963 321.423 341.762 321.305 341.614 321.097C341.466 320.888 341.383 320.605 341.383 320.309V318.825L338.225 318.944V320.309C338.225 320.605 338.141 320.888 337.993 321.097C337.845 321.305 337.645 321.423 337.435 321.423C337.226 321.423 337.025 321.305 336.877 321.097C336.729 320.888 336.646 320.605 336.646 320.309V318.981L334.014 319.048V321.052C334.014 321.347 333.931 321.63 333.783 321.839C333.635 322.048 333.434 322.165 333.224 322.165C333.015 322.165 332.814 322.048 332.666 321.839C332.518 321.63 332.435 321.347 332.435 321.052V319.077H329.803V321.052C329.803 321.347 329.72 321.63 329.572 321.839C329.424 322.048 329.223 322.165 329.014 322.165C328.804 322.165 328.604 322.048 328.455 321.839C328.307 321.63 328.224 321.347 328.224 321.052V319.137H325.066V321.052C325.066 321.347 324.983 321.63 324.835 321.839C324.687 322.048 324.486 322.165 324.277 322.165C324.067 322.165 323.866 322.048 323.718 321.839C323.57 321.63 323.487 321.347 323.487 321.052V319.174H320.855V321.052C320.864 321.14 320.864 321.23 320.855 321.319L322.54 322.803C324.911 325.396 326.922 328.584 328.472 332.207C328.942 333.036 329.312 333.969 329.566 334.968C330.543 337.686 331.327 340.532 331.909 343.466C332.956 343.65 334.011 343.725 335.067 343.689C336.484 343.643 337.895 343.394 339.277 342.947V335.525C339.486 333.523 340.182 331.686 341.247 330.331C342.312 328.975 343.679 328.185 345.113 328.098C346.546 328.01 347.956 328.629 349.101 329.849C350.245 331.069 351.052 332.814 351.383 334.783V340.72C353.852 340.905 356.327 340.656 358.752 339.978V333.298C359.499 329.587 361.799 327.205 364.015 327.36C366.842 327.568 369.426 331.932 368.752 337.009C369.628 337.128 370.509 337.128 371.384 337.009C372.833 336.823 374.254 336.322 375.595 335.525V328.845C375.79 327.978 376.175 327.221 376.696 326.684C377.216 326.147 377.845 325.857 378.49 325.857C379.135 325.857 379.763 326.147 380.283 326.684C380.804 327.221 381.189 327.978 381.384 328.845V334.783C382.236 335.202 383.164 335.202 384.016 334.783C384.621 334.479 385.164 333.969 385.595 333.298V325.134C385.685 324.658 385.896 324.245 386.186 323.972C386.477 323.699 386.828 323.584 387.174 323.649C387.431 323.731 387.667 323.913 387.853 324.176C388.04 324.439 388.169 324.771 388.227 325.134V331.814C388.758 331.756 389.272 331.525 389.729 331.138C390.186 330.752 390.573 330.221 390.859 329.587V305.836C389.836 306.646 388.782 307.372 387.701 308.011ZM333.803 332.927C333.815 333.123 333.771 333.317 333.681 333.467C333.592 333.618 333.463 333.712 333.324 333.729C333.186 333.745 333.048 333.683 332.941 333.557C332.835 333.43 332.768 333.249 332.756 333.053V327.939C332.744 327.743 332.788 327.547 332.879 327.396C332.969 327.245 333.098 327.151 333.238 327.134C333.377 327.117 333.516 327.18 333.623 327.307C333.73 327.434 333.797 327.616 333.809 327.813L333.803 332.927ZM354.973 331.443C354.984 331.638 354.941 331.833 354.851 331.983C354.761 332.133 354.633 332.227 354.494 332.244C354.355 332.261 354.217 332.199 354.111 332.072C354.004 331.946 353.937 331.765 353.925 331.569V325.794C353.913 325.598 353.958 325.402 354.048 325.251C354.138 325.1 354.267 325.006 354.407 324.989C354.547 324.972 354.685 325.035 354.792 325.162C354.899 325.289 354.966 325.471 354.978 325.668L354.973 331.443ZM372.052 328.474C372.064 328.67 372.02 328.864 371.93 329.014C371.841 329.164 371.712 329.258 371.573 329.275C371.504 329.285 371.435 329.274 371.368 329.245C371.302 329.216 371.24 329.169 371.187 329.106C371.134 329.043 371.09 328.966 371.057 328.879C371.025 328.793 371.006 328.698 371 328.6V322.996C370.993 322.899 371.001 322.8 371.021 322.707C371.042 322.613 371.075 322.526 371.12 322.451C371.164 322.376 371.219 322.314 371.281 322.269C371.342 322.223 371.41 322.196 371.479 322.187C371.548 322.178 371.618 322.188 371.684 322.217C371.75 322.246 371.812 322.294 371.865 322.356C371.919 322.419 371.963 322.496 371.995 322.583C372.027 322.67 372.047 322.765 372.052 322.863V328.474ZM383.395 322.699C383.407 322.895 383.363 323.09 383.273 323.24C383.183 323.39 383.055 323.484 382.916 323.501C382.777 323.517 382.639 323.456 382.533 323.329C382.426 323.202 382.36 323.021 382.348 322.826V319.204C382.341 319.106 382.348 319.008 382.369 318.914C382.39 318.82 382.423 318.734 382.468 318.658C382.512 318.583 382.567 318.521 382.628 318.476C382.69 318.431 382.757 318.403 382.827 318.395C382.965 318.378 383.103 318.44 383.21 318.567C383.316 318.693 383.383 318.874 383.395 319.07V322.699ZM389.711 319.07C389.723 319.266 389.679 319.46 389.589 319.61C389.499 319.761 389.371 319.855 389.232 319.872C389.094 319.888 388.957 319.827 388.851 319.702C388.744 319.577 388.677 319.398 388.664 319.204V314.914C388.657 314.816 388.664 314.718 388.685 314.624C388.706 314.531 388.739 314.444 388.784 314.368C388.828 314.293 388.883 314.231 388.944 314.186C389.006 314.141 389.073 314.113 389.143 314.105C389.282 314.088 389.419 314.15 389.526 314.277C389.632 314.403 389.699 314.584 389.711 314.78V319.07Z" fill="white"/>
<path d="M304.012 290.992C306.47 289.76 309.454 288.521 311.907 287.281H321.381L310.854 290.992H304.012Z" fill="white"/>
<path d="M350.855 278.375L356.119 276.148V271.695L350.855 278.375Z" fill="white"/>
<path d="M396.12 316.227C395.945 300.888 395.769 285.549 395.594 270.21L413.489 261.304V264.273L409.279 266.499V269.468L403.489 272.437C403.315 273.431 403.141 274.419 402.962 275.406L397.173 278.375C397.352 290.745 397.527 303.115 397.699 315.485L396.12 316.227Z" fill="white"/>
<path d="M396.648 267.984V265.757L408.228 259.819H411.912L396.648 267.984Z" fill="white"/>
<path d="M396.648 254.624V264.273L407.702 258.335V250.913L396.648 254.624ZM398.706 258.892C398.649 259.07 398.544 259.21 398.413 259.279C398.283 259.349 398.139 259.343 398.012 259.263C397.947 259.221 397.889 259.162 397.841 259.088C397.793 259.014 397.756 258.927 397.733 258.832C397.679 258.533 397.644 258.227 397.627 257.919C397.627 257.667 397.627 257.415 397.627 257.177C397.617 257.049 397.633 256.92 397.675 256.806L397.749 256.635C397.839 256.485 397.967 256.392 398.106 256.375C398.175 256.367 398.245 256.378 398.311 256.407C398.376 256.436 398.438 256.483 398.491 256.546C398.597 256.673 398.663 256.855 398.675 257.051C398.665 257.513 398.69 257.976 398.749 258.431C398.762 258.529 398.762 258.63 398.749 258.728L398.706 258.892ZM401.08 258.832C400.941 258.849 400.804 258.787 400.697 258.66C400.59 258.533 400.524 258.352 400.512 258.157C400.437 257.377 400.407 256.59 400.422 255.804C400.416 255.609 400.459 255.417 400.543 255.262C400.634 255.112 400.762 255.019 400.901 255.002C400.97 254.994 401.04 255.004 401.105 255.034C401.171 255.063 401.233 255.11 401.285 255.173C401.339 255.235 401.384 255.312 401.416 255.399C401.449 255.485 401.469 255.58 401.475 255.678C401.458 256.461 401.486 257.246 401.559 258.023C401.566 258.121 401.558 258.22 401.537 258.314C401.516 258.408 401.482 258.495 401.437 258.571C401.392 258.646 401.337 258.708 401.275 258.753C401.213 258.798 401.145 258.825 401.075 258.832H401.08ZM403.928 256.665C403.936 256.792 403.922 256.919 403.886 257.036L403.807 257.207C403.739 257.319 403.65 257.4 403.55 257.441C403.45 257.481 403.344 257.479 403.245 257.435C403.146 257.39 403.058 257.305 402.994 257.191C402.929 257.076 402.889 256.937 402.88 256.791V255.188C402.869 255.058 402.886 254.926 402.928 254.809L403.001 254.646C403.046 254.57 403.1 254.508 403.161 254.462C403.223 254.416 403.29 254.388 403.359 254.379C403.498 254.366 403.635 254.427 403.743 254.55C403.85 254.677 403.916 254.858 403.928 255.054V256.665ZM406.875 256.591C406.786 256.739 406.66 256.832 406.523 256.85C406.454 256.859 406.384 256.848 406.318 256.819C406.252 256.79 406.191 256.742 406.138 256.68C406.035 256.549 405.967 256.37 405.949 256.175C405.88 255.685 405.865 255.18 405.796 254.691C405.781 254.588 405.781 254.482 405.796 254.379L405.838 254.193C405.897 254.016 406.003 253.878 406.133 253.81C406.263 253.742 406.407 253.749 406.533 253.83C406.597 253.87 406.655 253.929 406.703 254.001C406.751 254.074 406.788 254.159 406.812 254.253C406.912 254.846 406.933 255.448 407.017 256.049C407.02 256.148 407.008 256.248 406.983 256.341C406.957 256.434 406.919 256.519 406.87 256.591H406.875Z" fill="white"/>
<path d="M397.701 252.397L389.279 245.717V244.233L400.332 241.264L407.701 248.686L397.701 252.397Z" fill="white"/>
<path d="M388.226 245.717H387.174L383.447 249.221C386.475 250.646 389.493 252.09 392.5 253.555C392.68 253.649 392.856 253.758 393.027 253.882H396.648V252.397L388.226 245.717Z" fill="#C4C3C6"/>
<path d="M381.383 255.366V264.273H385.594V256.108H391.91V264.273H396.12V254.624H381.383V255.366Z" fill="#C4C3C6"/>
<path d="M403.49 316.227V296.188H398.227V315.485L403.49 316.227Z" fill="#C4C3C6"/>
<path d="M419.279 298.414V317.712L424.543 318.454V298.414H419.279Z" fill="#C4C3C6"/>
<path d="M438.755 300.641C438.579 307.321 438.404 314.001 438.229 320.681L442.966 321.423V300.641H438.755Z" fill="#C4C3C6"/>
<path d="M455.77 304.352L455.328 324.392L459.276 325.134V304.352H455.77Z" fill="#C4C3C6"/>
<path d="M470.387 308.063C470.282 315.109 470.175 322.148 470.066 329.179L472.967 329.958V308.063H470.387Z" fill="#C4C3C6"/>
<path d="M482.966 311.032C482.882 318.315 482.794 325.591 482.703 332.86L485.072 333.669V311.032H482.966Z" fill="#C4C3C6"/>
<path d="M493.809 313.258L494.02 332.927L492.178 333.669V313.258H493.809Z" fill="#C4C3C6"/>
<path d="M501.968 314.743L502.173 330.136L500.336 330.7V314.743H501.968Z" fill="#C4C3C6"/>
<path d="M507.263 316.97L507.436 328.066L505.857 328.474V316.97H507.263Z" fill="#C4C3C6"/>
<path d="M512.552 318.454C512.605 320.963 512.652 323.464 512.699 325.973L511.389 326.247V318.454H512.552Z" fill="#C4C3C6"/>
<path d="M517.816 319.938C517.868 321.252 517.916 322.566 517.963 323.879L516.652 324.021V319.938H517.816Z" fill="#C4C3C6"/>
<path d="M507.179 296.188C493.078 291.467 462.966 283.199 402.964 276.89L398.227 279.117V292.477L403.764 293.323C404.249 290.752 405.372 288.511 406.928 287.007C408.485 285.502 410.371 284.834 412.247 285.122C414.123 285.41 415.863 286.635 417.153 288.577C418.444 290.518 419.198 293.047 419.28 295.705L425.028 296.596C426.033 292.454 428.538 289.508 431.475 289.508C435.655 289.575 437.391 293.508 438.086 298.652L442.555 299.394C443.123 294.302 445.787 290.762 448.997 291.23C452.997 291.853 454.64 296.106 455.276 301.435L459.377 302.088C459.903 297.635 462.171 294.54 464.898 294.933C468.293 295.482 469.709 299.194 470.272 303.84L473.04 304.344C473.504 299.891 475.572 296.752 478.056 297.145C481.214 297.709 482.504 301.643 482.983 306.512L485.03 307.046C485.03 302.689 486.741 299.446 488.846 299.81C491.625 300.337 492.446 304.53 492.657 309.31L494.499 309.911C494.499 309.644 494.499 309.384 494.499 309.169C494.499 305.398 495.741 302.585 497.278 302.897C499.442 303.387 499.978 307.491 500.078 311.967L501.836 312.657C501.836 311.485 501.873 310.379 501.836 309.466C501.836 306.846 502.731 304.901 503.836 305.116C505.879 305.562 505.91 310.312 505.858 314.32L507.605 315.062C507.605 313.815 507.647 312.635 507.605 311.678C507.605 309.058 508.5 307.113 509.605 307.328C511.71 307.788 511.679 312.843 511.621 316.91L512.837 317.496C512.837 315.953 512.884 314.453 512.863 313.288C512.863 310.854 513.642 309.043 514.605 309.243C516.621 309.711 516.384 315.344 516.348 319.241C516.953 319.552 517.542 319.857 518.106 320.161C518.106 318.677 518.137 317.192 518.106 316.034C518.106 314.179 518.658 312.798 519.332 312.954C520.911 313.348 520.527 318.573 520.553 321.482L521.774 322.158C521.774 321 521.811 319.872 521.774 319.003C521.774 317.148 522.327 315.767 523 315.923C523.974 316.168 524.195 318.261 524.237 320.51C527.185 318.172 529.843 315.181 529.769 311.826C529.648 304.597 517.021 299.483 507.179 296.188Z" fill="#C4C3C6"/>
<path d="M257.693 323.649V303.61H262.957V322.907L257.693 323.649Z" fill="#C4C3C6"/>
<path d="M241.904 305.836V325.134L236.641 325.876V305.836H241.904Z" fill="#C4C3C6"/>
<path d="M222.429 308.063C222.605 314.743 222.78 321.423 222.956 328.103L218.219 328.845V308.063H222.429Z" fill="#C4C3C6"/>
<path d="M205.408 311.774L205.85 331.814L201.902 332.556V311.774H205.408Z" fill="#C4C3C6"/>
<path d="M190.785 315.485C190.894 322.531 191.003 329.57 191.112 336.601L188.217 337.38V315.485H190.785Z" fill="#C4C3C6"/>
<path d="M178.217 318.454C178.301 325.737 178.389 333.014 178.48 340.282L176.111 341.091V318.454H178.217Z" fill="#C4C3C6"/>
<path d="M159.206 322.165C159.139 327.301 159.073 332.432 159.006 337.558L160.848 338.122V322.165H159.206Z" fill="#C4C3C6"/>
<path d="M153.916 324.392L153.742 335.488L155.321 335.896V324.392H153.916Z" fill="#C4C3C6"/>
<path d="M148.62 325.876C148.573 328.385 148.525 330.886 148.473 333.395L149.794 333.669V325.876H148.62Z" fill="#C4C3C6"/>
<path d="M143.357 327.36L143.215 331.302L144.531 331.443V327.36H143.357Z" fill="#C4C3C6"/>
<path d="M154.005 303.61C168.1 298.889 198.217 290.621 258.22 284.312L262.957 286.539V299.899L257.414 300.745C256.925 298.179 255.802 295.945 254.247 294.446C252.692 292.946 250.808 292.28 248.935 292.568C247.062 292.855 245.324 294.078 244.035 296.014C242.745 297.951 241.989 300.474 241.903 303.127L236.156 304.018C235.15 299.876 232.645 296.93 229.708 296.93C225.529 296.997 223.787 300.93 223.097 306.074L218.629 306.816C218.06 301.725 215.397 298.184 212.186 298.652C208.186 299.275 206.544 303.528 205.907 308.857L201.807 309.51C201.28 305.057 199.012 301.962 196.285 302.355C192.891 302.905 191.475 306.616 190.912 311.262L188.143 311.767C187.68 307.313 185.611 304.174 183.127 304.567C179.943 305.131 178.674 309.065 178.2 313.934L176.153 314.468C176.153 310.111 174.442 306.868 172.337 307.232C169.558 307.759 168.737 311.952 168.526 316.732L166.684 317.333C166.684 317.066 166.684 316.806 166.684 316.591C166.684 312.821 165.437 310.008 163.905 310.319C161.742 310.809 161.205 314.914 161.1 319.389L159.347 320.079C159.347 318.907 159.305 317.801 159.347 316.888C159.347 314.268 158.452 312.323 157.347 312.539C155.305 312.984 155.273 317.734 155.326 321.742L153.578 322.484C153.578 321.237 153.536 320.057 153.578 319.1C153.578 316.48 152.684 314.535 151.578 314.75C149.473 315.21 149.504 320.265 149.562 324.332L148.347 324.919C148.347 323.375 148.294 321.876 148.32 320.71C148.32 318.276 147.541 316.465 146.578 316.665C144.562 317.133 144.799 322.766 144.836 326.663C144.225 326.975 143.641 327.279 143.073 327.583C143.099 326.099 143.041 324.614 143.073 323.456C143.073 321.601 142.546 320.22 141.852 320.376C140.272 320.77 140.651 325.995 140.625 328.904L139.409 329.58C139.409 328.422 139.372 327.294 139.409 326.425C139.409 324.57 138.883 323.189 138.188 323.345C137.214 323.59 136.988 325.683 136.951 327.932C134.004 325.594 131.346 322.603 131.419 319.248C131.525 312.019 144.157 306.905 154.005 303.61Z" fill="white"/>
<path d="M394.463 270.952C394.306 271.317 394.13 271.664 393.936 271.992C391.194 276.519 388.047 280.557 385.594 285.426V297.672C385.957 297.717 389.473 298.236 390.857 302.125C391.183 303.05 391.362 304.063 391.384 305.094V318.454H395.068C394.892 302.62 394.717 286.786 394.542 270.952H394.463Z" fill="#C4C3C6"/>
<path d="M281.906 329.587V325.134L307.697 325.876V330.329L281.906 329.587Z" fill="#C4C3C6"/>
<path d="M280.854 324.392V319.196L284.012 316.97L287.17 317.712V319.196H282.959L281.906 320.681H308.749V325.134L280.854 324.392Z" fill="white"/>
<path d="M308.223 330.329V325.876L311.381 324.392V328.845L308.223 330.329Z" fill="white"/>
<path d="M327.697 285.054L336.645 281.343V279.859L327.697 283.57V285.054Z" fill="white"/>
<path d="M322.434 204.153C323.302 204.518 324.049 205.308 324.54 206.38C324.837 207.054 325.017 207.817 325.066 208.607V213.06C325.27 213.062 325.471 213.13 325.654 213.258C325.836 213.387 325.995 213.573 326.119 213.802C326.195 214.035 326.234 214.288 326.234 214.544C326.234 214.801 326.195 215.054 326.119 215.287C325.592 217.38 320.903 217.513 320.329 217.513C320.189 217.513 320.056 217.435 319.957 217.296C319.858 217.157 319.803 216.968 319.803 216.771C319.803 216.574 319.858 216.385 319.957 216.246C320.056 216.107 320.189 216.029 320.329 216.029C320.855 216.088 321.383 216.088 321.908 216.029C322.804 215.939 323.688 215.69 324.54 215.287C325.003 214.856 325.098 214.648 325.066 214.544C325.035 214.441 324.598 214.485 324.013 214.544C323.488 214.605 322.96 214.605 322.434 214.544C322.189 214.431 321.965 214.237 321.782 213.979C321.6 213.722 321.462 213.407 321.382 213.06C321.345 212.815 321.345 212.562 321.382 212.318H322.961C323.083 211.972 323.146 211.591 323.146 211.204C323.146 210.818 323.083 210.437 322.961 210.091C322.832 209.785 322.651 209.53 322.434 209.349V208.607H321.382C321.836 208.283 322.205 207.763 322.434 207.122C322.586 206.657 322.664 206.15 322.664 205.638C322.664 205.126 322.586 204.619 322.434 204.153Z" fill="white"/>
<path d="M325.592 217.513C325.92 217.569 326.233 217.733 326.507 217.99C326.782 218.248 327.009 218.593 327.171 218.998C327.355 219.69 327.349 220.454 327.154 221.14C326.96 221.827 326.59 222.386 326.119 222.709V224.935C325.783 225.222 325.431 225.471 325.066 225.678C323.731 226.432 322.281 226.688 320.855 226.42C321.287 225.76 321.642 225.009 321.908 224.193C322.433 222.568 322.616 220.765 322.434 218.998C323.158 218.893 323.867 218.644 324.54 218.255C324.905 218.05 325.257 217.802 325.592 217.513Z" fill="#C4C3C6"/>
<path d="M366.119 277.632L368.751 280.601L384.541 273.921L384.015 273.179L369.804 279.117L369.277 278.375L384.015 272.437H378.751L366.119 277.632Z" fill="white"/>
<path d="M357.173 270.21H373.489V268.726C373.668 268.236 373.842 267.739 374.016 267.241H356.646V268.726C356.82 269.223 356.994 269.72 357.173 270.21Z" fill="white"/>
<path d="M357.172 276.148V270.952H373.488V273.921L365.593 276.89L363.488 273.921L357.172 276.148Z" fill="#C4C3C6"/>
<path d="M379.277 270.952V268.726L382.435 266.499V267.984L379.277 270.952Z" fill="white"/>
<path d="M396.122 267.984H391.385V267.241C391.737 266.996 392.09 266.752 392.437 266.499V265.757H396.122V267.984Z" fill="#C4C3C6"/>
<path d="M385.594 265.757L384.542 267.241L379.805 271.695H386.647V269.468H395.069V268.726H390.331V265.757H385.594Z" fill="#C4C3C6"/>
<path d="M288.748 313.258V298.414H304.012V312.516H300.854L296.643 307.321L288.748 313.258Z" fill="white"/>
<path d="M309.275 293.961H283.484C283.663 301.136 283.839 308.31 284.011 315.485L288.221 316.227V320.681H292.958V312.516L296.117 308.805L299.801 312.516V320.681H307.17C308.047 319.691 308.924 318.701 309.801 317.712C309.622 309.8 309.447 301.883 309.275 293.961ZM288.748 313.258H287.695V298.414H288.748V313.258ZM305.064 312.516H304.012V298.414H305.064V312.516Z" fill="#C4C3C6"/>
<path d="M357.125 287.029H342.166C342.271 290.191 342.373 293.347 342.471 296.499L344.914 296.826V298.785H347.661V295.193L349.493 293.56L351.63 295.193V298.785H355.903L357.43 297.479C357.328 294.001 357.226 290.517 357.125 287.029ZM345.219 295.52H344.608V288.988H345.219V295.52ZM354.693 295.193H354.082V288.988H354.693V295.193Z" fill="#C4C3C6"/>
<path d="M313.486 312.516V306.579C325.313 307.321 335.461 307.083 343.488 306.579C357.451 305.718 365.115 304.011 372.963 300.641C374.968 299.787 376.605 298.978 377.7 298.414V305.094C374.94 306.538 372.129 307.777 369.278 308.805C360.115 312.115 352.962 312.368 343.488 312.516C331.487 312.709 321.35 312.65 313.486 312.516Z" fill="#C4C3C6"/>
<path d="M281.111 280.23L295.849 275.035L301.639 280.23L289.006 285.426L281.111 280.23Z" fill="white"/>
<path d="M362.852 320.577C353.251 321.178 343.588 321.608 333.935 321.519C333.872 321.713 333.772 321.877 333.645 321.992C333.518 322.107 333.37 322.167 333.219 322.165C333.066 322.165 332.917 322.103 332.789 321.985C332.661 321.868 332.56 321.701 332.498 321.504L329.745 321.452C329.686 321.666 329.582 321.848 329.447 321.975C329.312 322.101 329.152 322.166 328.99 322.161C328.828 322.155 328.671 322.079 328.54 321.943C328.41 321.807 328.312 321.618 328.261 321.401C327.208 321.371 326.136 321.331 325.045 321.282C325.037 321.577 324.946 321.856 324.793 322.057C324.639 322.258 324.436 322.365 324.226 322.354C324.017 322.343 323.819 322.216 323.676 321.999C323.534 321.783 323.458 321.495 323.466 321.2C322.587 321.156 321.702 321.111 320.834 321.052C320.842 321.14 320.842 321.23 320.834 321.319L322.518 322.803C324.889 325.396 326.9 328.584 328.45 332.207C328.92 333.036 329.29 333.969 329.545 334.968C330.528 337.685 331.32 340.531 331.908 343.466C332.955 343.65 334.011 343.725 335.066 343.689C336.484 343.643 337.895 343.394 339.277 342.947V335.525C339.485 333.523 340.182 331.686 341.247 330.331C342.312 328.975 343.679 328.185 345.112 328.098C346.546 328.01 347.956 328.629 349.1 329.849C350.245 331.069 351.052 332.814 351.383 334.783V340.72C353.851 340.905 356.327 340.656 358.751 339.978V333.298C359.499 329.587 361.799 327.205 364.015 327.36C366.841 327.568 369.426 331.932 368.752 337.009C369.401 337.097 370.053 337.119 370.705 337.076C369.042 330.783 366.351 325.131 362.852 320.577Z" fill="#C4C3C6"/>
<path d="M263.399 374.543C253.441 374.216 244.056 373.867 235.771 373.526C235.81 375.649 235.856 377.771 235.908 379.894C245.317 381.591 254.636 384.162 263.804 387.591C263.71 383.241 263.574 378.892 263.399 374.543Z" fill="white"/>
<path d="M295.769 375.441C285.31 375.203 274.883 374.914 264.988 374.595V374.662C265.167 379.167 265.288 383.672 265.378 388.185C266.683 388.679 267.987 389.192 269.288 389.721C278.02 393.291 286.658 397.143 295.195 401.433C295.326 392.771 295.505 384.14 295.769 375.441Z" fill="white"/>
<path d="M388.642 428.012C388.216 413.286 388.042 398.546 388.216 383.806C388.251 380.763 388.304 377.715 388.374 374.662C383.742 374.939 379.042 375.186 374.273 375.404C365.394 375.857 353.815 376.035 340.856 376.02C340.609 394.219 340.577 412.388 340.588 430.617C343.395 432.799 346.17 435.026 348.914 437.297C353.504 441.102 358.053 444.998 362.562 448.987C371.384 448.764 380.331 448.455 389.406 448.059C389.1 441.389 388.846 434.706 388.642 428.012Z" fill="white"/>
<path d="M439.682 402.316C439.913 391.797 440.145 381.28 440.376 370.765C424.618 372.249 407.806 373.516 389.943 374.565C389.83 379.691 389.762 384.817 389.737 389.944C389.664 404.625 389.916 419.306 390.406 433.964C390.564 438.655 390.748 443.341 390.958 448.022C406.52 447.309 422.465 446.302 438.792 445.001C439.048 430.775 439.345 416.547 439.682 402.316Z" fill="white"/>
<path d="M485.073 365.777C471.704 367.544 457.33 369.157 441.95 370.616C441.424 395.369 440.808 420.114 440.371 444.838L446.919 444.288C460.719 443.093 473.404 441.794 485.084 440.384L485.073 365.777Z" fill="white"/>
<path d="M529.812 358.704C516.829 361.148 502.443 363.437 486.652 365.569V440.236C502.969 438.247 517.259 436.057 529.812 433.697V358.704Z" fill="white"/>
<path d="M582.972 345.619C569.413 350.072 552.249 354.414 531.391 358.4V433.363C553.686 429.095 570.382 424.256 582.972 418.994V345.619Z" fill="white"/>
<path d="M625.336 320.309C622.64 323.42 619.829 326.326 616.915 329.016C611.283 334.211 600.53 339.733 584.545 345.099V418.355C609.488 407.571 617.673 395.05 621.652 381.987C624.092 373.732 625.171 364.805 624.81 355.876C624.989 344.011 625.164 332.155 625.336 320.309Z" fill="white"/>
<path d="M339.066 399.407C339.108 391.619 339.182 383.83 339.287 376.042C326.192 376.042 311.765 375.797 297.338 375.478C297.212 379.758 297.1 384.043 297.001 388.333C296.9 392.964 296.817 397.598 296.754 402.235C302.57 405.203 308.333 408.447 314.013 411.987C322.518 417.287 330.855 423.12 339.014 429.429C339.008 419.424 339.014 409.419 339.066 399.407Z" fill="white"/>
<path d="M87.6865 351.386C103.692 354.859 115.303 357.227 118.493 357.702V435.352C115.861 405.73 110.372 360.797 106.34 360.107C100.445 359.112 101.729 358.756 95.8605 358.162L91.8656 357.85C90.7199 357.759 89.6441 357.044 88.8646 355.856C88.0852 354.668 87.6628 353.1 87.6865 351.482V351.386Z" fill="white"/>
<path d="M234.309 378.796C231.61 378.712 228.914 378.603 226.219 378.469C228.556 378.751 230.893 379.063 233.219 379.427L234.324 379.62L234.309 378.796Z" fill="#C4C3C6"/>
<path d="M263.558 378.9C254.331 379.026 245.11 379.078 235.883 378.833C235.883 379.189 235.883 379.575 235.909 379.894C245.318 381.591 254.637 384.162 263.805 387.591C263.738 384.696 263.656 381.799 263.558 378.9Z" fill="#C4C3C6"/>
<path d="M295.68 378.603C291.038 378.536 286.396 378.521 281.753 378.603L265.137 378.885C265.242 381.982 265.323 385.085 265.379 388.192C266.684 388.687 267.988 389.199 269.29 389.728C278.021 393.298 286.659 397.151 295.196 401.44C295.312 393.82 295.473 386.208 295.68 378.603Z" fill="#C4C3C6"/>
<path d="M339.066 399.407C339.101 392.697 339.161 385.988 339.245 379.278H336.008C323.087 379.323 310.165 378.803 297.243 378.603C297.156 381.839 297.075 385.075 297.001 388.311C296.9 392.942 296.817 397.576 296.754 402.212C302.57 405.181 308.333 408.425 314.013 411.965C322.518 417.264 330.855 423.098 339.014 429.407C339.008 419.424 339.014 409.419 339.066 399.407Z" fill="#C4C3C6"/>
<path d="M388.643 428.012C388.216 413.286 388.043 398.546 388.216 383.806C388.216 381.727 388.274 379.657 388.311 377.578C372.489 378.514 356.652 379.115 340.814 379.263C340.604 396.386 340.577 413.516 340.588 430.639C343.395 432.821 346.171 435.048 348.915 437.319C353.504 441.124 358.054 445.021 362.563 449.009C371.384 448.786 380.332 448.477 389.406 448.081C389.101 441.396 388.846 434.706 388.643 428.012Z" fill="#C4C3C6"/>
<path d="M439.682 402.316C439.889 393.177 440.09 384.023 440.287 374.855C424.807 374.914 409.364 376.198 393.885 377.2L389.885 377.445C389.811 381.596 389.762 385.75 389.737 389.907C389.664 404.587 389.916 419.268 390.406 433.927C390.564 438.618 390.748 443.304 390.958 447.985C406.52 447.272 422.465 446.265 438.792 444.964C439.048 430.763 439.345 416.547 439.682 402.316Z" fill="#C4C3C6"/>
<path d="M485.073 381.364C473.26 378.091 461.302 375.966 449.282 375.003C446.798 374.929 444.315 374.889 441.835 374.884C441.335 398.219 440.782 421.54 440.34 444.875L446.888 444.325C460.688 443.13 473.378 441.832 485.052 440.429L485.073 381.364Z" fill="#C4C3C6"/>
<path d="M529.812 407.631C525.859 403.838 522.07 399.704 518.185 395.755C513.617 392.604 508.882 389.961 504.022 387.851C498.274 385.5 492.484 383.484 486.652 381.802V440.228C502.969 438.239 517.259 436.05 529.812 433.682V407.631Z" fill="#C4C3C6"/>
<path d="M531.391 433.393C540.702 431.611 549.044 429.726 556.507 427.759C554.813 426.928 553.125 426.077 551.444 425.206C544.507 421.599 538.417 415.476 532.238 409.902L531.391 409.115V433.393Z" fill="#C4C3C6"/>
<path d="M319.535 414.57C410.465 416.864 479.016 408.195 524.807 399.726C569.056 391.562 620.159 378.343 625.864 342.576C626.214 340.384 626.391 338.143 626.39 335.896C626.093 337.404 625.741 338.891 625.338 340.349C616.322 373.088 583.315 385.951 525.191 396.928C482.993 404.843 440.518 409.493 397.959 410.859C362.768 412.099 333.556 411.972 313.219 411.601L319.535 414.57Z" fill="black"/>
<path d="M319.535 416.797C410.465 419.09 479.016 410.421 524.807 401.953C569.056 393.788 620.159 380.57 625.864 344.802C626.214 342.61 626.391 340.37 626.39 338.122C626.093 339.631 625.741 341.117 625.338 342.576C616.322 375.315 583.315 388.177 525.191 399.154C482.993 407.069 440.518 411.72 397.959 413.086C362.768 414.325 333.556 414.199 313.219 413.828L319.535 416.797Z" fill="white"/>
<path d="M123.735 419.766C123.262 406.747 122.735 393.635 122.156 380.428C121.805 372.724 121.454 365.055 121.104 357.42L144.262 349.256C145.14 369.048 146.017 388.84 146.894 408.632L123.735 419.766Z" fill="#C4C3C6"/>
<path d="M136.262 345.545C135.899 337.187 135.499 345.099 135.062 336.638C134.809 331.695 134.535 318.558 134.262 313.63C140.578 314.372 146.368 316.598 151.857 316.598C152.527 329.31 153.194 342.019 153.857 354.726C147.994 357.108 142.13 343.162 136.262 345.545Z" fill="black"/>
<path d="M175.843 354.451L166.369 358.162L167.948 412.344L177.422 409.375L175.843 354.451ZM172.333 380.614C172.333 381.564 171.28 381.698 171.28 380.74V362.927C171.28 361.985 172.333 361.844 172.333 362.801V380.614Z" fill="#C4C3C6"/>
<path d="M185.843 343.318L172.158 348.513V352.967L177.948 351.482L179.527 406.406L186.896 401.953C186.548 382.413 186.197 362.868 185.843 343.318ZM182.685 371.463C182.685 372.413 181.632 372.546 181.632 371.589V352.536C181.632 351.594 182.685 351.453 182.685 352.41V371.463Z" fill="white"/>
<path d="M170.58 311.403L152.158 317.341C152.86 332.437 153.562 347.529 154.264 362.615H157.948V355.193L164.264 352.967V346.287L171.106 343.318C170.934 332.685 170.759 322.046 170.58 311.403ZM157.069 334.597C157.069 335.547 156.016 335.681 156.016 334.723V324.087C156.016 323.137 157.069 323.004 157.069 323.961V334.597ZM162.511 330.641C162.511 331.591 161.459 331.725 161.459 330.767V321.861C161.459 320.911 162.511 320.777 162.511 321.734V330.641ZM168.475 327.917C168.486 328.113 168.443 328.307 168.353 328.458C168.263 328.608 168.135 328.702 167.996 328.719C167.857 328.735 167.719 328.673 167.613 328.547C167.506 328.42 167.439 328.239 167.427 328.043V319.879C167.415 319.682 167.459 319.487 167.55 319.336C167.64 319.185 167.769 319.09 167.909 319.074C168.048 319.057 168.187 319.119 168.294 319.246C168.401 319.374 168.468 319.556 168.48 319.753L168.475 327.917Z" fill="#C4C3C6"/>
<path d="M126.83 359.988C130.999 359.246 135.962 361.71 139.125 365.451C142.11 368.984 145.12 375.842 145.078 381.579C145.076 386.252 145.406 390.915 146.063 395.495C146.173 396.149 146.289 396.802 146.399 397.455C145.698 381.383 144.985 365.317 144.262 349.256L121.104 357.42L121.325 362.074C123.083 361.026 124.936 360.324 126.83 359.988Z" fill="white"/>
<path d="M161.459 322.722V321.861C161.459 320.911 162.511 320.777 162.511 321.734V323.531C163.182 324.089 163.829 324.704 164.448 325.371C168.012 329.223 169.838 335.406 170.401 341.5C170.462 342.192 170.494 342.888 170.496 343.585L171.106 343.318C170.931 332.68 170.756 322.041 170.58 311.403L152.158 317.341C152.2 318.202 152.237 319.055 152.279 319.909C155.454 319.803 158.601 320.767 161.459 322.722ZM167.427 319.879C167.421 319.781 167.429 319.683 167.45 319.59C167.471 319.497 167.505 319.41 167.55 319.336C167.595 319.261 167.649 319.199 167.711 319.154C167.772 319.109 167.84 319.082 167.909 319.074C167.978 319.065 168.048 319.076 168.114 319.106C168.18 319.136 168.241 319.183 168.294 319.246C168.347 319.31 168.391 319.387 168.423 319.474C168.455 319.56 168.474 319.655 168.48 319.753V327.917C168.492 328.113 168.448 328.307 168.358 328.458C168.268 328.608 168.14 328.702 168.001 328.719C167.862 328.735 167.724 328.673 167.618 328.547C167.511 328.42 167.445 328.239 167.433 328.043L167.427 319.879Z" fill="white"/>
</g>
<defs>
<clipPath id="clip0_268_57773">
<rect width="600" height="600" fill="white" transform="translate(30 30)"/>
</clipPath>
</defs>
</svg>
