<svg viewBox="0 0 24 24" xmlns="http://www.w3.org/2000/svg">
  <path d="M12 8.90224528L20.2606793.64156601c.8554213-.85542135 2.2423333-.85542135 3.0977547 0 .8554213.85542135.8554213 2.24233338 0 3.09775472L15.0977547 12l8.2606793 8.2606793c.8554213.8554213.8554213 2.2423333 0 3.0977547-.8554214.8554213-2.2423334.8554213-3.0977547 0L12 15.0977547 3.73932073 23.358434c-.85542134.8554213-2.24233337.8554213-3.09775472 0-.85542135-.8554214-.85542135-2.2423334 0-3.0977547L8.90224528 12 .64156601 3.73932073c-.85542135-.85542134-.85542135-2.24233337 0-3.09775472.85542135-.85542135 2.24233338-.85542135 3.09775472 0L12 8.90224528z" fill="currentColor" fill-rule="evenodd"/>
</svg>
