<svg xmlns="http://www.w3.org/2000/svg" width="720" height="601" viewBox="0 0 720 601">
  <g fill="none" fill-rule="evenodd">
    <g transform="matrix(1 0 0 -1 0 601)">
      <path fill="#4038FF" d="M586.660142 320.610133L580.006762 320.610133 580.006762 327.263467 586.660142 327.263467 586.660142 333.933333 580.006762 333.933333 580.006762 340.6032 586.660142 340.6032 586.660142 347.256533 593.330071 347.256533 593.330071 353.9264 586.660142 353.9264 586.660142 347.273067 580.006762 347.273067 580.006762 353.9264 586.660142 353.9264 586.660142 360.6 579.990214 360.6 579.990214 353.930133 573.336833 353.930133 573.336833 347.2768 566.666904 347.2768 566.666904 353.930133 559.996975 353.930133 559.996975 347.2768 553.343594 347.2768 553.343594 353.930133 559.996975 353.930133 559.996975 360.6 553.326512 360.6 553.326512 353.930133 546.673665 353.930133 546.673665 360.6 540 360.6 540 353.930133 546.669929 353.930133 546.669929 347.2768 540 347.2768 540 340.6064 546.669929 340.6064 546.669929 333.936533 540 333.936533 540 327.266667 546.669929 327.266667 546.669929 320.613333 546.669929 320.5968 553.32331 320.5968 553.32331 313.943467 559.993238 313.943467 559.993238 320.5968 566.663167 320.5968 566.663167 313.943467 573.33363 313.943467 573.33363 320.5968 579.987011 320.5968 579.987011 313.943467 586.65694 313.943467 586.65694 320.5968 593.326868 320.5968 593.326868 327.266667 586.65694 327.266667 586.65694 320.610133 586.660142 320.610133zM546.669929 320.5936L546.669929 313.939733 540 313.939733 540 320.610133 546.669929 320.610133 546.669929 320.5936zM566.663167 353.930133L566.663167 360.6 573.33363 360.6 573.33363 353.930133 566.663167 353.930133zM586.660142 340.6064L586.660142 333.936533 593.330071 333.936533 593.330071 340.6064 586.660142 340.6064zM553.32331 347.260267L546.669929 347.260267 546.669929 340.6064 553.32331 340.6064 553.32331 347.260267zM553.339858 313.939733L553.339858 307.269867 559.993238 307.269867 559.993238 313.939733 566.663167 313.939733 566.663167 307.269867 573.33363 307.269867 573.33363 313.939733 580.003559 313.939733 580.003559 307.269867 586.65694 307.269867 586.65694 313.939733 593.326868 313.939733 593.326868 307.269867 586.65694 307.269867 586.65694 300.6 579.987011 300.6 579.987011 307.269867 573.33363 307.269867 573.33363 300.6 566.663167 300.6 566.663167 307.269867 559.993238 307.269867 559.993238 300.6 553.32331 300.6 553.32331 307.269867 546.669929 307.269867 546.669929 300.6 540 300.6 540 307.269867 546.669929 307.269867 546.669929 313.939733 553.339858 313.939733zM579.987011 327.263467L579.987011 333.933333 573.33363 333.933333 573.33363 327.263467 579.987011 327.263467zM566.663167 327.263467L566.663167 320.610133 573.33363 320.610133 573.33363 327.263467 566.663167 327.263467zM559.993238 327.263467L566.663167 327.263467 566.663167 333.933333 559.993238 333.933333 559.993238 327.263467zM559.993238 327.263467L553.339858 327.263467 553.339858 320.610133 559.993238 320.610133 559.993238 327.263467zM559.993238 340.6064L553.339858 340.6064 553.339858 333.936533 559.993238 333.936533 559.993238 340.6064zM566.663167 340.6064L566.663167 347.260267 559.993238 347.260267 559.993238 340.6064 566.663167 340.6064zM573.336833 340.6064L566.666904 340.6064 566.666904 333.936533 573.336833 333.936533 573.336833 340.6064zM573.336833 340.6064L579.990214 340.6064 579.990214 347.260267 573.336833 347.260267 573.336833 340.6064zM553.32331 333.936533L553.32331 327.266667 546.669929 327.266667 546.669929 333.936533 553.32331 333.936533zM600 353.930133L593.330071 353.930133 593.330071 360.6 600 360.6 600 353.930133zM593.330071 340.6064L600 340.6064 600 347.2768 593.330071 347.2768 593.330071 340.6064zM600 327.263467L593.330071 327.263467 593.330071 333.933333 600 333.933333 600 327.263467zM593.330071 313.939733L600 313.939733 600 320.610133 593.330071 320.610133 593.330071 313.939733zM593.330071 300.6L600 300.6 600 307.269867 593.330071 307.269867 593.330071 300.6zM166.660142 560.610133L160.006762 560.610133 160.006762 567.263467 166.660142 567.263467 166.660142 573.933333 160.006762 573.933333 160.006762 580.6032 166.660142 580.6032 166.660142 587.256533 173.330071 587.256533 173.330071 593.9264 166.660142 593.9264 166.660142 587.273067 160.006762 587.273067 160.006762 593.9264 166.660142 593.9264 166.660142 600.6 159.990214 600.6 159.990214 593.930133 153.336833 593.930133 153.336833 587.2768 146.666904 587.2768 146.666904 593.930133 139.996975 593.930133 139.996975 587.2768 133.343594 587.2768 133.343594 593.930133 139.996975 593.930133 139.996975 600.6 133.326512 600.6 133.326512 593.930133 126.673665 593.930133 126.673665 600.6 120 600.6 120 593.930133 126.669929 593.930133 126.669929 587.2768 120 587.2768 120 580.6064 126.669929 580.6064 126.669929 573.936533 120 573.936533 120 567.266667 126.669929 567.266667 126.669929 560.613333 126.669929 560.5968 133.32331 560.5968 133.32331 553.943467 139.993238 553.943467 139.993238 560.5968 146.663167 560.5968 146.663167 553.943467 153.33363 553.943467 153.33363 560.5968 159.987011 560.5968 159.987011 553.943467 166.65694 553.943467 166.65694 560.5968 173.326868 560.5968 173.326868 567.266667 166.65694 567.266667 166.65694 560.610133 166.660142 560.610133zM126.669929 560.5936L126.669929 553.939733 120 553.939733 120 560.610133 126.669929 560.610133 126.669929 560.5936zM146.663167 593.930133L146.663167 600.6 153.33363 600.6 153.33363 593.930133 146.663167 593.930133zM166.660142 580.6064L166.660142 573.936533 173.330071 573.936533 173.330071 580.6064 166.660142 580.6064zM133.32331 587.260267L126.669929 587.260267 126.669929 580.6064 133.32331 580.6064 133.32331 587.260267zM133.339858 553.939733L133.339858 547.269867 139.993238 547.269867 139.993238 553.939733 146.663167 553.939733 146.663167 547.269867 153.33363 547.269867 153.33363 553.939733 160.003559 553.939733 160.003559 547.269867 166.65694 547.269867 166.65694 553.939733 173.326868 553.939733 173.326868 547.269867 166.65694 547.269867 166.65694 540.6 159.987011 540.6 159.987011 547.269867 153.33363 547.269867 153.33363 540.6 146.663167 540.6 146.663167 547.269867 139.993238 547.269867 139.993238 540.6 133.32331 540.6 133.32331 547.269867 126.669929 547.269867 126.669929 540.6 120 540.6 120 547.269867 126.669929 547.269867 126.669929 553.939733 133.339858 553.939733zM159.987011 567.263467L159.987011 573.933333 153.33363 573.933333 153.33363 567.263467 159.987011 567.263467zM146.663167 567.263467L146.663167 560.610133 153.33363 560.610133 153.33363 567.263467 146.663167 567.263467zM139.993238 567.263467L146.663167 567.263467 146.663167 573.933333 139.993238 573.933333 139.993238 567.263467zM139.993238 567.263467L133.339858 567.263467 133.339858 560.610133 139.993238 560.610133 139.993238 567.263467zM139.993238 580.6064L133.339858 580.6064 133.339858 573.936533 139.993238 573.936533 139.993238 580.6064zM146.663167 580.6064L146.663167 587.260267 139.993238 587.260267 139.993238 580.6064 146.663167 580.6064zM153.336833 580.6064L146.666904 580.6064 146.666904 573.936533 153.336833 573.936533 153.336833 580.6064zM153.336833 580.6064L159.990214 580.6064 159.990214 587.260267 153.336833 587.260267 153.336833 580.6064zM133.32331 573.936533L133.32331 567.266667 126.669929 567.266667 126.669929 573.936533 133.32331 573.936533zM180 593.930133L173.330071 593.930133 173.330071 600.6 180 600.6 180 593.930133zM173.330071 580.6064L180 580.6064 180 587.2768 173.330071 587.2768 173.330071 580.6064zM180 567.263467L173.330071 567.263467 173.330071 573.933333 180 573.933333 180 567.263467zM173.330071 553.939733L180 553.939733 180 560.610133 173.330071 560.610133 173.330071 553.939733zM173.330071 540.6L180 540.6 180 547.269867 173.330071 547.269867 173.330071 540.6zM353.330071 300.6L360 300.6 360 240.6 353.330071 240.6 353.330071 300.6zM346.666548 300.6L339.999822 300.6 339.999822 240.6 346.666548 240.6 346.666548 300.6zM333.33363 300.6L326.666904 300.6 326.666904 240.6 333.33363 240.6 333.33363 300.6zM313.333452 300.6L320.000178 300.6 320.000178 240.6 313.333452 240.6 313.333452 300.6zM306.666726 300.6L300 300.6 300 240.6 306.666726 240.6 306.666726 300.6z"/>
      <path fill="#F2F5F9" fill-rule="nonzero" d="M364.699429,121 L360,121 L360,116.3 L415.299429,61 L420,61 L420,65.7 L364.699429,121 Z M405.866286,61 L396.433143,61 L360,97.4332571 L360,106.866629 L405.866286,61 Z M387,61 L377.566857,61 L360,78.5666286 L360,88 L387,61 Z M360,61 L360,69.1333257 L368.132571,61 L360,61 Z M420,84.5666286 L420,75.1333714 L374.132571,121 L383.566857,121 L420,84.5666286 Z M420,103.433257 L420,94 L393,121 L402.433143,121 L420,103.433257 Z M420,112.866629 L411.866286,121 L420,121 L420,112.866629 Z"/>
      <path fill="#1F242C" d="M300 67.2698667L300 60.6 240 60.6 240 67.2698667 300 67.2698667zM300 73.9333333L300 80.6 240 80.6 240 73.9333333 300 73.9333333zM300 87.2666667L300 93.9333333 240 93.9333333 240 87.2666667 300 87.2666667zM300 107.266667L300 100.6 240 100.6 240 107.266667 300 107.266667zM300 113.933333L300 120.6 240 120.6 240 113.933333 300 113.933333zM540 247.269867L540 240.6 480 240.6 480 247.269867 540 247.269867zM540 253.933333L540 260.6 480 260.6 480 253.933333 540 253.933333zM540 267.266667L540 273.933333 480 273.933333 480 267.266667 540 267.266667zM540 287.266667L540 280.6 480 280.6 480 287.266667 540 287.266667zM540 293.933333L540 300.6 480 300.6 480 293.933333 540 293.933333zM300 233.930027L300 240.6 240 240.6 240 233.930027 300 233.930027zM300 213.926667L300 207.256693 240 207.256693 240 213.926667 300 213.926667zM300 193.92336L300 200.593333 240 200.593333 240 193.92336 300 193.92336zM300 180.6L300 187.270027 240 187.270027 240 180.6 300 180.6zM300 227.26L300 220.589973 240 220.589973 240 227.26 300 227.26zM712.733274 180.6L719.4 180.6C719.4 213.736533 692.536655 240.6 659.4 240.6L659.4 233.933333C688.856584 233.933333 712.733274 210.056533 712.733274 180.6zM699.399822 180.6L706.066548 180.6C706.066548 206.373333 685.17331 227.266667 659.4 227.266667L659.4 220.6C681.490036 220.6 699.399822 202.690133 699.399822 180.6zM692.73363 180.6L686.066904 180.6C686.066904 195.3264 674.12669 207.266667 659.4 207.266667L659.4 213.933333C677.809964 213.933333 692.73363 199.010133 692.73363 180.6zM672.733452 180.6L679.400178 180.6C679.400178 191.6464 670.446619 200.6 659.4 200.6L659.4 193.933333C666.763345 193.933333 672.733452 187.9632 672.733452 180.6zM659.4 180.6L666.066726 180.6C666.066726 184.2832 663.083274 187.266667 659.4 187.266667L659.4 180.6zM186.666726 420.6L180 420.6C180 387.463467 206.863345 360.6 240 360.6L240 367.266667C210.543416 367.266667 186.666726 391.143467 186.666726 420.6zM200.000178 420.6L193.333452 420.6C193.333452 394.826667 214.22669 373.933333 240 373.933333L240 380.6C217.909964 380.6 200.000178 398.509867 200.000178 420.6zM206.666904 420.6L213.33363 420.6C213.33363 405.873067 225.27331 393.933333 240 393.933333L240 387.266667C221.590036 387.266667 206.666904 402.189867 206.666904 420.6zM226.666548 420.6L220.000356 420.6C220.000356 409.553067 228.953381 400.6 240 400.6L240 407.266667C232.636655 407.266667 226.666548 413.2368 226.666548 420.6zM240 420.6L233.333274 420.6C233.333274 416.9168 236.316726 413.933333 240 413.933333L240 420.6z"/>
      <path fill="#1F242C" fill-rule="nonzero" d="M120,300.6 L120,360.6 L180,360.6 C180,327.463467 153.136655,300.6 120,300.6 Z" transform="rotate(-180 150 330.6)"/>
      <path fill="#1F242C" fill-rule="nonzero" d="M420.6,540.6 L480.6,540.6 L480.6,480.6 C447.463345,480.6 420.6,507.463467 420.6,540.6 Z" transform="rotate(-90 450.6 510.6)"/>
      <path fill="#1F242C" d="M186.669929 540.6L180 540.6 180 480.6 186.669929 480.6 186.669929 540.6zM206.67331 540.6L213.343238 540.6 213.343238 480.6 206.67331 480.6 206.67331 540.6zM226.67669 540.6L220.006762 540.6 220.006762 480.6 226.67669 480.6 226.67669 540.6zM240 540.6L233.330071 540.6 233.330071 480.6 240 480.6 240 540.6zM193.339858 540.6L200.009786 540.6 200.009786 480.6 193.339858 480.6 193.339858 540.6zM6.66992883 420.6L0 420.6 0 360.6 6.66992883 360.6 6.66992883 420.6zM26.6733096 420.6L33.3432384 420.6 33.3432384 360.6 26.6733096 360.6 26.6733096 420.6zM46.6766904 420.6L40.0067616 420.6 40.0067616 360.6 46.6766904 360.6 46.6766904 420.6zM60 420.6L53.3300712 420.6 53.3300712 360.6 60 360.6 60 420.6zM13.3398577 420.6L20.0097865 420.6 20.0097865 360.6 13.3398577 360.6 13.3398577 420.6z"/>
      <path fill="#4038FF" d="M487.269929,60.6 L480.6,60.6 L480.6,0.6 L487.269929,0.6 L487.269929,60.6 Z M507.27331,60.6 L513.943238,60.6 L513.943238,0.6 L507.27331,0.6 L507.27331,60.6 Z M527.27669,60.6 L520.606762,60.6 L520.606762,0.6 L527.27669,0.6 L527.27669,60.6 Z M540.6,60.6 L533.930071,60.6 L533.930071,0.6 L540.6,0.6 L540.6,60.6 Z M493.939858,60.6 L500.609786,60.6 L500.609786,0.6 L493.939858,0.6 L493.939858,60.6 Z"/>
    </g>
    <g transform="translate(15 197)">
      <path fill="#000" fill-rule="nonzero" d="M149.615926,229.513333 C148.741885,266.540363 41.1503709,312.323113 7.83816589,251.004645 C3.66971564,240.128662 1.031406,228.718 0,217.104658 C0.140974207,131.921168 174.230022,144.088207 149.615926,229.513333 Z"/>
      <path fill="#000" fill-rule="nonzero" d="M274.381956,228.063167 C272.586591,282.53895 154.007034,298.613073 125.936651,250.078035 C121.669315,239.549511 118.994542,228.446834 118,217.1339 C118.79794,134.233497 300.785214,144.722182 274.381956,228.063167 Z"/>
      <path fill="#000" fill-rule="nonzero" d="M216.347877,195.8519 C215.172731,252.502346 101.424308,268.006234 73.9570511,217.241914 C69.7427507,206.203017 67.0656262,194.642911 66,182.882708 C65.900933,90.9859119 242.555038,103.65939 216.347877,195.8519 Z"/>
      <g transform="translate(7 163)">
        <path fill="#FFF" fill-rule="nonzero" d="M135.234 70.391L137.172 68.068"/>
        <path fill="#000" fill-rule="nonzero" d="M137.59596,62.3307895 C136.09697,111.337763 32.5252525,125.636842 7.96161616,81.9221053 C4.21570845,72.4310157 1.86666251,62.4327391 0.98989899,52.2482895 C1.55555556,-22.345 160.533333,-12.6353947 137.59596,62.3307895 Z"/>
        <path fill="#C4C3C6" d="M12.7272727,70.8643421 C27.3494949,95.0594737 82.189899,100.609868 108.634343,82.7396053 C130.836364,67.8525 128.729293,44.5465789 130.242424,39.4694737 C148.060606,117.318421 17.4646465,115.482632 12.7272727,70.8643421 Z"/>
        <path fill="#D8D8D8" d="M67.5535354,88.6485526 C147.848485,89.1218421 154,9.76697368 73.0828283,7.22842105 C-7.21212121,6.74078947 -13.3636364,86.0526316 67.5535354,88.6485526 Z"/>
        <path fill="#C4C3C6" d="M67.5535354,88.6485526 C147.848485,89.1218421 154,9.76697368 73.0828283,7.22842105 C-7.21212121,6.74078947 -13.3636364,86.0526316 67.5535354,88.6485526 Z"/>
        <path fill="#FFF" d="M9.20606061,52.4921053 C18.8222222,100.079211 132.929293,94.9447368 130.242424,43.0263158 C140.791919,100.394737 12.3171717,105.859079 9.20606061,52.4921053 Z"/>
      </g>
      <g transform="translate(128 162)">
        <path fill="#FFF" fill-rule="nonzero" d="M134.485 70.22L136.422 67.895"/>
        <path fill="#000" fill-rule="nonzero" d="M136.846465,62.15311 C135.347475,111.200957 31.8040404,125.511962 7.21212121,81.7607656 C3.4706982,72.2644877 1.1171898,62.2639934 0.226262626,52.076555 C0.806060606,-22.5933014 159.79798,-12.9186603 136.846465,62.15311 Z"/>
        <path fill="#C4C3C6" d="M11.9353535,70.6937799 C26.5575758,94.9090909 81.3979798,100.464115 107.842424,82.5789474 C130.044444,67.6794258 127.937374,44.354067 129.450505,39.2727273 C147.311111,117.186603 16.7151515,115.349282 11.9353535,70.6937799 Z"/>
        <path fill="#D8D8D8" d="M66.789899,88.492823 C147.09899,88.9665072 153.250505,9.54545455 72.3333333,7.00478469 C-7.97575758,6.51674641 -14.1414141,85.9090909 66.789899,88.492823 Z"/>
        <path fill="#C4C3C6" d="M66.789899,88.492823 C147.09899,88.9665072 153.250505,9.54545455 72.3333333,7.00478469 C-7.97575758,6.51674641 -14.1414141,85.9090909 66.789899,88.492823 Z"/>
        <path fill="#FFF" d="M8.48484848,52.3062201 C18.1010101,99.9330144 132.179798,94.7942584 129.535354,42.8325359 C140.070707,100.248804 11.610101,105.717703 8.48484848,52.3062201 Z"/>
      </g>
      <g transform="translate(73 128)">
        <path fill="#FFF" fill-rule="nonzero" d="M134.343 70.206L136.281 67.892"/>
        <path fill="#000" fill-rule="nonzero" d="M136.676768,62.1260805 C135.177778,111.26909 31.6343434,125.589288 7.04242424,81.766031 C3.29668531,72.2563162 0.947620636,62.2379838 0.0707070707,52.0329288 C0.636363636,-22.7599133 159.614141,-13.0262043 136.676768,62.1260805 Z"/>
        <path fill="#C4C3C6" d="M11.7656566,70.6808173 C26.3878788,94.9503901 81.2282828,100.500186 107.672727,82.5855604 C129.874747,67.6614985 127.767677,44.2977214 129.280808,39.2223901 C147.141414,117.264594 16.5454545,115.40987 11.7656566,70.6808173 Z"/>
        <path fill="#D8D8D8" d="M66.6343434,88.5091765 C146.929293,88.9980186 153.080808,9.43177709 72.1636364,6.8869226 C-8.13131313,6.3980805 -14.2828283,85.9211889 66.6343434,88.5091765 Z"/>
        <path fill="#C4C3C6" d="M66.6343434,88.5091765 C146.929293,88.9980186 153.080808,9.43177709 72.1636364,6.8869226 C-8.13131313,6.3980805 -14.2828283,85.9211889 66.6343434,88.5091765 Z"/>
        <path fill="#FFF" d="M8.28686869,52.2629721 C17.9030303,99.9682105 131.967677,94.8209907 129.323232,42.7736842 C139.872727,100.356409 11.3979798,105.776805 8.28686869,52.2629721 Z"/>
      </g>
      <path fill="#FFF" fill-rule="nonzero" d="M265 1L268 0"/>
      <path fill="#000" fill-rule="nonzero" d="M478.169629,238.82613 C487.161993,241.081861 497.706722,241.582086 509.803817,240.326805 C546.009911,235.230173 576.536618,202.257798 583.522265,158.993059 C591.899361,107.290563 563.899981,58.3770575 518.805646,50.7037955 C513.126259,49.7269411 285.354429,2.11590787 278.85153,1.01163769 C233.757195,-6.6757816 191.857515,30.3314265 183.480418,82.0197651 C179.519046,106.469439 183.594006,130.876642 194.668811,150.696876 C199.340108,159.078003 211.337813,172.215987 218.522238,177.19936 L478.169629,238.82613 Z"/>
      <path fill="#C4C3C6" d="M295.129808,125.684487 C328.682572,136.144161 381.049306,189.648869 399.749682,134.327555 C405.017594,118.716102 423.703771,82.0149942 445.627371,68.8729889 C469.070288,54.8226809 483.581894,53.9853393 491.604455,53.7724559 C502.168677,58.9668122 297.799262,14.403209 276.131248,10.7132292 C241.868524,4.88022251 208.372557,35.4644788 201.315543,79.0488181 C197.836734,100.521663 201.429137,121.128781 210.062264,137.236962 C217.687247,151.429193 222.997756,153.742526 226.888343,155.23271 C229.501,156.226166 251.25421,112.003177 295.129808,125.684487 Z"/>
      <path fill="#C4C3C6" d="M440.533676,136.18704 C448.411487,89.6178612 484.324617,56.7195857 520.750589,62.7023823 C557.176561,68.6851788 580.339889,111.26109 572.462078,157.816057 C564.584267,204.371025 528.671137,237.269301 492.245165,231.300715 C455.819193,225.33213 432.670111,182.756219 440.533676,136.18704 Z"/>
      <path fill="#FFF" d="M474.37642,229 C444.502517,216.02661 426.694438,177.84534 433.514251,136.708468 C441.284018,89.816697 478.076984,57.0066667 515.749012,63.2873221 C517.819059,63.6425628 524.000845,65.0351063 526,65.6034914 C520.391435,63.4583094 514.595831,61.8409103 508.688165,60.772218 C471.08703,54.477353 434.294064,87.3584314 426.453405,134.193364 C419.10899,178.442145 440.29153,219.323244 474.362242,229 L474.37642,229 Z"/>
      <path fill="#000" fill-rule="nonzero" d="M529.140853,80.0141412 C554.252912,92.2038695 567.688215,125.266033 559.753648,159.742318 C550.693611,199.040757 517.323413,225.35756 485.191232,218.513212 C483.436155,218.13862 481.703086,217.666522 480,217.09909 C483.55233,218.818447 487.298173,220.100431 491.156226,220.917219 C523.274338,227.761567 556.644536,201.444764 565.718642,162.146324 C574.272217,125.011491 558.051374,89.5736033 529.140853,80 L529.140853,80.0141412 Z"/>
      <path fill="#FFF" d="M457.704612,192 C450.544943,176.774912 448.755026,157.58481 454.182055,138.12661 C464.950197,99.5911921 499.817783,74.6299489 532.064931,82.3059898 C537.36042,83.5737068 542.406809,85.6953476 547,88.5851041 C539.614805,81.7543845 530.332981,77.245057 520.337394,75.6317852 C487.546111,70.4109486 455.298963,98.1237137 448.339766,137.435202 C444.731292,157.768244 448.597514,177.226443 457.704612,192 L457.704612,192 Z"/>
      <path fill="#FFF" fill-rule="nonzero" d="M509.823366,97.7259786 L518.318304,97 L553,121.412811 L547.699617,138.75089 L541.740267,135.291815 L526.211577,125.782918 C519.120524,142.779359 507.789165,167.064057 505.969844,175.24911 C504.938418,179.960854 516.155175,188.245552 518.791041,190.793594 C518.043193,192.158085 517.225579,193.483661 516.341405,194.765125 L510.611261,200.900356 L506.772064,205 L484.739661,191.818505 C480.138953,188.561796 477.043217,183.609142 476.144445,178.067616 C475.745613,175.063212 476.176416,172.007589 477.390752,169.227758 L509.823366,97.7259786 Z"/>
      <path fill="#000" fill-rule="nonzero" d="M516.213939,100 L552,123.926293 L547.812863,135.067328 L525.369811,121.261517 L505.82984,170.347271 C504.266643,174.273565 505.82984,178.851878 509.61222,182.083629 L518.670393,189.170801 L509.472649,200 L495.515527,189.610206 C491.03192,186.368452 488.015429,181.436317 487.141254,175.917789 C486.751706,172.930789 487.171519,169.892453 488.355524,167.129695 L516.213939,100 Z"/>
      <path fill="#C4C3C6" fill-rule="nonzero" d="M514.545932,103 L546,123.771248 L544.778759,129.042415 L521.149156,114.966974 L498.612991,168.73288 C497.192943,172.137769 498.612991,176.112514 501.935904,178.919055 L512.41586,186.882791 L508.368723,191 L494.43805,182.85106 C490.519595,180.026412 487.887074,175.749476 487.124801,170.969565 C486.781485,168.374405 487.149692,165.734447 488.189838,163.333495 L514.545932,103 Z"/>
      <path fill="#FFF" fill-rule="nonzero" d="M270.669936 23.7131935L454 63.9499879C445.4837 68.4810764 437.792018 74.3941888 431.243747 81.4442463 423.463953 89.6552612 416.509073 102 416.509073 102L222 59.6751812C224.555811 52.4153492 228.050581 45.5152177 232.396763 39.1476441 240.905155 26.8860847 255.95012 20.8188904 270.669936 23.7131935zM150 226L148 224"/>
      <path fill="#000" fill-rule="nonzero" d="M337.970655,84.1986931 C338.253017,79.1196017 336.497666,73.4032637 332.7046,67.0496791 C319.998299,48.2296629 281.427618,35.7537906 237.774416,37.0990889 C185.63623,38.6992859 143.959564,59.4876861 146.077281,84.6518462 C146.345525,87.8239182 148.449124,215.655586 148.759722,219.280811 C150.877439,244.388327 195.843625,262.514453 247.981811,260.900094 C272.632034,260.14956 295.531611,255.079909 312.487464,246.809864 C319.659464,243.297927 329.909213,235.311103 333.22697,230.878699 L337.970655,84.1986931 Z"/>
      <path fill="#000" fill-rule="nonzero" d="M362.392122,103.82908 C360.385362,98.3095353 357.067112,93.3629774 352.724349,89.4172075 C336.171305,74.3651234 301.617179,64.9184469 263.286802,66.0992814 C250.86379,66.4407471 238.50277,67.9844283 226.376069,70.7088043 C223.52371,71.376866 220.602834,71.7063493 217.673654,71.690462 C214.933741,71.690462 212.165436,71.690462 209.368738,71.7900505 C156.856122,73.3976927 114.948243,94.282815 117.077708,119.564056 C117.347441,122.750887 119.46271,251.177317 119.775031,254.819409 C121.904497,280.043743 172.926487,301 226.88714,301 C266.637161,301 300.708607,296.731923 338.357556,276.814232 C338.925413,276.501239 339.521663,276.188247 340.117914,275.832574 C351.916818,269.02165 359.360229,256.57856 359.794174,242.939929 L363.982123,113.474934 C364.108105,110.185002 363.56721,106.903624 362.392122,103.82908 Z"/>
      <path fill="#C4C3C6" d="M269.592837 223.910489C273.3911 202.556382 324.810439 164.436187 252.129396 160.471234 231.653048 159.366711 181.733023 153.036946 159.785919 141.694347 136.310942 129.530436 131.413182 121.034107 129 116.276163 132.526958 109.295013 132.783984 236.86739 134.083389 250.249108 136.111033 271.48993 182.504099 287.378065 237.693142 285.905368 264.82359 285.169019 289.098201 280.340272 306.504526 273.090072 321.854648 266.689504 323.21117 263.177688 323.996525 260.713753 324.524855 259.028648 264.623682 251.835089 269.592837 223.910489zM245.019354 115.928165C197.845394 117.184302 158.021928 101.814261 156.074118 81.7725189 154.126309 61.7307764 190.807688 44.3283339 237.981647 43.0721965 285.155607 41.8160591 324.993291 57.1014162 326.926883 77.2137282 328.860475 97.3260402 292.207531 114.672027 245.019354 115.928165z"/>
      <path fill="#FFF" d="M326,86.6012861 C319.72683,104.362012 286.170346,118.573455 244.519908,119.747008 C197.051495,121.0923 157.008468,105.020346 155.073885,83.8391427 C154.960021,81.8944474 154.960021,79.9446952 155.073885,78 C154.187049,81.2598632 153.845729,84.645509 154.063919,88.0181369 C155.998502,109.185029 196.041529,125.22836 243.509942,123.926002 C288.360977,122.652267 323.795144,106.294081 325.9431,86.644221 L326,86.6012861 Z"/>
      <path fill="#FFF" d="M345.943307,112.167167 C338.488139,132.795768 298.462673,147.057341 246.645003,149.284374 C187.584764,151.882578 136.00804,137.107075 133.173376,112.738201 C133.031726,110.4944 133.031726,108.243801 133.173376,106 C132.140538,109.745752 131.78527,113.648128 132.12455,117.52061 C134.959214,141.889484 183.715447,162.375327 242.761512,159.777123 C298.547713,157.321677 343.718095,134.822939 346,112.110063 L345.943307,112.167167 Z"/>
      <path fill="#000" fill-rule="nonzero" d="M170,75.5575443 C176.539983,60.4897617 206.148008,49.2953356 241.825821,49.5223455 C282.462053,49.7777317 315.603664,64.7745737 315.831637,83.0063068 C315.845957,84.010201 315.760044,85.0130271 315.575167,86 C316.509583,83.9547467 316.995325,81.7346085 317,79.4876533 C316.757778,61.2559201 283.630416,46.2590781 242.908694,46.003692 C204.50945,45.7483058 173.091887,58.7729992 170,75.5575443 Z"/>
      <path fill="#FFF" d="M296,99.4175772 C282.651144,105.109434 264.264718,108.296873 244.114437,107.713458 C204.194868,106.532398 172.417254,90.8655628 173.151017,72.7085405 C173.32858,69.5844507 174.35898,66.5706407 176.128405,64 C171.104945,68.7811595 168.522661,74.1599639 169.072984,79.7949019 C170.992059,97.9234649 204.858077,111.868513 244.66476,110.957816 C265.29481,110.474009 283.483684,106.091279 296,99.4602662 L296,99.4175772 Z"/>
      <path fill="#FFF" fill-rule="nonzero" d="M190.521567,81.9857608 L188,77.5025032 L204.482786,56 L222.546894,56.785284 L220.438465,60.3975903 L214.469331,69.8638317 C232.590423,71.6628459 258.63237,74.8753713 267.180055,74.8753713 C272.009497,74.8753713 277.7222,67.8792049 279.645429,66.1658581 C280.443213,66.1658581 284.047487,67.0082536 284.047487,67.0082536 L291.184804,69.2927161 L296,70.8632841 L287.808469,84.2416675 C284.725445,87.5434001 280.637252,89.7276247 276.183617,90.4525499 C273.251109,91.0236894 270.249486,91.1488352 267.279778,90.823775 L190.521567,81.9857608 Z"/>
      <path fill="#000" fill-rule="nonzero" d="M192,79.5318959 L207.721023,57 L219.597542,57.9560716 L210.922395,71.897593 L263.55924,76.8349178 C267.473236,77.307536 271.397597,76.0397011 274.292411,73.3673746 L279.308847,67.5310571 L292,71.326804 L284.85408,80.2453821 C281.763168,83.5478303 277.66091,85.7313116 273.191939,86.4527125 C270.25005,87.0237417 267.238766,87.1488173 264.25954,86.8237254 L192,79.5318959 Z"/>
      <path fill="#C4C3C6" fill-rule="nonzero" d="M197,79.8873048 L210.489473,61 L215.871063,61 L207.2378,75.0131616 L264.404766,80.6627367 C267.765372,81.0596833 271.135074,79.9963969 273.620206,77.7548672 L279.115391,71.3852483 L284,73.033041 L279.044394,81.3412396 C276.407753,84.0920146 272.913847,85.9172915 269.104782,86.5338637 C266.580249,87.0187343 263.99475,87.1261241 261.437082,86.8523447 L197,79.8873048 Z"/>
      <path fill="#FFF" fill-rule="nonzero" d="M152,251.808765 L152.48269,138 C152.48269,138 162.164882,144.033711 179.925031,149.277965 C189.495698,151.82643 199.202543,153.840819 209,155.311676 L209,276 C199.637321,275.474179 190.321601,274.315504 181.117559,272.532026 C163.825903,269.035857 152.369116,260.915722 152,251.808765 Z"/>
      <g transform="translate(294 198)">
        <path fill="#FFF" fill-rule="nonzero" d="M170.348 89.923L172.348 86.507"/>
        <path fill="#000" fill-rule="nonzero" d="M171.865574,78.5482243 C174.418033,115.564393 137.577541,146.893364 90.8817213,150.08271 C68.7887705,151.578598 47.5040984,146.582897 30.9556557,136.252804 C24.4289924,132.262185 18.947016,126.787219 14.9602459,120.27785 C12.6940572,116.579825 10.9702814,112.578604 9.84114754,108.395421 C5.19,96.7858255 2.30666667,87.3777259 1.19114754,80.1711215 C0.118141508,71.5921659 0.676148285,62.8888999 2.83606557,54.5152336 C10.7912295,25.5853271 42.9663934,3.20345794 82.0615574,0.536261682 C128.771557,-2.63897196 169.54,23.3979439 172.078279,60.4282243 C172.432787,65.0993458 171.496885,73.1997196 171.865574,78.5482243 Z"/>
        <path fill="#C4C3C6" d="M18.902377,104.514579 C24.0498361,113.433458 47.8302459,128.505234 74.6027049,130.212804 C99.4466393,131.821589 127.069918,120.898785 139.534426,109.961869 C154.182705,97.0915888 161.797541,72.8328037 162.790164,65.6779439 C164.392541,69.7281308 162.974508,75.118972 163.286475,79.5501869 C165.456066,110.596916 133.068197,138.172056 90.9668033,140.994486 C70.2068033,142.405701 50.949918,137.508785 36.5001639,128.505234 C23.7378689,120.531869 22.0787705,115.592617 21.0436066,111.994019 C19.8051913,107.760374 19.0914481,105.267227 18.902377,104.514579 Z"/>
        <path fill="#D8D8D8" d="M89.8040164,122.775701 C131.749426,119.727477 164.137295,92.0253271 162.123689,60.8939252 C160.110082,29.7625234 124.503279,6.97140187 82.5578689,10.0901869 C40.612459,13.208972 8.23877049,40.8264486 10.2381967,71.9719626 C12.237623,103.117477 47.8727869,125.795701 89.8040164,122.775701 Z"/>
        <path fill="#C4C3C6" d="M89.8040164,122.775701 C131.749426,119.727477 164.137295,92.0253271 162.123689,60.8939252 C160.110082,29.7625234 124.503279,6.97140187 82.5578689,10.0901869 C40.612459,13.208972 8.23877049,40.8264486 10.2381967,71.9719626 C12.237623,103.117477 47.8727869,125.795701 89.8040164,122.775701 Z"/>
        <path fill="#FFF" d="M11.3442623,79.6066355 C19.9233607,104.726262 51.6589344,121.844299 88.2158197,119.219439 C129.877623,116.227664 162.024426,88.7513084 160.01082,57.8457009 C159.89955,56.150493 159.686465,54.463429 159.372705,52.7935514 C160.586801,56.3267727 161.325864,60.0043172 161.570656,63.7304673 C163.570082,94.6360748 131.437459,122.11243 89.7756557,125.104206 C50.4110656,127.926636 16.6477049,107.887383 11.3442623,79.6066355 L11.3442623,79.6066355 Z"/>
        <path fill="#FFF" d="M149.942787,53.2028037 C141.505492,31.8511215 113.428443,18.5715888 81.9906557,22.6641121 C46.1853279,27.3070093 19.5972131,52.7371028 22.5892623,79.4372897 C22.7569085,80.8954181 23.012617,82.3421789 23.355,83.7697196 C22.1646708,80.7621367 21.3779742,77.6115003 21.0152459,74.3992523 C18.0090164,47.6990654 44.5971311,22.2830841 80.4166393,17.6260748 C114.236721,13.2371963 144.228115,28.9157944 149.900246,53.2028037 L149.942787,53.2028037 Z"/>
        <path fill="#000" fill-rule="nonzero" d="M40.740082,99.095514 C53.63,105.939907 70.5187705,108.677664 88.4143443,105.671776 C123.765902,99.7305607 149.318852,73.4960748 145.475984,47.092243 C144.847995,42.7349123 143.430631,38.5271711 141.292787,34.6735514 C146.632126,40.9474466 149.799403,48.7657163 150.325656,56.9707477 C151.857131,83.6427103 124.162951,107.576916 88.4852459,110.413458 C70.0508197,111.824673 53.0344262,107.435794 40.740082,99.1237383 L40.740082,99.095514 Z"/>
        <path fill="#000" fill-rule="nonzero" d="M127.112459,65.9742991 L128.530492,59.2145794 L109.344508,34.8570093 L102.438689,33.4457944 L99.0637705,37.5242056 L105.98377,50.676729 L70.9016393,60.7528037 L70.9016393,60.7528037 C65.7872678,62.85081 62.005847,63.1847975 59.557377,61.7547664 C57.0010047,60.2633443 54.7145214,58.3551765 52.7933607,56.1099065 C49.1631967,57.1259813 56.310082,68.9942991 53.8001639,65.6497196 L48.2131148,57.7328037 L41.1229508,58.791215 L37.7622131,64.5771963 L45.6181148,76.8124299 C48.2149631,80.8032063 52.2934203,83.6088851 56.962377,84.6164486 C59.5962709,85.1465293 62.321696,85.0106706 64.8891803,84.2213084 L127.112459,65.9742991 Z"/>
        <path fill="#C4C3C6" fill-rule="nonzero" d="M128.799918,59.271028 L111.031967,28.2242991 L100.75123,30.8491589 L110.833443,50.2957009 L65.4563934,62.9966355 C61.6129635,63.8864687 57.6169393,62.3193353 55.4167213,59.0593458 L49.9856557,51.1142056 L39.4922131,57.9585981 L47.3622951,70.1797196 C49.9534604,74.1759792 54.0344543,76.9834031 58.7065574,77.9837383 C61.3398178,78.511215 64.06344,78.3802951 66.6333607,77.6027103 L128.799918,59.271028 Z"/>
        <path fill="#FFF" fill-rule="nonzero" d="M40.8109836,61.2043925 L42.3566393,60.1883178 L49.6453279,70.8571028 C53.0060656,75.3447664 58.2386066,77.4898131 63.102459,76.1209346 L124.077869,59.1863551 L110.549836,33.121215 L112.87541,32.5285047 L129.040984,60.682243 L66.647541,78.6893458 C64.0655598,79.4576128 61.3327909,79.5788084 58.692377,79.0421495 C54.0293276,78.0035682 49.9585223,75.1930253 47.3481148,71.2099065 L40.8109836,61.2043925 Z"/>
      </g>
    </g>
  </g>
</svg>
