<svg width="375" height="260" viewBox="0 0 375 260" fill="none" xmlns="http://www.w3.org/2000/svg">
<path fill-rule="evenodd" clip-rule="evenodd" d="M152.206 121.115H149.328V118.237H152.206V115.352H149.328V112.467H152.206V109.589H155.091V106.703H152.206V109.581H149.328V106.703H152.206V103.817H149.321V106.702H146.443V109.58H143.558V106.702H140.673V109.58H137.794V106.702H140.673V103.817H137.787V106.702H134.909V103.817H132.022V106.702H134.908V109.58H132.022V112.465H134.908V115.35H132.022V118.236H134.908V121.114V121.121H137.786V123.999H140.671V121.121H143.556V123.999H146.442V121.121H149.32V123.999H152.205V121.121H155.09V118.236H152.205V121.115H152.206ZM134.908 121.122V124H132.022V121.115H134.908V121.122ZM143.556 106.702V103.817H146.442V106.702H143.556ZM152.206 112.465V115.35H155.091V112.465H152.206ZM137.785 109.587H134.907V112.465H137.785V109.587ZM137.793 124V126.886H140.671V124H143.556V126.886H146.442V124H149.327V126.886H152.205V124H155.09V126.886H152.205V129.771H149.32V126.886H146.442V129.771H143.556V126.886H140.671V129.771H137.786V126.886H134.908V129.771H132.023V126.886H134.908V124H137.793ZM149.319 118.237V115.352H146.441V118.237H149.319ZM143.556 118.237V121.115H146.442V118.237H143.556ZM140.671 118.237H143.556V115.352H140.671V118.237ZM140.671 118.237H137.793V121.115H140.671V118.237ZM140.671 112.465H137.793V115.35H140.671V112.465ZM143.556 112.465V109.587H140.671V112.465H143.556ZM146.443 112.465H143.558V115.35H146.443V112.465ZM146.442 112.465H149.32V109.587H146.442V112.465ZM137.785 115.35V118.236H134.907V115.35H137.785ZM157.976 106.702H155.091V103.817H157.976V106.702ZM155.091 112.465H157.976V109.58H155.091V112.465ZM157.976 118.237H155.091V115.352H157.976V118.237ZM155.091 124H157.976V121.115H155.091V124ZM155.091 129.771H157.976V126.886H155.091V129.771Z" fill="#4038FF"/>
<path fill-rule="evenodd" clip-rule="evenodd" d="M289.977 113.115H287.099V110.237H289.977V107.352H287.099V104.467H289.977V101.589H292.862V98.7034H289.977V101.581H287.099V98.7034H289.977V95.8166H287.091V98.7018H284.213V101.58H281.328V98.7018H278.443V101.58H275.565V98.7018H278.443V95.8166H275.558V98.7018H272.68V95.8166H269.793V98.7018H272.678V101.58H269.793V104.465H272.678V107.35H269.793V110.236H272.678V113.114V113.121H275.556V115.999H278.441V113.121H281.327V115.999H284.212V113.121H287.09V115.999H289.975V113.121H292.861V110.236H289.975V113.115H289.977ZM272.678 113.122V116H269.793V113.115H272.678V113.122ZM281.327 98.7018V95.8167H284.212V98.7018H281.327ZM289.976 104.465V107.35H292.862V104.465H289.976ZM275.556 101.587H272.678V104.465H275.556V101.587ZM275.564 116V118.886H278.442V116H281.327V118.886H284.212V116H287.098V118.886H289.976V116H292.861V118.886H289.976V121.771H287.09V118.886H284.212V121.771H281.327V118.886H278.442V121.771H275.556V118.886H272.678V121.771H269.793V118.886H272.678V116H275.564ZM287.09 110.237V107.352H284.212V110.237H287.09ZM281.327 110.237V113.115H284.212V110.237H281.327ZM278.441 110.237H281.327V107.352H278.441V110.237ZM278.442 110.237H275.564V113.115H278.442V110.237ZM278.442 104.465H275.564V107.35H278.442V104.465ZM281.327 104.465V101.587H278.441V104.465H281.327ZM284.213 104.465H281.328V107.35H284.213V104.465ZM284.213 104.465H287.091V101.587H284.213V104.465ZM275.556 107.35V110.236H272.678V107.35H275.556ZM295.747 98.7018H292.862V95.8167H295.747V98.7018ZM292.862 104.465H295.747V101.58H292.862V104.465ZM295.747 110.237H292.862V107.352H295.747V110.237ZM292.862 116H295.747V113.115H292.862V116ZM292.862 121.771H295.747V118.886H292.862V121.771Z" fill="#4038FF"/>
<path fill-rule="evenodd" clip-rule="evenodd" d="M126.072 43.1924H123.194V40.3144H126.072V37.4292H123.194V34.544H126.072V31.666H128.957V28.7808H126.072V31.6588H123.194V28.7808H126.072V25.894H123.186V28.7792H120.308V31.6572H117.423V28.7792H114.538V31.6572H111.66V28.7792H114.538V25.894H111.652V28.7792H108.775V25.894H105.888V28.7792H108.773V31.6572H105.888V34.5426H108.773V37.4278H105.888V40.313H108.773V43.191V43.1982H111.651V46.0762H114.536V43.1982H117.421V46.0762H120.307V43.1982H123.185V46.0762H126.07V43.1982H128.955V40.313H126.07V43.1924H126.072ZM108.773 43.1995V46.0778H105.888V43.1924H108.773V43.1995ZM117.421 28.7792V25.894H120.307V28.7792H117.421ZM126.071 34.5426V37.4278H128.957V34.5426H126.071ZM111.651 31.6644H108.773V34.5426H111.651V31.6644ZM111.658 46.0778V48.963H114.536V46.0778H117.421V48.963H120.307V46.0778H123.192V48.963H126.07V46.0778H128.955V48.963H126.07V51.8481H123.185V48.963H120.307V51.8481H117.421V48.963H114.536V51.8481H111.651V48.963H108.773V51.8481H105.888V48.963H108.773V46.0778H111.658ZM123.185 40.3144V37.4292H120.307V40.3144H123.185ZM117.421 40.3143V43.1924H120.307V40.3143H117.421ZM114.536 40.3144H117.421V37.4292H114.536V40.3144ZM114.536 40.3143H111.658V43.1924H114.536V40.3143ZM114.536 34.5426H111.658V37.4278H114.536V34.5426ZM117.421 34.5426V31.6644H114.536V34.5426H117.421ZM120.308 34.5426H117.423V37.4278H120.308V34.5426ZM120.308 34.5426H123.186V31.6644H120.308V34.5426ZM111.651 37.4278V40.313H108.773V37.4278H111.651ZM131.842 28.7792H128.957V25.894H131.842V28.7792ZM128.957 34.5426H131.842V31.6572H128.957V34.5426ZM131.842 40.3144H128.957V37.4292H131.842V40.3144ZM128.957 46.0778H131.842V43.1924H128.957V46.0778ZM128.957 51.8481H131.842V48.963H128.957V51.8481Z" fill="#2F2FF4"/>
<path fill-rule="evenodd" clip-rule="evenodd" d="M181.045 129.771H183.931V155.725H181.045V129.771ZM178.163 129.771H175.279V155.725H178.163V129.771ZM172.396 129.771H169.512V155.725H172.396V129.771ZM163.744 129.771H166.628V155.725H163.744V129.771ZM160.86 129.771H157.977V155.725H160.86V129.771Z" fill="#4038FF"/>
<path fill-rule="evenodd" clip-rule="evenodd" d="M184.19 74.9771V77.8623H158.236V74.9771H184.19ZM184.19 72.0947V69.2109H158.236V72.0947H184.19ZM184.19 66.3271V63.4434H158.236V66.3271H184.19ZM184.19 57.6758V60.5596H158.236V57.6758H184.19ZM184.19 54.792V51.9082H158.236V54.792H184.19Z" fill="#1F242C"/>
<path fill-rule="evenodd" clip-rule="evenodd" d="M157.977 230.702V233.587H132.023V230.702H157.977ZM157.977 227.82V224.936H132.022V227.82H157.977ZM157.977 222.052V219.168H132.022V222.052H157.977ZM157.977 213.401V216.284H132.022V213.401H157.977ZM157.977 210.517V207.633H132.022V210.517H157.977Z" fill="#1F242C"/>
<path fill-rule="evenodd" clip-rule="evenodd" d="M261.794 152.84V155.725H235.84V152.84H261.794ZM261.793 149.957V147.074H235.839V149.957H261.793ZM261.793 144.19V141.306H235.839V144.19H261.793ZM261.793 135.538V138.422H235.839V135.538H261.793ZM261.793 132.655V129.771H235.839V132.655H261.793Z" fill="#1F242C"/>
<path fill-rule="evenodd" clip-rule="evenodd" d="M157.977 158.61V155.725H132.022V158.61H157.977ZM157.977 167.263V170.148H132.022V167.263H157.977ZM157.977 175.916V173.03H132.022V175.916H157.977ZM157.977 181.679V178.794H132.023V181.679H157.977ZM157.977 161.495V164.38H132.022V161.495H157.977Z" fill="#1F242C"/>
<path fill-rule="evenodd" clip-rule="evenodd" d="M336.513 181.679H339.397C339.397 167.345 327.776 155.725 313.442 155.725V158.609C326.184 158.609 336.513 168.937 336.513 181.679ZM330.745 181.679H333.629C333.629 170.53 324.591 161.492 313.442 161.492V164.376C322.998 164.376 330.745 172.123 330.745 181.679ZM327.861 181.679H324.978C324.978 175.309 319.813 170.144 313.442 170.144V167.26C321.406 167.26 327.861 173.715 327.861 181.679ZM319.21 181.679H322.094C322.094 176.901 318.221 173.028 313.442 173.028V175.911C316.628 175.911 319.21 178.494 319.21 181.679ZM313.442 181.679H316.326C316.326 180.086 315.036 178.795 313.442 178.795V181.679Z" fill="#1F242C"/>
<path fill-rule="evenodd" clip-rule="evenodd" d="M108.952 77.8625H106.068C106.068 92.1964 117.689 103.817 132.022 103.817V100.933C119.28 100.933 108.952 90.6045 108.952 77.8625ZM114.719 77.8625H111.836C111.836 89.0113 120.873 98.0491 132.022 98.0491V95.1653C122.467 95.1653 114.719 87.418 114.719 77.8625ZM117.604 77.8625H120.487C120.487 84.233 125.652 89.3977 132.022 89.3977V92.2815C124.059 92.2815 117.604 85.8262 117.604 77.8625ZM126.255 77.8625H123.371C123.371 82.6411 127.244 86.5139 132.022 86.5139V83.6301C128.837 83.6301 126.255 81.0476 126.255 77.8625ZM132.023 77.8625H129.139C129.139 79.4558 130.429 80.7463 132.023 80.7463V77.8625Z" fill="white"/>
<path fill-rule="evenodd" clip-rule="evenodd" d="M287.747 204.749V207.633C302.081 207.633 313.701 196.013 313.701 181.679H310.817C310.817 194.421 300.489 204.749 287.747 204.749ZM287.746 198.982V201.865C298.895 201.865 307.933 192.828 307.933 181.679H305.049C305.049 191.234 297.302 198.982 287.746 198.982ZM287.746 196.098V193.214C294.117 193.214 299.282 188.049 299.282 181.679H302.165C302.165 189.643 295.71 196.098 287.746 196.098ZM287.746 187.447V190.33C292.525 190.33 296.398 186.457 296.398 181.679H293.514C293.514 184.864 290.932 187.447 287.746 187.447ZM287.746 181.679V184.563C289.34 184.563 290.63 183.272 290.63 181.679H287.746Z" fill="#4038FF"/>
<path d="M236.099 25.9541V51.9082H210.145C210.145 37.5743 221.765 25.9541 236.099 25.9541Z" fill="#1F242C"/>
<path fill-rule="evenodd" clip-rule="evenodd" d="M31.0913 77.8625H28.2061V103.817H31.0913V77.8625ZM39.7444 77.8625H42.6296V103.817H39.7444V77.8625ZM48.3966 77.8625H45.5114V103.817H48.3966V77.8625ZM54.1602 77.8625H51.275V103.817H54.1602V77.8625ZM33.9763 77.8625H36.8615V103.817H33.9763V77.8625Z" fill="#1F242C"/>
<path fill-rule="evenodd" clip-rule="evenodd" d="M238.983 233.587H236.098V259.541H238.983V233.587ZM247.636 233.587H250.522V259.541H247.636V233.587ZM256.289 233.587H253.404V259.541H256.289V233.587ZM262.052 233.587H259.167V259.541H262.052V233.587ZM241.868 233.587H244.754V259.541H241.868V233.587Z" fill="#1F242C"/>
<path d="M138.799 164.314C138.277 181.116 71.8881 196.575 50.6827 170.219C48.1924 165.284 46.6162 160.106 46 154.836C46.0842 116.182 153.504 125.55 138.799 164.314Z" fill="black"/>
<path d="M210.123 160.36C209.053 184.609 138.36 191.764 121.625 170.159C119.081 165.473 117.486 160.531 116.894 155.495C117.369 118.593 225.864 123.262 210.123 160.36Z" fill="black"/>
<path d="M166.279 139.592C165.572 165.151 97.1725 172.146 80.6558 149.242C78.1217 144.262 76.5119 139.046 75.8711 133.74C75.8115 92.2787 182.038 97.9967 166.279 139.592Z" fill="black"/>
<path d="M130.755 162.9L131.92 161.855L130.755 162.9Z" fill="white"/>
<path d="M132.176 159.274C131.274 181.322 68.9968 187.755 54.2267 168.088C51.9743 163.818 50.5619 159.32 50.0347 154.738C50.3748 121.18 145.968 125.548 132.176 159.274Z" fill="black"/>
<path fill-rule="evenodd" clip-rule="evenodd" d="M58.0805 165.352C57.7466 165.047 57.4366 164.735 57.1519 164.414C57.1688 164.523 57.1884 164.63 57.2106 164.737C57.0802 164.806 57.1932 165.402 57.2954 165.942C57.4029 166.51 57.4985 167.014 57.2858 166.773C59.9696 184.094 129.932 184.771 128.829 157.884C128.912 155.941 128.601 153.838 127.838 151.569C127.675 151.942 127.581 152.555 127.461 153.345C126.912 156.958 125.799 164.275 114.841 169.273C106.303 173.198 92.8445 174.361 80.8473 173.067C71.5252 171.671 62.9703 168.935 58.0805 165.352Z" fill="#DEE3E9"/>
<path fill-rule="evenodd" clip-rule="evenodd" d="M90.0592 171.114C138.34 171.327 142.039 135.627 93.3839 134.485C45.1028 134.265 41.4039 169.946 90.0592 171.114Z" fill="#DEE3E9"/>
<path fill-rule="evenodd" clip-rule="evenodd" d="M90.0592 171.114C138.34 171.327 142.039 135.627 93.3839 134.485C45.1028 134.265 41.4039 169.946 90.0592 171.114Z" fill="#DEE3E9"/>
<path fill-rule="evenodd" clip-rule="evenodd" d="M55.3735 154.45C61.1557 175.858 129.768 173.548 128.152 150.191C134.496 176 57.2442 178.459 55.3735 154.45Z" fill="white"/>
<path d="M65.5627 173.802L65.4763 165.568C65.4763 165.568 66.6373 166.183 68.7596 166.889C69.9029 167.249 71.0617 167.573 72.2307 167.86L72.3833 176.601C71.2673 176.391 70.1561 176.136 69.0574 175.838C66.9932 175.267 65.6181 174.469 65.5627 173.802Z" fill="white"/>
<path d="M202.902 161.257L204.066 160.21L202.902 161.257Z" fill="white"/>
<path d="M204.321 157.627C203.42 179.694 141.186 186.133 126.406 166.449C124.157 162.177 122.743 157.677 122.207 153.094C122.556 119.499 218.116 123.852 204.321 157.627Z" fill="black"/>
<path fill-rule="evenodd" clip-rule="evenodd" d="M129.245 161.47C138.033 172.364 170.994 174.864 186.888 166.817C200.233 160.114 198.966 149.619 199.876 147.333C210.611 182.387 132.117 181.561 129.245 161.47Z" fill="#DEE3E9"/>
<path fill-rule="evenodd" clip-rule="evenodd" d="M162.215 169.478C210.483 169.691 214.181 133.959 165.546 132.816C117.278 132.596 113.572 168.315 162.215 169.478Z" fill="#DEE3E9"/>
<path fill-rule="evenodd" clip-rule="evenodd" d="M162.215 169.478C210.483 169.691 214.181 133.959 165.546 132.816C117.278 132.596 113.572 168.315 162.215 169.478Z" fill="#DEE3E9"/>
<path fill-rule="evenodd" clip-rule="evenodd" d="M127.171 153.197C132.951 174.625 201.516 172.313 199.927 148.935C206.259 174.767 129.049 177.227 127.171 153.197Z" fill="white"/>
<path d="M159.866 139.75L161.019 138.709L159.866 139.75Z" fill="white"/>
<path d="M162.152 136.961C161.236 159.751 97.983 166.393 82.9601 146.069C80.6719 141.659 79.2369 137.012 78.7012 132.28C79.0467 97.5934 176.164 102.108 162.152 136.961Z" fill="black"/>
<path fill-rule="evenodd" clip-rule="evenodd" d="M86.875 139.964C95.582 150.885 128.237 153.383 143.984 145.321C157.205 138.605 155.95 128.091 156.851 125.807C167.486 160.927 89.7212 160.092 86.875 139.964Z" fill="#DEE3E9"/>
<path fill-rule="evenodd" clip-rule="evenodd" d="M119.547 147.987C167.36 148.207 171.023 112.401 122.84 111.256C75.0272 111.036 71.3642 146.822 119.547 147.987Z" fill="#DEE3E9"/>
<path fill-rule="evenodd" clip-rule="evenodd" d="M119.547 147.987C167.36 148.207 171.023 112.401 122.84 111.256C75.0272 111.036 71.3642 146.822 119.547 147.987Z" fill="#DEE3E9"/>
<path fill-rule="evenodd" clip-rule="evenodd" d="M85.2017 131.277C90.9277 152.745 158.849 150.429 157.274 127.007C163.556 152.92 87.0542 155.359 85.2017 131.277Z" fill="white"/>
<path d="M167.873 83.0655L169.068 82.6672L167.873 83.0655Z" fill="white"/>
<path d="M242.29 164.162C245.82 165.247 250.003 165.666 254.841 165.419C269.348 164.146 282.176 151.668 285.857 134.606C290.266 114.217 280.149 94.1789 262.374 90.187C260.135 89.6801 170.536 65.9959 167.972 65.4212C150.197 61.4237 132.761 75.2693 128.351 95.6528C126.266 105.295 127.378 115.087 131.37 123.201C133.053 126.632 137.551 132.107 140.305 134.239L242.29 164.162Z" fill="black"/>
<path fill-rule="evenodd" clip-rule="evenodd" d="M171.848 115.347C184.975 120.207 209.021 143.603 217.612 121.99C220.032 115.891 227.433 101.285 236.427 96.5147C246.043 91.415 249.949 91.5864 253.145 91.6689C240.145 88.5947 175.229 71.1424 166.688 69.2231C153.182 66.189 139.222 77.6551 135.507 94.8429C133.676 103.311 134.675 111.582 137.773 118.169C140.51 123.972 142.574 125.003 144.09 125.677C145.108 126.126 154.682 108.991 171.848 115.347Z" fill="#DEE3E9"/>
<path d="M164.245 74.2798L240.656 95.1295C237.174 96.7541 233.992 98.9456 231.241 101.613C227.975 104.717 224.952 109.482 224.952 109.482L144.138 87.5686C145.306 84.7344 146.84 82.0629 148.701 79.6209C152.341 74.9214 158.451 72.8219 164.245 74.2798Z" fill="white"/>
<path d="M180.097 78.4951L241.407 94.1176C240.612 94.484 239.886 94.9783 239.258 95.58C238.513 96.2801 229.426 104.359 229.426 104.359C229.426 104.359 229.426 95.5662 223.29 94.0498C204.28 89.3516 181.4 83.2786 180.033 82.8283C175.432 81.3119 178.775 78.1662 180.097 78.4951Z" fill="black"/>
<path d="M162.8 73.7154L176.089 77.3147C175.35 77.6677 174.675 78.1445 174.092 78.7255C173.791 79.0189 171.865 80.1635 168.274 79.4181C164.851 78.7073 163.469 78.1554 162.748 77.9074C158.462 76.432 161.569 73.3948 162.8 73.7154Z" fill="black"/>
<path fill-rule="evenodd" clip-rule="evenodd" d="M231.654 122.41C235.464 106.015 249.452 95.2627 262.782 98.3629C276.112 101.463 283.917 117.3 280.107 133.695C276.297 150.091 262.363 160.864 248.988 157.745C235.614 154.627 227.842 138.811 231.654 122.41Z" fill="#DEE3E9"/>
<path d="M259.601 107.597L274.213 118.293L271.808 124.042L270.105 123.066L263.884 118.327C260.899 124.448 255.344 135.254 254.479 138.299C253.991 140.019 258.271 142.914 259.174 143.917C259.093 144.201 254.47 148.65 254.47 148.65L248.078 142.901C246.275 141.19 245.29 139.329 245.276 137.608C245.207 136.458 245.43 135.365 245.939 134.368L259.601 107.597Z" fill="white"/>
<path d="M258.571 108.755L272.33 119.126L270.41 123.394L261.784 117.372L252.793 136.148C252.053 137.523 252.503 139.248 254.025 140.864L257.488 143.905L253.536 147.915L248.188 143.464C246.255 141.648 245.197 139.676 245.179 137.855C245.101 136.638 245.336 135.483 245.876 134.429L258.571 108.755Z" fill="black"/>
<path fill-rule="evenodd" clip-rule="evenodd" d="M247.652 138.878C247.603 137.745 247.838 136.671 248.349 135.688L259.997 112.476L271.032 120.785L270.465 122.765L261.773 116.835L251.871 136.756C251.244 137.914 251.617 139.362 252.891 140.717L256.677 143.99L254.626 145.827L249.862 142.008C248.788 140.999 248.038 139.93 247.652 138.878Z" fill="#DEE3E9"/>
<path fill-rule="evenodd" clip-rule="evenodd" d="M244.423 155.988C235.652 151.25 228.763 138.179 231.847 123.613C235.333 107.003 250.048 95.72 261.329 98.1097C262.359 98.3626 263.38 98.6554 264.387 98.9864C262.769 98.2144 261.026 97.6088 259.242 97.1985C247.961 94.8088 232.427 105.451 228.942 122.057C225.649 137.746 234.123 152.375 244.249 155.959L244.423 155.988Z" fill="white"/>
<path fill-rule="evenodd" clip-rule="evenodd" d="M222.87 121.016C226.828 102.493 242.659 89.7265 254.632 92.2161C255.724 92.482 256.806 92.7925 257.873 93.1455C256.162 92.3112 254.316 91.6636 252.424 91.2338C240.451 88.7442 223.758 100.81 219.801 119.328C218.098 127.297 218.853 138.426 220.845 137.63C222.836 136.833 220.965 129.861 222.87 121.016Z" fill="white"/>
<path d="M122.071 172.678L121.274 171.881L122.071 172.678Z" fill="white"/>
<path d="M196.935 115.007C197.048 112.984 196.349 110.707 194.838 108.177C189.777 100.681 174.415 95.7122 157.029 96.248C136.264 96.8853 119.665 105.165 120.508 115.187C120.615 116.451 121.453 167.363 121.577 168.807C122.42 178.807 140.329 186.026 161.095 185.383C170.912 185.084 180.033 183.065 186.786 179.771C189.642 178.373 193.725 175.192 195.046 173.426L196.935 115.007Z" fill="black"/>
<path d="M206.662 124.02C205.863 121.822 204.541 119.851 202.812 118.28C196.219 112.285 182.457 108.523 167.191 108.993C162.243 109.129 157.32 109.744 152.49 110.829C151.354 111.095 150.191 111.226 149.024 111.22C147.933 111.22 146.83 111.22 145.716 111.259C124.802 111.9 108.111 120.218 108.959 130.287C109.066 131.556 109.909 182.706 110.033 184.156C110.881 194.202 131.202 202.549 152.693 202.549C168.525 202.549 182.095 200.849 197.09 192.916C197.316 192.792 197.553 192.667 197.791 192.525C202.49 189.813 205.455 184.857 205.627 179.425L207.295 127.862C207.346 126.551 207.13 125.244 206.662 124.02Z" fill="black"/>
<path fill-rule="evenodd" clip-rule="evenodd" d="M173.847 171.085C175.36 162.58 184.202 147.188 162.747 146.579C154.58 146.348 134.709 143.618 125.968 139.101C116.619 134.256 114.668 130.872 113.707 128.977C115.112 126.197 115.214 177.006 115.732 182.336C116.539 190.796 135.017 197.124 156.997 196.537C167.803 196.244 177.471 194.321 184.403 191.433C190.517 188.884 191.057 187.485 191.37 186.504C191.58 185.833 171.868 182.207 173.847 171.085Z" fill="#DEE3E9"/>
<path fill-rule="evenodd" clip-rule="evenodd" d="M159.874 129.037C141.635 129.545 126.238 123.339 125.485 115.248C124.732 107.156 138.914 100.13 157.153 99.6229C175.392 99.1158 190.795 105.287 191.543 113.407C192.29 121.527 178.119 128.53 159.874 129.037Z" fill="#DEE3E9"/>
<path fill-rule="evenodd" clip-rule="evenodd" d="M192.168 118.353C189.67 125.427 176.305 131.087 159.716 131.554C140.811 132.09 124.863 125.689 124.092 117.253C124.047 116.479 124.047 115.702 124.092 114.927C123.739 116.226 124.001 125.142 124.088 126.485C124.859 134.915 140.422 139.369 159.314 138.795C171.458 138.426 191.29 126.196 192.146 118.37L192.168 118.353Z" fill="#DEE3E9"/>
<path fill-rule="evenodd" clip-rule="evenodd" d="M191.354 114.096C189.051 120.638 176.685 125.161 160.676 125.867C142.43 126.691 126.496 122.005 125.62 114.277C125.576 113.565 125.576 112.851 125.62 112.14C125.301 113.328 125.191 114.565 125.296 115.793C126.172 123.522 141.235 130.019 159.477 129.195C176.711 128.416 190.667 121.281 191.372 114.077L191.354 114.096Z" fill="white"/>
<path d="M137.917 114.43L136.011 113.465L143.655 103.377L149.774 103.698L148.472 105.608L146.019 109.476C153.466 110.212 166.78 111.524 170.293 111.524C172.278 111.524 173.755 108.665 174.546 107.965C174.873 107.965 183.008 109.445 183.008 109.445L177.9 115.352C176.633 116.701 174.953 117.594 173.123 117.89C171.918 118.123 170.684 118.175 169.464 118.042L137.917 114.43Z" fill="white"/>
<path d="M136.011 115.657L143.691 104.97L148.839 105.387L145.079 111.46L167.893 113.611C169.589 113.817 171.29 113.264 172.545 112.1L174.719 109.558L180.22 111.211L176.256 115.968C174.916 117.406 173.138 118.358 171.201 118.672C169.926 118.921 168.621 118.975 167.33 118.833L136.011 115.657Z" fill="black"/>
<path fill-rule="evenodd" clip-rule="evenodd" d="M172.968 116.319C171.751 116.535 170.509 116.578 169.28 116.445L140.392 113.55L145.989 105.767H148.32L144.581 111.795L169.343 114.225C170.798 114.396 172.258 113.938 173.334 112.974L175.715 110.234L177.83 110.943L175.684 114.517C174.921 115.307 173.992 115.92 172.968 116.319Z" fill="#DEE3E9"/>
<path d="M130.435 132.304L130.499 122.893C130.499 122.893 131.785 123.619 134.142 124.468C135.413 124.902 136.702 125.296 138.002 125.646V135.638C136.759 135.376 135.523 135.062 134.301 134.7C132.005 134.006 130.484 133.066 130.435 132.304Z" fill="white"/>
<path d="M122.868 180.329L123.06 137.629C123.06 137.629 126.916 139.893 133.99 141.861C137.801 142.817 141.667 143.573 145.57 144.125V189.406C141.841 189.208 138.13 188.774 134.465 188.104C127.578 186.793 123.015 183.746 122.868 180.329Z" fill="white"/>
<path d="M280.314 182.076L281.375 180.98L280.314 182.076Z" fill="white"/>
<path d="M281.672 184.41C282.547 196.724 262.014 206 238.126 206.225C226.824 206.326 215.559 204.291 207.226 200.572C203.939 199.133 200.3 197.22 198.339 194.991C197.224 193.725 196.39 192.368 195.862 190.962C193.62 187.031 193.963 170.089 195.163 167.352C199.561 157.905 216.254 151.06 236.254 150.873C260.149 150.654 280.671 160.011 281.539 172.331C281.666 173.885 281.545 182.63 281.672 184.41Z" fill="black"/>
<path fill-rule="evenodd" clip-rule="evenodd" d="M202.339 187.503C204.865 190.551 216.742 195.502 230.492 195.82C245.936 196.177 258.195 192.474 264.688 189.071C272.319 185.066 275.693 174.905 276.283 172.552C276.371 174.537 276.384 176.488 276.376 178.199C276.365 180.648 276.312 180.217 276.376 181.085C277.125 191.415 259.811 199.977 238.274 200.161C227.654 200.259 217.875 198.292 210.599 195.05C204.172 192.18 203.382 190.513 202.895 189.302C202.312 187.876 202.427 187.756 202.339 187.503Z" fill="#DEE3E9"/>
<path fill-rule="evenodd" clip-rule="evenodd" d="M238.793 191.529C260.253 191.266 277.117 182.662 276.449 172.307C275.781 161.953 257.857 153.763 236.397 154.049C214.936 154.335 198.081 162.911 198.741 173.27C199.402 183.629 217.341 191.782 238.793 191.529Z" fill="#DEE3E9"/>
<path fill-rule="evenodd" clip-rule="evenodd" d="M238.793 191.529C260.253 191.266 277.117 182.662 276.449 172.307C275.781 161.953 257.857 153.763 236.397 154.049C214.936 154.335 198.081 162.911 198.741 173.27C199.402 183.629 217.341 191.782 238.793 191.529Z" fill="#DEE3E9"/>
<path fill-rule="evenodd" clip-rule="evenodd" d="M199.218 175.82C203.309 184.299 219.321 190.539 238.023 190.321C259.338 190.073 276.076 181.539 275.405 171.259C275.368 170.695 275.278 170.132 275.137 169.573C275.717 170.766 276.052 171.998 276.134 173.238C276.797 183.517 260.067 192.051 238.752 192.3C218.613 192.533 201.599 185.289 199.218 175.82Z" fill="white"/>
<path fill-rule="evenodd" clip-rule="evenodd" d="M270.316 169.541C266.254 162.313 252.066 157.411 235.961 158.207C217.619 159.107 203.744 167.062 204.964 175.965C205.032 176.451 205.146 176.935 205.304 177.415C204.731 176.396 204.366 175.338 204.218 174.267C202.991 165.363 216.866 157.413 235.216 156.509C252.541 155.657 267.678 161.389 270.294 169.54L270.316 169.541Z" fill="white"/>
<path d="M214.007 182.804C220.512 185.303 229.107 186.511 238.282 185.834C256.407 184.496 269.763 176.256 268.106 167.436C267.835 165.98 267.16 164.56 266.113 163.245C268.767 165.419 270.295 168.067 270.468 170.796C270.942 179.664 256.519 187.103 238.263 187.407C228.831 187.546 220.19 185.788 214.007 182.814L214.007 182.804Z" fill="black"/>
<path d="M258.507 173.367L259.31 171.151L249.792 162.736L246.281 162.145L244.51 163.436L247.892 167.919L229.857 170.633C227.22 171.238 225.285 171.281 224.051 170.763C222.762 170.223 221.617 169.55 220.661 168.771C218.795 169.044 222.308 173.105 221.065 171.951L218.303 169.228L214.669 169.452L212.886 171.31L216.757 175.505C218.037 176.875 220.088 177.877 222.461 178.295C223.8 178.517 225.194 178.521 226.514 178.305L258.507 173.367Z" fill="black"/>
<path d="M259.447 171.175L250.731 160.568L245.449 161.254L250.374 167.88L227.049 171.28C225.076 171.507 223.053 170.916 221.967 169.796L219.285 167.066L213.846 169.147L217.724 173.338C219.001 174.709 221.053 175.712 223.428 176.127C224.767 176.349 226.16 176.354 227.481 176.142L259.447 171.175Z" fill="#DEE3E9"/>
<path d="M214.482 170.247L215.283 169.937L218.882 173.604C220.547 175.151 223.195 175.955 225.695 175.588L257.036 171.063L250.427 162.182L251.622 162.027L259.553 171.647L227.476 176.503C226.148 176.711 224.751 176.703 223.408 176.478C221.039 176.05 218.992 175.046 217.705 173.679L214.482 170.247Z" fill="white"/>
<path d="M261.483 195.69L261.399 186.868C261.399 186.868 259.714 187.548 256.621 188.344C254.955 188.751 253.265 189.12 251.559 189.449L251.559 198.816C253.189 198.57 254.811 198.276 256.414 197.936C259.424 197.286 261.419 196.405 261.483 195.69Z" fill="white"/>
<path d="M122.576 178.983L122.613 165.215C123.145 165.837 123.781 166.366 124.493 166.779C124.854 166.994 126.458 168.558 126.667 172.219C126.867 175.71 126.691 177.188 126.638 177.948C126.322 182.469 122.585 180.255 122.576 178.983Z" fill="black"/>
<path d="M122.576 162.251L122.613 132.95C123.145 133.573 123.781 134.102 124.493 134.515C124.854 134.729 126.458 136.293 126.667 139.954C126.867 143.445 126.691 160.456 126.638 161.216C126.322 165.738 122.585 163.524 122.576 162.251Z" fill="black"/>
<path fill-rule="evenodd" clip-rule="evenodd" d="M199.315 128.138C196.345 136.354 180.404 142.034 159.766 142.921C136.244 143.955 115.702 138.071 114.573 128.365C114.516 127.471 114.516 126.575 114.573 125.681C114.161 127.173 114.02 128.727 114.155 130.27C115.284 139.975 134.703 148.134 158.219 147.1C180.438 146.122 198.428 137.161 199.337 128.115L199.315 128.138Z" fill="white"/>
</svg>
