<svg xmlns="http://www.w3.org/2000/svg" viewBox="0 0 411.63 245.53"><defs><style>.cls-1,
  .cls-4 { fill: #fff; }
  .cls-2,
  .cls-6 { fill: #c4c3c6; }
  .cls-2,
  .cls-3,
  .cls-4,
  .cls-5 { fill-rule: evenodd; }
  .cls-3 { fill: #d8d8d8; }
</style></defs><g id="Warstwa_2" data-name="Warstwa 2"><g id="Warstwa_2-2" data-name="Warstwa 2"><path id="Path" d="M106.13,161.66c-.62,26.05-76.94,58.26-100.57,15.12A87.92,87.92,0,0,1,0,152.93C.1,93,123.59,101.56,106.13,161.66Z"/><path id="Path-2" data-name="Path" d="M193.12,160.54c-1.26,38.33-84.48,49.64-104.18,15.49a80.64,80.64,0,0,1-5.57-23.18C83.93,94.52,211.65,101.9,193.12,160.54Z"/><path id="Path-3" data-name="Path" d="M152.49,138.47c-.83,40.23-81.17,51.24-100.57,15.19a92,92,0,0,1-5.62-24.4C46.23,64,171,73,152.49,138.47Z"/><g id="Group-8-Copy"><g id="Group-2"><g id="Tokens"><path id="Path-4" data-name="Path" class="cls-1" d="M99.63,165.08l1.37-1.62"/><path id="Path-5" data-name="Path" d="M101.3,159.46C100.24,193.63,27,203.6,9.63,173.12A72.69,72.69,0,0,1,4.7,152.43C5.1,100.42,117.52,107.19,101.3,159.46Z"/><path id="Path-6" data-name="Path" class="cls-2" d="M13,165.41c10.34,16.87,49.12,20.74,67.82,8.28,15.7-10.38,14.21-26.63,15.28-30.17C108.7,197.8,16.35,196.52,13,165.41Z"/><path id="Oval" class="cls-3" d="M51.77,177.81c56.78.33,61.13-55,3.91-56.77C-1.1,120.7-5.45,176,51.77,177.81Z"/><path id="Oval-Copy" class="cls-2" d="M51.77,177.81c56.78.33,61.13-55,3.91-56.77C-1.1,120.7-5.45,176,51.77,177.81Z"/><path id="Path-7" data-name="Path" class="cls-4" d="M10.51,152.6C17.31,185.78,98,182.2,96.1,146c7.46,40-83.39,43.81-85.59,6.6Z"/></g></g></g><g id="Group-8-Copy-2" data-name="Group-8-Copy"><g id="Group-2-2" data-name="Group-2"><g id="Tokens-2" data-name="Tokens"><path id="Path-8" data-name="Path" class="cls-1" d="M185.1,163.92l1.37-1.62"/><path id="Path-9" data-name="Path" d="M186.77,158.3c-1.06,34.17-74.28,44.14-91.67,13.66a73.1,73.1,0,0,1-4.94-20.68C90.57,99.26,203,106,186.77,158.3Z"/><path id="Path-10" data-name="Path" class="cls-2" d="M98.44,164.25c10.34,16.87,49.12,20.74,67.82,8.28,15.7-10.38,14.21-26.63,15.28-30.17C194.17,196.64,101.82,195.36,98.44,164.25Z"/><path id="Oval-2" data-name="Oval" class="cls-3" d="M137.23,176.65c56.79.33,61.14-55,3.92-56.77C84.36,119.54,80,174.85,137.23,176.65Z"/><path id="Oval-Copy-2" data-name="Oval-Copy" class="cls-2" d="M137.23,176.65c56.79.33,61.14-55,3.92-56.77C84.36,119.54,80,174.85,137.23,176.65Z"/><path id="Path-11" data-name="Path" class="cls-4" d="M96,151.44c6.8,33.18,87.47,29.6,85.6-6.6,7.45,40-83.39,43.81-85.6,6.6Z"/></g></g></g><g id="Group-8-Copy-3" data-name="Group-8-Copy"><g id="Group-2-3" data-name="Group-2"><g id="Tokens-3" data-name="Tokens"><path id="Path-12" data-name="Path" class="cls-1" d="M146,139.83l1.37-1.61"/><path id="Path-13" data-name="Path" d="M147.65,134.21c-1.06,34.18-74.28,44.14-91.67,13.66a72.63,72.63,0,0,1-4.93-20.68C51.45,75.17,163.87,81.94,147.65,134.21Z"/><path id="Path-14" data-name="Path" class="cls-2" d="M59.32,140.16c10.34,16.88,49.12,20.74,67.82,8.28,15.7-10.38,14.21-26.63,15.28-30.16C155.05,172.56,62.7,171.27,59.32,140.16Z"/><path id="Oval-3" data-name="Oval" class="cls-3" d="M98.12,152.56c56.78.34,61.13-55,3.91-56.77C45.25,95.45,40.9,150.76,98.12,152.56Z"/><path id="Oval-Copy-3" data-name="Oval-Copy" class="cls-2" d="M98.12,152.56c56.78.34,61.13-55,3.91-56.77C45.25,95.45,40.9,150.76,98.12,152.56Z"/><path id="Path-15" data-name="Path" class="cls-4" d="M56.86,127.35c6.8,33.18,87.46,29.6,85.59-6.6,7.46,40.05-83.39,43.82-85.59,6.6Z"/></g></g></g><path id="Path-16" data-name="Path" class="cls-1" d="M186.09,1.25,189.17,0"/><path id="Path-17" data-name="Path" d="M336.39,169.09q9.5,2.39,22.28,1.06c25.5-3.6,47-26.89,51.92-57.45,5.9-36.52-13.82-71.07-45.58-76.49-4-.69-164.42-34.32-169-35.1-31.76-5.43-61.27,20.71-67.17,57.22-2.79,17.27.08,34.51,7.88,48.51,3.29,5.92,11.74,15.2,16.8,18.72Z"/><path id="Path-18" data-name="Path" class="cls-2" d="M208.27,88.78c23.63,7.37,60.51,45.07,73.68,6.09,3.71-11,16.87-36.86,32.31-46.12,16.51-9.9,26.73-10.49,32.38-10.64,7.44,3.66-136.49-27.74-151.75-30.34-24.13-4.11-47.72,17.44-52.69,48.15-2.45,15.13.08,29.65,6.16,41,5.37,10,9.11,11.63,11.85,12.68C162.05,110.3,177.37,79.14,208.27,88.78Z"/><path id="Oval-Copy-4" data-name="Oval-Copy" class="cls-2" d="M309.85,96.23c5.53-32.77,30.74-55.92,56.31-51.71s41.83,34.17,36.3,66.93-30.74,55.91-56.31,51.71S304.33,129,309.85,96.23Z"/><path id="Path-19" data-name="Path" class="cls-4" d="M333.56,160.88c-21.07-9.13-33.63-36-28.82-64.95,5.48-33,31.43-56.09,58-51.67,1.46.25,5.82,1.23,7.23,1.63a68.24,68.24,0,0,0-12.21-3.4c-26.52-4.43-52.47,18.71-58,51.67-5.18,31.14,9.76,59.91,33.79,66.72Z"/><path id="Path-20" data-name="Path" class="cls-5" d="M372.49,55.82c17.85,8.62,27.4,32,21.76,56.38-6.44,27.79-30.16,46.4-53,41.56a34.51,34.51,0,0,1-3.69-1,34.82,34.82,0,0,0,7.93,2.7c22.83,4.84,46.55-13.77,53-41.56,6.08-26.26-5.45-51.32-26-58.09Z"/><path id="Path-21" data-name="Path" class="cls-4" d="M322.78,136.17c-5-10.79-6.25-24.39-2.46-38.18,7.52-27.31,31.87-45,54.39-39.56a34.53,34.53,0,0,1,10.43,4.45,35.62,35.62,0,0,0-18.62-9.18C343.62,50,321.1,69.64,316.24,97.5c-2.52,14.41.18,28.2,6.54,38.67Z"/><path id="Path-Copy" class="cls-1" d="M359.86,68.29l5.93-.51L390,84.93l-3.7,12.18-4.16-2.43L371.3,88c-4.95,11.94-12.86,29-14.13,34.75-.72,3.31,7.11,9.13,8.95,10.92a32,32,0,0,1-1.71,2.79l-4,4.31-2.68,2.88-15.38-9.26a14.74,14.74,0,0,1-6-9.66,11.74,11.74,0,0,1,.87-6.21Z"/><path id="Path-Copy-2" data-name="Path-Copy" d="M363.06,70.45,388.7,87.33l-3,7.86-16.08-9.74-14,34.63c-1.12,2.77,0,6,2.71,8.28l6.49,5L358.23,141l-10-7.33a14.73,14.73,0,0,1-6-9.66,11.69,11.69,0,0,1,.87-6.2Z"/><path id="Path-Copy-3" data-name="Path-Copy" class="cls-6" d="M362.22,72.86l22.15,14.58-.86,3.7-16.64-9.88L351,119c-1,2.39,0,5.18,2.34,7.15l7.38,5.59-2.85,2.89-9.81-5.72a12.75,12.75,0,0,1-5.15-8.34,10.11,10.11,0,0,1,.75-5.36Z"/><path class="cls-1" d="M191,16.74,319.9,45.26a60.89,60.89,0,0,0-16,12.4c-5.47,5.82-10.36,14.57-10.36,14.57l-136.76-30a63,63,0,0,1,7.31-14.55A26.43,26.43,0,0,1,191,16.74Z"/><path id="Path-22" data-name="Path" class="cls-1" d="M106.06,159.35l-1.88-1.51"/><path id="Path-23" data-name="Path" d="M237.82,58.68q.3-5.38-3.73-12.11c-9-13.29-36.32-22.1-67.24-21.15C129.92,26.55,100.4,41.23,101.9,59c.19,2.24,1.68,92.51,1.9,95.07,1.5,17.73,33.35,30.53,70.28,29.39,17.46-.53,33.68-4.11,45.69-9.95,5.08-2.48,12.34-8.12,14.69-11.25Z"/><path d="M255.7,73.94a25.42,25.42,0,0,0-6.81-10.13c-11.66-10.58-36-17.22-63-16.39a135.89,135.89,0,0,0-26,3.24,26.31,26.31,0,0,1-6.13.69c-1.93,0-3.88,0-5.85.07C110.92,52.55,81.4,67.23,82.9,85c.19,2.24,1.68,92.51,1.9,95.07,1.5,17.73,37.44,32.46,75.45,32.46,28,0,52-3,78.52-17,.4-.22.82-.44,1.24-.69a27.7,27.7,0,0,0,13.86-23.12l2.95-91A17.12,17.12,0,0,0,255.7,73.94Z"/><path id="Path-24" data-name="Path" class="cls-2" d="M190.15,157.65c2.66-15.08,38.67-42-12.23-44.8-14.34-.78-49.3-5.25-64.67-13.26C96.81,91,93.38,85,91.69,81.64c2.47-4.93,2.65,85.16,3.56,94.61,1.42,15,33.91,26.22,72.56,25.18,19-.52,36-3.93,48.19-9.05,10.75-4.52,11.7-7,12.25-8.74C228.62,182.45,186.67,177.37,190.15,157.65Z"/><path id="Oval-Copy-5" data-name="Oval-Copy" class="cls-2" d="M172.33,81.56c-33.18.89-61.19-10-62.56-24.2s24.43-26.53,57.61-27.42,61.2,9.94,62.56,24.19S205.52,80.67,172.33,81.56Z"/><path id="Path-25" data-name="Path" class="cls-4" d="M230.42,61.18c-4.41,12.41-28,22.34-57.28,23.16-33.37.94-61.52-10.29-62.88-25.09a34.69,34.69,0,0,1,0-4.08,21.28,21.28,0,0,0-.71,7c1.36,14.79,29.51,26,62.88,25.09,31.53-.89,56.44-12.32,57.95-26.05Z"/><path id="Path-26" data-name="Path" class="cls-4" d="M243,78.77c-5.26,14.45-33.5,24.44-70.06,26-41.67,1.82-78.06-8.53-80.06-25.6a37.19,37.19,0,0,1,0-4.72,22.7,22.7,0,0,0-.74,8.07c2,17.07,36.4,31.42,78.06,29.6,39.36-1.72,71.23-17.48,72.84-33.39Z"/><path id="Path-27" data-name="Path" class="cls-5" d="M119.46,52.62c4.59-10.62,25.37-18.51,50.41-18.35,28.52.18,51.78,10.75,51.94,23.6a10.68,10.68,0,0,1-.18,2.11,11.14,11.14,0,0,0,1-4.59c-.17-12.85-23.42-23.42-52-23.6-26.95-.18-49,9-51.17,20.83Z"/><path id="Path-28" data-name="Path" class="cls-4" d="M208.59,69.89c-9.46,4-22.49,6.24-36.77,5.83-28.29-.83-50.81-11.84-50.29-24.6A11.93,11.93,0,0,1,123.64,45c-3.56,3.36-5.39,7.14-5,11.1C120,68.84,144,78.64,172.21,78c14.62-.34,27.51-3.42,36.38-8.08Z"/><path id="Path-Copy-4" data-name="Path-Copy" class="cls-1" d="M134.34,58l-1.77-3.14,11.57-15.06,12.68.55-1.48,2.53-4.19,6.63c12.72,1.26,31,3.51,37,3.51,3.39,0,7.4-4.9,8.75-6.1.56,0,3.09.59,3.09.59L205,49.11l3.38,1.1-5.75,9.37a14.32,14.32,0,0,1-8.16,4.35,20.88,20.88,0,0,1-6.25.26Z"/><path id="Path-Copy-5" data-name="Path-Copy" d="M135.76,56l11-15.79,8.31.67L149,50.65l36.83,3.46a9.4,9.4,0,0,0,7.51-2.43l3.51-4.09,8.88,2.66-5,6.25a14.29,14.29,0,0,1-8.16,4.35,20.87,20.87,0,0,1-6.25.26Z"/><path id="Path-Copy-6" data-name="Path-Copy" class="cls-6" d="M138.3,56.14l9.5-13.64,3.79,0-6.08,10.12,40.26,4.08a8.12,8.12,0,0,0,6.49-2.1L196.13,50l3.44,1.19-3.49,6a12.35,12.35,0,0,1-7,3.75,17.86,17.86,0,0,1-5.4.23Z"/><path class="cls-1" d="M107.17,177.4l.34-80.73s6.82,4.28,19.33,8a187,187,0,0,0,20.48,4.28v85.61a145.42,145.42,0,0,1-19.64-2.46C115.5,189.62,107.43,183.86,107.17,177.4Z"/><g id="Group-8-Copy-4" data-name="Group-8-Copy"><g id="Group-2-4" data-name="Group-2"><g id="Tokens-4" data-name="Tokens"><path id="Path-29" data-name="Path" class="cls-1" d="M327.13,202.72l1.41-2.42"/><path id="Path-30" data-name="Path" d="M328.2,194.66c1.8,26.23-24.18,48.43-57.11,50.69-15.58,1.06-30.59-2.48-42.26-9.8a34.14,34.14,0,0,1-11.28-11.32,32.23,32.23,0,0,1-3.61-8.42q-4.92-12.34-6.1-20A48.85,48.85,0,0,1,209,177.63c5.61-20.5,28.3-36.36,55.87-38.25,32.94-2.25,61.69,16.2,63.48,42.44C328.6,185.13,327.94,190.87,328.2,194.66Z"/><path id="Path-31" data-name="Path" class="cls-2" d="M220.33,213.06c3.63,6.32,20.4,17,39.28,18.21,17.52,1.14,37-6.6,45.79-14.35,10.33-9.12,15.7-26.31,16.4-31.38,1.13,2.87.13,6.69.35,9.83,1.53,22-21.31,41.54-51,43.54-14.64,1-28.22-2.47-38.41-8.85-9-5.65-10.17-9.15-10.9-11.7Q220.53,213.86,220.33,213.06Z"/><path id="Oval-4" data-name="Oval" class="cls-3" d="M270.33,226c29.58-2.16,52.42-21.79,51-43.85s-26.53-38.21-56.11-36-52.41,21.78-51,43.85S240.76,228.14,270.33,226Z"/><path id="Oval-Copy-6" data-name="Oval-Copy" class="cls-2" d="M270.33,226c29.58-2.16,52.42-21.79,51-43.85s-26.53-38.21-56.11-36-52.41,21.78-51,43.85S240.76,228.14,270.33,226Z"/><path id="Path-32" data-name="Path" class="cls-4" d="M215,195.41c6.05,17.8,28.43,29.93,54.21,28.07,29.38-2.12,52.05-21.59,50.63-43.49a30.18,30.18,0,0,0-.45-3.58,30,30,0,0,1,1.55,7.75c1.41,21.9-21.25,41.37-50.63,43.49-27.76,2-51.57-12.2-55.31-32.24Z"/><path id="Path-33" data-name="Path" class="cls-4" d="M312.74,176.7c-5.95-15.13-25.75-24.54-47.92-21.64-25.25,3.29-44,21.31-41.89,40.23a25.91,25.91,0,0,0,.54,3.07,26.06,26.06,0,0,1-1.65-6.64c-2.12-18.92,16.63-36.93,41.89-40.23,23.85-3.11,45,8,49,25.21Z"/><path id="Path-34" data-name="Path" class="cls-5" d="M235.73,209.22c9.09,4.85,21,6.79,33.62,4.66,24.93-4.21,42.95-22.8,40.24-41.51a25.78,25.78,0,0,0-2.95-8.8,27.12,27.12,0,0,1,6.37,15.8c1.08,18.9-18.45,35.86-43.61,37.87-13,1-25-2.11-33.67-8Z"/><path id="Path-Copy-7" data-name="Path-Copy" d="M296.64,185.75l1-4.79L284.11,163.7l-4.87-1-2.38,2.89,4.88,9.32L257,182.05h0q-5.41,2.23-8,.71a18.66,18.66,0,0,1-4.77-4c-2.56.72,2.48,9.13.71,6.76L241,179.91l-5,.75-2.37,4.1,5.54,8.67a12.75,12.75,0,0,0,8,5.53,11.33,11.33,0,0,0,5.59-.28Z"/><path id="Path-Copy-8" data-name="Path-Copy" class="cls-6" d="M297.83,181,285.3,159l-7.25,1.86,7.11,13.78-32,9a6.7,6.7,0,0,1-7.08-2.79l-3.83-5.63-7.4,4.85,5.55,8.66a12.7,12.7,0,0,0,8,5.53,11.45,11.45,0,0,0,5.59-.27Z"/><path id="Path-35" data-name="Path" class="cls-1" d="M235.78,182.37l1.09-.72,5.14,7.56c2.37,3.18,6.06,4.7,9.49,3.73l43-12-9.54-18.47,1.64-.42L298,182l-44,12.76a11.53,11.53,0,0,1-5.61.25,12.92,12.92,0,0,1-8-5.55Z"/></g></g></g></g></g></svg>