<svg width="811" height="562" viewBox="0 0 811 562" fill="none" xmlns="http://www.w3.org/2000/svg">
<path fill-rule="evenodd" clip-rule="evenodd" d="M329.171 261.931H322.947V255.707H329.171V249.467H322.947V243.227H329.171V237.003H335.411V230.763H329.171V236.988H322.947V230.763H329.171V224.52H322.931V230.76H316.707V236.984H310.467V230.76H304.228V236.984H298.003V230.76H304.228V224.52H297.987V230.76H291.764V224.52H285.521V230.76H291.76V236.984H285.521V243.224H291.76V249.464H285.521V255.704H291.76V261.928V261.943H297.984V268.168H304.224V261.943H310.464V268.168H316.704V261.943H322.928V268.168H329.168V261.943H335.408V255.704H329.168V261.931H329.171ZM291.76 261.946V268.171H285.521V261.931H291.76V261.946ZM310.464 230.76V224.52H316.704V230.76H310.464ZM329.171 243.224V249.464H335.411V243.224H329.171ZM297.984 237H291.76V243.224H297.984V237ZM298.001 268.171V274.411H304.225V268.171H310.465V274.411H316.705V268.171H322.945V274.411H329.169V268.171H335.409V274.411H329.169V280.65H322.929V274.411H316.705V280.65H310.465V274.411H304.225V280.65H297.985V274.411H291.761V280.65H285.521V274.411H291.761V268.171H298.001ZM322.928 255.707V249.467H316.704V255.707H322.928ZM310.464 255.707V261.931H316.704V255.707H310.464ZM304.224 255.707H310.464V249.467H304.224V255.707ZM304.224 255.707H298V261.931H304.224V255.707ZM304.224 243.224H298V249.464H304.224V243.224ZM310.464 243.224V237H304.224V243.224H310.464ZM316.707 243.224H310.468V249.464H316.707V243.224ZM316.707 243.224H322.931V237H316.707V243.224ZM297.984 249.464V255.704H291.76V249.464H297.984ZM341.651 230.76H335.411V224.52H341.651V230.76ZM335.411 243.224H341.651V236.984H335.411V243.224ZM341.651 255.707H335.411V249.467H341.651V255.707ZM335.411 268.171H341.651V261.931H335.411V268.171ZM335.411 280.65H341.651V274.411H335.411V280.65Z" fill="#4038FF"/>
<path fill-rule="evenodd" clip-rule="evenodd" d="M609.822 261.931H603.597V255.707H609.822V249.467H603.597V243.227H609.822V237.003H616.061V230.763H609.822V236.988H603.597V230.763H609.822V224.52H603.582V230.76H597.358V236.984H591.118V230.76H584.878V236.984H578.654V230.76H584.878V224.52H578.638V230.76H572.414V224.52H566.171V230.76H572.411V236.984H566.171V243.224H572.411V249.464H566.171V255.704H572.411V261.928V261.943H578.635V268.168H584.875V261.943H591.114V268.168H597.355V261.943H603.579V268.168H609.819V261.943H616.058V255.704H609.819V261.931H609.822ZM572.411 261.946V268.171H566.171V261.931H572.411V261.946ZM591.114 230.76V224.52H597.354V230.76H591.114ZM609.822 243.224V249.464H616.061V243.224H609.822ZM578.635 237H572.411V243.224H578.635V237ZM578.65 268.171V274.411H584.875V268.171H591.114V274.411H597.355V268.171H603.594V274.411H609.819V268.171H616.058V274.411H609.819V280.65H603.579V274.411H597.355V280.65H591.114V274.411H584.875V280.65H578.635V274.411H572.411V280.65H566.171V274.411H572.411V268.171H578.65ZM603.579 255.707V249.467H597.354V255.707H603.579ZM591.114 255.707V261.931H597.354V255.707H591.114ZM584.875 255.707H591.114V249.467H584.875V255.707ZM584.875 255.707H578.65V261.931H584.875V255.707ZM584.875 243.224H578.65V249.464H584.875V243.224ZM591.114 243.224V237H584.875V243.224H591.114ZM597.358 243.224H591.118V249.464H597.358V243.224ZM597.358 243.224H603.582V237H597.358V243.224ZM578.635 249.464V255.704H572.411V249.464H578.635ZM622.301 230.76H616.061V224.52H622.301V230.76ZM616.061 243.224H622.301V236.984H616.061V243.224ZM622.301 255.707H616.061V249.467H622.301V255.707ZM616.061 268.171H622.301V261.931H616.061V268.171ZM616.061 280.65H622.301V274.411H616.061V280.65Z" fill="#4038FF"/>
<path fill-rule="evenodd" clip-rule="evenodd" d="M272.651 93.4106H266.426V87.1864H272.651V80.9467H266.426V74.7071H272.651V68.4829H278.89V62.2432H272.651V68.4674H266.426V62.2432H272.651V56H266.411V62.2397H260.187V68.4639H253.947V62.2397H247.707V68.4639H241.483V62.2397H247.707V56H241.467V62.2397H235.243V56H229V62.2397H235.24V68.4639H229V74.7041H235.24V80.9437H229V87.1834H235.24V93.4076V93.4231H241.464V99.6473H247.704V93.4231H253.943V99.6473H260.184V93.4231H266.408V99.6473H272.648V93.4231H278.887V87.1834H272.648V93.4106H272.651ZM235.24 93.4261V99.6508H229V93.4106H235.24V93.4261ZM253.943 62.2397V56H260.184V62.2397H253.943ZM272.651 74.7041V80.9437H278.89V74.7041H272.651ZM241.464 68.4794H235.24V74.7041H241.464V68.4794ZM241.48 99.6508V105.89H247.704V99.6508H253.943V105.89H260.184V99.6508H266.423V105.89H272.648V99.6508H278.887V105.89H272.648V112.13H266.408V105.89H260.184V112.13H253.943V105.89H247.704V112.13H241.464V105.89H235.24V112.13H229V105.89H235.24V99.6508H241.48ZM266.408 87.1864V80.9467H260.184V87.1864H266.408ZM253.943 87.1864V93.4106H260.184V87.1864H253.943ZM247.704 87.1864H253.943V80.9467H247.704V87.1864ZM247.704 87.1864H241.479V93.4106H247.704V87.1864ZM247.704 74.7041H241.479V80.9437H247.704V74.7041ZM253.943 74.7041V68.4794H247.704V74.7041H253.943ZM260.187 74.7041H253.947V80.9437H260.187V74.7041ZM260.187 74.7041H266.411V68.4794H260.187V74.7041ZM241.464 80.9437V87.1834H235.24V80.9437H241.464ZM285.13 62.2397H278.89V56H285.13V62.2397ZM278.89 74.7041H285.13V68.4639H278.89V74.7041ZM285.13 87.1864H278.89V80.9467H285.13V87.1864ZM278.89 99.6508H285.13V93.4106H278.89V99.6508ZM278.89 112.13H285.13V105.89H278.89V112.13Z" fill="#2F2FF4"/>
<path fill-rule="evenodd" clip-rule="evenodd" d="M391.541 280.65H397.781V336.781H391.541V280.65ZM385.308 280.65H379.071V336.781H385.308V280.65ZM372.835 280.65H366.598V336.781H372.835V280.65ZM354.124 280.65H360.361V336.781H354.124V280.65ZM347.887 280.65H341.651V336.781H347.887V280.65Z" fill="#4038FF"/>
<path fill-rule="evenodd" clip-rule="evenodd" d="M398.342 162.151V168.39H342.212V162.151H398.342ZM398.342 155.917V149.68H342.212V155.917H398.342ZM398.342 143.444V137.207H342.212V143.444H398.342ZM398.342 124.734V130.97H342.212V124.734H398.342ZM398.342 118.497V112.26H342.212V118.497H398.342Z" fill="#1F242C"/>
<path fill-rule="evenodd" clip-rule="evenodd" d="M341.651 498.931V505.171H285.521V498.931H341.651ZM341.651 492.698V486.461H285.521V492.698H341.651ZM341.651 480.224V473.988H285.521V480.224H341.651ZM341.651 461.514V467.751H285.521V461.514H341.651ZM341.651 455.277V449.041H285.521V455.277H341.651Z" fill="#1F242C"/>
<path fill-rule="evenodd" clip-rule="evenodd" d="M566.171 330.541V336.781H510.041V330.541H566.171ZM566.171 324.307V318.07H510.041V324.307H566.171ZM566.171 311.834V305.597H510.041V311.834H566.171ZM566.171 293.124V299.36H510.041V293.124H566.171ZM566.171 286.887V280.65H510.041V286.887H566.171Z" fill="#1F242C"/>
<path fill-rule="evenodd" clip-rule="evenodd" d="M341.651 343.02V336.781H285.521V343.02H341.651ZM341.651 361.733V367.973H285.521V361.733H341.651ZM341.651 380.447V374.207H285.521V380.447H341.651ZM341.651 392.911V386.671H285.521V392.911H341.651ZM341.651 349.26V355.5H285.521V349.26H341.651Z" fill="#1F242C"/>
<path fill-rule="evenodd" clip-rule="evenodd" d="M727.763 392.911H734C734 361.911 708.869 336.781 677.87 336.781V343.017C705.426 343.017 727.763 365.354 727.763 392.911ZM715.29 392.911H721.526C721.526 368.8 701.981 349.254 677.87 349.254V355.491C698.535 355.491 715.29 372.245 715.29 392.911ZM709.053 392.911H702.817C702.817 379.134 691.646 367.964 677.87 367.964V361.727C695.092 361.727 709.053 375.688 709.053 392.911ZM690.343 392.911H696.58C696.58 382.577 688.204 374.201 677.87 374.201V380.437C684.758 380.437 690.343 386.022 690.343 392.911ZM677.87 392.911H684.106C684.106 389.465 681.315 386.674 677.87 386.674V392.911Z" fill="#1F242C"/>
<path fill-rule="evenodd" clip-rule="evenodd" d="M235.627 168.39H229.39C229.39 199.39 254.521 224.521 285.52 224.521V218.284C257.964 218.284 235.627 195.947 235.627 168.39ZM248.101 168.39H241.864C241.864 192.501 261.41 212.047 285.521 212.047V205.81C264.855 205.81 248.101 189.056 248.101 168.39ZM254.338 168.39H260.574C260.574 182.167 271.744 193.337 285.521 193.337V199.574C268.298 199.574 254.338 185.613 254.338 168.39ZM273.047 168.39H266.811C266.811 178.725 275.187 187.1 285.521 187.1V180.864C278.632 180.864 273.047 175.279 273.047 168.39ZM285.521 168.39H279.284C279.284 171.836 282.075 174.627 285.521 174.627V168.39Z" fill="white"/>
<path fill-rule="evenodd" clip-rule="evenodd" d="M622.301 442.804V449.041C653.3 449.041 678.431 423.91 678.431 392.911H672.194C672.194 420.467 649.858 442.804 622.301 442.804ZM622.301 430.331V436.567C646.412 436.567 665.958 417.022 665.958 392.911H659.721C659.721 413.576 642.966 430.331 622.301 430.331ZM622.301 424.094V417.857C636.078 417.857 647.248 406.688 647.248 392.911H653.485C653.485 410.133 639.524 424.094 622.301 424.094ZM622.301 405.384V411.62C632.635 411.62 641.011 403.245 641.011 392.911H634.774C634.774 399.799 629.189 405.384 622.301 405.384ZM622.301 392.911V399.147C625.747 399.147 628.538 396.356 628.538 392.911H622.301Z" fill="#4038FF"/>
<path d="M510.602 56.1301V112.26H454.472C454.472 81.2608 479.603 56.1301 510.602 56.1301Z" fill="#1F242C"/>
<path fill-rule="evenodd" clip-rule="evenodd" d="M67.2397 168.39H61V224.521H67.2397V168.39ZM85.953 168.39H92.1927V224.521H85.953V168.39ZM104.666 168.39H98.4265V224.521H104.666V168.39ZM117.13 168.39H110.89V224.521H117.13V168.39ZM73.4794 168.39H79.7192V224.521H73.4794V168.39Z" fill="#1F242C"/>
<path fill-rule="evenodd" clip-rule="evenodd" d="M516.842 505.171H510.602V561.301H516.842V505.171ZM535.555 505.171H541.795V561.301H535.555V505.171ZM554.269 505.171H548.029V561.301H554.269V505.171ZM566.733 505.171H560.493V561.301H566.733V505.171ZM523.082 505.171H529.322V561.301H523.082V505.171Z" fill="#1F242C"/>
<path d="M326.3 319.376C325.375 349.124 207.835 376.493 170.291 329.83C165.882 321.092 163.091 311.925 162 302.595C162.149 234.158 352.335 250.745 326.3 319.376Z" fill="black"/>
<path d="M452.579 312.375C450.684 355.307 325.522 367.975 295.894 329.725C291.39 321.427 288.566 312.677 287.517 303.761C288.359 238.427 480.448 246.693 452.579 312.375Z" fill="black"/>
<path d="M374.952 275.605C373.701 320.857 252.6 333.242 223.358 292.691C218.871 283.873 216.021 274.639 214.886 265.245C214.781 191.838 402.853 201.961 374.952 275.605Z" fill="black"/>
<path d="M312.059 316.873L314.122 315.022L312.059 316.873Z" fill="white"/>
<path d="M314.574 310.453C312.978 349.488 202.716 360.877 176.566 326.058C172.578 318.498 170.077 310.534 169.144 302.422C169.746 243.007 338.992 250.741 314.574 310.453Z" fill="black"/>
<path fill-rule="evenodd" clip-rule="evenodd" d="M183.388 321.212C182.797 320.674 182.248 320.121 181.744 319.553C181.774 319.745 181.809 319.936 181.848 320.125C181.617 320.247 181.817 321.303 181.998 322.258C182.189 323.263 182.358 324.156 181.981 323.729C186.733 354.397 310.604 355.594 308.648 307.989C308.794 304.55 308.244 300.827 306.893 296.811C306.604 297.471 306.439 298.556 306.226 299.955C305.254 306.351 303.283 319.307 283.881 328.156C268.765 335.104 244.937 337.165 223.696 334.872C207.191 332.401 192.045 327.557 183.388 321.212Z" fill="#DEE3E9"/>
<path fill-rule="evenodd" clip-rule="evenodd" d="M240.007 331.415C325.488 331.792 332.037 268.585 245.893 266.563C160.412 266.175 153.863 329.348 240.007 331.415Z" fill="#DEE3E9"/>
<path fill-rule="evenodd" clip-rule="evenodd" d="M240.007 331.415C325.488 331.792 332.037 268.585 245.893 266.563C160.412 266.175 153.863 329.348 240.007 331.415Z" fill="#DEE3E9"/>
<path fill-rule="evenodd" clip-rule="evenodd" d="M178.596 301.911C188.833 339.815 310.311 335.725 307.45 294.371C318.681 340.066 181.908 344.418 178.596 301.911Z" fill="white"/>
<path d="M196.635 336.175L196.482 321.596C196.482 321.596 198.538 322.685 202.296 323.934C204.32 324.572 206.371 325.146 208.441 325.653L208.711 341.13C206.735 340.758 204.768 340.307 202.823 339.779C199.168 338.768 196.734 337.355 196.635 336.175Z" fill="white"/>
<path d="M439.793 313.963L441.855 312.11L439.793 313.963Z" fill="white"/>
<path d="M442.307 307.537C440.711 346.606 330.527 358.006 304.358 323.155C300.377 315.591 297.872 307.625 296.924 299.51C297.541 240.031 466.73 247.738 442.307 307.537Z" fill="black"/>
<path fill-rule="evenodd" clip-rule="evenodd" d="M309.385 314.34C324.945 333.629 383.302 338.054 411.442 323.807C435.068 311.939 432.826 293.359 434.436 289.311C453.442 351.374 314.471 349.911 309.385 314.34Z" fill="#DEE3E9"/>
<path fill-rule="evenodd" clip-rule="evenodd" d="M367.757 328.518C453.217 328.895 459.763 265.632 373.656 263.608C288.196 263.219 281.635 326.46 367.757 328.518Z" fill="#DEE3E9"/>
<path fill-rule="evenodd" clip-rule="evenodd" d="M367.757 328.518C453.217 328.895 459.763 265.632 373.656 263.608C288.196 263.219 281.635 326.46 367.757 328.518Z" fill="#DEE3E9"/>
<path fill-rule="evenodd" clip-rule="evenodd" d="M305.712 299.693C315.945 337.631 437.34 333.537 434.526 292.147C445.737 337.882 309.038 342.238 305.712 299.693Z" fill="white"/>
<path d="M363.598 275.886L365.64 274.042L363.598 275.886Z" fill="white"/>
<path d="M367.646 270.947C366.025 311.298 254.035 323.056 227.437 287.073C223.386 279.264 220.845 271.039 219.897 262.659C220.509 201.247 392.454 209.24 367.646 270.947Z" fill="black"/>
<path fill-rule="evenodd" clip-rule="evenodd" d="M234.369 276.264C249.784 295.6 307.601 300.022 335.48 285.749C358.887 273.858 356.665 255.244 358.261 251.2C377.09 313.379 239.408 311.901 234.369 276.264Z" fill="#DEE3E9"/>
<path fill-rule="evenodd" clip-rule="evenodd" d="M292.215 290.468C376.867 290.858 383.352 227.465 298.044 225.437C213.392 225.048 206.907 288.406 292.215 290.468Z" fill="#DEE3E9"/>
<path fill-rule="evenodd" clip-rule="evenodd" d="M292.215 290.468C376.867 290.858 383.352 227.465 298.044 225.437C213.392 225.048 206.907 288.406 292.215 290.468Z" fill="#DEE3E9"/>
<path fill-rule="evenodd" clip-rule="evenodd" d="M231.406 260.885C241.544 298.893 361.798 294.792 359.01 253.324C370.132 299.202 234.686 303.521 231.406 260.885Z" fill="white"/>
<path d="M377.776 175.526L379.891 174.821L377.776 175.526Z" fill="white"/>
<path d="M509.531 319.107C515.78 321.028 523.187 321.769 531.751 321.331C557.435 319.079 580.148 296.987 586.664 266.778C594.471 230.679 576.56 195.202 545.088 188.134C541.125 187.237 382.489 145.304 377.951 144.287C346.48 137.209 315.609 161.723 307.802 197.812C304.111 214.882 306.079 232.22 313.147 246.586C316.127 252.66 324.09 262.354 328.966 266.129L509.531 319.107Z" fill="black"/>
<path fill-rule="evenodd" clip-rule="evenodd" d="M384.812 232.68C408.054 241.284 450.627 282.708 465.837 244.441C470.123 233.642 483.226 207.783 499.149 199.337C516.175 190.309 523.091 190.612 528.748 190.758C505.731 185.315 390.799 154.416 375.677 151.018C351.765 145.646 327.049 165.947 320.471 196.378C317.229 211.37 318.998 226.014 324.483 237.675C329.329 247.951 332.983 249.776 335.668 250.969C337.471 251.765 354.421 221.426 384.812 232.68Z" fill="#DEE3E9"/>
<path d="M371.352 159.971L506.637 196.885C500.473 199.761 494.838 203.642 489.967 208.364C484.185 213.859 478.832 222.296 478.832 222.296L335.752 183.499C337.82 178.481 340.535 173.751 343.831 169.427C350.275 161.107 361.093 157.39 371.352 159.971Z" fill="white"/>
<path d="M399.417 167.434L507.966 195.093C506.559 195.742 505.273 196.617 504.161 197.683C502.842 198.922 486.755 213.226 486.755 213.226C486.755 213.226 486.754 197.658 475.89 194.973C442.234 186.655 401.724 175.903 399.305 175.106C391.157 172.421 397.076 166.852 399.417 167.434Z" fill="black"/>
<path d="M368.793 158.972L392.321 165.344C391.013 165.969 389.818 166.813 388.785 167.842C388.253 168.361 384.842 170.388 378.486 169.068C372.424 167.81 369.977 166.832 368.701 166.393C361.113 163.781 366.613 158.404 368.793 158.972Z" fill="black"/>
<path fill-rule="evenodd" clip-rule="evenodd" d="M490.699 245.186C497.445 216.158 522.21 197.121 545.81 202.61C569.411 208.099 583.23 236.137 576.485 265.165C569.739 294.194 545.069 313.267 521.389 307.746C497.709 302.225 483.95 274.223 490.699 245.186Z" fill="#DEE3E9"/>
<path d="M540.179 218.958L566.049 237.896L561.792 248.074L558.775 246.347L547.762 237.956C542.478 248.793 532.642 267.925 531.111 273.316C530.247 276.362 537.824 281.487 539.422 283.262C539.28 283.766 531.094 291.642 531.094 291.642L519.778 281.464C516.586 278.435 514.841 275.14 514.817 272.093C514.694 270.056 515.09 268.122 515.99 266.356L540.179 218.958Z" fill="white"/>
<path d="M538.355 221.009L562.715 239.37L559.315 246.926L544.044 236.265L528.126 269.508C526.814 271.943 527.612 274.996 530.306 277.858L536.438 283.241L529.441 290.341L519.972 282.46C516.55 279.246 514.676 275.753 514.644 272.53C514.507 270.375 514.923 268.33 515.88 266.464L538.355 221.009Z" fill="black"/>
<path fill-rule="evenodd" clip-rule="evenodd" d="M519.022 274.34C518.935 272.336 519.351 270.434 520.256 268.693L540.878 227.596L560.416 242.308L559.411 245.813L544.022 235.315L526.491 270.583C525.382 272.634 526.042 275.199 528.298 277.597L535 283.392L531.369 286.644L522.934 279.882C521.033 278.096 519.705 276.203 519.022 274.34Z" fill="#DEE3E9"/>
<path fill-rule="evenodd" clip-rule="evenodd" d="M513.306 304.634C497.777 296.246 485.58 273.104 491.039 247.315C497.212 217.908 523.264 197.931 543.238 202.162C545.06 202.609 546.868 203.128 548.651 203.714C545.786 202.347 542.701 201.275 539.543 200.548C519.569 196.317 492.067 215.159 485.896 244.56C480.065 272.337 495.069 298.238 512.996 304.583L513.306 304.634Z" fill="white"/>
<path fill-rule="evenodd" clip-rule="evenodd" d="M475.146 242.716C482.155 209.922 510.183 187.319 531.38 191.727C533.313 192.198 535.23 192.747 537.119 193.373C534.09 191.895 530.822 190.749 527.471 189.988C506.273 185.58 476.719 206.942 469.712 239.729C466.697 253.837 468.035 273.542 471.56 272.131C475.086 270.721 471.773 258.378 475.146 242.716Z" fill="white"/>
<path d="M296.683 334.184L295.273 332.774L296.683 334.184Z" fill="white"/>
<path d="M429.231 232.078C429.43 228.496 428.192 224.465 425.517 219.985C416.558 206.714 389.359 197.917 358.577 198.866C321.812 199.994 292.424 214.653 293.917 232.397C294.106 234.634 295.59 324.774 295.809 327.331C297.302 345.035 329.01 357.817 365.775 356.679C383.157 356.149 399.305 352.575 411.261 346.743C416.319 344.266 423.546 338.635 425.886 335.509L429.231 232.078Z" fill="black"/>
<path d="M446.452 248.035C445.037 244.143 442.697 240.655 439.634 237.873C427.962 227.259 403.596 220.598 376.568 221.43C367.808 221.671 359.091 222.76 350.54 224.681C348.529 225.152 346.469 225.384 344.404 225.373C342.471 225.373 340.519 225.373 338.547 225.443C301.518 226.577 271.967 241.304 273.468 259.131C273.659 261.378 275.15 351.938 275.37 354.506C276.872 372.293 312.85 387.07 350.9 387.07C378.93 387.07 402.956 384.061 429.504 370.016C429.904 369.795 430.325 369.574 430.745 369.324C439.065 364.521 444.314 355.747 444.62 346.129L447.573 254.837C447.662 252.517 447.28 250.204 446.452 248.035Z" fill="black"/>
<path fill-rule="evenodd" clip-rule="evenodd" d="M388.353 331.364C391.031 316.306 406.687 289.055 368.7 287.977C354.241 287.566 319.06 282.734 303.584 274.736C287.031 266.159 283.577 260.168 281.875 256.813C284.362 251.89 284.544 341.847 285.46 351.284C286.89 366.262 319.604 377.465 358.52 376.427C377.651 375.907 394.768 372.502 407.042 367.39C417.867 362.876 418.823 360.4 419.377 358.663C419.749 357.474 384.849 351.055 388.353 331.364Z" fill="#DEE3E9"/>
<path fill-rule="evenodd" clip-rule="evenodd" d="M363.614 256.919C331.322 257.817 304.061 246.83 302.728 232.504C301.395 218.178 326.504 205.739 358.796 204.841C391.088 203.943 418.358 214.869 419.682 229.246C421.006 243.622 395.915 256.021 363.614 256.919Z" fill="#DEE3E9"/>
<path fill-rule="evenodd" clip-rule="evenodd" d="M420.79 238.003C416.366 250.527 392.704 260.548 363.334 261.376C329.862 262.324 301.626 250.991 300.261 236.055C300.181 234.684 300.181 233.309 300.261 231.938C299.636 234.236 300.101 250.022 300.254 252.4C301.619 267.326 329.173 275.21 362.622 274.195C384.122 273.542 419.235 251.889 420.75 238.033L420.79 238.003Z" fill="#DEE3E9"/>
<path fill-rule="evenodd" clip-rule="evenodd" d="M419.348 230.465C415.271 242.048 393.377 250.056 365.034 251.306C332.729 252.765 304.517 244.469 302.967 230.785C302.889 229.525 302.889 228.262 302.967 227.002C302.402 229.105 302.207 231.296 302.393 233.471C303.943 247.154 330.612 258.657 362.91 257.198C393.424 255.819 418.131 243.186 419.379 230.433L419.348 230.465Z" fill="white"/>
<path d="M324.739 231.057L321.364 229.348L334.898 211.488L345.731 212.056L343.426 215.437L339.083 222.286C352.269 223.588 375.84 225.912 382.06 225.912C385.574 225.912 388.19 220.85 389.589 219.611C390.17 219.611 404.571 222.231 404.571 222.231L395.529 232.689C393.286 235.078 390.311 236.658 387.07 237.183C384.937 237.596 382.753 237.686 380.592 237.451L324.739 231.057Z" fill="white"/>
<path d="M321.364 233.229L334.962 214.309L344.076 215.046L337.419 225.799L377.811 229.607C380.814 229.971 383.826 228.993 386.047 226.932L389.897 222.431L399.635 225.358L392.617 233.78C390.245 236.327 387.097 238.011 383.668 238.567C381.41 239.007 379.1 239.104 376.813 238.853L321.364 233.229Z" fill="black"/>
<path fill-rule="evenodd" clip-rule="evenodd" d="M386.795 234.401C384.641 234.785 382.442 234.86 380.266 234.624L329.12 229.499L339.03 215.719H343.157L336.536 226.391L380.377 230.694C382.954 230.996 385.539 230.186 387.444 228.479L391.659 223.628L395.405 224.883L391.604 231.21C390.253 232.61 388.609 233.695 386.795 234.401Z" fill="#DEE3E9"/>
<path d="M311.492 262.702L311.605 246.041C311.605 246.041 313.881 247.325 318.055 248.828C320.305 249.598 322.587 250.294 324.89 250.915V268.605C322.689 268.141 320.499 267.586 318.336 266.944C314.271 265.716 311.578 264.052 311.492 262.702Z" fill="white"/>
<path d="M298.094 347.731L298.434 272.131C298.434 272.131 305.262 276.139 317.785 279.623C324.534 281.316 331.379 282.654 338.287 283.631V363.8C331.685 363.451 325.116 362.682 318.626 361.497C306.433 359.174 298.354 353.78 298.094 347.731Z" fill="white"/>
<path d="M576.851 350.823L578.729 348.882L576.851 350.823Z" fill="white"/>
<path d="M579.255 354.955C580.804 376.758 544.451 393.181 502.157 393.578C482.147 393.758 462.203 390.154 447.45 383.569C441.629 381.021 435.186 377.635 431.715 373.69C429.741 371.448 428.264 369.045 427.329 366.555C423.361 359.595 423.967 329.6 426.092 324.754C433.878 308.028 463.434 295.91 498.843 295.579C541.149 295.191 577.483 311.758 579.02 333.569C579.245 336.321 579.031 351.804 579.255 354.955Z" fill="black"/>
<path fill-rule="evenodd" clip-rule="evenodd" d="M438.797 360.432C443.27 365.828 464.298 374.593 488.642 375.156C515.985 375.788 537.69 369.232 549.186 363.207C562.697 356.117 568.67 338.127 569.714 333.96C569.869 337.475 569.892 340.929 569.879 343.958C569.86 348.295 569.766 347.532 569.879 349.069C571.204 367.357 540.552 382.516 502.421 382.843C483.618 383.016 466.304 379.534 453.421 373.794C442.043 368.712 440.644 365.761 439.782 363.616C438.749 361.093 438.953 360.879 438.797 360.432Z" fill="#DEE3E9"/>
<path fill-rule="evenodd" clip-rule="evenodd" d="M503.34 367.559C541.334 367.095 571.191 351.861 570.008 333.528C568.825 315.195 537.092 300.696 499.096 301.201C461.1 301.707 431.258 316.892 432.428 335.232C433.597 353.573 465.358 368.007 503.34 367.559Z" fill="#DEE3E9"/>
<path fill-rule="evenodd" clip-rule="evenodd" d="M503.34 367.559C541.334 367.095 571.191 351.861 570.008 333.528C568.825 315.195 537.092 300.696 499.096 301.201C461.1 301.707 431.258 316.892 432.428 335.232C433.597 353.573 465.358 368.007 503.34 367.559Z" fill="#DEE3E9"/>
<path fill-rule="evenodd" clip-rule="evenodd" d="M433.272 339.747C440.515 354.76 468.863 365.807 501.976 365.421C539.713 364.981 569.348 349.872 568.16 331.672C568.094 330.674 567.936 329.677 567.686 328.687C568.712 330.799 569.305 332.98 569.45 335.175C570.625 353.375 541.003 368.484 503.266 368.924C467.61 369.337 437.488 356.511 433.272 339.747Z" fill="white"/>
<path fill-rule="evenodd" clip-rule="evenodd" d="M559.15 328.63C551.958 315.833 526.839 307.153 498.325 308.562C465.851 310.156 441.285 324.24 443.444 340.003C443.566 340.864 443.767 341.721 444.048 342.57C443.033 340.767 442.386 338.894 442.124 336.997C439.952 321.233 464.517 307.158 497.005 305.556C527.679 304.049 554.48 314.197 559.112 328.628L559.15 328.63Z" fill="white"/>
<path d="M459.455 352.113C470.972 356.536 486.189 358.676 502.434 357.477C534.525 355.107 558.17 340.519 555.236 324.902C554.758 322.326 553.562 319.812 551.708 317.483C556.408 321.333 559.112 326.021 559.419 330.853C560.258 346.553 534.723 359.724 502.401 360.262C485.701 360.508 470.403 357.395 459.455 352.129L459.455 352.113Z" fill="black"/>
<path d="M538.243 335.403L539.664 331.481L522.812 316.581L516.596 315.535L513.461 317.822L519.449 325.759L487.517 330.564C482.849 331.634 479.423 331.71 477.238 330.794C474.956 329.838 472.928 328.646 471.236 327.268C467.933 327.749 474.153 334.94 471.951 332.898L467.061 328.075L460.628 328.473L457.47 331.762L464.323 339.19C466.59 341.614 470.221 343.389 474.422 344.128C476.793 344.522 479.261 344.529 481.599 344.146L538.243 335.403Z" fill="black"/>
<path d="M539.906 331.523L524.474 312.742L515.123 313.958L523.842 325.688L482.547 331.709C479.053 332.11 475.471 331.064 473.548 329.081L468.8 324.247L459.17 327.932L466.037 335.353C468.298 337.78 471.931 339.556 476.136 340.291C478.506 340.684 480.972 340.693 483.312 340.318L539.906 331.523Z" fill="#DEE3E9"/>
<path d="M460.296 329.879L461.715 329.332L468.087 335.823C471.035 338.562 475.723 339.986 480.149 339.337L535.638 331.324L523.938 315.601L526.053 315.327L540.095 332.359L483.302 340.956C480.952 341.325 478.478 341.31 476.101 340.912C471.906 340.155 468.282 338.377 466.003 335.957L460.296 329.879Z" fill="white"/>
<path d="M543.511 374.927L543.363 359.307C543.363 359.307 540.378 360.511 534.903 361.921C531.953 362.642 528.96 363.295 525.94 363.877L525.94 380.461C528.826 380.026 531.698 379.506 534.535 378.904C539.866 377.753 543.397 376.193 543.511 374.927Z" fill="white"/>
<path d="M297.577 345.347L297.643 320.971C298.585 322.073 299.71 323.009 300.971 323.741C301.61 324.12 304.45 326.89 304.821 333.371C305.174 339.552 304.864 342.169 304.77 343.514C304.21 351.52 297.593 347.6 297.577 345.347Z" fill="black"/>
<path d="M297.577 315.723L297.643 263.847C298.585 264.949 299.71 265.885 300.971 266.616C301.61 266.996 304.45 269.765 304.821 276.247C305.174 282.428 304.864 312.545 304.77 313.891C304.21 321.896 297.593 317.976 297.577 315.723Z" fill="black"/>
<path fill-rule="evenodd" clip-rule="evenodd" d="M433.442 255.326C428.185 269.872 399.962 279.928 363.422 281.499C321.776 283.331 285.407 272.912 283.408 255.728C283.308 254.146 283.308 252.559 283.408 250.977C282.68 253.618 282.429 256.37 282.668 259.101C284.667 276.284 319.048 290.73 360.684 288.898C400.022 287.166 431.873 271.301 433.482 255.285L433.442 255.326Z" fill="white"/>
</svg>
