<svg xmlns="http://www.w3.org/2000/svg" viewBox="0 0 622.49 457.41">
    <defs>
        <pattern id="lines" data-name="lines" width="16" height="16" patternUnits="userSpaceOnUse">
            <path fill="none" d="M0 0h16v16H0z"/>
            <path class="cls-2" d="M1.98 78.02l66-66M-14.02 78.02l66-66M-30.02 78.02l66-66M-46.02 78.02l66-66M-62.02 78.02l66-66M1.98 62.02l66-66M-14.02 62.02l66-66M-30.02 62.02l66-66M-46.02 62.02l66-66M-62.02 62.02l66-66M1.98 46.02l66-66M-14.02 46.02l66-66M-30.02 46.02l66-66M-46.02 46.02l66-66M-62.02 46.02l66-66M1.98 30.02l66-66M-14.02 30.02l66-66M-30.02 30.02l66-66M-46.02 30.02l66-66M-62.02 30.02l66-66M1.98 14.02l66-66M-14.02 14.02l66-66M-30.02 14.02l66-66M-46.02 14.02l66-66M-62.02 14.02l66-66"/>
        </pattern>
        <style>
            .cls-2,.cls-4,.cls-5,.cls-6{fill:none;stroke:currentColor}.cls-2,.cls-5{stroke-linecap:square}.cls-2,.cls-4,.cls-6{stroke-miterlimit:10}.cls-2{stroke-width:2px}.cls-4,.cls-5,.cls-6{stroke-width:12px}.cls-6{fill-rule:evenodd}
        </style>
    </defs>
    <g id="Layer_2" data-name="Layer 2">
        <g id="Layer_12" data-name="Layer 12">
            <path d="M324.84 217.51l8.55-1.85 90.39-2.08q17.94 1.18 22.81-12.81V199l-31.84-55.71c-9.42-16.49-10.34-36.73-1.65-53.61a49.52 49.52 0 0119.56-20.56 31.3 31.3 0 0113.24-4.25C441.87 33.19 420.26 9 394.19 9H188.55c-28.94 0-52.39 29.81-52.39 66.58v30.85H264a52.4 52.4 0 0152.39 52.39v57.69z" fill="url(#lines)"/>
            <path class="cls-4" d="M316.43 214.56v-55.74A52.4 52.4 0 00264 106.43H58.39A52.4 52.4 0 006 158.82V366.5L88.67 326H295"/>
            <path class="cls-5" d="M65.55 167.95h194.72M147.38 220.41h112.89M65.55 220.41h35.28M147.38 270.6h66.33M65.55 270.6h35.28"/>
            <path class="cls-4" d="M316.43 222.83v-64a52.4 52.4 0 00-52.43-52.4"/>
            <path class="cls-4" d="M446.59 58.39A52.4 52.4 0 00394.19 6H188.55a52.39 52.39 0 00-52.39 52.39v48H264a52.4 52.4 0 0152.39 52.39v56.69"/>
            <path id="Path-8" class="cls-4" d="M333.39 215.66l90.39-2.08q18.64 1.23 23.18-13.93l-32.21-56.37c-9.42-16.49-10.34-36.73-1.65-53.61a49.52 49.52 0 0119.56-20.56c10.36-6 19.58-4.71 29.4-2.74l16.75 45.09L549.24 202q14.35 28.11 7.78 63.17t-26.62 55.68q18.48 30.78 13.58 70a64.73 64.73 0 01-16.72 36.26A74.31 74.31 0 01472.83 451l-124.19.31"/>
            <path id="Rectangle-Copy-21" class="cls-6" d="M390 215.66a29.74 29.74 0 010 59.48h-63.19a29.74 29.74 0 010-59.48z"/>
            <path id="Rectangle-Copy-23" class="cls-6" d="M398.78 334.57a29.28 29.28 0 010 58.55h-79.06a29.28 29.28 0 010-58.55z"/>
            <path id="Rectangle-Copy-22" class="cls-6" d="M401.85 274.85a29.69 29.69 0 010 59.37h-85.19a29.69 29.69 0 010-59.37z"/>
            <path id="Rectangle-Copy-24" class="cls-6" d="M394.85 392.9a29.26 29.26 0 010 58.51h-57.24a29.26 29.26 0 010-58.51z"/>
            <path id="Line-2" class="cls-4" d="M528.1 421.85l93.9 7.78"/>
            <path id="Line-2-Copy-3" class="cls-4" d="M559.1 230l60.54-.29"/>
            <path id="Line-2-Copy-3-2" data-name="Line-2-Copy-3" class="cls-4" d="M533 318.92l48.39-.19"/>
            <path d="M547 297.05c-6.88 17-27.6 28.95-54.89 27.83" stroke-width="12" stroke-miterlimit="10" stroke-linecap="square" stroke="currentColor" fill="none"/>
            <path d="M435 334.37a29.74 29.74 0 00-5.46-58.48 29.81 29.81 0 00-13.34-56.23h-11.5a29.85 29.85 0 01-10.61 55.19h7.79a29.69 29.69 0 010 59.37h-20.5c.18 0 .35.11.54.15l-.47.2h17.33a29.28 29.28 0 010 58.55h-.46a29.35 29.35 0 019.27 55.29H410a29.3 29.3 0 008.25-57.29H425a29.34 29.34 0 0010-56.75z" fill-rule="evenodd" fill="url(#lines)"/>
        </g>
    </g>
</svg>
