<svg width="719" height="560" viewBox="0 0 719 560" fill="none" xmlns="http://www.w3.org/2000/svg">
<path fill-rule="evenodd" clip-rule="evenodd" d="M586.66 259.99H580.007V253.337H586.66V246.667H580.007V239.997H586.66V233.343H593.33V226.674H586.66V233.327H580.007V226.674H586.66V220H579.99V226.67H573.337V233.323H566.667V226.67H559.997V233.323H553.344V226.67H559.997V220H553.327V226.67H546.674V220H540V226.67H546.67V233.323H540V239.994H546.67V246.663H540V253.333H546.67V260.003H553.323V266.657H559.993V260.003H566.663V266.657H573.334V260.003H579.987V266.657H586.657V260.003H593.327V253.333H586.657V259.99H586.66ZM546.67 266.66H540V259.99H546.67V266.66ZM566.663 226.67V220H573.334V226.67H566.663ZM586.66 239.994V246.663H593.33V239.994H586.66ZM553.323 233.34H546.67V239.994H553.323V233.34ZM553.34 266.66V273.33H559.993V266.66H566.663V273.33H573.334V266.66H580.004V273.33H586.657V266.66H593.327V273.33H586.657V280H579.987V273.33H573.334V280H566.663V273.33H559.993V280H553.323V273.33H546.67V280H540V273.33H546.67V266.66H553.34ZM579.987 253.337V246.667H573.334V253.337H579.987ZM566.663 253.337V259.99H573.334V253.337H566.663ZM559.993 253.337H566.663V246.667H559.993V253.337ZM559.993 253.337H553.34V259.99H559.993V253.337ZM559.993 239.994H553.34V246.663H559.993V239.994ZM566.663 239.994V233.34H559.993V239.994H566.663ZM573.337 239.994H566.667V246.663H573.337V239.994ZM573.337 239.994H579.99V233.34H573.337V239.994ZM553.323 246.663V253.333H546.67V246.663L553.323 246.663ZM600 226.67H593.33V220H600V226.67ZM593.33 239.994H600V233.323H593.33V239.994ZM600 253.337H593.33V246.667H600V253.337ZM593.33 266.66H600V259.99H593.33V266.66ZM593.33 280H600V273.33H593.33V280Z" fill="#4038FF"/>
<path fill-rule="evenodd" clip-rule="evenodd" d="M166.66 19.9899H160.007V13.3365H166.66V6.66667H160.007V-0.00320053H166.66V-6.65654H173.33V-13.3264H166.66V-6.67307H160.007V-13.3264H166.66V-20H159.99V-13.3301H153.337V-6.6768H146.667V-13.3301H139.997V-6.6768H133.344V-13.3301H139.997V-20H133.327V-13.3301H126.674V-20H120V-13.3301H126.67V-6.6768H120V-0.00640106H126.67V6.66347H120V13.3333H126.67V20.0032H133.323V26.6565H139.993V20.0032H146.663V26.6565H153.334V20.0032H159.987V26.6565H166.657V20.0032H173.327V13.3333H166.657V19.9899H166.66ZM126.67 26.6603H120V19.9899H126.67V26.6603ZM146.663 -13.3301V-20H153.334V-13.3301H146.663ZM166.66 -0.00640106V6.66347H173.33V-0.00640106H166.66ZM133.323 -6.66027H126.67V-0.00640106H133.323V-6.66027ZM133.34 26.6603V33.3301H139.993V26.6603H146.663V33.3301H153.334V26.6603H160.004V33.3301H166.657V26.6603H173.327V33.3301H166.657V40H159.987V33.3301H153.334V40H146.663V33.3301H139.993V40H133.323V33.3301H126.67V40H120V33.3301H126.67V26.6603H133.34ZM159.987 13.3365V6.66666H153.334V13.3365H159.987ZM146.663 13.3365V19.9899H153.334V13.3365H146.663ZM139.993 13.3365H146.663V6.66666H139.993V13.3365ZM139.993 13.3365H133.34V19.9899H139.993V13.3365ZM139.993 -0.00640106H133.34V6.66347H139.993V-0.00640106ZM146.663 -0.00640106V-6.66027H139.993V-0.00640106H146.663ZM153.337 -0.00640106H146.667V6.66347H153.337V-0.00640106ZM153.337 -0.00640106H159.99V-6.66027H153.337V-0.00640106ZM133.323 6.66347V13.3333H126.67V6.66347L133.323 6.66347ZM180 -13.3301H173.33V-20H180V-13.3301ZM173.33 -0.00640106H180V-6.6768H173.33V-0.00640106ZM180 13.3365H173.33V6.66666H180V13.3365ZM173.33 26.6603H180V19.9899H173.33V26.6603ZM173.33 40H180V33.3301H173.33V40Z" fill="#4038FF"/>
<path fill-rule="evenodd" clip-rule="evenodd" d="M353.33 280H360V340H353.33V280ZM346.667 280H340V340H346.667V280ZM333.334 280H326.667V340H333.334V280ZM313.333 280H320V340H313.333V280ZM306.667 280H300V340H306.667V280Z" fill="#4038FF"/>
<path fill-rule="evenodd" clip-rule="evenodd" d="M364.699 459.6H360V464.3L415.299 519.6H420V514.9L364.699 459.6ZM405.866 519.6H396.433L360 483.167V473.733L405.866 519.6ZM377.567 519.6H387L360 492.6V502.033L377.567 519.6ZM360 519.6V511.467L368.133 519.6H360ZM420 505.467V496.033L383.567 459.6H374.133L420 505.467ZM420 477.167V486.6L393 459.6H402.433L420 477.167ZM411.866 459.6L420 467.733V459.6H411.866Z" fill="#1F242C"/>
<path fill-rule="evenodd" clip-rule="evenodd" d="M300 513.33V520H240V513.33H300ZM300 506.667V500H240V506.667H300ZM300 493.333V486.667H240V493.333H300ZM300 473.333V480H240V473.333H300ZM300 466.667V460H240V466.667H300Z" fill="#1F242C"/>
<path fill-rule="evenodd" clip-rule="evenodd" d="M540 333.33V340H480V333.33H540ZM540 326.667V320H480V326.667H540ZM540 313.333V306.667H480V313.333H540ZM540 293.333V300H480V293.333H540ZM540 286.667V280H480V286.667H540Z" fill="#1F242C"/>
<path fill-rule="evenodd" clip-rule="evenodd" d="M300 346.67V340H240V346.67H300ZM300 366.673V373.343H240V366.673H300ZM300 386.677V380.007H240V386.677H300ZM300 400V393.33H240V400H300ZM300 353.34V360.01H240V353.34H300Z" fill="#1F242C"/>
<path fill-rule="evenodd" clip-rule="evenodd" d="M712.733 400H719.4C719.4 366.863 692.537 340 659.4 340V346.667C688.856 346.667 712.733 370.543 712.733 400ZM699.4 400H706.066C706.066 374.227 685.173 353.333 659.4 353.333V360C681.49 360 699.4 377.91 699.4 400ZM692.734 400H686.067C686.067 385.274 674.127 373.333 659.4 373.333V366.667C677.81 366.667 692.734 381.59 692.734 400ZM672.733 400H679.4C679.4 388.954 670.447 380 659.4 380V386.667C666.763 386.667 672.733 392.637 672.733 400ZM659.4 400H666.067C666.067 396.317 663.083 393.333 659.4 393.333V400Z" fill="#1F242C"/>
<path fill-rule="evenodd" clip-rule="evenodd" d="M186.667 160H180C180 193.137 206.863 220 240 220V213.333C210.543 213.333 186.667 189.457 186.667 160ZM200 160H193.333C193.333 185.773 214.227 206.667 240 206.667V200C217.91 200 200 182.09 200 160ZM206.667 160H213.334C213.334 174.727 225.273 186.667 240 186.667V193.333C221.59 193.333 206.667 178.41 206.667 160ZM226.667 160H220C220 171.047 228.953 180 240 180V173.333C232.637 173.333 226.667 167.363 226.667 160ZM240 160H233.333C233.333 163.683 236.317 166.667 240 166.667V160Z" fill="#1F242C"/>
<path d="M180 220V280H120C120 246.863 146.863 220 180 220Z" fill="#1F242C"/>
<path d="M480.6 40V100H420.6C420.6 66.8633 447.464 40 480.6 40Z" fill="#1F242C"/>
<path fill-rule="evenodd" clip-rule="evenodd" d="M186.67 40H180V100H186.67V40ZM206.673 40H213.343V100H206.673V40ZM226.677 40H220.007V100H226.677V40ZM240 40H233.33V100H240V40ZM193.34 40H200.01V100H193.34V40Z" fill="#1F242C"/>
<path fill-rule="evenodd" clip-rule="evenodd" d="M6.66993 160H0V220H6.66993V160ZM26.6733 160H33.3432V220H26.6733V160ZM46.6767 160H40.0068V220H46.6767V160ZM60 160H53.3301V220H60V160ZM13.3399 160H20.0098V220H13.3399V160Z" fill="#1F242C"/>
<path fill-rule="evenodd" clip-rule="evenodd" d="M487.27 520H480.6V580H487.27V520ZM507.273 520H513.943V580H507.273V520ZM527.277 520H520.607V580H527.277V520ZM540.6 520H533.93V580H540.6V520ZM493.94 520H500.61V580H493.94V520Z" fill="#4038FF"/>
</svg>
