<svg viewBox="0 0 400 320" xmlns="http://www.w3.org/2000/svg" xmlns:xlink="http://www.w3.org/1999/xlink">
  <defs>
    <path d="M101.631538 101.087572c18.549904-18.5499038 18.549904-48.6252403 0-67.1751441-18.5499037-18.5499039-48.6252402-18.5499039-67.175144 0-18.5499039 18.5499038-18.5499039 48.6252403 0 67.1751441 18.5499038 18.549904 48.6252403 18.549904 67.175144 0z" id="a"/>
  </defs>
  <g fill="none" fill-rule="evenodd">
    <path d="M213.42643624 91.8325663c-.56052973-2.09987434-1.93928793-3.19978636-3.71905956-3.9193009-.8559149-.34602374-1.82624787-.59030378-2.98916269-.79165137-1.59525868-.2762038-3.31253902-.44733708-6.33538324-.677473-.26585463-.0202401-.58503207-.04428972-1.16079506-.08765906-2.9730596-.22466164-4.4006861-.36874933-5.35069582-.56291841-.88440088-.18075953-5.12019302-1.20802211-4.94670996-1.167361-5.66365595-1.32745287-10.03206496-1.87978821-14.7257903-1.4822592-10.02556666.84910242-20.82297794 1.11809794-27.05320592.8348828-4.8184321-.2190374-8.24004304 1.11504714-10.7452036 3.73387734-.31072163.32482035-.5559368.60806921-.85565592.97897694-2.21003353.47399592-1.2570869 1.8221018-7.33457214 4.48409512-.23952589.10494782-.23952589.10494782-.47865277.20983559-.41033561.18002555-2.05586812.9032563-2.46373162 1.08217825-2.98631745 1.31004175-8.78687336 5.06262114-19.25476454 12.21591132-.35325986.2414539-.35325986.2414539-.70627718.48293578-1.31323428.89848545-8.0964282 5.55642123-9.8119254 6.72703858-3.33272867 2.2741799-5.5424468 3.74855645-6.97329516 4.64227672-3.94077806 2.46144505-6.41721851 5.79174351-7.70732454 9.952686-.9013163 2.90699059-1.13062132 5.23073293-1.31026269 10.3953501-.04150758 1.19334456-.0601937 1.68237386-.09096163 2.31058251l-.00182508.0370832c-.12811854 2.59041521-2.30162636 10.73406087-5.79118033 21.95294387-.31268695 1.00528645-.63453073 2.03117605-.96492165 3.07609801-1.25071638 3.95562138-2.5857231 8.06494593-3.97244073 12.2520234-.9453783 2.85448788-1.64327317 4.93348066-2.65420369 7.92564395-.66364209 1.96425532-1.15450585 3.6820127-1.54992227 5.34692924-.1478256.62243071-.27374494 1.198216-.4163035 1.88787203-.03918559.18956575-.08188136.39857573-.15449306.75436417-.05491028.26810515-.09373294.45405402-.13069952.62469216-.15710913.72521839-.265959 1.0909968-.40148754 1.38706418-.0391349.08549302-.08334.17124857-.12945758.25143464-1.36764128 2.36305654-20.38804115 25.87408513-27.77219508 33.87972669-1.59655992 1.7365653-2.16400134 4.18407928-1.4951599 6.4460919.56585399 1.91370796 1.94647429 3.45745093 3.74152806 4.24366767l43.01746624 29.53085439.81394605.20885849c4.5775347 1.1745959 9.4202913-.40650267 12.42505402-4.05556578l.07658545-.09300776 25.95421601-34.99648866c.24574113-.11478626.50842044-.23819044.78726695-.36997505 1.50169456-.70971028 3.1718948-1.52009372 4.96889453-2.4184205 2.17663742-1.0881073 21.53379661-4.57065271 35.44472265-12.20749998 18.92908389-10.39172477 33.60697643-25.70421348 35.23903946-27.464431 5.0653157-5.463056 31.7310635-55.00916138 33.50266146-58.33932083.11503118-.2162297.23708724-.44153329.37188389-.68687018.1973151-.35912362.91736735-1.64667226 1.06016977-1.9053546.4399293-.7969187.7715241-1.42676056 1.07334349-2.053585.85677656-1.77937033 1.38230371-3.36617582 1.55313918-5.0489668.23271322-2.29230914-18.02708678-6.55893602-19.2754689-8.63174424-2.07129045-3.43892256-5.41525463-5.2337568-9.3200116-5.47884913 6.3094141-4.18245787 9.31047845-10.55767804 8.01328296-15.4172726z" fill="#000" fill-rule="nonzero"/>
    <path d="M40.62778976 234.83726862l30.0922866-34.39775477 7.81946242-22.72165315L88.7767 128.53461826l46.34358589-32.04473657-26.06250783 29.76311155 37.1172563-33.3175856 15.9244155-1.23914424 16.87740582-1.73374384 27.13002387 3.84913894-2.33002893 4.84658347-9.58541594 4.49000922-16.90251857.29503456-22.10949693 7.10894816-15.59694142 20.00012317c-3.22329021 12.88336407-3.5943036 22.0515509-1.11304014 27.50456071 2.48126355 5.4530097 9.09620236 10.00693939 19.84481655 13.66178885l16.84386112-3.65552336 14.7283629-14.66957022s1.313099-7.71238047 4.62614656-11.6359496c3.31304757-3.92356904 12.42344674-8.38427741 14.85411003-7.4655222 2.43066339.9187551 5.86899004 3.26432137-3.04514754 19.2715516l-8.90876373 16.01238863-14.66127333 18.51312954c-14.09143068 10.32584905-24.8835112 17.37881103-32.3762417 21.15888493-7.49273037 3.7800749-18.93785102 7.94575825-34.33536014 12.49705002l-32.38877115 41.1661178-43.02338744-28.07399516z" fill="#C4C3C7" fill-rule="nonzero"/>
    <path d="M165.09252894 171.72052752c7.28782814-.89679878 15.14896948-5.43543076 18.7134278-6.18540045l-17.51632643 18.19595957c-9.08819286 6.72472366-15.40884444 8.78546475-18.96195497 6.1822232 6.98468361-11.53065571 12.90630127-17.5949166 17.7648536-18.19278232zM124.09914248 119.71031332c-6.96258356 1.2220435-9.91611782 4.5697236-13.33734452 5.4629249l27.10676098-24.44361538c8.96791364-6.84500217 15.07177527-9.12253379 18.31158418-6.83259414-16.74561165 16.39416105-27.43927836 24.998589-32.08100064 25.81328462zM103.23275962 119.33112038c-2.05815699 4.31245128-4.76129077 5.52877742-5.96195408 7.5843763l20.74623727-12.52391243c6.06036013-4.41244109 8.64488542-7.93167366 7.75357513-10.55769698-13.65313368 7.45652082-21.1657528 12.62226506-22.53785832 15.4972331z" fill="#FFF"/>
    <path d="M171.22263787 147.58776423s-16.46789463 13.13511753-25.1966379 13.2874783c7.86301218-6.18721002 19.11862801-13.59447776 19.11862801-13.59447776l6.0780099.30699946zM201.82737233 133.73369252s-10.06560982-.76608787-11.10278679-5.4959114c-.70470634 6.08095447 8.89100201 10.89544104 8.89100201 10.89544104l2.21178478-5.39952964z" fill="#101010" fill-rule="nonzero"/>
    <path d="M205.39165796 114.56788671s3.14174572.763787 1.82850711 5.54559187c-.71219758 2.69244764-1.76772834 5.29133841-3.14280752 7.7381103 0 0-8.35558721-3.90290122-8.62013112-5.47635854.02576158-.00044967 3.94374205-5.25675961 9.93443153-7.80734363zM192.55765756 91.9071652c-.4241042.47614607-.56277294 1.14535955-.36332516 1.75340202.19944778.60804246.70640219 1.06159536 1.3282679 1.18835112l3.57233517.73399594 7.9669415.52624265 1.4233196-2.54494316-13.92753901-1.65704856z" fill="#FFF" fill-rule="nonzero"/>
    <path fill="#101010" fill-rule="nonzero" d="M205.94039688 96.27793605l-12.18669005-1.44366661 11.1967519 5.329877z"/>
    <path fill="#FFF" fill-rule="nonzero" d="M70.98589502 202.39025779l10.43215798 7.00436953 8.18013978-80.81241364zM39.791818 235.07936429l9.41627825 5.28020345 16.86453743-33.21959333z"/>
    <path fill="#101010" fill-rule="nonzero" d="M69.73094546 201.2906142l21.37379637 13.99274298-26.6878369-8.80406993z"/>
    <g>
      <path d="M253.73856266 126.96661933c-2.0877587-2.40874557-3.8490915-4.49676722-5.19303494-6.18757037 6.42911129-1.66566686 18.10759561-7.24220586 20.02498347-8.4873721 11.18430767-7.26317432 8.18015807-20.55846771.01375302-33.13362873s-21.55569893-19.12626279-32.74000657-11.86308849c-8.59034864 5.57863764-65.68686717 37.63865677-88.57928013 52.50516358-6.97104653 4.52705055-2.48924764 23.92440576 5.89032494 36.82781598 1.71946818 2.64774882 9.21118361 5.68097657 20.41501128 8.13384613l80.16824893-37.795166z" fill="#000"/>
      <path d="M182.31487768 151.77511502c13.35605726-4.86736187 32.86966016-13.82610805 58.54080866-26.87623878-5.1814033-7.6993496-9.97173538-15.95423063-12.52692802-22.37315369-3.19145321-8.01727896-3.0022044-15.89378655.56774633-23.62952292l-75.03424143 45.26342814c-1.90128038 5.29374672-2.17154822 11.20971695 2.94866904 21.79872204 1.79770846 3.71780032 17.06001752 8.8939945 25.50394542 5.8167652z" fill="#C4C3C6"/>
      <path d="M223.46675226 105.50470737c.93327107-12.35804302 2.55246614-21.16996658 4.8575853-26.43577075l-75.04811421 45.12159347c-1.65374098 4.92757577-.3213049 12.17200681 3.9973091 21.73329256 43.50663237-18.70738151 65.57103912-32.18041995 66.1932198-40.41911528zM234.51199924 85.54364078c-.59199732 2.35602498-3.93605112 9.68949127 1.74145301 18.43208096 2.85454762 4.39561788 7.76031389 9.6790322 11.19657193 13.04427792 11.65484842-4.7814152 20.6938965-8.17737665 20.64428957-10.17989241-3.99391164 1.37144121-7.84318876 1.03998231-11.54783132-.9943766-2.93001173-1.60897997-8.15793793-5.55704998-11.46772127-11.36334566-4.25833485-7.47032335-1.32893799-12.26117363-1.02169397-13.6605195l-9.54506795 4.72177529z" fill="#FFF"/>
      <path d="M247.42412545 117.08499831c11.66535314-4.82203624 20.71046193-8.25193402 20.67432358-10.23852329-3.99572734 1.38744119-7.83571039 1.08427788-11.51994891-.90948981-1.60783738-.87009957-5.4247021-3.38946124-10.83025294-3.37293688-3.60370059.01101625-6.33149727 1.15470293-8.18338991 3.43106005 2.86184446 3.92085214 6.9064834 8.21628707 9.85926818 11.08988993zM249.0386662 82.60645726c-.54583902 3.23958315.2687383 6.53397298 2.443732 9.88316959.51575258.79418933 1.04386298 1.5484907 1.5809432 2.26138605l8.46866848-4.01646708c-.14499665-.3995956-1.2756222-2.39799814-2.47287025-3.80788626-1.0085094-1.18762808-3.3407628-3.43455265-5.90053037-4.1864641-2.07529467-.6096014-3.9595788-.2332566-4.11994305-.1337382z" fill="#C4C3C6"/>
      <path d="M146.28516211 126.47620882l5.03805592 10.3295454c2.42142657-.81658252 4.10680706-1.5538483 5.05614239-2.21179777 1.94772802-1.3498987 4.47604137-2.06329196 2.97606224-2.15956497-.75834004-.04867225-4.0066611.117642-5.90994542.32274077-.53804355.05797978-1.04507787.1217923-1.52498743.19140716 2.63861896-1.29474302 5.36477714-2.80150793 8.48994933-4.75446456 8.02479374-5.01478754 7.34454413-5.14630009-.58545404-2.37879846-1.58835982.554324-3.57563591 1.35793547-5.96182913 2.41083492.6928157-.68106984 1.38713043-1.44104243 2.09387748-2.30056972 1.40454897-1.70817525 3.42199859-4.69543458 3.71216052-5.42708442.57393256-1.44718657-2.20309992.64931487-5.99636118 1.95105968-1.89308713.64965626-4.3556443 1.99188712-7.38767068 4.02669197z" fill="#000"/>
    </g>
    <g transform="rotate(4 -823.28534668 3222.40309668)">
      <path d="M20.3142583 115.229708c-26.36038966-26.36039-26.36038966-69.099026 0-95.4594157 26.3603897-26.36038972 69.0990258-26.36038972 95.4594157 0 23.452755 23.4527553 26.17881 60.1468897 7.441789 86.6377487l.788582.788582c5.381495-1.439825 11.311104-.002604 15.457706 4.143997l40.305086 40.305087c6.248389 6.248389 6.248389 16.379028 0 22.627417l-4.24264 4.242641c-6.248389 6.248388-16.379029 6.248388-22.627417 0l-40.305087-40.305087c-4.146602-4.146602-5.583822-10.076211-4.143997-15.457706l-.672662-.672661c-26.5196685 19.361462-63.7391598 16.871013-87.4607757-6.850603z" fill="#000" fill-rule="nonzero"/>
      <path d="M108.234413 114.054407l7.327154 7.327155c-2.572412 3.882739-2.148156 9.165552 1.272767 12.586475 9.076709 4.62493 16.155209 9.477539 21.235498 14.557829 5.814595 5.814595 19.708869 19.040842 24 21.504617 2.860754 1.642517 7.345542 1.642517 13.454365 0 3.905243-3.905243 3.905243-10.236892 0-14.142135l-40.305087-40.305087c-3.420923-3.420923-8.703736-3.845178-12.586475-1.272766l-7.384051-7.384051c20.228162-24.1623537 18.988978-60.2069816-3.717551-82.913511-24.0172438-24.01724399-62.95689-24.01724399-86.974134 0-24.01724393 24.0172439-24.01724393 62.9568901 0 86.974134 22.9471158 22.947116 59.5164745 23.969563 83.677514 3.06734z" fill="#C4C3C7" fill-rule="nonzero"/>
      <path fill="#000" d="M107.79639566 113.75441162l8.04489072-7.50198196 7.50198196 8.04489072-8.04489072 7.50198196z"/>
      <path d="M161.58918317 158.14233248c6.43651301.7578516 11.25938997 1.83082815 14.46863016 3.21892897l-41.0264203-42.77332901c-2.87998087-1.01787456-6.1933503-.41254873-9.94010832 1.81597608 20.04092363 24.65371491 32.20688955 37.2331898 36.49789846 37.73842396z" fill="#FFF"/>
      <path d="M105.874179 105.330213c-20.8930498 20.893049-54.7673761 20.893049-75.6604257 0-20.89304964-20.8930498-20.89304964-54.7673762 0-75.6604258 20.8930496-20.8930496 54.7673759-20.8930496 75.6604257 0 20.893049 20.8930496 20.893049 54.767376 0 75.6604258z" fill="#000" fill-rule="nonzero"/>
      <mask id="b" fill="#fff">
        <use xlink:href="#a"/>
      </mask>
      <use fill="#000" fill-rule="nonzero" xlink:href="#a"/>
      <g mask="url(#b)">
        <path d="M49.18272956 119.03125887c-4.0453658-6.223884-7.43924974-11.60390693-9.99573127-15.9346997 15.542135-1.84111855 44.64071262-11.08496972 49.53008752-13.36492268 28.52019282-13.29918432 26.03723213-44.98746824 11.2843556-76.62511405C85.24856492-18.5311233 56.2832929-37.87050251 27.76310008-24.5713182 5.85755105-14.35659292-138.03519786 41.92910203-196.41127635 69.1503145c-17.77630009 8.28922486-13.92347486 54.55221508 1.21449562 87.01569752 3.10627528 6.66142885 19.52795857 16.02002455 44.79401311 25.19761418l199.58549718-62.33236732z" fill="#000"/>
        <path d="M-103.91557224 147.09448038c29.9170043-6.46604106 74.20002784-19.81321141 132.84907284-40.04151102-8.6303874-17.73235087-16.25660395-36.5259577-19.69885017-50.8060518-4.299389-17.83593546-1.45222978-34.41037926 8.54147771-49.72333154l-173.63498986 74.15492922c-5.68677076 10.63353334-8.09774597 23.04589425-.49436374 46.86126485 2.6695483 8.36157765 33.52361071 23.6426424 52.43765322 19.55470029z" fill="#C4C3C6"/>
        <path d="M-1.22246455 61.31927588C4.59595361 35.6479235 10.76378175 17.61139833 17.28101951 7.20970045l-172.90422982 73.56401347c-5.03312766 9.87527183-4.46506512 25.45321556 1.70418487 46.73383243 97.91876184-27.0112787 148.81761515-49.0740354 152.6965609-66.18827047zM28.66485899 21.9831727c-1.95630359 4.80766478-11.22321614 19.32756074-1.81684039 39.49959864C31.5773762 71.62491141 40.3830627 84.25223453 46.65120028 92.38741851c26.09468098-6.66096353 46.23946535-11.1663947 46.73229117-15.41640662-8.86246035 1.7177512-16.91043183-.12329541-24.14391422-5.52313972-5.72098082-4.27075149-15.6071578-14.16923355-20.8788787-27.42978051-6.7825446-17.06089026.8476983-26.32595994 1.91572605-29.1945819l-21.6115656 7.15966295z" fill="#FFF"/>
        <path d="M46.5769818 92.51722053c26.12904076-6.74376605 46.29678361-11.31917772 46.81336089-15.53151612-8.87107982 1.7510534-16.90782756-.02739545-24.11024328-5.33534652-3.14320386-2.31644114-10.46941283-8.77530223-21.9150932-10.34127417-7.63045354-1.0439813-13.74521285.56704496-18.34427792 4.83307858 4.88653482 9.14017166 12.16460637 19.4228852 17.5562535 26.37505823zM60.2871254 20.07328316c-2.12238208 6.6900604-1.3818301 13.89894109 2.22165609 21.62664213.85448865 1.83245683 1.74704027 3.5842105 2.67093739 5.25104678l19.12282817-5.98672546c-.18759-.88808708-1.9839478-5.44955665-4.09700212-8.7860494-1.77994453-2.81051556-6.04533308-8.25348612-11.23856249-10.60188557-4.21033598-1.90393104-8.31073961-1.666016-8.67985703-1.50302848z" fill="#C4C3C6"/>
        <path d="M-171.79854793 83.68265187l7.55557194 23.25365937c5.39960181-1.0217351 9.20953476-2.0892636 11.42979972-3.20258598 4.5552604-2.28417506 10.1506267-3.05723424 6.98994053-3.69473375-1.5979374-.3222987-8.5572827-.91204519-12.66788482-1.03045917-1.1620353-.03347471-2.25990517-.04566269-3.30186191-.03775291 6.00777005-1.96773043 12.26656192-4.35746376 19.51043724-7.57308683 18.6007687-8.25705308 17.19424945-8.7315263-.51758036-5.18866018-3.54763767.7096279-8.01992834 1.82971781-13.41687387 3.36027048 1.68177374-1.23638874 3.39086864-2.63882344 5.15685302-4.24771246 3.5096149-3.19741277 8.7139458-8.91613117 9.55483119-10.37584208 1.66325206-2.88727579-4.88410938.732034-13.34969206 2.3801713-4.22488302.82252909-9.87272717 2.94143852-16.94353246 6.3567282z" fill="#000"/>
      </g>
      <g mask="url(#b)">
        <path d="M30.71102269 36.22692502c-.53880293 1.20825773-1.02920299 2.45042905-1.46806824 3.7249863-8.09128472 23.4987971 4.39897195 49.10761816 27.89776896 57.19890285 23.498797 8.09128469 49.10761813-4.39897185 57.19890285-27.89776895.43886525-1.27455725.8171817-2.55532205 1.13647697-3.83916232-9.39501582 21.06818644-33.50659482 31.8252021-55.73083459 24.17278266C37.52102888 81.93424613 25.14352541 58.6130318 30.7110227 36.22692502z" fill="#000"/>
        <path d="M27.37604954 48.8747062c-.52078321 1.17573362-.9957962 2.38343617-1.422167 3.62170687-8.09128468 23.498797 4.39897195 49.10761816 27.89776896 57.19890285 23.498797 8.09128469 49.10761816-4.39897194 57.19890285-27.89776895.89730292-2.60595689 1.54148892-5.23786335 1.9456142-7.8689504-9.36217583 21.13628976-33.51620951 31.94097588-55.77673582 24.27606199-20.89284022-7.1939818-33.08339251-28.23563442-29.84338319-49.32995236z" fill="#FFF"/>
      </g>
    </g>
  </g>
</svg>
