<svg width="18" height="18" viewBox="0 0 18 18" fill="none" xmlns="http://www.w3.org/2000/svg">
<path d="M9.58057 1.65165C10.478 0.754189 11.6952 0.25 12.9645 0.25C15.6074 0.25 17.75 2.39256 17.75 5.03553C17.75 6.30474 17.2458 7.52196 16.3483 8.41942L13.4194 11.3484C12.5219 12.2458 11.3047 12.75 10.0355 12.75C8.71403 12.75 7.51764 12.2144 6.65163 11.3483L8.4194 9.58058C8.833 9.99418 9.40438 10.25 10.0355 10.25C10.6417 10.25 11.223 10.0092 11.6516 9.58058L14.5806 6.65165C15.0092 6.22303 15.25 5.6417 15.25 5.03553C15.25 3.77327 14.2267 2.75 12.9645 2.75C12.3583 2.75 11.777 2.9908 11.3483 3.41942L10.5089 4.25888L8.7411 2.49112L9.58057 1.65165Z" fill="#A7AEB7"/>
<path d="M7.96447 5.25C9.28596 5.25 10.4823 5.78564 11.3484 6.65165L9.58058 8.41942C9.16698 8.00582 8.5956 7.75 7.96447 7.75C7.3583 7.75 6.77697 7.9908 6.34835 8.41942L3.41942 11.3483C2.9908 11.777 2.75 12.3583 2.75 12.9645C2.75 14.2267 3.77327 15.25 5.03553 15.25C5.64169 15.25 6.22303 15.0092 6.65165 14.5806L7.49112 13.7411L9.25888 15.5089L8.41942 16.3483C7.52196 17.2458 6.30473 17.75 5.03553 17.75C2.39255 17.75 0.25 15.6074 0.25 12.9645C0.25 11.6953 0.754187 10.478 1.65165 9.58058L4.58058 6.65165C5.47804 5.75419 6.69526 5.25 7.96447 5.25Z" fill="#A7AEB7"/>
</svg>
