<svg xmlns="http://www.w3.org/2000/svg" viewBox="0 0 1161 502.06"><defs><style>.cls-1,.cls-11,.cls-3{fill:#c4c3c6;}.cls-1,.cls-13,.cls-14,.cls-15,.cls-16,.cls-8{stroke:#000;}.cls-1,.cls-14,.cls-15,.cls-16,.cls-4,.cls-6,.cls-7,.cls-8{stroke-miterlimit:10;}.cls-10,.cls-13,.cls-14,.cls-15,.cls-2{fill:#fff;}.cls-4,.cls-5,.cls-6,.cls-7,.cls-8{fill:none;}.cls-4{stroke:red;}.cls-6,.cls-7{stroke:#fff;}.cls-15,.cls-6{stroke-width:2px;}.cls-10,.cls-11,.cls-13,.cls-9{fill-rule:evenodd;}.cls-12{fill:#040404;}.cls-13{stroke-width:0.5px;}.cls-14{stroke-width:3px;}.cls-16{stroke-width:7px;}</style></defs><g id="Warstwa_2" data-name="Warstwa 2"><g id="Warstwa_3" data-name="Warstwa 3"><path d="M1061,165.06s-31.31,9.65-56.17-.35c-84.94-34.17-219.31-58.46-375.1-65.24-1.85-.08-1.5-2.25-.73-22.41.09-2.25-6.1-7.67-6-10,1.2-29.08,7.18-62.55,5-64-5.24-3.49-14-5-15,1-.48,2.88-.81,7.48-2.68,6.62C596,4.06,588.24,14.61,582.46,38.76c1.49-6.2-12.39-4.11-19.46-6.7-30-11-77-20-145,19-5.86,3.36.9,50.12-4.65,50.48C228,113.3,77.9,150.18,14,198.3l.1,12.85L0,216.06v93l15,51.26c75.55,56.9,271.5,127.13,503.92,131.53,7.6.14,15.25,10.21,22.92,10.21,66.74,0,131.63-2.3,193.17-7.37,11-.9,21.9-11.9,32.69-13C914.06,467,1039.21,435.58,1122,381.06l39-32v-92L1124.62,247,1123,217.06Z"/><path class="cls-1" d="M235,309.53c53.23,33.46,201.72,57.53,376.57,57.53,202.58,0,369.78-32.32,394.43-74.1-51.66-44-201.51-75.9-378.32-75.9C429.37,217.06,265,257.13,235,309.53Z"/><path class="cls-2" d="M485.23,229.51C353.57,238.69,287.09,320,488.81,358.9c45.39,8.76,97.39,8.15,151.71,8.15,179.19,0,327.07-31.82,348.87-73-45.69-43.37-178.23-74.73-334.62-74.73C593.3,219.36,536.11,226,485.23,229.51Z"/><polygon points="536 348.06 503 355.06 465 343.06 434 349.06 402 339.06 374 346.06 346 335.06 313 340.06 285 328.06 252 331.06 227 318.06 206 316.06 192 304.06 191.34 304.34 191 304.06 170 304.06 155 293.06 139 293.06 125 279.06 40 297.06 60 318.06 84 316.06 108 330.06 135 328.06 159 344.06 189 342.06 220 355.06 261 350.06 292 367.06 322 363.06 354 375.06 384.35 369.19 417 381.06 455 373.06 495 384.06 532 376.06 567 384.06 567 360.06 536 348.06"/><polygon points="530 366.06 497 373.06 459 361.06 428 367.06 396 357.06 368 364.06 340 353.06 307 358.06 279 346.06 246 349.06 221 336.06 200 334.06 186 322.06 185.34 322.34 185 322.06 164 322.06 149 311.06 133 311.06 119 297.06 34 315.06 54 336.06 78 334.06 102 348.06 129 346.06 153 362.06 183 360.06 214 373.06 255 368.06 286 385.06 316 381.06 348 393.06 378.35 387.19 411 399.06 449 391.06 489 402.06 526 394.06 561 402.06 561 378.06 530 366.06"/><polygon class="cls-3" points="37.5 306.56 122.5 288.56 136.5 302.56 57.5 327.56 37.5 306.56"/><polygon class="cls-2" points="136.5 302.56 152.5 302.56 167.5 313.56 105.5 339.56 81.5 325.56 57.5 327.56 136.5 302.56"/><polygon class="cls-2" points="167.5 313.56 188.5 313.56 203.5 325.56 156.5 353.56 132.5 337.56 105.5 339.56 167.5 313.56"/><polygon class="cls-2" points="156.5 353.56 186.5 351.56 224.5 327.56 203.5 325.56 156.5 353.56"/><polygon class="cls-3" points="132.5 337.56 156.5 353.56 203.5 325.56 189.5 313.56 132.5 337.56"/><polygon class="cls-3" points="81.5 325.56 105.5 339.56 167.5 313.56 152.5 302.56 81.5 325.56"/><polygon class="cls-3" points="186.5 351.56 217.5 364.56 249.5 340.56 224.5 327.56 186.5 351.56"/><polygon class="cls-2" points="217.5 364.56 258.5 359.56 282.5 337.56 249.5 340.56 217.5 364.56"/><polygon class="cls-3" points="282.5 337.56 310.5 349.56 289.5 376.56 258.5 359.56 282.5 337.56"/><polygon class="cls-2" points="310.5 349.56 343.5 344.56 319.5 372.56 289.5 376.56 310.5 349.56"/><polygon class="cls-3" points="343.5 344.56 371.5 355.56 351.5 384.56 319.5 372.56 343.5 344.56"/><polygon class="cls-2" points="371.5 355.56 399.5 348.56 382.5 378.56 351.5 384.56 371.5 355.56"/><polygon class="cls-3" points="399.5 348.56 431.5 358.56 414.5 390.56 381.5 378.56 399.5 348.56"/><polygon class="cls-2" points="431.5 358.56 462.5 352.56 452.5 382.56 414.5 390.56 431.5 358.56"/><polygon class="cls-3" points="462.5 352.56 500.5 364.56 492.5 393.56 452.5 382.56 462.5 352.56"/><polygon class="cls-2" points="500.5 364.56 533.5 357.56 529.5 385.56 492.5 393.56 500.5 364.56"/><polygon class="cls-3" points="533.5 357.56 564.5 369.56 564.5 393.56 529.5 385.56 533.5 357.56"/><path class="cls-4" d="M121,264c51.58-50.64,160.79-88.86,356.9-98.52"/><polygon class="cls-3" points="989 190.06 987.14 286.27 1008.5 302.56 1018.5 299.56 1023.5 287.56 1042.5 286.56 1051.5 274.56 1064.5 272.56 1071.5 257.56 1093.25 268.22 1093.5 252.56 1096.5 243.56 1094.5 239.56 1093.5 230.56 1051 238.06 989 190.06"/><polygon class="cls-5" points="974.5 191.56 988.21 205.4 988.5 187.56 974.5 191.56"/><path class="cls-3" d="M579.5,90.62v13.94h-109V96.19c-22.68-4.1-39.44-11.3-45-19.88v39.25l12-3,26,6,7.5-20.5,3,36,54.5-20.5,73,24V77.67C597.55,82.6,589.88,87,579.5,90.62Z"/><path class="cls-3" d="M477.5,143.56V208.9c-162.9,9.89-292.74,44.77-336.37,89.67l-31.07-62.5c47.48-50.93,157-89.94,367.8-99"/><path class="cls-3" d="M592.64,139.56l.44,0v-.52Z"/><path class="cls-3" d="M988,196.91C914.42,163,789.94,138.54,593.08,131.58V204.4c76.63,3.81,148.28,9.32,209.23,19.69C886,238.32,950.68,259.4,988,282.58Z"/><path d="M359.84,176.93l-.07-8.1c0-5.36-4-9.2-8.69-8.52h0c-4.73.67-8.56,5.62-8.51,11l.07,8.11Q351.07,178.11,359.84,176.93Z"/><path d="M381.84,174.16l-.07-8.33c0-5.36-4-9.2-8.69-8.52h0c-4.73.67-8.56,5.62-8.51,11l.07,8Q373.09,175.17,381.84,174.16Z"/><path d="M314.05,184.21l-.08-9.14c0-5.37-4-8.58-8.67-7.13h0c-4.72,1.44-8.55,7-8.5,12.38l.07,7.26Q305.27,185.84,314.05,184.21Z"/><path d="M336.83,180.3l-.06-7.47c0-5.36-4-9.2-8.69-8.52h0c-4.73.67-8.56,5.62-8.51,11l.07,7.9Q328.06,181.69,336.83,180.3Z"/><path d="M427.84,169.67l-.07-8.84c0-5.36-4-9.2-8.69-8.52h0c-4.73.67-8.56,5.62-8.51,11l.07,7.88Q419.12,170.38,427.84,169.67Z"/><path d="M292.11,188.58l-.09-9.27c0-5.37-3.94-8.58-8.67-7.13h0c-4.72,1.44-8.55,7-8.5,12.38l.07,7.91Q283.3,190.46,292.11,188.58Z"/><path d="M474,166.65l-.05-7.64c0-5.29-4-9.51-8.8-9.39s-8.71,4.55-8.68,9.83l.06,8.18Q465.12,167.09,474,166.65Z"/><path d="M451,168l-.05-8c0-5.29-4-9.51-8.8-9.39s-8.71,4.55-8.68,9.83l.06,8.78Q442.12,168.56,451,168Z"/><path d="M404.84,171.71l-.07-7.88c0-5.36-4-9.2-8.69-8.52h0c-4.73.67-8.56,5.62-8.51,11l.06,7.22C393.28,172.88,399,172.28,404.84,171.71Z"/><path d="M143.85,247.08l-.13-14.25c-.05-5.37-2-7.33-4.31-4.35h0c-2.33,3-4.19,9.8-4.15,15.17l.09,9.75Q139.42,250.19,143.85,247.08Z"/><path d="M270.16,193.62l-.08-9c0-5.37-3.95-8.57-8.67-7.13s-8.55,7-8.5,12.39l.07,8.29C258.56,196.59,264.27,195.08,270.16,193.62Z"/><path d="M181.6,224.22l-.1-9.28c0-5.37-3.55-8.64-7.79-7.27s-7.66,6.89-7.62,12.25l.13,12.21Q173.54,228.08,181.6,224.22Z"/><path d="M130.63,256.23l-.1-11.45c-.05-5.37-2-7.32-4.32-4.34h0c-2.32,3-4.19,9.8-4.14,15.17l.07,8.26C124.82,261.29,127.64,258.74,130.63,256.23Z"/><path d="M161.18,236l-.13-13.92c0-5.36-2.91-7.48-6.37-4.69s-6.26,9.45-6.21,14.82l.1,11.63Q154.57,239.84,161.18,236Z"/><path d="M248.23,199.48l-.08-8.82c-.05-5.36-4-8.57-8.67-7.13s-8.55,7-8.5,12.39l.08,8.81Q239.37,202,248.23,199.48Z"/><path d="M226.3,205.3l-.07-8.57c0-5.36-3.95-8.57-8.68-7.13h0c-4.72,1.45-8.54,7-8.5,12.39l.09,9.45Q217.41,208.29,226.3,205.3Z"/><path d="M203.94,214.46l-.08-9.55c-.05-5.37-3.75-8.61-8.23-7.2s-8.11,6.95-8.06,12.32l.1,11.35Q195.47,217.83,203.94,214.46Z"/><path d="M788.18,180.89l.07-8.11c0-5.38,4.12-9.18,9.06-8.43h0c4.93.74,8.94,5.75,8.89,11.13l-.07,8.13Q797.33,182.2,788.18,180.89Z"/><path d="M765.21,177.82l.07-8.35c0-5.38,4.12-9.17,9.06-8.43h0c4.93.74,8.94,5.75,8.89,11.13l-.07,8C777.29,179.36,771.29,178.58,765.21,177.82Z"/><path d="M836,188.82l.08-9.17c0-5.38,4.11-8.54,9.05-7h0c4.93,1.51,8.92,7.15,8.88,12.53l-.06,7.27Q845.16,190.56,836,188.82Z"/><path d="M812.2,184.58l.06-7.48c0-5.38,4.12-9.17,9.06-8.43h0c4.94.74,8.94,5.75,8.9,11.13l-.07,7.92Q821.36,186.1,812.2,184.58Z"/><path d="M717.18,172.7l.07-8.86c0-5.38,4.12-9.18,9.06-8.44h0c4.94.75,8.94,5.76,8.9,11.14l-.07,7.89Q726.29,173.53,717.18,172.7Z"/><path d="M858.9,193.49l.07-9.29c0-5.38,4.12-8.55,9-7h0c4.93,1.51,8.93,7.15,8.89,12.53l-.07,7.93Q868.1,195.5,858.9,193.49Z"/><path d="M669,169l0-7.66a9.08,9.08,0,0,1,9.19-9.29c5,.18,9.1,4.67,9.06,10l0,8.2C681.26,169.83,675.16,169.42,669,169Z"/><path d="M693,170.7l.05-8a9.06,9.06,0,0,1,9.18-9.29c5,.19,9.1,4.68,9.07,10l-.06,8.79Q702.28,171.39,693,170.7Z"/><path d="M644.71,167.06l.07-8.85c.05-5.38,4.13-9.37,9.08-8.87h0c4.94.5,8.95,5.3,8.9,10.68l-.06,7.88Q653.83,167.44,644.71,167.06Z"/><path d="M596.47,165.79l0-7.65a9.62,9.62,0,0,1,9.2-9.73,9.2,9.2,0,0,1,9.07,9.51l0,8.19Q605.74,165.9,596.47,165.79Z"/><path d="M620.52,166.26l.05-8a9.62,9.62,0,0,1,9.19-9.73,9.21,9.21,0,0,1,9.08,9.51l-.06,8.79C632.79,166.61,626.69,166.42,620.52,166.26Z"/><path d="M741.2,175.06l.06-7.9c0-5.38,4.13-9.18,9.06-8.44h0c4.94.75,8.94,5.76,8.9,11.14l-.06,7.23C753.26,176.39,747.29,175.7,741.2,175.06Z"/><path d="M881.81,198.85l.07-9.06c0-5.38,4.12-8.54,9-7s8.93,7.15,8.88,12.53l-.07,8.32Q891,201.16,881.81,198.85Z"/><path d="M1007.63,302.84l.08-67.09c0-5.38,3-7.46,6.65-4.62s6.54,9.56,6.49,14.94l-.07,48.76-2.75,4.94Z"/><path d="M993.65,291l.05-42.55c0-4,1.81-5.56,4-3.44s3.9,7.15,3.87,11.17l0,41.76-1.65-1.67Z"/><path d="M1025.57,286.67l.07-13.48c0-4,1.81-5.56,4-3.44s3.89,7.15,3.87,11.17l-.06,4.67-3.43,0Z"/><path d="M904.71,205l.08-8.83c0-5.38,4.11-8.55,9-7s8.93,7.16,8.89,12.54l-.08,8.83Q914,207.69,904.71,205Z"/><path d="M927.61,212.15l.07-8.59c0-5.38,4.12-8.54,9.05-7h0c4.93,1.51,8.93,7.15,8.88,12.53l-.08,9.48Q936.89,215.27,927.61,212.15Z"/><path d="M951,220.64l.08-9.58c.05-5.38,3.91-8.58,8.59-7.11s8.47,7.08,8.42,12.46L968,227.79Q959.81,224.13,951,220.64Z"/><path d="M987.05,215.45a10.26,10.26,0,0,0-4.54-3.21c-4.43-1.44-8.08,1.79-8.13,7.17l-.1,11.31c4.43,2.09,8.68,4.22,12.79,6.39Z"/><path d="M205.19,222.16c-6.7,1.6-12.19,9.49-12.19,17.54v26.57q11.37-5.11,24.39-9.9V233.88C217.39,225.83,211.9,220.56,205.19,222.16Z"/><path d="M274.59,204.28c-7.47,1.65-13.59,9.6-13.59,17.64v20.66q13.08-3.57,27.18-6.84V215.89C288.18,207.84,282.06,202.62,274.59,204.28Z"/><path d="M175,236.16c-5.5,3.8-10,13.49-10,21.54V281a219.72,219.72,0,0,1,20-11V243.88C185,235.83,180.5,232.36,175,236.16Z"/><path d="M136.5,303.63v-27.5c0-8-3-11.18-6.75-7-3.52,4-6.42,13.2-6.72,21Z"/><path d="M150.75,251.16C147,255.37,144,265.4,144,273.45v23.3a120.33,120.33,0,0,1,13.5-10.85V258.13C157.5,250.09,154.46,247,150.75,251.16Z"/><path d="M239.89,212.57h0c-7.09,1.63-12.89,9.55-12.89,17.6V253q12.27-4.2,25.78-8.09V224.24C252.78,216.2,247,210.94,239.89,212.57Z"/><path d="M449.38,176.72h0c-7.47.51-13.59,7.51-13.59,15.55V213q13.41-1.22,27.18-2.18V190.43C463,182.38,456.85,176.21,449.38,176.72Z"/><path d="M413.38,179.72h0c-7.47,1.66-13.59,9.6-13.59,17.65v19.4q13.38-1.58,27.18-2.91V191.34C427,183.29,420.85,178.06,413.38,179.72Z"/><path d="M378.68,183.72c-7.47,1.66-13.58,9.6-13.58,17.65v20q13.32-2,27.17-3.69V195.34C392.27,187.29,386.15,182.06,378.68,183.72Z"/><path d="M344,189.28h0c-7.47,1.66-13.58,9.6-13.58,17.65v20.13q13.28-2.42,27.17-4.56V200.9C357.57,192.85,351.46,187.63,344,189.28Z"/><path d="M309.29,196c-7.48,1.66-13.59,9.6-13.59,17.65V234q13.2-2.94,27.17-5.59v-20.8C322.87,199.6,316.76,194.37,309.29,196Z"/><path d="M899,247V227.75c0-8.05-6.11-16.21-13.58-18.14h0c-7.48-1.94-13.59,3.07-13.59,11.11v18.75Q885.94,243.07,899,247Z"/><path d="M829.57,230V210.22c0-8.05-6.12-16.21-13.59-18.14s-13.58,3.07-13.58,11.12V225Q816.32,227.35,829.57,230Z"/><path d="M864.27,237.6V218.24c0-8.05-6.12-16.22-13.59-18.15s-13.59,3.07-13.59,11.12V231.5Q851.12,234.41,864.27,237.6Z"/><path d="M933,258.53V237.24c0-8.05-5.8-16.18-12.88-18.07s-12.89,3.15-12.89,11.2v19.17C916.25,252.42,924.86,255.42,933,258.53Z"/><path d="M794.87,223.74V203.39c0-8-6.11-16.21-13.59-18.15h0c-7.47-1.93-13.58,3.08-13.58,11.12v23.33Q781.56,221.6,794.87,223.74Z"/><path d="M967,273.74V248c0-8-5.49-16.14-12.2-18h0c-6.7-1.85-12.19,3.23-12.19,11.27v21.07C951.39,266,959.54,269.82,967,273.74Z"/><path d="M616.17,207.67v-22.5c0-8-6.11-14.72-13.58-14.83S589,176.73,589,184.78v22.37Q602.69,207.3,616.17,207.67Z"/><path d="M724.17,214.51v-22.8c0-8.05-6.11-15.27-13.58-16.05S697,180.82,697,188.87V212Q710.77,213.16,724.17,214.51Z"/><path d="M760.17,218.68V198.12c0-8.05-6.11-16.21-13.58-18.15S733,183.05,733,191.09v24.35Q746.82,216.94,760.17,218.68Z"/><path d="M688.17,211.34V189.17c0-8-6.11-14.72-13.58-14.83S661,180.73,661,188.78v20.77Q674.74,210.32,688.17,211.34Z"/><path d="M653.17,209.12v-23c0-8-6.11-14.72-13.58-14.83S626,177.73,626,185.78V208Q639.72,208.44,653.17,209.12Z"/><path d="M987.5,247.47a17.12,17.12,0,0,0-2.53-2.34h0c-5.5-4-10-.69-10,7.36v25.68q6.75,3.93,12.53,8Z"/><path class="cls-6" d="M117.28,269.68c47-51.37,156.12-91.4,366.86-102.42"/><path class="cls-6" d="M987.57,238.64c-64.24-36.83-185.74-64.77-393.25-73.93"/><path class="cls-7" d="M988.73,211.21c-64.46-32.45-186.32-57.17-394.41-65.5"/><path class="cls-8" d="M988.73,210.21c-64.46-32.45-186.32-57.17-394.41-65.5"/><polygon points="1048 232.92 1108 225.2 1108 336.2 1048 343.92 1048 232.92"/><polygon points="1048.1 249.16 1041.2 264.68 1027.26 265.88 1018.36 278.37 1000.05 279.95 991.53 293.47 973.99 297.12 957.13 312.43 927.24 311.81 907.38 326.31 876.73 323.62 856.5 337.09 829.44 331.96 805.34 344.7 776.05 340.82 747.48 356.08 716.07 351.32 693.6 366.05 702.7 390.85 730.17 379.96 765.45 385.44 796.14 371.07 832.29 376.49 856.25 361.76 884.92 365.55 908.26 350.75 935.92 352.63 956.49 332.74 994.12 334.82 1016.21 319.06 1043.11 318.88 1059.5 302.66 1082.25 300.58 1097.86 285.31 1119.53 284.57 1129 261.37 1048.1 249.16"/><polygon class="cls-2" points="1132 269.28 1051.1 257.06 1044.2 272.58 1122.53 292.48 1132 269.28"/><polygon class="cls-2" points="1044.2 272.58 1030.26 273.78 1021.36 286.27 1085.25 308.48 1100.86 293.21 1122.53 292.48 1044.2 272.58"/><polygon class="cls-2" points="1021.36 286.27 1003.05 287.85 994.53 301.38 1046.11 326.78 1062.5 310.56 1085.25 308.48 1021.36 286.27"/><polygon class="cls-3" points="1046.11 326.78 1019.21 326.97 976.99 305.02 994.53 301.38 1046.11 326.78"/><polygon class="cls-2" points="1019.21 326.97 997.12 342.73 960.13 320.33 976.99 305.02 1019.21 326.97"/><polygon class="cls-3" points="997.12 342.73 959.49 340.64 930.24 319.71 960.13 320.33 997.12 342.73"/><polygon class="cls-2" points="930.24 319.71 910.38 334.21 938.92 360.54 959.49 340.64 930.24 319.71"/><polygon class="cls-3" points="910.38 334.21 879.73 331.53 911.26 358.66 938.92 360.54 910.38 334.21"/><polygon class="cls-2" points="879.73 331.53 859.5 345 887.92 373.46 911.26 358.66 879.73 331.53"/><polygon class="cls-3" points="859.5 345 832.44 339.87 858.63 369.59 887.92 373.46 859.5 345"/><polygon class="cls-2" points="832.44 339.87 808.34 352.6 835.29 384.39 859.5 369.51 832.44 339.87"/><polygon class="cls-3" points="808.34 352.6 779.05 348.73 799.14 378.98 835.29 384.39 808.34 352.6"/><polygon class="cls-2" points="779.05 348.73 750.48 363.98 768.45 393.35 799.14 378.98 779.05 348.73"/><polygon class="cls-3" points="750.48 363.98 719.07 359.23 733.17 387.86 768.45 393.35 750.48 363.98"/><polygon class="cls-2" points="719.07 359.23 696.6 373.96 705.7 398.76 733.17 387.86 719.07 359.23"/><polygon class="cls-3" points="1030 274.06 1101 293.06 1123 292.06 1043 273.06 1030 274.06"/><polygon class="cls-3" points="1003 288.06 1062 311.06 1086 308.06 1022 286.06 1003 288.06"/><path d="M995.35,233.8l.08-9.44c0-4,1.82-5.53,4-3.39s3.9,7.16,3.87,11.17l-.06,8.66-3.44-3Z"/><path d="M1026.35,257.8l.08-9.44c0-4,1.82-5.53,4-3.39s3.9,7.16,3.87,11.17l-.06,8.66-3.44-3Z"/><polyline points="953.5 194.56 974.5 195.56 988.5 205.06 988.5 187.56 1037 179.06 1019 172.06 1003.29 178.45 987.14 169.53 964.33 167.05 940.66 155.24 912.37 154.26 885.04 142.32 857.64 144.75 833.96 135.47 809.29 138 782.87 129.47 756.38 132.77 736.94 126.56 713.43 129.54 684.5 121.56 661.5 126.56 634.5 118.56 611.5 123.56 596.5 117.56 592.5 123.56 592.5 140.56 602.5 142.56 624.5 139.56 653.5 144.56 671.5 141.56 699.5 148.56 699.95 147.96 721.17 145.56 741.79 151.54 741.68 151.69 765.43 147.45 790.04 155.91 814.69 154.24 836.55 164.29 861.22 160.08 881.25 170.91 904.06 171.71 920.44 183.26 940.51 184.81 952.97 194.33"/><polygon class="cls-3" points="952.97 190.33 940.51 180.81 987.14 165.53 1003.5 174.56 952.97 190.33"/><polyline class="cls-2" points="940.51 180.81 920.44 179.26 964.33 163.05 987.14 165.53"/><polygon class="cls-3" points="920.44 179.26 904.06 167.71 940.66 151.24 964.33 163.05 920.44 179.26"/><polygon class="cls-2" points="904.06 167.71 881.25 166.91 912.37 150.26 940.66 151.24 904.06 167.71"/><polygon class="cls-3" points="881.25 166.91 861.22 156.08 885.04 138.32 912.37 150.26 881.25 166.91"/><polygon class="cls-2" points="861.22 156.08 836.55 160.29 857.64 140.75 885.04 138.32 861.22 156.08"/><polygon class="cls-3" points="836.55 160.29 814.69 150.24 833.96 131.47 857.64 140.75 836.55 160.29"/><polygon class="cls-2" points="814.69 150.24 790.04 151.91 809.29 134 833.96 131.47 814.69 150.24"/><polygon class="cls-3" points="790.04 151.91 765.43 143.45 782.87 125.47 809.29 134 790.04 151.91"/><polygon class="cls-2" points="765.43 143.45 741.68 147.69 756.38 128.77 782.87 125.47 765.43 143.45"/><polygon class="cls-3" points="741.86 147.56 721.17 141.56 736.94 122.56 756.38 128.77 741.86 147.56"/><polygon class="cls-2" points="721.17 141.56 699 144.06 713.29 125.56 736.94 122.56 721.17 141.56"/><polygon class="cls-3" points="713.5 125.56 684.5 117.56 671.5 137.56 699.5 144.56 713.5 125.56"/><polygon class="cls-2" points="684.5 117.56 661.5 122.56 653.5 140.56 671.5 137.56 684.5 117.56"/><polygon class="cls-3" points="661.5 122.56 634.5 114.56 624.5 135.56 653.5 140.56 661.5 122.56"/><polygon class="cls-2" points="634.5 114.56 611.5 119.56 602.5 138.56 624.5 135.56 634.5 114.56"/><polygon class="cls-3" points="611.5 119.56 596.5 113.56 592.5 119.56 592.5 136.56 602.5 138.56 611.5 119.56"/><polygon class="cls-2" points="953.5 190.56 974.5 191.56 988.5 187.06 988.5 183.56 1026 175.06 1003.91 174.25 953.5 190.56"/><path d="M443,114.55l.16-12.44c.07-4,3.89-5.53,8.51-3.39s8.34,7.17,8.28,11.17l-.14,10.66-7.34-3Z"/><path d="M428,103.55l.11-9.44c0-4,2.52-5.53,5.52-3.39S439,97.89,439,101.89l-.09,9.66-2.58-1.3a25.51,25.51,0,0,1-7.55-5.82Z"/><path class="cls-7" d="M101.6,254.67C163.78,194.43,279.43,151.56,475.11,144"/><path class="cls-8" d="M101.65,253.73C163.9,194.27,273.33,150.63,474,143.06"/><polygon points="467 117.06 436 110.06 405 118.06 379.5 120.56 350.5 129.56 323.5 125.56 297.5 135.56 267.5 131.56 237.5 144.56 206.5 144.56 180.5 157.56 155.5 159.56 131.5 170.56 104.5 173.56 105.21 173.75 83.5 187.56 60.5 190.56 45.5 206.56 46.69 206.74 39.5 206.56 25.5 219.56 37.61 222.87 35.5 219.56 89.5 214.56 108.6 242.29 114 279.06 139 297.06 118.31 238.41 129.5 219.56 46.7 206.75 137.5 220.56 144.5 207.56 158.5 206.56 172.5 191.56 189.5 192.56 206.5 179.56 228.5 178.56 246.5 165.56 271.5 165.56 293.5 153.56 320.5 159.56 344.5 148.56 371.5 151.56 398.5 142.56 424.5 148.56 453.5 140.56 478.5 148.56 483 144.06 467 117.06"/><polygon class="cls-2" points="157.5 201.56 82.5 182.56 104.5 168.56 171.5 186.56 157.5 201.56"/><polygon class="cls-3" points="171.5 186.56 188.5 187.56 130.5 165.56 103.5 168.56 171.5 186.56"/><polygon class="cls-2" points="188.5 187.56 205.5 174.56 154.5 154.56 130.5 165.56 188.5 187.56"/><polyline class="cls-3" points="205.5 174.56 227.5 173.56 179.5 152.56 154.5 154.56"/><polygon class="cls-2" points="227.5 173.56 245.5 160.56 205.5 139.56 179.5 152.56 227.5 173.56"/><polygon class="cls-3" points="245.5 160.56 270.5 160.56 236.5 139.56 205.5 139.56 245.5 160.56"/><polygon class="cls-2" points="270.5 160.56 292.5 148.56 266.5 126.56 236.5 139.56 270.5 160.56"/><polygon class="cls-3" points="292.5 148.56 319.5 154.56 296.5 130.56 266.5 126.56 292.5 148.56"/><polygon class="cls-2" points="319.5 154.56 343.5 143.56 322.5 120.56 296.5 130.56 319.5 154.56"/><polygon class="cls-3" points="343.5 143.56 370.5 146.56 349.5 124.56 322.5 120.56 343.5 143.56"/><polygon class="cls-2" points="370.5 146.56 397.5 137.56 378.5 115.56 349.5 124.56 370.5 146.56"/><polygon class="cls-3" points="397.5 137.56 423.5 143.56 407.5 120.56 378.5 115.56 397.5 137.56"/><polygon class="cls-2" points="423.5 143.56 452.5 135.56 437.5 112.56 407.5 120.56 423.5 143.56"/><polygon class="cls-3" points="452.5 135.56 477.5 143.56 469.66 129.56 463.5 118.56 437.5 112.56 452.5 135.56"/><polygon class="cls-3" points="157.5 201.56 143.5 202.56 59.5 185.56 82.5 182.56 157.5 201.56"/><polygon class="cls-2" points="143.5 202.56 136.5 215.56 44.5 201.56 59.5 185.56 143.5 202.56"/><polygon class="cls-2" points="36.16 218.54 88.35 213.74 106.81 240.36 112.97 242.03 127 218.54 46.98 206.24 40.03 206.06 26.5 218.54 38.2 221.72 36.16 218.54"/><polygon class="cls-2" points="997 187.83 1056.24 236.56 1113.5 227.79 1052.29 179.06 997 187.83"/><path id="Shape" class="cls-9" d="M611,235.06l-9-27-7.93.15,1.93-80-5.31-5.69-60.88-20.44v-.05l-.06,0-.12,0v.09L470,129.67V143.4l1.4,73.66-15.4,1,5,23Z"/><polygon id="Rectangle-Copy-22" class="cls-10" points="590.16 133.21 480.68 137.43 480.68 140.62 590.16 136.41 590.16 133.21"/><polygon id="Rectangle-Copy-30" class="cls-11" points="590.16 134.26 475.62 138.52 475.62 141.72 590.16 137.46 590.16 134.26"/><polygon id="Rectangle-Copy-23" class="cls-11" points="530.88 112.81 590.16 132.85 590.16 136.01 530.88 115.98 530.88 112.81"/><polygon id="Rectangle-Copy-24" class="cls-10" points="530.88 107.56 589.74 127.57 589.74 130.73 530.88 110.72 530.88 107.56"/><polygon id="Rectangle-Copy-25" class="cls-11" points="530.88 112.81 475.62 138.2 475.62 141.37 530.88 115.98 530.88 112.81"/><polygon id="Rectangle-Copy-26" class="cls-10" points="530.88 107.56 475.62 132.63 475.62 135.76 530.88 110.69 530.88 107.56"/><polygon id="Rectangle" class="cls-11" points="550.5 125.56 520.97 123.78 496.29 134.21 570.12 132 550.5 125.56"/><g id="Group-14"><g id="Group-25"><path id="Path" class="cls-12" d="M530,128.78a7.83,7.83,0,0,0,.4-2h0v-.17l.5-.4c.25-.21.52-.31.77-.53a.56.56,0,0,0,.27-.58c0-.15-.14-.23-.16-.36a7.74,7.74,0,0,0-.43-1.91c0-.08-.71-.72-.76-.78a.2.2,0,0,0-.25,0c-.22.1-.39.43-.6.6l0,0a1.8,1.8,0,0,0-1.63-1.15,3,3,0,0,0-1.85.83,2.07,2.07,0,0,0-.48.69,2.8,2.8,0,0,0-1.33.34,1.57,1.57,0,0,0-.68.65,2.23,2.23,0,0,0-1.5.2,1.23,1.23,0,0,0-.52.42,2.48,2.48,0,0,0-1.23-.11,1.23,1.23,0,0,0-.77.41,2.08,2.08,0,0,0-.87-.2,2.88,2.88,0,0,1-.85.22l0,0,0,0a3,3,0,0,1-1.44-.28,1.34,1.34,0,0,0-.95,1,3.87,3.87,0,0,0-.07,1.92l.08.49.07.09a2.57,2.57,0,0,0-.44,1.05l0,.11v.13a2.24,2.24,0,0,0,.94,2.41,2.3,2.3,0,0,0,1.26.18l.2,0a1.16,1.16,0,0,0,.46.33,2.13,2.13,0,0,0,1.29.11l.24-.08a1,1,0,0,0,.63.38,2.36,2.36,0,0,0,1.68-.31,1.07,1.07,0,0,0,.69.29,2.38,2.38,0,0,0,.79-.13,2.73,2.73,0,0,0,.83-.46.92.92,0,0,0,.85.21h0a2.33,2.33,0,0,0,.57-.17,3.4,3.4,0,0,0,1-.67.89.89,0,0,0,.78.14,3.06,3.06,0,0,0,1.14-.63A4.94,4.94,0,0,0,530,128.78Z"/><path id="Path-2" data-name="Path" class="cls-2" d="M518.14,126.94c-.11.21.08.29.1.44.09.43,0,.67-.27.54a4.19,4.19,0,0,1-1.82-1.2c-.14-.65-.07-.8.33-.77a4.45,4.45,0,0,1,1,.34c.25.14.4.55.66.67Z"/><path id="Path-3" data-name="Path" class="cls-3" d="M517,128.35c0-.22.19-.13.29-.13.62,0,1.24.12,1.86.12a16.33,16.33,0,0,0,5.09-.82c.85-.28,1.67-.74,2.52-1.07a.14.14,0,0,0,.1-.14,7.89,7.89,0,0,0,2-1.22c.16-.13.42,0,.49-.45.17.13.3-.1.42-.19l.91-.75a5.46,5.46,0,0,0,.27.6c-.45.38-.91.74-1.37,1.08a17.92,17.92,0,0,1-6.51,3,16.69,16.69,0,0,1-5.42.29,1.92,1.92,0,0,1-.4-.09C517.19,128.55,517,128.65,517,128.35Z"/><path id="Path-4" data-name="Path" class="cls-3" d="M529.68,126.07c.21-.23.15,0,.13.23a4.69,4.69,0,0,1-1.39,3.12,2.32,2.32,0,0,1-.86.56c-.27.1-.4-.15-.32-.64a3.43,3.43,0,0,1,.44-1.33,10.6,10.6,0,0,1,1.88-2.18c.17-.14.11,0,.08.16a.49.49,0,0,0-.17.43Z"/><path id="Path-5" data-name="Path" class="cls-2" d="M529.71,124.47c-.47.13-.93.27-1.39.37a1.15,1.15,0,0,1-1-.15.87.87,0,0,1-.27-.75.92.92,0,0,1,.27-.7,2.48,2.48,0,0,1,1.5-.73c.52-.05,1,.49,1.17,1.45l-.6.1c.38.17.38.17.29.42Z"/><path id="Path-6" data-name="Path" class="cls-3" d="M527.25,127.72a3.75,3.75,0,0,1-1.66,2.73,2.37,2.37,0,0,1-.41.17c-.14,0-.29.13-.36-.15a1.47,1.47,0,0,1,0-.78,3.1,3.1,0,0,1,.45-.87,9.42,9.42,0,0,1,1.61-1.61c.16-.14.26,0,.35.07S527.24,127.58,527.25,127.72Z"/><path id="Path-7" data-name="Path" class="cls-3" d="M525,128.72c-.23,1.26-.74,1.8-1.4,2a1.65,1.65,0,0,1-.54.09c-.29,0-.39-.34-.26-.77a1.49,1.49,0,0,1,.4-.64,5.33,5.33,0,0,1,1.55-1C525,128.33,525.05,128.41,525,128.72Z"/><path id="Path-8" data-name="Path" class="cls-2" d="M526.94,126.06c-.39-.11-.77.08-1.16.08a1.49,1.49,0,0,1-1-.21.71.71,0,0,1-.32-.7.94.94,0,0,1,.38-.86,1.93,1.93,0,0,1,1.53-.33c.45.17.75.62.9,1.54-.3-.29-.71.35-.85-.52-.09.49-.09.49.13.54a3.43,3.43,0,0,0,.34.06c.29,0,.09.25,0,.41Z"/><path id="Path-9" data-name="Path" class="cls-3" d="M520.21,130.57c-.32-.07-.33-.41-.27-.77a1,1,0,0,1,.41-.65,6.8,6.8,0,0,1,1.92-.78.35.35,0,0,1,.36.18c.1.13,0,.31,0,.46A1.87,1.87,0,0,1,520.21,130.57Z"/><path id="Shape-2" data-name="Shape" class="cls-2" d="M525,127.49a6.25,6.25,0,0,1-1.56-.31,1.94,1.94,0,0,1-.73-.46.74.74,0,0,1-.23-.61.33.33,0,0,1,.27-.37,2,2,0,0,1,1.2.05,1.89,1.89,0,0,1,1,1.13c.08.19.26.44-.08.33C524.84,127.23,524.85,127.28,525,127.49Zm-1.94-1c.75.57.75.57,1.28.53a8.35,8.35,0,0,1-1.29-.53Z"/><path id="Shape-3" data-name="Shape" class="cls-2" d="M522.71,127.25c-.43,0-.8-.52-1.22-.38a2.32,2.32,0,0,1,1,.54,3.07,3.07,0,0,1-2.07-.71.8.8,0,0,1-.3-.78c0-.28.21-.44.44-.4a1.84,1.84,0,0,1,1.78.82,2.13,2.13,0,0,1,.33.91Zm-1.36-.65-.54-.23A.44.44,0,0,0,521.35,126.6Z"/><path id="Path-10" data-name="Path" class="cls-3" d="M517.88,129.78a1,1,0,0,1,.24-.48,3.25,3.25,0,0,1,1.67-.81c.13-.05.26.15.14.52a1.75,1.75,0,0,1-1,1.25,1.3,1.3,0,0,1-.87,0C517.9,130.19,517.85,130,517.88,129.78Z"/><path id="Path-11" data-name="Path" class="cls-2" d="M518.13,126.75c-.07-.59.13-.73.48-.69a1.76,1.76,0,0,1,1.41.78,2.94,2.94,0,0,1,.32.67,1.24,1.24,0,0,1,0,.27c-.14-.11-.16.23-.27.11-.47-.48-1-.29-1.5-.68-.18-.14-.29-.39-.47-.47Z"/><path id="Path-12" data-name="Path" class="cls-3" d="M516.07,129.65a1,1,0,0,1,.33-.54,3.57,3.57,0,0,1,1.56-.7c.19,0,.28.19.12.62a1.71,1.71,0,0,1-1,1.13,1.36,1.36,0,0,1-.89,0C516.07,130.11,516,129.94,516.07,129.65Z"/></g><g id="Group-25-Copy"><path id="Path-13" data-name="Path" class="cls-12" d="M531.21,128.41a8.13,8.13,0,0,1-.59-2h0l0-.17q-.27-.16-.54-.36c-.27-.19-.56-.27-.83-.47a.59.59,0,0,1-.33-.57c0-.14.12-.24.13-.38a8.16,8.16,0,0,1,.25-2,9.72,9.72,0,0,1,.7-.86.21.21,0,0,1,.25-.07c.24.09.44.41.67.56l0,0a1.82,1.82,0,0,1,1.54-1.32,3,3,0,0,1,1.95.68,2,2,0,0,1,.56.65,2.92,2.92,0,0,1,1.39.23,1.56,1.56,0,0,1,.74.6,2.26,2.26,0,0,1,1.54.06,1.33,1.33,0,0,1,.57.38,2.56,2.56,0,0,1,1.24-.23,1.26,1.26,0,0,1,.81.35,2.21,2.21,0,0,1,.88-.28,2.61,2.61,0,0,0,.87.15h0l0,0a2.92,2.92,0,0,0,1.43-.42,1.37,1.37,0,0,1,1,.91,3.93,3.93,0,0,1,.26,1.95l0,.5-.06.1a2.69,2.69,0,0,1,.54,1l0,.12,0,.12a2.29,2.29,0,0,1-.72,2.53,2.43,2.43,0,0,1-1.26.31l-.22,0a1.07,1.07,0,0,1-.43.37,2.09,2.09,0,0,1-1.31.23l-.24,0a1.13,1.13,0,0,1-.6.44,2.44,2.44,0,0,1-1.74-.16,1.05,1.05,0,0,1-.67.35,2.46,2.46,0,0,1-.81-.05,3.06,3.06,0,0,1-.89-.39.93.93,0,0,1-.84.28h0a2.4,2.4,0,0,1-.59-.13,3.28,3.28,0,0,1-1-.59.93.93,0,0,1-.78.22,3.24,3.24,0,0,1-1.22-.54A5.14,5.14,0,0,1,531.21,128.41Z"/><path id="Path-14" data-name="Path" class="cls-2" d="M543.37,125.56c.13.2,0,.3-.06.45,0,.44.08.66.32.51a4.16,4.16,0,0,0,1.7-1.36c.08-.66,0-.8-.4-.73a4.32,4.32,0,0,0-1,.42c-.24.17-.35.59-.6.73Z"/><path id="Path-15" data-name="Path" class="cls-3" d="M544.49,126.62c0-.22-.21-.11-.31-.1-.62.11-1.24.26-1.87.32a17,17,0,0,1-5.23-.28c-.89-.19-1.76-.56-2.64-.81a.12.12,0,0,1-.12-.13,7.87,7.87,0,0,1-2.17-1c-.17-.11-.42,0-.53-.4-.16.15-.31-.07-.44-.15l-1-.65c-.06.21-.14.42-.22.63.49.33,1,.65,1.48.93a17.85,17.85,0,0,0,6.86,2.32,17,17,0,0,0,5.51-.28,1.87,1.87,0,0,0,.4-.13C544.33,126.84,544.54,126.92,544.49,126.62Z"/><path id="Path-16" data-name="Path" class="cls-3" d="M531.27,125.68c-.26-.22-.18.06-.14.27a4.67,4.67,0,0,0,1.81,3.16,2.78,2.78,0,0,0,1,.47c.31.06.44-.24.32-.76a3.43,3.43,0,0,0-.6-1.37,10.24,10.24,0,0,0-2.3-2c-.2-.13-.12,0-.08.18a.47.47,0,0,1,.23.44Z"/><path id="Path-17" data-name="Path" class="cls-2" d="M531.44,123.94c.48.09.95.19,1.42.25a1.14,1.14,0,0,0,1-.24.84.84,0,0,0,.2-.77.93.93,0,0,0-.34-.68,2.42,2.42,0,0,0-1.56-.58c-.52,0-.9.57-1,1.55l.61,0c-.36.2-.36.2-.25.45Z"/><path id="Path-18" data-name="Path" class="cls-3" d="M534,127a3.22,3.22,0,0,0,2,2.47,1.58,1.58,0,0,0,.47.1c.15,0,.33.08.39-.23a1.35,1.35,0,0,0-.07-.8,2.64,2.64,0,0,0-.55-.8,8.52,8.52,0,0,0-1.89-1.34c-.18-.11-.28,0-.38.15S534,126.88,534,127Z"/><path id="Path-19" data-name="Path" class="cls-3" d="M536.3,127.94c.32,1.25.92,1.7,1.66,1.8a2.15,2.15,0,0,0,.62,0c.32-.06.42-.43.25-.85a1.28,1.28,0,0,0-.48-.58,5.11,5.11,0,0,0-1.79-.7C536.31,127.53,536.2,127.62,536.3,127.94Z"/><path id="Path-20" data-name="Path" class="cls-2" d="M534.31,125.05c.37-.15.78,0,1.16,0a1.47,1.47,0,0,0,1-.29.73.73,0,0,0,.25-.73.92.92,0,0,0-.46-.82,1.92,1.92,0,0,0-1.55-.2c-.43.21-.69.69-.76,1.62.27-.32.75.29.8-.59.13.47.14.48-.07.55l-.34.08c-.28.07-.06.26,0,.41Z"/><path id="Path-21" data-name="Path" class="cls-3" d="M541.32,129.19c.31-.1.29-.44.2-.79a.92.92,0,0,0-.47-.6,6.65,6.65,0,0,0-2-.61c-.12,0-.25.06-.33.21s0,.31.07.45A1.87,1.87,0,0,0,541.32,129.19Z"/><path id="Shape-4" data-name="Shape" class="cls-2" d="M536.34,126.41a6.34,6.34,0,0,0,1.53-.45,1.91,1.91,0,0,0,.68-.52.75.75,0,0,0,.17-.63.34.34,0,0,0-.3-.35,2,2,0,0,0-1.19.17,1.81,1.81,0,0,0-.91,1.21c-.06.19-.23.46.1.33C536.47,126.14,536.47,126.19,536.34,126.41Zm1.84-1.2c-.7.63-.7.63-1.23.64.47-.1.79-.46,1.24-.64Z"/><path id="Shape-5" data-name="Shape" class="cls-2" d="M538.85,126.06c.43-.07.75-.59,1.19-.49a2.38,2.38,0,0,0-1,.63,3,3,0,0,0,2-.89.83.83,0,0,0,.23-.81.4.4,0,0,0-.48-.35,1.84,1.84,0,0,0-1.7,1,2.39,2.39,0,0,0-.25.94Zm1.3-.77.52-.27A.43.43,0,0,1,540.15,125.29Z"/><path id="Path-22" data-name="Path" class="cls-3" d="M543.94,128a.88.88,0,0,0-.29-.44,3.31,3.31,0,0,0-1.91-.5c-.16,0-.28.21-.13.57a1.57,1.57,0,0,0,1.2,1.09,1.74,1.74,0,0,0,1-.2C543.94,128.43,544,128.25,543.94,128Z"/><path id="Path-23" data-name="Path" class="cls-2" d="M543.11,125.28c0-.59-.21-.7-.55-.64a1.76,1.76,0,0,0-1.33.91,2.88,2.88,0,0,0-.26.69,1.22,1.22,0,0,0,0,.27c.12-.12.18.21.28.09.42-.52,1-.38,1.43-.81.16-.15.25-.42.42-.52Z"/><path id="Path-24" data-name="Path" class="cls-3" d="M545.73,127.8a.78.78,0,0,0-.4-.49,3.67,3.67,0,0,0-1.78-.4c-.21,0-.3.25-.1.66a1.57,1.57,0,0,0,1.15,1,1.72,1.72,0,0,0,1-.2C545.76,128.27,545.79,128.1,545.73,127.8Z"/></g></g><polygon class="cls-3" points="575 160.06 479 164.06 479 144.06 575 140.06 575 160.06"/><path class="cls-2" d="M545,179.45V157c0-8-6.26-14.72-13.9-14.83s-13.91,6.39-13.91,14.44v22.37Q531.21,179.08,545,179.45Z"/><path class="cls-2" d="M574,173.5V158.17c0-5.49-4.17-10-9.26-10.11s-9.26,4.36-9.26,9.84v15.25Q564.85,173.26,574,173.5Z"/><path class="cls-2" d="M508,173.5V158.17c0-5.49-4.17-10-9.26-10.11s-9.26,4.36-9.26,9.84v15.25Q498.85,173.26,508,173.5Z"/><path d="M543,180.45V158c0-8-6.26-14.72-13.9-14.83s-13.91,6.39-13.91,14.44v22.37Q529.21,180.08,543,180.45Z"/><path d="M572,174.5V159.17c0-5.49-4.17-10-9.26-10.11s-9.26,4.36-9.26,9.84v15.25Q562.85,174.26,572,174.5Z"/><path d="M506,174.5V159.17c0-5.49-4.17-10-9.26-10.11s-9.26,4.36-9.26,9.84v15.25Q496.85,174.26,506,174.5Z"/><g id="Column1"><g id="Group-3"><path id="Path-25" data-name="Path" d="M478.67,160v-.32h8.95V160c.32,10,.45,15.53.58,23.12.15,8.92.28,22.59.36,39.72v.49l-.33.12a21.63,21.63,0,0,1-5.07,1.3h-.06a21.63,21.63,0,0,1-5.07-1.3l-.33-.12v-.49c.08-17.13.22-30.8.37-39.72C478.22,175.56,478.35,170.06,478.67,160Z"/><path id="Path-26" data-name="Path" class="cls-3" d="M487.67,220.33a10.5,10.5,0,0,1-4.67,1,10.7,10.7,0,0,1-4.37-.86c0-16,.09-28.82.2-37.33.09-7.5.2-12.89.47-22.79q4.08.69,5.26,1.68c2.15,1.81,2.5,5.12,2.62,9.58.31,11.49.2,4,.3,11.53C487.55,188.7,487.61,200.28,487.67,220.33Z"/><path id="Rectangle-2" data-name="Rectangle" class="cls-10" d="M481.78,218.31h0c-1.56,0-2.8-1.57-2.77-3.48l.69-46.48a2.11,2.11,0,0,1,2.15-2h0a2.09,2.09,0,0,1,2.14,2l.56,46.48C484.57,216.74,483.33,218.31,481.78,218.31Z"/><path id="Path-27" data-name="Path" class="cls-11" d="M488.32,221.23a5.44,5.44,0,0,1,1.53,2c1,2.18-3,3.65-6.85,3.65s-7.84-1.47-6.85-3.65a5.47,5.47,0,0,1,1.54-2,11.67,11.67,0,0,0,10.63,0Z"/><path id="Path-28" data-name="Path" class="cls-9" d="M483,225.55c-3.44,0-7-1.88-6.25-3.47.5,1.15,3.42,2.25,6.25,2.25s5.75-1.1,6.25-2.25C490,223.67,486.44,225.55,483,225.55Z"/><path id="Path-29" data-name="Path" class="cls-10" d="M483,226c-2.46,0-5.5-1.32-6.28-3.05.51,1.16,3.44,2.26,6.28,2.26s5.77-1.1,6.28-2.26C488.8,224.67,485.46,226,483,226Z"/><path id="Path-30" data-name="Path" class="cls-10" d="M488.33,221.9c-.48,1.08-2.95,1.76-5.33,1.76s-4.85-.68-5.33-1.76a2.15,2.15,0,0,1,0-1.23c.47,1.08,2.93,1.76,5.31,1.76s4.84-.68,5.31-1.76A2.07,2.07,0,0,1,488.33,221.9Z"/><path id="Path-Copy" class="cls-13" d="M486.53,160.29a2.49,2.49,0,0,1,1,.77c.61.84-1.91,1.41-4.33,1.41s-4.93-.57-4.33-1.41a2.53,2.53,0,0,1,1-.77,11.64,11.64,0,0,0,6.75,0Z"/><path id="Path-Copy-2" class="cls-13" d="M487,159.06a3,3,0,0,1,1.09.88c.69.95-2.18,1.6-4.93,1.6s-5.62-.65-4.93-1.6a3,3,0,0,1,1.09-.88,13.22,13.22,0,0,0,7.68,0Z"/></g></g><g id="Column1-2" data-name="Column1"><g id="Group-3-2" data-name="Group-3"><path id="Path-31" data-name="Path" d="M505.87,160v-.32h9.58V160c.34,10,.48,15.53.62,23.12.16,8.92.31,22.59.39,39.72v.49l-.35.12a24.58,24.58,0,0,1-5.43,1.3h-.06a24.39,24.39,0,0,1-5.42-1.3l-.36-.12v-.49c.09-17.13.23-30.8.39-39.72C505.39,175.56,505.53,170.06,505.87,160Z"/><path id="Path-32" data-name="Path" class="cls-3" d="M515.51,220.33a11.92,11.92,0,0,1-5,1,12.09,12.09,0,0,1-4.67-.86c0-16,.09-28.82.21-37.33.1-7.5.21-12.89.5-22.79q4.36.69,5.63,1.68c2.3,1.81,2.68,5.12,2.8,9.58.33,11.49.22,4,.32,11.53C515.38,188.7,515.44,200.28,515.51,220.33Z"/><path id="Rectangle-3" data-name="Rectangle" class="cls-10" d="M509.2,218.31h0a3.22,3.22,0,0,1-3-3.48l.74-46.48a2.2,2.2,0,0,1,2.3-2h0a2.18,2.18,0,0,1,2.29,2l.6,46.48A3.23,3.23,0,0,1,509.2,218.31Z"/><path id="Path-33" data-name="Path" class="cls-11" d="M516.2,221.23a5.53,5.53,0,0,1,1.64,2c1.06,2.18-3.22,3.65-7.33,3.65s-8.39-1.47-7.33-3.65a5.46,5.46,0,0,1,1.65-2,13.26,13.26,0,0,0,11.37,0Z"/><path id="Path-34" data-name="Path" class="cls-9" d="M510.51,225.55c-3.68,0-7.48-1.88-6.69-3.47.54,1.15,3.66,2.25,6.69,2.25s6.15-1.1,6.69-2.25C518,223.67,514.19,225.55,510.51,225.55Z"/><path id="Path-35" data-name="Path" class="cls-10" d="M510.51,226c-2.63,0-5.88-1.32-6.72-3.05.54,1.16,3.68,2.26,6.72,2.26s6.18-1.1,6.72-2.26C516.72,224.67,513.14,226,510.51,226Z"/><path id="Path-36" data-name="Path" class="cls-10" d="M516.22,221.9c-.52,1.08-3.16,1.76-5.71,1.76s-5.19-.68-5.7-1.76a1.92,1.92,0,0,1,0-1.23c.5,1.08,3.14,1.76,5.68,1.76s5.18-.68,5.68-1.76A2,2,0,0,1,516.22,221.9Z"/><path id="Path-Copy-2-2" data-name="Path-Copy" class="cls-13" d="M514.28,160.29a2.65,2.65,0,0,1,1,.77c.64.84-2,1.41-4.64,1.41s-5.28-.57-4.63-1.41a2.69,2.69,0,0,1,1-.77,13.28,13.28,0,0,0,7.22,0Z"/><path id="Path-Copy-2-3" data-name="Path-Copy-2" class="cls-13" d="M514.78,159.06a3.13,3.13,0,0,1,1.17.88c.74.95-2.33,1.6-5.28,1.6s-6-.65-5.27-1.6a3.05,3.05,0,0,1,1.17-.88,15.07,15.07,0,0,0,8.21,0Z"/></g></g><g id="Column1-3" data-name="Column1"><g id="Group-3-3" data-name="Group-3"><path id="Path-37" data-name="Path" d="M543.05,159v-.32h10.23V159c.37,10,.51,15.53.66,23.12.17,8.92.33,22.59.42,39.72v.49l-.38.12a27.59,27.59,0,0,1-5.79,1.3h-.07a27.59,27.59,0,0,1-5.79-1.3l-.38-.12v-.49c.09-17.13.24-30.8.42-39.72C542.53,174.56,542.68,169.06,543.05,159Z"/><path id="Path-38" data-name="Path" class="cls-3" d="M553.34,219.33a13.45,13.45,0,0,1-5.34,1,13.72,13.72,0,0,1-5-.86c0-16,.1-28.82.22-37.33.11-7.5.23-12.89.54-22.79q4.66.69,6,1.68c2.46,1.81,2.86,5.12,3,9.58.35,11.49.23,4,.34,11.53C553.2,187.7,553.27,199.28,553.34,219.33Z"/><path id="Rectangle-4" data-name="Rectangle" class="cls-10" d="M546.6,217.31h0a3.3,3.3,0,0,1-3.16-3.48l.79-46.48a2.29,2.29,0,0,1,2.46-2h0a2.27,2.27,0,0,1,2.44,2l.64,46.48A3.3,3.3,0,0,1,546.6,217.31Z"/><path id="Path-39" data-name="Path" class="cls-11" d="M554.07,220.23a5.58,5.58,0,0,1,1.76,2c1.13,2.18-3.44,3.65-7.83,3.65s-9-1.47-7.82-3.65a5.55,5.55,0,0,1,1.75-2,15,15,0,0,0,12.14,0Z"/><path id="Path-40" data-name="Path" class="cls-9" d="M548,224.55c-3.93,0-8-1.88-7.14-3.47.57,1.15,3.91,2.25,7.14,2.25s6.57-1.1,7.15-2.25C556,222.67,551.93,224.55,548,224.55Z"/><path id="Path-41" data-name="Path" class="cls-10" d="M548,225c-2.81,0-6.28-1.32-7.17-3.05.57,1.16,3.92,2.26,7.17,2.26s6.6-1.1,7.17-2.26C554.63,223.67,550.81,225,548,225Z"/><path id="Path-42" data-name="Path" class="cls-10" d="M554.1,220.9c-.56,1.08-3.38,1.76-6.1,1.76s-5.54-.68-6.09-1.76a1.86,1.86,0,0,1,0-1.23c.53,1.08,3.34,1.76,6.06,1.76s5.53-.68,6.07-1.76A1.86,1.86,0,0,1,554.1,220.9Z"/><path id="Path-Copy-3" data-name="Path-Copy" class="cls-13" d="M552,159.29a2.75,2.75,0,0,1,1.09.77c.69.84-2.19,1.41-5,1.41s-5.64-.57-4.95-1.41a2.86,2.86,0,0,1,1.1-.77,15.11,15.11,0,0,0,7.71,0Z"/><path id="Path-Copy-2-4" data-name="Path-Copy-2" class="cls-13" d="M552.56,158.06a3.39,3.39,0,0,1,1.25.88c.79.95-2.49,1.6-5.64,1.6s-6.42-.65-5.63-1.6a3.23,3.23,0,0,1,1.25-.88,17.15,17.15,0,0,0,8.77,0Z"/></g></g><g id="Column1-4" data-name="Column1"><g id="Group-3-4" data-name="Group-3"><path id="Path-43" data-name="Path" d="M571.68,157v-.32h8.94V157c.32,10,.45,15.53.58,23.12.15,8.92.28,22.59.36,39.72v.49l-.33.12a21.45,21.45,0,0,1-5.06,1.3h-.06a21.69,21.69,0,0,1-5.06-1.3l-.33-.12v-.49c.08-17.13.21-30.8.36-39.72C571.23,172.56,571.36,167.06,571.68,157Z"/><path id="Path-44" data-name="Path" class="cls-3" d="M580.67,217.33a10.43,10.43,0,0,1-4.66,1,10.65,10.65,0,0,1-4.36-.86c0-16,.09-28.82.19-37.33.1-7.5.2-12.89.48-22.79q4.06.69,5.25,1.68c2.15,1.81,2.5,5.12,2.62,9.58.3,11.49.19,4,.29,11.53C580.55,185.7,580.61,197.28,580.67,217.33Z"/><path id="Rectangle-5" data-name="Rectangle" class="cls-10" d="M574.79,215.31h0c-1.55,0-2.79-1.57-2.76-3.48l.69-46.48a2.11,2.11,0,0,1,2.14-2h0a2.09,2.09,0,0,1,2.14,2l.56,46.48C577.58,213.74,576.34,215.31,574.79,215.31Z"/><path id="Path-45" data-name="Path" class="cls-11" d="M581.32,218.23a5.44,5.44,0,0,1,1.53,2c1,2.18-3,3.65-6.84,3.65s-7.83-1.47-6.84-3.65a5.47,5.47,0,0,1,1.54-2,11.63,11.63,0,0,0,10.61,0Z"/><path id="Path-46" data-name="Path" class="cls-9" d="M576,222.55c-3.43,0-7-1.88-6.24-3.47.5,1.15,3.41,2.25,6.24,2.25s5.74-1.1,6.24-2.25C583,220.67,579.44,222.55,576,222.55Z"/><path id="Path-47" data-name="Path" class="cls-10" d="M576,223c-2.46,0-5.49-1.32-6.27-3.05.5,1.16,3.43,2.26,6.27,2.26s5.77-1.1,6.27-2.26C581.81,221.67,578.46,223,576,223Z"/><path id="Path-48" data-name="Path" class="cls-10" d="M581.34,218.9c-.49,1.08-3,1.76-5.33,1.76s-4.84-.68-5.32-1.76a2.07,2.07,0,0,1,0-1.23c.47,1.08,2.93,1.76,5.3,1.76s4.84-.68,5.3-1.76A2.15,2.15,0,0,1,581.34,218.9Z"/><path id="Path-Copy-4" data-name="Path-Copy" class="cls-13" d="M579.53,157.29a2.53,2.53,0,0,1,1,.77c.6.84-1.92,1.41-4.33,1.41s-4.93-.57-4.32-1.41a2.49,2.49,0,0,1,.95-.77,11.61,11.61,0,0,0,6.74,0Z"/><path id="Path-Copy-2-5" data-name="Path-Copy-2" class="cls-13" d="M580,156.06a2.82,2.82,0,0,1,1.09.88c.69.95-2.17,1.6-4.92,1.6s-5.61-.65-4.92-1.6a3,3,0,0,1,1.09-.88,13.15,13.15,0,0,0,7.66,0Z"/></g></g><polygon class="cls-14" points="88.5 209.56 21.5 220.56 49.5 264.56 119.5 254.56 88.5 209.56"/><polygon class="cls-3" points="21.5 308.56 21.5 220.56 49.5 264.56 48.5 348.56 21.5 308.56"/><polygon points="121.5 254.56 121.5 258.56 124.5 259.56 124.5 288.56 56 303.06 48.5 336.06 48.5 272.56 50 268.06 51.5 264.56 121.5 254.56"/><path class="cls-15" d="M604.39,70.06c0-16.45-40.52-29.79-90.5-29.79s-90.5,13.34-90.5,29.79c0,11.27,19,21.07,47,26.13v8.37l120-1V89.62C605.88,84.27,604.39,78,604.39,70.06Z"/><ellipse class="cls-15" cx="513.89" cy="64.31" rx="80.5" ry="27.75"/><path d="M526.67,37.15c-15.88,0-30.2,2.17-40.42,5.65A146.91,146.91,0,0,1,518,39.56c31,0,56.2,8.28,56.2,18.5,0,5-6,9.52-15.78,12.85,14.76-3.34,24.44-8.93,24.44-15.26C582.86,45.43,557.7,37.15,526.67,37.15Z"/><path d="M525.8,39.06c-18.38,0-35,2.43-46.8,6.34a175.38,175.38,0,0,1,36.76-3.63c35.94,0,65.07,9.29,65.07,20.74,0,5.59-7,10.67-18.27,14.4,17.09-3.74,28.3-10,28.3-17.11C590.86,48.35,561.73,39.06,525.8,39.06Z"/><path d="M521.19,43.15c-23.64,0-45,3.21-60.19,8.37a220.07,220.07,0,0,1,47.28-4.8C554.5,46.72,592,59,592,74.12c0,7.4-9,14.1-23.49,19,22-4.94,36.39-13.22,36.39-22.61C604.86,55.41,567.4,43.15,521.19,43.15Z"/><ellipse class="cls-15" cx="513.89" cy="54.17" rx="63.1" ry="22.11"/><path d="M515.67,31.15c-15.88,0-30.2,2.17-40.42,5.65A146.91,146.91,0,0,1,507,33.56c31,0,56.2,8.28,56.2,18.5,0,5-6,9.52-15.78,12.85,14.76-3.34,24.44-8.93,24.44-15.26C571.86,39.43,546.7,31.15,515.67,31.15Z"/><ellipse class="cls-15" cx="514" cy="49.06" rx="56.2" ry="18.5"/><path d="M515.67,30.15c-15.88,0-30.2,2.17-40.42,5.65A146.91,146.91,0,0,1,507,32.56c31,0,56.2,8.28,56.2,18.5,0,5-6,9.52-15.78,12.85,14.76-3.34,24.44-8.93,24.44-15.26C571.86,38.43,546.7,30.15,515.67,30.15Z"/><path d="M518.15,87.06c-19.7,0-37.47-3.14-50.15-8.19a157,157,0,0,0,39.39,4.69c38.51,0,69.72-12,69.72-26.8,0-7.23-7.46-13.79-19.57-18.61,18.31,4.83,30.32,12.93,30.32,22.11C587.86,75.06,556.65,87.06,518.15,87.06Z"/><path d="M516.91,68.06c-15.28,0-29.07-2-38.91-5.19a148.34,148.34,0,0,0,30.56,3c29.88,0,54.1-7.6,54.1-17,0-4.59-5.79-8.74-15.19-11.8,14.21,3.06,23.53,8.2,23.53,14C571,60.46,546.78,68.06,516.91,68.06Z"/><path d="M519.51,78.06c-17.09,0-32.51-2.5-43.51-6.53a147.71,147.71,0,0,0,34.18,3.74c33.41,0,60.49-9.57,60.49-21.37,0-5.77-6.47-11-17-14.84C569.57,42.91,580,49.37,580,56.69,580,68.49,552.92,78.06,519.51,78.06Z"/><path class="cls-3" d="M417,401.47v53.41c29.13,6.18,48.61,6.18,71,6.18V402.29a301.69,301.69,0,0,0-35.5-9.23S432.47,396.08,417,401.47Z"/><path class="cls-3" d="M351,398.85v49.48c24.21,5.73,40.39,5.73,59,5.73V399.61a230.45,230.45,0,0,0-29.5-8.55S363.85,393.86,351,398.85Z"/><path class="cls-3" d="M289.69,386.85l-.33,47.37c22.68,7.27,34.87,8.47,52.34,9.84l3.36-49.3c-14.74-6.67-27.63-13.18-27.63-13.18S301.79,383,289.69,386.85Z"/><path class="cls-3" d="M226,375.51l-.33,44.34c22.68,6.8,34.87,7.92,52.34,9.21l3.36-46.14c-14.74-6.24-27.63-12.34-27.63-12.34S238.1,371.94,226,375.51Z"/><path class="cls-3" d="M160,366.51l-.33,44.34c22.68,6.8,34.87,7.92,52.34,9.21l3.36-46.14c-14.74-6.24-27.63-12.34-27.63-12.34S172.1,362.94,160,366.51Z"/><path class="cls-3" d="M104.31,348.87,104,392.92c19.76,8.24,30.38,10.14,45.59,12.56l2.95-45.65c-12.84-7.16-24.06-14.06-24.06-14.06S114.85,346.1,104.31,348.87Z"/><path class="cls-3" d="M54,332.85l-.28,43.74c17.63,8.18,27.1,10.07,40.68,12.47L97,343.73c-11.46-7.11-21.47-14-21.47-14S63.37,330.1,54,332.85Z"/><path class="cls-3" d="M532.54,397.06s-20.57,3.42-36.46,9.52v53.26q36.75.35,72.92,1.22V407.51A286.57,286.57,0,0,0,532.54,397.06Z"/><path class="cls-2" d="M417,415.47v53.41c29.13,6.18,48.61,6.18,71,6.18V416.29a301.69,301.69,0,0,0-35.5-9.23S432.47,410.08,417,415.47Z"/><path class="cls-2" d="M351,412.85v49.48c24.21,5.73,40.39,5.73,59,5.73V413.61a230.45,230.45,0,0,0-29.5-8.55S363.85,407.86,351,412.85Z"/><path class="cls-2" d="M289.69,400.85l-.33,47.37c22.68,7.27,34.87,8.47,52.34,9.84l3.36-49.3c-14.74-6.67-27.63-13.18-27.63-13.18S301.79,397,289.69,400.85Z"/><path class="cls-2" d="M226,389.51l-.33,44.34c22.68,6.8,34.87,7.92,52.34,9.21l3.36-46.14c-14.74-6.24-27.63-12.34-27.63-12.34S238.1,385.94,226,389.51Z"/><path class="cls-2" d="M160,380.51l-.33,44.34c22.68,6.8,34.87,7.92,52.34,9.21l3.36-46.14c-14.74-6.24-27.63-12.34-27.63-12.34S172.1,376.94,160,380.51Z"/><path class="cls-2" d="M104.31,362.87,104,406.92c19.76,8.24,30.38,10.14,45.59,12.56l2.95-45.65c-12.84-7.16-24.06-14.06-24.06-14.06S114.85,360.1,104.31,362.87Z"/><path class="cls-2" d="M54,346.85l-.28,26.74c17.63,8.18,27.1,10.07,40.68,12.47L97,357.73c-11.46-7.11-21.47-14-21.47-14S63.37,344.1,54,346.85Z"/><path class="cls-2" d="M532.54,411.06s-20.57,3.42-36.46,9.52v53.26q36.75.35,72.92,1.22V421.51A286.57,286.57,0,0,0,532.54,411.06Z"/><path class="cls-2" d="M28,321.65v35.13c6.47,3.65,12.36,6.36,19.33,9.49L50,341.57c-11.44-10.23-21.43-19.8-21.43-19.8Z"/><path class="cls-3" d="M835.29,396.16l.68,51.5c-22.94,7.93-38.32,9.25-56,10.76l-.74-56.67a218.19,218.19,0,0,1,27.92-11.3S823,392,835.29,396.16Z"/><path class="cls-3" d="M887.39,389.18l.63,47.71c-19,7.16-31.84,8.25-46.53,9.51l-.7-52.5A169.15,169.15,0,0,1,864,383.66S877.17,385.24,887.39,389.18Z"/><path class="cls-3" d="M935.66,373.47l.86,45.65c-17.82,8.54-27.43,10.52-41.21,13L892,384.84c11.56-7.43,21.66-14.58,21.66-14.58S926.06,370.6,935.66,373.47Z"/><path class="cls-3" d="M985.82,358.23l.83,42.73c-17.83,8.09-27.44,10-41.22,12.42l-3.25-44.27c11.57-7,21.67-13.76,21.67-13.76S976.22,355.6,985.82,358.23Z"/><path class="cls-3" d="M1037.84,345.1l.83,42.72c-17.83,8.1-27.45,10-41.23,12.42L994.2,356c11.57-7,21.67-13.76,21.67-13.76S1028.24,342.46,1037.84,345.1Z"/><path class="cls-3" d="M1081.61,324.32l.8,42.45c-15.5,9.28-23.86,11.84-35.85,15.19l-2.91-43.81c10-7.78,18.83-15.18,18.83-15.18S1073.25,322.36,1081.61,324.32Z"/><path class="cls-3" d="M1121.17,305.47l.77,42.16c-13.82,9.08-21.28,11.55-32,14.78l-2.66-43.54c9-7.63,16.79-14.91,16.79-14.91S1113.7,303.46,1121.17,305.47Z"/><path class="cls-3" d="M744,399.72s16.29,1.9,28.92,6.71l.68,51.36q-29,2.81-57.59,6.1l-.68-51.64A210.08,210.08,0,0,1,744,399.72Z"/><path class="cls-3" d="M1141.36,279.42l.7,53.16A179.93,179.93,0,0,1,1126.91,343l-2.64-42.92c8.9-10.63,16.67-20.54,16.67-20.54Z"/><path class="cls-2" d="M835.29,409.16l.68,51.5c-22.94,7.93-38.32,9.25-56,10.76l-.74-56.67a218.19,218.19,0,0,1,27.92-11.3S823,405,835.29,409.16Z"/><path class="cls-2" d="M887.39,402.18l.63,47.71c-19,7.16-31.84,8.25-46.53,9.51l-.7-52.5A169.15,169.15,0,0,1,864,396.66S877.17,398.24,887.39,402.18Z"/><path class="cls-2" d="M935.66,386.47l.86,45.65c-17.82,8.54-27.43,10.52-41.21,13L892,397.84c11.56-7.43,21.66-14.58,21.66-14.58S926.06,383.6,935.66,386.47Z"/><path class="cls-2" d="M985.82,371.23l.83,42.73c-17.83,8.09-27.44,10-41.22,12.42l-3.25-44.27c11.57-7,21.67-13.76,21.67-13.76S976.22,368.6,985.82,371.23Z"/><path class="cls-2" d="M1037.84,358.1l.83,42.72c-17.83,8.1-27.45,10-41.23,12.42L994.2,369c11.57-7,21.67-13.76,21.67-13.76S1028.24,355.46,1037.84,358.1Z"/><path class="cls-2" d="M1081.61,337.32l.8,42.45c-15.5,9.28-23.86,11.84-35.85,15.19l-2.91-43.81c10-7.78,18.83-15.18,18.83-15.18S1073.25,335.36,1081.61,337.32Z"/><path class="cls-2" d="M1121.17,318.47l.77,27.16c-13.82,9.08-21.28,11.55-32,14.78l-2.66-28.54c9-7.63,16.79-14.91,16.79-14.91S1113.7,316.46,1121.17,318.47Z"/><path class="cls-2" d="M744,412.72s16.29,1.9,28.92,6.71l.68,51.36q-29,2.81-57.59,6.1l-.68-51.64A210.08,210.08,0,0,1,744,412.72Z"/><path class="cls-2" d="M1141.36,292.42l.7,33.16A179.93,179.93,0,0,1,1126.91,336l-2.64-22.92c8.9-10.63,16.67-20.54,16.67-20.54Z"/><path d="M716.76,492.06c263.54-36.13,372.85-103.39,425.86-160.92l2.38-45.08c-9,79.36-372,209-425,127l-9-11Z"/><path d="M554,398.06l-1,15c-113,85-520.33-31.58-533-113l4,61.36C92,416.32,225.13,483,559,497.06l20-15,49-83Z"/><polygon points="703.07 351.22 674.79 339.33 647.76 346.13 651.01 361.98 591.56 365.38 591.56 348.39 559.13 337.06 528 351.79 528 472.06 723 472.06 721 401.07 703.07 351.22"/><polygon class="cls-2" points="539.07 358.59 561.22 346.13 563.33 378.98 539.07 400.5 539.07 358.59"/><polygon class="cls-3" points="561.22 346.13 584.42 357.45 584.42 374.44 563.33 378.98 561.22 346.13"/><polygon class="cls-3" points="539.07 400.5 708.87 394.84 681.45 375.58 564.91 378.98 539.07 400.5"/><polygon class="cls-2" points="565.44 378.98 584.42 374.44 658.25 371.05 681.45 375.58 565.44 378.98"/><polygon class="cls-2" points="658.25 371.05 655.09 355.19 674.07 348.39 681.45 375.58 658.25 371.05"/><polygon class="cls-3" points="674.07 348.39 696.22 356.32 708.87 394.84 681.45 375.58 674.07 348.39"/><polygon class="cls-2" points="709 470.08 539.86 476.06 539.16 406.97 708.3 400.98 709 470.08"/><polygon id="Path-49" data-name="Path" class="cls-10" points="472 230.21 472 232.51 604 228.44 599.91 226.06 472 230.21"/><polygon id="Path-50" data-name="Path" class="cls-10" points="987.01 288.06 989.31 288.17 990.07 189.78 987.54 189.8 987.01 288.06"/><polygon id="Path-51" data-name="Path" class="cls-11" points="467 235.21 467 237.51 609 233.44 604.6 231.06 467 235.21"/><polygon points="659.74 307.98 654.73 307.98 661.14 306.23 664.46 304.04 668.14 297.47 665.64 297.47 668.36 294.84 664.75 293.08 755.64 233.09 758.96 230.9 767.95 228.27 781 222.14 775.4 221.7 778.13 219.07 755.57 219.06 750.34 221.69 742.16 222.12 737.29 227.82 737.66 230.89 734.34 233.08 634.69 275.98 631.45 277.3 628.2 278.61 623.19 278.61 620.54 280.36 619.21 281.23 614.2 281.23 608.89 284.74 607.41 287.36 603.43 289.99 602.11 290.87 601.44 291.31 580.14 291.29 582.2 321.09 656.12 321.13 659.74 307.98"/><polygon class="cls-16" points="630.49 286.82 625.72 286.82 629.3 282.59 629.3 277.3 623.34 261.43 620.95 261.43 619.76 255.09 613.79 250.85 613.79 105.92 613.79 100.63 618.56 94.28 622.14 79.47 616.18 78.41 614.99 72.06 593.51 72.06 592.32 78.41 585.16 79.47 588.74 93.22 593.51 100.63 593.51 105.92 592.32 249.8 591.13 252.97 589.94 256.14 585.16 256.14 585.16 260.38 585.16 262.49 580.39 262.49 580.39 270.95 582.78 277.3 582.78 283.65 582.78 285.77 582.78 286.82 562.5 286.82 575.62 318.56 646 318.56 630.49 286.82"/><polygon class="cls-3" points="603.79 78.94 599.17 80 601.95 94.81 605.64 101.16 605.64 106.44 605.64 251.38 601.02 255.62 600.09 261.96 598.24 261.96 591.45 261.96 591.61 261.43 589.46 261.43 590.38 255.09 595.01 250.85 595.01 105.92 595.01 100.63 591.3 94.28 588.53 79.47 593.16 78.41 594.08 72.06 610.73 72.06 610.81 72.59 604.72 72.59 603.79 78.94"/><rect class="cls-3" x="591.72" y="284.18" width="35.79" height="21.16"/><polygon class="cls-2" points="588.63 303.22 582.53 296.09 582.89 277.02 588.99 284.15 588.63 303.22"/><polygon id="Rectangle-Copy-24-2" data-name="Rectangle-Copy-24" class="cls-10" points="629.9 277.83 590.42 278.13 590.42 281.48 629.9 281.18 629.9 277.83"/><polygon id="Rectangle-Copy-24-3" data-name="Rectangle-Copy-24" class="cls-10" points="589.61 276.24 579.6 263.02 579.71 267.67 589.72 280.89 589.61 276.24"/><polygon id="Rectangle-Copy-24-4" data-name="Rectangle-Copy-24" class="cls-10" points="577.46 313.5 564.29 285.24 568.92 285.54 582.08 313.8 577.46 313.5"/><path id="Path-52" data-name="Path" class="cls-11" d="M619.48,258.88a12,12,0,0,1,4,4.08c2.61,4.45-7.93,7.47-18.09,7.47s-20.7-3-18.08-7.47a12,12,0,0,1,4-4.08c3.31,1.59,8.36,2.61,14,2.61S616.17,260.47,619.48,258.88Z"/><path id="Path-53" data-name="Path" class="cls-9" d="M605.44,267.71c-9.08,0-18.46-3.85-16.51-7.09,1.33,2.34,9,4.59,16.51,4.59S620.63,263,622,260.62C623.91,263.86,614.52,267.71,605.44,267.71Z"/><path id="Path-54" data-name="Path" class="cls-9" d="M604.25,251.75c-6.13,0-12.47-2.6-11.15-4.79.89,1.58,6.1,3.1,11.15,3.1s10.26-1.52,11.16-3.1C616.72,249.15,610.38,251.75,604.25,251.75Z"/><path id="Path-55" data-name="Path" class="cls-9" d="M603.65,101.52c-6.46,0-13.13-2.6-11.74-4.79.94,1.58,6.43,3.1,11.74,3.1s10.8-1.52,11.75-3.1C616.78,98.92,610.11,101.52,603.65,101.52Z"/><path id="Path-56" data-name="Path" class="cls-9" d="M603.29,88.06c-8.28,0-17.83-4.17-16-6,1.2,1.33,8.23,2.59,15,2.59s17.5-.26,18.71-1.59C622.78,84.89,611.56,88.06,603.29,88.06Z"/><path id="Path-57" data-name="Path" class="cls-10" d="M605.44,268.61c-6.5,0-14.52-2.7-16.58-6.24,1.33,2.36,9.08,4.63,16.58,4.63s15.25-2.27,16.58-4.63C620.77,265.91,611.93,268.61,605.44,268.61Z"/><path id="Path-58" data-name="Path" class="cls-10" d="M619.53,260.24c-1.28,2.21-7.8,3.6-14.09,3.6s-12.8-1.39-14.08-3.6a3.36,3.36,0,0,1,.07-2.51c1.23,2.2,7.73,3.59,14,3.59s12.78-1.39,14-3.59A3.36,3.36,0,0,1,619.53,260.24Z"/><path id="Path-59" data-name="Path" class="cls-10" d="M613.06,250.85c-.83,1.42-5,2.32-9.1,2.32s-8.27-.9-9.09-2.32a2.12,2.12,0,0,1,0-1.62c.79,1.42,5,2.32,9.05,2.32s8.26-.9,9.06-2.32A2.22,2.22,0,0,1,613.06,250.85Z"/><path id="Path-60" data-name="Path" class="cls-10" d="M621.28,81.41C619.71,83.59,611.69,85,604,85s-15.75-1.37-17.32-3.55a2.7,2.7,0,0,1,.08-2.47c1.52,2.17,9.51,3.54,17.24,3.54s15.73-1.37,17.25-3.54A2.7,2.7,0,0,1,621.28,81.41Z"/><polygon id="Path-61" data-name="Path" class="cls-10" points="642.52 311.02 642.68 312.98 577.11 313.62 578.97 311.46 642.52 311.02"/><polygon id="Path-62" data-name="Path" class="cls-11" points="645.33 315.12 645.49 317.08 574.97 318.02 576.99 315.86 645.33 315.12"/><path id="Rectangle-6" data-name="Rectangle" class="cls-10" d="M598.48,245h0c-2.12,0-3.81-4.26-3.77-9.42l.95-125.81c0-3,1.33-5.48,2.92-5.48h0c1.6,0,2.9,2.43,2.92,5.48l.76,125.81C602.3,240.78,600.6,245,598.48,245Z"/><path d="M594.13,50.36c-.07.32.11.45.37.51a.13.13,0,0,0,.07.09c0,.25.21.44.11.72-.84,2.21-.77,5.11-1.07,7.48-.25,4.15-1.05,8.16-1.26,12.28.75.48,1.52.93,2.31,1.36,2,.56,4.07,1,5.71,1.51,1.23.39,2.47.78,3.73,1.14l.41-.08a20.51,20.51,0,0,0,5.14-1.05,1.48,1.48,0,0,0,.46-.26,2.39,2.39,0,0,0,.34-.51,2.65,2.65,0,0,1,1.7-1.2l.55-.12c.36-.44.7-.91,1-1.4v-.06a42.75,42.75,0,0,0-.68-5.29l0-.31a55.12,55.12,0,0,1-.09-6.3,47.59,47.59,0,0,0-.62-6.09,2.11,2.11,0,0,1,0-1,4,4,0,0,1,.59-.88c1.49-2.19-1-5.06-1-7.36,0-1.21.55-2.37.63-3.58a15.81,15.81,0,0,0-.41-3.41,12.61,12.61,0,0,1,.08-4.2c.21-1.16.89-2.42.12-3.5-1-1.38-1.74-3.12-3.58-3.55-.7-.17-1.36-.45-2-.68l-.33-.24c-.38-.48-1.08-.1-1.43-.62a1.15,1.15,0,0,1,.25-1.37,1.82,1.82,0,0,0,.75-1.6c.07-.86.65-1.58.56-2.47a2.18,2.18,0,0,0,0-2.64c-.82-1.68-3.6-2.46-4.83-1.21a5.37,5.37,0,0,0-1.56,4.36c.06.69.76,1.1.5,1.85.1.38.05.87.59.92l0,.06a8,8,0,0,1-.15,1.95,25.2,25.2,0,0,1-3.88,2c-1.36.56-2.79,1.2-3.15,2.87-.51,2.34-.61,4.94-.94,7.33l-.2,1.44a37.49,37.49,0,0,0-.49,5.38,15.71,15.71,0,0,0,.45,4C593.14,47.42,594.31,49.5,594.13,50.36Z"/><path id="Path-63" data-name="Path" class="cls-3" d="M602.4,38.92a18.27,18.27,0,0,0,1,6.9,74.85,74.85,0,0,0,4.91-15.35c.2-1,.37-2,.52-3,.07-.46,0-1.09-.4-1.18a71,71,0,0,1-3.81,13.85.75.75,0,0,1-.16.29c-.27.24-.47,0-.38-.31a117.43,117.43,0,0,0,3.08-11.83,19.39,19.39,0,0,0,.3-2.64c-.75-.49-1.9-1.25-2.5-.86-.28,2.18-1,4.31-1.29,6.51a5.94,5.94,0,0,1-.26,1.32,2.61,2.61,0,0,1-.24.54C602.91,35.08,602.54,37,602.4,38.92Z"/><path id="Path-64" data-name="Path" class="cls-3" d="M597,40.4c1.36-.65,2.26-2,3.35-3,.4-.39,1-.31.47.26-.38.39-.79.76-1.2,1.13-.78.72-1.58,1.43-2.37,2.14a.82.82,0,0,0-.23.26,1,1,0,0,0-.06.46,22.27,22.27,0,0,1-.18,3.65,4.49,4.49,0,0,0,0,1.93c0-.16.94-1.25,1.07-1.44.63-.85,1.24-1.71,1.81-2.59s1.61-1.9,1.84-3.09c.12-.62,0-1.28.08-1.9a12.77,12.77,0,0,1,.31-2,5.3,5.3,0,0,0,.2-1.18.34.34,0,0,0,0-.2c-.1-.15-.32-.06-.47,0a17.53,17.53,0,0,1-3.94,1.92c-.25.1-.56.21-.67.47a.93.93,0,0,0-.06.4C597,38.61,597,39.51,597,40.4Z"/><path id="Path-65" data-name="Path" class="cls-3" d="M611.32,29.16a46.31,46.31,0,0,1-1.83,10.65,67,67,0,0,1-3.82,10.24,71,71,0,0,1-7.37,12.38c-.37.5-1.06,1.29-1.7.88.09.06,2.8-4.05,3.06-4.43,1-1.53,2-3.07,2.91-4.67a61.52,61.52,0,0,0,4.59-9.91c.25-.7.48-1.41.7-2.13s.41-1.37.59-2.06a70.84,70.84,0,0,0,1.8-11.06c.07-.8,0-1.85-.74-2,.23,6.79-2.93,13.16-5.79,19.25-2.12,4.5-4.13,9.08-6.59,13.38a4.52,4.52,0,0,1-1.1,1.42q1.22-2.39,2.44-4.75c.82-1.59,1.66-3.24,2.46-4.88.87-1.8,1.7-3.63,2.48-5.46a.46.46,0,0,1-.3-.06c-.12.09-.5.08-.54,0a20.14,20.14,0,0,1-1-4.64c-.71,1.19-1.44,2.36-2.21,3.5-.39.6-.78,1.18-1.19,1.76a6.57,6.57,0,0,0-1,1.48,93,93,0,0,0-2.43,11.86c-.31,2.5-.33,5-.44,7.52,0,1,0,2,0,3q1.44-1.62,2.81-3.33c3.33-4.14,6.62-8.4,8.17-13.71.12-.44.47-1,.84-.79a27,27,0,0,1-4.28,9.22c-1.9,2.78-4.12,5.29-6.27,7.85a5.73,5.73,0,0,0-.85,1.21c-.62,1.31-.26,2.87.11,4.27a33.47,33.47,0,0,0,9.23-11.72,62.56,62.56,0,0,0,4.86-14.55,103,103,0,0,0,2.4-19.63Z"/><path id="Path-66" data-name="Path" class="cls-2" d="M610.17,27.85a67.81,67.81,0,0,1-1.82,11.07c-.18.69-.38,1.38-.59,2.06s-.46,1.42-.71,2.13A61,61,0,0,1,602.39,53c-.93,1.6-1.93,3.15-3,4.67a8.42,8.42,0,0,0-1.53,2.45,10.85,10.85,0,0,1-1.43,3.29c.76-1.11,2.95-4.25,3.08-4.45,1-1.52,2-3.07,3-4.66a60.7,60.7,0,0,0,4.66-9.92c.26-.7.49-1.41.72-2.13s.41-1.37.59-2.06a68.72,68.72,0,0,0,1.82-11.07,3.52,3.52,0,0,0-.12-1.37Z"/><path id="Path-67" data-name="Path" class="cls-2" d="M608.65,26.29c-.14.92-.29,1.83-.47,2.73a83.33,83.33,0,0,1-7.59,21.11q-1.23,2.49-2.52,4.89c-.85,1.59-1.68,3.18-2.51,4.77.48-.36.68,0,1-.56,2.53-4.31,4.78-9.15,7-13.67.49-1,.94-2.64,1.43-3.68a70.85,70.85,0,0,0,3.35-11.56c.19-1,.36-2,.51-3A1.39,1.39,0,0,0,608.65,26.29Z"/><path id="Path-68" data-name="Path" class="cls-2" d="M605.59,27.15a62.71,62.71,0,0,0-1.68,11.56c-.12,2.63.12.78.39.31a2.61,2.61,0,0,0,.17-.28.07.07,0,0,1,0-.06c1.09-3.37,1.9-6.79,2.69-10.24a17.14,17.14,0,0,0,.29-2.57l-.22-.15C607.21,26.19,605.69,26.68,605.59,27.15Z"/><path id="Path-69" data-name="Path" class="cls-2" d="M596.68,46.11a4.86,4.86,0,0,1-.11.55l.18.34.17-.45Z"/><path id="Path-70" data-name="Path" class="cls-2" d="M611.31,29.31a.14.14,0,0,0,0-.11l0,.43a47.56,47.56,0,0,1-.66,7.8c-1,6.83-2.17,13.69-4.6,20.11S599.83,70,594.54,74c-.11-.68-.21-1.35-.28-2,.08,1.12.22,2.23.41,3.33,5.28-4,9-10,11.47-16.43s3.62-13.28,4.59-20.11A40.3,40.3,0,0,0,611.31,29.31Z"/><path id="Path-71" data-name="Path" class="cls-2" d="M601,19c0-.22,0-.4,0-.45a7.47,7.47,0,0,1,.16-1.49,2.4,2.4,0,0,1,1.24-1.84.34.34,0,0,1,.28,0,2.27,2.27,0,0,1,3.29.11,1.3,1.3,0,0,1,.34,1,.46.46,0,0,1,.08.19v.13s0,.06,0,0a.19.19,0,0,0,0,.08.35.35,0,0,1-.06.46.29.29,0,0,1-.33,0c-.29-.19-.93.13-1.23.23a5.82,5.82,0,0,1-1.86.22,1.06,1.06,0,0,0-.35,0c-.31.13-.37.57-.46.93a2.31,2.31,0,0,1-1,1.38S601,19.42,601,19Z"/><path id="Path-72" data-name="Path" class="cls-3" d="M593.93,45.86a6.48,6.48,0,0,0,.77,2.51c.11.3.49,1.62.86,1.64.21,0-.11-1.76-.13-1.9a3.23,3.23,0,0,0-.35-1.27A2.58,2.58,0,0,0,593.93,45.86Z"/><path id="Path-73" data-name="Path" class="cls-3" d="M605.12,20c.08-.11,0-.38-.08-.52s0-.34-.17-.39-.09.33-.09.35a.46.46,0,0,0,0,.26.85.85,0,0,0,.32.3Z"/><path id="Path-74" data-name="Path" class="cls-2" d="M601.36,26.19c-.17-.62.74-1.07,1-1.81a.57.57,0,0,0,0-.29.61.61,0,0,0-.15-.24l-.58-.63a2.24,2.24,0,0,1-1.84,2.39,6.8,6.8,0,0,0-3.26,1.44,5.44,5.44,0,0,0-1.39,2.65,23.93,23.93,0,0,0-.48,4.22,39.68,39.68,0,0,1-.6,4.1c-.15,1-.28,1.92-.41,2.88a11.54,11.54,0,0,0-.26,2.28c.06.67,1,2.44,1.59,1.17.44-1-.31-2.29-.29-3.32,0-1.32.08-2.65.2-4,.24-2.69.4-6.45,2.56-8.33a8.35,8.35,0,0,0-.38,2c-.07.94-.07,1.89-.06,2.84a.78.78,0,0,0,.09.37.46.46,0,0,0,.38.2,1.47,1.47,0,0,0,.84-.2,3.27,3.27,0,0,0,.65-.73,19.64,19.64,0,0,0,1.28-1.61c.7-1,2.8-3.71,1.49-4.87A1,1,0,0,1,601.36,26.19Z"/><path d="M757.86,198.51c-.06.28.09.39.31.45a.27.27,0,0,0,.07.08c0,.21.19.38.09.62-.73,1.94-.67,4.47-.93,6.54-.22,3.63-.91,7.13-1.1,10.74.65.41,1.33.81,2,1.19,1.76.48,3.56.86,5,1.31,1.07.35,2.16.69,3.26,1l.36-.07a18.35,18.35,0,0,0,4.5-.91,1.19,1.19,0,0,0,.4-.24,2.23,2.23,0,0,0,.29-.44,2.36,2.36,0,0,1,1.49-1.05l.48-.1c.31-.39.61-.8.91-1.23v-.05a36,36,0,0,0-.6-4.62l0-.27a50.65,50.65,0,0,1-.07-5.51,41.32,41.32,0,0,0-.55-5.33,2,2,0,0,1,0-.9,3.81,3.81,0,0,1,.51-.77c1.3-1.91-.85-4.42-.84-6.43,0-1.06.47-2.07.54-3.13a13.72,13.72,0,0,0-.36-3,11.31,11.31,0,0,1,.07-3.67c.19-1,.78-2.11.11-3.06-.84-1.21-1.52-2.73-3.13-3.1-.61-.15-1.19-.39-1.79-.59l-.28-.22c-.33-.41-.94-.08-1.26-.54a1,1,0,0,1,.23-1.2c.33-.35.78-.75.65-1.4.07-.74.57-1.37.49-2.16a1.89,1.89,0,0,0,0-2.3c-.71-1.47-3.15-2.15-4.22-1.06a4.72,4.72,0,0,0-1.36,3.81c0,.6.66,1,.44,1.62.08.33,0,.76.51.8l0,0a7,7,0,0,1-.13,1.71,24,24,0,0,1-3.39,1.72c-1.2.48-2.44,1-2.76,2.51-.45,2-.54,4.31-.82,6.4l-.18,1.26a33.78,33.78,0,0,0-.42,4.7,14.09,14.09,0,0,0,.38,3.49C757,195.94,758,197.76,757.86,198.51Z"/><g id="Rectangle-Copy-18"><path class="cls-10" d="M620.33,13.25a.62.62,0,0,1,.6.65L615,71.33a.73.73,0,0,1-.85.51c-.43,0-.75-.33-.71-.66l6.16-57.4A.64.64,0,0,1,620.33,13.25Z"/></g><path class="cls-2" d="M614.51,35a12.19,12.19,0,0,0-2.15-2c0,1,0,2,0,2.94.4.24.77.48,1.07.69.68.47,3.46,2.79,4.25,2.29C618.12,38.64,614.77,35.26,614.51,35Z"/></g></g></svg>