<svg xmlns="http://www.w3.org/2000/svg" viewBox="0 0 704.21 423.96">
    <defs>
        <pattern id="lines" data-name="lines" width="16" height="16" patternTransform="translate(144 -16)" patternUnits="userSpaceOnUse">
            <path fill="none" d="M0 0h16v16H0z"/>
            <path class="cls-2" d="M1.98 78.02l66-66M-14.02 78.02l66-66M-30.02 78.02l66-66M-46.02 78.02l66-66M-62.02 78.02l66-66M1.98 62.02l66-66M-14.02 62.02l66-66M-30.02 62.02l66-66M-46.02 62.02l66-66M-62.02 62.02l66-66M1.98 46.02l66-66M-14.02 46.02l66-66M-30.02 46.02l66-66M-46.02 46.02l66-66M-62.02 46.02l66-66M1.98 30.02l66-66M-14.02 30.02l66-66M-30.02 30.02l66-66M-46.02 30.02l66-66M-62.02 30.02l66-66M1.98 14.02l66-66M-14.02 14.02l66-66M-30.02 14.02l66-66M-46.02 14.02l66-66M-62.02 14.02l66-66"/>
        </pattern>
        <style>
            .cls-2,.cls-3,.cls-5,.cls-6{fill:none}.cls-2,.cls-3,.cls-4,.cls-5,.cls-6{stroke:currentColor}.cls-2,.cls-4,.cls-5,.cls-6{stroke-linecap:square}.cls-2,.cls-3,.cls-4,.cls-5{stroke-miterlimit:10}.cls-2{stroke-width:2px}.cls-3,.cls-4,.cls-5,.cls-6{stroke-width:12px}.cls-4{fill:url(#lines)}
        </style>
    </defs>
    <g id="Layer_2" data-name="Layer 2">
        <g id="Layer_25" data-name="Layer 25">
            <path class="cls-3" d="M347.9 54.42l-103.62 31.8c-13.28 4-17.34 13-17.4 24.2l26.48 101.15M264.26 262.78c0 7-.49 18.36-.49 18.36 13.09 7.83 24.85 7.1 34.46-1"/>
            <path class="cls-3" d="M363.84 121.49l-65.74 30-3.78 72.72c-5.33 25.6-24.44 44.22-56 28.66l14.55-35.27-3.38-98.87a23.94 23.94 0 0115-19.64l103.68-57.27C382.26 39.25 394.23 45 404 49l39.42 15.65M522.66 230.11C486.52 276.31 415 255.2 415 255.2l-69.14 19.87c-5.55 3.05-31 17.85-31 17.85a43.35 43.35 0 01-5.56-4.39c-11.84-11.74-19.31-32.43 4.45-49.28L334 225.93M506.45 244.79l45.93 23.5M581.81 132.28l37.8 20.43"/>
            <path class="cls-4" d="M303 229.09s-5.38-58.35 50.29-96.55l14 27.79 16.91-49L504.68 26a139.18 139.18 0 01191 47.47l-278.1 138.1c-29.86 15.06-75.21 23.13-108.65 22.8"/>
            <path class="cls-5" d="M221.76 292.19c30.65-23.08 83.36-59.48 155.51-102.89 57.4-34.52 124.91-79.25 220.61-112.92"/>
            <path class="cls-4" d="M6 84.73a44.78 44.78 0 0144.65-44.92c17.86 0 34.44 15.61 34.44 44.92z"/>
            <path class="cls-5" d="M164.18 373a44.79 44.79 0 01-44.64 45c-17.86 0-34.45-15.62-34.45-44.92V84.73"/>
            <path class="cls-4" d="M129.84 416.84c-.59.24-10.3 1.12.21 1.12h197.42A44.79 44.79 0 00372.12 373H164.18c-2.18 21.51-13.54 35.44-34.34 43.84z"/>
            <path class="cls-6" d="M137.52 104H220M137.52 167.57h104.32M137.52 231.18h104.32M137.52 292h54"/>
            <path class="cls-5" d="M50.65 39.81h230.9v.29M321.09 292v81M281.55 40.1a45.08 45.08 0 015.1-.29c11.16 0 21.83 6.1 28.25 17.83"/>
        </g>
    </g>
</svg>
