<svg xmlns="http://www.w3.org/2000/svg" viewBox="0 0 596.83 403.45">
    <defs>
        <pattern id="lines" data-name="lines" width="16" height="16" patternTransform="translate(240 448)" patternUnits="userSpaceOnUse">
            <path class="cls-1" d="M0 0h16v16H0z"/>
            <path class="cls-2" d="M1.98 78.02l66-66M-14.02 78.02l66-66M-30.02 78.02l66-66M-46.02 78.02l66-66M-62.02 78.02l66-66M1.98 62.02l66-66M-14.02 62.02l66-66M-30.02 62.02l66-66M-46.02 62.02l66-66M-62.02 62.02l66-66M1.98 46.02l66-66M-14.02 46.02l66-66M-30.02 46.02l66-66M-46.02 46.02l66-66M-62.02 46.02l66-66M1.98 30.02l66-66M-14.02 30.02l66-66M-30.02 30.02l66-66M-46.02 30.02l66-66M-62.02 30.02l66-66M1.98 14.02l66-66M-14.02 14.02l66-66M-30.02 14.02l66-66M-46.02 14.02l66-66M-62.02 14.02l66-66"/>
        </pattern>
        <pattern id="lines-3" data-name="lines" width="16" height="16" patternTransform="translate(0 224)" patternUnits="userSpaceOnUse">
            <path class="cls-1" d="M0 0h16v16H0z"/>
            <path class="cls-2" d="M1.98 78.02l66-66M-14.02 78.02l66-66M-30.02 78.02l66-66M-46.02 78.02l66-66M-62.02 78.02l66-66M1.98 62.02l66-66M-14.02 62.02l66-66M-30.02 62.02l66-66M-46.02 62.02l66-66M-62.02 62.02l66-66M1.98 46.02l66-66M-14.02 46.02l66-66M-30.02 46.02l66-66M-46.02 46.02l66-66M-62.02 46.02l66-66M1.98 30.02l66-66M-14.02 30.02l66-66M-30.02 30.02l66-66M-46.02 30.02l66-66M-62.02 30.02l66-66M1.98 14.02l66-66M-14.02 14.02l66-66M-30.02 14.02l66-66M-46.02 14.02l66-66M-62.02 14.02l66-66"/>
        </pattern>
        <style>
            .cls-1,.cls-2,.cls-3,.cls-5{fill:none}.cls-2,.cls-3,.cls-5{stroke:currentColor}.cls-2,.cls-3{stroke-linecap:square}.cls-2,.cls-3,.cls-5{stroke-miterlimit:10}.cls-2{stroke-width:2px}.cls-3,.cls-5{stroke-width:12px}
        </style>
    </defs>
    <g id="Layer_2" data-name="Layer 2">
        <g id="Layer_14" data-name="Layer 14">
            <path class="cls-3" d="M6 221.7c0-30.55 17.79-56.45 51.2-56.45M6 326.22C6 308 19.83 292.6 45.8 292.6M6 360.62c0-15.28 13.83-28.23 39.8-28.23M283.46 125.46H85.59v206.93h242.87"/>
            <path stroke-linejoin="bevel" stroke-width="12" stroke-linecap="square" stroke="currentColor" fill="none" d="M167.87 260.76l55.72-31.83-55.72-31.84v63.67z"/>
            <path class="cls-5" d="M287.95 165.26H165.18M284.57 125.46v39.79M244.77 125.46v39.79M204.98 125.46v39.79M165.18 292.6h134.77M284.57 292.6v39.79M244.77 292.6v39.79M204.98 292.6v39.79"/>
            <path class="cls-3" d="M165.18 125.46h-105C30.28 125.46 6 138.13 6 179.69v180.93M45.8 332.39h119.38"/>
            <path class="cls-5" d="M165.18 165.25H45.8M165.18 125.46v39.79M125.39 125.46v39.79M85.59 125.46v39.79M45.8 125.46v39.79M45.8 292.6h119.38M165.18 292.6v39.79M125.39 292.6v39.79M85.59 292.6v39.79M45.8 292.6v39.79"/>
            <path d="M284.36 378.28a18.89 18.89 0 01-18.89 18.89H41.25C24.49 397.17 6 380.74 6 360h0a27.6 27.6 0 0127.6-27.6h250.76z" fill="url(#lines)" stroke-width="12" stroke-miterlimit="10" stroke-linecap="square" stroke="currentColor"/>
            <path class="cls-3" d="M148.2 397.17h118c10.06 0 18.22-7.25 18.22-16.2 0-8.94-8.16-16.19-18.22-16.19h-183M590.83 223c0 128.11-153.07 174.14-153.07 174.14S284.7 347.61 284.7 223V44.45L437.76 6.18l153.07 38.27z"/>
            <path d="M590.83 223V44.45L437.76 6.18v391c69.97-19.32 153.07-80.65 153.07-174.18z" fill="url(#lines-3)"/>
        </g>
    </g>
</svg>
