<svg width="811" height="562" viewBox="0 0 811 562" fill="none" xmlns="http://www.w3.org/2000/svg">
<path fill-rule="evenodd" clip-rule="evenodd" d="M329.171 261.931H322.947V255.707H329.171V249.467H322.947V243.227H329.171V237.003H335.411V230.764H329.171V236.988H322.947V230.764H329.171V224.52H322.931V230.76H316.707V236.984H310.467V230.76H304.228V236.984H298.003V230.76H304.228V224.52H297.987V230.76H291.764V224.52H285.521V230.76H291.76V236.984H285.521V243.224H291.76V249.464H285.521V255.704H291.76V261.928V261.943H297.984V268.168H304.224V261.943H310.464V268.168H316.704V261.943H322.928V268.168H329.168V261.943H335.408V255.704H329.168V261.931H329.171ZM291.76 261.946V268.171H285.521V261.931H291.76V261.946ZM310.464 230.76V224.52H316.704V230.76H310.464ZM329.171 243.224V249.464H335.411V243.224H329.171ZM297.984 237H291.76V243.224H297.984V237ZM298.001 268.171V274.411H304.225V268.171H310.465V274.411H316.705V268.171H322.945V274.411H329.169V268.171H335.409V274.411H329.169V280.651H322.929V274.411H316.705V280.651H310.465V274.411H304.225V280.651H297.986V274.411H291.761V280.651H285.522V274.411H291.761V268.171H298.001ZM322.928 255.707V249.467H316.704V255.707H322.928ZM310.464 255.707V261.931H316.704V255.707H310.464ZM304.224 255.707H310.463V249.467H304.224V255.707ZM304.224 255.707H298V261.931H304.224V255.707ZM304.224 243.224H298V249.464H304.224V243.224ZM310.463 243.224V237H304.224V243.224H310.463ZM316.708 243.224H310.468V249.464H316.708V243.224ZM316.707 243.224H322.931V237H316.707V243.224ZM297.984 249.464V255.704H291.76V249.464H297.984ZM341.651 230.76H335.411V224.52H341.651V230.76ZM335.411 243.224H341.651V236.984H335.411V243.224ZM341.651 255.707H335.411V249.467H341.651V255.707ZM335.411 268.171H341.651V261.931H335.411V268.171ZM335.411 280.651H341.651V274.411H335.411V280.651Z" fill="#4038FF"/>
<path fill-rule="evenodd" clip-rule="evenodd" d="M609.822 261.931H603.597V255.707H609.822V249.467H603.597V243.227H609.822V237.003H616.061V230.764H609.822V236.988H603.597V230.764H609.822V224.52H603.582V230.76H597.358V236.984H591.118V230.76H584.878V236.984H578.654V230.76H584.878V224.52H578.638V230.76H572.414V224.52H566.171V230.76H572.411V236.984H566.171V243.224H572.411V249.464H566.171V255.704H572.411V261.928V261.943H578.635V268.168H584.875V261.943H591.114V268.168H597.355V261.943H603.579V268.168H609.819V261.943H616.058V255.704H609.819V261.931H609.822ZM572.411 261.946V268.171H566.171V261.931H572.411V261.946ZM591.114 230.76V224.52H597.355V230.76H591.114ZM609.821 243.224V249.464H616.061V243.224H609.821ZM578.635 237H572.411V243.224H578.635V237ZM578.65 268.171V274.411H584.875V268.171H591.114V274.411H597.355V268.171H603.594V274.411H609.819V268.171H616.058V274.411H609.819V280.651H603.579V274.411H597.355V280.651H591.114V274.411H584.875V280.651H578.635V274.411H572.411V280.651H566.171V274.411H572.411V268.171H578.65ZM603.579 255.707V249.467H597.355V255.707H603.579ZM591.114 255.707V261.931H597.355V255.707H591.114ZM584.875 255.707H591.115V249.467H584.875V255.707ZM584.875 255.707H578.65V261.931H584.875V255.707ZM584.875 243.224H578.65V249.464H584.875V243.224ZM591.115 243.224V237H584.875V243.224H591.115ZM597.358 243.224H591.118V249.464H597.358V243.224ZM597.357 243.224H603.582V237H597.357V243.224ZM578.635 249.464V255.704H572.411V249.464H578.635ZM622.301 230.76H616.062V224.52H622.301V230.76ZM616.062 243.224H622.301V236.984H616.062V243.224ZM622.301 255.707H616.062V249.467H622.301V255.707ZM616.062 268.171H622.301V261.931H616.062V268.171ZM616.062 280.651H622.301V274.411H616.062V280.651Z" fill="#4038FF"/>
<path fill-rule="evenodd" clip-rule="evenodd" d="M272.651 93.4105H266.426V87.1863H272.651V80.9466H266.426V74.7069H272.651V68.4827H278.89V62.2431H272.651V68.4673H266.426V62.2431H272.651V55.9999H266.411V62.2396H260.187V68.4638H253.947V62.2396H247.707V68.4638H241.483V62.2396H247.707V55.9999H241.467V62.2396H235.243V55.9999H229V62.2396H235.24V68.4638H229V74.704H235.24V80.9436H229V87.1833H235.24V93.4075V93.423H241.464V99.6472H247.704V93.423H253.943V99.6472H260.184V93.423H266.408V99.6472H272.648V93.423H278.887V87.1833H272.648V93.4105H272.651ZM235.24 93.426V99.6507H229V93.4105H235.24V93.426ZM253.943 62.2396V55.9999H260.184V62.2396H253.943ZM272.65 74.7039V80.9436H278.89V74.7039H272.65ZM241.464 68.4792H235.239V74.7039H241.464V68.4792ZM241.48 99.6507V105.89H247.704V99.6507H253.943V105.89H260.184V99.6507H266.423V105.89H272.648V99.6507H278.887V105.89H272.648V112.13H266.408V105.89H260.184V112.13H253.943V105.89H247.704V112.13H241.464V105.89H235.24V112.13H229V105.89H235.24V99.6507H241.48ZM266.408 87.1863V80.9466H260.184V87.1863H266.408ZM253.943 87.1863V93.4105H260.184V87.1863H253.943ZM247.703 87.1863H253.943V80.9466H247.703V87.1863ZM247.704 87.1863H241.479V93.4105H247.704V87.1863ZM247.704 74.7039H241.479V80.9436H247.704V74.7039ZM253.943 74.7039V68.4792H247.703V74.7039H253.943ZM260.187 74.7039H253.947V80.9436H260.187V74.7039ZM260.187 74.7039H266.411V68.4792H260.187V74.7039ZM241.464 80.9436V87.1833H235.239V80.9436H241.464ZM285.13 62.2396H278.891V55.9999H285.13V62.2396ZM278.891 74.7039H285.13V68.4637H278.891V74.7039ZM285.13 87.1863H278.891V80.9466H285.13V87.1863ZM278.891 99.6506H285.13V93.4105H278.891V99.6506ZM278.891 112.13H285.13V105.89H278.891V112.13Z" fill="#4038FF"/>
<path fill-rule="evenodd" clip-rule="evenodd" d="M391.541 280.65H397.781V336.781H391.541V280.65ZM385.307 280.65H379.07V336.781H385.307V280.65ZM372.834 280.65H366.598V336.781H372.834V280.65ZM354.124 280.65H360.361V336.781H354.124V280.65ZM347.887 280.65H341.65V336.781H347.887V280.65Z" fill="#4038FF"/>
<path fill-rule="evenodd" clip-rule="evenodd" d="M398.342 162.151V168.39H342.212V162.151H398.342ZM398.342 155.917V149.68H342.212V155.917H398.342ZM398.342 143.444V137.207H342.212V143.444H398.342ZM398.342 124.733V130.97H342.212V124.733H398.342ZM398.342 118.497V112.26H342.212V118.497H398.342Z" fill="#1F252E"/>
<path fill-rule="evenodd" clip-rule="evenodd" d="M341.652 498.931V505.171H285.522V498.931H341.652ZM341.651 492.698V486.461H285.521V492.698H341.651ZM341.651 480.224V473.988H285.521V480.224H341.651ZM341.651 461.514V467.751H285.521V461.514H341.651ZM341.651 455.277V449.041H285.521V455.277H341.651Z" fill="#1F252E"/>
<path fill-rule="evenodd" clip-rule="evenodd" d="M566.171 330.541V336.781H510.041V330.541H566.171ZM566.171 324.307V318.071H510.041V324.307H566.171ZM566.171 311.834V305.597H510.041V311.834H566.171ZM566.171 293.124V299.361H510.041V293.124H566.171ZM566.171 286.887V280.65H510.041V286.887H566.171Z" fill="#1F252E"/>
<path fill-rule="evenodd" clip-rule="evenodd" d="M341.651 343.02V336.781H285.521V343.02H341.651ZM341.651 361.734V367.973H285.521V361.734H341.651ZM341.651 380.447V374.207H285.521V380.447H341.651ZM341.652 392.911V386.671H285.522V392.911H341.652ZM341.651 349.26V355.5H285.521V349.26H341.651Z" fill="#1F252E"/>
<path fill-rule="evenodd" clip-rule="evenodd" d="M727.763 392.911H734C734 361.911 708.87 336.781 677.87 336.781V343.017C705.427 343.017 727.763 365.354 727.763 392.911ZM715.29 392.911H721.527C721.527 368.8 701.981 349.254 677.87 349.254V355.491C698.535 355.491 715.29 372.245 715.29 392.911ZM709.054 392.911H702.817C702.817 379.134 691.647 367.964 677.87 367.964V361.727C695.093 361.727 709.054 375.688 709.054 392.911ZM690.344 392.911H696.58C696.58 382.577 688.204 374.201 677.87 374.201V380.437C684.759 380.437 690.344 386.022 690.344 392.911ZM677.87 392.911H684.107C684.107 389.465 681.316 386.674 677.87 386.674V392.911Z" fill="#1F252E"/>
<path fill-rule="evenodd" clip-rule="evenodd" d="M235.627 168.39H229.391C229.391 199.39 254.521 224.52 285.521 224.52V218.284C257.964 218.284 235.627 195.947 235.627 168.39ZM248.101 168.39H241.864C241.864 192.501 261.41 212.047 285.521 212.047V205.81C264.856 205.81 248.101 189.056 248.101 168.39ZM254.338 168.39H260.575C260.575 182.167 271.744 193.337 285.521 193.337V199.574C268.298 199.574 254.338 185.613 254.338 168.39ZM273.048 168.39H266.812C266.812 178.725 275.187 187.1 285.521 187.1V180.864C278.633 180.864 273.048 175.279 273.048 168.39ZM285.521 168.39H279.284C279.284 171.836 282.075 174.627 285.521 174.627V168.39Z" fill="#1F252E"/>
<path fill-rule="evenodd" clip-rule="evenodd" d="M622.302 442.804V449.041C653.301 449.041 678.432 423.91 678.432 392.911H672.195C672.195 420.467 649.858 442.804 622.302 442.804ZM622.301 430.331V436.567C646.412 436.567 665.958 417.022 665.958 392.911H659.721C659.721 413.576 642.967 430.331 622.301 430.331ZM622.302 424.094V417.857C636.079 417.857 647.249 406.688 647.249 392.911H653.485C653.485 410.133 639.525 424.094 622.302 424.094ZM622.302 405.384V411.62C632.636 411.62 641.012 403.245 641.012 392.911H634.775C634.775 399.799 629.19 405.384 622.302 405.384ZM622.301 392.911V399.147C625.747 399.147 628.538 396.356 628.538 392.911H622.301Z" fill="#4038FF"/>
<path d="M510.602 56.1301V112.26H454.472C454.472 81.2608 479.603 56.1301 510.602 56.1301Z" fill="#1F252E"/>
<path fill-rule="evenodd" clip-rule="evenodd" d="M123.24 168.39H117V224.52H123.24V168.39ZM141.953 168.39H148.193V224.52H141.953V168.39ZM160.666 168.39H154.427V224.52H160.666V168.39ZM173.13 168.39H166.891V224.52H173.13V168.39ZM129.479 168.39H135.719V224.52H129.479V168.39Z" fill="#1F252E"/>
<path fill-rule="evenodd" clip-rule="evenodd" d="M516.842 505.171H510.603V561.301H516.842V505.171ZM535.556 505.171H541.795V561.301H535.556V505.171ZM554.269 505.171H548.029V561.301H554.269V505.171ZM566.733 505.171H560.493V561.301H566.733V505.171ZM523.082 505.171H529.322V561.301H523.082V505.171Z" fill="#1F252E"/>
<g clip-path="url(#clip0_3893_182414)">
<path fill-rule="evenodd" clip-rule="evenodd" d="M413.385 91.0512C410.2 87.9468 401.241 85.6797 393.806 87.4107C386.435 89.1271 378.935 93.148 375.197 99.3308C371.672 103.215 371.382 107.607 374.337 111.86C373.601 116.085 373.256 119.58 373.468 123.676C372.483 127.167 375.133 129.427 377.088 131.443C379.306 133.7 379.253 135.587 378.151 137.984C376.079 140.388 374.097 138.494 371.978 140.684L370.131 141.792C366.437 142.759 361.062 142.348 357.266 142.999C347.222 144.753 345.925 156.186 340.363 162.586C335.974 167.613 340.96 175.359 341.844 180.898C342.918 187.524 342.74 194.281 341.318 200.852C340.128 206.213 338.096 211.506 338.245 216.977C338.346 222.766 340.935 228.347 340.702 234.122C340.267 245.034 326.162 258.246 333.683 268.938C334.679 270.365 336.081 271.581 336.638 273.211C337.036 274.819 337.002 276.498 336.54 278.092C334.549 287.648 332.139 297.232 331.65 306.967C331.156 316.958 334.682 327.019 332.946 336.93C332.868 337.413 332.769 337.906 332.68 338.39C331.057 346.72 328.147 354.919 327.703 363.464C327.301 370.707 348.479 390.292 377.292 400.649C406.104 411.005 438.155 403.398 439.267 403.564C458.961 406.509 432.711 330.609 443.01 269.193C450.649 223.636 460.9 178.732 450.643 160.793C448.587 153.636 441.463 150.573 434.596 147.837C427.508 145.055 424.121 141.746 417.581 137.944C417.43 134.831 413.215 138.315 413.927 135.228L414.182 134.967C417.091 134.794 416.975 132.49 417.58 130.685C416.375 127.119 421.912 118.663 422.394 115.385C423.661 107.669 419.267 96.4935 413.385 91.0512Z" fill="black"/>
<path d="M395.476 213.332C395.829 224.928 393.094 235.192 388.91 245.916C378.92 222.131 370.991 197.628 366.79 172.16C365.986 167.348 365.32 162.534 364.789 157.717C364.535 155.53 364.883 152.545 367.143 152.196C370.237 174.839 375.836 197.1 383.845 218.602C383.995 219.121 384.265 219.6 384.636 220.005C385.931 221.223 387.096 219.962 386.662 218.584C380.801 200.021 377.037 181.039 373.292 161.891C372.673 157.732 372.365 153.535 372.371 149.333C376.391 147.123 382.539 143.748 385.574 145.711C386.531 156.035 389.906 166.317 390.833 176.807C390.916 178.956 391.261 181.088 391.862 183.159C392.168 184.044 392.544 184.905 392.986 185.735C393.709 194.967 395.185 204.103 395.476 213.332Z" fill="#DEE3E9"/>
<path d="M423.536 217.044C416.583 213.627 412.13 206.943 406.639 201.556C404.594 199.553 401.256 199.833 404.038 202.743C405.974 204.758 408.05 206.676 410.094 208.585C414.058 212.308 418.109 215.924 422.106 219.615C422.571 219.983 422.951 220.44 423.222 220.959C423.481 221.683 423.55 222.459 423.425 223.216C422.931 229.241 422.979 235.295 423.566 241.31C423.883 244.474 424.336 247.857 423.164 250.825C423.467 250.038 418.509 244.462 417.859 243.523C414.768 239.203 411.764 234.829 408.89 230.347C405.778 225.436 400.854 220.62 399.943 214.731C399.474 211.622 400.128 208.389 399.965 205.307C399.812 202.043 399.412 198.794 398.768 195.587C398.276 193.669 398.003 191.704 397.956 189.728C397.931 189.383 398.024 189.039 398.223 188.751C398.789 188.044 399.945 188.52 400.707 189.025C407.003 193.22 413.81 196.649 420.975 199.235C422.36 199.739 423.9 200.346 424.425 201.668C424.635 202.316 424.699 202.999 424.613 203.672C424.422 208.176 424.063 212.633 423.536 217.044Z" fill="#DEE3E9"/>
<path d="M352.355 167.064C351.978 183.905 355.543 201.639 359.731 217.91C364.074 234.996 370.627 251.072 378.067 267.122C387.911 288.367 400.827 308.392 415.256 327.143C417.138 329.585 420.677 333.451 424.3 331.598C423.796 331.852 410.026 311.893 408.783 310.043C403.614 302.647 398.617 295.135 394.015 287.401C384.888 272.195 377.319 256.197 371.411 239.624C370.271 236.238 369.13 232.821 368.086 229.393C367.113 226.116 366.219 222.822 365.404 219.509C361.176 202.195 359.288 184.463 358.33 166.725C358.123 162.934 358.911 157.929 362.869 157.287C359.927 189.494 375.583 220.241 389.712 249.644C400.073 271.381 409.942 293.423 422.309 314.225C423.835 316.786 425.46 319.407 427.957 321.173C423.93 313.501 419.913 305.839 415.811 298.199C411.616 290.397 407.549 282.539 403.612 274.623C399.293 265.93 395.214 257.137 391.374 248.245C391.939 248.307 392.512 248.216 393.024 247.981C393.649 248.461 395.736 248.445 396.006 247.816C399.083 240.841 401.236 233.534 402.418 226.063C405.993 231.796 409.697 237.455 413.529 243.041C415.511 245.925 417.533 248.777 419.594 251.598C420.934 253.436 424.408 256.628 424.889 258.787C429.389 277.446 433.524 296.244 435.222 315.462C436.274 327.4 435.746 339.314 435.717 351.25C435.698 355.969 435.467 360.674 435.022 365.366C430.009 360.074 425.102 354.637 420.452 349.103C403.304 328.876 387.61 306.872 372.102 266.017C373.725 273.899 385.359 307.946 396.226 325.597C407.505 343.917 420.883 358.51 426.546 364.88C428.298 366.669 429.788 368.673 430.976 370.837C434.016 377.135 433.393 381.084 431.021 387.661C410.494 372.77 394.719 352.498 383.466 330.5C372.214 308.503 365.201 284.693 360.424 260.69C354.287 229.839 351.583 198.46 352.355 167.064Z" fill="#DEE3E9"/>
<path d="M361.77 170.819C362.668 187.142 364.444 203.468 368.429 219.39C369.163 222.439 370.005 225.47 370.956 228.484C371.92 231.639 372.976 234.783 374.092 237.898C379.664 253.147 386.804 267.866 395.416 281.855C399.758 288.97 404.474 295.881 409.351 302.685C412.073 306.477 415.263 309.048 416.538 313.637C418.009 318.957 419.652 323.597 423.011 328.216C419.412 323.262 409.067 309.231 408.429 308.348C403.551 301.544 398.835 294.633 394.494 287.518C385.882 273.529 378.741 258.81 373.17 243.561C372.095 240.446 371.018 237.302 370.034 234.147C369.117 231.133 368.274 228.101 367.506 225.053C363.521 209.122 361.746 192.805 360.848 176.482C360.672 174.451 360.985 172.408 361.765 170.499L361.77 170.819Z" fill="white"/>
<path d="M382.767 159.075C386.753 177.342 388.852 195.907 389.037 214.534C389.098 227.098 388.218 218.262 386.909 215.934C386.602 215.49 386.325 215.03 386.081 214.555C386.079 214.453 386.009 214.353 385.962 214.252C380.977 197.99 377.461 181.519 374.044 164.894C373.399 160.802 373.081 156.674 373.092 152.539L374.316 151.907C374.424 154.205 382.308 156.794 382.767 159.075Z" fill="white"/>
<path d="M351.718 172.793C351.715 172.624 351.712 172.454 351.793 172.293C351.804 172.951 351.816 173.608 351.827 174.285C350.997 186.325 352.115 198.481 353.427 210.513C356.882 242.235 361.475 274.136 372.525 304.22C383.575 334.305 401.628 362.753 428.102 382.127C429.601 384.294 430.793 384.214 429.601 389.266C403.127 369.892 382.682 340.308 371.59 310.215C360.497 280.121 355.947 248.229 352.491 216.477C350.906 201.959 349.537 187.237 351.718 172.793Z" fill="white"/>
<path fill-rule="evenodd" clip-rule="evenodd" d="M381.44 107.685C381.029 108.295 380.684 108.944 380.411 109.621C380.287 110.088 380.224 110.568 380.223 111.05C380.075 112.302 380.622 113.537 381.662 114.297C382.197 114.64 382.853 114.76 383.482 114.629C384.11 114.499 384.657 114.129 384.999 113.603C385.144 113.338 385.199 113.053 385.256 112.763C385.336 112.351 385.418 111.929 385.76 111.538C386.036 111.224 386.434 111.046 386.83 110.87C387.272 110.673 387.71 110.478 387.968 110.095C388.089 109.916 388.183 109.696 388.274 109.48C388.433 109.106 388.586 108.745 388.867 108.643C389.169 108.533 389.48 108.641 389.796 108.752C389.944 108.803 390.093 108.855 390.243 108.886C390.998 109.036 391.654 108.62 392.327 108.195C392.794 107.899 393.269 107.599 393.791 107.48C394.842 107.243 395.817 107.772 396.795 108.303C397.195 108.52 397.597 108.738 398.004 108.904C398.511 109.091 399.05 109.21 399.587 109.329C400.23 109.47 400.872 109.612 401.455 109.869C402.669 110.399 402.987 111.395 403.309 112.406C403.587 113.277 403.868 114.16 404.73 114.766C404.866 114.863 405.017 114.951 405.168 115.038C405.576 115.274 405.984 115.51 406.101 115.942C406.146 116.273 406.089 116.61 405.937 116.909C405.285 118.489 404.483 120.007 403.539 121.444C400.082 121.193 396.61 121.189 393.152 121.43C392.715 121.459 391.903 121.613 390.947 121.794C388.695 122.221 385.643 122.8 384.82 122.253C384.314 121.924 383.657 121.904 383.129 122.2C382.406 122.639 382.177 123.553 382.612 124.26C382.681 124.377 382.736 124.499 382.778 124.627L382.781 124.811C382.742 125.008 382.725 125.207 382.728 125.407C382.736 125.724 382.854 126.029 383.062 126.273C382.719 127.982 383.235 129.746 384.453 131.029C388.279 135.824 398.616 137.233 402.368 131.742C402.694 131.266 402.986 130.769 403.279 130.273C403.693 129.569 404.107 128.866 404.614 128.225C404.909 127.856 405.237 127.501 405.566 127.145C406.431 126.21 407.297 125.272 407.561 124.071C407.591 123.324 407.792 122.591 408.151 121.927C408.261 121.797 408.408 121.686 408.56 121.571C408.808 121.383 409.069 121.185 409.196 120.884C409.313 120.604 409.318 120.346 409.324 120.062C409.328 119.853 409.332 119.63 409.382 119.373C409.469 118.92 409.829 118.583 410.188 118.246C410.312 118.131 410.435 118.016 410.547 117.896C412.88 115.39 411.111 111.281 409.734 108.081C409.386 107.274 409.063 106.525 408.838 105.874C408.811 105.799 408.783 105.722 408.755 105.642C408.214 104.13 407.363 101.751 405.746 101.097C405.366 100.99 404.97 100.945 404.574 100.963C403.673 100.884 402.932 100.349 402.188 99.8122C401.481 99.3021 400.771 98.79 399.92 98.665C399.618 98.6612 399.322 98.589 399.055 98.4544C398.84 98.2511 398.666 98.0106 398.543 97.7454C398.004 96.9656 397.446 97.1688 396.874 97.3772C396.614 97.4722 396.35 97.5683 396.084 97.5729C395.297 97.4488 394.496 97.4248 393.701 97.5017C392.989 97.8138 392.42 98.3676 392.102 99.0579C391.471 98.6381 390.623 98.6911 390.052 99.1859C389.504 99.6695 388.902 100.093 388.256 100.448C388.027 100.532 387.788 100.577 387.549 100.622C387.327 100.665 387.105 100.707 386.891 100.78C386.399 100.978 385.956 101.272 385.588 101.643C384.144 102.927 383.225 104.558 382.311 106.179C382.026 106.686 381.741 107.191 381.44 107.685ZM394.094 125.24C394.659 125.312 395.207 125.382 395.722 125.42C397.117 125.373 398.501 125.17 399.843 124.817C397.882 127.646 394.111 128.997 390.545 128.148C389.318 127.791 388.114 127.371 386.939 126.892C387.019 126.755 387.073 126.606 387.099 126.453C387.303 126.253 387.525 126.068 387.762 125.901C389.562 124.661 391.954 124.967 394.094 125.24Z" fill="white"/>
<path d="M438.452 249.542C441.113 253.342 440.619 261.706 440.955 266.234C441.079 268.276 442.579 276.953 440.316 278.305C439.014 279.083 435.892 268.052 435.653 267.219C434.862 264.484 433.641 261.642 434.134 258.95C434.69 255.84 436.12 251.629 438.452 249.542Z" fill="white"/>
<path d="M342.446 254.348C343.027 252.413 343.344 250.265 344.831 248.801C346.512 247.077 348.655 245.714 351.084 244.822C351.211 244.652 351.338 244.481 351.466 244.33C351.604 244.417 351.728 244.518 351.837 244.631C351.844 244.66 351.844 244.69 351.839 244.72C353.2 246.204 353.112 249.975 353.324 251.946C353.459 252.936 354.591 256.825 353.114 258.2C352.265 258.988 350.011 254.414 349.828 254.07C349.509 253.421 349.096 252.803 348.848 252.103C348.02 253.408 347.19 254.622 346.616 255.595C345.847 256.878 343.277 262.667 341.08 262.705C339.874 262.716 342.268 254.937 342.446 254.348Z" fill="white"/>
<path d="M399.457 144.454C399.299 144.009 399.265 143.529 399.359 143.066C399.54 142.612 399.834 142.212 400.212 141.903L403.315 138.89C402.763 145.218 406.52 149.512 412.354 151.032C418.399 152.611 424.69 154.418 429.1 158.7C432.791 162.237 438.651 165.393 439.788 170.28C440.379 173.001 444.53 187.197 444.925 199.421C445.524 217.93 442.191 236.345 441.888 238.602C441.45 241.853 439.022 245.244 436.365 238.846C434.268 233.828 435.506 232.827 435.639 227.759C435.82 221.238 435.811 214.709 435.508 208.196C434.876 194.908 434.9 176.395 424.022 166.771C424.969 169.957 425.487 173.256 425.561 176.579C425.705 181.189 425.524 185.878 425.226 190.548C425.221 191.195 425.023 191.825 424.658 192.359C424.166 192.955 423.427 193.29 422.654 193.268C421.127 193.288 419.623 192.896 418.3 192.133C416.961 191.377 416.068 189.613 415.079 188.419C412.836 185.805 410.73 183.076 408.771 180.242C405.36 175.257 395.01 161.528 402.142 156.033C403.031 155.414 403.722 154.55 404.129 153.544C405.128 150.536 400.511 148.174 399.457 144.454Z" fill="white"/>
</g>
<g clip-path="url(#clip1_3893_182414)">
<path d="M329.382 258.093V234.149L355.826 208L459.222 214.096V239.586L457.332 241.292L449.675 248.126C449.675 248.126 439.263 262.356 434.399 267.22C429.536 272.084 424.852 274.858 424.852 274.858L361.842 271.039L346.567 259.582L329.382 258.093Z" fill="black"/>
<path fill-rule="evenodd" clip-rule="evenodd" d="M358.022 213.756L453.493 218.923V234.76L358.022 229.593V213.756Z" fill="white"/>
<path fill-rule="evenodd" clip-rule="evenodd" d="M335.109 234.76L358.022 213.757V230.274L335.109 250.035L335.109 234.76Z" fill="#DEE3E9"/>
<path fill-rule="evenodd" clip-rule="evenodd" d="M358.058 229.425L453.493 235.131L432.49 254.225L338.929 250.406L358.058 229.425Z" fill="black"/>
<path d="M433.387 649.48L433.381 652.337H353.313L353.306 649.48C353.118 565.707 353.395 523.987 354.138 470.852C354.933 413.996 356.686 336.873 359.129 254.141L359.193 251.974L361.296 251.447C374.43 248.156 385.043 246.26 393.172 245.765H393.521C401.65 246.26 412.264 248.156 425.397 251.447L427.5 251.974L427.564 254.141C430.007 336.873 431.76 413.996 432.555 470.852C433.298 523.987 433.576 565.707 433.387 649.48Z" fill="black"/>
<path d="M364.524 265.588C372.351 262.77 382.81 261.049 394.3 261.049C404.871 261.049 414.569 262.506 422.148 264.933C424.428 343.598 426.066 416.548 426.826 470.932C427.561 523.426 427.84 564.165 427.664 646.609C427.664 646.609 391.297 640.565 380.934 631.918C362.329 616.393 360.006 588.932 359.931 553.632C359.755 471.188 359.131 523.426 359.865 470.932C360.623 416.699 364.524 265.588 364.524 265.588Z" fill="#DEE3E9"/>
<rect x="377.116" y="274.858" width="36.2788" height="320.781" rx="18.1394" fill="white"/>
<path fill-rule="evenodd" clip-rule="evenodd" d="M360.549 261.492C356.354 259.031 353.282 256.011 351.217 252.579C345.472 243.033 370.506 236.67 394.301 236.67C418.096 236.67 443.13 243.033 437.385 252.579C435.321 256.011 432.248 259.031 428.054 261.492C419.998 257.99 407.868 255.761 394.301 255.761C380.734 255.761 368.604 257.99 360.549 261.492Z" fill="#DEE3E9"/>
<path fill-rule="evenodd" clip-rule="evenodd" d="M394.301 242.398C415.701 242.398 438.2 250.619 433.855 257.673C430.487 252.567 412.017 247.727 394.301 247.727C376.584 247.727 358.115 252.567 354.746 257.673C350.402 250.619 372.9 242.398 394.301 242.398Z" fill="black"/>
<path fill-rule="evenodd" clip-rule="evenodd" d="M394.3 240.488C409.576 240.488 428.67 246.217 433.855 253.854C430.486 248.748 412.017 243.908 394.3 243.908C376.584 243.908 358.115 248.748 354.746 253.854C358.022 246.217 379.025 240.488 394.3 240.488Z" fill="white"/>
<path fill-rule="evenodd" clip-rule="evenodd" d="M360.537 258.502C363.764 253.684 379.345 250.669 394.301 250.669C409.257 250.669 424.838 253.684 428.065 258.502C428.829 259.643 428.9 262.708 428.107 264.035C424.975 259.179 409.323 256.138 394.301 256.138C379.279 256.138 363.627 259.179 360.495 264.035C359.702 262.708 359.773 259.643 360.537 258.502Z" fill="white"/>
<path fill-rule="evenodd" clip-rule="evenodd" d="M415.681 270.657C417.421 270.657 418.851 272.196 418.875 274.094L422.943 609.387C422.967 611.285 421.31 612.824 419.241 612.824C417.173 612.824 415.483 611.285 415.466 609.387L412.561 274.094C412.544 272.196 413.941 270.657 415.681 270.657Z" fill="white"/>
<path fill-rule="evenodd" clip-rule="evenodd" d="M413.771 270.657C415.511 270.657 416.941 272.196 416.965 274.094L421.033 609.387C421.056 611.285 419.399 612.824 417.331 612.824C415.263 612.824 413.573 611.285 413.556 609.387L410.651 274.094C410.633 272.196 412.03 270.657 413.771 270.657Z" fill="black"/>
<path fill-rule="evenodd" clip-rule="evenodd" d="M402.095 267.22C403.963 267.22 405.487 268.759 405.498 270.657L407.37 605.95C407.381 607.848 405.59 609.387 403.369 609.387C401.148 609.387 399.345 607.848 399.342 605.95L398.718 270.657C398.714 268.759 400.226 267.22 402.095 267.22Z" fill="white"/>
<path fill-rule="evenodd" clip-rule="evenodd" d="M400.184 267.22C402.053 267.22 403.577 268.759 403.588 270.657L405.46 605.95C405.471 607.848 403.679 609.387 401.459 609.387C399.238 609.387 397.435 607.848 397.432 605.95L396.808 270.657C396.804 268.759 398.316 267.22 400.184 267.22Z" fill="black"/>
<path fill-rule="evenodd" clip-rule="evenodd" d="M388.418 267.22C390.286 267.22 391.798 268.759 391.795 270.657L391.171 605.95C391.167 607.848 389.364 609.387 387.143 609.387C384.923 609.387 383.132 607.848 383.143 605.95L385.014 270.657C385.025 268.759 386.549 267.22 388.418 267.22Z" fill="white"/>
<path fill-rule="evenodd" clip-rule="evenodd" d="M386.509 267.22C388.377 267.22 389.889 268.759 389.885 270.657L389.261 605.95C389.258 607.848 387.455 609.387 385.234 609.387C383.014 609.387 381.222 607.848 381.233 605.95L383.105 270.657C383.116 268.759 384.64 267.22 386.509 267.22Z" fill="black"/>
<path fill-rule="evenodd" clip-rule="evenodd" d="M374.831 270.657C376.572 270.657 377.969 272.196 377.952 274.094L375.046 609.387C375.029 611.285 373.339 612.824 371.271 612.824C369.203 612.824 367.546 611.285 367.57 609.387L371.637 274.094C371.661 272.196 373.091 270.657 374.831 270.657Z" fill="white"/>
<path fill-rule="evenodd" clip-rule="evenodd" d="M372.922 270.657C374.663 270.657 376.059 272.196 376.042 274.094L373.137 609.387C373.12 611.285 371.43 612.824 369.362 612.824C367.294 612.824 365.637 611.285 365.66 609.387L369.728 274.094C369.752 272.196 371.182 270.657 372.922 270.657Z" fill="black"/>
</g>
<path d="M455.176 311.592L455.183 311.585C456.214 310.504 457.41 308.683 458.378 306.737C459.343 304.796 460.176 302.545 460.338 300.585C460.486 298.8 460.574 293.663 460.222 288.517C460.045 285.94 459.755 283.316 459.294 281.084C459.063 279.968 458.784 278.922 458.443 278.015C458.126 277.175 457.728 276.376 457.205 275.752C453.371 269.427 445.36 266.758 437.919 266.295C434.129 266.059 430.361 266.383 427.14 267.15C423.971 267.904 421.154 269.129 419.425 270.835C416.51 273.583 413.787 278.303 411.94 283.165C410.114 287.973 409.025 293.232 409.625 297.185C409.668 306.508 414.973 313.293 418.79 316.548C414.666 319.202 410.657 322.484 406.619 325.791C405.302 326.869 403.983 327.95 402.655 329.012C399.346 331.659 395.628 337.078 392.74 344.41C389.836 351.785 387.719 361.225 387.719 372.039C387.719 378.23 387.061 387.823 386.319 398.629C385.792 406.313 385.223 414.611 384.818 422.736C384.334 432.46 384.089 441.905 384.455 449.621C384.638 453.478 384.975 456.938 385.522 459.802C386.061 462.627 386.832 465.033 387.981 466.656C389.204 468.384 391.551 469.741 394.381 470.848C397.274 471.979 400.928 472.944 405.056 473.747C413.32 475.354 423.652 476.344 433.979 476.662C444.306 476.98 454.686 476.629 463.045 475.534C467.222 474.987 470.936 474.249 473.903 473.299C476.806 472.369 479.239 471.162 480.579 469.519C481.794 468.029 482.85 465.853 483.784 463.25C484.725 460.624 485.577 457.461 486.339 453.919C487.864 446.833 489.05 438.132 489.865 428.977C491.493 410.682 491.652 390.399 490 377.326C488.365 364.385 486.682 354.696 484.313 347.386C481.934 340.048 478.828 334.992 474.278 331.432C471.137 328.975 469.078 327.269 467.528 325.985C466.986 325.536 466.507 325.139 466.065 324.779C464.338 323.373 463.19 322.541 461.295 321.568C458.058 319.906 456.191 318.038 454.394 315.934C453.997 315.011 453.869 314.342 453.937 313.769C454.005 313.188 454.302 312.496 455.176 311.592Z" fill="black" stroke="black" stroke-width="2.85537"/>
<path d="M467.324 336.201C463.437 332.8 455.176 328.305 451.532 326.483C435.739 341.061 392.613 457.076 397.472 460.72C402.332 464.365 419.946 465.579 431.487 464.365C437.271 463.756 458.213 402.409 455.615 401.194C453.017 399.979 404.836 459.437 405.976 454.646C407.139 449.76 460.268 375.975 461.25 371.431C465.464 351.923 468.983 337.653 467.324 336.201Z" fill="#DEE3E9"/>
<path d="M427.235 399.979C426.749 395.12 453.961 333.772 456.998 329.52C461.857 331.342 466.716 335.594 466.716 335.594C453.758 358.675 427.721 404.838 427.235 399.979Z" fill="white"/>
<path d="M421.768 360.498C423.59 361.105 399.294 421.846 401.724 423.668C404.153 425.491 432.337 339.239 440.598 324.661C429.665 322.231 422.376 322.838 412.657 330.735C404.882 337.052 409.013 372.646 406.583 373.253C404.154 373.861 403.668 358.19 401.724 346.527C396.865 356.732 391.398 413.342 394.435 413.95C397.472 414.557 419.946 359.891 421.768 360.498Z" fill="#DEE3E9"/>
<path d="M448.264 276.926C444.012 272.675 434.9 272.877 430.649 273.89C426.398 274.581 420.323 276.926 417.893 282.394C415.463 287.861 416.07 295.149 416.07 298.794C416.07 302.438 418.124 305.223 421.161 309.475C422.481 311.323 427.227 312.464 430.272 314.942C432.407 316.678 432.702 321.623 432.702 321.623L438.169 321.623C438.169 321.623 439.658 317.137 440.598 314.942C447.28 310.083 445.081 314.334 449.102 308.868C453.123 303.401 453.961 299.149 454.569 292.468C455.176 285.786 453.161 281.823 448.264 276.926Z" fill="white"/>
<mask id="path-50-outside-1_3893_182414" maskUnits="userSpaceOnUse" x="427.035" y="321.483" width="18" height="58" fill="black">
<rect fill="white" x="427.035" y="321.483" width="18" height="58"/>
<path d="M436.346 374.468C431.9 374.468 431.167 337.011 432.901 326.483L438.753 326.483C440.703 337.416 440.792 374.468 436.346 374.468Z"/>
</mask>
<path d="M436.346 374.468C431.9 374.468 431.167 337.011 432.901 326.483L438.753 326.483C440.703 337.416 440.792 374.468 436.346 374.468Z" fill="white"/>
<path d="M432.901 326.483L432.901 321.624L428.777 321.624L428.107 325.693L432.901 326.483ZM438.753 326.483L443.536 325.629L442.822 321.624L438.753 321.624L438.753 326.483ZM428.107 325.693C427.152 331.489 426.927 343.911 427.453 354.661C427.718 360.08 428.185 365.335 428.907 369.318C429.261 371.267 429.723 373.189 430.376 374.732C430.695 375.487 431.182 376.448 431.944 377.295C432.721 378.159 434.196 379.327 436.346 379.327L436.346 369.609C437.941 369.609 438.889 370.485 439.168 370.795C439.432 371.088 439.448 371.234 439.326 370.944C439.094 370.397 438.783 369.311 438.47 367.584C437.859 364.215 437.417 359.448 437.16 354.186C436.641 343.575 436.917 332.005 437.696 327.272L428.107 325.693ZM436.346 379.327C438.493 379.327 439.971 378.166 440.763 377.274C441.527 376.412 442.003 375.437 442.31 374.68C442.937 373.133 443.359 371.214 443.67 369.28C444.307 365.322 444.659 360.101 444.806 354.708C445.098 343.99 444.601 331.595 443.536 325.629L433.969 327.336C434.855 332.304 435.378 343.902 435.091 354.443C434.948 359.68 434.611 364.405 434.075 367.736C433.8 369.446 433.514 370.507 433.303 371.03C433.19 371.307 433.214 371.139 433.492 370.825C433.797 370.481 434.756 369.609 436.346 369.609L436.346 379.327ZM438.753 321.624L432.901 321.624L432.901 331.342L438.753 331.342L438.753 321.624Z" fill="black" mask="url(#path-50-outside-1_3893_182414)"/>
<mask id="mask0_3893_182414" style="mask-type:alpha" maskUnits="userSpaceOnUse" x="397" y="326" width="71" height="139">
<path d="M467.324 336.201C463.437 332.8 455.176 328.305 451.532 326.483C435.739 341.06 392.613 457.076 397.472 460.72C402.332 464.364 419.946 465.579 431.487 464.364C437.271 463.756 458.213 402.409 455.615 401.194C453.017 399.979 404.836 459.437 405.976 454.646C407.139 449.76 460.268 375.975 461.25 371.431C465.464 351.923 468.983 337.652 467.324 336.201Z" fill="#DEE3E9"/>
</mask>
<g mask="url(#mask0_3893_182414)">
<path d="M444.846 419.041C445.175 422.209 428.683 462.201 426.628 464.972C420.05 464.972 413.265 465.58 413.265 465.58C422.035 450.533 444.517 415.874 444.846 419.041Z" fill="white"/>
</g>
<path d="M472.183 458.291C488.705 413.1 472.791 341.669 472.183 344.706C471.576 347.743 461.825 401.613 452.746 433.388C447.887 450.395 467.324 407.876 464.287 427.313C461.25 446.751 445.457 463.151 447.887 463.758C450.316 464.365 467.324 463.758 472.183 458.291Z" fill="#DEE3E9"/>
<mask id="mask1_3893_182414" style="mask-type:alpha" maskUnits="userSpaceOnUse" x="447" y="344" width="33" height="120">
<path d="M472.183 458.291C488.705 413.1 472.791 341.669 472.183 344.706C471.576 347.743 461.825 401.613 452.746 433.388C447.887 450.395 467.324 407.876 464.287 427.313C461.25 446.751 445.457 463.151 447.887 463.758C450.316 464.365 467.324 463.758 472.183 458.291Z" fill="#DEE3E9"/>
</mask>
<g mask="url(#mask1_3893_182414)">
<path d="M469.795 414.903C467.524 411.044 464.458 350.537 465.377 345.822C473.535 342.067 481.593 337.417 481.593 337.417C479.565 361.647 472.066 418.762 469.795 414.903Z" fill="white"/>
</g>
<path d="M392.636 450.028C392.307 439.913 395.623 416.987 397.155 417.595C398.687 418.202 398.387 432.987 397.155 437.384C395.923 441.782 393.047 462.671 392.636 450.028Z" fill="#DEE3E9"/>
<path d="M586.049 254.022C592.936 242.44 615.855 243.524 621.676 249.293C627.075 254.371 632.201 267.306 631.04 274.504C631.04 284.789 624.204 291.855 620.786 294.102C626.787 297.65 632.472 302.699 638.546 307.558C644.62 312.417 652.946 328.21 652.946 349.47C652.946 370.729 660.686 432.329 652.946 443.262C645.207 454.196 571.124 456.476 562.62 446.047C554.116 435.619 550.241 380.803 553.509 354.936C556.777 329.069 560.19 316.641 568.694 309.988C577.198 303.334 577.9 302.091 581.45 300.269C585 298.447 587.02 296.374 588.92 294.132C589.931 291.896 589.979 290.136 587.943 288.03C586.149 286.149 583.459 281.292 583.177 277.898C582.896 274.504 582.817 257.645 586.049 254.022Z" fill="black"/>
<path d="M589.442 267.785C589.441 277.809 587.846 269.78 594.583 278.045C596.966 280.968 598.01 289.243 599.225 289.243C600.44 289.243 607.121 277.702 608.295 278.045C609.468 278.387 605.299 288.636 605.848 288.764C606.396 288.892 612.588 278.31 613.043 278.717C613.499 279.124 607.121 291.065 608.511 291.726C609.901 292.387 612.588 286.813 613.143 287.154C613.698 287.494 611.711 294.86 613.043 295.317C614.375 295.774 625.951 277.014 625.951 272.236C625.951 260.43 617.557 250.682 605.725 250.683C593.893 250.683 589.442 255.979 589.442 267.785Z" fill="white"/>
<path d="M574.769 313.632C578.656 310.231 586.917 305.736 590.561 303.914C606.353 318.492 649.48 434.507 644.621 438.151C639.761 441.796 622.146 443.01 610.606 441.796C604.821 441.187 583.88 379.84 586.478 378.625C589.076 377.41 637.257 436.868 636.117 432.077C634.954 427.191 581.824 353.406 580.843 348.862C576.629 329.354 573.11 315.083 574.769 313.632Z" fill="#DEE3E9"/>
<path d="M614.858 377.41C615.344 372.551 588.132 311.203 585.095 306.951C580.236 308.773 575.376 313.025 575.376 313.025C588.334 336.106 614.372 382.27 614.858 377.41Z" fill="white"/>
<path d="M620.324 337.929C618.502 338.536 642.798 399.277 640.369 401.099C637.939 402.922 609.755 316.67 601.495 302.092C612.428 299.662 619.717 300.27 629.436 308.166C637.21 314.483 633.08 350.077 635.51 350.684C637.939 351.292 638.425 335.621 640.369 323.958C645.228 334.163 650.694 390.773 647.658 391.381C644.621 391.988 622.146 337.322 620.324 337.929Z" fill="#DEE3E9"/>
<mask id="mask2_3893_182414" style="mask-type:alpha" maskUnits="userSpaceOnUse" x="574" y="303" width="71" height="140">
<path d="M574.769 313.632C578.656 310.231 586.917 305.736 590.561 303.914C606.353 318.491 649.48 434.506 644.621 438.151C639.761 441.795 622.146 443.01 610.606 441.795C604.821 441.186 583.88 379.84 586.478 378.625C589.076 377.41 637.257 436.868 636.117 432.077C634.954 427.191 581.824 353.406 580.843 348.862C576.629 329.353 573.11 315.083 574.769 313.632Z" fill="#DEE3E9"/>
</mask>
<g mask="url(#mask2_3893_182414)">
<path d="M597.247 396.472C596.918 399.639 613.409 439.631 615.465 442.403C622.043 442.403 628.828 443.01 628.828 443.01C620.058 427.964 597.576 393.304 597.247 396.472Z" fill="white"/>
</g>
<path d="M569.909 435.721C553.387 390.53 569.301 319.099 569.909 322.136C570.516 325.173 580.267 379.043 589.346 410.818C594.205 427.825 574.768 385.307 577.805 404.744C580.842 424.181 596.635 440.581 594.205 441.188C591.775 441.796 574.768 441.188 569.909 435.721Z" fill="#DEE3E9"/>
<mask id="mask3_3893_182414" style="mask-type:alpha" maskUnits="userSpaceOnUse" x="562" y="322" width="33" height="120">
<path d="M569.909 435.722C553.387 390.53 569.301 319.099 569.909 322.136C570.516 325.173 580.267 379.043 589.346 410.818C594.205 427.825 574.768 385.307 577.805 404.744C580.842 424.181 596.635 440.581 594.205 441.188C591.775 441.796 574.768 441.188 569.909 435.722Z" fill="#DEE3E9"/>
</mask>
<g mask="url(#mask3_3893_182414)">
<path d="M572.297 392.333C574.568 388.474 577.634 327.967 576.715 323.252C568.557 319.497 560.499 314.847 560.499 314.847C562.527 339.077 570.026 396.192 572.297 392.333Z" fill="white"/>
</g>
<path d="M649.457 427.458C649.785 417.343 646.469 394.418 644.938 395.025C643.406 395.633 643.705 410.417 644.938 414.815C646.17 419.212 649.046 440.101 649.457 427.458Z" fill="#DEE3E9"/>
<path d="M294.683 268.43C287.797 256.847 264.877 257.932 259.056 263.7C253.658 268.779 248.532 281.713 249.692 288.911C249.692 299.196 256.529 306.262 259.947 308.509C253.945 312.058 248.26 317.106 242.186 321.966C236.112 326.825 227.786 342.617 227.786 363.877C227.786 385.136 220.047 446.736 227.786 457.67C235.525 468.603 309.609 470.883 318.112 460.455C326.616 450.026 330.492 395.21 327.223 369.343C323.955 343.477 320.542 331.049 312.038 324.395C303.535 317.742 302.832 316.499 299.283 314.677C295.733 312.854 293.713 310.781 291.812 308.539C290.802 306.304 290.753 304.544 292.789 302.438C294.584 300.557 297.274 295.7 297.555 292.305C297.836 288.911 297.916 272.052 294.683 268.43Z" fill="black"/>
<path d="M291.292 282.192C291.292 292.216 292.887 284.187 286.15 292.453C283.768 295.376 282.723 303.65 281.509 303.65C280.294 303.65 273.612 292.11 272.439 292.452C271.265 292.795 275.434 303.043 274.886 303.171C274.337 303.299 268.146 292.717 267.69 293.124C267.234 293.531 273.612 305.473 272.222 306.133C270.832 306.794 268.146 301.221 267.59 301.561C267.035 301.901 269.022 309.268 267.69 309.724C266.358 310.181 254.783 291.421 254.783 286.643C254.782 274.837 263.176 265.09 275.009 265.09C286.841 265.09 291.291 270.386 291.292 282.192Z" fill="white"/>
<path d="M305.964 328.04C302.076 324.638 293.816 320.143 290.171 318.321C274.379 332.899 231.253 448.914 236.112 452.558C240.971 456.203 258.586 457.418 270.127 456.203C275.911 455.594 296.852 394.247 294.254 393.032C291.656 391.818 243.475 451.275 244.615 446.484C245.778 441.598 298.908 367.814 299.89 363.269C304.104 343.761 307.622 329.491 305.964 328.04Z" fill="#DEE3E9"/>
<path d="M265.875 391.818C265.389 386.958 292.6 325.61 295.638 321.358C300.497 323.18 305.356 327.432 305.356 327.432C292.398 350.514 266.361 396.677 265.875 391.818Z" fill="white"/>
<path d="M260.408 352.336C262.23 352.943 237.934 413.684 240.364 415.507C242.793 417.329 270.977 331.077 279.238 316.499C268.304 314.069 261.015 314.677 251.297 322.573C243.522 328.89 247.652 364.484 245.223 365.092C242.793 365.699 242.307 350.028 240.364 338.366C235.504 348.57 230.038 405.18 233.075 405.788C236.112 406.395 258.586 351.729 260.408 352.336Z" fill="#DEE3E9"/>
<mask id="mask4_3893_182414" style="mask-type:alpha" maskUnits="userSpaceOnUse" x="235" y="318" width="72" height="139">
<path d="M305.964 328.039C302.076 324.638 293.816 320.143 290.171 318.321C274.379 332.899 231.253 448.914 236.112 452.558C240.971 456.203 258.586 457.417 270.127 456.203C275.911 455.594 296.852 394.247 294.254 393.032C291.656 391.817 243.475 451.275 244.615 446.484C245.778 441.598 298.908 367.813 299.89 363.269C304.104 343.761 307.622 329.491 305.964 328.039Z" fill="#DEE3E9"/>
</mask>
<g mask="url(#mask4_3893_182414)">
<path d="M283.485 410.879C283.814 414.047 267.323 454.039 265.268 456.81C258.69 456.81 251.904 457.418 251.904 457.418C260.675 442.371 283.156 407.711 283.485 410.879Z" fill="white"/>
</g>
<path d="M310.823 450.129C327.344 404.938 311.43 333.506 310.823 336.543C310.215 339.58 300.464 393.45 291.386 425.225C286.526 442.233 305.964 399.714 302.927 419.151C299.889 438.588 284.097 454.988 286.526 455.596C288.956 456.203 305.964 455.596 310.823 450.129Z" fill="#DEE3E9"/>
<mask id="mask5_3893_182414" style="mask-type:alpha" maskUnits="userSpaceOnUse" x="286" y="336" width="33" height="120">
<path d="M310.823 450.129C327.344 404.938 311.43 333.506 310.823 336.543C310.215 339.58 300.464 393.45 291.386 425.225C286.526 442.233 305.964 399.714 302.927 419.151C299.889 438.588 284.097 454.988 286.526 455.596C288.956 456.203 305.964 455.596 310.823 450.129Z" fill="#DEE3E9"/>
</mask>
<g mask="url(#mask5_3893_182414)">
<path d="M308.435 406.74C306.164 402.881 303.097 342.374 304.017 337.659C312.174 333.904 320.233 329.255 320.233 329.255C318.204 353.484 310.705 410.599 308.435 406.74Z" fill="white"/>
</g>
<path d="M231.276 441.866C230.947 431.751 234.263 408.825 235.795 409.433C237.326 410.04 237.027 424.825 235.795 429.222C234.562 433.62 231.686 454.509 231.276 441.866Z" fill="#DEE3E9"/>
<path d="M503.997 268.348C510.883 256.766 533.803 257.851 539.624 263.619C545.022 268.697 550.148 281.632 548.988 288.83C548.988 299.115 542.151 306.181 538.733 308.428C544.735 311.977 546.677 315.064 553.181 317.66C559.483 320.215 566.021 323.074 567.909 329.75C567.909 329.75 564.466 446.655 556.727 457.588C548.988 468.522 493.555 470.447 485.051 460.018C476.547 449.59 477.886 375.729 478.977 370.729C480.267 364.658 478.216 351.82 477.218 345.57L477.19 345.393C476.377 340.226 476.775 331.076 480.801 326.388C485.903 320.419 486.668 316.307 495.884 314.674C499.367 314.068 500.449 312.909 503.838 312.009C503.838 312.009 504.967 310.7 506.868 308.458C507.878 306.223 507.927 304.463 505.891 302.357C504.096 300.476 501.406 295.619 501.125 292.224C500.844 288.83 500.764 271.971 503.997 268.348Z" fill="black"/>
<path d="M491.078 388.971L493.677 447.245L505.299 438.051L491.078 388.971Z" fill="#DEE3E9"/>
<path fill-rule="evenodd" clip-rule="evenodd" d="M502.439 323.573C502.648 327.74 511.309 369.412 530.746 418.004C507.664 369.412 500.375 332.967 499.62 323.052C497.946 323.249 497.42 326.439 497.475 328.656C497.946 347.545 512.886 395.268 524.374 418.248C526.767 423.615 531.84 434.232 531.84 434.232C531.84 434.232 547.375 437.844 547.418 437.812L549.384 407.781L540.007 412.725C533.521 415.23 537.285 412.186 538.713 411.031C538.968 410.824 539.149 410.678 539.183 410.635C539.229 410.617 539.264 410.571 539.299 410.526C539.311 410.51 539.323 410.495 539.335 410.481C540.803 409.228 543.785 406.804 543.785 406.804C543.785 406.804 526.257 375.596 522.13 368.967C524.28 371.308 532.843 381.984 539.804 390.664C545.006 397.149 549.313 402.521 549.384 402.467C549.384 402.467 551.632 386.073 551.121 385.727C546.729 382.25 520.882 358.788 520.882 358.788L553.688 381.055L554.71 366.521C554.71 366.521 535.01 358.24 525.887 347.545C516.763 336.85 511.309 319.604 511.309 319.604C511.309 319.604 502.805 323.249 502.439 323.573ZM490.207 333.335C490.016 329.791 490.739 325.112 494.375 324.513C492.324 347.439 510.913 396.564 519.937 420.41C522.765 427.885 524.654 432.876 524.672 433.797C524.828 441.674 519.813 439.871 519.813 439.871C519.813 439.871 506.584 413.874 502.247 401.499C501.198 398.333 500.148 395.138 499.188 391.932C498.294 388.868 497.471 385.788 496.722 382.69C492.833 366.501 491.093 349.921 490.207 333.335Z" fill="#DEE3E9"/>
<path d="M488.227 334.182C489.442 382.775 510.858 425.654 518.598 438.656C520.85 442.473 522.731 439.001 519.423 433.395C511.683 420.392 488.227 353.619 490.97 327.259C490.97 327.259 488.069 332.295 488.227 334.182Z" fill="white"/>
<path d="M511.211 322.033L503.594 325.111C503.76 326.307 503.955 327.499 504.178 328.688C507.801 344.164 519.769 386.521 519.294 374.749C518.503 357.299 515.998 339.965 511.81 322.968C511.739 322.658 511.525 322.346 511.211 322.033Z" fill="white"/>
<path d="M550.495 388.966L550.79 385.772L522.242 360.908L550.495 388.966Z" fill="white"/>
<path d="M529.392 339.751C524.692 331.775 517.851 317.884 517.851 317.884C517.851 317.884 534.251 314.847 552.613 324.463C557.333 328.818 556.123 349.405 555.511 359.188C555.511 359.188 535.345 349.854 529.392 339.751Z" fill="white"/>
<path d="M511.777 268.684C516.029 264.432 525.14 264.635 529.392 265.647C533.643 266.338 539.718 268.684 542.148 274.151C544.577 279.618 543.97 286.907 543.97 290.551C543.97 294.195 541.541 294.803 538.504 294.803C535.466 294.803 532.429 299.055 525.748 294.195C519.066 289.336 512.992 296.018 509.348 295.41C505.703 294.803 506.918 291.158 506.311 284.477C505.703 277.795 506.879 273.58 511.777 268.684Z" fill="white"/>
<path d="M182.797 253.941C189.683 242.359 212.603 243.443 218.424 249.212C223.822 254.29 228.948 267.224 227.788 274.422C227.788 284.708 220.951 291.773 217.533 294.02C223.535 297.569 225.477 300.656 231.981 303.253C238.283 305.807 244.821 308.666 246.709 315.343C246.709 315.343 243.266 432.248 235.527 443.181C227.788 454.114 172.355 456.039 163.851 445.611C155.347 435.182 156.686 361.322 157.777 356.321C159.067 350.25 157.016 337.412 156.018 331.163L155.99 330.986C155.177 325.818 155.575 316.669 159.601 311.981C164.702 306.012 165.468 301.899 174.684 300.266C178.167 299.661 179.248 298.501 182.637 297.601C182.637 297.601 183.767 296.292 185.668 294.051C186.678 291.815 186.726 290.055 184.691 287.949C182.896 286.068 180.206 281.211 179.925 277.817C179.643 274.422 179.564 257.563 182.797 253.941Z" fill="black"/>
<path d="M169.877 374.563L172.477 432.838L184.099 423.643L169.877 374.563Z" fill="#DEE3E9"/>
<path fill-rule="evenodd" clip-rule="evenodd" d="M181.239 309.165C181.448 313.332 190.109 355.004 209.546 403.597C186.464 355.004 179.175 318.56 178.42 308.645C176.746 308.841 176.22 312.032 176.275 314.249C176.746 333.138 191.686 380.86 203.174 403.84C205.567 409.208 210.64 419.825 210.64 419.825C210.64 419.825 226.175 423.437 226.217 423.404L228.184 393.374L218.807 398.318C212.321 400.823 216.084 397.779 217.512 396.624C217.768 396.417 217.949 396.271 217.982 396.228C218.029 396.209 218.064 396.164 218.099 396.118C218.111 396.103 218.123 396.088 218.135 396.074C219.603 394.82 222.584 392.397 222.584 392.397C222.584 392.397 205.057 361.189 200.93 354.56C203.08 356.9 211.642 367.576 218.604 376.257C223.805 382.742 228.113 388.113 228.184 388.06C228.184 388.06 230.432 371.666 229.921 371.32C225.529 367.842 199.681 344.38 199.681 344.38L232.488 366.648L233.51 352.114C233.51 352.114 213.81 343.832 204.686 333.138C195.563 322.443 190.109 305.197 190.109 305.197C190.109 305.197 181.605 308.841 181.239 309.165ZM169.007 318.928C168.816 315.383 169.539 310.704 173.175 310.105C171.124 333.031 189.713 382.157 198.737 406.003C201.565 413.477 203.453 418.468 203.472 419.389C203.627 427.267 198.612 425.464 198.612 425.464C198.612 425.464 185.384 399.466 181.046 387.091C179.998 383.925 178.948 380.73 177.988 377.525C177.093 374.461 176.271 371.38 175.522 368.282C171.632 352.093 169.892 335.513 169.007 318.928Z" fill="#DEE3E9"/>
<path d="M167.027 319.775C168.242 368.367 189.658 411.246 197.398 424.249C199.65 428.066 201.53 424.594 198.223 418.988C190.483 405.985 167.027 339.212 169.77 312.852C169.77 312.852 166.868 317.887 167.027 319.775Z" fill="white"/>
<path d="M190.011 307.626L182.394 310.703C182.56 311.899 182.755 313.092 182.978 314.28C186.6 329.756 198.569 372.114 198.093 360.342C197.303 342.892 194.798 325.558 190.61 308.56C190.539 308.25 190.325 307.938 190.011 307.626Z" fill="white"/>
<path d="M229.293 374.559L229.589 371.365L201.041 346.5L229.293 374.559Z" fill="white"/>
<path d="M208.191 325.344C203.491 317.368 196.65 303.477 196.65 303.477C196.65 303.477 213.05 300.44 231.412 310.056C236.132 314.41 234.922 334.998 234.31 344.781C234.31 344.781 214.144 335.446 208.191 325.344Z" fill="white"/>
<path d="M210.674 252.513C205.896 248.863 196.892 250.27 192.812 251.837C188.69 253.085 182.979 256.215 181.295 261.956C179.612 267.697 181.179 274.84 181.662 278.453C182.144 282.065 184.549 284.553 188.123 288.365C189.675 290.022 194.53 290.524 197.878 292.577C200.223 294.015 201.171 298.878 201.171 298.878L206.589 298.153C206.589 298.153 207.471 293.509 208.113 291.209C214.091 285.507 212.476 290.013 215.737 284.062C218.998 278.111 219.266 273.785 218.983 267.082C218.699 260.379 216.177 256.718 210.674 252.513Z" fill="white"/>
<mask id="path-96-outside-2_3893_182414" maskUnits="userSpaceOnUse" x="184.343" y="294.546" width="29.8534" height="61.534" fill="black">
<rect fill="white" x="184.343" y="294.546" width="29.8534" height="61.534"/>
<path d="M205.19 302.452C206.274 313.688 202.378 350.327 196.059 349.34C192.693 348.815 192.465 338.02 193.606 326.532C194.606 316.455 198.347 306.705 200.258 302.024L205.19 302.452Z"/>
</mask>
<path d="M205.19 302.452C206.274 313.688 202.378 350.327 196.059 349.34C192.693 348.815 192.465 338.02 193.606 326.532C194.606 316.455 198.347 306.705 200.258 302.024L205.19 302.452Z" fill="white"/>
<path d="M205.19 302.452L210.026 301.985L209.638 297.961L205.61 297.611L205.19 302.452ZM200.258 302.024L200.678 297.183L197.112 296.873L195.759 300.188L200.258 302.024ZM193.606 326.532L188.77 326.052L193.606 326.532ZM195.31 354.141C198.788 354.685 201.107 352.415 202.174 351.017C203.335 349.495 204.203 347.547 204.882 345.641C206.271 341.743 207.372 336.553 208.202 331.229C209.856 320.626 210.626 308.195 210.026 301.985L200.353 302.92C200.838 307.946 200.203 319.452 198.6 329.731C197.802 334.847 196.812 339.335 195.727 342.38C195.169 343.946 194.704 344.786 194.447 345.122C194.095 345.583 194.91 344.243 196.809 344.539L195.31 354.141ZM205.61 297.611L200.678 297.183L199.837 306.865L204.769 307.294L205.61 297.611ZM195.759 300.188C193.821 304.936 189.844 315.234 188.77 326.052L198.441 327.011C199.367 317.677 202.874 308.474 204.757 303.86L195.759 300.188ZM188.77 326.052C188.188 331.915 187.93 337.814 188.299 342.433C188.48 344.701 188.834 346.988 189.549 348.884C190.154 350.49 191.706 353.578 195.31 354.141L196.809 344.539C198.73 344.839 198.991 346.381 198.643 345.456C198.404 344.822 198.141 343.593 197.987 341.66C197.685 337.879 197.883 332.636 198.441 327.011L188.77 326.052Z" fill="black" mask="url(#path-96-outside-2_3893_182414)"/>
<path d="M369.229 277.684C362.342 266.102 339.423 267.186 333.601 272.955C328.203 278.033 323.077 290.968 324.238 298.166C324.238 308.451 331.074 315.517 334.492 317.764C328.491 321.313 326.548 324.399 320.044 326.996C313.743 329.55 307.205 332.41 305.317 339.086C305.317 339.086 308.759 455.991 316.499 466.924C324.238 477.858 379.671 479.782 388.175 469.354C396.678 458.925 395.339 385.065 394.249 380.065C392.959 373.994 395.009 361.156 396.007 354.906L396.036 354.729C396.848 349.561 396.45 340.412 392.425 335.724C387.323 329.755 386.557 325.643 377.342 324.01C373.859 323.404 372.777 322.245 369.388 321.344C369.388 321.344 368.258 320.036 366.357 317.794C365.347 315.558 365.299 313.798 367.335 311.692C369.129 309.812 371.819 304.955 372.101 301.56C372.382 298.166 372.461 281.307 369.229 277.684Z" fill="black"/>
<path d="M382.148 398.306L379.549 456.581L367.926 447.386L382.148 398.306Z" fill="#DEE3E9"/>
<path fill-rule="evenodd" clip-rule="evenodd" d="M370.787 332.909C370.577 337.075 361.917 378.748 342.48 427.34C365.561 378.748 372.85 342.303 373.605 332.388C375.28 332.584 375.806 335.775 375.75 337.992C375.28 356.881 360.34 404.603 348.852 427.583C346.458 432.951 341.385 443.568 341.385 443.568C341.385 443.568 325.85 447.18 325.808 447.148L323.841 417.117L333.218 422.061C339.705 424.566 335.941 421.522 334.513 420.367C334.257 420.16 334.077 420.014 334.043 419.971C333.997 419.952 333.962 419.907 333.926 419.861C333.914 419.846 333.903 419.831 333.891 419.817C332.422 418.564 329.441 416.14 329.441 416.14C329.441 416.14 346.969 384.932 351.096 378.303C348.946 380.643 340.383 391.32 333.422 400C328.22 406.485 323.912 411.856 323.841 411.803C323.841 411.803 321.594 395.409 322.105 395.063C326.496 391.586 352.344 368.123 352.344 368.123L319.537 390.391L318.516 375.857C318.516 375.857 338.216 367.576 347.339 356.881C356.463 346.186 361.917 328.94 361.917 328.94C361.917 328.94 370.421 332.584 370.787 332.909ZM383.019 342.671C383.21 339.127 382.487 334.447 378.851 333.848C380.901 356.774 362.312 405.9 353.289 429.746C350.46 437.221 348.572 442.211 348.554 443.133C348.398 451.01 353.413 449.207 353.413 449.207C353.413 449.207 366.641 423.21 370.979 410.834C372.028 407.668 373.077 404.474 374.037 401.268C374.932 398.204 375.754 395.123 376.504 392.025C380.393 375.837 382.133 359.257 383.019 342.671Z" fill="#DEE3E9"/>
<path d="M384.999 343.518C383.784 392.11 362.368 434.99 354.629 447.992C352.376 451.809 350.496 448.337 353.804 442.731C361.543 429.728 384.999 362.955 382.257 336.595C382.257 336.595 385.158 341.631 384.999 343.518Z" fill="white"/>
<path d="M362.015 331.369L369.633 334.446C369.466 335.642 369.272 336.835 369.049 338.024C365.426 353.499 353.458 395.857 353.933 384.085C354.723 366.635 357.228 349.301 361.416 332.304C361.488 331.993 361.702 331.682 362.015 331.369Z" fill="white"/>
<path d="M322.732 398.302L322.436 395.108L350.984 370.244L322.732 398.302Z" fill="white"/>
<path d="M343.835 349.087C348.535 341.111 355.375 327.22 355.375 327.22C355.375 327.22 338.975 324.183 320.613 333.799C315.894 338.153 317.103 358.741 317.715 368.524C317.715 368.524 337.882 359.189 343.835 349.087Z" fill="white"/>
<path d="M365.567 291.489C365.567 301.513 367.163 293.484 360.426 301.75C358.043 304.673 356.999 312.948 355.784 312.948C354.569 312.948 347.888 301.407 346.714 301.749C345.541 302.092 349.71 312.34 349.161 312.468C348.613 312.596 342.421 302.014 341.965 302.421C341.51 302.828 347.888 314.77 346.498 315.431C345.108 316.091 342.421 310.518 341.866 310.858C341.311 311.198 343.297 318.565 341.965 319.022C340.634 319.478 329.058 300.719 329.058 295.94C329.058 284.134 337.452 274.387 349.284 274.387C361.116 274.388 365.567 279.683 365.567 291.489Z" fill="white"/>
<defs>
<clipPath id="clip0_3893_182414">
<rect width="141.532" height="165.261" fill="white" transform="translate(322.888 85.7747)"/>
</clipPath>
<clipPath id="clip1_3893_182414">
<rect width="132.209" height="205.941" fill="white" transform="translate(327.125 206.119)"/>
</clipPath>
</defs>
</svg>
