<svg viewBox="0 0 400 320" xmlns="http://www.w3.org/2000/svg">
  <g fill="none" fill-rule="evenodd">
    <path d="M213.530914 251.991879c45.421649 2.508121 77.468727-18.9510811 74.264834-45.0977117-.821939-6.7077577-3.871873-29.4484413-9.496119-35.8941673-16.298892-18.67951302-45.291436-23.94391036-81.766465-21.6812016-36.7276258 2.27837842-120.79717-10.76964098-125.32646606 0C67.1332376 159.0045652 92.2237807 217.55 103.9882345 217.55c51.9405413 0 64.1210311 31.933758 109.5426795 34.441879z" fill="#000"/>
    <path d="M176 199.0414815c2.342038 15.3206345 24.310964 26.5788654 50.059693 25.3569016 26.476767-1.2522406 46.923891-15.4929041 45.66993-31.8135027-.04082-.5313239-.104133-1.0581559-.189346-1.5801691l.069-.0047113L273 205.1934472l-.054667.0035665c.370525 15.9133084-19.779602 29.5596906-45.717412 30.7216035-25.178104 1.1318622-46.743048-9.6695113-49.877481-24.4849032l-.11007.0071811L176 199.0414815z" stroke="#979797" stroke-width=".5" fill="#D8D8D8"/>
    <path d="M226.647492 221.9073938c-25.100435 1.2612271-46.409822-10.5077821-47.595849-26.2928321-1.186026-15.7874142 18.200431-29.8803247 43.300865-31.4713825 25.100435-1.5867788 46.409822 10.1973668 47.595849 26.3146116 1.186026 16.1148807-18.200431 30.1926549-43.300865 31.449603z" stroke="#979797" stroke-width=".5" fill="#D8D8D8"/>
    <path d="M226.082518 217.1117537C250.927901 215.112818 269.650233 200.7871465 268.213156 185c.312837 1.0552642.535627 2.1363442.662838 3.2403386 1.839452 15.9649001-17.002247 30.5307139-42.084112 32.5276811-25.081865 1.9927163-46.905904-9.0731977-48.745356-24.710436-.017343-.1474232-.032848-.2947381-.046526-.4419357 4.210756 13.920704 24.735234 23.3707105 48.082518 21.4961057z" fill="#FFF"/>
    <path d="M224.745545 171.4137091c-21.984659 1.6440745-38.712507 14.0933123-37.362695 27.8061511.198551 2.0170897.777187 3.9516946 1.689766 5.7801398-1.672941-2.4563475-2.71533-5.1451745-2.996345-7.9993234-1.349813-13.709463 15.378036-26.1652788 37.362695-27.8208431C242.189793 167.7677943 258.70857 174.8052451 264 185.574277c-6.36277-9.4850365-21.846743-15.4623654-39.254455-14.1605679z" fill="#000"/>
    <path d="M243.338303 197.6368662l-29.873604 7.2741088c-1.677102.4062541-3.216462-.6163567-3.438258-2.2838171-.051678-.3885008-.027453-.7916698.071345-1.1874084l5.67118-22.7563808c.424036-1.7046826 2.095402-2.8925563 3.733101-2.6525482.381573.0559587.740492.1881456 1.057066.3893205l24.202425 15.4698305c1.358722.8737292 1.64317 2.7938229.635332 4.2874789-.493922.7317441-1.236672 1.2582748-2.058587 1.4594158z" fill="#FFF"/>
    <path d="M241.483697 199.1287912l-28.214567 6.787893c-1.583963.379225-3.036585-.5719824-3.244522-2.1243663-.048448-.3616899-.025213-.7370777.068431-1.1055863l5.375339-21.1881208c.401916-1.5870119 1.981151-2.6931174 3.527321-2.4699992.360248.0520182.699037.174997.997779.3622002l22.839228 14.3894453c1.282193.812361 1.549076 2.5988984.596102 3.9893287-.467035.6811902-1.168841 1.171569-1.945111 1.3592054z" fill="#000"/>
    <g>
      <path d="M53.03755478 38.01122185c-14.85412304.04443737-28.75702872 11.11660997-36.34726523 26.76785845-7.8910375 16.27150775-8.12576428 35.4417448.8774871 52.4139103 8.24589445 15.54445897 11.5373242 29.48548293 10.25159766 37.29182869-1.35214958 3.09586136-2.11444825 6.17498472-2.12403141 9.37477706-.0141513 4.72497048 1.69938973 9.14979999 4.95811055 12.51272724 1.95514392 22.5824159 12.58454554 46.84370192 27.92116026 64.00258507-1.12022965 2.7615705-1.68830869 5.68618693-1.5899771 8.75397066.19953149 6.2250313 3.19694607 11.5176812 7.92470206 15.42913837 3.38614609 2.80149052 7.59887564 4.8672305 12.52236031 6.39077274 8.25813882 2.55543095 18.84416897 3.6320643 30.22773464 3.20193655 11.3835663-.43012697 21.87504942-2.3031728 29.94958941-5.4757332 4.81402164-1.8914731 8.88429433-4.27018607 12.08287191-7.32048043 4.46587285-4.2588374 7.11715467-9.76492409 6.91762318-15.98995538-.09833159-3.06778373-.852296-5.94244594-2.14663469-8.61278204 15.20001632-19.5607726 24.4991691-46.83181722 23.73400175-70.70371404-.80901994-25.23999512-13.24896118-48.29947563-37.74508325-60.58360397-.01856197-.07261014-.03635037-.14998142-.05301548-.23159923-.09907478-.48522245-.13902375-1.03039878-.11938334-1.50012559 1.45094242-2.84157378 3.44555816-5.6355413 5.94893044-8.42852244 2.15425427-2.40347537 4.07617424-4.22296686 7.64175827-7.37497358 2.02481132-1.7899518 2.66217802-2.36691887 3.55317555-3.26502625.85809561-.86494359 1.58784113-1.69431241 2.28655227-2.68569075 1.7518679-2.48566776 2.89759838-5.16508718 2.7751984-8.98375049-.14809222-4.62021387-2.07915546-8.66910529-5.1466306-11.82270989-2.10325163-2.16230733-4.61748573-3.80390643-7.5197153-5.14098434-4.1416937-1.90810783-9.25018225-3.25328678-15.32065077-4.22526922-9.83431472-1.57463651-22.3876004-2.13531679-34.01978186-1.69579552-5.9861058.2261847-11.72163087.85029986-16.99108322 1.85324452-5.57058496-8.53869142-16.08182837-13.9950158-30.44960151-13.95203329z" fill="#000" fill-rule="nonzero"/>
      <path d="M148.56016145 73.76257515c-6.36172665 2.84430647-19.06038946 4.66083217-33.90868509 4.95390884-21.40878029.42256792-38.4474551-2.49640443-38.52741633-7.76740515-.02215825-1.46065931 1.26266292-2.79220533 3.5873795-3.96302189-2.02741409.57837005-3.89242686 1.23003263-5.56413335 1.94875297.29379689-7.58221713-4.07408543-17.1285794-21.32367117-17.08742567-17.96636187.0428638-38.2116998 30.89381143-23.28511493 59.01506038 10.65756483 20.07854246 13.79713417 37.42759754 11.23561379 47.9882811-1.99772997 3.93505572-2.0044106 6.73265062-.02004184 8.39278478.9415974.78774614 1.99562433 1.0383942 3.16208135.7519433-.01973974 1.08290122-.01136805 2.14995522.02284597 3.19780127.7802433 23.8957967 13.91451923 52.1186464 32.54950623 67.65248696-3.83131869 3.21368454-6.01733404 6.71880047-5.91693033 9.79377838.2663376 8.15687072 16.6004117 12.64698169 36.54444224 11.9053149 19.94403132-.74166744 35.94562057-6.43425923 35.67928298-14.59112995-.06351005-1.94508497-3.30213173-3.1722946-9.7158635-3.68163016-4.49320088-.2865123-11.15748113-.24934895-19.9928386.11148953-13.25303584.5412574-19.0284332-.55172114-25.96271694-3.27749945 15.59210572 1.98078016 33.95853407-9.95158833 49.64309732-24.36946189 27.72558461-25.48646027 27.57996174-46.94579408 27.54489608-48.01970597-.54984285-16.8395358-8.0814851-38.13211983-31.06865157-49.260293-7.5633905-3.6614655-7.6695138-14.8280673-5.95916907-18.46039232 6.90876217-14.67239534 21.2033896-23.13051792 21.27608726-25.23363696zm-89.8382902 8.49642795c2.53581536.2120924 4.97538976-.25182676 7.1355206-1.23988542 1.50763261 3.3348858 4.91041965 9.3088723 10.56584978 19.38956416 1.95102461 3.47766266 2.57281052 14.56716614-4.76873765 18.76246438-10.88133528 6.21809523-17.92116679 14.56213783-22.2150075 23.4227056-1.50044426-10.14765513-5.6085542-22.11836937-12.25807758-35.97060034-6.04309718-12.58893123-2.1829191-25.14482669.67890155-30.4717934 2.8618204-5.32696652 9.50429319-13.31093084 17.31064617-14.52535682 5.08293795-.79074725 9.6121213 3.70029644 8.78631485 7.9488397-.87221683 4.48731167-8.44689997 7.08779065-10.24431675 3.76868679-.26051191-.4810603-.65792642-1.4970786-.42476845-2.14502751.28410492.56752462 1.06984432 1.11234999 2.35721807 1.63447597 2.97355543-.91021728 4.57862788-1.97391912 4.81521722-3.19110555.46587012-2.39677143-1.53971153-4.80389948-4.50923815-4.22701556-3.80259008.73872161-6.6332066 3.52398943-9.62319925 6.55672733 1.46202877 5.51618756 6.30031947 9.7776801 12.39367709 10.28732067z" fill="#C4C3C6"/>
      <g fill="#000" fill-rule="nonzero">
        <path d="M90.27230726 153.0692687c.1668625-8.05645246-7.5580161-10.332688-15.64298086-8.25230045-4.18920754 1.13006666-7.77804532 3.09448005-8.28723152 7.07840266-.6913348 2.42532048.48856887 5.00235903 2.78020229 6.07226595 3.27727051 1.74903569 7.18342837 1.83339008 10.51553811.2270856.89913578-.28951924 1.68553562-.85032505 2.25170661-1.60576092-2.64464267-.18985542-5.2503954-.7581181-7.73769458-1.68743692-3.218618-1.54708967-3.4461933-4.33801302-.39772248-6.435466 3.1342313-1.94429106 7.0770492-2.05690891 10.3363099-.29523379 1.56050242.81320142 2.71256257 2.24173892 3.17638084 3.93866548.46381841 1.69692658.19696027 3.50699038-.73576277 4.99058354-2.82265307 4.1091534-7.54444167 6.49222708-12.5374754 6.32762941-4.80247396.32975705-9.31658872-2.37347875-11.3078631-6.771609-1.41928717-2.97402906-2.99645428-9.53992532 5.7403499-13.83068676 5.27133665-3.0753695 17.60194137-2.7433547 22.25782824.34216328 4.11205743 2.80479492 5.89650745 6.35205458 4.5158169 10.94287109-1.10382426 2.67340753-2.83440422 5.0391104-5.04619019 6.89814211-.75886469.6654812-1.56554903 1.27438555-2.41362266 1.821859-.09071774-.07607934-.18967471-.14171105-.29499126-.19564813 1.74053353-2.89207477 2.7136152-6.1841565 2.82740203-9.56552616zM102.15197982 158.08026823c-.17381313 7.7185205 7.22658536 9.88589322 14.97963045 7.87891879 4.01731387-1.0898398 7.46060848-2.97796558 7.955526-6.79551538.66682336-2.32469328-.4596796-4.79151272-2.65437425-5.81255694-3.13826115-1.66996507-6.88217958-1.74405094-10.0787828-.19944248-.86232282.27891348-1.6170552.81753032-2.1610328 1.54222713 2.53457074.17733043 5.0312137.71724917 7.4136967 1.60327041 3.08239031 1.47659793 3.29571527 4.14996314.37013487 6.16461272-3.00751827 1.86806521-6.78691458 1.98274559-9.90789162.30064075-1.49434555-.77637481-2.59613825-2.14295658-3.03778702-3.76784537-.44164878-1.62488878-.1827472-3.35942356.71382555-4.78234011 2.71259806-3.94150747 7.2425503-6.2326689 12.0281042-6.08358021 4.6037531-.3241843 8.92588974 2.25779226 10.8269576 6.46785445 1.35526892 2.84673157 2.85568039 9.13426764-5.52596144 13.25994443-5.05788795 2.95534019-16.87623655 2.65849966-21.33360382-.2894663-3.93658852-2.6799646-5.64088006-6.07523295-4.30957773-10.47569944 1.0626229-2.56307578 2.72546302-4.83244405 4.84866794-6.61724047.72852015-.63885054 1.50277812-1.2235816 2.31660202-1.74953214.08682212.07272925.18155964.13543522.282413.1869266-1.6732872 2.7736596-2.6116585 5.92921178-2.72654685 9.16882356zM160.84222513 163.1833669c1.31881256-7.92076323-5.9572085-11.74564232-14.21196214-11.34237546-4.28465264.26041269-8.09804027 1.46723874-9.17009279 5.29694-1.0279403 2.2535649-.23609385 5.0390251 1.86582485 6.563369 2.9745792 2.39616537 6.80663277 3.27705979 10.31604644 2.3714041.92635288-.10227175 1.78063866-.49542789 2.44608539-1.125728-2.57544692-.72747412-5.05839034-1.82064158-7.37301647-3.24612385-2.94579948-2.18479028-2.76978445-4.98698016.53088162-6.43550607 3.36311482-1.27978426 7.2594752-.58589206 10.21451914 1.81907588 1.41918474 1.12158565 2.34822556 2.76734557 2.56148756 4.53757624.213262 1.77023066-.30876618 3.50297374-1.4393001 4.7774001-3.36673755 3.4809624-8.35508875 4.86982928-13.2452627 3.68777296-4.77348734-.65502617-8.8285245-4.24590912-10.15787309-8.99516625-.97053535-3.22632345-1.58168079-10.0314471 7.63134016-12.484108 5.62838984-1.96021757 17.7156486.88541314 21.8554208 4.88270527 3.64480813 3.60906446 4.89255735 7.47595145 2.87586048 11.72693802-1.46943525 2.41429605-3.51157739 4.39679029-5.95467314 5.78074598-.84218926.50213378-1.72333076.93863988-2.63640061 1.30603858-.07837417-.09364346-.16635424-.17865349-.26226879-.25341495 2.12737401-2.50019462 3.55680694-5.55205793 4.1533834-8.86754356z"/>
      </g>
      <path d="M121.68418558 64.2310878c-2.42171606-.08756987-4.92001334-.12481101-7.46086548-.1081017-9.46120258.06221936-18.29026874.8644491-24.74165377 2.19666744-3.0627839.63246833-5.47039599 1.3627205-7.04553368 2.12339606-1.27182385.61419728-1.77616064 1.1213281-1.76819523 1.40291389.00796549.28158573.54080066.7818958 1.84689365 1.37914002 1.61757951.73967931 4.065603 1.43799954 7.16302325 2.02995677 6.52434242 1.24688644 10.68889038.98681207 20.15009296.92459271 9.4612026-.0622195 5.16880692-4.23919105 11.62019195-5.5714094 3.06278385-.6324684 11.21418632-3.39952288.23604635-4.37715578z" fill="#FFF"/>
      <path d="M135.98122434 114.87615191c-7.64372067-3.8468513-4.33614388-10.05526573-2.69989784-13.68091265 1.8998846-4.2098227 9.77448976-19.99083219 12.4034529-23.14760195-32.65693903 23.86077406-53.44832269 20.92858544-52.77062524 28.6642905.66940845 7.64108898 21.62865247 2.2335999 44.09233412 12.9227392-.85150683-.47988725-.12879588-4.3073501-1.02526394-4.7585151z" fill="#000"/>
      <path d="M76.9352219 241.393738c-12.58169857 11.61492786 14.8848804 17.43795732 30.57209486 16.48054539 19.56836704-1.19428433 35.38956134-7.10682988 35.32211114-15.02824868-.01608375-1.88893944 2.45707092 3.39117695-22.40232715 6.4741039-24.8593982 3.08292837-37.36290902 1.73758977-43.49187885-7.92640062zM107.45710058 123.504525c-29.01650675-9.49053648-56.70833228 17.68188441-55.86839513 42.2022515 1.0477448 30.58691672 10.97469338 42.24937818 20.58836005 60.94482153.48186014.93706119 9.03967639 5.0835559 8.1613134 1.2750731-1.28411-5.56775328-12.5718317-22.5634775-14.85661085-45.44095433-3.84762672-38.52624227 26.16936789-47.27917957 41.97533253-58.9811918z" fill="#FFF"/>
      <path d="M80.99432274 63.68567144c-2.77272873 1.1763533-3.86505457-1.51919402-6.3617008-.24274024.48913348.55200298-.2968509 3.53306511-.4810432 4.7270137-1.03604686 6.71573532-4.5054297 8.65003568-7.45614211 10.99023572-2.95071233 2.3402-6.25423581 3.14708912-10.56890347 3.30536723 1.90211105.44694148 3.30955657 2.22103134 5.89697642 1.72744417 13.79292958-2.63119779 27.02960113-16.38673733 25.1577056-22.9413516-2.028215.73518627-4.09681042 1.5472963-6.18689244 2.43403102z" fill="#000" fill-rule="nonzero"/>
      <g transform="rotate(-59 206.25752607 -14.47332494)" fill-rule="nonzero">
        <path d="M49.8803824 25.6080472c.5237965-2.1093371 1.8831486-3.2331443 3.6500919-3.9836105.8497456-.3609088 1.8156675-.6220863 2.9748912-.8436989 1.5901953-.3040028 3.3042274-.5050807 6.3225948-.7879375.2654609-.0248768.58417-.0544932 1.1590884-.1079044 2.9686859-.2765144 4.3935803-.4454957 5.3400566-.6562152.8811115-.1961669 5.0983303-1.2971978 4.9255833-1.2535151 5.6396261-1.4260952 9.9977302-2.0545856 14.6976785-1.739034 10.0388586.6740029 16.7217669.8748832 22.9461029.4829787 4.813876-.3030973 8.258249.9710687 10.808733 3.545779.316343.319348.566464.5982742.872611.9638946 2.217969.4353533 5.406248 1.6795185 11.529266 4.2350396.241321.1007516.241321.1007516.482242.20145.413415.1728368 2.071319.8672389 2.482243 1.0390154 3.008726 1.2577238 8.87389 4.908498 19.465029 11.8780088.35742.2352519.35742.2352519.714598.470536 1.328715.8754295 8.192168 5.4142728 9.927834 6.5547723 3.371911 2.2156694 5.607024 3.6512565 7.053252 4.5198689 3.983136 2.3922941 6.517321 5.6788655 7.879849 9.8166588.951913 2.8908177 1.221738 5.2102042 1.491487 10.3708996.062328 1.1924384.089546 1.6810671.131273 2.3086431l.002472.0370457c.173308 2.5877847 2.488611 10.6922571 6.17343 21.8485303.330184.9996762.669883 2.0197926 1.01846 3.0587893 1.319561 3.9331913 2.726082 8.0185903 4.185663 12.1808283.995052 2.837554 1.729124 4.904051 2.792121 7.878115.697822 1.952374 1.21859 3.661303 1.643003 5.319065.158666.619756.294615 1.193256.449188 1.880319.042488.188853.088825.397086.167635.751553.059581.267106.101643.452349.141582.622316.169742.722366.284959 1.086189.425634 1.379846.040621.084797.086316.169768.133826.249137 1.408674 2.338828 20.836501 25.514324 28.359248 33.389875 1.626624 1.708437 2.236694 4.145675 1.607432 6.419016-.532369 1.923292-1.885837 3.490895-3.666896 4.30832l-42.49553 30.277115-.810177.223032c-4.556338 1.254306-9.425951-.242034-12.493941-3.838101l-.078197-.091657-26.561036-34.538195c-.247707-.11048-.5125-.229281-.793604-.356179-1.513852-.683394-3.197941-1.464505-5.010345-2.331333-5.18251-2.478664-10.3674-5.15335-15.224961-7.93305-6.128871-3.507197-11.302436-6.935211-15.249016-10.2433-1.10323-.924746-2.108642-1.839024-3.012837-2.744783-1.798834-1.801943-3.749752-3.719332-6.367058-6.266041-.3592568-.349491-.3592568-.349491-.718883-.699081-9.3878527-9.124446-10.1754438-9.897176-13.0597699-12.90109-5.1598877-5.373822-7.1124144-7.825905-7.2033333-10.717981-.0105967-.040933-.0258124-.094474-.0459048-.158932-.0991118-.317957-.2690717-.747845-.5040039-1.260719-.5150111-1.124306-1.2863832-2.528486-2.2340679-4.06217-1.9558315-3.165217-4.4338043-6.5191912-6.5718938-8.8777832-.4375436-.4826678-.8001942-.8793884-1.5936695-1.7449496-7.0682487-7.7103864-9.6481607-11.1210167-11.0069624-16.0799542-1.8204192-6.6436077-3.5264373-11.5445109-5.3558847-14.8432445-.1187874-.2141892-.244757-.4373284-.3838148-.6802753-.2035526-.3556254-.945966-1.6304112-1.0932613-1.8865619-.4537705-.7891195-.796307-1.4130783-1.1090201-2.0345398-.8877003-1.7641466-1.440841-3.3415386-1.6410192-5.0210918-.2726841-2.2878986.1770295-4.517495 1.389046-6.6117748 2.0109575-3.4745478 5.3230882-5.3274689 9.222973-5.6406713-6.3814471-4.0717064-9.4933173-10.3935798-8.281131-15.2750734z" fill="#000"/>
        <path d="M225.148487 165.575217l-30.688027-33.867333-8.214819-22.581724-11.093968-48.9970886-46.895785-31.2310489 26.577976 29.303725-37.693075-32.6647257-15.943616-.9610362-16.9050937-1.4389284-27.0587151 4.3220369 2.4142586 4.8051807 9.6623175 4.3220368h16.9050933l22.2301974 6.7220015 15.943617 19.7248729 6.286581 20.1765075-20.296678.4778923-16.9050929-3.3610008-14.982139-14.4102905s-1.4474986-7.6882892-4.8285173-11.55344c-3.3810187-3.8651508-12.5678803-8.1661814-14.982139-7.2051453-2.4142586.9610362-5.8111258 3.3662523 3.3810187 19.2154713l9.1868617 15.8544706 14.982139 18.2544349 9.6676002 13.932399 22.2090666 21.615435 31.411776 17.771292 33.102286 40.594586 42.526876-28.820581z" fill="#C4C3C7"/>
        <path d="M93.0508153 80.6181955s16.6946257 12.8457126 25.4246987 12.8457126c-7.969796-6.0490392-19.3529724-13.2587412-19.3529724-13.2587412l-6.0717263.4130286zM62.2089552 67.3003601s10.0507067-.9416403 11.0051789-5.6888447c.8107263 6.0677295-8.6994962 11.048951-8.6994962 11.048951l-2.3056827-5.3601063z" fill="#101010"/>
        <path d="M58.310723 48.1996787s-3.1279373.8185017-1.7314447 5.5766591c.7590788 2.679608 1.8598057 5.2596814 3.2773775 7.6820822 0 0 8.2861996-4.0481319 8.5232426-5.6259665-.0257655 0-4.0348845-5.1871312-10.0691754-7.6327748zM70.7472846 25.3184243c.4323495.468672.5826765 1.1353634.3938709 1.7467941-.1888056.6114307-.6877672 1.0737621-1.307326 1.2113516l-3.5589811.79623-7.9565439.6652048-1.4675182-2.5197152 13.8964983-1.8998653z" fill="#FFF"/>
        <path fill="#101010" d="M57.442864 29.9220905l12.1596385-1.6561338-11.1020274 5.5244755z"/>
        <path d="M.6437291.47436038S-3.23752656 20.1730177 10.3442062 29.6575564c0 0 14.2259467 8.7549588 20.6947061-4.3774794 6.4687594-13.1324382-2.5875038-18.23949752-7.1129733-19.69865732C18.3622734 3.78965728 13.5759239 13.6067986.6437291.47436038z" fill="#000"/>
        <path d="M28.6322101 18.6140801s.4507378-5.4079601-5.0959893-6.0893201c-6.734554-.8315812-10.207887 2.8166459-12.9918561.4721235-1.81575982-1.5590101-3.52538304-3.24030451-5.1172005-5.03240726 0 0 .47725186 12.53809786 5.5838467 16.29362566 5.1065949 3.7555278 8.813251 4.6944097 10.6692304 4.6944097 1.0081824.0504638 1.9982257-.284701 2.7733636-.9388819 0 0-1.2514604-4.0559701 4.1786052-9.3995496z" fill="#C4C3C7"/>
        <path d="M5.67514494 9.27292692l1.42148449 5.72852748c.27822163 1.1924435.83434452 2.3037197 1.62381258 3.2447943.0363153.0462807.07781849.0874192.11932169.1336999 1.2929547 1.4407464 3.2246471 2.148969 5.1522518 1.8889867 1.9276048-.2599823 3.598159-1.4540516 4.4557383-3.1848475l1.5978731-3.2139404c-2.0457033-.0569925-4.085289.2477366-6.0231515.8999033-2.7859021.9358995-6.40705601-3.0853829-8.34733046-5.49712378zM194.228727 133.66297l-10.308326 7.185369-9.589265-80.6573424z" fill="#FFF"/>
        <path d="M38.0494491 22.6378129L231.766607 118.894c2.869631 1.508571 3.920777 4.525713 2.317778 7.333331-1.524162 2.66619-4.887832 3.100952-7.62607 1.697142L77.966751 58.1311375l-5.0560164-5.0338083c-.7620815-.7542855-9.612738-4.8033321-10.6638848-5.0338083l-10.2434261-3.1428563-20.5656883-10.313807 6.6117137-11.9690447z" fill="#000"/>
        <path d="M39.5584325 29.9541059L230.857619 122.662091c.155836.073814.274886.207916.329713.371401.054827.163485.040702.34225-.039121.495095-.157507.302852-.526517.426634-.834791.280027L51.0922877 37.0974149l-.4702304-.4385315c-.0879309-.0786359-.1957545-.1316342-.3117258-.1532219l-.7925233-.1479383-10.6409457-5.040471c.394973-.2747525.6437694-.7140357.6762866-1.1940739l.0052834-.1690724z" fill="#C4C3C7"/>
        <path fill="#101010" d="M195.464294 132.541592l-21.126334 14.363636 26.53012-9.268496z"/>
        <ellipse fill="#000" cx="31.630904" cy="26.0062642" rx="8.29066265" ry="8.28671329"/>
        <ellipse fill="#C4C3C7" cx="31.630904" cy="26.0062642" rx="3.8689759" ry="3.86713287"/>
      </g>
    </g>
  </g>
</svg>
