<svg viewBox="0 0 400 320" xmlns="http://www.w3.org/2000/svg">
  <g fill="none" fill-rule="evenodd">
    <path d="M52.9252886 177.99999994c-2.01365863 53.56614057 24.05805083 85.81113857 54.72194155 81.50000028 7.86663313-1.10599613 29.2058026-2.32131209 36.66571325-9.07989485C165.93153205 230.83394091 169.05303366 194.8508131 157.99999962 160c-11.05303403-34.85081315-41.01205685-41.00000003-55.36731452-41.00000003-11.98609144 0-47.69373887 5.4338594-49.7073965 58.99999998z" fill="#000"/>
    <path d="M109.1392494 130.51377666c-17.99351695 3.0669958-30.80058533 29.11362708-28.8334686 59.3452934 2.01770353 31.08654544 19.20687843 54.82080882 38.40026914 53.01183545.62484893-.05888809 1.2439469-.14411582 1.85692096-.25497658l.0069633.08098281-16.68565543 1.92595617-.00532124-.0641649c-18.73188657.76249563-35.21514517-22.6349894-37.11542432-53.0900745-1.84930914-29.5629884 10.42805088-55.12551907 27.810342-59.11325513l-.01071418-.1291941 14.57608836-1.71240262z" stroke="#979797" stroke-width=".5" fill="#D8D8D8"/>
    <path d="M84.01418509 190.97466308c-1.99353994-29.4833958 11.36521823-54.77648303 29.84467147-56.49381461 18.48222462-1.71737987 35.40025958 20.78585256 37.78043862 50.26249965 2.3751631 29.47673453-11.00133837 54.77013148-29.8702022 56.49426016-18.86609244 1.7240803-35.76638409-20.77946134-37.7549079-50.2629452z" stroke="#979797" stroke-width=".5" fill="#D8D8D8"/>
    <path d="M89.14743625 189.88121756c2.84158775 29.16865168 19.93652577 50.8877814 38.32256798 48.87684545-1.22453426.38927236-2.4810304.67320648-3.76621715.84523929-18.5851326 2.48760616-35.96264368-19.36696801-38.80678792-48.81367873C82.05781356 161.342826 94.51823 135.4601867 112.7211488 132.9792522c.17161161-.0233911.34313476-.04461852.51455842-.06369648-16.15193899 5.23379584-26.7540855 29.55571135-24.08827098 56.96566184z" fill="#FFF"/>
    <path d="M142.60829605 187.32669624c-2.37034655-25.8931993-17.23658627-45.3669964-33.2046757-43.49594315-2.34882585.27522259-4.59360993.9970033-6.7076858 2.1104433 2.83086503-2.02292531 5.9458946-3.30697014 9.26944318-3.69648709 15.96415173-1.87098452 30.83806449 17.60267864 33.2218138 43.495644 2.03311179 22.08424014-5.83595973 41.70824921-18.28899329 48.16774243 10.9332136-7.69678915 17.58696603-26.07885972 15.71009781-46.58139949z" fill="#000"/>
    <path d="M112.83496383 209.5096199l-9.13522727-34.69839153c-.51037316-1.94800785.6570242-3.76457912 2.60716393-4.05742055.45436212-.06823.92746428-.04822143 1.39337465.05892783l26.7913029 6.14974013c2.00692288.4597535 3.4334213 2.3850783 3.18542076 4.3003463-.05782754.4462463-.20547363.86762626-.4348522 1.24102234l-17.64149127 28.54839673c-.99655105 1.60281203-3.24156081 1.97390488-5.01299783.82883531-.86783296-.5611821-1.50017396-1.41681724-1.75269367-2.37145656z" fill="#FFF"/>
    <path d="M111.21126944 207.93386598l-8.62299336-33.0481493c-.48190567-1.85535837.61545394-3.58374048 2.4507667-3.86044505.42760947-.06447033.87292278-.04490344 1.31152998.05762683l25.21839 5.88470257c1.88886878.4399443 3.23203417 2.27470668 2.99938437 4.09806778-.054245.42483251-.19301942.82589044-.40872217 1.18117119l-16.58261949 27.1632237c-.93632528 1.5250348-3.04790077 1.87592112-4.7151338.7837054-.8168028-.53527866-1.41231364-1.35066475-1.65060223-2.25990312z" fill="#000"/>
    <g fill-rule="nonzero">
      <path d="M270.887594 184.637172c-1.576498 5.422309-5.350162 8.725554-9.856214 11.21857-.719975.423812-.719975.660649-.372401 1.383623 3.637117 7.479047 3.885384 15.020419-.11172 22.43714-2.065525 3.577822-5.147235 6.455361-8.850731 8.264346-5.126721 2.779713-10.737563 3.739524-16.460126 4.300452-10.774802 1.009672-21.214444-.847625-31.529953-3.739523-12.1268567-3.510098-23.656417-8.838731-34.1988269-15.805718-7.1974674-4.594559-13.4439583-10.541171-18.3966105-17.513434-2.2716462-3.21599-4.6425994-6.344725-6.0204832-10.046853-2.2219927-5.970772-2.9916215-12.07866-.7199753-18.236408 1.9488987-5.260263 5.7970426-8.725555 10.6134292-11.21857.8349578-.490732 1.7064977-.915814 2.6068071-1.271438.8316956-.274232 1.0427229-.660649.744802-1.508274-1.0423136-3.106861-1.4641426-6.389654-1.2413367-9.660436.242309-4.648771 2.5130992-8.953882 6.2066837-11.767033 1.940681-1.6627593 4.1541819-2.9744603 6.5418446-3.8766389.4948605-.1885216.8781906-.5917784 1.0427229-1.0969269 4.7543197-10.4083397 9.5582929-20.7917493 14.6105334-31.0629733.4468812-.9099506.7944555-1.8697616 1.2413367-2.7547821 1.383584-2.1101458 1.7007098-4.7500244.8565224-7.1300244-1.8769165-5.1285242-.7890114-10.8781923 2.8302478-14.9580931 1.101288-1.2653622 2.3960486-2.3467201 3.8357305-3.2035249.2785631-.1156327.4954633-.3441295.5971433-.6290699.1016801-.2849405.0786628-.5997658-.0633685-.8667394-1.994678-6.0714009-1.5902806-12.6802726 1.1296165-18.4607799 1.704135-3.7649786 4.426652-6.97391587 7.857661-9.26155261 9.111412-6.12035309 19.327613-7.6161624 30.027936-7.06769898 15.367749.78529989 29.407268 5.62174998 42.677157 13.20051719 8.507101 4.8326226 16.076314 11.1665761 22.344062 18.6976163 5.416042 6.174416 8.835946 13.8556106 9.80656 22.0257921.987446 7.6665441-1.989459 15.3090148-7.894902 20.2682161-1.157097 1.0869234-2.450781 2.0172274-3.848144 2.7672472-.757215.3864174-.943416.7728348-.645495 1.6578553 1.019403 3.0292526 1.178444 6.283747.459295 9.3986685-1.14203 5.1231469-4.506053 8.3640671-8.962451 10.6327112-1.475016.7769645-3.043808 1.3593325-4.667427 1.7326455-.484309.046692-.896806.37319-1.055136.83516-1.820627 5.143922-3.678494 10.275379-5.573602 15.394371-.322497.586866-.12508 1.324758.446881 1.670321 2.954382 2.767247 5.82187 5.64668 8.776251 8.413927 2.954382 2.767247 5.834283 5.247798 8.689357 7.902859.583429.548464 1.117203.349022 1.700632.186976 2.286436-.693819 4.707486-.813664 7.050792-.349022 5.126721 1.159252 7.832835 4.674404 9.024518 9.59811.188067.548362.264063 1.129181.223441 1.707716-.372401 1.957017.782042 3.004083 2.060619 4.175801 6.633767 5.871511 13.610027 11.340906 20.891697 16.379111 4.133652 2.991619 8.205236 6.082958 12.251994 9.211693 6.454951 4.986031 28.550745 21.377608 33.602985 27.572751 1.404736 1.756382 2.619782 3.657576 3.624704 5.671611 1.34933 2.581437 1.578375 5.607498.633082 8.364067-2.044684 6.814472-7.071572 12.321195-13.654705 14.958093-2.615795 1.155879-5.607371 1.087398-8.167995-.186976-4.530879-2.206319-32.84577-22.773697-37.401476-27.423171-6.293578-6.40705-12.748529-12.664519-19.091759-19.034173-4.245372-4.250592-8.689358-8.214487-13.245063-12.153451-.479129-.502462-1.192702-.703095-1.862005-.523533-4.903281.947346-9.198306-.224372-12.487848-4.138406-2.027432-2.503085-2.970881-5.717888-2.619221-8.924996.135435-.959022-.327484-1.903553-1.166856-2.380829-1.613738-1.196648-3.128169-2.455621-4.841213-3.776919z" fill="#000"/>
      <path d="M163.9713674 163.056923c10.7116324-.552264 21.4365291.789907 31.6874516 3.965536 13.125338 3.795663 25.597072 9.587755 36.983196 17.175648 4.191406 2.865087 8.156386 6.052018 11.859486 9.532297 3.039672 2.884883 5.872794 5.982475 8.478164 9.269596.074284-1.677508-.055129-3.35787-.385371-5.00383-.47239-2.07659-.335646-4.240747-1.802542-6.117183-2.640636-3.478127-5.55034-6.740777-8.701929-9.75747-3.143832-2.927483-6.505991-5.608211-10.056943-8.018638-9.704121-6.459241-20.330897-11.390561-31.513413-14.623694-8.7315469-2.701097-17.8653702-3.84419-26.9884095-3.377586-4.3913916.134862-8.7286748 1.014546-12.8291289 2.601992-3.4296896 1.266115-6.4423667 3.46622-8.7019286 6.354865 3.8952804-1.152139 7.9151332-1.824232 11.9713674-2.001533z" fill="#C4C3C6"/>
      <path d="M228.898251 38.00278953c7.320217-.01254903 14.612611.9020209 21.703482 2.72192529 9.439956 2.49675388 18.416114 6.50049758 26.58304 11.85715398 6.787532 4.2456333 12.818044 9.5975698 17.84205 15.8343964 1.248257 1.5786451 2.388984 3.2395812 3.414449 4.971553.869132 1.4790371.496647 3.2190806.372485 4.8099776-.173793 3.1335604-.945052 6.2048757-2.272161 9.0482265-1.080714 2.1510535-2.619146 4.0389404-4.507073 5.5308528-.446982.3728665-.645641.2734354-.943629-.2610066-1.394264-2.6178306-3.108443-5.0518672-5.10305-7.2460385-3.24924-3.5316966-6.86165-6.71037-10.777244-9.4832374-8.767469-6.2929701-18.454974-11.1898929-28.718623-14.5169349-6.262028-2.088056-12.717731-3.5412424-19.26991-4.33768-5.364761-.7108153-10.814182-.4328-16.078953.8203063-3.918038.824307-7.256534 3.3718295-9.088643 6.9353164-.460054.8763772-.718812 1.8445285-.757387 2.8337853 0 .422582 0 1.0067395-.471815 1.0813128-.471815.0745732-.484231-.5220131-.58356-.8575929-2.30941-7.3827563-1.564439-14.2062128 3.650357-20.2715075 3.080074-3.440889 7.057179-5.9544086 11.484966-7.25846747 4.344409-1.51833659 8.919964-2.26698863 13.521219-2.2123411z" fill="#FFF"/>
      <path d="M295.623765 77.3978894c-5.137051-6.436681-11.316051-11.9610437-18.278667-16.342124-8.348346-5.5310223-17.537503-9.6632339-27.207759-12.234878-7.27066-1.8852435-14.751384-2.8318068-22.260893-2.8167518-4.725433-.0677174-9.426085.6966505-13.888324 2.2583649-4.533201 1.3381609-8.605616 3.9161163-11.761172 7.445159-.75781.8900436-1.448176 1.8357375-2.065316 2.8291604-.405245 3.4238463-.046166 6.8952677 1.051209 10.1626421.098937.3350321.098937.9430535.581256.8561933.48232-.0868602.457585-.6576557.469952-1.0795481.038423-.9876423.296159-1.9542135.754397-2.8291604 1.824877-3.5576712 5.150193-6.1010361 9.052764-6.9239979 5.243986-1.2510612 10.671894-1.5286227 16.015476-.8189675 6.537258.8177096 12.975895 2.2934974 19.218571 4.4050524 10.22313 3.3216122 19.872391 8.2105431 28.605248 14.4932429 3.90075 2.7722389 7.498922 5.9499041 10.734697 9.4801691 1.986733 2.1905904 3.694145 4.6206546 5.082904 7.2342129.296812.5335697.494687.6328385.939905.2605805 1.880473-1.4894775 3.412832-3.3742833 4.48928-5.5218262.889464-1.8671706 1.509905-3.8517127 1.842707-5.8940842-1.012495-1.7290251-2.140486-3.3872959-3.376235-4.9634394z" fill="#C4C3C6"/>
      <path d="M270.697281 90.2673747c-6.872796-5.0308497-14.324296-9.2532054-22.20148-12.5803578-6.453151-2.779582-13.170628-4.9272955-20.054552-6.4118458-5.287547-1.2208728-10.700789-1.8413969-16.132992-1.8493369-.451158.001322-.889154-.1489709-1.241-.4258342-.48399.0851668-.967979.1460003-1.451969.194667l.07446.1703337c-.116509.0436636-.237026.0762577-.35989.0973335-3.565727.1738534-7.078526.9177091-10.399576 2.202171-3.015628 1.3261692-5.783057 2.9686724-7.1109264 6.1928454-1.1689604 3.0086794-1.08427 6.3473581.2357899 9.2953514.7929654-2.2286178 2.4650449-4.0520075 4.6413375-5.0613432 3.995814-2.13719 8.466532-3.2778739 13.018085-3.3215065 6.375921.0104542 12.72543.8033987 18.900421 2.360338 5.287139 1.3247249 10.444847 3.1038949 15.413214 5.3168436 3.320385 1.3921243 6.545443 2.9933592 9.654975 4.793676 3.950317 2.2433287 7.721364 4.7772144 11.280685 7.5798481 4.57664 3.4301443 8.46467 7.6627312 11.466835 12.4830243.122575.2828194.356081.5053811.647898.6175305.291816.1121494.61739.1044502.903352-.0213627 1.967153-.6545375 3.622314-1.9916513 4.653747-3.7595073 2.1097-3.0660059 1.67535-4.7571759-.632909-7.385181-3.370121-3.8868455-7.160848-7.4033588-11.305505-10.4876871zM189.6987441 143.731761c-5.5064668-.248499-10.9894885.863666-15.9672082 3.238756-3.2786191 1.570713-5.8876843 4.268049-7.3541397 7.602948-.2912724.702409-.9742681 1.160851-1.7325854 1.162951-.735414.112544-.6855554-.662757-.8600604-1.062912-1.7699794-4.014056-2.4929287-8.190676-.909919-12.392305 1.5070851-3.877872 4.5968388-6.922971 8.4884222-8.365744 6.7184428-2.826096 13.7111078-3.2262509 20.9530656-2.738562 5.4259378.419151 10.8032678 1.327332 16.0669258 2.713552 4.418485 1.201814 8.749703 2.705917 12.963229 4.501746 3.614746 1.463067 7.254422 3.27627 10.806846 5.214522 4.75859 2.528709 9.295294 5.45696 13.561532 8.753394 3.111758 2.426538 6.029113 5.094074 8.72525 7.978094 2.78219 2.869793 5.163839 6.104644 7.079918 9.616229.465196.913948.597464 1.962239.373939 2.963649-.660626 4.026561-2.006808 7.727996-5.434585 10.29149-.316479.215087-.645281.411334-.984706.587728-.610768.350136-1.009637.287612-1.184142-.512699-1.246464-5.802249-4.524665-10.466558-8.426098-14.743216-6.510107-7.04547-14.375647-12.694597-23.121914-16.60644-5.864768-2.852256-12.032469-5.02945-18.385349-6.490016-4.801919-1.147746-9.7221068-1.72278-14.6584209-1.713165z" fill="#C4C3C6"/>
      <path d="M163.8307877 145.764778c1.4922635-3.780883 4.5703189-6.753408 8.4530542-8.163245 6.732521-2.769891 13.7767328-3.16036 20.9705562-2.684476 5.4264919.414964 10.8045699 1.301073 16.0707769 2.647869 4.416324 1.175022 8.744557 2.646843 12.953869 4.40498 3.74029 1.464259 7.3185 3.196966 10.884243 5.015088 4.753075 2.472032 9.286345 5.329181 13.552315 8.541512 3.1094 2.375841 6.027149 4.982615 8.727342 7.797181 2.775382 2.802021 5.15688 5.95351 7.081615 9.371259l.149612.305054c.074805-.378267.162079-.768736.224417-1.220216.216296-.977494.084308-1.997996-.374029-2.891912-1.924735-3.417749-4.306233-6.569238-7.081615-9.371259-2.700193-2.814566-5.617942-5.42134-8.727342-7.797181-4.262732-3.216825-8.796399-6.074224-13.552315-8.541512-3.565743-1.830324-7.156421-3.550829-10.884243-5.02729-4.210593-1.741544-8.538802-3.197049-12.953869-4.356171-5.256035-1.330548-10.620957-2.208384-16.033374-2.623465-7.1938234-.4758841-14.2380352-.073213-20.9705562 2.684475-3.8827353 1.409837-6.9607907 4.382363-8.4530542 8.163246-.7995543 2.106982-1.0523062 4.375241-.7355903 6.601369.1268147-.97363.3609064-1.930971.6981874-2.855306zM243.647227 141c-2.651881-2.067867-5.291371-4.023621-8.05478-5.804977-1.933147-1.245703-3.940646-2.341921-5.948144-3.463054-.607207-.33634-.87983-.610395-.396543-1.3827307 1.477137-2.6064746 2.801212-5.2976449 3.965429-8.0596992 2.205771-4.7710429 4.671773-9.4050585 6.951895-14.1387304 1.536604-3.1765429 2.986464-6.402914 4.374365-9.6417421.954181-2.2422656 1.858795-4.4845312 2.639489-6.789082.272623-.79725.644382-.8969063 1.338333-.4733672 3.59553 2.1158769 7.007149 4.5328006 10.19859 7.2250781.805478.7100508 2.044675 1.2457031 2.255338 2.2173515.210664.9716485-.793086 1.9183829-1.102885 2.9398594-.875604 2.3717739-2.014607 4.6366685-3.3954 6.7517109-1.065709 1.8436406-1.759659 3.9115078-2.651881 5.8672617-3.444967 7.6237031-5.923361 15.646031-9.430288 23.24482-.223055.485824-.470895.946735-.743518 1.507301z" fill="#FFF"/>
      <path d="M241.239961 90.5728299c-5.325397-2.1356826-10.852066-3.7588682-16.501231-4.846421-5.902173-1.0783286-11.381874-.6542668-17.308897-.5936865-3.797792.2958366-7.246487 2.2742014-9.356497 5.3674111-2.410571 4.1921541-4.7590147 8.4085403-7.1323093 12.6128105-2.3732946 4.2042701-4.8708454 8.6629774-7.3559707 13.0368723-1.528352 2.7382278-3.0194271 5.4885717-4.585056 8.34796 1.8638439-.3029013 3.5413034-.6300347 5.2436142-.8238916 1.7069469-.072769 3.4058123-.2712297 5.0820811-.5936865 7.9316897-.553867 15.9038507-.019589 23.6832437 1.5872028 3.570083.9192361 7.087383 2.023363 10.536931 3.3076823 1.068603.3634816 2.398145-3.3561465 2.994575-4.2285022 1.8074-2.5830584 2.851919-5.6008251 3.019428-8.7235577.222157-3.6411879 2.151775-6.9796979 5.231188-9.0506911 1.80758-1.212051 2.744261-3.3259255 2.410572-5.4401075-.227972-1.6535452.21815-3.328325 1.242562-4.6646801 1.006476-1.393346 2.099931-2.7503439 3.255514-4.0588775.521877-.690615.360343-.9450521-.459748-1.2358373zM308.707399 183c2.664722 2.185619 5.179318 4.270169 7.743956 6.316819 1.16347.934889 2.376982 1.80661 3.603004 2.665697.559757.398884.902342 1.039376.925772 1.730808.238056 4.242473-1.67532 8.316316-5.079235 10.814394-.975813.745384-1.889074 1.553937-2.939951 2.22352-.725605.454811-1.251043.290573-1.864054-.530613-1.557311-2.527762-3.509104-4.784616-5.779818-6.683194-4.303588-3.411082-4.891578-3.486884-3.903254-4.383872 2.731397-2.621643 4.865756-5.811603 6.255215-9.348892.425354-.859087.675563-1.756075 1.038365-2.804667z" fill="#C4C3C6"/>
      <path d="M297.042636 170.392303c2.453644-.727368 5.111497-.434783 7.331096.807033 2.155568 1.276072 3.501478 3.508395 3.582961 5.942693.325989 4.836139-1.1969 9.620071-4.281766 13.450542-.845335 1.230164-1.825001 2.369755-2.922274 3.399319-1.289999 1.10975-3.163373 1.324733-4.688343.538022-2.177431-1.192506-3.659563-3.286965-4.014951-5.673683-.169741-.732969.105774-1.49529.711511-1.968671 3.194514-2.795289 5.229922-6.608787 5.730197-10.735978.180311-2.02023-.328155-4.042001-1.448431-5.759277z" fill="#FFF"/>
      <path d="M290.968302 174.915844c-.529317 3.005158-1.584756 5.881645-3.112974 8.48408-.524932.831773-1.013242.76779-1.440513 0-2.441548-3.954119-5.871922-6.884517-8.679702-10.429148-.493014-.619596-1.03625-1.193313-1.623629-1.714731-2.441548-2.162609-2.649079-3.531834-1.220774-6.526216.37844-.76779.64701-.98533 1.416098-.383895 4.22018 3.517569 8.806991 6.522586 13.672667 8.957551.336637.073475.630997.285645.816941.588841.185943.303195.247877.671989.171886 1.023518z" fill="#C4C3C6"/>
      <path d="M291.932819 169.080877c-.076651.606082.370477 1.44428-.357702 1.818245-.72818.373965-1.213633-.386861-1.750186-.735035-4.148198-2.63862-8.082488-5.605261-11.765845-8.872004-1.277508-1.109001-1.443584-4.900235-.255502-6.009236.715405-.670558 1.277508 0 1.66076.477129 1.722835 1.754732 3.544158 3.408064 5.454958 4.951816 1.826836 1.650605 3.551471 3.44306 5.493283 4.926025 1.187924.697912 1.800256 2.084735 1.520234 3.44306z" fill="#FFF"/>
      <path fill="#8B613B" d="M373.475 259.445l.08.11-.11-.08zM210.55 225.47l-.1.08.08-.1z"/>
      <path d="M175.2050885 288.997008h-2.9898598c-9.4244122-.061861-18.8358258-.716787-28.179429-1.960965-9.1876661-1.118711-18.2509819-3.10515-27.0706893-5.933178-4.9133086-1.592357-9.6480935-3.698865-14.12708769-6.285146-1.08709427-.629308-2.13167961-1.33059-3.12689508-2.099238-3.37075052-2.478708-5.14089443-6.609447-4.621825-10.785311.28652824-2.514058.75992271-4.688719 1.24577493-6.863379.149493-.729077.31144374-1.458154.44847898-2.187231.38619023-1.960966.79729596-3.909361 1.24577493-5.870326.57305647-2.752894 1.14611294-5.505788 1.65688066-8.271252 1.13365519-5.99603 4.98309973-10.508764 11.09985467-13.047963 7.2005791-2.97916 14.6378554-4.198478 21.6266528-5.191531 6.2288747-.87992 12.7941086-1.495865 20.6549484-1.935825C160.1935006 218.175984 167.5186572 218 177.5596031 218c8.8076288 0 16.2947362.301687 22.9596319.754218 5.157508.351968 10.676291.905061 16.855335 1.671848 4.815983.56162 9.592463 1.426466 14.301496 2.58948 4.029095.876243 7.893874 2.395384 11.448672 4.500165 3.74963 2.287008 6.497375 5.926846 7.686431 10.181936 1.980782 7.190207 4.023853 14.254711 5.59353 19.609656 1.669338 5.706912-.211782 11.162419-5.145051 14.971217-3.528471 2.673205-7.379794 4.882377-11.461129 6.574263-4.966777 2.064521-10.09664 3.704424-15.33549 4.902414-5.120135 1.257029-10.564171 2.250082-16.668468 3.104862-10.800479 1.478287-21.69022 2.192347-32.5894725 2.136949z" fill="#000"/>
      <path d="M178.1851317 224c6.5479917 0 15.2952139.198479 24.0300113.843534 5.87704.421767 11.72923 1.079227 17.568995 1.860736 4.723333.579714 9.401771 1.479072 14.00301 2.691865 3.222764.736158 6.303357 1.993217 9.119973 3.721472 1.874048 1.25399 3.2052 3.167744 3.72751 5.35892 1.963155 7.629019 4.013285 15.233227 6.10069 22.825031.721385 2.164899-.0668 4.545801-1.938304 5.855116-3.034716 2.445394-6.376314 4.484637-9.940026 6.066-4.725886 2.127451-9.632531 3.829541-14.661537 5.086012-5.570543 1.412092-11.210832 2.534182-16.898043 3.36173-12.153701 1.740356-24.4273203 2.50777-36.7035435 2.294908-9.7078998-.069365-19.4003076-.786312-29.0124489-2.146049-9.2472986-1.200863-18.3506844-3.324455-27.1735441-6.338908-4.5770349-1.579227-8.9649346-3.659376-13.08355833-6.202454-.78069553-.484016-1.53168126-1.01424-2.24893072-1.587828-.8187366-.652259-1.21445033-1.69944-1.03127763-2.729079.36032592-3.250086 1.10582782-6.438148 1.70222934-9.638614 1.01885259-5.482969 2.13710543-10.953533 3.1062579-16.448908.46492414-3.161185 2.61726964-5.818734 5.61611434-6.934343 6.5728417-2.902748 13.5557095-4.118429 20.5758523-5.185251 7.0201429-1.066823 14.2142362-1.699473 21.2965042-2.12124 7.82777-.458981 15.7549401-.63265 25.8440658-.63265zm27.4841703 22.775411c.509426.297717 1.018852-.07443 1.553129-.111644 2.733507-.161264 5.454589-.508602 8.163245-.831129 2.708657-.322528 5.429739-.694675 8.138396-1.116442 3.52903-.555761 7.022333-1.317906 10.461877-2.282503 2.740378-.649136 5.335832-1.801738 7.653819-3.398945.373174-.188287.626468-.551338.674015-.966074.047547-.414737-.117031-.825538-.437939-1.09314-.295304-.310568-.615254-.596812-.956728-.855939-1.577979-1.352135-3.615684-1.773902-5.491864-2.480982-4.151071-1.306412-8.396286-2.293423-12.698382-2.952368-3.429309-.68227-6.945593-.942773-10.437026-1.24049-4.597262-.446577-9.194524-.893154-13.804211-1.240491-4.8209119-.310123-9.6542492-.533411-14.4751615-.595436-6.0882655-.062024-12.188956-.136454-18.2896465.099239-3.1062579.12405-6.2125158.198479-9.3187737.297718-1.8016296 0-3.6032592.186074-5.4048888.297718-2.4850063.136454-4.8581873.434172-7.2934935.645055-3.8766099.322528-7.7656448.645055-11.6049796 1.240491-5.2113005.700702-10.3646981 1.778634-15.4194642 3.225276-2.1963731.526994-4.293856 1.402322-6.2125158 2.592626-1.8140547 1.240491-1.7395045 2.60503.1988005 3.721472.1988005.124049.397601.223288.6088265.334933 2.5038865 1.27394 5.1531573 2.240295 7.8898951 2.877938 5.1051267 1.256762 10.2840757 2.193097 15.5064395 2.803509 3.3299084.434172 6.6722419.818724 10.0270005 1.104037 4.1416772.347338 8.2585043.611976 12.3504814.793914 4.7339371.198479 9.4554491.334933 14.1893861.396957 4.1748107.062025 8.3371963 0 12.5120069-.111644 3.541134-.086834 7.082268-.173669 10.623402-.310123 3.7275091-.210883 7.4922941-.372147 11.2943541-.843533zm-15.9164658 16.78384c1.2425031 0 2.4850063-.124049 3.6156842-.198479 3.2305086-.186073 6.4610166-.347337 9.6915246-.595435 4.485436-.347338 8.946023-.793914 13.406609-1.38935 5.929238-.736096 11.811664-1.80879 17.618695-3.212871 3.99392-.938336 7.879071-2.289492 11.592554-4.031595.409251-.114317.741955-.412186.900204-.805951.158248-.393765.124033-.838617-.092576-1.203644-.211226-.570626-.347901-.73189-.931878-.396957-2.743748 1.498182-5.666049 2.64437-8.697522 3.41135-7.153786 1.879177-14.432568 3.247179-21.78108 4.093619-5.08598.669865-10.176101 1.174331-15.270364 1.513399-4.125111.285313-8.2502213.446577-12.4250319.63265-3.5162839.148859-7.0201429.173669-10.5364268.210884-8.8714726.074429-17.7305201-.285313-26.5895677-.831129-2.6713818-.173669-5.3427636-.310123-8.0017203-.620246-5.1812382-.60784-10.3500514-1.24049-15.4940145-2.084024-6.790784-.962963-13.4566133-2.659997-19.8800506-5.061202-.3603259-.136454-.807627-.434172-1.0188526.099239-.2112255.533411-.2857757.942773.4224511 1.240491 1.6178859.758163 3.2771733 1.424944 4.9700126 1.99719 7.2329738 2.324765 14.6787674 3.92869 22.2283816 4.788294 5.3054885.719485 10.610977 1.352135 15.9413156 1.736687 5.3303386.384552 10.8967527.68227 16.3513416.781509 8.0638455.186074 16.0531409.235694 23.9803111-.074429zm55.9747678-14.054761v-.272908c-.728936-2.729079-1.466154-5.458159-2.211656-8.187239 0-.136454 0-.396957-.335476-.372147-.745891.316786-1.256777 1.01752-1.329478 1.823522.662668 2.406552 1.312911 4.813104 1.95073 7.219656.086975.310123 0 .855938.534276.70708.534276-.148859 1.192803-.248099 1.391604-.917964zm3.727509 13.47173l-.236075-.905558c-.559127-2.009595-1.093403-4.006785-1.67738-6.003975-.07455-.272908 0-.930368-.534276-.694675-.534276.235693-1.528279.235693-1.242503 1.153656.621251 2.592626 1.354328 5.160442 2.037705 7.728258 0 .210883.086975.545816.422451.347337.590417-.36754 1.013904-.950561 1.180378-1.625043h.0497zm-139.9431311-20.678981c.0119713-.098879.0119713-.198838 0-.297718 0-.645055-.6336766-.855938-1.0685527-.955178-.4348761-.099239-.2982008.458982-.3479009.7567-.2236506 1.24049-.4473011 2.592625-.6958018 3.895141-.2485006 1.302515-.5591264 2.964773-.8821772 4.453362-.1615254.769104.3354759 1.004797.8821772 1.166061.5467014.161264.5591265-.372147.6958018-.756699.1649689-.671559.268932-1.356604.3106258-2.04681.4224511-2.059215.7455019-4.143239 1.1058278-6.214859z" fill="#000"/>
      <path d="M146.9529902 261.297345v2.772757c0 2.696443-1.249394 5.405604-.8870697 8.114766.2498788 1.946017 1.9740426 3.2688 4.4853246 4.146416 6.4718611 2.263994 18.1661893 1.64076 23.4136442 1.424536 11.7567979-.496044 30.1603717-.585077 40.1555247-4.311764 3.185954-1.182874 3.960579-8.648967 3.873121-13.444056-23.2887047 3.167048-48.16414 5.380166-71.0405448 1.297345zM130.2241893 242.945609v1.993445c0 1.955109-1.5818111 3.910219-1.1492846 5.865329.3213053 1.405634 2.5457272 2.351242 5.8082126 2.990167 8.3539398 1.635647 23.4800084 1.1884 30.2521371 1.02228 15.200216-.357798 38.9891716-.421691 51.9031766-3.105174 4.11518-.85616 5.11617-6.235906 4.94316-9.711656-30.0296953 2.274572-62.184949 3.884662-91.7574017.945609z" fill="#C4C3C6"/>
      <path d="M205.417061 247.725192c-3.797413.484518-7.557596.650274-11.3177796.81603-3.5368061.140255-7.0736123.229509-10.6104184.318762-4.1697083.114754-8.3270067.178507-12.496715.114754-4.7281513 0-9.4438929-.204007-14.1720442-.408015-4.1366154-.195507-8.248411-.467517-12.335387-.81603-3.3506584-.293261-6.688907-.688526-10.0147458-1.134793-5.2024101-.612195-10.362537-1.55757-15.4502583-2.830606-2.7397046-.637178-5.3941016-1.613339-7.905072-2.907109-.2109674-.114754-.4095249-.216758-.6080825-.344263-1.9359359-1.147543-2.010395-2.550095-.1985575-3.825143 1.9208133-1.243816 4.0244526-2.160896 6.2297427-2.715852 5.0414126-1.472819 10.1801618-2.567983 15.3757993-3.276873 3.8346425-.599272 7.7189243-.930785 11.5907963-1.275048 2.4819692-.216758 4.8522498-.522769 7.2845796-.663025 1.7994277-.114754 3.5988554-.255009 5.398283-.306011 3.1024616-.102004 6.2049231-.178507 9.3073846-.306011 6.0932344-.24226 12.1864688-.165757 18.2672934-.102004 4.8150203 0 9.6424504.293261 14.4574704.612023 4.604053.293261 9.195696.752278 13.787339 1.275047 3.487167.357014 6.999153.624774 10.424271 1.275048 4.296838.677302 8.536864 1.691808 12.682863 3.034614 1.873886.688526 3.909101 1.122042 5.485152 2.550096.341056.266346.660615.560563.955558.879783.320516.275056.484892.697302.437403 1.123592-.047488.42629-.300473.799454-.67319.992987-2.315154 1.641701-4.907437 2.826412-7.644465 3.493631-3.43534.991468-6.924374 1.774845-10.449091 2.346088-2.705346.433516-5.414829.81603-8.128449 1.147543-2.705346.331512-5.423103.688526-8.153269.854282-.508804-.038252-1.054837.382514-1.526411.076503z" fill="#C4C3C6"/>
      <path d="M197.926059 235.322373c-2.599315.308792-5.1738736.398856-7.736055.488921-2.5621813.090064-4.8396758.115797-7.2657026.154396-2.8468682 0-5.6937363.077198-8.5406045 0-3.2305765-.077198-6.4611529-.180129-9.6917294-.347391-2.8221128-.145819-5.6359738-.347391-8.441583-.604718-2.2898722-.218728-4.5673667-.501787-6.8448612-.823445-3.5588681-.443347-7.0887864-1.109316-10.5705453-1.994282-1.8681894-.435412-3.6798398-1.100568-5.3966718-1.981415-.1361545-.077198-.2846868-.14153-.4208414-.231594-1.3120348-.77198-1.3615456-1.672623-.1113991-2.573267 1.3416156-.814737 2.79998-1.401131 4.3198129-1.736955 3.454801-.960166 6.970574-1.665282 10.5210345-2.110078 2.6364475-.373124 5.2852726-.578985 7.9464755-.784847 1.6586101-.128663 3.3172203-.308792 4.951075-.398856 1.2377688-.064332 2.4755376-.154396 3.7133063-.180129 2.1289623 0 4.2579246-.077198 6.3745092-.141529 4.1712807-.128664 8.3301837 0 12.5014645 0 3.2924649 0 6.5849298.24446 9.9021501.476054 3.3172203.231594 6.2878653.553252 9.4194203.887777 2.388894.257327 4.790165.450322 7.129548.939242 2.933306.473443 5.829216 1.170097 8.664381 2.084346 1.32565.336843 2.583031.916289 3.713307 1.711223.23538.176335.454946.374424.656017.591851.206467.186291.309596.467591.274767.749467s-.202999.526956-.448054.652963c-1.603559 1.083474-3.381088 1.85916-5.24814 2.290208-2.360696.640542-4.753112 1.147364-7.166681 1.518227-1.844276.283059-3.713306.514653-5.557582.720514-1.844275.205862-3.713306.437456-5.582337.52752-.383708.038599-.717906.334525-1.064481.115797z" fill="#000"/>
      <path d="M240.543738 235.707679c-1.582131-1.392156-3.637656-1.826406-5.518772-2.554414-.142674-.058738-.288208-.109894-.436021-.153265-3.323633 1.159991-6.709381 2.123734-10.140589 2.886488-2.690869.600288-5.394195 1.136715-8.097522 1.634826-2.703327.49811-5.419111 1.008993-8.147353 1.277207-.535682.06386-1.021534.485339-1.557216.204353-3.737318.702464-7.56184 1.098398-11.324073 1.48156-3.5379942.357618-7.0884461.638604-10.6388981.945134-4.185796.357618-8.3591343.67692-12.557388.855729-4.7463937.204353-9.5052451.357618-14.2516388.421478-4.1484228.06386-8.3093034 0-12.4577262-.089405-3.3760438-.089404-6.7520876-.293757-10.1281314-.549199-5.286526-.290032-10.5499671-.921372-15.7590237-1.890266-2.7871845-.466722-5.5071293-1.286135-8.097522-2.439466-.2117814-.102177-.4235627-.191581-.6353441-.30653-1.0339912-.536427-1.5696735-1.162259-1.6070466-1.839178-1.6817931 1.277207-1.5821313 2.554414.3114431 3.754989l.6228863.332074c2.53097 1.331036 5.2132661 2.334929 7.9854025 2.988665 5.1319553 1.296238 10.336587 2.268739 15.5846155 2.912032 3.3511284.447023 6.7147144.855729 10.0783005 1.149487 4.1359651.357618 8.284388.625831 12.4577262.817412 4.7588515.217126 9.5052451.357618 14.2640966.421479 4.185796.076632 8.3840497 0 12.5823034-.102177 3.5629097-.089404 7.1133617-.166037 10.6762714-.319302 3.7373174-.153265 7.5618394-.319302 11.3863614-.80464.510767.306529 1.021534-.076633 1.557216-.102177 2.753158-.178809 5.4814-.536427 8.222099-.868501 2.7407-.332074 5.456485-.702464 8.172269-1.136714 3.550863-.576497 7.065793-1.365455 10.526778-2.362834 2.758265-.659304 5.370308-1.846617 7.698875-3.499547.374156-.193861.628116-.567657.675788-.994669.047672-.427012-.117338-.849973-.439091-1.125495-.309819-.343594-.647376-.659761-1.009076-.945134zM188.9580848 262.774992c-7.9298041.305068-15.9093247.256257-23.8888454.109825-5.4564012-.097622-10.9128024-.390486-16.3567744-.76877-5.4439721-.378283-10.6393609-1.00062-15.9466122-1.708376-7.5521227-.845592-15.0003902-2.42337-22.2357671-4.710239-1.6934018-.562917-3.3532405-1.218829-4.971664-1.964633-.70846208-.329473-.6090288-.805378-.4225914-1.220269.1864374-.414892.6587455-.231851 1.0191911-.097622 6.4255715 2.362063 13.0936156 4.031432 19.8866559 4.978698 5.1456722.81758 10.3162027 1.45212 15.4991624 2.050052 2.6598402.305067 5.3321096.439297 8.004379.610134 8.861991.536919 17.723982.890797 26.5984022.817581 3.5174522 0 7.0224753-.061014 10.5399276-.207446 4.1264811-.18304 8.2529622-.341675 12.4291595-.622337 5.104242-.341676 10.196055-.837918 15.275438-1.488728 7.350954-.832642 14.632155-2.178344 21.788317-4.026888 3.03248-.754477 5.955752-1.88198 8.700412-3.35574.584171-.329473.720891-.170838.932187.390486.216682.359076.250908.796677.092607 1.184023-.158301.387346-.491115.68036-.900502.792813-3.714717 1.713704-7.601159 3.042835-11.596406 3.965874-5.808961 1.381192-11.693342 2.4364-17.624549 3.160497-4.462069.585729-8.924137 1.025026-13.411064 1.366701-3.231581.244054-6.463163.402689-9.6947444.585729-1.2926327.036609-2.4734029.195243-3.7163188.158635zM245 249.035161c-.202532.685251-.898734.786769-1.468354.939047-.569621.152278-.455697-.406074-.544304-.72332-.658228-2.461828-1.320675-4.923655-1.987342-7.385483.074066-.824514.59454-1.541343 1.35443-1.865405.303798 0 .303798.241107.341773.380695.759493 2.791763 1.510548 5.583526 2.253164 8.375289l.050633.279177zM249 261.555588c-.194422.586933-.673237 1.087952-1.330786 1.392499-.359312.170076-.385928-.116927-.452467-.297633-.731933-2.200361-1.517097-4.400722-2.18249-6.622342-.239541-.786602.838396-.797232 1.330786-.988568.492391-.191336.492391.361412.572238.595267.62547 1.711391 1.197708 3.422783 1.796562 5.144805l.266157.775972zM108.9911469 242.236457c-.3552935 2.005903-.6738326 4.023818-1.0903837 6.005698-.0411114.668312-.1436226 1.331626-.3062875 1.981881-.1347665.372353 0 .936889-.6860841.732695-.6860842-.204193-1.0291262-.384364-.8698567-1.129071.3185391-1.441368.5880721-2.882735.8698567-4.312092.2817845-1.429356.465557-2.510382.6860841-3.771579 0-.288273 0-.828786.343042-.732695.3430421.096091 1.0046232.300285 1.0536292.924878.0118041.095743.0118041.192531 0 .288273v.012012zM104.99188123 256.429699c-.35487836 2.191666-.67304517 4.396456-1.08910946 6.561875-.04798595.729399-.15028862 1.453514-.30592963 2.165419-.13460903.393713 0 1.010529-.68528236.800549-.68528236-.20998-1.04016072-.433084-.86884013-1.312375.30592962-1.561726.58738488-3.136577.86884013-4.711427.2447437-1.312375.46501303-2.742864.68528236-4.107734 0-.328094 0-.918663.34264118-.813673.34264118.10499 1.00344917.341218 1.05239791 1.023653.01082507.100281.01082507.201566 0 .301846v.091867z" fill="#FFF"/>
      <path d="M377.397536 240.900337c-.036933-.046083-.069779-.095289-.098167-.147061-1.329466-3.006254-3.356969-5.652906-5.914575-7.720741-.235847-.18216-.514825-.300363-.809879-.343144-.114644-.079456-.238191-.145263-.368127-.196082l-5.693699-4.509893c-2.45418-1.997589-4.994257-4.007433-7.546605-5.943745-3.534019-2.671622-7.129394-5.269712-10.700226-7.904568-3.570832-2.634856-7.190749-5.367753-10.835206-8.002609-2.343743-1.69121-4.748839-3.308889-7.141665-4.902058L324.951701 199c-1.055297 3.357909-7.239832 10.478148-9.951701 12.880156 1.701458 1.197329 3.339767 2.48175 4.908361 3.848116 2.45418 2.107884 3.509478 2.377498 5.730511 4.705975 1.22709 1.225514 3.546291 4.656955 4.785652 5.906979.773066.772074 1.595217 1.495128 2.45418 2.193671l2.061512 1.924058c3.067725 2.904469 6.687641 5.343242 10.025326 8.014864 3.030913 2.451029 6.245889 4.632444 9.534491 6.78935 1.22709.833349 2.552348 1.642189 3.840792 2.451028 1.685204 1.241855 3.370408 2.467369 5.055612 3.676544 1.803823 1.28679 4.368441 3.921646 6.847163 4.301555.618494.464645 1.486695.396329 2.024699-.159317l.220876-.245103c.22558-.131078.43553-.28731.625816-.465695.078455-.059926.148602-.129983.208606-.208338.269959-.171572 4.662942-4.436362 4.822464-4.632444.442195-.604479.717281-1.314557.797609-2.058864.241924-2.445175-.299443-4.903942-1.546134-7.022198z" fill="#C4C3C6"/>
    </g>
  </g>
</svg>
