<svg width="15" height="14" viewBox="0 0 15 14" fill="none" xmlns="http://www.w3.org/2000/svg">
<path d="M7.96445 1.12132C8.68242 0.403351 9.6562 0 10.6716 0C12.7859 0 14.5 1.71405 14.5 3.82843C14.5 4.84379 14.0966 5.81756 13.3787 6.53553L11.0355 8.87868C10.3176 9.59665 9.34378 10 8.32841 10C7.27122 10 6.31412 9.57149 5.62131 8.87868L7.03552 7.46447C7.3664 7.79535 7.82351 8 8.32841 8C8.81334 8 9.27841 7.80736 9.62131 7.46447L11.9645 5.12132C12.3074 4.77842 12.5 4.31336 12.5 3.82843C12.5 2.81861 11.6814 2 10.6716 2C10.1866 2 9.72156 2.19264 9.37867 2.53553L8.7071 3.20711L7.29288 1.79289L7.96445 1.12132Z" fill="#4038FF"/>
<path d="M6.67157 4C7.72877 4 8.68587 4.42851 9.37868 5.12132L7.96447 6.53553C7.63359 6.20465 7.17648 6 6.67157 6C6.18664 6 5.72158 6.19264 5.37868 6.53553L3.03553 8.87868C2.69264 9.22158 2.5 9.68664 2.5 10.1716C2.5 11.1814 3.31861 12 4.32843 12C4.81335 12 5.27843 11.8074 5.62132 11.4645L6.29289 10.7929L7.70711 12.2071L7.03553 12.8787C6.31756 13.5966 5.34379 14 4.32843 14C2.21404 14 0.5 12.286 0.5 10.1716C0.5 9.15621 0.903349 8.18244 1.62132 7.46447L3.96447 5.12132C4.68244 4.40335 5.65621 4 6.67157 4Z" fill="#4038FF"/>
</svg>
