<svg xmlns="http://www.w3.org/2000/svg" viewBox="0 0 549.58 578.01">
    <defs>
        <pattern id="lines" data-name="lines" width="16" height="16" patternTransform="translate(0 672)" patternUnits="userSpaceOnUse">
            <path fill="none" d="M0 0h16v16H0z"/>
            <path class="cls-2" d="M1.98 78.02l66-66M-14.02 78.02l66-66M-30.02 78.02l66-66M-46.02 78.02l66-66M-62.02 78.02l66-66M1.98 62.02l66-66M-14.02 62.02l66-66M-30.02 62.02l66-66M-46.02 62.02l66-66M-62.02 62.02l66-66M1.98 46.02l66-66M-14.02 46.02l66-66M-30.02 46.02l66-66M-46.02 46.02l66-66M-62.02 46.02l66-66M1.98 30.02l66-66M-14.02 30.02l66-66M-30.02 30.02l66-66M-46.02 30.02l66-66M-62.02 30.02l66-66M1.98 14.02l66-66M-14.02 14.02l66-66M-30.02 14.02l66-66M-46.02 14.02l66-66M-62.02 14.02l66-66"/>
        </pattern>
        <style>
            .cls-2,.cls-4,.cls-5{fill:none}.cls-2,.cls-3,.cls-4,.cls-5{stroke:currentColor;stroke-miterlimit:10}.cls-2,.cls-3,.cls-4{stroke-linecap:square}.cls-2{stroke-width:2px}.cls-3,.cls-4,.cls-5{stroke-width:12px}.cls-3{fill:url(#lines)}
        </style>
    </defs>
    <g id="Layer_2" data-name="Layer 2">
        <g id="Layer_6" data-name="Layer 6">
            <path class="cls-3" d="M322 531v-94.76a39.21 39.21 0 10-78.42 0L243.3 531M438.66 531v-94.76a39.21 39.21 0 00-78.42 0l-.3 94.76M155.42 399.4v75.05L130.17 482l-3.44 56h78.65V436.24a39.22 39.22 0 00-50-37.71c.03.27.04.57.04.87z"/>
            <path class="cls-4" d="M116.16 365h365a25.07 25.07 0 0025-25 25.07 25.07 0 00-25-25H137.87"/>
            <path class="cls-3" d="M376.38 43l69-.21-19.57 39.24 19.57 36.62H339.16l-11-26.16 61.22-.49-13-49z"/>
            <path class="cls-5" d="M285.38 16.46h81.54l22 75.86H285.38"/>
            <path class="cls-4" d="M284.98 6v156.95M121.66 365h360v173h-354M141.24 315h334.08c-22.18-85.7-94.69-149-192.66-149a199 199 0 00-178.49 110.92M428.39 309.91C411.94 251.29 358.17 208 285.53 208M60.16 572h447v-34H130.17"/>
            <path class="cls-4" d="M92.29 369.1a45 45 0 01-45-45 45 45 0 0145-45 45 45 0 0145 45 45 45 0 01-45 45zM123.85 572H60.72l-6.31-90-25.25-7.5v-75.1c0-16.58 11.3-30 25.25-30h75.76c13.94 0 25.25 13.44 25.25 30v75.05L130.17 482zM6 571.94h537.58"/>
            <path class="cls-5" d="M124.28 401.83l-28.2.22v23.18l14.21 10 14-10.21z"/>
        </g>
    </g>
</svg>
