<svg viewBox="0 0 96 106" xmlns="http://www.w3.org/2000/svg">
  <g fill="none" fill-rule="evenodd">
    <g transform="translate(0 .728162)">
      <path d="M23.991169 105.075461c-12.9787828 0-23.9682012-7.8113437-23.9682012-18.2819591 0-10.4706154 10.9894184-18.2819595 23.9682012-18.2819595s23.9682012 7.8113441 23.9682012 18.2819595S36.9699518 105.075461 23.991169 105.075461z" fill="#000" fill-rule="nonzero"/>
      <path d="M23.991169 100.631615c10.7519906 0 19.4682012-6.1955341 19.4682012-13.8381131S34.7431596 72.9553884 23.991169 72.9553884 4.5229678 79.1509229 4.5229678 86.7935019c0 7.642579 8.7162106 13.8381131 19.4682012 13.8381131z" fill="#FFF" fill-rule="nonzero"/>
      <path d="M23.991169 96.9590919c9.9411255 0 18-5.7476687 18-12.8377774s-8.0588745-12.8377775-18-12.8377775S5.99116898 77.0312058 5.99116898 84.1213145 14.0500435 96.9590919 23.991169 96.9590919z" fill="#D8D8D8"/>
      <path d="M40.8847004 78.204328c0 7.6972578-7.8450817 13.184465-16.8935314 13.184465-9.0484498 0-16.89353145-5.4872072-16.89353145-13.184465 0-.0422526.0002502-.0844931.00075043-.1267202l-.00075043-58.6626065c-.0000262-2.5906349 2.12662892-4.6907732 4.74999995-4.6907732h24.2870629c2.6233526 0 4.75 2.1001097 4.75 4.6907263v58.6939384c0 .0127158-.0000512.0254199-.0001535.0381119a10.70587203 10.70587203 0 0 1 .0001535.0573233z" fill="#000" fill-rule="nonzero"/>
      <path d="M36.1339497 78.1088928l.0007507-58.6939384H11.8476375l.0007508 58.6939384c-.0005001.0317702-.0007508.0635822-.0007508.0954352 0 4.6909623 5.4368443 8.4937386 12.1435315 8.4937386s12.1435314-3.8027763 12.1435314-8.4937386c0-.031853-.0002507-.063665-.0007507-.0954352z" fill="#D8D8D8" fill-rule="nonzero"/>
      <path d="M29.0767265 85.6727348c-1.5469618.499685-3.2697161.7784515-5.0855575.7784515-6.7066872 0-12.1435315-3.8027763-12.1435315-8.4937386 0-.031853.0002507-.0636651.0007508-.0954353l-.0007508-58.6939383h1.2949864l2.560103 55.922049c-.0005001.0317702-1.4527269 9.0311914 9.5384421 10.3735419 1.4411404.1760063 2.7131327.2404804 3.8355575.2090698z" fill="#FFF" fill-rule="nonzero"/>
      <ellipse fill="#000" cx="23.991169" cy="25.4273762" rx="17.9261654" ry="12.6928903"/>
      <path d="M24.0875462 39.7870759c-10.3800267 0-13.4866959-3.4994124-17.63975953-6.8910203-3.04168018-2.4839943-4.88278314-5.8366299-4.88278314-9.9978645 0-1.1560509.14209785-7.9551858.41255944-9.0332221C4.00988247 5.76432009 13.2901512.08320703 23.991169.08320703c10.9417016 0 20.3980254 5.93954252 22.1396708 14.33198837.1883694.907693.2864946 6.1027252.2864946 7.0633938 0 4.4241205-5.3996285 7.9186762-5.4734704 11.8778296-.4875681 26.141742-6.476291 6.4306571-16.8563178 6.4306571z" fill="#000" fill-rule="nonzero"/>
      <path d="M6.31664361 21.4785892C7.10431426 27.2882081 14.776591 31.8475633 24.125 31.8475633s17.0206857-4.5593552 17.8083564-10.3689741c.0441239.3254443.0666436.654812.0666436.9875213 0 6.2720193-8.0029101 11.3564954-17.875 11.3564954S6.25 28.7381298 6.25 22.4661105c0-.3327093.02251973-.662077.06664361-.9875213z" fill="#D8D8D8" fill-rule="nonzero"/>
      <path d="M23.991169 29.9128336c9.9003478 0 17.9261654-5.6828005 17.9261654-12.6928903 0-7.0100897-8.0258176-12.69289023-17.9261654-12.69289023-9.9003478 0-17.92616547 5.68280053-17.92616547 12.69289023 0 7.0100898 8.02581767 12.6928903 17.92616547 12.6928903z" fill="#D8D8D8" fill-rule="nonzero"/>
      <path d="M30.8339526 35.066338c.9048705 0 1.6384129.7335424 1.6384129 1.6384129v39.1931173c0 .9048705-.7335424 1.638413-1.6384129 1.638413s-1.638413-.7335425-1.638413-1.638413V36.7047509c0-.9048705.7335425-1.6384129 1.638413-1.6384129zM24.0875462 37.5476549c.9048705 0 1.638413.7335424 1.638413 1.6384129v39.1931173c0 .9048705-.7335425 1.638413-1.638413 1.638413-.9048705 0-1.638413-.7335425-1.638413-1.638413V39.1860678c0-.9048705.7335425-1.6384129 1.638413-1.6384129zM17.3411399 35.066338c.9048705 0 1.6384129.7335424 1.6384129 1.6384129v39.1931173c0 .9048705-.7335424 1.638413-1.6384129 1.638413s-1.638413-.7335425-1.638413-1.638413V36.7047509c0-.9048705.7335425-1.6384129 1.638413-1.6384129z" fill="#000"/>
    </g>
    <g fill-rule="nonzero">
      <path d="M22.02721453 15.36308366c-2.67976595 2.8598064-6.12214365 3.91778485-9.53052588 4.51484253-1.60755386.28160056-3.15213836.26958203-4.45591637-.06041631-1.67634184-.4242977-2.95260975-1.37163406-3.33660343-2.8042062-.51405144-1.91778095.62009947-4.56178428 2.63835876-6.97108443 2.17910138-2.60130563 5.17336188-4.65902172 8.5872552-5.57448207 3.7310265-1.00050192 7.48585512-1.57008 10.89985229-1.48555982 4.6245954.11449092 8.3838633 1.42747992 10.75362493 4.2103163.94235389 1.10661624 1.40312305 2.08487011 1.12455218 3.31357724-.21318486.94030574-.87706537 1.7576091-1.81011488 2.30590677-.62136058.36513647-3.6428479 1.63833161-4.83585303 1.60411174-.56970067-.01634112-2.66547092-.11457387-2.87750866-.12297678-1.39373891-.05523284-2.45345557-.05953001-3.42378228.00052805-2.01120258.12448268-3.20919466.5100842-3.73333883 1.06944298z" fill="#000"/>
      <path d="M20.96999566 14.27403624c5.0380523-3.47948612 21.43973353.41789362 17.09704674-4.47909155-4.34268679-4.89698517-14.67680138-4.61656443-21.08607814-2.89793648-6.40927682 1.71862795-10.58180454 7.88891243-10.021596 9.9788535.56020856 2.08994106 8.97257522.8776607 14.0106274-2.60182547z" fill="#FFF"/>
    </g>
    <g>
      <g transform="translate(48 .728162)">
        <path d="M23.991169 105.075461c-12.9787828 0-23.9682012-7.8113437-23.9682012-18.2819591 0-10.4706154 10.9894184-18.2819595 23.9682012-18.2819595s23.9682012 7.8113441 23.9682012 18.2819595S36.9699518 105.075461 23.991169 105.075461z" fill="#000" fill-rule="nonzero"/>
        <path d="M23.991169 100.631615c10.7519906 0 19.4682012-6.1955341 19.4682012-13.8381131S34.7431596 72.9553884 23.991169 72.9553884 4.5229678 79.1509229 4.5229678 86.7935019c0 7.642579 8.7162106 13.8381131 19.4682012 13.8381131z" fill="#FFF" fill-rule="nonzero"/>
        <path d="M23.991169 96.9590919c9.9411255 0 18-5.7476687 18-12.8377774s-8.0588745-12.8377775-18-12.8377775S5.99116898 77.0312058 5.99116898 84.1213145 14.0500435 96.9590919 23.991169 96.9590919z" fill="#D8D8D8"/>
        <path d="M40.8847004 78.204328c0 7.6972578-7.8450817 13.184465-16.8935314 13.184465-9.0484498 0-16.89353145-5.4872072-16.89353145-13.184465 0-.0422526.0002502-.0844931.00075043-.1267202l-.00075043-58.6626065c-.0000262-2.5906349 2.12662892-4.6907732 4.74999995-4.6907732h24.2870629c2.6233526 0 4.75 2.1001097 4.75 4.6907263v58.6939384c0 .0127158-.0000512.0254199-.0001535.0381119a10.70587203 10.70587203 0 0 1 .0001535.0573233z" fill="#000" fill-rule="nonzero"/>
        <path d="M36.1339497 78.1088928l.0007507-58.6939384H11.8476375l.0007508 58.6939384c-.0005001.0317702-.0007508.0635822-.0007508.0954352 0 4.6909623 5.4368443 8.4937386 12.1435315 8.4937386s12.1435314-3.8027763 12.1435314-8.4937386c0-.031853-.0002507-.063665-.0007507-.0954352z" fill="#D8D8D8" fill-rule="nonzero"/>
        <path d="M29.0767265 85.6727348c-1.5469618.499685-3.2697161.7784515-5.0855575.7784515-6.7066872 0-12.1435315-3.8027763-12.1435315-8.4937386 0-.031853.0002507-.0636651.0007508-.0954353l-.0007508-58.6939383h1.2949864l2.560103 55.922049c-.0005001.0317702-1.4527269 9.0311914 9.5384421 10.3735419 1.4411404.1760063 2.7131327.2404804 3.8355575.2090698z" fill="#FFF" fill-rule="nonzero"/>
        <ellipse fill="#000" cx="23.991169" cy="25.4273762" rx="17.9261654" ry="12.6928903"/>
        <path d="M24.0875462 39.7870759c-10.3800267 0-13.4866959-3.4994124-17.63975953-6.8910203-3.04168018-2.4839943-4.88278314-5.8366299-4.88278314-9.9978645 0-1.1560509.14209785-7.9551858.41255944-9.0332221C4.00988247 5.76432009 13.2901512.08320703 23.991169.08320703c10.9417016 0 20.3980254 5.93954252 22.1396708 14.33198837.1883694.907693.2864946 6.1027252.2864946 7.0633938 0 4.4241205-5.3996285 7.9186762-5.4734704 11.8778296-.4875681 26.141742-6.476291 6.4306571-16.8563178 6.4306571z" fill="#000" fill-rule="nonzero"/>
        <path d="M6.31664361 21.4785892C7.10431426 27.2882081 14.776591 31.8475633 24.125 31.8475633s17.0206857-4.5593552 17.8083564-10.3689741c.0441239.3254443.0666436.654812.0666436.9875213 0 6.2720193-8.0029101 11.3564954-17.875 11.3564954S6.25 28.7381298 6.25 22.4661105c0-.3327093.02251973-.662077.06664361-.9875213z" fill="#D8D8D8" fill-rule="nonzero"/>
        <path d="M23.991169 29.9128336c9.9003478 0 17.9261654-5.6828005 17.9261654-12.6928903 0-7.0100897-8.0258176-12.69289023-17.9261654-12.69289023-9.9003478 0-17.92616547 5.68280053-17.92616547 12.69289023 0 7.0100898 8.02581767 12.6928903 17.92616547 12.6928903z" fill="#D8D8D8" fill-rule="nonzero"/>
        <path d="M30.8339526 35.066338c.9048705 0 1.6384129.7335424 1.6384129 1.6384129v39.1931173c0 .9048705-.7335424 1.638413-1.6384129 1.638413s-1.638413-.7335425-1.638413-1.638413V36.7047509c0-.9048705.7335425-1.6384129 1.638413-1.6384129zM24.0875462 37.5476549c.9048705 0 1.638413.7335424 1.638413 1.6384129v39.1931173c0 .9048705-.7335425 1.638413-1.638413 1.638413-.9048705 0-1.638413-.7335425-1.638413-1.638413V39.1860678c0-.9048705.7335425-1.6384129 1.638413-1.6384129zM17.3411399 35.066338c.9048705 0 1.6384129.7335424 1.6384129 1.6384129v39.1931173c0 .9048705-.7335424 1.638413-1.6384129 1.638413s-1.638413-.7335425-1.638413-1.638413V36.7047509c0-.9048705.7335425-1.6384129 1.638413-1.6384129z" fill="#000"/>
      </g>
      <g fill-rule="nonzero">
        <path d="M70.02721453 15.36308366c-2.67976595 2.8598064-6.12214365 3.91778485-9.53052588 4.51484253-1.60755386.28160056-3.15213836.26958203-4.45591637-.06041631-1.67634184-.4242977-2.95260975-1.37163406-3.33660343-2.8042062-.51405144-1.91778095.62009947-4.56178428 2.63835876-6.97108443 2.17910138-2.60130563 5.17336188-4.65902172 8.5872552-5.57448207 3.7310265-1.00050192 7.48585512-1.57008 10.89985229-1.48555982 4.6245954.11449092 8.3838633 1.42747992 10.75362493 4.2103163.94235389 1.10661624 1.40312305 2.08487011 1.12455218 3.31357724-.21318486.94030574-.87706537 1.7576091-1.81011488 2.30590677-.62136058.36513647-3.6428479 1.63833161-4.83585303 1.60411174-.56970067-.01634112-2.66547092-.11457387-2.87750866-.12297678-1.39373891-.05523284-2.45345557-.05953001-3.42378228.00052805-2.01120258.12448268-3.20919466.5100842-3.73333883 1.06944298z" fill="#000"/>
        <path d="M68.96999566 14.27403624c5.0380523-3.47948612 21.43973353.41789362 17.09704674-4.47909155-4.34268679-4.89698517-14.67680138-4.61656443-21.08607814-2.89793648-6.40927682 1.71862795-10.58180454 7.88891243-10.021596 9.9788535.56020856 2.08994106 8.97257522.8776607 14.0106274-2.60182547z" fill="#FFF"/>
      </g>
    </g>
  </g>
</svg>
