<svg viewBox="0 0 400 320" xmlns="http://www.w3.org/2000/svg">
  <g fill-rule="nonzero" fill="none">
    <path d="M134.7244523 277.472144c4.7381468-.100107 9.4297697-.953887 13.8973137-2.52903.3603-.102528.703444-.239232 1.046587-.358849 1.715718.922755 3.311336 1.845509 5.009896 2.734087 2.556419 1.367043 4.649595 3.246727 7.240329 4.562506 1.441203.734786 3.294178 1.862597 4.889795.427201.703445-.649345.617659-1.708804 1.321103-2.289797 5.387353-5.126412 5.919226-3.844809 9.196247-8.868693.343143-.512641.600501-7.775058.66913-8.338963.054077-.834122-.320687-1.638549-.995117-2.136005-1.852975-1.48666-4.649595-1.896772-6.86287-3.041671l-.205887-.102528c2.541995-5.299327 1.920727-11.565962-1.612774-16.267814-3.795899-5.239672-8.851611-9.44656-14.703701-12.235037-2.085871-1.021325-4.342252-1.652651-6.656985-1.862596-2.440272-3.682896-5.4988766-6.919929-9.0418318-9.569302-2.1418087-1.753765-4.6998084-2.930528-7.4290577-3.417608-2.0739714-4.443846-5.1790081-8.33293-9.0589894-11.346459-1.5550497-1.305379-3.3497038-2.297747-5.2844105-2.922055-1.284967-3.656214-3.2267128-7.049262-5.7304972-10.013591-1.7038312-2.172821-3.9442718-3.868459-6.50257-4.921356-.7394762-2.681129-1.8974137-5.229858-3.4314354-7.552913-2.1372742-1.807385-4.0703019-3.841491-5.7648115-6.066254l-.2402005-.187969v-.290496c-2.6933608-3.682753-4.6771452-7.831334-5.8505974-12.235037-2.7133761-3.093707-6.687932-4.796508-10.8090215-4.630859-4.4704374.178966-8.7296667 1.942454-12.0100239 4.97262l-2.4706335 2.084741-.2058861.78605c-1.7200935-.507137-3.507969-.74917-5.3015677-.717698-1.0826422.014158-2.1619552.122798-3.2255493.324673l-.7892301.102528-.7892302.256321c-7.56631501 2.426501-11.47815137 8.373139-9.5222332 14.507745 1.10736204 3.843327 2.9739352 7.427811 5.49029665 10.543321.43669878.514101.90060062 1.004654 1.38973134 1.469571-.21078778 1.552829-.05210485 3.133264.46324378 4.613771 1.22874697 3.939722 3.32083843 7.558405 6.12511223 10.594585.5661868.580993 1.1323736 1.12781 1.7157177 1.708804-.3075986 2.083299.046329 4.210257 1.0122734 6.083342 2.4453007 4.992227 6.1231654 9.284398 10.6889213 12.474269-.0231753 2.242953.6477678 4.438597 1.9216038 6.288399 3.0373741 4.632956 7.1587679 8.462135 12.0100239 11.15849.1037302 2.74896 1.2502793 5.356466 3.2083921 7.296593l.1715718.187968c1.2230046 1.431957 2.5598713 2.763437 3.9976222 3.981513 2.7549508 2.281845 5.7939804 4.200148 9.0418323 5.707406.3215929 2.484534 1.4621281 4.792474 3.2427065 6.561807 2.8725649 2.894534 6.1700657 5.337527 9.7795909 7.245329 6.4180297 3.517034 13.6412603 5.318508 20.9660703 5.22894z" fill="#040404"/>
    <path d="M84.3568039 177.526153c-1.9952184-.272498-1.4785993 1.453322-2.3158785 2.125484-2.3515073 1.943819-4.4714268 1.816653-5.0593037-.581329-1.4964137-5.849623-4.0973234-11.590247-2.458394-17.912199 3.4203743-2.979311 4.7742725-2.888479 6.8407486.36333 1.5094424 2.84149 2.7044126 5.845308 3.56289 8.9561.4453612 2.397982-1.3182693 4.759631-.6056913 7.157613l.0356289-.108999z" fill="#FFF"/>
    <path d="M69.95434 173.08647c1.38253-.474407 1.7281624 1.118246 2.2811744 1.982344 3.0588476 5.082934 5.8584708 10.165867 9.1419795 15.248801 9.2770709 13.841846 20.0354011 26.672766 32.0919772 38.274489 6.221385 6.014805 13.3932592 11.233283 19.9084318 16.943112.3283508.27109.7085466.677724 1.38253.389691 5.5755977 4.883552 11.6910091 9.14016 18.2321141 12.690391 1.641754.931871 2.384864 3.219191 5.270896 2.626182 0 1.694312 2.142921 2.06706 3.352635 2.727841 3.093411 1.694312 6.238666 3.388623 9.383922 5.082934-.808975 1.270173-1.536219 2.588656-2.177485 3.947745-4.712123-2.473694-9.320556-5.071638-13.8253-7.793831-19.6598732-11.846984-37.4759627-26.409565-52.899053-43.238821-11.7693529-12.953761-22.0181743-27.162001-30.5539125-42.35778-.6426098-1.116802-1.1749951-2.291206-1.5899095-3.507224-.3629141-1.050473-1.9528236-2.355092 0-3.015874zM152.317004 269.403715c2.573908 1.085112.626085 1.392831-.67826 1.813919-8.7340703 2.982715-18.4402102 2.19337-26.4869052-2.154029-2.9683381-1.450315-5.6785015-3.318621-8.034767-5.53893-2.0695612-1.992072-1.2173889-3.903165 2.1739088-4.729146 3.38953-.9574 6.9924593-1.052466 10.4347624-.275327 8.1973208 2.139984 16.069142 5.24205 23.426042 9.231551 1.739127.987938.41739.939351-.53913 1.149895-1.063474-.707239-2.474618-.764376-3.599993-.145761l3.304342.647828z" fill="#C4C3C6"/>
    <path d="M157.953189 261.261956c-3.221387-3.354747-6.566675-6.592077-9.646463-10.064239-2.317435-2.258072-3.822776-5.152307-4.301084-8.26945-.101459-1.933111 1.174273-3.691621 3.115188-4.294075 1.80258-.885508 3.956673-.841267 5.717079.117416 4.924654 2.254364 9.181901 5.631795 12.389953 9.829407 3.062088 3.992148 2.123992 9.041041-2.56649 13.418985l-3.805486-4.512134c.991196 3.556031.991196 3.556031-1.008896 3.606352l.106199.167738z" fill="#FFF"/>
    <path d="M126.354464 254.298265c-10.2283744 2.091771-18.0081906-.686612-24.6592388-5.764348-1.1526691-.884223-2.2162808-1.862214-3.177916-2.922093-.9551114-1.005966-2.2749016-2.043868-.9724771-3.480963 1.1507766-1.320744 2.8831426-2.099631 4.7234599-2.123707 2.536892-.066385 5.0629715.329782 7.432503 1.165644 6.6510482 2.123707 12.1559628 5.492896 17.9213623 8.670473 1.6150065.91016 1.3545216 2.139674 1.3718872 3.193544.0173657 1.05387-1.8407601.814354-2.6395805 1.26145zM110.012515 236.269127c-10.0482484 2.209471-16.8623791-.79541-22.3966984-6.257224-1.4894672-1.482651-2.8120823-3.130843-3.9432025-4.913865-1.7294748-2.686717 0-4.860838 3.770255-5.090623 2.3620263-.078648 4.7037036.469429 6.7968359 1.59082 5.8568706 3.051271 11.3132898 6.846231 16.2397682 11.294819 2.058075 1.767577 2.1445488 2.951854-.4669582 3.376073z" fill="#C4C3C6"/>
    <path d="M135.403094 246.629546c-1.2239568-3.426137-4.0407342-5.927216-5.8515196-8.993608-1.5592875-2.638125-3.3533064-5.139204-3.5209717-8.30838-.1173658-1.713068 0-3.563182 2.2467153-4.573892 2.0265145-1.182922 4.5585985-.957662 6.3545156.565313 3.8060027 3.220568 7.4946398 6.475397 8.8862624 11.100681 1.20719 4.04284.234731 7.743067-3.923369 11.58034.1173658-3.186307-5.1976249-4.642415-1.2910229-8.188465-2.9676762.685227-2.9844427.702357-2.2634818 2.51821.3856302.976448.8550931 1.918636 1.3077894 2.877954 1.1401242 2.415426-.9053927 1.404716-2.0455169 1.370454l.1005992.051393z" fill="#FFF"/>
    <path d="M70.3502441 207.020666c-1.1631669-2.440232.7536011-3.389212 3.0635524-3.897593 1.9716886-.356185 4.0007796.067219 5.6847737 1.186224 5.0685591 3.331314 9.7756551 7.217409 14.0399167 11.591104.7904979.773094 1.0665879 1.955284.7044532 3.016399-.2129742 1.016764-1.7693244.813411-2.7522824.932033-10.3865894 1.237063-17.0543211-5.304116-20.7404136-12.828167z" fill="#C4C3C6"/>
    <path d="M117.5011963 231c-2.8626502-3.889372-5.3065281-8.093857-7.2877603-12.537976-.9572941-2.099249-1.3597797-4.426005-1.1660417-6.740847.119381-1.7191 1.324297-3.14513 2.9474942-3.488388 1.4839367-.524361 3.1249522-.147781 4.259291.977423 2.9996598 2.410976 5.3898331 5.545944 6.9638599 9.133848 1.5084213 3.672847.7976679 7.925498-1.8138426 10.852763-.8259462 1.061684-1.5223322 3.185051-2.817934.353895-.2105353-.353895-.5020457-.23593-1.0850665 1.449282zm-4.5346064-17.391386c.5668258 7.212707.5668258 7.212707 4.1135358 11.071842-2.5102286-3.640058-2.3158883-7.246411-4.1135358-11.071842zM104.1837177 215c-2.2068056-3.401996-1.1468439-7.450371-4.4657405-10.205987 1.5603126 2.862426 2.4114775 6.043792 2.4848284 9.287448-4.0139535-5.341133-7.0722038-11.005456-7.1764624-17.537288-.2485476-2.150153 1.288545-4.106234 3.4752844-4.422595 2.012109-.464423 4.0953595.43038 5.1086682 2.194287 3.8228128 4.694755 6.6551697 9.593629 4.8132689 15.666191-.8319241 2.071618-2.3171929 3.829464-4.239847 5.017944zm-3.4752844-12.026055l-1.6160073-4.762794c-.7298097 1.598938-.0347528 3.299936 1.6333837 4.762794h-.0173764z" fill="#FFF"/>
    <path d="M61.2395281 184.062604c1.513869-.188851 3.0519239.051728 4.4267093.692417 6.6490249 3.115878 10.5022334 8.274388 14.8393332 13.034757 1.0573921 1.159799.5197351 2.977395-2.5986755 3.150499-5.2425282.435873-10.3925751-1.532067-13.9073944-5.314303-2.227365-2.378052-3.8801275-5.204223-4.838913-8.274388-.537657-1.661802.3046723-2.683117 2.0789404-3.288982z" fill="#C4C3C6"/>
    <path d="M82.5143859 178.175084c4.0769847-2.237534 6.458401-1.074721 8.4587907 1.761837 2.9148536 4.193173 5.1819619 8.403964 3.3911368 13.513292-.7002817 1.680562-1.7196748 3.231871-3.0101102 4.580777-.5747455.415392-1.2180077.742576-1.905133.96901 0-1.391851-2.8576996-.616643-2.7243403-1.761837.6286939-5.285512-4.5342166-8.967752-4.7247299-14.094698 0-1.761837 1.1430798-3.417964.5334373-5.109328l-.0190514.140947z" fill="#FFF"/>
    <path d="M54.2393527 168.066817c1.6611295-.251073 3.3523358.212559 4.6353683 1.270752 4.5849129 3.46742 8.5152173 7.686115 11.6148583 12.467112 1.1632483 1.717233.3877495 3.24557-2.8376209 3.194053-4.3590572.006946-8.4718461-1.968059-11.121359-5.340595-2.0194019-2.504881-3.5054205-5.377237-4.3709937-8.448786-.51112427-1.597027.21149969-2.489988 2.079747-3.142536z" fill="#C4C3C6"/>
    <path d="M89.0755712 204.547618c.4140497-7.370428 10.0579569-8.336208 10.0579569-8.336208s23.1177739-6.370761 25.8781051-6.370761c14.5607471 0 12.6802715-25.415269 1.9494839-41.359115-20.7024841-20.688029-17.976657-58.7939891-4.8305796-75.9408239 7.0215925-9.1664404 17.1313056-14.7747431 28.0346135-17.875406 14.632389-27.88048312 46.858195-42.2274882 77.852149-34.65996134 30.993954 7.56752686 52.627475 35.06489984 52.262964 66.42904774.012484 8.0486224-1.412262 16.0370446-4.209505 23.6023132 10.782267 16.6584493 10.146775 38.0867633-1.604443 54.1006363l-25.222526 16.164111c1.569938.169435 31.433271 9.45448 32.951454 9.945842C286.818798 191.755266 301 196.21141 301 196.21141s-4.41653 12.182385-6.107233 17.977067c-12.076449 41.325227-34.935442 71.772719-72.579459 82.040488-11.735076 3.309362-23.900292 4.913417-36.108582 4.761127-28.489656-.393745-55.1906633-13.711907-72.320678-36.072738-12.9218005-16.9774-25.9988696-39.30895-24.8084768-60.369736z" fill="#000"/>
    <path d="M261.62267 59L262 58.373925c-.902278-.7207649-1.588906-1.6589555-1.98956-2.7184836-.799595-.4512697-1.342308-1.2272047-1.475019-2.1088842-16.705443-18.8481529-35.486204-25.4219405-55.776286-23.0988727-3.513708.4194313-6.86562 1.6643665-9.759135 3.6246448 17.357196-2.5372514 33.410887 2.8008618 48.812826 15.9813883C248.639075 51.964894 255.431022 54.0408269 261.62267 59zM132.5317621 135h-.8058198c-.1649679-1.137449-.6633852-2.20562-1.4364615-3.078516.0208576-.912281-.4002157-1.78174-1.1386585-2.351173-8.2684126-23.6808891-3.7838498-41.8136839 9.8975701-56.1067917C141.5069283 70.9420776 144.58643 69.0625363 148 68c-12.2624762 11.8404443-16.2915756 27.3345115-12.6653862 46.6851805-2.0495853 6.3092655-3.959028 12.7200205-2.8028517 20.3148195zM261.781935 222.538156c-2.80138-10.70043-.760869-21.975606-6.795941-33.538156-1.954049 15.213881-4.841891 28.923279-10.479236 41.922695-13.003938 30.02206-41.951532 46.622095-72.628374 41.652227-3.702687-.669222-7.30079-1.80568-10.704039-3.380863 41.242541-6.153169 71.348731-23.987219 83.263243-65.926819C200.860564 247.843912 155.312198 244.260198 108 214.035287c3.8908057 15.535063 19.1946416 25.170522 56.373452 35.735717-10.15068 6.085553-17.29247 4.919155-53.0360053-8.722625 28.8957173 47.957535 76.8477363 67.448207 126.8402673 34.80598 29.708463-19.406151 38.873472-49.478924 36.452526-82.239482-.086462-1.234014-.293972-3.093489-2.265313-3.110393-2.524701 0-2.714918 2.07923-2.784088 3.668236-.396871 9.906318-3.061934 19.599433-7.798904 28.365436z" fill="#C4C3C6"/>
    <path d="M188 273.741868c24.410389-1.971002 45.88808-17.790434 56.583798-42.847865 3.384331-8.101207 5.944498-16.51844 7.642263-25.125989 1.665009-4.690474 3.070207-9.468024 4.209283-14.311187 4.295538 10.694828 2.82919 21.046872 5.382361 30.936159 3.779924-7.145226 6.212128-14.917241 7.176482-22.932177 1.387709-3.062996 2.541054-6.225558 3.450231-9.460809 1.880376 0 2.08739 1.919584 2.173646 3.136464.751832 9.40153.392863 18.85819-1.069572 28.176756-6.01785 14.918057-16.532796 27.62169-30.10327 36.369268-19.131534 12.631551-37.918046 17.550486-55.445222 16.05938z" fill="#FFF"/>
    <path d="M165.636236 250.467279c-17.997059-5.096073-30.844721-10.192147-39.7485295-15.610972-2.7555306-3.714471-5.3847661-7.678084-7.8877065-11.890838 19.0992719 7.355333 30.00084 11.092454 37.561327 12.043721C184.838841 241.600111 213.306917 234.465608 241 208c-15.103752 25.989975-40.730188 38.322473-73.348782 43.23169 3.37945 1.592625 6.958541 2.735091 10.643237 3.397383 12.655577 2.120418 25.665459.41498 37.320219-4.892231C202.680902 259.606238 186.595491 265.619605 168.08177 269c-10.048664-4.091344-19.248959-9.970304-27.1419772-17.343637 12.7787732 3.68616 18.1003922 2.802841 24.6964432-1.189084z" fill="#FFF"/>
    <path d="M203.387128 118.546128c2.671537.340666 7.268661.749465 11.813742 1.498929 4.545081.749465 6.366583-.766497 5.325725-5.1099855-.884912-4.9621895-4.425804-9.0704587-9.263639-10.7480037-10.217759-3.6451233-20.348779-7.6820122-30.757362-10.645804C167.095869 89.7598742 143.190824 106.5887612 143 119.22746c0 3.815456 1.491897 7.733112 3.660352 7.085847 4.7706-1.430796 12.524994-2.997859 17.347638-1.601129 4.822643 1.396729 6.210454 4.105022 6.939055 9.606773.763296 5.893518-3.035837 3.78139-7.511527 5.825384-3.191966 1.430796-8.101347.698365-11.570875.562099-7.806437-.306599-8.673819 4.275355-7.320703 10.867237 2.879708 14.529393 7.56357 28.428555 17.139466 40.488121 12.143347 15.193692 29.490985 17.322853 44.843645 4.701187 17.92011-14.767859 25.570418-34.373172 27.409268-55.954345.641863-7.51168-3.608309-11.735935-10.94636-8.090811-9.090162 4.51382-18.197672 7.971578-28.172564 5.842417-1.426115-.21501-2.881121-.15717-4.284866.170333-3.261356.579131-6.800275 3.62809-8.881991-1.703329-2.081717-5.331419-2.255193-10.066672 2.723579-13.779929 4.978772-3.713256 10.859621-4.803386 19.013011-4.701187zm-14.971011 46.330539c-4.354258 5.944617-9.419768 7.30728-15.612875 5.825384-3.348094-.800564-5.533896-2.793459-5.204291-6.285282.555124-6.472649 1.196987-12.945298 1.734764-19.43498 1.188738 2.138328 1.70775 4.573773 1.491897 7.00068.208171 15.346991.208171 15.346991 17.590505 12.894198zm-24.616299 14.154661c5.204292 2.793459 15.404703-4.752287 19.082402-2.793459 5.204292 2.793459 15.196531 1.004964 17.347638 0-10.408583 11.156803-26.021457 16.726688-36.43004 2.793459z" fill="#C4C3C6"/>
    <path d="M141.1406231 83.0336296c2.5157449-5.7786405 6.5863189-10.753204 11.7625889-14.3748161.618179-2.8886372 1.940397-5.4183314 2.592921-8.255691 11.659558-27.7753581 43.890768-30.7665505 68.18867-9.2983353-8.208055.615331-15.660556 2.9057298-21.653466 8.6488192-1.597588 1.5366284-3.10544 3.1630823-4.516147 4.8713705.995956.3076655 1.991913.6495161 2.987869 1.0084592l4.241401 2.9740999c5.915542-6.7285375 14.649454-10.3198103 23.611035-9.708556 8.483115.0932823 16.554808 3.6531817 22.323161 9.8452962 13.909046 14.5799264 18.201961 41.9621564 1.442419 50.5084208-3.945485.934999-8.049456.993357-12.020163.170925-12.535314-2.8373598-23.851439-11.3323462-26.925166-27.4847852-1.596965-8.4437089 1.116158-15.3832753 7.589874-17.348916 6.43028-1.9142699 13.37766-.9735312 19.060545 2.5809717 4.998472 2.7350867 8.277466 7.7915358 8.723205 13.4518196.549493 5.7772745-1.390905 9.9820364-5.615134 12.0844173-4.224229 2.102381-8.585831 1.8630856-12.981777-2.136566-2.928716-2.703137-3.985021-6.8687034-2.69595-10.6315524.636439-1.7566643 1.967043-3.1777591 3.682734-3.9331874 1.715691-.7554283 3.667146-.7794424 5.401075-.0664642 3.434332 1.5041425 3.897967 4.8200929 4.121199 8.1360434 0 .7178862-.326262 1.521235.463635 2.2049361 3.193929-3.1621177 2.781809-9.12741-1.098987-13.1270616-4.327259-4.4611498-8.585831-3.5894309-12.604-2.0511033-4.018169 1.5383275-6.40503 6.6148083-5.804022 10.7170151 1.562622 10.6999225 16.330251 21.1263647 23.937297 16.9045102 8.585831-4.7346302 8.946436-21.1263647.429292-29.7922764-9.083809-9.2299651-18.888828-11.6058266-28.762534-8.7171893-7.933308 2.3587689-10.663602 9.5547232-9.873706 19.4512969 0 1.1110144.61818 2.3416764 0 3.5039683-3.159586-3.4185056-6.233313-6.8370112-9.392899-10.1187766-1.184845-1.2477546-.755553-1.9314557-.257575-3.008285.20606-.4785908.446463-.940089.669695-1.4015873-3.262616 2.3587689-7.280785 2.102381-12.020164 1.0939218-17.343378-3.7090786-33.519084-2.8202671-45.6937924 10.1529617-1.4424196-3.2133953 1.0474714-4.4269648.6868665-6.8541038z" fill="#C4C3C6"/>
    <path d="M146 75.3250561c2.028341-2.4687751 4.417875-4.6568723 7.105666-6.4893437.414756-1.8885467 1.146578-3.6195735 1.780196-5.3894417 5.07581-2.0911004 10.63317-3.1565968 16.48543-3.4605711 8.578223-.4455645 19.439834-.1484676 27.932043 3.1058976-.548382.5938593-1.083826 1.1990426-1.605956 1.8151548.995504.2996665 1.991008.6326292 2.986512.9822401l4.239474 2.8967759c5.912855-6.5536014 14.642799-10.0515043 23.600309-9.4561421 8.479262.0908571 16.547288 3.5582023 22.313021 9.5893272C256.220394 74.4181017 260.16276 81.78711 262 89.2365493c-4.615285-4.5373285-10.726942-8.2623331-17.133498-11.4287413-7.238554-6.7075355-14.913526-9.2622051-22.700467-8.4341962-2.571742-.0061432-5.136252.3587321-7.60839 1.0876626-1.077702.3509349-2.266853.1008464-3.098264-.6515907-1.978691.9216375-4.091993 1.5415313-6.265377 1.8378201-.839007.1203366-1.695937.0163637-2.478611-.3007342-.716794.0438656-1.429057-.1377631-2.031084-.5179311-7.229282-4.3940609-17.660103-4.7115026-26.111478-4.6780877-9.501342 0-18.503519 2.2053842-25.4574 8.3537279-.973607.8684106-2.104903 1.0574122-3.115431.8205774zm19.535015-28.4176978c15.039507-13.3360862 39.15-11.6739963 58.320089 4.8307169-1.998297.1459773-3.951792.3887437-5.850316.7533169-15.698225-4.1407585-34.216629-10.1323771-49.180958-4.8190874-1.343208.4768149-2.515283.0499838-3.288815-.7649464zm51.912357 29.4559366c1.003356-.7664724 2.168207-1.3596313 3.489876-1.7506788 6.427358-1.8645005 13.371582-.9482202 19.051886 2.5138688 4.996201 2.6639768 8.273706 7.5889628 8.719242 13.1020842.253927 2.6015152-.024096 4.8756584-.813717 6.7714309-.368479-.0473521-.748009-.1523194-1.132284-.3247274-1.535225-.6977791-3.165325-1.3369553-4.762086-2.0301266 2.149467-3.2252097 1.446662-8.2191712-2.011155-11.691813-2.14757-2.1574359-4.278214-3.0343595-6.370924-3.1870895-3.697782-1.8006781-9.285868-3.5294272-12.605849-2.2878376-1.626558.608292-2.901694-.0360146-3.564989-1.115111zm9.963469 13.2404503a9.86795315 9.86795315 0 0 1 .014346-.0411016c.63615-1.7109926 1.96615-3.0951402 3.681062-3.830928 1.714911-.7357879 3.66548-.7591776 5.398621-.0647362 3.432773 1.4650361 3.896197 4.6947748 4.119327 7.9245134 0 .1380276-.012708.2792989-.027033.422277-.183613-.0861737-.366246-.1735471-.547694-.2623019-1.276964.7152964-2.890613.5023352-3.924467-.5179312-1.87653-1.8166117-4.362344-2.9192969-7.005519-3.1075868-.670309-.0514339-1.240296-.2402271-1.708643-.5222047zM269.905674 141.522108c.66652-6.569674-2.229742-13.015993-7.721057-17.185045-.640456-.513729-1.103008-.447441-1.779045.248578-.05475.059323-.11422.114719-.177905.165719-1.263122 1.657189-4.109594 2.750933-4.483194 4.209259-.373599 1.458326 2.34834 2.038342 3.380186 3.314377 3.78379 4.110908 4.855064 9.81862 2.793101 14.881553-2.579615 6.529323-9.731377 11.152879-18.341956 11.60032-2.598644.166717-5.200194-.283742-7.560943-1.309179-2.91171-1.076779-4.959002-3.549603-5.337136-6.446463-.134011-.623485-.312308-1.237996-.533713-1.839479h-.622666c-1.245332 2.353207 0 4.04354 1.031846 5.684156 3.753786 5.551582 12.702383 7.63964 21.135058 5.054425.2418-.033585.487609-.033585.729409 0l3.807157-1.657188c1.417825-1.184482 2.954911-2.23891 4.589936-3.148658l1.17417-.911454c2.895059-2.781195 5.275612-5.989844 7.04502-9.495691l.871732-3.16523z" fill="#FFF"/>
    <path d="M246.218348 158.493051c-2.901953-.955539-5.517617-2.650496-7.600115-4.924894-4.890657-5.481774-.971315-11.711852 5.776769-15.140136 3.527407-1.740245 7.140018-2.540758 9.849476-.087012 1.909569 1.264085 2.632764 3.760389 1.704062 5.88203-1.198314 3.185879-3.812603 5.597104-7.037775 6.491115-.784943.340965-1.653843.426054-2.48793.243634 1.691284-1.724483 3.131676-3.687739 4.277195-5.829822 1.278046-3.010624-.221528-5.081516-3.544448-4.698662-3.290603.540634-6.046686 2.837459-7.225222 6.021249-.58222 1.503393-.521004 3.187134.16878 4.642296.689784 1.455161 1.945027 2.548611 3.460872 3.014784 4.361675 1.147059 8.995279-.04577 12.303325-3.167247 3.471182-2.664162 4.947354-7.256184 3.697813-11.503022-.795301-2.915563-2.315743-5.571386-4.413519-7.709287-.800909-.887526-1.567737-.99194-2.930986-.156622-1.479462.858578-3.094044 1.447458-4.771373 1.740245-5.418916 1.044147-13.632493 8.701227-14.978702 13.643524-1.141721 4.420223-.255609 7.952922 3.408124 10.302253 2.338015 1.187531 4.921081 1.784344 7.531952 1.740245.912183.004026 1.823437-.059953 2.726499-.191427.016767-.107356.045349-.212436.085203-.313244z" fill="#C4C3C6"/>
    <path d="M230.899181 147.876812c1.850899-6.504117 6.185084-12.057279 12.100819-15.504141-.161344-.950311-1.792714-.193582-1.595515-1.372671-1.948592.433843-3.710061 1.455341-5.037527 2.921325-4.284586 4.276398-7.170855 8.799172-6.166935 14.078675l.699158-.123188z" fill="#C4C3C6"/>
    <path d="M201.401147 145.232141c3.805599-.161329 5.551287-.197179 8.344387-.215105 1.721508.051135 3.441892-.13577 5.114865-.555686.407541-.10414.809583-.229784 1.204524-.376433 2.601075-.555686 4.294392-2.581253 6.354304-1.97179.470507.153886.908699.397103 1.291809.717015.227512 1.469689.321021 2.957966.27931 4.445491 0 .430208 0 .824566-.139655 1.218925-1.414007 3.047312-3.229523 5.825744-4.818098 9.141937-.192026.376432-.401509.73494-.610991 1.093447-.795169 1.380341-1.750655 2.656409-2.845471 3.800178-.366595.358507-.750646.717015-1.169611 1.057597-1.012499.125477-2.147196.286805-3.35172.412283h-1.204525l-1.588576-.340582c-4.673314-2.126733-8.545831-5.757125-11.032746-10.342937 0-.430209-.069827-.842492-.209482-1.23685-.025961-.471658-.025961-.944446 0-1.416104.016086-2.073353 1.045866-3.999601 2.740729-5.126655.538963-.142767 1.087426-.244619 1.640947-.304731zM150.22458 147.90098c2.495655-.159849 3.647496-.213132 5.47997-.284176 1.137033-.024653 2.269834-.149446 3.385713-.372981l.785346-.195371c1.745214-.301938 2.897054-1.243271 4.223416-1.012378.294828.037976.579452.13453.837703.284176.084363.648407.084363 1.305304 0 1.953711-.03052.185722-.071306.369544-.122165.550591-1.012224 1.385359-2.268777 2.646391-3.490427 4.156076l-.418851.497309c-.594602.660509-1.255575 1.255792-1.972091 1.776101l-.785346.479547c-.680633 0-1.431075.195371-2.216421.266415h-.802798l-1.029676-.106566c-2.723891-.644086-5.171618-2.163625-6.980853-4.333686-.016343-.180871-.051443-.359475-.104713-.53283-.017849-.206814-.017849-.414822 0-.621636 0-.834767.558469-1.634013 1.937187-2.344453l1.274006-.159849zM176.398211 119.639393l-1.97193-3.5623558c-.685243-1.4715721-1.636238-2.7953897-2.802216-3.9007798-1.882831-1.3406054-4.182656-1.9120171-6.452016-1.6030602-2.26599.160306-4.514682.7302829-6.780672.7659065-.916775 0-2.006525-.1781178-2.352478-1.0687068-.622715-1.781178 6.417421-5.7710167 7.783934-6.8575353 11.208866-8.90589 24.770209-2.3155314 35.944479 2.2086607 4.247077 1.4622458 8.258248 3.5694691 11.90077 6.2519348.76423.4544779 1.262318 1.2671139 1.331918 2.1730372-.104708.8774138-.735619 1.5913304-1.574084 1.781178-.81281.1063828-1.638297.0335236-2.421669-.2137414-3.585744-.8954582-7.235888-1.4911222-10.914805-1.781178-2.991074-.0619748-5.954191.603185-8.648816 1.941484-2.836812 1.4071306-4.929825 3.8295331-7.628256 5.3435341-1.110563.929824-2.632521 1.142908-3.94386.552165-.481991-.42121-.871196-.94343-1.141644-1.531813l-.328655-.49873zM181.451719 146.167031c.206327 3.498345.178817 7.013671.508941 10.61391.495185 5.519233-3.837688 2.988876-4.387894-.509468-.395311-2.586212-.584202-5.21406-.563961-7.845802-.045429-1.15196.085228-2.304182.385144-3.396451.770289-2.41148 3.191196-2.920948 3.878953-.169823.096799.426871.156739.865189.178817 1.307634z" fill="#FFF"/>
    <path d="M271.063426 285.376621c-4.760557.071958-9.502267-.60853-14.046743-2.015864l-1.068587-.341672c-1.602879.990849-3.222994 1.964613-4.87758 2.938378-2.499114 1.452105-4.498405 3.416719-7.049224 4.817573-1.396057.785845-3.20576 1.964613-4.860346.597926-.741116-.615009-.706646-1.708359-1.430527-2.255034-5.653167-4.817573-6.11852-3.604638-9.668985-8.541797-.344705-.495424-.947939-7.721784-1.051351-8.285542-.076076-.826121.282065-1.632914.94794-2.135449 1.723527-1.554607 4.584581-2.067115 6.670048-3.28005l.206823-.119585c-2.806142-5.161747-2.487386-11.441256.827293-16.297748 3.555557-5.364126 8.423565-9.748506 14.150154-12.74436 2.036417-1.105918 4.263616-1.824402 6.566637-2.118365 2.277883-3.758451 5.193232-7.098936 8.617634-9.874317 2.062204-1.851986 4.574426-3.141194 7.290518-3.741307 1.858192-4.507003 4.777568-8.507786 8.514221-11.668094 1.500892-1.358664 3.258161-2.409552 5.170581-3.09213 1.099304-3.708897 2.881564-7.184128 5.256756-10.250155 1.601605-2.224113 3.765184-3.991591 6.273637-5.125078.596545-2.702082 1.626509-5.291824 3.050642-7.670533 2.059263-1.872386 3.897923-3.969956 5.480815-6.252595l.258529-.170836v-.290421c2.532337-3.779494 4.321696-7.999069 5.273992-12.436856 2.581042-3.191429 6.490386-5.040832 10.616924-5.022576 4.479616.047789 8.799419 1.656483 12.20257 4.544236l2.58529 1.99878.241293.768762c2.748636-.895443 5.671646-1.13542 8.531457-.700428l.844529.119585.810057.222087c7.704164 2.101282 11.90957 7.89262 10.237749 14.093964-.921783 3.872758-2.621716 7.521597-4.998228 10.728496-.413646.529592-.861763 1.025016-1.30988 1.52044.271033 1.535916.188549 3.112676-.241294 4.61257-1.037188 3.972646-2.963465 7.662841-5.635932 10.796831-.534293.615009-1.085822 1.178768-1.63735 1.708359.414159 2.063347.160836 4.20362-.723882 6.115926-2.210395 5.063502-5.686442 9.484975-10.099866 12.846862.136111 2.22808-.430061 4.442985-1.620115 6.338013-1.295983 2.178954-2.833732 4.207423-4.584581 6.047592-2.049179 2.135182-4.366106 4.001119-6.894107 5.552167.014454 2.733848-1.006522 5.37356-2.861054 7.397196l-.155118.18792c-1.161662 1.477413-2.447407 2.854711-3.843464 4.117145-2.640058 2.388691-5.590441 4.416825-8.772751 6.030509-.185875 2.491067-1.218828 4.845951-2.929996 6.679684-2.736155 2.994647-5.921911 5.553092-9.444926 7.585116-6.285942 3.790678-13.464624 5.881742-20.820202 6.064675z" fill="#040404"/>
    <path d="M317.852832 183.75715c1.861985-.345925 1.462988 1.401908 2.260982 2.039139 2.277606 1.820659 4.23934 1.583973 4.688211-.764677 1.130491-5.917142 3.324973-11.761458 1.496238-18.024525-3.324973-2.840228-4.571838-2.694576-6.350698.619024-1.266884 2.910575-2.242349 5.962786-2.909351 9.103295-.315872 2.40327 1.446363 4.715507.897743 7.136984l-.083125-.10924z" fill="#FFF"/>
    <path d="M329.981201 179.074017c-1.414025-.438989-1.72442 1.181893-2.190014 2.042986-2.793559 5.149676-5.328456 10.400657-8.363435 15.432144-8.551211 14.102491-18.634415 27.258534-30.07388 39.238843-5.914759 6.213379-12.77795 11.66697-18.968616 17.627087-.310396.287031-.689768.709136-1.362292.438989-5.31742 5.065139-11.200236 9.528147-17.537348 13.304737-1.586466.962398-2.207257 3.275531-5.173259 2.78589 0 1.688418-2.05206 2.127407-3.207421 2.836543-3.00049 1.823492-6.035469 3.630099-9.104936 5.386054.871893 1.229129 1.666594 2.509064 2.379699 3.83271 4.552468-2.617048 9.035959-5.36917 13.398741-8.239482 18.984975-12.495548 36.011072-27.630508 50.542742-44.928812 11.096612-13.336624 20.607588-27.866024 28.34946-43.307931.592093-1.128366 1.071411-2.310126 1.431268-3.528794.32764-.979283 1.914106-2.313134-.120709-2.920964zM254.744705 277.499748c-2.482106 1.270444-.547775 1.53512.75319 1.940956 8.684036 2.921091 18.179417 1.69843 25.899487-3.334915 2.839938-1.695386 5.40929-3.832014 7.617496-6.334576 1.917213-2.240922.992843-4.287748-2.396515-5.064131-3.362509-.942776-6.908273-.942776-10.270782 0-7.931556 2.639897-15.50228 6.316477-22.527246 10.939935-1.711797 1.146929-.359478 1.041059.58201 1.217509 1.017083-.806687 2.400578-.917452 3.526302-.282321l-3.183942.917543z" fill="#C4C3C6"/>
    <path d="M246.638883 269.917058c3.149138-3.363684 6.407495-6.661735 9.392806-10.091051 2.250148-2.288672 3.639203-5.160437 3.968278-8.204107.007833-1.895168-1.382662-3.564116-3.403982-4.085645-1.881958-.80842-4.091126-.697103-5.861402.295348-4.928827 2.368135-9.112083 5.822793-12.159679 10.041827-2.948904 3.987195-1.711093 8.909659 3.331169 13.12657l3.640623-4.528667c-.855546 3.49495-.855546 3.49495 1.201405 3.478541l-.109218-.032816z" fill="#FFF"/>
    <path d="M276.742296 262.429775c8.955432 1.844312 18.254563-.847737 24.766946-7.169898 1.112373-1.015047 2.141624-2.114826 3.078177-3.289104.902225-1.148576 2.193644-2.314554.796081-3.845989-1.239517-1.388312-3.040173-2.165663-4.918008-2.123125-2.578388.019741-5.127432.540175-7.500847 1.531435-6.634003 2.558191-12.082731 6.438986-17.690675 10.110948-1.592161 1.04416-1.256038 2.384165-1.220657 3.480533.035382 1.096368 1.875212.800523 2.688983 1.3052zM295.021363 244.52756c9.995202 1.714456 16.562015-1.38871 21.764296-6.857825 1.391653-1.484807 2.61053-3.124105 3.633068-4.8862 1.586269-2.674551-.187623-4.714754-3.940088-4.783332-2.316302-.012774-4.596381.577904-6.617983 1.714456-5.620779 3.166066-10.814275 7.043809-15.453333 11.53829-1.944459 1.76589-1.995629 2.966009.61404 3.274611z" fill="#C4C3C6"/>
    <path d="M269.223105 254.477911c1.086334-3.382421 3.862523-5.986885 5.569621-9.0818 1.482933-2.672112 3.155544-5.242752 3.207274-8.320755 0-1.775771-.120704-3.500805-2.517538-4.430971-2.123576-1.09233-4.715632-.775391-6.500765.794869-3.74182 3.38242-7.380179 6.680281-8.621705 11.280373-1.051848 4.041993.120704 7.644271 4.586747 11.280373-.275894-3.145651 5.173023-4.786125.913901-8.134722 3.08657.575012 3.103814.575012 2.448564 2.401519-.344868.980902-.793197 1.92798-1.207039 2.89197-1.051848 2.41843 1.000118 1.352968 2.17267 1.285319l-.05173.033825z" fill="#FFF"/>
    <path d="M331.702396 211.97315c1.073774-2.558-.922774-3.480272-3.355542-3.897905-2.024888-.281699-4.078061.233601-5.754754 1.444313-5.018341 3.616568-9.642615 7.788415-13.791278 12.441974-.785684.819233-1.017525 2.049009-.58722 3.114844.268443 1.02668 1.845548.76566 2.868989.852666 10.670623.852667 17.130042-6.107878 20.619805-13.955892z" fill="#C4C3C6"/>
    <path d="M285.609722 238.924816c2.583345-4.141392 4.74843-8.589056 6.455766-13.261868.825566-2.203514 1.111487-4.612441.828464-6.979931-.187601-1.775917-1.405063-3.19905-2.985597-3.489965-1.446805-.489691-3.017377-.031141-4.064162 1.186588-2.77084 2.614113-4.918913 5.953277-6.252557 9.719553-1.294596 3.874692-.42485 8.237018 2.219658 11.13299.859726 1.081889 1.563139 3.228217 2.735494.261747.140682-.471145.422047-.314097 1.062934 1.430886zm3.579589-18.165269c-.218839 7.485975-.218839 7.485975-3.454538 11.621584 2.250921-3.926211 1.90703-7.677924 3.454538-11.708833v.087249zM297.965083 221c1.980877-3.379044.755419-7.433898 3.827457-10.322981-1.364997 2.911065-2.015545 6.109434-1.896941 9.326163 3.626012-5.440262 6.29516-11.167742 6.093714-17.638612.123034-2.135629-1.416962-4.002909-3.525289-4.274491-1.952907-.400335-3.931123.560579-4.834683 2.348436-3.458141 4.798243-5.942631 9.765438-3.877818 15.712556.869387 2.017939 2.342242 3.712887 4.21356 4.848929zm2.76987-12.063189l1.342968-4.730662c.788993 1.503675.201445 3.226988-1.342968 4.730662z" fill="#FFF"/>
    <path d="M337.862667 191.034397c-1.426182-.138278-2.861784.142267-4.130214.807127-6.085744 3.262138-9.474206 8.407571-13.317833 13.166256-.944049 1.160245-.354019 2.90902 2.579276 2.976281 4.899007.220928 9.617869-1.864784 12.744661-5.633073 1.974583-2.395147 3.391061-5.197925 4.147072-8.205789.42145-1.631069-.337161-2.589532-2.022962-3.110802z" fill="#C4C3C6"/>
    <path d="M317.383094 183.086932c-3.677683-2.183966-5.691256-.880927-7.305443 2.165613-2.346395 4.478048-4.143633 8.937742-2.346395 14.186601.699296 1.705785 1.662176 3.2645 2.845628 4.606516.503996.415727 1.06607.738066 1.66411.954338 0-1.44986 2.462883-.734106 2.279831-1.963734-.765491-5.377327 3.561195-9.488322 3.477989-14.682122 0-1.835266-1.148235-3.52371-.698926-5.303917l.083206.036705z" fill="#FFF"/>
    <path d="M158.603523 95.402635l-.5719875-.12967486c.08766294-.89748922-.07383331-1.79559075-.46544253-2.58837076.17903199-.69517526.03666425-1.42867765-.38499049-1.9835239-1.60610587-19.46296956 4.84136045-32.62553142 17.12573437-41.36806975 2.19902557-1.5350259 4.72327098-2.47862296 7.33757064-2.74288193-10.83565522 7.09288111-16.48480537 18.30827105-17.39432827 33.7085629-2.5906205 4.50116166-5.10003383 9.1025859-5.64655621 15.1039583zM215.27400894 53.8821566c4.42423602-1.35464644 9.69903941-1.91625536 15.3329904-1.63250556C208.6937345 58.35306 199.0718891 70.65935086 200.78254508 89.14092251c-1.3596123 1.44828185-12.99032969-.6813999-13.70892851-4.2004935-1.6948899-8.3001434 10.87228127-25.6012599 28.20039236-31.05827241z" fill="#000"/>
    <path d="M345.700827 173.039268c-1.635372-.191784-3.274766.325195-4.483081 1.413728-4.318136 3.523829-7.967863 7.756077-10.783627 12.504767-1.05586 1.68301-.225019 3.197719 2.925254 3.029418 4.258618-.147053 8.199625-2.228131 10.645153-5.621254 1.866567-2.519993 3.185792-5.383186 3.87726-8.415052.432729-1.548369-.328875-2.406704-2.180959-2.911607zM226.32948175 187.62442728l-.77851908 1.43780497c-5.87656128 10.85311027-14.40524045 18.71514502-23.95951217 23.36448566l-.53561767.672231c-.31391849.57975943-.59016725 1.08994833-.78977157 1.66990285 2.34111008.25895603 10.28205439 5.07961082 17.37703764-.7619025 5.39188207-4.43929825 10.4765811-19.22206962 11.18942223-22.51739245.40114962-1.80338525.60113535-3.57233779.59382014-5.252576-.02671537-.54938946-.75135434-3.3669739-.55044684-3.73802042-.93382033 1.65418414-1.64232648 3.45575824-2.54641268 5.1254669z" fill="#C4C3C6"/>
  </g>
</svg>
