<svg width="24" height="24" viewBox="0 0 24 24" fill="none" xmlns="http://www.w3.org/2000/svg">
<g id="Creator token">
<path id="Vector" fill-rule="evenodd" clip-rule="evenodd" d="M12 21.75C17.3848 21.75 21.75 17.3848 21.75 12C21.75 6.61522 17.3848 2.25 12 2.25C6.61522 2.25 2.25 6.61522 2.25 12C2.25 17.3848 6.61522 21.75 12 21.75ZM14.9514 10.249H17.625C17.5395 9.57224 17.3442 8.97148 17.039 8.44677C16.7379 7.92205 16.3472 7.47909 15.867 7.11787C15.3868 6.75285 14.8354 6.47529 14.2128 6.28517C13.5942 6.09506 12.9227 6 12.1984 6C11.0996 6 10.1108 6.23574 9.23176 6.70722C8.35275 7.17491 7.65688 7.85551 7.14413 8.74905C6.63138 9.64259 6.375 10.7262 6.375 12C6.375 13.27 6.62731 14.3517 7.13192 15.2452C7.6406 16.1388 8.33241 16.8213 9.20734 17.2928C10.0863 17.7643 11.0834 18 12.1984 18C13.0001 18 13.7183 17.8878 14.3532 17.6635C14.9921 17.4354 15.5414 17.1274 16.0013 16.7395C16.4652 16.3479 16.8335 15.9049 17.1061 15.4106C17.3829 14.9125 17.5558 14.3954 17.625 13.8593L14.9514 13.8479C14.8903 14.1597 14.7805 14.4373 14.6217 14.6806C14.4671 14.924 14.2718 15.1312 14.0357 15.3023C13.7997 15.4696 13.5291 15.597 13.2239 15.6844C12.9227 15.7719 12.5952 15.8156 12.2411 15.8156C11.6103 15.8156 11.0549 15.6711 10.5747 15.3821C10.0945 15.0932 9.72009 14.6654 9.45151 14.0989C9.18699 13.5323 9.05473 12.8327 9.05473 12C9.05473 11.1901 9.18699 10.5019 9.45151 9.93536C9.71602 9.36502 10.0884 8.93156 10.5686 8.63498C11.0488 8.3346 11.6124 8.18441 12.2594 8.18441C12.6175 8.18441 12.9492 8.23194 13.2544 8.327C13.5637 8.42205 13.8363 8.55894 14.0724 8.73764C14.3084 8.91635 14.5017 9.13308 14.6523 9.38783C14.8028 9.63878 14.9025 9.92586 14.9514 10.249Z" fill="#564FFF"/>
</g>
</svg>
