<svg width="317" height="347" viewBox="0 0 317 347" fill="none" xmlns="http://www.w3.org/2000/svg">
<path d="M172.132 417.941C154.138 412.059 136.834 404.254 120.521 394.662C64.2774 361.536 36.3955 316.007 27.2315 301.042C11.8443 275.902 6.7732 258.249 4.29467 247.169C2.13422 237.37 -0.572359 225.237 1.22802 209.243C4.16865 182.767 17.6835 163.301 20.3601 159.667C25.3832 152.855 30.6283 147.6 35.2492 142.961C41.9227 136.274 45.9675 132.006 45.1694 128.702C44.9113 127.637 44.3652 126.966 43.339 125.781C43.1529 125.566 42.9729 125.362 42.7989 125.183C32.0746 112.409 32.8787 92.0027 35.4353 77.1217C38.4359 59.5291 45.5054 40.0869 54.7594 23.7873C63.2152 8.87639 70.5127 2.13028 79.9647 0.484155C81.338 0.244807 82.7295 0.124639 84.1236 0.125001C91.7092 0.125001 97.8905 3.64471 101.977 5.97323C112.636 12.0429 117.479 19.7408 121.752 26.4929C125.676 32.7183 129.385 38.6024 137.625 43.852C142.675 46.986 148.161 49.3581 153.906 50.8915C157.338 51.8915 160.888 52.429 164.463 52.4897H165.441C166.641 52.4478 169.186 52.376 180.798 49.1196C186.799 47.4376 190.07 46.5158 192.339 45.6777C198.616 43.3492 202.049 39.6918 209.568 31.6588C211.249 29.863 213.169 27.8338 215.293 25.601C235.878 4.12358 241.879 1.99859 246.74 1.60951C247.34 1.56162 247.976 1.53767 248.589 1.53767C258.935 1.53767 266.766 8.37957 270.979 12.0549C300.242 37.6087 302.522 95.4386 287.183 113.217L286.883 113.558C284.542 116.228 283.48 118.251 283.732 119.586C283.936 120.675 285.16 121.908 287.369 123.243L287.573 123.369C299.749 130.815 304.52 148.994 310.042 170.059C312.55 179.606 320.172 208.656 313.744 243.877C306.783 282.001 286.529 306.789 260.879 338.173C236.547 367.857 208.553 394.356 177.563 417.043L175.073 418.875L172.132 417.941Z" fill="black"/>
<path d="M223.993 148.951C233.457 133.071 197.113 162.09 196.093 165.383C198.625 165.089 200.894 160.115 203.672 162.988C205.029 168.974 196.087 173.278 191.856 176.157C185.2 178.097 193.278 189.925 190.451 195.791C189.395 203.231 195.03 209.684 198.703 216.143C200.258 218.502 194.97 219.31 198.259 221.213C200.059 223.009 196.945 224.619 197.197 226.684C196.507 232.119 196.429 232.137 190.661 231.311C205.935 247.473 164.622 238.878 158.483 246.426C151.281 254.968 146.918 234.023 145.88 243.187C149.925 251.849 144.194 253.459 146.186 256.476C156.31 271.441 140.677 267.137 134.021 259.433C129.869 255.345 132.923 249.67 135.606 245.666C136.722 243.612 137.136 241.541 134.814 239.931C130.541 233.454 136.416 225.631 129.659 218.382C133.259 226.205 129.659 234.939 122.457 225.565C120.615 225.517 118.784 224.003 119.378 222.087C120.195 219.094 118.244 219.166 116.3 219.148C112.147 217.496 113.611 210.666 110.959 207.338C107.358 202.304 105.125 197.234 96.8855 198.718C94.5931 198.85 92.7687 196.21 90.2841 197.635C88.2557 198.155 85.2971 197.982 84.685 195.558C84.5289 193.798 85.3451 192.325 83.2447 191.499C81.9064 189.105 81.2162 184.148 81.5943 181.503C84.5589 173.248 114.319 184.136 97.8818 187.842C106.32 187.064 112.615 193.654 120.783 194.324C118.982 191.978 115.249 192.199 113.833 190.194C114.133 185.292 109.464 187.674 107.64 185.298C106.554 182.849 110.04 179.839 105.521 179.485C102.773 179.384 102.047 175.81 104.135 174.212C110.983 168.058 111.337 177.36 117.458 179.132C120.759 183.113 126.262 181.155 130.595 182.209C133.175 184.478 136.806 183.376 139.723 184.891C139.887 184.97 140.065 185.016 140.247 185.027C140.43 185.037 140.612 185.012 140.784 184.952C140.957 184.892 141.115 184.798 141.251 184.677C141.387 184.555 141.498 184.408 141.577 184.244C142.255 182.125 139.435 182.508 138.99 180.886C138.798 179.545 140.533 177.893 137.79 176.941C132.461 169.285 143.996 169.339 148.827 173.194C145.508 167.861 139.495 171.207 136.824 167.208C136.458 165.413 138.276 165.197 139.411 165.023C144.086 162.144 143.167 159.636 148.461 164.527C142.297 162.438 139.579 148.131 148.292 154.734C146.174 152.1 140.455 152.124 142.675 145.587C138.57 148.748 142.189 153.112 137.58 154.788C132.491 154.734 130.601 148.041 125.272 149.999C119.384 146.635 118.766 154.584 114.301 153.962C107.016 150.861 107.268 149.664 106.254 142.331C105.479 145.545 106.254 149.31 101.705 149.825C99.7842 155.811 102.077 160.175 92.3486 159.576C92.4026 159.576 92.2046 159.463 92.2046 159.463C95.4452 160.66 133.265 153.477 119.762 164.167C116.552 164.167 116.468 166.047 116.216 168.358C141.097 167.484 125.818 192.601 112.201 173.745C110.634 171.554 109.17 170.411 106.152 171.805C97.9418 174.541 106.926 161.893 97.4557 163.952C105.383 167.268 100.006 175.283 93.5068 173.272C95.0072 173.871 96.6155 173.649 98.1938 173.619C101.999 173.122 102.233 179.007 98.6619 179.473C93.7709 178.839 77.4294 180.509 80.058 172.434C85.033 167.328 68.2115 166.975 79.8719 160.295C76.5532 156.799 69.9158 156.853 65.835 153.375C63.2304 151.172 58.5074 153.405 56.3049 150.538C56.623 144.115 63.7405 138.033 69.7658 140.703C70.684 140.846 71.8602 142.271 72.5324 140.338C73.9967 141.253 74.7048 142.989 76.5712 143.426C73.9427 140.816 71.8182 137.8 68.1034 136.896C59.2756 130.748 76.1812 126.259 82.4405 129.653C79.0978 126.283 71.1641 127.378 70.2459 122.428C70.4799 119.435 73.9727 121.829 74.9209 119.728C77.6095 116.55 71.2541 113.527 72.9285 109.684C76.3192 104.213 82.6085 107.385 87.5836 107.637C95.3852 106.26 78.7017 99.795 98.6199 98.4362C93.6089 97.9215 84.937 95.3056 93.5248 91.4866C99.5261 89.7327 103.805 95.8743 109.728 93.5936C115.285 90.7024 100.942 85.2134 97.8578 88.4458C79.95 93.462 88.7118 79.6285 97.8578 82.6215C89.9121 81.4961 88.0577 77.4796 95.8593 73.4451C102.461 72.4813 109.872 75.8394 116.264 74.6423C124.875 76.3782 136.734 66.5493 143.143 72.4394C146.108 75.9651 149.991 77.4018 154.732 76.9229C166.014 76.049 153.153 82.1486 171.565 94.5753C170.281 93.4859 171.565 90.5348 170.605 88.0926C166.404 85.0577 168.433 79.5866 173.78 80.4785C188.183 80.1732 193.194 61.6349 208.869 75.1451C218.471 78.7007 204.368 86.3267 212.632 90.044C213.634 90.6965 214.619 91.3729 214.817 92.576C215.117 96.8081 220.956 93.5398 221.022 98.1369C225.259 105.919 209.565 121.62 220.062 125.672C225.907 125.744 222.204 130.215 220.026 132.388C220.068 132.346 219.924 132.52 219.924 132.52C237.075 124.235 227.707 139.494 233.877 143.785C237.039 145.485 235.179 150.202 231.71 148.772C229.1 148.185 226.615 151.358 223.993 148.951Z" fill="white"/>
<path d="M116.738 218.61C118.274 217.09 120.086 218.012 121.173 218.802C122.139 219.999 119.252 221.855 120.212 224.141C121.329 228.242 125.283 219.826 125.487 226.446C124.887 230.002 130.421 229.152 129.724 226.069C130.433 221.735 126.34 218.503 128.698 214.157C141.133 228.649 129.688 238.855 136.146 238.933C140.293 240.196 136.5 247.564 134.417 250.306C126.502 257.627 153.165 272.083 147.458 262.278C145.736 260.266 146.858 256.292 142.765 255.831C141.793 255.729 142.261 254.322 143.233 254.035C148.076 253.466 145.55 246.631 144.355 243.685C143.845 242.895 142.453 242.518 143.707 241.525C145.214 240.327 146.192 238.011 148.616 238.466C150.027 238.729 149.283 240.01 149.379 240.956C150.579 244.817 154.45 250.533 157.864 245.35C164.256 237.532 209.223 246.05 187.385 230.469C190.295 229.182 192.642 230.247 195.462 231.48C194.94 228.882 198.559 226.512 194.562 224.65C195.546 223.034 197.791 224.519 198.277 222.687C198.151 220.293 194.316 221.292 193.146 219.407C194.112 217.09 198.217 220.191 198.181 217.012C198.259 212.619 193.548 214.618 191.261 212.822C191.081 212.08 191.471 211.775 192.06 211.535C200.383 208.512 185.494 207.794 190.385 203.191C189.959 198.528 188.585 198.534 190.055 191.901C190.907 185.766 187.055 182.665 187.565 177.535C187.457 177.188 187.019 176.715 187.649 176.823C190.949 177.421 191.543 173.004 194.568 173.165C196.645 172.98 198.607 172.633 199.213 170.172C198.547 167.419 204.404 166.33 202.88 163.462C201.548 161.72 200.983 165.108 199.483 164.707C192.48 161.032 203.444 156.974 206.757 155.729C206.721 156.698 205.893 157.83 207.321 158.506C207.999 158.733 205.85 160.9 208.323 159.925C209.139 159.595 209.991 159.548 210.634 160.356C209.973 163.39 202.286 165.498 209.205 166.802C208.443 168.598 205.73 169.544 208.383 172.722C212.314 177.236 200.347 182.055 203.402 186.137C204.824 187.663 206.235 186.921 208.203 185.963C216.233 182.426 210.363 169.855 221.178 170.047C231.53 168.586 230.114 153.723 240.412 170.167C241.756 172.232 236.595 173.052 236.979 170.304C236.979 169.005 237.153 167.359 235.431 167.269C231.398 170.717 229.43 177.445 223.236 179.469C222.078 180.067 219.779 180.923 220.8 182.791C222.108 185.185 232.592 178.2 233.852 175.865C235.725 172.645 237.513 175.895 238.96 176.978C240.922 178.445 239.404 178.9 237.987 179.253C235.521 180.887 238.179 184.994 233.864 186.502C232.328 188.627 226.615 192.147 227.593 194.338C229.868 195.924 241.81 190.058 243.25 187.957C242.836 185.461 244.073 182.791 246.023 182.952C250.134 183.294 253.495 178.194 257.81 181.641C258.914 182.527 260.87 183.006 258.41 184.521C255.619 186.233 259.37 189.351 258.014 189.86C255.391 190.836 254.785 191.949 255.811 194.224C257.774 199.402 238.815 195.834 235.023 199.156C235.749 202.484 231.926 203.257 231.278 205.86C229.994 211.032 229.916 211.014 225.181 212.295C226.903 213.397 229.718 214.187 229.297 216.641C228.295 219.532 221.586 216.545 225.037 221.268C226.651 223.866 220.326 224.393 218.609 224.058C216.977 221.998 219.809 218.072 218.549 215.36C218.423 208.776 207.747 214.211 214.492 214.887C215.753 214.887 216.893 215.6 216.035 216.581C213.634 219.317 212.5 222.124 213.91 225.65C209.073 228.954 214.174 231.331 214.726 234.126C217.367 241.668 205.46 240.639 201.902 237.185C192.762 232.737 203.354 247.959 193.848 244.188C188.483 245.385 185.29 250.444 178.875 250.174C173.318 252.515 147.968 246.72 151.515 255.526C153.465 260.141 162.347 263.307 162.131 266.797C159.731 269.449 151.377 260.602 149.973 262.942C151.347 271.807 162.737 271.322 166.776 277.308C161.975 283.079 151.773 280.253 145.592 279.224C146.09 277.679 147.296 278.027 148.316 278.236C165.558 277.518 139.752 272.669 136.416 270.293C127.468 265.33 132.923 261.458 138.888 268.156C129.676 258.83 128.686 271.502 124.809 252.239C123.903 249.318 122.187 248.648 119.75 250.025C114.397 252.012 112.699 242.925 106.769 246.804C105.527 242.363 112.261 244.589 112.009 240.854C111.673 239.022 110.208 240.256 109.2 240.172C87.3134 245.655 107.718 248.414 103.943 252.551C102.743 254.209 100.876 256.453 98.2297 254.059C96.8314 252.796 95.7092 253.041 94.6769 254.586C90.5601 259.937 92.6605 247.451 86.9173 251.994C83.9586 254.448 77.1352 252.964 81.4321 248.726C94.7069 238.071 66.2549 246.229 75.0588 254.197C77.3212 255.496 78.8876 258.01 81.2941 258.447C89.3238 260.075 93.5847 270.143 102.203 268.132C107.316 267.372 107.934 272.735 111.348 274.279C109.602 278.074 102.425 280.69 99.2499 284.785C94.983 280.81 99.3879 275.082 98.0496 271.053C92.5345 269.012 84.8168 287.514 81.4921 276.746C81.018 275.022 81.3541 272.304 79.2237 272.196C73.6665 273.854 72.8203 293.321 66.9631 278.883C63.2123 272.346 57.421 297.391 54.5944 277.189C59.0894 279.948 60.8658 274.196 64.7966 274.447C65.4327 274.495 65.4987 271.257 64.6466 269.7C62.078 265.708 56.3228 276.231 55.7707 269.958C55.6446 268.994 55.7347 267.677 54.5164 267.479C51.6958 267.432 51.7558 271.292 50.9877 273.244C50.2495 279.882 39.8853 267.551 48.4131 283.989C48.7972 284.689 49.8474 285.736 50.2615 285.599C54.5044 284.21 54.6304 287.712 55.4286 290.004C56.7309 293.734 59.8815 297.104 57.6671 301.653C57.133 302.748 56.9589 304.999 59.7975 304.646C62.072 304.448 61.5979 316.127 59.2874 315.971C49.4033 314.954 60.8898 282.923 47.5429 296.499C42.6339 294.105 45.8446 282.336 43.7681 279.338C26.7065 295.924 27.6727 267.366 40.1674 262.134C51.9539 266.354 47.5729 244.045 56.6709 250.228C59.7375 252.024 60.1756 245.619 63.1522 244.763C64.7246 243.661 65.7988 243.296 67.7432 244.122C71.674 246.876 81.7382 239.37 75.6649 236.652C78.0654 231.265 86.4672 231.354 89.1137 236.149C94.4249 242.961 97.7556 240.339 104.375 237.616C101.692 235.383 98.9198 228.793 103.463 227.763C109.314 228.2 104.879 222.819 108.024 221.34C103.973 224.417 98.7158 226.727 99.3339 233.162C100.39 238.831 93.1586 239.848 93.8608 233.725C93.8608 233.192 93.9148 232.121 93.4407 232.306C90.206 233.551 87.3734 229.008 84.1267 231.756C81.9722 232.713 79.6497 232.803 77.3633 232.953C75.5269 233.06 74.3626 232.426 74.7047 230.145C75.9049 222.274 66.4829 228.679 62.8582 223.998C58.1352 244.027 62.3421 227.877 70.9239 231.654C76.6011 234.317 71.0739 242.225 67.1911 236.58C66.1709 234.97 64.4005 235.946 63.2903 236.67C56.8449 243.129 43.4861 241.333 40.4854 250.503C39.7233 258.345 34.6282 261.936 27.7267 263.81C16.0242 269.197 23.7599 253.891 24.342 248.456C26.0644 235.173 39.5492 244.386 42.0398 234.97C41.3376 228.248 59.2154 225.393 43.6781 224.489C32.9538 222.801 42.7719 235.581 33.8 236.089C29.035 236.395 24.066 235.533 19.9671 238.436C7.96454 248.552 25.3682 213.816 26.3464 210.667C25.6743 202.215 12.1834 217.665 27.6487 193.5C31.7236 186.724 39.7953 196.421 45.5805 194.954C51.3597 193.069 55.3146 199.372 61.2558 196.522C63.3323 195.84 65.2587 197.863 66.657 199.569C67.5212 204.556 55.7947 201.61 52.398 204.256C50.9457 204.855 49.9975 203.604 50.1115 202.46C50.6216 197.672 47.3389 198.025 44.5483 198.564C40.9475 199.258 43.024 202.083 42.5859 204.921C46.4747 201.593 48.4371 203.981 49.5894 206.639C56.2748 223.621 67.9052 192.272 76.127 208.081C77.6753 210.224 82.2303 209.141 81.3301 213.337C88.2496 209.973 91.3462 215.971 84.0787 218.455C75.9229 222.148 68.9615 213.439 60.6137 216.916C61.3879 218.599 62.6601 218.335 63.6623 218.006C70.7439 215.941 75.995 222.423 82.9444 222.633C84.6788 223.369 84.3247 221.394 84.6188 220.418C85.2609 216.946 89.8819 217.09 90.6921 213.768C91.0822 211.457 92.2284 210.093 94.0948 212.361C95.229 213.738 95.8532 215.252 97.5635 213.558C98.8838 212.235 102.629 211.918 100.108 208.584C99.4299 207.985 100.336 206.884 99.3759 206.363C98.5898 208.542 97.0414 213.947 94.3349 209.464C88.6276 205.872 83.3525 214.037 79.3677 203.035C78.9056 202.131 78.3475 201.88 77.6333 202.802C73.3484 203.287 77.0332 198.199 74.1826 196.738C74.0791 196.593 74.0066 196.428 73.9698 196.253C73.933 196.079 73.9326 195.898 73.9687 195.724C74.0047 195.549 74.0764 195.384 74.1793 195.238C74.2821 195.092 74.414 194.969 74.5667 194.876C79.3677 192.757 79.7818 179.774 83.8266 191.051C83.3645 195.194 88.9157 196.552 85.801 201.227C93.7107 194.924 89.0357 193.476 97.1555 198.151C97.4435 198.785 96.6994 199.91 96.9514 199.851C100.966 196.858 99.676 195.152 104.801 198.378C111.444 195.78 109.242 206.447 105.437 202.856C109.5 208.147 106.355 206.339 105.113 210.835C106.992 210.637 106.745 208.746 107.652 207.89C111.108 205.388 115.297 207.89 113.359 211.816C113.209 213.163 113.995 214.013 114.937 214.809C116.083 215.917 113.833 220.837 116.738 218.61Z" fill="#C4C3C6"/>
<path d="M95.9252 74.4342C93.7888 75.823 91.2622 76.9184 91.6463 80.1747C91.3283 82.1261 94.923 80.8511 94.1429 83.1677C92.2225 84.4067 87.6195 84.4606 88.1416 87.5134C96.7594 91.7036 102.545 80.2465 111.607 90.5603C112.453 91.2426 113.773 91.9011 113.407 93.2419C109.722 95.7141 100.42 96.5043 100.204 90.7757C98.5478 90.0215 97.2875 91.3384 95.8892 92.0328C94.0348 92.8768 90.074 91.5719 90.7941 94.9419C91.6703 99.3895 99.2439 94.469 100.162 96.8095C101.776 98.7789 100.87 101.131 98.2057 100.138C91.0522 98.9405 87.7155 105.07 87.5655 96.7736C85.303 100.539 86.1672 103.657 89.7019 104.017C93.0506 105.136 91.5443 109.967 88.4056 108.686C84.1147 108.937 78.2395 108.686 79.2297 103.562C76.4511 105.148 73.3244 106.076 73.3184 110.014C74.6027 113.845 79.4217 125.153 70.9659 122.351C75.4849 126.194 82.5064 126.194 86.7433 132.605C83.7427 131.534 81.7382 131.007 79.8898 130.097C75.731 127.403 61.0638 131.522 68.0553 136.885C64.2145 137.717 57.4631 134.958 63.3023 131.653C64.4726 130.959 66.2069 130.456 65.5048 128.499C50.5496 127.876 54.9485 111.044 56.2088 100.09C59.6115 104.759 60.5597 101.395 63.4824 104.771C67.1611 107.165 73.4085 100.934 69.6937 98.6472C68.7215 98.4616 67.8153 98.1623 67.5992 97.0011C68.3254 93.4095 82.0743 85.6279 85.0509 88.6208C84.6188 83.9578 86.5272 81.5036 80.52 84.5863C74.4047 85.2208 79.4157 79.9712 81.6842 77.8941C78.0234 80.4441 76.127 81.3539 72.7363 78.6423C68.6795 79.7018 64.5686 79.0314 59.5335 78.7321C62.1141 82.9222 77.6994 80.4082 63.6324 90.237C72.7603 102.317 54.7625 105.621 56.0048 88.3215C53.1061 64.8149 63.1403 44.6843 74.1346 24.6674C78.8096 15.3713 77.6514 26.6727 82.9865 27.0079C83.3646 22.0157 83.5866 21.8301 88.6277 22.4466C105.773 19.4537 108.132 42.9005 113.137 54.8064C111.102 49.0061 110.136 42.8825 107.37 37.2797C106.463 35.442 104.525 33.3829 106.493 30.9945C110.292 36.2681 120.104 42.2959 119.03 47.4079C124.989 48.2878 126.28 51.598 127.36 56.1293C131.369 56.686 131.849 60.9181 134.561 63.0191C141.901 71.4652 148.688 59.4276 156.088 65.1321C177.152 81.2282 181.551 52.7174 198.301 69.4779C209.607 60.9659 216.335 44.1156 229.388 36.1484C235.281 42.7329 207.609 57.8533 212.362 64.8029C221.088 71.6448 225.865 58.2184 226.897 51.3586C230.294 38.5308 242.416 4.7104 259.784 19.6812C267.868 23.2428 249.144 39.9434 252.384 29.6836C254.377 28.3068 258.44 19.1544 253.207 23.3745C251.952 25.8167 245.045 34.0892 247.667 35.5677C258.338 36.2681 235.749 50.7001 236.265 43.3494C237.795 40.1529 239.44 37.0103 241.036 33.8498C242.476 33.6463 243.557 33.1614 242.476 31.4195C241.558 29.8811 244.727 27.409 241.954 26.7804C239.5 26.2956 239.104 30.1086 238.311 31.9582C231.11 41.4878 229.91 53.2561 226.213 64.0846C224.935 68.3585 217.811 79.8395 228.115 75.5835C229.43 74.7814 231.638 74.548 230.75 71.9321C230.15 68.9811 230.564 59.1702 233.991 58.9906C236.757 60.1878 240.082 57.3804 242.326 58.9906C242.614 64.2103 234.477 63.1149 233.036 66.5209C233.804 68.6818 237.507 67.6642 239.224 67.0356C243.323 63.8691 245.423 71.6029 240.898 72.5008C239.326 73.1892 237.345 72.2613 235.863 73.9613C238.756 77.1578 243.419 75.1585 246.377 77.8462C250.944 82.0842 239.734 79.642 240.262 82.3296C240.418 85.0053 243.971 83.7962 246.059 84.305C256.117 85.2508 250.692 100.73 242.5 97.055C239.14 97.2465 236.649 102.969 234.969 106.064C237.195 106.752 237.921 105.375 238.936 104.106C241.096 99.7486 251.322 98.312 250.872 103.993C250.224 105.519 249.03 106.89 249.342 109.164C251.22 107.997 253.387 109.428 255.235 107.369C257.57 106.291 270.958 111.601 264.393 115.605C263.655 117.012 260.606 118 262.137 119.526C263.823 121.19 265.935 124.452 269.788 121.322C266.998 128.415 256.645 126.583 253.351 134.335C271.498 125.703 270.196 130.175 276.564 135.437C270.976 138.388 262.395 141.488 259.946 146.906C259.286 150.701 253.615 149.899 253.027 152.999C254.827 154.915 259.328 152.951 261.464 152.227C265.263 149.833 268.324 156.226 264.633 157.614C248.13 162.912 274.043 164.121 258.716 168.162C256.195 168.443 255.649 170.616 257.984 171.621C264.213 175.674 257.834 178.739 252.582 177.236C250.836 176.566 249.684 178.2 248.244 178.745C244.091 182.438 243.869 173.687 248.01 175.704C253.639 178.697 255.973 166.976 249.936 170.676C249.078 172.292 244.829 174.501 245.201 171.101C245.711 168.742 247.445 168.407 249.474 168.389C253.555 168.191 251.562 163.552 248.412 163.6C252.348 163.672 258.674 155.424 251.562 157.1C247.091 162.014 243.761 156.172 244.715 150.725C246.077 143.787 249.504 141.991 255.679 142.644C256.429 142.721 257.341 142.644 257.233 141.704C256.723 130.121 240.964 144.811 240.676 151.024C240.754 152.885 238.455 153.544 238.503 151.395C237.837 147.247 233.438 152.55 231.17 152.502C229.616 152.88 227.173 155.639 226.549 151.305C226.387 150.174 225.103 151.126 224.352 151.03C220.02 149.312 227.875 148.635 228.709 146.995C230.996 143.961 232.442 149.27 234.537 147.654C235.737 146.397 234.339 145.571 233.6 144.858C224.761 139.531 231.836 138.376 230.78 134.455C229.184 128.774 222.72 134.341 221.04 129.983C220.44 128.738 222.24 128.188 222.09 126.955C208.095 129.109 217.733 108.668 222.348 102.837C219.876 102.364 217.547 101.916 219.654 98.2342C221.298 93.1282 210.472 101.149 213.802 93.7148C214.852 89.0578 205.719 92.8469 208.371 86.8909C204.458 81.8747 210.442 86.843 211.372 79.2708C211.702 76.0624 198.499 70.9564 194.94 71.0103C194.172 71.0522 193.362 71.0103 193.026 71.6687C191.111 74.8832 186.424 75.2004 185.584 79.4504C181.935 80.0011 178.647 81.9226 175.142 82.5152C173.672 82.7666 171.397 80.8391 169.699 82.4613C167.448 84.2571 174.134 89.3511 167.935 87.687C170.233 88.9261 171.217 86.6335 174.302 86.6096C168.733 91.5 177.182 95.8997 173.234 99.3835C171.271 99.9821 171.787 97.9229 171.391 96.8514C169.063 91.1349 156.838 88.3874 159.173 81.4617C163.434 74.4701 145.97 82.1141 141.925 72.9557C135.87 68.3705 128.086 77.4691 120.837 74.5061C115.951 79.0314 110.634 73.3628 105.599 75.1705C104.243 75.823 100.984 74.8772 101.518 72.6983C110.958 64.8747 101.236 69.442 106.025 61.4149C106.74 58.5476 103.235 60.08 102.833 58.4219C96.6094 54.0402 96.4473 48.1142 105.305 52.3223C103.817 48.2219 99.2439 46.7793 97.1975 43.3434C101.302 38.7762 96.5074 40.8413 93.1286 37.7406C96.8434 40.9191 97.8636 46.6177 91.8264 42.9184C88.2616 38.7283 83.4246 37.1121 78.6656 35.7713C81.5402 37.3934 80.1539 40.6677 76.7932 39.7279C75.3529 39.7279 73.7925 37.0522 72.4783 39.8956C73.7385 48.4315 68.3254 46.8691 68.0673 52.8311C68.0133 58.7512 79.1517 53.5913 75.5029 62.2589C72.9164 66.5747 71.362 66.886 66.9571 63.9828C66.1649 62.9353 67.3772 60.8283 65.1567 60.535C63.0923 60.4212 60.5177 65.0364 63.4944 65.7487C63.8953 65.8668 64.2611 66.0815 64.5593 66.3737C64.8576 66.666 65.0792 67.0269 65.2047 67.4247C64.6046 71.8363 61.1779 73.3209 67.9653 73.0335C71.086 74.7635 73.3124 72.1656 75.893 71.3455C75.4947 70.937 75.1981 70.4408 75.0271 69.8971C74.8562 69.3533 74.8156 68.7771 74.9088 68.2149C75.923 59.7149 89.5279 67.6642 87.5115 57.554C73.5405 64.6173 74.4347 52.855 89.4079 50.3709C93.6868 48.3716 97.5876 56.0934 96.9274 59.7867C95.4451 64.4737 96.9575 69.7233 95.9252 74.4342Z" fill="#C4C3C6"/>
<path d="M127.438 361.865C120.188 354.478 118.256 338.49 128.848 333.976C130.834 333.635 130.948 330.301 129.148 329.577C123.459 330.774 107.171 350.348 109.068 333.402C110.868 327.128 111.576 320.316 117.71 316.156C118.79 315.426 120.632 314.229 119.318 312.78C117.83 310.853 102.85 324.902 99.3938 326.751C93.8366 330.439 94.7668 313.469 97.5334 310.619C98.1335 309.721 99.2017 308.572 98.4216 307.483C95.4209 305.783 91.154 308.752 87.8233 309.38C76.6849 312.146 85.4228 298.133 83.7544 293.715C82.8002 292.973 81.906 293.763 80.9518 294.068C69.8975 304.747 75.6827 277.876 82.1521 285.778C85.2608 290.566 85.5908 290.824 89.9538 287.37C97.1553 282.677 94.9168 299.132 103.967 291.734C107.147 287.376 111.246 295.385 106.919 297.546C104.777 297.983 103.661 303.233 101.668 300.85C101.296 300.306 101.068 299.372 100.108 299.821C96.7412 303.412 103.265 311.056 106.325 305.178C109.704 300.82 112.242 309.033 116.443 306.974C123.189 306.1 119.222 318.652 128.152 317.748C131.189 317.88 130.75 320.388 131.086 322.22C128.086 353.407 164.063 336.712 147.806 373.172C140.665 386.131 137.052 366.21 135.803 361.236C132.671 360.949 133.691 358.955 133.895 357.237C134.945 348.504 128.518 358.8 127.438 361.865Z" fill="#C4C3C6"/>
<path d="M63.0381 140.668C49.4212 159.416 59.9774 144.787 70.6237 155.304C71.3919 156.154 72.4241 156.01 73.4023 155.567C77.0031 153.933 74.6986 158.818 77.3031 159.44C83.8685 161.787 70.7017 164.385 80.9039 172.184C78.1793 183.384 73.4563 170.939 69.1534 172.082C67.6891 172.298 66.2908 172.681 65.1445 171.364C63.3982 168.006 59.9294 167.174 56.8868 167.234C52.7279 167.066 58.9992 174.884 51.7017 179.613C57.0488 179.613 61.9039 178.912 67.119 179.104C74.3745 182.875 63.6142 185.186 60.1695 186.514C63.4582 191.303 72.3041 187.197 72.6821 192.123C70.5217 200.378 62.48 188.795 56.9468 191.782C55.3625 192.225 54.5463 191.519 53.6401 189.956C50.6395 185.317 48.299 188.945 46.1325 191.058C41.1094 189.094 33.9439 191.956 29.8931 188.615C33.2118 183.492 42.3817 191.429 39.2611 181.313C41.1635 180.481 44.2361 183.545 44.8902 180.672C45.3523 178.643 41.8356 178.769 40.0532 178.134C31.4954 175.069 31.0033 173.621 38.0428 167.605C41.2055 164.893 42.3157 160.368 46.5346 158.74C46.8047 158.638 46.6306 157.387 46.6606 156.675C53.8261 154.412 56.6827 161.41 63.7522 158.279C61.0997 157.788 59.8634 156.274 61.5618 154.005C57.5349 153.005 49.2592 158.53 49.6433 151.144C49.9913 150.545 50.7895 149.677 50.6155 149.39C47.5308 144.332 52.7939 141.782 54.0662 138.082C54.5103 136.783 55.6805 134.491 57.2229 138.082C57.943 139.711 61.5378 138.651 63.0381 140.668Z" fill="#C4C3C6"/>
<path d="M109.626 360.2C109.164 358.315 111.114 354.813 109.398 354.31C106.091 352.999 104.297 365.941 101.2 365.48C92.5885 362.146 103.211 332.725 88.9697 355.005C83.5686 343.997 89.8279 311.906 96.5553 338.322C101.956 344.08 105.167 333.324 109.248 348.199C111.078 357.118 118.076 347.002 119.564 353.867C121.917 360.991 124.167 370.873 132.719 372.543C137.292 374.884 137.748 381.618 142.603 384.246C143.689 384.994 144.944 386.413 144.157 387.897C133.355 402.611 137.886 364.367 123.357 377.015C113.749 381.145 114.415 356.094 109.626 360.2Z" fill="#C4C3C6"/>
<path d="M267.01 70.0407C271.21 67.5924 275.249 69.7174 279.582 70.4417C270.16 75.5178 280.734 82.8565 263.763 75.6495C264.039 76.7269 264.807 77.1759 264.453 77.96C263.757 82.7787 271.504 81.5516 271.15 85.9991C264.909 82.9163 253.879 78.5825 252.276 71.4653C254.431 64.6593 262.058 66.934 263.421 63.9889C262.473 60.6308 254.497 63.7674 253.723 59.6431C253.273 55.9079 257.431 55.2016 260.714 55.6925C257.546 63.953 271.126 55.9917 275.117 57.2667C289.982 62.7977 257.167 64.9048 263.715 69.891C264.681 71.8185 265.881 71.1361 267.01 70.0407Z" fill="#C4C3C6"/>
<path d="M74.5727 308.52C78.5636 312.111 78.6116 318.139 82.5604 321.329C89.936 325.286 79.7218 329.512 79.8658 335.049C71.5301 350.822 60.5477 313.608 74.5727 308.52Z" fill="#C4C3C6"/>
<path d="M68.0673 194.912C70.2278 194.697 71.0199 193.027 71.9861 190.973C66.777 194.134 49.6254 185.664 61.916 183.736C64.3165 183.617 68.6554 183.934 68.4454 181.444C68.2353 178.954 64.0705 180.313 61.6159 180.145C59.7795 180.271 58.3632 178.397 56.3528 178.876C48.1251 178.05 58.2972 164.456 65.6368 170.406C66.609 172.333 67.8573 170.825 68.9435 170.627C75.7789 168.407 75.887 178.086 69.0695 174.506C69.0008 174.496 68.9327 174.482 68.8655 174.464C84.2407 180.013 72.5443 179.127 80.0759 186.682C83.2085 192.404 69.8797 202.023 68.0673 194.912Z" fill="white"/>
<path d="M272.375 183.293L289.568 184.958C284.833 191.823 276.426 189.513 271.457 194.954C269.014 199.144 261.62 195.193 263.817 191.093C265.754 184.773 269.554 179.181 274.721 175.045C276 168.903 283.879 171.651 286.85 174.985C288.872 179.546 274.439 178.804 272.375 183.293Z" fill="#C4C3C6"/>
<path d="M239.908 23.0457C236.721 32.7787 228.674 42.3322 227.695 53.7953C227.317 62.0738 218.141 73.9857 210.25 65.0428C208.563 64.8273 213.25 55.4653 215.051 55.1122C217.156 54.1042 218.838 52.39 219.804 50.2696C227.473 41.566 232.118 31.8509 239.908 23.0457Z" fill="white"/>
<path d="M106.494 30.9941C108.81 40.1166 115.76 49.299 114.253 58.7867C107.22 47.3596 106.674 31.88 95.9193 23.0927C91.2863 26.5885 87.4755 22.1709 84.3849 23.3681C82.7165 25.4631 86.8754 26.6663 85.8132 28.6716C65.7269 28.7614 86.3353 -3.16148 106.494 30.9941Z" fill="white"/>
<path d="M73.2405 237.089C68.9796 227.458 65.3668 234.964 58.4954 236.359C60.1157 231.672 59.9177 226.069 62.0961 222.154C63.8965 221.616 64.7427 225.147 66.459 225.004C70.6599 223.986 74.5488 224.309 78.0895 227.398C77.9875 228.871 74.5368 229.601 75.599 231.409C76.6612 233.216 78.9597 230.936 80.7721 231.409C90.3621 231.678 75.497 236.455 73.2405 237.089Z" fill="white"/>
<path d="M286.232 152.551C279.21 150.521 273.707 155.951 268.624 154.346C262.467 148.774 270.736 140.465 277.08 142.632C294.405 147.379 279.192 145.583 286.232 152.551Z" fill="#C4C3C6"/>
<path d="M256.093 44.5693C260.894 42.8334 265.137 42.0672 269.098 39.9062C272.009 42.6658 278.76 53.1531 269.842 53.9073C265.641 54.5598 259.778 54.5358 256.873 51.5129C258.77 47.3587 269.476 51.1179 269.572 45.3594C266.265 42.6239 260.846 48.8731 256.093 44.5693Z" fill="#C4C3C6"/>
<path d="M70.8399 297.499C70.7199 303.658 65.6188 306.478 62.9002 299.738C60.9378 296.547 60.8418 281.678 66.387 286.479C68.2293 289.969 70.4318 293.435 70.8399 297.499Z" fill="#C4C3C6"/>
<path d="M39.2612 181.313C39.0032 183.659 43.06 182.845 41.9318 185.282C39.9274 191.088 33.8481 186.15 29.8932 188.616C22.9078 186.245 34.6462 176.901 39.2612 181.313Z" fill="white"/>
<path d="M112.369 296.702C110.112 285.371 110.568 282.294 114.673 279.559C115.051 281.953 110.508 283.845 114.931 285.545C123.849 288.304 115.471 292.153 112.369 296.702Z" fill="#C4C3C6"/>
<path d="M275.843 168.245C272.495 169.281 271.744 166.868 273.701 165.252C275.501 163.522 279.282 165.647 280.302 163.091C280.302 159.111 272.807 162.66 273.365 158.662C278.934 153.663 292.203 166.533 275.843 168.245Z" fill="#C4C3C6"/>
<path d="M208.083 250.695C207.855 254.987 214.684 248.301 216.143 252.108C218.327 256.962 211.294 256.723 209.871 260.231C209.163 262.026 204.83 259.686 205.472 258.201C207.129 255.729 205.472 253.55 205.364 251.252C204.668 248.055 210.363 246.475 208.083 250.695Z" fill="#C4C3C6"/>
<path d="M233.727 56.3261C234.309 48.6103 239.776 44.7015 245.477 47.8621C244.457 51.7469 238.191 55.5061 233.727 56.3261Z" fill="#C4C3C6"/>
<path d="M68.0794 97.0187C68.4575 97.9525 69.1356 97.731 69.7777 97.4137C78.9777 96.2166 66.9211 106.842 62.6302 104.675C55.8488 98.168 64.1065 101.49 64.6587 98.3595C65.2468 96.4979 66.387 96.0609 68.0794 97.0187Z" fill="white"/>
<path d="M222.342 167.03C215.524 167.688 226.543 154.549 227.041 162.241C226.429 164.809 225.469 167.329 222.342 167.03Z" fill="#C4C3C6"/>
<path d="M126.052 264.174C129.466 268.705 131.939 272.554 136.536 274.105C140.371 281.581 125.283 269.49 126.052 264.174Z" fill="#C4C3C6"/>
<path d="M49.6433 151.148C50.8435 152.058 50.4955 154.74 53.016 154.201C57.901 161.528 37.9468 156.218 49.6433 151.148Z" fill="white"/>
<path d="M130.679 265.037C129.826 256.214 139.266 268.198 143.437 269.826C136.854 271.119 135.888 264.552 130.679 265.037Z" fill="white"/>
<path d="M264.453 77.9416C263.889 76.104 261.242 76.9959 260.288 74.3501C264.567 75.3677 268.69 74.835 271.36 78.6181C269.036 78.8316 266.692 78.602 264.453 77.9416Z" fill="white"/>
<path d="M218.861 258.555C218.903 261.997 214.45 266.935 211.834 267.127C212.728 264.104 217.637 262.308 218.861 258.555Z" fill="#C4C3C6"/>
<path d="M71.47 138.699C75.6709 139.076 77.3572 142.554 80.6219 145.415C75.8209 145.918 72.6402 144.164 72.3282 140.274C72.6402 140.303 71.638 139.1 71.47 138.699Z" fill="#C4C3C6"/>
<path d="M210.634 160.338C208.557 160.266 205.941 163.732 204.464 161.643C202.508 160.278 220.5 150.233 210.634 160.338Z" fill="white"/>
<path d="M90.6442 213.75C91.8745 219.735 85.5551 216.742 85.3631 220.442C83.0586 221.268 82.7405 220.855 83.1486 217.575C86.0712 216.814 87.7036 214.073 90.6442 213.75Z" fill="white"/>
<path d="M215.693 148.019C216.155 145.93 228.169 139.777 225.865 144.595C222.072 144.128 220.992 150.324 215.693 148.019Z" fill="#C4C3C6"/>
<path d="M98.506 208.95C94.0711 205.921 99.8083 202.3 102.353 205.742C103.313 207.651 99.9103 206.801 100.078 208.543L98.506 208.95Z" fill="white"/>
<path d="M242.476 31.4188C247.715 30.0421 243.076 37.1713 241.006 33.8491L242.476 31.4188Z" fill="white"/>
<path d="M151.533 255.519C150.759 258.045 150.051 256.052 149.642 255.393C147.974 252.173 152.373 252.388 151.533 255.519Z" fill="white"/>
<path d="M267.009 70.041C267.237 72.2917 263.337 72.2797 263.685 69.8914L267.009 70.041Z" fill="white"/>
<path d="M95.0371 18.1309C94.3709 18.3105 94.0949 17.9993 94.0889 17.3647L95.0371 18.1309Z" fill="#C4C3C6"/>
<path d="M139.8 181.666C144.841 180.469 143.635 187.772 139.44 185.856C136.62 183.51 132.365 186.203 130.66 183.612C133.265 175.519 126.316 170.64 119.414 169.413C117.344 168.353 117.2 172.508 114.775 170.012C112.051 167.204 116.864 167.39 115.819 165.438C114.211 162.445 114.517 161.033 118.22 163.295C120.524 164.708 120.728 161.53 122.265 161.117C126.628 158.429 131.075 162.044 127.894 166.647C129.31 167.282 130.751 165.905 132.167 166.983C127.114 152.808 141.169 163.194 138.768 158.842C136.278 155.137 139.584 151.479 139.2 147.433C139.308 142.345 146.654 143.135 143.581 147.906C143.065 153.071 151.233 152.377 152.859 158.441C144.091 155.005 142.021 149.462 145.412 162.032L145.478 161.961C142.183 163.661 141.847 167.096 136.908 166.594C137.424 168.389 138.804 168.581 139.776 168.294C144.079 167.348 149.054 170.79 150.837 173.747C149.21 176.8 138.306 166.258 137.034 173.669C136.698 177.859 139.704 177.117 142.897 177.374C142.261 179.439 138.942 178.685 139.254 181.187C138.654 181.642 137.934 181.457 137.232 181.463C137.988 182.869 138.894 182.289 139.8 181.666Z" fill="#C4C3C6"/>
<path d="M117.65 179.301C107.112 181.217 114.223 167.215 103.553 175.709C102.299 181.606 114.709 175.709 108.954 182.126C107.886 184.694 106.746 187.897 104.465 184.078C105.149 185.239 106.794 187.472 107.97 187.292C107.052 184.203 113.293 186.382 115.928 185.772C113.461 189.519 113.269 191.812 118.448 190.483C129.85 195.69 120.14 197.067 113.683 194.074C108.18 189.286 101.08 190.417 95.2831 187.538C97.8637 186.227 105.569 187.268 100.24 182.593C96.9875 182.025 86.3952 179.983 86.1072 177.834C90.188 175.997 99.7541 182.438 100.408 176.039C100.33 174.333 99.412 174.327 98.0677 174.626C95.7272 174.895 89.918 175.745 89.996 172.286C91.3043 169.233 94.653 173.142 97.0295 172.25C101.284 172.417 101.032 164.133 96.6094 166.509C89.768 167.467 99.1539 159.075 102.101 162.499C107.832 165.408 101.218 167.784 103.301 171.136C107.388 172.83 107.928 165.468 112.105 171.424C114.883 177.254 118.706 174.333 117.572 179.397L117.65 179.301Z" fill="#C4C3C6"/>
<path d="M133.253 159.35C129.694 163.923 136.188 166.832 134.549 169.735C134.177 169.945 133.145 169.807 133.037 169.562C131.543 166.126 129.628 167.287 127.45 168.838C125.908 169.903 123.195 168.179 125.517 166.874C126.88 165.593 128.47 164.061 127.768 162.157C126.484 159.518 124.005 163.432 122.229 161.104C122.229 158.745 120.086 158.955 119.186 159.404C114.181 161.882 109.428 158.967 104.567 159.075C100.366 159.919 100.366 153.633 104.363 153.873C106.469 154.106 107.622 152.855 109.242 151.754C114.955 153.077 119.558 152.688 123.789 147.911C128.452 150.371 130.319 155.339 133.253 159.35Z" fill="black"/>
<path d="M186.899 96.0618C192.102 85.7421 174.296 87.448 182.224 83.1442C185.014 83.1861 186.983 82.3959 187.403 79.2713C187.949 76.8769 191.375 79.5646 190.181 80.8815C183.418 87.6456 192.072 88.6632 194.382 91.8058C196.543 95.535 209.715 99.2283 203.612 104.412C202.688 104.903 201.632 105.071 201.212 103.628C200.287 98.0012 195.978 99.1984 192.582 97.5163C192.558 91.5723 189.587 94.2121 186.899 96.0618Z" fill="#C4C3C6"/>
<path d="M108.498 152.85C109.098 155.663 106.89 154.532 105.665 154.963C93.5488 156.639 115.645 159.602 94.1549 161.338C89.744 155.538 104.525 161.565 98.7219 149.731C98.4818 149.043 98.1878 148.366 98.7939 147.75C108.714 149.492 102.995 144.529 105.335 138.771C111.937 144.464 102.935 150.144 114.415 152.539C112.603 154.221 109.404 150.97 108.498 152.85Z" fill="#C4C3C6"/>
<path d="M171.475 146.18C168.337 147.868 169.441 165.634 164.364 159.062C160.361 152.477 166.236 146.492 164.364 139.775C163.65 130.384 172.141 141.715 171.475 146.18Z" fill="#C4C3C6"/>
<path d="M86.107 177.799C86.107 179.691 79.8897 183.582 78.3533 180.714C78.0353 179.643 78.3533 180.577 78.8695 180.421C76.883 176.464 70.5037 178.272 67.509 174.717C64.0643 171.035 83.7785 178.069 86.107 177.799Z" fill="black"/>
<path d="M185.002 99.7898C190.313 99.3528 191.543 103.525 192.57 106.62C194.7 109.403 195.69 114.318 190.271 114.82C189.071 114.222 189.671 113.09 189.929 112.163C192.065 106.674 186.064 105.177 185.002 99.7898Z" fill="#C4C3C6"/>
<path d="M134.129 200.575C125.385 201 133.283 208.004 128.836 210.242C128.836 205.633 124.143 199.27 127.9 195.517C130.156 195.176 128.074 198.199 134.129 200.575Z" fill="#C4C3C6"/>
<path d="M89.696 104.034C90.1401 111.917 80.8262 98.7002 86.3173 95.9407C86.8754 89.5358 91.7785 98.2632 88.3878 101.328C88.2636 101.86 88.3256 102.419 88.5636 102.911C88.8016 103.403 89.2012 103.799 89.696 104.034Z" fill="black"/>
<path d="M192.666 159.853C192.45 162.247 186.43 167.317 185.716 163.965C184.642 158.566 201.289 149.97 192.666 159.853Z" fill="#C4C3C6"/>
<path d="M73.3125 110.032C68.1274 108.727 78.3475 102.502 79.6498 102.071C86.0352 103.836 75.539 108.547 73.3125 110.032Z" fill="black"/>
<path d="M111.991 206.997C111.259 212.109 100.084 201.502 103.427 200.072C106.506 198 105.827 203.064 108.174 203.274C110.046 203.902 112.789 203.645 111.991 206.997Z" fill="black"/>
<path d="M192.666 159.854C195.438 156.322 195.174 152.257 200.911 151.192C198.865 155.406 196.483 158.249 192.666 159.854Z" fill="black"/>
<path d="M87.3794 153.592C85.2909 152.574 78.5155 152.293 80.4059 148.27C81.4081 146.229 96.7714 153.825 87.3794 153.592Z" fill="#C4C3C6"/>
<path d="M137.562 154.562C144.265 166.534 121.065 151.228 131.561 150.624L137.562 154.562Z" fill="black"/>
<path d="M220.986 141.224C220.127 143.164 209.793 148.407 211.84 143.23C213.67 138.154 216.833 139.596 220.986 141.224Z" fill="#C4C3C6"/>
<path d="M80.904 172.189C78.5035 171.926 77.3033 170.1 75.929 168.496C74.0626 163.318 81.6242 169.04 84.1867 168.406C83.9227 170.633 81.7322 170.83 80.904 172.189Z" fill="black"/>
<path d="M210.621 107.525C210.921 110.087 207.765 114.259 205.172 113.05C204.032 111.398 207.147 109.105 206.859 106.897C206.354 102.437 211.366 103.682 210.621 107.525Z" fill="#C4C3C6"/>
<path d="M98.0857 144.032C94.5389 143.476 91.8024 141.153 88.2256 141.189C87.0974 141.189 86.4252 140.189 86.7493 139.046C89.8339 134.808 95.6312 141.71 98.0857 144.032Z" fill="#C4C3C6"/>
<path d="M187.096 153.316C188.729 149.396 190.745 143.793 194.64 144.152C195.666 147.612 190.901 151.287 187.096 153.316Z" fill="#C4C3C6"/>
<path d="M123.795 147.934C121.491 157.961 110.712 150.113 119.678 149.132C121.443 148.946 122.355 143.457 123.795 147.934Z" fill="#C4C3C6"/>
<path d="M128.65 175.106C128.752 173.514 131.363 171.287 132.329 172.939C129.832 176.531 134.993 180.948 130.661 183.618C128.332 181.08 129.484 178.207 128.65 175.106Z" fill="black"/>
<path d="M90.6741 196.463C90.8781 199.522 87.9495 200.462 86.5092 202.389C79.7217 205.442 86.2331 195.194 90.6741 196.463Z" fill="black"/>
<path d="M78.8695 180.421C82.2242 180.008 82.6383 184.802 79.7637 185.808C74.6806 186.981 72.8862 179.744 78.8695 180.421Z" fill="#C4C3C6"/>
<path d="M96.2853 91.8888C94.2689 88.3452 102.485 88.2195 103.289 89.8417C103.277 92.7269 98.4878 92.7448 96.2853 91.8888Z" fill="black"/>
<path d="M79.4278 161.606C77.6274 160.343 73.6366 161.151 73.4265 158.523C73.9066 153.711 86.2272 160.834 79.4278 161.606Z" fill="black"/>
<path d="M131.573 150.61C129.562 150.838 130.493 152.771 129.772 153.735C130.787 159.721 126.346 150.017 125.397 149.03C127.882 147.851 130.156 147.545 131.573 150.61Z" fill="#C4C3C6"/>
<path d="M202.268 119.939C207.711 120.442 198.697 127.822 199.111 123.938C199.867 122.351 200.131 120.328 202.268 119.939Z" fill="#C4C3C6"/>
<path d="M207.363 137.413C208.461 135.108 209.031 132.756 211.9 132.684C215.573 134.45 210.453 138.634 207.363 137.413Z" fill="#C4C3C6"/>
<path d="M193.866 121.118C193.266 118.58 193.914 115.952 195.888 114.533C199.267 115.096 197.095 120.956 193.866 121.118Z" fill="#C4C3C6"/>
<path d="M208.227 128.666C206.817 130.018 206.301 132.401 203.924 132.856C200.966 132.006 207.069 124.434 208.227 128.666Z" fill="#C4C3C6"/>
<path d="M117.566 179.391C120.008 176.249 125.409 180.762 122.367 182.899C120.056 182.665 116.594 183.928 117.62 179.307L117.566 179.391Z" fill="#C4C3C6"/>
<path d="M139.801 181.665C141.481 186.579 131.717 181.851 135.144 178.923C137.34 178.385 137.622 181.497 139.801 181.665Z" fill="black"/>
<path d="M200.665 81.4795C206.498 82.521 197.911 91.2963 198.955 85.2087C199.459 83.9277 198.583 81.8506 200.665 81.4795Z" fill="#C4C3C6"/>
<path d="M185.464 141.698C183.85 139.597 184.726 136.664 186.148 134.652C188.597 134.982 187.073 139.962 185.464 141.698Z" fill="#C4C3C6"/>
<path d="M121.251 115.329C119.342 115.21 114.781 114.168 116.69 111.546C118.964 111.786 120.248 113.378 121.251 115.329Z" fill="#C4C3C6"/>
<path d="M210.375 116.138C209.721 112.732 214.576 111.002 214.024 115.019C214.174 117.916 210.009 119.903 210.375 116.138Z" fill="#C4C3C6"/>
<path d="M145.357 162.032C147.158 162.092 153.501 164.469 149.924 166.121C146.888 166.959 145.886 164.289 145.357 162.032Z" fill="#C4C3C6"/>
<path d="M99.3518 197.516C102.7 199.743 96.1951 202.981 94.0946 201.353C92.0902 199.168 97.8454 198.103 99.3518 197.516Z" fill="black"/>
<path d="M198.457 165.078C199.729 168.73 194.256 168.395 193.452 165.905C193.266 163.432 198.853 160.864 198.457 165.078Z" fill="#C4C3C6"/>
<path d="M182.649 174.914C183.982 172.681 184.504 170.688 186.766 170.395C189.917 172.197 185.626 175.273 182.649 174.914Z" fill="#C4C3C6"/>
<path d="M95.9253 74.4335C91.2803 68.3698 103.529 69.3754 101.927 74.3916C99.9462 74.7508 97.9358 75.0441 95.9253 74.4335Z" fill="black"/>
<path d="M167.083 99.0171C167.239 101.842 163.572 101.232 163.848 98.652C163.536 95.5453 167.605 96.2097 167.083 99.0171Z" fill="#C4C3C6"/>
<path d="M220.986 141.225C221.052 140.027 222.786 136.262 224.586 136.37C227.653 138.938 223.23 140.644 220.986 141.225Z" fill="black"/>
<path d="M119.72 105.668C117.259 106.458 115.777 107.463 114.163 106.392C112.746 103.279 117.529 103.543 119.72 105.668Z" fill="#C4C3C6"/>
<path d="M181.605 163.433C183.652 164.031 182.085 167.473 180.471 167.581C178.179 167.491 179.817 163.445 181.605 163.433Z" fill="#C4C3C6"/>
<path d="M199.213 170.172C199.771 173.596 198.289 174.554 194.568 173.165C195.851 171.808 197.445 170.781 199.213 170.172Z" fill="black"/>
<path d="M85.2429 194.709C84.0427 194.523 82.3503 195.87 81.7262 193.787C80.5919 189.184 89.0118 190.758 85.2429 194.709Z" fill="black"/>
<path d="M169.453 134.024C166.794 133.563 164.826 128.912 168.175 128.517C170.065 129.804 170.167 131.714 169.453 134.024Z" fill="#C4C3C6"/>
<path d="M94.143 83.1857C92.5887 81.7311 87.5416 82.5871 91.6465 80.1928C96.3875 79.7917 102.515 82.3656 94.143 83.1857Z" fill="black"/>
<path d="M122.805 224.142C125.547 226.644 119.618 228.745 118.37 227.303C117.194 224.699 121.028 223.926 122.805 224.142Z" fill="black"/>
<path d="M79.7637 185.815C80.5138 182.541 84.3667 184.714 83.1664 187.306C82.5063 188.323 79.9557 186.922 79.7637 185.815Z" fill="black"/>
<path d="M95.8833 83.1799C97.6837 81.4619 99.5441 78.8401 102.023 81.4799C100.084 82.9704 98.2778 83.976 95.8833 83.1799Z" fill="#C4C3C6"/>
<path d="M116.738 218.61C116.702 219.466 118.718 219.209 117.818 220.406C117.517 220.817 117.07 221.098 116.568 221.193C116.067 221.287 115.548 221.188 115.117 220.915C112.849 219.598 114.709 216.856 116.738 218.61Z" fill="black"/>
<path d="M76.0009 119.735C73.0483 118.694 74.6686 116.742 75.0287 115C76.415 116.335 78.5454 118.365 76.0009 119.735Z" fill="black"/>
<path d="M221.022 130.019C224.821 131.701 218.945 135.682 218.771 132.341C219.071 131.09 220.074 130.617 221.022 130.019Z" fill="black"/>
<path d="M114.907 214.762C112.351 216.157 110.106 212.865 113.329 211.769C115.699 211.805 115.471 213.224 114.907 214.762Z" fill="black"/>
<path d="M93.1827 158.625C94.9831 161.725 92.9726 162.085 90.4761 160.391C89.5279 158.332 91.6043 158.248 93.1827 158.625Z" fill="black"/>
<path d="M180.891 96.0486C182.157 97.7246 182.163 98.85 181.077 100.239C179.547 99.0236 179.859 97.8503 180.891 96.0486Z" fill="#C4C3C6"/>
<path d="M103.535 175.685C102.208 175.685 100.576 173.811 102.574 173.183C104.255 172.943 105.047 175.104 103.535 175.685Z" fill="black"/>
<path d="M122.379 182.9C122.799 181.625 123.057 180.368 124.449 179.907C124.641 181.912 124.851 183.139 122.379 182.9Z" fill="black"/>
<path d="M72.3282 140.272C73.0124 140.727 72.7183 141.212 72.3823 141.697C71.7521 141.248 71.7341 140.793 72.3282 140.272Z" fill="black"/>
<path d="M83.4964 233.049C83.0943 229.248 86.5571 226.979 89.1196 230.361C89.9298 231.169 89.9298 231.169 96.2671 230.223C92.3003 234.635 97.6534 241.195 97.8635 234.707C96.4832 232.432 99.5439 228.493 101.956 230.517C103.607 238.957 106.667 234.336 107.087 237.801C105.533 240.89 102.971 239.118 100.624 240.196C96.2912 249.36 88.1474 236.143 83.4964 233.049Z" fill="black"/>
<path d="M83.1664 217.575C82.8724 219.323 83.2204 220.568 85.3809 220.448C87.8774 222.483 85.3269 223.872 84.4387 224.961C83.1244 226.596 82.7764 224.59 82.1522 223.806C81.8162 223.393 81.174 222.693 80.952 222.789C72.6942 224.782 71.488 215.689 61.6759 219.652C57.385 219.987 57.0429 214.63 61.6039 214.702C69.4235 212.732 75.8749 220.837 83.1664 217.575Z" fill="black"/>
<path d="M211.042 219.455C207.099 220.46 206.523 226.249 203.24 220.927C202.196 218.682 193.854 209.015 199.759 210.248C202.418 211.685 205.893 211.799 207.009 215.636C207.441 217.048 209.433 218.012 211.042 219.455Z" fill="white"/>
<path d="M217.325 210.649C212.482 208.751 218.633 202.442 212.668 200.832C210.441 197.737 217.469 199.341 216.569 195.612C219.449 195.612 221.91 194.487 224.304 193.014C230.354 198.3 219.557 191.422 217.325 210.649Z" fill="black"/>
<path d="M45.0345 213.822C40.2335 217.569 35.8646 212.774 31.2316 213.223C30.1453 213.319 29.5212 212.259 29.6592 211.062C32.5398 207.046 40.7076 212.289 45.3646 210.176C46.3668 211.709 43.7622 212.607 45.6886 214.205L45.0345 213.822Z" fill="black"/>
<path d="M101.956 230.499C93.3146 232.229 102.947 218.964 107.154 223.161C111.852 230.451 104.141 226.058 101.956 230.499Z" fill="white"/>
<path d="M50.0334 222.8C40.1914 222.8 44.7643 217.156 51.5458 217.569C52.9681 218.089 55.4466 215.043 55.8487 218.664C56.2087 222.028 52.572 222.704 50.0334 222.8Z" fill="white"/>
<path d="M107.394 206.71C108.504 208.572 108.66 212.786 105.143 212.995C100.126 212.086 104.141 206.848 107.394 206.71Z" fill="white"/>
<path d="M52.782 232.845C49.0432 233.276 52.4579 228.787 54.5824 228.888C58.7473 229.248 55.2785 233.222 52.782 232.845Z" fill="black"/>
<path d="M119.624 235.923C119.108 242.016 111.523 235.007 118.28 234.564C119.708 233.953 119.45 235.21 119.624 235.923Z" fill="black"/>
<path d="M114.373 231.283C111.534 232.001 110.172 228.452 113.665 228.697C116.678 228.086 118.298 231.84 114.373 231.283Z" fill="black"/>
<path d="M35.1923 221.746C31.5915 222.046 34.3461 218.586 36.6386 219.131C40.2333 219.208 37.4607 222.429 35.1923 221.746Z" fill="black"/>
<path d="M104.255 218.61C104.075 220.257 101.08 220.598 101.182 218.664C101.17 217 104.495 216.593 104.255 218.61Z" fill="black"/>
<path d="M28.5608 206.226C30.4632 206.023 30.2772 208.663 28.5908 208.764C26.4303 209.297 26.6944 206.364 28.5608 206.226Z" fill="black"/>
<path d="M97.6115 43.3193C98.9078 44.5823 101.002 44.7739 101.938 46.5277C100.594 49.0418 91.7363 45.4383 97.2334 50.5982C99.1718 55.8598 103.235 54.8422 103.715 58.1643C100.072 60.2594 94.5269 57.1707 93.5126 53.7826C91.3762 46.9467 86.0951 54.6506 81.9542 54.4172C77.3992 53.5791 79.6377 61.271 75.9169 58.7629C73.5764 56.6738 61.1958 57.0988 67.2211 52.9566C68.6914 51.4541 70.4558 52.2682 72.1181 52.358C75.1668 52.4119 77.7173 50.0654 80.868 50.5622C70.3597 49.8798 65.2647 43.3013 79.2416 43.6964C76.0729 42.4513 70.8398 41.9006 71.1759 36.9144C73.6904 35.4418 76.367 40.3982 79.6797 38.6443C65.2226 26.8221 90.0439 37.2735 92.4444 42.4513C93.4646 44.5644 96.2912 42.0263 97.6115 43.3193Z" fill="black"/>
<path d="M68.0795 97.0195C59.7437 101.808 69.6158 90.89 60.7879 91.2611C59.5877 91.1653 61.052 88.9984 62.2402 88.8667C68.6076 87.9389 69.8318 80.1572 76.3972 79.7143C79.3018 79.2773 81.1262 74.5664 84.1989 75.6798C85.4591 78.984 79.6739 80.4086 78.8397 83.4614C89.8161 77.6611 86.9835 83.0005 85.3811 91.285C83.8508 90.9678 84.691 87.8731 82.3805 88.9924C77.4414 91.3928 72.0403 92.9072 68.0795 97.0195Z" fill="black"/>
<path d="M64.6046 67.6881C63.7044 65.4853 60.3617 67.4187 59.6655 65.0184C60.2657 62.1511 65.4448 59.8705 67.2091 63.2226C73.9846 68.5561 76.9972 55.8839 87.8055 59.8825C93.6927 64.4377 83.9707 64.9645 80.838 65.1321C73.8405 65.0064 77.1712 74.2187 64.6046 67.6881Z" fill="black"/>
<path d="M235.749 93.9483C234.321 93.9483 225.121 96.2529 228.884 92.0209C231.152 89.5906 232.826 85.7895 237.285 88.7346C240.61 90.4226 240.568 84.76 243.016 87.0346C249.678 92.1047 240.928 94.7025 235.749 93.9483Z" fill="black"/>
<path d="M102.238 72.5069C97.0234 72.7524 92.5944 70.1485 95.9491 64.5457C97.6475 61.5527 102.725 65.4316 105.143 66.3834C113.509 67.9756 105.479 70.5136 102.238 72.5069Z" fill="white"/>
<path d="M98.2597 52.3408C82.2242 44.1162 109.8 42.7634 105.695 54.4359C103.847 51.425 101.146 51.6046 98.2597 52.3408Z" fill="white"/>
<path d="M67.1611 82.2216C64.1124 82.1677 57.619 84.3107 57.8771 79.0311C60.1096 74.2424 67.7132 80.5216 72.2141 77.5406C78.9356 76.5589 70.8398 84.4004 67.1611 82.2216Z" fill="black"/>
<path d="M68.9495 68.4304L75.8809 68.8075C75.5089 73.5364 69.8437 73.3268 65.8408 74.0631C64.3765 74.1649 62.024 75.6254 61.6939 74.2666C59.8936 68.7117 63.6924 70.7589 64.6045 67.6821C66.1109 67.73 67.4251 68.568 68.9495 68.4304Z" fill="white"/>
<path d="M96.0453 56.6672C98.8299 55.9669 100.888 58.9419 103.691 58.1637C104.681 59.738 106.89 57.1461 107.646 59.2591C108.42 60.7676 106.89 63.2577 105.323 61.7014C107.13 68.5433 93.7828 63.3535 96.0453 56.6672Z" fill="white"/>
<path d="M67.3531 116.209C75.2388 117.358 60.4696 126.385 58.6213 121.997C57.7451 118.22 64.1124 115.766 67.3531 116.209Z" fill="black"/>
<path d="M237.627 129.229C235.905 128.463 231.992 122.645 233.06 121.274C235.851 121.556 238.059 117.958 240.364 121.154C241.996 122.483 239.962 122.95 239.602 123.764C238.876 125.704 241.138 128.613 237.627 129.229Z" fill="white"/>
<path d="M87.8055 59.9063C84.8048 59.5112 71.9921 64.246 75.917 58.7629C79.6738 58.6313 83.1845 59.8284 85.9631 56.5302C86.9173 55.6383 87.7635 53.6989 89.3058 55.2013C91.1602 57.0629 88.0695 58.0925 87.8055 59.9063Z" fill="white"/>
<path d="M71.7161 39.2419C75.1608 41.3131 79.0976 42.2349 83.4666 43.6595C78.5515 45.8085 67.7852 46.425 71.7161 39.2419Z" fill="white"/>
<path d="M97.6117 43.3196C95.0852 43.5949 86.5934 34.7118 92.0785 35.5379C94.8271 38.8661 101.681 37.4175 102.743 41.5238C102.275 44.1337 99.046 41.8111 97.6117 43.3196Z" fill="white"/>
<path d="M100.528 35.221C98.866 38.2977 95.2532 32.7009 92.7927 32.4196C92.5228 32.3095 92.2772 32.1475 92.0701 31.9428C91.8629 31.7381 91.6982 31.4947 91.5854 31.2265C91.4725 30.9583 91.4137 30.6706 91.4124 30.3797C91.411 30.0889 91.4671 29.8006 91.5774 29.5314C91.6878 29.2621 91.8502 29.0172 92.0554 28.8106C92.2607 28.604 92.5047 28.4397 92.7736 28.3271C93.0424 28.2146 93.3309 28.1559 93.6225 28.1546C93.9141 28.1532 94.2031 28.2092 94.4731 28.3192C95.9074 28.4449 100.534 33.7065 100.528 35.221Z" fill="white"/>
<path d="M72.1901 53.167C66.4229 54.4959 62.7741 47.1093 70.9899 47.1033C74.8907 47.4145 76.499 51.7424 72.1901 53.167Z" fill="white"/>
<path d="M67.3532 116.209C65.3848 118.137 62.7922 118.376 60.2657 118.795C59.8996 114.719 69.4236 107.643 67.3532 116.209Z" fill="white"/>
<path d="M62.6302 104.681C65.321 102.872 68.3637 101.648 71.5601 101.089C71.6381 105.543 60.3017 111.206 62.6302 104.681Z" fill="black"/>
<path d="M237.627 129.228C245.267 118.047 242.59 133.191 234.861 134.418C236.091 132.101 236.859 130.665 237.627 129.228Z" fill="black"/>
<path d="M95.931 60.1448C98.5476 63.3532 104.507 62.8145 105.143 66.3881C102.004 65.3705 90.4459 65.3705 95.931 60.1448Z" fill="black"/>
<path d="M239.253 141.272C239.061 142.745 240.07 144.834 237.609 145.067C230.996 144.756 239.865 131.689 239.253 141.272Z" fill="black"/>
<path d="M222.672 116.629C218.129 116.551 223.909 111.469 225.799 111.116C230.972 111.601 224.245 116.061 222.672 116.629Z" fill="black"/>
<path d="M67.8394 73.5064C70.1799 72.5247 74.1587 69.831 76.2411 71.2437C75.1549 73.9134 69.9278 75.2961 67.8394 73.5064Z" fill="black"/>
<path d="M67.2392 63.246C64.3526 63.246 59.1135 61.7496 63.3504 58.8703C67.0292 58.0862 70.5519 60.0316 67.2392 63.246Z" fill="white"/>
<path d="M67.1609 82.2224C70.2035 81.4921 73.3242 78.4872 76.3968 79.7203C74.3684 81.534 68.3491 86.628 67.1609 82.2224Z" fill="white"/>
<path d="M222.858 106.344C225.493 100.4 232.868 108.308 225.703 107.284C224.725 107.206 223.404 107.703 222.858 106.344Z" fill="black"/>
<path d="M247.511 134.299C244.565 134.023 247.313 129.3 249.144 128.977C252.27 129.468 249.678 134.101 247.511 134.299Z" fill="black"/>
<path d="M228.781 83.7238C228.853 86.1481 223.8 84.7593 224.106 82.5266C224.346 78.3544 228.073 81.5329 228.781 83.7238Z" fill="black"/>
<path d="M78.7437 98.987C79.5058 97.9515 81.5222 93.6775 83.3586 95.162C83.8628 96.1976 78.8337 103.626 78.7437 98.987Z" fill="black"/>
<path d="M78.7734 29.2583C81.27 30.9822 83.4064 31.6527 84.9188 33.64C81.504 33.5023 81.3 33.3646 78.7734 29.2583Z" fill="black"/>
<path d="M170.575 87.4542C167.887 90.8362 161.333 84.8922 166.71 85.4369C167.82 86.263 168.937 88.1785 170.575 87.4542Z" fill="white"/>
<path d="M220.608 119.896C221.676 121.548 219.767 123.949 218.333 122.356C218.225 120.818 218.999 119.986 220.608 119.896Z" fill="black"/>
<path d="M250.458 20.4771C249.624 23.2126 248.717 24.4936 246.533 25.0443C246.509 22.62 248.099 21.8658 250.458 20.4771Z" fill="white"/>
<path d="M246.719 125.147C246.479 127.541 243.892 125.817 244 124.291C244.102 122.082 246.677 123.884 246.719 125.147Z" fill="white"/>
<path d="M59.1135 110.176C61.0039 108.811 62.1742 108.913 63.5245 109.667C62.4382 111.397 61.172 111.11 59.1135 110.176Z" fill="white"/>
<path d="M81.7923 91.9908C82.0264 93.619 79.4818 93.8584 79.5478 92.2123C79.3738 90.9313 81.6423 90.6021 81.7923 91.9908Z" fill="white"/>
<path d="M65.6366 170.406C61.9398 169.705 58.297 169.37 55.1044 171.992C48.2749 161.744 62.4379 166.054 65.6366 170.406Z" fill="black"/>
<path d="M53.1963 157.661C51.6119 151.376 60.7939 151.478 65.1388 154.07C63.9386 155.602 61.418 154.375 60.8959 156.398C59.8337 160.229 55.1407 160.469 53.1963 157.661Z" fill="black"/>
<path d="M56.8809 159.542C58.0451 158.267 58.9873 156.71 60.8957 156.381C62.9181 157.662 66.3329 155.322 67.6171 157.764C66.4169 160.757 60.7877 159.117 58.1771 161.481C56.6408 162.283 57.3009 160.242 56.8809 159.542Z" fill="white"/>
<path d="M53.3881 177.141C59.2873 177.608 65.7327 182.438 55.5546 180.481C53.01 178.553 51.1856 182.971 49.5533 181.079C48.4491 178.906 51.5277 177.548 53.3881 177.141Z" fill="black"/>
<path d="M49.9855 163.05C52.7581 162.99 51.6479 167.072 49.5234 166.911C46.4147 166.827 47.0569 162.828 49.9855 163.05Z" fill="black"/>
<path d="M129.856 155.795C129.82 155.106 129.79 154.424 129.754 153.736C147.53 159.757 141.883 167.994 129.856 155.795Z" fill="white"/>
<path d="M136.614 164.139C136.302 165.336 134.321 164.953 134.171 163.864C133.853 162.218 136.494 162.942 136.614 164.139Z" fill="black"/>
<path d="M107.796 185.748C107.592 187.903 110.724 186.675 110.982 188.525C109.482 192.775 101.71 182.455 101.981 180.588C105.959 178.517 102.779 185.819 107.706 185.64L107.796 185.748Z" fill="black"/>
<path d="M72.1902 53.165C73.6965 51.5548 74.7287 49.8548 73.2524 47.6699C77.3393 48.0171 81.1801 49.7351 85.447 50.0284C81.0421 51.477 76.8412 53.153 72.1902 53.165Z" fill="#C4C3C6"/>
</svg>
