<svg width="80" height="80" viewBox="0 0 80 80" fill="none" xmlns="http://www.w3.org/2000/svg">
<circle cx="40" cy="40" r="40" fill="#F2F5F9"/>
<path d="M25 30C27.7614 30 30 27.7614 30 25C30 22.2386 27.7614 20 25 20C22.2386 20 20 22.2386 20 25C20 27.7614 22.2386 30 25 30Z" stroke="#4038FF" stroke-width="3" stroke-miterlimit="10"/>
<path d="M37 45C30 41.417 30 35 24 35C22.4087 35 20.8826 35.6321 19.7574 36.7574C18.6321 37.8826 18 39.4087 18 41V59H30V47" stroke="#4038FF" stroke-width="3" stroke-miterlimit="10" stroke-linecap="square"/>
<path d="M43 45C50 41.417 50 35 56 35C57.5913 35 59.1174 35.6321 60.2426 36.7574C61.3679 37.8826 62 39.4087 62 41V59H50V47" stroke="#4038FF" stroke-width="3" stroke-miterlimit="10" stroke-linecap="square"/>
<path d="M55 30C57.7614 30 60 27.7614 60 25C60 22.2386 57.7614 20 55 20C52.2386 20 50 22.2386 50 25C50 27.7614 52.2386 30 55 30Z" stroke="#4038FF" stroke-width="3" stroke-miterlimit="10"/>
</svg>
