<svg width="32" height="32" viewBox="0 0 32 32" fill="none" xmlns="http://www.w3.org/2000/svg">
<path d="M23.4193 9.35839C22.0285 8.72232 20.5515 8.25874 19.0099 8C18.8158 8.33421 18.6002 8.787 18.4492 9.14278C16.8095 8.90559 15.1816 8.90559 13.5644 9.14278C13.4135 8.787 13.1871 8.33421 13.0038 8C11.4514 8.25874 9.97438 8.72232 8.59335 9.35839C5.8011 13.4767 5.04643 17.4979 5.42376 21.4653C7.27807 22.8129 9.06772 23.6323 10.8261 24.1714C11.2573 23.5892 11.6454 22.9638 11.9797 22.3063C11.3436 22.0691 10.7398 21.778 10.1577 21.433C10.3086 21.3252 10.4595 21.2066 10.5997 21.088C14.1143 22.6944 17.921 22.6944 21.3924 21.088C21.5434 21.2066 21.6835 21.3252 21.8345 21.433C21.2523 21.778 20.6486 22.0691 20.0125 22.3063C20.3467 22.9638 20.7348 23.5892 21.166 24.1714C22.9233 23.6323 24.7237 22.8129 26.5683 21.4653C27.0319 16.8727 25.8342 12.8838 23.4193 9.35839ZM12.4648 19.0181C11.4082 19.0181 10.5458 18.0586 10.5458 16.8835C10.5458 15.7084 11.3867 14.7488 12.4648 14.7488C13.5321 14.7488 14.4053 15.7084 14.3837 16.8835C14.3837 18.0586 13.5321 19.0181 12.4648 19.0181ZM19.5489 19.0181C18.4924 19.0181 17.6288 18.0586 17.6288 16.8835C17.6288 15.7084 18.4708 14.7488 19.5489 14.7488C20.6162 14.7488 21.4895 15.7084 21.4679 16.8835C21.4679 18.0586 20.627 19.0181 19.5489 19.0181Z" fill="#5865F2"/>
</svg>
