<svg viewBox="0 0 400 320" xmlns="http://www.w3.org/2000/svg">
  <g fill="none" fill-rule="evenodd">
    <g transform="matrix(-1 0 0 1 229.269344 16.541718)">
      <path d="M80.3511147 263.840773c35.6127433 0 62.2331843-7.179985 62.2331843-23.672411 0-16.492426-11.996759-32.26779-59.9837921-32.26779-47.9870333 0-64.482576 20.78314-64.482576 32.26779 0 11.48465 26.6204405 23.672411 62.2331838 23.672411z" fill="#000"/>
      <path d="M85.5996965 246.62192c21.7382675 0 40.1005165-4.535799 45.9998305-10.75593 0 2.567778-.323482 4.726988 0 6.220535 1.292916 5.969519-19.497324 13.140139-45.9998305 13.140139-26.5025067 0-47.9870333-6.741831-47.9870333-15.058302 0-1.495015.6942869-2.939145 1.9872026-4.302372 5.8993146 6.220131 24.2615632 10.75593 45.9998307 10.75593z" fill="#D8D8D8"/>
      <ellipse fill="#D8D8D8" cx="82.6005069" cy="228.69537" rx="47.9870333" ry="15.0583018"/>
      <path d="M82.0920632 225.827122c21.9473888 0 37.9983138 6.732381 37.9983138 0s-17.791874-12.190054-39.7392623-12.190054-39.7392619 5.457673-39.7392619 12.190054 19.5328221 0 41.4802104 0z" fill="#FFF"/>
      <path d="M4.78009005 102.04404245l1.8318831-1.74108036 136.95533593-79.06115237 3.73411207-1.63188346c.25601587-.13006191.51853722-.24967825.78753844-.35854995 9.52289831-3.854161 20.43459602 1.28123576 25.83689656 12.82469989 5.40230054 11.54346405 2.70868943 23.96821584-6.8142089 27.82237691-.64781957.26218927-1.31653449.45530931-2.00275801.58203127L21.76819097 123.7761117c-2.05443482.56297975-3.18855872.8877375-3.40237161.9742733-3.80915945 1.54166457-9.39806964-2.82752855-12.48318052-9.75886512-2.23083817-5.01203674-2.5416582-9.99133612-1.1025488-12.94747743z" fill="#000"/>
      <path d="M172.30502562 44.17618903c-5.18280156-5.00051319-12.02984634-6.68889559-18.22422316-4.20218425-.24358584.09778664-.48129287.20524753-.71310107.32211322l-3.38121736 1.46594106c-75.9778541 38.67982849-119.068924 60.0808152-129.27320983 64.20296043-4.55578393 1.8403644-3.8889596-5.04932586-3.68996767-5.45597092l1.6580472-1.56556334 123.99773889-71.05285378 3.38121836-1.46594104c.2318072-.1168657.46951522-.22432648.71310106-.32211312 8.62316475-3.46174006 18.5111535 1.16756044 23.41344435 11.55981378 1.02021034 2.16271905 1.7228408 4.35953762 2.11816923 6.51379796z" fill="#D8D8D8"/>
      <path d="M87.54955722 59.48081094l55.12953562-31.5901794 3.38121737-1.46594116c.2318082-.11686568.46951522-.22432648.71310107-.32211322 8.62316475-3.46174006 18.51115351 1.16756044 23.41344534 11.55981391 1.02020934 2.16271902 1.7228408 4.35953771 2.11816924 6.51379796-5.18280257-5.00051322-12.02984634-6.6888956-18.22422318-4.20218416-.24358584.09778664-.48129286.20524754-.71310106.32211312-24.16448316 9.34443179-40.88615364 16.3599097-50.16501147 21.04643392-2.57754124-3.50602907-7.79525215-4.12660938-15.65313293-1.86174097z" fill="#FFF"/>
      <path d="M70.6037486 90.9882912L90.0984809 80.263538V223.16936c-.2155281 4.162048-2.2149878 6.243072-5.9983792 6.243072-1.7466422 0-6.337783-.715245-9.7653829-1.402789-2.4873134-.498931-3.7309702-2.421541-3.7309702-5.767831V90.9882912z" fill="#000"/>
      <path fill="#D8D8D8" d="M85.5996967 94.9555383l-5.9983792 5.3485087v122.288526h5.9983792zM166.01598415 31.19383233c.93468552 5.27500421-.9093165 10.10910368-5.09061772 12.73993364-.16442419.10345407-.33241418.19918736-.50379257.28730439l-2.35034065 1.38892037c-56.40658132 28.71847811-88.06193329 45.23909072-94.96605667 49.5618363-3.0823998 1.92992411 1.51343232 4.52121437 1.85232407 4.57854126l1.68262113-.31354163 99.01928796-45.42854124 2.35034074-1.38892033c.1713783-.08811708.33936877-.18385125.50379304-.28730527 5.82077083-3.66236643 5.11201953-9.59451645.68297321-17.04196672-.92172322-1.54988003-1.9993497-2.92433985-3.18053254-4.09626077z"/>
    </g>
    <path d="M259.16791832 267.21238199c-15.63339396-16.55402085-73.0829252-.58061903-56.3147603-14.78366786 16.76816618-14.20304945 50.2803151-5.81665527 71.01483718-.3734591 20.73452197 5.44319612 30.95492123 20.26648452 28.13764639 26.402823-2.81727484 6.1363385-27.20432871 5.30832396-42.83772327-11.24569604z" fill="#F9F9F9"/>
    <path d="M190.54647155 199.43466247c-9.6775218 3.49048385-14.90605176 5.78199203-19.99551534 9.24453658-6.90342808 4.696649-11.3954427 10.63667551-13.22617216 18.38568949-2.3318969 9.87143541.3200448 22.32949472-1.35494274 38.32458874-.1555923 1.48580177-.06404876 20.98650726 44.58492664 23.94646565 13.22544633.87676726 25.51751243 3.74194588 39.1926388 4.1944307 42.8714972 1.41854097 69.34898004-3.13439592 86.07669207-21.31224203l.76120546-.827194.17954446-1.08468786c.16845487-1.01769223.35342025-2.03299592.55484605-3.0455497.04491214-.22615098.48769428-2.41134909.65042156-3.23322285.31700444-1.60107002.60038774-3.1042218.87511917-4.66847194 1.49673491-8.52202327 2.34386976-16.62864245 2.24639463-24.39357996-.08393093-6.68599347-.88715876-12.69714167-2.5503019-17.90747177-3.01120966-9.4335831-13.4488524-17.96268171-22.24690112-19.81141298-1.76320378-.37090038-9.40081823-1.712704-17.23207438-4.35930279-8.57866744-2.89918987-17.3399811-7.11906993-17.6656085-7.42655266-1.24391763-3.10201897-.85459284-4.76456162 1.7525475-7.26002563.248578-.23603093 1.50156017-1.40754025 1.86376333-1.75233775 5.30720599-5.05216765 10.87698496-9.04326632 9.72524188-14.88429852.2426797-1.94366409.84940803-3.74928095 2.37064915-7.51284338 2.32445388-5.75071686 3.23489445-8.891575 3.0108615-12.66916818 5.78098175-7.9880954 5.58464495-22.85191688-1.0484237-30.32377353-9.73575265-16.74259732-46.25442581-24.1464978-59.96212223-11.73881557-12.00559188 10.40164192-18.32811498 29.7965407-16.47614565 45.136364.2937072 2.75984772 1.19323535 4.64169552 3.33186547 7.9978352.22922742.35937843.33624794.52742265.44802593.70429935 1.81135506 2.86627605 2.15777384 4.08278075 1.5143318 5.79785674l-.42191405 1.12460213.33097275 1.15161337c.11630023.40466594.200375.78576373.38233578 1.69813015.5227477 2.6211 4.07871574 4.01449203 5.0746907 5.49811336 1.00563107 1.49800564 2.4151598 2.5853428 4.18815978 3.22552658.12426802 2.07197523-.14600607 4.38126217-.82672352 8.4366315-.06986703.41623143-.10026558.59781306-.13861754.82876716-.17861307 1.07561312-.31646402 1.95989158-.42596038 2.76546032-11.41476235 6.09820906-23.2939504 11.36242215-35.5438112 15.75004008z" fill="#000" fill-rule="nonzero"/>
    <path d="M224.23523189 139.25237556c1.8195158-2.35214801 4.25261975-3.7333537 6.82522061-3.56230337 4.96438488.33007854 8.56831726 6.31545302 8.0496055 13.368708-.3268618 4.44455638-2.21274378 8.25257675-4.8052198 10.37884375.59924617 3.05209745 2.46870999-.37748954 4.45492095 2.41058634 1.63495464 2.3192318 2.1470108 5.99353144 3.62129034 8.42832091 2.96494437 4.89950912 9.97137646 1.77862931 15.45915695 1.02786841 7.50875303-1.02724207 11.86739469.63411017 16.68810806-4.80802493 1.13057922-1.07516734 3.68972682-5.95525557 5.748344-12.43098986 1.80475442-5.67716539 1.92994986-7.77710053 3.0055698-11.8230501.54995796-2.06866965.08564404-6.57427609.3033299-6.699202 2.20704779-1.45067871 3.46223327-3.9188756 3.30236795-6.49377647.05345782-.98536668-1.32835669-5.71413232-2.09658845-7.00167605-2.33314246-4.36542224-5.29290084-9.25522987-8.9625549-12.88903637-.70781664-.79647477-1.57854835-1.44225934-2.55742504-1.8967333-.88735341-.3539333-1.85956438-.43990935-2.74538386-.81478828-1.27431937-.79112677-2.45360645-1.71700206-3.51615782-2.76058622-1.10703029-1.06891706-2.82844371-1.26222036-4.16247831-.46741872-.56833129-1.44297059-3.11545107-.47406377-4.5323398-1.18366288-1.60973929-.23669863-3.24499248-.26806783-4.86395918-.09330583-1.73110205-.1156097-3.30097675-2.13582276-5.03077008.10603431-.28142142.52979439-.6627983 1.00406398-1.12439829 1.39827036-.55970388.24842819-1.17165217.36617656-1.78648755.34374808-3.59170947.34947652-6.14909423 4.09361792-9.74710334 4.23219345-.80419054-.07757597-1.6163661-.02511999-2.4032739.1552205-3.54794167 1.23641675-5.58364327 6.46771226-6.8462604 9.45640213-1.9379543 4.74974619-3.08499307 14.40646479-2.27751334 21.61835814zM266.6295901 195.20558384c1.71167981 4.36114728 32.3720579 18.75347112 32.22682147 21.12247471-.11808932 1.92619763-24.556201-3.67732276-31.57927764-3.39271153-1.6145037.0654283-8.97012969 1.34907767 3.60828093 11.6235313 12.57841045 10.27445461 27.42669976 10.58404707 31.8776928 16.03875604 4.4509932 5.45470799 9.08605318 6.72767932 13.94931 16.22582598.23468248-10.55504895 5.01235814-24.46413197.78919767-35.49485203-1.74168469-4.54920743-5.69411646-12.10548183-29.76634314-17.689555-10.57190755-2.45238288-21.10568209-8.43346947-21.10568209-8.43346947z" fill="#FFF" fill-rule="nonzero"/>
    <path d="M192.901382 279.60036646c12.808913 3.82896176 25.468847 5.62141143 35.8770672 6.49822905-.07230675-.04378652-.14454834-.08760157-.21672087-.13144387-14.64380093-8.89268906-27.8209587-18.11537612-37.47668198-28.83929225-8.73388301-9.59180203-16.7381092-20.30648806-19.14552647-31.70854183-.0136905.0472521 10.00366365 37.17274725 20.96186212 54.1810489z" fill="#D8D8D8"/>
    <path d="M241.67617082 286.5969407c11.750324.38755123 21.82500503-.2062821 30.49321098-1.5244857-9.15713315-5.28600074-18.04934568-10.68485948-27.09472376-16.00602024-27.68098109-16.13354614-58.08977948-32.6944021-57.830021-56.84878713-6.47914543 1.85371422-7.06989595 5.72388509-6.18227194 8.37227295 4.13852915 12.39572556 9.82025108 24.459831 19.32610572 35.39957758 1.82868991 2.09147167 3.78587968 4.14191711 5.87156825 6.15133724 2.22567171 2.09361094 4.61089058 4.14448021 6.99081636 6.17351908 8.1229825 6.54277148 17.43452333 12.64261565 27.87468168 18.2639656.18531314.00642344.36886663.0126256.55063371.01862063z" fill="#D8D8D8"/>
    <path d="M293.76353436 273.41471082c-.90942499-3.34229795-7.7823446-16.44608074-21.2957801-29.4476044-13.23996655-12.73841552-33.13274536-25.40507497-33.3519563-26.16501954-3.02011178-7.31123615-9.996959-13.61254408-13.04125563-20.79261076-4.61779154-.32205136-9.28538898 1.2306849-15.37945479 4.14770406-.80492728.38529066-4.88580994 2.76908147-5.61298162 3.1214118.59426208 3.06137197 1.69906173 6.00870546 3.30594053 8.81943345 8.85543254 12.6256933 50.38305692 39.5127294 62.60267352 50.97007128.9056843.8509031-16.42353546-8.3046807-18.70877858-8.73726596-.66246639-.16418326-1.17200082-.41848606-1.4903741-.74383017-16.1423883-12.84364456-45.51999635-30.99104005-53.81725066-46.39008956-3.63335843 1.0477129-3.77021622 3.34207213-3.04168001 4.84566693 1.5564378 3.32035984 3.33525264 6.59102787 5.3364435 9.81200403 10.50674466 17.06722235 46.16689719 43.45113072 76.60771772 60.73455557 5.27652314-9.27522935 20.12997465-1.85639604 17.88673652-10.17442673z" fill="#D8D8D8"/>
  </g>
</svg>
