<svg width="17" height="16" viewBox="0 0 17 16" fill="none" xmlns="http://www.w3.org/2000/svg">
<g id="Discord">
<path id="Vector" d="M13.1371 3.79509C12.2679 3.39752 11.3447 3.10777 10.3812 2.94604C10.2599 3.15494 10.1251 3.43795 10.0308 3.66033C9.00596 3.51208 7.98851 3.51208 6.97779 3.66033C6.88345 3.43795 6.74195 3.15494 6.62739 2.94604C5.65713 3.10777 4.73402 3.39752 3.87087 3.79509C2.12572 6.36919 1.65405 8.88264 1.88988 11.3624C3.04883 12.2047 4.16736 12.7169 5.26634 13.0538C5.53586 12.6899 5.77843 12.299 5.98731 11.888C5.58977 11.7398 5.21243 11.5578 4.84858 11.3422C4.94291 11.2748 5.03725 11.2007 5.12484 11.1266C7.32145 12.1306 9.70067 12.1306 11.8703 11.1266C11.9646 11.2007 12.0522 11.2748 12.1466 11.3422C11.7827 11.5578 11.4054 11.7398 11.0078 11.888C11.2167 12.299 11.4593 12.6899 11.7288 13.0538C12.8271 12.7169 13.9524 12.2047 15.1052 11.3624C15.395 8.49183 14.6464 5.9986 13.1371 3.79509ZM6.29052 9.83277C5.63018 9.83277 5.09114 9.23306 5.09114 8.49857C5.09114 7.76408 5.61671 7.16433 6.29052 7.16433C6.95758 7.16433 7.50334 7.76408 7.48987 8.49857C7.48987 9.23306 6.95758 9.83277 6.29052 9.83277ZM10.7181 9.83277C10.0578 9.83277 9.51803 9.23306 9.51803 8.49857C9.51803 7.76408 10.0443 7.16433 10.7181 7.16433C11.3852 7.16433 11.9309 7.76408 11.9175 8.49857C11.9175 9.23306 11.3919 9.83277 10.7181 9.83277Z" fill="#5865F2"/>
</g>
</svg>
