<svg xmlns="http://www.w3.org/2000/svg" xmlns:xlink="http://www.w3.org/1999/xlink" width="482" height="438" viewBox="0 0 482 438">
  <defs>
    <path id="door-a" d="M131.046667,54.7568357 C131.044246,49.1338804 130.981298,49.0705551 125.433809,49.0689314 C98.6704427,49.0575653 71.9070768,49.0575653 45.1445179,49.0673077 C39.8924,49.0689314 39.66724,49.2800155 39.666433,54.5360092 C39.6567487,118.124278 39.6567487,181.711736 39.6680471,245.300005 C39.6688541,251.094263 39.7979781,251.211171 45.5439952,251.213607 C72.1725879,251.224973 98.8011807,251.224973 125.429773,251.216042 C130.96435,251.213607 131.041017,251.143786 131.042631,245.521643 C131.05393,213.727508 131.048281,181.933374 131.050702,150.139239 C131.050702,118.345105 131.055544,86.5509702 131.046667,54.7568357 Z M7.40642069,149.770654 C7.27487563,152.658447 8.4644303,154.440484 11.5448442,154.528976 C13.5979155,156.038228 15.6396885,156.574057 17.4772841,154.248884 C19.4238281,151.788131 19.2745285,145.333017 17.1964394,143.260334 C15.0110161,141.080485 12.9046812,141.787616 10.9137508,143.645156 C6.94883758,144.064889 7.52666739,147.138598 7.40642069,149.770654 Z M97.3187773,261.692308 C153.827371,298.276813 175.399423,315.307582 162.034934,312.784615 C77.8504412,296.892152 32.6225101,278.771011 13.2985093,278.862374 C8.99787374,278.883483 4.30744517,277.018636 0.335268734,280.384615 C0.305408814,269.430163 0.251338147,258.475711 0.250531122,247.521259 C0.243865823,167.176973 0.243865823,86.8318744 0.243865823,6.4875882 L0.243865823,0 C2.05100362,0.126650452 2.44967391,1.45566833 3.14775042,2.33247915 C12.0290592,13.4882731 20.9531402,24.6115926 29.6633597,35.9013437 C31.7027116,38.5463897 33.8824857,39.4743478 37.1420592,39.4637936 C69.6796881,39.361499 102.217317,39.402904 134.755753,39.4069633 C140.404927,39.4077752 140.423489,39.4167056 140.424296,45.2604874 C140.428331,112.485086 140.429138,179.708872 140.414611,246.933471 C140.414611,248.551511 140.237066,250.16874 140.142644,251.785969 C139.440532,251.605736 125.16591,254.907849 97.3187773,261.692308 Z"/>
  </defs>
  <g fill="none" fill-rule="evenodd">
    <g transform="matrix(1 0 0 -1 0 438)">
      <path fill="#261EE4" d="M428.43968,277.230431 L423.580696,277.230431 L423.580696,282.08938 L428.43968,282.08938 L428.43968,286.960404 L423.580696,286.960404 L423.580696,291.831428 L428.43968,291.831428 L428.43968,296.690377 L433.310749,296.690377 L433.310749,301.561401 L428.43968,301.561401 L428.43968,296.702452 L423.580696,296.702452 L423.580696,301.561401 L428.43968,301.561401 L428.43968,306.435152 L423.56861,306.435152 L423.56861,301.564128 L418.709626,301.564128 L418.709626,296.705178 L413.838557,296.705178 L413.838557,301.564128 L408.967488,301.564128 L408.967488,296.705178 L404.108504,296.705178 L404.108504,301.564128 L408.967488,301.564128 L408.967488,306.435152 L404.096029,306.435152 L404.096029,301.564128 L399.237434,301.564128 L399.237434,306.435152 L394.363636,306.435152 L394.363636,301.564128 L399.234706,301.564128 L399.234706,296.705178 L394.363636,296.705178 L394.363636,291.833765 L399.234706,291.833765 L399.234706,286.962741 L394.363636,286.962741 L394.363636,282.091717 L399.234706,282.091717 L399.234706,277.232768 L399.234706,277.220693 L404.09369,277.220693 L404.09369,272.361744 L408.964759,272.361744 L408.964759,277.220693 L413.835828,277.220693 L413.835828,272.361744 L418.707287,272.361744 L418.707287,277.220693 L423.566271,277.220693 L423.566271,272.361744 L428.437341,272.361744 L428.437341,277.220693 L433.30841,277.220693 L433.30841,282.091717 L428.437341,282.091717 L428.437341,277.230431 L428.43968,277.230431 Z M399.234706,277.218356 L399.234706,272.359017 L394.363636,272.359017 L394.363636,277.230431 L399.234706,277.230431 L399.234706,277.218356 Z M413.835828,301.564128 L413.835828,306.435152 L418.707287,306.435152 L418.707287,301.564128 L413.835828,301.564128 Z M428.43968,291.833765 L428.43968,286.962741 L433.310749,286.962741 L433.310749,291.833765 L428.43968,291.833765 Z M404.09369,296.693104 L399.234706,296.693104 L399.234706,291.833765 L404.09369,291.833765 L404.09369,296.693104 Z M404.105775,272.359017 L404.105775,267.487994 L408.964759,267.487994 L408.964759,272.359017 L413.835828,272.359017 L413.835828,267.487994 L418.707287,267.487994 L418.707287,272.359017 L423.578357,272.359017 L423.578357,267.487994 L428.437341,267.487994 L428.437341,272.359017 L433.30841,272.359017 L433.30841,267.487994 L428.437341,267.487994 L428.437341,262.61697 L423.566271,262.61697 L423.566271,267.487994 L418.707287,267.487994 L418.707287,262.61697 L413.835828,262.61697 L413.835828,267.487994 L408.964759,267.487994 L408.964759,262.61697 L404.09369,262.61697 L404.09369,267.487994 L399.234706,267.487994 L399.234706,262.61697 L394.363636,262.61697 L394.363636,267.487994 L399.234706,267.487994 L399.234706,272.359017 L404.105775,272.359017 Z M423.566271,282.08938 L423.566271,286.960404 L418.707287,286.960404 L418.707287,282.08938 L423.566271,282.08938 Z M413.835828,282.08938 L413.835828,277.230431 L418.707287,277.230431 L418.707287,282.08938 L413.835828,282.08938 Z M408.964759,282.08938 L413.835828,282.08938 L413.835828,286.960404 L408.964759,286.960404 L408.964759,282.08938 Z M408.964759,282.08938 L404.105775,282.08938 L404.105775,277.230431 L408.964759,277.230431 L408.964759,282.08938 Z M408.964759,291.833765 L404.105775,291.833765 L404.105775,286.962741 L408.964759,286.962741 L408.964759,291.833765 Z M413.835828,291.833765 L413.835828,296.693104 L408.964759,296.693104 L408.964759,291.833765 L413.835828,291.833765 Z M418.709626,291.833765 L413.838557,291.833765 L413.838557,286.962741 L418.709626,286.962741 L418.709626,291.833765 Z M418.709626,291.833765 L423.56861,291.833765 L423.56861,296.693104 L418.709626,296.693104 L418.709626,291.833765 Z M404.09369,286.962741 L404.09369,282.091717 L399.234706,282.091717 L399.234706,286.962741 L404.09369,286.962741 Z M438.181818,301.564128 L433.310749,301.564128 L433.310749,306.435152 L438.181818,306.435152 L438.181818,301.564128 Z M433.310749,291.833765 L438.181818,291.833765 L438.181818,296.705178 L433.310749,296.705178 L433.310749,291.833765 Z M438.181818,282.08938 L433.310749,282.08938 L433.310749,286.960404 L438.181818,286.960404 L438.181818,282.08938 Z M433.310749,272.359017 L438.181818,272.359017 L438.181818,277.230431 L433.310749,277.230431 L433.310749,272.359017 Z M433.310749,262.61697 L438.181818,262.61697 L438.181818,267.487994 L433.310749,267.487994 L433.310749,262.61697 Z"/>
      <path fill="#FFF" d="M121.712407,14.613461 L116.853423,14.613461 L116.853423,19.4724105 L121.712407,19.4724105 L121.712407,24.3434343 L116.853423,24.3434343 L116.853423,29.2144582 L121.712407,29.2144582 L121.712407,34.0734077 L126.583476,34.0734077 L126.583476,38.9444315 L121.712407,38.9444315 L121.712407,34.085482 L116.853423,34.085482 L116.853423,38.9444315 L121.712407,38.9444315 L121.712407,43.8181818 L116.841338,43.8181818 L116.841338,38.947158 L111.982354,38.947158 L111.982354,34.0882085 L107.111284,34.0882085 L107.111284,38.947158 L102.240215,38.947158 L102.240215,34.0882085 L97.381231,34.0882085 L97.381231,38.947158 L102.240215,38.947158 L102.240215,43.8181818 L97.3687561,43.8181818 L97.3687561,38.947158 L92.5101618,38.947158 L92.5101618,43.8181818 L87.6363636,43.8181818 L87.6363636,38.947158 L92.5074329,38.947158 L92.5074329,34.0882085 L87.6363636,34.0882085 L87.6363636,29.2167952 L92.5074329,29.2167952 L92.5074329,24.3457713 L87.6363636,24.3457713 L87.6363636,19.4747475 L92.5074329,19.4747475 L92.5074329,14.615798 L92.5074329,14.6037236 L97.366417,14.6037236 L97.366417,9.74477414 L102.237486,9.74477414 L102.237486,14.6037236 L107.108555,14.6037236 L107.108555,9.74477414 L111.980015,9.74477414 L111.980015,14.6037236 L116.838999,14.6037236 L116.838999,9.74477414 L121.710068,9.74477414 L121.710068,14.6037236 L126.581137,14.6037236 L126.581137,19.4747475 L121.710068,19.4747475 L121.710068,14.613461 L121.712407,14.613461 Z M92.5074329,14.6013867 L92.5074329,9.74204768 L87.6363636,9.74204768 L87.6363636,14.613461 L92.5074329,14.613461 L92.5074329,14.6013867 Z M107.108555,38.947158 L107.108555,43.8181818 L111.980015,43.8181818 L111.980015,38.947158 L107.108555,38.947158 Z M121.712407,29.2167952 L121.712407,24.3457713 L126.583476,24.3457713 L126.583476,29.2167952 L121.712407,29.2167952 Z M97.366417,34.0761341 L92.5074329,34.0761341 L92.5074329,29.2167952 L97.366417,29.2167952 L97.366417,34.0761341 Z M97.3785021,9.74204768 L97.3785021,4.87102384 L102.237486,4.87102384 L102.237486,9.74204768 L107.108555,9.74204768 L107.108555,4.87102384 L111.980015,4.87102384 L111.980015,9.74204768 L116.851084,9.74204768 L116.851084,4.87102384 L121.710068,4.87102384 L121.710068,9.74204768 L126.581137,9.74204768 L126.581137,4.87102384 L121.710068,4.87102384 L121.710068,0 L116.838999,0 L116.838999,4.87102384 L111.980015,4.87102384 L111.980015,0 L107.108555,0 L107.108555,4.87102384 L102.237486,4.87102384 L102.237486,0 L97.366417,0 L97.366417,4.87102384 L92.5074329,4.87102384 L92.5074329,0 L87.6363636,0 L87.6363636,4.87102384 L92.5074329,4.87102384 L92.5074329,9.74204768 L97.3785021,9.74204768 Z M116.838999,19.4724105 L116.838999,24.3434343 L111.980015,24.3434343 L111.980015,19.4724105 L116.838999,19.4724105 Z M107.108555,19.4724105 L107.108555,14.613461 L111.980015,14.613461 L111.980015,19.4724105 L107.108555,19.4724105 Z M102.237486,19.4724105 L107.108555,19.4724105 L107.108555,24.3434343 L102.237486,24.3434343 L102.237486,19.4724105 Z M102.237486,19.4724105 L97.3785021,19.4724105 L97.3785021,14.613461 L102.237486,14.613461 L102.237486,19.4724105 Z M102.237486,29.2167952 L97.3785021,29.2167952 L97.3785021,24.3457713 L102.237486,24.3457713 L102.237486,29.2167952 Z M107.108555,29.2167952 L107.108555,34.0761341 L102.237486,34.0761341 L102.237486,29.2167952 L107.108555,29.2167952 Z M111.982354,29.2167952 L107.111284,29.2167952 L107.111284,24.3457713 L111.982354,24.3457713 L111.982354,29.2167952 Z M111.982354,29.2167952 L116.841338,29.2167952 L116.841338,34.0761341 L111.982354,34.0761341 L111.982354,29.2167952 Z M97.366417,24.3457713 L97.366417,19.4747475 L92.5074329,19.4747475 L92.5074329,24.3457713 L97.366417,24.3457713 Z M131.454545,38.947158 L126.583476,38.947158 L126.583476,43.8181818 L131.454545,43.8181818 L131.454545,38.947158 Z M126.583476,29.2167952 L131.454545,29.2167952 L131.454545,34.0882085 L126.583476,34.0882085 L126.583476,29.2167952 Z M131.454545,19.4724105 L126.583476,19.4724105 L126.583476,24.3434343 L131.454545,24.3434343 L131.454545,19.4724105 Z M126.583476,9.74204768 L131.454545,9.74204768 L131.454545,14.613461 L126.583476,14.613461 L126.583476,9.74204768 Z M126.583476,0 L131.454545,0 L131.454545,4.87102384 L126.583476,4.87102384 L126.583476,0 Z"/>
      <path fill="#261EE4" d="M258.038022,262.61697 L262.909091,262.61697 L262.909091,218.798788 L258.038022,218.798788 L258.038022,262.61697 Z M253.171631,262.61697 L248.3029,262.61697 L248.3029,218.798788 L253.171631,218.798788 L253.171631,262.61697 Z M243.43456,262.61697 L238.56583,262.61697 L238.56583,218.798788 L243.43456,218.798788 L243.43456,262.61697 Z M228.828369,262.61697 L233.6971,262.61697 L233.6971,218.798788 L228.828369,218.798788 L228.828369,262.61697 Z M223.959639,262.61697 L219.090909,262.61697 L219.090909,218.798788 L223.959639,218.798788 L223.959639,262.61697 Z"/>
      <path fill="#FFF" d="M263.639394,354.686175 L263.639394,349.815152 L219.821212,349.815152 L219.821212,354.686175 L263.639394,354.686175 Z M263.639394,359.552525 L263.639394,364.421212 L219.821212,364.421212 L219.821212,359.552525 L263.639394,359.552525 Z M263.639394,369.289899 L263.639394,374.158586 L219.821212,374.158586 L219.821212,369.289899 L263.639394,369.289899 Z M263.639394,383.89596 L263.639394,379.027273 L219.821212,379.027273 L219.821212,383.89596 L263.639394,383.89596 Z M263.639394,388.764646 L263.639394,393.633333 L219.821212,393.633333 L219.821212,388.764646 L263.639394,388.764646 Z"/>
      <path fill="#261EE4" d="M219.090909 92.2152663L219.090909 87.3442424 175.272727 87.3442424 175.272727 92.2152663 219.090909 92.2152663zM219.090909 97.0816162L219.090909 101.950303 175.272727 101.950303 175.272727 97.0816162 219.090909 97.0816162zM219.090909 106.81899L219.090909 111.687677 175.272727 111.687677 175.272727 106.81899 219.090909 106.81899zM219.090909 121.425051L219.090909 116.556364 175.272727 116.556364 175.272727 121.425051 219.090909 121.425051zM219.090909 126.293737L219.090909 131.162424 175.272727 131.162424 175.272727 126.293737 219.090909 126.293737zM394.363636 223.669812L394.363636 218.798788 350.545455 218.798788 350.545455 223.669812 394.363636 223.669812zM394.363636 228.536162L394.363636 233.404848 350.545455 233.404848 350.545455 228.536162 394.363636 228.536162zM394.363636 238.273535L394.363636 243.142222 350.545455 243.142222 350.545455 238.273535 394.363636 238.273535zM394.363636 252.879596L394.363636 248.010909 350.545455 248.010909 350.545455 252.879596 394.363636 252.879596zM394.363636 257.748283L394.363636 262.61697 350.545455 262.61697 350.545455 257.748283 394.363636 257.748283z"/>
      <path fill="#261EE4" d="M443.050548,174.980606 L438.181818,174.980606 C438.181818,150.780895 457.800201,131.162424 482,131.162424 L482,136.031111 C460.487768,136.031111 443.050548,153.468411 443.050548,174.980606 Z M452.788009,174.980606 L447.919279,174.980606 C447.919279,156.158263 463.177674,140.899798 482,140.899798 L482,145.768485 C465.86758,145.768485 452.788009,158.848115 452.788009,174.980606 Z M457.656739,174.980606 L462.525469,174.980606 C462.525469,164.225482 471.245053,155.505859 482,155.505859 L482,150.637172 C468.555147,150.637172 457.656739,161.53563 457.656739,174.980606 Z M472.26254,174.980606 L467.394199,174.980606 C467.394199,166.912997 473.932621,160.374545 482,160.374545 L482,165.243232 C476.622527,165.243232 472.26254,169.603239 472.26254,174.980606 Z M482,174.980606 L477.13127,174.980606 C477.13127,172.290754 479.310094,170.111919 482,170.111919 L482,174.980606 Z" transform="rotate(90 460.09 153.072)"/>
      <path fill="#261EE4" fill-rule="nonzero" d="M43.8181818,262.61697 L87.6363636,262.61697 L87.6363636,218.798788 C63.4365642,218.798788 43.8181818,238.417259 43.8181818,262.61697 Z"/>
      <path fill="#261EE4" fill-rule="nonzero" d="M307.165455,437.889697 L350.983636,437.889697 L350.983636,394.071515 C326.783837,394.071515 307.165455,413.689986 307.165455,437.889697 Z" transform="rotate(-180 329.075 415.98)"/>
      <path fill="#261EE4" d="M4.87106923 350.253333L0 350.253333 0 306.435152 4.87106923 306.435152 4.87106923 350.253333zM19.4795988 350.253333L24.3506681 350.253333 24.3506681 306.435152 19.4795988 306.435152 19.4795988 350.253333zM34.0881284 350.253333L29.2170592 350.253333 29.2170592 306.435152 34.0881284 306.435152 34.0881284 350.253333zM43.8181818 350.253333L38.9471126 350.253333 38.9471126 306.435152 43.8181818 306.435152 43.8181818 350.253333zM9.74213847 350.253333L14.6132077 350.253333 14.6132077 306.435152 9.74213847 306.435152 9.74213847 350.253333zM355.854706 87.3442424L350.983636 87.3442424 350.983636 43.5260606 355.854706 43.5260606 355.854706 87.3442424zM370.463235 87.3442424L375.334304 87.3442424 375.334304 43.5260606 370.463235 43.5260606 370.463235 87.3442424zM385.071765 87.3442424L380.200696 87.3442424 380.200696 43.5260606 385.071765 43.5260606 385.071765 87.3442424zM394.801818 87.3442424L389.930749 87.3442424 389.930749 43.5260606 394.801818 43.5260606 394.801818 87.3442424zM360.725775 87.3442424L365.596844 87.3442424 365.596844 43.5260606 360.725775 43.5260606 360.725775 87.3442424z"/>
    </g>
    <g transform="translate(59 62)">
      <g transform="translate(40)">
        <rect width="7" height="282" x="41" fill="#FFF"/>
        <g transform="translate(50.782)">
          <mask id="door-b" fill="#fff">
            <use xlink:href="#door-a"/>
          </mask>
          <use fill="#B7CEFF" xlink:href="#door-a"/>
          <g mask="url(#door-b)">
            <g transform="rotate(90 59.3 -17.916)">
              <path fill="#B7CEFF" d="M89.5588653,18.0776349 C108.212898,18.1274119 127.080446,17.8548015 146.126734,17.2756207 C161.485688,16.8057632 176.858399,15.9502504 192.04432,15.3529266 C211.595014,14.5788248 230.846477,12.9710747 249.600286,10.5473543 C261.184541,9.01822402 272.929668,8.03757093 283.080413,4.88115195 C287.712241,3.40272904 291.44311,1.25208424 296.697676,0.408666762 L360.767363,0.408666762 C360.207941,0.559858534 359.710937,0.848285912 359.076731,0.841773036 C348.201537,0.730588934 337.830508,1.54888532 327.315351,2.27041897 C312.297176,3.29107973 297.289075,4.68343964 282.540706,7.13507236 C269.128085,9.30851222 255.595328,11.9122671 241.401731,13.777741 C211.909828,17.5403226 181.679782,18.6661198 151.293367,19.4402217 C137.345798,19.7937778 123.564812,19.8188989 109.712425,19.9407828 C102.347022,20.0049811 95.0753105,19.9575302 87.7612075,19.9607866"/>
              <path fill="#4038FF" d="M109.997201,19.9407828 C123.880501,19.8188989 137.692329,19.7937778 151.670808,19.4402217 C182.12456,18.6661198 212.421267,17.5403226 241.975729,13.777741 C256.199381,11.9122671 269.760029,9.30851222 283.200671,7.13507236 C297.979795,4.68343964 313.020216,3.29107973 328.071079,2.27041897 C338.609116,1.54888532 349.002613,0.730588934 359.902268,0.841773036 C360.5379,0.848285912 361.03575,0.559858534 361.596284,0.408666762 L378.951199,0.408666762 C379.157742,0.724541263 379.364748,1.04088097 379.570505,1.35629026 C373.192018,1.34652095 366.972525,1.62331819 360.657894,1.70752038 C345.202391,1.91360639 330.185041,2.95008413 315.039146,4.14612734 C300.657289,5.26727248 286.141812,6.79175074 272.732422,10.1654207 C246.212009,16.4968668 217.102802,18.6879845 187.321267,20.321786 C171.142346,21.1982331 154.696641,22.3510122 138.530707,22.389159 C120.867979,22.4310275 102.058686,23.8033836 85.2863055,22.7320155 C86.1904711,21.8081174 87.094008,20.8846846 87.9968373,19.9607866"/>
              <path fill="#B7CEFF" d="M103.909293,3.18864149 C115.362326,4.93455754 128.532261,5.15041287 142.023955,5.11226602 C152.331398,5.08342328 162.730566,4.88896741 172.976882,4.96712192 C183.936154,5.0503937 195.207891,4.65589948 206.428853,3.54638448 C212.243031,2.96627328 218.307839,2.44896482 223.568232,0.408573721 L238.325301,0.408573721 C234.453727,2.24101799 229.855854,3.22585792 225.037923,4.11533074 C205.400349,7.65693983 185.476391,8.35893485 165.617101,8.7129562 C143.00832,9.11489371 121.20254,8.42685485 99.4707974,7.85837379"/>
              <path fill="#B7CEFF" d="M92.3160208,14.35855 C102.206419,14.2264316 111.882048,14.3129598 121.920255,14.005459 C138.160322,13.5062936 154.241923,13.1466898 170.358792,12.5926301 C190.692581,11.8892394 210.832521,11.1276981 230.768459,8.75468513 C240.837037,7.53305562 251.069321,6.79570498 260.319088,4.55574074 C264.716189,3.47134684 269.597035,2.56652224 272.743496,0.408899365 L282.278821,0.408899365 C281.521111,0.850844542 280.776529,1.30116342 279.99233,1.73333928 C271.487082,6.29002666 259.853105,7.72937232 248.224028,9.20081716 C231.414217,11.2872636 214.19174,12.8303501 196.713277,13.4946635 C181.866251,14.055236 166.681014,15.2196453 151.668862,15.6760118 C136.347757,16.1398216 121.304203,16.0774841 106.122121,16.217511 C100.886539,16.2658923 95.7232388,16.2310019 90.5265684,16.2337931"/>
              <path fill="#4038FF" d="M105.775424,16.217511 C121.006557,16.0774841 136.098841,16.1398216 151.469242,15.6760118 C166.529695,15.2196453 181.763346,14.055236 196.658073,13.4946635 C214.192688,12.8303501 231.469934,11.2872636 248.332836,9.20081716 C259.998623,7.72937232 271.669346,6.29002666 280.199246,1.73333928 C280.98571,1.30116342 281.732418,0.850844542 282.492301,0.408899365 L296.406756,0.408899365 C291.129914,1.25231685 287.382981,3.40296164 282.730924,4.88138456 C272.534923,8.03780353 260.738781,9.01799141 249.10253,10.5471217 C230.266942,12.9708421 210.930375,14.5785922 191.29285,15.3531592 C176.03889,15.9500178 160.598115,16.8055306 145.171069,17.2753881 C126.04034,17.8545689 107.090032,18.1271793 88.3531536,18.0774023 C88.9431545,17.4628659 89.5365155,16.8483295 90.1294045,16.2337931"/>
              <path fill="#B7CEFF" d="M96.1570604,10.1678862 C108.600721,10.3246605 121.135832,10.4032802 133.525258,10.6693777 C140.685194,10.8228955 148.279281,10.1762599 155.48935,10.178586 C171.126542,10.1837032 186.938311,9.67058162 202.773129,8.81367318 C212.904545,8.26147431 222.868557,7.1254426 232.426589,5.29439396 C237.132656,4.37933484 242.030617,3.06094259 244.539376,0.408806324 L260.302047,0.408806324 C258.406242,2.34126976 254.958296,3.26098094 251.356454,4.01042691 C244.711046,5.37720053 237.929688,6.64162894 230.818587,7.45434286 C216.995385,9.01371152 202.931743,10.3227997 188.79555,11.0452637 C174.36373,11.7765667 159.963092,12.1245404 145.533511,12.4706532 C128.016116,12.8884077 110.557941,13.1284537 92.988444,13.4452586"/>
              <path fill="#4038FF" d="M224.197344,0.408713283 C218.91831,2.44863918 212.829166,2.96641284 206.992797,3.54652404 C195.726396,4.65603904 184.409805,5.05053326 173.405663,4.96679628 C163.116003,4.88910697 152.674392,5.08356285 142.32555,5.11240558 C128.7776,5.15055243 115.553683,4.9342319 104.050786,3.18878105 C104.876905,2.26209179 105.70249,1.33540254 106.527539,0.408713283 L115.243821,0.408713283 C122.211722,2.12346057 130.519655,2.92221833 139.374105,3.11713941 C150.060598,3.35113775 160.864238,3.58374048 172.208695,2.7152019 C180.575969,2.06996194 188.830578,1.8871362 197.17687,0.408713283 L224.197344,0.408713283 Z"/>
              <path fill="#4038FF" d="M244.604358,0.408713283 C242.109125,3.06131476 237.241773,4.37924179 232.566294,5.29430091 C223.068608,7.12534956 213.167386,8.26138127 203.101176,8.81404535 C187.368733,9.67048858 171.659363,10.1836102 156.123966,10.1784929 C148.961753,10.1761669 141.415516,10.8228025 134.302346,10.6692847 C121.993842,10.4031872 109.539997,10.3250326 97.1779126,10.1677932 C97.9042756,9.39787818 98.6295309,8.62842837 99.3536594,7.85851335 C121.135606,8.42652921 142.989561,9.11456807 165.649238,8.71309576 C185.552944,8.35860921 205.520817,7.65707939 225.200253,4.11547031 C230.027672,3.22553228 234.636129,2.24069234 238.514333,0.408713283 L244.604358,0.408713283 Z"/>
              <path fill="#4038FF" d="M146.00558,12.4706532 C160.395066,12.1245404 174.75569,11.7765667 189.147512,11.0452637 C203.244529,10.3227997 217.269358,9.01371152 231.054483,7.45434286 C238.145999,6.64162894 244.908814,5.37720053 251.536085,4.01042691 C255.128098,3.26098094 258.566692,2.34126976 260.457743,0.408806324 L274.429981,0.408806324 C271.266011,2.5664292 266.351442,3.471719 261.924714,4.5556477 C252.611571,6.79561194 242.306421,7.53296258 232.166582,8.75459209 C212.089422,11.1276051 191.80243,11.8891464 171.319998,12.592537 C155.085303,13.1465967 138.885616,13.5062006 122.526289,14.0058312 C112.414969,14.3128668 102.66748,14.2263386 92.7042195,14.3584569 C93.0054523,14.0537474 93.3060959,13.749503 93.6065988,13.4452586"/>
              <path fill="#B7CEFF" d="M195.941478.408713283C187.623299 1.8871362 179.399053 2.06996194 171.061635 2.7152019 159.757672 3.58374048 148.994712 3.35113775 138.348468 3.11713941 129.527368 2.92221833 121.251957 2.12346057 114.313422.408713283L195.941478.408713283zM75.7620578 31.1028293C120.337219 31.5196534 166.187915 30.0463477 210.014664 32.4844895 225.274376 33.319068 240.394411 34.5830313 255.337323 36.5168903 268.733584 38.219077 281.922389 40.5748774 295.955934 42.0970297 309.102631 43.5033457 322.501407 44.3355983 335.973247 44.9836295 347.883588 45.5539714 359.887436 46.2317757 371.921223 46.6113834 380.054403 46.8672464 387.987136 46.5174119 396.433285 47.3064003 399.42075 47.584128 402.983487 47.7469499 405.157316 46.7225675 393.748999 46.6165006 382.30492 46.139665 370.862441 45.6014223 355.916807 44.89431 341.129956 44.0922958 326.437799 42.7762296 307.084858 41.0163574 288.191237 39.3206835 270.420253 35.8953758 257.803705 33.3907097 244.273526 31.969507 230.744317 31.0497959 223.962973 30.5855208 217.309567 29.9584239 209.444064 29.3048102 211.668058 28.8991511 212.584523 28.6730612 213.529872 28.5669944 230.994875 26.5810323 247.778104 24.1261432 263.693939 20.8269061 276.249476 18.1422055 289.278808 16.3511645 302.190423 14.8192429 316.763829 13.0589055 331.377984 11.8140157 346.18574 11.0580569 358.623775 10.4183994 370.792152 9.532183 383.317774 9.24468603 384.94967 10.4905062 385.059357 11.7256267 385.497749 12.9630732 377.080485 11.6646848 370.042321 12.8342113 362.629619 13.1333384 349.368209 13.6659986 336.466997 14.9136796 323.543802 16.5270121 306.22501 18.646023 289.669935 21.9052523 272.807674 25.6064269 269.068802 26.4084411 265.597495 27.5193517 261.960549 28.4958179 260.035274 29.0084743 259.340167 29.562534 261.818025 30.1100809 275.817142 33.1483376 290.802662 35.4269139 306.439471 37.1379396 322.456396 38.8615258 338.803226 40.1682879 355.357205 41.0265919 371.813223 41.8728006 388.420858 42.77716 405.159526 43.6554679 408.08435 48.1493526 411.034335 52.6437024 414.006603 57.1375871 383.872471 57.3018046 353.692157 57.4683481 323.461965 57.626518 319.397838 57.6479174 315.329096 57.6949032 311.25295 57.6181443 293.587593 57.2841268 276.645872 55.6977762 260.434219 53.1442635 248.488957 51.2220346 236.587263 49.4393673 224.734464 47.8395257 203.661354 44.9319917 181.10842 44.7491659 159.001414 44.2030147 143.512607 43.818755 127.951457 43.5805699 112.492267 43.2744647 96.5263895 42.9576598 79.8859803 43.3600625 64.2518008 42.7548302 64.8624594 42.1286636 65.4731706 41.5020319 66.0840823 40.8758654 83.4780229 40.9558807 100.454663 41.5183141 117.806165 41.7132352 143.41244 42.0002669 169.235311 42.0267836 194.75927 42.7548302 206.15202 43.0786132 217.139522 44.0415885 227.83791 45.6479429 241.020908 47.5929669 254.252994 49.8273486 268.476102 51.0638647 298.211036 53.6024909 328.652601 54.5510448 358.976081 54.2700607 369.360214 54.1737631 379.703575 53.9681423 390.111424 53.9179001 395.616427 53.8909182 401.161988 53.9299955 406.660875 53.8969659 407.788166 53.890453 409.588561 54.1537593 409.473492 53.3391846 407.658357 52.7325567 406.048915 53.0107495 404.439261 52.9888849 367.962822 52.5027452 332.109252 54.2519177 295.518541 51.549074 278.654848 50.2804587 261.56661 49.5310128 246.631267 46.1136135 245.303451 45.8042519 243.184563 45.3297423 242.31718 45.5595538 238.989757 46.4369313 236.732136 45.6260782 234.158757 45.184133 231.860745 44.7882432 229.546954 44.4132876 227.224073 44.0555446 204.560334 40.4934665 180.478917 39.6244627 156.430694 39.1271581 142.501431 38.8378003 128.616179 38.4419105 114.38365 38.6317143 105.486892 38.7503417 96.4294602 39.0517948 87.6150931 39.0215564 81.0779809 38.9987614 74.4961873 39.0229521 67.9335972 39.0262085 68.708492 38.2455938 69.482158 37.4654442 70.2544643 36.6848295 88.1515007 37.1560826 107.302401 36.0726191 125.369397 36.4982821 149.052521 37.0542026 173.224154 37.0355944 196.88838 38.0902151 210.656636 38.6987039 224.729235 38.9415411 237.784151 41.1321936 245.157043 42.3482406 252.775034 43.3502932 260.642625 44.158355 276.873005 45.8047171 293.456308 47.0663543 310.35722 48.0228167 327.583201 48.9895136 344.900122 49.6370796 362.342289 50.2502204 370.820059 50.5470215 379.197253 50.5358565 387.799339 50.9945491 394.376794 51.3439184 400.786804 51.0638647 407.272977 51.0638647 391.741186 50.2678982 376.49471 49.7743152 361.314827 49.2570067 347.676183 48.7899405 334.099054 48.4149849 320.577234 47.7874227 301.161035 46.8798069 282.317626 44.9105922 264.6192 41.9746806 236.876183 37.1942294 208.78871 34.6839808 179.566915 34.4416088 144.062193 34.1466685 108.219057 34.3736888 72.5278919 34.3750844M6.995448 99.9566783C16.1991154 100.608896 26.4731328 100.354429 36.3722469 100.432118 62.2529397 100.635413 88.63177 100.125083 114.956765 99.4249485 126.558039 99.1155869 138.206006 98.9411348 149.916267 97.9190785 178.933801 95.3497488 207.624916 94.3365313 236.163862 94.4291072 265.336297 94.5235439 294.555959 95.1627362 323.90791 96.2806249 339.931435 96.8867876 355.998247 97.3129158 372.127457 97.6957799 393.647486 98.2047146 415.425679 99.1216346 436.838686 99.0118461 439.072191 99.0002159 443.039528 99.4347178 442.069677 98.0986478 441.102164 96.7625777 437.809922 97.2226659 435.56061 97.1938232 417.080358 96.9561032 398.724968 96.9574988 380.381387 96.8658533 351.081704 96.720244 322.343761 94.4751625 293.790518 93.2721412 269.647502 92.245898 245.675472 91.564372 221.691454 91.1075403 213.832417 90.9572789 205.993949 91.6243835 198.160849 91.5862367 187.849381 91.5359945 177.429427 92.1682087 167.082517 92.7176163 144.567366 93.9052859 121.847164 96.3732008 98.6910396 97.404096 82.7349093 98.1098127 66.7183973 98.9397392 50.8921268 99.0667403 36.4164762 99.1830417 23.1305057 98.2517004 8.47546246 98.576879 9.63696884 97.485507 10.7969784 96.394135 11.955984 95.3022978 29.8527468 95.3748699 48.0626874 95.0673691 66.4618972 94.3825866 90.4381486 93.4842749 114.246071 92.5873588 137.905442 91.4983129 159.632946 90.4897474 181.080219 89.9933732 202.42792 89.7444883 220.038269 89.5388675 237.575776 89.734719 255.061793 90.2217891 269.644428 90.6265178 284.244244 91.2498931 298.91662 91.833726 313.663239 92.4175588 328.467577 93.0809418 343.371915 93.4824141 352.456865 93.7261818 361.502206 93.8243401 370.583952 93.9811143 391.950028 94.3486266 413.451256 94.8668655 434.991102 95.2888069 437.078041 95.3297449 440.365683 95.5781646 439.455057 94.3704913 438.5573 93.1777045 435.733785 93.4991615 433.642388 93.4684579 423.605505 93.3200574 414.378945 94.3956124 404.165087 93.8699302 390.706838 93.1730525 377.866493 93.8341094 364.673282 93.3763473 355.769802 93.0665204 347.002751 93.3302919 338.223884 92.857178 321.365991 91.9439797 304.633476 90.9405315 288.206002 89.6779639 269.541954 88.2269881 250.658947 88.9178182 232.013675 88.4493563 208.792458 87.8631975 185.168655 88.2395487 161.522215 88.8847886 152.334988 89.134604 143.301826 89.032724 134.094132 89.3695327 114.758269 90.0733886 95.2304271 90.9577441 75.7161611 91.5527419 55.2903285 92.1719303 35.3267445 92.1105232 15.3793258 92.0640027 18.3239539 89.2671875 21.2588962 86.4703724 24.1841524 83.6735572 41.6884497 84.4527763 60.1999991 84.4467286 78.4981905 84.4751062 133.767332 84.560704 189.039023 84.7579511 244.500716 84.2680898 304.019408 83.7405468 363.759406 84.2555292 423.007924 83.6926306 426.459202 83.6600662 429.954193 83.6847221 433.429602 83.6823961 439.358175 90.6567562 444.848121 97.6315815 448.477532 104.606407 446.32103 104.270063 444.193403 104.099798 442.019114 104.137015 422.867092 104.462658 403.025979 103.44758 383.833784 103.672739 381.970301 103.694604 380.036149 103.692743 378.156404 103.57179 340.497067 101.125274 304.281204 97.1058993 267.273535 96.3843657 254.083261 96.1257115 240.858831 96.3145849 227.700269 95.9089257 219.777537 95.6642277 211.363553 96.5495136 203.171611 96.6672106 187.65317 96.890044 172.34235 97.9711815 157.095267 99.8473551 138.024745 102.15617 118.407279 103.560625 99.1779389 103.583885 67.1186676 103.622032 34.420226 104.386365 2.53138429 104.158879"/>
              <path fill="#B7CEFF" d="M138.688283 22.3892521C154.771932 22.35064 171.136642 21.1983261 187.234898 20.3218791 216.867153 18.6876123 245.832776 16.4969599 272.225867 10.1650485 285.571563 6.79184378 300.016369 5.26690031 314.327 4.14622039 329.397827 2.95017717 344.34038 1.91323423 359.718264 1.70761342 366.001105 1.62341123 372.18865 1.34661399 378.53563 1.35589159 380.289609 3.50795851 381.73874 5.65999892 382.500296 7.81436536 377.977334 7.96509192 373.414054 8.11860972 368.870822 8.2023467 352.97605 8.49542613 337.597384 9.65518332 322.114525 11.0773164 301.769602 12.9130171 281.49502 15.514446 261.120987 19.20306 245.713833 21.9007864 229.788944 24.4980284 213.195588 26.3486157 203.875609 27.3734633 194.357115 27.8009871 185.179627 27.7698183 150.458453 27.6525865 115.002786 28.5546199 80.2933921 28.3299257 82.1036547 26.4639866 83.9076871 24.5980476 85.7123678 22.7321085M430.897308 82.2764987C362.644589 82.5635305 294.082768 81.7280215 225.702312 82.7291436 197.233858 83.1436417 168.701448 83.4283474 140.132001 83.6562981 125.021277 83.7763211 109.902504 83.8795967 94.9416789 83.7265441 82.5318429 83.599543 70.5243939 83.1278247 58.3354332 82.8733573 47.1346215 82.6388938 37.1032457 81.6368412 26.1270798 81.3526007 27.6036757 79.9537279 29.0780588 78.5543899 30.5479995 77.1555171 40.8494992 77.4844174 51.4900867 77.5867626 61.4823019 78.187808 83.9349514 79.5271345 107.877657 79.4266501 131.349617 79.9281416 144.996601 80.218895 159.180021 79.2991838 172.931099 79.4420019 181.539747 79.5317866 190.379861 79.2196337 199.049108 78.9312063 224.912984 78.0659242 250.513769 76.8038218 275.914776 75.8087473 301.380573 74.8020427 326.595287 73.7022971 351.811206 73.0631048 375.758608 72.4527552 399.987559 72.3829744 423.994713 72.0754736M393.16133 22.2487135C379.418944 22.7627655 367.49812 24.9143407 356.355765 28.0200523 355.599315 28.2270688 354.421123 28.3773301 354.905705 28.9616282 355.324931 29.4659109 356.50323 29.5668605 357.532136 29.7561991 371.690883 32.3343677 386.072206 33.2052323 400.555216 33.9118793 402.212941 35.763397 403.548285 37.6158451 404.23487 39.4692236 398.381924 39.5390045 392.278029 39.15521 386.421298 39.1040374 366.741848 38.9323766 347.534762 36.5900671 328.895039 33.5164547 323.670809 32.638612 318.559487 31.5602658 314.097002 29.991593 312.242362 29.3323969 310.070172 28.3866342 312.462362 27.5320518 321.691664 24.1597775 332.19898 21.9407475 343.284506 20.4706983 353.471885 19.0992726 364.432449 18.7722332 374.931483 17.9972009 379.353839 17.6687659 384.536018 17.9399806 388.685154 16.5327342 383.724572 15.9502969 380.35996 16.4443451 376.7347 16.6471747 360.582696 17.5436256 344.50688 18.7126869 329.693935 21.7839733 321.361749 23.4670866 312.958893 25.2283544 305.566226 27.9079378 303.254764 28.7299558 303.717903 29.2519164 305.953486 29.9864758 312.832397 32.2157403 320.29878 33.9672388 328.425832 35.2037549 353.578277 38.9416807 379.160363 39.7306691 404.923251 40.4424335 405.671212 40.8778658 406.000067 41.3160893 405.840312 41.7580345 404.600759 42.0860043 403.304907 42.3018596 401.472829 42.1934668 390.958304 41.5705567 380.526755 41.0574351 370.126769 40.3894 349.842196 39.0747294 329.77198 37.9159027 310.498563 34.857642 301.866795 33.458304 293.13648 32.2706345 286.579039 29.2244692 297.551628 24.919458 309.862308 22.016576 322.444326 19.8235975 339.023899 16.8518651 356.708293 15.6125578 374.462221 14.7537885 378.958569 14.535142 383.902904 14.7649535 387.850774 13.9071146 388.996638 15.2999397 390.045355 16.6922996 390.413234 18.0827987 387.291177 17.990688 384.529261 18.3316836 381.6151 18.5107877 361.163801 19.7603296 341.925272 22.4161875 324.527752 27.6129976 319.499486 29.0611821 319.555375 28.9653498 324.596924 30.7894204 327.560276 31.8472976 330.810178 32.4408997 334.198194 33.0238021 350.146024 35.7257154 366.577268 36.3467647 383.099384 37.5321082 388.626329 37.925672 394.61915 38.6067327 401.039773 37.7228424 386.049209 37.4381367 372.348838 36.2332545 358.860642 34.7618097 349.027609 33.675555 339.514812 31.936617 330.334296 30.002758 327.491931 29.3965953 326.486847 28.9309246 329.621152 28.0954156 335.215892 26.5862891 341.39124 25.5781889 346.877289 24.1704772 360.238836 20.646546 376.120016 20.275312 391.033541 19.0225137M418.990851 63.6833534C416.262386 63.1292937 413.706677 63.2102394 411.125417 63.2139611 396.4482 63.2353605 381.842659 63.3670137 367.246487 63.59636 348.245476 63.8950219 328.954197 63.5451874 309.867881 63.7373172 299.019087 63.8461753 288.224769 64.4355906 277.377953 64.8863747 261.06518 65.5609226 246.303861 68.5731279 230.522586 70.586537 207.882054 73.4154514 184.503593 74.9999411 161.070973 75.2050968 129.765213 75.4791028 98.2805672 75.7893948 68.7197227 73.996493 57.3170419 73.2972892 45.3172901 73.0623604 34.4409013 72.0603079L38.3111383 68.3177301C40.2305064 68.4033279 42.2762974 68.412632 44.0555745 68.5866188 75.958168 71.6583704 110.430503 73.0744558 146.622147 73.0088618 156.390002 72.991184 166.313834 72.3082624 176.00815 72.4850405 189.371078 72.7283429 202.434961 70.9819617 215.343169 69.6570566 225.496515 68.6038314 233.841528 66.0354321 243.046816 64.3862788 254.192743 62.3565874 266.195475 61.5769031 277.764094 60.4645969 285.839323 59.6816561 293.824291 58.617266 302.178246 58.6019143 339.950949 58.5321334 377.759493 58.5800496 415.556141 58.5856321"/>
              <path fill="#4038FF" d="M80.4931466,28.3300187 C115.259014,28.554713 150.771568,27.6526796 185.548156,27.7699114 C194.740556,27.8010801 204.275193,27.3735563 213.608573,26.3487087 C230.228634,24.4976562 246.177423,21.9008794 261.606706,19.203153 C282.012142,15.514539 302.316775,12.9126449 322.69441,11.0774094 C338.201383,9.65527636 353.60418,8.49551917 369.524534,8.20243974 C374.074818,8.11823755 378.644751,7.96518496 383.175846,7.8144584 C383.84491,8.28989837 384.187311,8.76673395 384.058476,9.24449995 C371.585323,9.53246212 359.467996,10.4186785 347.08107,11.058336 C332.336016,11.8138296 317.782503,13.0591846 303.271574,14.8195221 C290.413529,16.3514436 277.43933,18.1420194 264.937519,20.82672 C249.089673,24.1264223 232.378561,26.5813114 214.987383,28.5668083 C214.045888,28.6733403 213.132491,28.898965 210.918983,29.3046241 C218.752059,29.958703 225.377292,30.5853347 232.131744,31.0496098 C245.605271,31.969321 259.078997,33.3909888 271.645641,35.8956549 C289.344778,39.3204975 308.160964,41.0166365 327.43443,42.7760435 C342.065218,44.0921098 356.792372,44.8945892 371.676349,45.6017014 C383.07162,46.1399442 394.468448,46.6167797 405.828047,46.7223814 C403.665244,47.747229 400.116921,47.5839419 397.141708,47.3062142 C388.730194,46.5172258 380.830628,46.8670603 372.731094,46.6111973 C360.747291,46.2320548 348.792726,45.5537853 336.931692,44.9839086 C323.515304,44.3354122 310.171807,43.5036249 297.07889,42.0973088 C283.102711,40.5746914 269.967335,38.218891 256.625747,36.5167042 C241.743799,34.5828452 226.685856,33.318882 211.48804,32.4843034 C167.841754,30.0466268 122.1837,31.5194673 77.7925019,31.1026432 L80.4931466,28.3300187 Z"/>
              <path fill="#B7CEFF" d="M424.041166,71.1086836 C421.228541,70.5723018 418.583172,70.6402218 415.922762,70.6537127 C383.173096,70.8221171 350.082555,70.2485188 317.51672,71.1142661 C304.290781,71.4641006 290.869709,71.4645658 277.724596,72.1470222 C254.879066,73.3225964 231.873955,74.8717305 208.555421,76.3315452 C186.342594,77.7048317 163.92536,78.4468344 141.761938,78.4626514 C118.287335,78.479864 94.7428633,78.3882185 72.65129,77.0423792 C66.668926,76.6753321 59.9594637,77.4117523 54.3181636,76.7344131 C47.1764942,75.8705266 39.2917935,75.4518417 31.7896195,74.8414922 C32.1200152,74.5288741 32.4502715,74.216256 32.7803886,73.903638 C34.436414,74.0594818 36.0202497,74.2688243 37.7654211,74.3641914 C56.400775,75.3760132 75.7075977,75.9821759 95.4290026,76.1361589 C126.196344,76.3762049 157.084468,76.652537 188.363351,75.6611842 C194.180607,75.4755672 200.049368,75.4746368 205.970232,75.0005924 C226.474847,73.3435306 245.696349,70.3048086 265.407654,68.4993463 C278.987745,67.2381743 292.584598,66.3863831 306.264638,66.0863256 C326.617711,65.6392632 347.273029,66.0923733 367.596339,65.6215854 C384.825791,65.2215087 402.532118,65.5345919 420.024131,65.5318007"/>
              <path fill="#4038FF" d="M302.486151,58.6019143 C294.147089,58.617266 286.176457,59.6816561 278.115697,60.4645969 C266.567807,61.5769031 254.586545,62.3565874 243.460681,64.3862788 C234.27196,66.0354321 225.942069,68.6038314 215.806922,69.6570566 C202.921851,70.9819617 189.881423,72.7283429 176.542292,72.4850405 C166.865239,72.3082624 156.959162,72.991184 147.208721,73.0088618 C111.081597,73.0744558 76.6705744,71.6583704 44.8245542,68.5866188 C43.0484321,68.412632 41.006287,68.4033279 39.090332,68.3177301 C39.3977993,68.0148813 39.70151,67.7120326 40.0124204,67.4091838 C46.0883936,67.2975345 50.6897954,68.2084068 55.9434965,68.6652385 C77.8184649,70.5451338 100.401181,72.0389085 125.17474,71.6313885 C138.069043,71.4183244 150.733067,71.6997737 163.58803,71.5569556 C180.584843,71.367617 197.383439,70.15157 213.732964,67.8567115 C227.318152,65.9149439 239.499187,62.901343 252.570741,60.9893486 C262.375834,59.5332556 272.282274,58.3330255 282.328071,57.3849368 C267.97185,56.4340569 254.352444,54.7979293 241.185806,52.892913 C233.031677,51.6954742 224.999303,50.4668666 216.602832,49.7490546 C189.111318,47.3639462 161.14866,46.2572224 133.166995,45.6817633 C109.860583,45.2002757 86.9207524,44.3991919 63.1195419,44.5913217 C63.7335108,43.9791114 64.3469928,43.366901 64.9599879,42.7546906 C80.5922759,43.3599229 97.2296384,42.9579854 113.193435,43.2747903 C128.650929,43.5804303 144.209972,43.8186155 159.696773,44.2028752 C181.79982,44.7490264 204.350695,44.9318521 225.422445,47.8398514 C237.274611,49.4392277 249.175679,51.221895 261.120394,53.1441239 C277.330119,55.6976366 294.271516,57.2839872 311.934522,57.6180047 C316.010125,57.6947636 320.078249,57.6477779 324.141892,57.6268436 C354.367493,57.4682086 384.542175,57.301665 414.673004,57.1374475 C415.002444,57.6203308 415.331882,58.1027488 415.661943,58.5856321"/>
              <path fill="#B7CEFF" d="M46.3988392,61.3393692 C54.2340235,61.3737944 61.4169345,61.9111067 68.6693517,62.4563275 C83.9631173,63.5970112 99.0743969,65.027518 115.892643,65.1191635 C129.291447,65.1922007 142.842194,64.7832851 156.422113,64.0733816 C172.195529,63.2425247 187.636094,61.5594114 202.337153,58.9049491 C204.088347,58.5848877 206.559925,58.2718045 206.9022,57.4316434 C207.291017,56.4798331 204.733156,56.3463191 203.168795,56.0695219 C196.827779,54.940003 190.05426,54.3366316 183.202561,53.7211648 C160.743388,51.6775172 137.058012,51.7300854 113.938464,51.1588131 C97.0351282,50.7391978 78.8071606,51.8882553 61.7337128,51.6156449 C59.9475313,51.5872674 57.791875,51.8975594 55.8039473,52.050612 C57.060393,50.805257 58.317117,49.559902 59.5707368,48.314547 C84.299188,48.3773498 108.331975,49.2607749 132.955692,49.6171223 C153.09445,49.9074105 172.954867,50.5214817 192.431263,52.0571249 C205.821793,53.0996503 218.650787,54.8167236 231.739354,57.4311782 C217.158731,61.0495462 202.469953,64.0096485 186.173686,65.5555262 C165.441594,67.4926417 144.770505,68.4825989 124.156573,67.977851 C106.285786,67.5382318 89.2062444,66.5473442 72.1319894,65.6383328 C62.5067593,65.1228851 54.4829394,63.5156003 44.0224406,63.6812134"/>
              <path fill="#B7CEFF" d="M133.06767,45.6819029 C161.21273,46.257362 189.339441,47.3640858 216.992991,49.7491941 C225.439374,50.4665409 233.520084,51.6956137 241.724454,52.8930525 C254.969183,54.7980689 268.671232,56.4341964 283.111062,57.3850764 C273.008269,58.3331651 263.047183,59.5333951 253.187231,60.9894882 C240.042499,62.9014826 227.793924,65.9146183 214.13252,67.856851 C197.692552,70.1517095 180.796876,71.3677566 163.701808,71.55663 C150.773642,71.699448 138.03415,71.418464 125.066489,71.631528 C100.148346,72.039048 77.4335226,70.5452733 55.428752,68.6653781 C50.1426414,68.2085464 45.5144178,67.2976741 39.4037866,67.4088582 C40.0541812,66.781296 40.7033241,66.1532687 41.3526923,65.5257065 C48.8978078,65.3540457 54.7384259,66.3788933 61.3982106,66.8668938 C91.7334146,69.0621984 123.944753,69.7627978 157.175131,69.3310871 C174.5313,69.1049973 191.625608,68.1824948 208.659825,66.4905426 C223.066401,65.040032 235.291457,62.3357928 245.570257,58.3475864 C247.073759,57.7521235 249.325744,57.1059531 246.187701,56.3592983 C241.755577,55.2958387 237.416583,54.21191 232.542937,53.5029369 C216.569505,51.1434148 200.128272,49.8975947 183.273242,49.1188407 C165.908638,48.3107789 148.498355,47.7460194 130.993765,47.4827132 C107.538941,47.1286918 83.5513743,47.403163 59.7967123,47.4073499 C60.7354253,46.4690305 61.6735403,45.5302459 62.6116891,44.5914613"/>
              <path fill="#4038FF" d="M98.467669 103.583885C117.708683 103.560625 137.338691 102.15617 156.421838 99.8473551 171.679028 97.9711815 186.99963 96.890044 202.527586 96.6672106 210.72455 96.5495136 219.144043 95.6642277 227.071468 95.9089257 240.237825 96.3145849 253.470363 96.1257115 266.668518 96.3843657 303.698303 97.1058993 339.93429 101.125274 377.615346 103.57179 379.496176 103.692743 381.4315 103.694604 383.296124 103.672739 402.500062 103.44758 422.352744 104.462658 441.516531 104.137015 443.692157 104.099798 445.820995 104.270063 447.978651 104.606407 448.154263 104.922747 448.330197 105.239551 448.504345 105.555891 446.61052 105.574965 444.391634 105.357714 443.26481 105.93922 440.398564 105.939686 437.532627 105.940616 434.666668 105.941546 434.054151 105.703361 433.568722 105.685218 433.236196 105.92759 423.674398 105.930847 414.11378 105.934103 404.552912 105.93736 400.922257 105.341431 397.621907 105.342362 394.625178 105.93736 388.87136 105.935964 383.119036 105.934568 377.366985 105.933638 374.009526 105.250716 370.476074 105.0223 366.89154 105.089755 356.222569 105.290259 345.489848 104.5343 334.932819 103.967215 308.529228 102.538569 283.001614 100.059024 257.10151 98.853211 234.520245 97.7920774 212.350566 98.1335382 189.695696 100.088331 167.496232 101.97474 145.153474 104.3538 121.963634 104.768764 112.456786 104.938563 102.709748 104.491966 92.6497179 105.937825 87.855522 105.939686 83.0598231 105.941546 78.2654837 105.943407 75.4132736 105.33864 72.1013812 105.340036 68.308885 105.943407 64.4715592 105.943872 60.6342191 105.944338 56.7964715 105.945268 55.1472689 105.285142 52.1876941 105.563334 49.694528 105.559613 33.2457298 105.535422 16.7631303 105.547983.291847329 105.548448.781410293 105.085568 1.27265509 104.622224 1.76223258 104.158879M132.408499 47.482434C149.788699 47.7462055 167.076509 48.3109649 184.316602 49.1190268 201.05201 49.8973155 217.376097 51.1431357 233.235065 53.5026578 238.073721 54.2120961 242.38253 55.2960248 246.782678 56.3594844 249.89697 57.105674 247.660519 57.7523095 246.167324 58.3477725 235.959039 62.3359788 223.819006 65.0402181 209.513607 66.4907287 192.599036 68.1826809 175.625429 69.1047181 158.392043 69.330808 125.396471 69.7629838 93.4135885 69.0623844 63.2956141 66.8670799 56.6820461 66.3790794 50.8838201 65.3537666 43.3920428 65.5254274 44.0197557 64.910891 44.6474729 64.2958894 45.2742445 63.681353 55.7104233 63.5152747 63.7158156 65.1225595 73.3180465 65.6384723 90.3522698 66.5474838 107.392135 67.5379062 125.219592 67.9775253 145.784686 68.4827384 166.407815 67.4927812 187.089056 65.5556658 203.347494 64.009788 218.000665 61.0492206 232.545489 57.4313178 219.486953 54.8168632 206.687683 53.0997898 193.328436 52.0572644 173.897533 50.5216212 154.08383 49.90755 133.992556 49.6172618 109.426897 49.2609145 85.4505904 48.3774893 60.7805447 48.3146866 61.0918863 48.012303 61.4041968 47.7099195 61.7152578 47.407536"/>
              <path fill="#4038FF" d="M49.9030533 99.0669264C65.8066722 98.9399253 81.9013193 98.1095336 97.9346675 97.4042821 121.203646 96.3729216 144.033224 93.9050067 166.658822 92.7178024 177.054608 92.1683948 187.525099 91.5361806 197.887194 91.5859576 205.758633 91.6241044 213.636213 90.957465 221.53255 91.1072612 245.6342 91.5640929 269.723964 92.2456189 293.985844 93.2723273 322.679653 94.4753486 351.559644 96.7199649 381.002955 96.8660394 399.437491 96.9572197 417.882658 96.9558241 436.452406 97.1940093 438.714131 97.222852 442.022153 96.7627638 442.993668 98.0983686 443.970907 99.4349039 439.98245 99.000402 437.738025 99.0120322 416.220038 99.1213554 394.334674 98.2044355 372.710618 97.6959659 356.500825 97.3131019 340.356342 96.8865085 324.252736 96.280811 294.756372 95.1629223 265.393288 94.5232648 236.0781 94.4288281 207.400755 94.3367174 178.568602 95.3499349 149.411133 97.9187993 137.645719 98.9408557 125.940904 99.1153078 114.281416 99.4251346 87.8295133 100.125269 61.320569 100.635599 35.3130967 100.432304 25.3659507 100.35415 15.0418622 100.608617 5.79271622 99.9563992 6.28435487 99.4967762 6.78461149 99.036688 7.27849477 98.5770651M373.442292 14.753649C355.807607 15.6124182 338.242444 16.8517255 321.773466 19.8239232 309.273538 22.0164364 297.044285 24.9193184 286.140235 29.2243297 292.649056 32.270495 301.319284 33.4581645 309.889299 34.8575025 329.028289 37.9157631 348.958904 39.0745899 369.103501 40.3897257 379.432465 41.0572955 389.792121 41.5704171 400.232968 42.1933272 402.052397 42.3017201 403.339669 42.0858647 404.571472 41.7583601 404.999492 42.3905743 405.429185 43.0227885 405.858684 43.6554679 389.098316 42.77716 372.471292 41.8728006 355.993942 41.0265919 339.420659 40.1682879 323.053397 38.8615258 307.0151 37.1379396 291.358495 35.4273791 276.354521 33.1483376 262.335604 30.1100809 259.855436 29.562534 260.54999 29.0084743 262.477229 28.4958179 266.117878 27.5193517 269.593602 26.4084411 273.335416 25.6064269 290.216375 21.9052523 306.789079 18.646023 324.126227 16.5270121 337.064756 14.9136796 349.98057 13.6659986 363.256558 13.1333384 370.677931 12.8342113 377.724665 11.6646848 386.151937 12.9630732 386.348198 13.2775521 386.543652 13.592031 386.739522 13.906975M55.8270288 76.7345062C61.4613456 77.4113801 68.1601906 76.6754251 74.1343863 77.0424722 96.1957872 78.3883116 119.705615 78.479957 143.148127 78.4627444 165.280046 78.4469274 187.663489 77.7049248 209.844791 76.3316383 233.128879 74.8718236 256.099907 73.3226894 278.910679 72.1471152 292.037741 71.4646589 305.439746 71.4641936 318.646578 71.1143592 351.165196 70.2481466 384.209411 70.8222101 416.912396 70.6538058 419.569014 70.6403148 422.210563 70.5723948 425.019355 71.1083115 425.254289 71.4306989 425.490627 71.7530862 425.727133 72.0754736 401.640606 72.3829744 377.332419 72.4527552 353.305071 73.0631048 328.007523 73.7022971 302.710657 74.8020427 277.161727 75.8087473 251.676519 76.8038218 225.993816 78.0659242 200.043985 78.9312063 191.346351 79.2196337 182.478601 79.5317866 173.839899 79.4420019 160.044141 79.2991838 145.814979 80.218895 132.120867 79.9281416 108.571339 79.4266501 84.5478728 79.5271345 62.0184634 78.187808 51.9933506 77.5867626 41.3159414 77.4844174 30.9809357 77.1555171 31.7641831 76.3842065 32.5467993 75.6128958 33.3287843 74.8415852M61.8123157 51.6156449C78.8731995 51.8882553 97.0868667 50.7391978 113.978865 51.1588131 137.081366 51.7300854 160.749384 51.6775172 183.19175 53.7211648 190.038322 54.3366316 196.805626 54.940003 203.142953 56.0695219 204.706122 56.3463191 207.260928 56.4798331 206.873395 57.4316434 206.530064 58.2718045 204.060244 58.5848877 202.31145 58.9049491 187.619544 61.5594114 172.190012 63.2425247 156.429217 64.0733816 142.857934 64.7832851 129.317053 65.1922007 115.92929 65.1191635 99.1233904 65.027518 84.0234286 63.5970112 68.7398772 62.4563275 61.4928713 61.9111067 54.3165026 61.3737944 46.4858859 61.3393692 47.4261926 60.4159364 48.3670813 59.4920384 49.3057266 58.5681403 63.3831204 58.4681212 77.1796951 58.4648647 88.6234621 60.7629797 95.6872683 62.1544092 103.291555 63.4625669 112.404593 63.6602792 133.87871 64.124089 155.52747 62.9210677 176.841027 59.1687206 178.696273 58.8365639 181.048991 58.7979518 181.245022 57.7405398 181.410951 56.8575799 179.41417 56.798964 177.906561 56.5626396 167.837747 54.9674502 157.589583 53.7030217 146.400717 53.295967 133.288502 52.8172706 119.996688 52.7144602 106.175013 53.3252749 98.8864016 53.6458015 91.0703258 54.7534557 84.2419052 54.3226754 74.6276522 53.7132563 64.8320434 53.3452788 54.5148895 53.431807 54.972593 52.9712536 55.4284567 52.5111654 55.8856924 52.050612M180.73131 34.4416088C210.03225 34.6839808 238.199666 37.1942294 266.025558 41.9746806 283.77666 44.9105922 302.674187 46.8798069 322.144242 47.7874227 335.703562 48.4149849 349.317909 48.7899405 362.994093 49.2570067 378.215756 49.7743152 393.504149 50.2678982 409.079141 51.0638647 402.575493 51.0638647 396.148687 51.3439184 389.552917 50.9945491 380.926875 50.5358565 372.527129 50.5470215 364.026013 50.2502204 346.535809 49.6370796 329.17113 48.9895136 311.897093 48.0228167 294.949018 47.0663543 278.31889 45.8047171 262.041981 44.158355 254.151818 43.3502932 246.511599 42.3482406 239.116775 41.1321936 226.022961 38.9415411 211.912034 38.6987039 198.105647 38.0902151 174.375869 37.0355944 150.139142 37.0542026 126.391262 36.4982821 108.274864 36.0726191 89.0742076 37.1560826 71.1281497 36.6848295 71.8877651 35.9149145 72.6435142 35.1449994 73.4037763 34.3750844"/>
              <path fill="#B7CEFF" d="M101.605521,59.3806264 C117.165623,62.0503569 135.096266,61.4968259 153.58779,59.7249082 C155.279764,59.561529 157.640175,59.4610275 158.041692,58.4869367 C158.376028,57.6751943 156.211784,57.6803482 154.930591,57.4494526 C141.804581,55.0533952 126.832156,55.2394517 111.572022,55.8697761 C105.164866,56.1331414 98.6387132,56.2253966 90.3434457,57.499961 M85.4752233,52.6499244 C92.2459961,53.107044 100.030022,51.9316643 107.273259,51.5915397 C121.008209,50.9433778 134.203646,51.0524744 147.214638,51.5604398 C158.317732,51.9923832 168.474045,53.3341228 178.448888,55.0268472 C179.942628,55.2776212 181.923665,55.3398211 181.747849,56.276768 C181.537049,57.3988335 179.199681,57.4398064 177.352068,57.7922722 C156.122378,61.7740498 134.59411,63.0511213 113.266367,62.558459 C104.217018,62.3491516 96.6877745,60.9605153 89.6967246,59.4840094 C78.3773215,57.0453804 64.6742825,57.0488359 50.6901851,57.1549706 C51.344317,56.4895309 51.999037,55.8240913 52.6508847,55.1586517 L70.1119866,55.1586517 C70.3291035,54.8905999 70.5466363,54.6220546 70.7641447,54.3535092 C65.0390848,54.2592221 60.1407852,53.4777748 54.052642,53.7033727 C54.6946139,53.0369457 55.3356034,52.3710124 55.9765639,51.7045855"/>
              <path fill="#4038FF" d="M88.0808776 39.0214634C96.9169439 39.0517018 105.995191 38.7502486 114.912601 38.6316212 129.178168 38.4418174 143.096326 38.8377073 157.058475 39.127065 181.163471 39.6243697 205.30217 40.4933734 228.023008 44.0554516 230.350637 44.4131946 232.671365 44.7881502 234.975128 45.1845052 237.554011 45.6259852 239.818952 46.4368383 243.153131 45.5594608 244.022216 45.3301145 246.145562 45.8041589 247.476838 46.1135205 262.45214 49.5313849 279.580071 50.2803657 296.48583 51.5494462 333.163979 54.2518246 369.099309 52.5026521 405.661846 52.989257 407.27613 53.0106565 408.889011 52.7324636 410.708256 53.3395567 410.825376 54.1536663 409.020469 53.89036 407.890851 53.8973381 402.378852 53.9299024 396.820287 53.8908252 391.302451 53.9178071 380.870581 53.9685145 370.502119 54.1741353 360.09476 54.2699676 329.700746 54.5509517 299.186943 53.6023978 269.379576 51.0637717 255.121794 49.8272556 241.85508 47.5928738 228.640128 45.6478498 217.914874 44.0414954 206.900579 43.0785201 195.479575 42.7552023 169.896382 42.0266906 144.013138 42.0001739 118.345612 41.7131421 100.954417 41.5182211 83.9363763 40.9557877 66.5027738 40.8757723 67.1203505 40.2593751 67.7378883 39.6425127 68.3544625 39.0261155M366.845483 65.6215854C346.629641 66.0923733 326.084409 65.6392632 305.838985 66.0863256 292.231299 66.3863831 278.705849 67.2381743 265.196692 68.4993463 245.58837 70.3048086 226.466109 73.3435306 206.068827 75.0005924 200.178961 75.4746368 194.341358 75.4755672 188.554816 75.6611842 157.441087 76.652537 126.717216 76.3762049 96.113452 76.1361589 76.4968982 75.9821759 57.293144 75.3760132 38.7576691 74.3641914 37.0218517 74.2688243 35.446619 74.0594818 33.7995304 73.903638 34.4329728 73.2891016 35.0659461 72.6745652 35.7029149 72.060494 46.5133386 73.0625465 58.4389769 73.2970101 69.7711103 73.9966791 99.1517986 75.7891157 130.44467 75.4792888 161.558802 75.2052828 184.850177 75.0001272 208.08656 73.4156375 230.593196 70.5867231 246.279098 68.5733139 260.95467 65.5606435 277.16874 64.8865608 287.948745 64.4357767 298.67784 63.8458962 309.460652 63.7370381 328.431012 63.5453734 347.604308 63.8947427 366.490068 63.596546 380.997341 63.3667346 395.514037 63.2350814 410.102164 63.2141472 412.66771 63.2104255 415.207624 63.1290146 417.919159 63.6835395 418.277524 64.2994715 418.636347 64.9158687 418.994998 65.5318007M74.5897384 91.5526023C94.0729384 90.9580698 113.573181 90.0737142 132.879062 89.3693932 142.07273 89.0330496 151.091748 89.1349296 160.265115 88.8851143 183.876049 88.2394091 207.463654 87.8635231 230.648104 88.4492168 249.263762 88.9176787 268.118508 88.2268486 286.751456 89.6778244 303.152922 90.940392 319.856654 91.9438401 336.687047 92.8570384 345.452953 93.3301524 354.206796 93.0663809 363.094653 93.3762077 376.266724 93.8339699 389.089726 93.1733781 402.524477 93.8697907 412.723358 94.395938 421.936917 93.3199178 431.958013 93.4683184 434.046121 93.4990219 436.865732 93.177565 437.759911 94.3708169 438.666725 95.5784903 435.384545 95.3300706 433.300898 95.2891325 411.794765 94.866726 390.329015 94.3484871 368.99526 93.9809748 359.928011 93.8246657 350.898023 93.7260422 341.826166 93.4822745 326.945539 93.0808022 312.166497 92.4174193 297.442264 91.8335864 282.793541 91.2502188 268.217262 90.6263783 253.657845 90.2216495 236.201006 89.7345794 218.689654 89.5387279 201.107649 89.7443487 179.79135 89.9932337 158.376605 90.4896079 136.682648 91.4981733 113.05701 92.5872192 89.2843365 93.4846006 65.3456436 94.3824471 46.9725913 95.0672295 28.7918045 95.3747303 10.9201708 95.3021583 12.0628586 94.2228816 13.2040968 93.143605 14.3443766 92.0638631M58.280783 82.8735434C70.497494 83.1280108 82.5311444 83.5997291 94.9665216 83.7267302 109.961014 83.8797828 125.112324 83.7765072 140.25581 83.6560189 168.886663 83.4280683 197.479062 83.1433625 226.008502 82.7293297 294.537069 81.7282076 363.247101 82.5632513 431.645716 82.2766848 431.968098 82.7451467 432.290727 83.2136086 432.612626 83.6825357 429.140264 83.6843965 425.647375 83.6597406 422.197134 83.6927702 362.983232 84.2552036 303.279237 83.7402211 243.795605 84.2682293 188.367986 84.7576255 133.127824 84.5608435 77.8932802 84.4747805 59.6056079 84.4468682 41.1050567 84.4529159 23.6117274 83.6736968 24.4095884 82.9000601 25.2067728 82.1264234 26.0032804 81.3527868M183.683354 106.068726C178.463533 106.070501 173.265959 106.012816 168.059748 105.983043 169.47979 105.258718 171.521157 104.822355 173.846126 104.472986 193.467506 101.484506 213.644553 100.043765 233.778138 100.089355 251.238531 100.128897 268.674984 101.27842 285.93688 102.643333 296.40094 103.463955 307.388256 103.881245 316.942593 106.000721"/>
              <path fill="#B7CEFF" d="M286.203974,102.643333 C268.88513,101.27842 251.391292,100.128897 233.874118,100.089355 C213.675058,100.043765 193.433306,101.484506 173.749976,104.472986 C171.417663,104.822355 169.369928,105.258718 167.945713,105.983043 C142.592798,105.968156 117.244634,105.952804 91.8992744,105.937918 C101.991546,104.492059 111.768888,104.938657 121.306526,104.768857 C144.573128,104.353428 166.986074,101.974833 189.257047,100.088425 C211.984884,98.1336312 234.22638,97.7921704 256.882557,98.8533041 C282.865586,100.059117 308.476566,102.538196 334.967673,103.967308 C345.557518,104.533928 356.326827,105.290352 367.028918,105.089848 C370.625059,105.022394 374.171262,105.250344 377.538351,105.933266 C357.466344,105.956061 337.391959,105.978391 317.312531,106.000721"/>
              <path fill="#4038FF" d="M357.088049,29.7564782 C356.075368,29.5666744 354.914775,29.46619 354.50236,28.9619073 C354.025654,28.3776092 355.186454,28.2268827 355.9312,28.0203315 C366.913821,24.9141547 378.661437,22.7625795 392.201706,22.2485274 C395.144053,26.1371798 397.615286,30.0249017 399.472008,33.9116933"/>
              <path fill="#4038FF" d="M328.512249,35.2040805 C320.465212,33.9670992 313.073006,32.2160659 306.262697,29.9863362 C304.049448,29.2517768 303.591205,28.7298163 305.879721,27.9077983 C313.203256,25.2282149 321.525457,23.466947 329.777761,21.7842989 C344.448535,18.7130125 360.368484,17.5439513 376.363423,16.6470351 C379.953747,16.4446708 383.285643,15.9501574 388.19743,16.5325946 C384.088004,17.9403063 378.95628,17.6686263 374.576808,17.9970614 C364.179813,18.7725588 353.324703,19.0991331 343.236797,20.4710239 C332.258124,21.940608 321.851771,24.1601032 312.709988,27.5323775 C310.340405,28.3864947 312.490726,29.3322573 314.325786,29.9914535 C318.744741,31.5605914 323.805327,32.6384725 328.97811,33.5167804 C347.433881,36.5903928 366.451798,38.932237 385.939228,39.1038978 C391.738812,39.1550704 397.783197,39.5393301 403.578833,39.4690841 C403.805537,39.7933323 404.032725,40.1180457 404.259793,40.4422939"/>
              <path fill="#4038FF" d="M346.158818 24.1704772C340.760089 25.5781889 334.684053 26.5862891 329.178232 28.0954156 326.09376 28.9309246 327.081566 29.3965953 329.876326 30.002758 338.903126 31.936617 348.257111 33.675555 357.927246 34.7618097 371.192024 36.2332545 384.665974 37.4381367 399.410625 37.7228424 393.093549 38.6067327 387.200041 37.925672 381.764274 37.5321082 365.514738 36.3467647 349.353588 35.7257154 333.671621 33.0238021 330.340102 32.4408997 327.144454 31.8472976 324.231487 30.7894204 319.275702 28.9653498 319.220559 29.0611821 324.16907 27.6129976 341.290975 22.4161875 360.219252 19.7603296 380.337956 18.5107877 383.204727 18.3316836 385.922031 17.990688 388.992814 18.0827987 389.195713 18.395882 389.398101 18.7094305 389.601303 19.0225137M69.8380444 55.9280529C69.6227344 56.1811247 69.4074036 56.4341964 69.1924887 56.686803L51.380794 56.686803C51.845044 56.2299712 52.3083465 55.7726743 52.7725654 55.3153773"/>
              <path fill="#995E1A" d="M50.1133318 105.559752C52.6266328 105.563474 55.6096638 105.284816 57.2741461 105.944942 38.9878282 105.985415 20.6951579 106.027749 2.402785 106.062639 1.24700664 106.064965-.0868934781 106.090552.311860006 105.548587M78.0484456 105.9435C75.019189 106.144469 72.1331819 106.144004 69.3926782 105.9435M405.236514 105.937592C401.891929 106.146935 398.426796 106.146004 394.849656 105.937127M448.504353 105.55617C447.875375 106.486116 445.289358 105.98695 443.321726 105.939034M434.347068 105.941174C433.983102 105.936987 433.617816 105.932335 433.253636 105.927683"/>
              <path fill="#4038FF" d="M112.187591,55.5731011 C127.426863,55.0041549 142.391354,54.8362157 155.572006,56.9989558 C156.858146,57.2073679 159.021325,57.2027158 158.706249,57.9354144 C158.327873,58.8146527 155.971252,58.9053678 154.284202,59.0528379 C135.849275,60.6522142 117.947513,61.1518449 102.324289,58.7420807 C99.0672713,58.2322155 95.7646681,57.7595667 91.0132096,57.044546"/>
            </g>
          </g>
        </g>
        <path fill="#B7CEFF" d="M285,324 C96.7828236,321.140969 1.78282362,319.463707 0,318.968212 C3.94139502,315.272496 33.9788287,292.442066 90.112301,250.476923 C90.8891581,251.151498 179.494942,251.126048 180.178876,250.48032 L285,324 Z"/>
        <path fill="#FFF" d="M182.604576 150.597893C182.602934 182.681048 182.608682 214.764203 182.598006 246.847357 182.595543 252.520608 182.518348 252.591063 176.886431 252.593521 149.789504 252.602532 122.691755 252.602532 95.5956483 252.591063 89.7485721 252.588605 89.616356 252.470634 89.6155347 246.623704 89.6048589 182.457395 89.6040377 118.291904 89.6138923 54.1255943 89.6147135 48.8218216 89.8446547 48.6088187 95.1883239 48.6071802 122.422395 48.5973493 149.655645 48.5973493 176.889716 48.6088187 182.534772 48.6104572 182.599649 48.674358 182.601291 54.3484281 182.611146 86.431583 182.605397 118.514738 182.604576 150.597893M61.8213397 143.769251C63.796377 141.939609 65.8858975 141.243098 68.0538752 143.389408 70.1153754 145.431761 70.2626826 151.789124 68.3324779 154.213718 66.5087508 156.503169 64.4840774 155.976187 62.4473953 154.489604 60.4251237 151.022242 60.7781806 147.415738 61.8213397 143.769251"/>
        <path fill="#4038FF" d="M60.4145084,143.307692 C59.4680434,147.122563 59.1477126,150.895604 60.9825328,154.523077 C58.209964,154.431888 57.139289,152.595563 57.257688,149.619797 C57.3659177,146.907558 56.845834,143.739375 60.4145084,143.307692"/>
        <path fill="#65C7E3" d="M58.5854724 275.374538C58.7671754 275.011907 58.8592715 274.525907 59.1504942 274.316553 59.6047519 273.991307 59.8997082 274.287891 59.5736383 274.748968 59.368289 275.039322 58.8804287 275.129045 58.5195117 275.309738L58.5854724 275.374538zM58.4003873 275.42454C58.2199287 275.784678 58.1290772 276.269432 57.8403436 276.47754 57.3823523 276.810263 57.0898851 276.522401 57.4159549 276.065063 57.6250379 275.772217 58.1066755 275.673771 58.4651034 275.48934 58.4663479 275.48934 58.4003873 275.42454 58.4003873 275.42454"/>
      </g>
      <rect width="365" height="8" y="312" fill="#4038FF"/>
      <rect width="365" height="4" y="305" fill="#4038FF"/>
      <rect width="365" height="3" y="297" fill="#4038FF"/>
      <rect width="365" height="2" y="289" fill="#4038FF"/>
    </g>
  </g>
</svg>
