<svg xmlns="http://www.w3.org/2000/svg" width="23" height="25" viewBox="0 0 23 25">
  <g fill="none">
    <path fill="#4038FF" d="M3.16666667,18 L3.16666667,20 L2.16666667,20 C2.0680088,20 2.02053685,20.0237775 2.00549439,20.0142665 L2,20 L2,23 C2,22.9702782 2.02774038,22.9881113 2.10197756,22.9964334 L2.16666667,23 L20.8333333,23 C20.9319912,23 20.9794631,22.9762225 20.9945056,22.9857335 L21,23 L21,20 C21,20.0297218 20.9722596,20.0118887 20.8980224,20.0035666 L20.8333333,20 L19.8333333,20 L19.8333333,18 L20.8333333,18 C21.9480084,18 22.9126182,18.7852678 22.9943902,19.8527344 L23,20 L23,23 C23,24.0920817 22.0838543,24.9248313 20.9843355,24.9951799 L20.8333333,25 L2.16666667,25 C1.05199163,25 0.0873817545,24.2147322 0.00560977142,23.1472656 L0,23 L0,20 C0,18.9079183 0.91614574,18.0751687 2.0156645,18.0048201 L2.16666667,18 L3.16666667,18 Z"/>
    <path fill="#000" d="M12.5,3.55271368e-15 L12.4997199,13.715 L17.3217199,9.26519656 L18.6782801,10.7348034 L11.5,17.3609082 L4.3217199,10.7348034 L5.6782801,9.26519656 L10.4997199,13.717 L10.5,3.55271368e-15 L12.5,3.55271368e-15 Z"/>
  </g>
</svg>
