<svg xmlns="http://www.w3.org/2000/svg" xmlns:xlink="http://www.w3.org/1999/xlink" viewBox="0 0 800 600"><defs><style>.cls-1,.cls-2,.cls-3,.cls-5,.cls-7{fill:none;}.cls-2,.cls-3,.cls-4,.cls-5,.cls-6,.cls-7{stroke:#4038ff;}.cls-2,.cls-5,.cls-7{stroke-linecap:square;}.cls-2,.cls-3,.cls-6,.cls-7{stroke-miterlimit:10;}.cls-2{stroke-width:2px;}.cls-3,.cls-4,.cls-5,.cls-6,.cls-7{stroke-width:12px;}.cls-4{stroke-linejoin:bevel;fill:url(#lines);}.cls-6{fill:#fff;}.cls-8{fill:url(#lines-3);}</style><pattern id="lines" data-name="lines" width="16" height="16" patternTransform="translate(96 496)" patternUnits="userSpaceOnUse" viewBox="0 0 16 16"><rect class="cls-1" width="16" height="16"/><line class="cls-2" x1="1.98" y1="78.02" x2="67.98" y2="12.02"/><line class="cls-2" x1="-14.02" y1="78.02" x2="51.98" y2="12.02"/><line class="cls-2" x1="-30.02" y1="78.02" x2="35.98" y2="12.02"/><line class="cls-2" x1="-46.02" y1="78.02" x2="19.98" y2="12.02"/><line class="cls-2" x1="-62.02" y1="78.02" x2="3.98" y2="12.02"/><line class="cls-2" x1="1.98" y1="62.02" x2="67.98" y2="-3.98"/><line class="cls-2" x1="-14.02" y1="62.02" x2="51.98" y2="-3.98"/><line class="cls-2" x1="-30.02" y1="62.02" x2="35.98" y2="-3.98"/><line class="cls-2" x1="-46.02" y1="62.02" x2="19.98" y2="-3.98"/><line class="cls-2" x1="-62.02" y1="62.02" x2="3.98" y2="-3.98"/><line class="cls-2" x1="1.98" y1="46.02" x2="67.98" y2="-19.98"/><line class="cls-2" x1="-14.02" y1="46.02" x2="51.98" y2="-19.98"/><line class="cls-2" x1="-30.02" y1="46.02" x2="35.98" y2="-19.98"/><line class="cls-2" x1="-46.02" y1="46.02" x2="19.98" y2="-19.98"/><line class="cls-2" x1="-62.02" y1="46.02" x2="3.98" y2="-19.98"/><line class="cls-2" x1="1.98" y1="30.02" x2="67.98" y2="-35.98"/><line class="cls-2" x1="-14.02" y1="30.02" x2="51.98" y2="-35.98"/><line class="cls-2" x1="-30.02" y1="30.02" x2="35.98" y2="-35.98"/><line class="cls-2" x1="-46.02" y1="30.02" x2="19.98" y2="-35.98"/><line class="cls-2" x1="-62.02" y1="30.02" x2="3.98" y2="-35.98"/><line class="cls-2" x1="1.98" y1="14.02" x2="67.98" y2="-51.98"/><line class="cls-2" x1="-14.02" y1="14.02" x2="51.98" y2="-51.98"/><line class="cls-2" x1="-30.02" y1="14.02" x2="35.98" y2="-51.98"/><line class="cls-2" x1="-46.02" y1="14.02" x2="19.98" y2="-51.98"/><line class="cls-2" x1="-62.02" y1="14.02" x2="3.98" y2="-51.98"/></pattern><pattern id="lines-3" data-name="lines" width="16" height="16" patternTransform="translate(-46 -192.97)" patternUnits="userSpaceOnUse" viewBox="0 0 16 16"><rect class="cls-1" width="16" height="16"/><line class="cls-2" x1="1.98" y1="78.02" x2="67.98" y2="12.02"/><line class="cls-2" x1="-14.02" y1="78.02" x2="51.98" y2="12.02"/><line class="cls-2" x1="-30.02" y1="78.02" x2="35.98" y2="12.02"/><line class="cls-2" x1="-46.02" y1="78.02" x2="19.98" y2="12.02"/><line class="cls-2" x1="-62.02" y1="78.02" x2="3.98" y2="12.02"/><line class="cls-2" x1="1.98" y1="62.02" x2="67.98" y2="-3.98"/><line class="cls-2" x1="-14.02" y1="62.02" x2="51.98" y2="-3.98"/><line class="cls-2" x1="-30.02" y1="62.02" x2="35.98" y2="-3.98"/><line class="cls-2" x1="-46.02" y1="62.02" x2="19.98" y2="-3.98"/><line class="cls-2" x1="-62.02" y1="62.02" x2="3.98" y2="-3.98"/><line class="cls-2" x1="1.98" y1="46.02" x2="67.98" y2="-19.98"/><line class="cls-2" x1="-14.02" y1="46.02" x2="51.98" y2="-19.98"/><line class="cls-2" x1="-30.02" y1="46.02" x2="35.98" y2="-19.98"/><line class="cls-2" x1="-46.02" y1="46.02" x2="19.98" y2="-19.98"/><line class="cls-2" x1="-62.02" y1="46.02" x2="3.98" y2="-19.98"/><line class="cls-2" x1="1.98" y1="30.02" x2="67.98" y2="-35.98"/><line class="cls-2" x1="-14.02" y1="30.02" x2="51.98" y2="-35.98"/><line class="cls-2" x1="-30.02" y1="30.02" x2="35.98" y2="-35.98"/><line class="cls-2" x1="-46.02" y1="30.02" x2="19.98" y2="-35.98"/><line class="cls-2" x1="-62.02" y1="30.02" x2="3.98" y2="-35.98"/><line class="cls-2" x1="1.98" y1="14.02" x2="67.98" y2="-51.98"/><line class="cls-2" x1="-14.02" y1="14.02" x2="51.98" y2="-51.98"/><line class="cls-2" x1="-30.02" y1="14.02" x2="35.98" y2="-51.98"/><line class="cls-2" x1="-46.02" y1="14.02" x2="19.98" y2="-51.98"/><line class="cls-2" x1="-62.02" y1="14.02" x2="3.98" y2="-51.98"/></pattern></defs><title>Election (2)-2x</title><g id="Layer_2" data-name="Layer 2"><g id="Election"><polyline class="cls-3" points="259.56 326.45 186.65 389.86 186.65 559.52"/><polyline class="cls-3" points="616.69 559.52 616.69 389.86 537.88 326.64"/><polygon class="cls-4" points="537.88 326.64 485.32 326.59 453.76 358.16 352.75 358.16 321.09 326.5 259.56 326.45 186.65 389.86 616.69 389.86 537.88 326.64"/><line class="cls-3" x1="309.61" y1="358.16" x2="492.59" y2="358.16"/><path class="cls-3" d="M360.33,521.36a4,4,0,0,1-1.17-2.81V497.7L343.45,482a4,4,0,0,1,0-5.62l15.71-15.72V439.79a4,4,0,0,1,4-4H384l15.71-15.71a4,4,0,0,1,5.62,0l15.72,15.71H441.9a4,4,0,0,1,4,4v20.85l15.71,15.72a4,4,0,0,1,0,5.62L445.88,497.7v20.85a4,4,0,0,1-4,4H421.05l-15.72,15.71a4,4,0,0,1-5.62,0L384,522.53H363.14A4,4,0,0,1,360.33,521.36Zm25.31-81.57,0,0Z"/><path class="cls-3" d="M420.08,522.93l-14.75,14.75a4,4,0,0,1-5.62,0L385,522.93H370.7v61.16l31.82-19.89,31.83,19.89V522.93Z"/><polyline class="cls-5" points="517.45 213.55 557.91 254.01 453.58 358.34 351.91 357.32 303.58 308.99 438.24 174.34"/><line class="cls-3" x1="422.9" y1="186.68" x2="386.09" y2="158.31"/><path class="cls-3" d="M351.91,181.55l17,43.25a17.11,17.11,0,0,0,6.59,7.74"/><line class="cls-3" x1="400.48" y1="211.26" x2="377.52" y2="158.01"/><path class="cls-3" d="M497.39,6.27l-124,79.84c-13.21,10.22-13.21,10.22-24.54,29.52L311,174l-1.09,77.41a17.19,17.19,0,0,0,34.31-2.33l2.17-57.42,34.7-32.57,44.08,3.34c22.54,4.34,36.14,16.2,36.37,39.5l-.41,43.9c.58,24.92,18.83,29.53,32.83,26.75a37.15,37.15,0,0,0,5.78-1.84s1.68-25.13,2.17-30.53l19-58.58s32.65-31.06,17.18-78.83"/><line class="cls-6" x1="541.86" y1="119.3" x2="564.8" y2="102.31"/><path class="cls-7" d="M435.58,143.48c17.82,3.33,25,20,25.75,36.5v29.27"/><path class="cls-8" d="M537.63,103.36c6.32,10.23,3.12,11.68,1.71,19.24l26.22-17.66-38-54"/><rect class="cls-1" width="800" height="600"/></g></g></svg>