<svg width="32" height="32" viewBox="0 0 32 32" fill="none" xmlns="http://www.w3.org/2000/svg">
<path fill-rule="evenodd" clip-rule="evenodd" d="M26.6666 15.9999C26.6666 21.8909 21.8909 26.6666 15.9999 26.6666C10.1089 26.6666 5.33325 21.8909 5.33325 15.9999C5.33325 10.1089 10.1089 5.33325 15.9999 5.33325C21.8909 5.33325 26.6666 10.1089 26.6666 15.9999ZM14.0497 10.3033C14.0497 9.87276 14.3995 9.52373 14.8309 9.52373C17.7552 9.52373 20.1258 11.8894 20.1258 14.8076C20.1258 15.2382 19.7761 15.5872 19.3446 15.5872C18.9132 15.5872 18.5634 15.2382 18.5634 14.8076C18.5634 12.7505 16.8923 11.0829 14.8309 11.0829C14.3995 11.0829 14.0497 10.7339 14.0497 10.3033ZM21.6949 14.0281C22.1263 14.0281 22.4761 14.3771 22.4761 14.8077C22.4761 17.7259 20.1055 20.0916 17.1812 20.0916C16.7497 20.0916 16.4 19.7425 16.4 19.312C16.4 18.8814 16.7497 18.5324 17.1812 18.5324C19.2426 18.5324 20.9137 16.8647 20.9137 14.8077C20.9137 14.3771 21.2634 14.0281 21.6949 14.0281ZM17.9624 21.6965C17.9624 22.1271 17.6126 22.4761 17.1812 22.4761C14.2569 22.4761 11.8863 20.1104 11.8863 17.1922C11.8863 16.7616 12.2361 16.4126 12.6675 16.4126C13.099 16.4126 13.4487 16.7616 13.4487 17.1922C13.4487 19.2493 15.1198 20.9169 17.1812 20.9169C17.6126 20.9169 17.9624 21.2659 17.9624 21.6965ZM10.3049 17.9718C9.8735 17.9718 9.52375 17.6227 9.52375 17.1922C9.52373 14.274 11.8943 11.9083 14.8186 11.9083C15.2501 11.9083 15.5999 12.2573 15.5999 12.6879C15.5999 13.1184 15.2501 13.4675 14.8186 13.4675C12.7573 13.4675 11.0862 15.1351 11.0862 17.1922C11.0862 17.6227 10.7364 17.9718 10.3049 17.9718Z" fill="#0DBD8B"/>
</svg>
