<svg width="18" height="14" viewBox="0 0 18 14" fill="#7B8A95" xmlns="http://www.w3.org/2000/svg">
<path fill-rule="evenodd" clip-rule="evenodd" d="M0 2C0 1.17157 0.671573 0.5 1.5 0.5H16.5C17.3284 0.5 18 1.17157 18 2V12.5C18 13.3284 17.3284 14 16.5 14H1.5C0.671573 14 0 13.3284 0 12.5V2ZM8.08433 10.6881C8.62393 11.104 9.376 11.104 9.9156 10.6881L14.7156 6.98894C15.3718 6.48325 15.4937 5.54137 14.9881 4.88519C14.4824 4.22902 13.5405 4.10703 12.8843 4.61272L8.99997 7.60624L5.11562 4.61272C4.45944 4.10703 3.51756 4.22902 3.01187 4.8852C2.50618 5.54137 2.62817 6.48325 3.28435 6.98894L8.08433 10.6881Z" fill="inherit"/>
</svg>
