<svg viewBox="0 0 20 17" xmlns="http://www.w3.org/2000/svg">
  <path d="M17.5 0h-15C1.11928813 0 0 1.14167389 0 2.55v11.9C0 15.8583261 1.11928813 17 2.5 17h15c1.3807119 0 2.5-1.1416739 2.5-2.55V2.55C20 1.14167389 18.8807119 0 17.5 0zm-.25 4.08l-6.6666667 5.95c-.1815189.0954323-.379785.1532127-.5833333.17-.2035483-.0167873-.40181444-.0745677-.58333333-.17L2.75 4.08c-.34517797-.30513732-.38248757-.83791847-.08333333-1.19s.82148869-.39013732 1.16666666-.085l6.08333334 5.44L16 2.805c.1637454-.15109553.3808679-.22745707.6011142-.21141056.2202462.01604652.4245239.12311007.5655525.29641056.1869865.13194616.3051949.34329046.3213945.57461983.0161995.23132937-.071359.45766526-.2380612.61538017z" fill="#001AFF" fill-rule="nonzero"/>
</svg>
