<svg width="256" height="256" viewBox="0 0 256 256" fill="none" xmlns="http://www.w3.org/2000/svg">
<path d="M174.652 31.953H88.5668L66.3877 0H49.8473L46.464 221.04L10 256L246.076 252.993L174.652 198.485V31.953Z" fill="black"/>
<path fill-rule="evenodd" clip-rule="evenodd" d="M162.783 196.938C165.748 196.271 167.785 195.848 167.98 195.898C168.002 195.511 168.031 195.123 168.06 194.735C168.122 193.907 168.184 193.079 168.184 192.25C168.195 141.708 168.195 91.167 168.191 40.6251C168.191 36.2316 168.177 36.2248 163.93 36.2242C158.883 36.2236 153.837 36.2218 148.791 36.22C130.251 36.2133 111.711 36.2065 93.1709 36.2591C92.054 41.2691 91.5224 47.1205 91.3857 53.3294C91.2098 61.3639 91.0349 69.4865 91.6879 78.0156C91.8145 79.657 91.9174 81.2925 92.0201 82.9251C92.3111 87.5496 92.6005 92.1498 93.422 96.7876V117.103C91.9676 113.339 91.5423 109.027 91.1303 104.849C91.1079 104.621 91.0855 104.394 91.0629 104.168C90.2287 95.6971 89.9322 87.1889 89.9951 78.9156C90.0314 74.1062 89.9887 69.2525 89.9459 64.399V64.3921C89.9199 61.4409 89.8938 58.4896 89.8856 55.5484C89.867 48.9214 89.9293 42.3975 90.3365 36.2659C89.2486 36.2515 88.3227 36.0894 87.4934 35.7255C87.1842 47.9938 86.9533 60.3702 87.1785 73.0839C87.445 88.0482 87.9725 103.061 90.6352 117.856C91.3043 121.486 92.0447 124.951 93.422 127.866V132.445C91.4277 130.569 90.4369 126.91 89.7489 123.395C88.3722 116.254 87.5181 108.81 87.1026 101.242C86.4587 89.4134 86.0729 77.6025 86.0768 65.9224C86.0775 63.5138 85.9807 61.047 85.8837 58.5778C85.764 55.5273 85.644 52.4716 85.7078 49.5162C85.814 44.6014 85.8804 39.6558 85.937 34.7061C85.5874 34.3903 85.25 34.0198 84.9175 33.5886C84.5682 33.1359 84.2185 32.6835 83.8683 32.2315L84.3534 58.3151C84.6137 69.1337 84.8753 79.9305 85.4251 90.7508C85.9683 101.349 86.9525 111.894 88.1249 122.258C88.7359 127.59 89.6866 132.674 90.7141 137.657C91.2776 140.357 91.9691 142.943 93.422 144.364V154.869C92.0429 152.847 91.3443 149.873 90.6652 146.983C90.5455 146.473 90.4264 145.966 90.3042 145.467C89.0205 140.13 88.3932 134.359 87.7607 128.54C87.5634 126.726 87.3657 124.906 87.1473 123.094C85.3632 107.999 84.7906 92.7468 84.2618 77.3474C84.0169 70.1727 83.8226 63.007 83.6277 55.8208C83.491 50.7816 83.3541 45.7323 83.1992 40.6626C83.1018 37.4544 83.0571 34.295 83.0305 31.1516C82.5367 30.5161 82.0421 29.8812 81.5467 29.2468C81.57 32.0312 81.5853 34.81 81.6006 37.5878L81.6007 37.5931C81.6462 45.8391 81.6916 54.0768 81.9435 62.4229C82.1303 68.5847 82.4746 74.785 82.8177 80.9619C83.105 86.1357 83.3914 91.2931 83.5836 96.3975C84.083 109.581 85.2432 122.57 86.8118 135.248L86.8424 135.491C87.9383 144.181 89.0319 152.853 92.4261 159.207C92.6602 159.633 92.9013 160.043 93.1421 160.453C93.2355 160.612 93.329 160.771 93.4219 160.931V171.392C93.0098 168.814 92.1826 166.721 91.3488 164.612C90.8996 163.476 90.4485 162.335 90.0593 161.11C88.1451 154.927 87.2954 147.96 86.435 140.906C86.2288 139.215 86.0219 137.519 85.7996 135.827C83.9774 121.666 82.7686 107.128 82.1863 92.3637C82.0096 87.8473 81.8027 83.3085 81.5952 78.7577C81.2759 71.7531 80.9552 64.7184 80.7411 57.6877C80.4342 47.5498 80.2417 37.4793 80.168 27.4848C79.6899 26.8751 79.2113 26.2658 78.7321 25.657L78.7371 31.2427C78.758 33.6151 78.775 35.9846 78.7921 38.3535C78.8501 46.4074 78.9081 54.4535 79.1135 62.5744C79.6955 85.4706 80.5419 108.249 83.3707 130.469C84.3178 137.69 85.5181 144.685 86.7009 151.577L86.7012 151.579L86.7015 151.58L86.7017 151.581C87.2701 154.894 87.8346 158.184 88.3649 161.463C90.1998 172.524 91.2455 183.78 92.0119 195.044L91.368 195.526C91.1354 192.152 90.879 188.78 90.6121 185.401C89.7692 174.588 88.6231 163.674 86.0866 153.593C81.3264 133.654 79.679 111.769 78.4507 89.3777C78.3242 87.0423 78.19 84.6994 78.0556 82.3521C77.4898 72.4737 76.9195 62.5158 76.8964 52.6952C76.8853 48.0168 76.75 43.2314 76.6147 38.4437V38.4412C76.4643 33.1218 76.3139 27.7994 76.3336 22.6178C75.0258 20.9647 73.715 19.314 72.4027 17.6645C72.4015 28.5754 72.5162 39.5622 72.6309 50.5449L72.6309 50.5466C72.7618 63.0911 72.8928 75.6303 72.8509 88.0447C72.8275 94.9559 73.1489 102.124 73.9194 109.142C75.3111 121.637 77.2635 133.628 79.2917 145.228C82.0649 160.57 84.0211 175.836 85.4009 191.156C85.6548 193.924 85.8975 196.687 86.123 199.453L84.8641 200.396C84.3043 192.403 83.5478 184.47 82.5875 176.553C81.4357 166.886 80.0895 157.132 78.071 147.732C75.5902 135.817 73.7445 123.253 72.2518 110.178C72.2017 109.736 72.1166 109.301 71.9853 108.631C71.9067 108.23 71.8113 107.743 71.6971 107.119C71.5458 108.93 71.3966 110.655 71.2522 112.324C70.9271 116.081 70.6268 119.551 70.3851 123.068C69.6936 133.198 68.6248 143.328 66.7417 152.776C64.9514 162.028 63.7894 171.686 62.8029 181.583L62.8017 165.895C63.3273 161.87 63.9158 157.92 64.5004 153.995C65.1232 149.814 65.7416 145.662 66.2748 141.483C67.1116 135.044 67.7816 128.56 68.3192 122.038C67.6852 121.406 67.4325 120.392 67.4844 119.086C67.4953 118.814 67.4977 118.537 67.5002 118.258C67.5135 116.751 67.5269 115.231 68.8755 114.603C69.0339 112.256 69.1771 109.904 69.3065 107.547C70.5424 85.4192 70.4413 62.6032 70.3405 39.8555V39.8453C70.3037 31.5482 70.267 23.26 70.2952 15.0177C69.6291 14.1817 68.9628 13.3459 68.2966 12.51C68.1576 12.3358 68.0187 12.1615 67.8798 11.9872L67.8349 84.4231C67.6636 105.129 65.986 125.082 62.8006 144.777L62.8 128.348L62.8047 128.319C64.1887 120.047 64.5386 111.234 64.8866 102.471C64.9527 100.806 65.0187 99.143 65.0917 97.4857C65.6072 85.8881 65.7816 74.1293 65.9554 62.4152L65.9554 62.4144C66.049 56.1089 66.1424 49.8159 66.2886 43.5683C66.4464 36.8557 66.3284 29.945 66.2107 23.0469L66.2107 23.0422C66.1344 18.5705 66.0582 14.104 66.0572 9.7002C65.6987 9.2503 65.3404 8.80034 64.9821 8.35032C64.8702 8.20972 64.7685 8.05366 64.6646 7.8942C64.5771 7.75992 64.488 7.62318 64.3899 7.49129L64.3916 14.7655C64.3769 19.0529 64.4661 23.4162 64.5552 27.7739V27.775C64.6042 30.1689 64.6531 32.5615 64.6847 34.9385C64.8055 44.0188 64.6107 52.9118 64.4161 61.7962L64.4156 61.8159C64.3805 63.419 64.3454 65.0217 64.3122 66.6253C64.0734 78.1986 63.7207 89.7823 62.7995 101.092C62.7993 82.5455 62.7994 63.999 62.7995 45.4525L62.7996 13.762C62.8448 11.3812 62.8862 8.99768 62.9197 6.60773C62.8806 6.60325 62.8406 6.59955 62.7996 6.59668L62.7995 45.4525C62.7992 94.5322 62.7989 143.612 62.8039 192.692C62.8043 198.354 62.8236 204.016 62.843 209.679C62.8512 212.093 62.8595 214.507 62.8663 216.921C59.811 219.223 56.7043 221.567 53.6475 223.877H201.191L162.783 196.938ZM62.8663 216.921L64.0166 216.055C64.8054 204.322 65.73 192.744 67.5222 181.529C67.6207 180.926 67.7178 180.322 67.8147 179.719C68.7537 173.88 69.6816 168.109 71.7574 163.673C74.9941 171.871 77.1766 181.066 78.825 190.464C79.5941 194.725 80.2088 199.084 80.7107 203.51L82.4406 202.212C82.1008 198.88 81.7183 195.557 81.3037 192.233C79.7106 179.198 77.2602 166.738 74.4775 154.046C74.0678 152.135 73.5508 150.315 73.0312 148.487L73.0309 148.486C72.786 147.624 72.5403 146.759 72.3052 145.883C71.9197 144.434 71.5032 143.911 71.0915 145.776C68.8072 156.316 67.0938 167.597 65.8077 179.368C64.5118 191.426 63.5294 203.731 62.8841 216.192L62.8653 216.558L62.8663 216.921ZM77.3511 196.481C77.9285 199.239 78.4164 202.056 78.8341 204.917L78.175 205.412C77.071 197.596 75.4429 190.192 73.0295 183.649C72.3873 181.868 71.6763 183.484 71.1807 184.864C70.0009 188.186 69.1906 191.991 68.5302 195.88C67.586 201.55 66.7336 207.29 66.0469 213.096L67.2616 195.53C68.1916 189.48 69.5081 183.922 71.1845 178.802C71.7368 177.138 72.1292 176.794 72.7472 178.514C74.7618 184.02 76.086 190.277 77.3511 196.481ZM66.0469 213.096L65.9425 214.605L65.8659 214.663C65.9248 214.14 65.9852 213.618 66.0469 213.096ZM76.4867 206.679C75.5353 201.713 74.376 196.901 72.9689 192.265L72.8931 192.006C72.406 190.339 72.1623 189.505 71.8905 189.496C71.6183 189.486 71.318 190.304 70.717 191.941L70.5807 192.312C69.7854 194.502 69.3391 196.904 68.9008 199.409C68.0864 204.136 67.5234 208.922 67.0837 213.746L68.1969 212.909C68.9898 207.31 70.0363 201.858 71.1722 196.556C71.6279 194.454 71.978 193.712 72.6062 196.031C73.2117 198.24 73.7099 200.571 74.2038 202.882C74.5455 204.481 74.8852 206.07 75.2569 207.603L76.4867 206.679Z" fill="#A7AEB7"/>
<path d="M45.706 229.892H209.767L203.335 225.381H51.6591C49.6325 226.914 47.638 228.425 45.706 229.892Z" fill="#A7AEB7"/>
<path d="M37.8088 235.907H218.342L212.983 232.147H42.738C41.0201 233.454 39.3691 234.713 37.8088 235.907Z" fill="#A7AEB7"/>
<path d="M30.9689 241.169H225.846L222.63 238.914H33.8882C32.8481 239.714 31.8716 240.469 30.9689 241.169Z" fill="#A7AEB7"/>
<path d="M238.709 250.191C238.709 250.191 115.684 248.323 56.0669 247.184H234.421L238.709 250.191Z" fill="#A7AEB7"/>
<path d="M55.2614 6.59668H60.5242V218.614H55.2614V6.59668Z" fill="white"/>
<path d="M161.725 119.822C161.724 127.316 161.724 134.81 161.725 142.305C161.725 158.932 161.725 175.559 161.72 192.185C161.718 196.451 161.66 196.504 157.426 196.506C137.053 196.512 116.68 196.512 96.3083 196.504C91.9123 196.502 91.8129 196.413 91.8122 192.017C91.8042 143.775 91.8036 95.5328 91.811 47.2903C91.8116 43.3027 91.9845 43.1426 96.0021 43.1414C116.478 43.134 136.953 43.134 157.428 43.1426C161.672 43.1438 161.721 43.1919 161.722 47.4578C161.728 65.8 161.727 84.1422 161.726 102.484C161.725 108.264 161.725 114.043 161.725 119.822Z" fill="white"/>
<path d="M75.6014 114.402C73.9715 112.788 72.4005 113.312 70.9156 114.688C70.1313 117.429 69.8659 120.141 71.3863 122.747C72.9175 123.865 74.4397 124.261 75.8109 122.54C77.2621 120.717 77.1513 115.937 75.6014 114.402Z" fill="white"/>
</svg>
