<svg xmlns="http://www.w3.org/2000/svg" width="26" height="16" viewBox="0 0 26 16">
  <g fill="none" fill-rule="evenodd" transform="translate(.877)">
    <path fill="#000" fill-rule="nonzero" d="M12.1231052,0 C8.57329793,0 5.57089119,1.53035295 3.12011158,4.05321432 C2.2734024,4.92482671 1.55327128,5.85603074 0.955426656,6.7883132 L0.705876471,7.18881486 C0.51627948,7.50258873 0.372505982,7.76453357 0.273954086,7.96050993 L-4.08562073e-13,8.53258034 L0.246686073,8.981549 C0.378940775,9.22225255 0.627009476,9.61533654 0.993342329,10.11043 C1.59575085,10.9245761 2.32062527,11.7369354 3.171666,12.4961972 C5.62008927,14.6805748 8.60691987,16 12.1231052,16 C15.6392906,16 18.6261212,14.6805748 21.0745445,12.4961972 C21.9255852,11.7369354 22.6504596,10.9245761 23.2528682,10.11043 L23.5054816,9.75902371 C23.6975777,9.48343589 23.8437163,9.25261454 23.9444953,9.07885728 L24.2462105,8.53258034 L24.0259658,8.07006642 C23.897186,7.79962899 23.6529472,7.35307286 23.2907838,6.7883132 C22.6929392,5.85603074 21.9728081,4.92482671 21.1260989,4.05321432 C18.6753193,1.53035295 15.6729126,0 12.1231052,0 Z M12.1231052,2 C15.0732979,2 17.5887483,3.28214705 19.6915401,5.44678568 C20.438581,6.21579829 21.0778249,7.04240676 21.6072124,7.8679368 L21.8631246,8.28187878 L21.9681052,8.462 L21.9477146,8.49483751 C21.8622465,8.62081261 21.7613805,8.76370664 21.645128,8.92082005 C21.1203044,9.63011138 20.4858038,10.3411896 19.7430946,11.0038028 C17.6379464,12.8819252 15.1069199,14 12.1231052,14 C9.13929062,14 6.60826408,12.8819252 4.50311592,11.0038028 C3.76040664,10.3411896 3.12590607,9.63011138 2.60108245,8.92082005 L2.38909623,8.62635227 L2.27710524,8.462 L2.38308584,8.28187878 C2.46151816,8.14996124 2.54682516,8.01167187 2.63899812,7.8679368 C3.16838564,7.04240676 3.80762952,6.21579829 4.55467034,5.44678568 C6.65746216,3.28214705 9.17291255,2 12.1231052,2 Z"/>
    <circle cx="12.123" cy="8" r="3" stroke="#4038FF" stroke-linecap="square" stroke-width="2"/>
  </g>
</svg>
