<svg width="448" height="544" viewBox="0 0 448 544" fill="none" xmlns="http://www.w3.org/2000/svg">
<path fill-rule="evenodd" clip-rule="evenodd" d="M433.771 42.6557H426.674V35.5588H433.771V28.4443H426.674V21.3298H433.771V14.233H440.885V7.11847H433.771V14.2153H426.674V7.11847H433.771V0H426.656V7.11449H419.559V14.2113H412.445V7.11449H405.33V14.2113H398.233V7.11449H405.33V0H398.215V7.11449H391.119V0H384V7.11449H391.115V14.2113H384V21.3264H391.115V28.4409H384V35.5554H391.115V42.6699H398.211V49.7667H405.326V42.6699H412.441V49.7667H419.556V42.6699H426.653V49.7667H433.767V42.6699H440.882V35.5554H433.767V42.6557H433.771ZM391.115 49.7706H384V42.6556H391.115V49.7706ZM412.44 7.11456V7.10499e-05H419.555V7.11456H412.44ZM433.77 21.3263V28.4408H440.885V21.3263H433.77ZM398.212 14.2291H391.116L391.115 21.3264L398.212 21.3265V14.2291ZM398.229 49.7703V56.8848H405.326V49.7703H412.441V56.8848H419.556V49.7703H426.67V56.8848H433.767V49.7703H440.882V56.8848H433.767V63.9993H426.653V56.8848H419.556V63.9993H412.441V56.8848H405.326V63.9993H398.212V56.8848H391.115V63.9993H384V56.8848H391.115L391.115 49.7706L398.229 49.7703ZM426.652 35.5587V28.4442H419.555V35.5587H426.652ZM412.442 35.5587V42.6555H419.557V35.5587H412.442ZM405.326 35.5588L412.442 35.5587L412.441 28.4443H405.326V35.5588ZM405.326 35.5588L398.229 35.5587V42.6555H405.326L405.326 35.5588ZM405.326 21.3263H398.229V28.4408H405.326V21.3263ZM412.441 21.3265V14.2291H405.326L405.326 21.3263L412.441 21.3265ZM419.561 21.3263H412.446V28.4408H419.561V21.3263ZM419.559 21.3265H426.656V14.2291H419.559V21.3265ZM398.212 28.4409V35.5554L391.115 35.5554V28.4409L398.212 28.4409ZM448 7.11456H440.886V7.10499e-05H448V7.11456ZM440.885 21.3263L448 21.3265V14.2114H440.886L440.885 21.3263ZM448 35.5588H440.886V28.4443H448V35.5588ZM440.886 49.7707H448V42.6556H440.886V49.7707ZM440.886 63.9998H448V56.8853H440.886V63.9998Z" fill="#261EE4"/>
<path fill-rule="evenodd" clip-rule="evenodd" d="M128.001 7.11449L128.001 0L192.001 5.59503e-06V7.1145L128.001 7.11449ZM128.001 14.2216L128.001 21.3327L192.001 21.3327V14.2216L128.001 14.2216ZM128.001 28.4441L128.001 35.5552L192.001 35.5552V28.4442L128.001 28.4441ZM128.001 49.7769L128.001 42.6659L192.001 42.6659V49.7769L128.001 49.7769ZM128.001 56.8884L128.001 63.9995L192.001 63.9995V56.8884L128.001 56.8884Z" fill="#261EE4"/>
<path fill-rule="evenodd" clip-rule="evenodd" d="M440.884 128L447.999 128L447.999 191.999H440.884L440.884 128ZM433.777 128.001L426.666 128.001L426.666 192.001H433.777L433.777 128.001ZM419.555 128.001L412.444 128.001L412.444 192.001H419.555L419.555 128.001ZM398.222 128.001L405.333 128.001L405.333 192.001H398.222L398.222 128.001ZM391.111 128.001L384 128.001L384 192.001H391.111L391.111 128.001Z" fill="white"/>
<path fill-rule="evenodd" clip-rule="evenodd" d="M128.001 263.115V256H64.0011V263.115H128.001ZM128.001 284.451V291.566H64.0011V284.451H128.001ZM128.001 305.788V298.674H64.0011V305.788H128.001ZM128.001 320V312.885H64.0011V320H128.001ZM128.001 270.229V277.344H64.0011V270.229H128.001Z" fill="#261EE4"/>
<path fill-rule="evenodd" clip-rule="evenodd" d="M7.11114 0.00024536H0C0 35.3457 28.6541 63.9999 63.9997 63.9999V56.8889C32.5795 56.8889 7.11114 31.4204 7.11114 0.00024536ZM21.3331 0.000716177H14.222C14.222 27.4921 36.508 49.7783 63.9994 49.7783V42.6672C40.4368 42.6672 21.3331 23.5634 21.3331 0.000716177ZM28.4462 0.000352601H35.5573C35.5573 15.709 48.2929 28.4447 64.0013 28.4447V35.5557C44.3641 35.5557 28.4462 19.6377 28.4462 0.000352601ZM49.7787 0.000615277H42.6681C42.6681 11.784 52.218 21.3339 64.001 21.3339V14.2228C56.1468 14.2228 49.7787 7.85466 49.7787 0.000615277ZM63.999 0.000183105H56.8879C56.8879 3.92891 60.0702 7.11126 63.999 7.11126V0.000183105Z" fill="white"/>
<path d="M314.906 543.161H142.896L146.506 311.547L69.1895 155.404L111.499 67.8453L119.391 27.5501C120.902 19.9108 125.435 13.111 131.899 8.82965C143.148 1.35828 157.587 0.518802 169.592 6.73098L184.283 14.3702L202.584 11.432L225.334 17.98L248.419 37.0363L266.132 35.6092L286.616 41.9892L326.155 93.7015L376.524 119.726L375.181 134.249L367.962 146.169L373.502 157.502L351.676 278.304L307.687 336.48L314.906 543.161Z" fill="#DEE3E9"/>
<path d="M230.202 542.824L190.075 350.079L292.912 376.271L302.566 543.16L230.202 542.824Z" fill="white"/>
<path d="M236.247 105.622L242.795 76.4083L269.826 82.5365L254.38 113.346L236.247 105.622Z" fill="white"/>
<path d="M175.807 45.7678L195.115 35.5261C198.137 33.9311 201.747 34.015 204.685 35.8619L204.853 35.9458C207.287 37.4569 208.882 39.8914 209.302 42.6617C209.638 44.9283 209.134 47.1949 207.959 49.1257L202.838 57.4366L198.137 55.9255L179.165 62.1377L175.807 45.7678Z" fill="white"/>
<path d="M263.949 146.169L276.038 123.419L282.754 126.189C290.309 129.295 293.079 138.698 288.294 145.33C284.852 150.199 278.556 152.045 273.1 149.779L263.949 146.169Z" fill="white"/>
<path d="M184.2 110.659L203.676 119.222L213.582 80.6055L184.2 110.659Z" fill="white"/>
<path d="M230.959 49.5438L248.504 39.554L263.783 37.7911L282 44.1711L284.182 50.2994C278.726 57.8547 269.155 61.2966 260.173 58.7781L230.959 49.5438Z" fill="white"/>
<path d="M219.375 25.2828L222.817 22.1767L208.798 16.2164C206.447 15.209 203.845 14.9571 201.326 15.4608L185.04 18.7348L186.131 20.5817C189.657 26.2902 195.618 30.1518 202.25 30.9073C208.546 31.4949 214.758 29.4802 219.375 25.2828Z" fill="white"/>
<path d="M130.724 112.338C114.438 121.74 108.73 142.475 117.964 158.845L166.487 244.976L189.153 189.57L130.724 112.338Z" fill="white"/>
<path d="M206.865 52.0626L183.695 60.9611C181.261 61.8845 178.574 60.4574 178.071 57.855L174.125 59.8698L174.629 62.9758L182.772 67.1733L203.255 57.855L206.865 52.0626Z" fill="black"/>
<path d="M285.777 103.188L298.956 80.6054L325.232 92.946L321.035 98.9063C315.074 107.301 304.161 110.575 294.591 106.713L285.777 103.188Z" fill="white"/>
<path d="M130.39 43.4164C133.999 42.9127 136.854 40.0584 137.357 36.3647C137.945 31.9155 141.051 28.2217 145.332 26.7107L174.211 16.385L155.994 5.89146C152.3 3.70881 147.767 3.62486 143.989 5.55567L136.014 8.66178C133.076 10.1729 130.893 12.7752 129.886 15.8813L122.918 44.4238L130.39 43.4164Z" fill="white"/>
<path d="M179.163 64.8228C176.56 63.4796 174.797 61.0451 174.293 58.1908C173.286 52.2305 167.242 48.5368 161.449 50.2157L132.571 58.9464C127.03 60.6253 124.848 67.2572 128.206 71.8744C134.502 80.4371 136.181 85.5581 146.926 85.642C154.482 85.642 203.507 57.6871 203.507 57.6871L187.222 65.0746C184.703 66.2499 181.681 66.082 179.163 64.8228Z" fill="white"/>
<path fill-rule="evenodd" clip-rule="evenodd" d="M372.915 114.269C378.624 119.054 379.799 127.281 375.686 133.493L372.076 138.614C369.222 142.979 368.802 148.52 371.069 153.221C372.328 155.655 372.831 158.51 372.496 161.28C370.397 179.832 361.666 253.371 351.173 277.968C345.8 290.728 318.685 322.88 318.685 322.88L318.517 544H302.986L293.165 364.351C293.165 353.102 284.098 344.035 272.849 344.035C268.987 344.035 265.294 345.127 262.02 347.141L246.154 357.047L218.283 322.88H302.063C302.063 322.88 321.203 297.36 325.569 287.79C326.576 285.607 327.583 283.005 328.675 280.151C335.558 261.514 343.617 229.614 349.242 206.108C353.02 190.242 342.358 174.544 326.156 172.277C317.51 171.018 308.863 173.956 302.735 180.084L294.508 188.311C290.814 192.005 285.609 193.852 280.404 193.348C273.856 192.676 268.232 188.395 265.881 182.267C264.622 179.077 261.768 176.726 258.41 176.139C241.536 173.2 227.265 188.647 231.63 205.185L235.156 218.617L164.724 130.807L123.421 147.428L130.64 112.338L199.73 68.6847C206.866 64.2354 212.658 57.8554 216.436 50.384L215.428 55.5888C213.833 63.8996 209.888 71.6229 204.179 77.919L177.82 106.965L183.108 121.824L204.011 126.357L217.863 114.185L226.342 52.3148L234.233 38.6312L222.816 22.1773L209.552 17.0565C206.53 15.7973 203.172 15.5454 199.982 16.1331L184.619 18.9873L181.345 27.55C180.002 31.0759 182.857 34.8535 186.634 34.5177C190.664 34.182 194.777 33.8462 195.533 34.0141C189.824 36.6165 139.287 51.5592 135.174 52.6506C134.838 52.6506 144.912 48.5371 154.146 44.8434C163.716 40.9818 171.44 33.8462 175.973 24.6119C176.057 24.5279 176.141 24.444 176.141 24.36C177.568 21.4218 176.476 17.896 173.706 16.217L155.238 5.38768C152.047 3.54081 148.102 3.37292 144.828 5.13583L137.272 9.08142C134.754 10.3406 132.319 11.9357 131.648 16.217L118.804 65.0749C117.964 68.181 116.873 71.2871 115.446 74.2253C109.318 86.8177 91.7724 123.335 83.9652 142.308C81.2789 148.855 81.2789 156.243 83.9652 162.875L110.493 227.263C115.446 238.26 122.162 248.502 130.305 257.485C142.981 271.588 158.931 282.417 176.728 289.133L201.913 298.619L191.419 314.234C187.809 319.606 181.765 322.88 175.217 322.88C164.304 322.88 155.489 331.779 155.657 342.608L150.2 544H129.465C129.465 544 146.171 342.02 141.05 322.88C131.48 286.615 88.0787 199.141 71.9606 167.072C68.099 159.517 68.015 150.534 71.7087 142.895L108.058 67.4255L117.796 30.0685C120.315 20.4984 126.191 12.1036 134.502 6.56295L138.196 4.0445C145.499 -0.824498 154.902 -1.32819 162.625 2.70133L177.652 10.5085C181.849 12.6912 186.634 13.4467 191.251 12.6912L202.584 10.9283C207.537 10.1727 212.658 10.9283 217.107 13.1949L249.008 29.0611C253.121 31.0759 260.089 32.7548 264.706 32.7548C271.926 32.3351 278.977 34.6856 284.518 39.3867L372.915 114.269ZM228.523 139.033L244.641 145.749C247.412 146.84 250.518 146.756 253.204 145.497C255.303 144.49 256.982 142.895 258.073 140.796C264.789 127.784 280.655 99.1575 281.579 98.4019C281.579 98.4019 284.937 93.1972 288.21 88.1603C292.492 81.5282 298.452 76.1555 305.42 72.4618L295.094 60.709C286.699 51.1389 275.954 43.9193 263.865 39.8898C253.792 40.9811 244.138 44.6749 235.827 50.6352L221.807 126.944C220.968 132.065 223.738 137.018 228.523 139.033ZM275.536 112.506L275.452 112.59L275.368 112.506C275.368 112.506 275.368 112.422 275.452 112.422C275.494 112.422 275.515 112.422 275.525 112.432C275.536 112.443 275.536 112.464 275.536 112.506ZM311.968 157.165L353.607 162.79C358.728 163.462 362.673 158.257 360.491 153.472C360.407 153.472 360.407 153.388 360.407 153.388C358.056 148.519 358.728 142.726 362.17 138.529C365.108 134.919 366.283 130.218 365.36 125.601L364.268 120.396C363.261 115.863 360.323 111.917 356.125 109.819L316.082 89.5871C306.26 84.5502 294.339 88.2439 288.967 97.898C276.458 120.48 257.234 157.837 257.234 157.837L279.816 169.422C283.426 171.269 287.707 171.605 291.569 170.429L292.157 170.261C297.865 168.498 302.063 163.546 302.902 157.585C303.658 152.548 306.764 148.183 311.297 145.916L347.646 127.532C352.516 125.013 358.392 125.769 362.505 129.379L311.968 157.165Z" fill="black"/>
<path d="M277.971 302.649H243.636V202.247H277.971C305.674 202.247 328.172 224.745 328.172 252.448C328.172 280.235 305.757 302.649 277.971 302.649Z" fill="white"/>
</svg>
