<svg width="448" height="544" viewBox="0 0 448 544" fill="none" xmlns="http://www.w3.org/2000/svg"><path fill-rule="evenodd" clip-rule="evenodd" d="M433.771 170.656h-7.097v-7.097h7.097v-7.115h-7.097v-7.114h7.097v-7.097h7.114v-7.115h-7.114v7.097h-7.097v-7.097h7.097V128h-7.115v7.114h-7.097v7.097h-7.114v-7.097h-7.115v7.097h-7.097v-7.097h7.097V128h-7.115v7.114h-7.096V128H384v7.114h7.115v7.097H384v7.115h7.115v7.115H384v7.114h7.115v7.115h7.096v7.097h7.115v-7.097h7.115v7.097h7.115v-7.097h7.097v7.097h7.114v-7.097h7.115v-7.115h-7.115v7.101h.004Zm-42.656 7.115H384v-7.115h7.115v7.115Zm21.325-42.656V128h7.115v7.115h-7.115Zm21.33 14.211v7.115h7.115v-7.115h-7.115Zm-35.558-7.097h-7.096l-.001 7.097h7.097v-7.097Zm.017 35.541v7.115h7.097v-7.115h7.115v7.115h7.115v-7.115h7.114v7.115h7.097v-7.115h7.115v7.115h-7.115v7.114h-7.114v-7.114h-7.097v7.114h-7.115v-7.114h-7.115v7.114h-7.114v-7.114h-7.097v7.114H384v-7.114h7.115v-7.114l7.114-.001Zm28.423-14.211v-7.115h-7.097v7.115h7.097Zm-14.21 0v7.097h7.115v-7.097h-7.115Zm-7.116 0h7.116l-.001-7.115h-7.115v7.115Zm0 0h-7.097v7.097h7.097v-7.097Zm0-14.233h-7.097v7.115h7.097v-7.115Zm7.115 0v-7.097h-7.115v7.097h7.115Zm7.12 0h-7.115v7.115h7.115v-7.115Zm-.002 0h7.097v-7.097h-7.097v7.097Zm-21.347 7.115v7.114h-7.097v-7.114h7.097ZM448 135.115h-7.114V128H448v7.115Zm-7.115 14.211H448v-7.115h-7.114l-.001 7.115ZM448 163.559h-7.114v-7.115H448v7.115Zm-7.114 14.212H448v-7.115h-7.114v7.115Zm0 14.229H448v-7.115h-7.114V192ZM128.001 7.114V0h64v7.114h-64Zm0 7.108v7.11h64v-7.11h-64Zm0 14.222v7.111h64v-7.11h-64Zm0 21.333v-7.111h64v7.11h-64Zm0 7.111V64h64v-7.11h-64Z" fill="#DEE3E9"/><path fill-rule="evenodd" clip-rule="evenodd" d="M56.884 384H64v64h-7.115v-64Zm-7.107.001h-7.111v64h7.11v-64Zm-14.222 0h-7.111v64h7.111v-64Zm-21.333 0h7.111v64h-7.111v-64Zm-7.11 0H0v64h7.111v-64Z" fill="#4038FF"/><path fill-rule="evenodd" clip-rule="evenodd" d="M128.001 263.115V256h-64v7.115h64Zm0 21.336v7.115h-64v-7.115h64Zm0 21.337v-7.114h-64v7.114h64Zm0 14.212v-7.115h-64V320h64Zm0-49.771v7.115h-64v-7.115h64Z" fill="#DEE3E9"/><path fill-rule="evenodd" clip-rule="evenodd" d="M7.111 0H0c0 35.346 28.654 64 64 64v-7.111C32.58 56.889 7.11 31.42 7.11 0Zm14.222 0h-7.111c0 27.492 22.286 49.778 49.777 49.778v-7.111c-23.562 0-42.666-19.104-42.666-42.666Zm7.113 0h7.111c0 15.709 12.736 28.445 28.444 28.445v7.11C44.364 35.556 28.446 19.639 28.446 0ZM49.78 0h-7.11c0 11.784 9.549 21.334 21.332 21.334v-7.111c-7.854 0-14.222-6.369-14.222-14.223Zm14.22 0h-7.111a7.11 7.11 0 0 0 7.111 7.111V0Z" fill="#fff"/><path d="M314.906 543.161h-172.01l3.61-231.614-77.317-156.144 42.31-87.558 7.892-40.295c1.511-7.64 6.044-14.439 12.508-18.72 11.249-7.472 25.688-8.311 37.693-2.1l14.691 7.64 18.301-2.938 22.75 6.548 23.085 19.056 17.713-1.427 20.484 6.38 39.539 51.712 50.369 26.024-1.343 14.523-7.219 11.921 5.54 11.333-21.826 120.802-43.989 58.176 7.219 206.681Z" fill="#DEE3E9"/><path d="m230.202 542.824-40.127-192.745 102.837 26.192 9.654 166.889-72.364-.336ZM236.247 105.622l6.548-29.214 27.031 6.128-15.446 30.81-18.133-7.724ZM175.807 45.768l19.308-10.242c3.022-1.595 6.632-1.511 9.57.336l.168.084c2.434 1.51 4.029 3.945 4.449 6.716.336 2.266-.168 4.533-1.343 6.464l-5.121 8.31-4.701-1.51-18.972 6.212-3.358-16.37ZM263.949 146.169l12.089-22.75 6.716 2.77c7.555 3.106 10.325 12.509 5.54 19.14-3.442 4.869-9.738 6.716-15.194 4.45l-9.151-3.61ZM184.2 110.659l19.476 8.563 9.906-38.616-29.382 30.053ZM230.959 49.544l17.545-9.99 15.279-1.763L282 44.171l2.182 6.128c-5.456 7.556-15.027 10.998-24.009 8.48l-29.214-9.235ZM219.375 25.283l3.442-3.106-14.019-5.96a12.651 12.651 0 0 0-7.472-.756l-16.286 3.274 1.091 1.847c3.526 5.708 9.487 9.57 16.119 10.325 6.296.588 12.508-1.427 17.125-5.624ZM130.724 112.338c-16.286 9.402-21.994 30.137-12.76 46.507l48.523 86.131 22.666-55.406-58.429-77.232Z" fill="#fff"/><path d="m206.865 52.063-23.17 8.898c-2.434.923-5.121-.504-5.624-3.106l-3.946 2.015.504 3.106 8.143 4.197 20.483-9.318 3.61-5.792Z" fill="#000"/><path d="m285.777 103.188 13.179-22.582 26.276 12.34-4.197 5.96c-5.961 8.395-16.874 11.669-26.444 7.808l-8.814-3.526ZM130.39 43.416c3.609-.504 6.464-3.358 6.967-7.051.588-4.45 3.694-8.144 7.975-9.655l28.879-10.325L155.994 5.89c-3.694-2.182-8.227-2.266-12.005-.336l-7.975 3.107a12.405 12.405 0 0 0-6.128 7.22l-6.968 28.541 7.472-1.007ZM179.162 64.823a9.212 9.212 0 0 1-4.869-6.632c-1.007-5.96-7.051-9.654-12.844-7.975l-28.878 8.73c-5.541 1.68-7.723 8.311-4.365 12.928 6.296 8.563 7.975 13.684 18.72 13.768 7.556 0 56.581-27.955 56.581-27.955l-16.285 7.388c-2.519 1.175-5.541 1.007-8.06-.252Z" fill="#fff"/><path fill-rule="evenodd" clip-rule="evenodd" d="M372.915 114.269c5.709 4.785 6.884 13.012 2.771 19.224l-3.61 5.121c-2.854 4.365-3.274 9.906-1.007 14.607 1.259 2.434 1.762 5.288 1.427 8.059-2.099 18.552-10.83 92.091-21.323 116.688-5.373 12.76-32.488 44.912-32.488 44.912L318.517 544h-15.53l-9.822-179.649a20.28 20.28 0 0 0-20.316-20.316c-3.862 0-7.555 1.091-10.829 3.106l-15.866 9.906-27.871-34.167h83.78s19.14-25.52 23.506-35.09c1.007-2.183 2.014-4.785 3.106-7.639 6.883-18.637 14.942-50.537 20.567-74.043 3.778-15.866-6.884-31.564-23.086-33.831-8.646-1.259-17.293 1.679-23.421 7.807l-8.227 8.227c-3.694 3.694-8.899 5.541-14.104 5.037-6.548-.672-12.172-4.953-14.523-11.081-1.259-3.19-4.113-5.541-7.471-6.128-16.874-2.939-31.145 12.508-26.78 29.046l3.526 13.431-70.432-87.809-41.303 16.621 7.219-35.09 69.09-43.653c7.136-4.45 12.928-10.83 16.706-18.301l-1.008 5.205c-1.595 8.31-5.54 16.034-11.249 22.33l-26.359 29.046 5.288 14.859 20.904 4.533 13.851-12.172 8.479-61.87 7.891-13.684-11.417-16.454-13.264-5.12c-3.022-1.26-6.38-1.512-9.57-.924l-15.363 2.854-3.274 8.563c-1.343 3.526 1.512 7.303 5.289 6.968 4.03-.336 8.143-.672 8.899-.504-5.709 2.602-56.246 17.545-60.359 18.636-.336 0 9.738-4.113 18.972-7.807 9.57-3.861 17.294-10.997 21.827-20.231.084-.084.168-.168.168-.252 1.427-2.938.335-6.464-2.435-8.143l-18.468-10.83c-3.191-1.846-7.136-2.014-10.41-.251l-7.556 3.945c-2.518 1.26-4.953 2.855-5.624 7.136l-12.844 48.858c-.84 3.106-1.931 6.212-3.358 9.15-6.128 12.593-23.674 49.11-31.48 68.082-2.687 6.548-2.687 13.936 0 20.568l26.527 64.388a116.086 116.086 0 0 0 19.812 30.221c12.676 14.104 28.626 24.933 46.423 31.649l25.185 9.486-10.494 15.615a19.51 19.51 0 0 1-16.202 8.646c-10.913 0-19.728 8.899-19.56 19.728L150.2 544h-20.735s16.706-201.98 11.585-221.12c-9.57-36.265-52.971-123.74-69.09-155.808-3.861-7.555-3.945-16.538-.251-24.177l36.349-75.47 9.738-37.357c2.519-9.57 8.395-17.965 16.706-23.505l3.694-2.519c7.303-4.869 16.706-5.372 24.429-1.343l15.027 7.807a21.864 21.864 0 0 0 13.599 2.183l11.333-1.763c4.953-.755 10.074 0 14.523 2.267l31.901 15.866c4.113 2.015 11.081 3.694 15.698 3.694a28.01 28.01 0 0 1 19.812 6.632l88.397 74.882Zm-144.392 24.764 16.118 6.716a10.844 10.844 0 0 0 8.563-.252 10.56 10.56 0 0 0 4.869-4.701c6.716-13.012 22.582-41.639 23.506-42.394 0 0 3.358-5.205 6.631-10.242 4.282-6.632 10.242-12.005 17.21-15.698l-10.326-11.753c-8.395-9.57-19.14-16.79-31.229-20.82-10.073 1.092-19.727 4.786-28.038 10.746l-14.02 76.309c-.839 5.121 1.931 10.074 6.716 12.089Zm47.013-26.527-.084.084-.084-.084s0-.084.084-.084c.042 0 .063 0 .073.01.011.011.011.032.011.074Zm36.432 44.659 41.639 5.625c5.121.672 9.066-4.533 6.884-9.318-.084 0-.084-.084-.084-.084a13.89 13.89 0 0 1 1.763-14.859 15.561 15.561 0 0 0 3.19-12.928l-1.092-5.205c-1.007-4.533-3.945-8.479-8.143-10.577l-40.043-20.232c-9.822-5.037-21.743-1.343-27.115 8.31-12.509 22.583-31.733 59.94-31.733 59.94l22.582 11.585c3.61 1.847 7.891 2.182 11.753 1.007l.588-.168c5.708-1.763 9.906-6.716 10.745-12.676.756-5.037 3.862-9.402 8.395-11.669l36.349-18.384c4.869-2.519 10.746-1.763 14.859 1.847l-50.537 27.786Z" fill="#000"/><path d="M277.971 302.649h-34.335V202.247h34.335c27.703 0 50.201 22.498 50.201 50.201 0 27.787-22.415 50.201-50.201 50.201Z" fill="#fff"/></svg>
