<svg width="302" height="314" viewBox="0 0 302 314" fill="none" xmlns="http://www.w3.org/2000/svg">
<g clip-path="url(#clip0)">
<path fill-rule="evenodd" clip-rule="evenodd" d="M274.624 134.268H270.578V130.222H274.624V126.166H270.578V122.11H274.624V118.064H278.68V114.008H274.624V118.054H270.578V114.008H274.624V109.95H270.568V114.006H266.522V118.052H262.466V114.006H258.411V118.052H254.365V114.006H258.411V109.95H254.354V114.006H250.309V109.95H246.25V114.006H250.306V118.052H246.25V122.108H250.306V126.164H246.25V130.22H250.306V134.266V134.276H254.352V138.322H258.408V134.276H262.464V138.322H266.52V134.276H270.566V138.322H274.622V134.276H278.678V130.22H274.622V134.268H274.624ZM250.306 134.278V138.324H246.25V134.268H250.306V134.278ZM262.464 114.006V109.95H266.52V114.006H262.464ZM274.624 122.108V126.164H278.68V122.108H274.624ZM254.352 118.062H250.306V122.108H254.352V118.062ZM254.362 138.324V142.38H258.408V138.324H262.464V142.38H266.52V138.324H270.576V142.38H274.622V138.324H278.678V142.38H274.622V146.436H270.566V142.38H266.52V146.436H262.464V142.38H258.408V146.436H254.352V142.38H250.306V146.436H246.25V142.38H250.306V138.324H254.362ZM270.566 130.222V126.166H266.52V130.222H270.566ZM262.464 130.222V134.268H266.52V130.222H262.464ZM258.408 130.222H262.464V126.166H258.408V130.222ZM258.408 130.222H254.363V134.268H258.408V130.222ZM258.408 122.108H254.363V126.164H258.408V122.108ZM262.464 122.108V118.062H258.408V122.108H262.464ZM266.523 122.108H262.467V126.164H266.523V122.108ZM266.522 122.108H270.568V118.062H266.522V122.108ZM254.352 126.164V130.22H250.306V126.164H254.352ZM282.736 114.006H278.68V109.95H282.736V114.006ZM278.68 122.108H282.736V118.052H278.68V122.108ZM282.736 130.222H278.68V126.166H282.736V130.222ZM278.68 138.324H282.736V134.268H278.68V138.324ZM278.68 146.436H282.736V142.38H278.68V146.436Z" fill="#DEE3E9"/>
<path fill-rule="evenodd" clip-rule="evenodd" d="M139.651 219.407H136.793V222.265L170.42 255.893H173.279V253.035L139.651 219.407ZM164.684 255.893H158.948L136.793 233.738V228.002L164.684 255.893ZM147.475 255.893H153.212L136.793 239.475V245.211L147.475 255.893ZM136.793 255.893V250.947L141.738 255.893H136.793ZM173.279 247.299V241.562L151.124 219.408H145.387L173.279 247.299ZM173.279 230.09V235.826L156.86 219.407H162.596L173.279 230.09ZM168.333 219.407L173.279 224.353V219.407H168.333Z" fill="#F2F5F9"/>
<path fill-rule="evenodd" clip-rule="evenodd" d="M100.672 40.781L100.672 36.7251L137.157 36.7251L137.157 40.781L100.672 40.781ZM100.673 44.8328L100.673 48.8867L137.158 48.8868L137.158 44.8328L100.673 44.8328ZM100.673 52.9409L100.673 56.9948L137.158 56.9948L137.158 52.9409L100.673 52.9409ZM100.673 65.1026L100.673 61.0486L137.158 61.0486L137.158 65.1026L100.673 65.1026ZM100.673 69.1567L100.673 73.2106L137.158 73.2106L137.158 69.1567L100.673 69.1567Z" fill="#DEE3E9"/>
<path fill-rule="evenodd" clip-rule="evenodd" d="M96.2522 257.164L100.308 257.164L100.308 293.65L96.2522 293.65L96.2522 257.164ZM92.2005 257.165L88.1465 257.165L88.1465 293.651L92.2005 293.651L92.2005 257.165ZM84.0922 257.165L80.0382 257.165L80.0382 293.651L84.0922 293.651L84.0922 257.165ZM71.9304 257.165L75.9843 257.165L75.9843 293.651L71.9304 293.651L71.9304 257.165ZM67.8761 257.165L63.8221 257.165L63.8221 293.651L67.8761 293.651L67.8761 257.165Z" fill="#4038FF"/>
<path fill-rule="evenodd" clip-rule="evenodd" d="M100.307 186.978V182.922H63.8218V186.978H100.307ZM100.307 199.141V203.197H63.8218V199.141H100.307ZM100.307 211.305V207.249H63.8218V211.305H100.307ZM100.309 219.407V215.351H63.8229V219.407H100.309ZM100.307 191.034V195.09H63.8218V191.034H100.307Z" fill="#DEE3E9"/>
<path fill-rule="evenodd" clip-rule="evenodd" d="M31.3899 36.7251H27.3359C27.3359 56.8752 43.6714 73.2107 63.8216 73.2107V69.1567C45.9092 69.1567 31.3899 54.6374 31.3899 36.7251ZM39.4982 36.7253H35.4442C35.4442 52.398 48.1493 65.1031 63.8219 65.1031V61.0491C50.389 61.0491 39.4982 50.1582 39.4982 36.7253ZM43.5521 36.7252H47.6061C47.6061 45.6806 54.8665 52.941 63.8217 52.941V56.995C52.6267 56.995 43.5521 47.9203 43.5521 36.7252ZM55.714 36.7253H51.6603C51.6603 43.4428 57.1046 48.8871 63.822 48.8871V44.8332C59.3444 44.8332 55.714 41.2028 55.714 36.7253ZM63.8218 36.7251H59.7678C59.7678 38.9648 61.582 40.7791 63.8218 40.7791V36.7251Z" fill="white"/>
<path d="M225.779 335.412H137.05L138.912 215.937L99.0293 135.393L120.854 90.2271L124.925 69.4414C125.704 65.5008 128.043 61.9932 131.377 59.7847C137.18 55.9307 144.628 55.4977 150.821 58.7022L158.399 62.6428L167.839 61.1271L179.574 64.5048L191.483 74.3347L200.62 73.5986L211.186 76.8896L231.582 103.565L257.564 116.989L256.871 124.48L253.147 130.629L256.005 136.475L244.746 198.789L222.055 228.799L225.779 335.412Z" fill="#DEE3E9"/>
<path d="M182.085 335.239L161.386 235.814L214.433 249.324L219.413 335.412L182.085 335.239Z" fill="white"/>
<path d="M185.204 109.714L188.581 94.644L202.525 97.8052L194.557 113.698L185.204 109.714Z" fill="white"/>
<path d="M154.025 78.8382L163.985 73.5552C165.544 72.7324 167.406 72.7757 168.921 73.7284L169.008 73.7717C170.264 74.5512 171.086 75.807 171.303 77.236C171.476 78.4052 171.216 79.5744 170.61 80.5703L167.969 84.8574L165.544 84.0779L155.757 87.2824L154.025 78.8382Z" fill="white"/>
<path d="M199.494 130.629L205.729 118.894L209.194 120.323C213.091 121.925 214.52 126.775 212.052 130.196C210.276 132.708 207.028 133.661 204.214 132.491L199.494 130.629Z" fill="white"/>
<path d="M158.355 112.312L168.401 116.729L173.511 96.8092L158.355 112.312Z" fill="white"/>
<path d="M182.476 80.7869L191.526 75.6337L199.407 74.7244L208.804 78.0154L209.93 81.1766C207.115 85.0739 202.179 86.8494 197.545 85.5503L182.476 80.7869Z" fill="white"/>
<path d="M176.5 68.2721L178.275 66.6699L171.043 63.5953C169.831 63.0757 168.489 62.9458 167.189 63.2056L158.789 64.8944L159.352 65.8471C161.17 68.7917 164.245 70.7837 167.666 71.1734C170.914 71.4766 174.118 70.4373 176.5 68.2721Z" fill="white"/>
<path d="M130.77 113.178C122.37 118.028 119.425 128.724 124.188 137.168L149.218 181.598L160.91 153.017L130.77 113.178Z" fill="white"/>
<path d="M170.047 82.0859L158.095 86.6761C156.839 87.1525 155.453 86.4163 155.193 85.0739L153.158 86.1132L153.418 87.7154L157.618 89.8806L168.185 85.0739L170.047 82.0859Z" fill="black"/>
<path d="M210.752 108.458L217.551 96.8092L231.105 103.175L228.94 106.249C225.865 110.58 220.236 112.269 215.299 110.277L210.752 108.458Z" fill="white"/>
<path d="M130.598 77.6258C132.46 77.366 133.932 75.8937 134.192 73.9883C134.495 71.6933 136.097 69.7879 138.306 69.0084L153.202 63.6821L143.805 58.2691C141.9 57.1433 139.561 57.1 137.613 58.0959L133.499 59.6982C131.983 60.4776 130.857 61.8201 130.338 63.4223L126.744 78.1455L130.598 77.6258Z" fill="white"/>
<path d="M155.757 88.6681C154.415 87.9752 153.505 86.7194 153.246 85.2471C152.726 82.1725 149.608 80.2672 146.62 81.1333L131.724 85.6368C128.866 86.5029 127.74 89.9239 129.472 92.3056C132.72 96.7225 133.586 99.3641 139.128 99.4074C143.026 99.4074 168.315 84.9873 168.315 84.9873L159.914 88.798C158.615 89.4042 157.056 89.3176 155.757 88.6681Z" fill="white"/>
<path fill-rule="evenodd" clip-rule="evenodd" d="M255.702 114.174C258.646 116.642 259.253 120.886 257.131 124.091L255.269 126.732C253.796 128.984 253.58 131.842 254.749 134.267C255.399 135.523 255.658 136.995 255.485 138.424C254.403 147.994 249.899 185.928 244.486 198.616C241.715 205.198 227.728 221.783 227.728 221.783L227.641 335.845H219.63L214.563 243.175C214.563 237.373 209.887 232.696 204.084 232.696C202.092 232.696 200.187 233.259 198.498 234.298L190.313 239.408L175.937 221.783H219.153C219.153 221.783 229.027 208.619 231.278 203.682C231.798 202.557 232.318 201.214 232.881 199.742C236.432 190.128 240.589 173.673 243.49 161.548C245.439 153.364 239.939 145.266 231.582 144.097C227.121 143.447 222.661 144.963 219.5 148.124L215.256 152.368C213.351 154.273 210.666 155.226 207.981 154.966C204.603 154.62 201.702 152.411 200.49 149.25C199.84 147.604 198.368 146.392 196.636 146.089C187.932 144.573 180.57 152.541 182.822 161.072L184.641 168L148.309 122.705L127.003 131.279L130.728 113.178L166.366 90.6601C170.047 88.365 173.035 85.0739 174.984 81.2199L174.464 83.9048C173.641 88.1918 171.606 92.1757 168.662 95.4235L155.064 110.407L157.792 118.071L168.575 120.41L175.72 114.131L180.094 82.2159L184.164 75.1574L178.275 66.6699L171.433 64.0284C169.874 63.3789 168.142 63.249 166.496 63.5521L158.572 65.0244L156.883 69.4414C156.19 71.2601 157.662 73.2088 159.611 73.0356C161.69 72.8624 163.812 72.6891 164.201 72.7757C161.257 74.1182 135.188 81.8262 133.066 82.3891C132.893 82.3891 138.089 80.2673 142.853 78.3619C147.789 76.3699 151.773 72.6891 154.112 67.9257C154.155 67.8824 154.198 67.8391 154.198 67.7958C154.934 66.2802 154.371 64.4615 152.942 63.5954L143.416 58.0092C141.77 57.0566 139.735 56.9699 138.046 57.8793L134.148 59.9146C132.849 60.5641 131.594 61.3869 131.247 63.5954L124.622 88.7981C124.189 90.4003 123.626 92.0025 122.89 93.5181C119.728 100.014 110.678 118.851 106.651 128.637C105.265 132.015 105.265 135.826 106.651 139.247L120.335 172.461C122.89 178.133 126.354 183.416 130.554 188.05C137.093 195.325 145.321 200.911 154.501 204.375L167.492 209.269L162.079 217.323C160.217 220.094 157.099 221.783 153.722 221.783C148.092 221.783 143.545 226.374 143.632 231.96L140.817 335.845H130.121C130.121 335.845 138.739 231.657 136.097 221.783C131.161 203.076 108.773 157.954 100.458 141.412C98.4664 137.515 98.4231 132.881 100.328 128.941L119.079 90.0106L124.102 70.7405C125.401 65.8039 128.432 61.4735 132.719 58.6155L134.625 57.3164C138.392 54.8048 143.242 54.5449 147.226 56.6235L154.978 60.6508C157.143 61.7766 159.611 62.1664 161.993 61.7766L167.839 60.8673C170.394 60.4775 173.035 60.8673 175.33 62.0365L191.786 70.2208C193.908 71.2601 197.502 72.1262 199.883 72.1262C203.607 71.9097 207.245 73.1222 210.103 75.5472L255.702 114.174ZM181.22 126.949L189.534 130.413C190.963 130.976 192.565 130.932 193.951 130.283C195.033 129.763 195.899 128.94 196.462 127.858C199.927 121.146 208.111 106.379 208.587 105.99C208.587 105.99 210.32 103.305 212.008 100.707C214.217 97.2855 217.291 94.5141 220.886 92.6087L215.559 86.5462C211.229 81.6096 205.686 77.8855 199.45 75.807C194.254 76.3699 189.274 78.2753 184.987 81.3498L177.755 120.713C177.322 123.354 178.751 125.909 181.22 126.949ZM205.469 113.265L205.426 113.308L205.383 113.265C205.383 113.265 205.383 113.221 205.426 113.221C205.448 113.221 205.459 113.221 205.464 113.227C205.469 113.232 205.469 113.243 205.469 113.265ZM224.263 136.302L245.742 139.203C248.383 139.55 250.418 136.865 249.293 134.397C249.249 134.397 249.249 134.353 249.249 134.353C248.037 131.842 248.383 128.854 250.159 126.689C251.674 124.827 252.28 122.402 251.804 120.02L251.241 117.335C250.722 114.997 249.206 112.961 247.041 111.879L226.385 101.443C221.318 98.8445 215.169 100.75 212.398 105.73C205.946 117.378 196.029 136.649 196.029 136.649L207.678 142.624C209.54 143.577 211.748 143.75 213.74 143.144L214.043 143.057C216.988 142.148 219.153 139.593 219.586 136.519C219.976 133.92 221.578 131.669 223.917 130.499L242.667 121.016C245.179 119.717 248.21 120.107 250.332 121.969L224.263 136.302Z" fill="black"/>
<path d="M206.725 211.347H189.014V159.556H206.725C221.015 159.556 232.621 171.161 232.621 185.452C232.621 199.785 221.059 211.347 206.725 211.347Z" fill="white"/>
</g>
<defs>
<clipPath id="clip0">
<rect width="302" height="335.194" fill="white"/>
</clipPath>
</defs>
</svg>
