<svg width="464" height="572" viewBox="0 0 464 572" fill="none" xmlns="http://www.w3.org/2000/svg">
<g clip-path="url(#clip0)">
<path fill-rule="evenodd" clip-rule="evenodd" d="M421.939 263.292H415.723V257.076H421.939V250.844H415.723V244.613H421.939V238.397H428.171V232.165H421.939V238.381H415.723V232.165H421.939V225.93H415.707V232.162H409.491V238.378H403.26V232.162H397.028V238.378H390.812V232.162H397.028V225.93H390.796V232.162H384.58V225.93H378.345V232.162H384.577V238.378H378.345V244.61H384.577V250.842H378.345V257.073H384.577V263.289V263.305H390.793V269.521H397.024V263.305H403.256V269.521H409.488V263.305H415.704V269.521H421.936V263.305H428.168V257.073H421.936V263.292H421.939ZM384.577 263.308V269.524H378.345V263.292H384.577V263.308ZM403.256 232.162V225.93H409.488V232.162H403.256ZM421.939 244.61V250.841H428.171V244.61H421.939ZM390.793 238.393H384.577V244.61H390.793V238.393ZM390.808 269.524V275.756H397.025V269.524H403.256V275.756H409.488V269.524H415.72V275.756H421.936V269.524H428.168V275.756H421.936V281.987H415.705V275.756H409.488V281.987H403.256V275.756H397.025V281.987H390.793V275.756H384.577V281.987H378.345V275.756H384.577V269.524H390.808ZM415.704 257.076V250.844H409.488V257.076H415.704ZM403.256 257.076V263.292H409.488V257.076H403.256ZM397.024 257.076H403.256V250.844H397.024V257.076ZM397.024 257.076H390.808V263.292H397.024V257.076ZM397.024 244.61H390.808V250.841H397.024V244.61ZM403.256 244.61V238.393H397.024V244.61H403.256ZM409.492 244.61H403.26V250.841H409.492V244.61ZM409.492 244.61H415.708V238.393H409.492V244.61ZM390.793 250.841V257.073H384.577V250.841H390.793ZM434.403 232.162H428.171V225.93H434.403V232.162ZM428.171 244.61H434.403V238.378H428.171V244.61ZM434.403 257.076H428.171V250.844H434.403V257.076ZM428.171 269.524H434.403V263.292H428.171V269.524ZM428.171 281.988H434.403V275.756H428.171V281.988Z" fill="#DEE3E9"/>
<path fill-rule="evenodd" clip-rule="evenodd" d="M214.563 394.103H210.173V398.494L261.838 450.16H266.23V445.769L214.563 394.103ZM253.025 450.16H244.212L210.173 416.121V407.307L253.025 450.16ZM226.585 450.16H235.398L210.173 424.934V433.748L226.585 450.16ZM210.173 450.16V442.561L217.771 450.16H210.173ZM266.23 436.956V428.142L232.191 394.103H223.377L266.23 436.956ZM266.23 410.515V419.329L241.004 394.103H249.817L266.23 410.515ZM258.631 394.103L266.23 401.701V394.103H258.631Z" fill="#F2F5F9"/>
<path fill-rule="evenodd" clip-rule="evenodd" d="M154.676 119.657L154.676 113.425L210.733 113.425L210.733 119.657L154.676 119.657ZM154.676 125.882L154.676 132.111L210.733 132.111L210.733 125.882L154.676 125.882ZM154.676 138.339L154.676 144.568L210.733 144.568L210.733 138.339L154.676 138.339ZM154.676 157.025L154.676 150.796L210.733 150.796L210.733 157.025L154.676 157.025ZM154.676 163.254L154.676 169.482L210.733 169.482L210.733 163.254L154.676 163.254Z" fill="#DEE3E9"/>
<path fill-rule="evenodd" clip-rule="evenodd" d="M91.8258 452.113L98.0574 452.113L98.0574 508.171L91.8258 508.171L91.8258 452.113ZM85.6003 452.114L79.3717 452.114L79.3717 508.172L85.6003 508.172L85.6003 452.114ZM73.143 452.114L66.9144 452.114L66.9144 508.172L73.143 508.172L73.143 452.114ZM54.4573 452.114L60.6859 452.114L60.6859 508.172L54.4573 508.172L54.4573 452.114ZM48.2284 452.114L41.9998 452.114L41.9998 508.172L48.2284 508.172L48.2284 452.114Z" fill="#4038FF"/>
<path fill-rule="evenodd" clip-rule="evenodd" d="M154.115 344.277V338.045H98.0574V344.277H154.115ZM154.115 362.966V369.197H98.0574V362.966H154.115ZM154.115 381.655V375.423H98.0574V381.655H154.115ZM154.116 394.103V387.871H98.0583V394.103H154.116ZM154.115 350.509V356.74H98.0574V350.509H154.115Z" fill="#DEE3E9"/>
<path fill-rule="evenodd" clip-rule="evenodd" d="M48.2287 113.425H42C42 144.384 67.0982 169.483 98.0574 169.483V163.254C70.5364 163.254 48.2287 140.946 48.2287 113.425ZM60.6864 113.426H54.4578C54.4578 137.505 73.9781 157.026 98.0579 157.026V150.797C77.4194 150.797 60.6864 134.064 60.6864 113.426ZM66.9151 113.425H73.1437C73.1437 127.184 84.2989 138.34 98.0578 138.34V144.568C80.8576 144.568 66.9151 130.626 66.9151 113.425ZM85.6008 113.425H79.3726C79.3726 123.747 87.7373 132.111 98.0581 132.111V125.883C91.1786 125.883 85.6008 120.305 85.6008 113.425ZM98.0578 113.425H91.8292C91.8292 116.866 94.6166 119.654 98.0578 119.654V113.425Z" fill="white"/>
<path d="M346.892 572.335H210.567L213.427 388.771L152.151 265.021L185.683 195.627L191.937 163.691C193.135 157.637 196.728 152.248 201.851 148.855C210.766 142.933 222.21 142.268 231.724 147.191L243.367 153.246L257.871 150.917L275.902 156.107L294.198 171.209L308.237 170.078L324.471 175.135L355.807 216.119L395.727 236.744L394.662 248.254L388.941 257.702L393.332 266.684L376.033 362.424L341.17 408.531L346.892 572.335Z" fill="#DEE3E9"/>
<path d="M279.76 572.068L247.958 419.31L329.46 440.068L337.111 572.335L279.76 572.068Z" fill="white"/>
<path d="M284.551 225.567L289.74 202.413L311.164 207.27L298.922 231.688L284.551 225.567Z" fill="white"/>
<path d="M236.648 178.129L251.95 170.012C254.345 168.748 257.206 168.814 259.535 170.278L259.668 170.345C261.597 171.542 262.862 173.472 263.194 175.667C263.46 177.463 263.061 179.26 262.13 180.79L258.071 187.377L254.345 186.179L239.309 191.103L236.648 178.129Z" fill="white"/>
<path d="M306.506 257.702L316.087 239.672L321.41 241.867C327.398 244.329 329.593 251.781 325.801 257.037C323.073 260.896 318.083 262.359 313.758 260.563L306.506 257.702Z" fill="white"/>
<path d="M243.301 229.559L258.736 236.345L266.587 205.74L243.301 229.559Z" fill="white"/>
<path d="M280.36 181.123L294.265 173.205L306.374 171.808L320.812 176.865L322.542 181.722C318.217 187.709 310.632 190.437 303.513 188.441L280.36 181.123Z" fill="white"/>
<path d="M271.178 161.895L273.906 159.433L262.795 154.709C260.932 153.911 258.87 153.711 256.874 154.11L243.966 156.705L244.831 158.169C247.626 162.693 252.349 165.754 257.605 166.352C262.595 166.818 267.519 165.221 271.178 161.895Z" fill="white"/>
<path d="M200.919 230.889C188.012 238.341 183.487 254.774 190.806 267.748L229.262 336.011L247.226 292.099L200.919 230.889Z" fill="white"/>
<path d="M261.264 183.119L242.901 190.171C240.972 190.903 238.843 189.772 238.444 187.709L235.317 189.306L235.716 191.768L242.17 195.095L258.403 187.709L261.264 183.119Z" fill="black"/>
<path d="M323.805 223.637L334.251 205.74L355.075 215.52L351.749 220.244C347.025 226.897 338.376 229.492 330.791 226.432L323.805 223.637Z" fill="white"/>
<path d="M200.653 176.266C203.514 175.867 205.776 173.605 206.176 170.677C206.641 167.151 209.103 164.224 212.496 163.026L235.384 154.843L220.946 146.526C218.018 144.796 214.426 144.73 211.432 146.26L205.111 148.722C202.782 149.919 201.053 151.982 200.254 154.443L194.732 177.064L200.653 176.266Z" fill="white"/>
<path d="M239.309 193.232C237.246 192.167 235.849 190.238 235.45 187.976C234.652 183.252 229.861 180.324 225.271 181.655L202.383 188.574C197.992 189.905 196.262 195.161 198.923 198.82C203.913 205.607 205.244 209.665 213.76 209.732C219.748 209.732 258.603 187.576 258.603 187.576L245.696 193.431C243.7 194.363 241.305 194.23 239.309 193.232Z" fill="white"/>
<path fill-rule="evenodd" clip-rule="evenodd" d="M392.866 232.42C397.39 236.212 398.322 242.732 395.061 247.656L392.201 251.714C389.939 255.174 389.606 259.565 391.402 263.291C392.4 265.22 392.799 267.482 392.533 269.678C390.87 284.382 383.951 342.664 375.634 362.158C371.376 372.271 349.886 397.753 349.886 397.753L349.753 573H337.444L329.66 430.62C329.66 421.705 322.474 414.519 313.559 414.519C310.499 414.519 307.571 415.384 304.976 416.981L292.402 424.832L270.313 397.753H336.712C336.712 397.753 351.882 377.527 355.342 369.943C356.14 368.213 356.938 366.15 357.803 363.888C363.259 349.118 369.646 323.835 374.104 305.206C377.098 292.632 368.648 280.19 355.807 278.394C348.954 277.396 342.102 279.724 337.245 284.581L330.724 291.101C327.797 294.029 323.672 295.493 319.547 295.093C314.357 294.561 309.9 291.168 308.037 286.311C307.039 283.783 304.777 281.92 302.115 281.454C288.742 279.126 277.432 291.368 280.892 304.474L283.686 315.12L227.865 245.527L195.131 258.7L200.853 230.889L255.609 196.292C261.264 192.766 265.855 187.71 268.849 181.788L268.051 185.913C266.787 192.5 263.66 198.621 259.135 203.611L238.244 226.631L242.436 238.408L259.002 242L269.98 232.353L276.7 183.318L282.954 172.474L273.906 159.433L263.394 155.375C260.998 154.377 258.337 154.177 255.809 154.643L243.633 156.905L241.039 163.691C239.974 166.486 242.236 169.48 245.23 169.214C248.424 168.947 251.684 168.681 252.283 168.814C247.758 170.877 207.706 182.72 204.445 183.585C204.179 183.585 212.163 180.324 219.482 177.397C227.067 174.337 233.188 168.681 236.78 161.363C236.847 161.296 236.914 161.23 236.914 161.163C238.045 158.834 237.18 156.04 234.984 154.709L220.347 146.127C217.818 144.663 214.691 144.53 212.097 145.927L206.109 149.054C204.113 150.052 202.183 151.316 201.651 154.709L191.472 193.431C190.806 195.893 189.941 198.355 188.81 200.683C183.953 210.663 170.048 239.605 163.861 254.642C161.732 259.831 161.732 265.686 163.861 270.942L184.885 321.973C188.81 330.688 194.133 338.805 200.587 345.924C210.633 357.102 223.274 365.684 237.379 371.007L257.339 378.525L249.022 390.9C246.162 395.158 241.371 397.753 236.182 397.753C227.532 397.753 220.547 404.806 220.68 413.388L216.355 573H199.921C199.921 573 213.161 412.923 209.103 397.753C201.518 369.011 167.121 299.684 154.346 274.269C151.286 268.281 151.219 261.162 154.147 255.107L182.955 195.294L190.673 165.687C192.669 158.103 197.326 151.449 203.913 147.058L206.841 145.062C212.629 141.203 220.081 140.804 226.202 143.998L238.111 150.185C241.438 151.915 245.23 152.514 248.889 151.915L257.871 150.518C261.797 149.919 265.855 150.518 269.381 152.314L294.664 164.889C297.924 166.486 303.446 167.816 307.105 167.816C312.827 167.484 318.416 169.347 322.807 173.072L392.866 232.42ZM278.43 252.047L291.204 257.369C293.4 258.234 295.862 258.168 297.991 257.17C299.654 256.371 300.985 255.107 301.85 253.444C307.172 243.131 319.747 220.444 320.479 219.845C320.479 219.845 323.14 215.72 325.735 211.728C329.128 206.472 333.852 202.213 339.374 199.286L331.19 189.972C324.537 182.387 316.021 176.665 306.44 173.471C298.456 174.336 290.805 177.264 284.218 181.988L273.108 242.466C272.442 246.524 274.638 250.45 278.43 252.047ZM315.688 231.022L315.621 231.089L315.555 231.022C315.555 231.022 315.555 230.956 315.621 230.956C315.646 230.956 315.661 230.956 315.671 230.959C315.675 230.96 315.677 230.962 315.68 230.964C315.688 230.972 315.688 230.989 315.688 231.022ZM344.563 266.418L377.564 270.875C381.622 271.408 384.749 267.283 383.019 263.49C382.953 263.49 382.953 263.424 382.953 263.424C381.09 259.565 381.622 254.974 384.35 251.647C386.679 248.786 387.61 245.061 386.878 241.401L386.013 237.276C385.215 233.684 382.886 230.557 379.56 228.893L347.824 212.859C340.039 208.867 330.592 211.794 326.334 219.446C316.42 237.343 301.184 266.95 301.184 266.95L319.081 276.131C321.942 277.595 325.336 277.861 328.396 276.93L328.862 276.797C333.386 275.399 336.713 271.474 337.378 266.75C337.977 262.758 340.438 259.299 344.031 257.502L372.84 242.932C376.699 240.936 381.356 241.534 384.616 244.395L344.563 266.418Z" fill="black"/>
<path d="M317.618 381.719H290.406V302.146H317.618C339.573 302.146 357.404 319.976 357.404 341.932C357.404 363.954 339.64 381.719 317.618 381.719Z" fill="white"/>
</g>
<defs>
<clipPath id="clip0">
<rect width="464" height="572" fill="white"/>
</clipPath>
</defs>
</svg>
