<svg xmlns="http://www.w3.org/2000/svg" width="330" height="332" viewBox="0 0 330 332">
  <g fill="none" fill-rule="evenodd">
    <path fill="#261EE4" d="M143.330071 189.805067L140.003381 189.805067 140.003381 193.131733 143.330071 193.131733 143.330071 196.466667 140.003381 196.466667 140.003381 199.8016 143.330071 199.8016 143.330071 203.128267 146.665036 203.128267 146.665036 206.4632 143.330071 206.4632 143.330071 203.136533 140.003381 203.136533 140.003381 206.4632 143.330071 206.4632 143.330071 209.8 139.995107 209.8 139.995107 206.465067 136.668416 206.465067 136.668416 203.1384 133.333452 203.1384 133.333452 206.465067 129.998488 206.465067 129.998488 203.1384 126.671797 203.1384 126.671797 206.465067 129.998488 206.465067 129.998488 209.8 126.663256 209.8 126.663256 206.465067 123.336833 206.465067 123.336833 209.8 120 209.8 120 206.465067 123.334964 206.465067 123.334964 203.1384 120 203.1384 120 199.8032 123.334964 199.8032 123.334964 196.468267 120 196.468267 120 193.133333 123.334964 193.133333 123.334964 189.806667 123.334964 189.7984 126.661655 189.7984 126.661655 186.471733 129.996619 186.471733 129.996619 189.7984 133.331584 189.7984 133.331584 186.471733 136.666815 186.471733 136.666815 189.7984 139.993505 189.7984 139.993505 186.471733 143.32847 186.471733 143.32847 189.7984 146.663434 189.7984 146.663434 193.133333 143.32847 193.133333 143.32847 189.805067 143.330071 189.805067zM123.334964 189.7968L123.334964 186.469867 120 186.469867 120 189.805067 123.334964 189.805067 123.334964 189.7968zM133.331584 206.465067L133.331584 209.8 136.666815 209.8 136.666815 206.465067 133.331584 206.465067zM143.330071 199.8032L143.330071 196.468267 146.665036 196.468267 146.665036 199.8032 143.330071 199.8032zM126.661655 203.130133L123.334964 203.130133 123.334964 199.8032 126.661655 199.8032 126.661655 203.130133zM126.669929 186.469867L126.669929 183.134933 129.996619 183.134933 129.996619 186.469867 133.331584 186.469867 133.331584 183.134933 136.666815 183.134933 136.666815 186.469867 140.001779 186.469867 140.001779 183.134933 143.32847 183.134933 143.32847 186.469867 146.663434 186.469867 146.663434 183.134933 143.32847 183.134933 143.32847 179.8 139.993505 179.8 139.993505 183.134933 136.666815 183.134933 136.666815 179.8 133.331584 179.8 133.331584 183.134933 129.996619 183.134933 129.996619 179.8 126.661655 179.8 126.661655 183.134933 123.334964 183.134933 123.334964 179.8 120 179.8 120 183.134933 123.334964 183.134933 123.334964 186.469867 126.669929 186.469867zM139.993505 193.131733L139.993505 196.466667 136.666815 196.466667 136.666815 193.131733 139.993505 193.131733zM133.331584 193.131733L133.331584 189.805067 136.666815 189.805067 136.666815 193.131733 133.331584 193.131733zM129.996619 193.131733L133.331584 193.131733 133.331584 196.466667 129.996619 196.466667 129.996619 193.131733zM129.996619 193.131733L126.669929 193.131733 126.669929 189.805067 129.996619 189.805067 129.996619 193.131733zM129.996619 199.8032L126.669929 199.8032 126.669929 196.468267 129.996619 196.468267 129.996619 199.8032zM133.331584 199.8032L133.331584 203.130133 129.996619 203.130133 129.996619 199.8032 133.331584 199.8032zM136.668416 199.8032L133.333452 199.8032 133.333452 196.468267 136.668416 196.468267 136.668416 199.8032zM136.668416 199.8032L139.995107 199.8032 139.995107 203.130133 136.668416 203.130133 136.668416 199.8032zM126.661655 196.468267L126.661655 193.133333 123.334964 193.133333 123.334964 196.468267 126.661655 196.468267zM150 206.465067L146.665036 206.465067 146.665036 209.8 150 209.8 150 206.465067zM146.665036 199.8032L150 199.8032 150 203.1384 146.665036 203.1384 146.665036 199.8032zM150 193.131733L146.665036 193.131733 146.665036 196.466667 150 196.466667 150 193.131733zM146.665036 186.469867L150 186.469867 150 189.805067 146.665036 189.805067 146.665036 186.469867zM146.665036 179.8L150 179.8 150 183.134933 146.665036 183.134933 146.665036 179.8zM293.330071 189.805067L290.003381 189.805067 290.003381 193.131733 293.330071 193.131733 293.330071 196.466667 290.003381 196.466667 290.003381 199.8016 293.330071 199.8016 293.330071 203.128267 296.665036 203.128267 296.665036 206.4632 293.330071 206.4632 293.330071 203.136533 290.003381 203.136533 290.003381 206.4632 293.330071 206.4632 293.330071 209.8 289.995107 209.8 289.995107 206.465067 286.668416 206.465067 286.668416 203.1384 283.333452 203.1384 283.333452 206.465067 279.998488 206.465067 279.998488 203.1384 276.671797 203.1384 276.671797 206.465067 279.998488 206.465067 279.998488 209.8 276.663256 209.8 276.663256 206.465067 273.336833 206.465067 273.336833 209.8 270 209.8 270 206.465067 273.334964 206.465067 273.334964 203.1384 270 203.1384 270 199.8032 273.334964 199.8032 273.334964 196.468267 270 196.468267 270 193.133333 273.334964 193.133333 273.334964 189.806667 273.334964 189.7984 276.661655 189.7984 276.661655 186.471733 279.996619 186.471733 279.996619 189.7984 283.331584 189.7984 283.331584 186.471733 286.666815 186.471733 286.666815 189.7984 289.993505 189.7984 289.993505 186.471733 293.32847 186.471733 293.32847 189.7984 296.663434 189.7984 296.663434 193.133333 293.32847 193.133333 293.32847 189.805067 293.330071 189.805067zM273.334964 189.7968L273.334964 186.469867 270 186.469867 270 189.805067 273.334964 189.805067 273.334964 189.7968zM283.331584 206.465067L283.331584 209.8 286.666815 209.8 286.666815 206.465067 283.331584 206.465067zM293.330071 199.8032L293.330071 196.468267 296.665036 196.468267 296.665036 199.8032 293.330071 199.8032zM276.661655 203.130133L273.334964 203.130133 273.334964 199.8032 276.661655 199.8032 276.661655 203.130133zM276.669929 186.469867L276.669929 183.134933 279.996619 183.134933 279.996619 186.469867 283.331584 186.469867 283.331584 183.134933 286.666815 183.134933 286.666815 186.469867 290.001779 186.469867 290.001779 183.134933 293.32847 183.134933 293.32847 186.469867 296.663434 186.469867 296.663434 183.134933 293.32847 183.134933 293.32847 179.8 289.993505 179.8 289.993505 183.134933 286.666815 183.134933 286.666815 179.8 283.331584 179.8 283.331584 183.134933 279.996619 183.134933 279.996619 179.8 276.661655 179.8 276.661655 183.134933 273.334964 183.134933 273.334964 179.8 270 179.8 270 183.134933 273.334964 183.134933 273.334964 186.469867 276.669929 186.469867zM289.993505 193.131733L289.993505 196.466667 286.666815 196.466667 286.666815 193.131733 289.993505 193.131733zM283.331584 193.131733L283.331584 189.805067 286.666815 189.805067 286.666815 193.131733 283.331584 193.131733zM279.996619 193.131733L283.331584 193.131733 283.331584 196.466667 279.996619 196.466667 279.996619 193.131733zM279.996619 193.131733L276.669929 193.131733 276.669929 189.805067 279.996619 189.805067 279.996619 193.131733zM279.996619 199.8032L276.669929 199.8032 276.669929 196.468267 279.996619 196.468267 279.996619 199.8032zM283.331584 199.8032L283.331584 203.130133 279.996619 203.130133 279.996619 199.8032 283.331584 199.8032zM286.668416 199.8032L283.333452 199.8032 283.333452 196.468267 286.668416 196.468267 286.668416 199.8032zM286.668416 199.8032L289.995107 199.8032 289.995107 203.130133 286.668416 203.130133 286.668416 199.8032zM276.661655 196.468267L276.661655 193.133333 273.334964 193.133333 273.334964 196.468267 276.661655 196.468267zM300 206.465067L296.665036 206.465067 296.665036 209.8 300 209.8 300 206.465067zM296.665036 199.8032L300 199.8032 300 203.1384 296.665036 203.1384 296.665036 199.8032zM300 193.131733L296.665036 193.131733 296.665036 196.466667 300 196.466667 300 193.131733zM296.665036 186.469867L300 186.469867 300 189.805067 296.665036 189.805067 296.665036 186.469867zM296.665036 179.8L300 179.8 300 183.134933 296.665036 183.134933 296.665036 179.8z"/>
    <path fill="#FFF" d="M83.3300712,10.0050667 L80.0033808,10.0050667 L80.0033808,13.3317333 L83.3300712,13.3317333 L83.3300712,16.6666667 L80.0033808,16.6666667 L80.0033808,20.0016 L83.3300712,20.0016 L83.3300712,23.3282667 L86.6650356,23.3282667 L86.6650356,26.6632 L83.3300712,26.6632 L83.3300712,23.3365333 L80.0033808,23.3365333 L80.0033808,26.6632 L83.3300712,26.6632 L83.3300712,30 L79.9951068,30 L79.9951068,26.6650667 L76.6684164,26.6650667 L76.6684164,23.3384 L73.333452,23.3384 L73.333452,26.6650667 L69.9984875,26.6650667 L69.9984875,23.3384 L66.6717972,23.3384 L66.6717972,26.6650667 L69.9984875,26.6650667 L69.9984875,30 L66.6632562,30 L66.6632562,26.6650667 L63.3368327,26.6650667 L63.3368327,30 L60,30 L60,26.6650667 L63.3349644,26.6650667 L63.3349644,23.3384 L60,23.3384 L60,20.0032 L63.3349644,20.0032 L63.3349644,16.6682667 L60,16.6682667 L60,13.3333333 L63.3349644,13.3333333 L63.3349644,10.0066667 L63.3349644,9.9984 L66.6616548,9.9984 L66.6616548,6.67173333 L69.9966192,6.67173333 L69.9966192,9.9984 L73.3315836,9.9984 L73.3315836,6.67173333 L76.6668149,6.67173333 L76.6668149,9.9984 L79.9935053,9.9984 L79.9935053,6.67173333 L83.3284698,6.67173333 L83.3284698,9.9984 L86.6634342,9.9984 L86.6634342,13.3333333 L83.3284698,13.3333333 L83.3284698,10.0050667 L83.3300712,10.0050667 Z M63.3349644,9.9968 L63.3349644,6.66986667 L60,6.66986667 L60,10.0050667 L63.3349644,10.0050667 L63.3349644,9.9968 Z M73.3315836,26.6650667 L73.3315836,30 L76.6668149,30 L76.6668149,26.6650667 L73.3315836,26.6650667 Z M83.3300712,20.0032 L83.3300712,16.6682667 L86.6650356,16.6682667 L86.6650356,20.0032 L83.3300712,20.0032 Z M66.6616548,23.3301333 L63.3349644,23.3301333 L63.3349644,20.0032 L66.6616548,20.0032 L66.6616548,23.3301333 Z M66.6699288,6.66986667 L66.6699288,3.33493333 L69.9966192,3.33493333 L69.9966192,6.66986667 L73.3315836,6.66986667 L73.3315836,3.33493333 L76.6668149,3.33493333 L76.6668149,6.66986667 L80.0017794,6.66986667 L80.0017794,3.33493333 L83.3284698,3.33493333 L83.3284698,6.66986667 L86.6634342,6.66986667 L86.6634342,3.33493333 L83.3284698,3.33493333 L83.3284698,0 L79.9935053,0 L79.9935053,3.33493333 L76.6668149,3.33493333 L76.6668149,0 L73.3315836,0 L73.3315836,3.33493333 L69.9966192,3.33493333 L69.9966192,0 L66.6616548,0 L66.6616548,3.33493333 L63.3349644,3.33493333 L63.3349644,0 L60,0 L60,3.33493333 L63.3349644,3.33493333 L63.3349644,6.66986667 L66.6699288,6.66986667 Z M79.9935053,13.3317333 L79.9935053,16.6666667 L76.6668149,16.6666667 L76.6668149,13.3317333 L79.9935053,13.3317333 Z M73.3315836,13.3317333 L73.3315836,10.0050667 L76.6668149,10.0050667 L76.6668149,13.3317333 L73.3315836,13.3317333 Z M69.9966192,13.3317333 L73.3315836,13.3317333 L73.3315836,16.6666667 L69.9966192,16.6666667 L69.9966192,13.3317333 Z M69.9966192,13.3317333 L66.6699288,13.3317333 L66.6699288,10.0050667 L69.9966192,10.0050667 L69.9966192,13.3317333 Z M69.9966192,20.0032 L66.6699288,20.0032 L66.6699288,16.6682667 L69.9966192,16.6682667 L69.9966192,20.0032 Z M73.3315836,20.0032 L73.3315836,23.3301333 L69.9966192,23.3301333 L69.9966192,20.0032 L73.3315836,20.0032 Z M76.6684164,20.0032 L73.333452,20.0032 L73.333452,16.6682667 L76.6684164,16.6682667 L76.6684164,20.0032 Z M76.6684164,20.0032 L79.9951068,20.0032 L79.9951068,23.3301333 L76.6684164,23.3301333 L76.6684164,20.0032 Z M66.6616548,16.6682667 L66.6616548,13.3333333 L63.3349644,13.3333333 L63.3349644,16.6682667 L66.6616548,16.6682667 Z M90,26.6650667 L86.6650356,26.6650667 L86.6650356,30 L90,30 L90,26.6650667 Z M86.6650356,20.0032 L90,20.0032 L90,23.3384 L86.6650356,23.3384 L86.6650356,20.0032 Z M90,13.3317333 L86.6650356,13.3317333 L86.6650356,16.6666667 L90,16.6666667 L90,13.3317333 Z M86.6650356,6.66986667 L90,6.66986667 L90,10.0050667 L86.6650356,10.0050667 L86.6650356,6.66986667 Z M86.6650356,0 L90,0 L90,3.33493333 L86.6650356,3.33493333 L86.6650356,0 Z"/>
    <path fill="#261EE4" d="M176.665036 179.8L180 179.8 180 149.8 176.665036 149.8 176.665036 179.8zM173.333274 179.8L169.999911 179.8 169.999911 149.8 173.333274 149.8 173.333274 179.8zM166.666815 179.8L163.333452 179.8 163.333452 149.8 166.666815 149.8 166.666815 179.8zM156.666726 179.8L160.000089 179.8 160.000089 149.8 156.666726 149.8 156.666726 179.8zM153.333363 179.8L150 179.8 150 149.8 153.333363 149.8 153.333363 179.8zM180.5 242.834933L180.5 239.5 150.5 239.5 150.5 242.834933 180.5 242.834933zM180.5 246.166667L180.5 249.5 150.5 249.5 150.5 246.166667 180.5 246.166667zM180.5 252.833333L180.5 256.166667 150.5 256.166667 150.5 252.833333 180.5 252.833333zM180.5 262.833333L180.5 259.5 150.5 259.5 150.5 262.833333 180.5 262.833333zM180.5 266.166667L180.5 269.5 150.5 269.5 150.5 266.166667 180.5 266.166667zM150 63.1349333L150 59.8 120 59.8 120 63.1349333 150 63.1349333zM150 66.4666667L150 69.8 120 69.8 120 66.4666667 150 66.4666667zM150 73.1333333L150 76.4666667 120 76.4666667 120 73.1333333 150 73.1333333zM150 83.1333333L150 79.8 120 79.8 120 83.1333333 150 83.1333333zM150 86.4666667L150 89.8 120 89.8 120 86.4666667 150 86.4666667zM270 153.134933L270 149.8 240 149.8 240 153.134933 270 153.134933zM270 156.466667L270 159.8 240 159.8 240 156.466667 270 156.466667zM270 163.133333L270 166.466667 240 166.466667 240 163.133333 270 163.133333zM270 173.133333L270 169.8 240 169.8 240 173.133333 270 173.133333zM270 176.466667L270 179.8 240 179.8 240 176.466667 270 176.466667zM150 146.465013L150 149.8 120 149.8 120 146.465013 150 146.465013zM150 136.463333L150 133.128347 120 133.128347 120 136.463333 150 136.463333zM150 126.46168L150 129.796667 120 129.796667 120 126.46168 150 126.46168zM150 119.8L150 123.135013 120 123.135013 120 119.8 150 119.8zM150 143.13L150 139.794987 120 139.794987 120 143.13 150 143.13zM93.333363 239.8L90 239.8C90 223.231733 103.431673 209.8 120 209.8L120 213.133333C105.271708 213.133333 93.333363 225.071733 93.333363 239.8zM100.000089 239.8L96.666726 239.8C96.666726 226.913333 107.113345 216.466667 120 216.466667L120 219.8C108.954982 219.8 100.000089 228.754933 100.000089 239.8zM103.333452 239.8L106.666815 239.8C106.666815 232.436533 112.636655 226.466667 120 226.466667L120 223.133333C110.795018 223.133333 103.333452 230.594933 103.333452 239.8zM113.333274 239.8L110.000178 239.8C110.000178 234.276533 114.47669 229.8 120 229.8L120 233.133333C116.318327 233.133333 113.333274 236.1184 113.333274 239.8zM120 239.8L116.666637 239.8C116.666637 237.9584 118.158363 236.466667 120 236.466667L120 239.8z"/>
    <path fill="#FFF" d="M303.333363,119.8 L300,119.8 C300,103.231733 313.431673,89.8 330,89.8 L330,93.1333333 C315.271708,93.1333333 303.333363,105.071733 303.333363,119.8 Z M310.000089,119.8 L306.666726,119.8 C306.666726,106.913333 317.113345,96.4666667 330,96.4666667 L330,99.8 C318.954982,99.8 310.000089,108.754933 310.000089,119.8 Z M313.333452,119.8 L316.666815,119.8 C316.666815,112.436533 322.636655,106.466667 330,106.466667 L330,103.133333 C320.795018,103.133333 313.333452,110.594933 313.333452,119.8 Z M323.333274,119.8 L320.000178,119.8 C320.000178,114.276533 324.47669,109.8 330,109.8 L330,113.133333 C326.318327,113.133333 323.333274,116.1184 323.333274,119.8 Z M330,119.8 L326.666637,119.8 C326.666637,117.9584 328.158363,116.466667 330,116.466667 L330,119.8 Z" transform="rotate(90 315 104.8)"/>
    <path fill="#261EE4" fill-rule="nonzero" d="M210,119 L210,149 L240,149 C240,132.431733 226.568327,119 210,119 Z" transform="rotate(90 225 134)"/>
    <path fill="#261EE4" fill-rule="nonzero" d="M30,179.8 L60,179.8 L60,149.8 C43.4316726,149.8 30,163.231733 30,179.8 Z"/>
    <path fill="#261EE4" fill-rule="nonzero" d="M210.3,299.8 L240.3,299.8 L240.3,269.8 C223.731673,269.8 210.3,283.231733 210.3,299.8 Z" transform="rotate(-180 225.3 284.8)"/>
    <path fill="#FFF" d="M93.3349644,300 L90,300 L90,270 L93.3349644,270 L93.3349644,300 Z M103.336655,300 L106.671619,300 L106.671619,270 L103.336655,270 L103.336655,300 Z M113.338345,300 L110.003381,300 L110.003381,270 L113.338345,270 L113.338345,300 Z M120,300 L116.665036,300 L116.665036,270 L120,270 L120,300 Z M96.6699288,300 L100.004893,300 L100.004893,270 L96.6699288,270 L96.6699288,300 Z"/>
    <path fill="#261EE4" d="M3.33496441 239.8L0 239.8 0 209.8 3.33496441 209.8 3.33496441 239.8zM13.3366548 239.8L16.6716192 239.8 16.6716192 209.8 13.3366548 209.8 13.3366548 239.8zM23.3383452 239.8L20.0033808 239.8 20.0033808 209.8 23.3383452 209.8 23.3383452 239.8zM30 239.8L26.6650356 239.8 26.6650356 209.8 30 209.8 30 239.8zM6.66992883 239.8L10.0048932 239.8 10.0048932 209.8 6.66992883 209.8 6.66992883 239.8zM243.634964 59.8L240.3 59.8 240.3 29.8 243.634964 29.8 243.634964 59.8zM253.636655 59.8L256.971619 59.8 256.971619 29.8 253.636655 29.8 253.636655 59.8zM263.638345 59.8L260.303381 59.8 260.303381 29.8 263.638345 29.8 263.638345 59.8zM270.3 59.8L266.965036 59.8 266.965036 29.8 270.3 29.8 270.3 59.8zM246.969929 59.8L250.304893 59.8 250.304893 29.8 246.969929 29.8 246.969929 59.8z"/>
    <path fill="#261EE4" d="M93.3349644,59.8 L90,59.8 L90,29.8 L93.3349644,29.8 L93.3349644,59.8 Z M103.336655,59.8 L106.671619,59.8 L106.671619,29.8 L103.336655,29.8 L103.336655,59.8 Z M113.338345,59.8 L110.003381,59.8 L110.003381,29.8 L113.338345,29.8 L113.338345,59.8 Z M120,59.8 L116.665036,59.8 L116.665036,29.8 L120,29.8 L120,59.8 Z M96.6699288,59.8 L100.004893,59.8 L100.004893,29.8 L96.6699288,29.8 L96.6699288,59.8 Z" transform="rotate(-90 105 44.8)"/>
    <g fill-rule="nonzero" transform="translate(84 44)">
      <path fill="#C4C3C7" d="M126.544464,279.511776 L38.0274912,279.511776 L39.8850912,160.322976 L0.097874784,79.970976 L21.8706912,34.9132896 L25.9314912,14.1772896 C26.7090912,10.2460896 29.0418912,6.7468896 32.3682912,4.5436896 C38.1570912,0.69890688 45.587664,0.26690688 51.765264,3.46370688 L59.325264,7.3948896 L68.742864,5.8828896 L80.450064,9.2524896 L92.330064,19.0588896 L101.445264,18.3244896 L111.986064,21.6076896 L132.333264,48.218976 L158.253264,61.610976 L157.562064,69.084576 L153.846864,75.218976 L156.698064,81.050976 L145.466064,143.215776 L122.829264,173.153376 L126.544464,279.511776 Z"/>
      <polygon fill="#FFF" points="82.956 279.339 62.306 180.152 115.226 193.63 120.194 279.512"/>
      <polygon fill="#FFF" points="86.066 54.353 89.436 39.32 103.346 42.473 95.397 58.328"/>
      <path fill="#FFF" d="M54.962064 23.5516896L64.898064 18.2812896C66.453264 17.4604896 68.310864 17.5036896 69.822864 18.4540896L69.909264 18.4972896C71.162064 19.2748896 71.982864 20.5276896 72.198864 21.9532896 72.371664 23.1196896 72.112464 24.2860896 71.507664 25.2796896L68.872464 29.5564896 66.453264 28.7788896 56.690064 31.9756896 54.962064 23.5516896zM100.322064 75.218976L106.542864 63.511776 109.998864 64.937376C113.886864 66.535776 115.312464 71.374176 112.850064 74.786976 111.078864 77.292576 107.838864 78.242976 105.030864 77.076576L100.322064 75.218976z"/>
      <polygon fill="#FFF" points="59.282 56.945 69.304 61.352 74.402 41.48"/>
      <path fill="#FFF" d="M83.344464 25.4956896L92.373264 20.3548896 100.235664 19.4476896 109.610064 22.7308896 110.733264 25.8844896C107.925264 29.7724896 103.000464 31.5436896 98.378064 30.2476896L83.344464 25.4956896zM77.382864 13.0108464L79.154064 11.4124464 71.939664 8.3452464C70.730064 7.8268464 69.390864 7.6972464 68.094864 7.9564464L59.714064 9.6412464 60.275664 10.5916464C62.090064 13.5292464 65.157264 15.5164464 68.570064 15.9052464 71.810064 16.2076464 75.006864 15.1708464 77.382864 13.0108464zM31.7634912 57.809376C23.3826912 62.647776 20.4450912 73.318176 25.1970912 81.742176L50.166864 126.065376 61.830864 97.553376 31.7634912 57.809376z"/>
      <path fill="#101010" d="M70.946064,26.7916896 L59.022864,31.3708896 C57.770064,31.8460896 56.387664,31.1116896 56.128464,29.7724896 L54.098064,30.8092896 L54.357264,32.4076896 L58.547664,34.5676896 L69.088464,29.7724896 L70.946064,26.7916896 Z"/>
      <path fill="#FFF" d="M111.554064 53.100576L118.336464 41.4796896 131.858064 47.830176 129.698064 50.897376C126.630864 55.217376 121.014864 56.902176 116.090064 54.914976L111.554064 53.100576zM31.5906912 22.3421328C33.4482912 22.0829328 34.9170912 20.6141328 35.1762912 18.7133328 35.4786912 16.4237328 37.0770912 14.5229328 39.2802912 13.7453328L54.141264 8.4317328 44.766864 3.03171984C42.8658912 1.90851984 40.5330912 1.86531984 38.5890912 2.85891984L34.4850912 4.4573328C32.9730912 5.2349328 31.8498912 6.5741328 31.3314912 8.1725328L27.7458912 22.8605328 31.5906912 22.3421328zM56.690064 33.3581328C55.350864 32.6669328 54.443664 31.4141328 54.184464 29.9453328 53.666064 26.8781328 50.555664 24.9773328 47.574864 25.8413328L32.7138912 30.3341328C29.8626912 31.1981328 28.7394912 34.6109328 30.4674912 36.9869328 33.7074912 41.3933328 34.5714912 44.028576 40.1010912 44.071776 43.989264 44.071776 69.218064 29.6861328 69.218064 29.6861328L60.837264 33.4877328C59.541264 34.0925328 57.986064 34.0061328 56.690064 33.3581328z"/>
      <path fill="#000" d="M33.7075344,3.37728096 L35.6083344,2.08128096 C39.2678291,-0.358382619 43.9513526,-0.668321278 47.8641357,1.23122066 L48.179664,1.39008096 L55.912464,5.4076896 C57.9587798,6.47177381 60.2765017,6.87672894 62.5350448,6.58582332 L62.910864,6.5308896 L68.742864,5.6236896 C71.1575166,5.25535276 73.6497139,5.5849173 75.8521392,6.61238323 L76.216464,6.7900896 L92.632464,14.9548896 C94.749264,15.9916896 98.334864,16.8556896 100.710864,16.8556896 C104.297954,16.6471379 107.804499,17.767564 110.608367,20.0225513 L110.906064,20.2684896 L156.395664,58.802976 C159.264948,61.2081109 159.908672,65.3030223 157.964537,68.4710966 L157.821264,68.695776 L155.963664,71.330976 C154.494864,73.577376 154.278864,76.428576 155.445264,78.847776 C156.093264,80.100576 156.352464,81.569376 156.179664,82.994976 L155.856221,85.8022046 C154.37501,98.4359002 150.174864,131.397984 145.206864,143.042976 C142.931664,148.446576 133.0795,160.608009 129.661539,164.745734 L128.488464,166.154976 L129.000001,287 L30.0000014,287.5 C36.1544697,211.972081 38.5135141,171.523739 37.0771344,166.154976 C32.1523344,147.492576 9.8179344,102.478176 1.52352144,85.975776 C-0.403460378,82.2055942 -0.502475254,77.7448471 1.22647681,73.8934223 L1.39392144,73.534176 L20.0995344,34.6972896 L25.1107344,15.4732896 C26.3674617,10.697726 29.2490484,6.49086315 33.3221989,3.64050396 L35.6083344,2.08128096 L33.7075344,3.37728096 Z M53.882064,8.3452896 L44.378064,2.77248096 C42.8109585,1.86528096 40.8897132,1.74532063 39.252953,2.52531838 L39.0211344,2.64288096 L35.1331344,4.6732896 C33.8889744,5.2953696 32.6846275,6.07670208 32.2845057,8.08746371 L32.2387344,8.3452896 L25.6291344,33.4876896 C25.1971344,35.0860896 24.6355344,36.6844896 23.9011344,38.1964896 L21.1545375,43.8838587 C17.0906774,52.3527405 10.8534052,65.5714191 7.7011344,73.231776 C6.36810583,76.4810331 6.32049767,80.1319842 7.55830991,83.4486685 L7.7011344,83.815776 L21.3523344,116.950176 C23.9011344,122.609376 27.3571344,127.879776 31.5475344,132.502176 C37.9034729,139.573684 45.8590421,145.045684 54.7346584,148.518562 L55.437264,148.788576 L68.397264,153.670176 L62.997264,161.705376 C61.1995866,164.380989 58.2286313,166.045155 54.9849118,166.149737 L54.659664,166.154976 C49.137264,166.154976 44.659164,170.582808 44.5935796,176.029181 L44.594064,176.306976 L41.8000014,279.389 L120.336001,278.587 L115.355664,187.495776 C115.355664,181.801874 110.841781,177.194648 105.185038,177.045122 L104.901264,177.041376 C103.038264,177.041376 101.251202,177.53497 99.6468636,178.450966 L99.328464,178.639776 L91.163664,183.737376 L76.821264,166.154976 L119.934864,166.154976 L121.655277,163.82619 C124.532391,159.893641 130.178623,152.002694 131.943094,148.285862 L132.030864,148.097376 C132.549264,146.974176 133.067664,145.634976 133.629264,144.166176 C137.171664,134.575776 141.318864,118.159776 144.213264,106.063776 C146.157264,97.898976 140.670864,89.820576 132.333264,88.654176 C128.007264,88.024176 123.681264,89.4358427 120.546236,92.4127871 L120.280464,92.671776 L116.046864,96.905376 C114.146064,98.806176 111.467664,99.756576 108.789264,99.497376 C105.419664,99.151776 102.525264,96.948576 101.315664,93.794976 C100.667664,92.153376 99.198864,90.943776 97.470864,90.641376 C88.878114,89.145126 81.5968093,96.9136026 83.6229765,105.322819 L83.690064,105.588576 L85.504464,112.500576 L49.259664,67.313376 L28.0051344,75.866976 L31.7203344,57.809376 L67.274064,35.3452896 C70.8048332,33.1437511 73.6965492,30.0235736 75.6419748,26.3688035 L75.870864,25.9276896 L75.352464,28.6060896 C74.5632332,32.7183973 72.6556593,36.5511192 69.8985746,39.7202089 L69.563664,40.0972896 L55.998864,55.044576 L58.720464,62.690976 L69.477264,65.023776 L76.605264,58.759776 L80.968464,26.9212896 L85.029264,19.8796896 L79.154064,11.4124896 L72.328464,8.7772896 C70.876944,8.1724896 69.274896,8.0192736 67.7330592,8.2473952 L67.403664,8.3020896 L59.498064,9.7708896 L57.813264,14.1772896 C57.122064,15.9916896 58.590864,17.9356896 60.534864,17.7628896 L62.7085111,17.5883588 C63.9086112,17.4992659 64.865232,17.4483936 65.114064,17.5036896 L64.8874454,17.6010478 C61.0448594,19.1774509 36.1234113,26.5448325 34.0531344,27.0940896 C33.8936267,27.0940896 38.298493,25.2904257 42.7147872,23.5179083 L43.816464,23.0764896 C48.741264,21.0892896 52.715664,17.4172896 55.048464,12.6652896 C55.091664,12.6220896 55.134864,12.5788896 55.134864,12.5356896 C55.8410178,11.0818434 55.3489468,9.34841149 54.0426974,8.44912838 L53.882064,8.3452896 L44.378064,2.77248096 L53.882064,8.3452896 Z M147.755664,56.513376 L127.149264,46.102176 C122.094864,43.510176 115.960464,45.410976 113.195664,50.378976 L111.797711,52.9219093 C106.450631,62.7138692 99.5694196,75.9890992 97.4887758,80.0166978 L96.866064,81.223776 L108.486864,87.185376 C110.246696,88.0857549 112.316706,88.2882325 114.219382,87.7928087 L114.837264,87.617376 C117.774864,86.710176 119.934864,84.161376 120.366864,81.094176 C120.741778,78.5947474 122.241435,76.416674 124.439753,75.2184466 L124.686864,75.089376 L143.392464,65.628576 C145.814544,64.375776 148.72104,64.697328 150.824213,66.39812 L151.038864,66.578976 L125.032464,80.878176 L146.459664,83.772576 C149.094864,84.118176 151.125264,81.439776 150.002064,78.977376 C149.958864,78.977376 149.958864,78.934176 149.958864,78.934176 C148.790974,76.514976 149.072879,73.6527834 150.687927,71.5140991 L150.866064,71.287776 C152.315064,69.507576 152.930889,67.211601 152.561452,64.9321573 L152.507664,64.634976 L151.946064,61.956576 C151.4484,59.717088 150.035034,57.7562918 148.011731,56.6474964 L147.755664,56.513376 L127.149264,46.102176 L147.755664,56.513376 Z M100.278864,20.5276896 C95.2800069,21.0692325 90.4819967,22.8560263 86.3109158,25.7331322 L85.850064,26.0572896 L78.635664,65.326176 C78.2167549,67.8815215 79.5445698,70.3556239 81.8706885,71.4485958 L82.091664,71.546976 L90.386064,75.002976 C91.811664,75.564576 93.410064,75.521376 94.792464,74.873376 C95.872464,74.354976 96.736464,73.534176 97.298064,72.454176 L97.8159612,71.4578078 C101.505487,64.4034718 108.941226,51.0086795 109.394064,50.638176 L112.806864,45.367776 C114.918264,42.0970932 117.823164,39.4216148 121.217389,37.531374 L121.662864,37.2892896 L116.349264,31.2412896 C112.029264,26.3164896 106.499664,22.6012896 100.278864,20.5276896 Z"/>
      <path fill="#FFF" d="M107.536464,155.743776 L89.867664,155.743776 L89.867664,104.076576 L107.536464,104.076576 C121.792464,104.076576 133.370064,115.654176 133.370064,129.910176 C133.370064,144.209376 121.835664,155.743776 107.536464,155.743776 Z"/>
    </g>
  </g>
</svg>
