<svg xmlns="http://www.w3.org/2000/svg" width="310" height="561" viewBox="0 0 310 561">
  <g fill="none">
    <path fill="#C4C3C7" d="M246.24864,546 L73.8661004,546 L77.4836869,313.345842 L0,156.500342 L42.4015109,68.5486375 L50.3097232,28.0723794 C51.8240617,20.3987555 56.3670773,13.568387 62.8450811,9.26778456 C74.1184901,1.76284544 88.5891726,0.919590067 100.619751,7.15967985 L115.342487,14.83327 L133.682809,11.8818762 L156.482017,18.4592682 L179.617744,37.6011652 L197.369157,36.1676311 L217.896857,42.5763719 L257.522049,94.5210717 L308,120.661988 L306.653921,135.250306 L299.418748,147.224533 L304.971323,158.60848 L283.097544,279.952929 L239.013467,338.390526 L246.24864,546 Z"/>
    <polygon fill="#FFF" points="161.309 544.663 121 351 224.302 377.317 234 545"/>
    <polygon fill="#FFF" points="168 106.264 174.63 77 202 83.139 186.36 114"/>
    <path fill="#FFF" d="M107 45.4761863L126.539424 35.1382105C129.597769 33.5281979 133.250792 33.6129354 136.224182 35.4771606L136.39409 35.5618981C138.857757 37.0871732 140.471883 39.5445609 140.896653 42.3408986 141.236469 44.6288112 140.726745 46.9167239 139.537389 48.8656865L134.355194 57.2546997 129.597769 55.7294245 110.398161 62 107 45.4761863zM196 146.482984L208.217715 124 215.005334 126.73778C222.641406 129.807413 225.441299 139.099273 220.60512 145.653353 217.126466 150.46521 210.763072 152.290397 205.248131 150.050395L196 146.482984z"/>
    <polygon fill="#FFF" points="116 111.352 135.223 120 145 81"/>
    <path fill="#FFF" d="M163 49.8586783L180.471609 39.7788017 195.68612 38 213.826498 44.4375682 216 50.6210219C210.566246 58.2444579 201.036278 61.7173565 192.091483 59.1762112L163 49.8586783zM150.537778 25.2023043L154 22.0565938 139.897778 16.0202304C137.533333 15 134.915556 14.7449424 132.382222 15.2550576L116 18.5708065 117.097778 20.4412289C120.644444 26.2225347 126.64 30.133418 133.311111 30.8985908 139.644444 31.4937252 145.893333 29.4532644 150.537778 25.2023043zM62.2678012 113C45.8971387 122.427848 40.1589684 143.21962 49.4413028 159.634177L98.2160883 246 121 190.443038 62.2678012 113z"/>
    <path fill="#101010" d="M138,52 L114.646154,60.8333333 C112.192308,61.75 109.484615,60.3333333 108.976923,57.75 L105,59.75 L105.507692,62.8333333 L113.715385,67 L134.361538,57.75 L138,52 Z"/>
    <path fill="#FFF" d="M217 103.812134L230.361702 81 257 93.4661876 252.744681 99.4871895C246.702128 107.967474 235.638298 111.274785 225.93617 107.373854L217 103.812134zM61.4287566 42.9987968C65.0179311 42.4981952 67.8558831 39.6614527 68.3566982 35.9903742 68.9409824 31.5683933 72.0293419 27.8973149 76.2862698 26.39551L105 16.133177 86.887189 5.70395179C83.2142114 3.53467814 78.7068759 3.45124454 74.950763 5.37021738L67.0211914 8.45728567C64.0997702 9.9590905 61.9295717 12.5455322 60.9279416 15.6325754L54 44 61.4287566 42.9987968zM110.621821 65.0834215C108.015877 63.7339702 106.250561 61.2880899 105.746185 58.420506 104.737433 52.4323161 98.6849191 48.7213252 92.8845937 50.4081393L63.966693 59.1795723C58.4185556 60.8663863 56.2329258 67.5293018 59.5954332 72.1680405 65.9001348 80.7707921 67.5813885 85.9156593 78.3414125 86 85.9073906 86 135 57.9144618 135 57.9144618L118.691839 65.3364436C116.169958 66.5172134 113.143701 66.348532 110.621821 65.0834215z"/>
    <path fill="#000" d="M65.6860652,6.59010221 L69.3901652,4.06121178 C76.5214438,-0.699314372 85.6482531,-1.30409903 93.2731164,2.40248541 L93.8879882,2.71247021 L108.95694,10.5520474 C112.944608,12.6283996 117.461166,13.4185903 121.862402,12.8509449 L122.594763,12.7437525 L133.959615,10.9735292 C138.665063,10.2547919 143.521622,10.8978726 147.813501,12.9027713 L148.523463,13.2495305 L180.513418,29.1815403 C184.638438,31.2046526 191.625718,32.8905796 196.255843,32.8905796 C203.246025,32.4836317 210.079251,34.6699241 215.543164,39.0700905 L216.123288,39.5499911 L304.769136,114.742502 C310.360525,119.435652 311.614955,127.426071 307.826407,133.607948 L307.547211,134.046366 L303.927295,139.188443 C301.065036,143.571853 300.644115,149.135412 302.917086,153.856007 C304.179847,156.300601 304.684952,159.166677 304.348215,161.948457 L303.71792,167.426214 C300.831475,192.078399 292.646627,256.397457 282.965456,279.12038 C278.531761,289.664448 259.332791,313.395105 252.67219,321.469066 L250.386213,324.218926 L251.383046,560.024347 L58.4611714,561 C70.4544214,413.622042 75.0515056,334.695017 72.2524243,324.218926 C62.6554379,287.802904 19.132263,199.96611 2.96889227,167.764905 C-0.786228388,160.408133 -0.979179251,151.703857 2.39003968,144.188555 L2.71634,143.487557 L39.1680766,67.7049712 L48.9334311,30.1930965 C51.3824228,20.8745184 56.9977877,12.6656487 64.9351596,7.1037304 L69.3901652,4.06121178 L65.6860652,6.59010221 Z M105.000288,16.2841991 L86.4797882,5.40995334 C83.4259605,3.63973004 79.6820187,3.40565092 76.4924547,4.92766392 L76.0407083,5.1570643 L68.4641402,9.1190095 C66.0396384,10.3328769 63.6927206,11.8574944 62.9130008,15.7811023 L62.8238061,16.2841991 L49.9436402,65.3446735 C49.1017993,68.4636384 48.0074061,71.5826032 46.5762766,74.5329754 L41.2239672,85.6307636 C33.3046995,102.156129 21.1500909,127.949794 15.0072425,142.897482 C12.409562,149.237772 12.3167877,156.361888 14.7289196,162.833749 L15.0072425,163.550087 L41.6094152,228.205386 C46.5762766,239.248208 53.3110038,249.532362 61.4768606,258.552071 C73.8627148,272.350735 89.3657787,283.028272 106.661744,289.804915 L108.030915,290.331794 L133.286143,299.857282 L122.763131,315.536402 C119.259987,320.757338 113.470469,324.004633 107.149414,324.208703 L106.515602,324.218926 C95.7540688,324.218926 87.0275694,332.858974 86.8997647,343.486505 L86.9007086,344.028568 L81.4559027,545.17297 L234.499462,543.608024 L224.794249,365.861322 C224.794249,354.750787 215.998019,345.760687 204.974691,345.468915 L204.421699,345.461606 C200.79126,345.461606 197.308801,346.424758 194.182419,348.212145 L193.561952,348.580571 L177.651159,358.52754 L149.70204,324.218926 L233.717763,324.218926 L237.070341,319.674756 C242.67699,312.001156 253.679836,296.603517 257.118271,289.350846 L257.289308,288.983053 C258.299518,286.791348 259.309727,284.178161 260.40412,281.312085 C267.307215,262.598296 275.388888,230.565684 281.029222,206.962706 C284.817506,191.030697 274.126127,175.26728 257.878597,172.991278 C249.448496,171.761957 241.018394,174.516548 234.909148,180.325472 L234.391236,180.830839 L226.141195,189.091881 C222.437095,192.80092 217.217681,194.65544 211.998268,194.149662 C205.431908,193.475291 199.791574,189.176177 197.43442,183.022544 C196.171658,179.819282 193.309399,177.458985 189.942036,176.86891 C173.197294,173.949271 159.008173,189.107933 162.956577,205.516874 L163.087311,206.035447 L166.623043,219.522862 L95.9925904,131.348882 L54.5737652,148.039559 L61.813597,112.803686 L131.097356,68.9694165 C137.977787,64.6735449 143.612891,58.5851289 147.403953,51.4535601 L147.84999,50.5928126 L146.839781,55.8191862 C145.301803,63.8435501 141.584502,71.322357 136.211755,77.5062154 L135.559113,78.2420147 L109.125309,107.40872 L114.428906,122.329173 L135.390745,126.881176 L149.28112,114.658206 L157.783713,52.5316286 L165.697018,38.7913239 L154.247981,22.2692398 L140.946895,17.1271625 C138.118309,15.9470137 134.996389,15.6480426 131.991803,16.0931773 L131.349909,16.1999027 L115.94422,19.0659785 L112.66104,27.664206 C111.314095,31.2046526 114.176354,34.9979883 117.964638,34.6608029 L122.200437,34.3202403 C124.539079,34.1463929 126.403251,34.0471255 126.888152,34.1550248 L126.446539,34.3450002 C118.958469,37.4210426 70.3938986,51.7970462 66.3595379,52.868814 C66.0487043,52.868814 74.6324928,49.3493168 83.238551,45.8905958 L85.385395,45.0292537 C94.9823813,41.1516217 102.727318,33.9864321 107.273259,24.7138339 C107.357443,24.6295375 107.441627,24.5452412 107.441627,24.4609448 C108.817713,21.6240485 107.858811,18.2415952 105.313315,16.4868201 L105.000288,16.2841991 L86.4797882,5.40995334 L105.000288,16.2841991 Z M287.932317,110.274795 L247.776506,89.9593757 C237.926968,84.9015948 225.972827,88.6106341 220.585045,98.3047141 L217.860847,103.266751 C207.440961,122.373845 194.031503,148.277859 189.976941,156.13693 L188.763458,158.492306 L211.408979,170.125202 C214.838373,171.882116 218.872213,172.277211 222.579971,171.310488 L223.78404,170.968166 C229.508558,169.197943 233.717763,164.224458 234.559604,158.239417 C235.290202,153.362272 238.212592,149.112187 242.496466,146.774081 L242.978013,146.522225 L279.429724,128.061325 C284.149646,125.616731 289.813551,126.244177 293.912016,129.562939 L294.330308,129.915845 L243.651486,157.817936 L285.406795,163.465791 C290.542024,164.140162 294.498677,158.913788 292.30989,154.108896 C292.225706,154.108896 292.225706,154.0246 292.225706,154.0246 C289.949833,149.304005 290.499181,143.718996 293.646436,139.545772 L293.993572,139.104146 C296.817247,135.630434 298.017308,131.150288 297.297383,126.7024 L297.192567,126.122509 L296.098174,120.896135 C295.128374,116.526213 292.374139,112.700103 288.431318,110.536505 L287.932317,110.274795 L247.776506,89.9593757 L287.932317,110.274795 Z M195.414002,40.0557692 C185.6727,41.1124841 176.322789,44.5990628 168.19458,50.2131719 L167.296515,50.8457017 L153.237772,127.47125 C152.421442,132.457507 155.008962,137.285234 159.541883,139.417955 L159.972499,139.609925 L176.135845,146.353632 C178.91392,147.449485 182.028731,147.365189 184.722622,146.100743 C186.827224,145.089187 188.510906,143.487557 189.605299,141.380148 L190.614529,139.43593 C197.804329,125.670774 212.294397,99.5334573 213.176845,98.8104922 L219.827388,88.5263377 C223.941885,82.1442402 229.602681,76.9235674 236.217027,73.2351324 L237.085127,72.7627521 L226.730483,60.9612634 C218.312074,51.3514798 207.536511,44.1019939 195.414002,40.0557692 Z"/>
    <path fill="#FFF" d="M209.523337,304 L175,304 L175,203 L209.523337,203 C237.378352,203 260,225.632107 260,253.5 C260,281.452341 237.462761,304 209.523337,304 Z"/>
  </g>
</svg>
