<svg width="22" height="22" viewBox="0 0 22 22" fill="none" xmlns="http://www.w3.org/2000/svg">
<path fill-rule="evenodd" clip-rule="evenodd" d="M11 21.5C16.799 21.5 21.5 16.799 21.5 11C21.5 5.20101 16.799 0.5 11 0.5C5.20101 0.5 0.5 5.20101 0.5 11C0.5 16.799 5.20101 21.5 11 21.5ZM18.5 11C18.5 15.1421 15.1421 18.5 11 18.5C9.47138 18.5 8.04956 18.0427 6.86391 17.2574L17.2574 6.86391C18.0427 8.04956 18.5 9.47138 18.5 11ZM4.74259 15.1361L15.1361 4.74259C13.9504 3.95732 12.5286 3.5 11 3.5C6.85786 3.5 3.5 6.85786 3.5 11C3.5 12.5286 3.95732 13.9504 4.74259 15.1361Z" fill="#FF695F"/>
</svg>
