<svg xmlns="http://www.w3.org/2000/svg" viewBox="0 0 681.46 509.47">
    <defs>
        <pattern id="lines" data-name="lines" width="16" height="16" patternTransform="translate(46 474.67)" patternUnits="userSpaceOnUse">
            <path fill="none" d="M0 0h16v16H0z"/>
            <path class="cls-2" d="M1.98 78.02l66-66M-14.02 78.02l66-66M-30.02 78.02l66-66M-46.02 78.02l66-66M-62.02 78.02l66-66M1.98 62.02l66-66M-14.02 62.02l66-66M-30.02 62.02l66-66M-46.02 62.02l66-66M-62.02 62.02l66-66M1.98 46.02l66-66M-14.02 46.02l66-66M-30.02 46.02l66-66M-46.02 46.02l66-66M-62.02 46.02l66-66M1.98 30.02l66-66M-14.02 30.02l66-66M-30.02 30.02l66-66M-46.02 30.02l66-66M-62.02 30.02l66-66M1.98 14.02l66-66M-14.02 14.02l66-66M-30.02 14.02l66-66M-46.02 14.02l66-66M-62.02 14.02l66-66"/>
        </pattern>
        <style>
            .cls-2,.cls-4{fill:none}.cls-2,.cls-3,.cls-4{stroke:currentColor;stroke-linecap:square;stroke-miterlimit:10}.cls-2{stroke-width:2px}.cls-3,.cls-4{stroke-width:12px}.cls-3{fill:url(#lines)}
        </style>
    </defs>
    <g id="Layer_2" data-name="Layer 2">
        <g id="Layer_32" data-name="Layer 32">
            <path class="cls-3" d="M110 85.68c0-23.4 17.44-42.37 38.95-42.37C164.53 43.31 179 58 179 85.68z"/>
            <path class="cls-4" d="M179 190.68V95.85m-27-52.54h258v.34m47 259c0 19.73-.5 45.88-.5 94.89M410 43.65a51.7 51.7 0 016-.34c21 0 40.5 18.26 40.5 52.54v53.83M405.41 346.65c14.48-28.72 20-37.84 58.1-97.22C493.84 202.19 540.91 123.8 600.35 63"/>
            <path class="cls-4" d="M418.82 301.39s-22-36.38 5.63-85.73l20.83 15.68-5.46-43.1L511.6 59.67a116.66 116.66 0 01161.18-35.18L502.07 251.18A175.69 175.69 0 01438 303.75"/>
            <path class="cls-3" d="M265 449.68h192c29 0 61-23 61-52H265"/>
            <path class="cls-4" d="M190.45 288.59q23.73 5.28 52.5 14.48a34.53 34.53 0 0123.93 35l-8 130.29a34.51 34.51 0 01-31.14 32.25c-39.73 3.82-142.82 3.82-182.55 0a34.52 34.52 0 01-31.15-32.25l-8-130.29a34.52 34.52 0 0123.93-35q28-8.94 51.17-14.18M96 259a45 45 0 01-45-45c0 13.26 38.28 24 85.5 24s85.5-10.76 85.5-24a45 45 0 01-31.32 42.91"/>
            <path class="cls-4" d="M33.5 337.68C38.92 341 51.9 346 82.6 346h123.3c14.7 0 27.6-3.92 33.1-8.36M10.5 405.2c0-10.78 22.56-19.52 50.4-19.52h151.2c27.84 0 50.4 8.74 50.4 19.52"/>
            <ellipse class="cls-4" cx="137" cy="202.68" rx="54" ry="11.57"/>
            <ellipse class="cls-4" cx="136.5" cy="213.94" rx="85.5" ry="24.02"/>
            <path class="cls-4" d="M130 298.68s-21.34.72-31-1c-19-3.37-18-8.34-18-9.79v-27.42a3 3 0 013-3 2.59 2.59 0 01.48 0m54.52 7.12c15.81 0 26.12 0 49.8-7.12 1.53-.46 1.31.95 1.64 2.57a3.05 3.05 0 01.06.6V288c0 4.64-9.59 9.93-23.38 9.93"/>
            <path class="cls-3" d="M10.5 403.2c0 10.78 22.56 19.51 50.4 19.51h151.2c27.84 0 50.4-8.73 50.4-19.51l-3 48.92c0 14.92-22 27-49.2 27H62.7c-27.17 0-49.2-12.1-49.2-27z"/>
            <path class="cls-4" d="M246 117.68h148M246 167.02h148M246 216.35h148M246 265.68h87.82"/>
        </g>
    </g>
</svg>
