<svg viewBox="0 0 127 104" xmlns="http://www.w3.org/2000/svg">
  <g fill="none" fill-rule="evenodd">
    <path d="M15.76716599 58.02935823c.88770504-.51343577 5.49055276-4.05356386 7.46206245-6.29124112 4.11776167 9.03114624 15.94620843 43.8903596 22.6343513 49.45954226 4.39702164 3.75577248 9.05223103 3.41546445 12.6411874.80916644 5.34563325-3.88199562 14.7105351-9.7484112 22.34167582-15.55582475 3.67071082-2.79346656 7.69998233-5.1239388 9.29719244-8.01108453 2.67850038-4.84170565-2.88637536-10.93593038-8.15849244-14.15626162-1.92222696-1.17414075-2.37291378-.38335643-4.67227453.94656053-2.65625337-4.60901539-5.06853319-12.275625-8.17179363-19.49900916-4.21905107-9.820583-10.2026234-21.4371693-12.20060627-24.90398234-3.46756952-6.01677598-10.32674994-11.80478816-13.55417905-9.93808997-10.59864267 6.1301014-35.0229412 22.45153123-39.00006841 24.75184401-5.17806852 2.99491984-5.27099165 9.71585486-1.89163344 15.57957037 3.37935812 5.86371557 8.09450984 9.80372971 13.27257836 6.80880988z" fill="#000"/>
    <path d="M10.50003638 34.94408037l33.48595038-20.8884758c3.74905388.4867694 8.27364035 5.32842225 13.57375932 14.52495838 2.94209569 5.10499661-13.92319602 21.08183909-10.80535982 28.3462664.88048552 2.05149426 19.70968981-6.13592624 22.80701749-2.63414633 1.84196739 2.0824933 3.42670088 6.21234543 4.75420075 12.38955644-17.14311756 11.10561139-26.45730182 17.26237342-27.94255294 18.47028621-1.48525104 1.20791274-2.26163617 3.25752625-2.32915536 6.14884039-5.39063847-13.04672671-9.79837847-24.09160895-13.22322005-33.13464657-1.99253126-5.26112958-6.84481818-14.16314066-10.70457103-18.5741065-2.57316852-2.94064381-5.77852477-4.49015468-9.61606874-4.64853262z" fill="#C4C3C6"/>
    <path d="M28.29361775 43.67263382c9.12394004-7.16643116 15.3705069-11.71776543 18.73970057-13.65400295 5.05379046-2.90435618 5.46886235-2.85199316.24391577 1.89669255-5.22494657 4.7486857-8.671986 6.8797819-13.80820044 10.06084425-3.42414288 2.12070822-5.14928154 2.68619691-5.1754159 1.69646615z" fill="#000"/>
    <path d="M21.95957087 38.3543309c-5.10311229-2.10232095-8.93748016-3.22190931-11.5031038-3.3587652L43.7806008 14.1666578c2.2976131.32832923 4.90367306 2.30857647 7.81817987 5.94074174-16.3573984 13.56616832-26.23713502 19.64847871-29.6392098 18.24693136zM11.36367051 39.02471448c1.0636077.24496835 4.67963115.40632662 7.0247171 4.46813461 1.17906728 2.04220446 2.2963139 5.08732955 2.94456638 7.15165139-4.28483622 3.688329-7.48295798 6.6127485-8.2745376 6.18320788 1.36142324-1.31856227 2.01170223-2.92759636 1.950837-4.82710216-.04813852-1.50232435-.56527496-4.4032528-2.21648256-6.91632951-2.12442755-3.23329996-4.6382174-3.0405109-5.26091536-3.20377332l3.83181504-2.8557889z" fill="#FFF"/>
    <path d="M21.36424304 50.6474283c-4.30323491 3.68422468-7.51617524 6.60412813-8.3041186 6.18323849 1.36819788-1.31601595 2.02791397-2.91553998 1.97914838-4.79857193-.02128183-.82177345-.25348208-2.86543495.85266354-5.0263991.7374304-1.44064275 1.75013892-2.29885593 3.03812543-2.57463945.98751932 1.94799763 1.88440656 4.4462107 2.43418125 6.216372zM7.23298835 44.2401958c1.4079349.44420976 2.56109154 1.44433316 3.45946994 3.00037019.21303096.36898045.40757984.73474853.58372804 1.0956371l-3.3305101 2.56909934c-.13047726-.13980564-.70052278-1.00133706-1.02141593-1.7691443-.27030635-.64676723-.69542277-2.04026514-.47576028-3.21900557.1780882-.95564683.71202867-1.6331077.78448833-1.67695676z" fill="#C4C3C6"/>
    <path d="M78.73148103 66.99673558c.58755558-.33948823 2.22301974.39151619 4.09834258 2.0844066 2.98781523 2.69715889 2.09407635 5.25206772.67020679 7.31313772-4.53168338 3.38044934-19.17025822 13.82225242-19.9299464 13.33854035-5.27922641 5.26369668-7.8829467 6.9459828-7.81116084 5.04685835.0567756-1.50202272-.5097794-2.01882804-1.98166135-4.64096543-1.89370895-3.37361637-4.41482362-3.35665007-5.0246161-3.562952l29.97883532-19.5790256z" fill="#FFF"/>
    <path d="M87.02235463 74.77158767c.8971632 3.7422409-16.32940176 13.1147327-20.6231947 16.17665312-4.293793 3.06192033-10.94823065 8.15992079-10.86552383 6.278074.03609408-.8212561-.05298192-2.87613682 1.2012104-4.9546762.80767454-1.33853726 9.42839937-10.58133521 17.15469637-16.10723873 5.15086457-3.68393564 7.53098975-6.47472277 7.14037546-8.37236135 4.37163258 1.7207502 5.42469997 5.99544235 5.9924363 6.97954916zM48.3697799 89.67051068c1.13373488.53716563 2.05504318 1.5324599 2.7639249 2.9858828.16809592.3446477.3212793.6845296.45963503 1.0181993l-2.72322557 1.88860698c-.1039398-.13586904-.55518146-.94829807-.8059667-1.65247662-.21125047-.59316914-.53919056-1.85448929-.34805393-2.85992307.15496126-.81514097.59457645-1.3497127.65368627-1.3802894z" fill="#C4C3C6"/>
    <path d="M28.29361775 43.67263382c9.12394004-7.16643116 15.3705069-11.71776543 18.73970057-13.65400295 5.05379046-2.90435618 5.46886235-2.85199316.24391577 1.89669255-5.22494657 4.7486857-8.671986 6.8797819-13.80820044 10.06084425-3.42414288 2.12070822-5.14928154 2.68619691-5.1754159 1.69646615zM35.27818904 56.00810733c7.61438705-6.06655009 12.85458527-9.88463037 15.72059459-11.4542408 4.2990139-2.35441564 4.6743183-2.27307754.36309102 1.80985982-4.31122727 4.08293736-7.23198791 5.83057955-11.58359598 8.43996694-2.90107198 1.73959156-4.40110186 2.1410629-4.50008963 1.20441404zM31.66022463 49.79351684c4.71848805-3.9565584 8.02808686-6.36797756 9.9287965-7.23425737 2.85106444-1.29941984 3.1500796-1.16249627.59171467 1.64328148-2.55836489 2.80577783-4.46952183 3.81780894-7.31595538 5.33050542-1.89762224 1.00846432-2.96580761 1.09528784-3.2045558.26047047zM37.33001458 79.38257803l1.63846496 4.26834716c1.01862987-.24655497 1.7322968-.4861677 2.14100076-.71883828.82794627-.47134033 1.86515344-.66996993 1.26857753-.7587594-.30160903-.044889-1.60708256-.08809527-2.37588626-.07059394-.21733478.00494743-.4224755.01325883-.61697473.0247912 1.10233922-.42614352 2.24735817-.93367 3.5681208-1.60523272 3.39144483-1.72443378 3.12406842-1.79964301-.1482564-.96585835-.6554389.1670051-1.47946821.41973265-2.47208815.75818273.3017632-.2475662.6069773-.52646499.9207617-.84454232.62359706-.6321285 1.53859568-1.7523693 1.68110804-2.03360887.28188622-.55628565-.9047928.1840914-2.46928974.57414796-.78778889.19640963-1.83296835.65373126-3.13553851 1.37196483zM46.19932963 11.874314l3.10252522 4.11719003c-.82118117.80277667-1.46030235 1.32717273-1.91736353 1.57318822-.93774102.50474383-1.73948068 1.37128075-1.47162022.75150621.13542137-.31333744.86540434-1.5792631 1.3361792-2.299106.13308444-.20349401.26216824-.3933937.3880328-.57125965-1.05679357.79241214-2.2162695 1.57672049-3.63570732 2.42991995-3.6448222 2.19083941-3.55848454 1.89189658-.8318769-.71816923.546133-.52278986 1.273452-1.15448766 2.18195715-1.89509316-.41391512.13867032-.85969568.26188978-1.3478345.36983174-.97009884.21451745-2.5769802.41407725-2.92888482.3813434-.6960596-.06474666.70968588-.74944367 2.00511228-2.00244076.64650315-.62532807 1.68633005-1.33763168 3.11948064-2.13691075z" fill="#000"/>
    <g>
      <path d="M86.34170452 33.7918907c-.84563463.00437844-1.6913266.00405277-2.536973.00525883-.1012417.00337326-.20248347.00674646-.30380448.01022872-.04594318-.03288018-.13275292-.06964181-.13000974-.09778794.00916763-.08891865.07763974-.0439997.12774869-.0282412.08307252-.02323448.16633253-.04649938.24948421-.06984298 1.53704334-.38023798 3.07654693-.75019634 4.61026014-1.14384393 1.14501413-.29390307 2.35072543-.39917253 3.42848774-.89546335 1.60045779-.73696328 3.1528753-1.57976521 4.72688517-2.37507496 1.6554112-.836743-.40767668.26824042 1.33991487-.61292792-1.53115767-.53481238-3.05244299-.64067081-4.4890264-1.07196934 1.9457592-.02900489 3.8807241-.04087504 5.77814114.39387485.14608016.03353312.25905722-.02425646.3785217-.0848257 2.47650931-1.2555858 2.49495367-1.70595282 5.04439054-2.78450038.96542052-.40840002 1.92122173-.83977445 3.0035957-1.31439803-1.31550953-.41709915-2.51027587-.51252043-3.70649381-.59933846-.12724637.03643231-.24996024.03519513-.36355918-.0416779-.09952255.01011736-.19877836.0200954-.298005.03026125l-.17882256.00378896c-.05172352-.02492423-.14982899-.0570712-.14729248-.07354487.01563154-.09804308.08116116-.0479353.13346902-.02791496.04867256-.06904192.11078261-.08369505.18530996-.0461992.08207665-.08290426.17858572-.0672366.27638441-.04263918.13121827-.00340739.26221995-.00697227.39314247-.01042803 1.03998108-.17006375 2.08905038-.14719468 3.10809885.04818547 1.12495575.2158778 2.29781452.26493113 3.32194164-.38006098 1.11883117-.70473481 2.173828-1.32548817 3.35325867-1.9332432-.1560144-.15864298-.29215822-.24373654-.4084317-.25528084-1.30564928-.13002445-2.6112822-.2587049-3.91744942-.38277798-.31414103-.02975162-.3148928-.02097292-.56883373-.23744258 2.0639722-.18123386 4.2722856-.41658437 6.3439165-.22275816.228967.0214866 1.06862307-.38071527 1.22674136-.49562558.93996322-.68266228 1.08390752-.96525543 1.97369616-1.70868278 1.50039087-1.2535939 2.91862817-2.59568283 3.66406625-4.4767099.46724571-1.1788054.15681264-2.02927717-.96780085-2.62872224-.55051532-.2934035-1.13503895-.49262414-1.75024153-.6195541-2.3119507-.47732925-4.65084411-.3975938-6.99249534-.35915946-1.5695709.02574108-3.04511435.25983581-4.3076876 1.30772687-.19487889.16163512-.45695545.38068449-.84827784.29385834.56864645-.48453384 1.20501358-.75684812 1.7323393-1.3045396-.18978706-.00184599-.29917552-.01071926-.40731344-.002865-4.08110932.29458853-2.5232427.22847857-6.35391218 1.68729128-1.51251544.5760626-3.69008556 1.83195772-4.68922682 3.11536958-.67859655.87205665-2.45976792 2.07641472-3.22766707 2.87892679-.01142147-.01229452-5.90801502 3.984122-5.91954482 3.97174877l7.48459815-7.90127887c-.92364952.40944199-1.75399194.7656194-2.5746523 1.14331818-4.6319011 2.13137061-5.42617097 2.55676648-9.86180679 5.07167877-2.9688548 1.68315825-2.06305006.61138258-4.42924055 3.19148256-.90898848.9912386-1.901208 1.92666876-3.068048 2.83413927.62754263-.97192545 1.18552322-1.8360354 1.75085132-2.71162514-2.62131937.96521104-3.7499216 3.4373918-5.55860292 5.21598188.37234592-.7388858.74466268-1.47795927 1.11679194-2.21700247-1.43701833.85820672-2.734616 1.83769039-3.95992777 2.91515108-1.8696312 1.6440565-3.50299573 3.46809658-4.47743707 5.80234352-.02749898.04695959-.05154755.13039505-.08330796.1337956-.0770865.00793493-.08092201-.0601254-.06413543-.12286078-.89696895-1.41065915-.63687079-2.79358379.16329813-4.16527563-1.08316329 1.22436451-1.53117998 2.57599544-.97387036 4.15533146.24722417.70014317.38008235 1.42559551.36513664 2.1720449-.0151714.7499486-.24853302 1.36518436-.91080962 1.83464345-1.52628218 1.08242206-3.02911526 2.19953132-4.51402116 3.33865723-2.16245843 1.65876395-4.35439099 3.28612268-6.36287705 5.13268464-.75390688.69328724-1.46069803 1.49140816-1.46181486 2.69416354.12176992-.06738652.18780636-.09017696.23623597-.13291956 3.7375012-3.29388842 7.5823361-6.45467808 11.5884527-9.415865 2.94648047-2.1778103 5.38327605-4.40433644 8.4440116-6.76879875 1.57269348-1.21492833 5.0518738-3.96648377 11.48687434-7.32118905 8.8789625-4.6287957 17.2892054-7.34454391 18.61185814-7.65701031.31792108-.07510643 1.92056991.0967685 1.94655354.10310026-.83308747.35335051-1.66945245.69982395-2.49902947 1.06155302-2.08547177.90960023-23.32196279 11.28839045-29.978298 15.90414272-1.77433268 1.23023636-3.54065963 2.46995243-5.26034245 3.79784135 1.09677106.53459044 1.23911245 1.85739327 2.17238804 2.47967528-.17031873-.69871837-.65379337-1.25612824-.72861984-1.99836431 1.41066983 1.30831938 9.4390758 1.77386872 8.97311752 1.43533022-.46595827-.3385385-6.90954318-.40546006-7.9799718-1.6960366 3.77010398-.17719428 7.23953213-1.38410094 10.77087156-2.73202301-.71673626-.42266233-1.50296927-.39094503-2.15874067-.9309994 1.08194212.1195194 2.05065401.21222149 3.01434647.34007469.3701987.04916601.6985952-.01313166 1.03639424-.15168884 3.35080671-1.37434916 2.68483528-.26370066 5.95052668-1.82860543.12468062-.05977683.3562551-.07536023.3027754-.29055433-.04908364-.19801295-.24378794-.13432815-.39645381-.13351512zm2.64933105 4.01515833c-.25255956.16117549-.49060882.28099578-.73020407.3811244-.05632288.02353762-.10643426.04351491-.15451707.06180716-1.61116635.7591624-2.6843086 1.0918778-3.92617832 1.26835368-.0503278.00715184-.10020572.01402388-.15877401.0219345-.3165306.04275272-.53246042.0762015-.75719027.13390636l-3.09034054 1.17959155c.0286742.35968746.01309733.732374-.05318248 1.11308888-.18903349 1.0858175-.72962649 1.93928808-1.43150443 2.5605995-.38391174.3398437-.76458395.56799724-1.1546298.74083948-.58732287.26026237-1.00685268.33937723-1.53961764.39069037-.38612805.03718986-.8175526.04421792-1.33219538.03225805-.49479414-.01149865-1.067275-.04182274-1.67264476-.08825973l1.4754096 6.05274467L65.12218599 45.42589c-.42365906-.28248399-.76345164-.56455899-1.06269074-.87498662-3.33629271 2.51799105-6.68737316 5.2724263-10.14330986 8.31816847-.11130225.09610587-.11130225.09610587-.21979278.18230093-.42047461.32754531-1.20437348.72693915-.79893768.50257413l-6.46010186 3.5749704.00684748-7.37415481c.00131174-1.41267907.3993469-2.70959535 1.11228843-3.85770371.49119816-.79101672 1.04480064-1.40506702 1.7762465-2.07769925 1.58444817-1.45671 2.8927241-2.50423916 5.81103029-4.73330168.09166592-.070016.09166592-.070016.18310093-.13986366.27966786-.21365281.4751944-.36322926.66945456-.512241 1.20191317-.92203177 2.36414084-1.79075124 3.50499651-2.61779674-.98006735-3.0203586-.19318783-5.92888999 1.90913788-8.30527499l1.69199336 1.22371045c.8924059-1.12062352 1.94197919-2.19001244 3.16098327-3.2619413 1.48552824-1.3062784 2.9959343-2.42514697 4.61075033-3.3895369l1.0495617-.62681244c.1289359-.1292273.26206412-.25769753.40425926-.39047817 1.09986392-1.0270437 2.3089605-1.81212505 3.72299266-2.3327939l.86009158-.31669923c.05416058-.05467142.10669-.10698006.158917-.1583071.56079094-.55112755 1.05930772-.94686978 1.66819576-1.29679344.18041567-.10368352 1.63637923-.80241655 2.4101573-1.2411011 4.69343848-2.66108104 5.58481157-3.12090727 10.19228076-5.24103562.09301009-.0428067.18754324-.08600703.28419372-.1298863.52771713-.23958329 2.47790876-1.0970025 2.34683429-1.03889884L113.84187942.50209622l-4.4235899 4.66985892c.8687009-.180749 1.7931991-.26679512 2.79117927-.28316203.12475198-.00204764.23924363-.00402606.44287434-.00761547.05615979-.00099037.05615979-.00099037.11250717-.00198323 3.49805117-.06158499 5.19302288.00485047 7.38665047.45775057 1.02832302.21216592 1.99943411.55272316 2.91174057 1.03894746 3.06908566 1.6358938 4.24223304 4.82905512 2.95194464 8.0842995-.97969087 2.472137-2.46431159 4.17189942-4.93827037 6.23892066-.22393326.18709846-.30314364.2592344-.65161532.58939939l.50437533.5128735-1.87346287.9653866.90141296.28580455-7.35104834 3.2234523a62.65605833 62.65605833 0 0 0-.0098716.00621671c-.7190646.4528647-1.44535052.76445647-2.18860374.95781993l-1.11332517.48819578c-.04558965.01999114-.2267883.0999734-.47283465.20854465l-5.6439645 2.84579238c-.54553873.33210413-.9933855.57681638-1.70868569.9394723-.00799912.00405645-.00799912.00405645-.01949575.00987604-.10559323.0533971-.19049115.09450013-.30963463.14652848-.16567876.07234961-.33724056.13767297-.52279319.1952301l-.82442584.41569096c-.51357362.2589534-.76943838.38392614-.9814119.4736958-.08710555.03653898-.08710555.03653898-.22904683.09040918-.04682088.01734695-.0817682.03029485-.11574697.0418967a95.44981842 95.44981842 0 0 0-.01039998.00525593c-.39016505.19714115-.70666509.359797-1.4217707.72937806l-.00145585.00075249c-1.6815021.86903436-2.44629702 1.25334968-3.44746786 1.71435908-1.01762455.46859844-1.7546175.66207969-3.251047.96123349-.36172517.53622937-.8250992.96980688-1.34355995 1.30067203zM68.00965043 32.0267171c-.64487954-.86524769-1.58514152-1.4337244-2.61223027-1.63231952l2.43099731 1.75818479c.05983122-.04157823.12023664-.08352912.18123296-.12586527zm34.5287521-9.1523733c.01096743.00122506.01515958.0016934.01559081.00173563.0088714.0033308.01367568.00497179-.03480006-.0038236.00680076.00073185.01321663.0014293.01920926.00208798zm-8.58441316-11.20579384a8.1615863 8.1615863 0 0 0-.01187644.01521822c.00810822-.01041994.01437586-.01838327.0188928-.02413483l-.00701636.00891661z" fill="#000" fill-rule="nonzero"/>
      <path d="M86.3422303 33.79231933c.15266587-.00081303.34737023-.06449791.39645382.13351512.0534797.2151941-.17809473.23077742-.30277535.29055425-3.26569146 1.56490485-2.59972002.45425635-5.95052673 1.82860551-.33779898.1385571-.6661954.20085483-1.03639425.15168884-.96369246-.1278532-1.93240435-.22055529-3.01434639-.34007462.65577147.54005428 1.44200447.50833698 2.15874073.9309993-3.53133957 1.3479221-7.00076772 2.55482876-10.77087164 2.73202296 1.07042856 1.29057662 7.51401347 1.35749818 7.97997174 1.69603668.46595835.33853856-7.56244755-.12701086-8.97311743-1.43533016.07482638.742236.55830108 1.2996458.72861975 1.99836425-.93327553-.6222821-1.0756169-1.94508478-2.17238798-2.47967536 1.71968276-1.32788884 3.48600985-2.56760493 5.26034239-3.79784127 6.65633527-4.61575235 27.8928263-14.99454243 29.97829808-15.90414267.82957702-.36172906 1.66594192-.70820256 2.49902939-1.06155307-.02598357-.00633183-1.62863246-.1782067-1.94655348-.10310034-1.3226528.31246648-9.7328957 3.02821468-18.61185814 7.6570103-6.43500054 3.3547053-9.91418086 6.10626073-11.48687432 7.3211892-3.06073563 2.36446225-5.49753115 4.59098832-8.44401168 6.76879869-4.00611657 2.96118694-7.85095146 6.1219766-11.58845268 9.41586502-.0484296.0427426-.11446604.06553304-.23623596.13291956.00111682-1.20275539.70790804-2.00087638 1.46181485-2.69416354 2.00848608-1.84656196 4.20041869-3.47392077 6.36287706-5.13268465 1.4849059-1.1391259 2.98773897-2.25623516 4.51402113-3.33865724.66227674-.4694591.89563835-1.08469487.91080968-1.83464354.01494567-.74644928-.1179125-1.47190162-.36513662-2.17204488-.55730967-1.57933593-.10929297-2.93096686.97387031-4.15533137-.80016891 1.37169185-1.06026703 2.7546164-.16329813 4.16527563-.01678658.06273539-.01295107.1307957.06413543.12286078.03176042-.00340054.05580898-.086836.08330801-.13379568.97444135-2.33424695 2.60780583-4.15828693 4.47743702-5.80234345 1.22531184-1.07746076 2.5229094-2.05694437 3.9599278-2.91515117-.37212926.7390432-.74444608 1.47811676-1.11679191 2.2170026 1.80868123-1.77859013 2.93728346-4.25077089 5.55860291-5.21598187-.56532812.8755896-1.1233087 1.7396997-1.7508514 2.71162508 1.16684-.9074705 2.15905952-1.84290067 3.06804808-2.83413921 2.3661904-2.58010004 1.46038575-1.50832431 4.42924048-3.19148262 4.43563581-2.51491229 5.22990568-2.94030816 9.86180692-5.07167879.82066022-.37769877 1.6510027-.73387625 2.57465222-1.14331824l-7.48459806 7.90127893c.01152971.01237316 5.9081232-3.98404327 5.91954467-3.97174875.76789915-.80251207 2.5490706-2.00687008 3.22766707-2.8789268.9991414-1.28341187 3.17671138-2.53930697 4.6892269-3.1153695 3.83066945-1.45881286 2.27280292-1.39270284 6.3539121-1.68729135.10813792-.00785426.21752653.00101899.40731344.002865-.52732572.54769148-1.1636928.82000568-1.7323393 1.3045396.3913224.08682615.65339895-.13222322.84827793-.29385828 1.26257324-1.04789106 2.73811662-1.28198585 4.3076876-1.30772687 2.34165124-.03843437 4.68054466-.11816982 6.99249527.35915938.61520266.12693001 1.19972621.32615059 1.7502416.61955415 1.12461342.59944501 1.43504658 1.44991684.96780087 2.62872223-.74543809 1.88102708-2.16367549 3.22311598-3.66406635 4.47670988-.88978864.74342735-1.03373287 1.02602056-1.9736961 1.7086827-.15811828.11491045-.99777435.51711232-1.22674135.49562572-2.07163085-.19382629-4.27994437.04152424-6.34391644.22275808.25394085.2164696.25469256.20769098.56883365.23744252 1.30616716.12407315 2.61180008.25275361 3.9174495.38277804.1162734.01154424.2524173.09663786.40843156.25528085-1.17943058.6077551-2.2344275 1.2285084-3.35325867 1.93324321-1.02412712.64499211-2.19698583.5959387-3.32194158.3800609-1.01904852-.19538007-2.06811783-.21824914-3.10809885-.04818547-.1309225.0034559-.2619242.00702064-.39314245.01042817-.09779877-.02459748-.19430784-.04026514-.27638448.04263912-.07452728-.03749579-.13663733-.02284267-.18530997.0461992-.05230785-.02002033-.11783748-.07012811-.13346901.02791496-.00253651.01647367.095569.04862056.1472926.07354484l.1788225-.00378902c.09922665-.0101657.19848253-.02014382.29800494-.03026115.113599.07687294.23631294.07811018.36355923.0416778 1.19621802.0868181 2.39098428.18223932 3.70649384.59933861-1.08237406.47462352-2.03817521.90599787-3.0035958 1.31439797-2.54943686 1.07854756-2.56788116 1.5289145-5.04439038 2.78450037-.11946463.06056925-.23244169.11835883-.37852176.08482577-1.89741698-.43474997-3.83238196-.42287974-5.77814122-.3938749 1.43658348.43129858 2.95786872.53715696 4.48902639 1.07196933-1.74759149.88116826.31549642-.22381502-1.33991486.61292792-1.5740098.7953098-3.12642725 1.63811166-4.72688518 2.37507496-1.0777623.49629082-2.28347353.60156033-3.42848774.89546335-1.53371315.39364751-3.07321666.76360592-4.61026013 1.14384393-.08315169.0233436-.16641163.04660842-.24948414.06984304-.05010894-.0157585-.11858105-.06067746-.12774877.02824114-.00274312.02814605.08406656.06490776.13000988.09778792.10132087-.00348224.20256265-.00685544.3038044-.01022878.84564648-.001206 1.69133837-.00088039 2.53697294-.00525875z" fill="#C4C3C6"/>
      <path d="M65.53845619 39.43652591c.86122768-.710777 1.7457256-1.43200952 2.68755177-2.1664294.8084267-.5782184 1.62227417-1.1468069 2.4378079-1.71339587 2.54380308-1.76751597 7.2154328-4.37945857 12.13404527-6.98353356-.34930765.80331009-16.8843222 11.08437966-17.25940494 10.86335883zm20.53254937-15.05150247l4.36348832-4.60999625c1.6857028-1.13874772 3.73557394-2.52609383 3.74228751-2.5188587.76852873-.8038184 2.55021495-2.01104115 3.22960214-2.88429305 1.00030448-1.28517161 3.17819261-2.54451472 4.69050276-3.12289775 3.83014937-1.46468974 2.27325272-1.39632218 6.35199588-1.69685545.10807532-.00801173.21737627.00070637.40703088.00227974-.52775315.54858771-1.16407694.82188575-1.73303165 1.30735937.39092991.08628501.65314245-.13319633.84812064-.29515238 1.2632176-1.04997055 2.7380891-1.28624666 4.3066241-1.31425207 2.34010574-.04181257 4.67751501-.12493259 6.9871986.34919077.61459944.12607686 1.19843685.32450665 1.74815384.61719198 1.12298237.59797787 1.43197986 1.44821676.96335777 2.62799038-.56651365 1.42650308-1.51862092 2.54404074-2.59980438 3.54826873.43215128-1.14642147.11419896-1.9766008-.98826539-2.56365297-.54971696-.29268536-1.13355435-.49111519-1.7481538-.61719201-2.3096836-.47412336-4.64709287-.39100335-6.9871986-.3491908-1.568535.02800542-3.0434065.26428152-4.3066241 1.31425208-.1949782.16195604-.45719073.38143739-.8481207.29515246.56895471-.48547362 1.20527856-.75877174 1.73303165-1.30735937-.18965454-.00157345-.2989555-.01029155-.40703082-.00227983-4.07874321.30053336-2.52184651.23216572-6.35199588 1.69685546-1.5123102.5783831-3.69019828 1.83772613-4.69050276 3.12289775-.6793872.8732519-2.46107347 2.08047473-3.22960214 2.88429305-.00793156-.00854773-2.86760413 1.92939406-4.60941342 3.10427369-.28884008.13504717-.57947557.2723787-.87165045.41197517zM61.16852596 41.3017313c-1.03911147.8028955-9.34910241 7.54410985-10.34580626 8.39851277.04622089-1.13913793 8.01250451-7.83583158 8.74247743-8.5078984 2.00976942-1.84991514 4.02499897-1.95036493 1.60332883.10938563zm2.54912934-6.68047421c-.55465674-1.57893105-.10500197-2.93154597.97918218-4.15777626-.7749251 1.32749987-1.04547931 2.6647739-.25462751 4.0259331-.1924194.21920135-.37912539.44280219-.55940685.67135822-.04727115-.18144302-.1025042-.36130484-.16514782-.53951506zm5.4400852-5.81261097c1.22602418-1.07949409 2.52414368-2.0610904 3.96141428-2.92157991-.37293797.73976414-.74606345 1.47955891-1.11921767 2.21916594 1.81000336-1.78163874 2.94139043-4.25606398 5.5623064-5.2252883-.56620128.8766228-1.12504339 1.74175265-1.7535552 2.71482494 1.16734771-.9093771 2.1602346-1.84646944 3.07002758-2.83926466 2.36828453-2.584152 1.46155721-1.51080402 4.43080379-3.1986559 4.4362213-2.52192482 5.23056024-2.9485701 9.86236108-5.08713924.82064264-.37897419 1.65092982-.73643558 2.57453689-1.14730913l-3.99038438 4.2158143c-.41155846.18199655-.81134296.36052477-1.20886447.54410092-4.63180084 2.13856913-5.42613978 2.56521442-9.86236108 5.08713924-2.96924658 1.68785188-2.06251926.6145039-4.43080379 3.1986559-.90979298.99279521-1.90267992 1.92988764-3.07002759 2.83926466.62851182-.9730723 1.18735393-1.83820214 1.7535552-2.71482494-2.62091596.96922432-3.75230303 3.44364956-5.56230639 5.2252883.37315422-.73960703.7462797-1.4794018 1.11921767-2.21916595-1.4372706.86048951-2.7353901 1.84208583-3.96141429 2.92157992-.52360375.46103078-1.0287311.93613859-1.50613113 1.43255276.993833-1.97747035 2.46931329-3.58218923 4.1308431-5.04515885z" fill="#FFF"/>
    </g>
  </g>
</svg>
