<svg xmlns="http://www.w3.org/2000/svg" xmlns:xlink="http://www.w3.org/1999/xlink" viewBox="0 0 800 600"><defs><style>.cls-1,.cls-2,.cls-4{fill:none;}.cls-2,.cls-3,.cls-4{stroke:#4038ff;stroke-linecap:square;stroke-miterlimit:10;}.cls-2{stroke-width:2px;}.cls-3,.cls-4{stroke-width:12px;}.cls-3{fill:url(#lines);}</style><pattern id="lines" data-name="lines" width="16" height="16" patternTransform="translate(46 474.67)" patternUnits="userSpaceOnUse" viewBox="0 0 16 16"><rect class="cls-1" width="16" height="16"/><line class="cls-2" x1="1.98" y1="78.02" x2="67.98" y2="12.02"/><line class="cls-2" x1="-14.02" y1="78.02" x2="51.98" y2="12.02"/><line class="cls-2" x1="-30.02" y1="78.02" x2="35.98" y2="12.02"/><line class="cls-2" x1="-46.02" y1="78.02" x2="19.98" y2="12.02"/><line class="cls-2" x1="-62.02" y1="78.02" x2="3.98" y2="12.02"/><line class="cls-2" x1="1.98" y1="62.02" x2="67.98" y2="-3.98"/><line class="cls-2" x1="-14.02" y1="62.02" x2="51.98" y2="-3.98"/><line class="cls-2" x1="-30.02" y1="62.02" x2="35.98" y2="-3.98"/><line class="cls-2" x1="-46.02" y1="62.02" x2="19.98" y2="-3.98"/><line class="cls-2" x1="-62.02" y1="62.02" x2="3.98" y2="-3.98"/><line class="cls-2" x1="1.98" y1="46.02" x2="67.98" y2="-19.98"/><line class="cls-2" x1="-14.02" y1="46.02" x2="51.98" y2="-19.98"/><line class="cls-2" x1="-30.02" y1="46.02" x2="35.98" y2="-19.98"/><line class="cls-2" x1="-46.02" y1="46.02" x2="19.98" y2="-19.98"/><line class="cls-2" x1="-62.02" y1="46.02" x2="3.98" y2="-19.98"/><line class="cls-2" x1="1.98" y1="30.02" x2="67.98" y2="-35.98"/><line class="cls-2" x1="-14.02" y1="30.02" x2="51.98" y2="-35.98"/><line class="cls-2" x1="-30.02" y1="30.02" x2="35.98" y2="-35.98"/><line class="cls-2" x1="-46.02" y1="30.02" x2="19.98" y2="-35.98"/><line class="cls-2" x1="-62.02" y1="30.02" x2="3.98" y2="-35.98"/><line class="cls-2" x1="1.98" y1="14.02" x2="67.98" y2="-51.98"/><line class="cls-2" x1="-14.02" y1="14.02" x2="51.98" y2="-51.98"/><line class="cls-2" x1="-30.02" y1="14.02" x2="35.98" y2="-51.98"/><line class="cls-2" x1="-46.02" y1="14.02" x2="19.98" y2="-51.98"/><line class="cls-2" x1="-62.02" y1="14.02" x2="3.98" y2="-51.98"/></pattern></defs><title>Forum-posts (2)-2x</title><g id="Layer_2" data-name="Layer 2"><g id="Forum-posts"><path class="cls-3" d="M191.62,128.52c0-23.4,17.44-42.37,38.95-42.37,15.59,0,30.05,14.73,30.05,42.37Z"/><path class="cls-4" d="M260.62,233.53V138.69m-27-52.54h258v.34m47,259c0,19.72-.5,45.88-.5,94.89M491.62,86.49a54,54,0,0,1,6-.34c21,0,40.5,18.26,40.5,52.54v53.84"/><path class="cls-4" d="M487,389.49c14.47-28.72,20-37.83,58.09-97.22C575.46,245,622.53,166.64,682,105.84"/><path class="cls-4" d="M500.44,344.24s-22-36.39,5.63-85.74l20.84,15.69-5.47-43.11,71.78-128.57A116.66,116.66,0,0,1,754.4,67.33h0L583.69,294a175.51,175.51,0,0,1-64.09,52.57h0"/><path class="cls-3" d="M346.62,492.53h192c29,0,61-23,61-52h-253"/><path class="cls-4" d="M272.07,331.43q23.73,5.28,52.5,14.49a34.52,34.52,0,0,1,23.93,35l-8,130.28a34.51,34.51,0,0,1-31.14,32.26c-39.73,3.81-142.82,3.81-182.55,0A34.51,34.51,0,0,1,95.68,511.2l-8-130.28a34.52,34.52,0,0,1,23.93-35q28-9,51.17-14.19"/><path class="cls-4" d="M177.62,301.82a45,45,0,0,1-45-45c0,13.27,38.28,24,85.5,24s85.5-10.75,85.5-24A45,45,0,0,1,272.3,299.7"/><path class="cls-4" d="M115.12,380.53c5.42,3.3,18.4,8.35,49.1,8.35h123.3c14.7,0,27.61-3.92,33.1-8.35"/><path class="cls-4" d="M92.12,448c0-10.77,22.57-19.51,50.4-19.51h151.2c27.84,0,50.4,8.74,50.4,19.51"/><ellipse class="cls-4" cx="218.62" cy="245.53" rx="54" ry="11.57"/><ellipse class="cls-4" cx="218.12" cy="256.78" rx="85.5" ry="24.02"/><path class="cls-4" d="M211.62,341.53s-21.34.72-31-1c-19-3.37-18-8.34-18-9.8V303.32a3,3,0,0,1,3-3,3.87,3.87,0,0,1,.48,0m54.52,7.08c15.81,0,26.12,0,49.8-7.11,1.53-.47,1.31.94,1.64,2.57a3.05,3.05,0,0,1,.06.6v27.4c0,4.64-9.59,9.92-23.38,9.92"/><path class="cls-3" d="M92.12,446c0,10.78,22.57,19.52,50.4,19.52h151.2c27.84,0,50.4-8.74,50.4-19.52l-3,48.93c0,14.92-22,27-49.2,27H144.32c-27.17,0-49.2-12.1-49.2-27Z"/><line class="cls-4" x1="327.62" y1="160.53" x2="475.62" y2="160.53"/><line class="cls-4" x1="327.62" y1="209.86" x2="475.62" y2="209.86"/><line class="cls-4" x1="327.62" y1="259.2" x2="475.62" y2="259.2"/><line class="cls-4" x1="327.62" y1="308.53" x2="415.45" y2="308.53"/><rect class="cls-1" width="800" height="600"/></g></g></svg>