<svg width="360" height="369" viewBox="0 0 360 369" fill="none" xmlns="http://www.w3.org/2000/svg">
<g clip-path="url(#clip0)">
<path d="M87.2769 431.5C82.8588 431.5 78.4279 431.339 74.1453 431.171C69.9917 431.017 65.7026 430.855 61.5555 430.855C59.0336 430.855 56.7698 430.914 54.622 431.036C52.8935 431.133 51.1521 431.178 49.4623 431.178C19.9549 431.178 -3.51552 416.844 -26.2184 402.98C-29.0628 401.247 -32.0232 399.448 -34.9126 397.702C-46.3673 390.863 -49.36 382.962 -49.9146 377.541C-50.4693 372.121 -48.9988 364.007 -39.3113 355.164C-35.9446 351.51 -32.5262 348.036 -29.2176 344.678L-28.9402 344.401C-27.7341 343.176 -26.5216 341.951 -25.3219 340.714C-19.988 335.242 -13.3513 328.43 -6.43723 322.171C0.692772 315.734 7.06534 308.505 12.5571 300.625C18.8585 291.602 27.3463 286.008 33.538 281.934C39.1176 278.265 45.1206 275.283 51.4165 273.053C53.1709 272.408 55.4669 270.933 57.8985 269.347C60.6875 267.454 63.5887 265.733 66.5862 264.191L68.1277 263.456C68.6308 263.211 69.4176 262.812 69.7079 262.67C73.8457 260.058 78.19 257.788 82.6976 255.883C84.5809 255.026 86.3352 254.24 87.9218 253.428C90.8693 251.926 93.8297 250.456 96.6934 249.038L97.9833 248.394C99.2913 247.347 100.734 246.48 102.272 245.816C103.461 244.681 104.757 243.664 106.142 242.78C106.413 242.411 106.697 242.05 106.994 241.697C106.916 240.898 106.852 240.138 106.787 239.416C106.72 238.23 106.584 237.048 106.381 235.877C105.268 233.753 104.585 231.429 104.371 229.041C104.157 226.652 104.417 224.244 105.136 221.956C105.126 218.064 105.482 214.18 106.2 210.355C106.432 208.937 106.645 207.603 106.761 206.488L106.839 205.572V205.405C107.019 201.692 107.808 198.034 109.174 194.577C106.594 184.858 105.697 176.447 106.31 168.3C97.1384 160.315 92.9719 148.907 94.249 135.237C94.38 134.074 94.3343 132.899 94.1135 131.75C92.3721 123.249 93.3976 115.128 97.061 108.141C96.5281 104.333 96.3338 100.486 96.4806 96.6433C96.62 90.9942 97.8623 85.4267 100.138 80.2534C101.576 77.1995 103.265 74.2699 105.188 71.4945C106.079 70.2177 106.891 68.8875 107.619 67.5114C109.629 63.2695 112.926 59.7692 117.042 57.5085C118.342 51.3421 121.452 45.703 125.975 41.3119C127.052 40.1727 128.25 39.1547 129.548 38.2763C130.96 37.0297 132.538 35.9843 134.237 35.1697C135.486 34.4126 136.779 33.7283 138.107 33.1202H138.152C141.008 30.2432 144.357 27.9009 148.039 26.2045C150.692 21.3689 154.659 17.3808 159.481 14.7C161.797 11.3685 164.888 8.64966 168.49 6.77794C172.091 4.90621 176.093 3.93772 180.152 3.95595C183.429 2.94375 186.842 2.4416 190.272 2.46712C192.835 2.47989 195.393 2.6954 197.921 3.11164C201.912 1.29363 206.236 0.319376 210.621 0.25C211.973 0.249848 213.322 0.353273 214.658 0.559366C222.134 1.71304 228.428 4.5489 233.408 9.00893C235.318 8.62259 237.263 8.42827 239.212 8.42887C247.332 8.42887 255.175 11.8512 261.303 18.0966C262.16 18.9667 262.857 19.7852 263.321 20.3395C266.748 21.0839 270.021 22.4139 272.996 24.271C276.17 25.4022 279.07 27.1874 281.509 29.5109C284.519 32.0592 287.387 34.7702 290.1 37.6317C293.472 38.7586 296.575 40.5646 299.22 42.9381C301.865 45.3116 303.994 48.2021 305.476 51.4308C306.678 53.8658 308.013 56.2327 309.475 58.5204C309.972 59.3454 310.469 60.1639 310.959 60.9889C315.557 68.723 318.589 76.1221 320.227 83.6242C320.259 83.7724 320.324 84.0109 320.395 84.2687C321.171 86.8907 321.569 89.6101 321.575 92.3444C322.541 95.5412 323.247 98.811 323.684 102.122C324.237 103.013 324.714 103.948 325.109 104.919C327.689 108.664 330.043 114.587 328.444 123.017C330.137 126.298 330.946 129.963 330.792 133.651C331.191 135.758 331.368 137.901 331.32 140.045C331.603 142.144 331.564 144.274 331.204 146.361C330.443 152.11 329.747 157.176 329.069 161.829C328.506 166.291 326.756 170.52 324 174.075C324.645 183.833 322.439 193.378 317.221 203.188L316.667 204.238C315.061 207.242 313.545 210.078 312.732 212.578C310.873 218.56 307.513 223.966 302.974 228.285C301.62 232.848 300.949 237.901 300.394 242.709C299.253 253.118 294.905 261.4 291.41 268.019C290.829 269.128 290.249 270.236 289.681 271.351L289.101 272.466C289.023 272.615 288.914 272.821 288.81 273.027C287.946 280.275 286.584 287.454 284.734 294.515C314.977 307.721 332.301 332.844 346.232 355.609C347.353 357.289 348.565 358.907 349.863 360.455C354.984 366.9 362.73 376.568 357.803 386.88C357.667 387.158 357.525 387.441 357.364 387.731C353.049 395.601 342.472 398.159 333.133 400.409C329.811 401.214 326.683 401.968 324.748 402.781C322.259 403.838 319.711 405.004 317.247 406.126C309.243 409.793 300.994 413.563 291.784 415.316C288.868 415.879 285.905 416.16 282.935 416.154C273.531 416.154 264.927 413.479 256.601 410.888C249.59 408.704 242.966 406.648 236.129 406.19C233.62 406.022 231.034 405.939 228.435 405.939C210.408 405.939 192.568 409.948 177.482 413.866C172.323 415.207 167.124 416.625 162.087 417.997C140.977 423.753 119.145 429.702 96.0871 431.21C93.3654 431.429 90.4823 431.5 87.2769 431.5Z" fill="black"/>
<path d="M273.858 160.688C269.724 159.876 271.02 164.426 271.659 166.966C269.924 167.069 269.279 165.032 268.666 163.705C267.376 160.946 267.267 159.921 269.556 157.949C271.117 156.608 273.226 155.197 270.982 153.276C269.53 152.039 267.428 151.813 265.938 150.215C264.422 148.447 263.167 146.472 262.21 144.35C256.128 132.156 251.891 119.858 239.714 112.124C231.548 106.968 224.524 102.205 214.482 102.128C214.431 102.125 214.379 102.125 214.328 102.128C211.999 101.861 209.646 101.885 207.323 102.199C206.47 102.33 205.631 102.546 204.821 102.843C199.106 103.584 193.424 104.693 187.671 104.951C185.407 105.054 182.808 105.286 180.608 104.687C178.841 104.21 177.177 103.178 175.371 102.689C172.164 101.789 168.802 101.584 165.51 102.089C159.17 103.12 153.752 106.962 149.669 111.757C141.465 121.425 135.828 137.692 138.744 150.363C140.033 148.926 141.362 149.383 142.994 149.622C144.877 149.899 145.709 149.377 147.386 149.235C149.837 149.029 152.301 149.751 154.842 149.358C157.383 148.965 159.641 147.862 162.053 147.424C164.355 146.992 166.174 146.863 168.283 145.652C170.25 144.524 171.069 143.441 173.443 144.021C177.1 144.904 179.628 148.172 183.021 149.519C183.988 147.94 184.195 145.123 186.362 144.621C188.529 144.118 191.521 146.361 193.972 146.232C196.617 146.09 198.59 144.601 201.022 143.86C203.453 143.119 204.582 144.137 206.762 145.001C210.058 146.29 212.393 144.659 215.592 144.608C216.998 144.608 218.301 145.194 219.558 145.755C222.357 146.999 222.512 147.611 224.286 145.368C227.311 141.533 229.813 145.433 233.393 146.999C233.161 146.586 233.051 146.071 232.793 145.658C234.115 147.128 236.115 147.366 237.985 147.418C242.667 147.54 247.943 145.297 252.542 146.573C259.424 148.507 253.522 156.789 250.968 159.999C250.091 161.101 249.137 162.209 248.137 163.305C247.266 164.149 246.408 165.052 245.589 165.98C241.584 169.988 237.206 173.607 232.516 176.788C229.755 178.631 226.15 179.534 222.467 179.837C220.603 179.653 218.726 179.653 216.862 179.837C215.348 179.741 213.841 179.561 212.347 179.295C206.298 178.213 200.648 175.428 198.39 169.447C196.623 164.736 196.507 158.877 193.398 154.752C192.773 153.954 191.948 153.336 191.005 152.961L190.934 152.806C189.174 151.678 183.84 151.369 184.007 153.766C183.363 154.656 183.453 155.932 184.852 157.549C185.613 158.432 188.193 158.381 188.355 158.903C186.909 159.363 185.586 160.143 184.485 161.185L184.362 161.301C182.897 162.663 181.776 164.353 181.09 166.231C180.404 168.11 180.173 170.124 180.415 172.109C180.415 172.272 180.428 172.44 180.454 172.612C179.89 175.933 179.513 179.283 179.325 182.647C179.254 183.717 179.228 184.812 179.209 185.914C178.895 187.994 178.742 190.095 178.751 192.198C178.622 192.904 178.443 193.6 178.216 194.28C177.622 196.04 175.636 198.863 176.745 200.725C178.261 203.271 184.685 202.659 187.142 202.743C190.032 202.865 197.462 203.819 199.164 200.41C200.164 198.431 198.519 195.846 198.255 193.861C197.855 190.69 199.429 187.584 203.008 188.293C208.226 189.324 212.509 194.338 216.217 197.767C221.377 202.556 226.879 207.267 233.631 209.633C237.069 210.838 240.468 211.257 242.938 214.26C244.757 216.477 245.686 221.511 241.765 222.123C241.598 222.147 241.43 222.157 241.261 222.155C239.804 221.26 238.346 220.37 236.927 219.436C235.521 217.779 234.276 215.807 233.057 214.872C231.919 214.04 230.642 213.418 229.284 213.036C225.718 210.78 221.132 209.168 217.675 207.493C215.295 206.326 209.935 203.755 209.136 207.022H209.097C208.524 207.477 207.866 207.814 207.162 208.015C205.537 207.622 203.615 207.596 202.499 208.466C201.847 208.574 201.212 208.765 200.609 209.033C194.159 211.946 197.3 219.5 200.88 223.541C201.136 221.593 201.746 219.708 202.679 217.979C203.163 216.993 203.866 216.484 203.557 215.291C205.382 218.514 207.504 224.392 211.87 224.733C214.321 224.92 215.74 222.413 217.759 222.304C219.778 222.194 221.751 225.056 223.125 226.171C226.408 228.82 229.394 226.235 232.387 228.104C236.153 230.489 237.998 237.521 238.559 241.587C239.281 246.847 238.34 251.758 236.418 256.63C237.173 257.168 238.084 257.443 239.011 257.41C242.19 257.03 242.235 252.95 244.764 251.61C246.466 250.72 248.679 251.449 250.156 252.518C252.045 253.885 251.446 254.265 250.156 256.083C249.207 257.404 247.911 258.661 247.447 260.253C246.576 263.211 247.814 265.976 250.781 264.171C253.974 262.238 256.896 258.802 259.398 256.076C260.726 254.518 261.933 252.861 263.01 251.12C263.177 249.621 263.188 248.109 263.042 246.608C263.01 246.331 262.971 246.06 262.932 245.796H262.694C261.617 245.764 260.849 244.12 260.262 243.418C259.107 242.156 257.741 241.105 256.225 240.311C254.29 239.138 251.497 237.301 251.355 234.723C251.136 230.959 254.619 233.215 256.347 233.77C259.817 234.885 258.347 231.411 257.315 229.761C256.167 227.943 254.135 225.442 255.496 223.232C257.489 219.971 264.796 219.307 265.57 223.876C265.867 225.61 267.95 229.503 270.233 227.821C272.71 226.003 271.253 220.841 270.588 218.424C270.182 216.954 269.202 215.311 270.762 214.234C272.497 213.036 274.419 214.002 275.567 211.772C276.316 210.329 276.212 208.55 276.554 206.99C277.083 204.683 279.302 203.342 280.043 201.157C280.908 198.579 278.979 196.484 278.573 194.068C278.276 192.263 278.573 190.677 276.825 189.556C276.118 189.225 275.349 189.047 274.568 189.034C273.278 187.983 271.769 187.468 270.111 188.144C269.466 187.68 269.26 186.946 269.834 185.708C274.568 186.54 277.644 189.685 281.443 184.948C287.867 176.904 285.074 162.886 273.858 160.688Z" fill="#C4C3C6"/>
<path d="M129.791 72.5448C130.549 72.2205 131.262 71.8003 131.913 71.2944C131.888 71.0803 131.888 70.864 131.913 70.6499C132.075 68.4779 133.958 67.6916 135.931 67.7561C136.602 67.3967 137.183 66.8925 137.634 66.2801C139.408 63.5152 136.435 62.9351 136.215 60.4795C136.156 59.3778 136.475 58.2889 137.118 57.3923C137.544 55.7424 138.408 54.3115 139.866 54.4855C141.794 53.0145 143.813 51.6649 145.909 50.4445C147.844 49.207 149.934 48.0726 151.991 46.9254C152.02 46.7856 152.077 46.6531 152.158 46.5354C152.238 46.4176 152.342 46.3172 152.462 46.2398C152.582 46.1624 152.716 46.1097 152.857 46.0847C152.998 46.0596 153.142 46.0628 153.281 46.094C154.113 43.5159 149.411 35.6593 156.248 38.0247C157.835 38.5725 159.176 39.7842 160.602 40.7768L161.085 41.0926C161.685 40.6094 162.252 40.0861 162.782 39.5264C163.975 40.4352 164.923 42.272 166.6 42.2334C168.038 42.2334 170.373 39.7069 168.967 38.3663C167.561 37.0257 165.007 40.0936 164.162 37.6573C163.762 36.4843 164.387 35.3757 165.452 34.3703C165.237 34.3566 165.021 34.3566 164.807 34.3703C167.238 22.4726 183.595 22.0666 192.973 20.668C199.164 19.7399 206.123 16.6204 212.405 17.5936C216.198 18.1801 217.772 19.6045 218.726 21.5123L218.836 21.5703C221.79 23.1558 223.518 24.2321 223.802 27.6094C223.886 28.6019 223.493 30.4065 223.75 31.7149C224.388 32.2207 225.14 32.5632 225.94 32.7126C226.741 32.862 227.565 32.8138 228.343 32.5721C230.148 31.6324 231.896 30.5887 233.58 29.4462L233.173 30.0005C237.63 27.1324 241.952 27.8543 245.886 30.0456C249.214 31.1864 252.426 33.1199 255.747 34.9504C261.636 38.1729 269.292 40.6221 273.703 45.9458C274.805 47.1855 275.679 48.6103 276.283 50.1544C281.024 53.6606 287.615 56.6833 290.357 61.6976C294.162 68.6648 299.386 76.2121 301.392 83.9462C298.432 83.4628 297.084 78.1069 294.078 83.4951C292.872 85.6542 294.981 92.7567 298.167 91.6739C298.33 91.617 298.482 91.5343 298.619 91.429C298.765 91.2241 298.939 91.0399 299.135 90.8812C300.199 89.3666 300.308 86.6081 302.256 88.5867C303.772 90.1336 304.262 94.2069 304.623 96.2242C304.875 97.6615 305.791 101.677 304.204 102.74C303.559 103.172 302.617 103.024 301.585 102.689C300.005 102.18 298.219 101.232 296.987 101.251C291.111 101.342 288.035 107.207 283.939 110.474C281.243 112.621 279.063 112.872 275.787 112.247C270.433 111.216 269.298 114.296 271.111 119.021C268.892 117.977 267.28 116.204 267.415 113.703C267.467 112.762 268.537 111.357 267.647 110.655C266.622 109.843 264.261 111.744 263.094 111.867C261.818 112.014 260.535 111.656 259.521 110.868C257.27 109.198 253.477 99.5692 258.372 99.0343C259.017 98.9634 259.508 99.4597 260.075 99.6466C261.539 100.124 261.572 100.484 263.371 100.252C266.989 99.7948 269.943 98.9054 273.046 101.019C273.374 100.761 273.68 100.477 273.961 100.169C274.948 96.9976 276.902 94.4518 279.121 91.8995C280.34 90.5074 284.223 87.3235 283.636 85.0999C282.868 82.3092 277.277 87.0786 275.058 87.3622C271.33 87.8455 268.969 84.4296 265.699 83.5982C264.093 83.1922 250.955 76.3732 251.878 81.3037C251.937 81.5889 252.06 81.8571 252.238 82.0881C252.415 82.3191 252.643 82.507 252.903 82.6379C253.548 82.8506 254.393 83.0117 255.161 83.2437C256.089 83.3533 257.005 83.3855 257.611 83.5209C259.456 83.9333 263.887 87.085 261.223 89.2312C260.417 89.8757 257.998 89.0766 256.902 89.4182C255.302 89.9273 253.832 91.2615 253.78 92.963C253.776 93.1813 253.806 93.3989 253.871 93.6075C253.974 93.6405 254.075 93.6792 254.174 93.7235C254.353 93.9079 254.486 94.1315 254.563 94.3766C254.641 94.6216 254.66 94.8813 254.619 95.135C255.264 96.2435 255.999 97.3521 255.515 98.2673C253.903 101.316 247.911 98.4155 246.711 96.4691C244.028 92.1444 242.558 91.1132 237.211 91.4484C231.956 91.7034 226.718 90.6747 221.951 88.4514C219.004 87.1624 210.845 80.9879 207.497 82.7926C205.736 83.74 206.852 85.7057 204.014 85.4222C202.15 85.2288 200.648 83.5402 198.745 83.3211C195.269 82.915 193.643 86.0731 190.96 87.5748C186.703 89.9531 184.04 86.9303 181.331 83.9269C179.796 82.206 178.164 80.5239 175.745 80.2081C172.682 79.7956 171.624 81.6389 169.392 82.9666C166.858 84.4747 165.387 82.1996 166.348 79.6667C166.787 78.513 167.851 77.688 168.87 76.8501C168.641 76.3554 168.495 75.8262 168.438 75.284C168.373 74.749 169.457 73.0475 170.089 71.8229C169.689 71.6783 169.279 71.5599 168.864 71.4685C168.926 71.0406 169.076 70.6302 169.305 70.2631C169.534 69.896 169.836 69.5801 170.192 69.3351C169.97 69.0185 169.824 68.6547 169.766 68.2723C169.708 67.8899 169.739 67.4993 169.857 67.1309C171.36 63.2638 175.849 62.123 179.589 61.8523C183.257 61.6087 186.94 61.8252 190.554 62.4968C191.471 62.6563 192.378 62.8715 193.269 63.1414C193.968 62.9012 194.647 62.6082 195.301 62.2648C200.022 59.5256 195.411 55.1752 192.115 54.2793C189.722 53.6348 182.718 48.2467 180.589 50.0835C176.384 53.7444 187.851 59.6223 189.445 61.2594C185.517 61.0531 184.543 60.4989 181.705 58.1657C179.497 56.371 177.056 54.8837 174.449 53.7444C172.315 52.7818 170.011 52.2517 167.67 52.1846C166.744 52.3749 165.828 52.618 164.929 52.9129C164.544 53.1695 164.226 53.5142 164.001 53.9184C166.181 54.1697 169.276 54.3889 169.302 56.9991V57.0314C172.353 57.6759 175.223 59.1518 175.752 62.123C173.797 62.6546 171.952 63.5274 170.302 64.7011C170.1 65.2381 169.761 65.7129 169.319 66.0782C168.876 66.4435 168.346 66.6864 167.78 66.7829C167.645 66.7829 167.516 66.8473 167.387 66.8795L166.161 67.8334C164.426 69.174 158.422 73.5502 156.022 71.6038C154.578 70.4501 157.712 69.464 155.932 67.7367C153.52 65.3714 148.837 68.059 150.127 71.2493C150.972 73.3891 152.997 73.9176 151.269 76.3023C150.398 77.5075 148.586 77.9716 147.728 79.2348C146.87 80.4981 146.683 84.5843 147.786 86.3245C150.675 86.0345 154.842 83.0568 155.571 84.7261C156.777 84.2655 158.111 84.2655 159.318 84.7261C160.518 85.2546 162.149 86.795 161.814 88.2709C161.298 90.5525 159.77 89.1926 158.363 88.9154C152.643 87.8713 149.392 93.8846 144.09 94.4582C141.349 94.7547 137.557 92.6729 136.628 89.9466C135.744 87.3686 138.802 84.5198 136.235 82.5154C133.41 80.3112 128.114 82.0256 125.689 78.5194C123.496 75.5482 127.366 73.6405 129.791 72.5448Z" fill="#C4C3C6"/>
<path d="M307.313 128.244C291.692 130.609 302.566 137.145 301.108 146.258C296.555 141.978 288.854 139.916 283.875 145.001C280.65 132.459 297.567 128.888 304.359 122.076C292.685 119.466 290.169 125.298 292.749 110.423C294.336 100.543 300.399 111.905 303.714 108.174C305.288 110.146 305.791 111.222 305.604 111.719C305.964 112.153 306.268 112.632 306.507 113.143C306.507 113.787 306.507 114.297 306.507 114.786C311.37 119.485 313.988 125.588 307.313 128.244Z" fill="#C4C3C6"/>
<path d="M140.266 107.561C126.528 103.468 128.011 115.089 125.657 122.127C123.555 128.372 119.73 124.395 116.518 124.524C110.442 124.441 113.725 111.254 121.117 113C122.626 113.213 124.341 112.485 123.438 110.422C116.363 94.5094 141.111 98.7631 140.266 107.561Z" fill="#C4C3C6"/>
<path d="M125.844 135.676C128.889 135.612 132.03 140.523 135.125 143.198C128.244 141.303 122.316 149.54 117.615 146.556C120.917 142.611 120.685 135.773 125.844 135.676Z" fill="#C4C3C6"/>
<path d="M301.16 152.568C303.049 164.949 304.81 172.593 305.081 180.282C302.153 198.483 272.149 170.956 301.16 152.568Z" fill="#C4C3C6"/>
<path d="M-31.6382 373.372C-28.2585 366.147 -17.3069 357.987 -11.7666 353.392C-5.80713 347.43 0.145935 341.462 6.00871 335.41C16.2766 324.808 26.2156 313.367 37.6767 303.829C49.757 293.749 63.7657 286.491 77.5294 279.028C87.8489 273.433 98.0845 267.504 109.313 263.908L108.623 264.082C112.255 262.96 114.68 259.841 117.556 257.572C120.884 254.949 124.09 252.171 127.295 249.4C128.534 252.223 125.283 251.681 129.469 256.006C130.43 246.242 124.199 244.108 129.849 241.788C132.732 240.905 133.377 239.513 133.132 236.857C133.171 231.514 126.934 233.802 125.663 231.057C123.251 223.793 123.832 216.072 125.302 208.679C126.018 205.076 126.766 201.48 127.573 197.897C128.089 195.634 127.14 193.089 128.089 190.878C129.417 187.765 133.584 191.323 135.422 188.48C137.163 185.793 136.557 179.644 133.326 178.213C130.952 177.156 128.643 179.212 126.708 180.282C126.386 180.463 126.063 178.477 126.063 178.265C126.205 177.496 126.573 176.786 127.121 176.228C128.908 174.101 131.945 173.173 133.706 170.917C134.441 169.963 134.996 168.816 133.758 167.998C132.003 166.844 129.753 169.074 128.076 169.461C123.787 170.46 125.167 162.893 128.979 163.067C130.913 163.151 133.493 166.141 135.351 165.078C138.086 163.499 137.086 155.971 137.666 153.348C138.718 160.148 140.459 165.407 142.626 169.461C144.428 170.939 145.77 172.9 146.496 175.113C159.131 189.499 178.951 180.121 175.565 190.543C170.676 199.353 164.955 209.582 154.526 211.934C152.346 212.475 148.882 211.335 148.315 214.003C147.064 219.636 147.025 222.562 147.883 223.709C150.011 223.11 151.752 221.937 153.984 220.036C154.897 219.07 155.899 218.191 156.977 217.412C160.782 214.19 165.361 211.651 170.147 210.755C171.731 210.088 173.477 209.907 175.165 210.233C175.469 210.148 175.788 210.136 176.097 210.198C176.406 210.259 176.697 210.393 176.945 210.587C181.273 211.663 181.169 217.116 184.627 219.494C182.421 222.833 179.118 219.662 176.242 218.689C175.197 220.861 173.269 220.049 171.592 220.049C169.283 220.049 168.98 221.95 167.909 223.587C166.187 226.216 165.974 225.082 163.646 224.122C160.769 222.949 158.067 226.307 156.583 228.285C155.745 229.504 150.721 236.587 151.23 237.431L150.166 235.626C148.779 245.629 150.082 243.361 156.583 247.485C157.921 247.996 159.284 248.439 160.666 248.813C161.222 248.958 161.786 249.07 162.356 249.148C166.226 247.788 169.953 246.113 174.475 248.762C175.588 249.296 176.813 249.557 178.048 249.522C179.521 249.024 181.03 248.641 182.563 248.375C182.611 248.331 182.656 248.283 182.698 248.233C187.561 241.885 191.953 236.509 200.454 242.974C203.034 244.314 206.465 241.685 202.628 240.074C194.566 230.96 186.2 236.967 177.132 238.404C192.553 219.713 213.682 241.511 229.252 248.684C231.187 249.599 237.946 250.689 234.921 256.876C237.972 264.088 231.967 262.715 234.515 267.188C237.475 270.63 236.618 263.901 238.643 265.899C240.352 269.689 244.002 273.891 241.771 277.603C237.966 283.443 233.612 275.547 229.039 275.199C228.562 282.289 233.683 289.733 224.782 293.761C218.191 297.061 216.991 287.793 211.683 287.187C210.67 287.071 208.161 285.383 209.232 283.411C211.29 280.652 215.508 286.304 220.719 282.489C225.105 280.594 222.009 273.994 227.343 272.705C234.786 267.156 221.99 264.327 217.404 268.084C215.43 268.799 217.63 270.52 218.152 271.809C220.087 276.566 211.515 274.51 213.25 279.234C212.786 279.234 212.147 279.498 211.889 279.286C202.55 270.32 198.493 286.53 194.836 281.529C191.495 273.878 186.768 275.902 181.518 279.402C177.474 283.63 169.618 279.55 175.855 274.639C169.302 273.949 160.163 265.061 158.093 267.375C156.803 276.604 147.347 274.13 142.226 274.252C141.581 269.65 147.134 269.044 147.754 265.229C147.392 263.205 147.444 260.717 148.54 258.906C149.489 257.346 150.985 257.134 152.662 257.069C153.771 257.024 155.28 257.185 156.229 256.476C157.738 255.336 156.08 253.969 155.725 252.654C153.636 252.081 151.333 252.042 149.082 251.887H149.018C148.367 251.903 147.717 251.838 147.083 251.694L146.689 251.649C141.407 250.521 139.93 253.46 139.743 257.772C139.388 260.994 137.428 264.03 134.383 263.186C126.16 260.891 130.733 267.053 130.449 269.167C129.901 273.221 128.933 278.609 127.179 282.263C127.94 280.665 121.045 283.101 120.252 283.836C116.763 287.058 116.698 293.162 117.298 297.422C119.02 309.668 127.269 318.627 135.596 327.07C141.779 333.228 147.139 340.16 151.54 347.694C159.653 361.809 163.465 378.502 158.183 394.312C157.538 396.245 153.668 398.037 149.392 399.062C128.091 404.034 106.18 405.883 84.3467 404.553C65.3975 403.457 47.0288 398.501 28.6084 394.318C19.4305 392.236 10.1688 390.174 0.810257 389.117C-7.77429 388.15 -16.7587 388.975 -25.1433 386.642C-28.6261 385.675 -31.0899 383.813 -31.8187 380.461C-33.0764 378.347 -32.8313 375.917 -31.6382 373.372Z" fill="#C4C3C6"/>
<path d="M260.436 322.958C260.727 322.172 261.01 321.398 261.281 320.644C263.094 315.578 264.287 309.275 269.621 306.684C270.941 306.145 272.414 306.115 273.755 306.6C277.373 307.715 280.695 310.906 283.707 313.097C290.705 318.189 297.845 323.042 304.952 327.979C311.254 332.349 317.026 336.95 317.058 345.22C317.058 352.129 313.962 360.159 318.954 366.121C322.94 370.871 330.048 373.855 326.765 381.377C322.599 390.941 305.894 389.111 297.935 387.1C283.068 383.394 277.889 368.209 275.555 354.636C274.587 349.048 274.774 342.5 272.691 337.189C271.846 335.023 270.375 332.877 267.757 333.721C264.448 334.778 265.287 338.51 265.893 341.095C266.19 342.351 268.253 348.629 265.37 348.262C264.048 348.094 263.39 345.039 262.913 344.124C262.01 342.358 260.617 340.901 259.637 339.18C256.715 334.108 258.553 328.192 260.436 322.958Z" fill="#C4C3C6"/>
<path d="M202.099 194.364C202.409 193.719 202.744 193.036 203.073 192.398C202.925 192.682 204.363 194.918 204.595 195.273C205.433 196.684 206.904 197.503 207.82 198.85C208.315 199.516 208.608 200.311 208.665 201.139C208.722 201.967 208.541 202.794 208.142 203.523C205.769 207.564 204.769 201.95 202.46 201.892C201.202 201.853 200.667 200.229 200.725 199.23C200.873 197.536 201.339 195.885 202.099 194.364Z" fill="#C4C3C6"/>
<path d="M138.57 77.012L146.38 72.2233C143.697 70.0319 144.652 66.6998 146.458 63.8961C140.479 63.5739 140.872 54.873 146.819 54.2285C150.689 53.8224 154.558 53.4035 158.428 52.9394L160.686 51.2315C161.647 50.5032 162.62 49.7813 163.581 49.0788C163.394 48.8604 163.229 48.6228 163.091 48.3698C162.128 46.5992 161.743 44.5719 161.989 42.5716C162.235 40.5712 163.101 38.6978 164.465 37.2133C167.496 33.8361 171.947 33.198 176.236 32.8629C181.75 32.431 182.337 39.9976 178.08 42.0407C180.106 43.1944 181.35 45.4502 180.809 47.59C182.273 47.4997 183.73 47.4869 185.182 47.5384L193.734 47.3708C194.688 47.2901 195.642 47.5339 196.44 48.0627C197.239 48.5914 197.835 49.3742 198.133 50.284C199.008 50.4487 199.813 50.8752 200.441 51.507C201.068 52.1389 201.489 52.9463 201.648 53.8224C202.553 53.8304 203.436 54.1066 204.184 54.6159C204.933 55.1253 205.514 55.845 205.853 56.684C206.912 56.6553 207.95 56.98 208.804 57.6067C209.658 58.2335 210.278 59.1266 210.568 60.1451C211.213 62.4267 209.768 65.7008 207.188 66.0939C199.685 67.255 192.094 67.7403 184.504 67.5441C184.504 67.673 184.44 67.789 184.408 67.905C184.93 68.2848 185.411 68.7167 185.846 69.194C188.129 71.6948 187.478 76.5222 183.711 77.2762C180.822 77.8563 177.915 78.3053 174.991 78.6233C174.526 78.9966 173.991 79.2728 173.417 79.4354C173.23 79.4934 173.037 79.5385 172.843 79.59C172.766 79.7348 172.68 79.8747 172.585 80.009C172.49 80.9023 172.18 81.7594 171.683 82.5078C171.186 83.2561 170.515 83.8736 169.728 84.3079C169.477 85.0051 169.047 85.6241 168.481 86.1027C167.915 86.5813 167.233 86.9025 166.503 87.0342L165.458 87.2984C164.962 89.3286 163.401 91.0044 160.982 90.6885C154.204 89.8056 147.864 86.3639 141.059 86.0223C136.267 85.7774 134.377 79.5836 138.57 77.012Z" fill="#C4C3C6"/>
<path d="M-31.1931 373.886C-17.9196 356.891 -0.505426 345.289 14.116 330.369C16.7561 328.036 19.422 325.733 22.1136 323.46C27.512 318.916 33.0459 314.52 38.7797 310.331C57.3161 296.796 77.839 285.382 100.187 278.286C105.089 276.726 107.379 268.167 113.854 268.302C122.419 268.489 118.304 283.687 115.318 287.638C111.094 293.206 104.721 288.082 103.173 295.913C102.129 301.192 104.27 309.609 99.639 313.65C95.1242 317.608 85.2175 314.333 79.3547 315.03C84.8957 314.865 90.4153 315.786 95.6015 317.743C98.2157 318.699 100.763 319.829 103.225 321.127C120.104 332.406 140.098 343.362 143.968 365.92C144.613 368.498 146.548 370.432 148.482 372.365C150.417 375.588 152.352 380.744 148.482 382.678C130.585 393.312 110.152 402.135 89.3517 402.077C85.8601 402.068 82.3741 401.799 78.9226 401.272C55.6069 396.212 27.8732 390.412 22.7135 360.764C22.0685 360.12 18.1987 365.92 16.9087 369.143C17.495 367.099 18.3633 365.147 19.4886 363.342C18.8437 371.076 22.0685 384.611 11.749 385.256C-1.79537 385.9 -17.2746 391.056 -29.8902 382.781C-32.7087 380.293 -32.741 377.186 -31.1931 373.886Z" fill="white"/>
<path d="M147.212 147.089C142.052 146.406 137.396 145.2 139.331 138.71C140.221 135.726 142.362 133.818 145.477 133.593C148.592 133.367 152.927 134.83 154.055 130.905C154.371 126.2 165.916 121.237 155.126 120.064C153.314 120.329 150.424 122.056 149.695 119.716C149.695 108.115 165.774 98.7632 175.539 105.788C178.08 106.704 176.829 109.991 176.036 110.622C174.746 111.673 171.521 113.407 171.302 115.256C170.979 118.324 176.745 117.312 178.487 117.506C182.434 117.95 186.317 119.349 190.335 118.704C191.309 118.543 201.628 115.843 201.061 115.089C196.546 109.043 175.784 109.23 197.745 106.02C201.067 105.537 204.285 103.191 207.839 102.708C211.333 102.23 214.886 102.412 218.314 103.243C221.732 104.076 224.968 105.531 227.859 107.535C231.374 109.965 234.309 113.084 237.927 115.45C243.222 118.885 247.782 122.617 248.988 129.126C250.24 135.881 246.531 141.372 239.843 142.925C236.65 143.66 233.393 143.138 230.168 143.196C227.472 143.247 225.189 144.485 222.57 144.723C218.533 145.091 213.734 142.887 209.671 142.255C200.59 140.837 191.463 140.966 182.318 141.649C178.97 141.9 175.578 142.332 172.224 141.965C168.999 141.61 165.716 141.011 162.685 142.609C159.937 144.06 158.086 146.921 154.894 147.585C154.197 147.778 150.74 147.559 147.212 147.089Z" fill="white"/>
<path d="M265.899 333.003C265.899 333.003 265.899 332.956 265.899 332.935C265.899 332.915 265.946 332.983 265.899 333.003Z" fill="white"/>
<path d="M267.97 181.719C264.339 179.141 267.196 176.37 270.311 175.822C268.408 176.157 268.776 173.888 269.943 173.199C271.878 172.019 273.691 174.894 275.793 174.301C277.27 173.888 279.534 172.793 280.527 174.488C281.817 176.647 278.799 180.108 277.238 181.365C275.963 182.467 274.351 183.102 272.666 183.166C270.982 183.231 269.326 182.72 267.97 181.719Z" fill="white"/>
<path d="M226.447 286.317C226.595 288.489 225.189 289.075 222.486 288.895C219.507 288.611 226.305 282.024 226.447 286.317Z" fill="white"/>
<path d="M192.566 50.2131C189.148 51.7986 184.465 48.6276 180.957 48.5052C177.281 48.3892 174.707 50.2002 171.927 47.1581C168.76 43.6713 172.34 34.7964 165.336 34.8479C167.754 22.9502 184.124 22.5506 193.482 21.1456C199.674 20.2175 206.64 17.1045 212.922 18.0777C220.945 19.3152 219.062 24.3037 222.261 29.7498C225.969 36.0596 230.342 32.3279 235.644 30.3943C243.319 27.5843 249.556 31.8316 256.283 35.486C262.171 38.7086 269.827 41.1577 274.239 46.4427C279.398 52.7009 276.954 55.4659 273.155 60.7445C269.105 66.3582 272.181 76.2128 280.534 72.0234C284.107 70.2252 287.267 61.2407 280.74 61.9046C280.327 61.9497 280.74 56.3682 282.585 55.7237C284.565 55.0405 286.951 57.7862 288.028 59.0043C291.092 62.4718 294.684 73.0095 288.673 75.3298C290.021 74.8915 291.414 74.5564 292.736 74.0408C294.433 77.2053 291.008 80.6406 288.222 80.531C287.009 80.4859 285.919 79.7769 285.41 78.0947C281.14 78.9713 268.956 85.4035 266.267 81.1111C268.847 78.7393 275.651 76.3868 271.323 71.8301C267.602 67.9179 261.836 73.3189 257.844 74.1245C254.851 74.7304 249.981 72.9709 248.814 76.8573C247.93 79.8736 250.388 81.6589 252.768 82.8577C254.232 83.5924 257.566 83.5989 258.044 85.5389C258.572 87.6658 255.412 89.1481 253.871 89.6573C248.317 91.4813 242.21 89.9667 236.624 89.0515C232.316 88.3425 228.02 86.2027 225.273 82.7417C224.06 81.2077 219.784 70.4959 224.402 71.2694C227.478 71.7592 227.349 76.8766 230 78.1721C233.677 79.9703 237.972 76.6381 236.418 72.726C235.773 71.0309 235.057 69.1038 233.606 67.9114C231.819 66.442 229.413 66.8867 227.279 66.8609C225.504 66.8489 223.747 67.2067 222.119 67.9114C218.87 69.4068 216.131 71.8227 214.244 74.8593C209.787 81.6589 202.634 81.0724 195.043 80.3183C188.245 79.6738 181.963 78.8811 175.171 78.8102C171.624 78.8102 169.367 79.2162 168.935 75.7552C168.844 75.0462 170.766 72.3135 170.999 71.3145C171.302 69.9868 169.747 69.1682 170.354 67.6021C171.856 63.735 176.339 62.5942 180.08 62.3171C183.747 62.0738 187.431 62.2904 191.044 62.9616C195.946 63.8381 200.325 66.558 204.776 68.6655C206.82 69.6323 210.413 72.0105 212.631 70.3993C214.031 69.3809 213.734 68.0275 212.631 67.08C209.523 64.386 202.118 67.08 200.145 62.6651C199.126 60.4029 201.725 59.5457 203.118 58.4693C202.105 59.2556 199.616 51.0832 199.487 50.7352C198.803 48.9821 197.436 46.8681 198.803 45.115C201.073 45.6629 203.731 46.1849 204.189 43.0332C204.292 42.5427 204.265 42.0339 204.112 41.5566C203.959 41.0794 203.684 40.6503 203.314 40.3115C202.944 39.9727 202.493 39.7359 202.004 39.6243C201.515 39.5128 201.005 39.5304 200.525 39.6753C196.385 40.6614 196.43 46.5136 193.934 49.1432C193.551 49.5841 193.086 49.9473 192.566 50.2131ZM242.655 58.1406C242.85 58.6545 243.089 59.1505 243.371 59.623C244.28 61.1441 245.886 62.2011 246.595 63.8768C247.118 65.0627 247.382 73.7636 250.239 68.7364C251.613 66.3002 250.639 62.0915 250.188 59.4812C249.436 55.2663 247.193 51.4621 243.867 48.763C237.417 43.3619 228.549 41.3769 220.532 40.6743C218.088 40.4616 213.766 39.9009 211.786 41.8925C209.49 44.2063 211.722 45.7595 213.928 46.1785C221.474 47.6157 229.446 44.2449 236.818 47.0872C239.959 48.286 240.778 51.6891 241.623 54.7376C241.908 55.889 242.252 57.0248 242.655 58.1406Z" fill="white"/>
<path d="M264.268 316.739C264.119 315.862 263.539 315.05 263.739 314.161C263.993 313.252 264.528 312.447 265.267 311.86C267.847 309.662 271.923 310.448 274.942 310.964C284.165 312.53 292.085 316.12 296.948 324.421C297.748 325.788 299.386 328.147 298.361 329.752C297.225 331.537 294.039 330.055 293.349 332.297C292.627 334.643 295.245 337.454 296.458 339.239C300.199 344.685 304.256 349.88 307.351 355.738C309.164 359.167 313.259 367.507 308.319 370.343C305.191 372.141 300.831 368.036 298.283 371.632C296.516 374.126 298.612 378.722 295.703 380.546C291.537 383.124 288.789 376.111 287.428 373.546C284.687 368.39 280.611 363.879 278.947 358.162C277.012 351.607 278.676 344.627 277.251 338.021C275.929 331.872 272.388 329.223 266.538 327.709C264.177 327.103 261.539 326.568 261.236 323.68C261.056 321.908 262.526 320.722 263.416 319.401C263.938 318.764 264.255 317.984 264.326 317.164C264.322 317.021 264.303 316.878 264.268 316.739Z" fill="white"/>
<path d="M127.366 226.623C128.127 225.649 129.759 224.296 132.597 222.382C131.384 223.497 127.856 225.456 127.547 222.743C127.302 220.648 132.236 218.031 133.403 216.491C137.131 211.586 132.797 198.225 138.492 196.15C144.98 193.778 147.218 206.933 145.412 210.974C143.419 215.402 136.757 216.536 133.925 220.738C136.415 221.795 143.658 219.069 140.93 224.605C148.966 225.314 150.92 223.851 156.848 218.547C161.704 214.203 167.941 211.006 174.262 210.961C176.003 210.961 178.164 209.588 178.087 214.003C178.048 216.355 176.493 217.87 174.391 218.663C172.288 219.456 169.612 217.806 167.877 219.03C167.309 219.43 167.232 220.416 166.709 220.841C166.064 221.363 163.749 222.13 162.949 221.692C162.433 221.389 161.582 219.114 162.156 218.759C158.815 220.641 156.919 225.295 154.081 228.131C151.462 230.741 147.147 232.114 146.07 235.897C143.987 243.277 155.59 247.911 161.143 249.387C164.936 250.392 169.437 249.664 173.488 250.373C178.209 251.198 180.273 248.82 184.388 248.871C188.903 248.929 189.651 251.449 186.555 254.981C183.562 258.403 179.415 257.495 175.816 257.069C175.965 263.063 184.846 259.841 188.264 259.003C193.379 257.746 199.229 259.274 204.027 257.952C214.147 255.149 196.933 251.933 194.146 248.123C192.276 245.584 189.973 240.08 195.062 240.976C198.126 241.517 200.293 247.137 204.027 248.117C211.909 250.186 221.912 243.605 228.929 249.245C238.92 257.327 228.33 262.374 220.487 261.781C218.126 261.6 214.34 261.136 212.496 263.398C209.916 266.582 213.934 267.949 212.36 270.797C210.567 274.02 196.726 273.543 193.559 272.828C188.058 271.577 182.724 264.571 176.79 266.737C179.66 273.034 162.311 270.881 168.406 264.384C166.432 263.637 158.221 265.377 156.093 266.376C152.868 267.884 149.721 273.91 148.231 265.912C145.812 252.977 161.001 260.111 160.563 254.163C160.305 250.753 153.771 248.929 151.017 249.006C144.954 249.2 145.18 250.798 141.285 244.695C140.375 243.264 133.803 237.251 133.829 236.864C133.964 234.563 139.633 234.576 139.201 231.579C138.614 227.331 123.883 231.05 127.366 226.623Z" fill="white"/>
<path d="M235.495 229.439C233.56 227.338 234.386 220.983 229.329 223.793C223.95 226.809 223.479 222.743 221.196 219.874C213.915 218.263 204.737 221.164 202.118 211.999C201.267 207.236 207.22 207.996 209.574 209.298C208.826 203.497 215.43 206.72 218.146 208.009C222.738 210.252 229.252 212.301 232.819 215.943C233.704 216.971 234.68 217.918 235.734 218.772C239.455 221.46 243.66 223.606 247.414 226.352C250.491 228.588 251.884 234.138 252.703 237.727C253.522 241.317 253.845 247.06 249.588 248.736C248.427 249.193 242.938 249.019 244.505 247.124C245.015 246.48 245.898 247.086 246.479 246.828C247.315 246.442 248.082 245.922 248.749 245.288C249.936 244.256 252.806 241.981 251.284 240.132C249.923 238.443 249.865 240.589 248.852 241.543C247.84 242.497 245.118 243.625 243.66 242.742C242.371 241.955 241.287 237.992 242.093 236.6C243.525 234.112 243.751 236.896 244.95 237.889C247.898 240.273 246.556 234.473 245.686 232.971C244.815 231.469 241.816 226.842 239.623 227.963C237.43 229.085 238.901 234.382 235.495 229.439Z" fill="white"/>
<path d="M161.118 41.2803C161.599 41.6241 162.105 41.9301 162.633 42.1955C164.639 43.1752 170.289 45.2569 166.794 48.0992C164.826 49.6912 161.285 48.2088 159.512 50.1939C156.932 53.1071 161.589 53.9965 163.653 54.3381C165.716 54.6797 169.76 54.5573 169.786 57.522C169.825 61.1571 164.401 61.3311 161.989 60.809C162.402 60.8326 162.81 60.9129 163.201 61.0475C163.311 63.69 159.725 65.6493 157.396 65.6171C154.41 65.572 152.591 62.4525 149.657 62.3945C146.98 62.3301 145.213 65.6171 142.562 65.1273C140.408 64.7277 139.982 61.576 137.525 61.9047C136.88 60.1516 137.686 53.9579 140.904 55.1115C142.936 55.8398 141.698 59.2751 141.227 60.6672C143.413 59.1075 145.264 57.116 147.49 55.5949C148.954 54.5959 151.179 53.887 152.004 52.2112C152.694 50.832 151.443 46.1979 153.797 46.5975C154.629 44.0195 149.928 36.1629 156.764 38.5282C158.325 39.0825 159.692 40.2877 161.118 41.2803Z" fill="white"/>
<path d="M140.659 69.9475C142.149 71.6748 142.729 74.6524 145.496 74.6975C146.509 74.6975 149.366 72.5578 149.669 74.3624C149.882 75.5354 146.993 77.1402 146.393 78.0039C144.98 80.0212 144.535 83.9527 146.012 86.0796C148.25 89.3022 156.409 81.9032 156.151 86.1183C155.861 90.7652 145.477 91.3453 142.504 90.2303C140.117 89.3344 138.602 87.9101 138.892 85.2676C139.079 83.5532 140.685 81.5938 139.169 80.0148C137.376 78.1521 133.474 79.8279 131.262 79.5829C128.792 79.3187 125.767 75.0714 129.327 74.704C130.617 74.5815 138.286 80.3113 138.292 75.4387C138.292 72.4611 132.152 74.7942 132.416 71.185C132.694 67.1632 138.872 67.885 140.659 69.9475Z" fill="white"/>
<path d="M194.043 197.632C170.973 207.035 182.073 184.252 180.983 172.644C179.357 161.339 195.269 151.91 196.462 166.972C197.687 172.631 199.3 178.793 196.958 184.032C194.933 188.55 201.538 194.345 194.043 197.632Z" fill="white"/>
<path d="M185.098 155.674C182.569 151.807 189.438 152.033 191.476 153.347C193.334 156.802 187.091 156.866 185.098 155.674Z" fill="white"/>
<path d="M138.783 253.182C138.576 254.308 137.966 255.32 137.067 256.03C134.822 257.545 130.566 255.644 131.075 252.685C131.494 250.307 135.396 249.837 134.764 247.136C134.39 245.525 131.082 244.558 131.217 242.792C131.436 239.95 138.957 243.856 136.919 247.723C138.795 248.457 139.292 251.023 138.783 253.182Z" fill="white"/>
<path d="M146.07 339.638C146.025 339.592 146.167 339.573 146.206 339.541L146.07 339.638Z" fill="white"/>
<path d="M239.856 200.637C230.013 202.68 206.91 190.266 204.382 181.997C203.518 179.187 208.729 180.302 209.652 180.451C214.734 181.282 220.313 179.297 225.215 180.811C228.852 181.933 231.916 185.491 236.031 184.247C243.422 183.029 242.945 198.626 239.856 200.637Z" fill="white"/>
<path d="M241.029 175.648C240.036 171.781 252.426 158.575 256.276 158.93C261.268 159.387 260.849 163.312 260.791 167.863C264.667 180.327 244.712 192.122 241.029 175.648Z" fill="white"/>
<path d="M275.98 170.402C269.105 157.86 282.566 166.967 283.243 170.725C282.159 174.74 278.876 165.652 275.98 170.402Z" fill="white"/>
<path d="M239.062 274.278C238.088 277.668 231.168 273.305 232.903 270.92C236.031 272.119 238.482 271.713 239.062 274.278Z" fill="white"/>
<path d="M160.44 200.939C145.432 210.136 151.591 192.611 139.679 189.022C133.784 188.809 134.732 167.688 140.324 168.268C146.535 170.969 148.386 177.478 147.579 182.319C146.934 193.971 157.306 187.9 165.935 187.997C172.514 187.836 164.046 200.816 160.44 200.939Z" fill="white"/>
<path d="M288.609 102.676C286.293 102.721 282.804 100.027 284.442 105.724C284.887 107.291 281.985 109.637 280.889 108.837C273.987 104.706 263.713 111.97 258.624 103.604C260.875 97.8421 270.821 103.565 273.4 101.671C277.315 98.8347 277.412 92.0028 283.784 90.2304C286.035 89.5859 285.777 83.3212 289.357 84.3396C296.761 85.9702 297.477 102.876 288.609 102.676Z" fill="white"/>
<path d="M301.269 99.6208C298.354 99.5886 298.586 96.6432 298.773 97.6873C296.619 89.2571 303.798 89.2442 303.559 94.7419C303.224 96.4691 304.269 99.6466 301.269 99.6208Z" fill="white"/>
</g>
<defs>
<clipPath id="clip0">
<rect width="409.375" height="431.25" fill="white" transform="translate(-50 0.25)"/>
</clipPath>
</defs>
</svg>
