<svg width="606" height="400" viewBox="0 0 606 400" fill="none" xmlns="http://www.w3.org/2000/svg">
<g clip-path="url(#clip0)">
<path fill-rule="evenodd" clip-rule="evenodd" d="M268.171 205.931H261.947V199.707H268.171V193.467H261.947V187.227H268.171V181.003H274.411V174.764H268.171V180.988H261.947V174.764H268.171V168.52H261.931V174.76H255.707V180.984H249.467V174.76H243.228V180.984H237.003V174.76H243.228V168.52H236.987V174.76H230.764V168.52H224.521V174.76H230.76V180.984H224.521V187.224H230.76V193.464H224.521V199.704H230.76V205.928V205.944H236.984V212.168H243.224V205.944H249.464V212.168H255.704V205.944H261.928V212.168H268.168V205.944H274.408V199.704H268.168V205.931H268.171ZM230.76 205.946V212.171H224.521V205.931H230.76V205.946ZM249.464 174.76V168.52H255.704V174.76H249.464ZM268.171 187.224V193.464H274.411V187.224H268.171ZM236.984 181H230.76V187.224H236.984V181ZM237.001 212.171V218.411H243.225V212.171H249.465V218.411H255.705V212.171H261.945V218.411H268.169V212.171H274.409V218.411H268.169V224.651H261.929V218.411H255.705V224.651H249.465V218.411H243.225V224.651H236.985V218.411H230.761V224.651H224.521V218.411H230.761V212.171H237.001ZM261.928 199.707V193.467H255.704V199.707H261.928ZM249.464 199.707V205.931H255.704V199.707H249.464ZM243.224 199.707H249.464V193.467H243.224V199.707ZM243.224 199.707H237V205.931H243.224V199.707ZM243.224 187.224H237V193.464H243.224V187.224ZM249.464 187.224V181H243.224V187.224H249.464ZM255.707 187.224H249.468V193.464H255.707V187.224ZM255.707 187.224H261.931V181H255.707V187.224ZM236.984 193.464V199.704H230.76V193.464H236.984ZM280.651 174.76H274.411V168.52H280.651V174.76ZM274.411 187.224H280.651V180.984H274.411V187.224ZM280.651 199.707H274.411V193.467H280.651V199.707ZM274.411 212.171H280.651V205.931H274.411V212.171ZM274.411 224.651H280.651V218.411H274.411V224.651Z" fill="#4038FF"/>
<path fill-rule="evenodd" clip-rule="evenodd" d="M548.822 205.931H542.597V199.707H548.822V193.467H542.597V187.227H548.822V181.003H555.061V174.764H548.822V180.988H542.597V174.764H548.822V168.52H542.582V174.76H536.358V180.984H530.118V174.76H523.878V180.984H517.654V174.76H523.878V168.52H517.638V174.76H511.414V168.52H505.171V174.76H511.411V180.984H505.171V187.224H511.411V193.464H505.171V199.704H511.411V205.928V205.944H517.635V212.168H523.875V205.944H530.114V212.168H536.355V205.944H542.579V212.168H548.819V205.944H555.058V199.704H548.819V205.931H548.822ZM511.411 205.946V212.171H505.171V205.931H511.411V205.946ZM530.114 174.76V168.52H536.354V174.76H530.114ZM548.822 187.224V193.464H555.061V187.224H548.822ZM517.635 181H511.411V187.224H517.635V181ZM517.65 212.171V218.411H523.875V212.171H530.114V218.411H536.355V212.171H542.594V218.411H548.819V212.171H555.058V218.411H548.819V224.651H542.579V218.411H536.355V224.651H530.114V218.411H523.875V224.651H517.635V218.411H511.411V224.651H505.171V218.411H511.411V212.171H517.65ZM542.579 199.707V193.467H536.354V199.707H542.579ZM530.114 199.707V205.931H536.354V199.707H530.114ZM523.875 199.707H530.114V193.467H523.875V199.707ZM523.875 199.707H517.65V205.931H523.875V199.707ZM523.875 187.224H517.65V193.464H523.875V187.224ZM530.114 187.224V181H523.875V187.224H530.114ZM536.358 187.224H530.118V193.464H536.358V187.224ZM536.358 187.224H542.582V181H536.358V187.224ZM517.635 193.464V199.704H511.411V193.464H517.635ZM561.301 174.76H555.061V168.52H561.301V174.76ZM555.061 187.224H561.301V180.984H555.061V187.224ZM561.301 199.707H555.061V193.467H561.301V199.707ZM555.061 212.171H561.301V205.931H555.061V212.171ZM555.061 224.651H561.301V218.411H555.061V224.651Z" fill="#DEE3E9"/>
<path fill-rule="evenodd" clip-rule="evenodd" d="M211.651 37.4106H205.426V31.1864H211.651V24.9467H205.426V18.707H211.651V12.4828H217.89V6.24316H211.651V12.4674H205.426V6.24316H211.651V-3.8147e-06H205.411V6.23967H199.187V12.4639H192.947V6.23967H186.707V12.4639H180.483V6.23967H186.707V-3.8147e-06H180.467V6.23967H174.243V-3.8147e-06H168V6.23967H174.24V12.4639H168V18.704H174.24V24.9437H168V31.1834H174.24V37.4076V37.4231H180.464V43.6473H186.704V37.4231H192.943V43.6473H199.184V37.4231H205.408V43.6473H211.648V37.4231H217.887V31.1834H211.648V37.4106H211.651ZM174.24 37.426V43.6507H168V37.4106H174.24V37.426ZM192.943 6.23966V-1.52588e-05H199.184V6.23966H192.943ZM211.651 18.704V24.9437H217.89V18.704H211.651ZM180.464 12.4793H174.24V18.704H180.464V12.4793ZM180.48 43.6507V49.8904H186.704V43.6507H192.943V49.8904H199.184V43.6507H205.423V49.8904H211.648V43.6507H217.887V49.8904H211.648V56.1301H205.408V49.8904H199.184V56.1301H192.943V49.8904H186.704V56.1301H180.464V49.8904H174.24V56.1301H168V49.8904H174.24V43.6507H180.48ZM205.408 31.1864V24.9467H199.184V31.1864H205.408ZM192.943 31.1864V37.4106H199.184V31.1864H192.943ZM186.704 31.1864H192.943V24.9467H186.704V31.1864ZM186.704 31.1864H180.479V37.4106H186.704V31.1864ZM186.704 18.704H180.479V24.9437H186.704V18.704ZM192.943 18.704V12.4793H186.704V18.704H192.943ZM199.187 18.704H192.947V24.9437H199.187V18.704ZM199.187 18.704H205.411V12.4793H199.187V18.704ZM180.464 24.9437V31.1834H174.24V24.9437H180.464ZM224.13 6.23966H217.89V-1.52588e-05H224.13V6.23966ZM217.89 18.704H224.13V12.4639H217.89V18.704ZM224.13 31.1864H217.89V24.9467H224.13V31.1864ZM217.89 43.6507H224.13V37.4106H217.89V43.6507ZM217.89 56.1301H224.13V49.8904H217.89V56.1301Z" fill="#A7AEB7"/>
<path fill-rule="evenodd" clip-rule="evenodd" d="M330.541 224.651H336.781V280.781H330.541V224.651ZM324.308 224.651H318.071V280.781H324.308V224.651ZM311.835 224.651H305.598V280.781H311.835V224.651ZM293.124 224.651H299.361V280.781H293.124V224.651ZM286.887 224.651H280.651V280.781H286.887V224.651Z" fill="#4038FF"/>
<path fill-rule="evenodd" clip-rule="evenodd" d="M337.342 106.151V112.39H281.212V106.151H337.342ZM337.342 99.917V93.6803H281.212V99.917H337.342ZM337.342 87.4436V81.2069H281.212V87.4436H337.342ZM337.342 68.7336V74.9703H281.212V68.7336H337.342ZM337.342 62.4969V56.2602H281.212V62.4969H337.342Z" fill="#DEE3E9"/>
<path fill-rule="evenodd" clip-rule="evenodd" d="M554.462 336.911H560.698C560.698 305.911 535.568 280.781 504.568 280.781V287.017C532.125 287.017 554.462 309.354 554.462 336.911ZM541.988 336.911H548.225C548.225 312.8 528.679 293.254 504.568 293.254V299.491C525.234 299.491 541.988 316.245 541.988 336.911ZM535.752 336.911H529.515C529.515 323.134 518.345 311.964 504.568 311.964V305.727C521.791 305.727 535.752 319.688 535.752 336.911ZM517.042 336.911H523.279C523.279 326.577 514.902 318.201 504.568 318.201V324.437C511.457 324.437 517.042 330.022 517.042 336.911ZM504.568 336.911H510.805C510.805 333.465 508.014 330.674 504.568 330.674V336.911Z" fill="white"/>
<path fill-rule="evenodd" clip-rule="evenodd" d="M174.627 112.39H168.39C168.39 143.39 193.521 168.52 224.52 168.52V162.284C196.964 162.284 174.627 139.947 174.627 112.39ZM187.101 112.39H180.864C180.864 136.501 200.41 156.047 224.521 156.047V149.81C203.855 149.81 187.101 133.056 187.101 112.39ZM193.338 112.39H199.574C199.574 126.167 210.744 137.337 224.521 137.337V143.574C207.298 143.574 193.338 129.613 193.338 112.39ZM212.047 112.39L205.811 112.39C205.811 122.725 214.187 131.1 224.521 131.1V124.864C217.632 124.864 212.047 119.279 212.047 112.39ZM224.521 112.39H218.284C218.284 115.836 221.075 118.627 224.521 118.627V112.39Z" fill="white"/>
<path fill-rule="evenodd" clip-rule="evenodd" d="M449 386.804V393.041C479.999 393.041 505.13 367.91 505.13 336.911H498.893C498.893 364.467 476.556 386.804 449 386.804ZM449 374.331V380.567C473.111 380.567 492.656 361.022 492.656 336.911H486.42C486.42 357.576 469.665 374.331 449 374.331ZM449 368.094V361.857C462.777 361.857 473.947 350.688 473.947 336.911H480.183C480.183 354.133 466.223 368.094 449 368.094ZM449 349.384V355.62C459.334 355.62 467.71 347.245 467.71 336.911H461.473C461.473 343.799 455.888 349.384 449 349.384ZM449 336.911V343.147C452.445 343.147 455.236 340.356 455.236 336.911H449Z" fill="#A7AEB7"/>
<path d="M449.602 0.130127V56.2602H393.472C393.472 25.2608 418.603 0.130127 449.602 0.130127Z" fill="#DEE3E9"/>
<path fill-rule="evenodd" clip-rule="evenodd" d="M6.23973 112.39H0V168.52H6.23973V112.39ZM24.953 112.39H31.1927V168.52H24.953V112.39ZM43.6662 112.39H37.4265V168.52H43.6662V112.39ZM56.1301 112.39H49.8904V168.52H56.1301V112.39ZM12.4794 112.39H18.7192V168.52H12.4794V112.39Z" fill="#DEE3E9"/>
<path fill-rule="evenodd" clip-rule="evenodd" d="M417.547 129.523C423.729 125.467 442.812 125.46 448.277 126.408C456.527 127.839 465.762 130.018 470.93 137.804C474.382 143.006 473.99 150.009 474.335 155.605C474.528 158.744 474.711 161.716 475.419 164.471C475.688 164.383 475.959 164.282 476.124 164.22C485.254 160.802 496.522 163.966 503.524 171.915C505.984 174.707 505.356 177.004 504.972 177.861C504.662 178.558 504.176 179.132 503.531 179.568C502.877 180.009 502.187 180.218 501.597 180.364C492.229 182.69 483.46 183.247 474.79 182.067C465.409 180.792 457.736 177.648 451.987 172.726C446.173 167.746 442.511 160.673 441.983 153.932C439.552 154.929 437.195 156.378 434.75 157.881C430.32 160.605 425.738 163.421 420.09 163.887C415.066 164.302 410.149 162.747 405.134 160.976C394.19 157.113 381.59 152.32 370.557 144.293C368.204 142.581 365.837 140.594 364.468 137.671C362.893 134.305 363.188 130.763 363.404 128.175C363.96 121.491 365.255 114.167 370.638 110.536C371.059 110.252 371.505 109.992 371.962 109.765C374.055 108.722 376.356 108.394 378.386 108.104C380.337 107.826 382.181 107.563 383.399 106.741C383.55 106.639 383.693 106.529 383.823 106.411C384.774 105.557 385.337 104.107 385.826 102.378C392.538 105.198 403.112 114.246 417.547 129.523Z" fill="black" stroke="black" stroke-width="3.19826"/>
<path fill-rule="evenodd" clip-rule="evenodd" d="M373.468 112.701C368.169 115.334 367.036 122.456 366.526 128.662C366.315 131.233 366.137 133.959 367.273 136.379C368.304 138.574 370.265 140.181 372.21 141.596C382.474 149.063 394.234 153.706 405.935 157.844C410.402 159.425 415.035 160.965 419.589 160.594C429.153 159.816 435.934 150.922 445.382 149.527C443.964 156.946 447.944 165.164 453.925 170.283C459.906 175.402 467.541 177.825 474.997 178.846C483.814 180.054 492.321 179.293 500.676 177.229C501.247 177.089 501.881 176.896 502.123 176.352C502.452 175.617 501.878 174.728 501.309 174.082C495.272 167.236 485.316 164.433 477.457 167.367C476.179 167.844 474.603 168.402 473.492 167.429C472.939 166.944 472.684 166.202 472.489 165.497C470.217 157.266 472.39 147.953 467.612 140.767C463.191 134.118 454.739 132.197 447.245 130.89C441.135 129.824 434.435 128.863 429.462 132.121C426.282 134.204 424.33 137.707 422.003 140.752C416.832 147.524 407.482 152.408 399.58 147.93C392.456 143.893 390.12 134.179 391.222 126.265C391.365 125.239 391.62 124.115 392.467 123.606C393.642 122.903 395.182 123.751 396.542 124.26C400.469 125.729 377.379 110.757 373.468 112.701Z" fill="black"/>
<path fill-rule="evenodd" clip-rule="evenodd" d="M464.523 138.586C464.8 138.888 465.138 139.113 465.186 139.556L465.154 139.49C469.859 146.883 469.319 155.168 470.649 163.112C471.085 165.713 471.195 168.094 473.024 170.417C474 171.658 478.479 175.168 478.105 175.938C478.028 176.097 472.476 176.072 470.47 175.862C457.184 174.472 452.913 168.288 452.913 168.288C447.104 162.117 448.067 155.974 448.666 154.849C451.493 149.537 464.821 144.874 465.197 144.109C465.478 143.538 460.699 139.951 455.272 139.596C453.436 139.339 452.573 140.741 451.922 141.823C448.648 147.271 447.135 147.591 441.867 150.106C438.513 151.706 426.579 140.175 428.314 135.331C429.818 131.126 430.3 131.537 434.225 131.369C436.748 131.262 443.461 130.699 449.773 132.042C456.594 133.493 462.997 136.918 464.523 138.586Z" fill="#DEE3E9"/>
<path fill-rule="evenodd" clip-rule="evenodd" d="M459.897 144.381C462.869 142.379 466.985 145.06 469.258 152.445C471.53 159.829 470.461 146.281 469.82 145.332C468.376 143.194 462.858 131.96 457.515 135.558C452.173 139.156 449.013 143.805 450.457 145.943C451.901 148.081 454.555 147.978 459.897 144.381Z" fill="black"/>
<path fill-rule="evenodd" clip-rule="evenodd" d="M457.574 140.523C449.643 144.424 447.493 147.64 442.67 150.009C439.6 151.516 441.547 131.294 444.396 131.069C446.227 130.924 453.511 130.448 458.91 132.285C464.309 134.121 464.973 136.371 467.606 139.574C463.015 138.593 459.439 139.605 457.574 140.523Z" fill="white"/>
<path fill-rule="evenodd" clip-rule="evenodd" d="M496.419 177.648C490.053 179.521 482.966 174.136 478.78 170.652C477.301 169.421 477.854 168.31 479.762 168.081C486.838 167.236 494.993 168.616 500.572 174.366C501.187 175 497.618 177.296 496.419 177.648Z" fill="#DEE3E9"/>
<path fill-rule="evenodd" clip-rule="evenodd" d="M390.226 128.445C390.179 128.661 390.131 128.878 390.084 129.095C390.076 129.255 390.053 129.394 390.059 129.575L390.226 128.445Z" fill="#D796A0"/>
<path fill-rule="evenodd" clip-rule="evenodd" d="M398.623 115.815C396.274 113.179 391.845 110.181 387.748 110.393C385.451 110.512 385.155 111.541 379.763 112.514C378.363 112.767 377.802 112.943 376.522 113.156C371.22 114.036 368.521 117.262 367.718 122.612C367.22 125.923 366.315 129.136 366.322 132.568C366.36 135.888 368.154 138.143 370.681 140.176C376.774 145.074 404.422 157.207 415.325 160.492C418.02 161.304 419.831 160.19 419.879 159.903C420.159 158.225 418.407 158.268 417.407 157.737C410.775 154.219 403.931 151.233 397.38 147.496C394.783 146.016 392.944 144.231 391.729 142.181C390.847 140.694 390.567 137.849 389.903 132.216C389.559 129.304 389.439 127.553 389.554 125.462C389.584 124.896 389.695 123.131 390.221 120.941C390.221 120.941 390.961 117.855 392.73 116.01C393.116 115.607 393.52 115.305 393.858 115.438C393.957 115.477 394.191 115.608 394.375 116.269C394.688 117.391 394.311 118.347 394.307 118.688C394.274 121.329 395.008 123.229 396.341 124.246C397.831 125.383 399.685 125.003 401.955 124.514C403.864 124.102 406.267 123.139 406.125 122.445C406.052 122.093 405.351 121.933 404.996 121.832C402.118 121.011 400.509 117.932 398.623 115.815Z" fill="#DEE3E9"/>
<path fill-rule="evenodd" clip-rule="evenodd" d="M390.699 114.816C386.363 115.287 385.918 130.16 386.259 133.073C386.719 137.018 373.214 142.238 370.668 140.191C368.144 138.16 366.353 135.906 366.318 132.585C366.315 129.151 367.223 125.936 367.724 122.623C368.532 117.271 371.234 114.041 376.535 113.155C377.815 112.94 378.376 112.763 379.776 112.508C385.167 111.53 385.463 110.5 387.76 110.379C387.781 110.378 387.802 110.377 387.824 110.376C389.855 111.737 390.523 111.813 391.979 113.953L390.699 114.816Z" fill="white"/>
<path fill-rule="evenodd" clip-rule="evenodd" d="M341.212 261.33C369.64 250.589 354.158 227.256 357.334 223.319C362.127 217.375 367.954 210.976 376.456 210.296C382.136 209.841 387.553 213.247 392.173 215.445C394.763 216.677 397.216 217.844 399.729 218.496C399.778 218.243 399.817 217.982 399.841 217.824C401.154 209.035 408.666 201.451 418.111 199.38C421.428 198.653 422.983 200.168 423.498 200.853C423.916 201.408 424.16 202.049 424.222 202.756C424.285 203.472 424.146 204.114 424.002 204.649C421.712 213.144 418.276 220.38 413.497 226.77C408.327 233.685 402.422 238.413 395.948 240.821C389.399 243.257 382.133 243.051 376.518 240.494C376.238 242.873 376.352 245.392 376.469 248.005C376.554 249.897 386.865 247.217 388.224 249.289C390.266 252.404 383.467 260.307 382.189 263.134C380.297 267.322 373.358 273.629 369.725 276.844C361.798 283.862 348.745 291.409 337.455 296.659C335.046 297.778 332.413 298.787 329.474 298.587C326.09 298.356 323.393 296.556 321.423 295.241C316.334 291.845 310.817 284.093 310.301 278.198C310.261 277.737 310.251 277.267 310.272 276.802C310.365 274.673 311.122 272.694 311.789 270.947C312.431 269.269 313.037 267.683 312.92 266.349C312.906 266.183 312.881 266.021 312.844 265.865C312.583 264.73 311.675 263.64 310.512 262.487C315.733 258.382 325.967 257.997 341.212 261.33Z" fill="black" stroke="black" stroke-width="3.19826"/>
<path fill-rule="evenodd" clip-rule="evenodd" d="M313.347 276.872C313.108 282.263 318.291 286.319 323.019 289.473C324.977 290.78 327.074 292.129 329.507 292.295C331.714 292.445 333.863 291.592 335.851 290.668C346.342 285.791 355.24 278.469 363.71 270.972C366.943 268.11 370.218 265.098 371.933 261.303C375.535 253.333 371.432 243.989 374.491 235.837C379.785 240.253 388.101 240.718 394.827 238.216C401.554 235.713 406.858 230.698 410.965 225.206C415.823 218.71 418.972 211.591 421.014 204.015C421.154 203.498 421.28 202.907 420.953 202.472C420.512 201.885 419.549 201.949 418.782 202.117C410.653 203.9 404.02 210.596 402.891 218.162C402.707 219.392 402.457 220.895 401.19 221.35C400.559 221.576 399.854 221.452 399.205 221.295C391.633 219.462 385.16 213.606 377.316 214.234C370.057 214.815 364.793 220.704 360.44 226.1C356.891 230.5 353.166 235.417 353.57 240.824C353.828 244.282 355.762 247.39 357.165 250.593C360.286 257.714 360.054 267.331 352.992 271.65C346.623 275.543 337.84 273.104 332.011 268.722C331.256 268.153 330.471 267.452 330.439 266.551C330.397 265.304 331.753 264.451 332.76 263.592C335.667 261.112 313.522 272.893 313.347 276.872Z" fill="black"/>
<path fill-rule="evenodd" clip-rule="evenodd" d="M374.212 215.731C374.575 215.644 374.904 215.474 375.279 215.632L375.212 215.628C383.19 215.15 389.563 219.249 396.49 221.705C398.758 222.509 400.708 223.476 403.369 223.046C404.79 222.817 409.569 220.8 410.018 221.439C410.111 221.571 407.639 225.986 406.586 227.493C399.61 237.471 392.789 238.138 392.789 238.138C385.299 240.038 380.822 236.55 380.189 235.575C377.198 230.968 379.362 218.277 378.917 217.638C378.586 217.162 373.613 219.384 370.933 223.554C369.918 224.904 370.655 226.213 371.232 227.211C374.133 232.233 373.399 234.873 373.08 240.187C372.876 243.569 358.725 246.688 355.625 243.16C352.934 240.099 353.475 239.896 355.074 236.693C356.102 234.634 358.618 229.033 362.477 224.594C366.646 219.798 372.208 216.209 374.212 215.731Z" fill="#DEE3E9"/>
<path fill-rule="evenodd" clip-rule="evenodd" d="M376.794 221.985C376.509 218.729 380.466 216.634 387.362 218.092C394.259 219.55 382.975 214.403 381.935 214.494C379.591 214.699 368.189 214.125 368.701 219.978C369.213 225.83 371.528 230.409 373.872 230.204C376.216 229.999 377.306 227.838 376.794 221.985Z" fill="black"/>
<path fill-rule="evenodd" clip-rule="evenodd" d="M372.687 223.069C372.166 231.812 373.881 235.198 373.561 240.512C373.357 243.895 356.918 232.682 358.117 230.095C358.888 228.433 362.038 221.866 366.256 218.029C370.473 214.192 372.732 214.673 376.773 213.888C373.686 217.424 372.809 221.014 372.687 223.069Z" fill="white"/>
<path fill-rule="evenodd" clip-rule="evenodd" d="M419.469 207.594C418.153 213.499 410.726 216.765 406.097 218.561C404.462 219.195 403.82 218.262 404.479 216.64C406.929 210.623 411.631 204.732 418.684 202.829C419.461 202.62 419.717 206.482 419.469 207.594Z" fill="#DEE3E9"/>
<path fill-rule="evenodd" clip-rule="evenodd" d="M333.711 270.791C333.716 270.794 333.721 270.797 333.726 270.8C333.73 270.801 333.733 270.803 333.737 270.805L333.711 270.791Z" fill="#D796A0"/>
<path fill-rule="evenodd" clip-rule="evenodd" d="M326.655 254.129C323.515 254.834 319.166 257.038 317.526 260.399C316.607 262.283 317.297 262.975 315.692 267.704C315.276 268.932 315.169 269.458 314.774 270.573C313.135 275.19 314.964 285.159 318.879 288.167C321.301 290.03 323.466 292.175 326.208 293.688C328.874 295.128 331.466 294.696 334.204 293.581C340.804 290.892 362.938 277.704 370.375 270.465C372.213 268.675 372.123 266.739 371.915 266.573C370.7 265.607 360.742 265.217 350.126 263.625C349.044 263.463 344.481 266.354 340.538 268.381C336.594 270.407 331.967 266.648 330.349 265.631C329.91 265.356 328.551 264.486 327.036 263.097C327.036 263.097 324.9 261.14 324.208 258.913C324.057 258.427 323.995 257.971 324.25 257.761C324.325 257.699 324.533 257.571 325.141 257.716C326.175 257.964 326.771 258.687 327.042 258.841C329.135 260.038 330.975 260.293 332.375 259.681C333.941 258.996 334.741 261.414 335.353 259.388C335.867 257.684 336.159 255.341 335.543 255.147C335.23 255.05 334.509 251.473 334.271 251.711C332.345 253.642 329.178 253.562 326.655 254.129Z" fill="#DEE3E9"/>
<path fill-rule="evenodd" clip-rule="evenodd" d="M353.35 266.584C343.914 271.672 338.49 274.762 337.079 275.853C336.293 276.46 334.86 280.117 332.777 286.823C332.515 280.143 331.722 274.531 330.397 269.988C329.244 266.035 330.175 266.279 332.421 267.121C334.047 267.73 336.036 268.946 339.989 267.703C349.405 264.743 354.536 258.397 355.708 260.135C355.719 260.151 358.026 263.029 358.037 263.046C358.047 263.062 365.431 267.305 364.44 269.449L353.35 266.584Z" fill="white"/>
<path fill-rule="evenodd" clip-rule="evenodd" d="M423.709 272.46C410.501 272.666 399.38 264.402 398.869 254.001C398.359 243.6 408.653 235.001 421.861 234.796C435.07 234.59 446.191 242.854 446.701 253.255C447.212 263.656 436.918 272.255 423.709 272.46Z" fill="black"/>
<path fill-rule="evenodd" clip-rule="evenodd" d="M422.977 265.734C410.904 265.997 400.757 258.289 400.313 248.516C399.869 238.744 409.296 230.608 421.369 230.345C433.442 230.082 443.589 237.791 444.033 247.563C444.477 257.336 435.05 265.471 422.977 265.734Z" fill="#DEE3E9"/>
<path fill-rule="evenodd" clip-rule="evenodd" d="M327.943 233.641C307.34 214.831 302.564 197.747 295.255 183.785C274.834 144.769 299.166 171.507 274.628 123.921C261.161 97.8033 297.83 73.5271 336.23 78.248C349.272 79.8514 367.351 74.3774 381.263 81.768C408.312 96.1375 426.725 117.048 424.317 136.686C423.991 139.338 441.045 150.387 441.062 169.039C441.087 198.513 433.913 223.892 442.575 239.331C449.385 251.47 448.504 256.76 440.146 263.459C416.462 250.416 403.845 263.978 381.822 271.939C359.8 279.9 348.547 252.452 327.943 233.641Z" fill="black"/>
<path fill-rule="evenodd" clip-rule="evenodd" d="M321.359 90.7256C309.495 90.4373 270.522 105.382 287.864 133.207C305.207 161.032 288.038 145.805 306.245 180.583C312.761 193.029 315.082 190.828 336.926 215.723C358.77 240.618 353.15 266.435 379.829 260.764C391.218 258.343 403.876 253.115 416.031 251.879C428.187 250.643 439.306 256.657 440.718 254.572C445.535 247.464 427.437 229.717 429.588 221.231C434.419 202.167 433.851 181.711 433.84 169.222C433.825 152.596 418.621 142.747 418.911 140.383C420.551 127.008 408.896 112.149 392.548 100.168C387.183 96.2369 374.346 95.1534 363.662 92.2906C328.897 93.824 333.224 91.0138 321.359 90.7256Z" fill="#DEE3E9"/>
<path fill-rule="evenodd" clip-rule="evenodd" d="M402.69 183.442C401.877 183.459 400.775 174.898 399.369 176.304C397.041 178.632 394.547 178.325 392.966 178.632C392.11 178.798 391.765 184.703 390.879 184.928C382.589 187.03 375.441 191.713 373.153 201.156C371.576 207.662 367.589 234.195 364.419 236.557C371.425 236.227 374.08 238.27 395.294 227.534C406.371 221.928 396.673 220.097 398.787 215.891C403.32 206.871 408.569 198.183 411.138 195.085C412.144 193.872 420.478 222.661 420.674 211.54C420.869 200.42 419.364 183.081 402.69 183.442Z" fill="white"/>
<path fill-rule="evenodd" clip-rule="evenodd" d="M400.863 188.215C385.681 190.265 379.289 192.146 374.501 203.164C371.692 209.628 367.925 234.017 364.472 235.757C382.624 233.236 389.632 219.643 402.363 216.715C415.093 213.786 418.728 219.754 425.117 222.255C420.324 217.666 420.718 202.761 417.096 196.359C413.474 189.958 408.063 187.243 400.863 188.215Z" fill="black"/>
<path fill-rule="evenodd" clip-rule="evenodd" d="M348.382 212.249C341.839 210.895 343.116 217.043 349.108 226.382C351.595 230.259 352.22 234.56 352.797 237.43C358.531 222.625 365.419 204.116 366.325 200.408C361.166 208.027 354.925 213.603 348.382 212.249Z" fill="black"/>
<path fill-rule="evenodd" clip-rule="evenodd" d="M326.156 185.268C337.681 219.786 345.396 240.666 349.303 247.909C351.736 252.419 355.707 242.088 353.379 224.623C351.835 213.042 347.371 202.951 339.989 194.35L326.156 185.268Z" fill="black"/>
<path fill-rule="evenodd" clip-rule="evenodd" d="M292.148 151.056C282.926 141.802 281.564 130.346 283.671 125.731C287.468 133.803 288.582 136.385 295.393 142.192C302.203 148 306.629 148.668 313.405 151.085C308.723 153.101 294.072 152.986 292.148 151.056Z" fill="black"/>
<path fill-rule="evenodd" clip-rule="evenodd" d="M398.877 186.725C393.006 186.797 396.321 177.348 399.386 174.225C401.503 177.746 404.749 186.654 398.877 186.725Z" fill="black"/>
<path fill-rule="evenodd" clip-rule="evenodd" d="M367.896 197.039C370.813 181.57 373.305 176.471 377.62 179.121C373.125 184.362 371.441 192.358 367.896 197.039Z" fill="black"/>
<path fill-rule="evenodd" clip-rule="evenodd" d="M430.51 194.669C425.335 195.489 423.449 183.582 412.904 182.874C416.553 185.584 422.106 190.964 425.678 197.654C429.531 204.869 431.257 213.503 430.91 218.923C430.793 217.754 436.066 211.621 436.532 210.359C437.326 208.208 438.209 199.539 437.375 200.794C436.825 201.621 433.767 203.494 433.117 203.688C432.848 201.366 435.685 193.849 430.51 194.669Z" fill="black"/>
<path fill-rule="evenodd" clip-rule="evenodd" d="M395.357 172.051C392.318 164.99 383.093 174.559 381.304 179.213C386.852 179.956 398.396 179.112 395.357 172.051Z" fill="black"/>
<path fill-rule="evenodd" clip-rule="evenodd" d="M408.326 170.025C406.039 164.705 399.739 171.788 398.443 175.903C402.13 176.283 410.613 175.346 408.326 170.025Z" fill="black"/>
<path fill-rule="evenodd" clip-rule="evenodd" d="M403.471 150.817C395.172 144.775 404.676 147.259 410.642 141.749C399.931 142.824 395.964 142.24 391.924 140.682C387.884 139.123 379.121 130.054 376.323 125.425C378.396 135.762 382.335 139.71 390.673 147.763C397.711 154.56 405.151 155.321 409.438 159.59C417.126 171.356 408.842 174.122 403.722 175.427C411.544 174.385 415.525 171.503 416.542 169.704C417.31 168.344 419.346 165.333 416.252 161.167C413.385 157.306 405.482 152.282 403.471 150.817Z" fill="black"/>
<path fill-rule="evenodd" clip-rule="evenodd" d="M341.116 170.255C333.845 171.106 325.145 171.739 317.888 167.353C310.631 162.967 315.624 154.984 319.35 151.486C326.229 145.028 332.045 153.917 350.223 149.931C367.299 146.188 356.824 168.415 341.116 170.255Z" fill="white"/>
<path fill-rule="evenodd" clip-rule="evenodd" d="M342.9 95.9649C352.466 96.4771 368.388 102.226 379.188 104.721C414.051 112.775 388.711 95.6012 374.071 91.8357C362.644 88.8967 346.105 89.0552 332.565 90.7475C332.554 92.855 336.883 92.6287 342.9 95.9649Z" fill="white"/>
<path fill-rule="evenodd" clip-rule="evenodd" d="M342.791 97.0768C339.44 86.0413 305.444 87.2618 293.56 103.605C289.769 108.818 288.17 114.01 285.62 124.928C290.188 122.111 282.629 126.633 301.186 115.46C319.743 104.287 343.071 106.041 342.791 97.0768Z" fill="white"/>
<path fill-rule="evenodd" clip-rule="evenodd" d="M415.373 142.649C411.222 141.247 405.464 142.458 401.426 145.615C399.057 147.467 397.259 151.238 415.265 154.846C416.396 155.073 420.601 156.648 422.886 156.125C427.759 155.078 422.319 144.994 415.373 142.649Z" fill="white"/>
<path fill-rule="evenodd" clip-rule="evenodd" d="M385.962 151.245C385.279 152.942 384.473 154.678 389.268 156.613C394.063 158.548 395.814 158.764 399.7 156.789C400.783 155.807 399.198 152.97 394.923 150.806C386.396 146.492 377.242 126.166 374.918 126.819C372.639 127.461 371.699 136.5 383.232 146.66C383.423 146.829 386.644 149.548 385.962 151.245Z" fill="white"/>
<path fill-rule="evenodd" clip-rule="evenodd" d="M409.193 231.686C401.399 233.117 392.691 238.166 384.804 247.087C376.916 256.009 395.863 251.833 410.886 247.598C425.91 243.363 427.295 251.266 430.474 248.552C437.313 242.865 422.234 229.292 409.193 231.686Z" fill="white"/>
<path fill-rule="evenodd" clip-rule="evenodd" d="M409.868 226.306C413.084 226.682 419.817 229.531 426.543 236.656C420.988 231.965 404.575 230.864 394.712 238.013C398.205 230.445 404.486 225.677 409.868 226.306Z" fill="black"/>
<path fill-rule="evenodd" clip-rule="evenodd" d="M322.415 139.495C330.123 136.62 335.915 134.108 339.792 131.959C346.394 128.3 348.048 123.881 352.668 119.973C355.748 117.368 357.614 119.009 358.266 124.898C357.693 140.538 354.241 149.638 347.91 152.196C342.057 154.56 330.379 151.629 321.572 141.417C321.136 140.911 321.417 140.271 322.415 139.495Z" fill="white"/>
<path fill-rule="evenodd" clip-rule="evenodd" d="M346.615 147.751C337.175 151.565 326.74 148.07 322.456 139.948C328.366 139.764 334.724 138.45 341.027 135.904C347.921 133.119 353.838 129.226 358.397 124.782C361.352 133.747 356.261 143.854 346.615 147.751Z" fill="black"/>
<path fill-rule="evenodd" clip-rule="evenodd" d="M394.733 131.088C388.488 131.303 382.597 130.065 377.532 127.737C378.829 137.532 386.065 144.921 394.517 144.63C402.768 144.346 410.082 136.184 411.575 133.008C413.067 129.833 410.66 122.658 404.453 123.492C400.193 123.422 395.402 122.839 390.423 121.696C384.915 120.432 377.89 112.143 375.571 117.108C373.252 122.073 380.808 125.463 388.488 127.226C392.525 128.152 398.679 130.952 394.733 131.088Z" fill="white"/>
<path fill-rule="evenodd" clip-rule="evenodd" d="M395.961 140.955C402.322 140.733 410.301 132.521 408.812 128.044C407.735 124.807 398.531 125.733 395.419 125.842C388.004 126.101 381.011 124.853 374.974 122.465C378.556 135.156 385.551 141.319 395.961 140.955Z" fill="black"/>
<path fill-rule="evenodd" clip-rule="evenodd" d="M351.902 144.004C347.182 146.029 341.317 147.672 334.308 148.933C337.848 149.395 340.283 149.584 341.613 149.499C356.65 148.542 363.993 149.926 365.574 155.913C366.704 161.273 354.009 171.841 359.395 175.832C364.781 179.824 376.974 179.287 377.997 179.323C374.102 175.868 371.976 171.689 373.399 167.242C374.823 162.796 375.92 160.083 381.735 158.627C381.448 159.057 375.642 156.699 372.105 151.828C368.111 146.328 368.055 139.762 363.999 138.191C359.942 136.62 358.982 140.967 351.902 144.004Z" fill="black"/>
<path fill-rule="evenodd" clip-rule="evenodd" d="M375.453 169.503C376.215 160.804 382.824 159.446 384.77 157.674C379.267 159.318 374.264 160.234 371.8 164.509C369.185 169.045 368.465 175.905 378.172 178.507C377.164 176.666 374.997 174.723 375.453 169.503Z" fill="white"/>
<path fill-rule="evenodd" clip-rule="evenodd" d="M349.727 121.352C356.114 114.022 353.972 109.518 351.05 108.773C348.127 108.027 348.77 115.512 344.499 120.041C340.158 124.601 337.409 125.492 333.411 127.698C336.677 128.926 342.983 128.816 349.727 121.352Z" fill="black"/>
<path fill-rule="evenodd" clip-rule="evenodd" d="M384.955 119.779C376.622 116.027 373.172 107.608 376.042 106.376C378.913 105.143 382.127 113.011 387.92 115.26C393.722 117.465 396.509 116.81 401.198 116.832C398.593 119.88 393.329 123.333 384.955 119.779Z" fill="black"/>
<path fill-rule="evenodd" clip-rule="evenodd" d="M115.278 325.005C124.065 325.452 132.009 324.421 139.563 321.85C147.737 319.069 154.058 314.914 158.349 309.501C162.689 304.026 164.739 297.052 164.042 290.922C166.391 291.391 168.752 292.277 171.2 293.196C175.637 294.862 180.226 296.585 185.361 296.016C189.929 295.51 194.06 293.259 198.24 290.797C207.365 285.426 217.809 278.933 226.291 269.817C228.099 267.873 229.873 265.68 230.59 262.823C231.417 259.533 230.538 256.412 229.896 254.132C228.239 248.243 225.81 241.909 220.363 239.597C219.936 239.416 219.493 239.261 219.045 239.138C216.99 238.569 214.874 238.677 213.007 238.771C211.213 238.863 209.517 238.949 208.284 238.426C208.131 238.361 207.985 238.287 207.848 238.204C206.595 237.453 205.725 235.757 204.794 233.782L204.138 232.386C198.464 220.315 207.02 231.514 196.691 223.278C195.597 222.405 209.395 228.579 209.249 228.323C209.328 228.233 195.256 221.42 195.456 221.235C197.075 219.748 199.035 218.504 201.11 217.187C204.714 214.9 191.614 189.533 196.671 184.37C196.678 184.45 196.686 184.53 196.694 184.609C196.719 184.884 196.744 185.159 196.776 185.43C197.528 192.019 201.337 196.828 205.022 201.478C206.446 203.276 207.792 204.974 208.959 206.759C209.832 208.096 210.615 209.507 211.445 211.001C212.829 213.493 214.26 216.071 216.176 218.356C219.146 221.902 222.974 224.546 228.589 226.93C230.997 227.952 233.512 228.835 235.944 229.689C238.322 230.525 240.783 231.389 243.085 232.366C244.999 233.179 246.633 233.997 248.079 234.864C248.837 235.319 249.579 235.808 250.363 236.327C252.047 237.439 253.788 238.588 255.774 239.431L255.964 239.511C264.13 242.871 283.815 255.575 292.17 252.415C301.744 248.794 299.166 253.574 307.96 247.972C314.039 244.099 315.314 243.721 317.448 235.255C318.078 232.761 317.381 231.288 316.644 230.475C317.24 229.607 296.562 212.648 289.196 221.485L276.555 224.654C275.567 225.839 267.167 220.085 266.08 220.66C263.202 222.184 256.653 220.887 251.953 218.891C251.413 218.662 250.916 218.43 250.475 218.204C250.288 218.108 250.091 217.943 250.037 217.893C249.81 217.674 249.695 217.404 249.651 217.301C249.538 217.039 237.37 190.887 224.781 175.495C219.969 169.613 214.341 162.286 199.705 161.839C185.069 161.392 175.249 164.218 169.043 173.792C166.495 177.725 166.942 184.18 167.066 188.187C167.57 204.565 170.241 228.31 180.103 248.431C181.776 251.843 183.964 255.675 187.512 258.213C188.306 258.783 189.169 259.266 190.072 259.649C193.749 261.21 197.671 260.993 200.833 259.053C201.036 258.929 201.241 258.795 201.448 258.661C201.581 258.574 201.742 258.469 201.899 258.372C201.916 258.417 201.933 258.467 201.952 258.521C203.869 264.111 203.841 271.919 199.244 275.853C194.961 279.519 189.3 277.707 187.065 276.758C185.083 275.917 183.173 274.704 181.54 273.251C180.941 272.719 180.357 272.159 179.771 271.601C177.719 269.64 179.287 266.032 176.466 264.835L176.312 264.77C170.076 262.217 158.362 265.565 153.636 267.369C146.501 270.091 138.615 273.655 135.341 281.531C133.153 286.793 134.719 292.997 135.381 298.069C135.753 300.914 136.104 303.608 135.948 306.199C135.692 306.168 135.432 306.124 135.274 306.098C126.51 304.63 116.976 309.432 112.088 317.774C110.371 320.704 111.332 322.651 111.824 323.352C112.222 323.922 112.756 324.352 113.41 324.629C114.071 324.91 114.725 324.977 115.278 325.005Z" fill="black" stroke="black" stroke-width="3.19826"/>
<path fill-rule="evenodd" clip-rule="evenodd" d="M248.068 220.228C248.068 220.228 248.515 220.658 249.099 220.958C253.358 223.15 262.519 225.852 267.214 223.367C268.817 222.517 270.06 221.043 271.256 219.608C273.141 217.348 275.027 215.085 276.911 212.823C283.202 205.277 290.725 230.523 281.331 234.075C273.772 236.934 264.637 239.75 257.139 236.664C254.438 235.554 252.108 233.698 249.601 232.192C239.477 226.115 226.063 225.447 218.36 216.252C215.533 212.878 213.765 208.634 211.336 204.916C207.066 198.381 200.532 192.948 199.61 184.871C199.458 183.554 199.452 182.149 198.819 181.039C198.186 179.929 196.613 179.327 195.647 180.249C195.214 180.661 195.009 181.264 194.777 181.824C192.049 188.376 184.389 190.584 179.25 195.307C178.656 195.852 178.07 196.473 177.827 197.256C177.211 199.233 178.972 200.884 180.462 202.072C190.69 210.227 196.468 223.061 202.224 235.283C203.239 237.439 204.355 239.694 206.324 240.876C209.74 242.927 214.321 241.021 218.16 242.084C223.36 243.523 225.616 249.706 227.155 255.176C227.793 257.443 228.427 259.854 227.834 262.219C227.294 264.364 225.82 266.145 224.326 267.75C216.446 276.22 206.733 282.42 196.985 288.159C193.264 290.35 189.388 292.534 185.249 292.991C176.555 293.955 168.936 287.164 160.238 287.555C162.802 293.954 160.675 302.007 156.217 307.63C151.758 313.255 145.349 316.75 138.856 318.959C131.177 321.571 123.434 322.367 115.598 321.968C115.062 321.941 114.461 321.878 114.149 321.433C113.727 320.832 114.086 319.936 114.482 319.259C118.689 312.078 127.108 307.839 134.652 309.103C135.879 309.308 137.386 309.535 138.21 308.47C138.62 307.94 138.72 307.231 138.771 306.566C139.368 298.798 135.798 290.832 138.82 283.566C141.615 276.842 148.843 273.655 155.32 271.183C160.601 269.168 166.428 267.144 171.447 269.199C174.655 270.513 177.013 273.312 179.626 275.637C185.435 280.805 194.652 283.557 200.942 278.174C206.612 273.321 207.007 264.214 204.641 257.316C204.333 256.422 203.909 255.459 203.062 255.151C201.889 254.724 200.658 255.751 199.53 256.443C196.273 258.441 192.15 257.762 189.206 255.655C186.264 253.549 184.299 250.248 182.652 246.889C174.117 229.477 170.533 207.861 169.919 187.891C169.807 184.264 169.885 180.348 171.887 177.257C176.877 169.559 187.037 168.113 194.808 167.431C201.174 166.872 204.344 165.481 207.547 166.131C210.015 166.631 214.862 168.147 222.574 177.575C234.432 192.072 246.321 217.036 247.029 218.687C247.107 218.87 247.398 219.582 248.068 220.228Z" fill="black"/>
<path fill-rule="evenodd" clip-rule="evenodd" d="M223.086 182.426C217.144 175.45 215.416 172.81 213.708 171.162C209.191 166.803 191.252 166.828 189.111 167.861C187.254 168.758 187.067 169.899 188.43 171.318C188.872 171.779 189.491 173.971 190.288 177.895C196.728 184.553 201.665 188.388 205.101 189.4C213.496 191.872 224.625 184.231 223.086 182.426Z" fill="#DEE3E9"/>
<path fill-rule="evenodd" clip-rule="evenodd" d="M192.081 180.024C194.381 178.204 196.78 176.954 199.141 176.112C208.405 172.807 217.083 175.771 216.935 175.133C213.432 168.655 207.596 165.132 199.426 164.565C187.171 163.715 175.758 167.411 174.626 172.198C174.477 172.831 179.275 169.472 192.081 180.024Z" fill="white"/>
<path fill-rule="evenodd" clip-rule="evenodd" d="M314.278 235.661C314.884 235.692 304.805 229.053 298.706 227.532C295.908 226.834 292.989 226.859 290.192 227.436C285.961 228.311 281.659 229.044 277.641 231.035C273.7 232.988 272.916 237.369 276.193 239.875C278.588 241.706 281.694 242.295 284.326 243.71C285.441 243.932 286.555 244.155 287.669 244.378C303.571 246.728 305.406 245.821 310.699 245.033C313.081 244.679 314.882 242.921 315.158 242.63C315.526 242.241 316.129 241.989 316.093 241.402C316.051 240.712 315.353 240.748 314.877 240.744C311.973 240.715 302.833 240.587 303.047 239.868C301.016 239.54 291.631 238.403 289.575 238.217C288.836 238.023 302.11 237.361 302.954 237.563C304.262 237.622 309.617 236.968 312.455 236.387C314.119 236.046 313.787 235.635 314.278 235.661Z" fill="#DEE3E9"/>
<path fill-rule="evenodd" clip-rule="evenodd" d="M298.44 227.541C295.632 226.875 292.696 226.93 289.877 227.533C286.453 228.266 282.984 228.91 279.648 230.181C281.517 231.709 291.972 230.977 299.039 232.622C303.657 233.697 310.065 236.704 310.662 236.727C311.848 236.519 314.931 235.792 314.236 234.858C312.457 232.469 302.84 228.585 298.44 227.541Z" fill="white"/>
<path fill-rule="evenodd" clip-rule="evenodd" d="M279.043 236.029C282.282 237.732 285.208 239.734 289.067 240.839C290.838 241.345 292.839 241.44 294.869 241.212C297.336 240.934 299.815 240.711 302.329 240.117C301.367 239.151 294.135 239.125 289.673 237.868C286.757 237.046 283.013 235.027 282.613 234.988C279.605 235.235 280.348 235.38 280.089 235.216C279.422 234.793 278.659 234.932 277.882 235.386C278.377 235.48 278.654 235.825 279.043 236.029Z" fill="white"/>
<path fill-rule="evenodd" clip-rule="evenodd" d="M140.001 304.11C140.065 306.515 140.382 308.668 139.151 311.066C138.494 312.347 135.099 316.269 135.568 316.894C135.664 317.023 140.627 316.036 142.386 315.5C154.031 311.949 156.774 305.668 156.774 305.668C160.894 299.132 160.683 294.482 161.265 290.407C159.475 289.812 154.284 288.203 150.79 286.9C149.605 286.692 137.978 284.003 139.385 294.313C139.408 294.481 139.919 301.019 140.001 304.11ZM155.104 283.788C158.02 286.186 160.614 286.466 164.812 287.556C168.092 288.408 175.431 275.914 173.034 271.875C170.954 268.37 170.594 268.822 167.053 269.352C164.777 269.694 158.673 270.356 153.259 272.654C150.51 273.821 147.919 275.363 145.834 276.852C146.192 276.889 146.563 276.985 146.945 277.147C151.282 278.988 154.481 281.678 155.104 283.788Z" fill="#DEE3E9"/>
<path fill-rule="evenodd" clip-rule="evenodd" d="M149.487 282.458C149.705 282.517 156.971 285.168 157.19 285.168C161.265 285.168 165.974 269.762 163.011 270.031C161.061 270.209 151.522 271.749 146.27 274.518C141.018 277.286 140.819 279.635 138.767 283.274C141.202 282.332 143.462 281.995 145.37 281.974C147.06 281.955 148.473 282.184 149.487 282.458Z" fill="white"/>
<path fill-rule="evenodd" clip-rule="evenodd" d="M157.13 301.483C146.727 302.117 141.33 304.38 140.937 308.272C140.347 314.11 136.087 316.455 136.262 316.764C136.292 316.816 140.173 316.384 143.122 315.588C155.093 312.354 157.142 301.154 157.13 301.483Z" fill="white"/>
<path fill-rule="evenodd" clip-rule="evenodd" d="M191.262 192.972L182.466 184.383C179.051 180.921 175.846 178.651 172.851 177.572C171.568 182.618 171.748 202.135 174.582 218.137C176.602 229.544 181.123 239.998 182.198 238.361C183.894 235.777 184.42 220.766 192.802 205.645C193.418 204.533 192.905 200.309 191.262 192.972Z" fill="#DEE3E9"/>
<path fill-rule="evenodd" clip-rule="evenodd" d="M119.479 321.604C125.502 322.177 130.903 316.123 134.041 312.276C135.15 310.916 134.461 310.017 132.714 310.143C126.235 310.614 119.179 313.266 115.19 319.386C114.751 320.06 118.345 321.497 119.479 321.604Z" fill="#DEE3E9"/>
<path fill-rule="evenodd" clip-rule="evenodd" d="M206.084 259.572C206.085 259.578 206.086 259.583 206.088 259.589C206.088 259.593 206.089 259.597 206.089 259.601L206.084 259.572Z" fill="#D796A0"/>
<path fill-rule="evenodd" clip-rule="evenodd" d="M196.195 249.24C197.837 246.47 201.277 243.016 204.98 242.495C207.056 242.203 207.5 243.073 212.495 243.008C213.791 242.992 214.324 243.053 215.507 243.021C220.404 242.889 223.382 245.31 225.034 249.963C226.057 252.843 227.427 255.564 228.02 258.64C228.565 261.621 227.353 263.952 225.447 266.212C220.85 271.657 198.229 287.324 189.046 292.16C186.776 293.355 184.962 292.672 184.869 292.423C184.325 290.968 185.901 290.703 186.703 290.053C192.023 285.751 197.626 281.888 202.835 277.404C204.901 275.627 206.234 273.709 206.964 271.661C207.494 270.176 207.248 267.579 206.859 262.418C206.659 259.75 206.46 258.16 205.993 256.307C205.868 255.805 205.46 254.244 204.607 252.373C204.607 252.373 203.407 249.737 201.502 248.391C201.087 248.097 200.672 247.896 200.393 248.074C200.311 248.126 200.125 248.285 200.075 248.908C199.991 249.968 200.495 250.759 200.558 251.064C201.049 253.424 200.724 255.253 199.708 256.395C198.574 257.672 196.848 257.654 194.732 257.61C192.952 257.572 190.634 257.127 190.64 256.48C190.644 256.152 191.243 255.888 191.543 255.735C193.975 254.5 194.877 251.463 196.195 249.24Z" fill="#DEE3E9"/>
<path fill-rule="evenodd" clip-rule="evenodd" d="M203.119 246.983C207.081 246.647 210.059 259.89 210.259 262.559C210.532 266.173 223.523 268.49 225.447 266.212C227.353 263.952 228.565 261.621 228.02 258.64C227.427 255.564 226.057 252.843 225.034 249.963C223.382 245.31 220.404 242.889 215.507 243.021C214.324 243.053 213.791 242.992 212.495 243.008C207.5 243.073 207.056 242.203 204.98 242.495C204.961 242.498 204.942 242.5 204.922 242.503C203.341 244.077 202.756 244.262 201.825 246.433L203.119 246.983Z" fill="white"/>
<path fill-rule="evenodd" clip-rule="evenodd" d="M251.124 219.742C249.989 220.387 244.5 225.66 244.686 227.583C244.973 230.541 251.578 230.315 252.711 230.092C253.432 231.12 251.297 231.744 252.18 232.685C252.985 233.544 254.004 232.949 254.805 232.437C256.457 231.376 258.105 230.267 259.618 228.989C261.025 227.802 262.254 226.369 264.064 224.537C261.287 224.328 253.617 218.327 251.124 219.742Z" fill="#DEE3E9"/>
<path fill-rule="evenodd" clip-rule="evenodd" d="M251.727 219.548L251.594 219.716C250.624 220.935 249.922 222.098 249.991 222.806C250.277 225.764 256.882 225.539 258.016 225.316C258.736 226.343 256.601 226.968 257.485 227.909C258.289 228.768 259.309 228.173 260.109 227.66C261.005 227.085 261.899 226.496 262.772 225.874C263.172 225.453 263.599 225.008 264.064 224.537C261.483 224.343 254.676 219.146 251.727 219.548Z" fill="white"/>
<path fill-rule="evenodd" clip-rule="evenodd" d="M267.612 237.128C268.989 236.078 271.439 236.149 271.301 233.281C269.622 233.155 269.478 235.591 267.572 235.252C267.903 233.851 270.119 231.578 266.708 231.189C265.836 231.089 266.07 229.596 266.861 228.66C267.734 227.628 268.491 226.484 269.031 225.075C267.002 226.886 267.701 224.655 265.676 226.472C264.103 227.882 259.802 233.335 258.249 234.77C257.852 235.137 258.443 235.595 258.867 235.799C262.013 235.046 264.625 237.053 267.612 237.128Z" fill="#DEE3E9"/>
<path fill-rule="evenodd" clip-rule="evenodd" d="M187.762 352.555C201.547 354.01 213.875 346.695 215.299 336.218C216.722 325.74 206.701 316.066 192.916 314.611C179.132 313.156 166.803 320.47 165.379 330.948C163.956 341.426 173.977 351.1 187.762 352.555Z" fill="black"/>
<path fill-rule="evenodd" clip-rule="evenodd" d="M186.361 345.232C198.628 348.401 210.65 343.45 213.212 334.174C215.774 324.898 207.906 314.81 195.639 311.641C183.372 308.472 171.35 313.423 168.788 322.699C166.226 331.975 174.094 342.064 186.361 345.232Z" fill="#DEE3E9"/>
<path fill-rule="evenodd" clip-rule="evenodd" d="M286.43 317.186C309.697 299.371 321.042 286.714 329.965 272.761C346.585 246.768 352.837 228.005 348.721 216.472C347.955 201.26 341.745 189.423 330.092 180.96C322.785 175.654 309.395 169.444 289.923 162.331C271.897 156.752 257.809 156.119 247.66 160.431C218.062 173.007 198.635 190.873 199.351 211.656C199.448 214.464 180.604 224.476 178.875 244.005C176.144 274.865 181.317 302.096 170.844 317.472C165.661 325.081 163.913 330.127 165.355 334.762C166.204 337.49 166.987 336.426 169.997 339.308C195.956 327.814 211.264 356.355 242.185 350.952C273.107 345.549 263.163 335.002 286.43 317.186Z" fill="black"/>
<path fill-rule="evenodd" clip-rule="evenodd" d="M307.08 177.26C340.914 190.556 350.935 206.387 337.145 224.755C316.46 252.308 349.588 231.731 327.361 266.485C319.407 278.923 318.195 267.169 288.132 291.828C258.069 316.487 260.843 347.034 232.378 344.394C224.546 343.667 207.502 338.754 194.18 332.675C180.857 326.597 172.671 335.912 171.386 333.6C167.002 325.717 187.552 308.787 186.082 299.704C182.78 279.301 185.251 257.932 186.408 244.856C187.949 227.448 204.75 218.524 204.664 216.021C204.176 201.866 217.724 187.371 235.916 176.319C241.886 172.692 255.406 172.73 266.839 170.708C290.977 173.895 304.39 176.079 307.08 177.26Z" fill="#DEE3E9"/>
<path fill-rule="evenodd" clip-rule="evenodd" d="M231.243 321.15C221.721 320.205 210.558 314.22 209.267 312.61C221.21 311.657 248.836 293.604 256.597 292.434C236.701 302.787 240.764 322.094 231.243 321.15Z" fill="black"/>
<path fill-rule="evenodd" clip-rule="evenodd" d="M205.58 312.779C214.029 316.438 223.675 316.96 233.309 308.242C237.917 304.073 263.738 288.167 267.935 287.8C248.858 280.493 249.331 296.493 210.957 288.855C209.055 288.477 204.524 293.588 198.715 295.323C197.165 295.786 201.915 277.438 196.82 280.639C191.726 283.839 189.212 305.689 205.58 312.779Z" fill="white"/>
<path fill-rule="evenodd" clip-rule="evenodd" d="M199.232 284.101C206.024 287.559 227.841 287.896 237.824 288.316C243.68 288.562 263.453 287.25 267.299 288.345C252.969 280.609 254.879 287.245 223.57 273.854C221.604 273.013 219.421 272.862 214.773 273.339C214.145 273.404 213.239 270.966 210.704 270.21C204.462 268.348 196.946 270.325 192.955 269.117C190.439 268.356 193.686 272.268 194.877 274.189C197.058 277.702 199.844 281.203 199.174 282.182C197.375 284.815 193.769 281.32 199.232 284.101Z" fill="white"/>
<path fill-rule="evenodd" clip-rule="evenodd" d="M204.963 305.145C212.787 309.557 222.056 307.763 231.954 302.552C237.76 299.496 264.248 287.531 268.507 287.828C249.189 281.939 252.181 289.503 227.34 282.717C225.501 282.215 215.12 278.401 213.881 274.011C213.272 276.008 213.351 277.859 214.371 278.744C210.514 278.709 208.635 279.051 202.456 276.333C196.277 273.615 195.845 271.148 190.617 266.862C193.28 271.849 193.873 281.045 193.792 285.977C193.654 294.374 193.622 298.751 204.963 305.145Z" fill="black"/>
<path fill-rule="evenodd" clip-rule="evenodd" d="M269.2 285.46C267.496 280.606 263.011 280.276 259.552 280.157C262.691 282.933 263.733 283.787 264.405 287.184C265.076 290.581 263.737 292.222 262.483 294.988C266.24 293.423 270.904 290.314 269.2 285.46Z" fill="black"/>
<path fill-rule="evenodd" clip-rule="evenodd" d="M314.843 235.534C324.186 235.746 325.53 239.857 344.014 217.949C349.353 211.622 347.677 223.368 342.876 237.911C337.533 254.094 324.9 278.912 318.008 285.301C313.324 289.643 263.312 312.993 297.481 281.476C331.649 249.959 316.474 243.321 314.843 235.534Z" fill="black"/>
<path fill-rule="evenodd" clip-rule="evenodd" d="M220.509 262.609C215.766 259.501 213.783 268.878 214.731 273C218.197 271.246 225.251 265.716 220.509 262.609Z" fill="black"/>
<path fill-rule="evenodd" clip-rule="evenodd" d="M221.659 257.022C225.682 249.628 234.94 260.933 236.467 266.171C230.281 266.446 217.636 264.416 221.659 257.022Z" fill="black"/>
<path fill-rule="evenodd" clip-rule="evenodd" d="M208.231 254.02C211.112 248.658 217.048 256.647 218.024 261.074C214.134 261.136 205.349 259.382 208.231 254.02Z" fill="black"/>
<path fill-rule="evenodd" clip-rule="evenodd" d="M200.264 253.094C201.162 255.07 205.059 258.45 213.143 260.254C207.636 258.325 201.562 253.351 206.936 244.243C199.401 245.492 198.762 249.788 200.264 253.094Z" fill="black"/>
<path fill-rule="evenodd" clip-rule="evenodd" d="M205.861 253.348C205.741 253.325 205.621 253.292 205.501 253.25C203.802 252.66 202.838 250.463 203.348 248.343C203.845 246.276 205.561 245.046 207.221 245.535C206.753 246.398 206.366 247.403 206.099 248.512C205.688 250.22 205.628 251.904 205.861 253.348Z" fill="white"/>
<path fill-rule="evenodd" clip-rule="evenodd" d="M274.299 235.236C281.901 236.348 290.892 238.07 297.056 244.496C303.22 250.921 295.988 257.67 291.26 260.208C282.53 264.896 279.051 254.29 259.541 253.397C241.213 252.558 257.875 232.836 274.299 235.236Z" fill="white"/>
<path fill-rule="evenodd" clip-rule="evenodd" d="M293.278 172.867C298.39 163.747 246.253 162.818 229.238 173.383C219.069 179.697 212.559 188.994 219.119 192.195C225.414 195.267 264.483 169.857 268.678 174.111C268.758 174.192 268.343 174.963 267.434 176.425C267.147 176.887 266.605 177.734 265.809 178.967C262.244 184.568 260.885 189.779 261.733 194.6C263.729 193.021 282.976 177.795 293.278 172.867Z" fill="black"/>
<path fill-rule="evenodd" clip-rule="evenodd" d="M261.877 188.361C261.03 183.54 256.313 181.127 252.276 181.925C247.608 182.849 242.774 184.07 237.88 185.686C208.42 195.419 230.805 176.299 243.191 171.811C252.858 168.309 266.683 167.848 277.942 169.102C277.872 171.303 266.411 178.861 261.877 188.361Z" fill="white"/>
<path fill-rule="evenodd" clip-rule="evenodd" d="M334.149 193.598C340.165 186.196 298.732 165.068 278.594 177.486C269.913 182.839 247.515 204.503 273.638 192.804C299.761 181.105 330.592 202.684 334.149 193.598Z" fill="white"/>
<path fill-rule="evenodd" clip-rule="evenodd" d="M204.578 224.921C209.047 223.833 214.956 225.627 218.889 229.301C221.195 231.457 222.729 235.57 203.572 237.704C202.369 237.838 197.828 239.103 195.487 238.347C190.488 236.805 197.101 226.743 204.578 224.921Z" fill="white"/>
<path fill-rule="evenodd" clip-rule="evenodd" d="M232.556 238.664C233.369 240.516 235.199 243.834 231.706 244.998C228.213 246.163 223.162 246.275 218.316 243.834C213.471 241.393 215.807 239.259 221.264 237.373C225.337 235.965 232.334 229.483 242.256 217.927C247.003 209.632 250.072 204.739 251.465 203.25C254.1 200.433 250.978 224.436 236.133 234.082C235.887 234.242 231.744 236.811 232.556 238.664Z" fill="white"/>
<path fill-rule="evenodd" clip-rule="evenodd" d="M196.861 315.852C203.834 317.77 211.309 323.196 217.682 332.247C224.055 341.298 207.168 335.97 193.862 330.868C180.556 325.765 178.571 333.184 175.921 330.374C170.208 324.475 185.193 312.642 196.861 315.852Z" fill="white"/>
<path fill-rule="evenodd" clip-rule="evenodd" d="M267.955 328.478C270.826 326.507 272.161 322.317 272.215 318.417C272.246 316.129 271.345 310.372 272.2 309.07C269.174 312.83 267.307 318.159 262.549 321.535C257.672 324.995 249.91 326.46 247.353 326.887C252.411 330.357 263.152 331.775 267.955 328.478Z" fill="black"/>
<path fill-rule="evenodd" clip-rule="evenodd" d="M185.171 292.019C185.216 290.015 175.498 311.73 174.832 314.475C174.442 316.085 175.248 321.168 174.378 322.066C180.56 312.191 188.535 309.922 192.583 309.436C189.22 306.885 185.019 298.866 185.171 292.019Z" fill="black"/>
<path fill-rule="evenodd" clip-rule="evenodd" d="M282.755 211.879C293.337 213.744 300.419 224.065 298.937 235.183C293.663 231.672 287.282 229.07 280.208 227.822C272.917 226.537 265.826 226.856 259.528 228.475C261.846 217.391 272.099 210 282.755 211.879Z" fill="white"/>
<path fill-rule="evenodd" clip-rule="evenodd" d="M280.353 224.78C290.917 226.643 299.052 231.503 299.599 236.03C294.018 234.09 287.549 232.407 280.579 231.178C272.474 229.749 264.793 229.129 258.22 229.235C259.788 224.84 269.394 222.848 280.353 224.78Z" fill="white"/>
<path fill-rule="evenodd" clip-rule="evenodd" d="M221.538 216.402C229.136 217.201 235.046 221.01 235.304 225.107C231.284 223.794 226.598 222.794 221.554 222.264C215.973 221.677 210.701 221.744 206.19 222.344C207.048 218.224 213.755 215.584 221.538 216.402Z" fill="white"/>
<path fill-rule="evenodd" clip-rule="evenodd" d="M230.499 202.919C238.452 204.902 243.276 213.613 242.136 223.126C238.162 220 233.329 217.583 227.893 216.227C221.874 214.727 215.898 214.722 210.496 215.955C213.792 206.631 222.354 200.888 230.499 202.919Z" fill="white"/>
<path fill-rule="evenodd" clip-rule="evenodd" d="M231.488 207.091C237.665 208.632 243.791 218.218 241.418 222.228C239.703 225.127 230.889 222.314 227.868 221.56C220.668 219.764 213.572 219.509 207.179 220.555C213.277 209.057 221.381 204.569 231.488 207.091Z" fill="black"/>
<path fill-rule="evenodd" clip-rule="evenodd" d="M281.639 216.118C292.158 217.973 299.614 226.227 299.058 234.995C293.664 232.059 287.258 229.8 280.236 228.562C272.556 227.208 265.151 227.253 258.663 228.451C260.865 219.698 270.892 214.223 281.639 216.118Z" fill="black"/>
<path fill-rule="evenodd" clip-rule="evenodd" d="M209.608 224.412C220.707 226.516 224.909 226.267 229.276 225.003C233.643 223.74 237.927 222.984 241.277 218.391C242.716 222.323 239.39 224.862 229.933 232.533C220.477 240.203 211.207 238.951 206.851 245.935C206.821 245.136 207.043 240.131 216.273 234.562C225.504 228.993 215.339 230.726 209.608 224.412Z" fill="black"/>
<path fill-rule="evenodd" clip-rule="evenodd" d="M270.814 232.137C279.213 235.208 285.194 237.464 288.756 238.905C269.031 234.938 257.921 236.422 255.426 243.359C254.311 247.032 256.759 250.393 262.771 253.442C269.87 260.885 268.595 264.217 258.944 263.438C244.468 262.271 241.363 266.793 240.29 266.737C244.68 263.476 245.594 258.517 244.514 253.731C243.434 248.944 241.145 247.053 235.199 244.998C235.46 245.474 244.828 243.262 248.973 238.485C253.654 233.09 260.52 222.864 261.19 223.277C261.759 223.627 258.216 227.531 270.814 232.137Z" fill="black"/>
<path fill-rule="evenodd" clip-rule="evenodd" d="M243.932 257.806C243.932 249.073 237.466 247.144 235.682 245.21C241.021 247.327 245.925 248.675 248.007 253.149C250.216 257.895 250.335 264.792 240.439 266.538C241.603 264.792 243.932 263.045 243.932 257.806Z" fill="white"/>
<path fill-rule="evenodd" clip-rule="evenodd" d="M287.844 204.301C278.023 203.459 274.183 207.48 271.462 210.648C278.65 209.11 280.917 208.565 287.412 209.641C293.908 210.717 295.838 212.789 299.82 215.345C299.779 211.055 297.665 205.144 287.844 204.301Z" fill="black"/>
<path fill-rule="evenodd" clip-rule="evenodd" d="M239.67 196.658C232.494 193.114 227.849 195.635 224.423 197.707C230.586 198.366 232.555 198.52 237.081 201.329C241.608 204.138 242.212 206.547 244.185 209.972C245.968 206.108 246.845 200.201 239.67 196.658Z" fill="black"/>
<path fill-rule="evenodd" clip-rule="evenodd" d="M312.538 272.196C306.804 278.193 296.479 286.85 287 291.445C294.657 281.227 294.026 278.962 305.804 267.693C317.583 256.425 310.258 245.829 317.46 242.92C323.022 254.354 322.131 262.162 312.538 272.196Z" fill="white"/>
</g>
<defs>
<clipPath id="clip0">
<rect width="606" height="400" fill="white"/>
</clipPath>
</defs>
</svg>
