<svg width="606" height="400" viewBox="0 0 606 400" fill="none" xmlns="http://www.w3.org/2000/svg">
<g clip-path="url(#clip0)">
<path fill-rule="evenodd" clip-rule="evenodd" d="M268.171 205.931H261.947V199.707H268.171V193.467H261.947V187.227H268.171V181.003H274.411V174.763H268.171V180.988H261.947V174.763H268.171V168.52H261.931V174.76H255.707V180.984H249.467V174.76H243.228V180.984H237.003V174.76H243.228V168.52H236.987V174.76H230.764V168.52H224.521V174.76H230.76V180.984H224.521V187.224H230.76V193.464H224.521V199.704H230.76V205.928V205.943H236.984V212.167H243.224V205.943H249.464V212.167H255.704V205.943H261.928V212.167H268.168V205.943H274.408V199.704H268.168V205.931H268.171ZM230.76 205.946V212.171H224.521V205.931H230.76V205.946ZM249.464 174.76V168.52H255.704V174.76H249.464ZM268.171 187.224V193.464H274.411V187.224H268.171ZM236.984 181H230.76V187.224H236.984V181ZM237.001 212.171V218.411H243.225V212.171H249.465V218.411H255.705V212.171H261.945V218.411H268.169V212.171H274.409V218.411H268.169V224.65H261.929V218.411H255.705V224.65H249.465V218.411H243.225V224.65H236.985V218.411H230.761V224.65H224.521V218.411H230.761V212.171H237.001ZM261.928 199.707V193.467H255.704V199.707H261.928ZM249.464 199.707V205.931H255.704V199.707H249.464ZM243.224 199.707H249.464V193.467H243.224V199.707ZM243.224 199.707H237V205.931H243.224V199.707ZM243.224 187.224H237V193.464H243.224V187.224ZM249.464 187.224V181H243.224V187.224H249.464ZM255.707 187.224H249.468V193.464H255.707V187.224ZM255.707 187.224H261.931V181H255.707V187.224ZM236.984 193.464V199.704H230.76V193.464H236.984ZM280.651 174.76H274.411V168.52H280.651V174.76ZM274.411 187.224H280.651V180.984H274.411V187.224ZM280.651 199.707H274.411V193.467H280.651V199.707ZM274.411 212.171H280.651V205.931H274.411V212.171ZM274.411 224.65H280.651V218.411H274.411V224.65Z" fill="#DEE3E9"/>
<path fill-rule="evenodd" clip-rule="evenodd" d="M548.822 205.931H542.597V199.707H548.822V193.467H542.597V187.227H548.822V181.003H555.061V174.763H548.822V180.988H542.597V174.763H548.822V168.52H542.582V174.76H536.358V180.984H530.118V174.76H523.878V180.984H517.654V174.76H523.878V168.52H517.638V174.76H511.414V168.52H505.171V174.76H511.411V180.984H505.171V187.224H511.411V193.464H505.171V199.704H511.411V205.928V205.943H517.635V212.167H523.875V205.943H530.114V212.167H536.355V205.943H542.579V212.167H548.819V205.943H555.058V199.704H548.819V205.931H548.822ZM511.411 205.946V212.171H505.171V205.931H511.411V205.946ZM530.114 174.76V168.52H536.354V174.76H530.114ZM548.822 187.224V193.464H555.061V187.224H548.822ZM517.635 181H511.411V187.224H517.635V181ZM517.65 212.171V218.411H523.875V212.171H530.114V218.411H536.355V212.171H542.594V218.411H548.819V212.171H555.058V218.411H548.819V224.65H542.579V218.411H536.355V224.65H530.114V218.411H523.875V224.65H517.635V218.411H511.411V224.65H505.171V218.411H511.411V212.171H517.65ZM542.579 199.707V193.467H536.354V199.707H542.579ZM530.114 199.707V205.931H536.354V199.707H530.114ZM523.875 199.707H530.114V193.467H523.875V199.707ZM523.875 199.707H517.65V205.931H523.875V199.707ZM523.875 187.224H517.65V193.464H523.875V187.224ZM530.114 187.224V181H523.875V187.224H530.114ZM536.358 187.224H530.118V193.464H536.358V187.224ZM536.358 187.224H542.582V181H536.358V187.224ZM517.635 193.464V199.704H511.411V193.464H517.635ZM561.301 174.76H555.061V168.52H561.301V174.76ZM555.061 187.224H561.301V180.984H555.061V187.224ZM561.301 199.707H555.061V193.467H561.301V199.707ZM555.061 212.171H561.301V205.931H555.061V212.171ZM555.061 224.65H561.301V218.411H555.061V224.65Z" fill="#DEE3E9"/>
<path fill-rule="evenodd" clip-rule="evenodd" d="M492.651 375.411H486.426V369.186H492.651V362.947H486.426V356.707H492.651V350.483H498.89V344.243H492.651V350.467H486.426V344.243H492.651V338H486.411V344.24H480.187V350.464H473.947V344.24H467.707V350.464H461.483V344.24H467.707V338H461.467V344.24H455.243V338H449V344.24H455.24V350.464H449V356.704H455.24V362.944H449V369.183H455.24V375.408V375.423H461.464V381.647H467.704V375.423H473.943V381.647H480.184V375.423H486.408V381.647H492.648V375.423H498.887V369.183H492.648V375.411H492.651ZM455.24 375.426V381.651H449V375.411H455.24V375.426ZM473.943 344.24V338H480.184V344.24H473.943ZM492.651 356.704V362.944H498.89V356.704H492.651ZM461.464 350.479H455.24V356.704H461.464V350.479ZM461.48 381.651V387.89H467.704V381.651H473.944V387.89H480.184V381.651H486.423V387.89H492.648V381.651H498.887V387.89H492.648V394.13H486.408V387.89H480.184V394.13H473.944V387.89H467.704V394.13H461.464V387.89H455.24V394.13H449V387.89H455.24V381.651H461.48ZM486.408 369.186V362.947H480.184V369.186H486.408ZM473.943 369.186V375.411H480.184V369.186H473.943ZM467.704 369.186H473.943V362.947H467.704V369.186ZM467.704 369.186H461.479V375.411H467.704V369.186ZM467.704 356.704H461.479V362.944H467.704V356.704ZM473.943 356.704V350.479H467.704V356.704H473.943ZM480.187 356.704H473.947V362.944H480.187V356.704ZM480.187 356.704H486.411V350.479H480.187V356.704ZM461.464 362.944V369.183H455.24V362.944H461.464ZM505.13 344.24H498.89V338H505.13V344.24ZM498.89 356.704H505.13V350.464H498.89V356.704ZM505.13 369.186H498.89V362.947H505.13V369.186ZM498.89 381.651H505.13V375.411H498.89V381.651ZM498.89 394.13H505.13V387.89H498.89V394.13Z" fill="#DEE3E9"/>
<path fill-rule="evenodd" clip-rule="evenodd" d="M211.651 37.4106H205.426V31.1864H211.651V24.9467H205.426V18.7071H211.651V12.4829H217.89V6.24319H211.651V12.4674H205.426V6.24319H211.651V2.67029e-05H205.411V6.2397H199.187V12.4639H192.947V6.2397H186.707V12.4639H180.483V6.2397H186.707V2.67029e-05H180.467V6.2397H174.243V2.67029e-05H168V6.2397H174.24V12.4639H168V18.7041H174.24V24.9437H168V31.1834H174.24V37.4076V37.4231H180.464V43.6473H186.704V37.4231H192.943V43.6473H199.184V37.4231H205.408V43.6473H211.648V37.4231H217.887V31.1834H211.648V37.4106H211.651ZM174.24 37.4261V43.6508H168V37.4106H174.24V37.4261ZM192.943 6.23969V1.52588e-05H199.184V6.23969H192.943ZM211.651 18.7041V24.9437H217.89V18.7041H211.651ZM180.464 12.4794H174.24V18.7041H180.464V12.4794ZM180.48 43.6508V49.8904H186.704V43.6508H192.943V49.8904H199.184V43.6508H205.423V49.8904H211.648V43.6508H217.887V49.8904H211.648V56.1301H205.408V49.8904H199.184V56.1301H192.943V49.8904H186.704V56.1301H180.464V49.8904H174.24V56.1301H168V49.8904H174.24V43.6508H180.48ZM205.408 31.1864V24.9467H199.184V31.1864H205.408ZM192.943 31.1864V37.4106H199.184V31.1864H192.943ZM186.704 31.1864H192.943V24.9467H186.704V31.1864ZM186.704 31.1864H180.479V37.4106H186.704V31.1864ZM186.704 18.7041H180.479V24.9437H186.704V18.7041ZM192.943 18.7041V12.4794H186.704V18.7041H192.943ZM199.187 18.7041H192.947V24.9437H199.187V18.7041ZM199.187 18.7041H205.411V12.4794H199.187V18.7041ZM180.464 24.9437V31.1834H174.24V24.9437H180.464ZM224.13 6.23969H217.89V1.52588e-05H224.13V6.23969ZM217.89 18.7041H224.13V12.4639H217.89V18.7041ZM224.13 31.1864H217.89V24.9467H224.13V31.1864ZM217.89 43.6508H224.13V37.4106H217.89V43.6508ZM217.89 56.1301H224.13V49.8905H217.89V56.1301Z" fill="#DEE3E9"/>
<path fill-rule="evenodd" clip-rule="evenodd" d="M330.541 224.65H336.781V280.78H330.541V224.65ZM324.308 224.65H318.071V280.78H324.308V224.65ZM311.835 224.65H305.598V280.78H311.835V224.65ZM293.124 224.65H299.361V280.78H293.124V224.65ZM286.887 224.65H280.651V280.78H286.887V224.65Z" fill="#DEE3E9"/>
<path fill-rule="evenodd" clip-rule="evenodd" d="M337.342 106.151V112.39H281.212V106.151H337.342ZM337.342 99.9169V93.6802H281.212V99.9169H337.342ZM337.342 87.4435V81.2069H281.212V87.4435H337.342ZM337.342 68.7335V74.9702H281.212V68.7335H337.342ZM337.342 62.4968V56.2601H281.212V62.4968H337.342Z" fill="#DEE3E9"/>
<path fill-rule="evenodd" clip-rule="evenodd" d="M280.651 287.02V280.78H224.521V287.02H280.651ZM280.651 305.733V311.973H224.521V305.733H280.651ZM280.651 324.446V318.207H224.521V324.446H280.651ZM280.651 336.911V330.671H224.521V336.911H280.651ZM280.651 293.26V299.5H224.521V293.26H280.651Z" fill="#DEE3E9"/>
<path fill-rule="evenodd" clip-rule="evenodd" d="M505.13 119.237L505.13 113C474.131 113 449 138.131 449 169.13L455.237 169.13C455.237 141.573 477.573 119.237 505.13 119.237ZM505.13 131.71L505.13 125.473C481.019 125.473 461.473 145.019 461.473 169.13L467.71 169.13C467.71 148.465 484.465 131.71 505.13 131.71ZM505.13 137.946L505.13 144.183C491.354 144.183 480.183 155.353 480.183 169.13L473.947 169.13C473.947 151.907 487.907 137.946 505.13 137.946ZM505.13 156.657L505.13 150.42C494.796 150.42 486.42 158.796 486.42 169.13L492.657 169.13C492.657 162.242 498.242 156.657 505.13 156.657ZM505.13 169.13L505.13 162.893C501.684 162.893 498.893 165.684 498.893 169.13L505.13 169.13Z" fill="white"/>
<path fill-rule="evenodd" clip-rule="evenodd" d="M174.627 112.39H168.39C168.39 143.389 193.521 168.52 224.52 168.52V162.283C196.964 162.283 174.627 139.947 174.627 112.39ZM187.101 112.39H180.864C180.864 136.501 200.41 156.047 224.521 156.047V149.81C203.855 149.81 187.101 133.055 187.101 112.39ZM193.338 112.39H199.574C199.574 126.167 210.744 137.337 224.521 137.337V143.573C207.298 143.573 193.338 129.613 193.338 112.39ZM212.047 112.39L205.811 112.39C205.811 122.724 214.187 131.1 224.521 131.1V124.863C217.632 124.863 212.047 119.278 212.047 112.39ZM224.521 112.39H218.284C218.284 115.836 221.075 118.627 224.521 118.627V112.39Z" fill="white"/>
<path fill-rule="evenodd" clip-rule="evenodd" d="M6.23673 169H0C0 199.999 25.1307 225.13 56.1301 225.13V218.893C28.5734 218.893 6.23673 196.556 6.23673 169ZM18.7104 169H12.4737C12.4737 193.111 32.0194 212.657 56.1303 212.657L56.1303 206.42C35.4651 206.42 18.7104 189.665 18.7104 169ZM24.9472 169H31.1839C31.1839 182.777 42.3535 193.946 56.1304 193.946V200.183C38.9078 200.183 24.9472 186.222 24.9472 169ZM43.6569 169H37.4207C37.4207 179.334 45.7963 187.71 56.1304 187.71L56.1304 181.473C49.242 181.473 43.6569 175.888 43.6569 169ZM56.1305 169H49.8938C49.8938 172.445 52.6848 175.236 56.1305 175.236V169Z" fill="white"/>
<path d="M449.602 0.130127V56.2602H393.472C393.472 25.2608 418.603 0.130127 449.602 0.130127Z" fill="#DEE3E9"/>
<path fill-rule="evenodd" clip-rule="evenodd" d="M112.13 118.63L112.13 112.39L56 112.39L56 118.63L112.13 118.63ZM112.13 137.343L112.13 143.583L56 143.583L56 137.343L112.13 137.343ZM112.13 156.057L112.13 149.817L56 149.817L56 156.057L112.13 156.057ZM112.13 168.52L112.13 162.281L56 162.281L56 168.52L112.13 168.52ZM112.13 124.87L112.13 131.11L56 131.11L56 124.87L112.13 124.87Z" fill="#DEE3E9"/>
<path fill-rule="evenodd" clip-rule="evenodd" d="M554.89 338.13L561.13 338.13L561.13 282L554.89 282L554.89 338.13ZM536.177 338.13L529.937 338.13L529.937 282L536.177 282L536.177 338.13ZM517.464 338.13L523.704 338.13L523.704 282L517.464 282L517.464 338.13ZM505 338.13L511.24 338.13L511.24 282L505 282L505 338.13ZM548.651 338.13L542.411 338.13L542.411 282L548.651 282L548.651 338.13Z" fill="#DEE3E9"/>
<path d="M385.278 207.868C383.438 206.175 381.746 204.336 380.201 202.423C378.214 199.554 376.449 196.39 374.462 193.52C367.325 182.925 358.717 173.361 348.858 165.267C345.767 162.839 342.53 160.558 339.219 158.425C343.634 156.144 343.928 152.759 340.176 149.89C338.998 149.154 337.748 148.492 336.497 147.977C336.938 147.683 337.38 147.388 337.821 147.094C339.587 146.358 340.911 144.813 341.279 142.974C341.721 141.134 341.132 139.148 339.881 137.75C339.44 137.088 339.881 136.867 340.102 136.426C344.149 131.643 348.784 127.302 353.714 123.476C358.128 119.65 364.014 117.884 369.753 118.694C373.064 119.135 376.375 118.841 379.465 117.737C384.983 116.339 388.515 111.042 387.779 105.45C387.485 101.477 386.528 97.6511 384.836 94.0459C382.776 89.0427 378.141 85.4375 372.77 84.7017C369.385 84.2603 365.854 84.481 362.543 85.4375C356.877 86.909 350.844 85.6582 346.209 82.053C341.279 78.4478 337.159 73.9597 333.995 68.8094C330.684 63.659 326.123 59.4652 320.752 56.5958C313.836 52.6227 305.227 53.5792 299.341 58.9502C293.896 64.3212 288.82 69.9866 284.037 75.8726C280.506 80.3608 275.135 83.0095 269.469 83.2302C266.453 83.3038 263.436 82.4945 260.934 80.8022C257.256 78.3742 252.547 78.1535 248.647 80.2136C245.778 81.6115 243.056 83.3038 240.554 85.2903C235.845 88.822 232.313 93.6044 230.327 99.1226C228.929 102.507 230.474 106.407 233.932 107.805C239.671 110.748 245.778 112.881 251.738 115.456C256.446 117.369 261.008 119.503 265.643 121.71C271.824 124.58 274.252 131.055 278.887 135.469C275.502 135.984 272.927 138.706 272.559 142.017C272.044 145.843 274.84 147.094 277.636 148.86C275.503 149.964 273.369 150.92 272.559 153.201C272.118 155.408 272.633 157.763 274.031 159.528C267.115 163.354 260.493 167.769 254.313 172.772C241.216 183.367 229.591 195.507 219.585 208.971C210.903 220.449 204.06 233.178 199.204 246.716C193.465 261.725 191.037 277.765 192.215 293.731C192.877 303.59 196.261 313.081 202.074 321.174C205.973 325.957 210.903 329.856 216.495 332.505C218.04 333.241 219.585 333.83 221.204 334.418C251.37 349.428 286.097 352.886 318.692 344.13C348.343 350.826 379.392 344.645 404.26 327.281C405.29 326.546 406.173 325.663 406.835 324.633C407.718 323.823 408.454 323.014 409.263 322.057L410.514 320.733C410.588 320.512 410.735 320.365 410.882 320.144C416.032 313.302 419.49 305.429 421.109 297.042C422.801 286.594 422.066 275.925 419.049 265.772C412.648 244.141 401.023 224.202 385.278 207.868Z" fill="black"/>
<path d="M200.456 282.695C200.529 265.625 205.9 248.997 215.76 235.091C223.559 223.54 232.976 213.092 243.645 204.116C243.645 204.116 243.645 203.895 244.086 203.453C241.511 203.748 239.01 204.483 236.655 205.587C234.227 206.691 231.799 208.015 229.592 209.487C231.431 206.396 233.491 203.38 235.772 200.584C241.143 193.668 258.801 171.742 268.513 170.418C271.236 170.05 255.932 193.521 261.744 195.875C265.791 197.494 287.643 170.933 288.968 170.418C292.058 169.461 298.238 178.217 297.87 180.718C297.355 183.956 297.134 187.267 297.208 190.578C297.208 194.477 301.365 195.715 302.321 192.772C303.425 190.196 304.095 187.783 305.566 185.355C307.626 181.234 311.453 176.93 314.837 173.766C316.897 171.338 320.679 171.521 323.769 172.11C326.344 172.699 328.699 174.023 330.611 175.936C336.277 181.748 340.838 188.517 344.149 195.949C344.517 196.831 344.306 196.745 344.969 197.407C345.116 196.451 345.116 195.656 344.969 194.626C344.454 189.917 344.37 185.28 345.768 180.718C346.504 177.849 348.858 178.217 350.992 180.277C353.788 182.779 356.363 185.501 358.717 188.444C359.232 189.327 360.042 189.989 360.925 190.504V191.019C360.851 190.872 360.778 190.725 360.704 190.578C360.704 189.915 360.483 189.327 360.115 188.738C357.835 184.103 354.965 179.688 351.728 175.715C351.801 175.274 350.992 175.053 351.654 174.391C358.57 181.013 364.751 188.297 370.195 196.096C371.667 198.009 373.065 199.995 374.242 202.129L373.874 202.423C370.637 200.878 367.62 198.892 364.898 196.611L363.573 195.728L363.279 195.507C363.058 195.507 363.279 195.875 363.279 196.096C364.898 198.597 366.958 200.805 369.312 202.644C377.994 210.369 385.646 219.125 392.047 228.763C401.318 242.301 408.381 257.237 412.943 273.056C415.444 281.297 415.739 290.126 413.679 298.513C411.692 306.533 406.615 313.376 399.552 317.643C399.478 317.054 352.316 327.649 352.758 327.355C356.216 323.823 332.157 314.038 282.199 316.319C269.396 316.907 294.412 325.81 293.235 331.622C292.352 336.184 266.895 337.141 260.935 336.699C256.594 336.331 197.881 334.124 200.456 282.695ZM279.476 308.667C285.804 308.667 261.597 280.708 259.096 253.558C256.594 226.409 267.998 204.336 261.671 204.336C255.343 204.336 245.484 221.332 249.752 253.558C254.019 285.711 273.149 308.667 279.476 308.667Z" fill="#FEFEFE"/>
<path d="M291.175 100.668C295.663 108.908 297.502 118.4 296.251 127.67C296.251 127.891 296.251 128.112 296.251 128.406C295.81 129.509 295.663 130.834 294.412 131.275C293.161 131.717 292.058 130.687 291.175 129.804C288.967 127.302 287.128 124.433 285.656 121.416C281.168 113.249 276.754 105.082 272.634 96.6947C272.486 96.4004 272.413 96.0325 272.339 95.6646C273.296 95.6646 274.252 96.6211 275.282 95.6646L271.53 93.2366C271.015 92.0594 271.088 90.6614 271.751 89.5578C272.339 88.3806 273.443 87.5713 274.694 87.277C279.035 85.9526 282.861 83.3039 285.583 79.6251C288.011 76.9763 290.218 74.1805 292.573 71.4582C293.308 70.6488 297.208 66.0871 297.796 65.7192C301.107 62.9234 305.081 61.084 309.348 60.3482C314.351 59.6124 319.428 61.7461 322.297 65.94C323.401 67.1908 325.387 70.9431 326.344 75.4312C327.3 79.7722 327.227 84.7754 327.006 86.4676C326.859 89.3371 323.474 107.437 322.297 111.042C320.531 117.369 318.324 123.55 315.749 129.583C314.94 131.79 313.762 133.85 312.291 135.616C310.378 137.75 308.686 137.603 307.214 135.175C305.522 132.158 304.345 128.847 303.683 125.389C301.622 116.56 298.164 108.099 293.456 100.3C291.322 97.0625 288.82 94.1931 286.024 91.6179C285.804 91.6179 285.509 90.8822 284.994 91.1765C287.864 95.2967 289.924 98.3869 291.175 100.668ZM352.684 89.8521C354.376 90.5879 355.112 92.4273 354.45 94.1195C354.082 95.3703 353.493 96.5475 352.684 97.6511C351.948 98.6076 351.213 99.6377 350.403 100.668C350.845 101.109 351.065 100.668 351.433 100.668C355.333 98.3869 358.864 95.591 362.617 93.0159C363.132 92.5008 363.794 92.2065 364.53 92.2065C369.018 91.9858 373.065 94.8553 374.242 99.1962C374.315 99.417 374.536 99.5641 374.757 99.6377C375.787 100.079 376.008 101.036 376.375 101.845C377.847 104.494 376.891 107.805 374.315 109.35C370.195 108.172 365.928 108.32 362.028 110.085C360.115 110.821 357.761 111.851 356.657 113.028C355.48 114.059 349.52 119.43 347.902 120.68C343.781 125.021 339.514 129.362 335.32 133.63C334.29 135.028 332.745 136.058 331.053 136.499C329.14 136.867 328.625 136.499 329.14 134.439C329.949 131.643 331.053 128.994 332.524 126.566C333.407 124.506 334.584 122.593 335.909 120.754C335.909 120.754 339.955 113.911 341.648 110.895C341.942 110.453 342.457 110.012 342.383 109.129C340.765 110.674 339.293 112.366 338.042 114.206C335.247 117.59 332.524 121.122 329.728 124.359C329.287 124.948 328.772 125.389 328.183 125.831C327.227 126.566 326.417 126.566 326.123 125.169C326.123 124.874 326.123 124.58 326.123 124.286C327.889 115.751 330.906 107.51 335.026 99.8584C338.19 93.0894 345.253 88.9692 352.684 89.8521ZM256.741 87.2034C260.861 88.307 264.54 90.8086 266.968 94.4138C273.59 103.979 278.446 114.647 281.168 125.904C281.168 125.904 281.168 126.346 281.168 126.64L276.092 121.563C276.533 121.563 274.988 120.751 274.694 120.457C270.868 115.601 266.752 112.179 261.528 108.868C260.13 107.985 250.782 105.229 247.176 100.888C246.735 100.373 247.397 98.9019 247.176 98.3133C246.441 96.5475 245.263 91.6179 246.293 89.8521C247.912 87.1298 252.474 87.8656 253.062 87.792L256.741 87.2034Z" fill="#DEE3E9"/>
<path d="M352.684 89.8522C345.253 88.9693 338.116 93.1631 335.32 100.006C331.273 107.658 328.33 115.824 326.638 124.286C326.638 124.58 326.638 124.874 326.638 125.169C326.05 122.446 326.05 119.65 326.638 116.928C327.3 109.497 328.625 102.139 330.685 94.929C331.273 92.7953 332.23 90.8087 333.407 88.8957C334.805 86.0263 338.116 84.7755 341.059 85.9527C344.296 86.9092 347.46 87.9392 350.624 89.0429C351.36 89.0429 352.095 89.3372 352.684 89.8522ZM256.741 87.2035L253.136 87.7921C250.855 88.0128 248.869 89.2636 247.691 91.1766C247.397 91.618 247.25 91.9123 247.691 92.4274C249.163 93.6782 247.986 93.9725 246.956 94.3403C246.956 93.016 245.925 92.1331 245.705 90.8823L244.822 91.8388C243.792 93.016 243.424 94.5611 243.718 96.1062C244.013 97.6513 244.969 98.902 246.293 99.6378C246.588 99.6378 246.956 100.153 247.25 99.6378C247.397 99.4171 247.397 99.0492 247.25 98.8285C246.735 97.872 247.25 97.0626 247.691 96.1797C248.427 97.357 249.972 98.2399 249.016 100.006C248.059 101.772 249.384 101.183 249.899 101.477C253.945 103.758 258.139 105.892 262.112 108.32C267.336 111.704 271.971 115.898 275.871 120.754C275.871 120.975 276.165 121.269 275.871 121.49C268.293 114.942 259.684 109.791 250.34 106.186C246.956 104.788 243.645 103.317 240.113 101.772C238.862 101.256 237.832 100.153 237.538 98.8285C237.17 97.5041 237.538 96.0326 238.421 95.0025C240.849 91.0294 244.822 88.3071 249.31 87.3506C251.738 86.6149 254.24 86.6149 256.741 87.2035ZM373.947 108.868C376.523 107.323 377.479 104.894 376.081 102.245C375.713 101.362 375.493 100.406 374.462 100.038C374.242 99.9644 374.021 99.8172 373.947 99.5965C372.77 95.2555 369.165 91.9859 364.677 92.2802C367.546 90.6616 371.004 90.5144 373.947 91.9123C379.76 95.1497 382.85 101.551 381.82 108.099C381.526 109.938 380.496 111.631 378.951 112.734C377.405 113.838 375.493 114.279 373.653 113.985C371.004 113.691 368.356 113.47 365.781 113.396C368.576 111.778 370.931 109.898 373.947 108.868Z" fill="#FEFEFE"/>
<path d="M314.351 144.961C316.19 146.8 318.177 148.492 320.311 150.037C316.632 151.582 312.438 150.405 310.084 147.168C311.482 144.446 311.555 144.446 313.836 144.961H314.351ZM322.077 144.961L327.153 148.419C325.093 149.375 322.665 149.449 320.531 148.639C318.398 147.756 316.705 146.064 315.823 143.93C315.823 143.93 315.823 143.93 315.823 143.71C317.073 143.268 318.471 143.415 319.575 144.151C320.311 144.666 321.194 144.961 322.077 144.961ZM300.004 147.462C301.696 149.375 303.609 151.141 305.743 152.539C305.963 152.539 306.478 152.907 306.331 153.275C306.258 153.716 305.743 153.716 305.375 153.863C302.505 154.599 299.562 153.716 297.502 151.656C297.061 149.007 297.061 149.081 299.489 147.977C299.709 147.83 299.857 147.609 300.004 147.462ZM307.141 146.432C308.906 148.051 310.819 149.596 312.806 150.994C313.247 151.288 313.689 151.73 312.806 152.097C309.642 152.98 306.331 151.95 304.198 149.449C304.198 147.094 305.007 146.432 307.141 146.432ZM288.894 153.201L293.456 155.188C291.837 157.468 288.673 157.983 286.392 156.438C285.583 155.776 284.847 155.04 283.964 154.305C283.155 153.569 283.964 152.907 285.215 152.907C286.392 152.907 287.643 152.98 288.894 153.201ZM293.456 150.037C295.295 151.214 296.987 152.539 298.532 153.937C298.532 153.937 299.268 154.378 299.047 154.746C298.827 155.188 298.459 155.114 298.164 155.188C297.502 155.408 296.766 155.408 296.104 155.188C294.559 154.82 293.014 154.305 291.616 153.569C290.807 150.699 291.028 150.258 293.456 150.037ZM278.667 137.824C279.182 137.75 279.623 138.044 279.77 138.559C281.095 140.767 281.904 143.195 282.051 145.77C282.051 147.021 282.051 147.094 280.433 146.579L279.77 146.416C279.697 146.048 279.364 145.319 279.143 145.025C277.819 142.891 277.784 140.325 278.667 137.824ZM336.718 144.593C333.849 145.108 330.979 143.71 329.655 141.135C329.361 139.663 330.685 138.854 332.892 139.148C331.789 140.987 333.186 141.502 334.437 141.944C335.688 142.385 336.792 142.974 336.718 144.593ZM283.449 155.335C284.185 156.07 285.73 156.733 285.362 157.763C284.994 158.793 283.449 158.572 282.272 158.646C280.801 158.94 279.255 158.719 278.005 157.983C278.005 155.114 278.225 154.893 281.095 155.188C281.904 155.335 282.64 155.997 283.449 155.335Z" fill="#DEE3E9"/>
<path d="M322.224 142.165C322.592 141.135 323.475 140.399 324.505 140.252C325.535 140.031 326.638 140.399 327.301 141.208C328.846 142.974 330.685 144.519 332.672 145.843C333.334 146.358 332.578 146.585 331.989 146.879C328.988 146.105 327.559 145.106 325.499 143.634C324.616 142.604 323.548 141.723 322.224 142.165Z" fill="#FEFEFE"/>
<path d="M282.787 140.031C282.787 138.559 283.376 138.118 284.627 138.633C286.466 139.295 287.937 140.693 288.673 142.532C288.967 143.195 288.967 143.93 288.673 144.519C288.379 145.108 287.864 145.696 287.275 145.917C286.687 146.285 285.951 146.358 285.289 146.138C284.626 145.917 284.038 145.402 283.817 144.74C284.847 144.298 286.392 144.74 286.687 143.121C286.76 141.944 286.172 140.914 285.142 140.325C284.406 139.884 283.523 139.737 282.787 140.031ZM324.21 157.027C322.297 157.321 320.384 156.953 318.692 155.923C317.441 155.261 317.441 154.378 318.692 153.716C319.869 152.98 321.194 152.76 322.592 152.98C323.401 154.378 324.578 155.335 324.21 157.027ZM322.224 142.165C323.475 141.797 324.799 142.238 325.608 143.195C327.668 144.666 329.949 145.843 332.377 146.726C328.331 148.198 323.916 146.138 322.224 142.165ZM335.835 156.512C334.069 155.335 333.113 153.201 333.407 151.141C333.996 149.964 334.879 149.449 336.13 150.552C336.13 151.362 336.571 151.95 336.865 152.76C337.454 154.084 337.012 155.703 335.835 156.512Z" fill="#DEE3E9"/>
<path d="M283.449 155.335C282.64 156.144 281.904 155.335 281.095 155.335C278.299 155.114 278.005 155.335 278.005 158.131C276.386 157.468 275.724 155.629 276.386 154.01C277.342 152.833 279.108 152.465 280.433 153.275C281.536 153.863 282.566 154.525 283.449 155.335Z" fill="#FEFEFE"/>
<path d="M330.244 156.88C329.14 156.659 328.11 156.07 327.374 155.188C326.638 154.305 325.608 153.275 326.638 152.097C327.08 151.582 327.742 151.362 328.404 151.362C329.066 151.362 329.728 151.656 330.17 152.097C330.759 153.642 330.759 155.335 330.244 156.88Z" fill="#DEE3E9"/>
<path d="M278.667 137.824C277.71 140.325 278.005 143.121 279.403 145.476C279.623 145.77 279.77 146.064 279.844 146.432C278.152 146.138 276.754 144.96 276.165 143.342C275.577 141.723 275.944 139.957 276.975 138.633C277.49 138.191 277.931 137.676 278.667 137.824Z" fill="#FEFEFE"/>
<path fill-rule="evenodd" clip-rule="evenodd" d="M309.716 257.09C314.351 236.342 320.532 225.894 328.404 225.894C332.819 225.894 340.397 231.339 340.691 228.69C341.133 224.349 330.906 211.032 322.592 211.105C309.348 211.252 303.903 225.526 306.037 239.358C307.509 248.555 308.686 254.441 309.716 257.09Z" fill="#DEE3E9"/>
<path d="M322.297 238.475C316.558 248.04 312.365 259.886 309.937 273.571C309.937 274.16 309.937 274.675 309.937 275.19C309.127 269.598 309.127 264.448 309.937 260.033C310.893 247.157 312.806 235.091 315.675 224.055C316.558 220.817 317.883 218.095 319.501 215.961C321.414 212.209 326.197 213.533 330.391 218.904C334.952 224.202 339.514 229.573 344.076 235.017C345.179 235.9 346.209 237.225 347.019 238.77C336.497 229.131 326.344 228.984 322.297 238.475Z" fill="black"/>
<path d="M282.787 140.031C283.523 139.81 284.332 139.884 285.068 140.325C286.024 140.914 286.613 142.018 286.613 143.121C286.392 144.593 284.774 144.298 283.744 144.74C282.861 143.268 282.566 141.65 282.787 140.031ZM335.835 156.512C337.013 155.629 337.454 154.01 336.792 152.686C336.571 151.95 336.056 151.288 336.056 150.479C337.307 151.362 338.337 152.318 339.293 153.495C339.661 153.937 339.882 154.525 339.735 155.114C339.588 155.703 339.22 156.144 338.705 156.438C337.822 157.027 336.865 157.983 335.835 156.512ZM288.894 153.201C287.717 152.98 286.466 152.833 285.215 152.833C284.111 152.833 283.817 153.348 283.964 154.231C282.934 153.642 281.978 152.833 281.168 151.95C283.744 149.964 285.068 150.258 288.894 153.201ZM336.718 144.593C336.718 142.974 335.615 142.459 334.29 141.944C333.039 141.429 331.715 140.987 332.745 139.148C334.952 139.001 336.939 140.399 337.601 142.533C337.895 143.415 337.969 144.298 336.718 144.593Z" fill="#FEFEFE"/>
<path d="M294.338 141.65C294.927 141.576 295.516 141.797 295.884 142.238C296.619 142.9 296.546 143.489 295.589 143.783C294.265 144.151 292.867 144.151 291.543 143.783C290.439 143.783 290.292 142.68 290.292 141.87C290.292 140.987 290.292 140.399 291.395 140.472C291.322 141.429 291.984 142.385 292.941 142.533C293.971 142.9 294.191 142.459 294.338 141.65Z" fill="#DEE3E9"/>
<path d="M293.514 150.124C291.086 150.124 291.196 150.588 291.659 153.369C290.556 152.854 289.262 152.318 288.379 151.435C287.202 150.479 287.717 149.816 288.82 149.449C290.292 148.786 292.263 149.168 293.514 150.124ZM307.141 146.432C305.08 146.432 305.08 147.609 304.639 149.964C304.492 149.89 303.683 149.375 303.535 149.228C302.8 148.345 301.107 147.536 302.653 145.991C304.05 144.96 305.963 145.181 307.141 146.432ZM300.004 147.462C300.004 147.462 299.636 147.83 299.415 147.904C296.987 149.007 297.244 149.007 297.686 151.582H297.134C296.251 150.552 294.706 149.743 295.589 148.051C296.472 146.285 298.238 146.653 300.004 147.462ZM322.077 144.96C321.194 144.96 320.311 144.666 319.575 144.151C318.471 143.415 317.073 143.195 315.823 143.71C316.338 142.827 317.22 142.238 318.251 142.091C319.281 141.944 320.237 142.312 320.973 143.121C321.414 143.636 321.856 144.298 322.077 144.96ZM314.351 144.96H313.615C311.334 144.445 311.6 144.813 310.202 147.462C309.539 146.579 308.097 145.476 309.421 144.372C310.967 143.268 313.174 143.489 314.351 144.96ZM330.243 156.88C330.832 155.335 330.832 153.569 330.243 152.024C331.568 152.98 332.451 154.378 332.671 155.923C332.966 157.174 332.156 157.468 330.243 156.88ZM324.21 157.027C324.652 155.335 323.401 154.305 322.592 153.127C323.842 152.98 325.093 153.79 325.314 155.04C325.682 155.997 325.535 156.953 324.21 157.027ZM294.338 141.65C294.338 142.385 293.75 142.9 293.014 142.753C292.058 142.606 291.322 141.723 291.469 140.693C292.499 140.472 293.603 140.84 294.338 141.65Z" fill="#FEFEFE"/>
<path d="M300.813 166.15C301.696 166.518 301.402 167.401 301.696 167.916C301.77 168.137 301.77 168.358 301.623 168.505C301.475 168.652 301.255 168.726 301.034 168.652C300.445 168.652 299.783 168.211 299.783 167.401C299.783 166.592 300.298 166.518 300.813 166.15ZM316.485 95.6647C316.485 105.303 315.602 115.015 313.91 124.506C313.763 125.904 313.174 127.302 312.365 128.406C311.702 129.289 311.04 129.436 310.231 128.406C308.686 126.714 307.509 124.727 306.699 122.667C303.536 115.677 300.887 108.393 297.429 101.624C295.884 98.5342 294.191 95.5176 292.278 92.6481C289.188 87.4978 289.703 81.0232 293.603 76.4614C295.663 74.1806 297.944 72.1205 300.151 70.0603C301.549 68.6624 303.315 67.7059 305.301 67.2645C308.539 67.0437 311.482 68.8831 312.733 71.8262C315.602 79.4045 316.926 87.5714 316.485 95.6647Z" fill="#FEFEFE"/>
<path d="M398.154 253.632C396.314 250.836 393.666 248.555 390.943 246.642C390.061 246.054 389.766 246.201 389.84 247.231C389.84 247.599 389.84 247.967 389.84 248.335C390.502 254.221 390.208 260.18 389.03 265.993C387.412 274.601 383.954 282.768 378.803 289.905C373.874 296.527 367.326 301.751 359.747 305.209C358.644 305.356 357.614 305.724 356.657 306.239C354.523 307.269 352.316 308.078 350.109 308.667C344.811 310.138 339.367 311.021 333.849 311.242C326.859 311.683 319.796 311.389 312.879 310.359C302.505 308.961 292.646 305.061 284.038 299.102C277.342 294.54 271.824 288.507 267.925 281.37C267.189 279.899 266.38 278.501 265.57 277.029C265.791 287.698 269.396 297.998 275.797 306.533C254.975 295.717 241.585 279.531 239.745 255.619V253.706C239.819 253.558 239.819 253.411 239.745 253.264C238.494 237.813 243.718 222.436 254.166 210.958C254.166 211.767 252.327 225.526 257.109 240.241C257.477 241.86 258.139 243.331 259.169 244.582C259.169 234.797 266.159 208.677 275.282 194.109C280.8 185.28 291.469 178.217 292.646 177.775C295.736 176.819 298.091 178.143 297.723 180.645C297.208 183.882 296.987 187.193 297.061 190.504C297.061 194.403 297.061 198.303 297.061 202.202H299.636C299.636 198.965 301.99 196.611 302.947 193.668C304.05 191.093 305.375 188.591 306.846 186.163C308.906 182.043 311.702 178.364 315.087 175.2C317.147 172.772 320.384 171.595 323.474 172.184C326.05 172.772 328.404 174.097 330.317 176.009C335.982 181.822 340.544 188.591 343.855 196.022C344.223 196.905 344.811 197.788 345.474 198.45C345.621 197.494 345.621 196.464 345.474 195.434C344.959 190.651 345.474 185.869 346.945 181.307C347.681 178.437 348.711 178.143 350.845 180.203C353.641 182.705 356.216 185.427 358.57 188.37C359.085 189.253 359.894 189.915 360.777 190.43C360.777 189.768 360.557 189.18 360.189 188.591C357.908 183.956 355.038 179.541 351.801 175.568C351.58 175.2 350.697 174.979 351.36 174.317C346.945 169.756 341.795 166.003 336.056 163.281C335.614 163.281 335.099 162.545 334.658 162.913C334.217 163.281 334.658 163.869 334.879 164.311C337.307 170.418 339.44 176.672 341.133 182.999C342.016 186.163 342.089 186.825 341.721 188.076L341.28 187.414C338.999 182.116 336.277 176.966 333.113 172.11C330.611 167.769 327.153 164.017 322.886 161.294C321.046 160.191 318.913 159.823 316.779 160.191C313.395 161 310.451 163.06 308.612 166.003C304.639 171.816 301.917 178.437 300.519 185.354C300.077 187.193 299.709 189.032 299.268 191.019C298.9 189.768 299.489 188.738 299.489 187.634C299.489 181.601 300.151 175.642 301.402 169.756C302.652 163.869 299.121 160.779 293.308 162.104C290.439 162.913 287.79 164.237 285.509 166.077C278.74 171.521 273.001 178.143 268.66 185.648C267.042 188.297 265.57 190.725 263.584 194.036C266.38 182.484 271.971 171.816 279.918 162.987C274.473 165.488 269.323 168.652 264.614 172.331C264.614 172.331 258.36 178.953 252.106 186.31C246.882 192.417 241.584 199.407 240.996 199.922C240.628 200.142 240.554 200.584 240.775 200.878C240.996 201.32 241.511 200.878 241.879 200.878L252.989 199.112C253.357 198.965 253.798 198.965 254.166 199.112C254.166 200.437 252.842 200.878 252.032 201.687C249.604 203.895 247.176 206.102 244.969 208.53C241.143 212.65 237.244 216.697 233.712 221.111C231.505 223.834 229.15 226.483 227.237 229.426C211.345 254.147 207.004 269.966 206.489 278.427C204.429 312.787 245.263 329.857 271.751 333.903C281.463 335.375 292.499 332.064 294.191 331.475C295.589 331.034 295.589 330.445 294.633 329.342C291.984 326.472 289.63 323.308 287.643 319.997C288.232 320.218 288.747 320.586 289.262 320.954C289.85 321.395 290.365 321.91 290.88 322.352C298.679 327.796 307.435 331.696 316.632 333.903C322.592 335.448 328.698 336.258 334.805 336.331C353.861 337.582 372.917 333.241 389.546 323.75C390.502 323.455 391.458 322.94 392.268 322.352L395.873 319.63L396.977 318.747C397.492 318.599 397.86 318.379 398.227 318.011C398.227 317.569 398.743 317.643 399.11 317.569C399.037 316.981 399.331 316.466 399.773 316.171C404.187 312.051 418.093 284.019 398.154 253.632Z" fill="#DEE3E9"/>
<path fill-rule="evenodd" clip-rule="evenodd" d="M298.238 330.666C298.164 333.02 263.142 345.97 254.902 340.819C242.468 333.168 247.176 332.8 234.521 321.322C221.866 309.844 217.525 303.811 229.813 310.801C237.906 315.509 263.363 330.666 298.238 330.666Z" fill="black"/>
<path fill-rule="evenodd" clip-rule="evenodd" d="M408.455 278.942C409.632 280.046 408.16 317.054 403.599 322.131C396.756 329.709 397.639 325.368 388.883 331.475C380.054 337.582 375.934 338.612 382.409 330.887C386.676 325.736 400.361 309.991 408.455 278.942Z" fill="black"/>
<path d="M219.441 347.105L221.196 345.531L219.441 347.105Z" fill="white"/>
<path d="M221.58 341.643C220.222 374.851 126.421 384.54 104.174 354.919C100.782 348.487 98.6544 341.712 97.8604 334.811C98.3726 284.266 242.354 290.846 221.58 341.643Z" fill="black"/>
<path fill-rule="evenodd" clip-rule="evenodd" d="M109.982 350.799C109.478 350.34 109.01 349.869 108.581 349.386C108.606 349.549 108.636 349.711 108.669 349.872C108.472 349.973 108.642 350.873 108.796 351.686C108.958 352.541 109.102 353.301 108.782 352.938C112.824 379.025 218.185 380.046 216.54 339.558C216.666 336.629 216.198 333.459 215.047 330.038C214.801 330.6 214.661 331.523 214.48 332.713C213.652 338.154 211.976 349.176 195.471 356.704C182.611 362.615 162.34 364.368 144.27 362.417C130.231 360.316 117.347 356.195 109.982 350.799Z" fill="#DEE3E9"/>
<path fill-rule="evenodd" clip-rule="evenodd" d="M158.145 359.477C230.865 359.797 236.437 306.026 163.153 304.306C90.432 303.975 84.8608 357.718 158.145 359.477Z" fill="#DEE3E9"/>
<path fill-rule="evenodd" clip-rule="evenodd" d="M158.145 359.477C230.865 359.797 236.437 306.026 163.153 304.306C90.432 303.975 84.8608 357.718 158.145 359.477Z" fill="#DEE3E9"/>
<path fill-rule="evenodd" clip-rule="evenodd" d="M105.902 334.377C114.611 366.622 217.954 363.143 215.52 327.963C225.075 366.836 108.719 370.539 105.902 334.377Z" fill="white"/>
<path d="M121.248 363.525L121.118 351.123C121.118 351.123 122.867 352.049 126.063 353.113C127.785 353.655 129.531 354.143 131.292 354.575L131.521 367.741C129.84 367.425 128.167 367.041 126.512 366.591C123.403 365.732 121.332 364.529 121.248 363.525Z" fill="white"/>
<path d="M276.165 354.684L278.234 353.588L276.165 354.684Z" fill="white"/>
<path d="M280.534 351.453C270.788 384.397 175.968 370.758 161.529 335.537C159.814 328.252 159.433 320.938 160.397 313.829C173.699 263.304 313.855 305.727 280.534 351.453Z" fill="black"/>
<path fill-rule="evenodd" clip-rule="evenodd" d="M169.498 328.066C178.183 347.227 224.949 362.922 250.918 356.959C272.702 352.03 274.749 336.213 276.907 333.211C279.481 388.42 166.228 358.51 169.498 328.066Z" fill="#DEE3E9"/>
<path fill-rule="evenodd" clip-rule="evenodd" d="M214.25 351.836C283.99 369.798 302.549 318.863 232.609 299.413C162.869 281.451 144.317 332.358 214.25 351.836Z" fill="#DEE3E9"/>
<path fill-rule="evenodd" clip-rule="evenodd" d="M214.25 351.836C283.99 369.798 302.549 318.863 232.609 299.413C162.869 281.451 144.317 332.358 214.25 351.836Z" fill="#DEE3E9"/>
<path fill-rule="evenodd" clip-rule="evenodd" d="M170.259 314.764C170.701 348.226 270.741 369.903 277.083 335.119C276.696 375.277 164.08 350.614 170.259 314.764Z" fill="white"/>
</g>
<defs>
<clipPath id="clip0">
<rect width="606" height="400" fill="white"/>
</clipPath>
</defs>
</svg>
