<svg viewBox="0 0 26 26" xmlns="http://www.w3.org/2000/svg">
  <path d="M13.034682.866667c-7.2 0-13 5.8-13 12.9 0 5.7 3.7 10.5 8.9 12.2.6.1.9-.3.9-.6v-2.4c-3.6.8-4.4-1.5-4.4-1.5-.6-1.5-1.4-1.9-1.4-1.9-1.2-.8 0-.8 0-.8 1.3.1 2 1.3 2 1.3 1.2 2 3 1.4 3.8 1.1.1-.8.5-1.4.8-1.7-2.9-.3-5.9-1.4-5.9-6.4 0-1.4.5-2.6 1.3-3.5-.1-.3-.5-1.6.2-3.4 0 0 1.1-.3 3.6 1.3 1-.3 2.1-.4 3.2-.4s2.2.1 3.2.4c2.5-1.7 3.6-1.3 3.6-1.3.7 1.8.3 3.1.1 3.4.8.9 1.3 2 1.3 3.5 0 4.9-3 6-5.9 6.4.5.4.9 1.2.9 2.4v3.5c0 .3.2.7.9.6 5.2-1.7 8.9-6.5 8.9-12.2 0-7.1-5.9-12.9-13-12.9z" fill="#fff"/>
</svg>
