<svg width="33" height="32" viewBox="0 0 33 32" fill="none" xmlns="http://www.w3.org/2000/svg">
<path d="M19.2615 25.0256H19.2885C20.048 25.0256 20.765 24.675 21.2314 24.0755L23.1278 21.6375C23.8174 20.751 23.8195 19.51 23.1328 18.6212L21.1077 16H27.4666L21.2313 7.9308C20.7652 7.32758 20.0459 6.97437 19.2836 6.97437H19.2615L16.6891 10.2818L21.1077 16H14.7487L16.7738 18.6212C17.4605 19.51 17.4585 20.751 16.7688 21.6375L16.6976 21.7291L19.2615 25.0256Z" fill="#4038FF"/>
<path d="M19.2871 6.97437H13.0808C12.3212 6.97437 11.6041 7.32507 11.1378 7.92466L7.14079 13.0636C6.48781 13.9032 6.1333 14.9364 6.1333 16C6.1333 17.0636 6.48781 18.0968 7.14079 18.9364L11.1378 24.0753C11.6041 24.6749 12.3212 25.0256 13.0808 25.0256H19.2882L19.279 25.0204C18.5798 24.9747 17.93 24.6324 17.4967 24.0753L13.4998 18.9364C12.8468 18.0968 12.4923 17.0636 12.4923 16C12.4923 14.9364 12.8468 13.9032 13.4998 13.0636L17.4967 7.92467C17.9274 7.37098 18.5718 7.02953 19.2661 6.98049C19.2736 6.97996 19.2871 6.98305 19.2871 6.97437Z" fill="#4038FF"/>
</svg>
