<svg width="40" height="41" viewBox="0 0 40 41" fill="none" xmlns="http://www.w3.org/2000/svg">
<path d="M20.5806 13.6077C21.478 12.7102 22.6952 12.2061 23.9645 12.2061C26.6074 12.2061 28.75 14.3486 28.75 16.9916C28.75 18.2608 28.2458 19.478 27.3483 20.3755L24.4194 23.3044C23.5219 24.2019 22.3047 24.7061 21.0355 24.7061C19.714 24.7061 18.5176 24.1704 17.6516 23.3044L19.4194 21.5366C19.833 21.9502 20.4044 22.2061 21.0355 22.2061C21.6417 22.2061 22.223 21.9653 22.6516 21.5366L25.5806 18.6077C26.0092 18.1791 26.25 17.5978 26.25 16.9916C26.25 15.7293 25.2267 14.7061 23.9645 14.7061C23.3583 14.7061 22.777 14.9469 22.3483 15.3755L21.5089 16.2149L19.7411 14.4472L20.5806 13.6077Z" fill="#A7AEB7"/>
<path d="M18.9645 17.2061C20.286 17.2061 21.4823 17.7417 22.3484 18.6077L20.5806 20.3755C20.167 19.9619 19.5956 19.7061 18.9645 19.7061C18.3583 19.7061 17.777 19.9469 17.3484 20.3755L14.4194 23.3044C13.9908 23.733 13.75 24.3144 13.75 24.9205C13.75 26.1828 14.7733 27.2061 16.0355 27.2061C16.6417 27.2061 17.223 26.9653 17.6517 26.5366L18.4911 25.6972L20.2589 27.4649L19.4194 28.3044C18.522 29.2019 17.3047 29.7061 16.0355 29.7061C13.3926 29.7061 11.25 27.5635 11.25 24.9205C11.25 23.6513 11.7542 22.4341 12.6516 21.5366L15.5806 18.6077C16.478 17.7102 17.6953 17.2061 18.9645 17.2061Z" fill="#A7AEB7"/>
</svg>
