<svg width="40" height="40" viewBox="0 0 40 40" fill="none" xmlns="http://www.w3.org/2000/svg">
<path d="M20.5806 12.6517C21.478 11.7542 22.6952 11.25 23.9645 11.25C26.6074 11.25 28.75 13.3926 28.75 16.0355C28.75 17.3047 28.2458 18.522 27.3483 19.4194L24.4194 22.3484C23.5219 23.2458 22.3047 23.75 21.0355 23.75C19.714 23.75 18.5176 23.2144 17.6516 22.3483L19.4194 20.5806C19.833 20.9942 20.4044 21.25 21.0355 21.25C21.6417 21.25 22.223 21.0092 22.6516 20.5806L25.5806 17.6517C26.0092 17.223 26.25 16.6417 26.25 16.0355C26.25 14.7733 25.2267 13.75 23.9645 13.75C23.3583 13.75 22.777 13.9908 22.3483 14.4194L21.5089 15.2589L19.7411 13.4911L20.5806 12.6517Z" fill="#A7AEB7"/>
<path d="M18.9645 16.25C20.286 16.25 21.4823 16.7856 22.3484 17.6517L20.5806 19.4194C20.167 19.0058 19.5956 18.75 18.9645 18.75C18.3583 18.75 17.777 18.9908 17.3484 19.4194L14.4194 22.3483C13.9908 22.777 13.75 23.3583 13.75 23.9645C13.75 25.2267 14.7733 26.25 16.0355 26.25C16.6417 26.25 17.223 26.0092 17.6517 25.5806L18.4911 24.7411L20.2589 26.5089L19.4194 27.3483C18.522 28.2458 17.3047 28.75 16.0355 28.75C13.3926 28.75 11.25 26.6074 11.25 23.9645C11.25 22.6953 11.7542 21.478 12.6516 20.5806L15.5806 17.6516C16.478 16.7542 17.6953 16.25 18.9645 16.25Z" fill="#A7AEB7"/>
</svg>
