<svg width="32" height="32" viewBox="0 0 32 32" fill="none" xmlns="http://www.w3.org/2000/svg">
<path fill-rule="evenodd" clip-rule="evenodd" d="M17.3262 8.18639L24.2798 11.6632C24.6011 11.8238 24.6061 12.2806 24.2884 12.4483L15.2573 17.2147C14.7538 17.4805 14.153 17.4871 13.6437 17.2325L7.97343 14.3973C7.28265 14.1198 6.51026 14.6266 6.51026 15.3901C6.51026 16.0039 6.85705 16.565 7.40606 16.8395L13.0909 19.6819C13.438 19.3286 13.9211 19.1094 14.4556 19.1094C14.9747 19.1094 15.4455 19.3163 15.7901 19.652L22.8708 15.9149C22.8514 15.8057 22.8413 15.6932 22.8413 15.5783C22.8413 14.522 23.6976 13.6657 24.7539 13.6657C25.8103 13.6657 26.6666 14.522 26.6666 15.5783C26.6666 16.6347 25.8103 17.491 24.7539 17.491C24.2374 17.491 23.7688 17.2863 23.4246 16.9535L16.3399 20.6927C16.3585 20.7997 16.3682 20.9097 16.3682 21.0221C16.3682 22.0784 15.5119 22.9347 14.4556 22.9347C13.3993 22.9347 12.5429 22.0784 12.5429 21.0221C12.5429 20.9244 12.5502 20.8284 12.5644 20.7346L6.79717 17.851C5.89999 17.4025 5.33325 16.4855 5.33325 15.4823V14.9236C5.33325 14.1597 5.75606 13.4585 6.4317 13.102L15.7126 8.20412C16.2161 7.93836 16.8169 7.93176 17.3262 8.18639ZM14.4556 21.7577C14.8618 21.7577 15.1912 21.4283 15.1912 21.0221C15.1912 20.6158 14.8618 20.2865 14.4556 20.2865C14.0493 20.2865 13.7199 20.6158 13.7199 21.0221C13.7199 21.4283 14.0493 21.7577 14.4556 21.7577ZM25.4896 15.5783C25.4896 15.9846 25.1602 16.314 24.7539 16.314C24.3477 16.314 24.0183 15.9846 24.0183 15.5783C24.0183 15.1721 24.3477 14.8427 24.7539 14.8427C25.1602 14.8427 25.4896 15.1721 25.4896 15.5783Z" fill="#3681FC"/>
</svg>
