<svg width="16" height="16" viewBox="0 0 16 16" fill="none" xmlns="http://www.w3.org/2000/svg">
<path d="M0.5 8C0.5 3.86014 3.86014 0.5 8 0.5C12.1399 0.5 15.5 3.86014 15.5 8C15.5 12.1399 12.1399 15.5 8 15.5C3.86014 15.5 0.5 12.1399 0.5 8Z" stroke="#D3DAFF"/>
<path fill-rule="evenodd" clip-rule="evenodd" d="M9.44732 8.11332L10.0473 7.49999C10.4273 7.11999 10.6673 6.58666 10.6673 5.99999C10.6673 4.52666 9.47398 3.33333 8.00065 3.33333C6.52732 3.33333 5.33398 4.52666 5.33398 5.99999H6.66732C6.66732 5.26666 7.26732 4.66666 8.00065 4.66666C8.73398 4.66666 9.33398 5.26666 9.33398 5.99999C9.33398 6.36666 9.18732 6.69999 8.94065 6.93999L8.11398 7.77999C7.63398 8.26665 7.33398 8.93332 7.33398 9.66665V9.99999H8.66732C8.66732 8.99999 8.96732 8.59999 9.44732 8.11332ZM7.33377 12.6667H8.6671V11.3333H7.33377V12.6667Z" fill="#5D6B80"/>
</svg>
