<svg xmlns="http://www.w3.org/2000/svg" width="720" height="601" viewBox="0 0 720 601">
  <g fill="none" fill-rule="evenodd">
    <g transform="translate(0 .4)">
      <path fill="#4038FF"
        d="M586.660142,260.010133 L580.006762,260.010133 L580.006762,266.663467 L586.660142,266.663467 L586.660142,273.333333 L580.006762,273.333333 L580.006762,280.0032 L586.660142,280.0032 L586.660142,286.656533 L593.330071,286.656533 L593.330071,293.3264 L586.660142,293.3264 L586.660142,286.673067 L580.006762,286.673067 L580.006762,293.3264 L586.660142,293.3264 L586.660142,300 L579.990214,300 L579.990214,293.330133 L573.336833,293.330133 L573.336833,286.6768 L566.666904,286.6768 L566.666904,293.330133 L559.996975,293.330133 L559.996975,286.6768 L553.343594,286.6768 L553.343594,293.330133 L559.996975,293.330133 L559.996975,300 L553.326512,300 L553.326512,293.330133 L546.673665,293.330133 L546.673665,300 L540,300 L540,293.330133 L546.669929,293.330133 L546.669929,286.6768 L540,286.6768 L540,280.0064 L546.669929,280.0064 L546.669929,273.336533 L540,273.336533 L540,266.666667 L546.669929,266.666667 L546.669929,260.013333 L546.669929,259.9968 L553.32331,259.9968 L553.32331,253.343467 L559.993238,253.343467 L559.993238,259.9968 L566.663167,259.9968 L566.663167,253.343467 L573.33363,253.343467 L573.33363,259.9968 L579.987011,259.9968 L579.987011,253.343467 L586.65694,253.343467 L586.65694,259.9968 L593.326868,259.9968 L593.326868,266.666667 L586.65694,266.666667 L586.65694,260.010133 L586.660142,260.010133 Z M546.669929,259.9936 L546.669929,253.339733 L540,253.339733 L540,260.010133 L546.669929,260.010133 L546.669929,259.9936 Z M566.663167,293.330133 L566.663167,300 L573.33363,300 L573.33363,293.330133 L566.663167,293.330133 Z M586.660142,280.0064 L586.660142,273.336533 L593.330071,273.336533 L593.330071,280.0064 L586.660142,280.0064 Z M553.32331,286.660267 L546.669929,286.660267 L546.669929,280.0064 L553.32331,280.0064 L553.32331,286.660267 Z M553.339858,253.339733 L553.339858,246.669867 L559.993238,246.669867 L559.993238,253.339733 L566.663167,253.339733 L566.663167,246.669867 L573.33363,246.669867 L573.33363,253.339733 L580.003559,253.339733 L580.003559,246.669867 L586.65694,246.669867 L586.65694,253.339733 L593.326868,253.339733 L593.326868,246.669867 L586.65694,246.669867 L586.65694,240 L579.987011,240 L579.987011,246.669867 L573.33363,246.669867 L573.33363,240 L566.663167,240 L566.663167,246.669867 L559.993238,246.669867 L559.993238,240 L553.32331,240 L553.32331,246.669867 L546.669929,246.669867 L546.669929,240 L540,240 L540,246.669867 L546.669929,246.669867 L546.669929,253.339733 L553.339858,253.339733 Z M579.987011,266.663467 L579.987011,273.333333 L573.33363,273.333333 L573.33363,266.663467 L579.987011,266.663467 Z M566.663167,266.663467 L566.663167,260.010133 L573.33363,260.010133 L573.33363,266.663467 L566.663167,266.663467 Z M559.993238,266.663467 L566.663167,266.663467 L566.663167,273.333333 L559.993238,273.333333 L559.993238,266.663467 Z M559.993238,266.663467 L553.339858,266.663467 L553.339858,260.010133 L559.993238,260.010133 L559.993238,266.663467 Z M559.993238,280.0064 L553.339858,280.0064 L553.339858,273.336533 L559.993238,273.336533 L559.993238,280.0064 Z M566.663167,280.0064 L566.663167,286.660267 L559.993238,286.660267 L559.993238,280.0064 L566.663167,280.0064 Z M573.336833,280.0064 L566.666904,280.0064 L566.666904,273.336533 L573.336833,273.336533 L573.336833,280.0064 Z M573.336833,280.0064 L579.990214,280.0064 L579.990214,286.660267 L573.336833,286.660267 L573.336833,280.0064 Z M553.32331,273.336533 L553.32331,266.666667 L546.669929,266.666667 L546.669929,273.336533 L553.32331,273.336533 Z M600,293.330133 L593.330071,293.330133 L593.330071,300 L600,300 L600,293.330133 Z M593.330071,280.0064 L600,280.0064 L600,286.6768 L593.330071,286.6768 L593.330071,280.0064 Z M600,266.663467 L593.330071,266.663467 L593.330071,273.333333 L600,273.333333 L600,266.663467 Z M593.330071,253.339733 L600,253.339733 L600,260.010133 L593.330071,260.010133 L593.330071,253.339733 Z M593.330071,240 L600,240 L600,246.669867 L593.330071,246.669867 L593.330071,240 Z"
        transform="matrix(1 0 0 -1 0 540)" />
      <path fill="#4038FF"
        d="M166.660142,20.0101333 L160.006762,20.0101333 L160.006762,26.6634667 L166.660142,26.6634667 L166.660142,33.3333333 L160.006762,33.3333333 L160.006762,40.0032 L166.660142,40.0032 L166.660142,46.6565333 L173.330071,46.6565333 L173.330071,53.3264 L166.660142,53.3264 L166.660142,46.6730667 L160.006762,46.6730667 L160.006762,53.3264 L166.660142,53.3264 L166.660142,60 L159.990214,60 L159.990214,53.3301333 L153.336833,53.3301333 L153.336833,46.6768 L146.666904,46.6768 L146.666904,53.3301333 L139.996975,53.3301333 L139.996975,46.6768 L133.343594,46.6768 L133.343594,53.3301333 L139.996975,53.3301333 L139.996975,60 L133.326512,60 L133.326512,53.3301333 L126.673665,53.3301333 L126.673665,60 L120,60 L120,53.3301333 L126.669929,53.3301333 L126.669929,46.6768 L120,46.6768 L120,40.0064 L126.669929,40.0064 L126.669929,33.3365333 L120,33.3365333 L120,26.6666667 L126.669929,26.6666667 L126.669929,20.0133333 L126.669929,19.9968 L133.32331,19.9968 L133.32331,13.3434667 L139.993238,13.3434667 L139.993238,19.9968 L146.663167,19.9968 L146.663167,13.3434667 L153.33363,13.3434667 L153.33363,19.9968 L159.987011,19.9968 L159.987011,13.3434667 L166.65694,13.3434667 L166.65694,19.9968 L173.326868,19.9968 L173.326868,26.6666667 L166.65694,26.6666667 L166.65694,20.0101333 L166.660142,20.0101333 Z M126.669929,19.9936 L126.669929,13.3397333 L120,13.3397333 L120,20.0101333 L126.669929,20.0101333 L126.669929,19.9936 Z M146.663167,53.3301333 L146.663167,60 L153.33363,60 L153.33363,53.3301333 L146.663167,53.3301333 Z M166.660142,40.0064 L166.660142,33.3365333 L173.330071,33.3365333 L173.330071,40.0064 L166.660142,40.0064 Z M133.32331,46.6602667 L126.669929,46.6602667 L126.669929,40.0064 L133.32331,40.0064 L133.32331,46.6602667 Z M133.339858,13.3397333 L133.339858,6.66986667 L139.993238,6.66986667 L139.993238,13.3397333 L146.663167,13.3397333 L146.663167,6.66986667 L153.33363,6.66986667 L153.33363,13.3397333 L160.003559,13.3397333 L160.003559,6.66986667 L166.65694,6.66986667 L166.65694,13.3397333 L173.326868,13.3397333 L173.326868,6.66986667 L166.65694,6.66986667 L166.65694,-1.42108547e-14 L159.987011,-1.42108547e-14 L159.987011,6.66986667 L153.33363,6.66986667 L153.33363,-1.42108547e-14 L146.663167,-1.42108547e-14 L146.663167,6.66986667 L139.993238,6.66986667 L139.993238,-1.42108547e-14 L133.32331,-1.42108547e-14 L133.32331,6.66986667 L126.669929,6.66986667 L126.669929,-1.42108547e-14 L120,-1.42108547e-14 L120,6.66986667 L126.669929,6.66986667 L126.669929,13.3397333 L133.339858,13.3397333 Z M159.987011,26.6634667 L159.987011,33.3333333 L153.33363,33.3333333 L153.33363,26.6634667 L159.987011,26.6634667 Z M146.663167,26.6634667 L146.663167,20.0101333 L153.33363,20.0101333 L153.33363,26.6634667 L146.663167,26.6634667 Z M139.993238,26.6634667 L146.663167,26.6634667 L146.663167,33.3333333 L139.993238,33.3333333 L139.993238,26.6634667 Z M139.993238,26.6634667 L133.339858,26.6634667 L133.339858,20.0101333 L139.993238,20.0101333 L139.993238,26.6634667 Z M139.993238,40.0064 L133.339858,40.0064 L133.339858,33.3365333 L139.993238,33.3365333 L139.993238,40.0064 Z M146.663167,40.0064 L146.663167,46.6602667 L139.993238,46.6602667 L139.993238,40.0064 L146.663167,40.0064 Z M153.336833,40.0064 L146.666904,40.0064 L146.666904,33.3365333 L153.336833,33.3365333 L153.336833,40.0064 Z M153.336833,40.0064 L159.990214,40.0064 L159.990214,46.6602667 L153.336833,46.6602667 L153.336833,40.0064 Z M133.32331,33.3365333 L133.32331,26.6666667 L126.669929,26.6666667 L126.669929,33.3365333 L133.32331,33.3365333 Z M180,53.3301333 L173.330071,53.3301333 L173.330071,60 L180,60 L180,53.3301333 Z M173.330071,40.0064 L180,40.0064 L180,46.6768 L173.330071,46.6768 L173.330071,40.0064 Z M180,26.6634667 L173.330071,26.6634667 L173.330071,33.3333333 L180,33.3333333 L180,26.6634667 Z M173.330071,13.3397333 L180,13.3397333 L180,20.0101333 L173.330071,20.0101333 L173.330071,13.3397333 Z M173.330071,-1.42108547e-14 L180,-1.42108547e-14 L180,6.66986667 L173.330071,6.66986667 L173.330071,-1.42108547e-14 Z"
        transform="matrix(1 0 0 -1 0 60)" />
      <path fill="#4038FF"
        d="M353.330071,360 L360,360 L360,300 L353.330071,300 L353.330071,360 Z M346.666548,360 L339.999822,360 L339.999822,300 L346.666548,300 L346.666548,360 Z M333.33363,360 L326.666904,360 L326.666904,300 L333.33363,300 L333.33363,360 Z M313.333452,360 L320.000178,360 L320.000178,300 L313.333452,300 L313.333452,360 Z M306.666726,360 L300,360 L300,300 L306.666726,300 L306.666726,360 Z"
        transform="matrix(1 0 0 -1 0 660)" />
      <path fill="#FFF" fill-rule="nonzero"
        d="M364.699429,539.6 L360,539.6 L360,534.9 L415.299429,479.6 L420,479.6 L420,484.3 L364.699429,539.6 Z M405.866286,479.6 L396.433143,479.6 L360,516.033257 L360,525.466629 L405.866286,479.6 Z M387,479.6 L377.566857,479.6 L360,497.166629 L360,506.6 L387,479.6 Z M360,479.6 L360,487.733326 L368.132571,479.6 L360,479.6 Z M420,503.166629 L420,493.733371 L374.132571,539.6 L383.566857,539.6 L420,503.166629 Z M420,522.033257 L420,512.6 L393,539.6 L402.433143,539.6 L420,522.033257 Z M420,531.466629 L411.866286,539.6 L420,539.6 L420,531.466629 Z"
        transform="matrix(1 0 0 -1 0 1019.2)" />
      <path fill="#1F242C"
        d="M300,486.669867 L300,480 L240,480 L240,486.669867 L300,486.669867 Z M300,493.333333 L300,500 L240,500 L240,493.333333 L300,493.333333 Z M300,506.666667 L300,513.333333 L240,513.333333 L240,506.666667 L300,506.666667 Z M300,526.666667 L300,520 L240,520 L240,526.666667 L300,526.666667 Z M300,533.333333 L300,540 L240,540 L240,533.333333 L300,533.333333 Z"
        transform="matrix(1 0 0 -1 0 1020)" />
      <path fill="#1F242C"
        d="M540,306.669867 L540,300 L480,300 L480,306.669867 L540,306.669867 Z M540,313.333333 L540,320 L480,320 L480,313.333333 L540,313.333333 Z M540,326.666667 L540,333.333333 L480,333.333333 L480,326.666667 L540,326.666667 Z M540,346.666667 L540,340 L480,340 L480,346.666667 L540,346.666667 Z M540,353.333333 L540,360 L480,360 L480,353.333333 L540,353.333333 Z"
        transform="matrix(1 0 0 -1 0 660)" />
      <path fill="#1F242C"
        d="M300 413.330027L300 420 240 420 240 413.330027 300 413.330027zM300 393.326667L300 386.656693 240 386.656693 240 393.326667 300 393.326667zM300 373.32336L300 379.993333 240 379.993333 240 373.32336 300 373.32336zM300 360L300 366.670027 240 366.670027 240 360 300 360zM300 406.66L300 399.989973 240 399.989973 240 406.66 300 406.66zM712.733274 360L719.4 360C719.4 393.136533 692.536655 420 659.4 420L659.4 413.333333C688.856584 413.333333 712.733274 389.456533 712.733274 360zM699.399822 360L706.066548 360C706.066548 385.773333 685.17331 406.666667 659.4 406.666667L659.4 400C681.490036 400 699.399822 382.090133 699.399822 360zM692.73363 360L686.066904 360C686.066904 374.7264 674.12669 386.666667 659.4 386.666667L659.4 393.333333C677.809964 393.333333 692.73363 378.410133 692.73363 360zM672.733452 360L679.400178 360C679.400178 371.0464 670.446619 380 659.4 380L659.4 373.333333C666.763345 373.333333 672.733452 367.3632 672.733452 360zM659.4 360L666.066726 360C666.066726 363.6832 663.083274 366.666667 659.4 366.666667L659.4 360z"
        transform="matrix(1 0 0 -1 0 780)" />
      <path fill="#1F242C"
        d="M186.666726,240 L180,240 C180,206.863467 206.863345,180 240,180 L240,186.666667 C210.543416,186.666667 186.666726,210.543467 186.666726,240 Z M200.000178,240 L193.333452,240 C193.333452,214.226667 214.22669,193.333333 240,193.333333 L240,200 C217.909964,200 200.000178,217.909867 200.000178,240 Z M206.666904,240 L213.33363,240 C213.33363,225.273067 225.27331,213.333333 240,213.333333 L240,206.666667 C221.590036,206.666667 206.666904,221.589867 206.666904,240 Z M226.666548,240 L220.000356,240 C220.000356,228.953067 228.953381,220 240,220 L240,226.666667 C232.636655,226.666667 226.666548,232.6368 226.666548,240 Z M240,240 L233.333274,240 C233.333274,236.3168 236.316726,233.333333 240,233.333333 L240,240 Z"
        transform="matrix(1 0 0 -1 0 420)" />
      <path fill="#1F242C" fill-rule="nonzero" d="M120,240 L120,300 L180,300 C180,266.863467 153.136655,240 120,240 Z"
        transform="matrix(-1 0 0 1 300 0)" />
      <path fill="#1F242C" fill-rule="nonzero"
        d="M420.6,120 L480.6,120 L480.6,60 C447.463345,60 420.6,86.8634667 420.6,120 Z"
        transform="matrix(0 1 1 0 360.6 -360.6)" />
      <path fill="#1F242C"
        d="M186.669929,120 L180,120 L180,60 L186.669929,60 L186.669929,120 Z M206.67331,120 L213.343238,120 L213.343238,60 L206.67331,60 L206.67331,120 Z M226.67669,120 L220.006762,120 L220.006762,60 L226.67669,60 L226.67669,120 Z M240,120 L233.330071,120 L233.330071,60 L240,60 L240,120 Z M193.339858,120 L200.009786,120 L200.009786,60 L193.339858,60 L193.339858,120 Z"
        transform="matrix(1 0 0 -1 0 180)" />
      <path fill="#1F242C"
        d="M6.66992883,240 L3.55271368e-15,240 L3.55271368e-15,180 L6.66992883,180 L6.66992883,240 Z M26.6733096,240 L33.3432384,240 L33.3432384,180 L26.6733096,180 L26.6733096,240 Z M46.6766904,240 L40.0067616,240 L40.0067616,180 L46.6766904,180 L46.6766904,240 Z M60,240 L53.3300712,240 L53.3300712,180 L60,180 L60,240 Z M13.3398577,240 L20.0097865,240 L20.0097865,180 L13.3398577,180 L13.3398577,240 Z"
        transform="matrix(1 0 0 -1 0 420)" />
      <path fill="#4038FF"
        d="M487.269929,600 L480.6,600 L480.6,540 L487.269929,540 L487.269929,600 Z M507.27331,600 L513.943238,600 L513.943238,540 L507.27331,540 L507.27331,600 Z M527.27669,600 L520.606762,600 L520.606762,540 L527.27669,540 L527.27669,600 Z M540.6,600 L533.930071,600 L533.930071,540 L540.6,540 L540.6,600 Z M493.939858,600 L500.609786,600 L500.609786,540 L493.939858,540 L493.939858,600 Z"
        transform="matrix(1 0 0 -1 0 1140)" />
    </g>
    <g transform="translate(113 172)">
      <path fill="#FFF" stroke="#000" stroke-width="10"
        d="M59.5,-5 C80.4401014,-5 99.3975697,3.4782362 113.120184,17.1848708 C127.93063,31.9780698 136.643552,52.8612679 135.172364,75.750849 L135.172364,75.750849 L75.923071,75.750849 C77.2105854,111.454184 92.2295839,143.663596 115.862175,167.268856 C140.595295,191.973372 174.762841,207.253962 212.5,207.253962 C250.237173,207.253962 284.40473,191.973361 309.137818,167.268828 C332.770358,143.663571 347.78928,111.45417 349.076664,75.750849 L349.076664,75.750849 L289.827638,75.750849 C288.356438,52.8613061 297.06941,31.9781363 311.879853,17.1849403 C325.602511,3.47826134 344.560013,-5 365.5,-5 L365.5,-5 L430,-5 L430,70.750849 C430,130.74947 405.658099,185.062682 366.298266,224.376052 C326.940778,263.68708 272.566866,288 212.5,288 C152.433134,288 98.0592221,263.68708 58.7017341,224.376052 C19.3419007,185.062682 -5,130.74947 -5,70.750849 L-5,70.750849 L-5,-5 Z M274.166667,-7.17007477 L274.166667,71.3479862 C274.166667,91.9792686 267.46769,108.137623 258.552883,120.520667 C241.367316,144.392147 215.819621,154.094499 214.303581,154.655965 C214.25453,154.673983 201.324975,152.031484 185.866028,139.932856 C179.30058,134.794543 172.409623,128.202906 166.498661,120.011748 C157.550075,107.611183 150.833333,91.5694556 150.833333,71.3479862 L150.833333,71.3479862 L150.833333,-7.17007477 L212.5,15.5439834 L274.166667,-7.17007477 Z" />
      <path fill="#D3D8E0"
        d="M59.5,22.64 C90.6926167,22.64 117.176113,42.7789863 126.628688,70.7495074 L70.83305,70.750849 C70.8330779,78.4568034 71.4499366,86.0189747 72.6369927,93.3907857 L70.83305,93.390849 C70.8333333,171.535445 134.266,234.893962 212.5,234.893962 C290.734,234.893962 354.166667,171.535445 354.166667,93.390849 L352.3628,93.3907857 C353.549833,86.0189747 354.166667,78.4568034 354.166667,70.750849 L298.37134,70.7495074 C307.823979,42.7789863 334.307609,22.64 365.5,22.64 L425,22.64 L425,70.750849 C425,187.984723 329.873667,283 212.5,283 C95.1263333,283 0,187.984723 0,70.750849 L0,22.64 L59.5,22.64 Z M269.166667,22.64 L269.166667,71.3479862 C269.166667,120.442537 228.915662,142.644945 216.260747,148.412165 L215.423474,148.787995 C215.291675,148.846233 215.163821,148.902281 215.040018,148.956157 L214.346669,149.253468 L214.346669,149.253468 L213.50015,149.603383 L213.50015,149.603383 L212.901198,149.840402 L212.901198,149.840402 L212.567093,149.96719 L212.567093,149.96719 L212.5,149.9918 L212.089167,149.827441 L212.089167,149.827441 L211.705873,149.668325 L211.705873,149.668325 L210.913333,149.327573 L210.913333,149.327573 L210.24784,149.031403 L210.24784,149.031403 L209.478987,148.67927 C209.342533,148.615881 209.202,148.550134 209.0575,148.482014 L208.143807,148.044715 C207.983893,147.96705 207.82024,147.886986 207.65296,147.804509 L206.606667,147.280578 C192.1,139.905808 155.833333,116.912439 155.833333,71.3479862 L155.833333,22.64 L212.5,43.5123778 L269.166667,22.64 Z" />
      <path fill="#FFF"
        d="M212.5,269.793333 C112.557658,269.793333 30.3020518,193.787543 19.9804017,96.2233078 L42.2375802,96.2233078 C52.4973792,181.016577 124.814102,246.722588 212.5,246.722588 C300.185898,246.722588 372.502621,181.016577 382.76242,96.2233078 L405.019598,96.2233078 C394.697948,193.787543 312.442342,269.793333 212.5,269.793333 Z" />
      <path fill="#000"
        d="M212.5,262.246667 C112.557658,262.246667 30.3020518,186.240877 19.9804017,88.6766412 L42.2375802,88.6766412 C52.4973792,173.46991 124.814102,239.175921 212.5,239.175921 C300.185898,239.175921 372.502621,173.46991 382.76242,88.6766412 L405.019598,88.6766412 C394.697948,186.240877 312.442342,262.246667 212.5,262.246667 Z" />
      <path fill="#D3D8E0"
        d="M42.2375802,86.7866667 C47.6256701,125.509559 70.1289687,159.654767 102.985231,183.350654 C128.973057,214.282387 167.965182,233.946667 211.555556,233.946667 C253.565828,233.946667 291.305172,215.682163 317.248344,186.669548 C352.686598,162.899878 377.117471,127.355542 382.76242,86.7866667 L405.019598,86.7866667 C394.697948,171.626749 312.442342,237.72 212.5,237.72 C112.557658,237.72 30.3020518,171.626749 19.9804017,86.7866667 L42.2375802,86.7866667 Z" />
      <circle cx="364.5" cy="36.5" r="11.5" fill="#000" />
      <path fill="#000"
        d="M236.107306,103.769084 C243.409162,103.766936 249.330228,97.8519022 249.332376,90.5574861 C249.334523,83.26307 243.41694,77.3515186 236.115084,77.3536657 C236.115084,77.3536657 236.107306,103.769084 236.107306,103.769084 Z"
        transform="rotate(15 242.72 90.561)" />
      <path fill="#000"
        d="M177.556513,105.65575 C184.858369,105.653603 190.779434,99.7385689 190.781583,92.4441528 C190.78373,85.1497367 184.866147,79.2381852 177.564291,79.2403324 C177.564291,79.2403324 177.556513,105.65575 177.556513,105.65575 Z"
        transform="scale(-1 1) rotate(15 0 -1306.455)" />
      <circle cx="69.5" cy="36.5" r="11.5" fill="#000" />
    </g>
  </g>
</svg>