<?xml version="1.0" encoding="UTF-8"?>
<svg width="505px" height="470px" viewBox="0 0 505 470" version="1.1" xmlns="http://www.w3.org/2000/svg" xmlns:xlink="http://www.w3.org/1999/xlink">
    <title>481A1D8E-570C-472C-AA75-69F5A9CF5842</title>
    <g id="Hydra-Page" stroke="none" stroke-width="1" fill="none" fill-rule="evenodd">
        <g id="Hydra-Page_v2" transform="translate(-449.000000, -9509.000000)">
            <g id="Video" transform="translate(0.000000, 9201.000000)">
                <g transform="translate(120.000000, 129.000000)" id="Video_Cover">
                    <g transform="translate(329.500000, 179.000000)">
                        <g id="Group-Copy-11" transform="translate(252.000000, 235.300000) scale(1, -1) translate(-252.000000, -235.300000) translate(0.000000, 0.800000)">
                            <path d="M423.996085,264.36608 L420.004057,264.36608 L420.004057,268.35808 L423.996085,268.35808 L423.996085,272.36 L420.004057,272.36 L420.004057,276.36192 L423.996085,276.36192 L423.996085,280.35392 L427.998043,280.35392 L427.998043,284.35584 L423.996085,284.35584 L423.996085,280.36384 L420.004057,280.36384 L420.004057,284.35584 L423.996085,284.35584 L423.996085,288.36 L419.994128,288.36 L419.994128,284.35808 L416.0021,284.35808 L416.0021,280.36608 L412.000142,280.36608 L412.000142,284.35808 L407.998185,284.35808 L407.998185,280.36608 L404.006157,280.36608 L404.006157,284.35808 L407.998185,284.35808 L407.998185,288.36 L403.995907,288.36 L403.995907,284.35808 L400.004199,284.35808 L400.004199,288.36 L396,288.36 L396,284.35808 L400.001957,284.35808 L400.001957,280.36608 L396,280.36608 L396,276.36384 L400.001957,276.36384 L400.001957,272.36192 L396,272.36192 L396,268.36 L400.001957,268.36 L400.001957,264.368 L400.001957,264.35808 L403.993986,264.35808 L403.993986,260.36608 L407.995943,260.36608 L407.995943,264.35808 L411.9979,264.35808 L411.9979,260.36608 L416.000178,260.36608 L416.000178,264.35808 L419.992206,264.35808 L419.992206,260.36608 L423.994164,260.36608 L423.994164,264.35808 L427.996121,264.35808 L427.996121,268.36 L423.994164,268.36 L423.994164,264.36608 L423.996085,264.36608 Z M400.001957,264.35616 L400.001957,260.36384 L396,260.36384 L396,264.36608 L400.001957,264.36608 L400.001957,264.35616 Z M411.9979,284.35808 L411.9979,288.36 L416.000178,288.36 L416.000178,284.35808 L411.9979,284.35808 Z M423.996085,276.36384 L423.996085,272.36192 L427.998043,272.36192 L427.998043,276.36384 L423.996085,276.36384 Z M403.993986,280.35616 L400.001957,280.35616 L400.001957,276.36384 L403.993986,276.36384 L403.993986,280.35616 Z M404.003915,260.36384 L404.003915,256.36192 L407.995943,256.36192 L407.995943,260.36384 L411.9979,260.36384 L411.9979,256.36192 L416.000178,256.36192 L416.000178,260.36384 L420.002135,260.36384 L420.002135,256.36192 L423.994164,256.36192 L423.994164,260.36384 L427.996121,260.36384 L427.996121,256.36192 L423.994164,256.36192 L423.994164,252.36 L419.992206,252.36 L419.992206,256.36192 L416.000178,256.36192 L416.000178,252.36 L411.9979,252.36 L411.9979,256.36192 L407.995943,256.36192 L407.995943,252.36 L403.993986,252.36 L403.993986,256.36192 L400.001957,256.36192 L400.001957,252.36 L396,252.36 L396,256.36192 L400.001957,256.36192 L400.001957,260.36384 L404.003915,260.36384 Z M419.992206,268.35808 L419.992206,272.36 L416.000178,272.36 L416.000178,268.35808 L419.992206,268.35808 Z M411.9979,268.35808 L411.9979,264.36608 L416.000178,264.36608 L416.000178,268.35808 L411.9979,268.35808 Z M407.995943,268.35808 L411.9979,268.35808 L411.9979,272.36 L407.995943,272.36 L407.995943,268.35808 Z M407.995943,268.35808 L404.003915,268.35808 L404.003915,264.36608 L407.995943,264.36608 L407.995943,268.35808 Z M407.995943,276.36384 L404.003915,276.36384 L404.003915,272.36192 L407.995943,272.36192 L407.995943,276.36384 Z M411.9979,276.36384 L411.9979,280.35616 L407.995943,280.35616 L407.995943,276.36384 L411.9979,276.36384 Z M416.0021,276.36384 L412.000142,276.36384 L412.000142,272.36192 L416.0021,272.36192 L416.0021,276.36384 Z M416.0021,276.36384 L419.994128,276.36384 L419.994128,280.35616 L416.0021,280.35616 L416.0021,276.36384 Z M403.993986,272.36192 L403.993986,268.36 L400.001957,268.36 L400.001957,272.36192 L403.993986,272.36192 Z M432,284.35808 L427.998043,284.35808 L427.998043,288.36 L432,288.36 L432,284.35808 Z M427.998043,276.36384 L432,276.36384 L432,280.36608 L427.998043,280.36608 L427.998043,276.36384 Z M432,268.35808 L427.998043,268.35808 L427.998043,272.36 L432,272.36 L432,268.35808 Z M427.998043,260.36384 L432,260.36384 L432,264.36608 L427.998043,264.36608 L427.998043,260.36384 Z M427.998043,252.36 L432,252.36 L432,256.36192 L427.998043,256.36192 L427.998043,252.36 Z" id="Shape-Copy-10" fill="#1F242C"></path>
                            <path d="M171.996085,408.80608 L168.004057,408.80608 L168.004057,412.79808 L171.996085,412.79808 L171.996085,416.8 L168.004057,416.8 L168.004057,420.80192 L171.996085,420.80192 L171.996085,424.79392 L175.998043,424.79392 L175.998043,428.79584 L171.996085,428.79584 L171.996085,424.80384 L168.004057,424.80384 L168.004057,428.79584 L171.996085,428.79584 L171.996085,432.8 L167.994128,432.8 L167.994128,428.79808 L164.0021,428.79808 L164.0021,424.80608 L160.000142,424.80608 L160.000142,428.79808 L155.998185,428.79808 L155.998185,424.80608 L152.006157,424.80608 L152.006157,428.79808 L155.998185,428.79808 L155.998185,432.8 L151.995907,432.8 L151.995907,428.79808 L148.004199,428.79808 L148.004199,432.8 L144,432.8 L144,428.79808 L148.001957,428.79808 L148.001957,424.80608 L144,424.80608 L144,420.80384 L148.001957,420.80384 L148.001957,416.80192 L144,416.80192 L144,412.8 L148.001957,412.8 L148.001957,408.808 L148.001957,408.79808 L151.993986,408.79808 L151.993986,404.80608 L155.995943,404.80608 L155.995943,408.79808 L159.9979,408.79808 L159.9979,404.80608 L164.000178,404.80608 L164.000178,408.79808 L167.992206,408.79808 L167.992206,404.80608 L171.994164,404.80608 L171.994164,408.79808 L175.996121,408.79808 L175.996121,412.8 L171.994164,412.8 L171.994164,408.80608 L171.996085,408.80608 Z M148.001957,408.79616 L148.001957,404.80384 L144,404.80384 L144,408.80608 L148.001957,408.80608 L148.001957,408.79616 Z M159.9979,428.79808 L159.9979,432.8 L164.000178,432.8 L164.000178,428.79808 L159.9979,428.79808 Z M171.996085,420.80384 L171.996085,416.80192 L175.998043,416.80192 L175.998043,420.80384 L171.996085,420.80384 Z M151.993986,424.79616 L148.001957,424.79616 L148.001957,420.80384 L151.993986,420.80384 L151.993986,424.79616 Z M152.003915,404.80384 L152.003915,400.80192 L155.995943,400.80192 L155.995943,404.80384 L159.9979,404.80384 L159.9979,400.80192 L164.000178,400.80192 L164.000178,404.80384 L168.002135,404.80384 L168.002135,400.80192 L171.994164,400.80192 L171.994164,404.80384 L175.996121,404.80384 L175.996121,400.80192 L171.994164,400.80192 L171.994164,396.8 L167.992206,396.8 L167.992206,400.80192 L164.000178,400.80192 L164.000178,396.8 L159.9979,396.8 L159.9979,400.80192 L155.995943,400.80192 L155.995943,396.8 L151.993986,396.8 L151.993986,400.80192 L148.001957,400.80192 L148.001957,396.8 L144,396.8 L144,400.80192 L148.001957,400.80192 L148.001957,404.80384 L152.003915,404.80384 Z M167.992206,412.79808 L167.992206,416.8 L164.000178,416.8 L164.000178,412.79808 L167.992206,412.79808 Z M159.9979,412.79808 L159.9979,408.80608 L164.000178,408.80608 L164.000178,412.79808 L159.9979,412.79808 Z M155.995943,412.79808 L159.9979,412.79808 L159.9979,416.8 L155.995943,416.8 L155.995943,412.79808 Z M155.995943,412.79808 L152.003915,412.79808 L152.003915,408.80608 L155.995943,408.80608 L155.995943,412.79808 Z M155.995943,420.80384 L152.003915,420.80384 L152.003915,416.80192 L155.995943,416.80192 L155.995943,420.80384 Z M159.9979,420.80384 L159.9979,424.79616 L155.995943,424.79616 L155.995943,420.80384 L159.9979,420.80384 Z M164.0021,420.80384 L160.000142,420.80384 L160.000142,416.80192 L164.0021,416.80192 L164.0021,420.80384 Z M164.0021,420.80384 L167.994128,420.80384 L167.994128,424.79616 L164.0021,424.79616 L164.0021,420.80384 Z M151.993986,416.80192 L151.993986,412.8 L148.001957,412.8 L148.001957,416.80192 L151.993986,416.80192 Z M180,428.79808 L175.998043,428.79808 L175.998043,432.8 L180,432.8 L180,428.79808 Z M175.998043,420.80384 L180,420.80384 L180,424.80608 L175.998043,424.80608 L175.998043,420.80384 Z M180,412.79808 L175.998043,412.79808 L175.998043,416.8 L180,416.8 L180,412.79808 Z M175.998043,404.80384 L180,404.80384 L180,408.80608 L175.998043,408.80608 L175.998043,404.80384 Z M175.998043,396.8 L180,396.8 L180,400.80192 L175.998043,400.80192 L175.998043,396.8 Z" id="Shape-Copy-5" fill="#00DBB0"></path>
                            <path d="M283.998043,468.8 L288,468.8 L288,432.8 L283.998043,432.8 L283.998043,468.8 Z M279.999929,468.8 L275.999893,468.8 L275.999893,432.8 L279.999929,432.8 L279.999929,468.8 Z M272.000178,468.8 L268.000142,468.8 L268.000142,432.8 L272.000178,432.8 L272.000178,468.8 Z M260.000071,468.8 L264.000107,468.8 L264.000107,432.8 L260.000071,432.8 L260.000071,468.8 Z M256.000036,468.8 L252,468.8 L252,432.8 L256.000036,432.8 L256.000036,468.8 Z" id="Shape" fill="#1F242C"></path>
                            <path d="M290.819657,36.8 L288,36.8 L288,33.98 L321.179657,0.8 L324,0.8 L324,3.62 L290.819657,36.8 Z M315.519771,0.8 L309.859886,0.8 L288,22.6599543 L288,28.3199771 L315.519771,0.8 Z M304.2,0.8 L298.540114,0.8 L288,11.3399771 L288,17 L304.2,0.8 Z M288,0.8 L288,5.67999543 L292.879543,0.8 L288,0.8 Z M324,14.9399771 L324,9.28002286 L296.479543,36.8 L302.140114,36.8 L324,14.9399771 Z M324,26.2599543 L324,20.6 L307.8,36.8 L313.459886,36.8 L324,26.2599543 Z M324,31.9199771 L319.119771,36.8 L324,36.8 L324,31.9199771 Z" id="Shape-Copy-13" fill="#4038FF" fill-rule="nonzero"></path>
                            <path d="M504,364.80192 L504,360.8 L468,360.8 L468,364.80192 L504,364.80192 Z M504,368.8 L504,372.8 L468,372.8 L468,368.8 L504,368.8 Z M504,376.8 L504,380.8 L468,380.8 L468,376.8 L504,376.8 Z M504,388.8 L504,384.8 L468,384.8 L468,388.8 L504,388.8 Z M504,392.8 L504,396.8 L468,396.8 L468,392.8 L504,392.8 Z" id="Shape-Copy-7" fill="#FFFFFF"></path>
                            <path d="M144,140.798016 L144,144.8 L108,144.8 L108,140.798016 L144,140.798016 Z M144,128.796 L144,124.794016 L108,124.794016 L108,128.796 L144,128.796 Z M144,116.794016 L144,120.796 L108,120.796 L108,116.794016 L144,116.794016 Z M144,108.8 L144,112.802016 L108,112.802016 L108,108.8 L144,108.8 Z M144,136.796 L144,132.793984 L108,132.793984 L108,136.796 L144,136.796 Z" id="Shape" fill="#1F242C" transform="translate(126.000000, 126.800000) rotate(-270.000000) translate(-126.000000, -126.800000) "></path>
                            <path d="M499.639964,180.36 L503.64,180.36 C503.64,200.24192 487.521993,216.36 467.64,216.36 L467.64,212.36 C485.31395,212.36 499.639964,198.03392 499.639964,180.36 Z M491.639893,180.36 L495.639929,180.36 C495.639929,195.824 483.103986,208.36 467.64,208.36 L467.64,204.36 C480.894021,204.36 491.639893,193.61408 491.639893,180.36 Z M487.640178,180.36 L483.640142,180.36 C483.640142,189.19584 476.476014,196.36 467.64,196.36 L467.64,200.36 C478.685979,200.36 487.640178,191.40608 487.640178,180.36 Z M475.640071,180.36 L479.640107,180.36 C479.640107,186.98784 474.267972,192.36 467.64,192.36 L467.64,188.36 C472.058007,188.36 475.640071,184.77792 475.640071,180.36 Z M467.64,180.36 L471.640036,180.36 C471.640036,182.56992 469.849964,184.36 467.64,184.36 L467.64,180.36 Z" id="Shape-Copy-8" fill="#1F242C"></path>
                            <path d="M4.00003559,396.8 L0,396.8 C0,376.91808 16.1180071,360.8 36,360.8 L36,364.8 C18.3260498,364.8 4.00003559,379.12608 4.00003559,396.8 Z M12.0001068,396.8 L8.00007117,396.8 C8.00007117,381.336 20.5360142,368.8 36,368.8 L36,372.8 C22.7459786,372.8 12.0001068,383.54592 12.0001068,396.8 Z M16.0001423,396.8 L20.0001779,396.8 C20.0001779,387.96384 27.1639858,380.8 36,380.8 L36,376.8 C24.9540214,376.8 16.0001423,385.75392 16.0001423,396.8 Z M27.9999288,396.8 L24.0002135,396.8 C24.0002135,390.17184 29.3720285,384.8 36,384.8 L36,388.8 C31.5819929,388.8 27.9999288,392.38208 27.9999288,396.8 Z M36,396.8 L31.9999644,396.8 C31.9999644,394.59008 33.7900356,392.8 36,392.8 L36,396.8 Z" id="Shape" fill="#FFFFFF" transform="translate(18.000000, 378.800000) rotate(-360.000000) translate(-18.000000, -378.800000) "></path>
                            <path d="M36,252.36 L36,288.36 L72,288.36 C72,268.47808 55.8819929,252.36 36,252.36 Z" id="Path" fill="#4038FF" fill-rule="nonzero" transform="translate(54.000000, 270.360000) rotate(-180.000000) translate(-54.000000, -270.360000) "></path>
                            <path d="M360,396.36 L396,396.36 L396,360.36 C376.118007,360.36 360,376.47808 360,396.36 Z" id="Path-Copy-2" fill="#1F242C" fill-rule="nonzero" transform="translate(378.000000, 378.360000) rotate(-90.000000) translate(-378.000000, -378.360000) "></path>
                            <path d="M76.0019573,324.36 L72,324.36 L72,288.36 L76.0019573,288.36 L76.0019573,324.36 Z M88.0039858,324.36 L92.0059431,324.36 L92.0059431,288.36 L88.0039858,288.36 L88.0039858,324.36 Z M100.006014,324.36 L96.0040569,324.36 L96.0040569,288.36 L100.006014,288.36 L100.006014,324.36 Z M108,324.36 L103.998043,324.36 L103.998043,288.36 L108,288.36 L108,324.36 Z M80.0039146,324.36 L84.0058719,324.36 L84.0058719,288.36 L80.0039146,288.36 L80.0039146,324.36 Z" id="Shape-Copy" fill="#1F242C"></path>
                            <path d="M400.001957,108 L396,108 L396,72 L400.001957,72 L400.001957,108 Z M412.003986,108 L416.005943,108 L416.005943,72 L412.003986,72 L412.003986,108 Z M424.006014,108 L420.004057,108 L420.004057,72 L424.006014,72 L424.006014,108 Z M432,108 L427.998043,108 L427.998043,72 L432,72 L432,108 Z M404.003915,108 L408.005872,108 L408.005872,72 L404.003915,72 L404.003915,108 Z" id="Shape-Copy-9" fill="#1F242C"></path>
                        </g>
                        <g id="Hydra-Logo" transform="translate(145.000000, 130.000000)">
                            <path d="M97.92,24 L77.759904,24 C77.76,50.508096 99.25248,72.00048 125.76,72.00048 C152.26752,72.00048 173.76,50.508096 173.76,24 L153.6,24 C153.6,10.745184 164.34528,0 177.6,0 L197.76,0 L197.76,24 C197.76,63.767904 165.52896,95.998848 125.76,95.998848 C85.99104,95.998848 53.76,63.767904 53.76,24 L53.76,0 L73.92,0 C87.174816,0 97.92,10.745184 97.92,24 Z M125.76,50.88 C125.76,50.88 106.56,43.522944 106.56,24.20256 L106.56,0 L125.76,7.0802976 L144.96,0 L144.96,24.20256 C144.96,43.962624 125.76,50.88 125.76,50.88 Z" id="Shape" fill="#4038FF"></path>
                            <polygon id="Path" fill="#FFFFFF" fill-rule="nonzero" points="0 174.72 13.031232 174.72 13.031232 155.97024 30.28128 155.97024 30.28128 174.72 43.312512 174.72 43.312512 126.72 30.28128 126.72 30.28128 145.46976 13.031232 145.46976 13.031232 126.72 0 126.72"></polygon>
                            <polygon id="Path" fill="#FFFFFF" fill-rule="nonzero" points="50.171232 126.72 67.796256 159.62592 67.796256 174.72 80.733792 174.72 80.733792 159.62592 98.35872 126.72 83.827488 126.72 74.452512 146.22048 74.077536 146.22048 64.702464 126.72"></polygon>
                            <path d="M123.7152,174.72 C138.3408,174.72 147.62208,165.72 147.62208,150.72 C147.62208,135.72 138.3408,126.72 123.528,126.72 L105.24672,126.72 L105.24672,174.72 L123.7152,174.72 Z M118.27776,163.65792 L118.27776,137.78208 L122.87136,137.78208 C130.37184,137.78208 134.49696,140.68896 134.49696,150.72 C134.49696,160.75104 130.37184,163.65792 123.24672,163.65792 L118.27776,163.65792 Z" id="Shape" fill="#FFFFFF" fill-rule="nonzero"></path>
                            <path d="M156.29088,174.72 L169.32192,174.72 L169.32192,158.87616 L173.8224,158.87616 L182.25984,174.72 L196.416,174.72 L186.66624,156.81408 C191.77536,154.35264 194.8224,149.68896 194.8224,143.03232 C194.8224,132.81408 187.67424,126.72 177.0096,126.72 L156.29088,126.72 L156.29088,174.72 Z M169.32192,148.75104 L169.32192,137.1264 L173.91648,137.1264 C178.48608,137.1264 181.2288,138.9072 181.2288,143.03232 C181.2288,147.1344 178.48608,148.75104 173.91648,148.75104 L169.32192,148.75104 Z" id="Shape" fill="#FFFFFF" fill-rule="nonzero"></path>
                            <path d="M215.48544,174.72 L218.2512,165.5328 L234.09504,165.5328 L236.8608,174.72 L250.92288,174.72 L235.07904,126.72 L217.2672,126.72 L201.42336,174.72 L215.48544,174.72 Z M221.20416,155.78208 L225.98592,139.9392 L226.36032,139.9392 L231.14208,155.78208 L221.20416,155.78208 Z" id="Shape" fill="#FFFFFF" fill-rule="nonzero"></path>
                        </g>
                    </g>
                </g>
            </g>
        </g>
    </g>
</svg>