<?xml version="1.0" encoding="UTF-8"?>
<svg width="381px" height="762px" viewBox="0 0 381 762" version="1.1" xmlns="http://www.w3.org/2000/svg" xmlns:xlink="http://www.w3.org/1999/xlink">
    <title>92802606-EF82-4A39-AC87-5312169793D0</title>
    <g id="Joystream-Token-Information-Page" stroke="none" stroke-width="1" fill="none" fill-rule="evenodd">
        <g id="Hydra-Page_v2" transform="translate(-222.000000, -2637.000000)" fill="#F2F5F9">
            <g id="Group-27-Copy-2" transform="translate(412.500000, 3018.000000) scale(-1, 1) translate(-412.500000, -3018.000000) translate(222.000000, 2637.000000)">
                <g id="Group-Copy-11" transform="translate(190.500000, 381.000000) scale(1, -1) rotate(-180.000000) translate(-190.500000, -381.000000) ">
                    <path d="M244.627816,474.21272 L239.95335,474.21272 L239.95335,478.887152 L244.627816,478.887152 L244.627816,483.5732 L239.95335,483.5732 L239.95335,488.259249 L244.627816,488.259249 L244.627816,492.933681 L249.313908,492.933681 L249.313908,497.619729 L244.627816,497.619729 L244.627816,492.945297 L239.95335,492.945297 L239.95335,497.619729 L244.627816,497.619729 L244.627816,502.3084 L239.941724,502.3084 L239.941724,497.622352 L235.267258,497.622352 L235.267258,492.94792 L230.581167,492.94792 L230.581167,497.622352 L225.895075,497.622352 L225.895075,492.94792 L221.220609,492.94792 L221.220609,497.622352 L225.895075,497.622352 L225.895075,502.3084 L221.208608,502.3084 L221.208608,497.622352 L216.534517,497.622352 L216.534517,502.3084 L211.8458,502.3084 L211.8458,497.622352 L216.531892,497.622352 L216.531892,492.94792 L211.8458,492.94792 L211.8458,488.261497 L216.531892,488.261497 L216.531892,483.575449 L211.8458,483.575449 L211.8458,478.8894 L216.531892,478.8894 L216.531892,474.214968 L216.531892,474.203352 L221.206357,474.203352 L221.206357,469.52892 L225.892449,469.52892 L225.892449,474.203352 L230.578541,474.203352 L230.578541,469.52892 L235.265008,469.52892 L235.265008,474.203352 L239.939474,474.203352 L239.939474,469.52892 L244.625566,469.52892 L244.625566,474.203352 L249.311658,474.203352 L249.311658,478.8894 L244.625566,478.8894 L244.625566,474.21272 L244.627816,474.21272 Z M216.531892,474.201104 L216.531892,469.526297 L211.8458,469.526297 L211.8458,474.21272 L216.531892,474.21272 L216.531892,474.201104 Z M230.578541,497.622352 L230.578541,502.3084 L235.265008,502.3084 L235.265008,497.622352 L230.578541,497.622352 Z M244.627816,488.261497 L244.627816,483.575449 L249.313908,483.575449 L249.313908,488.261497 L244.627816,488.261497 Z M221.206357,492.936304 L216.531892,492.936304 L216.531892,488.261497 L221.206357,488.261497 L221.206357,492.936304 Z M221.217984,469.526297 L221.217984,464.840248 L225.892449,464.840248 L225.892449,469.526297 L230.578541,469.526297 L230.578541,464.840248 L235.265008,464.840248 L235.265008,469.526297 L239.9511,469.526297 L239.9511,464.840248 L244.625566,464.840248 L244.625566,469.526297 L249.311658,469.526297 L249.311658,464.840248 L244.625566,464.840248 L244.625566,460.1542 L239.939474,460.1542 L239.939474,464.840248 L235.265008,464.840248 L235.265008,460.1542 L230.578541,460.1542 L230.578541,464.840248 L225.892449,464.840248 L225.892449,460.1542 L221.206357,460.1542 L221.206357,464.840248 L216.531892,464.840248 L216.531892,460.1542 L211.8458,460.1542 L211.8458,464.840248 L216.531892,464.840248 L216.531892,469.526297 L221.217984,469.526297 Z M239.939474,478.887152 L239.939474,483.5732 L235.265008,483.5732 L235.265008,478.887152 L239.939474,478.887152 Z M230.578541,478.887152 L230.578541,474.21272 L235.265008,474.21272 L235.265008,478.887152 L230.578541,478.887152 Z M225.892449,478.887152 L230.578541,478.887152 L230.578541,483.5732 L225.892449,483.5732 L225.892449,478.887152 Z M225.892449,478.887152 L221.217984,478.887152 L221.217984,474.21272 L225.892449,474.21272 L225.892449,478.887152 Z M225.892449,488.261497 L221.217984,488.261497 L221.217984,483.575449 L225.892449,483.575449 L225.892449,488.261497 Z M230.578541,488.261497 L230.578541,492.936304 L225.892449,492.936304 L225.892449,488.261497 L230.578541,488.261497 Z M235.267258,488.261497 L230.581167,488.261497 L230.581167,483.575449 L235.267258,483.575449 L235.267258,488.261497 Z M235.267258,488.261497 L239.941724,488.261497 L239.941724,492.936304 L235.267258,492.936304 L235.267258,488.261497 Z M221.206357,483.575449 L221.206357,478.8894 L216.531892,478.8894 L216.531892,483.575449 L221.206357,483.575449 Z M254,497.622352 L249.313908,497.622352 L249.313908,502.3084 L254,502.3084 L254,497.622352 Z M249.313908,488.261497 L254,488.261497 L254,492.94792 L249.313908,492.94792 L249.313908,488.261497 Z M254,478.887152 L249.313908,478.887152 L249.313908,483.5732 L254,483.5732 L254,478.887152 Z M249.313908,469.526297 L254,469.526297 L254,474.21272 L249.313908,474.21272 L249.313908,469.526297 Z M249.313908,460.1542 L254,460.1542 L254,464.840248 L249.313908,464.840248 L249.313908,460.1542 Z" id="Shape-Copy-10" transform="translate(232.922900, 481.231300) scale(-1, 1) translate(-232.922900, -481.231300) "></path>
                    <path d="M33.3942143,14.0585195 L28.7197486,14.0585195 L28.7197486,18.7329519 L33.3942143,18.7329519 L33.3942143,23.4190001 L28.7197486,23.4190001 L28.7197486,28.1050484 L33.3942143,28.1050484 L33.3942143,32.7794808 L38.0803062,32.7794808 L38.0803062,37.4655291 L33.3942143,37.4655291 L33.3942143,32.7910966 L28.7197486,32.7910966 L28.7197486,37.4655291 L33.3942143,37.4655291 L33.3942143,42.1542002 L28.7081224,42.1542002 L28.7081224,37.468152 L24.0336566,37.468152 L24.0336566,32.7937196 L19.3475647,32.7937196 L19.3475647,37.468152 L14.6614728,37.468152 L14.6614728,32.7937196 L9.98700703,32.7937196 L9.98700703,37.468152 L14.6614728,37.468152 L14.6614728,42.1542002 L9.97500584,42.1542002 L9.97500584,37.468152 L5.30091511,37.468152 L5.30091511,42.1542002 L0.612197929,42.1542002 L0.612197929,37.468152 L5.29828985,37.468152 L5.29828985,32.7937196 L0.612197929,32.7937196 L0.612197929,28.1072966 L5.29828985,28.1072966 L5.29828985,23.4212484 L0.612197929,23.4212484 L0.612197929,18.7352001 L5.29828985,18.7352001 L5.29828985,14.0607677 L5.29828985,14.0491519 L9.97275561,14.0491519 L9.97275561,9.37471943 L14.6588475,9.37471943 L14.6588475,14.0491519 L19.3449395,14.0491519 L19.3449395,9.37471943 L24.0314064,9.37471943 L24.0314064,14.0491519 L28.7058722,14.0491519 L28.7058722,9.37471943 L33.3919641,9.37471943 L33.3919641,14.0491519 L38.078056,14.0491519 L38.078056,18.7352001 L33.3919641,18.7352001 L33.3919641,14.0585195 L33.3942143,14.0585195 Z M5.29828985,14.0469036 L5.29828985,9.3720965 L0.612197929,9.3720965 L0.612197929,14.0585195 L5.29828985,14.0585195 L5.29828985,14.0469036 Z M19.3449395,37.468152 L19.3449395,42.1542002 L24.0314064,42.1542002 L24.0314064,37.468152 L19.3449395,37.468152 Z M33.3942143,28.1072966 L33.3942143,23.4212484 L38.0803062,23.4212484 L38.0803062,28.1072966 L33.3942143,28.1072966 Z M9.97275561,32.7821037 L5.29828985,32.7821037 L5.29828985,28.1072966 L9.97275561,28.1072966 L9.97275561,32.7821037 Z M9.98438177,9.3720965 L9.98438177,4.68604825 L14.6588475,4.68604825 L14.6588475,9.3720965 L19.3449395,9.3720965 L19.3449395,4.68604825 L24.0314064,4.68604825 L24.0314064,9.3720965 L28.7174983,9.3720965 L28.7174983,4.68604825 L33.3919641,4.68604825 L33.3919641,9.3720965 L38.078056,9.3720965 L38.078056,4.68604825 L33.3919641,4.68604825 L33.3919641,3.55271368e-15 L28.7058722,3.55271368e-15 L28.7058722,4.68604825 L24.0314064,4.68604825 L24.0314064,3.55271368e-15 L19.3449395,3.55271368e-15 L19.3449395,4.68604825 L14.6588475,4.68604825 L14.6588475,3.55271368e-15 L9.97275561,3.55271368e-15 L9.97275561,4.68604825 L5.29828985,4.68604825 L5.29828985,3.55271368e-15 L0.612197929,3.55271368e-15 L0.612197929,4.68604825 L5.29828985,4.68604825 L5.29828985,9.3720965 L9.98438177,9.3720965 Z M28.7058722,18.7329519 L28.7058722,23.4190001 L24.0314064,23.4190001 L24.0314064,18.7329519 L28.7058722,18.7329519 Z M19.3449395,18.7329519 L19.3449395,14.0585195 L24.0314064,14.0585195 L24.0314064,18.7329519 L19.3449395,18.7329519 Z M14.6588475,18.7329519 L19.3449395,18.7329519 L19.3449395,23.4190001 L14.6588475,23.4190001 L14.6588475,18.7329519 Z M14.6588475,18.7329519 L9.98438177,18.7329519 L9.98438177,14.0585195 L14.6588475,14.0585195 L14.6588475,18.7329519 Z M14.6588475,28.1072966 L9.98438177,28.1072966 L9.98438177,23.4212484 L14.6588475,23.4212484 L14.6588475,28.1072966 Z M19.3449395,28.1072966 L19.3449395,32.7821037 L14.6588475,32.7821037 L14.6588475,28.1072966 L19.3449395,28.1072966 Z M24.0336566,28.1072966 L19.3475647,28.1072966 L19.3475647,23.4212484 L24.0336566,23.4212484 L24.0336566,28.1072966 Z M24.0336566,28.1072966 L28.7081224,28.1072966 L28.7081224,32.7821037 L24.0336566,32.7821037 L24.0336566,28.1072966 Z M9.97275561,23.4212484 L9.97275561,18.7352001 L5.29828985,18.7352001 L5.29828985,23.4212484 L9.97275561,23.4212484 Z M42.7663982,37.468152 L38.0803062,37.468152 L38.0803062,42.1542002 L42.7663982,42.1542002 L42.7663982,37.468152 Z M38.0803062,28.1072966 L42.7663982,28.1072966 L42.7663982,32.7937196 L38.0803062,32.7937196 L38.0803062,28.1072966 Z M42.7663982,18.7329519 L38.0803062,18.7329519 L38.0803062,23.4190001 L42.7663982,23.4190001 L42.7663982,18.7329519 Z M38.0803062,9.3720965 L42.7663982,9.3720965 L42.7663982,14.0585195 L38.0803062,14.0585195 L38.0803062,9.3720965 Z M38.0803062,3.55271368e-15 L42.7663982,3.55271368e-15 L42.7663982,4.68604825 L38.0803062,4.68604825 L38.0803062,3.55271368e-15 Z" id="Shape-Copy-5"></path>
                    <path d="M33.3942143,607.058519 L28.7197486,607.058519 L28.7197486,611.732952 L33.3942143,611.732952 L33.3942143,616.419 L28.7197486,616.419 L28.7197486,621.105048 L33.3942143,621.105048 L33.3942143,625.779481 L38.0803062,625.779481 L38.0803062,630.465529 L33.3942143,630.465529 L33.3942143,625.791097 L28.7197486,625.791097 L28.7197486,630.465529 L33.3942143,630.465529 L33.3942143,635.1542 L28.7081224,635.1542 L28.7081224,630.468152 L24.0336566,630.468152 L24.0336566,625.79372 L19.3475647,625.79372 L19.3475647,630.468152 L14.6614728,630.468152 L14.6614728,625.79372 L9.98700703,625.79372 L9.98700703,630.468152 L14.6614728,630.468152 L14.6614728,635.1542 L9.97500584,635.1542 L9.97500584,630.468152 L5.30091511,630.468152 L5.30091511,635.1542 L0.612197929,635.1542 L0.612197929,630.468152 L5.29828985,630.468152 L5.29828985,625.79372 L0.612197929,625.79372 L0.612197929,621.107297 L5.29828985,621.107297 L5.29828985,616.421248 L0.612197929,616.421248 L0.612197929,611.7352 L5.29828985,611.7352 L5.29828985,607.060768 L5.29828985,607.049152 L9.97275561,607.049152 L9.97275561,602.374719 L14.6588475,602.374719 L14.6588475,607.049152 L19.3449395,607.049152 L19.3449395,602.374719 L24.0314064,602.374719 L24.0314064,607.049152 L28.7058722,607.049152 L28.7058722,602.374719 L33.3919641,602.374719 L33.3919641,607.049152 L38.078056,607.049152 L38.078056,611.7352 L33.3919641,611.7352 L33.3919641,607.058519 L33.3942143,607.058519 Z M5.29828985,607.046904 L5.29828985,602.372096 L0.612197929,602.372096 L0.612197929,607.058519 L5.29828985,607.058519 L5.29828985,607.046904 Z M19.3449395,630.468152 L19.3449395,635.1542 L24.0314064,635.1542 L24.0314064,630.468152 L19.3449395,630.468152 Z M33.3942143,621.107297 L33.3942143,616.421248 L38.0803062,616.421248 L38.0803062,621.107297 L33.3942143,621.107297 Z M9.97275561,625.782104 L5.29828985,625.782104 L5.29828985,621.107297 L9.97275561,621.107297 L9.97275561,625.782104 Z M9.98438177,602.372096 L9.98438177,597.686048 L14.6588475,597.686048 L14.6588475,602.372096 L19.3449395,602.372096 L19.3449395,597.686048 L24.0314064,597.686048 L24.0314064,602.372096 L28.7174983,602.372096 L28.7174983,597.686048 L33.3919641,597.686048 L33.3919641,602.372096 L38.078056,602.372096 L38.078056,597.686048 L33.3919641,597.686048 L33.3919641,593 L28.7058722,593 L28.7058722,597.686048 L24.0314064,597.686048 L24.0314064,593 L19.3449395,593 L19.3449395,597.686048 L14.6588475,597.686048 L14.6588475,593 L9.97275561,593 L9.97275561,597.686048 L5.29828985,597.686048 L5.29828985,593 L0.612197929,593 L0.612197929,597.686048 L5.29828985,597.686048 L5.29828985,602.372096 L9.98438177,602.372096 Z M28.7058722,611.732952 L28.7058722,616.419 L24.0314064,616.419 L24.0314064,611.732952 L28.7058722,611.732952 Z M19.3449395,611.732952 L19.3449395,607.058519 L24.0314064,607.058519 L24.0314064,611.732952 L19.3449395,611.732952 Z M14.6588475,611.732952 L19.3449395,611.732952 L19.3449395,616.419 L14.6588475,616.419 L14.6588475,611.732952 Z M14.6588475,611.732952 L9.98438177,611.732952 L9.98438177,607.058519 L14.6588475,607.058519 L14.6588475,611.732952 Z M14.6588475,621.107297 L9.98438177,621.107297 L9.98438177,616.421248 L14.6588475,616.421248 L14.6588475,621.107297 Z M19.3449395,621.107297 L19.3449395,625.782104 L14.6588475,625.782104 L14.6588475,621.107297 L19.3449395,621.107297 Z M24.0336566,621.107297 L19.3475647,621.107297 L19.3475647,616.421248 L24.0336566,616.421248 L24.0336566,621.107297 Z M24.0336566,621.107297 L28.7081224,621.107297 L28.7081224,625.782104 L24.0336566,625.782104 L24.0336566,621.107297 Z M9.97275561,616.421248 L9.97275561,611.7352 L5.29828985,611.7352 L5.29828985,616.421248 L9.97275561,616.421248 Z M42.7663982,630.468152 L38.0803062,630.468152 L38.0803062,635.1542 L42.7663982,635.1542 L42.7663982,630.468152 Z M38.0803062,621.107297 L42.7663982,621.107297 L42.7663982,625.79372 L38.0803062,625.79372 L38.0803062,621.107297 Z M42.7663982,611.732952 L38.0803062,611.732952 L38.0803062,616.419 L42.7663982,616.419 L42.7663982,611.732952 Z M38.0803062,602.372096 L42.7663982,602.372096 L42.7663982,607.058519 L38.0803062,607.058519 L38.0803062,602.372096 Z M38.0803062,593 L42.7663982,593 L42.7663982,597.686048 L38.0803062,597.686048 L38.0803062,593 Z" id="Shape-Copy-6"></path>
                    <path d="M80.4681083,460.1542 L85.1542002,460.1542 L85.1542002,418 L80.4681083,418 L80.4681083,460.1542 Z M75.7865168,460.1542 L71.1026751,460.1542 L71.1026751,418 L75.7865168,418 L75.7865168,460.1542 Z M66.4192085,460.1542 L61.7353668,460.1542 L61.7353668,418 L66.4192085,418 L66.4192085,460.1542 Z M52.3676834,460.1542 L57.0515251,460.1542 L57.0515251,418 L52.3676834,418 L52.3676834,460.1542 Z M47.6838417,460.1542 L43,460.1542 L43,418 L47.6838417,418 L47.6838417,460.1542 Z" id="Shape" transform="translate(64.077100, 439.077100) scale(-1, 1) translate(-64.077100, -439.077100) "></path>
                    <path d="M170.1542,338.686048 L170.1542,334 L128,334 L128,338.686048 L170.1542,338.686048 Z M170.1542,343.3676 L170.1542,348.0514 L128,348.0514 L128,343.3676 L170.1542,343.3676 Z M170.1542,352.7352 L170.1542,357.419 L128,357.419 L128,352.7352 L170.1542,352.7352 Z M170.1542,366.7866 L170.1542,362.1028 L128,362.1028 L128,366.7866 L170.1542,366.7866 Z M170.1542,371.4704 L170.1542,376.1542 L128,376.1542 L128,371.4704 L170.1542,371.4704 Z" id="Shape"></path>
                    <path d="M127.074799,88.7134207 L127.074799,84.0273725 L84.9205984,84.0273725 L84.9205984,88.7134207 L127.074799,88.7134207 Z M127.074799,93.3949725 L127.074799,98.0787725 L84.9205984,98.0787725 L84.9205984,93.3949725 L127.074799,93.3949725 Z M127.074799,102.762573 L127.074799,107.446373 L84.9205984,107.446373 L84.9205984,102.762573 L127.074799,102.762573 Z M127.074799,116.813973 L127.074799,112.130173 L84.9205984,112.130173 L84.9205984,116.813973 L127.074799,116.813973 Z M127.074799,121.497773 L127.074799,126.181573 L84.9205984,126.181573 L84.9205984,121.497773 L127.074799,121.497773 Z" id="Shape-Copy-12"></path>
                    <path d="M127.074799,681.713421 L127.074799,677.027372 L84.9205984,677.027372 L84.9205984,681.713421 L127.074799,681.713421 Z M127.074799,686.394973 L127.074799,691.078773 L84.9205984,691.078773 L84.9205984,686.394973 L127.074799,686.394973 Z M127.074799,695.762573 L127.074799,700.446373 L84.9205984,700.446373 L84.9205984,695.762573 L127.074799,695.762573 Z M127.074799,709.813973 L127.074799,705.130173 L84.9205984,705.130173 L84.9205984,709.813973 L127.074799,709.813973 Z M127.074799,714.497773 L127.074799,719.181573 L84.9205984,719.181573 L84.9205984,714.497773 L127.074799,714.497773 Z" id="Shape-Copy-13"></path>
                    <path d="M342.683842,168.1542 L338,168.1542 C338,144.873466 356.873381,126 380.1542,126 L380.1542,130.6838 C359.458888,130.6838 342.683842,147.458923 342.683842,168.1542 Z M352.051525,168.1542 L347.367683,168.1542 C347.367683,150.046629 362.046646,135.3676 380.1542,135.3676 L380.1542,140.0514 C364.634404,140.0514 352.051525,152.634335 352.051525,168.1542 Z M356.735367,168.1542 L361.419208,168.1542 C361.419208,157.807499 369.807669,149.419 380.1542,149.419 L380.1542,144.7352 C367.219911,144.7352 356.735367,155.219793 356.735367,168.1542 Z M370.786517,168.1542 L366.10305,168.1542 C366.10305,160.392956 372.393177,154.1028 380.1542,154.1028 L380.1542,158.7866 C374.980935,158.7866 370.786517,162.981037 370.786517,168.1542 Z M380.1542,168.1542 L375.470359,168.1542 C375.470359,165.566494 377.566442,163.4704 380.1542,163.4704 L380.1542,168.1542 Z" id="Shape-Copy-11" transform="translate(359.077100, 147.077100) rotate(-270.000000) translate(-359.077100, -147.077100) "></path>
                    <path d="M342.529641,761.335773 L337.8458,761.335773 C337.8458,738.055039 356.71918,719.181573 380,719.181573 L380,723.865373 C359.304688,723.865373 342.529641,740.640496 342.529641,761.335773 Z M351.897325,761.335773 L347.213483,761.335773 C347.213483,743.228202 361.892446,728.549173 380,728.549173 L380,733.232973 C364.480204,733.232973 351.897325,745.815908 351.897325,761.335773 Z M356.581167,761.335773 L361.265008,761.335773 C361.265008,750.989071 369.653469,742.600573 380,742.600573 L380,737.916773 C367.065711,737.916773 356.581167,748.401365 356.581167,761.335773 Z M370.632317,761.335773 L365.94885,761.335773 C365.94885,753.574529 372.238977,747.284373 380,747.284373 L380,751.968173 C374.826735,751.968173 370.632317,756.162609 370.632317,761.335773 Z M380,761.335773 L375.316158,761.335773 C375.316158,758.748067 377.412242,756.651973 380,756.651973 L380,761.335773 Z" id="Shape-Copy-14" transform="translate(358.922900, 740.258673) rotate(-270.000000) translate(-358.922900, -740.258673) "></path>
                    <path d="M338,376.1542 L380.1542,376.1542 L380.1542,334 C356.873381,334 338,352.873466 338,376.1542 Z" id="Path-Copy-2" fill-rule="nonzero" transform="translate(359.077100, 355.077100) rotate(-180.000000) translate(-359.077100, -355.077100) "></path>
                    <path d="M258.645033,84.0273725 L253.958941,84.0273725 L253.958941,41.8731722 L258.645033,41.8731722 L258.645033,84.0273725 Z M272.698809,84.0273725 L277.3849,84.0273725 L277.3849,41.8731722 L272.698809,41.8731722 L272.698809,84.0273725 Z M286.752584,84.0273725 L282.066492,84.0273725 L282.066492,41.8731722 L286.752584,41.8731722 L286.752584,84.0273725 Z M296.113142,84.0273725 L291.42705,84.0273725 L291.42705,41.8731722 L296.113142,41.8731722 L296.113142,84.0273725 Z M263.331125,84.0273725 L268.017217,84.0273725 L268.017217,41.8731722 L263.331125,41.8731722 L263.331125,84.0273725 Z" id="Shape-Copy-9"></path>
                </g>
            </g>
        </g>
    </g>
</svg>