<svg xmlns="http://www.w3.org/2000/svg" width="320" height="320" viewBox="0 0 320 320">
  <g fill="none" fill-rule="evenodd">
    <rect width="320" height="320" fill="#E7EDF5"/>
    <g stroke="#C2C9D3" stroke-width=".5" transform="translate(40 40)">
      <polygon points="30.125 239.834 40.111 239.834 40.111 .166 30.125 .166"/>
      <polygon points="70.069 239.834 80.055 239.834 80.055 .166 70.069 .166"/>
      <polygon points="129.986 239.834 139.972 239.834 139.972 .166 129.986 .166"/>
      <polygon points="189.903 239.834 199.889 239.834 199.889 .166 189.903 .166"/>
      <polygon points="50.097 239.834 60.083 239.834 60.083 .166 50.097 .166"/>
      <polygon points="110.014 239.834 120 239.834 120 .166 110.014 .166"/>
      <polygon points="169.931 239.834 179.917 239.834 179.917 .166 169.931 .166"/>
      <polygon points="10.153 239.834 20.139 239.834 20.139 .166 10.153 .166"/>
      <polygon points=".166 239.834 10.153 239.834 10.153 .166 .166 .166"/>
      <polygon points="90.042 239.834 100.028 239.834 100.028 .166 90.042 .166"/>
      <polygon points="149.958 239.834 159.945 239.834 159.945 .166 149.958 .166"/>
      <polygon points="209.875 239.834 219.861 239.834 219.861 .166 209.875 .166"/>
      <polygon points="229.847 239.834 239.834 239.834 239.834 .166 229.847 .166"/>
      <polygon points=".166 239.834 239.834 239.834 239.834 229.847 .166 229.847"/>
      <polygon points=".166 159.945 239.834 159.945 239.834 149.958 .166 149.958"/>
      <polygon points=".166 199.889 239.834 199.889 239.834 189.903 .166 189.903"/>
      <polygon points=".166 120 239.834 120 239.834 110.014 .166 110.014"/>
      <polygon points=".166 60.083 239.834 60.083 239.834 50.097 .166 50.097"/>
      <polygon points=".166 219.861 239.834 219.861 239.834 209.875 .166 209.875"/>
      <polygon points=".166 139.972 239.834 139.972 239.834 129.986 .166 129.986"/>
      <polygon points=".166 80.055 239.834 80.055 239.834 70.069 .166 70.069"/>
      <polygon points=".166 20.139 239.834 20.139 239.834 10.153 .166 10.153"/>
      <polygon points=".166 10.153 239.834 10.153 239.834 .166 .166 .166"/>
      <polygon points=".166 179.917 239.834 179.917 239.834 169.931 .166 169.931"/>
      <polygon points=".166 100.028 239.834 100.028 239.834 90.042 .166 90.042"/>
      <polygon points=".166 40.111 239.834 40.111 239.834 30.125 .166 30.125"/>
    </g>
    <path stroke="#000" stroke-linejoin="bevel" stroke-width="19.972" d="M219.916782,120.055479 C219.916782,86.9644383 193.09104,60.1386963 160,60.1386963 C126.90896,60.1386963 100.083218,86.9644383 100.083218,120.055479 C100.083218,189.958391 70.1248266,209.930652 70.1248266,209.930652 L249.875173,209.930652 C249.875173,209.930652 219.916782,189.958391 219.916782,120.055479"/>
    <path stroke="#4038FF" stroke-width="19.972" d="M140.027739,239.889043 C140.027739,250.91939 148.969653,259.861304 160,259.861304 C171.030347,259.861304 179.972261,250.91939 179.972261,239.889043"/>
  </g>
</svg>
