<svg width="40" height="40" viewBox="0 0 40 40" fill="none" xmlns="http://www.w3.org/2000/svg">
<circle opacity="0.2" cx="20" cy="20" r="20" fill="#4038FF"/>
<path d="M1.74846e-06 20.0001C1.40264e-06 23.9557 1.17298 27.8225 3.37061 31.1115C5.56824 34.4004 8.69181 36.9639 12.3463 38.4776C16.0009 39.9914 20.0222 40.3875 23.9018 39.6158C27.7814 38.8441 31.3451 36.9392 34.1421 34.1422C36.9392 31.3451 38.844 27.7815 39.6157 23.9019C40.3874 20.0222 39.9913 16.0009 38.4776 12.3464C36.9638 8.69187 34.4004 5.5683 31.1114 3.37067C27.8224 1.17304 23.9556 5.96325e-05 20 5.92867e-05L20 2.00006C23.5601 2.00006 27.0402 3.05574 30.0003 5.03361C32.9604 7.01147 35.2675 9.82269 36.6298 13.1118C37.9922 16.4008 38.3487 20.02 37.6541 23.5117C36.9596 27.0033 35.2453 30.2106 32.7279 32.728C30.2106 35.2453 27.0033 36.9597 23.5116 37.6542C20.02 38.3487 16.4008 37.9923 13.1117 36.6299C9.82263 35.2675 7.01141 32.9604 5.03355 30.0003C3.05568 27.0402 2 23.5601 2 20.0001L1.74846e-06 20.0001Z" fill="#4038FF"/>
<path d="M15 29V12L29 20.5L15 29Z" fill="#4038FF"/>
</svg>
