<svg width="719" height="504" viewBox="0 0 719 504" fill="none" xmlns="http://www.w3.org/2000/svg">
<path fill-rule="evenodd" clip-rule="evenodd" d="M211.55 261.324H205.34V255.114H211.55V248.889H205.34V242.664H211.55V236.454H217.775V230.229H211.55V236.439H205.34V230.229H211.55V224H205.324V230.225H199.114V236.435H192.889V230.225H186.664V236.435H180.454V230.225H186.664V224H180.438V230.225H174.229V224H168V230.225H174.225V236.435H168V242.661H174.225V248.886H168V255.111H174.225V261.321V261.336H180.435V267.546H186.66V261.336H192.886V267.546H199.111V261.336H205.321V267.546H211.547V261.336H217.772V255.111H211.547V261.324H211.55ZM174.225 261.339V267.55H168V261.324H174.225V261.339ZM192.886 230.225V224H199.112V230.225H192.886ZM211.55 242.661V248.886H217.775V242.661H211.55ZM180.434 236.451H174.225V242.661H180.434V236.451ZM180.452 267.55V273.775H186.661V267.55H192.887V273.775H199.112V267.55H205.338V273.775H211.548V267.55H217.773V273.775H211.548V280H205.322V273.775H199.112V280H192.887V273.775H186.661V280H180.436V273.775H174.226V280H168.001V273.775H174.226V267.55H180.452ZM205.321 255.114V248.889H199.111V255.114H205.321ZM192.886 255.114V261.324H199.112V255.114H192.886ZM186.661 255.114H192.886V248.889H186.661V255.114ZM186.66 255.114H180.45V261.324H186.66V255.114ZM186.66 242.661H180.45V248.886H186.66V242.661ZM192.885 242.661V236.45H186.66V242.661H192.885ZM199.114 242.661H192.889V248.886H199.114V242.661ZM199.114 242.661H205.324V236.45H199.114V242.661ZM180.434 248.886V255.111H174.225V248.886H180.434ZM224 230.225H217.774V224H224V230.225ZM217.774 242.661H224V236.435H217.774V242.661ZM224 255.114H217.774V248.889H224V255.114ZM217.774 267.55H224V261.324H217.774V267.55ZM217.774 280H224V273.775H217.774V280Z" fill="#2316E8"/>
<path fill-rule="evenodd" clip-rule="evenodd" d="M435.549 93.3239H429.339V87.1141H435.549V80.8889H429.339V74.6637H435.549V68.4539H441.775V62.2287H435.549V68.4384H429.339V62.2287H435.549V56H429.324V62.2252H423.114V68.435H416.889V62.2252H410.664V68.435H404.454V62.2252H410.664V56H404.438V62.2252H398.229V56H392V62.2252H398.225V68.435H392V74.6607H398.225V80.8859H392V87.1111H398.225V93.3209V93.3363H404.435V99.5461H410.66V93.3363H416.886V99.5461H423.111V93.3363H429.321V99.5461H435.546V93.3363H441.772V87.1111H435.546V93.3239H435.549ZM398.225 93.3393V99.5496H392V93.3239H398.225V93.3393ZM416.886 62.2252V56H423.111V62.2252H416.886ZM435.55 74.6608V80.886H441.775V74.6608H435.55ZM404.435 68.4504H398.226V74.6607H404.435V68.4504ZM404.45 99.5496V105.775H410.66V99.5496H416.886V105.775H423.111V99.5496H429.336V105.775H435.546V99.5496H441.772V105.775H435.546V112H429.321V105.775H423.111V112H416.886V105.775H410.66V112H404.435V105.775H398.225V112H392V105.775H398.225V99.5496H404.45ZM429.321 87.1142V80.889H423.111V87.1142H429.321ZM416.886 87.1141V93.3239H423.111V87.1141H416.886ZM410.661 87.1142H416.886V80.889H410.661V87.1142ZM410.66 87.1141H404.45V93.3239H410.66V87.1141ZM410.66 74.6607H404.45V80.8859H410.66V74.6607ZM416.886 74.6607V68.4504H410.661V74.6607H416.886ZM423.115 74.6608H416.89V80.886H423.115V74.6608ZM423.114 74.6607H429.324V68.4504H423.114V74.6607ZM404.435 80.8859V87.1111H398.226V80.8859H404.435ZM448 62.2253H441.774V56.0001H448V62.2253ZM441.774 74.6607H448V68.435H441.774V74.6607ZM448 87.1142H441.774V80.889H448V87.1142ZM441.774 99.5497H448V93.324H441.774V99.5497ZM441.774 112H448V105.775H441.774V112Z" fill="#6C6CFF"/>
<path fill-rule="evenodd" clip-rule="evenodd" d="M155.55 93.3239H149.34V87.1141H155.55V80.8889H149.34V74.6637H155.55V68.4539H161.775V62.2287H155.55V68.4384H149.34V62.2287H155.55V56H149.324V62.2252H143.114V68.435H136.889V62.2252H130.664V68.435H124.454V62.2252H130.664V56H124.438V62.2252H118.229V56H112V62.2252H118.225V68.435H112V74.6607H118.225V80.8859H112V87.1111H118.225V93.3209V93.3363H124.435V99.5461H130.66V93.3363H136.886V99.5461H143.111V93.3363H149.321V99.5461H155.547V93.3363H161.772V87.1111H155.547V93.3239H155.55ZM118.225 93.3393V99.5496H112V93.3238H118.225V93.3393ZM136.886 62.2252V56H143.112V62.2252H136.886ZM155.549 74.6608V80.886H161.774V74.6608H155.549ZM124.434 68.4504H118.225V74.6607H124.434V68.4504ZM124.451 99.5496V105.775H130.66V99.5496H136.886V105.775H143.111V99.5496H149.337V105.775H155.547V99.5496H161.772V105.775H155.547V112H149.321V105.775H143.111V112H136.886V105.775H130.66V112H124.435V105.775H118.225V112H112V105.775H118.225V99.5496H124.451ZM149.321 87.1142V80.889H143.111V87.1142H149.321ZM136.886 87.1141V93.3239H143.112V87.1141H136.886ZM130.66 87.1142H136.885V80.889H130.66V87.1142ZM130.66 87.1141H124.45V93.3239H130.66V87.1141ZM130.66 74.6608H124.45V80.886H130.66V74.6608ZM136.885 74.6608V68.4505H130.66V74.6608H136.885ZM143.115 74.6608H136.89V80.886H143.115V74.6608ZM143.114 74.6608H149.324V68.4505H143.114V74.6608ZM124.434 80.8859V87.1111H118.225V80.8859H124.434ZM168 62.2252H161.774V56H168V62.2252ZM161.774 74.6608H168V68.4351H161.774V74.6608ZM168 87.1142H161.774V80.889H168V87.1142ZM161.774 99.5497H168V93.324H161.774V99.5497ZM161.774 112H168V105.775H161.774V112Z" fill="white"/>
<path fill-rule="evenodd" clip-rule="evenodd" d="M273.774 280H280V336H273.774V280ZM267.555 280H261.333V336H267.555V280ZM255.112 280H248.89V336H255.112V280ZM236.444 280H242.667V336H236.444V280ZM230.222 280H224V336H230.222V280Z" fill="#2316E8"/>
<path fill-rule="evenodd" clip-rule="evenodd" d="M616 161.775V168H560.001V161.775H616ZM616 155.555V149.333H560V155.555H616ZM616 143.111V136.889H560V143.111H616ZM616 124.444V130.667H560V124.444H616ZM616 118.222V112H560V118.222H616Z" fill="white"/>
<path fill-rule="evenodd" clip-rule="evenodd" d="M224 497.775V504H168.001V497.775H224ZM223.999 491.556V485.333H168V491.556H223.999ZM223.999 479.111V472.889H168V479.111H223.999ZM223.999 460.445V466.667H168V460.445H223.999ZM223.999 454.222V448H168V454.222H223.999Z" fill="#261EE4"/>
<path fill-rule="evenodd" clip-rule="evenodd" d="M223.999 118.225V112H168V118.225H223.999ZM223.999 136.895V143.12H168V136.895H223.999ZM223.999 155.565V149.34H168V155.565H223.999ZM224 168V161.775H168.001V168H224ZM223.999 124.451V130.676H168V124.451H223.999Z" fill="white"/>
<path fill-rule="evenodd" clip-rule="evenodd" d="M711.778 392H718C718 361.073 692.928 336 662 336V342.222C689.493 342.222 711.778 364.507 711.778 392ZM699.333 392H705.555C705.555 367.945 686.055 348.444 662 348.444V354.667C682.617 354.667 699.333 371.383 699.333 392ZM693.111 392H686.889C686.889 378.255 675.745 367.111 662 367.111V360.889C679.183 360.889 693.111 374.817 693.111 392ZM674.445 392H680.667C680.667 381.69 672.31 373.333 662 373.333V379.556C668.872 379.556 674.445 385.128 674.445 392ZM662 392H668.222C668.222 388.562 665.438 385.778 662 385.778V392Z" fill="white"/>
<path fill-rule="evenodd" clip-rule="evenodd" d="M6.22227 392L0 392C-2.70376e-06 422.927 25.0725 448 56 448L56 441.778C28.5072 441.778 6.22227 419.493 6.22227 392ZM18.6668 392L12.4446 392C12.4446 416.055 31.9449 435.556 56 435.556L56 429.333C35.3826 429.333 18.6668 412.618 18.6668 392ZM24.8886 392L31.1109 392C31.1109 405.745 42.2551 416.889 56 416.889L56 423.111C38.8174 423.111 24.8886 409.183 24.8886 392ZM43.5554 392L37.3332 392C37.3332 402.31 45.6898 410.667 56 410.667L56 404.445C49.1275 404.445 43.5554 398.872 43.5554 392ZM56 392L49.7777 392C49.7777 395.438 52.5623 398.222 56 398.222L56 392Z" fill="#6C6CFF"/>
<path fill-rule="evenodd" clip-rule="evenodd" d="M454.222 112H448C448 142.927 473.072 168 504 168V161.778C476.507 161.778 454.222 139.493 454.222 112ZM466.667 112H460.444C460.444 136.055 479.945 155.556 503.999 155.556V149.333C483.382 149.333 466.667 132.618 466.667 112ZM472.89 112H479.112C479.112 125.745 490.255 136.889 504 136.889V143.111C486.818 143.111 472.89 129.183 472.89 112ZM491.556 112L485.334 112C485.334 122.31 493.69 130.667 504 130.667V124.444C497.128 124.444 491.556 118.872 491.556 112ZM504 112H497.777C497.777 115.438 500.562 118.222 504 118.222V112Z" fill="#6C6CFF"/>
<path fill-rule="evenodd" clip-rule="evenodd" d="M560 441.778V448C590.928 448 616 422.928 616 392H609.778C609.778 419.493 587.493 441.778 560 441.778ZM560 429.333V435.556C584.055 435.556 603.556 416.055 603.556 392H597.333C597.333 412.618 580.618 429.333 560 429.333ZM560 423.111V416.889C573.745 416.889 584.889 405.745 584.889 392H591.111C591.111 409.183 577.183 423.111 560 423.111ZM560 404.445V410.666C570.311 410.666 578.667 402.31 578.667 392H572.445C572.445 398.873 566.873 404.445 560 404.445ZM560 392V398.222C563.438 398.222 566.223 395.438 566.223 392H560Z" fill="#261EE4"/>
<path d="M280 0V56H224C224 25.0725 249.073 0 280 0Z" fill="#261EE4"/>
<path fill-rule="evenodd" clip-rule="evenodd" d="M6.22524 168H0V224H6.22524V168ZM24.8955 168H31.1207V224H24.8955V168ZM43.5641 168H37.3389V224H43.5641V168ZM55.9997 168H49.7744V224H55.9997V168ZM12.4502 168H18.6754V224H12.4502V168Z" fill="#6C6CFF"/>
<path fill-rule="evenodd" clip-rule="evenodd" d="M718.127 174.225L718.127 168L662.127 168L662.127 174.225L718.127 174.225ZM718.127 192.896L718.127 199.121L662.127 199.121L662.127 192.896L718.127 192.896ZM718.127 211.564L718.127 205.339L662.127 205.339L662.127 211.564L718.127 211.564ZM718.127 224L718.127 217.775L662.127 217.775L662.127 224L718.127 224ZM718.127 180.45L718.127 186.676L662.127 186.676L662.127 180.45L718.127 180.45Z" fill="#261EE4"/>
<path fill-rule="evenodd" clip-rule="evenodd" d="M342.225 448H336V504H342.225V448ZM360.896 448H367.121V504H360.896V448ZM379.565 448H373.34V504H379.565V448ZM392 448H385.774V504H392V448ZM348.45 448H354.675V504H348.45V448Z" fill="#6C6CFF"/>
</svg>
