<svg xmlns="http://www.w3.org/2000/svg" viewBox="0 0 80 80">
  <g fill="none" fill-rule="evenodd">
    <circle cx="40" cy="40" r="40" fill="#00DBB0"/>
    <path fill="#FFF" fill-rule="nonzero" d="M49.45 30c0 2.167-.292 3.808-.875 4.925s-1.767 2.417-3.55 3.9-3.008 2.667-3.675 3.55c-.667.883-1 1.858-1 2.925v1.75H37.2c-.433-.9-.65-1.917-.65-3.05 0-1.133.383-2.192 1.15-3.175.767-.983 2-2.208 3.7-3.675 1.7-1.467 2.833-2.633 3.4-3.5.567-.867.85-2.075.85-3.625 0-1.55-.533-2.708-1.6-3.475-1.067-.767-2.75-1.15-5.05-1.15-1.467 0-3.617.3-6.45.9l-1.3.25L31 23.5c3.367-1 6.15-1.5 8.35-1.5 3.433 0 5.975.625 7.625 1.875 1.65 1.25 2.475 3.292 2.475 6.125zm-12.8 27.05v-5.6h4.1v5.6h-4.1z"/>
  </g>
</svg>
