<svg viewBox="0 0 43 43" xmlns="http://www.w3.org/2000/svg">
  <g fill="none" fill-rule="evenodd"><circle fill="#4038FF" cx="21.5" cy="21.5" r="21.5"/><path
    d="M27 16.337c0 1.174-.158 2.064-.474 2.67-.316.605-.958 1.31-1.924 2.114-.967.804-1.63 1.445-1.992 1.924a2.572 2.572 0 0 0-.542 1.586v.948H20.36c-.234-.488-.352-1.039-.352-1.653 0-.615.208-1.188.623-1.721.416-.533 1.084-1.197 2.006-1.992.921-.796 1.536-1.428 1.843-1.898.307-.47.46-1.125.46-1.965 0-.84-.289-1.468-.867-1.884-.578-.415-1.49-.623-2.737-.623-.795 0-1.96.163-3.496.488l-.704.135L17 12.813c1.825-.542 3.333-.813 4.526-.813 1.86 0 3.238.339 4.133 1.016.894.678 1.341 1.785 1.341 3.32zM20.062 31v-3.036h2.223V31h-2.223z"
    fill="#FFF"
    fill-rule="nonzero"/></g>
</svg>
