<svg width="175" height="31" viewBox="0 0 175 31" fill="none" xmlns="http://www.w3.org/2000/svg">
<g clip-path="url(#clip0)">
<path d="M27.5718 23.1593C24.4174 23.1593 21.0294 22.0515 18.5176 20.2791L20.27 18.0636C22.3145 19.5037 25.06 20.3899 27.5718 20.3899C30.6093 20.3899 33.0627 18.839 33.0627 16.9005C33.0627 15.7373 32.3618 14.2972 27.1629 12.8572C23.1907 11.8048 19.1601 10.1985 19.1601 6.43221C19.1601 2.99818 22.7234 0.339584 27.2797 0.339584C29.85 0.339584 32.7123 1.11501 35.1072 2.4997L33.5885 4.88138C31.6024 3.77361 29.3242 3.10896 27.2797 3.10896C24.359 3.10896 22.0809 4.54903 22.0809 6.43221C22.0809 7.53994 22.7818 8.81389 27.9807 10.1985C31.7192 11.2509 35.9835 12.9679 35.9835 16.9005C35.9835 20.4452 32.3034 23.1593 27.5718 23.1593Z" fill="white"/>
<path d="M138.617 23.1593C135.463 23.1593 132.075 22.0515 129.563 20.2791L131.315 18.0636C133.36 19.5037 136.105 20.3899 138.617 20.3899C141.655 20.3899 144.108 18.839 144.108 16.9005C144.108 15.7373 143.407 14.2972 138.208 12.8572C134.236 11.8048 130.205 10.1985 130.205 6.43221C130.205 2.99818 133.769 0.339584 138.325 0.339584C140.895 0.339584 143.757 1.11501 146.153 2.4997L144.634 4.88138C142.648 3.77361 140.37 3.10896 138.325 3.10896C135.404 3.10896 133.126 4.54903 133.126 6.43221C133.126 7.53994 133.827 8.81389 139.026 10.1985C142.764 11.2509 147.029 12.9679 147.029 16.9005C147.029 20.4452 143.348 23.1593 138.617 23.1593Z" fill="white"/>
<path d="M165.838 23.1593C162.684 23.1593 159.296 22.0515 156.784 20.2791L158.536 18.0636C160.581 19.5037 163.326 20.3899 165.838 20.3899C168.876 20.3899 171.329 18.839 171.329 16.9005C171.329 15.7373 170.628 14.2972 165.429 12.8572C161.457 11.8048 157.426 10.1985 157.426 6.43221C157.426 2.99818 160.99 0.339584 165.546 0.339584C168.117 0.339584 170.979 1.11501 173.374 2.4997L171.855 4.88138C169.869 3.77361 167.591 3.10896 165.546 3.10896C162.625 3.10896 160.347 4.54903 160.347 6.43221C160.347 7.53994 161.048 8.81389 166.247 10.1985C169.986 11.2509 174.25 12.9679 174.25 16.9005C174.25 20.4452 170.511 23.1593 165.838 23.1593Z" fill="white"/>
<path d="M4.55633 30.1578L3.50486 27.5546L8.11961 25.8376C9.57994 25.2837 10.7482 24.2313 11.4492 22.9021C11.8581 22.1266 12.0334 21.2958 12.0334 20.4096V3.1841H0V0.414719H14.7789L14.8957 2.741V20.465C14.8957 21.7389 14.6036 23.0128 14.0195 24.1206C13.0264 26.1145 11.274 27.6654 9.11262 28.4408L4.55633 30.1578Z" fill="white"/>
<path d="M94.6894 0.339584C92.2946 0.339584 90.0749 1.22579 88.4392 2.66586V1.1704H85.5186V9.03544V22.0515H88.4392V9.03544C88.4392 5.76755 91.243 3.10896 94.6894 3.10896C98.1359 3.10896 100.94 5.76755 100.94 9.03544V22.0515H103.861V9.03544C103.861 4.2721 99.7134 0.339584 94.6894 0.339584Z" fill="white"/>
<path d="M153.63 1.72427H150.709V22.0515H153.63V1.72427Z" fill="white"/>
<path d="M55.2014 1.33656V3.55206C53.2741 1.55811 50.4699 0.339584 47.4324 0.339584C41.5327 0.339584 36.7427 4.88138 36.7427 10.4755C36.7427 16.0696 41.5327 20.6114 47.4324 20.6114C50.5286 20.6114 53.2741 19.3929 55.2014 17.3989V18.6175C55.2014 22.4392 51.9305 25.5963 47.8413 25.5963H41.9415V28.3657H47.9C53.5662 28.3657 58.1807 23.9901 58.1807 18.6175V1.33656H55.2014ZM47.4324 17.8974C43.1098 17.8974 39.6634 14.5742 39.6634 10.5309C39.6634 6.43221 43.1683 3.16435 47.4324 3.16435C51.6967 3.16435 55.2014 6.48759 55.2014 10.5309C55.2014 14.6296 51.7554 17.8974 47.4324 17.8974Z" fill="white"/>
<path d="M118.114 22.9377C111.805 22.9377 106.49 17.8421 106.49 11.7494C106.49 5.60143 111.455 0.561142 117.53 0.561142C123.605 0.561142 128.57 5.54601 128.57 11.7494V13.1341H109.586C110.286 17.0112 114.025 20.1683 118.114 20.1683C120.509 20.1683 123.079 19.116 124.656 17.4543L126.818 19.2821C124.715 21.4976 121.327 22.9377 118.114 22.9377ZM109.527 10.3647H125.533C124.89 6.37685 121.561 3.33052 117.53 3.33052C113.499 3.33052 110.17 6.37685 109.527 10.3647Z" fill="white"/>
<path d="M72.4926 22.9377C66.1837 22.9377 60.8682 17.8421 60.8682 11.7494C60.8682 5.60143 65.833 0.561142 71.9081 0.561142C77.9832 0.561142 82.9484 5.54601 82.9484 11.7494V13.1341H63.964C64.6649 17.0112 68.4034 20.1683 72.4926 20.1683C74.8874 20.1683 77.4578 19.116 79.0348 17.4543L81.1963 19.2821C79.0931 21.4976 75.7052 22.9377 72.4926 22.9377ZM63.9053 10.3647H79.9109C79.2686 6.37685 75.939 3.33052 71.9081 3.33052C67.8776 3.33052 64.548 6.37685 63.9053 10.3647Z" fill="white"/>
</g>
<defs>
<clipPath id="clip0">
<rect width="174.25" height="30.3043" fill="white"/>
</clipPath>
</defs>
</svg>
