<svg width="92" height="16" viewBox="0 0 92 16" fill="none" xmlns="http://www.w3.org/2000/svg">
<path d="M14.5573 12.2276C12.8918 12.2276 11.103 11.6427 9.77686 10.7069L10.7021 9.5372C11.7816 10.2975 13.2311 10.7654 14.5573 10.7654C16.161 10.7654 17.4564 9.9466 17.4564 8.92308C17.4564 8.30897 17.0863 7.54864 14.3414 6.78831C12.2442 6.23269 10.1161 5.38463 10.1161 3.39609C10.1161 1.583 11.9974 0.179321 14.4031 0.179321C15.7601 0.179321 17.2713 0.588728 18.5358 1.31981L17.734 2.57728C16.6853 1.99241 15.4825 1.64149 14.4031 1.64149C12.861 1.64149 11.6582 2.40181 11.6582 3.39609C11.6582 3.98094 12.0283 4.65356 14.7732 5.38463C16.747 5.94027 18.9984 6.84681 18.9984 8.92308C18.9984 10.7946 17.0554 12.2276 14.5573 12.2276Z" fill="#7B8A95"/>
<path d="M73.1866 12.2276C71.5211 12.2276 69.7324 11.6427 68.4062 10.7069L69.3313 9.5372C70.4108 10.2975 71.8604 10.7654 73.1866 10.7654C74.7903 10.7654 76.0857 9.9466 76.0857 8.92308C76.0857 8.30897 75.7156 7.54864 72.9707 6.78831C70.8734 6.23269 68.7454 5.38463 68.7454 3.39609C68.7454 1.583 70.6267 0.179321 73.0324 0.179321C74.3895 0.179321 75.9006 0.588728 77.1652 1.31981L76.3633 2.57728C75.3146 1.99241 74.1119 1.64149 73.0324 1.64149C71.4903 1.64149 70.2874 2.40181 70.2874 3.39609C70.2874 3.98094 70.6575 4.65356 73.4025 5.38463C75.3763 5.94027 77.6278 6.84681 77.6278 8.92308C77.6278 10.7946 75.6847 12.2276 73.1866 12.2276Z" fill="#7B8A95"/>
<path d="M87.5589 12.2276C85.8934 12.2276 84.1047 11.6427 82.7786 10.7069L83.7037 9.5372C84.7832 10.2975 86.2327 10.7654 87.5589 10.7654C89.1626 10.7654 90.458 9.9466 90.458 8.92308C90.458 8.30897 90.0879 7.54864 87.343 6.78831C85.2457 6.23269 83.1177 5.38463 83.1177 3.39609C83.1177 1.583 84.999 0.179321 87.4047 0.179321C88.7618 0.179321 90.2729 0.588728 91.5375 1.31981L90.7356 2.57728C89.6869 1.99241 88.4842 1.64149 87.4047 1.64149C85.8626 1.64149 84.6597 2.40181 84.6597 3.39609C84.6597 3.98094 85.03 4.65356 87.7748 5.38463C89.7486 5.94027 92.0001 6.84681 92.0001 8.92308C92.0001 10.7946 90.0262 12.2276 87.5589 12.2276Z" fill="#7B8A95"/>
<path d="M2.40564 15.9229L1.85049 14.5485L4.28697 13.6419C5.05799 13.3495 5.67483 12.7939 6.04493 12.092C6.26081 11.6826 6.35334 11.244 6.35334 10.7761V1.68141H0V0.219238H7.80289L7.86457 1.44746V10.8053C7.86457 11.4779 7.71036 12.1505 7.40195 12.7354C6.87765 13.7882 5.9524 14.607 4.81125 15.0164L2.40564 15.9229Z" fill="#7B8A95"/>
<path d="M49.9939 0.179321C48.7295 0.179321 47.5575 0.647215 46.6939 1.40754V0.617971H45.1519V4.77053V11.6427H46.6939V4.77053C46.6939 3.04516 48.1742 1.64149 49.9939 1.64149C51.8135 1.64149 53.2939 3.04516 53.2939 4.77053V11.6427H54.8361V4.77053C54.8361 2.2556 52.6464 0.179321 49.9939 0.179321Z" fill="#7B8A95"/>
<path d="M81.1131 0.9104H79.571V11.6427H81.1131V0.9104Z" fill="#7B8A95"/>
<path d="M29.1452 0.705701V1.87543C28.1276 0.822674 26.6471 0.179321 25.0433 0.179321C21.9284 0.179321 19.3994 2.57728 19.3994 5.53086C19.3994 8.48442 21.9284 10.8824 25.0433 10.8824C26.6781 10.8824 28.1276 10.239 29.1452 9.18627V9.82962C29.1452 11.8474 27.4182 13.5143 25.2592 13.5143H22.1443V14.9765H25.2902C28.2818 14.9765 30.7182 12.6662 30.7182 9.82962V0.705701H29.1452ZM25.0433 9.44946C22.7611 9.44946 20.9415 7.69485 20.9415 5.5601C20.9415 3.39609 22.792 1.67073 25.0433 1.67073C27.2948 1.67073 29.1452 3.42533 29.1452 5.5601C29.1452 7.72411 27.3258 9.44946 25.0433 9.44946Z" fill="#7B8A95"/>
<path d="M62.3616 12.1106C59.0306 12.1106 56.2241 9.42019 56.2241 6.20342C56.2241 2.95742 58.8457 0.296265 62.0532 0.296265C65.2607 0.296265 67.882 2.92816 67.882 6.20342V6.93449H57.8586C58.2287 8.98153 60.2026 10.6484 62.3616 10.6484C63.626 10.6484 64.9831 10.0928 65.8157 9.21548L66.9569 10.1805C65.8467 11.3503 64.0578 12.1106 62.3616 12.1106ZM57.8279 5.47233H66.2783C65.9392 3.36682 64.1812 1.75843 62.0532 1.75843C59.9249 1.75843 58.167 3.36682 57.8279 5.47233Z" fill="#7B8A95"/>
<path d="M38.2744 12.1106C34.9434 12.1106 32.137 9.42019 32.137 6.20342C32.137 2.95742 34.7583 0.296265 37.9658 0.296265C41.1733 0.296265 43.7948 2.92816 43.7948 6.20342V6.93449H33.7715C34.1415 8.98153 36.1154 10.6484 38.2744 10.6484C39.5388 10.6484 40.8959 10.0928 41.7285 9.21548L42.8698 10.1805C41.7593 11.3503 39.9706 12.1106 38.2744 12.1106ZM33.7405 5.47233H42.1911C41.852 3.36682 40.094 1.75843 37.9658 1.75843C35.8378 1.75843 34.0798 3.36682 33.7405 5.47233Z" fill="#7B8A95"/>
</svg>
