<svg xmlns="http://www.w3.org/2000/svg" width="104" height="104" viewBox="0 0 104 104">
  <path d="M35.219 63.065L27 74.065 65 74.065 56.781 63.065zM84.8311599.064516129C88.7902935.064516129 92 3.24409425 92 7.16657082L92 7.16657082 92 50.9624614C92 54.8847114 88.7902935 58.0645161 84.8311599 58.0645161L84.8311599 58.0645161 7.16884008 58.0645161C3.20970653 58.0645161 0 54.8847114 0 50.9624614L0 50.9624614 0 7.16657082C0 3.24409425 3.20970653.064516129 7.16884008.064516129L7.16884008.064516129zM55.5 18.5L37.5 18.5 37.5 37.5 55.5 18.5zM69.5 18.0645161C64.2532949 18.0645161 60 22.317811 60 27.5645161 60 32.8112213 64.2532949 37.0645161 69.5 37.0645161 74.7467051 37.0645161 79 32.8112213 79 27.5645161 79 22.317811 74.7467051 18.0645161 69.5 18.0645161zM31 19L12 19 12 37 31 37 31 19z" transform="translate(6 14.935)"/>
</svg>
