<svg viewBox="0 0 400 320" xmlns="http://www.w3.org/2000/svg">
  <g fill="none" fill-rule="evenodd">
    <path d="M212.371422 205.7335496c-36.192918-1.4963089-66.104812-7.1823805-63.135448-32.9361937.761773-6.6069828.936169-23.2759364 6.148715-29.6248241 15.105796-18.3988789 49.784276-26.09318146 83.5892969-23.8644668 34.0391269 2.2441489 71.16196756-13.35620641 75.35971465-2.74836457 3.77527901 9.54025137-60.73207145 82.81453617-71.63535565 82.81453617-48.1384419 0 5.8659951 7.8556219-30.3269229 6.359313z" fill="#000"/>
    <path d="M163.1038679 162.3963162c1.7675543 11.4380593 18.3476724 19.8432146 37.7804371 18.9309224 19.9822203-.9348962 35.4138229-11.566672 34.4674491-23.7512832-.0308073-.396675-.0785904-.7899966-.1429009-1.1797206l.0520743-.0035173 1.0495897 10.5965252-.0412576.0026627c.2796383 11.8805369-14.9278188 22.0686351-34.5032842 22.9360945-19.0021092.8450242-35.2773394-7.2190511-37.6429197-18.2799069l-.0830712.0053612-.9361166-9.257138z" stroke="#979797" stroke-width=".5" fill="#D8D8D8"/>
    <path d="M201.3300798 179.4663271c-18.9687243.9578398-35.0725051-7.9801429-35.968801-19.9681108-.8962959-11.9897633 13.754302-22.6926346 32.7230264-23.9009646 18.9687244-1.2050803 35.0725052 7.7443977 35.9688011 19.9846512.8962959 12.238458-13.7543021 22.929834-32.7230265 23.8844242z" stroke="#979797" stroke-width=".5" fill="#D8D8D8"/>
    <path d="M200.9193741 175.8871964c18.7759786-1.4923628 32.9246878-12.1876039 31.8386706-23.973951.2364151.7878377.4047804 1.594949.5009151 2.4191677 1.3900977 11.9190542-12.8488189 22.7935804-31.8035102 24.2844735-18.9546913 1.4877196-35.4474015-6.773856-36.8374991-18.4482849-.0131065-.110063-.0248235-.2200452-.0351604-.3299398 3.1821229 10.392901 18.6927382 17.4480745 36.336584 16.0485345z" fill="#FFF"/>
    <path d="M199.5166209 141.7700101c-16.465221 1.227431-28.9933988 10.5217667-27.9824682 20.7594798.1487028 1.5059163.5820673 2.950251 1.2655352 4.3153293-1.2529344-1.8338568-2.0336226-3.8412776-2.2440864-5.9721244-1.0109306-10.235193 11.5172472-19.5344396 27.9824683-20.7704487 14.0432696-1.0541983 26.4148654 4.1998125 30.3778363 12.2397422-4.7653419-7.0813261-16.3619294-11.5438725-29.3992852-10.5719782z" fill="#000"/>
    <path d="M213.5827122 161.3476603l-22.7039899 5.4306947c-1.2745999.3033007-2.4445166-.4601588-2.613082-1.7050492-.0392747-.2900464-.0208638-.5910438.0542228-.8864938l4.3101061-16.9894289c.3222683-1.2726798 1.5925095-2.159521 2.8371631-1.980336.2899965.0417776.5627756.1404655.8033722.2906584l18.3938837 11.5494458c1.032631.6523076 1.2488117 2.0858086.4828531 3.2009404-.3753816.5463045-.9398722.9394011-1.5645291 1.0895686z" fill="#FFF"/>
    <path d="M212.2112489 162.4614998l-21.4772092 5.0676962c-1.2057286.2831213-2.311479-.4270298-2.4697628-1.5860066-.0368791-.2700299-.0191921-.5502864.0520906-.8254071l4.0917614-15.8185995c.3059426-1.1848293 1.5080725-2.0106241 2.6850323-1.8440488.2742243.0388357.5321136.1306491.7595196.2704109l17.3854478 10.7428533c.9760175.6064914 1.179172 1.9402822.4537582 2.9783478-.3555112.508562-.8897335.8746684-1.4806379 1.0147538z" fill="#000"/>
    <g fill-rule="nonzero">
      <path d="M223.579108 103.9558803s24.365188 6.1749297 36.968128 5.1084127c12.60294-1.066517 13.837939.1222758 15.623479-6.793102 1.785541-6.9153778-2.179847-10.1896529-5.572374-10.3119288-3.392527-.1222758-34.304697-10.9640666-38.835506-11.1406872-4.530809-.1766207-8.533395 4.999723-10.251978 11.1406872-1.718583 6.1409642-.081837 7.4995846 2.068251 11.9966181z" stroke="#000" stroke-width="4" fill="#000"/>
      <path d="M229.170338 80.7512119s23.85116 4.5676668 35.124618 6.936338c12.742605 2.6673003 10.141615 7.7507809 14.459109-2.8776979 2.436087-5.9861548 2.038817-12.8410485-1.064382-13.3161401-3.103199-.4750917-27.733906-10.9203209-31.893992-11.53794-4.160086-.6176192-9.167181 4.7509164-12.322849 9.9022673-3.155669 5.1513508-5.134521 6.7666624-4.302504 10.8931727z" stroke="#000" stroke-width="4" fill="#000"/>
      <path d="M242.731711 51.4305147c-.057998.1123891-.112421.226599-.163187.3424567l-19.646828 44.837882c-1.027842.1577987-2.123169.3271157-3.273678.5063246-4.890015.7616933-9.780765 1.5464503-14.35038 2.3118429-1.437464.2407696-2.823158.476342-4.151125.7059407-9.27307 1.6032669-14.549212 2.6476676-17.184718 3.6379576l-35.03985 7.5269698c-.554496.1191122-1.089188.3170803-1.587873.5879052-1.810303.9831346-3.166751 2.6630192-3.701448 4.6915317-.554983 2.1054727-.154098 4.3307048 1.062331 6.0936502 5.111773 7.4625639 8.135385 8.6790986 19.763369 8.198799l32.312058-.4676496 44.58521-.3770463 22.617291 3.2228034 6.499664 1.2329414c-.057621.7477809-.168695 1.5787299-.330318 2.4507835-.258771 1.396227-.632312 2.8181965-1.058627 4.0499075-.370575 1.070668-.746978 1.889265-.973168 2.224045-.137126.202959-.261666.414196-.372914.632512l-6.86532 13.472692c-5.027706 6.698563-5.664246 15.115622-2.986964 24.019999l.253762.862784c1.326066 4.434464 5.665577 7.206095 10.281115 6.85576l.897908-.072736c3.880792-.296781 7.462942-2.198905 9.760224-5.260746.047128-.062813.093016-.126553.137636-.191184l5.72034-8.285672 18.577816-23.34258 7.8727249-8.384824c1.3263155-1.224776 2.4685144-2.618529 3.3918878-4.143577l10.6692239-15.0386694c.1597546-.2251802.3037383-.4612124.4309132-.7063953l3.9527796-7.6206417 52.64676202 5.0564373c3.59695964.3454685 6.66902618-2.5768218 6.5163545-6.1986547l-2.23590689-53.0424557c-.13771915-3.2671137-2.8683254-5.8158804-6.12638905-5.7184137l-44.37161978 1.3274006-18.7169822-6.4958961c-8.2911378-4.16326936-13.5307031-5.54868647-26.4724209-7.63865513l-19.7720931-3.17970931c-11.121209-3.43905046-23.395362 1.29345599-28.56756 11.31617984z" fill="#000"/>
      <path d="M185.320186 123.0456028s-29.861183 5.7562218-31.705659-2.8747049c-.39688-.2945458-.600989-.7550132-.540604-1.2195982.060384-.4645849.376815-.8682936.8381-1.0692663l36.502786-7.7181056.208247-.0749331 39.507498-7.5478032c.418213-.1091477.763336-.3804515.944551-.7425186l-1.123048-2.8270201c-2.248041-5.6993466.188316-12.0608806 5.830926-15.2250363l3.718702-8.1745162.951988-2.2684282c1.798649-4.2666034 5.136996-7.8410984 9.46038-10.1295879l4.462443-10.6677436c1.592989-1.7833331 3.634737-3.1858975 5.949925-4.08725805 3.406331-1.30792258 7.82415.58584035 8.181146.68120965l24.7070607 2.0436291c5.8239588 1.3355638 11.4760394 3.2355021 16.8605982 5.6676645l14.7483751 6.9755871c.5726802.1634903 7.6456528 3.6717202 7.6456528 3.6717202 0 .1498661 47.59939506-3.5491025 47.59939506-3.4060484v46.3222581c0 .1158056-54.22612336-4.1962516-54.29305996-4.0872581l-7.0952849 6.5600492-.0892488.1226177c-2.3929406 4.1710176-4.5090066 8.4704464-6.3366695 12.874863-2.0294751 5.0326045-4.932707 9.7321041-8.5976407 13.9171134l-11.4312923 12.942984-14.9417477 16.682825-8.25552 12.139157c-.580118.728894-4.73019-3.269807-4.73019-3.269807-.217591-.263382-.323313-.590194-.297496-.919633l-.981738-6.621358c.006915-.152651.044744-.302796.111561-.442786l12.64359-27.248387c.15288-.33567.15288-.713393 0-1.049063l2.402282-13.1745954c-.081812-.1771146-3.569955-2.5954089-3.718703-2.7248388l-9.542191-1.7166483c-.20662-.1784616-.464701-.2990164-.743741-.347417l-15.551615-2.677154c-.098839-.0104145-.198656-.0104145-.297496 0l-41.061915.6062766h-.096687l-21.620537 1.0899355-.223123.0136242z" fill="#C4C3C7"/>
      <path fill="#000" d="M279.435814 168.922644l-11.009054.184542 8.030477 3.548868 6.855108-2.895877"/>
      <path d="M318.2934701 120.3883232s3.5889115-8.6631818 5.9496504-16.0607268c2.3607388-7.397545 2.7872898-9.3264566 2.7872898-9.3264566s4.0448797 1.712332 1.6914951 11.2079914c-1.4802232 5.7388971-5.1891532 10.7818042-10.4284353 14.179192z" stroke="#000" stroke-width="4" fill="#000"/>
      <path fill="#FFF" d="M379.3243696 83.3808221l-34.9811253 12.3669996.5507666-28.3132024 34.4303587-3.0474359zM258.284773 51.9794563c-1.210164-.8053299-1.874697-2.1345608-1.752029-3.5044914.073925-2.49057058 7.828688-1.2112611 13.62443-1.85091584 5.795743-.63965474 9.839456.82338536 15.006833 1.6807949 5.1673775.85740954 13.2400186 3.55212524 15.5243099 3.92639134 2.2842913.3742661 9.4180814 4.2734381 9.4180814 4.2734381l-1.4785057 3.4024188s-6.4906401-3.7222462-10.2608296-4.484388c-3.7701896-.7621418-10.704381-1.6944046-14.186262-2.3748884-3.481881-.6804837-15.768264 1.4290159-18.887911.8437999-2.376383-.5046485-4.716832-1.1432384-7.008117-1.9121594z"/>
      <path fill="#000" d="M162.330125 114.4148683l3.386096 6.7201368-10.419909-6.7201368"/>
      <path fill="#FFF" d="M267.68248 169.669326l1.488559 12.693592 6.698513-9.353173zM158.899802 116.6549139l-6.580607 1.6004917 13.397026 2.8795995z"/>
      <g>
        <path d="M159.0420644 268.023804c.0547915-.105601.1062124-.212929.1541844-.321818l19.7252498-44.7735233c1.0868089-.1657859 2.2514003-.3447397 3.4788195-.5348952 4.8886257-.7573607 9.7779364-1.5376462 14.3458782-2.2986228 1.4367995-.2393574 2.8218095-.4735408 4.1490634-.7017759 9.2599263-1.5923402 14.5586446-2.6377362 17.1410018-3.6092832l35.06778729-7.4922523c.51784315-.1106375 1.01736299-.2946236 1.48354478-.546428 1.72344836-.930907 3.01713092-2.5243988 3.52804184-4.4521959.53123246-2.0044755.14746929-4.1231527-1.01535975-5.7993081-5.03467992-7.3102882-7.92954174-8.4683474-19.43747056-7.9950294l-32.3198424.465227-44.615323.3752615-22.6561317-3.2108875-6.825857-1.2878189c.049932-.830946.169827-1.7739289.355205-2.7687489.507895-2.7255884 1.448957-5.4298128 2.082712-6.3627553.129368-.1904421.246896-.3887143.351911-.5936854l6.878609-13.4258054c4.972142-6.5717036 5.605505-14.851645 2.951362-23.6313653l-.253344-.85671724c-1.27832-4.25168937-5.453361-6.90386017-9.889928-6.56893192l-.89968.07248163c-3.770368.28677705-7.251177 2.12509814-9.484702 5.08587262-.044411.05887098-.087656.11861728-.129712.17920385l-5.726987 8.25046086-18.594058 23.2367008-7.891347 8.3592269c-1.309039 1.2006933-2.435793 2.568133-3.345686 4.0650532l-10.676429 14.9674798c-.150678.2112373-.286523.4327359-.406552.6628914l-4.066327 7.7971756-52.907388-5.0540016c-3.277123-.3130486-6.111217 2.272326-6.111217 5.5748987v52.7557397c0 3.154845 2.596387 5.687023 5.739825 5.597878l46.685006-1.323946 18.813931 6.494249c8.261377 4.128141 13.464559 5.497604 26.381293 7.572262l19.799805 3.166954c10.951307 3.381647 23.04534-1.2499 28.1401114-11.069221z" fill="#000"/>
        <path d="M216.7896905 196.4161731s29.8612536-5.7069081 31.7057345 2.8500772c.39688098.2920225.60099013.7485451.54060535 1.2091499-.06038478.4606048-.37681585.8608549-.83810225 1.0601059l-36.5400595 7.6519844-.2082479.0742912-41.7388183 6.8077672c-.418214.1082126-.7633377.3771922-.9445527.7361574L147.733217 266.351124c-1.592992 1.768055-3.634745 3.158604-5.949938 4.052242-3.40634 1.296718-7.824169-.580821-8.181166-.675374l-24.707119-2.026121c-5.823973-1.324122-11.476067-3.207783-16.860638-5.619109l-14.74841-6.915827c-.572682-.195859-7.645671-3.674033-7.645671-3.674033 0-.148583-47.599508 3.518697-47.599508 3.376868l-.743742-45.925414c0-.1148135 54.969994 4.1603022 55.036931 4.0522424l7.095301-6.5038491.089249-.1215673c2.392947-4.1352843 4.509018-8.3978798 6.336685-12.7645636 2.02948-4.9894901 4.932719-9.648729 8.597661-13.7978855l11.431319-12.832101 14.941783-16.5534104 8.25554-12.03515999c.171061-.2161196 1.41311-.67537374 2.022979-.29041071 2.242651 1.48841572 3.722041 3.741228 4.09802 6.2404533.165304 1.5879722.127868 3.1879751-.111561 4.7681386-.006915.1513437-.044744.3002024-.111562.438993l-12.643619 27.0149495c-.15288.3327941-.15288.7072815 0 1.0400756l-2.402288 13.1090042c.081812.1755972 3.569963 2.573174 3.718712 2.701495l9.542214 1.7019418c.20662.1769327.464701.2964547.743742.3444406l15.551652 2.6812338c.098839.0103252.198657.0103252.297497 0l41.0620124-.6010827h.0966865l21.6205889-1.0805979.2231227-.0405225z" fill="#C4C3C7"/>
        <path d="M178.5308451 215.6093189s-24.3651881-6.1749297-36.9681281-5.1084127c-12.60294 1.066517-13.837939-.1222758-15.623479 6.793102-1.785541 6.9153778 2.179847 10.189653 5.572374 10.3119288 3.392527.1222758 34.3046968 10.964067 38.8355058 11.140687 4.530809.176621 8.5333957-4.999723 10.2519784-11.140687 1.7185827-6.1409642.0818373-7.4927915-2.0682511-11.9966181z" stroke="#000" stroke-width="9" fill="#000"/>
        <path d="M173.6838941 238.813987s-23.8511591-4.567667-35.1246171-6.936338c-12.742606-2.6673-10.141615-7.7507806-14.45911 2.877698-2.436086 5.986155-2.038817 12.841049 1.064382 13.31614 3.1032.475092 27.733907 10.920321 31.893993 11.53794 4.1600856.617619 9.16718-4.750916 12.3228488-9.902267 3.1556688-5.151351 5.1345204-6.766662 4.3025033-10.893173z" stroke="#000" stroke-width="7" fill="#000"/>
        <path d="M177.2233013 218.0807104s-24.0239003-4.716879-34.4713313-4.716879c-10.44743 0-12.605132 1.3476797-12.605132 1.3476797s-2.09097 5.3907188 0 7.4122384c2.090969 2.0215195 3.232845 2.0215195 9.498338 3.3691992 6.265492 1.3476797 30.2968074 9.4337583 33.433261 6.7383983 3.1364536-2.6953592 7.2813179-7.4122381 4.1448643-14.1506366zM166.3122441 236.834237s-21.2920921-4.090751-31.6275501-5.4543347c-10.545011-1.3635838-11.600261 12.2722537-5.276248 13.6358377 6.324014 1.363584 27.414036 10.90867 30.5797849 8.181502 3.1657486-2.727167 9.4897618-9.545086 6.3240132-16.363005z" fill="#C4C3C7"/>
        <path d="M147.799871 269.172969s-16.386806-1.377131-17.638162-7.574224l-2.517609-12.394184c-.04154 2.077509-.253187 4.149128-.633127 6.197092-.625678 3.442829 10.05554 10.066832 17.064624 12.394185 7.009084 2.327352 3.724274 1.377131 3.724274 1.377131z" stroke="#000" stroke-width="9" fill="#000" stroke-linejoin="bevel"/>
        <path d="M177.3764737 218.5906045s-13.2076566 4.5357793-9.5654338 9.9988734c2.9432104 4.3341891 7.5714087 5.4765331 9.9333351-1.9419855.9053268-2.6431896.7752548-5.4917118-.3679013-8.0568879zM166.9733648 236.510969s-9.7576778 2.993016-9.4668608 7.315518c.290817 4.322502 3.3443961 5.378074 3.3443961 5.378074s7.6530809-1.055572 6.1224647-12.693592zM146.335941 256.67138s.444536 11.814636 2.882537 7.104134c2.438-4.710502 1.333607-4.801222 1.333607-4.801222l-4.216144-2.302912z" fill="#FFF"/>
        <path d="M59.999547 256.67138s7.308822-5.813737 6.088204-10.175727c-1.220618-4.361991 7.308822-4.004118 7.308822-4.004118l-3.044102 13.443843-10.352924.736002zM84.560762 199.176876s-3.588911 8.6631818-5.94965 16.0607268c-2.360739 7.397545-2.78729 9.3264566-2.78729 9.3264566s-4.04488-1.712332-1.691495-11.2079914c1.480223-5.738897 5.189153-10.7818041 10.428435-14.179192z" stroke="#000" stroke-width="4" fill="#000"/>
        <path fill="#FFF" d="M22.041304 234.875411l37.958243-11.0580335-3.494311 28.3132025-34.102705 3.047436zM115.076212 239.925574s0 24.308596-19.971551 17.914125c-19.971552-6.394471-13.136843-24.315457-13.136843-24.315457l33.108394 6.401332zM242.8280388 194.4547569s4.5328058.5958007 5.4408556 2.6777557c.90804981 2.081955-16.9477816 2.1087326-29.6009343 3.4476104-12.6531528 1.3388778-22.3290931.6694389-34.2379427.6694389H148.703469c-5.210122 0-22.329094-5.3555113-22.329094-5.3555113l-.133974-4.1839932s16.858465 5.2885674 25.618913 5.4090664c8.7604472.120499 24.6215463-.0602495 32.6897919 0 8.0682456.0602495 34.5952082-3.3806665 41.8000622-3.3471946 7.204854.033472 16.4788707.6828277 16.4788707.6828277z"/>
        <path d="M125.502964 190.2166937c-.555052 3.2225597-.803364 6.4850896-.741999 9.7489708 0 6.2671955 2.967994 2.0890652 2.967994-8.3562607" stroke="#000" stroke-width="4" fill="#000"/>
      </g>
    </g>
  </g>
</svg>
