<svg xmlns="http://www.w3.org/2000/svg" viewBox="0 0 569.43 442.16">
    <defs>
        <pattern id="lines" data-name="lines" width="16" height="16" patternTransform="translate(224 304)" patternUnits="userSpaceOnUse">
            <path fill="none" d="M0 0h16v16H0z"/>
            <path class="cls-2" d="M1.98 78.02l66-66M-14.02 78.02l66-66M-30.02 78.02l66-66M-46.02 78.02l66-66M-62.02 78.02l66-66M1.98 62.02l66-66M-14.02 62.02l66-66M-30.02 62.02l66-66M-46.02 62.02l66-66M-62.02 62.02l66-66M1.98 46.02l66-66M-14.02 46.02l66-66M-30.02 46.02l66-66M-46.02 46.02l66-66M-62.02 46.02l66-66M1.98 30.02l66-66M-14.02 30.02l66-66M-30.02 30.02l66-66M-46.02 30.02l66-66M-62.02 30.02l66-66M1.98 14.02l66-66M-14.02 14.02l66-66M-30.02 14.02l66-66M-46.02 14.02l66-66M-62.02 14.02l66-66"/>
        </pattern>
        <style>
            .cls-2,.cls-4,.cls-5{fill:none}.cls-2,.cls-3,.cls-4,.cls-5{stroke:currentColor;stroke-miterlimit:10}.cls-2,.cls-5{stroke-linecap:square}.cls-2{stroke-width:2px}.cls-3,.cls-4,.cls-5{stroke-width:12px}.cls-3{fill:url(#lines)}
        </style>
    </defs>
    <g id="Layer_2" data-name="Layer 2">
        <g id="Layer_13" data-name="Layer 13">
            <path class="cls-3" d="M446.72 253.19l78.93 36.53h4V94.86h-4.83l-78.11 36.53"/>
            <path class="cls-4" d="M83.41 59.73V37.38h362.4v287.54h-311.4"/>
            <path class="cls-4" d="M362.57 92.86A19.17 19.17 0 10381.73 112a19.19 19.19 0 00-19.16-19.14zM554.58 94.86h-24.92v194.86h24.92a8.86 8.86 0 008.85-8.86V103.71a8.85 8.85 0 00-8.85-8.85zM160.02 6h91.08v31.24h-91.08z"/>
            <path class="cls-3" d="M252.44 435.99v-77.25h30.76v77.25h-30.76z"/>
            <path class="cls-4" d="M11.06 436.16h360.61M209.49 325.05h110.24v10.29a23.23 23.23 0 01-23.23 23.23h-63.78a23.23 23.23 0 01-23.23-23.23v-10.29z"/>
            <path class="cls-3" d="M132.24 83.93a57.56 57.56 0 01-29.33 90.46v2.68h32.22c17.83 0 32.29 17.19 32.29 38.38v63.13h113.21V83.93z"/>
            <path class="cls-5" d="M86.71 176.71a57.56 57.56 0 01-57.57-57.57 57.56 57.56 0 0157.57-57.56 57.56 57.56 0 0157.57 57.56 57.56 57.56 0 01-57.57 57.57zM127.06 436.13H46.35L38.28 321 6 311.4v-95.95c0-21.19 14.46-38.38 32.28-38.38h96.86c17.82 0 32.28 17.19 32.28 38.38v95.95l-32.28 9.6z"/>
            <path d="M105.55 135.17A26.56 26.56 0 0186.71 143h0a26.56 26.56 0 01-18.84-7.8" fill="#fff" stroke-width="12" stroke-linecap="square" stroke="currentColor" stroke-miterlimit="10"/>
        </g>
    </g>
</svg>
