<svg xmlns="http://www.w3.org/2000/svg" xmlns:xlink="http://www.w3.org/1999/xlink" width="655" height="224" viewBox="0 0 655 224">
  <defs>
    <polygon id="logo-construction-schematics-white-a" points=".295 .058 13.044 .058 13.044 .591 .295 .591"/>
    <polygon id="logo-construction-schematics-white-c" points=".024 .058 602.43 .058 602.43 .591 .024 .591"/>
  </defs>
  <g fill="none" fill-rule="evenodd" transform="translate(0 -5)">
    <g stroke="#D2E2F6" stroke-linecap="round" stroke-linejoin="round" stroke-width=".5" transform="translate(26.632 30.383)">
      <line x1="128.426" x2="128.426" y1="197.469" y2=".24"/>
      <line x1="119.028" x2="119.028" y1="197.469" y2=".24"/>
      <line x1="102.112" x2="102.112" y1="197.469" y2=".24"/>
      <line x1="111.51" x2="111.51" y1="197.469" y2=".24"/>
      <line x1="85.197" x2="85.197" y1="197.469" y2=".24"/>
      <line x1="94.595" x2="94.595" y1="197.469" y2=".24"/>
      <line x1=".615" x2=".615" y1="197.306" y2=".241"/>
      <line x1="47.605" x2="47.605" y1="197.306" y2=".241"/>
      <line x1="556.032" x2="556.032" y1="197.469" y2=".24"/>
      <line x1="156.62" x2="156.62" y1="197.469" y2=".24"/>
      <line x1="170.717" x2="170.717" y1="197.469" y2=".24"/>
      <line x1="180.115" x2="180.115" y1="197.469" y2=".24"/>
    </g>
    <line x1="27.248" x2="14.499" y1="77.419" y2="77.419" stroke="#D2E2F6" stroke-dasharray="1.944 1.944" stroke-linecap="round" stroke-linejoin="round" stroke-width=".5"/>
    <line x1="27.248" x2="14.499" y1="30.623" y2="30.623" stroke="#D2E2F6" stroke-dasharray="1.944 1.944" stroke-linecap="round" stroke-linejoin="round" stroke-width=".5"/>
    <line x1="642.403" x2="629.654" y1="107.636" y2="107.636" stroke="#D2E2F6" stroke-dasharray="1.944 1.944" stroke-linecap="round" stroke-linejoin="round" stroke-width=".5"/>
    <line x1="642.403" x2="629.654" y1="154.595" y2="154.595" stroke="#D2E2F6" stroke-dasharray="1.944 1.944" stroke-linecap="round" stroke-linejoin="round" stroke-width=".5"/>
    <g transform="translate(14.204 227.335)">
      <mask id="logo-construction-schematics-white-b" fill="#fff">
        <use xlink:href="#logo-construction-schematics-white-a"/>
      </mask>
      <line x1="13.044" x2=".295" y1=".354" y2=".354" stroke="#D2E2F6" stroke-dasharray="1.944 1.944" stroke-linecap="round" stroke-linejoin="round" stroke-width=".5" mask="url(#logo-construction-schematics-white-b)"/>
    </g>
    <line x1="27.248" x2="14.499" y1="180.73" y2="180.73" stroke="#D2E2F6" stroke-dasharray="1.944 1.944" stroke-linecap="round" stroke-linejoin="round" stroke-width=".5"/>
    <line x1="629.654" x2="629.654" y1="227.852" y2="30.623" stroke="#D2E2F6" stroke-linecap="round" stroke-linejoin="round" stroke-width=".5"/>
    <line x1="27.248" x2="629.654" y1="107.636" y2="107.636" stroke="#D2E2F6" stroke-linecap="round" stroke-linejoin="round" stroke-width=".5"/>
    <line x1="27.248" x2="629.654" y1="154.595" y2="154.595" stroke="#D2E2F6" stroke-linecap="round" stroke-linejoin="round" stroke-width=".5"/>
    <line x1="27.248" x2="629.654" y1="180.73" y2="180.73" stroke="#D2E2F6" stroke-linecap="round" stroke-linejoin="round" stroke-width=".5"/>
    <g transform="translate(27.224 227.335)">
      <mask id="logo-construction-schematics-white-d" fill="#fff">
        <use xlink:href="#logo-construction-schematics-white-c"/>
      </mask>
      <line x1=".024" x2="602.43" y1=".354" y2=".354" stroke="#D2E2F6" stroke-linecap="round" stroke-linejoin="round" stroke-width=".5" mask="url(#logo-construction-schematics-white-d)"/>
    </g>
    <line x1="27.248" x2="629.654" y1="30.623" y2="30.623" stroke="#D2E2F6" stroke-linecap="round" stroke-linejoin="round" stroke-width=".5"/>
    <line x1="27.248" x2="629.654" y1="77.41" y2="77.41" stroke="#D2E2F6" stroke-linecap="round" stroke-linejoin="round" stroke-width=".5"/>
    <line x1="197.349" x2="197.349" y1="30.46" y2="17.719" stroke="#D2E2F6" stroke-dasharray="1.944 1.944" stroke-linecap="round" stroke-linejoin="round" stroke-width=".5"/>
    <line x1="206.747" x2="206.747" y1="30.46" y2="17.719" stroke="#D2E2F6" stroke-dasharray="1.944 1.944" stroke-linecap="round" stroke-linejoin="round" stroke-width=".5"/>
    <line x1="582.664" x2="582.664" y1="30.46" y2="29.573" stroke="#D2E2F6" stroke-linecap="round" stroke-linejoin="round" stroke-width=".5"/>
    <line x1="582.664" x2="582.664" y1="28.006" y2="19.39" stroke="#D2E2F6" stroke-dasharray="1.717 1.717" stroke-linecap="round" stroke-linejoin="round" stroke-width=".5"/>
    <line x1="582.664" x2="582.664" y1="18.606" y2="17.719" stroke="#D2E2F6" stroke-linecap="round" stroke-linejoin="round" stroke-width=".5"/>
    <line x1="27.248" x2="27.248" y1="30.46" y2="29.573" stroke="#D2E2F6" stroke-linecap="round" stroke-linejoin="round" stroke-width=".5"/>
    <line x1="27.248" x2="27.248" y1="28.006" y2="19.39" stroke="#D2E2F6" stroke-dasharray="1.717 1.717" stroke-linecap="round" stroke-linejoin="round" stroke-width=".5"/>
    <line x1="27.248" x2="27.248" y1="18.606" y2="17.719" stroke="#D2E2F6" stroke-linecap="round" stroke-linejoin="round" stroke-width=".5"/>
    <line x1="155.059" x2="155.059" y1="30.46" y2="17.719" stroke="#D2E2F6" stroke-dasharray="1.944 1.944" stroke-linecap="round" stroke-linejoin="round" stroke-width=".5"/>
    <line x1="145.661" x2="145.661" y1="30.46" y2="17.719" stroke="#D2E2F6" stroke-dasharray="1.944 1.944" stroke-linecap="round" stroke-linejoin="round" stroke-width=".5"/>
    <line x1="128.744" x2="128.744" y1="30.46" y2="17.719" stroke="#D2E2F6" stroke-dasharray="1.944 1.944" stroke-linecap="round" stroke-linejoin="round" stroke-width=".5"/>
    <line x1="121.225" x2="121.225" y1="30.46" y2="17.719" stroke="#D2E2F6" stroke-dasharray="1.944 1.944" stroke-linecap="round" stroke-linejoin="round" stroke-width=".5"/>
    <line x1="111.829" x2="111.829" y1="30.46" y2="17.719" stroke="#D2E2F6" stroke-dasharray="1.944 1.944" stroke-linecap="round" stroke-linejoin="round" stroke-width=".5"/>
    <line x1="74.237" x2="74.237" y1="30.46" y2="17.719" stroke="#D2E2F6" stroke-dasharray="1.944 1.944" stroke-linecap="round" stroke-linejoin="round" stroke-width=".5"/>
    <line x1="629.654" x2="629.654" y1="30.46" y2="17.719" stroke="#D2E2F6" stroke-dasharray="1.944 1.944" stroke-linecap="round" stroke-linejoin="round" stroke-width=".5"/>
    <line x1="138.142" x2="138.142" y1="30.46" y2="17.719" stroke="#D2E2F6" stroke-dasharray="1.944 1.944" stroke-linecap="round" stroke-linejoin="round" stroke-width=".5"/>
    <line x1="183.252" x2="183.252" y1="30.46" y2="17.719" stroke="#D2E2F6" stroke-dasharray="1.944 1.944" stroke-linecap="round" stroke-linejoin="round" stroke-width=".5"/>
    <g transform="translate(0 .476)">
      <text fill="#999" font-family="Inter-Regular, Inter" font-size="6.804">
        <tspan x="165.586" y="9.509">3a</tspan>
      </text>
      <text fill="#999" font-family="Inter-Regular, Inter" font-size="6.804">
        <tspan x=".002" y="131.596">11a</tspan>
      </text>
      <text fill="#999" font-family="Inter-Regular, Inter" font-size="6.804">
        <tspan x="647.417" y="133.372">5a</tspan>
      </text>
      <text fill="#999" font-family="Inter-Regular, Inter" font-size="6.804">
        <tspan x=".002" y="54.955">5a</tspan>
      </text>
      <text fill="#999" font-family="Inter-Regular, Inter" font-size="6.804">
        <tspan x=".002" y="206.689">5a</tspan>
      </text>
      <text fill="#999" font-family="Inter-Regular, Inter" font-size="6.804">
        <tspan x="148.739" y="9.503">a</tspan>
      </text>
      <text fill="#999" font-family="Inter-Regular, Inter" font-size="6.804">
        <tspan x="200.466" y="9.503">a</tspan>
      </text>
      <text fill="#999" font-family="Inter-Regular, Inter" font-size="6.804">
        <tspan x="184.558" y="9.503">1,5a</tspan>
      </text>
      <text fill="#999" font-family="Inter-Regular, Inter" font-size="6.804">
        <tspan x="131.868" y="9.503">a</tspan>
      </text>
      <text fill="#999" font-family="Inter-Regular, Inter" font-size="6.804">
        <tspan x="387.054" y="9.342">40a</tspan>
      </text>
      <text fill="#999" font-family="Inter-Regular, Inter" font-size="6.804">
        <tspan x="47.703" y="9.342">5a</tspan>
      </text>
      <text fill="#999" font-family="Inter-Regular, Inter" font-size="6.804">
        <tspan x="90.301" y="9.342">4a</tspan>
      </text>
      <text fill="#999" font-family="Inter-Regular, Inter" font-size="6.804">
        <tspan x="602.867" y="9.342">5a</tspan>
      </text>
      <text fill="#999" font-family="Inter-Regular, Inter" font-size="6.804">
        <tspan x="115.003" y="9.342">a</tspan>
      </text>
      <path fill="#000" d="M471.739969,118.910163 C469.17439,121.660984 467.891304,125.368767 467.891304,130.033511 C467.891304,134.697073 469.17439,138.404856 471.739969,141.155677 C474.305549,143.90709 477.647016,145.282205 481.764371,145.282205 C485.881727,145.282205 489.223194,143.90709 491.788773,141.155677 C494.354353,138.404856 495.637438,134.697073 495.637438,130.033511 C495.637438,125.368767 494.354353,121.660984 491.788773,118.910163 C489.223194,116.159933 485.881727,114.784226 481.764371,114.784226 C477.647016,114.784226 474.305549,116.159933 471.739969,118.910163 L471.739969,118.910163 Z M197.44965,99.6461334 L206.847897,99.6461334 L206.847897,90.2539507 L197.44965,90.2539507 L197.44965,99.6461334 Z M511.490766,154.119019 L511.490766,107.15988 L520.888421,107.15988 L520.888421,113.438684 L521.335844,113.438684 C521.455393,113.258884 521.604534,113.005153 521.783266,112.676308 C521.962591,112.346872 522.439605,111.764297 523.215493,110.927399 C523.991381,110.089909 524.841248,109.357698 525.766277,108.729581 C526.691305,108.102055 527.959004,107.533674 529.570554,107.02503 C531.181513,106.516976 532.912022,106.262654 534.761488,106.262654 C536.909236,106.262654 538.893639,106.561335 540.713513,107.15988 C542.533388,107.757833 543.965615,108.475258 545.009601,109.312156 C546.05418,110.149646 546.933638,110.971757 547.649751,111.779083 C548.365864,112.587 548.84347,113.289048 549.081978,113.887001 L549.5294,114.784226 L549.977415,114.784226 C550.096373,114.54469 550.260901,114.231223 550.469225,113.842642 C550.678141,113.45347 551.230317,112.780994 552.125163,111.824624 C553.020601,110.867071 554.004812,110.015387 555.078982,109.267206 C556.153152,108.520208 557.644562,107.832947 559.553802,107.20483 C561.463635,106.576121 563.491834,106.262654 565.640173,106.262654 C570.890882,106.262654 575.03842,107.937041 578.081014,111.285816 C581.124199,114.63459 582.645792,119.389235 582.645792,125.548567 L582.645792,154.119019 L573.248137,154.119019 L573.248137,125.996292 C573.248137,118.521582 569.966444,114.784226 563.403059,114.784226 C560.18055,114.784226 557.435646,116.010297 555.168348,118.461845 C552.900459,120.913986 551.767106,124.023816 551.767106,127.790743 L551.767106,154.119019 L542.369451,154.119019 L542.369451,125.996292 C542.369451,118.521582 539.087759,114.784226 532.523782,114.784226 C529.301864,114.784226 526.55696,116.010297 524.289663,118.461845 C522.022365,120.913986 520.888421,124.023816 520.888421,127.790743 L520.888421,154.119019 L511.490766,154.119019 Z M465.433438,147.255865 C461.375857,142.830065 459.347067,137.089477 459.347067,130.033511 C459.347067,122.976954 461.390653,117.250561 465.478417,112.855517 C469.565589,108.460472 474.681952,106.262654 480.828098,106.262654 C483.632776,106.262654 486.228539,106.830443 488.614794,107.967205 C491.001641,109.103375 492.702558,110.209382 493.716953,111.285816 L495.148587,112.989775 L495.59601,112.989775 L495.59601,107.15988 L504.994257,107.15988 L504.994257,154.119019 L495.59601,154.119019 L495.59601,146.627156 L495.148587,146.627156 C495.02963,146.806956 494.83551,147.061278 494.566819,147.390123 C494.298129,147.718968 493.716953,148.301543 492.821515,149.139033 C491.92667,149.975931 490.972049,150.709325 489.957654,151.336851 C488.943259,151.964968 487.60099,152.532757 485.929665,153.041402 C484.259523,153.549455 482.558606,153.803777 480.828098,153.803777 C474.681952,153.803777 469.550793,151.621337 465.433438,147.255865 L465.433438,147.255865 Z M421.208413,125.548567 L448.059702,125.548567 C447.582095,122.617945 446.165256,120.091283 443.808001,117.968578 C441.451337,115.845283 438.393356,114.784226 434.634057,114.784226 C431.412139,114.784226 428.532891,115.755974 425.996903,117.69947 C423.460915,119.642966 421.864752,122.258937 421.208413,125.548567 L421.208413,125.548567 Z M416.83302,146.986756 C412.357608,142.381748 410.120494,136.73106 410.120494,130.033511 C410.120494,123.335371 412.372404,117.69947 416.877999,113.124625 C421.383003,108.549781 426.887014,106.262654 433.391216,106.262654 C439.895418,106.262654 445.39943,108.549781 449.904433,113.124625 C454.409436,117.69947 456.661938,123.335371 456.661938,130.033511 L456.661938,133.172322 L419.518149,133.172322 C420.174488,136.880105 421.785447,139.824921 424.351026,142.007953 C426.917197,144.190393 429.930199,145.282205 433.391216,145.282205 C436.195894,145.282205 438.672108,144.758774 440.819856,143.712504 C442.968195,142.665642 444.430013,141.604586 445.205901,140.528152 L446.369437,139.003401 L456.214515,139.003401 C456.095558,139.422145 455.886642,139.959771 455.58836,140.61746 C455.290078,141.27515 454.528986,142.456861 453.305675,144.160821 C452.082364,145.864781 450.695117,147.360551 449.143933,148.645766 C447.592156,149.931572 445.414817,151.112692 442.610139,152.189126 C439.80546,153.26556 436.732683,153.803777 433.391216,153.803777 C426.887014,153.803777 421.367615,151.530845 416.83302,146.986756 L416.83302,146.986756 Z M392.112909,115.68086 L392.012298,154.119019 L382.614643,154.119019 L382.715254,113.959157 C382.715254,110.204059 385.761398,107.15988 389.518922,107.15988 L392.112909,107.15988 L410.461388,107.15988 L410.461388,115.68086 L392.112909,115.68086 Z M348.256002,115.68086 L348.256002,107.15988 L353.626259,107.15988 L353.626259,97.2927647 L363.024506,97.2927647 L363.024506,107.15988 L376.897573,107.15988 L376.897573,115.68086 L363.024506,115.68086 L363.024506,145.597446 L377.344996,145.597446 L377.344996,154.119019 L361.402303,154.119019 C357.10799,154.119019 353.626259,150.639534 353.626259,146.347993 L353.626259,115.68086 L348.256002,115.68086 Z M304.854211,139.160726 L315.147304,139.160726 C315.207079,139.340526 315.31124,139.57947 315.460381,139.878151 C315.609522,140.177424 315.967579,140.715641 316.534551,141.493394 C317.101524,142.270555 317.757862,142.957817 318.503567,143.556362 C319.249272,144.154315 320.323442,144.692532 321.725485,145.170421 C323.12812,145.648902 324.664508,145.888438 326.335242,145.888438 C329.616935,145.888438 332.003782,145.380385 333.495191,144.363096 C334.987192,143.346398 335.732897,142.061183 335.732897,140.506268 C335.732897,139.071417 334.748685,137.935247 332.779078,137.097758 C330.810062,136.26086 328.423807,135.573007 325.619129,135.03479 C322.81445,134.496572 320.010364,133.793933 317.205686,132.926871 C314.401007,132.059218 312.01416,130.579417 310.045145,128.486285 C308.076129,126.393153 307.091917,123.673087 307.091917,120.324313 C307.091917,116.736002 308.732468,113.5966 312.01416,110.905515 C315.296445,108.21443 319.622124,106.868887 324.992382,106.868887 C328.333849,106.868887 331.31726,107.362746 333.942614,108.34928 C336.56856,109.335814 338.537575,110.53172 339.850252,111.936999 C341.162929,113.342278 342.251895,114.747557 343.117149,116.152835 C343.982403,117.558114 344.533988,118.769398 344.773087,119.785504 L345.131144,121.220947 L335.285474,121.220947 C335.225699,121.041738 335.136333,120.832366 335.016784,120.593421 C334.897826,120.353294 334.584157,119.890191 334.076959,119.202337 C333.569761,118.515076 332.973198,117.916531 332.287268,117.408478 C331.600746,116.900425 330.616534,116.43673 329.333448,116.017985 C328.050363,115.599241 326.603341,115.39046 324.992382,115.39046 C322.367028,115.39046 320.367829,115.868349 318.995969,116.825902 C317.623517,117.782864 316.936995,118.978179 316.936995,120.413621 C316.936995,121.609528 317.638313,122.61144 319.040356,123.418765 C320.442991,124.225499 322.217887,124.809258 324.366226,125.167675 C326.513974,125.526683 328.811455,126.049523 331.258077,126.737376 C333.704107,127.424637 336.001587,128.217177 338.149335,129.114402 C340.297675,130.011628 342.072571,131.431693 343.475206,133.375188 C344.877249,135.318684 345.578567,137.695711 345.578567,140.506268 C345.578567,144.333524 343.862854,147.607776 340.43202,150.328433 C337.000595,153.049682 332.302063,154.409419 326.335242,154.409419 C322.81445,154.409419 319.667103,153.88658 316.892608,152.839718 C314.117521,151.794039 312.01416,150.522428 310.582526,149.027841 C309.150299,147.533253 307.971967,146.037483 307.046938,144.542896 C306.121909,143.048309 305.540733,141.792075 305.301634,140.775377 L304.854211,139.160726 Z M260.549881,107.15988 L270.394959,107.15988 L280.452504,144.726836 L284.93265,144.726836 L295.903979,107.15988 L305.749057,107.15988 L286.631792,171.024356 L276.769551,171.024356 L282.096013,154.119019 L278.831484,154.119019 C275.631464,154.119019 272.826785,151.979754 271.981653,148.895356 L260.549881,107.15988 Z M225.911897,118.910163 C223.346318,121.660984 222.063232,125.368767 222.063232,130.033511 C222.063232,134.697073 223.346318,138.404856 225.911897,141.155677 C228.477476,143.90709 231.818944,145.282205 235.936299,145.282205 C240.053654,145.282205 243.395122,143.90709 245.960701,141.155677 C248.526872,138.404856 249.809366,134.697073 249.809366,130.033511 C249.809366,125.368767 248.526872,121.660984 245.960701,118.910163 C243.395122,116.159933 240.053654,114.784226 235.936299,114.784226 C231.818944,114.784226 228.477476,116.159933 225.911897,118.910163 L225.911897,118.910163 Z M219.020047,146.986756 C214.485452,142.441484 212.217562,136.790205 212.217562,130.033511 C212.217562,123.275635 214.485452,117.624356 219.020047,113.080267 C223.555233,108.534994 229.19359,106.262654 235.936299,106.262654 C242.679009,106.262654 248.317957,108.534994 252.852552,113.080267 C257.387146,117.624356 259.655036,123.275635 259.655036,130.033511 C259.655036,136.790205 257.387146,142.441484 252.852552,146.986756 C248.317957,151.530845 242.679009,153.803777 235.936299,153.803777 C229.19359,153.803777 223.555233,151.530845 219.020047,146.986756 L219.020047,146.986756 Z M183.352871,171.024356 L183.352871,162.503375 L197.44965,162.503375 L197.44965,107.15988 L206.847897,107.15988 L206.847897,163.253922 C206.847897,167.545463 203.366166,171.024356 199.071853,171.024356 L183.352871,171.024356 Z"/>
      <path fill="#4038FF" d="M128.747518 76.9468602L138.145765 76.9468602 138.145765 121.057589C138.145765 131.80182 134.114225 141.607425 127.497575 149.074447 128.315483 145.495599 128.747518 141.776579 128.747518 137.963518L128.747518 76.9468602zM98.6168457 153.954005L98.6168457 153.962877C94.0449655 159.596412 87.0939322 163.233221 79.2995423 163.339682L82.1136899 153.954005 98.6168457 153.954005zM104.307283 137.053281L104.307283 137.993682C104.307283 140.956833 103.801269 143.795188 102.860261 146.439549L84.3596815 146.439549 87.1649517 137.053281 104.307283 137.053281zM145.660457 76.9428384L155.058704 76.9428384 155.058704 104.18076C155.058704 114.925582 151.027163 124.730595 144.410514 132.197617 145.228421 128.618769 145.660457 124.899749 145.660457 121.086688L145.660457 76.9428384z"/>
      <path fill="#4038FF" d="M121.227737,76.9382251 L121.227737,137.993327 C121.227737,161.30463 102.240675,180.249869 78.9356266,180.249869 L74.2394623,180.249869 L77.0447325,170.863601 L78.9356266,170.863601 C96.9947011,170.863601 111.826531,156.205171 111.826531,137.993327 L111.826531,76.9382251 L121.227737,76.9382251 Z"/>
    </g>
  </g>
</svg>
