<svg width="171" height="36" viewBox="0 0 171 36" fill="none" xmlns="http://www.w3.org/2000/svg">
<path fill-rule="evenodd" clip-rule="evenodd" d="M41.6071 5.38989V8.49508H44.7353V5.38989H41.6071ZM91.4197 13.9728V11.1606H93.1903V7.90915H96.3182V11.1606H100.951V13.9728H96.3479V23.4636H101.099V26.2757H95.7871C94.3706 26.2757 93.1903 25.1333 93.1903 23.698V13.9728H91.4197ZM48.778 24.3132C47.273 22.8193 46.5058 20.9444 46.5058 18.7182C46.5058 16.492 47.273 14.6171 48.778 13.1232C50.283 11.6293 52.1717 10.8678 54.4144 10.8678C56.6571 10.8678 58.5162 11.6293 60.0508 13.1232C61.5558 14.6171 62.323 16.492 62.323 18.7182C62.323 20.9444 61.5558 22.8193 60.0508 24.3132C58.5458 25.8071 56.6571 26.5686 54.4144 26.5686C52.1421 26.5686 50.283 25.8071 48.778 24.3132ZM37.1217 31.9V29.0879H41.5776V11.1607H44.7056V29.3223C44.7056 30.7283 43.5547 31.9 42.1088 31.9H37.1217ZM49.7814 18.689C49.7814 17.1656 50.1944 15.9353 51.0503 15.0273C51.9061 14.1193 53.0274 13.6799 54.385 13.6505C55.7423 13.6505 56.8638 14.1193 57.7194 15.0273C58.5753 15.9353 58.9885 17.1656 58.9885 18.689C58.9885 20.2121 58.5753 21.4424 57.7194 22.3504C56.8638 23.2587 55.7423 23.7273 54.385 23.7273C53.0274 23.7273 51.9061 23.2587 51.0503 22.3504C50.1944 21.4424 49.7814 20.2121 49.7814 18.689ZM62.5591 11.1607H65.8347L69.1103 23.3171H70.7332L74.3041 11.1607H77.5797L71.3235 31.9H68.0479L69.8185 26.2757H68.6676C67.5168 26.2757 66.4838 25.5141 66.1888 24.4011L62.5591 11.1607ZM80.7076 21.5303H77.2844L77.4615 22.0868C77.55 22.4091 77.7567 22.8193 78.0518 23.3171C78.3764 23.8151 78.76 24.3132 79.2321 24.811C79.7044 25.3091 80.4126 25.7193 81.3273 26.0708C82.2421 26.4223 83.275 26.598 84.4553 26.598C86.4326 26.598 87.9965 26.1586 89.1474 25.2504C90.2982 24.3424 90.8591 23.2587 90.8591 21.9989C90.8591 21.0909 90.6229 20.3 90.1508 19.6556C89.6785 19.0111 89.0885 18.5424 88.3802 18.2496C87.6424 17.9565 86.9047 17.6929 86.0785 17.4587C85.2521 17.2243 84.485 17.0485 83.7767 16.9314C83.0685 16.8141 82.4782 16.6091 82.0061 16.3455C81.5338 16.0818 81.2979 15.7303 81.2979 15.3496C81.2979 14.8808 81.5338 14.5 81.9765 14.1777C82.4488 13.8557 83.0979 13.7091 83.9832 13.7091C84.5144 13.7091 85.0161 13.7678 85.4291 13.9141C85.8423 14.0606 86.167 14.2072 86.4029 14.3829C86.6391 14.5587 86.8162 14.7344 86.9932 14.9686L87.0688 15.0683L87.0689 15.0684L87.0689 15.0684C87.2037 15.2457 87.2927 15.3628 87.3179 15.4375C87.3473 15.5254 87.3768 15.5838 87.4064 15.6425H90.682L90.5638 15.1738C90.4753 14.8223 90.2982 14.4414 90.0032 13.9728C89.7082 13.5041 89.3541 13.0353 88.9114 12.5667C88.4688 12.1273 87.8194 11.7171 86.9341 11.3951C86.0488 11.0728 85.075 10.897 83.9538 10.897C82.1832 10.897 80.7371 11.3364 79.6453 12.2152C78.5535 13.094 78.0223 14.1485 78.0223 15.3202C78.0223 16.4334 78.3468 17.3121 78.9961 18.0152C79.6747 18.7182 80.442 19.1868 81.3864 19.4799C82.3306 19.7727 83.2455 20.0072 84.1897 20.1829C85.1341 20.3587 85.9309 20.5929 86.58 20.8565C87.2294 21.1201 87.5538 21.5011 87.5538 21.9697C87.5538 22.4677 87.3179 22.9071 86.8162 23.2292C86.3144 23.5515 85.5177 23.7273 84.4259 23.7273C83.8653 23.7273 83.3635 23.6394 82.8914 23.4929C82.4488 23.3465 82.065 23.1708 81.8291 22.9656C81.5929 22.7898 81.3568 22.5556 81.1797 22.292L80.8256 21.7647C80.7844 21.7033 80.7575 21.6418 80.735 21.5904C80.7254 21.5682 80.7165 21.5479 80.7076 21.5303ZM105.998 26.2757V13.9728H112.106V11.1607H105.998H105.142C103.873 11.1607 102.869 12.186 102.869 13.4163V26.2757H105.998ZM114.231 24.3132C112.755 22.7898 111.988 20.9152 111.988 18.7182C111.988 16.5212 112.755 14.6466 114.231 13.1232C115.736 11.6 117.565 10.8678 119.72 10.8678C121.874 10.8678 123.703 11.6293 125.208 13.1232C126.713 14.6466 127.451 16.492 127.451 18.7182V19.7435H115.116C115.323 20.9738 115.883 21.9405 116.71 22.6727C117.565 23.405 118.569 23.7565 119.72 23.7565C120.664 23.7565 121.461 23.5807 122.198 23.2292C122.907 22.8777 123.408 22.5262 123.644 22.1747L124.028 21.6768H127.304C127.281 21.7907 127.222 21.9224 127.155 22.0718C127.136 22.1145 127.117 22.1586 127.097 22.2041C127.008 22.4091 126.743 22.8193 126.33 23.3758C125.917 23.9322 125.474 24.4303 124.943 24.8697C124.441 25.2799 123.703 25.6898 122.759 26.0413C121.815 26.3928 120.811 26.5686 119.69 26.5686C117.565 26.5686 115.736 25.8071 114.231 24.3132ZM124.589 17.2243H115.677C115.913 16.1405 116.444 15.2909 117.27 14.6466C118.096 14.002 119.07 13.6799 120.133 13.6799C121.372 13.6799 122.376 14.0314 123.172 14.7344C123.969 15.408 124.441 16.2576 124.589 17.2243ZM130.373 24.4011C129.015 22.9364 128.336 21.0323 128.336 18.7182C128.336 16.4041 129.015 14.5 130.373 13.0353C131.73 11.5708 133.442 10.8678 135.478 10.8678C136.422 10.8678 137.278 11.0436 138.075 11.4243C138.871 11.805 139.432 12.1565 139.757 12.508L140.229 13.0648H140.376V11.1314H143.504V26.2465H140.376V24.1667H140.229C140.212 24.2008 140.174 24.2449 140.129 24.2989L140.129 24.299C140.096 24.3377 140.059 24.3814 140.022 24.4303C139.968 24.5026 139.868 24.5974 139.73 24.7283L139.73 24.7283L139.73 24.7284C139.645 24.8094 139.545 24.9043 139.432 25.0162C139.137 25.2799 138.812 25.5435 138.488 25.7485C138.163 25.9534 137.691 26.1292 137.16 26.305C136.599 26.4807 136.039 26.5686 135.478 26.5686C133.471 26.5686 131.76 25.8363 130.373 24.4011ZM146.219 11.1606V26.2465H149.318V17.9565C149.318 16.7262 149.672 15.7011 150.439 14.8808C151.206 14.0899 152.121 13.6799 153.184 13.6799C155.367 13.6799 156.459 14.9102 156.459 17.3708V26.2465H159.587V17.9565C159.587 16.7262 159.941 15.7011 160.709 14.8808C161.476 14.0899 162.391 13.6799 163.453 13.6799C165.637 13.6799 166.729 14.9102 166.729 17.3708V26.2171H169.857V17.195C169.857 15.1444 169.355 13.592 168.352 12.4788C167.348 11.3656 165.961 10.8091 164.22 10.8091C163.483 10.8091 162.833 10.9262 162.184 11.1314C161.564 11.3364 161.063 11.5708 160.709 11.805C160.355 12.0687 160.03 12.3323 159.735 12.6546C159.44 12.9769 159.233 13.2111 159.174 13.3284C159.159 13.3534 159.145 13.3767 159.131 13.3985L159.131 13.3996C159.066 13.5052 159.022 13.5778 158.997 13.6505H158.85L158.702 13.3576C158.613 13.1526 158.466 12.9182 158.23 12.6546C157.994 12.3909 157.699 12.0981 157.345 11.8345C157.02 11.5708 156.548 11.3364 155.928 11.1314C155.338 10.9262 154.659 10.8384 153.951 10.8384C153.361 10.8384 152.771 10.9262 152.239 11.102C151.708 11.2777 151.266 11.4535 150.971 11.6587C150.646 11.8637 150.38 12.1273 150.115 12.3909L150.115 12.3909C149.849 12.6838 149.701 12.8596 149.643 12.9769C149.608 13.045 149.574 13.1032 149.545 13.1516C149.525 13.1863 149.507 13.216 149.495 13.2405H149.347V11.1606H146.219ZM131.199 18.689C131.199 17.1656 131.612 15.9353 132.468 15.0273C133.324 14.1193 134.445 13.6799 135.802 13.6505C137.16 13.6505 138.281 14.1193 139.137 15.0273C139.993 15.9353 140.406 17.1656 140.406 18.689C140.406 20.2121 139.993 21.4424 139.137 22.3504C138.281 23.2587 137.16 23.7273 135.802 23.7273C134.445 23.7273 133.324 23.2587 132.468 22.3504C131.612 21.4424 131.199 20.2121 131.199 18.689Z" fill="#1F252E"/>
<path d="M25.3473 0H28.5638V9.16858C28.5638 12.8303 27.1768 16.1989 24.9047 18.7473C25.1997 17.517 25.3473 16.2575 25.3473 14.9393V0Z" fill="#4038FF"/>
<path d="M9.17588 26.1584C9.08735 26.2462 9.02826 26.3341 8.93973 26.422C8.91029 26.4514 8.88085 26.4807 8.8512 26.5099C8.76267 26.5978 8.7038 26.6856 8.61527 26.7443C8.58561 26.7735 8.52674 26.8322 8.49708 26.8614C8.40855 26.9493 8.32002 27.0372 8.20206 27.125C8.08409 27.2424 7.9659 27.3302 7.84794 27.4473C7.72997 27.5644 7.61179 27.6523 7.46438 27.7402C7.3462 27.8281 7.22823 27.9159 7.11027 28.0038C6.81502 28.1796 6.52 28.3553 6.22497 28.5019C6.16588 28.5311 6.10679 28.5605 6.01826 28.5897C5.92973 28.619 5.87086 28.6484 5.81176 28.6776C5.72323 28.7068 5.66414 28.7363 5.57561 28.7655C5.42821 28.8242 5.28059 28.8826 5.10353 28.9413C5.10353 28.9413 5.10353 28.9413 5.07409 28.9413C4.92647 28.9999 4.77885 29.0291 4.63144 29.0584H4.60179C4.45439 29.0878 4.30676 29.1462 4.15914 29.1757C3.98208 29.2049 3.77559 29.2636 3.59853 29.2636C3.53943 29.2636 3.48056 29.2928 3.42147 29.2928H3.39203C3.21497 29.322 3.06735 29.322 2.89029 29.322C2.80176 29.322 2.71323 29.322 2.6247 29.322C2.53617 29.322 2.44764 29.322 2.35912 29.322H2.24115L3.21497 26.1292H9.17588V26.1584Z" fill="#4038FF"/>
<path d="M22.7503 0V14.9393C22.7503 15.1737 22.7503 15.4374 22.7209 15.6716C22.7209 15.7889 22.7209 15.906 22.6914 16.0231C22.6914 16.1404 22.6618 16.2575 22.6618 16.3746C22.6618 16.4919 22.6323 16.609 22.6323 16.7261C22.6323 16.814 22.6029 16.9313 22.6029 17.0192V17.0484C22.6029 17.0776 22.6029 17.1071 22.6029 17.1071C22.5733 17.2242 22.5733 17.3413 22.5438 17.4292C22.5144 17.5465 22.5144 17.6636 22.4847 17.7514V17.7807C22.4553 17.8685 22.4553 17.9564 22.4259 18.0443C22.4259 18.0737 22.4259 18.0737 22.4259 18.103C22.3373 18.4545 22.2488 18.8352 22.1306 19.1867C22.1012 19.2746 22.0717 19.3919 22.0421 19.4798C22.0126 19.5969 21.9832 19.6848 21.9241 19.8019C21.8947 19.9192 21.8356 20.0071 21.8061 20.0949C21.7765 20.212 21.7176 20.2999 21.688 20.3878C21.6585 20.5049 21.5994 20.5928 21.57 20.6807C21.5406 20.7685 21.4815 20.8858 21.4224 20.9737C21.3929 21.0616 21.3338 21.1787 21.275 21.2666C21.2159 21.3545 21.1864 21.4716 21.1273 21.5594C21.0979 21.6473 21.0388 21.706 21.0094 21.7939C20.9209 21.9696 20.8323 22.1161 20.7141 22.2919C20.6256 22.4382 20.5371 22.5848 20.4485 22.7019C20.3897 22.8192 20.3306 22.9071 20.2421 22.9949C20.2126 23.0534 20.1535 23.112 20.1241 23.1413C20.0356 23.2586 19.9765 23.3464 19.8879 23.4343C19.7994 23.5514 19.7109 23.6393 19.6518 23.7564C19.4747 23.9616 19.2977 24.1666 19.1206 24.3715C19.1503 24.2544 19.1797 24.1374 19.2091 24.02C19.2388 23.9322 19.2388 23.8443 19.2682 23.7564C19.2682 23.7564 19.2682 23.7564 19.2682 23.7272C19.2682 23.698 19.2682 23.698 19.2682 23.6685C19.2977 23.5514 19.2977 23.4343 19.3273 23.317C19.3568 23.1707 19.3862 23.0242 19.3862 22.9071C19.3862 22.8192 19.4159 22.7313 19.4159 22.6726C19.4159 22.5848 19.4453 22.5261 19.4453 22.4382C19.4747 22.2919 19.4747 22.1454 19.5044 21.9696C19.5044 21.9404 19.5044 21.9404 19.5044 21.9109C19.5044 21.8817 19.5044 21.8817 19.5044 21.8525C19.5044 21.7352 19.5338 21.6473 19.5338 21.5302C19.5338 21.4423 19.5338 21.3545 19.5338 21.2666V21.3837C19.5338 21.2958 19.5338 21.2079 19.5338 21.12C19.5338 20.9737 19.5338 20.8564 19.5338 20.7101V0H22.7503Z" fill="#4038FF"/>
<path d="M16.937 0V20.7101C16.937 21.2079 16.9074 21.6768 16.8779 22.1454C16.8485 22.5555 16.7894 22.9363 16.7009 23.3464C16.5238 24.2837 16.2582 25.1919 15.9041 26.0412C15.6976 26.5685 15.432 27.0958 15.1664 27.5938C14.34 29.0585 13.2777 30.3767 12.0383 31.4897C9.4709 33.7745 6.07735 35.1514 2.38855 35.1514H0.5L1.47382 31.9585H2.41821C5.19206 31.9585 7.72997 30.9624 9.67762 29.3222C10.74 28.4434 11.6253 27.3889 12.2744 26.1878C12.4515 25.8949 12.5991 25.5726 12.7465 25.2503C12.9826 24.7231 13.1597 24.1958 13.3073 23.6393C13.4844 23.0242 13.6024 22.3798 13.6318 21.7352C13.6614 21.4131 13.6614 21.0908 13.6614 20.7685V0H16.937Z" fill="#4038FF"/>
<path d="M11.1235 20.3877V20.71C11.1235 20.9736 11.1235 21.2373 11.0941 21.4717C11.035 21.9695 10.9759 22.4676 10.8285 22.9362C10.7694 23.1706 10.7103 23.405 10.6218 23.61H3.98209L4.95591 20.4171H11.1235V20.3877Z" fill="#4038FF"/>
</svg>
