<svg xmlns="http://www.w3.org/2000/svg" width="192" height="242" viewBox="0 0 192 242">
  <g fill="#4038FF">
    <path d="M169.876057 2.7000624e-13L191.866569 2.7000624e-13 191.866569 62.9738073C191.866569 88.1237953 182.3837 111.260818 166.849771 128.76486 168.866791 120.314633 169.876057 111.663713 169.876057 102.609899L169.876057 2.7000624e-13zM59.3152168 179.666914C58.7099595 180.270502 58.3059502 180.87409 57.7006929 181.477677 57.4994448 181.679879 57.2981968 181.880572 57.0954356 182.081265 56.4901783 182.684853 56.0876822 183.28844 55.4824248 183.691335 55.2796636 183.892028 54.8771675 184.294923 54.6744063 184.495616 54.069149 185.099203 53.4638917 185.702791 52.6573863 186.306379 51.850881 187.112168 51.0428624 187.715756 50.2363571 188.520036 49.4298517 189.324317 48.6218332 189.927904 47.6140798 190.531492 46.8060612 191.13508 45.9995559 191.738667 45.1930505 192.342255 43.1745174 193.54943 41.1574974 194.756605 39.1404774 195.763088 38.7364681 195.963781 38.3324588 196.165983 37.7272015 196.366675 37.1219442 196.567368 36.7194481 196.76957 36.3154388 196.970263 35.7101815 197.170956 35.3061723 197.373158 34.700915 197.573851 33.6931615 197.976746 32.683895 198.378131 31.4733803 198.781026 31.4733803 198.781026 31.4733803 198.781026 31.2721323 198.781026 30.2628657 199.183921 29.2535991 199.384614 28.2458457 199.585307L28.0430845 199.585307C27.0353311 199.787508 26.0260645 200.188894 25.0167979 200.391096 23.8062833 200.591789 22.3945206 200.994684 21.184006 200.994684 20.7799967 200.994684 20.3775006 201.195377 19.9734914 201.195377L19.7722433 201.195377C18.5617287 201.396069 17.5524621 201.396069 16.3419475 201.396069 15.7366902 201.396069 15.1314329 201.396069 14.5261755 201.396069 13.9209182 201.396069 13.3156609 201.396069 12.7104036 201.396069L11.9038982 201.396069 18.5617287 179.466222 59.3152168 179.466222 59.3152168 179.666914zM152.120834-7.10542736e-15L152.120834 102.609899C152.120834 104.219969 152.120834 106.030732 151.919586 107.639293 151.919586 108.445082 151.919586 109.249363 151.718338 110.053643 151.718338 110.859433 151.515577 111.663713 151.515577 112.467994 151.515577 113.273783 151.314329 114.078064 151.314329 114.882344 151.314329 115.485932 151.11308 116.291721 151.11308 116.895309L151.11308 117.096002C151.11308 117.296695 151.11308 117.498897 151.11308 117.498897 150.910319 118.303177 150.910319 119.107458 150.709071 119.711045 150.507823 120.516835 150.507823 121.321115 150.305062 121.924703L150.305062 122.125396C150.103814 122.728984 150.103814 123.332571 149.902566 123.936159 149.902566 124.138361 149.902566 124.138361 149.902566 124.339054 149.297309 126.753404 148.692051 129.368448 147.884033 131.782798 147.682785 132.386386 147.481537 133.192175 147.278775 133.795763 147.077527 134.600043 146.876279 135.203631 146.47227 136.007912 146.271022 136.813701 145.867013 137.417289 145.665765 138.020876 145.463003 138.825157 145.060507 139.428745 144.857746 140.032332 144.656498 140.836613 144.252489 141.4402 144.051241 142.043788 143.849993 142.647376 143.445983 143.453165 143.041974 144.056753 142.840726 144.66034 142.436717 145.464621 142.034221 146.068209 141.630212 146.671796 141.428963 147.476077 141.024954 148.079664 140.823706 148.683252 140.419697 149.086147 140.218449 149.689734 139.613192 150.89691 139.007934 151.903392 138.199916 153.110567 137.594658 154.115541 136.989401 155.122023 136.384144 155.926304 135.981648 156.732093 135.577638 157.335681 134.972381 157.939268 134.771133 158.340654 134.367124 158.743549 134.165876 158.944242 133.560618 159.750031 133.156609 160.353619 132.551352 160.957207 131.946094 161.761487 131.340837 162.365075 130.936828 163.169355 129.726313 164.578732 128.515799 165.986601 127.305284 167.394469 127.508045 166.590188 127.709293 165.785908 127.910541 164.980118 128.113303 164.376531 128.113303 163.772943 128.314551 163.169355 128.314551 163.169355 128.314551 163.169355 128.314551 162.968662 128.314551 162.76797 128.314551 162.76797 128.314551 162.565768 128.515799 161.761487 128.515799 160.957207 128.71856 160.151417 128.919808 159.146444 129.121056 158.139961 129.121056 157.335681 129.121056 156.732093 129.323817 156.128506 129.323817 155.725611 129.323817 155.122023 129.525065 154.719128 129.525065 154.115541 129.726313 153.110567 129.726313 152.104085 129.929074 150.89691 129.929074 150.696217 129.929074 150.696217 129.929074 150.494015 129.929074 150.293322 129.929074 150.293322 129.929074 150.092629 129.929074 149.28684 130.130323 148.683252 130.130323 147.878971 130.130323 147.275384 130.130323 146.671796 130.130323 146.068209L130.130323 146.872489C130.130323 146.268901 130.130323 145.665314 130.130323 145.061726 130.130323 144.056753 130.130323 143.250963 130.130323 142.24599L130.130323-7.10542736e-15 152.120834-7.10542736e-15z"/>
    <path d="M112.376612,0 L112.376612,142.24599 C112.376612,145.665314 112.173851,148.885454 111.972603,152.104085 C111.771355,154.92133 111.367346,157.536374 110.762088,160.353619 C109.551574,166.790881 107.735802,173.028959 105.314773,178.862634 C103.90301,182.48416 102.087238,186.105686 100.271466,189.526519 C94.6213891,199.586816 87.3583013,208.64063 78.8846989,216.285068 C61.3322368,231.978346 38.1312108,241.435056 12.9116517,241.435056 L-9.23705556e-14,241.435056 L6.65783046,219.505208 L13.1144129,219.505208 C32.0786376,219.505208 49.4298517,212.663542 62.7455126,201.397578 C70.0086004,195.361702 76.0611735,188.11865 80.4992228,179.869116 C81.7097374,177.857661 82.719004,175.644003 83.7267574,173.430345 C85.3412813,169.808819 86.5517959,166.187294 87.5610625,162.365075 C88.7715771,158.139961 89.5780825,153.714155 89.7793305,149.28684 C89.9820917,147.074691 89.9820917,144.861033 89.9820917,142.647376 L89.9820917,0 L112.376612,0 Z"/>
    <path d="M72.6308777,140.032332 L72.6308777,142.24599 C72.6308777,144.056753 72.6308777,145.867516 72.4296296,147.477586 C72.0256204,150.89691 71.6216111,154.317743 70.6138577,157.536374 C70.2098484,159.146444 69.8058392,160.756514 69.2005819,162.164382 L23.8062833,162.164382 L30.4641138,140.234534 L72.6308777,140.234534 L72.6308777,140.032332 Z"/>
  </g>
</svg>
