<svg xmlns="http://www.w3.org/2000/svg" xmlns:xlink="http://www.w3.org/1999/xlink" width="135" height="107" viewBox="0 0 135 107">
  <defs>
    <polygon id="logo-large-white-a" points=".685 0 32.443 0 32.443 69.87 .685 69.87"/>
    <polygon id="logo-large-white-c" points="-33 79.398 101.935 79.398 101.935 106.711 -33 106.711"/>
  </defs>
  <g fill="none" fill-rule="evenodd" transform="translate(33 .09)">
    <path fill="#FFF" d="M37.5256.00624L43.8776.00624 43.8776 29.83824C43.8776 37.10504 41.1528 43.73624 36.6808 48.78624 37.2336 46.36584 37.5256 43.85064 37.5256 41.27184L37.5256.00624zM17.16124 52.08632L17.16124 52.09232C14.07124 55.90232 9.37324 58.36192 4.10524 58.43432L6.00724 52.08632 17.16124 52.08632zM21.00716 40.65624L21.00716 41.29224C21.00716 43.29624 20.66516 45.21584 20.02916 47.00424L7.52516 47.00424 9.42116 40.65624 21.00716 40.65624zM48.95656.00352L55.30856.00352 55.30856 18.42432C55.30856 25.69112 52.58376 32.32232 48.11176 37.37232 48.66456 34.95192 48.95656 32.43672 48.95656 29.85792L48.95656.00352z"/>
    <mask id="logo-large-white-b" fill="#fff">
      <use xlink:href="#logo-large-white-a"/>
    </mask>
    <path fill="#FFF" d="M32.4432,0 L32.4432,41.292 C32.4432,57.0576 19.6104,69.8704 3.8592,69.8704 L0.6852,69.8704 L2.5812,63.5224 L3.8592,63.5224 C16.0648,63.5224 26.0892,53.6088 26.0892,41.292 L26.0892,0 L32.4432,0 Z" mask="url(#logo-large-white-b)"/>
    <mask id="logo-large-white-d" fill="#fff">
      <use xlink:href="#logo-large-white-c"/>
    </mask>
    <path fill="#FFF" d="M64.156,89.08828 C63.2888,90.01828 62.8556,91.27188 62.8556,92.84908 C62.8556,94.42668 63.2888,95.68028 64.156,96.61068 C65.0232,97.54068 66.1524,98.00588 67.5436,98.00588 C68.9352,98.00588 70.064,97.54068 70.9312,96.61068 C71.7984,95.68028 72.2316,94.42668 72.2316,92.84908 C72.2316,91.27188 71.7984,90.01828 70.9312,89.08828 C70.064,88.15788 68.9352,87.69308 67.5436,87.69308 C66.1524,87.69308 65.0232,88.15788 64.156,89.08828 L64.156,89.08828 Z M-28.2364,82.57388 L-25.0604,82.57388 L-25.0604,79.39828 L-28.2364,79.39828 L-28.2364,82.57388 Z M77.8892,100.99428 L77.8892,85.11428 L81.0648,85.11428 L81.0648,87.23788 L81.2164,87.23788 C81.2564,87.17748 81.3068,87.09148 81.3676,86.97988 C81.428,86.86868 81.5892,86.67148 81.8516,86.38868 C82.1136,86.10548 82.4008,85.85788 82.7136,85.64548 C83.026,85.43308 83.4544,85.24108 83.9988,85.06908 C84.5432,84.89708 85.128,84.81148 85.7532,84.81148 C86.4792,84.81148 87.1496,84.91268 87.7644,85.11428 C88.3796,85.31668 88.8636,85.55948 89.2164,85.84268 C89.5692,86.12588 89.8668,86.40388 90.1088,86.67668 C90.3508,86.94948 90.512,87.18748 90.5928,87.38948 L90.744,87.69308 L90.8952,87.69308 C90.9356,87.61228 90.9908,87.50588 91.0616,87.37428 C91.132,87.24308 91.3184,87.01508 91.6212,86.69188 C91.9236,86.36828 92.256,86.07988 92.6192,85.82748 C92.982,85.57468 93.486,85.34228 94.1316,85.12988 C94.7768,84.91748 95.4624,84.81148 96.1884,84.81148 C97.9628,84.81148 99.364,85.37748 100.3924,86.50988 C101.4208,87.64228 101.9352,89.24988 101.9352,91.33268 L101.9352,100.99428 L98.7592,100.99428 L98.7592,91.48428 C98.7592,88.95668 97.65,87.69308 95.432,87.69308 C94.3432,87.69308 93.4156,88.10748 92.6492,88.93628 C91.8832,89.76548 91.5,90.81708 91.5,92.09108 L91.5,100.99428 L88.324,100.99428 L88.324,91.48428 C88.324,88.95668 87.2152,87.69308 84.9972,87.69308 C83.908,87.69308 82.9808,88.10748 82.2144,88.93628 C81.448,89.76548 81.0648,90.81708 81.0648,92.09108 L81.0648,100.99428 L77.8892,100.99428 Z M62.0248,98.67308 C60.6536,97.17668 59.968,95.23548 59.968,92.84908 C59.968,90.46348 60.6588,88.52708 62.04,87.04068 C63.4212,85.55428 65.1504,84.81148 67.2272,84.81148 C68.1752,84.81148 69.052,85.00348 69.8588,85.38748 C70.6652,85.77188 71.24,86.14628 71.5828,86.50988 L72.0668,87.08628 L72.218,87.08628 L72.218,85.11428 L75.3936,85.11428 L75.3936,100.99428 L72.218,100.99428 L72.218,98.46108 L72.0668,98.46108 C72.0264,98.52148 71.9608,98.60748 71.87,98.71868 C71.7792,98.82988 71.5828,99.02708 71.2804,99.31028 C70.978,99.59348 70.6552,99.84108 70.3124,100.05308 C69.9696,100.26548 69.516,100.45788 68.9512,100.62988 C68.3868,100.80148 67.812,100.88748 67.2272,100.88748 C65.1504,100.88748 63.4164,100.14908 62.0248,98.67308 L62.0248,98.67308 Z M47.0796,91.33268 L56.1536,91.33268 C55.9924,90.34188 55.5136,89.48748 54.7168,88.76948 C53.9204,88.05188 52.8868,87.69308 51.6168,87.69308 C50.5276,87.69308 49.5548,88.02148 48.698,88.67868 C47.8408,89.33588 47.3016,90.22068 47.0796,91.33268 L47.0796,91.33268 Z M45.6012,98.58188 C44.0888,97.02508 43.3324,95.11388 43.3324,92.84908 C43.3324,90.58428 44.0936,88.67868 45.616,87.13148 C47.1388,85.58468 48.9988,84.81148 51.1968,84.81148 C53.3944,84.81148 55.2548,85.58468 56.7772,87.13148 C58.2996,88.67868 59.0608,90.58428 59.0608,92.84908 L59.0608,93.91108 L46.5084,93.91108 C46.7304,95.16468 47.2748,96.16068 48.1416,96.89868 C49.0088,97.63668 50.0272,98.00588 51.1968,98.00588 C52.1444,98.00588 52.9812,97.82908 53.7072,97.47508 C54.4332,97.12108 54.9272,96.76228 55.1892,96.39788 L55.5824,95.88228 L58.9096,95.88228 C58.8692,96.02428 58.7984,96.20628 58.6976,96.42868 C58.5968,96.65108 58.34,97.05028 57.9264,97.62668 C57.5132,98.20308 57.0444,98.70868 56.52,99.14348 C55.9956,99.57828 55.2596,99.97748 54.312,100.34148 C53.3644,100.70548 52.326,100.88748 51.1968,100.88748 C48.9988,100.88748 47.1336,100.11908 45.6012,98.58188 L45.6012,98.58188 Z M37.2472,87.99628 L37.2132,100.99428 L34.0376,100.99428 L34.0716,87.41388 C34.0716,86.14428 35.1008,85.11428 36.3708,85.11428 L37.2472,85.11428 L43.4476,85.11428 L43.4476,87.99628 L37.2472,87.99628 Z M22.4264,87.99628 L22.4264,85.11428 L24.2412,85.11428 L24.2412,81.77828 L27.4172,81.77828 L27.4172,85.11428 L32.1056,85.11428 L32.1056,87.99628 L27.4172,87.99628 L27.4172,98.11268 L32.2568,98.11268 L32.2568,100.99428 L26.8692,100.99428 C25.418,100.99428 24.2412,99.81748 24.2412,98.36628 L24.2412,87.99628 L22.4264,87.99628 Z M8.0596,95.93588 L11.538,95.93588 C11.558,95.99668 11.5932,96.07748 11.6436,96.17868 C11.694,96.27988 11.8152,96.46188 12.0068,96.72468 C12.198,96.98748 12.42,97.21988 12.672,97.42228 C12.924,97.62428 13.2872,97.80628 13.7608,97.96788 C14.2348,98.12988 14.754,98.21108 15.3184,98.21108 C16.4276,98.21108 17.2344,98.03908 17.7384,97.69548 C18.2424,97.35148 18.4944,96.91668 18.4944,96.39108 C18.4944,95.90548 18.1616,95.52148 17.4964,95.23828 C16.8308,94.95508 16.0244,94.72268 15.0768,94.54068 C14.1288,94.35868 13.1812,94.12108 12.2336,93.82788 C11.2856,93.53468 10.4792,93.03388 9.814,92.32628 C9.1484,91.61868 8.8156,90.69828 8.8156,89.56588 C8.8156,88.35268 9.37,87.29108 10.4792,86.38108 C11.5884,85.47108 13.05,85.01628 14.8648,85.01628 C15.994,85.01628 17.0024,85.18308 17.8896,85.51668 C18.7768,85.85028 19.4424,86.25468 19.8856,86.72988 C20.3296,87.20508 20.6976,87.68028 20.9896,88.15588 C21.282,88.63068 21.4688,89.04028 21.5492,89.38388 L21.6704,89.86948 L18.3432,89.86948 C18.3232,89.80868 18.2928,89.73788 18.2524,89.65708 C18.212,89.57628 18.1064,89.41948 17.9348,89.18708 C17.7636,88.95428 17.562,88.75228 17.33,88.58028 C17.098,88.40868 16.7652,88.25148 16.332,88.11028 C15.8984,87.96868 15.4092,87.89788 14.8648,87.89788 C13.9776,87.89788 13.302,88.05988 12.8384,88.38308 C12.3748,88.70668 12.1428,89.11148 12.1428,89.59668 C12.1428,90.00068 12.3796,90.33948 12.8536,90.61268 C13.3272,90.88548 13.9272,91.08268 14.6532,91.20388 C15.3792,91.32548 16.1556,91.50228 16.982,91.73468 C17.8088,91.96748 18.5852,92.23548 19.3112,92.53868 C20.0372,92.84228 20.6368,93.32228 21.1108,93.97948 C21.5848,94.63668 21.8216,95.44068 21.8216,96.39108 C21.8216,97.68508 21.242,98.79228 20.0824,99.71228 C18.9228,100.63228 17.3352,101.09268 15.3184,101.09268 C14.1288,101.09268 13.0652,100.91548 12.1276,100.56188 C11.19,100.20788 10.4792,99.77828 9.9952,99.27228 C9.5112,98.76668 9.1132,98.26148 8.8004,97.75588 C8.488,97.25028 8.2912,96.82588 8.2108,96.48188 L8.0596,95.93588 Z M-6.9124,85.11428 L-3.5856,85.11428 L-0.1868,97.81788 L1.3272,97.81788 L5.0348,85.11428 L8.362,85.11428 L1.9016,106.71108 L-1.4316,106.71108 L0.3688,100.99428 L-0.7344,100.99428 C-1.816,100.99428 -2.7636,100.27068 -3.0492,99.22788 L-6.9124,85.11428 Z M-18.618,89.08828 C-19.4848,90.01828 -19.9184,91.27188 -19.9184,92.84908 C-19.9184,94.42668 -19.4848,95.68028 -18.618,96.61068 C-17.7508,97.54068 -16.6216,98.00588 -15.2304,98.00588 C-13.8388,98.00588 -12.7096,97.54068 -11.8428,96.61068 C-10.9756,95.68028 -10.542,94.42668 -10.542,92.84908 C-10.542,91.27188 -10.9756,90.01828 -11.8428,89.08828 C-12.7096,88.15788 -13.8388,87.69308 -15.2304,87.69308 C-16.6216,87.69308 -17.7508,88.15788 -18.618,89.08828 L-18.618,89.08828 Z M-20.9468,98.58188 C-22.4792,97.04548 -23.2456,95.13428 -23.2456,92.84908 C-23.2456,90.56428 -22.4792,88.65348 -20.9468,87.11628 C-19.4144,85.57988 -17.5088,84.81148 -15.2304,84.81148 C-12.9516,84.81148 -11.046,85.57988 -9.5136,87.11628 C-7.9812,88.65348 -7.2148,90.56428 -7.2148,92.84908 C-7.2148,95.13428 -7.9812,97.04548 -9.5136,98.58188 C-11.046,100.11908 -12.9516,100.88748 -15.2304,100.88748 C-17.5088,100.88748 -19.4144,100.11908 -20.9468,98.58188 L-20.9468,98.58188 Z M-33,106.71108 L-33,103.82948 L-28.2364,103.82948 L-28.2364,85.11428 L-25.0604,85.11428 L-25.0604,104.08308 C-25.0604,105.53428 -26.2368,106.71108 -27.688,106.71108 L-33,106.71108 Z" mask="url(#logo-large-white-d)"/>
  </g>
</svg>
