<?xml version="1.0" encoding="UTF-8"?>
<svg width="137px" height="29px" viewBox="0 0 137 29" version="1.1" xmlns="http://www.w3.org/2000/svg" xmlns:xlink="http://www.w3.org/1999/xlink">
    <title>F6D67E90-598B-4056-AC27-FDE5E56B367A</title>
    <g id="Hydra-Page" stroke="none" stroke-width="1" fill="none" fill-rule="evenodd">
        <g id="Hydra-Page_v3" transform="translate(-1103.000000, -9782.000000)" fill-rule="nonzero">
            <g id="Video" transform="translate(0.000000, 8970.000000)">
                <g transform="translate(120.000000, 129.000000)" id="Joystream-Logo">
                    <g transform="translate(983.500000, 683.000000)" id="Group-29">
                        <path d="M29.2973852,25.6971201 L29.2973852,23.4318093 L32.8621096,23.4318093 L32.8621096,8.9904525 L35.3644814,8.9904525 L35.3644814,23.6206442 C35.3644814,24.7532996 34.4437757,25.6971201 33.2870507,25.6971201 L29.2973852,25.6971201 Z M38.6223629,19.5855592 C37.4183632,18.3821128 36.8046775,16.8717876 36.8046775,15.0784754 C36.8046775,13.2851633 37.4183632,11.7748381 38.6223629,10.5713917 C39.8263626,9.36794531 41.3373823,8.75454161 43.1315189,8.75454161 C44.9256555,8.75454161 46.4129492,9.36794531 47.6406748,10.5713917 C48.8446745,11.7748381 49.4583603,13.2851633 49.4583603,15.0784754 C49.4583603,16.8717876 48.8446745,18.3821128 47.6406748,19.5855592 C46.4366751,20.7890056 44.9256555,21.4024093 43.1315189,21.4024093 C41.3136564,21.4024093 39.8263626,20.7890056 38.6223629,19.5855592 Z M40.4402254,12.1052549 C39.7555391,12.8367026 39.4251474,13.8277761 39.4251474,15.0549375 C39.4251474,16.2819218 39.7555391,17.2729953 40.4402254,18.004443 C41.1249117,18.7360676 42.0218915,19.1135604 43.1079701,19.1135604 C44.1938716,19.1135604 45.0910284,18.7360676 45.7755376,18.004443 C46.4602239,17.2729953 46.7907927,16.2819218 46.7907927,15.0549375 C46.7907927,13.8277761 46.4602239,12.8367026 45.7755376,12.1052549 C45.0910284,11.3738073 44.1938716,10.9961375 43.1079701,10.9961375 C42.0218915,11.0198525 41.1249117,11.3738073 40.4402254,12.1052549 Z M49.647282,8.9904525 L52.2677519,8.9904525 L54.8882219,18.7831436 L56.1865939,18.7831436 L59.0432603,8.9904525 L61.6637302,8.9904525 L56.6588097,25.6971201 L54.0383397,25.6971201 L55.45481,21.1664984 L54.5341043,21.1664984 C53.6133987,21.1664984 52.7870653,20.5529177 52.551046,19.6563501 L49.647282,8.9904525 Z M61.4275338,17.3437863 L64.166102,17.3437863 C64.1896508,17.3910393 64.2133767,17.4618302 64.2604743,17.5326212 C64.307749,17.6034122 64.4021213,17.7449941 64.5437683,17.957367 C64.6854154,18.1697399 64.8743371,18.3583978 65.0632588,18.4999797 C65.2520035,18.6652766 65.5590234,18.8068586 65.913141,18.9247255 C66.2908073,19.0427695 66.6921996,19.1135604 67.1406895,19.1135604 C68.0141204,19.1135604 68.651532,18.9719785 69.0529243,18.7123526 C69.4543166,18.4529037 69.6430612,18.0989489 69.6430612,17.6977411 C69.6430612,17.3202483 69.383493,17.0133695 68.8640026,16.8009966 C68.3446892,16.5886237 67.7072776,16.3999658 66.9517678,16.2583838 C66.196435,16.1168019 65.464474,15.927967 64.7091412,15.6920561 C63.9536314,15.4559683 63.3397686,15.0784754 62.7969064,14.5121477 C62.277416,13.94582 62.0178478,13.2379104 62.0178478,12.3411658 C62.0178478,11.3973453 62.4427889,10.5478537 63.3162198,9.83994407 C64.1896508,9.13203442 65.3465529,8.7780796 66.7630231,8.7780796 C67.6600029,8.7780796 68.4390615,8.91966153 69.1472966,9.17928739 C69.8555318,9.43873628 70.3750222,9.76915311 70.7291398,10.1231079 C71.0832573,10.5006007 71.3665514,10.8782705 71.6025707,11.2557634 C71.8385901,11.6332562 71.9802371,11.940135 72.0510606,12.2232989 L72.14561,12.6007917 L69.5251401,12.6007917 C69.5014142,12.5535387 69.4778654,12.5064627 69.4543166,12.4356718 C69.4305907,12.3648808 69.3362183,12.2468369 69.1945713,12.058002 C69.0529243,11.869344 68.9112773,11.7277621 68.7223556,11.5861802 C68.5336109,11.4445983 68.2738657,11.3265543 67.9432969,11.2085104 C67.6129052,11.0906434 67.211513,11.0433905 66.7865719,11.0433905 C66.0783368,11.0433905 65.5590234,11.1614344 65.18118,11.4208833 C64.8270624,11.6805091 64.6383177,11.987211 64.6383177,12.3648808 C64.6383177,12.6715827 64.8270624,12.9547465 65.2049058,13.1671194 C65.5825722,13.3794923 66.054788,13.5446122 66.6213761,13.6391182 C67.1879642,13.7334471 67.8016499,13.875029 68.4627874,14.0638639 C69.1237478,14.2525219 69.7138847,14.4648948 70.3041987,14.7009826 C70.8707868,14.9368935 71.3428255,15.3143863 71.7206689,15.8336381 C72.0983353,16.3527128 72.287257,16.9898315 72.287257,17.7212791 C72.287257,18.7360676 71.8385901,19.6090972 70.9178844,20.3405448 C69.9971788,21.0721694 68.7460814,21.4261243 67.1642383,21.4261243 C66.2199838,21.4261243 65.3936505,21.2845423 64.6618666,21.0013785 C63.9300826,20.7182146 63.3634945,20.3877978 62.9856511,19.98659 C62.6079847,19.5855592 62.3011418,19.1843514 62.0413966,18.7831436 C61.8053772,18.3821128 61.6400043,18.051696 61.5691808,17.7920701 L61.4275338,17.3437863 Z M72.7357469,11.2557634 L72.7357469,8.9904525 L74.1522172,8.9904525 L74.1522172,6.37118681 L76.6545889,6.37118681 L76.6545889,8.9904525 L80.3611374,8.9904525 L80.3611374,11.2557634 L76.6783148,11.2557634 L76.6783148,18.9011875 L80.4790586,18.9011875 L80.4790586,21.1664984 L76.2296478,21.1664984 C75.0964716,21.1664984 74.1522172,20.2462159 74.1522172,19.0900224 L74.1522172,11.2557634 L72.7357469,11.2557634 Z M84.3980776,11.2557634 L84.3980776,21.1664984 L81.8955288,21.1664984 L81.8955288,10.8074796 C81.8955288,9.81640607 82.6983133,8.9904525 83.7133913,8.9904525 L84.3980776,8.9904525 L89.2848999,8.9904525 L89.2848999,11.2557634 L84.3980776,11.2557634 Z M90.9846642,19.5855592 C89.8042133,18.3583978 89.1903506,16.8482496 89.1903506,15.0784754 C89.1903506,13.3087013 89.8042133,11.7985531 90.9846642,10.5713917 C92.1886639,9.34440732 93.6522318,8.75454161 95.375722,8.75454161 C97.0990351,8.75454161 98.56278,9.36794531 99.7667797,10.5713917 C100.970779,11.7985531 101.560916,13.2851633 101.560916,15.0784754 L101.560916,15.904429 L91.6928994,15.904429 C91.8580952,16.8955025 92.3065851,17.6742031 92.9677226,18.2640688 C93.6522318,18.8539346 94.4550163,19.1370984 95.375722,19.1370984 C96.1310547,19.1370984 96.7684664,18.9955165 97.3587803,18.7123526 C97.9253684,18.4291888 98.3265836,18.1460249 98.5155053,17.8628611 L98.8223482,17.4618302 L101.442818,17.4618302 C101.419269,17.5796972 101.348446,17.7212791 101.277622,17.886576 C101.206799,18.051696 100.994328,18.3821128 100.66376,18.8303966 C100.333368,19.2786803 99.9792503,19.6798881 99.5543092,20.033843 C99.1529169,20.3642598 98.56278,20.6944996 97.8072702,20.9776635 C97.0517604,21.2608274 96.2491529,21.4024093 95.3519961,21.4024093 C93.6522318,21.4024093 92.1886639,20.7890056 90.9846642,19.5855592 Z M92.1413892,13.875029 L99.2710152,13.875029 C99.1529169,13.0963284 98.7752506,12.4119568 98.137839,11.869344 C97.5004273,11.3030163 96.6976428,11.0198525 95.7061137,11.0198525 C94.8562315,11.0198525 94.0771729,11.2793014 93.4162125,11.7985531 C92.755252,12.3176278 92.330311,13.0019995 92.1413892,13.875029 Z M103.898092,19.6563501 C102.812191,18.4764417 102.269151,16.9425785 102.269151,15.0784754 C102.269151,13.2143724 102.812191,11.6805091 103.898092,10.5006007 C104.983994,9.32086932 106.353366,8.75454161 107.982307,8.75454161 C108.73764,8.75454161 109.422326,8.89612354 110.059738,9.20282539 C110.697149,9.50952724 111.145639,9.7926911 111.405385,10.075855 L111.783051,10.5243157 L111.901149,10.5243157 L111.901149,8.9669145 L114.403521,8.9669145 L114.403521,21.1429604 L111.901149,21.1429604 L111.901149,19.4675152 L111.783051,19.4675152 C111.759502,19.5147682 111.688679,19.5855592 111.617855,19.6798881 C111.547032,19.7742171 111.381836,19.915799 111.145639,20.1518869 C110.90962,20.3642598 110.649875,20.5766327 110.390307,20.7417526 C110.130561,20.9068725 109.752895,21.0484545 109.327954,21.1900364 C108.879287,21.3316183 108.430797,21.4024093 107.982307,21.4024093 C106.376915,21.4024093 105.00772,20.8125436 103.898092,19.6563501 Z M116.575501,21.1664984 L116.575501,8.9904525 L119.077873,8.9904525 L119.077873,10.6658976 L119.195971,10.6658976 C119.21952,10.6186447 119.266794,10.5478537 119.314069,10.4535248 C119.361167,10.3590188 119.479265,10.2174369 119.691735,9.981526 C119.904206,9.76915311 120.116677,9.55678021 120.376422,9.39166029 C120.612441,9.22636339 120.966559,9.08478146 121.3915,8.94319953 C121.816441,8.8016176 122.288657,8.73082663 122.760695,8.73082663 C123.327283,8.73082663 123.870323,8.8016176 124.342538,8.9669145 C124.838303,9.13203442 125.215969,9.32086932 125.475715,9.53324222 C125.759009,9.74561511 125.995028,9.981526 126.18395,10.1938989 C126.372694,10.4062718 126.490793,10.5951067 126.561616,10.7602266 L126.679714,10.9961375 L126.797635,10.9961375 C126.821361,10.9253465 126.868459,10.8545556 126.939283,10.7366886 C126.986557,10.6421827 127.151753,10.4535248 127.387949,10.1938989 C127.623969,9.93427303 127.883714,9.72190014 128.167008,9.50952724 C128.450302,9.32086932 128.851517,9.13203442 129.347282,8.9669145 C129.866772,8.8016176 130.386086,8.70728864 130.976223,8.70728864 C132.369144,8.70728864 133.478771,9.15557242 134.281379,10.052317 C135.083986,10.9490615 135.485379,12.1995839 135.485379,13.8514911 L135.485379,21.1192454 L132.983007,21.1192454 L132.983007,13.993073 C132.983007,12.010926 132.109399,11.0198525 130.362537,11.0198525 C129.512655,11.0198525 128.780694,11.3500923 128.167008,11.987211 C127.553145,12.6480447 127.269851,13.4738213 127.269851,14.4648948 L127.269851,21.1429604 L124.76748,21.1429604 L124.76748,13.993073 C124.76748,12.010926 123.893871,11.0198525 122.14701,11.0198525 C121.297127,11.0198525 120.565166,11.3500923 119.951481,11.987211 C119.337618,12.6480447 119.054324,13.4738213 119.054324,14.4648948 L119.054324,21.1429604 L116.575501,21.1429604 L116.575501,21.1664984 Z M32.8856584,4.34178683 L32.8856584,6.84318556 L35.3882072,6.84318556 L35.3882072,4.34178683 L32.8856584,4.34178683 Z M105.574308,12.1052549 C104.889621,12.8367026 104.559053,13.8277761 104.559053,15.0549375 C104.559053,16.2819218 104.889621,17.2729953 105.574308,18.004443 C106.258817,18.7360676 107.155974,19.1135604 108.241875,19.1135604 C109.327954,19.1135604 110.224934,18.7360676 110.90962,18.004443 C111.594306,17.2729953 111.924698,16.2819218 111.924698,15.0549375 C111.924698,13.8277761 111.594306,12.8367026 110.90962,12.1052549 C110.224934,11.3738073 109.327954,10.9961375 108.241875,10.9961375 C107.155974,11.0198525 106.258817,11.3738073 105.574308,12.1052549 Z" id="Shape" fill="#FFFFFF"></path>
                        <g id="Group" fill="#4038FF">
                            <path d="M19.8778581,2.44693155e-13 L22.4510533,2.44693155e-13 L22.4510533,7.38579831 C22.4510533,10.3354808 21.341426,13.0490755 19.5237405,15.1020134 C19.7597599,14.1109399 19.8778581,13.0963284 19.8778581,12.034464 L19.8778581,2.44693155e-13 Z" id="Path"></path>
                            <path d="M6.94070419,21.0719925 C6.86988067,21.1427834 6.82260598,21.2135744 6.75178247,21.2843654 C6.72823365,21.3080803 6.70468483,21.3316183 6.68095896,21.3551563 C6.61013544,21.4259473 6.56303781,21.4967382 6.4922143,21.5439912 C6.46848842,21.5675292 6.42139078,21.6147822 6.39766491,21.6383202 C6.3268414,21.7091111 6.25601788,21.7799021 6.16164555,21.8506931 C6.06727322,21.945199 5.97272383,22.01599 5.8783515,22.1103189 C5.78397917,22.2046479 5.68942979,22.2754389 5.57150864,22.3462298 C5.47695925,22.4170208 5.38258692,22.4878117 5.28821459,22.5586027 C5.05201818,22.7001846 4.81599882,22.8417666 4.57997947,22.9598105 C4.53270477,22.9833485 4.48543008,23.0070635 4.41460657,23.0306015 C4.34378306,23.0541395 4.29668542,23.0778544 4.24941073,23.1013924 C4.17858721,23.1249304 4.13131252,23.1486454 4.06048901,23.1721834 C3.94256786,23.2194364 3.82446965,23.2665124 3.68282263,23.3137653 C3.68282263,23.3137653 3.68282263,23.3137653 3.65927381,23.3137653 C3.54117561,23.3610183 3.4230774,23.3845563 3.30515625,23.4080943 L3.28143037,23.4080943 C3.16350923,23.4318093 3.04541102,23.4788853 2.92731281,23.5026002 C2.78566579,23.5261382 2.62046995,23.5733912 2.47882292,23.5733912 C2.43154823,23.5733912 2.38445059,23.5969292 2.3371759,23.5969292 L2.31362708,23.5969292 C2.17198006,23.6204672 2.05388185,23.6204672 1.91223483,23.6204672 C1.84141131,23.6204672 1.7705878,23.6204672 1.69976429,23.6204672 C1.62894078,23.6204672 1.55811727,23.6204672 1.48729375,23.6204672 L1.39292142,23.6204672 L2.17198006,21.0484545 L6.94070419,21.0484545 L6.94070419,21.0719925 Z" id="Path"></path>
                            <path d="M17.8002504,-6.43929354e-15 L17.8002504,12.034464 C17.8002504,12.2232989 17.8002504,12.4356718 17.7767015,12.6243297 C17.7767015,12.7188356 17.7767015,12.8131646 17.7531527,12.9074935 C17.7531527,13.0019995 17.7294268,13.0963284 17.7294268,13.1906574 C17.7294268,13.2851633 17.705878,13.3794923 17.705878,13.4738213 C17.705878,13.5446122 17.6823292,13.6391182 17.6823292,13.7099091 L17.6823292,13.7334471 C17.6823292,13.7569851 17.6823292,13.7807001 17.6823292,13.7807001 C17.6586033,13.875029 17.6586033,13.969358 17.6350545,14.040149 C17.6115057,14.1346549 17.6115057,14.2289839 17.5877798,14.2997748 L17.5877798,14.3233128 C17.564231,14.3941038 17.564231,14.4648948 17.5406822,14.5356857 C17.5406822,14.5594007 17.5406822,14.5594007 17.5406822,14.5829387 C17.4698587,14.8661026 17.3990352,15.1728044 17.3044858,15.4559683 C17.280937,15.5267592 17.2573881,15.6212652 17.2336623,15.6920561 C17.2101134,15.7863851 17.1865646,15.8571761 17.1392899,15.951505 C17.1157411,16.046011 17.0684664,16.1168019 17.0449176,16.1875929 C17.0211917,16.2819218 16.9740941,16.3527128 16.9503682,16.4235038 C16.9268194,16.5178327 16.8795447,16.5886237 16.8559959,16.6594147 C16.8324471,16.7302056 16.7851724,16.8247116 16.7378977,16.8955025 C16.7143489,16.9662935 16.6670742,17.0606225 16.6199765,17.1314134 C16.5727018,17.2022044 16.549153,17.2965333 16.5018783,17.3673243 C16.4783295,17.4381153 16.4310548,17.4853682 16.407506,17.5561592 C16.3366825,17.6977411 16.265859,17.8157851 16.1713096,17.957367 C16.1004861,18.075234 16.0296626,18.1932779 15.958839,18.2876068 C15.9117414,18.3821128 15.8644667,18.4529037 15.7936432,18.5236947 C15.7700944,18.5707707 15.7228197,18.6180237 15.6992709,18.6415617 C15.6284474,18.7360676 15.5811727,18.8068586 15.5103492,18.8776495 C15.4395256,18.9719785 15.3687021,19.0427695 15.3214274,19.1370984 C15.1797804,19.3023953 15.0381334,19.4675152 14.8964864,19.6326352 C14.9202122,19.5383062 14.9437611,19.4439773 14.9673099,19.3494713 C14.9910357,19.2786803 14.9910357,19.2078894 15.0145846,19.1370984 C15.0145846,19.1370984 15.0145846,19.1370984 15.0145846,19.1135604 C15.0145846,19.0900224 15.0145846,19.0900224 15.0145846,19.0663075 C15.0381334,18.9719785 15.0381334,18.8776495 15.0618593,18.7831436 C15.0854081,18.6652766 15.1089569,18.5472327 15.1089569,18.4529037 C15.1089569,18.3821128 15.1326828,18.3113218 15.1326828,18.2640688 C15.1326828,18.1932779 15.1562316,18.1460249 15.1562316,18.075234 C15.1797804,17.957367 15.1797804,17.8393231 15.2035063,17.6977411 C15.2035063,17.6742031 15.2035063,17.6742031 15.2035063,17.6504882 C15.2035063,17.6269502 15.2035063,17.6269502 15.2035063,17.6034122 C15.2035063,17.5089062 15.2270551,17.4381153 15.2270551,17.3437863 C15.2270551,17.2729953 15.2270551,17.2022044 15.2270551,17.1314134 L15.2270551,17.2257424 C15.2270551,17.1549514 15.2270551,17.0841604 15.2270551,17.0133695 C15.2270551,16.8955025 15.2270551,16.8009966 15.2270551,16.6831296 L15.2270551,-6.43929354e-15 L17.8002504,-6.43929354e-15 Z" id="Path"></path>
                            <path d="M13.1496244,0 L13.1496244,16.6831296 C13.1496244,17.0841604 13.1258986,17.4618302 13.1023497,17.8393231 C13.0788009,18.1697399 13.0315262,18.4764417 12.9607027,18.8068586 C12.8190557,19.5618442 12.6065852,20.2934688 12.3232911,20.9776635 C12.1580953,21.4024093 11.9456247,21.8271551 11.7331542,22.2283629 C11.0720167,23.4082713 10.2221346,24.4701357 9.23060539,25.3667033 C7.17672354,27.2072684 4.46188126,28.3163858 1.51084257,28.3163858 L-8.37493038e-14,28.3163858 L0.779058633,25.7443731 L1.53456845,25.7443731 C3.75364614,25.7443731 5.78397917,24.9419575 7.34209644,23.6206442 C8.19197859,22.9127345 8.90021371,22.0632429 9.41952711,21.0957074 C9.56117413,20.8597965 9.67927234,20.6001707 9.79719349,20.3405448 C9.98611521,19.915799 10.1277622,19.4910532 10.2458604,19.0427695 C10.3875075,18.5472327 10.4818798,18.028158 10.5054286,17.5089062 C10.5291545,17.2494574 10.5291545,16.9898315 10.5291545,16.7302056 L10.5291545,0 L13.1496244,0 Z" id="Path"></path>
                            <path d="M8.49882145,16.4235038 L8.49882145,16.6831296 C8.49882145,16.8955025 8.49882145,17.1078754 8.47527263,17.2967103 C8.42799794,17.6977411 8.38072325,18.0989489 8.2628021,18.4764417 C8.2155274,18.6652766 8.16825271,18.8541115 8.0974292,19.0192315 L2.78566579,19.0192315 L3.56472442,16.4472187 L8.49882145,16.4472187 L8.49882145,16.4235038 Z" id="Path"></path>
                        </g>
                    </g>
                </g>
            </g>
        </g>
    </g>
</svg>