<svg xmlns="http://www.w3.org/2000/svg" xmlns:xlink="http://www.w3.org/1999/xlink" width="337" height="356" viewBox="0 0 337 356">
  <defs>
    <circle id="logo-blueprint-a" cx="95.714" cy="95.714" r="95.714"/>
    <circle id="logo-blueprint-c" cx="167.5" cy="167.5" r="167.5"/>
  </defs>
  <g fill="none" fill-rule="evenodd" transform="translate(1)">
    <g transform="translate(71.786 92.125)">
      <mask id="logo-blueprint-b" fill="#fff">
        <use xlink:href="#logo-blueprint-a"/>
      </mask>
      <use stroke="#FFF" stroke-width=".598" opacity=".5" xlink:href="#logo-blueprint-a"/>
      <g fill="#FFF" fill-rule="nonzero" mask="url(#logo-blueprint-b)">
        <g transform="translate(-71.786 -92.125)">
          <path d="M232.884401 2.84217094e-13L263.031364 2.84217094e-13 263.031364 85.9730587C263.031364 120.308308 250.031225 151.895419 228.735642 175.792275 231.50079 164.255862 232.884401 152.445459 232.884401 140.085016L232.884401 2.84217094e-13zM81.3156897 245.284744C80.4859377 246.108773 79.9320783 246.932803 79.1023264 247.756832 78.8264339 248.032882 78.5505414 248.306872 78.2725745 248.580862 77.4428225 249.404891 76.8910375 250.228921 76.0612855 250.77896 75.7833186 251.05295 75.2315336 251.60299 74.9535667 251.87698 74.1238148 252.701009 73.2940628 253.525039 72.1884184 254.349068 71.0827739 255.449148 69.9750551 256.273177 68.8694106 257.371196 67.7637662 258.469216 66.6560474 259.293245 65.2745104 260.117275 64.1667915 260.941304 63.0611471 261.765334 61.9555026 262.589363 59.1882799 264.237422 56.4231316 265.885481 53.6579833 267.259551 53.1041239 267.53354 52.5502645 267.80959 51.7205125 268.08358 50.8907606 268.35757 50.3389755 268.63362 49.7851161 268.90761 48.9553642 269.181599 48.4015048 269.457649 47.5717528 269.731639 46.1902159 270.281679 44.8066045 270.829658 43.1471006 271.379698 43.1471006 271.379698 43.1471006 271.379698 42.8712081 271.379698 41.4875968 271.929738 40.1039854 272.203728 38.7224484 272.477717L38.4444816 272.477717C37.0629446 272.753767 35.6793332 273.301747 34.2957219 273.577797 32.636218 273.851787 30.7008216 274.401826 29.0413177 274.401826 28.4874583 274.401826 27.9356733 274.675816 27.3818139 274.675816L27.1059214 274.675816C25.4464175 274.949806 24.0628061 274.949806 22.4033023 274.949806 21.5735503 274.949806 20.7437984 274.949806 19.9140465 274.949806 19.0842945 274.949806 18.2545426 274.949806 17.4247906 274.949806L16.3191462 274.949806 25.4464175 245.010754 81.3156897 245.010754 81.3156897 245.284744zM208.543628 0L208.543628 140.085016C208.543628 142.283115 208.543628 144.755204 208.267736 146.951242 208.267736 148.051322 208.267736 149.149341 207.991843 150.24736 207.991843 151.34744 207.713876 152.445459 207.713876 153.543478 207.713876 154.643558 207.437984 155.741577 207.437984 156.839596 207.437984 157.663626 207.162091 158.763705 207.162091 159.587735L207.162091 159.861725C207.162091 160.135714 207.162091 160.411764 207.162091 160.411764 206.884124 161.509784 206.884124 162.607803 206.608232 163.431832 206.332339 164.531912 206.332339 165.629931 206.054373 166.453961L206.054373 166.72795C205.77848 167.55198 205.77848 168.37601 205.502587 169.200039 205.502587 169.476089 205.502587 169.476089 205.502587 169.750079 204.672836 173.046197 203.843084 176.616305 202.735365 179.912423 202.459472 180.736452 202.18358 181.836532 201.905613 182.660561 201.62972 183.75858 201.353828 184.58261 200.799968 185.680629 200.524076 186.780709 199.970216 187.604738 199.694324 188.428768 199.416357 189.526787 198.864572 190.350816 198.586605 191.174846 198.310713 192.272865 197.756853 193.096895 197.480961 193.920924 197.205068 194.744954 196.651209 195.845033 196.097349 196.669063 195.821457 197.493092 195.267597 198.591112 194.715812 199.415141 194.161953 200.239171 193.88606 201.33719 193.332201 202.161219 193.056308 202.985249 192.502449 203.535289 192.226557 204.359318 191.396805 206.007377 190.567053 207.381446 189.459334 209.029505 188.629582 210.401514 187.79983 211.775584 186.970078 212.873603 186.418293 213.973682 185.864434 214.797712 185.034682 215.621741 184.758789 216.169721 184.20493 216.719761 183.929037 216.993751 183.099285 218.09383 182.545426 218.917859 181.715674 219.741889 180.885922 220.839908 180.05617 221.663938 179.502311 222.761957 177.842807 224.686066 176.183303 226.608115 174.523799 228.530164 174.801766 227.432144 175.077658 226.334125 175.353551 225.234046 175.631518 224.410016 175.631518 223.585987 175.90741 222.761957 175.90741 222.761957 175.90741 222.761957 175.90741 222.487967 175.90741 222.213977 175.90741 222.213977 175.90741 221.937928 176.183303 220.839908 176.183303 219.741889 176.46127 218.64181 176.737162 217.2698 177.013055 215.895731 177.013055 214.797712 177.013055 213.973682 177.291022 213.149653 177.291022 212.599613 177.291022 211.775584 177.566914 211.225544 177.566914 210.401514 177.842807 209.029505 177.842807 207.655436 178.120774 206.007377 178.120774 205.733387 178.120774 205.733387 178.120774 205.457337 178.120774 205.183348 178.120774 205.183348 178.120774 204.909358 178.120774 203.809278 178.396666 202.985249 178.396666 201.88723 178.396666 201.0632 178.396666 200.239171 178.396666 199.415141L178.396666 200.51316C178.396666 199.689131 178.396666 198.865101 178.396666 198.041072 178.396666 196.669063 178.396666 195.568983 178.396666 194.196974L178.396666 0 208.543628 0z"/>
          <path d="M154.057967,0 L154.057967,194.196974 C154.057967,198.865101 153.780001,203.261299 153.504108,207.655436 C153.228216,211.501594 152.674356,215.071702 151.844604,218.917859 C150.1851,227.706134 147.695845,236.222479 144.376837,244.186724 C142.44144,249.130901 139.952185,254.075078 137.462929,258.745266 C129.717194,272.479777 119.760171,284.84022 108.143644,295.276554 C84.080838,316.701321 52.2743719,329.611803 17.7006832,329.611803 L-8.52651283e-14,329.611803 L9.12727129,299.672751 L17.9786501,299.672751 C43.9768526,299.672751 67.7637662,290.332377 86.0183088,274.951866 C95.975332,266.711571 104.272851,256.823217 110.357007,245.560793 C112.016511,242.814715 113.400123,239.792587 114.78166,236.770459 C116.995023,231.826282 118.654527,226.882105 120.038138,221.663938 C121.697642,215.895731 122.803286,209.853535 123.079179,203.809278 C123.357146,200.78921 123.357146,197.767082 123.357146,194.744954 L123.357146,0 L154.057967,0 Z"/>
          <path d="M99.5702323,191.174846 L99.5702323,194.196974 C99.5702323,196.669063 99.5702323,199.141151 99.2943397,201.33925 C98.7404803,206.007377 98.1866209,210.677564 96.8050839,215.071702 C96.2512245,217.2698 95.6973651,219.467899 94.8676132,221.389948 L32.636218,221.389948 L41.7634893,191.450896 L99.5702323,191.450896 L99.5702323,191.174846 Z"/>
        </g>
      </g>
    </g>
    <g transform="translate(0 20.34)">
      <mask id="logo-blueprint-d" fill="#fff">
        <use xlink:href="#logo-blueprint-c"/>
      </mask>
      <use stroke="#FFF" stroke-width=".598" opacity=".2" xlink:href="#logo-blueprint-c"/>
      <g fill="#FFF" fill-opacity=".1" fill-rule="nonzero" stroke="#FFF" stroke-opacity=".6" stroke-width=".598" mask="url(#logo-blueprint-d)">
        <g transform="translate(0 -20.34)">
          <path d="M232.884401 2.84217094e-13L263.031364 2.84217094e-13 263.031364 85.9730587C263.031364 120.308308 250.031225 151.895419 228.735642 175.792275 231.50079 164.255862 232.884401 152.445459 232.884401 140.085016L232.884401 2.84217094e-13zM81.3156897 245.284744C80.4859377 246.108773 79.9320783 246.932803 79.1023264 247.756832 78.8264339 248.032882 78.5505414 248.306872 78.2725745 248.580862 77.4428225 249.404891 76.8910375 250.228921 76.0612855 250.77896 75.7833186 251.05295 75.2315336 251.60299 74.9535667 251.87698 74.1238148 252.701009 73.2940628 253.525039 72.1884184 254.349068 71.0827739 255.449148 69.9750551 256.273177 68.8694106 257.371196 67.7637662 258.469216 66.6560474 259.293245 65.2745104 260.117275 64.1667915 260.941304 63.0611471 261.765334 61.9555026 262.589363 59.1882799 264.237422 56.4231316 265.885481 53.6579833 267.259551 53.1041239 267.53354 52.5502645 267.80959 51.7205125 268.08358 50.8907606 268.35757 50.3389755 268.63362 49.7851161 268.90761 48.9553642 269.181599 48.4015048 269.457649 47.5717528 269.731639 46.1902159 270.281679 44.8066045 270.829658 43.1471006 271.379698 43.1471006 271.379698 43.1471006 271.379698 42.8712081 271.379698 41.4875968 271.929738 40.1039854 272.203728 38.7224484 272.477717L38.4444816 272.477717C37.0629446 272.753767 35.6793332 273.301747 34.2957219 273.577797 32.636218 273.851787 30.7008216 274.401826 29.0413177 274.401826 28.4874583 274.401826 27.9356733 274.675816 27.3818139 274.675816L27.1059214 274.675816C25.4464175 274.949806 24.0628061 274.949806 22.4033023 274.949806 21.5735503 274.949806 20.7437984 274.949806 19.9140465 274.949806 19.0842945 274.949806 18.2545426 274.949806 17.4247906 274.949806L16.3191462 274.949806 25.4464175 245.010754 81.3156897 245.010754 81.3156897 245.284744zM208.543628 0L208.543628 140.085016C208.543628 142.283115 208.543628 144.755204 208.267736 146.951242 208.267736 148.051322 208.267736 149.149341 207.991843 150.24736 207.991843 151.34744 207.713876 152.445459 207.713876 153.543478 207.713876 154.643558 207.437984 155.741577 207.437984 156.839596 207.437984 157.663626 207.162091 158.763705 207.162091 159.587735L207.162091 159.861725C207.162091 160.135714 207.162091 160.411764 207.162091 160.411764 206.884124 161.509784 206.884124 162.607803 206.608232 163.431832 206.332339 164.531912 206.332339 165.629931 206.054373 166.453961L206.054373 166.72795C205.77848 167.55198 205.77848 168.37601 205.502587 169.200039 205.502587 169.476089 205.502587 169.476089 205.502587 169.750079 204.672836 173.046197 203.843084 176.616305 202.735365 179.912423 202.459472 180.736452 202.18358 181.836532 201.905613 182.660561 201.62972 183.75858 201.353828 184.58261 200.799968 185.680629 200.524076 186.780709 199.970216 187.604738 199.694324 188.428768 199.416357 189.526787 198.864572 190.350816 198.586605 191.174846 198.310713 192.272865 197.756853 193.096895 197.480961 193.920924 197.205068 194.744954 196.651209 195.845033 196.097349 196.669063 195.821457 197.493092 195.267597 198.591112 194.715812 199.415141 194.161953 200.239171 193.88606 201.33719 193.332201 202.161219 193.056308 202.985249 192.502449 203.535289 192.226557 204.359318 191.396805 206.007377 190.567053 207.381446 189.459334 209.029505 188.629582 210.401514 187.79983 211.775584 186.970078 212.873603 186.418293 213.973682 185.864434 214.797712 185.034682 215.621741 184.758789 216.169721 184.20493 216.719761 183.929037 216.993751 183.099285 218.09383 182.545426 218.917859 181.715674 219.741889 180.885922 220.839908 180.05617 221.663938 179.502311 222.761957 177.842807 224.686066 176.183303 226.608115 174.523799 228.530164 174.801766 227.432144 175.077658 226.334125 175.353551 225.234046 175.631518 224.410016 175.631518 223.585987 175.90741 222.761957 175.90741 222.761957 175.90741 222.761957 175.90741 222.487967 175.90741 222.213977 175.90741 222.213977 175.90741 221.937928 176.183303 220.839908 176.183303 219.741889 176.46127 218.64181 176.737162 217.2698 177.013055 215.895731 177.013055 214.797712 177.013055 213.973682 177.291022 213.149653 177.291022 212.599613 177.291022 211.775584 177.566914 211.225544 177.566914 210.401514 177.842807 209.029505 177.842807 207.655436 178.120774 206.007377 178.120774 205.733387 178.120774 205.733387 178.120774 205.457337 178.120774 205.183348 178.120774 205.183348 178.120774 204.909358 178.120774 203.809278 178.396666 202.985249 178.396666 201.88723 178.396666 201.0632 178.396666 200.239171 178.396666 199.415141L178.396666 200.51316C178.396666 199.689131 178.396666 198.865101 178.396666 198.041072 178.396666 196.669063 178.396666 195.568983 178.396666 194.196974L178.396666 0 208.543628 0z"/>
          <path d="M154.057967,0 L154.057967,194.196974 C154.057967,198.865101 153.780001,203.261299 153.504108,207.655436 C153.228216,211.501594 152.674356,215.071702 151.844604,218.917859 C150.1851,227.706134 147.695845,236.222479 144.376837,244.186724 C142.44144,249.130901 139.952185,254.075078 137.462929,258.745266 C129.717194,272.479777 119.760171,284.84022 108.143644,295.276554 C84.080838,316.701321 52.2743719,329.611803 17.7006832,329.611803 L-8.52651283e-14,329.611803 L9.12727129,299.672751 L17.9786501,299.672751 C43.9768526,299.672751 67.7637662,290.332377 86.0183088,274.951866 C95.975332,266.711571 104.272851,256.823217 110.357007,245.560793 C112.016511,242.814715 113.400123,239.792587 114.78166,236.770459 C116.995023,231.826282 118.654527,226.882105 120.038138,221.663938 C121.697642,215.895731 122.803286,209.853535 123.079179,203.809278 C123.357146,200.78921 123.357146,197.767082 123.357146,194.744954 L123.357146,0 L154.057967,0 Z"/>
          <path d="M99.5702323,191.174846 L99.5702323,194.196974 C99.5702323,196.669063 99.5702323,199.141151 99.2943397,201.33925 C98.7404803,206.007377 98.1866209,210.677564 96.8050839,215.071702 C96.2512245,217.2698 95.6973651,219.467899 94.8676132,221.389948 L32.636218,221.389948 L41.7634893,191.450896 L99.5702323,191.450896 L99.5702323,191.174846 Z"/>
        </g>
      </g>
    </g>
    <g fill="#FFF" fill-opacity=".1" fill-rule="nonzero" opacity=".5">
      <path d="M232.884401 2.84217094e-13L263.031364 2.84217094e-13 263.031364 85.9730587C263.031364 120.308308 250.031225 151.895419 228.735642 175.792275 231.50079 164.255862 232.884401 152.445459 232.884401 140.085016L232.884401 2.84217094e-13zM81.3156897 245.284744C80.4859377 246.108773 79.9320783 246.932803 79.1023264 247.756832 78.8264339 248.032882 78.5505414 248.306872 78.2725745 248.580862 77.4428225 249.404891 76.8910375 250.228921 76.0612855 250.77896 75.7833186 251.05295 75.2315336 251.60299 74.9535667 251.87698 74.1238148 252.701009 73.2940628 253.525039 72.1884184 254.349068 71.0827739 255.449148 69.9750551 256.273177 68.8694106 257.371196 67.7637662 258.469216 66.6560474 259.293245 65.2745104 260.117275 64.1667915 260.941304 63.0611471 261.765334 61.9555026 262.589363 59.1882799 264.237422 56.4231316 265.885481 53.6579833 267.259551 53.1041239 267.53354 52.5502645 267.80959 51.7205125 268.08358 50.8907606 268.35757 50.3389755 268.63362 49.7851161 268.90761 48.9553642 269.181599 48.4015048 269.457649 47.5717528 269.731639 46.1902159 270.281679 44.8066045 270.829658 43.1471006 271.379698 43.1471006 271.379698 43.1471006 271.379698 42.8712081 271.379698 41.4875968 271.929738 40.1039854 272.203728 38.7224484 272.477717L38.4444816 272.477717C37.0629446 272.753767 35.6793332 273.301747 34.2957219 273.577797 32.636218 273.851787 30.7008216 274.401826 29.0413177 274.401826 28.4874583 274.401826 27.9356733 274.675816 27.3818139 274.675816L27.1059214 274.675816C25.4464175 274.949806 24.0628061 274.949806 22.4033023 274.949806 21.5735503 274.949806 20.7437984 274.949806 19.9140465 274.949806 19.0842945 274.949806 18.2545426 274.949806 17.4247906 274.949806L16.3191462 274.949806 25.4464175 245.010754 81.3156897 245.010754 81.3156897 245.284744zM208.543628 0L208.543628 140.085016C208.543628 142.283115 208.543628 144.755204 208.267736 146.951242 208.267736 148.051322 208.267736 149.149341 207.991843 150.24736 207.991843 151.34744 207.713876 152.445459 207.713876 153.543478 207.713876 154.643558 207.437984 155.741577 207.437984 156.839596 207.437984 157.663626 207.162091 158.763705 207.162091 159.587735L207.162091 159.861725C207.162091 160.135714 207.162091 160.411764 207.162091 160.411764 206.884124 161.509784 206.884124 162.607803 206.608232 163.431832 206.332339 164.531912 206.332339 165.629931 206.054373 166.453961L206.054373 166.72795C205.77848 167.55198 205.77848 168.37601 205.502587 169.200039 205.502587 169.476089 205.502587 169.476089 205.502587 169.750079 204.672836 173.046197 203.843084 176.616305 202.735365 179.912423 202.459472 180.736452 202.18358 181.836532 201.905613 182.660561 201.62972 183.75858 201.353828 184.58261 200.799968 185.680629 200.524076 186.780709 199.970216 187.604738 199.694324 188.428768 199.416357 189.526787 198.864572 190.350816 198.586605 191.174846 198.310713 192.272865 197.756853 193.096895 197.480961 193.920924 197.205068 194.744954 196.651209 195.845033 196.097349 196.669063 195.821457 197.493092 195.267597 198.591112 194.715812 199.415141 194.161953 200.239171 193.88606 201.33719 193.332201 202.161219 193.056308 202.985249 192.502449 203.535289 192.226557 204.359318 191.396805 206.007377 190.567053 207.381446 189.459334 209.029505 188.629582 210.401514 187.79983 211.775584 186.970078 212.873603 186.418293 213.973682 185.864434 214.797712 185.034682 215.621741 184.758789 216.169721 184.20493 216.719761 183.929037 216.993751 183.099285 218.09383 182.545426 218.917859 181.715674 219.741889 180.885922 220.839908 180.05617 221.663938 179.502311 222.761957 177.842807 224.686066 176.183303 226.608115 174.523799 228.530164 174.801766 227.432144 175.077658 226.334125 175.353551 225.234046 175.631518 224.410016 175.631518 223.585987 175.90741 222.761957 175.90741 222.761957 175.90741 222.761957 175.90741 222.487967 175.90741 222.213977 175.90741 222.213977 175.90741 221.937928 176.183303 220.839908 176.183303 219.741889 176.46127 218.64181 176.737162 217.2698 177.013055 215.895731 177.013055 214.797712 177.013055 213.973682 177.291022 213.149653 177.291022 212.599613 177.291022 211.775584 177.566914 211.225544 177.566914 210.401514 177.842807 209.029505 177.842807 207.655436 178.120774 206.007377 178.120774 205.733387 178.120774 205.733387 178.120774 205.457337 178.120774 205.183348 178.120774 205.183348 178.120774 204.909358 178.120774 203.809278 178.396666 202.985249 178.396666 201.88723 178.396666 201.0632 178.396666 200.239171 178.396666 199.415141L178.396666 200.51316C178.396666 199.689131 178.396666 198.865101 178.396666 198.041072 178.396666 196.669063 178.396666 195.568983 178.396666 194.196974L178.396666 0 208.543628 0z"/>
      <path d="M154.057967,0 L154.057967,194.196974 C154.057967,198.865101 153.780001,203.261299 153.504108,207.655436 C153.228216,211.501594 152.674356,215.071702 151.844604,218.917859 C150.1851,227.706134 147.695845,236.222479 144.376837,244.186724 C142.44144,249.130901 139.952185,254.075078 137.462929,258.745266 C129.717194,272.479777 119.760171,284.84022 108.143644,295.276554 C84.080838,316.701321 52.2743719,329.611803 17.7006832,329.611803 L-8.52651283e-14,329.611803 L9.12727129,299.672751 L17.9786501,299.672751 C43.9768526,299.672751 67.7637662,290.332377 86.0183088,274.951866 C95.975332,266.711571 104.272851,256.823217 110.357007,245.560793 C112.016511,242.814715 113.400123,239.792587 114.78166,236.770459 C116.995023,231.826282 118.654527,226.882105 120.038138,221.663938 C121.697642,215.895731 122.803286,209.853535 123.079179,203.809278 C123.357146,200.78921 123.357146,197.767082 123.357146,194.744954 L123.357146,0 L154.057967,0 Z"/>
      <path d="M99.5702323,191.174846 L99.5702323,194.196974 C99.5702323,196.669063 99.5702323,199.141151 99.2943397,201.33925 C98.7404803,206.007377 98.1866209,210.677564 96.8050839,215.071702 C96.2512245,217.2698 95.6973651,219.467899 94.8676132,221.389948 L32.636218,221.389948 L41.7634893,191.450896 L99.5702323,191.450896 L99.5702323,191.174846 Z"/>
    </g>
  </g>
</svg>
