<svg xmlns="http://www.w3.org/2000/svg" width="563" height="456" viewBox="0 0 563 456">
  <g fill="#FFF" fill-rule="evenodd" transform="translate(-1 -3.865)">
    <text font-family="Inter-Regular, Inter" font-size="7">
      <tspan x="363.435" y="9.48">2a</tspan>
    </text>
    <text font-family="Inter-Regular, Inter" font-size="7">
      <tspan x="325.152" y="9.48">2a</tspan>
    </text>
    <text font-family="Inter-Regular, Inter" font-size="7">
      <tspan x="342.022" y="9.48">1,6a</tspan>
    </text>
    <text font-family="Inter-Regular, Inter" font-size="7">
      <tspan x="304.558" y="9.48">1,6a</tspan>
    </text>
    <text font-family="Inter-Regular, Inter" font-size="7">
      <tspan x="287.044" y="9.48">2a</tspan>
    </text>
    <text font-family="Inter-Regular, Inter" font-size="7">
      <tspan x=".996" y="300.736">2a</tspan>
    </text>
    <text font-family="Inter-Regular, Inter" font-size="7">
      <tspan x=".996" y="327.098">3a</tspan>
    </text>
    <text font-family="Inter-Regular, Inter" font-size="7">
      <tspan x=".996" y="388.166">5a</tspan>
    </text>
    <text font-family="Inter-Regular, Inter" font-size="7">
      <tspan x=".996" y="459.153">5a</tspan>
    </text>
    <text font-family="Inter-Regular, Inter" font-size="7">
      <tspan x=".996" y="51.529">5a</tspan>
    </text>
    <text font-family="Inter-Regular, Inter" font-size="7">
      <tspan x=".996" y="263.195">2a</tspan>
    </text>
    <text font-family="Inter-Regular, Inter" font-size="7">
      <tspan x=".996" y="224.086">2a</tspan>
    </text>
    <text font-family="Inter-Regular, Inter" font-size="7">
      <tspan x=".996" y="243.98">1,6a</tspan>
    </text>
    <text font-family="Inter-Regular, Inter" font-size="7">
      <tspan x=".996" y="282.424">1,6a</tspan>
    </text>
    <text font-family="Inter-Regular, Inter" font-size="7">
      <tspan x="451.404" y="9.473">11,65a</tspan>
    </text>
    <text font-family="Inter-Regular, Inter" font-size="7">
      <tspan x="170.732" y="9.473">11,65a</tspan>
    </text>
    <text font-family="Inter-Regular, Inter" font-size="7">
      <tspan x="555.704" y="9.473">5a</tspan>
    </text>
    <text font-family="Inter-Regular, Inter" font-size="7">
      <tspan x="54.014" y="9.473">5a</tspan>
    </text>
    <path d="M318.8652 76.2534L340.0382 76.2534 340.0382 175.6944C340.0382 199.9164 330.9552 222.0214 316.0492 238.8544 317.8912 230.7864 318.8652 222.4024 318.8652 213.8064L318.8652 76.2534zM250.9839 249.854L250.9839 249.874C240.6839 262.574 225.0239 270.774 207.4639 271.014L213.8039 249.854 250.9839 249.854zM263.804 211.7544L263.804 213.8734C263.804 220.5544 262.664 226.9534 260.544 232.9134L218.864 232.9134 225.184 211.7544 263.804 211.7544zM356.9685 76.2447L378.1415 76.2447 378.1415 137.6477C378.1415 161.8697 369.0585 183.9737 354.1525 200.8077 355.9945 192.7407 356.9685 184.3557 356.9685 175.7597L356.9685 76.2447z"/>
    <path d="M301.9238 76.2339L301.9238 213.8739C301.9238 266.4249 259.1488 309.1339 206.6438 309.1339L196.0638 309.1339 202.3838 287.9739 206.6438 287.9739C247.3298 287.9739 280.7438 254.9299 280.7438 213.8739L280.7438 76.2339 301.9238 76.2339zM407.6331 373.1939C404.7431 376.2949 403.2981 380.4729 403.2981 385.7309 403.2981 390.9889 404.7431 395.1679 407.6331 398.2679 410.5231 401.3689 414.2871 402.9199 418.9251 402.9199 423.5631 402.9199 427.3271 401.3689 430.2171 398.2679 433.1071 395.1679 434.5521 390.9889 434.5521 385.7309 434.5521 380.4729 433.1071 376.2949 430.2171 373.1939 427.3271 370.0929 423.5631 368.5429 418.9251 368.5429 414.2871 368.5429 410.5231 370.0929 407.6331 373.1939L407.6331 373.1939zM99.6591 351.4789L110.2451 351.4789 110.2451 340.8929 99.6591 340.8929 99.6591 351.4789zM453.4101 412.8809L453.4101 359.9489 463.9961 359.9489 463.9961 367.0259 464.5001 367.0259C464.6351 366.8239 464.8031 366.5379 465.0051 366.1669 465.2061 365.7969 465.7441 365.1389 466.6181 364.1949 467.4921 363.2519 468.4491 362.4249 469.4911 361.7179 470.5331 361.0099 471.9611 360.3699 473.7761 359.7979 475.5911 359.2239 477.5401 358.9379 479.6241 358.9379 482.0431 358.9379 484.2781 359.2749 486.3281 359.9489 488.3781 360.6229 489.9911 361.4309 491.1681 362.3759 492.3441 363.3189 493.3351 364.2459 494.1421 365.1559 494.9481 366.0659 495.4861 366.8579 495.7551 367.5319L496.2591 368.5429 496.7631 368.5429C496.8981 368.2729 497.0821 367.9199 497.3181 367.4809 497.5531 367.0429 498.1751 366.2849 499.1831 365.2069 500.1911 364.1279 501.3001 363.1679 502.5101 362.3249 503.7201 361.4819 505.4001 360.7069 507.5511 359.9999 509.7021 359.2919 511.9871 358.9379 514.4071 358.9379 520.3221 358.9379 524.9931 360.8249 528.4211 364.5989 531.8491 368.3749 533.5631 373.7329 533.5631 380.6749L533.5631 412.8809 522.9771 412.8809 522.9771 381.1809C522.9771 372.7559 519.2801 368.5429 511.8861 368.5429 508.2571 368.5429 505.1651 369.9239 502.6111 372.6879 500.0571 375.4519 498.7801 378.9569 498.7801 383.2039L498.7801 412.8809 488.1941 412.8809 488.1941 381.1809C488.1941 372.7559 484.4971 368.5429 477.1031 368.5429 473.4741 368.5429 470.3821 369.9239 467.8281 372.6879 465.2731 375.4519 463.9961 378.9569 463.9961 383.2039L463.9961 412.8809 453.4101 412.8809zM400.5291 405.1439C395.9591 400.1559 393.6731 393.6849 393.6731 385.7309 393.6731 377.7769 395.9761 371.3229 400.5801 366.3689 405.1841 361.4149 410.9471 358.9379 417.8711 358.9379 421.0301 358.9379 423.9531 359.5779 426.6421 360.8589 429.3311 362.1389 431.2461 363.3859 432.3891 364.5989L434.0021 366.5209 434.5061 366.5209 434.5061 359.9489 445.0921 359.9489 445.0921 412.8809 434.5061 412.8809 434.5061 404.4359 434.0021 404.4359C433.8671 404.6379 433.6491 404.9239 433.3471 405.2959 433.0441 405.6659 432.3891 406.3229 431.3811 407.2669 430.3731 408.2109 429.2971 409.0369 428.1541 409.7439 427.0121 410.4519 425.4991 411.0919 423.6171 411.6659 421.7351 412.2379 419.8201 412.5249 417.8711 412.5249 410.9471 412.5249 405.1671 410.0639 400.5291 405.1439L400.5291 405.1439zM350.7121 380.6749L380.9581 380.6749C380.4211 377.3729 378.8241 374.5249 376.1691 372.1319 373.5141 369.7389 370.0701 368.5429 365.8351 368.5429 362.2061 368.5429 358.9621 369.6379 356.1061 371.8289 353.2491 374.0189 351.4511 376.9679 350.7121 380.6749L350.7121 380.6749zM345.7831 404.8399C340.7421 399.6499 338.2221 393.2809 338.2221 385.7309 338.2221 378.1809 340.7591 371.8289 345.8341 366.6729 350.9081 361.5159 357.1091 358.9379 364.4351 358.9379 371.7611 358.9379 377.9621 361.5159 383.0371 366.6729 388.1121 371.8289 390.6491 378.1809 390.6491 385.7309L390.6491 389.2699 348.8081 389.2699C349.5471 393.4489 351.3621 396.7679 354.2521 399.2289 357.1431 401.6889 360.5371 402.9199 364.4351 402.9199 367.5941 402.9199 370.3841 402.3299 372.8031 401.1499 375.2231 399.9699 376.8701 398.7739 377.7441 397.5599L379.0541 395.8409 390.1441 395.8409C390.0101 396.3139 389.7751 396.9209 389.4391 397.6619 389.1031 398.4029 388.2461 399.7339 386.8681 401.6559 385.4901 403.5769 383.9271 405.2609 382.1801 406.7109 380.4321 408.1599 377.9791 409.4919 374.8201 410.7049 371.6611 411.9179 368.1991 412.5249 364.4351 412.5249 357.1091 412.5249 350.8921 409.9639 345.7831 404.8399L345.7831 404.8399zM317.9371 369.5539L317.8241 412.8809 307.2381 412.8809 307.3511 367.6129C307.3511 363.3809 310.7821 359.9489 315.0151 359.9489L317.9371 359.9489 338.6061 359.9489 338.6061 369.5539 317.9371 369.5539zM268.5351 369.5539L268.5351 359.9489 274.5841 359.9489 274.5841 348.8269 285.1701 348.8269 285.1701 359.9489 300.7981 359.9489 300.7981 369.5539 285.1701 369.5539 285.1701 403.2749 301.3021 403.2749 301.3021 412.8809 283.3431 412.8809C278.5061 412.8809 274.5841 408.9589 274.5841 404.1209L274.5841 369.5539 268.5351 369.5539zM220.6451 396.0199L232.2391 396.0199C232.3061 396.2219 232.4241 396.4919 232.5921 396.8289 232.7601 397.1659 233.1631 397.7719 233.8021 398.6479 234.4401 399.5249 235.1801 400.2989 236.0201 400.9739 236.8601 401.6479 238.0701 402.2549 239.6501 402.7939 241.2291 403.3329 242.9601 403.6029 244.8421 403.6029 248.5391 403.6029 251.2271 403.0299 252.9071 401.8829 254.5881 400.7379 255.4281 399.2889 255.4281 397.5359 255.4281 395.9189 254.3191 394.6379 252.1011 393.6939 249.8831 392.7509 247.1941 391.9749 244.0351 391.3689 240.8761 390.7619 237.7171 389.9699 234.5581 388.9929 231.3991 388.0149 228.7101 386.3469 226.4921 383.9879 224.2741 381.6289 223.1651 378.5619 223.1651 374.7869 223.1651 370.7429 225.0141 367.2039 228.7101 364.1709 232.4071 361.1369 237.2801 359.6209 243.3301 359.6209 247.0931 359.6209 250.4541 360.1769 253.4121 361.2899 256.3691 362.4009 258.5871 363.7499 260.0661 365.3339 261.5451 366.9179 262.7711 368.5019 263.7461 370.0859 264.7201 371.6699 265.3421 373.0349 265.6111 374.1799L266.0141 375.7979 254.9241 375.7979C254.8571 375.5959 254.7561 375.3599 254.6221 375.0899 254.4871 374.8209 254.1341 374.2979 253.5631 373.5229 252.9911 372.7479 252.3191 372.0739 251.5461 371.5019 250.7731 370.9279 249.6641 370.4059 248.2191 369.9339 246.7741 369.4629 245.1441 369.2259 243.3301 369.2259 240.3721 369.2259 238.1201 369.7649 236.5741 370.8439 235.0291 371.9229 234.2561 373.2699 234.2561 374.8879 234.2561 376.2359 235.0451 377.3649 236.6251 378.2749 238.2051 379.1849 240.2041 379.8419 242.6241 380.2469 245.0431 380.6509 247.6311 381.2409 250.3871 382.0159 253.1431 382.7919 255.7301 383.6839 258.1501 384.6959 260.5701 385.7069 262.5701 387.3069 264.1491 389.4989 265.7291 391.6889 266.5181 394.3679 266.5181 397.5359 266.5181 401.8499 264.5861 405.5409 260.7211 408.6079 256.8561 411.6739 251.5631 413.2079 244.8421 413.2079 240.8761 413.2079 237.3311 412.6179 234.2051 411.4379 231.0801 410.2589 228.7101 408.8269 227.0971 407.1409 225.4841 405.4569 224.1571 403.7709 223.1151 402.0869 222.0731 400.4009 221.4181 398.9859 221.1491 397.8399L220.6451 396.0199zM170.7381 359.9489L181.8291 359.9489 193.1571 402.2939 198.2041 402.2939 210.5621 359.9489 221.6531 359.9489 200.1181 431.9359 189.0081 431.9359 195.0091 412.8809 191.3321 412.8809C187.7271 412.8809 184.5671 410.4689 183.6151 406.9919L170.7381 359.9489zM131.7201 373.1939C128.8301 376.2949 127.3851 380.4729 127.3851 385.7309 127.3851 390.9889 128.8301 395.1679 131.7201 398.2679 134.6111 401.3689 138.3741 402.9199 143.0121 402.9199 147.6501 402.9199 151.4141 401.3689 154.3041 398.2679 157.1951 395.1679 158.6401 390.9889 158.6401 385.7309 158.6401 380.4729 157.1951 376.2949 154.3041 373.1939 151.4141 370.0929 147.6501 368.5429 143.0121 368.5429 138.3741 368.5429 134.6111 370.0929 131.7201 373.1939L131.7201 373.1939zM123.9571 404.8399C118.8491 399.7169 116.2951 393.3479 116.2951 385.7309 116.2951 378.1139 118.8491 371.7449 123.9571 366.6219 129.0651 361.4989 135.4171 358.9379 143.0121 358.9379 150.6081 358.9379 156.9591 361.4989 162.0681 366.6219 167.1761 371.7449 169.7301 378.1139 169.7301 385.7309 169.7301 393.3479 167.1761 399.7169 162.0681 404.8399 156.9591 409.9639 150.6081 412.5249 143.0121 412.5249 135.4171 412.5249 129.0651 409.9639 123.9571 404.8399L123.9571 404.8399zM83.7801 431.9359L83.7801 422.3309 99.6591 422.3309 99.6591 359.9489 110.2451 359.9489 110.2451 423.1759C110.2451 428.0139 106.3241 431.9359 101.4861 431.9359L83.7801 431.9359z"/>
  </g>
</svg>
