<svg xmlns="http://www.w3.org/2000/svg" viewBox="0 0 170 36">
    <g fill-rule="nonzero" fill="none">
        <path d="M36.622 32.136v-2.833h4.456v-18.06h3.128V29.54a2.6 2.6 0 01-2.597 2.597h-4.987zm11.656-7.643c-1.505-1.505-2.272-3.394-2.272-5.636 0-2.243.767-4.132 2.272-5.637s3.394-2.272 5.636-2.272c2.243 0 4.102.767 5.637 2.272 1.505 1.505 2.272 3.394 2.272 5.637 0 2.242-.767 4.131-2.272 5.636s-3.394 2.272-5.637 2.272c-2.272 0-4.131-.767-5.636-2.272zm2.272-9.354c-.856.914-1.269 2.154-1.269 3.688 0 1.535.413 2.774 1.27 3.689.855.915 1.976 1.387 3.334 1.387 1.357 0 2.479-.472 3.334-1.387.856-.915 1.27-2.154 1.27-3.689 0-1.534-.414-2.774-1.27-3.688-.855-.915-1.977-1.388-3.334-1.388-1.358.03-2.479.473-3.335 1.388zm11.51-3.896h3.275L68.61 23.49h1.623l3.571-12.247h3.276l-6.256 20.893h-3.276l1.77-5.666h-1.15c-1.151 0-2.184-.767-2.48-1.888L62.06 11.243zM76.783 21.69h3.424c.03.059.059.147.118.236l.354.531c.177.266.413.502.65.679.235.206.619.383 1.061.53.473.148.974.237 1.535.237 1.092 0 1.888-.177 2.39-.502.502-.324.738-.767.738-1.269 0-.472-.325-.856-.974-1.121a12.368 12.368 0 00-2.39-.679 24.385 24.385 0 01-2.804-.708 5.448 5.448 0 01-2.39-1.475c-.65-.709-.974-1.594-.974-2.715 0-1.18.531-2.243 1.623-3.128 1.092-.886 2.538-1.328 4.309-1.328 1.121 0 2.095.177 2.98.501.885.325 1.535.738 1.977 1.18.443.473.797.945 1.092 1.417.295.472.472.856.56 1.21l.119.472h-3.276c-.03-.059-.059-.118-.088-.206-.03-.089-.148-.236-.325-.473a2.8 2.8 0 00-.59-.59c-.236-.177-.56-.324-.974-.472-.413-.147-.915-.206-1.446-.206-.885 0-1.534.147-2.007.472-.442.324-.678.708-.678 1.18 0 .384.236.738.708 1.003.472.266 1.062.473 1.77.59.709.119 1.476.296 2.302.532a23.29 23.29 0 012.302.797 4.12 4.12 0 011.77 1.416c.473.65.71 1.446.71 2.36 0 1.27-.562 2.362-1.713 3.276-1.15.915-2.714 1.358-4.692 1.358-1.18 0-2.213-.177-3.128-.531-.914-.354-1.623-.768-2.095-1.27a10.51 10.51 0 01-1.18-1.504c-.295-.502-.502-.915-.59-1.24l-.178-.56zm14.136-7.614v-2.833h1.77V7.968h3.128v3.275h4.633v2.833h-4.603v9.561h4.75v2.833h-5.31a2.6 2.6 0 01-2.598-2.597v-9.797h-1.77zm14.578 0V26.47h-3.129V13.516a2.273 2.273 0 012.273-2.273H111.606v2.833h-6.108zm8.233 10.417c-1.476-1.534-2.243-3.423-2.243-5.636s.767-4.102 2.243-5.637c1.505-1.534 3.334-2.272 5.489-2.272 2.154 0 3.983.767 5.488 2.272 1.505 1.535 2.243 3.394 2.243 5.637v1.033h-12.335c.207 1.24.767 2.213 1.594 2.95.855.738 1.859 1.092 3.01 1.092.944 0 1.74-.177 2.478-.53.709-.355 1.21-.709 1.446-1.063l.384-.502h3.276c-.03.148-.118.325-.207.531-.089.207-.354.62-.767 1.18a8.398 8.398 0 01-1.387 1.506c-.502.413-1.24.826-2.184 1.18-.944.354-1.948.531-3.069.531-2.125 0-3.954-.767-5.46-2.272zm1.446-7.141h8.912c-.148-.974-.62-1.83-1.417-2.508-.796-.709-1.8-1.063-3.04-1.063-1.062 0-2.036.325-2.862.974-.826.65-1.357 1.505-1.593 2.597zm14.696 7.23c-1.358-1.476-2.037-3.394-2.037-5.725 0-2.331.68-4.25 2.037-5.725 1.357-1.476 3.069-2.184 5.105-2.184.944 0 1.8.177 2.597.56.796.384 1.357.738 1.682 1.093l.472.56h.147v-1.947h3.128V26.44h-3.128v-2.095h-.147c-.03.059-.118.147-.207.265-.088.118-.295.295-.59.59a7.41 7.41 0 01-.944.738c-.325.207-.797.384-1.328.56a5.56 5.56 0 01-1.682.266c-2.007 0-3.718-.737-5.105-2.183zm15.846 1.888V11.243h3.128v2.096h.148c.03-.06.088-.148.148-.266.058-.118.206-.295.472-.59.265-.266.53-.532.856-.738.295-.207.737-.384 1.268-.56a5.468 5.468 0 011.712-.266c.708 0 1.387.088 1.977.295.62.206 1.092.442 1.417.708.354.266.649.56.885.826.236.266.383.502.472.708l.148.295h.147c.03-.088.089-.177.177-.324.06-.118.266-.354.56-.679.296-.324.62-.59.975-.856.354-.236.855-.472 1.475-.678a6.538 6.538 0 012.036-.325c1.741 0 3.128.56 4.132 1.682 1.003 1.122 1.505 2.685 1.505 4.751v9.09h-3.128v-8.913c0-2.478-1.092-3.718-3.276-3.718-1.062 0-1.977.413-2.744 1.21-.768.826-1.122 1.859-1.122 3.098v8.352h-3.128v-8.942c0-2.478-1.092-3.718-3.275-3.718-1.063 0-1.978.413-2.745 1.21-.767.826-1.121 1.859-1.121 3.098v8.352h-3.099v.03zM41.107 5.43v3.128h3.128V5.43h-3.128zm90.86 9.709c-.855.914-1.268 2.154-1.268 3.688 0 1.535.413 2.774 1.269 3.689.856.915 1.977 1.387 3.334 1.387 1.358 0 2.48-.472 3.335-1.387.856-.915 1.269-2.154 1.269-3.689 0-1.534-.413-2.774-1.269-3.688-.856-.915-1.977-1.388-3.335-1.388-1.357.03-2.478.473-3.334 1.388z" fill="#FFF"/>
        <g fill="currentColor">
            <path d="M24.847 0h3.217v9.236c0 3.69-1.387 7.083-3.66 9.65.296-1.24.443-2.508.443-3.836V0zM8.676 26.352c-.089.089-.148.177-.236.266l-.089.088c-.088.089-.147.177-.236.236l-.118.118c-.088.089-.177.177-.295.266-.118.118-.236.207-.354.325a1.898 1.898 0 01-.384.295l-.354.265c-.295.177-.59.354-.885.502-.06.03-.118.06-.207.088-.088.03-.147.06-.206.089-.089.03-.148.06-.236.089-.148.059-.295.118-.472.177h-.03c-.148.059-.295.088-.443.118h-.03c-.147.03-.294.088-.442.118-.177.03-.383.088-.56.088-.06 0-.118.03-.178.03h-.029c-.177.03-.325.03-.502.03h-.649l.974-3.217h5.96v.03zM22.25 0v15.05c0 .236 0 .502-.03.738 0 .118 0 .236-.029.354 0 .118-.03.236-.03.354s-.029.236-.029.354c0 .089-.03.207-.03.295v.089c-.029.118-.029.236-.058.324-.03.118-.03.236-.06.325v.03c-.029.088-.029.176-.058.265v.06c-.089.353-.177.737-.295 1.09-.03.09-.06.208-.089.296a1.43 1.43 0 01-.118.325c-.03.118-.088.206-.118.295-.03.118-.088.206-.118.295-.03.118-.089.206-.118.295-.03.088-.089.207-.148.295a1.38 1.38 0 01-.147.295c-.06.089-.089.207-.148.295-.03.089-.088.148-.118.236a4.423 4.423 0 01-.295.502c-.088.147-.177.295-.265.413a1.055 1.055 0 01-.207.295c-.03.06-.088.118-.118.148-.088.118-.148.206-.236.295-.089.118-.177.206-.236.324l-.531.62.088-.354c.03-.089.03-.177.06-.266v-.03-.058c.029-.118.029-.236.058-.354.03-.148.06-.295.06-.413 0-.089.029-.177.029-.236 0-.089.03-.148.03-.237.029-.147.029-.295.058-.472v-.059-.059c0-.118.03-.206.03-.324v-.266V21.276 0h3.216z"/>
            <path d="M16.437 0v20.863c0 .502-.03.974-.06 1.446-.028.414-.088.797-.176 1.21-.177.945-.443 1.86-.797 2.715a15.115 15.115 0 01-.738 1.564 15.542 15.542 0 01-3.128 3.925 14.423 14.423 0 01-9.65 3.689H0l.974-3.217h.944a11.19 11.19 0 007.26-2.656 10.703 10.703 0 002.596-3.157c.177-.295.325-.62.472-.945.237-.53.414-1.062.561-1.623a8.41 8.41 0 00.325-1.918c.03-.324.03-.649.03-.974V0h3.275z"/>
            <path d="M10.624 20.539v.324c0 .266 0 .532-.03.768-.059.501-.118 1.003-.265 1.475-.06.236-.119.472-.207.679h-6.64l.974-3.217h6.168v-.03z"/>
        </g>
    </g>
</svg>
