<svg width="80" height="80" viewBox="0 0 80 80" fill="none" xmlns="http://www.w3.org/2000/svg">
<circle cx="40" cy="40" r="40" fill="#F2F5F9"/>
<path d="M40 60V54H41C42.0609 54 43.0783 53.5786 43.8284 52.8284C44.5786 52.0783 45 51.0609 45 50C45 48.9391 44.5786 47.9217 43.8284 47.1716C43.0783 46.4214 42.0609 46 41 46H40V34H39C37.9391 34 36.9217 33.5786 36.1716 32.8284C35.4214 32.0783 35 31.0609 35 30C35 28.9391 35.4214 27.9217 36.1716 27.1716C36.9217 26.4214 37.9391 26 39 26H40V20" stroke="#4038FF" stroke-width="3" stroke-miterlimit="10" stroke-linecap="square"/>
<path d="M20 40H26V41C26 42.0609 26.4214 43.0783 27.1716 43.8284C27.9217 44.5786 28.9391 45 30 45C31.0609 45 32.0783 44.5786 32.8284 43.8284C33.5786 43.0783 34 42.0609 34 41V40H46V39C46 37.9391 46.4214 36.9217 47.1716 36.1716C47.9217 35.4214 48.9391 35 50 35C51.0609 35 52.0783 35.4214 52.8284 36.1716C53.5786 36.9217 54 37.9391 54 39V40H60" stroke="#4038FF" stroke-width="3" stroke-miterlimit="10" stroke-linecap="square"/>
<path d="M60 20H20V60H60V20Z" stroke="#4038FF" stroke-width="3" stroke-miterlimit="10" stroke-linecap="square"/>
</svg>
