<svg viewBox="0 0 400 320" xmlns="http://www.w3.org/2000/svg">
  <g fill="none" fill-rule="nonzero">
    <path d="M263.887594 176.637172c-1.576498 5.422309-5.350162 8.725554-9.856214 11.21857-.719975.423812-.719975.660649-.372401 1.383623 3.637117 7.479047 3.885384 15.020419-.11172 22.43714-2.065525 3.577822-5.147235 6.455361-8.850731 8.264346-5.126721 2.779713-10.737563 3.739524-16.460126 4.300452-10.774802 1.009672-21.214444-.847625-31.529953-3.739523-12.1268567-3.510098-23.656417-8.838731-34.1988269-15.805718-7.1974674-4.594559-13.4439583-10.541171-18.3966105-17.513434-2.2716462-3.21599-4.6425994-6.344725-6.0204832-10.046853-2.2219927-5.970772-2.9916215-12.07866-.7199753-18.236408 1.9488987-5.260263 5.7970426-8.725555 10.6134292-11.21857.8349578-.490732 1.7064977-.915814 2.6068071-1.271438.8316956-.274232 1.0427229-.660649.744802-1.508274-1.0423136-3.106861-1.4641426-6.389654-1.2413367-9.660436.242309-4.648771 2.5130992-8.953882 6.2066837-11.767033 1.940681-1.6627593 4.1541819-2.9744603 6.5418446-3.8766389.4948605-.1885216.8781906-.5917784 1.0427229-1.0969269 4.7543197-10.4083397 9.5582929-20.7917493 14.6105334-31.0629733.4468812-.9099506.7944555-1.8697616 1.2413367-2.7547821 1.383584-2.1101458 1.7007098-4.7500244.8565224-7.1300244-1.8769165-5.1285242-.7890114-10.8781923 2.8302478-14.9580931 1.101288-1.2653622 2.3960486-2.3467201 3.8357305-3.2035249.2785631-.1156327.4954633-.3441295.5971433-.6290699.1016801-.2849405.0786628-.5997658-.0633685-.8667394-1.994678-6.0714009-1.5902806-12.6802726 1.1296165-18.4607799 1.704135-3.7649786 4.426652-6.97391587 7.857661-9.26155261 9.111412-6.12035309 19.327613-7.6161624 30.027936-7.06769898 15.367749.78529989 29.407268 5.62174998 42.677157 13.20051719 8.507101 4.8326226 16.076314 11.1665761 22.344062 18.6976163 5.416042 6.174416 8.835946 13.8556106 9.80656 22.0257921.987446 7.6665441-1.989459 15.3090148-7.894902 20.2682161-1.157097 1.0869234-2.450781 2.0172274-3.848144 2.7672472-.757215.3864174-.943416.7728348-.645495 1.6578553 1.019403 3.0292526 1.178444 6.283747.459295 9.3986685-1.14203 5.1231469-4.506053 8.3640671-8.962451 10.6327112-1.475016.7769645-3.043808 1.3593325-4.667427 1.7326455-.484309.046692-.896806.37319-1.055136.83516-1.820627 5.143922-3.678494 10.275379-5.573602 15.394371-.322497.586866-.12508 1.324758.446881 1.670321 2.954382 2.767247 5.82187 5.64668 8.776251 8.413927 2.954382 2.767247 5.834283 5.247798 8.689357 7.902859.583429.548464 1.117203.349022 1.700632.186976 2.286436-.693819 4.707486-.813664 7.050792-.349022 5.126721 1.159252 7.832835 4.674404 9.024518 9.59811.188067.548362.264063 1.129181.223441 1.707716-.372401 1.957017.782042 3.004083 2.060619 4.175801 6.633767 5.871511 13.610027 11.340906 20.891697 16.379111 4.133652 2.991619 8.205236 6.082958 12.251994 9.211693 6.454951 4.986031 28.550745 21.377608 33.602985 27.572751 1.404736 1.756382 2.619782 3.657576 3.624704 5.671611 1.34933 2.581437 1.578375 5.607498.633082 8.364067-2.044684 6.814472-7.071572 12.321195-13.654705 14.958093-2.615795 1.155879-5.607371 1.087398-8.167995-.186976-4.530879-2.206319-32.84577-22.773697-37.401476-27.423171-6.293578-6.40705-12.748529-12.664519-19.091759-19.034173-4.245372-4.250592-8.689358-8.214487-13.245063-12.153451-.479129-.502462-1.192702-.703095-1.862005-.523533-4.903281.947346-9.198306-.224372-12.487848-4.138406-2.027432-2.503085-2.970881-5.717888-2.619221-8.924996.135435-.959022-.327484-1.903553-1.166856-2.380829-1.613738-1.196648-3.128169-2.455621-4.841213-3.776919z" fill="#000"/>
    <path d="M156.9713674 155.056923c10.7116324-.552264 21.4365291.789907 31.6874516 3.965536 13.125338 3.795663 25.597072 9.587755 36.983196 17.175648 4.191406 2.865087 8.156386 6.052018 11.859486 9.532297 3.039672 2.884883 5.872794 5.982475 8.478164 9.269596.074284-1.677508-.055129-3.35787-.385371-5.00383-.47239-2.07659-.335646-4.240747-1.802542-6.117183-2.640636-3.478127-5.55034-6.740777-8.701929-9.75747-3.143832-2.927483-6.505991-5.608211-10.056943-8.018638-9.704121-6.459241-20.330897-11.390561-31.513413-14.623694-8.7315469-2.701097-17.8653702-3.84419-26.9884095-3.377586-4.3913916.134862-8.7286748 1.014546-12.8291289 2.601992-3.4296896 1.266115-6.4423667 3.46622-8.7019286 6.354865 3.8952804-1.152139 7.9151332-1.824232 11.9713674-2.001533z" fill="#C4C3C6"/>
    <path d="M221.898251 30.00278953c7.320217-.01254903 14.612611.9020209 21.703482 2.72192529 9.439956 2.49675388 18.416114 6.50049758 26.58304 11.85715398 6.787532 4.2456333 12.818044 9.5975698 17.84205 15.8343964 1.248257 1.5786451 2.388984 3.2395812 3.414449 4.971553.869132 1.4790371.496647 3.2190806.372485 4.8099776-.173793 3.1335604-.945052 6.2048757-2.272161 9.0482265-1.080714 2.1510535-2.619146 4.0389404-4.507073 5.5308528-.446982.3728665-.645641.2734354-.943629-.2610066-1.394264-2.6178306-3.108443-5.0518672-5.10305-7.2460385-3.24924-3.5316966-6.86165-6.71037-10.777244-9.4832374-8.767469-6.2929701-18.454974-11.1898929-28.718623-14.5169349-6.262028-2.088056-12.717731-3.5412424-19.26991-4.33768-5.364761-.7108153-10.814182-.4328-16.078953.8203063-3.918038.824307-7.256534 3.3718295-9.088643 6.9353164-.460054.8763772-.718812 1.8445285-.757387 2.8337853 0 .422582 0 1.0067395-.471815 1.0813128-.471815.0745732-.484231-.5220131-.58356-.8575929-2.30941-7.3827563-1.564439-14.2062128 3.650357-20.2715075 3.080074-3.440889 7.057179-5.9544086 11.484966-7.25846747 4.344409-1.51833659 8.919964-2.26698863 13.521219-2.2123411z" fill="#FFF"/>
    <path d="M288.623765 69.3978894c-5.137051-6.436681-11.316051-11.9610437-18.278667-16.342124-8.348346-5.5310223-17.537503-9.6632339-27.207759-12.234878-7.27066-1.8852435-14.751384-2.8318068-22.260893-2.8167518-4.725433-.0677174-9.426085.6966505-13.888324 2.2583649-4.533201 1.3381609-8.605616 3.9161163-11.761172 7.445159-.75781.8900436-1.448176 1.8357375-2.065316 2.8291604-.405245 3.4238463-.046166 6.8952677 1.051209 10.1626421.098937.3350321.098937.9430535.581256.8561933.48232-.0868602.457585-.6576557.469952-1.0795481.038423-.9876423.296159-1.9542135.754397-2.8291604 1.824877-3.5576712 5.150193-6.1010361 9.052764-6.9239979 5.243986-1.2510612 10.671894-1.5286227 16.015476-.8189675 6.537258.8177096 12.975895 2.2934974 19.218571 4.4050524 10.22313 3.3216122 19.872391 8.2105431 28.605248 14.4932429 3.90075 2.7722389 7.498922 5.9499041 10.734697 9.4801691 1.986733 2.1905904 3.694145 4.6206546 5.082904 7.2342129.296812.5335697.494687.6328385.939905.2605805 1.880473-1.4894775 3.412832-3.3742833 4.48928-5.5218262.889464-1.8671706 1.509905-3.8517127 1.842707-5.8940842-1.012495-1.7290251-2.140486-3.3872959-3.376235-4.9634394z" fill="#C4C3C6"/>
    <path d="M263.697281 82.2673747c-6.872796-5.0308497-14.324296-9.2532054-22.20148-12.5803578-6.453151-2.779582-13.170628-4.9272955-20.054552-6.4118458-5.287547-1.2208728-10.700789-1.8413969-16.132992-1.8493369-.451158.001322-.889154-.1489709-1.241-.4258342-.48399.0851668-.967979.1460003-1.451969.194667l.07446.1703337c-.116509.0436636-.237026.0762577-.35989.0973335-3.565727.1738534-7.078526.9177091-10.399576 2.202171-3.015628 1.3261692-5.783057 2.9686724-7.1109264 6.1928454-1.1689604 3.0086794-1.08427 6.3473581.2357899 9.2953514.7929654-2.2286178 2.4650449-4.0520075 4.6413375-5.0613432 3.995814-2.13719 8.466532-3.2778739 13.018085-3.3215065 6.375921.0104542 12.72543.8033987 18.900421 2.360338 5.287139 1.3247249 10.444847 3.1038949 15.413214 5.3168436 3.320385 1.3921243 6.545443 2.9933592 9.654975 4.793676 3.950317 2.2433287 7.721364 4.7772144 11.280685 7.5798481 4.57664 3.4301443 8.46467 7.6627312 11.466835 12.4830243.122575.2828194.356081.5053811.647898.6175305.291816.1121494.61739.1044502.903352-.0213627 1.967153-.6545375 3.622314-1.9916513 4.653747-3.7595073 2.1097-3.0660059 1.67535-4.7571759-.632909-7.385181-3.370121-3.8868455-7.160848-7.4033588-11.305505-10.4876871zM182.6987441 135.731761c-5.5064668-.248499-10.9894885.863666-15.9672082 3.238756-3.2786191 1.570713-5.8876843 4.268049-7.3541397 7.602948-.2912724.702409-.9742681 1.160851-1.7325854 1.162951-.735414.112544-.6855554-.662757-.8600604-1.062912-1.7699794-4.014056-2.4929287-8.190676-.909919-12.392305 1.5070851-3.877872 4.5968388-6.922971 8.4884222-8.365744 6.7184428-2.826096 13.7111078-3.2262509 20.9530656-2.738562 5.4259378.419151 10.8032678 1.327332 16.0669258 2.713552 4.418485 1.201814 8.749703 2.705917 12.963229 4.501746 3.614746 1.463067 7.254422 3.27627 10.806846 5.214522 4.75859 2.528709 9.295294 5.45696 13.561532 8.753394 3.111758 2.426538 6.029113 5.094074 8.72525 7.978094 2.78219 2.869793 5.163839 6.104644 7.079918 9.616229.465196.913948.597464 1.962239.373939 2.963649-.660626 4.026561-2.006808 7.727996-5.434585 10.29149-.316479.215087-.645281.411334-.984706.587728-.610768.350136-1.009637.287612-1.184142-.512699-1.246464-5.802249-4.524665-10.466558-8.426098-14.743216-6.510107-7.04547-14.375647-12.694597-23.121914-16.60644-5.864768-2.852256-12.032469-5.02945-18.385349-6.490016-4.801919-1.147746-9.7221068-1.72278-14.6584209-1.713165z" fill="#C4C3C6"/>
    <path d="M156.8307877 137.764778c1.4922635-3.780883 4.5703189-6.753408 8.4530542-8.163245 6.732521-2.769891 13.7767328-3.16036 20.9705562-2.684476 5.4264919.414964 10.8045699 1.301073 16.0707769 2.647869 4.416324 1.175022 8.744557 2.646843 12.953869 4.40498 3.74029 1.464259 7.3185 3.196966 10.884243 5.015088 4.753075 2.472032 9.286345 5.329181 13.552315 8.541512 3.1094 2.375841 6.027149 4.982615 8.727342 7.797181 2.775382 2.802021 5.15688 5.95351 7.081615 9.371259l.149612.305054c.074805-.378267.162079-.768736.224417-1.220216.216296-.977494.084308-1.997996-.374029-2.891912-1.924735-3.417749-4.306233-6.569238-7.081615-9.371259-2.700193-2.814566-5.617942-5.42134-8.727342-7.797181-4.262732-3.216825-8.796399-6.074224-13.552315-8.541512-3.565743-1.830324-7.156421-3.550829-10.884243-5.02729-4.210593-1.741544-8.538802-3.197049-12.953869-4.356171-5.256035-1.330548-10.620957-2.208384-16.033374-2.623465-7.1938234-.4758841-14.2380352-.073213-20.9705562 2.684475-3.8827353 1.409837-6.9607907 4.382363-8.4530542 8.163246-.7995543 2.106982-1.0523062 4.375241-.7355903 6.601369.1268147-.97363.3609064-1.930971.6981874-2.855306zM236.647227 133c-2.651881-2.067867-5.291371-4.023621-8.05478-5.804977-1.933147-1.245703-3.940646-2.341921-5.948144-3.463054-.607207-.33634-.87983-.610395-.396543-1.3827307 1.477137-2.6064746 2.801212-5.2976449 3.965429-8.0596992 2.205771-4.7710429 4.671773-9.4050585 6.951895-14.1387304 1.536604-3.1765429 2.986464-6.402914 4.374365-9.6417421.954181-2.2422656 1.858795-4.4845312 2.639489-6.789082.272623-.79725.644382-.8969063 1.338333-.4733672 3.59553 2.1158769 7.007149 4.5328006 10.19859 7.2250781.805478.7100508 2.044675 1.2457031 2.255338 2.2173515.210664.9716485-.793086 1.9183829-1.102885 2.9398594-.875604 2.3717739-2.014607 4.6366685-3.3954 6.7517109-1.065709 1.8436406-1.759659 3.9115078-2.651881 5.8672617-3.444967 7.6237031-5.923361 15.646031-9.430288 23.24482-.223055.485824-.470895.946735-.743518 1.507301z" fill="#FFF"/>
    <path d="M234.239961 82.5728299c-5.325397-2.1356826-10.852066-3.7588682-16.501231-4.846421-5.902173-1.0783286-11.381874-.6542668-17.308897-.5936865-3.797792.2958366-7.246487 2.2742014-9.356497 5.3674111-2.410571 4.1921541-4.7590147 8.4085403-7.1323093 12.6128105-2.3732946 4.2042701-4.8708454 8.6629774-7.3559707 13.0368723-1.528352 2.7382278-3.0194271 5.4885717-4.585056 8.34796 1.8638439-.3029013 3.5413034-.6300347 5.2436142-.8238916 1.7069469-.072769 3.4058123-.2712297 5.0820811-.5936865 7.9316897-.553867 15.9038507-.019589 23.6832437 1.5872028 3.570083.9192361 7.087383 2.023363 10.536931 3.3076823 1.068603.3634816 2.398145-3.3561465 2.994575-4.2285022 1.8074-2.5830584 2.851919-5.6008251 3.019428-8.7235577.222157-3.6411879 2.151775-6.9796979 5.231188-9.0506911 1.80758-1.212051 2.744261-3.3259255 2.410572-5.4401075-.227972-1.6535452.21815-3.328325 1.242562-4.6646801 1.006476-1.393346 2.099931-2.7503439 3.255514-4.0588775.521877-.690615.360343-.9450521-.459748-1.2358373zM301.707399 175c2.664722 2.185619 5.179318 4.270169 7.743956 6.316819 1.16347.934889 2.376982 1.80661 3.603004 2.665697.559757.398884.902342 1.039376.925772 1.730808.238056 4.242473-1.67532 8.316316-5.079235 10.814394-.975813.745384-1.889074 1.553937-2.939951 2.22352-.725605.454811-1.251043.290573-1.864054-.530613-1.557311-2.527762-3.509104-4.784616-5.779818-6.683194-4.303588-3.411082-4.891578-3.486884-3.903254-4.383872 2.731397-2.621643 4.865756-5.811603 6.255215-9.348892.425354-.859087.675563-1.756075 1.038365-2.804667z" fill="#C4C3C6"/>
    <path d="M290.042636 162.392303c2.453644-.727368 5.111497-.434783 7.331096.807033 2.155568 1.276072 3.501478 3.508395 3.582961 5.942693.325989 4.836139-1.1969 9.620071-4.281766 13.450542-.845335 1.230164-1.825001 2.369755-2.922274 3.399319-1.289999 1.10975-3.163373 1.324733-4.688343.538022-2.177431-1.192506-3.659563-3.286965-4.014951-5.673683-.169741-.732969.105774-1.49529.711511-1.968671 3.194514-2.795289 5.229922-6.608787 5.730197-10.735978.180311-2.02023-.328155-4.042001-1.448431-5.759277z" fill="#FFF"/>
    <path d="M283.968302 166.915844c-.529317 3.005158-1.584756 5.881645-3.112974 8.48408-.524932.831773-1.013242.76779-1.440513 0-2.441548-3.954119-5.871922-6.884517-8.679702-10.429148-.493014-.619596-1.03625-1.193313-1.623629-1.714731-2.441548-2.162609-2.649079-3.531834-1.220774-6.526216.37844-.76779.64701-.98533 1.416098-.383895 4.22018 3.517569 8.806991 6.522586 13.672667 8.957551.336637.073475.630997.285645.816941.588841.185943.303195.247877.671989.171886 1.023518z" fill="#C4C3C6"/>
    <path d="M284.932819 161.080877c-.076651.606082.370477 1.44428-.357702 1.818245-.72818.373965-1.213633-.386861-1.750186-.735035-4.148198-2.63862-8.082488-5.605261-11.765845-8.872004-1.277508-1.109001-1.443584-4.900235-.255502-6.009236.715405-.670558 1.277508 0 1.66076.477129 1.722835 1.754732 3.544158 3.408064 5.454958 4.951816 1.826836 1.650605 3.551471 3.44306 5.493283 4.926025 1.187924.697912 1.800256 2.084735 1.520234 3.44306z" fill="#FFF"/>
    <path fill="#8B613B" d="M366.475 251.445l.08.11-.11-.08zM203.55 217.47l-.1.08.08-.1z"/>
    <path d="M168.2050885 280.997008h-2.9898598c-9.4244122-.061861-18.8358258-.716787-28.179429-1.960965-9.1876661-1.118711-18.2509819-3.10515-27.0706893-5.933178-4.9133086-1.592357-9.6480935-3.698865-14.12708769-6.285146-1.08709427-.629308-2.13167961-1.33059-3.12689508-2.099238-3.37075052-2.478708-5.14089443-6.609447-4.621825-10.785311.28652824-2.514058.75992271-4.688719 1.24577493-6.863379.149493-.729077.31144374-1.458154.44847898-2.187231.38619023-1.960966.79729596-3.909361 1.24577493-5.870326.57305647-2.752894 1.14611294-5.505788 1.65688066-8.271252 1.13365519-5.99603 4.98309973-10.508764 11.09985467-13.047963 7.2005791-2.97916 14.6378554-4.198478 21.6266528-5.191531 6.2288747-.87992 12.7941086-1.495865 20.6549484-1.935825C153.1935006 210.175984 160.5186572 210 170.5596031 210c8.8076288 0 16.2947362.301687 22.9596319.754218 5.157508.351968 10.676291.905061 16.855335 1.671848 4.815983.56162 9.592463 1.426466 14.301496 2.58948 4.029095.876243 7.893874 2.395384 11.448672 4.500165 3.74963 2.287008 6.497375 5.926846 7.686431 10.181936 1.980782 7.190207 4.023853 14.254711 5.59353 19.609656 1.669338 5.706912-.211782 11.162419-5.145051 14.971217-3.528471 2.673205-7.379794 4.882377-11.461129 6.574263-4.966777 2.064521-10.09664 3.704424-15.33549 4.902414-5.120135 1.257029-10.564171 2.250082-16.668468 3.104862-10.800479 1.478287-21.69022 2.192347-32.5894725 2.136949z" fill="#000"/>
    <path d="M171.1851317 216c6.5479917 0 15.2952139.198479 24.0300113.843534 5.87704.421767 11.72923 1.079227 17.568995 1.860736 4.723333.579714 9.401771 1.479072 14.00301 2.691865 3.222764.736158 6.303357 1.993217 9.119973 3.721472 1.874048 1.25399 3.2052 3.167744 3.72751 5.35892 1.963155 7.629019 4.013285 15.233227 6.10069 22.825031.721385 2.164899-.0668 4.545801-1.938304 5.855116-3.034716 2.445394-6.376314 4.484637-9.940026 6.066-4.725886 2.127451-9.632531 3.829541-14.661537 5.086012-5.570543 1.412092-11.210832 2.534182-16.898043 3.36173-12.153701 1.740356-24.4273203 2.50777-36.7035435 2.294908-9.7078998-.069365-19.4003076-.786312-29.0124489-2.146049-9.2472986-1.200863-18.3506844-3.324455-27.1735441-6.338908-4.5770349-1.579227-8.9649346-3.659376-13.08355833-6.202454-.78069553-.484016-1.53168126-1.01424-2.24893072-1.587828-.8187366-.652259-1.21445033-1.69944-1.03127763-2.729079.36032592-3.250086 1.10582782-6.438148 1.70222934-9.638614 1.01885259-5.482969 2.13710543-10.953533 3.1062579-16.448908.46492414-3.161185 2.61726964-5.818734 5.61611434-6.934343 6.5728417-2.902748 13.5557095-4.118429 20.5758523-5.185251 7.0201429-1.066823 14.2142362-1.699473 21.2965042-2.12124 7.82777-.458981 15.7549401-.63265 25.8440658-.63265zm27.4841703 22.775411c.509426.297717 1.018852-.07443 1.553129-.111644 2.733507-.161264 5.454589-.508602 8.163245-.831129 2.708657-.322528 5.429739-.694675 8.138396-1.116442 3.52903-.555761 7.022333-1.317906 10.461877-2.282503 2.740378-.649136 5.335832-1.801738 7.653819-3.398945.373174-.188287.626468-.551338.674015-.966074.047547-.414737-.117031-.825538-.437939-1.09314-.295304-.310568-.615254-.596812-.956728-.855939-1.577979-1.352135-3.615684-1.773902-5.491864-2.480982-4.151071-1.306412-8.396286-2.293423-12.698382-2.952368-3.429309-.68227-6.945593-.942773-10.437026-1.24049-4.597262-.446577-9.194524-.893154-13.804211-1.240491-4.8209119-.310123-9.6542492-.533411-14.4751615-.595436-6.0882655-.062024-12.188956-.136454-18.2896465.099239-3.1062579.12405-6.2125158.198479-9.3187737.297718-1.8016296 0-3.6032592.186074-5.4048888.297718-2.4850063.136454-4.8581873.434172-7.2934935.645055-3.8766099.322528-7.7656448.645055-11.6049796 1.240491-5.2113005.700702-10.3646981 1.778634-15.4194642 3.225276-2.1963731.526994-4.293856 1.402322-6.2125158 2.592626-1.8140547 1.240491-1.7395045 2.60503.1988005 3.721472.1988005.124049.397601.223288.6088265.334933 2.5038865 1.27394 5.1531573 2.240295 7.8898951 2.877938 5.1051267 1.256762 10.2840757 2.193097 15.5064395 2.803509 3.3299084.434172 6.6722419.818724 10.0270005 1.104037 4.1416772.347338 8.2585043.611976 12.3504814.793914 4.7339371.198479 9.4554491.334933 14.1893861.396957 4.1748107.062025 8.3371963 0 12.5120069-.111644 3.541134-.086834 7.082268-.173669 10.623402-.310123 3.7275091-.210883 7.4922941-.372147 11.2943541-.843533zm-15.9164658 16.78384c1.2425031 0 2.4850063-.124049 3.6156842-.198479 3.2305086-.186073 6.4610166-.347337 9.6915246-.595435 4.485436-.347338 8.946023-.793914 13.406609-1.38935 5.929238-.736096 11.811664-1.80879 17.618695-3.212871 3.99392-.938336 7.879071-2.289492 11.592554-4.031595.409251-.114317.741955-.412186.900204-.805951.158248-.393765.124033-.838617-.092576-1.203644-.211226-.570626-.347901-.73189-.931878-.396957-2.743748 1.498182-5.666049 2.64437-8.697522 3.41135-7.153786 1.879177-14.432568 3.247179-21.78108 4.093619-5.08598.669865-10.176101 1.174331-15.270364 1.513399-4.125111.285313-8.2502213.446577-12.4250319.63265-3.5162839.148859-7.0201429.173669-10.5364268.210884-8.8714726.074429-17.7305201-.285313-26.5895677-.831129-2.6713818-.173669-5.3427636-.310123-8.0017203-.620246-5.1812382-.60784-10.3500514-1.24049-15.4940145-2.084024-6.790784-.962963-13.4566133-2.659997-19.8800506-5.061202-.3603259-.136454-.807627-.434172-1.0188526.099239-.2112255.533411-.2857757.942773.4224511 1.240491 1.6178859.758163 3.2771733 1.424944 4.9700126 1.99719 7.2329738 2.324765 14.6787674 3.92869 22.2283816 4.788294 5.3054885.719485 10.610977 1.352135 15.9413156 1.736687 5.3303386.384552 10.8967527.68227 16.3513416.781509 8.0638455.186074 16.0531409.235694 23.9803111-.074429zm55.9747678-14.054761v-.272908c-.728936-2.729079-1.466154-5.458159-2.211656-8.187239 0-.136454 0-.396957-.335476-.372147-.745891.316786-1.256777 1.01752-1.329478 1.823522.662668 2.406552 1.312911 4.813104 1.95073 7.219656.086975.310123 0 .855938.534276.70708.534276-.148859 1.192803-.248099 1.391604-.917964zm3.727509 13.47173l-.236075-.905558c-.559127-2.009595-1.093403-4.006785-1.67738-6.003975-.07455-.272908 0-.930368-.534276-.694675-.534276.235693-1.528279.235693-1.242503 1.153656.621251 2.592626 1.354328 5.160442 2.037705 7.728258 0 .210883.086975.545816.422451.347337.590417-.36754 1.013904-.950561 1.180378-1.625043h.0497zm-139.9431311-20.678981c.0119713-.098879.0119713-.198838 0-.297718 0-.645055-.6336766-.855938-1.0685527-.955178-.4348761-.099239-.2982008.458982-.3479009.7567-.2236506 1.24049-.4473011 2.592625-.6958018 3.895141-.2485006 1.302515-.5591264 2.964773-.8821772 4.453362-.1615254.769104.3354759 1.004797.8821772 1.166061.5467014.161264.5591265-.372147.6958018-.756699.1649689-.671559.268932-1.356604.3106258-2.04681.4224511-2.059215.7455019-4.143239 1.1058278-6.214859z" fill="#000"/>
    <path d="M139.9529902 253.297345v2.772757c0 2.696443-1.249394 5.405604-.8870697 8.114766.2498788 1.946017 1.9740426 3.2688 4.4853246 4.146416 6.4718611 2.263994 18.1661893 1.64076 23.4136442 1.424536 11.7567979-.496044 30.1603717-.585077 40.1555247-4.311764 3.185954-1.182874 3.960579-8.648967 3.873121-13.444056-23.2887047 3.167048-48.16414 5.380166-71.0405448 1.297345zM123.2241893 234.945609v1.993445c0 1.955109-1.5818111 3.910219-1.1492846 5.865329.3213053 1.405634 2.5457272 2.351242 5.8082126 2.990167 8.3539398 1.635647 23.4800084 1.1884 30.2521371 1.02228 15.200216-.357798 38.9891716-.421691 51.9031766-3.105174 4.11518-.85616 5.11617-6.235906 4.94316-9.711656-30.0296953 2.274572-62.184949 3.884662-91.7574017.945609z" fill="#C4C3C6"/>
    <path d="M198.417061 239.725192c-3.797413.484518-7.557596.650274-11.3177796.81603-3.5368061.140255-7.0736123.229509-10.6104184.318762-4.1697083.114754-8.3270067.178507-12.496715.114754-4.7281513 0-9.4438929-.204007-14.1720442-.408015-4.1366154-.195507-8.248411-.467517-12.335387-.81603-3.3506584-.293261-6.688907-.688526-10.0147458-1.134793-5.2024101-.612195-10.362537-1.55757-15.4502583-2.830606-2.7397046-.637178-5.3941016-1.613339-7.905072-2.907109-.2109674-.114754-.4095249-.216758-.6080825-.344263-1.9359359-1.147543-2.010395-2.550095-.1985575-3.825143 1.9208133-1.243816 4.0244526-2.160896 6.2297427-2.715852 5.0414126-1.472819 10.1801618-2.567983 15.3757993-3.276873 3.8346425-.599272 7.7189243-.930785 11.5907963-1.275048 2.4819692-.216758 4.8522498-.522769 7.2845796-.663025 1.7994277-.114754 3.5988554-.255009 5.398283-.306011 3.1024616-.102004 6.2049231-.178507 9.3073846-.306011 6.0932344-.24226 12.1864688-.165757 18.2672934-.102004 4.8150203 0 9.6424504.293261 14.4574704.612023 4.604053.293261 9.195696.752278 13.787339 1.275047 3.487167.357014 6.999153.624774 10.424271 1.275048 4.296838.677302 8.536864 1.691808 12.682863 3.034614 1.873886.688526 3.909101 1.122042 5.485152 2.550096.341056.266346.660615.560563.955558.879783.320516.275056.484892.697302.437403 1.123592-.047488.42629-.300473.799454-.67319.992987-2.315154 1.641701-4.907437 2.826412-7.644465 3.493631-3.43534.991468-6.924374 1.774845-10.449091 2.346088-2.705346.433516-5.414829.81603-8.128449 1.147543-2.705346.331512-5.423103.688526-8.153269.854282-.508804-.038252-1.054837.382514-1.526411.076503z" fill="#C4C3C6"/>
    <path d="M190.926059 227.322373c-2.599315.308792-5.1738736.398856-7.736055.488921-2.5621813.090064-4.8396758.115797-7.2657026.154396-2.8468682 0-5.6937363.077198-8.5406045 0-3.2305765-.077198-6.4611529-.180129-9.6917294-.347391-2.8221128-.145819-5.6359738-.347391-8.441583-.604718-2.2898722-.218728-4.5673667-.501787-6.8448612-.823445-3.5588681-.443347-7.0887864-1.109316-10.5705453-1.994282-1.8681894-.435412-3.6798398-1.100568-5.3966718-1.981415-.1361545-.077198-.2846868-.14153-.4208414-.231594-1.3120348-.77198-1.3615456-1.672623-.1113991-2.573267 1.3416156-.814737 2.79998-1.401131 4.3198129-1.736955 3.454801-.960166 6.970574-1.665282 10.5210345-2.110078 2.6364475-.373124 5.2852726-.578985 7.9464755-.784847 1.6586101-.128663 3.3172203-.308792 4.951075-.398856 1.2377688-.064332 2.4755376-.154396 3.7133063-.180129 2.1289623 0 4.2579246-.077198 6.3745092-.141529 4.1712807-.128664 8.3301837 0 12.5014645 0 3.2924649 0 6.5849298.24446 9.9021501.476054 3.3172203.231594 6.2878653.553252 9.4194203.887777 2.388894.257327 4.790165.450322 7.129548.939242 2.933306.473443 5.829216 1.170097 8.664381 2.084346 1.32565.336843 2.583031.916289 3.713307 1.711223.23538.176335.454946.374424.656017.591851.206467.186291.309596.467591.274767.749467s-.202999.526956-.448054.652963c-1.603559 1.083474-3.381088 1.85916-5.24814 2.290208-2.360696.640542-4.753112 1.147364-7.166681 1.518227-1.844276.283059-3.713306.514653-5.557582.720514-1.844275.205862-3.713306.437456-5.582337.52752-.383708.038599-.717906.334525-1.064481.115797z" fill="#000"/>
    <path d="M233.543738 227.707679c-1.582131-1.392156-3.637656-1.826406-5.518772-2.554414-.142674-.058738-.288208-.109894-.436021-.153265-3.323633 1.159991-6.709381 2.123734-10.140589 2.886488-2.690869.600288-5.394195 1.136715-8.097522 1.634826-2.703327.49811-5.419111 1.008993-8.147353 1.277207-.535682.06386-1.021534.485339-1.557216.204353-3.737318.702464-7.56184 1.098398-11.324073 1.48156-3.5379942.357618-7.0884461.638604-10.6388981.945134-4.185796.357618-8.3591343.67692-12.557388.855729-4.7463937.204353-9.5052451.357618-14.2516388.421478-4.1484228.06386-8.3093034 0-12.4577262-.089405-3.3760438-.089404-6.7520876-.293757-10.1281314-.549199-5.286526-.290032-10.5499671-.921372-15.7590237-1.890266-2.7871845-.466722-5.5071293-1.286135-8.097522-2.439466-.2117814-.102177-.4235627-.191581-.6353441-.30653-1.0339912-.536427-1.5696735-1.162259-1.6070466-1.839178-1.6817931 1.277207-1.5821313 2.554414.3114431 3.754989l.6228863.332074c2.53097 1.331036 5.2132661 2.334929 7.9854025 2.988665 5.1319553 1.296238 10.336587 2.268739 15.5846155 2.912032 3.3511284.447023 6.7147144.855729 10.0783005 1.149487 4.1359651.357618 8.284388.625831 12.4577262.817412 4.7588515.217126 9.5052451.357618 14.2640966.421479 4.185796.076632 8.3840497 0 12.5823034-.102177 3.5629097-.089404 7.1133617-.166037 10.6762714-.319302 3.7373174-.153265 7.5618394-.319302 11.3863614-.80464.510767.306529 1.021534-.076633 1.557216-.102177 2.753158-.178809 5.4814-.536427 8.222099-.868501 2.7407-.332074 5.456485-.702464 8.172269-1.136714 3.550863-.576497 7.065793-1.365455 10.526778-2.362834 2.758265-.659304 5.370308-1.846617 7.698875-3.499547.374156-.193861.628116-.567657.675788-.994669.047672-.427012-.117338-.849973-.439091-1.125495-.309819-.343594-.647376-.659761-1.009076-.945134zM181.9580848 254.774992c-7.9298041.305068-15.9093247.256257-23.8888454.109825-5.4564012-.097622-10.9128024-.390486-16.3567744-.76877-5.4439721-.378283-10.6393609-1.00062-15.9466122-1.708376-7.5521227-.845592-15.0003902-2.42337-22.2357671-4.710239-1.6934018-.562917-3.3532405-1.218829-4.971664-1.964633-.70846208-.329473-.6090288-.805378-.4225914-1.220269.1864374-.414892.6587455-.231851 1.0191911-.097622 6.4255715 2.362063 13.0936156 4.031432 19.8866559 4.978698 5.1456722.81758 10.3162027 1.45212 15.4991624 2.050052 2.6598402.305067 5.3321096.439297 8.004379.610134 8.861991.536919 17.723982.890797 26.5984022.817581 3.5174522 0 7.0224753-.061014 10.5399276-.207446 4.1264811-.18304 8.2529622-.341675 12.4291595-.622337 5.104242-.341676 10.196055-.837918 15.275438-1.488728 7.350954-.832642 14.632155-2.178344 21.788317-4.026888 3.03248-.754477 5.955752-1.88198 8.700412-3.35574.584171-.329473.720891-.170838.932187.390486.216682.359076.250908.796677.092607 1.184023-.158301.387346-.491115.68036-.900502.792813-3.714717 1.713704-7.601159 3.042835-11.596406 3.965874-5.808961 1.381192-11.693342 2.4364-17.624549 3.160497-4.462069.585729-8.924137 1.025026-13.411064 1.366701-3.231581.244054-6.463163.402689-9.6947444.585729-1.2926327.036609-2.4734029.195243-3.7163188.158635zM238 241.035161c-.202532.685251-.898734.786769-1.468354.939047-.569621.152278-.455697-.406074-.544304-.72332-.658228-2.461828-1.320675-4.923655-1.987342-7.385483.074066-.824514.59454-1.541343 1.35443-1.865405.303798 0 .303798.241107.341773.380695.759493 2.791763 1.510548 5.583526 2.253164 8.375289l.050633.279177zM242 253.555588c-.194422.586933-.673237 1.087952-1.330786 1.392499-.359312.170076-.385928-.116927-.452467-.297633-.731933-2.200361-1.517097-4.400722-2.18249-6.622342-.239541-.786602.838396-.797232 1.330786-.988568.492391-.191336.492391.361412.572238.595267.62547 1.711391 1.197708 3.422783 1.796562 5.144805l.266157.775972zM101.9911469 234.236457c-.3552935 2.005903-.6738326 4.023818-1.0903837 6.005698-.0411114.668312-.1436226 1.331626-.3062875 1.981881-.1347665.372353 0 .936889-.6860841.732695-.6860842-.204193-1.0291262-.384364-.8698567-1.129071.3185391-1.441368.5880721-2.882735.8698567-4.312092.2817845-1.429356.465557-2.510382.6860841-3.771579 0-.288273 0-.828786.343042-.732695.3430421.096091 1.0046232.300285 1.0536292.924878.0118041.095743.0118041.192531 0 .288273v.012012zM97.99188123 248.429699c-.35487836 2.191666-.67304517 4.396456-1.08910946 6.561875-.04798595.729399-.15028862 1.453514-.30592963 2.165419-.13460903.393713 0 1.010529-.68528236.800549-.68528236-.20998-1.04016072-.433084-.86884013-1.312375.30592962-1.561726.58738488-3.136577.86884013-4.711427.2447437-1.312375.46501303-2.742864.68528236-4.107734 0-.328094 0-.918663.34264118-.813673.34264118.10499 1.00344917.341218 1.05239791 1.023653.01082507.100281.01082507.201566 0 .301846v.091867z" fill="#FFF"/>
    <path d="M370.397536 232.900337c-.036933-.046083-.069779-.095289-.098167-.147061-1.329466-3.006254-3.356969-5.652906-5.914575-7.720741-.235847-.18216-.514825-.300363-.809879-.343144-.114644-.079456-.238191-.145263-.368127-.196082l-5.693699-4.509893c-2.45418-1.997589-4.994257-4.007433-7.546605-5.943745-3.534019-2.671622-7.129394-5.269712-10.700226-7.904568-3.570832-2.634856-7.190749-5.367753-10.835206-8.002609-2.343743-1.69121-4.748839-3.308889-7.141665-4.902058L317.951701 191c-1.055297 3.357909-7.239832 10.478148-9.951701 12.880156 1.701458 1.197329 3.339767 2.48175 4.908361 3.848116 2.45418 2.107884 3.509478 2.377498 5.730511 4.705975 1.22709 1.225514 3.546291 4.656955 4.785652 5.906979.773066.772074 1.595217 1.495128 2.45418 2.193671l2.061512 1.924058c3.067725 2.904469 6.687641 5.343242 10.025326 8.014864 3.030913 2.451029 6.245889 4.632444 9.534491 6.78935 1.22709.833349 2.552348 1.642189 3.840792 2.451028 1.685204 1.241855 3.370408 2.467369 5.055612 3.676544 1.803823 1.28679 4.368441 3.921646 6.847163 4.301555.618494.464645 1.486695.396329 2.024699-.159317l.220876-.245103c.22558-.131078.43553-.28731.625816-.465695.078455-.059926.148602-.129983.208606-.208338.269959-.171572 4.662942-4.436362 4.822464-4.632444.442195-.604479.717281-1.314557.797609-2.058864.241924-2.445175-.299443-4.903942-1.546134-7.022198z" fill="#C4C3C6"/>
    <g>
      <path d="M71.137931 232.729761c-.1046283-.011194-9.0138845-4.091759-13.0153665-8.852886-2.2540724-2.682015-3.7846354-4.006265-5.6768593-4.737142l-.1447739-.059536c-.9119107-.3982-1.76715-.91378-2.5437975-1.533436-5.55558856-4.153751-9.16764603-9.8656508-11.20919208-17.0633613-.3921382-1.3487836-.62898863-2.4355884-1.06828765-4.7102399-.20680874-1.0708374-.2862096-1.4728694-.40178183-2.0182118C37.02609774 193.5106434 37 193.2616455 37 193.011971v-7.2122093c0-.3041899.03873826-.6071544.11528963-.9016583.17505572-.6734638.31777044-1.2067772.64025277-2.4004386.6270942-2.3211756.89338202-3.3456221 1.18411642-4.6120991.21693252-.9472526.41883924-1.7403134.83000866-3.2979203l.03227303-.1222443c.66928529-2.5350035.93903587-3.6527645 1.17795339-5.0177082.43688236-2.5022154.32905189-4.6281786-.29522311-9.5378438-.05317012-.4181025-.077189-.6076407-.10585147-.8363455-.84135445-6.6502776.84768205-12.8356363 4.76817427-18.5824582 1.71170761-2.633143 4.11922501-4.7470871 6.99219411-6.1261887 2.9747441-1.3910687 4.4189969-2.0297864 6.2584917-2.7148197 2.6523327-.9802406 4.1395096-2.5018299 4.7415806-4.8811453.7631726-3.5032775 2.7160176-6.6395534 5.5607836-8.9044724 3.1473344-2.45225819 6.7833704-4.04691624 11.2812998-5.20083313.3294213-.08841836.5575214-.13025136.9852066-.196628.0674158-.01046073.1066607-.0165858.1368237-.02141736C81.8358341 112.15433513 82.4355847 112 83.0477156 112h4.7401399c.3538538 0 .7057963.05160079 1.0446032.15315665.5001888.14992942 1.0015632.24726724 2.0813062.41640492.0483859.00757655.0483859.00757655.0972061.01521542 1.2611144.19732823 1.8479746.30426106 2.702775.52809137 3.7993462 1.07982961 7.6780041 1.86192837 11.5184873 2.3300897 4.7115529.46528882 9.2164469 2.15746477 13.102129 4.93624501 1.1960011.88119238 2.4402448 1.69577813 3.6725741 2.40914933 2.4529203 1.3627731 4.7622366 2.9666011 6.9346534 4.8233037 2.5362102 2.2343124 5.3130482 4.1831912 8.2203032 5.7791353 6.361704 3.3377332 10.556529 8.6979227 12.46334 15.7251497.095909.3525687.095909.3525687.191336.7038094 1.455863 5.3583447 2.187682 7.7149858 3.337562 10.3860141 1.928811 4.2087149 2.957065 8.7699321 3.019562 13.3945106l-.000568.1284945c-.004169.1864732.052129.3694051.160693.52186.433408.6086289.666182 1.3360958.666182 2.0819583v8.0455657c0 .564485-.133291 1.1172242-.384581 1.6153933-.845994 5.7820534-3.27935 10.5233867-7.568842 14.150881-.929448.7811889-1.185843 1.7003591-.845337 3.2507223 1.051745 4.6316449.187146 9.4891617-2.362487 13.4225367-2.850429 4.588632-6.518397 6.881067-13.5336534 9.634865-2.0880948.813044-4.155352 1.551536-6.206637 2.214695.3019863.944869.6501004 2.052015 1.1185311 3.55026.1726607.552276.2515436.804484.3451067 1.103188.5939717 1.896282 1.0057999 3.188371 1.4379337 4.497693 4.211561 12.960338 8.4313399 25.914549 12.6593359 38.862633.557912 1.708585-.236722 3.540184-1.812892 4.328824-1.315835.787618-3.0111479.667807-4.206307-.340135l-12.7639001-10.764485c-.8883906 3.706725-1.4135095 5.940886-1.953799 8.342966-.1618928.726755-.3148812 1.335994-.6211406 2.50651-.0138014.052745-.0138014.052745-.027565.105336-.6477658 2.475146-.8786546 3.543992-.985617 4.814212-.1571397 1.866094-1.7255725 3.301087-3.6080531 3.301087h-.2773814c-1.5688423 0-2.9591989-1.005076-3.4437021-2.489421-1.0757359-3.29567-2.1987174-6.739793-3.5222216-10.801805.2386482.732443-5.4562167-16.751655-7.0518851-21.645097-1.3176907-4.040966-2.5301868-7.7551-3.6801397-11.272253-4.0617033 12.391311-10.6800283 32.58095-14.3398548 43.74777-1.1329548 3.456859-6.1157273 3.256253-6.9641549-.280376-1.501839-6.260342-2.7485228-11.463501-3.9113217-16.326319-.9100815.798417-1.9894972 1.702386-3.5276951 2.972095l-.0372053.030711c-2.5029876 2.066094-3.5976483 3.002086-4.8611415 4.200703-.531025.505583-.9727226.810591-1.750745 1.283047-.043379.026329-.043379.026329-.084727.051412-.2597022.157581-.3860972.238019-.4647988.295037l-.022178.035406c-.3709919.587717-.6808462.975293-1.3218536 1.407372-1.1290901.761078-2.5119613.886097-3.7423143.414275-2.3859982-.899688-3.0474002-3.031159-2.5743024-4.991994.0391022-.162066.0766803-.291618.1290239-.458881.0114445-.036467.0114445-.036467.0161702-.051373.3929811-1.266853.8107806-2.562974 1.356607-4.220111.254829-.773664 5.4327143-13.488922 15.533656-38.145773z" fill="#000"/>
      <path d="M101.8903243 214.957028c.4175952-.68141 1.2282213-.306941 1.7747797-1.135683-2.6161113.847158-5.0664127.724382-7.5044318.705965-5.8914802-.081586-11.6731486-1.605509-16.8389134-4.4383718-6.3717204-3.306894-11.6344701-8.4076259-15.137827-14.671797-5.3120569-9.5151821-6.589407-19.607414-3.6109705-30.123225 2.3371882-8.5125848 7.6015614-15.9290968 14.8676183-20.9456784 3.1565286-2.240672 6.7552169-3.5850751 10.2249419-5.2609749 3.9610136-1.9275918 7.9834382-2.1301731 12.1409671-2.0810625 8.1884995.0955533 16.1201052 2.8706929 22.5808478 7.9006706 4.0930717 3.0487812 7.5324453 6.8876766 10.114402 11.2893033 3.6109705 6.2431872 5.6436767 12.8362876 5.490149 20.1660473-.2456442 11.6637717-4.5935475 21.350841-13.1481085 29.1348739-5.5237812 5.0240449-12.4058031 8.3100475-19.7866444 9.4476555a4.84108537 4.84108537 0 0 1-.6693806.055249 3.7534985 3.7534985 0 0 1-.4974296-.042972zm-21.2482277-10.1597588c.2854951.4550147.7193193.7976086 1.2282213.9699347 8.5975487 4.014793 17.3854718 4.5672874 26.3330636 1.3935138 3.9258602-1.2889055 7.499364-3.4700352 10.4398807-6.3721027 1.6273932-1.0129065 2.7942034-2.4985026 3.9732958-3.9534047 8.7411561-10.8667861 9.7639342-26.0335915 2.5608413-37.974785-1.0501292-1.7311493-1.9774362-3.6219081-3.8320503-4.726897 0-.6138827-.4421597-.957657-.8229083-1.3259867-8.8861808-8.6004969-19.4120369-11.6699105-31.4854518-9.0486313-5.3008186 1.0927566-10.1845521 3.6614047-14.0876978 7.4095645-.4208543.1603828-.7916725.429391-1.0746936.779631-1.907607 1.7621074-3.5610431 3.7806168-4.912885 5.9976342-7.0929778 11.6637717-7.166671 23.517847-.5281351 35.4210329.4912885.8717135.9702947 1.8416482 1.9467306 2.3143379.1058539.6616591.4301206 1.2688933.921166 1.7250104.865896.9637959 1.8423319 1.8416482 2.6898045 2.8054441 1.8720941 1.9762658 4.1377282 3.5384085 6.6508181 4.5857039z" fill="#C4C3C6"/>
      <path d="M131.9821111 267.384659c-1.5801896-.95827-2.7847114-2.374313-4.1084929-3.625557-3.184231-3.009091-6.3028692-6.103632-9.6719526-9.369075-1.1508551 6.372192-2.2540063 12.488031-3.3631204 18.609973H114.5881c-.3637417-1.062032-.7394094-2.111857-1.0792993-3.179992-2.0751168-6.549197-7.0840195-22.113457-9.1412474-28.687069-.1550375-.506601-.6618908-1.080342-.1311856-1.605255.5307052-.524912.8586691.152591 1.2939666.244146.256012.059705.5192509.080273.7811503.061036 2.3851917-.231938 5.3666815.286871 7.7876511 0 2.2122654-.280767 2.3851918-3.961257 4.6690129-3.826977.573366-.04371 1.138851.157332 1.5623006.55543.6499648.781265.6857427 0 .8944469-.494394.9719657 1.654084 5.6588675 14.94169 6.1657208 16.583567.9719656 3.173889 2.2003394 6.256223 3.0888233 9.448422.4889644 1.757846 1.0137065 3.497381 1.5205598 5.24302l-.0178889.042725z" fill="#FFF"/>
      <path d="M90.913398 244.333485c.7039031-.717001.4004966-1.633515.7160394-2.462743.5097229.361618.376224.829228.279134 1.215785-1.3349886 5.380626-6.9601452 23.449057-8.8048567 28.680048-.3883603 1.103559-.606813 2.26323-.934492 3.397963-.091022.330444-.0728176.748175-.6614262.835462-.279134-3.067518-1.213626-5.991636-1.7597577-8.996807-.5461317-3.00517-1.2985798-5.935523-1.9478697-8.903284-.1820439-.860402-.279134-1.402829-1.213626-.442671-4.3326448 4.364356-8.7381072 8.59778-13.1253652 12.881083-.1446933.089806-.2995802.161001-.4611779.211983C65.427252 262.956813 71.9686962 242.550335 74.6750821 235c.6614262.218218.5643361.536192.5036548.773114-.139567.554897-.0303406.773115.5764724.62348 1.2771577-.286196 2.60736.129254 3.5134473 1.097323.8374019.822993 2.1845268.436436 3.034065 1.278133 1.5534412 1.564933 3.8047175 2.057482 5.3156818 3.697232.2750767.298831.641097.492366 1.0376503.548662.9104266.054634 1.7444949.540714 2.2573443 1.315541zM65.2849125 219.053666c-.5566253-2.186514-1.2878208-4.318971-2.1856879-6.374335-.3438815-.7651674.2681111-2.992791.8859322-3.3383504.9546876-.5946643 2.1727883-.3960632 2.9142505.4751441 2.1715323 2.2441493 4.1766341 4.6619833 5.9975277 7.2320633 1.0277345 1.436651 2.2244767 2.72854 3.5612142 3.844348 1.0607872.88241 1.8476348 2.098039 3.1357336 2.72745.6469636.320877.4662801.857728-.1573696 1.178604-.3807405.21903-.8301241.261469-1.2414707.117244-.6121981-.202162-1.2589476-.259047-1.8942629-.166609-1.7477981.161944-3.501819-.226631-5.0416534-1.116897-.7237853-.375076-1.5270314-.545157-2.3314005-.493657-1.2647847 0-1.7485503-1.23414-2.5062554-2.054843-.4599392-.632215-.8509829-1.317389-1.1657003-2.042503l.0291425.012341z" fill="#C4C3C6"/>
      <path d="M64.6986489 215.459178c-.0979132-1.12865-.3264297-2.24045-.6804627-3.310653-.1479267-.4239636.6390433-1.1846034 1.1834135-1.1471949.8156909.0274785 1.5843808.4087692 2.1242273 1.0536729 1.2522294 1.504458 2.3992073 3.102672 3.4318992 4.782055.5928582.957813 1.281175 1.846115 2.0532225 2.64977.5903112.746802 1.2438826 1.435464 1.9526323 2.057468.437863.324207.2248486.492546-.2899363.448902-.3347544-.022307-.6594868-.129234-.9467308-.311737-.4399836-.266248-.9088479-.475586-1.396428-.623475-1.3012048-.421497-2.5240759-1.07525-3.6153283-1.932774-.5086185-.381896-1.0692115-.680394-1.662696-.885334-.9526479-.349147-1.136077-1.041204-1.57394-1.589862-.2458064-.372443-.4447029-.776923-.5917068-1.203307l.0118341.012469z" fill="#FFF"/>
      <path d="M127.7917967 221.565753c-1.0423775.179398-2.0786233.41447-3.1271325.519634-1.2141729.162609-2.3943648.521902-3.4950303 1.064011-1.7532098.741689-3.5694803 1.321435-5.4264946 1.732112-3.8813232.921731-7.817831.451586-11.6991542.85987-4.1081936.433028-8.2102556.983592-12.3307125 1.237222-1.5644718.115359-3.1279051-.237548-4.4944864-1.014522-.9626663-.55675-1.0362458-1.070198-.2084755-1.855834 1.2753795-1.181548 2.8757355-1.453737 4.4822232-1.428992 3.0658161.043303 5.9660781-.847498 8.9460514-1.280526 1.9743856-.290747 4.0223507-.11135 6.0396577-.117536 2.0173071-.006186 3.7648222-.804194 5.4632844-1.855834 1.5451713-.952661 3.2436334-1.657878 4.7826731-2.629098 1.5390397-.971219 3.151659-1.713553 4.2246946-3.27864.7603224-1.101128 2.1644662-.971219 3.2620284-1.354758 1.3385488-.4676977 2.3366012-1.6084046 2.6304702-3.0064512.6131632-2.2393729 2.0540968-4.0271596 3.016763-6.074763.7112694-1.5032254 1.9498591-2.740448 2.3484152-4.3859541.2063699-1.029742.5060343-2.0381887.8952183-3.012637.4612009-1.1679241 1.313982-2.1355536 2.4097315-2.7342619 2.7469713-1.4661088 4.2430893-3.8477623 5.2486773-6.6871882.33724-.9464753-.153291-1.7816005-.061316-2.6662147.255447-3.1485927-.068858-6.3176922-.956535-9.3472167-.686743-2.5363064-.790981-5.2087072-1.83949-7.6584079-.435346-1.0083364-.404687-2.2084424-.686743-3.2910121-.8400332-3.2477094-1.6126189-6.5077909-2.2135188-9.8049891-.183949-1.0083365-.9749295-1.6764367-1.5145132-2.4744452-.8287905-1.3913299-1.8256575-2.6734207-2.96771-3.8168318-3.7402956-3.3899899-6.885823-7.4604522-11.5090737-9.8111752-3.8813232-1.9795561-7.535776-4.4478152-11.803392-5.5675017-1.230193-.2347049-2.4843457-.3157337-3.734164-.2412584-3.1639223-.0309305-6.3217129-.2536306-9.4917667-.2227-2.8082876.0309305-5.6288384-.1237223-8.4432576-.1732112-2.5550661-.1111654-5.0624734.7225312-7.0513771 2.3445368-.7691109.5265684-1.6069107.9429447-2.4894427 1.2372226-2.3729416 1.0145226-4.3289323 2.5919814-6.3217128 4.1694402-3.0658161 2.4002118-5.7576027 5.1963349-8.9521831 7.4233356-.9136132.6186113-1.1466152 1.8929506-1.5206448 2.9260314-.6744795 1.8558339-2.0724916 3.2353371-3.2252385 4.7447487-1.7904366 2.3383507-3.3478712 4.6705153-3.2865549 7.8130607.0367898 1.9115089.3311082 3.8601345-.4537408 5.7407129-.349503.8474975.4230827 1.8187172.1655541 2.6662147-.4843989 1.5589004-.7419275 3.1672898-1.3857489 4.707632-.7296642 1.7506699-1.3918805 3.5260844-.4230826 5.6788517.9690573 2.0113135 1.6286264 4.1598791 1.9559907 6.3716964.1716857 1.422806 1.3305642 2.4744452 1.3734856 3.8972512.067448 2.4744452 1.1159571 4.8004237.7235326 7.3305439-.3188449 2.029045-1.900806 3.1920343-2.8328141 4.7942375-.3127132.5381919-.882955.3464224-1.2569846-.0866055-2.5875488-2.9940787-5.40809962-5.9448546-5.25480882-10.2751337-.03155745-2.0859758.08112922-4.1716322.33723977-6.241788.04905306-.3031196.15942244-.7237753 0-.9217309-1.41640704-1.9053228-.09810611-3.6621789.30044998-5.4375933.35202048-1.1082519.64068218-2.2359801.86456015-3.3776177.1716857-1.5774588.95653462-2.956962 1.22632642-4.5158625.7530692-3.6079173.7007061-7.3397105-.1532908-10.9246755-.92260722-3.8599816-.5937898-7.9167377.9381397-11.5742175.5717128-1.6385395 1.315846-3.2105413 2.2196509-4.6890736.8768234-1.3238282 2.2687039-2.022859 3.1884488-3.2167788 1.4593284-1.8867644 3.5318201-1.8558339 5.518469-1.8558339 2.5262325 0 4.2921425-1.4475504 5.8924986-3.0930565 1.600356-1.645506 3.4153191-2.7590064 4.8317262-4.4663735 1.2263264-1.5094116 2.4526528-3.0126371 2.7101814-5.0602405.116501-.934103.9074816-1.4599226 1.5022499-2.0043006 2.5139692-2.2888618 5.0156752-4.60246805 8.1305443-6.08713517.2370586-.11946345.4957653-.18892455.7603224-.20414173 2.8600534.00582997 5.6750066.71953834 8.1979923 2.07853397 1.5942244.79800857 3.1455274 1.70736723 4.7826732 2.39402573.8014315.2932453 1.5106048.797281 2.0540968 1.4599227.9933244 1.3362004 2.4526529 1.9115089 3.7709538 2.7280758.3014004.2015659.6718898.2687123 1.0239826.1855834 1.5758294-.383539 3.0658161 0 4.5619343.4825168.8645602.2783751 1.7659101.1732112 2.6488652.3340501 2.2944302.5369473 4.5071999 1.3816508 6.5792414 2.5115619 3.0031457 1.3819844 5.8554381 3.0758088 8.5107055 5.0540543 1.2937744 1.0021503 2.9738416 1.367131 4.2246946 2.4744452 2.9125253 2.573423 5.8863669 5.1097293 8.4309943 8.0419469 1.925333 2.2208146 2.881867 5.1097293 4.157247 7.7573857 1.520644 3.1425454 3.464372 6.0500185 5.107649 9.1183305 1.252163 2.422842 2.005129 5.0763796 2.21352 7.8006885.398556 4.2869763.128764 8.5430221-1.404144 12.5949261-.649953 1.7073672-1.373486 3.4394788-1.913069 5.1344738-.797113 2.5239341-2.256441 4.3673958-3.948772 6.186113-.907481.9712197-1.95599 1.8187172-2.372941 3.1982204-.175589.5037871-.274812 1.0314239-.294319 1.5650866 0 2.3074201-.049053 4.6148403 0 6.9222604.180547 3.7347938-1.47855 7.3186122-4.4331698 9.5761032-1.7537545 1.54094-3.6211097 2.945111-5.5859169 4.20037-.6400991.416345-1.36549.680737-2.1215448.773265l-.0674479-.055675.0981061.049488z" fill="#C4C3C6"/>
      <path d="M148.825585 169.3106893c-.207764-2.6672598-.9666-5.2651713-2.230336-7.6356643-1.652562-3.0042957-3.609542-5.844056-5.137851-8.9214785-1.286016-2.596004-2.248974-5.4235765-4.187317-7.5991009-2.5596063-2.8702298-5.5540972-5.3504496-8.4864617-7.8672328-1.2425274-1.0847153-2.9510025-1.4381619-4.2556562-2.4375625-2.6790256-1.930674-5.5541604-3.5848029-8.5796514-4.9360639-2.1185091-.9994006-4.2494435-2.0231768-6.6226707-2.4375624-.8884071-.1584416-1.7954521-.0487513-2.6652212-.329071-1.4972455-.4753246-3.0069162-.8470529-4.5973512-.4753246-.3544599.0785671-.7262649.0078375-1.0250851-.195005-1.3295042-.7983017-2.7894739-1.3589411-3.7897084-2.6691309-.5475184-.6466083-1.2588701-1.1405025-2.0625954-1.4320679-1.6525614-.67032969-3.2119332-1.55394608-4.8210061-2.34005996-2.5364814-1.3309069-5.3675886-2.02986581-8.244169-2.03536464-.2660761.01495952-.526177.08340905-.7641543.2010989-3.1063184 1.45034965-5.6597121 3.71728272-8.1882553 5.9598402-.6212636.5301698-1.3916306 1.0420579-1.5096707 1.9561438-.2547181 2.0048951-1.4661823 3.4796204-2.7335602 4.9604396-1.435119 1.6636363-3.2989101 2.8214785-4.8644945 4.3571428-1.5655845 1.5356644-3.404525 3.0042957-5.9268555 3.0469531-2.0128943 0-4.0941276 0-5.5913731 1.8281718-.9318955 1.17003-2.3297388 1.8586414-3.2181458 3.1566434-.9082662 1.4471128-1.6559726 2.9854496-2.2303366 4.5887113-1.52992517 3.5884349-1.8435533 7.5641814-.89461971 11.3407592.85780201 3.4990476.91508681 7.1409962.1677412 10.6643357-.30441921 1.5234765-1.09342407 2.8763236-1.24252735 4.4180819-.03106319.2315684-.07455165.4631368-.12425274.6886114.66475213-1.0481519 1.32329163-2.1084915 1.98804376-3.1688312.38786444-.6478191.83494164-1.2597257 1.33571694-1.8281718.5428095-3.0593739.4391954-6.1955051-.3044192-9.213986-.9074848-3.5819253-.6155966-7.3552326.8324933-10.7618382.5452112-1.5156828 1.2532961-2.9701578 2.1122965-4.3388611.8387059-1.2187813 2.1619976-1.8769231 3.044192-2.986014 1.385418-1.7428572 3.3548238-1.7062937 5.2621033-1.7184815 2.4042904 0 4.087915-1.3406594 5.5913731-2.8519481 1.5034581-1.5112887 3.2554217-2.5533467 4.6035638-4.1316683 1.1990389-1.3955045 2.3421641-2.791009 2.5844569-4.6923077.1118275-.8592408.8635565-1.3467533 1.4289065-1.8281719 2.3918651-2.1145854 4.7837303-4.2657342 7.7409454-5.6307692.226539-.11208133.4737191-.17839415.7268785-.19500498 2.724575.00499691 5.4062057.66625438 7.8092844 1.92567428 1.5158833.7434566 2.9944909 1.5783217 4.5600754 2.2181819.7594611.2732489 1.4322444.7377188 1.9507679 1.3467532.9443208 1.2187812 2.3297388 1.7733267 3.5846914 2.528971.286948.1870649.6402001.2488612.975384.1706294 1.4173715-.2538359 2.8789214-.1123743 4.2183803.4082917.2931608.0339886.5837152.0869175.8697692.1584416l.1988044.0548451c.5280741.0487513 1.0561482.0426574 1.5842223.1401599 2.1845014.493816 4.2909913 1.2748026 6.2623379 2.3217782 2.8508078 1.2801769 5.5576138 2.848714 8.0764278 4.6801199 1.2425273.9323676 2.8329623 1.2675324 4.0257886 2.2913087 2.8400793 2.3058948 5.521511 4.7935789 8.0267267 7.4467532 1.8327278 2.0536464 2.7459854 4.7288711 3.9636619 7.1847153 1.447545 2.9128871 3.29891 5.6002997 4.864495 8.4400599 1.191687 2.2451773 1.908079 4.7035946 2.106084 7.2273727.093189.9994006.149103 2.0048951.155316 2.9982018.07812.2075734.167291.4109832.267143.6093906.285781.4753246.590201.9750249.714453 1.2187812.704099 1.2797203 1.397844 2.549284 2.081234 3.8086913.746211-3.174938.943618-6.4502452.583987-9.6893107z" fill="#FFF"/>
      <path d="M117.3444934 146.5360283c2.830837 1.5426236 5.1189427 2.9552177 6.907489 5.6740179 2.3593753.9369224 4.3645476 2.5410269 5.7480176 4.5983187-2.7938326-6.8442841-8.4123348-11.4544236-14.4995595-15.1425353-3.2132158-1.9445332-6.5251101-4.0013647-10.015859-5.390317-3.4907489-1.3889523-7.185022-1.5012506-10.8792952-1.0106844-3.8176211.502387-7.8696035 1.1229827-11.3726872 2.825188-3.533234 1.6402266-6.8988167 3.5932484-10.0528634 5.8335997-2.3189427 1.696295-4.2555066 3.9481708-6.1057269 6.2059571l-.0555066.0531939-.0801762.1063879c-.4378855.5378496-.8696035 1.0697888-1.307489 1.5958175C63.4903455 154.413257 61.6049541 157.1304381 60 160c1.1233586-1.1632409 2.4779196-2.0996578 3.984141-2.7542629.7770925-1.1229827 1.6035242-2.2164132 2.4669603-3.286202l1.8132159-2.240055c1.461674-.6678792 2.2757709-1.8440558 3.2193832-3.0616055 2.7129207-2.1679046 5.6493939-4.0651117 8.7638767-5.662197 5.8143926-2.4205142 12.0953737-3.6408841 18.4343612-3.5817238 3.5385304-.0350156 7.0251976.8166326 10.1145375 2.4705619 2.861674 1.5248923 5.6986784 3.1029786 8.5480176 4.6515126zm-13.2229075-8.5464895c-.1480176-.0886565-.3022026-.1714026-.4563877-.2541487.1788547.0531939.3577093.1063879.5303965.1714027.1726872.0650147.4872247.1832234.7277533.2777904-.2651982-.094567-.5365639-.13594-.8017621-.1950444zM116.0656688 199.4596449c2.6733396-1.5428052 4.8280637-2.9555654 6.5135641-5.6687745 2.2579923-.9654714 4.1506809-2.5732507 5.4207671-4.6047709-2.6301216 6.8450895-7.9335828 11.4557715-13.6692236 15.1443172-3.0314312 1.944762-6.1739944 4.0077467-9.4462114 5.3909513-3.272217 1.3832046-6.7913938 1.5073383-10.2611787 1.0167145-3.5994387-.5083573-7.4087932-1.1231149-10.7427502-2.801876-3.343458-1.6613232-6.514651-3.6227644-9.4709074-5.8579307-2.185594-1.6964945-4.0130963-3.9545465-5.7603367-6.2125985L68.6 195.8124772l-.0740879-.1064004c-.4136577-.5320018-.8211413-1.0699147-1.2347989-1.5900942C65.2730143 191.5705224 63.5019538 188.8539114 62 186c1.046342 1.1492264 2.3227694 2.0858882 3.7537886 2.754587.7347053 1.1231148 1.5188026 2.216674 2.3337699 3.2865887.5618335.7329802 1.1298409 1.489605 1.7101964 2.2344074 1.3768008.673869 2.1423761 1.850184 3.0376052 3.0678769 2.5416709 2.1560296 5.3100885 4.0538072 8.2608045 5.6628634 5.4520966 2.3991013 11.3921509 3.6104221 17.3921422 3.5466784 3.3542167.0298904 6.6522811-.8249646 9.5326474-2.4708526 2.6856875-1.4836939 5.3590271-3.0678769 8.0447146-4.6225043zm-12.4714686 8.5534063c-.1420019.0886669-.2840038.1655116-.4260056.2482675.1666978-.0532002.3333957-.1064004.5000935-.1714228.1666979-.0650225.4568756-.1832451.6853134-.2778232-.2531338.0768447-.5062675.135956-.7594013.2009785zM130.4020328 213.114149c.3444277-1.4961863.8648513-2.9444713 1.5499619-4.3133838.2738655-.5406583-.6817501-1.705153-1.4042888-1.7823899-1.133898-.107096-2.2621781.2570987-3.1290584 1.0100209-1.9961024 1.7856646-3.865413 3.713507-5.5938474 5.7690018-1.0087447 1.177474-2.1421809 2.237515-3.3796161 3.160771-1.0430195.784252-1.7480773 1.699212-3.0649623 2.37652-.6642693.350537-.3962308.623837.3263078.659484.4669818.029599.9342066-.053872 1.3635003-.243593.6552178-.282979 1.3421476-.482527 2.0452505-.59413 1.8774221-.320289 3.6868343-.967421 5.3491166-1.913098.7722876-.414679 1.6011372-.709068 2.4589621-.873371 1.386808-.291124 1.7480773-1.18826 2.464789-1.835862.4043558-.453562.7490973-.958856 1.0255387-1.503149l-.0116539.083179z" fill="#FFF"/>
      <path d="M111.0679117 159.307844L106.2214396 157l-22.5078486 2.3265058L83 160.0729783c.0594659 1.318768.1129852 2.6437566.160558 3.9625247l.422208.4354422 10.0497395.3732363c.1843444 7.9685935 1.0168672 13.6853284 1.106066 17.6229707.5550152 2.7619481.0237864 4.5078642-1.5936865 5.2377484-1.5638209.8314985-3.2437718 1.3983892-4.977297 1.6795631 0 1.8661811 10.5135737 1.6671218 7.4570257 1.9346078l-7.1537496.391898-.6779114 3.3715673L91.4441599 198l10.9298351-.3981186c3.6690469-.1990594 6.7196483-1.2441208 8.2776553-3.0107723.9116971-.9318978 1.4005134-2.2260866 1.3439296-3.5581854l-.9276682-31.7250797z" fill="#000"/>
      <path d="M106.4647897 157L83 157.0791286c.0885018 1.7103957.1711036 3.4268781.241905 5.1372738l12.6085632.2678199.2006042 22.5638315c0 1.8260452-1.9411405 3.09819-4.8971022 3.3720968l-6.9208445.4199904L87.1477866 195l10.5494201-.4443377c3.5400739-.2130386 6.4901355-1.2721448 7.9946669-2.994714.8859245-.9298664 1.3581149-2.1972902 1.3039272-3.4999199L106.4647897 157z" fill="#C4C3C6"/>
      <path d="M107.5204501 155L83 155.1879699c0 .4135339.0418642.820802.0657866 1.2531329l22.128211.4636591v31.8170426c0 2.5438597-2.8108808 4.3859649-7.0272021 4.7493734l-9.8859278.6265665L88.7473543 195l9.2220815-.3947368c3.7857182-.2318296 6.9494544-1.3596492 8.5821575-3.1704261.9512243-.9632393 1.4757839-2.2985407 1.4473046-3.6842105L107.5204501 155z" fill="#FFF"/>
    </g>
  </g>
</svg>
