<svg xmlns="http://www.w3.org/2000/svg" viewBox="0 0 763.43 463.49">
    <defs>
        <pattern id="lines" data-name="lines" width="16" height="16" patternTransform="translate(0 254)" patternUnits="userSpaceOnUse">
            <path class="cls-1" d="M0 0h16v16H0z"/>
            <path class="cls-2" d="M1.98 78.02l66-66M-14.02 78.02l66-66M-30.02 78.02l66-66M-46.02 78.02l66-66M-62.02 78.02l66-66M1.98 62.02l66-66M-14.02 62.02l66-66M-30.02 62.02l66-66M-46.02 62.02l66-66M-62.02 62.02l66-66M1.98 46.02l66-66M-14.02 46.02l66-66M-30.02 46.02l66-66M-46.02 46.02l66-66M-62.02 46.02l66-66M1.98 30.02l66-66M-14.02 30.02l66-66M-30.02 30.02l66-66M-46.02 30.02l66-66M-62.02 30.02l66-66M1.98 14.02l66-66M-14.02 14.02l66-66M-30.02 14.02l66-66M-46.02 14.02l66-66M-62.02 14.02l66-66"/>
        </pattern>
        <pattern id="lines-3" data-name="lines" width="16" height="16" patternUnits="userSpaceOnUse">
            <path class="cls-1" d="M0 0h16v16H0z"/>
            <path class="cls-2" d="M1.98 78.02l66-66M-14.02 78.02l66-66M-30.02 78.02l66-66M-46.02 78.02l66-66M-62.02 78.02l66-66M1.98 62.02l66-66M-14.02 62.02l66-66M-30.02 62.02l66-66M-46.02 62.02l66-66M-62.02 62.02l66-66M1.98 46.02l66-66M-14.02 46.02l66-66M-30.02 46.02l66-66M-46.02 46.02l66-66M-62.02 46.02l66-66M1.98 30.02l66-66M-14.02 30.02l66-66M-30.02 30.02l66-66M-46.02 30.02l66-66M-62.02 30.02l66-66M1.98 14.02l66-66M-14.02 14.02l66-66M-30.02 14.02l66-66M-46.02 14.02l66-66M-62.02 14.02l66-66"/>
        </pattern>
        <style>
            .cls-1,.cls-2,.cls-3,.cls-8{fill:none}.cls-2,.cls-3,.cls-8{stroke:currentColor;stroke-linecap:square}.cls-2,.cls-8{stroke-miterlimit:10}.cls-2{stroke-width:2px}.cls-3,.cls-8{stroke-width:12px}
        </style>
    </defs>
    <g id="Layer_2" data-name="Layer 2">
        <g id="Layer_26" data-name="Layer 26">
            <path class="cls-3" d="M105.5 192.44V72.3h123.96M312.1 343.98H208.86M429.14 72.3H537.1M429.14 94V57h-56v-7.36c0-24-19.63-44.09-43.63-43.63a42.79 42.79 0 00-41.95 42.78V57h-56v43a14 14 0 0013.91 14h132.71"/>
            <circle class="cls-3" cx="330.33" cy="50.32" r="13.15"/>
            <path class="cls-3" d="M308.91 167.44h172.83M381.54 225.03h100.2M308.91 225.03h31.31M381.54 280.13h58.87M308.91 280.13h31.31"/>
            <path fill="url(#lines)" stroke-width="12" stroke-linecap="square" stroke="currentColor" d="M176.86 168.69v47.22l31.68 7.93v57.54h39.69V168.69h-71.37z"/>
            <path d="M410.46 405.74l59.63 35.43c11.4 7.77 23.38 9.94 36.8-.73l58.65-59c-1.19.2-2.37.34-3.56.45l-65.36 32.51-86.16-8.68" fill="url(#lines-3)" stroke-width="12" stroke-miterlimit="10" stroke="currentColor"/>
            <path d="M652.69 72c-69.49-34.38-124.27 8.51-124.27 8.51l-93.74 15.84c-8.37-.46-47.13-3.54-47.13-3.54a57.08 57.08 0 00-4.11 8.41c-7.39 20.75-4.46 49.67 33.48 56.15l67.14 9.26c35.53 5.59 62.79 33.32 64.35 68.74l-20.22 64.53-55.82 42.85-145.06.17a29.3 29.3 0 00-30.24 28.31h0a29.29 29.29 0 0028.31 30.24l61 2L496.6 414.4 609.05 356c15.85-8.64 21.23-14.85 30.56-25.29l119.18-145.33" stroke-width="12" stroke-miterlimit="10" stroke="currentColor" fill="none"/>
            <path stroke-width="12" stroke-miterlimit="10" stroke="currentColor" d="M636.81 64.06l37.04-23.89"/>
            <path class="cls-8" d="M567.46 219.43c-1.08-28-24.86-42.68-50-47.54l-44.72-6.59M6 342c0 84.75 101.27 115.2 101.27 115.2S208.54 424.42 208.54 342V223.84l-101.27-25.32L6 223.84z"/>
            <path d="M6 342V223.84l101.27-25.32V457.2C51.34 457.2 6 397.92 6 342z" fill="url(#lines-3)"/>
        </g>
    </g>
</svg>
