<svg viewBox="0 0 186 273" xmlns="http://www.w3.org/2000/svg">
  <g fill-rule="nonzero" fill="none">
    <path d="M52.9137931 186.21031c-.1621739-.017266-13.9715211-6.311018-20.1738181-13.654452-3.4938122-4.136667-5.8661849-6.179155-8.799132-7.30644l-.2243995-.091826c-1.4134616-.614172-2.7390825-1.40939-3.9428861-2.36513-8.6111623-6.406634-14.20985136-15.216512-17.37424773-26.318066-.60781421-2.080327-.97493239-3.756585-1.65584586-7.264946-.32055356-1.651631-.44362487-2.271714-.62276184-3.112835C.0404515 125.719806 0 125.335758 0 124.950667v-11.123916c0-.469174.0600443-.936458.17869893-1.390693.27133635-1.038733.49254417-1.861301.99239179-3.702372.97199601-3.580118 1.38474213-5.160196 1.83538044-7.113576.33624541-1.461017.64920084-2.6842123 1.28651344-5.0866231l.05002319-.1885463c1.03739219-3.9099206 1.4555056-5.6339249 1.82582775-7.7391769.67716766-3.8593493.51003043-7.1383772-.45759581-14.7109116-.08241369-.6448701-.11964296-.9372086-.16406979-1.2899567C4.24307055 62.3476875 6.86107712 52.807558 12.9378401 43.9438157c2.6531467-4.0612883 6.3847987-7.3217784 10.8379009-9.4488672 4.6108533-2.1455466 6.8494451-3.1306876 9.700662-4.1872644 4.1111157-1.5118964 6.41624-3.8587545 7.34945-7.528546 1.1829175-5.4033603 4.2098273-10.2406672 8.6192146-13.73401681 4.8783682-3.78229653 10.5142242-6.24185385 17.4860147-8.02162397.510603-.1363741.8641581-.20089618 1.5270703-.30327369.1044944-.01613435.165324-.02558151.2120766-.03303357C69.4955429.23804232 70.4251562 0 71.3739592 0h7.3472169c.5484733 0 1.0939843.07958766 1.6191349.23622467.7752927.23124707 1.5524229.38137828 3.2260247.64225164.0749981.01168588.0749981.01168588.1506694.02346787 1.9547273.3043537 2.8643606.469284 4.1893012.8145138 5.8889865 1.6654999 11.9009063 2.87178782 17.8536557 3.59386717 7.302907.71764885 14.285492 3.32761515 20.3083 7.61353045 1.853801 1.3591272 3.782379 2.6155222 5.692489 3.7158066 3.802027 2.1019042 7.381467 4.575605 10.748713 7.4393329 3.931126 3.4461428 8.235225 6.4520405 12.74147 8.9135815 9.860642 5.1480291 16.362619 13.41544 19.318178 24.2540444.148658.5437924.148658.5437924.29657 1.0855365 2.256587 8.2645655 3.390908 11.8993849 5.173221 16.0191065 2.989657 6.4914078 4.583451 13.5265055 4.680321 20.6593299l-.000881.1981865c-.006461.2876112.080801.5697604.249075.8049027C185.639201 96.9524158 186 98.074441 186 99.2248391v12.4092619c0 .870647-.206601 1.723177-.5961 2.491539-1.311291 8.918083-5.082993 16.230987-11.731705 21.825935-1.440644 1.204885-1.838057 2.622588-1.310272 5.013826 1.630204 7.143724.290075 14.635826-3.661856 20.702557-4.418165 7.077382-10.103515 10.613172-20.977163 14.860554-3.236547 1.254017-6.440795 2.393047-9.620287 3.415887.468079 1.457339 1.007656 3.164972 1.733723 5.475823.267624.851816.389893 1.240815.534916 1.701529.920656 2.924773 1.558989 4.917655 2.228797 6.937118 6.527919 19.989675 13.068576 39.969899 19.62197 59.940671.864764 2.635277-.366918 5.460285-2.809982 6.676661-2.039545 1.214801-4.667279 1.030007-6.519776-.524615l-19.784045-16.602848c-1.377006 5.717151-2.19094 9.16306-3.028389 12.867963-.250933 1.120928-.488065 2.060601-.962768 3.865974-.021392.081351-.021392.081351-.042725.162466-1.004037 3.817598-1.361915 5.466158-1.527707 7.425312-.243566 2.878211-2.674637 5.091506-5.592482 5.091506h-.429941c-2.431706 0-4.586758-1.550202-5.337738-3.839615-1.667391-5.083152-3.408012-10.395275-5.459444-16.660412.369905 1.129701-8.457136-25.837299-10.9304216-33.38481-2.0424207-6.232677-3.9217896-11.961256-5.7042167-17.386018-6.29564 19.112022-16.5540438 50.251974-22.2267749 67.475375-1.75608 5.331765-9.4793773 5.022357-10.79444-.432444-2.3278505-9.655783-4.2602103-17.680994-6.0625487-25.181272-1.4106263 1.231457-3.0837206 2.625713-5.4679274 4.584078l-.0576683.047368c-3.8796306 3.186688-5.5763548 4.630336-7.5347692 6.47905-.8230888.779797-1.5077201 1.250234-2.7136549 1.978937-.0672373.040609-.0672373.040609-.1313268.079297-.4025383.243049-.5984507.367114-.720438.455057l-.0343759.054609c-.5750376.906479-1.0553117 1.504265-2.0488732 2.170693-1.7500896 1.173865-3.8935399 1.366691-5.8005871.638966-3.6982972-1.387654-4.7234703-4.675177-3.9901688-7.699516.0606085-.249966.1188545-.449783.1999871-.707765.0177389-.056246.0177389-.056246.0250639-.079237.6091207-1.953961 1.2567098-3.953062 2.1027408-6.508985.3949849-1.193279 8.4207071-20.804947 24.0771668-58.835005z" fill="#000"/>
    <path d="M100.285047 156.93444c.645374-1.039586 1.89816-.468282 2.742841-1.732644-4.043081 1.292459-7.8299105 1.105146-11.5977583 1.077049-9.1050148-.124472-18.0403205-2.44943-26.0237752-6.771362-9.8472042-5.045134-17.9805448-12.827019-23.3948235-22.383896-8.2095425-14.516752-10.1836291-29.9138751-5.5805908-45.9572277 3.612018-12.9871486 11.7478677-24.3020836 22.9772283-31.9555863 4.8782715-3.418461 10.4398806-5.4695376 15.802183-8.0263592 6.1215664-2.940813 12.3380407-3.2498793 18.7633128-3.1749542 12.6549537.1457801 24.9128897 4.3796468 34.8976737 12.0535872 6.325656 4.6513456 11.641052 10.508122 15.631349 17.2234242 5.58059 9.5248626 8.722045 19.5835671 8.484775 30.7661491-.379632 17.7947289-7.099118 32.5737189-20.319804 44.4493589-8.536752 7.664889-19.172604 12.67815-30.579359 14.41373-.342438.051707-.688103.079872-1.034498.084291-.257442-.004986-.514262-.026888-.768754-.06556zm-32.8381704-15.500145c.4412197.694189 1.1116752 1.216865 1.8981601 1.479772 13.2871208 6.125133 26.8684565 6.968042 40.6965533 2.126002 6.067238-1.966407 11.589926-5.294028 16.134361-9.721541 2.515062-1.545332 4.318314-3.811818 6.140548-6.031476 13.509059-16.578815 15.089716-39.7179156 3.957664-57.9358904-1.622927-2.6411123-3.056038-5.5257315-5.92226-7.2115479 0-.9365646-.683338-1.4610409-1.271767-2.0229797-13.733189-13.1212709-30.000421-17.8040942-48.659335-13.8049631-8.1921742 1.6671543-15.7397623 5.5859891-21.7718966 11.3043355-.6504112.2446866-1.2234939.6550966-1.6608901 1.1894371-2.9481199 2.6883434-5.5034302 5.7678641-7.5926405 9.1502368-10.9618746 17.7947286-11.0757642 35.8797917-.8162088 54.0397807.759264 1.329922 1.4995465 2.809694 3.0085838 3.530849.1635923 1.009454.6647318 1.935876 1.4236201 2.631747 1.3382029 1.470406 2.8472402 2.809694 4.1569706 4.2801 2.8932363 3.015072 6.3946709 5.398342 10.2785371 6.996138z" fill="#C4C3C6"/>
    <path d="M145.972528 239.501105c-2.42672-1.450354-4.276521-3.593554-6.309471-5.487329-4.89007-4.554299-9.679407-9.237929-14.853356-14.180221-1.767385 9.644398-3.46151 18.900802-5.164792 28.166445h-.384613c-.558603-1.6074-1.135521-3.196323-1.657495-4.812961-3.186786-9.912298-10.87903-33.469016-14.038344-43.418266-.238093-.766748-1.016475-1.635113-.201464-2.429575.815012-.794462 1.318671.230948 1.987163.369517.393162.090365.797421.121495 1.199624.092379 3.662973-.351041 8.241689.434183 11.959607 0 3.397408-.424944 3.662973-5.995415 7.17027-5.792181.880526-.066155 1.74895.238124 2.399247.840652.99816 1.182454 1.053105 0 1.373615-.748273 1.492662 2.503479 8.690404 22.61445 9.468786 25.099453 1.492661 4.803723 3.379092 9.468877 4.74355 14.300314.750909 2.660524 1.556763 5.293333 2.335145 7.935381l-.027472.064665z" fill="#FFF"/>
    <path d="M83.3138935 204.341697c1.0922634-1.101733.6214602-2.510036 1.1110955-3.784215.7909494.555657.583796 1.274179.433139 1.868157-2.0715341 8.267792-10.8002252 36.031478-13.6627086 44.069343-.6026281 1.695711-.9416064 3.477646-1.4500738 5.221259-.141241.507755-.1129928 1.149635-1.026351 1.283759-.4331389-4.713504-1.8832128-9.206661-2.7306585-13.824361-.8474457-4.617701-2.0150376-9.120438-3.0225565-13.680657-.2824819-1.322081-.4331389-2.155566-1.8832127-.680201-6.7230696 6.706204-13.5591319 13.211223-20.3669461 19.792883-.224524.137995-.4648658.247392-.7156208.32573C43.7664255 232.958029 53.9169423 201.601734 58.1165068 190c1.0263509.33531.8756939.823905.7815333 1.187956-.2165695.852646-.0470804 1.187956.894526.958029 1.9817965-.439764 4.0459035.198611 5.451901 1.686132 1.2994168 1.264598 3.3897829.67062 4.7080319 1.96396 2.4105123 2.404653 5.903872 3.161496 8.2484719 5.681113.4268431.459179.9948056.756561 1.6101469.843065 1.412731.08395 2.7069749.830854 3.5027757 2.021442zM43.6289787 165.0805c-.8840519-3.279773-2.0453624-6.478458-3.4713867-9.561504-.5461648-1.147751.4258235-4.489186 1.4070688-5.007525 1.5162685-.891997 3.4508991-.594095 4.6285156.712716 3.4489041 3.366224 6.6334775 6.992975 9.525485 10.848095 1.6322843 2.154977 3.5329926 4.09281 5.6560461 5.766522 1.6847797 1.323615 2.9344789 3.147058 4.9802828 4.091175 1.0275304.481315.7405625 1.286592-.2499399 1.767907-.6047056.328544-1.3184324.392203-1.9717476.175865-.9723147-.303243-1.999505-.38857-3.0085351-.249914-2.7759148.242917-5.5617127-.339946-8.007332-1.675346-1.1495413-.562612-2.4252851-.817734-3.7028125-.740484-2.0087757 0-2.7771093-1.851211-3.9805234-3.082266-.7304916-.948322-1.3515609-1.976083-1.8514062-3.063754l.0462851.018513z" fill="#C4C3C6"/>
    <path d="M41.1432437 159.296837c-.1602217-1.846882-.5341578-3.666192-1.1134845-5.417433-.2420619-.693758 1.0457072-1.938441 1.9364948-1.877227 1.3347669.044964 2.5926232.668895 3.4760083 1.724192 2.0491028 2.461839 3.9259757 5.077099 5.6158351 7.825181.9701316 1.56733 2.0964682 3.020915 3.3598186 4.335987.9659638 1.22204 2.0354443 2.34894 3.1952166 3.366766.7165031.530521.367934.805983-.4744413.734567-.5477799-.036503-1.0791602-.211475-1.5491959-.510116-.719973-.435678-1.4872056-.778231-2.2850639-1.020232-2.1292442-.689722-4.1303061-1.7595-5.9159918-3.16272-.8322848-.624921-1.7496188-1.113373-2.7207753-1.44873-1.5588784-.57133-1.8590351-1.703787-2.5755382-2.601592-.4022286-.609452-.7276956-1.271328-.9682474-1.969048l.0193649.020405z" fill="#FFF"/>
    <path d="M140.312901 168.647362c-1.628094.27574-3.246611.637055-4.884283.798696-1.896422.249936-3.739769.802182-5.458904 1.635425-2.738347 1.140003-5.575188 2.031093-8.475668 2.662319-6.062257 1.416735-12.210707.694105-18.272965 1.321652-6.4166067.66558-12.8236368 1.511817-19.259398 1.901657-2.443556.177311-4.88549-.365121-7.0199598-1.559359-1.503593-.855745-1.6185173-1.644933-.3256188-2.852485 1.9920213-1.816083 4.4916249-2.234447 7.0008057-2.196414 4.7885127.066558 9.3184458-1.302635 13.9728803-1.968215 3.0838026-.446889 6.2825286-.171149 9.4333706-.180657 3.150841-.009509 5.880293-1.236077 8.533129-2.852486 2.413411-1.464276 5.066247-2.54822 7.47008-4.041021 2.403834-1.4928 4.922591-2.633795 6.598571-5.039391 1.187551-1.692474 3.38069-1.4928 5.094978-2.082314 2.090685-.718868 3.649548-2.472177 4.108544-4.621026.957702-3.442 3.208303-6.189894 4.711896-9.337136 1.110935-2.310513 3.045494-4.21217 3.668001-6.741374.32233-1.582752.790377-3.132772 1.398246-4.630535.720351-1.795142 2.052314-3.282425 3.763771-4.202662 4.290507-2.253463 6.627301-5.914153 8.197934-10.278455.526736-1.454768-.239426-2.738386-.095771-4.098071.398986-4.839504-.107549-9.710527-1.494016-14.3670185-1.072627-3.8983968-1.235436-8.0059758-2.873107-11.7712566-.679969-1.5498504-.632084-3.3944577-1.072627-5.0584075-1.312053-4.9918495-2.518758-10.0027156-3.457306-15.0706314-.287311-1.5498504-1.522748-2.5767452-2.365526-3.8033139-1.294492-2.1385256-2.851503-4.1091466-4.63528-5.8666117-5.841986-5.2105401-10.755-11.4669915-17.976077-15.0801397-6.062257-3.0426512-11.770165-6.8364568-18.435774-8.5574563-1.921445-.3607502-3.880312-.4852945-5.832409-.3708231-4.9417452-.0475415-9.8739133-.3898397-14.8252356-.3422983-4.3862777.0475414-8.7917094-.1901657-13.1875642-.266232-3.9907699-.1708653-7.9071013 1.1105572-11.0135794 3.60364-1.201278.8093551-2.5098415 1.4493409-3.8882724 1.9016569-3.7063089 1.5593587-6.76138 3.9839714-9.8739134 6.408584-4.7885127 3.6892145-8.992827 7.9869592-13.9824573 11.4099417-1.4269768.9508285-1.7909038 2.9095352-2.3751023 4.4974187-1.0534729 2.8524855-3.2370347 4.972833-5.0375155 7.2928545-2.7964915 3.5941316-5.229056 7.178755-5.1332857 12.0089637.0574621 2.93806.5171594 5.9331697-.7086999 8.8236882-.5458905 1.3026351.6608148 2.7954358.2585797 4.0980708-.756585 2.3960878-1.1588201 4.8682418-2.1644078 7.2358047-1.139666 2.6908446-2.1739848 5.4197228-.6608148 8.7286058 1.5135752 3.091463 2.5437594 6.393888 3.0550712 9.793533.2681567 2.186905 2.0782145 3.803314 2.1452537 5.990219.1053473 3.803314 1.7430187 7.378429 1.130089 11.267318-.4980053 3.118717-2.9688779 4.906275-4.4245858 7.368921-.4884283.82722-1.3790917.532464-1.9632902-.133116-4.0415048-4.60201-8.4469366-9.137462-8.2075109-15.793261-.0492898-3.206222.1267161-6.411954.5267364-9.59386.0766162-.465906.2490026-1.112469 0-1.416734-2.21229294-2.928552-.1532324-5.628905.4692742-8.357783.5498225-1.703424 1.0006846-3.436784 1.3503606-5.191523.2681567-2.4246127 1.494016-4.5449602 1.9154051-6.9410479 1.1762223-5.5455025 1.0944362-11.2814069-.2394256-16.791631-1.4410246-5.9329346-.9274432-12.168319 1.4652849-17.7900008.8929609-2.518496 2.055226-4.934721 3.4668833-7.2072799 1.3695146-2.0347729 3.5434994-3.1092091 4.9800533-4.9443081 2.2793321-2.9000268 5.5163667-2.8524854 8.619323-2.8524854 3.9457345 0 6.7039179-2.2249387 9.2035216-4.7541424 2.4996037-2.5292038 5.3344032-4.240695 7.5466961-6.8649816 1.9154052-2.3200215 3.8308103-4.6305347 4.2330453-7.777777.1819635-1.435751 1.4173998-2.2439552 2.3463713-3.0806843 3.9265805-3.5180653 7.8340069-7.0741639 12.6991359-9.3561522.3702629-.1836198.7743381-.290384 1.1875512-.3137734 4.467131.0089609 8.8638198 1.1059571 12.8044832 3.1947837 2.4900267 1.2265687 4.9130141 2.6242866 7.47008 3.6797062 1.2517597.4507288 2.3594209 1.2254505 3.2083035 2.2439552 1.5514782 2.0537895 3.8308103 2.93806 5.8898703 4.1931536.470759.3098143 1.049428.4130207 1.599364.2852486 2.461295-.5895137 4.788513 0 7.125307.7416462 1.35036.4278728 2.758183.2662319 4.137275.5134473 3.583681.8253079 7.039817 2.1236484 10.276148 3.8603637 4.690628 2.1241611 9.145637 4.727632 13.292912 7.7682686 2.020752 1.5403422 4.644857 2.101331 6.59857 3.803314 4.549088 3.9554464 9.193945 7.8538432 13.168411 12.3607702 3.007186 3.4134742 4.501202 7.8538432 6.493223 11.9233891 2.375102 4.8302087 5.411019 9.2991025 7.977662 14.0152118 1.955759 3.7239978 3.131821 7.8025834 3.457306 11.9899471.622507 6.5892414.201118 13.1309417-2.193138 19.3588677-1.015165 2.624287-2.145254 5.286606-2.988032 7.891877-1.245014 3.87938-3.524346 6.712849-6.167605 9.508284-1.4174 1.492801-3.055071 2.795436-3.706309 4.915784-.274252.774339-.42923 1.585336-.459697 2.405596 0 3.54659-.076616 7.09318 0 10.63977.281997 5.740517-2.309354 11.248979-6.924189 14.718825-2.739198 2.368482-5.655829 4.526746-8.724671 6.456126-.999774.639937-2.132765 1.046317-3.313651 1.188535l-.105347-.085574.153232.076066z" fill="#C4C3C6"/>
    <path d="M173.729993 88.0689311c-.321636-4.1102037-1.496372-8.1135426-3.452733-11.7664336-2.558292-4.6295704-5.587848-9.0055944-7.953788-13.7478521-1.990851-4.0003996-3.481585-8.3576424-6.482289-11.71009-3.962467-4.422977-8.59817-8.244955-13.137695-12.1232767-1.923528-1.6715285-4.568379-2.2161838-6.588084-3.7562437-4.147337-2.9751371-8.598267-5.5241226-13.28196-7.6063936-3.279615-1.54006-6.578465-3.1176824-10.252404-3.7562438-1.375322-.2441558-2.779498-.0751249-4.125967-.5070929-2.317851-.7324675-4.654938-1.3052947-7.117053-.7324675-.548732.1210706-1.124314.0120775-1.5869109-.3004995-2.0581749-1.2301699-4.3183202-2.0941059-5.8667601-4.113087-.8476007-.9964128-1.9488278-1.7574957-3.1930564-2.2067932-2.5582921-1.032967-4.9723197-2.3946054-7.4632883-3.605994C79.301336 10.0855578 74.9185643 9.0084736 70.4653966 9c-.4119063.02305237-.8145625.12853198-1.1829697.30989011-4.8088198 2.23496499-8.7616697 5.72827169-12.676049 9.18401599-.961764.816983-2.1543513 1.6057942-2.3370864 3.0143856-.3943232 3.0895105-2.269763 5.362038-4.2317614 7.6439561-2.2216748 2.5636363-5.1069667 4.3478521-7.5306118 6.7142857-2.4236452 2.3664335-5.2704665 4.6295704-9.1752282 4.6953047-3.1161152 0-6.3380245 0-8.6558756 2.8171828-1.442646 1.802997-3.6066149 2.8641358-4.9819373 4.8643356-1.406066 2.2299772-2.563573 4.600529-3.4527327 7.0711289-2.3684418 5.5297194-2.8539623 11.6562797-1.3849401 17.4759241 1.3279435 5.391975 1.4166249 11.004158.2596763 16.4335664-.4712643 2.3476524-1.6927046 4.4323677-1.9235279 6.8081918-.0480882.3568432-.1154117.7136863-.1923528 1.0611389 1.0290874-1.6151848 2.0485572-3.2491509 3.0776447-4.8831169.6004439-.9982785 1.2925539-1.9412167 2.0677925-2.8171828.8403109-4.714445.6799083-9.5471717-.4712644-14.1986014-1.4048562-5.5196881-.9529908-11.3342929 1.2887637-16.5838162.8440289-2.3356424 1.9401989-4.5769644 3.2699975-6.6861139 1.2983814-1.8781219 3.3469386-2.8923077 4.7126434-4.6013986 2.1447336-2.6857143 5.1935254-2.6293706 8.1461407-2.6481518 3.7220266 0 6.3284069-2.0659341 8.6558757-4.3948052 2.3274688-2.3288711 5.0396431-3.9346654 7.1266709-6.3668332 1.8562044-2.1504495 3.6258501-4.3008991 4.0009381-7.2307692.1731175-1.3240759 1.3368519-2.0753247 2.2120571-2.8171828 3.7027912-3.2585415 7.4055825-6.5734266 11.9835789-8.6769231.3506998-.1727155.7333537-.2749025 1.1252638-.3004995 4.2178517.0077001 8.3692224 1.026687 12.089373 2.9674326 2.3467041 1.1456543 4.6357023 2.4321678 7.0593475 3.4181818 1.1757043.4210721 2.2172246 1.1368127 3.0199388 2.0753246 1.4618812 1.8781219 3.6066149 2.7326674 5.549378 3.8971029.4442176.2882639.9910791.3834911 1.5099695.2629371 2.1942006-.391157 4.4567916-.173167 6.5303776.6291708.453835.0523759.903636.1339384 1.346469.2441559l.307765.0845155c.817499.0751248 1.634998.0657342 2.452498.215984 3.381776.7609623 6.642784 1.96445 9.69458 3.5778222 4.41327 1.9727316 8.603614 4.3898216 12.502932 7.211988 1.923528 1.4367632 4.385644 1.9532467 6.23223 3.5308691 4.396662 3.5533461 8.547724 7.3868265 12.425991 11.4753247 2.837203 3.1646353 4.250996 7.2871129 6.136054 11.0715285 2.24091 4.4887112 5.106966 8.62997 7.530612 13.005994 1.844823 3.4597814 2.953853 7.248162 3.260379 11.1372627.144265 1.5400599.230824 3.0895105.240441 4.6201798.120937.3198673.25898.6333185.413559.939061.442411.7324675.913676 1.5024975 1.106028 1.8781218 1.09 1.972028 2.163969 3.9284049 3.22191 5.8691309 1.155192-4.8925275 1.460794-9.9397222.904058-14.9310689z" fill="#FFF"/>
    <path d="M124.474361 53.5347631c4.367577 2.3447879 7.897798 4.4919308 10.657269 8.6245072 3.640179 1.4241219 6.733873 3.8623608 8.86837 6.9894444-4.310485-10.4033119-12.979031-17.410724-22.370749-23.0166537-4.957533-2.9556905-10.067313-6.0820743-15.45304-8.1932818-5.385726-2.1112075-11.0854621-2.2819009-16.7851978-1.5362404-5.890044.7636282-12.141674 1.7069337-17.5464317 4.2942859-5.4512754 2.4931443-10.6438886 5.4617375-15.5101322 8.8670715-3.5777973 2.5783683-6.5656387 6.0012196-9.4202643 9.4330548l-.0856387.0808547-.1237005.1617095c-.6755947.8175314-1.341674 1.626079-2.0172687 2.4256427C41.3851045 65.5081506 38.4762149 69.6382658 36 74c1.7331819-1.7681261 3.823076-3.1914799 6.1469604-4.1864796 1.1989427-1.7069337 2.4740088-3.3689481 3.8061674-4.9950271l2.797533-3.4048835c2.2551542-1.0151764 3.5111894-2.8029649 4.9670485-4.6536404 4.185649-3.2952149 8.7162076-6.1789698 13.5214096-8.6065395 8.9707772-3.6791815 18.6614337-5.5341438 28.4415859-5.4442202 5.4594472-.0532237 10.8388762 1.2412816 15.6052862 3.7552542 4.415154 2.3178363 8.792247 4.7165274 13.18837 7.0702992zM104.073304 40.544099c-.22837-.1347579-.466256-.2605319-.704141-.386306.275947.0808547.551894.1617095.818326.260532.266432.0988225.751718.2784997 1.122819.4222415-.409163-.1437418-.827841-.2066288-1.237004-.2964675zM122.736857 136.45866c4.09102-2.345064 7.3884-4.492459 9.967727-8.616537 3.455412-1.467517 6.351799-3.911341 8.295416-6.999252-4.024883 10.404536-12.140786 17.412773-20.918054 23.019362-4.639009 2.956039-9.448083 6.091775-14.455566 8.194246-5.007484 2.102471-10.3928908 2.291155-15.702713 1.545406-5.508232-.772703-11.3376988-1.707134-16.4396633-4.258851-5.1165039-2.525211-9.9693901-5.506602-14.4933582-8.904055-3.3446212-2.578671-6.1412535-6.01091-8.8150608-9.443149L50.1 130.914965l-.113377-.161728c-.6330215-.808643-1.2565949-1.626271-1.8896165-2.416943C45.0087037 124.467194 42.2984444 120.337945 40 116c1.6012203 1.746824 3.5545411 3.17055 5.7444341 4.186972 1.1243217 1.707135 2.3242282 3.369345 3.5713751 4.995615.8597755 1.11413 1.728999 2.2642 2.6171188 3.396299 2.1069223 1.024281 3.2784845 2.81228 4.6484565 4.663173 3.8895266 3.277165 8.1260444 6.161787 12.6415341 8.607553 8.3433599 3.646634 17.433443 5.487841 26.6152479 5.390951 5.1329675.045433 10.1800055-1.253946 14.5878395-3.755696 4.109915-2.255215 8.200935-4.663173 12.310851-7.026207zm-19.085126 13.001178c-.217306.134774-.434612.251577-.651918.377366.255098-.080864.510196-.161728.765295-.260562.255098-.098834.699158-.278533 1.048737-.422291-.387372.116803-.774743.206653-1.162114.305487zM143.462052 155.406382c.547032-2.301824 1.373588-4.529955 2.461704-6.635974.434963-.831782-1.082779-2.623312-2.230341-2.742138-1.800897-.164763-3.592871.395536-4.969681 1.553878-3.17028 2.747176-6.139185 5.713088-8.884346 8.875387-1.602123 1.811499-3.402287 3.442332-5.367625 4.862726-1.656561 1.20654-2.776358 2.614171-4.867881 3.656184-1.055016.539287-.629308.959748.518253 1.014591.741677.045537 1.48374-.08288 2.165559-.374759 1.04064-.435352 2.131647-.742349 3.248339-.914046 2.981788-.492752 5.855561-1.48834 8.495656-2.943228 1.226575-.637967 2.542983-1.090874 3.905411-1.343648 2.202577-.447883 2.776358-1.828092 3.914664-2.824402.642213-.697789 1.189743-1.475163 1.628797-2.312537l-.018509.127966z" fill="#FFF"/>
    <path d="M114.553656 72.5461994L107.033268 69l-34.9259717 3.5748748L71 73.7218935c.0922747 2.0263996.1753219 4.0623578.2491417 6.0887574l.6551503.6690942 15.5944235.5735093c.2860515 12.2444243 1.5778973 21.0286756 1.7163093 27.0791986.8612305 4.243969.0369099 6.926719-2.4729618 8.048248-2.4266186 1.277668-5.0334391 2.148744-7.723392 2.580792 0 2.867547 16.3141661 2.561675 11.5712468 2.97269l-11.1006459.602185-1.0519315 5.180701L84.1030067 132l16.9600893-.611743c5.693348-.305872 10.42704-1.911698 12.844637-4.626309 1.414703-1.43194 2.173211-3.420572 2.085408-5.467456l-1.439485-48.7482926z" fill="#000"/>
    <path d="M107.152584 70L70 70.1207753c.1401279 2.6106038.270914 5.2304981.3830163 7.841102l19.9635583.4087778.3176233 34.4395319c0 2.787122-3.0734725 4.728817-7.7537451 5.146885l-10.9580037.641038L76.5673287 128l16.7032486-.6782c5.605117-.325164 10.2760477-1.941694 12.6582227-4.570879 1.402714-1.41927 2.150348-3.353759 2.064551-5.341983L107.152584 70z" fill="#C4C3C6"/>
    <path d="M109.23272 67L70 67.2866541c0 .6306391.0669827 1.2517231.1052585 1.9110276l35.4051375.7070802v48.5209901c0 3.879386-4.497409 6.688596-11.2435232 7.242794l-15.8174845.955514L79.1957668 128l14.7553304-.601974c6.0571488-.35354 11.1191268-2.073465 13.7314518-4.834899 1.521959-1.46894 2.361254-3.505275 2.315688-5.618421L109.23272 67z" fill="#FFF"/>
  </g>
</svg>
