<svg xmlns="http://www.w3.org/2000/svg" viewBox="0 0 629.7 478.42">
    <defs>
        <pattern id="lines" data-name="lines" width="16" height="16" patternTransform="translate(368 400)" patternUnits="userSpaceOnUse">
            <path class="cls-1" d="M0 0h16v16H0z"/>
            <path class="cls-2" d="M1.98 78.02l66-66M-14.02 78.02l66-66M-30.02 78.02l66-66M-46.02 78.02l66-66M-62.02 78.02l66-66M1.98 62.02l66-66M-14.02 62.02l66-66M-30.02 62.02l66-66M-46.02 62.02l66-66M-62.02 62.02l66-66M1.98 46.02l66-66M-14.02 46.02l66-66M-30.02 46.02l66-66M-46.02 46.02l66-66M-62.02 46.02l66-66M1.98 30.02l66-66M-14.02 30.02l66-66M-30.02 30.02l66-66M-46.02 30.02l66-66M-62.02 30.02l66-66M1.98 14.02l66-66M-14.02 14.02l66-66M-30.02 14.02l66-66M-46.02 14.02l66-66M-62.02 14.02l66-66"/>
        </pattern>
        <pattern id="lines-3" data-name="lines" width="16" height="16" patternTransform="translate(96)" patternUnits="userSpaceOnUse">
            <path class="cls-1" d="M0 0h16v16H0z"/>
            <path class="cls-2" d="M1.98 78.02l66-66M-14.02 78.02l66-66M-30.02 78.02l66-66M-46.02 78.02l66-66M-62.02 78.02l66-66M1.98 62.02l66-66M-14.02 62.02l66-66M-30.02 62.02l66-66M-46.02 62.02l66-66M-62.02 62.02l66-66M1.98 46.02l66-66M-14.02 46.02l66-66M-30.02 46.02l66-66M-46.02 46.02l66-66M-62.02 46.02l66-66M1.98 30.02l66-66M-14.02 30.02l66-66M-30.02 30.02l66-66M-46.02 30.02l66-66M-62.02 30.02l66-66M1.98 14.02l66-66M-14.02 14.02l66-66M-30.02 14.02l66-66M-46.02 14.02l66-66M-62.02 14.02l66-66"/>
        </pattern>
        <style>
            .cls-1,.cls-2,.cls-3{fill:none}.cls-2,.cls-3{stroke:#4038ff;stroke-linecap:square}.cls-2{stroke-miterlimit:10;stroke-width:2px}.cls-3{stroke-width:12px}
        </style>
    </defs>
    <g id="Layer_2" data-name="Layer 2">
        <g id="Layer_29" data-name="Layer 29">
            <path class="cls-3" d="M452.64 97.49H623.7v374.93H6V97.49h171.07"/>
            <path class="cls-3" d="M452.63 76.42h-77.3v-10.2c0-33.11-27.1-60.84-60.21-60.21a59.06 59.06 0 00-57.9 59.05v11.36h-77.31v59.36A19.31 19.31 0 00199.16 155h234.22a19.31 19.31 0 0019.25-19.25z"/>
            <circle class="cls-3" cx="316.27" cy="65.3" r="26.24"/>
            <path class="cls-3" d="M305.35 237.18h238.5M386.95 316.65h156.9M305.35 316.65h43.2M386.95 392.69h108.01M305.35 392.69h43.2"/>
            <path d="M84.55 225.89v175.16h160.87V225.89zM165 268.57A36.43 36.43 0 11128.56 305 36.42 36.42 0 01165 268.57zm51.06 131.89H113.92v-34.53c0-13.41 9.15-24.28 20.43-24.28h61.28c11.28 0 20.42 10.87 20.42 24.28z" fill="url(#lines)" stroke-width="12" stroke="#4038ff" stroke-linecap="square"/>
            <path d="M176.91 315.13a16.82 16.82 0 01-11.91 4.94h0a16.8 16.8 0 01-11.92-4.94" fill="#fff" stroke-width="12" stroke-miterlimit="10" stroke="#4038ff" stroke-linecap="square"/>
            <path d="M375.33 76.42v-10.2c0-33.11-27.1-60.84-60.21-60.21a59.06 59.06 0 00-57.9 59.05v11.36h-77.31v37.93h272.72V76.42zm-59.06 15.12a26.24 26.24 0 1126.24-26.24 26.23 26.23 0 01-26.24 26.24z" fill="url(#lines-3)" stroke-width="12" stroke="#4038ff" stroke-linecap="square"/>
        </g>
    </g>
</svg>
