<svg xmlns="http://www.w3.org/2000/svg" width="56" height="56" viewBox="0 0 56 56">
  <g fill="#FFF">
    <path d="M25.2 0C11.2824 0 0 11.2824 0 25.2 0 39.1176 11.2824 50.4 25.2 50.4 26.4252 50.4 27.6216 50.2824 28.8 50.1132L28.8 28.8C28.8 24.4932 34.5864 21.6 43.2 21.6 45.8388 21.6 48.2088 21.8748 50.232 22.3752 48.8256 9.7884 38.1612 0 25.2 0zM26.4 25.2C26.4 25.8627417 25.8627417 26.4 25.2 26.4L13.2 26.4C12.5372583 26.4 12 25.8627417 12 25.2 12 24.5372583 12.5372583 24 13.2 24L24 24 24 13.2C24 12.5372583 24.5372583 12 25.2 12 25.8627417 12 26.4 12.5372583 26.4 13.2L26.4 25.2zM43.2 50.4C37.8948 50.4 33.6684 49.2996 31.2 47.4504L31.2 50.4C31.2 53.136 36.3588 55.2 43.2 55.2 50.0412 55.2 55.2 53.136 55.2 50.4L55.2 47.4504C52.7316 49.2996 48.5052 50.4 43.2 50.4z"/>
    <path d="M43.2,43.2 C37.8948,43.2 33.6684,42.0996 31.2,40.2504 L31.2,43.2 C31.2,45.936 36.3588,48 43.2,48 C50.0412,48 55.2,45.936 55.2,43.2 L55.2,40.2504 C52.7316,42.0996 48.5052,43.2 43.2,43.2 Z"/>
    <path d="M43.2,36 C37.8948,36 33.6684,34.8996 31.2,33.0504 L31.2,36 C31.2,38.736 36.3588,40.8 43.2,40.8 C50.0412,40.8 55.2,38.736 55.2,36 L55.2,33.0504 C52.7316,34.8996 48.5052,36 43.2,36 Z"/>
    <path d="M43.2,24 C36.3588,24 31.2,26.064 31.2,28.8 C31.2,31.536 36.3588,33.6 43.2,33.6 C50.0412,33.6 55.2,31.536 55.2,28.8 C55.2,26.064 50.0412,24 43.2,24 Z"/>
  </g>
</svg>
