<svg xmlns="http://www.w3.org/2000/svg" width="660" height="2760" viewBox="0 0 660 2760">
  <g fill="#1F242C" fill-rule="evenodd" opacity=".6">
    <g transform="matrix(1 0 0 -1 0 960)">
      <path d="M226.660142 920.010133L220.006762 920.010133 220.006762 926.663467 226.660142 926.663467 226.660142 933.333333 220.006762 933.333333 220.006762 940.0032 226.660142 940.0032 226.660142 946.656533 233.330071 946.656533 233.330071 953.3264 226.660142 953.3264 226.660142 946.673067 220.006762 946.673067 220.006762 953.3264 226.660142 953.3264 226.660142 960 219.990214 960 219.990214 953.330133 213.336833 953.330133 213.336833 946.6768 206.666904 946.6768 206.666904 953.330133 199.996975 953.330133 199.996975 946.6768 193.343594 946.6768 193.343594 953.330133 199.996975 953.330133 199.996975 960 193.326512 960 193.326512 953.330133 186.673665 953.330133 186.673665 960 180 960 180 953.330133 186.669929 953.330133 186.669929 946.6768 180 946.6768 180 940.0064 186.669929 940.0064 186.669929 933.336533 180 933.336533 180 926.666667 186.669929 926.666667 186.669929 920.013333 186.669929 919.9968 193.32331 919.9968 193.32331 913.343467 199.993238 913.343467 199.993238 919.9968 206.663167 919.9968 206.663167 913.343467 213.33363 913.343467 213.33363 919.9968 219.987011 919.9968 219.987011 913.343467 226.65694 913.343467 226.65694 919.9968 233.326868 919.9968 233.326868 926.666667 226.65694 926.666667 226.65694 920.010133 226.660142 920.010133zM186.669929 919.9936L186.669929 913.339733 180 913.339733 180 920.010133 186.669929 920.010133 186.669929 919.9936zM206.663167 953.330133L206.663167 960 213.33363 960 213.33363 953.330133 206.663167 953.330133zM226.660142 940.0064L226.660142 933.336533 233.330071 933.336533 233.330071 940.0064 226.660142 940.0064zM193.32331 946.660267L186.669929 946.660267 186.669929 940.0064 193.32331 940.0064 193.32331 946.660267zM193.339858 913.339733L193.339858 906.669867 199.993238 906.669867 199.993238 913.339733 206.663167 913.339733 206.663167 906.669867 213.33363 906.669867 213.33363 913.339733 220.003559 913.339733 220.003559 906.669867 226.65694 906.669867 226.65694 913.339733 233.326868 913.339733 233.326868 906.669867 226.65694 906.669867 226.65694 900 219.987011 900 219.987011 906.669867 213.33363 906.669867 213.33363 900 206.663167 900 206.663167 906.669867 199.993238 906.669867 199.993238 900 193.32331 900 193.32331 906.669867 186.669929 906.669867 186.669929 900 180 900 180 906.669867 186.669929 906.669867 186.669929 913.339733 193.339858 913.339733zM219.987011 926.663467L219.987011 933.333333 213.33363 933.333333 213.33363 926.663467 219.987011 926.663467zM206.663167 926.663467L206.663167 920.010133 213.33363 920.010133 213.33363 926.663467 206.663167 926.663467zM199.993238 926.663467L206.663167 926.663467 206.663167 933.333333 199.993238 933.333333 199.993238 926.663467zM199.993238 926.663467L193.339858 926.663467 193.339858 920.010133 199.993238 920.010133 199.993238 926.663467zM199.993238 940.0064L193.339858 940.0064 193.339858 933.336533 199.993238 933.336533 199.993238 940.0064zM206.663167 940.0064L206.663167 946.660267 199.993238 946.660267 199.993238 940.0064 206.663167 940.0064zM213.336833 940.0064L206.666904 940.0064 206.666904 933.336533 213.336833 933.336533 213.336833 940.0064zM213.336833 940.0064L219.990214 940.0064 219.990214 946.660267 213.336833 946.660267 213.336833 940.0064zM193.32331 933.336533L193.32331 926.666667 186.669929 926.666667 186.669929 933.336533 193.32331 933.336533zM240 953.330133L233.330071 953.330133 233.330071 960 240 960 240 953.330133zM233.330071 940.0064L240 940.0064 240 946.6768 233.330071 946.6768 233.330071 940.0064zM240 926.663467L233.330071 926.663467 233.330071 933.333333 240 933.333333 240 926.663467zM233.330071 913.339733L240 913.339733 240 920.010133 233.330071 920.010133 233.330071 913.339733zM233.330071 900L240 900 240 906.669867 233.330071 906.669867 233.330071 900zM106.660142 20.0101333L100.006762 20.0101333 100.006762 26.6634667 106.660142 26.6634667 106.660142 33.3333333 100.006762 33.3333333 100.006762 40.0032 106.660142 40.0032 106.660142 46.6565333 113.330071 46.6565333 113.330071 53.3264 106.660142 53.3264 106.660142 46.6730667 100.006762 46.6730667 100.006762 53.3264 106.660142 53.3264 106.660142 60 99.9902135 60 99.9902135 53.3301333 93.3368327 53.3301333 93.3368327 46.6768 86.6669039 46.6768 86.6669039 53.3301333 79.9969751 53.3301333 79.9969751 46.6768 73.3435943 46.6768 73.3435943 53.3301333 79.9969751 53.3301333 79.9969751 60 73.3265125 60 73.3265125 53.3301333 66.6736655 53.3301333 66.6736655 60 60 60 60 53.3301333 66.6699288 53.3301333 66.6699288 46.6768 60 46.6768 60 40.0064 66.6699288 40.0064 66.6699288 33.3365333 60 33.3365333 60 26.6666667 66.6699288 26.6666667 66.6699288 20.0133333 66.6699288 19.9968 73.3233096 19.9968 73.3233096 13.3434667 79.9932384 13.3434667 79.9932384 19.9968 86.6631673 19.9968 86.6631673 13.3434667 93.3336299 13.3434667 93.3336299 19.9968 99.9870107 19.9968 99.9870107 13.3434667 106.65694 13.3434667 106.65694 19.9968 113.326868 19.9968 113.326868 26.6666667 106.65694 26.6666667 106.65694 20.0101333 106.660142 20.0101333zM66.6699288 19.9936L66.6699288 13.3397333 60 13.3397333 60 20.0101333 66.6699288 20.0101333 66.6699288 19.9936zM86.6631673 53.3301333L86.6631673 60 93.3336299 60 93.3336299 53.3301333 86.6631673 53.3301333zM106.660142 40.0064L106.660142 33.3365333 113.330071 33.3365333 113.330071 40.0064 106.660142 40.0064zM73.3233096 46.6602667L66.6699288 46.6602667 66.6699288 40.0064 73.3233096 40.0064 73.3233096 46.6602667zM73.3398577 13.3397333L73.3398577 6.66986667 79.9932384 6.66986667 79.9932384 13.3397333 86.6631673 13.3397333 86.6631673 6.66986667 93.3336299 6.66986667 93.3336299 13.3397333 100.003559 13.3397333 100.003559 6.66986667 106.65694 6.66986667 106.65694 13.3397333 113.326868 13.3397333 113.326868 6.66986667 106.65694 6.66986667 106.65694 0 99.9870107 0 99.9870107 6.66986667 93.3336299 6.66986667 93.3336299 0 86.6631673 0 86.6631673 6.66986667 79.9932384 6.66986667 79.9932384 0 73.3233096 0 73.3233096 6.66986667 66.6699288 6.66986667 66.6699288 0 60 0 60 6.66986667 66.6699288 6.66986667 66.6699288 13.3397333 73.3398577 13.3397333zM99.9870107 26.6634667L99.9870107 33.3333333 93.3336299 33.3333333 93.3336299 26.6634667 99.9870107 26.6634667zM86.6631673 26.6634667L86.6631673 20.0101333 93.3336299 20.0101333 93.3336299 26.6634667 86.6631673 26.6634667zM79.9932384 26.6634667L86.6631673 26.6634667 86.6631673 33.3333333 79.9932384 33.3333333 79.9932384 26.6634667zM79.9932384 26.6634667L73.3398577 26.6634667 73.3398577 20.0101333 79.9932384 20.0101333 79.9932384 26.6634667zM79.9932384 40.0064L73.3398577 40.0064 73.3398577 33.3365333 79.9932384 33.3365333 79.9932384 40.0064zM86.6631673 40.0064L86.6631673 46.6602667 79.9932384 46.6602667 79.9932384 40.0064 86.6631673 40.0064zM93.3368327 40.0064L86.6669039 40.0064 86.6669039 33.3365333 93.3368327 33.3365333 93.3368327 40.0064zM93.3368327 40.0064L99.9902135 40.0064 99.9902135 46.6602667 93.3368327 46.6602667 93.3368327 40.0064zM73.3233096 33.3365333L73.3233096 26.6666667 66.6699288 26.6666667 66.6699288 33.3365333 73.3233096 33.3365333zM120 53.3301333L113.330071 53.3301333 113.330071 60 120 60 120 53.3301333zM113.330071 40.0064L120 40.0064 120 46.6768 113.330071 46.6768 113.330071 40.0064zM120 26.6634667L113.330071 26.6634667 113.330071 33.3333333 120 33.3333333 120 26.6634667zM113.330071 13.3397333L120 13.3397333 120 20.0101333 113.330071 20.0101333 113.330071 13.3397333zM113.330071 0L120 0 120 6.66986667 113.330071 6.66986667 113.330071 0zM60 426.669867L60 420 0 420 0 426.669867 60 426.669867zM60 433.333333L60 440 0 440 0 433.333333 60 433.333333zM60 446.666667L60 453.333333 0 453.333333 0 446.666667 60 446.666667zM60 466.666667L60 460 0 460 0 466.666667 60 466.666667zM60 473.333333L60 480 0 480 0 473.333333 60 473.333333zM600 846.669867L600 840 540 840 540 846.669867 600 846.669867zM600 853.333333L600 860 540 860 540 853.333333 600 853.333333zM600 866.666667L600 873.333333 540 873.333333 540 866.666667 600 866.666667zM600 886.666667L600 880 540 880 540 886.666667 600 886.666667zM600 893.333333L600 900 540 900 540 893.333333 600 893.333333zM420 233.330027L420 240 360 240 360 233.330027 420 233.330027zM420 213.326667L420 206.656693 360 206.656693 360 213.326667 420 213.326667zM420 193.32336L420 199.993333 360 199.993333 360 193.32336 420 193.32336zM420 180L420 186.670027 360 186.670027 360 180 420 180zM420 226.66L420 219.989973 360 219.989973 360 226.66 420 226.66zM652.333274 720L659 720C659 753.136533 632.136655 780 599 780L599 773.333333C628.456584 773.333333 652.333274 749.456533 652.333274 720zM638.999822 720L645.666548 720C645.666548 745.773333 624.77331 766.666667 599 766.666667L599 760C621.090036 760 638.999822 742.090133 638.999822 720zM632.33363 720L625.666904 720C625.666904 734.7264 613.72669 746.666667 599 746.666667L599 753.333333C617.409964 753.333333 632.33363 738.410133 632.33363 720zM612.333452 720L619.000178 720C619.000178 731.0464 610.046619 740 599 740L599 733.333333C606.363345 733.333333 612.333452 727.3632 612.333452 720zM599 720L605.666726 720C605.666726 723.6832 602.683274 726.666667 599 726.666667L599 720zM246.666726 180L240 180C240 146.863467 266.863345 120 300 120L300 126.666667C270.543416 126.666667 246.666726 150.543467 246.666726 180zM260.000178 180L253.333452 180C253.333452 154.226667 274.22669 133.333333 300 133.333333L300 140C277.909964 140 260.000178 157.909867 260.000178 180zM266.666904 180L273.33363 180C273.33363 165.273067 285.27331 153.333333 300 153.333333L300 146.666667C281.590036 146.666667 266.666904 161.589867 266.666904 180zM286.666548 180L280.000356 180C280.000356 168.953067 288.953381 160 300 160L300 166.666667C292.636655 166.666667 286.666548 172.6368 286.666548 180zM300 180L293.333274 180C293.333274 176.3168 296.316726 173.333333 300 173.333333L300 180z"/>
      <path fill-rule="nonzero" d="M180,600 L180,660 L240,660 C240,626.863467 213.136655,600 180,600 Z" transform="rotate(-180 210 630)"/>
      <path fill-rule="nonzero" d="M599,960 L659,960 L659,900 C625.863345,900 599,926.863467 599,960 Z"/>
      <path d="M246.669929 900L240 900 240 840 246.669929 840 246.669929 900zM266.67331 900L273.343238 900 273.343238 840 266.67331 840 266.67331 900zM286.67669 900L280.006762 900 280.006762 840 286.67669 840 286.67669 900zM300 900L293.330071 900 293.330071 840 300 840 300 900zM253.339858 900L260.009786 900 260.009786 840 253.339858 840 253.339858 900zM66.6699288 780L60 780 60 720 66.6699288 720 66.6699288 780zM86.6733096 780L93.3432384 780 93.3432384 720 86.6733096 720 86.6733096 780zM106.67669 780L100.006762 780 100.006762 720 106.67669 720 106.67669 780zM120 780L113.330071 780 113.330071 720 120 720 120 780zM73.3398577 780L80.0097865 780 80.0097865 720 73.3398577 720 73.3398577 780zM546.669929 480L540 480 540 420 546.669929 420 546.669929 480zM566.67331 480L573.343238 480 573.343238 420 566.67331 420 566.67331 480zM586.67669 480L580.006762 480 580.006762 420 586.67669 420 586.67669 480zM600 480L593.330071 480 593.330071 420 600 420 600 480zM553.339858 480L560.009786 480 560.009786 420 553.339858 420 553.339858 480z"/>
      <path fill-rule="nonzero" d="M604.699429,360 L600,360 L600,355.3 L655.299429,300 L660,300 L660,304.7 L604.699429,360 Z M645.866286,300 L636.433143,300 L600,336.433257 L600,345.866629 L645.866286,300 Z M627,300 L617.566857,300 L600,317.566629 L600,327 L627,300 Z M600,300 L600,308.133326 L608.132571,300 L600,300 Z M660,323.566629 L660,314.133371 L614.132571,360 L623.566857,360 L660,323.566629 Z M660,342.433257 L660,333 L633,360 L642.433143,360 L660,342.433257 Z M660,351.866629 L651.866286,360 L660,360 L660,351.866629 Z"/>
    </g>
    <g transform="matrix(1 0 0 -1 0 1740)">
      <path d="M286.660142,440.010133 L280.006762,440.010133 L280.006762,446.663467 L286.660142,446.663467 L286.660142,453.333333 L280.006762,453.333333 L280.006762,460.0032 L286.660142,460.0032 L286.660142,466.656533 L293.330071,466.656533 L293.330071,473.3264 L286.660142,473.3264 L286.660142,466.673067 L280.006762,466.673067 L280.006762,473.3264 L286.660142,473.3264 L286.660142,480 L279.990214,480 L279.990214,473.330133 L273.336833,473.330133 L273.336833,466.6768 L266.666904,466.6768 L266.666904,473.330133 L259.996975,473.330133 L259.996975,466.6768 L253.343594,466.6768 L253.343594,473.330133 L259.996975,473.330133 L259.996975,480 L253.326512,480 L253.326512,473.330133 L246.673665,473.330133 L246.673665,480 L240,480 L240,473.330133 L246.669929,473.330133 L246.669929,466.6768 L240,466.6768 L240,460.0064 L246.669929,460.0064 L246.669929,453.336533 L240,453.336533 L240,446.666667 L246.669929,446.666667 L246.669929,440.013333 L246.669929,439.9968 L253.32331,439.9968 L253.32331,433.343467 L259.993238,433.343467 L259.993238,439.9968 L266.663167,439.9968 L266.663167,433.343467 L273.33363,433.343467 L273.33363,439.9968 L279.987011,439.9968 L279.987011,433.343467 L286.65694,433.343467 L286.65694,439.9968 L293.326868,439.9968 L293.326868,446.666667 L286.65694,446.666667 L286.65694,440.010133 L286.660142,440.010133 Z M246.669929,439.9936 L246.669929,433.339733 L240,433.339733 L240,440.010133 L246.669929,440.010133 L246.669929,439.9936 Z M266.663167,473.330133 L266.663167,480 L273.33363,480 L273.33363,473.330133 L266.663167,473.330133 Z M286.660142,460.0064 L286.660142,453.336533 L293.330071,453.336533 L293.330071,460.0064 L286.660142,460.0064 Z M253.32331,466.660267 L246.669929,466.660267 L246.669929,460.0064 L253.32331,460.0064 L253.32331,466.660267 Z M253.339858,433.339733 L253.339858,426.669867 L259.993238,426.669867 L259.993238,433.339733 L266.663167,433.339733 L266.663167,426.669867 L273.33363,426.669867 L273.33363,433.339733 L280.003559,433.339733 L280.003559,426.669867 L286.65694,426.669867 L286.65694,433.339733 L293.326868,433.339733 L293.326868,426.669867 L286.65694,426.669867 L286.65694,420 L279.987011,420 L279.987011,426.669867 L273.33363,426.669867 L273.33363,420 L266.663167,420 L266.663167,426.669867 L259.993238,426.669867 L259.993238,420 L253.32331,420 L253.32331,426.669867 L246.669929,426.669867 L246.669929,420 L240,420 L240,426.669867 L246.669929,426.669867 L246.669929,433.339733 L253.339858,433.339733 Z M279.987011,446.663467 L279.987011,453.333333 L273.33363,453.333333 L273.33363,446.663467 L279.987011,446.663467 Z M266.663167,446.663467 L266.663167,440.010133 L273.33363,440.010133 L273.33363,446.663467 L266.663167,446.663467 Z M259.993238,446.663467 L266.663167,446.663467 L266.663167,453.333333 L259.993238,453.333333 L259.993238,446.663467 Z M259.993238,446.663467 L253.339858,446.663467 L253.339858,440.010133 L259.993238,440.010133 L259.993238,446.663467 Z M259.993238,460.0064 L253.339858,460.0064 L253.339858,453.336533 L259.993238,453.336533 L259.993238,460.0064 Z M266.663167,460.0064 L266.663167,466.660267 L259.993238,466.660267 L259.993238,460.0064 L266.663167,460.0064 Z M273.336833,460.0064 L266.666904,460.0064 L266.666904,453.336533 L273.336833,453.336533 L273.336833,460.0064 Z M273.336833,460.0064 L279.990214,460.0064 L279.990214,466.660267 L273.336833,466.660267 L273.336833,460.0064 Z M253.32331,453.336533 L253.32331,446.666667 L246.669929,446.666667 L246.669929,453.336533 L253.32331,453.336533 Z M300,473.330133 L293.330071,473.330133 L293.330071,480 L300,480 L300,473.330133 Z M293.330071,460.0064 L300,460.0064 L300,466.6768 L293.330071,466.6768 L293.330071,460.0064 Z M300,446.663467 L293.330071,446.663467 L293.330071,453.333333 L300,453.333333 L300,446.663467 Z M293.330071,433.339733 L300,433.339733 L300,440.010133 L293.330071,440.010133 L293.330071,433.339733 Z M293.330071,420 L300,420 L300,426.669867 L293.330071,426.669867 L293.330071,420 Z" transform="matrix(-1 0 0 1 540 0)"/>
      <path d="M60,246.669867 L60,240 L0,240 L0,246.669867 L60,246.669867 Z M60,253.333333 L60,260 L0,260 L0,253.333333 L60,253.333333 Z M60,266.666667 L60,273.333333 L0,273.333333 L0,266.666667 L60,266.666667 Z M60,286.666667 L60,280 L0,280 L0,286.666667 L60,286.666667 Z M60,293.333333 L60,300 L0,300 L0,293.333333 L60,293.333333 Z" transform="matrix(-1 0 0 1 60 0)"/>
      <path d="M600,666.669867 L600,660 L540,660 L540,666.669867 L600,666.669867 Z M600,673.333333 L600,680 L540,680 L540,673.333333 L600,673.333333 Z M600,686.666667 L600,693.333333 L540,693.333333 L540,686.666667 L600,686.666667 Z M600,706.666667 L600,700 L540,700 L540,706.666667 L600,706.666667 Z M600,713.333333 L600,720 L540,720 L540,713.333333 L600,713.333333 Z" transform="matrix(-1 0 0 1 1140 0)"/>
      <path d="M420,53.3300267 L420,60 L360,60 L360,53.3300267 L420,53.3300267 Z M420,33.3266667 L420,26.6566933 L360,26.6566933 L360,33.3266667 L420,33.3266667 Z M420,13.32336 L420,19.9933333 L360,19.9933333 L360,13.32336 L420,13.32336 Z M420,0 L420,6.67002667 L360,6.67002667 L360,0 L420,0 Z M420,46.66 L420,39.9899733 L360,39.9899733 L360,46.66 L420,46.66 Z" transform="matrix(-1 0 0 1 780 0)"/>
      <path d="M652.333274,540 L659,540 C659,573.136533 632.136655,600 599,600 L599,593.333333 C628.456584,593.333333 652.333274,569.456533 652.333274,540 Z M638.999822,540 L645.666548,540 C645.666548,565.773333 624.77331,586.666667 599,586.666667 L599,580 C621.090036,580 638.999822,562.090133 638.999822,540 Z M632.33363,540 L625.666904,540 C625.666904,554.7264 613.72669,566.666667 599,566.666667 L599,573.333333 C617.409964,573.333333 632.33363,558.410133 632.33363,540 Z M612.333452,540 L619.000178,540 C619.000178,551.0464 610.046619,560 599,560 L599,553.333333 C606.363345,553.333333 612.333452,547.3632 612.333452,540 Z M599,540 L605.666726,540 C605.666726,543.6832 602.683274,546.666667 599,546.666667 L599,540 Z" transform="matrix(-1 0 0 1 1258 0)"/>
      <path d="M426.666726,600 L420,600 C420,566.863467 446.863345,540 480,540 L480,546.666667 C450.543416,546.666667 426.666726,570.543467 426.666726,600 Z M440.000178,600 L433.333452,600 C433.333452,574.226667 454.22669,553.333333 480,553.333333 L480,560 C457.909964,560 440.000178,577.909867 440.000178,600 Z M446.666904,600 L453.33363,600 C453.33363,585.273067 465.27331,573.333333 480,573.333333 L480,566.666667 C461.590036,566.666667 446.666904,581.589867 446.666904,600 Z M466.666548,600 L460.000356,600 C460.000356,588.953067 468.953381,580 480,580 L480,586.666667 C472.636655,586.666667 466.666548,592.6368 466.666548,600 Z M480,600 L473.333274,600 C473.333274,596.3168 476.316726,593.333333 480,593.333333 L480,600 Z" transform="matrix(-1 0 0 1 900 0)"/>
      <path fill-rule="nonzero" d="M420,840 L480,840 L480,780 C446.863345,780 420,806.863467 420,840 Z" transform="matrix(1 0 0 -1 0 1620)"/>
      <path d="M546.669929,180 L540,180 L540,120 L546.669929,120 L546.669929,180 Z M566.67331,180 L573.343238,180 L573.343238,120 L566.67331,120 L566.67331,180 Z M586.67669,180 L580.006762,180 L580.006762,120 L586.67669,120 L586.67669,180 Z M600,180 L593.330071,180 L593.330071,120 L600,120 L600,180 Z M553.339858,180 L560.009786,180 L560.009786,120 L553.339858,120 L553.339858,180 Z" transform="matrix(-1 0 0 1 1140 0)"/>
      <path fill-rule="nonzero" d="M484.699429,120 L480,120 L480,115.3 L535.299429,60 L540,60 L540,64.7 L484.699429,120 Z M525.866286,60 L516.433143,60 L480,96.4332571 L480,105.866629 L525.866286,60 Z M507,60 L497.566857,60 L480,77.5666286 L480,87 L507,60 Z M480,60 L480,68.1333257 L488.132571,60 L480,60 Z M540,83.5666286 L540,74.1333714 L494.132571,120 L503.566857,120 L540,83.5666286 Z M540,102.433257 L540,93 L513,120 L522.433143,120 L540,102.433257 Z M540,111.866629 L531.866286,120 L540,120 L540,111.866629 Z" transform="matrix(-1 0 0 1 1020 0)"/>
    </g>
    <g transform="matrix(1 0 0 -1 0 2760)">
      <path d="M60,546.669867 L60,540 L2.13162821e-14,540 L2.13162821e-14,546.669867 L60,546.669867 Z M60,553.333333 L60,560 L2.13162821e-14,560 L2.13162821e-14,553.333333 L60,553.333333 Z M60,566.666667 L60,573.333333 L2.13162821e-14,573.333333 L2.13162821e-14,566.666667 L60,566.666667 Z M60,586.666667 L60,580 L2.13162821e-14,580 L2.13162821e-14,586.666667 L60,586.666667 Z M60,593.333333 L60,600 L2.13162821e-14,600 L2.13162821e-14,593.333333 L60,593.333333 Z" transform="matrix(-1 0 0 1 60 0)"/>
      <path d="M600,726.669867 L600,720 L540,720 L540,726.669867 L600,726.669867 Z M600,733.333333 L600,740 L540,740 L540,733.333333 L600,733.333333 Z M600,746.666667 L600,753.333333 L540,753.333333 L540,746.666667 L600,746.666667 Z M600,766.666667 L600,760 L540,760 L540,766.666667 L600,766.666667 Z M600,773.333333 L600,780 L540,780 L540,773.333333 L600,773.333333 Z" transform="matrix(-1 0 0 1 1140 0)"/>
      <path d="M420,113.330027 L420,120 L360,120 L360,113.330027 L420,113.330027 Z M420,93.3266667 L420,86.6566933 L360,86.6566933 L360,93.3266667 L420,93.3266667 Z M420,73.32336 L420,79.9933333 L360,79.9933333 L360,73.32336 L420,73.32336 Z M420,60 L420,66.6700267 L360,66.6700267 L360,60 L420,60 Z M420,106.66 L420,99.9899733 L360,99.9899733 L360,106.66 L420,106.66 Z" transform="matrix(-1 0 0 1 780 0)"/>
      <path d="M652.333274,600 L659,600 C659,633.136533 632.136655,660 599,660 L599,653.333333 C628.456584,653.333333 652.333274,629.456533 652.333274,600 Z M638.999822,600 L645.666548,600 C645.666548,625.773333 624.77331,646.666667 599,646.666667 L599,640 C621.090036,640 638.999822,622.090133 638.999822,600 Z M632.33363,600 L625.666904,600 C625.666904,614.7264 613.72669,626.666667 599,626.666667 L599,633.333333 C617.409964,633.333333 632.33363,618.410133 632.33363,600 Z M612.333452,600 L619.000178,600 C619.000178,611.0464 610.046619,620 599,620 L599,613.333333 C606.363345,613.333333 612.333452,607.3632 612.333452,600 Z M599,600 L605.666726,600 C605.666726,603.6832 602.683274,606.666667 599,606.666667 L599,600 Z" transform="matrix(-1 0 0 1 1258 0)"/>
      <path d="M246.666726,60 L240,60 C240,26.8634667 266.863345,0 300,0 L300,6.66666667 C270.543416,6.66666667 246.666726,30.5434667 246.666726,60 Z M260.000178,60 L253.333452,60 C253.333452,34.2266667 274.22669,13.3333333 300,13.3333333 L300,20 C277.909964,20 260.000178,37.9098667 260.000178,60 Z M266.666904,60 L273.33363,60 C273.33363,45.2730667 285.27331,33.3333333 300,33.3333333 L300,26.6666667 C281.590036,26.6666667 266.666904,41.5898667 266.666904,60 Z M286.666548,60 L280.000356,60 C280.000356,48.9530667 288.953381,40 300,40 L300,46.6666667 C292.636655,46.6666667 286.666548,52.6368 286.666548,60 Z M300,60 L293.333274,60 C293.333274,56.3168 296.316726,53.3333333 300,53.3333333 L300,60 Z" transform="matrix(-1 0 0 1 540 0)"/>
      <path d="M426.669929,1380 L420,1380 L420,1320 L426.669929,1320 L426.669929,1380 Z M446.67331,1380 L453.343238,1380 L453.343238,1320 L446.67331,1320 L446.67331,1380 Z M466.67669,1380 L460.006762,1380 L460.006762,1320 L466.67669,1320 L466.67669,1380 Z M480,1380 L473.330071,1380 L473.330071,1320 L480,1320 L480,1380 Z M433.339858,1380 L440.009786,1380 L440.009786,1320 L433.339858,1320 L433.339858,1380 Z" transform="matrix(-1 0 0 1 900 0)"/>
      <path fill-rule="nonzero" d="M604.699429,240 L600,240 L600,235.3 L655.299429,180 L660,180 L660,184.7 L604.699429,240 Z M645.866286,180 L636.433143,180 L600,216.433257 L600,225.866629 L645.866286,180 Z M627,180 L617.566857,180 L600,197.566629 L600,207 L627,180 Z M600,180 L600,188.133326 L608.132571,180 L600,180 Z M660,203.566629 L660,194.133371 L614.132571,240 L623.566857,240 L660,203.566629 Z M660,222.433257 L660,213 L633,240 L642.433143,240 L660,222.433257 Z M660,231.866629 L651.866286,240 L660,240 L660,231.866629 Z" transform="matrix(-1 0 0 1 1260 0)"/>
    </g>
  </g>
</svg>
