<svg xmlns="http://www.w3.org/2000/svg" xmlns:xlink="http://www.w3.org/1999/xlink" viewBox="0 0 667.69 624.93"><defs><style>.cls-1,.cls-2,.cls-5,.cls-6{fill:none;}.cls-2,.cls-3,.cls-4,.cls-5,.cls-6,.cls-7{stroke:#4038ff;stroke-miterlimit:10;}.cls-2,.cls-3,.cls-4,.cls-6,.cls-7{stroke-linecap:square;}.cls-2{stroke-width:2px;}.cls-3,.cls-4,.cls-5,.cls-6,.cls-7{stroke-width:12px;}.cls-3{fill:url(#lines);}.cls-4{fill:url(#lines-3);}.cls-7{fill:#fff;}</style><pattern id="lines" data-name="lines" width="16" height="16" patternTransform="matrix(1.07, -0.32, 0.32, 1.07, -11.63, 53.41)" patternUnits="userSpaceOnUse" viewBox="0 0 16 16"><rect class="cls-1" width="16" height="16"/><line class="cls-2" x1="1.98" y1="78.02" x2="67.98" y2="12.02"/><line class="cls-2" x1="-14.02" y1="78.02" x2="51.98" y2="12.02"/><line class="cls-2" x1="-30.02" y1="78.02" x2="35.98" y2="12.02"/><line class="cls-2" x1="-46.02" y1="78.02" x2="19.98" y2="12.02"/><line class="cls-2" x1="-62.02" y1="78.02" x2="3.98" y2="12.02"/><line class="cls-2" x1="1.98" y1="62.02" x2="67.98" y2="-3.98"/><line class="cls-2" x1="-14.02" y1="62.02" x2="51.98" y2="-3.98"/><line class="cls-2" x1="-30.02" y1="62.02" x2="35.98" y2="-3.98"/><line class="cls-2" x1="-46.02" y1="62.02" x2="19.98" y2="-3.98"/><line class="cls-2" x1="-62.02" y1="62.02" x2="3.98" y2="-3.98"/><line class="cls-2" x1="1.98" y1="46.02" x2="67.98" y2="-19.98"/><line class="cls-2" x1="-14.02" y1="46.02" x2="51.98" y2="-19.98"/><line class="cls-2" x1="-30.02" y1="46.02" x2="35.98" y2="-19.98"/><line class="cls-2" x1="-46.02" y1="46.02" x2="19.98" y2="-19.98"/><line class="cls-2" x1="-62.02" y1="46.02" x2="3.98" y2="-19.98"/><line class="cls-2" x1="1.98" y1="30.02" x2="67.98" y2="-35.98"/><line class="cls-2" x1="-14.02" y1="30.02" x2="51.98" y2="-35.98"/><line class="cls-2" x1="-30.02" y1="30.02" x2="35.98" y2="-35.98"/><line class="cls-2" x1="-46.02" y1="30.02" x2="19.98" y2="-35.98"/><line class="cls-2" x1="-62.02" y1="30.02" x2="3.98" y2="-35.98"/><line class="cls-2" x1="1.98" y1="14.02" x2="67.98" y2="-51.98"/><line class="cls-2" x1="-14.02" y1="14.02" x2="51.98" y2="-51.98"/><line class="cls-2" x1="-30.02" y1="14.02" x2="35.98" y2="-51.98"/><line class="cls-2" x1="-46.02" y1="14.02" x2="19.98" y2="-51.98"/><line class="cls-2" x1="-62.02" y1="14.02" x2="3.98" y2="-51.98"/></pattern><pattern id="lines-3" data-name="lines" width="16" height="16" patternTransform="translate(-39.71 136.09) rotate(-59.14) scale(1.12)" patternUnits="userSpaceOnUse" viewBox="0 0 16 16"><rect class="cls-1" width="16" height="16"/><line class="cls-2" x1="1.98" y1="78.02" x2="67.98" y2="12.02"/><line class="cls-2" x1="-14.02" y1="78.02" x2="51.98" y2="12.02"/><line class="cls-2" x1="-30.02" y1="78.02" x2="35.98" y2="12.02"/><line class="cls-2" x1="-46.02" y1="78.02" x2="19.98" y2="12.02"/><line class="cls-2" x1="-62.02" y1="78.02" x2="3.98" y2="12.02"/><line class="cls-2" x1="1.98" y1="62.02" x2="67.98" y2="-3.98"/><line class="cls-2" x1="-14.02" y1="62.02" x2="51.98" y2="-3.98"/><line class="cls-2" x1="-30.02" y1="62.02" x2="35.98" y2="-3.98"/><line class="cls-2" x1="-46.02" y1="62.02" x2="19.98" y2="-3.98"/><line class="cls-2" x1="-62.02" y1="62.02" x2="3.98" y2="-3.98"/><line class="cls-2" x1="1.98" y1="46.02" x2="67.98" y2="-19.98"/><line class="cls-2" x1="-14.02" y1="46.02" x2="51.98" y2="-19.98"/><line class="cls-2" x1="-30.02" y1="46.02" x2="35.98" y2="-19.98"/><line class="cls-2" x1="-46.02" y1="46.02" x2="19.98" y2="-19.98"/><line class="cls-2" x1="-62.02" y1="46.02" x2="3.98" y2="-19.98"/><line class="cls-2" x1="1.98" y1="30.02" x2="67.98" y2="-35.98"/><line class="cls-2" x1="-14.02" y1="30.02" x2="51.98" y2="-35.98"/><line class="cls-2" x1="-30.02" y1="30.02" x2="35.98" y2="-35.98"/><line class="cls-2" x1="-46.02" y1="30.02" x2="19.98" y2="-35.98"/><line class="cls-2" x1="-62.02" y1="30.02" x2="3.98" y2="-35.98"/><line class="cls-2" x1="1.98" y1="14.02" x2="67.98" y2="-51.98"/><line class="cls-2" x1="-14.02" y1="14.02" x2="51.98" y2="-51.98"/><line class="cls-2" x1="-30.02" y1="14.02" x2="35.98" y2="-51.98"/><line class="cls-2" x1="-46.02" y1="14.02" x2="19.98" y2="-51.98"/><line class="cls-2" x1="-62.02" y1="14.02" x2="3.98" y2="-51.98"/></pattern></defs><g id="Warstwa_2" data-name="Warstwa 2"><g id="No_Search" data-name="No Search"><path class="cls-3" d="M286.9,532.65l-46-3.43-39.11,14.71q-8.94-14.43-17.87-28.85l9.39-41.61-48.59-53.89-41-12.68-32.66,5L46,356A157.87,157.87,0,1,0,299.53,541.81Z"/><path class="cls-4" d="M224.05,342.09a157.16,157.16,0,0,0-44.62,74.12L226.79,455l27-19.1,42.36-7,67.56,26.51q5.08,20.71,10.18,41.42l28.88,17.83,28.42-30.63,42.71-17.51,15.4,2.56a157.86,157.86,0,0,0-265.22-127Z"/><path class="cls-5" d="M495.88,276.21l132.46,63.54-27,56.37L468.84,332.57"/><path class="cls-5" d="M628.34,339.75l15.25,7.31a31.89,31.89,0,0,1,15,42.54l.54-1.13a31.89,31.89,0,0,1-42.54,15l-15.25-7.31Z"/><circle class="cls-6" cx="311.63" cy="204.98" r="157.87"/><path class="cls-7" d="M245.65,17.32C142,53.76,87.53,167.33,124,271S274,429.09,377.62,392.65,535.74,242.64,499.3,139,349.29-19.13,245.65,17.32ZM364,353.91a157.87,157.87,0,1,1,96.57-201.3A157.86,157.86,0,0,1,364,353.91Z"/><path class="cls-7" d="M130.9,121.9h0l0,.14Z"/><path class="cls-7" d="M494.44,283.4l.1-.2h0Z"/><path class="cls-7" d="M377.62,392.65C274,429.09,160.41,374.61,124,271a198.13,198.13,0,0,1,2.57-138.87l-18.9,44.21a198.05,198.05,0,0,0,1.68,127C145.76,407,259.33,461.46,363,425a198.14,198.14,0,0,0,106.76-89q9.45-20.12,18.91-40.24A198.26,198.26,0,0,1,377.62,392.65Z"/><path class="cls-7" d="M248.94,81.89A156.45,156.45,0,0,1,446.4,286.79q7.43-17.39,14.86-34.77A156.45,156.45,0,0,0,176.5,126.44q-7.42,15.83-14.87,31.65A156,156,0,0,1,248.94,81.89Z"/></g></g></svg>