<?xml version="1.0" encoding="UTF-8"?>
<svg width="282px" height="258px" viewBox="0 0 282 258" version="1.1" xmlns="http://www.w3.org/2000/svg" xmlns:xlink="http://www.w3.org/1999/xlink">
    <!-- Generator: Sketch 63.1 (92452) - https://sketch.com -->
    <title>council member</title>
    <desc>Created with Sketch.</desc>
    <g id="Illustrations" stroke="none" stroke-width="1" fill="none" fill-rule="evenodd">
        <g id="Other" transform="translate(-115.000000, -2277.000000)">
            <g id="council-member" transform="translate(115.000000, 2277.000000)" fill-rule="nonzero">
                <path d="M82.2122868,236.986363 C86.4590703,236.895569 90.6641546,236.12121 94.6683974,234.692592 L94.6683974,234.692592 C94.9913335,234.599601 95.2988918,234.475614 95.6064501,234.367124 C97.1442415,235.204041 98.5743876,236.040958 100.096801,236.846877 C102.38811,238.086754 104.264216,239.791584 106.586281,240.984965 C107.878026,241.651398 109.53884,242.674296 110.968986,241.372426 C111.599481,240.783485 111.522591,239.82258 112.153086,239.295633 C116.981751,234.646097 117.458466,235.808481 120.395648,231.251935 C120.703206,230.786981 120.933875,224.200138 120.995386,223.688689 C121.043856,222.93216 120.707956,222.202564 120.103467,221.751382 C118.442653,220.403017 115.936053,220.031054 113.952302,218.992657 L113.767767,218.899667 C116.046147,214.093301 115.489307,208.409608 112.322243,204.145138 C108.919993,199.392877 104.388577,195.577328 99.1433704,193.048244 C97.2738119,192.121925 95.251426,191.549328 93.1767397,191.358913 C90.9895323,188.018612 88.2481165,185.082698 85.0725789,182.679778 C83.1528837,181.089154 80.860158,180.021858 78.413942,179.580087 C76.5550491,175.549622 73.7720162,172.022313 70.2944033,169.289113 C68.900618,168.105164 67.2920763,167.20511 65.5580058,166.638877 C64.4062946,163.322776 62.665915,160.245361 60.4217824,157.556783 C58.8946447,155.586085 56.8865461,154.048181 54.5935529,153.093228 C53.9307632,150.661506 52.8929081,148.349867 51.5179701,146.242911 C49.6023392,144.603655 47.8697736,142.758768 46.3509909,140.740959 L46.1357001,140.570476 L46.1357001,140.307003 C43.7216508,136.966831 41.9435922,133.204165 40.8918314,129.210109 C38.4598424,126.404188 34.8974626,124.859788 31.2037454,125.010028 C27.1969089,125.172346 23.3793775,126.771788 20.4392055,129.520078 L18.2247858,131.41089 L18.0402509,132.123819 C16.4985374,131.663857 14.8960713,131.444339 13.2884754,131.472883 C12.3181072,131.485724 11.3507229,131.584258 10.3974275,131.767354 L9.69004344,131.860345 L8.98265939,132.092822 C2.20099922,134.293602 -1.30516522,139.687064 0.447917001,145.25101 C1.44044149,148.736818 3.1134441,151.987861 5.36884955,154.813556 C5.76026105,155.279834 6.17605455,155.724755 6.6144606,156.146423 C6.42553229,157.554803 6.56775921,158.98822 7.02966428,160.331006 C8.13098564,163.904243 10.0061195,167.186304 12.5195797,169.940048 C13.0270508,170.466996 13.534522,170.962946 14.0573711,171.489894 C13.7816717,173.379398 14.0988956,175.308499 14.964668,177.007343 C17.1563819,181.535178 20.4528385,185.428077 24.5451086,188.321215 C24.5243366,190.355522 25.1257005,192.34692 26.267435,194.024647 C28.9898221,198.22663 32.6838121,201.699607 37.0319749,204.145138 C37.1249479,206.638381 38.1525956,209.003328 39.9076449,210.762978 L40.061424,210.933461 C41.1575985,212.232213 42.3558271,213.439834 43.644478,214.544601 C46.1137302,216.614181 48.8376012,218.354037 51.7486388,219.721085 C52.0368813,221.974499 53.0591388,224.067747 54.6550646,225.672491 C57.2297339,228.297766 60.1852717,230.513505 63.4204757,232.243836 C69.1729319,235.433704 75.6470868,237.0676 82.2122868,236.986363 Z" id="Path" fill="#040404"></path>
                <path d="M36.4152763,144.999859 C34.6014414,144.76452 35.0710951,146.255001 34.3099322,146.835505 C32.1721983,148.514257 30.2449987,148.404432 29.7105652,146.333448 C28.3501891,141.281501 25.9857257,136.323689 27.4756615,130.863821 C30.5850927,128.29078 31.8159093,128.369226 33.6945239,131.177607 C35.0667443,133.63162 36.1530809,136.225827 36.9335148,138.91242 C37.3383886,140.983404 35.7350882,143.02301 36.3828863,145.093995 L36.4152763,144.999859 Z" id="Path" fill="#FFFFFF"></path>
                <path d="M23.851421,142.078688 C25.0848546,141.646977 25.393213,143.096291 25.8865864,143.882621 C28.6155583,148.50809 31.1132613,153.13356 34.0426662,157.759029 C42.3192686,170.355109 51.9173867,182.031247 62.6737439,192.588815 C68.2241951,198.062287 74.622632,202.811102 80.4351879,208.007046 C80.7281283,208.253738 81.0673226,208.623776 81.6686215,208.361666 C86.6429293,212.805698 92.0988359,216.679211 97.9345272,219.909921 C99.3992296,220.757924 100.0622,222.839385 102.636993,222.299747 C102.636993,223.84157 104.548815,224.180771 105.628069,224.782083 C108.387877,226.323906 111.193939,227.865729 114,229.407552 C113.278268,230.563409 112.629451,231.763229 112.057342,233 C107.853389,230.748938 103.741944,228.384809 99.723006,225.907613 C82.1833148,215.126858 66.2885683,201.87491 52.5287524,186.560286 C42.0286434,174.772364 32.8850871,161.842866 25.2698696,148.014707 C24.6965609,146.998417 24.2215897,145.92971 23.851421,144.823133 C23.5276446,143.867203 22.109196,142.679999 23.851421,142.078688 Z" id="Path" fill="#C4C3C6"></path>
                <path d="M97.4941611,228.643468 C99.7971314,229.656239 98.0543431,229.943443 96.8872973,230.336458 C89.0726028,233.120326 80.3881618,232.383604 73.1884874,228.326032 C70.5326059,226.972404 68.1077228,225.228652 65.9994853,223.156363 C64.1477726,221.297096 64.9102426,219.51341 67.9445616,218.742494 C70.9772989,217.84892 74.2009725,217.760193 77.280928,218.485522 C84.6153728,220.48284 91.6585817,223.378102 98.2410704,227.101637 C99.7971314,228.023712 98.614525,227.978364 97.7586915,228.174872 C96.8071624,227.514781 95.5445595,227.461454 94.5376451,228.038828 L97.4941611,228.643468 Z" id="Path" fill="#C4C3C6"></path>
                <path d="M103.133208,222.323459 C100.332001,219.248275 97.4230558,216.280723 94.744979,213.097907 C92.7298182,211.028008 91.4208259,208.37496 91.0049061,205.517578 C90.916681,203.745559 92.0260129,202.133592 93.7137655,201.581342 C95.2812259,200.769627 97.1543506,200.810181 98.685138,201.688974 C102.967446,203.755474 106.6694,206.851453 109.45901,210.699263 C112.121696,214.358733 111.30596,218.986885 107.22728,223 L103.918162,218.863877 C104.780072,222.123573 104.780072,222.123573 103.040861,222.1697 L103.133208,222.323459 Z" id="Path" fill="#FFFFFF"></path>
                <path d="M74.602483,215.345047 C65.3330187,217.297367 58.2825603,214.704209 52.2550478,209.96499 C51.2104415,209.139714 50.2465434,208.226923 49.3750614,207.237703 C48.5094918,206.298801 47.3134318,205.330092 48.4937541,203.988804 C49.5366454,202.756109 51.1066021,202.029148 52.7743896,202.006677 C55.073448,201.944718 57.3627075,202.314473 59.5100954,203.094611 C65.5376079,205.076738 70.5264367,208.221314 75.75133,211.187053 C77.2149297,212.036535 76.9788652,213.184082 76.9946029,214.167694 C77.0103405,215.151306 75.326414,214.927757 74.602483,215.345047 Z" id="Path" fill="#C4C3C6"></path>
                <path d="M59.2181169,199.355112 C50.2093424,201.304646 44.1001218,198.65328 39.1383183,193.834032 C37.8029339,192.52581 36.6171411,191.071524 35.6030333,189.498269 C34.0524697,187.127636 35.6030333,185.209295 38.983262,185.006543 C41.1009407,184.937148 43.2003755,185.420745 45.0769769,186.410207 C50.3279643,189.102505 55.2199263,192.450999 59.6367691,196.376224 C61.4819398,197.935851 61.559468,198.980801 59.2181169,199.355112 Z" id="Path" fill="#C4C3C6"></path>
                <path d="M82.3583058,208.74375 C81.2703442,205.603125 78.7665421,203.310469 77.156955,200.49961 C75.7709217,198.081329 74.1762382,195.788673 74.0272024,192.883595 C73.9228773,191.313282 74.0272024,189.617345 76.0242826,188.690861 C77.8256289,187.606516 80.0763702,187.813004 81.672741,189.209064 C85.0558545,192.161251 88.334643,195.144845 89.5716405,199.384688 C90.6446985,203.090625 89.7802906,206.4825 86.0842018,210 C86.1885269,207.079219 81.4640908,205.744453 84.9366258,202.493907 C82.2986915,203.122032 82.2837879,203.137735 82.924642,204.802266 C83.2674244,205.697344 83.6847248,206.561016 84.0871216,207.440391 C85.1005653,209.654531 83.282328,208.728047 82.2688843,208.696641 L82.3583058,208.74375 Z" id="Path" fill="#FFFFFF"></path>
                <path d="M24.3210571,172.547647 C23.2548207,170.3945 25.0118581,169.557166 27.1293135,169.108594 C28.9366947,168.794313 30.7966947,169.167905 32.340356,170.155262 C36.9865352,173.094657 41.3013732,176.523564 45.2102796,180.382707 C45.9349028,181.064849 46.1879852,182.107957 45.8560284,183.044235 C45.660802,183.94138 44.2341477,183.761951 43.3331029,183.866618 C33.8120626,184.958143 27.6999752,179.186515 24.3210571,172.547647 Z" id="Path" fill="#C4C3C6"></path>
                <path d="M66.9344499,194 C64.262643,190.448834 61.9816903,186.609956 60.1325403,182.552283 C59.2390658,180.635577 58.8634126,178.511148 59.0442347,176.397597 C59.1556569,174.827983 60.2802453,173.525956 61.7952293,173.212546 C63.1802368,172.733782 64.7118513,173.077616 65.7705676,174.104976 C68.57025,176.306302 70.8010784,179.168664 72.2701701,182.444576 C73.67803,185.798045 73.0146601,189.680901 70.5772503,192.353621 C69.8063673,193.322984 69.156407,195.261711 67.9471786,192.676742 C67.750679,192.353621 67.4786026,192.461328 66.9344499,194 Z M62.7021506,178.120909 C63.231188,184.706423 63.231188,184.706423 66.5414506,188.229981 C64.1985707,184.906451 64.3799549,181.613693 62.7021506,178.120909 Z" id="Shape" fill="#FFFFFF"></path>
                <path d="M54.5277379,179 C52.4785612,175.89383 53.4628114,172.197487 50.3809788,169.68149 C51.8298406,172.295009 52.6202079,175.199735 52.6883195,178.161334 C48.9610769,173.284647 46.1212731,168.112874 46.0244616,162.149027 C45.7936673,160.185844 47.2209676,158.399857 49.2515114,158.111006 C51.1198983,157.686968 53.0543452,158.503961 53.9952746,160.114486 C57.5450295,164.401001 60.1750751,168.873885 58.4647387,174.418399 C57.6922377,176.309877 56.3130595,177.914866 54.5277379,179 L54.5277379,179 Z M51.300688,168.019689 L49.8001099,163.671051 C49.1224294,165.130951 49.7678394,166.684036 51.3168233,168.019689 L51.300688,168.019689 Z" id="Shape" fill="#FFFFFF"></path>
                <path d="M16.9341379,152.055238 C18.2415703,151.888605 19.5698904,152.100881 20.757205,152.666195 C26.4995447,155.415499 29.8273157,159.967125 33.5729928,164.167451 C34.486195,165.190803 34.0218549,166.794564 31.3286821,166.947303 C26.8010442,167.331897 22.3532763,165.59548 19.3177506,162.258212 C17.3941172,160.159932 15.9667314,157.666251 15.1386894,154.957282 C14.6743492,153.490986 15.4018154,152.589825 16.9341379,152.055238 Z" id="Path" fill="#C4C3C6"></path>
                <path d="M35.4352496,146.014845 C38.8850059,144.08243 40.9000505,145.086677 42.5926879,147.536432 C45.0591025,151.157808 46.9774249,154.7944 45.4621114,159.207002 C44.8695653,160.658396 44.0070019,161.998164 42.915095,163.163127 C42.4287719,163.521876 41.8844731,163.804443 41.3030594,164 C41.3030594,162.797946 38.8850059,163.467445 38.9978484,162.478413 C39.5298202,157.913653 35.1612036,154.733537 35,150.30572 C35,148.784133 35.9672214,147.353841 35.45137,145.893118 L35.4352496,146.014845 Z" id="Path" fill="#FFFFFF"></path>
                <path d="M10.0036314,137.058956 C11.4899051,136.837421 13.0030897,137.246508 14.1510662,138.180208 C18.2533566,141.239696 21.7699448,144.962074 24.5433078,149.180601 C25.5841089,150.695806 24.8902415,152.044339 22.0043838,151.998883 C18.1041748,152.005012 14.424311,150.26236 12.0536942,147.286594 C10.2468609,145.076405 8.91726536,142.541972 8.1428051,139.831782 C7.68548339,138.422641 8.33204167,137.634734 10.0036314,137.058956 Z" id="Path" fill="#C4C3C6"></path>
                <path d="M41.0673724,170.068146 C41.4365016,163.348816 50.0341359,162.468352 50.0341359,162.468352 C50.0341359,162.468352 70.6438494,156.660379 73.1047107,156.660379 C86.0857541,156.660379 84.4092924,133.490275 74.842694,118.954897 C56.3862341,100.094432 58.8163347,65.354723 70.5361867,49.7226261 C76.7960027,41.365942 85.8089072,36.2530723 95.5293094,33.4263197 C108.574222,8.00877672 137.303832,-5.07082508 164.935234,1.82819234 C192.566637,8.72720976 211.853125,33.7954862 211.52816,62.3889496 C211.539289,69.726563 210.269115,77.0092942 207.775346,83.9062529 C217.387839,99.0931081 216.821293,118.628461 206.344971,133.227681 L183.85885,147.963867 C185.258465,148.118334 211.881909,156.583146 213.235382,157.031101 C217.357325,158.405861 230,162.468352 230,162.468352 C230,162.468352 226.062622,173.574555 224.555344,178.857339 C213.789076,216.531928 193.410068,244.289713 159.850072,253.650435 C149.388141,256.66745 138.542736,258.129804 127.65893,257.990968 C102.260133,257.632005 78.4559332,245.49036 63.1843635,225.104867 C51.6644565,209.627237 40.006126,189.268439 41.0673724,170.068146 Z" id="Path" fill="#000000"></path>
                <path d="M195.66095,37 L196,36.4171026 C195.189257,35.7460457 194.572287,34.8725578 194.212279,33.8861006 C193.493803,33.465953 193.006148,32.7435307 192.8869,31.9226567 C177.876212,14.3743764 161.000746,8.25395345 142.769078,10.4168097 C139.611833,10.8073147 136.59997,11.9663923 134,13.791479 C149.596321,11.4292105 164.021377,16.399178 177.8608,28.6707026 C183.994531,30.4500737 190.09744,32.3828388 195.66095,37 Z" id="Path" fill="#C4C3C6"></path>
                <path d="M79.8768263,106 L79.1410777,106 C78.9904549,104.964412 78.5353782,103.991899 77.8295259,103.197172 C77.8485699,102.366588 77.4641116,101.574991 76.7898812,101.056551 C69.2404611,79.4963393 73.3350618,62.9873769 85.826793,49.9742489 C88.0715432,47.678608 90.883262,45.9673838 94,45 C82.8038261,55.780106 79.1250832,69.8866448 82.4359518,87.5044181 C80.5645913,93.2486746 78.821187,99.085332 79.8768263,106 Z" id="Path" fill="#C4C3C6"></path>
                <path d="M196.206637,186.607638 C193.707202,176.842197 195.527778,166.55223 190.143193,156 C188.39976,169.884513 185.823182,182.396002 180.793454,194.259547 C169.191139,221.65832 143.363644,236.807866 115.993289,232.272259 C112.689693,231.661512 109.47941,230.624356 106.442979,229.186811 C143.240216,223.571297 170.101427,207.295562 180.73174,169.020588 C141.851641,209.702211 101.212679,206.431637 59,178.847738 C62.4714375,193.025368 76.1257581,201.818893 109.297272,211.460916 C100.240677,217.014722 93.8686606,215.950242 61.9777219,203.500462 C87.7589307,247.267533 130.542469,265.055137 175.146583,235.265143 C201.652936,217.554675 209.8301,190.109621 207.670095,160.211636 C207.592952,159.085447 207.407808,157.388451 205.648947,157.373024 C203.396369,157.373024 203.226655,159.270574 203.16494,160.720734 C202.810846,169.761452 200.433035,178.607596 196.206637,186.607638 Z" id="Path" fill="#C4C3C6"></path>
                <path d="M130,232.766452 C151.885176,230.983165 171.141037,216.670345 180.730302,193.999336 C183.76453,186.669673 186.059851,179.054081 187.581986,171.266299 C189.074752,167.022536 190.334585,162.699991 191.355825,158.318082 C195.206998,167.994354 193.89234,177.360489 196.181391,186.30794 C199.570288,179.843211 201.750885,172.811388 202.615478,165.559779 C203.859631,162.788498 204.893664,159.927132 205.708789,157 C207.394643,157 207.580242,158.736767 207.657575,159.837753 C208.331631,168.343899 208.009797,176.899925 206.698648,185.331009 C201.303334,198.828298 191.876142,210.322061 179.709509,218.236537 C162.557099,229.665083 145.71402,234.115548 130,232.766452 Z" id="Path" fill="#FFFFFF"></path>
                <path d="M109.601512,210.986355 C93.5065808,206.307992 82.016802,201.62963 74.0540465,196.654971 C71.5897508,193.244964 69.2384019,189.606238 67,185.738791 C84.0806497,192.491228 93.8300196,195.922027 100.591431,196.795322 C126.774573,202.846004 152.233828,196.296296 177,172 C163.492579,195.859649 140.574629,207.181287 111.403528,211.688109 C114.4258,213.150191 117.626614,214.199012 120.921871,214.807018 C132.239866,216.753631 143.87472,215.187983 154.297676,210.315789 C142.730888,219.376218 128.345561,224.896686 111.788575,228 C102.801965,224.244012 94.5740583,218.846934 87.5152618,212.077973 C98.9434332,215.461988 103.702604,214.651072 109.601512,210.986355 Z" id="Path" fill="#FFFFFF"></path>
                <path d="M143.75118,91.2652239 C146.129141,91.5754731 150.221087,91.9477721 154.266708,92.6303202 C158.31233,93.3128683 159.933667,91.9322596 159.007189,87.976583 C158.21952,83.4574461 155.067737,79.7159867 150.761532,78.1882225 C141.666604,74.8685566 132.648882,71.1921043 123.3841,68.4929367 C111.447972,65.0491712 90.1698543,80.3754789 90,91.8857222 C90,95.3605127 91.3279522,98.9283778 93.2581152,98.3389045 C97.5044739,97.035858 104.406737,95.608712 108.699419,96.8807335 C112.992102,98.152755 114.227406,100.619236 114.875941,105.629759 C115.555359,110.99707 112.173713,109.073525 108.189856,110.93502 C105.348656,112.238066 100.978767,111.57103 97.8905065,111.446931 C90.9419196,111.167707 90.1698543,115.340558 91.3742761,121.343879 C93.9375326,134.576005 98.1066847,147.23417 106.630285,158.216989 C117.439198,172.054101 132.880502,173.993158 146.546056,162.498428 C162.496924,149.049127 169.306539,131.194289 170.943317,111.540006 C171.514645,104.699012 167.731526,100.851923 161.199854,104.171588 C153.108611,108.28239 145.001926,111.431418 136.123176,109.492361 C134.853777,109.296549 133.558661,109.349224 132.309174,109.647486 C129.406209,110.174909 126.256182,112.951639 124.403226,108.09624 C122.550269,103.240841 122.395856,98.9283778 126.827511,95.5466621 C131.259165,92.1649465 136.493767,91.1721492 143.75118,91.2652239 Z M130.425335,133.459108 C126.549567,138.872955 122.040706,140.113952 116.528161,138.764368 C113.547989,138.035283 111.602385,136.220325 111.895769,133.040271 C112.389891,127.145538 112.961219,121.250804 113.4399,115.340558 C114.498008,117.287964 114.959985,119.505958 114.767852,121.716178 C114.953148,135.692902 114.953148,135.692902 130.425335,133.459108 Z M108.514124,146.34996 C113.146515,148.894003 122.226002,142.021984 125.499559,143.805917 C130.13195,146.34996 139.026141,144.721152 140.940863,143.805917 C131.67608,153.966576 117.778906,159.03915 108.514124,146.34996 Z" id="Shape" fill="#C4C3C6"></path>
                <path d="M88.0200695,59.5966533 C90.2699228,54.3749901 93.9102729,49.8799027 98.5394576,46.6073616 C99.0923013,43.9971473 100.274773,41.711279 100.85833,39.1473998 C111.285577,14.0491847 140.110237,11.3463 161.840068,30.7452897 C154.499531,31.3013116 147.834692,33.3709491 142.475179,38.5604877 C141.046442,39.9490073 139.697957,41.4186946 138.436349,42.9623285 C139.327041,43.2403395 140.217734,43.5492406 141.108427,43.8735868 L144.901549,46.5610265 C150.191872,40.4810227 158.002687,37.2358967 166.017109,37.788235 C173.603635,37.8725262 180.822222,41.0893028 185.980912,46.6845869 C198.419896,59.8592192 202.259089,84.6021981 187.27088,92.3247259 L187.27088,92.3247259 C183.742398,93.1696045 180.07218,93.2223376 176.521141,92.4791764 C165.310698,89.9152972 155.190586,82.2391046 152.441724,67.6435272 C151.013544,60.0136698 153.439914,53.7429773 159.229417,51.9667959 C164.980073,50.237034 171.193177,51.087099 176.275432,54.2989993 C180.74561,56.7704631 183.678044,61.3395437 184.076672,66.4542579 C184.568089,71.6746867 182.832774,75.4741703 179.055008,77.3739122 C175.277242,79.273654 171.376622,79.0574232 167.445289,75.4432802 C164.826112,73.0006865 163.881449,69.2366205 165.034276,65.8364557 C165.603449,64.2491084 166.79342,62.9649867 168.327778,62.2823707 C169.862136,61.5997548 171.60734,61.5780553 173.158008,62.2223127 C176.229362,63.5814776 176.643995,66.5778184 176.843633,69.5741591 C176.843633,70.2228515 176.551854,70.9487691 177.258266,71.5665713 C180.114625,68.709236 179.746063,63.3189117 176.275432,59.7047687 C172.405526,55.6736092 168.597047,56.461307 165.003562,57.851362 C161.410078,59.241417 159.275487,63.8285985 159.812974,67.5354118 C161.21044,77.2040165 174.417263,86.6255004 181.220313,82.8105717 C188.898698,78.5322913 189.22119,63.7204831 181.604232,55.88984 C173.4805,47.54951 164.711784,45.4026473 155.88164,48.0128617 C148.786812,50.1442793 146.345086,56.6466477 147.051497,65.5893348 C147.051497,66.5932634 147.604341,67.7053074 147.051497,68.7555712 C144.225851,65.6665601 141.476989,62.577549 138.651343,59.6120983 C137.591726,58.4846093 137.975645,57.8668071 138.420992,56.8937686 C138.605273,56.461307 138.820268,56.0442905 139.019906,55.627274 C136.102119,57.7586917 132.508635,57.5270159 128.270166,56.6157576 C112.759828,53.2641805 98.2937492,54.0673234 87.4057986,65.7901205 C86.1158299,62.8864501 88.3425616,61.7898512 88.0200695,59.5966533 Z" id="Path" fill="#C4C3C6"></path>
                <path d="M176.26612,53.8106811 C180.745473,56.2488972 183.683925,60.7565114 184.083371,65.8024192 C184.311019,68.1833539 184.061792,70.2646885 183.353933,71.9997528 C183.023268,71.9566032 182.6831,71.8605417 182.338681,71.7027919 C180.962021,71.0640301 179.50027,70.4789244 178.068441,69.8443627 C179.996254,66.8922542 179.366039,62.3218809 176.26612,59.1437285 C174.341071,57.1694934 172.43119,56.3668166 170.555304,56.2268093 C167.240801,54.5792205 162.22953,52.9962044 159.252462,54.1327783 C157.794682,54.6893237 156.651749,54.1002317 156.056895,53.1132134 C156.956606,52.410245 158.000618,51.8676261 159.185118,51.509852 C164.947578,49.80336 171.173434,50.6419894 176.26612,53.8106811 Z M173.142297,61.6274049 C176.219955,62.9682854 176.635439,65.9243174 176.835487,68.8803494 C176.835487,69.0051814 176.824362,69.1329122 176.811707,69.2621847 C176.644944,69.1871447 176.482053,69.1075816 176.320215,69.0267672 C175.175351,69.6814453 173.72863,69.4865317 172.801727,68.5527285 C171.119321,66.890067 168.89066,65.8808297 166.520917,65.7084966 C165.920222,65.6614428 165.409389,65.488784 164.9896,65.2308967 L165.001892,65.192928 L165.001892,65.192928 C165.572234,63.6269348 166.764647,62.3600879 168.302154,61.6866549 C169.839661,61.013222 171.588447,60.9918144 173.142297,61.6274049 Z M165.986743,37.5220305 C173.588839,37.6051878 180.822242,40.7786902 185.991519,46.2987028 C190.818214,51.3317485 194.352716,58.0761411 195.999928,64.8941704 C191.86148,60.7411096 186.381674,57.3316903 180.637536,54.4335606 C174.148906,48.2954004 167.268928,45.9574356 160.288568,46.7146383 C157.982306,46.709032 155.682461,47.0429858 153.465475,47.710319 C152.499259,48.0315136 151.433124,47.802619 150.687721,47.1139477 C148.913722,47.9574804 147.019037,48.5248408 145.070486,48.7960204 C144.318273,48.906159 143.549991,48.8109974 142.848283,48.5207722 C142.20564,48.5609204 141.56706,48.3946839 141.027311,48.0467335 C134.545886,44.0250507 125.194115,43.7345108 117.617021,43.765094 C109.098576,43.765094 101.027659,45.7835812 94.7931449,51.4108788 C93.9209178,52.205093 92.9075278,52.3784172 92.0020599,52.1624079 C93.8193494,49.9015764 95.961324,47.8993659 98.370597,46.2225165 C98.7423679,44.4943857 99.3982832,42.9103641 99.9662703,41.2908463 C104.516527,39.3760819 109.499382,38.4007418 114.746675,38.1225047 C122.438294,37.7146576 132.177514,37.9866756 139.791567,40.966118 C139.297562,41.5087017 138.8175,42.0626087 138.349374,42.6265188 C139.241895,42.9007898 140.134416,43.2055353 141.026936,43.5255182 L144.827844,46.1768046 C150.129025,40.1785931 157.955871,36.9771227 165.986743,37.5220305 Z M161.801128,30.5738316 C160.00954,30.7074387 158.258121,30.9296335 156.555986,31.263314 C142.482423,27.4736849 125.879312,21.9895078 112.462745,26.8526178 C111.259051,27.2888208 110.208645,26.8987307 109.515124,26.153543 C122.997713,13.9465786 144.614097,15.4677757 161.801128,30.5738316 Z" id="Combined-Shape" fill="#FFFFFF"></path>
                <path d="M202.917177,113.101397 C203.502414,107.064398 200.959355,101.140754 196.137713,97.3097335 C195.575361,96.8376587 195.169218,96.8985716 194.575624,97.5381568 C194.527551,97.5926693 194.475334,97.6435741 194.419415,97.690439 C193.310332,99.2132609 190.810991,100.218323 190.482952,101.558407 C190.154914,102.89849 192.544909,103.431478 193.45092,104.60405 C196.773272,108.381642 197.713903,113.626566 195.903399,118.278991 C193.638371,124.27891 187.358775,128.527583 179.798267,128.938745 C177.516531,129.091944 175.232243,128.678009 173.15939,127.735715 C170.602767,126.746242 168.805144,124.473918 168.473125,121.811938 C168.355456,121.239006 168.198903,120.67432 168.004498,120.121606 L167.457767,120.121606 C166.364305,122.284013 167.457767,123.837291 168.363778,125.344885 C171.659785,130.446339 179.517091,132.365094 186.92139,129.989492 C187.133702,129.958629 187.349535,129.958629 187.561847,129.989492 L190.904716,128.46667 C192.149636,127.378227 193.499272,126.409293 194.934905,125.573308 L195.965883,124.735756 C198.507886,122.180064 200.598128,119.231575 202.151754,116.009987 L202.917177,113.101397 Z" id="Path" fill="#FFFFFF"></path>
                <path d="M181.694953,127.547367 C179.103924,126.694207 176.76851,125.180853 174.909137,123.15014 C170.542479,118.2557 174.041891,112.693129 180.066966,109.632162 C183.216437,108.078371 186.441982,107.363628 188.861141,109.554472 C190.566113,110.68312 191.211823,112.911962 190.382625,114.806285 C189.312702,117.65082 186.978515,119.803699 184.098897,120.601923 C183.398055,120.906356 182.622252,120.982328 181.877531,120.819454 C183.387606,119.279736 184.67367,117.526829 185.696455,115.614256 C186.837568,112.926198 185.498662,111.077187 182.531769,111.419021 C179.593731,111.901731 177.132943,113.952467 176.080679,116.795136 C175.56084,118.137451 175.615496,119.640792 176.231375,120.940043 C176.847253,122.239295 177.968007,123.215589 179.321439,123.631815 C183.215792,124.655975 187.352938,123.590949 190.306551,120.803916 C193.405821,118.4252 194.723832,114.32518 193.60817,110.533361 C192.89808,107.93018 191.540542,105.558909 189.667527,103.650068 C188.95243,102.857635 188.267763,102.764408 187.050576,103.510227 C185.729627,104.276815 184.288037,104.802601 182.790422,105.064018 C177.952104,105.996292 170.618553,112.832971 169.416581,117.245736 C168.397187,121.192364 169.188358,124.346558 172.459548,126.444176 C174.547061,127.504471 176.853371,128.03734 179.184505,127.997966 C179.998955,128.001561 180.812574,127.944437 181.618879,127.827049 C181.63385,127.731195 181.65937,127.637374 181.694953,127.547367 L181.694953,127.547367 Z" id="Path" fill="#C4C3C6"></path>
                <path d="M168.760845,117.891304 C170.326991,112.152378 173.994378,107.252529 179,104.21118 C178.863478,103.372671 177.483088,104.040373 177.649949,103 L177.649949,103 C176.00114,103.382803 174.510666,104.284125 173.387426,105.57764 C169.762007,109.350932 167.319779,113.341615 168.16925,118 L168.760845,117.891304 Z" id="Path" fill="#C4C3C6"></path>
                <path d="M141.91213,115.791394 C145.294885,115.652065 146.846608,115.621103 149.329364,115.605622 C150.859593,115.649784 152.388823,115.488366 153.87591,115.125711 C154.238169,115.035772 154.595539,114.927261 154.946599,114.80061 C157.258665,114.320699 158.763836,112.571347 160.594868,113.097701 C161.013097,113.230602 161.402601,113.440653 161.743143,113.71694 C161.945376,114.986218 162.028495,116.271548 161.991418,117.556228 C161.991418,117.927772 161.991418,118.268354 161.867281,118.608936 C160.610385,121.240706 158.996594,123.640261 157.584527,126.504245 C157.413837,126.829346 157.227631,127.138966 157.041424,127.448586 C156.334607,128.640699 155.485286,129.742758 154.512116,130.730558 C154.186255,131.040178 153.844876,131.349798 153.472462,131.643937 C152.572463,131.752304 151.563844,131.891633 150.493155,132 L149.422467,132 L148.010399,131.705861 C143.856342,129.869137 140.414105,126.733798 138.203514,122.773325 C138.203514,122.401781 138.141445,122.045718 138.017307,121.705136 C137.994231,121.297795 137.994231,120.889478 138.017307,120.482137 C138.031606,118.691514 138.946966,117.027936 140.453511,116.054571 C140.93259,115.931273 141.420112,115.84331 141.91213,115.791394 L141.91213,115.791394 Z" id="Path" fill="#FFFFFF"></path>
                <path d="M95.8662932,118.710882 C98.0846532,118.567018 99.1085117,118.519063 100.737377,118.455123 C101.748074,118.432936 102.755008,118.320623 103.746901,118.11944 L104.444986,117.943606 C105.996287,117.671863 107.020145,116.824663 108.199134,117.032467 C108.461202,117.066645 108.714201,117.153544 108.943758,117.288225 C109.018747,117.871792 109.018747,118.462998 108.943758,119.046565 C108.91663,119.213714 108.880375,119.379154 108.835167,119.542097 C107.935413,120.78892 106.818476,121.923848 105.732566,123.282566 L105.360253,123.730143 C104.831718,124.324601 104.244187,124.860356 103.607284,125.328634 L102.909198,125.760226 C102.304191,125.760226 101.637132,125.93606 100.939046,126 L100.225448,126 L99.3101808,125.904091 C96.8889439,125.324413 94.713187,123.956828 93.104978,122.003773 C93.0904503,121.840989 93.0592507,121.680245 93.0119,121.524226 C92.9960333,121.338093 92.9960333,121.150886 93.0119,120.964754 C93.0119,120.213463 93.5083162,119.494142 94.7338437,118.854746 L95.8662932,118.710882 Z" id="Path" fill="#FFFFFF"></path>
                <path d="M119.251031,91.9472984 L117.486673,88.8495976 C116.873561,87.5699696 116.02267,86.4188239 114.979427,85.4576151 C113.294788,84.2918713 111.23705,83.7949915 109.20657,84.0636497 C107.179105,84.2030463 105.167118,84.6986784 103.139653,84.7296554 C102.319381,84.7296554 101.344341,84.5747704 101.034804,83.8003451 C100.477639,82.2514947 106.776708,78.7820697 107.999377,77.837271 C118.028362,70.0930188 130.162195,75.8237654 140.160226,79.7578455 C143.960243,81.0293635 147.549186,82.8617316 150.808284,85.1943105 C151.492069,85.5895087 151.937727,86.2961487 152,87.0839081 C151.906314,87.8468766 151.341814,88.4676736 150.591609,88.6327585 C149.864358,88.7252653 149.125764,88.6619095 148.424853,88.4468964 C145.216556,87.6682371 141.950637,87.1502684 138.658974,86.898046 C135.98275,86.8441549 133.33154,87.4225547 130.92056,88.586293 C128.38236,89.8098848 126.509664,91.9163214 124.095279,93.2328443 C123.101617,94.0413873 121.739865,94.2266775 120.566562,93.7129879 C120.135307,93.3467184 119.787071,92.8926135 119.545091,92.3809765 L119.251031,91.9472984 Z" id="Path" fill="#FFFFFF"></path>
                <path d="M124.451719,116.794439 C124.658046,119.881214 124.630536,122.982973 124.96066,126.159653 C125.455845,131.029565 121.122972,128.796898 120.572766,125.710123 C120.177455,123.428172 119.988564,121.109482 120.008805,118.787357 C119.963376,117.770921 120.094033,116.754255 120.393949,115.790488 C121.164238,113.662712 123.585145,113.213181 124.272902,115.640645 C124.369701,116.017295 124.429641,116.404047 124.451719,116.794439 L124.451719,116.794439 Z" id="Path" fill="#FFFFFF"></path>
                <g id="Group-25" transform="translate(164.000000, 130.000000)">
                    <path d="M39.6907192,113.978746 C35.4025839,114.044162 31.1314256,113.425537 27.0379282,112.146143 L27.0379282,112.146143 L26.0753846,111.835532 C24.6315692,112.736303 23.1722289,113.621544 21.6818387,114.506785 C19.4307287,115.82688 17.6298406,117.612892 15.3321559,118.886397 C14.0746392,119.600801 12.444525,120.672409 10.9541349,119.429965 C10.2865644,118.870866 10.3176142,117.876912 9.66556849,117.379934 C4.57340228,113.000322 4.15423006,114.102991 0.956101279,109.614665 C0.645603339,109.164279 0.102231945,102.594861 0.00908256302,102.082354 C-0.0594436555,101.331334 0.263156112,100.597887 0.862951897,100.141036 C2.4154416,98.7277572 4.99257449,98.261841 6.87108703,97.1591727 L7.05738579,97.050459 C4.52971584,92.3579614 4.81683888,86.6493172 7.80258085,82.2343249 C11.0052961,77.3578461 15.3902198,73.3720462 20.5485213,70.6485429 C22.3828507,69.6431628 24.3890302,68.9899957 26.463507,68.7227561 C28.5153404,65.3059828 31.14138,62.2691778 34.2259555,59.7461047 C36.083514,58.0624808 38.3464308,56.890474 40.7929869,56.3449167 C42.4667785,52.2476409 45.0964457,48.6105651 48.462286,45.7375586 C49.8142345,44.5024094 51.397118,43.547056 53.1197551,42.9265311 C54.1099679,39.5548068 55.7153625,36.3955058 57.8548487,33.6082078 C59.2975157,31.5862868 61.2463888,29.979489 63.5059112,28.9490461 C64.0432565,26.4926079 64.9710106,24.1382975 66.253818,21.9758342 C68.1087265,20.2736651 69.7649235,18.3667834 71.1907352,16.291657 L71.4236087,16.1363516 L71.4236087,15.8723324 C73.7046445,12.4364295 75.3164341,8.60045168 76.1742272,4.56610015 C78.4991354,1.66480117 82.0205294,-0.0164749004 85.7375637,0 C89.7726371,0.0435663335 93.6637575,1.50601571 96.7291908,4.13124506 L99.0579253,5.94831811 L99.2752739,6.64719235 C101.751144,5.83315367 104.384084,5.61499253 106.960098,6.01044026 L107.720818,6.11915403 L108.450488,6.32105104 C115.390117,8.23130732 119.178192,13.49616 117.672277,19.1337456 C116.841969,22.6544342 115.310731,25.9715609 113.170057,28.886924 C112.797459,29.3683707 112.393812,29.8187563 111.990164,30.2691419 C112.234301,31.6654291 112.160003,33.0988474 111.772816,34.4623874 C110.838555,38.0738833 109.103435,41.4286062 106.696175,44.277688 C106.214903,44.8367874 105.718106,45.3492952 105.221309,45.8307419 C105.594369,47.7065119 105.366185,49.6522149 104.569264,51.3906748 C102.578221,55.9938577 99.447125,60.0133793 95.4716741,63.06964 C95.5942777,65.0951674 95.0842913,67.1087175 94.0123338,68.8314699 C92.8449602,70.812337 91.4598121,72.6563996 89.8827112,74.3292806 C88.0368861,76.2703558 85.9498835,77.9666617 83.6727524,79.3767058 C83.6857719,81.8620217 82.7661143,84.2617596 81.0956195,86.1014291 L80.9558954,86.272265 C79.9095122,87.6153681 78.7513607,88.8674576 77.4938434,90.0151249 C75.1157762,92.1866622 72.4581792,94.0304199 69.5916708,95.4974051 C69.4242415,97.7620119 68.4937952,99.9028159 66.9524383,101.569846 C64.4878101,104.292252 61.6181976,106.618111 58.4447948,108.465405 C52.7826483,111.911477 46.3163551,113.812444 39.6907192,113.978746 Z" id="Path" fill="#040404"></path>
                    <path d="M81.7675491,21.1993571 C83.4433353,20.9006035 83.0842383,22.4100954 83.8024324,22.960431 C85.852278,24.5328184 87.6178385,24.328408 88.0218226,22.3000283 C89.0392643,17.1897693 91.014298,12.1424058 89.3684366,6.73339318 C86.3759612,4.28046885 85.2537829,4.40625985 83.6528086,7.26800489 C82.5126133,9.7816833 81.6346942,12.4176835 81.0343927,15.1299418 C80.7501075,17.2054932 82.3361195,19.2024252 81.842361,21.2937004 L81.7675491,21.1993571 Z" id="Path" fill="#FFFFFF"></path>
                    <path d="M93.0862314,17.0675493 C91.8179829,16.6669188 91.5395869,18.14617 91.1219929,18.9320222 C88.6164289,23.6317265 86.3428615,28.423884 83.6207672,33.0157263 C75.9511243,45.8859606 66.9074256,57.8924469 56.6472876,68.8259322 C51.342297,74.4963951 45.186652,79.473459 39.6341984,84.9127889 C39.3558024,85.1747396 39.0155406,85.5599613 38.4123493,85.3134194 C33.6431169,89.9359733 28.3667765,94.0090095 22.682975,97.4556063 C21.260062,98.3339117 20.70327,100.444926 18.0430415,99.9980693 C18.0430415,101.538956 16.2025346,101.939586 15.1662828,102.586759 C12.4751214,104.250916 9.75302716,105.899665 7,107.502187 C7.78200692,108.623917 8.49478041,109.792013 9.13436937,111 C13.2175108,108.611626 17.2387864,106.09998 21.1517969,103.480473 C38.1795577,92.0767685 53.4503873,78.2642813 66.4839464,62.4774791 C76.4365785,50.3061915 84.9670407,37.0463503 91.9107816,22.9537364 C92.4418341,21.9239651 92.8717379,20.8454662 93.1944965,19.7332833 C93.4883589,18.839569 94.9112719,17.6222685 93.0862314,17.0675493 Z" id="Path" fill="#C4C3C6"></path>
                    <path d="M25.5560881,105.911543 C23.3423184,107.032523 25.067532,107.26606 26.2278527,107.624151 C33.9730739,110.201584 42.4419266,109.122765 49.327395,104.681578 C51.8603121,103.18565 54.1518963,101.30039 56.121378,99.0922471 C57.8313243,97.1149628 57.0068859,95.3089393 53.9839451,94.623896 C50.9849507,93.7920347 47.8225131,93.7920347 44.8235186,94.623896 C37.7494277,96.9532163 30.9971606,100.197258 24.7316497,104.27678 C23.204912,105.288776 24.4110348,105.195361 25.2507406,105.351052 C26.1578686,104.63927 27.3917966,104.541536 28.3958203,105.101946 L25.5560881,105.911543 Z" id="Path" fill="#C4C3C6"></path>
                    <path d="M18.381637,100.007303 C21.1200183,96.9239264 23.9533723,93.9007131 26.5492944,90.757173 C28.5059448,88.659224 29.7138195,86.0267729 30,83.236742 C30.0067826,81.4995043 28.7976568,79.9696356 27.039987,79.4915673 C25.4035013,78.7505153 23.4824863,78.8525557 21.9431155,79.7623029 C17.6571793,81.933093 14.0195651,85.0998629 11.3694815,88.9673104 C8.80521699,92.6222399 9.88157494,97.1344985 14.2661507,101 L17.4319094,96.8487221 C16.6879561,100.052426 16.6879561,100.052426 18.4766098,100.037385 L18.381637,100.007303 Z" id="Path" fill="#FFFFFF"></path>
                    <path d="M45.3995091,92.4968606 C53.2355123,94.1241944 61.3722519,91.7488573 67.0705864,86.1704798 C68.043913,85.2748498 68.9445076,84.304457 69.7639917,83.2683293 C70.5534381,82.25488 71.68343,81.2260753 70.4605621,79.8748095 C69.3759854,78.6498278 67.8004115,77.9639299 66.1573053,78.0014638 C63.9012161,78.0188825 61.6708026,78.4780888 59.5940647,79.3527296 C53.7893119,81.6099577 49.0216749,85.0341881 44.1147238,88.2741549 C42.7215831,89.1954725 43.0156906,90.3778301 43.0466493,91.3452136 C43.077608,92.3125971 44.6874594,92.0515571 45.3995091,92.4968606 Z" id="Path" fill="#C4C3C6"></path>
                    <path d="M61.8047881,76.5831411 C70.7290755,78.0958965 76.5923019,75.3578092 81.2371955,70.5321195 C82.4797424,69.2219949 83.5680262,67.7755556 84.4810064,66.2207666 C85.8973183,63.8608681 84.3134857,62.0606892 80.9630706,62.000179 C78.8949439,61.9889079 76.8591591,62.5100941 75.0541568,63.5129344 C70.0356041,66.3065219 65.3985543,69.7280602 61.2565383,73.6937783 C59.5204141,75.2519164 59.4747267,76.3108451 61.8047881,76.5831411 Z" id="Path" fill="#C4C3C6"></path>
                    <path d="M38.1983152,85.6047514 C39.1639462,82.5041991 41.6316696,80.1167738 43.1490897,77.2797684 C44.4672525,74.8303321 45.9540176,72.4739123 46,69.6524096 C46,68.0246197 45.8927077,66.443338 43.7621887,65.5906861 C41.8745653,64.5893835 39.5705152,64.8799108 37.9837306,66.3193159 C34.6576685,69.4198682 31.4235713,72.4429067 30.3199931,76.6596579 C29.3850172,80.364818 30.4272854,83.6669062 34.3971015,87 C34.1518619,84.1164863 38.9953439,82.6127184 35.2094576,79.5431716 C37.9530756,80.0702655 37.9684031,80.0702655 37.3859591,81.7445638 C37.0794096,82.643724 36.6808952,83.5118786 36.3130358,84.395536 C35.3780599,86.612431 37.2020294,85.635757 38.2442977,85.5737459 L38.1983152,85.6047514 Z" id="Path" fill="#FFFFFF"></path>
                    <path d="M94.7271966,47.5316893 C95.7114889,45.2579114 93.8813204,44.4381139 91.651283,44.0668849 C89.7951355,43.8164852 87.9130603,44.2745296 86.3760914,45.3507187 C81.7759456,48.5654457 77.5370275,52.2737539 73.7340868,56.4102506 C73.0138763,57.1384581 72.8013554,58.2315919 73.1958019,59.1790006 C73.441875,60.0916053 74.8875544,59.8595872 75.825708,59.9369265 C85.607113,60.6948525 91.5282465,54.5077018 94.7271966,47.5316893 Z" id="Path" fill="#C4C3C6"></path>
                    <path d="M53.1375993,71.9310811 C55.5364192,68.1348055 57.5468556,64.0577801 59.1322386,59.7743688 C59.8988358,57.7544808 60.1643338,55.5462985 59.9015265,53.3760993 C59.7273262,51.748175 58.5968258,50.4436365 57.1291872,50.1769645 C55.7857249,49.7280811 54.3273368,50.1484187 53.3553222,51.2646703 C50.7823992,53.6609404 48.7877598,56.7218403 47.5493761,60.1742607 C46.3472517,63.7260611 47.1548729,67.7248602 49.610487,70.3795007 C50.4088046,71.3712325 51.0619735,73.3387004 52.1505884,70.6194358 C52.2812222,70.1875526 52.5424898,70.3315137 53.1375993,71.9310811 Z M56.4615034,55.2795845 C56.2582953,62.1417286 56.2582953,62.1417286 53.2537182,65.9327033 C55.3438588,62.3336767 55.0245318,58.8946068 56.4615034,55.1996061 L56.4615034,55.2795845 Z" id="Shape" fill="#FFFFFF"></path>
                    <path d="M64.5831537,55 C66.4116555,51.9147855 65.2804637,48.2125282 68.116191,45.5746699 C66.8561938,48.2325986 66.2556878,51.1528481 66.3651681,54.0898617 C69.7122562,49.1226665 72.1760848,43.893228 71.9901355,37.9850423 C72.1037051,36.0351196 70.6821701,34.3302123 68.7360222,34.082246 C66.9333385,33.7167229 65.1072933,34.5940788 64.2732381,36.2264701 C61.0811079,40.6074746 58.7877328,45.1427398 60.6937134,50.5727173 C61.4962249,52.415183 62.8557831,53.9627447 64.5831537,55 L64.5831537,55 Z M67.139957,43.9857844 L68.3796193,39.6664842 C69.1079208,41.0394046 68.5655686,42.612864 67.139957,43.9857844 Z" id="Shape" fill="#FFFFFF"></path>
                    <path d="M100.0764,27.0303506 C98.7928368,26.90834 97.5007948,27.1558802 96.3592073,27.7425213 C90.8820378,30.620878 87.8324226,35.1609664 84.3731576,39.3598062 C83.5235136,40.3835517 84.0545411,41.9265882 86.6945065,41.9859358 C91.103613,42.1808722 95.3505884,40.3405382 98.1647009,37.0155776 C99.9418256,34.9022131 101.216656,32.4291734 101.897066,29.7751753 C102.276371,28.3359969 101.593621,27.4902942 100.0764,27.0303506 Z" id="Path" fill="#C4C3C6"></path>
                    <path d="M81.4391762,20.9451583 C78.0958281,19.0460576 76.2653072,20.1791345 74.7978648,22.8283001 C72.6647785,26.7222544 71.0309251,30.6002498 72.6647785,35.1644748 C73.3005017,36.6477661 74.1758472,38.0031702 75.251713,39.1701409 C75.7098912,39.5316423 76.2208675,39.8119376 76.7645402,40 C76.7645402,38.7392525 79.0035244,39.3616468 78.8371134,38.2924053 C78.1412129,33.6164684 82.0745636,30.0416908 81.9989222,25.5253422 C81.9989222,23.9294593 80.9550715,22.461247 81.3635348,20.9132406 L81.4391762,20.9451583 Z" id="Path" fill="#FFFFFF"></path>
                    <path d="M106.956291,11.0346479 C105.502627,10.8654271 104.045387,11.321585 102.97133,12.2820555 C99.1329868,15.391316 95.8887849,19.1256528 93.3858839,23.3156731 C92.447341,24.8006822 93.1858665,26.1371904 95.9861093,25.9886895 C99.7715474,25.8589367 103.274665,24.0226908 105.448468,21.0287591 C107.107638,18.8052363 108.280282,16.2788894 108.89492,13.6037136 C109.279569,12.2375052 108.602587,11.4801506 106.956291,11.0346479 Z" id="Path" fill="#C4C3C6"></path>
                </g>
                <path d="M108.825173,71.762234 L108.299638,71.762234 C108.192051,70.9473449 107.866996,70.1820886 107.362816,69.5567303 C107.376419,68.9031553 107.101806,68.2802595 106.620212,67.8723072 C101.227769,50.9068944 104.152484,37.9162355 113.075149,27.6763971 C114.678542,25.8699911 116.686913,24.523454 118.913154,23.762234 C110.915887,32.2449404 108.288214,43.3451676 110.65312,57.2083334 C109.316434,61.7284041 108.071145,66.3211837 108.825173,71.762234 Z" id="Path-Copy-12" fill="#000000" transform="translate(111.413154, 47.762234) rotate(13.000000) translate(-111.413154, -47.762234) "></path>
                <path d="M150.82392,31.650225 C154.405342,29.5559258 158.891343,27.9947864 163.863991,27.1122481 C146.00088,36.946873 140.131572,49.8161823 145.413949,65.8887693 C144.524981,67.449076 133.942832,67.8995396 132.59431,64.9182613 C129.413685,57.8866106 136.827845,39.9872792 150.82392,31.650225 Z" id="Path-Copy-23" fill="#000000" transform="translate(147.863991, 47.112248) rotate(13.000000) translate(-147.863991, -47.112248) "></path>
                <path d="M169.851013,167.787122 L168.366451,167.787122 C157.160402,167.787122 147.247358,164.410583 139.489324,158.848338 L138.723099,158.712673 C138.124485,158.712673 137.597705,158.712673 137.04698,158.803116 C137.822476,160.764475 137.279587,169.104616 144.963647,172.212673 C150.803202,174.574663 164.839617,172.266846 167.791782,171.419916 C169.412013,170.965157 170.919981,170.366126 172.269412,169.641204 C172.700414,169.384948 174.663867,167.606236 175.04698,167.606236 C173.322973,167.576088 171.57502,167.787122 169.851013,167.787122 Z" id="Path" fill="#C4C3C6" transform="translate(156.046980, 165.979591) rotate(-62.000000) translate(-156.046980, -165.979591) "></path>
            </g>
        </g>
    </g>
</svg>