<svg width="400" height="400" viewBox="0 0 400 400" fill="none" xmlns="http://www.w3.org/2000/svg">
<g clip-path="url(#clip0_9_2659)">
<path d="M330.832 33.372C329.695 19.29 319.813 7.1 305.659 2.30058C293.197 -1.91625 280.691 0.74146 273.05 9.23616L272.085 10.3126L271.702 11.7052C271.225 13.4419 270.959 13.6305 269.682 14.5349C267.946 15.6706 266.452 17.1398 265.288 18.8572L264.916 19.412L264.672 20.0446C264.143 21.4179 263.952 22.8987 264.117 24.3613C262.668 25.3114 261.472 26.6008 260.633 28.1176L260.25 28.7945L260.05 29.5491C259.978 29.821 259.917 30.0207 259.873 30.165C258.727 31.0274 257.739 32.0825 256.954 33.2832L256.721 33.6439C251.062 25.0659 243.216 15.2507 229.534 12.3766C226.549 11.6554 223.466 11.4268 220.407 11.6997C217.962 11.8607 215.51 11.8607 213.066 11.6997C210.692 11.5963 208.334 11.2505 206.031 10.6677C203.504 9.97143 200.868 9.75871 198.263 10.0407L197.913 10.0684L197.569 10.1406C193.924 10.873 188.281 10.4735 186.594 9.36377L185.978 8.95874L185.296 8.69241C166.093 1.8567 152.449 2.47813 139.244 3.08291C137.635 3.15504 135.987 3.23272 134.344 3.28821C130.46 1.43502 125.017 1.22418 121.544 2.47258C121.206 2.50587 120.839 2.38381 119.541 1.8456C116.669 0.502819 113.514 -0.123558 110.347 0.0201597C106.469 0.114484 101.092 1.80122 97.6302 3.23827C91.0885 5.96256 87.3211 9.10854 86.1171 12.8649C85.7468 14.0193 85.6332 15.2407 85.7842 16.4436C84.9347 18.0503 84.4337 19.818 84.3139 21.6314C81.24 28.4893 81.7227 35.2141 85.7176 40.7126C94.1679 52.3644 116.817 55.6047 133.839 52.7861C145.441 50.8607 153.814 46.4664 158.009 40.2021C160.361 40.2638 162.714 40.1748 165.055 39.9358C169.56 39.5585 172.268 39.331 176.08 41.7724L176.341 41.9333C179.858 43.9584 182.4 44.5299 185.091 45.1458C186.461 45.4565 187.865 45.7783 189.751 46.3443C193.044 47.4369 196.27 48.7226 199.411 50.1949C199.916 50.428 200.415 50.6554 200.909 50.8718C191.521 57.3857 184.63 63.772 179.975 70.2526L179.365 71.1071C176.597 75.0878 173.596 78.9007 170.376 82.5258C168.897 84.232 167.325 85.8547 165.665 87.3863C164.159 88.7253 162.816 90.2376 161.665 91.8916C159.618 94.7621 157.883 97.8422 156.488 101.08C155.29 103.715 154.779 104.736 153.498 105.724C148.277 108.354 146.19 113.142 144.498 117.015C144.431 117.165 144.365 117.315 144.304 117.464C130.116 131.674 111.013 151.055 115.097 176.328L115.147 176.589C117.227 186.682 125.084 201.884 136.009 204.087L136.419 204.165C137.16 204.271 137.881 204.484 138.561 204.797C139.588 207.932 140.509 211.111 141.396 214.196C145.558 228.578 149.852 243.426 165.316 254.317L167.347 272.228C160.872 277.155 152.715 286.338 148.793 293.401C142.567 300.669 135.582 304.303 128.818 307.827C123.669 310.507 118.775 313.048 114.62 316.948C114.154 317.021 113.626 317.059 113.027 317.109C110.43 317.309 106.236 317.631 102.962 321.781C102.326 321.808 101.688 321.791 101.054 321.731C98.9285 321.592 95.716 321.376 92.5367 323.218C83.8256 328.267 83.4372 343.847 86.5055 352.686L86.6054 352.986L86.7385 353.263C87.0313 353.844 87.2494 354.459 87.3877 355.094C86.9583 355.673 86.499 356.228 86.0117 356.759C84.5345 358.362 83.2118 360.101 82.0612 361.952L81.8947 362.229L81.756 362.518C80.6177 364.93 80.0808 367.582 80.1914 370.247C80.2514 372.184 79.9387 374.115 79.2703 375.934L79.1649 376.25L79.0928 376.578C78.4214 379.657 76.0744 381.538 73.9993 383.197C72.4291 384.451 70.9476 385.638 70.0765 387.547L69.333 389.151L69.5771 390.915C70.2152 395.504 74.8815 397.262 76.4018 397.817C80.7139 399.308 85.2502 400.045 89.8124 399.998C97.2862 399.998 105.709 398.128 112.189 392.607C119.691 386.815 127.442 364.121 129.678 357.175C147.171 344.343 165.695 332.982 185.063 323.207C185.213 334.787 185.179 349.584 182.905 355.433C179.47 360.276 177.7 364.898 176.801 371.384C176.379 371.977 175.923 372.546 175.436 373.088C172.662 376.317 170.315 379.862 172.346 387.714L173.494 392.152L186.356 392.524C211.401 393.245 231.182 393.811 245.003 393.362C260.916 392.84 270.592 391.142 272.978 383.968C275.364 376.794 268.429 370.652 260.561 365.104L260.2 364.854L259.812 364.654C255.644 362.544 251.171 361.099 246.557 360.371L227.498 347.326C225.422 302.251 230.355 295.248 231.171 294.405L231.332 294.316C249.641 283.391 250.918 274.464 245.247 253.258C244.692 250.483 244.198 248.419 243.804 246.755C243.205 244.203 242.967 243.132 243.011 242.316C243.067 241.401 243.483 239.93 244.393 237.073C244.792 236.39 245.142 236.141 246.085 235.486C248.469 233.952 250.441 231.856 251.828 229.383C252.856 227.532 253.604 225.539 254.047 223.468C254.374 222.136 254.396 222.114 254.702 221.803C255.38 221.206 256.196 220.787 257.076 220.583L257.287 220.511C268.273 216.887 277.156 208.587 280.075 205.857L280.496 205.424C284.841 200.808 291.41 193.828 294.434 185.084L294.601 184.618L294.684 184.124C295.444 179.718 295.427 174.336 295.411 170.008C295.411 167.944 295.411 165.17 295.527 164.105L295.599 163.95L295.733 163.345C296.046 161.843 296.668 160.422 297.558 159.172C298.74 157.336 300.36 154.822 300.332 150.295C300.342 147.67 299.682 145.086 298.412 142.788C298.281 142.542 298.163 142.29 298.057 142.033C298.042 141.889 298.042 141.744 298.057 141.6C298.212 140.705 298.518 139.842 298.962 139.048C300.333 136.321 301.163 133.353 301.403 130.309V130.132C301.958 119.551 296.36 109.347 286.977 93.0568C290.395 82.7256 292.853 77.2548 295.3 74.4417C297.397 72.0448 299.639 71.3068 305.842 69.5258C306.913 69.2206 308.061 68.8932 309.265 68.527L309.859 68.3495L310.414 68.0554C323.602 61.0255 330.854 48.8577 330.854 33.838L330.832 33.372ZM259.912 174.658C259.998 175.11 260.035 175.569 260.023 176.029C259.26 176.773 258.448 177.464 257.592 178.098C255.534 179.682 253.565 181.379 251.694 183.181L251.633 183.242C247.938 186.942 245.752 188.984 240.181 191.598C235.881 188.046 232.413 184.268 228.763 180.306C225.85 177.133 222.865 173.881 219.33 170.558C222.62 167.584 225.877 165.475 229.267 163.284C231.742 161.68 234.3 160.027 236.947 157.996L237.435 157.619L237.834 157.158C244.337 149.679 245.297 149.801 252.815 150.783C254.541 151.005 256.494 151.26 258.785 151.465L259.218 151.504H259.656C260.017 151.504 260.367 151.454 260.694 151.421C260.589 152.531 260.444 153.674 260.322 154.684C259.59 160.343 258.741 167.401 259.912 174.658Z" fill="black"/>
<path d="M265.266 378.115C260.694 372.011 252.993 369.964 246.157 367.523C238.007 364.621 231.903 359.694 224.69 355.144L223.52 354.034C222.533 353.659 221.468 353.541 220.424 353.69C220.174 353.724 219.924 353.763 219.68 353.818C217.599 354.833 214.825 356.498 212.084 355.854C211.818 355.943 211.557 356.054 211.296 356.171C210.486 356.544 209.737 357.04 209.077 357.641C208.91 357.868 208.755 358.096 208.6 358.323C208.16 359.024 207.638 359.67 207.046 360.249L206.602 361.031C205.91 362.239 205.004 363.311 203.928 364.194L203.528 364.909C202.974 365.853 202.419 366.763 201.936 367.684C201.876 367.895 201.803 368.102 201.72 368.305C201.292 369.326 200.46 370.197 198.529 370.868C198.391 371.074 198.269 371.29 198.146 371.507C197.536 372.583 196.904 373.687 196.193 374.78L195.899 375.335C195.222 376.617 194.523 377.893 193.824 379.169C194.052 379.258 194.279 379.347 194.507 379.446C195.566 380.062 197.153 379.746 198.557 379.574C198.846 379.535 199.112 379.507 199.395 379.496C200.599 379.935 201.759 380.473 202.885 380.978L203.739 381.361C205.654 380.806 207.945 381.66 210.048 381.838C210.287 381.838 210.525 381.838 210.758 381.838C212.19 381.283 213.765 381.05 215.03 380.478C215.461 380.294 215.86 380.044 216.212 379.735C217.588 378.675 217.033 378.12 216.168 378.342C215.718 378.281 215.236 378.165 215.097 377.654C215.004 377.576 214.93 377.477 214.881 377.365C214.832 377.254 214.809 377.132 214.814 377.011H215.435H216.057C216.323 377.011 216.612 377.011 216.867 377.011H217.805C221.472 376.983 225.356 377.538 227.975 374.503C228.18 374.422 228.394 374.368 228.613 374.342C229.906 374.186 231.287 374.93 232.647 375.451C233.673 375.84 234.666 376.323 235.676 376.766L237.341 377.321C238.667 376.972 239.094 377.876 239.605 378.658C243.455 379.796 246.396 382.015 249.153 384.851L248.232 383.841C248.776 384.418 249.331 384.973 249.897 385.505L250.452 385.411C254.58 384.378 258.611 382.988 262.498 381.255C263.685 380.567 264.839 379.827 265.96 379.036C265.749 378.781 265.51 378.442 265.266 378.115Z" fill="#C4C3C6"/>
<path d="M86.0611 381.172C88.3859 381.727 90.7052 382.198 93.0355 382.548C94.1896 380.917 95.3215 379.263 97.9071 380.212C98.1956 380.318 99.0168 379.657 99.2054 379.208C100.654 375.923 100.87 375.468 103.45 372.822C105.624 370.602 107.134 367.819 107.811 364.787C107.937 363.823 108.22 362.886 108.649 362.013C109.215 361.241 109.894 360.558 110.663 359.988C113.776 357.258 115.474 353.33 117.515 349.712C124.174 337.994 135.082 329.305 146.44 322.053C154.762 316.754 163.867 312.859 172.062 307.377C179.026 302.717 188.031 294.616 190.161 286.116C191.271 281.732 188.12 277.027 183.892 275.44C179.664 273.854 174.787 274.93 170.942 277.294C167.096 279.657 164.1 283.169 161.337 286.726C154.124 296.036 145.957 303.083 136.408 309.952C127.414 316.433 118.031 323.024 107.173 325.249C104.737 325.748 102.213 326.031 99.96 327.052C97.7673 328.095 95.9384 329.772 94.7105 331.866C93.4827 333.961 92.9127 336.376 93.0744 338.798C93.4683 343.454 96.6032 347.748 96.0761 352.392C95.4602 357.785 90.2447 361.392 88.0142 366.341C86.5882 369.52 86.6992 373.249 86.2054 376.622C86.0129 378.107 85.5977 379.555 84.9736 380.917L86.0611 381.172Z" fill="#C4C3C6"/>
<path d="M93.9069 33.8381C104.382 45.5287 134.549 47.4651 143.649 36.1962C142.528 29.4936 77.3835 22.092 93.9069 33.8381Z" fill="#C4C3C6"/>
<path d="M236.747 248.93C236.653 248.641 236.27 248.453 236.026 248.214C235.909 248.342 235.715 248.453 235.693 248.597C235.193 251.798 233.673 254.944 235.11 258.268C235.506 260.08 235.902 261.898 236.298 263.722C236.853 264.327 237.285 265.204 237.962 265.47C238.911 265.836 240.037 265.742 241.086 265.847C240.931 265.032 240.809 264.183 240.598 263.4C240.452 262.972 240.266 262.557 240.043 262.163C239.695 260.121 239.344 258.076 238.989 256.026C238.24 253.657 237.518 251.288 236.747 248.93Z" fill="white"/>
<path d="M322.032 27.2798C319.186 21.6759 316.101 16.1829 310.497 12.8538C304.893 9.52473 298.884 7.43851 292.026 7.50509C287.155 7.54948 283.199 8.52601 279.914 12.077C278.392 13.7495 277.131 15.6426 276.174 17.6921C276.195 17.7218 276.224 17.744 276.258 17.7551C276.292 17.7662 276.329 17.7655 276.363 17.7531C274.848 18.3967 273.489 19.9725 272.396 21.2042C271.958 21.687 271.935 22.5525 271.725 23.2405C271.86 23.2715 271.989 23.3239 272.107 23.3959C272.712 25.0604 273.944 26.6085 273.306 28.5449L273.273 28.6503C273.162 28.7244 273.076 28.8287 273.024 28.9508C272.972 29.0729 272.956 29.2075 272.978 29.3383C272.978 29.3882 272.978 29.4382 272.978 29.4937C272.613 30.0676 272.183 30.5981 271.697 31.075C271.621 31.1682 271.515 31.2312 271.397 31.2525C271.336 31.2477 271.276 31.2286 271.223 31.1968C271.17 31.1651 271.125 31.1214 271.092 31.0694C270.886 30.7382 270.796 30.3477 270.837 29.9597C270.872 29.5854 270.83 29.2078 270.715 28.85C270.651 28.6683 270.524 28.5158 270.357 28.4208C270.189 28.3259 269.993 28.2951 269.805 28.334C269.661 28.3893 269.532 28.4766 269.427 28.5893C267.857 29.9986 266.259 31.48 265.405 33.4053C265.034 34.1007 264.954 34.9149 265.183 35.6691C265.537 36.3201 266.086 36.8439 266.753 37.1672C267.469 37.6627 268.267 38.0255 269.111 38.238C268.783 38.1476 268.499 37.9431 268.308 37.6613C268.118 37.3794 268.035 37.0389 268.074 36.7011C268.174 35.7801 268.956 35.375 269.616 34.8757C270.498 34.2098 271.403 33.5773 272.285 32.9115C272.508 32.7308 272.696 32.5108 272.84 32.2623L272.929 32.1125C272.518 31.369 274.182 31.369 273.605 31.0472L273.744 30.9252C274.399 30.3148 275.059 29.4881 275.692 29.5103C276.596 29.5436 277.101 30.3148 277.8 30.7698C278.388 31.1526 279.032 31.419 279.592 31.8462C280.237 32.3516 280.84 32.9083 281.396 33.5107C282.095 34.2487 283.06 35.1309 284.136 34.6204C284.636 34.3985 285.013 33.2389 284.941 32.5453C284.802 31.2192 284.641 29.8931 284.414 28.5782C284.352 27.9109 284.218 27.2524 284.014 26.614C283.848 26.209 283.415 26.1368 283.238 25.7817C282.982 25.2713 283.759 24.7053 284.086 24.4501C284.73 23.9452 285.257 23.0741 286.062 22.8133C286.533 22.6635 286.977 22.8799 287.46 22.9021C288.092 22.9021 289.019 22.5525 289.602 22.78C289.856 22.9189 290.098 23.0804 290.323 23.2627C291.233 23.8176 292.62 23.468 293.608 23.3182C293.085 23.936 292.777 24.7073 292.731 25.5154C292.731 25.5487 296.149 24.6276 296.51 24.5056C296.776 24.4113 297.985 25.2713 298.268 25.41C298.873 25.7364 299.501 26.0147 300.149 26.2423C300.803 26.461 301.486 26.577 302.174 26.5863C302.385 26.5863 303.007 26.6362 303.162 26.4753C303.317 26.3144 303.234 25.6042 303.245 25.3656C303.279 24.7331 302.763 24.4002 302.513 23.8564C302.448 23.7379 302.419 23.6029 302.43 23.468C302.457 23.3803 302.503 23.2991 302.563 23.2295C302.623 23.1599 302.697 23.1032 302.779 23.063C302.998 22.9411 303.234 22.8514 303.478 22.7967C303.66 22.7497 303.851 22.7497 304.033 22.7967C304.688 22.9798 304.904 23.9063 305.315 24.3946C305.87 25.0327 307.235 26.2256 308.183 26.1368C308.794 26.0813 309.887 25.8095 310.458 26.1757C311.03 26.5419 310.908 27.5794 310.924 28.1454C310.921 28.194 310.932 28.2425 310.958 28.2841C310.995 28.3275 311.046 28.3569 311.102 28.3673L314.864 29.5047C316.173 31.1249 317.638 32.5176 319.807 32.8338L321.028 32.1181L324.185 33.6883C323.468 31.5429 322.75 29.4067 322.032 27.2798ZM294.39 18.3357C292.931 16.5491 292.931 16.5491 295.5 14.9234L296.504 15.0399L297.175 16.083C296.265 16.882 296.16 18.652 294.39 18.3357Z" fill="#C4C3C6"/>
<path d="M97.2197 21.1376C99.1118 20.8158 101.298 20.5828 102.18 18.3634C99.9052 19.0181 97.5859 20.0279 95.2556 18.9182C93.9961 18.3135 93.4301 18.6908 92.7754 19.6118C92.2983 20.2887 91.6657 20.8658 91.2662 21.576C91.0619 22.1089 90.9421 22.6706 90.9111 23.2405C91.5159 23.1684 92.4481 23.3182 92.67 22.9908C93.8185 21.2597 95.5164 21.4206 97.2197 21.1376Z" fill="#C4C3C6"/>
<path d="M102.241 18.3024H102.191C102.189 18.3133 102.189 18.3247 102.191 18.3357H102.225L102.241 18.3024Z" fill="#C4C3C6"/>
<path d="M174.881 120.744C173.183 122.219 170.381 123.518 169.654 125.737C169.427 126.552 169.387 127.407 169.538 128.24C170.647 135.969 176.751 143.259 182.771 147.787C189.268 152.664 196.958 155.838 202.673 161.758C203.228 162.34 203.966 163.001 204.737 162.762C205.592 162.496 205.753 161.381 205.708 160.487C205.32 152.897 200.998 146.106 196.398 140.047C191.898 134.126 187.593 128.312 184.424 121.537C183.942 120.505 183.509 119.212 184.191 118.308C184.64 117.818 185.236 117.486 185.889 117.365C189.121 116.448 192.488 116.106 195.838 116.355C197.025 116.438 198.307 116.582 199.311 115.95C201.43 114.629 200.421 111.073 198.257 109.808C196.093 108.543 193.441 108.654 191.005 108.104C190.05 107.887 189.142 107.5 188.325 106.961C187.254 106.251 183.259 111.583 182.704 112.243C180.202 115.212 177.838 118.175 174.881 120.744Z" fill="#C4C3C6"/>
<path d="M293.047 150.112C291.937 141.789 290.101 140.285 289.718 139.57C289.008 138.255 288.608 135.686 283.614 130.692C285.279 130.692 286.389 131.802 289.163 133.128C293.363 122.813 280.285 114.124 273.943 108.715C272.908 107.72 271.709 106.913 270.398 106.329C268.179 105.502 266.398 107.233 264.295 106.501C261.204 105.43 258.78 102.473 258.746 99.1435C258.718 97.2793 259.395 95.4871 259.64 93.6395C260.283 88.779 256.094 82.8588 254.923 78.1038C254.846 77.7764 254.718 77.3936 254.368 77.277C254.239 77.2512 254.106 77.2511 253.976 77.2768C253.847 77.3025 253.724 77.3535 253.614 77.4268C252.504 77.9817 251.611 78.8473 250.557 79.4798C249.502 80.1123 248.204 80.5229 247.05 80.1012C242.106 78.3091 249.17 74.0922 251.716 74.2642C253.459 74.3807 255.007 74.1921 256.022 72.5553C256.089 72.0393 256.161 71.5233 256.227 71.0073L255.55 71.4622L256.227 71.0073C257.337 68.4439 260.777 61.8024 260.167 59.0503C260.139 58.9257 260.102 58.8033 260.056 58.6841C260.01 58.5677 259.956 58.4546 259.895 58.3457C259.575 57.6343 259.127 56.9875 258.574 56.437L258.153 55.9709C256.965 54.6948 256.41 53.0303 256.965 51.9206C257.52 51.3657 259.185 51.9206 260.205 52.6862C260.351 52.7563 260.502 52.8175 260.655 52.8693C261.146 53.0484 261.656 53.1694 262.175 53.23C262.303 53.1933 262.42 53.1245 262.514 53.0303C263.623 51.3657 262.514 49.7012 261.604 47.9534C261.548 47.8369 261.493 47.7204 261.443 47.6039C261.141 47.0286 260.981 46.3893 260.977 45.7396C261.082 45.6162 261.21 45.5145 261.354 45.44C260.361 44.8851 260.122 43.2539 261.199 42.5991C262.171 41.9486 263.291 41.5519 264.456 41.4451C264.516 41.186 264.507 40.9154 264.429 40.661C264.351 40.4066 264.207 40.1774 264.012 39.9969C263.7 39.8133 263.332 39.7513 262.977 39.8231C262.623 39.8948 262.308 40.095 262.092 40.3853C261.016 41.6947 260.322 43.8642 259.667 45.7618C259.606 45.9338 259.545 46.1058 259.49 46.2722C258.63 46.3721 259.739 48.0366 258.569 47.282L258.219 46.8937C256.654 45.2593 255.187 43.5344 253.825 41.728C251.888 38.9538 250.257 36.0076 248.493 33.1279C241.429 20.2943 232.957 18.5798 227.07 17.6643C221.66 16.821 215.596 19.8338 210.369 17.5978C207.348 16.3268 204.064 15.8071 200.798 16.083C193.918 16.5824 187.448 16.255 180.979 13.8969C171.302 10.3681 161.792 10.0519 151.677 9.30836C149.292 9.13636 146.911 8.89222 144.52 8.7979C137.307 8.52602 130.033 8.31518 122.787 8.04331C122.058 7.94653 121.342 7.77167 120.65 7.52175C115.779 6.25115 110.918 5.77399 106.108 7.81027L97.2304 10.0019C96.5258 10.5568 95.8211 11.1116 95.122 11.6665C94.7946 11.9272 94.4784 12.2213 94.1621 12.4932C94.5727 12.754 94.9999 13.2478 95.405 13.2311C97.7131 13.1534 100.116 13.8692 102.257 12.1603C103.034 11.5388 104.721 10.6455 104.138 13.27C103.911 14.3186 104.693 14.4351 105.514 13.8914L106.125 14.4462C104.901 15.5381 103.786 16.7459 102.796 18.0527C105.865 18.2561 108.941 17.7727 111.801 16.6379C113.01 16.1607 117.771 11.5999 118.259 11.6443L121.527 11.8163L126.593 13.3088C133.501 14.4684 140.303 15.9332 147.3 16.477C152.465 16.882 162.469 16.083 170.248 17.6754C170.731 17.7753 171.208 17.8807 171.68 18.0028C173.688 18.602 178.438 18.6187 178.227 22.658C178.222 22.7918 178.209 22.9251 178.188 23.0575C176.524 24.1671 172.085 24.1671 174.226 27.6571C174.311 27.7982 174.408 27.9318 174.515 28.0566C174.857 28.4535 175.341 28.7005 175.863 28.7446L176.329 28.9222C177.864 29.4603 179.436 29.8813 181.034 30.1817C181.406 30.2261 181.783 30.2594 182.144 30.2871C182.505 30.3148 182.877 30.3315 183.254 30.337C183.631 30.3426 183.97 30.4314 184.319 30.4979C184.659 30.5621 184.994 30.6473 185.323 30.7532C185.773 30.8142 186.217 30.8586 186.666 30.903C190.7 31.2581 194.883 30.8586 198.817 30.3481L200.276 30.215L201.73 30.0652L203.045 30.1206C206.036 30.2871 209.393 30.7976 210.258 33.4497C210.319 33.6307 210.366 33.8162 210.397 34.0046C210.397 34.1821 210.397 34.3652 210.397 34.5594C210.358 35.7912 210.358 39.1203 212.577 38.5654C213.687 38.0106 214.242 36.346 214.525 35.3196C214.575 35.142 214.619 34.9645 214.653 34.7647C214.742 34.2276 214.783 33.6835 214.775 33.139C214.808 33.0058 214.836 32.8727 214.869 32.7395C214.997 32.1847 215.124 31.6853 215.263 31.1582C216.694 32.4565 216.927 34.0878 216.672 35.9132C215.99 40.413 215.307 44.7908 214.259 49.2296C213.859 50.9329 213.371 52.6086 212.805 54.262C212.378 55.4938 212.045 57.0806 210.408 56.9419C206.219 56.6867 202.579 58.2347 199.128 60.3986C196.909 62.618 194.689 64.7708 192.509 67.0124C187.204 72.5054 181.92 78.015 176.657 83.5413C176.489 83.7599 176.333 83.9877 176.191 84.2237C173.061 88.2075 169.599 92.6574 166.409 96.8798L160.244 106.284C159.223 107.466 158.197 108.643 157.176 109.83C157.032 109.996 156.888 110.168 156.738 110.335C156.716 110.522 156.655 110.703 156.56 110.865C156.464 111.027 156.336 111.168 156.183 111.278C156.019 111.403 155.845 111.513 155.661 111.605C153.209 112.332 152.099 113.442 151.544 115.661C153.209 113.997 154.873 113.442 157.265 113.115C157.47 113.115 157.675 113.115 157.881 113.115C159.83 113.253 161.725 113.822 163.429 114.779C163.641 114.952 163.843 115.137 164.034 115.334C164.184 115.489 164.328 115.645 164.472 115.817C165.993 121.221 169.876 119.001 173.905 116.138C174.066 115.95 174.226 115.767 174.382 115.584C175.453 114.258 176.168 112.809 175.758 110.856C175.704 110.614 175.63 110.376 175.536 110.146C175.364 109.98 175.192 109.813 175.031 109.647C174.87 109.48 174.704 109.308 174.554 109.142C172.673 106.806 170.453 105.696 168.789 103.477C168.922 103.66 170.825 103.982 171.219 104.204C172.029 104.659 172.728 105.286 173.494 105.813C174.96 106.913 176.528 107.87 178.177 108.67C179.039 109.131 180.009 109.349 180.984 109.303C181.205 109.272 181.418 109.198 181.611 109.086C181.695 109.037 181.773 108.98 181.844 108.914C182.389 108.031 183.029 107.21 183.753 106.468C183.897 106.307 184.031 106.14 184.164 105.974C184.23 105.907 184.291 105.835 184.347 105.768C184.651 105.494 184.85 105.122 184.908 104.716C184.965 104.31 184.879 103.897 184.663 103.549C184.191 102.783 183.592 102.095 183.115 101.33C182.748 100.826 182.587 100.2 182.666 99.5819C182.732 99.1879 183.27 97.3625 183.92 98.3057C184.043 98.5368 184.111 98.7931 184.119 99.0548C184.491 101.502 188.148 103.027 190.223 103.549C191.687 103.91 193.186 104.104 194.661 104.398C196.953 104.892 199.222 105.508 201.486 106.101C204.027 106.797 206.543 107.586 209.032 108.471C210.234 108.903 211.433 109.358 212.627 109.835C213.06 110.007 216.106 110.945 216.167 111.334C214.442 100.375 205.07 91.6476 203.911 80.6172C203.023 72.1836 207.134 64.0384 211.989 57.0862C210.07 60.9701 208.25 64.9484 207.551 69.2096C206.851 73.4708 207.323 78.0871 209.731 81.677C212.239 85.4222 216.667 87.6804 221.166 87.9689C225.666 88.2575 230.177 86.6872 233.828 84.0406C234.671 83.4303 235.52 82.7367 236.547 82.5481C237.573 82.3594 238.827 82.8865 238.999 83.9186C239.039 84.4702 238.908 85.0207 238.622 85.4943C236.796 89.1175 233.495 91.7252 230.854 94.788C228.213 97.8508 226.055 102.001 227.298 105.885C228.085 108.326 230.072 110.179 232.219 111.616C245.452 120.544 264.788 117.165 276.845 127.624C273.849 126.464 270.37 128.389 268.717 131.142C267.063 133.894 266.797 137.245 266.625 140.441C266.2 148.327 266.066 156.219 266.226 164.116C266.32 168.716 266.481 173.499 264.644 177.721C263.55 180.08 262.017 182.209 260.128 183.996C259.895 184.224 259.656 184.451 259.406 184.673C258.125 186.709 255.905 187.264 254.124 189.029L253.37 189.617C250.551 191.747 247.66 193.782 244.698 195.72C243.488 196.508 242.201 197.307 240.758 197.385C240.636 197.385 240.52 197.385 240.403 197.385C240.286 197.385 240.17 197.385 240.053 197.385C238.492 196.887 237.037 196.103 235.764 195.071L235.493 194.816C235.054 194.383 234.633 193.933 234.228 193.495C226.491 185.06 218.172 177.178 209.332 169.909C200.454 162.624 190.622 156.659 181.85 149.296C178.998 146.899 176.046 144.619 173.139 142.283C171.746 141.173 170.276 140.186 169.372 138.626C168.544 137.115 167.995 135.467 167.751 133.76C167.43 131.807 167.99 129.227 167.197 127.43C166.545 126.057 165.68 124.796 164.633 123.695C163.031 121.922 160.962 120.634 158.663 119.978C158.424 119.911 158.186 119.85 157.942 119.8C156.964 119.625 155.971 119.554 154.979 119.59C154.724 119.59 154.474 119.628 154.224 119.662C153.453 119.772 152.695 119.958 151.96 120.217C146.573 122.048 141.563 127.341 137.534 132.501L136.68 133.611C135.856 134.386 135.081 135.212 134.361 136.085C134.3 136.163 134.233 136.241 134.172 136.324C133.8 136.823 133.8 136.823 133.429 137.284L133.251 137.533C133.19 137.611 133.129 137.694 133.073 137.777C132.807 138.149 132.552 138.532 132.302 138.915C130.471 142.372 128.252 145.146 127.114 148.308C126.887 148.741 126.665 149.163 126.46 149.574C123.258 156.232 118.819 163.445 121.039 171.767C122.149 178.259 127.42 182.409 133.44 183.758C133.9 183.857 134.366 183.946 134.838 184.018C138.239 184.529 142.678 185.084 143.788 181.755C144.897 177.871 141.568 174.542 139.904 170.658C139.349 168.993 139.904 166.774 139.904 164.765C139.98 164.336 140.09 163.913 140.231 163.5C140.89 161.66 142.128 160.082 143.76 159.006C143.76 160.67 143.76 162.335 143.882 164C143.915 164.41 143.954 164.821 144.004 165.226C144.418 167.508 145.249 169.693 146.456 171.673C146.695 172.073 146.945 172.461 147.217 172.838C153.214 181.716 164.866 180.606 174.049 183.569L174.859 183.857C175.946 184.25 177.034 184.656 178.121 185.078C182.268 186.695 186.337 188.505 190.328 190.51C192.281 191.498 194.208 192.532 196.11 193.612C197.352 194.322 198.712 194.91 199.794 195.864C200.981 196.919 201.264 198.222 201.958 199.576C202.651 200.93 205.287 200.009 206.258 199.748C208.047 199.207 209.871 198.788 211.717 198.494C212.999 198.333 215.047 198.056 216.3 198.433C215.411 198.169 214.553 197.808 213.743 197.357C212.43 196.666 211.218 195.797 210.142 194.777C209.187 193.817 209.259 192.524 209.287 191.231C209.287 191.931 212.061 193.495 212.616 193.823C213.943 194.599 215.369 195.192 216.855 195.587C219.818 196.375 222.959 196.142 225.994 196.28C228.888 196.486 231.794 196.486 234.688 196.28C235.119 196.163 235.573 196.154 236.009 196.253C236.353 196.364 236.619 196.747 237.002 196.747C237.557 197.301 235.892 197.856 236.569 198.145C236.569 198.283 236.53 198.394 236.519 198.494C236.46 198.833 236.436 199.177 236.447 199.521C234.782 198.966 232.563 200.076 230.743 199.182C230.629 199.165 230.514 199.153 230.399 199.149C229.19 199.11 228.224 199.959 226.865 199.593L226.526 199.676C225.566 199.893 224.634 200.275 223.907 200.475L223.563 200.547C223.009 200.675 222.393 200.83 221.76 201.03L221.4 201.091C218.691 201.521 215.957 201.765 213.216 201.823C213.119 201.821 213.024 201.842 212.938 201.884C212.733 202.012 212.788 202.323 212.872 202.55C213.402 203.834 214.045 205.069 214.791 206.24C216.017 206.089 217.252 206.03 218.487 206.062C219.141 206.062 221.455 206.223 220.107 207.239C219.219 207.91 218.27 208.243 217.36 208.948C217.25 209.105 217.113 209.242 216.955 209.353L215.391 210.462C214.027 211.751 212.54 212.904 210.952 213.902C210.612 214.276 210.251 214.63 209.87 214.962C209.565 215.634 208.655 216.338 208.288 216.754C207.595 217.526 203.667 221.57 204.893 222.763C205.165 223.035 207.295 222.83 207.667 222.519C208.305 221.964 207.667 221.176 208.055 220.649C208.444 220.122 209.848 219.856 210.386 219.59C212.058 218.749 213.665 217.783 215.191 216.699C218.226 214.596 221.067 212.221 224.196 210.257C224.414 210.097 224.664 209.988 224.928 209.935C225.694 209.841 226.277 210.729 226.182 211.494C225.974 212.305 225.548 213.044 224.951 213.631C224.629 214.002 223.197 214.873 223.103 215.251C223.004 215.63 222.761 215.957 222.426 216.161C221.067 217.048 219.985 218.313 218.636 219.273C217.823 220.018 216.961 220.707 216.056 221.337C214.392 222.447 212.65 223.49 211.002 224.666C209.476 226.259 208.227 228.156 207.872 230.215C207.935 230.292 208.004 230.365 208.078 230.431C208.965 231.219 210.669 230.537 211.201 229.66C211.623 228.966 211.901 228.273 212.627 227.835C213.449 227.341 214.503 227.535 214.802 226.342C214.908 225.92 214.88 225.415 215.207 225.138C215.818 224.611 216.772 225.493 217.538 225.232C217.873 225.072 218.15 224.813 218.331 224.489C219.574 222.78 221.327 221.581 223.025 220.366C224.723 219.151 226.293 217.381 228.141 216.261C229.201 215.617 229.744 215.9 230.793 216.294L232.419 217.342C231.479 218.452 230.545 219.562 229.617 220.672C226.16 224.733 221.744 228.406 217.965 232.273C218.045 232.383 218.13 232.489 218.22 232.59C218.13 232.489 218.045 232.383 217.965 232.273C217.191 232.913 216.462 233.607 215.784 234.349C215.063 235.242 214.98 236.302 216.123 236.923C217.266 237.544 217.982 236.962 218.459 235.813C219.652 232.956 223.28 231.541 225.672 229.771C229.001 227.33 232.136 224.666 235.864 222.913C236.93 222.414 237.873 221.803 238.472 223.418L237.917 224.028L235.115 226.73L229.595 233.389C228.579 234.498 226.621 235.958 226.487 237.578C226.449 238.083 228.873 237.206 229.129 237.051C230.34 236.222 231.501 235.324 232.607 234.36C234.405 232.667 236.597 231.252 238.544 229.738C240.303 228.373 241.729 226.547 243.577 225.299C245.907 223.768 247.039 221.326 247.555 218.674C248.11 215.778 248.548 210.401 251.478 208.765C251.184 209.358 250.895 209.952 250.601 210.551C250.407 211.053 250.34 211.596 250.407 212.131C250.473 212.665 250.672 213.175 250.984 213.614C252.515 215.351 253.908 213.314 254.712 211.977C255.772 210.224 256.405 208.731 258.225 207.694C259.762 206.823 261.454 206.223 263.046 205.474C264.639 204.725 266.12 203.904 267.602 203.016L267.946 202.805C268.223 202.639 268.5 202.473 268.761 202.301C270.842 199.582 275.281 199.582 276.69 196.036C276.711 195.735 276.684 195.431 276.612 195.138C276.526 194.809 276.396 194.493 276.224 194.2C276.078 194.067 275.924 193.943 275.763 193.828C275.258 193.484 274.725 193.182 274.171 192.924C277.5 194.588 281.384 192.369 283.764 189.85C283.896 189.681 284.019 189.505 284.13 189.323C284.485 188.702 284.754 188.035 284.929 187.342C285.024 187.015 285.101 186.676 285.174 186.327C284.158 180.717 286.932 176.278 287.676 171.24C287.72 170.902 287.759 170.569 287.804 170.23C288.009 168.533 288.22 166.802 288.458 165.015C288.769 162.685 289.917 159.611 290.816 157.414C291.959 154.545 293.43 152.997 293.047 150.112ZM153.864 135.78C153.608 136.069 153.348 136.335 153.081 136.612C150.22 139.688 146.471 141.794 142.356 142.638C142.029 142.76 141.696 142.865 141.357 142.96C140.32 143.256 139.246 143.4 138.167 143.387C137.864 143.33 137.567 143.247 137.279 143.137C136.972 143.017 136.675 142.872 136.391 142.705C136.225 142.568 136.064 142.423 135.909 142.272L135.759 142.111C135.736 142.048 135.72 141.983 135.709 141.917C135.703 141.848 135.703 141.78 135.709 141.711C135.709 141.628 135.709 141.55 135.709 141.473C135.703 141.393 135.703 141.314 135.709 141.234C136.342 139.664 137.645 138.094 138.727 136.596L138.916 136.329C141.601 135.131 139.382 131.802 142.8 131.63L143.044 131.58C143.555 131.025 144.653 131.025 145.563 130.825L145.863 130.748C146.612 129.028 147.721 129.582 148.831 129.582C148.866 130.273 148.809 130.966 148.659 131.641L148.559 131.885C148.395 132.165 148.301 132.48 148.288 132.805C148.274 133.129 148.341 133.451 148.482 133.744L148.62 133.91L148.909 134.254L149.07 134.326L149.231 134.387C150.794 135.028 152.512 135.194 154.169 134.865C154.336 134.848 154.505 134.862 154.668 134.903C154.374 135.203 154.119 135.497 153.864 135.78Z" fill="#C4C3C6"/>
<path d="M215.202 116.943C215.108 117.109 215.296 117.703 215.341 117.886C215.402 118.153 215.474 118.402 215.529 118.674C215.704 119.632 216.073 120.544 216.613 121.354C217.153 122.164 217.853 122.855 218.67 123.385C219.769 124.26 221.017 124.931 222.354 125.366C222.658 125.459 222.968 125.537 223.28 125.599L223.774 125.626H224.285C224.444 125.574 224.593 125.497 224.729 125.399C224.944 125.245 225.121 125.042 225.242 124.807C225.364 124.571 225.427 124.31 225.428 124.045C225.428 123.768 225.472 123.49 225.5 123.224C225.727 120.766 226.055 118.424 224.712 116.566C224.54 116.334 224.354 116.111 224.157 115.9C223.966 115.681 223.76 115.475 223.541 115.284C223.364 115.13 223.179 114.986 222.986 114.851C222.505 114.506 221.96 114.259 221.383 114.125C220.806 113.991 220.208 113.972 219.624 114.069L218.98 114.38L215.812 115.872C215.59 116.227 215.396 116.582 215.202 116.943Z" fill="#C4C3C6"/>
<path d="M248.199 34.343C247.167 33.2777 245.741 32.5231 244.476 31.6797C241.779 29.8765 239.566 27.3797 236.708 25.8261C235.793 25.3267 234.572 24.9661 233.778 25.643C233.502 25.9231 233.318 26.2809 233.25 26.6687C233.183 27.0564 233.235 27.4555 233.401 27.8125C233.741 28.5217 234.238 29.1442 234.855 29.6324C241.064 35.2807 248.931 39.2035 253.93 45.9448C254.125 46.1712 254.265 46.4387 254.341 46.7272C254.363 47.0148 254.309 47.3031 254.185 47.5638C254.062 47.8245 253.873 48.0486 253.636 48.2142C252.954 48.769 250.446 50.7165 249.575 50.4946C251.484 50.9773 253.753 51.3823 255.229 50.0729C256.427 49.0131 256.599 47.2154 256.555 45.6341C256.577 45.2316 256.488 44.8307 256.3 44.4745C256.024 44.1488 255.698 43.8697 255.334 43.6478C254.502 42.9764 254.114 41.8834 253.337 41.1454C252.56 40.4075 251.3 40.0357 250.563 39.1702C249.825 38.3046 249.714 36.9064 249.203 35.7967C248.953 35.2586 248.614 34.767 248.199 34.343V34.343Z" fill="black"/>
<path d="M190.545 16.4659C199.772 15.789 206.558 15.6503 208.3 15.9111C209.055 16.0311 209.797 16.2168 210.519 16.4659C211.298 16.7517 212.043 17.1239 212.739 17.5756C214.986 19.0237 223.608 17.3093 226.055 17.0208C233.945 16.0886 242.246 22.4305 246.03 27.5628C249.592 32.3955 248.804 35.708 254.352 41.9888C256.849 44.8241 259.424 46.8881 259.346 46.9825C259.268 47.0768 254.779 43.8642 249.913 39.2146C243.133 32.7285 235.365 25.2547 233.679 26.9359C233.124 27.4907 238.672 28.0456 249.913 40.8792C251.4 42.577 252.543 43.0264 253.243 44.2082C253.52 44.6854 252.244 44.9462 251.989 44.6909C249.625 42.405 243.583 37.9107 238.117 33.594C231.62 28.4728 230.766 32.6563 223.281 27.008C220.229 24.7054 216.567 21.3929 212.184 22.0144C211.23 22.1475 211.318 22.3195 209.965 22.5692C205.909 23.3238 202.568 22.2918 199.977 21.4595C196.566 20.358 193.374 18.668 190.545 16.4659V16.4659Z" fill="white"/>
<path d="M271.746 22.6524C271.74 22.7299 271.74 22.8079 271.746 22.8854C271.802 24.5499 272.695 26.0425 272.817 27.6793C272.868 28.3423 272.785 29.0088 272.575 29.6395C272.364 30.2702 272.03 30.8526 271.591 31.3523C271.145 31.8215 270.637 32.2283 270.082 32.5619L269.843 32.7117C269.227 33.1241 268.564 33.4631 267.868 33.7215L267.635 33.8381C267.369 34.3929 266.753 34.576 266.109 34.7092L265.787 34.7757C265.059 35.0371 264.427 35.5154 263.979 36.1462C263.928 36.2354 263.883 36.3281 263.845 36.4236C263.413 37.6887 263.796 37.8385 264.4 37.9162L264.678 37.9495C264.944 37.9794 265.202 38.0604 265.438 38.1881L265.688 38.3268C266.98 39.1424 268.09 40.2521 268.961 40.1744L269.122 39.9525C269.245 39.8096 269.312 39.6275 269.312 39.4392C269.312 39.2509 269.245 39.0689 269.122 38.926C269.116 38.8411 269.099 38.7572 269.072 38.6763C268.984 38.464 268.85 38.2743 268.678 38.1215C268.616 38.0544 268.549 37.9914 268.478 37.9328C268.262 37.7497 268.001 37.5722 267.757 37.378L267.707 37.2393C267.213 35.7856 268.817 35.7911 269.755 34.9256L269.927 34.859L270.099 34.7979L270.293 34.7147C270.619 34.583 270.919 34.3952 271.181 34.1599L271.303 34.0544L271.641 33.7437C271.763 33.6383 271.896 33.5384 272.024 33.4386C272.972 32.7887 273.832 32.0184 274.582 31.1471C274.94 30.7061 275.174 30.1774 275.259 29.6157C275.287 28.9579 275.155 28.3031 274.876 27.707C274.284 26.1807 273.541 24.7178 272.656 23.3404C272.462 23.0574 271.852 22.1253 271.746 22.6524Z" fill="white"/>
<path d="M261.21 58.4344C260.655 56.9807 259.018 57.4245 257.797 55.1941C257.108 54.0243 256.875 52.6412 257.143 51.3101C257.62 49.4625 259.096 49.2239 259.279 47.9256C259.406 47.0101 258.879 45.6119 255.833 43.5756C255.972 44.4633 256.521 48.5692 254.474 50.1616C254.228 50.4497 253.892 50.6454 253.52 50.7165C247.993 51.7485 242.916 49.862 239.116 46.1778C239.07 46.1598 239.026 46.1394 238.983 46.1168C237.464 45.1622 236.041 44.0641 234.732 42.8376C234.178 42.5491 233.623 42.2828 233.024 41.9499C224.279 37.4834 221.289 37.328 219.058 38.4211C218.232 38.8543 217.495 39.4376 216.883 40.1411C213.904 43.1927 213.521 47.0989 213.138 49.6844C212.397 54.4456 211.093 59.1019 209.254 63.5556C215.579 59.9214 220.245 60.7203 221.86 61.1032C227.458 62.4515 231.964 67.0678 234.777 71.8783C236.286 74.4639 236.441 77.4268 239.216 77.4268C241.99 77.4268 241.063 73.8203 244.869 71.0627C245.985 70.1677 247.304 69.5617 248.709 69.2983C252.754 68.6879 255.978 71.8395 256.56 72.4276C256.481 70.934 256.63 69.4371 257.004 67.9888C258.363 62.8066 262.081 60.7314 261.21 58.4344Z" fill="white"/>
<path d="M214.259 40.2521C213.508 40.8225 212.932 41.5912 212.594 42.4714C211.646 44.7741 212.955 47.1322 213.149 47.4651C213.266 46.9657 214.941 40.2132 219.807 39.0092C221.168 38.7193 222.579 38.7535 223.924 39.1091C226.41 39.6639 228.574 41.162 230.677 42.5991C230.677 42.5991 236.225 46.483 239.998 48.9964C244.731 52.1202 245.691 52.3533 246.429 52.4587C251.101 53.1467 255.478 49.9619 255.306 49.4126C255.212 49.1185 253.83 49.5901 250.69 49.5624C249.076 49.5511 247.465 49.4064 245.874 49.1296C242.467 48.4915 239.488 45.9004 233.529 40.7237C232.02 39.4039 230.28 38.3749 228.396 37.6887C228.047 37.5666 227.753 37.4889 227.453 37.4057C225.567 36.8841 223.569 37.0506 221.627 36.7954C220.678 36.7137 219.763 36.4054 218.958 35.8965C218.098 35.2973 218.021 34.2819 216.9 33.7548C216.6 33.6161 216.195 33.4274 215.918 33.5994C215.491 33.8602 215.918 34.637 215.918 36.4458C215.918 38.5209 216.073 38.8927 215.84 39.22C215.479 39.786 215.047 39.6861 214.259 40.2521Z" fill="black"/>
<path d="M228.352 99.7316C228.153 99.1768 231.52 98.3944 232.791 95.2928C233.84 92.7405 232.641 90.6321 233.901 89.7444C235.01 88.9731 236.153 90.388 238.34 89.7444C239.751 89.258 240.936 88.271 241.669 86.9701C242.64 85.1835 241.852 84.1959 242.778 83.0862C243.816 81.8711 245.098 82.8254 247.217 81.9765C250.441 80.6893 250.258 77.3879 253.875 75.8732C254.583 75.579 255.331 75.392 256.095 75.3184C255.018 78.0926 255.185 80.1122 255.54 81.4217C256.366 84.4789 258.619 85.3611 259.979 89.7444C260.4 91.1093 260.655 91.9305 260.533 93.0734C260.245 95.7201 258.314 96.4525 258.314 98.6219C258.314 100.791 260.311 102.073 259.979 102.506C259.424 103.21 254.824 99.1324 249.436 97.5122C239.338 94.4772 228.735 100.747 228.352 99.7316Z" fill="white"/>
<path d="M267.169 170.635C269.104 170.356 271.077 170.537 272.929 171.162C273.255 171.275 273.527 171.505 273.694 171.806C274.8 171.945 275.896 172.145 276.979 172.405C277.451 172.516 277.917 172.655 278.377 172.799H278.727C279.631 172.283 280.547 171.851 281.007 170.791C281.068 170.646 281.124 170.497 281.179 170.352C280.43 154.911 281.301 147.515 282.467 143.72C283.007 142.106 283.172 140.391 282.949 138.704C282.306 134.387 278.799 131.535 276.147 130.503C274.704 129.949 272.957 129.266 271.281 130.503C269.306 131.968 268.912 135.014 268.851 135.552C269.078 140.435 266.093 162.107 267.169 170.635Z" fill="black"/>
<path d="M151.007 116.266C151.706 115.611 154.474 113.026 158.22 112.937C159.018 112.937 158.985 113.037 159.329 112.937C161.493 112.321 160.994 108.221 163.213 102.95C164.384 100.175 165.36 97.8562 167.652 96.8464C169.943 95.8366 171.813 96.9019 172.646 95.7367C173.794 94.1221 170.903 91.0649 172.091 89.6334C172.94 88.6069 174.809 89.7444 175.975 88.5237C177.045 87.414 175.975 85.9215 177.084 84.6398C178.05 83.5301 179.248 84.1793 180.413 82.9752C181.185 82.1763 180.896 81.6492 181.523 80.201C182.35 78.2923 184.297 75.8732 186.517 75.7622C187.937 75.6957 188.348 76.6389 189.291 76.3171C190.883 75.7622 189.984 72.988 191.51 70.7686C194.201 66.8847 201.414 69.2983 203.717 65.2202C204.002 64.7041 204.191 64.1398 204.272 63.5556C197.353 65.7029 193.363 67.9389 190.955 69.6589C190.431 70.0729 189.875 70.444 189.291 70.7686C189.197 70.6521 193.025 67.8057 197.059 64.1105C204.827 56.9973 209.038 50.6998 213.149 50.7942C213.577 50.7942 215.041 50.9107 215.369 50.2393C215.696 49.5679 214.997 48.4139 214.259 48.0199C211.352 46.4996 204.671 56.4203 192.62 66.3299C191.71 67.0789 190.462 68.0776 188.736 69.6589C186.561 71.6508 184.419 73.8314 179.859 79.0913C176.48 82.9752 177.123 82.4204 173.755 86.3043C168.068 92.8904 167.214 93.423 165.433 96.2916C162.941 100.303 163.768 100.586 161.549 103.505C160.056 105.447 158.153 107.205 154.336 110.718C152.671 112.238 151.262 113.492 149.897 115.711C148.787 117.559 148.033 119.484 148.232 119.595C148.432 119.706 149.131 118.019 151.007 116.266Z" fill="white"/>
<path d="M212.707 69.9338C213.274 69.0782 213.301 68.0977 212.768 67.7439C212.234 67.39 211.341 67.7968 210.774 68.6524C210.207 69.508 210.18 70.4885 210.714 70.8424C211.247 71.1962 212.14 70.7895 212.707 69.9338Z" fill="black"/>
<path d="M212.039 69.1041C212.652 69.1041 213.149 68.7315 213.149 68.2718C213.149 67.8122 212.652 67.4396 212.039 67.4396C211.427 67.4396 210.93 67.8122 210.93 68.2718C210.93 68.7315 211.427 69.1041 212.039 69.1041Z" fill="white"/>
<path d="M266.215 170.591C263.535 165.753 267.419 138.349 267.185 132.756C267.247 132.201 267.64 129.172 269.616 127.707C271.28 126.47 273.039 127.152 274.482 127.707C277.134 128.739 280.641 131.591 281.284 135.908C281.512 137.604 281.346 139.329 280.801 140.951C279.503 145.157 278.582 153.835 279.83 173.132C277.927 175.352 276.379 175.668 275.453 175.651C274.116 175.651 273.366 174.874 270.587 173.132C267.968 171.473 266.52 171.151 266.215 170.591Z" fill="white"/>
<path d="M178.704 90.0995C178.713 90.0011 178.753 89.908 178.818 89.8333C178.882 89.7587 178.969 89.7062 179.065 89.6834C179.259 89.6168 179.487 89.5946 179.675 89.5502C179.91 89.4085 180.112 89.2196 180.269 88.9954C180.418 88.7638 180.515 88.5024 180.552 88.2297C180.689 88.1237 180.836 88.0308 180.99 87.9522C181.15 87.8719 181.32 87.814 181.495 87.7802C181.687 87.7536 181.882 87.7907 182.05 87.8857C182.263 88.0125 182.443 88.1897 182.572 88.4017C182.763 88.586 182.929 88.795 183.065 89.0231C183.104 89.2228 183.132 89.4226 183.165 89.6168C183.362 90.7195 183.801 91.7647 184.451 92.6772C185.1 93.5897 185.944 94.3466 186.922 94.8934C187.281 95.1401 187.724 95.2358 188.153 95.1597C188.908 94.9322 189.047 93.9335 188.991 93.1512C188.941 92.5297 188.869 91.9139 188.758 91.3035C188.725 91.1038 188.686 90.8985 188.642 90.6987C188.597 90.499 188.503 90.388 188.431 90.2271L188.231 89.7111C187.649 87.9911 185.984 86.3265 187.094 85.7717C190.423 84.1072 189.313 88.5459 191.388 89.5225C191.526 89.6608 191.673 89.7905 191.827 89.9109C192.253 90.2411 192.713 90.5274 193.197 90.7653C195.527 91.1537 195.683 89.3671 195.272 87.6915C195.217 87.4529 195.144 87.2143 195.067 86.9868C194.862 85.7717 193.197 84.662 193.752 83.1639L193.619 82.6091C193.436 81.8434 193.247 81.0888 193.108 80.3897C193.064 80.1677 193.025 79.9569 193.003 79.7572C192.897 79.54 192.777 79.3305 192.642 79.1302C191.716 78.6697 191.177 79.7516 190.512 79.8293C190.366 79.8448 190.22 79.8116 190.095 79.735C189.932 79.8652 189.759 79.9838 189.579 80.0901C189.407 80.1899 189.23 80.2843 189.025 80.3675C188.851 80.4196 188.68 80.4827 188.514 80.5561C188.348 80.6283 188.181 80.7115 188.015 80.7947C185.407 81.3496 183.742 83.0141 181.723 84.0406L181.351 84.2792C180.854 84.6064 180.376 84.9621 179.92 85.3445C179.72 85.5054 179.526 85.6718 179.331 85.8438C179.137 86.0158 179.043 86.1102 178.882 86.2433L178.405 86.6539C178.216 86.7926 178.033 86.9369 177.85 87.0867C177.667 87.2365 177.495 87.3974 177.328 87.5583C176.959 87.9684 176.632 88.4145 176.352 88.8899C176.219 89.1174 176.102 89.3505 175.997 89.5779C174.887 91.3368 174.332 94.111 175.719 95.7534C175.831 95.9954 175.962 96.2274 176.113 96.4469C176.281 96.6986 176.466 96.9378 176.668 97.1627C176.784 97.2752 176.917 97.3689 177.062 97.4401C178.172 97.995 179.281 96.8853 178.682 95.0099C178.654 94.788 178.616 94.5605 178.577 94.3274C178.366 93.1734 178.072 91.9083 178.405 90.7265C178.521 90.4602 178.638 90.266 178.704 90.0995Z" fill="black"/>
<path d="M190.328 82.1707C190.572 82.6479 190.844 83.125 191.06 83.6077C191.798 85.2723 191.937 87.1699 192.947 88.668C193.314 89.2548 193.855 89.7125 194.495 89.9774C194.815 90.1052 195.162 90.1479 195.504 90.1012C195.845 90.0545 196.168 89.9201 196.442 89.7111C197.114 89.1562 197.219 88.1686 197.175 87.2919C197.086 85.3611 196.559 83.3026 197.447 81.5826C197.536 81.3727 197.668 81.184 197.836 81.0291C198.003 80.8742 198.201 80.7564 198.418 80.6837C199.638 80.4007 200.332 82.3094 201.575 82.4481C201.885 82.4589 202.191 82.3811 202.458 82.2239C202.726 82.0667 202.943 81.8365 203.084 81.5604C203.363 81.0077 203.513 80.3986 203.522 79.7793C203.634 78.3554 203.599 76.9237 203.417 75.507C203.37 74.898 203.18 74.3087 202.862 73.787C201.935 72.4387 200.36 73.4762 199.2 73.8979L194.173 75.7345C193.143 76.0523 192.165 76.5196 191.271 77.1216C190.825 77.4255 190.451 77.8224 190.173 78.2851C189.895 78.7477 189.721 79.2651 189.662 79.8015C189.67 80.6363 189.899 81.4541 190.328 82.1707Z" fill="white"/>
<path d="M182.572 85.4832C183.043 85.5298 183.504 85.6515 183.936 85.8438C184.597 86.2599 184.674 87.1643 184.808 87.93C185.004 89.0327 185.443 90.078 186.093 90.9905C186.742 91.9029 187.586 92.6599 188.564 93.2066C188.924 93.4534 189.366 93.549 189.796 93.4729C190.55 93.2455 190.689 92.2467 190.633 91.4644C190.513 89.8125 190.167 88.1848 189.607 86.6261C189.306 85.934 189.101 85.2042 188.997 84.4567C188.963 83.9407 189.047 83.4136 188.997 82.8976C188.481 79.0136 184.408 81.9876 182.727 83.1583C182.111 83.5856 181.412 84.2958 181.761 84.9616C181.849 85.1038 181.967 85.2246 182.107 85.3149C182.247 85.4052 182.406 85.4627 182.572 85.4832V85.4832Z" fill="white"/>
<path d="M177.318 93.1068C177.293 93.3706 177.293 93.6363 177.318 93.9002C177.345 94.163 177.414 94.4196 177.523 94.6603C177.677 94.9927 177.915 95.2797 178.212 95.4935C178.51 95.7073 178.858 95.8408 179.222 95.8809C179.586 95.9211 179.955 95.8666 180.292 95.7228C180.629 95.579 180.923 95.3506 181.146 95.0598C181.233 94.9434 181.31 94.8189 181.373 94.6881C181.391 94.4779 181.428 94.2698 181.484 94.0666C182.594 91.8473 182.039 89.073 180.674 87.0756C180.54 86.9257 180.383 86.7983 180.208 86.6983C180.013 86.5823 179.799 86.4998 179.576 86.4542C179.352 86.4052 179.121 86.3921 178.893 86.4153C176.513 87.9689 177.623 90.1883 177.351 92.5796C177.351 92.7517 177.329 92.9237 177.318 93.1068Z" fill="white"/>
<path d="M209.038 96.0363C204.827 89.6722 195.427 94.8212 191.588 99.1212C197.503 100.353 203.606 101.657 208.599 105.064C210.919 106.639 215.957 112.016 216.467 111.827C217.078 111.611 210.037 97.5455 209.038 96.0363Z" fill="white"/>
<path d="M165.438 116.111C165.422 116.321 165.422 116.533 165.438 116.743C165.516 117.52 165.96 118.374 166.737 118.513C167.052 118.551 167.372 118.521 167.674 118.424C169.305 118.003 170.834 117.257 172.169 116.23C173.503 115.203 174.617 113.917 175.442 112.449C175.568 112.255 175.646 112.035 175.67 111.805C175.67 111.25 175.17 110.906 174.76 110.568C173.539 109.58 172.762 108.171 171.836 106.906C171.186 106.018 166.992 102.173 166.609 105.213C166.611 105.918 166.77 106.614 167.075 107.25C167.448 108.365 167.502 109.562 167.23 110.706C166.803 112.56 165.538 114.257 165.438 116.111Z" fill="white"/>
<path d="M188.07 126.214C186.96 124.716 185.838 123.226 184.702 121.742C182.893 119.368 181.001 118.463 178.216 119.745C175.603 120.95 173.347 122.812 171.669 125.149C171.13 125.8 170.806 126.603 170.742 127.446C170.742 128.767 171.924 129.832 173.178 130.259C174.432 130.686 175.786 130.648 177.101 130.814C179.846 131.116 182.439 132.231 184.547 134.016C187.105 136.191 188.913 139.32 191.932 140.79C193.152 141.389 194.706 141.345 195.816 142.105C196.509 142.571 196.67 143.703 196.986 144.441C198.518 147.987 200.315 151.61 204.238 152.908C204.316 151.685 204.057 150.465 203.489 149.379C202.38 147.243 201.203 145.151 199.977 143.071C199.322 141.961 198.651 140.851 197.946 139.742C197.686 139.337 196.282 136.734 195.855 136.734C193.269 133.239 190.694 129.716 188.07 126.214Z" fill="white"/>
<path d="M222.687 114.54C221.111 113.614 218.831 114.052 217.233 114.857C216.608 115.155 216.054 115.582 215.607 116.111C215.396 116.344 215.269 116.641 215.246 116.954C215.237 117.11 215.281 117.265 215.372 117.392C215.463 117.519 215.595 117.611 215.746 117.653C216.062 117.703 216.339 117.481 216.622 117.337C216.903 117.212 217.206 117.145 217.513 117.14C217.82 117.135 218.125 117.193 218.409 117.309C218.978 117.548 219.505 117.873 219.974 118.275C220.438 118.678 220.937 119.038 221.466 119.351C221.76 119.527 222.095 119.622 222.437 119.628C222.67 119.609 222.895 119.542 223.101 119.431C223.306 119.32 223.486 119.168 223.63 118.985C223.978 118.543 224.189 118.01 224.237 117.45C224.286 116.89 224.169 116.328 223.902 115.833C223.626 115.297 223.205 114.849 222.687 114.54Z" fill="white"/>
<path d="M211.695 122.614C210.885 123.085 210.069 123.823 209.553 124.145C208.812 124.527 208.128 125.013 207.523 125.588C206.69 126.531 206.585 128.145 207.523 129C208.46 129.854 210.058 129.643 211.14 128.922C212.032 128.284 212.777 127.463 213.326 126.514C213.904 125.73 214.191 124.768 214.137 123.795C213.842 121.842 212.777 121.998 211.695 122.614Z" fill="#C4C3C6"/>
<path d="M197.225 110.096C197.048 109.985 196.862 109.886 196.67 109.802C193.43 108.448 189.219 110.024 186.383 111.677C185.473 112.232 184.519 112.976 184.491 114.03C184.473 114.194 184.504 114.359 184.58 114.505C184.656 114.652 184.774 114.772 184.919 114.851C185.162 114.916 185.42 114.89 185.645 114.779C189.873 113.336 194.292 112.533 198.756 112.399C198.701 111.921 198.533 111.464 198.267 111.064C198 110.664 197.644 110.332 197.225 110.096V110.096Z" fill="white"/>
<path d="M268.917 104.237C266.143 104.758 264.356 108.443 265.033 110.895C265.516 112.626 267.025 112.976 269.472 114.779C273.994 118.108 273.539 120.327 277.24 123.657C281.534 127.496 287.976 129.727 289.446 128.095C290.295 127.152 288.72 124.139 285.563 118.108C282.722 112.671 281.229 111.001 279.459 110.895C277.933 110.801 277.795 110.834 276.685 110.34C275.054 109.613 275.37 108.021 273.356 105.901C272.341 104.825 270.604 103.921 268.917 104.237Z" fill="white"/>
<path d="M152.676 136.063C153.231 137.356 149.464 139.07 149.347 141.611C149.186 144.985 155.567 147.826 156.56 148.27C160.999 150.256 165.926 150.955 170.714 151.693C172.789 152.015 174.815 152.314 176.723 153.258C177.028 153.408 181.367 156.587 180.496 156.953C179.098 157.586 174.77 155.566 172.873 155.227C168.179 154.384 162.331 151.787 157.614 152.914C156.811 153.06 156.061 153.416 155.439 153.946C155.133 154.217 154.914 154.571 154.808 154.966C154.703 155.361 154.716 155.778 154.846 156.165C155.179 156.981 156.094 157.364 156.921 157.663C169.072 162.102 181.467 166.119 193.169 171.673C201.952 175.84 209.437 181.422 217.582 186.565C224.412 190.876 232.857 194.444 233.673 193.223C234.228 192.424 231.381 189.667 226.46 184.901C219.618 178.281 215.363 174.913 215.363 174.913L214.886 174.536C214.725 174.414 214.569 174.286 214.425 174.17C212.028 172.317 209.254 170.652 207.462 168.621L206.846 168.067C198.26 160.383 188.944 153.556 179.031 147.682L178.571 147.349C178.121 147.021 177.672 146.683 177.239 146.328L176.845 146.139C169.433 142.516 161.704 137.594 165.321 128.8C166.853 125.077 164.211 122.586 160.993 121.082C158.717 120.102 156.18 119.907 153.78 120.527C151.984 120.926 150.286 121.681 148.787 122.747C137.74 130.331 129.428 142.882 123.963 154.928C124.867 152.925 127.436 150.839 128.779 149.019C130.388 146.833 131.908 144.58 133.528 142.405C136.824 137.966 140.431 134.937 144.747 131.63C146.59 130.215 147.843 129.638 148.232 129.965C148.842 130.52 146.739 132.912 147.677 134.404C148.676 136.002 152.144 134.853 152.676 136.063Z" fill="white"/>
<path d="M106.619 6.96121C106.574 6.51733 110.403 5.29667 114.386 5.85152C114.575 5.85152 115.435 6.05681 117.161 6.40637C121.844 7.36625 121.744 7.44393 122.709 7.51606C124.973 7.69916 125.15 7.26083 127.703 7.51606C128.968 7.64922 129.223 7.78238 131.032 8.0709C133.04 8.39272 134.533 8.50923 136.025 8.62575C142.556 9.14176 152.671 9.1806 152.671 9.1806C164.234 9.23053 170.021 9.25273 173.2 10.2903C179.781 12.4375 180.524 15.0176 187.071 15.8388C190.754 16.3312 194.486 16.3312 198.168 15.8388C201.273 15.2328 204.446 15.0462 207.601 15.2839C208.954 15.4115 210.93 15.6889 211.485 16.9484C211.594 17.2122 211.651 17.495 211.651 17.7807C211.651 18.0664 211.594 18.3493 211.485 18.613C210.602 20.4551 205.592 19.0735 197.613 18.0581C192.509 17.409 188.991 16.9484 184.297 16.9484C177.217 16.9484 175.714 17.9194 172.645 16.3936C169.577 14.8678 168.989 12.837 165.432 11.9548C163.446 11.4666 162.442 11.805 159.329 11.9548C155.805 12.1016 152.276 11.9158 148.787 11.4C141.102 10.4456 138.633 8.62575 135.471 10.2903C134.699 10.7009 133.972 11.2779 132.696 11.4C130.943 11.5775 129.922 10.7342 127.148 9.73544C125.875 9.29427 124.578 8.92381 123.264 8.62575C121.655 8.22626 119.829 7.8989 114.386 7.51606C108.2 7.08883 106.641 7.24418 106.619 6.96121Z" fill="white"/>
<path d="M176.562 21.9532C181.612 21.0701 186.81 22.0079 191.233 24.5998C193.496 25.8871 195.755 27.596 198.362 27.5072C200.637 27.4296 202.662 25.9703 204.926 25.7373C208.083 25.4155 210.919 27.4906 213.92 28.5115C214.508 28.7112 215.23 28.85 215.69 28.4338C215.738 28.3972 215.777 28.3512 215.805 28.2987C215.834 28.2462 215.852 28.1883 215.857 28.1287C215.857 27.8512 215.491 27.768 215.213 27.7458C211.989 27.4961 209.215 24.9327 205.98 24.9716C203.289 25.0104 200.826 26.8858 198.14 26.6861C196.759 26.5862 195.494 25.9426 194.257 25.3433C191.399 23.9673 188.442 22.7411 185.451 21.6314C184.427 21.1951 183.345 20.9092 182.239 20.7825C181.042 20.7646 179.849 20.9235 178.699 21.2541C177.983 21.4317 177.273 21.809 176.562 21.9532Z" fill="white"/>
<path d="M226.648 212.099C230.83 209.133 235.928 207.745 241.036 208.182C243.632 208.376 246.412 208.948 248.726 207.749C250.745 206.7 251.949 204.509 253.891 203.31C256.605 201.646 260.056 202.323 263.207 201.956C263.823 201.884 264.533 201.696 264.772 201.124C264.797 201.069 264.809 201.01 264.809 200.949C264.809 200.889 264.797 200.83 264.772 200.775C264.65 200.53 264.284 200.608 264.028 200.708C261.01 201.868 257.404 200.741 254.507 202.178C252.094 203.371 250.668 206.123 248.16 207.094C246.873 207.594 245.452 207.566 244.071 207.555C240.886 207.555 237.695 207.671 234.522 207.965C233.41 208.014 232.312 208.221 231.259 208.581C230.17 209.078 229.16 209.735 228.263 210.529C227.708 211.017 227.237 211.661 226.648 212.099Z" fill="white"/>
<path d="M260.866 43.0263C261.176 43.3038 262.136 42.1219 263.085 42.4715C263.79 42.7378 263.834 43.6145 264.195 43.5812C264.65 43.5423 265.166 42.072 264.75 40.8069C264.456 39.9303 263.673 39.0203 263.085 39.1424C262.808 39.2034 262.658 39.4698 262.53 39.6973C260.949 42.4826 260.688 42.8765 260.866 43.0263Z" fill="white"/>
<path d="M260.312 45.2456C260.2 44.9465 260.194 44.6183 260.295 44.3155C260.396 44.0127 260.598 43.7535 260.866 43.5811C261.048 43.5293 261.24 43.5293 261.421 43.5811C262.018 43.6029 262.595 43.7955 263.086 44.1359C263.28 44.3135 263.469 44.5909 263.641 45.8005C263.707 46.2998 264.012 48.4859 263.641 48.5747C263.269 48.6635 263.23 47.293 261.976 46.3553C261.149 45.7394 260.545 45.8449 260.312 45.2456Z" fill="white"/>
<path d="M264.733 35.8577C265.843 35.2584 266.398 34.1487 267.752 32.7949L268.068 32.4953C268.362 32.2234 268.623 31.9848 268.956 31.6575L269.311 31.2913L269.638 30.9528C270.299 30.2648 271.408 29.1551 270.853 28.6003C269.81 27.5627 269.189 28.2563 268.634 29.0552C268.518 29.2161 268.407 29.3826 268.284 29.538C267.535 30.8196 265.871 31.9293 265.605 33.494C265.51 33.6438 265.421 33.7992 265.333 33.9545C265.043 34.4486 264.796 34.9665 264.595 35.5026C264.595 35.6524 264.639 35.8133 264.733 35.8577Z" fill="white"/>
<path d="M281.406 18.6241C279.248 17.5144 276.624 17.2315 274.715 18.896C274.152 19.4945 273.545 20.0508 272.901 20.5605C272.29 20.9489 271.453 21.2264 271.319 21.9421C271.301 22.1667 271.336 22.3926 271.422 22.601C271.507 22.8094 271.642 22.9943 271.813 23.1406C272.135 23.4568 272.529 23.6954 272.845 24.0117C273.113 24.2814 273.323 24.6032 273.461 24.9574C273.6 25.3115 273.664 25.6902 273.65 26.0702C273.774 25.4008 273.774 24.7143 273.65 24.045C273.587 23.8369 273.587 23.615 273.65 23.4069C273.734 23.2479 273.874 23.1259 274.043 23.0644C274.213 23.0029 274.398 23.0063 274.565 23.074C274.897 23.2211 275.188 23.4457 275.414 23.7287C277.045 25.4444 278.861 26.974 280.829 28.2896C280.903 28.3619 280.992 28.4169 281.09 28.4505C281.187 28.4842 281.291 28.4955 281.394 28.4838C281.497 28.4721 281.595 28.4377 281.683 28.3829C281.77 28.3282 281.845 28.2546 281.9 28.1675C282.466 27.7335 282.886 27.1374 283.104 26.4586C283.144 26.0464 283.097 25.6306 282.966 25.2378C282.835 24.845 282.623 24.484 282.344 24.1781C281.616 23.2158 280.71 22.4021 279.675 21.7812C279.481 21.6341 279.259 21.527 279.023 21.4661C278.787 21.4051 278.541 21.3915 278.299 21.4261C278.844 21.3478 279.398 21.3796 279.93 21.5197C280.462 21.6598 280.96 21.9053 281.395 22.2417C281.85 22.6783 282.332 23.086 282.838 23.4624C283.093 23.6495 283.401 23.7503 283.717 23.7503C284.034 23.7503 284.342 23.6495 284.597 23.4624C284.777 23.2481 284.895 22.988 284.937 22.7109C284.98 22.4338 284.944 22.1505 284.835 21.8922C284.572 21.2232 284.151 20.6276 283.609 20.1555C282.949 19.546 282.208 19.0307 281.406 18.6241V18.6241Z" fill="white"/>
<path d="M278.899 15.1452C278.824 14.9674 278.772 14.781 278.743 14.5904C278.51 12.8093 279.853 11.1781 281.401 10.2404C291.15 4.2758 305.392 7.66592 313.954 14.3241C314.539 14.6958 314.992 15.2436 315.247 15.8887C315.441 16.549 315.075 17.409 314.387 17.4756C313.765 16.7099 313.044 15.8887 312.067 15.7722C311.091 15.6557 310.037 16.8098 310.619 17.6032C310.855 17.8547 311.148 18.0451 311.474 18.1581C312.138 18.4264 312.673 18.9413 312.966 19.5951C313.188 20.272 312.766 21.1709 312.056 21.1931C311.463 21.1931 311.019 20.6382 310.68 20.1777L308.211 16.6378C307.851 16.2174 307.637 15.6918 307.601 15.1397C307.601 14.5849 308.194 14.03 308.71 14.2797C309.376 13.3309 308.278 11.8938 307.129 12.027C305.981 12.1602 305.204 13.3919 305.22 14.546C305.322 15.706 305.786 16.8047 306.547 17.6864L301.398 16.3992C301.509 17.0144 301.799 17.5837 302.229 18.037C302.66 18.4904 303.214 18.8082 303.822 18.9515C305.021 19.2178 306.269 18.7573 307.495 18.835C308.722 18.9127 310.098 20.0279 309.626 21.1653C309.154 22.3028 307.573 22.1696 306.402 21.8644L299.139 19.9669C299.894 20.9238 300.545 21.9579 301.081 23.0518C301.42 23.7343 301.636 24.7163 300.97 25.1214C300.305 25.5264 299.683 24.9938 299.184 24.5665C298.307 23.7953 297.392 22.963 297.081 21.8422C296.77 20.7215 297.358 19.2678 298.512 19.1235C299.067 19.0569 299.85 19.2289 300.105 18.7129C300.288 18.3467 300.044 17.9306 299.905 17.5477C299.736 17.0775 299.74 16.5626 299.915 16.0949C300.091 15.6271 300.427 15.2368 300.863 14.9936C301.3 14.7504 301.808 14.6701 302.298 14.767C302.788 14.8638 303.228 15.1316 303.539 15.5225C304.355 14.718 303.861 13.1533 302.807 12.6928C302.263 12.5087 301.677 12.4834 301.119 12.62C300.561 12.7566 300.053 13.0494 299.655 13.4641C298.873 14.3081 298.264 15.2979 297.863 16.377C296.604 16.5268 296.06 14.5959 296.809 13.5695C297.558 12.543 298.879 12.1768 299.999 11.5942C300.267 11.4835 300.491 11.2887 300.637 11.0394C300.711 10.842 300.725 10.6275 300.677 10.4224C300.63 10.2173 300.524 10.0305 300.371 9.8853C299.6 9.05303 298.152 9.14736 297.264 9.82982C296.403 10.5823 295.802 11.5886 295.55 12.7039C295.188 13.7198 295.108 14.8143 295.316 15.8721C295.43 16.3975 295.695 16.8779 296.08 17.2529C296.465 17.628 296.952 17.8811 297.48 17.9805C296.926 18.8017 295.217 18.1803 294.867 19.0902C294.728 19.4786 294.945 19.8947 295.011 20.2998C295.074 20.7073 294.977 21.1232 294.741 21.4611C294.504 21.799 294.147 22.033 293.743 22.1144C293.339 22.1958 292.919 22.1184 292.57 21.8983C292.222 21.6781 291.971 21.3322 291.871 20.9323C291.516 19.4952 293.141 18.3523 293.502 16.9097C293.752 15.8943 293.341 14.8401 293.214 13.797C293.086 12.7539 293.43 11.4555 294.445 11.2058C294.695 10.196 293.247 9.43588 292.337 9.94079C291.427 10.4457 291.127 11.6053 291.183 12.654C291.238 13.7026 291.549 14.7125 291.505 15.75C289.74 16.4547 287.654 14.2297 288.475 12.5153C288.665 12.2066 288.826 11.8816 288.958 11.5443C289.246 10.4901 287.998 9.45807 286.938 9.72994C286.422 9.91218 285.982 10.2621 285.689 10.7237C285.395 11.1854 285.265 11.7322 285.318 12.2767C285.46 13.3712 285.973 14.3839 286.772 15.1452C287.521 15.9442 288.398 16.61 289.13 17.4201C288.669 18.2524 287.432 18.3634 286.6 17.8973C285.81 17.3503 285.193 16.5902 284.819 15.7056C284.014 14.1687 283.293 12.4598 283.57 10.7453C281.423 11.4111 280.863 14.8012 282.683 16.1273C281.712 17.4035 279.526 16.5989 278.899 15.1452Z" fill="white"/>
<path d="M310.381 26.6251C310.198 26.0703 309.715 25.4599 310.07 25.005C310.32 24.6831 310.802 24.7275 311.207 24.6831C311.438 24.661 311.662 24.5951 311.868 24.4889L312.067 24.378C312.939 23.6678 313.011 22.2085 313.072 21.1932C313.072 21.097 313.072 21.0082 313.072 20.9268C313.011 19.3122 311.607 19.1791 310.947 19.168H310.786C310.786 20.2777 311.895 21.9422 311.08 23.0519C311.005 23.1275 310.923 23.1962 310.836 23.2572L310.686 23.3959C309.576 24.3613 308.278 25.2047 307.751 24.5777L309.282 26.3976C308.089 26.3976 306.902 26.0314 305.698 26.0203C304.938 26.0203 303.95 26.2534 303.883 27.0135C303.822 27.6849 304.549 28.1232 305.171 28.3784C306.242 28.8389 307.39 29.305 308.533 29.1053C309.676 28.9055 310.752 27.7348 310.381 26.6251Z" fill="white"/>
<path d="M310.27 11.8828C310.27 11.8828 310.27 11.8828 310.27 11.9161C310.353 12.1218 310.392 12.3423 310.385 12.5638C310.378 12.7853 310.326 13.003 310.231 13.2033C310.012 13.7022 309.76 14.186 309.477 14.6515C309.753 15.1701 310.094 15.6511 310.492 16.083C310.505 16.0992 310.52 16.114 310.536 16.1274C310.589 15.9979 310.601 15.8554 310.572 15.7188C310.542 15.5821 310.472 15.4577 310.37 15.3617C310.925 14.3519 312.706 14.7236 313.083 15.8167C313.186 16.191 313.189 16.5858 313.092 16.9616C312.994 17.3374 312.8 17.6811 312.528 17.9584L312.623 18.0305C312.843 18.2129 313.011 18.4512 313.109 18.7205C313.206 18.9898 313.23 19.2803 313.177 19.5619C313.6 19.5729 314.006 19.7253 314.331 19.9947C314.733 20.4054 315.009 20.9225 315.126 21.4849C315.243 22.0474 315.196 22.6316 314.992 23.1684C314.568 24.2387 313.939 25.2152 313.139 26.0425C313.544 27.241 315.524 26.9025 316.124 25.7873C316.723 24.672 316.49 23.3182 316.534 22.0531C316.52 21.7647 316.598 21.4792 316.756 21.2375C316.903 21.0859 317.091 20.9809 317.298 20.9355C317.504 20.8902 317.719 20.9064 317.916 20.9823C319.025 21.3152 319.53 22.6468 319.303 23.7565C318.994 24.8539 318.345 25.8251 317.45 26.5308C316.684 27.2964 315.725 27.8408 314.675 28.1065C314.153 28.231 313.605 28.1985 313.1 28.0129C312.596 27.8274 312.158 27.4971 311.84 27.0634C311.341 27.9234 312.639 29.1885 311.946 29.9042C311.657 30.2038 311.185 30.1816 310.792 30.2982C310.395 30.4161 310.06 30.6825 309.855 31.0418C309.651 31.4012 309.593 31.8257 309.694 32.2266C309.795 32.6276 310.047 32.9741 310.397 33.1937C310.747 33.4133 311.169 33.4891 311.574 33.4053C313.022 33.1057 313.355 31.1415 314.498 30.1983C315.308 29.5325 316.434 29.4492 317.433 29.1219C318.432 28.7945 319.453 27.9123 319.242 26.9025C320.046 26.2478 321.356 27.2243 321.289 28.2619C321.223 29.2994 320.296 30.0762 319.342 30.4813C318.387 30.8863 317.328 31.0361 316.407 31.5244C316.534 33.422 319.436 34.343 320.629 32.8671C320.828 32.5618 321.052 32.2741 321.3 32.0071C322.127 31.2913 323.592 31.9738 323.808 33.0502C323.867 33.5946 323.74 34.1428 323.449 34.6067C323.158 35.0706 322.72 35.4233 322.205 35.608C321.16 35.9344 320.035 35.8972 319.014 35.5026C317.977 35.1697 316.995 34.6648 315.946 34.3485C315.391 35.1309 315.824 36.2905 316.606 36.8398C317.438 37.3179 318.389 37.5489 319.347 37.5056C321.084 37.5667 322.943 37.5056 324.341 36.4902C324.663 38.7096 321.844 40.6849 319.863 39.614C319.125 41.04 320.795 42.6712 322.377 42.6047C322.565 42.5978 322.752 42.5642 322.932 42.5048C324.641 41.9499 325.523 40.0246 325.706 38.2325C326.838 27.7625 319.092 17.2593 310.27 11.8828Z" fill="white"/>
<path d="M142.217 34.5705C132.818 45.4899 103.128 43.4924 92.7526 31.9072C92.3753 31.6465 92.059 31.3912 91.7705 31.1471C91.9259 31.9627 92.7526 32.9448 94.4171 34.1266C104.893 45.8172 135.06 47.7536 144.159 36.4847C144.048 35.8466 143.36 35.203 142.217 34.5705Z" fill="white"/>
<path d="M239.349 197.984C239.255 197.09 243.4 196.813 248.099 193.789C250.219 192.43 250.258 191.925 254.202 188.241C259.407 183.364 262.009 180.928 265.632 179.28C267.663 178.359 271.02 176.883 275.281 177.399C277.123 177.626 282.588 178.292 283.759 182.099C284.691 185.139 282.561 189.14 280.269 189.572C278.427 189.916 277.351 187.786 273.245 187.242C272.579 187.153 270.704 186.903 270.432 187.53C270.06 188.379 273.139 189.594 274.382 192.918C274.682 193.723 275.448 195.775 274.571 196.841C273.311 198.367 270.093 196.103 264.073 195.853C260.646 195.78 257.227 196.21 253.925 197.129C250.208 198.067 248.798 198.988 245.38 199.11C242.634 199.182 239.432 198.761 239.349 197.984Z" fill="white"/>
<path d="M202.052 203.932C202.052 204.348 205.342 205.347 208.71 204.487C211.029 203.898 212.594 202.633 214.258 203.377C214.775 203.662 215.339 203.85 215.923 203.932C216.816 204.037 217.998 203.876 218.142 203.377C218.309 202.789 216.872 202.117 217.033 201.712C217.194 201.307 218.536 201.679 219.807 201.712C222.115 201.779 222.836 200.78 225.355 200.048C229.139 198.938 232.568 199.748 232.568 200.048C232.568 200.347 230.582 200.281 230.349 201.158C230.116 202.034 231.509 203 232.014 203.377C232.636 203.945 233.405 204.329 234.233 204.487C235.798 204.675 236.425 203.377 238.672 202.267C241.568 200.813 243.443 201.474 243.665 200.603C243.915 199.593 241.624 197.679 239.227 197.274C237.784 197.035 237.507 197.545 235.343 197.274C233.484 197.046 233.268 196.619 232.014 196.719C230.543 196.841 230.349 197.457 228.684 197.828C226.776 198.256 226.593 197.545 224.801 197.828C222.404 198.217 222.348 199.543 219.807 200.048C218.697 200.27 217.776 200.198 215.923 200.048C213.498 199.859 212.594 199.437 211.484 200.048C210.608 200.536 210.846 200.98 209.82 201.712C208.793 202.445 208.066 202.395 205.936 202.822C204.055 203.199 202.035 203.621 202.052 203.932Z" fill="white"/>
<path d="M194.14 203.277C200.765 203.521 202.296 203.721 202.301 203.871C202.307 204.021 201.586 203.91 201.003 204.359C199.982 205.147 199.893 207.133 200.703 208.415C201.758 210.08 204.166 210.362 205.603 210.523C207.822 210.773 209.981 210.362 212.588 209.869C213.641 209.68 214.705 209.564 215.773 209.519C216.561 209.48 218.214 209.408 218.281 209.702C218.348 209.996 217.327 210.257 216.317 210.723C214.858 211.422 214.186 212.138 212.294 213.925C211.251 214.912 209.675 216.371 207.561 218.247C203.075 213.253 198.601 208.263 194.14 203.277Z" fill="#C4C3C6"/>
<path d="M207.268 221.376C208.755 217.542 212.817 215.523 216.096 213.053C218.187 211.467 220.046 209.569 222.282 208.187C224.518 206.806 227.276 205.968 229.778 206.767C230.5 207 231.476 207.277 231.859 206.623C231.983 206.368 232.013 206.077 231.942 205.802C231.193 201.884 228.025 204.487 226.144 205.463C224.368 206.379 222.216 206.018 220.274 206.495C217.916 207.089 216.079 208.881 214.359 210.601L202.99 221.931C203.856 222.244 204.756 222.456 205.67 222.564C205.939 222.615 206.216 222.596 206.475 222.508C206.913 222.314 207.085 221.798 207.257 221.354L207.268 221.376Z" fill="white"/>
<path d="M218.242 224.744C217.56 223.401 218.187 221.681 219.291 220.644C220.395 219.606 221.91 219.062 223.336 218.491C224.762 217.919 226.232 217.226 227.125 215.977C227.769 215.079 228.058 213.98 228.624 213.031C229.189 212.082 230.233 211.25 231.309 211.489C231.919 211.622 232.502 212.082 233.096 211.899C233.784 211.694 233.95 210.701 233.551 210.102C231.947 207.699 228.346 209.946 226.776 211.128C223.966 213.318 221.27 215.65 218.697 218.114L207.983 228.034C207.29 228.672 206.53 229.555 206.874 230.442C207.054 230.814 207.372 231.102 207.76 231.245C208.147 231.387 208.576 231.374 208.954 231.208C209.703 230.836 210.279 230.19 210.563 229.405C210.891 228.65 211.085 227.834 211.462 227.102C212.114 225.937 213.178 225.058 214.445 224.638C215.712 224.218 217.09 224.287 218.309 224.833C218.283 224.806 218.26 224.776 218.242 224.744Z" fill="white"/>
<path d="M216.683 234.693C215.884 234.404 214.697 234.576 214.464 235.247C214.264 235.835 214.858 236.668 215.574 236.912C216.55 237.239 217.793 236.496 217.793 235.802C217.81 235.247 217.133 234.837 216.683 234.693Z" fill="white"/>
<path d="M228.274 226.264C230.494 224.633 231.603 221.537 234.161 220.366C235.104 219.934 236.164 219.811 237.146 219.467C238.128 219.123 239.11 218.458 239.366 217.442C240.237 213.841 234.372 215.739 233.168 216.654C231.949 217.677 230.833 218.819 229.839 220.061C225.55 224.905 220.301 228.806 215.968 233.588C216.906 233.748 217.864 233.734 218.797 233.549C219.264 233.45 219.697 233.232 220.055 232.916C220.413 232.6 220.683 232.197 220.839 231.746C220.967 231.269 220.923 230.759 221.034 230.27C221.311 229.016 222.565 228.217 223.808 227.835C225.051 227.452 226.354 227.335 227.509 226.758C227.778 226.616 228.034 226.451 228.274 226.264V226.264Z" fill="white"/>
<path d="M243.871 219.712C243.594 219.467 242.861 219.884 242.207 220.266C240.971 221.029 239.85 221.963 238.878 223.041C236.869 225.071 237.435 224.444 236.658 225.26C234.3 227.746 234.2 228.145 232.219 230.254C230.128 232.473 229.079 233.583 228.335 234.138C227.223 234.853 226.277 235.799 225.561 236.912C225.317 237.317 224.729 238.266 225.006 238.576C225.284 238.887 226.765 238.327 227.781 237.467C228.657 236.723 228.702 236.24 229.445 235.247C230.927 233.266 231.803 233.782 233.329 231.918C234.755 230.182 234.3 229.377 235.548 228.589C236.98 227.69 238.117 228.395 238.878 227.479C239.815 226.37 238.911 224.339 239.432 224.15C239.843 223.995 240.298 225.26 241.097 225.26C241.896 225.26 242.429 223.989 243.316 221.931C244.143 220.011 243.954 219.761 243.871 219.712Z" fill="white"/>
<path d="M201.07 233.893C199.81 233.311 190.772 247.631 190.633 263.056C190.585 266.64 191.056 270.211 192.032 273.659C193.182 269.155 194.615 264.728 196.32 260.404C199.095 253.363 200.41 252.32 200.87 248.197C201.181 245.379 200.709 244.585 201.064 237.067C201.192 234.448 201.275 233.988 201.07 233.893Z" fill="#C4C3C6"/>
<path d="M288.608 138.46C289.235 138.232 291.382 141.439 292.492 145.118C292.714 145.856 294.822 153.052 291.382 157.88C291.016 158.396 290.078 159.711 289.163 159.544C287.898 159.322 287.526 156.442 287.498 156.215C287.154 153.441 288.425 151.848 289.163 149.557C291.01 143.803 287.826 138.754 288.608 138.46Z" fill="white"/>
<path d="M88.7523 389.994C87.5535 389.912 86.349 389.982 85.168 390.205C84.8716 390.287 84.5604 390.3 84.2581 390.244C84.0433 390.162 83.8555 390.022 83.7154 389.84C83.5754 389.658 83.4886 389.44 83.4646 389.212C83.2261 387.686 84.0861 386.093 84.1027 384.562C84.0537 382.974 84.0907 381.385 84.2137 379.801C84.4689 377.76 85.8782 376.655 87.6926 375.917C89.0298 375.396 90.5167 374.897 91.288 373.698C90.631 373.459 89.9066 373.485 89.2683 373.77C88.2086 374.114 87.171 374.53 86.139 374.952C87.0212 374.175 88.3584 372.733 86.7882 372.577C85.6785 372.483 84.6409 373.332 83.7587 372.222C82.649 370.802 85.279 366.868 87.6426 363.345C91.6209 357.43 92.5919 357.94 93.7459 355.022C95.8155 349.806 94.3008 344.214 93.7459 342.26C92.32 337.056 90.2005 336.041 90.9717 333.383C91.8151 330.487 95.4105 327.951 98.7396 327.834C101.73 327.735 104.221 329.599 105.398 328.389C105.88 327.901 105.62 327.435 105.953 326.725C107.035 324.455 111.729 324.994 114.83 324.505C119.524 323.773 122.143 320.449 125.372 317.292C129.428 313.336 136.508 307.627 149.785 300.092C138.516 308.565 130.366 315.223 127.592 317.847C125.505 319.828 124.262 321.176 124.262 321.176C121.522 324.161 121.799 324.505 120.379 325.615C117.604 327.768 115.457 327.219 114.83 328.944C114.342 330.304 115.13 332.129 115.94 332.273C116.85 332.434 117.577 330.453 118.159 330.609C118.892 330.808 119.241 334.287 118.159 337.822C116.173 344.324 111.118 345.151 108.172 352.803C107.428 354.75 107.9 354.306 107.062 356.686C103.367 367.184 96.6811 368.46 96.5202 374.996C96.437 378.514 98.2957 381.399 97.075 382.209C95.9653 382.947 94.0234 380.778 91.5266 381.655C90.4724 382.026 89.2572 382.964 89.3072 383.874C89.3849 385.172 91.976 385.222 92.6363 387.203C93.2965 389.184 92.0814 390.488 90.1284 390.155C89.6956 390.083 89.235 390.049 88.7523 389.994Z" fill="white"/>
<path d="M155.445 294.372C154.957 293.978 158.885 287.564 164.878 281.61C169.466 277.055 172.507 274.12 177.084 273.842C181.445 273.582 185.557 275.834 185.962 276.062C186.791 276.487 187.541 277.05 188.181 277.726C190.356 280.19 190.955 284.568 189.291 286.049C187.432 287.714 184.403 284.218 177.639 283.83C171.142 283.458 166.021 286.238 164.323 287.159C158.425 290.36 155.845 294.699 155.445 294.372Z" fill="white"/>
<path d="M195.949 282.165C193.436 301.03 194.412 312.881 195.949 320.449C196.859 324.451 197.232 328.556 197.059 332.656C196.759 339.009 195.15 343.753 192.62 350.966C192.348 351.732 192.093 352.47 191.838 353.185L191.655 353.74C191.51 354.328 191.51 354.883 191.1 355.266C191.039 355.427 190.983 355.593 190.922 355.754C187.626 364.926 185.929 368.754 185.929 368.754C183.831 373.543 182.755 375.413 183.709 377.077C185.185 379.657 190.783 380.406 194.995 378.642C195.294 378.52 195.588 378.381 195.871 378.231C196.471 377.077 198.135 377.077 198.54 376.04C198.668 375.873 198.784 375.707 198.895 375.529C199.112 375.176 199.298 374.805 199.45 374.419C199.529 374.224 199.594 374.024 199.644 373.82C199.714 373.557 199.756 373.287 199.772 373.016C199.697 372.758 199.598 372.507 199.478 372.267C199.363 372.037 199.226 371.819 199.067 371.617C195.916 370.968 194.806 367.639 194.512 364.654C194.512 364.493 194.562 364.327 194.601 364.149C194.64 363.972 194.69 363.8 194.751 363.594C194.812 363.389 194.751 363.173 194.778 362.962C194.812 362.324 194.845 361.697 194.862 361.103C194.862 360.809 194.862 360.515 194.862 360.221C194.862 359.333 194.945 358.445 194.984 357.608C195.05 357.339 195.141 357.077 195.256 356.825C195.64 355.972 196.227 355.226 196.964 354.65C197.236 354.538 197.497 354.405 197.747 354.251C200.343 352.642 200.288 349.596 199.628 346.638C199.628 346.405 199.628 346.172 199.628 345.939C199.655 345.246 199.7 344.519 199.772 343.759C200.493 335.885 202.652 337.1 203.656 328.223C204.266 322.796 203.7 317.875 202.546 308.248C201.081 296.081 199.977 294.011 200.327 287.719C200.596 282.988 201.53 278.319 203.101 273.848L195.949 282.165Z" fill="#C4C3C6"/>
<path d="M211.484 364.837C211.052 363.317 214.042 361.963 213.704 359.844C213.465 358.362 211.828 357.952 212.039 357.069C212.25 356.187 214.159 356.104 216.478 355.405C218.471 354.8 220.347 353.862 222.026 352.631C224.978 354.978 227.464 356.859 229.239 358.179C232.014 360.249 235.415 362.718 239.781 365.392C244.703 368.416 245.913 368.671 246.994 368.721C248.809 368.81 250.24 368.305 251.988 369.276C253.27 369.992 253.231 370.674 254.762 371.495C256.427 372.389 256.782 371.767 258.646 372.605C260.085 373.31 261.397 374.247 262.53 375.379V375.379C262.53 375.379 266.153 379.419 265.304 380.928C264.75 381.932 262.059 382.037 260.311 380.928C258.274 379.618 258.302 377.149 256.982 377.044C255.811 376.955 255.317 378.842 254.207 378.708C252.998 378.57 253.231 376.278 251.433 374.824C250.324 373.942 248.659 373.859 245.33 373.715C243.244 373.632 242.267 373.715 240.891 373.715C238.899 373.715 238.361 373.559 231.459 372.605C225.222 371.751 223.863 371.634 222.581 372.605C221.122 373.715 221.028 375.263 219.807 375.379C218.287 375.529 217.948 373.199 215.923 372.605C212.944 371.74 210.486 375.856 208.155 374.824C207.56 374.518 207.078 374.03 206.779 373.432C206.48 372.833 206.379 372.155 206.491 371.495C207.284 368.41 215.424 368.283 215.368 367.057C215.329 366.269 211.928 366.38 211.484 364.837Z" fill="white"/>
<path d="M168.096 302.251C167.663 302.506 167.197 302.761 166.719 303.011C158.78 307.183 147.771 310.912 140.231 313.12C137.806 313.83 135.238 314.468 134.927 313.963C134.838 313.808 135.077 313.481 135.831 313.092C136.437 312.801 137.062 312.551 137.701 312.343C148.704 308.543 160.117 304.181 171.447 299.46C171.486 300.003 170.049 301.108 168.096 302.251Z" fill="black"/>
<path d="M180.613 294.877C180.491 294.843 180.364 294.816 180.236 294.793C178.094 294.477 175.531 295.57 173.844 296.58C173.289 296.902 172.735 297.34 172.796 297.817C172.803 297.902 172.838 297.982 172.897 298.043C172.955 298.105 173.033 298.145 173.117 298.156C173.277 298.159 173.434 298.124 173.578 298.056C176.202 297.003 178.933 296.242 181.723 295.787C181.633 295.552 181.484 295.344 181.289 295.185C181.094 295.025 180.862 294.919 180.613 294.877V294.877Z" fill="black"/>
</g>
<defs>
<clipPath id="clip0_9_2659">
<rect width="400" height="400" fill="white"/>
</clipPath>
</defs>
</svg>
