<svg width="660" height="660" viewBox="0 0 660 660" fill="none" xmlns="http://www.w3.org/2000/svg">
<path fill-rule="evenodd" clip-rule="evenodd" d="M132.34 440.01L138.993 440.01L138.993 446.663L132.34 446.663L132.34 453.333L138.993 453.333L138.993 460.003L132.34 460.003L132.34 466.657L125.67 466.657L125.67 473.326L132.34 473.326L132.34 466.673L138.993 466.673L138.993 473.326L132.34 473.326L132.34 480L139.01 480L139.01 473.33L145.663 473.33L145.663 466.677L152.333 466.677L152.333 473.33L159.003 473.33L159.003 466.677L165.656 466.677L165.656 473.33L159.003 473.33L159.003 480L165.673 480L165.673 473.33L172.326 473.33L172.326 480L179 480L179 473.33L172.33 473.33L172.33 466.677L179 466.677L179 460.006L172.33 460.006L172.33 453.337L179 453.337L179 446.667L172.33 446.667L172.33 440.013L172.33 439.997L165.677 439.997L165.677 433.343L159.007 433.343L159.007 439.997L152.337 439.997L152.337 433.343L145.666 433.343L145.666 439.997L139.013 439.997L139.013 433.343L132.343 433.343L132.343 439.997L125.673 439.997L125.673 446.667L132.343 446.667L132.343 440.01L132.34 440.01ZM172.33 439.994L172.33 433.34L179 433.34L179 440.01L172.33 440.01L172.33 439.994ZM152.337 473.33L152.337 480L145.666 480L145.666 473.33L152.337 473.33ZM132.34 460.006L132.34 453.337L125.67 453.337L125.67 460.006L132.34 460.006ZM165.677 466.66L172.33 466.66L172.33 460.006L165.677 460.006L165.677 466.66ZM165.66 433.34L165.66 426.67L159.007 426.67L159.007 433.34L152.337 433.34L152.337 426.67L145.666 426.67L145.666 433.34L138.996 433.34L138.996 426.67L132.343 426.67L132.343 433.34L125.673 433.34L125.673 426.67L132.343 426.67L132.343 420L139.013 420L139.013 426.67L145.666 426.67L145.666 420L152.337 420L152.337 426.67L159.007 426.67L159.007 420L165.677 420L165.677 426.67L172.33 426.67L172.33 420L179 420L179 426.67L172.33 426.67L172.33 433.34L165.66 433.34ZM139.013 446.663L139.013 453.333L145.666 453.333L145.666 446.663L139.013 446.663ZM152.337 446.663L152.337 440.01L145.666 440.01L145.666 446.663L152.337 446.663ZM159.007 446.663L152.337 446.663L152.337 453.333L159.007 453.333L159.007 446.663ZM159.007 446.663L165.66 446.663L165.66 440.01L159.007 440.01L159.007 446.663ZM159.007 460.006L165.66 460.006L165.66 453.337L159.007 453.337L159.007 460.006ZM152.337 460.006L152.337 466.66L159.007 466.66L159.007 460.006L152.337 460.006ZM145.663 460.006L152.333 460.006L152.333 453.337L145.663 453.337L145.663 460.006ZM145.663 460.006L139.01 460.006L139.01 466.66L145.663 466.66L145.663 460.006ZM165.677 453.337L165.677 446.667L172.33 446.667L172.33 453.337L165.677 453.337ZM119 473.33L125.67 473.33L125.67 480L119 480L119 473.33ZM125.67 460.006L119 460.006L119 466.677L125.67 466.677L125.67 460.006ZM119 446.663L125.67 446.663L125.67 453.333L119 453.333L119 446.663ZM125.67 433.34L119 433.34L119 440.01L125.67 440.01L125.67 433.34ZM125.67 420L119 420L119 426.67L125.67 426.67L125.67 420Z" fill="#1F242C"/>
<path fill-rule="evenodd" clip-rule="evenodd" d="M493.34 20.0102L499.993 20.0102L499.993 26.6635L493.34 26.6635L493.34 33.3334L499.993 33.3334L499.993 40.0032L493.34 40.0032L493.34 46.6566L486.67 46.6566L486.67 53.3264L493.34 53.3264L493.34 46.6731L499.993 46.6731L499.993 53.3264L493.34 53.3264L493.34 60L500.01 60L500.01 53.3302L506.663 53.3301L506.663 46.6768L513.333 46.6768L513.333 53.3301L520.003 53.3301L520.003 46.6768L526.656 46.6768L526.656 53.3301L520.003 53.3301L520.003 60L526.673 60L526.673 53.3301L533.326 53.3301L533.326 60L540 60L540 53.3301L533.33 53.3301L533.33 46.6768L540 46.6768L540 40.0064L533.33 40.0064L533.33 33.3365L540 33.3365L540 26.6667L533.33 26.6667L533.33 20.0133L533.33 19.9968L526.677 19.9968L526.677 13.3435L520.007 13.3435L520.007 19.9968L513.337 19.9968L513.337 13.3435L506.666 13.3435L506.666 19.9968L500.013 19.9968L500.013 13.3435L493.343 13.3435L493.343 19.9968L486.673 19.9968L486.673 26.6667L493.343 26.6667L493.343 20.0102L493.34 20.0102ZM533.33 19.9936L533.33 13.3397L540 13.3397L540 20.0101L533.33 20.0101L533.33 19.9936ZM513.337 53.3301L513.337 60L506.666 60L506.666 53.3301L513.337 53.3301ZM493.34 40.0064L493.34 33.3366L486.67 33.3366L486.67 40.0064L493.34 40.0064ZM526.677 46.6603L533.33 46.6603L533.33 40.0064L526.677 40.0064L526.677 46.6603ZM526.66 13.3397L526.66 6.66988L520.007 6.66988L520.007 13.3398L513.337 13.3398L513.337 6.66988L506.666 6.66988L506.666 13.3398L499.996 13.3398L499.996 6.66989L493.343 6.66989L493.343 13.3398L486.673 13.3398L486.673 6.66989L493.343 6.66989L493.343 1.93377e-05L500.013 1.87546e-05L500.013 6.66989L506.666 6.66988L506.666 1.81729e-05L513.337 1.75898e-05L513.337 6.66988L520.007 6.66988L520.007 1.70067e-05L526.677 1.64235e-05L526.677 6.66988L533.33 6.66988L533.33 1.58419e-05L540 1.52588e-05L540 6.66988L533.33 6.66988L533.33 13.3397L526.66 13.3397ZM500.013 26.6635L500.013 33.3334L506.666 33.3334L506.666 26.6635L500.013 26.6635ZM513.337 26.6635L513.337 20.0102L506.666 20.0102L506.666 26.6635L513.337 26.6635ZM520.007 26.6635L513.337 26.6635L513.337 33.3333L520.007 33.3333L520.007 26.6635ZM520.007 26.6635L526.66 26.6635L526.66 20.0102L520.007 20.0102L520.007 26.6635ZM520.007 40.0064L526.66 40.0064L526.66 33.3365L520.007 33.3365L520.007 40.0064ZM513.337 40.0064L513.337 46.6603L520.007 46.6603L520.007 40.0064L513.337 40.0064ZM506.663 40.0064L513.333 40.0064L513.333 33.3366L506.663 33.3366L506.663 40.0064ZM506.663 40.0064L500.01 40.0064L500.01 46.6603L506.663 46.6603L506.663 40.0064ZM526.677 33.3365L526.677 26.6667L533.33 26.6667L533.33 33.3365L526.677 33.3365ZM480 53.3302L486.67 53.3302L486.67 60L480 60L480 53.3302ZM486.67 40.0064L480 40.0064L480 46.6768L486.67 46.6768L486.67 40.0064ZM480 26.6635L486.67 26.6635L486.67 33.3334L480 33.3334L480 26.6635ZM486.67 13.3398L480 13.3398L480 20.0102L486.67 20.0102L486.67 13.3398ZM486.67 1.99211e-05L480 2.05042e-05L480 6.66989L486.67 6.66989L486.67 1.99211e-05ZM306.67 359.6L300 359.6L300 299.6L306.67 299.6L306.67 359.6ZM313.333 359.6L320 359.6L320 299.6L313.333 299.6L313.333 359.6ZM326.666 359.6L333.333 359.6L333.333 299.6L326.666 299.6L326.666 359.6ZM346.667 359.6L340 359.6L340 299.6L346.667 299.6L346.667 359.6ZM353.333 359.6L360 359.6L360 299.6L353.333 299.6L353.333 359.6Z" fill="#1F242C"/>
<path fill-rule="evenodd" clip-rule="evenodd" d="M420 485.67L420 479L480 479L480 485.67L420 485.67ZM420 492.333L420 499L480 499L480 492.333L420 492.333ZM420 505.667L420 512.333L480 512.333L480 505.667L420 505.667ZM420 525.667L420 519L480 519L480 525.667L420 525.667ZM420 532.333L420 539L480 539L480 532.333L420 532.333Z" fill="#4038FF"/>
<path fill-rule="evenodd" clip-rule="evenodd" d="M360 126.27L360 119.6L420 119.6L420 126.27L360 126.27ZM360 132.933L360 139.6L420 139.6L420 132.933L360 132.933ZM360 146.267L360 152.933L420 152.933L420 146.267L360 146.267ZM360 166.267L360 159.6L420 159.6L420 166.267L360 166.267ZM360 172.933L360 179.6L420 179.6L420 172.933L360 172.933ZM60 306.27L60 299.6L120 299.6L120 306.27L60 306.27ZM60 312.933L60 319.6L120 319.6L120 312.933L60 312.933ZM60 326.267L60 332.933L120 332.933L120 326.267L60 326.267ZM60 346.267L60 339.6L120 339.6L120 346.267L60 346.267ZM60 352.933L60 359.6L120 359.6L120 352.933L60 352.933Z" fill="white"/>
<path fill-rule="evenodd" clip-rule="evenodd" d="M473.333 479.6L480 479.6C480 446.463 453.137 419.6 420 419.6L420 426.267C449.457 426.267 473.333 450.143 473.333 479.6ZM460 479.6L466.667 479.6C466.667 453.827 445.773 432.933 420 432.933L420 439.6C442.09 439.6 460 457.51 460 479.6ZM453.333 479.6L446.666 479.6C446.666 464.873 434.727 452.933 420 452.933L420 446.267C438.41 446.267 453.333 461.19 453.333 479.6ZM433.333 479.6L440 479.6C440 468.553 431.047 459.6 420 459.6L420 466.267C427.363 466.267 433.333 472.237 433.333 479.6ZM420 479.6L426.667 479.6C426.667 475.917 423.683 472.933 420 472.933L420 479.6Z" fill="#1F242C"/>
<path fill-rule="evenodd" clip-rule="evenodd" d="M60 186.267L60 179.6C26.8635 179.6 2.34847e-06 206.463 5.24537e-06 239.6L6.66666 239.6C6.66666 210.143 30.5435 186.267 60 186.267ZM60 199.6L60 192.933C34.2267 192.933 13.3333 213.827 13.3333 239.6L20 239.6C20 217.51 37.9099 199.6 60 199.6ZM60 206.267L60 212.934C45.2731 212.934 33.3333 224.873 33.3333 239.6L26.6667 239.6C26.6667 221.19 41.5899 206.267 60 206.267ZM60 226.267L60 219.6C48.9531 219.6 40 228.553 40 239.6L46.6667 239.6C46.6667 232.237 52.6368 226.267 60 226.267ZM60 239.6L60 232.933C56.3168 232.933 53.3333 235.917 53.3333 239.6L60 239.6Z" fill="#4038FF"/>
<path d="M240 180L180 180L180 120C213.137 120 240 146.863 240 180Z" fill="#1F242C"/>
<path d="M540 359.6L540 299.6L600 299.6C600 332.737 573.137 359.6 540 359.6Z" fill="#4038FF"/>
<path d="M239.4 539.6L239.4 599.6L179.4 599.6C179.4 566.463 206.264 539.6 239.4 539.6Z" fill="#1F242C"/>
<path fill-rule="evenodd" clip-rule="evenodd" d="M653.33 479.6L660 479.6L660 419.6L653.33 419.6L653.33 479.6ZM633.327 479.6L626.657 479.6L626.657 419.6L633.327 419.6L633.327 479.6ZM613.323 479.6L619.993 479.6L619.993 419.6L613.323 419.6L613.323 479.6ZM600 479.6L606.67 479.6L606.67 419.6L600 419.6L600 479.6ZM646.66 479.6L639.99 479.6L639.99 419.6L646.66 419.6L646.66 479.6Z" fill="#1F242C"/>
<path fill-rule="evenodd" clip-rule="evenodd" d="M172.73 119.6L179.4 119.6L179.4 59.6L172.73 59.6L172.73 119.6ZM152.727 119.6L146.057 119.6L146.057 59.6L152.727 59.6L152.727 119.6ZM132.724 119.6L139.394 119.6L139.394 59.6L132.724 59.6L132.724 119.6ZM119.4 119.6L126.07 119.6L126.07 59.6L119.4 59.6L119.4 119.6ZM166.061 119.6L159.391 119.6L159.391 59.6L166.061 59.6L166.061 119.6Z" fill="#1F242C"/>
<g clip-path="url(#clip0_268_58176)">
<path d="M526.249 80.058C524.543 58.935 509.72 40.65 488.489 33.4509C469.796 27.1256 451.036 31.1122 439.576 43.8542L438.128 45.4688L437.554 47.5578C436.838 50.1628 436.438 50.4458 434.524 51.8024C431.92 53.506 429.679 55.7097 427.933 58.2858L427.375 59.1181L427.009 60.0668C426.215 62.1268 425.929 64.348 426.177 66.5419C424.002 67.9672 422.208 69.9012 420.95 72.1764L420.376 73.1917L420.076 74.3236C419.968 74.7314 419.876 75.0311 419.81 75.2474C418.09 76.5411 416.609 78.1238 415.432 79.9248L415.082 80.4658C406.593 67.5989 394.825 52.876 374.301 48.5649C369.823 47.4831 365.199 47.1401 360.61 47.5495C356.944 47.7911 353.266 47.7911 349.599 47.5495C346.038 47.3944 342.502 46.8757 339.046 46.0015C335.256 44.9572 331.303 44.6381 327.394 45.061L326.87 45.1026L326.354 45.2108C320.886 46.3094 312.422 45.7102 309.892 44.0457L308.968 43.4381L307.944 43.0386C279.139 32.7851 258.674 33.7172 238.866 34.6244C236.452 34.7326 233.981 34.8491 231.517 34.9323C225.691 32.1525 217.527 31.8363 212.317 33.7089C211.809 33.7588 211.26 33.5757 209.312 32.7684C205.004 30.7542 200.272 29.8147 195.521 30.0302C189.704 30.1717 181.639 32.7018 176.446 34.8574C166.633 38.9438 160.982 43.6628 159.176 49.2973C158.621 51.0289 158.45 52.861 158.677 54.6654C157.403 57.0754 156.651 59.727 156.471 62.4471C151.861 72.734 152.585 82.8211 158.577 91.0689C171.252 108.547 205.226 113.407 230.76 109.179C248.162 106.291 260.721 99.6995 267.013 90.3032C270.542 90.3956 274.072 90.2622 277.583 89.9037C284.341 89.3378 288.403 88.9965 294.12 92.6585L294.512 92.8999C299.788 95.9377 303.6 96.7949 307.636 97.7187C309.692 98.1848 311.798 98.6675 314.627 99.5164C319.567 101.155 324.405 103.084 329.117 105.292C329.875 105.642 330.624 105.983 331.364 106.308C317.282 116.079 306.946 125.658 299.963 135.379L299.047 136.661C294.896 142.632 290.394 148.351 285.565 153.789C283.346 156.348 280.987 158.782 278.499 161.079C276.239 163.088 274.225 165.356 272.498 167.837C269.428 172.143 266.825 176.763 264.733 181.62C262.935 185.573 262.17 187.104 260.247 188.586C252.415 192.531 249.286 199.713 246.748 205.523C246.648 205.747 246.548 205.972 246.456 206.197C225.175 227.511 196.52 256.582 202.646 294.492L202.721 294.883C205.842 310.022 217.626 332.827 234.014 336.131L234.63 336.247C235.741 336.407 236.823 336.727 237.842 337.196C239.382 341.898 240.764 346.667 242.095 351.295C248.337 372.867 254.779 395.139 277.974 411.476L281.02 438.342C271.308 445.732 259.073 459.506 253.189 470.101C243.851 481.004 233.373 486.455 223.228 491.74C215.504 495.76 208.164 499.572 201.93 505.423C201.231 505.531 200.44 505.589 199.541 505.664C195.646 505.964 189.354 506.446 184.444 512.672C183.489 512.711 182.532 512.686 181.581 512.597C178.393 512.389 173.574 512.064 168.806 514.827C155.739 522.401 155.156 545.771 159.759 559.029L159.909 559.479L160.108 559.895C160.547 560.765 160.875 561.688 161.082 562.641C160.438 563.509 159.749 564.342 159.018 565.138C156.802 567.543 154.818 570.151 153.092 572.928L152.843 573.344L152.635 573.777C150.927 577.395 150.122 581.373 150.288 585.37C150.378 588.276 149.909 591.172 148.906 593.901L148.748 594.376L148.64 594.867C147.633 599.486 144.112 602.307 140.999 604.796C138.644 606.677 136.422 608.458 135.115 611.321L134 613.726L134.366 616.372C135.323 623.255 142.323 625.894 144.603 626.726C151.071 628.962 157.876 630.068 164.719 629.997C175.93 629.997 188.564 627.192 198.285 618.911C209.537 610.222 221.164 576.182 224.518 565.762C250.756 546.515 278.544 529.472 307.595 514.811C307.82 532.18 307.77 554.377 304.357 563.149C299.206 570.415 296.551 577.347 295.202 587.077C294.569 587.966 293.885 588.819 293.155 589.632C288.994 594.475 285.473 599.794 288.519 611.57L290.242 618.228L309.534 618.786C347.103 619.868 376.773 620.717 397.505 620.043C421.374 619.26 435.889 616.714 439.468 605.952C443.047 595.191 432.643 585.978 420.842 577.655L420.301 577.281L419.718 576.981C413.466 573.817 406.757 571.649 399.835 570.556L371.247 550.989C368.134 483.376 375.533 472.873 376.756 471.608L376.998 471.474C404.463 455.087 406.377 441.696 397.871 409.886C397.039 405.725 396.298 402.629 395.707 400.132C394.808 396.304 394.45 394.697 394.517 393.474C394.6 392.101 395.224 389.895 396.589 385.609C397.189 384.585 397.713 384.211 399.128 383.229C402.705 380.928 405.663 377.784 407.742 374.074C409.285 371.298 410.407 368.308 411.071 365.202C411.562 363.204 411.595 363.171 412.053 362.705C413.07 361.809 414.294 361.18 415.615 360.874L415.931 360.766C432.41 355.331 445.735 342.88 450.113 338.786L450.745 338.136C457.262 331.212 467.116 320.742 471.652 307.625L471.901 306.926L472.026 306.186C473.167 299.577 473.142 291.504 473.117 285.013C473.117 281.917 473.117 277.755 473.291 276.157L473.4 275.924L473.599 275.017C474.069 272.764 475.002 270.633 476.337 268.758C478.11 266.004 480.54 262.233 480.499 255.442C480.514 251.505 479.523 247.628 477.619 244.182C477.423 243.813 477.245 243.436 477.087 243.05C477.064 242.834 477.064 242.616 477.087 242.4C477.319 241.057 477.778 239.762 478.443 238.572C480.501 234.481 481.744 230.029 482.105 225.464V225.197C482.937 209.326 474.54 194.021 460.466 169.585C465.593 154.088 469.28 145.882 472.95 141.663C476.096 138.067 479.458 136.96 488.763 134.289C490.37 133.831 492.092 133.34 493.898 132.791L494.789 132.524L495.621 132.083C515.404 121.538 526.282 103.287 526.282 80.7571L526.249 80.058ZM419.868 291.987C419.998 292.664 420.054 293.354 420.034 294.043C418.891 295.159 417.673 296.196 416.389 297.147C413.301 299.523 410.348 302.068 407.542 304.771L407.451 304.862C401.908 310.414 398.628 313.476 390.272 317.396C383.822 312.07 378.621 306.402 373.144 300.46C368.775 295.699 364.297 290.822 358.996 285.837C363.931 281.376 368.817 278.213 373.902 274.926C377.614 272.52 381.45 270.04 385.42 266.994L386.153 266.428L386.752 265.737C396.506 254.518 397.946 254.701 409.223 256.175C411.812 256.507 414.741 256.89 418.178 257.198L418.828 257.256H419.485C420.026 257.256 420.55 257.182 421.041 257.132C420.883 258.796 420.667 260.511 420.484 262.025C419.385 270.515 418.112 281.101 419.868 291.987Z" fill="black"/>
<path d="M427.899 597.172C421.041 588.017 409.49 584.946 399.236 581.284C387.01 576.931 377.855 569.541 367.035 562.716L365.279 561.052C363.8 560.489 362.202 560.312 360.635 560.536C360.261 560.585 359.886 560.644 359.52 560.727C356.399 562.25 352.238 564.747 348.126 563.781C347.727 563.915 347.336 564.081 346.945 564.256C345.728 564.816 344.605 565.56 343.615 566.461C343.366 566.803 343.133 567.144 342.9 567.485C342.239 568.536 341.457 569.505 340.569 570.373L339.903 571.546C338.865 573.358 337.506 574.966 335.892 576.29L335.293 577.364C334.46 578.779 333.628 580.144 332.904 581.525C332.813 581.842 332.705 582.153 332.58 582.458C331.939 583.989 330.69 585.296 327.794 586.303C327.586 586.611 327.403 586.935 327.22 587.26C326.304 588.874 325.355 590.531 324.29 592.17L323.849 593.002C322.834 594.925 321.785 596.839 320.736 598.753C321.078 598.887 321.419 599.02 321.76 599.17C323.35 600.093 325.73 599.619 327.836 599.361C328.268 599.303 328.668 599.261 329.092 599.244C330.898 599.902 332.638 600.709 334.327 601.467L335.609 602.041C338.48 601.209 341.918 602.49 345.072 602.757C345.43 602.757 345.788 602.757 346.137 602.757C348.284 601.924 350.648 601.575 352.546 600.718C353.192 600.442 353.79 600.065 354.318 599.602C356.382 598.013 355.55 597.18 354.252 597.513C353.578 597.422 352.854 597.247 352.646 596.481C352.506 596.363 352.395 596.215 352.321 596.048C352.248 595.88 352.214 595.698 352.221 595.516H353.153H354.085C354.485 595.516 354.918 595.516 355.3 595.516H356.707C362.208 595.474 368.034 596.306 371.963 591.754C372.27 591.634 372.592 591.553 372.92 591.513C374.859 591.28 376.931 592.395 378.97 593.177C380.51 593.76 382 594.484 383.514 595.15L386.011 595.982C388 595.458 388.641 596.814 389.407 597.988C395.183 599.694 399.594 603.023 403.73 607.276L402.349 605.761C403.164 606.627 403.997 607.459 404.845 608.258L405.678 608.116C411.87 606.567 417.916 604.482 423.746 601.883C425.527 600.851 427.259 599.741 428.94 598.554C428.623 598.171 428.266 597.663 427.899 597.172Z" fill="#C4C3C6"/>
<path d="M159.092 601.758C162.579 602.59 166.058 603.298 169.554 603.822C171.285 601.375 172.983 598.895 176.861 600.318C177.294 600.476 178.526 599.486 178.809 598.812C180.981 593.885 181.305 593.202 185.176 589.232C188.436 585.903 190.702 581.729 191.717 577.181C191.905 575.734 192.33 574.328 192.974 573.02C193.823 571.861 194.841 570.837 195.995 569.982C200.664 565.887 203.211 559.995 206.274 554.568C216.261 536.991 232.623 523.957 249.66 513.08C262.144 505.131 275.801 499.289 288.094 491.066C298.539 484.075 312.047 471.924 315.243 459.173C316.907 452.598 312.18 445.541 305.838 443.161C299.496 440.78 292.18 442.395 286.413 445.94C280.645 449.486 276.151 454.754 272.006 460.089C261.187 474.054 248.936 484.624 234.612 494.928C221.121 504.649 207.048 514.536 190.76 517.873C187.106 518.622 183.32 519.047 179.941 520.578C176.651 522.142 173.908 524.657 172.066 527.799C170.225 530.941 169.37 534.564 169.612 538.197C170.203 545.18 174.905 551.622 174.115 558.588C173.191 566.678 165.367 572.087 162.022 579.511C159.883 584.28 160.049 589.873 159.309 594.933C159.02 597.161 158.397 599.333 157.461 601.375L159.092 601.758Z" fill="#C4C3C6"/>
<path d="M170.861 80.757C186.574 98.293 231.825 101.198 245.474 84.2942C243.793 74.2404 146.076 63.1379 170.861 80.757Z" fill="#C4C3C6"/>
<path d="M385.121 403.395C384.979 402.962 384.405 402.679 384.039 402.321C383.864 402.512 383.573 402.679 383.539 402.895C382.79 407.698 380.51 412.417 382.665 417.402C383.259 420.121 383.853 422.848 384.446 425.583C385.279 426.49 385.928 427.805 386.943 428.205C388.366 428.754 390.056 428.612 391.629 428.771C391.396 427.547 391.213 426.274 390.897 425.1C390.677 424.457 390.399 423.836 390.064 423.244C389.543 420.182 389.016 417.113 388.483 414.039C387.359 410.486 386.277 406.932 385.121 403.395Z" fill="white"/>
<path d="M513.049 70.9197C508.779 62.5137 504.152 54.2743 495.746 49.2807C487.34 44.287 478.326 41.1577 468.04 41.2576C460.732 41.3242 454.798 42.7889 449.871 48.1155C447.587 50.6242 445.696 53.4638 444.262 56.538C444.292 56.5827 444.336 56.616 444.387 56.6326C444.439 56.6492 444.494 56.6481 444.545 56.6296C442.272 57.595 440.233 59.9587 438.594 61.8063C437.936 62.5304 437.903 63.8287 437.587 64.8607C437.789 64.9071 437.983 64.9858 438.161 65.0938C439.068 67.5906 440.916 69.9126 439.959 72.8172L439.909 72.9754C439.744 73.0865 439.614 73.2431 439.536 73.4262C439.457 73.6093 439.434 73.8111 439.468 74.0074C439.468 74.0823 439.468 74.1572 439.468 74.2404C438.919 75.1014 438.274 75.8971 437.545 76.6124C437.432 76.7522 437.273 76.8467 437.096 76.8787C437.003 76.8714 436.914 76.8428 436.835 76.7952C436.755 76.7475 436.688 76.6821 436.638 76.6041C436.329 76.1073 436.194 75.5215 436.255 74.9395C436.308 74.378 436.245 73.8117 436.072 73.275C435.977 73.0024 435.786 72.7736 435.535 72.6312C435.284 72.4888 434.99 72.4425 434.707 72.501C434.492 72.5838 434.298 72.7148 434.141 72.8838C431.786 74.9978 429.389 77.2199 428.107 80.1079C427.551 81.151 427.431 82.3723 427.774 83.5036C428.306 84.4801 429.129 85.2658 430.13 85.7507C431.203 86.494 432.401 87.0381 433.667 87.357C433.175 87.2214 432.748 86.9145 432.463 86.4918C432.177 86.0691 432.052 85.5583 432.11 85.0516C432.26 83.67 433.434 83.0625 434.424 82.3134C435.747 81.3147 437.104 80.3659 438.427 79.3672C438.762 79.0961 439.044 78.7661 439.26 78.3934L439.393 78.1687C438.777 77.0535 441.274 77.0535 440.408 76.5708L440.616 76.3877C441.598 75.4722 442.589 74.2321 443.538 74.2654C444.894 74.3153 445.651 75.4722 446.7 76.1546C447.582 76.7289 448.548 77.1284 449.388 77.7692C450.356 78.5274 451.26 79.3624 452.093 80.266C453.142 81.373 454.59 82.6963 456.205 81.9306C456.954 81.5977 457.52 79.8582 457.411 78.8179C457.203 76.8288 456.962 74.8397 456.621 72.8672C456.528 71.8663 456.327 70.8785 456.022 69.9209C455.772 69.3134 455.123 69.2052 454.856 68.6725C454.474 67.9068 455.639 67.0579 456.13 66.6751C457.095 65.9177 457.886 64.6111 459.093 64.2199C459.8 63.9952 460.466 64.3198 461.19 64.3531C462.139 64.3531 463.529 63.8287 464.403 64.17C464.784 64.3782 465.146 64.6206 465.484 64.894C466.849 65.7263 468.93 65.202 470.411 64.9773C469.627 65.904 469.165 67.0608 469.097 68.273C469.097 68.323 474.223 66.9414 474.764 66.7583C475.164 66.6168 476.978 67.9068 477.403 68.1149C478.309 68.6045 479.252 69.0219 480.224 69.3633C481.204 69.6914 482.229 69.8655 483.262 69.8793C483.578 69.8793 484.51 69.9542 484.743 69.7129C484.976 69.4715 484.851 68.4062 484.868 68.0483C484.918 67.0995 484.144 66.6002 483.769 65.7846C483.671 65.6069 483.628 65.4042 483.645 65.202C483.686 65.0704 483.754 64.9486 483.844 64.8442C483.934 64.7397 484.045 64.6547 484.169 64.5944C484.497 64.4115 484.851 64.277 485.218 64.1949C485.491 64.1244 485.777 64.1244 486.05 64.1949C487.032 64.4696 487.357 65.8595 487.972 66.5919C488.805 67.549 490.852 69.3383 492.275 69.2052C493.191 69.122 494.83 68.7141 495.688 69.2634C496.545 69.8127 496.362 71.3691 496.387 72.218C496.381 72.2909 496.399 72.3636 496.437 72.4261C496.492 72.4912 496.569 72.5353 496.653 72.5509L502.296 74.2571C504.26 76.6873 506.457 78.7763 509.711 79.2507L511.542 78.1771L516.278 80.5324C515.201 77.3143 514.125 74.11 513.049 70.9197ZM471.585 57.5035C469.396 54.8236 469.396 54.8236 473.25 52.385L474.756 52.5598L475.763 54.1245C474.398 55.3229 474.24 57.9779 471.585 57.5035Z" fill="#C4C3C6"/>
<path d="M175.83 61.7064C178.668 61.2237 181.947 60.8741 183.271 57.545C179.858 58.5271 176.379 60.0418 172.884 58.3773C170.995 57.4701 170.146 58.0361 169.164 59.4176C168.448 60.433 167.499 61.2986 166.9 62.3639C166.593 63.1633 166.414 64.0058 166.367 64.8607C167.274 64.7525 168.673 64.9772 169.005 64.4862C170.728 61.8895 173.275 62.1308 175.83 61.7064Z" fill="#C4C3C6"/>
<path d="M183.363 57.4535H183.288C183.284 57.47 183.284 57.487 183.288 57.5034H183.338L183.363 57.4535Z" fill="#C4C3C6"/>
<path d="M292.323 211.115C289.776 213.329 285.573 215.277 284.483 218.606C284.142 219.828 284.082 221.111 284.308 222.359C285.973 233.953 295.128 244.889 304.158 251.68C313.904 258.996 325.439 263.757 334.011 272.637C334.844 273.511 335.95 274.501 337.107 274.143C338.389 273.744 338.63 272.071 338.564 270.731C337.981 259.346 331.498 249.159 324.598 240.07C317.849 231.19 311.39 222.468 306.638 212.306C305.914 210.758 305.265 208.818 306.288 207.462C306.961 206.726 307.855 206.23 308.835 206.047C313.682 204.672 318.733 204.16 323.758 204.532C325.539 204.657 327.461 204.873 328.968 203.925C332.147 201.944 330.632 196.609 327.386 194.711C324.141 192.814 320.162 192.98 316.509 192.156C315.077 191.831 313.715 191.25 312.489 190.442C310.883 189.377 304.89 197.375 304.058 198.365C300.304 202.818 296.759 207.262 292.323 211.115Z" fill="#C4C3C6"/>
<path d="M469.571 255.168C467.907 242.683 465.152 240.428 464.578 239.354C463.512 237.382 462.913 233.529 455.423 226.038C457.919 226.038 459.584 227.703 463.745 229.692C470.046 214.22 450.429 201.187 440.916 193.072C439.364 191.581 437.564 190.37 435.598 189.493C432.269 188.253 429.597 190.85 426.443 189.751C421.807 188.145 418.17 183.709 418.12 178.715C418.079 175.919 419.094 173.231 419.46 170.459C420.426 163.168 414.142 154.288 412.386 147.156C412.269 146.665 412.078 146.09 411.554 145.915C411.359 145.877 411.16 145.877 410.965 145.915C410.771 145.954 410.586 146.03 410.422 146.14C408.757 146.972 407.417 148.271 405.836 149.22C404.255 150.168 402.307 150.784 400.576 150.152C393.16 147.464 403.755 141.138 407.575 141.396C410.189 141.571 412.511 141.288 414.034 138.833C414.134 138.059 414.242 137.285 414.342 136.511L413.326 137.193L414.342 136.511C416.006 132.666 421.166 122.703 420.251 118.575C420.209 118.388 420.154 118.205 420.084 118.026C420.016 117.852 419.935 117.682 419.843 117.518C419.363 116.451 418.691 115.481 417.862 114.655L417.23 113.956C415.449 112.042 414.616 109.545 415.449 107.881C416.281 107.048 418.778 107.881 420.309 109.029C420.528 109.134 420.753 109.226 420.983 109.304C421.72 109.572 422.485 109.754 423.264 109.845C423.456 109.79 423.63 109.687 423.771 109.545C425.436 107.048 423.771 104.552 422.406 101.93C422.323 101.755 422.24 101.58 422.165 101.406C421.712 100.543 421.472 99.5839 421.466 98.6093C421.624 98.4243 421.816 98.2717 422.032 98.1599C420.542 97.3276 420.184 94.8807 421.799 93.8986C423.257 92.9229 424.937 92.3277 426.684 92.1675C426.775 91.7789 426.762 91.3731 426.645 90.9914C426.528 90.6098 426.312 90.2661 426.019 89.9953C425.551 89.7198 424.999 89.6269 424.467 89.7345C423.935 89.8421 423.462 90.1425 423.139 90.5779C421.524 92.542 420.484 95.7962 419.502 98.6426C419.41 98.9006 419.319 99.1586 419.236 99.4083C417.945 99.5581 419.61 102.055 417.854 100.923L417.33 100.34C414.983 97.8888 412.782 95.3016 410.738 92.592C407.833 88.4306 405.387 84.0113 402.74 79.6918C392.145 60.4414 379.436 57.8697 370.606 56.4964C362.491 55.2314 353.395 59.7506 345.555 56.3966C341.023 54.4902 336.097 53.7106 331.198 54.1245C320.878 54.8735 311.174 54.3825 301.469 50.8453C286.955 45.5521 272.689 45.0777 257.517 43.9625C253.938 43.7045 250.368 43.3383 246.781 43.1968C235.961 42.789 225.05 42.4727 214.181 42.0649C213.088 41.9197 212.014 41.6574 210.977 41.2826C203.669 39.3767 196.379 38.6609 189.163 41.7153L175.847 45.0028C174.79 45.8351 173.733 46.6673 172.684 47.4996C172.193 47.8908 171.719 48.3319 171.244 48.7397C171.86 49.1309 172.501 49.8716 173.108 49.8466C176.571 49.7301 180.174 50.8037 183.387 48.2403C184.552 47.3082 187.082 45.9682 186.208 49.9049C185.867 51.4779 187.041 51.6526 188.272 50.837L189.188 51.6693C187.353 53.307 185.68 55.1187 184.194 57.079C188.799 57.384 193.413 56.659 197.702 54.9567C199.516 54.241 206.657 47.3997 207.39 47.4663L212.292 47.7243L219.89 49.9631C230.252 51.7026 240.456 53.8998 250.951 54.7154C258.699 55.3229 273.705 54.1245 285.373 56.5131C286.097 56.6629 286.813 56.821 287.521 57.0041C290.533 57.903 297.658 57.9279 297.341 63.9869C297.333 64.1876 297.314 64.3876 297.283 64.5861C294.786 66.2506 288.128 66.2506 291.341 71.4856C291.468 71.6972 291.613 71.8976 291.773 72.0849C292.287 72.6801 293.013 73.0506 293.796 73.1169L294.495 73.3832C296.796 74.1903 299.156 74.8219 301.553 75.2724C302.11 75.339 302.676 75.389 303.217 75.4306C303.758 75.4722 304.316 75.4972 304.882 75.5055C305.448 75.5138 305.955 75.647 306.48 75.7468C306.989 75.843 307.492 75.9709 307.986 76.1297C308.66 76.2212 309.326 76.2878 310 76.3544C316.051 76.887 322.326 76.2878 328.227 75.5221L330.416 75.3224L332.596 75.0977L334.569 75.1809C339.055 75.4306 344.09 76.1963 345.388 80.1745C345.48 80.4459 345.549 80.7243 345.596 81.0068C345.596 81.2731 345.596 81.5478 345.596 81.8391C345.538 83.6867 345.538 88.6803 348.867 87.848C350.532 87.0158 351.364 84.519 351.788 82.9793C351.863 82.7129 351.93 82.4466 351.98 82.147C352.114 81.3413 352.175 80.5251 352.163 79.7084C352.213 79.5087 352.254 79.309 352.304 79.1092C352.496 78.2769 352.687 77.5279 352.895 76.7372C355.043 78.6847 355.392 81.1316 355.009 83.8698C353.986 90.6195 352.962 97.1861 351.389 103.844C350.79 106.399 350.057 108.913 349.208 111.393C348.567 113.241 348.068 115.621 345.613 115.413C339.329 115.03 333.87 117.352 328.693 120.598C325.364 123.927 322.035 127.156 318.764 130.519C310.807 138.758 302.881 147.022 294.986 155.312C294.734 155.64 294.501 155.981 294.287 156.336C289.593 162.311 284.4 168.986 279.614 175.32L270.367 189.427C268.836 191.199 267.296 192.964 265.765 194.745C265.549 194.994 265.332 195.252 265.108 195.502C265.075 195.783 264.984 196.054 264.841 196.297C264.697 196.541 264.505 196.752 264.275 196.917C264.03 197.104 263.768 197.269 263.493 197.408C259.814 198.498 258.15 200.163 257.317 203.492C259.814 200.995 262.311 200.163 265.898 199.672C266.206 199.672 266.514 199.672 266.822 199.672C269.746 199.88 272.589 200.733 275.145 202.169C275.463 202.428 275.766 202.706 276.052 203.001C276.277 203.234 276.493 203.467 276.709 203.725C278.99 211.831 284.816 208.502 290.858 204.208C291.099 203.925 291.341 203.65 291.574 203.375C293.18 201.386 294.254 199.214 293.638 196.284C293.557 195.921 293.446 195.564 293.305 195.219C293.047 194.969 292.789 194.72 292.547 194.47C292.306 194.22 292.056 193.962 291.832 193.713C289.01 190.209 285.681 188.544 283.184 185.215C283.384 185.49 286.239 185.973 286.83 186.306C288.045 186.988 289.094 187.928 290.242 188.719C292.441 190.369 294.793 191.805 297.266 193.005C298.559 193.696 300.014 194.024 301.478 193.954C301.809 193.907 302.128 193.797 302.418 193.63C302.543 193.556 302.66 193.469 302.768 193.372C303.584 192.047 304.544 190.816 305.631 189.701C305.847 189.46 306.047 189.21 306.247 188.96C306.346 188.861 306.438 188.752 306.521 188.653C306.978 188.241 307.276 187.683 307.363 187.074C307.449 186.466 307.319 185.846 306.996 185.323C306.288 184.175 305.389 183.143 304.674 181.994C304.122 181.239 303.881 180.301 303.999 179.373C304.099 178.782 304.907 176.044 305.88 177.459C306.065 177.805 306.168 178.19 306.18 178.582C306.738 182.252 312.222 184.541 315.335 185.323C317.532 185.864 319.779 186.156 321.993 186.597C325.43 187.338 328.834 188.261 332.23 189.152C336.042 190.195 339.815 191.38 343.549 192.706C345.352 193.355 347.15 194.037 348.942 194.753C349.591 195.011 354.16 196.418 354.252 197C351.664 180.563 337.607 167.471 335.867 150.926C334.535 138.275 340.703 126.058 347.985 115.629C345.105 121.455 342.375 127.422 341.327 133.814C340.278 140.206 340.986 147.131 344.598 152.515C348.359 158.133 355.001 161.521 361.751 161.953C368.5 162.386 375.267 160.031 380.743 156.061C382.008 155.145 383.281 154.105 384.821 153.822C386.361 153.539 388.242 154.33 388.5 155.878C388.56 156.705 388.362 157.531 387.934 158.241C385.196 163.676 380.244 167.588 376.282 172.182C372.32 176.776 369.083 183.001 370.947 188.827C372.129 192.489 375.109 195.269 378.329 197.425C398.179 210.816 427.184 205.747 445.269 221.436C440.775 219.696 435.556 222.584 433.076 226.712C430.596 230.84 430.197 235.867 429.939 240.661C429.3 252.49 429.101 264.328 429.339 276.174C429.481 283.074 429.722 290.248 426.967 296.581C425.326 300.12 423.027 303.314 420.193 305.994C419.843 306.335 419.485 306.677 419.111 307.01C417.188 310.064 413.859 310.896 411.187 313.543L410.056 314.425C405.828 317.621 401.492 320.673 397.047 323.58C395.233 324.762 393.302 325.96 391.138 326.077C390.955 326.077 390.78 326.077 390.605 326.077C390.431 326.077 390.256 326.077 390.081 326.077C387.739 325.331 385.557 324.154 383.648 322.606L383.24 322.223C382.582 321.574 381.95 320.9 381.342 320.243C369.738 307.59 357.259 295.768 343.998 284.863C330.682 273.935 315.934 264.988 302.776 253.944C298.498 250.349 294.07 246.928 289.709 243.424C287.62 241.76 285.415 240.278 284.058 237.94C282.817 235.672 281.993 233.2 281.628 230.641C281.145 227.711 281.986 223.841 280.796 221.144C279.819 219.085 278.521 217.195 276.951 215.543C274.547 212.882 271.444 210.95 267.995 209.967C267.638 209.867 267.28 209.776 266.914 209.701C265.448 209.437 263.958 209.331 262.469 209.384C262.086 209.384 261.712 209.443 261.337 209.493C260.181 209.659 259.044 209.937 257.942 210.325C249.86 213.071 242.345 221.011 236.303 228.751L235.021 230.416C233.785 231.579 232.623 232.819 231.542 234.128C231.451 234.244 231.351 234.361 231.259 234.486C230.701 235.235 230.701 235.235 230.144 235.925L229.878 236.3C229.786 236.416 229.694 236.541 229.611 236.666C229.212 237.224 228.829 237.798 228.454 238.372C225.708 243.557 222.379 247.719 220.673 252.463C220.331 253.112 219.998 253.744 219.691 254.36C214.888 264.347 208.23 275.167 211.559 287.651C213.224 297.389 221.13 303.614 230.161 305.636C230.851 305.786 231.55 305.919 232.258 306.028C237.36 306.793 244.018 307.625 245.682 302.632C247.347 296.806 242.353 291.812 239.856 285.986C239.024 283.49 239.856 280.161 239.856 277.148C239.971 276.504 240.135 275.869 240.347 275.25C241.335 272.489 243.193 270.123 245.641 268.509C245.641 271.006 245.641 273.502 245.824 275.999C245.874 276.615 245.932 277.231 246.007 277.839C246.627 281.261 247.874 284.54 249.686 287.51C250.043 288.109 250.418 288.691 250.826 289.257C259.823 302.574 277.3 300.909 291.074 305.353L292.289 305.786C293.921 306.374 295.552 306.985 297.183 307.617C303.403 310.042 309.506 312.758 315.493 315.765C318.423 317.247 321.313 318.797 324.165 320.417C326.03 321.483 328.069 322.365 329.692 323.796C331.473 325.378 331.897 327.334 332.937 329.364C333.978 331.395 337.931 330.014 339.388 329.622C342.072 328.81 344.808 328.182 347.577 327.741C349.5 327.5 352.571 327.084 354.452 327.65C353.117 327.254 351.831 326.712 350.615 326.035C348.646 324.998 346.829 323.696 345.213 322.165C343.782 320.725 343.89 318.786 343.932 316.847C343.932 317.896 348.093 320.243 348.925 320.734C350.916 321.898 353.055 322.788 355.284 323.38C359.728 324.562 364.439 324.213 368.991 324.421C373.333 324.729 377.691 324.729 382.033 324.421C382.68 324.245 383.36 324.231 384.014 324.379C384.53 324.546 384.929 325.12 385.504 325.12C386.336 325.952 383.839 326.784 384.854 327.217C384.854 327.425 384.796 327.592 384.78 327.741C384.691 328.25 384.655 328.766 384.671 329.281C382.175 328.449 378.845 330.113 376.116 328.773C375.945 328.747 375.772 328.73 375.6 328.723C373.785 328.665 372.337 329.939 370.298 329.389L369.79 329.514C368.351 329.839 366.952 330.413 365.862 330.713L365.346 330.821C364.514 331.012 363.59 331.245 362.641 331.545L362.1 331.636C358.038 332.281 353.936 332.648 349.824 332.735C349.68 332.732 349.537 332.763 349.408 332.827C349.1 333.018 349.183 333.484 349.308 333.825C350.104 335.751 351.068 337.603 352.188 339.36C354.026 339.134 355.879 339.045 357.731 339.094C358.713 339.094 362.183 339.335 360.161 340.858C358.829 341.865 357.406 342.364 356.041 343.421C355.875 343.657 355.67 343.863 355.434 344.029L353.087 345.693C351.041 347.627 348.811 349.355 346.429 350.854C345.919 351.414 345.377 351.945 344.806 352.443C344.348 353.45 342.983 354.507 342.434 355.131C341.393 356.288 335.501 362.356 337.34 364.145C337.748 364.553 340.944 364.245 341.502 363.779C342.459 362.946 341.502 361.765 342.084 360.974C342.667 360.183 344.772 359.784 345.58 359.384C348.088 358.123 350.498 356.674 352.787 355.048C357.34 351.894 361.601 348.332 366.295 345.386C366.621 345.146 366.996 344.981 367.393 344.903C368.542 344.761 369.416 346.093 369.274 347.242C368.962 348.458 368.323 349.566 367.427 350.446C366.944 351.003 364.797 352.31 364.655 352.876C364.507 353.446 364.143 353.935 363.64 354.241C361.601 355.573 359.978 357.47 357.956 358.91C356.736 360.027 355.443 361.061 354.085 362.006C351.589 363.67 348.975 365.235 346.503 367C344.215 369.388 342.342 372.235 341.809 375.322C341.903 375.438 342.006 375.547 342.117 375.647C343.449 376.829 346.004 375.805 346.803 374.49C347.436 373.45 347.852 372.409 348.942 371.752C350.174 371.011 351.755 371.302 352.205 369.513C352.363 368.881 352.321 368.123 352.812 367.707C353.728 366.916 355.159 368.24 356.308 367.848C356.81 367.609 357.226 367.219 357.498 366.733C359.362 364.17 361.992 362.372 364.539 360.549C367.085 358.727 369.441 356.072 372.212 354.391C373.802 353.425 374.618 353.85 376.191 354.441L378.629 356.014C377.22 357.678 375.819 359.343 374.426 361.007C369.241 367.099 362.616 372.609 356.948 378.41C357.068 378.575 357.196 378.733 357.331 378.884C357.196 378.733 357.068 378.575 356.948 378.41C355.787 379.37 354.694 380.41 353.678 381.523C352.596 382.863 352.471 384.452 354.185 385.384C355.9 386.317 356.973 385.443 357.689 383.72C359.479 379.434 364.922 377.311 368.509 374.656C373.502 370.994 378.205 367 383.797 364.37C385.395 363.621 386.81 362.705 387.709 365.127L386.877 366.042L382.674 370.096L374.393 380.083C372.87 381.747 369.932 383.936 369.732 386.367C369.674 387.124 373.311 385.809 373.694 385.576C375.511 384.333 377.253 382.986 378.912 381.539C381.609 379.001 384.896 376.879 387.817 374.607C390.456 372.559 392.595 369.821 395.366 367.948C398.862 365.651 400.559 361.989 401.333 358.011C402.166 353.667 402.823 345.602 407.218 343.147C406.776 344.037 406.344 344.928 405.903 345.827C405.611 346.58 405.511 347.394 405.611 348.196C405.711 348.998 406.009 349.762 406.477 350.421C408.774 353.026 410.863 349.971 412.07 347.966C413.659 345.336 414.608 343.097 417.338 341.54C419.643 340.234 422.182 339.335 424.57 338.211C426.959 337.088 429.181 335.856 431.403 334.524L431.919 334.208C432.335 333.958 432.752 333.709 433.143 333.451C436.264 329.373 442.922 329.373 445.036 324.054C445.067 323.602 445.027 323.147 444.919 322.706C444.791 322.213 444.595 321.74 444.337 321.3C444.118 321.1 443.887 320.914 443.646 320.742C442.887 320.226 442.089 319.773 441.257 319.385C446.251 321.882 452.077 318.553 455.647 314.775C455.846 314.522 456.029 314.258 456.197 313.984C456.729 313.052 457.132 312.053 457.395 311.013C457.537 310.522 457.653 310.014 457.761 309.49C456.238 301.075 460.4 294.417 461.515 286.86C461.581 286.353 461.64 285.853 461.706 285.346C462.014 282.799 462.33 280.202 462.688 277.522C463.154 274.027 464.877 269.416 466.225 266.12C467.94 261.817 470.145 259.495 469.571 255.168ZM260.796 233.67C260.414 234.103 260.022 234.502 259.623 234.918C255.331 239.532 249.707 242.691 243.535 243.957C243.044 244.14 242.545 244.298 242.037 244.44C240.481 244.885 238.869 245.101 237.251 245.08C236.797 244.995 236.352 244.87 235.92 244.706C235.459 244.525 235.014 244.308 234.588 244.057C234.339 243.851 234.097 243.635 233.864 243.408L233.639 243.166C233.606 243.072 233.581 242.974 233.564 242.875C233.556 242.772 233.556 242.669 233.564 242.567C233.564 242.442 233.564 242.326 233.564 242.209C233.556 242.09 233.556 241.97 233.564 241.851C234.513 239.496 236.469 237.141 238.092 234.893L238.375 234.494C242.403 232.696 239.074 227.703 244.201 227.445L244.567 227.37C245.333 226.537 246.981 226.537 248.346 226.238L248.795 226.121C249.919 223.541 251.583 224.374 253.248 224.374C253.301 225.41 253.214 226.448 252.99 227.461L252.84 227.827C252.593 228.247 252.453 228.721 252.433 229.207C252.412 229.693 252.512 230.177 252.723 230.616L252.931 230.865L253.364 231.381L253.606 231.489L253.847 231.581C256.192 232.542 258.768 232.791 261.254 232.297C261.505 232.273 261.759 232.292 262.003 232.355C261.562 232.804 261.179 233.246 260.796 233.67Z" fill="#C4C3C6"/>
<path d="M352.803 205.414C352.661 205.664 352.944 206.555 353.011 206.829C353.102 207.229 353.211 207.603 353.294 208.011C353.556 209.448 354.109 210.816 354.919 212.031C355.729 213.246 356.779 214.283 358.004 215.077C359.654 216.391 361.526 217.397 363.531 218.048C363.988 218.189 364.451 218.306 364.921 218.398L365.661 218.439H366.427C366.665 218.361 366.89 218.246 367.093 218.098C367.417 217.868 367.681 217.563 367.863 217.21C368.046 216.857 368.141 216.465 368.141 216.067C368.141 215.651 368.208 215.235 368.25 214.836C368.591 211.149 369.082 207.637 367.068 204.848C366.809 204.5 366.532 204.167 366.236 203.85C365.949 203.521 365.64 203.213 365.312 202.926C365.046 202.695 364.768 202.478 364.48 202.277C363.757 201.759 362.94 201.388 362.075 201.187C361.209 200.986 360.313 200.957 359.436 201.103L358.471 201.569L353.718 203.808C353.385 204.341 353.094 204.873 352.803 205.414Z" fill="#C4C3C6"/>
<path d="M402.298 81.5144C400.75 79.9165 398.611 78.7846 396.713 77.5195C392.669 74.8147 389.348 71.0695 385.062 68.7391C383.688 67.9901 381.857 67.4491 380.667 68.4644C380.252 68.8846 379.976 69.4214 379.875 70.003C379.774 70.5845 379.853 71.1832 380.101 71.7186C380.611 72.7826 381.357 73.7162 382.282 74.4485C391.595 82.921 403.396 88.8051 410.895 98.9172C411.187 99.2567 411.397 99.6579 411.511 100.091C411.543 100.522 411.463 100.955 411.278 101.346C411.092 101.737 410.808 102.073 410.454 102.321C409.43 103.153 405.669 106.075 404.362 105.742C407.225 106.466 410.629 107.073 412.843 105.109C414.64 103.52 414.898 100.823 414.832 98.4511C414.865 97.8473 414.732 97.246 414.449 96.7117C414.036 96.2232 413.547 95.8044 413.001 95.4716C411.752 94.4646 411.17 92.825 410.005 91.7181C408.84 90.6111 406.95 90.0535 405.843 88.7552C404.736 87.4568 404.57 85.3595 403.804 83.695C403.43 82.8878 402.92 82.1504 402.298 81.5144Z" fill="black"/>
<path d="M315.818 54.6988C329.659 53.6834 339.838 53.4753 342.451 53.8665C343.583 54.0465 344.697 54.325 345.78 54.6988C346.948 55.1274 348.065 55.6857 349.109 56.3633C352.48 58.5355 365.413 55.9638 369.084 55.531C380.918 54.1328 393.369 63.6456 399.045 71.3441C404.388 78.5932 403.207 83.5619 411.529 92.9832C415.275 97.2361 419.136 100.332 419.02 100.474C418.903 100.615 412.17 95.7962 404.871 88.8218C394.701 79.0926 383.049 67.8819 380.519 70.4037C379.687 71.236 388.009 72.0682 404.871 91.3186C407.102 93.8654 408.816 94.5395 409.865 96.3122C410.281 97.028 408.367 97.4192 407.984 97.0363C404.438 93.6074 395.375 86.866 387.177 80.3909C377.431 72.7091 376.15 78.9844 364.922 70.5119C360.345 67.058 354.852 62.0893 348.277 63.0214C346.845 63.2212 346.979 63.4792 344.948 63.8537C338.864 64.9856 333.854 63.4376 329.967 62.1892C324.85 60.537 320.061 58.0019 315.818 54.6988Z" fill="white"/>
<path d="M437.62 63.9785C437.61 64.0948 437.61 64.2118 437.62 64.3281C437.703 66.8249 439.043 69.0637 439.226 71.5189C439.302 72.5135 439.178 73.5131 438.862 74.4593C438.546 75.4054 438.045 76.2789 437.387 77.0285C436.717 77.7322 435.956 78.3425 435.123 78.8429L434.765 79.0676C433.84 79.6862 432.845 80.1946 431.802 80.5823L431.453 80.7571C431.053 81.5894 430.129 81.864 429.164 82.0638L428.681 82.1636C427.588 82.5556 426.641 83.273 425.968 84.2193C425.891 84.3531 425.825 84.4921 425.768 84.6355C425.119 86.533 425.693 86.7578 426.6 86.8743L427.017 86.9242C427.416 86.9691 427.803 87.0907 428.157 87.2821L428.531 87.4901C430.471 88.7136 432.135 90.3781 433.442 90.2616L433.683 89.9287C433.867 89.7144 433.968 89.4413 433.968 89.1589C433.968 88.8764 433.867 88.6033 433.683 88.389C433.673 88.2616 433.648 88.1358 433.608 88.0145C433.477 87.696 433.275 87.4114 433.017 87.1822C432.924 87.0816 432.823 86.9871 432.718 86.8992C432.393 86.6246 432.002 86.3583 431.636 86.067L431.561 85.8589C430.82 83.6784 433.225 83.6867 434.632 82.3883L434.89 82.2885L435.148 82.1969L435.439 82.0721C435.928 81.8745 436.379 81.5928 436.771 81.2398L436.954 81.0817L437.462 80.6156C437.645 80.4575 437.844 80.3077 438.036 80.1579C439.458 79.183 440.748 78.0276 441.873 76.7206C442.41 76.0592 442.76 75.2661 442.888 74.4235C442.93 73.4369 442.733 72.4547 442.314 71.5605C441.426 69.2711 440.311 67.0767 438.985 65.0105C438.693 64.5861 437.778 63.1879 437.62 63.9785Z" fill="white"/>
<path d="M421.815 117.652C420.982 115.471 418.527 116.137 416.696 112.791C415.662 111.036 415.312 108.962 415.714 106.965C416.43 104.194 418.644 103.836 418.918 101.888C419.11 100.515 418.319 98.4178 413.75 95.3634C413.958 96.695 414.782 102.854 411.711 105.242C411.342 105.675 410.837 105.968 410.279 106.075C401.99 107.623 394.375 104.793 388.674 99.2667C388.606 99.2397 388.539 99.2091 388.474 99.1752C386.196 97.7433 384.062 96.0962 382.099 94.2565C381.266 93.8237 380.434 93.4242 379.535 92.9248C366.419 86.2251 361.933 85.992 358.587 87.6316C357.349 88.2814 356.242 89.1563 355.325 90.2116C350.855 94.7891 350.281 100.648 349.707 104.527C348.595 111.668 346.64 118.653 343.881 125.333C353.369 119.882 360.368 121.081 362.79 121.655C371.188 123.677 377.946 130.602 382.165 137.817C384.429 141.696 384.662 146.14 388.823 146.14C392.985 146.14 391.595 140.73 397.304 136.594C398.977 135.252 400.955 134.343 403.064 133.947C409.131 133.032 413.966 137.759 414.84 138.641C414.721 136.401 414.945 134.156 415.506 131.983C417.545 124.21 423.121 121.097 421.815 117.652Z" fill="white"/>
<path d="M351.388 90.3781C350.262 91.2338 349.397 92.3868 348.891 93.7072C347.468 97.1611 349.432 100.698 349.723 101.198C349.898 100.449 352.411 90.3198 359.71 88.5138C361.752 88.079 363.868 88.1303 365.886 88.6636C369.614 89.4959 372.86 91.743 376.015 93.8986C376.015 93.8986 384.337 99.7245 389.997 103.495C397.096 108.18 398.536 108.53 399.643 108.688C406.65 109.72 413.217 104.943 412.959 104.119C412.818 103.678 410.745 104.385 406.035 104.344C403.613 104.327 401.197 104.11 398.81 103.694C393.7 102.737 389.231 98.8506 380.292 91.0855C378.029 89.1059 375.419 87.5624 372.594 86.533C372.07 86.3499 371.629 86.2334 371.179 86.1086C368.349 85.3262 365.353 85.5759 362.44 85.1931C361.017 85.0706 359.644 84.6082 358.437 83.8448C357.147 82.9459 357.031 81.4229 355.349 80.6322C354.9 80.4242 354.292 80.1412 353.876 80.3992C353.235 80.7904 353.876 81.9555 353.876 84.6687C353.876 87.7814 354.109 88.339 353.76 88.8301C353.219 89.679 352.57 89.5292 351.388 90.3781Z" fill="black"/>
<path d="M372.528 179.597C372.229 178.765 377.281 177.592 379.187 172.939C380.76 169.111 378.962 165.948 380.851 164.617C382.516 163.46 384.23 165.582 387.509 164.617C389.627 163.887 391.403 162.406 392.503 160.455C393.959 157.775 392.778 156.294 394.167 154.629C395.724 152.807 397.646 154.238 400.826 152.965C405.661 151.034 405.386 146.082 410.813 143.81C411.875 143.369 412.997 143.088 414.142 142.978C412.527 147.139 412.777 150.168 413.31 152.133C414.55 156.718 417.929 158.042 419.968 164.617C420.6 166.664 420.983 167.896 420.8 169.61C420.367 173.58 417.471 174.679 417.471 177.933C417.471 181.187 420.467 183.11 419.968 183.759C419.135 184.816 412.236 178.699 404.155 176.268C389.007 171.716 373.103 181.12 372.528 179.597Z" fill="white"/>
<path d="M430.755 285.953C433.656 285.534 436.616 285.805 439.394 286.744C439.882 286.913 440.291 287.257 440.542 287.709C442.2 287.917 443.845 288.217 445.469 288.608C446.177 288.775 446.876 288.983 447.567 289.199H448.091C449.447 288.425 450.821 287.776 451.511 286.186C451.603 285.97 451.686 285.745 451.77 285.529C450.646 262.367 451.953 251.272 453.7 245.58C454.511 243.16 454.759 240.586 454.424 238.056C453.459 231.581 448.199 227.303 444.221 225.755C442.057 224.923 439.435 223.899 436.922 225.755C433.959 227.952 433.368 232.521 433.276 233.329C433.618 240.653 429.14 273.161 430.755 285.953Z" fill="black"/>
<path d="M256.51 204.399C257.559 203.417 261.712 199.539 267.33 199.405C268.528 199.405 268.478 199.555 268.994 199.405C272.24 198.482 271.491 192.331 274.82 184.425C276.576 180.263 278.041 176.784 281.478 175.27C284.916 173.755 287.72 175.353 288.969 173.605C290.692 171.183 286.355 166.597 288.136 164.45C289.41 162.91 292.215 164.617 293.962 162.786C295.569 161.121 293.962 158.882 295.627 156.96C297.075 155.295 298.873 156.269 300.621 154.463C301.777 153.264 301.345 152.474 302.285 150.302C303.525 147.439 306.446 143.81 309.776 143.643C311.906 143.544 312.522 144.958 313.937 144.476C316.325 143.643 314.977 139.482 317.266 136.153C321.302 130.327 332.122 133.947 335.576 127.83C336.004 127.056 336.286 126.21 336.408 125.333C326.03 128.554 320.046 131.908 316.434 134.488C315.647 135.109 314.812 135.666 313.937 136.153C313.795 135.978 319.538 131.709 325.589 126.166C337.24 115.496 343.557 106.05 349.724 106.191C350.365 106.191 352.562 106.366 353.054 105.359C353.545 104.352 352.496 102.621 351.389 102.03C347.028 99.7495 337.007 114.63 318.93 129.495C317.566 130.618 315.693 132.116 313.105 134.488C309.842 137.476 306.63 140.747 299.788 148.637C294.72 154.463 295.685 153.631 290.633 159.457C282.103 169.336 280.821 170.135 278.149 174.437C274.412 180.455 275.652 180.879 272.323 185.257C270.085 188.17 267.23 190.808 261.504 196.076C259.007 198.357 256.893 200.238 254.846 203.567C253.181 206.338 252.049 209.226 252.349 209.393C252.649 209.559 253.697 207.029 256.51 204.399Z" fill="white"/>
<path d="M349.061 134.901C349.912 133.617 349.953 132.147 349.152 131.616C348.351 131.085 347.012 131.695 346.162 132.979C345.311 134.262 345.27 135.733 346.071 136.264C346.872 136.794 348.21 136.184 349.061 134.901Z" fill="black"/>
<path d="M348.059 133.656C348.978 133.656 349.724 133.097 349.724 132.408C349.724 131.718 348.978 131.159 348.059 131.159C347.14 131.159 346.395 131.718 346.395 132.408C346.395 133.097 347.14 133.656 348.059 133.656Z" fill="white"/>
<path d="M429.323 285.887C425.303 278.629 431.129 237.523 430.779 229.134C430.871 228.302 431.462 223.758 434.425 221.56C436.921 219.704 439.56 220.728 441.724 221.56C445.702 223.108 450.962 227.386 451.927 233.861C452.268 236.405 452.021 238.994 451.203 241.427C449.256 247.735 447.874 260.752 449.747 289.698C446.892 293.027 444.57 293.502 443.18 293.477C441.174 293.477 440.051 292.312 435.881 289.698C431.953 287.21 429.78 286.727 429.323 285.887Z" fill="white"/>
<path d="M298.058 165.149C298.071 165.002 298.13 164.862 298.228 164.75C298.325 164.638 298.454 164.559 298.599 164.525C298.89 164.425 299.231 164.392 299.514 164.325C299.866 164.113 300.169 163.829 300.405 163.493C300.628 163.146 300.773 162.754 300.829 162.344C301.035 162.185 301.255 162.046 301.487 161.928C301.726 161.808 301.981 161.721 302.244 161.67C302.531 161.63 302.824 161.686 303.076 161.828C303.396 162.019 303.665 162.284 303.858 162.602C304.146 162.879 304.395 163.192 304.599 163.535C304.657 163.834 304.699 164.134 304.749 164.425C305.044 166.079 305.702 167.647 306.677 169.016C307.651 170.384 308.917 171.52 310.383 172.34C310.923 172.71 311.587 172.854 312.231 172.739C313.363 172.398 313.571 170.9 313.488 169.727C313.413 168.795 313.305 167.871 313.138 166.955C313.088 166.656 313.03 166.348 312.964 166.048C312.897 165.748 312.755 165.582 312.647 165.341L312.348 164.567C311.474 161.987 308.977 159.49 310.642 158.657C315.635 156.161 313.971 162.819 317.083 164.284C317.29 164.491 317.51 164.686 317.741 164.866C318.381 165.362 319.07 165.791 319.796 166.148C323.292 166.73 323.525 164.051 322.909 161.537C322.826 161.179 322.718 160.821 322.601 160.48C322.293 158.657 319.796 156.993 320.629 154.746L320.429 153.914C320.154 152.765 319.871 151.633 319.663 150.584C319.597 150.252 319.538 149.935 319.505 149.636C319.347 149.31 319.166 148.996 318.964 148.695C317.574 148.004 316.767 149.627 315.768 149.744C315.55 149.767 315.331 149.717 315.144 149.602C314.899 149.798 314.64 149.976 314.37 150.135C314.112 150.285 313.846 150.426 313.538 150.551C313.277 150.629 313.021 150.724 312.772 150.834C312.522 150.942 312.273 151.067 312.023 151.192C308.111 152.024 305.615 154.521 302.585 156.061L302.028 156.419C301.282 156.909 300.565 157.443 299.88 158.017C299.581 158.258 299.289 158.508 298.998 158.766C298.707 159.024 298.565 159.165 298.324 159.365L297.608 159.981C297.325 160.189 297.051 160.405 296.776 160.63C296.501 160.855 296.243 161.096 295.994 161.337C295.44 161.953 294.949 162.622 294.529 163.335C294.329 163.676 294.154 164.026 293.996 164.367C292.332 167.005 291.499 171.166 293.58 173.63C293.747 173.993 293.945 174.341 294.171 174.67C294.422 175.048 294.7 175.407 295.003 175.744C295.177 175.913 295.377 176.053 295.594 176.16C297.259 176.992 298.923 175.328 298.024 172.515C297.983 172.182 297.924 171.841 297.866 171.491C297.55 169.76 297.109 167.862 297.608 166.09C297.783 165.69 297.958 165.399 298.058 165.149Z" fill="black"/>
<path d="M315.493 153.256C315.859 153.972 316.267 154.688 316.591 155.412C317.698 157.908 317.906 160.755 319.421 163.002C319.972 163.882 320.784 164.569 321.743 164.966C322.223 165.158 322.745 165.222 323.257 165.152C323.769 165.082 324.254 164.88 324.664 164.567C325.672 163.734 325.83 162.253 325.763 160.938C325.63 158.042 324.839 154.954 326.171 152.374C326.305 152.059 326.504 151.776 326.755 151.544C327.006 151.311 327.303 151.135 327.627 151.026C329.458 150.601 330.499 153.464 332.363 153.672C332.828 153.688 333.288 153.572 333.689 153.336C334.09 153.1 334.415 152.755 334.627 152.341C335.046 151.512 335.271 150.598 335.284 149.669C335.452 147.533 335.399 145.386 335.126 143.261C335.055 142.347 334.77 141.463 334.294 140.68C332.904 138.658 330.54 140.214 328.801 140.847L321.26 143.602C319.716 144.078 318.249 144.779 316.908 145.682C316.239 146.138 315.677 146.734 315.26 147.428C314.843 148.122 314.582 148.898 314.494 149.702C314.505 150.955 314.85 152.181 315.493 153.256Z" fill="white"/>
<path d="M303.857 158.225C304.564 158.295 305.255 158.477 305.905 158.766C306.895 159.39 307.012 160.746 307.211 161.895C307.506 163.549 308.165 165.117 309.139 166.486C310.113 167.854 311.379 168.99 312.846 169.81C313.386 170.18 314.049 170.324 314.693 170.209C315.825 169.868 316.033 168.37 315.95 167.197C315.769 164.719 315.251 162.277 314.41 159.939C313.959 158.901 313.651 157.806 313.495 156.685C313.445 155.911 313.57 155.12 313.495 154.346C312.721 148.52 306.612 152.981 304.09 154.737C303.167 155.378 302.118 156.444 302.642 157.442C302.773 157.656 302.95 157.837 303.16 157.972C303.371 158.108 303.609 158.194 303.857 158.225Z" fill="white"/>
<path d="M295.975 169.66C295.938 170.056 295.938 170.454 295.975 170.85C296.016 171.244 296.12 171.629 296.283 171.99C296.515 172.489 296.871 172.92 297.317 173.24C297.764 173.561 298.285 173.761 298.832 173.821C299.378 173.882 299.931 173.8 300.437 173.584C300.942 173.368 301.384 173.026 301.718 172.59C301.849 172.415 301.963 172.228 302.059 172.032C302.085 171.717 302.141 171.405 302.226 171.1C303.89 167.771 303.058 163.609 301.011 160.613C300.809 160.388 300.573 160.197 300.312 160.047C300.018 159.873 299.697 159.75 299.363 159.681C299.027 159.608 298.681 159.588 298.339 159.623C294.769 161.953 296.433 165.282 296.025 168.869C296.025 169.127 295.992 169.385 295.975 169.66Z" fill="white"/>
<path d="M343.558 174.054C337.241 164.508 323.142 172.232 317.383 178.682C326.255 180.53 335.41 182.485 342.9 187.596C346.379 189.959 353.936 198.024 354.702 197.741C355.617 197.416 345.056 176.318 343.558 174.054Z" fill="white"/>
<path d="M278.157 204.166C278.132 204.482 278.132 204.799 278.157 205.115C278.274 206.28 278.94 207.562 280.105 207.77C280.578 207.826 281.058 207.781 281.511 207.637C283.957 207.005 286.25 205.885 288.253 204.345C290.255 202.804 291.925 200.875 293.163 198.673C293.352 198.383 293.469 198.052 293.504 197.708C293.504 196.875 292.755 196.359 292.14 195.852C290.309 194.37 289.143 192.256 287.753 190.359C286.78 189.027 280.488 183.259 279.913 187.82C279.917 188.878 280.156 189.921 280.613 190.875C281.172 192.548 281.252 194.343 280.846 196.06C280.205 198.839 278.307 201.386 278.157 204.166Z" fill="white"/>
<path d="M312.105 219.322C310.441 217.075 308.757 214.838 307.053 212.614C304.34 209.051 301.502 207.695 297.324 209.617C293.405 211.425 290.021 214.218 287.503 217.724C286.694 218.701 286.209 219.905 286.113 221.169C286.113 223.15 287.886 224.748 289.767 225.389C291.648 226.03 293.679 225.971 295.651 226.221C299.769 226.674 303.658 228.346 306.82 231.023C310.657 234.286 313.37 238.98 317.898 241.185C319.729 242.084 322.059 242.018 323.724 243.158C324.764 243.857 325.005 245.555 325.48 246.662C327.777 251.98 330.473 257.415 336.357 259.362C336.474 257.528 336.085 255.697 335.234 254.069C333.569 250.865 331.805 247.727 329.966 244.606C328.983 242.941 327.976 241.277 326.919 239.612C326.528 239.005 324.423 235.101 323.782 235.101C319.903 229.858 316.042 224.573 312.105 219.322Z" fill="white"/>
<path d="M364.032 201.811C361.668 200.421 358.247 201.078 355.851 202.285C354.914 202.732 354.082 203.373 353.412 204.166C353.096 204.516 352.905 204.961 352.871 205.431C352.857 205.665 352.923 205.897 353.06 206.088C353.196 206.279 353.394 206.417 353.62 206.48C354.094 206.555 354.511 206.222 354.935 206.005C355.356 205.817 355.81 205.717 356.271 205.71C356.731 205.702 357.189 205.789 357.615 205.964C358.468 206.321 359.26 206.81 359.962 207.412C360.658 208.016 361.407 208.557 362.201 209.026C362.642 209.29 363.144 209.433 363.657 209.443C364.006 209.413 364.345 209.312 364.652 209.146C364.96 208.98 365.231 208.752 365.447 208.477C365.969 207.815 366.285 207.015 366.358 206.174C366.43 205.334 366.255 204.492 365.854 203.75C365.44 202.946 364.808 202.274 364.032 201.811Z" fill="white"/>
<path d="M347.544 213.92C346.329 214.628 345.106 215.735 344.332 216.217C343.219 216.791 342.193 217.519 341.286 218.381C340.037 219.796 339.879 222.218 341.286 223.5C342.692 224.781 345.089 224.465 346.712 223.383C348.049 222.426 349.167 221.195 349.991 219.771C350.858 218.594 351.288 217.152 351.206 215.693C350.765 212.763 349.167 212.996 347.544 213.92Z" fill="#C4C3C6"/>
<path d="M325.839 195.144C325.572 194.977 325.294 194.83 325.006 194.703C320.146 192.672 313.829 195.036 309.576 197.516C308.211 198.348 306.78 199.464 306.738 201.045C306.711 201.291 306.757 201.539 306.871 201.758C306.985 201.977 307.162 202.158 307.379 202.277C307.743 202.374 308.131 202.336 308.469 202.169C314.81 200.004 321.439 198.8 328.136 198.598C328.052 197.882 327.8 197.196 327.401 196.596C327.002 195.996 326.466 195.498 325.839 195.144Z" fill="white"/>
<path d="M433.375 186.355C429.214 187.138 426.534 192.664 427.549 196.343C428.273 198.939 430.537 199.464 434.208 202.169C440.991 207.162 440.308 210.491 445.859 215.485C452.301 221.244 461.964 224.59 464.169 222.143C465.443 220.728 463.079 216.209 458.343 207.162C454.082 199.006 451.843 196.501 449.188 196.343C446.9 196.201 446.692 196.251 445.027 195.51C442.58 194.42 443.055 192.032 440.033 188.852C438.51 187.238 435.905 185.881 433.375 186.355Z" fill="white"/>
<path d="M259.015 234.094C259.848 236.034 254.196 238.605 254.022 242.417C253.78 247.477 263.351 251.739 264.841 252.404C271.499 255.384 278.89 256.433 286.072 257.539C289.185 258.022 292.223 258.472 295.086 259.886C295.544 260.111 302.052 264.88 300.745 265.429C298.648 266.378 292.156 263.349 289.31 262.841C282.269 261.576 273.497 257.681 266.422 259.37C265.218 259.59 264.092 260.124 263.16 260.918C262.701 261.325 262.372 261.857 262.214 262.449C262.055 263.041 262.075 263.667 262.269 264.248C262.769 265.471 264.142 266.045 265.382 266.495C283.609 273.153 302.202 279.178 319.754 287.51C332.929 293.76 344.156 302.132 356.374 309.848C366.619 316.314 379.287 321.666 380.51 319.835C381.342 318.636 377.073 314.5 369.69 307.351C359.429 297.422 353.045 292.37 353.045 292.37L352.329 291.804C352.088 291.621 351.855 291.429 351.639 291.255C348.043 288.475 343.882 285.978 341.194 282.932L340.27 282.1C327.39 270.574 313.417 260.333 298.548 251.522L297.857 251.023C297.183 250.532 296.509 250.024 295.86 249.491L295.269 249.208C284.15 243.774 272.556 236.391 277.983 223.2C280.28 217.615 276.318 213.879 271.491 211.623C268.077 210.152 264.27 209.86 260.671 210.791C257.977 211.389 255.43 212.521 253.181 214.12C236.611 225.497 224.143 244.323 215.945 262.392C217.302 259.387 221.155 256.258 223.169 253.528C225.583 250.249 227.863 246.87 230.294 243.607C235.237 236.949 240.647 232.405 247.122 227.445C249.885 225.322 251.766 224.457 252.349 224.948C253.264 225.78 250.11 229.367 251.517 231.606C253.015 234.003 258.216 232.28 259.015 234.094Z" fill="white"/>
<path d="M189.928 40.4419C189.862 39.7761 195.604 37.9451 201.58 38.7774C201.863 38.7774 203.153 39.0853 205.741 39.6096C212.766 41.0495 212.616 41.166 214.064 41.2742C217.46 41.5488 217.726 40.8913 221.555 41.2742C223.452 41.4739 223.835 41.6737 226.548 42.1064C229.561 42.5891 231.8 42.7639 234.039 42.9387C243.834 43.7127 259.007 43.771 259.007 43.771C276.351 43.8459 285.032 43.8792 289.801 45.4355C299.671 48.6564 300.787 52.5264 310.607 53.7582C316.131 54.4968 321.729 54.4968 327.253 53.7582C331.911 52.8493 336.669 52.5694 341.401 52.9259C343.432 53.1174 346.395 53.5335 347.227 55.4227C347.392 55.8183 347.477 56.2426 347.477 56.6712C347.477 57.0997 347.392 57.524 347.227 57.9196C345.904 60.6827 338.389 58.6103 326.421 57.0873C318.764 56.1135 313.487 55.4227 306.446 55.4227C295.826 55.4227 293.571 56.8792 288.968 54.5905C284.366 52.3017 283.484 49.2556 278.149 47.9323C275.169 47.1999 273.663 47.7076 268.994 47.9323C263.708 48.1525 258.414 47.8738 253.181 47.1C241.654 45.6685 237.95 42.9387 233.206 45.4355C232.049 46.0514 230.959 46.917 229.045 47.1C226.415 47.3664 224.884 46.1013 220.722 44.6032C218.812 43.9415 216.868 43.3858 214.896 42.9387C212.483 42.3395 209.745 41.8484 201.58 41.2742C192.3 40.6333 189.962 40.8664 189.928 40.4419Z" fill="white"/>
<path d="M294.844 62.9299C302.418 61.6051 310.216 63.012 316.849 66.8998C320.245 68.8307 323.632 71.394 327.544 71.2609C330.956 71.1444 333.994 68.9555 337.389 68.6059C342.125 68.1232 346.378 71.2359 350.88 72.7673C351.763 73.0669 352.845 73.275 353.535 72.6508C353.606 72.5959 353.665 72.5269 353.708 72.4481C353.751 72.3693 353.777 72.2824 353.785 72.193C353.785 71.7769 353.236 71.6521 352.82 71.6188C347.984 71.2442 343.823 67.3992 338.971 67.4574C334.934 67.5157 331.239 70.3287 327.211 70.0291C325.138 69.8793 323.241 68.9139 321.385 68.015C317.099 65.951 312.663 64.1117 308.177 62.4472C306.64 61.7927 305.017 61.3638 303.358 61.1738C301.563 61.1469 299.773 61.3853 298.048 61.8812C296.974 62.1475 295.909 62.7135 294.844 62.9299Z" fill="white"/>
<path d="M369.973 348.149C376.245 343.699 383.891 341.617 391.553 342.273C395.448 342.564 399.618 343.421 403.089 341.624C406.118 340.051 407.924 336.763 410.837 334.965C414.907 332.469 420.084 333.484 424.811 332.935C425.735 332.827 426.8 332.544 427.158 331.686C427.195 331.604 427.214 331.515 427.214 331.424C427.214 331.334 427.195 331.244 427.158 331.162C426.975 330.796 426.425 330.912 426.043 331.062C421.515 332.802 416.105 331.112 411.761 333.268C408.141 335.057 406.002 339.185 402.24 340.642C400.309 341.391 398.178 341.349 396.106 341.332C391.329 341.332 386.543 341.507 381.783 341.948C380.116 342.021 378.468 342.332 376.889 342.872C375.254 343.618 373.74 344.602 372.395 345.793C371.562 346.526 370.855 347.491 369.973 348.149Z" fill="white"/>
<path d="M421.299 94.5394C421.765 94.9556 423.205 93.1828 424.628 93.7072C425.685 94.1066 425.752 95.4216 426.293 95.3717C426.975 95.3134 427.749 93.1079 427.125 91.2103C426.684 89.8954 425.51 88.5304 424.628 88.7135C424.212 88.8051 423.987 89.2046 423.796 89.5458C421.424 93.7238 421.033 94.3147 421.299 94.5394Z" fill="white"/>
<path d="M420.468 97.8685C420.301 97.4199 420.292 96.9275 420.444 96.4733C420.595 96.0191 420.897 95.6304 421.3 95.3717C421.572 95.294 421.86 95.294 422.132 95.3717C423.027 95.4044 423.894 95.6933 424.629 96.204C424.92 96.4703 425.203 96.8864 425.461 98.7008C425.561 99.4498 426.019 102.729 425.461 102.862C424.904 102.995 424.846 100.94 422.965 99.5331C421.725 98.6092 420.817 98.7674 420.468 97.8685Z" fill="white"/>
<path d="M427.101 83.7865C428.765 82.8877 429.597 81.2232 431.628 79.1924L432.103 78.743C432.544 78.3352 432.935 77.9773 433.434 77.4863L433.967 76.937L434.458 76.4293C435.448 75.3973 437.113 73.7327 436.281 72.9005C434.716 71.3441 433.784 72.3844 432.952 73.5829C432.777 73.8243 432.61 74.074 432.427 74.307C431.304 76.2295 428.807 77.8941 428.407 80.2411C428.266 80.4658 428.133 80.6988 427.999 80.9319C427.565 81.6729 427.195 82.4498 426.893 83.2539C426.893 83.4786 426.959 83.72 427.101 83.7865Z" fill="white"/>
<path d="M452.111 57.9363C448.873 56.2717 444.936 55.8473 442.073 58.3441C441.229 59.2418 440.319 60.0763 439.352 60.8409C438.436 61.4235 437.18 61.8396 436.98 62.9132C436.952 63.2502 437.005 63.5889 437.133 63.9015C437.262 64.2141 437.463 64.4916 437.721 64.7109C438.203 65.1853 438.794 65.5432 439.269 66.0176C439.671 66.4221 439.985 66.9049 440.193 67.4361C440.4 67.9673 440.497 68.5354 440.476 69.1053C440.662 68.1013 440.662 67.0716 440.476 66.0675C440.382 65.7554 440.382 65.4226 440.476 65.1104C440.602 64.872 440.812 64.6889 441.066 64.5967C441.32 64.5044 441.599 64.5096 441.849 64.6111C442.346 64.8318 442.782 65.1686 443.122 65.5932C445.569 68.1666 448.293 70.461 451.245 72.4344C451.356 72.543 451.489 72.6255 451.636 72.6759C451.782 72.7263 451.938 72.7434 452.092 72.7258C452.246 72.7083 452.394 72.6566 452.525 72.5745C452.657 72.4924 452.768 72.382 452.851 72.2513C453.7 71.6003 454.33 70.7061 454.657 69.6879C454.717 69.0697 454.646 68.4459 454.45 67.8568C454.253 67.2676 453.936 66.7261 453.517 66.2673C452.425 64.8238 451.066 63.6032 449.514 62.6719C449.222 62.4513 448.889 62.2906 448.535 62.1992C448.181 62.1078 447.812 62.0874 447.45 62.1392C448.267 62.0217 449.098 62.0695 449.896 62.2796C450.694 62.4898 451.441 62.8581 452.094 63.3627C452.776 64.0175 453.499 64.6291 454.258 65.1937C454.64 65.4743 455.103 65.6256 455.577 65.6256C456.052 65.6256 456.514 65.4743 456.896 65.1937C457.167 64.8722 457.344 64.4821 457.407 64.0665C457.47 63.6508 457.417 63.2258 457.254 62.8383C456.859 61.8349 456.228 60.9414 455.415 60.2333C454.424 59.3191 453.313 58.5461 452.111 57.9363Z" fill="white"/>
<path d="M448.349 52.7179C448.237 52.4511 448.159 52.1716 448.116 51.8857C447.766 49.2141 449.78 46.7672 452.102 45.3607C466.725 36.4138 488.09 41.4989 500.932 51.4862C501.81 52.0438 502.489 52.8655 502.871 53.8332C503.162 54.8236 502.613 56.1136 501.581 56.2135C500.649 55.0649 499.567 53.8332 498.102 53.6584C496.637 53.4836 495.056 55.2148 495.93 56.4049C496.283 56.7821 496.723 57.0678 497.211 57.2372C498.208 57.6396 499.01 58.4121 499.45 59.3927C499.783 60.4081 499.151 61.7564 498.085 61.7897C497.195 61.7897 496.529 60.9574 496.021 60.2666L492.318 54.9567C491.778 54.3262 491.457 53.5378 491.402 52.7096C491.402 51.8774 492.293 51.0451 493.067 51.4196C494.065 49.9964 492.418 47.8408 490.695 48.0406C488.972 48.2403 487.807 50.088 487.832 51.8191C487.984 53.5591 488.68 55.2072 489.821 56.5297L482.097 54.5989C482.265 55.5217 482.699 56.3756 483.345 57.0556C483.991 57.7357 484.821 58.2124 485.734 58.4273C487.532 58.8268 489.405 58.136 491.244 58.2525C493.083 58.3691 495.147 60.0419 494.44 61.7481C493.732 63.4542 491.361 63.2545 489.604 62.7967L478.71 59.9504C479.841 61.3858 480.818 62.9369 481.623 64.5778C482.131 65.6015 482.455 67.0746 481.457 67.6822C480.458 68.2897 479.526 67.4907 478.777 66.8499C477.462 65.693 476.088 64.4446 475.622 62.7634C475.156 61.0823 476.038 58.9017 477.77 58.6853C478.602 58.5854 479.775 58.8434 480.158 58.0694C480.433 57.5201 480.067 56.8959 479.859 56.3217C479.605 55.6163 479.611 54.844 479.874 54.1424C480.137 53.4407 480.641 52.8553 481.296 52.4905C481.95 52.1257 482.713 52.0052 483.448 52.1505C484.184 52.2958 484.843 52.6975 485.31 53.2839C486.533 52.0771 485.793 49.7301 484.211 49.0393C483.395 48.7631 482.517 48.7252 481.679 48.93C480.842 49.1349 480.081 49.5741 479.484 50.1962C478.31 51.4623 477.397 52.9469 476.796 54.5656C474.907 54.7903 474.091 51.894 475.215 50.3543C476.338 48.8146 478.319 48.2653 480 47.3914C480.401 47.2253 480.737 46.9332 480.957 46.5591C481.067 46.2631 481.088 45.9414 481.017 45.6337C480.946 45.326 480.786 45.0459 480.558 44.828C479.401 43.5796 477.229 43.7211 475.897 44.7448C474.605 45.8735 473.705 47.383 473.325 49.056C472.784 50.5798 472.663 52.2215 472.976 53.8082C473.145 54.5964 473.544 55.3169 474.121 55.8795C474.699 56.4421 475.429 56.8217 476.222 56.9708C475.389 58.2026 472.826 57.2705 472.302 58.6354C472.094 59.218 472.418 59.8422 472.518 60.4497C472.612 61.061 472.466 61.6849 472.112 62.1918C471.757 62.6986 471.222 63.0496 470.615 63.1717C470.009 63.2938 469.379 63.1777 468.856 62.8475C468.333 62.5173 467.958 61.9984 467.807 61.3985C467.275 59.2429 469.713 57.5285 470.254 55.3646C470.629 53.8415 470.013 52.2602 469.821 50.6955C469.63 49.1309 470.146 47.1833 471.669 46.8088C472.044 45.2941 469.871 44.1539 468.506 44.9113C467.142 45.6686 466.692 47.4081 466.775 48.9811C466.859 50.554 467.325 52.0688 467.258 53.6251C464.611 54.6821 461.482 51.3447 462.714 48.773C462.998 48.3099 463.24 47.8225 463.438 47.3165C463.871 45.7352 461.998 44.1872 460.408 44.595C459.635 44.8683 458.975 45.3932 458.534 46.0857C458.094 46.7782 457.898 47.5983 457.978 48.4151C458.191 50.0569 458.96 51.5759 460.159 52.7179C461.282 53.9164 462.597 54.9151 463.696 56.1302C463.005 57.3787 461.149 57.5451 459.901 56.846C458.717 56.0256 457.79 54.8854 457.229 53.5585C456.022 51.2531 454.94 48.6898 455.357 46.118C452.136 47.1168 451.295 52.2019 454.025 54.1911C452.568 56.1053 449.289 54.8985 448.349 52.7179Z" fill="white"/>
<path d="M495.572 69.9376C495.297 69.1053 494.573 68.1898 495.106 67.5073C495.48 67.0246 496.204 67.0912 496.812 67.0246C497.157 66.9914 497.493 66.8925 497.802 66.7333L498.102 66.5669C499.408 65.5016 499.517 63.3127 499.608 61.7896C499.608 61.6454 499.608 61.5122 499.608 61.3902C499.517 58.9683 497.411 58.7685 496.42 58.7519H496.179C496.179 60.4164 497.844 62.9132 496.62 64.5777C496.508 64.6912 496.385 64.7943 496.254 64.8857L496.029 65.0938C494.365 66.5419 492.417 67.807 491.627 66.8665L493.924 69.5963C492.134 69.5963 490.353 69.047 488.547 69.0304C487.407 69.0304 485.926 69.3799 485.826 70.5202C485.734 71.5272 486.824 72.1847 487.757 72.5675C489.363 73.2583 491.086 73.9574 492.8 73.6578C494.515 73.3582 496.129 71.6021 495.572 69.9376Z" fill="white"/>
<path d="M495.405 47.8241C495.405 47.8241 495.405 47.8241 495.405 47.8741C495.529 48.1826 495.587 48.5133 495.577 48.8456C495.567 49.1779 495.489 49.5045 495.347 49.8049C495.018 50.5533 494.64 51.2789 494.215 51.9772C494.629 52.755 495.141 53.4766 495.738 54.1244C495.758 54.1487 495.78 54.171 495.804 54.191C495.883 53.9967 495.902 53.7831 495.857 53.5781C495.813 53.3731 495.707 53.1864 495.555 53.0425C496.387 51.5277 499.059 52.0854 499.625 53.7249C499.779 54.2864 499.783 54.8786 499.637 55.4423C499.491 56.006 499.2 56.5216 498.792 56.9375L498.934 57.0457C499.265 57.3193 499.517 57.6767 499.663 58.0807C499.81 58.4846 499.845 58.9204 499.766 59.3428C500.4 59.3592 501.009 59.5878 501.497 59.9919C502.1 60.608 502.513 61.3837 502.689 62.2273C502.864 63.071 502.794 63.9473 502.488 64.7525C501.853 66.3579 500.908 67.8228 499.708 69.0637C500.315 70.8614 503.287 70.3537 504.185 68.6808C505.084 67.008 504.735 64.9772 504.801 63.0796C504.781 62.6469 504.897 62.2188 505.134 61.8562C505.355 61.6288 505.637 61.4713 505.946 61.4032C506.256 61.3352 506.578 61.3596 506.874 61.4734C508.538 61.9727 509.296 63.9702 508.954 65.6347C508.491 67.2808 507.518 68.7376 506.175 69.7961C505.026 70.9445 503.588 71.7612 502.013 72.1597C501.229 72.3465 500.407 72.2977 499.651 72.0193C498.894 71.741 498.236 71.2455 497.76 70.595C497.011 71.8851 498.959 73.7826 497.918 74.8563C497.486 75.3057 496.778 75.2724 496.187 75.4472C495.593 75.624 495.09 76.0237 494.783 76.5627C494.476 77.1017 494.389 77.7384 494.541 78.3399C494.692 78.9413 495.07 79.461 495.596 79.7905C496.121 80.1199 496.753 80.2336 497.361 80.1079C499.533 79.6585 500.032 76.7122 501.747 75.2974C502.962 74.2986 504.652 74.1738 506.15 73.6828C507.648 73.1917 509.179 71.8684 508.863 70.3537C510.07 69.3716 512.034 70.8364 511.934 72.3927C511.834 73.9491 510.444 75.1143 509.013 75.7218C507.581 76.3294 505.991 76.5541 504.61 77.2865C504.801 80.1329 509.154 81.5144 510.943 79.3006C511.242 78.8426 511.579 78.411 511.951 78.0106C513.191 76.9369 515.388 77.9606 515.712 79.5752C515.8 80.3918 515.61 81.2141 515.174 81.91C514.738 82.6058 514.08 83.1348 513.307 83.412C511.74 83.9015 510.053 83.8458 508.522 83.2539C506.965 82.7545 505.492 81.9971 503.919 81.5227C503.087 82.6962 503.736 84.4357 504.91 85.2596C506.157 85.9768 507.583 86.3232 509.021 86.2584C511.626 86.3499 514.414 86.2584 516.511 84.7353C516.994 88.0644 512.766 91.0273 509.795 89.421C508.688 91.5599 511.193 94.0068 513.565 93.9069C513.848 93.8967 514.128 93.8462 514.397 93.7571C516.961 92.9248 518.284 90.0369 518.559 87.3486C520.257 71.6437 508.638 55.8888 495.405 47.8241Z" fill="white"/>
<path d="M243.326 81.8557C229.228 98.2347 184.693 95.2386 169.129 77.8608C168.563 77.4696 168.089 77.0868 167.656 76.7206C167.889 77.944 169.129 79.4171 171.626 81.1899C187.339 98.7258 232.59 101.63 246.239 84.727C246.073 83.7699 245.041 82.8045 243.326 81.8557Z" fill="white"/>
<path d="M389.024 326.976C388.882 325.636 395.099 325.22 402.149 320.684C405.328 318.645 405.386 317.887 411.304 312.361C419.11 305.045 423.014 301.392 428.448 298.92C431.495 297.538 436.53 295.324 442.922 296.098C445.685 296.44 453.883 297.438 455.639 303.148C457.037 307.709 453.841 313.709 450.404 314.358C447.641 314.875 446.026 311.679 439.867 310.863C438.868 310.73 436.055 310.355 435.648 311.296C435.09 312.569 439.709 314.392 441.573 319.377C442.023 320.584 443.171 323.663 441.856 325.261C439.967 327.55 435.14 324.154 426.11 323.78C420.969 323.67 415.841 324.315 410.888 325.694C405.311 327.101 403.197 328.482 398.071 328.665C393.951 328.773 389.149 328.141 389.024 326.976Z" fill="white"/>
<path d="M333.078 335.898C333.078 336.522 338.014 338.02 343.066 336.73C346.544 335.848 348.891 333.95 351.388 335.065C352.163 335.493 353.009 335.775 353.885 335.898C355.225 336.056 356.998 335.814 357.214 335.065C357.464 334.183 355.308 333.176 355.55 332.569C355.791 331.961 357.805 332.519 359.711 332.569C363.173 332.668 364.255 331.17 368.034 330.072C373.71 328.407 378.853 329.622 378.853 330.072C378.853 330.521 375.874 330.421 375.524 331.736C375.174 333.051 377.263 334.499 378.021 335.065C378.955 335.918 380.108 336.494 381.35 336.73C383.697 337.013 384.637 335.065 388.008 333.401C392.353 331.22 395.166 332.211 395.499 330.904C395.873 329.389 392.436 326.518 388.84 325.91C386.676 325.553 386.26 326.318 383.014 325.91C380.226 325.569 379.902 324.928 378.021 325.078C375.815 325.261 375.524 326.185 373.027 326.743C370.164 327.383 369.89 326.318 367.201 326.743C363.606 327.325 363.523 329.314 359.711 330.072C358.046 330.405 356.665 330.296 353.885 330.072C350.248 329.789 348.891 329.156 347.227 330.072C345.912 330.804 346.27 331.47 344.73 332.569C343.19 333.667 342.1 333.592 338.904 334.233C336.083 334.799 333.053 335.432 333.078 335.898Z" fill="white"/>
<path d="M321.211 334.916C331.148 335.282 333.445 335.581 333.454 335.806C333.462 336.031 332.38 335.864 331.506 336.538C329.975 337.72 329.842 340.7 331.057 342.622C332.638 345.119 336.25 345.544 338.406 345.785C341.735 346.16 344.972 345.544 348.884 344.803C350.463 344.521 352.059 344.345 353.661 344.279C354.843 344.22 357.323 344.112 357.423 344.553C357.523 344.994 355.991 345.385 354.477 346.085C352.288 347.133 351.281 348.207 348.443 350.887C346.878 352.368 344.514 354.557 341.344 357.37C334.613 349.88 327.902 342.395 321.211 334.916Z" fill="#C4C3C6"/>
<path d="M340.903 362.064C343.134 356.313 349.226 353.284 354.145 349.58C357.282 347.2 360.07 344.353 363.424 342.281C366.778 340.209 370.915 338.952 374.668 340.151C375.75 340.5 377.215 340.916 377.789 339.934C377.976 339.551 378.02 339.115 377.914 338.702C376.791 332.827 372.038 336.73 369.217 338.195C366.554 339.568 363.324 339.027 360.412 339.743C356.874 340.633 354.12 343.321 351.54 345.901L334.486 362.896C335.785 363.366 337.134 363.684 338.506 363.845C338.909 363.923 339.325 363.894 339.713 363.762C340.37 363.471 340.628 362.697 340.886 362.031L340.903 362.064Z" fill="white"/>
<path d="M357.365 367.116C356.341 365.102 357.282 362.522 358.938 360.966C360.594 359.409 362.866 358.594 365.005 357.736C367.144 356.879 369.35 355.839 370.69 353.966C371.655 352.618 372.088 350.97 372.937 349.547C373.786 348.124 375.35 346.875 376.965 347.233C377.88 347.433 378.754 348.124 379.645 347.849C380.677 347.541 380.927 346.051 380.327 345.152C377.922 341.549 372.521 344.919 370.165 346.692C365.951 349.977 361.906 353.474 358.047 357.17L341.976 372.051C340.936 373.009 339.796 374.332 340.312 375.663C340.582 376.221 341.059 376.653 341.641 376.867C342.223 377.081 342.865 377.061 343.433 376.812C344.556 376.255 345.42 375.286 345.846 374.107C346.337 372.975 346.629 371.752 347.195 370.653C348.172 368.905 349.768 367.587 351.669 366.957C353.569 366.327 355.637 366.431 357.465 367.249C357.426 367.21 357.392 367.165 357.365 367.116Z" fill="white"/>
<path d="M355.027 382.039C353.828 381.606 352.047 381.864 351.697 382.871C351.398 383.753 352.288 385.002 353.362 385.368C354.827 385.859 356.691 384.744 356.691 383.703C356.716 382.871 355.701 382.255 355.027 382.039Z" fill="white"/>
<path d="M372.413 369.396C375.742 366.95 377.406 362.306 381.243 360.549C382.658 359.9 384.248 359.717 385.721 359.201C387.194 358.685 388.667 357.686 389.05 356.163C390.357 350.762 381.56 353.608 379.753 354.982C377.924 356.516 376.252 358.228 374.76 360.092C368.326 367.357 360.453 373.208 353.953 380.382C355.36 380.621 356.798 380.602 358.198 380.324C358.898 380.175 359.547 379.847 360.084 379.374C360.62 378.9 361.026 378.296 361.26 377.619C361.452 376.904 361.385 376.138 361.552 375.405C361.968 373.525 363.849 372.326 365.713 371.752C367.577 371.178 369.533 371.003 371.264 370.137C371.668 369.924 372.052 369.676 372.413 369.396Z" fill="white"/>
<path d="M395.807 359.567C395.391 359.201 394.292 359.825 393.31 360.4C391.456 361.543 389.775 362.944 388.316 364.561C385.303 367.607 386.152 366.667 384.987 367.89C381.45 371.619 381.3 372.218 378.329 375.381C375.191 378.71 373.618 380.374 372.503 381.206C370.835 382.28 369.416 383.699 368.342 385.368C367.976 385.975 367.093 387.398 367.51 387.865C367.926 388.331 370.148 387.49 371.671 386.2C372.986 385.085 373.052 384.361 374.168 382.871C376.39 379.9 377.705 380.674 379.994 377.877C382.133 375.272 381.45 374.066 383.323 372.884C385.47 371.535 387.176 372.592 388.316 371.219C389.723 369.555 388.366 366.509 389.149 366.226C389.764 365.993 390.447 367.89 391.645 367.89C392.844 367.89 393.643 365.984 394.974 362.896C396.215 360.017 395.932 359.642 395.807 359.567Z" fill="white"/>
<path d="M331.605 380.84C329.716 379.966 316.158 401.447 315.95 424.584C315.878 429.959 316.584 435.317 318.048 440.489C319.774 433.733 321.923 427.092 324.481 420.606C328.643 410.045 330.615 408.48 331.306 402.296C331.772 398.068 331.064 396.878 331.597 385.601C331.789 381.672 331.913 380.982 331.605 380.84Z" fill="#C4C3C6"/>
<path d="M462.913 237.69C463.854 237.349 467.075 242.159 468.739 247.677C469.072 248.784 472.235 259.579 467.075 266.819C466.526 267.593 465.119 269.566 463.746 269.316C461.848 268.983 461.291 264.664 461.249 264.322C460.733 260.161 462.639 257.772 463.746 254.335C466.517 245.705 461.74 238.131 462.913 237.69Z" fill="white"/>
<path d="M163.129 614.991C161.331 614.867 159.524 614.974 157.753 615.307C157.308 615.43 156.841 615.45 156.388 615.365C156.066 615.243 155.784 615.033 155.574 614.76C155.364 614.486 155.233 614.16 155.197 613.817C154.84 611.529 156.13 609.14 156.155 606.843C156.081 604.461 156.137 602.078 156.321 599.702C156.704 596.639 158.818 594.983 161.539 593.876C163.545 593.094 165.776 592.345 166.932 590.547C165.947 590.188 164.86 590.227 163.903 590.655C162.313 591.171 160.757 591.796 159.209 592.428C160.532 591.263 162.538 589.099 160.183 588.866C158.518 588.725 156.962 589.998 155.639 588.333C153.974 586.203 157.919 580.302 161.464 575.017C167.432 566.145 168.888 566.911 170.619 562.533C173.724 554.71 171.452 546.32 170.619 543.391C168.48 535.584 165.301 534.061 166.458 530.074C167.723 525.73 173.116 521.927 178.11 521.752C182.596 521.602 186.333 524.398 188.097 522.584C188.821 521.852 188.43 521.153 188.929 520.087C190.552 516.683 197.593 517.491 202.246 516.758C209.287 515.66 213.215 510.674 218.059 505.939C224.143 500.005 234.762 491.44 254.679 480.138C237.775 492.847 225.549 502.834 221.388 506.771C218.259 509.742 216.394 511.765 216.394 511.765C212.283 516.242 212.699 516.758 210.568 518.423C206.407 521.652 203.186 520.828 202.246 523.416C201.513 525.455 202.695 528.194 203.91 528.41C205.275 528.651 206.365 525.68 207.239 525.913C208.338 526.213 208.862 531.431 207.239 536.733C204.26 546.487 196.678 547.727 192.258 559.204C191.143 562.125 191.851 561.459 190.594 565.03C185.051 580.776 175.022 582.691 174.781 592.495C174.656 597.771 177.444 602.099 175.613 603.314C173.948 604.421 171.036 601.167 167.29 602.482C165.709 603.04 163.886 604.446 163.961 605.811C164.078 607.758 167.964 607.833 168.955 610.805C169.945 613.776 168.123 615.732 165.193 615.232C164.544 615.124 163.853 615.074 163.129 614.991Z" fill="white"/>
<path d="M263.169 471.558C262.436 470.967 268.329 461.346 277.317 452.415C284.2 445.582 288.761 441.18 295.627 440.764C302.169 440.372 308.336 443.751 308.944 444.093C310.187 444.73 311.313 445.574 312.273 446.589C315.535 450.285 316.434 456.851 313.937 459.074C311.149 461.57 306.605 456.327 296.46 455.744C286.714 455.187 279.032 459.357 276.485 460.738C267.638 465.54 263.768 472.049 263.169 471.558Z" fill="white"/>
<path d="M323.923 453.248C320.153 481.545 321.618 499.322 323.923 510.674C325.288 516.677 325.848 522.834 325.588 528.984C325.138 538.514 322.725 545.63 318.93 556.449C318.522 557.598 318.139 558.705 317.756 559.778L317.481 560.61C317.265 561.493 317.265 562.325 316.649 562.899C316.558 563.141 316.474 563.39 316.383 563.632C311.439 577.389 308.892 583.132 308.892 583.132C305.746 590.314 304.132 593.119 305.563 595.616C307.777 599.486 316.175 600.609 322.492 597.963C322.941 597.78 323.382 597.572 323.807 597.347C324.705 595.616 327.202 595.616 327.81 594.059C328.001 593.81 328.176 593.56 328.342 593.294C328.668 592.764 328.947 592.207 329.175 591.629C329.293 591.337 329.39 591.036 329.466 590.73C329.57 590.335 329.634 589.931 329.657 589.523C329.544 589.136 329.397 588.76 329.216 588.4C329.044 588.055 328.838 587.729 328.6 587.426C323.873 586.452 322.209 581.459 321.768 576.981C321.768 576.74 321.842 576.49 321.901 576.224C321.959 575.957 322.034 575.699 322.125 575.392C322.217 575.084 322.125 574.759 322.167 574.443C322.217 573.486 322.267 572.545 322.292 571.655C322.292 571.214 322.292 570.772 322.292 570.331C322.292 569 322.417 567.668 322.475 566.411C322.575 566.009 322.711 565.616 322.883 565.238C323.46 563.958 324.339 562.838 325.446 561.975C325.853 561.808 326.245 561.607 326.62 561.376C330.515 558.963 330.431 554.393 329.441 549.957C329.441 549.608 329.441 549.258 329.441 548.909C329.483 547.868 329.549 546.778 329.657 545.638C330.739 533.828 333.977 535.651 335.483 522.334C336.399 514.195 335.55 506.813 333.819 492.373C331.622 474.121 329.965 471.017 330.49 461.579C330.894 454.482 332.294 447.478 334.651 440.772L323.923 453.248Z" fill="#C4C3C6"/>
<path d="M347.227 577.256C346.578 574.975 351.064 572.945 350.556 569.765C350.198 567.543 347.743 566.927 348.059 565.604C348.375 564.281 351.238 564.156 354.717 563.107C357.707 562.2 360.521 560.793 363.04 558.946C367.468 562.466 371.196 565.288 373.86 567.269C378.021 570.373 383.123 574.077 389.673 578.088C397.055 582.624 398.869 583.007 400.492 583.082C403.214 583.215 405.361 582.458 407.983 583.914C409.905 584.988 409.847 586.011 412.144 587.243C414.641 588.583 415.173 587.651 417.97 588.908C420.127 589.965 422.096 591.371 423.796 593.069C423.796 593.069 429.23 599.128 427.957 601.392C427.125 602.898 423.088 603.056 420.467 601.392C417.412 599.428 417.454 595.724 415.473 595.566C413.717 595.433 412.976 598.262 411.312 598.063C409.497 597.855 409.847 594.417 407.15 592.237C405.486 590.913 402.989 590.789 397.995 590.572C394.866 590.447 393.401 590.572 391.337 590.572C388.349 590.572 387.542 590.339 377.189 588.908C367.834 587.626 365.795 587.451 363.872 588.908C361.683 590.572 361.542 592.894 359.711 593.069C357.431 593.294 356.923 589.798 353.885 588.908C349.416 587.609 345.729 593.785 342.233 592.237C341.341 591.777 340.618 591.046 340.169 590.148C339.72 589.25 339.569 588.233 339.737 587.243C340.927 582.616 353.136 582.424 353.053 580.585C352.995 579.403 347.893 579.57 347.227 577.256Z" fill="white"/>
<path d="M282.145 483.376C281.496 483.759 280.796 484.142 280.081 484.516C268.171 490.775 251.659 496.368 240.348 499.68C236.711 500.745 232.858 501.702 232.392 500.945C232.258 500.712 232.616 500.221 233.748 499.638C234.657 499.201 235.594 498.826 236.553 498.515C253.057 492.814 270.177 486.272 287.172 479.189C287.23 480.005 285.074 481.661 282.145 483.376Z" fill="black"/>
<path d="M300.919 472.315C300.736 472.265 300.545 472.223 300.353 472.19C297.141 471.716 293.296 473.355 290.765 474.87C289.933 475.353 289.101 476.01 289.192 476.726C289.203 476.853 289.256 476.973 289.344 477.065C289.432 477.157 289.549 477.217 289.675 477.234C289.914 477.238 290.15 477.186 290.366 477.084C294.301 475.505 298.399 474.363 302.584 473.68C302.449 473.327 302.224 473.016 301.932 472.777C301.64 472.537 301.291 472.378 300.919 472.315Z" fill="black"/>
</g>
<defs>
<clipPath id="clip0_268_58176">
<rect width="600" height="600" fill="white" transform="translate(30 30)"/>
</clipPath>
</defs>
</svg>
