<svg width="205" height="732" viewBox="0 0 205 732" fill="none" xmlns="http://www.w3.org/2000/svg">
<path fill-rule="evenodd" clip-rule="evenodd" d="M60.426 212.426L60.426 219.979L67.9792 219.979L67.9792 212.426L60.426 212.426ZM45.3195 212.426L45.3195 219.979L52.8727 219.979L52.8727 212.426L45.3195 212.426ZM30.213 212.426L30.213 219.979L37.7662 219.979L37.7662 212.426L30.213 212.426ZM15.1065 212.426L15.1065 219.979L22.6597 219.979L22.6597 212.426L15.1065 212.426ZM-5.34058e-05 212.426L-5.34058e-05 219.979L7.5532 219.979L7.5532 212.426L-5.34058e-05 212.426ZM52.8727 204.873L52.8727 212.426L60.426 212.426L60.426 204.873L52.8727 204.873ZM37.7662 204.873L37.7662 212.426L45.3195 212.426L45.3195 204.873L37.7662 204.873ZM22.6597 204.873L22.6597 212.426L30.213 212.426L30.213 204.873L22.6597 204.873ZM7.5532 204.873L7.5532 212.426L15.1065 212.426L15.1065 204.873L7.5532 204.873ZM60.426 197.32L60.426 204.873L67.9792 204.873L67.9792 197.32L60.426 197.32ZM45.3195 197.32L45.3195 204.873L52.8727 204.873L52.8727 197.32L45.3195 197.32ZM30.213 197.32L30.213 204.873L37.7662 204.873L37.7662 197.32L30.213 197.32ZM15.1065 197.32L15.1065 204.873L22.6597 204.873L22.6597 197.32L15.1065 197.32ZM-5.34058e-05 197.32L-5.34058e-05 204.873L7.5532 204.873L7.5532 197.32L-5.34058e-05 197.32ZM52.8727 189.766L52.8727 197.32L60.426 197.32L60.426 189.766L52.8727 189.766ZM37.7662 189.766L37.7662 197.32L45.3195 197.32L45.3195 189.766L37.7662 189.766ZM22.6597 189.766L22.6597 197.32L30.213 197.32L30.213 189.766L22.6597 189.766ZM7.5532 189.766L7.5532 197.32L15.1065 197.32L15.1065 189.766L7.5532 189.766ZM30.213 182.213L30.213 189.766L37.7662 189.766L37.7662 182.213L30.213 182.213ZM15.1065 182.213L15.1065 189.766L22.6597 189.766L22.6597 182.213L15.1065 182.213ZM-5.34058e-05 182.213L-5.34058e-05 189.766L7.5532 189.766L7.5532 182.213L-5.34058e-05 182.213ZM60.426 182.213L60.426 189.766L67.9792 189.766L67.9792 182.213L60.426 182.213ZM45.3195 182.213L45.3195 189.766L52.8727 189.766L52.8727 182.213L45.3195 182.213ZM52.8727 174.66L52.8727 182.213L60.426 182.213L60.426 174.66L52.8727 174.66ZM37.7662 174.66L37.7662 182.213L45.3195 182.213L45.3195 174.66L37.7662 174.66ZM22.6597 174.66L22.6597 182.213L30.213 182.213L30.213 174.66L22.6597 174.66ZM7.5532 174.66L7.5532 182.213L15.1065 182.213L15.1065 174.66L7.5532 174.66ZM60.426 167.107L60.426 174.66L67.9792 174.66L67.9792 167.107L60.426 167.107ZM45.3195 167.107L45.3195 174.66L52.8727 174.66L52.8727 167.107L45.3195 167.107ZM30.213 167.107L30.213 174.66L37.7662 174.66L37.7662 167.107L30.213 167.107ZM15.1065 167.107L15.1065 174.66L22.6597 174.66L22.6597 167.107L15.1065 167.107ZM-5.34058e-05 167.107L-5.34058e-05 174.66L7.5532 174.66L7.5532 167.107L-5.34058e-05 167.107ZM52.8727 159.553L52.8727 167.107L60.426 167.107L60.426 159.553L52.8727 159.553ZM37.7662 159.553L37.7662 167.107L45.3195 167.107L45.3195 159.553L37.7662 159.553ZM22.6597 159.553L22.6597 167.107L30.213 167.107L30.213 159.553L22.6597 159.553ZM7.5532 159.553L7.5532 167.107L15.1065 167.107L15.1065 159.553L7.5532 159.553ZM60.426 152L60.426 159.553L67.9792 159.553L67.9792 152L60.426 152ZM45.3195 152L45.3195 159.553L52.8727 159.553L52.8727 152L45.3195 152ZM30.213 152L30.213 159.553L37.7662 159.553L37.7662 152L30.213 152ZM15.1065 152L15.1065 159.553L22.6597 159.553L22.6597 152L15.1065 152ZM-5.34058e-05 152L-5.34058e-05 159.553L7.5532 159.553L7.5532 152L-5.34058e-05 152Z" fill="#1F252E"/>
<path fill-rule="evenodd" clip-rule="evenodd" d="M75.5325 379.295L67.9792 379.295C67.9792 416.839 98.415 447.275 135.958 447.275L135.958 439.721C102.585 439.721 75.5325 412.669 75.5325 379.295ZM90.5096 379.295L82.9346 379.295C82.9346 408.58 106.674 432.319 135.958 432.319L135.958 424.744C110.859 424.744 90.5096 404.395 90.5096 379.295ZM98.5699 379.295L106.048 379.295C106.048 395.813 119.44 409.206 135.958 409.206L135.958 416.684C115.309 416.684 98.5699 399.945 98.5699 379.295ZM120.55 379.295L112.846 379.295C112.846 392.061 123.193 402.408 135.958 402.408L135.958 394.704C127.449 394.704 120.55 387.805 120.55 379.295ZM135.958 379.295L128.481 379.295C128.481 383.427 131.827 386.773 135.958 386.773L135.958 379.295Z" fill="#1F252E"/>
<path fill-rule="evenodd" clip-rule="evenodd" d="M60.5504 732L68.1037 732C68.1037 694.457 37.6678 664.021 0.124397 664.021L0.124397 671.574C33.4984 671.574 60.5504 698.627 60.5504 732ZM45.5733 732L53.1482 732C53.1482 702.716 29.4088 678.977 0.124396 678.977L0.124395 686.551C25.2237 686.551 45.5733 706.901 45.5733 732ZM37.513 732L30.0352 732C30.0352 715.482 16.6428 702.09 0.124394 702.09L0.124395 694.612C20.7742 694.612 37.513 711.351 37.513 732ZM15.5334 732L23.2374 732C23.2374 719.234 12.8906 708.887 0.124393 708.887L0.124393 716.592C8.63398 716.592 15.5334 723.491 15.5334 732ZM0.124391 732L7.60212 732C7.60212 727.869 4.25573 724.523 0.124392 724.523L0.124391 732Z" fill="#1F252E"/>
<path fill-rule="evenodd" clip-rule="evenodd" d="M135.958 7.55338L135.958 5.80637e-05C98.4152 5.97048e-05 67.9792 30.4359 67.9792 67.9794L75.5324 67.9794C75.5324 34.6054 102.585 7.55338 135.958 7.55338ZM135.958 22.5304L135.958 14.9555C106.674 14.9555 82.9346 38.695 82.9346 67.9794L90.5095 67.9794C90.5095 42.88 110.859 22.5304 135.958 22.5304ZM135.958 30.5907L135.958 38.0686C119.44 38.0686 106.048 51.4609 106.048 67.9794L98.5699 67.9794C98.5699 47.3295 115.309 30.5907 135.958 30.5907ZM135.958 52.5703L135.958 44.8664C123.192 44.8664 112.846 55.2131 112.846 67.9794L120.55 67.9794C120.55 59.4698 127.449 52.5703 135.958 52.5703ZM135.958 67.9794L135.958 60.5016C131.827 60.5016 128.481 63.848 128.481 67.9794L135.958 67.9794Z" fill="#1F252E"/>
<path fill-rule="evenodd" clip-rule="evenodd" d="M197.447 289.021L205 289.021C205 251.478 174.564 221.042 137.021 221.042L137.021 228.595C170.395 228.595 197.447 255.647 197.447 289.021ZM182.47 289.021L190.045 289.021C190.045 259.737 166.305 235.997 137.021 235.997L137.021 243.572C162.12 243.572 182.47 263.921 182.47 289.021ZM174.409 289.021L166.931 289.021C166.931 272.502 153.539 259.11 137.021 259.11L137.021 251.632C157.671 251.632 174.409 268.371 174.409 289.021ZM152.43 289.021H160.134C160.134 276.254 149.787 265.908 137.021 265.908L137.021 273.612C145.53 273.612 152.43 280.512 152.43 289.021ZM137.021 289.021H144.498C144.498 284.89 141.152 281.543 137.021 281.543L137.021 289.021Z" fill="#1F252E"/>
<path fill-rule="evenodd" clip-rule="evenodd" d="M199.675 525.876L205 525.876L205 531.201L142.346 593.855L137.021 593.855L137.021 588.53L199.675 525.876ZM153.336 593.855L163.962 593.855L205 552.816L205 542.191L153.336 593.855ZM185.097 593.855L174.409 593.855L205 563.264L205 573.952L185.097 593.855ZM205 593.855L205 584.338L195.483 593.855L205 593.855ZM137.021 577.54L137.021 566.914L178.059 525.876L188.685 525.876L137.021 577.54ZM137.021 545.778L137.021 556.466L167.611 525.876L156.924 525.876L137.021 545.778ZM146.538 525.876L137.021 535.393L137.021 525.876L146.538 525.876Z" fill="#1F252E"/>
</svg>
