<svg width="204" height="549" viewBox="0 0 204 549" fill="none" xmlns="http://www.w3.org/2000/svg">
<path fill-rule="evenodd" clip-rule="evenodd" d="M204 351.73L204 344.25L136 344.25L136 351.73L204 351.73ZM204 374.85L204 382.33L136 382.33L136 374.85L204 374.85ZM204 396.61L204 389.13L136 389.13L136 396.61L204 396.61ZM204 412.25L204 404.77L136 404.77L136 412.25L204 412.25ZM204 359.89L204 367.37L136 367.37L136 359.89L204 359.89Z" fill="#1F252E"/>
<path fill-rule="evenodd" clip-rule="evenodd" d="M76.6183 157.25L69.0627 157.25C69.0627 194.805 99.5078 225.25 137.063 225.25L137.063 217.695C103.679 217.695 76.6183 190.634 76.6183 157.25ZM91.5999 157.25L84.0227 157.25C84.0227 186.543 107.769 210.29 137.063 210.29L137.063 202.713C111.956 202.713 91.5999 182.357 91.5999 157.25ZM99.6627 157.25L107.143 157.25C107.143 173.773 120.54 187.17 137.063 187.17L137.063 194.65C116.407 194.65 99.6627 177.906 99.6627 157.25ZM121.649 157.25L113.943 157.25C113.943 170.02 124.293 180.37 137.063 180.37L137.063 172.663C128.551 172.663 121.649 165.762 121.649 157.25ZM137.063 157.25L129.583 157.25C129.583 161.383 132.93 164.73 137.063 164.73L137.063 157.25Z" fill="#1F252E"/>
<path fill-rule="evenodd" clip-rule="evenodd" d="M7.55563 480.25L-2.16148e-06 480.25C-9.67749e-07 517.805 30.4452 548.25 68.0001 548.25L68.0001 540.695C34.6159 540.695 7.55563 513.635 7.55563 480.25ZM22.5373 480.25L14.96 480.25C14.96 509.544 38.7068 533.29 68.0001 533.29L68.0001 525.713C42.8931 525.713 22.5373 505.357 22.5373 480.25ZM30.6 480.25L38.0802 480.25C38.0802 496.774 51.4766 510.17 68.0001 510.17L68.0001 517.65C47.3439 517.65 30.6 500.907 30.6 480.25ZM52.5863 480.25L44.88 480.25C44.88 493.021 55.2299 503.37 68.0001 503.37L68.0001 495.664C59.4879 495.664 52.5863 488.762 52.5863 480.25ZM68.0001 480.25L60.5201 480.25C60.5201 484.383 63.8675 487.73 68.0001 487.73L68.0001 480.25Z" fill="#1F252E"/>
<path fill-rule="evenodd" clip-rule="evenodd" d="M5.32631 68L-6.05583e-05 68L-6.11933e-05 62.6731L62.673 -6.04001e-05L68 -6.10352e-05L68 5.32622L5.32631 68ZM51.68 -5.90897e-05L41.0507 -5.78226e-05L-6.37708e-05 41.0514L-6.25038e-05 51.68L51.68 -5.90897e-05ZM19.9091 -5.53023e-05L30.6 -5.65767e-05L-6.50167e-05 30.6L-6.62912e-05 19.9087L19.9091 -5.53023e-05ZM-6.86646e-05 -5.29289e-05L-6.75297e-05 9.51997L9.51994 -5.40638e-05L-6.86646e-05 -5.29289e-05ZM68 16.32L68 26.949L26.9492 68L16.32 68L68 16.32ZM68 48.0912L68 37.4L37.4 68L48.0908 68L68 48.0912ZM58.48 68L68 58.48L68 68L58.48 68Z" fill="#1F252E"/>
</svg>
