<svg xmlns="http://www.w3.org/2000/svg" xmlns:xlink="http://www.w3.org/1999/xlink" viewBox="0 0 732.01 494.32"><defs><style>.cls-1,.cls-2,.cls-4,.cls-5{fill:none;}.cls-2,.cls-3,.cls-4,.cls-5,.cls-6,.cls-7,.cls-8{stroke:#4038ff;stroke-linecap:square;}.cls-2,.cls-3,.cls-4,.cls-6,.cls-7{stroke-miterlimit:10;}.cls-2{stroke-width:2px;}.cls-3,.cls-4,.cls-5,.cls-6,.cls-7,.cls-8{stroke-width:12px;}.cls-3{fill:url(#lines);}.cls-6{fill:url(#lines-7);}.cls-7,.cls-8{fill:#fff;}</style><pattern id="lines" data-name="lines" width="16" height="16" patternTransform="translate(-291.14 40.73)" patternUnits="userSpaceOnUse" viewBox="0 0 16 16"><rect class="cls-1" width="16" height="16"/><line class="cls-2" x1="1.98" y1="78.02" x2="67.98" y2="12.02"/><line class="cls-2" x1="-14.02" y1="78.02" x2="51.98" y2="12.02"/><line class="cls-2" x1="-30.02" y1="78.02" x2="35.98" y2="12.02"/><line class="cls-2" x1="-46.02" y1="78.02" x2="19.98" y2="12.02"/><line class="cls-2" x1="-62.02" y1="78.02" x2="3.98" y2="12.02"/><line class="cls-2" x1="1.98" y1="62.02" x2="67.98" y2="-3.98"/><line class="cls-2" x1="-14.02" y1="62.02" x2="51.98" y2="-3.98"/><line class="cls-2" x1="-30.02" y1="62.02" x2="35.98" y2="-3.98"/><line class="cls-2" x1="-46.02" y1="62.02" x2="19.98" y2="-3.98"/><line class="cls-2" x1="-62.02" y1="62.02" x2="3.98" y2="-3.98"/><line class="cls-2" x1="1.98" y1="46.02" x2="67.98" y2="-19.98"/><line class="cls-2" x1="-14.02" y1="46.02" x2="51.98" y2="-19.98"/><line class="cls-2" x1="-30.02" y1="46.02" x2="35.98" y2="-19.98"/><line class="cls-2" x1="-46.02" y1="46.02" x2="19.98" y2="-19.98"/><line class="cls-2" x1="-62.02" y1="46.02" x2="3.98" y2="-19.98"/><line class="cls-2" x1="1.98" y1="30.02" x2="67.98" y2="-35.98"/><line class="cls-2" x1="-14.02" y1="30.02" x2="51.98" y2="-35.98"/><line class="cls-2" x1="-30.02" y1="30.02" x2="35.98" y2="-35.98"/><line class="cls-2" x1="-46.02" y1="30.02" x2="19.98" y2="-35.98"/><line class="cls-2" x1="-62.02" y1="30.02" x2="3.98" y2="-35.98"/><line class="cls-2" x1="1.98" y1="14.02" x2="67.98" y2="-51.98"/><line class="cls-2" x1="-14.02" y1="14.02" x2="51.98" y2="-51.98"/><line class="cls-2" x1="-30.02" y1="14.02" x2="35.98" y2="-51.98"/><line class="cls-2" x1="-46.02" y1="14.02" x2="19.98" y2="-51.98"/><line class="cls-2" x1="-62.02" y1="14.02" x2="3.98" y2="-51.98"/></pattern><pattern id="lines-7" data-name="lines" width="16" height="16" patternTransform="translate(-11.16 -1.49)" patternUnits="userSpaceOnUse" viewBox="0 0 16 16"><rect class="cls-1" width="16" height="16"/><line class="cls-2" x1="1.98" y1="78.02" x2="67.98" y2="12.02"/><line class="cls-2" x1="-14.02" y1="78.02" x2="51.98" y2="12.02"/><line class="cls-2" x1="-30.02" y1="78.02" x2="35.98" y2="12.02"/><line class="cls-2" x1="-46.02" y1="78.02" x2="19.98" y2="12.02"/><line class="cls-2" x1="-62.02" y1="78.02" x2="3.98" y2="12.02"/><line class="cls-2" x1="1.98" y1="62.02" x2="67.98" y2="-3.98"/><line class="cls-2" x1="-14.02" y1="62.02" x2="51.98" y2="-3.98"/><line class="cls-2" x1="-30.02" y1="62.02" x2="35.98" y2="-3.98"/><line class="cls-2" x1="-46.02" y1="62.02" x2="19.98" y2="-3.98"/><line class="cls-2" x1="-62.02" y1="62.02" x2="3.98" y2="-3.98"/><line class="cls-2" x1="1.98" y1="46.02" x2="67.98" y2="-19.98"/><line class="cls-2" x1="-14.02" y1="46.02" x2="51.98" y2="-19.98"/><line class="cls-2" x1="-30.02" y1="46.02" x2="35.98" y2="-19.98"/><line class="cls-2" x1="-46.02" y1="46.02" x2="19.98" y2="-19.98"/><line class="cls-2" x1="-62.02" y1="46.02" x2="3.98" y2="-19.98"/><line class="cls-2" x1="1.98" y1="30.02" x2="67.98" y2="-35.98"/><line class="cls-2" x1="-14.02" y1="30.02" x2="51.98" y2="-35.98"/><line class="cls-2" x1="-30.02" y1="30.02" x2="35.98" y2="-35.98"/><line class="cls-2" x1="-46.02" y1="30.02" x2="19.98" y2="-35.98"/><line class="cls-2" x1="-62.02" y1="30.02" x2="3.98" y2="-35.98"/><line class="cls-2" x1="1.98" y1="14.02" x2="67.98" y2="-51.98"/><line class="cls-2" x1="-14.02" y1="14.02" x2="51.98" y2="-51.98"/><line class="cls-2" x1="-30.02" y1="14.02" x2="35.98" y2="-51.98"/><line class="cls-2" x1="-46.02" y1="14.02" x2="19.98" y2="-51.98"/><line class="cls-2" x1="-62.02" y1="14.02" x2="3.98" y2="-51.98"/></pattern></defs><g id="Warstwa_2" data-name="Warstwa 2"><g id="Over-Fetching"><path class="cls-3" d="M6,91.37a37.39,37.39,0,0,1,37.27-37.5c14.91,0,28.75,13,28.75,37.5Z"/><path class="cls-4" d="M43.27,53.87H182.13v.25"/><path class="cls-4" d="M138,332a37.39,37.39,0,0,1-37.27,37.5c-14.91,0-28.75-13-28.75-37.5V91.37"/><path class="cls-3" d="M182.13,369.52H109.55c-8.78,0-.67-.73-.18-.93,17.36-7,26.85-18.64,28.67-36.57h44.09"/><path class="cls-5" d="M115.78,191.42h66.35"/><path class="cls-5" d="M115.78,236.62h66.35"/><path class="cls-5" d="M115.78,287.34h61.09"/><path class="cls-3" d="M97.75,53.92A47.78,47.78,0,0,1,145.38,6c19.06,0,36.75,16.65,36.75,47.92Z"/><path class="cls-4" d="M182.13,103.5v0ZM145.38,6H391.71v.31m0,0A48.9,48.9,0,0,1,397.15,6c19.06,0,36.75,16.65,36.75,47.92"/><path class="cls-5" d="M381.57,210.16"/><path class="cls-5" d="M238.06,210.16"/><path class="cls-4" d="M433.9,53.87h68.59v.24"/><path class="cls-5" d="M494.76,106.06"/><path class="cls-5" d="M433.9,106.06"/><path class="cls-5" d="M494.76,157.81"/><path class="cls-5" d="M433.9,157.81"/><path class="cls-5" d="M494.76,209.56"/><path class="cls-5" d="M433.9,209.56"/><path class="cls-5" d="M471.92,259"/><path class="cls-5" d="M433.9,259"/><path class="cls-6" d="M111.7,145.66a40.28,40.28,0,0,1,40.15-40.4c16.06,0,31,14,31,40.4Z"/><path class="cls-7" d="M151.85,105.26H301.46v.26"/><path class="cls-4" d="M254,404.94a40.28,40.28,0,0,1-40.16,40.4c-16.06,0-31-14-31-40.4V145.66"/><path class="cls-6" d="M301.46,445.34h-78.2c-9.46,0-.72-.78-.19-1,18.7-7.56,28.93-20.08,30.89-39.4h47.5"/><path class="cls-8" d="M230,163h71.48"/><path class="cls-8" d="M230,220.16h71.48"/><path class="cls-8" d="M230,277.37h71.48"/><path class="cls-8" d="M230,332h65.81"/><path class="cls-6" d="M210.55,105.31a51.48,51.48,0,0,1,51.32-51.63c20.53,0,39.59,17.94,39.59,51.63Z"/><path class="cls-4" d="M301.46,436.69v0Zm-39.59-383h265.4V54m0,0a51.53,51.53,0,0,1,5.86-.33c20.53,0,39.59,17.94,39.59,51.63V436.69"/><path class="cls-4" d="M392.37,436.69a51.47,51.47,0,0,1-51.32,51.63c-20.53,0-39.59-17.94-39.59-51.63"/><path class="cls-6" d="M352.89,487.05c-.68.27-11.84,1.27.24,1.27H580.05a51.47,51.47,0,0,0,51.32-51.63h-239C389.86,461.38,376.8,477.38,352.89,487.05Z"/><path class="cls-8" d="M361.72,127.41H516.34"/><path class="cls-8" d="M361.72,200.53H516.34"/><path class="cls-8" d="M361.72,273.65H516.34"/><path class="cls-8" d="M361.72,343.49h96.59"/><path class="cls-4" d="M572.72,105.26h73.9v.26m0,0a38.88,38.88,0,0,1,4.47-.26c15.66,0,30.19,13.68,30.19,39.37V397.32"/><path class="cls-6" d="M572.72,397.32H726a39.26,39.26,0,0,1-39.14,39.37H572.72"/><path class="cls-8" d="M572.72,161.48h65.57"/><path class="cls-8" d="M572.72,217.24h65.57"/><path class="cls-8" d="M572.72,273h65.57"/><path class="cls-8" d="M572.72,326.25h41"/></g></g></svg>