<svg xmlns="http://www.w3.org/2000/svg" viewBox="0 0 232.21 280.25">
  <defs>
    <style>
      .cls-1,.cls-5{fill:#c4c3c6}.cls-1,.cls-3{fill-rule:evenodd}.cls-3,.cls-6{fill:#fff}
    </style>
  </defs>
  <g>
    <g>
      <g>
        <path d="M180.53 10.92c32.46 16.92 39.59 74.7 17.71 123.82-10.35 23.26-25.74 42.26-43.12 53.6a46.18 46.18 0 0 1-21.84 7.82 37.92 37.92 0 0 1-12.68-1.06q-18.31-2.1-28.23-6.1-10.28-4.11-20.72-15.23c-20.14-23.33-22-67.81-3.72-108.92C89.81 15.77 133.14-11.94 165.59 5c4.11 2.12 10.25 3.47 14.94 5.92z"/>
        <path class="cls-1" d="M122.43 184.4c10.23-.54 35.42-16.82 51-43.14 14.45-24.42 19.84-58.28 17.21-76.69-3.1-21.67-7.05-34.93-25-46.94 4.26.5 9 2.85 12.84 4.86C205.82 36.64 211 86 191.11 130.32c-9.78 21.85-24 38.87-39.23 48.83-13.44 8.8-18.46 7.87-22 7-4.23-.95-6.71-1.55-7.45-1.75z"/>
        <path d="M174 122c19.44-44 13.27-91.19-13.79-105.43S95.45 26.45 76 70.43s-13.27 91.19 13.79 105.43S154.55 166 174 122z" fill="#d8d8d8" fill-rule="evenodd"/>
        <path class="cls-1" d="M174 122c19.44-44 13.27-91.19-13.79-105.43S95.45 26.45 76 70.43s-13.27 91.19 13.79 105.43S154.55 166 174 122z"/>
        <path class="cls-3" d="M147.93 24.16c-22.06-2.51-47.74 19-60.84 52.91-14.92 38.61-7.86 78.63 15.77 89.38a28.09 28.09 0 0 0 4 1.48 29.48 29.48 0 0 1-9-2.48c-23.63-10.76-30.69-50.77-15.76-89.38 14.1-36.47 42.77-58.64 65.82-51.91z"/>
        <path class="cls-3" d="M96.74 178.14c25.07 4.26 55.84-19.25 73-57.88 19.57-44 14.1-91-12.23-104.95a33.82 33.82 0 0 0-4.46-2 33.76 33.76 0 0 1 10.09 3.43c26.33 14 31.81 60.94 12.23 105-18.49 41.58-52.72 65.64-78.65 56.41z"/>
        <path d="M129.92 159.72c12.45-9.51 23.59-25.29 30.43-45 13.54-39.08 5.05-78.86-19-88.84a30 30 0 0 0-12.54-2.28c8.13-2 16.14-1.33 23.3 2.55 23 12.47 28.49 53.21 12.19 91-8.44 19.54-21 34.46-34.42 42.59z" fill-rule="evenodd"/>
      </g>
      <path d="M80.43 126.94c3.91-.94 7.88-1.91 11.9-2.86.38-.09.49-.27.57-.87C95.49 105 96 85.6 98.59 67.4c0-.25 2.16.73 2.2.43.18 0 .23.21.31.34q10.71 16.89 22.1 34.89c.32.5.32.5.81-.22 12.16-17.68 25.24-38.3 32.75-55.95.12-.26 5.28.59 5.44.34h.11l-.11.79q-4.3 30.19-8.6 60.39c-.14 1 9.21-5.19 9.92-5.36 5-1.2.65 3.68 5.8 2.44a119 119 0 0 1-5.24 12.55c-.55 1.14-1.14 2.26-1.69 3.4a1.12 1.12 0 0 1-.83.76q-10.56 2.27-20.66 4.5c-.45.1-5.21-2.63-5.11-3.29 1.75-12.23 8.15-21.87 9.89-34.1l.14-1c-.24.32-.39.53-.54.75Q132.85 106.94 121 124c-.35.49-3.88-2.57-4.1-2.93-5-8.19-6.5-13.1-11.29-20.94a4.51 4.51 0 0 1-.22-.44l-.11.09-.1.72-4.89 34.3c-.12.82-.12.82-.64.93l-16.84 3.68c-.3.07-.45 0-.55-.43a70.16 70.16 0 0 1-1.78-11.79 1.76 1.76 0 0 1-.05-.25z"/>
      <path class="cls-5" d="M78.92 123.78c3.72-.91 7.5-1.85 11.33-2.77.37-.09.47-.26.55-.83q3.74-26.29 7.49-52.58l.11-.77c.17 0 .22.21.3.33l21 33.56c.3.49.3.49.77-.21q17.42-25.56 36-52.89c.16-.23.3-.48.45-.72h.11l-.11.76-8.28 58.17c-.14 1-.21.87.46.7l14.51-3.53a115.17 115.17 0 0 1-5 12.09c-.52 1.1-1.09 2.18-1.61 3.28a1.1 1.1 0 0 1-.79.73q-10.06 2.2-19.69 4.37c-.43.09-.52 0-.43-.68q2.53-17.67 5-35.33l.13-.94c-.22.31-.36.52-.51.72q-11.87 17.17-23.23 33.6c-.32.48-.46.51-.67.16q-7.11-11.82-14-23.12a3.23 3.23 0 0 1-.2-.42l-.11.08-.1.7-4.71 33c-.11.79-.11.79-.61.9q-8.18 1.81-16 3.57c-.29.06-.43 0-.52-.42A67.18 67.18 0 0 1 78.92 124a1.61 1.61 0 0 1 0-.22z"/>
      <path class="cls-6" d="M150.21 108.21c-.13 1-.21.88.47.71l11.84-2.92c.38-1 .75-2 1.09-3l-13.11 3.2c-.1.69-.19 1.35-.29 2.01zM80.49 126.35v-.22c3.73-.91 7.51-1.85 11.34-2.77.37-.09.47-.26.55-.84Q96.12 96.24 99.87 70c0-.24.07-.47.11-.75-.43-.67-.86-1.36-1.28-2-.08-.12-.13-.3-.3-.33l-.11.77q-3.74 26.28-7.49 52.58c-.08.57-.18.74-.55.83-3.83.92-7.61 1.86-11.33 2.77a1.61 1.61 0 0 0 0 .22 67.18 67.18 0 0 0 1.68 11.35c.09.38.23.48.52.42l.61-.14a69.78 69.78 0 0 1-1.24-9.37zM121.27 103.07c.3.48.3.48.77-.21l34.17-50.18c.23-1.66.47-3.32.71-5l.11-.76h-.11c-.15.24-.29.49-.45.72q-18.6 27.34-36 52.89c-.24.35-.35.53-.45.55zM104.47 100.26c-.08-.13-.14-.28-.21-.42l-.1.08v.08q6.22 10.32 12.69 21c.11.18.2.25.3.22q-6.46-10.68-12.68-20.96zM142.7 89.83l.13-.94-.51.73c-.63.92-1.26 1.83-1.9 2.74q-2.16 15.23-4.34 30.46c-.09.64 0 .77.43.68l1.43-.32q2.38-16.68 4.76-33.35z"/>
      <path d="M227.45 168.42c-4.23-3.9-9.73-5.64-16.33-5.16l-.84.08c-5.38.61-9.1 3.16-12.09 5.21l-.69.46a27.63 27.63 0 0 1-5.93 2.53c-1.09.37-2.21.76-3.34 1.2-4 1.54-7.87 3.27-11.65 4.94-6.51 2.89-12.74 5.65-19 7.38a19.51 19.51 0 0 0-8.08-5.83c-5.55-2.24-11.77-2.92-19-2.1a117.16 117.16 0 0 0-11.83 2.16l-3.66.78c-2.42.5-4.92 1-7.29 1.28a22 22 0 0 1-5.23.07 23.65 23.65 0 0 1-4.15-1l-.29-.09c-7.76-2.38-13.82-4.37-17.07-5.44l-2.37-.78a39 39 0 0 0-16.2-1.4c-11.37 1.29-21.52 6.67-28 11C30.74 186 22.71 191.7 20 197c-.52.78-1.81 2.65-2.5 3.61-2.76 2.39-8.19 8.25-17.5 18.76l36.06 59.11a3.73 3.73 0 0 0 6.44-.17v-.06C50.42 264 57.77 255.81 64.4 254a23.49 23.49 0 0 1 2.71-.5c1-.16 2.14-.3 3.23-.42a186.63 186.63 0 0 1 26.41-.66c1.79.06 3.61.17 5.54.3a82.25 82.25 0 0 0 14.73 0 34.56 34.56 0 0 0 12.74-3.83 97.45 97.45 0 0 0 9-5.7c2.52-1.72 4.91-3.36 7.34-4.68 5.1-2.78 10.33-5.2 15.88-7.77l1.85-.85a301 301 0 0 0 50.72-30.39c7-4.65 15.55-9.7 17.38-18.69 1.01-4.81-.93-9.12-4.48-12.39z"/>
      <path class="cls-5" d="M221.88 174.48c-2.85-2.62-6.45-3.27-10.16-3-3.92.28-6.48 2.24-9.59 4.35s-7.29 3.18-10.92 4.59c-12.12 4.69-23.88 11.39-36.72 13.8-.82.16-1.36.13-1.69-.87a10.46 10.46 0 0 0-6.41-6.48c-9.66-3.89-20.1-.72-29.8 1.27-4.9 1-10.21 2.09-15.23 1.45a32.64 32.64 0 0 1-5.81-1.39c-10.42-3.2-17.82-5.71-19.49-6.2-21.76-6.83-47.67 15.22-48.84 19-.07.22-3.49 5.17-3.7 5.32-1.76 1.34-7.08 7.06-13.83 14.61l10.4 17a28 28 0 0 0 37.25 10.16 22.28 22.28 0 0 1 4.9-2 30.8 30.8 0 0 1 3.69-.71c10.29-1.49 20.7-1.47 31.07-1.15 9.7.29 19.93 2.28 28.87-2.52 5.66-3 10.64-7.26 16.32-10.36 5.93-3.23 12.08-6 18.2-8.86 8-3.69 16-7.46 23.32-12.36 4.85-3.24 9.44-6.86 14.19-10.26 5.23-3.77 33.27-16.87 23.98-25.39z"/>
      <path class="cls-6" d="M221.88 174.48c-2.85-2.62-6.45-3.27-10.16-3-3.92.28-6.48 2.24-9.59 4.35s-7.29 3.18-10.92 4.59c-12.12 4.69-23.88 11.39-36.72 13.8-.82.16-1.36.13-1.69-.87a10.46 10.46 0 0 0-6.41-6.48c-9.66-3.89-20.1-.72-29.8 1.27-4.9 1-10.21 2.09-15.23 1.45a32.64 32.64 0 0 1-5.81-1.39c-10.42-3.2-17.82-5.71-19.49-6.2-21.76-6.83-47.67 15.22-48.84 19-.07.22-3.49 5.17-3.7 5.32-1.76 1.34-7.08 7.06-13.83 14.61l10.7 17.54c7.58-.83 13.16-1.14 10.92-4.93-8.21-14 5-27 5.22-27.13 14.81-8.31 17.06-22.84 38.82-16A106.57 106.57 0 0 1 89 193.76c1.81.56 12.68 1.05 15 .79 4.09-.46 9.64-2.3 14.55-3.31 9.69-2 21.63-6.6 32.48 1.3 2.65 1.92 1.34 3.35 2.4 6.54.33 1 .87 1 1.69.88 12.84-2.42 24.6-9.11 36.72-13.81 3.63-1.41 7.74-2.43 10.92-4.59s5.67-4.07 9.59-4.35c3.71-.27 7.31.38 10.15 3 .25.23.47.45.67.66 1.46-2.56 1.06-4.22-1.29-6.39z"/>
      <path d="M155.14 192.07c3.48-2.33 8.89-3.31 10.64-1.2 1.95 2.33-1.14 7.77-1.52 8.46-4.71 8.32-13 7.47-26.45 15.43-14.08 8.34-14.41 12.42-21 12.33-7.06-.09-9.09-4.81-24.22-8.86-5-1.34-8.49-1.81-8.45-2.41.1-1.3 18.7 4 37.55-4.2 8.34-3.61 11.77-7.54 19.63-9.69 3.82-1.05 8.53-3.42 10.82-7a9 9 0 0 1 3-2.86z"/>
    </g>
  </g>
</svg>
