<svg xmlns="http://www.w3.org/2000/svg" viewBox="0 0 650.26 527.06">
    <defs>
        <pattern id="lines" data-name="lines" width="16" height="16" patternUnits="userSpaceOnUse">
            <path fill="none" d="M0 0h16v16H0z"/>
            <path class="cls-2" d="M1.98 78.02l66-66M-14.02 78.02l66-66M-30.02 78.02l66-66M-46.02 78.02l66-66M-62.02 78.02l66-66M1.98 62.02l66-66M-14.02 62.02l66-66M-30.02 62.02l66-66M-46.02 62.02l66-66M-62.02 62.02l66-66M1.98 46.02l66-66M-14.02 46.02l66-66M-30.02 46.02l66-66M-46.02 46.02l66-66M-62.02 46.02l66-66M1.98 30.02l66-66M-14.02 30.02l66-66M-30.02 30.02l66-66M-46.02 30.02l66-66M-62.02 30.02l66-66M1.98 14.02l66-66M-14.02 14.02l66-66M-30.02 14.02l66-66M-46.02 14.02l66-66M-62.02 14.02l66-66"/>
        </pattern>
        <style>
            .cls-2,.cls-3,.cls-4{fill:none}.cls-2,.cls-3,.cls-4,.cls-6{stroke:#4038ff;stroke-miterlimit:10}.cls-2,.cls-4{stroke-linecap:square}.cls-2{stroke-width:2px}.cls-3,.cls-4,.cls-6{stroke-width:12px}.cls-6{fill:url(#lines)}
        </style>
    </defs>
    <g id="Layer_2" data-name="Layer 2">
        <g id="Layer_22" data-name="Layer 22">
            <path class="cls-3" d="M449.44 310.34v19.62h22.93M316.46 329.96h29.87v-63.83l50.16 50.16 25.13-25.13"/>
            <path class="cls-3" d="M622.67 334.56c-32.25-52.13-86.95-46.27-86.95-46.27l-69.54-28.56c-5.42-3.81-30.14-22.09-30.14-22.09a45.93 45.93 0 00-6.28 3.92c-13.64 10.84-23.77 31.47-1 51.69l41.17 34.3c21.51 18.61 28.2 48.62 14.43 73l-40.55 34.85-55.38 5.4L291 380.28a23.17 23.17 0 00-32.14 6.35 23.16 23.16 0 006.35 32.13l40.1 26.88 69.39 53.43 99.89 7.81c14.25.84 20.46-1.08 31.09-4.18L646.43 455M615.32 322.61l34.84-.54"/>
            <path class="cls-4" d="M503.8 397.86c11-19.21 1.17-39-13.64-52.79l-27.25-23.13"/>
            <path class="cls-3" d="M298.36 132.07c1.43 11.58-7.12 22.18-19.09 23.66-12 1.48-22.83-6.71-24.25-18.3l-4.63-48.54"/>
            <path class="cls-3" d="M263.37 76l38 62.61A23 23 0 00333 146.3a23.05 23.05 0 0011-17.3M385.06 107a23.08 23.08 0 01-7.31 24.59 23 23 0 01-32.45-3l-50.36-60.71"/>
            <path class="cls-3" d="M2.21 84.31L186 11.44C207.42 5 207.42 5 237.3 7.7l93.17 4.23 85.25 59.18a23.06 23.06 0 01-29.31 35.6l-64.29-42.43-62.58 12.43-30.74 50.67c-12.86 28-10.53 52 14.69 70.46l48.18 33.81c26.73 20.07 17.51 43.57 3.57 56.67a50.83 50.83 0 01-6.52 4.86s-28.71-17.77-35-21.45l-78.7-25S115.69 258.15 75.67 204"/>
            <path fill="#fff" stroke-width="12" stroke="#4038ff" stroke-miterlimit="10" d="M90.77 220.97l-36.42 11.77"/>
            <path class="cls-4" d="M200 124c-10.27 22 2.25 42.83 19.71 56.55l31.91 22.84"/>
            <path class="cls-6" d="M374.7 499.07l-54.06-41.63 25.07 48.49c4.4 10 11.53 16.45 25 14.9l70.47-16.56zM398.7 200.32a91.82 91.82 0 0186.21 67.11l50.81 20.86s1.54-.16 4.24-.19a143.54 143.54 0 00-266.82-69.45l18.53 13c26.73 20.07 17.51 43.57 3.57 56.67a50.83 50.83 0 01-6.52 4.86s-16.42-9.55-27.14-15.83a5.47 5.47 0 00-8.21 4.26c-.28 3.37-.42 6.75-.42 10.47a142.86 142.86 0 0027.43 84.39 23.11 23.11 0 0110.62 3.81l87.13 54.17a146.28 146.28 0 0018.35 1.16 143 143 0 0065.43-15.74l22.43-19.28c11.4-20.2 8.78-44.23-4.64-62.46a2.37 2.37 0 00-3.95.23 91.79 91.79 0 01-171-47.59c.67-50.77 43.17-91.65 93.95-90.45z"/>
        </g>
    </g>
</svg>
