<svg xmlns="http://www.w3.org/2000/svg" xmlns:xlink="http://www.w3.org/1999/xlink" viewBox="0 0 800 600"><defs><style>.cls-1,.cls-2,.cls-3,.cls-4{fill:none;}.cls-2,.cls-3,.cls-4,.cls-5,.cls-6{stroke:#4038ff;stroke-miterlimit:10;}.cls-2,.cls-4{stroke-linecap:square;}.cls-2{stroke-width:2px;}.cls-3,.cls-4,.cls-5,.cls-6{stroke-width:12px;}.cls-5{fill:#fff;}.cls-6{fill:url(#lines);}</style><pattern id="lines" data-name="lines" width="16" height="16" patternTransform="translate(0 -144)" patternUnits="userSpaceOnUse" viewBox="0 0 16 16"><rect class="cls-1" width="16" height="16"/><line class="cls-2" x1="1.98" y1="78.02" x2="67.98" y2="12.02"/><line class="cls-2" x1="-14.02" y1="78.02" x2="51.98" y2="12.02"/><line class="cls-2" x1="-30.02" y1="78.02" x2="35.98" y2="12.02"/><line class="cls-2" x1="-46.02" y1="78.02" x2="19.98" y2="12.02"/><line class="cls-2" x1="-62.02" y1="78.02" x2="3.98" y2="12.02"/><line class="cls-2" x1="1.98" y1="62.02" x2="67.98" y2="-3.98"/><line class="cls-2" x1="-14.02" y1="62.02" x2="51.98" y2="-3.98"/><line class="cls-2" x1="-30.02" y1="62.02" x2="35.98" y2="-3.98"/><line class="cls-2" x1="-46.02" y1="62.02" x2="19.98" y2="-3.98"/><line class="cls-2" x1="-62.02" y1="62.02" x2="3.98" y2="-3.98"/><line class="cls-2" x1="1.98" y1="46.02" x2="67.98" y2="-19.98"/><line class="cls-2" x1="-14.02" y1="46.02" x2="51.98" y2="-19.98"/><line class="cls-2" x1="-30.02" y1="46.02" x2="35.98" y2="-19.98"/><line class="cls-2" x1="-46.02" y1="46.02" x2="19.98" y2="-19.98"/><line class="cls-2" x1="-62.02" y1="46.02" x2="3.98" y2="-19.98"/><line class="cls-2" x1="1.98" y1="30.02" x2="67.98" y2="-35.98"/><line class="cls-2" x1="-14.02" y1="30.02" x2="51.98" y2="-35.98"/><line class="cls-2" x1="-30.02" y1="30.02" x2="35.98" y2="-35.98"/><line class="cls-2" x1="-46.02" y1="30.02" x2="19.98" y2="-35.98"/><line class="cls-2" x1="-62.02" y1="30.02" x2="3.98" y2="-35.98"/><line class="cls-2" x1="1.98" y1="14.02" x2="67.98" y2="-51.98"/><line class="cls-2" x1="-14.02" y1="14.02" x2="51.98" y2="-51.98"/><line class="cls-2" x1="-30.02" y1="14.02" x2="35.98" y2="-51.98"/><line class="cls-2" x1="-46.02" y1="14.02" x2="19.98" y2="-51.98"/><line class="cls-2" x1="-62.02" y1="14.02" x2="3.98" y2="-51.98"/></pattern></defs><title>Incentive-2x</title><g id="Layer_2" data-name="Layer 2"><g id="Incentive"><polyline class="cls-3" points="501.94 340.59 501.94 360.21 524.87 360.21"/><polyline class="cls-3" points="368.97 360.21 398.83 360.21 398.83 296.38 449 346.54 474.12 321.41"/><path class="cls-3" d="M675.17,364.81c-32.25-52.13-86.95-46.27-86.95-46.27L518.68,290c-5.42-3.81-30.14-22.09-30.14-22.09a46,46,0,0,0-6.28,3.93c-13.64,10.84-23.77,31.46-1,51.68l41.18,34.3c21.5,18.61,28.2,48.62,14.43,73l-40.56,34.85-55.38,5.4L343.5,410.53a23.16,23.16,0,0,0-32.13,6.35h0A23.16,23.16,0,0,0,317.71,449l40.1,26.88,69.39,53.43,99.89,7.81c14.25.84,20.46-1.08,31.09-4.18l140.75-47.66"/><line class="cls-3" x1="667.82" y1="352.86" x2="702.67" y2="352.33"/><path class="cls-4" d="M556.3,428.11c11-19.21,1.17-39-13.64-52.79l-27.24-23.13"/><path class="cls-3" d="M350.87,162.32c1.42,11.59-7.12,22.18-19.09,23.66h0c-12,1.48-22.83-6.71-24.26-18.29l-4.62-48.55"/><path class="cls-3" d="M315.88,106.2l37.95,62.61a23,23,0,0,0,31.65,7.74h0a23,23,0,0,0,11-17.3"/><path class="cls-3" d="M437.56,137.29a23.06,23.06,0,0,1-7.31,24.59h0a23,23,0,0,1-32.44-3L347.44,98.13"/><path class="cls-3" d="M54.72,114.57,238.47,41.69c21.45-6.43,21.45-6.43,51.33-3.74L383,42.18l85.25,59.19A23,23,0,0,1,438.92,137l-64.3-42.43L312.05,107,281.3,157.63c-12.86,28-10.53,52,14.7,70.47l48.17,33.8c26.73,20.07,17.51,43.57,3.57,56.67a49.79,49.79,0,0,1-6.52,4.86s-28.71-17.77-35-21.45l-78.7-25s-59.34,11.37-99.36-42.77"/><line class="cls-5" x1="143.28" y1="251.22" x2="106.85" y2="262.99"/><path class="cls-4" d="M252.54,154.21c-10.27,22,2.26,42.83,19.71,56.55l31.92,22.84"/><path class="cls-6" d="M427.2,529.32l-54.06-41.63,25.08,48.49c4.4,10,11.53,16.45,25,14.9l70.46-16.56Z"/><path class="cls-6" d="M451.21,230.57a91.83,91.83,0,0,1,86.21,67.11l50.8,20.86s1.54-.16,4.24-.19A143.54,143.54,0,0,0,325.64,248.9l18.53,13c26.73,20.07,17.51,43.57,3.57,56.67a50,50,0,0,1-6.51,4.86s-16.42-9.55-27.15-15.83a5.46,5.46,0,0,0-8.2,4.26c-.28,3.37-.43,6.75-.43,10.47a142.87,142.87,0,0,0,27.44,84.39,23.08,23.08,0,0,1,10.61,3.81l87.13,54.17A146.32,146.32,0,0,0,449,465.86a143,143,0,0,0,65.42-15.74l22.44-19.28c11.39-20.2,8.77-44.22-4.65-62.46a2.36,2.36,0,0,0-3.94.23,91.79,91.79,0,0,1-171-47.59C357.92,270.22,400.42,229.37,451.21,230.57Z"/><rect class="cls-1" width="800" height="600"/></g></g></svg>