<svg width="719" height="524" viewBox="0 0 719 524" fill="none" xmlns="http://www.w3.org/2000/svg">
<path fill-rule="evenodd" clip-rule="evenodd" d="M586.66 241.99H580.007V235.337H586.66V228.667H580.007V221.997H586.66V215.343H593.33V208.674H586.66V215.327H580.007V208.674H586.66V202H579.99V208.67H573.337V215.323H566.667V208.67H559.997V215.323H553.344V208.67H559.997V202H553.327V208.67H546.674V202H540V208.67H546.67V215.323H540V221.994H546.67V228.663H540V235.333H546.67V242.003H553.323V248.657H559.993V242.003H566.663V248.657H573.334V242.003H579.987V248.657H586.657V242.003H593.327V235.333H586.657V241.99H586.66ZM546.67 248.66H540V241.99H546.67V248.66ZM566.663 208.67V202H573.334V208.67H566.663ZM586.66 221.994V228.663H593.33V221.994H586.66ZM553.323 215.34H546.67V221.994H553.323V215.34ZM553.34 248.66V255.33H559.993V248.66H566.663V255.33H573.334V248.66H580.004V255.33H586.657V248.66H593.327V255.33H586.657V262H579.987V255.33H573.334V262H566.663V255.33H559.993V262H553.323V255.33H546.67V262H540V255.33H546.67V248.66H553.34ZM579.987 235.337V228.667H573.334V235.337H579.987ZM566.663 235.337V241.99H573.334V235.337H566.663ZM559.993 235.337H566.663V228.667H559.993V235.337ZM559.993 235.337H553.34V241.99H559.993V235.337ZM559.993 221.994H553.34V228.663H559.993V221.994ZM566.663 221.994V215.34H559.993V221.994H566.663ZM573.337 221.994H566.667V228.663H573.337V221.994ZM573.337 221.994H579.99V215.34H573.337V221.994ZM553.323 228.663V235.333H546.67V228.663L553.323 228.663ZM600 208.67H593.33V202H600V208.67ZM593.33 221.994H600V215.323H593.33V221.994ZM600 235.337H593.33V228.667H600V235.337ZM593.33 248.66H600V241.99H593.33V248.66ZM593.33 262H600V255.33H593.33V262Z" fill="#4038FF"/>
<path fill-rule="evenodd" clip-rule="evenodd" d="M166.66 1.98986H160.007V-4.66347H166.66V-11.3333H160.007V-18.0032H166.66V-24.6565H173.33V-31.3264H166.66V-24.6731H160.007V-31.3264H166.66V-38H159.99V-31.3301H153.337V-24.6768H146.667V-31.3301H139.997V-24.6768H133.344V-31.3301H139.997V-38H133.327V-31.3301H126.674V-38H120V-31.3301H126.67V-24.6768H120V-18.0064H126.67V-11.3365H120V-4.66667H126.67V2.0032H133.323V8.65653H139.993V2.0032H146.663V8.65653H153.334V2.0032H159.987V8.65653H166.657V2.0032H173.327V-4.66667H166.657V1.98986H166.66ZM126.67 8.66027H120V1.98986H126.67V8.66027ZM146.663 -31.3301V-38H153.334V-31.3301H146.663ZM166.66 -18.0064V-11.3365H173.33V-18.0064H166.66ZM133.323 -24.6603H126.67V-18.0064H133.323V-24.6603ZM133.34 8.66027V15.3301H139.993V8.66027H146.663V15.3301H153.334V8.66027H160.004V15.3301H166.657V8.66027H173.327V15.3301H166.657V22H159.987V15.3301H153.334V22H146.663V15.3301H139.993V22H133.323V15.3301H126.67V22H120V15.3301H126.67V8.66027H133.34ZM159.987 -4.66347V-11.3333H153.334V-4.66347H159.987ZM146.663 -4.66347V1.98986H153.334V-4.66347H146.663ZM139.993 -4.66347H146.663V-11.3333H139.993V-4.66347ZM139.993 -4.66347H133.34V1.98986H139.993V-4.66347ZM139.993 -18.0064H133.34V-11.3365H139.993V-18.0064ZM146.663 -18.0064V-24.6603H139.993V-18.0064H146.663ZM153.337 -18.0064H146.667V-11.3365H153.337V-18.0064ZM153.337 -18.0064H159.99V-24.6603H153.337V-18.0064ZM133.323 -11.3365V-4.66667H126.67V-11.3365L133.323 -11.3365ZM180 -31.3301H173.33V-38H180V-31.3301ZM173.33 -18.0064H180V-24.6768H173.33V-18.0064ZM180 -4.66347H173.33V-11.3333H180V-4.66347ZM173.33 8.66027H180V1.98986H173.33V8.66027ZM173.33 22H180V15.3301H173.33V22Z" fill="#4038FF"/>
<path fill-rule="evenodd" clip-rule="evenodd" d="M353.33 262H360V322H353.33V262ZM346.667 262H340V322H346.667V262ZM333.334 262H326.667V322H333.334V262ZM313.333 262H320V322H313.333V262ZM306.667 262H300V322H306.667V262Z" fill="#4038FF"/>
<path fill-rule="evenodd" clip-rule="evenodd" d="M364.699 441.6H360V446.3L415.299 501.6H420V496.9L364.699 441.6ZM405.866 501.6H396.433L360 465.167V455.733L405.866 501.6ZM377.567 501.6H387L360 474.6V484.033L377.567 501.6ZM360 501.6V493.467L368.133 501.6H360ZM420 487.467V478.033L383.567 441.6H374.133L420 487.467ZM420 459.167V468.6L393 441.6H402.433L420 459.167ZM411.866 441.6L420 449.733V441.6H411.866Z" fill="#1F242C"/>
<path fill-rule="evenodd" clip-rule="evenodd" d="M300 495.33V502H240V495.33H300ZM300 488.667V482H240V488.667H300ZM300 475.333V468.667H240V475.333H300ZM300 455.333V462H240V455.333H300ZM300 448.667V442H240V448.667H300Z" fill="#1F242C"/>
<path fill-rule="evenodd" clip-rule="evenodd" d="M540 315.33V322H480V315.33H540ZM540 308.667V302H480V308.667H540ZM540 295.333V288.667H480V295.333H540ZM540 275.333V282H480V275.333H540ZM540 268.667V262H480V268.667H540Z" fill="#1F242C"/>
<path fill-rule="evenodd" clip-rule="evenodd" d="M300 328.67V322H240V328.67H300ZM300 348.673V355.343H240V348.673H300ZM300 368.677V362.007H240V368.677H300ZM300 382V375.33H240V382H300ZM300 335.34V342.01H240V335.34H300Z" fill="#1F242C"/>
<path fill-rule="evenodd" clip-rule="evenodd" d="M712.733 382H719.4C719.4 348.863 692.537 322 659.4 322V328.667C688.856 328.667 712.733 352.543 712.733 382ZM699.4 382H706.066C706.066 356.227 685.173 335.333 659.4 335.333V342C681.49 342 699.4 359.91 699.4 382ZM692.734 382H686.067C686.067 367.274 674.127 355.333 659.4 355.333V348.667C677.81 348.667 692.734 363.59 692.734 382ZM672.733 382H679.4C679.4 370.954 670.447 362 659.4 362V368.667C666.763 368.667 672.733 374.637 672.733 382ZM659.4 382H666.067C666.067 378.317 663.083 375.333 659.4 375.333V382Z" fill="#1F242C"/>
<path fill-rule="evenodd" clip-rule="evenodd" d="M186.667 142H180C180 175.137 206.863 202 240 202V195.333C210.543 195.333 186.667 171.457 186.667 142ZM200 142H193.333C193.333 167.773 214.227 188.667 240 188.667V182C217.91 182 200 164.09 200 142ZM206.667 142H213.334C213.334 156.727 225.273 168.667 240 168.667V175.333C221.59 175.333 206.667 160.41 206.667 142ZM226.667 142H220C220 153.047 228.953 162 240 162V155.333C232.637 155.333 226.667 149.363 226.667 142ZM240 142H233.333C233.333 145.683 236.317 148.667 240 148.667V142Z" fill="#1F242C"/>
<path d="M180 202V262H120C120 228.863 146.863 202 180 202Z" fill="#1F242C"/>
<path d="M480.6 22V82H420.6C420.6 48.8633 447.464 22 480.6 22Z" fill="#1F242C"/>
<path fill-rule="evenodd" clip-rule="evenodd" d="M186.67 22H180V82H186.67V22ZM206.673 22H213.343V82H206.673V22ZM226.677 22H220.007V82H226.677V22ZM240 22H233.33V82H240V22ZM193.34 22H200.01V82H193.34V22Z" fill="#1F242C"/>
<path fill-rule="evenodd" clip-rule="evenodd" d="M6.66993 142H0V202H6.66993V142ZM26.6733 142H33.3432V202H26.6733V142ZM46.6767 142H40.0068V202H46.6767V142ZM60 142H53.3301V202H60V142ZM13.3399 142H20.0098V202H13.3399V142Z" fill="#1F242C"/>
<path fill-rule="evenodd" clip-rule="evenodd" d="M487.27 502H480.6V562H487.27V502ZM507.273 502H513.943V562H507.273V502ZM527.277 502H520.607V562H527.277V502ZM540.6 502H533.93V562H540.6V502ZM493.94 502H500.61V562H493.94V502Z" fill="#4038FF"/>
</svg>
