<svg xmlns="http://www.w3.org/2000/svg" width="335" height="30" viewBox="0 0 335 30">
  <g fill="none" fill-rule="evenodd" transform="translate(-1 -1)">
    <g transform="rotate(90 43.696 44.696)">
      <polygon fill="#FFF" fill-rule="nonzero" points="14.565 14.565 29.13 14.565 29.13 29.13 14.565 29.13"/>
      <path fill="#FFF" fill-rule="nonzero" d="M24.2725302,29.1304348 L25.8918587,29.1304348 L25.8918587,30.7497543 L24.2767379,30.7497543 L24.2767379,32.3689929 L22.6574903,32.3689929 L22.6574903,30.7497543 L24.2725302,30.7497543 L24.2725302,29.1304348 Z M17.8037935,32.3689929 L16.184465,32.3689929 L16.184465,30.7497543 L14.5652174,30.7497543 L14.5652174,29.1304348 L16.1845459,29.1304348 L16.1845459,30.7497543 L17.7995857,30.7497543 L17.7995857,29.1304348 L19.4189143,29.1304348 L19.4189143,30.7497543 L17.8037935,30.7497543 L17.8037935,32.3689929 Z M24.2767379,33.9883124 L24.2767379,35.6034242 L25.8918587,35.6034242 L25.8918587,37.2226628 L24.2767379,37.2226628 L24.2767379,38.8419823 L25.8918587,38.8419823 L25.8918587,40.4570941 L27.5111063,40.4570941 L27.5111063,42.0763327 L25.8918587,42.0763327 L25.8918587,40.4612209 L24.2767379,40.4612209 L24.2767379,42.0763327 L25.8918587,42.0763327 L25.8918587,43.6956522 L24.2725302,43.6956522 L24.2725302,42.0763327 L22.6574903,42.0763327 L22.6574903,40.4612209 L21.0381618,40.4612209 L21.0381618,42.0763327 L19.4189143,42.0763327 L19.4189143,40.4612209 L17.8037935,40.4612209 L17.8037935,42.0763327 L19.4189143,42.0763327 L19.4189143,43.6956522 L17.7995857,43.6956522 L17.7995857,42.0763327 L16.1845459,42.0763327 L16.1845459,43.6956522 L14.5652174,43.6956522 L14.5652174,42.0763327 L16.184465,42.0763327 L16.184465,40.4570941 L17.7995857,40.4570941 L17.7995857,38.8419823 L16.1845459,38.8419823 L16.1845459,40.4612209 L14.5652174,40.4612209 L14.5652174,38.8419823 L16.184465,38.8419823 L16.184465,37.2226628 L14.5652174,37.2226628 L14.5652174,35.6034242 L16.184465,35.6034242 L16.184465,33.9841047 L17.7995857,33.9841047 L17.7995857,32.3690738 L19.4189143,32.3690738 L19.4189143,33.9841047 L21.0381618,33.9841047 L21.0381618,32.3690738 L22.6574903,32.3690738 L22.6574903,33.9841047 L24.2725302,33.9841047 L24.2725302,32.3690738 L25.8918587,32.3690738 L25.8918587,33.9841047 L27.5111063,33.9841047 L27.5111063,35.6034242 L25.8918587,35.6034242 L25.8918587,33.9883124 L24.2767379,33.9883124 Z M24.2725302,35.6034242 L22.6574903,35.6034242 L22.6574903,33.9883124 L21.0381618,33.9883124 L21.0381618,35.6034242 L19.4189143,35.6034242 L19.4189143,33.9883124 L17.8037935,33.9883124 L17.8037935,35.6034242 L19.4189143,35.6034242 L19.4189143,37.2226628 L17.8037935,37.2226628 L17.8037935,38.8419823 L19.4189143,38.8419823 L19.4189143,40.4570941 L21.0381618,40.4570941 L21.0381618,38.8419823 L22.6574903,38.8419823 L22.6574903,40.4570941 L24.2725302,40.4570941 L24.2725302,38.8419823 L22.6574903,38.8419823 L22.6574903,37.2226628 L24.2725302,37.2226628 L24.2725302,35.6034242 Z M17.7995857,35.6034242 L16.1845459,35.6034242 L16.1845459,37.2226628 L17.7995857,37.2226628 L17.7995857,35.6034242 Z M21.0381618,42.0763327 L22.6574903,42.0763327 L22.6574903,43.6956522 L21.0381618,43.6956522 L21.0381618,42.0763327 Z M19.4189143,37.2226628 L21.0381618,37.2226628 L21.0381618,38.8419823 L19.4189143,38.8419823 L19.4189143,37.2226628 Z M27.5111872,42.0763327 L29.1304348,42.0763327 L29.1304348,43.6956522 L27.5111872,43.6956522 L27.5111872,42.0763327 Z M27.5111872,38.8419823 L29.1304348,38.8419823 L29.1304348,40.4612209 L27.5111872,40.4612209 L27.5111872,38.8419823 Z M25.8918587,37.2226628 L27.5111063,37.2226628 L27.5111063,38.8419823 L25.8918587,38.8419823 L25.8918587,37.2226628 Z M14.5652174,32.3690738 L16.1845459,32.3690738 L16.1845459,33.9883124 L14.5652174,33.9883124 L14.5652174,32.3690738 Z M21.0381618,35.6034242 L22.6574903,35.6034242 L22.6574903,37.2226628 L21.0381618,37.2226628 L21.0381618,35.6034242 Z M19.4189143,30.7497543 L21.0381618,30.7497543 L21.0381618,32.3689929 L19.4189143,32.3689929 L19.4189143,30.7497543 Z M27.5111872,35.6034242 L29.1304348,35.6034242 L29.1304348,37.2226628 L27.5111872,37.2226628 L27.5111872,35.6034242 Z M27.5111872,32.3690738 L29.1304348,32.3690738 L29.1304348,33.9883124 L27.5111872,33.9883124 L27.5111872,32.3690738 Z M21.0381618,29.1304348 L22.6574903,29.1304348 L22.6574903,30.7497543 L21.0381618,30.7497543 L21.0381618,29.1304348 Z M27.5111872,29.1304348 L29.1304348,29.1304348 L29.1304348,30.7497543 L27.5111872,30.7497543 L27.5111872,29.1304348 Z M25.8918587,30.7497543 L27.5111063,30.7497543 L27.5111063,32.3689929 L25.8918587,32.3689929 L25.8918587,30.7497543 Z"/>
      <polygon fill="#4038FF" fill-rule="nonzero" points="11.288 87.391 9.832 87.391 9.832 72.826 11.288 72.826"/>
      <polygon fill="#4038FF" fill-rule="nonzero" points="8.011 87.391 6.554 87.391 6.554 72.826 8.011 72.826"/>
      <polygon fill="#4038FF" fill-rule="nonzero" points="4.734 87.391 3.277 87.391 3.277 72.826 4.734 72.826"/>
      <polygon fill="#4038FF" fill-rule="nonzero" points="1.457 87.391 0 87.391 0 72.826 1.457 72.826"/>
      <polygon fill="#4038FF" fill-rule="nonzero" points="14.565 87.391 13.109 87.391 13.109 72.826 14.565 72.826"/>
      <path fill="#4038FF" fill-rule="nonzero" d="M29.1304348 61.4975845L29.1304348 63.115942 14.5652174 63.115942 14.5652174 61.4975845 29.1304348 61.4975845zM29.1304348 64.7342995L29.1304348 66.352657 14.5652174 66.352657 14.5652174 64.7342995 29.1304348 64.7342995zM29.1304348 67.9710145L29.1304348 69.589372 14.5652174 69.589372 14.5652174 67.9710145 29.1304348 67.9710145zM29.1304348 71.2077295L29.1304348 72.826087 14.5652174 72.826087 14.5652174 71.2077295 29.1304348 71.2077295zM29.1304348 58.2608696L29.1304348 59.8801576 14.5652174 59.8801576 14.5652174 58.2608696 29.1304348 58.2608696zM25.8960754 14.5652174L24.2767919 14.5652174 24.2767919 0 25.8960754 0 25.8960754 14.5652174zM29.1304348 14.5652174L27.5111512 14.5652174 27.5111512 0 29.1304348 0 29.1304348 14.5652174zM22.6596122 14.5652174L21.0403286 14.5652174 21.0403286 0 22.6596122 0 22.6596122 14.5652174zM16.1845009 14.5652174L14.5652174 14.5652174 14.5652174 0 16.1845009 0 16.1845009 14.5652174zM19.423068 14.5652174L17.8037845 14.5652174 17.8037845 0 19.423068 0 19.423068 14.5652174z"/>
      <path fill="#FFF" d="M16.1835749 58.2608683L14.5652174 58.2608683C14.5652174 50.2167172 21.086308 43.6956522 29.1304348 43.6956522L29.1304348 45.3140084C21.9800459 45.3140084 16.1835749 51.1105118 16.1835749 58.2608683zM19.4202899 58.2608683L17.8019324 58.2608683C17.8019324 52.0042982 22.8738647 46.9323659 29.1304348 46.9323659L29.1304348 48.5507234C23.7676836 48.5507234 19.4202899 52.8981171 19.4202899 58.2608683zM21.0386473 58.2608683L22.6570048 58.2608683C22.6570048 54.6856738 25.5552403 51.7874383 29.1304348 51.7874383L29.1304348 50.1690809C24.6615024 50.1690809 21.0386473 53.7919359 21.0386473 58.2608683zM25.8937198 58.2608683L24.2753623 58.2608683C24.2753623 55.5794927 26.4490592 53.4057958 29.1304348 53.4057958L29.1304348 55.0241533C27.342878 55.0241533 25.8937198 56.4733115 25.8937198 58.2608683zM29.1304348 58.2608683L27.5120773 58.2608683C27.5120773 57.3670495 28.2366159 56.6425108 29.1304348 56.6425108L29.1304348 58.2608683zM16.1835749 87.3913043L14.5652174 87.3913043C14.5652174 79.3471775 21.086308 72.826087 29.1304348 72.826087L29.1304348 74.4444444C21.9800459 74.4444444 16.1835749 80.2409155 16.1835749 87.3913043zM19.4202899 87.3913043L17.8019324 87.3913043C17.8019324 81.1347343 22.8738647 76.0628019 29.1304348 76.0628019L29.1304348 77.6811594C23.7676836 77.6811594 19.4202899 82.0285531 19.4202899 87.3913043zM21.0386473 87.3913043L22.6570048 87.3913043C22.6570048 83.8161099 25.5552403 80.9178744 29.1304348 80.9178744L29.1304348 79.2995169C24.6615024 79.2995169 21.0386473 82.922372 21.0386473 87.3913043zM25.8937198 87.3913043L24.2753623 87.3913043C24.2753623 84.7099287 26.4490592 82.5362319 29.1304348 82.5362319L29.1304348 84.1545894C27.342878 84.1545894 25.8937198 85.6037476 25.8937198 87.3913043zM29.1304348 87.3913043L27.5120773 87.3913043C27.5120773 86.4974855 28.2366159 85.7729469 29.1304348 85.7729469L29.1304348 87.3913043z"/>
      <path fill="#4038FF" fill-rule="nonzero" d="M0 0L0 14.5652174 14.5652174 14.5652174C14.5652174 6.5210663 8.04415109 0 0 0zM0 72.826087L14.5652174 72.826087 14.5652174 58.2608696C6.52109058 58.2608696 0 64.7819352 0 72.826087z"/>
      <path fill="#FFF" fill-rule="nonzero" d="M1.14094203,43.6956522 L0,43.6956522 L0,42.5547101 L13.4242754,29.1304348 L14.5652174,29.1304348 L14.5652174,30.2713768 L1.14094203,43.6956522 Z M11.1342995,29.1304348 L8.84432367,29.1304348 L0,37.9747585 L0,40.2647343 L11.1342995,29.1304348 Z M6.55434783,29.1304348 L4.26437198,29.1304348 L0,33.3948068 L0,35.6847826 L6.55434783,29.1304348 Z M0,29.1304348 L0,31.1048309 L1.97439614,29.1304348 L0,29.1304348 Z M14.5652174,34.8513285 L14.5652174,32.5613527 L3.43091787,43.6956522 L5.72089372,43.6956522 L14.5652174,34.8513285 Z M14.5652174,39.4312802 L14.5652174,37.1413043 L8.01086957,43.6956522 L10.3008454,43.6956522 L14.5652174,39.4312802 Z M14.5652174,41.721256 L12.5908213,43.6956522 L14.5652174,43.6956522 L14.5652174,41.721256 Z"/>
    </g>
    <g transform="rotate(-90 59.26 -29.13)">
      <polygon fill="#FFF" fill-rule="nonzero" points="0 87.391 14.565 87.391 14.565 101.957 0 101.957"/>
      <path fill="#4038FF" fill-rule="nonzero" d="M9.7073128 58.2608696L11.3266413 58.2608696 11.3266413 59.8801891 9.71152053 59.8801891 9.71152053 61.4994277 8.09227295 61.4994277 8.09227295 59.8801891 9.7073128 59.8801891 9.7073128 58.2608696zM3.23857609 61.4994277L1.61924758 61.4994277 1.61924758 59.8801891 0 59.8801891 0 58.2608696 1.6193285 58.2608696 1.6193285 59.8801891 3.23436836 59.8801891 3.23436836 58.2608696 4.85369686 58.2608696 4.85369686 59.8801891 3.23857609 59.8801891 3.23857609 61.4994277zM9.71152053 63.1187472L9.71152053 64.733859 11.3266413 64.733859 11.3266413 66.3530976 9.71152053 66.3530976 9.71152053 67.9724171 11.3266413 67.9724171 11.3266413 69.5875289 12.9458889 69.5875289 12.9458889 71.2067675 11.3266413 71.2067675 11.3266413 69.5916557 9.71152053 69.5916557 9.71152053 71.2067675 11.3266413 71.2067675 11.3266413 72.826087 9.7073128 72.826087 9.7073128 71.2067675 8.09227295 71.2067675 8.09227295 69.5916557 6.47294444 69.5916557 6.47294444 71.2067675 4.85369686 71.2067675 4.85369686 69.5916557 3.23857609 69.5916557 3.23857609 71.2067675 4.85369686 71.2067675 4.85369686 72.826087 3.23436836 72.826087 3.23436836 71.2067675 1.6193285 71.2067675 1.6193285 72.826087 1.18660637e-12 72.826087 1.18660637e-12 71.2067675 1.61924758 71.2067675 1.61924758 69.5875289 3.23436836 69.5875289 3.23436836 67.9724171 1.6193285 67.9724171 1.6193285 69.5916557 1.18660637e-12 69.5916557 1.18660637e-12 67.9724171 1.61924758 67.9724171 1.61924758 66.3530976 1.18660637e-12 66.3530976 1.18660637e-12 64.733859 1.61924758 64.733859 1.61924758 63.1145395 3.23436836 63.1145395 3.23436836 61.4995086 4.85369686 61.4995086 4.85369686 63.1145395 6.47294444 63.1145395 6.47294444 61.4995086 8.09227295 61.4995086 8.09227295 63.1145395 9.7073128 63.1145395 9.7073128 61.4995086 11.3266413 61.4995086 11.3266413 63.1145395 12.9458889 63.1145395 12.9458889 64.733859 11.3266413 64.733859 11.3266413 63.1187472 9.71152053 63.1187472zM9.7073128 64.733859L8.09227295 64.733859 8.09227295 63.1187472 6.47294444 63.1187472 6.47294444 64.733859 4.85369686 64.733859 4.85369686 63.1187472 3.23857609 63.1187472 3.23857609 64.733859 4.85369686 64.733859 4.85369686 66.3530976 3.23857609 66.3530976 3.23857609 67.9724171 4.85369686 67.9724171 4.85369686 69.5875289 6.47294444 69.5875289 6.47294444 67.9724171 8.09227295 67.9724171 8.09227295 69.5875289 9.7073128 69.5875289 9.7073128 67.9724171 8.09227295 67.9724171 8.09227295 66.3530976 9.7073128 66.3530976 9.7073128 64.733859zM3.23436836 64.733859L1.6193285 64.733859 1.6193285 66.3530976 3.23436836 66.3530976 3.23436836 64.733859zM6.47294444 71.2067675L8.09227295 71.2067675 8.09227295 72.826087 6.47294444 72.826087 6.47294444 71.2067675zM4.85369686 66.3530976L6.47294444 66.3530976 6.47294444 67.9724171 4.85369686 67.9724171 4.85369686 66.3530976zM12.9459698 71.2067675L14.5652174 71.2067675 14.5652174 72.826087 12.9459698 72.826087 12.9459698 71.2067675zM12.9459698 67.9724171L14.5652174 67.9724171 14.5652174 69.5916557 12.9459698 69.5916557 12.9459698 67.9724171zM11.3266413 66.3530976L12.9458889 66.3530976 12.9458889 67.9724171 11.3266413 67.9724171 11.3266413 66.3530976zM2.27373675e-13 61.4995086L1.6193285 61.4995086 1.6193285 63.1187472 2.27373675e-13 63.1187472 2.27373675e-13 61.4995086zM6.47294444 64.733859L8.09227295 64.733859 8.09227295 66.3530976 6.47294444 66.3530976 6.47294444 64.733859zM4.85369686 59.8801891L6.47294444 59.8801891 6.47294444 61.4994277 4.85369686 61.4994277 4.85369686 59.8801891zM12.9459698 64.733859L14.5652174 64.733859 14.5652174 66.3530976 12.9459698 66.3530976 12.9459698 64.733859zM12.9459698 61.4995086L14.5652174 61.4995086 14.5652174 63.1187472 12.9459698 63.1187472 12.9459698 61.4995086zM6.47294444 58.2608696L8.09227295 58.2608696 8.09227295 59.8801891 6.47294444 59.8801891 6.47294444 58.2608696zM12.9459698 58.2608696L14.5652174 58.2608696 14.5652174 59.8801891 12.9459698 59.8801891 12.9459698 58.2608696zM11.3266413 59.8801891L12.9458889 59.8801891 12.9458889 61.4994277 11.3266413 61.4994277 11.3266413 59.8801891zM25.8937198 29.1304348L24.2753623 29.1304348 24.2753623 14.5652174 25.8937198 14.5652174 25.8937198 29.1304348zM22.6570048 29.1304348L21.0386473 29.1304348 21.0386473 14.5652174 22.6570048 14.5652174 22.6570048 29.1304348zM19.4202899 29.1304348L17.8019324 29.1304348 17.8019324 14.5652174 19.4202899 14.5652174 19.4202899 29.1304348zM16.1835749 29.1304348L14.5652174 29.1304348 14.5652174 14.5652174 16.1835749 14.5652174 16.1835749 29.1304348zM29.1304348 29.1304348L27.5111467 29.1304348 27.5111467 14.5652174 29.1304348 14.5652174 29.1304348 29.1304348zM14.5652174 3.23435937L14.5652174 4.85364292 7.10542736e-15 4.85364292 7.10542736e-15 3.23435937 14.5652174 3.23435937zM14.5652174-9.09494702e-13L14.5652174 1.61928355 7.10542736e-15 1.61928355 7.10542736e-15-9.09494702e-13 14.5652174-9.09494702e-13zM14.5652174 6.47082261L14.5652174 8.09010615 0 8.09010615 0 6.47082261 14.5652174 6.47082261zM14.5652174 12.9459338L14.5652174 14.5652174 0 14.5652174 0 12.9459338 14.5652174 12.9459338zM14.5652174 9.70736675L14.5652174 11.3266503 7.10542736e-15 11.3266503 7.10542736e-15 9.70736675 14.5652174 9.70736675z"/>
      <path fill="#FFF" d="M27.5120773,43.6956522 L29.1304348,43.6956522 C29.1304348,51.739779 22.6093442,58.2608696 14.5652174,58.2608696 L14.5652174,56.6425121 C21.7156063,56.6425121 27.5120773,50.8460411 27.5120773,43.6956522 Z M24.2753623,43.6956522 L25.8937198,43.6956522 C25.8937198,49.9522222 20.8217874,55.0241546 14.5652174,55.0241546 L14.5652174,53.4057971 C19.9279686,53.4057971 24.2753623,49.0584034 24.2753623,43.6956522 Z M22.6570048,43.6956522 L21.0386473,43.6956522 C21.0386473,47.2708466 18.1404118,50.1690821 14.5652174,50.1690821 L14.5652174,51.7874396 C19.0341498,51.7874396 22.6570048,48.1645845 22.6570048,43.6956522 Z M17.8019324,43.6956522 L19.4202899,43.6956522 C19.4202899,46.3770278 17.246593,48.5507246 14.5652174,48.5507246 L14.5652174,46.9323671 C16.3527742,46.9323671 17.8019324,45.4832089 17.8019324,43.6956522 Z M14.5652174,43.6956522 L16.1835749,43.6956522 C16.1835749,44.589471 15.4590362,45.3140097 14.5652174,45.3140097 L14.5652174,43.6956522 Z"/>
    </g>
    <g transform="rotate(-90 102.957 -87.391)">
      <path fill="#4038FF" fill-rule="nonzero" d="M11.3285024,14.5652174 L9.71014493,14.5652174 L9.71014493,-1.8189894e-12 L11.3285024,-1.8189894e-12 L11.3285024,14.5652174 Z M8.09178744,14.5652174 L6.47342995,14.5652174 L6.47342995,-1.8189894e-12 L8.09178744,-1.8189894e-12 L8.09178744,14.5652174 Z M4.85507246,14.5652174 L3.23671498,14.5652174 L3.23671498,-1.8189894e-12 L4.85507246,-1.8189894e-12 L4.85507246,14.5652174 Z M1.61835749,14.5652174 L0,14.5652174 L0,-1.8189894e-12 L1.61835749,-1.8189894e-12 L1.61835749,14.5652174 Z M14.5652174,14.5652174 L12.9459293,14.5652174 L12.9459293,-1.8189894e-12 L14.5652174,-1.8189894e-12 L14.5652174,14.5652174 Z"/>
      <path fill="#FFF" d="M12.9468599,29.1304348 L14.5652174,29.1304348 C14.5652174,37.1745616 8.04412681,43.6956522 1.42108547e-14,43.6956522 L1.42108547e-14,42.0772947 C7.15038889,42.0772947 12.9468599,36.2808237 12.9468599,29.1304348 Z M9.71014493,29.1304348 L11.3285024,29.1304348 C11.3285024,35.3870048 6.25657005,40.4589372 1.42108547e-14,40.4589372 L1.42108547e-14,38.8405797 C5.36275121,38.8405797 9.71014493,34.493186 9.71014493,29.1304348 Z M8.09178744,29.1304348 L6.47342995,29.1304348 C6.47342995,32.7056292 3.57519444,35.6038647 1.42108547e-14,35.6038647 L1.42108547e-14,37.2222222 C4.46893237,37.2222222 8.09178744,33.5993671 8.09178744,29.1304348 Z M3.23671498,29.1304348 L4.85507246,29.1304348 C4.85507246,31.8118104 2.6813756,33.9855072 0,33.9855072 L0,32.3671498 C1.78755676,32.3671498 3.23671498,30.9179915 3.23671498,29.1304348 Z M1.42108547e-14,29.1304348 L1.61835749,29.1304348 C1.61835749,30.0242536 0.893818841,30.7487923 1.42108547e-14,30.7487923 L1.42108547e-14,29.1304348 Z"/>
    </g>
    <g fill-rule="nonzero" transform="matrix(0 1 1 0 277.74 1)">
      <polygon fill="#FFF" points="14.565 0 29.13 0 29.13 14.565 14.565 14.565"/>
      <path fill="#4038FF" d="M0,58.2608696 L14.5652174,58.2608696 L14.5652174,43.6956522 C6.52109058,43.6956522 0,50.2167178 0,58.2608696 Z"/>
    </g>
  </g>
</svg>
