<svg xmlns="http://www.w3.org/2000/svg" width="335" height="48" viewBox="0 0 335 48">
  <g fill="none" fill-rule="evenodd">
    <path fill="#4038FF" d="M71.7857143,0 L77.1031746,0 C77.1031746,2.93630159 74.7225476,5.31746032 71.7857143,5.31746032 L71.7857143,0 Z M82.4206349,0 L87.7380952,0 C87.7380952,8.80996825 80.5962143,15.952381 71.7857143,15.952381 L71.7857143,10.6349206 C77.6588492,10.6349206 82.4206349,5.87313492 82.4206349,0 L82.4206349,0 Z M98.3730159,0 L93.0555556,0 C93.0555556,11.7468016 83.5325159,21.2698413 71.7857143,21.2698413 L71.7857143,26.5873016 C86.4693492,26.5873016 98.3730159,14.6836349 98.3730159,0 L98.3730159,0 Z M103.690476,0 L109.007937,0 C109.007937,20.5573016 92.3430159,37.2222222 71.7857143,37.2222222 L71.7857143,31.9047619 C89.4061825,31.9047619 103.690476,17.6204683 103.690476,0 L103.690476,0 Z M114.325397,0 L119.642857,0 C119.642857,26.4304365 98.2166825,47.8571429 71.7857143,47.8571429 L71.7857143,42.5396825 C95.2798492,42.5396825 114.325397,23.4941349 114.325397,0 L114.325397,0 Z"/>
    <path fill="#261EE4" d="M10.6413016,47.8571429 L15.9614206,47.8571429 L15.9614206,0 L10.6413016,0 L10.6413016,47.8571429 Z M42.5364921,47.8571429 L47.8571429,47.8571429 L47.8571429,0 L42.5364921,0 L42.5364921,47.8571429 Z M31.9095476,47.8571429 L37.2301984,47.8571429 L37.2301984,0 L31.9095476,0 L31.9095476,47.8571429 Z M21.2756905,47.8571429 L26.5958095,47.8571429 L26.5958095,0 L21.2756905,0 L21.2756905,47.8571429 Z M0,47.8571429 L5.32065079,47.8571429 L5.32065079,0 L0,0 L0,47.8571429 Z"/>
    <path fill="#1F252E" d="M335,6.48676984 L328.512698,0 L335,0 L335,6.48676984 Z M320.988492,0 L313.464286,0 L335,21.5357143 L335,14.0109762 L320.988492,0 Z M298.415873,0 L305.940079,0 L335,29.0593889 L335,36.584127 L298.415873,0 Z M287.142857,47.8571429 L293.630159,47.8571429 L287.142857,41.3698413 L287.142857,47.8571429 Z M287.142857,33.8451032 L287.142857,26.3214286 L308.678571,47.8571429 L301.154365,47.8571429 L287.142857,33.8451032 Z M287.142857,11.2724841 L287.142857,18.7966905 L316.202778,47.8571429 L323.726984,47.8571429 L287.142857,11.2724841 Z M335,44.1078016 L335,47.8571429 L331.25119,47.8571429 L287.142857,3.74880952 L287.142857,0 L290.891667,0 L335,44.1078016 Z"/>
    <path fill="#E8EDF6" d="M257.893635,5.32112342 L263.214286,5.32112342 L263.214286,0 L257.893635,0 L257.893635,5.32112342 Z M257.893635,15.961775 L263.214286,15.961775 L263.214286,10.6417151 L257.893635,10.6417151 L257.893635,15.961775 Z M257.893635,26.5891331 L263.214286,26.5891331 L263.214286,21.2685415 L257.893635,21.2685415 L257.893635,26.5891331 Z M257.893635,37.2297847 L263.214286,37.2297847 L263.214286,31.9097248 L257.893635,31.9097248 L257.893635,37.2297847 Z M257.893635,47.8571429 L263.214286,47.8571429 L263.214286,42.5365512 L257.893635,42.5365512 L257.893635,47.8571429 Z M220.677794,26.5891331 L225.984619,26.5891331 L225.984619,21.2685415 L220.677794,21.2685415 L220.677794,26.5891331 Z M241.94604,37.2159595 L247.252333,37.2159595 L247.252333,31.9097248 L241.94604,31.9097248 L241.94604,37.2159595 Z M236.625389,31.9097248 L241.94604,31.9097248 L241.94604,26.5891331 L236.625389,26.5891331 L236.625389,31.9097248 Z M231.304738,37.2159595 L236.625389,37.2159595 L236.625389,31.9097248 L231.304738,31.9097248 L231.304738,37.2159595 Z M225.997913,31.9097248 L231.304738,31.9097248 L231.304738,26.5891331 L225.997913,26.5891331 L225.997913,31.9097248 Z M225.997913,21.2685415 L231.304738,21.2685415 L231.304738,15.961775 L225.997913,15.961775 L225.997913,21.2685415 Z M231.304738,26.5891331 L236.625389,26.5891331 L236.625389,21.2685415 L231.304738,21.2685415 L231.304738,26.5891331 Z M236.625389,21.2685415 L241.94604,21.2685415 L241.94604,15.961775 L236.625389,15.961775 L236.625389,21.2685415 Z M241.94604,26.5891331 L247.252333,26.5891331 L247.252333,21.2685415 L241.94604,21.2685415 L241.94604,26.5891331 Z M225.997913,10.6411834 L225.997913,5.32112342 L231.30527,5.32112342 L231.30527,10.6411834 L236.625389,10.6411834 L236.625389,5.32112342 L241.94604,5.32112342 L241.94604,10.6411834 L247.266159,10.6411834 L247.266159,5.32112342 L252.572984,5.32112342 L252.573516,10.6411834 L257.893635,10.6411834 L257.893635,5.32112342 L252.572984,5.32112342 L252.572984,0 L247.252333,0 L247.252333,5.32112342 L241.94604,5.32112342 L241.94604,0 L236.625389,0 L236.625389,5.32112342 L231.30527,5.32112342 L231.30527,0 L225.984619,0 L225.984619,5.32112342 L220.677794,5.32112342 L220.677794,0 L215.357143,0 L215.357143,5.32112342 L220.677262,5.32112342 L220.677262,10.6411834 L225.997913,10.6411834 Z M220.677794,37.2159595 L225.984619,37.2159595 L225.984619,31.9097248 L220.677794,31.9097248 L220.677794,37.2159595 Z M252.573516,31.9097248 L257.893635,31.9097248 L257.893635,26.5891331 L252.573516,26.5891331 L252.573516,31.9097248 Z M236.625389,47.8571429 L241.94604,47.8571429 L241.94604,42.5365512 L236.625389,42.5365512 L236.625389,47.8571429 Z M220.677794,15.9479498 L220.677794,10.6417151 L215.357143,10.6417151 L215.357143,15.961775 L220.677262,15.961775 L220.677262,15.9479498 L220.677794,15.9479498 Z M252.573516,15.961775 L247.266159,15.961775 L247.266159,21.2685415 L252.573516,21.2685415 L252.573516,26.5891331 L247.266159,26.5891331 L247.266159,31.9097248 L252.573516,31.9097248 L252.573516,37.2159595 L257.893635,37.2159595 L257.893635,42.5365512 L252.573516,42.5365512 L252.573516,37.2297847 L247.266159,37.2297847 L247.266159,42.5365512 L252.573516,42.5365512 L252.573516,47.8571429 L247.252333,47.8571429 L247.252333,42.5365512 L241.94604,42.5365512 L241.94604,37.2297847 L236.625389,37.2297847 L236.625389,42.5365512 L231.30527,42.5365512 L231.30527,37.2297847 L225.997913,37.2297847 L225.997913,42.5365512 L231.30527,42.5365512 L231.30527,47.8571429 L225.984619,47.8571429 L225.984619,42.5365512 L220.677794,42.5365512 L220.677794,47.8571429 L215.357143,47.8571429 L215.357143,42.5365512 L220.677262,42.5365512 L220.677262,37.2297847 L215.357143,37.2297847 L215.357143,31.9097248 L220.677262,31.9097248 L220.677262,26.5891331 L215.357143,26.5891331 L215.357143,21.2685415 L220.677262,21.2685415 L220.677262,15.961775 L220.677794,15.961775 L220.677794,15.9479498 L225.984619,15.9479498 L225.984619,10.6417151 L231.30527,10.6417151 L231.30527,15.9479498 L236.625389,15.9479498 L236.625389,10.6417151 L241.94604,10.6417151 L241.94604,15.9479498 L247.252333,15.9479498 L247.252333,10.6417151 L252.573516,10.6417151 L252.573516,15.9479498 L257.893635,15.9479498 L257.893635,21.2685415 L252.573516,21.2685415 L252.573516,15.961775 Z"/>
    <polygon fill="#FFF" points="143.571 47.857 191.429 47.857 191.429 0 143.571 0"/>
  </g>
</svg>
