<svg xmlns="http://www.w3.org/2000/svg" viewBox="0 0 335 40">
  <g fill="#4038FF" fill-rule="evenodd">
    <path d="M59.1176471 0L63.496732 0C63.496732 2.41813072 61.5362157 4.37908497 59.1176471 4.37908497L59.1176471 0zM67.875817 0L72.254902 0C72.254902 7.25526797 66.3733529 13.1372549 59.1176471 13.1372549L59.1176471 8.75816993C63.9543464 8.75816993 67.875817 4.83669935 67.875817 0L67.875817 0zM81.0130719 0L76.6339869 0C76.6339869 9.6738366 68.7914837 17.5163399 59.1176471 17.5163399L59.1176471 21.8954248C71.2100523 21.8954248 81.0130719 12.0924052 81.0130719 0L81.0130719 0zM85.3921569 0L89.7712418 0C89.7712418 16.9295425 76.0471895 30.6535948 59.1176471 30.6535948L59.1176471 26.2745098C73.6286209 26.2745098 85.3921569 14.5109739 85.3921569 0L85.3921569 0zM94.1503268 0L98.5294118 0C98.5294118 21.7662418 80.8843268 39.4117647 59.1176471 39.4117647L59.1176471 35.0326797C78.4657582 35.0326797 94.1503268 19.3481111 94.1503268 0L94.1503268 0zM8.76342484 39.4117647L13.1446993 39.4117647 13.1446993 0 8.76342484 0 8.76342484 39.4117647zM35.0300523 39.4117647L39.4117647 39.4117647 39.4117647 0 35.0300523 0 35.0300523 39.4117647zM26.278451 39.4117647L30.6601634 39.4117647 30.6601634 0 26.278451 0 26.278451 39.4117647zM17.5211569 39.4117647L21.9024314 39.4117647 21.9024314 0 17.5211569 0 17.5211569 39.4117647zM0 39.4117647L4.38171242 39.4117647 4.38171242 0 0 0 0 39.4117647zM157.647059 5.34204575L152.304575 0 157.647059 0 157.647059 5.34204575zM146.10817 0L139.911765 0 157.647059 17.7352941 157.647059 11.538451 146.10817 0zM127.518954 0L133.715359 0 157.647059 23.9312614 157.647059 30.1281046 127.518954 0zM118.235294 39.4117647L123.577778 39.4117647 118.235294 34.069281 118.235294 39.4117647zM118.235294 27.8724379L118.235294 21.6764706 135.970588 39.4117647 129.774183 39.4117647 118.235294 27.8724379zM118.235294 9.28322222L118.235294 15.4796275 142.166993 39.4117647 148.363399 39.4117647 118.235294 9.28322222zM157.647059 36.3240719L157.647059 39.4117647 154.559804 39.4117647 118.235294 3.0872549 118.235294 0 121.322549 0 157.647059 36.3240719zM212.382993 4.38210164L216.764706 4.38210164 216.764706 0 212.382993 0 212.382993 4.38210164zM212.382993 13.1449912L216.764706 13.1449912 216.764706 8.76376537 212.382993 8.76376537 212.382993 13.1449912zM212.382993 21.8969332L216.764706 21.8969332 216.764706 17.5152694 212.382993 17.5152694 212.382993 21.8969332zM212.382993 30.6598227L216.764706 30.6598227 216.764706 26.2785969 212.382993 26.2785969 212.382993 30.6598227zM212.382993 39.4117647L216.764706 39.4117647 216.764706 35.030101 212.382993 35.030101 212.382993 39.4117647zM181.734654 21.8969332L186.10498 21.8969332 186.10498 17.5152694 181.734654 17.5152694 181.734654 21.8969332zM199.24968 30.6484372L203.619569 30.6484372 203.619569 26.2785969 199.24968 26.2785969 199.24968 30.6484372zM194.867967 26.2785969L199.24968 26.2785969 199.24968 21.8969332 194.867967 21.8969332 194.867967 26.2785969zM190.486255 30.6484372L194.867967 30.6484372 194.867967 26.2785969 190.486255 26.2785969 190.486255 30.6484372zM186.115928 26.2785969L190.486255 26.2785969 190.486255 21.8969332 186.115928 21.8969332 186.115928 26.2785969zM186.115928 17.5152694L190.486255 17.5152694 190.486255 13.1449912 186.115928 13.1449912 186.115928 17.5152694zM190.486255 21.8969332L194.867967 21.8969332 194.867967 17.5152694 190.486255 17.5152694 190.486255 21.8969332zM194.867967 17.5152694L199.24968 17.5152694 199.24968 13.1449912 194.867967 13.1449912 194.867967 17.5152694zM199.24968 21.8969332L203.619569 21.8969332 203.619569 17.5152694 199.24968 17.5152694 199.24968 21.8969332zM186.115928 8.76332747L186.115928 4.38210164 190.486693 4.38210164 190.486693 8.76332747 194.867967 8.76332747 194.867967 4.38210164 199.24968 4.38210164 199.24968 8.76332747 203.630954 8.76332747 203.630954 4.38210164 208.001281 4.38210164 208.001719 8.76332747 212.382993 8.76332747 212.382993 4.38210164 208.001281 4.38210164 208.001281 0 203.619569 0 203.619569 4.38210164 199.24968 4.38210164 199.24968 0 194.867967 0 194.867967 4.38210164 190.486693 4.38210164 190.486693 0 186.10498 0 186.10498 4.38210164 181.734654 4.38210164 181.734654 0 177.352941 0 177.352941 4.38210164 181.734216 4.38210164 181.734216 8.76332747 186.115928 8.76332747zM181.734654 30.6484372L186.10498 30.6484372 186.10498 26.2785969 181.734654 26.2785969 181.734654 30.6484372zM208.001719 26.2785969L212.382993 26.2785969 212.382993 21.8969332 208.001719 21.8969332 208.001719 26.2785969zM194.867967 39.4117647L199.24968 39.4117647 199.24968 35.030101 194.867967 35.030101 194.867967 39.4117647zM181.734654 13.1336057L181.734654 8.76376537 177.352941 8.76376537 177.352941 13.1449912 181.734216 13.1449912 181.734216 13.1336057 181.734654 13.1336057zM208.001719 13.1449912L203.630954 13.1449912 203.630954 17.5152694 208.001719 17.5152694 208.001719 21.8969332 203.630954 21.8969332 203.630954 26.2785969 208.001719 26.2785969 208.001719 30.6484372 212.382993 30.6484372 212.382993 35.030101 208.001719 35.030101 208.001719 30.6598227 203.630954 30.6598227 203.630954 35.030101 208.001719 35.030101 208.001719 39.4117647 203.619569 39.4117647 203.619569 35.030101 199.24968 35.030101 199.24968 30.6598227 194.867967 30.6598227 194.867967 35.030101 190.486693 35.030101 190.486693 30.6598227 186.115928 30.6598227 186.115928 35.030101 190.486693 35.030101 190.486693 39.4117647 186.10498 39.4117647 186.10498 35.030101 181.734654 35.030101 181.734654 39.4117647 177.352941 39.4117647 177.352941 35.030101 181.734216 35.030101 181.734216 30.6598227 177.352941 30.6598227 177.352941 26.2785969 181.734216 26.2785969 181.734216 21.8969332 177.352941 21.8969332 177.352941 17.5152694 181.734216 17.5152694 181.734216 13.1449912 181.734654 13.1449912 181.734654 13.1336057 186.10498 13.1336057 186.10498 8.76376537 190.486693 8.76376537 190.486693 13.1336057 194.867967 13.1336057 194.867967 8.76376537 199.24968 8.76376537 199.24968 13.1336057 203.619569 13.1336057 203.619569 8.76376537 208.001719 8.76376537 208.001719 13.1336057 212.382993 13.1336057 212.382993 17.5152694 208.001719 17.5152694 208.001719 13.1449912z"/>
    <polygon points="236.471 39.412 275.882 39.412 275.882 0 236.471 0"/>
    <path d="M295.588235,39.4117647 L335,39.4117647 L335,0 C313.23332,0 295.588235,17.6455229 295.588235,39.4117647"/>
  </g>
</svg>
