<svg viewBox="0 0 22 17" xmlns="http://www.w3.org/2000/svg">
  <path
    d="M15 6.9310345c1.66 0 2.99-1.5248276 2.99-3.4137931 0-1.88896554-1.33-3.41379312-2.99-3.41379312-1.66 0-3 1.52482758-3 3.41379312 0 1.8889655 1.34 3.4137931 3 3.4137931zm-8 0c1.66 0 2.99-1.5248276 2.99-3.4137931C9.99 1.62827586 8.66.10344828 7 .10344828c-1.66 0-3 1.52482758-3 3.41379312 0 1.8889655 1.34 3.4137931 3 3.4137931zm0 2.2758621c-2.33 0-7 1.3313793-7 3.9827586v2.8448276h14v-2.8448276c0-2.6513793-4.67-3.9827586-7-3.9827586zm8 0c-.29 0-.62.0227586-.97.0568965 1.16.9558621 1.97 2.2417241 1.97 3.9258621v2.8448276h6v-2.8448276c0-2.6513793-4.67-3.9827586-7-3.9827586z"
    fill="currentColor"
    fill-rule="nonzero"/>
</svg>
