<svg height="18" viewBox="0 0 16 18" width="16" xmlns="http://www.w3.org/2000/svg">
  <g fill="#0e0c0f">
    <path d="m4.91594 9.40326c-1.77179-1.02182-2.26856-3.48174-1.14256-5.48753 1.14256-2.00578 3.49392-2.81945 5.24915-1.79764 1.75527 1.02182 2.26857 3.48175 1.12597 5.48753-1.12597 2.02471-3.47732 2.81948-5.23256 1.79764zm4.96765-8.780046c-2.48382-1.438111-5.81215-.30276-7.41836 2.535616-1.506851 2.64915-.97697 5.86598 1.126 7.43657l-3.444234 5.847c-.264942.4731-.1655887 1.0408.248382 1.2868.413971.246.960412.0378 1.225352-.4353l2.40103-4.3711c-.23182-.0946-.4802-.1892-.71203-.3216l.91074-1.6084c2.46727 1.3056 5.69624.1703 7.26933-2.61136 1.6062-2.83837.8942-6.32011-1.60621-7.758226z"/><path d="m5.64453 10.0657c1.35783.1325 2.79845-.60549 3.59328-2.00575.43053-.77582.61268-1.60841.52988-2.40315h-4.12316z"/><path d="m13.4431 7.54865c-.1821.87043-.5133 1.72195-.9769 2.53565-1.2088 2.1193-3.1131 3.5574-5.1664 4.0872v2.3843h7.8986v-9.00715z"/>
  </g>
</svg>
