<svg xmlns="http://www.w3.org/2000/svg" viewBox="0 0 682.44 522.46">
  <defs>
    <style>
            .cls-1,.cls-2,.cls-3,.cls-5{fill:none}.cls-2,.cls-3,.cls-4,.cls-5{stroke:currentColor}.cls-2,.cls-3,.cls-4{stroke-linecap:square}.cls-2,.cls-5{stroke-miterlimit:10}.cls-2{stroke-width:2px}.cls-3,.cls-4,.cls-5{stroke-width:12px}.cls-4{fill:url(#lines)}
    </style>
    <pattern id="lines" data-name="lines" width="16" height="16" patternTransform="translate(509.39 576)" patternUnits="userSpaceOnUse">
      <path class="cls-1" d="M0 0h16v16H0z"/>
      <path class="cls-2" d="M1.98 78.02l66-66M-14.02 78.02l66-66M-30.02 78.02l66-66M-46.02 78.02l66-66M-62.02 78.02l66-66M1.98 62.02l66-66M-14.02 62.02l66-66M-30.02 62.02l66-66M-46.02 62.02l66-66M-62.02 62.02l66-66M1.98 46.02l66-66M-14.02 46.02l66-66M-30.02 46.02l66-66M-46.02 46.02l66-66M-62.02 46.02l66-66M1.98 30.02l66-66M-14.02 30.02l66-66M-30.02 30.02l66-66M-46.02 30.02l66-66M-62.02 30.02l66-66M1.98 14.02l66-66M-14.02 14.02l66-66M-30.02 14.02l66-66M-46.02 14.02l66-66M-62.02 14.02l66-66"/>
    </pattern>
    <pattern id="lines-7" data-name="lines" width="16" height="16" patternTransform="translate(125.39 109.33)" patternUnits="userSpaceOnUse">
      <path class="cls-1" d="M0 0h16v16H0z"/>
      <path class="cls-2" d="M1.98 78.02l66-66M-14.02 78.02l66-66M-30.02 78.02l66-66M-46.02 78.02l66-66M-62.02 78.02l66-66M1.98 62.02l66-66M-14.02 62.02l66-66M-30.02 62.02l66-66M-46.02 62.02l66-66M-62.02 62.02l66-66M1.98 46.02l66-66M-14.02 46.02l66-66M-30.02 46.02l66-66M-46.02 46.02l66-66M-62.02 46.02l66-66M1.98 30.02l66-66M-14.02 30.02l66-66M-30.02 30.02l66-66M-46.02 30.02l66-66M-62.02 30.02l66-66M1.98 14.02l66-66M-14.02 14.02l66-66M-30.02 14.02l66-66M-46.02 14.02l66-66M-62.02 14.02l66-66"/>
    </pattern>
  </defs>
  <g id="Layer_2" data-name="Layer 2">
    <g id="Layer_31" data-name="Layer 31">
      <path class="cls-3" d="M136.66 73.74V147M234.28 73.74V147M87.85 6.63V348.3h97.62V6.63zM185.47 6.63V348.3h97.62V6.63z"/>
      <path class="cls-4" d="M87.85 274.36v73.94h97.62v-73.94zM185.47 274.36v73.94h97.62v-73.94z"/>
      <path class="cls-3" d="M331.9 73.74V147M6 348.24h453.05M283.09 6.63V348.3h97.62V6.63z"/>
      <path class="cls-4" d="M283.09 274.36v73.94h97.62v-73.94z"/>
      <circle class="cls-3" cx="136.66" cy="165.9" r="18.94"/>
      <circle class="cls-3" cx="234.28" cy="165.9" r="18.94"/>
      <circle class="cls-3" cx="331.9" cy="165.9" r="18.94"/>
      <path class="cls-3" d="M517.7 73.11v73.22M566.51 321.66V6h-97.62v242.49"/>
      <path class="cls-5" d="M566.51 299.33l32.76 5.84M566.51 260.49l51 31.26M597.62 188.77a20.06 20.06 0 00-26.09 3.48 20 20 0 001.76 28.29l52.44 46.9"/>
      <path class="cls-5" d="M602.7 520.08L671 362.21c6.16-18.48 6.16-18.48 4.62-44.53l-1.2-81.14-49.21-75.71a20.06 20.06 0 00-31.73 24.54l35.18 57-12.51 54.13-44.87 25.39c-24.67 10.44-45.54 7.77-60.89-14.65l-28.12-42.8c-16.75-23.77-37.42-16.38-49.19-4.6a43.77 43.77 0 00-4.4 5.53s14.69 25.44 17.72 31l19.6 69.11s-11.46 51.3 34.55 87.54"/>
      <path stroke-width="12" stroke-miterlimit="10" stroke="currentColor" d="M486.22 439.43l-11.21 31.37"/>
      <path d="M573.49 347c-19.43 8.34-37.2-3.1-48.66-18.64l-19-28.37" stroke-width="12" stroke-miterlimit="10" stroke-linecap="square" stroke="currentColor" fill="none"/>
      <path stroke="inherit" d="M504.6 454.74c-13.56-6.17-11.28-9.87-15-18.63l-14.81 36.27 76.43 29.35" fill="url(#lines-7)"/>
      <circle class="cls-3" cx="517.7" cy="171.48" r="18.94"/>
      <path class="cls-4" d="M510.39 307.24c14.35 21 33.53 24.66 56.12 16.52v-49.21h-77.6z"/>
    </g>
  </g>
</svg>
