<svg viewBox="0 0 2326 2355" xmlns="http://www.w3.org/2000/svg">
  <g fill="none" fill-rule="evenodd">
    <g transform="translate(-184 435)">
      <path d="M810.882611 534.808024l-287.176164 830.485958c-155.151817-13.279178-336.700121-45.684084-437.527392-111.521806-88.727122-57.936623-110.551177-144.551593-57.970432-228.030797 130.858158-207.755422 321.152738-557.527655 640.531264-612.048275 95.025366-16.22163 203.6528274 29.80427 271.260113 49.85141l-129.117389 71.26351z" stroke="#000" stroke-width="10" fill="#000"/>
      <ellipse fill="#000" cx="1071.96909" cy="1157.73554" rx="384.5" ry="280"/>
      <path d="M728.419808 1357.54384l150.160766-168.50378c91.520174-126.31429 151.114796-222.489014 178.550396-287.707345l14.58979-34.682025c24.47737-58.1862 81.47468-194.264517 170.98297-408.213622l7.76189-18.553037 47.76998 10.245675 123.09684-397.5120681 19.37096 1.5859748c47.2475 3.8683328 114.45312 13.0120145 190.81641 28.5423912C1746.68353 106.167412 1860.07062 139.69026 1965.433 185.100161c132.75007 57.213661 244.9679 130.065844 330.34121 220.596498 100.45081 106.518967 160.69315 234.484192 173.92841 384.954088 11.27063 128.134398-11.97773 239.136563-67.19209 333.705443-50.26989 86.10018-126.29408 157.42645-225.39853 215.64457-87.22568 51.24003-191.34958 91.81715-311.34048 123.64505-100.86123 26.7537-210.37604 46.76211-332.70975 62.42229-193.17562 24.72879-374.55712 28.13394-541.51693 15.01429-64.801535-5.09209-124.983447-12.51615-180.246333-21.67735-42.087535-6.97707-78.527063-14.48098-109.201747-21.95769l-39.62299-9.65778 101.126532-111.17113-35.180494-19.0746z" fill="#000" fill-rule="nonzero"/>
      <path d="M1431.95688 90.7753531L1309.20419 487.29255l-49.30818-10.578696C1171.21213 688.7547 1114.7409 823.616642 1090.48233 881.29968l-14.45434 34.370112c-28.13006 66.888823-88.227018 163.847868-180.29087 290.877128l-129.420427 145.27257 35.135233 19.05565-93.60001 102.92725c91.640983 22.34333 391.403734 82.0541 814.516514 27.87468 423.11277-54.17941 951.75172-194.93636 907.08503-702.895444-53.68041-610.464824-907.63756-700.6470094-997.49658-708.0062729z" fill="#FFF" fill-rule="nonzero"/>
      <path d="M1319.80777094 98.389196c583.98208097 28.58790104 1053.60461347 317.91915928 1091.48905666 673.4726031 57.12824234 536.16052653-503.88398426 743.85843333-976.43487929 809.3861738-472.55089685 65.5277505-809.14874767 8.27591327-912.12608915-13.54832825l102.85888583-110.61174178-39.67510947-19.45340671 142.16812219-156.06602547c100.69497132-136.0549914 166.16713732-239.70446456 196.41649944-310.94839352a548005648.0910099 548005648.0910099 0 0 1 15.5433137-36.6079388c26.0861978-61.43876234 86.80118964-205.07673882 182.14496854-430.9139283l55.38117102 10.21728444L1319.80777094 98.389196z" fill="#000"/>
      <path d="M1682.86307 334c68.95409 5.167326 68.13402-68.44077 130.73756-53.264462 364.35228 88.326026 508.86846 306.50448 508.86846 573.312999 0 155.394213-85.95864 301.571933-234.29142 407.560003C1776.93561 1484 1184.12029 1486.60954 1148.60063 1484c331.9491-28.85779 707.86846-202.01832 707.86846-458.53856 0-203.976133-158.28443-374.788101-536.8727-444.567986 33.94029-57.053841 61.92253-97.541747 83.94673-121.463718C1424.94575 436.182905 1503.92548 447.974979 1517 429c29.68947-43.088171 96.90897-100.167326 165.86307-95z" fill="#D8D8D8"/>
      <path d="M1403.54312 296.786497c-3.27623-.374555-53.23859 112.277062-56.54312 111.949041l40.80666-138c422.37289 31.657425 814.88106 292.544584 814.88106 573.402623 0 4.545598-.08588 9.078261-.25664 13.597353-10.8611-263.82007-364.87239-507.194118-759.41194-555.49793-12.21788-1.495845-25.37655-3.312874-39.47602-5.451087z" fill="#FFF"/>
      <path d="M1277 551.813525l46.58814-122.077987c363.35202 27.235094 701.01249 251.678059 701.01249 493.302107 0 3.910607-.07387 7.810088-.22077 11.697893-9.48477-230.400072-323.16922-442.674015-668.72278-479.668994-7.10798-.760981-15.32701-1.783162-24.65708-3.066544-.27212-.03065-51.42989 100.064164-54 99.813525z" fill="#FFF"/>
      <path d="M1321.30347 432.705683c-2.82406-.32009-5.66054-.620125-8.50897-.899837L1321.81526 409C1685.77488 436.235093 2024 660.678049 2024 902.302086c0 3.910608-.074 7.810089-.22115 11.697893V914c-9.79376-237.509023-343.3894-455.756086-701.96359-482.588187l-.51179 1.29387zM2132.04497903 1076.08326392c.29328952 2.5664168 1.72512972 38.98723234-22.43533943 87.0302574-78.55295463 156.20233498-248.28622966 265.62763588-559.01441511 298.97037555-61.1016109 12.28047423-129.34859988 20.11719461-205.39705444 23.06389487l-143.23588424-.23444257c1.67530427-.09429727 47.31112247-4.20286718 136.90745424-12.32570773 316.2475583-12.2538554 609.71162283-190.6284846 631.1315234-338.00066678.08471124 2.57681738-1.43911479 38.98130653-29.45693467 85.43883285-50.10962072 83.08887337-126.61805243 150.40658694-237.4082644 196.59105425 238.22724032-68.14482416 421.21972689-219.24272185 428.90891465-340.53359784z" fill="#000"/>
      <path d="M1384.48345 277.038245c-3.32372-.373788-6.66202-.724017-10.01436-1.050373l10.78235-27.252334c428.21422 32.034941 826.15069 296.033191 826.15069 580.240474 0 4.599804-.08706 9.18652-.26018 13.759502v.000024c-11.5228-279.367049-404.01247-536.077455-825.89051-567.638382l-.76799 1.941089z" fill="#000"/>
      <path d="M1242.40213324 722.4808374c73.85968052 2.71325416 83.67101607-73.1834065 151.31365188-53.48083738 219.54089613 63.94664579 381.67833259 203.77189162 386.99334439 355.97391575 7.48786783 214.42447978-268.05022023 398.0838417-615.43154593 410.2146649-24.89158358.86923325-49.47662628.83417951-73.6740093-.05892005 219.53837334-26.42666515 385.04694673-148.98811619 380.11989177-290.08051012-4.26829036-122.22784372-109.1805623-238.84612193-342.37093035-279.13027247-8.97502766-1.55045554-11.39267304-6.61156903-7.25293613-15.18334046 3.7365599-18.19084143 12.5702378-35.7693537 26.50103389-52.7355378 3.31288291-4.0347288 31.40615548-7.098111 35.9999998-11.86351281 9.69544671-10.05752298 28.96261303-31.27607316 57.80149998-63.65564956z" fill="#D8D8D8"/>
      <path d="M1168.2260336 733.44027085c-1.93327286-.25812838-3.8753524-.50247336-5.8259241-.73284341l6.691652-16.24095129c249.46159718 23.23305053 478.87584063 182.81571086 475.95322219 350.25240956-.04730164 2.7099092-.14525596 5.41122109-.2932704 8.10356594l-2.6e-7.000015c-3.84876875-164.70246927-230.16066803-319.93614025-475.9310387-342.8254166l-.59464074 1.4432208z" fill="#000"/>
      <path d="M1161.6434911 786.78885729l19.71184211-57.4458646c242.87812417 23.22601447 466.16062805 183.59066929 463.2213088 351.98415624-.04757194 2.72539484-.144457 5.44217175-.29007956 8.14995769-3.6552486-165.63985664-223.9195538-321.63244884-463.2038655-344.5147933l-.36678801.91843825c-1.88322996-.25596268-17.17243386 41.13640618-19.07241784 40.90810572z" fill="#FFF"/>
      <path d="M1169.71281678 573.2847004L1060.8653028 842.04231203l29.6210795 8.80786175 108.84751378-268.75761163-29.6210793-8.80786175zM1357.28199949 149.08452244l27.79824612 9.57170374-138.36646564 401.84539463-27.79824613-9.57170374z" stroke="#979797" fill="#D8D8D8"/>
      <path d="M690.91876 1455.89845C809.250556 1478.99409 1179.96719 1576.4983 1765.60063 1422c-423.33665 154.4983-857.324785 143.55503-1126.999997 80.60454l52.318127-46.70609z" fill="#FFF"/>
      <path d="M742.01223767 1334.96055794c59.07398234 29.00178374 128.56421794 76.75839898 298.84111304 86.98182293 162.4266344 9.75210574 364.35321096-32.93119788 334.37769423-22.630452-127.33545971 43.75741675-385.55480921 82.81586513-694.07308485 5.43912273l60.85427758-69.79049366z" fill="#FFF"/>
      <g transform="translate(752 1)">
        <ellipse stroke="#000" stroke-width="42" fill="#FFF" cx="139.358547" cy="596.584625" rx="130.410775" ry="99.8787479"/>
        <ellipse fill="#D8D8D8" cx="139.358547" cy="581.352867" rx="109.410775" ry="78.8787479"/>
        <path d="M225.174206 568.581411c-11.425526 29.305808-46.333795 48.959223-85.815659 48.959223-48.2947926 0-89.7463247-29.4065-89.7463247-69.915232 0-.23035.0014063-.460626.0042177-.69082l-.004432-444.578453h179.492864v466.225282h-3.930662z" stroke="#000" stroke-width="43" fill="#D8D8D8" stroke-linecap="round" stroke-linejoin="round"/>
        <ellipse fill="#000" cx="139.358547" cy="158.127585" rx="100.744575" ry="72.3508515"/>
        <ellipse stroke="#000" stroke-width="42" fill="#D8D8D8" cx="139.358547" cy="111.344328" rx="121.744575" ry="93.3508515"/>
        <path d="M107.55734272 84.00774068c32.61054927-58.90728499 160.93274405 31.55342287 122.42450483-32.97690866-38.50823819-64.53033156-101.32395238-22.8299831-146.39941048-10.68822056C38.50697885 52.48437394 7.5468299 83.26485488 14.43100904 109.09273975c6.88417907 25.82788467 60.51578389 33.82228553 93.12633368-25.08499907z" fill="#000"/>
        <rect fill="#000" x="168.606972" y="213.070713" width="18.4156749" height="330.74675" rx="9.20783746"/>
        <rect fill="#000" x="130.692347" y="227.214488" width="18.4156749" height="330.74675" rx="9.20783746"/>
        <rect fill="#000" x="92.7777222" y="213.070713" width="18.4156749" height="330.74675" rx="9.20783746"/>
      </g>
      <path d="M859.62791123 72.2296551c27.58921572-35.48591645 119.7752695 9.85442614 94.01098335-25.21012016-25.76428511-35.06454627-81.65970258-21.00315563-116.27359156-11.7210455-34.6138886 9.28211002-53.1296408 41.6361323-49.2500212 56.10809504 3.87961958 14.47196263 43.9234131 16.30898722 71.5126294-19.17692938z" fill="#F9F9F9"/>
      <g>
        <g transform="translate(532 282)">
          <ellipse stroke="#000" stroke-width="42" fill="#FFF" cx="117.946561" cy="598.788439" rx="138.807576" ry="105.634667"/>
          <ellipse fill="#D8D8D8" cx="117.946561" cy="582.445193" rx="117.807576" ry="84.6346667"/>
          <path d="M209.184845 567.17289c-11.634036 31.354-48.914612 52.531862-91.238284 52.531862-51.1790709 0-94.9839338-30.967077-94.9839338-73.448175 0-.244105.0015142-.488129.0045415-.732062l-.0047566-475.4603886H212.930495V567.17289h-3.74565z" stroke="#000" stroke-width="43" fill="#D8D8D8" stroke-linecap="round" stroke-linejoin="round"/>
          <ellipse fill="#000" cx="117.946561" cy="128.33643" rx="108.476283" ry="77.6304184"/>
          <ellipse stroke="#000" stroke-width="42" fill="#D8D8D8" cx="117.946561" cy="78.1393172" rx="129.476283" ry="98.6304184"/>
          <rect fill="#000" x="149.439675" y="187.288853" width="19.828998" height="354.881913" rx="9.914499"/>
          <rect fill="#000" x="108.615268" y="202.464724" width="19.828998" height="354.881913" rx="9.914499"/>
          <rect fill="#000" x="67.7908602" y="187.288853" width="19.828998" height="354.881913" rx="9.914499"/>
        </g>
        <path d="M629.36787545 346.26814514c-15.23093031 19.70609835-35.10438516 31.6026522-54.77736459 34.64176004-18.66662604 2.88364412-35.04951285-2.89445657-38.51950678-15.82398267-2.94346004-10.96761096 2.6720164-28.5579269 13.57548842-44.53540332 12.28480093-18.00161583 29.50850828-31.67789006 49.14888209-36.93865249 24.08538396-6.45137837 48.39236203-9.51501739 70.2761908-7.64836812 28.29025348 2.41310476 50.99483637 12.9317549 65.7393613 33.07666128 4.84109173 6.61420618 7.10823057 11.8573248 6.37645544 16.90931586-.9257618 6.39121734-5.81225082 9.6480838-12.49390232 10.65403853-4.05337079.61025447-9.05831964.50647402-16.26070675-.14152205-3.78933634-.34092482-18.30812355-1.95968717-19.9420797-2.12783727-10.29824089-1.05979-18.24141824-1.54222417-25.7133424-1.40874293-18.14933774.3242263-30.54522552 4.4616222-37.40947551 13.34273314z" stroke="#000" stroke-width="15" fill="#F9F9F9"/>
      </g>
      <g>
        <g transform="translate(343 580)">
          <ellipse stroke="#000" stroke-width="42" fill="#FFF" cx="131.402138" cy="677.718712" rx="152.327724" ry="114.641351"/>
          <ellipse fill="#D8D8D8" cx="131.402138" cy="659.636244" rx="131.327724" ry="93.6413507"/>
          <path d="M231.3257 640.450692c-11.946951 34.556782-53.03482 58.122217-99.923562 58.122217-55.8191233 0-103.4172929-33.396759-103.4172929-78.976415 0-.265656.001688-.531218.0050628-.796678l-.0052795-523.7834061H234.819432V640.450692H231.3257z" stroke="#000" stroke-width="43" fill="#D8D8D8" stroke-linecap="round" stroke-linejoin="round"/>
          <ellipse fill="#000" cx="131.402138" cy="157.201962" rx="120.925528" ry="85.8917217"/>
          <ellipse stroke="#000" stroke-width="42" fill="#D8D8D8" cx="131.402138" cy="101.662954" rx="141.925528" ry="106.891722"/>
          <path d="M103.20994733 82.54949016c34.24492826-43.96748112 148.8859933 12.37724601 116.8164757-31.13784493C187.95690537 7.89655409 118.50097356 25.2596916 75.4903351 36.72432943c-43.01063864 11.4646379-65.98195217 51.56038912-61.14078375 69.51121364 4.84116844 17.95082452 54.61546828 20.28142837 88.86039597-23.68605291z" fill="#F9F9F9"/>
          <rect fill="#000" x="166.50955" y="222.428007" width="22.1046665" height="392.647871" rx="11.0523332"/>
          <rect fill="#000" x="120.999942" y="239.218869" width="22.1046665" height="392.647871" rx="11.0523332"/>
          <rect fill="#000" x="75.490335" y="222.428007" width="22.1046665" height="392.647871" rx="11.0523332"/>
        </g>
      </g>
      <g>
        <path d="M808.600633 1157.055894c11.9464533 73.085421 115.422536 131.254307 242.601794 133.016157 127.344633 1.76414 233.425737-53.649337 248.361805-126.499244l-4.211742 48.753899-.282013 1.839166c-6.095442 78.349923-110.057019 135.64641-243.673989 133.790298-129.70339-1.801747-231.0837056-60.30338-239.55558504-135.629464l-3.24026996-55.270812zM1301.164574 1140h.436059l-.278216 3.220543c-.032859-1.076218-.085541-2.149774-.157843-3.220543z" fill="#D8D8D8"/>
        <path d="M1051.448122 1271.957263c-134.193664-1.970787-241.56769484-71.60201-239.82661095-155.525689 1.74108389-83.9236791 111.93796995-150.35962434 246.13163295-148.388837 134.193664 1.9707873 241.567695 71.6020102 239.826611 155.525689-1.741084 83.923679-111.93797 150.359624-246.131633 148.388837z" fill="#D8D8D8"/>
        <path d="M812.37379633 1116.937199c-.30644175-3.473967-.4261199-6.977164-.3529183-10.505625 1.74108389-83.9236791 111.93796997-150.35962434 246.13163297-148.388837 134.193664 1.97078733 241.567695 71.6020102 239.826611 155.525689-.045161 2.176854-.163292 4.341942-.352918 6.494375-6.982184-79.1535453-110.922012-143.1321356-239.473693-145.020064-130.712882-1.9196681-238.6577216 61.0646857-245.77871467 141.894462z" fill="#F9F9F9"/>
        <path d="M811.60129446 1120.947319c-.00291495.789995.00380093 1.581308.02021659 2.373893 1.74108389 84.063455 111.93796995 150.61005 246.13163295 148.63598 134.193664-1.97407 241.567695-71.721264 239.826611-155.784719-.120408-5.813558-.759523-11.543339-1.88941-17.172473-.306251 82.998748-106.918397 151.455368-239.846827 153.410826-124.913262 1.837549-229.0340568-55.695939-244.24222354-131.463507z" fill="#FFF"/>
        <path d="M1260.6006335 1090.406868C1238.2385614 1031.64608 1154.917992 988 1055.55071 988c-116.50451 0-210.950076 59.998985-210.950076 134.0114843 0 15.4085317 4.093492 30.2096848 11.627305 43.9885157-3.856642-10.1340911-5.900154-20.7177489-5.900154-31.6046161 0-74.0124989 94.445566-134.0114839 210.950077-134.0114839 92.249643 0 170.6690812 37.617317 199.322773 90.022971z" fill="#000"/>
        <path d="M1139.10001686 1167.74930865l-172.20323554 26.74255865c-9.66747423 1.50132433-17.90377298-4.96797652-18.39628776-14.44958731-.11475306-2.20915636.206302-4.46506241.94555074-6.64395346l42.43426424-125.07242466c3.17282669-9.35171587 13.15861048-15.17524403 22.30387141-13.00721458 2.1307888.50513732 4.09887481 1.42605726 5.796285 2.71223626l129.76897119 98.3298665c7.28521819 5.52022964 8.0238854 16.36201383 1.64985838 24.21580284-3.12378784 3.84899-7.56143482 6.43694577-12.29927766 7.17271576z" fill="#000"/>
        <path d="M1134.96659967 1147.42732467l-150.87159198 23.15985079c-8.46991798 1.30019185-15.69347872-4.3509204-16.1342762-12.62211134-.1027031-1.92713553.1764366-3.89462745.82210483-5.79453316l37.06254389-109.0581387c2.77118234-8.15432104 11.51582445-13.22441731 19.5317059-11.32437702 1.86765048.44269756 3.59313286 1.24791993 5.0817834 2.3714909l113.80904797 85.8982885c6.38923017 4.82232186 7.04704537 14.28021733 1.4692724 21.12479962-2.73355832 3.35439818-6.61964714 5.60753105-10.77059021 6.2447304z" fill="#F9F9F9"/>
      </g>
    </g>
    <g fill-rule="nonzero">
      <path d="M1421.52497 841.864703c-13.63684 11.870583-31.72573 16.793039-49.61274 11.427386-29.89353-8.967303-48.92563-44.655444-45.53197-75.036733 3.66655-34.596863 36.28348-55.5380608 69.71181-45.907765l.3148.090689.31274.097542c29.37267 9.161131 49.56355 39.233935 45.84061 69.513466-1.79362 15.286674-9.50724 29.780519-21.03525 39.815415zm-132.289056 5.675308l.900494-7.971495c2.526132-22.948958 20.127756-40.599997 43.204722-42.460357l.28138-.022683.28175-.017385c35.86022-2.212601 72.89694 9.053871 104.82218 31.471721l.12222.085822.12136.087034c16.49269 11.82804 25.98048 31.930946 23.69915 51.841743l-.89705 7.942134c-2.57564 22.803544-24.77104 36.87471-46.37373 30.32736l-98.800893-29.944606c-17.611463-5.337688-29.447643-22.870261-27.361583-41.339288z" fill="#000"/>
      <path d="M1319.046363 850.907075c-.444333 3.933919 2.355087 8.080608 6.252667 9.26189l98.80089 29.944606c3.89759 1.181283 7.41741-1.050171 7.86175-4.98409l.89705-7.942134c1.0156-8.864022-3.51312-18.459567-11.37235-24.095959-26.52078-18.622841-56.88697-27.860158-85.7346-26.080239-8.53567.688107-14.8215 6.991578-15.795478 15.839823l-.909929 8.056103zM1412.77421 798.470532c1.97371-15.680902-9.21087-32.374899-24.98701-37.295366-15.81775-4.556902-29.95471 4.541272-31.58279 20.325855-1.82106 15.908866 8.70725 38.370373 24.32759 43.05608 15.62034 4.685706 30.42115-10.177703 32.24221-26.086569z" fill="#FFF"/>
      <path d="M1677.0429 751.781997c-15.16647 10.47739-33.95081 13.543761-51.4551 6.26432l-.10062-.042057c-29.39113-12.348279-45.42818-51.2574044-39.17852-82.1352902 7.09826-35.93875023 43.74343-53.14710113 77.36109-38.7834271l.24222.10349432.24037.10773164c29.32583 13.14356104 46.80087 46.25731864 38.99858 76.79794184-3.7552 15.1461107-13.3164 28.8505105-26.10802 37.6872865zm-135.47603-5.978521l.00464-.026602 1.49721-8.565819c4.11776-23.7700043 23.73825-40.7846765 47.95509-40.1965261l.27767.0067437.27749.0118837c37.18242 1.592318 74.18966 17.0119262 104.16532 42.9743777l.10697.092643.10608.093649c15.55071 13.727611 22.50337 35.298347 17.40245 55.184001l-2.01281 7.944321c-5.35942 21.240403-27.74791 33.212278-48.45389 25.190604l-.1869-.072407-97.18259-39.150699-.17346-.072416c-16.86813-7.042384-26.91078-25.424878-23.78327-43.413754z" fill="#000"/>
      <path d="M1571.1235 750.942137c-.73156 4.20778 1.86238 8.953402 5.78467 10.590945l96.82233 39.005564c3.71678 1.439911 7.53091-.603822 8.52816-4.556107l2.02001-7.972787c2.27957-8.887013-.951-18.948134-8.17518-25.325384-24.8981-21.564681-55.47548-34.379705-85.80807-35.6786829-8.99518-.2184645-16.02997 5.8765179-17.66696 15.3261009l-1.50496 8.610351zM1674.05813 706.7713124c4.1351-15.946287-5.72271-34.7243957-22.17552-42.0983933-16.66562-7.1206478-32.91252.4630668-36.15602 17.0778065-3.42805 16.7542302 5.53495 41.9380117 21.38077 48.5954171 15.72223 6.5383433 32.98481-7.3387884 36.95077-23.5748303z" fill="#FFF"/>
      <path d="M1173.646623 1115.844086c-14.485476 12.616211-33.573529 17.789302-52.384288 11.865404l-.105755-.03352c-31.21455-9.957137-51.576984-48.890559-48.505234-81.516673 3.384769-37.899417 39.109102-59.727868 75.261346-47.950298l.254608.082945.253087.087477c31.308541 10.821505 52.423845 43.426812 47.78145 75.633423-2.194007 16.045582-10.446966 31.285491-22.555214 41.831242zm-140.857311 11.740183l.00176-.026238.641195-9.492512c1.645938-24.911965 19.75648-44.644466 44.745137-46.481827l.285086-.020962.285433-.015526c39.243205-2.13455 79.776619 10.689645 114.024268 35.591481l.11457.083305.113778.084383c17.111657 12.690816 26.292601 34.163862 23.276142 55.034562l-1.255508 8.867376c-3.109305 22.112708-24.54557 36.845895-46.544473 30.502078l-.196336-.056618-107.155417-32.487793-.182549-.057901c-17.625521-5.590457-29.374187-23.206419-28.153086-41.523808z" fill="#000"/>
      <path d="M1166.49312 1069.839748c2.60137-17.62699-9.796167-36.858142-27.873055-43.106249-18.272654-5.952811-34.501497 3.910025-36.093927 22.165566-1.77095 18.425109 10.38605 44.657672 27.747532 50.195816 17.218742 5.422539 33.82726-11.333162 36.21945-29.255133zM1062.722873 1129.579744c-.310648 4.659937 2.957737 9.55831 7.289607 10.932291l106.776596 32.372941c4.092571 1.180173 7.904334-1.444536 8.524345-5.853922l1.259511-8.895747c1.433502-9.918726-3.094413-20.540724-11.443323-26.732671-28.728805-20.889025-62.504559-31.653759-94.752309-29.899712-9.544745.701804-16.318914 8.075994-17.010299 18.540388l-.644128 9.536432z" fill="#FFF"/>
      <path d="M1317.5042 1849.94224c-37.546803 7.44872-69.282299-24.53397-69.500733-60.87253-.350531-32.29927 25.572497-62.03759 58.120435-69.54469l.375862-.0867.377967-.07699c37.693929-7.679 70.772919 18.25395 69.060809 56.53029-1.20996 32.40938-26.34295 67.75254-58.43434 74.05062zm-57.234086 66.42601c-21.849947 3.9786-42.961841-11.32175-43.887004-34.53256l-.001246-.03167-.339863-8.76008c-.866187-21.45493 11.590826-41.73543 30.700152-52.49799l.191776-.10801.193339-.10519c38.737023-21.07447 81.365702-29.00519 119.964802-21.64705l.40662.07751.40433.0887c23.89391 5.24198 39.06074 26.60083 38.05228 50.84301l-.35363 9.10501c-.70311 18.52341-14.55152 34.74094-33.00971 37.87214l-112.321846 19.69618z" fill="#000"/>
      <path d="M1345.96341 1774.66105c.86938-18.13733-13.85769-29.82296-33.097096-25.90352-19.410552 4.477-35.096876 22.49526-34.863749 40.05833.066837 17.73319 15.264204 35.3712 33.694764 31.69371 18.271841-3.56197 33.642161-27.6331 34.266081-45.84852zM1246.359307 1880.64086c.171177 4.29456 4.026541 7.06623 8.599531 6.201l112.563212-19.7385c4.30801-.70297 7.92982-4.92597 8.10121-9.44135l.35464-9.13134c.42523-10.22309-5.31822-18.36052-14.50356-20.37565-31.56317-6.01688-67.224372.69344-100.010254 18.53026-9.684866 5.45461-15.837249 15.46996-15.446504 25.14847l.341725 8.80711z" fill="#FFF"/>
      <path d="M1765.32078 1709.45865c-17.76129 11.26758-38.9498 9.82284-53.994-3.81132-11.39185-10.32415-17.25003-25.79996-17.32431-42.03361-.23306-26.94081 16.59382-57.993284 39.35-73.37114l.29791-.201324.30266-.194126c15.88432-10.188209 34.33449-12.439569 50.10268-2.636905 15.02728 9.342062 21.53815 25.881614 20.90198 44.166661-.80177 28.026264-17.31894 63.976584-39.63692 78.081764zm-42.87699 80.10251c-23.08721 14.31983-51.31222-1.01082-52.16093-28.0586l-.00079-.02525-.25381-8.31273c-.54961-17.29037 7.02422-36.06677 19.2205-49.60599l.11221-.12457.1136-.12331c28.84148-31.30637 61.22716-51.55392 92.50055-55.96125l.54101-.07625.54344-.05649c14.2718-1.48369 27.62773 4.71717 35.75613 16.29633 6.05269 8.62224 8.50085 18.96859 8.15445 29.80721l-.26403 8.84181c-.41186 14.10914-8.10898 28.68861-20.47021 36.1635l-83.79212 51.23559zM433.4383 1940.86408c-38.2518508-7.06011-69.8514852-48.9079-71.3576078-87.228-1.0129591-21.23499 7.9379888-40.53252 24.4457946-52.7487 15.4956289-11.46714 35.7519792-15.34345 56.4425802-11.37486l.358504.06877.356726.07746c39.624542 8.60487 71.759636 43.31952 71.313887 81.16833-.257968 42.05334-38.273201 78.12863-81.559884 70.037zm79.273889 86.52201l-154.744293-25.19924c-19.8525753-3.11323-35.59354343-20.221-36.42143851-40.4758l-.48713937-11.64779c-1.23825231-27.64274 16.74417568-51.16 43.95510578-56.70378l.3787734-.07717.380636-.06738c49.9831368-8.8485 105.5994377.76028 156.4642377 26.45849l.18852.09524.187161.09789c23.077747 12.07033 38.413989 35.25701 37.336421 60.04353l-.468371 11.21093-.001444.03409c-.530761 12.36592-6.899566 23.37054-16.938451 30.08672-8.759503 5.86025-19.433549 7.91216-29.829718 6.14427z" fill="#000"/>
      <path d="M1774.97256 1630.425264c.65204-17.608984-10.39327-24.581185-24.82282-15.326061-14.55792 9.837749-26.32266 31.571277-26.14782 48.315227.05013 16.95435 11.44816 29.48939 25.27108 20.69723 13.70388-8.63618 25.23162-36.07288 25.69956-53.686396zM1700.2681 1760.56167c.12772 4.07047 3.00442 5.61888 6.41657 3.47173l83.98948-51.35627c3.21443-1.91518 5.91686-7.00947 6.04475-11.39043l.26461-8.86184c.31729-9.92949-3.96821-16.08146-10.82189-15.36895-23.55098 3.31902-50.15972 20.02757-74.62303 46.58161-7.2264 8.0221-11.81703 19.40187-11.52547 28.57392l.25498 8.35023zM392.0527332 1852.33066c.8533058 23.45548 21.8744689 54.45118 46.8639048 59.03783 25.206501 4.7354 45.991135-17.97656 46.082545-40.81109.318836-22.61545-21.134519-45.81705-47.681304-51.58195-26.3127185-5.04696-46.4541562 10.0003-45.2651458 33.35521zM529.507953 1989.86865l.470529-11.26155c.538026-12.37581-7.933332-25.18232-21.268647-32.15707-45.143638-22.80774-94.2463672-31.38814-137.7064279-23.69443-12.6475051 2.57673-20.5557928 12.98196-19.9702899 26.05411l.4883114 11.67615c.2359965 5.77375 5.2229542 11.17365 11.1547422 12.07253l154.9908902 25.2394c6.296656 1.10636 11.605194-2.43774 11.840892-7.92914z" fill="#FFF"/>
      <path d="M1598.46074 1447.100587c.28138-2.732062.43105-4.695558.82571-10.467348.6924-10.125981 1.18949-15.065552 2.44284-21.284495 1.99845-9.915957 5.47153-18.599658 11.35812-26.358095 14.43666-19.027293 37.71263-29.221781 60.14047-26.582209 30.7143 3.61482 49.78423 25.680756 55.89347 59.587656 1.41789 7.869436 1.0779 15.514663-.28218 26.361036-.20164 1.608005-.41654 3.208713-.70667 5.295076-.99728 7.171639-.98945 7.113423-1.17184 8.884338-.15819 1.535969-.34292 3.064974-.55394 4.585982-2.27093 16.369004-17.35221 27.818872-33.72939 25.607723l-68.69133-9.274291c-15.64972-2.112931-26.98204-15.996214-25.9178-31.752024.10354-1.532843.23437-3.067648.39254-4.603349zm111.50822-50.458836c-12.37222 13.946851-30.18346 19.081179-49.67102 14.966155-20.07162-4.238354-34.65804-18.970003-43.02029-38.26217-6.78109-15.644333-9.10406-33.852144-5.77191-49.220067 7.65413-36.312264 44.48511-54.592063 78.75563-40.189908.20073.084357.40054.170897.59939.259604 30.40682 13.564744 42.3768 45.353176 35.07776 77.179761-3.27551 14.844337-7.62817 25.863612-15.96956 35.266625z" fill="#000"/>
      <path d="M1628.30288 1450.174106c-.12251 1.189467-.22331 2.373648-.30288 3.551604L1696.69133 1463c.16207-1.168245.30468-2.347506.42719-3.536973.95911-9.312449 3.95816-23.933578 2.47824-32.147278-4.01575-22.287834-13.94973-33.238622-29.87543-35.112945-11.2248-1.321067-24.31934 3.830126-32.73448 14.921159-7.92422 10.444006-6.95665 26.278787-8.68397 43.050143zM1696.6716 1354.7821c4.04251-17.458569-.91123-35.551142-18.03306-43.189335-17.2109-7.232867-34.12892 1.1852-37.79585 18.806455-3.89787 17.736265 5.90786 47.686456 25.65341 51.855957 19.74556 4.169501 26.27763-9.736811 30.1755-27.473077z" fill="#FFF"/>
    </g>
  </g>
</svg>
