<svg viewBox="0 0 286 254" xmlns="http://www.w3.org/2000/svg">
  <g fill="none" fill-rule="evenodd">
    <path d="M254.608152 0l.961528 3.1264636c1.518991 4.93908984 3.917189 16.941734 8.879812 44.1254654 2.297269 12.5837399 16.227865 90.07029 21.205859 117.553189L286 166.707885l-1.991799.800438c-4.200964 1.688229-48.664984 19.256025-77.408845 31.732556-21.205296 9.204349-30.710065 15.916181-31.93838 16.743738-1.913418 1.289132-3.029456 2.16333-5.607965 4.304852-.834038.692691-1.3049 1.07828-1.838061 1.499704-2.603216 2.057645-4.989597 3.521959-8.335629 4.964843-10.276898 4.43163-18.123834 6.126445-36.185904 7.739452-4.313489.38521-112.0068381 18.272724-119.07157512 19.088376L0 254l.37996091-3.195958c3.21785529-27.06629 6.1198542-51.547821 9.13945583-77.080225 1.16969396-9.89041 5.11914856-43.317905 5.89681916-49.888 1.6235883-13.71677 2.5499478-21.478467 3.1549909-26.4147881.3283326-2.678743.5595282-4.5025418.7087687-5.5891373.0794388-.5783814.1369447-.9591791.1811242-1.1888102.018616-.09676.0370328-.1805226.0618142-.2708642.0297181-.1080537.0297181-.1080537.1165841-.3327948.0711938-.1621558.0711938-.1621558.2724775-.4748938.324652-.4924845.324652-.4924845 2.0020537-1.1377021.07075.012283.1393705.0241963.2059417.0357744.9600012-.5010376 2.1821995-.6321467 4.4091439-.5380375.1960167-.8676147.2333601-1.3062866.4385624-4.5281464.036858-.5787033.0693008-1.0350704.1063824-1.4765358.1764387-2.10054.4449255-3.6249067.963383-4.9215647.8249539-2.0632033 2.3284837-3.4883969 4.6675678-3.7505411 6.2767348-.7034418 14.3345887-1.7869488 24.806559-3.3044047.6461066-.093625 1.3028615-.1891097 1.9719295-.2866856 4.9856124-.7270945 24.1240294-4.5778245 26.8285059-4.9734005 8.1216732-1.1879339 12.5709739-1.7755527 14.5583112-1.883863.065803-.0035919.065803-.0035919.131596-.0072054 1.015917-.0558804 2.044729-.1179321 3.436163-.2058236.384357-.0242783 1.744072-.1108286 1.706494-.1084423.682511-.0433414 1.196417-.0755657 1.696802-.106213 2.738167-.1677054 4.73856-.2648348 6.663997-.3111399 5.536755-.1331542 9.906684.2068699 13.663378 1.2502907 1.308473-2.3479309 3.860005-4.722283 7.626276-7.4002938 3.724321-2.6481815 5.274881-3.5817527 17.285309-10.6037862 1.823201-1.0659554 21.178602-10.7417069 28.537029-14.6904318 11.613059-6.2318722 23.38795-13.9719294 32.319183-20.290538.722305-.51101157 1.434288-1.02205831 2.135835-1.53316243 1.862129-1.35663246 14.989923-.95584834 16.144397-.95483833.698113.00061075 1.248858-.02341631 1.645456-.07022941.122944-.01451197.221178-.03008901.291333-.04449917.942234-.536663 1.600656-1.01763171 3.015635-2.14308357.395049-.31421568.60383-.4788034.850268-.66850229C238.783945 4.32307058 244.3135 2.68589621 254.608152 0z" fill="#000" fill-rule="nonzero"/>
    <path d="M132.130078 217.045516c.833692-.480196 1.699563-.840723 2.643985-.997808 4.858398-.808094 9.592414-1.531204 13.117563-3.028839 2.669983-1.134324 5.2043-2.097145 7.725709-3.018869.306239.202285.606556.415179.900233.638689 2.112761 1.607967 3.614934 3.56229 4.482432 5.637269-2.163999 1.178979-4.388606 2.28962-6.8054 3.316377-5.337087 2.267424-11.611415 4.125774-20.240013 5.407665-1.626299-2.4909-2.250699-5.294478-1.824509-7.954484z" fill="#C4C3C6"/>
    <path d="M29.218816 92.0201518c1.418315-.1981662 2.44101-.1790492 3.3817943-.6587901-.1050193-2.39236-3.1696549 50.0968583-12.2766771 145.1245283 20.7150616-3.779338 53.9728353-12.544034 89.1900668-16.252937 5.363368-.564843 10.171066-1.115233 14.518768-1.734583.368208 1.382192.93468 2.738892 1.696046 4.034006-3.161217.515823-6.56923.97085-10.266601 1.360239C108.290076 224.647949 74.4693379 230.35041 14 241c9.343721-87.741415 14.4166596-137.401364 15.218816-148.9798482zM182.81949 193.14978c26.968001-13.846027 59.961375-24.147163 81.721314-33.30397-13.354326-81.1111084-22.546353-133.5814977-27.809387-148.1038411 1.424762-.1985445 2.452106-.179391 3.397167-.6600476C240.023046 8.68405736 253.023353 58.9241432 270 162.036401c-21.75994 9.156806-54.753314 19.457942-81.721315 33.303969-11.557558 5.933931-19.22203 11.564918-27.625845 16.367177-.585033-1.392918-1.380155-2.739528-2.381654-4.000145 7.271595-4.38318 14.413008-9.353915 24.548304-14.557622z" fill="#FDFDFD"/>
    <path d="M93.731538 216.162848C79.7881993 218.877653 45.372368 227.10223 28.7122344 229c-.1083277-.507245-.1476064-1.145918-.1178361-1.916019 17.4191267-2.201105 51.1150823-10.25134 64.973234-12.955019 5.7887651-1.129369 17.7346407-2.201087 21.5317387-3.347119 1.328356-.400922-4.932385-.964239-3.72946-1.331287-6.25611-.004677-13.1733187.551272-20.1185541 1.903528-13.9433387 2.714805-48.3591699 10.939382-65.0193036 12.837152-.1083277-.507245-.1476064-1.145918-.1178361-1.916019 17.4191267-2.201105 51.1150824-10.25134 64.973234-12.955019 9.6471798-1.882133 27.8262198-1.435873 35.7337348-.910923 2.793094-.600343 1.343204-.851672.497887-1.755939-8.519199-1.937792-22.785622-2.553531-37.1723067.247595-13.9433387 2.714804-48.35917 10.939382-65.0193036 12.837151-.1083278-.507245-.1476065-1.145918-.1178362-1.916019 17.4191267-2.201104 51.1150824-10.25134 64.973234-12.955019 17.5931095-3.432357 35.0071935-1.852571 42.3442425 1.057359-1.438669 2.54763-1.742548 5.480949-.835397 8.198013-9.841005-.408883-21.301439-1.164125-37.760168 2.040432zm51.269923-14.331215l-.749125-.986826c3.018822-4.470953 10.071112-10.409937 15.195157-13.783952 9.240114-6.084313 25.676003-14.056979 34.730577-17.485725 15.563358-5.893465 32.597641-12.721807 51.102848-20.485024.186614-1.218623-.02797-2.858458-.643753-4.919503-.610291-2.042667-7.492714-45.9180137-21.097175-124.6745993.481088-.352469 2.306426-.9671805 2.786559-1.3225343 13.844839 80.1616682 20.940589 123.9843436 21.556371 126.0453886.615782 2.061046.468796 6.75849.282182 7.977114-1.668431.699932-3.317862 1.392923-4.949564 2.078853-16.466132 6.921987-31.126767 13.124989-45.286932 18.487099-9.054573 3.428746-25.878442 10.978747-35.118557 17.063059-4.010661 2.64089-10.865742 6.458889-14.938659 11.538602-1.188044-.2743-1.640152.444138-2.869929.468048zm21.757831-10.384339c9.251277-6.083801 25.318573-14.478426 34.384084-17.906884 15.58216-5.89297 32.939363-12.864189 51.466925-20.626753.186839-1.218522-.028004-2.858218-.64453-4.91909-.611029-2.042495-7.306862-51.157843-20.927758-129.9078057.481669-.3524393 2.399714-1.7314374 2.880427-2.0867613 13.861564 80.1549271 21.755323 132.014174 22.37185 134.075047.616526 2.060872.831369 3.700568.64453 4.919089-18.527562 7.762565-36.842665 15.4172-52.424825 21.31017-9.065511 3.428458-25.521255 11.400454-34.772532 17.484254-4.702928 3.092727-10.255548 7.818728-14.011376 12.390011-.336499-.677302-2.305564-3.024202-2.800853-3.649675 3.49851-4.054429 9.537548-8.256142 13.834058-11.081602z" fill="#C4C3C6"/>
    <path d="M135 204.027169c-3.067084-4.010571-23.789788-7.231064-44.7679272-3.082558C76.2704734 203.70557 41.8095556 212.069915 25.1276159 214c-.2357893-1.121394-.1448368-2.874422.2728575-5.259084.4176943-2.384663 7.3996288-39.228592 14.7868966-126.6817139 14.8308501 3.4874703 46.113903-9.1631286 61.701193-9.512358 15.58729-.3492293 26.972486-1.7413999 30.388673 1.958912L135 204.027169z" fill="#C4C3C6"/>
    <path d="M49.1004812 99.5572424c37.8563095-5.1504951 60.2161208-7.9230235 67.0794348-8.317585 10.294971-.5918424 10.915582-.2380898-1.078031 2.7887472-11.993612 3.026837-45.8064578 5.7714283-56.4466572 6.6901344-7.0934662.61247-10.2783818.225371-9.5547466-1.1612966zM45.1004812 165.557242c37.8563095-5.150495 60.2161208-7.923023 67.0794348-8.317585 10.294971-.591842 10.915582-.238089-1.078031 2.788748-11.9936122 3.026837-45.8064578 5.771428-56.4466572 6.690134-7.0934662.61247-10.2783818.225371-9.5547466-1.161297zM47.1004812 132.557242c37.8563095-5.150495 60.2161208-7.923023 67.0794348-8.317585 10.294971-.591842 10.915582-.238089-1.078031 2.788748-11.993612 3.026837-45.8064578 5.771428-56.4466572 6.690134-7.0934662.61247-10.2783818.225371-9.5547466-1.161297zM49.1004812 116.412967c37.8563095-5.665545 60.2161208-8.715326 67.0794348-9.149344 10.294971-.651026 10.915582-.261899-1.078031 3.067622-11.993612 3.329521-45.8064578 6.348571-56.4466572 7.359148-7.0934662.673717-10.2783818.247908-9.5547466-1.277426zM43.1004812 184.557242c37.8563095-5.150495 60.2161208-7.923023 67.0794348-8.317585 10.294971-.591842 10.915582-.238089-1.078031 2.788748-11.9936122 3.026837-45.8064578 5.771428-56.4466572 6.690134-7.0934662.61247-10.2783818.225371-9.5547466-1.161297zM45.1004812 149.557242c37.8563095-5.150495 60.2161208-7.923023 67.0794348-8.317585 10.294971-.591842 10.915582-.238089-1.078031 2.788748-11.9936122 3.026837-45.8064578 5.771428-56.4466572 6.690134-7.0934662.61247-10.2783818.225371-9.5547466-1.161297z" fill="#000"/>
    <path d="M142.608435 197L139 68.2422041c3.50744-5.5505398 13.822713-12.6601687 30.945819-21.3288867C187.068926 38.2445993 203.65248 27.9401602 219.696484 16c13.785323 80.2628613 20.984559 121.426115 21.597708 123.48976.613149 2.063645.826807 3.70555.640975 4.925715-18.426711 7.773166-35.388734 14.610263-50.886069 20.511291-9.016162 3.433147-25.382342 11.41601-34.583281 17.50808-6.13396 4.06138-10.753087 8.916431-13.857382 14.565154z" fill="#C4C3C6"/>
    <path d="M194.103412 133.992274C188.022305 144.77298 150.354121 166.80555 148.591694 170L143 65.6111138C144.833972 62.739335 180.445928 46.8151707 186.767532 43c8.944657 53.4743791 11.389951 83.805137 7.33588 90.992274z" fill="#FFF"/>
    <path d="M204.253483 151.446578c-.290724-4.900655-2.491862-8.415694-.273995-7.753709 1.12128.334678 5.266287 2.795166 7.505985 4.531784 1.126982.873839 2.087325 1.737677 2.911252 2.604561-.589798-3.067931-.9536-5.627633-1.091405-7.679106-.688002-10.242126-.105557-11.144172 4.440694-.92041 1.770491 3.981537 2.972661 7.467239 3.851697 10.851419.128537-.626059.28127-1.288122.460272-1.991295.633203-2.487415 2.033346-6.744351 2.512361-7.743722.94748-1.976733.873039 1.299498 2.207284 3.772505.658631 1.220765 1.066089 3.428217 1.222372 6.622358L207.465975 161c-1.995269-3.901266-3.0661-7.08574-3.212492-9.553422zM218.575407 35.6932929c.036284 8.3328478.953392 15.4010251-.025763 13.082185-.495028-1.1723286-2.301591-7.5463294-3.269956-11.6694656-.487266-2.0746988-.900204-4.0414463-1.25208-5.9385601.205079 5.4399215.318814 9.9084079.341204 13.4054593.111787 17.4592768-.16593 18.6447572-2.003452-.8970797-.715604-7.6103637-1.186542-14.0824706-1.514918-20.2082694-.069454.9737797-.150417 1.9943575-.243914 3.0691124-.330737 3.8018553-1.038287 10.1349704-1.271613 11.5394234-.461512 2.7779774-.365564-2.6455525-.914933-7.5009612-.271188-2.3968037-.411182-6.3016974-.419982-11.7146809L217.321513 18c.817659 7.5995949 1.235624 13.4973592 1.253894 17.6932929z" fill="#000"/>
    <g fill-rule="nonzero">
      <path d="M83.73260128 190.9597261l-2.45325194.5238533-.39714752-2.18212029c-1.26130208-6.93019863-1.19654948-15.2111912-.09684821-38.78333793 1.65559532-35.48776172 2.1843612-50.49701291 2.35851866-77.87525599l.00489843-.77003718.58860682-.57139828c4.41583353-4.2867319 10.4344714-5.08072 19.3487752-2.79417212l1.6458814.42217459 2.26738125 121.18804216-1.891189.32933814c-2.71585468.4729494-6.14590349-2.08284634-11.82599448-8.10073377-4.12456705 5.30688488-7.09852353 8.09025192-9.54963061 8.61364737z" fill="#000"/>
      <path d="M98.73802647 71.85862708l2.1102871 112.9617003c-.04759368-.0387293-.095678-.07814475-.14424758-.11824555-1.83138224-1.51205034-4.24323013-3.90319953-7.2103506-7.15750531l-2.011606-2.20630796-1.74943744 2.36034123c-2.28260582 3.07968966-4.21913887 5.42502867-5.7925676 7.02356723-.12704498.12907227-.25110432.2524636-.37191687.37016839-.6488828-6.22719034-.4537201-15.16061817.44920912-34.51923228 1.64138464-35.19094942 2.17735344-50.2931356 2.35763197-77.22815076 2.75080167-2.2853901 6.44000984-2.78841649 12.3629979-1.4863353z" fill="#FFF"/>
    </g>
  </g>
</svg>
