<svg xmlns="http://www.w3.org/2000/svg" viewBox="0 0 720 601">
    <g fill="none" fill-rule="evenodd">
        <path d="M586.66 280.39h-6.653v-6.653h6.653v-6.67h-6.653v-6.67h6.653v-6.654h6.67v-6.67h-6.67v6.654h-6.653v-6.653h6.653V240.4h-6.67v6.67h-6.653v6.653h-6.67v-6.653h-6.67v6.653h-6.653v-6.653h6.653v-6.67h-6.67v6.67h-6.653v-6.67H540v6.67h6.67v6.653H540v6.67h6.67v6.67H540v6.67h6.67v6.67h6.653v6.654h6.67v-6.654h6.67v6.654h6.67v-6.654h6.654v6.654h6.67v-6.654h6.67v-6.67h-6.67v6.657h.003zm-39.99.016v6.654H540v-6.67h6.67v.016zm19.993-33.336v-6.67h6.67v6.67h-6.67zm19.997 13.324v6.67h6.67v-6.67h-6.67zm-33.337-6.654h-6.653v6.654h6.653v-6.654zm.017 33.32v6.67h6.653v-6.67h6.67v6.67h6.67v-6.67h6.67v6.67h6.654v-6.67h6.67v6.67h-6.67v6.67h-6.67v-6.67h-6.653v6.67h-6.67v-6.67h-6.67v6.67h-6.67v-6.67h-6.654v6.67H540v-6.67h6.67v-6.67h6.67zm26.647-13.323v-6.67h-6.653v6.67h6.653zm-13.324 0v6.653h6.67v-6.653h-6.67zm-6.67 0h6.67v-6.67h-6.67v6.67zm0 0h-6.653v6.653h6.653v-6.653zm0-13.343h-6.653v6.67h6.653v-6.67zm6.67 0v-6.654h-6.67v6.654h6.67zm6.674 0h-6.67v6.67h6.67v-6.67zm0 0h6.653v-6.654h-6.653v6.654zm-20.014 6.67v6.67h-6.653v-6.67h6.653zM600 247.07h-6.67v-6.67H600v6.67zm-6.67 13.324H600v-6.67h-6.67v6.67zm6.67 13.343h-6.67v-6.67H600v6.67zm-6.67 13.323H600v-6.67h-6.67v6.67zm0 13.34H600v-6.67h-6.67v6.67zM166.66 40.39h-6.653v-6.653h6.653v-6.67h-6.653v-6.67h6.653v-6.654h6.67v-6.67h-6.67v6.654h-6.653V7.074h6.653V.4h-6.67v6.67h-6.653v6.653h-6.67V7.07h-6.67v6.653h-6.653V7.07h6.653V.4h-6.67v6.67h-6.653V.4H120v6.67h6.67v6.653H120v6.67h6.67v6.67H120v6.67h6.67v6.67h6.653v6.654h6.67v-6.654h6.67v6.654h6.67v-6.654h6.654v6.654h6.67v-6.654h6.67v-6.67h-6.67v6.657h.003zm-39.99.016v6.654H120v-6.67h6.67v.016zM146.663 7.07V.4h6.67v6.67h-6.67zm19.997 13.324v6.67h6.67v-6.67h-6.67zm-33.337-6.654h-6.653v6.654h6.653V13.74zm.017 33.32v6.67h6.653v-6.67h6.67v6.67h6.67v-6.67h6.67v6.67h6.654v-6.67h6.67v6.67h-6.67v6.67h-6.67v-6.67h-6.653v6.67h-6.67v-6.67h-6.67v6.67h-6.67v-6.67h-6.654v6.67H120v-6.67h6.67v-6.67h6.67zm26.647-13.323v-6.67h-6.653v6.67h6.653zm-13.324 0v6.653h6.67v-6.653h-6.67zm-6.67 0h6.67v-6.67h-6.67v6.67zm0 0h-6.653v6.653h6.653v-6.653zm0-13.343h-6.653v6.67h6.653v-6.67zm6.67 0V13.74h-6.67v6.654h6.67zm6.674 0h-6.67v6.67h6.67v-6.67zm0 0h6.653V13.74h-6.653v6.654zm-20.014 6.67v6.67h-6.653v-6.67h6.653zM180 7.07h-6.67V.4H180v6.67zm-6.67 13.324H180v-6.67h-6.67v6.67zM180 33.737h-6.67v-6.67H180v6.67zm-6.67 13.323H180v-6.67h-6.67v6.67zm0 13.34H180v-6.67h-6.67v6.67zM353.33 300.4H360v60h-6.67v-60zm-6.663 0H340v60h6.667v-60zm-13.333 0h-6.667v60h6.667v-60zm-20 0H320v60h-6.667v-60zm-6.667 0H300v60h6.667v-60z" fill="#4038FF"/>
        <path d="M364.7 480H360v4.7l55.3 55.3h4.7v-4.7L364.7 480zm41.166 60h-9.433L360 503.567v-9.434L405.866 540zM387 540h-9.433L360 522.433V513l27 27zm-27 0v-8.133l8.133 8.133H360zm60-23.567v9.434L374.133 480h9.434L420 516.433zm0-18.866V507l-27-27h9.433L420 497.567zm0-9.434L411.866 480H420v8.133z" fill="#F2F5F9" fill-rule="nonzero"/>
        <path d="M300 533.73v6.67h-60v-6.67h60zm0-6.663V520.4h-60v6.667h60zm0-13.334v-6.666h-60v6.666h60zm0-20v6.667h-60v-6.667h60zm0-6.666V480.4h-60v6.667h60zM540 353.73v6.67h-60v-6.67h60zm0-6.663V340.4h-60v6.667h60zm0-13.334v-6.666h-60v6.666h60zm0-20v6.667h-60v-6.667h60zm0-6.666V300.4h-60v6.667h60zM300 367.07v-6.67h-60v6.67h60zm0 20.003v6.67h-60v-6.67h60zm0 20.004v-6.67h-60v6.67h60zm0 13.323v-6.67h-60v6.67h60zm0-46.66v6.67h-60v-6.67h60zM712.733 420.4h6.667c0-33.137-26.863-60-60-60v6.667c29.457 0 53.333 23.876 53.333 53.333zm-13.333 0h6.667c0-25.773-20.894-46.667-46.667-46.667v6.667c22.09 0 40 17.91 40 40zm-6.666 0h-6.667c0-14.726-11.94-26.667-26.667-26.667v-6.666c18.41 0 33.334 14.923 33.334 33.333zm-20 0h6.666c0-11.046-8.953-20-20-20v6.667c7.363 0 13.333 5.97 13.333 13.333zm-13.334 0h6.667a6.665 6.665 0 00-6.667-6.667v6.667zM186.667 180.4H180c0 33.137 26.863 60 60 60v-6.667c-29.457 0-53.333-23.876-53.333-53.333zm13.333 0h-6.667c0 25.773 20.894 46.667 46.667 46.667V220.4c-22.09 0-40-17.91-40-40zm6.667 0h6.667c0 14.727 11.94 26.667 26.666 26.667v6.666c-18.41 0-33.333-14.923-33.333-33.333zm20 0H220c0 11.047 8.953 20 20 20v-6.667c-7.363 0-13.333-5.97-13.333-13.333zm13.333 0h-6.667a6.665 6.665 0 006.667 6.667V180.4z" fill="#1F242C"/>
        <path d="M180 240.4v60h-60c0-33.137 26.863-60 60-60zM480.6 60.4v60h-60c0-33.137 26.863-60 60-60z" fill="#1F242C" fill-rule="nonzero"/>
        <path d="M186.67 60.4H180v60h6.67v-60zm20.003 0h6.67v60h-6.67v-60zm20.004 0h-6.67v60h6.67v-60zm13.323 0h-6.67v60H240v-60zm-46.66 0h6.67v60h-6.67v-60zM6.67 180.4H0v60h6.67v-60zm20.003 0h6.67v60h-6.67v-60zm20.004 0h-6.67v60h6.67v-60zm13.323 0h-6.67v60H60v-60zm-46.66 0h6.67v60h-6.67v-60z" fill="#1F242C"/>
        <path d="M487.27 540.4h-6.67v60h6.67v-60zm20.003 0h6.67v60h-6.67v-60zm20.004 0h-6.67v60h6.67v-60zm13.323 0h-6.67v60h6.67v-60zm-46.66 0h6.67v60h-6.67v-60z" fill="#4038FF"/>
        <g>
            <path d="M315.587 129.025c-1.73-1.678-6.6-2.903-10.641-1.967-4.007.928-8.084 3.102-10.116 6.444-1.916 2.1-2.074 4.474-.468 6.773-.4 2.284-.588 4.173-.473 6.387-.536 1.888.905 3.11 1.967 4.199 1.206 1.22 1.177 2.24.578 3.535-1.127 1.3-2.204.277-3.356 1.46l-1.004.6c-2.007.522-4.929.3-6.992.652-5.46.949-6.165 7.13-9.189 10.59-2.385 2.717.324 6.904.804 9.898a28.863 28.863 0 01-.286 10.786c-.648 2.898-1.753 5.76-1.672 8.717.055 3.13 1.462 6.146 1.335 9.268-.237 5.899-7.905 13.04-3.817 18.82.541.772 1.303 1.429 1.606 2.31.216.87.198 1.776-.054 2.638-1.082 5.166-2.393 10.347-2.659 15.61-.269 5.4 1.647 10.838.703 16.196-.042.26-.096.528-.145.789-.883 4.503-2.464 8.935-2.706 13.555-.22 3.915 11.29 14.5 26.951 20.097 15.66 5.597 33.081 1.484 33.686 1.573 10.704 1.591 3.81-39.437 9.412-72.636 4.154-24.627 2.358-48.9-3.216-58.597-1.117-3.868-4.99-5.524-8.722-7.003-3.852-1.503-5.693-3.291-9.248-5.346-.082-1.683-2.372.2-1.985-1.468l.138-.141c1.581-.094 1.518-1.34 1.847-2.315-.655-1.928 2.355-6.499 2.618-8.27.689-4.172-1.7-10.213-4.896-13.154z" fill="#000"/>
            <path d="M437.94 162.55c-1.7 11.139-2.897 17.604-2.204 28.812.512 7.544.672 2.182 1.392.758.172-.278.325-.563.46-.856-.002-.066-.003-.124.055-.191 2.416-9.964 4.573-15.21 5.988-25.332.224-2.48.246-4.97.064-7.451l-.793-.338c.033 1.36-4.775 3.22-4.963 4.598z" fill="#FFF" fill-rule="nonzero"/>
            <path d="M305.467 194.755c.194 6.322-1.324 11.918-3.645 17.766-5.533-12.966-9.924-26.324-12.249-40.21a140.125 140.125 0 01-1.106-7.873c-.14-1.192.052-2.82 1.305-3.01a167.083 167.083 0 009.247 36.202c.083.283.233.544.439.764.717.664 1.363-.023 1.123-.775-3.246-10.12-5.33-20.468-7.402-30.906a45.298 45.298 0 01-.508-6.847c2.228-1.206 5.636-3.047 7.318-1.977.529 5.629 2.398 11.234 2.91 16.953a14.18 14.18 0 00.57 3.463c.169.482.377.951.622 1.404.4 5.033 1.216 10.014 1.376 15.046zM321.043 196.364c-3.758-1.854-6.165-5.481-9.132-8.404-1.106-1.087-2.91-.936-1.406.643 1.046 1.094 2.168 2.135 3.273 3.17 2.143 2.021 4.332 3.983 6.492 5.986.251.2.457.448.603.73.14.393.178.813.11 1.224-.267 3.27-.24 6.554.077 9.819.172 1.716.416 3.552-.217 5.162.164-.427-2.516-3.452-2.868-3.962a170.562 170.562 0 01-4.847-7.15c-1.682-2.665-4.343-5.278-4.836-8.474-.253-1.687.1-3.441.011-5.113a35.275 35.275 0 00-.647-5.274 14.217 14.217 0 01-.439-3.18.83.83 0 01.144-.53c.307-.384.931-.125 1.343.149a50.879 50.879 0 0010.954 5.54c.748.274 1.58.604 1.865 1.321.113.351.148.722.101 1.088a95.318 95.318 0 01-.581 7.255z" fill="#C4C3C6" fill-rule="nonzero"/>
            <path d="M282.504 169.784c-.205 9.122 1.73 18.727 4.004 27.54 2.358 9.253 5.915 17.96 9.954 26.653 5.345 11.506 12.358 22.352 20.192 32.508 1.022 1.322 2.943 3.416 4.91 2.412-.273.138-7.75-10.672-8.424-11.674-2.807-4.006-5.52-8.074-8.018-12.263a144.484 144.484 0 01-12.273-25.876 198.588 198.588 0 01-1.805-5.542 116.59 116.59 0 01-1.456-5.353c-2.295-9.377-3.32-18.981-3.84-28.589-.112-2.053.316-4.764 2.465-5.111-1.598 17.444 6.902 34.097 14.573 50.022 5.625 11.772 10.983 23.71 17.698 34.977.829 1.387 1.71 2.806 3.066 3.763-2.186-4.155-4.367-8.305-6.594-12.443a452.38 452.38 0 01-6.623-12.769 293.873 293.873 0 01-6.644-14.286c.306.033.617-.016.895-.144.34.26 1.473.252 1.62-.089a47.533 47.533 0 003.482-11.782 251.152 251.152 0 006.032 9.195 198.426 198.426 0 003.293 4.635c.728.995 2.614 2.724 2.875 3.894 2.443 10.105 4.688 20.287 5.61 30.696.57 6.465.283 12.918.267 19.383a84.361 84.361 0 01-.377 7.646 199.474 199.474 0 01-7.911-8.808c-9.31-10.956-17.832-22.873-26.251-45 .88 4.268 7.197 22.709 13.097 32.269 6.124 9.922 13.387 17.825 16.462 21.276a14.77 14.77 0 012.405 3.226c1.651 3.411 1.313 5.55.024 9.112-11.145-8.065-19.71-19.044-25.82-30.958-6.109-11.914-9.916-24.81-12.509-37.81a230.195 230.195 0 01-4.379-50.71z" fill="#C4C3C6" fill-rule="nonzero"/>
            <path d="M287.52 172.348c.482 8.822 1.435 17.645 3.571 26.25a73.924 73.924 0 001.356 4.915 113.404 113.404 0 001.68 5.088 131.735 131.735 0 0011.43 23.757c2.327 3.846 4.854 7.58 7.468 11.258 1.459 2.05 3.168 3.44 3.852 5.92.788 2.875 1.67 5.383 3.47 7.88-1.93-2.678-7.474-10.262-7.816-10.74-2.614-3.677-5.141-7.412-7.468-11.257a131.735 131.735 0 01-11.429-23.758 180.377 180.377 0 01-1.681-5.088 105.78 105.78 0 01-1.355-4.915c-2.137-8.61-3.09-17.428-3.572-26.25a7.007 7.007 0 01.49-3.233l.004.173zM298.996 165.921a152.686 152.686 0 013.264 29.864c.036 6.765-.422 2.007-1.1.753a6.814 6.814 0 01-.43-.743c0-.054-.037-.108-.06-.163-2.586-8.758-4.411-17.628-6.185-26.58a43.665 43.665 0 01-.497-6.654l.633-.34c.057 1.238 4.137 2.635 4.375 3.863z" fill="#FFF" fill-rule="nonzero"/>
            <path d="M281.97 173.628a.547.547 0 01.041-.269l.019 1.074c-.458 6.492.153 13.046.872 19.533 1.893 17.103 4.41 34.302 10.477 50.521 6.066 16.22 15.98 31.554 30.524 41.996.823 1.168 1.478 1.124.822 3.848-14.543-10.44-25.772-26.388-31.861-42.612-6.09-16.224-8.584-33.418-10.477-50.537-.868-7.828-1.618-15.765-.417-23.554zM297.663 139.108c.144-.372.325-.729.54-1.064.661-1.138 1.181-2.393 2.175-3.318.193-.204.426-.365.684-.474.233-.083.484-.093.717-.181.339-.195.655-.428.943-.693.3-.272.745-.3 1.076-.07.167-.379.465-.683.84-.854a4.75 4.75 0 011.25.04c.447-.008.879-.528 1.292.096.065.146.156.278.27.39.14.074.295.114.453.116.918.142 1.523 1.18 2.445 1.265.208-.01.416.015.616.074.894.378 1.343 1.808 1.625 2.626.59 1.776 2.436 4.883.903 6.606-.23.258-.55.477-.611.811-.061.334.01.563-.097.83s-.396.385-.549.573a2.798 2.798 0 00-.308 1.178c-.191.91-.984 1.544-1.546 2.281-.453.6-.765 1.299-1.178 1.931-1.968 3.016-7.397 2.237-9.408-.399a3.04 3.04 0 01-.732-2.614.788.788 0 01-.176-.476c-.002-.11.007-.219.028-.327l-.002-.101a1.042 1.042 0 00-.087-.202.838.838 0 01.27-1.132.83.83 0 01.888.03c.616.429 3.605-.395 4.375-.448a36.721 36.721 0 015.454.012c.495-.79.916-1.623 1.258-2.49.08-.166.11-.35.085-.532-.084-.326-.454-.449-.72-.647-.978-.721-.534-2.15-1.722-2.692-.563-.26-1.228-.305-1.812-.532-.737-.314-1.435-.967-2.214-.784-.667.158-1.19.911-1.862.77-.246-.051-.49-.222-.722-.133-.233.088-.298.53-.472.797-.256.399-.853.426-1.159.792-.306.366-.215.782-.399 1.134a1.24 1.24 0 01-1.752.38 1.97 1.97 0 01-.757-1.784c0-.265.034-.529.098-.785zm8.047 8.687c-1.293-.102-2.986-.6-4.18.26-.124.093-.24.194-.347.304a.743.743 0 01-.085.241c.618.264 1.25.495 1.895.691 1.873.469 3.853-.272 4.88-1.826a9.423 9.423 0 01-2.163.33zM328.785 214.464c1.442 2.053 1.174 6.572 1.356 9.018.067 1.104.88 5.791-.347 6.522-.706.42-2.399-5.54-2.528-5.99-.43-1.477-1.091-3.013-.823-4.467.3-1.68 1.077-3.955 2.342-5.083zM276.677 216.914c.339-1.053.525-2.223 1.391-3.02.98-.94 2.228-1.683 3.642-2.17.074-.093.148-.186.222-.268.08.047.153.102.216.164a.115.115 0 01.001.048c.792.807.738 2.86.86 3.932.078.538.734 2.654-.126 3.403-.495.43-1.804-2.058-1.91-2.245-.185-.353-.425-.689-.57-1.07-.482.71-.966 1.372-1.3 1.902-.449.699-1.948 3.85-3.227 3.873-.702.007.696-4.229.8-4.549zM307.137 157.473a1.398 1.398 0 01-.053-.747c.098-.245.257-.46.462-.627l1.683-1.622c-.3 3.407 1.736 5.719 4.897 6.537 3.277.85 6.686 1.822 9.076 4.128 2 1.904 5.176 3.603 5.792 6.235.32 1.464 2.569 9.108 2.782 15.69.324 9.967-1.484 19.882-1.648 21.097-.238 1.75-1.554 3.577-2.994.132-1.136-2.702-.465-3.24-.392-5.97.098-3.51.094-7.026-.07-10.533-.342-7.155-.328-17.123-6.223-22.305.513 1.716.794 3.492.834 5.281.077 2.482-.021 5.007-.182 7.522-.003.348-.11.687-.308.975a1.36 1.36 0 01-1.087.49 4.62 4.62 0 01-2.36-.611c-.725-.407-1.21-1.357-1.745-2a53.312 53.312 0 01-3.418-4.403c-1.849-2.683-7.457-10.075-3.592-13.035a3.009 3.009 0 001.077-1.34c.542-1.62-1.96-2.891-2.531-4.894z" fill="#FFF" fill-rule="nonzero"/>
            <g fill-rule="nonzero">
                <path d="M413.936 196.674c.26-3.466-.084-6.677.961-9.986a35.69 35.69 0 001.648-12.58c-.171-3.559-1.788-7.605 1.166-10.51 3.75-3.687 7.04-8.547 13.182-9.017 2.345-.18 2.718-1.682 5.027-2.066l1.174-.583c1.436-1.253 3.524.185 4.92-1.218.855-1.439 2.869-2.629 1.682-4.198-1.048-1.375-2.498-2.981-1.685-5.121.135-2.571-1.42-4.983-.706-7.61a6.149 6.149 0 011.29-7.854c3.405-4.652 15.602-6.716 19.012-2.437 3.186 3.796 5.282 10.8 4.03 15.59-.504 2.04-2.95 2.952-2.458 5.308-.478 1.1-.555 2.573-2.317 2.488l-.164.154c-.631 1.94-.284 3.939-.387 5.906 3.68 2.825 7.579 4.4 11.66 6.609 4.17 2.269 8.49 4.787 8.919 9.958.596 7.185-.25 16.914-.258 24.191l-3.713 22.758c-.013 5.436-63.26-16.123-62.983-19.782z" fill="#000"/>
                <path d="M432.984 170.7a207.194 207.194 0 01-.267-8.927c-.002-1.36.371-3.147 1.676-3.238a203.945 203.945 0 003.835 34.335l-2.742-.144c-1.246-7.26-2.113-14.598-2.502-22.026zm4.303-5.878a56.604 56.604 0 01.236-7.725c2.416-1.118 6.104-2.823 7.706-1.44-.094 6.402 1.199 12.848 1.08 19.318a17.583 17.583 0 00.197 3.943c.123.56.283 1.112.48 1.65-.108 4.26.024 8.515-.071 12.757-1.733.473-2.922.692-3.568.658-.848-.044-1.9-.38-3.155-1.01-1.38-9.334-2.154-18.707-2.905-28.151zM452.217 187.15c-1.055.56-.658 9.83-1.586 10.425a.85.85 0 00-.367.442c-.133.504.469.933.959 1.162a58.09 58.09 0 0111.495 6.982c.484.367 1.04.785 1.604.938-2.053-4.463-3.707-7.743-4.961-9.837-.406-.677-2.787-4.047-7.144-10.112z" fill="#D8D8D8"/>
                <path d="M428.918 194.515l-1.266-.066c-.864-9.444-.785-18.982-.319-28.475a9.681 9.681 0 01.894-3.831l-.012.242c-.559 10.656-.559 21.378.683 31.96l.02.17zm8.51.447l-1.611-.085a199.6 199.6 0 01-2.95-25.027 205.142 205.142 0 01-.248-8.7c-.03-1.03.192-2.32.855-2.878.023 2.643.096 5.288.225 7.922.49 9.734 1.81 19.317 3.73 28.768zm-14.432-.757l-.903-.047v-1.287c-.027-9.017.104-18.143 2.187-26.895a.61.61 0 01.072-.305l-.064 1.217c-1.219 7.356-1.343 14.887-1.31 22.353 0 1.654.006 3.309.018 4.964zM289.304 276.72c-1.623-10.542-2.807-16.67-1.686-27.175.808-7.068.836-2.021 1.62-.652.189.269.356.544.501.825-.003.062-.006.117.059.182 2.48 9.47 4.8 14.496 6.127 24.07a35.2 35.2 0 01-.143 7.006l-.92.283c.077-1.276-5.383-3.235-5.558-4.538zM461.573 139.505c.15-.645.273-1.167.295-1.306.2-1.49.253-2.996.155-4.494-.169-2.342-.864-4.804-2.86-5.959a.928.928 0 00-.843-.044c-1.837-3.207-7.97-2.196-10.538.18-.862.69-1.391 1.752-1.442 2.896a1.037 1.037 0 00-.304.512c-.033.129-.053.26-.057.394-.004.077-.052.16-.007.124-.04.078-.087.151-.142.218a1.075 1.075 0 000 1.384c.247.266.622.34.945.19.95-.433 2.686.801 3.51 1.195 1.7.787 4.367.027 6.216.199.35.011.696.095 1.015.247.856.512.844 1.849.962 2.936.2 1.776 1.048 3.393 2.36 4.501 0 0 .418-1.852.735-3.173z" fill="#FFF"/>
                <path d="M448.335 142.425c.184-.34.659-1.849 1.582-1.988.545-.083.36 1.878.331 2.014.083.504 1.103 1.103.752 1.549-.634.597-.947-.321-2 0s-1.08-.81-.665-1.575z" fill="#C4C3C6"/>
                <path d="M472.94 194.311l-1.964-.103c.415-7.743 1.472-18.378-4.185-24.559.356 1.908.46 3.855.308 5.79-.192 2.689-.575 5.412-1.014 8.103-.043.376-.194.73-.433 1.022-.321.318-.77.468-1.216.407a4.843 4.843 0 01-2.444-.923c-.7-.522-1.132-1.604-1.647-2.359a57.593 57.593 0 01-3.156-5.115c-1.673-3.11-6.825-11.713-2.396-14.474a3.293 3.293 0 001.358-1.319c.76-1.688-1.777-3.336-2.164-5.556a1.482 1.482 0 01.043-.814c.126-.255.319-.472.557-.625l1.999-1.572c-.687 3.641 1.225 6.367 4.498 7.59 3.387 1.273 6.912 2.694 9.187 5.446 1.885 2.268 2.721 5.217 3.043 8.117.45 4.069-.005 8.149-.333 12.199-.242 2.971-.144 5.842-.04 8.745z" fill="#FFF"/>
            </g>
            <path d="M363.776 195.484l-9.504 7.128-41.184 78.408-8.712 3.96-68.112-14.256-167.112 75.24 3.96 1.584-22.803 12.216c-.638 38.848-.902 65.776-.792 80.784 146.238 38.81 298.873 54.411 419.76 26.136 73.7-17.238 112.038-44.583 126.72-82.368 9.4-24.193 5.083-57.302 7.319-75.964 5.405-45.178-50.69-95.992-237.852-131.493-.07 7.137-.632 13.345-1.688 18.625z" fill="#000"/>
            <path d="M508.448 326.617l-1.9.167c-3.636 7.702-9.611 15.58-16.777 22.114l-.108.098.172-.141c8.432-6.937 14.678-14.394 18.613-22.238zm2.716-26.348l-2.597 1.752c2.048 5.86 2.323 11.857.58 17.95-.163.571-.342 1.145-.536 1.721l2.05-.179a45.979 45.979 0 001.037-3.181c1.75-6.117 1.492-12.152-.534-18.063zm-24.872-29.12l-2.214 2.46c9.992 7.18 17.473 14.731 21.835 22.558l2.639-1.778c-4.4-8.053-12.03-15.84-22.26-23.24zm-37.303-20.681l-1.714 2.854c11.93 5.256 22.555 10.834 31.525 16.679l2.229-2.477c-9.107-5.981-19.904-11.688-32.04-17.056zm-44.532-16.42l-.628 3.232c13.425 4.19 26.042 8.712 37.569 13.522l1.719-2.861c-11.843-4.961-24.828-9.61-38.66-13.894zm-47.592-12.564l-.774 3.038c14.43 3.285 28.397 6.93 41.646 10.896l.626-3.218c-13.205-3.917-27.12-7.504-41.498-10.716zM496.007 334.833l-1.8.16c-3.57 7.084-9.092 14.244-15.637 20.243l-.105.096.168-.138c7.706-6.373 13.531-13.196 17.374-20.36zm3.87-25.848l-2.521 1.673c1.54 5.34 1.606 10.805.02 16.372a40.308 40.308 0 01-1.04 3.136l1.943-.172a45.517 45.517 0 001.57-4.564c1.59-5.577 1.542-11.069.028-16.445zm-23.503-29.297l-2.217 2.35c9.97 7.35 17.221 15.115 21.114 23.201l2.558-1.699c-3.908-8.3-11.278-16.29-21.455-23.852zm-35.34-19.976l-1.633 2.798c11.458 5.12 21.597 10.554 30.1 16.257l2.233-2.367c-8.657-5.86-18.997-11.441-30.7-16.688zm-41.85-15.616l-.609 3.154c12.814 4.045 24.795 8.399 35.695 13.026l1.639-2.803c-11.198-4.77-23.525-9.244-36.726-13.377zm-46.3-12.316l-.753 2.962c14.198 3.251 27.857 6.844 40.739 10.745l.607-3.14c-12.842-3.854-26.447-7.39-40.594-10.567zM487.029 337.737l-1.91.17c-3.255 8.394-9.6 17.266-17.416 24.458l-.104.095.165-.137c9.169-7.612 15.649-15.87 19.265-24.586zm.963-23.837l-2.518 1.655c2.186 5.806 2.629 11.77 1.095 17.858l2.061-.182c.048-.161.095-.322.14-.484 1.823-6.41 1.476-12.709-.778-18.847zm-22.535-26.677l-2.2 2.332c9.106 6.726 15.93 13.803 19.975 21.157l2.557-1.684c-4.07-7.57-11.017-14.87-20.332-21.805zm-33.215-19.024l-1.602 2.785c10.729 4.898 20.247 10.082 28.28 15.51l2.215-2.348c-8.19-5.586-17.915-10.918-28.893-15.947zm-38.446-14.788l-.605 3.145c11.731 3.849 22.706 7.967 32.723 12.322l1.605-2.79c-10.306-4.496-21.618-8.735-33.723-12.677zm-45.362-12.549l-.843 2.942c14.065 3.344 27.557 7.032 40.233 11.026l.606-3.131c-12.61-3.942-26.017-7.568-39.996-10.837zM462.211 349.663l-1.712.125c-3.109 7.356-8.728 15.024-15.573 21.297l-.096.087.152-.125c8.031-6.641 13.82-13.818 17.23-21.384zm2.369-19.798l-2.31 1.444c1.18 4.605 1.155 9.31-.213 14.098l-.124.423 1.834-.132c.195-.58.376-1.163.543-1.747 1.363-4.771 1.41-9.474.27-14.086zm-18.204-24.916l-2.048 2.097c7.723 6.222 13.304 12.754 16.291 19.527l2.352-1.47c-2.992-6.981-8.679-13.727-16.595-20.154zm-28.583-17.567l-1.49 2.535c9.229 4.482 17.348 9.208 24.121 14.142l2.063-2.111c-6.918-5.085-15.23-9.955-24.694-14.566zm-33.103-13.536l-.605 2.883c10.046 3.504 19.407 7.23 27.918 11.153l1.495-2.54c-8.768-4.054-18.428-7.897-28.808-11.496zm-46.28-13.339l-.777 2.707c14.764 3.579 28.807 7.57 41.792 11.922l.603-2.874c-12.943-4.31-26.921-8.247-41.619-11.755zM434.481 364.773c-2.94 5.024-6.98 9.982-11.638 14.239l-.088.08.14-.115c5.423-4.472 9.734-9.21 12.88-14.16l-1.294-.044zm7.139-18.1l-2.095.99c.111 2.583-.198 5.199-.955 7.841-.557 1.944-1.338 3.94-2.311 5.95l1.431.048a39.248 39.248 0 002.948-7.33 24.895 24.895 0 00.982-7.5zm-13.1-24.422l-2.071 1.717c6.665 6.19 11 12.688 12.506 19.418l2.175-1.026c-1.412-6.956-5.79-13.69-12.61-20.109zm-24.55-16.804l-1.674 2.15c8.21 4.323 15.29 8.872 21.007 13.614l2.094-1.735c-5.81-4.887-13.033-9.578-21.427-14.029zm-28.995-12.789l-.825 2.555c8.806 3.286 16.954 6.765 24.296 10.416l1.683-2.161c-7.582-3.799-16.02-7.411-25.154-10.81zm-45.963-13.919l-.715 2.492c14.926 3.725 28.997 7.911 41.786 12.494l.824-2.55c-12.829-4.582-26.93-8.752-41.895-12.436zM473.837 345.925l-1.758.158c-3.373 7.058-8.865 14.262-15.44 20.246l-.1.09.16-.13c7.74-6.355 13.491-13.183 17.138-20.364zm3.43-22.24l-2.402 1.58c1.156 4.678 1.105 9.455-.283 14.313a37.048 37.048 0 01-.697 2.173l1.884-.17a42.587 42.587 0 001.177-3.52c1.39-4.867 1.456-9.667.322-14.376zm-19.93-26.791l-2.1 2.226c8.513 6.679 14.638 13.702 17.856 20.992l2.435-1.602c-3.234-7.496-9.477-14.734-18.19-21.616zm-31.539-18.793l-1.53 2.659c10.234 4.805 19.234 9.885 26.726 15.198l2.113-2.24c-7.64-5.463-16.838-10.686-27.309-15.617zm-36.167-14.274l-.573 3.016c10.965 3.687 21.197 7.619 30.51 11.767l1.531-2.664c-9.59-4.285-20.144-8.337-31.468-12.119zm-46.625-13.07l-.808 2.815c14.703 3.5 28.741 7.384 41.816 11.608l.572-3.003c-13.012-4.173-26.965-7.996-41.58-11.42zM450.236 357.263l-1.57.059c-1.725 3.569-4.03 7.174-6.759 10.61-2.212 2.783 1.379-2.244-1.307.208-.252 1.781.4 1.804 1.958.07 3.17-3.53 5.735-7.186 7.678-10.947zm3.654-19.38l-2.243 1.275c.749 3.904.59 7.881-.561 11.918-.243.85-.526 1.709-.848 2.574l1.685-.062c.52-1.295.969-2.6 1.345-3.916 1.137-3.984 1.317-7.919.622-11.79zm-16.06-24.153l-2.048 1.954c7.139 6.067 12.154 12.426 14.607 19.014l2.296-1.31c-2.43-6.8-7.534-13.38-14.856-19.658zm-26.987-17.258l-1.504 2.409c8.84 4.427 16.555 9.09 22.907 13.954l2.063-1.97c-6.488-5.02-14.391-9.832-23.466-14.393zm-30.982-13.058l-.68 2.753c9.472 3.404 18.274 7.014 26.248 10.806l1.508-2.414c-8.212-3.922-17.292-7.647-27.076-11.145zm-45.828-13.534l-.752 2.621c14.745 3.64 28.714 7.701 41.544 12.132l.677-2.747c-12.818-4.403-26.756-8.425-41.47-12.006z" fill="#C4C3C6"/>
            <path stroke="#FFF" stroke-width="2.376" stroke-linecap="square" d="M357.298 220.094l.097 6.349-3.89 4.015.083 3.973-4.683 4.82.083 3.96-5.446 5.64.069 3.959-5.433 6.418.07 3.96-3.877 4.82.083 4.75-4.669 4.835.056 3.168-11.209 7.387"/>
            <g>
                <path d="M510.044 325.082l-1.905.168c-3.666 7.682-9.634 15.524-16.778 22.038l-.109.099.173-.142c8.408-6.917 14.656-14.348 18.62-22.163zm2.913-26.497l-2.612 1.765c1.992 5.825 2.24 11.784.508 17.838-.182.638-.384 1.28-.605 1.926l2.055-.18c.418-1.125.79-2.257 1.117-3.396 1.738-6.077 1.506-12.076-.463-17.953zm-24.934-29.397l-2.224 2.477c10.05 7.246 17.558 14.867 21.906 22.766l2.65-1.792c-4.385-8.126-12.042-15.983-22.332-23.45zm-37.517-20.846l-1.722 2.872c12.005 5.298 22.69 10.92 31.706 16.81l2.24-2.491c-9.153-6.029-20.012-11.78-32.224-17.19zm-44.79-16.54l-.629 3.254c13.503 4.219 26.192 8.773 37.782 13.618l1.727-2.88c-11.907-4.996-24.966-9.678-38.88-13.992zm-48.055-12.694l-.778 3.056c14.58 3.32 28.692 7.006 42.073 11.016l.63-3.238c-13.337-3.962-27.395-7.588-41.925-10.834z" fill="#FFF"/>
                <path d="M577.598 316.58l-2.466.303c-4.338 10.27-11.796 20.908-20.899 29.814l-.135.132.216-.19c10.743-9.492 18.559-19.573 23.284-30.06zm1.974-34.339l-3.291 2.384c3.073 7.645 3.767 15.559 1.745 23.7a50.814 50.814 0 01-.51 1.89l2.658-.326a59.555 59.555 0 001.082-3.806c2.03-8.167 1.358-16.13-1.684-23.842zM545.804 245.8l-2.763 3.287c13.295 8.816 23.383 18.225 29.477 28.13l3.344-2.42c-6.152-10.199-16.443-19.905-30.058-28.997zm-49.349-25.046l-2.096 3.775c15.71 6.256 29.75 12.988 41.671 20.14l2.784-3.308c-12.105-7.324-26.376-14.216-42.359-20.607zm-58.528-19.233l-.673 4.215c17.606 4.814 34.186 10.096 49.37 15.802l2.104-3.786c-15.6-5.886-32.662-11.316-50.801-16.231zm-61.635-13.973l-.865 3.973c18.625 3.565 36.681 7.606 53.845 12.084l.666-4.198c-17.105-4.418-35.09-8.386-53.646-11.859z" fill="#C4C3C6"/>
                <path d="M497.746 332.935l-1.814.162c-3.591 7.14-9.16 14.358-15.763 20.403l-.106.096.168-.138c7.776-6.423 13.648-13.3 17.515-20.523zm3.845-25.989l-2.536 1.687c1.568 5.386 1.64 10.9.037 16.515a40.401 40.401 0 01-1.02 3.082l1.958-.173a45.69 45.69 0 001.552-4.516c1.606-5.628 1.551-11.17.01-16.595zm-23.71-29.44l-2.228 2.365c10.044 7.383 17.354 15.184 21.289 23.308l2.573-1.712c-3.951-8.339-11.382-16.366-21.634-23.962zm-35.563-20.057l-1.641 2.814c11.523 5.139 21.723 10.594 30.28 16.318l2.245-2.382c-8.713-5.88-19.115-11.483-30.884-16.75zm-42.046-15.665l-.61 3.171c12.866 4.056 24.896 8.422 35.846 13.062l1.646-2.82c-11.248-4.782-23.628-9.268-36.882-13.413zm-46.592-12.38l-.757 2.978c14.287 3.267 28.031 6.879 40.994 10.8l.609-3.158c-12.922-3.873-26.612-7.426-40.846-10.62zM487.964 337.54l-1.912.172c-3.26 8.547-9.616 17.582-17.443 24.906l-.105.097.166-.139c9.181-7.752 15.671-16.161 19.294-25.037zm.972-24.272l-2.522 1.685c2.187 5.912 2.629 11.985 1.092 18.183l2.063-.187c.048-.163.095-.327.14-.491 1.827-6.528 1.482-12.94-.773-19.19zm-22.554-27.153l-2.202 2.376c9.114 6.844 15.942 14.047 19.99 21.533l2.562-1.714c-4.072-7.706-11.026-15.137-20.35-22.195zm-33.248-19.359l-1.604 2.836c10.74 4.984 20.267 10.258 28.308 15.782l2.218-2.392c-8.199-5.684-17.933-11.11-28.922-16.226zm-38.485-15.045l-.607 3.203c11.743 3.915 22.73 8.104 32.756 12.535l1.609-2.84c-10.317-4.575-21.64-8.888-33.758-12.898zm-45.542-12.794l-.845 2.995c14.127 3.41 27.677 7.17 40.406 11.246l.607-3.189c-12.662-4.022-26.128-7.72-40.168-11.052zM463.795 348.08l-1.712.124c-3.109 7.356-8.728 15.024-15.573 21.297l-.096.087.152-.125c8.031-6.641 13.82-13.818 17.23-21.384zm2.369-19.799l-2.31 1.444c1.18 4.605 1.155 9.31-.213 14.098l-.124.423 1.834-.132c.195-.58.376-1.163.543-1.747 1.363-4.771 1.41-9.474.27-14.086zm-18.204-24.916l-2.048 2.097c7.723 6.222 13.304 12.754 16.291 19.527l2.352-1.47c-2.992-6.981-8.679-13.727-16.595-20.154zm-28.583-17.567l-1.49 2.535c9.229 4.482 17.348 9.208 24.121 14.142l2.063-2.111c-6.918-5.085-15.23-9.955-24.694-14.566zm-33.103-13.536l-.605 2.883c10.046 3.504 19.407 7.23 27.918 11.153l1.495-2.54c-8.768-4.054-18.428-7.897-28.808-11.496zm-46.28-13.339l-.777 2.707c14.764 3.579 28.807 7.57 41.792 11.922l.603-2.874c-12.943-4.31-26.921-8.247-41.619-11.755zM435.273 362.397c-2.94 5.024-6.98 9.982-11.638 14.239l-.088.08.14-.115c5.423-4.472 9.734-9.21 12.88-14.16l-1.294-.044zm7.139-18.1l-2.095.99c.111 2.583-.198 5.199-.955 7.841-.557 1.944-1.338 3.94-2.311 5.95l1.431.048a39.248 39.248 0 002.948-7.33 24.895 24.895 0 00.982-7.5zm-13.1-24.422l-2.071 1.717c6.665 6.19 11 12.688 12.506 19.418l2.175-1.026c-1.412-6.956-5.79-13.69-12.61-20.109zm-24.55-16.804l-1.674 2.15c8.21 4.323 15.29 8.872 21.007 13.614l2.094-1.735c-5.81-4.887-13.033-9.578-21.427-14.029zm-28.995-12.789l-.825 2.555c8.806 3.286 16.954 6.765 24.296 10.416l1.683-2.161c-7.582-3.799-16.02-7.411-25.154-10.81zm-45.963-13.919l-.715 2.492c14.926 3.725 28.997 7.911 41.786 12.494l.824-2.55c-12.829-4.582-26.93-8.752-41.895-12.436zM475.421 344.34l-1.758.16c-3.373 7.057-8.865 14.26-15.44 20.245l-.1.09.16-.13c7.74-6.355 13.491-13.183 17.138-20.364zm3.43-22.239l-2.402 1.58c1.156 4.678 1.105 9.455-.283 14.313a37.048 37.048 0 01-.697 2.173l1.884-.17a42.587 42.587 0 001.177-3.52c1.39-4.867 1.456-9.667.322-14.376zm-19.93-26.791l-2.1 2.226c8.513 6.679 14.638 13.702 17.856 20.992l2.435-1.602c-3.234-7.496-9.477-14.734-18.19-21.616zm-31.539-18.793l-1.53 2.659c10.234 4.805 19.234 9.885 26.726 15.198l2.113-2.24c-7.64-5.463-16.838-10.686-27.309-15.617zm-36.167-14.274l-.573 3.016c10.965 3.687 21.197 7.619 30.51 11.767l1.531-2.664c-9.59-4.285-20.144-8.337-31.468-12.119zm-46.625-13.07l-.808 2.815c14.703 3.5 28.741 7.384 41.816 11.608l.572-3.003c-13.012-4.173-26.965-7.996-41.58-11.42zM451.028 354.887l-1.57.058c-3.124 6.462-8.147 13.042-14.147 18.519l-.093.084.148-.12c7.033-5.792 12.287-12.008 15.662-18.541zm3.654-19.38l-2.243 1.275c.749 3.904.59 7.881-.561 11.918-.243.85-.526 1.709-.848 2.575l1.685-.063c.52-1.294.969-2.6 1.345-3.916 1.137-3.984 1.317-7.919.622-11.79zm-16.06-24.153l-2.048 1.954c7.139 6.067 12.154 12.426 14.607 19.014l2.296-1.31c-2.43-6.8-7.534-13.38-14.856-19.658zm-26.987-17.258l-1.504 2.409c8.84 4.427 16.555 9.09 22.907 13.954l2.063-1.97c-6.488-5.02-14.391-9.832-23.466-14.393zm-30.982-13.058l-.68 2.753c9.472 3.404 18.274 7.014 26.248 10.806l1.508-2.414c-8.212-3.922-17.292-7.647-27.076-11.145zm-45.828-13.534l-.752 2.621c14.745 3.64 28.714 7.701 41.544 12.132l.677-2.747c-12.818-4.403-26.756-8.425-41.47-12.006z" fill="#FFF"/>
            </g>
            <g>
                <path d="M315.091 291.18l.083 14.527c57.276 11.232 96.45 28.775 100.38 52.033-2.515 3.433-5.544 10.296-16.632 16.632 2.112 3.168 5.808 3.168 11.088 0 8.205-7.51 10.444-9.78 11.88-18.216 6.336-37.224-41.43-52.369-106.799-64.975z" fill="#C4C3C6"/>
                <path d="M317.266 287.894l-.538 2.211c61.873 11.823 108.026 32.872 101.713 59.734-1.645 6.991-6.535 14.905-12.97 21.284l-.075.074.12-.107c7.89-7.063 12.864-14.647 14.715-22.512 6.38-27.143-40.174-48.886-102.965-60.684z" fill="#FFF"/>
            </g>
            <path d="M372.786 202.508l-11.088 7.92c128.034 24.775 182.053 68.356 178.859 101.816-3.445 36.046-65.191 71.816-163.944 79.2-84.744 6.336-182.16-12.672-272.448-34.056-3.81 2.81-6.192 5.395-5.544 5.544 276.408 63.36 380.952 15.84 425.304-5.544 44.352-21.384 49.205-40.105 50.688-41.976 3.307-34.574-45.011-80.432-201.827-112.904z" fill="#C4C3C6"/>
            <path d="M376.45 184.59v2.623c150.3 29.636 206.836 75.523 202.918 113.943-4.378 42.87-88.542 82.665-215.427 87.912-73.218 3.028-166.923-8.433-281.115-34.38l-10.529 4.909c118.734 26.944 216.192 38.84 292.373 35.688 132.268-5.473 220.004-46.962 224.567-91.657 4.096-40.163-55.166-88.152-212.787-119.038z" fill="#FFF"/>
            <path d="M395.31 404.237c-57.534 3.39-94.596 2.607-173.066-6.655 51.359 14.373 81.794 24.94 124.075 29.732-29.008-1.261-37.81 1.865-87.586-4.031 46.204 12.38 83.204 20.613 91.577 20.61-17.261 2.816-12.56 2.52-46.052 2.53 109.681 19.244 229.728 1.826 245.638-33.931 2.576-5.793-1.256-20.976-4.702-27.582-1.579-3.028-19.118 2.75-16.339-2.454.575-1.09-76.011 18.392-133.545 21.78z" fill="#C4C3C6"/>
            <path d="M374.37 406.052c44.88 2.64 83.952.792 117.216-5.544-21.12 8.448-40.128 15.048-57.024 19.8 26.928 2.376 64.152-1.584 82.368-4.752-12.672 5.544-15.84 8.712-38.016 15.048 21.384 0 44.352-3.168 52.272-4.752-10.296 8.712-12.672 7.92-21.384 13.464 49.896-13.464 75.549-38.324 78.282-72.4.644-8.05 2.057-25.714 3.96-41.834.121-1.06-17.298 61.17-217.674 80.97z" fill="#FFF"/>
            <path d="M138.238 325.802l99.845-47.158 75.85 18.114-94.085 46.227c-14.787 5.123-25.419 7.964-31.896 8.523-20.428 1.763-36.91-3.149-49.896-5.544-19.16-3.534-19.1-10.255.182-20.162z" fill="#C4C3C6"/>
            <path d="M236.642 279.863c-3.1 14.586 6.21 28.924 20.796 32.024 14.586 3.1 28.924-6.21 32.024-20.796M315.38 300.028l.138 5.546-123.69 61.774-3.822-4.345z" fill="#FFF"/>
            <path d="M363.124 208.36c-.96.648-1.969 1.263-3.029 1.847l10.021 1.83c117.207 22.3 161.834 58.948 159.315 90.356-2.83 35.247-68.495 69.065-168.273 75.114-62.742 3.804-144.877-6.178-246.405-29.947l-8.179 3.811.99.232c104.623 24.273 189.373 34.446 254.25 30.516 104.096-6.304 172.603-41.522 175.558-78.224 2.613-32.505-43.356-70.396-163.958-93.648-.525-.101-9.763-1.786-10.29-1.887z" fill="#FFF"/>
            <g>
                <path d="M98.85 302.492c-4.194-4.169-20.706-4.953-25.668 3.415-2.328 2.617-2.209 14.49-2.068 17.251-.65 2.353 2.141 5.962 3.434 7.32 1.467 1.523 1.432 2.794.705 4.41-.913 1.08-1.641 1.934-2.184 2.565-2.441.65-3.22 1.487-5.73 1.925-6.64 1.18-9.68 6.655-13.356 10.968-2.9 3.387-.697 7.493-.11 11.227.71 4.466.594 9.02-.344 13.448-.785 3.613-2.128 7.18-2.028 10.867.069 3.902 1.781 7.664 1.628 11.556-.285 7.355-9.606 16.256-4.631 23.463.658.963 1.585 1.782 1.954 2.881a6.444 6.444 0 01-.064 3.29c-1.314 6.44 1.614 5.09 1.322 10.849-.128 2.358-14.109 39.954-8.616 44.558 4.294 3.6 11.841 3.444 24.494 2.335 4.661-.408 20.534-15.887 25.662-14.006 4.473 1.64 18.038 8.762 23.328 9.338 17.235 1.876 31.149-9.815 33.826-15.173 3.5-7.003-5.832-4.669-10.498-15.174-4.666-10.504 1.069-30.614 4.665-52.522.698-4.253-26.089-8.798-25.661-12.84.45-4.263-.366-3.186.084-6.11.226-1.468 6.695 3.685 10.083 5.899 3.098 2.024 5.858 4.523 10.922-1.685 3.828-4.691 14.247-11.022 20.164-19.38 3.026-4.272 7.095-10.144 8.402-13.48 1.186-3.031-9.557-8.05-10.083-9.27-1.068-2.476-6.955 1.39-8.402 3.37-1.447 1.98-.037 8.507-.84 9.269-2.098 1.988-7.7 5.358-16.803 10.11-8.277-7.655-12.68-11.952-13.207-12.892-1.36-4.824-6.07-6.89-10.61-8.736-4.687-1.876-6.086-4.107-10.41-6.671-.101-2.098 2.416-3.166 2.886-5.246l.168-.176c1.924-.116 1.847-1.67 2.246-2.885-.798-2.404 1.769-3.644 2.087-5.853.836-5.2-2.858-14.546-6.747-18.215z" fill="#000"/>
                <path d="M87.394 334.565c-2.41-3.903-3.981-7.57-4.712-11-.1 2.465-.062 4.62.114 6.462-1.547-2.29-2.763-5.927-3.202-7.786-.12 1.51-.377 2.004-.159 4.428-.988-1.941-1.647-4.232-1.811-5.054-.634 1.5-.423 1.665-.726 2.816-.592-5.404 1.388-9.347 5.602-11.807.995-.581 3.18-1.857 5.144-3.076.13-.08-6.99 5.542-.25 25.017z" fill="#FFF"/>
                <path d="M72.062 345.808c.15 3.01.535 6.005 1.15 8.96 3.493 13.57 6.994 27.02 12.04 40.086.373.97 3.173 7.918 2.165 7.097-.291-.275-4.128-6.607-4.259-6.973-6.75-15.088-10.738-32.814-13.877-48.913-1.668.34-1.815 2.491-1.545 4.048.205 1.23.938 9.352 3.264 17.887 4.163 15.277 11.558 35.56 16.869 46.213a365.491 365.491 0 005.38 11.55c18.897 1.583 29.448-.02 31.653-4.81.798-1.736-9.774 20.31-9.49 19.515.923-2.594 11.834 1.446 15.322 3.828 4.263 2.912 7.115 2.517 6.998 1.168-.136-1.568 2.777-39.367 2.333-40.852-.381-1.274-4.315-4.875-6.999-5.835-3.135-1.123-5.235.534-8.165 1.167-3.37.728-16.489 2.007-19.988 6.676-3.5 4.668-15.162-26.577-18.913-32.62.232.29 20.066 30.467 19.921 29.194-.454-4.106 1.853-5.906 2.256-10.02a2.673 2.673 0 00-.157-1.541 2.98 2.98 0 00-.883-.916c-.347-.275-9.315-8.651-10.137-9.717-6.668-8.643-18.441-32.214-17-31 4.346 3.668 20.434 34.305 25.944 36.625.427-3.013.72-6.057.88-9.133.07-.46.02-.927-.145-1.368-.414-.902-1.635-1.313-2.733-1.655-5.68-1.752-21.11-24.419-22.203-31.777-2.33-1.287-6.775 1.373-9.681 3.116zm-12.768 7.339l.001-.058a293.636 293.636 0 005.363 63.25c1.183 6.057 1.596 11.207 2.93 14.79 1.334 3.584 9.987-7.717 8.75-10.44-4.928-10.844-9.27-21.706-12.148-33.25-2.684-10.626-4.982-22.175-4.91-33.21l.014-1.082zm6.958-6.66c-2.62.432-3.14 3.813-3.002 6.374.638 11.984 1.892 23.963 4.695 35.66.54 2.238 1.133 4.464 1.777 6.678.692 2.316 1.448 4.624 2.204 6.912a181.992 181.992 0 0011.446 26.008c.879-.136 5.059 1.351 4.946-4.34-.055-2.79-3.287-12.777-4.276-14.894-9.36-19.867-19.73-40.642-17.79-62.398z" fill="#C4C3C6" fill-rule="nonzero"/>
                <path d="M64.546 349.156a8.929 8.929 0 00-.59 4.016c.587 10.958 1.743 21.913 4.327 32.609a134.51 134.51 0 001.64 6.106 228.863 228.863 0 002.032 6.321c3.61 10.239 4.794 14.195 10.37 23.59 1.624 2.758 2.978.25.595-3.801-5.577-9.395-6.76-13.351-10.371-23.59a143.886 143.886 0 01-2.033-6.321 94 94 0 01-1.639-6.107c-2.584-10.69-3.74-21.65-4.327-32.609l-.004-.214zM78.548 350.692a188.94 188.94 0 015.708 35.684c.472 8.126-.365 2.437-1.236.972a8.272 8.272 0 01-.548-.867c-.005-.066-.05-.128-.083-.192-3.574-10.367-6.268-20.914-8.907-31.563a54.06 54.06 0 01-1.003-7.963l.717-.447c.145 1.483 4.996 2.914 5.352 4.376zM133 409c-5.832 2.334-20.718 4.062-28.712 5.561-5.396.986-1.657-.03-.745-.715.17-.152.35-.294.537-.425.044-.009.082-.043.123-.07 6.654-3.171 13.498-5.792 20.414-8.385a45.616 45.616 0 015.758-1.448c6.056.752 6.93 2.58 2.625 5.482z" fill="#FFF" fill-rule="nonzero"/>
                <path d="M122.264 397.733a110.553 110.553 0 01-23.133 12.49c-5.51 2.134-1.8.205-1.036-.854.134-.232.282-.45.442-.655.044-.018.075-.07.11-.112 6.16-5.273 12.703-9.83 19.334-14.361a31.487 31.487 0 015.241-2.555l.52.52c-.988.44-.566 4.91-1.478 5.527zM124.743 449.805c-15.164-7.003-14.976-22.814-20.12-21.375-4.273 1.174-1.336.095-.649-.516.127-.134.261-.26.403-.378.035-.01.063-.04.094-.064 5.135-3.007 10.46-5.589 15.845-8.154 4.229-1.298 1.757 2.002 2.094 8.31.336 6.31 3.688 22.803 2.333 22.177z" fill="#000" fill-rule="nonzero"/>
                <g fill-rule="nonzero">
                    <path d="M94.72 454.463c-5.139-7.08-1.474-10.541-2.869-13.347-1.395-2.806-7.066-6.54-7.03-6.567 6.014-3.371 9.756-1.504 16.05-4.361 4.925-1.418 1.99 2.338 2.24 9.612.25 7.273-7.21 16.29-8.39 14.663z" fill="#C4C3C6"/>
                    <path d="M101.9 430.367c-1.56 3.955-2.275 13.047-3.19 18.462-.6 3.655.056 1.121.53.501.106-.116.205-.238.295-.365.005-.03.03-.056.047-.083 2.147-4.515 3.893-9.156 5.618-13.847.37-1.162.735-2.698.924-3.902-2.66-.94-4.068-1.196-4.224-.766z" fill="#FFF"/>
                </g>
                <path d="M60.082 368c-.043.097-.038.2-.033.301-.974 8.735.144 17.565 1.383 26.268 1.722 12.115 3.705 24.255 6.765 36.091.415-.186.834-.366 1.256-.54-3.534-12.803-5.727-26.001-7.598-39.159-1.027-7.213-1.941-14.503-1.71-21.764l-.063-1.198zM84.947 445.669c.846.774-.577 7.495-.719 8.505-.162 1.295-14.18 10.431-15.573 9.78-.761-.369 14.994-19.472 16.292-18.285zM142.668 465.005c-7.238 3.36-12.474 5.384-15.707 6.07-4.85 1.027-4.284 1.516-11.43-1.536-1.212-.517-1.425 3.042 2.862 4.57 2.858 1.017 5.715 1.02 8.571.009 6.826-1.834 11.891-3.731 15.197-5.693 4.444-2.637 5.91-3.029 4.788-7.98l-4.28 4.56z" fill="#FFF" fill-rule="nonzero"/>
                <path d="M126.184 453.02c-.762.474-2.014 1.66-1.242 5.986.742 4.163.843 8.1-.2 8.307-3.464.69-2.492 2.084-7.593.055-.865-.344-1.021 2.03 2.04 3.043 2.04.677 4.081.676 6.122 0 4.877-1.228 8.497-2.498 10.86-3.808 2.117-1.175 2.239-1.935.365-2.28-2.206.957-5.479-2.128-5.455-2.418.144-1.591.79-2.998-.653-5.352-.222-.374-.6-1.073-.897-1.896-1.723-1.408-2.839-1.954-3.347-1.638zM92.082 342.425c-.276.68.428 2.671-.175 3.09-4.833 3.723 2.18 13.026 4.492 16.403a67.052 67.052 0 004.274 5.54c.67.81 1.276 2.005 2.183 2.517a5.749 5.749 0 002.95.769 1.696 1.696 0 001.359-.616c.247-.362.381-.789.385-1.227.201-3.164-.442-6.986-.54-10.109-.027-1.238 2.005-.08 3.118 2.085.912 1.776.767 4.282 2.079 6.256 2.078 3.128 3.268.298 5.196 1.043 1.07.414 5.985 2.807 9.597 4.824 2.456 1.372 3.221 3.493 6 4 5.735 1.046 11.69-3.412 12.04-3.721 4.797-3.519 9.785-12.109 10.922-13.482 3.487-3.633 6.879-6.316 8.19-8.684 1.175-2.121.125-3.72-1.469-3.112-.84.842-.707-1.427-.84-1.686-.456-.904-1.03-.167-2.019.18-.57.2.338-1.865-.502-1.865-.47 0-1.194.179-1.68 0-.381-.14.785-1.586 0-1.685-.785-.1-1.626.214-2.52.842-1.62 1.137-2.126 2.563-2.521 3.37-.184.377.346 2.926.416 3.06 1.983 3.783 5.94 3.869 5.378 5.13-.562 1.261-7.395-1.347-7.412-.563a227.342 227.342 0 00-2.583 2.485c-3.36 3.37-7.252 5.393-17.644 10.953-8.73-8.833-13.072-11.825-13.34-13.053-.77-3.312-4.74-5.45-7.242-7.846-2.988-2.902-7.25-4.126-11.347-5.196-2.48-.646-6.447-.6-6.745.298zm-15.164-25.678c0 6.841-1.086 1.361 3.5 7.003 1.62 1.995 3.499 3.501 5.831 7.003 1.167-3.502 1.707-3.729 3.5-7.003-1.38 5.273.345 3.709-1.665 7.315 1.63-2.263 2.561-2.584 4.896-6.856-1.31 4.686-2.567 8.263-3.084 8.878 1.414-.974 1.087-.66 3.153-3.12a31.37 31.37 0 01-2.779 5.054c6.651-7.365 9.976-12.678 9.976-15.94 0-8.057-4.195-14.006-12.247-14.006-8.053 0-11.081 3.614-11.081 11.672z" fill="#FFF" fill-rule="nonzero"/>
                <path d="M66.315 450.298c1.477 1.574 1.055 3.793-.338 8.994-.687 2.567-2.102 3.98-2.985 7.275-.882 3.296.856 4.543.168 7.11-1.392 5.2-5.548 8.605-9.281 7.604-3.734-1.001-5.631-6.029-4.239-11.23.407-1.52 4.95-13.456 8.193-18.999 2.233-3.818 7.006-2.327 8.482-.754z" fill="#FFF"/>
                <g fill="#000">
                    <path d="M59.214 470.219c-3.785-1.362-7.22-2.815-9.97-4.171 3.096.704 6.884 1.823 10.908 3.272 3.785 1.362 7.22 2.814 9.97 4.17-3.096-.703-6.884-1.823-10.908-3.271zM56.54 463.912c-3.38-1.216-6.447-2.508-8.904-3.712 2.76.637 6.14 1.641 9.732 2.935 3.378 1.216 6.446 2.508 8.903 3.711-2.76-.637-6.14-1.641-9.732-2.934zM55.222 458.415a817.231 817.231 0 01-5.981-2.192c1.752.618 3.942 1.402 6.315 2.262 2.232.809 4.295 1.566 5.98 2.192a799.587 799.587 0 01-6.314-2.262z"/>
                </g>
            </g>
            <g fill="#000">
                <path d="M219.545 298.862c11.21-5.237 21.85-9.534 30.784-12.562-8.284 5.152-18.977 10.91-30.897 16.478-11.21 5.237-21.85 9.534-30.784 12.562 8.285-5.152 18.977-10.91 30.897-16.478zM243.076 301.685c8.48-3.961 16.526-7.215 23.28-9.511-6.269 3.89-14.359 8.24-23.375 12.453-8.48 3.961-16.526 7.215-23.281 9.511 6.27-3.89 14.36-8.241 23.376-12.453zM268.222 304.328c5.605-2.619 10.925-4.767 15.392-6.281-4.142 2.576-9.489 5.454-15.448 8.239-5.605 2.618-10.925 4.767-15.393 6.28 4.143-2.576 9.49-5.454 15.449-8.238z"/>
            </g>
            <path d="M316.972 368c21.897 0 43.27-4.107 53.123-14.532 4.547-4.811 4.497-22.884 4.497-28.762 0-18.615-25.943-33.706-57.944-33.706-32.001 0-57.943 15.09-57.943 33.706 0 4.91-.895 20.403 2.348 24.61C270.11 361.062 293.41 368 316.973 368z" fill="#000"/>
            <g>
                <path d="M366.738 322.562h.07l-.765 17.426h-.056c-1.195 11.635-23.306 19.148-50.142 18.872-26.05-.267-46.317-7.352-48.902-17.288h-.115l-.817-17.92c.819 11.545 23.114 20.967 49.784 21.24 27.394.281 50.657-9.196 50.982-21.167.01-.39-.003-.777-.039-1.163z" fill="#C4C3C6"/>
                <path d="M324.527 347.704c11.714-.64 18.858-.516 27.805-2.767-5.938 2.04-7.392 3.518-17.95 6.105 10.483-.71 18.712-1.69 20.39-2.369-3.18 2.087-2.268 1.634-8.979 4.348a94.268 94.268 0 0010.338-2.423c-7.947 6.881-30.005 9.677-50.405 5.304 7.24-.003 6.223.076 9.954-.668-1.81 0-9.807-2.173-19.793-5.442 10.758 1.557 12.66.731 18.93 1.064-9.138-1.265-15.716-4.055-26.817-7.85 16.96 2.445 24.97 2.652 37.406 1.757 7.703-.555 16.987-2.74 22.907-4.254-6.44 2.552-13.299 4.62-23.786 7.195z" fill="#FFF"/>
                <path d="M315.273 342.38c-27.319-.277-49.209-10.073-48.893-21.88.317-11.807 22.72-21.153 50.038-20.876 27.32.277 49.21 10.073 48.893 21.88-.316 11.807-22.719 21.153-50.038 20.876z" fill="#C4C3C6"/>
                <path d="M266.665 321.961c.39 11.545 22.335 20.685 49.014 20.414 26.679-.271 47.99-9.85 47.599-21.396a9.458 9.458 0 00-.385-2.358c-.017 11.399-21.177 20.8-47.604 21.07-24.834.252-45.566-7.65-48.63-18.056 0 .109 0 .217.006.326z" fill="#FFF"/>
                <path d="M356.643 321.132c-.333-9.62-19.04-17.237-41.782-17.011-22.743.226-40.91 8.208-40.576 17.83a7.72 7.72 0 00.328 1.965c.014-9.5 18.052-17.334 40.58-17.558 21.17-.21 38.843 6.374 41.455 15.046 0-.09 0-.18-.005-.272z" fill="#FFF"/>
                <path d="M316.308 301.998c20.304 0 37.35 6.213 41.95 14.577-5.882-7.46-21.924-12.814-40.773-12.814-23.808 0-43.08 8.542-43.044 19.079.006 1.55.429 3.058 1.223 4.502-1.547-1.962-2.391-4.07-2.399-6.265-.035-10.537 19.236-19.08 43.043-19.08z" fill="#000"/>
                <path d="M335.173 325.662l-32.34 2.347c-1.815.131-3.427-.77-3.6-2.012-.04-.29.001-.582.122-.862l6.968-16.066c.521-1.201 2.36-1.896 4.108-1.551.407.08.787.213 1.12.393l25.37 13.719c1.425.77 1.656 2.192.517 3.176-.558.483-1.375.791-2.265.856z" fill="#FFF"/>
                <path d="M333.752 326.52l-30.365 2.294c-1.705.129-3.216-.735-3.375-1.93-.037-.278.002-.559.117-.828l6.583-15.45c.492-1.155 2.22-1.825 3.86-1.496.383.077.739.205 1.05.377l23.782 13.156c1.336.74 1.549 2.106.477 3.053-.525.464-1.293.762-2.129.825z" fill="#000"/>
                <path d="M312.182 312.908c.34.074.656.197.932.362l20.841 12.463-30.513 2.092 5.312-13.48c.437-1.11 1.972-1.752 3.428-1.437z" fill="#FFF"/>
            </g>
        </g>
    </g>
</svg>
