<svg viewBox="0 0 72 72" xmlns="http://www.w3.org/2000/svg">
  <g fill="none" fill-rule="evenodd">
    <circle fill="#333" cx="36" cy="36" r="36"/>
    <path d="M51.41875 21.58125c-.775-.775-1.9375-.775-2.7125 0L36.5 33.7875 24.29375 21.58125c-.775-.775-1.9375-.775-2.7125 0-.775.775-.775 1.9375 0 2.7125L33.7875 36.5 21.58125 48.70625c-.775.775-.775 1.9375 0 2.7125.3875.3875.775.58125 1.35625.58125.58125 0 .96875-.19375 1.35625-.58125L36.5 39.2125l12.20625 12.20625c.3875.3875.96875.58125 1.35625.58125.3875 0 .96875-.19375 1.35625-.58125.775-.775.775-1.9375 0-2.7125L39.2125 36.5l12.20625-12.20625c.775-.775.775-1.9375 0-2.7125z" fill="#FFF" fill-rule="nonzero"/>
  </g>
</svg>
