<svg width="17" height="16" viewBox="0 0 17 16" fill="none" xmlns="http://www.w3.org/2000/svg">
<g id="Read">
<g id="Vector">
<path fill-rule="evenodd" clip-rule="evenodd" d="M2.5 6.53524C2.5 6.20088 2.6671 5.88865 2.9453 5.70319L7.9453 2.36985C8.2812 2.14592 8.7188 2.14592 9.0547 2.36985L14.0547 5.70319C14.3329 5.88865 14.5 6.20088 14.5 6.53524V13.0001C14.5 13.5523 14.0523 14.0001 13.5 14.0001H3.5C2.94772 14.0001 2.5 13.5523 2.5 13.0001V6.53524ZM7.88955 11.7921C8.24929 12.0694 8.75067 12.0694 9.1104 11.7921L12.3104 9.32602C12.7478 8.98889 12.8292 8.36097 12.492 7.92352C12.1549 7.48607 11.527 7.40474 11.0895 7.74187L8.49998 9.73755L5.91041 7.74187C5.47296 7.40474 4.84504 7.48607 4.50791 7.92352C4.17079 8.36097 4.25211 8.98889 4.68957 9.32602L7.88955 11.7921Z" fill="#F4F6F8"/>
</g>
</g>
</svg>
