<svg width="32" height="32" viewBox="0 0 32 32" fill="none" xmlns="http://www.w3.org/2000/svg">
<path d="M13.5547 15.9998C12.9434 15.9998 12.4443 16.4988 12.4443 17.1102C12.4443 17.7215 12.9434 18.2205 13.5547 18.2205C14.166 18.2205 14.665 17.7215 14.665 17.1102C14.665 16.4988 14.166 15.9998 13.5547 15.9998Z" fill="#FF4500"/>
<path d="M16.0124 20.8528C16.4365 20.8528 17.8837 20.8029 18.6447 20.0419C18.757 19.9296 18.757 19.755 18.6697 19.6302C18.5574 19.518 18.3703 19.518 18.258 19.6302C17.7714 20.1043 16.7609 20.279 16.0248 20.279C15.2888 20.279 14.2658 20.1043 13.7917 19.6302C13.6794 19.518 13.4923 19.518 13.38 19.6302C13.2677 19.7425 13.2677 19.9296 13.38 20.0419C14.1285 20.7905 15.5882 20.8528 16.0124 20.8528Z" fill="#FF4500"/>
<path d="M17.3348 17.1102C17.3348 17.7215 17.8338 18.2205 18.4451 18.2205C19.0564 18.2205 19.5554 17.7215 19.5554 17.1102C19.5554 16.4988 19.0564 15.9998 18.4451 15.9998C17.8338 15.9998 17.3348 16.4988 17.3348 17.1102Z" fill="#FF4500"/>
<path fill-rule="evenodd" clip-rule="evenodd" d="M26.6666 15.9999C26.6666 21.891 21.891 26.6666 15.9999 26.6666C10.1089 26.6666 5.33325 21.891 5.33325 15.9999C5.33325 10.1089 10.1089 5.33325 15.9999 5.33325C21.891 5.33325 26.6666 10.1089 26.6666 15.9999ZM21.5515 14.4404C22.4124 14.4404 23.111 15.139 23.111 15.9998C23.111 16.6361 22.7242 17.185 22.2127 17.4345C22.2377 17.5842 22.2502 17.7339 22.2502 17.8961C22.2502 20.2914 19.4681 22.2252 16.0248 22.2252C12.5816 22.2252 9.79949 20.2914 9.79949 17.8961C9.79949 17.7339 9.81197 17.5718 9.83692 17.422C9.28799 17.1725 8.91372 16.6361 8.91372 15.9998C8.91372 15.139 9.61236 14.4404 10.4732 14.4404C10.8849 14.4404 11.2716 14.615 11.5461 14.877C12.619 14.091 14.1036 13.6045 15.7628 13.5546L16.5488 9.83686C16.5738 9.762 16.6112 9.69963 16.6736 9.6622C16.7359 9.62477 16.8108 9.6123 16.8856 9.62477L19.4681 10.1737C19.6428 9.79943 20.017 9.54992 20.4537 9.54992C21.065 9.54992 21.564 10.0489 21.564 10.6603C21.564 11.2716 21.065 11.7706 20.4537 11.7706C19.8549 11.7706 19.3683 11.2965 19.3433 10.7102L17.0354 10.2236L16.3242 13.5546C17.9461 13.617 19.4182 14.116 20.4786 14.877C20.7531 14.6025 21.1274 14.4404 21.5515 14.4404Z" fill="#FF4500"/>
</svg>
