<svg xmlns="http://www.w3.org/2000/svg" viewBox="0 0 127 104">
  <g id="Testnet-subpage" fill="none" fill-rule="evenodd">
    <g id="Testnet-done-wireframe" transform="translate(-883 -1034)">
      <g id="Group-9-Copy" transform="translate(878 1016)">
        <g id="Group-7" transform="translate(0 24)">
          <path id="Oval" fill="#000" d="M25.607 37.59c1.026 0 6.782-.765 9.608-1.717-.95 9.88-8.135 45.984-5.127 54.15 1.93 5.452 6.131 7.485 10.543 7.022 6.57-.69 17.613-1.087 27.126-2.3 4.576-.585 9.23-.588 12.057-2.29 4.74-2.854 2.968-10.914.013-16.339-1.078-1.978-1.864-1.518-4.52-1.516.004-5.32 1.749-13.166 2.673-20.973 1.256-10.614 1.883-23.666 1.886-27.668.005-6.944-3.041-15.386-6.77-15.383-12.243.01-41.556 1.932-46.15 1.935-5.982.005-9.423 5.779-9.429 12.547-.005 6.768 2.109 12.537 8.09 12.533z" transform="rotate(-30 50.13 53.842)"/>
          <path id="Rectangle" fill="#C4C3C6" d="M28.615 13.657l39.444-1.347c3.003 2.296 4.5 8.752 4.492 19.366-.004 5.892-22.598 11.296-23.53 19.146-.264 2.217 20.137 4.541 21.068 9.122.554 2.725-.138 7.094-2.077 13.107-20.4 1.046-31.544 1.721-33.434 2.024-1.89.304-3.588 1.69-5.092 4.161 1.855-13.994 3.56-25.763 5.116-35.307.905-5.553 1.153-15.688.016-21.438-.758-3.833-2.759-6.778-6.003-8.834z" transform="rotate(-30 50.583 45.773)"/>
          <path id="Rectangle" fill="#000" d="M31.199 29.44c11.594-.435 19.322-.445 23.186-.032 5.796.621 6.101.908-.917 1.678-7.019.77-11.06.469-17.085.023-4.017-.297-5.745-.853-5.184-1.67z" transform="rotate(-36 44.915 30.333)"/>
          <path id="Path" fill="#FFF" d="M23.166 26.268c-3.368-4.373-6.13-7.26-8.283-8.66l39.274-1.377c1.826 1.433 3.093 4.451 3.8 9.054-20.948 3.57-32.546 3.898-34.791.983z" transform="rotate(-30 36.42 22.232)"/>
          <g id="Group-3" transform="rotate(-30 74.286 2.694)">
            <path id="Path" fill="#FFF" d="M8.959 0c.798.744 3.85 2.692 3.85 7.382 0 2.358-.556 5.554-1.027 7.666-5.555 1.051-9.786 1.985-10.257 1.217 1.838-.461 3.206-1.53 4.103-3.205.71-1.325 1.712-4.096 1.538-7.098C6.943 2.1 4.67 1.01 4.212.557L8.96 0z"/>
            <path id="Path" fill="#C4C3C6" d="M11.808 15.066c-5.569 1.039-9.811 1.961-10.283 1.203 1.843-.456 3.214-1.511 4.113-3.166.393-.723 1.213-2.609 3.252-3.927 1.359-.88 2.665-1.116 3.918-.71-.119 2.18-.591 4.792-1 6.6zM2.774 2.451c.997 1.09 1.495 2.532 1.495 4.329 0 .426-.014.84-.042 1.24l-4.169.56c-.043-.186-.106-1.218 0-2.043.09-.695.418-2.115 1.198-3.026.632-.738 1.433-1.058 1.518-1.06z"/>
            <g id="Group-4" transform="rotate(4 -781.546 228.035)">
              <path id="Path-Copy-6" fill="#FFF" d="M39.414.086c.677-.048 1.826 1.326 2.77 3.67 1.503 3.734-.42 5.638-2.604 6.867-5.555 1.052-23.29 4.02-23.76 3.252-7.053 2.416-10.13 2.787-9.233 1.112.71-1.326.427-2.038.253-5.04-.223-3.863-2.496-4.953-2.954-5.405L39.414.086z"/>
              <path id="Path-Copy-5" fill="#C4C3C6" d="M43.457 10.708c-.834 3.757-20.426 4.63-25.627 5.5-5.202.869-13.417 2.534-12.518.879.392-.723 1.213-2.608 3.251-3.927 1.313-.849 13.113-5.377 22.48-6.957C37.287 5.15 40.65 3.685 41.13 1.808c3.175 3.463 2.247 7.767 2.326 8.9z"/>
              <path id="Path-Copy-2" fill="#C4C3C6" d="M2.185 7.155c.784.98 1.176 2.278 1.176 3.896 0 .383-.012.756-.034 1.116l-3.275.504c-.034-.168-.084-1.096 0-1.839.07-.625.328-1.903.94-2.723.497-.664 1.127-.952 1.193-.954z"/>
            </g>
          </g>
          <path id="Rectangle-Copy" fill="#000" d="M31.199 29.44c11.594-.435 19.322-.445 23.186-.032 5.796.621 6.101.908-.917 1.678-7.019.77-11.06.469-17.085.023-4.017-.297-5.745-.853-5.184-1.67z" transform="rotate(-36 44.915 30.333)"/>
          <path id="Rectangle-Copy-4" fill="#000" d="M38.607 43.074c9.726-.433 16.21-.441 19.451-.027 4.862.622 5.118.909-.77 1.678-5.888.77-9.278.466-14.332.02-3.37-.298-4.82-.855-4.349-1.671z" transform="rotate(-36 50.114 43.97)"/>
          <path id="Rectangle-Copy-2" fill="#000" d="M35.803 39.35c6.143-.428 10.237-.433 12.284-.017 3.07.625 3.232.911-.487 1.677-3.719.767-5.86.462-9.052.013-2.128-.3-3.043-.857-2.745-1.673z" transform="rotate(-36 43.07 40.252)"/>
          <path id="Combined-Shape" fill="#000" d="M42.883 76.366v-4.572c1.04-.134 1.792-.166 2.256-.096.942.144 1.982-.043 1.457.254-.266.15-1.47.658-2.193.917-.205.074-.4.14-.585.198 1.182.003 2.433.067 3.906.22 3.785.395 3.562.56.208.955-.672.079-1.531.138-2.58.178.371.123.756.274 1.163.459.809.366 2.064 1.084 2.298 1.296.463.418-.91.152-2.511.349-.806.099-1.946.046-3.419-.158z" transform="scale(1 -1) rotate(21 446.593 0)"/>
          <path id="Combined-Shape-Copy" fill="#000" d="M45.104 12.987V7.832c1.14-.147 1.965-.181 2.478-.103 1.053.162 2.215-.048 1.628.286-.297.169-1.642.74-2.45 1.032a18.85 18.85 0 0 1-.654.223 42.11 42.11 0 0 1 4.366.247c4.229.444 3.98.63.232 1.074a37.62 37.62 0 0 1-2.883.2c.414.139.844.309 1.299.516.903.413 2.307 1.22 2.568 1.458.517.471-1.018.172-2.806.393-.893.11-2.152.053-3.778-.17z" transform="rotate(143 49.342 10.45)"/>
        </g>
        <g id="Group" transform="rotate(39 49.46 139.753)">
          <path id="Fill-1-Copy" fill="#000" fill-rule="nonzero" d="M26.615 45.12c-.681.502-1.366.998-2.049 1.496l-.24.187c-.056 0-.148.022-.162-.002-.045-.078.037-.082.086-.098l.161-.204c1.02-1.21 2.048-2.415 3.058-3.635.753-.91 1.667-1.704 2.247-2.74.862-1.536 1.622-3.13 2.428-4.7.848-1.65-.172.457.724-1.283-1.553.468-2.846 1.276-4.262 1.772 1.557-1.168 3.116-2.315 4.906-3.078.138-.059.195-.172.257-.291 1.265-2.472 1.015-2.847 2.444-5.218.54-.898 1.06-1.809 1.657-2.829-1.31.436-2.332 1.061-3.35 1.694-.082.104-.182.175-.32.18l-.223.2-.142.108c-.057.01-.155.042-.162.027-.045-.089.037-.087.091-.101-.001-.085.04-.133.123-.146.018-.116.105-.16.198-.197l.312-.24a8.875 8.875 0 0 1 2.543-1.788c1.037-.486 2.015-1.136 2.464-2.26.491-1.228.98-2.35 1.577-3.535-.22-.037-.38-.025-.48.034a864.533 864.533 0 0 0-3.395 1.993c-.272.16-.267.168-.6.142 1.564-1.36 3.212-2.848 5.002-3.91.198-.116.64-.935.7-1.121.36-1.105.31-1.418.593-2.543.477-1.896.836-3.815.333-5.775-.315-1.228-1.066-1.734-2.328-1.558a6.47 6.47 0 0 0-1.78.528c-2.151.972-3.996 2.412-5.868 3.82-1.255.942-2.311 2-2.717 3.589-.062.245-.145.577-.513.736.175-.726.53-1.32.635-2.073-.155.11-.249.167-.332.237-3.128 2.637-1.907 1.668-4.148 5.1-.885 1.355-1.909 3.65-1.963 5.276-.036 1.105-.77 3.126-.919 4.227-.016-.004-2.438 6.695-2.454 6.692l1.41-10.791c-.506.874-.968 1.65-1.41 2.438-2.495 4.447-2.887 5.258-4.998 9.9-1.412 3.106-1.31 1.707-1.707 5.185a24.619 24.619 0 0 1-.816 4.096l-.178-3.223c-1.553 2.322-1.013 4.985-1.43 7.487l-.4-2.45a26.737 26.737 0 0 0-1.49 4.686c-.547 2.43-.796 4.865-.212 7.326.005.054.035.136.01.158-.057.051-.1-.002-.123-.062-1.555-.614-2.157-1.886-2.316-3.466-.157 1.627.275 2.984 1.654 3.934.612.421 1.146.93 1.572 1.543.429.615.602 1.25.342 2.02a149.71 149.71 0 0 0-1.69 5.354c-.774 2.613-1.59 5.218-2.13 7.892-.203 1.004-.306 2.065.4 3.04.06-.127.1-.184.114-.247 1.087-4.862 2.34-9.68 3.84-14.43 1.104-3.493 1.767-6.727 2.853-10.439.558-1.907 1.756-6.178 4.99-12.675 4.462-8.963 9.67-16.104 10.556-17.134.213-.248 1.611-1.05 1.636-1.06-.466.775-.94 1.547-1.398 2.327-1.152 1.962-12.233 22.84-14.905 30.487-.712 2.039-1.412 4.08-2.023 6.165 1.201-.212 2.094.774 3.215.73-.549-.466-1.267-.633-1.764-1.19 1.91.23 8.679-4.112 8.103-4.112-.576 0-5.828 3.733-7.453 3.318 2.946-2.36 5.043-5.375 7.108-8.541-.828.08-1.446.567-2.294.516.946-.54 1.784-1.034 2.639-1.497.328-.178.557-.421.75-.732 1.902-3.081 2.016-1.791 3.738-4.977.066-.122.244-.27.075-.413-.156-.131-.277.035-.4.125zm4.504 1.692a4.703 4.703 0 0 1-.456.878c-.857 1.562-1.53 2.462-2.43 3.334l-.116.111c-.23.221-.386.375-.534.554l-1.807 2.77c.235.275.441.585.612.932.485.99.55 1.998.347 2.913-.111.5-.285.91-.5 1.278-.321.556-.614.867-1.015 1.221-.29.257-.635.517-1.059.81-.407.281-.888.593-1.405.911l4.751 4.03-11.22.452c-.509.02-.95-.008-1.374-.084-1.22 3.998-2.311 8.197-3.317 12.692-.034.143-.034.143-.07.277-.148.512-.548 1.296-.352.876l-3.125 6.69-4.329-5.97a7.238 7.238 0 0 1-1.367-3.775c-.068-.93.02-1.751.216-2.725.425-2.11.868-3.727 1.919-7.245l.066-.221.24-.808c.43-1.452.86-2.838 1.297-4.178-2.568-1.867-3.641-4.683-3.337-7.841l2.088-.005c.063-1.431.284-2.913.64-4.497.434-1.93.998-3.723 1.738-5.452l.48-1.124c.029-.18.06-.363.098-.554.286-1.477.803-2.823 1.64-4.075l.51-.762.036-.221c.13-.776.3-1.39.587-2.03.085-.19.852-1.611 1.22-2.42 2.234-4.912 2.684-5.808 5.166-10.232.05-.09.1-.18.153-.272.286-.504 1.36-2.344 1.288-2.22L29.296 2.025l-.834 6.378c.597-.657 1.294-1.27 2.092-1.87l.354-.266.09-.068c2.794-2.106 4.204-3.049 6.245-3.971a10.779 10.779 0 0 1 2.966-.871c3.445-.48 6.27 1.413 7.14 4.805.66 2.576.459 4.823-.328 7.95-.071.283-.093.388-.18.86l.709.118-.948 1.882.897-.298-4.053 6.928-.004.011a7.73 7.73 0 0 1-1.208 2.062l-.613 1.049-.26.447-2.894 5.62c-.246.589-.464 1.05-.83 1.764l-.01.02a5.559 5.559 0 0 1-.472.765l-.423.82a17.57 17.57 0 0 1-.515.96c-.05.082-.05.082-.133.209l-.069.102a161.6 161.6 0 0 0-.727 1.436v.001c-.85 1.692-1.243 2.452-1.782 3.413-.547.978-1.03 1.567-2.065 2.689a4.59 4.59 0 0 1-.322 1.842zm-20.372 7.656a4.263 4.263 0 0 0-3.073.215l3-.006.073-.209zm22.555-27.7l.013-.007a8.53 8.53 0 0 1-.014.008zm-13.532-4.02V22.738v.01z" transform="rotate(-3 25.038 44.37)"/>
          <path id="Fill-1" fill="#C4C3C6" d="M26.507 45.124c.123-.09.243-.256.4-.125.169.143-.01.292-.075.413-1.722 3.186-1.836 1.896-3.74 4.977-.191.31-.42.554-.749.732-.854.463-1.693.957-2.638 1.497.848.051 1.465-.437 2.294-.516-2.065 3.166-4.162 6.182-7.108 8.541 1.624.415 6.876-3.318 7.452-3.318.576 0-6.192 4.342-8.103 4.113.497.556 1.216.723 1.764 1.188-1.12.046-2.013-.941-3.215-.729.611-2.085 1.311-4.126 2.024-6.164 2.672-7.647 13.752-28.526 14.905-30.488.458-.78.931-1.552 1.397-2.328-.024.01-1.422.814-1.635 1.061-.886 1.03-6.094 8.171-10.557 17.135-3.234 6.496-4.431 10.767-4.99 12.674-1.086 3.712-1.749 6.946-2.852 10.44-1.5 4.75-2.753 9.567-3.841 14.429-.014.063-.054.12-.113.246-.706-.973-.603-2.035-.4-3.039.539-2.674 1.355-5.279 2.13-7.892a149.71 149.71 0 0 1 1.69-5.354c.26-.77.086-1.404-.342-2.02a6.124 6.124 0 0 0-1.572-1.543c-1.38-.95-1.811-2.306-1.655-3.934.16 1.58.761 2.852 2.316 3.466.024.06.067.113.124.062.024-.022-.005-.103-.01-.157-.585-2.462-.335-4.897.211-7.326a26.737 26.737 0 0 1 1.49-4.686l.4 2.45c.418-2.502-.122-5.166 1.43-7.487l.178 3.222c.41-1.42.664-2.76.817-4.096.397-3.478.294-2.078 1.707-5.185 2.11-4.642 2.503-5.453 4.997-9.9.442-.788.905-1.564 1.411-2.438l-1.41 10.791c.016.004 2.437-6.695 2.454-6.692.15-1.1.882-3.122.919-4.227.054-1.625 1.077-3.921 1.962-5.276 2.242-3.432 1.02-2.463 4.149-5.1.083-.07.176-.127.331-.237-.105.753-.46 1.347-.635 2.074.368-.16.451-.491.514-.737.405-1.59 1.462-2.646 2.716-3.59 1.872-1.407 3.717-2.846 5.868-3.82a6.47 6.47 0 0 1 1.78-.527c1.263-.176 2.014.33 2.329 1.558.502 1.96.144 3.88-.333 5.775-.283 1.125-.233 1.438-.593 2.543-.06.186-.503 1.005-.7 1.122-1.79 1.06-3.439 2.55-5.002 3.909.332.026.328.018.6-.142 1.13-.668 2.261-1.33 3.394-1.993.1-.06.26-.07.48-.034a43.719 43.719 0 0 0-1.576 3.535c-.45 1.124-1.427 1.774-2.464 2.26a8.875 8.875 0 0 0-2.543 1.788l-.312.24c-.094.037-.18.081-.199.197-.082.013-.124.062-.122.146-.054.015-.137.013-.092.101.008.015.106-.017.162-.027l.143-.108.223-.2c.137-.004.237-.076.319-.18 1.019-.633 2.041-1.258 3.35-1.694-.596 1.02-1.116 1.931-1.657 2.83-1.428 2.37-1.178 2.746-2.444 5.217-.061.12-.118.232-.256.291-1.79.764-3.35 1.91-4.906 3.078 1.415-.496 2.708-1.304 4.261-1.772-.896 1.74.124-.366-.723 1.284-.806 1.569-1.567 3.163-2.429 4.7-.58 1.035-1.493 1.829-2.247 2.74-1.01 1.22-2.037 2.424-3.057 3.635l-.161.203c-.05.017-.132.02-.087.098.014.024.106.003.163.002l.24-.186c.683-.498 1.367-.995 2.049-1.496z" transform="rotate(-3 24.923 42.286)"/>
          <path id="Shape" fill="#FFF" d="M12.992 61.907c.279-1.08.57-2.184.9-3.332.315-.943.64-1.881.966-2.82 1.02-2.924 3.263-7.783 5.712-12.781.19.855-7.145 18.892-7.578 18.933zm7.764-24.245l.82-6.295c.695-1.912 1.538-4.239 1.548-4.237.149-1.102.88-3.126.917-4.232.054-1.628 1.076-3.927 1.96-5.283 2.237-3.437 1.018-2.466 4.14-5.107.083-.07.177-.127.331-.237-.104.754-.458 1.349-.633 2.076.367-.16.45-.491.512-.737.405-1.592 1.46-2.65 2.712-3.595 1.869-1.409 3.71-2.85 5.858-3.824a6.444 6.444 0 0 1 1.777-.528c1.26-.177 2.01.33 2.324 1.56.38 1.486.267 2.95-.018 4.398-.324-1.181-1.069-1.666-2.306-1.493a6.444 6.444 0 0 0-1.777.528c-2.147.974-3.99 2.415-5.858 3.825-1.253.944-2.307 2.002-2.712 3.594-.062.246-.145.578-.512.738.175-.728.529-1.323.633-2.077-.154.11-.248.168-.33.238-3.123 2.64-1.904 1.67-4.142 5.106-.883 1.357-1.905 3.656-1.959 5.284-.036 1.105-.768 3.13-.917 4.231-.012-.002-1.186 3.247-1.905 5.221-.154.28-.309.561-.463.846zM10.553 65.985c-.369 1.26-3.13 11.598-3.433 12.876-.633-.95 1.876-11.05 2.072-12.022.538-2.678 2.11-3.944 1.361-.854zm-1.864-6.903c-1.377-.951-1.808-2.31-1.652-3.94.153 1.53.72 2.771 2.16 3.407-.027.29-.046.581-.058.872a6.785 6.785 0 0 0-.45-.339zm.984-7.9a26.83 26.83 0 0 1 1.488-4.692l.399 2.453c.417-2.505-.122-5.172 1.428-7.497l.177 3.227c.41-1.422.663-2.763.815-4.101.397-3.483.295-2.082 1.705-5.192 2.106-4.648 2.498-5.46 4.988-9.913.442-.789.903-1.566 1.409-2.441l-.75 5.756c-.226.389-.445.768-.659 1.15-2.49 4.453-2.882 5.265-4.988 9.913-1.41 3.11-1.308 1.71-1.705 5.192a24.717 24.717 0 0 1-.815 4.102l-.177-3.227c-1.55 2.324-1.011 4.991-1.428 7.496l-.4-2.453a26.83 26.83 0 0 0-1.487 4.692c-.152.681-.282 1.362-.376 2.045-.359-2.184-.108-4.35.376-6.51z" transform="rotate(-3 25.136 42.245)"/>
        </g>
      </g>
    </g>
  </g>
</svg>
