<svg xmlns="http://www.w3.org/2000/svg" xmlns:xlink="http://www.w3.org/1999/xlink" viewBox="0 0 741.84 704.63"><defs><style>.cls-1,.cls-2,.cls-3,.cls-6{fill:none;}.cls-2,.cls-3,.cls-4,.cls-6,.cls-8{stroke:#4038ff;}.cls-2,.cls-3,.cls-4{stroke-linecap:square;}.cls-2,.cls-6{stroke-miterlimit:10;}.cls-2{stroke-width:2px;}.cls-3,.cls-4,.cls-6,.cls-8{stroke-width:12px;}.cls-4{fill:url(#lines);}.cls-5{fill:url(#lines-3);}.cls-7{fill:#4038ff;}.cls-8{stroke-linejoin:bevel;fill:url(#lines-5);}.cls-9{fill:url(#lines-7);}</style><pattern id="lines" data-name="lines" width="16" height="16" patternTransform="translate(-176 10.81)" patternUnits="userSpaceOnUse" viewBox="0 0 16 16"><rect class="cls-1" width="16" height="16"/><line class="cls-2" x1="1.98" y1="78.02" x2="67.98" y2="12.02"/><line class="cls-2" x1="-14.02" y1="78.02" x2="51.98" y2="12.02"/><line class="cls-2" x1="-30.02" y1="78.02" x2="35.98" y2="12.02"/><line class="cls-2" x1="-46.02" y1="78.02" x2="19.98" y2="12.02"/><line class="cls-2" x1="-62.02" y1="78.02" x2="3.98" y2="12.02"/><line class="cls-2" x1="1.98" y1="62.02" x2="67.98" y2="-3.98"/><line class="cls-2" x1="-14.02" y1="62.02" x2="51.98" y2="-3.98"/><line class="cls-2" x1="-30.02" y1="62.02" x2="35.98" y2="-3.98"/><line class="cls-2" x1="-46.02" y1="62.02" x2="19.98" y2="-3.98"/><line class="cls-2" x1="-62.02" y1="62.02" x2="3.98" y2="-3.98"/><line class="cls-2" x1="1.98" y1="46.02" x2="67.98" y2="-19.98"/><line class="cls-2" x1="-14.02" y1="46.02" x2="51.98" y2="-19.98"/><line class="cls-2" x1="-30.02" y1="46.02" x2="35.98" y2="-19.98"/><line class="cls-2" x1="-46.02" y1="46.02" x2="19.98" y2="-19.98"/><line class="cls-2" x1="-62.02" y1="46.02" x2="3.98" y2="-19.98"/><line class="cls-2" x1="1.98" y1="30.02" x2="67.98" y2="-35.98"/><line class="cls-2" x1="-14.02" y1="30.02" x2="51.98" y2="-35.98"/><line class="cls-2" x1="-30.02" y1="30.02" x2="35.98" y2="-35.98"/><line class="cls-2" x1="-46.02" y1="30.02" x2="19.98" y2="-35.98"/><line class="cls-2" x1="-62.02" y1="30.02" x2="3.98" y2="-35.98"/><line class="cls-2" x1="1.98" y1="14.02" x2="67.98" y2="-51.98"/><line class="cls-2" x1="-14.02" y1="14.02" x2="51.98" y2="-51.98"/><line class="cls-2" x1="-30.02" y1="14.02" x2="35.98" y2="-51.98"/><line class="cls-2" x1="-46.02" y1="14.02" x2="19.98" y2="-51.98"/><line class="cls-2" x1="-62.02" y1="14.02" x2="3.98" y2="-51.98"/></pattern><pattern id="lines-3" data-name="lines" width="16" height="16" patternTransform="translate(-45.44 765.48)" patternUnits="userSpaceOnUse" viewBox="0 0 16 16"><rect class="cls-1" width="16" height="16"/><line class="cls-2" x1="1.98" y1="78.02" x2="67.98" y2="12.02"/><line class="cls-2" x1="-14.02" y1="78.02" x2="51.98" y2="12.02"/><line class="cls-2" x1="-30.02" y1="78.02" x2="35.98" y2="12.02"/><line class="cls-2" x1="-46.02" y1="78.02" x2="19.98" y2="12.02"/><line class="cls-2" x1="-62.02" y1="78.02" x2="3.98" y2="12.02"/><line class="cls-2" x1="1.98" y1="62.02" x2="67.98" y2="-3.98"/><line class="cls-2" x1="-14.02" y1="62.02" x2="51.98" y2="-3.98"/><line class="cls-2" x1="-30.02" y1="62.02" x2="35.98" y2="-3.98"/><line class="cls-2" x1="-46.02" y1="62.02" x2="19.98" y2="-3.98"/><line class="cls-2" x1="-62.02" y1="62.02" x2="3.98" y2="-3.98"/><line class="cls-2" x1="1.98" y1="46.02" x2="67.98" y2="-19.98"/><line class="cls-2" x1="-14.02" y1="46.02" x2="51.98" y2="-19.98"/><line class="cls-2" x1="-30.02" y1="46.02" x2="35.98" y2="-19.98"/><line class="cls-2" x1="-46.02" y1="46.02" x2="19.98" y2="-19.98"/><line class="cls-2" x1="-62.02" y1="46.02" x2="3.98" y2="-19.98"/><line class="cls-2" x1="1.98" y1="30.02" x2="67.98" y2="-35.98"/><line class="cls-2" x1="-14.02" y1="30.02" x2="51.98" y2="-35.98"/><line class="cls-2" x1="-30.02" y1="30.02" x2="35.98" y2="-35.98"/><line class="cls-2" x1="-46.02" y1="30.02" x2="19.98" y2="-35.98"/><line class="cls-2" x1="-62.02" y1="30.02" x2="3.98" y2="-35.98"/><line class="cls-2" x1="1.98" y1="14.02" x2="67.98" y2="-51.98"/><line class="cls-2" x1="-14.02" y1="14.02" x2="51.98" y2="-51.98"/><line class="cls-2" x1="-30.02" y1="14.02" x2="35.98" y2="-51.98"/><line class="cls-2" x1="-46.02" y1="14.02" x2="19.98" y2="-51.98"/><line class="cls-2" x1="-62.02" y1="14.02" x2="3.98" y2="-51.98"/></pattern><pattern id="lines-5" data-name="lines" width="16" height="16" patternTransform="translate(-397.44 298.81)" patternUnits="userSpaceOnUse" viewBox="0 0 16 16"><rect class="cls-1" width="16" height="16"/><line class="cls-2" x1="1.98" y1="78.02" x2="67.98" y2="12.02"/><line class="cls-2" x1="-14.02" y1="78.02" x2="51.98" y2="12.02"/><line class="cls-2" x1="-30.02" y1="78.02" x2="35.98" y2="12.02"/><line class="cls-2" x1="-46.02" y1="78.02" x2="19.98" y2="12.02"/><line class="cls-2" x1="-62.02" y1="78.02" x2="3.98" y2="12.02"/><line class="cls-2" x1="1.98" y1="62.02" x2="67.98" y2="-3.98"/><line class="cls-2" x1="-14.02" y1="62.02" x2="51.98" y2="-3.98"/><line class="cls-2" x1="-30.02" y1="62.02" x2="35.98" y2="-3.98"/><line class="cls-2" x1="-46.02" y1="62.02" x2="19.98" y2="-3.98"/><line class="cls-2" x1="-62.02" y1="62.02" x2="3.98" y2="-3.98"/><line class="cls-2" x1="1.98" y1="46.02" x2="67.98" y2="-19.98"/><line class="cls-2" x1="-14.02" y1="46.02" x2="51.98" y2="-19.98"/><line class="cls-2" x1="-30.02" y1="46.02" x2="35.98" y2="-19.98"/><line class="cls-2" x1="-46.02" y1="46.02" x2="19.98" y2="-19.98"/><line class="cls-2" x1="-62.02" y1="46.02" x2="3.98" y2="-19.98"/><line class="cls-2" x1="1.98" y1="30.02" x2="67.98" y2="-35.98"/><line class="cls-2" x1="-14.02" y1="30.02" x2="51.98" y2="-35.98"/><line class="cls-2" x1="-30.02" y1="30.02" x2="35.98" y2="-35.98"/><line class="cls-2" x1="-46.02" y1="30.02" x2="19.98" y2="-35.98"/><line class="cls-2" x1="-62.02" y1="30.02" x2="3.98" y2="-35.98"/><line class="cls-2" x1="1.98" y1="14.02" x2="67.98" y2="-51.98"/><line class="cls-2" x1="-14.02" y1="14.02" x2="51.98" y2="-51.98"/><line class="cls-2" x1="-30.02" y1="14.02" x2="35.98" y2="-51.98"/><line class="cls-2" x1="-46.02" y1="14.02" x2="19.98" y2="-51.98"/><line class="cls-2" x1="-62.02" y1="14.02" x2="3.98" y2="-51.98"/></pattern><pattern id="lines-7" data-name="lines" width="16" height="16" patternTransform="translate(130.93 224.15)" patternUnits="userSpaceOnUse" viewBox="0 0 16 16"><rect class="cls-1" width="16" height="16"/><line class="cls-2" x1="1.98" y1="78.02" x2="67.98" y2="12.02"/><line class="cls-2" x1="-14.02" y1="78.02" x2="51.98" y2="12.02"/><line class="cls-2" x1="-30.02" y1="78.02" x2="35.98" y2="12.02"/><line class="cls-2" x1="-46.02" y1="78.02" x2="19.98" y2="12.02"/><line class="cls-2" x1="-62.02" y1="78.02" x2="3.98" y2="12.02"/><line class="cls-2" x1="1.98" y1="62.02" x2="67.98" y2="-3.98"/><line class="cls-2" x1="-14.02" y1="62.02" x2="51.98" y2="-3.98"/><line class="cls-2" x1="-30.02" y1="62.02" x2="35.98" y2="-3.98"/><line class="cls-2" x1="-46.02" y1="62.02" x2="19.98" y2="-3.98"/><line class="cls-2" x1="-62.02" y1="62.02" x2="3.98" y2="-3.98"/><line class="cls-2" x1="1.98" y1="46.02" x2="67.98" y2="-19.98"/><line class="cls-2" x1="-14.02" y1="46.02" x2="51.98" y2="-19.98"/><line class="cls-2" x1="-30.02" y1="46.02" x2="35.98" y2="-19.98"/><line class="cls-2" x1="-46.02" y1="46.02" x2="19.98" y2="-19.98"/><line class="cls-2" x1="-62.02" y1="46.02" x2="3.98" y2="-19.98"/><line class="cls-2" x1="1.98" y1="30.02" x2="67.98" y2="-35.98"/><line class="cls-2" x1="-14.02" y1="30.02" x2="51.98" y2="-35.98"/><line class="cls-2" x1="-30.02" y1="30.02" x2="35.98" y2="-35.98"/><line class="cls-2" x1="-46.02" y1="30.02" x2="19.98" y2="-35.98"/><line class="cls-2" x1="-62.02" y1="30.02" x2="3.98" y2="-35.98"/><line class="cls-2" x1="1.98" y1="14.02" x2="67.98" y2="-51.98"/><line class="cls-2" x1="-14.02" y1="14.02" x2="51.98" y2="-51.98"/><line class="cls-2" x1="-30.02" y1="14.02" x2="35.98" y2="-51.98"/><line class="cls-2" x1="-46.02" y1="14.02" x2="19.98" y2="-51.98"/><line class="cls-2" x1="-62.02" y1="14.02" x2="3.98" y2="-51.98"/></pattern></defs><g id="Warstwa_2" data-name="Warstwa 2"><g id="Replenishment"><g id="Warstwa_37" data-name="Warstwa 37"><path class="cls-3" d="M735.84,267.45V6H521.92V267.45Z"/><path class="cls-4" d="M735.84,128.73V88.61H521.92v40.12l48.9-11.37,11.76,9.27L608,110.08l10.52,11.66,17.94-1.17,9.29,6.06,8.66-7.81,22.28,9.91,21-9.33Z"/><path class="cls-5" d="M735.84,290.79V269l-1.05-1.55H522.43l-.41.75v22.59"/><line class="cls-6" x1="518.37" y1="88.61" x2="732.29" y2="88.61"/><path class="cls-7" d="M583.14,64.33V31.26h10.29l6.44,26h.2l6.31-26h10.36V64.33h-6.08V38.12l-.57-.09-6.79,26.3h-7.13l-6.78-26.21h-.18V64.33Z"/><path class="cls-7" d="M618.39,64.33l11.26-33.07h6.73L647.6,64.33h-6.8l-2.18-7h-11.3l-2.14,7ZM629,51.94h8l-3.83-13H633Z"/><path class="cls-7" d="M645.85,31.26H653L660.1,45l7.1-13.72h7l-11,20.13V64.33H656.9V51.39Z"/><path class="cls-7" d="M263.31,369.63h13.35a13.08,13.08,0,0,0,2.81,7.58,12.23,12.23,0,0,0,6.16,3.84V359.51l-2.87-.78q-8.86-2.14-13.25-7.64a21,21,0,0,1-4.38-13.48,18.07,18.07,0,0,1,1.54-7.48,19.74,19.74,0,0,1,4.28-6.08,22.88,22.88,0,0,1,6.52-4.38,27.66,27.66,0,0,1,8.16-2.24v-8.86h9v8.86a28.63,28.63,0,0,1,7.74,2.06A20,20,0,0,1,312.93,330a24.75,24.75,0,0,1,1.95,8.48H301.53c-.21-2.86-.95-5-2.24-6.42a10.25,10.25,0,0,0-4.69-3v20l4.5,1q8.7,2.15,13.62,7.49t4.93,14a20.19,20.19,0,0,1-1.71,8.45,18.12,18.12,0,0,1-4.82,6.41,24.37,24.37,0,0,1-7.36,4.25,35.52,35.52,0,0,1-9.16,2.06v8.76h-9v-8.87a29.68,29.68,0,0,1-8.4-2.19,22.73,22.73,0,0,1-6.88-4.51,21.89,21.89,0,0,1-4.8-6.88A28,28,0,0,1,263.31,369.63Zm15.17-32.44a10,10,0,0,0,1.59,5.77,10.9,10.9,0,0,0,5.56,3.72V329a11.15,11.15,0,0,0-5.11,2.9A7.25,7.25,0,0,0,278.48,337.19Zm16.12,44.07a13.39,13.39,0,0,0,6.78-3.08,8.2,8.2,0,0,0,2.6-6.41,9.32,9.32,0,0,0-2.13-6.26q-2.14-2.5-7.25-3.76Z"/><polyline class="cls-6" points="145.03 405.56 72.12 468.97 72.12 698.63"/><polyline class="cls-6" points="502.17 698.63 502.17 468.97 423.35 405.75"/><path class="cls-8" d="M423.35,405.75l-48.35,0a99.72,99.72,0,0,1-6.28,9.58,98.56,98.56,0,0,1-22.45,22H232.35c-.63-.44-1.26-.89-1.89-1.36a98.38,98.38,0,0,1-27-30.31l-58.46,0L72.12,469h430Z"/><line class="cls-6" x1="176.52" y1="437.27" x2="396.62" y2="437.27"/><circle class="cls-6" cx="289.96" cy="352.54" r="67.99"/><path class="cls-6" d="M236,437.27H344a98.85,98.85,0,1,0-108,0Z"/><rect class="cls-6" x="181.06" y="658.5" width="184.64" height="39.76"/><rect class="cls-6" x="205.52" y="618.74" width="184.64" height="39.76"/><rect class="cls-6" x="186.88" y="579.23" width="184.64" height="39.76"/><rect class="cls-9" x="294.4" y="591.96" width="77.12" height="27.03"/><rect class="cls-9" x="313.04" y="631.47" width="77.12" height="27.03"/><rect class="cls-9" x="288.58" y="670.13" width="77.12" height="27.03"/><line class="cls-6" y1="698.63" x2="735.84" y2="698.63"/></g></g></g></svg>