<svg width="80" height="80" viewBox="0 0 80 80" fill="none" xmlns="http://www.w3.org/2000/svg">
<circle cx="40" cy="40" r="40" fill="#F4F5FF"/>
<path d="M46 58.5H21V57.9834V54.9837C21 53.1695 22.2512 51.0434 23.8101 50.2269L31.6639 46.6145C32.4782 46.24 33 45.4257 33 44.5294V41.5M45 47.5L43.918 46.6885C43.3401 46.2551 43 45.5748 43 44.8524V41.5" stroke="#4038FF" stroke-width="3"/>
<path d="M30 31V34.2727C30 39.0927 33.5817 43 38 43C42.4183 43 46 39.0927 46 34.2727V31" stroke="#4038FF" stroke-width="3"/>
<path fill-rule="evenodd" clip-rule="evenodd" d="M46 33V27.0197C46 24.3881 44.2086 22.2357 41.9988 22.2357V22.2357C41.6967 22.2357 41.4241 22.0542 41.3076 21.7755L40.4501 19.7241C40.1961 19.1167 39.5868 18.8452 39.0772 19.0891L32.7856 22.0991C31.2463 22.8355 30 25.0391 30 27.0218V33C30 30.3578 31.7909 28.2159 34 28.2159H42C44.2091 28.2159 46 30.3578 46 33Z" stroke="#4038FF" stroke-width="3"/>
<path d="M47 51.5L53.5 43L60 51.5H56.5V61.5H50.5V51.5H47Z" stroke="#4038FF" stroke-width="3"/>
</svg>
