<svg xmlns="http://www.w3.org/2000/svg" xmlns:xlink="http://www.w3.org/1999/xlink" viewBox="0 0 614.75 494.86"><defs><style>.cls-1,.cls-2,.cls-4,.cls-5,.cls-6{fill:none;}.cls-2,.cls-3,.cls-4,.cls-5,.cls-6,.cls-7{stroke:#4038ff;}.cls-2,.cls-3,.cls-4,.cls-5{stroke-linecap:square;}.cls-2,.cls-3,.cls-4,.cls-6,.cls-7{stroke-miterlimit:10;}.cls-2{stroke-width:2px;}.cls-3,.cls-4,.cls-5,.cls-6,.cls-7{stroke-width:12px;}.cls-3,.cls-8{fill:url(#lines);}.cls-7{fill:url(#lines-5);}</style><pattern id="lines" data-name="lines" width="16" height="16" patternTransform="translate(-253.44 58.81)" patternUnits="userSpaceOnUse" viewBox="0 0 16 16"><rect class="cls-1" width="16" height="16"/><line class="cls-2" x1="1.98" y1="78.02" x2="67.98" y2="12.02"/><line class="cls-2" x1="-14.02" y1="78.02" x2="51.98" y2="12.02"/><line class="cls-2" x1="-30.02" y1="78.02" x2="35.98" y2="12.02"/><line class="cls-2" x1="-46.02" y1="78.02" x2="19.98" y2="12.02"/><line class="cls-2" x1="-62.02" y1="78.02" x2="3.98" y2="12.02"/><line class="cls-2" x1="1.98" y1="62.02" x2="67.98" y2="-3.98"/><line class="cls-2" x1="-14.02" y1="62.02" x2="51.98" y2="-3.98"/><line class="cls-2" x1="-30.02" y1="62.02" x2="35.98" y2="-3.98"/><line class="cls-2" x1="-46.02" y1="62.02" x2="19.98" y2="-3.98"/><line class="cls-2" x1="-62.02" y1="62.02" x2="3.98" y2="-3.98"/><line class="cls-2" x1="1.98" y1="46.02" x2="67.98" y2="-19.98"/><line class="cls-2" x1="-14.02" y1="46.02" x2="51.98" y2="-19.98"/><line class="cls-2" x1="-30.02" y1="46.02" x2="35.98" y2="-19.98"/><line class="cls-2" x1="-46.02" y1="46.02" x2="19.98" y2="-19.98"/><line class="cls-2" x1="-62.02" y1="46.02" x2="3.98" y2="-19.98"/><line class="cls-2" x1="1.98" y1="30.02" x2="67.98" y2="-35.98"/><line class="cls-2" x1="-14.02" y1="30.02" x2="51.98" y2="-35.98"/><line class="cls-2" x1="-30.02" y1="30.02" x2="35.98" y2="-35.98"/><line class="cls-2" x1="-46.02" y1="30.02" x2="19.98" y2="-35.98"/><line class="cls-2" x1="-62.02" y1="30.02" x2="3.98" y2="-35.98"/><line class="cls-2" x1="1.98" y1="14.02" x2="67.98" y2="-51.98"/><line class="cls-2" x1="-14.02" y1="14.02" x2="51.98" y2="-51.98"/><line class="cls-2" x1="-30.02" y1="14.02" x2="35.98" y2="-51.98"/><line class="cls-2" x1="-46.02" y1="14.02" x2="19.98" y2="-51.98"/><line class="cls-2" x1="-62.02" y1="14.02" x2="3.98" y2="-51.98"/></pattern><pattern id="lines-5" data-name="lines" width="16" height="16" patternTransform="translate(-296.44 -69.19)" patternUnits="userSpaceOnUse" viewBox="0 0 16 16"><rect class="cls-1" width="16" height="16"/><line class="cls-2" x1="1.98" y1="78.02" x2="67.98" y2="12.02"/><line class="cls-2" x1="-14.02" y1="78.02" x2="51.98" y2="12.02"/><line class="cls-2" x1="-30.02" y1="78.02" x2="35.98" y2="12.02"/><line class="cls-2" x1="-46.02" y1="78.02" x2="19.98" y2="12.02"/><line class="cls-2" x1="-62.02" y1="78.02" x2="3.98" y2="12.02"/><line class="cls-2" x1="1.98" y1="62.02" x2="67.98" y2="-3.98"/><line class="cls-2" x1="-14.02" y1="62.02" x2="51.98" y2="-3.98"/><line class="cls-2" x1="-30.02" y1="62.02" x2="35.98" y2="-3.98"/><line class="cls-2" x1="-46.02" y1="62.02" x2="19.98" y2="-3.98"/><line class="cls-2" x1="-62.02" y1="62.02" x2="3.98" y2="-3.98"/><line class="cls-2" x1="1.98" y1="46.02" x2="67.98" y2="-19.98"/><line class="cls-2" x1="-14.02" y1="46.02" x2="51.98" y2="-19.98"/><line class="cls-2" x1="-30.02" y1="46.02" x2="35.98" y2="-19.98"/><line class="cls-2" x1="-46.02" y1="46.02" x2="19.98" y2="-19.98"/><line class="cls-2" x1="-62.02" y1="46.02" x2="3.98" y2="-19.98"/><line class="cls-2" x1="1.98" y1="30.02" x2="67.98" y2="-35.98"/><line class="cls-2" x1="-14.02" y1="30.02" x2="51.98" y2="-35.98"/><line class="cls-2" x1="-30.02" y1="30.02" x2="35.98" y2="-35.98"/><line class="cls-2" x1="-46.02" y1="30.02" x2="19.98" y2="-35.98"/><line class="cls-2" x1="-62.02" y1="30.02" x2="3.98" y2="-35.98"/><line class="cls-2" x1="1.98" y1="14.02" x2="67.98" y2="-51.98"/><line class="cls-2" x1="-14.02" y1="14.02" x2="51.98" y2="-51.98"/><line class="cls-2" x1="-30.02" y1="14.02" x2="35.98" y2="-51.98"/><line class="cls-2" x1="-46.02" y1="14.02" x2="19.98" y2="-51.98"/><line class="cls-2" x1="-62.02" y1="14.02" x2="3.98" y2="-51.98"/></pattern></defs><g id="Warstwa_2" data-name="Warstwa 2"><g id="Reward"><path class="cls-3" d="M6,193.91a39.64,39.64,0,0,1,39.52-39.76C61.33,154.15,76,168,76,193.91Z"/><path class="cls-4" d="M76,449.1v0Zm-30.49-295H249.9v.26m0,0a39.58,39.58,0,0,1,4.51-.26c15.81,0,30.49,13.82,30.49,39.76V449.1"/><path class="cls-4" d="M146,449.1a39.64,39.64,0,0,1-39.52,39.76C90.69,488.86,76,475,76,449.1"/><path class="cls-3" d="M115.61,487.88c-.52.21-9.12,1,.19,1H290.55a39.64,39.64,0,0,0,39.52-39.76H146C144.08,468.11,134,480.43,115.61,487.88Z"/><path class="cls-5" d="M122.41,210.93H241.48"/><path class="cls-5" d="M122.41,267.24H241.48"/><path class="cls-5" d="M122.41,323.54H241.48"/><path class="cls-5" d="M122.41,377.33h74.38"/><path class="cls-6" d="M399.49,358.56a4.39,4.39,0,0,1-1.29-3.12V332.35l-17.41-17.41a4.41,4.41,0,0,1,0-6.23l17.41-17.4v-23.1a4.39,4.39,0,0,1,4.4-4.4h23.1l17.4-17.41a4.41,4.41,0,0,1,6.23,0l17.4,17.41h23.1a4.4,4.4,0,0,1,4.41,4.4v23.1l17.4,17.4a4.41,4.41,0,0,1,0,6.23l-17.4,17.41v23.09a4.4,4.4,0,0,1-4.41,4.41h-23.1l-17.4,17.4a4.41,4.41,0,0,1-6.23,0l-17.4-17.4H402.6A4.37,4.37,0,0,1,399.49,358.56Z"/><path class="cls-7" d="M465.66,360.29l-16.33,16.33a4.41,4.41,0,0,1-6.23,0l-16.33-16.33H411V428l35.25-22,35.24,22V360.29Z"/><path class="cls-6" d="M319,477.8c25.88,7.09,57.76,11.06,96.57,11.06,144.86,0,193.15-55.33,193.15-121.72,0-88.52-136.34-232.38-136.34-232.38H358.8a915.1,915.1,0,0,0-71.54,87.67"/><polyline class="cls-6" points="471.94 134.76 512.18 54.29 463.89 38.19"/><polyline class="cls-6" points="367.32 38.19 319.03 54.29 359.27 134.76"/><polyline class="cls-6" points="383.41 70.38 351.22 6 479.99 6 447.8 70.38"/><polygon class="cls-8" points="508.81 177.85 324.52 174.03 359.27 134.76 473.95 134.76 508.81 177.85"/></g></g></svg>