<svg width="660" height="660" viewBox="0 0 660 660" fill="none" xmlns="http://www.w3.org/2000/svg">
<path fill-rule="evenodd" clip-rule="evenodd" d="M286.66 219.99H280.007V213.337H286.66V206.667H280.007V199.997H286.66V193.343H293.33V186.674H286.66V193.327H280.007V186.674H286.66V180H279.99V186.67H273.337V193.323H266.667V186.67H259.997V193.323H253.344V186.67H259.997V180H253.327V186.67H246.674V180H240V186.67H246.67V193.323H240V199.994H246.67V206.663H240V213.333H246.67V219.987V220.003H253.323V226.657H259.993V220.003H266.663V226.657H273.334V220.003H279.987V226.657H286.657V220.003H293.327V213.333H286.657V219.99H286.66ZM246.67 220.006V226.66H240V219.99H246.67V220.006ZM266.663 186.67V180H273.334V186.67H266.663ZM286.66 199.994V206.663H293.33V199.994H286.66ZM253.323 193.34H246.67V199.994H253.323V193.34ZM253.34 226.66V233.33H259.993V226.66H266.663V233.33H273.334V226.66H280.004V233.33H286.657V226.66H293.327V233.33H286.657V240H279.987V233.33H273.334V240H266.663V233.33H259.993V240H253.323V233.33H246.67V240H240V233.33H246.67V226.66H253.34ZM279.987 213.337V206.667H273.334V213.337H279.987ZM266.663 213.337V219.99H273.334V213.337H266.663ZM259.993 213.337H266.663V206.667H259.993V213.337ZM259.993 213.337H253.34V219.99H259.993V213.337ZM259.993 199.994H253.34V206.663H259.993V199.994ZM266.663 199.994V193.34H259.993V199.994H266.663ZM273.337 199.994H266.667V206.663H273.337V199.994ZM273.337 199.994H279.99V193.34H273.337V199.994ZM253.323 206.663V213.333H246.67V206.663H253.323ZM300 186.67H293.33V180H300V186.67ZM293.33 199.994H300V193.323H293.33V199.994ZM300 213.337H293.33V206.667H300V213.337ZM293.33 226.66H300V219.99H293.33V226.66ZM293.33 240H300V233.33H293.33V240Z" fill="#1F242C"/>
<path fill-rule="evenodd" clip-rule="evenodd" d="M646.66 159.59H640.007V152.937H646.66V146.267H640.007V139.597H646.66V132.944H653.33V126.274H646.66V132.927H640.007V126.274H646.66V119.6H639.99V126.27H633.337V132.923H626.667V126.27H619.997V132.923H613.344V126.27H619.997V119.6H613.327V126.27H606.674V119.6H600V126.27H606.67V132.923H600V139.594H606.67V146.263H600V152.933H606.67V159.587V159.603H613.323V166.257H619.993V159.603H626.663V166.257H633.334V159.603H639.987V166.257H646.657V159.603H653.327V152.933H646.657V159.59H646.66ZM606.67 159.606V166.26H600V159.59H606.67V159.606ZM626.663 126.27V119.6H633.334V126.27H626.663ZM646.66 139.594V146.263H653.33V139.594H646.66ZM613.323 132.94H606.67V139.594H613.323V132.94ZM613.34 166.26V172.93H619.993V166.26H626.663V172.93H633.334V166.26H640.004V172.93H646.657V166.26H653.327V172.93H646.657V179.6H639.987V172.93H633.334V179.6H626.663V172.93H619.993V179.6H613.323V172.93H606.67V179.6H600V172.93H606.67V166.26H613.34ZM639.987 152.937V146.267H633.334V152.937H639.987ZM626.663 152.937V159.59H633.334V152.937H626.663ZM619.993 152.937H626.663V146.267H619.993V152.937ZM619.993 152.937H613.34V159.59H619.993V152.937ZM619.993 139.594H613.34V146.263H619.993V139.594ZM626.663 139.594V132.94H619.993V139.594H626.663ZM633.337 139.594H626.667V146.263H633.337V139.594ZM633.337 139.594H639.99V132.94H633.337V139.594ZM613.323 146.263V152.933H606.67V146.263H613.323ZM660 126.27H653.33V119.6H660V126.27ZM653.33 139.594H660V132.923H653.33V139.594ZM660 152.937H653.33V146.267H660V152.937ZM653.33 166.26H660V159.59H653.33V166.26ZM653.33 179.6H660V172.93H653.33V179.6Z" fill="#4038FF"/>
<path fill-rule="evenodd" clip-rule="evenodd" d="M166.66 579.59H160.007V572.937H166.66V566.267H160.007V559.597H166.66V552.944H173.33V546.274H166.66V552.927H160.007V546.274H166.66V539.6H159.99V546.27H153.337V552.923H146.667V546.27H139.997V552.923H133.344V546.27H139.997V539.6H133.327V546.27H126.674V539.6H120V546.27H126.67V552.923H120V559.594H126.67V566.264H120V572.933H126.67V579.587V579.603H133.323V586.257H139.993V579.603H146.663V586.257H153.334V579.603H159.987V586.257H166.657V579.603H173.327V572.933H166.657V579.59H166.66ZM126.67 579.606V586.26H120V579.59H126.67V579.606ZM146.663 546.27V539.6H153.334V546.27H146.663ZM166.66 559.594V566.264H173.33V559.594H166.66ZM133.323 552.94H126.67V559.594H133.323V552.94ZM133.34 586.26V592.93H139.993V586.26H146.663V592.93H153.334V586.26H160.004V592.93H166.657V586.26H173.327V592.93H166.657V599.6H159.987V592.93H153.334V599.6H146.663V592.93H139.993V599.6H133.323V592.93H126.67V599.6H120V592.93H126.67V586.26H133.34ZM159.987 572.937V566.267H153.334V572.937H159.987ZM146.663 572.937V579.59H153.334V572.937H146.663ZM139.993 572.937H146.663V566.267H139.993V572.937ZM139.993 572.937H133.34V579.59H139.993V572.937ZM139.993 559.594H133.34V566.264H139.993V559.594ZM146.663 559.594V552.94H139.993V559.594H146.663ZM153.337 559.594H146.667V566.264H153.337V559.594ZM153.337 559.594H159.99V552.94H153.337V559.594ZM133.323 566.264V572.933H126.67V566.264H133.323ZM180 546.27H173.33V539.6H180V546.27ZM173.33 559.594H180V552.923H173.33V559.594ZM180 572.937H173.33V566.267H180V572.937ZM173.33 586.26H180V579.59H173.33V586.26ZM173.33 599.6H180V592.93H173.33V599.6ZM353.33 240H360V300H353.33V240ZM346.667 240H340V300H346.667V240ZM333.334 240H326.667V300H333.334V240ZM313.333 240H320V300H313.333V240ZM306.667 240H300V300H306.667V240Z" fill="#1F242C"/>
<path fill-rule="evenodd" clip-rule="evenodd" d="M300 473.33V480H240V473.33H300ZM300 466.667V460H240V466.667H300ZM300 453.333V446.667H240V453.333H300ZM300 433.333V440H240V433.333H300ZM300 426.667V420H240V426.667H300ZM600 293.33V300H540V293.33H600ZM600 286.667V280H540V286.667H600ZM600 273.333V266.667H540V273.333H600ZM600 253.333V260H540V253.333H600ZM600 246.667V240H540V246.667H600Z" fill="white"/>
<path fill-rule="evenodd" clip-rule="evenodd" d="M600 413.333V420C633.137 420 660 393.137 660 360H653.333C653.333 389.457 629.457 413.333 600 413.333ZM600 400V406.667C625.773 406.667 646.667 385.773 646.667 360H640C640 382.09 622.09 400 600 400ZM600 393.333V386.666C614.727 386.666 626.667 374.727 626.667 360H633.333C633.333 378.41 618.41 393.333 600 393.333ZM600 373.333V380C611.047 380 620 371.047 620 360H613.333C613.333 367.363 607.363 373.333 600 373.333ZM600 360V366.667C603.683 366.667 606.667 363.683 606.667 360H600Z" fill="#1F242C"/>
<path d="M479 419.6V359.6H539C539 392.737 512.137 419.6 479 419.6Z" fill="#4038FF"/>
<path d="M120 240V300H60C60 266.863 86.8635 240 120 240Z" fill="#4038FF"/>
<path d="M480.6 60L420.6 60V0C453.736 0 480.6 26.8635 480.6 60Z" fill="#1F242C"/>
<path fill-rule="evenodd" clip-rule="evenodd" d="M6.66993 120H0V180H6.66993V120ZM26.6733 120H33.3432V180H26.6733V120ZM46.6767 120H40.0068V180H46.6767V120ZM60 120H53.3301V180H60V120ZM13.3399 120H20.0098V180H13.3399V120Z" fill="#1F242C"/>
<path fill-rule="evenodd" clip-rule="evenodd" d="M606.67 480H600V540H606.67V480ZM626.673 480H633.343V540H626.673V480ZM646.677 480H640.007V540H646.677V480ZM660 480H653.33V540H660V480ZM613.34 480H620.01V540H613.34V480Z" fill="#4038FF"/>
<path d="M537.249 521.952C536.786 519.726 535.817 517.636 534.416 515.845L534.335 506.825C534.306 503.903 533.146 501.106 531.097 499.022L525.982 493.826L525.567 493.393C523.841 490.255 521.256 487.674 518.116 485.951C512.605 479.637 504.892 476.074 495.962 475.731C495.88 475.605 495.799 475.478 495.727 475.352C494.612 473.585 493.029 472.161 491.154 471.239C487.546 469.435 482.53 467.008 476.559 469.363C472.526 470.959 470.244 473.765 467.141 477.941C466.609 478.437 466.14 478.915 465.725 479.33L464.976 480.07C459.722 481.956 455.324 485.675 452.591 490.543C446.862 491.51 441.622 494.368 437.707 498.661C437.295 499.12 436.835 499.534 436.336 499.897C436.22 499.884 436.106 499.862 435.993 499.834C433.672 499.354 431.273 499.387 428.966 499.933C428.299 492.545 427.965 482.92 428.118 478.185C428.315 474.813 428.743 471.458 429.399 468.145C429.507 467.558 429.715 466.395 430.004 464.762C431.483 456.49 434.956 437.114 437.689 419.091C439.241 408.835 440.323 400.527 440.909 394.384C441.586 387.249 441.757 382.468 440.765 378.806C440.279 375.931 439.171 373.197 437.518 370.795C437.382 370.507 437.247 370.227 437.103 369.956C433.145 357.785 426.242 346.78 417.005 337.92C407.769 329.06 396.487 322.619 384.161 319.171C381.293 316.88 378.373 314.685 375.402 312.586C375.47 311.409 375.672 310.244 376.007 309.113C377.318 305.675 378.874 302.335 380.661 299.118C382.114 296.349 383.611 293.48 384.955 290.386C387.562 284.547 389.66 278.492 391.224 272.291C392.049 268.479 392.514 264.599 392.614 260.7C392.677 259.356 392.74 258.084 392.839 256.893C392.938 255.702 393.065 254.755 393.155 254.187C393.669 253.989 394.463 253.727 395.681 253.384C400.597 252.004 403.555 248.233 404.457 242.181C404.457 242.054 404.457 241.937 404.512 241.82C405.044 239.487 404.819 237.044 403.871 234.847L412.134 233.223C414.488 232.761 416.633 231.56 418.257 229.794C419.882 228.029 420.901 225.792 421.166 223.408C421.432 221.023 420.93 218.617 419.734 216.537C418.538 214.458 416.71 212.814 414.515 211.845L412.107 210.78L420.893 205.188C422.399 204.222 423.662 203.383 424.501 202.833C426.377 201.615 432.096 197.881 430.815 190.52C430.419 188.32 429.377 186.287 427.822 184.681C426.267 183.075 424.27 181.967 422.084 181.5C420.469 181.157 416.446 181.229 411.539 181.5C425.791 166.372 425.863 166.093 426.639 162.944C427.183 160.736 427.047 158.415 426.249 156.285C425.45 154.155 424.025 152.317 422.163 151.011C420.3 149.706 418.086 148.994 415.812 148.97C413.538 148.946 411.309 149.61 409.419 150.875L393.047 161.7C397.485 152.003 402.184 141.358 403.474 137.732C404.316 135.381 404.353 132.817 403.581 130.443C402.808 128.068 401.269 126.018 399.205 124.612C397.141 123.207 394.669 122.526 392.177 122.677C389.684 122.828 387.312 123.802 385.433 125.446C382.637 127.882 377.243 134.521 365.904 149.603C365.904 148.827 365.904 148.07 365.904 147.348C365.994 132.617 365.904 129.731 362.629 126.087C361.622 124.978 360.405 124.078 359.049 123.441C357.693 122.803 356.224 122.439 354.727 122.37C354.583 122.37 354.421 122.37 354.258 122.37L355.981 109.579C356.055 109.044 356.088 108.504 356.08 107.964C356.08 106.494 356.08 105.033 356.017 103.571V102.254C356.42 100.473 356.692 98.6637 356.829 96.8421C357.776 83.5729 352.914 70.3127 343.145 59.5061C339.034 55.0097 334.546 50.8723 329.731 47.139C327.71 45.6989 325.535 44.4887 323.246 43.5308C310.617 36.9548 299.441 33.1752 289.166 31.9935C285.546 30.6763 281.724 30.0017 277.872 30C265.668 30 249.332 37.7847 243.342 49.2588C243.053 49.5836 242.774 49.8993 242.512 50.224C242.25 50.5487 242.124 50.7201 241.944 50.9817L229.198 69.4648C225.837 72.7262 223.41 76.8283 222.171 81.3448C220.962 84.6784 220.351 88.1994 220.367 91.7455C220.376 93.4236 220.524 95.0981 220.809 96.7519C221.575 101.424 223.957 105.872 226.221 110.165C226.87 111.374 227.736 112.998 228.458 114.495C210.76 118.726 193.513 123.516 175.814 129.208C172.036 130.351 168.534 132.259 165.525 134.813C162.516 137.367 160.065 140.513 158.324 144.055C153.705 153.351 151.532 163.671 152.009 174.04C152.505 182.068 155.202 189.799 157.584 196.591C158.486 199.054 159.253 201.372 159.92 203.573C161.39 208.426 162.78 213.017 163.844 217.654C165.161 223.355 165.486 229.299 165.838 235.587C166.054 239.556 166.28 243.705 166.74 247.9C167.966 258.535 171.25 268.412 174.425 277.965L175.562 281.384C176.707 285.151 177.643 288.979 178.367 292.849C179.08 296.295 179.81 299.858 180.848 303.565C183.289 312.032 186.377 320.298 190.085 328.291C192.096 332.747 193.125 338.06 194.207 343.689C194.676 346.106 195.109 348.596 195.732 351.113C196.047 352.484 196.354 353.864 196.634 355.244C198.51 363.633 200.449 372.302 203.796 380.637C207.535 389.726 211.781 398.598 216.515 407.211C222.234 418.37 230.145 432.297 241.538 443.41L243.261 451.376C237.74 454.831 231.985 458.204 226.41 461.479C224.101 462.832 221.801 464.188 219.51 465.547C219.374 465.628 219.23 465.709 219.104 465.799L216.398 467.549C214.404 468.866 212.519 470.102 210.597 471.311C208.126 472.863 205.546 474.423 203.056 475.939L199.701 477.977C198.782 478.568 197.955 479.292 197.247 480.124L186.422 486.907C185.901 487.238 185.407 487.609 184.943 488.017L184.041 488.856C173.956 492.464 163.664 496.478 153.371 500.718C149.826 501.25 146.155 501.954 141.816 502.901C139.053 503.557 136.341 504.407 133.697 505.445C132.795 505.778 131.893 506.103 130.991 506.41L130.685 506.518L129.737 506.852C127.257 507.67 125.138 509.325 123.742 511.533C122.347 513.741 121.762 516.366 122.088 518.957C122.241 520.22 122.323 521.664 122.413 523.224C122.413 523.991 122.503 524.758 122.557 525.524C122.37 528.668 122.885 531.814 124.064 534.734C124.415 535.946 124.852 537.13 125.372 538.279C128.15 544.305 133.725 550.006 140.643 554.047C147.075 557.755 153.425 554.751 157.223 552.965C157.9 552.64 158.838 552.198 159.226 552.063C160.216 551.727 161.155 551.254 162.013 550.656L181.407 537.179C181.687 536.989 181.948 536.782 182.201 536.574C182.679 536.178 183.148 535.781 183.599 535.384C187.848 533.742 191.907 532.218 195.876 530.774C201.478 535.925 208.333 537.846 216.262 536.502C217.922 536.214 219.609 535.97 221.386 535.708L223.794 535.357C224.564 535.238 225.32 535.042 226.05 534.77L235.792 531.162C234.409 533.232 232.902 535.217 231.282 537.107C230.479 538.072 229.685 539.046 228.909 540.02C227.623 541.644 226.808 543.59 226.554 545.645C226.299 547.701 226.615 549.787 227.466 551.675C227.61 551.991 227.773 552.306 227.917 552.577C228.749 554.18 229.954 555.56 231.432 556.599C232.909 557.638 234.615 558.307 236.405 558.548C243.614 559.545 250.649 561.543 257.306 564.484L276.177 576.436C284.809 583.156 291.602 592.52 296.383 604.273C297.409 606.798 299.316 608.865 301.75 610.092C301.846 610.145 301.946 610.193 302.048 610.236C311.201 614.89 320.665 618.904 330.372 622.251C330.615 622.342 330.859 622.414 331.112 622.486C345.767 626.413 360.764 628.93 375.898 630H376.584H379.218C395.996 629.972 412.736 628.38 429.219 625.246L429.859 625.102C453.313 619.275 474.899 610.443 500.219 598.942C502.667 597.835 504.639 595.889 505.779 593.456C506.918 591.023 507.151 588.263 506.434 585.673L502.655 571.998C502.437 571.198 502.135 570.424 501.753 569.689L498.884 564.331C499.994 563.961 500.95 563.591 501.726 563.284C504.197 562.448 506.735 561.823 509.312 561.417C511.333 561.029 513.425 560.623 515.626 560.073C517.837 559.469 519.994 558.685 522.076 557.728L523.528 557.123C532.765 553.353 537.059 544.134 533.974 534.707C535.43 532.956 536.478 530.903 537.045 528.698C537.611 526.492 537.681 524.188 537.249 521.952ZM235.061 188.942C241.439 185.081 246.373 180.462 251.145 175.988L253.571 173.733C255.896 171.648 258.345 169.705 260.905 167.915C261.255 168.023 261.61 168.113 261.969 168.185L269.077 169.656L269.447 169.737C268.409 171.198 267.738 172.887 267.49 174.662C267.257 176.267 267.373 177.904 267.829 179.46C268.285 181.017 269.071 182.457 270.133 183.683C271.423 185.162 272.677 186.614 273.922 188.058L276.628 191.242H274.472C274.201 191.242 273.922 191.242 273.642 191.242L267.706 191.72C265.557 191.891 263.502 192.676 261.786 193.981C260.069 195.285 258.763 197.055 258.022 199.08C257.281 201.105 257.137 203.299 257.606 205.404C258.076 207.508 259.139 209.434 260.67 210.952C261.87 212.151 263.043 213.432 264.279 214.794C267.05 217.997 270.122 220.927 273.452 223.544C273.398 223.788 273.344 224.049 273.29 224.32C272.672 226.829 272.369 229.404 272.388 231.988C272.505 236.146 272.875 240.187 273.218 244.093C273.353 245.536 273.479 246.971 273.597 248.414C273.597 248.829 273.597 249.235 273.642 249.65C273.687 250.498 273.723 251.3 273.714 251.95C273.501 257.047 273.785 262.153 274.562 267.195C273.66 266.554 272.839 265.914 271.964 265.282C266.552 259.374 263.728 254.458 262.718 249.433C262.61 248.894 262.462 248.363 262.276 247.846C261.518 245.726 260.733 243.615 259.949 241.531C258.253 236.94 256.647 232.61 255.312 228.235C251.665 216.143 245.003 205.176 235.954 196.365C234.195 194.747 232.905 192.684 232.22 190.394C233.204 189.96 234.164 189.476 235.097 188.942H235.061Z" fill="black"/>
<path d="M375.042 216.508C375.168 215.751 374.988 214.56 370.351 210.257C366.129 206.324 363.766 204.971 364.109 204.006C364.56 202.707 369.169 204.276 370.351 202.445C371.253 201.074 369.656 198.639 365.669 193.073C357.632 181.851 355.999 180.138 354.727 180.571C354.15 180.769 353.492 181.473 353.167 183.692L367.23 200.885C363.622 197.755 352.13 188.382 350.046 186.822C347.487 186.019 345.281 184.363 343.795 182.131C341.503 178.342 343.019 174.536 340.674 172.759C339.69 172.019 337.967 171.532 334.422 172.759V179.01C335.457 183.177 336.497 187.342 337.543 191.503C334.358 189.554 331.681 186.877 329.732 183.692C327.449 179.885 327.567 177.377 325.041 175.88C321.721 173.922 316.39 175.257 315.669 177.449C314.947 179.641 319.205 181.4 318.799 185.261C318.609 186.957 316.192 204.006 315.669 208.715C313.865 200.668 312.548 191.521 312.548 191.521C312.39 189.863 311.856 188.262 310.987 186.84C310.374 185.938 308.858 183.746 306.296 183.71C304.204 183.71 301.903 185.117 301.606 186.84C301.272 188.806 303.816 189.654 304.736 193.091C305.09 194.631 305.09 196.232 304.736 197.773C304.176 201.282 303.644 206.568 303.175 214.966L296.924 197.782C295.783 198.078 294.717 198.609 293.794 199.342C292.852 200.096 292.085 201.045 291.546 202.125C291.007 203.204 290.709 204.388 290.673 205.593C290.673 207.452 291.421 208.345 292.233 210.284C293.444 213.253 293.977 216.455 293.794 219.656C292.892 218.953 290.682 217.365 289.112 218.096C288.264 218.493 287.218 220.207 288.21 220.856C288.752 221.307 289.396 221.616 290.086 221.758C290.165 221.537 290.306 221.343 290.492 221.199C290.709 221.07 290.969 221.031 291.214 221.091C291.663 221.261 292.058 221.547 292.36 221.921C292.982 222.561 293.586 223.725 294.47 223.995C296.13 224.573 297.988 223.851 299.603 224.699C300.559 225.218 301.383 225.949 302.012 226.837C303.107 228.343 303.777 230.115 303.951 231.969C303.956 232.008 303.956 232.048 303.951 232.087C304.127 232.469 304.254 232.872 304.33 233.286C304.461 234.14 304.41 235.011 304.18 235.843C303.95 236.674 303.546 237.448 302.995 238.112C303.204 238.265 303.389 238.447 303.545 238.654C303.837 239.077 303.982 239.584 303.957 240.097C303.933 240.611 303.741 241.102 303.41 241.495C302.616 242.33 301.558 242.866 300.415 243.011C300.1 243.042 299.783 243.042 299.468 243.011C298.912 243.117 298.345 243.147 297.781 243.101C297.031 242.989 296.317 242.709 295.692 242.281C295.067 241.852 294.547 241.288 294.173 240.629C293.755 239.913 293.382 239.172 293.054 238.41L293 238.293L292.784 238.239C292.498 238.111 292.241 237.925 292.03 237.694C291.819 237.463 291.658 237.191 291.557 236.895C291.122 235.253 290.82 233.579 290.655 231.888C290.581 231.106 290.636 230.317 290.817 229.552C291.034 228.776 291.485 228.091 291.647 227.297C291.773 226.692 291.963 226.575 292.441 226.241C293.063 225.799 292.513 225.141 291.936 225.078C291.375 225.103 290.836 225.301 290.393 225.646C289.754 225.99 289.057 226.213 288.336 226.305C288.03 226.35 287.678 226.386 287.507 226.638C287.391 226.86 287.359 227.116 287.416 227.36C287.633 229.074 287.741 230.761 287.894 232.475C288.05 235.288 288.748 238.045 289.951 240.593C290.245 241.155 290.58 241.695 290.952 242.208C291.706 243.22 292.661 244.064 293.758 244.688C297.15 246.61 302.778 246.98 304.7 244.688C305.223 244.075 305.602 243.083 306.26 243.128C307.108 243.191 307.767 245.076 307.821 246.258C308.01 250.371 301.046 253.601 300.009 254.07C300.532 266.566 301.052 279.066 301.57 291.568C303.78 292.641 307.036 294.274 310.951 296.25C323.435 302.636 329.687 305.829 335.162 309.537C348.44 318.494 354.015 327.776 355.476 326.721C357.461 325.278 344.192 310.132 346.88 296.25C347.488 293.681 347.488 291.006 346.88 288.438C345.932 284.667 343.118 279.67 339.068 279.066C336.596 278.696 335.82 280.301 332.826 280.626C331.707 280.752 328.315 280.915 321.884 275.944C316.026 271.254 311.232 265.372 307.821 258.688C311.474 260.086 319.547 262.729 328.135 261.818C331.117 261.554 334.028 260.76 336.732 259.473C339.072 258.289 341.185 256.701 342.974 254.782C343.754 256.059 344.827 257.132 346.104 257.912C348.756 259.5 351.453 259.13 354.691 258.688C357.93 258.246 361.854 257.732 364.849 254.782C366.373 253.285 366.463 252.338 367.979 251.661C371.262 250.182 374.762 252.888 375.006 252.446C375.403 251.724 366.833 243.84 360.943 246.195C359.301 246.844 358.155 248.08 357.822 247.755C357.488 247.431 358.579 244.463 360.943 243.065C362.521 242.163 363.703 242.406 364.073 241.504C364.443 240.602 363.613 239.069 362.503 238.383C361.006 237.481 359.075 238.004 357.822 238.383C356.081 238.897 355.323 239.628 353.131 239.944C352.734 239.998 351.633 240.151 351.57 239.944C351.462 239.574 354.213 238.636 357.822 236.813C363.541 233.936 364.524 232.303 366.409 232.908C367.672 233.313 367.816 234.225 371.1 236.038C372.687 236.94 373.238 237.021 373.445 236.813C373.86 236.408 372.85 234.775 372.66 234.477C370.486 231.022 367.05 230.445 367.194 229.002C367.194 228.749 367.744 228.325 368.754 227.441C371.325 225.222 371.65 224.879 371.885 224.32C372.39 223.084 371.623 222.732 371.885 221.19C372.354 218.637 374.735 218.376 375.042 216.508ZM367.221 223.427C367.225 224.01 367.035 224.579 366.68 225.042C366.489 225.288 366.237 225.481 365.949 225.601C365.691 225.762 365.396 225.855 365.092 225.872C364.962 225.9 364.829 225.915 364.695 225.917C364.47 225.917 364.244 225.917 364.028 225.917H363.937H363.766H363.694C363.486 225.863 363.27 225.799 363.062 225.727L362.936 225.673H362.873L362.305 225.321L362.215 225.249C361.995 225.071 361.804 224.861 361.646 224.627C361.583 224.528 361.529 224.392 361.484 224.311C361.439 224.23 361.367 224.104 361.321 223.995V223.896C361.255 223.672 361.207 223.443 361.177 223.211C361.177 223.093 361.177 222.958 361.177 222.859C361.168 222.745 361.168 222.63 361.177 222.516C361.216 222.237 361.298 221.966 361.421 221.713C361.421 221.713 361.421 221.668 361.421 221.641L361.791 221.064C361.818 221.023 361.849 220.984 361.881 220.946C362.059 220.757 362.249 220.58 362.449 220.414L362.602 220.288C362.938 220.061 363.326 219.924 363.73 219.891H364.325C364.461 219.922 364.594 219.964 364.722 220.017H364.894C365.297 220.025 365.693 220.13 366.049 220.322C366.404 220.515 366.708 220.789 366.936 221.123C367.163 221.456 367.308 221.839 367.358 222.24C367.407 222.641 367.36 223.048 367.221 223.427Z" fill="#C4C3C6"/>
<path d="M412.539 371.183C411.033 369.027 403.744 372.392 403.167 371.183C402.49 369.776 412.674 365.771 412.539 360.25C412.458 356.795 408.372 354.315 407.848 353.999C404.583 352.015 402.382 353.034 398.476 352.439C396.807 352.186 394.678 351.609 379.731 339.936C375.347 336.517 373.164 334.812 371.92 333.685C365.479 327.885 364.965 325.639 359.417 321.191C356.136 318.528 352.444 316.417 348.484 314.94C345.217 313.714 341.801 312.926 338.327 312.595C349.35 322.436 358.948 331.655 367.193 339.936C367.193 339.936 371.279 344.446 379.055 358.419C380.011 360.142 381.247 363.047 380.173 364.995C379.1 366.944 376.177 367.377 374.31 367.855C357.306 372.239 338.147 364.887 321.883 360.25C303.995 355.145 295.056 352.592 293.757 352.439C288.642 351.807 283.582 351.636 279.694 347.748C278.124 346.178 277.809 345.042 277.132 343.165C280.151 345.539 283.718 347.115 287.506 347.748C289.578 348.054 291.684 348.054 293.757 347.748C305.953 346.305 319.916 355.235 346.879 363.371C350.27 364.4 355.051 365.762 357.821 363.371C360.851 360.756 359.859 355.009 359.381 352.439C358.073 345.385 353.734 334.452 334.385 318.061C325.203 310.304 315.257 303.501 304.699 297.756C300.657 295.528 271.323 279.417 260.949 275.881C259.38 275.34 256.051 274.402 254.698 275.881C253.345 277.361 254.698 280.969 255.483 282.908C257.188 287.139 259.28 289.223 260.949 291.505C266.596 299.299 266.452 308.527 266.416 311.034C266.348 315.053 265.553 319.026 264.07 322.761C263.98 321.994 263.827 320.957 263.61 319.649C263.258 317.502 262.807 315.274 261.734 311.043C260.891 307.342 259.846 303.689 258.604 300.102C257.983 298.214 257.198 296.385 256.258 294.635C252.65 288.384 246.137 284.451 245.326 285.263C244.676 285.912 248.158 290.413 248.492 291.216C251.793 298.974 252.659 307.589 252.425 315.951C252.244 322.184 252.867 332.99 245.326 335.254C238.885 337.194 234.185 334.145 230.117 333.171L229.359 332.999C228.614 332.807 227.847 332.716 227.077 332.729H226.41C222.666 331.331 221.106 334.461 219.581 336.337C219.377 336.527 219.185 336.729 219.004 336.941C215.071 341.307 213.357 349.029 213.591 355.316C213.591 355.506 213.591 355.695 213.591 355.884C213.591 356.074 213.591 356.489 213.646 356.786C213.817 358.966 214.564 361.061 215.81 362.857L216.027 363.489C216.929 365.798 218.174 368.549 219.572 371.977C223.758 382.215 225.886 387.312 227.384 393.852C228.475 399.535 230.313 405.05 232.85 410.251C233.649 411.924 234.597 413.521 235.683 415.023C239.291 419.84 243.052 421.337 248.474 430.565C251.309 435.44 253.416 440.704 254.725 446.189C258.017 458.818 254.59 473.972 253.164 485.248C251.567 498.221 251.567 511.342 253.164 524.316C276.1 528.769 298.226 536.676 318.789 547.769C341.34 560.01 367.5 579.233 370.341 575.886C372.082 573.829 362.719 565.639 365.659 557.141C367.292 552.424 371.117 552.189 371.911 547.769C373.155 540.742 364.342 536.62 365.659 532.145C367.68 525.254 390.213 529.349 392.216 522.764C393.614 518.191 384.476 510.397 379.722 507.141C374.481 503.532 372.56 504.101 370.341 500.889C366.39 495.161 368.104 486.971 368.78 483.705C370.242 476.705 372.641 476.011 371.911 472.772C370.215 465.258 356.278 464.41 356.287 460.27C356.287 457.347 365.217 458.096 371.911 450.898C373.823 448.832 376.872 445.557 376.592 441.525C376.213 435.914 369.845 435.121 367.22 427.462C366.643 425.775 364.802 420.399 367.22 416.52C371.315 409.971 383.737 413.931 385.974 408.709C387.561 404.983 381.689 401.943 382.843 396.215C383.132 394.772 383.646 394.258 393.785 385.273C399.369 380.321 402.211 377.84 404.718 377.462C407.027 377.119 409.174 377.552 410.969 375.901C412.377 374.584 413.36 372.293 412.539 371.183Z" fill="#C4C3C6"/>
<path d="M195.363 300.877C198.204 300.363 188.552 276.982 200.053 255.567C203.788 248.612 209.164 242.938 212.556 230.571C213.936 225.502 215.181 220.757 214.116 214.948C212.538 206.351 207.685 205.025 201.614 194.634C198.989 190.123 190.302 175.221 195.363 164.947C197.275 161.077 199.747 160.68 207.865 155.575C231.03 140.988 232.221 130.795 243.803 130.57C250.839 130.434 253.951 134.124 262.548 132.139C265.822 131.373 268.375 130.065 273.489 127.449C280.453 123.84 282.907 121.721 289.113 118.076C294.058 114.982 299.29 112.372 304.736 110.283C318.772 105.186 329.155 107.225 329.732 104.031C330.039 102.345 327.459 100.08 325.042 99.3408C320.531 97.9606 317.726 102.236 310.988 102.471C307.722 102.579 307.632 101.569 303.176 100.901C300.804 100.531 288.581 98.8897 279.723 105.592C275.69 108.659 276.583 110.247 271.911 113.404C267.509 116.381 263.251 117.301 259.417 118.094C253.103 119.393 250.983 118.582 242.224 119.655C242.224 119.655 238.661 120.097 232.852 121.216C223.489 123.02 203.03 128.955 176.609 138.4C172.599 140.495 169.328 143.769 167.237 147.781C164.945 152.454 166.127 155.07 165.667 166.526C165.207 178.153 163.701 182.763 165.667 183.665C168.779 185.171 174.237 174.554 181.291 175.853C183.537 176.268 184.899 177.657 187.542 180.543C189.229 182.348 192.449 185.775 194.28 189.411C194.425 189.69 194.551 189.979 194.677 190.259C195.936 192.527 196.829 194.981 197.32 197.529C197.383 197.836 197.455 198.143 197.519 198.431C197.766 198.883 197.963 199.361 198.105 199.856C198.176 200.042 198.236 200.232 198.285 200.425C199.26 203.131 200.829 206.297 200.829 209.445C198.176 208.146 195.87 206.236 194.1 203.871C193.974 203.726 193.838 203.6 193.685 203.42C192.377 202.166 191.168 200.93 189.977 200.47C189.711 200.489 189.448 200.538 189.193 200.614C184.989 201.814 179.73 202.626 176.564 207.109C173.578 211.385 174.561 216.129 176.564 227.414C182.454 260.664 179.865 253.041 182.815 264.912C183.555 267.718 191.998 301.518 195.363 300.877Z" fill="#C4C3C6"/>
<path d="M332.076 603.2C337.227 605.798 346.166 612.798 357.857 613.357C358.696 614.548 359.661 615.784 360.635 617.038C363.964 617.516 367.301 617.94 370.648 618.237C365.47 612.825 360.725 607.548 356.296 602.424C351.499 601.212 346.798 599.644 342.233 597.734C337.48 595.749 330.868 592.556 314.107 580.595C303.499 572.999 296.644 568.083 292.666 564.935C292.452 565.171 292.213 565.383 291.953 565.566C290.798 566.387 289.671 567.226 288.579 568.119C288.354 568.372 288.11 568.597 287.885 568.85C291.331 571.619 295.706 575.3 301.641 580.577C321.432 598.158 322.83 598.563 332.076 603.2Z" fill="#C4C3C6"/>
<path d="M376.603 593.052C369.855 590.544 368.033 589.786 365.67 588.361C363.433 587.012 361.339 585.441 359.418 583.671C362.579 583.943 365.714 584.468 368.791 585.24C371.981 586.093 375.117 587.138 378.181 588.37C382.8 590.084 386.994 591.663 390.675 593.061L396.926 597.743L415.67 593.061C412.559 593.465 409.409 593.465 406.298 593.061C401.184 592.384 398.18 590.842 392.235 588.37C392.235 588.37 385.226 585.484 375.051 582.119C369.422 580.265 363.702 578.702 357.912 577.437L350.1 571.186C343.191 566.333 337.057 562.445 332.131 559.46C312.791 547.733 311.962 550.195 307.911 546.172C307.496 545.757 305.954 544.197 304.79 544.612C302.806 545.324 304.691 550.719 301.66 553.984C300.972 554.7 300.147 555.27 299.234 555.66C298.322 556.051 297.34 556.254 296.347 556.257C296.347 556.32 296.401 556.365 296.419 556.429C296.571 556.924 296.621 557.445 296.565 557.959C296.509 558.474 296.349 558.972 296.094 559.423C295.931 559.695 295.744 559.951 295.535 560.19C297.267 561.85 298.404 563.221 300.1 564.926C303.581 568.417 306.63 570.428 312.602 574.298C319.818 578.98 326.972 583.598 334.477 588.361L343.849 589.922C345.148 590.95 349.072 593.972 350.1 593.052C350.149 593.002 350.188 592.944 350.218 592.881C350.723 591.888 348.332 590.057 346.185 587.576C345.003 586.22 343.96 584.749 343.073 583.183C332.718 573.342 323.733 568.002 317.275 564.926C314.027 563.374 307.487 560.524 307.902 558.675C308.2 557.367 311.853 557.159 312.593 557.114C317.455 556.834 321.316 558.918 323.526 560.235C329.872 564.117 335.656 568.848 340.719 574.298C344.21 576.599 347.881 579.187 351.652 582.11C355.062 584.753 358.183 587.378 361.024 589.922L378.181 600.864L398.486 602.424C395.456 600.681 392.326 599.114 389.114 597.734C386.164 596.489 385.226 596.245 376.603 593.052Z" fill="#C4C3C6"/>
<path d="M267.229 547.778C267.139 547.074 268.474 546.38 268.79 546.208C272.885 544.07 281.509 550.268 284.413 552.46C286.325 553.429 288.169 554.526 289.934 555.743C291.279 556.059 292.474 556.83 293.317 557.926V557.836C293.313 557.821 293.313 557.806 293.317 557.791V557.628C293.307 557.575 293.307 557.52 293.317 557.466L293.235 557.258C293.204 557.222 293.177 557.183 293.154 557.141C293.1 557.06 293.046 556.97 292.983 556.889C292.92 556.807 292.838 556.735 292.784 556.654L292.73 556.6C292.537 556.411 292.332 556.233 292.117 556.068C291.804 555.799 291.609 555.418 291.572 555.007C291.535 554.597 291.659 554.188 291.918 553.867C291.996 553.78 292.087 553.706 292.189 553.65C291.738 552.595 291.675 551.494 292.189 550.944C293.019 550.042 295.572 550.583 298.44 552.505C298.963 550.421 299.478 548.337 300.001 546.253L298.44 543.132L282.817 535.321C274.382 533.787 264.911 531.712 253.13 529.069V536.881L248.439 538.442V547.778C249.928 548.076 252.111 548.563 254.691 549.338C262.764 551.756 269.8 555.445 279.118 562.211C280.772 560.327 282.657 558.66 284.729 557.249C281.166 553.641 276.611 549.925 271.875 549.338C271.054 549.194 267.383 548.851 267.229 547.778Z" fill="#C4C3C6"/>
<path d="M397.123 615.08L404.34 617.48L407.199 617.182L411.98 613.574C414.449 613.804 416.935 613.804 419.404 613.574C430.734 612.5 438.942 606.727 443.146 603.182L444.048 602.036C444.499 601.378 445.257 600.232 446.114 598.735C455.071 583.102 449.117 575.904 455.017 560.154C457.407 553.75 460.339 549.275 459.464 542.348C459.166 539.957 458.706 539.641 457.985 534.924C457.579 532.281 456.731 526.336 456.496 521.573C455.901 509.45 458.86 502.342 457.11 501.62C456.37 501.313 454.773 502.143 450.867 507.871C452.223 514.845 453.127 521.898 453.574 528.988C454.476 543.836 452.825 549.735 450.606 554.246C449.879 555.708 449.047 557.116 448.116 558.458L442.226 564.655L435.695 573.532C434.076 577.531 431.535 581.092 428.28 583.923C424.762 586.891 420.793 588.506 420.856 591.338C420.856 593.277 422.777 594.134 422.345 595.794C421.948 597.283 420.125 597.752 417.888 598.762C413.117 600.909 413.144 602.469 408.985 604.697C405.963 606.312 403.383 606.862 398.603 607.665C393.127 608.567 385.613 609.695 376.34 610.633L389.69 618.048L397.123 615.08Z" fill="#C4C3C6"/>
<path d="M425.088 569.617C426.601 558.482 427.384 547.261 427.433 536.024C427.433 528.555 427.163 521.501 426.648 514.925H436.021C437.59 516.946 437.96 518.461 437.581 519.616C437.202 520.77 436.048 521.176 434.46 522.737C433.152 524.104 432.095 525.692 431.339 527.428C429.779 531.09 430.69 534.87 431.339 536.8L425.088 569.617Z" fill="#C4C3C6"/>
<path d="M448.477 510.244L443.011 509.459L440.665 511.804V524.325C440.864 542.456 438.437 550.295 435.975 554.002C435.578 554.597 434.053 556.798 434.414 557.132C434.919 557.592 439.421 554.597 442.226 550.881C447.223 544.26 445.185 537.612 446.917 521.194C447.431 516.296 448.08 512.417 448.477 510.244Z" fill="white"/>
<path d="M481.168 595.127C484.83 593.539 488.483 591.924 492.128 590.283C489.534 581.278 486.141 572.524 481.989 564.123C479.225 568.895 477.714 574.288 477.596 579.801C477.596 585.808 479.4 589.218 480.897 594.17L481.168 595.127Z" fill="#C4C3C6"/>
<path d="M373.482 183.692H381.384L414.101 157.135L370.613 183.692H373.482Z" fill="#C4C3C6"/>
<path d="M375.041 182.916L385.198 178.225C395.355 170.937 405.509 163.645 415.661 156.35L372.182 182.916H375.041Z" fill="white"/>
<path d="M381.293 197.755L389.105 202.445L420.352 189.943L381.293 197.755Z" fill="#C4C3C6"/>
<path d="M357.857 177.449L392.36 129.271L353.166 175.88L357.857 177.449Z" fill="#C4C3C6"/>
<path d="M382.854 235.253L395.356 243.065L382.854 232.132V235.253Z" fill="#C4C3C6"/>
<path d="M385.975 216.508L410.979 222.76L385.975 213.378V216.508Z" fill="#C4C3C6"/>
<path d="M290.672 211.818L267.236 200.885L288.85 202.445L290.672 211.818Z" fill="#C4C3C6"/>
<path d="M298.485 188.382L278.955 173.886L300.325 183.692L298.485 188.382Z" fill="#C4C3C6"/>
<path d="M314.109 175.88L307.857 164.947L310.988 163.386L316.977 173.886L314.109 175.88Z" fill="#C4C3C6"/>
<path d="M334.421 169.638L328.17 154.005L329.73 152.445L337.542 168.068L351.605 130.57L341.187 169.638H334.854H334.421Z" fill="#C4C3C6"/>
<path d="M290.682 129.009C290.358 130.092 291.585 131.427 293.804 133.7C296.032 136.213 298.674 138.328 301.615 139.951C309.157 144.055 320.324 146.121 321.93 143.072C322.326 142.315 322.281 140.97 320.369 138.382L304.736 127.422C293.867 126.565 291.07 127.71 290.682 129.009Z" fill="#C4C3C6"/>
<path d="M323.48 133.736C323.85 132.302 325.284 132.455 326.61 130.606C327.431 129.478 327.693 127.755 328.171 124.364C328.748 120.223 328.613 118.888 329.731 118.112C330.186 117.78 330.734 117.601 331.296 117.601C331.859 117.601 332.407 117.78 332.861 118.112C333.43 118.717 333.087 119.682 332.861 121.234C332.338 124.715 333.303 124.959 332.861 127.485C332.654 128.657 332.428 128.712 329.731 133.736C327.657 137.615 327.368 138.355 326.61 138.418C325.05 138.517 322.966 135.693 323.48 133.736Z" fill="#C4C3C6"/>
<path d="M462.54 508.674C461.211 506.299 460.661 503.566 460.971 500.862C461.432 497.294 463.092 493.989 465.679 491.49C467.935 489.379 468.386 490.317 470.37 488.369C474.186 484.616 473.23 480.44 476.621 478.996C477.523 478.6 479.039 478.293 479.742 478.996C480.446 479.7 479.959 481.468 479.742 482.118C478.561 485.663 475.99 485.6 475.052 488.369C474.114 491.138 476.297 493.096 475.052 494.62C473.807 496.144 470.803 494.413 468.81 496.181C467.664 497.182 468.07 498.264 467.24 502.432C466.825 504.525 465.707 510.171 464.119 510.244C463.497 510.271 463.018 509.477 462.54 508.674Z" fill="#C4C3C6"/>
<path d="M475.196 507.357C474.52 506.87 474.781 505.968 475.196 505.327C476.013 504.209 477.053 503.271 478.25 502.574C479.447 501.877 480.775 501.436 482.151 501.277C483.892 501.034 485.669 501.178 487.428 501.097C489.15 501.125 490.835 500.6 492.236 499.599C493.138 498.788 493.625 497.642 494.69 496.893C496.011 496.199 497.506 495.901 498.992 496.036C501.714 496.064 504.429 496.311 507.111 496.776C508.428 497.01 509.763 497.272 511.044 497.678C511.044 497.678 513.903 498.797 513.452 498.914C509.423 499.942 505.457 501.13 501.554 502.477C493.436 505.264 485.038 508.791 476.342 507.691C475.939 507.67 475.547 507.555 475.196 507.357Z" fill="#C4C3C6"/>
<path d="M476.604 518.055C476.352 518.723 474.89 522.773 476.604 524.307C477.831 525.407 480.131 524.685 481.286 524.307C493.446 520.301 499.525 518.299 500.04 518.055C514.148 511.344 520.633 509.747 520.345 507.113C520.218 505.941 518.73 504.507 517.224 503.992C516.207 503.679 515.119 503.679 514.103 503.992C510.721 504.979 507.543 506.565 504.721 508.674C499.462 510.857 493.725 512.977 487.582 514.925C483.776 516.116 480.113 517.108 476.604 518.055Z" fill="#C4C3C6"/>
<path d="M482.819 536.8C482.362 536.411 481.989 535.935 481.72 535.398C481.452 534.862 481.295 534.277 481.258 533.679C481.159 530.973 484.118 529.169 484.388 528.988C490.08 527.004 494.879 525.434 498.442 524.306C508.825 521.005 503.611 523.035 509.384 521.176C514.391 519.571 518.585 517.956 521.887 519.616C523.059 520.202 523.348 520.825 523.447 521.176C523.934 522.981 521.273 525.1 520.317 525.867C515.022 530.098 509.014 529.376 500.012 532.118C490.748 534.933 485.742 539.172 482.819 536.8Z" fill="#C4C3C6"/>
<path d="M484.416 552.424C483.974 551.278 485.895 549.375 487.537 547.742C488.859 546.375 490.458 545.308 492.228 544.612C495.421 543.43 496.576 544.738 501.6 544.612C504.777 544.482 507.925 543.958 510.972 543.051C515.14 541.906 517.99 540.48 518.784 541.491C519.154 541.96 518.901 542.717 518.784 543.051C517.521 546.723 510.891 548.518 507.851 549.302C498.353 551.747 485.426 555.076 484.416 552.424Z" fill="#C4C3C6"/>
<path d="M390.666 580.549C408.265 571.276 413.948 564.691 415.662 560.235C416.005 559.333 416.78 557.024 417.231 557.114C417.962 557.258 418.53 564.132 415.662 569.617C411.774 577.05 402.745 579.629 403.168 580.549C403.529 581.334 409.483 578.024 414.101 580.549C415.403 581.294 416.483 582.371 417.231 583.671C413.471 585.94 409.116 587.03 404.729 586.801C399.448 586.45 394.464 584.235 390.666 580.549Z" fill="white"/>
<path d="M248.483 114.946C244.923 109.374 243.27 102.795 243.774 96.2016C244.399 90.5115 246.585 85.1047 250.089 80.5781C257.062 70.5924 266.957 66.7857 271.918 64.9545C279.429 62.2727 287.421 61.2061 295.372 61.8244C301.212 62.113 306.989 63.1653 312.556 64.9545C308.19 67.1104 306.539 71.5215 307.865 74.3269C309.011 76.7353 312.069 77.3578 312.556 77.448C307.252 78.5575 304.347 81.6605 304.744 83.6992C305.141 85.7378 309.065 86.7391 309.426 86.8293C310.598 87.0235 311.68 87.5792 312.521 88.4185C313.362 89.2579 313.92 90.3391 314.116 91.511C314.258 92.9509 313.855 94.3917 312.987 95.549C312.119 96.7064 310.848 97.496 309.426 97.7622C305.543 95.8113 301.276 94.7454 296.932 94.6411C290.165 94.6027 283.573 96.7967 278.179 100.883C273.605 104.491 274.823 105.917 270.367 108.695C266.831 110.905 263.232 111.771 256.304 113.386C253.047 114.143 250.332 114.64 248.483 114.946Z" fill="#C4C3C6"/>
<path d="M237.551 102.453C237.921 97.7441 238.877 87.2623 245.363 77.4479C252.372 66.8488 262.259 62.4739 267.229 60.2639C283.673 52.9753 299.125 55.3928 306.288 57.1428C315.441 59.4012 323.976 63.6689 331.275 69.6362C329.52 66.7852 327.42 64.1615 325.023 61.8244C310.591 47.7704 289.843 48.9972 284.431 49.331C278.387 49.6918 261.979 50.9005 248.493 63.385C245.264 66.3798 236.884 74.3449 234.43 86.8383C233.461 92.001 233.461 97.2991 234.43 102.462C235.083 105.703 236.134 108.851 237.56 111.834C237.309 108.712 237.306 105.575 237.551 102.453Z" fill="#C4C3C6"/>
<path d="M266.453 58.4687C265.93 56.8992 265.416 55.3386 264.893 53.7781C272.11 50.0285 280.242 48.402 288.346 49.0874V53.7781C285.378 54.1659 282.239 54.6801 278.974 55.3386C274.445 56.2497 270.269 57.3231 266.453 58.4687Z" fill="white"/>
<path d="M264.523 77.006L262.232 71.729C262.012 71.3437 261.926 70.8963 261.988 70.4571C262.133 69.8798 262.728 69.555 263.269 69.3205C270.909 65.8771 279.011 63.5705 287.318 62.4739C289.474 62.1943 292.73 61.6891 294.67 63.0873C295.077 63.4201 295.41 63.836 295.644 64.3074C295.878 64.7788 296.009 65.2947 296.027 65.8207C296.046 66.3467 295.953 66.8706 295.753 67.3575C295.553 67.8443 295.251 68.2829 294.868 68.6439C293.272 70.2045 290.89 70.5563 288.68 70.8901C280.439 72.1434 272.346 74.2257 264.523 77.1052V77.006Z" fill="white"/>
<path d="M303.951 190.728C304.364 191.633 305.023 192.406 305.851 192.957C306.68 193.509 307.647 193.817 308.642 193.849C310.347 193.849 312.891 192.947 313.323 190.728C313.464 189.7 313.224 188.656 312.65 187.792C312.075 186.929 311.205 186.304 310.202 186.037C307.666 186.883 305.473 188.529 303.951 190.728Z" fill="white"/>
<path d="M319.547 186.055C318.293 182.257 318.789 180.643 319.547 179.804C320.097 179.236 320.521 179.389 322.677 178.243C324.833 177.098 324.986 176.638 325.798 176.683C327.277 176.764 328.504 178.487 328.919 179.804C329.238 180.823 329.238 181.915 328.919 182.934C327.894 182.678 326.823 182.678 325.798 182.934C324.693 183.313 323.643 183.838 322.677 184.494C321.973 184.882 320.909 185.442 319.547 186.055Z" fill="white"/>
<path d="M321.136 190.728C319.422 193.163 319.332 197.213 321.136 198.539C322.534 199.55 324.87 198.828 325.827 198.539C326.783 198.251 328.127 197.592 330.517 196.979C331.194 196.798 331.762 196.672 332.078 196.979C332.736 197.601 331.428 199.306 332.078 200.1C332.457 200.569 333.377 200.416 335.199 200.1C336.852 199.903 338.448 199.372 339.89 198.539C340.792 197.944 341.378 197.574 341.45 196.979C341.603 195.716 339.411 194.516 338.329 193.849C335.181 191.853 332.513 189.185 330.517 186.037C328.902 186.388 327.33 186.911 325.827 187.598C323.571 188.635 322.155 189.284 321.136 190.728Z" fill="white"/>
<path d="M341.449 189.167C340.889 187.57 340.502 185.658 341.449 184.476C342.396 183.295 344.543 183.448 344.579 182.916C344.615 182.384 341.647 181.698 339.888 181.355C336.009 180.589 335.378 181.049 335.198 181.355C335.017 181.662 334.9 181.978 335.198 182.916C336.181 185.983 339.924 188.301 341.449 189.167Z" fill="white"/>
<path d="M336.767 176.665C336.38 176.237 336.166 175.681 336.166 175.104C336.166 174.528 336.38 173.971 336.767 173.544C337.335 173.066 337.894 173.544 339.888 173.544C341.881 173.544 342.441 173.066 343.009 173.544C343.392 173.973 343.604 174.529 343.604 175.104C343.604 175.68 343.392 176.235 343.009 176.665C342.441 177.134 341.881 176.665 339.888 176.665C337.894 176.665 337.335 177.134 336.767 176.665Z" fill="white"/>
<path d="M333.638 239.159C332.032 240.575 331.428 242.551 332.077 243.849C332.925 245.536 335.568 245.455 336.768 245.41C338.437 245.305 340.051 244.767 341.45 243.849C343.317 242.767 345.382 241.567 346.14 239.159C346.826 236.976 346.393 233.9 344.58 232.908C344.129 232.673 343.29 232.384 341.45 232.908C337.444 234.053 334.883 237.246 333.638 239.159Z" fill="white"/>
<path d="M357.073 240.719C356.929 240.484 356.854 240.214 356.854 239.939C356.854 239.664 356.929 239.394 357.073 239.159C357.65 238.437 358.949 239.159 361.764 239.159C363.685 239.159 364.74 238.807 364.885 239.159C365.029 239.511 364.073 240.295 363.324 240.719C361.204 241.982 357.912 242.163 357.073 240.719Z" fill="white"/>
<path d="M352.39 237.598C351.281 236.832 351.272 234.234 352.39 232.908C352.679 232.565 352.904 232.475 355.511 231.347C358.118 230.219 358.344 230.12 358.632 229.786C359.444 228.884 359.111 228.28 360.202 226.665C360.779 225.763 361.104 225.294 361.763 225.096C362.342 225.027 362.93 225.12 363.46 225.364C363.99 225.609 364.441 225.996 364.765 226.482C365.088 226.968 365.271 227.534 365.291 228.117C365.312 228.701 365.171 229.279 364.884 229.786C363.855 231.113 361.853 229.958 360.202 231.347C359.165 232.249 359.58 232.98 358.632 234.477C357.126 236.868 353.761 238.563 352.39 237.598Z" fill="white"/>
<path d="M357.074 250.101C356.399 250.44 355.852 250.987 355.513 251.661C355.187 252.318 355.076 253.06 355.195 253.783C355.313 254.506 355.655 255.173 356.174 255.691C356.692 256.209 357.359 256.552 358.082 256.67C358.805 256.789 359.547 256.678 360.204 256.352C360.883 256.015 361.431 255.463 361.764 254.782C361.992 254.294 362.11 253.761 362.11 253.222C362.11 252.683 361.992 252.15 361.764 251.661C361.425 250.987 360.878 250.44 360.204 250.101C359.714 249.871 359.18 249.751 358.639 249.751C358.098 249.751 357.563 249.871 357.074 250.101Z" fill="white"/>
<path d="M303.076 223.634C302.508 224.085 303.247 225.736 303.076 229.362C302.995 231.167 302.76 231.627 303.076 232.222C303.78 233.548 306.098 233.629 307.469 232.222C308.155 231.527 308.867 230.192 308.569 229.362C308.272 228.533 307.234 229.029 306.377 227.928C305.665 227.026 306.017 226.25 305.277 225.069C304.682 224.122 303.581 223.238 303.076 223.634Z" fill="white"/>
<path d="M290.681 229.002C290.528 229.372 289.779 231.284 290.681 232.132C291.403 232.826 292.81 232.42 293.802 232.132C294.904 231.738 295.955 231.214 296.933 230.571C297.663 230.165 298.737 229.606 300.054 229.002L298.493 224.32C296.836 224.501 295.237 225.033 293.802 225.881C292.438 226.537 291.338 227.638 290.681 229.002Z" fill="white"/>
<path d="M289.113 235.253C287.94 236.155 288.879 241.369 292.234 243.065C293.569 243.741 295.743 244.093 296.925 243.065C298.107 242.036 297.683 240.115 298.485 239.944C299.054 239.817 299.938 240.638 300.046 241.504C300.226 242.902 298.287 243.588 298.485 244.625C298.684 245.663 301.192 246.429 303.176 246.195C303.564 246.141 307.01 245.681 307.858 243.065C308.543 240.954 307.226 238.392 306.297 238.383C305.539 238.383 305.034 240.052 304.737 239.944C304.439 239.835 305.882 236.633 304.737 235.253C303.402 233.647 298.954 235.1 298.485 235.253C295.887 236.101 295.202 237.255 293.795 236.813C292.748 236.489 292.342 235.605 290.674 235.253C289.943 235.1 289.447 235 289.113 235.253Z" fill="white"/>
<path d="M214.116 129.009C213.918 128.107 219.754 127.061 234.421 121.197C238.03 119.763 240.979 118.491 245.363 118.076C246.166 117.995 246.996 117.95 254.736 118.076C262.989 118.212 263.098 118.284 264.108 118.076C268.282 117.092 272.082 114.921 275.05 111.825C278.514 108.28 277.855 106.566 281.301 104.013C283.619 102.364 286.297 101.291 289.113 100.883C291.539 100.441 296.843 99.467 300.046 102.453C300.379 102.76 302.048 104.374 301.606 105.574C301.164 106.774 298.675 106.71 295.364 107.134C294.345 107.27 288.554 108.037 284.422 110.265C280.949 112.123 281.31 113.566 276.61 118.076C272.677 121.847 269.755 124.643 265.678 125.888C259.58 127.692 257.559 124.084 248.484 124.328C243.334 124.454 243.207 125.663 234.421 127.449C225.248 129.316 214.387 130.236 214.116 129.009Z" fill="white"/>
<path d="M165.675 149.323C164.421 152.12 165.206 156.955 168.805 158.696C171.574 160.04 175.336 159.21 176.617 157.135C177.708 155.331 176.066 154.195 176.617 150.884C177.302 146.753 180.342 145.715 179.738 143.072C179.562 142.312 179.176 141.616 178.624 141.065C178.073 140.513 177.377 140.127 176.617 139.951C174.813 139.708 174.028 141.53 168.805 146.193C166.478 148.277 166.099 148.394 165.675 149.323Z" fill="white"/>
<path d="M179.819 158.723C179.502 160.205 179.45 161.732 179.666 163.233C180.126 166.138 181.822 168.645 183.653 170.982C185.908 173.805 188.659 176.223 190.806 179.1C191.92 180.551 192.794 182.172 193.395 183.899C194.027 185.811 193.936 187.895 194.703 189.753C194.817 190.069 195.016 190.347 195.279 190.556C195.542 190.765 195.858 190.896 196.192 190.935C195.569 187.615 195.192 184.253 195.064 180.877C194.92 179.073 194.748 177.314 194.451 175.546C194.18 173.977 193.079 171.938 193.079 170.404C191.049 165.253 187.069 161.111 182.002 158.876C185.006 157.848 187.875 155.972 189.3 153.139C190.181 151.37 190.359 149.333 189.796 147.438C189.327 145.905 187.649 143.117 185.728 144.561C185.163 145.049 184.726 145.668 184.456 146.365C183.171 149.019 182.039 151.745 181.064 154.528C180.55 155.895 180.134 157.297 179.819 158.723Z" fill="white"/>
<path d="M330.633 208.345C332.266 205.313 334.644 202.745 337.543 200.885C340.371 199.111 343.587 198.047 346.915 197.782C350.261 197.43 354.42 196.988 357.857 199.342C359.571 200.524 360.274 201.823 362.538 202.472C364.08 202.845 365.688 202.845 367.229 202.472C373.543 201.57 381.409 205.981 381.292 208.724C381.229 210.275 378.586 211.628 376.601 211.845C373.11 212.224 369.737 209.319 367.229 207.163C366.36 206.353 365.277 205.808 364.108 205.593C363.588 205.515 363.059 205.515 362.538 205.593C361.612 207.682 359.944 209.353 357.857 210.284C354.546 211.529 351.317 209.752 348.484 208.724C344.723 207.334 338.986 206.333 330.633 208.345Z" fill="black"/>
<path d="M327.386 209.508C326.132 210.51 326.132 213.495 327.386 214.199C327.629 214.316 327.896 214.377 328.166 214.377C328.436 214.377 328.703 214.316 328.946 214.199C328.338 215.704 328.338 217.385 328.946 218.89C329.658 220.262 330.84 221.332 332.276 221.905C333.712 222.478 335.306 222.516 336.767 222.011C337.822 221.614 339.717 220.504 339.888 218.89C340.087 217.004 337.831 215.85 338.328 214.199C338.544 213.459 339.23 213.072 339.888 212.639C342.829 210.834 345.463 212.188 346.139 211.078C346.816 209.968 345.237 207.082 343.009 206.387C342.576 206.252 341.828 206.108 336.767 207.948C333.411 209.166 333.258 209.409 332.076 209.508C329.469 209.716 328.387 208.688 327.386 209.508Z" fill="white"/>
<path d="M372.697 212.602C372.462 212.476 372.255 212.386 372.047 212.296L370.947 212.873L370.667 213.017C369.81 212.693 368.655 214.551 367.51 214.515C367.396 214.51 367.283 214.489 367.176 214.452C364.885 214.163 364.885 214.163 364.316 212.224C364.312 212.151 364.312 212.079 364.316 212.007C364.349 211.807 364.41 211.613 364.497 211.43C364.497 211.331 364.596 211.231 364.65 211.132C364.172 210.546 364.461 210.158 364.939 209.824L365.228 209.626L365.038 209.436L364.894 209.256V208.886C364.876 208.543 364.876 208.2 364.894 207.858C364.894 207.785 364.894 207.704 364.894 207.614C364.831 206.351 364.831 204.791 363.09 205.233L362.891 205.133C361.268 204.34 360.889 204.673 360.988 205.368C361.004 205.481 361.028 205.592 361.06 205.702C361.737 207.912 361.737 207.912 359.671 208.498C359.63 208.565 359.6 208.638 359.581 208.715C359.571 208.802 359.571 208.889 359.581 208.976C359.577 209.042 359.577 209.109 359.581 209.175C358.802 209.39 358.067 209.738 357.407 210.203H357.082C356.78 210.22 356.485 210.3 356.215 210.436C355.944 210.573 355.705 210.764 355.512 210.997C355.012 211.675 354.742 212.495 354.742 213.338C354.742 214.18 355.012 215.001 355.512 215.678C356.55 216.86 357.957 216.157 358.634 217.239C359.427 218.511 357.813 219.945 358.634 221.93C358.697 222.065 359.292 223.445 360.203 223.49C361.114 223.535 361.782 222.48 363.324 220.369C364.091 219.323 364.38 218.818 364.885 218.809C365.561 218.809 366.184 219.647 366.445 220.369C366.959 221.758 366.057 222.444 366.445 223.49C367.086 225.186 370.432 225.926 371.136 225.051C371.28 224.879 371.235 224.735 371.136 223.49C370.938 221.091 371.01 220.694 371.136 220.369C371.334 219.855 371.614 219.693 372.697 218.809C374.753 217.122 375.773 216.274 375.827 215.678C375.935 214.298 373.472 213.008 372.697 212.602Z" fill="white"/>
<path d="M325.861 211.042C325.861 211.042 328.567 215.065 327.422 218.854C326.814 220.586 326.031 222.251 325.085 223.824C325.004 223.968 324.797 224.32 324.3 225.096C322.56 227.847 321.053 229.904 320.855 230.183C319.096 232.61 317.328 237.129 316.489 240.719C316.092 242.424 313.35 254.187 319.61 262.594C320.674 264.028 322.406 265.634 325.861 268.845C329.541 272.264 331.391 273.969 332.112 273.536C333.276 272.832 331.833 267.222 328.982 262.594C326.547 258.634 324.869 258.309 322.74 254.782C320.755 251.473 319.655 247.708 319.547 243.85C319.357 232.583 330.065 228.966 328.919 218.854C328.591 216.03 327.537 213.338 325.861 211.042Z" fill="black"/>
<path d="M322.597 69.8887C322.597 69.8887 319.242 74.9402 313.577 76.5369C310.93 77.1759 308.241 77.625 305.53 77.8809C305.296 77.8809 304.7 77.9621 303.347 78.0613C298.603 78.4131 294.895 78.5033 294.408 78.5214C290.06 78.6477 282.997 80.1721 277.783 81.877C275.303 82.6888 258.227 88.2816 251.696 99.4039C250.577 101.298 249.702 103.914 247.934 109.047C246.058 114.558 245.147 117.31 246.202 117.643C247.907 118.176 254.158 113.133 258.164 107.522C261.6 102.723 260.87 101.055 263.937 96.815C267.161 92.6306 271.242 89.183 275.907 86.703C290.34 78.9093 302.391 85.7288 314.695 77.8899C317.92 75.8795 320.627 73.1386 322.597 69.8887Z" fill="black"/>
<path d="M358.01 172.2L367.446 163.414L393.01 128.234L354.871 173.183L358.01 172.2Z" fill="white"/>
<path d="M300.83 290.693C306.666 297.413 311.465 300.282 314.893 301.635C318.501 303.069 321.704 303.205 325.826 306.317C327.053 307.219 328.108 308.238 328.947 307.877C330.39 307.273 330.526 303.06 328.947 300.065C328.273 298.907 327.374 297.895 326.301 297.091C325.229 296.287 324.006 295.706 322.705 295.384V286.002C321.553 285.728 320.476 285.204 319.548 284.469C317.175 282.539 316.625 279.715 316.427 279.787C316.228 279.859 317.527 283.395 317.987 287.599C318.217 289.676 318.217 291.773 317.987 293.85C316.604 292.559 315.02 291.502 313.296 290.72C310.844 289.615 308.173 289.081 305.485 289.16C305.755 278.019 305.665 275.106 305.485 275.097C305.304 275.088 305.322 280.834 302.364 287.599C301.822 288.889 301.263 289.944 300.83 290.693Z" fill="white"/>
<path d="M258.64 279.787C257.648 282.142 263.222 286.58 266.452 289.16C270.356 292.173 274.543 294.801 278.954 297.007C281.498 298.333 281.047 297.964 282.075 298.568C287.316 301.644 288.588 305.045 296.138 314.192C297.499 315.945 299.075 317.521 300.829 318.882C303.147 320.686 305.637 322.49 308.641 322.003C310.538 321.587 312.209 320.473 313.322 318.882C314.151 317.78 314.722 316.506 314.994 315.154C315.265 313.803 315.231 312.407 314.892 311.07C313.62 306.903 308.993 306.93 299.268 301.698C294.269 299.065 289.557 295.921 285.205 292.317C281.282 289.033 279.748 287.058 274.264 282.944C270.655 280.238 267.453 278.191 263.331 278.254C262.284 278.236 259.271 278.281 258.64 279.787Z" fill="white"/>
<path d="M313.323 332.909C311.97 331.827 310.986 329.671 311.762 328.218C312.538 326.766 314.405 326.766 316.453 326.658C317.932 326.577 322.009 326.369 322.704 328.218C323.263 329.725 321.351 331.917 319.574 332.909C319.412 332.999 315.848 334.894 313.323 332.909Z" fill="white"/>
<path d="M318.014 321.967C316.552 319.938 316.579 316.636 318.014 315.716C319.628 314.688 322.722 316.88 324.265 318.846C324.499 319.144 326.791 322.112 325.825 323.528C324.86 324.944 320.025 324.773 318.014 321.967Z" fill="white"/>
<path d="M360.204 375.089C356.166 371.457 351.358 368.786 346.141 367.277C321 359.384 305.548 357.905 305.548 357.905C305.548 357.905 283.899 355.83 275.862 348.533L275.69 348.37C274.951 347.694 271.902 344.807 266.489 337.591C263.341 333.387 262.439 330.104 258.678 329.779C258.019 329.725 255.286 329.49 253.996 331.339C252.706 333.189 253.906 335.85 253.996 336.03C254.898 336.373 261.411 338.917 263.368 345.402C263.756 346.683 264.739 349.985 263.368 353.214C262.069 356.263 259.562 357.165 258.678 361.026C258.353 362.451 258.136 363.407 258.678 364.156C260.013 365.96 263.882 363.66 268.05 365.717C269.538 366.447 271.442 367.918 271.18 368.838C270.747 370.362 264.279 371.012 258.678 368.838C254.663 367.286 253.527 365.23 250.866 365.717C249.712 365.954 248.653 366.526 247.821 367.359C246.989 368.193 246.42 369.253 246.184 370.407C245.964 371.645 246.149 372.921 246.711 374.045C247.273 375.17 248.183 376.083 249.305 376.65C251.461 377.552 252.841 375.693 255.556 376.65C257.361 377.299 258.948 378.905 258.678 379.78C258.407 380.655 256.179 379.969 253.996 381.34C252.987 382.032 252.171 382.968 251.623 384.062C251.076 385.155 250.815 386.37 250.866 387.591C251.028 391.01 253.888 394.194 255.556 393.843C256.955 393.545 256.459 390.983 258.678 389.152C260.563 387.619 261.745 388.755 264.929 387.591C269.132 386.049 269.565 383.162 272.741 382.901C273.697 382.829 274.878 382.991 277.431 384.47C285.793 389.314 286.885 395.593 293.055 396.964C294.633 397.316 294.372 396.856 297.736 396.964C302.577 397.13 307.345 398.191 311.799 400.094C315.35 394.197 320.891 389.763 327.423 387.591C326.413 386.996 324.87 386.121 322.913 385.165C319.063 383.277 315.046 381.749 310.915 380.601C306.838 379.401 300.894 377.046 293.037 371.968C290.746 370.074 288.436 368.035 288.707 367.62C288.86 367.395 289.789 367.71 290.105 367.882C297.06 371.652 304.763 373.61 312.223 376.117C316.247 377.47 320.225 379.049 324.167 380.628C327.044 381.773 329.732 383.388 332.655 384.407C335.55 383.682 338.496 383.178 341.468 382.901C349.779 382.069 358.153 382.069 366.464 382.901C364.779 379.999 362.669 377.366 360.204 375.089Z" fill="white"/>
<path d="M238.363 353.214C235.81 350.693 234.164 347.398 233.681 343.842C233.276 340.633 233.819 337.375 235.242 334.47H246.184C244.56 337.392 243.36 340.874 244.614 343.842C245.868 346.81 248.98 347.315 249.305 350.093C249.358 351.515 248.921 352.912 248.067 354.05C247.213 355.188 245.994 355.998 244.614 356.344C242.061 356.786 240.014 354.829 238.363 353.214Z" fill="white"/>
<path d="M272.705 396.964C271.893 395.746 270.305 393.247 271.144 390.713C271.559 389.459 272.696 387.835 274.265 387.592C276.61 387.231 278.108 390.207 282.077 393.843C284.783 396.278 287.561 398.858 291.458 400.094C296.302 401.627 298.512 399.859 305.512 401.655C307.11 402.064 308.678 402.586 310.203 403.215C305.368 410.919 304.899 416.538 305.512 420.399C305.873 422.636 306.829 425.712 305.512 426.65C304.439 427.417 302.039 426.65 300.831 425.09C299.315 423.177 300.371 421.013 299.27 420.399C298.17 419.786 296.311 421.978 293.019 423.529C290.576 424.664 287.898 425.199 285.207 425.09C277.522 424.594 272.921 413.147 272.705 412.587C273.821 410.995 275.495 409.881 277.395 409.466C279.082 409.196 279.849 409.872 283.637 411.027C286.15 411.943 288.787 412.469 291.458 412.587C294.083 412.587 297.592 412.037 297.7 411.027C297.809 410.017 295.229 409.367 291.458 407.906C276.836 402.232 273.986 398.939 272.705 396.964Z" fill="white"/>
<path d="M278.954 462.588C275.625 460.153 278.647 448.471 285.205 442.274C286.667 440.894 288.732 438.999 291.456 439.153C294.722 439.333 297.771 442.427 299.268 446.965L350.821 400.058C354.735 399.291 361.05 398.317 361.762 400.058C362.394 401.6 358.326 404.568 353.951 407.87C346.536 413.444 339.572 419.596 332.076 425.054C319.952 433.876 322.262 433.695 307.08 445.368C290.293 458.294 281.841 464.699 278.954 462.588Z" fill="white"/>
<path d="M275.826 523.522C272.217 522.845 270.413 523.35 269.583 521.961C268.438 520.049 270.116 516.224 272.704 514.149C275.528 511.885 277.837 512.986 278.956 511.019C280.3 508.674 277.476 506.238 278.956 503.208C279.858 501.403 281.048 501.854 282.077 500.086C283.944 496.893 280.769 494.133 282.077 490.714C283.249 487.647 287.489 485.356 291.458 486.023C292.801 486.241 294.071 486.781 295.158 487.598C296.246 488.415 297.118 489.485 297.7 490.714C298.305 492.112 298.332 493.483 297.7 496.956C295.995 506.338 293.794 507.348 294.579 511.019C295.409 514.925 298.305 515.746 297.7 518.831C297.448 520.13 296.492 521.267 294.579 523.522C292.162 526.381 290.971 527.806 289.888 528.212C286.172 529.647 283.98 525.037 275.826 523.522Z" fill="white"/>
<path d="M260.202 536.051C259.938 535.572 259.799 535.034 259.799 534.486C259.799 533.939 259.938 533.4 260.202 532.921C260.59 532.29 261.321 531.739 263.332 531.361C265.397 530.967 267.518 530.967 269.583 531.361C278.144 533.237 282.42 534.175 286.722 536.051C290.854 537.855 296.392 540.21 296.095 542.293C295.959 543.241 294.688 543.791 294.534 543.863C292.315 544.819 289.609 543.069 288.283 542.293C280.823 537.955 270.612 537.684 267.969 537.612C264.523 537.495 261.312 537.855 260.202 536.051Z" fill="white"/>
<path d="M253.959 540.706C253.959 540.859 259.119 538.902 264.892 540.706C266.696 541.265 268.663 542.636 272.704 545.396C276.745 548.157 279.379 550.295 283.637 551.648C285.296 552.171 286.974 552.55 288.327 551.648C289.401 550.962 290.258 549.537 289.888 548.518C289.518 547.498 288.084 547.282 286.767 546.957C284.061 546.299 281.607 544.747 278.955 543.836C266.444 539.542 266.849 539.326 264.892 539.145C258.668 538.541 253.932 540.561 253.959 540.706Z" fill="white"/>
<path d="M261.816 548.518C269.394 550.241 273.543 553.452 275.87 556.329C278.198 559.207 279.731 562.743 282.122 562.581C282.907 562.46 283.634 562.093 284.196 561.531C284.759 560.97 285.129 560.245 285.252 559.46C285.315 558.864 285.252 557.475 282.122 554.769C278.124 551.39 273.245 549.221 268.059 548.518C265.984 548.286 263.891 548.286 261.816 548.518Z" fill="white"/>
<path d="M286.766 567.271C286.063 565.539 286.965 562.986 288.327 562.581C289.409 562.265 290.573 563.356 291.457 564.141C294.795 567.127 298.899 569.148 302.39 571.953C303.824 573.108 306.512 575.263 310.202 578.204C309.985 579.539 309.561 581.118 308.641 581.334C307.405 581.623 306.476 579.178 303.951 576.644C300.577 573.261 296.238 571.61 293.018 570.392C289.256 568.967 287.443 568.922 286.766 567.271Z" fill="white"/>
<path d="M297.7 561.02C296.572 559.838 295.896 558.792 296.139 557.89C296.545 556.591 298.945 555.833 300.83 556.329C303.058 556.925 303.193 558.945 305.512 561.02C308.028 563.257 310.112 562.905 313.323 564.141C315.921 565.142 319.34 567.208 322.705 571.953C318.492 570.528 315.209 569.445 313.323 568.832C306.919 566.721 301.624 565.088 297.7 561.02Z" fill="white"/>
<path d="M303.951 551.648C304.853 552.965 306.45 552.198 310.202 553.208C312.532 553.659 314.694 554.738 316.454 556.329C317.356 557.231 317.753 558.007 318.014 557.89C318.537 557.673 318.249 554.146 316.454 551.648C313.296 547.237 305.692 546.235 303.951 548.518C303.649 548.984 303.488 549.527 303.488 550.083C303.488 550.638 303.649 551.182 303.951 551.648Z" fill="white"/>
<path d="M333.637 604.77C333.52 603.579 335.161 602.172 336.767 601.639C339.635 600.692 342.053 602.695 343.009 601.639C343.812 600.737 342.54 598.987 343.009 598.518C343.686 597.851 347.592 600.16 358.633 609.451C358.86 609.942 358.978 610.476 358.978 611.016C358.978 611.557 358.86 612.091 358.633 612.581C358.292 613.255 357.745 613.801 357.072 614.142C351.541 611.551 345.791 609.459 339.888 607.891C337.38 607.241 333.808 606.411 333.637 604.77Z" fill="white"/>
<path d="M414.164 602.469C418.981 600.665 420.821 598.392 421.579 596.534C422.752 593.701 421.408 592.024 423.067 589.119C424.437 586.96 426.547 585.375 429.003 584.663C430.491 584.176 434.099 583.328 434.938 584.663C435.777 585.998 433.179 589.173 431.971 590.598C429.174 593.882 423.951 598.708 414.164 602.469Z" fill="white"/>
<path d="M230.515 411.027C229.053 406.443 228.009 401.736 227.394 396.964C226.888 394.88 225.499 388.566 227.394 387.592C229.288 386.617 233.942 390.451 236.766 393.843C238.308 395.647 239.066 397.162 239.896 396.964C241.393 396.612 241.457 391.182 241.457 390.713C241.457 388.115 240.951 387.023 241.457 384.47C241.908 382.161 242.611 381.584 243.017 381.34C243.508 381.113 244.042 380.996 244.582 380.996C245.123 380.996 245.657 381.113 246.147 381.34C246.658 383.427 247.179 385.511 247.708 387.592C248.105 391.128 248.926 394.997 250.829 395.403C252.471 395.755 253.535 393.247 257.08 390.713C260.625 388.178 267.003 385.382 269.583 387.592C272.162 389.802 269.862 396.197 269.583 396.964C262.786 399.425 256.826 403.76 252.389 409.466C250.666 411.703 244.695 419.389 244.578 429.781C244.578 433.614 245.326 435.725 244.578 436.023C242.701 436.826 234.808 424.449 230.515 411.027Z" fill="black"/>
<path d="M306.296 425.866C304.694 419.102 305.227 412.009 307.82 405.56C312.682 394.032 323.056 389.179 328.134 386.807C337.552 382.414 346.022 382.296 354.691 382.125C360.978 382.018 367.261 382.541 373.445 383.686L371.884 386.807C365.107 385.303 358.036 385.85 351.57 388.376C345.147 390.74 339.665 395.124 335.946 400.87C333.017 405.566 331.398 410.96 331.256 416.493L307.802 430.556C307.333 428.996 306.819 427.435 306.296 425.866Z" fill="black"/>
<path d="M249.268 498.526C250.636 494.982 252.764 491.78 255.501 489.145C260.065 484.842 264.602 483.976 271.124 481.333C275.635 479.529 279.865 476.994 288.263 471.96C301.478 464.086 309.642 454.316 314.829 448.507C338.977 421.59 351.407 421.491 396.131 378.192C403.194 371.355 408.705 365.726 411.754 362.569C414.047 366.625 416.133 370.795 418.005 375.062C419.214 377.597 420.26 380.206 421.136 382.874C421.866 385.427 424.942 396.035 419.566 404.749C415.444 411.451 406.558 416.638 402.382 414.121C399.189 412.2 398.656 405.714 399.261 401.627C399.892 397.289 401.886 395.088 400.821 393.816C399.477 392.21 394.931 394.005 391.449 395.376C384.981 397.706 379.109 401.44 374.256 406.309C371.811 408.6 369.709 411.231 368.014 414.121C363.503 422.239 364.532 430.439 364.884 435.996C365.452 444.818 366.444 460.351 360.202 473.494C354.573 485.338 342.657 496.117 333.637 501.62C332.002 502.55 330.435 503.593 328.946 504.741C318.879 512.688 315.55 524.189 314.892 526.616C312.186 536.728 314.693 541.951 310.201 545.369C307.315 547.561 302.931 547.922 302.389 546.93C302.002 546.217 303.715 545.009 305.511 542.239C306.997 539.836 308.056 537.193 308.641 534.428C309.01 533.066 313.431 517.189 319.574 507.871C324.607 500.24 326.745 503.171 339.888 490.732C347.654 483.353 351.966 479.258 355.511 471.979C360.698 461.343 360.373 451.89 360.202 446.983C360.031 442.265 359.3 438.296 357.072 434.48C355.601 431.936 353.833 428.869 350.821 428.229C345.607 427.128 338.67 433.768 336.767 440.731C335.242 446.27 337.461 450.05 335.197 451.664C332.563 453.559 328.576 449.13 324.264 450.104C320.945 450.852 317.345 454.812 314.892 467.288C308.834 468.331 303.012 470.448 297.699 473.539C295.669 474.739 294.668 475.515 293.017 476.669C284.15 482.83 277.899 484.67 264.891 490.732C261.103 492.473 255.708 495.08 249.268 498.526Z" fill="black"/>
<path d="M419.786 356.406L146.32 528.883L148.197 531.859L421.662 359.382L419.786 356.406Z" fill="black"/>
<path d="M412.949 359.152L146.32 527.317L147.028 528.438L413.657 360.273L412.949 359.152Z" fill="white"/>
<path d="M318.428 470.472C316.859 471.527 321.522 482.993 329.163 493.727C332.32 498.165 336.036 502.053 343.46 509.82C344.624 511.028 352.977 519.742 354.195 518.759C355.097 518.019 350.424 512.652 352.391 508.024C353.157 506.453 354.427 505.182 355.999 504.416C362.142 500.808 370.432 503.695 377.459 506.22C383.042 508.223 386.199 510.126 386.398 509.829C386.596 509.531 383.692 507.122 368.519 497.308C364.281 497.308 360.065 496.7 355.999 495.504C351.128 494.07 344.443 492.112 339.906 486.565C334.205 479.592 334.674 470.373 332.753 470.463C331.445 470.535 331.661 474.793 329.145 475.83C325.356 477.418 319.826 469.543 318.428 470.472Z" fill="black"/>
<path d="M247.708 496.956V484.463L218.021 503.208C208.533 506.675 198.337 507.75 188.334 506.338L172.711 517.271C178.611 518.105 184.623 517.01 189.85 514.149C195.272 516.41 201.118 517.475 206.989 517.271C215.107 516.946 220.881 514.176 227.303 511.019C234.765 507.371 241.642 502.631 247.708 496.956Z" fill="#C4C3C6"/>
<path d="M130.567 520.401C131.598 520.17 132.666 520.17 133.697 520.401C135.366 520.87 136.728 522.205 139.948 528.212C140.778 529.764 141.87 531.884 143.069 534.455L250.874 462.588V457.897L174.316 506.338C138.487 517.397 130.495 520.139 130.567 520.401Z" fill="#C4C3C6"/>
<path d="M139.948 525.082C138.009 521.474 136.746 519.562 135.69 518.497C131.821 519.787 130.54 520.301 130.567 520.401C131.597 520.17 132.666 520.17 133.697 520.401C135.366 520.87 136.728 522.205 139.948 528.212C140.778 529.764 141.87 531.884 143.069 534.455L250.874 462.588V459.458L143.069 531.334C141.842 528.754 140.778 526.643 139.948 525.082Z" fill="white"/>
<path d="M393.01 368.838C388.933 368.892 385.749 362.199 385.198 361.026C384.502 359.53 383.978 357.959 383.638 356.344C381.518 347.793 375.754 341.262 371.135 336.03C368.673 333.288 366.066 330.681 363.324 328.218C358.083 323.456 355.034 321.561 355.512 320.407C355.99 319.252 360.437 319.658 363.324 320.407C365.173 320.894 369.719 322.337 375.826 328.218C379.371 331.637 378.803 332.088 383.638 337.591C386.949 341.557 390.607 345.219 394.571 348.533C401.526 354.17 405.684 355.172 405.513 357.905C405.44 358.969 404.782 359.267 399.261 364.156C394.643 368.27 394.21 368.829 393.01 368.838Z" fill="white"/>
<path d="M402.842 398.569C401.958 398.742 401.117 399.089 400.368 399.589C399.618 400.089 398.975 400.733 398.477 401.483C398.964 411.171 399.448 420.862 399.929 430.556C403.618 429.798 410.086 427.931 411.565 423.286C411.899 422.23 411.764 421.689 411.565 418.929" fill="#C4C3C6"/>
<path d="M423.554 404.776C425.719 404.108 429.526 402.466 430.401 398.398C430.599 397.496 430.518 396.991 430.401 394.564C429.914 384.741 430.735 383.271 429.544 380.519C429.418 380.231 427.631 376.226 425.259 376.695C423.897 376.965 423.013 378.589 422.697 379.248C422.986 387.757 423.272 396.266 423.554 404.776Z" fill="#C4C3C6"/>
<path d="M409.066 361.748C410.113 362.65 412.178 364.057 414.542 363.191C415.249 362.867 415.91 362.452 416.508 361.955C421.379 358.536 422.39 358.482 423.418 356.985C423.526 356.822 424.997 354.612 423.995 353.557C423.693 353.33 423.347 353.168 422.979 353.083C422.611 352.997 422.229 352.99 421.858 353.061L409.066 361.748Z" fill="white"/>
</svg>
