<svg width="400" height="400" viewBox="0 0 400 400" fill="none" xmlns="http://www.w3.org/2000/svg">
<path d="M338.166 327.968C337.858 326.484 337.212 325.091 336.278 323.897L336.224 317.883C336.205 315.935 335.431 314.07 334.065 312.681L330.655 309.217L330.379 308.929C329.228 306.837 327.505 305.116 325.411 303.967C321.737 299.758 316.595 297.383 310.642 297.154C310.588 297.07 310.533 296.986 310.485 296.901C309.742 295.723 308.687 294.774 307.436 294.159C305.031 292.956 301.687 291.339 297.706 292.908C295.018 293.973 293.497 295.843 291.428 298.627C291.073 298.958 290.76 299.277 290.484 299.553L289.985 300.047C286.482 301.304 283.55 303.783 281.728 307.028C277.909 307.673 274.415 309.579 271.805 312.441C271.53 312.747 271.224 313.023 270.891 313.265C270.814 313.256 270.738 313.242 270.663 313.223C269.115 312.902 267.516 312.925 265.978 313.289C265.533 308.364 265.311 301.947 265.413 298.79C265.544 296.542 265.829 294.305 266.267 292.096C266.339 291.706 266.477 290.93 266.67 289.841C267.656 284.327 269.971 271.409 271.793 259.394C272.828 252.557 273.549 247.018 273.94 242.923C274.391 238.166 274.506 234.979 273.844 232.537C273.52 230.62 272.781 228.798 271.679 227.197C271.589 227.004 271.499 226.818 271.402 226.638C268.764 218.523 264.162 211.187 258.004 205.28C251.847 199.373 244.325 195.079 236.108 192.781C234.196 191.253 232.249 189.79 230.269 188.391C230.314 187.606 230.449 186.829 230.672 186.075C231.546 183.783 232.583 181.556 233.775 179.412C234.743 177.566 235.741 175.654 236.637 173.591C238.376 169.698 239.774 165.662 240.817 161.527C241.367 158.986 241.677 156.399 241.743 153.8C241.785 152.904 241.827 152.056 241.893 151.262C241.959 150.468 242.044 149.837 242.104 149.458C242.447 149.326 242.976 149.151 243.788 148.923C247.065 148.003 249.038 145.489 249.639 141.454C249.639 141.37 249.639 141.291 249.675 141.213C250.03 139.658 249.88 138.03 249.248 136.565L254.757 135.482C256.326 135.174 257.756 134.373 258.839 133.196C259.922 132.019 260.601 130.528 260.778 128.938C260.955 127.349 260.621 125.744 259.823 124.358C259.026 122.972 257.807 121.876 256.344 121.23L254.739 120.52L260.596 116.792C261.6 116.148 262.442 115.589 263.001 115.222C264.252 114.41 268.065 111.921 267.211 107.013C266.947 105.547 266.252 104.192 265.216 103.121C264.179 102.05 262.847 101.311 261.39 101C260.313 100.771 257.631 100.819 254.36 101C263.861 90.9148 263.909 90.7284 264.427 88.6296C264.79 87.1574 264.699 85.6097 264.166 84.1899C263.634 82.7702 262.684 81.5446 261.443 80.6743C260.201 79.804 258.725 79.3296 257.209 79.3133C255.692 79.2971 254.207 79.7398 252.946 80.5833L242.032 87.7997C244.99 81.335 248.123 74.2389 248.983 71.8214C249.544 70.2541 249.569 68.5449 249.054 66.962C248.539 65.379 247.513 64.0118 246.137 63.0748C244.761 62.1378 243.113 61.684 241.452 61.7846C239.79 61.8852 238.209 62.5346 236.956 63.6308C235.092 65.2544 231.496 69.6805 223.936 79.7354C223.936 79.2182 223.936 78.7131 223.936 78.232C223.997 68.4116 223.936 66.4873 221.754 64.0577C221.082 63.3183 220.271 62.7189 219.367 62.2937C218.463 61.8685 217.483 61.626 216.486 61.5801C216.389 61.5801 216.281 61.5801 216.173 61.5801L217.321 53.0527C217.371 52.6961 217.393 52.3362 217.388 51.9762C217.388 50.996 217.388 50.0218 217.345 49.0476V48.1696C217.614 46.9818 217.795 45.7758 217.887 44.5614C218.518 35.7152 215.277 26.8751 208.764 19.6707C206.023 16.6731 203.031 13.9149 199.822 11.426C198.474 10.4659 197.024 9.6591 195.498 9.02052C187.079 4.63655 179.628 2.11682 172.778 1.32902C170.365 0.450896 167.817 0.00112649 165.249 0C157.112 0 146.222 5.18981 142.229 12.8392C142.036 13.0557 141.85 13.2662 141.675 13.4827C141.501 13.6992 141.417 13.8134 141.296 13.9878L132.799 26.3099C130.558 28.4841 128.941 31.2189 128.114 34.2299C127.308 36.4523 126.901 38.7996 126.912 41.1636C126.918 42.2824 127.016 43.3987 127.206 44.5012C127.718 47.6163 129.305 50.5811 130.815 53.4436C131.248 54.2494 131.825 55.3319 132.306 56.3301C120.507 59.1506 109.009 62.3438 97.2102 66.1385C94.6916 66.9005 92.3567 68.1725 90.3507 69.8753C88.3447 71.5782 86.7105 73.6756 85.5497 76.037C82.471 82.2343 81.0222 89.1139 81.3401 96.0265C81.6708 101.379 83.4689 106.532 85.0565 111.061C85.6579 112.702 86.1691 114.248 86.6141 115.715C87.5943 118.951 88.5204 122.012 89.23 125.103C90.108 128.903 90.3245 132.866 90.5591 137.058C90.7034 139.704 90.8537 142.47 91.1604 145.266C91.9783 152.357 94.1673 158.942 96.2841 165.31L97.0418 167.589C97.8052 170.101 98.4296 172.652 98.9121 175.233C99.3871 177.53 99.8742 179.905 100.566 182.377C102.193 188.021 104.252 193.532 106.724 198.86C108.065 201.831 108.75 205.373 109.472 209.126C109.785 210.737 110.073 212.397 110.488 214.075C110.699 214.989 110.903 215.909 111.09 216.829C112.341 222.422 113.634 228.201 115.865 233.758C118.357 239.817 121.188 245.732 124.344 251.474C128.157 258.913 133.431 268.198 141.026 275.607L142.174 280.917C138.494 283.22 134.657 285.469 130.941 287.652C129.401 288.554 127.868 289.458 126.34 290.365C126.25 290.419 126.154 290.473 126.07 290.533L124.266 291.7C122.937 292.578 121.68 293.401 120.399 294.207C118.751 295.242 117.031 296.282 115.372 297.292L113.134 298.651C112.522 299.046 111.971 299.528 111.499 300.083L104.282 304.605C103.935 304.826 103.605 305.073 103.296 305.345L102.695 305.904C95.9714 308.309 89.1098 310.985 82.2481 313.812C79.8848 314.167 77.4372 314.636 74.5446 315.267C72.7029 315.705 70.8943 316.271 69.1323 316.963C68.5309 317.186 67.9296 317.402 67.3282 317.607L67.1237 317.679L66.4923 317.901C64.8385 318.447 63.4257 319.55 62.4954 321.022C61.5652 322.494 61.1754 324.244 61.3927 325.972C61.4949 326.813 61.5491 327.776 61.6092 328.816C61.6092 329.327 61.6693 329.838 61.7054 330.35C61.5807 332.445 61.9238 334.543 62.7097 336.489C62.9438 337.297 63.2352 338.087 63.5817 338.853C65.4339 342.87 69.1504 346.671 73.7628 349.365C78.0506 351.836 82.2842 349.834 84.816 348.643C85.267 348.427 85.8924 348.132 86.151 348.042C86.8116 347.818 87.4372 347.502 88.0093 347.104L100.939 338.119C101.125 337.993 101.299 337.855 101.468 337.716C101.787 337.452 102.099 337.187 102.4 336.922C105.232 335.828 107.939 334.812 110.585 333.849C114.319 337.283 118.89 338.564 124.176 337.668C125.282 337.476 126.407 337.313 127.591 337.139L129.197 336.904C129.71 336.825 130.214 336.694 130.7 336.514L137.195 334.108C136.273 335.488 135.269 336.811 134.188 338.071C133.653 338.715 133.124 339.364 132.607 340.014C131.749 341.096 131.206 342.393 131.036 343.763C130.867 345.134 131.077 346.524 131.645 347.783C131.741 347.994 131.849 348.204 131.945 348.385C132.5 349.453 133.304 350.373 134.289 351.066C135.273 351.759 136.411 352.205 137.604 352.366C142.41 353.03 147.1 354.362 151.538 356.323L164.118 364.291C169.873 368.771 174.402 375.013 177.589 382.849C178.273 384.532 179.545 385.91 181.167 386.728C181.232 386.763 181.298 386.796 181.366 386.824C187.468 389.926 193.777 392.603 200.249 394.834C200.411 394.894 200.573 394.942 200.742 394.991C210.512 397.609 220.51 399.286 230.6 400H231.057H232.813C243.998 399.981 255.158 398.92 266.146 396.831L266.573 396.735C282.209 392.85 296.6 386.962 313.48 379.295C315.112 378.557 316.427 377.259 317.186 375.637C317.946 374.015 318.101 372.175 317.624 370.449L315.104 361.332C314.959 360.799 314.757 360.283 314.502 359.792L312.59 356.22C313.33 355.974 313.967 355.727 314.484 355.523C316.132 354.965 317.824 354.549 319.542 354.278C320.889 354.019 322.284 353.749 323.752 353.382C325.225 352.979 326.663 352.456 328.051 351.818L329.02 351.415C335.178 348.902 338.04 342.756 335.983 336.471C336.954 335.304 337.653 333.936 338.03 332.465C338.408 330.995 338.454 329.459 338.166 327.968ZM136.708 105.961C140.96 103.387 144.249 100.308 147.43 97.3254L149.048 95.822C150.598 94.4318 152.231 93.1365 153.937 91.9432C154.171 92.0153 154.407 92.0755 154.647 92.1236L159.386 93.1038L159.632 93.1579C158.94 94.1318 158.492 95.258 158.327 96.4414C158.172 97.5115 158.249 98.6024 158.553 99.6401C158.857 100.678 159.381 101.638 160.089 102.455C160.949 103.441 161.785 104.41 162.615 105.372L164.419 107.495H162.982C162.801 107.495 162.615 107.495 162.429 107.495L158.472 107.813C157.039 107.928 155.669 108.451 154.524 109.32C153.38 110.19 152.509 111.37 152.015 112.72C151.521 114.07 151.425 115.533 151.738 116.936C152.051 118.339 152.76 119.622 153.781 120.634C154.581 121.434 155.362 122.288 156.186 123.196C158.034 125.331 160.082 127.285 162.302 129.03C162.266 129.192 162.23 129.366 162.194 129.547C161.782 131.219 161.58 132.936 161.593 134.658C161.671 137.431 161.917 140.125 162.146 142.729C162.236 143.691 162.32 144.647 162.398 145.609C162.398 145.886 162.398 146.156 162.429 146.433C162.459 146.998 162.483 147.534 162.477 147.967C162.334 151.365 162.524 154.768 163.042 158.13C162.441 157.703 161.893 157.276 161.31 156.855C157.702 152.916 155.82 149.638 155.146 146.289C155.074 145.929 154.975 145.576 154.851 145.23C154.346 143.817 153.823 142.41 153.3 141.021C152.169 137.96 151.099 135.073 150.209 132.157C147.777 124.095 143.336 116.784 137.303 110.91C136.131 109.831 135.271 108.456 134.814 106.929C135.47 106.64 136.11 106.317 136.732 105.961H136.708Z" fill="black"/>
<path d="M230.029 124.339C230.113 123.834 229.993 123.04 226.902 120.171C224.088 117.549 222.512 116.647 222.741 116.004C223.041 115.138 226.114 116.184 226.902 114.964C227.503 114.049 226.439 112.426 223.781 108.715C218.423 101.234 217.334 100.092 216.486 100.38C216.101 100.513 215.662 100.982 215.446 102.461L224.821 113.923C222.416 111.836 214.754 105.588 213.365 104.548C211.659 104.013 210.188 102.909 209.198 101.421C207.67 98.895 208.681 96.3572 207.117 95.1725C206.461 94.6794 205.313 94.3547 202.949 95.1725V99.34C203.639 102.118 204.333 104.895 205.03 107.669C202.907 106.37 201.122 104.585 199.822 102.461C198.301 99.9233 198.379 98.2515 196.695 97.2533C194.482 95.9483 190.928 96.8383 190.447 98.2996C189.966 99.761 192.804 100.934 192.534 103.507C192.408 104.638 190.796 116.004 190.447 119.143C189.244 113.779 188.366 107.681 188.366 107.681C188.261 106.575 187.905 105.508 187.326 104.56C186.917 103.959 185.907 102.497 184.199 102.473C182.804 102.473 181.27 103.411 181.072 104.56C180.849 105.871 182.545 106.436 183.158 108.727C183.395 109.754 183.395 110.822 183.158 111.848C182.786 114.188 182.431 117.712 182.118 123.311L177.951 111.854C177.19 112.052 176.479 112.406 175.864 112.895C175.236 113.397 174.724 114.03 174.365 114.75C174.006 115.469 173.807 116.258 173.783 117.062C173.783 118.301 174.282 118.897 174.824 120.189C175.63 122.169 175.986 124.303 175.864 126.438C175.263 125.969 173.789 124.91 172.743 125.397C172.177 125.662 171.48 126.804 172.141 127.237C172.503 127.538 172.932 127.744 173.392 127.839C173.445 127.691 173.539 127.562 173.663 127.466C173.808 127.38 173.98 127.354 174.144 127.394C174.443 127.507 174.707 127.698 174.908 127.947C175.323 128.374 175.726 129.15 176.315 129.33C177.421 129.715 178.66 129.234 179.737 129.799C180.374 130.145 180.923 130.633 181.342 131.225C182.073 132.228 182.519 133.41 182.635 134.646C182.638 134.672 182.638 134.699 182.635 134.725C182.753 134.98 182.837 135.248 182.888 135.524C182.975 136.093 182.941 136.674 182.788 137.228C182.634 137.783 182.365 138.299 181.998 138.742C182.137 138.843 182.261 138.965 182.365 139.102C182.559 139.384 182.656 139.723 182.64 140.065C182.623 140.407 182.495 140.735 182.274 140.997C181.745 141.554 181.04 141.911 180.278 142.007C180.068 142.028 179.856 142.028 179.646 142.007C179.276 142.078 178.898 142.098 178.522 142.067C178.022 141.993 177.546 141.806 177.129 141.52C176.713 141.235 176.366 140.859 176.116 140.419C175.838 139.942 175.589 139.448 175.371 138.94L175.335 138.862L175.19 138.826C175 138.741 174.829 138.617 174.688 138.463C174.548 138.309 174.44 138.127 174.372 137.93C174.082 136.835 173.881 135.719 173.771 134.592C173.722 134.071 173.759 133.544 173.879 133.035C174.024 132.517 174.324 132.06 174.433 131.531C174.517 131.128 174.643 131.05 174.962 130.828C175.377 130.533 175.01 130.094 174.625 130.052C174.251 130.068 173.892 130.201 173.597 130.431C173.171 130.66 172.706 130.809 172.226 130.87C172.021 130.9 171.787 130.924 171.672 131.092C171.595 131.24 171.574 131.411 171.612 131.573C171.757 132.716 171.829 133.841 171.931 134.983C172.035 136.859 172.5 138.697 173.302 140.395C173.498 140.77 173.721 141.13 173.97 141.472C174.472 142.146 175.109 142.71 175.84 143.126C178.101 144.407 181.854 144.653 183.134 143.126C183.483 142.717 183.736 142.055 184.175 142.085C184.74 142.127 185.179 143.384 185.215 144.172C185.341 146.914 180.699 149.067 180.007 149.38C180.356 157.711 180.703 166.044 181.048 174.379C182.521 175.094 184.692 176.183 187.302 177.5C195.625 181.758 199.792 183.886 203.443 186.358C212.295 192.33 216.011 198.518 216.985 197.814C218.308 196.852 209.462 186.755 211.254 177.5C211.66 175.788 211.66 174.004 211.254 172.292C210.623 169.778 208.747 166.447 206.047 166.044C204.399 165.797 203.882 166.868 201.885 167.084C201.139 167.168 198.878 167.277 194.59 163.963C190.685 160.836 187.489 156.915 185.215 152.459C187.651 153.391 193.033 155.153 198.758 154.546C200.746 154.369 202.687 153.84 204.489 152.982C206.049 152.193 207.458 151.134 208.65 149.855C209.171 150.706 209.886 151.421 210.737 151.942C212.505 153 214.303 152.754 216.462 152.459C218.621 152.164 221.237 151.821 223.234 149.855C224.25 148.857 224.31 148.225 225.32 147.774C227.509 146.788 229.843 148.592 230.005 148.297C230.27 147.816 224.557 142.56 220.63 144.13C219.535 144.563 218.771 145.387 218.549 145.17C218.326 144.954 219.054 142.975 220.63 142.043C221.682 141.442 222.47 141.604 222.716 141.003C222.963 140.401 222.41 139.379 221.67 138.922C220.672 138.321 219.385 138.669 218.549 138.922C217.388 139.265 216.883 139.752 215.422 139.962C215.157 139.999 214.424 140.101 214.382 139.962C214.309 139.716 216.144 139.09 218.549 137.876C222.362 135.957 223.017 134.869 224.274 135.272C225.116 135.542 225.212 136.15 227.401 137.359C228.46 137.96 228.826 138.014 228.965 137.876C229.241 137.605 228.568 136.517 228.441 136.318C226.992 134.015 224.701 133.63 224.797 132.668C224.797 132.499 225.164 132.217 225.838 131.627C227.551 130.148 227.768 129.92 227.924 129.547C228.261 128.723 227.75 128.488 227.924 127.46C228.237 125.758 229.825 125.584 230.029 124.339ZM224.815 128.951C224.818 129.34 224.691 129.719 224.454 130.028C224.327 130.192 224.159 130.321 223.967 130.401C223.795 130.508 223.599 130.57 223.396 130.581C223.309 130.6 223.22 130.61 223.131 130.611C222.981 130.611 222.831 130.611 222.686 130.611H222.626H222.512H222.464C222.326 130.575 222.181 130.533 222.043 130.485L221.959 130.449H221.917L221.538 130.214L221.478 130.166C221.332 130.047 221.204 129.907 221.099 129.751C221.057 129.685 221.021 129.595 220.991 129.541C220.96 129.487 220.912 129.402 220.882 129.33V129.264C220.838 129.115 220.806 128.962 220.786 128.807C220.786 128.729 220.786 128.639 220.786 128.573C220.78 128.496 220.78 128.42 220.786 128.344C220.812 128.158 220.867 127.978 220.948 127.809C220.948 127.809 220.948 127.779 220.948 127.761L221.195 127.376C221.214 127.349 221.234 127.323 221.255 127.298C221.374 127.172 221.501 127.053 221.634 126.943L221.736 126.859C221.96 126.707 222.219 126.616 222.488 126.594H222.885C222.975 126.615 223.064 126.643 223.149 126.678H223.264C223.533 126.684 223.797 126.753 224.034 126.882C224.271 127.01 224.473 127.193 224.625 127.415C224.777 127.637 224.873 127.893 224.906 128.16C224.94 128.427 224.908 128.699 224.815 128.951Z" fill="#C4C3C6"/>
<path d="M255.027 227.455C254.022 226.018 249.163 228.261 248.778 227.455C248.327 226.517 255.117 223.847 255.027 220.167C254.973 217.864 252.248 216.21 251.9 215.999C249.723 214.676 248.255 215.356 245.651 214.959C244.539 214.791 243.12 214.406 233.155 206.624C230.232 204.345 228.777 203.208 227.947 202.457C223.653 198.59 223.311 197.092 219.612 194.128C217.425 192.352 214.963 190.944 212.324 189.96C210.145 189.143 207.868 188.617 205.552 188.397C212.901 194.957 219.299 201.103 224.796 206.624C224.796 206.624 227.52 209.631 232.704 218.946C233.341 220.095 234.165 222.031 233.45 223.33C232.734 224.629 230.786 224.918 229.541 225.236C218.205 228.159 205.432 223.258 194.589 220.167C182.664 216.763 176.704 215.061 175.839 214.959C172.429 214.538 169.055 214.424 166.463 211.832C165.417 210.785 165.206 210.028 164.755 208.777C166.768 210.359 169.146 211.41 171.671 211.832C173.053 212.036 174.457 212.036 175.839 211.832C183.969 210.87 193.278 216.823 211.253 222.248C213.514 222.933 216.701 223.841 218.548 222.248C220.568 220.504 219.907 216.673 219.588 214.959C218.716 210.256 215.823 202.968 202.924 192.041C196.803 186.869 190.172 182.334 183.133 178.504C180.439 177.019 160.882 166.278 153.967 163.921C152.92 163.56 150.701 162.935 149.799 163.921C148.897 164.907 149.799 167.313 150.322 168.606C151.459 171.426 152.854 172.815 153.967 174.337C157.731 179.532 157.635 185.684 157.611 187.356C157.566 190.035 157.036 192.684 156.047 195.174C155.987 194.663 155.885 193.971 155.741 193.099C155.506 191.668 155.206 190.183 154.49 187.362C153.928 184.894 153.231 182.459 152.403 180.068C151.989 178.81 151.466 177.59 150.84 176.423C148.434 172.256 144.092 169.634 143.551 170.175C143.118 170.608 145.439 173.609 145.662 174.144C147.863 179.316 148.44 185.059 148.284 190.634C148.164 194.789 148.579 201.993 143.551 203.503C139.257 204.796 136.124 202.763 133.412 202.114L132.907 201.999C132.41 201.871 131.898 201.811 131.385 201.819H130.94C128.445 200.887 127.404 202.974 126.388 204.225C126.252 204.351 126.124 204.486 126.003 204.627C123.381 207.538 122.239 212.686 122.395 216.877C122.395 217.004 122.395 217.13 122.395 217.256C122.395 217.382 122.395 217.659 122.431 217.858C122.545 219.311 123.043 220.707 123.874 221.905L124.019 222.326C124.62 223.865 125.45 225.699 126.382 227.985C129.172 234.81 130.592 238.208 131.59 242.568C132.317 246.357 133.543 250.033 135.234 253.501C135.767 254.616 136.399 255.68 137.122 256.682C139.528 259.893 142.036 260.891 145.65 267.043C147.54 270.293 148.944 273.802 149.817 277.459C152.012 285.878 149.727 295.981 148.777 303.498C147.712 312.147 147.712 320.895 148.777 329.544C164.067 332.512 178.818 337.784 192.526 345.179C207.561 353.34 225 366.155 226.895 363.924C228.055 362.553 221.813 357.092 223.774 351.427C224.862 348.282 227.412 348.126 227.941 345.179C228.771 340.495 222.896 337.746 223.774 334.764C225.121 330.169 240.143 332.899 241.478 328.509C242.41 325.46 236.318 320.265 233.149 318.094C229.655 315.688 228.374 316.067 226.895 313.926C224.261 310.107 225.403 304.647 225.854 302.47C226.829 297.803 228.428 297.34 227.941 295.181C226.81 290.172 217.519 289.607 217.525 286.846C217.525 284.898 223.479 285.397 227.941 280.598C229.216 279.221 231.249 277.038 231.062 274.35C230.81 270.61 226.564 270.08 224.814 264.975C224.429 263.85 223.202 260.266 224.814 257.68C227.544 253.314 235.825 255.954 237.316 252.472C238.375 249.989 234.46 247.962 235.23 244.143C235.422 243.181 235.765 242.838 242.524 236.849C246.247 233.547 248.141 231.893 249.813 231.641C251.352 231.412 252.784 231.701 253.98 230.601C254.918 229.723 255.574 228.195 255.027 227.455Z" fill="#C4C3C6"/>
<path d="M110.241 180.585C112.135 180.242 105.701 164.655 113.368 150.378C115.858 145.742 119.442 141.959 121.703 133.714C122.623 130.335 123.453 127.171 122.744 123.299C121.691 117.567 118.456 116.683 114.409 109.756C112.659 106.749 106.867 96.8143 110.241 89.9647C111.516 87.3848 113.164 87.1202 118.576 83.7165C134.019 73.9923 134.813 67.1969 142.535 67.0465C147.225 66.9563 149.3 69.4159 155.031 68.0929C157.214 67.5817 158.916 66.7098 162.326 64.9658C166.968 62.5603 168.604 61.1471 172.741 58.7176C176.038 56.6547 179.526 54.9147 183.157 53.5218C192.514 50.124 199.436 51.4831 199.821 49.3543C200.025 48.2297 198.305 46.7203 196.694 46.2272C193.687 45.3071 191.817 48.1576 187.325 48.3139C185.148 48.3861 185.087 47.7125 182.117 47.2675C180.535 47.021 172.387 45.9265 166.481 50.3946C163.793 52.4393 164.388 53.4977 161.273 55.6025C158.339 57.587 155.5 58.2004 152.944 58.7296C148.735 59.5956 147.321 59.0543 141.482 59.77C141.482 59.77 139.107 60.0646 135.234 60.8103C128.992 62.0131 115.353 65.9701 97.7387 72.2664C95.0653 73.663 92.8845 75.8459 91.4905 78.5206C89.963 81.6357 90.7508 83.3797 90.4441 91.0171C90.1374 98.7687 89.1331 101.842 90.4441 102.443C92.5188 103.447 96.1571 96.3692 100.86 97.2352C102.357 97.5118 103.265 98.4379 105.027 100.362C106.152 101.565 108.299 103.85 109.519 106.274C109.616 106.46 109.7 106.653 109.784 106.839C110.624 108.352 111.218 109.988 111.546 111.686C111.588 111.891 111.636 112.095 111.678 112.287C111.843 112.589 111.974 112.907 112.069 113.238C112.117 113.361 112.157 113.488 112.19 113.616C112.839 115.421 113.885 117.531 113.885 119.63C112.117 118.764 110.579 117.49 109.399 115.914C109.315 115.817 109.225 115.733 109.123 115.613C108.251 114.777 107.445 113.953 106.651 113.647C106.474 113.659 106.298 113.692 106.128 113.743C103.325 114.543 99.8194 115.084 97.7086 118.073C95.7181 120.923 96.3736 124.086 97.7086 131.609C101.636 153.776 99.9096 148.694 101.876 156.608C102.369 158.479 107.998 181.012 110.241 180.585Z" fill="#C4C3C6"/>
<path d="M201.385 382.133C204.819 383.865 210.778 388.532 218.572 388.905C219.131 389.699 219.775 390.522 220.424 391.358C222.643 391.677 224.868 391.96 227.099 392.158C223.647 388.55 220.484 385.032 217.532 381.616C214.333 380.808 211.2 379.762 208.156 378.489C204.987 377.166 200.579 375.037 189.406 367.063C182.334 362 177.763 358.722 175.111 356.623C174.969 356.781 174.809 356.922 174.636 357.044C173.866 357.591 173.115 358.151 172.387 358.746C172.237 358.914 172.074 359.065 171.924 359.233C174.221 361.079 177.138 363.533 181.095 367.051C194.289 378.772 195.221 379.042 201.385 382.133Z" fill="#C4C3C6"/>
<path d="M231.068 375.368C226.57 373.696 225.355 373.191 223.78 372.241C222.289 371.341 220.893 370.294 219.612 369.114C221.72 369.295 223.809 369.645 225.861 370.16C227.988 370.728 230.078 371.425 232.121 372.247C235.2 373.389 237.996 374.442 240.45 375.374L244.617 378.495L257.114 375.374C255.04 375.643 252.939 375.643 250.865 375.374C247.456 374.923 245.453 373.895 241.49 372.247C241.49 372.247 236.817 370.322 230.034 368.079C226.282 366.843 222.468 365.801 218.608 364.958L213.4 360.791C208.794 357.555 204.704 354.963 201.421 352.973C188.528 345.155 187.974 346.797 185.274 344.115C184.998 343.838 183.969 342.798 183.193 343.074C181.87 343.55 183.127 347.146 181.107 349.323C180.648 349.8 180.098 350.18 179.49 350.44C178.881 350.7 178.227 350.836 177.565 350.838C177.565 350.88 177.601 350.91 177.613 350.952C177.714 351.282 177.747 351.63 177.71 351.973C177.673 352.316 177.566 352.648 177.396 352.949C177.287 353.13 177.162 353.301 177.023 353.46C178.178 354.567 178.936 355.481 180.066 356.617C182.388 358.945 184.42 360.286 188.401 362.865C193.212 365.987 197.981 369.066 202.984 372.241L209.233 373.281C210.099 373.967 212.715 375.981 213.4 375.368C213.432 375.334 213.459 375.296 213.478 375.254C213.815 374.592 212.222 373.371 210.79 371.718C210.002 370.814 209.307 369.832 208.716 368.789C201.812 362.228 195.822 358.668 191.516 356.617C189.351 355.583 184.992 353.683 185.268 352.45C185.467 351.578 187.902 351.439 188.395 351.409C191.637 351.223 194.211 352.612 195.684 353.49C199.914 356.078 203.771 359.232 207.146 362.865C209.473 364.399 211.921 366.125 214.435 368.073C216.708 369.835 218.788 371.585 220.683 373.281L232.121 380.576L245.658 381.616C243.637 380.454 241.551 379.41 239.409 378.489C237.443 377.659 236.817 377.497 231.068 375.368Z" fill="#C4C3C6"/>
<path d="M158.153 345.185C158.093 344.716 158.983 344.253 159.194 344.139C161.924 342.714 167.673 346.845 169.61 348.306C170.884 348.953 172.113 349.684 173.29 350.495C174.187 350.706 174.983 351.22 175.545 351.951V351.891C175.543 351.881 175.543 351.87 175.545 351.86V351.752C175.539 351.716 175.539 351.68 175.545 351.644L175.491 351.506C175.47 351.481 175.452 351.455 175.437 351.427C175.401 351.373 175.365 351.313 175.323 351.259C175.28 351.205 175.226 351.157 175.19 351.103L175.154 351.067C175.025 350.94 174.888 350.822 174.745 350.712C174.537 350.532 174.407 350.279 174.382 350.005C174.357 349.731 174.44 349.458 174.613 349.244C174.664 349.186 174.725 349.138 174.793 349.1C174.493 348.397 174.451 347.663 174.793 347.296C175.347 346.695 177.048 347.055 178.961 348.336C179.31 346.947 179.652 345.558 180.001 344.169L178.961 342.088L168.545 336.88C162.922 335.858 156.608 334.475 148.754 332.713V337.921L145.627 338.961V345.185C146.619 345.384 148.075 345.708 149.794 346.226C155.177 347.837 159.867 350.297 166.079 354.807C167.182 353.552 168.439 352.44 169.82 351.5C167.445 349.094 164.408 346.616 161.25 346.226C160.703 346.129 158.256 345.901 158.153 345.185Z" fill="#C4C3C6"/>
<path d="M244.75 390.053L249.561 391.653L251.467 391.455L254.655 389.049C256.301 389.203 257.958 389.203 259.604 389.049C267.157 388.333 272.629 384.485 275.432 382.121L276.033 381.358C276.334 380.919 276.839 380.155 277.41 379.157C283.382 368.735 279.413 363.936 283.346 353.436C284.939 349.166 286.894 346.184 286.311 341.565C286.112 339.971 285.805 339.761 285.324 336.616C285.054 334.854 284.488 330.891 284.332 327.716C283.935 319.633 285.908 314.894 284.741 314.413C284.248 314.209 283.183 314.762 280.58 318.581C281.483 323.23 282.086 327.932 282.384 332.659C282.985 342.557 281.885 346.49 280.405 349.497C279.92 350.472 279.366 351.411 278.745 352.306L274.818 356.437L270.465 362.354C269.385 365.021 267.692 367.394 265.521 369.282C263.176 371.261 260.53 372.337 260.572 374.225C260.572 375.518 261.853 376.09 261.564 377.196C261.3 378.188 260.085 378.501 258.594 379.175C255.412 380.606 255.43 381.646 252.658 383.132C250.643 384.208 248.924 384.575 245.736 385.11C242.086 385.712 237.077 386.463 230.895 387.089L239.795 392.032L244.75 390.053Z" fill="#C4C3C6"/>
<path d="M263.393 359.744C264.401 352.321 264.923 344.841 264.956 337.349C264.956 332.37 264.776 327.667 264.433 323.283H270.681C271.728 324.631 271.974 325.641 271.722 326.411C271.469 327.18 270.699 327.451 269.641 328.491C268.768 329.403 268.064 330.462 267.56 331.618C266.52 334.06 267.127 336.58 267.56 337.867L263.393 359.744Z" fill="#C4C3C6"/>
<path d="M278.986 320.162L275.342 319.639L273.778 321.203V329.55C273.911 341.637 272.293 346.863 270.651 349.335C270.387 349.732 269.37 351.199 269.611 351.421C269.948 351.728 272.948 349.732 274.819 347.254C278.15 342.84 276.791 338.408 277.946 327.463C278.289 324.198 278.721 321.612 278.986 320.162Z" fill="white"/>
<path d="M300.78 376.751C303.221 375.693 305.657 374.616 308.086 373.522C306.357 367.519 304.095 361.682 301.327 356.082C299.485 359.263 298.477 362.859 298.398 366.534C298.398 370.539 299.601 372.812 300.599 376.114L300.78 376.751Z" fill="#C4C3C6"/>
<path d="M228.989 102.461H234.257L256.068 84.7568L227.076 102.461H228.989Z" fill="#C4C3C6"/>
<path d="M230.027 101.944L236.799 98.8168C243.57 93.9578 250.34 89.0967 257.107 84.2336L228.121 101.944H230.027Z" fill="white"/>
<path d="M234.195 111.836L239.403 114.964L260.235 106.629L234.195 111.836Z" fill="#C4C3C6"/>
<path d="M218.572 98.2996L241.575 66.1805L215.445 97.2532L218.572 98.2996Z" fill="#C4C3C6"/>
<path d="M235.236 136.835L243.571 142.043L235.236 134.755V136.835Z" fill="#C4C3C6"/>
<path d="M237.316 124.339L253.986 128.506L237.316 122.252V124.339Z" fill="#C4C3C6"/>
<path d="M173.782 121.212L158.158 113.923L172.567 114.964L173.782 121.212Z" fill="#C4C3C6"/>
<path d="M178.99 105.588L165.971 95.9242L180.217 102.461L178.99 105.588Z" fill="#C4C3C6"/>
<path d="M189.406 97.2533L185.238 89.9647L187.325 88.9243L191.318 95.9242L189.406 97.2533Z" fill="#C4C3C6"/>
<path d="M202.949 93.0918L198.781 82.6701L199.822 81.6297L205.029 92.0454L214.405 67.0465L207.459 93.0918H203.237H202.949Z" fill="#C4C3C6"/>
<path d="M173.788 66.0061C173.572 66.7277 174.39 67.6178 175.869 69.1332C177.355 70.8089 179.116 72.2183 181.077 73.3007C186.104 76.0369 193.549 77.414 194.62 75.3814C194.884 74.8763 194.854 73.9802 193.579 72.2543L183.158 64.9477C175.911 64.3764 174.047 65.1401 173.788 66.0061Z" fill="#C4C3C6"/>
<path d="M195.655 69.1573C195.901 68.2011 196.857 68.3033 197.741 67.0705C198.289 66.3188 198.463 65.1702 198.782 62.9091C199.167 60.1488 199.076 59.2587 199.822 58.7416C200.125 58.5202 200.49 58.4009 200.866 58.4009C201.241 58.4009 201.606 58.5202 201.909 58.7416C202.288 59.1445 202.059 59.788 201.909 60.8223C201.56 63.1436 202.204 63.306 201.909 64.9898C201.771 65.7716 201.62 65.8076 199.822 69.1573C198.439 71.7431 198.247 72.2363 197.741 72.2784C196.701 72.3445 195.312 70.4622 195.655 69.1573Z" fill="#C4C3C6"/>
<path d="M288.36 319.116C287.474 317.533 287.108 315.711 287.314 313.908C287.621 311.53 288.728 309.326 290.453 307.66C291.956 306.253 292.257 306.878 293.58 305.579C296.124 303.078 295.486 300.293 297.748 299.331C298.349 299.066 299.359 298.862 299.828 299.331C300.297 299.8 299.973 300.979 299.828 301.412C299.041 303.775 297.327 303.733 296.701 305.579C296.076 307.425 297.531 308.73 296.701 309.747C295.871 310.763 293.869 309.608 292.54 310.787C291.776 311.455 292.047 312.176 291.493 314.955C291.217 316.35 290.471 320.114 289.413 320.162C288.998 320.18 288.679 319.651 288.36 319.116Z" fill="#C4C3C6"/>
<path d="M296.798 318.238C296.347 317.913 296.522 317.312 296.798 316.885C297.343 316.139 298.036 315.514 298.834 315.049C299.632 314.585 300.517 314.29 301.435 314.185C302.595 314.022 303.78 314.119 304.953 314.064C306.1 314.083 307.224 313.733 308.158 313.066C308.759 312.525 309.084 311.761 309.794 311.262C310.675 310.799 311.671 310.601 312.662 310.691C314.477 310.709 316.287 310.874 318.075 311.184C318.953 311.34 319.843 311.515 320.697 311.785C320.697 311.785 322.603 312.531 322.302 312.609C319.616 313.295 316.972 314.087 314.37 314.985C308.958 316.843 303.359 319.194 297.562 318.46C297.294 318.446 297.032 318.37 296.798 318.238Z" fill="#C4C3C6"/>
<path d="M297.737 325.37C297.568 325.815 296.594 328.515 297.737 329.538C298.555 330.271 300.088 329.79 300.858 329.538C308.964 326.868 313.018 325.533 313.36 325.37C322.766 320.896 327.09 319.832 326.897 318.076C326.813 317.294 325.821 316.338 324.816 315.995C324.139 315.786 323.414 315.786 322.736 315.995C320.481 316.653 318.363 317.71 316.481 319.116C312.975 320.571 309.151 321.985 305.055 323.283C302.518 324.077 300.076 324.739 297.737 325.37Z" fill="#C4C3C6"/>
<path d="M301.88 337.867C301.575 337.608 301.326 337.29 301.148 336.932C300.969 336.575 300.864 336.185 300.84 335.786C300.773 333.982 302.746 332.779 302.926 332.659C306.721 331.336 309.92 330.289 312.296 329.538C319.217 327.337 315.741 328.69 319.59 327.451C322.928 326.381 325.724 325.304 327.925 326.411C328.707 326.802 328.899 327.216 328.966 327.451C329.29 328.654 327.516 330.067 326.879 330.578C323.349 333.399 319.344 332.917 313.342 334.746C307.166 336.622 303.828 339.448 301.88 337.867Z" fill="#C4C3C6"/>
<path d="M302.943 348.282C302.649 347.519 303.93 346.25 305.024 345.161C305.905 344.25 306.972 343.539 308.151 343.075C310.28 342.287 311.05 343.159 314.399 343.075C316.517 342.988 318.616 342.639 320.648 342.034C323.426 341.27 325.326 340.32 325.855 340.994C326.102 341.307 325.934 341.812 325.855 342.034C325.013 344.482 320.593 345.678 318.567 346.202C312.234 347.831 303.617 350.05 302.943 348.282Z" fill="#C4C3C6"/>
<path d="M240.443 367.033C252.176 360.851 255.965 356.461 257.107 353.49C257.336 352.889 257.853 351.349 258.154 351.409C258.641 351.506 259.02 356.088 257.107 359.744C254.515 364.7 248.496 366.42 248.778 367.033C249.019 367.556 252.988 365.349 256.067 367.033C256.934 367.53 257.654 368.248 258.154 369.114C255.646 370.627 252.743 371.354 249.819 371.201C246.298 370.967 242.975 369.49 240.443 367.033Z" fill="white"/>
<path d="M145.657 56.6309C143.284 52.9158 142.182 48.5301 142.518 44.1344C142.935 40.341 144.392 36.7365 146.728 33.7187C151.376 27.0616 157.973 24.5238 161.281 23.303C166.288 21.5151 171.616 20.8041 176.916 21.2163C180.81 21.4087 184.661 22.1102 188.372 23.303C185.462 24.7403 184.361 27.681 185.245 29.5512C186.009 31.1569 188.048 31.5718 188.372 31.632C184.836 32.3717 182.9 34.4404 183.165 35.7995C183.429 37.1586 186.045 37.8261 186.286 37.8862C187.067 38.0157 187.789 38.3861 188.349 38.9457C188.91 39.5053 189.282 40.2261 189.413 41.0073C189.508 41.9673 189.239 42.9278 188.66 43.6994C188.081 44.4709 187.234 44.9974 186.286 45.1748C183.697 43.8742 180.853 43.1636 177.957 43.0941C173.445 43.0685 169.051 44.5311 165.454 47.2555C162.405 49.661 163.217 50.6112 160.246 52.4634C157.889 53.9367 155.49 54.514 150.871 55.5905C148.7 56.0956 146.89 56.4264 145.657 56.6309Z" fill="#C4C3C6"/>
<path d="M138.368 48.302C138.615 45.1628 139.252 38.1749 143.576 31.632C148.249 24.566 154.84 21.6493 158.153 20.176C169.116 15.3169 179.418 16.9286 184.192 18.0952C190.294 19.6009 195.985 22.446 200.85 26.4242C199.681 24.5235 198.281 22.7744 196.683 21.2163C187.061 11.847 173.23 12.6649 169.621 12.8874C165.592 13.1279 154.653 13.9338 145.663 22.2567C143.51 24.2533 137.923 29.5633 136.288 37.8923C135.641 41.3341 135.641 44.8662 136.288 48.308C136.722 50.4689 137.423 52.5676 138.374 54.5562C138.207 52.4749 138.205 50.3836 138.368 48.302Z" fill="#C4C3C6"/>
<path d="M157.636 18.9792C157.287 17.9328 156.944 16.8924 156.596 15.852C161.407 13.3523 166.829 12.268 172.231 12.7249V15.852C170.253 16.1106 168.16 16.4534 165.983 16.8924C162.964 17.4998 160.18 18.2154 157.636 18.9792Z" fill="white"/>
<path d="M156.349 31.3373L154.822 27.8193C154.675 27.5624 154.618 27.2642 154.66 26.9714C154.756 26.5865 155.153 26.37 155.514 26.2137C160.606 23.9181 166.008 22.3803 171.546 21.6493C172.983 21.4628 175.154 21.1261 176.447 22.0582C176.719 22.28 176.94 22.5574 177.096 22.8716C177.253 23.1859 177.34 23.5298 177.352 23.8805C177.365 24.2311 177.302 24.5804 177.169 24.905C177.036 25.2296 176.835 25.522 176.579 25.7626C175.515 26.803 173.927 27.0375 172.454 27.26C166.96 28.0956 161.564 29.4838 156.349 31.4035V31.3373Z" fill="white"/>
<path d="M182.635 107.152C182.91 107.756 183.349 108.27 183.902 108.638C184.454 109.006 185.098 109.212 185.762 109.232C186.898 109.232 188.594 108.631 188.883 107.152C188.977 106.467 188.817 105.771 188.434 105.195C188.051 104.619 187.471 104.203 186.802 104.025C185.111 104.589 183.649 105.686 182.635 107.152Z" fill="white"/>
<path d="M193.032 104.037C192.196 101.505 192.527 100.429 193.032 99.8692C193.399 99.4904 193.681 99.5926 195.119 98.8289C196.556 98.0651 196.658 97.7584 197.199 97.7885C198.186 97.8426 199.003 98.9912 199.28 99.8692C199.493 100.549 199.493 101.277 199.28 101.956C198.597 101.785 197.882 101.785 197.199 101.956C196.463 102.209 195.763 102.559 195.119 102.996C194.649 103.255 193.94 103.628 193.032 104.037Z" fill="white"/>
<path d="M194.091 107.152C192.948 108.775 192.888 111.476 194.091 112.36C195.023 113.033 196.58 112.552 197.218 112.36C197.855 112.167 198.751 111.728 200.345 111.319C200.796 111.199 201.175 111.115 201.385 111.319C201.824 111.734 200.952 112.871 201.385 113.4C201.638 113.713 202.251 113.61 203.466 113.4C204.568 113.268 205.632 112.915 206.593 112.36C207.194 111.963 207.585 111.716 207.633 111.319C207.736 110.477 206.274 109.678 205.553 109.233C203.454 107.902 201.675 106.124 200.345 104.025C199.268 104.258 198.22 104.607 197.218 105.065C195.714 105.757 194.77 106.19 194.091 107.152Z" fill="white"/>
<path d="M207.632 106.111C207.26 105.047 207.001 103.772 207.632 102.984C208.264 102.196 209.695 102.299 209.719 101.944C209.743 101.589 207.765 101.132 206.592 100.904C204.006 100.392 203.585 100.699 203.465 100.904C203.345 101.108 203.267 101.318 203.465 101.944C204.121 103.989 206.616 105.534 207.632 106.111Z" fill="white"/>
<path d="M204.512 97.7765C204.254 97.4913 204.111 97.1205 204.111 96.7361C204.111 96.3517 204.254 95.9809 204.512 95.6957C204.891 95.377 205.264 95.6957 206.593 95.6957C207.922 95.6957 208.294 95.377 208.673 95.6957C208.929 95.9821 209.07 96.3524 209.07 96.7361C209.07 97.1198 208.929 97.49 208.673 97.7765C208.294 98.0892 207.922 97.7765 206.593 97.7765C205.264 97.7765 204.891 98.0892 204.512 97.7765Z" fill="white"/>
<path d="M202.426 139.439C201.356 140.383 200.953 141.7 201.386 142.566C201.951 143.691 203.713 143.637 204.513 143.607C205.626 143.537 206.702 143.178 207.634 142.566C208.879 141.845 210.256 141.045 210.761 139.439C211.218 137.984 210.93 135.933 209.721 135.272C209.42 135.115 208.861 134.923 207.634 135.272C204.964 136.036 203.256 138.164 202.426 139.439Z" fill="white"/>
<path d="M218.049 140.48C217.953 140.323 217.902 140.143 217.902 139.959C217.902 139.776 217.953 139.596 218.049 139.439C218.433 138.958 219.299 139.439 221.176 139.439C222.457 139.439 223.16 139.205 223.256 139.439C223.353 139.674 222.715 140.197 222.216 140.48C220.803 141.321 218.608 141.442 218.049 140.48Z" fill="white"/>
<path d="M214.928 138.399C214.188 137.888 214.182 136.156 214.928 135.272C215.121 135.043 215.271 134.983 217.009 134.231C218.747 133.48 218.897 133.413 219.09 133.191C219.631 132.59 219.408 132.187 220.136 131.11C220.521 130.509 220.737 130.196 221.176 130.064C221.563 130.018 221.954 130.08 222.308 130.243C222.661 130.406 222.962 130.664 223.178 130.988C223.393 131.312 223.515 131.689 223.529 132.078C223.543 132.467 223.449 132.852 223.257 133.191C222.572 134.075 221.236 133.305 220.136 134.231C219.444 134.833 219.721 135.32 219.09 136.318C218.085 137.912 215.842 139.042 214.928 138.399Z" fill="white"/>
<path d="M218.049 146.734C217.599 146.96 217.235 147.325 217.009 147.774C216.792 148.212 216.717 148.706 216.796 149.188C216.875 149.671 217.104 150.116 217.449 150.461C217.794 150.806 218.239 151.035 218.722 151.114C219.204 151.193 219.698 151.118 220.136 150.901C220.588 150.677 220.954 150.309 221.176 149.855C221.328 149.529 221.406 149.174 221.406 148.815C221.406 148.455 221.328 148.1 221.176 147.774C220.95 147.325 220.585 146.96 220.136 146.734C219.809 146.58 219.453 146.501 219.092 146.501C218.732 146.501 218.375 146.58 218.049 146.734Z" fill="white"/>
<path d="M182.052 129.09C181.673 129.39 182.166 130.491 182.052 132.908C181.998 134.111 181.841 134.418 182.052 134.815C182.521 135.699 184.067 135.753 184.981 134.815C185.438 134.352 185.913 133.462 185.714 132.908C185.516 132.355 184.824 132.686 184.253 131.952C183.778 131.351 184.012 130.834 183.519 130.046C183.122 129.414 182.389 128.825 182.052 129.09Z" fill="white"/>
<path d="M173.788 132.668C173.685 132.914 173.186 134.189 173.788 134.754C174.269 135.218 175.207 134.947 175.868 134.754C176.603 134.492 177.303 134.143 177.955 133.714C178.442 133.444 179.158 133.071 180.036 132.668L178.995 129.547C177.891 129.667 176.825 130.022 175.868 130.587C174.959 131.025 174.225 131.758 173.788 132.668Z" fill="white"/>
<path d="M172.741 136.835C171.96 137.437 172.585 140.913 174.822 142.043C175.712 142.494 177.161 142.729 177.949 142.043C178.737 141.358 178.454 140.077 178.99 139.962C179.368 139.878 179.958 140.425 180.03 141.003C180.15 141.935 178.857 142.392 178.99 143.083C179.122 143.775 180.794 144.286 182.117 144.13C182.375 144.094 184.673 143.787 185.238 142.043C185.695 140.636 184.817 138.928 184.197 138.922C183.692 138.922 183.356 140.035 183.157 139.962C182.959 139.89 183.921 137.755 183.157 136.835C182.267 135.765 179.302 136.733 178.99 136.835C177.258 137.401 176.801 138.17 175.863 137.876C175.165 137.659 174.894 137.07 173.782 136.835C173.295 136.733 172.964 136.667 172.741 136.835Z" fill="white"/>
<path d="M122.743 66.0062C122.611 65.4048 126.502 64.7072 136.28 60.7983C138.686 59.8422 140.652 58.9942 143.575 58.7176C144.11 58.6635 144.663 58.6334 149.823 58.7176C155.326 58.8078 155.398 58.8559 156.071 58.7176C158.854 58.0616 161.388 56.6142 163.366 54.5501C165.675 52.1867 165.236 51.0442 167.533 49.3423C169.079 48.2428 170.864 47.5275 172.741 47.2555C174.359 46.9609 177.895 46.3114 180.03 48.3019C180.252 48.5064 181.365 49.5828 181.07 50.3826C180.775 51.1825 179.116 51.1404 176.909 51.423C176.229 51.5132 172.368 52.0244 169.614 53.5098C167.299 54.7486 167.539 55.7108 164.406 58.7176C161.784 61.2313 159.836 63.0956 157.118 63.9255C153.052 65.1282 151.705 62.7227 145.656 62.8851C142.222 62.9693 142.138 63.7751 136.28 64.9658C130.164 66.2107 122.924 66.8241 122.743 66.0062Z" fill="white"/>
<path d="M90.4518 79.549C89.6159 81.4132 90.1391 84.6365 92.5386 85.7972C94.3848 86.6932 96.8925 86.14 97.7464 84.7568C98.4741 83.5541 97.3796 82.7964 97.7464 80.5893C98.2034 77.8351 100.23 77.1435 99.8271 75.3815C99.7099 74.8746 99.4527 74.4109 99.0849 74.043C98.717 73.6752 98.2533 73.418 97.7464 73.3008C96.5437 73.1384 96.0205 74.3531 92.5386 77.4622C90.987 78.8514 90.7345 78.9296 90.4518 79.549Z" fill="white"/>
<path d="M99.8808 85.8152C99.6692 86.8035 99.6346 87.8216 99.7786 88.822C100.085 90.7584 101.216 92.4302 102.437 93.9878C103.94 95.8701 105.774 97.4817 107.205 99.4001C107.948 100.368 108.531 101.448 108.931 102.599C109.352 103.874 109.292 105.263 109.803 106.502C109.879 106.713 110.012 106.898 110.187 107.037C110.363 107.177 110.573 107.264 110.796 107.29C110.38 105.077 110.129 102.835 110.044 100.585C109.948 99.3821 109.833 98.2094 109.635 97.0307C109.455 95.9843 108.721 94.6252 108.721 93.6029C107.367 90.1687 104.714 87.407 101.336 85.9174C103.339 85.2319 105.251 83.981 106.201 82.0927C106.789 80.9135 106.907 79.5551 106.532 78.2921C106.219 77.2698 105.101 75.4115 103.82 76.3737C103.443 76.6992 103.152 77.1122 102.972 77.5765C102.116 79.3463 101.361 81.1633 100.711 83.0188C100.368 83.9301 100.091 84.8646 99.8808 85.8152Z" fill="white"/>
<path d="M200.424 118.896C201.513 116.875 203.098 115.164 205.03 113.923C206.916 112.741 209.06 112.031 211.279 111.854C213.51 111.62 216.282 111.325 218.573 112.895C219.716 113.683 220.185 114.549 221.694 114.982C222.722 115.23 223.794 115.23 224.821 114.982C229.031 114.38 234.275 117.321 234.197 119.149C234.155 120.183 232.393 121.085 231.07 121.23C228.742 121.482 226.493 119.546 224.821 118.109C224.242 117.568 223.52 117.205 222.741 117.062C222.394 117.01 222.041 117.01 221.694 117.062C221.076 118.455 219.964 119.569 218.573 120.189C216.366 121.019 214.213 119.835 212.325 119.149C209.817 118.223 205.992 117.555 200.424 118.896Z" fill="black"/>
<path d="M198.258 119.672C197.422 120.34 197.422 122.33 198.258 122.799C198.42 122.877 198.598 122.918 198.778 122.918C198.958 122.918 199.136 122.877 199.298 122.799C198.893 123.802 198.893 124.924 199.298 125.927C199.773 126.841 200.561 127.555 201.518 127.937C202.475 128.319 203.538 128.344 204.512 128.007C205.216 127.743 206.478 127.003 206.593 125.927C206.725 124.67 205.222 123.9 205.552 122.799C205.697 122.306 206.154 122.048 206.593 121.759C208.553 120.556 210.309 121.458 210.76 120.719C211.211 119.979 210.159 118.055 208.673 117.592C208.385 117.501 207.886 117.405 204.512 118.632C202.275 119.444 202.173 119.606 201.385 119.672C199.647 119.811 198.925 119.125 198.258 119.672Z" fill="white"/>
<path d="M228.466 121.735C228.309 121.651 228.171 121.591 228.033 121.531L227.299 121.915L227.113 122.012C226.541 121.795 225.772 123.034 225.008 123.01C224.932 123.007 224.857 122.993 224.785 122.968C223.258 122.775 223.258 122.775 222.879 121.482C222.876 121.434 222.876 121.386 222.879 121.338C222.901 121.205 222.941 121.075 222.999 120.953C222.999 120.887 223.065 120.821 223.101 120.755C222.783 120.364 222.975 120.105 223.294 119.883L223.486 119.75L223.36 119.624L223.264 119.504V119.257C223.252 119.029 223.252 118.8 223.264 118.572C223.264 118.524 223.264 118.47 223.264 118.409C223.222 117.568 223.222 116.527 222.061 116.822L221.929 116.756C220.846 116.226 220.594 116.449 220.66 116.912C220.671 116.987 220.687 117.062 220.708 117.135C221.159 118.608 221.159 118.608 219.782 118.999C219.755 119.044 219.734 119.092 219.722 119.143C219.715 119.201 219.715 119.26 219.722 119.318C219.719 119.362 219.719 119.406 219.722 119.45C219.203 119.593 218.712 119.825 218.272 120.135H218.056C217.855 120.147 217.658 120.2 217.478 120.291C217.298 120.382 217.138 120.509 217.01 120.665C216.676 121.117 216.496 121.663 216.496 122.225C216.496 122.787 216.676 123.334 217.01 123.786C217.701 124.573 218.639 124.104 219.09 124.826C219.62 125.674 218.543 126.63 219.09 127.953C219.132 128.043 219.529 128.963 220.137 128.994C220.744 129.024 221.189 128.32 222.217 126.913C222.729 126.215 222.921 125.878 223.258 125.872C223.709 125.872 224.124 126.432 224.298 126.913C224.641 127.839 224.04 128.296 224.298 128.994C224.725 130.124 226.956 130.617 227.425 130.034C227.522 129.92 227.491 129.823 227.425 128.994C227.293 127.394 227.341 127.129 227.425 126.913C227.558 126.57 227.744 126.462 228.466 125.872C229.837 124.748 230.516 124.183 230.552 123.786C230.625 122.866 228.983 122.006 228.466 121.735Z" fill="white"/>
<path d="M197.243 120.695C197.243 120.695 199.047 123.377 198.283 125.902C197.878 127.057 197.356 128.167 196.725 129.216C196.671 129.312 196.533 129.547 196.202 130.064C195.042 131.898 194.037 133.269 193.905 133.456C192.732 135.073 191.554 138.086 190.994 140.48C190.73 141.616 188.902 149.458 193.075 155.063C193.785 156.019 194.939 157.089 197.243 159.23C199.696 161.509 200.929 162.646 201.41 162.357C202.186 161.888 201.224 158.148 199.323 155.063C197.7 152.423 196.581 152.206 195.162 149.855C193.838 147.648 193.105 145.138 193.033 142.566C192.907 135.055 200.045 132.644 199.281 125.902C199.062 124.02 198.36 122.226 197.243 120.695Z" fill="black"/>
<path d="M195.065 26.5925C195.065 26.5925 192.828 29.9602 189.052 31.0246C187.287 31.4506 185.495 31.7501 183.688 31.9207C183.531 31.9207 183.134 31.9748 182.232 32.0409C179.069 32.2755 176.597 32.3356 176.273 32.3476C173.374 32.4318 168.665 33.4481 165.189 34.5847C163.536 35.1259 152.152 38.8544 147.798 46.2693C147.052 47.5322 146.469 49.2761 145.29 52.6979C144.039 56.3723 143.432 58.2065 144.136 58.429C145.272 58.7838 149.44 55.4221 152.11 51.6816C154.401 48.4823 153.914 47.3698 155.958 44.5434C158.108 41.7537 160.829 39.4554 163.939 37.802C173.56 32.6062 181.595 37.1526 189.797 31.9267C191.947 30.5864 193.752 28.7591 195.065 26.5925Z" fill="black"/>
<path d="M218.675 94.7997L224.965 88.9424L242.008 65.489L216.582 95.4552L218.675 94.7997Z" fill="white"/>
<path d="M180.555 173.795C184.446 178.276 187.645 180.188 189.93 181.09C192.335 182.046 194.47 182.136 197.219 184.211C198.036 184.812 198.74 185.492 199.299 185.251C200.262 184.849 200.352 182.04 199.299 180.044C198.85 179.271 198.25 178.597 197.535 178.061C196.821 177.524 196.005 177.137 195.138 176.922V170.668C194.37 170.485 193.652 170.136 193.033 169.646C191.451 168.359 191.085 166.477 190.952 166.525C190.82 166.573 191.686 168.93 191.993 171.733C192.146 173.118 192.146 174.515 191.993 175.9C191.071 175.039 190.014 174.335 188.866 173.813C187.231 173.077 185.45 172.721 183.658 172.773C183.838 165.346 183.778 163.404 183.658 163.398C183.537 163.392 183.549 167.222 181.577 171.733C181.216 172.593 180.843 173.296 180.555 173.795Z" fill="white"/>
<path d="M152.427 166.525C151.766 168.094 155.482 171.053 157.635 172.773C160.238 174.782 163.03 176.534 165.97 178.005C167.666 178.889 167.365 178.642 168.051 179.045C171.545 181.096 172.393 183.363 177.426 189.461C178.333 190.63 179.384 191.681 180.553 192.588C182.099 193.791 183.759 194.994 185.761 194.669C187.026 194.391 188.14 193.649 188.882 192.588C189.435 191.853 189.815 191.004 189.997 190.103C190.178 189.202 190.154 188.271 189.929 187.38C189.081 184.602 185.996 184.62 179.513 181.132C176.18 179.377 173.038 177.281 170.138 174.878C167.522 172.689 166.499 171.372 162.843 168.63C160.438 166.825 158.303 165.46 155.554 165.502C154.857 165.49 152.848 165.521 152.427 166.525Z" fill="white"/>
<path d="M188.883 201.939C187.981 201.218 187.326 199.78 187.843 198.812C188.36 197.844 189.605 197.844 190.97 197.772C191.956 197.718 194.674 197.579 195.137 198.812C195.51 199.817 194.235 201.278 193.051 201.939C192.942 201.999 190.567 203.262 188.883 201.939Z" fill="white"/>
<path d="M192.009 194.645C191.035 193.292 191.053 191.091 192.009 190.477C193.086 189.792 195.148 191.253 196.177 192.564C196.333 192.763 197.86 194.741 197.217 195.685C196.573 196.629 193.35 196.515 192.009 194.645Z" fill="white"/>
<path d="M220.136 230.059C217.444 227.638 214.239 225.857 210.76 224.852C194 219.59 183.699 218.603 183.699 218.603C183.699 218.603 169.266 217.22 163.908 212.355L163.794 212.247C163.3 211.796 161.268 209.871 157.66 205.061C155.561 202.258 154.959 200.069 152.452 199.853C152.013 199.817 150.191 199.66 149.331 200.893C148.471 202.126 149.27 203.9 149.331 204.02C149.932 204.249 154.274 205.945 155.579 210.268C155.837 211.122 156.493 213.323 155.579 215.476C154.713 217.509 153.041 218.11 152.452 220.684C152.235 221.634 152.091 222.272 152.452 222.771C153.342 223.974 155.922 222.44 158.7 223.811C159.692 224.298 160.961 225.279 160.787 225.892C160.498 226.908 156.186 227.341 152.452 225.892C149.776 224.858 149.018 223.486 147.244 223.811C146.475 223.97 145.769 224.35 145.214 224.906C144.659 225.462 144.28 226.169 144.123 226.938C143.976 227.763 144.099 228.614 144.474 229.364C144.849 230.113 145.455 230.722 146.203 231.1C147.641 231.701 148.561 230.462 150.371 231.1C151.574 231.533 152.632 232.603 152.452 233.187C152.271 233.77 150.786 233.313 149.331 234.227C148.658 234.688 148.114 235.312 147.749 236.041C147.384 236.77 147.21 237.58 147.244 238.394C147.352 240.674 149.258 242.796 150.371 242.562C151.303 242.363 150.972 240.656 152.452 239.435C153.709 238.412 154.496 239.17 156.619 238.394C159.422 237.366 159.71 235.442 161.827 235.267C162.464 235.219 163.252 235.327 164.954 236.314C170.529 239.543 171.256 243.729 175.37 244.643C176.422 244.877 176.248 244.57 178.491 244.643C181.718 244.753 184.897 245.461 187.866 246.729C190.233 242.798 193.927 239.842 198.282 238.394C197.608 237.997 196.58 237.414 195.275 236.777C192.708 235.518 190.031 234.5 187.277 233.734C184.559 232.934 180.596 231.364 175.358 227.979C173.83 226.716 172.291 225.357 172.471 225.08C172.573 224.93 173.193 225.14 173.403 225.254C178.04 227.768 183.176 229.073 188.149 230.745C190.831 231.647 193.483 232.699 196.111 233.752C198.029 234.516 199.821 235.592 201.77 236.272C203.7 235.788 205.664 235.452 207.645 235.267C213.186 234.713 218.768 234.713 224.309 235.267C223.186 233.333 221.779 231.577 220.136 230.059Z" fill="white"/>
<path d="M138.909 215.476C137.207 213.795 136.11 211.598 135.788 209.228C135.518 207.088 135.88 204.916 136.829 202.98H144.123C143.041 204.928 142.241 207.249 143.077 209.228C143.913 211.206 145.987 211.543 146.204 213.395C146.239 214.343 145.948 215.275 145.379 216.033C144.809 216.792 143.997 217.332 143.077 217.563C141.375 217.858 140.01 216.553 138.909 215.476Z" fill="white"/>
<path d="M161.802 244.643C161.261 243.831 160.203 242.165 160.762 240.475C161.039 239.639 161.796 238.557 162.843 238.394C164.406 238.154 165.405 240.138 168.051 242.562C169.855 244.185 171.707 245.905 174.305 246.729C177.534 247.752 179.008 246.573 183.674 247.77C184.74 248.043 185.785 248.39 186.801 248.81C183.578 253.946 183.265 257.692 183.674 260.266C183.915 261.757 184.552 263.808 183.674 264.434C182.959 264.945 181.359 264.434 180.553 263.393C179.543 262.118 180.246 260.675 179.513 260.266C178.779 259.857 177.54 261.318 175.345 262.353C173.717 263.109 171.931 263.466 170.137 263.393C165.014 263.062 161.947 255.431 161.802 255.058C162.547 253.997 163.663 253.254 164.93 252.978C166.054 252.797 166.565 253.248 169.091 254.018C170.766 254.628 172.524 254.979 174.305 255.058C176.055 255.058 178.394 254.691 178.466 254.018C178.538 253.344 176.819 252.911 174.305 251.937C164.557 248.155 162.656 245.96 161.802 244.643Z" fill="white"/>
<path d="M165.97 288.392C163.751 286.768 165.766 278.981 170.137 274.849C171.112 273.929 172.489 272.666 174.305 272.768C176.482 272.889 178.515 274.951 179.513 277.976L213.881 246.705C216.491 246.194 220.701 245.545 221.176 246.705C221.597 247.734 218.884 249.712 215.968 251.913C211.025 255.629 206.382 259.731 201.385 263.369C193.302 269.25 194.842 269.13 184.721 276.912C173.529 285.529 167.894 289.799 165.97 288.392Z" fill="white"/>
<path d="M163.884 329.014C161.479 328.563 160.276 328.9 159.723 327.974C158.959 326.699 160.078 324.149 161.804 322.766C163.686 321.257 165.225 321.991 165.971 320.68C166.867 319.116 164.985 317.492 165.971 315.472C166.572 314.269 167.366 314.57 168.052 313.391C169.297 311.262 167.18 309.422 168.052 307.143C168.834 305.098 171.66 303.571 174.306 304.016C175.201 304.16 176.048 304.521 176.773 305.066C177.498 305.61 178.079 306.323 178.468 307.143C178.87 308.075 178.888 308.989 178.468 311.304C177.331 317.558 175.864 318.232 176.387 320.68C176.94 323.283 178.87 323.831 178.468 325.887C178.299 326.753 177.662 327.511 176.387 329.014C174.775 330.921 173.981 331.871 173.26 332.142C170.782 333.098 169.321 330.025 163.884 329.014Z" fill="white"/>
<path d="M153.468 337.367C153.292 337.048 153.199 336.689 153.199 336.324C153.199 335.959 153.292 335.6 153.468 335.281C153.727 334.86 154.214 334.493 155.555 334.24C156.932 333.978 158.346 333.978 159.722 334.24C165.429 335.491 168.28 336.117 171.148 337.367C173.903 338.57 177.595 340.14 177.397 341.529C177.306 342.16 176.458 342.527 176.356 342.575C174.877 343.213 173.073 342.046 172.189 341.529C167.215 338.636 160.408 338.456 158.646 338.408C156.349 338.33 154.208 338.57 153.468 337.367Z" fill="white"/>
<path d="M149.307 340.471C149.307 340.573 152.747 339.268 156.595 340.471C157.798 340.843 159.109 341.758 161.803 343.598C164.497 345.438 166.253 346.863 169.092 347.765C170.198 348.114 171.317 348.367 172.219 347.765C172.934 347.308 173.506 346.358 173.259 345.678C173.013 344.999 172.057 344.855 171.179 344.638C169.374 344.199 167.739 343.165 165.971 342.557C157.63 339.695 157.9 339.551 156.595 339.43C152.446 339.027 149.289 340.374 149.307 340.471Z" fill="white"/>
<path d="M154.545 345.679C159.596 346.827 162.363 348.968 163.914 350.886C165.466 352.805 166.488 355.162 168.082 355.054C168.605 354.973 169.09 354.728 169.465 354.354C169.84 353.98 170.087 353.497 170.168 352.973C170.211 352.576 170.168 351.65 168.082 349.846C165.417 347.593 162.164 346.148 158.706 345.679C157.324 345.524 155.928 345.524 154.545 345.679Z" fill="white"/>
<path d="M171.179 358.181C170.71 357.026 171.311 355.324 172.219 355.054C172.941 354.843 173.717 355.571 174.306 356.094C176.531 358.085 179.267 359.432 181.595 361.302C182.551 362.072 184.343 363.509 186.802 365.469C186.658 366.359 186.376 367.412 185.762 367.556C184.938 367.749 184.319 366.119 182.635 364.429C180.386 362.174 177.493 361.073 175.346 360.262C172.839 359.311 171.63 359.281 171.179 358.181Z" fill="white"/>
<path d="M178.468 354.013C177.716 353.226 177.265 352.528 177.428 351.927C177.698 351.061 179.298 350.555 180.555 350.886C182.04 351.283 182.13 352.63 183.676 354.013C185.354 355.505 186.743 355.27 188.884 356.094C190.616 356.762 192.895 358.139 195.138 361.302C192.329 360.352 190.14 359.63 188.884 359.221C184.614 357.814 181.084 356.726 178.468 354.013Z" fill="white"/>
<path d="M182.635 347.765C183.236 348.643 184.301 348.132 186.802 348.806C188.355 349.106 189.796 349.825 190.97 350.886C191.571 351.488 191.836 352.005 192.01 351.927C192.359 351.782 192.166 349.431 190.97 347.765C188.865 344.824 183.795 344.157 182.635 345.678C182.433 345.989 182.326 346.352 182.326 346.722C182.326 347.092 182.433 347.454 182.635 347.765Z" fill="white"/>
<path d="M202.426 383.18C202.348 382.386 203.442 381.448 204.513 381.093C206.425 380.461 208.037 381.796 208.674 381.093C209.209 380.492 208.361 379.325 208.674 379.012C209.125 378.567 211.729 380.107 219.09 386.301C219.242 386.628 219.32 386.984 219.32 387.344C219.32 387.704 219.242 388.061 219.09 388.387C218.863 388.836 218.498 389.201 218.049 389.428C214.362 387.701 210.528 386.306 206.593 385.26C204.922 384.827 202.54 384.274 202.426 383.18Z" fill="white"/>
<path d="M256.109 381.646C259.321 380.443 260.547 378.928 261.053 377.689C261.834 375.801 260.938 374.682 262.045 372.746C262.958 371.307 264.365 370.25 266.002 369.775C266.994 369.45 269.4 368.885 269.959 369.775C270.518 370.665 268.786 372.782 267.98 373.732C266.116 375.921 262.634 379.138 256.109 381.646Z" fill="white"/>
<path d="M133.678 254.018C132.704 250.962 132.007 247.824 131.597 244.643C131.26 243.253 130.334 239.044 131.597 238.394C132.86 237.745 135.963 240.301 137.845 242.562C138.874 243.765 139.379 244.775 139.932 244.643C140.93 244.408 140.972 240.788 140.972 240.475C140.972 238.743 140.636 238.015 140.972 236.314C141.273 234.774 141.742 234.389 142.013 234.227C142.34 234.075 142.696 233.997 143.056 233.997C143.416 233.997 143.772 234.075 144.099 234.227C144.44 235.618 144.787 237.007 145.14 238.394C145.404 240.752 145.952 243.332 147.221 243.602C148.315 243.837 149.025 242.165 151.388 240.475C153.751 238.785 158.003 236.921 159.723 238.394C161.443 239.868 159.909 244.131 159.723 244.643C155.192 246.283 151.218 249.173 148.261 252.978C147.112 254.469 143.131 259.593 143.053 266.52C143.053 269.076 143.552 270.483 143.053 270.682C141.802 271.217 136.54 262.966 133.678 254.018Z" fill="black"/>
<path d="M184.197 263.91C183.13 259.401 183.485 254.673 185.213 250.374C188.455 242.688 195.371 239.453 198.756 237.871C205.035 234.942 210.681 234.864 216.461 234.75C220.652 234.679 224.841 235.027 228.963 235.79L227.923 237.871C223.405 236.869 218.69 237.233 214.38 238.917C210.098 240.493 206.443 243.416 203.964 247.246C202.012 250.377 200.932 253.973 200.837 257.662L185.201 267.037C184.889 265.997 184.546 264.957 184.197 263.91Z" fill="black"/>
<path d="M146.18 312.351C147.092 309.988 148.51 307.853 150.335 306.096C153.378 303.228 156.403 302.651 160.751 300.889C163.758 299.686 166.578 297.996 172.177 294.64C180.987 289.39 186.429 282.878 189.887 279.005C205.986 261.06 214.273 260.994 244.088 232.128C248.797 227.57 252.471 223.817 254.504 221.712C256.032 224.417 257.423 227.197 258.672 230.041C259.477 231.731 260.174 233.471 260.758 235.249C261.245 236.951 263.296 244.023 259.712 249.832C256.964 254.301 251.04 257.758 248.256 256.081C246.127 254.8 245.772 250.476 246.175 247.752C246.596 244.859 247.925 243.392 247.216 242.544C246.319 241.473 243.289 242.67 240.967 243.584C236.655 245.137 232.741 247.626 229.505 250.873C227.875 252.4 226.474 254.154 225.344 256.081C222.337 261.493 223.022 266.959 223.257 270.664C223.636 276.545 224.297 286.901 220.136 295.663C216.383 303.559 208.439 310.745 202.426 314.413C201.336 315.033 200.291 315.729 199.299 316.494C192.587 321.792 190.368 329.459 189.929 331.077C188.125 337.818 189.797 341.3 186.802 343.58C184.878 345.041 181.955 345.281 181.594 344.62C181.336 344.145 182.478 343.339 183.675 341.493C184.666 339.89 185.372 338.128 185.762 336.285C186.008 335.377 188.955 324.793 193.05 318.581C196.406 313.493 197.831 315.448 206.593 307.155C211.771 302.236 214.645 299.505 217.009 294.652C220.467 287.562 220.25 281.26 220.136 277.988C220.022 274.843 219.535 272.197 218.049 269.653C217.069 267.958 215.89 265.913 213.882 265.486C210.406 264.752 205.781 269.178 204.512 273.821C203.496 277.513 204.975 280.033 203.466 281.11C201.71 282.372 199.052 279.42 196.177 280.069C193.964 280.568 191.565 283.208 189.929 291.525C185.891 292.22 182.009 293.632 178.467 295.693C177.114 296.493 176.447 297.01 175.346 297.779C169.435 301.887 165.267 303.114 156.595 307.155C154.07 308.315 150.473 310.053 146.18 312.351Z" fill="black"/>
<path d="M259.859 217.604L77.5488 332.589L78.8 334.572L261.11 219.588L259.859 217.604Z" fill="black"/>
<path d="M255.302 219.434L77.5488 331.545L78.0204 332.292L255.773 220.182L255.302 219.434Z" fill="white"/>
<path d="M192.286 293.648C191.24 294.352 194.349 301.995 199.442 309.151C201.547 312.11 204.025 314.702 208.974 319.88C209.75 320.686 215.319 326.495 216.13 325.839C216.732 325.346 213.617 321.768 214.928 318.683C215.438 317.635 216.285 316.788 217.333 316.278C221.428 313.872 226.955 315.796 231.64 317.48C235.362 318.815 237.467 320.084 237.599 319.886C237.732 319.687 235.795 318.082 225.68 311.539C222.855 311.539 220.044 311.133 217.333 310.336C214.086 309.38 209.63 308.075 206.605 304.376C202.804 299.728 203.117 293.582 201.836 293.642C200.964 293.69 201.108 296.529 199.43 297.22C196.905 298.279 193.218 293.029 192.286 293.648Z" fill="black"/>
<path d="M145.138 311.304V302.975L125.347 315.472C119.022 317.783 112.225 318.5 105.556 317.559L95.1406 324.847C99.074 325.403 103.082 324.673 106.567 322.766C110.181 324.274 114.079 324.983 117.993 324.847C123.405 324.631 127.254 322.784 131.535 320.68C136.51 318.247 141.095 315.088 145.138 311.304Z" fill="#C4C3C6"/>
<path d="M67.0452 326.934C67.7323 326.78 68.4449 326.78 69.132 326.934C70.2445 327.246 71.1526 328.136 73.2995 332.142C73.8527 333.176 74.5804 334.589 75.3802 336.303L147.25 288.392V285.265L96.2116 317.558C72.3253 324.931 66.9971 326.759 67.0452 326.934Z" fill="#C4C3C6"/>
<path d="M73.2994 330.055C72.0065 327.649 71.1646 326.374 70.461 325.665C67.8811 326.525 67.0272 326.868 67.0452 326.934C67.7323 326.78 68.4449 326.78 69.1319 326.934C70.2445 327.246 71.1525 328.136 73.2994 332.142C73.8527 333.176 74.5803 334.589 75.3802 336.303L147.25 288.392V286.305L75.3802 334.222C74.5623 332.502 73.8527 331.095 73.2994 330.055Z" fill="white"/>
<path d="M242.008 225.892C239.29 225.928 237.167 221.466 236.8 220.684C236.336 219.687 235.987 218.64 235.76 217.563C234.347 211.862 230.504 207.508 227.425 204.02C225.784 202.192 224.045 200.454 222.217 198.812C218.723 195.637 216.691 194.374 217.009 193.604C217.328 192.835 220.293 193.105 222.217 193.604C223.45 193.929 226.481 194.891 230.552 198.812C232.915 201.091 232.537 201.392 235.76 205.06C237.967 207.705 240.406 210.146 243.049 212.355C247.685 216.114 250.457 216.781 250.343 218.603C250.295 219.313 249.856 219.511 246.176 222.771C243.097 225.513 242.808 225.886 242.008 225.892Z" fill="white"/>
<path d="M248.563 245.713C247.973 245.828 247.413 246.059 246.913 246.393C246.413 246.726 245.985 247.155 245.652 247.655C245.977 254.114 246.3 260.575 246.621 267.037C249.08 266.532 253.392 265.288 254.378 262.19C254.601 261.487 254.511 261.126 254.378 259.286" fill="#C4C3C6"/>
<path d="M262.37 249.85C263.813 249.405 266.351 248.311 266.934 245.599C267.067 244.997 267.013 244.661 266.934 243.043C266.61 236.494 267.157 235.514 266.363 233.68C266.279 233.487 265.088 230.817 263.507 231.13C262.599 231.31 262.009 232.393 261.799 232.832C261.991 238.505 262.182 244.178 262.37 249.85Z" fill="#C4C3C6"/>
<path d="M252.711 221.165C253.409 221.766 254.786 222.705 256.361 222.127C256.833 221.912 257.273 221.635 257.672 221.303C260.92 219.024 261.593 218.988 262.279 217.99C262.351 217.882 263.331 216.408 262.664 215.705C262.462 215.553 262.231 215.445 261.986 215.388C261.741 215.331 261.486 215.327 261.238 215.374L252.711 221.165Z" fill="white"/>
</svg>
