<svg fill="none" viewBox="0 0 20 20" xmlns="http://www.w3.org/2000/svg">
  <g fill="#fff">
    <path d="M19.6328 9.97263c0-.98438-.293-1.92969-.875-2.8086-.5234-.78906-1.2539-1.48828-2.1758-2.07422C14.8008 3.95309 12.4648 3.32809 10 3.32809c-.82422 0-1.63672.07032-2.42188.20704-.48828-.45704-1.05859-.86719-1.66406-1.19532C2.67969.773407 0 2.30466 0 2.30466S2.49219 4.35153 2.08594 6.1445C.972656 7.24997.367188 8.58591.367188 9.97263v.02343c0 1.38674.605468 2.72264 1.718752 3.82814C2.49219 15.6211 0 17.6679 0 17.6679s2.67969 1.5313 5.91406-.0351c.60547-.3242 1.17578-.7383 1.66406-1.1953.78907.1367 1.59766.207 2.42188.207 2.4648 0 4.8008-.625 6.582-1.7617.9219-.5899 1.6524-1.2852 2.1758-2.0742.582-.8789.875-1.8243.875-2.80863v-.01172-.01562zM10 15.2812c-1.01562 0-1.98828-.1172-2.89062-.332-.91407 1.0976-2.92579 2.6289-4.87891 2.1328.63672-.6836 1.57812-1.8359 1.375-3.7344-1.17188-.9101-1.875-2.0781-1.875-3.34763 0-2.91406 3.69922-5.28125 8.26562-5.28125 4.56641 0 8.26561 2.36328 8.26561 5.28125C18.2656 12.914 14.5664 15.2812 10 15.2812z"/>
    <path d="M10 9.07031c-.60547 0-1.09766.49219-1.09766 1.09769 0 .6054.49219 1.0976 1.09766 1.0976.6055 0 1.0977-.4922 1.0977-1.0976 0-.6055-.4922-1.09769-1.0977-1.09769zM13.8164 9.07031c-.6055 0-1.0976.49219-1.0976 1.09769 0 .6054.4921 1.0976 1.0976 1.0976s1.0977-.4922 1.0977-1.0976c0-.6055-.4922-1.09769-1.0977-1.09769zM6.18359 9.07031c-.60546 0-1.09765.49219-1.09765 1.09769 0 .6054.49219 1.0976 1.09765 1.0976.60547 0 1.09766-.4922 1.09766-1.0976 0-.6055-.49219-1.09769-1.09766-1.09769z"/>
  </g>
</svg>
