<svg xmlns="http://www.w3.org/2000/svg" viewBox="0 0 685 474">
  <g id="Current-page---Roles" fill="none" fill-rule="evenodd">
    <g id="Group-37" transform="translate(-5.45 -5.94)">
      <path id="Path" fill="#000" stroke="#000" stroke-width="5.494" d="M534.726 96.35c10.496-7.15 43.27-7.735 52.684-6.27 14.212 2.21 30.138 5.676 39.247 18.893 6.085 8.83 5.622 20.87 6.382 30.47.426 5.386.829 10.484 2.129 15.195.458-.159.921-.341 1.202-.451 15.58-6.146 35.025-1.049 47.29 12.393 4.308 4.722 3.299 8.685 2.664 10.17a6.863 6.863 0 0 1-2.423 2.974c-1.11.777-2.29 1.156-3.297 1.425-16.02 4.275-31.063 5.496-45.989 3.729-16.15-1.91-29.422-7.078-39.444-15.36-10.136-8.378-16.636-20.415-17.745-31.978-4.146 1.786-8.15 4.345-12.305 7-7.526 4.81-15.31 9.785-24.998 10.754-8.616.863-17.107-1.66-25.773-4.551-18.913-6.307-40.696-14.161-59.886-27.616-4.093-2.87-8.217-6.212-10.655-11.191-2.808-5.734-2.407-11.826-2.114-16.277.756-11.497 2.76-24.114 11.896-30.511.715-.501 1.473-.96 2.25-1.364 3.564-1.855 7.507-2.487 10.984-3.046 3.343-.536 6.502-1.043 8.57-2.491.256-.18.498-.373.717-.58 1.608-1.495 2.533-4.002 3.32-6.986 11.612 4.642 30.044 19.865 55.294 45.67z"/>
      <path id="Fill-4" fill="#000" d="M447.536 96.706c5.625-4.964 50.592 9.613 43.424 8.92-2.483-.24-5.416-.961-7.052.728-1.18 1.22-1.103 3.199-.884 4.965 1.69 13.62 9.884 28.699 23.5 32.231 15.102 3.916 28.444-8.343 34.014-21.879 2.505-6.087 4.187-12.767 8.537-17.637 6.803-7.616 18.347-9 28.959-9.949 13.016-1.162 27.893-1.734 38.184 7.334 11.123 9.798 11.658 26.217 19.086 38.864.637 1.083 1.391 2.2 2.524 2.759 2.276 1.12 4.641-.506 6.55-1.866 11.737-8.362 29.5-8.137 42.56.539 1.232.818 2.58 2.037 2.362 3.403-.161 1.01-1.127 1.612-2.012 2.1-12.945 7.139-26.72 12.182-41.888 14.098-12.824 1.62-26.57.996-38.77-4.84-12.199-5.833-22.456-17.7-23.4-30.64-15.058 6.516-22.355 24.287-37.878 29.83-7.39 2.64-15.762 2.144-23.876 1.508-21.255-1.665-42.831-4.139-63.18-11.966-3.857-1.482-7.826-3.277-10.512-6.461-2.96-3.51-3.878-8.113-4.67-12.472-1.913-10.524-3.2-22.844 4.422-29.569z" transform="rotate(15 565.486 127.766)"/>
      <path id="Fill-10" fill="#C4C3C6" d="M609.175 107.853c.594.378 1.255.601 1.531 1.315l-.082-.096c11.093 10.176 13.88 24.162 19.62 36.75 1.88 4.123 3.121 8.025 7.188 11.066 2.17 1.625 11.163 5.458 10.885 6.902-.058.297-9.28 2.724-12.702 3.267-22.662 3.6-32.499-4.761-32.499-4.761-12.38-7.656-13.514-18.276-13.02-20.41 2.329-10.07 22.369-23.732 22.653-25.17.212-1.07-9.311-4.898-18.474-3.074-3.16.39-3.97 3.1-4.567 5.185-3.01 10.494-5.379 11.698-13.002 18.213-4.853 4.146-29.78-9.681-29.057-18.49.627-7.645 1.61-7.178 8.048-9.201 4.137-1.3 15.025-5.217 26.096-5.796 11.962-.626 24.11 2.212 27.382 4.3z" transform="rotate(15 597.978 135.711)"/>
      <path id="Oval" fill="#000" d="M608.418 122.455c-7.265 8.345-11.622 9.694-14.969 6.79-3.347-2.906-.17-12.025 7.094-20.37 7.265-8.344 21.416 7.842 24.763 10.747 1.485 1.29 9.281 23.294 2.228 12.052-7.054-11.242-15.075-13.86-19.116-9.219z" transform="rotate(15 611.28 120.686)"/>
      <path id="Path" fill="#FFF" d="M603.185 113.39c-11.426 9.999-13.564 16.29-20.512 22.365-4.423 3.866-10.184-30.553-5.557-32.193 2.974-1.053 14.847-5.081 24.622-4.434 9.775.647 11.876 4.085 17.67 8.228-8.054.413-13.537 3.682-16.223 6.033z" transform="rotate(15 597.407 117.558)"/>
      <path id="Fill-14" fill="#C4C3C6" d="M672.537 175.24c-9.73 5.938-23.883.154-32.378-3.765-3.001-1.385-2.576-3.474.487-4.702 11.364-4.55 25.508-5.885 37.323 1.176 1.3.778-3.6 6.174-5.432 7.291z" transform="rotate(15 658.15 170.397)"/>
      <path id="Fill-16" fill="#D796A0" d="M488.124 94.276l.225 1.95c-.09-.298-.114-.538-.172-.807l-.053-1.143z" transform="rotate(15 488.236 95.25)"/>
      <path id="Fill-18" fill="#C4C3C6" d="M494.696 72.364c4.07 2.674 8.109 7.066 13.249 7.149.635.01 1.868-.037 2.145.515.545 1.088-3.015 3.754-5.999 5.287-3.548 1.82-6.456 3.275-9.434 2.051-2.663-1.095-4.726-3.92-5.845-8.317-.145-.569.055-2.322-.962-4.045-.6-1.014-1.047-1.128-1.228-1.149-.62-.07-1.156.61-1.617 1.45-2.114 3.85-1.97 9.298-1.97 9.298.1 3.868.7 6.846.902 7.798.74 3.52 1.717 6.373 3.583 11.052 3.605 9.05 5.335 13.646 7.458 15.721 2.93 2.862 6.773 5.005 11.74 6.307 12.53 3.288 25.214 5.2 37.781 8.088 1.896.437 4.785-.414 5.065 2.495.048.498-2.46 3.15-7.294 3.002-19.551-.604-70.817-8.443-83.105-13.862-5.096-2.249-9.076-5.193-10.614-10.684-1.539-5.692-1.465-11.425-2.111-17.14-1.047-9.233 1.997-15.786 10.403-19.603 2.03-.923 2.883-1.464 5.092-2.507 8.514-4.01 8.548-5.85 12.306-7.068 6.705-2.174 15.386.832 20.455 4.162z" transform="rotate(15 497.903 103.268)"/>
      <path id="Path" fill="#FFF" d="M483.915 65.817c-6.986 2.71-1.112 27.583.749 32.265 2.518 6.341-17.57 21.007-22.705 18.742-5.09-2.247-9.064-5.19-10.598-10.686-1.532-5.695-1.454-11.434-2.096-17.154-1.039-9.24 2.007-15.8 10.41-19.626 2.028-.926 2.88-1.469 5.089-2.514 8.51-4.02 8.544-5.86 12.3-7.083l.105-.034c3.975 1.356 5.119 1.185 8.485 4.09l-1.74 2z" transform="rotate(15 467.362 88.393)"/>
      <g id="Group-35-Copy" transform="rotate(-46 495.37 -161.848)">
        <g id="Group-3" fill="#000" stroke="#000" stroke-width="5.494" transform="rotate(-49 131.157 59.6)">
          <path id="Shape" d="M62.63 56.14c14.125 50.253 56.37 27.253 62.632 33.277 9.454 9.093 19.53 20.021 19.422 34.673-.072 9.787-6.712 18.546-11.163 26.122-2.497 4.249-4.861 8.272-6.353 12.475.425.121.866.227 1.133.292 14.843 3.561 26.696 17.552 28.825 34.023.748 5.786-2.077 8.22-3.327 8.998a6.248 6.248 0 0 1-3.364.955c-1.234 0-2.313-.333-3.206-.66-14.194-5.19-26.063-12.153-36.281-21.289-11.06-9.882-18.265-20.694-21.417-32.133-3.188-11.57-1.748-23.973 3.468-33.198-4.029-.836-8.356-1.019-12.845-1.21-3.25-.137-.207 17.908-3.957 19.923-5.635 3.028-18.141-9.79-22.787-12.4-6.884-3.865-16.638-16.681-21.596-23.38C20.992 87.992 10.032 64.526 2.74 44.42 1.184 40.132-.148 35.474.635 30.475c.9-5.756 4.385-10.102 6.93-13.276C14.139 9 28.229.72 38.393.72c.797 0 1.602.053 2.393.16 3.63.478 6.904 2.069 9.793 3.472 2.776 1.349 5.398 2.624 7.7 2.624.285 0 .566-.019.838-.059 1.982-.276 3.982-1.666 6.13-3.484 6.243 9.55 5.37 27.119-2.617 52.707z"/>
        </g>
        <path id="Fill-4" fill="#000" d="M31.134 93.16c5.127-4.53 46.107 8.774 39.574 8.142-2.263-.22-4.935-.878-6.426.664-1.076 1.114-1.005 2.92-.806 4.532 1.54 12.432 9.008 26.194 21.416 29.418 13.764 3.574 25.923-7.615 30.999-19.97 2.283-5.555 3.816-11.652 7.78-16.098 6.2-6.95 16.72-8.214 26.392-9.08 11.862-1.061 25.42-1.582 34.8 6.694 10.136 8.943 10.623 23.93 17.393 35.472.58.989 1.268 2.008 2.3 2.518 2.074 1.022 4.23-.462 5.97-1.703 10.696-7.632 26.885-7.426 38.787.492 1.123.747 2.35 1.86 2.152 3.106-.147.923-1.027 1.472-1.834 1.916-11.797 6.516-24.351 11.12-38.174 12.869-11.687 1.479-24.214.909-35.333-4.418-11.117-5.324-20.465-16.155-21.326-27.966-13.723 5.947-20.372 22.167-34.52 27.227-6.734 2.41-14.364 1.957-21.759 1.376-19.37-1.52-39.034-3.778-57.58-10.921-3.514-1.354-7.131-2.992-9.58-5.898-2.697-3.204-3.533-7.405-4.255-11.384-1.743-9.605-2.916-20.85 4.03-26.987z"/>
        <path id="Fill-10" fill="#C4C3C6" d="M179.309 95.411c.54.345 1.143.55 1.395 1.2l-.074-.087c10.109 9.287 12.65 22.054 17.88 33.543 1.712 3.763 2.844 7.325 6.55 10.1 1.979 1.483 10.174 4.982 9.92 6.3-.052.271-8.457 2.486-11.576 2.982-20.652 3.286-29.617-4.346-29.617-4.346-11.283-6.988-12.316-16.681-11.867-18.628 2.123-9.192 20.387-21.662 20.646-22.973.193-.978-8.486-4.472-16.836-2.807-2.88.356-3.618 2.83-4.163 4.732-2.743 9.579-6.881 11.821-13.828 17.767-4.423 3.784-25.161-9.98-24.502-18.019.572-6.978 1.467-6.552 7.334-8.398 3.771-1.187 13.694-4.762 23.783-5.29 10.902-.571 21.972 2.019 24.955 3.924z"/>
        <path id="Oval" fill="#000" d="M174.661 106.064c-6.62 7.617-10.591 8.848-13.641 6.197-3.05-2.652-.156-10.975 6.465-18.592 6.62-7.616 19.517 7.158 22.567 9.81 1.353 1.176 8.459 21.26 2.03 11-6.428-10.262-13.738-12.651-17.42-8.415z"/>
        <path id="Path" fill="#FFF" d="M168.422 102.285c-11.425 9.789-13.562 15.948-20.51 21.894-4.423 3.784-10.183-29.908-5.557-31.514 2.974-1.031 14.847-4.974 24.62-4.341 9.774.633 11.875 3.999 17.668 8.054-8.052.405-13.535 3.605-16.221 5.907z"/>
        <path id="Fill-14" fill="#C4C3C6" d="M243.366 141.624c-8.868 5.42-21.765.14-29.507-3.437-2.736-1.263-2.348-3.17.443-4.291 10.357-4.152 23.248-5.371 34.015 1.073 1.185.71-3.281 5.635-4.951 6.655z"/>
        <path id="Fill-16" fill="#D796A0" d="M62.949 111.067l.014.05-.008-.021-.006-.03z"/>
        <path id="Fill-18" fill="#C4C3C6" d="M75.117 82.467c3.71 2.44 7.39 6.45 12.075 6.525.578.01-2.982 5.17-2.729 5.672.496.994-2.748 3.427-5.467 4.826-3.233 1.662-1.2-2.213-3.914-3.33-2.427-.999-4.307-3.577-5.326-7.591-.133-.519.05-2.12-.878-3.692-.546-.925-.954-1.03-1.12-1.048-.563-.065-1.053.557-1.472 1.323-1.927 3.513-1.796 8.486-1.796 8.486.092 3.531.638 6.249.822 7.118.675 3.213 1.55 13.416 8.76 15.87 7.21 2.455 16.227 4.644 17.317 6.174 10.7 15.017 22.102 27.786 22.357 30.441.044.455-2.242 2.876-6.647 2.74-17.818-.55-60.525-12.164-71.723-17.11-4.644-2.053-8.271-4.74-9.674-9.752-1.401-5.195-1.334-10.428-1.923-15.645-.954-8.427 9.18-22.582 16.842-26.066 1.85-.842 2.627-1.337 4.64-2.288 7.76-3.66 7.79-5.339 11.215-6.451 6.11-1.984 14.022.759 18.641 3.798z"/>
        <path id="Path" fill="#FFF" d="M91.58 130.314c-17.547-5.588-27.837-8.603-30.87-9.045-1.686-.246-7.915 2.345-18.687 7.774 7.942-8.294 13.93-15.97 17.962-23.029 3.509-6.141 4.319-4.7 5.958-.92 1.188 2.737 2.058 6.644 8.312 10.046 14.891 8.102 28.856 6.87 28.107 10.392-.007.033-.81 6.318-.818 6.35-.007.033 3.56 14.22-.272 15.555l-9.692-17.123z"/>
      </g>
      <g id="Group-99" transform="scale(-1 1) rotate(-3 8.587 11104.274)">
        <g id="Group-93">
          <g id="Group-94" transform="translate(.43 .702)">
            <g id="Group-22" transform="translate(3.257 269.48)">
              <path id="Oval" fill="#000" d="M42.238 72.519C19.605 74.144.703 60.97.019 43.097-.665 25.223 17.13 9.415 39.762 7.79c22.633-1.625 41.535 11.547 42.219 29.422.684 17.874-17.11 33.681-39.743 35.307z"/>
              <path id="Oval-Copy" fill="#C4C3C6" d="M42.484 60.9C21.786 62.255 4.436 49.745 3.733 32.956 3.029 16.168 19.239 1.457 39.937.101 60.636-1.256 77.985 11.254 78.69 28.043c.703 16.789-15.506 31.5-36.205 32.856z"/>
            </g>
            <path id="Oval" fill="#000" d="M203.559 261.235c-32.44 35.273-47.588 83.928-86.464 73.601-38.877-10.326-62.498-31.644-101.073-5.78-15.306-10.212-17.605-19.132-7.769-40.923 12.512-27.716-3.565-70.07-7.934-120.51-2.764-31.92 24.764-53.38 23.81-57.87-7.06-33.243 21.928-64.809 66.062-93.448 22.7-14.73 54.457-8.069 76.534-12.765 65.003-13.827 131.386 22.224 112.25 68.933-34.866 85.102 2.159 28.733-26.945 98.553-10.415 24.987-16.03 54.936-48.471 90.209z"/>
            <path id="Path" fill="#C4C3C6" d="M193.429 15.692c20.26-2.27 89.188 17.469 63.676 67.679-25.511 50.21 1.59 21.585-24.36 83.822-9.287 22.273-13.587 18.855-47.24 64.725-33.653 45.871-20.171 89.207-66.673 83.497-19.851-2.437-42.293-9.489-63.28-9.784-20.985-.296-39.111 11.66-41.84 8.304-9.307-11.442 19.005-44.52 14.054-58.72-11.121-31.897-13.212-66.988-15.062-88.36-2.464-28.452 22.08-47.582 21.23-51.585-4.81-22.642 12.91-49.813 39.091-72.762 8.592-7.53 30.396-11.306 48.25-17.805 59.719-2.58 51.894-6.741 72.154-9.011z"/>
            <g id="Group-28" transform="translate(28.238 69.947)">
              <g id="Group-29" transform="scale(1 -1) rotate(-11 -1014.65 -98.581)">
                <g id="Group-32" transform="rotate(-2 272.716 -23.75)">
                  <path id="Path-Copy-69" fill="#FFF" d="M20.314 76.224c1.339.403-1.405 14.973 1.637 13.424 5.04-2.569 8.95-.744 11.697-.405 1.486.183 5.184-9.28 6.75-9.178 14.66.967 28.823-2.89 37.574-17.101 6.03-9.792 26.626-51.022 33.059-53.198C99.41 6.586 96.158 1.84 55.8 8.118c-21.07 3.278-6.2 11.417-11.886 17.167C31.722 37.614 18.536 49.02 12.694 52.719c-2.287 1.447-.62-50.008-6.843-31.945-6.223 18.063-12.967 47.188 14.463 55.45z"/>
                  <path id="Path-Copy-10" fill="#000" d="M25.832 69.395c25.892 4.71 37.332 5.03 51.003-10.43 8.02-9.067 27.12-46.912 33.683-47.921-30.99-5.517-49.656 12.97-72.007 10.996C16.159 20.067 13.389 8.388 4.279.912c5.394 10.04-3.161 34.18-.642 46.561 2.519 12.38 9.917 19.688 22.195 21.922z"/>
                </g>
                <path id="Path-Copy-70" fill="#000" d="M127.271 63.118c-10.162-5.334-23.108.919-35.234 11.056 3.251-5.694 23.389-32.993 39.867-54.725-.407 5.011-1.412 12.41.86 19.989 5.472 18.257 4.67 29.014-5.493 23.68z"/>
                <path id="Path-Copy-94" fill="#000" d="M151.195 118.193l-18.54-21.547c-8.118-17.697-10.71-36.472-7.776-56.325C129.303 10.38 140.75-4.8 142.633 3.8c3.022 13.81 5.876 51.94 8.562 114.393z"/>
              </g>
              <path id="Path-Copy-90" fill="#000" d="M224.21 44.609c-3.003 3.591-28.057 5.98-36.37 3.233 11.232-5.15 18.706-6.957 29.49-17.915C228.116 18.97 229.637 14.385 234.925.004c4.297 7.582 3.68 27.39-10.714 44.605z"/>
            </g>
            <path id="Path-Copy-79" fill="#000" d="M75.153 191.572c-10.058.757-5.836-14.972-2.742-21.315 5.713 4.886 12.8 20.558 2.742 21.315z"/>
            <path id="Path-Copy-92" fill="#000" d="M129.712 204.582c-6.767-7.479-10.844-20.91-19.321-29.205 6.986-5.18 12.014 3.172 19.321 29.205z"/>
            <path id="Path" fill="#000" d="M22.213 209.901c8.978.628 10.423-20.03 28.362-22.82-5.84 5.184-14.536 15.221-19.646 27.204-5.513 12.924-7.174 27.956-5.769 37.18.025-2.02-9.916-11.724-10.902-13.814-1.68-3.563-4.49-18.264-2.874-16.241 1.064 1.332 6.577 4.08 7.718 4.314.113-4.013-5.867-16.45 3.111-15.823z"/>
            <path id="Path-Copy-81" fill="#000" d="M78.979 165.935c4.143-12.538 21.362 2.455 25.12 10.15-9.383 2.104-29.263 2.388-25.12-10.15z"/>
            <g id="Group-24" fill="#000" transform="rotate(6 -652.122 474.808)">
              <g id="Group-25" transform="rotate(5 -6.824 106.028)">
                <path id="Path-Copy-86" d="M18.835 89.743c1.258-9.868 15.014-1.156 19.102 5.026-5.908 2.373-20.36 4.842-19.102-5.026z"/>
                <path id="Path" d="M17.758 55.727c10.841-13.905-3.676-5.305-16.134-11.577 18.193-3.296 24.468-6.139 30.4-10.626C37.959 29.037 48.134 9.915 50.562.946c1.47 18.05-3.163 26.434-13.119 43.679C29.04 59.18 17.115 63.959 12.058 73.038 4.935 96.106 19.922 96.75 28.995 96.483c-13.41 1.981-21.347-.892-23.877-3.38-1.914-1.882-6.7-5.89-3.565-14.235 2.907-7.733 13.577-19.77 16.205-23.14z"/>
              </g>
            </g>
            <path id="Path-Copy-74" fill="#FFF" d="M171.528 154.74c-27.155-.797-48.407-37.264-18.626-33.414 31.702 4.099 40.323-11.983 53.063-1.96 6.9 5.427 16.638 18.34 4.877 26.931-11.762 8.592-26.745 8.812-39.314 8.443z"/>
            <g id="Group-33" fill="#FFF" transform="rotate(5 1.37 804.732)">
              <path id="Shape" d="M89.053 17.244c-16.028 3.72-41.248 18.193-58.773 25.635-56.573 24.024-18.83-12.586 4.812-23.323 18.453-8.38 46.48-13.045 69.889-14.221.647 3.562-6.743 4.47-15.928 11.909z"/>
              <path id="Path-Copy-88" d="M89.57 19.092c2.377-19.668 60.25-27.744 85.228-3.641 7.968 7.688 12.221 15.994 19.792 33.702-8.568-3.403 5.568 1.993-29.156-11.373C130.71 24.415 91.77 34.34 89.57 19.092z"/>
            </g>
            <path id="Path-Copy-84" fill="#FFF" d="M40.326 118.618c6.894-3.02 16.929-1.81 24.311 2.987 4.33 2.814 7.972 9-22.3 17.87-1.9.556-8.861 3.881-12.85 3.328-8.495-1.063-.696-19.132 10.84-24.185z"/>
            <path id="Path" fill="#FFF" d="M91.942 128.925c1.422 2.802 3.06 5.652-4.854 9.681-7.915 4.029-10.88 4.66-17.825 1.863-2-1.518.287-6.611 7.279-10.954 13.944-8.66 26.567-44.81 30.64-44.04 3.997.755 6.959 16.083-11.256 35.196-.302.317-5.406 5.453-3.984 8.254z"/>
            <path id="Path-Copy-76" fill="#FFF" d="M64.232 270.053c13.552 1.282 29.208 8.618 44.04 22.704 14.833 14.085-18.213 9.775-44.556 4.778-26.342-4.997-27.53 8.734-33.376 4.565-12.554-8.708 11.218-34.191 33.892-32.047z"/>
            <path id="Path-Copy-83" fill="#000" d="M62.272 260.948c9.115-1.882 20.576 5.335 27.687 17.763-17.948-10.757-45.868-6.415-54.672 2.444 10.442-13.2 21.537-19.082 26.985-20.207z"/>
            <g id="Group-30" transform="scale(1 -1) rotate(-17 -323.419 -469.21)">
              <path id="Path" fill="#FFF" d="M67.95 37.251c-14.125-.381-24.966-.108-32.524.82-12.87 1.58-18.347 7.554-28.22 10.805C.625 51.043-1.29 47.228 1.46 37.43 12.436 12.89 23.79.618 35.52.618c10.843 0 27.556 12.183 35.012 34.115.369 1.086-.491 1.925-2.58 2.518z"/>
              <path id="Path" fill="#000" d="M1.18 37.53c1.062-16.179 15.674-29 33.543-29 17.49 0 31.86 12.283 33.457 27.976-9.531-3.511-20.504-5.51-32.18-5.51-12.77 0-24.698 2.39-34.82 6.535z"/>
            </g>
            <g id="Group-31" transform="rotate(173 52.28 60.935)">
              <path id="Path" fill="#FFF" d="M35.05 23.75c-10.71-.744-20.896 1.027-29.73 4.72C8.132 11.732 20.997-.519 35.49.487c14.148.983 26.214 15.433 28.586 20.974 2.372 5.54-2.19 17.714-12.796 15.91-7.317-.135-15.577.578-24.192 2.24C17.556 41.453 5 55.263 1.317 46.6c-3.684-8.663 9.49-14.03 22.78-16.595 6.985-1.348 17.718-5.785 10.952-6.255z"/>
              <path id="Path-Copy-73" fill="#000" d="M37.746 6.884c10.906.763 24.112 15.338 21.286 22.935-2.042 5.492-17.787 3.35-23.122 2.977-12.714-.89-24.795.833-35.301 4.571C7.519 15.796 19.898 5.635 37.746 6.884z"/>
            </g>
            <path id="Path-2" fill="#000" d="M149.14 111.435c8.38 2.758 18.662 4.691 30.844 5.8-5.988 1.321-10.126 2.009-12.414 2.063-25.875.613-38.233 4.081-40.043 14.562-1.131 9.341 22.175 25.525 13.556 33.161-8.62 7.636-29.564 8.544-31.31 8.758 6.15-6.494 9.161-13.964 6.06-21.36-3.101-7.396-5.386-11.874-15.553-13.495.556.693 10.136-4.212 15.46-13.076 6.012-10.01 5.124-21.254 11.83-24.55 6.706-3.296 9 4 21.57 8.137z"/>
            <path id="Path" fill="#FFF" d="M112.658 158.595c-2.605-14.772-14.118-16.107-17.713-18.847 9.663 1.989 18.361 2.807 23.217 9.753 5.153 7.371 7.412 19.002-8.808 24.908 1.448-3.302 4.867-6.95 3.304-15.814z"/>
            <path id="Path-Copy-70" fill="#000" d="M149.471 72.346c-12.026-11.585-9.036-19.614-4.146-21.327 4.889-1.713 4.91 11.192 12.897 18.301 8.11 7.153 12.947 8.268 20.119 11.444-5.405 2.59-16.213 3.346-28.87-8.418z"/>
            <path id="Path-Copy-93" fill="#000" d="M88.954 74.928c-13.799 7.336-23.323 2.216-28.236-2.61 8.02-.74 12.887-.036 22.485-4.678 9.577-4.715 13.898-18.66 18.995-16.98 5.097 1.679.454 16.602-13.244 24.268z"/>
          </g>
        </g>
      </g>
      <path id="Fill-1" fill="#000" stroke="#000" stroke-width="5.494" d="M16.093 431.919c15.094.768 28.74-1.004 41.715-5.42 14.042-4.776 24.9-11.913 32.27-21.211 7.455-9.405 10.976-21.385 9.78-31.915 4.034.805 8.089 2.328 12.295 3.907 7.621 2.861 15.503 5.82 24.325 4.843 7.846-.869 14.942-4.736 22.122-8.964 15.674-9.226 33.614-20.38 48.183-36.038 3.107-3.34 6.153-7.107 7.386-12.014 1.42-5.65-.09-11.012-1.192-14.928-2.847-10.117-7.02-20.997-16.376-24.968a18.128 18.128 0 0 0-2.264-.79c-3.529-.977-7.164-.792-10.371-.629-3.082.157-5.995.306-8.113-.593a5.82 5.82 0 0 1-.749-.381c-2.152-1.29-3.648-4.203-5.246-7.595l-1.127-2.399c-9.746-20.735 4.95-1.498-12.792-15.645-1.88-1.5 21.822 9.105 21.57 8.667.137-.155-24.035-11.858-23.69-12.176 2.78-2.554 6.146-4.692 9.711-6.954 6.19-3.928-16.312-47.502-7.625-56.37l.039.41c.043.473.087.944.141 1.41 1.292 11.319 7.835 19.578 14.164 27.566 2.447 3.089 4.759 6.006 6.763 9.072 1.5 2.296 2.844 4.72 4.27 7.287 2.378 4.28 4.837 8.708 8.127 12.634 5.102 6.09 11.678 10.633 21.322 14.727 4.137 1.755 8.457 3.272 12.634 4.74 4.086 1.436 8.312 2.92 12.266 4.598 3.29 1.396 6.095 2.8 8.579 4.29 1.302.782 2.576 1.623 3.924 2.514 2.891 1.91 5.882 3.883 9.293 5.331l.327.137c14.027 5.772 47.84 27.594 62.193 22.166 16.445-6.22 12.018 1.99 27.123-7.632 10.442-6.652 12.632-7.301 16.298-21.844 1.082-4.285-.115-6.814-1.382-8.21 1.025-1.49-34.496-30.622-47.148-15.443l-21.713 5.444c-1.697 2.035-16.128-7.848-17.993-6.86-4.945 2.617-16.194.388-24.268-3.04a38.668 38.668 0 0 1-2.538-1.18 4.089 4.089 0 0 1-.753-.534c-.39-.376-.587-.84-.662-1.016-.194-.45-21.097-45.373-42.721-71.813-8.265-10.104-17.933-22.689-43.074-23.457-25.141-.768-42.008 4.086-52.668 20.532-4.377 6.756-3.61 17.844-3.397 24.728.866 28.131 5.454 68.92 22.394 103.481 2.875 5.862 6.633 12.444 12.726 16.803a22.95 22.95 0 0 0 4.399 2.468c6.316 2.681 13.053 2.308 18.484-1.024.348-.213.7-.442 1.056-.674.228-.148.506-.33.775-.497.03.079.059.165.09.257 3.295 9.602 3.246 23.015-4.65 29.773-7.357 6.296-17.082 3.183-20.921 1.554a35.094 35.094 0 0 1-9.49-6.024c-1.03-.915-2.033-1.876-3.038-2.836-3.527-3.367-.833-9.565-5.678-11.621l-.264-.111c-10.712-4.386-30.834 1.365-38.952 4.463-12.255 4.676-25.802 10.799-31.426 24.328-3.758 9.037-1.068 19.694.069 28.407.638 4.887 1.243 9.514.974 13.965-.44-.054-.886-.129-1.158-.173-15.054-2.522-31.431 5.726-39.828 20.055-2.949 5.034-1.299 8.38-.453 9.583a6.248 6.248 0 0 0 2.724 2.193c1.136.483 2.26.597 3.209.646z"/>
      <path id="Fill-6" fill="#C4C3C6" d="M137.458 176.896c13.411-8.241 17.635-11.636 21.3-13.423 9.692-4.722 38.987 4.84 41.936 7.663 2.557 2.452 2.256 4.416-.723 6.01-.966.518-3.142 3.771-6.527 9.759-14.054 7.459-24.155 11.103-30.305 10.932-15.028-.418-29.152-18.808-25.681-20.94z" transform="scale(-1 1) rotate(-18 0 1251.31)"/>
      <path id="Path-Copy-2" fill="#FFF" d="M157.952 184.452a42.402 42.402 0 0 0-9.457-10.138c-13.38-10.317-29.13-10.08-28.55-11.044 9.16-8.725 20.566-11.382 34.214-7.97 20.472 5.115 37.155 17.211 36.462 25.633-.092 1.113-6.148-6.922-32.669 3.519z" transform="scale(-1 1) rotate(-18 0 1149.587)"/>
      <path id="Fill-8" fill="#C4C3C6" d="M310.999 251.9c-.584-.866 18.108 8.101 25.745 15.736 3.503 3.502 6.05 7.822 7.672 12.45 2.456 7.004 5.183 13.987 5.806 21.665.612 7.53-5.146 12.56-11.734 9.952-4.815-1.906-8.43-5.957-12.842-8.583l-3.942-4.33c-17.528-21.335-17.816-24.839-21.34-33.33-1.585-3.82-.59-8.027-.405-8.691.246-.886.085-1.996.98-2.464 1.053-.548 1.619.512 2.045 1.209 2.612 4.251 10.887 17.595 11.756 16.644 2.28 2.7 12.257 15.513 14.35 18.376.938.915-9.83-19.215-10.874-20.28-1.244-1.873-5.019-10.335-6.674-15.029-.97-2.751-.072-2.626-.543-3.326z" transform="scale(-1 1) rotate(-59 0 856.333)"/>
      <path id="Path" fill="#FFF" d="M334.87 266.849c3.464 3.545 5.982 7.917 7.587 12.6 1.95 5.691 4.071 11.367 5.151 17.405-3.904-1.401-12.076-17.442-20.75-26.392-5.667-5.849-15.764-12.623-16.326-13.482-.743-1.93-2.402-7.113-.411-6.915 5.092.504 19.32 11.229 24.748 16.784z" transform="scale(-1 1) rotate(-59 0 853.888)"/>
      <path id="Path-Copy-66" fill="#FFF" d="M328.728 296.806c-5.373-3.263-10.91-5.8-15.95-10.505-2.313-2.158-4.223-5.02-5.683-8.213-1.773-3.877-3.637-7.725-4.988-11.952 2.274.563 8.71 11.188 14.51 16.645 3.79 3.566 10.074 7.293 10.486 7.848 2.296 4.646 1.426 3.68 1.897 3.916 1.212.608 1.683 1.855 1.701 3.4-.576-.644-1.328-.748-1.973-1.14z" transform="scale(-1 1) rotate(-59 0 841.283)"/>
      <path id="Path" fill="#C4C3C6" d="M78.647 400.113c-1.715 3.76-3.661 6.952-3.324 11.57.179 2.466 2.915 10.946 1.754 11.62-.24.138-7.425-4.752-9.846-6.78-16.029-13.432-16.15-25.204-16.15-25.204-2.129-13.1 1.326-20.31 3.14-27.144 3.23.26 12.519 1.2 18.917 1.484 2.014.468 22.202 4.02 13.059 19.376-.15.25-5.345 10.245-7.55 15.078z" transform="scale(-1 1) rotate(-23 0 735.27)"/>
      <path id="Path" fill="#C4C3C6" d="M95.35 363.326c-6.22 1.834-10.51.536-17.88-.558-5.758-.856-8.976-25.536-2.475-30.313 5.64-4.147 5.907-3.191 11.15.025 3.369 2.068 12.577 7.211 19.595 14.479 3.563 3.69 6.625 7.867 8.922 11.621a6.61 6.61 0 0 0-1.955-.28c-8.092 0-14.956 2.107-17.358 5.026z" transform="scale(-1 1) rotate(-23 0 804.227)"/>
      <path id="Path" fill="#FFF" d="M80.132 359.908c-.385-.053-13.653-.739-13.999-.886-6.443-2.735-3.549-30.254.954-27.84 2.965 1.59 17.013 10.428 23.46 18.33 6.446 7.902 5.184 11.75 5.987 18.882-3.218-3.125-6.566-5.174-9.568-6.488-2.66-1.164-5.048-1.751-6.834-1.998z" transform="scale(-1 1) rotate(-23 0 740.265)"/>
      <path id="Path" fill="#FFF" d="M58.996 385.616c16.023 7.984 23.039 15.185 21.048 21.603-2.986 9.627 2.176 16.194 1.691 16.565-.081.063-5.929-3.225-10.057-6.463-16.759-13.148-12.48-32.233-12.682-31.705z" transform="scale(-1 1) rotate(-23 0 749.78)"/>
      <path id="Fill-12" fill="#C4C3C6" d="M111.334 197.943l19.673-7.676c7.723-3.182 14.315-4.621 19.775-4.317-1.358 8.84-14.742 39.58-29.963 62.978-10.85 16.682-25.015 30.178-25.616 26.867-.948-5.224 8.295-29.312 5.191-58.848-.228-2.17 3.419-8.505 10.94-19.004z" transform="scale(-1 1) rotate(-23 0 835.463)"/>
      <path id="Fill-14" fill="#C4C3C6" d="M36.982 428.859c-9.909-3.137-14.385-16.335-16.765-24.524-.84-2.894.853-3.853 3.53-2.481 9.928 5.092 19.305 14.02 21.505 26.375.242 1.36-6.405 1.22-8.27.63z" transform="scale(-1 1) rotate(-23 0 575.64)"/>
      <path id="Fill-16" fill="#D796A0" d="M172.092 319.526l-.018.024-.01.02.028-.044z" transform="scale(-1 1) rotate(-23 0 1165.337)"/>
      <path id="Fill-18" fill="#C4C3C6" d="M197.676 310.439c-.737-5.48-3.857-13.251-9.363-16.561-3.086-1.855-4.373-.778-12.226-4.232-2.04-.895-2.922-1.157-4.772-2-7.655-3.497-13.989-1.667-19.723 4.581-3.55 3.867-7.544 7.25-10.545 11.716-2.863 4.347-2.511 8.847-1.013 13.699 3.613 11.696 28.866 51.651 40.14 65.46 2.787 3.414 6.114 3.55 6.429 3.219 1.836-1.935-.478-3.412-1.31-4.978-5.524-10.373-11.791-20.24-17.018-30.828-2.073-4.196-2.895-8.124-2.675-11.852.16-2.703 2.292-6.645 6.37-14.544 2.108-4.085 3.489-6.465 5.471-9.082a39.919 39.919 0 0 1 4.832-5.29s3.668-3.362 7.583-4.212c.854-.186 1.644-.225 1.965.243.094.138.283.514-.057 1.533-.578 1.731-1.906 2.644-2.21 3.084-2.36 3.403-3.073 6.513-2.235 9 .937 2.782 3.678 3.91 7.053 5.261 2.84 1.135 6.805 1.986 7.23.96.213-.52-.556-1.34-.929-1.784-3.016-3.585-2.405-8.992-2.997-13.393z" transform="scale(-1 1) rotate(-23 0 1173.054)"/>
      <path id="Path" fill="#FFF" d="M210.893 306.83c-6.04-3.189-19.637 15.752-21.745 19.837-2.856 5.532-24.953.477-26.465-4.417-1.498-4.852-1.85-9.352 1.013-13.7 3.001-4.465 6.995-7.848 10.545-11.715 5.734-6.248 12.068-8.078 19.723-4.582 1.85.844 2.733 1.106 4.772 2.001 7.853 3.454 9.14 2.377 12.226 4.232l.086.052c1.444 3.55 2.245 4.235 2.26 8.293h-2.415z" transform="scale(-1 1) rotate(-23 0 1231.02)"/>
      <path id="Fill-22" fill="#C4C3C6" d="M263.596 253.984c1.363 1.782 6.502 13.804 4.917 16.72-2.438 4.484-12.73-.306-14.373-1.42-1.829 1.142 1.127 3.562-.9 4.457-1.849.819-3.062-.806-3.984-2.154-1.901-2.786-3.761-5.645-5.297-8.682-1.426-2.822-2.41-5.912-4.042-10.024 4.532 1.533 20.688-2.807 23.68 1.103z" transform="scale(-1 1) rotate(-23 0 1513.377)"/>
      <path id="Path" fill="#FFF" d="M248.214 257.322a181.16 181.16 0 0 0-1.15-2.987c4.21 1.425 18.454-2.22 22.852.39.785 2.721 1.173 5.196.562 6.32-2.438 4.484-12.73-.305-14.372-1.42-1.83 1.142 1.127 3.562-.902 4.457-1.848.82-3.06-.806-3.982-2.154a111.769 111.769 0 0 1-3.008-4.606z" transform="scale(-1 1) rotate(-23 0 1531.667)"/>
      <path id="Fill-24" fill="#C4C3C6" d="M268.857 279.158c-1.474-2.585-5.395-4.117-3.252-8.56 2.74.928 1.332 4.877 4.573 5.62.417-2.438-1.56-7.519 4.093-5.845 1.447.427 2.08-2.09 1.456-4.1-.688-2.22-1.116-4.535-1.025-7.126 1.992 4.226 2.384.229 4.368 4.46 1.54 3.286 4.681 14.794 6.174 18.106.381.848-.86 1.174-1.668 1.213-4.47-3.302-9.946-1.882-14.72-3.768z" transform="scale(-1 1) rotate(-23 0 1623.424)"/>
      <path id="Oval" fill="#000" d="M146.327 479.516c-23.753 1.65-43.59-11.725-44.307-29.874-.718-18.15 17.956-34.2 41.71-35.85 23.752-1.65 43.59 11.724 44.307 29.874.717 18.149-17.957 34.2-41.71 35.85z" transform="rotate(10 145.028 446.654)"/>
      <path id="Oval-Copy" fill="#C4C3C6" d="M143.327 467.61c-21.697-1.701-38.016-16.42-36.449-32.877 1.568-16.455 20.427-28.416 42.124-26.715 21.697 1.701 38.015 16.42 36.448 32.877-1.567 16.455-20.426 28.416-42.123 26.715z" transform="rotate(10 146.164 437.814)"/>
      <path id="Oval" fill="#000" d="M327.499 409.22c-34.046 37.076-14.077 51.952-64.774 70.315-50.697 18.364-85.106-25.351-125.59 1.836-5.952-3.977-6.958-1.944-9.208-6.306-3.823-7.41-2.371-16.468 4.127-30.886 13.13-29.134-3.742-73.656-8.327-126.675-2.901-33.552 25.99-56.11 24.989-60.83-7.41-34.944 20.123-70.96 66.441-101.064 15.882-10.322 39.902-13.453 72.06-9.392 35.062 6.225 59.565 12.736 73.508 19.532 22.238 10.84 36.273 29.012 42.107 54.517 10.403 18.282 5.423 51.887-14.94 100.815-10.93 26.265-26.348 51.06-60.393 88.137z" transform="rotate(10 265.815 314.347)"/>
      <path id="Path" fill="#C4C3C6" d="M319.969 165.936c61.2 12.399 82.876 36.19 65.027 71.376-26.774 52.78 23.129 8.09-4.104 73.51-9.747 23.413-15.302 3.891-58.802 54.572-43.5 50.681-29.696 101.528-78.636 105.553-13.466 1.108-43.763-2.12-68.114-8.43-24.35-6.308-35.419 11.892-38.283 8.364-9.767-12.028 19.945-46.797 14.75-61.724-11.672-33.529-13.866-70.414-15.808-92.88-2.585-29.907 23.173-50.016 22.28-54.223-5.047-23.8 13.549-52.361 41.026-76.484 9.017-7.915 31.9-11.884 50.637-18.715 41.783-1.809 65.125-2.115 70.027-.919z" transform="rotate(10 263.056 318.28)"/>
      <path id="Path-Copy-77" fill="#000" d="M220.192 425.254c-16.39 1.242-37.058-5.552-39.723-7.891 19.92-5.175 61.269-43.954 74.047-48.248-30.568 23.449-17.935 54.897-34.324 56.14z" transform="rotate(10 217.492 397.26)"/>
      <path id="Path-Copy-69" fill="#FFF" d="M175.92 417.445c-29.804-7.111-32.068-44.824-24.405-51.758 7.664-6.933 5.101 25.522 7.586 24.276 9.309-4.668 15.449-14.665 18.779-14.592 67.193 1.473 61.62-25.451 96.07-18.78-6.988 1.872-45.924 36.48-52.476 44.909-13.697 17.62-30.17 19.615-45.554 15.945z" transform="rotate(10 210.862 387.255)"/>
      <path id="Path-Copy-71" fill="#FFF" d="M161.79 370.52c-10.07-3.076-2.928 1.761-.67-3.228.842-1.857-4.916-6.948-9.652-12.24-2.59-2.895-9.248-8.545-4.765-8.007 7.111.853 19.237-4.733 30.35-3.445 4.515.522 6.775 4.376 7.817 4.08 7.72-2.194 11.46-2.59 15.035-1.754 56.958 13.314 51.747 2.657 78.297 11.47-6.834-.705-39.89 7.413-49.87 8.743-17.013 2.267-54.02 8.205-66.541 4.381z" transform="rotate(10 211.696 357.59)"/>
      <path id="Path-Copy-10" fill="#000" d="M174.73 404.036c-21.09-7.433-22.344-14.847-24.614-29.093-1.334-8.368-5.08-23.746-11.073-31.389 10.123 5.691 11.59 9.736 22.853 12.491 11.264 2.755 14.34 1.616 20.874.525-1.988-1.193-2.675-4.302-2.24-7.862 3.406 7.058 22.105 10.413 25.365 10.714 44.045 4.07 36.728-7.833 71.164-3.633-7.294.768-48.532 28.908-57.442 35.81-15.19 11.768-30.334 17.566-44.887 12.437z" transform="rotate(10 208.051 374.733)"/>
      <path id="Path-Copy-70" fill="#000" d="M279.616 362.467c4.33 7.703-2.632 14.354-8.52 18.122 1.295-5.053 3.071-8.229.922-13.775-2.149-5.547-4.167-6.68-10.304-10.44 5.886-.83 13.573-1.61 17.902 6.093z" transform="rotate(10 271.34 368.228)"/>
      <path id="Path" fill="#000" d="M352.572 279.337c15.87-2.43 19.369 4.125 44.103-38.45 7.143-12.295 7.812 8.075 4.028 34.108-4.21 28.97-18.178 74.72-27.932 87.586-6.628 8.742-84.265 63.158-35.865-.349s20.75-70.21 15.666-82.895z" transform="rotate(10 362.043 314.908)"/>
      <path id="Path-Copy-79" fill="#000" d="M195.262 324.191c8.95 3.842-1.334 15.302-6.675 19.303-2.831-6.691-2.274-23.145 6.675-19.303z" transform="rotate(10 192.929 333.555)"/>
      <path id="Path-Copy-81" fill="#000" d="M198.014 317.447c4.601-13.707 23.634 2.655 27.78 11.06-10.384 2.31-32.38 2.648-27.78-11.06z" transform="rotate(10 211.592 320.949)"/>
      <g id="Group-25" transform="rotate(21 -693.388 580.654)">
        <path id="Path-Copy-86" fill="#000" d="M21.036 16.488c1.32-10.373 15.757-1.215 20.047 5.283-6.2 2.494-21.367 5.09-20.047-5.283z"/>
        <path id="Path-Copy-83" fill="#000" d="M7.691 19.908C3.247 15.53 1.627 8.247 12.941 1.606c-3.01 17.915 9.79 22.152 19.81 21.855-14.074 2.083-22.404-.937-25.06-3.553z"/>
        <path id="Path" fill="#FFF" d="M16.822 16.87c-.207.036-.42.057-.637.064-3.088.099-5.986-2.83-6.474-6.543-.475-3.621 1.519-6.65 4.482-6.888-.22 1.671-.222 3.523.034 5.465.392 2.99 1.332 5.729 2.595 7.902z"/>
      </g>
      <path id="Path-Copy-74" fill="#FFF" d="M285.632 278.481c13.19-.387 28.915-.155 41.258 8.875 12.343 9.031 2.123 22.605-5.118 28.31-13.37 10.534-22.417-6.37-55.688-2.062-31.255 4.047-8.95-34.284 19.548-35.123z" transform="rotate(10 291.787 298.78)"/>
      <path id="Path-Copy-89" fill="#000" d="M318.681 159.357c-15.957 11.41-43.974 42.908-46.88 46.174-2.872-7.902-2.127-17.122 2.233-27.66a368.38 368.38 0 0 0 1.99-4.785c1.103-2.745 1.574-4.174 1.415-4.287-8.366-5.944-66.876 48.694-78.442 45.375-12.052-3.458-3.813-21.128 11.505-34.842 25.633-22.947 114.107-36.927 108.179-19.975z" transform="rotate(10 256.092 183.087)"/>
      <path id="Path" fill="#FFF" d="M270.54 193.563c-2.872-7.902-11.57-10.578-18.161-8.023-7.621 2.954-15.435 6.462-23.231 10.656-46.933 25.253-14.77-13.77 4.844-25.055 15.309-8.81 38.559-13.713 57.98-14.95.536 3.745-16.596 19.949-21.432 37.372z" transform="rotate(10 248.432 180.368)"/>
      <path id="Path-Copy-88" fill="#FFF" d="M392.757 195.57c-3.308 16.431-61.899-10.876-102.6 16.706-40.702 27.583-9.274-15.746 3.814-27.39 30.362-27.014 106.754-3.632 98.786 10.684z" transform="rotate(10 331.676 196.887)"/>
      <path id="Path-Copy-84" fill="#FFF" d="M167.325 260.984c7.234-3.174 17.766-1.902 25.514 3.141 4.544 2.958 8.366 9.46-23.404 18.783-1.994.585-9.3 4.08-13.485 3.499-8.916-1.117-.73-20.11 11.375-25.423z" transform="rotate(10 174.02 272.862)"/>
      <path id="Path" fill="#FFF" d="M222.07 283.636c1.927 2.891 6.013 7.959.451 10.97-5.562 3.012-14.073 4.708-22.998 2.024-8.924-2.683-5.61-6.99 3.059-11.809 6.47-3.596 16.374-16.648 29.711-39.157 5.555-15.448 9.288-24.64 11.2-27.574 3.618-5.552 5.496 35.983-16.74 56.729-.368.344-6.61 5.926-4.683 8.817z" transform="rotate(10 219.973 257.777)"/>
      <path id="Path-Copy-76" fill="#FFF" d="M153.43 416.757c12.368 1.165 26.631 8.114 40.112 21.524 13.48 13.41-16.675 9.435-40.706 4.772-24.03-4.663-25.176 8.48-30.496 4.517-11.425-8.275 10.395-32.763 31.09-30.813z" transform="rotate(10 158.035 432.486)"/>
      <path id="Path-Copy-80" fill="#000" d="M281.014 435.43c-7.143 7.01-25.735 7.815-35.327 3.454 4.198-1.485 16.893-6.28 24.11-13.587 7.042-7.13 8.61-16.7 12.608-23.964-1.057 2.457 2.184 11.927 2.813 15.806 1.072 6.614.065 14.1-4.204 18.29z" transform="rotate(10 265.65 421.452)"/>
      <path id="Path-Copy-78" fill="#000" d="M131.424 375.45c1.785 11.63 11.283 23.942 17.734 27.253-6.702 2.031-19.517 8.247-27.03 26.797 1.204-1.779-1.675-10.137-1.495-12.977.307-4.842 10.269-44.474 10.791-41.072z" transform="rotate(10 134.892 402.372)"/>
      <path id="Path" fill="#FFF" d="M266.397 272.333c.614-19.44 15.754-35.002 34.34-35.002 18.458 0 33.516 15.346 34.325 34.598-9.968-4.368-21.539-6.867-33.879-6.867-12.716 0-24.615 2.654-34.786 7.271z" transform="rotate(10 300.73 254.832)"/>
      <path id="Path" fill="#FFF" d="M262.31 273.774c1.342-7.903 16.998-14.139 36.113-14.139 18.428 0 33.64 5.795 35.914 13.292-10.019-1.619-21.465-2.536-33.622-2.536-14.14 0-27.318 1.241-38.406 3.383z" transform="rotate(10 298.323 266.704)"/>
      <path id="Path" fill="#FFF" d="M173.16 260.034c.223-7.227 10.78-13.69 24.187-14.628 13.091-.915 24.224 3.764 25.885 10.618-7.193-1.021-15.418-1.315-24.109-.707-9.615.673-18.512 2.358-25.963 4.717z" transform="rotate(10 198.196 252.663)"/>
      <path id="Path" fill="#FFF" d="M181.433 249.627c2.795-16.757 15.566-29.025 29.951-28.02 14.045.983 24.805 14.28 25.712 30.714-7.653-4.105-16.55-6.752-26.151-7.423-10.63-.744-20.742 1.031-29.512 4.73z" transform="rotate(10 209.265 236.935)"/>
      <path id="Path-Copy-73" fill="#000" d="M213.231 227.808c10.908.765 24.13 15.155 21.313 22.645-2.037 5.416-17.785 3.286-23.121 2.912-12.716-.891-24.796.795-35.299 4.472 6.887-21.27 19.256-31.28 37.107-30.029z" transform="rotate(10 205.526 242.77)"/>
      <path id="Path" fill="#000" d="M264.266 272.378c1.113-15.463 16.441-27.715 35.187-27.715 18.347 0 33.42 11.737 35.097 26.735-10-3.355-21.51-5.266-33.759-5.266-13.396 0-25.908 2.285-36.525 6.246z" transform="rotate(10 299.408 258.52)"/>
      <path id="Path-Copy-82" fill="#000" d="M176.198 263.589c19.403.248 26.436-1.427 33.447-4.866 7.01-3.44 14.033-5.997 18.33-14.765 3.606 6.222-1.263 11.508-14.972 27.305s-29.763 16.443-35.05 29.557c-.289-1.343-1.405-9.875 12.548-22.049 13.954-12.174-2.725-6.21-14.303-15.182z" transform="rotate(10 202.66 272.389)"/>
      <path id="Path" fill="#000" d="M278.626 269.888c15.124 2.69 25.914 4.722 32.37 6.097-34.55-.828-52.9 4.998-55.052 17.476-.792 6.546 4.352 11.501 15.431 14.866 14.23 10.473 13.066 16.49-3.492 18.052-24.836 2.343-28.74 10.92-30.571 11.145 6.453-6.827 6.52-15.488 3.265-23.263-3.254-7.774-7.69-10.29-18.361-11.993.583.728 15.77-5.81 21.357-15.127 6.31-10.522 14.874-29.869 16.13-29.371 1.068.422-3.763 8.084 18.923 12.118z" transform="rotate(10 266.606 297.642)"/>
      <path id="Path" fill="#FFF" d="M237.414 315.783c-2.605-14.773-14.118-16.108-17.713-18.848 9.663 1.99 18.362 2.807 23.218 9.754 5.153 7.37 7.412 19.001-8.809 24.908 1.449-3.302 4.867-6.951 3.304-15.814z" transform="rotate(10 233.213 314.266)"/>
      <path id="Path-Copy-70" fill="#000" d="M311.19 224.268c16.866-1.504 22.205 7.864 23.554 15.11-7.499-3.136-11.382-6.066-22.691-5.948-11.31.117-14.981 1.716-26.683 6.46 3.659-6.17 8.956-14.117 25.82-15.622z" transform="rotate(10 310.057 232)"/>
      <path id="Path-Copy-93" fill="#000" d="M228.137 210.17c13.195 3.853 13.473 14.107 11.61 21.175-4.36-5.205-6.1-9.099-14.595-12.5-8.495-3.403-11.872-3.076-22.493-2.353 5.178-4.527 12.283-10.176 25.478-6.323z" transform="rotate(10 221.618 220.117)"/>
      <path id="Path-Copy-91" fill="#FFF" d="M353.148 343.925c-11.487 8.434-31.537 19.999-48.94 24.944 16-15 15.607-19.02 38.893-34.57 23.286-15.548 14.056-35.657 27.106-38.43 6 21 2.164 33.943-17.059 48.056z" transform="rotate(-10 338.51 332.37)"/>
    </g>
  </g>
</svg>
