<svg viewBox="0 0 720 601" xmlns="http://www.w3.org/2000/svg">
    <g fill="none" fill-rule="evenodd">
        <path d="M286.66 280.39h-6.653v-6.653h6.653v-6.67h-6.653v-6.67h6.653v-6.654h6.67v-6.67h-6.67v6.654h-6.653v-6.653h6.653V240.4h-6.67v6.67h-6.653v6.653h-6.67v-6.653h-6.67v6.653h-6.653v-6.653h6.653v-6.67h-6.67v6.67h-6.653v-6.67H240v6.67h6.67v6.653H240v6.67h6.67v6.67H240v6.67h6.67v6.67h6.653v6.654h6.67v-6.654h6.67v6.654h6.67v-6.654h6.654v6.654h6.67v-6.654h6.67v-6.67h-6.67v6.657h.003zm-39.99.016v6.654H240v-6.67h6.67v.016zm19.993-33.336v-6.67h6.67v6.67h-6.67zm19.997 13.324v6.67h6.67v-6.67h-6.67zm-33.337-6.654h-6.653v6.654h6.653v-6.654zm.017 33.32v6.67h6.653v-6.67h6.67v6.67h6.67v-6.67h6.67v6.67h6.654v-6.67h6.67v6.67h-6.67v6.67h-6.67v-6.67h-6.653v6.67h-6.67v-6.67h-6.67v6.67h-6.67v-6.67h-6.654v6.67H240v-6.67h6.67v-6.67h6.67zm26.647-13.323v-6.67h-6.653v6.67h6.653zm-13.324 0v6.653h6.67v-6.653h-6.67zm-6.67 0h6.67v-6.67h-6.67v6.67zm0 0h-6.653v6.653h6.653v-6.653zm0-13.343h-6.653v6.67h6.653v-6.67zm6.67 0v-6.654h-6.67v6.654h6.67zm6.674 0h-6.67v6.67h6.67v-6.67zm0 0h6.653v-6.654h-6.653v6.654zm-20.014 6.67v6.67h-6.653v-6.67h6.653zM300 247.07h-6.67v-6.67H300v6.67zm-6.67 13.324H300v-6.67h-6.67v6.67zm6.67 13.343h-6.67v-6.67H300v6.67zm-6.67 13.323H300v-6.67h-6.67v6.67zm0 13.34H300v-6.67h-6.67v6.67zm293.33-20.01h-6.653v-6.653h6.653v-6.67h-6.653v-6.67h6.653v-6.654h6.67v-6.67h-6.67v6.654h-6.653v-6.653h6.653V240.4h-6.67v6.67h-6.653v6.653h-6.67v-6.653h-6.67v6.653h-6.653v-6.653h6.653v-6.67h-6.67v6.67h-6.653v-6.67H540v6.67h6.67v6.653H540v6.67h6.67v6.67H540v6.67h6.67v6.67h6.653v6.654h6.67v-6.654h6.67v6.654h6.67v-6.654h6.654v6.654h6.67v-6.654h6.67v-6.67h-6.67v6.657h.003zm-39.99.016v6.654H540v-6.67h6.67v.016zm19.993-33.336v-6.67h6.67v6.67h-6.67zm19.997 13.324v6.67h6.67v-6.67h-6.67zm-33.337-6.654h-6.653v6.654h6.653v-6.654zm.017 33.32v6.67h6.653v-6.67h6.67v6.67h6.67v-6.67h6.67v6.67h6.654v-6.67h6.67v6.67h-6.67v6.67h-6.67v-6.67h-6.653v6.67h-6.67v-6.67h-6.67v6.67h-6.67v-6.67h-6.654v6.67H540v-6.67h6.67v-6.67h6.67zm26.647-13.323v-6.67h-6.653v6.67h6.653zm-13.324 0v6.653h6.67v-6.653h-6.67zm-6.67 0h6.67v-6.67h-6.67v6.67zm0 0h-6.653v6.653h6.653v-6.653zm0-13.343h-6.653v6.67h6.653v-6.67zm6.67 0v-6.654h-6.67v6.654h6.67zm6.674 0h-6.67v6.67h6.67v-6.67zm0 0h6.653v-6.654h-6.653v6.654zm-20.014 6.67v6.67h-6.653v-6.67h6.653zM600 247.07h-6.67v-6.67H600v6.67zm-6.67 13.324H600v-6.67h-6.67v6.67zm6.67 13.343h-6.67v-6.67H600v6.67zm-6.67 13.323H600v-6.67h-6.67v6.67zm0 13.34H600v-6.67h-6.67v6.67z" fill="#4038FF"/>
        <path d="M166.66 40.39h-6.653v-6.653h6.653v-6.67h-6.653v-6.67h6.653v-6.654h6.67v-6.67h-6.67v6.654h-6.653V7.074h6.653V.4h-6.67v6.67h-6.653v6.653h-6.67V7.07h-6.67v6.653h-6.653V7.07h6.653V.4h-6.67v6.67h-6.653V.4H120v6.67h6.67v6.653H120v6.67h6.67v6.67H120v6.67h6.67v6.67h6.653v6.654h6.67v-6.654h6.67v6.654h6.67v-6.654h6.654v6.654h6.67v-6.654h6.67v-6.67h-6.67v6.657h.003zm-39.99.016v6.654H120v-6.67h6.67v.016zM146.663 7.07V.4h6.67v6.67h-6.67zm19.997 13.324v6.67h6.67v-6.67h-6.67zm-33.337-6.654h-6.653v6.654h6.653V13.74zm.017 33.32v6.67h6.653v-6.67h6.67v6.67h6.67v-6.67h6.67v6.67h6.654v-6.67h6.67v6.67h-6.67v6.67h-6.67v-6.67h-6.653v6.67h-6.67v-6.67h-6.67v6.67h-6.67v-6.67h-6.654v6.67H120v-6.67h6.67v-6.67h6.67zm26.647-13.323v-6.67h-6.653v6.67h6.653zm-13.324 0v6.653h6.67v-6.653h-6.67zm-6.67 0h6.67v-6.67h-6.67v6.67zm0 0h-6.653v6.653h6.653v-6.653zm0-13.343h-6.653v6.67h6.653v-6.67zm6.67 0V13.74h-6.67v6.654h6.67zm6.674 0h-6.67v6.67h6.67v-6.67zm0 0h6.653V13.74h-6.653v6.654zm-20.014 6.67v6.67h-6.653v-6.67h6.653zM180 7.07h-6.67V.4H180v6.67zm-6.67 13.324H180v-6.67h-6.67v6.67zM180 33.737h-6.67v-6.67H180v6.67zm-6.67 13.323H180v-6.67h-6.67v6.67zm0 13.34H180v-6.67h-6.67v6.67z" fill="#1F242C"/>
        <path d="M353.33 300.4H360v60h-6.67v-60zm-6.663 0H340v60h6.667v-60zm-13.333 0h-6.667v60h6.667v-60zm-20 0H320v60h-6.667v-60zm-6.667 0H300v60h6.667v-60z" fill="#4038FF"/>
        <path d="M364.7 420.4H360v4.7l55.3 55.3h4.7v-4.7l-55.3-55.3zm41.166 60h-9.433L360 443.967v-9.434l45.866 45.867zm-18.866 0h-9.433L360 462.833V453.4l27 27zm-27 0v-8.133l8.133 8.133H360zm60-23.567v9.434L374.133 420.4h9.434L420 456.833zm0-18.866v9.433l-27-27h9.433L420 437.967zm0-9.434l-8.134-8.133H420v8.133z" fill="#F2F5F9" fill-rule="nonzero"/>
        <path d="M360.6 173.73v6.67h-60v-6.67h60zm0-6.663V160.4h-60v6.667h60zm0-13.334v-6.666h-60v6.666h60zm0-20v6.667h-60v-6.667h60zm0-6.666V120.4h-60v6.667h60z" fill="#1F242C"/>
        <path d="M300 533.73v6.67h-60v-6.67h60zm0-6.663V520.4h-60v6.667h60zm0-13.334v-6.666h-60v6.666h60zm0-20v6.667h-60v-6.667h60zm0-6.666V480.4h-60v6.667h60z" fill="#4038FF"/>
        <path d="M540 353.73v6.67h-60v-6.67h60zm0-6.663V340.4h-60v6.667h60zm0-13.334v-6.666h-60v6.666h60zm0-20v6.667h-60v-6.667h60zm0-6.666V300.4h-60v6.667h60zM300 367.07v-6.67h-60v6.67h60zm0 20.003v6.67h-60v-6.67h60zm0 20.004v-6.67h-60v6.67h60zm0 13.323v-6.67h-60v6.67h60zm0-46.66v6.67h-60v-6.67h60zm412.733 46.66h6.667c0-33.137-26.863-60-60-60v6.667c29.457 0 53.333 23.876 53.333 53.333zm-13.333 0h6.667c0-25.773-20.894-46.667-46.667-46.667v6.667c22.09 0 40 17.91 40 40zm-6.666 0h-6.667c0-14.726-11.94-26.667-26.667-26.667v-6.666c18.41 0 33.334 14.923 33.334 33.333zm-20 0h6.666c0-11.046-8.953-20-20-20v6.667c7.363 0 13.333 5.97 13.333 13.333zm-13.334 0h6.667a6.665 6.665 0 00-6.667-6.667v6.667z" fill="#1F242C"/>
        <path d="M186.667 180.4H180c0 33.137 26.863 60 60 60v-6.667c-29.457 0-53.333-23.876-53.333-53.333zm13.333 0h-6.667c0 25.773 20.894 46.667 46.667 46.667V220.4c-22.09 0-40-17.91-40-40zm6.667 0h6.667c0 14.727 11.94 26.667 26.666 26.667v6.666c-18.41 0-33.333-14.923-33.333-33.333zm20 0H220c0 11.047 8.953 20 20 20v-6.667c-7.363 0-13.333-5.97-13.333-13.333zm13.333 0h-6.667a6.665 6.665 0 006.667 6.667V180.4z" fill="#FFF"/>
        <path d="M600 473.733v6.667c33.137 0 60-26.863 60-60h-6.667c0 29.457-23.876 53.333-53.333 53.333zm0-13.333v6.667c25.773 0 46.667-20.894 46.667-46.667H640c0 22.09-17.91 40-40 40zm0-6.667v-6.667c14.727 0 26.667-11.94 26.667-26.666h6.666c0 18.41-14.923 33.333-33.333 33.333zm0-20v6.667c11.047 0 20-8.953 20-20h-6.667c0 7.363-5.97 13.333-13.333 13.333zm0-13.333v6.667a6.665 6.665 0 006.667-6.667H600z" fill="#1F242C"/>
        <path d="M180 240.4v60h-60c0-33.137 26.863-60 60-60z" fill="#4038FF" fill-rule="nonzero"/>
        <path d="M60 300.4h60v60c-33.137 0-60-26.863-60-60zm420.6-240v60h-60c0-33.137 26.863-60 60-60z" fill="#1F242C" fill-rule="nonzero"/>
        <path d="M186.67 60.4H180v60h6.67v-60zm20.003 0h6.67v60h-6.67v-60zm20.004 0h-6.67v60h6.67v-60zm13.323 0h-6.67v60H240v-60zm-46.66 0h6.67v60h-6.67v-60z" fill="#4038FF"/>
        <path d="M6.67 180.4H0v60h6.67v-60zm20.003 0h6.67v60h-6.67v-60zm20.004 0h-6.67v60h6.67v-60zm13.323 0h-6.67v60H60v-60zm-46.66 0h6.67v60h-6.67v-60z" fill="#1F242C"/>
        <path d="M487.27 540.4h-6.67v60h6.67v-60zm20.003 0h6.67v60h-6.67v-60zm20.004 0h-6.67v60h6.67v-60zm13.323 0h-6.67v60h6.67v-60zm-46.66 0h6.67v60h-6.67v-60z" fill="#4038FF"/>
        <path d="M483.756 184.35c8.495-5.573 34.719-5.583 42.228-4.28 11.337 1.966 24.027 4.961 31.13 15.66 4.743 7.148 4.205 16.772 4.678 24.462.266 4.313.517 8.397 1.491 12.183.37-.12.742-.26.968-.344 12.547-4.698 28.03-.35 37.654 10.574 3.38 3.837 2.516 6.993 1.989 8.171a5.49 5.49 0 01-1.98 2.345c-.9.606-1.848.894-2.657 1.095-12.874 3.195-24.924 3.962-36.838 2.34-12.892-1.753-23.436-6.072-31.336-12.837-7.99-6.842-13.022-16.562-13.747-25.826-3.342 1.37-6.58 3.362-9.94 5.427-6.088 3.743-12.384 7.613-20.146 8.253-6.904.57-13.66-1.567-20.552-4-15.04-5.309-32.354-11.895-47.516-22.926-3.234-2.353-6.486-5.083-8.366-9.1-2.166-4.625-1.76-9.493-1.464-13.049.765-9.185 2.544-19.25 9.941-24.239.58-.39 1.192-.748 1.82-1.06 2.876-1.433 6.038-1.884 8.828-2.282 2.681-.383 5.215-.744 6.89-1.874.207-.14.403-.291.58-.453 1.308-1.174 2.083-3.166 2.754-5.542 9.224 3.875 23.754 16.31 43.59 37.303z" fill="#000" stroke="#000" stroke-width="4.395"/>
        <path d="M423.181 161.234c-7.282 3.619-8.838 13.405-9.539 21.933-.29 3.533-.534 7.28 1.026 10.605 1.417 3.016 4.112 5.225 6.785 7.17 14.104 10.261 30.264 16.64 46.345 22.328 6.138 2.171 12.505 4.288 18.762 3.778 13.143-1.069 22.46-13.29 35.445-15.208-1.948 10.195 3.52 21.489 11.739 28.522 8.22 7.036 18.712 10.365 28.957 11.768 12.117 1.66 23.806.614 35.288-2.222.785-.193 1.656-.458 1.99-1.206.45-1.01-.338-2.231-1.12-3.118-8.296-9.408-21.977-13.26-32.778-9.229-1.756.656-3.92 1.422-5.448.086-.76-.667-1.11-1.686-1.379-2.655-3.121-11.31-.135-24.11-6.7-33.983-6.076-9.138-17.69-11.777-27.989-13.574-8.397-1.465-17.603-2.785-24.438 1.692-4.37 2.862-7.052 7.676-10.249 11.861-7.106 9.306-19.954 16.017-30.814 9.864-9.79-5.549-13-18.897-11.486-29.772.197-1.41.547-2.955 1.712-3.654 1.614-.966 3.73.199 5.6.898 5.396 2.02-26.334-18.555-31.709-15.884z" fill="#000"/>
        <path d="M548.31 196.804c.38.416.844.725.91 1.334l-.043-.091c6.465 10.16 5.723 21.545 7.551 32.46.6 3.575.75 6.848 3.263 10.04 1.342 1.705 7.497 6.529 6.983 7.587-.106.218-7.735.183-10.492-.105-18.257-1.91-24.127-10.409-24.127-10.409-7.982-8.48-6.66-16.92-5.836-18.467 3.885-7.3 22.2-13.707 22.717-14.759.385-.784-6.181-5.713-13.64-6.2-2.521-.354-3.708 1.572-4.602 3.06-4.5 7.485-6.578 7.926-13.818 11.382-4.609 2.198-21.008-13.648-18.625-20.304 2.067-5.779 2.73-5.214 8.124-5.444 3.466-.148 12.69-.92 21.365.924 9.373 1.994 18.172 6.701 20.27 8.992z" fill="#C4C3C6"/>
        <path d="M541.952 204.768c4.084-2.75 9.74.934 12.863 11.081 3.123 10.148 1.654-8.47.774-9.774-1.985-2.938-9.569-18.375-16.91-13.431-7.342 4.943-11.684 11.333-9.7 14.27 1.985 2.938 5.632 2.798 12.973-2.146z" fill="#000"/>
        <path d="M538.76 199.466c-10.9 5.361-13.855 9.78-20.482 13.036-4.218 2.07-1.543-25.718 2.372-26.027 2.516-.199 12.525-.853 19.945 1.67 7.42 2.525 8.331 5.616 11.95 10.017-6.309-1.348-11.222.043-13.785 1.304z" fill="#FFF"/>
        <path d="M592.14 250.483c-8.748 2.574-18.486-4.826-24.24-9.613-2.032-1.692-1.27-3.218 1.35-3.533 9.724-1.162 20.93.734 28.598 8.637.844.87-4.06 4.025-5.707 4.51z" fill="#C4C3C6"/>
        <path d="M446.21 182.869l-.195.894c-.011.22-.043.41-.034.659l.229-1.553z" fill="#D796A0"/>
        <path d="M457.75 165.514c-3.228-3.623-9.314-7.743-14.945-7.451-3.157.163-3.563 1.577-10.973 2.913-1.923.349-2.694.59-4.454.884-7.286 1.208-10.995 5.642-12.098 12.993-.684 4.55-1.928 8.966-1.918 13.682.052 4.562 2.518 7.661 5.99 10.454 8.374 6.732 46.366 23.404 61.35 27.919 3.703 1.116 6.191-.415 6.257-.81.385-2.306-2.023-2.246-3.397-2.977-9.113-4.834-18.519-8.936-27.52-14.072-3.57-2.034-6.096-4.487-7.767-7.304-1.211-2.043-1.596-5.953-2.508-13.693-.473-4.002-.637-6.409-.48-9.282.04-.778.194-3.203.917-6.213 0 0 1.017-4.24 3.448-6.776.53-.554 1.085-.97 1.55-.786.135.054.457.234.71 1.142.43 1.541-.088 2.855-.093 3.324-.046 3.63.963 6.24 2.794 7.638 2.048 1.562 4.596 1.04 7.715.368 2.623-.566 5.926-1.89 5.73-2.843-.1-.484-1.063-.703-1.55-.843-3.956-1.128-6.167-5.358-8.759-8.267z" fill="#C4C3C6"/>
        <path d="M446.861 164.14c-5.958.648-6.57 21.086-6.102 25.089.633 5.421-17.926 12.595-21.425 9.781-3.468-2.79-5.93-5.888-5.977-10.452-.005-4.718 1.244-9.136 1.932-13.689 1.11-7.355 4.823-11.794 12.108-13.011 1.76-.295 2.53-.538 4.453-.889 7.408-1.344 7.816-2.76 10.972-2.926l.088-.004c2.79 1.87 3.71 1.975 5.71 4.916l-1.759 1.186z" fill="#FFF"/>
        <path d="M378.856 365.479c39.065-14.761 17.79-46.824 22.154-52.235 6.587-8.169 14.594-16.962 26.278-17.897 7.805-.624 15.249 4.056 21.597 7.076 3.56 1.694 6.931 3.297 10.385 4.193.067-.347.12-.706.154-.923 1.803-12.078 12.127-22.5 25.105-25.345 4.559-1 6.696 1.082 7.403 2.024.575.762.91 1.643.995 2.614.086.984-.104 1.867-.302 2.601-3.147 11.674-7.868 21.619-14.436 30.4-7.105 9.502-15.22 15.999-24.116 19.308-8.999 3.348-18.984 3.065-26.7-.45-.385 3.27-.229 6.731-.067 10.322.117 2.6 14.286-1.083 16.153 1.765 2.806 4.28-6.537 15.14-8.293 19.025-2.6 5.755-12.135 14.422-17.127 18.84-10.895 9.645-28.831 20.015-44.347 27.23-3.31 1.537-6.928 2.924-10.966 2.649-4.651-.317-8.357-2.79-11.064-4.598-6.994-4.667-14.574-15.32-15.283-23.42a14.27 14.27 0 01-.04-1.918c.128-2.926 1.167-5.646 2.084-8.046.882-2.306 1.715-4.485 1.554-6.32a4.656 4.656 0 00-.104-.663c-.359-1.56-1.606-3.058-3.205-4.643 7.175-5.64 21.238-6.17 42.188-1.59z" fill="#000" stroke="#000" stroke-width="4.395"/>
        <path d="M340.564 386.836c-.328 7.408 6.795 12.982 13.291 17.316 2.691 1.796 5.573 3.65 8.916 3.878 3.033.206 5.986-.965 8.717-2.236 14.418-6.702 26.645-16.763 38.284-27.066 4.443-3.932 8.944-8.072 11.3-13.286 4.95-10.953-.688-23.794 3.515-34.996 7.276 6.068 18.703 6.708 27.946 3.27 9.244-3.44 16.534-10.332 22.177-17.879 6.675-8.927 11.003-18.71 13.81-29.12.192-.711.365-1.523-.084-2.12-.607-.807-1.93-.719-2.984-.488-11.17 2.45-20.286 11.652-21.838 22.048-.252 1.69-.596 3.756-2.337 4.382-.867.31-1.836.14-2.728-.076-10.405-2.519-19.3-10.567-30.079-9.703-9.975.798-17.21 8.89-23.191 16.306-4.877 6.046-9.996 12.803-9.441 20.234.355 4.751 3.012 9.022 4.94 13.423 4.289 9.787 3.97 23.002-5.735 28.937-8.75 5.349-20.82 1.998-28.831-4.024-1.038-.781-2.116-1.745-2.16-2.982-.059-1.715 1.806-2.887 3.19-4.068 3.994-3.408-26.437 12.782-26.678 18.25z" fill="#000"/>
        <path d="M424.203 302.816c.5-.12.952-.353 1.467-.136l-.092-.006c10.963-.656 19.72 4.977 29.24 8.352 3.117 1.105 5.795 2.433 9.452 1.843 1.953-.315 8.52-3.086 9.138-2.208.127.18-3.27 6.248-4.717 8.319-9.586 13.711-18.96 14.629-18.96 14.629-10.292 2.61-16.444-2.183-17.314-3.523-4.11-6.33-1.137-23.77-1.748-24.648-.455-.655-7.289 2.398-10.97 8.129-1.397 1.855-.383 3.654.409 5.025 3.987 6.902 2.979 10.53 2.54 17.832-.281 4.648-19.726 8.933-23.986 4.086-3.698-4.207-2.955-4.486-.757-8.888 1.412-2.83 4.87-10.526 10.172-16.626 5.73-6.591 13.372-11.522 16.126-12.18z" fill="#C4C3C6"/>
        <path d="M427.751 311.41c-.391-4.473 5.047-7.352 14.524-5.349s-6.03-5.07-7.459-4.944c-3.22.282-18.89-.507-18.186 7.536.704 8.042 3.885 14.333 7.106 14.052 3.221-.282 4.719-3.252 4.015-11.294z" fill="#000"/>
        <path d="M422.11 312.901c-.717 12.015 1.64 16.667 1.2 23.97-.28 4.648-22.87-10.76-21.223-14.315 1.06-2.285 5.388-11.308 11.184-16.581 5.796-5.273 8.9-4.612 14.453-5.69-4.242 4.858-5.447 9.791-5.615 12.616z" fill="#FFF"/>
        <path d="M486.396 291.635c-1.809 8.115-12.015 12.603-18.376 15.07-2.247.872-3.13-.41-2.223-2.64 3.367-8.267 9.828-16.363 19.52-18.977 1.068-.288 1.42 5.02 1.08 6.547z" fill="#C4C3C6"/>
        <path d="M368.548 378.478l.02.013.017.007-.037-.02z" fill="#D796A0"/>
        <path d="M358.853 355.582c-4.316.97-10.292 3.998-12.546 8.617-1.263 2.589-.314 3.539-2.52 10.039-.571 1.687-.718 2.41-1.262 3.942-2.252 6.344.262 20.043 5.641 24.177 3.33 2.56 6.304 5.507 10.072 7.587 3.664 1.979 7.226 1.385 10.988-.147 9.07-3.696 39.486-21.818 49.705-31.766 2.526-2.46 2.403-5.12 2.117-5.348-1.67-1.328-15.354-1.863-29.942-4.051-1.487-.223-7.757 3.75-13.176 6.535-5.42 2.785-11.778-2.382-14.002-3.779a31.935 31.935 0 01-4.553-3.482s-2.934-2.689-3.885-5.75c-.208-.667-.294-1.294.057-1.583.103-.085.39-.26 1.225-.061 1.42.34 2.24 1.334 2.612 1.546 2.877 1.644 5.405 1.995 7.33 1.154 2.15-.941 3.25 2.382 4.09-.402.707-2.342 1.109-5.562.261-5.828-.43-.134-1.42-5.05-1.747-4.723-2.647 2.654-7 2.544-10.465 3.323z" fill="#C4C3C6"/>
        <path d="M395.536 372.697c-12.967 6.993-20.42 11.24-22.36 12.739-1.08.834-3.05 5.858-5.911 15.074-.36-9.18-1.45-16.891-3.271-23.134-1.584-5.432-.305-5.097 2.782-3.94 2.234.837 4.967 2.508 10.4.8 12.938-4.067 19.99-12.789 21.6-10.4.015.022 3.185 3.977 3.2 4 .015.022 10.16 5.853 8.8 8.8l-15.24-3.939z" fill="#FFF"/>
        <g>
            <path d="M492.225 380.774c-18.151.283-33.434-11.075-34.136-25.368-.701-14.292 13.444-26.108 31.595-26.39 18.151-.284 33.434 11.074 34.136 25.366.701 14.293-13.445 26.109-31.595 26.392z" fill="#000"/>
            <path d="M491.218 371.53c-16.59.362-30.534-10.231-31.144-23.66-.61-13.43 12.344-24.609 28.935-24.97 16.59-.362 30.534 10.231 31.144 23.66.61 13.43-12.345 24.609-28.935 24.97z" fill="#C4C3C6"/>
            <path d="M360.623 327.429c-28.313-25.85-34.877-49.325-44.92-68.513-28.062-53.614 5.375-16.872-28.345-82.264-18.507-35.89 31.883-69.25 84.652-62.763 17.922 2.204 42.766-5.319 61.884 4.837 37.17 19.747 62.473 48.482 59.164 75.468-.447 3.645 22.988 18.828 23.01 44.459.036 40.503-9.823 75.379 2.08 96.595 9.359 16.68 8.149 23.95-3.338 33.156-32.546-17.924-49.884.713-80.147 11.653-30.263 10.94-45.727-26.78-74.04-52.628z" fill="#000"/>
            <path d="M351.576 131.036c-16.305-.396-69.861 20.14-46.029 58.377 23.833 38.236.239 17.313 25.259 65.104 8.954 17.103 12.143 14.079 42.161 48.29 30.018 34.21 22.295 69.686 58.957 61.894 15.65-3.327 33.045-10.512 49.749-12.21 16.704-1.7 31.983 6.566 33.925 3.7 6.618-9.767-18.251-34.155-15.296-45.817 6.64-26.196 5.859-54.308 5.843-71.47-.02-22.846-20.914-36.38-20.516-39.63 2.254-18.38-13.761-38.799-36.227-55.262-7.372-5.403-25.013-6.892-39.695-10.826-47.773 2.108-41.827-1.754-58.131-2.15z" fill="#C4C3C6"/>
            <path d="M463.34 258.445c-1.119.024-2.633-11.74-4.564-9.81-3.2 3.2-6.627 2.78-8.8 3.2-1.176.229-1.65 8.343-2.867 8.652-11.393 2.889-21.215 9.324-24.36 22.3-2.167 8.94-7.645 45.402-12.001 48.648 9.627-.454 13.275 2.355 42.428-12.4 15.221-7.703 1.895-10.219 4.8-16 6.23-12.394 13.441-24.332 16.972-28.59 1.382-1.667 12.835 37.894 13.104 22.613.27-15.282-1.8-39.109-24.712-38.613z" fill="#FFF"/>
            <path d="M460.83 265.005c-20.865 2.817-29.648 5.402-36.227 20.543-3.86 8.882-9.037 42.398-13.782 44.788 24.944-3.464 34.575-22.144 52.068-26.168 17.494-4.024 22.49 4.177 31.27 7.613-6.587-6.305-6.046-26.788-11.023-35.584-4.977-8.797-12.413-12.528-22.307-11.192zm-72.12 33.027c-8.992-1.86-7.237 6.588.997 19.422 3.418 5.327 4.276 11.238 5.069 15.182 7.88-20.346 17.346-45.78 18.59-50.876-7.089 10.47-15.666 18.133-24.657 16.272z" fill="#000"/>
            <path d="M358.167 260.954c15.837 47.435 26.44 76.128 31.809 86.082 3.343 6.197 8.8-8 5.6-32-2.122-15.914-8.255-29.781-18.4-41.6l-19.009-12.482zm-46.734-47.014c-12.672-12.716-14.544-28.458-11.648-34.8 5.217 11.092 6.748 14.64 16.107 22.62 9.36 7.981 15.442 8.9 24.752 12.221-6.433 2.77-26.567 2.612-29.21-.04zM458.1 262.958c-8.07.098-3.514-12.887.699-17.179 2.908 4.84 7.37 17.08-.7 17.179zm-42.575 14.172c4.009-21.257 7.433-28.264 13.362-24.622-6.177 7.201-8.49 18.19-13.362 24.622zm86.043-3.256c-7.111 1.126-9.703-15.236-24.194-16.21 5.015 3.725 12.646 11.118 17.554 20.311 5.294 9.916 7.666 21.78 7.19 29.229-.161-1.608 7.085-10.035 7.725-11.77 1.09-2.956 2.304-14.868 1.158-13.143-.755 1.136-4.957 3.71-5.85 3.976-.37-3.19 3.529-13.52-3.583-12.393zm-48.305-31.081c-4.176-9.704-16.854 3.446-19.311 9.84 7.624 1.023 23.487-.137 19.311-9.84z" fill="#000"/>
            <g fill="#000">
                <path d="M471.084 240.01c-3.143-7.312-11.8 2.421-13.581 8.077 5.066.522 16.724-.767 13.581-8.078z"/>
                <path d="M464.412 213.613c-11.404-8.303 1.657-4.89 9.854-12.46-14.718 1.477-20.17.674-25.722-1.468s-17.593-14.604-21.438-20.966c2.85 14.206 8.262 19.631 19.72 30.697 9.671 9.34 19.895 10.386 25.786 16.252 10.564 16.17-.819 19.97-7.855 21.764 10.749-1.432 16.22-5.392 17.617-7.864 1.056-1.87 3.854-6.007-.398-11.732-3.94-5.306-14.8-12.21-17.564-14.223z"/>
            </g>
            <path d="M378.725 240.324c-9.992 1.17-21.948 2.04-31.92-3.988-9.972-6.027-3.112-16.997 2.009-21.803 9.454-8.875 17.446 3.34 42.425-2.137 23.466-5.145 9.071 25.4-12.514 27.928z" fill="#FFF"/>
            <g fill="#FFF">
                <path d="M381.176 138.236c13.145.704 35.025 8.603 49.865 12.032 47.909 11.068 13.087-12.532-7.03-17.707-15.703-4.038-38.431-3.82-57.038-1.495-.015 2.896 5.933 2.585 14.203 7.17z"/>
                <path d="M381.025 139.764c-4.605-15.165-51.322-13.488-67.652 8.97-5.209 7.165-7.406 14.3-10.911 29.302 6.278-3.871-4.11 2.344 21.39-13.01s57.558-12.945 57.173-25.262z"/>
            </g>
            <path d="M480.768 202.388c-5.704-1.926-13.617-.262-19.166 4.076-3.255 2.545-5.726 7.728 19.018 12.686 1.553.311 7.333 2.476 10.472 1.757 6.697-1.44-.779-15.296-10.324-18.52zm-40.417 11.813c-.938 2.332-2.045 4.718 4.544 7.377 6.589 2.659 8.995 2.956 14.335.242 1.489-1.35-.689-5.249-6.564-8.222-11.717-5.929-24.298-33.86-27.49-32.962-3.133.88-4.424 13.303 11.425 27.265.262.231 4.689 3.969 3.75 6.3zm31.924 110.541c-10.71 1.966-22.676 8.905-33.515 21.165-10.839 12.26 15.197 6.52 35.842.701 20.646-5.819 22.549 5.041 26.918 1.311 9.398-7.815-11.324-26.467-29.245-23.177z" fill="#FFF"/>
            <path d="M473.203 317.349c4.42.517 13.672 4.43 22.914 14.223-7.634-6.446-30.188-7.96-43.741 1.864 4.8-10.4 13.43-16.951 20.827-16.087z" fill="#000"/>
            <path d="M353.026 198.054c10.591-3.95 18.551-7.402 23.879-10.355 9.073-5.03 11.345-11.102 17.694-16.472 4.232-3.58 6.796-1.324 7.692 6.767-.787 21.494-5.53 33.998-14.23 37.513-8.043 3.25-24.091-.779-36.194-14.812-.6-.695-.213-1.575 1.159-2.641z" fill="#FFF"/>
            <path d="M386.28 209.4c-12.974 5.24-27.313.437-33.2-10.724 8.122-.253 16.86-2.058 25.52-5.557 9.473-3.827 17.604-9.176 23.87-15.283 4.06 12.32-2.936 26.208-16.19 31.563z" fill="#000"/>
            <path d="M452.405 186.5c-8.582.296-16.676-1.404-23.637-4.603 1.782 13.46 11.726 23.613 23.34 23.214 11.34-.39 21.39-11.607 23.441-15.97 2.051-4.365-1.257-14.225-9.787-13.078-5.853-.097-12.437-.897-19.279-2.467-7.57-1.738-17.222-13.13-20.41-6.306-3.186 6.823 7.196 11.482 17.751 13.904 5.547 1.273 14.004 5.12 8.581 5.307z" fill="#FFF"/>
            <path d="M454.09 200.06c8.742-.305 19.707-11.59 17.66-17.742-1.48-4.448-14.128-3.176-18.404-3.026-10.19.356-19.8-1.358-28.096-4.64 4.923 17.439 14.536 25.909 28.84 25.408zM393.547 204.25c-6.486 2.783-14.545 5.04-24.177 6.774 4.865.635 8.21.894 10.038.778 20.664-1.315 30.754.587 32.928 8.814 1.553 7.365-15.893 21.887-8.491 27.372 7.401 5.485 24.156 4.748 25.562 4.798-5.353-4.748-8.274-10.491-6.318-16.602 1.956-6.11 3.464-9.838 11.454-11.838-.394.59-8.372-2.65-13.233-9.344-5.489-7.558-5.565-16.581-11.14-18.74-5.574-2.159-6.893 3.815-16.623 7.988z" fill="#000"/>
            <path d="M425.91 239.291c1.046-11.954 10.129-13.82 12.803-16.255-7.563 2.259-14.438 3.517-17.823 9.392-3.593 6.233-4.583 15.66 8.756 19.236-1.384-2.53-4.363-5.2-3.735-12.373z" fill="#FFF"/>
            <path d="M390.558 173.122c8.777-10.072 5.834-16.262 1.818-17.286-4.016-1.025-3.133 9.261-9.003 15.484-5.965 6.266-9.742 7.492-15.236 10.523 4.488 1.687 13.154 1.536 22.421-8.721zm48.41-2.162c-11.451-5.155-16.192-16.724-12.247-18.418 3.944-1.694 8.36 9.119 16.322 12.208 7.973 3.031 11.802 2.13 18.246 2.16-3.58 4.19-10.813 8.934-22.321 4.05z" fill="#000"/>
        </g>
        <g>
            <path d="M68.38 452.98c12.076.614 22.992-.803 33.373-4.336 11.233-3.821 19.92-9.53 25.816-16.97 5.964-7.523 8.78-17.107 7.823-25.53 3.228.643 6.472 1.861 9.837 3.124 6.097 2.29 12.402 4.657 19.46 3.875 6.277-.695 11.953-3.789 17.698-7.171 12.538-7.381 26.89-16.304 38.546-28.83 2.485-2.673 4.922-5.686 5.909-9.612 1.135-4.52-.072-8.81-.954-11.942-2.278-8.094-5.616-16.798-13.1-19.975a14.502 14.502 0 00-1.812-.63c-2.823-.783-5.731-.635-8.297-.504-2.466.125-4.796.244-6.49-.475-.21-.09-.412-.19-.6-.305-1.721-1.032-2.918-3.363-4.196-6.076l-.902-1.919c-7.797-16.588 3.96-1.199-10.233-12.516-1.504-1.2 17.457 7.284 17.256 6.933.11-.124-19.229-9.486-18.953-9.74 2.224-2.044 4.917-3.754 7.77-5.564 4.951-3.142-13.05-38.001-6.1-45.096l.03.328c.035.379.07.756.113 1.128 1.034 9.055 6.268 15.663 11.331 22.053 1.958 2.471 3.807 4.805 5.41 7.258 1.2 1.837 2.276 3.776 3.417 5.83 1.902 3.423 3.87 6.966 6.502 10.106 4.081 4.873 9.342 8.507 17.057 11.782 3.31 1.405 6.765 2.617 10.107 3.792 3.269 1.149 6.65 2.336 9.813 3.678 2.632 1.117 4.876 2.241 6.863 3.433 1.042.625 2.061 1.298 3.14 2.01 2.313 1.528 4.705 3.107 7.434 4.266l.261.11c11.222 4.617 38.273 22.075 49.755 17.732 13.156-4.975 9.614 1.592 21.698-6.105 8.354-5.323 10.106-5.842 13.039-17.476.865-3.428-.092-5.451-1.106-6.568.82-1.193-27.597-24.498-37.718-12.354l-17.37 4.355c-1.358 1.628-12.903-6.279-14.395-5.488-3.956 2.094-12.955.31-19.414-2.431a30.934 30.934 0 01-2.031-.945 3.271 3.271 0 01-.602-.427c-.312-.301-.47-.673-.53-.813-.155-.36-16.877-36.298-34.177-57.45-6.612-8.083-14.346-18.151-34.459-18.766-20.113-.615-33.606 3.269-42.134 16.425-3.502 5.405-2.888 14.276-2.718 19.783.693 22.505 4.363 55.136 17.916 82.785 2.299 4.69 5.306 9.955 10.18 13.442a18.36 18.36 0 003.52 1.975c5.052 2.144 10.442 1.846 14.787-.82.278-.17.56-.354.844-.539.183-.119.405-.263.62-.397.024.063.047.131.073.205 2.635 7.681 2.596 18.412-3.721 23.818-5.885 5.037-13.665 2.547-16.737 1.243a28.075 28.075 0 01-7.592-4.819c-.823-.732-1.626-1.5-2.43-2.268-2.821-2.694-.666-7.652-4.542-9.297l-.212-.089c-8.569-3.509-24.667 1.092-31.161 3.57-9.804 3.742-20.641 8.64-25.141 19.463-3.006 7.23-.855 15.755.055 22.726.51 3.91.994 7.61.78 11.172-.352-.043-.71-.103-.927-.139-12.043-2.017-25.145 4.581-31.862 16.045-2.36 4.026-1.04 6.702-.363 7.665a4.998 4.998 0 002.18 1.755c.909.386 1.807.478 2.567.516z" fill="#000" stroke="#000" stroke-width="4.395"/>
            <path d="M250.861 308.996s.615.59 1.417 1.004c5.852 3.011 18.441 6.725 24.893 3.31 2.203-1.168 3.91-3.193 5.555-5.165l7.77-9.324c8.645-10.37 18.984 24.322 6.075 29.204-10.388 3.929-22.942 7.798-33.245 3.558-3.712-1.526-6.913-4.077-10.36-6.145-13.91-8.351-32.345-9.27-42.93-21.905-3.885-4.637-6.313-10.468-9.652-15.578-5.868-8.98-14.847-16.446-16.114-27.546-.208-1.809-.217-3.74-1.087-5.266-.87-1.525-3.03-2.353-4.359-1.086-.594.566-.876 1.396-1.195 2.165-3.75 9.004-14.275 12.038-21.338 18.528-.815.75-1.62 1.603-1.955 2.678-.846 2.717 1.574 4.987 3.62 6.618 14.056 11.207 21.997 28.843 29.906 45.64 1.395 2.961 2.93 6.06 5.635 7.685 4.694 2.818 10.989.2 16.264 1.66 7.147 1.977 10.247 10.473 12.362 17.991.876 3.114 1.748 6.428.932 9.678-.741 2.948-2.767 5.394-4.82 7.6-10.83 11.64-24.176 20.16-37.572 28.046-5.113 3.01-10.44 6.012-16.128 6.641-11.946 1.324-22.416-8.007-34.369-7.471 3.523 8.794.6 19.86-5.526 27.588-6.127 7.729-14.935 12.532-23.856 15.567-10.553 3.59-21.194 4.683-31.962 4.135-.736-.037-1.562-.123-1.99-.735-.581-.826-.088-2.057.457-2.988 5.781-9.868 17.35-15.693 27.717-13.956 1.686.282 3.757.593 4.89-.87.563-.728.7-1.702.77-2.616.82-10.674-4.085-21.621.067-31.606 3.842-9.24 13.773-13.62 22.675-17.017 7.257-2.77 15.265-5.55 22.16-2.726 4.41 1.806 7.65 5.652 11.24 8.846 7.983 7.103 20.65 10.884 29.293 3.488 7.792-6.67 8.334-19.184 5.082-28.664-.422-1.228-1.005-2.552-2.169-2.975-1.612-.586-3.303.825-4.853 1.776-4.476 2.745-10.143 1.812-14.187-1.083-4.044-2.894-6.744-7.43-9.007-12.046-11.728-23.928-16.655-53.633-17.498-81.075-.154-4.983-.046-10.366 2.705-14.612 6.857-10.58 20.818-12.566 31.498-13.503 8.748-.768 13.103-2.68 17.505-1.787 3.392.688 10.053 2.77 20.65 15.726 16.295 19.921 32.633 54.228 33.606 56.495.107.252.507 1.23 1.428 2.118z" fill="#000"/>
            <path d="M216.532 257.048c-8.167-9.585-10.541-13.213-12.888-15.478-6.207-5.99-30.86-5.956-33.801-4.537-2.552 1.234-2.809 2.802-.936 4.752.607.633 1.458 3.645 2.554 9.038 8.848 9.15 15.633 14.42 20.355 15.81 11.537 3.396 26.83-7.104 24.716-9.585z" fill="#C4C3C6"/>
            <path d="M173.923 253.748a33.922 33.922 0 019.702-5.375c12.731-4.542 24.656-.468 24.453-1.345-4.813-8.903-12.834-13.744-24.061-14.523-16.841-1.168-32.524 3.91-34.079 10.49-.205.87 6.388-3.747 23.985 10.753z" fill="#FFF"/>
            <path d="M341.846 330.203c.833.044-13.017-9.08-21.4-11.17-3.844-.96-7.856-.925-11.698-.131-5.815 1.202-11.727 2.21-17.248 4.945-5.416 2.683-6.493 8.704-1.99 12.147 3.29 2.517 7.559 3.327 11.177 5.27l4.593.919c21.852 3.229 24.374 1.983 31.648.9 3.273-.487 5.748-2.903 6.127-3.303.506-.533 1.334-.88 1.285-1.687-.057-.948-1.017-.899-1.67-.905-3.992-.039-16.552-.215-16.258-1.203-2.79-.45-15.688-2.013-18.513-2.268-1.015-.267 17.226-1.177 18.386-.9 1.797.081 9.156-.817 13.056-1.616 2.287-.468 1.83-1.033 2.505-.998z" fill="#C4C3C6"/>
            <path d="M320.082 319.046c-3.858-.916-7.894-.84-11.767-.011-4.705 1.007-9.472 1.891-14.057 3.638 2.57 2.1 16.936 1.095 26.647 3.355 6.346 1.476 15.152 5.609 15.972 5.64 1.63-.286 5.867-1.283 4.912-2.567-2.444-3.284-15.66-8.621-21.707-10.055zm-26.655 11.664c4.451 2.34 8.472 5.09 13.775 6.609 2.433.697 5.183.827 7.973.513 3.39-.382 6.797-.689 10.252-1.504-1.323-1.328-11.26-1.364-17.392-3.091-4.007-1.13-9.153-3.904-9.702-3.958-4.133.34-3.112.538-3.468.313-.917-.58-1.965-.39-3.033.234.68.13 1.06.603 1.595.884z" fill="#FFF"/>
            <path d="M102.355 424.266c.088 3.305.523 6.264-1.168 9.559-.903 1.76-5.568 7.15-4.924 8.008.133.177 6.953-1.178 9.37-1.915 16.002-4.88 19.771-13.512 19.771-13.512 5.663-8.981 5.372-15.37 6.172-20.97-2.46-.819-9.594-3.029-14.394-4.82-1.63-.285-17.606-3.98-15.673 10.186.032.232.733 9.216.846 13.464zm20.755-27.926c4.006 3.295 7.572 3.68 13.34 5.178 4.508 1.17 14.592-16 11.299-21.549-2.858-4.817-3.353-4.196-8.219-3.466-3.127.469-11.516 1.378-18.956 4.536-3.778 1.604-7.337 3.723-10.203 5.77.492.05 1.002.182 1.527.405 5.96 2.53 10.355 6.226 11.212 9.126z" fill="#C4C3C6"/>
            <path d="M115.39 394.512c.3.081 10.285 3.724 10.586 3.724 5.6 0 12.07-21.17 8-20.8-2.68.244-15.788 2.36-23.005 6.165-7.217 3.804-7.49 7.032-10.311 12.033 3.346-1.295 6.452-1.758 9.073-1.787 2.323-.026 4.265.288 5.658.665zm10.504 26.143c-14.295.872-21.713 3.981-22.253 9.33-.81 8.023-6.664 11.245-6.424 11.67.041.071 5.375-.522 9.427-1.616 16.451-4.444 19.266-19.835 19.25-19.384z" fill="#FFF"/>
            <path d="M172.798 271.541l-12.087-11.802c-4.693-4.757-9.098-7.877-13.213-9.36-1.764 6.934-1.516 33.755 2.378 55.743 2.777 15.676 8.989 30.042 10.466 27.792 2.331-3.55 3.054-24.178 14.572-44.958.847-1.527.141-7.332-2.116-17.415zM74.155 448.306c8.277.788 15.699-7.532 20.011-12.819 1.524-1.868.576-3.103-1.824-2.93-8.903.647-18.6 4.29-24.08 12.7-.604.927 4.334 2.902 5.893 3.05z" fill="#C4C3C6"/>
            <path d="M193.165 363.063l.005.023.002.018-.007-.041z" fill="#D796A0"/>
            <path d="M179.577 348.864c2.256-3.805 6.983-8.552 12.072-9.269 2.853-.401 3.463.795 10.326.706 1.782-.022 2.514.061 4.14.018 6.73-.182 10.822 3.145 13.092 9.54 1.405 3.957 3.289 7.696 4.103 11.923.75 4.096-.916 7.3-3.536 10.405-6.317 7.483-37.402 29.013-50.021 35.657-3.12 1.643-5.613.704-5.74.361-.748-1.998 1.417-2.363 2.52-3.256 7.31-5.912 15.01-11.22 22.169-17.382 2.838-2.442 4.67-5.078 5.674-7.892.727-2.04.39-5.61-.145-12.701-.275-3.667-.548-5.852-1.19-8.399a31.935 31.935 0 00-1.904-5.406s-1.65-3.622-4.268-5.472c-.57-.404-1.14-.679-1.523-.435-.113.072-.369.29-.437 1.147-.115 1.455.577 2.542.663 2.962.675 3.243.228 5.757-1.167 7.326-1.56 1.755-3.931 1.73-6.839 1.67-2.446-.053-5.632-.665-5.623-1.553.005-.45.828-.814 1.24-1.024 3.343-1.697 4.583-5.87 6.394-8.926z" fill="#C4C3C6"/>
            <path d="M189.092 345.762c5.445-.46 9.536 17.738 9.812 21.405.374 4.966 18.227 8.15 20.87 5.02 2.62-3.105 4.285-6.31 3.536-10.405-.814-4.227-2.698-7.966-4.103-11.924-2.27-6.394-6.362-9.721-13.092-9.54-1.626.044-2.358-.04-4.14-.017-6.863.089-7.473-1.107-10.326-.706a9.84 9.84 0 00-.08.012c-2.173 2.162-2.977 2.417-4.256 5.4l1.779.755z" fill="#FFF"/>
            <path d="M255.06 308.328c-1.56.886-9.103 8.133-8.847 10.775.394 4.065 9.47 3.755 11.028 3.448.99 1.413-1.943 2.27-.73 3.564 1.106 1.18 2.507.363 3.607-.341 2.27-1.458 4.535-2.982 6.614-4.738 1.933-1.632 3.623-3.6 6.11-6.118-3.816-.288-14.357-8.534-17.782-6.59z" fill="#C4C3C6"/>
            <path d="M255.889 308.062l-.036.047c-1.409 1.741-2.448 3.421-2.35 4.43.393 4.065 9.47 3.755 11.027 3.448.99 1.413-1.943 2.27-.73 3.564 1.106 1.18 2.507.363 3.607-.341 1.231-.79 2.46-1.6 3.659-2.456.55-.578 1.137-1.189 1.776-1.836-3.546-.267-12.9-7.407-16.953-6.856z" fill="#FFF"/>
            <path d="M277.716 332.22c1.894-1.443 5.26-1.345 5.07-5.287-2.307-.172-2.505 3.175-5.124 2.709.455-1.925 3.5-5.049-1.187-5.583-1.2-.138-.878-2.189.21-3.475 1.2-1.42 2.24-2.99 2.982-4.927-2.788 2.49-1.827-.576-4.61 1.92-2.162 1.938-8.072 9.43-10.207 11.403-.546.505.267 1.133.849 1.414 4.324-1.035 7.913 1.723 12.017 1.827z" fill="#C4C3C6"/>
            <path d="M167.987 490.838c18.943 2 35.885-8.051 37.841-22.45 1.956-14.399-11.814-27.692-30.757-29.691-18.943-2-35.885 8.051-37.841 22.45-1.956 14.399 11.814 27.692 30.757 29.691z" fill="#000"/>
            <path d="M166.063 480.776c16.857 4.355 33.377-2.449 36.898-15.196 3.52-12.747-7.29-26.61-24.148-30.965-16.858-4.354-33.378 2.45-36.899 15.196-3.52 12.747 7.291 26.61 24.149 30.965z" fill="#C4C3C6"/>
            <path d="M303.576 442.236c31.973-24.482 47.564-41.875 59.825-61.049 22.84-35.719 31.43-61.502 25.775-77.351-1.053-20.905-9.586-37.172-25.6-48.8-10.042-7.292-28.442-15.825-55.2-25.6-24.771-7.667-44.13-8.537-58.077-2.612-40.673 17.283-67.369 41.834-66.385 70.393.133 3.858-25.763 17.617-28.138 44.453-3.753 42.409 3.355 79.829-11.037 100.958-7.123 10.457-9.525 17.39-7.542 23.76 1.167 3.749 2.242 2.287 6.379 6.248 35.672-15.796 56.707 23.425 99.2 16 42.492-7.425 28.827-21.919 60.8-46.4z" fill="#000"/>
            <path d="M331.953 249.951c46.494 18.27 60.266 40.026 41.316 65.267-28.426 37.862 17.098 9.586-13.445 57.345-10.931 17.091-12.596.94-53.908 34.825-41.312 33.886-37.5 75.863-76.616 72.236-10.764-.998-34.185-7.75-52.493-16.104-18.308-8.353-29.556 4.448-31.323 1.271-6.024-10.833 22.215-34.098 20.195-46.58-4.537-28.037-1.142-57.402.45-75.371 2.117-23.921 25.204-36.185 25.085-39.624-.67-19.452 17.948-39.37 42.947-54.558 8.204-4.984 26.783-4.932 42.494-7.711 33.17 4.38 51.602 7.381 55.298 9.004z" fill="#C4C3C6"/>
            <path d="M227.738 447.683c-13.085-1.299-28.425-9.523-30.2-11.736 16.413-1.31 54.377-26.117 65.04-27.725-27.34 14.227-21.755 40.759-34.84 39.46z" fill="#000"/>
            <path d="M192.473 436.18c11.61 5.028 24.865 5.745 38.105-6.235 6.332-5.73 41.815-27.587 47.582-28.091-26.215-10.042-25.565 11.945-78.298 1.45-2.614-.52-8.84 6.503-16.822 8.888-2.13.636 4.397-24.578-2.604-20.18-7 4.398-10.456 34.425 12.037 44.167z" fill="#FFF"/>
            <path d="M183.75 396.77c9.333 4.753 39.313 5.216 53.032 5.793 8.048.338 35.219-1.465 40.504.04-19.692-10.632-17.067-1.512-60.092-19.914-2.7-1.155-5.702-1.362-12.089-.707-.862.089-2.108-3.261-5.591-4.3-8.578-2.558-18.906.158-24.39-1.502-3.458-1.047 1.003 4.33 2.641 6.97 2.996 4.827 6.825 9.638 5.905 10.984-2.473 3.617-7.427-1.186.08 2.637z" fill="#FFF"/>
            <path d="M191.625 425.689c10.752 6.062 23.489 3.598 37.09-3.563 7.98-4.2 44.378-20.642 50.231-20.234-26.546-8.092-22.435 2.302-56.57-7.023-2.527-.69-16.793-5.931-18.496-11.964-.837 2.744-.728 5.288.673 6.504-5.3-.048-7.881.422-16.373-3.313-8.491-3.735-9.085-7.126-16.27-13.015 3.661 6.853 4.476 19.49 4.364 26.267-.19 11.539-.233 17.554 15.35 26.34z" fill="#000"/>
            <path d="M279.9 398.638c-2.342-6.67-8.506-7.124-13.259-7.288 4.313 3.815 5.746 4.989 6.668 9.657.923 4.668-.918 6.923-2.64 10.724 5.163-2.15 11.571-6.423 9.23-13.093zm62.72-68.608c12.841.291 14.687 5.941 40.088-24.165 7.336-8.695 5.033 7.447-1.564 27.431-7.342 22.239-24.702 56.343-34.174 65.124-6.436 5.967-75.161 38.053-28.208-5.257 46.954-43.31 26.101-52.432 23.859-63.133zm-129.631 37.206c-6.517-4.27-9.242 8.615-7.94 14.28 4.763-2.41 14.456-10.01 7.94-14.28z" fill="#000"/>
            <path d="M214.57 359.559c5.528-10.16 18.25 5.374 20.349 12.572-8.502.378-25.879-2.412-20.35-12.572zm-18.453-4.125c3.96-7.37 12.116 3.61 13.458 9.693-5.346.085-17.418-2.325-13.458-9.693z" fill="#000"/>
            <path d="M185.17 354.162c1.233 2.715 6.589 7.36 17.697 9.838-7.568-2.65-15.914-9.485-8.53-22.002-10.353 1.716-11.231 7.62-9.167 12.164z" fill="#000"/>
            <path d="M192.86 354.51a3.684 3.684 0 01-.494-.134c-2.335-.811-3.66-3.83-2.96-6.743.684-2.84 3.041-4.531 5.323-3.86a16.893 16.893 0 00-1.542 4.092c-.564 2.346-.647 4.66-.327 6.646zm94.046-24.889c10.447 1.527 22.803 3.894 31.273 12.724 8.47 8.83-1.468 18.104-7.965 21.593-11.997 6.442-16.777-8.133-43.588-9.36-25.186-1.154-2.289-28.255 20.28-24.957z" fill="#FFF"/>
            <path d="M312.987 243.914c7.025-12.533-64.621-13.81-88.003.709-13.974 8.676-22.92 21.453-13.905 25.852 8.651 4.22 62.339-30.697 68.104-24.852.11.111-.46 1.171-1.71 3.18-.395.635-1.139 1.8-2.233 3.494-4.9 7.697-6.766 14.858-5.602 21.482 2.744-2.17 29.192-23.093 43.349-29.865z" fill="#000"/>
            <path d="M269.836 265.206c-1.164-6.625-7.646-9.941-13.193-8.844-6.415 1.269-13.058 2.946-19.783 5.168-40.484 13.375-9.723-12.9 7.298-19.067 13.284-4.813 32.283-5.447 47.755-3.723-.097 3.025-15.846 13.41-22.077 26.466zm99.316 7.196c8.267-10.172-48.67-39.206-76.344-22.14-11.928 7.355-42.708 37.125-6.81 21.049 35.899-16.077 78.265 13.576 83.154 1.091zm-178.055 43.044c6.141-1.495 14.262.97 19.665 6.02 3.17 2.961 5.277 8.614-21.047 11.546-1.653.184-7.894 1.923-11.111.883-6.87-2.118 2.218-15.945 12.493-18.449z" fill="#FFF"/>
            <path d="M229.545 334.33c1.116 2.546 3.63 7.106-1.17 8.706-4.8 1.6-11.74 1.754-18.4-1.6-6.657-3.354-3.447-6.287 4.051-8.879 5.597-1.935 15.213-10.842 28.848-26.723 6.522-11.399 10.74-18.121 12.654-20.168 3.622-3.871-.669 29.113-21.069 42.369-.338.22-6.03 3.75-4.914 6.296zm-49.053 106.072c9.582 2.636 19.853 10.092 28.611 22.53 8.758 12.437-14.447 5.116-32.732-1.896s-21.014 3.183-24.654-.677c-7.852-8.107 12.741-24.368 28.775-19.957z" fill="#FFF"/>
            <path d="M278.189 457.752c3.945-2.707 5.779-8.466 5.853-13.825.044-3.144-1.195-11.055-.02-12.844-4.159 5.167-6.724 12.49-13.262 17.128-6.702 4.755-17.37 6.769-20.883 7.356 6.951 4.768 21.71 6.716 28.312 2.185zM164.428 407.65c.06-2.752-13.293 27.088-14.208 30.86-.536 2.213.571 9.198-.624 10.432 8.495-13.571 19.455-16.688 25.017-17.357-4.622-3.505-10.395-14.524-10.185-23.934z" fill="#000"/>
            <path d="M298.527 297.523c14.542 2.564 24.273 16.746 22.237 32.025-7.248-4.825-16.016-8.4-25.738-10.115-10.018-1.766-19.762-1.329-28.416.896 3.184-15.23 17.273-25.388 31.917-22.806z" fill="#FFF"/>
            <path d="M295.226 315.252c14.518 2.56 25.699 9.24 26.448 15.463-7.668-2.668-16.56-4.982-26.137-6.67-11.14-1.965-21.695-2.817-30.728-2.67 2.155-6.04 15.356-8.778 30.417-6.123zm-80.824-11.512c10.441 1.097 18.562 6.33 18.918 11.96-5.525-1.803-11.964-3.177-18.895-3.905-7.669-.806-14.912-.714-21.11.109 1.179-5.662 10.394-9.288 21.087-8.164z" fill="#FFF"/>
            <path d="M226.717 285.212c10.928 2.724 17.558 14.695 15.991 27.768-5.46-4.297-12.102-7.618-19.573-9.48-8.27-2.063-16.484-2.07-23.907-.374 4.53-12.814 16.296-20.705 27.49-17.914z" fill="#FFF"/>
            <path d="M228.076 290.943c8.488 2.118 16.906 15.292 13.645 20.802-2.357 3.984-14.468.118-18.62-.918-9.894-2.468-19.646-2.818-28.431-1.38 8.38-15.802 19.516-21.97 33.406-18.504zm68.917 12.407c14.455 2.548 24.7 13.89 23.937 25.939-7.411-4.033-16.214-7.138-25.865-8.84-10.554-1.86-20.73-1.798-29.645-.152 3.026-12.028 16.804-19.552 31.573-16.948z" fill="#000"/>
            <path d="M198.009 314.747c15.252 2.89 21.026 2.548 27.027.812 6.001-1.736 11.888-2.775 16.492-9.086 1.977 5.403-2.593 8.892-15.588 19.433-12.995 10.54-25.734 8.82-31.72 18.417-.042-1.098.264-7.975 12.948-15.628 12.685-7.653-1.284-5.272-9.159-13.948zm84.108 10.615c11.542 4.22 19.76 7.32 24.656 9.3-27.106-5.451-42.373-3.411-45.801 6.12-1.533 5.048 1.83 9.667 10.092 13.857 9.756 10.228 8.003 14.807-5.259 13.737-19.892-1.605-24.16 4.61-25.634 4.534 6.033-4.483 7.29-11.297 5.805-17.874-1.484-6.577-4.63-9.176-12.8-12 .358.654 13.232-2.386 18.928-8.95 6.432-7.414 15.867-21.466 16.788-20.9.782.481-4.088 5.846 13.225 12.176z" fill="#000"/>
            <path d="M245.176 360.636c0-12-8.885-14.652-11.337-17.31 7.337 2.91 14.076 4.763 16.937 10.91 3.036 6.523 3.2 16-10.4 18.4 1.6-2.4 4.8-4.8 4.8-12z" fill="#FFF"/>
            <path d="M305.52 287.11c-13.497-1.157-18.774 4.368-22.514 8.722 9.878-2.113 12.993-2.862 21.92-1.384 8.926 1.479 11.578 4.327 17.05 7.84-.056-5.897-2.961-14.02-16.457-15.177zm-66.201-10.503c-9.86-4.87-16.243-1.406-20.952 1.442 8.469.906 11.174 1.117 17.395 4.977 6.22 3.86 7.05 7.17 9.762 11.877 2.45-5.31 3.655-13.427-6.205-18.296z" fill="#000"/>
            <path d="M339.452 380.41c-7.879 8.241-22.068 20.138-35.093 26.452 10.522-14.04 9.655-17.154 25.84-32.64 16.186-15.484 6.12-30.044 16.017-34.042 7.645 15.711 6.42 26.441-6.764 40.23z" fill="#FFF"/>
        </g>
    </g>
</svg>
