<svg viewBox="0 0 685 474" xmlns="http://www.w3.org/2000/svg">
  <g fill="none" fill-rule="evenodd">
    <path d="M529.276625 90.4102163c10.496158-7.1513888 43.27011-7.7363544 52.684305-6.2715873 14.211733 2.2107642 30.137225 5.6765668 39.246603 18.894095 6.085385 8.829489 5.621907 20.869248 6.381754 30.470367.425779 5.384861.828888 10.483139 2.128968 15.193902.458659-.158432.92146-.340989 1.202144-.450857 15.579258-6.145469 35.025571-1.048546 47.290455 12.393274 4.307916 4.721847 3.298168 8.685149 2.6641 10.169154-.511835 1.205622-1.328376 2.207176-2.423951 2.974306-1.109691.777014-2.288736 1.156865-3.296411 1.425566-16.020024 4.274997-31.063471 5.496062-45.989111 3.72858-16.150897-1.908891-29.422303-7.077454-39.443667-15.36011-10.13621-8.377344-16.636264-20.415066-17.745106-31.977449-4.146372 1.785471-8.150403 4.345036-12.304918 6.999359-7.526784 4.810436-15.310782 9.785056-24.998069 10.754285-8.61604.862959-17.107661-1.65992-25.77302-4.551091-18.913205-6.306827-40.69636-14.161051-59.886499-27.61605-4.092494-2.870462-8.217061-6.211948-10.654794-11.190904-2.807512-5.73353-2.406855-11.826186-2.113565-16.2765501.755657-11.4971375 2.759569-24.1141683 11.895518-30.5112286.715544-.5010296 1.473017-.9606675 2.250701-1.3637079 3.563676-1.855025 7.505945-2.4876249 10.983835-3.0462256 3.342837-.5365548 6.50124-1.0430166 8.569695-2.4913646.25625-.1794279.497607-.3731908.716982-.579861 1.607572-1.4952059 2.532613-4.0019136 3.320042-6.9857043 11.612278 4.6418373 30.043615 19.8651048 55.294009 45.6698024z" stroke="#000" stroke-width="5.49376223" fill="#000"/>
    <path d="M454.14401518 61.29633222c6.7185645-3.33907404 46.38051836 22.37929392 39.63560434 19.8548918-2.33609856-.874422-4.98200806-2.33043419-6.99949043-1.12217563-1.45561958.87359702-1.89315686 2.80463558-2.13954818 4.56674214-1.89195803 13.59422419 2.11953596 30.27950851 14.35725691 37.2152318 13.57442677 7.69118288 29.63442265-.6973103 38.51763392-12.32988232 3.99556053-5.23094083 7.34949935-11.24835396 12.81145285-14.82688486 8.54261567-5.59541553 20.05130872-3.94507655 30.54707042-2.11436618 12.87301826 2.24558898 27.39095446 5.54433573 34.98518415 16.96723704 8.2073291 12.34222106 4.47444932 28.3405143 8.37635795 42.47892006.33554874 1.21112344.77453689 2.48545782 1.723913 3.31818286 1.908829 1.67090397 4.61454371.71247478 6.81003811-.10691136 13.50074922-5.03914363 30.6013092-.22428365 40.97106426 11.53585858.97781768 1.1090322 1.96424489 2.6353514 1.39982033 3.89832745-.41701304.93468262-1.5056078 1.26565828-2.48697718 1.50694277-14.351543 3.5456163-28.96294655 4.8518496-44.10982605 2.77735812-12.80615-1.7538971-25.92157492-5.91495238-36.1961086-14.7094465-10.27290864-8.79208959-17.10917175-22.90902561-14.67307316-35.65288125-16.2306152 2.39664124-27.8779354 17.67386472-44.30709133 19.01013042-7.82128039.63754862-15.77987984-2.00836273-23.45235096-4.72283064-20.1004357-7.10944607-40.30071089-15.0834941-57.93139286-27.91038612-3.34090985-2.43031922-6.71016152-5.19120875-8.48098345-8.96207639-1.95021876-4.15706014-1.64546002-8.83964188-1.28212333-13.25572066.87592852-10.65997278 2.8211193-22.8931684 11.9235693-27.41626113z" fill="#000"/>
    <path d="M610.55441644 105.75904843c.4753477.51906681 1.05630153.90582623 1.13881276 1.6667102l-.05443541-.11369498c8.08131103 12.6998149 7.1537427 26.93133794 9.43886516 40.57632377.74886788 4.46781332.93803256 8.55903059 4.07932398 12.54862683 1.6765866 2.13149963 9.37016864 8.16118887 8.7277014 9.48371406-.13226654.27264092-9.66864622.22948886-13.11485716-.13110614-22.8213557-2.38791988-30.15875833-13.01052802-30.15875833-13.01052802-9.97727405-10.59959602-8.32377677-21.15117165-7.29504775-23.08394257 4.85673384-9.12481015 27.75005648-17.13430413 28.39629586-18.44888016.48211285-.98026887-7.72614205-7.14187728-17.04856126-7.75133985-3.15285844-.44153474-4.6362593 1.9665307-5.75368424 3.82568914-5.62391017 9.35727536-8.2229388 9.90793762-17.27259895 14.22764467-5.76075889 2.7482668-26.25998752-17.05930047-23.28109744-25.3801366 2.58426179-7.22290432 3.41273506-6.51688877 10.15458928-6.8051601 4.33326985-.1845817 15.86383078-1.15011571 26.70711952 1.15598335 11.71642844 2.4917957 22.71514951 8.37640229 25.33633258 11.2400964z" fill="#C4C3C6"/>
    <path d="M602.60768391 115.71341378c-9.17689996 6.17989948-13.7346162 6.35573206-16.2155764 2.6834928-2.48096021-3.67223928 2.9471702-11.65897517 12.12407017-17.83887465 9.176899-6.17989975 18.65620299 13.11738365 21.13716442 16.78962221 1.10086296 1.6294629 2.93687926 24.90220329-.96665444 12.21763835-3.90353396-12.68456397-10.97411995-17.28960526-16.07900375-13.85187871z" fill="#000"/>
    <path d="M598.61713249 109.08605048c-13.62482211 6.70151825-17.31799709 12.22586477-25.6015327 16.29486584-5.27305855 2.58877955-1.9296918-32.1477148 2.96417552-32.53419265 3.14547378-.24790049 15.6570901-1.06557343 24.9314415 2.08918462 9.27435142 3.15475795 10.41405207 7.01940286 14.93718791 12.52070696-7.88543123-1.6852327-14.02761266.05367978-17.23127223 1.62943523z" fill="#FFF"/>
    <path d="M665.34343302 172.85780295c-10.93561317 3.21732576-23.108196-6.03283924-30.29974871-12.01702213-2.54078466-2.11422803-1.5892212-4.0225332 1.68692578-4.4157847 12.1549397-1.45273381 26.16285002.91789022 35.74708212 10.79613815 1.05504474 1.08849422-5.07527698 5.03159304-7.1342592 5.63666868z" fill="#C4C3C6"/>
    <path d="M482.93015254 88.33945407l-.28671598 1.94136164c-.01028552-.31094291.02862913-.54906166.04294367-.8235924.08125713-.3725899.16251423-.7451797.2437723-1.11776924z" fill="#D796A0"/>
    <path d="M497.3543412 66.64582595c3.23994248 3.63644373 6.00354373 8.92410786 10.94732618 10.3344633.6102953.17468966 1.81336548.44845403 1.93877772 1.05282256.24437727 1.19209805-3.88374893 2.8461638-7.16288274 3.55436912-3.89809973.84005876-7.08390846 1.49241002-9.64357121-.46050129-2.28936584-1.74681661-3.55059505-5.00944026-3.49285684-9.54665205.0064964-.58655281.65362297-2.2286548.11716529-4.1558958-.3172146-1.13430686-.71913393-1.36015865-.88924584-1.42742386-.5795823-.22859015-1.2744686.29006032-1.93665587.98249695-3.03830056 3.17019555-4.30979805 8.47057928-4.30979805 8.47057928-.9039119 3.7626128-1.0953445 6.79367525-1.14686108 7.76544762-.19611254 3.5919156.00952485 6.60034388.60026557 11.60297142 1.14029326 9.67459443 1.62138919 14.56224487 3.135704 17.11596426 2.08853364 3.52194877 5.24657023 6.58766556 9.70746341 9.13091375 11.25254625 6.4190677 23.00929495 11.5475303 34.40056505 17.58995664 1.7180482.91300032 4.7284849.83854466 4.24640478 3.72092383-.08228385.49342233-3.19200008 2.4068759-7.82203113 1.01186483-18.72916926-5.6430303-66.21956876-26.48336535-76.685753-34.8979947-4.34065332-3.49136927-7.42287658-7.36514506-7.48778106-13.06804104-.01273633-5.89537235 1.54237119-11.41471702 2.39720508-17.1023554 1.37889725-9.18920966 6.01488293-14.73079294 15.12257381-16.24162784 2.19975552-.36595323 3.16350653-.66880183 5.56738853-1.1040353 9.26187046-1.67060688 9.77017158-3.43775726 13.71583407-3.64200152 7.03896847-.36422528 14.64656942 4.78557647 18.68076334 9.31375524z" fill="#C4C3C6"/>
    <path d="M483.74418468 64.92972474c-7.44834754.80903728-8.21242711 26.3557245-7.62730917 31.35957752.79095437 6.77696555-22.40793646 15.74401353-26.78160297 12.2267122-4.33527182-3.48798512-7.41216668-7.35987868-7.4708882-13.06482734-.00636346-5.89755427 1.5541287-11.4206319 2.41478801-17.11131075 1.38831168-9.194119 6.02856239-14.74276787 15.1345048-16.26399263 2.19933474-.36846295 3.16305502-.67246418 5.56651587-1.11045325 9.26023734-1.68122249 9.7702593-3.44957918 13.71467798-3.65815682.03663863-.0019365.07329212-.00372368.10995966-.00536236 3.48871594 2.33822118 4.63738386 2.46886841 7.13716743 6.14536945l-2.19781341 1.48244398z" fill="#FFF"/>
    <path d="M398.73765391 316.60194055c48.83185585-18.45128447 22.2373034-58.53024816 27.69224388-65.29374068 8.2344532-10.21042162 18.24312473-21.20178327 32.84802923-22.37041055 9.75636354-.78081334 19.06073954 5.0700351 26.9960762 8.84430518 4.45041657 2.11713397 8.66397738 4.12160256 12.98068889 5.24153002.08413975-.43420454.15110311-.88267133.19238756-1.15427304 2.25410893-15.09672915 15.1591-28.1240441 31.38164797-31.68119033 5.69843556-1.24916282 8.3700229 1.35343266 9.2535167 2.52999126.71926136.95325165 1.13814592 2.05404632 1.24437848 3.2682901.10760135 1.22988902-.130363 2.33358187-.37795437 3.25137335-3.9336793 14.59249258-9.83534303 27.02285977-18.04530723 37.9987308-8.88101455 11.87856776-19.02401771 19.99927216-30.1448032 24.1359527-11.24804873 4.18419346-23.72940413 3.8307219-33.37417803-.56158332-.48146903 4.08622652-.28613858 8.4127591-.08460473 12.9012407.1463978 3.24975389 17.85759404-1.35398419 20.19178387 2.2062922 3.5071492 5.34936003-8.17140767 18.92505244-10.36637002 23.78105085-3.25083362 7.19394686-15.16881088 18.0282214-21.4093308 23.55080806-13.61792742 12.0553193-36.038671 25.01883355-55.43275168 34.03621126-4.13681291 1.92257227-8.66055167 3.6558732-13.70853272 3.31173349-5.8131667-.39603187-10.44577152-3.4879412-13.82935712-5.74691615-8.74213281-5.83426632-18.2181605-19.14938353-19.1040288-29.27490459-.06938284-.79304948-.08691213-1.60033657-.05048216-2.39779301.16051576-3.6579806 1.4600205-7.05788556 2.60604097-10.0575352 1.10179875-2.8830065 2.14319452-5.60672509 1.94262652-7.8992278-.02484727-.28400565-.06782222-.56278738-.13103323-.83009768-.44797895-1.95006645-2.00697469-3.8222125-4.00585948-5.80308693 8.96936225-7.05108625 26.54775332-7.71333654 52.7351733-1.98675069z" fill="#000" stroke="#000" stroke-width="5.49376223"/>
    <path d="M350.87219429 343.29826462c.30201888-6.83531115 38.33999118-27.0720416 33.34704075-22.81180939-1.72938283 1.47548772-4.05970392 2.94049376-3.98632947 5.084058.05440363 1.5473999 1.40224696 2.75124008 2.69968057 3.72787896 10.0133139 7.52743795 25.10022656 11.71645859 36.03906791 5.02978187 12.13198338-7.4179895 12.52928362-23.93716982 7.1685999-36.17041454-2.41017397-5.50181225-5.73130867-10.84025455-6.17527208-16.77965329-.69318242-9.28869077 5.70578688-17.7342271 11.80141495-25.29226008 7.4764523-9.26980381 16.51971943-19.38485902 28.98907349-20.38241377 13.473736-1.07936403 24.59269395 8.9803132 37.59870274 12.12906276 1.11469497.2686897 2.3255118.48289033 3.40928044.09461758 2.17633735-.78216588 2.60624313-3.36386419 2.92181084-5.47718705 1.94012362-12.9956717 13.33372868-24.49866358 27.29781248-27.55991404 1.3168317-.28861303 2.97047545-.39933474 3.72914903.60988782.5617727.7463331.34521132 1.76084506.10441988 2.65015107-3.50770843 13.01276667-8.91728481 25.24122738-17.26126971 36.39980368-7.05453444 9.43418618-16.16664773 18.04918458-27.72197363 22.3475706-11.5526913 4.29815545-25.83729758 3.49856071-34.93170364-4.08623202-5.25438614 14.00229305 1.79432368 30.05313755-4.39395583 43.74424408-2.94487719 6.51842482-8.57072728 11.69256803-14.12494145 16.60821643-14.54944447 12.8789429-29.83296215 25.4546836-47.85458708 33.8329834-3.41475075 1.58777201-7.10582526 3.05177914-10.89708039 2.79413552-4.17866958-.28559312-7.78098914-2.60182689-11.14476225-4.84677086-8.12031064-5.41817032-17.0239609-12.3854489-16.61417745-21.64573673z" fill="#000"/>
    <path d="M455.42190865 238.27359846c.6241373-.1491893 1.18932141-.44116136 1.83297228-.17006492l-.11477015-.00693559c13.70346555-.82055928 24.65121788 6.22010883 36.54952734 10.4395087 3.8961786 1.38105535 7.24466849 3.04163847 11.81564074 2.30340757 2.44136082-.3930594 10.65057973-3.85770763 11.42231385-2.75989327.15917297.22617383-4.08627288 7.81071524-5.8957976 10.39882938-11.98295573 17.13889804-23.7002351 18.28601212-23.7002351 18.28601212-12.86461099 3.26215273-20.55506267-2.7280033-21.64323497-4.4039859-5.1373712-7.91248573-1.42020029-29.71228203-2.18392335-30.80958488-.56940798-.8184227-9.11116976 2.99818203-13.714076 10.16138868-1.74458014 2.31837834-.4778754 4.5673239.51238453 6.28143502 4.984124 8.62710288 3.72308877 13.16117886 3.17430568 22.28932557-.35056687 5.8100397-24.65690482 11.16680417-29.98187719 5.10754452-4.623035-5.25849392-3.69377293-5.606469-.94680379-11.10958851 1.76615163-3.53677356 6.0872017-13.15793784 12.71566936-20.78258403 7.16221543-8.23861003 16.71511471-14.40278244 20.15790437-15.22481446z" fill="#C4C3C6"/>
    <path d="M459.8568385 249.01712487c.87954185 10.05320865-.99270176 13.76506681-5.01882593 14.11730666-4.02612346.35224054-8.0029507-7.5119487-8.88249283-17.56515764-.87954137-10.05320959 18.70629147-9.06736295 22.73241492-9.4196035 1.78649053-.15629803 21.16983138 8.68393153 9.32333068 6.1801734-11.84650071-2.50375814-18.64369428 1.0949286-18.15442684 6.68728108z" fill="#000"/>
    <path d="M452.80400755 250.8798592c-.89507808 15.01818267 2.05082835 20.83422754 1.50204667 29.96237423-.35056687 5.81003969-28.5883347-13.45088927-26.52920283-17.89417297 1.32391592-2.85562918 6.73480418-14.13508872 13.97982267-20.72593948 7.24501855-6.59085069 11.12534715-5.7642556 18.06649979-7.11347918-5.30258064 6.07310756-6.80870356 12.23993178-7.0191663 15.7712174z" fill="#FFF"/>
    <path d="M533.16283795 224.29700669c-2.26131468 10.14378715-15.0184132 15.75379613-22.9696341 18.83830896-2.80918342 1.08975789-3.9119046-.51386601-2.77907747-3.30015165 4.2079542-10.33471162 12.28532711-20.4540395 24.40071507-23.72218807 1.33454302-.35928295 1.77431218 6.27444054 1.3479965 8.18403076z" fill="#C4C3C6"/>
    <path d="M385.85324443 332.8512368l.04600146.02507896c-.00822048-.00291896-.0138063-.00606856-.02070912-.00910246a3046.69341918 3046.69341918 0 0 0-.02529234-.0159765z" fill="#D796A0"/>
    <path d="M373.73353513 304.23092258c4.3327038-.97324859 9.7728096-.83560802 13.08137299-4.15299384.40889983-.4092625 1.646914 5.73565205 2.1846034 5.90324481 1.0592542.33295863.5563968 4.35678727-.32640372 7.28490307-1.05089447 3.48001524-2.42535439-.67395857-5.11413668.50227618-2.4049537 1.05196777-5.56558692.61303874-9.1609734-1.4418744-.46522465-.26487955-1.48993602-1.50790355-3.26483875-1.93346687-1.04529724-.24929592-1.40301325-.02883033-1.53181016.07702263-.4383523.360909-.33129142 1.14459904-.07110213 1.97916105 1.18831442 3.82615276 4.85678 7.1867323 4.85678 7.1867323 2.60357661 2.38663548 4.93795802 3.88129083 5.6907232 4.35262488 2.77989982 1.74670813 10.72817455 8.20465758 17.50185293 4.72366958 6.7736791-3.4809873 14.61221453-8.44745524 16.47029389-8.1688081 18.23517834 2.73463984 35.34075428 3.40364843 37.42813759 5.06421592.35743634.28407319.51128367 3.6107379-2.64648909 6.68475344-12.77366957 12.43485472-50.79414025 35.08783706-62.13094745 39.70721942-4.70297215 1.91511123-9.15543227 2.65752477-13.7352379.18428525-4.71037334-2.60005502-8.4283445-6.2837123-12.58984256-9.48353241-6.72448386-5.16801392-9.86709011-22.29119928-7.0510868-30.22197056.67930714-1.91596017.86318815-2.81847636 1.57734396-4.92786749 2.75657997-8.12444292 1.5707738-9.31214361 3.15007687-12.54857097 2.8175526-5.77364744 10.2866194-9.55931581 15.68168381-10.77102389z" fill="#C4C3C6"/>
    <path d="M419.5875313 325.62530762c-16.2087963 8.74105252-25.52548264 14.0487051-27.95005909 15.92295781-1.34889685 1.04225793-3.81190505 7.3233941-7.38902457 18.84340853-.44963798-11.4753753-1.81245716-21.11490345-4.0884575-28.91858452-1.980302-6.78982556-.38054436-6.37063697 3.47748201-4.924824 2.79313305 1.04673931 6.20836647 3.1349898 13.00000022 1.0000001 16.17260541-5.08395335 24.98682319-15.98593047 26.9999998-12.9999995.01869912.02773446 3.98152038 4.97210005 4.00000032 4.99999959.01847922.02789884 12.70124643 7.31599467 10.9999999 11.00000028l-19.04994108-4.9229583z" fill="#FFF"/>
    <path d="M511.89439252 349.55506617c22.51707182 2.80755625 42.08256326-9.35764263 43.70074823-27.17173227 1.61818497-17.81408953-15.32371021-34.53123655-37.84078213-37.33879284-22.51707183-2.80755629-42.08256327 9.35764264-43.70074825 27.17173218-1.61818498 17.81408963 15.32371022 34.53123668 37.84078215 37.33879293z" fill="#000"/>
    <path d="M512.25629816 337.93862302c20.59910661 2.43849451 38.5797417-9.14642278 40.16087253-25.8756371 1.58113082-16.7292143-13.8359847-32.26771247-34.4350913-34.706207-20.59910673-2.43849453-38.57974179 9.1464228-40.1608726 25.87563711-1.58113081 16.72921432 13.83598475 32.26771247 34.43509137 34.70620699z" fill="#C4C3C6"/>
    <path d="M358.27344318 260.62864592c30.54981907 36.92225266 43.13024429 86.30330926 82.49372065 78.02582444 39.3634759-8.27748386 64.06786368-28.33032983 101.23619632-.4821987 15.8202461-9.3971838 18.58259561-18.18480573 9.90020332-40.46030483-11.04356582-28.3333144 7.22797463-69.78876512 14.23032989-119.93078305 4.43114182-31.73023714-21.93674877-54.60170947-20.7492175-59.03638145 8.79082893-32.82813648-18.50503982-65.86742357-61.08058531-96.77665558-21.8977395-15.89744333-53.95913502-10.90795779-75.76079912-16.75331427C344.35288057-11.99558917 276.1747784 20.53255344 292.83992746 68.1785149c30.36369451 86.81035376-3.65982767 28.58101991 21.74969832 99.82855502 9.09350219 25.49790313 13.13399734 55.6993233 43.6838174 92.62157601z" fill="#000"/>
    <path d="M381.240491 15.95257248c-20.11349559-3.32683825-89.97991567 12.7769964-67.1314271 64.2536805 22.84848859 51.4766838-2.71638866 21.47213932 19.94018118 84.98207473 8.10828018 22.72878961 12.58184049 19.53986436 43.78795118 67.10898082 31.20610964 47.56911741 15.47463299 90.14012162 62.21142516 86.87196644 19.95128148-1.39512958 42.73204877-7.26272167 63.70458674-6.45954212 20.97253791.80317856 38.44814194 13.69148198 41.34960438 10.48277237 9.89210797-10.93962245-16.64943713-45.45357376-10.96212747-59.37508692 12.775321-31.27169313 16.6994162-66.20487657 19.66598757-87.45141086 3.94912859-28.28359225-19.55974382-48.67198215-18.50121284-52.62492029 5.98746047-22.35934433-10.2849499-50.42051905-35.22987495-74.70780814-8.185641-7.96983874-29.76233551-12.88174858-47.25192793-20.30564001-59.501937-5.70258697-51.46967034-9.44822828-71.58316592-12.77506652z" fill="#C4C3C6"/>
    <path d="M497.42070852 193.10705746c-1.38845585-.1646057-1.21638625-14.9903405-3.94274245-12.9358837-4.51776473 3.4043799-8.68590567 2.28648788-11.4496412 2.43016815-1.4951617.07773-3.49331909 10.03944705-5.0539685 10.20981028-14.60474881 1.59428011-27.88274947 7.85161328-34.03271966 23.36653268-4.23744413 10.69006882-17.36200153 54.87019854-23.31903647 58.12970185 11.99598526 1.11362175 16.0232038 5.22443733 54.67625638-7.96683463 20.18178206-6.8875123 4.12336716-12.32051484 8.72507045-18.97032276 9.8672665-14.25894343 20.8716333-27.78185915 25.98314605-32.4386803 2.00041021-1.82246493 9.29443137 49.14015905 12.28607357 30.27086985 2.99164223-18.86928933 4.57528502-48.72279637-23.87243817-52.09536142z" fill="#FFF"/>
    <path d="M493.17216107 200.79064302c-26.31627858-.1430667-37.63774433 1.5287922-48.41656779 19.12670387-6.32294253 10.32307333-18.56098505 50.90942407-24.85039476 53.04316117 31.47855717.0516421 46.64935404-21.39563986 69.00395746-23.33358038 22.35460351-1.93794054 27.11147307 9.08296361 37.38138475 14.86346806-7.05565724-8.95129326-2.82270331-34.210677-7.45321377-45.9656006-4.63051045-11.7549236-13.18556576-17.66630764-25.6651659-17.73415212zM398.1535382 229.1265606c10.80569063 3.86763954 22.75562738-4.12615528 33.3525999-15.8525843-2.4274761 6.0917335-18.56952668 35.92759408-31.86279314 59.74149686-.29490734-5.01963608-.32903432-12.48584799-3.63328434-19.67478228-7.95988588-17.31802917-8.66221206-28.08177004 2.14347758-24.21413027z" fill="#000"/>
    <path d="M366.79785 177.91700398l21.3584079 18.75682376c10.50142456 16.39496 15.68114616 34.62660026 15.53916383 54.694921-.21412086 30.26473448-9.4386395 46.88978441-12.49880043 38.63651098-4.91458597-13.25467027-13.04751007-50.61742214-24.3987713-112.08825574zM317.12813434 111.59157972c2.8109497 3.74367111 27.7054891 7.44148636 36.15124497 5.13226617-10.94721542-5.73075139-18.31644465-7.92650855-28.51295805-19.43338841-10.1965134-11.50687996-11.4746938-16.16507925-16.00280776-30.80315436-4.68873338 7.34639565-5.10955604 27.159274 8.36452084 45.1042766zM490.14904652 197.78167714c10.00492667 1.2822587 6.61211447-14.64583527 3.85390461-21.1423741-5.96067952 4.57989372-13.85883133 19.8601164-3.8539046 21.1423741zM434.9837254 207.9187378c7.14907096-7.11498237 11.92405622-20.3146897 20.82342781-28.15385688-6.70548042-5.53973274-12.1633939 2.53835788-20.8234278 28.15385688zM542.05727454 218.85611968c-8.99862929.1570714-9.36002534-20.54729523-27.12835665-24.273152 5.55957983 5.4821981 13.7190086 15.96102146 18.19543572 28.19465433 4.82820711 13.19501214 5.70072832 28.29390988 3.81458502 37.43121313.08094444-2.01788814 10.5164854-11.1886904 11.61023486-13.22420157 1.8645326-3.46996837 5.4389638-18.00425784 3.7201302-16.06863894-1.13197603 1.27474495-6.78138636 3.73006659-7.93307316 3.9040494.09659641-4.01349189 6.7196732-16.12099575-2.27895599-15.96392435zM487.67043575 171.97922932c-3.48092132-12.7373875-21.46190104 1.33376276-25.61615609 8.82230063 9.25946852 2.59122733 29.09707727 3.91508785 25.6161561-8.82230063z" fill="#000"/>
    <g fill="#000">
      <path d="M510.21424218 171.63402836c-2.61876857-9.59690407-15.02865199.94546156-18.21689242 7.6359858 6.1805546 1.52728053 20.8356609 1.96091828 18.21689242-7.6359858z"/>
      <path d="M506.5468324 137.79962668c-12.67136916-12.26155528 2.90193656-5.76478995 14.36567545-13.71026587-18.47524217-.73197539-25.08420185-2.67374959-31.58385158-6.29112523-6.49964971-3.61737555-19.23706362-21.13756484-22.88943187-29.6819297 1.0552119 18.08000355 6.8111233 25.73706198 19.0694138 41.42829356 10.34669537 13.24429307 22.82065516 16.31751822 29.09167192 24.60387564 10.26423483 21.85274411-4.4874753 24.57709555-13.50947122 25.57371857 13.55476758.09625511 21.01509693-3.85363966 23.17487674-6.67063108 1.63266452-2.12947731 5.81559425-6.76421274 1.54852616-14.59133809-3.95431256-7.25343479-16.19593326-17.6884585-19.2674094-20.6605978z"/>
    </g>
    <path d="M395.83367436 155.95634078c27.15936158.62500771 50.29091547-34.67926558 20.34939965-32.39313137-31.8732384 2.4336278-39.64100648-14.07703607-52.88755616-4.73564286-7.17398717 5.05905478-17.5750085 17.44446115-6.27939332 26.63972777 11.29561512 9.19526761 26.24626504 10.19974778 38.81754983 10.48904646z" fill="#FFF"/>
    <g fill="#FFF">
      <path d="M416.62785232 30.01438974c16.14863546 3.15789505 41.85858785 16.74301894 59.63216672 23.56856963 57.377402 22.03452518 18.37960303-13.23572194-5.62302143-23.1407533-18.7344089-7.7310258-46.90604534-11.4152688-70.34262959-11.77355534-.52281286 3.58224721 6.89472945 4.2320543 16.3334843 11.345739z"/>
      <path d="M416.17589448 31.87949921c-3.06215736-19.57275726-61.18186676-25.62385136-85.30313573-.66449279-7.69431645 7.961654-11.6555343 16.41072205-18.60388189 34.37210298 8.44437186-3.69968748-5.4946708 2.18594536 28.74148575-12.3832097 34.23615656-14.56915518 73.4988138-6.01011832 75.16553187-21.32440049z"/>
    </g>
    <path d="M528.74635075 126.74975519c-6.72602868-3.37659465-16.81066691-2.69297897-24.43400177 1.71137252-4.4719082 2.58362718-8.43164908 8.56992637 21.33432192 19.01141963 1.86874142.65552875 8.64624352 4.34057904 12.65779663 3.99684944 8.53957718-.61665217 1.6964296-19.06964502-9.55811678-24.7196416zM476.66185144 134.34188185c-1.56700232 2.7232826-3.35226366 5.48420099 4.34086047 9.92161532 7.6931242 4.43741333 10.62090539 5.22318343 17.70300908 2.79334509 2.07687187-1.4113221.05977333-6.61720235-6.6957502-11.31951049-13.47212966-9.37752836-24.18579106-46.14010892-28.2935499-45.58421377-4.03109684.54552091-7.79069905 15.69775775 9.39870068 35.73729691.28498914.33224251 5.11373214 5.72818534 3.54672987 8.45146694zM496.9474288 276.72682256c-13.59960276.57049062-29.61830234 7.07722391-45.16780414 20.36737455-15.54950274 13.2901496 17.67686399 10.71548478 44.24475953 7.10394351 26.56789555-3.61154127 27.03482027 10.16280294 33.09138101 6.30553258 12.99314949-8.03950396-9.41235838-34.731442-32.1683364-33.77685064z" fill="#FFF"/>
    <path d="M499.38200835 267.7365187c-9.0043014-2.35659735-20.8276763 4.25123983-28.57853496 16.2896855 18.48615328-9.80256557 46.14052276-4.00520962 54.46867094 5.30209832-9.73723689-13.72853408-20.50891596-20.1834164-25.89013598-21.59178381z" fill="#000"/>
    <path d="M371.37624821 99.1622084c13.79801986-3.04715248 24.25139527-5.9351218 31.36012643-8.66390804 12.10516792-4.64673856 15.97469577-11.7679165 24.76756285-17.3107431 5.8619114-3.69521778 8.64328526-.45698033 8.34412158 9.71471226-4.71279637 26.46825822-12.75982685 41.12122132-24.14109144 43.95888928-10.52074355 2.62311598-29.684662-5.15474536-42.22480251-24.63097897-.62095741-.96441588.01040365-1.98707304 1.8940831-3.06797144z" fill="#FFF"/>
    <path d="M436.0956933 82.73774778c2.88399231 15.95607792-8.19224402 31.93035109-25.5307865 36.25333526-16.97069911 4.23127052-33.88455009-4.20961455-39.23101979-19.04986493 10.09775092 1.10056577 21.22804549.38619453 32.55812193-2.4387108 12.39059113-3.08932135 23.3852131-8.2951403 32.20368436-14.76475953z" fill="#000"/>
    <path d="M496.40180724 102.15026774c-10.6748135-1.12724185-20.39877562-4.64076344-28.45855335-9.8112261-.13485404 16.97077068 10.40678186 31.26959422 24.85313439 32.79510419 14.10396693 1.48935464 28.49621482-10.64617501 31.79434193-15.69082654 3.29812712-5.04465163.9189041-17.82541641-9.8394263-17.89032306-7.22866351-1.1377489-15.23946748-3.27407105-23.43529714-6.40779129-9.06764065-3.46706193-19.03452378-19.24738266-24.1662021-11.35558013-5.13167833 7.89180252 6.90936177 15.46440098 19.55339195 20.298915 6.64430452 2.54048617 16.4431015 8.7739346 9.69861062 8.06172793z" fill="#FFF"/>
    <path d="M496.1289321 119.22772222c10.87316697 1.14222433 26.40900852-10.9180791 24.94576038-18.89005266-1.05792256-5.76370495-16.9356636-6.38850293-22.25422742-6.94721717-12.67484771-1.33149054-24.2732959-5.12611318-33.9708121-10.63208813 3.05904703 22.443669 13.48547342 34.6001217 31.27927915 36.46935796zM420.45727535 113.88189792c-8.51316137 2.31548986-18.88160435 3.70826824-31.10532905 4.17833713 5.91109145 1.63248188 10.00759929 2.53567133 12.28952252 2.70956828 25.8069727 1.96665683 37.96688651 6.07681237 39.225954 16.63811777.64069403 9.38754264-23.48006738 24.32869986-15.27252856 32.4057726 8.20753987 8.0770718 29.076052 10.07954666 30.8078035 10.38506924-5.8011139-6.8078688-8.41762627-14.42510763-4.9334023-21.64859197 3.48422397-7.22348435 6.00000904-11.57583207 16.23820907-12.66177633-.59122793.66261661-9.90235336-4.73679074-14.75447453-13.86742536-5.4796966-10.31159384-4.00434503-21.49374666-10.52900449-25.13580026-6.52465951-3.6420526-9.19700964 3.52349454-21.96675016 6.9967289z" fill="#000"/>
    <path d="M454.42175907 162.88704851c3.37426619-14.61555166 14.94163103-15.34648828 18.6751533-17.8947271-9.75418394 1.48082088-18.483099 1.84243434-23.69613543 8.52510846-5.5317015 7.09117633-8.39650081 18.58759776 7.49293687 25.33487559-1.27388697-3.3730127-4.49651459-7.19592716-2.47195474-15.96525695z" fill="#FFF"/>
    <path d="M422.17242053 74.82970932c12.61658443-10.9403723 10.05025792-19.11415152 5.25737627-21.08099856-4.79288266-1.9668471-5.48966285 10.91930858-13.83741161 17.60099528-8.47368632 6.71898346-13.36218687 7.57852698-20.69031237 10.37552481 5.26204268 2.86890277 16.01501514 4.18956489 29.2703477-6.89552153zM482.47152773 80.57557787c13.39589762 8.04771572 23.17502593 3.43283953 28.33437896-1.12966265-7.97046317-1.15759936-12.8675971-.70951406-22.209924-5.8482972-9.31666766-5.20928125-12.90233596-19.36126172-18.07999423-17.9510636-5.17765887 1.4101981-1.32188678 16.55581066 11.95553927 24.92902345z" fill="#000"/>
    <path d="M10.64340318 425.97786065c15.09385891.76817686 28.73955501-1.00344418 41.71524714-5.41985345 14.04157387-4.77566737 24.89918242-11.91280123 32.2699112-21.2109921 7.4552437-9.4045438 10.97602256-21.3842472 9.77909165-31.91426898 4.0350141.80480903 8.08943069 2.32755142 12.29595314 3.90623975 7.62130246 2.8615255 15.50301085 5.82065798 24.32478882 4.84306646 7.84641297-.86867462 14.94182519-4.73545225 22.12254448-8.96396602 15.67346067-9.22612086 33.61365825-20.37913794 48.18279535-36.0374819 3.10681998-3.34023521 6.15319904-7.10694743 7.38581522-12.01420726 1.41971819-5.6510304-.08930878-11.01235227-1.19213653-14.92839478-2.84724898-10.11715014-7.01932106-20.99634582-16.37551557-24.96781477-.73279458-.31105285-1.49515343-.57718977-2.26483714-.78897071-3.52854839-.97771858-7.16361922-.79244452-10.37059493-.62945596-3.08237668.15697417-5.99459667.30572515-8.11291675-.59344838-.26242765-.11139393-.51428447-.23841368-.74897805-.38113437-2.1519633-1.28985203-3.64759575-4.20321109-5.24575554-7.59539068l-1.12775668-2.39804672c-9.74549305-20.73557942 4.95044254-1.49872213-12.79135726-15.64536612-1.88010237-1.5005706 21.82159296 9.10480766 21.57066386 8.6664332.13652119-.15467264-24.03618207-11.85787723-23.6913662-12.17554498 2.77961601-2.55393276 6.14646638-4.69195055 9.71166888-6.95408464 6.1896463-3.92800918-16.31226355-47.50187245-7.62514174-56.37071227.01250977.13747995.0261306.2754315.03856149.41000564.04302984.47367821.08709316.9449217.14144569 1.41047516 1.29245242 11.31905536 7.83509868 19.57843664 14.16374423 27.56596521 2.44735771 3.08891782 4.75873176 6.00661975 6.76303512 9.07268475 1.4992773 2.29571665 2.84428623 4.71989708 4.27063664 7.28635123 2.3773286 4.28033081 4.83615473 8.70874843 8.12668426 12.63397088 5.10231366 6.09068573 11.67806584 10.63318331 21.32226239 14.72690187 4.13656379 1.75586715 8.45626362 3.27197452 12.63342739 4.74050987 4.08613868 1.43564325 8.31207255 2.91913234 12.26627144 4.59759019 3.28923447 1.3961972 6.09449477 2.80101816 8.5788818 4.29087815 1.30225606.78119955 2.57645356 1.62232019 3.92399636 2.51325076 2.89145436 1.90975118 5.8819086 3.88307326 9.29346159 5.3311916l.32632647.1370812c14.02763578 5.77192606 47.84084657 27.59438896 62.19345733 22.16634674 16.44447751-6.21952151 12.017572 1.99025184 27.1230178-7.6321332 10.44200405-6.652696 12.6316964-7.30148133 16.29811072-21.84409536 1.08125681-4.28479794-.11545131-6.81411336-1.38213118-8.21089389 1.024322-1.49014152-34.49599358-30.62158813-47.14784243-15.4423745l-21.71327479 5.44395026c-1.69716385 2.0350607-16.1276353-7.84828033-17.99324487-6.86019508-4.94446381 2.61766688-16.19370517.38836221-24.26778738-3.03888235-.92627826-.3931818-1.78070416-.79178023-2.53814083-1.18081467-.32103534-.16500456-.66010652-.44828461-.75254552-.53349524-.38996302-.37671468-.58773972-.8413733-.66283375-1.01691238-.19353103-.44992766-21.09629922-45.37207016-42.72082603-71.81228791-8.26496183-10.10385207-17.93264707-22.68896612-43.07369548-23.45721542-25.14104972-.76824878-42.0077531 4.08613622-52.668215 20.5315777-4.37699212 6.7561305-3.60887829 17.8441068-3.39701112 24.7278794.86579569 28.13188679 5.45374416 68.92017828 22.39467172 103.48191647 2.87404523 5.86172242 6.63264491 12.44370824 12.72583081 16.80291763 1.36530955.97892362 2.8464053 1.80874023 4.39872811 2.46766217 6.31604314 2.68100125 13.05300194 2.30824549 18.48435533-1.02363174.34764331-.21302977.69977975-.44282794 1.05517453-.67411645.2284671-.14868557.50607588-.32966736.77526111-.49698527.0296056.0786523.05885254.16433538.09048079.25677503 3.29443999 9.60158463 3.24527197 23.01467363-4.65083636 29.77256378-7.35622956 6.29603538-17.0810764 3.18378196-20.92074147 1.55394083-3.40488117-1.44528631-6.68576451-3.52895946-9.49025553-6.0238577-1.0288717-.91512956-2.03203199-1.87537322-3.03793276-2.83534398-3.52607286-3.36722552-.83259612-9.56518936-5.67749024-11.6217249l-.26405655-.1106481c-10.71174636-4.38596356-30.83395796 1.3651637-38.9520909 4.46308626-12.2552742 4.67623704-25.8015296 10.79853103-31.42612388 24.32749493-3.75747975 9.03756853-1.06820291 19.69456848.06918774 28.4078348.63825932 4.88682897 1.24256033 9.5135783.97373782 13.9650906-.43895406-.054154-.88616375-.12905284-1.15722992-.17371854-15.05440099-2.52135996-31.43197531 5.72635418-39.82806543 20.0556955-2.94893788 5.03352173-1.29928837 8.37859851-.45332885 9.58242673.68433182.97863008 1.6018073 1.71717723 2.7237941 2.19343237 1.13644333.48239157 2.25965263.59713387 3.20903414.64527365z" stroke="#000" stroke-width="5.49376223" fill="#000"/>
    <path d="M195.83224343 181.06412598c-10.20820974-11.98233974-13.17638553-16.51665047-16.1100165-19.34838841-7.7582145-7.4862114-38.57396772-7.44431109-42.25087212-5.67032813-3.18983398 1.54151522-3.51061132 3.50215617-1.17029284 5.93949416.75918893.7908187 1.82345484 4.55667299 3.19279521 11.29756413 11.06062442 11.436601 19.54184585 18.02376008 25.44366238 19.76147658 14.42079409 4.24602153 33.53690622-8.8789298 30.89472387-11.97981833z" fill="#C4C3C6"/>
    <path d="M142.57197261 176.9383248c3.95182199-3.12610007 8.07238668-5.2722212 12.1275259-6.71898492 15.91326723-5.67742074 30.81901963-.58506637 30.5662433-1.68114338-6.0172328-11.1287521-16.04288334-17.1799071-30.07694938-18.15346534-21.05110033-1.46033671-40.65550258 4.88786598-42.5985584 13.11188905-.25689395 1.08730805 7.9854233-4.683208 29.98173858 13.4417046z" fill="#FFF"/>
    <path d="M352.47508271 272.50789727c1.04167496.0543158-16.27155413-11.34952428-26.7488622-13.96283374-4.80668293-1.19923646-9.82077643-1.15671143-14.62383775-.16440053-7.26834683 1.50244574-14.65838204 2.76172442-21.5603144 6.181975-6.76969602 3.35397326-8.11555317 10.8796601-2.48677138 15.18369276 4.11344603 3.14550226 9.44846106 4.15805737 13.97084121 6.58747462 1.91475242.38226914 3.82787364.7655184 5.74181004 1.14827784 27.31508326 4.03653884 30.46694514 2.47879174 39.56018906 1.12546918 4.09034303-.60875443 7.18450144-3.6286391 7.65862836-4.12865633.63266778-.66703197 1.6672625-1.10113821 1.6063095-2.10967515-.072185-1.1842612-1.27210645-1.123218-2.08886447-1.13020442-4.98893623-.04862165-20.68907487-.26954213-20.32101668-1.50443056-3.48855464-.56289424-19.61006238-2.51608434-23.14186284-2.83504108-1.26839194-.33372115 21.53231145-1.4712965 22.98290432-1.12439054 2.2464737.10152803 11.44445475-1.0216383 16.31987812-2.02002177 2.85821265-.58530154 2.2881489-1.29119112 3.13096911-1.24723528z" fill="#C4C3C6"/>
    <path d="M325.27044906 258.5606237c-4.8229574-1.1440909-9.86727109-1.05044102-14.70902348-.01386295-5.88128436 1.25977552-11.83983813 2.36445025-17.571134 4.548055 3.21157996 2.62534635 21.1704732 1.3683656 33.30881249 4.19318882 7.93258755 1.8460648 18.9398181 7.01160735 19.9652601 7.05086145 2.0373703-.35735764 7.33386-1.60464257 6.13949388-3.2093736-3.05496608-4.10460146-19.57546619-10.77650136-27.133409-12.56886872zM291.95157722 273.14128627c5.56371025 2.92514586 10.5902155 6.3632838 17.21890515 8.26100953 3.04098178.8708097 6.47842856 1.03369275 9.96632986.64128864 4.23688737-.47702627 8.49526213-.86082198 12.81443248-1.8798018-1.65394127-1.66004498-14.07591132-1.70460391-21.74027622-3.86458978-5.00877866-1.41158358-11.44048331-4.87966876-12.127664-4.94657026-5.16589441.42490691-3.88949012.67258573-4.33450567.3909662-1.14556865-.72587057-2.45637776-.48738667-3.79098839.29293508.84950448.1620627 1.32573206.75350578 1.99376679 1.10476239z" fill="#FFF"/>
    <path d="M53.1115768 390.08552143c.10947642 4.13225616.6540447 7.83000829-1.46056178 11.94913423-1.12824453 2.20041072-6.96010898 8.93720629-6.1545042 10.01041178.16591699.22127416 8.69115958-1.47263255 11.71177544-2.3938209 20.00299857-6.10025768 24.71480684-16.88957487 24.71480684-16.88957487 7.0778745-11.22691105 6.71437902-19.21340669 7.71437903-26.21340658-3.07405266-1.023068-11.99194597-3.78580033-17.99262112-6.0251873-2.0363012-.3560701-22.00737903-4.97481249-19.59089675 12.73358501.03941648.28884937.91620704 11.51912081 1.05762253 16.82885863zM79.05498876 355.17862516c5.0081385 4.11891757 9.4651216 4.59988085 16.67610158 6.47276217 5.6340076 1.46199245 18.23966445-19.9993778 14.12247365-26.93614144-3.57252928-6.02173077-4.19063017-5.24548094-10.27326858-4.33351526-3.9094422.58678695-14.3949914 1.7232465-23.6947698 5.67114864-4.72240078 2.00473362-9.17223067 4.65320194-12.75427364 7.2110758.61570268.06344693 1.25207822.22792377 1.90935459.50692104 7.44872435 3.1617959 12.94346627 7.78265118 14.0143822 11.40774905z" fill="#C4C3C6"/>
    <path d="M69.40580864 352.8938181c.37527334.10153882 12.85621986 4.65444726 13.2316637 4.65444682 6.99999957 8e-7 15.0886848-26.46269172 9.99999981-25.99999956-3.35039222.30514718-19.73487744 2.95115996-28.75637367 7.70657497-9.02149576 4.75541412-9.3632201 8.7899248-12.88899381 15.04129266 4.18327103-1.6190852 8.06542603-2.19726596 11.34191932-2.23380252 2.90353256-.03237728 5.33143962.36059823 7.07178465.83148763zM82.53519964 385.57284132c-17.86900286 1.08886808-27.14104432 4.97612599-27.816124 11.66177281-1.01261964 10.02847074-8.33078411 14.05638686-8.02942602 14.58718796.05086475.08968713 6.7180565-.65175561 11.7833305-2.01992305 20.56382842-5.55444015 24.08189164-24.79354478 24.06221952-24.22903772z" fill="#FFF"/>
    <path d="M141.16564546 199.18010243l-15.10939636-14.75282335c-5.86638728-5.94670316-11.37182116-9.84672105-16.51630073-11.70005327-2.20436522 8.66713615-1.89539402 42.19336314 2.97285469 69.67914468 3.47068985 19.59527047 11.23548423 37.55264441 13.0823666 34.73977106 2.91420713-4.43845086 3.817295-30.22297591 18.2154051-56.197856 1.05788641-1.90847756.17624393-9.16453833-2.6449293-21.76818312zM17.86093506 420.13647237c10.3460998.98396467 19.6236951-9.41516868 25.01430352-16.0240632 1.90450723-2.33493798.7201299-3.8792363-2.27984865-3.66286265-11.12922354.80840088-23.24932233 5.36339492-30.10137718 15.87589992-.75409423 1.1582013 5.41905517 3.62638017 7.3669223 3.81102593z" fill="#C4C3C6"/>
    <path d="M166.62331011 313.58182555c.0024598.0096633.0049192.01932752.00737898.02899082.000752.0075033.00202134.01378787.0022568.02250808l-.00963578-.0514989z" fill="#D796A0"/>
    <path d="M149.63925591 295.83337861c2.81957013-4.75657262 8.72802245-10.69024123 15.08975923-11.58573831 3.5660571-.50189467 4.32919333.99289384 12.90782751.88182154 2.2268361-.02736521 3.14200287.07664634 5.17410683.02265127 8.41280424-.22743553 13.52778112 3.93204356 16.36487426 11.92441164 1.75723573 4.94661889 4.11168546 9.62093189 5.12889983 14.9042254.9369524 5.1199268-1.14501042 9.12504888-4.41968815 13.00603926-7.89655948 9.35447691-46.75290081 36.26629689-62.52643081 44.5721975-3.89936816 2.05329768-7.01567339.87898398-7.17538913.45125792-.93425672-2.4983629 1.77235325-2.95419454 3.15029615-4.07026668 9.1381856-7.39002342 18.7628524-14.02475333 27.71119853-21.72809415 3.54768968-3.05253275 5.8384755-6.34695282 7.0927115-9.86443124.90938117-2.5504694.48706164-7.01233767-.18064918-15.87677588-.34427514-4.58389654-.68518269-7.31454395-1.4873643-10.4981473-.21564752-.86157307-.9157864-3.54357529-2.38106167-6.75723532 0 0-2.06248259-4.527394-5.33416133-6.83989427-.71331263-.50534818-1.42556243-.84934329-1.90426605-.54397217-.14047168.08978262-.4606877.36186335-.54660775 1.4330368-.14374008 1.81953879.72179215 3.1782132.82994583 3.70252005.84330266 4.05441925.28405945 7.19599668-1.45959269 9.15816758-1.94954503 2.19370714-4.9139005 2.16229833-8.54833485 2.08637517-3.0576045-.0652449-7.03988471-.83043027-7.02921866-1.94073125.00676448-.56316152 1.03545852-1.0172202 1.55104697-1.27963765 4.17742402-2.12150255 5.72760438-7.33788383 7.99209793-11.1577799z" fill="#C4C3C6"/>
    <path d="M161.53244712 291.95636605c6.80588748-.57588823 11.92064645 22.1717556 12.26492159 26.75565214.46761098 6.20793594 22.7837156 10.18872293 26.08766827 6.27477198 3.27467774-3.88099037 5.35664094-7.88611338 4.41968763-13.00604057-1.01721384-5.2832922-3.3716645-9.95760559-5.12890023-14.90422448-2.83709313-7.99236807-7.9520691-12.15184677-16.36487426-11.92441164-2.03210304.05399547-2.9472694-.05001701-5.17410551-.0226518-8.5786351.11107191-9.34177133-1.3837166-12.9078279-.88182061-.03312382.0046621-.06623547.00946191-.09933379.01439666-2.71651317 2.7033847-3.72180073 3.02096136-5.32119393 6.7503141l2.22395813.94401422z" fill="#FFF"/>
    <path d="M243.9930162 245.16394983c-1.95086565 1.10752709-11.37861364 10.1657068-11.05862735 13.46867646.49221958 5.0807994 11.8376853 4.6937679 13.78428588 4.3102093 1.23761286 1.76515079-2.42898654 2.8378105-.91178882 4.4544238 1.38148276 1.47568077 3.13295094.4535125 4.5079226-.42677593 2.83897133-1.82191493 5.6685551-3.72682997 8.26825574-5.9218331 2.41591453-2.04028037 4.5286267-4.5009003 7.63737416-7.64780886-4.77022226-.3594857-17.9462743-10.6673441-22.2274222-8.23689167z" fill="#C4C3C6"/>
    <path d="M263.99430219 255.70045695c.69076657-.72403747 1.42541063-1.4890608 2.2261364-2.29961549-4.43193943-.33399247-16.11977635-9.25540193-21.18859557-8.56986992-1.78551422 2.1973051-3.10916328 4.32415224-2.98587995 5.59670787.4922192 5.08080033 11.8376853 4.6937679 13.7842855 4.31021022 1.23761324 1.76514987-2.42898616 2.83780959-.91178844 4.45442288 1.38148276 1.47568077 3.13295095.4535125 4.50792261-.42677593 1.53705622-.98640902 3.07136048-1.9971463 4.56791945-3.06507963z" fill="#FFF"/>
    <path d="M272.31297836 275.02932242c2.36678983-1.80397587 6.57463001-1.68147554 6.33813627-6.60894926-2.88470172-.21596709-3.13215353 3.9687842-6.40547084 3.38529465.56867122-2.40632892 4.37419614-6.31052556-1.48402763-6.978416-1.4990494-.1722764-1.0973081-2.73566013.26239462-4.34361995 1.49976243-1.77406032 2.79928016-3.73799236 3.72701297-6.15855853-3.48427014 3.1115145-2.28364882-.72080303-5.76250323 2.3987702-2.70189605 2.42285643-10.09005417 11.78900655-12.75783421 14.25452673-.68259864.63113569.33288809 1.41703298 1.06070586 1.76763522 5.40455751-1.29317422 9.8913218 2.15428774 15.0215862 2.28331694z" fill="#C4C3C6"/>
    <path d="M135.15172955 473.30158098c-23.67872093-2.49947944-40.89203245-19.11614308-38.44700578-37.11435798 2.44502667-17.9982149 23.62250776-30.56242143 47.30122967-28.06294181 23.67872092 2.49947945 40.89203244 19.11614308 38.44700578 37.11435798-2.4450265 17.99821392-23.62250776 30.56242143-47.30122967 28.06294181z" fill="#000"/>
    <path d="M132.74611649 460.72381592c-21.07194555-5.44316484-34.58645862-22.77253041-30.1855093-38.70621912 4.40094949-15.93368969 25.05081078-24.43793957 46.12275632-18.99477472 21.07194555 5.44316484 34.5864578 22.77252925 30.18550832 38.70621895-4.4009495 15.93368969-25.0508098 24.43793974-46.12275534 18.9947749z" fill="#C4C3C6"/>
    <path d="M304.63747304 412.54826506c-39.96656657 30.60182198-22.88452407 48.71890879-76.00000021 58.0000008-53.11547696 9.28109084-79.4104317-39.74480059-124.00000008-19.99999999-5.17106709-4.95061941-6.51518544-3.1234239-7.97388613-7.8097342-2.47814009-7.96141632.52446086-16.62932007 9.4274957-29.70011504 17.98995724-26.41156066 9.10498286-73.18642151 13.7967497-126.19686754 2.968984-33.54539933 35.33805067-50.74369566 35.17195072-55.5662541-1.22957163-35.6995127 32.1398131-66.38820098 82.9821697-87.99124925 17.43305512-7.40735004 41.63156176-6.31927617 72.59552029 3.26421963 33.448261 12.21870719 56.44826144 22.88537399 68.99999933 32.00000005 20.01714397 14.5357381 30.68381034 34.8690713 32.00000011 60.99999977 7.07003977 19.81092499-3.6695383 52.04059087-32.21873125 96.68899817-15.32567866 23.96800366-34.81470229 45.70917954-74.78126788 76.3110017z" fill="#000"/>
    <path d="M340.10925654 172.19257187c58.11742132 22.83749212 75.33223255 50.03211921 51.64443385 81.58388028-35.53169805 47.3276416 21.37315786 11.98272544-16.8066069 71.68045146-13.66368586 21.36448438-15.74460787 1.17463894-67.38464315 43.53199737-51.64003527 42.35735843-46.87516175 94.82901541-95.77026373 90.29461431-13.45427344-1.24771364-42.73050634-9.68812392-65.61543425-20.12948062-22.88492693-10.44135653-36.94582359 5.55998066-39.15431277 1.5883079-7.52951934-13.54083299 27.76906853-42.62263546 25.24406662-58.2245587-5.67187608-35.04637108-1.42731856-71.75256192.56123893-94.21440338 2.64718662-29.9014247 31.50578848-45.23169127 31.35773177-49.5303808-.8374643-24.31504735 22.43500456-49.21299227 53.68365334-68.19746211 10.25419882-6.2297256 33.47882512-6.16491088 53.11788102-9.63817226 41.4617199 5.47446453 64.5024716 9.22620037 69.12225527 11.25520655z" fill="#C4C3C6"/>
    <path d="M209.83997747 419.35677306c-16.35584643-1.62262931-35.53096327-11.90306127-37.74928525-14.66913877 20.51577589-1.63677012 67.97068825-32.6467737 81.30064902-34.65642746-34.17556586 17.78401745-27.19551635 50.94819572-43.55136377 49.32556623z" fill="#000"/>
    <path d="M165.75912467 404.97758752c-28.11661068-12.17802477-23.79762334-49.71110633-15.04661686-55.20864192 8.7510055-5.49753576.59179472 26.01973735 3.25478414 25.22425748 9.97793064-2.98057516 17.76093084-11.75988378 21.02746732-11.10977303 65.91685136 13.11886922 65.10367829-14.36445323 97.87304955-1.81295314-7.2083042.63041758-51.56259752 27.95228188-59.47784845 35.11467482-16.54924205 14.97516366-33.11808212 14.07828213-47.6308357 7.7924358z" fill="#FFF"/>
    <path d="M154.85422495 355.71685886c-9.38325677-4.77768318-3.19063592 1.22607675-.0992394-3.29568256 1.15040195-1.68268253-3.63571249-7.69596992-7.38070306-13.730777-2.04750752-3.29942258-7.62365939-10.02000799-3.30225486-8.7120339 6.85513626 2.0748658 19.766105-1.32016618 30.4876706 1.87734554 4.35481775 1.29874502 5.91139821 5.48620328 6.98922355 5.37557296 7.98415965-.81950942 11.73506878-.56066647 15.1114676.88348493 53.78046177 23.00294968 50.49922316 11.60300987 75.11517498 24.8916077-6.60719467-1.8808344-40.57095668.37405911-50.63041387-.0491965-17.148521-.7215311-54.62346691-1.29958917-66.29092554-7.24032117z" fill="#FFF"/>
    <path d="M164.69836454 391.86421185c-19.47957655-10.98308673-19.42594056-18.50207223-19.1882107-32.9250696.13964944-8.47249233-.87863466-24.26745752-5.4540182-32.83488298 8.98064999 7.3620252 9.72226783 11.60030174 20.3367593 16.26941212 10.61449147 4.66911038 13.84076724 4.08071727 20.46585668 4.14174615-1.75061908-1.52047525-1.88736509-4.70115055-.84072505-8.13123105 2.12800463 7.54134917 19.96038042 14.09286091 23.118645 14.95558553 42.66991845 11.65588669 37.53070498-1.33651413 70.71405609 8.77893065-7.31652728-.51007278-52.81429788 20.04208777-62.78831802 25.2925913-17.00287533 8.95061767-32.9233853 12.0311087-46.3640451 4.45291788z" fill="#000"/>
    <path d="M275.0415486 358.05103976c2.92634236 8.3373369-5.084399 13.67852288-11.53834122 16.36688585 2.1533663-4.75143382 4.4538987-7.57008217 3.30082999-13.40559398-1.1530697-5.835512-2.94417579-7.30195893-8.33488-12.07098511 5.94064702.20486691 13.64604772.77235716 16.57239124 9.10969324zM353.44358575 272.29168243c16.05041911.36319884 18.35782526 7.4259711 50.10964629-30.20741271 9.16947098-10.86798113 6.29043099 9.30903402-1.95607557 34.28928229-9.17681494 27.79833091-30.87733164 70.42924816-42.71692596 81.40502286-8.04522682 7.45824553-93.951859 47.56649484-35.2599118-6.571284 58.69194621-54.137779 32.6264805-65.53937448 29.82326704-78.91560844zM191.40331223 318.79800317c8.14616942 5.33769607-3.97060306 14.8373436-9.92533381 17.85010203-1.62686137-7.0809399 1.77916439-23.1877981 9.9253338-17.85010203z" fill="#000"/>
    <path d="M193.37924918 309.20204456c6.91106424-12.70047098 22.8132371 6.7177914 25.43679693 15.71529407-10.62743816.47280368-32.34786099-3.01482407-25.43679693-15.71529407z" fill="#000"/>
    <g>
      <path d="M170.31360587 304.04543886c4.94946594-9.21077074 15.14550146 4.51299394 16.82252376 12.11692954-6.68210225.1063568-21.77198963-2.9061587-16.82252376-12.11692954z" fill="#000"/>
      <path d="M156.62981718 302.45578c-2.58023418-5.67974122-1.4824003-13.05928117 11.46018743-15.20500008-9.23131663 15.64635291 1.2015957 24.1898208 10.66116571 27.50269543-13.88476027-3.09850751-20.57933376-8.90332467-22.12135314-12.29769534z" fill="#000"/>
      <path d="M166.242575 302.89186317c-.20616494-.04083612-.4123736-.09668131-.61780335-.16810487-2.91812421-1.01456882-4.57408316-4.7883534-3.69868791-8.42898381.85384313-3.55099845 3.80055884-5.66373376 6.65299225-4.82414918-.80448194 1.48179848-1.46974249 3.20958338-1.92776447 5.11442408-.70515808 2.93264082-.8086449 5.82558166-.40873653 8.30681378z" fill="#FFF"/>
    </g>
    <path d="M283.80038674 271.7802656c13.05806738 1.90860053 28.5029726 4.867466 39.0905609 15.9046216 10.58758813 11.0371566-1.8345359 22.62946968-9.95599191 26.99065484-14.99602282 8.05279705-20.97099677-10.16561084-54.48441305-11.7004258-31.48228663-1.4417948-2.86117456-35.31824626 25.34984406-31.19485064z" fill="#FFF"/>
    <path d="M316.4012914 164.6455349c-17.69558451 8.46586958-50.75652666 34.62023074-54.18601571 37.33192291-1.45573874-8.28065818.8785157-17.231595 7.0027633-26.85281044 1.36736242-2.11804182 2.29761722-3.5735431 2.79076344-4.36650402 1.5619601-2.51157494 2.27438483-3.83687193 2.13727207-3.9758903-7.20619728-7.30637123-74.31563737 36.34100247-85.12942235 31.0645076-11.26858041-5.49840863-.08634949-21.4692973 17.38084053-32.31487121 29.22754478-18.1477096 118.78510762-16.55189805 110.00379872-.88635454z" fill="#000"/>
    <path d="M262.46287103 191.2610283c-1.45573874-8.2806582-9.55723973-12.4263799-16.49168364-11.0549798-8.0182701 1.58574402-16.32238196 3.6831271-24.72830577 6.46030532-50.6046914 16.71895708-12.15353724-16.12512345 9.12165449-23.83370282 16.60560709-6.01666323 40.3538803-6.80865296 59.69399295-4.65368585-.12113232 3.78040849-19.8068561 16.76287933-27.59565803 33.08206314zM386.60789313 200.25604366c-6.11097933 15.6068832-59.06956584-21.45973913-103.94265598-1.36404267-44.87308915 20.09569663-6.39801872-17.1170213 8.51289475-26.31199365 34.59149776-21.3312125 105.7630775 14.96113189 95.42976123 27.67603632zM164.03944915 254.06163869c7.67593742-1.86992279 17.8265581 1.21191808 24.58085732 7.52335068 3.96212574 3.70233571 6.59623227 10.76881623-26.30950425 14.4334988-2.06585973.23007255-9.8673418 2.4037667-13.88817217 1.10431119-8.58652143-2.64836136 2.77280737-19.93225175 15.6168191-23.06116067z" fill="#FFF"/>
    <path d="M212.09843847 277.66687686c1.39503032 3.18146914 4.53903424 8.88138827-1.46096568 10.88138872-5.99999974 1.99999946-14.67708526 2.19261361-23.00000022-2.00000063-8.32291513-4.19261326-4.31036404-7.85874689 5.06292425-11.09846404 6.99630654-2.4181533 19.01621459-13.55254967 36.059723-33.4031883 8.1527367-14.24901976 13.4253169-22.65234927 15.81774158-25.20998837 4.52709328-4.83972581-.83622393 36.39036058-26.33610006 52.96011537-.4227718.274716-7.53835222 4.68866828-6.14332287 7.87013725zM150.78217364 410.25573946c11.97760524 3.29522317 24.81721544 12.61506949 35.76448477 28.1622657 10.94726933 15.54719622-18.05951929 6.39570553-40.91581783-2.36921795-22.85629774-8.76492231-26.26655646 3.97899623-30.81736877-.84700178-9.81406814-10.1337119 15.926784-30.45988407 35.96870183-24.94604597z" fill="#FFF"/>
    <path d="M272.9038912 431.94394996c-8.25157812 5.6632043-26.70087522 3.22779616-35.38993641-2.73170876 4.39224807-.73417387 17.72627544-3.2510879 26.1036279-9.19439612 8.17258855-5.7980371 11.37919209-14.95187358 16.57683784-21.41075987-1.46756433 2.23604264.08034729 12.12491486.02583264 16.05480029-.09293195 6.69933955-2.38499031 13.8975772-7.31636198 17.28206446zM130.70205894 369.31685052c-.26160267 11.76246342 6.95468317 25.53680755 12.7324564 29.91782179-6.95338772.83622605-20.65323269 4.73249806-31.27225493 21.69630657 1.49434715-1.54302029.11000648-10.27388396.78062564-13.0395793 1.14321576-4.71472695 17.8357002-42.01546447 17.7591729-38.57454906z" fill="#000"/>
    <path d="M258.43021244 260.16484985c3.98023938-19.03883842 21.59211988-31.73482808 39.89637918-28.5072933 18.17707925 3.2051095 30.34179695 20.93269949 27.79586798 40.03235626-9.05879738-6.03190383-20.01936537-10.50219932-32.17188517-12.64501644-12.5230537-2.20815225-24.70202238-1.66087459-35.520362 1.11995348z" fill="#FFF"/>
    <path d="M256.17951356 261.47203895c2.6943654-7.5497419 19.19506058-10.97229757 38.02021917-7.6529142 18.14757638 3.19990736 32.12240904 11.54849743 33.0598514 19.32652023-9.58505726-3.33380573-20.6986983-6.22545794-32.67091162-8.33648216-13.9240816-2.45519127-27.1180006-3.52094546-38.40915895-3.33712387zM166.8103894 249.63366755c1.47481469-7.07803538 12.99341032-11.61033912 26.36036011-10.20541672 13.0512494 1.37174151 23.20212946 7.9135298 23.64732369 14.95149751-6.90558812-2.25462359-14.95479514-3.97180557-23.61921847-4.88247298-9.58608092-1.00753825-18.64081011-.89285518-26.38846533.13639219z" fill="#FFF"/>
    <path d="M174.20214927 238.66071732c5.66275044-16.01752795 20.37023586-25.8811769 34.36216131-22.39259819 13.66030997 3.40589716 21.94794911 18.36911043 19.98820884 34.7111098-6.82407337-5.37093244-15.12639486-9.52300272-24.4655603-11.85151816-10.33902427-2.57780843-20.6052843-2.58572403-29.88480985-.46699345z" fill="#FFF"/>
    <path d="M210.26276103 223.43281202c10.60950607 2.64709471 21.1320061 19.11485394 17.05675501 26.0019972-2.94639095 4.97937649-18.0858739.14745817-23.27546927-1.14735676-12.36749787-3.08571745-24.5570759-3.5226068-35.53895035-1.72618662 10.47611463-19.75090643 24.39533688-27.46039125 41.75766461-23.12845382zM256.94358222 260.12412503c3.78203484-15.03461919 21.00468177-24.4389864 39.46510302-21.18391606 18.06877699 3.18601289 30.87524011 17.36303367 29.92125609 32.42375529-9.26421515-5.04048538-20.2678358-8.9211196-32.33101778-11.04818406-13.19231626-2.3261613-25.9111433-2.2481848-37.05534133-.19165517z" fill="#000"/>
    <path d="M172.6789115 253.18689562c19.06517011 3.61354593 26.28224675 3.18555398 33.78361086 1.01555401 7.5013643-2.17000095 14.86058458-3.46899642 20.6150151-11.35777939 2.47138853 6.75403813-3.2414311 11.11452196-19.48529796 24.29086535-16.24386767 13.17634222-32.16646783 11.02511373-39.6495046 23.02116602-.05203971-1.37249285.3297221-9.9686729 16.18531232-19.5347 15.85559004-9.56602611-1.60478994-6.58978651-11.44913571-17.43510599zM277.81375775 266.4564275c14.42713081 5.27509552 24.70033368 9.15030562 30.81960877 11.62562932-33.88173257-6.8150216-52.96546894-4.26498892-57.2512073 7.65009938-1.91606555 6.30909707 2.28910085 12.08248631 12.61549777 17.32016442 12.1947983 12.78498921 10.003732 18.50881025-6.5732001 17.1714639-24.86539755-2.00601992-30.1996226 5.76295988-32.04266897 5.66689987 7.54120601-5.60275475 9.11110864-14.12108358 7.25568452-22.34241916-1.8554233-8.22133442-5.78745243-11.46981787-15.99999938-14.99999943.4479454.81829768 16.5398432-2.9818788 23.65967698-11.18778987 8.04071574-9.267268 19.83487841-26.83217352 20.98591399-26.12400461.97706317.6011328-5.11000298 7.3073128 16.53069372 15.21995617z" fill="#000"/>
    <path d="M231.63747274 310.54826493c-3.8e-7-14.99999977-11.10646954-18.31429347-14.17107278-21.63708084 9.17107263 3.63708149 17.59492083 5.95300546 21.17107288 13.63708113 3.79475676 8.15379201 3.99999933 20.00000054-13.00000035 23.00000031 2.00000009-3.00000037 6.0000006-6.00000031 6.00000025-15.0000006z" fill="#FFF"/>
    <path d="M307.06660586 218.64191938c16.86966017 1.44717255 20.50135099 11.60012521 20.57126788 18.9706967-6.84036452-4.39086088-10.155559-7.95045357-21.31329213-9.79878795-11.15773297-1.84833537-15.0514255-.91165063-27.39895183 1.7293598 4.67449332-5.44158465 11.27131476-12.34844028 28.14097608-10.90126855zM224.31612794 205.51184568c12.3252415 6.08624649 10.81818924 16.23270917 7.75592081 22.87030077-3.38952512-5.88338672-4.42707899-10.0201183-12.20235933-14.8457528-7.77528035-4.8256345-11.15726111-5.08948477-21.74282694-6.22192226 5.88519419-3.55936856 13.86402413-7.88887318 26.18926546-1.80262571z" fill="#000"/>
    <path d="M349.48314692 335.26666801c-9.84871931 10.30088475-27.58509155 25.1713726-43.86621934 33.06387765 13.15220138-17.55048714 12.06815571-21.4425325 32.3003381-40.7984449 20.23218321-19.35591357 7.65001072-37.55658839 20.02065663-42.5533008 9.55545825 19.63907375 8.02491476 33.05157791-8.4547754 50.28786805z" fill="#FFF"/>
  </g>
</svg>
