<svg viewBox="0 0 400 320" xmlns="http://www.w3.org/2000/svg">
  <g fill="none" fill-rule="evenodd">
    <path d="M350.97993311 93.602194c0-11.363284-30.25724491-20.667433-55.13968591-20.667433-14.3370422 0-61.1015962 1.878184-99.1301632 5.682591-27.971348 2.798275-56.077842 8.095698-75.138474 8.095698 0-8.095698 1.644218-10.489247-5.445895-13.778289-19.446145-9.020901-48.331244-14.441257-58.54337 0-6.089568 8.61143-6.089568 22.797879-8.168842 36.742104-4.32266 28.9890292-5.71806 62.6460811-8.168842 82.6697354-1.645409 13.4435005 5.650245 26.2541056 25.187263 32.14934151 18.612455 5.84063365 126.777263-15.72703531 201.8864375-15.32286161 57.4615825.3092093 71.3215765 30.4618913 76.18458462 15.77374392 1.36288133-27.57765212 6.47698699-99.00071222 6.47698699-131.34463022z" fill="#000"/>
    <path d="M334.2903877 218.0157233L339.0183946 98.08668c-8.2552502-9.137451-31.4449986-13.706177-69.5692452-13.706177-38.1242464 0-87.6557484 4.568726-148.5945044 13.706177-3.700731 62.0227816-6.093429 95.9074956-7.178094 101.6541414-1.084666 5.7466458-6.061019 10.9037677-14.929059 15.4713658 50.257751-5.6070722 92.523996-10.7641941 126.798736-15.4713658 19.940627-2.7385754 56.3438341-3.4711803 76.9989701 0 13.7700907 2.3141202 24.3518206 8.4057541 31.7451896 18.2749019z" fill="#C4C3C6"/>
    <path d="M274.2108653 183.80668578c5.85876407-35.08482223 8.76883362-58.56345383 8.73020893-70.43589569-.05793724-17.8086618-.96479518-18.82751465-6.31925202 2.24786233-5.35445688 21.07537636-5.78047608 33.45115313-6.43278556 51.90013337-.43487291 12.29932016.9057366 17.72862009 4.02182865 16.28789999z" fill="#000"/>
    <path d="M300.2696613 191.6600132c15.5672306 10.2954564 25.8470417 18.7326848 30.8394335 25.3116849l4.7888985-119.9211751c-5.1046975-5.578004-15.8472338-9.453335-32.2276089-11.625995-12.6453025 63.9600192-13.7788769 99.3718475-3.4007231 106.2354852zM113.17494898 85.99381641c.02481696-2.0957583-5.14888975-5.2899246-13.75498031-7.6065713-13.7114566-3.69094309-20.12608059 2.7072732-24.06007137 9.7363129-2.57526701 17.36422794-9.39888993 72.70269734-6.54471272 73.95939756-7.14686534 22.31624508-7.81323115 31.88359108-1.99909744 28.70203791 4.59841395-2.51629902 7.2151887-1.8248647 18.01598824-2.04356663 13.8962031-.28137966 18.2934824 6.44387072 20.01526273 7.7391794l8.32761087-110.48678984z" fill="#FFF"/>
    <path d="M74.21829173 76.209358c-13.29020164 3.50969905-12.2003944 64.04038966-14.19916927 80.2709168-1.99877477 16.23052723-6.19974064 41.9397248-.45893331 38.75636453 2.50534387-1.3892492 9.0906738-4.38868838 13.37883182-10.99441247 2.761487-4.25395281 16.4572789-41.7149198 20.10473281-70.945897 2.43163595-19.48731818 6.96031858-30.206292 13.58604783-32.15692014-13.0998085-8.90539665-28.33083445-4.97140398-32.41150988-4.93005172zM95.84217164 202.37161014c-3.68167028-2.16635108-8.42147897-3.04681064-14.21942597-2.6413787-1.37485754.09613941-2.70848228.2243956-3.9964998.38226522l-1.10082555 10.20979086c.60850425.06219295 3.9464962-.01831764 6.5920056-.46095793 2.22846156-.37286084 6.75302118-1.48791264 9.56082447-3.5791562 2.27638615-1.69544563 3.17261361-3.70535669 3.16392125-3.91056325z" fill="#C4C3C6"/>
    <path d="M274.2108653 183.80668578c5.85876407-35.08482223 8.76883362-58.56345383 8.73020893-70.43589569-.05793724-17.8086618-.96479518-18.82751465-6.31925202 2.24786233-5.35445688 21.07537636-5.78047608 33.45115313-6.43278556 51.90013337-.43487291 12.29932016.9057366 17.72862009 4.02182865 16.28789999zM223.43019538 184.13643466c5.15551354-29.41094704 7.59674956-49.1069955 7.32370708-59.0881455-.40956226-14.97172459-1.3349466-15.84110515-6.26373176 1.79992492-4.92878509 17.64102927-5.1096284 28.03871049-5.39641555 43.53863316-.19119144 10.33328186 1.25428863 14.9164777 4.33644023 13.74958742zM197.58390013 99.78624506c-5.27256103 36.4918162-7.790153 60.89369392-7.55277685 73.20563226.3560637 18.46790796 1.28014884 19.50810656 6.28282345-2.44569547 5.00267468-21.95380292 5.22160474-34.79615764 5.56520357-53.9409928.22906689-12.76322343-1.20268383-18.36953815-4.29525017-16.81894399zM249.1912465 184.23276562c3.8064092-18.52628874 5.34824219-30.9658983 4.62549907-37.31882864-1.08411492-9.52939559-2.0450399-10.11203174-6.15722348.94060945-4.11218455 11.052641-3.82268666 17.65557945-3.4082633 27.49808416.27628324 6.56166988 1.92294587 9.52171493 4.9399877 8.88013503zM144.16882923 216.2391088l-16.30917959-1.42686832c-.20421007-3.20682261-.11819503-5.5070581.25804315-6.90070664.7621782-2.82323194.37466135-6.04660848 1.29309514-4.35500303.46432962.85521956 1.95652843 4.67777263 2.68817566 6.96325494.20683077.64608804.3895825 1.2588382.55034222 1.8427242.32481742-3.59779379.88448428-7.38678285 1.82513563-11.8262251 2.41539912-11.3995678 2.94834871-10.66974277 3.461405-.33451963.10276416 2.07012042.08545713 4.70691943-.0519201 7.91039702.5373787-1.08959912 1.17854124-2.21445574 1.9450931-3.39597167 1.52340033-2.34807635 4.4188916-5.9475413 5.23559837-6.5935568 1.61542917-1.2778042.30097975 2.82052064.57564814 7.75492647.13830738 2.48467753-.35217185 5.93852699-1.47143672 10.36154856zM340.4388513 88.04760994l-18.322423-2.24971066c-.94645883 3.39124551-1.37559334 5.88231422-1.28740344 7.47320613.180937 3.26399298-.99659513 6.69721966.40829359 5.06228598.71026496-.82656758 3.24310571-4.65709814 4.58081496-6.9847957.37816004-.65802268.72205252-1.28521775 1.03501844-1.88599087-.48085521 4.0086816-.74781026 8.28114828-.7470538 13.3535262.00194245 13.02481573.7585059 12.35132855 3.7313106 1.1731025.59544566-2.23897238 1.19079473-5.12541468 1.78604733-8.6593279.33749712 1.31644212.78099165 2.6956348 1.34927491 4.16601308 1.12937336 2.92214522 3.47713968 7.53230036 4.22539446 8.42899752 1.4800315 1.77364898.98842986-3.01303138 2.44045706-8.34298545.72465716-2.65999772.99141333-6.50476867.80026905-11.53431477z" fill="#000"/>
    <g fill-rule="nonzero">
      <path d="M183.2155172 212.250618c-.1508392-.016064-12.9950169-5.87179-18.76382-12.704142-3.249621-3.848767-5.4561828-5.749104-8.1841389-6.797933l-.2087156-.085436c-1.3146713-.571427-2.5476413-1.3113-3.6673082-2.200524-8.0093068-5.96075-13.21668964-14.157487-16.15991852-24.486405-.56533257-1.935543-.90679195-3.495138-1.5401147-6.759327-.29814927-1.536682-.41261883-2.113609-.57923547-2.896191C134.03762424 155.970076 134 155.612757 134 155.254467v-10.349724c0-.436521.05584765-.871284.16620922-1.293905.25237198-.96644.45811904-1.73176.92303107-3.444698.90406081-3.3309521 1.28795908-4.8010618 1.70710117-6.6184921.31274439-1.3593342.60382658-2.4973988 1.19659583-4.7326088l.04652695-.175424c.96488628-3.6378016 1.35377671-5.2418202 1.69821613-7.2005529.62983874-3.5907499.47438314-6.6415671-.42561331-13.6870753-.0766536-.599989-.11128081-.8719816-.15260254-1.2001794-1.21295266-9.5433363 1.22207495-18.4195008 6.87411788-26.6663526 2.4677118-3.7786345 5.9385494-6.8122041 10.0804132-8.7912538 4.2885894-1.9962228 6.3707205-2.9128008 9.0226588-3.895843 3.8237797-1.4066728 5.9677931-3.5901965 6.8357788-7.0045812 1.1002404-5.0273023 3.9155921-9.5279468 8.0167964-12.77816954 4.5374069-3.51905978 9.779359-5.80743912 16.2638738-7.46334245.4749157-.12688286.80376-.1869144 1.4203396-.28216673.0971911-.01501145.1537691-.02380112.1972541-.03073454C198.6383275 39.22147527 199.5029679 39 200.3854567 39h6.8337017c.5101391 0 1.017523.07404859 1.5059695.21978412.7211056.21515295 1.4439203.35483548 3.0005499.59755282.0697563.01087257.0697563.01087257.1401388.02183457 1.8181066.28317157 2.6641633.43662321 3.8965006.75782603 5.4773907 1.54958598 11.0691225 2.6719198 16.6058192 3.34374454 6.7924886.66770259 13.2870446 3.09602288 18.8889026 7.08365102 1.724235 1.264536 3.51802 2.4334895 5.294628 3.4571973 3.536293 1.9556179 6.865557 4.2571564 9.997458 6.9215772 3.65637 3.2063014 7.659645 6.0029974 11.850937 8.2932223 9.171457 4.7897414 15.218996 12.4817647 17.967983 22.5660341.138268.505946.138268.505946.275842 1.0099863 2.098869 7.689376 3.153909 11.0712226 4.811651 14.9042236 2.780703 6.0396248 4.263103 12.5851003 4.353202 19.2215011l-.000818.1843933c-.00601.2675943.075153.5301067.231666.7488838.62483.8733997.960412 1.9173352.960412 2.9876689v11.545614c0 .810052-.192161 1.603248-.554437 2.318135-1.219642 8.29741-4.72773 15.101357-10.911747 20.306914-1.339954 1.121028-1.709591 2.440063-1.218694 4.664878 1.516265 6.646542.269801 13.617216-3.40592 19.26172-4.109369 6.584817-9.397355 9.874526-19.511017 13.826303-3.010336 1.166741-5.990632 2.226498-8.947901 3.178151.435363 1.355912.937228 2.944699 1.612549 5.094722.248919.792532.362642 1.154458.497528 1.583107.85631 2.721218 1.450029 4.575401 2.073021 6.454316 6.071668 18.598451 12.155182 37.18811 18.250542 55.768976.804324 2.451868-.341273 5.080265-2.613585 6.211984-1.896996 1.130255-4.341071.958322-6.064092-.488103l-18.40129-15.447339c-1.280763 5.319255-2.037809 8.525338-2.816727 11.972391-.233395 1.042914-.453953 1.917189-.895477 3.596914-.019897.075689-.019897.075689-.03974.151159-.933862 3.551904-1.266727 5.085729-1.420931 6.908531-.226543 2.677896-2.4877 4.737153-5.20161 4.737153h-.399891c-2.261748 0-4.266179-1.442313-4.964671-3.57239-1.550853-4.729379-3.169818-9.671794-5.07787-15.500896.344052 1.051077-7.8660452-24.039098-10.1664671-31.061325-1.8996709-5.798901-3.647686-11.128788-5.3055348-16.176002-5.8556223 17.781881-15.3970408 46.754584-20.6732907 62.779287-1.6333432 4.96069-8.8168402 4.672815-10.0399899-.402347-2.1651512-8.983769-3.9624537-16.450449-5.6388221-23.42873-1.3120342 1.145751-2.8681919 2.442971-5.0857605 4.26504l-.0536377.044071c-3.6084737 2.964904-5.1866096 4.308079-7.0081456 6.028127-.7655611.725526-1.4023418 1.163222-2.5239908 1.841209-.062538.037783-.062538.037783-.122148.073778-.374404.226134-.5566235.341564-.6700849.423387l-.0319733.050809c-.5348468.84339-.9815533 1.399572-1.9056724 2.019618-1.6277715 1.092168-3.6214107 1.271574-5.3951696.594496-3.4398141-1.291077-4.3933354-4.349798-3.7112861-7.163652.0563724-.232569.1105474-.41848.1860095-.658507.0164991-.052331.0164991-.052331.0233121-.073722.5665477-1.817971 1.1688753-3.677941 1.9557751-6.055979.3673784-1.11023 7.8321631-19.356984 22.394354-54.740261z" fill="#000"/>
      <path d="M226.8157828 186.382468c.6007394-.974173 1.7668806-.438817 2.5531424-1.623622-3.7634556 1.211134-7.2883823 1.035608-10.7956402 1.009279-8.4752985-.11664-16.7926253-2.295306-24.2239325-6.34529-9.166157-4.72768-16.7369837-12.019908-21.7768029-20.97544-7.6417584-13.603318-9.4793142-28.0316125-5.1946289-43.0654736 3.3622055-12.1699617 10.9353678-22.7729301 21.3880892-29.9448535 4.5408831-3.2033622 9.7178431-5.1253794 14.7092807-7.5213188 5.6981898-2.755769 11.4847236-3.0453881 17.4656143-2.9751774 11.7797185.1366072 23.1898771 4.1040675 32.4840991 11.2951426 5.888165 4.3586703 10.83594 9.8469222 14.550261 16.1396793 5.194629 8.9255322 8.118817 18.3513156 7.897957 28.8302591-.353377 16.6750353-6.608134 30.5240913-18.914457 41.6524843-7.946338 7.182593-17.846599 11.880405-28.4644457 13.506778-.3187544.048453-.6405125.074846-.9629499.078987-.2396373-.004672-.4786953-.025196-.7155866-.061434zm-30.5670337-14.524834c.4107043.650509 1.0347901 1.140296 1.7668806 1.386661 12.3681639 5.739723 25.0101943 6.529593 37.8819193 1.992228 5.647619-1.842675 10.78835-4.960913 15.018485-9.109835 2.341116-1.448095 4.019653-3.571968 5.715858-5.65196 12.574753-15.53563 14.04609-37.2187552 3.683946-54.2904052-1.510683-2.4749264-2.844677-5.1780374-5.512667-6.7577776 0-.8776335-.636077-1.3691082-1.18381-1.8956883-12.783381-12.2956447-27.9255474-16.683812-45.2939833-12.9363172-7.6255913 1.5622524-14.651177 5.2345035-20.26612 10.5930359-.6054278.2292902-1.1388753.6138761-1.5460205 1.1145945-2.7442236 2.5191854-5.1228048 5.4049343-7.0675222 8.5744788-10.2037353 16.6750357-10.3097481 33.6221378-.7597587 50.6394501.7067522 1.24624 1.3958357 2.632901 2.8005057 3.308679.152278.945936.618758 1.814065 1.3251604 2.46615 1.2456508 1.377884 2.6503209 2.6329 3.8694685 4.010784 2.6931357 2.825356 5.9524059 5.058663 9.5676582 6.555922z" fill="#C4C3C6"/>
      <path d="M270.880234 261.372742c-2.317909-1.379859-4.084768-3.418885-6.026563-5.220612-4.670806-4.332931-9.245396-8.788907-14.187353-13.490973-1.688138 9.17562-3.306301 17.982105-4.933211 26.79738h-.367366c-.533557-1.52927-1.084607-3.040962-1.583176-4.579021-3.043896-9.430498-10.39123-31.842213-13.4088852-41.307866-.2274175-.729479-.9708978-1.555637-.1924302-2.311483.7784675-.755846 1.259543.219723 1.8980614.351557.3755326.085972.7616658.11559 1.1458343.087889 3.4987307-.333979 7.8721437.413078 11.4233557 0 3.245073-.40429 3.498731-5.704001 6.848765-5.510645.841045-.06294 1.67053.226549 2.291669.79979.953404 1.12498 1.005885 0 1.312024-.711901 1.425733 2.381794 8.300738 21.515245 9.044219 23.879462 1.425733 4.570232 3.227579 9.00863 4.530856 13.605229.71724 2.531205 1.486961 5.036044 2.230441 7.549671l-.026241.061523z" fill="#FFF"/>
      <path d="M212.0691162 228.480292c1.0271292-1.040057.5844011-2.369521 1.0448383-3.57237.7437833.524551.5489829 1.202849.4073099 1.763575-1.9480037 7.80495-10.156183 34.014385-12.8479699 41.602279-.566692 1.600783-.8854563 3.282962-1.3636026 4.928966-.1328185.47933-.1062548 1.085277-.9651473 1.211892-.4073099-4.449635-1.7709125-8.691259-2.5678231-13.050454-.7969106-4.359195-1.8948763-8.609863-2.8423145-12.914794-.2656369-1.248069-.4073099-2.034894-1.7709125-.642122-6.3221575 6.330781-12.7505697 12.471639-19.1524183 18.684849-.2111351.13027-.4371448.233542-.6729467.307495 3.5418249-11.304967 13.0870431-40.905892 17.0361779-51.858145.9651473.316539.8234743.777782.7349287 1.121453-.203655.804914-.0442728 1.121453.8411834.904398 1.8636174-.415146 3.8046369.187491 5.1267916 1.591739 1.2219296 1.193804 3.1876424.633078 4.4272811 1.854014 2.266768 2.270038 5.5518106 2.984512 7.7565966 5.363077.4013895.433473.9354831.714208 1.5141302.79587 1.3284866.079249 2.5455518.784341 3.2938972 1.908278zM174.6837907 193.023586c-.8150333-3.047788-1.8856792-6.020225-3.2003725-8.885202-.5035253-1.066568.392579-4.171658 1.2972176-4.653334 1.3978922-.828904 3.1814844-.552074 4.2671634.662304 3.1796451 3.128126 6.1155961 6.49835 8.7818221 10.080791 1.5048503 2.002552 3.2571686 3.803319 5.2144735 5.358646 1.5532475 1.229994 2.7053816 2.924461 4.5914678 3.8018.9473102.44727.6827461 1.195588-.2304268 1.642859-.5574957.305305-1.2155013.364462-1.8178116.163426-.8964053-.281794-1.8434019-.361086-2.7736562-.232237-2.5591966.225735-5.1275049-.315901-7.3821925-1.556846-1.0597956-.522818-2.235941-.759895-3.4137307-.688108-1.8519489 0-2.560298-1.720272-3.6697604-2.864252-.6734615-.881246-1.2460434-1.836312-1.7068654-2.84705l.0426717.017203z" fill="#C4C3C6"/>
      <path d="M173.6103737 186.778362c-.1440202-1.652684-.4801442-3.280695-1.0008899-4.847795-.2175848-.62081.9399662-1.734616 1.7406782-1.679839 1.1997965.040237 2.3304594.598561 3.1245174 1.542895 1.8418993 2.20298 3.5289845 4.543248 5.0479669 7.002371.8720328 1.402527 1.8844752 2.703268 3.0200768 3.880062.8682864 1.093543 1.829622 2.101951 2.8721191 3.012754.6440509.474737.3307289.721235-.4264662.657328-.4923889-.032665-.9700365-.189238-1.3925426-.456478-.64717-.389867-1.3368207-.696401-2.0540003-.912956-1.913937-.617198-3.7126532-1.57449-5.317772-2.830162-.7481249-.559211-1.5726989-.996303-2.445653-1.296398-1.4012459-.511255-1.6710511-1.524636-2.315102-2.328037-.3615556-.545368-.6541117-1.137649-.8703391-1.762004l.0174067.018259z" fill="#FFF"/>
      <path d="M264.927623 195.99723c-1.507394.257266-3.005921.594373-4.522183.745184-1.755829.23319-3.462518.748436-5.054204 1.525852-2.535337 1.063623-5.161867 1.89501-7.847317 2.483945-5.612827 1.321813-11.305457.6476-16.9182836 1.233101-5.9409068.620986-11.8729465 1.410526-17.8315873 1.774246-2.262401.165432-4.5233002-.340657-6.4995293-1.454882-1.3921229-.798411-1.4985272-1.534723-.3014789-2.661369 1.8443412-1.694406 4.1586348-2.08474 6.4817953-2.049255 4.4335125.062099 8.6276153-1.215359 12.9369895-1.836345 2.855182-.416948 5.8167684-.159682 8.7340193-.168554 2.917252-.008871 5.444354-1.15326 7.90052-2.661369 2.23449-1.36617 4.690656-2.377491 6.916279-3.770274 2.225623-1.392784 4.557651-2.457332 6.10938-4.701753 1.099511-1.57908 3.13006-1.392784 4.717258-1.9428 1.935691-.670705 3.378986-2.306542 3.803953-4.311419.886703-3.211387 2.970454-5.775173 4.362577-8.711551 1.028575-2.155709 2.819714-3.929956 3.39607-6.289704.298434-1.476707.731782-2.922876 1.294586-4.32029.666948-1.674868 1.900165-3.062503 3.484741-3.921085 3.972427-2.102482 6.135981-5.517906 7.590173-9.589802.487686-1.357298-.221676-2.554915-.08867-3.823501.369406-4.5152584-.099576-9.0599245-1.383256-13.4044324-.993107-3.6372053-1.143846-7.4695778-2.660108-10.9825858-.629558-1.4460109-.585223-3.16703-.993106-4.7194957-1.214783-4.6573971-2.332028-9.3325366-3.200996-14.0609035-.266011-1.4460109-1.409857-2.404104-2.190156-3.548493-1.198523-1.995245-2.640104-3.833835-4.29164-5.4735505-5.408885-4.8614354-9.957669-10.6987064-16.643406-14.0697747-5.612826-2.8387944-10.897573-6.3784162-17.069023-7.9841093-1.7789961-.33658-3.5926411-.4527799-5.4000179-.3459781-4.5753849-.0443561-9.1419028-.3637205-13.7261547-.3193643-4.0610975.0443561-8.139929-.1774247-12.2098935-.2483945-3.6949109-.1594175-7.3209019 1.0361501-10.1970787 3.3621971-1.1122202.7551286-2.3237724 1.3522355-3.6000122 1.7742465-3.4315386 1.4548821-6.2601196 3.7170464-9.1419027 5.9792107-4.4335125 3.4420382-8.3261365 7.4518353-12.9458565 10.645479-1.3211868.8871232-1.6581337 2.7145971-2.1990222 4.196093-.9753728 2.6613697-2.9970545 4.6396546-4.6640552 6.8042353-2.5891713 3.3533259-4.8413956 6.6977805-4.7527254 11.2043666.0532022 2.7412109.4788194 5.5356491-.6561598 8.2325038-.5054205 1.2153589.6118247 2.6081424.2394096 3.8235012-.7004949 2.2355506-1.07291 4.5420711-2.0039476 6.7510079-1.055176 2.5105588-2.0128147 5.0566026-.6118247 8.1437915 1.401365 2.8843362 2.3551757 5.9654992 2.8285809 9.1373692.2482767 2.040384 1.9241445 3.548493 1.9862136 5.588877.0975373 3.548493 1.6137986 6.884076 1.046309 10.51241-.4610853 2.909765-2.7487778 4.577556-4.0965656 6.875205-.4522182.771798-1.2768516.496789-1.8177401-.124197-3.7418845-4.293676-7.820716-8.525254-7.5990404-14.735117-.0456356-2.991406.1173219-5.982354.4876864-8.951074.0709362-.43469.2305426-1.037934 0-1.321813-2.0482828-2.73234-.1418724-5.25177.4344842-7.7978136.5090609-1.5892952.926498-3.2065206 1.2502505-4.8436929.2482767-2.2621643 1.3832559-4.2404492 1.773405-6.4759998 1.0890221-5.1739554 1.0132992-10.5255559-.2216756-15.6665966-1.3341931-5.5354297-.8586864-11.3530452 1.3566548-16.598076.8267605-2.3497575 1.9028602-4.6040962 3.2098631-6.7243942 1.2679845-1.8984438 3.2807992-2.9008931 4.610853-4.6130409 2.1103519-2.7057259 5.1074064-2.6613698 7.9803225-2.6613698 3.6532143 0 6.2069175-2.0758684 8.521211-4.4356162 2.3142935-2.3597479 4.9389329-3.9565697 6.9872157-6.4050299 1.773405-2.1645807 3.54681-4.3202902 3.919225-7.2566682.1684735-1.3395561 1.3123197-2.0936109 2.1724212-2.8742793 3.6354802-3.282356 7.2532264-6.600197 11.7576751-8.7292928.3428131-.1713173.7169319-.27092839 1.0995111-.29275068 4.1359566.0083605 8.2066933 1.03185828 11.8552124 2.98073408 2.3054265 1.144389 4.5487839 2.4484602 6.9162795 3.433167 1.1589596.4205302 2.1845034 1.1433457 2.9704534 2.0936109 1.4364581 1.9161862 3.54681 2.7412108 5.4532204 3.9122135.4358587.2890569.9716276.3853485 1.4807932.266137 2.2788254-.5500164 4.4335122 0 6.5970662.6919561 1.250251.3992055 2.553704.2483945 3.830555.4790466 3.318002.7700125 6.517915 1.9813646 9.514318 3.6017204 4.342884 1.981843 8.467617 4.4108821 12.307431 7.2477969 1.870942 1.4371397 4.300507 1.9605424 6.10938 3.548493 4.211837 3.6904328 8.512344 7.3276381 12.192159 11.5326023 2.784246 3.1847725 4.167502 7.327638 6.011843 11.1245256 2.199022 4.5065861 5.009869 8.6760653 7.386232 13.0761967 1.810767 3.4744911 2.899641 7.2798126 3.200996 11.1866242.576357 6.1477641.186208 12.251172-2.030549 18.0618296-.939904 2.44846-1.986213 4.932405-2.766511 7.363123-1.152714 3.619463-3.263066 6.26309-5.710365 8.871232-1.312319 1.392784-2.828581 2.608143-3.431538 4.586427-.253921.722459-.397409 1.47912-.425617 2.244422 0 3.30897-.070937 6.61794 0 9.926909.26109 5.355904-2.138149 10.495301-6.410859 13.732668-2.536125 2.209795-5.23653 4.223455-8.07786 6.023567-.925655.597062-1.974651.976214-3.067991 1.108904l-.097537-.079841.141872.07097z" fill="#C4C3C6"/>
      <path d="M295.548088 121.6705295c-.298368-3.8465705-1.388118-7.5931307-3.202946-11.011721-2.373214-4.3326244-5.183598-8.4279652-7.378375-12.8660491-1.846824-3.7438093-3.229711-7.8215735-6.01333-10.9589912-3.675804-4.1392822-7.976139-7.7161141-12.187254-11.3456758-1.784371-1.5643147-4.237882-2.0740352-6.111471-3.515314-3.8473-2.7843083-7.976229-5.1697989-12.321082-7.1185107-3.042353-1.4412787-6.102549-2.9177106-9.510698-3.515314-1.275825-.2284954-2.578416-.0703062-3.827476-.4745674-2.1501669-.6854862-4.3181777-1.2215716-6.6021727-.6854862-.5090335.1133051-1.0429758.0113029-1.4721061-.2812251-1.909277-1.1512653-4.005913-1.9597875-5.4423317-3.8492688-.7862812-.9325017-1.8078405-1.6447679-2.9620559-2.0652469-2.3732135-.9667114-4.6125991-2.2410127-6.9233596-3.3747014-3.6425951-1.91935827-7.7082968-2.92735707-11.8393019-2.93528717-.3821071.02157377-.7556333.12028779-1.0973882.2900134-4.4609276 2.09161177-8.1278101 5.36085377-11.7590052 8.59494267-.8921855.7645807-1.9984955 1.5027967-2.1680108 2.8210394-.3657961 2.8913457-2.1055578 5.0181107-3.9256163 7.1536639-2.0609485 2.3992018-4.7375051 4.0689759-6.9858126 6.2836237s-4.8891767 4.3326244-8.5114499 4.3941424c-2.8906811 0-5.8795026 0-8.0296697 2.6364855-1.3382783 1.6873507-3.3456957 2.6804269-4.621521 4.5523316-1.3043447 2.0869439-2.3781123 4.3054457-3.202946 6.6175785-2.1970979 5.1750368-2.6474935 10.9086324-1.2847472 16.3549982 1.2318739 5.0461275 1.3141397 10.2983386.2408901 15.3794985-.4371709 2.1970712-1.5702465 4.1480705-1.784371 6.3715066-.0446093.3339548-.1070623.6679096-.1784371.9930761.9546385-1.511585 1.9003551-3.0407465 2.8549936-4.5699081.5570051-.9342478 1.1990447-1.8167048 1.9181989-2.6364855.7795189-4.412055.6307206-8.9348051-.4371709-13.2878867-1.3032224-5.165649-.8840471-10.6072983 1.1955286-15.5201111.7829679-2.1858316 1.7998359-4.2833927 3.0334308-6.2572589 1.2044504-1.7576569 3.1048056-2.7067917 4.371709-4.3062595 1.9895737-2.5134495 4.8178018-2.4607198 7.5568114-2.4782964 3.452758 0 5.8705807-1.9334227 8.0296697-4.1129173 2.159089-2.1794947 4.6750521-3.6822914 6.6110947-5.9584572 1.7219181-2.0125172 3.3635394-4.0250344 3.7114918-6.7669793.1605934-1.2391482 1.2401379-1.942211 2.0520267-2.6364855 3.4349142-3.0495348 6.8698285-6.1517994 11.1166316-8.1203752.3253286-.1616374.6802995-.2572699 1.043857-.2812251 3.9127129.0072062 7.7637543.9608341 11.2147721 2.777098 2.1769326 1.0721707 4.3003342 2.2761658 6.5486417 3.1989357 1.0906484.394064 2.0568203 1.0638962 2.8014625 1.9422109 1.356122 1.757657 3.3456957 2.5573909 5.1479105 3.6471383.4120808.2697742.9193798.3588934 1.4007312.2460719 2.0354617-.3660677 4.134367-.1620598 6.0579397.5888151.4210028.0490164.8382628.1253474 1.2490598.2284954l.2854994.0790946c.758358.0703063 1.516715.061518 2.275073.2021306 3.137123.7121533 6.162215 1.8384479 8.99323 3.3483365 4.093994 1.8461984 7.981189 4.1082534 11.598412 6.7494028 1.784371 1.3446076 4.068366 1.8279632 5.781362 3.3043951 4.078587 3.3254304 7.929342 6.913027 11.527037 10.7392841 2.631947 2.961652 3.94346 6.8197091 5.692144 10.3613879 2.078792 4.2008002 4.737505 8.0764338 6.985812 12.1717746 1.71136 3.237867 2.740158 6.7832566 3.024509 10.4229059.133828 1.4412787.214125 2.8913457.223047 4.3238361.112187.2993506.240243.5926967.383639.8788285.410406.6854862.847577 1.4061256 1.026014 1.757657 1.011143 1.8455398 2.007417 3.6764325 2.988821 5.492678 1.071621-4.5787151 1.355114-9.3021769.838655-13.9733729z" fill="#FFF"/>
      <path d="M250.190995 89.0340263c4.076929 2.217164 7.372225 4.2474406 9.948062 8.155086 3.397937 1.3466088 6.285756 3.6521373 8.278209 6.6090177-4.023636-9.8370726-12.115318-16.46308-20.882048-21.7638859-4.627625-2.794816-9.397365-5.7510346-14.4246897-7.7473317-5.0273242-1.9962971-10.3477609-2.1576999-15.6681976-1.4526247-5.4980807.7220649-11.3336849 1.6140274-16.3787735 4.0605532-5.0885107 2.3574456-9.9355723 5.1644619-14.4779831 8.3844478-3.3397065 2.438031-6.1287167 5.6745807-8.7933762 8.9196254l-.0799398.0764539-.1154686.1529079c-.630636.7730342-1.2523899 1.5375735-1.883026 2.2936179-3.0827037 3.6338235-5.7980161 7.5391417-8.109447 11.6634721 1.6178443-1.6718893 3.5686627-3.0177717 5.7379001-3.9586147 1.119157-1.6140275 2.3093715-3.1855805 3.5528793-4.723154l2.6113662-3.21956c2.105081-.9599216 3.2775312-2.650403 4.6365075-4.4003485 3.9071077-3.1158605 8.1361722-5.8426562 12.6216037-8.1380963 8.373801-3.4789283 17.4195756-5.2329272 26.5488904-5.1478981 5.0961384-.0503268 10.1175842 1.1737202 14.5668053 3.5508604 4.12134 2.1916794 8.207151 4.4598127 12.310726 6.6854716zm-19.0434325-12.2835984c-.2131727-.1274232-.4352277-.2463515-.6572827-.3652799.2575838.076454.5151675.1529079.7638691.2463516.2487015.0934437.7016937.2633413 1.0480994.3992594-.3819345-.1359181-.7727513-.1953823-1.1546858-.2803311zM247.5794 164.901218c3.831379-2.217425 6.919488-4.24794 9.335114-8.147549 3.236111-1.387642 5.948676-3.698452 7.768939-6.618292-3.769439 9.83823-11.370258 16.465018-19.590468 21.766447-4.344588 2.795145-8.848449 5.760207-13.5381277 7.748244-4.6896784 1.988036-9.7332948 2.166449-14.7061235 1.461291-5.1586462-.730646-10.6181398-1.614217-15.3963026-4.027047-4.7917796-2.387767-9.3366723-5.206885-13.573522-8.419418-3.1323512-2.438318-5.7514923-5.683745-8.2556036-8.929171l-.0707876-.076463-.1061814-.152926c-.5928461-.764629-1.1768438-1.537754-1.76969-2.285392-2.8923004-3.658509-5.4305502-7.563008-7.5831214-11.664844 1.4995971 1.651746 3.3289483 2.997981 5.3798574 3.95908 1.0529656 1.614217 2.1767187 3.185955 3.3447141 4.72371.8052089 1.053489 1.6192663 2.140962 2.4510205 3.211443 1.9732043.96853 3.0704121 2.659211 4.3534373 4.409362 3.6426737 3.098793 7.6103164 5.826409 11.8392258 8.139054 7.8138397 3.448152 16.3270111 5.189145 24.926083 5.097528 4.8071987.042961 9.5339211-1.185695 13.6620067-3.551278 3.849075-2.132466 7.680454-4.409362 11.52953-6.643779zm-17.8738687 12.29354c-.2035144.127438-.4070287.237885-.610543.356827.2389081-.076463.4778162-.152926.7167244-.246381.2389081-.093454.6547853-.263372.9821779-.399306-.3627864.110447-.7255729.195405-1.0883593.28886zM268.566667 184.033736c.504325-2.139013 1.26635-4.209544 2.269517-6.166601.401004-.772948-.998247-2.437761-2.056217-2.548182-1.660299-.153109-3.312372.36756-4.581693 1.44397-2.922774 2.552864-5.659894 5.308991-8.190738 8.247616-1.477044 1.683368-3.136667 3.19885-4.94857 4.518776-1.527231 1.121201-2.559605 2.429267-4.487841 3.397577-.972651.501142-.580178.891863.477793.942827.683773.042316 1.367902-.077018 1.996492-.348252.959396-.404558 1.965226-.689841 2.994738-.849394 2.748997-.457899 5.398412-1.383067 7.832392-2.735048 1.130815-.592843 2.34445-1.013715 3.600512-1.24861 2.03062-.416203 2.559605-1.698788 3.609044-2.624627.592074-.648433 1.096858-1.370822 1.501635-2.148967l-.017064.118915z" fill="#FFF"/>
      <path d="M240.92048 106.7769464l-7.0719293-3.3476781-32.8432562 3.3747483-1.0412657 1.0828069c.0867721 1.9129589.164867 3.8349412.2342848 5.7479001l.6160822.6316374 14.6644922.5414035c.2689936 11.558964 1.4838036 19.8514604 1.6139619 25.5632665.8098733 4.006386.0347088 6.538951-2.3254935 7.597696-2.2819138 1.206142-4.7332836 2.028454-7.2628284 2.436315 0 2.707018 15.341315 2.418269 10.8812268 2.806275l-10.4386888.568474-.9892025 4.890678 5.3278096 4.23197 15.94872-.577497c5.3538412-.288749 9.8052519-1.804678 12.0786819-4.367321 1.330341-1.351779 2.043617-3.229084 1.961051-5.16138l-1.353646-46.0192946z" fill="#000"/>
      <path d="M234.035804 103.4292683l-34.0717752.1135227c.1285081 2.4538359.2484489 4.9164043.3512554 7.3702402l18.3081174.3842305.291285 32.3714223c0 2.619754-2.8186105 4.444849-7.1107803 4.837812l-10.0493316.602543 4.2321993 8.837302 15.3181629-.637473c5.1403231-.305638 9.4239256-1.825095 11.608563-4.296396 1.2863961-1.334042 1.9720351-3.152364 1.8933521-5.021194l-.771048-44.5620097z" fill="#C4C3C6"/>
      <path d="M235.365208 100.9512195l-35.4011792.2678342c0 .5892353.060441 1.1695428.0949788 1.7855615l31.9474057.6606577v45.3354061c0 3.624689-4.058184 6.249465-10.1454599 6.767277l-14.2727194.892781.6734858 1.285604 13.3142972-.562451c5.4655967-.330329 10.0332123-1.937335 12.3904128-4.517471 1.3733212-1.372498 2.1306502-3.27514 2.0895332-5.249551l-.690755-46.6656485z" fill="#FFF"/>
    </g>
  </g>
</svg>
