<svg width="16" height="17" viewBox="0 0 16 17" fill="none" xmlns="http://www.w3.org/2000/svg">
<path fill-rule="evenodd" clip-rule="evenodd" d="M10.478 12.8483C9.49718 13.5467 8.2973 13.9575 7.00146 13.9575C3.68776 13.9575 1.00146 11.2712 1.00146 7.95752C1.00146 4.64381 3.68776 1.95752 7.00146 1.95752C10.3152 1.95752 13.0015 4.64381 13.0015 7.95752C13.0015 9.25335 12.5907 10.4532 11.8922 11.4341L14.9986 14.5404L13.5844 15.9546L10.478 12.8483ZM11.0015 7.95752C11.0015 10.1667 9.2106 11.9575 7.00146 11.9575C4.79233 11.9575 3.00146 10.1667 3.00146 7.95752C3.00146 5.74838 4.79233 3.95752 7.00146 3.95752C9.2106 3.95752 11.0015 5.74838 11.0015 7.95752Z" fill="#A7AEB7"/>
</svg>
