<svg width="20" height="21" viewBox="0 0 20 21" fill="#A7AEB7" xmlns="http://www.w3.org/2000/svg">
<path d="M3 5.99609C3 5.44381 3.44772 4.99609 4 4.99609H16C16.5523 4.99609 17 5.44381 17 5.99609V6.6664C17 6.86641 16.8808 7.04718 16.697 7.12597L10.3939 9.82727C10.1424 9.93508 9.85763 9.93508 9.60608 9.82727L3.30304 7.12597C3.1192 7.04718 3 6.86641 3 6.6664V5.99609Z" fill="inherit"/>
<path d="M3 9.75436C3 9.39541 3.36703 9.15339 3.69696 9.29479L9.60608 11.8273C9.85763 11.9351 10.1424 11.9351 10.3939 11.8273L16.303 9.29479C16.633 9.15339 17 9.39541 17 9.75436V15.9961C17 16.5484 16.5523 16.9961 16 16.9961H4C3.44772 16.9961 3 16.5484 3 15.9961V9.75436Z" fill="inherit"/>
</svg>
