<svg width="24" height="24" viewBox="0 0 24 24" fill="none" xmlns="http://www.w3.org/2000/svg">
<g id="Settings">
<path id="Vector" d="M19.2905 9.04543C19.1346 8.59356 19.0942 8.06165 19.316 7.63823L20.4 5.56875L18.5625 3.73125L16.4957 4.81386C16.0706 5.03652 15.5569 5.00099 15.1006 4.85241C15.0864 4.84778 15.0721 4.8432 15.0578 4.83866C14.6299 4.70332 14.2766 4.3922 14.1347 3.96648L13.3125 1.5H10.6875L9.84878 3.91133C9.71555 4.29436 9.42881 4.57729 9.04543 4.70951C8.59356 4.86536 8.06165 4.90581 7.63823 4.68401L5.56875 3.6L3.6 5.56875L4.68401 7.63823C4.90581 8.06165 4.86536 8.59356 4.70951 9.04543C4.57729 9.42881 4.29436 9.71555 3.91133 9.84878L1.5 10.6875V13.3125L3.84869 14.1294C4.26681 14.2749 4.58386 14.6225 4.7578 15.0296C4.80079 15.1302 4.84429 15.2303 4.88553 15.3327C5.00579 15.6312 4.96124 15.9638 4.81191 16.2489L3.6 18.5625L5.4375 20.4L7.50429 19.3174C7.92937 19.0947 8.44312 19.1303 8.8994 19.2788C8.91712 19.2846 8.93492 19.2903 8.95279 19.2959C9.37514 19.4286 9.72513 19.7332 9.87057 20.1513L10.6875 22.5H13.3125L14.1294 20.1513C14.2749 19.7332 14.6225 19.4161 15.0296 19.2422C15.1302 19.1992 15.2303 19.1557 15.3327 19.1145C15.6312 18.9942 15.9638 19.0388 16.2489 19.1881L18.5625 20.4L20.4 18.5625L19.3174 16.4957C19.0947 16.0706 19.1303 15.5569 19.2788 15.1006C19.2846 15.0829 19.2903 15.0651 19.2959 15.0472C19.4286 14.6249 19.7332 14.2749 20.1513 14.1294L22.5 13.3125V10.6875L20.0887 9.84878C19.7056 9.71555 19.4227 9.42881 19.2905 9.04543ZM12 15.9375C9.76875 15.9375 8.0625 14.2312 8.0625 12C8.0625 9.76875 9.76875 8.0625 12 8.0625C14.2312 8.0625 15.9375 9.76875 15.9375 12C15.9375 14.2312 14.2312 15.9375 12 15.9375Z" fill="#564FFF"/>
</g>
</svg>
