<svg xmlns="http://www.w3.org/2000/svg" xmlns:xlink="http://www.w3.org/1999/xlink" viewBox="0 0 535.45 535.45"><defs><style>.cls-1,.cls-2,.cls-3{fill:none;}.cls-2,.cls-3,.cls-4{stroke:#4038ff;stroke-linecap:square;stroke-miterlimit:10;}.cls-2{stroke-width:2px;}.cls-3,.cls-4{stroke-width:12px;}.cls-4{fill:url(#lines);}</style><pattern id="lines" data-name="lines" width="16" height="16" patternTransform="translate(6.01 -6.85)" patternUnits="userSpaceOnUse" viewBox="0 0 16 16"><rect class="cls-1" width="16" height="16"/><line class="cls-2" x1="1.98" y1="78.02" x2="67.98" y2="12.02"/><line class="cls-2" x1="-14.02" y1="78.02" x2="51.98" y2="12.02"/><line class="cls-2" x1="-30.02" y1="78.02" x2="35.98" y2="12.02"/><line class="cls-2" x1="-46.02" y1="78.02" x2="19.98" y2="12.02"/><line class="cls-2" x1="-62.02" y1="78.02" x2="3.98" y2="12.02"/><line class="cls-2" x1="1.98" y1="62.02" x2="67.98" y2="-3.98"/><line class="cls-2" x1="-14.02" y1="62.02" x2="51.98" y2="-3.98"/><line class="cls-2" x1="-30.02" y1="62.02" x2="35.98" y2="-3.98"/><line class="cls-2" x1="-46.02" y1="62.02" x2="19.98" y2="-3.98"/><line class="cls-2" x1="-62.02" y1="62.02" x2="3.98" y2="-3.98"/><line class="cls-2" x1="1.98" y1="46.02" x2="67.98" y2="-19.98"/><line class="cls-2" x1="-14.02" y1="46.02" x2="51.98" y2="-19.98"/><line class="cls-2" x1="-30.02" y1="46.02" x2="35.98" y2="-19.98"/><line class="cls-2" x1="-46.02" y1="46.02" x2="19.98" y2="-19.98"/><line class="cls-2" x1="-62.02" y1="46.02" x2="3.98" y2="-19.98"/><line class="cls-2" x1="1.98" y1="30.02" x2="67.98" y2="-35.98"/><line class="cls-2" x1="-14.02" y1="30.02" x2="51.98" y2="-35.98"/><line class="cls-2" x1="-30.02" y1="30.02" x2="35.98" y2="-35.98"/><line class="cls-2" x1="-46.02" y1="30.02" x2="19.98" y2="-35.98"/><line class="cls-2" x1="-62.02" y1="30.02" x2="3.98" y2="-35.98"/><line class="cls-2" x1="1.98" y1="14.02" x2="67.98" y2="-51.98"/><line class="cls-2" x1="-14.02" y1="14.02" x2="51.98" y2="-51.98"/><line class="cls-2" x1="-30.02" y1="14.02" x2="35.98" y2="-51.98"/><line class="cls-2" x1="-46.02" y1="14.02" x2="19.98" y2="-51.98"/><line class="cls-2" x1="-62.02" y1="14.02" x2="3.98" y2="-51.98"/></pattern></defs><g id="Warstwa_2" data-name="Warstwa 2"><g id="Slow_Processing" data-name="Slow Processing"><line class="cls-3" x1="197.26" y1="66.4" x2="197.26" y2="6"/><line class="cls-3" x1="398.59" y1="66.4" x2="398.59" y2="6"/><line class="cls-3" x1="297.92" y1="66.4" x2="297.92" y2="6"/><line class="cls-3" x1="66.4" y1="398.59" x2="6" y2="398.59"/><line class="cls-3" x1="66.4" y1="197.26" x2="6" y2="197.26"/><line class="cls-3" x1="66.4" y1="297.92" x2="6" y2="297.92"/><rect class="cls-3" x="66.4" y="66.4" width="463.05" height="463.05" rx="50.33"/><circle class="cls-3" cx="368.39" cy="368.39" r="30.2"/><path class="cls-4" d="M479.11,66.4H116.72a50.33,50.33,0,0,0-50.33,50.33V479.12a50.33,50.33,0,0,0,50.33,50.33H479.11a50.33,50.33,0,0,0,50.33-50.33V116.73A50.33,50.33,0,0,0,479.11,66.4ZM459,459H136.86V136.86H459Z"/></g></g></svg>