<?xml version="1.0" encoding="UTF-8"?>
<svg width="1200px" height="400px" viewBox="0 0 1200 400" version="1.1" xmlns="http://www.w3.org/2000/svg"
    xmlns:xlink="http://www.w3.org/1999/xlink">
    <title>447FE404-3230-44A9-9831-81C7859DE974</title>
    <g id="Hydra-Page" stroke="none" stroke-width="1" fill="none" fill-rule="evenodd">
        <g id="Hydra-Page_v3" transform="translate(-120.000000, -3070.000000)">
            <g id="Section-#2" transform="translate(120.000000, 2854.000000)">
                <g id="Snippets" transform="translate(0.000000, 216.000000)">
                    <rect id="Rectangle" fill="#4038FF" x="600" y="0" width="600" height="400"></rect>
                    <path
                        d="M1128.8,343.50009 L1122.49997,343.50009 C1122.5,351.783969 1129.2164,358.50042 1137.5,358.50042 C1145.7836,358.50042 1152.5,351.783969 1152.5,343.50009 L1146.2,343.50009 C1146.2,339.35791 1149.5579,336 1153.7,336 L1160,336 L1160,343.50009 C1160,355.927709 1149.9278,366 1137.5,366 C1125.0722,366 1115,355.927709 1115,343.50009 L1115,336 L1121.3,336 C1125.44213,336 1128.8,339.35791 1128.8,343.50009 Z"
                        id="Path" fill="#FFFFFF"></path>
                    <path
                        d="M1137.5,351.900191 C1137.5,351.900191 1131.5,349.601083 1131.5,343.563391 L1131.5,336 L1137.5,338.21262 L1143.5,336 L1143.5,343.563391 C1143.5,349.738485 1137.5,351.900191 1137.5,351.900191 Z"
                        id="Path" fill="#FFFFFF"></path>
                    <rect id="Rectangle-Copy" fill="#000000" x="5.68434189e-14" y="0" width="600" height="400"></rect>
                    <path
                        d="M600,4.4 L600,0 L560,0 L560,4.4 L600,4.4 Z M600,9.2 L600,13.6 L560,13.6 L560,9.2 L600,9.2 Z M600,17.6 L600,22 L560,22 L560,17.6 L600,17.6 Z M600,30.8 L600,26.4 L560,26.4 L560,30.8 L600,30.8 Z M600,35.6 L600,40 L560,40 L560,35.6 L600,35.6 Z"
                        id="Shape" fill="#4038FF"></path>
                    <path
                        d="M600,164.4 L600,160 L560,160 L560,164.4 L600,164.4 Z M600,169.2 L600,173.6 L560,173.6 L560,169.2 L600,169.2 Z M600,177.6 L600,182 L560,182 L560,177.6 L600,177.6 Z M600,190.8 L600,186.4 L560,186.4 L560,190.8 L600,190.8 Z M600,195.6 L600,200 L560,200 L560,195.6 L600,195.6 Z"
                        id="Shape-Copy-4" fill="#4038FF"></path>
                    <path
                        d="M600,84.4 L600,80 L560,80 L560,84.4 L600,84.4 Z M600,89.2 L600,93.6 L560,93.6 L560,89.2 L600,89.2 Z M600,97.6 L600,102 L560,102 L560,97.6 L600,97.6 Z M600,110.8 L600,106.4 L560,106.4 L560,110.8 L600,110.8 Z M600,115.6 L600,120 L560,120 L560,115.6 L600,115.6 Z"
                        id="Shape-Copy-2" fill="#4038FF"></path>
                    <path
                        d="M600,244.4 L600,240 L560,240 L560,244.4 L600,244.4 Z M600,249.2 L600,253.6 L560,253.6 L560,249.2 L600,249.2 Z M600,257.6 L600,262 L560,262 L560,257.6 L600,257.6 Z M600,270.8 L600,266.4 L560,266.4 L560,270.8 L600,270.8 Z M600,275.6 L600,280 L560,280 L560,275.6 L600,275.6 Z"
                        id="Shape-Copy-5" fill="#4038FF"></path>
                    <path
                        d="M600,324.4 L600,320 L560,320 L560,324.4 L600,324.4 Z M600,329.2 L600,333.6 L560,333.6 L560,329.2 L600,329.2 Z M600,337.6 L600,342 L560,342 L560,337.6 L600,337.6 Z M600,350.8 L600,346.4 L560,346.4 L560,350.8 L600,350.8 Z M600,355.6 L600,360 L560,360 L560,355.6 L600,355.6 Z"
                        id="Shape-Copy-8" fill="#4038FF"></path>
                    <path
                        d="M640,44.4 L640,40 L600,40 L600,44.4 L640,44.4 Z M640,49.2 L640,53.6 L600,53.6 L600,49.2 L640,49.2 Z M640,57.6 L640,62 L600,62 L600,57.6 L640,57.6 Z M640,70.8 L640,66.4 L600,66.4 L600,70.8 L640,70.8 Z M640,75.6 L640,80 L600,80 L600,75.6 L640,75.6 Z"
                        id="Shape-Copy" fill="#000000"
                        transform="translate(620.000000, 60.000000) rotate(-90.000000) translate(-620.000000, -60.000000) ">
                    </path>
                    <path
                        d="M640,204.4 L640,200 L600,200 L600,204.4 L640,204.4 Z M640,209.2 L640,213.6 L600,213.6 L600,209.2 L640,209.2 Z M640,217.6 L640,222 L600,222 L600,217.6 L640,217.6 Z M640,230.8 L640,226.4 L600,226.4 L600,230.8 L640,230.8 Z M640,235.6 L640,240 L600,240 L600,235.6 L640,235.6 Z"
                        id="Shape-Copy-6" fill="#000000"
                        transform="translate(620.000000, 220.000000) rotate(-90.000000) translate(-620.000000, -220.000000) ">
                    </path>
                    <path
                        d="M640,124.4 L640,120 L600,120 L600,124.4 L640,124.4 Z M640,129.2 L640,133.6 L600,133.6 L600,129.2 L640,129.2 Z M640,137.6 L640,142 L600,142 L600,137.6 L640,137.6 Z M640,150.8 L640,146.4 L600,146.4 L600,150.8 L640,150.8 Z M640,155.6 L640,160 L600,160 L600,155.6 L640,155.6 Z"
                        id="Shape-Copy-3" fill="#000000"
                        transform="translate(620.000000, 140.000000) rotate(-90.000000) translate(-620.000000, -140.000000) ">
                    </path>
                    <path
                        d="M640,284.4 L640,280 L600,280 L600,284.4 L640,284.4 Z M640,289.2 L640,293.6 L600,293.6 L600,289.2 L640,289.2 Z M640,297.6 L640,302 L600,302 L600,297.6 L640,297.6 Z M640,310.8 L640,306.4 L600,306.4 L600,310.8 L640,310.8 Z M640,315.6 L640,320 L600,320 L600,315.6 L640,315.6 Z"
                        id="Shape-Copy-7" fill="#000000"
                        transform="translate(620.000000, 300.000000) rotate(-90.000000) translate(-620.000000, -300.000000) ">
                    </path>
                    <path
                        d="M640,364.4 L640,360 L600,360 L600,364.4 L640,364.4 Z M640,369.2 L640,373.6 L600,373.6 L600,369.2 L640,369.2 Z M640,377.6 L640,382 L600,382 L600,377.6 L640,377.6 Z M640,390.8 L640,386.4 L600,386.4 L600,390.8 L640,390.8 Z M640,395.6 L640,400 L600,400 L600,395.6 L640,395.6 Z"
                        id="Shape-Copy-9" fill="#000000"
                        transform="translate(620.000000, 380.000000) rotate(-90.000000) translate(-620.000000, -380.000000) ">
                    </path>
                    <text id="{-hero-{-name-#-Quer" font-family="PxGrotesk-Bold, Px Grotesk" font-size="20"
                        font-weight="bold" line-spacing="28" fill="#FFFFFF">
                        <tspan x="80" y="92">{</tspan>
                        <tspan x="80" y="120"> hero {</tspan>
                        <tspan x="80" y="148"> name</tspan>
                        <tspan x="80" y="176"> # Queries can have vomments!</tspan>
                        <tspan x="80" y="204"> friends {</tspan>
                        <tspan x="80" y="232"> name</tspan>
                        <tspan x="80" y="260"> }</tspan>
                        <tspan x="80" y="288"> }</tspan>
                        <tspan x="80" y="316">}</tspan>
                    </text>
                    <text id="{-&quot;data&quot;-:-{-&quot;hero&quot;" font-family="PxGrotesk-Bold, Px Grotesk"
                        font-size="20" font-weight="bold" line-spacing="28" fill="#FFFFFF">
                        <tspan x="720" y="64">{</tspan>
                        <tspan x="720" y="92"> "data" : {</tspan>
                        <tspan x="720" y="120"> "hero" : {</tspan>
                        <tspan x="720" y="148"> "name" : "R2-D2",</tspan>
                        <tspan x="720" y="176"> "friends" : [</tspan>
                        <tspan x="720" y="204"> {</tspan>
                        <tspan x="720" y="232"> "name" : "Luke Skywalker"</tspan>
                        <tspan x="720" y="260"> },</tspan>
                        <tspan x="720" y="288"> {</tspan>
                        <tspan x="720" y="316"> "name" : "Han Solo"</tspan>
                        <tspan x="720" y="344"> },</tspan>
                    </text>
                </g>
            </g>
        </g>
    </g>
</svg>