<svg xmlns="http://www.w3.org/2000/svg" viewBox="0 0 720 600">
    <g fill="none" fill-rule="evenodd">
        <path d="M586.66 279.39h-6.653v-6.653h6.653v-6.67h-6.653v-6.67h6.653v-6.654h6.67v-6.67h-6.67v6.654h-6.653v-6.653h6.653V239.4h-6.67v6.67h-6.653v6.653h-6.67v-6.653h-6.67v6.653h-6.653v-6.653h6.653v-6.67h-6.67v6.67h-6.653v-6.67H540v6.67h6.67v6.653H540v6.67h6.67v6.67H540v6.67h6.67v6.67h6.653v6.654h6.67v-6.654h6.67v6.654h6.67v-6.654h6.654v6.654h6.67v-6.654h6.67v-6.67h-6.67v6.657h.003zm-39.99.016v6.654H540v-6.67h6.67v.016zm19.993-33.336v-6.67h6.67v6.67h-6.67zm19.997 13.324v6.67h6.67v-6.67h-6.67zm-33.337-6.654h-6.653v6.654h6.653v-6.654zm.017 33.32v6.67h6.653v-6.67h6.67v6.67h6.67v-6.67h6.67v6.67h6.654v-6.67h6.67v6.67h-6.67v6.67h-6.67v-6.67h-6.653v6.67h-6.67v-6.67h-6.67v6.67h-6.67v-6.67h-6.654v6.67H540v-6.67h6.67v-6.67h6.67zm26.647-13.323v-6.67h-6.653v6.67h6.653zm-13.324 0v6.653h6.67v-6.653h-6.67zm-6.67 0h6.67v-6.67h-6.67v6.67zm0 0h-6.653v6.653h6.653v-6.653zm0-13.343h-6.653v6.67h6.653v-6.67zm6.67 0v-6.654h-6.67v6.654h6.67zm6.674 0h-6.67v6.67h6.67v-6.67zm0 0h6.653v-6.654h-6.653v6.654zm-20.014 6.67v6.67h-6.653v-6.67h6.653zM600 246.07h-6.67v-6.67H600v6.67zm-6.67 13.324H600v-6.67h-6.67v6.67zm6.67 13.343h-6.67v-6.67H600v6.67zm-6.67 13.323H600v-6.67h-6.67v6.67zm0 13.34H600v-6.67h-6.67v6.67z" fill="#4038FF"/>
        <path d="M166.66 39.39h-6.653v-6.653h6.653v-6.67h-6.653v-6.67h6.653v-6.654h6.67v-6.67h-6.67v6.654h-6.653V6.074h6.653V-.6h-6.67v6.67h-6.653v6.653h-6.67V6.07h-6.67v6.653h-6.653V6.07h6.653V-.6h-6.67v6.67h-6.653V-.6H120v6.67h6.67v6.653H120v6.67h6.67v6.67H120v6.67h6.67v6.67h6.653v6.654h6.67v-6.654h6.67v6.654h6.67v-6.654h6.654v6.654h6.67v-6.654h6.67v-6.67h-6.67v6.657h.003zm-39.99.016v6.654H120v-6.67h6.67v.016zM146.663 6.07V-.6h6.67v6.67h-6.67zm19.997 13.324v6.67h6.67v-6.67h-6.67zm-33.337-6.654h-6.653v6.654h6.653V12.74zm.017 33.32v6.67h6.653v-6.67h6.67v6.67h6.67v-6.67h6.67v6.67h6.654v-6.67h6.67v6.67h-6.67v6.67h-6.67v-6.67h-6.653v6.67h-6.67v-6.67h-6.67v6.67h-6.67v-6.67h-6.654v6.67H120v-6.67h6.67v-6.67h6.67zm26.647-13.323v-6.67h-6.653v6.67h6.653zm-13.324 0v6.653h6.67v-6.653h-6.67zm-6.67 0h6.67v-6.67h-6.67v6.67zm0 0h-6.653v6.653h6.653v-6.653zm0-13.343h-6.653v6.67h6.653v-6.67zm6.67 0V12.74h-6.67v6.654h6.67zm6.674 0h-6.67v6.67h6.67v-6.67zm0 0h6.653V12.74h-6.653v6.654zm-20.014 6.67v6.67h-6.653v-6.67h6.653zM180 6.07h-6.67V-.6H180v6.67zm-6.67 13.324H180v-6.67h-6.67v6.67zM180 32.737h-6.67v-6.67H180v6.67zm-6.67 13.323H180v-6.67h-6.67v6.67zm0 13.34H180v-6.67h-6.67v6.67z" fill="#1F242C"/>
        <path d="M353.33 299.4H360v60h-6.67v-60zm-6.663 0H340v60h6.667v-60zm-13.333 0h-6.667v60h6.667v-60zm-20 0H320v60h-6.667v-60zm-6.667 0H300v60h6.667v-60z" fill="#4038FF"/>
        <path d="M364.7 419.4H360v4.7l55.3 55.3h4.7v-4.7l-55.3-55.3zm41.166 60h-9.433L360 442.967v-9.434l45.866 45.867zm-18.866 0h-9.433L360 461.833V452.4l27 27zm-27 0v-8.133l8.133 8.133H360zm60-23.567v9.434L374.133 419.4h9.434L420 455.833zm0-18.866v9.433l-27-27h9.433L420 436.967zm0-9.434l-8.134-8.133H420v8.133z" fill="#F2F5F9" fill-rule="nonzero"/>
        <path d="M360.6 172.73v6.67h-60v-6.67h60zm0-6.663V159.4h-60v6.667h60zm0-13.334v-6.666h-60v6.666h60zm0-20v6.667h-60v-6.667h60zm0-6.666V119.4h-60v6.667h60z" fill="#1F242C"/>
        <path d="M300 532.73v6.67h-60v-6.67h60zm0-6.663V519.4h-60v6.667h60zm0-13.334v-6.666h-60v6.666h60zm0-20v6.667h-60v-6.667h60zm0-6.666V479.4h-60v6.667h60z" fill="#4038FF"/>
        <path d="M540 352.73v6.67h-60v-6.67h60zm0-6.663V339.4h-60v6.667h60zm0-13.334v-6.666h-60v6.666h60zm0-20v6.667h-60v-6.667h60zm0-6.666V299.4h-60v6.667h60zM300 366.07v-6.67h-60v6.67h60zm0 20.003v6.67h-60v-6.67h60zm0 20.004v-6.67h-60v6.67h60zm0 13.323v-6.67h-60v6.67h60zm0-46.66v6.67h-60v-6.67h60zM712.733 419.4h6.667c0-33.137-26.863-60-60-60v6.667c29.457 0 53.333 23.876 53.333 53.333zm-13.333 0h6.667c0-25.773-20.894-46.667-46.667-46.667v6.667c22.09 0 40 17.91 40 40zm-6.666 0h-6.667c0-14.726-11.94-26.667-26.667-26.667v-6.666c18.41 0 33.334 14.923 33.334 33.333zm-20 0h6.666c0-11.046-8.953-20-20-20v6.667c7.363 0 13.333 5.97 13.333 13.333zm-13.334 0h6.667a6.665 6.665 0 00-6.667-6.667v6.667z" fill="#1F242C"/>
        <path d="M186.667 179.4H180c0 33.137 26.863 60 60 60v-6.667c-29.457 0-53.333-23.876-53.333-53.333zm13.333 0h-6.667c0 25.773 20.894 46.667 46.667 46.667V219.4c-22.09 0-40-17.91-40-40zm6.667 0h6.667c0 14.727 11.94 26.667 26.666 26.667v6.666c-18.41 0-33.333-14.923-33.333-33.333zm20 0H220c0 11.047 8.953 20 20 20v-6.667c-7.363 0-13.333-5.97-13.333-13.333zm13.333 0h-6.667a6.665 6.665 0 006.667 6.667V179.4z" fill="#FFF"/>
        <path d="M600 472.733v6.667c33.137 0 60-26.863 60-60h-6.667c0 29.457-23.876 53.333-53.333 53.333zm0-13.333v6.667c25.773 0 46.667-20.894 46.667-46.667H640c0 22.09-17.91 40-40 40zm0-6.667v-6.667c14.727 0 26.667-11.94 26.667-26.666h6.666c0 18.41-14.923 33.333-33.333 33.333zm0-20v6.667c11.047 0 20-8.953 20-20h-6.667c0 7.363-5.97 13.333-13.333 13.333zm0-13.333v6.667a6.665 6.665 0 006.667-6.667H600z" fill="#1F242C"/>
        <path d="M180 239.4v60h-60c0-33.137 26.863-60 60-60z" fill="#4038FF" fill-rule="nonzero"/>
        <path d="M60 299.4h60v60c-33.137 0-60-26.863-60-60zM480.6 59.4v60h-60c0-33.137 26.863-60 60-60z" fill="#1F242C" fill-rule="nonzero"/>
        <path d="M186.67 59.4H180v60h6.67v-60zm20.003 0h6.67v60h-6.67v-60zm20.004 0h-6.67v60h6.67v-60zm13.323 0h-6.67v60H240v-60zm-46.66 0h6.67v60h-6.67v-60z" fill="#4038FF"/>
        <path d="M6.67 179.4H0v60h6.67v-60zm20.003 0h6.67v60h-6.67v-60zm20.004 0h-6.67v60h6.67v-60zm13.323 0h-6.67v60H60v-60zm-46.66 0h6.67v60h-6.67v-60z" fill="#1F242C"/>
        <path d="M487.27 539.4h-6.67v60h6.67v-60zm20.003 0h6.67v60h-6.67v-60zm20.004 0h-6.67v60h6.67v-60zm13.323 0h-6.67v60h6.67v-60zm-46.66 0h6.67v60h-6.67v-60z" fill="#4038FF"/>
        <g fill-rule="nonzero">
            <path d="M461.362 422.426c.463 2.288 2.374 11.754 2.906 14.696 1.13 6.247 1.788 11.48 1.99 16.806.015.395.015.395.018.516.714 17.81-2.972 54.347-11.058 109.61l-11.672-5.869-17.807-11.738-1.798 15.785c-32.925 2.921-75.296-8.29-106.054-44.13-12.307-14.317-18.124-29.882-21.204-50.195-.515-3.4-.83-5.86-1.46-11.25-22.067 1.036-41.746-14.913-41.757-14.929L237.24 418.88l11.895-11.347-43.96 8.369-.163-30.547c-.5-93.63 13.015-154.887 55.722-209.764 46.94-60.293 122.628-74.446 190.178-36.764 51.283 28.584 86.757 84.028 88.97 140.7l1.347 34.48-33.544-8.989c1.786.479-21.717-6.132-26.74-7.216a96.047 96.047 0 00-2.286-.464c-3.202-.617-5.468-1.132-11.03-2.454-1.668-.396-2.56-.606-3.532-.83-7.977-1.84-12.089-2.27-14.21-1.835a88.499 88.499 0 01-6.342 1.08c26.574 34.38 33.608 88.494 17.816 129.127z" fill="#000"/>
            <path d="M514.197 281.073c-11.805-3.157-15.19-3.452-28.035-5.922-8.562-1.646-29.925-2.663-64.088-3.05-4.99-9.709-11.779-18.486-20.364-26.331-6.225-5.308-13.892-9.373-21.435-12.592-33.823-15.953-71.046-7.683-88.945 25.184-14.574 26.76-22.194 69.141-25.725 99.195-.865 7.136-.762 14.409-1.212 23.844l-32.345 3.556c-.38-71.189 6.612-136.82 50.094-192.57 39.19-50.227 100.708-61 156.55-29.916 42.997 23.912 73.635 70.845 75.505 118.602z" fill="#FFF"/>
            <path d="M484.963 276.11c-8.522-1.658-29.784-2.682-63.786-3.071-4.967-9.774-11.723-18.61-20.268-26.507-6.196-5.343-13.826-9.435-21.333-12.676-33.664-16.059-70.712-7.734-88.525 25.352-10.021 18.609-16.738 44.721-21.093 69.063-4.253 18.813-7.05 38.326-8.782 54.356-.03.263-.057.526-.085.79l-29.043 3.23c-.088-16.613.218-32.925 1.28-48.883 4.988-43.9 16.876-84.773 43.164-121.407 36.296-50.561 93.273-61.406 144.99-30.116 31.708 19.166 56.158 53.023 65.681 90.293-.702-.134-1.434-.276-2.2-.425z" fill="#C4C3C6"/>
            <path d="M313.754 371.298l15.707 40.363v-42.426l9.109 10.24v-19.54c28.75-14.7 54.726-33.839 77.075-59.458 21.888 20.363 34.083 57.74 30.278 89.727-1.315 11.062-7.325 21.335-11.711 30.234 2.498 14.422 5.543 13.73 5.856 24.383-1.952 3.335-7.808 11.703-13.82 21.456-8.605-18.121-13.379-18.121-7.654-39.052.764-2.843-6.002-9.112-10.409-11.716-16.932-9.831-33.968-6.68-53.85.96 10.202 11.03 22.519 13.291 33.102 18.087 9.576 4.35 17.868 9.763 18.042 20.93.486 28.228.173 56.524.173 84.716-24.08 2.124-44.446-12.983-68.075-40.353-19.847-22.952-13.879-51.796-21.616-74.68-18.736-6.44-18.736 9.387-33.795 7.78-15.058-1.606-17.395-8.107-19.72-11.361 16.447-9.25 26.104-18.753 19.72-38.965 10.799-3.384 21.34-7.133 31.588-11.325z" fill="#C4C3C6"/>
            <path d="M399.304 316.847a247.383 247.383 0 0015.77-16.37c3.587 3.314 6.918 7.075 9.965 11.189 7.241 20.88 14.733 49.375 12.824 68.36-3.332 33.138-5.411 38.899-5.664 40.158-.592 2.951 1.826 6.802 3.9 10.324.702 2.19 1.375 3.81 1.953 5.395-1.087 6-9.872 22.021-10.727 21.702-.67-.25-4.385-7.567-6.751-15.023-1.204-3.795-.21-12.121 0-12.74.958-2.837 3.463-7.371 4.365-9.658.436-1.106 5.769-35.6-2.8-60.783-4.675-13.743-16.174-31.97-22.835-42.554zM314.824 424.53c-18.93-6.31-18.93 9.197-34.144 7.623-15.214-1.574-17.575-7.944-19.923-11.132a122.24 122.24 0 003.998-2.272c1.775 2.9 4.089 3.629 9.038 4.91 12.304 3.184 38.237-12.364 41.031.871zM404.298 471.126c.181 23.047-.024 46.117-.024 69.12-14.39 1.28-25.534-5.538-38.762-15.646 21.356 2.99 19.44 5.728 25.644-2.495 7.61-10.085 6.878-39.936 13.142-50.979zM406.062 295.516c-26.65 23.673-84.498 55.49-121.293 64.097-1.975-12.33 4.271-37.402 17.806-53.895 3.887-4.737 13.198-17.848 29.15-25.268 9.422-4.382 25.65-5.325 32.304-5.317 17.919.02 33.346 7.608 42.033 20.383z" fill="#FFF"/>
            <path d="M394.235 304.482c-29.387 22.19-77.426 47.564-109.467 55.13-1.094-6.893.34-17.74 4.14-28.87 1.832-3.128 3.863-6.117 6.088-8.874 3.941-4.883 13.382-18.398 29.556-26.047 9.553-4.518 26.007-5.49 32.753-5.482 14.74.017 27.816 5.168 36.93 14.143zM430.419 481.227l14.413-23.36c3.44-5.192 5.16 0 5.16 15.573 0 15.574-1.07 39.584-3.21 72.029l-22.134-25.307 5.77-38.935z" fill="#C4C3C6"/>
            <path d="M449.992 473.208c0 15.624-1.07 39.711-3.21 72.26l-22.134-25.388 1.838-1.172 16.397 19.53c2.14-32.55 3.21-56.636 3.21-72.26 0-4.625.19-6.852-.112-9.765 2.901-2.122 4.011 2.448 4.011 16.795z" fill="#FFF"/>
        </g>
    </g>
</svg>
