<svg xmlns="http://www.w3.org/2000/svg" viewBox="0 0 199 264">
  <g id="Blog-Illustrations" fill="none" fill-rule="evenodd">
    <g id="Blog_illustrations-Copy" transform="translate(-994 -284)">
      <g id="Helmet" transform="translate(994 284)">
        <path id="Path" fill="#000" fill-rule="nonzero" d="M151.73 180.176c.273 1.354 1.405 6.957 1.72 8.698.668 3.698 1.057 6.794 1.178 9.947l.01.306c.422 10.54-1.76 32.165-6.545 64.873l-6.908-3.474-10.54-6.947-1.064 9.342c-19.487 1.73-44.564-4.906-62.768-26.118-7.284-8.474-10.727-17.686-12.55-29.708-.305-2.013-.491-3.47-.864-6.658-13.06.612-24.708-8.827-24.714-8.837l-9.603-13.523 7.04-6.715-26.018 4.953-.096-18.08c-.296-55.414 7.703-91.67 32.979-124.15 27.782-35.684 72.578-44.06 112.558-21.758 30.352 16.917 51.348 49.732 52.658 83.273l.797 20.408-19.853-5.32c1.056.283-12.854-3.63-15.827-4.27a56.848 56.848 0 0 0-1.353-.276c-1.895-.365-3.236-.67-6.528-1.452-.987-.234-1.515-.359-2.09-.491-4.721-1.089-7.155-1.344-8.41-1.086a52.379 52.379 0 0 1-3.754.64c15.728 20.347 19.89 52.375 10.544 76.423z"/>
        <path id="Path" fill="#FFF" fill-rule="nonzero" d="M183 96.516c-6.987-1.868-8.99-2.043-16.592-3.505-5.068-.975-17.712-1.576-37.931-1.805-2.954-5.747-6.972-10.941-12.053-15.585-3.685-3.141-8.222-5.547-12.686-7.452-20.019-9.442-42.05-4.547-52.643 14.905-8.626 15.838-13.136 40.922-15.226 58.71-.512 4.223-.45 8.527-.717 14.111L16.008 158c-.225-42.133 3.914-80.977 29.65-113.974C68.851 14.3 105.261 7.924 138.311 26.32 163.76 40.473 181.894 68.25 183 96.516z"/>
        <path id="Path" fill="#C4C3C6" fill-rule="nonzero" d="M165.698 93.578c-5.044-.981-17.628-1.587-37.752-1.817-2.94-5.785-6.939-11.014-11.996-15.688-3.667-3.163-8.183-5.585-12.626-7.503C83.4 59.065 61.473 63.993 50.93 83.575c-5.931 11.014-9.907 26.468-12.484 40.875-2.518 11.134-4.172 22.684-5.198 32.171a52.41 52.41 0 0 0-.05.467L16.008 159c-.052-9.832.13-19.487.758-28.931 2.953-25.983 9.988-50.174 25.547-71.856C63.795 28.288 97.517 21.87 128.127 40.39c18.766 11.344 33.237 31.382 38.873 53.44l-1.302-.251z"/>
        <path id="Path" fill="#C4C3C6" fill-rule="nonzero" d="M64.367 149.916l9.296 23.889v-25.11l5.391 6.061v-11.565c17.017-8.7 32.39-20.028 45.618-35.191 12.954 12.052 20.172 34.174 17.92 53.106-.779 6.547-4.335 12.627-6.932 17.894 1.48 8.536 3.281 8.125 3.466 14.43-1.155 1.975-4.62 6.928-8.179 12.7-5.093-10.725-7.918-10.725-4.53-23.113.452-1.683-3.553-5.393-6.16-6.934-10.022-5.82-20.105-3.954-31.872.567 6.038 6.529 13.328 7.867 19.591 10.706 5.668 2.574 10.576 5.778 10.679 12.387.287 16.707.102 33.454.102 50.14-14.251 1.257-26.306-7.684-40.29-23.884-11.747-13.584-8.215-30.655-12.794-44.199-11.09-3.811-11.09 5.556-20.002 4.605-8.912-.951-10.295-4.799-11.671-6.725 9.734-5.474 15.45-11.099 11.671-23.061 6.392-2.003 12.63-4.222 18.696-6.703z"/>
        <path id="Path" fill="#FFF" fill-rule="nonzero" d="M115 117.689c3.216-3.045 6.33-6.27 9.333-9.689 2.124 1.961 4.095 4.188 5.898 6.622 4.286 12.358 8.72 29.223 7.59 40.46-1.972 19.612-3.202 23.022-3.352 23.768-.35 1.746 1.08 4.026 2.309 6.11.415 1.296.813 2.255 1.155 3.193-.643 3.551-5.842 13.033-6.349 12.844-.397-.148-2.595-4.478-3.995-8.891-.713-2.246-.124-7.174 0-7.54.567-1.68 2.05-4.363 2.583-5.716.258-.655 3.414-21.071-1.657-35.975-2.767-8.134-9.572-18.922-13.515-25.186zM65 181.422c-11.204-3.735-11.204 5.443-20.208 4.511-9.005-.931-10.402-4.701-11.792-6.588A72.35 72.35 0 0 0 35.366 178c1.051 1.717 2.42 2.148 5.35 2.906 7.282 1.884 22.63-7.318 24.284.516zM117.956 209c.107 13.64-.014 27.294-.014 40.909-8.517.758-15.113-3.278-22.942-9.26 12.64 1.77 11.506 3.39 15.178-1.477 4.504-5.969 4.07-23.636 7.778-30.172zM119 105.064C103.226 119.075 68.99 137.906 47.212 143c-1.17-7.297 2.528-22.137 10.538-31.898 2.3-2.803 7.812-10.563 17.253-14.955 5.576-2.594 15.18-3.151 19.119-3.147 10.606.012 19.736 4.503 24.878 12.064z"/>
        <path id="Path" fill="#C4C3C6" fill-rule="nonzero" d="M112 110.37C94.607 123.504 66.175 138.523 47.211 143c-.647-4.08.201-10.5 2.45-17.087a42.864 42.864 0 0 1 3.604-5.253c2.332-2.89 7.92-10.889 17.492-15.416 5.655-2.674 15.393-3.249 19.386-3.244 8.723.01 16.463 3.059 21.857 8.37z"/>
        <path id="Rectangle" fill="#C4C3C6" d="M133.415 214.978l8.531-13.826c2.036-3.072 3.054 0 3.054 9.218 0 9.217-.633 23.427-1.9 42.63L130 238.022l3.415-23.044z"/>
        <path id="Path" fill="#FFF" d="M145 210.232c0 9.247-.633 23.503-1.9 42.768L130 237.974l1.088-.694 9.704 11.559c1.267-19.265 1.9-33.52 1.9-42.768 0-2.737.113-4.055-.066-5.78 1.717-1.255 2.374 1.45 2.374 9.941z"/>
      </g>
    </g>
  </g>
</svg>
