<svg xmlns="http://www.w3.org/2000/svg" viewBox="0 0 129 115">
  <g id="Symbols" fill="none" fill-rule="evenodd">
    <g id="Full_spec" transform="translate(-23 -21)">
      <g id="Group-13">
        <g id="Specifications" transform="translate(23.329 21.639)">
          <g id="Group-78">
            <g id="Group-77">
              <g id="Group-76">
                <path id="Oval" fill="#000" d="M38.4 88.235C31.9 80.229 2.79 50.837.886 42.17-.456 36.427-.762 28.43 3.536 26.446c2.203-1.017 7.61-1.326 14.77-3.574 4.85-1.523 12.05-5.14 13.655-5.84 2.28-.993 10.597-4.418 16.64-8.455C54.535 4.614 58.201.03 59.962.001 65.925-.1 74.475 13.772 74.863 20.047c.142 2.287-.839 2.316-3.27 3.75 3.036 4.584 9.103 10.406 14.398 16.639 7.2 8.473 15.503 15.386 18.28 18.53 1.893 2.144 4.654-1.072 8.71-1.072 7.573 0 17.798 19.298 14.011 23.944-7.924 9.72-51.464 28.254-55.669 30.733-2.686 1.584-9.197 1.872-14.39-1.787C51.542 106.986 43.635 94.8 38.4 88.235z"/>
                <path id="Path-Copy-53" fill="#C4C3C6" d="M64.501 102.327c-.026.022-2.099.335-3.41-1.16-1.765-2.01-2.903-5.998-2.931-6.112l3.66-2.73c.415.557 1.252 2.224 2.089 3.892.808 1.611.843 4.497.592 6.11z" transform="rotate(170 61.4 97.347)"/>
                <path id="Rectangle" fill="#C4C3C6" d="M49.359 95.06c-3.408-3.216-9.646-12.502-13.633-16.796-6.853-7.38-14.643-16.26-24.124-26.64 2.6.645 4.85.589 6.748-.17 1.898-.757 31.05-15.572 50.27-25.672C76.895 34.44 84.234 43 90.636 51.462l9.846 10.006c-7.18 3.442-12.86 6.539-17.041 9.291-9.385 6.179-12.386 7.68-23.48 11.793-7.069 2.621-10.603 6.79-10.603 12.508z"/>
                <path id="Path-Copy-55" fill="#FFF" d="M46.77 82.337c-.642-1.216-9.209-13.502-10.32-14.994 10.056.359 11.41-.507 19.85-2.923C60.11 63.33 90.433 40.91 90.273 40.96c-.16.05 1.884 1.571 2.46 3.707.736 2.73-38.615 37.934-45.964 37.671z" transform="rotate(177 64.597 61.649)"/>
                <path id="Rectangle-Copy-37" fill="#000" d="M58.846 14.276c1.441-1.02 2.408-1.705 4.242-2.506 1.835-.8-5.203 3.186-4.242 2.506z"/>
                <path id="Path" fill="#FFF" d="M15.942 45.988l-3.792 1.9c.135-.572 1.333-2.524-.261-5.6-1.24-2.39-3.612-4.787-4.745-5.457-1.432-.846-2.509-1.028-3.229-.544.001-.82 1.114-.777 5.734-2.694 1.314 1.39 4.36 2.266 5.436 4.077 2.137 3.602 1.113 7.355.857 8.318z"/>
                <g id="Group-74" transform="rotate(-2 1861.98 -1199.293)">
                  <g id="Group-75" fill="#C4C3C6" transform="translate(0 13.223)">
                    <path id="Path-Copy-56" d="M26.675 25.202c-2.583 3.366-17.813 12.107-25.667 6.414-.491-.357 10.517-3.971 12.207-4.696 1.5-.642 3.306-.938 4.123-3.593.713-2.315.967-7.09.043-8.963-1.16-2.353-2.694-8.122-9.326-10.483-1.605.94-1.196.616-4.783 2.461-1.976-3.397 1.201-4.919 1.233-5.275C8.385.203 12.02 2.068 15.41 6.662c5.085 6.892 12 16.352 11.265 18.54z" transform="rotate(177 13.86 17.179)"/>
                  </g>
                  <path id="Path-Copy-54" fill="#C4C3C6" d="M67.823.234C73.817 1.513 79.15 10.986 78.846 19.2c-4.23 1.649-4.39 1.494-10.782 4.65-19.685 9.722-39.927 11.406-41.729 11.499-4.29-6.936-6.371-11.94-12.863-10.794-.707.125 3.396-1.537 5.77-2.313 5.716-1.868 12.917-2.968 16.766-4.777C40.746 15.24 59.584 5.142 61.613 3.614 63.642 2.085 66.2.617 67.823.234z"/>
                  <path id="Path-Copy-55" fill="#FFF" d="M27.516 37.795c-.643-1.216-3.652-9.103-4.762-10.595 10.055.359 11.409-.507 19.848-2.923 3.811-1.09 32.537-15.699 32.377-15.649-.16.05 1.284.11 1.86 2.245.735 2.73-41.974 27.184-49.323 26.922z" transform="rotate(-3 49.8 23.213)"/>
                </g>
                <path id="Path" fill="#C4C3C6" d="M9.18 33.362c1.78-.771 4.274 2.17 5.339 3.858-.712.948-2.034 1.404-3.398 1.375-2.047-.044-3.48-1.148-4.084-1.532-1.385-.88-1.603-1.14-3.122-.59-.004-.843.826-1.177 5.266-3.11zM10.222 46.829c-.022.014-1.734.23-2.804-.728-1.44-1.288-2.344-3.858-2.367-3.931l3.043-1.787c.338.357 1.014 1.43 1.69 2.502.654 1.036.659 2.9.438 3.944z"/>
                <path id="Path-Copy-5" fill="#C4C3C6" d="M62.613 4.289c1.136 1.072 9.846 8.934 8.356 14.88-1.678-2.206-5.573-1.876-11.683.99-9.167 4.3-38.541 18.35-40.223 18.437-4.5-5.82-9.089-9.649-15.148-8.577-.66.117-.7-1.06 1.515-1.786 5.335-1.748 16.478-3.67 20.07-5.361 4.422-2.081 29.16-14.295 31.054-15.724 1.894-1.43 4.544-2.502 6.06-2.86z"/>
                <path id="Path-Copy-6" fill="#FFF" d="M70.562 21.612l-50.956 25.79c.112-.647 1.404-2.902-.846-6.211-1.75-2.572-2.06-4.753-3.517-5.419-1.843-.841 7.124-1.737 14.802-3.966 3.468-1.007 22.802-8.434 33.326-13.58 2.248-1.1 4.085-1.93 5.301-2.859 1.173-.896 1.755-1.948 2.273 0 .66 2.491.237 5.88-.383 6.245z"/>
                <path id="Path" fill="#000" d="M68.319 11.26c.078-.036.164-.067.259-.092.31.072 1.518 1.841.728 1.81-1.431-.054-1.251.053-2.786-.205.78-.274.982-.872 1.437-1.274-.058.01-.122.016-.193.015-3.15-.04-2.745.141-6.142-.25 2.288-.69 2.645-2.83 4.829-3.338.573.095 2.305 2.532 1.868 3.335z" transform="rotate(-13 65.596 10.453)"/>
                <path id="Path-Copy-57" fill="#000" d="M122.98 77.564c.453.155 1.696 2.464.487 2.245-2.193-.396-1.953-.232-4.234-.886 1.302-.131 1.825-.77 2.67-1.124-.092-.001-.193-.015-.304-.028-4.745-.553-4.745-.553-7.79-.728 2.112-1.079 5.53-3.016 8.264-5.437.852.243 1.432 5.186.474 6.004.134-.023.278-.04.433-.046z" transform="rotate(-10 118.895 75.715)"/>
                <path id="Path-Copy-50" fill="#000" d="M17.819 33.476c.078-.037.163-.068.258-.093.31.073 1.52 1.846.731 1.814-1.43-.057-1.25.05-2.784-.211.78-.272.98-.87 1.434-1.272-.058.01-.122.015-.194.014-3.147-.044-2.741.137-6.136-.261 2.285-.687 2.638-2.828 4.818-3.332.573.096 2.308 2.538 1.873 3.34z" transform="rotate(165 15.1 32.666)"/>
                <path id="Combined-Shape" fill="#000" d="M40.851 76.834c-.52-.482-.037-1.206 1.449-2.171 2.23-1.448 7.238-5.236 10.306-5.995 3.067-.758 3.05-.495.977 1.036-1.383 1.02-7.97 5.274-12.732 7.13zm3.409 3.217c-.52-.483-.038-1.207 1.448-2.172 2.23-1.448 7.239-5.236 10.306-5.995 3.068-.758 3.051-.495.977 1.036-1.383 1.021-7.97 5.275-12.731 7.13zm3.408 3.93c-.52-.482-.038-1.206 1.449-2.17 2.229-1.449 7.238-5.237 10.306-5.996 3.067-.758 3.05-.495.976 1.036-1.383 1.021-7.97 5.275-12.731 7.13z"/>
                <g id="tactic" fill="#000" fill-rule="nonzero" transform="rotate(-33 94.158 -64.04)">
                  <path id="Path" d="M3.787 4.942l2.494 2.353a.791.791 0 0 0 1.066-.004.686.686 0 0 0 .01-1.002L4.858 3.931l2.494-2.354a.686.686 0 0 0 .202-.69.737.737 0 0 0-.541-.51.788.788 0 0 0-.737.194l-2.489 2.35L1.293.566A.791.791 0 0 0 .226.57a.686.686 0 0 0-.009 1.002l2.499 2.358L.222 6.285a.687.687 0 0 0 0 1.01.79.79 0 0 0 1.07 0l2.495-2.353zM15.305 13.79a.791.791 0 0 0-1.067.004.686.686 0 0 0-.009 1.002l2.499 2.358-2.494 2.353a.686.686 0 0 0-.202.69c.07.25.276.446.54.511a.788.788 0 0 0 .737-.195l2.49-2.349 2.494 2.354a.791.791 0 0 0 1.066-.004.686.686 0 0 0 .01-1.002l-2.5-2.358 2.495-2.354a.687.687 0 0 0 0-1.01.79.79 0 0 0-1.071 0l-2.494 2.353-2.494-2.354zM16.35 4.288l-7.418 7a.686.686 0 0 0-.202.69c.07.25.276.446.541.51a.788.788 0 0 0 .737-.194l7.412-6.995 2.873 2.711a.79.79 0 0 0 .825.155.716.716 0 0 0 .468-.66V1.072c0-.395-.34-.715-.758-.715h-6.816a.76.76 0 0 0-.7.442.686.686 0 0 0 .164.778l2.873 2.711z"/>
                </g>
                <g id="cogwheel" fill="#111" fill-rule="nonzero" transform="translate(26.258 47.888)">
                  <path id="Oval" d="M12.497 13.937c2.485 0 4.544-1.652 4.544-3.752 0-2.1-2.059-3.752-4.544-3.752-2.485 0-4.544 1.651-4.544 3.752 0 2.1 2.06 3.752 4.544 3.752zm0-1.43c-1.698 0-3.03-1.067-3.03-2.322 0-1.255 1.332-2.323 3.03-2.323 1.698 0 3.03 1.068 3.03 2.323s-1.332 2.323-3.03 2.323z"/>
                  <path id="Path" d="M20.945 6.222l1.788-1.869a.687.687 0 0 0-.068-1.02l-2.32-1.887a.793.793 0 0 0-.917-.052l-2.437 1.541a11.006 11.006 0 0 0-1.927-.654l-.366-2.384c-.054-.351-.373-.612-.75-.612h-3.281c-.377 0-.696.261-.75.612l-.366 2.384c-.669.161-1.315.38-1.926.656L5.187 1.394a.793.793 0 0 0-.916.052l-2.32 1.887a.687.687 0 0 0-.068 1.02l1.788 1.87a7.304 7.304 0 0 0-.718 1.43l-3.034.308c-.385.04-.676.346-.676.711v2.668c0 .366.291.672.676.711l3.034.308c.183.496.424.975.72 1.431l-1.79 1.869a.687.687 0 0 0 .067 1.02l2.321 1.887c.258.21.633.232.916.053l2.438-1.542c.612.275 1.257.495 1.926.656l.366 2.382c.054.352.373.612.75.612h3.282c.376 0 .695-.26.75-.612l.365-2.382c.67-.161 1.315-.38 1.927-.655l2.437 1.54a.793.793 0 0 0 .916-.052l2.321-1.886a.687.687 0 0 0 .068-1.02l-1.788-1.87c.295-.456.536-.935.72-1.43l3.031-.309c.385-.039.677-.345.677-.71V8.671c0-.365-.292-.671-.677-.71l-3.032-.309a7.284 7.284 0 0 0-.719-1.43zm2.913 4.477l-2.85.289a.746.746 0 0 0-.65.522 5.934 5.934 0 0 1-.984 1.932.684.684 0 0 0 .053.895l1.662 1.737-1.297 1.054-2.325-1.47a.796.796 0 0 0-.778-.037 9.398 9.398 0 0 1-2.45.824.734.734 0 0 0-.6.598l-.346 2.255h-1.97l-.347-2.255a.734.734 0 0 0-.599-.598 9.433 9.433 0 0 1-2.451-.824.796.796 0 0 0-.778.037l-2.325 1.47-1.296-1.054 1.663-1.737a.684.684 0 0 0 .053-.896 5.912 5.912 0 0 1-.984-1.93.746.746 0 0 0-.65-.523l-2.852-.29V9.314l2.852-.29a.746.746 0 0 0 .65-.522c.197-.68.529-1.332.983-1.931a.684.684 0 0 0-.054-.895L3.526 3.938l1.297-1.054 2.325 1.472a.796.796 0 0 0 .778.037 9.398 9.398 0 0 1 2.45-.824c.314-.06.554-.3.6-.598l.346-2.256h1.971l.347 2.256a.734.734 0 0 0 .599.598 9.436 9.436 0 0 1 2.451.823c.246.124.545.11.777-.037l2.325-1.47 1.297 1.053-1.662 1.738a.684.684 0 0 0-.053.895c.455.599.787 1.25.985 1.931.082.284.34.491.65.523l2.849.289v1.385z"/>
                </g>
                <g id="blueprint" fill="#000" fill-rule="nonzero" transform="rotate(148 38.905 46.009)">
                  <path id="Path" d="M17.406 17.015l.715 4.714h4.741v-1.43h-3.428l-.711-4.688L3.036 15.3.876 1.057l25.8.294L29.55 20.3h-3.212v1.43h4.959L27.99-.063-.875-.393l2.593 17.097z"/>
                  <path id="Path" d="M16.052 8.194L.398 7.817.36 9.247l15.653.376z"/>
                  <path id="Path" d="M14.025 5.06l1.385 7.842 1.494-.235-1.385-7.842zM29.287 9.578v-1.43h-8.452l.97 6.173 1.499-.21-.713-4.533z"/>
                </g>
              </g>
            </g>
          </g>
        </g>
      </g>
    </g>
  </g>
</svg>
