<svg viewBox="0 0 400 320" xmlns="http://www.w3.org/2000/svg">
  <g fill="none" fill-rule="evenodd">
    <path d="M175.58054123 147.31181972c-4.56759528 1.62472539-6.66246305 1.66994383-7.30911233 6.13820295l2.71116434 7.30364846c-.44032458 3.04258317-3.41132144 7.47565427-1.50364656 9.9646603.77243327 1.00781907.38546246 4.45460609.3842102 5.49446188-4.77278938 3.08067883 1.9054519 16.27791097.25314643 19.30694795-1.10153699 2.019358-.8994443 4.90941816.60627807 8.6701804-.48397992 4.4242531-.75659369 6.91632383-.81784127 7.4762125-.0918714.83983292-.0893722 1.66741143-.00045058 2.47383207.05928109.53761376 4.000041 4.12723628 11.8222797 10.76886767.96904775.04313432 1.69575898.0477661 2.18013358.01389532l92.96663665-6.50086052c6.53783927-.45717025 11.7803627-5.26234567 12.32219508-11.29423727l3.18717479-66.8731913c.60376144-6.72131586-4.80452187-12.56045848-12.07973885-13.0420901-.64666957-.04281056-1.2964128-.04157037-1.94395956.0037105l-75.12357529 2.49248789c-4.2917452.30010806-8.18052858 2.50720637-10.42485096 5.91667597l-4.77697124 7.25695113-12.4530722 4.4296442z" fill="#000" fill-rule="nonzero"/>
    <path d="M199.38052973 158.82363335c1.07404307-.3817588 1.98270925-1.08264127 2.5811884-1.99095126l5.33331117-8.09434864c.87196305-1.32337542 2.38273986-2.18011415 4.05001305-2.29670125l58.1022572-4.06290561c2.66072678-.18605614 6.16873014.886748 10.52400907 3.21841243.2515617-.01759091 5.26112422 8.47519036 5.02640767 11.08395478l-3.53579903 50.00894986c-.21064092 2.34117606-5.04382417-1.12340357-7.58366913-.9458003-9.4772195 4.34623933-17.05120754 6.71762801-22.72196373 7.11416591-6.74767357.4718433-7.66152854-1.4414152-17.61371123-.7454908-3.59243504.25120754-14.82971553 3.0141562-18.83969497 3.29456128a1413442992729368000 1413442992729368000 0 0 0-32.9237932-3.22303553l.87295974-7.96828474c.05867432-.53557334.01812087-1.0754123-.11992102-1.59636229l-2.66314308-10.05031008c-.38433223-1.45041337-.00023453-2.99083576 1.03583129-4.15419715 3.23151093-3.62854877 4.89916866-6.48199154 5.00297306-8.5603285.14112685-2.8255934-.71563119-5.4472442-2.570274-7.86495227-.74103585-.9660126-1.0574532-2.15802353-.8863199-3.33895427l.17387028-1.1998279c.25132142-1.73428182 1.516171-3.2109252 3.2906397-3.84164377l13.46482866-4.7859499z" fill="#C4C3C6" fill-rule="nonzero"/>
    <path d="M221.97541242 149.14725243c.50104305-.73920837 1.06055093-1.463453 1.70898523-2.16473197 1.73565647-1.87762647 6.00103199-2.03998312 10.47351623-2.3436639-1.29917308 1.06202818-2.40807574 1.96830777-3.51668675 2.87466821.54962153-.06609015.89685441-.20898387 1.1763176-.37885454 1.53723072-.93517042 3.42795045-1.7266606 4.70975838-2.76525225l.59440065-.09898842c.5634513.2050872.87633284.15807908.986605-.09243626 4.00987677-.28057152 8.09635348-1.1379276 12.23396157-.57300824.95092024.1298653 1.06252958.44165233.67443868.71247409-.48951286.34150187-1.25190105.54576897-2.113609.67715924-.3605683.05500456-.7713693.09090945-.74195133.29441328.14223532.9836153-1.42161022 2.77548787-2.90034498 2.86936106-1.08951382.06904854-2.32167938.05606674-2.65805252.68043247 1.48316072.06096083 2.88196616.11874075 4.4020717.18134615-.74078958.7338968-2.06482302 1.18622085-2.21559354 2.07649744 1.9768335-.40559916 3.24838387-2.82715883 3.401459-3.82708828.1813532-1.18427099 1.39813218-1.81622862 3.80739081-2.00791404.95442863-.075834 1.50299698-.3481719 1.55144048-.87199435.0468497-.51092636.96968483-.72761814 1.97074563-.76900111 1.96038289-.08116822 5.7700699-.42000134 9.66704933-.7143928l-.42580583-6.08930703-43.4359224 3.03733557.64982606 9.29294568zM268.9834503 210.66422044c-.8622401-.0918511-1.66239836-.00845368-2.48476034.1595996-.554044.31236304-.98167485.28741397-1.38374758.03647652-.3627358-.22677262-.63607888-.6181535-1.15256081-.68254506.06364794.79868862.30462266.74825967.06324893 1.62263048-.0847259.3071087 1.01109376.91875415 1.16927923 1.11145186.6257284.76154236 1.360361.85017934 2.17549648 1.27013352.58817858.30312922 1.37845692 3.36196615 1.5021279 4.32380172-.8340647-1.19829224-3.00986648-4.56380248-4.54278056-4.55281674-.09629922.0005694-.21645744-.05621728-.23408023-.14696717-.10636493-.5477264-1.45396948-.52873073-1.55596032-1.08601941-.35458699-1.93737604-.34943664-2.56490565-1.956687-3.3328678-.79932215-.38208646-.76434316-1.1185196-1.7035795-1.20627152-.1573181-.01464637-.73291064-.76279703-.97998518-.57503172-.52332373.39759176-.56796115-.42067718-.80060906-.80768462-.50564438-.84132553-1.71096132-.24712065-2.63406002-.49025386-.81215304-.2138028-5.59663118-3.6041439-6.1904558-4.17821294.8911278.31058124 2.55210489.42524672 3.44007044.73877232.8599566.30343111 5.5003048 2.6901472 6.20654468 3.27945787-.32636993-.37817489-.80964458-1.52167016-1.44982407-3.4304858l-3.98328425-3.26180727c-2.34802228-1.52226893-3.62973106-2.36841906-3.84512631-2.53845061.13191814.00588383 1.79599698.417172 4.9922365 1.23386448l4.2051083 3.67493325.59554068 3.30764377c.44569038.44128968.71446832.71027224.80633397.80694763.61258552.64472613.57642699.15764784 1.58314625.16539538 1.62181163.01250814.88473123 1.42051053 2.2568771 1.94148059.16890215.06409436 1.48804984.1584727 1.52547412.37725775.21044262 1.22814925 1.03500019 1.7268859 1.9031521 2.1708302.92067693-.39085035 1.77025455-.56263366 2.47286436.06873758zM288.55936894 154.00007004c-.76485473-.1222826-1.5567051-.04913604-2.4106006.11716654-.67220022.33242718-1.06155974.29458372-1.31694613.00725524-.23021279-.25964448-.2963892-.69931776-.7499761-.7829377-.32892085.8854141-.07812967.8353721-.73026455 1.79724277-.22900215.33784264.5022032 1.04095929.5569469 1.2579992.21689118.85775567.86350004.97342742 1.42445794 1.4576872.4047214.34954124-.34186377 3.75359908-.69382422 4.82100062-.19995457-1.34608203-.60499002-5.1226833-2.04958268-5.14720805-.09069223-.0016741-.17587364-.06739345-.14825574-.16824686.16668351-.6087014-1.10782098-.61992714-.93237709-1.2391063.60989833-2.15253621.92011958-2.84688615-.21519478-3.73523347-.56453905-.4419739-.17331413-1.25613127-1.0124556-1.37571944-.14057755-.01997347-.3169136-.86170899-.64026647-.65982547-.6848336.4274833-.32853512-.47914514-.35863067-.91300535-.06531881-.94317604-1.48615489-.3144247-2.23452812-.6055844-.65848044-.25604556-3.5007083-4.1225504-3.77887895-4.77206961.68553307.36503731 2.18921618.53168139 2.87034738.89990154.65974607.35637863 3.85506172 3.10874555 4.23136135 3.77782248-.12239016-.42632713-.01965604-1.70337247.3082023-3.83113608l-2.15254074-3.70508717c-1.46374052-1.7408487-2.25535536-2.70793468-2.37484401-2.90125886.12099443.00966795 1.48323932.5046518 4.08673482 1.48495171l2.1597635 4.16759297-1.05050493 3.67474698c.20370452.49903063.32515892.80314.36436451.91232661.26139978.72816312.46448653.18825862 1.40592057.22092323 1.51662534.05265171.13938304 1.59321882 1.17415725 2.20259887.12739006.07497374 1.32000321.21098716 1.24867006.45400678-.40009202 1.3642016.131373 1.93587372.7304332 2.4479513 1.05462622-.41051413 1.93588898-.58029283 2.2883116.13524472z" fill="#000"/>
    <path d="M180.12221779 209.35955845l2.72422544-5.4105936-.82543573-11.80428094c-.25541923-.96602565-1.23502602-2.64053856-2.93882038-5.02353894l7.92361126-7.26978191c-2.43722722-4.48192176-4.27180837-7.5281037-5.50374348-9.1385459-.7383427-.96519549-1.05376892-2.15607649-.88354346-3.33578924l.17294797-1.19859024c.24998826-1.73249287 1.50960466-3.20739917 3.27702509-3.83712456l13.41134594-4.77841268c1.06977692-.38115754 1.9747568-1.0811528 2.57071722-1.98843078l5.31086478-8.08515243c.8682933-1.32187189 2.37300416-2.17744454 4.03375179-2.29357533 16.23589133-1.4198436 30.37106409-2.93499343 42.40551838-4.54544952 12.03445429-1.61045608 21.3068111-3.3001872 27.81707213-5.06919336-.59005768-1.2655648-2.76234496-1.76707657-6.51686181-1.50453517-.25409652.01776816-.50167134-.01618911-.75224746.00133288l-66.39835 4.64302493c-1.66074772.1161308-3.16545859.97170345-4.03375179 2.29357533l-5.31086488 8.08515234c-.59596042.90727798-1.5009403 1.60727323-2.57071722 1.98843078l-13.41134584 4.77841277c-1.76742043.6297253-3.02703683 2.10463159-3.2770251 3.83712446l-.17294795 1.19859034c-.17022547 1.17971265.14520065 2.37059366.88354336 3.33578925 1.84790275 2.41566325 2.70185348 5.0348617 2.56185238 7.85759522-.10297644 2.07623327-1.76354983 4.92647736-4.98172008 8.55073248-1.03178862 1.16198477-1.41407483 2.70078555-1.03094602 4.14982392l2.65480411 10.04078216c.1376097.52045614.17811497 1.05976236.11977847 1.5947872l-.867933 7.9601229c-.25005887 2.29337899 1.31120777 4.351329 3.60919588 4.96771764z" fill="#C4C3C6" fill-rule="nonzero"/>
    <path d="M200.35976524 165.7366152l15.50592603-19.61109772-5.90197857.41270654c-1.59984305.11187192-3.04773586.9594589-3.88143708 2.27216771l-5.0992845 8.0291071c-.5722179.90098877-1.44262142 1.59516132-2.47249865 1.97189062l-12.91113905 4.72289687c-1.7015005.62240924-2.9118999 2.08645778-3.14898184 3.8088769l-.16401906 1.19162102c-.10762473.7819022.1019896 2.60045926.62884303 5.45567147l2.71512435 5.68365951-2.31802471 9.59239252-3.96169592 2.6346038c1.88819965 5.27942957 2.87687244 8.09177548 2.96601818 8.43703783.13371866.51789362.3019642 2.99922901.24692444 3.531184l-.81888384 7.91445006c-.23592738 2.28022026 1.2728068 4.33025487 3.48821467 4.94826256l.66384321-6.4159948c.05503977-.531955-.57978798-3.37359294-.71350654-3.89148646l1.7048695-8.76365812-2.70573031-3.0472295 4.78114548-8.49284398-.62887949-8.99339565-.84453802-4.26316516 2.2125025-3.69107595 10.65718619-3.43658116z" fill="#FFF" fill-rule="nonzero"/>
    <path d="M210.03559995 159.80922204l-1.2288885 44.48963606c-.02740462.99213513.75466386 1.81863542 1.746799 1.84604004a1.79707774 1.79707774 0 0 0 .0346089.00062246c1.01744018.00849914 1.85448537-.79896772 1.88257922-1.81605543l1.2288885-44.48963605c.02740471-.99213514-.75466386-1.81863532-1.7467989-1.84604004a1.7970881 1.7970881 0 0 0-.034609-.00062246c-1.01744018-.00849914-1.85448527.79896772-1.88257922 1.81605542zM232.11564802 158.26523466l-1.2288885 44.48963606c-.02740462.99213513.75466396 1.81863541 1.746799 1.84604003a1.7970881 1.7970881 0 0 0 .034609.00062246c1.01744008.00849915 1.85448527-.79896772 1.88257922-1.81605542l1.2288885-44.48963606c.02740462-.99213513-.75466396-1.81863531-1.746799-1.84604003a1.7970881 1.7970881 0 0 0-.034609-.00062246c-1.01744008-.00849915-1.85448527.79896772-1.88257922 1.81605542zM221.07562404 159.03722835l-1.2288885 44.48963606c-.02740472.99213513.75466386 1.81863542 1.7467989 1.84604004a1.7970881 1.7970881 0 0 0 .034609.00062246c1.01744018.00849914 1.85448527-.79896772 1.88257921-1.81605543l1.2288885-44.48963605c.02740462-.99213514-.75466385-1.81863533-1.746799-1.84604004a1.79707774 1.79707774 0 0 0-.0346089-.00062246c-1.01744018-.00849915-1.85448537.79896772-1.88257921 1.81605542zM242.42641045 179.24706613l-.63552326 22.8256669c-.02779578.99832148.7589707 1.8301538 1.75729217 1.85794949a1.80805574 1.80805574 0 0 0 .0357636.00064186c1.024477.00825192 1.86721035-.80476605 1.89572419-1.82887926l.63552336-22.8256669c.02779568-.99832148-.7589708-1.8301538-1.75729217-1.8579495a1.80806583 1.80806583 0 0 0-.03576371-.00064184c-1.02447688-.00825194-1.86721025.80476603-1.89572418 1.82887925z" fill="#000"/>
    <g>
      <path d="M192.4820346 161.39268592c-4.76206565 1.70902932-6.94667826 1.75503797-7.61750765 6.46456924l2.83313367 7.70100294c-.4567896 3.20687332-3.5516099 7.87747442-1.56020867 10.50267264.80633475 1.06296436.40550517 4.6959557.40502159 5.79207853-4.97490246 3.24360421 1.99998753 17.1602379.27926396 20.35187348-1.14714905 2.12775708-.93410967 5.17436218.63911814 9.1398152-.50122326 4.66327266-.78354975 7.28997729-.8469795 7.88011376-.0951446.88520477-.09188383 1.75756664.00148648 2.60769412.06224688.56675166 4.17473627 4.35373009 12.33746813 11.3609352 1.01061278.04623474 1.76847255.0516918 2.27357943.0163713l96.94580393-6.779111c6.81767194-.47673807 12.28107693-5.53778218 12.84136106-11.89563925l3.27088376-70.48927064c.62432242-7.084538-5.02036363-13.2439216-12.60775937-13.75736831-.67441743-.04563853-1.35200566-.04484508-2.02726873.00237391l-78.34120597 2.56795056c-4.47544093.31295331-8.52914202 2.63640539-10.866954 6.2285912l-4.97596087 7.64585693-12.9832754 4.6594902z" fill="#000" fill-rule="nonzero"/>
      <path d="M217.24233616 173.73803064c1.12062542-.4006706 2.06850336-1.13683087 2.69257475-2.09116249l5.56137503-8.50446803c.90924998-1.39042737 2.48538333-2.29007905 4.22521724-2.4117401l60.63090301-4.23972574c2.77652301-.1941534 6.43788767.93521499 10.98409198 3.38810535.26250998-.01835649 5.49472412 8.91028773 5.25115059 11.65200886l-3.66360993 52.558182c-.21858901 2.46049504-5.26410768-1.1833537-7.91448773-.99802108-9.88774435 4.56298719-17.7903921 7.05137853-23.70794304 7.465174-7.04133647.4923782-7.99599879-1.51895923-18.38130643-.79274778-3.74878006.26214024-15.47407797 3.16014688-19.65857426 3.45275536a84533292035989970 84533292035989970 0 0 0-34.35955135-3.40469923l.90680901-8.3743099c.06094949-.56286363.01834678-1.13026237-.12598075-1.67785961l-2.78440748-10.5643973c-.40183254-1.52460403-.00181154-3.1434061 1.07877291-4.3655708 3.37036564-3.81195736 5.10916706-6.8100879 5.21640416-8.99439164.14579361-2.9696603-.74965591-5.72549707-2.68634848-8.26751025-.7738194-1.01567953-1.10464343-2.26866372-.92667482-3.5097472l.18081511-1.26094312c.2613597-1.82262024 1.58052905-3.37392835 3.4319583-4.03589193l14.04881218-5.02303937z" fill="#C4C3C6" fill-rule="nonzero"/>
      <path d="M240.78344916 163.31497266c.52411558-.76313682 1.10929608-1.51088783 1.78735764-2.23502508 1.8149598-1.93882728 6.27117124-2.11022158 10.943879-2.42761615-1.35822063 1.09693375-2.51752284 2.0330001-3.6765204 2.9691497.57425313-.0686891.9371394-.21643617 1.22925087-.3919552 1.6068054-.96626445 3.5827723-1.78460797 4.92283004-2.8573452l.6210641-.10267266c.5884543.2110866.91536634.16230103 1.03079636-.09626942 4.18939792-.29313028 8.45934525-1.1814299 12.78141528-.60233843.99331398.1331235 1.1096291.45470924.70394166.73448378-.51170782.35279121-1.30836543.56423841-2.20871638.70058506-.37673806.05707936-.80593696.0944982-.77538904.3044372.1476988 1.01471905-1.4876911 2.86491306-3.0326196 2.96311294-1.1382846.07223277-2.42552354.05996023-2.77750296.70445783 1.54941146.06154655 3.01069939.11988817 4.59870587.18309782-.77457525.75787488-2.15821273 1.22576681-2.316534 2.14444991 2.06557907-.42027759 3.39617958-2.9198873 3.55700823-3.95170731.1905387-1.22204064 1.46229024-1.87517264 3.97943181-2.07513766.99716637-.07911062 1.57050701-.36059542 1.621593-.90109523.04940915-.52719263 1.0136979-.75160507 2.05954978-.79521323 2.0480978-.08552993 6.02840944-.43858967 10.09987511-.745876l-.43929952-6.28227582-45.38053575 3.1733162.6704189 9.58743695zM289.87353985 228.25152363c-.89870923-.09754274-1.73256965-.01030308-2.58950001.16615412-.57716678.3287996-1.02286737.30214258-1.4421204.03729155-.3782355-.23934604-.6634432-.65213148-1.201778-.72043947.0670031.84195512.31810632.78899946.06727713 1.71047626-.08804471.32365388 1.05453793.96931016 1.2195612 1.17256632.65277597.8032697 1.41848917.8973175 2.2683804 1.34067594.61325742.32002263 1.43945202 3.54502035 1.56914811 4.55899981-.8702711-1.26382454-3.14072417-4.8132484-4.73832823-4.80295172-.1003632.00051955-.22564044-.05944019-.24408302-.15511491-.11131284-.57745037-1.51577931-.55855533-1.6225415-1.1460816-.37117513-2.04249515-.3663329-2.70397303-2.0420629-3.51483179-.83337878-.40342851-.79754002-1.17967733-1.77649186-1.27296356-.16397028-.01557055-.76448306-.80468202-1.02182852-.60696448-.54507865.41866536-.5922852-.44391361-.8350764-.85205502-.52769037-.88726899-1.78338224-.26192375-2.74564534-.51898471-.84661024-.2260506-5.83586396-3.8038331-6.45523253-4.40945956.92899928.32813153 2.66017662.45039182 3.58588273.78162427.8965065.3205684 5.73470666 2.8403038 6.47124804 3.46209068-.3404616-.39890945-.8450911-1.60467853-1.5138887-3.6173071l-4.15413657-3.44162339c-2.44839895-1.60659771-3.7849129-2.49960223-4.00954166-2.67901369.13749096.0063126 1.87214936.44124701 5.20397521 1.30480324l4.38566877 3.87728727.62344606 3.48710323c.464871.46553909.74521845.74930004.84104229.85128295.63898056.68012203.60088805.16666001 1.65010398.17566977 1.6902734.01454287.92326229 1.49810838 2.35375803 2.0484145.17608458.0677037 1.55098806.168293 1.5901751.39894678.22035304 1.29477479 1.08013006 1.82118606 1.98529546 2.28987697.95920829-.41122643 1.84449987-.59159271 2.57729313.07452734zM310.22834721 168.53777106c-.79724039-.12953825-1.62245194-.05309625-2.51224947.12149051-.70029438.34985186-1.10611942.30963482-1.37252605.00654675-.2401466-.27388595-.30948363-.73740489-.78228528-.82592873-.34206385.93304755-.08072875.88050714-.75958468 1.89387766-.2383857.3559315.52426999 1.09770445.58150616 1.32653327.22676278.90434889.90076046 1.02682018 1.4858003 1.53775138.42209649.36879248-.35315404 3.95641341-.71907762 5.08127595-.20951947-1.4190838-.63480882-5.40036878-2.14039643-5.42742733-.09452111-.00184101-.18335262-.07118784-.1546537-.17747484.1732103-.64149818-1.15509815-.65439685-.97276668-1.30693235.63384115-2.26849616.95657557-3.00015663-.2274015-3.93751964-.58873654-.46636076-.18168003-1.32424294-1.05633926-1.4510044-.14652826-.0211713-.33101071-.90859925-.66784275-.6960628-.7133819.45004115-.34280284-.50534524-.37453196-.9627055-.0688642-.99426455-1.54914494-.332681-2.32934925-.6402206-.68648834-.27044955-3.65191371-4.34854154-3.94236862-5.03343753.71477326.38536208 2.28206344.5622803 2.9922513.95099427.6878906.37621337 4.02037646 3.28017736 4.41311824 3.98577167-.12791231-.44949744-.02190973-1.79555568.31800708-4.03817397l-2.24649343-3.90736301c-1.52697819-1.83626638-2.35281385-2.85634213-2.47750766-3.06022652.1261097.01029192 1.5462659.53319808 4.26046983 1.56871693l2.25440758 4.39490042-1.09177153 3.87270218c.21271946.5262031.33955532.84686792.38050695.96199523.2730421.76778108.4842487.19883374 1.46544611.23405315 1.58068356.05676848.14659898 1.67954086 1.22555757 2.32275984.13282992.07913676 1.3758951.22350638 1.3017542.47961574-.4158379 1.43768122.13853706 2.04073001.76331049 2.58101632 1.09879697-.43184469 2.01711432-.610073 2.38501006.14447595z" fill="#000"/>
      <path d="M197.35294155 226.49726521l2.83897771-5.68643995-.86778552-12.40991116c-.26700888-1.01569439-1.28992074-2.77660616-3.06873548-5.28273542l8.26215118-7.63801084c-2.5451468-4.71306853-4.46077781-7.91645205-5.74689327-9.61015073-.77081484-1.015094-1.10055233-2.26720525-.92363112-3.50730176l.17975097-1.25994035c.25982155-1.82117082 1.57307563-3.37098025 3.41656918-4.03199295l13.98859524-5.01582367c1.11582217-.40009503 2.05954122-1.13546627 2.68076102-2.08892124l5.53596258-8.49665576c.90509536-1.38915006 2.47439165-2.28773665 4.20688917-2.40888468 16.9371755-1.48347971 31.68273795-3.06833609 44.23668716-4.7545693 12.55394971-1.68623314 22.22631634-3.4573629 29.0171005-5.31338915-.61628666-1.33077863-2.88279238-1.85922595-6.79951713-1.58534188-.26507372.01853576-.52337385-.01730203-.78477553.00097696l-69.2669802 4.8436191c-1.73249751.12114802-3.30179381 1.01973451-4.20688906 2.40888466l-5.53596269 8.49665577c-.6212198.95345497-1.56493885 1.6888262-2.68076092 2.08892123L197.84586 170.26207777c-1.84349344.6610127-3.15674762 2.21082213-3.41656918 4.03199295l-.17975087 1.25994034c-.1769213 1.24009652.15281617 2.49220767.92363113 3.50730176 1.92917303 2.54054794 2.8215278 5.29450512 2.6770642 8.26187144-.1062587 2.18261658-1.83703284 5.1780466-5.19232216 8.98629014-1.07575083 1.22097402-1.47370053 2.83844817-1.07318715 4.36198974l2.77526651 10.5570353c.14385377.54721566.18641468 1.11419319.1258572 1.6766139l-.90097661 8.3677216c-.25957902 2.41081153 1.37036144 4.57514584 3.76806848 5.22443027z" fill="#C4C3C6" fill-rule="nonzero"/>
      <path d="M218.19040348 181.01915385l16.10000088-20.60798424-6.13410374.42893832c-1.6627649.11627185-3.1669681 1.00628186-4.0323907 2.38589321l-5.29330712 8.43831235c-.59399017.94690798-1.4980875 1.67609348-2.56821039 2.0713496l-13.41568243 4.95516152c-1.7679919.6530182-3.02482195 2.19144346-3.269776 4.00237563l-.16946512 1.25285699c-.11119825.82208315.10822107 2.73448535.65825797 5.73720649l2.8269113 5.97871368-2.40116364 10.0844844-4.11550237 2.76692864c1.96707014 5.55295925 2.99708085 8.51099958 3.09003195 8.87412098.13942673.544682.31641208 3.1539642.25965721 3.71327117l-.84440078 8.32139442c-.24327907 2.3974643 1.32662906 4.55437246 3.62982707 5.20609746l.68452907-6.7458916c.05675477-.55930695-.60549794-3.54784677-.74492467-4.09252877l1.76456212-9.21358726-2.81490246-3.20648377 4.96224186-8.92620538-.66130798-9.45714472-.88143377-4.48346267 2.29650947-3.8793046 11.07404227-3.60451185z" fill="#FFF" fill-rule="nonzero"/>
      <path d="M228.39567392 174.57391576l-1.2447031 46.93919457c-.02747544 1.03612913.79019996 1.89835095 1.82632909 1.9258263a1.875746 1.875746 0 0 0 .0323874.00057916c1.0597835.00980426 1.931852-.83162193 1.95994604-1.8910784l1.24470308-46.93919467c.02747545-1.03612913-.79019995-1.89835095-1.82632908-1.9258263a1.8758166 1.8758166 0 0 0-.0323874-.00057916c-1.0597835-.00980426-1.931852.83162193-1.95994603 1.8910785zM251.4063871 172.96484995l-1.24470319 46.93919457c-.02747534 1.03612913.79020006 1.89835095 1.82632908 1.9258263a1.8758872 1.8758872 0 0 0 .0323874.00057917c1.05978361.00980424 1.9318521-.83162194 1.95994604-1.89107841l1.24470319-46.93919467c.02747534-1.03612913-.79020006-1.89835095-1.82632909-1.9258263a1.8758872 1.8758872 0 0 0-.0323874-.00057917c-1.0597836-.00980424-1.9318521.83162194-1.95994603 1.89107851zM239.9010305 173.76938285l-1.24470318 46.93919457c-.02747535 1.03612912.79020005 1.89835094 1.82632918 1.92582629a1.87580504 1.87580504 0 0 0 .0323873.00057917c1.05978361.00980425 1.9318521-.83162193 1.95994614-1.89107841l1.24470308-46.93919466c.02747545-1.03612913-.79019995-1.89835095-1.82632908-1.9258263a1.8758872 1.8758872 0 0 0-.0323874-.00057917c-1.0597835-.00980425-1.9318521.83162194-1.95994603 1.8910785zM262.16990104 195.09044642l-.64442638 24.10381642c-.02787413 1.04258855.79471457 1.91037005 1.83730312 1.93824408a1.887601 1.887601 0 0 0 .03357145.00059893c1.06711363.00954957 1.94510578-.83766346 1.97362647-1.9044387l.64442648-24.10381642c.02787413-1.04258855-.79471457-1.91037005-1.83730312-1.93824408a1.8876675 1.8876675 0 0 0-.03357145-.00059893c-1.06711363-.00954957-1.94510578.83766346-1.97362657 1.9044387z" fill="#000"/>
    </g>
    <g>
      <path d="M210.92326996 175.84464843c-5.11418244 1.79347926-7.45879604 1.84603475-8.1885144 6.76240667l3.02450502 8.03106065c-.49688901 3.3477179-3.82794435 8.22849861-1.69623546 10.96407905.86314648 1.10765905.42542804 4.89996742.42263122 6.0439081-5.34578699 3.39543997 2.11071868 17.90467259.25741216 21.23911455-1.23553767 2.22296137-1.0132357 5.40202752.66690588 9.53719843l-.9253507 8.22563263c-.10394835.92401833-.10226175 1.834429-.00382372 2.72144804.06562535.591346 4.47126376 4.5349798 13.21691523 11.83090178 1.08448962.04615125 1.89781057.05027189 2.43996278.01236091l104.05595786-7.2763014c7.31769095-.5117028 13.1915138-5.80488158 13.80601967-12.44125531l3.6567829-73.5710618c.68474267-7.3948883-5.36031358-13.81123607-13.50201015-14.33131398-.72368756-.04622794-1.45087496-.04399176-2.1756631.00669037l-84.08082183 2.84277315c-4.80367661.33590579-9.1589216 2.76913908-11.67531749 6.52288704l-5.35607104 7.98973699-13.94328483 4.88973413z" fill="#000" fill-rule="nonzero"/>
      <path d="M237.71162938 188.95191538c1.19910275-.4204643 2.2140554-1.19104833 2.88310973-2.18894774l5.96223676-8.89271946c.97478852-1.45390406 2.66188622-2.39635534 4.52268514-2.52647508l64.84637207-4.53450006c2.96956562-.20765226 6.8830681.96557753 11.7405084 3.5196893.28076141-.01963275 5.86049393 9.29725976 5.59521865 12.16143722l-4.00982742 54.90388363c-.23806452 2.57039068-5.62739025-1.22681386-8.46204132-1.02859575-10.58198063 4.78337742-19.03746018 7.39634883-25.36643906 7.83891414-7.53089752.52661166-8.5482989-1.57257753-19.65566304-.79587497-4.0094205.280366-16.5535755 3.32787159-21.02900605 3.64082418l-30.67483597 2.14499348c-.31502006.02202835-.63115103.02043004-.94516703-.00477872-3.14857575-.25276337-5.44011495-2.77623984-5.118296-5.63634256l.98439589-8.7486254c.0661643-.58802248.02159746-1.18060085-.13178919-1.75231841l-2.95917578-11.02973301c-.42705428-1.59175904.00356194-3.28331155 1.16128178-4.56176355 3.61095266-3.98751862 5.47567955-7.12213366 5.59418065-9.40384541.16110753-3.10209083-.79166888-5.97901946-2.85832935-8.63078608-.82574902-1.05953233-1.1773417-2.36770641-.98485009-3.66434008l.19557036-1.31738228c.28268785-1.90419984 1.6961273-3.52686232 3.6772119-4.22152796l15.03264897-5.27118543z" fill="#C4C3C6" fill-rule="nonzero"/>
      <path d="M262.32878366 177.60645132c.5593716-.82516505 1.18401315-1.63362691 1.90793224-2.41645368 1.93770525-2.09596475 6.6995769-2.2772371 11.69266612-2.61626806-1.45040766 1.18552821-2.68839584 2.19719618-3.92605844 3.20895445.61359879-.07377971 1.0012512-.23329154 1.31324563-.42291659 1.7161744-1.04392192 3.82698312-1.92746014 5.2580041-3.08682648l.66359044-.1105036c.62903588.22892903.97833756.17645214 1.10144779-.103193 4.4766335-.31323058 9.0387883-1.27031261 13.65801382-.63974296 1.06160732.14495712 1.18620534.49299661.75293778.79531196-.54649565.38121462-1.39762853.60923981-2.35964139.75591523-.40253938.0614034-.86115838.10148669-.82831797.32865292.15878305 1.0979851-1.5871117 3.09822333-3.23797363 3.20302473-1.21633503.07708682-2.591926.06260643-2.96745899.75957386 1.65580191.06803613 3.21742939.13252229 4.9144764.20239378-.82702474.81923805-2.30518121 1.32416812-2.47350946 2.31796394 2.2069428-.452778 3.6265244-3.15591841 3.79742641-4.27211714.2024733-1.32197499 1.56089235-2.02742485 4.25059318-2.24141998 1.06552578-.08466005 1.67795062-.3886691 1.7320376-.97340009.05230754-.5703353 1.08256368-.81223128 2.20014946-.85843487 2.1885747-.0906234 6.44171671-.46888823 10.79231164-.79754458l-.47531662-6.79734428-48.49194102 3.39088684.72538491 10.3734876zM315.18624156 245.42601551c-.96327064-.1000008-1.8573892-.00728855-2.77641848.17857932-.61941173.34429587-1.09717389.31736703-1.54610668.04180122-.40501103-.2490297-.70994383-.67925146-1.28693196-.74946233.07014793.87854756.33945038.82277963.06870507 1.78495427-.09503585.337948 1.1285847 1.00948394 1.30509248 1.22127611.69820568.83700405 1.51890432.93362323 2.42914771 1.39462272.65680612.33275564 1.53608448 3.69677884 1.67309856 4.75472976-.93045174-1.31721366-3.35740598-5.01692702-5.07014589-5.00298698-.10759584.00074275-.24177997-.06158217-.26136004-.16139362-.11817934-.6024161-1.62388226-.57988894-1.73716262-1.19283009-.3938364-2.13084899-.38732259-2.82119115-2.1821761-3.6640698-.89262125-.41936046-.85264853-1.22954098-1.90195183-1.32493969-.1757539-.01592219-.81795925-.83825429-1.09424297-.63139756-.58519106.43801744-.63407486-.46209324-.8935443-.88755283-.5639393-.92491726-1.91135978-.26978393-2.9424449-.53613398-.90716096-.23421806-6.2487617-3.95809214-6.9115482-4.58889788.99528234.34058732 2.85095513.46471938 3.84270069.80854968.96046344.33275948 6.1422419 2.95273495 6.93061165 3.6001721-.36419594-.41562958-.9027759-1.67298651-1.6157397-3.7720707l-4.44658175-3.58344483c-2.62160618-1.67178376-4.0526371-2.60106985-4.29309284-2.78785833.1473853.00631307 2.00616479.45675148 5.57633864 1.35131533l4.69392602 4.03764993.6613966 3.63796766c.4974365.48491677.797417.78049515.89994158.88673517.68366249.70851204.64385179.1727285 1.76865095.18003348 1.8120368.01179769.98679264 1.56161135 2.5192624 2.13306234.18863698.07030495 1.66240796.17253307 1.70395745.4131699.23364193 1.35081351 1.15431765 1.8984684 2.12376765 2.38579427 1.02914617-.43108236 1.97858796-.62108637 2.76285081.07262536zM337.12698749 183.06697485c-.8544249-.13359598-1.73924863-.05217076-2.69350808.13180925-.75145187.3665108-1.18643818.325351-1.4714343.00957486-.25690273-.28535261-.33030954-.76895083-.83700137-.86039096-.36857536.97442887-.08830532.91907472-.81810028 1.97800314-.25627284.37193233.55985256 1.14453606.62075542 1.38323168.24129569.94334063.96361184 1.06980787 1.58978506 1.6018557.4517732.384035-.38650564 4.12968984-.78104268 5.30434753-.221781-1.48056214-.66975887-5.63465268-2.2837743-5.6598841-.10132822-.00173218-.1964215-.07392658-.165443-.18490605.1869728-.66982562-1.2370194-.68063235-1.04024655-1.3619943.68404473-2.3687102 1.03149499-3.13292883-.23591815-4.1088126-.63022532-.48552585-.19212491-1.38164045-1.12955353-1.51218273-.15704322-.02180258-.35304545-.94756933-.71457169-.72508978-.76568267.4710964-.36649332-.52670228-.3995945-1.00394854-.07183964-1.0374945-1.66010171-.34409623-2.49590792-.66349088-.73541116-.28087511-3.90635745-4.53091914-4.21637194-5.24510883.76550499.40074283 2.44536994.58224652 3.20595326.98649547.73670374.3912487 4.3035032 3.41521984 4.7231339 4.15080545-.13623051-.46884824-.01990051-1.8738306.34898943-4.21494627l-2.40055271-4.0733063c-1.6333338-1.91330867-2.51663567-2.97622769-2.64990633-3.18875636.13517556.010489 1.65661452.55336507 4.5643168 1.62862812l2.40806373 4.5820923-1.1781759 4.04380327c.22699554.54872958.36232922.88312826.40600163 1.00319521.2911817.80072441.51874297.20653906 1.5705689.24133377 1.69446413.0560858.15380556 1.7525066 1.3092225 2.42162454.14224222.08232344 1.47458597.23050646 1.39459066.49793564-.44867331 1.50122093.1444421 2.12946488.81315298 2.69206912 1.17883154-.4528761 2.16367249-.64071286 2.55656896.14601265z" fill="#000"/>
      <path d="M215.85990347 243.4433438l3.05549021-5.94644606-.90650532-12.96363004c-.28436263-1.06063331-1.37789127-2.89836894-3.28058601-5.51320688l8.8749618-7.99588531c-2.72020754-4.919061-4.76826745-8.26209323-6.14417994-10.02909665-.82463344-1.05902832-1.17580591-2.3665375-.9836727-3.66247768l.19520622-1.31667765c.28216141-1.90318134 1.69347243-3.52490125 3.67167449-4.21907553l15.01077603-5.26745756c1.19735803-.42016698 2.21080747-1.1902815 2.87883957-2.18761392l5.953128-8.88766722c.9732992-1.45307805 2.65791982-2.39492664 4.51604447-2.52485937 18.16590796-1.58274738 33.98177841-3.26715466 47.44761115-5.05322194 13.46583254-1.78606726 23.84168888-3.65523752 31.12756922-5.60751068-.6583082-1.38914132-3.08782992-1.93683992-7.28856515-1.6430959-.28429478.01987984-.56122018-.01706041-.84157758.00254409l-74.28968047 5.19484051c-1.85812465.12993274-3.54274526 1.07178133-4.51604447 2.52485937l-5.953128 8.88766723c-.6680322.99733242-1.68148154 1.76744683-2.87883958 2.18761382l-15.01077603 5.26745756c-1.97820214.69417438-3.38951306 2.31589428-3.67167447 4.21907562l-.19520623 1.31667766c-.1921332 1.29594018.15903916 2.60344936.9836727 3.66247767 2.06386868 2.6505051 3.01546352 5.52598312 2.85478453 8.62643386-.11818579 2.28050532-1.98004135 5.41335466-5.58556639 9.3985481-1.15597978 1.2777064-1.58587116 2.96834282-1.15932721 4.5592928l2.95563946 11.02412672c.15320326.57142695.19774408 1.16369678.13171203 1.75140618l-.98242776 8.74396615c-.28304578 2.51921095 1.46066309 4.77724593 4.03064743 5.45093506z" fill="#C4C3C6" fill-rule="nonzero"/>
      <path d="M238.49750119 196.57962555l17.36206816-21.57009496-6.59897547.46144532c-1.7887772.12508349-3.40866518 1.05838576-4.34251281 2.50194894l-5.71182474 8.8294698c-.6409542.99080175-1.6150018 1.75475001-2.76691338 2.17009797l-14.4410329 5.20704263c-1.90311824.6862125-3.25831892 2.29657939-3.52569763 4.18953934l-.18497908 1.30960632c-.12137813.85932017.1105207 2.85731725.69569639 5.99399144l3.02785437 6.24169992-2.60447922 10.54350253-4.4327308 2.90031158c2.10389623 5.7986352 3.20544427 8.88758462 3.3046441 9.26684806.14879979.56889525.3335552 3.29522667.27130395 3.87982736l-.92617694 8.69771433c-.26683939 2.50588528 1.4171651 4.75648562 3.89316106 5.43258411l.7508224-7.05096231c.06225126-.58460059-.64365812-3.70621363-.7924579-4.27510878l1.9178543-9.63204072-3.0209041-3.34473218 5.35676967-9.33860785-.69097047-9.88133808-.9384504-4.6833428 2.47855384-4.05883469 11.9193776-3.79056728z" fill="#FFF" fill-rule="nonzero"/>
      <path d="M249.38435537 189.58387262l-1.42503506 48.88116661c-.03222608 1.10540991.83776142 2.02764618 1.94317143 2.05987225a2.00252749 2.00252749 0 0 0 .0440498.0007993c1.13766727.00812524 2.07336527-.89422084 2.10651857-2.03143397l1.42503496-48.8811666c.03222608-1.10540991-.83776142-2.02764618-1.94317133-2.05987226a2.00191854 2.00191854 0 0 0-.0440499-.0007993c-1.13766727-.00812523-2.07336527.89422085-2.10651847 2.03143397zM274.05628473 187.85864325l-1.42503496 48.8811666c-.03222608 1.10540992.83776132 2.02764619 1.94317133 2.05987226a2.00257114 2.00257114 0 0 0 .0440498.0007993c1.13766738.00812523 2.07336537-.89422085 2.10651857-2.03143397l1.42503497-48.8811666c.03222608-1.10540991-.83776133-2.02764618-1.94317134-2.05987226a2.00195311 2.00195311 0 0 0-.0440498-.0007993c-1.13766737-.00812523-2.07336537.89422085-2.10651857 2.03143397zM261.72032 188.72125794l-1.42503496 48.8811666c-.03222608 1.10540991.83776142 2.02764618 1.94317133 2.05987226a2.00253655 2.00253655 0 0 0 .0440499.0007993c1.13766728.00812523 2.07336527-.89422085 2.10651847-2.03143397l1.42503507-48.88116661c.03222608-1.1054099-.83776143-2.02764617-1.94317144-2.05987225a2.00190948 2.00190948 0 0 0-.0440498-.0007993c-1.13766727-.00812524-2.07336527.89422085-2.10651857 2.03143397zM285.5511134 210.92817096l-.7358316 25.04782613c-.03267628 1.11230421.84253508 2.04049424 1.9548393 2.07317052a2.01545746 2.01545746 0 0 0 .04536837.00082163c1.14553506.00784438 2.08759542-.90070118 2.1212342-2.04576918l.7358317-25.04782613c.03267617-1.11230421-.8425352-2.04049424-1.9548394-2.07317042a2.01419424 2.01419424 0 0 0-.04536838-.00082163c-1.14553497-.00784448-2.08759542.90070119-2.1212342 2.04576908z" fill="#000"/>
    </g>
    <g>
      <path d="M236.9863539 188.72388567c-5.02754695 1.8028054-7.33389502 1.8514916-8.04245513 6.81851267l2.9904299 8.12175654c-.48248167 3.3822066-3.7501006 8.30834972-1.64792888 11.07690249.85118663 1.12100984.4277515 4.9526233.42715942 6.10866426-5.25235775 3.42128143 2.11015493 18.09812927.29331087 21.46435917-1.21122936 2.24415323-.9865456 5.4572808.6740513 9.6393827l-.89476163 8.31093204c-.10051216.93360038-.09713461 1.85364846.00137527 2.75024001.06567325.5977277 4.40703897 4.59140985 13.02409722 11.98104663 1.0669231.0486868 1.86701234.05438629 2.40026769.01709744l102.34836991-7.15689522c7.19760518-.50330558 12.96582082-5.84141152 13.55779786-12.54685347l3.45839013-74.3427105c.65963889-7.47185074-5.29912453-13.96750831-13.30927053-14.5084573-.7119945-.0480831-1.42733915-.0471959-2.14023334.00265452l-81.66156798 3.74730364c-4.7248469.33039349-10.04979894 1.74800503-12.51814686 5.53672656l-5.25380273 8.0641772-13.7070825 4.91516062z" fill="#000" fill-rule="nonzero"/>
      <path d="M263.17307307 201.81159057c1.1789889-.42232587 2.17616713-1.19845943 2.83261901-2.20471158l5.84993108-8.9671557c.95642717-1.46607386 2.61459115-2.41450654 4.44512118-2.54250967l63.79153986-4.460739c2.92126058-.20427445 6.77371902.98727142 11.5573763 3.57463757.27619357-.01931333 5.78270895 9.3969423 5.52689277 12.28808581l-3.84586718 55.42274355c-.22957674 2.59459076-5.53877999-1.2487414-8.32732165-1.05374758-10.40253842 4.81008613-18.71682176 7.43281235-24.94284944 7.86817861-7.40839525.51804546-8.41316981-1.6030979-19.33985456-.83902968-3.94420077.27580539-16.28038165 3.32983924-20.68301208 3.63770115l-30.17585972 2.11010167c-.30989567.02167001-.62092715.01948495-.92992046-.00653304-3.09821382-.26087651-5.35732834-2.8126759-5.04587333-5.69960342l.95269403-8.83067836c.0640335-.59353758.01911488-1.19187474-.13282944-1.76934793l-2.93135063-11.14077248c-.42303872-1.6077838-.00243027-3.31476698 1.13429285-4.60337687 3.54546344-4.0192015 5.37442726-7.18048299 5.48689143-9.48384466.15290013-3.13152481-.78969846-6.03774346-2.82779575-8.71865575-.81433626-1.07117771-1.16261883-2.39252268-.97557774-3.70123326l.19003265-1.32965237c.27468327-1.92193547 1.66237639-3.55759203 3.6102302-4.2553333l14.78049062-5.2945237z" fill="#C4C3C6" fill-rule="nonzero"/>
      <path d="M287.81648206 190.70999413c.54951217-.82447561 1.1632702-1.63217633 1.87474807-2.41413312 1.90440356-2.09363617 6.58998921-2.26957398 11.50292175-2.60299994-1.42590898 1.1838151-2.64298673 2.19402086-3.85974396 3.20431739.60371241-.0730885.9849929-.23215475 1.29179051-.4214164 1.68758761-1.04192293 3.7636834-1.9230337 5.17054468-3.08071062l.65286442-.10975358c.6192411.22961386.96290315.17753143 1.08373394-.10195441 4.40475752-.30820442 8.89295043-1.26011464 13.43907605-.62443334 1.04480735.14613199 1.16780338.4942834.74179628.79609104-.5373381.38057427-1.37461712.6076307-2.32109541.75321984-.39603916.06094886-.84728566.10051671-.81471618.32770189.15747285 1.0980767-1.55829177 3.09620805-3.1826598 3.19915681-1.1968147.07572183-2.5504431.05970556-2.91919724.75619907 1.62942202.06988069 3.16617045.13610656 4.83618068.20786865-.81289554.81825004-2.26687035 1.32148926-2.43139878 2.31501937 2.17117514-.45027697 3.565055-3.15162005 3.73197942-4.26754074.19776122-1.32164538 1.53368768-2.02552251 4.18017433-2.23649581 1.0484067-.08346287 1.65070665-.38676401 1.70327614-.9713889.05083463-.5702323 1.06435943-.8109583 2.16403715-.85590954 2.15350463-.08817107 6.33826861-.46165454 10.61898517-.78542452l-.47531662-6.79734428-47.71336552 3.33644354.72538492 10.3734876zM339.7158998 259.23611105c-.94805864-.10285783-1.82771092-.01083372-2.73170168.1752852-.60886724.34678348-1.07904231.3186777-1.52131297.03935706-.39900129-.25242207-.69986293-.68776613-1.2677583-.75979784.0706666.88797723.33555978.83212218.07093934 1.8039739-.09288568.34134733 1.11242814 1.02227513 1.28650935 1.23663913.68860701.84716626 1.49636673.94634 2.3929202 1.41391742.6469273.33750472 1.51843044 3.73877334 1.65522958 4.8081769-.91803721-1.33289152-3.31310181-5.07629345-4.99843591-5.06540428-.10587472.00055024-.23803019-.06268481-.25748382-.1635888-.1174145-.60901323-1.59900532-.58905933-1.71161941-1.20869873-.39151927-2.15413596-.38639843-2.8517724-2.15413334-3.70692323-.879135-.42546532-.84131356-1.24414654-1.87402136-1.34251359-.1729741-.01641854-.80644833-.84865371-1.07792923-.64012351-.57501872.44156093-.62480127-.46816791-.88091732-.89861475-.55665105-.93575955-1.8813091-.2762077-2.89640857-.5473022-.8930963-.2383914-6.15626009-4.0116506-6.80962895-4.65037051.98000778.34605053 2.80624778.4749614 3.78278145.82428235.94573082.33807468 6.04956602 2.99545436 6.82654174 3.65121583-.35915002-.42070846-.8914678-1.69237846-1.59695352-3.81500985l-4.3821899-3.62967324c-2.58281892-1.6943724-3.99270863-2.6361657-4.22966919-2.82538003.14504101.00665512 1.97494734.46533148 5.48971918 1.37602917l4.62642823 4.08914743.6576159 3.67770544c.49038993.49097776.7861269.79024456.88721083.89780035.67405642.71728733.6338818.17575888 1.7407137.18524132 1.78309193.01530607.9739336 1.57998147 2.48297248 2.1603419.18575274.0714012 1.63615512.17746308 1.6774897.4207243.232429 1.36554629 1.13940946 1.92071642 2.09427185 2.41501013 1.01188956-.43372318 1.94579899-.62396536 2.71881995.07855273zM361.18947768 196.25804256c-.84101591-.13660498-1.71154346-.05596927-2.6502044.12817575-.73875512.36898702-1.16686415.32657892-1.44789407.00692853-.2533294-.28885156-.3264654-.77770522-.82522835-.87105891-.36086344.98405307-.08517712.92863639-.80132853 1.99740962-.25148206.37539065.5530395 1.15769506.61341425 1.39903081.23919985.95377512.95020554 1.08292904 1.56736195 1.62177743.44526802.38894313-.37261677 4.1726758-.75865357 5.35902893-.221-1.49664596-.66957215-5.695539-2.2578334-5.7240508-.09971176-.00193957-.19342002-.07507519-.16314336-.18717224.18273305-.67656532-1.21851563-.69014519-1.02616041-1.37835114.6686871-2.3925028 1.00915645-3.16416123-.23981858-4.1527393-.6210572-.4918411-.19163276-1.39662254-1.11431959-1.5302965-.15457336-.0223268-.34917108-.95825714-.70450294-.73409764-.75256254.4746522-.3616174-.53296177-.39508062-1.01532063-.07262893-1.04860847-1.63420594-.35083768-2.45724768-.675173-.72417968-.28522046-3.85237083-4.58616632-4.15876287-5.30849353.75401607.40641335 2.4073661.59297414 3.15654515 1.00292214.72565753.39676477 4.24108508 3.45939978 4.65538091 4.20355427-.13492838-.47406445-.02308084-1.89369982.33554113-4.25890474l-2.36978325-4.12089867c-1.61079554-1.93660846-2.4819614-3.01242656-2.61349823-3.22745355.13303362.01085307 1.63116434.56231577 4.4943921 1.65438806l2.37812424 4.63508345-1.1517919 4.08440227c.22439164.5549607.35818646.8931508.40138462 1.0145704.28802139.80974331.51083613.20969346 1.54591247.24682056 1.66748136.05984315.1546192 1.77134139 1.29281434 2.44969928.14012272.08345963 1.45144427.23569877 1.37322766.50580835-.43869833 1.516272.1461085 2.15227266.80518 2.72207967 1.15914114-.4554679 2.12788866-.6434547 2.51597293.15233113z" fill="#000"/>
      <path d="M242.10748165 257.23124113l2.99595464-5.99821247-.91534927-13.0901045c-.28172682-1.07135931-1.36108607-2.92876085-3.23807786-5.57220482l8.71873004-8.0569146c-2.6855861-4.9713285-4.70693041-8.350241-6.06403314-10.13673742-.81336014-1.07071116-1.1612733-2.391444-.97454321-3.69951864l.18971664-1.32900636c.27422661-1.92100154 1.66006304-3.55579889 3.60539986-4.25309791l14.76139167-5.29116825c1.17746545-.42205835 2.17333175-1.19776516 2.82889236-2.20349987l5.84198828-8.9625432c.9551286-1.46531986 2.6111303-2.4132066 4.43932434-2.54104638 17.87272952-1.56529487 33.43279705-3.23745812 46.68020267-5.01648995 13.24740583-1.77903185 23.45407003-3.64752822 30.6199924-5.60548929-.6502875-1.40370379-3.04196597-1.9610495-7.17503544-1.67203712-.27971596.01955964-.55228133-.01823482-.82812275.00105389l-73.09302428 5.11116216c-1.82819404.12783978-3.48419573 1.07572662-4.43932434 2.54104637l-5.84198837 8.96254332c-.65556052 1.0057346-1.65142682 1.78144151-2.82889227 2.20349976l-14.76139167 5.29116825c-1.94533682.69729902-3.33117335 2.33209638-3.60539985 4.25309801l-.18971665 1.32900626c-.1867301 1.30807464.16118307 2.62880748.97454321 3.69951864 2.035654 2.67974468 2.97721562 5.58462681 2.8246848 8.7146465-.11219244 2.30225452-1.93865307 5.46192297-5.47938173 9.47900552-1.13520516 1.28793055-1.55518317 2.99407451-1.13259292 4.60111337l2.9282432 11.13561127c.1517832.57720579.19667812 1.1752595.13275916 1.7685098l-.95098916 8.82640452c-.27398805 2.54296207 1.44591663 4.82588076 3.97603964 5.51068314z" fill="#C4C3C6" fill-rule="nonzero"/>
      <path d="M264.30395189 209.49170002l17.0171901-21.74554756-6.4826621.4533119c-1.75724818.12287876-3.3470189 1.06211452-4.26177578 2.51785503l-5.59505736 8.90395236c-.62785105.99915987-1.58340193 1.76863664-2.7143709 2.18580244l-14.1784841 5.22983267c-1.86851813.68921593-3.19693922 2.312569-3.45602758 4.2233245l-.17924361 1.32191763c-.11761464.86739852.11404127 2.88515978.69496795 6.05328398l2.98680343 6.3078393-2.5387954 10.64049162-4.34965516 2.91989793c2.0781619 5.85872652 3.16633715 8.97964996 3.26452567 9.36277044.14728277.57468067.33401022 3.3277297.2739638 3.91786487l-.89337408 8.7800573c-.25738858 2.52960903 1.40145424 4.805188 3.83542939 5.49255076l.72423008-7.11771514c.06004652-.59013517-.63947315-3.74328296-.78675593-4.31796372l1.86592101-9.72152612-2.97444512-3.38284343 5.24524123-9.4186916-.6977447-9.97821391-.9309739-4.73042412 2.42745047-4.0933545 11.70364259-3.80447263z" fill="#FFF" fill-rule="nonzero"/>
      <path fill="#000" d="M274.91910795 200.73254146l-1.27715729 53.2842736 3.8796032.04387318 1.2771573-53.2842736zM287.09211351 224.85089213l-1.27040635 28.31602976 3.8022235.04696376 1.27040646-28.31602987z"/>
    </g>
    <g>
      <path d="M107.68104954 194.8184519l2.31234541-105.22804028c.0698856-3.180286 2.55797346-5.67700912 5.5573-5.57658494.94296457.03157203 1.86395897.32294147 2.67234453.8454331l128.34413728 82.48787388c5.6083142 3.6248768 8.97696148 10.14594082 8.82453043 17.08261978l-1.97613253 89.92801518c-.09866261 4.48981593-3.61125759 8.01460028-7.8456009 7.87282623-1.33124407-.04457264-18.9257665 2.140858-20.06701738 1.40322255-2.20864888.07573896-4.2776962-.50993041-6.20714198-1.7570081-30.41881313-19.66089254-67.62373473-48.68034503-111.61476486-87.0583574z" fill="#000"/>
      <path d="M101.7541423 191.65934462l2.1199785-90.95565563c.08530889-3.66009866 2.95532769-6.5297594 6.4103664-6.40956694 1.12464911.03912375 2.22101513.39869502 3.17370657 1.04087093l114.00116171 76.84408529c6.26885108 4.22560742 9.9992267 11.62072911 9.8165028 19.4603056l-1.71348754 73.51554843c-.1204359 5.16719742-4.17222746 9.21848305-9.0499288 9.04879973-1.58774056-.05523355-3.13555048-.56286425-4.480527-1.46946426L101.7541423 191.65934462z" fill="#C4C3C6"/>
      <path d="M105.59995877 91.37228078c1.02761326-1.49833054 2.71578055-2.44708124 4.60325754-2.38409656.95822192.03197471 1.89404277.32784888 2.71518032.85844473l126.07206414 81.46423014c5.687906 3.67536574 9.103013 10.28252262 8.94743015 17.31046013l-1.76429671 79.69605871c-.10075613 4.55128102-3.66698799 8.12454509-7.96540233 7.98110869-1.30466703-.04353623-3.34975823.23423791-5.29071361.36996273 1.74454646-1.45456273 4.46549663-5.19625023 4.5218162-7.74030968l1.76429672-79.69605872c.15558385-7.02793758-3.25952315-13.63509446-8.94742915-17.3104602L105.59995877 91.37228078z" fill="#F9F9F9"/>
    </g>
    <g>
      <path d="M40.9203465 155.91116453c-4.19865467 1.5826099-6.12757318 1.61748992-6.70224742 6.02542808l2.53068892 7.22260307c-.39131442 3.00150874-3.1066059 7.36388262-1.33826511 9.82985178.71601574.99849124.37571683 4.39926811.37940758 5.4257812-4.38083227 3.01893388 1.83052627 16.07801086.32305554 19.0605013-1.00498049 1.98832696-.80541395 4.84226134.5986996 8.56180315l-.71831024 7.3765147c-.08069067.82863352-.07453412 1.64560937.01110888 2.44210133.05709533.5309946 3.70279753 4.09293468 10.93710657 10.68582043.89258098.04709522 1.5618189.05505283 2.00771378.02387282l85.58115793-5.98441753c6.01845834-.4208516 10.8238285-5.13997594 11.2946947-11.09198008l2.62350135-66.00064647c.52468541-6.63229754-4.48291409-12.42174217-11.18478557-12.93108647-.59570626-.04527388-1.1940375-.04707634-1.79014187-.00539266l-69.16845002 2.11057326c-3.95079925.2762668-7.52163442 2.43694239-9.57251163 5.79222836l-4.36522895 7.14162285-11.44719404 4.31482088z" fill="#000" fill-rule="nonzero"/>
      <path d="M62.81913762 167.43477782c.9881868-.37239085 1.82243803-1.06107768 2.3698032-1.95630758l4.87781078-7.97778744c.7974916-1.30431838 2.18599608-2.14426692 3.72223165-2.25169098l53.5357715-3.74358582c2.45160972-.17143325 5.69010756.90575592 9.71549361 3.23156755.23179-.01620834 4.88924389 8.40417954 4.68517262 10.98236086l-3.02374407 49.42722065c-.18313847 2.31373002-4.6543567-1.13444394-6.9945844-.97079928-8.7150343 4.25253121-15.68508596 6.56148303-20.91015497 6.92685545-6.21734727.43475927-7.06868263-1.46118009-16.23868392-.81995113-3.3100914.23146414-13.65488563 2.91031314-17.34970506 3.16868009l-25.32448559 1.77086054c-.26007382.01818613-.52118914.01508737-.78068166-.00926457-2.60187861-.24417181-4.50780913-2.52892557-4.25701505-5.10314033l.7671416-7.8741368c.05156201-.5292454.01164212-1.06317505-.11804742-1.57888802l-2.50200573-9.94927544c-.36107768-1.4358326-.01429007-2.95704108.93521378-4.1023814 2.96152224-3.5723405 4.4852336-6.38569251 4.5711338-8.44005613.1167852-2.79300064-.6852553-5.38905899-2.4061216-7.78817475-.68758446-.9585839-.98484664-2.13861433-.83266417-3.30539556l.1546163-1.18545189c.22349094-1.71350214 1.38239858-3.16750774 3.01502067-3.7827494l12.38848413-4.66850862z" fill="#C4C3C6" fill-rule="nonzero"/>
      <path d="M83.59339442 157.84066124c.45822877-.73747207.9704862-1.4596359 1.56492375-2.1583105 1.59112104-1.87065572 5.52591853-2.0096533 9.65103523-2.28902774-1.19288444 1.05633008-2.2110661 1.95774574-3.22897825 2.859244.50677462-.06314341.82637899-.20431698 1.08330238-.37287996 1.41324359-.9279784 3.15344884-1.71012084 4.33043992-2.74307752l.54791072-.09584008c.52103493.20848981.80947322.16314602.90983693-.08711001 3.69839307-.25879076 7.46427604-1.09474943 11.28520304-.50616015.87813962.13530527.98284652.44814565.62624957.7172003-.44978898.33927285-1.15212092.53960996-1.94649903.66641907-.33239509.05308763-.7112457.08677116-.68297622.2907224.13668064.98577795-1.29638338 2.7715098-2.66030428 2.85733748-1.00492108.0631205-2.14192157.04330699-2.44884328.66668628 1.36886114.06924746 2.6598693.13484317 4.06282863.20594187-.67947403.73082727-1.89866878 1.17646264-2.03286299 2.06715103 1.82179678-.3952354 2.98167577-2.81315169 3.11739017-3.81363367.16078739-1.18492488 1.28002433-1.81103828 3.50200608-1.98966953.88023926-.07066241 1.38490168-.34034793 1.42670427-.86463537.0404034-.5113821.89071228-.7232741 1.81417005-.75917932 1.80841175-.07044152 5.32176594-.38868244 8.91591164-.6619368l-.4265662-6.10018078-40.0618686 2.80139875.65098647 9.30954025zM127.32503454 218.86363961c-.79520842-.09463782-1.53238592-.01598963-2.28964086.14612649-.5092642.30580856-.9035557.27921305-1.27532775.02964568-.3354013-.2255318-.58916012-.61314921-1.06553312-.6790899.06234123.78873632.28423232.74006237.06576205 1.60210756-.0766855.30277962.93621946.91161833 1.08291593 1.1025717.58027867.75465129 1.25784776.8455293 2.01114531 1.26384493.54355853.30194563 1.28607773 3.32518005 1.40449653 4.27524658-.7743249-1.18675676-2.79538658-4.51910197-4.20832861-4.51530594-.088763.00011925-.19978222-.05649154-.2164436-.14615852-.10056246-.54118967-1.34265506-.5286344-1.43922958-1.07924362-.33575571-1.91415536-.3338938-2.53361181-1.81893838-3.29911387-.73854726-.38086092-.70969096-1.10768683-1.57585334-1.1986321-.1450782-.01518186-.6790817-.75638266-.9059639-.57216192-.4805553.39008527-.52546334-.41789286-.7416904-.8010058-.46995588-.83285875-1.57824728-.25181837-2.4302488-.4960777-.74960056-.2147949-5.17537314-3.58364804-5.72538178-4.15308401.82284191.31069509 2.35440609.43152754 3.1743468.74511462.79407647.30349334 5.08237965 2.68093263 5.7360794 3.2659316-.30257657-.37482472-.75330224-1.5058744-1.35217679-3.393149l-3.68666604-3.23828389c-2.17133356-1.5135395-3.35666362-2.3547297-3.55599013-2.52357067.12162518.00641495 1.65741242.42007952 4.60736185 1.24099367l3.89303603 3.64713062.5641602 3.2679543c.41285259.43767869.66184067.70444687.74696397.80030462.56762693.63927294.5320574.15827623 1.46005552.17055366 1.49499306.0198054.82204956 1.40635764 2.08924646 1.92695468.15598342.06404897 1.37236667.16328266 1.40786925.37943337.19962675 1.21336316.96197158 1.70949399 1.76424834 2.15173578.8468541-.38160316 1.62917841-.54727627 2.27972544.07922708zM145.109143 163.01602077c-.70558357-.12422987-1.43515249-.0556608-2.22148448.10458466-.618087.3250753-.97716166.28592757-1.21389025.0011095-.21339716-.25737336-.27641737-.69171391-.6949053-.77634617-.29912006.87254965-.0681777.8243017-.6648762 1.7708427-.20953564.33245935.4677002 1.02992193.5191594 1.24442998.20386673.8477547.80042367.96491576 1.31972477 1.44554458.37466714.34691988-.2978681 3.7039015-.61738974 4.75600017-.19049896-1.32974271-.58120675-5.05978464-1.91290437-5.09063392-.0836051-.00206952-.16242442-.0673385-.13743168-.1667705.15084724-.60013191-1.02400643-.61707136-.86513303-1.22750573.55229333-2.12213415.83505508-2.80615568-.21552814-3.6883316-.52240771-.43890166-.16552983-1.2408221-.9395761-1.36273396-.12967213-.02036356-.29608213-.85211765-.5932118-.6543086-.62929571.418855-.30503634-.4745121-.3347727-.90294685-.06454357-.93138396-1.37133957-.31722495-2.0625076-.6080905-.60814552-.25578895-3.24580103-4.08578367-3.50519596-4.72825384.6335828.36350767 2.02040085.5349266 2.64994033.90155644.60977336.35484155 3.5677747 3.08660558 3.91771161 3.74883419-.11477462-.42142426-.02594687-1.68162391.26648408-3.78059957l-2.00117965-3.66747693c-1.35723598-1.72525559-2.0913693-2.68358024-2.2023986-2.87497542.11157344.01010026 1.36952702.50499898 3.7738607 1.48469625l2.00996355 4.12408524-.9514362 3.62280374c.19006312.49356817.30341466.79433592.34005472.90230333.24429807.7200279.42901532.18798009 1.29695317.22455239 1.39822378.05894762.1358021 1.57343198 1.09242803 2.17975538.1177687.07459853 1.21771166.21434832 1.15307523.45392483-.36252308 1.34487157.12999373 1.91165662.6845441 2.41992204.97023722-.40040318 1.78178012-.56395478 2.1099221.14402817z" fill="#000"/>
      <path d="M45.33052713 217.36835821l2.48731965-5.33470822-.81605579-11.6701415c-.24004605-.95592002-1.15126727-2.61540807-2.73366375-4.97846395l7.27385646-7.14803173c-2.26855225-4.44084898-3.974646-7.45994215-5.11828126-9.05727952-.6854215-.95734125-.98185303-2.13576712-.83033747-3.30090092l.1539389-1.18377816c.22251143-1.71108272 1.3773546-3.16290317 3.0044463-3.77706431l12.34651893-4.6603096c.98483936-.37173686 1.8162136-1.05934969 2.3616305-1.95325686l4.86044976-7.9659997c.79465322-1.30239118 2.17841104-2.1409793 3.70950705-2.24804396 14.96706362-1.32788535 27.99628373-2.75971396 39.08766044-4.29548585 11.0913768-1.5357719 19.63502421-3.16271316 25.63094162-4.88082385-.55005846-1.25351155-2.55579249-1.75924466-6.01720008-1.51719946-.23425996.01638105-.46274486-.0183285-.69375964-.00217437l-61.21474892 4.28055224c-1.53109612.10706467-2.91485394.9456527-3.70950706 2.24804385l-4.86044977 7.96599971c-.5454169.89390717-1.37679113 1.58152-2.3616305 1.95325695l-12.34651893 4.6603096c-1.6270918.61416106-2.78193487 2.0659815-3.0044464 3.77706423l-.1539388 1.18377815c-.15151555 1.1651338.14491597 2.34355967.83033748 3.30090102 1.71545288 2.3960059 2.515172 4.98855434 2.39915755 7.77764538-.08533332 2.05148777-1.60357767 4.86070967-4.55473278 8.42766577-.94617999 1.14361396-1.29160317 2.66265437-.93153412 4.09653449l2.4950167 9.9357462c.12932725.51501174.1691868 1.0482024.11786905 1.57670295l-.7635079 7.86305462c-.21997311 2.26541268 1.22946746 4.30655594 3.35166278 4.9264068z" fill="#C4C3C6" fill-rule="nonzero"/>
      <path d="M63.75837216 174.0011994l14.26262055-19.30626804-5.45974077.38178227c-1.47996598.1034893-2.81608682.9344829-3.58180435 2.227685l-4.68346614 7.90979555c-.52555667.88760023-1.32795672 1.56956927-2.27932523 1.93722507l-11.92690948 4.609146c-1.57179334.6074185-2.68543338 2.04847805-2.89725225 3.74906874l-.14654142 1.17651935c-.09615643.77199297.10580984 2.56952492.60589871 5.39259594l2.53749744 5.62700342-2.1028808 9.46644073-3.65448083 2.58539438c1.77050355 5.22401676 2.69776088 8.0067689 2.78177199 8.34825643.12601662.5122314.29261458 2.96436117.24402041 3.48965452l-.72298614 7.81533793c-.20829848 2.25166512 1.19686084 4.28359163 3.24966467 4.90387956l.58610207-6.33564763c.04859417-.52529335-.5513519-3.33542857-.67736852-3.84765987l1.53912393-8.6504029-2.51721531-3.02234893 4.38702923-8.36933437-.6214834-8.88762662-.80025585-4.21542905 2.03117368-3.63680589 9.84680781-3.34826158z" fill="#FFF" fill-rule="nonzero"/>
      <path d="M72.75738414 168.27067263l-.93330757 44.15178724c-.01957143.92585854.7151195 1.69228095 1.64097803 1.71185228a1.67305307 1.67305307 0 0 0 .01207854.00021174c.93463236.01302127 1.70468878-.73049473 1.72444315-1.66500901l.93330765-44.15178734c.01957134-.92585844-.71511958-1.69228085-1.64097802-1.71185218a1.67921948 1.67921948 0 0 0-.01207854-.00021185c-.93463236-.01302117-1.70468888.73049474-1.72444324 1.66500912zM93.1030478 166.84796523l-.93330756 44.15178723c-.01957143.92585855.71511949 1.69228095 1.64097803 1.71185228a1.67305307 1.67305307 0 0 0 .01207853.00021175c.93463236.01302127 1.70468878-.73049473 1.72444315-1.66500902l.93330766-44.15178734c.01957133-.92585844-.71511959-1.69228084-1.64097803-1.71185217a1.67921948 1.67921948 0 0 0-.01207854-.00021185c-.93463235-.01302117-1.70468887.73049474-1.72444324 1.66500912zM82.93021602 167.55931893l-.93330766 44.15178724c-.01957133.92585854.71511958 1.69228094 1.64097803 1.71185228a1.67345498 1.67345498 0 0 0 .01207853.00021175c.93463236.01302126 1.70468888-.73049474 1.72444325-1.66500903l.93330756-44.15178733c.01957143-.92585845-.71511949-1.69228085-1.64097803-1.71185218a1.67919175 1.67919175 0 0 0-.01207844-.00021185c-.93463245-.01302117-1.70468887.73049474-1.72444324 1.66500912zM102.7036934 187.60736542l-.48601555 22.76991967c-.01988512.93162386.71922507 1.70297443 1.65084904 1.72285956a1.68836209 1.68836209 0 0 0 .0130408.0002279c.94109888.01281025 1.71637444-.73583032 1.73645921-1.67680205l.48601545-22.76991966c.01988523-.93162387-.71922507-1.70297444-1.65084903-1.72285956a1.68336222 1.68336222 0 0 0-.0130408-.00022791c-.94109888-.01281025-1.71637445.73583023-1.73645912 1.67680205z" fill="#000"/>
    </g>
    <g>
      <path d="M59.37516094 163.71939902c-4.7283087 1.78825173-6.90077687 1.82708184-7.54661666 6.81130576l2.85252373 8.16797398c-.43977336 3.39392056-3.49653632 8.32594282-1.50412887 11.11497084.80674218 1.12930043.42455251 4.97472128.42903473 6.13548247-4.93303419 3.41235981 2.06676032 18.18126574.36988977 21.55332692-1.13124702 2.24804082-.90557685 5.47527464.67701052 9.68170147-.47736978 4.9360053-.74626022 7.71633328-.8066713 8.34098406-.09061662.93697623-.0834237 1.86079776.01328578 2.76148166.06447298.60045588 4.17163999 4.62938065 12.32150106 12.08677461 1.00530032.05353721 1.75904406.06274714 2.26123127.0276308l96.38542402-6.73992543c6.77826317-.47398233 12.18890178-5.80874782 12.71733616-12.5390029l2.93384305-74.63134766c.5888327-7.4994999-5.05290173-14.04767276-12.6011658-14.6257536-.67093971-.0513836-1.34482266-.05361139-2.01618227-.00666535l-77.90154346 2.36466484c-4.4495713.31114434-8.47060366 2.75326-10.77937733 6.54669847l-4.91415382 8.07421704-12.89124058 4.87548202z" fill="#000" fill-rule="nonzero"/>
      <path d="M84.05607772 176.90488497c1.11268851-.41922473 2.05205418-1.19450592 2.66839475-2.20229057l5.49248158-8.98081136c.89798646-1.4683065 2.46143457-2.41387575 4.19121173-2.53483355l60.28043572-4.2152187c2.7604742-.19303116 6.40694689 1.01951668 10.93941906 3.6376435.26099168-.01825031 5.5050468 9.46062416 5.27521835 12.36292694l-3.40561345 55.64105009c-.20625434 2.60460546-5.24070428-1.2769738-7.87576374-1.09271249-9.81306005 4.7873044-17.6612626 7.38665843-23.54460807 7.79806202-7.00063506.4895321-7.95918857-1.64474037-18.2844655-.92272668-3.72711087.26062499-15.37522307 3.2764414-19.53553142 3.5673585l-28.51497205 1.99396108c-.29283901.0204773-.5868504.01699391-.87903396-.01041456-2.92966634-.27481915-5.07566875-2.84676622-4.79323044-5.74460471l.86393622-8.86405303c.05806789-.5957808.01312873-1.19683304-.13288974-1.77737668l-2.81702887-11.20000756c-.40654036-1.61633238-.0160348-3.32878703 1.0531118-4.6181323 3.33469073-4.02149503 5.0504165-7.18855792 5.14717725-9.50118866.13155066-3.14412664-.77148458-6.06653493-2.70910562-8.76722466-.7741903-1.0790799-1.10888031-2.40745295-.93750356-3.72091973l.1741177-1.33448457c.25167911-1.9289202 1.55661668-3.56573886 3.39493285-4.2583566l13.9493094-5.25564572z" fill="#C4C3C6" fill-rule="nonzero"/>
      <path d="M107.42137398 165.97375291c.51779654-.80576727 1.09639392-1.59496503 1.76747198-2.35873577 1.79626451-2.04494567 6.2273523-2.20627 10.8730926-2.52122428-1.34583283 1.15547213-2.49456258 2.14149086-3.64298886 3.12759913.57080456-.07013967.9310392-.2249565 1.22075988-.40950363 1.59365108-1.01597134 3.55511646-1.87362725 4.88299522-3.00355805l.6172059-.1059154c.5861949.22619921.9110999.17601694 1.02472843-.09727922 4.16518101-.29144759 8.40777631-1.21279784 12.70885383-.57998624.9884896.14547161 1.10562526.48654859.70342116.78098506-.50731458.371279-1.29866195.59158846-2.1934763.73189904-.3744212.05873959-.80110572.09642169-.76977412.3188795.1514864 1.07522775-1.46659059 3.02712632-3.00263344 3.12412193-1.13173824.07133844-2.41199964.0525136-2.75913779.7334248 1.54122468.07219166 2.99479275.1405903 4.5744089.21471791-.76691158.79906102-2.14087066 1.28828048-2.29416712 2.26042329 2.05239036-.43570948 3.36440279-3.07670116 3.51968074-4.16864132.1839643-1.29324398 1.44581002-1.97913398 3.94829323-2.17949395.99135985-.07926084 1.5602933-.37474933 1.60865285-.94689203.0467522-.55805857 1.00475613-.7913388 2.04469637-.83278303 2.03652035-.08130022 5.99348583-.43715803 10.04131573-.74413044l-.46534494-6.6547427-45.1182213 3.15497338.71016705 10.15586202zM156.53728984 234.96203744c-.89424173-.10736386-1.72315239-.01875428-2.57460308.16422998-.57252563.34557747-1.01591235.31533066-1.43407418.03296204-.37725297-.25517363-.66277136-.69359417-1.1984748-.76836773.07044851.89191248.31994041.83697054.07465273 1.81165558-.08609864.34234267 1.05316564 1.03124889 1.21820761 1.24723907.65284654.85359753 1.41480291.95665817 2.26205876 1.4300111.61135624.34167223 1.44763704 3.7606033 1.58121485 4.83496896-.87123852-1.34229802-3.1453574-5.11132641-4.73418813-5.10765513-.09981263.00009583-.224677-.06396717-.2434519-.16536784-.1133189-.61200915-1.51002812-.59835801-1.61886675-1.22101687-.37839382-2.16463078-.3765724-2.86509726-2.04681964-3.73136236-.83065287-.43099342-.79852391-1.25285892-1.7725506-1.35607856-.163145-.01723108-.76394984-.85559883-1.01899457-.64738596-.54020593.44088832-.59105944-.47277472-.83437202-.90608519-.52882454-.94198431-1.77482643-.28544428-2.73299699-.56202165-.84300908-.24321466-5.8212058-4.05458265-6.4399328-4.69872963.92541017.35168866 2.64768468.48899659 3.5698337.84395406.89306067.34353249 5.71623925 3.03377164 6.45157208 3.69556263-.3404076-.42397634-.84773905-1.70313968-1.52199437-3.83749002l-4.1470249-3.66339836c-2.44229782-1.71243048-3.77555369-2.66415018-3.99976761-2.85515932.13676848.00730735 1.86392037.47574489 5.18145583 1.4053127l4.37926463 4.12580354.63582633 3.69557628c.46443913.49509854.74453975.79686342.84030177.9052946.63856906.7231247.5983603.17920898 1.64188582.19350005 1.68110627.02305265.9250008 1.59063854 2.3501738 2.17987487.17542922.07249369 1.54327788.1852395 1.58329498.42967348.2250107 1.37213118 1.08247428 1.93347975 1.98481706 2.43390931.95210716-.43113585 1.83174645-.61813129 2.56355239.09059037zM176.51049327 171.8189898c-.7934707-.14078742-1.61382732-.0635741-2.4979724.1172791-.6948846.36731306-1.0986744.32288677-1.36499744.00071829-.24007508-.29112447-.31113218-.78229175-.78175174-.87817659-.33596941.9865215-.07630042.93206637-.74685864 2.00212331-.23547161.37584222.526376 1.16481194.58433514 1.40739481.22961923.95870622.90048899 1.09145154 1.48464546 1.63516284.42145986.39245235-.3333101 4.18813141-.69214091 5.37767217-.21480098-1.50371766-.6557935-5.72171252-2.1532767-5.75718493-.09401316-.00237732-.18267354-.07621558-.15461319-.18863995.16935953-.67854466-1.15174997-.6982182-.9733687-1.38841.6201061-2.39940347.93776392-3.17274959-.24398813-4.17075216-.58763147-.49652865-.18668348-1.4031588-1.05713792-1.54135565-.14582308-.02308378-.33331582-.96368044-.66734538-.74013499-.70744648.47335075-.34321764-.5366992-.37684439-1.02117448-.07299054-1.05320924-1.54218723-.35931418-2.31952175-.68852205-.68396147-.28950752-3.65165003-4.62151941-3.94361889-5.3481205.71261226.41132472 2.2721405.60577247 2.98020823 1.02062507.68583565.40151428 4.01326245 3.49182007 4.4070529 4.24080325-.12924805-.4765851-.02992001-1.90154243.29798549-4.27487342l-2.25191146-4.1479596c-1.52694967-1.9514687-2.35289221-3.03543938-2.47782762-3.25191205.12546696.01147028 1.5402315.57164344 4.2442944 1.68051883l2.26199045 4.66428326-1.06827148 4.09613967c.21394035.55819683.34153468.89834676.38278366 1.02044905.27502696.81429458.48250341.21275166 1.45849932.2544908 1.5723039.0672738.15340285 1.7792504 1.22937911 2.4652864.13246247.08440492 1.36938909.24291738 1.29681275.51379461-.40705622 1.52058106.14702094 2.16170227.77082714 2.73667932 1.09083766-.45233572 2.00333054-.6369164 2.37263269.1637956z" fill="#000"/>
      <path d="M64.51424285 232.68537453l2.79771854-6.00892562-.91923526-13.1456766c-.270149-1.07680078-1.29544517-2.94618867-3.07588852-5.60816346l8.18242471-8.0510286c-2.55258111-5.00253145-4.4722504-8.40349848-5.75900776-10.20290118-.77119961-1.07844627-1.10480495-2.40588993-.93446544-3.71831622l.17306387-1.33342758c.25015588-1.92739233 1.54921737-3.56265068 3.37964557-4.25429731l13.8894541-5.24827708c1.10791409-.41863706 2.04314715-1.19310158 2.65665559-2.19997075l5.46724357-8.97265336c.89386015-1.4669728 2.45051352-2.41144504 4.1729966-2.5318928 16.83791839-1.49427318 31.49573894-3.10582491 43.97346184-4.8346552 12.477723-1.7288303 22.08922255-3.56061125 28.83450065-5.49534287-.61894518-1.41204765-2.8754603-1.9819211-6.76954434-1.70962021-.26354146.01842861-.52059255-.0206921-.78048392-.00251873l-68.866593 4.8156213c-1.72248307.12044775-3.27913645 1.06491998-4.1729966 2.53189269l-5.46724357 8.97265346c-.61350843 1.00686917-1.5487415 1.78133369-2.65665558 2.19997065l-13.8894541 5.24827718c-1.8304282.69164663-3.1294896 2.32690498-3.37964557 4.2542973l-.17306387 1.3334276c-.17033951 1.31242628.16326582 2.63986994.93446544 3.71831621 1.93013609 2.699104 2.83008489 5.6195078 2.6998466 8.7612113-.09579541 2.31084856-1.80355004 5.47508793-5.12326354 9.49271848-1.06434477 1.2881062-1.45279638 2.99916406-1.04757282 4.61436535l2.80790462 11.19217004c.14554554.58013734.19044113 1.18074333.13276114 1.77605693l-.85816558 8.85710256c-.24724478 2.5518064 1.38359007 4.85115591 3.77113663 5.54958652z" fill="#C4C3C6" fill-rule="nonzero"/>
      <path d="M85.0319335 184.61968348l15.9187236-21.7503771-6.09864653.4264589c-1.65315357.11559977-3.14510823 1.05128445-3.99955568 2.50833554l-5.22617793 8.91196815c-.58645717 1.00005937-1.48231315 1.76815267-2.54479948 2.18187247l-13.31994628 5.18663165c-1.75537527.68352272-2.99837243 2.30698098-3.23378833 4.22359815l-.16286643 1.32597309c-.10686845.87005939.12001125 2.89623312.6806391 6.07852099l2.83853687 6.34408996-2.3423826 10.66831342-4.08048793 2.91146504c1.98146597 5.88933464 3.01924265 9.02648013 3.11333012 9.41143625.14113117.57743429.32896418 3.34139228.27505192 3.93342568l-.80210858 8.80829954c-.23109433 2.53774584 1.34000256 4.82895945 3.63356746 5.52954664l.65024407-7.1406102c.05391226-.5920335-.61825394-3.7598118-.75938511-4.33724609l1.71320257-9.7489404-2.81404127-3.4083218 4.8947123-9.4301322-.70051596-10.01784494-.8969185-4.7518522 2.26639669-4.09767618 10.9972159-3.76693436z" fill="#FFF" fill-rule="nonzero"/>
      <path d="M95.15478476 177.71826283l-1.03041183 49.9462586c-.02150012 1.04215446.80590373 1.9044167 1.8480581 1.92591681a1.88940105 1.88940105 0 0 0 .01174867.0002058c1.0506842.01513268 1.91647789-.82085195 1.93815162-1.87142163l1.03041184-49.9462586c.02150012-1.04215447-.80590373-1.9044167-1.8480581-1.92591682a1.88940105 1.88940105 0 0 0-.01174867-.0002058c-1.0506842-.01513268-1.9164779.82085195-1.93815163 1.87142164zM118.03248805 176.11849798l-1.03041194 49.9462586c-.02150002 1.04215446.80590383 1.9044167 1.8480582 1.92591681a1.88936897 1.88936897 0 0 0 .01174857.00020581c1.0506842.01513268 1.91647799-.82085196 1.93815162-1.87142163l1.03041194-49.94625861c.02150002-1.04215446-.80590373-1.9044167-1.8480582-1.92591681a1.88936897 1.88936897 0 0 0-.01174857-.0002058c-1.0506842-.01513268-1.916478.82085195-1.93815162 1.87142163zM106.59363635 176.9183804l-1.03041183 49.9462586c-.02150002 1.04215447.80590373 1.9044167 1.8480582 1.92591682a1.8888276 1.8888276 0 0 0 .01174857.0002058c1.0506842.01513268 1.91647799-.82085195 1.93815162-1.87142163l1.03041184-49.9462586c.02150012-1.04215447-.80590373-1.9044167-1.8480581-1.92591682a1.88991066 1.88991066 0 0 0-.01174857-.0002058c-1.0506843-.01513268-1.916478.82085195-1.93815173 1.87142164zM128.83741849 199.59679292l-.53689635 25.76860807c-.0218487 1.0486431.81053255 1.91644822 1.85917566 1.93829703a1.90480124 1.90480124 0 0 0 .01282148.00022378c1.05795395.01489709 1.92961435-.82685078 1.95165455-1.88468l.53689625-25.76860806c.0218487-1.0486431-.81053255-1.91644822-1.85917566-1.93829703a1.89865005 1.89865005 0 0 0-.01282138-.00022379c-1.05795405-.01489707-1.92961445.8268507-1.95165455 1.88468z" fill="#000"/>
    </g>
    <g>
      <path d="M82.4726955 112.08881364c-4.73298136 1.78783407-6.90751646 1.82686655-7.55447852 6.8086463l2.85439839 8.16356918c-.44053756 3.39225622-3.50070688 8.3221067-1.50669224 11.10952679.80739293 1.12864925.42444766 4.97217259.4288156 6.13234873-4.93806708 3.41114502 2.06686628 18.17189833.36804004 21.54243461-1.13255083 2.2470242-.90699592 5.47260964.67666473 9.67675645l-.80828909 8.33686588c-.09079835.93651357-.08369293 1.85986907.0130164 2.76008946.0388488.36162475 3.50891496 26.85970416 8.37274684 30.99986462 2.8374609 2.41528525 3.51856535 8.27441535 2.04331342 17.5773913.01361679 6.51462645 5.69811572 10.09258658 17.05349692 10.73388139l83.60342538-53.95069533c6.78474934-.4744359 12.20106964-5.80706762 12.73069358-12.53398726l2.94425033-74.5940619c.5901582-7.49578311-5.05626543-14.04008214-12.61163875-14.61710101-.67157067-.05128927-1.3460933-.05344712-2.01809533-.00645616l-77.9757609 2.37142915c-4.4538284.31144202-8.47892852 2.75273842-10.79028199 6.54450223l-4.91964484 8.07065258-12.90397997 4.874343z" fill="#000" fill-rule="nonzero"/>
      <path d="M107.1910785 125.09051951c1.10893912-.41889008 2.04504885-1.19379292 2.65914578-2.20121588l5.47248732-8.97758808c.89471746-1.46777947 2.4528208-2.41279748 4.17688342-2.53335568l60.0812928-4.20129326c2.75135448-.19239345 6.38609707 1.02066307 10.9042268 3.63916962.26012978-.01819005 5.48897922 9.45965751 5.26053066 12.36125102l-3.38244551 55.62766787c-.20501576 2.60396831-5.22374442-1.2778117-7.85009913-1.09415908-9.77975878 4.78410533-17.60159299 7.38118024-23.46550222 7.79122472-6.97750784.48791488-7.93336815-1.64607898-18.22453457-.92645052-3.71479794.25976398-15.32395593 3.2723895-19.47052035 3.56234554a91932308090265150 91932308090265150 0 0 1-34.07561882-3.76755757l.8591884-8.86185198c.05774876-.59563228.0128282-1.1965576-.13283498-1.77700059l-2.81017422-11.19806708c-.40555114-1.6160528-.0166982-3.32803412 1.04865519-4.61685592 3.3228593-4.01986353 5.03226156-7.18583736 5.12820664-9.49792147.1304417-3.14338358-.77025245-6.06532163-2.70208253-8.76581423-.77187646-1.07900112-1.10575154-2.40714416-.93522094-3.7202754l.17325808-1.33414377c.25043645-1.92842752 1.55073055-3.56459327 3.3828524-4.25665806l13.90230577-5.2514502z" fill="#C4C3C6" fill-rule="nonzero"/>
      <path d="M130.3664772 114.1046948c.5151243-.829965 1.09099427-1.64269543 1.75926094-2.42898372 1.78873818-2.10523532 6.21260703-2.26134809 10.85043969-2.57543604-1.34106914 1.18876903-2.4857333 2.20320087-3.63009442 3.2177258.56975996-.07102345.92907847-.22988422 1.21792282-.41957506 1.58882877-1.04429495 3.54527149-1.92442946 4.86847378-3.08689308l.61600641-.10782008c.58581505.2346913.91010157.18368196 1.0229196-.0979649 4.15807028-.29095608 8.39197166-1.2314922 12.68787627-.56873793.98730083.1523545 1.10504819.50445556.70414948.8072384-.50566823.3818047-1.29528145.60721943-2.18838765.74987387-.37370634.05972191-.79964425.09760011-.76784418.327143.15375096 1.1094745-1.45729123 3.11914358-2.99073616 3.21562732-1.12982436.07095741-2.40815205.0485645-2.75317177.75013284 1.53901188.07804908 2.99049372.15198192 4.56784239.23211685-.76387033.82246739-2.1345704 1.3239161-2.28537117 2.3263473 2.04820778-.44467496 3.35205688-3.16587057 3.50455762-4.29187137.1806751-1.3335838 1.43897802-2.0381629 3.93713037-2.23902348.98964447-.07945566 1.55701253-.38293752 1.6039679-.97300333.04538319-.57554176 1.00136543-.81394946 2.03960306-.85428351 2.03318587-.07913063 5.98321257-.43701235 10.02407623-.74425518l-.48008972-6.8656029-45.04120068 3.14958757.7326692 10.47765763zM179.6162843 183.21358062c-.8942417-.1073985-1.7231493-.01878513-2.57459548.16422055-.5725191.34563428-1.01590541.31537466-1.4340709.03294566-.3772563-.25522817-.66278106-.69373671-1.19848454-.76853294.0704624.8920834.3199529.83713495.07468112 1.81200173-.086093.34240648 1.05317995 1.03146182 1.21822498 1.24749576.65285876.8537704 1.4148152.95686269 2.26207687 1.43031917.61136057.3417469 1.44769364 3.76134215 1.58128825 4.8359145-.87125812-1.34256724-3.14543207-5.1123493-4.73425964-5.1087025-.09981247.00009433-.2246776-.0639829-.24345404-.16540307-.11332829-.61212751-1.51003463-.5984958-1.61888292-1.22127486-.37842727-2.16504904-.3766169-2.86564881-2.04687458-3.73210532-.830658-.43108856-.7985421-1.25311016-1.77256853-1.35636478-.16314504-.01723699-.76396192-.85577378-1.01900284-.64752525-.54019789.44096372-.59106572-.4728741-.83438473-.90627089-.52883831-.94217205-1.77482746-.2855267-2.73300056-.56217192-.8430113-.24327416-5.82125847-4.0554466-6.43999445-4.699726.9254139.35177026 2.64768716.48913144 3.56984003.84417114.8930644.34361195 5.71627606 3.03443962 6.45161797 3.69636817-.34041367-.42406247-.84776436-1.7034774-1.52205196-3.8382448l-4.14707472-3.66416137c-2.44232013-1.71279514-3.77558848-2.66471718-3.99980498-2.8557662.13676831.00731089 1.8639243.47586488 5.18146802 1.40566212l4.37932128 4.1266583.63588338 3.69629011c.46444602.49520018.74455082.79702686.84031452.90548022.63857914.72327253.59836189.17925264 1.64188564.1935628 1.68110339.02308363.92502408 1.59095604 2.35020362 2.1803271.17543002.0725102 1.5432778.18529916 1.58329868.42978033.22503195 1.37239596 1.08250272 1.933865 1.98485168 2.43440408.95209855-.43120295 1.83173314-.61822013 2.56354882.09064816zM199.5886664 120.05847455c-.79347352-.14082564-1.61383022-.06360842-2.49797408.11726836-.6948796.36737439-1.09867081.32293494-1.36499777.00069946-.24007947-.29118526-.31114323-.78244975-.7817644-.87835985-.33595686.9867113-.07628838.93224777-.7468331 2.00250592-.23546668.37591276.52639293 1.16504793.58435542 1.40767877.22963277.95889687.90050465 1.09167847 1.48466962 1.63550316.4214659.39253578-.33325296 4.1889496-.69206847 5.3787183-.21482122-1.50401614-.65587137-5.72284418-2.15335726-5.75834411-.09401304-.00237854-.18267443-.07623225-.1546152-.1886788.16934977-.67867504-1.1517613-.69837116-.97338968-1.3886959.62007407-2.3998646.93772175-3.17335864-.2440443-4.17157346-.58763936-.49663357-.18670305-1.40343684-1.05716046-1.54167205-.14582393-.02308982-.33333007-.96387302-.66735674-.74028929-.7074403.47343298-.34322534-.53680924-.37685884-1.02137916-.07300507-1.05341798-1.5421938-.35940603-2.3195332-.68868968-.68396588-.28957363-3.65171706-4.62247604-3.94369625-5.34922392.71261888.41141528 2.27215052.60592297 2.9802251 1.02086632.68584202.40160328 4.0133137 3.49256026 4.40711577 4.24169531-.12925488-.47667982-.02994615-1.90191629.29792704-4.27570732l-2.25197018-4.14880432c-1.52697849-1.9518727-2.35293699-3.0360666-2.47787495-3.2525839.12546703.01147432 1.54024064.57177726 4.24432138 1.68090666l2.26205664 4.66522988-1.06821686 4.09692783c.21394832.55830976.34154807.898528.38279849 1.02065407.27503856.81445837.48250641.21280065 1.4585046.25456033 1.57230608.0673088.15342685 1.7796025 1.22941303 2.46578759.13246428.08442371 1.36939498.24298345 1.296822.51391262-.40703623 1.52087403.14704977 2.16212881.7708649 2.73722758 1.09083266-.4524103 2.0033244-.6370145 2.37263774.1638596z" fill="#000"/>
      <path d="M87.56817237 180.62275729l2.80044012-6.01220626-.9197241-13.15266753c-.27036737-1.07736754-1.29655179-2.94772563-3.0785531-5.61107329l8.19012867-8.0555444c-2.55478302-5.00513259-4.47611786-8.40786292-5.76400453-10.208191-.77187658-1.0790014-1.10575156-2.40714445-.93522096-3.72027569l.17325798-1.33414377c.25043655-1.92842753 1.55073064-3.56459327 3.3828525-4.25665817l13.90230577-5.2514501c1.10893912-.41889017 2.04504885-1.19379301 2.65914579-2.20121588l5.47248732-8.97758807c.89471746-1.46777947 2.4528208-2.41279748 4.17688342-2.53335569 16.85336761-1.495522 31.52464544-3.10832663 44.01383358-4.83841406 12.48918774-1.7300873 22.10953368-3.56310344 28.86103531-5.49904825-.61947388-1.41278466-2.87803798-1.98290167-6.7756933-1.71035106-.26378387.01844556-.5210685-.0206892-.7811983-.00249915l-68.92974478 4.8200373c-1.72406262.1205582-3.28216586 1.0655761-4.17688342 2.53335569l-5.47248732 8.97758807c-.61409694 1.00742287-1.55020667 1.7823257-2.6591458 2.20121578l-13.90230576 5.2514502c-1.83212186.6920648-3.13241595 2.32823064-3.3828524 4.25665816l-.17325808 1.33414378c-.1705306 1.31313123.16334447 2.64127417.93522094 3.72027529 1.93183008 2.7004926 2.83252422 5.62243065 2.70208254 8.76581453-.0959451 2.31208391-1.80534733 5.47805794-5.12820665 9.49792107-1.06535335 1.2888218-1.45420634 3.00080311-1.0486552 4.61685592l2.8101742 11.19806709c.14566318.58044297.19058376 1.1813683.13283505 1.77700158l-.85918838 8.86185197c-.24753952 2.5531739 1.38472615 4.85370678 3.77443889 5.55244594z" fill="#C4C3C6" fill-rule="nonzero"/>
      <path d="M108.1315146 132.88573085l16.01743168-21.72629442-6.13257578.42883148c-1.6623507.11624288-3.16301447 1.05128842-4.02290248 2.506622l-5.25945498 8.90146324c-.59019139.9988806-1.49137823 1.76628748-2.55994237 2.17992264l-13.39614259 5.18557096c-1.76541688.68338294-3.01608473 2.30507057-3.25374456 4.2189918l-.16441873 1.32410783c-.1078871.86883556.119251 2.89192525.681414 6.0692691l2.85111244 6.33338736-2.36057843 10.65381438-4.10448049 2.90919975c1.98952635 5.87972036 3.03149873 9.01175352 3.12591707 9.39609847.14162766.57651792.32914028 3.33632846.27463898 3.9275204l-.81087382 8.79577175c-.23361966 2.53413652 1.34503748 4.82121617 3.65093918 5.51964795l.65734985-7.13045384c.0545013-.59119193-.61982406-3.7539928-.76145164-4.33050972l1.72746768-9.7354812-2.82792457-3.4019379 4.92641139-9.41870438-.6994642-10.00280407-.89954154-4.74443997 2.28094213-4.09277899 11.05987178-3.76681462z" fill="#FFF" fill-rule="nonzero"/>
      <path fill="#000" d="M118.27625939 124.18097683l-.98525033 53.50394882 3.66689026.06047868.98525023-53.50394872zM141.15396267 122.58121198l-.98525033 53.50394882 3.66689016.06047868.98525033-53.50394872zM129.71511108 123.3810944l-.98525033 53.50394882 3.66689016.06047869.98525033-53.50394873zM151.99928999 146.0496151l-.53148565 29.34965639 3.65187384.06081053.53148566-29.3496563z"/>
    </g>
    <g>
      <path d="M103.27696474 196.0451072c-4.99332497 1.8883665-7.28755328 1.92938159-7.96961705 7.19257864l3.01235482 8.62512442c-.46443945 3.58388241-3.6925507 8.7919689-1.5884901 11.73708972.85195145 1.19250355.44832066 5.25315676.45304786 6.47888622-5.20953338 3.60337783 2.1824982 19.1988697.39050537 22.75967595-1.19466189 2.37387093-.95636092 5.78173348.7149029 10.22358774l-.8519274 8.8078377c-.09570041.9894198-.0881093 1.96494801.0140156 2.91604306.06808327.6340635 4.40542238 4.88846773 13.01201722 12.7632115 1.06164392.05652817 1.8576326.06625049 2.38796598.02916597l101.78755666-7.11767934c7.15816649-.50054776 12.87208228-6.13393202 13.43017067-13.24088648l3.09867485-78.80851872c.62187562-7.91925406-5.33602494-14.83390136-13.30734273-15.44429716-.70854268-.05425602-1.42019508-.05660486-2.1291828-.00702761l-11.73588481.35627107-70.39111406.26481491c-4.69895733.3285831-9.08605992 4.78375487-11.52425344 8.78952646l-5.18961968 8.52616154-13.61377986 5.1484344z" fill="#000" fill-rule="nonzero"/>
      <path d="M129.38880182 210.04222178c1.17096577-.44236392 2.15943144-1.26070052 2.80787006-2.3245953l5.77852083-9.48083418c.94475204-1.55005714 2.5900019-2.54804027 4.41050163-2.67534201l63.44199691-4.43629659c2.90525367-.20315512 6.7433216 1.07793864 11.51420376 3.84328116.27468026-.01920752 5.79609592 9.99002499 5.55489421 13.05428325l-3.57116014 58.7461895c-.21646056 2.74994866-5.5159544-1.34949207-8.28921637-1.1555667-10.32676329 5.05222195-18.58610132 7.79482329-24.7780138 8.22780399-7.36780128.51520685-8.3771478-1.73842914-19.24396035-.97854758-3.92258864.27429412-16.18109648 3.45570886-20.5596029 3.76188386l-30.0105125 2.09853946c-.3081977.02155129-.61763497.01780411-.92515413-.0112033-3.08343332-.29085096-5.34263034-3.00687314-5.04605789-6.06640535l.9071708-9.35865014c.0609738-.62902429.0135353-1.26363843-.14028084-1.87662316l-2.96746377-11.82586841c-.42825034-1.7066537-.01766133-3.51460722 1.1072729-4.87567295 3.50869345-4.24519256 5.31368605-7.58863955 5.4149777-10.03034096.13771068-3.3196042-.81339081-6.40535735-2.8533044-9.25725966-.8150621-1.1394979-1.16762457-2.54210106-.98756653-3.92884652l.18293773-1.40893589c.26442822-2.03653517 1.6374419-3.764415 3.5720403-4.49526166l14.6799068-5.54573086z" fill="#C4C3C6" fill-rule="nonzero"/>
      <path d="M153.85405056 198.38469766c.5428864-.87165174 1.14976428-1.72522186 1.85397657-2.5510467 1.88495296-2.21109217 6.54556168-2.37608893 11.43162063-2.7070223-1.4131103 1.24862347-2.6192649 2.31413209-3.82510023 3.37973827.60026242-.0747183.97884483-.24162034 1.2831897-.44088075 1.67409176-1.09697401 3.7354274-2.0216549 5.12970843-3.24265211l.64899228-.11336777c.61710301.24630375.958753.19266199 1.07767529-.10311692 4.38062093-.30652835 8.84128685-1.2951842 13.36688739-.60027517 1.04009034.1597462 1.16405293.5294514.74163109.84749429-.53281646.40104602-1.36473268.63794003-2.30565962.7879534-.39371624.06280184-.8424533.1026799-.80900697.34371053.16171027 1.16499794-1.536016 3.2756953-3.15153223 3.3773804-1.1902935.07478295-2.53701366.05157627-2.90066283.78836173 1.621339.08158665 3.15046561.15887183 4.81219206.2426399-.80493979.86383964-2.24910098 1.39073-2.40821186 2.44339797 2.15790579-.46743715 3.53217362-3.32521945 3.6931053-4.5076451.19066343-1.40041074 1.5164625-2.14057722 4.1483286-2.35209867 1.04261532-.0836731 1.64041387-.40248883 1.69002383-1.02211573.04795005-.60437475 1.05514014-.85495187 2.14893916-.89755602 2.14199152-.08358318 6.30345358-.46033755 10.5606014-.78394025l-.50412369-7.20930451-47.45192194 3.31816162.76934764 11.00218389zM205.80090595 271.28054627c-.9436417-.11341856-1.81833362-.01989238-2.71680583.17328925-.60413198.36488883-1.07201123.33292645-1.51328518.03473313-.39810409-.26947414-.6994159-.73244627-1.26471336-.81143214.07438558.94183338.33765561.88382936.07886923 1.91305155-.09083669.36149774 1.11139125 1.08901864 1.2855607 1.31710534.6889513.9014035 1.49300015 1.01027187 2.38707964 1.51015986.6451428.36082572 1.52779176 3.97114598 1.66880313 5.10564687-.9194312-1.4174667-3.3193572-5.39755117-4.99594864-5.39375594-.10532574.00009578-.23709036-.06755913-.25690774-.17463536-.11960942-.64626738-1.59346696-.6319236-1.7083494-1.28943606-.39940583-2.28579736-.39751974-3.02546645-2.16006952-3.9402991-.87655698-.45515734-.84269554-1.32301816-1.87052902-1.4320646-.17215742-.01820392-.8061914-.90352297-1.07531313-.68367029-.57002218.46553556-.62373157-.49926455-.880506-.95683847-.55808314-.99473103-1.87287569-.30151073-2.88398615-.5936163-.88958603-.25686977-6.14295484-4.2818025-6.795891-4.96203196.97654432.37141898 2.79395764.51649992 3.76706084.8913705.94240753.3628046 6.03213801 3.2038549 6.80812181 3.90272166-.35923222-.44772228-.89465235-1.79850203-1.6062604-4.05233925l-4.37627867-3.86863899c-2.5772888-1.80839464-3.9842375-2.81344728-4.22084592-3.01515803.14432345.00772328 1.96690062.5024663 5.46773169 1.48422913l4.62137011 4.35693543.67113646 3.9024376c.4901184.52283131.7857062.84149933.88676346.95600388.67387816.76362837.63142053.18926953 1.73258708.2044139 1.77396531.02442916.97617593 1.67970857 2.48010025 2.30199556.185123.0765599 1.62853207.19568601 1.67077212.45380213.23750985 1.4489362 1.14236523 2.04174552 2.09457563 2.57022876 1.00467579-.45521625 1.9328934-.65263208 2.7051578.09579194zM226.87410986 204.60462534c-.83730606-.1487078-1.7029725-.06721458-2.63594488.12371456-.73324858.3878348-1.15934447.34090145-1.44039492.00068888-.2533504-.3074306-.32835793-.8260902-.82497728-.92736571-.35447654 1.04171655-.0804673.9842272-.78801006 2.11413757-.24845875.39686444.55551085 1.23002932.61668458 1.48619087.24235165 1.01237352.95028416 1.1525831 1.56673512 1.72675391.4447604.41443767-.3515059 4.42250963-.73009622 5.67860658-.22674259-1.587887-.69231033-6.04197106-2.27251123-6.0795048-.09920628-.0025151-.19276705-.08049131-.1631622-.19920648.17867909-.71651133-1.21540433-.7373538-1.02720591-1.46616359.6542353-2.53365807.9894003-3.35027017-.25767827-4.40418837-.6201161-.52434708-.19706728-1.48169812-1.11560981-1.62767364-.15387871-.02438357-.35177647-1.01763134-.70424484-.78159228-.74649883.49980643-.36220385-.56675325-.39771277-1.07834467-.07707594-1.1121581-1.62738985-.37950334-2.44767762-.72717641-.72175615-.30574494-3.85359085-4.88035685-4.16172426-5.64763836.75199586.43438122 2.39767613.6397919 3.14487626 1.07789868.72373908.4240208 4.23511796 3.68745204 4.65069885 4.47837296-.13641201-.50326423-.03166975-2.00796739.3142255-4.51410796l-2.37651065-4.380223c-1.61139306-2.06076353-2.4830132-3.2054426-2.61486039-3.4340372.1323973.01211916 1.62533705.60371573 4.47881908 1.77478958l2.38717307 4.92544356-1.12706854 4.32533201c.22578627.58944809.36044593.94864147.40397972 1.07757946.29026043.85988173.50916582.22468356 1.53907483.26880795 1.65915514.0711197.1619668 1.87883766 1.29741121 2.60332371.1397837.08913543 1.44504212.25658205 1.36847053.54261594-.42946233 1.60566182.1552523 2.28269353.81354484 2.88988175 1.15106785-.47759504 2.11395392-.67245927 2.50369626.1730845z" fill="#000"/>
      <path d="M108.68672054 268.70594335l2.9529181-6.34603427-.970825-13.88344415c-.28520057-1.13724127-1.36753422-3.11157898-3.24700094-5.92301322l8.63670878-8.50252708c-2.69459555-5.28337265-4.72105255-8.87527665-6.07937102-10.77571201-.81408871-1.13899879-1.166281-2.54095128-.98652937-3.92702382l.18262636-1.4082523c.26397815-2.03554708 1.6351487-3.76252443 3.5672451-4.49291386l14.6609218-5.54226087c1.16945138-.44208711 2.15661391-1.25997743 2.80416817-2.3233276l5.77064032-9.47598023c.94346366-1.54926362 2.58656477-2.54667791 4.40474137-2.6738172 17.77334584-1.57746707 33.24546665-3.27888042 46.41636255-5.10423985 13.1708957-1.82535953 23.31632242-3.75956034 30.43627987-5.80260231-.65338855-1.49131579-3.03529421-2.09325935-7.14571598-1.80583066-.2781827.01945243-.54951644-.02187396-.82384656-.00269093l-72.69251469 5.0831558c-1.8181766.1271393-3.4612777 1.12455369-4.40474137 2.67381722l-5.77064042 9.47598024c-.64755425 1.06335016-1.63471678 1.88124048-2.80416807 2.32332758l-14.6609218 5.54226088c-1.93209639.73038952-3.30326695 2.45736677-3.5672451 4.49291385l-.18262645 1.4082523c-.17975153 1.38607254.17244075 2.78802504.98652947 3.92702382 2.0374776 2.8506531 2.98754139 5.93498447 2.85019118 9.25299435-.10102652 2.44052875-1.90353627 5.782277-5.40752899 10.02524474-1.12342716 1.36035237-1.53339299 3.16741896-1.10559217 4.87328078l2.96434857 11.82038185c.1536547.6127003.2010683 1.24701385.14020719 1.87573404l-.9054944 9.35412658c-.26088064 2.6950032 1.46065136 5.12345579 3.9808735 5.86117633z" fill="#C4C3C6" fill-rule="nonzero"/>
      <path d="M130.54916586 218.19052283l16.82941707-22.9782105-6.44714064.450828c-1.74761949.12220546-3.32487109 1.11075175-4.22821528 2.6500442l-5.52525244 9.41499277c-.62001796 1.05650647-1.56710163 1.86797649-2.69031873 2.30508994l-14.08130296 5.47990842c-1.85571103.72217233-3.169815 2.4372794-3.41878014 4.46203233l-.17224007 1.4007846c-.11301907.91914821.126721 3.05961456.71922043 6.42139893l3.00040553 6.70183953-2.47676857 11.27027316-4.31379255 3.07591994c2.09438527 6.22147357 3.1912999 9.53554448 3.29074388 9.94221265.14916588.61000245.34759053 3.5298762.29056767 4.15531125l-.84838959 9.30525029c-.24442828 2.68092154 1.41632317 5.10131112 3.84090504 5.84130423l.68776261-7.54347252c.05702296-.62543504-.65338896-3.9718856-.80255483-4.58188795l1.81159084-10.29900264-2.97465987-3.60045495 5.17487343-9.96237145-.74003225-10.5829542-.94792558-5.01987653 2.396106-4.32895723 11.625781-3.98000227z" fill="#FFF" fill-rule="nonzero"/>
      <path fill="#000" d="M141.07056268 208.95401307l-1.03779186 56.48724163 3.86950715.06398313 1.03779185-56.48724163zM165.21185999 207.2658891l-1.03779185 56.48724164 3.86950714.06398313 1.03779185-56.48724163zM153.14121128 208.1099511l-1.03779185 56.48724162 3.86950724.06398313 1.03779185-56.48724163zM176.65707002 232.04328098l-.55982902 30.9861331 3.8536875.06433174.55982902-30.9861331z"/>
    </g>
    <g>
      <path d="M174.51493418 115.24810038c.74427015-1.00282828 1.42668028-1.95118726 2.1174509-2.95292544-.88737127-.55784214-2.41211674-1.14430677-4.41473707-1.61728092-5.23137311-1.23553402-12.16817615-1.35703932-17.03704306-.3263322-20.81647085 4.40670887-36.13795796 5.59965673-46.07935578 3.72827862-11.30100432-2.12731167-16.44451807-8.7942368-12.49079017-16.6935452 1.54057039-3.07796582 4.39224466-4.94619709 8.40863706-6.62365539 1.9384103-.80958288 3.15100915-1.22100006 7.52569454-2.6324687 1.3869268-.44748432 2.24418926-.72944618 3.10636457-1.02536874.33364769-.11451725.65313683-.22640782.95887519-.33583345.999757-2.57717209 3.2940227-5.03750933 6.44049746-7.21575118 3.41990205-2.36752988 7.91978319-4.51844112 13.71062379-6.78856898 2.4900982-.9761694 5.00890826-1.8949784 8.29074949-3.04600666.69052611-.24218569 7.0498797-1.53183215 7.67580392-1.7508136.51658367-1.38455885 13.23136562-9.25163451 18.81527575-9.98521446 2.5103564-.32979517 12.58523336-3.3176702 22.38693409-6.89786433 3.15549046-1.1525824 8.3537937-2.13340307 15.5949096-2.94246183 27.94460885-3.89291447 45.07573841-6.87378648 51.39338864-8.9426161 4.47712988-1.46611778 6.8018249-2.08570228 9.79368108-2.32054618 4.97029277-.39014004 9.22475528.9432523 12.07671545 3.93990864 1.96392879 2.00537767 4.97360144 6.84821814 10.7798704 16.6942806 1.30159688 2.20720126 2.66428657 4.53969595 4.15474974 7.10721003.35489554.61135311 4.80883328 8.31425409 5.10066023 8.7925842 1.62475425 2.66311549 2.3052985 4.9738746 1.5845431 7.55483014-1.03922353 3.72135927-4.59669384 6.27350278-8.97610205 7.44545543-2.13931559.57249211-4.1979288.80377264-7.30484858.97575932-.13115762.00726035-5.17708353.2408147-6.73270374.34522144-5.98268082.40153266-10.6281019 1.26167075-14.98475474 3.00567366-.02418233.00968039-.048319.01929804-.07241068.02885323-.60329105.55991525-1.2794345 1.17810904-2.06846335 1.88913059-2.33030503 2.09991948-5.39232846 4.78146693-9.39564957 8.20991556-11.67608868 9.99941518-17.6605801 13.5664934-25.70392376 16.0350607-.18401998.05647724-.37208893.11370927-.59952997.18255783-.11641008.03523843-.28712205.08680883-.56247505.17001023-1.9904133.60198906-2.99589292.94677365-4.3400109 1.52149143-6.6294367 2.8346136-11.54131282 6.369348-16.74845261 11.48772132-1.12978924 1.11052964-4.69024127 4.78028182-4.85215797 4.94363387-.58940363.59462897-1.15418726 1.19447503-1.70057577 1.80400636-1.9731051 2.20112371-6.66209978 8.5675027-6.92036267 8.87576025-4.22763253 5.04602567-10.45410947 7.60920126-17.44328926 5.21340275-8.86234683-3.03789498-12.28159095-12.35277952-9.03389329-23.73140616.91009493-3.18860734 1.84386561-5.53459908 3.08239776-7.72123248.51798608-.91450578 1.08058128-1.7881783 1.75238083-2.74073336.37901412-.53741029.76817233-1.0671025 1.3264485-1.8119238.14781504-.19720684.68206994-.9077902.67893407-.9036157.27505652-.36618413.49057876-.65439867.70594388-.94458134z" fill="#000" fill-rule="nonzero"/>
      <path d="M124.47243986 88.34061368c-1.30981247-6.25214173 17.68179187-10.6460441 28.78278988-13.47213753-.20981309.71428707-.5467733 1.54021885-1.0108806 2.47779544 1.23491541-.69436577 2.0697341-1.42175938 2.50445608-2.18218083.22752357-.39798762.45707423-.6736142.71197263-.86614724.4602772-.12176849.89905125-.24016354 1.3134521-.35521423.13346072-.03447724.26960487-.06913266.40842984-.10396476.03984057-.0020401.08028614-.00395632.12135911-.00578385.00681907-.00030303.00567623-.00863048-.00265301-.02388116 3.51914114-.87593674 8.72484996-1.86352256 15.61712474-2.96275647 6.34093072-1.27996183 11.04069201-1.95325449 14.09928336-2.01987768 4.58788704-.09993474-21.23442337.70067066-27.75319076 1.91233234 1.80338208-2.98543661 8.4978192-4.29302338 16.71948296-6.69863604 4.47174238-.723847 20.61700737-3.40847033 23.9031821-3.12946993-2.01498983-.42932618-7.4584395.03542085-9.72407807-.29247948-1.0882282-.15749653 1.2287342-2.22502595 5.3684634-3.41481022 9.95810248-2.86202117 19.48586399-3.79795636 28.38656774-2.03742484 22.39965038 4.43058113 45.1118423-17.07203932 51.13229167-10.71699767 2.35235971 1.90524659 18.36833991 29.18203027 19.38663504 31.88457077 1.83104705 4.85957226 4.3783639-2.08220225-21.78734506 1.61003526L254.0323472 85.0839574c-3.25762489 6.24669279-5.04652864 8.328943-9.62710518 12.50761391-7.95677046 7.2586333-21.72330657 13.26162551-26.56232813 15.3357673-13.15156387 5.63713318-19.79700758 13.52795904-24.91741698 18.7191578-8.7629138 8.88406006-7.35979192 16.80987846-12.72861074 14.9547675-4.2254311-1.46003135-7.67524854-7.18236843-4.88915136-17.03293258 2.28876193-8.09217805 4.17662287-8.21875098 10.09651855-17.27912889.75444436-2.31274403-.39372905-4.26400271-2.7319016-5.80978235-5.94417139-3.92972687-19.57922402-5.23887078-29.19664537-3.2046052-42.00691402 8.88525265-52.7295484 2.40645712-49.09372867-4.90746039.32540296-.65458954 1.1265809-1.25437065 2.25240865-1.8295698a19.98425663 19.98425663 0 0 1 .05037008-.01873644c2.61242053-.96776291 5.6840964-1.21486425 9.4400799-2.17160599 6.40448115-1.63137925 17.40454488-4.292662 27.82336087-6.29958533.21918818 1.16829506.15773994 2.68290158-.18434641 4.54382064 1.55770998-1.17463517 2.4796438-2.30150894 2.76579974-3.38062032.3196017-1.2052356.93662906-1.69375889 2.00780948-2.00901997 4.67358844-.81889137 9.05981114-1.4452928 12.65055139-1.71389025 3.87015064-.28949846 9.2924722-1.74323801 16.26696388-4.36121807-7.44362716-.15920044-11.83199.34743415-19.55187493 1.56525923-7.71988492 1.21782509-21.4725026 3.25058652-33.4306605 5.64842548z" fill="#C4C3C6"/>
      <path d="M198.60766864 135.4551146c1.56374995 2.56665157-1.0039387 6.28888815-5.73509324 8.3138477-4.73115454 2.02495957-8.40820887 2.24238894-9.97195878-.32426266-1.56374991-2.56665158 2.35280876-10.99977925 8.30669902-10.03404053 5.95389033.96573866 5.83660306-.52219608 7.400353 2.04445549z" fill="#000"/>
      <path d="M191.47934636 135.5183896c-.34207272 1.00369872-2.62484765 3.9425291-6.84832591 8.81648947-.94373665.17200483-1.7903151-.35702095-2.5397348-1.5870765-1.12412955-1.84508333 1.67000142-7.89824735 5.93740621-7.19859193 4.26740488.69965536 3.96376342-1.5363696 3.4506545-.03082103z" fill="#FFF"/>
      <path d="M125.26159953 92.09526745c-1.62736054.05840632-6.97144825 1.47410173-16.03226305 4.24708616-1.16236988 1.45735457-1.01052074 2.71791165.4555476 3.78167113 2.19910274 1.59563965 12.34399977.5330898 13.24653737-3.80366224.90253817-4.33675122 4.7712184-4.3127054 2.33017808-4.22509505z" fill="#000"/>
      <path d="M120.87618924 93.48665521c-.46711003-.21203352-4.77598394.80290692-12.92662043 3.04482287-.37858215 1.09465368.0676727 2.10312427 1.33876395 3.02541093 1.90663712 1.38343044 10.02300843.999765 10.4029615-2.44167442.37995309-3.44143941 1.88556035-3.31050871 1.18489498-3.62855938zM285.16731779 59.77243132c2.80364995 4.58414407 5.76946847 9.5711193 8.45015967 14.17674968-11.94885038 2.7368503-24.74217842 6.10777915-39.80746874 11.03242067 1.90089619-5.85636261 1.92845992-10.23817883 3.78588817-12.55796613 12.5707401-4.76638425 16.03820793-9.265324 27.5714209-12.65120422zM151.71600706 102.66268026c-26.32966551 5.58253758-39.8090018 4.85062827-44.99458259 1.71438089 4.94756761-4.37170352 14.82686441-2.46152353 27.42570708-4.4850619 11.87089316-1.90661992 21.43234778-2.05205273 28.68436212-.43629743 3.52998159 1.16217146 5.12331413 2.04869837 4.77999584 2.65958166-5.28691945-.61750911-11.11044591-.46714882-15.89548245.54739678zM186.6668258 118.46024807c-4.13240856 3.80609444-6.60802577 10.91119964-7.42685256 21.31531603-.82808825 1.1783351-2.21917398 3.63766592-3.89548823 1.03103248-1.67631333-2.60663386-1.60923936-17.24718635 7.7497741-25.38714552 1.7008657-1.47932018 2.54779973-4.16199542 2.46623679-7.21098258.72895016.33168071 1.52607557 1.59261843 2.42631748 4.23850715-1.9641901 1.37521295-.99283059 3.09393498-1.31998759 6.01327244zM157.8056378 82.8306041c-15.21797465 1.98154271-24.02594358 3.22695902-26.42390764 3.73624943 2.82723994-2.53963078 9.38042492-4.83481344 16.662243-5.94747854 10.29162186-1.57256406 31.0352382-3.41035262 31.43844916.09067924.05975848.51887872-11.16075232 1.49562594-11.45086202 2.03112518-2.04597654-.2634833-5.45461677-.23367538-10.2259225.08942469z" fill="#FFF"/>
      <path d="M163.81152554 104.32702481c3.7067468-2.4826102 14.1885277-.40058114 22.80695414-1.45064066 7.59442484-.92529633 16.04533856-1.5416804 13.36186219.30969219-1.88077735 1.29757807-7.4314382 6.51250746-12.30111615 9.29882384-4.8696788 2.78631689-6.14367909 4.47638167-7.78676245 6.3130638-2.08548143 1.4601342.53406056-7.12410797-2.0857495-8.2456801-6.8566504-2.93541286-17.93647861-3.58556226-13.99518823-6.22525907zM283.01334476 75.99729505c7.6922967-1.80137672 7.49369431-5.2466538 6.8875272-9.0513105-.05976627-.37512778 8.9692945 5.06895202 9.61113905 9.07221249.77331007 4.82322677-.66943884 7.51439307-5.76041824 6.24869205-9.3164737-2.31622814-26.62377353.08298709-26.80460008-.7501599-.18082657-.83314701 8.37405537-3.71805742 16.06635207-5.51943414z" fill="#000"/>
    </g>
  </g>
</svg>
