<svg width="17" height="16" viewBox="0 0 17 16" fill="none" xmlns="http://www.w3.org/2000/svg">
<g id="Telegram">
<path id="Vector" d="M8.49998 14.6677C12.1819 14.6677 15.1666 11.6827 15.1666 8.00059C15.1666 4.31846 12.1819 1.3335 8.49998 1.3335C4.81808 1.3335 1.83331 4.31846 1.83331 8.00059C1.83331 11.6827 4.81808 14.6677 8.49998 14.6677Z" fill="#1DA1F2"/>
<path id="Vector_2" d="M4.85104 7.92985C6.79451 7.08306 8.09046 6.5248 8.7389 6.25508C10.5903 5.48496 10.975 5.35119 11.2258 5.34672C11.2809 5.3458 11.4042 5.35947 11.4841 5.42428C11.5515 5.47901 11.5701 5.55295 11.579 5.60484C11.5878 5.65673 11.5989 5.77493 11.5901 5.8673C11.4898 6.92152 11.0557 9.47985 10.8348 10.6606C10.7414 11.1602 10.5574 11.3277 10.3792 11.3441C9.99206 11.3798 9.69808 11.0883 9.32311 10.8425C8.73636 10.4578 8.40488 10.2184 7.83533 9.84301C7.17712 9.40923 7.60381 9.17082 7.97893 8.78119C8.07709 8.67922 9.78287 7.12759 9.81588 6.98683C9.82001 6.96923 9.82384 6.90361 9.78486 6.86896C9.74588 6.83431 9.68835 6.84616 9.64683 6.85558C9.58798 6.86894 8.65064 7.48853 6.83479 8.71435C6.56873 8.89707 6.32774 8.98609 6.11182 8.98142C5.87379 8.97628 5.4159 8.84683 5.07551 8.73617C4.65801 8.60045 4.32619 8.52869 4.35509 8.2982C4.37014 8.17814 4.53546 8.05536 4.85104 7.92985Z" fill="white"/>
</g>
</svg>
