<svg viewBox="0 0 24 24" xmlns="http://www.w3.org/2000/svg">
  <path d="M23.7 2.2c-.2-.2-.5-.3-.8-.2C18.7 3.6 5.8 8.4.5 10.4c-.3.1-.5.4-.5.8s.2.7.6.8c1.5.4 3.2 1 4.3 1.3.8.2 1.4.8 1.6 1.6l1.8 5.4c.1.3.3.5.6.6s.6 0 .8-.2c.5-.4 1.1-1 1.6-1.5.9-.8 2.2-.9 3.2-.2 1.2.9 2.8 2 3.9 2.8.3.2.7.3 1.1.1.4-.1.6-.5.7-.8.9-4.1 3-14.4 3.8-18.1.1-.3 0-.6-.3-.8zm-4 3.7c-3 2.6-7.7 7-9.5 8.6-.5.4-.7 1-.8 1.6l-.3 2.6L8 15c-.3-1.1.1-2.2 1-2.8 2.5-1.6 7.2-4.7 10.3-6.7.1 0 .3 0 .4.1.1 0 .1.2 0 .3z" fill="#fff"/>
</svg>
