<svg xmlns="http://www.w3.org/2000/svg" width="482" height="438" viewBox="0 0 482 438">
  <g fill="none" fill-rule="evenodd">
    <g transform="matrix(-1 0 0 1 482 0)">
      <path fill="#FFF" d="M428.43968 277.230431L423.580696 277.230431 423.580696 282.08938 428.43968 282.08938 428.43968 286.960404 423.580696 286.960404 423.580696 291.831428 428.43968 291.831428 428.43968 296.690377 433.310749 296.690377 433.310749 301.561401 428.43968 301.561401 428.43968 296.702452 423.580696 296.702452 423.580696 301.561401 428.43968 301.561401 428.43968 306.435152 423.56861 306.435152 423.56861 301.564128 418.709626 301.564128 418.709626 296.705178 413.838557 296.705178 413.838557 301.564128 408.967488 301.564128 408.967488 296.705178 404.108504 296.705178 404.108504 301.564128 408.967488 301.564128 408.967488 306.435152 404.096029 306.435152 404.096029 301.564128 399.237434 301.564128 399.237434 306.435152 394.363636 306.435152 394.363636 301.564128 399.234706 301.564128 399.234706 296.705178 394.363636 296.705178 394.363636 291.833765 399.234706 291.833765 399.234706 286.962741 394.363636 286.962741 394.363636 282.091717 399.234706 282.091717 399.234706 277.232768 399.234706 277.220693 404.09369 277.220693 404.09369 272.361744 408.964759 272.361744 408.964759 277.220693 413.835828 277.220693 413.835828 272.361744 418.707287 272.361744 418.707287 277.220693 423.566271 277.220693 423.566271 272.361744 428.437341 272.361744 428.437341 277.220693 433.30841 277.220693 433.30841 282.091717 428.437341 282.091717 428.437341 277.230431 428.43968 277.230431zM399.234706 277.218356L399.234706 272.359017 394.363636 272.359017 394.363636 277.230431 399.234706 277.230431 399.234706 277.218356zM413.835828 301.564128L413.835828 306.435152 418.707287 306.435152 418.707287 301.564128 413.835828 301.564128zM428.43968 291.833765L428.43968 286.962741 433.310749 286.962741 433.310749 291.833765 428.43968 291.833765zM404.09369 296.693104L399.234706 296.693104 399.234706 291.833765 404.09369 291.833765 404.09369 296.693104zM404.105775 272.359017L404.105775 267.487994 408.964759 267.487994 408.964759 272.359017 413.835828 272.359017 413.835828 267.487994 418.707287 267.487994 418.707287 272.359017 423.578357 272.359017 423.578357 267.487994 428.437341 267.487994 428.437341 272.359017 433.30841 272.359017 433.30841 267.487994 428.437341 267.487994 428.437341 262.61697 423.566271 262.61697 423.566271 267.487994 418.707287 267.487994 418.707287 262.61697 413.835828 262.61697 413.835828 267.487994 408.964759 267.487994 408.964759 262.61697 404.09369 262.61697 404.09369 267.487994 399.234706 267.487994 399.234706 262.61697 394.363636 262.61697 394.363636 267.487994 399.234706 267.487994 399.234706 272.359017 404.105775 272.359017zM423.566271 282.08938L423.566271 286.960404 418.707287 286.960404 418.707287 282.08938 423.566271 282.08938zM413.835828 282.08938L413.835828 277.230431 418.707287 277.230431 418.707287 282.08938 413.835828 282.08938zM408.964759 282.08938L413.835828 282.08938 413.835828 286.960404 408.964759 286.960404 408.964759 282.08938zM408.964759 282.08938L404.105775 282.08938 404.105775 277.230431 408.964759 277.230431 408.964759 282.08938zM408.964759 291.833765L404.105775 291.833765 404.105775 286.962741 408.964759 286.962741 408.964759 291.833765zM413.835828 291.833765L413.835828 296.693104 408.964759 296.693104 408.964759 291.833765 413.835828 291.833765zM418.709626 291.833765L413.838557 291.833765 413.838557 286.962741 418.709626 286.962741 418.709626 291.833765zM418.709626 291.833765L423.56861 291.833765 423.56861 296.693104 418.709626 296.693104 418.709626 291.833765zM404.09369 286.962741L404.09369 282.091717 399.234706 282.091717 399.234706 286.962741 404.09369 286.962741zM438.181818 301.564128L433.310749 301.564128 433.310749 306.435152 438.181818 306.435152 438.181818 301.564128zM433.310749 291.833765L438.181818 291.833765 438.181818 296.705178 433.310749 296.705178 433.310749 291.833765zM438.181818 282.08938L433.310749 282.08938 433.310749 286.960404 438.181818 286.960404 438.181818 282.08938zM433.310749 272.359017L438.181818 272.359017 438.181818 277.230431 433.310749 277.230431 433.310749 272.359017zM433.310749 262.61697L438.181818 262.61697 438.181818 267.487994 433.310749 267.487994 433.310749 262.61697zM121.712407 14.613461L116.853423 14.613461 116.853423 19.4724105 121.712407 19.4724105 121.712407 24.3434343 116.853423 24.3434343 116.853423 29.2144582 121.712407 29.2144582 121.712407 34.0734077 126.583476 34.0734077 126.583476 38.9444315 121.712407 38.9444315 121.712407 34.085482 116.853423 34.085482 116.853423 38.9444315 121.712407 38.9444315 121.712407 43.8181818 116.841338 43.8181818 116.841338 38.947158 111.982354 38.947158 111.982354 34.0882085 107.111284 34.0882085 107.111284 38.947158 102.240215 38.947158 102.240215 34.0882085 97.381231 34.0882085 97.381231 38.947158 102.240215 38.947158 102.240215 43.8181818 97.3687561 43.8181818 97.3687561 38.947158 92.5101618 38.947158 92.5101618 43.8181818 87.6363636 43.8181818 87.6363636 38.947158 92.5074329 38.947158 92.5074329 34.0882085 87.6363636 34.0882085 87.6363636 29.2167952 92.5074329 29.2167952 92.5074329 24.3457713 87.6363636 24.3457713 87.6363636 19.4747475 92.5074329 19.4747475 92.5074329 14.615798 92.5074329 14.6037236 97.366417 14.6037236 97.366417 9.74477414 102.237486 9.74477414 102.237486 14.6037236 107.108555 14.6037236 107.108555 9.74477414 111.980015 9.74477414 111.980015 14.6037236 116.838999 14.6037236 116.838999 9.74477414 121.710068 9.74477414 121.710068 14.6037236 126.581137 14.6037236 126.581137 19.4747475 121.710068 19.4747475 121.710068 14.613461 121.712407 14.613461zM92.5074329 14.6013867L92.5074329 9.74204768 87.6363636 9.74204768 87.6363636 14.613461 92.5074329 14.613461 92.5074329 14.6013867zM107.108555 38.947158L107.108555 43.8181818 111.980015 43.8181818 111.980015 38.947158 107.108555 38.947158zM121.712407 29.2167952L121.712407 24.3457713 126.583476 24.3457713 126.583476 29.2167952 121.712407 29.2167952zM97.366417 34.0761341L92.5074329 34.0761341 92.5074329 29.2167952 97.366417 29.2167952 97.366417 34.0761341zM97.3785021 9.74204768L97.3785021 4.87102384 102.237486 4.87102384 102.237486 9.74204768 107.108555 9.74204768 107.108555 4.87102384 111.980015 4.87102384 111.980015 9.74204768 116.851084 9.74204768 116.851084 4.87102384 121.710068 4.87102384 121.710068 9.74204768 126.581137 9.74204768 126.581137 4.87102384 121.710068 4.87102384 121.710068 0 116.838999 0 116.838999 4.87102384 111.980015 4.87102384 111.980015 0 107.108555 0 107.108555 4.87102384 102.237486 4.87102384 102.237486 0 97.366417 0 97.366417 4.87102384 92.5074329 4.87102384 92.5074329 0 87.6363636 0 87.6363636 4.87102384 92.5074329 4.87102384 92.5074329 9.74204768 97.3785021 9.74204768zM116.838999 19.4724105L116.838999 24.3434343 111.980015 24.3434343 111.980015 19.4724105 116.838999 19.4724105zM107.108555 19.4724105L107.108555 14.613461 111.980015 14.613461 111.980015 19.4724105 107.108555 19.4724105zM102.237486 19.4724105L107.108555 19.4724105 107.108555 24.3434343 102.237486 24.3434343 102.237486 19.4724105zM102.237486 19.4724105L97.3785021 19.4724105 97.3785021 14.613461 102.237486 14.613461 102.237486 19.4724105zM102.237486 29.2167952L97.3785021 29.2167952 97.3785021 24.3457713 102.237486 24.3457713 102.237486 29.2167952zM107.108555 29.2167952L107.108555 34.0761341 102.237486 34.0761341 102.237486 29.2167952 107.108555 29.2167952zM111.982354 29.2167952L107.111284 29.2167952 107.111284 24.3457713 111.982354 24.3457713 111.982354 29.2167952zM111.982354 29.2167952L116.841338 29.2167952 116.841338 34.0761341 111.982354 34.0761341 111.982354 29.2167952zM97.366417 24.3457713L97.366417 19.4747475 92.5074329 19.4747475 92.5074329 24.3457713 97.366417 24.3457713zM131.454545 38.947158L126.583476 38.947158 126.583476 43.8181818 131.454545 43.8181818 131.454545 38.947158zM126.583476 29.2167952L131.454545 29.2167952 131.454545 34.0882085 126.583476 34.0882085 126.583476 29.2167952zM131.454545 19.4724105L126.583476 19.4724105 126.583476 24.3434343 131.454545 24.3434343 131.454545 19.4724105zM126.583476 9.74204768L131.454545 9.74204768 131.454545 14.613461 126.583476 14.613461 126.583476 9.74204768zM126.583476 0L131.454545 0 131.454545 4.87102384 126.583476 4.87102384 126.583476 0zM131 354.686175L131 349.815152 87.1818182 349.815152 87.1818182 354.686175 131 354.686175zM131 359.552525L131 364.421212 87.1818182 364.421212 87.1818182 359.552525 131 359.552525zM131 369.289899L131 374.158586 87.1818182 374.158586 87.1818182 369.289899 131 369.289899zM131 383.89596L131 379.027273 87.1818182 379.027273 87.1818182 383.89596 131 383.89596zM131 388.764646L131 393.633333 87.1818182 393.633333 87.1818182 388.764646 131 388.764646z"/>
      <path fill="#261EE4" d="M219.090909 92.2152663L219.090909 87.3442424 175.272727 87.3442424 175.272727 92.2152663 219.090909 92.2152663zM219.090909 97.0816162L219.090909 101.950303 175.272727 101.950303 175.272727 97.0816162 219.090909 97.0816162zM219.090909 106.81899L219.090909 111.687677 175.272727 111.687677 175.272727 106.81899 219.090909 106.81899zM219.090909 121.425051L219.090909 116.556364 175.272727 116.556364 175.272727 121.425051 219.090909 121.425051zM219.090909 126.293737L219.090909 131.162424 175.272727 131.162424 175.272727 126.293737 219.090909 126.293737zM394.363636 223.669812L394.363636 218.798788 350.545455 218.798788 350.545455 223.669812 394.363636 223.669812zM394.363636 228.536162L394.363636 233.404848 350.545455 233.404848 350.545455 228.536162 394.363636 228.536162zM394.363636 238.273535L394.363636 243.142222 350.545455 243.142222 350.545455 238.273535 394.363636 238.273535zM394.363636 252.879596L394.363636 248.010909 350.545455 248.010909 350.545455 252.879596 394.363636 252.879596zM394.363636 257.748283L394.363636 262.61697 350.545455 262.61697 350.545455 257.748283 394.363636 257.748283z"/>
      <path fill="#261EE4" d="M443.050548,174.980606 L438.181818,174.980606 C438.181818,150.780895 457.800201,131.162424 482,131.162424 L482,136.031111 C460.487768,136.031111 443.050548,153.468411 443.050548,174.980606 Z M452.788009,174.980606 L447.919279,174.980606 C447.919279,156.158263 463.177674,140.899798 482,140.899798 L482,145.768485 C465.86758,145.768485 452.788009,158.848115 452.788009,174.980606 Z M457.656739,174.980606 L462.525469,174.980606 C462.525469,164.225482 471.245053,155.505859 482,155.505859 L482,150.637172 C468.555147,150.637172 457.656739,161.53563 457.656739,174.980606 Z M472.26254,174.980606 L467.394199,174.980606 C467.394199,166.912997 473.932621,160.374545 482,160.374545 L482,165.243232 C476.622527,165.243232 472.26254,169.603239 472.26254,174.980606 Z M482,174.980606 L477.13127,174.980606 C477.13127,172.290754 479.310094,170.111919 482,170.111919 L482,174.980606 Z" transform="rotate(90 460.09 153.072)"/>
      <path fill="#261EE4" fill-rule="nonzero" d="M43.8181818,262.61697 L87.6363636,262.61697 L87.6363636,218.798788 C63.4365642,218.798788 43.8181818,238.417259 43.8181818,262.61697 Z"/>
      <path fill="#261EE4" fill-rule="nonzero" d="M307.165455,437.889697 L350.983636,437.889697 L350.983636,394.071515 C326.783837,394.071515 307.165455,413.689986 307.165455,437.889697 Z" transform="rotate(-180 329.075 415.98)"/>
      <path fill="#261EE4" d="M4.87106923 350.253333L0 350.253333 0 306.435152 4.87106923 306.435152 4.87106923 350.253333zM19.4795988 350.253333L24.3506681 350.253333 24.3506681 306.435152 19.4795988 306.435152 19.4795988 350.253333zM34.0881284 350.253333L29.2170592 350.253333 29.2170592 306.435152 34.0881284 306.435152 34.0881284 350.253333zM43.8181818 350.253333L38.9471126 350.253333 38.9471126 306.435152 43.8181818 306.435152 43.8181818 350.253333zM9.74213847 350.253333L14.6132077 350.253333 14.6132077 306.435152 9.74213847 306.435152 9.74213847 350.253333zM355.854706 87.3442424L350.983636 87.3442424 350.983636 43.5260606 355.854706 43.5260606 355.854706 87.3442424zM370.463235 87.3442424L375.334304 87.3442424 375.334304 43.5260606 370.463235 43.5260606 370.463235 87.3442424zM385.071765 87.3442424L380.200696 87.3442424 380.200696 43.5260606 385.071765 43.5260606 385.071765 87.3442424zM394.801818 87.3442424L389.930749 87.3442424 389.930749 43.5260606 394.801818 43.5260606 394.801818 87.3442424zM360.725775 87.3442424L365.596844 87.3442424 365.596844 43.5260606 360.725775 43.5260606 360.725775 87.3442424z"/>
    </g>
    <g transform="translate(155 83)">
      <path fill="#B7CEFF" d="M85.68,0 C133.002135,0 171.36,38.21736 171.36,85.3661538 C171.36,110.834664 163.142899,126.219021 151.969751,142.713401 C135.953614,158.705738 115.195313,169.103554 93.0090291,172.340428 C98.0321206,176.436319 103.816515,179.774043 110.251422,182.116158 L110.251422,182.116158 L111.177237,182.444663 C115.64813,183.990371 120.181651,184.970912 124.69863,185.423181 C121.68332,191.852914 119.433095,199.151542 117.946426,207.316102 L117.81,208.08 L53.55,208.08 L53.4135739,207.316102 C51.6112597,197.418064 48.6867351,188.792697 44.64,181.44 C23.1992623,142.48335 0,128.16 0,85.3661538 C0,38.6888479 37.5945435,0.765240343 84.2630546,0.0114359221 L85.68,0 Z"/>
      <path fill="#4038FF" d="M82.5,7 C90.0326854,7 97.2437011,8.37204021 103.895277,10.8791062 C69.5398595,28.6052655 46.0656952,64.3214267 46.0656952,105.494653 C46.0656952,112.489217 46.7431521,119.326292 48.0363202,125.944421 C34.6792602,104.93487 22,93.9051562 22,67.3076923 C22,34.3320869 48.5461004,7.54061097 81.4994725,7.00807901 L82.5,7 Z" transform="rotate(11 62.948 66.472)"/>
      <path fill="#FFF" d="M79.92 9.36C88.6287172 9.36 96.9687833 10.9316697 104.670074 13.8058741 64.7355901 34.4584618 37.44 76.1416176 37.44 124.2 37.44 132.341644 38.2233907 140.300318 39.7189062 148.004755 24.1437972 123.520787 9.36 110.662616 9.36 79.6615385 9.36 41.2214042 40.3202123 9.99019793 78.7531038 9.36941782L79.92 9.36zM72.2366596 259.586919L97.6785472 263.616263C95.3530229 267.850228 90.8516471 270.72 85.68 270.72 78.9950934 270.72 73.4300979 265.925091 72.2366596 259.586919zM72.45072 257.03993L72.1398364 259.003348C72.0476872 258.362187 72 257.706662 72 257.04L72.45072 257.03993z"/>
      <path fill="#B7CEFF" d="M54.72,213.84 L116.64,213.84 L116.64,239.76 C116.64,251.291706 107.291706,260.64 95.76,260.64 L75.6,260.64 C64.0682944,260.64 54.72,251.291706 54.72,239.76 L54.72,213.84 L54.72,213.84 Z"/>
      <path fill="#B7CEFF" d="M54.72,213.84 L116.64,213.84 L116.64,239.76 C116.64,251.291706 107.291706,260.64 95.76,260.64 L75.6,260.64 C64.0682944,260.64 54.72,251.291706 54.72,239.76 L54.72,213.84 L54.72,213.84 Z"/>
      <path fill="#FFF" d="M56.643015,234 C55.6475701,234.42044 55.0887874,234.911719 55.0408113,235.468167 C54.7838457,238.448568 69.2781853,242.169927 87.4148248,243.780054 C94.2105366,244.383361 100.553375,244.604656 105.842142,244.488726 C101.551009,246.302386 89.1442627,246.801154 74.5858516,245.540797 L74.1395202,245.501665 C56.0028807,243.891538 47.2685412,240.170179 47.5255067,237.189778 C47.6861901,235.3261 47.8167872,234.193452 56.643015,234 Z M56.643015,223.92 C55.6475701,224.34044 55.0887874,224.831719 55.0408113,225.388167 C54.7838457,228.368568 69.2781853,232.089927 87.4148248,233.700054 C94.2105366,234.303361 100.553375,234.524656 105.842142,234.408726 C101.551009,236.222386 89.1442627,236.721154 74.5858516,235.460797 L74.1395202,235.421665 C56.0028807,233.811538 47.2685412,230.090179 47.5255067,227.109778 C47.6861901,225.2461 47.8167872,224.113452 56.643015,223.92 Z M56.643015,214.56 C55.6475701,214.98044 55.0887874,215.471719 55.0408113,216.028167 C54.7838457,219.008568 69.2781853,222.729927 87.4148248,224.340054 C94.2105366,224.943361 100.553375,225.164656 105.842142,225.048726 C101.551009,226.862386 89.1442627,227.361154 74.5858516,226.100797 L74.1395202,226.061665 C56.0028807,224.451538 47.2685412,220.730179 47.5255067,217.749778 C47.6861901,215.8861 47.8167872,214.753452 56.643015,214.56 Z"/>
      <path fill="#4038FF" d="M73.923015,237.6 C72.9275701,238.02044 72.3687874,238.511719 72.3208113,239.068167 C72.0638457,242.048568 86.5581853,245.769927 104.694825,247.380054 C111.490537,247.983361 117.833375,248.204656 123.122142,248.088726 C118.831009,249.902386 106.424263,250.401154 91.8658516,249.140797 L91.4195202,249.101665 C73.2828807,247.491538 64.5485412,243.770179 64.8055067,240.789778 C64.9661901,238.9261 65.0967872,237.793452 73.923015,237.6 Z M73.923015,227.52 C72.9275701,227.94044 72.3687874,228.431719 72.3208113,228.988167 C72.0638457,231.968568 86.5581853,235.689927 104.694825,237.300054 C111.490537,237.903361 117.833375,238.124656 123.122142,238.008726 C118.831009,239.822386 106.424263,240.321154 91.8658516,239.060797 L91.4195202,239.021665 C73.2828807,237.411538 64.5485412,233.690179 64.8055067,230.709778 C64.9661901,228.8461 65.0967872,227.713452 73.923015,227.52 Z M73.923015,218.16 C72.9275701,218.58044 72.3687874,219.071719 72.3208113,219.628167 C72.0638457,222.608568 86.5581853,226.329927 104.694825,227.940054 C111.490537,228.543361 117.833375,228.764656 123.122142,228.648726 C118.831009,230.462386 106.424263,230.961154 91.8658516,229.700797 L91.4195202,229.661665 C73.2828807,228.051538 64.5485412,224.330179 64.8055067,221.349778 C64.9661901,219.4861 65.0967872,218.353452 73.923015,218.16 Z" transform="scale(-1 1) rotate(-7 0 1770.25)"/>
      <path fill="#4038FF" fill-rule="nonzero" d="M72.4108235,0 C81.3292786,0 88.56,7.25151165 88.56,16.1956098 C88.56,25.0292869 81.5067129,32.2119119 72.7403545,32.3879142 L72.4108235,32.3912195 L60.9501176,32.3912195 L60.9501176,108.72 L56.7825882,108.72 L56.7825882,32.9136585 L32.8192941,32.9136585 L32.8192941,108.72 L28.6517647,108.72 L28.6517647,32.9136585 L28.1308235,32.9136585 L28.1308235,32.3912195 L16.1491765,32.3912195 C7.23072135,32.3912195 0,25.1397079 0,16.1956098 C0,7.25151165 7.23072135,0 16.1491765,0 C25.0676316,0 32.2983529,7.25151165 32.2983529,16.1956098 L32.2983529,28.2117073 L32.8192941,28.2117073 L32.8192941,28.7341463 L56.2616471,28.7341463 L56.2616471,16.1956098 C56.2616471,7.25151165 63.4923684,0 72.4108235,0 Z M15.84,5.04 C9.08053397,5.04 3.6,10.3593418 3.6,16.92 C3.6,23.4806582 9.08053397,28.8 15.84,28.8 L28.08,28.8 L28.08,16.92 C28.08,10.3593418 22.599466,5.04 15.84,5.04 Z M72.72,5.04 C66.0645258,5.04 60.6489345,10.1969288 60.4838762,16.6180966 L60.48,16.92 L60.48,28.8 L72.72,28.8 C79.479466,28.8 84.96,23.4806582 84.96,16.92 C84.96,10.3593418 79.479466,5.04 72.72,5.04 Z" transform="translate(40.32 90.72)"/>
    </g>
  </g>
</svg>
