<svg width="256" height="256" viewBox="0 0 256 256" fill="none" xmlns="http://www.w3.org/2000/svg">
<path d="M127.957 0H127.925L126.604 0.0106597L126.572 0.0111818C80.8661 0.749439 44 37.8966 44 83.6792C44 112.539 55.1526 128.484 67.575 146.245L67.7788 146.536C73.2578 154.37 78.9854 162.569 84.5658 172.708C87.5247 178.085 89.7967 184.526 91.2781 192.142C91.2085 192.18 91.139 192.219 91.0697 192.259C89.2157 193.329 87.7342 194.943 86.8995 197.018C86.2902 198.532 86.1856 200.02 86.1651 200.312C86.1638 200.331 86.1628 200.345 86.1621 200.353C86.0025 202.204 86.3716 203.789 86.9841 205.112C86.9552 205.18 86.927 205.247 86.8995 205.316C86.2902 206.83 86.1856 208.318 86.1651 208.61C86.1638 208.629 86.1628 208.643 86.1621 208.651C85.9899 210.648 86.433 212.335 87.1333 213.718C87.0505 213.892 86.9725 214.07 86.8995 214.252C86.2902 215.766 86.1856 217.254 86.1651 217.546C86.1638 217.565 86.1628 217.579 86.1621 217.587C85.7074 222.861 89.5384 225.971 91.0968 227.053C91.911 227.618 92.8042 228.124 93.749 228.58C96.2773 236.549 102.463 242.879 110.339 245.608C113.768 251.802 120.366 256 127.957 256C135.555 256 142.157 251.788 145.576 245.609C151.228 243.651 156.008 239.834 159.19 234.899C160.347 234.514 161.457 234.051 162.473 233.486C164.152 232.553 168.031 229.935 168.214 224.86C168.215 224.836 168.217 224.804 168.219 224.764C168.245 224.29 168.33 222.732 167.72 220.899C168.579 219.616 169.231 217.995 169.304 215.991C169.304 215.987 169.304 215.981 169.304 215.974L169.306 215.949C169.321 215.658 169.397 214.182 168.985 212.618C168.964 212.537 168.942 212.458 168.919 212.378C169.688 211.139 170.248 209.612 170.315 207.755C170.315 207.748 170.316 207.738 170.316 207.725L170.317 207.715C170.333 207.418 170.422 205.791 169.912 204.08C169.216 201.747 167.739 199.992 165.987 198.806C165.225 198.29 164.428 197.893 163.655 197.579L164.433 193.224L164.436 193.209C165.65 186.545 167.457 180.756 169.79 175.776C176.532 161.384 182.236 150.102 192.319 140.239L192.895 139.675L193.348 139.007C203.7 123.724 211.915 108.506 211.915 83.6792C211.915 37.4347 174.3 0 127.957 0Z" fill="black"/>
<path fill-rule="evenodd" clip-rule="evenodd" d="M115.04 241.13L137.594 244.702C135.533 248.456 131.542 251 126.957 251C121.031 251 116.098 246.749 115.04 241.13Z" fill="white"/>
<path d="M98.3525 194.791L98.4734 195.468H155.441L155.562 194.791C156.88 187.554 158.875 181.084 161.546 175.382C157.542 174.981 153.524 174.112 149.561 172.742L148.741 172.451C143.037 170.374 137.909 167.416 133.457 163.785C153.124 160.915 171.526 151.697 185.724 137.52C195.63 122.897 202.915 109.258 202.915 86.6792C202.915 44.8806 168.91 11 126.957 11L125.701 11.0101C84.3285 11.6784 51 45.2986 51 86.6792C51 113.017 60.9126 127.19 73.3345 144.951C78.8053 152.773 84.7627 161.291 90.5745 171.851C94.162 178.369 96.7547 186.016 98.3525 194.791Z" fill="#A7AEB7"/>
<path fill-rule="evenodd" clip-rule="evenodd" d="M99.5106 200.574H154.404V223.553C154.404 233.776 146.117 242.064 135.894 242.064H118.021C107.798 242.064 99.5106 233.776 99.5106 223.553V200.574Z" fill="#A7AEB7"/>
<path d="M151.844 28.4774C146.479 25.17 140.436 22.7559 133.88 21.4816L133.008 21.3194C104.24 16.2085 76.6071 35.033 71.0291 63.7296C67.4787 81.9945 72.4391 93.1588 78.6551 107.149C80.3159 110.887 82.0663 114.827 83.768 119.158C83.7624 113.181 84.3294 107.118 85.5123 101.032C92.4773 65.2006 118.948 38.0893 151.844 28.4774Z" fill="black"/>
<path fill-rule="evenodd" clip-rule="evenodd" d="M150.939 91.4254C158.845 91.4254 165.255 97.8541 165.255 105.783C165.255 113.615 159.002 119.982 151.231 120.138L150.939 120.141H140.778V187.808H137.084V120.604H115.84V187.808H112.145V120.604H111.683V120.141H101.061C93.1549 120.141 86.7447 113.712 86.7447 105.783C86.7447 97.8541 93.1549 91.4254 101.061 91.4254C108.968 91.4254 115.378 97.8541 115.378 105.783V116.436H115.84V116.899H136.622V105.783C136.622 97.8541 143.032 91.4254 150.939 91.4254ZM100.787 95.8935C94.7948 95.8935 89.9362 100.609 89.9362 106.425C89.9362 112.242 94.7948 116.957 100.787 116.957H111.638V106.425C111.638 100.609 106.78 95.8935 100.787 95.8935ZM140.365 106.158C140.511 100.465 145.312 95.8935 151.213 95.8935C157.205 95.8935 162.064 100.609 162.064 106.425C162.064 112.242 157.205 116.957 151.213 116.957H140.362V106.425L140.365 106.158Z" fill="black"/>
<path d="M143.794 23.2398C136.966 20.6914 129.572 19.2979 121.851 19.2979L120.817 19.3062C86.7449 19.8565 59.2979 47.5438 59.2979 81.6219C59.2979 103.312 67.4612 114.984 77.691 129.611C80.4223 133.516 83.301 137.632 86.2109 142.205C84.8857 135.377 84.1915 128.323 84.1915 121.106C84.1915 78.5005 108.391 41.5468 143.794 23.2398Z" fill="white"/>
<path fill-rule="evenodd" clip-rule="evenodd" d="M101.215 218.447C100.333 218.82 99.8376 219.255 99.795 219.748C99.5672 222.391 112.417 225.69 128.495 227.117C134.52 227.652 140.143 227.848 144.832 227.745C141.027 229.353 130.029 229.795 117.122 228.678L116.727 228.643C100.648 227.216 92.9047 223.917 93.1325 221.275C93.275 219.622 93.3908 218.618 101.215 218.447Z" fill="white"/>
<path fill-rule="evenodd" clip-rule="evenodd" d="M101.215 209.511C100.333 209.883 99.8376 210.319 99.795 210.812C99.5672 213.454 112.417 216.753 128.495 218.181C134.52 218.716 140.143 218.912 144.832 218.809C141.027 220.417 130.029 220.859 117.122 219.742L116.727 219.707C100.648 218.28 92.9047 214.981 93.1325 212.338C93.275 210.686 93.3908 209.682 101.215 209.511Z" fill="white"/>
<path fill-rule="evenodd" clip-rule="evenodd" d="M101.215 201.213C100.333 201.585 99.8376 202.021 99.795 202.514C99.5672 205.157 112.417 208.456 128.495 209.883C134.52 210.418 140.143 210.614 144.832 210.511C141.027 212.119 130.029 212.561 117.122 211.444L116.727 211.409C100.648 209.982 92.9047 206.683 93.1325 204.041C93.275 202.388 93.3908 201.384 101.215 201.213Z" fill="white"/>
<path fill-rule="evenodd" clip-rule="evenodd" d="M151.542 223.779C152.372 224.257 152.811 224.75 152.793 225.244C152.697 227.895 139.541 229.603 123.408 229.06C117.364 228.857 111.758 228.367 107.117 227.693C110.697 229.753 121.56 231.532 134.507 231.996L134.904 232.01C151.036 232.552 159.124 230.221 159.22 227.571C159.28 225.914 159.287 224.903 151.542 223.779Z" fill="white"/>
<path fill-rule="evenodd" clip-rule="evenodd" d="M152.631 214.91C153.461 215.387 153.9 215.88 153.882 216.375C153.786 219.025 140.63 220.734 124.497 220.191C118.453 219.988 112.848 219.497 108.206 218.824C111.786 220.883 122.649 222.662 135.596 223.126L135.993 223.14C152.125 223.683 160.213 221.352 160.309 218.702C160.369 217.044 160.376 216.034 152.631 214.91Z" fill="white"/>
<path fill-rule="evenodd" clip-rule="evenodd" d="M153.642 206.674C154.472 207.151 154.911 207.644 154.893 208.139C154.797 210.789 141.641 212.498 125.509 211.955C119.464 211.752 113.859 211.261 109.218 210.588C112.798 212.647 123.661 214.426 136.607 214.89L137.004 214.904C153.137 215.447 161.224 213.116 161.32 210.466C161.38 208.808 161.387 207.798 153.642 206.674Z" fill="white"/>
</svg>
