<svg xmlns="http://www.w3.org/2000/svg" width="409" height="409"><g fill="none" fill-rule="evenodd"><path fill="#4038FF" stroke="#FFF" stroke-width="1.925" d="M203.04.96C91.34 1.48.96 92.41.96 204.5c0 112.09 90.39 203.02 202.08 203.54V.96z"/><path fill="#92A2B7" d="M203 2c113.77 0 206 92.17 206 205.86 0 21.67-3.35 42.56-9.56 62.17L203 206.38V2z"/><path fill="#C5D1E0" stroke="#FFF" stroke-width="1.925" d="M203.07 203l197.05 65.6C372.37 349.64 294.6 408 203 408V203h.07z"/><path fill="#FFF" fill-rule="nonzero" d="M54.35 215.67c1.66 0 3.17-.24 4.52-.74 1.35-.49 2.5-1.2 3.45-2.13a9.24 9.24 0 002.17-3.4c.5-1.32.74-2.82.74-4.48 0-1.5-.22-2.88-.68-4.14a9.5 9.5 0 00-1.93-3.24 8.73 8.73 0 00-3-2.11 9.8 9.8 0 00-3.92-.76 7.7 7.7 0 00-6.14 2.88l.54-8.13h13.31v-4.61H45.07l-1.19 17.4h5.64a4.87 4.87 0 011.97-2.17 5.5 5.5 0 012.82-.75c1.34 0 2.5.28 3.48.86.97.58 1.46 1.53 1.46 2.86v4c0 1.23-.46 2.22-1.39 2.95a5.64 5.64 0 01-3.6 1.1 6.17 6.17 0 01-3.58-.96c-.92-.63-1.47-1.78-1.64-3.45h-5.63c.23 2.88 1.25 5.1 3.06 6.67 1.82 1.57 4.44 2.35 7.88 2.35zm26.58 0c2.22 0 4.05-.4 5.5-1.22a9.2 9.2 0 003.4-3.33c.84-1.4 1.42-3.06 1.75-4.99.32-1.92.49-4 .49-6.22 0-2.22-.17-4.3-.49-6.22-.33-1.92-.9-3.58-1.75-5a9.1 9.1 0 00-3.4-3.32 11.1 11.1 0 00-5.5-1.21c-2.21 0-4.04.4-5.48 1.21a9.17 9.17 0 00-3.42 3.33 14.24 14.24 0 00-1.76 5c-.32 1.91-.49 3.99-.49 6.21 0 2.21.17 4.28.5 6.21.32 1.93.9 3.6 1.75 5a9.3 9.3 0 003.41 3.33c1.43.81 3.26 1.22 5.49 1.22zm0-4.66c-3.44 0-5.16-1.75-5.14-5.24v-11.73c-.02-3.48 1.7-5.22 5.14-5.22 3.44-.02 5.15 1.72 5.15 5.22v11.73c0 3.5-1.71 5.24-5.15 5.24zm17.43-3.15c.58 0 1.08-.1 1.49-.32.41-.2.75-.5 1.02-.85.26-.36.46-.8.58-1.29a6.86 6.86 0 000-3.22c-.12-.5-.32-.92-.58-1.29-.27-.36-.6-.65-1.02-.85-.41-.2-.9-.31-1.49-.31-.57 0-1.07.1-1.49.3-.41.21-.75.5-1.01.86-.27.37-.46.8-.58 1.3a6.86 6.86 0 000 3.21c.12.5.31.93.58 1.29.26.36.6.64 1.01.85.42.21.92.32 1.5.32zm1.25 7.14l9.45-15.1h-2.22L97.39 215h2.22zm-1.25-8.7c-.81 0-1.22-.37-1.22-1.1v-2.78c0-.76.4-1.14 1.22-1.14s1.23.39 1.23 1.14v2.77c0 .74-.4 1.1-1.23 1.1zm9.73 8.87c.57 0 1.07-.1 1.49-.3.41-.21.75-.5 1.01-.86.27-.36.46-.79.58-1.28a6.86 6.86 0 000-3.22c-.12-.5-.31-.92-.58-1.29-.26-.36-.6-.65-1.01-.86-.42-.2-.92-.3-1.5-.3-.57 0-1.07.1-1.48.3-.42.21-.76.5-1.02.86-.27.37-.46.8-.58 1.3a6.86 6.86 0 000 3.2c.12.5.31.93.58 1.3.26.36.6.64 1.02.84.41.21.9.31 1.49.31zm0-1.55c-.82 0-1.23-.36-1.23-1.1v-2.78c0-.75.4-1.13 1.23-1.13.81 0 1.22.38 1.22 1.13v2.78c0 .74-.4 1.1-1.22 1.1zM270.89 326v-4.66h-14.03v-.09l9.2-8.6a22.1 22.1 0 001.63-1.74 12.45 12.45 0 002.37-4.34 9.61 9.61 0 00-.3-6.18 7.59 7.59 0 00-1.92-2.8 8.83 8.83 0 00-3.1-1.8c-1.24-.42-2.62-.63-4.15-.63-1.55 0-2.97.22-4.27.68-1.3.45-2.43 1.1-3.4 1.93a8.7 8.7 0 00-2.24 3 9.33 9.33 0 00-.8 3.92h5.64c0-1.57.43-2.78 1.29-3.62a4.92 4.92 0 013.59-1.25c1.31 0 2.38.36 3.2 1.1a3.94 3.94 0 011.24 3.1c0 1.01-.26 1.96-.78 2.83-.52.87-1.24 1.74-2.15 2.59l-12.16 11.86v4.7h21.14zm16.04.67c2.22 0 4.05-.4 5.5-1.22a9.2 9.2 0 003.4-3.33c.84-1.4 1.42-3.06 1.75-4.99.32-1.92.49-4 .49-6.22 0-2.22-.17-4.3-.49-6.22-.33-1.92-.9-3.58-1.75-5a9.1 9.1 0 00-3.4-3.32 11.1 11.1 0 00-5.5-1.21c-2.21 0-4.04.4-5.48 1.21a9.17 9.17 0 00-3.42 3.33 14.24 14.24 0 00-1.76 5c-.32 1.91-.49 3.99-.49 6.21 0 2.21.17 4.28.5 6.21.32 1.93.9 3.6 1.75 5a9.3 9.3 0 003.41 3.33c1.43.81 3.26 1.22 5.49 1.22zm0-4.66c-3.44 0-5.16-1.75-5.14-5.24v-11.73c-.02-3.48 1.7-5.22 5.14-5.22 3.44-.02 5.15 1.72 5.15 5.22v11.73c0 3.5-1.71 5.24-5.15 5.24zm17.43-3.15c.58 0 1.08-.1 1.49-.32.41-.2.75-.5 1.02-.85.26-.36.46-.8.58-1.29a6.86 6.86 0 000-3.22c-.12-.5-.32-.92-.58-1.29-.27-.36-.6-.65-1.02-.85-.41-.2-.9-.31-1.49-.31-.57 0-1.07.1-1.49.3-.41.21-.75.5-1.01.86-.27.37-.46.8-.58 1.3a6.86 6.86 0 000 3.21c.12.5.31.93.58 1.29.26.36.6.64 1.01.85.42.21.92.32 1.5.32zm1.25 7.14l9.45-15.1h-2.22l-9.45 15.1h2.22zm-1.25-8.7c-.81 0-1.22-.37-1.22-1.1v-2.78c0-.76.4-1.14 1.22-1.14s1.23.39 1.23 1.14v2.77c0 .74-.4 1.1-1.23 1.1zm9.73 8.87c.57 0 1.07-.1 1.49-.3.41-.21.75-.5 1.01-.86.27-.36.46-.79.58-1.28a6.86 6.86 0 000-3.22c-.12-.5-.31-.92-.58-1.29-.26-.36-.6-.65-1.01-.86-.42-.2-.92-.3-1.5-.3-.57 0-1.07.1-1.48.3-.42.21-.76.5-1.02.86-.27.37-.46.8-.58 1.3a6.86 6.86 0 000 3.2c.12.5.31.93.58 1.3.26.36.6.64 1.02.84.41.21.9.31 1.49.31zm0-1.55c-.82 0-1.23-.36-1.23-1.1v-2.78c0-.75.4-1.13 1.23-1.13.81 0 1.22.38 1.22 1.13v2.78c0 .74-.4 1.1-1.22 1.1zm-27.91-175.95c1.6 0 3.08-.2 4.42-.6 1.34-.41 2.5-.99 3.48-1.74a7.68 7.68 0 002.26-2.8c.54-1.1.8-2.36.8-3.74 0-1.96-.4-3.5-1.23-4.62a8.42 8.42 0 00-3.68-2.71 7.41 7.41 0 003.3-2.78 8.22 8.22 0 001.1-4.42 7.32 7.32 0 00-2.83-5.9c-.9-.7-2-1.25-3.28-1.63a14.65 14.65 0 00-4.21-.57c-1.56 0-2.99.2-4.27.6-1.29.39-2.39.96-3.3 1.7a7.6 7.6 0 00-2.14 2.7 8.31 8.31 0 00-.76 3.6h5.64c.08-1.39.56-2.4 1.44-3.01.87-.62 2-.93 3.39-.93 1.24 0 2.29.27 3.13.83.85.56 1.27 1.41 1.27 2.57v2.4c0 .77-.2 1.4-.58 1.87-.38.48-1.06.71-2.04.71h-5.94v4.62h6.26c1.9 0 2.84.89 2.84 2.67v2.7c0 1.06-.47 1.96-1.4 2.7a5.8 5.8 0 01-3.71 1.12 6.1 6.1 0 01-3.78-1.14c-1-.75-1.54-1.98-1.6-3.67h-5.64c0 1.6.29 3 .85 4.18a8.05 8.05 0 002.35 2.95c1 .78 2.17 1.37 3.5 1.76 1.33.39 2.78.58 4.36.58zm26.75 0c2.22 0 4.05-.4 5.5-1.22a9.2 9.2 0 003.4-3.33c.84-1.4 1.42-3.06 1.75-4.99.32-1.92.49-4 .49-6.22 0-2.22-.17-4.3-.49-6.22-.33-1.92-.9-3.58-1.75-5a9.1 9.1 0 00-3.4-3.32 11.1 11.1 0 00-5.5-1.21c-2.21 0-4.04.4-5.48 1.21a9.17 9.17 0 00-3.42 3.33 14.24 14.24 0 00-1.76 5c-.32 1.91-.49 3.99-.49 6.21 0 2.21.17 4.28.5 6.21.32 1.93.9 3.6 1.75 5a9.3 9.3 0 003.41 3.33c1.43.81 3.26 1.22 5.49 1.22zm0-4.66c-3.44 0-5.16-1.75-5.14-5.24v-11.73c-.02-3.48 1.7-5.22 5.14-5.22 3.44-.02 5.15 1.72 5.15 5.22v11.73c0 3.5-1.71 5.24-5.15 5.24zm17.43-3.15c.58 0 1.08-.1 1.49-.32.41-.2.75-.5 1.02-.85.26-.36.46-.8.58-1.29a6.86 6.86 0 000-3.22c-.12-.5-.32-.92-.58-1.29-.27-.36-.6-.65-1.02-.85-.41-.2-.9-.31-1.49-.31-.57 0-1.07.1-1.49.3-.41.21-.75.5-1.01.86-.27.37-.46.8-.58 1.3a6.86 6.86 0 000 3.21c.12.5.31.93.58 1.29.26.36.6.64 1.01.85.42.21.92.32 1.5.32zm1.25 7.14l9.45-15.1h-2.22l-9.45 15.1h2.22zm-1.25-8.7c-.81 0-1.22-.37-1.22-1.1v-2.78c0-.76.4-1.14 1.22-1.14s1.23.39 1.23 1.14v2.77c0 .74-.4 1.1-1.23 1.1zm9.73 8.87c.57 0 1.07-.1 1.49-.3.41-.21.75-.5 1.01-.86.27-.36.46-.79.58-1.28a6.86 6.86 0 000-3.22c-.12-.5-.31-.92-.58-1.29-.26-.36-.6-.65-1.01-.86-.42-.2-.92-.3-1.5-.3-.57 0-1.07.1-1.48.3-.42.21-.76.5-1.02.86-.27.37-.46.8-.58 1.3a6.86 6.86 0 000 3.2c.12.5.31.93.58 1.3.26.36.6.64 1.02.84.41.21.9.31 1.49.31zm0-1.55c-.82 0-1.23-.36-1.23-1.1v-2.78c0-.75.4-1.13 1.23-1.13.81 0 1.22.38 1.22 1.13v2.78c0 .74-.4 1.1-1.22 1.1z"/><circle cx="204.5" cy="203.5" r="65.5" fill="#FFF"/></g></svg>