<svg xmlns="http://www.w3.org/2000/svg" width="720" height="601" viewBox="0 0 720 601">
  <g fill="none" fill-rule="evenodd">
    <g transform="matrix(1 0 0 -1 0 601)">
      <path fill="#4038FF" d="M586.660142 320.610133L580.006762 320.610133 580.006762 327.263467 586.660142 327.263467 586.660142 333.933333 580.006762 333.933333 580.006762 340.6032 586.660142 340.6032 586.660142 347.256533 593.330071 347.256533 593.330071 353.9264 586.660142 353.9264 586.660142 347.273067 580.006762 347.273067 580.006762 353.9264 586.660142 353.9264 586.660142 360.6 579.990214 360.6 579.990214 353.930133 573.336833 353.930133 573.336833 347.2768 566.666904 347.2768 566.666904 353.930133 559.996975 353.930133 559.996975 347.2768 553.343594 347.2768 553.343594 353.930133 559.996975 353.930133 559.996975 360.6 553.326512 360.6 553.326512 353.930133 546.673665 353.930133 546.673665 360.6 540 360.6 540 353.930133 546.669929 353.930133 546.669929 347.2768 540 347.2768 540 340.6064 546.669929 340.6064 546.669929 333.936533 540 333.936533 540 327.266667 546.669929 327.266667 546.669929 320.613333 546.669929 320.5968 553.32331 320.5968 553.32331 313.943467 559.993238 313.943467 559.993238 320.5968 566.663167 320.5968 566.663167 313.943467 573.33363 313.943467 573.33363 320.5968 579.987011 320.5968 579.987011 313.943467 586.65694 313.943467 586.65694 320.5968 593.326868 320.5968 593.326868 327.266667 586.65694 327.266667 586.65694 320.610133 586.660142 320.610133zM546.669929 320.5936L546.669929 313.939733 540 313.939733 540 320.610133 546.669929 320.610133 546.669929 320.5936zM566.663167 353.930133L566.663167 360.6 573.33363 360.6 573.33363 353.930133 566.663167 353.930133zM586.660142 340.6064L586.660142 333.936533 593.330071 333.936533 593.330071 340.6064 586.660142 340.6064zM553.32331 347.260267L546.669929 347.260267 546.669929 340.6064 553.32331 340.6064 553.32331 347.260267zM553.339858 313.939733L553.339858 307.269867 559.993238 307.269867 559.993238 313.939733 566.663167 313.939733 566.663167 307.269867 573.33363 307.269867 573.33363 313.939733 580.003559 313.939733 580.003559 307.269867 586.65694 307.269867 586.65694 313.939733 593.326868 313.939733 593.326868 307.269867 586.65694 307.269867 586.65694 300.6 579.987011 300.6 579.987011 307.269867 573.33363 307.269867 573.33363 300.6 566.663167 300.6 566.663167 307.269867 559.993238 307.269867 559.993238 300.6 553.32331 300.6 553.32331 307.269867 546.669929 307.269867 546.669929 300.6 540 300.6 540 307.269867 546.669929 307.269867 546.669929 313.939733 553.339858 313.939733zM579.987011 327.263467L579.987011 333.933333 573.33363 333.933333 573.33363 327.263467 579.987011 327.263467zM566.663167 327.263467L566.663167 320.610133 573.33363 320.610133 573.33363 327.263467 566.663167 327.263467zM559.993238 327.263467L566.663167 327.263467 566.663167 333.933333 559.993238 333.933333 559.993238 327.263467zM559.993238 327.263467L553.339858 327.263467 553.339858 320.610133 559.993238 320.610133 559.993238 327.263467zM559.993238 340.6064L553.339858 340.6064 553.339858 333.936533 559.993238 333.936533 559.993238 340.6064zM566.663167 340.6064L566.663167 347.260267 559.993238 347.260267 559.993238 340.6064 566.663167 340.6064zM573.336833 340.6064L566.666904 340.6064 566.666904 333.936533 573.336833 333.936533 573.336833 340.6064zM573.336833 340.6064L579.990214 340.6064 579.990214 347.260267 573.336833 347.260267 573.336833 340.6064zM553.32331 333.936533L553.32331 327.266667 546.669929 327.266667 546.669929 333.936533 553.32331 333.936533zM600 353.930133L593.330071 353.930133 593.330071 360.6 600 360.6 600 353.930133zM593.330071 340.6064L600 340.6064 600 347.2768 593.330071 347.2768 593.330071 340.6064zM600 327.263467L593.330071 327.263467 593.330071 333.933333 600 333.933333 600 327.263467zM593.330071 313.939733L600 313.939733 600 320.610133 593.330071 320.610133 593.330071 313.939733zM593.330071 300.6L600 300.6 600 307.269867 593.330071 307.269867 593.330071 300.6zM166.660142 560.610133L160.006762 560.610133 160.006762 567.263467 166.660142 567.263467 166.660142 573.933333 160.006762 573.933333 160.006762 580.6032 166.660142 580.6032 166.660142 587.256533 173.330071 587.256533 173.330071 593.9264 166.660142 593.9264 166.660142 587.273067 160.006762 587.273067 160.006762 593.9264 166.660142 593.9264 166.660142 600.6 159.990214 600.6 159.990214 593.930133 153.336833 593.930133 153.336833 587.2768 146.666904 587.2768 146.666904 593.930133 139.996975 593.930133 139.996975 587.2768 133.343594 587.2768 133.343594 593.930133 139.996975 593.930133 139.996975 600.6 133.326512 600.6 133.326512 593.930133 126.673665 593.930133 126.673665 600.6 120 600.6 120 593.930133 126.669929 593.930133 126.669929 587.2768 120 587.2768 120 580.6064 126.669929 580.6064 126.669929 573.936533 120 573.936533 120 567.266667 126.669929 567.266667 126.669929 560.613333 126.669929 560.5968 133.32331 560.5968 133.32331 553.943467 139.993238 553.943467 139.993238 560.5968 146.663167 560.5968 146.663167 553.943467 153.33363 553.943467 153.33363 560.5968 159.987011 560.5968 159.987011 553.943467 166.65694 553.943467 166.65694 560.5968 173.326868 560.5968 173.326868 567.266667 166.65694 567.266667 166.65694 560.610133 166.660142 560.610133zM126.669929 560.5936L126.669929 553.939733 120 553.939733 120 560.610133 126.669929 560.610133 126.669929 560.5936zM146.663167 593.930133L146.663167 600.6 153.33363 600.6 153.33363 593.930133 146.663167 593.930133zM166.660142 580.6064L166.660142 573.936533 173.330071 573.936533 173.330071 580.6064 166.660142 580.6064zM133.32331 587.260267L126.669929 587.260267 126.669929 580.6064 133.32331 580.6064 133.32331 587.260267zM133.339858 553.939733L133.339858 547.269867 139.993238 547.269867 139.993238 553.939733 146.663167 553.939733 146.663167 547.269867 153.33363 547.269867 153.33363 553.939733 160.003559 553.939733 160.003559 547.269867 166.65694 547.269867 166.65694 553.939733 173.326868 553.939733 173.326868 547.269867 166.65694 547.269867 166.65694 540.6 159.987011 540.6 159.987011 547.269867 153.33363 547.269867 153.33363 540.6 146.663167 540.6 146.663167 547.269867 139.993238 547.269867 139.993238 540.6 133.32331 540.6 133.32331 547.269867 126.669929 547.269867 126.669929 540.6 120 540.6 120 547.269867 126.669929 547.269867 126.669929 553.939733 133.339858 553.939733zM159.987011 567.263467L159.987011 573.933333 153.33363 573.933333 153.33363 567.263467 159.987011 567.263467zM146.663167 567.263467L146.663167 560.610133 153.33363 560.610133 153.33363 567.263467 146.663167 567.263467zM139.993238 567.263467L146.663167 567.263467 146.663167 573.933333 139.993238 573.933333 139.993238 567.263467zM139.993238 567.263467L133.339858 567.263467 133.339858 560.610133 139.993238 560.610133 139.993238 567.263467zM139.993238 580.6064L133.339858 580.6064 133.339858 573.936533 139.993238 573.936533 139.993238 580.6064zM146.663167 580.6064L146.663167 587.260267 139.993238 587.260267 139.993238 580.6064 146.663167 580.6064zM153.336833 580.6064L146.666904 580.6064 146.666904 573.936533 153.336833 573.936533 153.336833 580.6064zM153.336833 580.6064L159.990214 580.6064 159.990214 587.260267 153.336833 587.260267 153.336833 580.6064zM133.32331 573.936533L133.32331 567.266667 126.669929 567.266667 126.669929 573.936533 133.32331 573.936533zM180 593.930133L173.330071 593.930133 173.330071 600.6 180 600.6 180 593.930133zM173.330071 580.6064L180 580.6064 180 587.2768 173.330071 587.2768 173.330071 580.6064zM180 567.263467L173.330071 567.263467 173.330071 573.933333 180 573.933333 180 567.263467zM173.330071 553.939733L180 553.939733 180 560.610133 173.330071 560.610133 173.330071 553.939733zM173.330071 540.6L180 540.6 180 547.269867 173.330071 547.269867 173.330071 540.6zM353.330071 300.6L360 300.6 360 240.6 353.330071 240.6 353.330071 300.6zM346.666548 300.6L339.999822 300.6 339.999822 240.6 346.666548 240.6 346.666548 300.6zM333.33363 300.6L326.666904 300.6 326.666904 240.6 333.33363 240.6 333.33363 300.6zM313.333452 300.6L320.000178 300.6 320.000178 240.6 313.333452 240.6 313.333452 300.6zM306.666726 300.6L300 300.6 300 240.6 306.666726 240.6 306.666726 300.6z"/>
      <path fill="#FFF" fill-rule="nonzero" d="M364.699429,121 L360,121 L360,116.3 L415.299429,61 L420,61 L420,65.7 L364.699429,121 Z M405.866286,61 L396.433143,61 L360,97.4332571 L360,106.866629 L405.866286,61 Z M387,61 L377.566857,61 L360,78.5666286 L360,88 L387,61 Z M360,61 L360,69.1333257 L368.132571,61 L360,61 Z M420,84.5666286 L420,75.1333714 L374.132571,121 L383.566857,121 L420,84.5666286 Z M420,103.433257 L420,94 L393,121 L402.433143,121 L420,103.433257 Z M420,112.866629 L411.866286,121 L420,121 L420,112.866629 Z"/>
      <path fill="#1F242C" d="M300 67.2698667L300 60.6 240 60.6 240 67.2698667 300 67.2698667zM300 73.9333333L300 80.6 240 80.6 240 73.9333333 300 73.9333333zM300 87.2666667L300 93.9333333 240 93.9333333 240 87.2666667 300 87.2666667zM300 107.266667L300 100.6 240 100.6 240 107.266667 300 107.266667zM300 113.933333L300 120.6 240 120.6 240 113.933333 300 113.933333zM540 247.269867L540 240.6 480 240.6 480 247.269867 540 247.269867zM540 253.933333L540 260.6 480 260.6 480 253.933333 540 253.933333zM540 267.266667L540 273.933333 480 273.933333 480 267.266667 540 267.266667zM540 287.266667L540 280.6 480 280.6 480 287.266667 540 287.266667zM540 293.933333L540 300.6 480 300.6 480 293.933333 540 293.933333zM300 233.930027L300 240.6 240 240.6 240 233.930027 300 233.930027zM300 213.926667L300 207.256693 240 207.256693 240 213.926667 300 213.926667zM300 193.92336L300 200.593333 240 200.593333 240 193.92336 300 193.92336zM300 180.6L300 187.270027 240 187.270027 240 180.6 300 180.6zM300 227.26L300 220.589973 240 220.589973 240 227.26 300 227.26zM712.733274 180.6L719.4 180.6C719.4 213.736533 692.536655 240.6 659.4 240.6L659.4 233.933333C688.856584 233.933333 712.733274 210.056533 712.733274 180.6zM699.399822 180.6L706.066548 180.6C706.066548 206.373333 685.17331 227.266667 659.4 227.266667L659.4 220.6C681.490036 220.6 699.399822 202.690133 699.399822 180.6zM692.73363 180.6L686.066904 180.6C686.066904 195.3264 674.12669 207.266667 659.4 207.266667L659.4 213.933333C677.809964 213.933333 692.73363 199.010133 692.73363 180.6zM672.733452 180.6L679.400178 180.6C679.400178 191.6464 670.446619 200.6 659.4 200.6L659.4 193.933333C666.763345 193.933333 672.733452 187.9632 672.733452 180.6zM659.4 180.6L666.066726 180.6C666.066726 184.2832 663.083274 187.266667 659.4 187.266667L659.4 180.6zM186.666726 420.6L180 420.6C180 387.463467 206.863345 360.6 240 360.6L240 367.266667C210.543416 367.266667 186.666726 391.143467 186.666726 420.6zM200.000178 420.6L193.333452 420.6C193.333452 394.826667 214.22669 373.933333 240 373.933333L240 380.6C217.909964 380.6 200.000178 398.509867 200.000178 420.6zM206.666904 420.6L213.33363 420.6C213.33363 405.873067 225.27331 393.933333 240 393.933333L240 387.266667C221.590036 387.266667 206.666904 402.189867 206.666904 420.6zM226.666548 420.6L220.000356 420.6C220.000356 409.553067 228.953381 400.6 240 400.6L240 407.266667C232.636655 407.266667 226.666548 413.2368 226.666548 420.6zM240 420.6L233.333274 420.6C233.333274 416.9168 236.316726 413.933333 240 413.933333L240 420.6z"/>
      <path fill="#1F242C" fill-rule="nonzero" d="M120,300.6 L120,360.6 L180,360.6 C180,327.463467 153.136655,300.6 120,300.6 Z" transform="rotate(-180 150 330.6)"/>
      <path fill="#1F242C" fill-rule="nonzero" d="M420.6,540.6 L480.6,540.6 L480.6,480.6 C447.463345,480.6 420.6,507.463467 420.6,540.6 Z" transform="rotate(-90 450.6 510.6)"/>
      <path fill="#1F242C" d="M186.669929 540.6L180 540.6 180 480.6 186.669929 480.6 186.669929 540.6zM206.67331 540.6L213.343238 540.6 213.343238 480.6 206.67331 480.6 206.67331 540.6zM226.67669 540.6L220.006762 540.6 220.006762 480.6 226.67669 480.6 226.67669 540.6zM240 540.6L233.330071 540.6 233.330071 480.6 240 480.6 240 540.6zM193.339858 540.6L200.009786 540.6 200.009786 480.6 193.339858 480.6 193.339858 540.6zM6.66992883 420.6L0 420.6 0 360.6 6.66992883 360.6 6.66992883 420.6zM26.6733096 420.6L33.3432384 420.6 33.3432384 360.6 26.6733096 360.6 26.6733096 420.6zM46.6766904 420.6L40.0067616 420.6 40.0067616 360.6 46.6766904 360.6 46.6766904 420.6zM60 420.6L53.3300712 420.6 53.3300712 360.6 60 360.6 60 420.6zM13.3398577 420.6L20.0097865 420.6 20.0097865 360.6 13.3398577 360.6 13.3398577 420.6z"/>
      <path fill="#4038FF" d="M487.269929,60.6 L480.6,60.6 L480.6,0.6 L487.269929,0.6 L487.269929,60.6 Z M507.27331,60.6 L513.943238,60.6 L513.943238,0.6 L507.27331,0.6 L507.27331,60.6 Z M527.27669,60.6 L520.606762,60.6 L520.606762,0.6 L527.27669,0.6 L527.27669,60.6 Z M540.6,60.6 L533.930071,60.6 L533.930071,0.6 L540.6,0.6 L540.6,60.6 Z M493.939858,60.6 L500.609786,60.6 L500.609786,0.6 L493.939858,0.6 L493.939858,60.6 Z"/>
    </g>
    <g transform="rotate(-15 824.799 -93.32)">
      <ellipse cx="327.8" cy="157.52" fill="#000" rx="157.96" ry="157.52"/>
      <ellipse cx="327.8" cy="157.52" fill="#C4C3C6" rx="138.6" ry="138.16"/>
      <path fill="#FFF" d="M189.429008,166.32 C189.277029,163.65522 189.2,160.970324 189.2,158.267397 C189.2,81.5509601 251.253334,19.36 327.8,19.36 C404.346666,19.36 466.4,81.5509601 466.4,158.267397 C466.4,160.970324 466.322971,163.65522 466.170992,166.32 C462.009396,93.3510555 401.649721,35.4652055 327.8,35.4652055 C253.950279,35.4652055 193.590604,93.3510555 189.429008,166.32 Z"/>
      <path fill="#000" d="M273.520753,303.6 C271.060232,302.61698 268.613121,301.557777 266.18217,300.421388 C197.185161,268.167587 167.334079,185.948568 199.507913,116.780069 C231.681747,47.6115694 313.69692,17.6862936 382.693929,49.9400946 C385.12488,51.076483 387.507237,52.2748953 389.84,53.5325755 C322.464212,26.6147967 245.032829,56.8196546 213.992566,123.551161 C182.952304,190.282668 209.64334,269.161285 273.520753,303.6 Z"/>
      <path fill="#000" d="M244.474757,284.363077 C215.710753,237.812414 230.026144,112.457378 277.540837,80.3788945 C326.197068,47.5297277 391.241861,58.8902839 422.822449,105.753407 C429.196032,115.211307 433.719478,125.392448 436.48,135.889702 C433.944599,129.649175 430.735457,123.586363 426.83255,117.794753 C395.251962,70.9316299 309.799359,95.7769578 312.275351,156.979338 C315.937778,247.508446 263.586597,262.05288 288.606387,295.68 L244.474757,284.363077 Z"/>
      <path fill="#FFF" d="M436.977315,132.88 C437.64697,134.882174 438.26275,136.915039 438.822614,138.977431 C454.720821,197.542258 419.510032,257.739633 360.177117,273.432031 C300.844202,289.12443 239.857327,254.369459 223.959121,195.804632 C223.06659,192.516783 222.335141,189.223788 221.76,185.933812 C240.106229,240.786477 298.889223,272.603563 356.132698,257.463781 C412.134643,242.652359 446.646884,188.192741 436.977315,132.88 L436.977315,132.88 Z"/>
      <path fill="#000" fill-rule="nonzero" d="M372.24,90.64 L312.4,90.64 L312.4,110.977111 L348.9024,110.977111 L348.9024,194.649677 C348.9024,201.332418 344.7136,207.143044 338.4304,209.7579 L317.3368,219.039324 L323.62,241.12 L352.1936,228.932518 C359.6736,226.027205 365.9568,220.507036 369.248,213.534583 C371.3424,209.466698 372.24,204.818644 372.24,200.460302 L372.24,90.64 Z"/>
      <path fill="#C4C3C6" fill-rule="nonzero" d="M360.8,95.92 L304.48,95.92 L304.48,115.436796 L338.8352,115.436796 L338.8352,195.734355 C338.8352,202.147541 334.8928,207.72379 328.9792,210.233174 L315.1808,215.529967 L321.0944,236.72 L341.9328,228.634367 C348.9728,225.846243 354.8864,220.548735 357.984,213.857522 C359.9552,209.953718 360.8,205.493148 360.8,201.310604 L360.8,95.92 Z"/>
      <path fill="#FFF" fill-rule="nonzero" d="M315.927131,218.24 L313.95584,211.66039 L328.44416,206.479884 C334.65344,204.025592 338.79296,198.571766 338.79296,192.299377 L338.79296,113.764703 L302.72,113.764703 L302.72,106.48 L344.96,106.48 L344.96,191.886505 C344.96,195.275958 344.19968,198.890718 342.4256,202.054284 C339.63776,207.476714 334.31552,211.769712 327.97952,214.029154 L315.927131,218.24 Z"/>
      <path fill="#000" fill-rule="nonzero" d="M295.477239,94.5629919 C333.931949,151.399681 304.258703,235.436254 232.680551,283.568328 C198.834128,306.328046 160.22158,317.96269 124.206666,316.708225 C108.966501,316.177382 95.5260607,312.295899 83.8449747,305.905637 C75.8828673,301.549882 70.4774212,297.247206 64.6368782,291.624349 C46.4053883,277.343616 33.0770552,264.983891 24.6518791,254.545174 C15.9199636,243.726409 8.84856589,229.51946 3.43768608,211.924328 C-10.7487883,158.331732 19.8049195,92.8861377 79.7194494,52.5971592 C151.297601,4.4650846 240.570332,8.51752107 279.025043,65.3542099 C283.887797,72.5414398 289.917904,86.3462039 295.477239,94.5629919 Z"/>
      <path fill="#C4C3C6" d="M75.68,277.013232 C92.1781227,286.520818 144.044111,288.638769 188.340667,266.774635 C229.439302,246.488949 263.354452,203.632437 273.047105,174.747318 C284.457599,140.742855 274.072015,95.0539811 269.019205,82.72 C275.332584,87.710463 278.070411,97.6056167 282.680616,104.395199 C315.023351,152.027279 288.91568,225.701403 224.3675,268.950961 C192.562237,290.261609 157.358546,300.20915 125.958268,299.119334 C98.2044798,298.156077 91.0024142,291.791286 86.015874,287.007775 C80.1386574,281.369853 76.6933661,278.038338 75.68,277.013232 Z"/>
      <path fill="#D8D8D8" d="M204.897272,240.649328 C268.75719,197.197267 294.586481,123.178185 262.588609,75.3230827 C230.590737,27.46798 152.882645,23.8986099 89.0227279,67.3506715 C25.1628104,110.802733 -0.666480975,184.821815 31.3313908,232.676917 C63.3292627,280.53202 141.037355,284.10139 204.897272,240.649328 Z"/>
      <path fill="#C4C3C6" d="M204.897272,240.649328 C268.75719,197.197267 294.586481,123.178185 262.588609,75.3230827 C230.590737,27.46798 152.882645,23.8986099 89.0227279,67.3506715 C25.1628104,110.802733 -0.666480975,184.821815 31.3313908,232.676917 C63.3292627,280.53202 141.037355,284.10139 204.897272,240.649328 Z"/>
      <path fill="#FFF" d="M40.48,243.863291 C77.3358843,276.174546 143.586421,274.268743 199.243633,236.304581 C262.656116,193.050495 288.304435,119.368658 256.530756,71.7315915 C254.775281,69.0996755 252.881255,66.6023252 250.85865,64.24 C255.994149,68.7422495 260.558933,73.9088449 264.444818,79.7348047 C296.218497,127.371871 270.570178,201.053708 207.157695,244.307794 C147.248709,285.172121 75.0660831,284.258508 40.48,243.863298 L40.48,243.863291 Z"/>
      <path fill="#FFF" d="M236.72,74.4824458 C203.470378,48.0711929 146.412234,52.7486762 100.120276,88.2925637 C47.3779955,128.789137 28.5836836,194.018026 58.1420051,233.985366 C59.7750826,236.193535 61.521589,238.278395 63.3729006,240.24 C58.7398981,236.559856 54.5691532,232.276104 50.9542036,227.388143 C21.395882,187.420803 40.1901939,122.191913 92.932474,81.6953402 C142.760778,43.4361758 205.063004,40.9394519 236.72,74.4824458 L236.72,74.4824458 Z"/>
      <path fill="#000" d="M105.6,248.759 C132.444349,247.819029 161.920486,236.57056 187.531377,215.287863 C238.267781,173.125819 254.621984,107.549843 224.059512,68.8198224 C218.923087,62.310734 212.788384,56.9741673 205.895184,52.8 C220.297118,58.1799475 232.47289,67.3213262 240.907015,80.1533715 C268.046775,121.444988 246.166118,185.315571 192.0352,222.812311 C164.038432,242.205803 132.898,250.745961 105.6,248.758999 L105.6,248.759 Z"/>
      <path fill="#000" fill-rule="nonzero" d="M212.08,116.063073 L208.071111,103.935573 L154.661674,82.72 L142.25675,86.7625 L140.645882,96.3860938 L163.973333,111.0175 C143.093768,132.653953 127.489427,148.823953 117.160311,159.5275 C106.831195,170.231047 106.831195,170.231047 117.160311,159.5275 C110.952696,167.6125 105.176296,171.655 99.8311111,171.655 C94.4859259,171.655 89.1407407,170.749072 83.7955556,168.937216 C78.9332459,173.898138 101.414505,186.270314 94.2822978,183.246444 L78.1829751,175.540616 L67.76,183.7825 L67.76,196.140531 L91.7452699,208.431821 C99.9806405,212.37682 109.229754,213.238396 117.160311,210.446785 C121.954885,208.914231 126.199958,205.960401 129.478107,202.528908 L212.08,116.063073 Z"/>
      <path fill="#C4C3C6" fill-rule="nonzero" d="M208.56,103.743073 L151.141674,70.4 L137.125882,84.0660938 L171.369731,105.836497 L110.490232,167.950693 C105.627923,172.911615 97.8945048,173.950314 90.7622978,170.926444 L74.6629751,163.220616 L64.24,183.820531 L88.2252699,196.111821 C96.4606405,200.05682 105.709754,200.918396 113.640311,198.126785 C118.434885,196.594231 122.679958,193.640401 125.958107,190.208908 L208.56,103.743073 Z"/>
      <path fill="#FFF" fill-rule="nonzero" d="M70.4,187.850159 L71.9397586,184.810398 L93.5326299,195.134093 C103.09855,199.185248 113.470831,197.793676 119.992299,191.147402 L201.645621,107.93143 L155.716793,78.7650657 L158.884352,75.68 L211.2,105.790641 L128.108987,191.997513 C124.811427,195.418729 120.541217,198.363712 115.718252,199.891677 C107.740735,202.674927 98.4368534,201.815931 90.1527177,197.882748 L70.4,187.850159 Z"/>
    </g>
  </g>
</svg>
