<?xml version="1.0" encoding="UTF-8" standalone="no"?>
<svg
   xmlns:dc="http://purl.org/dc/elements/1.1/"
   xmlns:cc="http://creativecommons.org/ns#"
   xmlns:rdf="http://www.w3.org/1999/02/22-rdf-syntax-ns#"
   xmlns:svg="http://www.w3.org/2000/svg"
   xmlns="http://www.w3.org/2000/svg"
   xmlns:sodipodi="http://sodipodi.sourceforge.net/DTD/sodipodi-0.dtd"
   xmlns:inkscape="http://www.inkscape.org/namespaces/inkscape"
   width="583"
   height="380"
   viewBox="0 0 471.58432 366.48209"
   version="1.1"
   id="svg556"
   sodipodi:docname="tokens-no-bg.svg"
   inkscape:version="1.0.1 (1.0.1+r74)">
  <metadata
     id="metadata562">
    <rdf:RDF>
      <cc:Work
         rdf:about="">
        <dc:format>image/svg+xml</dc:format>
        <dc:type
           rdf:resource="http://purl.org/dc/dcmitype/StillImage" />
        <dc:title></dc:title>
      </cc:Work>
    </rdf:RDF>
  </metadata>
  <defs
     id="defs560" />
  <sodipodi:namedview
     pagecolor="#ffffff"
     bordercolor="#666666"
     borderopacity="1"
     objecttolerance="10"
     gridtolerance="10"
     guidetolerance="10"
     inkscape:pageopacity="0"
     inkscape:pageshadow="2"
     inkscape:window-width="1848"
     inkscape:window-height="1016"
     id="namedview558"
     showgrid="false"
     fit-margin-top="0"
     fit-margin-left="0"
     fit-margin-right="0"
     fit-margin-bottom="0"
     inkscape:zoom="1.3860233"
     inkscape:cx="263.99676"
     inkscape:cy="180.44387"
     inkscape:window-x="72"
     inkscape:window-y="27"
     inkscape:window-maximized="1"
     inkscape:current-layer="svg556" />
  <g
     fill="none"
     fill-rule="evenodd"
     id="g554"
     transform="translate(-96.003241,-120.05613)">
    <g
       transform="rotate(-15,824.799,-93.32)"
       id="g552">
      <ellipse
         cx="327.79999"
         cy="157.52"
         fill="#000000"
         rx="157.96001"
         ry="157.52"
         id="ellipse514" />
      <ellipse
         cx="327.79999"
         cy="157.52"
         fill="#c4c3c6"
         rx="138.60001"
         ry="138.16"
         id="ellipse516" />
      <path
         fill="#ffffff"
         d="M 189.42901,166.32 C 189.27703,163.65522 189.2,160.97032 189.2,158.2674 189.2,81.55096 251.25333,19.36 327.8,19.36 c 76.54667,0 138.6,62.19096 138.6,138.9074 0,2.70292 -0.077,5.38782 -0.22901,8.0526 C 462.0094,93.351055 401.64972,35.465206 327.8,35.465206 c -73.84972,0 -134.2094,57.885849 -138.37099,130.854794 z"
         id="path518" />
      <path
         fill="#000000"
         d="m 273.52075,303.6 c -2.46052,-0.98302 -4.90763,-2.04222 -7.33858,-3.17861 -68.99701,-32.2538 -98.84809,-114.47282 -66.67426,-183.64132 32.17384,-69.168501 114.18901,-99.093776 183.18602,-66.839975 2.43095,1.136388 4.81331,2.3348 7.14607,3.59248 C 322.46421,26.614797 245.03283,56.819655 213.99257,123.55116 182.9523,190.28267 209.64334,269.16129 273.52075,303.6 Z"
         id="path520" />
      <path
         fill="#000000"
         d="m 244.47476,284.36308 c -28.76401,-46.55067 -14.44862,-171.9057 33.06608,-203.984186 48.65623,-32.849166 113.70102,-21.48861 145.28161,25.374516 6.37358,9.4579 10.89703,19.63904 13.65755,30.13629 -2.5354,-6.24052 -5.74454,-12.30334 -9.64745,-18.09495 C 395.25196,70.93163 309.79936,95.776958 312.27535,156.97934 315.93778,247.50845 263.5866,262.05288 288.60639,295.68 Z"
         id="path522" />
      <path
         fill="#ffffff"
         d="m 436.97731,132.88 c 0.66966,2.00217 1.28544,4.03504 1.8453,6.09743 15.89821,58.56483 -19.31258,118.7622 -78.64549,134.4546 -59.33292,15.6924 -120.31979,-19.06257 -136.218,-77.6274 -0.89253,-3.28785 -1.62398,-6.58084 -2.19912,-9.87082 18.34623,54.85267 77.12922,86.66975 134.3727,71.52997 56.00194,-14.81142 90.51418,-69.27104 80.84461,-124.58378 z"
         id="path524" />
      <path
         fill="#000000"
         fill-rule="nonzero"
         d="M 372.24,90.64 H 312.4 v 20.33711 h 36.5024 v 83.67257 c 0,6.68274 -4.1888,12.49336 -10.472,15.10822 l -21.0936,9.28142 6.2832,22.08068 28.5736,-12.18748 c 7.48,-2.90532 13.7632,-8.42548 17.0544,-15.39794 2.0944,-4.06788 2.992,-8.71594 2.992,-13.07428 z"
         id="path526" />
      <path
         fill="#c4c3c6"
         fill-rule="nonzero"
         d="m 360.8,95.92 h -56.32 v 19.5168 h 34.3552 v 80.29755 c 0,6.41319 -3.9424,11.98944 -9.856,14.49882 l -13.7984,5.2968 5.9136,21.19003 20.8384,-8.08563 c 7.04,-2.78813 12.9536,-8.08564 16.0512,-14.77685 1.9712,-3.9038 2.816,-8.36437 2.816,-12.54692 z"
         id="path528" />
      <path
         fill="#ffffff"
         fill-rule="nonzero"
         d="m 315.92713,218.24 -1.97129,-6.57961 14.48832,-5.18051 c 6.20928,-2.45429 10.3488,-7.90811 10.3488,-14.1805 V 113.7647 H 302.72 V 106.48 h 42.24 v 85.4065 c 0,3.38946 -0.76032,7.00422 -2.5344,10.16778 -2.78784,5.42243 -8.11008,9.71543 -14.44608,11.97487 z"
         id="path530" />
      <path
         fill="#000000"
         fill-rule="nonzero"
         d="m 295.47724,94.562992 c 38.45471,56.836688 8.78146,140.873258 -62.79669,189.005338 -33.84642,22.75972 -72.45897,34.39436 -108.47388,33.1399 C 108.9665,316.17738 95.526061,312.2959 83.844975,305.90564 75.882867,301.54988 70.477421,297.24721 64.636878,291.62435 46.405388,277.34362 33.077055,264.98389 24.651879,254.54517 15.919964,243.72641 8.8485659,229.51946 3.4376861,211.92433 -10.748788,158.33173 19.804919,92.886138 79.719449,52.597159 151.2976,4.4650846 240.57033,8.5175211 279.02504,65.35421 c 4.86276,7.18723 10.89286,20.991994 16.4522,29.208782 z"
         id="path532" />
      <path
         fill="#c4c3c6"
         d="m 75.68,277.01323 c 16.498123,9.50759 68.36411,11.62554 112.66067,-10.2386 41.09863,-20.28568 75.01378,-63.14219 84.70643,-92.02731 11.4105,-34.00447 1.02492,-79.693339 -4.0279,-92.02732 6.31338,4.990463 9.05121,14.885617 13.66142,21.6752 32.34273,47.63208 6.23506,121.3062 -58.31312,164.55576 -31.80526,21.31065 -67.00895,31.25819 -98.40923,30.16837 C 98.20448,298.15608 91.002414,291.79129 86.015874,287.00777 80.138657,281.36985 76.693366,278.03834 75.68,277.01323 Z"
         id="path534" />
      <path
         fill="#d8d8d8"
         d="M 204.89727,240.64933 C 268.75719,197.19727 294.58648,123.17819 262.58861,75.323083 230.59074,27.46798 152.88264,23.89861 89.022728,67.350672 25.16281,110.80273 -0.66648098,184.82181 31.331391,232.67692 c 31.997872,47.8551 109.705959,51.42447 173.565879,7.97241 z"
         id="path536" />
      <path
         fill="#c4c3c6"
         d="M 204.89727,240.64933 C 268.75719,197.19727 294.58648,123.17819 262.58861,75.323083 230.59074,27.46798 152.88264,23.89861 89.022728,67.350672 25.16281,110.80273 -0.66648098,184.82181 31.331391,232.67692 c 31.997872,47.8551 109.705959,51.42447 173.565879,7.97241 z"
         id="path538" />
      <path
         fill="#ffffff"
         d="m 40.48,243.86329 c 36.855884,32.31126 103.10642,30.40545 158.76363,-7.55871 63.41249,-43.25409 89.0608,-116.93592 57.28713,-164.572989 -1.75548,-2.631915 -3.64951,-5.129266 -5.67211,-7.491591 5.1355,4.502249 9.70028,9.668845 13.58617,15.494805 C 296.2185,127.37187 270.57018,201.05371 207.15769,244.30779 147.24871,285.17212 75.066083,284.25851 40.48,243.8633 Z"
         id="path540" />
      <path
         fill="#ffffff"
         d="M 236.72,74.482446 C 203.47038,48.071193 146.41223,52.748676 100.12028,88.292564 47.377995,128.78914 28.583684,194.01803 58.142005,233.98537 c 1.633078,2.20816 3.379584,4.29302 5.230896,6.25463 -4.633003,-3.68014 -8.803748,-7.9639 -12.418697,-12.85186 C 21.395882,187.4208 40.190194,122.19191 92.932474,81.69534 142.76078,43.436176 205.063,40.939452 236.72,74.482446 Z"
         id="path542" />
      <path
         fill="#000000"
         d="m 105.6,248.759 c 26.84435,-0.93997 56.32049,-12.18844 81.93138,-33.47114 50.7364,-42.16204 67.0906,-107.73802 36.52813,-146.468038 C 218.92309,62.310734 212.78838,56.974167 205.89518,52.8 220.29712,58.179947 232.47289,67.321326 240.90701,80.153372 268.04678,121.44499 246.16612,185.31557 192.0352,222.81231 164.03843,242.2058 132.898,250.74596 105.6,248.759 Z"
         id="path544" />
      <path
         fill="#000000"
         fill-rule="nonzero"
         d="m 212.08,116.06307 -4.00889,-12.1275 -53.40944,-21.21557 -12.40492,4.0425 -1.61087,9.623594 23.32745,14.631406 c -20.87956,21.63645 -36.4839,37.80645 -46.81302,48.51 -10.32912,10.70355 -10.32912,10.70355 0,0 -6.20761,8.085 -11.98401,12.1275 -17.329199,12.1275 -5.345185,0 -10.69037,-0.90593 -16.035555,-2.71778 -4.86231,4.96092 17.618954,17.33309 10.486742,14.30922 L 78.182975,175.54062 67.76,183.7825 v 12.35803 l 23.98527,12.29129 c 8.235371,3.945 17.48448,4.80658 25.41504,2.01496 4.79458,-1.53255 9.03965,-4.48638 12.3178,-7.91787 z"
         id="path546" />
      <path
         fill="#c4c3c6"
         fill-rule="nonzero"
         d="M 208.56,103.74307 151.14167,70.4 l -14.01579,13.666094 34.24385,21.770406 -60.8795,62.11419 c -4.86231,4.96092 -12.595725,5.99962 -19.727932,2.97575 L 74.662975,163.22062 64.24,183.82053 88.22527,196.11182 c 8.23537,3.945 17.48448,4.80658 25.41504,2.01496 4.79457,-1.53255 9.03965,-4.48638 12.3178,-7.91787 z"
         id="path548" />
      <path
         fill="#ffffff"
         fill-rule="nonzero"
         d="m 70.4,187.85016 1.539759,-3.03976 21.592871,10.32369 c 9.56592,4.05116 19.9382,2.65959 26.45967,-3.98669 L 201.64562,107.93143 155.71679,78.765066 158.88435,75.68 211.2,105.79064 128.10899,191.99751 c -3.29756,3.42122 -7.56777,6.3662 -12.39074,7.89417 -7.97751,2.78325 -17.281397,1.92425 -25.565532,-2.00893 z"
         id="path550" />
    </g>
  </g>
</svg>
