<svg width="17" height="16" viewBox="0 0 17 16" fill="none" xmlns="http://www.w3.org/2000/svg">
<g id="Twitter">
<path id="Vector" d="M15.1666 3.94982C14.6763 4.16709 14.1496 4.31389 13.5958 4.38025C14.1607 4.04201 14.5941 3.50529 14.7985 2.8664C14.27 3.17998 13.6845 3.40782 13.0615 3.52996C12.5623 2.99911 11.8518 2.66675 11.0649 2.66675C9.55462 2.66675 8.32969 3.89168 8.32969 5.40318C8.32969 5.61692 8.35435 5.8248 8.40015 6.02563C6.12586 5.91112 4.11112 4.82183 2.7617 3.16706C2.52682 3.57224 2.39176 4.04201 2.39176 4.54232C2.39176 5.49126 2.87503 6.32922 3.60847 6.81954C3.15983 6.80486 2.73821 6.68213 2.36944 6.4772V6.51243C2.36944 7.83778 3.31192 8.9435 4.56387 9.19483C4.33368 9.25708 4.09233 9.28996 3.84335 9.28996C3.66719 9.28996 3.49514 9.27352 3.32837 9.24181C3.67658 10.3282 4.6866 11.1197 5.88393 11.1409C4.94732 11.8749 3.7676 12.3124 2.4863 12.3124C2.2655 12.3124 2.04765 12.2994 1.83331 12.2742C3.04415 13.0511 4.48166 13.5032 6.02604 13.5032C11.0585 13.5032 13.8096 9.33518 13.8096 5.72027C13.8096 5.60283 13.8067 5.48421 13.8014 5.36677C14.3357 4.98038 14.7996 4.49945 15.1655 3.95158L15.1666 3.94982Z" fill="#1DA1F2"/>
</g>
</svg>
