<svg xmlns="http://www.w3.org/2000/svg" width="41" height="40" viewBox="0 0 41 40" fill="none">
<path d="M36.4049 11.6575C36.4293 12.0192 36.4293 12.3808 36.4293 12.7458C36.4293 23.8666 28.1742 36.6923 13.0793 36.6923V36.6856C8.62025 36.6923 4.25381 35.3824 0.5 32.9126C1.14839 32.9926 1.80002 33.0326 2.45328 33.0342C6.14859 33.0376 9.73827 31.766 12.6454 29.4245C9.13376 29.3562 6.05434 27.008 4.97857 23.58C6.20871 23.8233 7.47623 23.7733 8.68363 23.435C4.85507 22.6417 2.10065 19.192 2.10065 15.1856C2.10065 15.1489 2.10065 15.1139 2.10065 15.0789C3.24142 15.7305 4.51869 16.0922 5.82521 16.1322C2.21928 13.6607 1.10776 8.74107 3.28529 4.8947C7.45186 10.1526 13.5993 13.3491 20.1986 13.6874C19.5372 10.7643 20.4407 7.70115 22.5727 5.64631C25.878 2.45988 31.0765 2.6232 34.1835 6.01128C36.0214 5.63964 37.783 4.94803 39.395 3.9681C38.7823 5.91629 37.5002 7.57116 35.7874 8.62275C37.4141 8.4261 39.0034 7.97946 40.5 7.29785C39.3982 8.99106 38.0105 10.4659 36.4049 11.6575Z" fill="#1D9BF0"/>
</svg>
