<svg width="24" height="24" viewBox="0 0 24 24" fill="none" xmlns="http://www.w3.org/2000/svg">
<mask id="mask0_3547_891" style="mask-type:alpha" maskUnits="userSpaceOnUse" x="0" y="0" width="24" height="24">
<circle cx="12" cy="12" r="12" fill="#C4C4C4"/>
</mask>
<g mask="url(#mask0_3547_891)">
<path d="M26.6667 0L-2.66667 0C-3.02029 0 -3.35943 0.140476 -3.60948 0.390524C-3.85952 0.640573 -4 0.979711 -4 1.33333L-4 22.6667C-4 23.0203 -3.85952 23.3594 -3.60948 23.6095C-3.35943 23.8595 -3.02029 24 -2.66667 24L26.6667 24C27.0203 24 27.3594 23.8595 27.6095 23.6095C27.8595 23.3594 28 23.0203 28 22.6667L28 1.33333C28 0.979711 27.8595 0.640573 27.6095 0.390524C27.3594 0.140476 27.0203 0 26.6667 0Z" fill="#002781"/>
<path d="M28 1.33333C28 0.979711 27.8595 0.640573 27.6095 0.390524C27.3594 0.140476 27.0203 0 26.6667 0L23.226 0L14.6667 6.584V0L9.33333 0L9.33333 6.584L0.774 0L-2.66667 0C-3.02029 0 -3.35943 0.140476 -3.60948 0.390524C-3.85952 0.640573 -4 0.979711 -4 1.33333L-4 3.05733L4.15933 9.33333L-4 9.33333L-4 14.6667L4.15933 14.6667L-4 20.9433L-4 22.6667C-4 23.0203 -3.85952 23.3594 -3.60948 23.6095C-3.35943 23.8595 -3.02029 24 -2.66667 24H0.774L9.33333 17.416V24H14.6667V17.416L23.226 24H26.6667C27.0203 24 27.3594 23.8595 27.6095 23.6095C27.8595 23.3594 28 23.0203 28 22.6667L28 20.9433L19.8407 14.6667L28 14.6667V9.33333L19.8407 9.33333L28 3.05733V1.33333Z" fill="#E6E6E6"/>
<path d="M28 10.6667L13.3333 10.6667V0L10.6667 0L10.6667 10.6667L-4 10.6667L-4 13.3333L10.6667 13.3333L10.6667 24H13.3333V13.3333L28 13.3333V10.6667Z" fill="#D10D24"/>
<path d="M9.33335 14.4819L-2.94531 23.9699C-2.8537 23.9895 -2.76032 23.9995 -2.66665 23.9999H-1.07598L9.33335 15.9566V14.4819Z" fill="#D10D24"/>
<path d="M14.6666 9.518L26.9453 0.0300001C26.8537 0.0105136 26.7603 0.000461075 26.6666 0L25.076 0L14.6666 8.044V9.518Z" fill="#D10D24"/>
<path d="M8.004 9.33318L-3.59 0.374512C-3.71958 0.498308 -3.82271 0.647085 -3.89318 0.811856C-3.96365 0.976626 -3.99999 1.15397 -4 1.33318L-4 1.53318L6.096 9.33318H8.004Z" fill="#D10D24"/>
<path d="M15.9958 14.6665L27.5898 23.6252C27.7194 23.5014 27.8226 23.3526 27.893 23.1878C27.9635 23.0231 27.9998 22.8457 27.9999 22.6665V22.4665L17.9038 14.6665H15.9958Z" fill="#D10D24"/>
</g>
</svg>
