<svg width="144" height="144" viewBox="0 0 144 144" fill="none" xmlns="http://www.w3.org/2000/svg">
<path d="M125.02 80.9087L125.501 77.1484L143.729 73.6699L143.296 77.0541L134.43 78.6468L128.416 79.4575L128.406 79.5327L134.026 81.8054L142.207 85.5773L141.787 88.8613L125.02 80.9087Z" fill="#BBD9F6" fill-opacity="0.13"/>
<path d="M119.656 97.7494L123.943 86.9436L140.339 93.4491L136.052 104.255L133.304 103.164L136.361 95.4594L132.391 93.8843L129.688 100.697L126.94 99.6062L129.642 92.7939L125.461 91.1349L122.404 98.8399L119.656 97.7494Z" fill="#BBD9F6" fill-opacity="0.13"/>
<path d="M122.624 105.513L117.17 101.454L119.162 98.7778L133.313 109.31L128.56 115.696C126.643 118.271 123.748 118.605 121.072 116.613C119.126 115.165 118.31 113.171 119.02 110.99L111.104 109.604L113.323 106.624L120.738 108.047L122.624 105.513ZM124.874 107.188L122.309 110.634C121.539 111.668 121.639 112.719 122.673 113.489L123.606 114.183C124.64 114.952 125.655 114.731 126.424 113.697L128.99 110.251L124.874 107.188Z" fill="#BBD9F6" fill-opacity="0.13"/>
<path d="M103.897 115.528L110.015 110.356L111.745 112.402L109.969 113.903L117.898 123.283L119.674 121.782L121.404 123.828L115.285 129L113.556 126.954L115.351 125.437L107.422 116.057L105.627 117.574L103.897 115.528Z" fill="#BBD9F6" fill-opacity="0.13"/>
<path d="M99.3352 118.435L102.274 116.856L110.623 132.396L100.627 137.766L99.2273 135.162L106.285 131.37L104.263 127.608L98.1186 130.909L96.7192 128.304L102.864 125.003L99.3352 118.435Z" fill="#BBD9F6" fill-opacity="0.13"/>
<path d="M83.5174 124.711L91.2087 122.469L91.9582 125.041L89.7261 125.691L93.1626 137.483L95.3948 136.833L96.1444 139.405L88.453 141.646L87.7035 139.074L89.9599 138.417L86.5234 126.625L84.2669 127.282L83.5174 124.711Z" fill="#BBD9F6" fill-opacity="0.13"/>
<path d="M69.8973 126.078L81.4913 125.227L82.7831 142.82L71.189 143.671L70.9725 140.722L79.2396 140.115L78.9268 135.855L71.6175 136.392L71.401 133.443L78.7103 132.907L78.3809 128.42L70.1138 129.027L69.8973 126.078Z" fill="#BBD9F6" fill-opacity="0.13"/>
<path d="M68.5888 126.043L65.2838 143.37L58.9783 142.168C54.4602 141.306 52.06 137.838 53.1586 132.078C54.2571 126.319 57.7652 123.978 62.2833 124.84L68.5888 126.043ZM64.758 128.322L61.7293 127.744C59.2965 127.28 57.4579 128.422 56.8945 131.376L56.3736 134.107C55.8101 137.061 57.0995 138.799 59.5323 139.263L62.5609 139.841L64.758 128.322Z" fill="#BBD9F6" fill-opacity="0.13"/>
<path d="M42.2328 116.597L45.4385 118.62L40.8965 136.613L38.0113 134.792L40.3105 126.082L42.1147 120.288L42.0506 120.247L37.6177 124.383L30.7449 130.206L27.9451 128.439L42.2328 116.597Z" fill="#BBD9F6" fill-opacity="0.13"/>
<path d="M29.2044 104.633L37.213 113.06L24.4264 125.212L16.4178 116.786L18.5611 114.749L24.2716 120.757L27.3675 117.815L22.3186 112.502L24.4619 110.465L29.5108 115.778L32.7716 112.679L27.0611 106.67L29.2044 104.633Z" fill="#BBD9F6" fill-opacity="0.13"/>
<path d="M20.9509 104.147L26.9156 100.885L28.5161 103.812L13.0389 112.275L9.21949 105.291C7.6796 102.475 8.58431 99.7045 11.5112 98.1039C13.6399 96.9399 15.7921 97.0304 17.4779 98.5857L22.0413 91.9714L23.8237 95.2309L19.4353 101.375L20.9509 104.147ZM18.4896 105.493L16.4283 101.723C15.81 100.592 14.8132 100.244 13.6824 100.863L12.6624 101.421C11.5315 102.039 11.3087 103.054 11.9271 104.185L13.9884 107.954L18.4896 105.493Z" fill="#BBD9F6" fill-opacity="0.13"/>
<path d="M19.7041 82.9754L21.8289 90.6998L19.2459 91.4103L18.6293 89.1685L6.78678 92.426L7.40343 94.6678L4.82049 95.3783L2.69574 87.6539L5.27867 86.9434L5.90202 89.2095L17.7445 85.952L17.1212 83.6859L19.7041 82.9754Z" fill="#BBD9F6" fill-opacity="0.13"/>
<path d="M18.9889 77.6247L19.1819 80.9551L1.57134 81.9754L0.91496 70.6472L3.86687 70.4761L4.33028 78.474L8.59415 78.227L8.19068 71.2635L11.1426 71.0925L11.5461 78.0559L18.9889 77.6247Z" fill="#BBD9F6" fill-opacity="0.13"/>
<path d="M19.9684 60.4137L18.7394 68.3301L16.0923 67.9192L16.4489 65.6216L4.312 63.7374L3.9553 66.0349L1.30815 65.6239L2.53718 57.7075L5.18434 58.1184L4.82377 60.4409L16.9607 62.3252L17.3213 60.0027L19.9684 60.4137Z" fill="#BBD9F6" fill-opacity="0.13"/>
<path d="M24.3729 47.6967L20.2481 58.5656L3.75575 52.3066L7.88059 41.4377L10.6451 42.4868L7.70388 50.2368L11.697 51.7523L14.2974 44.9001L17.0619 45.9493L14.4615 52.8014L18.6673 54.3975L21.6085 46.6475L24.3729 47.6967Z" fill="#BBD9F6" fill-opacity="0.13"/>
<path d="M24.8559 46.594L10.5529 36.2694L14.31 31.0646C17.0021 27.3351 21.1598 26.6273 25.9138 30.059C30.6678 33.4906 31.3051 37.6597 28.613 41.3892L24.8559 46.594ZM24.4109 42.1585L26.2155 39.6585C27.6651 37.6504 27.4084 35.5015 24.97 33.7413L22.7159 32.1142C20.2774 30.354 18.1571 30.787 16.7075 32.7952L14.9029 35.2952L24.4109 42.1585Z" fill="#BBD9F6" fill-opacity="0.13"/>
<path d="M44.4687 26.5857L41.293 28.6557L26.8331 17.0244L29.6913 15.1614L36.6488 20.8831L41.1631 24.9393L41.2267 24.8979L39.3164 19.1442L36.8896 10.4692L39.6631 8.66138L44.4687 26.5857Z" fill="#BBD9F6" fill-opacity="0.13"/>
<path d="M60.9271 19.69L49.9108 23.4035L44.2761 6.68753L55.2923 2.97409L56.2368 5.77604L48.3818 8.42389L49.7461 12.4712L56.6911 10.1301L57.6356 12.932L50.6906 15.2731L52.1275 19.5359L59.9826 16.8881L60.9271 19.69Z" fill="#BBD9F6" fill-opacity="0.13"/>
<path d="M64.6952 12.4187L65.1407 19.2024L61.8119 19.421L60.6558 1.81886L68.5995 1.29712C71.8022 1.08676 73.9335 3.07422 74.1522 6.403C74.3112 8.82392 73.3225 10.7377 71.2018 11.6115L75.2783 18.5365L71.5713 18.78L67.8474 12.2117L64.6952 12.4187ZM64.5113 9.61954L68.7984 9.33797C70.0845 9.25349 70.8199 8.49604 70.7354 7.20993L70.6592 6.0499C70.5747 4.76378 69.7483 4.13424 68.4621 4.21872L64.1751 4.50029L64.5113 9.61954Z" fill="#BBD9F6" fill-opacity="0.13"/>
<path d="M84.597 20.1705L76.6951 18.8505L77.1365 16.2083L79.4298 16.5913L81.4534 4.47685L79.1601 4.09377L79.6015 1.45152L87.5034 2.77147L87.062 5.41372L84.7438 5.02648L82.7201 17.141L85.0383 17.5282L84.597 20.1705Z" fill="#BBD9F6" fill-opacity="0.13"/>
<path d="M89.8361 21.7704L86.7353 20.5401L93.2409 4.14344L103.788 8.32821L102.698 11.0767L95.2512 8.12214L93.6761 12.0921L100.16 14.6645L99.0691 17.4129L92.5856 14.8405L89.8361 21.7704Z" fill="#BBD9F6" fill-opacity="0.13"/>
<path d="M104.866 29.821L98.2033 25.3727L99.6907 23.1448L101.624 24.4357L108.444 14.2207L106.51 12.9297L107.998 10.7017L114.661 15.15L113.173 17.378L111.219 16.073L104.399 26.288L106.354 27.593L104.866 29.821Z" fill="#BBD9F6" fill-opacity="0.13"/>
<path d="M114.641 39.2267L106.511 30.9173L119.12 18.5805L127.25 26.8899L125.136 28.9579L119.339 23.0329L116.286 26.0199L121.412 31.2584L119.298 33.3263L114.173 28.0878L110.957 31.2338L116.755 37.1588L114.641 39.2267Z" fill="#BBD9F6" fill-opacity="0.13"/>
<path d="M115.409 40.0671L130.76 31.3762L133.922 36.9623C136.189 40.9649 135.097 45.0387 129.995 47.9274C124.893 50.816 120.838 49.6557 118.572 45.6531L115.409 40.0671ZM119.626 41.5133L121.145 44.1964C122.365 46.3516 124.425 47.0149 127.042 45.5333L129.461 44.1636C132.078 42.682 132.57 40.5743 131.349 38.419L129.83 35.736L119.626 41.5133Z" fill="#BBD9F6" fill-opacity="0.13"/>
<path d="M125.379 66.3486L124.841 62.5962L141.483 54.3871L141.968 57.7642L133.847 61.6614L128.265 64.0451L128.276 64.1202L134.299 64.8134L143.188 66.2697L143.659 69.5468L125.379 66.3486Z" fill="#BBD9F6" fill-opacity="0.13"/>
</svg>
