<svg width="256" height="256" viewBox="0 0 256 256" fill="none" xmlns="http://www.w3.org/2000/svg">
<path fill-rule="evenodd" clip-rule="evenodd" d="M255.691 146.949C255.743 146.762 255.795 146.576 255.847 146.391C256.379 144.51 255.583 141.619 252.512 140.745C250.013 140.033 246.441 140.211 243.776 140.344C242.175 140.424 240.902 140.487 240.383 140.332C177.488 121.488 96.2037 71.4124 83.2209 60.0073C81.6502 58.6026 80.6704 57.1966 80.1338 55.4697C78.435 49.9751 75.874 44.5915 71.5463 39.5655C63.7974 30.4744 52.8337 26.9634 41.8257 30.156C34.3725 32.3641 28.5288 36.2965 23.8407 41.2576C4.8128 61.5847 -2.43401 85.9984 0.707941 113.239C1.68179 121.427 4.41712 129.411 10.4894 136.64C18.8247 146.43 31.1992 149.204 43.4913 144.354C48.9482 142.234 53.4668 139.306 57.3687 135.868C58.4818 134.89 59.8067 134.346 61.5206 134.04C65.6276 133.322 69.7692 132.715 73.942 132.205L70.5461 169.777C70.5461 169.777 57.7834 200.978 55.3736 208.87C53.7519 214.181 49.4465 224.726 49.4465 224.726C51.8426 225.382 61.6138 223.32 67.8368 221.33C67.9744 221.286 68.0659 221.436 68.223 221.694C68.6 222.311 69.3544 223.547 72.0289 224.205C75.1185 224.965 82.1125 224.596 83.0362 224.543C92.3986 224.009 100.463 221.347 102.85 220.494C106.898 219.01 106.134 210.086 106.134 210.086C106.134 210.086 149.502 190.688 183.874 208.669C184.148 209.566 184.286 210.038 184.286 210.038C184.286 210.038 184.261 209.888 184.215 209.604C184.181 209.397 184.136 209.119 184.08 208.777C187.15 210.398 190.148 212.319 193.035 214.58L187.415 222.6L187.349 222.677C187.331 222.699 187.318 222.723 187.31 222.75L187.137 222.996L187.417 223.115C188.819 225.202 202.532 231.563 209.609 216.123L204.899 140.682C214.807 142.762 225.056 145.216 235.581 148.097C239.277 149.111 242.695 150.258 246.045 151.986C253.26 155.685 254.524 151.142 255.691 146.949ZM195.585 138.816C152.136 130.521 115.977 129.396 93.0252 130.519C92.29 130.561 91.5555 130.606 90.8219 130.653C91.8253 132.288 93.329 133.632 95.7254 134.364C107.366 137.923 169.287 148.472 191.997 144.673C193.667 144.386 194.451 142.107 195.343 139.516C195.423 139.285 195.503 139.051 195.585 138.816Z" fill="black"/>
<path d="M81.8015 67.1966C81.6685 67.0908 81.5401 66.9851 81.416 66.8794C83.4056 77.4674 74.138 108.081 68.1883 115.315C76.6977 114.461 85.3929 114.079 94.2298 114.035C120.566 114.085 133.507 116.328 160.321 122.957C172.5 125.987 166.073 123.728 160.503 121.771C155.43 119.988 151.069 118.455 162.123 121.396C190.202 128.908 196.175 131.399 202.579 134.069C208.728 136.632 215.274 139.361 242.171 146.862C245.494 147.79 245.345 144.072 243.143 143.42C203.244 131.596 183.743 123.949 166.385 117.142C159.091 114.282 152.175 111.57 144.284 108.759C121.431 100.547 110.616 91.3447 96.6611 79.4716C92.1952 75.6719 87.4078 71.5986 81.8015 67.1966Z" fill="#A7AEB7"/>
<path d="M100.29 213.162C98.8263 213.808 97.3031 214.479 95.7131 215.176C92.5241 216.543 85.8673 217.355 75.7119 217.601L80.1318 134.638C86.1933 145.381 92.1316 144.286 95.4989 143.665C96.2865 143.519 96.9335 143.4 97.4084 143.464L100.29 213.162Z" fill="#A7AEB7"/>
<path d="M116.591 147.301C131.116 152.024 161.687 161.791 178.927 158.992C181.504 158.561 190.778 156.847 198.905 149.948L201.414 187.349C202.515 170.601 202.889 149.741 202.889 149.741C202.889 149.741 206.061 202.264 206.059 210.731C205.855 211.614 205.732 212.408 205.622 213.126C205.267 215.425 205.031 216.949 202.63 218.134C200.854 219.011 193.626 220.23 193.626 220.23C193.626 220.23 195.195 216.968 197.365 211.263C187.997 203.446 171.822 190.864 158.304 189.778C154.516 189.474 152.112 189.499 148.912 190.175C147.482 190.477 146.279 190.112 145.182 189.779C143.552 189.284 142.156 188.86 140.589 190.798C134.728 198.051 113.54 199.436 113.438 199.12C109.48 186.835 104.137 168.363 103.668 153.301C103.551 149.539 105.772 144.337 116.591 147.301Z" fill="#A7AEB7"/>
<path d="M62.9599 216.928C54.8434 218.994 55.3098 217.898 55.3098 217.898L73.5809 171.791C73.5809 171.791 72.7932 186.122 71.7462 190.924C70.8399 195.081 70.1341 198.597 69.5377 201.568C67.3625 212.406 66.6431 215.99 62.9599 216.928Z" fill="#A7AEB7"/>
<path d="M24.9703 131.515C30.1008 134.886 37.6608 135.159 42.0236 132.094L56.8496 115.936C56.7738 115.838 56.6984 115.741 56.6231 115.643C52.0152 116.63 47.7123 118.091 43.3988 119.557C41.6559 120.149 39.911 120.741 38.1438 121.304C37.9141 121.374 37.6843 121.444 37.4546 121.515L37.1403 121.611C36.7349 122.418 35.6663 121.93 36.8701 121.291C37.1226 121.162 37.3757 121.033 37.629 120.903L37.7917 120.82C40.7994 118.81 44.0703 117.065 47.3465 115.318C50.1344 113.83 52.9262 112.341 55.5628 110.684L40.1784 110.052C44.5041 108.836 48.874 107.946 53.3037 107.205C54.8875 106.943 55.5694 106.493 55.5006 105.097C55.4338 103.739 55.5379 102.397 55.6421 101.053C55.713 100.139 55.784 99.2246 55.8012 98.304C55.8136 97.6593 56.0429 96.9861 56.2677 96.3257C56.6638 95.1626 57.0462 94.0395 56.2067 93.1826C55.2361 92.1902 53.436 91.6266 51.6467 91.0664C50.9135 90.8368 50.1822 90.6078 49.5104 90.3501C46.3397 89.1319 43.1672 87.9173 39.9945 86.7027L39.9869 86.6998L39.9836 86.6985L39.9693 86.6931C37.0777 85.5861 34.186 84.479 31.2953 83.369L31.4002 83.112C39.9227 85.0681 48.4438 87.0294 56.9629 88.9976C56.2262 88.3929 55.4151 87.9971 54.5677 87.6858C50.2461 86.0956 45.9259 84.5017 41.6055 82.9077L41.6004 82.9058C34.414 80.2544 27.227 77.6028 20.032 74.9679L19.7744 74.8734C17.7873 74.1447 16.8663 73.807 16.634 73.2039C16.4333 72.6829 16.7467 71.9639 17.3309 70.6236L17.4012 70.4621C17.8777 69.3682 18.4773 69.2111 19.9246 69.701C25.9643 71.7418 32.0289 73.7158 38.0998 75.666C39.8422 76.2254 41.6013 76.7348 43.5918 77.3112C44.5678 77.5938 45.5999 77.8927 46.7126 78.2213C43.5568 76.7281 40.496 75.2695 37.4931 73.8385C32.019 71.2298 26.7374 68.7129 21.4244 66.2456C19.7168 65.4501 19.6059 64.8727 20.1189 63.6856C23.7074 55.3918 27.9209 47.4318 34.1162 40.4829C34.1779 40.4138 34.2551 40.3481 34.3338 40.2812C34.6259 40.0329 34.9384 39.7672 34.5538 39.2424C33.7187 39.2885 33.2533 39.715 32.7975 40.1327C32.6689 40.2506 32.5411 40.3677 32.406 40.4754C29.4306 42.8492 26.8684 45.5254 24.6242 48.4225C14.5935 61.421 9.30432 76.2559 7.1872 92.1649C5.9915 101.177 6.10101 110.283 8.85803 119.467C10.1949 123.878 12.1057 128.153 15.8654 131.884C19.4196 135.389 23.8034 137.42 29.9034 136.868C19.0514 133.095 15.0639 126.147 12.801 118.409C11.4856 113.87 11.1732 109.306 11.2853 104.767C11.3342 102.818 11.4138 100.871 11.4934 98.9228C11.5285 98.0638 11.5636 97.2045 11.5961 96.3447C11.8558 96.3668 12.1154 96.3893 12.3756 96.4119C12.3818 96.7349 12.3884 97.0579 12.395 97.3808C12.4075 97.991 12.42 98.601 12.4301 99.2106C12.5608 107.138 13.3853 115.02 17.3827 122.74C19.1017 126.034 21.3313 129.113 24.9703 131.515Z" fill="white"/>
<path d="M54.9852 126.063C70.6758 109.431 76.8654 90.0418 74.5079 67.9041C73.6312 59.4412 71.0554 50.915 64.937 42.5798C64.8128 42.6286 64.6884 42.6772 64.5641 42.7258L64.3439 42.8119C66.7576 48.0005 68.7079 53.1843 69.6501 58.3829C72.3065 72.8302 70.7993 86.3801 66.2133 99.2683C60.9775 113.985 53.2608 127.608 37.2621 137.42C37.3723 137.55 37.482 137.679 37.5917 137.808L37.6062 137.825C44.798 134.939 50.4733 130.885 54.9852 126.063Z" fill="white"/>
<path d="M242.08 143.902C242.221 143.943 242.364 143.983 242.507 144.024C242.906 144.136 243.307 144.248 243.681 144.394C244.516 144.719 244.681 145.134 244.586 145.485C244.481 145.871 243.889 145.7 243.341 145.541C243.26 145.517 243.18 145.494 243.103 145.473C242.516 145.313 241.932 145.144 241.347 144.975C241.124 144.911 240.9 144.846 240.676 144.782C202.509 133.852 192.339 131.212 178.211 127.545L178.209 127.545L178.208 127.544C171.317 125.756 163.484 123.722 151.001 120.364C147.094 119.315 144.229 118.584 141.838 117.973C135.561 116.37 132.55 115.601 122.502 112.121C108.47 107.242 94.8868 101.632 81.8299 95.0933C80.3676 94.3572 79.7496 93.7757 80.1291 92.6518C80.4022 91.8447 80.515 90.9864 80.6349 90.0735C80.6895 89.6583 80.7455 89.2317 80.8188 88.7934C85.691 91.2992 129.661 112.261 155.271 119.307C174.639 124.644 173.265 122.521 156.659 117.067C125.702 106.878 110.06 98.2371 83.7542 81.094C82.1787 80.0527 81.5171 79.1593 81.5121 77.7442C81.5047 75.469 81.3027 73.1584 81.1004 70.8454L81.1003 70.8436C81.0167 69.8886 80.9332 68.9331 80.8633 67.9794L81.3095 67.7807C89.2606 76.0926 124.87 97.3408 164.928 115.485C192.355 127.908 223.862 138.539 242.08 143.902Z" fill="white"/>
<path d="M83.7323 121.764L83.7312 121.764C79.2953 122.193 74.8041 122.628 70.0952 122.983C66.9584 123.243 65.1603 126.458 65.1603 126.458C65.4973 126.432 65.8359 126.411 66.1746 126.389L66.1755 126.389C66.8963 126.343 67.6176 126.297 68.321 126.212C72.1627 125.774 75.756 125.335 79.1727 124.918C100.642 122.296 115.141 120.526 140.497 125.138C143.892 125.768 146.848 126.308 149.52 126.796L149.535 126.799L149.54 126.799C161.927 129.062 168.22 130.212 183.815 134.038C224.014 143.977 243.473 146.352 243.473 146.352C243.574 146.38 243.677 146.414 243.783 146.449C244.234 146.597 244.737 146.763 245.338 146.579L244.055 146.212C243.215 145.971 242.439 145.75 241.664 145.526C211.154 136.722 211.327 136.837 211.954 137.258C212.601 137.692 213.732 138.451 182.037 130.042C131.773 117.114 108.615 119.355 83.7323 121.764Z" fill="white"/>
<path d="M249.396 150.057C252.041 146.296 250.859 144.175 248.28 141.977C250.983 141.734 252.323 142.702 252.524 145.026C252.733 147.398 251.373 149.584 249.398 150.062L249.396 150.057Z" fill="white"/>
<path d="M90.7721 166.302L90.7724 166.305L90.7728 166.309C92.7093 186.064 95.174 211.207 92.679 214.62C89.8762 218.454 78.3274 216.366 78.3274 216.366L85.7276 150.903C85.7276 150.903 88.1556 139.062 90.0907 159.296C90.3029 161.516 90.5335 163.868 90.7721 166.302Z" fill="white"/>
<path d="M132.047 174.847C130.3 169.604 128.352 165.344 126.57 161.451L126.569 161.449C124.603 157.151 122.84 153.298 121.777 149.058C125.245 149.791 127.499 149.435 129.31 149.149C130.946 148.89 132.22 148.689 133.701 149.398C134.932 149.987 135.188 152.678 135.188 152.678L136.983 180.794L137.309 192.163C137.309 192.163 133.794 180.092 132.047 174.847Z" fill="white"/>
<path d="M187.847 167.982C182.156 177.287 186.934 200.701 188.86 203.353C190.786 206.005 202.334 216.233 202.334 216.233L198.039 149.466C198.039 149.466 193.537 158.678 187.847 167.982Z" fill="white"/>
<path fill-rule="evenodd" clip-rule="evenodd" d="M43.6392 36.9125C43.8636 36.9362 44.1876 36.8925 44.2971 36.9926C50.8104 42.9153 57.7499 48.4782 64.8782 53.8705C56.0713 49.6351 48.8092 44.1533 43.7112 36.9095L43.6392 36.9125Z" fill="white"/>
<path fill-rule="evenodd" clip-rule="evenodd" d="M53.6039 69.6145C45.1786 66.0181 37.3894 61.6858 29.6727 57.2547L53.6039 69.6145Z" fill="white"/>
<path fill-rule="evenodd" clip-rule="evenodd" d="M60.5668 69.9637C55.5775 67.1132 50.7798 64.3836 46.7907 60.5158C52.079 63.0917 56.224 66.458 60.5668 69.9637Z" fill="white"/>
<path fill-rule="evenodd" clip-rule="evenodd" d="M62.6636 47.8679C58.7969 44.7203 55.6946 41.1659 53.3604 37.194C53.52 37.1593 53.6791 37.1248 53.8375 37.0905" fill="white"/>
<path fill-rule="evenodd" clip-rule="evenodd" d="M57.3019 116.653C57.1091 116.751 56.9165 116.849 56.7264 116.949C56.4756 116.801 56.2234 116.652 55.9713 116.503" fill="white"/>
<path fill-rule="evenodd" clip-rule="evenodd" d="M54.2404 36.3807C53.9744 36.3853 53.7074 36.3901 53.4396 36.3946C53.1812 36.0988 52.6128 35.7215 53.4786 35.7209L53.3599 35.7158" fill="white"/>
</svg>
