<svg xmlns="http://www.w3.org/2000/svg" width="482" height="395" viewBox="0 0 482 395">
  <g fill="none" fill-rule="evenodd" transform="translate(0 -28)">
    <g transform="translate(0 28)">
      <path fill="#261EE4" d="M428.43968 234.230431L423.580696 234.230431 423.580696 239.08938 428.43968 239.08938 428.43968 243.960404 423.580696 243.960404 423.580696 248.831428 428.43968 248.831428 428.43968 253.690377 433.310749 253.690377 433.310749 258.561401 428.43968 258.561401 428.43968 253.702452 423.580696 253.702452 423.580696 258.561401 428.43968 258.561401 428.43968 263.435152 423.56861 263.435152 423.56861 258.564128 418.709626 258.564128 418.709626 253.705178 413.838557 253.705178 413.838557 258.564128 408.967488 258.564128 408.967488 253.705178 404.108504 253.705178 404.108504 258.564128 408.967488 258.564128 408.967488 263.435152 404.096029 263.435152 404.096029 258.564128 399.237434 258.564128 399.237434 263.435152 394.363636 263.435152 394.363636 258.564128 399.234706 258.564128 399.234706 253.705178 394.363636 253.705178 394.363636 248.833765 399.234706 248.833765 399.234706 243.962741 394.363636 243.962741 394.363636 239.091717 399.234706 239.091717 399.234706 234.232768 399.234706 234.220693 404.09369 234.220693 404.09369 229.361744 408.964759 229.361744 408.964759 234.220693 413.835828 234.220693 413.835828 229.361744 418.707287 229.361744 418.707287 234.220693 423.566271 234.220693 423.566271 229.361744 428.437341 229.361744 428.437341 234.220693 433.30841 234.220693 433.30841 239.091717 428.437341 239.091717 428.437341 234.230431 428.43968 234.230431zM399.234706 234.218356L399.234706 229.359017 394.363636 229.359017 394.363636 234.230431 399.234706 234.230431 399.234706 234.218356zM413.835828 258.564128L413.835828 263.435152 418.707287 263.435152 418.707287 258.564128 413.835828 258.564128zM428.43968 248.833765L428.43968 243.962741 433.310749 243.962741 433.310749 248.833765 428.43968 248.833765zM404.09369 253.693104L399.234706 253.693104 399.234706 248.833765 404.09369 248.833765 404.09369 253.693104zM404.105775 229.359017L404.105775 224.487994 408.964759 224.487994 408.964759 229.359017 413.835828 229.359017 413.835828 224.487994 418.707287 224.487994 418.707287 229.359017 423.578357 229.359017 423.578357 224.487994 428.437341 224.487994 428.437341 229.359017 433.30841 229.359017 433.30841 224.487994 428.437341 224.487994 428.437341 219.61697 423.566271 219.61697 423.566271 224.487994 418.707287 224.487994 418.707287 219.61697 413.835828 219.61697 413.835828 224.487994 408.964759 224.487994 408.964759 219.61697 404.09369 219.61697 404.09369 224.487994 399.234706 224.487994 399.234706 219.61697 394.363636 219.61697 394.363636 224.487994 399.234706 224.487994 399.234706 229.359017 404.105775 229.359017zM423.566271 239.08938L423.566271 243.960404 418.707287 243.960404 418.707287 239.08938 423.566271 239.08938zM413.835828 239.08938L413.835828 234.230431 418.707287 234.230431 418.707287 239.08938 413.835828 239.08938zM408.964759 239.08938L413.835828 239.08938 413.835828 243.960404 408.964759 243.960404 408.964759 239.08938zM408.964759 239.08938L404.105775 239.08938 404.105775 234.230431 408.964759 234.230431 408.964759 239.08938zM408.964759 248.833765L404.105775 248.833765 404.105775 243.962741 408.964759 243.962741 408.964759 248.833765zM413.835828 248.833765L413.835828 253.693104 408.964759 253.693104 408.964759 248.833765 413.835828 248.833765zM418.709626 248.833765L413.838557 248.833765 413.838557 243.962741 418.709626 243.962741 418.709626 248.833765zM418.709626 248.833765L423.56861 248.833765 423.56861 253.693104 418.709626 253.693104 418.709626 248.833765zM404.09369 243.962741L404.09369 239.091717 399.234706 239.091717 399.234706 243.962741 404.09369 243.962741zM438.181818 258.564128L433.310749 258.564128 433.310749 263.435152 438.181818 263.435152 438.181818 258.564128zM433.310749 248.833765L438.181818 248.833765 438.181818 253.705178 433.310749 253.705178 433.310749 248.833765zM438.181818 239.08938L433.310749 239.08938 433.310749 243.960404 438.181818 243.960404 438.181818 239.08938zM433.310749 229.359017L438.181818 229.359017 438.181818 234.230431 433.310749 234.230431 433.310749 229.359017zM433.310749 219.61697L438.181818 219.61697 438.181818 224.487994 433.310749 224.487994 433.310749 219.61697zM258.038022 219.61697L262.909091 219.61697 262.909091 175.798788 258.038022 175.798788 258.038022 219.61697zM253.171631 219.61697L248.3029 219.61697 248.3029 175.798788 253.171631 175.798788 253.171631 219.61697zM243.43456 219.61697L238.56583 219.61697 238.56583 175.798788 243.43456 175.798788 243.43456 219.61697zM228.828369 219.61697L233.6971 219.61697 233.6971 175.798788 228.828369 175.798788 228.828369 219.61697zM223.959639 219.61697L219.090909 219.61697 219.090909 175.798788 223.959639 175.798788 223.959639 219.61697z"/>
      <path fill="#FFF" d="M263.639394,311.686175 L263.639394,306.815152 L219.821212,306.815152 L219.821212,311.686175 L263.639394,311.686175 Z M263.639394,316.552525 L263.639394,321.421212 L219.821212,321.421212 L219.821212,316.552525 L263.639394,316.552525 Z M263.639394,326.289899 L263.639394,331.158586 L219.821212,331.158586 L219.821212,326.289899 L263.639394,326.289899 Z M263.639394,340.89596 L263.639394,336.027273 L219.821212,336.027273 L219.821212,340.89596 L263.639394,340.89596 Z M263.639394,345.764646 L263.639394,350.633333 L219.821212,350.633333 L219.821212,345.764646 L263.639394,345.764646 Z"/>
      <path fill="#261EE4" d="M219.090909 49.2152663L219.090909 44.3442424 175.272727 44.3442424 175.272727 49.2152663 219.090909 49.2152663zM219.090909 54.0816162L219.090909 58.950303 175.272727 58.950303 175.272727 54.0816162 219.090909 54.0816162zM219.090909 63.8189899L219.090909 68.6876768 175.272727 68.6876768 175.272727 63.8189899 219.090909 63.8189899zM219.090909 78.4250505L219.090909 73.5563636 175.272727 73.5563636 175.272727 78.4250505 219.090909 78.4250505zM219.090909 83.2937374L219.090909 88.1624242 175.272727 88.1624242 175.272727 83.2937374 219.090909 83.2937374zM394.363636 180.669812L394.363636 175.798788 350.545455 175.798788 350.545455 180.669812 394.363636 180.669812zM394.363636 185.536162L394.363636 190.404848 350.545455 190.404848 350.545455 185.536162 394.363636 185.536162zM394.363636 195.273535L394.363636 200.142222 350.545455 200.142222 350.545455 195.273535 394.363636 195.273535zM394.363636 209.879596L394.363636 205.010909 350.545455 205.010909 350.545455 209.879596 394.363636 209.879596zM394.363636 214.748283L394.363636 219.61697 350.545455 219.61697 350.545455 214.748283 394.363636 214.748283z"/>
      <path fill="#261EE4" d="M443.050548,131.980606 L438.181818,131.980606 C438.181818,107.780895 457.800201,88.1624242 482,88.1624242 L482,93.0311111 C460.487768,93.0311111 443.050548,110.468411 443.050548,131.980606 Z M452.788009,131.980606 L447.919279,131.980606 C447.919279,113.158263 463.177674,97.899798 482,97.899798 L482,102.768485 C465.86758,102.768485 452.788009,115.848115 452.788009,131.980606 Z M457.656739,131.980606 L462.525469,131.980606 C462.525469,121.225482 471.245053,112.505859 482,112.505859 L482,107.637172 C468.555147,107.637172 457.656739,118.53563 457.656739,131.980606 Z M472.26254,131.980606 L467.394199,131.980606 C467.394199,123.912997 473.932621,117.374545 482,117.374545 L482,122.243232 C476.622527,122.243232 472.26254,126.603239 472.26254,131.980606 Z M482,131.980606 L477.13127,131.980606 C477.13127,129.290754 479.310094,127.111919 482,127.111919 L482,131.980606 Z" transform="rotate(90 460.09 110.072)"/>
      <path fill="#261EE4" fill-rule="nonzero" d="M43.8181818,219.61697 L87.6363636,219.61697 L87.6363636,175.798788 C63.4365642,175.798788 43.8181818,195.417259 43.8181818,219.61697 Z"/>
      <path fill="#261EE4" fill-rule="nonzero" d="M307.165455,394.889697 L350.983636,394.889697 L350.983636,351.071515 C326.783837,351.071515 307.165455,370.689986 307.165455,394.889697 Z" transform="rotate(-180 329.075 372.98)"/>
      <path fill="#261EE4" d="M4.87106923 307.253333L0 307.253333 0 263.435152 4.87106923 263.435152 4.87106923 307.253333zM19.4795988 307.253333L24.3506681 307.253333 24.3506681 263.435152 19.4795988 263.435152 19.4795988 307.253333zM34.0881284 307.253333L29.2170592 307.253333 29.2170592 263.435152 34.0881284 263.435152 34.0881284 307.253333zM43.8181818 307.253333L38.9471126 307.253333 38.9471126 263.435152 43.8181818 263.435152 43.8181818 307.253333zM9.74213847 307.253333L14.6132077 307.253333 14.6132077 263.435152 9.74213847 263.435152 9.74213847 307.253333zM355.854706 44.3442424L350.983636 44.3442424 350.983636.526060606 355.854706.526060606 355.854706 44.3442424zM370.463235 44.3442424L375.334304 44.3442424 375.334304.526060606 370.463235.526060606 370.463235 44.3442424zM385.071765 44.3442424L380.200696 44.3442424 380.200696.526060606 385.071765.526060606 385.071765 44.3442424zM394.801818 44.3442424L389.930749 44.3442424 389.930749.526060606 394.801818.526060606 394.801818 44.3442424zM360.725775 44.3442424L365.596844 44.3442424 365.596844.526060606 360.725775.526060606 360.725775 44.3442424z"/>
    </g>
    <g transform="rotate(36 93.203 291.413)">
      <g transform="rotate(-19 452.522 -253.113)">
        <path fill="#4038FF" d="M3.54285928,27.3930175 C8.07651615,23.8228241 11.6854525,22.3105095 14.3900783,22.8560737 C20.9758484,24.1824803 20.5791727,38.5902761 31.693936,38.5902761 C45.7383705,38.5902761 117.620277,29.3414902 141.397379,17.4880231 C144.48699,15.9305639 142.409677,8.41702892 144.387809,3.38326003 C144.9371,1.97722159 147.189763,0.969011864 151.143843,0.358630847 L184.933103,90.3847184 C182.100797,111.541863 161.856232,106.815009 162.582822,105.125971 C167.458797,93.7912412 165.485858,100.843623 166.181085,94.2953461 C134.037886,81.8811057 101.551765,89.9926072 68.7227233,118.629851 C71.2921109,125.022689 71.25453,129.220172 68.6099805,131.222299 C66.2645987,132.96808 58.2639868,138.625796 48.1139907,142.373951 C47.1124897,142.743782 39.5199055,145.510388 35.8545365,145.714042 C31.359352,145.963802 30.7248346,143.633046 30.2590552,143.955962 C24.0639565,148.250911 13.9779789,153.822166 11.1129736,153.907018 C11.9085159,145.181781 12.3055098,138.683346 12.3039553,134.411711 C12.3016454,128.064331 13.4861387,111.979868 15.8574352,86.1583228 L3.54285928,27.3930175 Z"/>
        <path fill="#B7CEFF" d="M59.0810029 45.8270282C76.700971 46.1378334 113.728288 46.602213 131.806017 37.6972373 134.503887 36.3534323 144.158573 31.3325847 150.799075 20.9786722L178.091553 92.6844579C169.487147 89.219284 138.924778 74.336248 119.436319 78.6242044 115.154709 79.5662673 112.509362 80.4046835 109.20757 82.2296539 105.537475 84.2581938 102.031997 81.2623653 100.234177 85.7246645 96.2130073 95.705449 73.3018606 104.381303 73.0830603 104.067173 64.5715369 91.8472305 52.4452086 73.2676737 46.8462688 56.8063092 45.447859 52.694864 46.1440474 46.2052721 59.0810029 45.8270282zM63.3121841 123.996019C61.9153497 125.202611 60.4608984 126.456611 58.941801 127.762436 55.8841707 130.346603 48.8128775 133.487496 37.6906212 137.185115L14.5804768 44.1528574C27.304996 56.2565292 33.7422268 48.5354232 36.6209483 48.0639657L63.3121841 123.996019z"/>
        <path fill="#4038FF" d="M88.6649979,47.9653418 L91.8487109,42.594271 C89.3556247,67.4936606 90.1239046,80.2462952 94.1535506,80.852175 C98.1831966,81.4580547 94.1099144,82.4379355 81.933704,83.7918175 L88.6649979,47.9653418 Z" transform="scale(1 -1) rotate(8 992.498 0)"/>
        <path fill="#FFF" d="M92.2062746,57.5750755 C91.8376595,70.9871133 94.1578911,80.0290179 93.1641661,89.5895632 C86.5602928,85.4724955 83.1640634,87.3673248 80.370287,84.5153707 C79.6357669,83.7655549 79.5298016,82.384373 80.0523911,80.3718251 L89.2013554,49.179378 L93.3347666,36.7241204 C92.6992538,46.3744455 92.3230898,53.3247638 92.2062746,57.5750755 Z" transform="rotate(143 86.57 63.157)"/>
        <path fill="#4038FF" d="M150.810514,33.1717222 C142.232772,59.0738793 137.39718,74.8888595 136.303736,80.6166628 C134.616315,89.4559123 140.415034,93.05904 142.178049,93.9997345 C145.566693,95.8078181 135.841309,95.4801974 113.001899,93.0168722 C112.79892,89.4634481 114.049959,87.7658804 116.755015,87.9241693 C125.052593,88.4097098 125.672548,78.9082703 131.498226,68.9864166 C139.722463,54.97952 146.159892,43.0412886 150.810514,33.1717222 Z" transform="scale(1 -1) rotate(8 1049.423 0)"/>
        <path fill="#FFF" d="M48.9648579,71.8966608 C45.0790493,95.0254045 39.5968633,130.891681 35.3283322,134.327402 C32.4826448,136.617883 26.9772097,135.838109 18.812027,131.988079 L46.608683,61.2396701 C50.7700053,52.9251681 51.5553969,56.4774983 48.9648579,71.8966608 Z" transform="rotate(-32 34.634 96.24)"/>
        <path fill="#B7CEFF" d="M27.6032677,144.825714 C27.6360083,145.741517 25.0229442,144.33864 19.7640753,140.617083 C15.2030505,137.389371 17.6013376,131.524365 21.0517768,108.974021 C21.6235725,105.237051 23.6019399,98.1142532 26.9868791,87.6056291 L27.6032677,144.825714 Z" transform="scale(-1 1) rotate(-4 0 758.608)"/>
        <path fill="#FFF" d="M174.306898,43.8323415 C178.080479,55.8371588 166.196222,80.7167597 163.299356,83.1482326 C161.368112,84.7692145 155.141307,88.3221047 144.618939,93.8069032 L168.06483,20.2578757 C169.710488,27.9709747 171.791178,35.8291299 174.306898,43.8323415 Z" transform="scale(-1 1) rotate(3 0 -6046.604)"/>
        <path fill="#B7CEFF" d="M171.417959,100.165282 C166.139403,98.1834618 162.894046,96.7314688 161.68189,95.8093034 C158.454299,93.3538674 159.581751,91.0583158 159.427899,86.6692164 C160.669366,80.2758759 166.341831,57.4825336 176.445294,18.2891894 C169.989286,55.0072107 167.265008,76.7934428 168.27246,83.6478858 C169.279912,90.5023287 170.328411,96.0081276 171.417959,100.165282 Z" transform="scale(-1 1) rotate(6 0 -3144.522)"/>
        <path fill="#4038FF" d="M173.571773,84.951812 L165.680666,106.659083 L161.657693,104.158519 C163.233846,100.11586 164.586114,97.0626279 165.714497,94.9988219 C166.84288,92.9350159 169.461972,89.5860126 173.571773,84.951812 Z" transform="scale(-1 1) rotate(-38 0 582.594)"/>
      </g>
      <g transform="rotate(-20 294.704 49.937)">
        <path fill="#4038FF" d="M302.217336,65.8697802 C302.238649,71.0604144 302.711943,77.0810305 293.124388,75.1930602 C288.859234,74.3414183 284.703873,74.1565748 280.281779,74.2076991 C207.220023,75.0865591 149.047853,88.9955063 116.581272,100.048531 C104.927661,104.128839 93.6118274,108.699795 82.7590637,113.973637 C80.9552213,114.857406 79.6590122,115.883064 78.7354552,117.321512 C75.5010681,122.375274 71.4206254,127.059652 66.0426818,131.14707 C53.9518351,140.435433 39.3447799,141.293875 26.9865537,133.086787 C17.952487,126.999771 12.3794986,119.014435 8.69560401,110.243686 C-3.45272284,81.0295493 -3.1795308,51.647348 11.4598166,23.0507925 C15.0817101,16.0574226 20.3124012,9.83742056 27.8765269,5.01800179 C39.0702962,-2.0237688 52.3469126,-1.6165964 63.8326034,6.00209027 C70.2309806,10.20014 74.7835354,15.3566398 78.4151166,20.9104899 C79.5595522,22.6551909 81.0934319,23.9030027 83.2821974,24.9614035 C101.308741,33.4820641 207.387297,63.1700538 283.138993,64.068103 C284.803046,64.0870309 291.925493,60.676965 296.72183,60.6682502 C300.406624,60.661555 302.208076,63.6146069 302.217336,65.8697802 Z"/>
        <path fill="#B7CEFF" d="M83.465948,33.1577294 C83.6372413,33.2355127 83.8133279,33.3118652 83.9943932,33.3869712 C115.416695,46.1705395 129.606747,57.1835754 166.512501,59.6127066 C199.114977,61.6673349 218.993169,66.0112983 287.182278,66.6156651 C289.830986,66.6381555 291.178966,70.7142384 287.198346,70.7418773 C221.430631,71.222258 256.048101,66.7838122 190.317012,67.9549857 C162.634062,68.4880269 216.465664,69.2802533 188.815271,70.2592208 C156.966828,71.4346308 141.900389,73.0628807 112.675073,81.3836377 C102.887849,84.2424132 93.3652955,87.4313409 84.1990087,91.0846111 C88.4972441,81.1691164 89.040026,44.2682585 83.465948,33.1577294 Z"/>
        <path fill="#FEFEFE" d="M286.156021 67.487342C286.8012 67.491758 287.461909 67.4665122 288.087674 67.5241261 289.117241 67.6188558 289.433036 68.0267468 289.440465 68.4465461 289.446625 68.9763303 288.508301 68.8952417 287.789999 68.9047758 286.819966 68.917806 285.849286 68.9100152 284.878607 68.9101892 216.725897 68.9341963 223.144721 69.6009699 177.653498 70.3471045 160.73067 70.6369182 160.340725 71.1856373 143.423073 70.2691035 126.308697 69.3203788 109.458994 67.417675 92.8979053 64.3182766 91.0419659 63.9668461 90.1715898 63.5184072 90.2350076 62.1511834 90.302308 60.7224545 89.9586874 59.2818438 89.7729641 57.6525068 95.9736654 58.8821888 151.408263 68.1468623 182.053265 67.8166937 205.232447 67.5772575 203.032645 65.6592672 182.880284 64.8917607 145.305276 63.4356367 125.208594 58.8267982 90.5799224 48.1794883 88.5013738 47.5255217 87.4834544 46.7450393 87.0278821 45.1771476 85.9937848 41.6144583 84.5060565 38.0971391 83.2027573 34.5532963 83.347065 34.4323615 83.4907256 34.3114351 83.6343862 34.1909681 95.0965719 40.8810634 141.348836 53.1228197 191.547791 60.5066987 225.91855 65.5623722 264.244543 67.3338463 286.156021 67.487342zM60.5158116 118.016299C56.6515023 122.802437 48.1797227 124.903798 41.4176615 122.797556 36.6175198 121.290252 33.1654376 118.5847 30.2113565 115.478167 23.3225547 108.186934 19.9011976 99.7066767 17.2351634 90.9561295 16.9215123 89.9271277 16.6014602 88.8987686 16.2846086 87.8694648 15.9888804 87.9270559 15.6937924 87.9846597 15.3987043 88.0427709 16.1745107 91.1929394 16.9176717 94.3458753 17.7325244 97.4828553 19.0517792 102.552756 20.849832 107.515456 23.7520647 112.130849 28.7231142 119.994453 35.3552342 126.431773 48.5913097 127.16544 42.0014365 129.717983 36.4933396 128.859656 31.4365161 126.102138 26.0801238 123.160211 22.6011572 119.026058 19.7155673 114.558887 13.7369937 105.249922 10.7195423 95.1852168 9.17945154 84.8091191 6.46796998 66.4908709 7.61631698 48.3551679 14.6075355 30.7482488 16.1751508 26.8213516 18.165875 23.0382838 20.7109294 19.4592304 21.236455 18.7210011 21.5321832 17.8146756 22.7010135 17.4085892 23.4544162 17.9922763 22.8290343 18.4699306 22.6101187 18.9236125 17.9488796 28.6010663 15.8070908 38.7695712 14.4647922 49.1096137 14.2734011 50.589391 14.580011 51.1945184 16.7269206 51.5337952 27.0671645 53.1547927 37.361961 54.9317892 48.5829883 56.7737101 44.5144858 56.7413275 41.3632526 56.7775826 38.2177804 56.6787256 30.8642629 56.4464597 23.5101053 56.1858934 16.1623487 55.8431423 14.4014219 55.7601214 13.7862817 56.1251123 13.6057724 57.4898804 13.0911285 61.3841837 13.014316 61.291099 17.9565609 61.6505589 32.0779005 62.6661997 46.1902787 63.7358022 60.3052173 64.7727383 61.3441065 64.8484901 62.3695534 65.0295193 63.3789978 65.4658325 53.3043972 65.9923119 43.2297966 66.5269526 33.1551959 67.0678464 33.1436741 67.1742949 33.1321522 67.2797814 33.1206303 67.386233 40.5951275 68.0410039 48.0709049 68.680001 55.5434818 69.3361239 58.3887452 69.5844246 61.9086784 69.2314214 63.871238 70.3480431 65.7582653 71.4194661 64.522224 74.1719376 65.05031 76.1572304 65.7262601 78.6925888 66.0271091 81.2918808 66.8771675 83.7867759 67.3975722 85.3134541 66.7843524 86.0293555 65.1111199 86.8237023 60.4338782 89.054828 55.869935 91.4310018 51.4589767 94.1550661L68.7232281 89.9643423C63.508939 95.7853478 57.2275961 100.959185 52.2367033 106.858095 51.9454559 107.129858 51.6542085 107.401245 51.3642412 107.673176 51.1178011 107.910776 50.7798261 108.137435 51.141485 108.456348 50.9788985 108.457172 50.816312 108.458471 50.6537255 108.459293 50.6985328 108.558648 50.7439802 108.657506 50.7887875 108.75685 50.8892839 108.639485 50.9904204 108.522119 51.0909167 108.40526 51.5044241 108.403747 51.7105376 108.234264 51.7655866 107.942041 52.1035616 107.722221 52.4421768 107.501526 52.7807919 107.281875 58.9705999 103.162386 64.7411397 98.7211625 71.4763165 95.1268105 71.5908951 95.2112991 71.7054738 95.2953048 71.8206925 95.3797563"/>
        <path fill="#FEFEFE" d="M88.7525868 98.9829399C122.526648 86.4824616 144.620962 73.15186 215.153935 71.210778 289.60472 69.7294184 211.728538 69.2951429 286.21107 69.4213065 287.596915 69.4232664 288.982112 69.4210558 290.620636 69.4207177 289.869727 69.9083895 289.113635 69.7573743 288.480643 69.76155 273.589187 72.1318295 250.227729 73.904026 218.39627 75.0781396 195.881308 75.9482453 189.885318 76.8345171 167.521964 78.9829871 133.222461 82.4009918 117.831361 90.6911032 87.8118448 103.12892 86.7045941 103.5969 85.5286667 103.982246 84.384486 104.406675 85.0323799 101.648354 86.4884135 99.8404424 88.7525868 98.9829399zM76.129984 36.4908876C85.7852348 60.294439 85.0866792 83.7679382 72.9734981 107.204511 69.5026955 113.987195 64.497601 120.288819 57.4387929 125.776641 57.2689819 125.663719 57.099171 125.550771 56.9286941 125.437822 71.5524135 109.46703 75.7783754 91.9027167 76.905121 73.9154104 77.8926882 58.1623859 75.2549581 42.6547053 67.7140201 27.4758271 65.0156908 22.009645 61.2039345 16.8804971 56.8767519 11.8933812 57.0712021 11.7447883 57.2663182 11.5962578 57.4607684 11.4472693 66.8975957 18.746131 72.466063 27.383487 76.129984 36.4908876zM296.227543 71.9878591C297.965488 66.9750604 295.980219 64.9982875 292.420722 63.3812685 295.340609 62.2523569 297.134822 62.8998701 298.097733 65.413036 299.083215 67.9767416 298.270351 70.8345021 296.23104 71.9923826L296.227543 71.9878591z"/>
        <path fill="#FEFEFE" d="M32.0367821 11.9351185C32.2931644 11.8900785 32.6386125 11.7386425 32.7919329 11.8147974 41.8995484 16.3123173 51.3653357 20.2752467 60.9863519 23.9888657 49.8715748 22.0921237 40.0736992 18.3218356 32.1156689 11.9088943L32.0367821 11.9351185zM53.4891589 45.0364695C43.0007507 43.7271723 32.9837598 41.3993505 23.0159275 38.938903M61.3227204 43.2090348C54.8825218 41.6342953 48.6932186 40.1327184 43.0387815 37.1114683 49.7232362 38.2866337 55.3911348 40.7019571 61.3227204 43.2090348zM56.6211188 18.0354371C51.3314397 15.7741033 46.7602537 12.8184772 42.9081646 9.15559896 43.074203 9.06628913 43.2396375 8.977452 43.4044683 8.88908731M83.656333 105.04376L83.6277015 104.805062C83.7791303 104.804671 83.9299228 104.804816 84.0813516 104.805464 84.0813516 104.805984 84.0317236 104.743293 84.0317236 104.743293M72.55049 96.0316435C72.3677968 96.2014656 72.1851035 96.3708279 72.0060642 96.542078 71.6808702 96.4577963 71.3538493 96.3730386 71.0268284 96.2877938M43.6255371 7.97380815C43.3320169 8.06351001 43.0374215 8.15369145 42.7417509 8.24386995 42.3611422 7.99796683 41.6106765 7.76026186 42.5707996 7.48429465 42.5707996 7.48429465 42.437479 7.51641444 42.437479 7.51641444"/>
        <path fill="#4A4A4A" d="M51.2857114,108.450795 C51.1563893,108.30846 51.0119338,108.181998 50.8530327,108.072057 C51.1660197,107.689585 51.4790066,107.308594 51.7919935,106.926403 C51.9866645,107.125564 52.1820233,107.323316 52.3766943,107.52238"/>
        <path fill="#4A4A4A" d="M51.1612053 108.450795C50.456845 107.829504 51.115079 107.389521 51.5950414 106.926403 51.8805255 107.077612 52.1423231 107.252535 52.3766943 107.449413 52.269482 108.01786 51.8680589 108.347547 51.0627195 108.35049L51.1612053 108.450795zM49.6364306 109.364496C49.5988225 109.264263 49.5606771 109.164521 49.5230689 109.064276 49.6595328 109.063447 49.7959966 109.062136 49.9324605 109.060825 49.9324605 109.061305 49.890017 109.00928 49.890017 109.00928"/>
      </g>
    </g>
  </g>
</svg>
