<svg xmlns="http://www.w3.org/2000/svg" width="177" height="177" viewBox="0 0 177 177">
  <g fill="#4038FF" fill-rule="evenodd" transform="rotate(-90 88.5 88.5)">
    <path d="M157.333158,0 L177,0 C177,97.7527733 97.7531317,177 -2.27373675e-13,177 L-2.27373675e-13,157.333333 C86.8969217,157.333333 157.333158,86.8967733 157.333158,0 Z" opacity=".1"/>
    <path d="M117.801456,0 L137.435294,0 C137.435294,75.9035496 75.9036727,137.435294 -2.27373675e-13,137.435294 L-2.27373675e-13,117.801681 C65.0562483,117.801681 117.801456,65.0563708 117.801456,0 Z" opacity=".3"/>
    <path d="M98.3911765,0 L78.7129412,0 C78.7129412,43.4684346 43.4689051,78.7129412 -2.27373675e-13,78.7129412 L-2.27373675e-13,98.3911765 C54.3408583,98.3911765 98.3911765,54.3418403 98.3911765,0 Z" opacity=".5"/>
    <path d="M39.2176471,0 L58.8264706,0 C58.8264706,32.4910362 32.491392,58.8264706 -2.27373675e-13,58.8264706 L-2.27373675e-13,39.2176471 C21.6577878,39.2176471 39.2176471,21.6575534 39.2176471,0 Z" opacity=".8"/>
    <path d="M-2.27373675e-13,0 L19.7823529,0 C19.7823529,10.9293544 10.9294768,19.7823529 -2.27373675e-13,19.7823529 L-2.27373675e-13,0 Z"/>
  </g>
</svg>
