<svg width="156" height="48" viewBox="0 0 156 48" fill="none" xmlns="http://www.w3.org/2000/svg">
<rect x="108" width="48" height="48" rx="24" fill="#F2F5F9"/>
<path d="M121.42 29.3693V21.3239H123.455V29.3693H121.42ZM118.415 26.3636V24.3295H126.46V26.3636H118.415ZM128.81 30L133.634 20.4545V20.375H128.014V18.3636H136.179V20.4034L131.349 30H128.81ZM142.178 30.2557C141.2 30.2519 140.359 30.0114 139.655 29.5341C138.954 29.0568 138.414 28.3655 138.036 27.4602C137.661 26.5549 137.475 25.4659 137.479 24.1932C137.479 22.9242 137.666 21.8428 138.041 20.9489C138.42 20.0549 138.96 19.375 139.661 18.9091C140.365 18.4394 141.204 18.2045 142.178 18.2045C143.151 18.2045 143.988 18.4394 144.689 18.9091C145.393 19.3788 145.935 20.0606 146.314 20.9545C146.693 21.8447 146.88 22.9242 146.876 24.1932C146.876 25.4697 146.687 26.5606 146.308 27.4659C145.933 28.3712 145.395 29.0625 144.695 29.5398C143.994 30.017 143.155 30.2557 142.178 30.2557ZM142.178 28.2159C142.844 28.2159 143.376 27.8807 143.774 27.2102C144.172 26.5398 144.369 25.5341 144.365 24.1932C144.365 23.3106 144.274 22.5758 144.092 21.9886C143.914 21.4015 143.661 20.9602 143.331 20.6648C143.005 20.3693 142.621 20.2216 142.178 20.2216C141.515 20.2216 140.984 20.553 140.587 21.2159C140.189 21.8788 139.988 22.8712 139.984 24.1932C139.984 25.0871 140.073 25.8333 140.251 26.4318C140.433 27.0265 140.689 27.4735 141.018 27.7727C141.348 28.0682 141.734 28.2159 142.178 28.2159Z" fill="#4038FF"/>
<g clip-path="url(#clip0_3354_146632)">
<path d="M72 24C72 10.7452 82.7452 0 96 0C109.255 0 120 10.7452 120 24C120 37.2548 109.255 48 96 48C82.7452 48 72 37.2548 72 24Z" fill="#4038FF"/>
<g clip-path="url(#clip1_3354_146632)">
<path d="M78.0817 -2.38835L82.8175 19.697H82.8086C81.5611 20.0805 80.9534 21.0455 80.72 21.5338C80.1854 22.3204 80.2299 23.1576 80.3636 23.9504C80.5204 24.8914 80.9151 26.2941 81.5887 28.5535C82.1412 30.4072 82.5778 31.8711 84.0979 32.3186C84.3152 32.3819 84.5398 32.4174 84.7661 32.4242C85.217 33.4727 85.699 34.4963 86.2042 35.4853C87.7742 38.0199 89.7345 42.0149 86.2595 44.2344C83.7646 45.8324 81.0025 46.4538 78.9531 48.407C82.0164 53.0128 87.2717 54.0808 92.6321 54C93.7013 53.9831 94.7803 53.921 95.8442 53.8331C101.852 53.4718 107.733 52.584 113.257 50.4533C114.772 49.8319 113.703 47.9675 112.723 47.1685C110.673 45.6593 108.179 45.2154 106.307 43.6174C105.595 42.9072 105.416 41.9306 105.171 40.9176C104.958 39.8216 105.037 38.6891 105.4 37.6328C105.715 36.7455 106.227 35.9404 106.897 35.2776L107.044 35.1329L109.529 30.5936C110.51 29.8798 111.302 28.9393 111.837 27.853C113.046 25.3726 112.667 23.4603 112.136 22.2929C111.834 21.6345 111.41 21.0383 110.888 20.5351L116.135 0.574175C116.885 -0.909394 117.156 -2.58762 116.911 -4.2305C116.704 -5.53859 116.173 -6.77458 115.366 -7.82602L115.296 -7.91479L115.212 -7.99292C113.181 -9.90343 105.809 -16.125 96.148 -16.125H95.8513C91.0309 -16.0611 87.0088 -14.4506 84.6049 -13.4892C82.7925 -12.7621 81.5246 -12.1016 80.4055 -10.872C77.9106 -8.11987 77.8705 -4.42315 78.0701 -2.4647L78.0817 -2.38835Z" fill="black"/>
<path d="M100.89 25.5323C97.7157 28.0776 99.6002 28.1593 101.29 30.5776C101.301 31.3819 102.271 32.2147 101.76 32.94C101.291 31.7735 101.666 30.8031 100.126 30.2713C98.7466 29.3072 98.1175 31.9475 99.2981 31.1591C100.759 30.1426 100.928 32.742 100.827 33.7701C98.5942 30.6628 99.4523 34.3471 100.726 35.0405C101.388 35.2873 101.35 34.2797 101.908 34.1882C103.228 33.889 102.574 32.703 103.003 31.8915C103.855 33.059 103.872 35.7747 101.845 35.3166C101.002 35.0227 101.34 36.2115 100.631 36.3482C100.203 36.7033 99.2696 36.4592 99.062 36.9297C100.471 38.2099 102.233 35.1728 102.982 36.4858C100.558 39.7768 101.8 39.8372 101.922 42.3611C101.962 43.2028 101.878 44.3187 101.492 45.9185C101.052 47.9604 102.566 48.7594 104.438 49.2033C104.794 49.2921 104.348 50.0911 104.081 50.535C104.259 50.535 104.527 50.6237 104.705 50.535C105.329 49.7359 105.685 48.5818 105.15 47.694C104.794 46.895 103.725 46.9838 102.923 46.8063C102.745 46.7175 102.655 46.5399 102.593 46.3207C102.504 45.5882 102.443 44.8531 102.405 44.1172C102.295 41.9093 102.429 39.6871 102.963 37.5325C102.785 38.4203 103.2 43.4283 103.415 40.614C102.457 36.0499 105.756 33.423 106.524 29.2841C106.354 27.5441 107.875 28.3511 107.134 27.5449C105.83 27.196 105.817 32.5618 104.692 32.7713C104.318 32.6976 103.825 31.3562 104.44 31.2355C105.42 31.0517 105.041 29.7395 105.265 29.024C105.941 26.817 103.357 26.1032 102.554 24.6011C102.36 22.7545 103.849 22.0416 103.679 21.2808C101.986 20.9017 102.576 24.0533 100.551 22.2804C99.3355 21.5338 98.4124 21.9759 98.2227 23.3848C98.334 24.8017 101.599 23.4576 100.89 25.5323Z" fill="#C4C3C6"/>
<path d="M82.5112 49.8292C84.8341 50.6282 87.2398 50.717 89.6456 50.8058C89.9129 50.8058 90.3584 50.2731 90.6257 50.5394C91.1603 50.9833 92.0513 51.0721 92.0513 50.8946C91.8731 46.8108 91.9622 42.6382 91.6949 38.5544C91.6058 37.8442 90.1802 36.6901 90.1802 36.9564C90.9821 42.727 87.5071 46.3669 82.6065 48.0537C82.161 48.2312 81.7155 48.6751 81.4019 49.1652C81.7725 49.3853 82.1423 49.6067 82.5112 49.8292Z" fill="white"/>
<path d="M107.226 28.0519L107.208 28.0386C107.07 27.9312 106.979 27.8113 106.802 27.9427C106.624 28.0741 106.513 28.3653 106.43 28.5748C106.127 29.3418 105.949 30.1577 105.731 30.9514C105.541 31.6465 105.375 32.4517 104.959 33.0563C104.903 33.1468 104.829 33.2253 104.742 33.2871C104.432 32.8264 104.072 32.3461 103.916 31.8063C103.855 31.5959 103.82 31.326 104.02 31.1769C104.14 31.1017 104.281 31.0649 104.423 31.0712C104.562 31.0712 104.567 31.0526 104.628 30.9256C104.673 30.8369 104.718 30.7481 104.756 30.654C105.008 30.0876 105.201 29.4768 105.201 28.8527C105.207 28.3986 105.1 27.9502 104.891 27.5467C104.689 27.1799 104.434 26.8443 104.135 26.5507C103.848 26.2568 103.539 25.9851 103.248 25.6948C102.971 25.4362 102.735 25.1368 102.549 24.807C102.372 24.4675 102.302 24.0825 102.348 23.7026C102.414 23.1629 102.674 22.6604 102.965 22.2103C103.066 22.0549 103.173 21.904 103.285 21.7557C103.407 21.5933 103.578 21.4379 103.679 21.2639C103.781 21.0899 103.622 20.9088 103.495 20.7845C103.128 20.4365 102.627 20.2394 102.194 19.9855C101.972 19.8586 101.407 19.5718 101.625 19.2389C101.761 19.0311 102.09 18.9113 102.314 18.8403C102.497 18.7879 102.691 18.7821 102.878 18.8233C103.065 18.8645 103.238 18.9515 103.383 19.0764C103.687 19.3206 103.904 19.6588 104.117 19.9802C104.224 20.1409 104.328 20.3033 104.445 20.4569C104.542 20.5848 104.639 20.7739 104.792 20.8431C105.051 20.9603 105.159 20.6212 105.19 20.4294C105.24 20.1227 105.18 19.8082 105.02 19.5416C104.611 18.8056 104.201 18.0706 103.663 17.4172C103.165 16.8135 102.535 16.2373 101.75 16.0535C101.361 15.9657 100.955 15.9807 100.573 16.097C100.466 16.129 100.367 16.1769 100.261 16.2107C100.147 16.2356 100.031 16.2455 99.9149 16.24C99.6905 16.2545 99.4685 16.2938 99.2529 16.3571C98.4028 16.5986 97.6232 17.1375 96.7179 17.1561C96.4887 17.1608 96.2601 17.1293 96.0407 17.0629C95.7875 16.9931 95.5214 16.9834 95.2638 17.0345C94.7559 17.1118 94.2159 17.2893 93.7268 17.0407C93.5147 16.9333 93.3356 16.7629 93.1316 16.6395C92.5927 16.3138 91.9793 16.1305 91.3495 16.1068C90.5305 16.0825 89.7212 16.2883 89.0141 16.7007C88.2913 17.1112 87.6948 17.7107 87.2891 18.4346C87.1421 18.7009 87.0263 18.9832 86.8935 19.2557C86.7666 19.5162 86.666 19.7886 86.5932 20.069C86.5585 20.203 86.4435 20.5652 86.6004 20.6682C86.8311 20.8209 87.0584 20.3371 87.1537 20.2101C87.5778 19.6428 88.1801 18.9672 88.9063 18.8074C89.0623 18.7696 89.2255 18.7737 89.3794 18.8193C89.5332 18.8648 89.6722 18.9502 89.7822 19.0667C89.898 19.1865 90.1083 19.4369 90.1012 19.6082C90.0941 19.7795 89.9061 19.9331 89.7867 20.0219C89.4721 20.2572 89.0881 20.4019 88.7495 20.5981C88.5205 20.7312 87.9636 20.8644 87.9369 21.2009C87.9173 21.437 88.214 21.6394 88.3682 21.7744C88.6212 21.9972 88.8841 22.2183 89.0186 22.5343C89.236 23.0359 89.8018 23.217 90.3079 23.2623C90.9607 23.3113 91.6157 23.2039 92.2183 22.9489C92.7092 22.7447 93.2688 22.4065 93.4398 21.8712C93.5218 21.6172 93.5494 21.3687 93.6653 21.121C93.8104 20.8178 93.9897 20.5322 94.1999 20.2696C94.4779 19.9145 95.025 19.2717 95.5534 19.42C95.8207 19.4972 95.9543 19.7902 96.0247 20.0414C96.0791 20.2323 96.0728 20.4463 96.1494 20.6291C96.2237 20.7821 96.3367 20.913 96.4773 21.0091C96.7937 21.2497 97.0422 21.4024 97.1902 21.785C97.3811 22.2768 97.6597 22.73 98.0126 23.1229C98.4153 23.5668 98.917 23.7719 99.4845 23.9397C99.93 24.072 100.41 24.1394 100.844 24.3081C102.008 24.7591 100.736 25.8777 100.238 26.3305C99.8383 26.6954 99.3393 27.0407 99.2137 27.6C99.0943 28.1327 99.4587 28.5561 99.8516 28.8624C100.245 29.1687 100.678 29.4182 100.989 29.8248C101.267 30.1959 101.434 30.6291 101.583 31.0677C101.721 31.4761 101.842 31.8933 102.041 32.2777C102.141 32.4713 102.155 32.5592 102.061 32.7651C101.968 32.9711 101.856 33.1566 101.756 33.3511C101.117 32.5725 101.55 31.3367 100.658 30.6975C100.327 30.4604 99.7625 30.1266 99.3322 30.2287C99.2403 30.2549 99.1549 30.3 99.0817 30.3612C99.0085 30.4224 98.949 30.4982 98.9072 30.5838C98.8465 30.7047 98.7967 30.8307 98.7584 30.9603C98.7013 31.1254 98.5614 31.1529 98.3877 31.168C97.7702 31.2222 97.2525 30.7383 96.6947 30.551C96.4479 30.4684 96.3775 30.3202 96.4159 30.0583C96.4542 29.7964 96.6413 29.6144 96.8614 29.4688C97.2891 29.1811 97.8148 28.9734 98.1542 28.573C98.5534 28.1016 98.2843 27.5627 97.8932 27.1819C97.671 26.9772 97.4327 26.7907 97.1804 26.6243C96.9059 26.4317 96.6368 26.2302 96.3143 26.1245C95.5489 25.8742 94.9546 26.4201 94.289 26.7078C93.9504 26.8543 93.6359 26.9901 93.3534 27.2298C93.2367 27.3292 92.9658 27.4402 92.9213 27.5991C92.8491 27.8592 93.2661 28.1815 93.422 28.328C93.7276 28.6147 94.0645 28.8811 94.3237 29.2113C94.4333 29.3507 94.4823 29.5061 94.5679 29.6552C94.6766 29.8408 94.8548 30.0547 94.706 30.2705C94.5893 30.4391 94.3496 30.5235 94.1785 30.6256C93.929 30.7712 93.7027 30.9478 93.4443 31.0783C93.1004 31.2559 92.711 31.3793 92.3207 31.3198C92.0787 31.2698 91.848 31.1759 91.64 31.0428C91.4787 30.954 91.3032 30.852 91.1125 30.9052C90.8069 30.994 90.667 31.3314 90.4888 31.5577C90.356 31.7255 90.0727 31.8108 89.9889 32.0123C89.9408 32.1259 90.0067 32.2325 90.0451 32.3408C90.0967 32.489 90.1413 32.6399 90.1939 32.7847C90.2963 33.0776 90.4273 33.4061 90.6572 33.6227C90.8309 32.9311 91.0688 32.291 91.7362 31.9359C91.9556 31.8154 92.1969 31.7398 92.446 31.7134C92.6951 31.687 92.9469 31.7105 93.1868 31.7823C93.4844 31.8818 93.8105 32.1375 93.5993 32.4739C93.4131 32.7704 93.0237 32.829 92.825 33.1167C92.5898 33.4585 92.8037 33.8269 93.0647 34.0835C93.3677 34.3764 93.8506 34.4919 94.0832 34.8416C94.2614 35.108 94.2141 35.4107 94.0529 35.6735C93.6635 36.3056 92.8945 36.7175 92.2601 37.0638C91.3415 37.7633 90.6287 36.5204 89.9159 36.2541C89.5595 36.1653 89.0248 35.9878 88.7807 35.5554C88.0777 34.6676 87.6322 33.6201 87.2838 32.5529C86.9354 31.4858 86.6672 30.3681 86.2814 29.3001C86.1959 29.0407 86.0947 28.7866 85.9784 28.5393C85.6113 28.8056 85.4581 29.5363 84.9342 29.578C84.551 29.6082 84.3942 29.2229 84.2605 28.937C84.0879 28.5612 83.9553 28.1685 83.8649 27.7651C83.6787 26.951 83.6395 26.1121 83.6395 25.2793C83.6395 24.8603 83.6493 24.4413 83.6582 24.0231C83.6582 23.8163 83.668 23.6103 83.6671 23.4017C83.6671 23.241 83.6119 23.075 83.6351 22.9134C83.6992 22.4695 84.3479 23.0856 84.5065 23.1868C84.5476 23.2156 84.5915 23.2403 84.6374 23.2605C84.6695 22.9054 84.6063 22.4669 84.3256 22.2156C84.1207 22.0318 83.8391 21.9812 83.5727 21.9688C83.2697 21.9537 82.5373 22.0958 82.7752 21.5755C82.8026 21.4984 82.8433 21.4265 82.8955 21.3633C82.9846 21.2817 83.2207 21.2746 83.3508 21.2373C83.6894 21.1432 83.9986 21.0535 84.3309 21.1947C84.4982 21.2801 84.6838 21.3236 84.8718 21.3216C84.9992 21.311 85.0313 21.3003 85.0732 21.1911C85.0979 21.1093 85.1173 21.026 85.1311 20.9416C85.2086 20.6034 85.2843 20.2643 85.3298 19.9198C85.3801 19.5777 85.3837 19.2304 85.3405 18.8873C85.3161 18.7148 85.274 18.5452 85.2148 18.3813C85.1694 18.2579 85.0865 17.988 84.9645 17.9418C84.8602 17.9028 84.7114 17.9489 84.5956 17.9072C84.5104 17.8785 84.4355 17.8258 84.3799 17.7554C84.2712 17.6134 84.2543 17.4189 84.2356 17.2476C84.1937 16.8738 84.0244 16.5374 84.0271 16.1583C84.0271 15.9443 84.1162 15.3477 84.4156 15.7144C84.4955 15.8248 84.5624 15.944 84.6152 16.0695C84.5884 15.6638 84.4619 15.2661 84.3728 14.871C84.3262 14.6776 84.2929 14.4812 84.273 14.2833C84.265 14.1883 84.2891 14.1386 84.1839 14.1324C84.1251 14.1411 84.0698 14.1653 84.0235 14.2025C83.9344 14.2575 83.8453 14.3463 83.7286 14.3108C83.5638 14.2593 83.5682 13.9228 83.5406 13.7781C83.4586 13.3342 83.3838 12.8948 83.3107 12.4527C83.0434 10.8378 82.8055 9.22381 82.3992 7.63646C82.1105 6.47613 81.8316 5.3016 81.8494 4.11641C81.8664 2.97383 82.2219 1.86055 83.0969 1.07931C83.346 0.8753 83.6072 0.686452 83.8792 0.51379C84.1608 0.31759 84.4289 0.104523 84.698 -0.107657C85.2327 -0.528466 85.7673 -0.95904 86.391 -1.22981C86.7042 -1.36737 87.0375 -1.45428 87.3782 -1.48727C87.5564 -1.50414 87.8995 -1.6089 88.0278 -1.4198C88.23 -1.12417 87.8727 -0.705133 88.1561 -0.412166C88.4091 -0.145831 88.3343 0.0317243 88.0759 0.267874C87.9351 0.393939 87.5538 0.616773 87.6598 0.852035C87.7418 1.03492 87.9806 1.04735 88.1365 1.11304C88.1842 1.13099 88.2275 1.15912 88.2632 1.19546C88.2989 1.2318 88.3261 1.27547 88.3431 1.32342C88.3601 1.37137 88.3663 1.42244 88.3614 1.47305C88.3565 1.52366 88.3406 1.57259 88.3147 1.61641C88.1748 1.86766 87.7721 1.93335 87.5315 2.0532C87.1805 2.2295 86.8433 2.4319 86.5229 2.65867C85.8771 3.10898 85.2624 3.60192 84.6829 4.13416C84.4756 4.32075 84.2892 4.5291 84.1269 4.75561C84.0289 4.89766 83.7865 5.33267 84.0218 5.47116C84.2739 5.61942 84.404 5.07344 84.4566 4.93406C84.5402 4.67595 84.6754 4.43738 84.854 4.23271C85.2727 3.79947 85.8893 4.00987 85.9348 4.60646C85.9535 4.8506 85.8893 5.10806 85.9294 5.34687C86.3625 5.27585 86.9176 5.27585 86.9461 5.84314C86.971 6.35806 86.6155 6.71583 86.3063 7.07272C86.1513 7.25028 86.0577 7.50241 85.8448 7.62581C85.6318 7.74921 85.3904 7.57165 85.2389 7.74566C85.0197 7.99779 85.0544 8.45588 84.9947 8.76483C84.9653 8.91753 84.9261 9.11995 84.788 9.21405C84.6098 9.33568 84.3924 9.20695 84.2311 9.12527C84.3202 9.5159 84.0627 9.88965 84.1625 10.2678C84.2196 10.4827 84.4236 10.567 84.5118 10.7552C84.5902 10.9213 84.5599 11.1237 84.5466 11.2995C84.5296 11.5125 84.4993 11.77 84.6232 11.9591C84.7212 11.7007 84.3799 11.477 84.478 11.2124C84.5261 11.0828 84.6446 10.9612 84.7141 10.8387C84.7836 10.7162 84.8504 10.5803 84.9128 10.4472C85.1632 9.91451 85.3681 9.32413 85.7922 8.898C85.8813 8.80922 86.0025 8.68138 86.1228 8.64853C86.2431 8.61568 86.3571 8.63078 86.4721 8.59527C86.7147 8.51035 86.9472 8.399 87.1653 8.26324C87.5386 8.05106 88.0563 7.68529 88.5018 7.89924C88.7388 8.01288 88.7932 8.26412 88.566 8.42037C88.378 8.55088 88.1267 8.56597 87.9422 8.70802C88.533 8.39552 89.1736 8.11764 89.8473 8.06348C90.1779 8.02727 90.5122 8.08064 90.8149 8.21796C91.1294 8.37243 91.2943 8.63966 91.5224 8.88912C91.9527 9.36054 92.523 9.70766 92.8732 10.2519C93.2447 10.8289 93.234 11.6581 92.5257 11.9635C92.1782 12.1135 91.795 12.086 91.4502 12.2503C91.1054 12.4145 90.8024 12.664 90.4389 12.7918C90.3482 12.8251 90.254 12.8483 90.1582 12.8611C90.4549 12.7723 90.8987 12.6364 91.2016 12.7803C91.3691 12.8593 91.4199 13.0217 91.4689 13.1842C91.5277 13.3618 91.5928 13.5242 91.7683 13.6139C92.1122 13.7915 92.5809 13.6681 92.9266 13.589C94.2801 13.2836 95.6888 13.5189 97.0458 13.2428C97.6481 13.1212 98.2817 12.9898 98.8884 13.1585C99.0417 13.2002 99.1894 13.2598 99.3286 13.336C99.4158 13.3998 99.5115 13.4512 99.6128 13.4887C99.7518 13.5198 99.8427 13.4461 99.9238 13.3413C100.14 13.0617 100.217 12.8229 100.612 12.8042C100.81 12.7954 101.2 12.8247 101.372 12.6924C101.579 12.5326 101.067 12.1437 100.968 12.023C100.577 11.5445 100.458 10.9745 100.675 10.3877C100.739 10.2101 100.853 10.0557 100.899 9.87545C100.934 9.70876 100.941 9.5374 100.919 9.36852C100.893 9.09065 100.768 8.71512 100.898 8.4479C100.929 8.38931 100.974 8.33927 101.029 8.30224C101.084 8.26521 101.147 8.24236 101.213 8.23571C101.467 8.20639 101.723 8.1966 101.979 8.20642C102.52 8.19868 103.058 8.27997 103.573 8.44701C104.604 8.78081 105.497 9.44221 106.226 10.2314C106.948 11.0304 107.544 11.9342 107.994 12.9117C108.161 13.2668 108.311 13.626 108.444 13.9894C108.533 14.2265 108.65 14.483 108.677 14.7369C108.731 15.2279 108.126 15.4845 107.828 15.7712C107.063 16.5107 107.011 17.5929 107.018 18.5926C107.021 19.0148 107.06 19.436 107.136 19.8514C107.173 20.0592 107.22 20.2663 107.277 20.4729C107.293 20.535 107.315 20.7268 107.366 20.7676C107.416 20.8085 107.515 20.7801 107.585 20.7854C108.178 20.836 108.157 21.6812 108.119 22.1091C108.066 22.6595 107.852 23.1789 107.801 23.7284C107.743 24.3827 108.013 24.9642 108.247 25.5599C108.303 25.7037 108.368 25.8715 108.531 25.915C108.714 25.9674 108.977 25.8857 109.155 25.8315C109.387 25.7579 109.652 25.6584 109.823 25.907C109.967 26.1147 109.875 26.3944 109.699 26.5524C109.465 26.7619 109.231 26.9732 108.978 27.1606C108.725 27.3479 108.45 27.4597 108.185 27.6187C107.877 27.8113 107.655 28.3688 107.226 28.0519Z" fill="white"/>
<path d="M82.5801 8.24463C82.9276 9.95361 83.382 11.8401 83.6101 13.8954C83.5451 12.284 83.1102 10.3309 82.5801 8.24463Z" fill="#C4C3C6"/>
<path d="M102.226 8.26229C102.11 7.74561 101.667 7.71986 101.276 7.68257C97.744 6.87558 94.1479 6.93506 90.6203 7.67281C91.4124 7.38605 91.0382 6.59948 90.271 6.88268C89.3675 7.30171 88.5193 6.99721 88.6592 5.8786C89.118 4.43063 87.3565 4.08706 87.8867 3.70265C88.7527 3.68312 88.7331 3.05279 88.7599 2.45975C88.8596 1.97058 90.2265 1.66075 90.5856 0.974493C92.2785 0.384118 94.3172 0.984258 96.1188 0.987809C96.7505 0.589194 96.0074 -0.401569 96.5251 -0.589779C96.7265 -0.56492 96.9564 -0.501 97.0731 -0.727386C97.0205 -1.20856 96.6436 -1.85309 96.1446 -2.24993C96.0109 -2.24016 95.8768 -2.23749 95.7428 -2.24194C95.2732 -2.25792 94.817 -2.41151 94.3769 -2.57575C94.3466 -2.38931 94.3216 -2.20199 94.3047 -2.01556C94.3314 -3.54432 90.3762 -2.6157 89.5333 -2.05906C87.32 -0.747804 87.8626 -3.26644 86.9493 -3.70412C86.5929 -3.8728 86.8308 -4.09474 87.0126 -4.26786C86.3888 -4.70554 87.5035 -5.6528 86.5617 -5.93689C84.3832 -6.55212 87.4207 -9.21014 84.0731 -8.71476C84.1827 -9.13646 85.2314 -10.1956 84.7405 -10.3057C77.9108 -7.51359 80.7861 1.17158 82.5797 8.24454C81.6887 3.85623 81.4856 0.629146 87.459 -1.3293C88.7064 -1.93566 87.1364 0.04321 88.2885 -0.184951C88.2707 0.574991 87.091 -0.0011797 87.5757 0.697505C89.3996 2.22449 83.3941 2.86902 83.7995 6.17334C85.0336 4.57534 85.7348 2.31859 85.7126 5.94785C87.9704 4.03379 85.8792 8.8216 85.039 7.13481C84.8803 7.75004 84.8723 10.0086 84.1479 8.58278C83.0199 11.3456 84.8697 9.47057 84.2834 12.6781C85.4756 11.7974 84.4794 11.8374 84.7289 11.0109C85.4773 10.0956 85.5914 8.58101 87.2184 8.48246C87.6897 8.45317 88.1459 8.17796 88.6111 8.01993C88.3972 8.45938 87.4171 8.56592 87.0634 9.08527C89.3078 7.49259 92.6019 8.37504 92.9441 11.2896C92.2313 12.1295 90.5276 12.4358 89.5047 12.9595C90.6239 12.4961 91.1692 13.7506 91.8758 13.7896C93.6418 13.8873 95.4398 13.6733 97.2041 13.4025C98.1218 13.2614 98.8721 13.5366 99.6927 13.6431C100.296 13.7222 101.002 12.4944 102.209 13.083C100.433 10.6744 100.507 8.68932 102.226 8.26229Z" fill="#C4C3C6"/>
<path d="M97.1784 -3.01965C99.1271 -2.13186 101.231 -2.89713 103.214 -2.45235C104.218 -2.29433 105.136 -1.63115 106.163 -1.65956C105.154 -2.4124 107.908 -3.10132 108.035 -4.06279C108.288 -4.55551 107.992 -5.48324 108.565 -6.07006C109.196 -6.71814 110.497 -6.76431 110.374 -8.08533C111.039 -7.55266 111.568 -6.80515 112.363 -6.46335C112.34 -6.76171 112.338 -7.06139 112.358 -7.36001C113.071 -6.91612 113.832 -5.52852 113.769 -4.6798C112.937 -4.78367 112.357 -5.75312 111.611 -5.55692C111.232 -5.36605 110.096 -5.27106 110.26 -4.74194C111.91 -4.81296 112.626 -4.48182 112.674 -2.90867C112.697 -2.27125 112.857 -1.66578 112.904 -1.04433C112.912 -0.935134 112.707 0.067173 113.463 -0.710524C114.567 -0.928918 111.937 5.72234 111.903 6.78324C111.561 6.32524 111.374 5.77152 111.368 5.20121C111.176 2.21205 108.473 0.242953 105.971 -0.865886C106.94 0.297996 105.557 1.81522 104.285 1.17601C102.811 1.22306 103.335 -0.536519 103.091 -1.52196C102.557 2.43134 104.16 0.568769 104.024 1.92619C102.713 2.06468 101.497 1.05794 100.11 1.34114C99.5156 1.3873 98.9685 1.25236 98.506 0.870615C98.1086 0.442704 96.9182 0.150623 97.3727 -0.595114C97.6016 -0.906725 97.8912 -0.763791 98.1265 -0.587122C100.865 1.65808 100.816 -1.56368 101.678 0.575871C102.414 -0.94046 100.409 -1.67288 99.2589 -1.94632C98.547 -1.52728 96.6385 -2.17714 97.1784 -3.01965Z" fill="#C4C3C6"/>
<path d="M103.901 47.2626C104.346 47.3399 104.703 47.3399 104.97 47.7838C105.416 48.7603 104.881 49.6481 104.525 50.5359C106.574 49.293 109.069 49.3818 111.385 49.0267C110.94 47.8725 109.871 47.0735 108.801 46.5409C107.198 45.8307 105.416 45.3868 104.353 43.9042C103.861 43.2543 103.478 42.4038 103.271 41.2408C103.063 40.0778 103.033 38.6157 103.242 36.7327C101.745 38.7462 102.13 41.7877 102.158 44.1456C102.193 44.61 101.903 45.4604 101.967 46.1582C102.031 46.856 102.451 47.4109 103.901 47.2626Z" fill="white"/>
<path d="M109.674 26.5826C109.794 26.0748 109.75 25.7321 109.172 25.9709C108.266 26.5214 108.102 25.9221 107.968 25.2385C108.165 24.9722 108.493 25.1045 108.886 24.9109C106.051 23.8456 108.698 22.7465 107.906 20.8919C107.559 20.7144 107.728 21.6022 107.289 21.0535C105.934 12.608 109.575 17.2804 107.87 13.0413C107.277 11.2773 105.958 10.2004 104.566 9.09953C105.334 8.18245 106.236 9.86213 106.835 10.2536C105.368 7.89658 104.088 9.09953 103.345 8.12297C103.393 7.82911 103.187 7.8877 103.018 7.89481C102.185 7.60184 99.6893 7.53969 99.4023 6.81882C100.489 6.04112 102.185 7.03987 103.456 7.09936C104.361 7.17393 104.965 5.82628 104.359 5.12315C103.952 4.63842 104.531 4.01076 104.214 3.48164C103.99 2.99958 104.004 2.6489 104.638 2.5619C103.753 2.07362 104.119 1.47171 104.97 1.89518C106.608 2.56545 107.911 3.70714 109.174 4.90032C109.912 5.53331 108.875 5.70465 108.714 6.2169C107.261 9.50169 107.912 8.38841 108.459 11.7407C108.967 10.3202 108.387 8.78081 108.989 7.33994C109.419 4.7343 110.7 6.19115 110.987 7.91434C111.036 8.04395 111.009 8.19932 111.134 8.32893C111.391 8.14161 111.273 7.6116 111.75 7.63291C111.957 9.39338 105.911 23.4354 109.34 22.5059C109.734 22.482 109.909 22.9729 109.678 23.4097C109.576 23.4576 109.42 23.3342 109.378 23.5793C109.013 24.7254 110.812 25.543 109.674 26.5826Z" fill="#C4C3C6"/>
<path d="M111.747 7.63108C111.537 8.07438 111.327 8.51827 111.117 8.96275C109.458 2.54942 108.829 9.17671 108.874 11.6962C108.8 11.9572 108.447 12.3869 108.082 12.2591C108.27 11.0854 107.585 9.95085 107.62 8.78786C107.601 7.54496 108.189 6.4743 109.081 5.58297C109.126 4.38801 105.458 2.18099 104.158 1.8818C102.274 1.24615 102.48 -0.984844 103.464 -2.07593C102.591 -0.494788 104.836 2.66749 106.035 0.388555C106.415 -0.321671 105.615 -0.703417 105.308 -1.28314C107.476 -0.928026 109.539 0.816466 110.811 2.76248C111.423 4.33475 111.926 6.0384 111.747 7.63108Z" fill="white"/>
<path d="M84.6489 29.5185C85.3938 29.2824 85.6691 28.5961 86.0567 27.9897C86.2038 28.3449 86.4131 29.1652 86.6805 30.1497C86.9478 31.1343 87.2792 32.2804 87.6606 33.2969C88.0419 34.3134 88.491 35.1932 88.9891 35.6433C89.4872 36.0934 90.0405 36.1094 90.6455 35.3965C90.1474 36.2621 90.4976 36.7823 91.091 36.9741C91.4065 37.0617 91.7384 37.0734 92.0594 37.0083C92.3804 36.9432 92.6812 36.8031 92.9372 36.5995C92.4026 37.0433 91.5116 37.3985 91.868 38.1975C92.4026 39.4404 92.759 40.772 92.4917 42.1037C92.0462 43.6129 91.6898 45.0334 91.7789 46.5426C90.977 44.1456 91.9571 41.7486 91.6007 39.2628C91.5116 38.375 90.7097 36.5995 89.9077 37.2209C89.5513 37.4872 90.0859 38.375 90.0859 38.9965C89.7295 37.3097 88.7494 35.8004 88.0366 34.3241C87.6203 33.5823 87.2487 32.8166 86.9237 32.0309C86.596 31.2361 86.3821 30.3993 86.2884 29.5451C85.8411 27.7083 85.5266 30.2536 84.6489 29.5185Z" fill="#C4C3C6"/>
<path d="M84.124 16.683C84.9741 17.8531 85.8508 19.0116 85.5497 20.5351C84.4804 20.0024 85.5791 21.295 85.0765 21.2453C84.7587 19.7254 84.4412 18.2046 84.124 16.683Z" fill="#C4C3C6"/>
<path d="M83.6367 14.2372L84.272 13.6876C84.4654 14.6393 84.6596 15.5901 84.9741 17.1331C84.5224 16.2453 84.3567 15.9204 84.1909 15.5946L84.0751 16.4699L83.6367 14.2372Z" fill="#C4C3C6"/>
<path d="M82.9122 21.326C82.8401 21.524 82.6672 21.9075 83.0138 21.8871C83.3355 21.8685 83.6251 21.754 83.9521 21.8419C84.5009 21.9883 84.7763 22.5521 84.9322 23.0501C84.9732 23.1806 85.0213 23.2694 84.9545 23.3893C84.9153 23.4558 84.8199 23.5721 84.7388 23.5881C84.5686 23.6236 84.3699 23.4106 84.2808 23.2943C84.1917 23.178 84.1312 22.9969 84.0135 22.9001C83.8576 22.7705 83.7382 22.9347 83.6349 23.051C83.5743 22.9045 83.4451 22.5183 83.6999 22.4864C83.9244 22.458 84.19 22.6799 84.3708 22.7785C84.3887 22.2236 84.0322 21.9022 83.495 21.9608C83.3373 21.9786 82.6734 22.2334 82.5799 22.0398C82.4961 21.8596 82.8267 21.4503 82.9122 21.326Z" fill="#C4C3C6"/>
<path d="M109.873 25.0679C109.784 25.1771 109.621 25.1469 109.417 25.0004C109.127 24.7909 109.098 24.3701 109.11 24.0452C109.122 23.7203 109.147 23.137 109.402 22.9346C109.759 23.4086 109.997 24.292 109.937 24.8833C109.933 24.9496 109.911 25.0135 109.873 25.0679Z" fill="white"/>
<path d="M104.285 43.9468C104.02 43.6918 103.81 43.386 103.667 43.048C103.523 42.7099 103.45 42.3465 103.451 41.9795L104.285 43.9468Z" fill="#C4C3C6"/>
<path d="M107.598 46.1724L106.485 45.5571L107.598 46.1724Z" fill="#C4C3C6"/>
<path d="M106.246 45.4231L105.61 45.0759L106.246 45.4231Z" fill="#C4C3C6"/>
<path d="M90.0206 41.4529C89.9841 41.594 89.9476 41.7361 89.9102 41.8773C89.9476 41.7361 89.9841 41.594 90.0206 41.4529Z" fill="#C4C3C6"/>
<path d="M105.389 44.9279L105.024 44.6829L105.389 44.9279Z" fill="#C4C3C6"/>
<path d="M109.209 46.8959L108.95 46.7822L109.209 46.8959Z" fill="#C4C3C6"/>
<path d="M84.3457 29.1101L84.5123 29.4084L84.3457 29.1101Z" fill="#C4C3C6"/>
<path d="M89.8603 42.1135L89.7881 42.41L89.8603 42.1135Z" fill="#C4C3C6"/>
<path d="M84.2981 21.1706L84.0308 21.0818L84.2981 21.1706Z" fill="#C4C3C6"/>
<path d="M93.2365 36.3695C96.0192 34.483 90.4423 34.0214 93.2009 32.5876C93.4432 32.5112 93.7596 32.4686 93.6099 32.0727C93.8023 31.6048 94.5846 31.9484 94.6328 32.315C94.647 32.6045 94.3503 32.7208 94.1668 32.8211C90.7167 34.6765 99.6608 35.3273 97.6988 33.0501C96.9539 32.6382 96.8398 31.7957 97.8672 31.8072C99.3365 31.6004 98.122 32.3958 98.7849 32.7669C100.936 34.2761 96.3506 35.0166 98.7528 36.1645C98.9881 36.3127 99.2696 36.4459 99.1725 36.8134C97.353 35.8662 95.3153 35.6637 93.2365 36.3695Z" fill="#C4C3C6"/>
<path d="M91.9001 47.8104L91.8413 47.1304L91.9001 47.8104Z" fill="#C4C3C6"/>
<path d="M98.3873 23.4808C97.1461 23.2384 97.3956 21.7763 96.5296 21.2267C95.3971 19.579 96.3514 17.0444 98.3927 16.5996C99.0993 16.1912 99.8344 16.2267 100.616 16.1229C102.701 15.3461 104.116 18.0538 105.043 19.5399C105.306 20.0726 105.328 21.1681 104.42 20.7047C103.78 20.0921 103.595 18.9966 102.48 18.8901C101.466 19.0588 100.377 18.8643 99.3452 19.5311C101.421 19.16 102.249 19.8906 103.916 20.9568C104.273 21.715 102.864 20.9648 102.65 22.1713C101.657 24.872 98.7812 19.9483 98.3873 23.4808Z" fill="black"/>
<path d="M98.6431 32.148C98.17 31.768 97.5186 31.9056 97.2745 32.1924C96.8486 32.7188 99.6036 33.3625 97.72 34.3231C95.938 35.3334 90.7032 34.2813 94.5123 32.3149C90.7389 30.8057 91.2975 33.9067 90.2871 32.773C89.7525 32.1001 91.3439 29.7386 91.8295 31.2638C94.0731 30.2428 96.4467 30.0102 98.7171 31.0667C99.4504 31.5825 99.1011 30.534 99.4539 30.5544C100.932 30.4852 101.601 33.0926 100.829 33.904C100.342 34.2529 100.236 32.987 99.7106 32.6611C99.3345 32.4632 98.8267 32.7029 98.6431 32.148Z" fill="black"/>
<path d="M98.6429 32.1482C100.124 32.4145 99.8449 34.4227 101.024 34.9465C101.168 33.8421 103.162 33.9699 102.697 32.4225C102.614 32.1482 102.801 31.7931 102.865 31.4744C103.825 32.64 104.619 35.1462 102.498 35.4623C101.181 35.6789 100.668 37.4403 99.1686 36.8153C98.332 36.2781 96.7566 35.2172 98.4068 34.5337C99.9305 33.9122 98.7106 32.9676 97.9185 32.3559L98.6429 32.1482Z" fill="white"/>
<path d="M102.124 27.1685C102.381 27.0984 102.65 27.0794 102.916 27.1126C103.383 27.1978 103.797 27.4644 104.067 27.8539C104.475 28.414 104.59 29.2006 104.052 29.7182C103.574 30.1781 102.789 30.2997 102.163 30.1301C101.478 29.9464 101.154 29.356 100.909 28.7452C100.788 28.4416 100.553 28.0634 100.674 27.7251C100.795 27.3869 101.137 27.3798 101.431 27.3283C101.665 27.2874 101.893 27.2209 102.124 27.1685Z" fill="black"/>
<path d="M96.5938 -2.86601C97.8573 -2.03061 99.4272 -2.17443 100.596 -1.27333C102.692 0.160435 99.5751 1.43174 97.9232 -0.487646C97.3084 -0.887147 97.3307 -0.132532 97.7628 0.127588C99.7231 1.83302 102.74 0.647828 104.748 2.28667C105.557 3.28543 103.52 2.97648 104.871 5.29803C105.196 6.1068 104.558 7.15438 103.513 7.42161C102.091 7.31773 100.961 6.42374 99.2767 6.84366L103.167 7.7563C103.441 8.25168 105.516 8.67426 104.563 9.09773C99.9298 6.84987 94.8144 7.15616 89.8078 7.96936C91.5176 6.82501 90.877 6.85431 89.4362 7.35857C87.5419 7.05406 89.0709 5.06632 87.6586 4.1084C86.6429 3.10521 88.4971 3.63166 88.645 2.80159C88.7795 1.02602 93.9911 -0.838319 94.7699 1.57023C94.7921 2.45269 95.0033 3.42481 94.7636 4.26998C94.3377 4.75559 94.3858 5.60698 95.1993 5.47647C98.4525 5.7144 95.4604 2.59296 96.1242 0.948786C96.69 -0.382887 95.0461 -1.28221 97.0054 -0.794819C95.9986 -3.15277 94.5516 -1.92852 94.973 -3.07464C95.4551 -4.12578 96.0636 -3.13767 96.5938 -2.86601Z" fill="black"/>
<path d="M94.6817 19.8302C92.8462 23.0005 93.0378 17.7253 88.7947 18.9682C88 18.9602 86.6563 22.0434 86.5957 20.18C86.7481 18.6424 88.0151 17.8922 88.9008 16.7984C89.0719 16.4957 89.3579 16.2285 89.7294 16.2471C91.6977 15.8982 93.4245 16.5285 95.0337 17.6614C95.9176 18.0289 95.0346 19.2975 94.6817 19.8302Z" fill="black"/>
<path d="M88.8651 22.4048C87.4261 21.2444 87.0965 21.0917 89.0193 20.2972C89.8729 19.8355 90.8272 19.4982 91.8509 19.7361C93.0119 19.8302 94.2166 21.9609 92.7705 22.387C91.3965 22.7528 89.978 24.2806 88.8651 22.4048Z" fill="black"/>
<path d="M92.9864 27.3178C94.0306 26.6076 96.4435 25.7642 97.4415 26.7683C98.026 27.0604 98.8448 27.6374 98.0652 28.2287C95.7423 30.5183 95.6862 31.0891 93.4372 28.3326C93.1396 28.1035 92.613 27.8798 92.9864 27.3178Z" fill="black"/>
<path d="M87.7042 29.4059C87.6151 28.3406 87.3737 26.8314 88.499 26.9645C89.2635 27.2149 92.2003 26.5064 91.9018 27.7085C91.4545 28.6762 87.2151 31.9521 87.7042 29.4059Z" fill="#C4C3C6"/>
<path d="M88.8651 22.4049C90.4396 24.2692 91.6834 21.8527 93.1314 22.0791C93.5929 19.7557 90.9198 19.5968 89.316 20.1153C89.3837 19.7131 90.191 20.0594 90.0065 19.524C89.8337 19.0207 89.3017 18.9337 88.793 18.9638C92.4372 17.1608 93.0387 22.2149 94.3405 20.2307C94.1676 22.6437 90.0841 25.0407 88.8651 22.4049Z" fill="#C4C3C6"/>
<path d="M94.6818 19.8301C95.4374 18.5659 94.8484 17.6994 93.8237 16.9679L97.4502 17.0336C96.1769 18.2188 96.0352 19.6525 96.5333 21.2266C95.2859 21.0907 96.5467 18.6929 94.6818 19.8301Z" fill="#C4C3C6"/>
<path d="M92.986 27.3179C94.1443 30.7403 97.1096 30.592 98.2697 27.3179C98.8837 27.8736 98.3277 28.9967 97.2656 29.4423C96.8869 29.6012 96.2569 29.6581 96.5527 30.3701L93.9251 30.5476C95.6671 29.4219 93.5295 29.208 93.4262 28.5057C93.362 28.1027 92.136 28.0947 92.986 27.3179Z" fill="#C4C3C6"/>
<path d="M93.6188 16.7886C90.5706 15.5688 87.4984 17.078 86.725 20.2305C86.6359 20.4836 86.659 20.7215 87.0128 20.7579C86.8488 20.9976 86.4987 21.3483 86.4871 20.8138C86.2572 17.2884 90.7096 14.1324 93.6188 16.7886Z" fill="#C4C3C6"/>
<path d="M104.419 20.7046C105.915 20.6078 104.44 18.8402 104.078 18.1788C102.679 15.7721 100.615 15.9505 98.3926 16.5995C103.193 13.083 107.208 22.0789 104.419 20.7046Z" fill="#C4C3C6"/>
<path d="M101.856 19.7058C96.9687 20.4764 99.517 18.1255 102.48 18.8899C102.2 19.1074 101.434 18.9574 101.856 19.7058Z" fill="#C4C3C6"/>
<path d="M91.8304 31.2436C91.7012 30.9888 91.3306 30.9364 91.0855 31.0332C90.7781 31.1557 90.5892 31.4957 90.4876 31.7922C90.3925 32.0458 90.3815 32.3231 90.4565 32.5832C90.5028 32.7324 90.6347 33.0271 90.8405 32.8878C90.9741 32.7937 90.9822 32.3879 91.204 32.4385C91.1497 32.7049 91.0258 32.965 90.9278 33.2198C90.8387 33.4426 90.7737 33.7205 90.6204 33.906C90.3763 33.6663 90.2889 33.2686 90.1357 32.9703C89.9824 32.672 89.6902 32.3746 89.6724 32.0319C90.0822 31.8748 90.3077 31.4922 90.5678 31.1619C90.7345 30.9497 90.9447 30.6798 91.2156 30.5999C91.597 30.4881 91.7921 30.94 91.8304 31.2436Z" fill="#C4C3C6"/>
<path d="M98.0693 27.2031C97.4226 26.7151 96.617 26.4838 95.8088 26.5542C94.8768 26.6332 94.0018 27.0051 93.1152 27.2724C94.7512 25.9416 96.3906 25.2669 98.0693 27.2031Z" fill="#C4C3C6"/>
<path d="M106.924 18.1825C107.237 19.1156 107.702 20.03 107.285 21.0536C106.925 20.1419 106.801 19.1545 106.924 18.1825Z" fill="black"/>
<path d="M107.718 24.2568L107.854 23.4578C107.866 24.3953 109.101 24.445 109.185 25.0744C109.244 25.5112 108.395 25.1703 107.959 25.2369L107.718 24.2568Z" fill="black"/>
<path d="M84.861 24.8737C84.7719 25.1906 84.6472 26.0944 84.1607 25.7295C83.6733 25.1871 84.7372 23.8821 84.861 24.8737Z" fill="black"/>
<path d="M84.1567 25.7296L84.8241 25.0886C84.6254 25.442 84.6495 26.1797 84.1567 25.7296Z" fill="#C4C3C6"/>
<path d="M103.176 8.48242L103.79 8.731L103.176 8.48242Z" fill="#C4C3C6"/>
<path d="M103.906 21.3226L103.916 20.9568C104.086 21.121 104.144 21.2 103.906 21.3226Z" fill="#C4C3C6"/>
<path d="M88.5513 22.0833C88.6404 22.1614 88.7232 22.2386 88.8097 22.3158C88.7232 22.2386 88.6368 22.1614 88.5513 22.0833Z" fill="#C4C3C6"/>
<path d="M89.3162 20.116L89.0195 20.2935L89.3162 20.116Z" fill="#C4C3C6"/>
<path d="M90.2961 -1.29284C91.7004 -2.87841 93.6241 -2.09184 94.3057 -0.493834C93.1902 -0.174233 89.4568 1.03049 90.2961 -1.29284Z" fill="black"/>
<path d="M96.124 0.948717C96.3717 2.07531 96.6355 3.22055 96.8903 4.33028C96.8903 4.45102 96.8965 4.57264 96.9001 4.69338C96.1419 4.65609 95.7756 5.38407 95.1412 5.58915C94.1522 5.73208 94.4204 4.95439 94.5175 4.29565C94.4632 3.35017 96.5348 2.3159 95.0726 1.7344C93.4554 0.970023 95.0575 0.175459 96.124 0.948717Z" fill="white"/>
<path d="M104.903 8.84214C104.699 8.69389 104.442 8.6708 104.273 8.49236C106.537 8.14612 109.852 13.5705 104.903 8.84214Z" fill="white"/>
<path d="M94.5928 1.50819C96.676 1.39455 95.8883 2.99522 94.6961 3.70367C94.6617 2.97273 94.6272 2.24091 94.5928 1.50819Z" fill="#C4C3C6"/>
<path d="M95.1416 5.58922C95.6299 5.09917 95.8589 4.10397 96.9005 4.69345C96.9896 6.30833 95.7225 5.28116 95.1416 5.58922Z" fill="#C4C3C6"/>
<path d="M94.5158 4.29395L94.4784 5.53684C94.1389 5.11337 94.3269 4.7041 94.5158 4.29395Z" fill="#C4C3C6"/>
<path d="M104.274 8.49316L104.576 8.6574L104.274 8.49316Z" fill="#C4C3C6"/>
<path d="M96.8895 4.3303L96.8218 4.06396L96.8895 4.3303Z" fill="#C4C3C6"/>
</g>
</g>
<path d="M96 46C83.8497 46 74 36.1503 74 24H70C70 38.3594 81.6406 50 96 50V46ZM118 24C118 36.1503 108.15 46 96 46V50C110.359 50 122 38.3594 122 24H118ZM96 2C108.15 2 118 11.8497 118 24H122C122 9.6406 110.359 -2 96 -2V2ZM96 -2C81.6406 -2 70 9.6406 70 24H74C74 11.8497 83.8497 2 96 2V-2Z" fill="black"/>
<g clip-path="url(#clip2_3354_146632)">
<path d="M36 24C36 10.7452 46.7452 0 60 0C73.2548 0 84 10.7452 84 24C84 37.2548 73.2548 48 60 48C46.7452 48 36 37.2548 36 24Z" fill="#FF3861"/>
<path d="M60.4338 55.2981C65.9333 55.2981 70.1826 54.0305 73.067 51.5306C73.8517 50.8504 76.237 48.7829 76.2082 45.995C76.2033 45.5183 76.1007 43.1127 74.5666 42.5761C74.4048 42.5216 74.2369 42.4875 74.0667 42.4744C74.0869 42.2143 74.0658 41.9526 74.0043 41.699C73.8829 41.1961 73.6489 40.913 73.4232 40.6398C73.2498 40.4368 73.0913 40.2215 72.9488 39.9958C72.7817 39.7281 72.6365 39.4474 72.5146 39.1564C71.9975 35.288 72.091 31.4868 72.7936 27.8563C72.9504 27.0473 73.0768 26.5566 73.1885 26.1234C73.3809 25.4146 73.5244 24.6933 73.6177 23.9648C74.0175 21.003 74.6905 16.0482 71.8579 11.6103C70.856 10.0836 69.5873 8.7496 68.1125 7.67214C67.3254 7.09781 66.1368 6.22567 64.3212 5.68991C63.2665 5.39281 62.1755 5.24478 61.0798 5.25014C60.8926 5.25014 60.703 5.25424 60.5167 5.26327C58.0017 5.37813 56.2025 6.24126 54.7562 6.93454C52.9241 7.81325 51.477 8.50654 50.1367 10.0523C48.7511 11.6514 48.2685 13.2439 47.6578 15.2589C47.2041 16.7436 46.9191 18.2747 46.8082 19.8231C46.7532 20.7256 46.7877 21.1867 46.8723 22.3034C46.9248 23.0098 46.9978 23.9722 47.0799 25.4884C47.1768 27.2762 47.2351 28.3559 47.2154 28.7153C47.1226 30.4333 46.7015 31.8043 45.7568 34.7415C45.3152 36.1158 45.018 36.9035 44.8227 37.4236C44.5288 38.2055 44.4074 38.5288 44.3589 39.3189C44.3321 39.818 44.3351 40.3183 44.368 40.817C44.4057 41.5702 44.4328 42.1142 44.134 42.9355C44.0849 43.0701 44.0276 43.2016 43.9625 43.3293C43.841 43.5853 43.6382 44.0086 43.2008 45.0088C42.6795 46.2017 42.5031 46.662 42.3446 47.2445C42.0762 48.2291 41.8989 48.8805 42.0623 49.6239C42.4119 51.2106 44.0626 52.0081 44.6848 52.3084C46.7721 53.3208 53.754 55.2981 60.4338 55.2981Z" fill="black"/>
<path d="M69.2138 12.0665C69.089 11.8113 69.0496 11.47 68.8461 11.2838C68.9946 11.4791 69.2819 11.5299 69.4978 11.6481C69.1613 10.698 68.1541 10.2689 67.4638 9.59693C67.0961 9.69866 67.0944 9.76758 67.4638 10.1819C67.2685 10.2689 67.124 10.1475 66.9828 10.0769C66.6274 9.81271 66.2441 9.8644 65.8599 9.83896C65.5382 9.5879 64.705 9.38115 64.5737 9.90378C65.2854 10.3181 66.5051 10.2 67.1897 10.8235C67.5722 11.1853 67 11.0614 66.9073 11.3043C67.0312 11.6062 67.5089 11.845 67.0222 12.1248C66.776 12.2765 66.7152 12.4743 66.7489 12.7442C66.8416 14.0643 64.9012 13.7394 64.0517 14.1808C63.3064 14.3769 64.2503 15.1802 63.0774 15.2967C61.6286 15.8283 62.2492 17.0196 60.1823 16.7218C58.6835 17.1394 61.4809 16.9868 61.778 17.1148C62.4027 17.2018 63.0092 16.7489 63.6109 17.1082C64.1321 17.6448 63.7406 18.695 63.7488 19.3965C63.6363 20.0159 62.8746 20.3097 62.3115 20.4139C61.7879 20.4541 62.03 21.2138 61.4694 21.2877C61.2987 21.3697 61.077 21.359 60.9769 21.5699C61.3331 21.9801 62.1203 21.2417 62.4938 21.021C63.3679 20.3769 64.8183 20.2933 64.5072 18.8878C64.9275 17.991 65.9978 19.0839 66.0733 19.6763C66.3614 21.2729 67.8553 21.6208 69.2351 21.5518C70.0715 21.6511 69.4428 22.1639 69.5725 22.6562C69.7046 23.4766 68.8173 22.4658 68.6359 22.2386C67.8972 21.3147 67.1847 22.6028 66.2917 22.52C65.5415 22.52 65.2566 23.1706 64.7576 23.5792C64.2405 23.8631 64.5318 23.1542 64.7231 22.9696C64.8758 22.7341 64.7748 22.543 64.4966 22.5306C63.7537 22.6127 63.5616 23.6588 62.8303 23.9008C62.0481 24.7213 61.1066 25.289 60.0469 24.6253C59.4182 24.4899 59.1399 23.845 58.5259 23.6916C57.8036 23.498 57.4441 22.8949 57.0091 22.3789C56.7275 21.8653 57.3374 20.7486 58.0302 20.9111C58.7049 21.1277 60.3974 22.5265 60.8915 21.5929C60.5378 21.3672 59.8064 21.7044 59.7358 21.1391C59.7358 20.9824 59.5561 20.957 59.4313 20.9053C58.7311 20.5033 57.6747 20.7109 57.1067 20.2186C56.7784 19.2824 59.0455 17.95 59.7563 17.5406C60.0994 17.1813 59.2786 17.1452 59.1095 16.972C58.0622 16.748 57.4679 18.1502 56.6422 18.4398C56.5067 18.2626 56.6816 17.9623 56.4961 17.7014C56.3738 17.1041 55.2386 15.3524 54.6336 15.8833C54.4161 16.4781 54.2109 17.05 53.725 17.4848C54.4407 15.8078 55.1942 14.1152 56.5552 12.8517C57.1585 11.6973 55.1204 13.344 54.9135 13.6402C55.3379 12.8829 56.3179 12.3274 56.5494 11.5414C55.044 11.8557 54.0812 13.7911 53.2661 15.0423C53.1841 15.4993 51.4694 18.6105 51.9167 16.7825C52.2935 16.2082 51.691 16.1877 51.7879 15.8062C51.934 15.4493 51.984 15.0579 52.2336 14.7396C52.4182 13.522 51.7591 14.5254 51.5966 15.0423C51.5966 14.8109 51.8708 14.4869 51.5515 14.3777C51.141 14.125 52.3846 13.1758 51.8757 12.8722C51.3963 12.7852 51.5621 13.7813 51.1484 13.7821C50.9391 13.6927 50.8677 13.8469 50.8201 13.9946C49.671 16.3025 49.2097 19.0338 49.1177 21.6749C49.538 21.1047 49.2729 20.2038 49.5052 19.5261C49.8204 19.9807 49.3952 20.9308 49.5807 21.5732L49.8507 20.564C49.7621 23.3864 49.5355 25.2267 49.5651 27.8866C49.4042 31.9298 47.6436 36.0174 46.8227 39.8965C48.8411 36.1388 50.8587 32.2178 51.6582 28.013C51.2986 28.6144 51.2683 29.3667 50.9416 30.0017C51.1427 29.2338 51.934 25.7903 51.65 27.8554C52.0948 27.6552 51.81 26.7002 52.0645 26.427C52.8648 25.9298 53.2908 21.2581 54.1009 19.7813C54.3603 19.3366 54.6287 19.8084 54.6098 20.13C54.1001 22.3682 55.3313 24.0764 56.9795 24.8731C58.457 25.7944 60.0247 26.9734 62.039 26.0037C62.2155 27.0104 60.3383 27.446 61.3766 28.3346C61.4078 28.369 61.3249 28.5077 61.3101 28.5528C61.9217 28.913 63.1529 27.2942 63.1217 28.1221C63.9507 28.6094 64.2429 27.8226 64.71 27.4518C63.5986 26.8356 61.7591 27.9908 63.1923 25.9602C64.2027 24.4111 64.4071 26.3318 65.6843 26.2293C65.9724 26.2178 66.1866 26.5755 66.3459 26.6559C66.258 26.6559 66.1636 26.642 66.171 26.7773C66.6052 26.7117 67.0797 26.893 67.4343 26.6223C65.5538 25.9889 62.543 25.2554 65.3486 23.4561C65.8312 22.6988 66.8121 22.9031 67.5648 22.648C69.0948 22.1262 68.0384 24.0034 68.9331 24.1158C70.6822 25.2644 71.3134 22.8252 71.114 21.4526C71.0516 21.1474 70.8997 21.1498 70.729 21.1629C67.7995 21.3976 66.565 20.6313 65.7688 17.9024C65.6145 17.3732 65.8566 16.7316 64.9833 16.7341C65.0777 16.4002 66.4 16.2878 66.9286 16.442C68.0384 16.8276 69.3016 16.1138 70.4442 16.4773C70.0174 15.4329 69.4009 14.4262 69.2401 13.3513C69.135 12.5563 68.9569 11.8959 68.3872 11.3519C68.6499 11.5857 68.9675 11.8015 69.2138 12.0665Z" fill="#C4C3C6"/>
<path d="M50.4154 14.6617C50.7437 14.3761 51.1542 14.0734 51.4004 13.7083C51.5481 13.4925 51.5851 12.9822 51.8863 12.9699C51.7739 13.3063 51.5284 13.6033 51.4669 13.9602C51.4012 14.3376 51.5572 14.7076 51.6376 15.0711C51.8272 14.8003 51.9421 14.4729 52.1662 14.2252C52.2943 14.587 51.9602 14.8815 51.8059 15.1744C51.5802 15.6068 51.7451 15.8308 51.7985 16.2812C51.8338 16.5725 51.4538 17.7335 52.0488 17.5119C52.4502 17.3651 52.7441 16.3854 52.9025 16.0351C53.2412 15.2761 53.6398 14.5453 54.0943 13.8494C54.6689 12.9781 55.4675 11.9812 56.4878 11.6227C55.9535 12.3931 55.25 13.0412 54.6886 13.7928C55.4273 13.3506 56.052 12.6556 56.9048 12.407C55.3338 14.0299 54.1961 15.9268 53.4032 18.0452C53.7315 17.6744 54.1017 17.2797 54.3463 16.8449C54.4809 16.6061 54.5105 16.1278 54.7034 15.9424C55.1548 15.5199 55.7647 16.5052 55.9863 16.8244C56.1921 17.1058 56.3352 17.4281 56.4057 17.7696C56.4657 18.0592 56.432 18.5523 56.8038 18.5277C57.1157 18.5071 57.5639 17.8188 57.7773 17.6161C58.1615 17.2502 58.5234 17.0754 59.0496 17.027C59.5421 16.9819 60.0034 16.8474 60.4885 16.7916C60.949 16.7382 61.4119 16.9105 61.8018 16.5741C62.0858 16.328 62.1654 15.9293 62.4872 15.711C62.8278 15.4805 63.2875 15.5338 63.5789 15.2138C63.8702 14.8938 63.8686 14.4853 64.2815 14.2293C64.6336 14.0143 65.058 13.9831 65.4561 13.9364C65.8049 13.8929 66.2046 13.8683 66.4919 13.6377C66.9229 13.2923 66.6446 12.8993 66.835 12.4833C66.9926 12.1371 67.5097 12.1117 67.3275 11.6629C67.2635 11.5053 67.0115 11.443 66.9852 11.2814C66.9672 11.1673 67.1625 11.0139 67.142 10.8367C67.0493 10.0072 65.2344 10.1147 64.6722 9.85212C64.9611 9.32375 65.7516 9.97355 66.1595 9.95796C66.1565 9.93605 66.1457 9.91595 66.1291 9.90135C66.3179 9.95222 67.3759 10.3813 67.5097 10.1951C67.5705 10.113 67.4621 10.113 67.4703 10.0416C67.4761 9.9957 67.3144 9.92432 67.2963 9.87756C67.2717 9.81356 67.3628 9.72577 67.33 9.64947C66.8424 8.52872 64.6213 8.20464 63.5772 8.03973C62.0151 7.80118 60.4227 7.84593 58.8764 8.17182C56.6446 8.63866 54.4235 9.43451 52.7859 11.0754C51.8026 12.06 50.8726 13.3358 50.4154 14.6617Z" fill="white"/>
<path d="M56.5521 51.9787C57.3032 52.608 63.9214 53.0855 63.1186 51.4627C62.7173 50.8711 62.5974 49.9694 61.5911 49.9604C60.2072 48.2555 58.3776 46.8361 57.0454 45.0778C51.4983 42.8626 46.0686 49.2622 49.6663 43.9292C48.7379 45.0778 47.3581 45.7966 46.6687 47.1339C47.125 47.0338 47.5215 46.7828 47.9385 46.5826C47.1886 47.2389 46.5351 47.9976 45.9972 48.8364C48.5467 51.2608 52.9791 51.4421 56.4528 51.9533C54.7521 50.8555 52.0967 51.5603 50.3673 50.1721C49.5768 49.6486 47.8777 49.071 48.0484 47.9962C48.9399 46.5497 50.643 46.0969 52.2707 46.183C52.7419 46.0353 53.2459 45.7498 53.5413 46.334C53.7342 46.6621 54.0002 46.8041 54.3728 46.7229C55.3627 46.5522 56.0514 47.5368 56.8993 47.8805C57.6512 48.8142 59.026 49.8964 58.3267 51.2551C58.2446 51.6226 58.2906 51.7851 57.8465 51.694C57.4255 51.5701 57.1078 51.8286 56.7163 51.8704C56.6465 51.8786 56.5472 51.8524 56.5521 51.9787Z" fill="#C4C3C6"/>
<path d="M56.5522 51.9784C60.5635 52.232 57.8868 48.1412 55.9735 47.1197C53.4651 45.6347 49.7205 45.0956 47.8852 48.0698C49.0877 51.2335 53.7926 50.9939 56.5522 51.9784Z" fill="white"/>
<path d="M47.9338 41.4855C47.4019 42.2239 46.2191 42.6801 46.476 43.7352C45.2768 48.1591 49.0936 42.7827 49.5508 41.424C48.8114 42.3064 47.9027 43.0317 46.8782 43.5572C47.2385 42.827 47.7688 42.626 48.244 42.2133C48.0651 42.1247 47.7721 42.2486 47.6982 42.2953C47.7713 42.2289 47.9403 42.2436 47.9682 42.1074C48.189 41.369 48.8301 40.9588 49.3521 40.46C48.8055 40.7061 48.1964 40.8661 47.9305 41.4921L47.9338 41.4855Z" fill="#C4C3C6"/>
<path d="M66.1682 26.7756C67.1212 26.1258 64.5553 26.1127 64.2804 25.3595C63.7452 24.5702 62.6855 26.5574 62.5624 26.9758C62.4532 27.7183 63.3011 27.0275 63.5096 27.4394C63.9126 27.0931 64.3083 27.5501 64.708 27.45C65.1734 27.1719 65.6052 26.7978 66.1682 26.7756Z" fill="white"/>
<path d="M65.1774 31.9799C64.8146 31.6599 64.4116 31.9405 64.0282 31.9192C63.7508 31.9036 63.3716 31.8445 63.3059 32.2983L63.5817 32.2351C62.9152 32.4533 62.9874 32.8709 63.3445 33.2771C64.121 34.2124 66.975 33.0555 67.8672 32.4615C67.703 32.1678 66.2871 31.6009 66.5884 32.2285C66.7985 32.3524 66.494 32.496 66.6253 32.6486C66.4217 32.6338 66.2773 32.8127 66.0786 32.8168C65.7273 32.761 65.422 32.8931 65.1265 33.0219C64.9344 32.8168 64.5897 32.9169 64.4222 32.6658C64.1423 32.1079 65.0608 32.3811 65.1774 31.9799Z" fill="#C4C3C6"/>
<path d="M63.5561 30.2036C64.6051 29.2838 66.2607 30.4226 67.1274 29.2723C65.6918 28.7243 63.8376 29.4167 62.5481 30.1847C62.869 30.4604 63.2195 30.7114 63.5561 30.2036Z" fill="#C4C3C6"/>
<path d="M65.0763 31.8651C64.9055 32.2392 63.6283 31.9086 64.0593 32.6757L64.0552 32.6691C64.9745 33.7489 66.1753 32.7413 67.2563 32.6634L66.7171 32.6019C67.4837 32.2294 66.6301 32.1637 66.6957 31.9283C66.1704 31.7676 65.6125 31.7459 65.0763 31.8651Z" fill="white"/>
<path d="M65.8994 8.81583L67.042 9.31467C63.7645 7.00262 59.8681 7.57694 56.3024 8.81501C59.3887 8.13075 62.9256 7.01 65.8584 8.85604C65.8535 8.82404 65.8658 8.81173 65.8994 8.81583Z" fill="#C4C3C6"/>
<path d="M68.4238 19.2537C69.0402 19.2964 69.655 18.9534 69.7051 18.5489C69.6419 17.3625 68.5428 18.7532 68.4238 19.2537Z" fill="#C4C3C6"/>
<path d="M68.6475 24.8862C68.7476 25.3169 68.9857 26.13 69.502 25.6246C69.2377 25.4219 68.9085 24.4382 68.6475 24.8862Z" fill="#C4C3C6"/>
<path d="M55.3743 9.18832L55.7847 9.01685L55.3743 9.18832Z" fill="#C4C3C6"/>
<path d="M65.3569 27.0259L65.059 27.2482L65.3569 27.0259Z" fill="#C4C3C6"/>
<path d="M52.5472 11.3215L52.7188 11.0548L52.5472 11.3215Z" fill="#C4C3C6"/>
<path d="M65.998 26.7839L65.8158 26.8504L65.998 26.7839Z" fill="#C4C3C6"/>
<path d="M56.0825 8.90695L56.2007 8.84131L56.0825 8.90695Z" fill="#C4C3C6"/>
<path d="M54.8991 9.4674L55.0312 9.37305L54.8991 9.4674Z" fill="#C4C3C6"/>
<path d="M52.8585 11.0072L52.9595 10.9399L52.8585 11.0072Z" fill="#C4C3C6"/>
<path d="M65.7139 26.8618C65.6654 26.8864 65.617 26.911 65.5694 26.9365L65.7139 26.8618Z" fill="#C4C3C6"/>
<path d="M63.1211 28.1236L63.1123 28.1308C63.1123 28.1308 63.1179 28.1164 63.1211 28.1236Z" fill="#C4C3C6"/>
<path d="M69.2175 12.0598C69.2249 12.0754 69.229 12.091 69.2495 12.0869C69.2397 12.0787 69.2118 12.0729 69.2175 12.0598Z" fill="#C4C3C6"/>
<path d="M60.9031 21.6363C59.5701 22.3419 58.4119 20.1333 57.3227 21.0341C56.9681 21.4862 56.3895 22.1007 57.1709 22.7456C59.2935 25.0372 62.232 26.0726 64.0887 22.803C64.2406 22.5856 64.4655 22.5011 64.6584 22.6242C65.04 22.9647 63.95 23.3626 64.3776 23.7408C65.0466 24.1379 65.1279 22.4626 67.0387 22.5028C67.4393 22.4314 67.6609 21.7545 68.2207 22.0285C69.1039 22.6849 69.8032 24.0731 69.7983 21.9612C69.7926 21.2516 69.0415 21.3492 68.7805 21.4017C66.4001 21.9104 66.712 19.3391 65.2756 18.5096C64.2028 18.2569 64.486 18.9592 64.367 19.5187C64.1552 20.5107 63.066 20.4286 62.4298 20.9209C61.9973 21.2491 61.3833 21.4599 60.9031 21.6363Z" fill="white"/>
<path d="M52.1631 17.1599L51.1354 19.8814C50.9573 19.2767 51.2897 18.6179 51.3135 17.9845C50.762 19.8715 50.2695 21.7643 50.0503 23.7277C52.4676 14.6575 49.0653 29.0361 48.6812 31.9446C50.3992 27.3746 50.8506 22.1385 52.1631 17.1599Z" fill="black"/>
<path d="M50.7244 29.1525C51.7914 26.2341 52.366 23.2214 52.6943 20.1537C52.0366 23.1533 51.3799 26.1529 50.7244 29.1525Z" fill="black"/>
<path d="M52.0696 20.2711C51.6977 23.0607 50.3253 26.5304 50.4476 28.9942C50.8252 26.1998 52.173 22.7481 52.0696 20.2711Z" fill="black"/>
<path d="M69.0737 15.7061C68.8447 15.5896 68.3834 15.3869 68.3038 15.7758C68.2946 15.8264 68.298 15.8784 68.3136 15.9274C68.3291 15.9763 68.3564 16.0207 68.3931 16.0567C68.4297 16.0927 68.4746 16.1192 68.5239 16.1339C68.5731 16.1486 68.6252 16.151 68.6756 16.1409C68.8611 16.1048 69.0155 15.8628 69.0737 15.7061Z" fill="white"/>
<path d="M53.48 10.8866C53.1443 11.4609 52.0148 12.1263 52.1133 12.7129C52.536 12.1952 53.4529 11.4527 53.48 10.8866Z" fill="#C4C3C6"/>
<path d="M55.0978 10.2295C54.9336 10.4313 54.2852 10.625 54.4362 10.8621C54.602 10.6561 55.1396 10.4551 55.0978 10.2295Z" fill="#C4C3C6"/>
<path d="M51.3877 13.6525L51.382 13.6337C51.382 13.6337 51.3967 13.6501 51.3877 13.6525Z" fill="#C4C3C6"/>
<path d="M66.5342 29.3214C65.8997 29.1754 65.083 29.0302 64.7341 29.4584C65.3735 29.7751 65.7963 29.4921 66.5342 29.3214Z" fill="white"/>
<path d="M58.2604 19.8362C58.3402 19.6242 58.4475 19.4236 58.5797 19.2397C58.7042 19.0475 58.8547 18.8736 59.0271 18.7228C59.3332 18.4545 59.719 18.2543 60.1327 18.2396C60.5341 18.2256 61.0036 18.3946 61.1998 18.7655C61.2479 18.8598 61.267 18.9663 61.2546 19.0714C61.2422 19.1766 61.1988 19.2757 61.13 19.3562C60.9954 19.5203 60.7746 19.5958 60.5965 19.7C60.3257 19.8632 60.044 20.0077 59.7535 20.1324C59.3562 20.2965 58.9269 20.445 58.5149 20.239C58.3934 20.1783 58.2744 20.0938 58.2481 19.9716C58.2405 19.9261 58.2448 19.8795 58.2604 19.8362Z" fill="#C4C3C6"/>
<path d="M59.9995 19.317C60.1368 19.2254 60.2536 19.1064 60.3426 18.9675C60.5371 18.6819 60.547 18.4284 60.1316 18.4177C59.8148 18.4087 59.2287 18.8362 59.1795 19.1562C59.1442 19.3719 59.3092 19.4212 59.5004 19.431C59.6746 19.4457 59.849 19.4059 59.9995 19.317Z" fill="white"/>
</g>
<path d="M60 46C47.8497 46 38 36.1503 38 24H34C34 38.3594 45.6406 50 60 50V46ZM82 24C82 36.1503 72.1503 46 60 46V50C74.3594 50 86 38.3594 86 24H82ZM60 2C72.1503 2 82 11.8497 82 24H86C86 9.6406 74.3594 -2 60 -2V2ZM60 -2C45.6406 -2 34 9.6406 34 24H38C38 11.8497 47.8497 2 60 2V-2Z" fill="black"/>
<g clip-path="url(#clip3_3354_146632)">
<path d="M0 24C0 10.7452 10.7452 0 24 0C37.2548 0 48 10.7452 48 24C48 37.2548 37.2548 48 24 48C10.7452 48 0 37.2548 0 24Z" fill="#FFE538"/>
<path d="M26.7058 56.625C21.9141 56.625 16.7576 55.8657 12.559 54.541C7.66426 52.9983 4.97229 51.0405 4.55829 48.7227C4.24732 46.9822 5.20807 44.1537 6.78613 42.144C7.26418 41.5351 7.58443 41.2817 8.44122 40.605C8.75683 40.3562 9.14856 40.048 9.67953 39.6182C9.71016 39.5932 12.8514 37.0451 15.4914 34.0746C15.7114 33.8258 16.0484 33.4499 16.2229 32.8892C16.3695 32.4251 16.3473 32.0621 16.2396 31.0475C16.0976 29.709 15.9852 28.6452 15.6501 28.3305L15.6019 28.3166C15.134 28.1788 14.6819 27.9921 14.2531 27.7596C14.0934 27.6761 12.675 26.913 11.5426 25.7249C10.1084 24.2183 9.68603 22.6486 9.14578 20.6602C8.67051 18.8965 8.01886 16.4905 8.83759 14.3935L8.86173 14.3332C8.93185 14.1719 8.97903 14.0016 9.0019 13.8273C9.03253 13.5692 8.99354 13.4476 8.88772 13.1227C8.75905 12.7624 8.67154 12.3888 8.62688 12.0088C8.33911 9.21287 11.0691 7.18739 11.9686 6.52182C12.4495 6.16537 13.5745 5.33086 15.1888 5.0663C15.4097 5.0301 15.5601 5.01803 15.6696 5.00875C15.7448 5.00464 15.8196 4.99502 15.8933 4.97997C16.2544 4.91314 16.3825 4.84166 16.6926 4.66715C17.0564 4.4528 17.4392 4.27257 17.8362 4.12875C18.7905 3.78901 19.6185 3.75745 20.2831 3.72403C20.6424 3.72152 21.0005 3.6839 21.3525 3.61171L22.3095 3.375H23.2805C25.7432 3.375 27.2943 3.76302 27.4633 3.80664C29.5714 4.35803 30.9814 5.5852 31.7388 6.24427C32.1733 6.62673 32.5841 7.0353 32.9688 7.46773C33.4107 7.95321 33.5945 8.15372 34.0642 8.36443L34.2071 8.4257C34.7611 8.64018 35.2685 8.95945 35.7016 9.36603C36.7487 10.3658 37.017 11.5994 37.1618 12.2622C37.5052 13.8403 37.2843 15.1333 37.1776 15.7553C37.0049 16.7662 36.6986 17.5301 36.1425 18.9179C35.9757 19.3556 35.7641 19.7749 35.5113 20.1692C35.3714 20.3836 35.2163 20.5878 35.0472 20.78L35.0555 20.8069C35.1298 21.0529 35.2226 21.3639 35.3034 21.7352C35.5178 22.7321 35.489 23.4469 35.4361 24.5293C35.3582 26.2298 35.2913 27.6974 34.1421 28.8308C34.0883 28.8838 34.0326 28.9357 33.975 28.9887L33.9435 29.0165C33.9435 29.0676 33.9435 29.14 33.9435 29.2022C33.9435 29.295 33.9491 29.3878 33.9491 29.4695C33.9426 31.0847 33.0523 32.3527 32.4239 33.0461C32.5344 33.074 32.6458 33.099 32.7572 33.1232C33.5924 33.2927 34.4428 33.376 35.295 33.3719C35.8289 33.3716 36.3623 33.3407 36.8926 33.2791C37.6095 33.1914 38.3199 33.0568 39.0192 32.8762C39.7619 32.6989 40.4627 32.53 41.2833 32.53C41.8661 32.5318 42.4457 32.6172 43.0043 32.7834C43.7764 33.0028 44.5062 33.3502 45.1634 33.811C47.4776 35.506 47.6484 39.1643 47.5444 41.1935C47.3913 44.1918 46.5057 47.2523 45.1774 49.3808C42.2682 54.0518 35.7053 56.625 26.7058 56.625Z" fill="black"/>
<path d="M12.8438 15.2568C12.8999 15.3765 12.9455 15.5007 12.9803 15.6281C13.0165 15.8138 13.5298 15.7544 13.2346 16.0607C13.036 16.2668 12.7993 16.0134 12.7203 15.8695C12.6201 15.6903 12.4075 15.3794 12.841 15.2596L12.8438 15.2568Z" fill="black"/>
<path d="M45.245 40.3942C45.2579 39.945 45.238 39.4954 45.1856 39.0491C45.0464 37.8071 44.9071 36.4983 43.8805 35.6396C42.8139 34.7475 41.5282 34.7113 40.2082 34.7865C38.6172 34.8794 37.0317 35.0307 35.4499 35.2182C35.2852 35.224 35.1209 35.2395 34.958 35.2646C33.9777 35.1578 32.9975 35.0511 32.0181 34.9341C31.5392 34.8775 31.3424 35.0799 31.2338 35.5431C30.816 37.3328 30.6564 39.2088 29.6919 40.8258C29.1349 41.7643 28.6708 43.0277 27.3935 43.0537C24.9689 43.1019 22.7253 42.1941 20.5559 41.2213C17.8324 39.9987 15.1617 38.6982 12.2368 40.6188C9.48633 42.4243 6.68761 44.2019 6.89461 48.1174H6.94566C7.02457 48.692 7.37174 49.2099 7.90363 49.6072C10.8157 51.7776 14.2162 53.1996 17.8064 53.7482C19.9033 54.0583 21.9966 54.1028 24.113 54.0397C26.1775 53.9784 28.2355 53.8476 30.2749 53.5134C32.1778 53.2006 34.0223 52.6325 35.8166 51.9353C36.8182 51.5464 37.8077 51.124 38.7871 50.6896C39.59 50.335 40.4756 50.024 41.2284 49.5682C41.872 49.1936 42.3645 48.6059 42.6208 47.9067C42.7563 47.5353 42.7777 47.164 42.7879 46.7788C42.9457 46.0678 43.1432 45.3662 43.3792 44.6772C43.4172 44.6178 43.4553 44.5593 43.4952 44.5018C43.9974 43.7638 44.507 43.101 44.8496 42.2804C45.2404 41.755 45.3434 41.0811 45.245 40.3942Z" fill="#C4C3C6"/>
<path d="M11.4509 11.5549C11.6542 11.6839 11.786 11.6171 11.9456 11.4946C12.1944 11.3089 12.471 11.334 12.7365 11.4509C13.0345 11.5827 12.8368 11.8324 12.8396 12.0246C12.8479 12.6864 12.8396 13.3483 12.8312 14.0111C12.7737 14.0624 12.7142 14.1116 12.653 14.1587C12.6409 14.1169 12.6298 14.0751 12.6177 14.0352C12.511 13.6927 12.0988 13.7196 11.8751 13.9359C11.5307 14.2682 11.4824 14.814 11.4629 15.2642C11.4392 15.8561 11.4898 16.4486 11.6133 17.0279C11.7061 17.4679 11.8296 17.9887 12.1415 18.3275C12.4534 18.6663 12.8535 18.6273 13.2434 18.8074C13.4417 18.9002 13.6287 19.0158 13.8003 19.1518C13.973 19.2864 14.1066 19.4507 14.3257 19.4999C14.2626 19.0488 13.9034 18.6923 13.5423 18.4463C13.1812 18.2003 12.7068 18.0583 12.4153 17.7399C12.3494 17.6729 12.2993 17.5918 12.269 17.5028C12.2386 17.4138 12.2287 17.3191 12.2399 17.2257C12.2686 17.0931 12.3328 16.9709 12.4256 16.872C12.4681 16.9069 12.5179 16.932 12.5713 16.9453C12.6694 17.1073 12.795 17.2509 12.9426 17.3695C13.4615 17.7019 13.9433 18.0193 14.5206 18.2588C14.8782 18.4104 15.2436 18.543 15.6151 18.6561C15.7942 18.71 16.0096 18.7917 16.2055 18.7852C16.9689 19.0079 17.7885 18.9312 18.4973 18.5707C18.9271 18.3609 18.5512 17.7204 18.126 17.9293C17.8409 18.0708 17.5296 18.152 17.2117 18.1679C17.1996 18.1679 17.1885 18.1604 17.1755 18.1586L16.7717 18.102C16.8031 18.088 16.8367 18.0795 16.871 18.0769C18.2244 17.9386 19.0989 16.9908 20.0708 16.1944C20.1738 16.1099 20.3799 15.9707 20.3956 15.9874C21.0176 16.6631 21.8085 15.979 22.4861 16.2658C23.1433 16.5443 23.7328 16.1554 24.312 15.8815C25.0676 15.5242 25.8761 15.772 26.6577 15.8815C27.029 15.9326 27.3419 15.5251 27.7364 15.7414C27.7085 15.7256 27.2472 16.186 27.1878 16.2361C26.5705 16.7606 25.8186 16.9593 25.1001 17.2944C24.1251 17.7574 23.2143 18.3449 22.3905 19.0423C22.1225 19.2669 21.8626 19.4999 21.6107 19.7413C21.4771 19.8684 21.2515 20.3326 21.4297 20.4839C21.608 20.6352 21.9663 20.4709 22.1668 20.4338C23.1526 20.2481 24.183 20.4338 25.1159 19.978C26.7097 19.2019 28.583 19.4433 29.4954 20.4755C29.9076 20.9397 30.1118 21.504 29.9067 22.0601C29.721 22.5558 29.1167 22.5168 28.6851 22.5177C27.9731 22.5177 27.2147 22.1947 26.5584 22.3516C24.6712 22.8036 22.9122 22.7303 21.2497 21.6637C20.327 21.0715 20.0643 21.6275 20.0745 22.4063C20.0949 24.5599 21.5801 25.9319 22.8398 27.4171C23.8655 28.6238 25.3665 29.3238 26.0395 30.9557C26.68 32.5059 28.3695 32.388 29.7321 32.2756C31.0484 32.167 31.5645 31.0438 31.7697 29.8454C31.83 29.4946 32.2431 28.9033 31.7511 28.8132C31.1849 28.7093 30.9101 29.3368 30.8618 29.8946C30.8238 30.3319 30.5973 30.5946 30.2121 30.693C29.7832 30.8016 29.2207 30.9835 28.9543 30.5704C28.4437 29.7805 27.6231 29.8575 26.9037 29.6319C26.7181 29.5744 26.5324 29.5131 26.3468 29.4537C26.4489 29.295 26.5398 29.127 26.6568 28.9794C26.9919 28.5617 27.3846 28.3964 27.9564 28.506C28.5551 28.6201 29.2495 28.5227 29.6495 28.0864C29.8667 27.8506 29.6941 27.6297 29.5112 27.444C29.2003 27.1284 29.0889 26.8397 28.9905 26.4136C28.9218 26.1138 29.4657 26.1509 29.631 26.1639C30.1322 26.202 30.6298 26.2419 31.132 26.2661C31.251 26.2645 31.3698 26.2545 31.4875 26.2363C31.4101 26.3389 31.3257 26.4359 31.235 26.5269C30.8405 26.8713 30.9268 27.3233 31.1858 27.6018C31.3845 27.8153 31.5274 27.4162 31.6546 27.2992C31.9878 26.9836 32.3814 26.758 32.6757 26.3877C32.9427 26.0413 33.1509 25.6533 33.2921 25.2394C33.4925 24.6937 33.5778 24.1125 33.5427 23.5323C33.5195 23.2464 33.357 22.0916 32.8558 22.4769C32.3545 22.8621 31.7762 22.7618 31.2109 22.7034C31.1707 22.3024 31.1481 21.9001 31.1431 21.4966C31.1487 21.3694 31.157 21.2423 31.1719 21.1151C31.2387 20.521 31.5246 20.0476 31.8068 19.5603C32.3408 19.0153 32.9965 18.6049 33.72 18.3628C33.7837 18.3324 33.8393 18.2872 33.8821 18.2311C33.9249 18.1749 33.9536 18.1093 33.966 18.0398C33.9901 17.2786 34.0152 16.4543 33.538 15.85C33.3524 15.6161 33.0126 15.1798 33.2642 14.8818C33.5538 14.5383 34.0996 14.4288 34.5285 14.4121C34.7587 14.4037 35.2228 14.4186 35.3222 14.6776C35.4078 14.5371 35.4572 14.3777 35.466 14.2134C35.4558 14.0074 35.4183 13.8035 35.3547 13.6073C35.2405 13.1552 35.0762 12.7162 34.936 12.2724C34.7745 11.774 34.5313 11.4045 33.9539 11.3897C33.7885 11.3889 33.6248 11.4224 33.473 11.4881C33.3213 11.5538 33.1847 11.6501 33.0721 11.7712C32.9485 11.8969 32.851 12.0458 32.7852 12.2093C32.7463 12.2947 32.7267 12.3875 32.7277 12.4813C32.7277 12.5806 32.8205 12.6558 32.7936 12.7598C32.7936 12.7709 32.7889 12.7811 32.7871 12.7913C32.6782 12.873 32.5665 12.9498 32.452 13.0215C32.0233 13.0186 31.5954 12.9835 31.1719 12.9167C31.1989 12.8532 31.2077 12.7834 31.1973 12.7152C31.1869 12.647 31.1577 12.583 31.113 12.5305C31.0682 12.478 31.0098 12.4389 30.9441 12.4178C30.8784 12.3966 30.8082 12.3942 30.7412 12.4108L30.4543 12.4739C30.4012 12.4855 30.3514 12.509 30.3086 12.5426L29.902 12.5658C29.8092 12.5688 29.7207 12.6058 29.6532 12.6697L28.1513 12.9835C28.0962 12.9945 28.0451 13.02 28.0031 13.0574C27.9612 13.0947 27.93 13.1426 27.9127 13.1961L27.8366 13.2128C27.8208 12.5435 27.5099 11.8872 26.8731 11.5614C26.1852 11.2096 25.4575 10.9951 24.7195 10.7807C23.652 10.4707 22.6458 10.5849 21.802 11.3553C21.1095 11.9875 21.0417 13.1831 21.5875 13.9331C21.2241 13.9921 20.8643 14.0714 20.5098 14.1707C20.2183 14.2524 20.1794 14.6135 20.3483 14.7945C19.5973 14.9635 18.8631 15.1955 18.1112 15.3608C17.8869 15.4084 17.66 15.4428 17.4317 15.4638C17.0381 15.4768 16.6451 15.4737 16.2528 15.4545C16.521 15.337 16.7395 15.1291 16.8701 14.8669C17.1469 14.5572 17.3492 14.1882 17.4614 13.7883C17.4737 13.732 17.4734 13.6737 17.4606 13.6175C17.4479 13.5613 17.4229 13.5086 17.3874 13.4631C17.352 13.4177 17.307 13.3806 17.2556 13.3545C17.2042 13.3284 17.1477 13.3139 17.0901 13.3121C17.0348 13.2769 16.9708 13.2578 16.9052 13.2568C16.8397 13.2558 16.7751 13.273 16.7188 13.3065C16.626 13.3613 16.5331 13.4188 16.4403 13.4773C16.391 13.4383 16.3313 13.4145 16.2686 13.4089C16.206 13.4033 16.143 13.4161 16.0876 13.4458C16.3131 12.7291 16.173 11.8612 15.7655 11.1762C15.7264 11.1103 15.6676 11.0583 15.5974 11.0276C15.5618 10.9731 15.5141 10.9274 15.4582 10.894C15.2373 10.7427 15.0655 10.9172 14.8799 11.0026C14.7156 10.8002 14.7054 10.3314 14.7406 10.1421C14.8335 9.65937 15.0572 9.44401 15.4833 9.24072C16.3926 8.81272 17.3394 8.46935 18.3117 8.21499C20.2063 7.71219 22.1716 7.52959 24.1263 7.67474C24.4605 7.69887 24.5589 7.34056 24.4243 7.11314C24.61 7.11314 24.7956 7.10757 24.9813 7.11314L25.4807 7.13913C25.8053 7.16302 26.1278 7.20923 26.4461 7.27744C27.7809 7.56891 28.8596 8.45634 30.0747 9.04114C30.1435 9.07566 30.2213 9.08821 30.2975 9.07709C30.3737 9.06597 30.4447 9.03171 30.5008 8.97895C30.6034 9.02595 30.7092 9.06596 30.8173 9.0987C31.197 9.2138 31.4086 8.7376 31.1775 8.48418L31.2044 8.50182L31.1663 8.47212C31.1471 8.45264 31.126 8.43522 31.1032 8.42013L31.0883 8.40992L30.9389 8.29111C30.9278 8.21869 30.8955 8.15119 30.8461 8.0971C30.7403 7.97464 30.5906 7.89864 30.4293 7.88545C30.1211 7.64225 29.8111 7.40275 29.4945 7.17254C29.1891 6.92284 28.8809 6.67778 28.5542 6.45499C27.9122 6.0161 27.1846 5.71809 26.4192 5.58057C24.8411 5.15078 23.2677 5.62977 21.711 5.59635C18.967 5.53787 16.6269 6.61744 14.2849 7.67195C14.1623 7.70848 14.043 7.75538 13.9284 7.81212C13.8807 7.8366 13.8346 7.86388 13.7901 7.89381L13.5515 8.00056C12.3903 8.51296 11.3423 9.53684 11.1622 11.0351C11.1315 11.2857 11.2448 11.4249 11.4509 11.5549ZM33.8964 12.8183C33.9139 12.8003 33.9298 12.7807 33.9437 12.7598L33.9493 12.7765C33.9363 12.7923 33.9251 12.809 33.9121 12.8248C33.8991 12.8405 33.8666 12.8823 33.8444 12.9176L33.7822 12.9278C33.8202 12.8907 33.8592 12.8563 33.8964 12.8183Z" fill="#C4C3C6"/>
<path d="M11.4533 18.0165C11.4051 17.6545 11.3011 17.299 11.1442 16.5842C11.0347 18.8965 11.5954 19.9603 12.9516 20.3901C13.1959 20.4521 13.4439 20.4983 13.6942 20.5284C13.6385 20.3756 13.5441 20.2399 13.4203 20.1345C13.2965 20.0291 13.1475 19.9575 12.9878 19.9269C11.8924 19.7468 11.5814 18.9699 11.4533 18.0165Z" fill="#C4C3C6"/>
<path d="M11.2456 13.9796C11.5334 13.9351 11.5733 13.7698 11.5 13.5201C11.4601 13.3809 11.4823 13.0291 11.4684 12.6847C11.4526 12.2698 11.3839 11.8688 11.086 11.8827C10.7239 11.8994 10.646 12.3932 10.6905 12.7181C10.7564 13.1971 10.7518 14.0576 11.2456 13.9796Z" fill="#C4C3C6"/>
<path d="M24.6042 21.2907C24.721 21.3045 24.8386 21.3094 24.9561 21.3056C25.179 21.2972 25.4011 21.273 25.6207 21.2332C25.9279 21.1821 26.2436 21.1125 26.4645 20.873C26.5573 20.7802 26.0477 20.6168 25.7859 20.6307C25.2447 20.6604 24.7193 20.7607 24.3647 21.2397C24.3647 21.2397 24.5643 21.2842 24.6005 21.2898L24.6042 21.2907Z" fill="#C4C3C6"/>
<path d="M22.2127 16.9203C22.1199 16.9584 21.8581 16.769 21.7616 16.7347C21.5733 16.6808 21.3752 16.6706 21.1823 16.705C20.811 16.7607 20.4499 16.9203 20.1139 17.0763C19.7426 17.2471 19.3128 17.4689 19.1856 17.8885C19.1615 17.9674 19.1689 18.0538 19.1123 18.1206C19.3156 18.0881 19.5439 17.9136 19.725 17.8096C20.1891 17.546 20.6532 17.2332 21.1851 17.1246C21.5277 17.0587 21.886 17.0559 22.2127 16.9203Z" fill="#C4C3C6"/>
<path d="M43.5101 35.3725C42.8148 34.8592 41.8587 34.7989 41.0251 34.8342C39.8258 34.8852 38.6358 35.0486 37.4448 35.1943C36.4358 35.3178 35.2708 35.2714 34.3212 35.6668C33.2073 36.1309 33.1497 37.3015 32.7533 38.2919C32.1261 39.8808 31.3038 41.3856 30.3055 42.7718C29.0793 44.4631 26.9071 44.3006 25.0887 43.9145C22.9119 43.4503 20.736 42.9472 18.5908 42.368C16.4456 41.7887 14.0191 41.047 11.846 41.8983C10.9832 42.2398 10.1979 42.7512 9.53648 43.4021C8.37058 44.5457 7.17219 46.8468 8.38079 48.3219C11.0291 51.5643 15.5841 52.7339 19.5942 52.8704C25.4813 53.069 31.3424 51.8066 36.9213 50.0159C38.2608 49.5862 40.2417 49.3355 41.0168 48.0564C41.6926 46.9425 41.5153 45.357 41.9126 44.114C42.2839 42.9556 42.8093 41.682 43.9417 41.0786C44.6788 40.6859 44.9628 39.8115 44.9443 38.8508C44.9201 37.4899 44.2945 35.9518 43.5101 35.3725Z" fill="white"/>
<path d="M12.8746 15.2253C12.897 15.2434 12.9221 15.2581 12.9488 15.2689C13.1744 15.3617 13.4909 15.2503 13.7332 15.2763C14.3491 15.3311 14.9304 15.585 15.3892 15.9994C15.5851 16.1795 15.7243 16.4636 15.9462 16.6056C16.1541 16.7393 16.4103 16.7049 16.6359 16.6511C17.1483 16.5299 17.649 16.3637 18.1323 16.1545C18.3355 16.0663 18.5193 15.9103 18.7421 15.8704C18.8275 15.8555 18.9723 15.8416 19.028 15.9289C19.0837 16.0161 18.9436 16.1897 19.0596 16.2658C19.1617 16.3336 19.6695 16.0013 19.7604 15.9428C20.0928 15.7274 20.3963 15.4712 20.7268 15.2531C21.3515 14.84 22.0885 14.5513 22.8441 14.5411C23.6573 14.5309 24.5039 14.7268 25.3133 14.8085C26.0188 14.8818 26.78 15.0545 27.4808 14.8697C27.7941 14.7843 28.0869 14.6362 28.3413 14.4344C28.4896 14.3005 28.63 14.1583 28.7618 14.0083C28.8429 13.9156 28.9425 13.841 29.0542 13.7892C29.2399 13.7372 29.1916 13.9489 29.1582 14.0974C29.0654 14.5291 28.7266 14.8623 28.5084 15.2336C28.3269 15.5254 28.1749 15.8345 28.0545 16.1563C27.9617 16.4348 27.9431 16.7346 27.8243 17.0057C27.4734 17.8012 26.5878 17.8578 25.8694 18.1196C25.5816 18.2245 25.1732 18.3609 24.9894 18.6255C24.7109 19.0293 25.331 19.1574 25.6076 19.15C25.9724 19.1407 26.3372 19.15 26.7029 19.136C27.0334 19.1212 27.3611 19.0571 27.6925 19.0646C28.219 19.0814 28.7305 19.2447 29.1693 19.5361C29.5919 19.8296 29.978 20.1724 30.3195 20.5572C30.4801 20.7262 30.7307 20.9174 30.8449 21.1142C30.9488 21.2998 30.8551 21.5625 30.7966 21.7482C30.7084 22.0267 30.5655 22.2875 30.5051 22.5771C30.4474 22.8939 30.4449 23.2184 30.4977 23.536C30.5905 24.1682 30.7678 24.7669 30.765 25.4102C30.7537 25.5215 30.7853 25.6329 30.8535 25.7217C30.9217 25.8104 31.0212 25.8696 31.1317 25.8873C31.3517 25.9402 31.5958 25.8873 31.568 25.6246C31.5411 25.335 31.4445 25.0352 31.4055 24.7428C31.3573 24.3761 31.3127 24.0085 31.2719 23.64C31.192 22.9438 31.0964 22.2392 31.0862 21.5365C31.0924 21.1837 31.1518 20.8338 31.2626 20.4987C31.3489 20.2203 31.5531 19.9548 31.5717 19.6633C31.581 19.3664 31.6508 19.0745 31.7768 18.8056C31.9133 18.503 32.0386 18.1892 32.0154 17.8504C31.9922 17.5116 31.8567 17.1904 31.9569 16.8386C32.0498 16.5137 32.2252 16.2222 32.2855 15.8862C32.3876 15.3162 32.2391 14.8651 31.7286 14.5866C31.2375 14.3081 30.7316 14.0296 30.3724 13.5822C30.2016 13.3706 30.0326 13.093 30.0438 12.8099C30.3436 12.8443 30.6072 13.2341 30.843 13.3956C31.0996 13.5748 31.3893 13.701 31.6952 13.767C32.24 13.8774 33.0876 13.7994 33.4979 13.3845C33.7652 13.1153 33.9267 12.7477 34.1746 12.4646C34.3333 12.6094 34.2358 12.9185 34.1235 13.067C34.0557 13.1599 33.8543 13.2267 33.8515 13.3529C33.8515 13.5507 34.1718 13.5757 34.2989 13.5256C34.5208 13.4328 34.6758 13.1803 34.7417 12.9631C34.8216 12.6994 34.7798 12.4275 34.7259 12.1638C34.6777 11.9271 34.6238 11.5623 34.4679 11.3692C34.3119 11.1762 33.9369 11.0295 33.7253 10.8745C33.4895 10.7055 33.2611 10.5032 33.0374 10.3175C32.8137 10.1319 32.6735 9.86266 32.4619 9.65566C32.2503 9.44866 32.0275 9.23794 31.8038 9.03558C31.3824 8.66445 30.9344 8.32472 30.4633 8.01913C29.6196 7.44917 28.7925 6.84765 27.8856 6.37702C26.896 5.86369 25.8434 5.55087 24.7239 5.54622C23.5533 5.54158 22.3837 5.73745 21.215 5.795C20.1705 5.83334 19.1356 6.00906 18.1369 6.31761C17.6406 6.47711 17.1589 6.67898 16.6972 6.92099C16.3407 7.10664 16.0047 7.33963 15.6185 7.46309C15.0059 7.6571 14.3338 7.59027 13.8167 8.03676C13.0741 8.67819 14.4313 8.96503 14.5055 9.52199C14.5603 9.93135 13.9662 11.4491 14.9186 10.997C15.1906 10.868 15.586 10.7185 15.6064 11.1622C15.6167 11.3739 15.4904 11.6728 15.7178 11.8074C15.8237 11.8696 15.9592 11.8445 16.0409 11.9587C16.1226 12.0729 16.0864 12.2038 16.065 12.3179C15.9907 12.7189 15.8432 13.1404 15.508 13.3956C15.3366 13.5207 15.1365 13.6005 14.926 13.6277C14.8007 13.6463 14.6782 13.6398 14.5547 13.6463C14.3988 13.6537 14.4136 13.6463 14.3783 13.7734C14.3208 13.9869 14.357 14.2311 14.1686 14.3945C13.9504 14.5801 13.645 14.4334 13.4259 14.3295C13.2477 14.2459 12.9776 14.0575 12.7864 14.2051C12.6341 14.323 12.6555 14.5764 12.6815 14.7407C12.7075 14.905 12.7381 15.1148 12.8746 15.2253ZM27.5412 13.3474C27.6721 14.0352 25.7775 13.9043 25.4591 13.87C24.5521 13.7772 23.5728 13.5284 22.8284 12.9807C23.7984 13.1339 24.6979 12.9742 25.6911 12.9454C26.0457 12.9352 27.3694 12.8526 27.5217 13.2796C27.531 13.3015 27.5385 13.3242 27.5439 13.3474H27.5412ZM15.288 13.8013C15.4208 13.8421 15.5359 13.9461 15.6965 13.96C15.9313 13.9805 16.156 13.8672 16.3556 13.7595C16.5347 13.6611 16.9366 13.5813 17.0898 13.7697C17.2755 13.9953 16.9199 14.6525 16.6786 14.7323C16.4168 14.8177 16.1588 14.6284 15.9601 14.4817C15.7392 14.3183 15.4839 14.2032 15.2676 14.0464C15.1423 13.948 15.0049 13.7122 15.2936 13.8013H15.288Z" fill="white"/>
<path d="M17.1798 18.4695C16.8266 18.4649 16.4863 18.3357 16.219 18.1047C15.9406 17.8401 15.819 17.4549 15.65 17.1217C15.4291 16.6845 15.0931 16.2426 14.6531 16.0078C14.4373 15.8867 14.185 15.8481 13.9429 15.8991C13.7276 15.9511 13.4472 16.134 13.5633 16.3911C13.6478 16.5814 13.9225 16.6278 14.085 16.7281C14.8582 17.2052 15.2286 18.1103 15.9777 18.6125C16.0691 18.6734 16.1672 18.7235 16.2701 18.7619C16.6522 18.8974 17.0672 18.9094 17.4564 18.7963C17.7293 18.7183 18.0208 18.6635 18.2761 18.5289C18.3522 18.4881 18.5741 18.372 18.5546 18.2504C18.523 18.088 18.07 18.3136 17.993 18.3433C17.7334 18.4404 17.4566 18.4834 17.1798 18.4695Z" fill="white"/>
<path d="M21.9216 24.4058C22.453 24.8891 23.0364 25.3119 23.6611 25.6664C24.5811 26.1704 25.449 26.7599 26.4608 27.1247C26.9147 27.2881 27.4095 27.2175 27.8699 27.3475C28.0908 27.4077 28.2917 27.5256 28.4519 27.6891C28.6051 27.8404 28.723 28.0149 28.9578 27.8747C29.2604 27.6984 28.9708 27.2751 28.8743 27.0523C28.71 26.6754 28.5401 26.3013 28.3814 25.9217C28.2106 25.5151 28.1567 25.0602 28.5299 24.7753C28.9031 24.4903 29.3533 24.2183 29.0339 23.7263C28.6701 23.161 28.0231 23.0097 27.3946 23.2056C26.1684 23.588 24.9626 23.8554 23.7038 23.3346C23.1859 23.1202 22.7626 22.6727 22.1481 22.6848C21.2857 22.7127 21.4407 23.9825 21.9216 24.4058Z" fill="white"/>
<path d="M29.1768 31.8784C29.5323 31.7911 30.105 31.9211 30.1635 31.5071C30.2415 30.965 29.6567 31.2091 29.3568 31.1153C29.2986 31.0953 29.239 31.0791 29.1786 31.0671C28.8073 31.0105 28.4314 30.9585 28.0582 30.9018C27.685 30.8452 27.4817 31.0708 27.6581 31.3391C28.0016 31.8635 28.6347 31.7698 29.1768 31.8784Z" fill="white"/>
<path d="M11.8223 15.7005C11.8437 15.9103 11.8632 16.1201 11.8771 16.3299C11.8827 16.4162 11.8854 16.6483 12.0302 16.6C12.603 16.4097 12.2308 15.7182 12.3737 15.2578C12.4665 14.9709 12.202 14.7444 12.0024 14.8168C11.7425 14.9097 11.774 15.1417 11.7945 15.3682C11.8 15.4796 11.8112 15.5901 11.8223 15.7005Z" fill="white"/>
<path d="M23.3232 15.5855C23.0447 15.5019 22.7662 15.3998 22.4877 15.3404C22.3219 15.3025 22.1488 15.3108 21.9874 15.3645C21.6931 15.4797 21.1519 15.3989 21.1761 15.7628C21.1946 15.9995 21.6662 15.6904 21.941 15.6885C22.1396 15.6885 22.3392 15.6727 22.9305 15.6467H22.9249L23.3232 15.5855Z" fill="white"/>
<path d="M30.3364 25.7016C30.3643 25.4074 30.0849 25.3248 29.8138 25.3368C29.5428 25.3489 29.2151 25.4037 29.2188 25.7016C29.2183 25.7248 29.2211 25.7479 29.2272 25.7703C29.2643 25.8984 29.4008 25.9049 29.5131 25.9021C29.5743 25.9021 29.6662 25.9114 29.7656 25.9198C30.0134 25.9393 30.3142 25.942 30.3364 25.7016Z" fill="white"/>
<path d="M13.1078 16.6315C13.1233 16.5909 13.129 16.5473 13.1246 16.5041C13.1202 16.4609 13.1057 16.4193 13.0823 16.3826C13.059 16.346 13.0274 16.3154 12.99 16.2932C12.9527 16.2709 12.9107 16.2577 12.8674 16.2546C12.6353 16.2175 12.5146 16.4357 12.5536 16.6436C12.7523 16.6817 13.0075 16.9276 13.1078 16.6315Z" fill="white"/>
<path d="M13.519 13.0197C13.4261 13.1534 13.6972 13.4263 13.8355 13.4142C13.9738 13.4021 14.0564 13.2378 14.1028 13.1283C14.1267 13.0683 14.1448 13.0061 14.1567 12.9426C14.2059 12.7013 14.1984 12.3717 13.9274 12.3764C13.5171 12.3857 13.6601 12.809 13.519 13.0197Z" fill="white"/>
<path d="M13.5226 9.99357C13.5711 10.0044 13.6212 10.0054 13.67 9.99656C13.7189 9.9877 13.7654 9.96913 13.807 9.94195C13.8485 9.91478 13.8842 9.87955 13.9119 9.83835C13.9396 9.79715 13.9587 9.75082 13.9682 9.7021C13.9715 9.67931 13.9715 9.65619 13.9682 9.6334C13.9394 9.36328 13.5579 9.23425 13.3351 9.2064C13.156 9.18319 12.7856 9.2064 12.871 9.39205C12.9759 9.61669 13.2739 9.92488 13.5226 9.99357Z" fill="white"/>
</g>
<path d="M24 46C11.8497 46 2 36.1503 2 24H-2C-2 38.3594 9.6406 50 24 50V46ZM46 24C46 36.1503 36.1503 46 24 46V50C38.3594 50 50 38.3594 50 24H46ZM24 2C36.1503 2 46 11.8497 46 24H50C50 9.6406 38.3594 -2 24 -2V2ZM24 -2C9.6406 -2 -2 9.6406 -2 24H2C2 11.8497 11.8497 2 24 2V-2Z" fill="black"/>
<defs>
<clipPath id="clip0_3354_146632">
<path d="M72 24C72 10.7452 82.7452 0 96 0C109.255 0 120 10.7452 120 24C120 37.2548 109.255 48 96 48C82.7452 48 72 37.2548 72 24Z" fill="white"/>
</clipPath>
<clipPath id="clip1_3354_146632">
<rect width="39" height="70.125" fill="white" transform="translate(78 -16.125)"/>
</clipPath>
<clipPath id="clip2_3354_146632">
<path d="M36 24C36 10.7452 46.7452 0 60 0C73.2548 0 84 10.7452 84 24C84 37.2548 73.2548 48 60 48C46.7452 48 36 37.2548 36 24Z" fill="white"/>
</clipPath>
<clipPath id="clip3_3354_146632">
<path d="M0 24C0 10.7452 10.7452 0 24 0C37.2548 0 48 10.7452 48 24C48 37.2548 37.2548 48 24 48C10.7452 48 0 37.2548 0 24Z" fill="white"/>
</clipPath>
</defs>
</svg>
