<svg width="32" height="32" viewBox="0 0 32 32" fill="none" xmlns="http://www.w3.org/2000/svg">
<path fill-rule="evenodd" clip-rule="evenodd" d="M24.3344 8.97901C25.2529 9.22487 25.9747 9.94664 26.2205 10.8651C26.6648 12.5281 26.6666 16 26.6666 16C26.6666 16 26.6666 19.4718 26.2205 21.1349C25.9747 22.0533 25.2529 22.7751 24.3344 23.0209C22.6714 23.467 15.9999 23.467 15.9999 23.467C15.9999 23.467 9.32842 23.467 7.66537 23.0209C6.74693 22.7751 6.02516 22.0533 5.77931 21.1349C5.33325 19.4718 5.33325 16 5.33325 16C5.33325 16 5.33325 12.5281 5.77931 10.8651C6.02516 9.94664 6.74693 9.22487 7.66537 8.97901C9.32842 8.53296 15.9999 8.53296 15.9999 8.53296C15.9999 8.53296 22.6714 8.53296 24.3344 8.97901ZM19.4068 16.0002L13.8645 19.1998V12.8005L19.4068 16.0002Z" fill="#FF0000"/>
</svg>
