<svg width="40" height="40" viewBox="0 0 40 40" fill="none" style="color:#4038FF;" xmlns="http://www.w3.org/2000/svg">
<path d="M20.0002 37.9167C29.8953 37.9167 37.9168 29.8951 37.9168 20C37.9168 10.1049 29.8953 2.08337 20.0002 2.08337C10.1051 2.08337 2.0835 10.1049 2.0835 20C2.0835 29.8951 10.1051 37.9167 20.0002 37.9167Z" stroke="currentColor" stroke-width="3" stroke-miterlimit="10"/>
<path fill-rule="evenodd" clip-rule="evenodd" d="M11.6852 8.73553C12.5228 8.11634 13.4324 7.58804 14.3995 7.16553L15.6006 9.91459C14.8419 10.2461 14.1273 10.661 13.4686 11.1479L11.6852 8.73553ZM25.6005 7.16553C26.5676 7.58804 27.4772 8.11634 28.3148 8.73553L26.5314 11.1479C25.8727 10.661 25.1581 10.2461 24.3994 9.91459L25.6005 7.16553ZM7.16557 14.3994C7.58808 13.4324 8.11638 12.5228 8.73558 11.6852L11.148 13.4685C10.661 14.1273 10.2461 14.8418 9.91463 15.6005L7.16557 14.3994ZM31.2644 11.6852C31.8836 12.5228 32.4119 13.4324 32.8344 14.3994L30.0854 15.6005C29.7539 14.8418 29.339 14.1273 28.852 13.4685L31.2644 11.6852ZM6 20C6 19.471 6.02941 18.9483 6.08679 18.4335L9.06832 18.7658C9.02322 19.1705 9 19.5822 9 20C9 20.4177 9.02322 20.8294 9.06832 21.2341L6.08679 21.5664C6.02941 21.0517 6 20.529 6 20ZM33.9132 18.4335C33.9706 18.9483 34 19.471 34 20C34 20.529 33.9706 21.0517 33.9132 21.5664L30.9317 21.2341C30.9768 20.8294 31 20.4177 31 20C31 19.5822 30.9768 19.1705 30.9317 18.7658L33.9132 18.4335ZM8.73558 28.3147C8.11638 27.4771 7.58808 26.5675 7.16557 25.6005L9.91463 24.3994C10.2461 25.1581 10.661 25.8726 11.148 26.5314L8.73558 28.3147ZM32.8344 25.6005C32.4119 26.5675 31.8836 27.4771 31.2644 28.3147L28.852 26.5314C29.339 25.8726 29.7539 25.1581 30.0854 24.3994L32.8344 25.6005ZM14.3995 32.8344C13.4324 32.4119 12.5228 31.8836 11.6852 31.2644L13.4686 28.852C14.1273 29.3389 14.8419 29.7538 15.6006 30.0853L14.3995 32.8344ZM28.3148 31.2644C27.4772 31.8836 26.5676 32.4119 25.6005 32.8344L24.3994 30.0853C25.1581 29.7538 25.8727 29.3389 26.5314 28.852L28.3148 31.2644Z" fill="currentColor"/>
<path d="M20 9L20 31" stroke="currentColor" stroke-width="2" stroke-miterlimit="10" stroke-linecap="square"/>
<path d="M24.3478 13.5737C23.0155 13.1866 21.6205 12.9929 20.2174 13.0002C17.8261 13.0002 15.4348 13.7649 15.4348 16.0589C15.4348 20.2647 25 18.7353 25 22.9411C25 25.2352 22.8126 25.9823 20.2174 25.9999C18.4416 26.0067 16.6773 25.7481 15 25.2352" stroke="currentColor" stroke-width="3" stroke-miterlimit="10" stroke-linecap="square"/>
</svg>
