<svg width="40" height="40" viewBox="0 0 40 40" fill="none" style="color:#4038FF;" xmlns="http://www.w3.org/2000/svg">
<path d="M7.49984 10.8333C5.659 10.8333 4.1665 9.34079 4.1665 7.49996C4.1665 5.65913 5.659 4.16663 7.49984 4.16663C9.34067 4.16663 10.8332 5.65913 10.8332 7.49996C10.8332 9.34079 9.34067 10.8333 7.49984 10.8333Z" stroke="currentColor" stroke-width="3" stroke-miterlimit="10" stroke-linecap="square"/>
<path d="M9.99984 35.8333H4.99984L4.1665 26.6667L1.6665 25.8333V18.3333C1.6665 16.4925 3.159 15 4.99984 15H9.99984C11.2115 15 12.2723 15.6475 12.8557 16.6142" stroke="currentColor" stroke-width="3" stroke-miterlimit="10"/>
<path d="M32.4998 10.8333C34.3407 10.8333 35.8332 9.34079 35.8332 7.49996C35.8332 5.65913 34.3407 4.16663 32.4998 4.16663C30.659 4.16663 29.1665 5.65913 29.1665 7.49996C29.1665 9.34079 30.659 10.8333 32.4998 10.8333Z" stroke="currentColor" stroke-width="3" stroke-miterlimit="10" stroke-linecap="square"/>
<path d="M29.9999 35.8333H34.9999L35.8332 26.6667L38.3332 25.8333V18.3333C38.3332 16.4925 36.8407 15 34.9999 15H29.9999C28.7882 15 27.7274 15.6475 27.144 16.6142" stroke="currentColor" stroke-width="3" stroke-miterlimit="10"/>
<path d="M20 11.6666C17.2383 11.6666 15 9.42829 15 6.66663C15 3.90496 17.2383 1.66663 20 1.66663C22.7617 1.66663 25 3.90496 25 6.66663C25 9.42829 22.7617 11.6666 20 11.6666Z" stroke="currentColor" stroke-width="3" stroke-miterlimit="10" stroke-linecap="square"/>
<path d="M24.1665 38.3332H15.8332L14.9998 28.3332L11.6665 27.4999V19.1666C11.6665 17.3258 13.159 15.8333 14.9998 15.8333H24.9998C26.8407 15.8333 28.3332 17.3258 28.3332 19.1666V27.4999L24.9998 28.3332L24.1665 38.3332Z" stroke="currentColor" stroke-width="3" stroke-miterlimit="10" stroke-linecap="square"/>
</svg>
