<svg width="40" height="40" viewBox="0 0 40 40" fill="none" style="color:#4038FF;" xmlns="http://www.w3.org/2000/svg">
<path d="M14.1665 7.16667L19.9998 2.5L25.8332 7.16667" stroke="currentColor" stroke-width="3" stroke-linecap="square"/>
<path d="M32.8335 14.1667L37.5002 20L36.3335 21.4583" stroke="currentColor" stroke-width="3" stroke-linecap="square"/>
<path d="M19.9998 37.5001L14.1665 32.8334" stroke="currentColor" stroke-width="3" stroke-linecap="square"/>
<path d="M7.16667 25.8333L2.5 20L7.16667 14.1667" stroke="currentColor" stroke-width="3" stroke-linecap="square"/>
<path d="M15.8747 24.1248C13.5967 21.8468 13.5967 18.1533 15.8747 15.8752C18.1528 13.5972 21.8462 13.5972 24.1243 15.8752C24.7602 16.5111 25.2186 17.2573 25.4995 18.0523" stroke="currentColor" stroke-width="3" stroke-linecap="square"/>
<path d="M29.625 22.75L31.7498 27.2761L36.5 28.0019L33.0625 31.5247L33.8738 36.5L29.625 34.1511L25.3763 36.5L26.1875 31.5247L22.75 28.0019L27.5002 27.2761L29.625 22.75Z" stroke="currentColor" stroke-width="3" stroke-linecap="round"/>
</svg>
