<svg width="40" height="40" viewBox="0 0 40 40" fill="none" style="color:#4038FF;" xmlns="http://www.w3.org/2000/svg">
<path d="M7.49935 10.8334C5.65852 10.8334 4.16602 9.34092 4.16602 7.50008C4.16602 5.65925 5.65852 4.16675 7.49935 4.16675C9.34018 4.16675 10.8327 5.65925 10.8327 7.50008C10.8327 9.34092 9.34018 10.8334 7.49935 10.8334Z" stroke="currentColor" stroke-width="3" stroke-miterlimit="10" stroke-linecap="square"/>
<path d="M9.99935 35.8333H4.99935L4.16602 26.6667L1.66602 25.8333V18.3333C1.66602 16.4925 3.15852 15 4.99935 15H9.99935C11.211 15 12.2718 15.6475 12.8552 16.6142" stroke="currentColor" stroke-width="3" stroke-miterlimit="10"/>
<path d="M20 11.6667C17.2383 11.6667 15 9.42841 15 6.66675C15 3.90508 17.2383 1.66675 20 1.66675C22.7617 1.66675 25 3.90508 25 6.66675C25 9.42841 22.7617 11.6667 20 11.6667Z" stroke="currentColor" stroke-width="3" stroke-miterlimit="10" stroke-linecap="square"/>
<path d="M19 38.3334H15.8327L14.9993 28.3334L11.666 27.5001V19.1668C11.666 17.3259 13.1585 15.8334 14.9993 15.8334H24.9993" stroke="currentColor" stroke-width="3" stroke-miterlimit="10" stroke-linecap="square"/>
<path d="M29.625 22.75L31.7498 27.2761L36.5 28.0019L33.0625 31.5247L33.8738 36.5L29.625 34.1511L25.3763 36.5L26.1875 31.5247L22.75 28.0019L27.5002 27.2761L29.625 22.75Z" stroke="currentColor" stroke-width="3" stroke-linecap="round"/>
</svg>
