<svg width="40" height="40" viewBox="0 0 40 40" fill="none" style="color:#4038FF;" xmlns="http://www.w3.org/2000/svg">
<path d="M37.5 3.75H2.5V16.75H37.5V3.75Z" stroke="currentColor" stroke-width="3" stroke-linecap="square"/>
<path d="M19 23.25H2.5V36.25H18.5" stroke="currentColor" stroke-width="3" stroke-linecap="square"/>
<path d="M10.4533 10.2499H7.27148" stroke="currentColor" stroke-width="3" stroke-linecap="square"/>
<path d="M10.4533 29.7499H7.27148" stroke="currentColor" stroke-width="3" stroke-linecap="square"/>
<path d="M31.1368 11.875C32.0154 11.875 32.7277 11.1475 32.7277 10.25C32.7277 9.35254 32.0154 8.625 31.1368 8.625C30.2582 8.625 29.5459 9.35254 29.5459 10.25C29.5459 11.1475 30.2582 11.875 31.1368 11.875Z" fill="#4038FF"/>
<path d="M6.875 17.1562V22.8438" stroke="currentColor" stroke-width="3" stroke-linecap="square"/>
<path d="M29.625 22.75L31.7498 27.2761L36.5 28.0019L33.0625 31.5247L33.8738 36.5L29.625 34.1511L25.3763 36.5L26.1875 31.5247L22.75 28.0019L27.5002 27.2761L29.625 22.75Z" stroke="currentColor" stroke-width="3" stroke-linecap="round"/>
</svg>
