<svg width="40" height="40" viewBox="0 0 40 40" fill="none" style="color:#4038FF;" xmlns="http://www.w3.org/2000/svg">
<path d="M37.5 3.75H2.5V16.75H37.5V3.75Z" stroke="currentColor" stroke-width="3" stroke-linecap="square"/>
<path d="M37.5 23.25H2.5V36.25H37.5V23.25Z" stroke="currentColor" stroke-width="3" stroke-linecap="square"/>
<path d="M10.4533 10.2499H7.27148" stroke="currentColor" stroke-width="3" stroke-linecap="square"/>
<path d="M10.4533 29.7499H7.27148" stroke="currentColor" stroke-width="3" stroke-linecap="square"/>
<path d="M31.1368 11.875C32.0154 11.875 32.7277 11.1475 32.7277 10.25C32.7277 9.35254 32.0154 8.625 31.1368 8.625C30.2582 8.625 29.5459 9.35254 29.5459 10.25C29.5459 11.1475 30.2582 11.875 31.1368 11.875Z" fill="#4038FF"/>
<path d="M31.1368 31.375C32.0154 31.375 32.7277 30.6475 32.7277 29.75C32.7277 28.8525 32.0154 28.125 31.1368 28.125C30.2582 28.125 29.5459 28.8525 29.5459 29.75C29.5459 30.6475 30.2582 31.375 31.1368 31.375Z" fill="#4038FF"/>
<path d="M6.875 17.1562V22.8438" stroke="currentColor" stroke-width="3" stroke-linecap="square"/>
<path d="M32.3291 17.1562V22.8438" stroke="currentColor" stroke-width="3" stroke-linecap="square"/>
</svg>
