<svg width="278" height="370" viewBox="0 0 278 370" fill="none" xmlns="http://www.w3.org/2000/svg">
<path d="M245.262 121.312C243.44 115.23 243.582 112.505 237.41 111.259L226.953 114.117C222.75 113.269 216.854 109.006 213.195 111.259C211.713 112.171 206.941 111.355 205.49 111.259C201.657 104.778 186.441 110.589 182.376 108.167C179.665 106.553 175.613 106.553 170.218 108.167C164.091 107.136 160.64 106.556 159.865 106.425C158.702 106.23 157.547 106.158 156.413 106.2C155.657 106.228 150.263 111.022 140.232 120.581C140.077 121.836 140 122.779 140 123.412V244.778C140 253.313 146.193 260.561 154.558 261.812L247.565 272.028C256.885 273.423 265.561 266.927 266.943 257.52C267.066 256.683 267.128 255.839 267.128 254.994V158.838C267.128 153.236 264.427 147.983 259.889 144.758L250.228 137.892L245.262 121.312Z" fill="black"/>
<path d="M230.697 149.451C231.124 150.876 232.011 152.115 233.217 152.972L243.963 160.609C245.72 161.858 246.766 163.891 246.766 166.06C246.766 199.651 246.766 224.845 246.766 241.641C246.766 245.102 244.931 249.546 241.262 254.973C241.262 255.3 228.955 261.016 225.347 260.476L156.092 251.372C152.854 250.887 158.146 244.944 158.146 241.641C153.02 228.979 150.456 218.96 150.456 211.583C150.456 202.806 153.208 201.796 153.208 188.85C153.208 184.177 150.456 169.38 150.456 164.164C150.456 156.989 150.456 145.072 150.456 128.411C150.456 128.044 150.486 127.677 150.546 127.315C151.146 123.684 154.548 121.23 158.146 121.836L169.151 123.687C169.891 123.811 170.646 123.808 171.384 123.676L185.631 121.139C187.687 120.772 189.793 121.409 191.312 122.856C196.047 127.367 199.856 129.784 202.738 130.107C206.657 130.545 210.389 129.673 213.935 127.491C215.351 126.62 217.041 126.318 218.668 126.646L220.321 126.98C222.71 127.462 224.642 129.233 225.347 131.588L230.697 149.451Z" fill="#DAE2EB"/>
<path fill-rule="evenodd" clip-rule="evenodd" d="M242.406 179.425C243.399 180.142 244.365 180.934 245.29 181.84C247.765 184.263 247.574 189.815 247.561 195.648C246.192 193.866 245.024 192.344 243.855 190.822C243.894 191.542 244.061 192.006 244.273 192.384C245.44 194.464 246.37 196.99 247.707 198.749L247.788 199.529C247.444 200.242 247.479 200.652 247.821 200.818C247.821 206.049 248.627 211.432 247.423 216.751C247.146 217.974 246.696 218.091 246.352 217.562C245.919 216.896 245.706 215.888 245.606 214.757C245.564 214.284 245.554 213.748 245.264 213.767C243.863 213.863 241.492 211.67 241.505 209.742C241.515 208.321 241.655 206.723 240.808 206.23C240.576 208.149 240.356 209.96 240.118 211.928C239.157 210.899 238.65 209.139 237.409 208.863C237.786 211.466 241.075 213.336 242.469 213.626C244.121 213.969 244.892 215.606 244.924 218.751C244.937 219.996 245.267 220.733 246.001 220.844C246.716 220.951 246.931 222.168 246.891 223.472C246.812 226.024 246.914 231 246.945 236.086H255.571V179.425H242.406Z" fill="black"/>
<path fill-rule="evenodd" clip-rule="evenodd" d="M114.378 300.433C114.591 299.323 114.552 298.278 114.398 297.196C114.016 296.449 114.093 295.896 114.482 295.398C114.834 294.948 115.408 294.629 115.548 293.965C114.426 293.975 114.473 294.292 113.276 293.899C112.855 293.762 111.894 295.128 111.61 295.315C110.485 296.058 110.29 297.003 109.624 298.022C109.143 298.757 104.794 299.505 103.439 299.578C105.194 298.605 110.106 296.088 110.24 294.099C110.249 293.974 110.34 293.823 110.468 293.808C111.244 293.72 111.349 291.97 112.137 291.889C114.877 291.604 115.753 291.668 116.982 289.653C117.594 288.651 118.619 288.763 118.833 287.553C118.869 287.35 119.97 286.671 119.732 286.334C119.227 285.619 120.374 285.635 120.938 285.369C122.162 284.789 121.45 283.172 121.879 281.996C122.257 280.962 127.459 275.064 128.319 274.346C127.798 275.474 127.475 277.618 126.951 278.741C126.443 279.829 122.657 285.631 121.765 286.494C122.325 286.105 123.969 285.582 126.697 284.924L131.641 280.054C133.996 277.146 135.303 275.56 135.561 275.296C135.54 275.467 134.804 277.588 133.351 281.66L127.809 286.781L123.132 287.253C122.472 287.791 122.07 288.116 121.926 288.226C120.966 288.962 121.649 288.959 121.54 290.265C121.365 292.367 119.47 291.283 118.609 293.016C118.503 293.229 118.242 294.932 117.933 294.96C116.197 295.122 115.42 296.146 114.716 297.232C115.172 298.462 115.329 299.579 114.378 300.433Z" fill="black"/>
<path d="M162.981 120.024L170.254 124.056H186.779C188.149 123.812 190.578 122.691 194.063 120.693L203.419 131.651C209.9 128.891 214.323 126.784 216.686 125.329C218.103 124.457 219.793 124.156 221.42 124.484L223.072 124.818C225.462 125.3 227.394 127.071 228.099 129.425L233.449 147.289C233.876 148.713 234.763 149.953 235.969 150.81L246.715 158.447C248.472 159.695 249.517 161.729 249.517 163.897C249.914 185.126 250.647 203.634 251.719 219.42C252.79 235.206 254.241 247.41 256.071 256.031C257.891 255.379 258.802 252.602 258.802 247.699C258.802 247.367 258.873 247.048 258.873 246.721V160.009C258.873 157.84 257.828 155.807 256.071 154.558L245.325 146.922C244.119 146.065 243.232 144.825 242.805 143.4L237.455 125.537C236.749 123.183 234.817 121.412 232.428 120.929L230.775 120.596C229.148 120.267 227.459 120.569 226.042 121.441C222.497 123.623 218.765 124.494 214.846 124.056C211.964 123.733 208.155 121.316 203.419 116.805C201.901 115.358 199.794 114.722 197.738 115.088L183.492 117.626C182.753 117.757 181.998 117.761 181.258 117.636L170.254 115.785C167.083 115.252 164.064 117.094 162.981 120.024Z" fill="#DAE2EB"/>
<path d="M220.869 149.946L246.633 171.9V164.185C246.633 162.094 245.595 160.133 243.85 158.929L233.181 151.566C231.983 150.74 231.103 149.545 230.679 148.171L225.367 130.947C224.667 128.677 222.748 126.969 220.376 126.504L218.735 126.182C217.658 125.971 215.109 126.079 211.087 126.504L202.919 129.519L189.805 125.631L186.527 120.238C179.001 122.214 174.994 123.244 174.505 123.329C173.772 123.456 170.305 123.449 169.571 123.329L158.644 121.544C155.496 121.03 152.499 122.806 151.424 125.631L160.282 127.078C161.016 127.198 165.029 126.631 165.763 126.504L177.784 129.519L182.285 126.277L193.63 133.268H206.198L212.208 132.557L217.126 135.771L220.869 149.946Z" fill="white"/>
<path fill-rule="evenodd" clip-rule="evenodd" d="M191.186 228.812L128.753 223.173C127.456 223.056 126.311 224.013 126.194 225.311C126.193 225.316 126.193 225.32 126.193 225.324C126.082 226.632 127.047 227.783 128.352 227.901L190.786 233.541C192.082 233.658 193.227 232.7 193.344 231.402C193.345 231.398 193.345 231.394 193.345 231.389C193.456 230.082 192.491 228.93 191.186 228.812Z" fill="black"/>
<path fill-rule="evenodd" clip-rule="evenodd" d="M223.677 196.39L161.167 193.101C159.868 193.033 158.759 194.033 158.691 195.334C158.69 195.338 158.69 195.343 158.69 195.347C158.628 196.658 159.636 197.773 160.945 197.842L223.455 201.131C224.754 201.199 225.863 200.199 225.931 198.898C225.932 198.893 225.932 198.889 225.932 198.885C225.993 197.574 224.986 196.459 223.677 196.39Z" fill="black"/>
<path fill-rule="evenodd" clip-rule="evenodd" d="M223.14 182.075L160.63 178.786C159.33 178.718 158.221 179.717 158.153 181.019C158.153 181.023 158.153 181.027 158.152 181.032C158.091 182.343 159.098 183.457 160.407 183.526L222.917 186.815C224.217 186.883 225.326 185.884 225.394 184.582C225.394 184.578 225.394 184.574 225.394 184.569C225.456 183.258 224.449 182.144 223.14 182.075Z" fill="black"/>
<path fill-rule="evenodd" clip-rule="evenodd" d="M224.199 210.674L181.648 208.388C180.342 208.317 179.226 209.321 179.156 210.629C179.155 210.635 179.155 210.64 179.155 210.646C179.093 211.966 180.107 213.089 181.425 213.16L223.976 215.447C225.282 215.517 226.398 214.513 226.468 213.205C226.468 213.2 226.469 213.194 226.469 213.189C226.531 211.868 225.517 210.745 224.199 210.674Z" fill="black"/>
<path fill-rule="evenodd" clip-rule="evenodd" d="M245.419 164.98L138.576 158.563C136.355 158.43 134.405 159.373 134.221 160.67C134.22 160.674 134.219 160.678 134.219 160.683C134.045 161.989 135.712 163.153 137.949 163.288L244.793 169.705C247.014 169.838 248.964 168.895 249.148 167.598C249.149 167.594 249.149 167.589 249.15 167.585C249.323 166.278 247.656 165.114 245.419 164.98Z" fill="black"/>
<path fill-rule="evenodd" clip-rule="evenodd" d="M191.186 257.463L128.753 251.824C127.456 251.707 126.311 252.665 126.194 253.963C126.193 253.967 126.193 253.971 126.193 253.975C126.082 255.283 127.047 256.435 128.352 256.553L190.786 262.192C192.082 262.309 193.227 261.352 193.344 260.053C193.345 260.049 193.345 260.045 193.345 260.041C193.456 258.733 192.491 257.581 191.186 257.463Z" fill="black"/>
<path fill-rule="evenodd" clip-rule="evenodd" d="M191.186 243.138L128.753 237.499C127.456 237.382 126.311 238.339 126.194 239.638C126.193 239.642 126.193 239.646 126.193 239.65C126.082 240.958 127.047 242.11 128.352 242.227L190.786 247.867C192.082 247.984 193.227 247.026 193.344 245.728C193.345 245.724 193.345 245.72 193.345 245.716C193.456 244.408 192.491 243.256 191.186 243.138Z" fill="black"/>
<path fill-rule="evenodd" clip-rule="evenodd" d="M191.172 271.758L148.673 267.871C147.37 267.752 146.217 268.713 146.098 270.018C146.098 270.024 146.097 270.029 146.097 270.034C145.985 271.352 146.957 272.512 148.271 272.632L190.77 276.519C192.073 276.638 193.225 275.677 193.344 274.372C193.345 274.366 193.345 274.361 193.346 274.356C193.457 273.039 192.486 271.878 191.172 271.758Z" fill="black"/>
<path d="M181.175 170.618C179.356 164.536 179.497 161.811 173.334 160.565L162.891 163.424C158.694 162.575 152.806 158.313 149.152 160.565C147.672 161.477 142.906 160.661 141.457 160.565C137.629 154.084 118.587 161.562 114.527 159.14C111.82 157.525 107.773 157.525 102.386 159.14C96.2673 158.109 92.821 157.529 92.0468 157.398C90.8854 157.202 89.7318 157.131 88.5994 157.173C87.8444 157.201 82.458 161.994 72.4402 171.553C72.2857 172.808 72.2084 173.752 72.2084 174.384V295.751C72.2084 304.286 78.3939 311.533 86.7469 312.785L179.628 323.001C188.936 324.396 197.6 317.9 198.98 308.492C199.103 307.656 199.633 304.968 199.633 304.123C199.633 304.123 200.407 291.722 200.407 285.909C201.568 251.033 201.14 247.322 200.408 206.856C200.408 201.253 200.315 197.289 195.782 194.064L186.135 187.199L181.175 170.618Z" fill="black"/>
<path d="M162.783 200.424C163.209 201.848 164.095 203.088 165.3 203.945L176.031 211.582C177.786 212.83 178.83 214.864 178.83 217.032C178.83 250.624 178.83 275.817 178.83 292.613C178.83 296.074 176.998 300.518 173.334 305.945C173.334 306.272 161.043 311.988 157.44 311.448L88.2785 302.345C85.0451 301.86 90.3301 295.917 90.3301 292.613C85.2105 279.952 82.6507 269.932 82.6507 262.556C82.6507 253.778 85.3987 252.768 85.3987 239.822C85.3987 235.149 82.6507 220.353 82.6507 215.136C82.6507 207.962 82.6507 196.044 82.6507 179.384C82.6507 179.016 82.6807 178.65 82.7404 178.288C83.3392 174.656 86.7372 172.203 90.3301 172.808L101.32 174.66C102.059 174.784 102.813 174.78 103.55 174.649L117.778 172.111C119.831 171.745 121.935 172.382 123.451 173.828C128.18 178.34 131.984 180.757 134.862 181.079C138.776 181.518 142.503 180.646 146.043 178.464C147.458 177.592 149.145 177.291 150.77 177.619L152.421 177.953C154.807 178.435 156.736 180.206 157.44 182.56L162.783 200.424Z" fill="#DAE2EB"/>
<path fill-rule="evenodd" clip-rule="evenodd" d="M83.887 286.001C84.0992 284.891 84.0609 283.846 83.9067 282.764C83.5252 282.017 83.6017 281.464 83.9908 280.966C84.3424 280.516 84.9149 280.197 85.0551 279.533C83.935 279.543 83.9819 279.86 82.7861 279.467C82.3661 279.33 81.4062 280.696 81.1221 280.883C79.9991 281.626 79.8038 282.571 79.1387 283.59C78.6586 284.325 74.3158 285.073 72.9625 285.146C74.7149 284.173 79.6204 281.656 79.7546 279.667C79.7632 279.542 79.8541 279.391 79.9823 279.376C80.7565 279.288 80.8615 277.538 81.6486 277.457C84.3849 277.173 85.2595 277.236 86.4872 275.221C87.098 274.219 88.1216 274.331 88.3355 273.121C88.3713 272.918 89.4708 272.239 89.233 271.902C88.7296 271.187 89.8751 271.203 90.4374 270.937C91.66 270.357 90.9489 268.74 91.378 267.565C91.7553 266.53 96.9499 260.632 97.8084 259.914C97.2884 261.042 96.9665 263.186 96.4426 264.309C95.9356 265.397 92.1547 271.199 91.2641 272.062C91.8233 271.673 93.465 271.15 96.1894 270.493L101.127 265.622C103.478 262.714 104.783 261.129 105.042 260.865C105.02 261.035 104.285 263.156 102.834 267.228L97.2991 272.349L92.6284 272.821C91.9695 273.36 91.5682 273.684 91.4244 273.794C90.4656 274.53 91.1483 274.527 91.0394 275.833C90.8638 277.935 88.9721 276.851 88.1118 278.584C88.0059 278.797 87.7457 280.5 87.4369 280.528C85.7037 280.69 84.9278 281.714 84.224 282.8C84.6793 284.03 84.836 285.147 83.887 286.001Z" fill="black"/>
<path fill-rule="evenodd" clip-rule="evenodd" d="M160.999 316.533C161.244 315.552 161.219 314.518 161.071 313.395C160.673 312.493 160.764 311.992 161.189 311.686C161.574 311.411 162.193 311.365 162.354 310.785C161.151 310.278 161.197 310.608 159.919 309.674C159.47 309.347 158.418 310.231 158.11 310.283C156.893 310.486 156.669 311.314 155.939 311.998C155.412 312.491 150.737 311.214 149.283 310.661C151.18 310.524 156.486 310.341 156.661 308.469C156.672 308.352 156.772 308.247 156.91 308.292C157.743 308.564 157.883 306.912 158.729 307.195C161.671 308.182 162.609 308.647 163.959 307.255C164.63 306.563 165.728 307.144 165.976 306.067C166.018 305.886 167.209 305.734 166.959 305.296C166.429 304.369 167.659 304.913 168.267 304.914C169.589 304.914 168.85 303.014 169.329 302.07C169.751 301.239 175.42 297.903 176.353 297.601C175.777 298.457 175.398 300.393 174.818 301.243C174.257 302.066 170.107 305.961 169.137 306.389C169.743 306.269 171.514 306.518 174.45 307.136L179.827 304.68C182.397 302.939 183.823 302 184.104 301.863C184.079 302.019 183.256 303.741 181.635 307.029L175.612 309.452L170.59 307.756C169.874 307.975 169.438 308.105 169.282 308.146C168.241 308.419 168.974 308.732 168.837 309.95C168.616 311.912 166.602 309.986 165.651 311.273C165.534 311.431 165.228 312.966 164.896 312.851C163.033 312.209 162.183 312.846 161.411 313.577C161.881 314.982 162.031 316.14 160.999 316.533Z" fill="black"/>
<path d="M95.159 170.998L102.421 175.03H118.924C120.293 174.785 122.718 173.665 126.199 171.667L135.542 182.625C142.015 179.865 146.431 177.757 148.791 176.303C150.206 175.431 151.893 175.129 153.518 175.458L155.169 175.791C157.555 176.274 159.484 178.045 160.188 180.399L165.531 198.262C165.958 199.687 166.843 200.927 168.048 201.784L178.779 209.42C180.534 210.669 181.578 212.702 181.578 214.871C181.974 236.1 182.706 254.607 183.776 270.394C184.846 286.18 186.295 298.383 188.122 307.005C189.941 306.353 190.85 303.575 190.85 298.672C190.85 298.34 190.921 298.022 190.921 297.695V210.983C190.921 208.814 189.877 206.78 188.122 205.532L177.391 197.895C176.187 197.038 175.301 195.799 174.875 194.374L169.531 176.51C168.827 174.156 166.898 172.385 164.512 171.903L162.861 171.569C161.236 171.241 159.549 171.542 158.134 172.414C154.594 174.596 150.867 175.468 146.953 175.03C144.075 174.707 140.271 172.29 135.542 167.778C134.026 166.332 131.922 165.695 129.869 166.061L115.642 168.599C114.904 168.731 114.15 168.734 113.411 168.61L102.421 166.759C99.2551 166.225 96.2401 168.067 95.159 170.998Z" fill="#DAE2EB"/>
<path d="M152.969 200.919L178.698 222.872V215.158C178.698 213.066 177.661 211.106 175.919 209.902L165.264 202.539C164.068 201.713 163.189 200.517 162.766 199.143L157.461 181.919C156.761 179.649 154.846 177.942 152.477 177.477L150.838 177.155C149.762 176.944 147.217 177.051 143.2 177.477L135.043 180.492L121.947 176.604L118.673 171.211C111.158 173.187 107.156 174.217 106.668 174.302C105.936 174.428 102.474 174.422 101.74 174.302L90.8286 172.517C87.6849 172.002 84.6914 173.778 83.618 176.604L92.4637 178.051C93.1971 178.171 97.2051 177.604 97.9373 177.477L109.942 180.492L114.437 177.249L125.767 184.241H138.318L144.32 183.53L149.231 186.744L152.969 200.919Z" fill="white"/>
<path fill-rule="evenodd" clip-rule="evenodd" d="M169.57 240.304L107.06 237.015C105.76 236.947 104.651 237.947 104.583 239.248C104.583 239.252 104.583 239.257 104.582 239.261C104.521 240.572 105.528 241.687 106.837 241.756L169.347 245.045C170.647 245.113 171.756 244.113 171.824 242.812C171.824 242.807 171.824 242.803 171.824 242.799C171.886 241.488 170.879 240.373 169.57 240.304Z" fill="black"/>
<path d="M119.695 214.814C117.876 208.733 118.017 206.007 111.853 204.761L101.411 207.62C97.2141 206.771 91.3258 202.509 87.6713 204.761C86.1916 205.673 81.426 204.857 79.977 204.761C76.149 198.281 57.1071 205.758 53.0469 203.336C50.3402 201.722 46.293 201.722 40.9054 203.336C34.7871 202.305 31.3408 201.725 30.5666 201.594C29.4052 201.399 28.2516 201.327 27.1191 201.369C26.3641 201.397 20.9778 206.191 10.96 215.75C10.8054 217.005 10.7281 217.948 10.7281 218.581V339.947C10.7281 348.482 16.9136 355.729 25.2666 356.981L118.148 367.197C127.456 368.592 136.12 362.096 137.5 352.689C137.623 351.852 137.684 351.008 137.684 350.163C139.683 335.138 138.751 333.737 140.15 328.598C141.531 307.108 142.264 292.806 141.532 252.341C141.532 246.738 138.835 241.485 134.302 238.26L124.655 231.395L119.695 214.814Z" fill="black"/>
<path fill-rule="evenodd" clip-rule="evenodd" d="M169.032 225.989L106.522 222.7C105.223 222.632 104.114 223.631 104.046 224.933C104.045 224.937 104.045 224.941 104.045 224.946C103.983 226.257 104.991 227.371 106.3 227.44L168.81 230.729C170.109 230.798 171.218 229.798 171.286 228.496C171.287 228.492 171.287 228.488 171.287 228.483C171.349 227.172 170.341 226.058 169.032 225.989Z" fill="black"/>
<path d="M100.153 245.379C100.58 246.804 101.466 248.043 102.67 248.9L113.401 256.537C115.156 257.785 116.2 259.819 116.2 261.987C116.2 295.579 116.2 320.773 116.2 337.568C116.2 341.029 114.368 345.473 110.704 350.9C110.704 351.227 98.4133 356.944 94.8103 356.404L25.6487 347.3C22.4153 346.815 27.7003 340.872 27.7003 337.568C22.5807 324.907 20.0209 314.888 20.0209 307.511C20.0209 298.733 22.7689 297.724 22.7689 284.777C22.7689 280.104 20.0209 265.308 20.0209 260.091C20.0209 252.917 20.0209 240.999 20.0209 224.339C20.0209 223.972 20.0509 223.605 20.1107 223.243C20.7095 219.611 24.1075 217.158 27.7003 217.763L38.6902 219.615C39.4289 219.739 40.1831 219.736 40.9206 219.604L55.1479 217.066C57.2011 216.7 59.3048 217.337 60.821 218.783C65.5501 223.295 69.3539 225.712 72.2324 226.034C76.1458 226.473 79.8728 225.601 83.4133 223.419C84.828 222.547 86.5154 222.246 88.1401 222.574L89.7908 222.908C92.1768 223.39 94.1062 225.161 94.8103 227.515L100.153 245.379Z" fill="#DAE2EB"/>
<path fill-rule="evenodd" clip-rule="evenodd" d="M170.091 254.588L127.54 252.302C126.234 252.231 125.118 253.235 125.048 254.543C125.048 254.549 125.048 254.554 125.048 254.56C124.986 255.88 126 257.003 127.318 257.074L169.869 259.361C171.175 259.431 172.291 258.427 172.361 257.119C172.361 257.114 172.361 257.108 172.362 257.103C172.423 255.782 171.409 254.659 170.091 254.588Z" fill="black"/>
<path fill-rule="evenodd" clip-rule="evenodd" d="M111.846 275.353C112.837 276.07 113.802 276.862 114.725 277.768C117.197 280.191 117.006 285.743 116.993 291.576C115.626 289.793 114.459 288.271 113.293 286.75C113.332 287.47 113.498 287.933 113.71 288.312C114.875 290.392 115.803 292.918 117.139 294.676L117.22 295.457C116.876 296.17 116.911 296.58 117.253 296.746C117.253 301.977 118.058 307.359 116.856 312.679C116.579 313.902 116.129 314.018 115.786 313.49C115.354 312.824 115.141 311.815 115.041 310.685C114.999 310.212 114.989 309.675 114.699 309.695C113.301 309.79 110.932 307.598 110.946 305.67C110.956 304.249 111.095 302.651 110.249 302.157C110.018 304.077 109.798 305.888 109.561 307.855C108.6 306.827 108.094 305.067 106.856 304.791C107.232 307.394 110.516 309.264 111.908 309.554C113.558 309.896 114.328 311.533 114.36 314.678C114.373 315.924 114.702 316.661 115.435 316.771C116.15 316.879 116.364 318.096 116.324 319.399C116.245 321.952 116.347 326.928 116.378 332.013H124.992V275.353H111.846Z" fill="black"/>
<path fill-rule="evenodd" clip-rule="evenodd" d="M21.257 330.956C21.4692 329.846 21.4309 328.801 21.2768 327.719C20.8952 326.972 20.9717 326.419 21.3608 325.921C21.7125 325.471 22.2849 325.152 22.4251 324.488C21.3051 324.498 21.3519 324.815 20.1561 324.423C19.7361 324.285 18.7763 325.651 18.4921 325.838C17.3691 326.581 17.1738 327.526 16.5087 328.545C16.0286 329.28 11.6859 330.028 10.3325 330.101C12.0849 329.128 16.9904 326.611 17.1246 324.622C17.1332 324.497 17.2241 324.346 17.3524 324.331C18.1266 324.243 18.2315 322.494 19.0186 322.412C21.7549 322.128 22.6295 322.191 23.8572 320.176C24.468 319.174 25.4916 319.286 25.7056 318.076C25.7413 317.873 26.8408 317.194 26.603 316.857C26.0996 316.142 27.2451 316.158 27.8075 315.892C29.03 315.312 28.3189 313.695 28.748 312.52C29.1254 311.486 34.3199 305.587 35.1784 304.869C34.6584 305.997 34.3365 308.141 33.8127 309.264C33.3057 310.352 29.5248 316.154 28.6341 317.017C29.1933 316.628 30.8351 316.105 33.5594 315.448L38.4966 310.577C40.8484 307.669 42.1534 306.084 42.4115 305.82C42.3905 305.99 41.6546 308.111 40.204 312.183L34.6691 317.304L29.9984 317.777C29.3395 318.315 28.9382 318.639 28.7944 318.749C27.8356 319.485 28.5184 319.483 28.4094 320.788C28.2338 322.89 26.3421 321.806 25.4818 323.539C25.376 323.752 25.1157 325.455 24.807 325.483C23.0737 325.645 22.2978 326.669 21.594 327.755C22.0493 328.985 22.206 330.102 21.257 330.956Z" fill="black"/>
<path fill-rule="evenodd" clip-rule="evenodd" d="M98.3684 361.487C98.6135 360.506 98.5888 359.472 98.4401 358.349C98.0421 357.447 98.1328 356.946 98.5584 356.641C98.943 356.365 99.5625 356.319 99.7234 355.739C98.5207 355.232 98.5661 355.562 97.2883 354.629C96.8395 354.301 95.7876 355.186 95.4796 355.237C94.2623 355.44 94.0379 356.269 93.3079 356.952C92.781 357.445 88.1066 356.168 86.6524 355.615C88.5491 355.478 93.8553 355.295 94.0303 353.423C94.0415 353.306 94.1415 353.201 94.2794 353.246C95.112 353.518 95.252 351.866 96.0983 352.149C99.0407 353.136 99.9787 353.601 101.328 352.209C102 351.517 103.097 352.098 103.346 351.021C103.387 350.84 104.578 350.688 104.328 350.25C103.799 349.323 105.028 349.867 105.636 349.868C106.958 349.868 106.22 347.968 106.699 347.024C107.12 346.193 112.789 342.857 113.722 342.556C113.146 343.412 112.767 345.347 112.187 346.197C111.626 347.02 107.476 350.915 106.506 351.343C107.113 351.223 108.884 351.472 111.819 352.09L117.196 349.634C119.766 347.893 121.192 346.954 121.473 346.817C121.448 346.973 120.625 348.695 119.004 351.983L112.981 354.406L107.959 352.71C107.243 352.929 106.808 353.059 106.651 353.1C105.61 353.373 106.344 353.686 106.206 354.904C105.985 356.866 103.971 354.94 103.02 356.227C102.903 356.385 102.597 357.92 102.265 357.805C100.402 357.163 99.5527 357.8 98.7802 358.531C99.2498 359.936 99.4006 361.094 98.3684 361.487Z" fill="black"/>
<path d="M32.5281 215.953L39.7905 219.985H56.2932C57.662 219.741 60.087 218.62 63.568 216.622L72.9111 227.58C79.3836 224.82 83.8 222.713 86.1604 221.258C87.575 220.386 89.2625 220.084 90.8872 220.413L92.5379 220.746C94.9239 221.229 96.8532 223 97.5574 225.354L102.901 243.217C103.327 244.642 104.213 245.882 105.417 246.739L116.148 254.375C117.903 255.624 118.947 257.657 118.947 259.826C119.343 281.055 120.076 299.563 121.145 315.349C122.215 331.135 123.664 343.338 125.492 351.96C127.31 351.308 128.219 348.531 128.219 343.627C128.219 343.296 128.29 342.977 128.29 342.65V255.938C128.29 253.769 127.246 251.736 125.492 250.487L114.76 242.85C113.556 241.993 112.67 240.754 112.244 239.329L106.9 221.465C106.196 219.111 104.267 217.34 101.881 216.858L100.23 216.524C98.6056 216.196 96.9181 216.498 95.5035 217.369C91.963 219.551 88.236 220.423 84.3225 219.985C81.444 219.662 77.6402 217.245 72.9111 212.733C71.3949 211.287 69.2913 210.65 67.2381 211.017L53.0108 213.554C52.2733 213.686 51.5191 213.689 50.7804 213.565L39.7905 211.714C36.6242 211.18 33.6092 213.022 32.5281 215.953Z" fill="#DAE2EB"/>
<path d="M90.3378 245.873L116.067 267.826V260.112C116.067 258.021 115.03 256.06 113.288 254.856L102.633 247.493C101.437 246.667 100.558 245.471 100.135 244.097L94.8297 226.873C94.1306 224.604 92.2149 222.896 89.8459 222.431L88.207 222.109C87.1316 221.898 84.5857 222.005 80.5694 222.431L72.4126 225.446L59.3163 221.558L56.0422 216.165C48.527 218.141 44.5254 219.171 44.0373 219.256C43.3051 219.383 39.8428 219.376 39.1094 219.256L28.1977 217.471C25.054 216.956 22.0605 218.732 20.9871 221.558L29.8328 223.005C30.5662 223.125 34.5742 222.558 35.3064 222.431L47.3113 225.446L51.8059 222.203L63.136 229.195H75.6866L81.6891 228.484L86.6002 231.698L90.3378 245.873Z" fill="white"/>
<path fill-rule="evenodd" clip-rule="evenodd" d="M115.034 259.633L18.7113 253.4C16.7089 253.27 14.9492 254.217 14.7808 255.514C14.7802 255.518 14.7797 255.523 14.7791 255.527C14.6206 256.834 16.1215 257.995 18.1381 258.126L114.461 264.358C116.463 264.488 118.223 263.542 118.391 262.244C118.392 262.24 118.392 262.236 118.393 262.232C118.551 260.925 117.05 259.763 115.034 259.633Z" fill="black"/>
<path fill-rule="evenodd" clip-rule="evenodd" d="M191.312 208.895L84.4687 202.478C82.2476 202.345 80.2977 203.288 80.1134 204.585C80.1128 204.589 80.1122 204.593 80.1116 204.598C79.9383 205.904 81.6051 207.068 83.842 207.203L190.686 213.62C192.907 213.753 194.857 212.81 195.041 211.513C195.041 211.509 195.042 211.504 195.043 211.5C195.216 210.193 193.549 209.029 191.312 208.895Z" fill="black"/>
<path fill-rule="evenodd" clip-rule="evenodd" d="M97.9576 287.987L35.6148 282.348C34.3188 282.231 33.1734 283.188 33.0563 284.486C33.0559 284.49 33.0556 284.495 33.0552 284.499C32.9445 285.807 33.9094 286.959 35.2146 287.077L97.5574 292.716C98.8534 292.833 99.9988 291.876 100.116 290.578C100.116 290.573 100.117 290.569 100.117 290.565C100.228 289.257 99.2628 288.105 97.9576 287.987Z" fill="black"/>
<path fill-rule="evenodd" clip-rule="evenodd" d="M97.9576 273.662L35.6148 268.023C34.3188 267.906 33.1734 268.863 33.0563 270.161C33.0559 270.165 33.0556 270.17 33.0552 270.174C32.9445 271.482 33.9094 272.633 35.2146 272.752L97.5574 278.39C98.8534 278.508 99.9988 277.55 100.116 276.252C100.116 276.248 100.117 276.244 100.117 276.239C100.228 274.932 99.2628 273.78 97.9576 273.662Z" fill="black"/>
<path fill-rule="evenodd" clip-rule="evenodd" d="M97.9429 302.281L55.5081 298.395C54.2054 298.275 53.0527 299.236 52.9336 300.541C52.9331 300.547 52.9326 300.552 52.9322 300.558C52.8211 301.875 53.7922 303.035 55.1067 303.156L97.5415 307.042C98.8442 307.161 99.9969 306.2 100.116 304.896C100.116 304.89 100.117 304.885 100.117 304.879C100.229 303.562 99.2574 302.402 97.9429 302.281Z" fill="black"/>
<path fill-rule="evenodd" clip-rule="evenodd" d="M130.6 276.348C130.148 275.681 129.548 275.162 128.844 274.677C128.158 274.467 127.911 274.149 127.922 273.715C127.931 273.323 128.173 272.898 127.912 272.493C127.103 273.01 127.31 273.151 126.226 273.496C125.845 273.617 125.894 274.756 125.79 274.983C125.379 275.876 125.754 276.451 125.827 277.278C125.88 277.874 123.13 280.241 122.186 280.897C122.928 279.597 125.12 276.065 124.13 274.982C124.067 274.914 124.051 274.795 124.136 274.729C124.651 274.33 123.771 273.384 124.298 272.983C126.133 271.588 126.804 271.221 126.595 269.626C126.491 268.832 127.297 268.423 126.791 267.704C126.706 267.583 127.135 266.733 126.777 266.668C126.02 266.531 126.862 266.016 127.125 265.623C127.698 264.767 126.296 264.261 125.965 263.462C125.674 262.759 126.226 257.359 126.458 256.598C126.696 257.414 127.635 258.662 127.868 259.478C128.095 260.268 128.518 264.973 128.342 265.823C128.536 265.368 129.444 264.35 131.066 262.768L131.994 258.013C132.114 255.447 132.196 254.037 132.239 253.784C132.317 253.881 132.942 255.306 134.114 258.059L132.889 263.215L129.75 265.59C129.565 266.167 129.45 266.517 129.406 266.639C129.111 267.455 129.606 267.142 130.241 267.861C131.263 269.021 129.295 269.328 129.616 270.611C129.656 270.768 130.398 271.761 130.189 271.917C129.017 272.791 129.013 273.671 129.094 274.55C130.098 274.974 130.824 275.476 130.6 276.348Z" fill="black"/>
<path d="M147.837 181.85L146.24 179.463L153.782 177.322L157.689 175.944L157.484 174.861L157.639 172.737L162.152 171.63L164.944 169.268L165.329 171.031L161.579 175.575L166.451 178.479L168.015 181.956L162.938 185.672L163.053 183.064L164.396 181.317L161.423 178.405L156.28 180.865L159.449 177.527L154.429 178.077L149.163 179.865L147.837 181.85Z" fill="black"/>
<path d="M160.031 172.146V173.638L158.524 173.819V175.123L159.007 177.575L154.429 178.076L149.163 179.864L147.837 181.849L146.24 179.462L157.689 175.943L157.484 174.86L157.639 172.736L160.031 172.146Z" fill="#DAE2EB"/>
<path d="M159.45 177.527L159.572 179.291L156.28 180.866L159.45 177.527Z" fill="#DAE2EB"/>
<path d="M164.396 181.316V183.088L163.56 184.031V185.212L162.938 185.672L163.053 183.063L164.396 181.316Z" fill="#DAE2EB"/>
<path d="M161.579 175.574V176.887L166.165 179.798L167.434 182.382L168.016 181.955L166.451 178.478L161.579 175.574Z" fill="#DAE2EB"/>
<path d="M127.301 191.473C131.389 188.824 136.717 184.14 141.915 179.57C143.653 178.043 145.376 176.528 147.033 175.106C150.321 172.286 153.359 169.825 155.705 168.406C156.868 167.703 157.925 167.215 158.79 167.104C159.232 167.048 159.665 167.084 160.04 167.28C160.421 167.479 160.68 167.812 160.831 168.232C161.008 168.724 161.2 169.266 161.406 169.849C162.657 173.376 164.451 178.438 166.755 183.354C169.452 189.106 172.798 194.548 176.698 197.119C179.269 198.815 182.431 199.775 186.403 199.554C192.106 199.236 196.855 194.624 200.535 185.248C202.976 174.995 203.943 166.536 204.771 159.283C205.058 156.772 205.329 154.406 205.638 152.159C206.837 143.452 208.624 136.553 214.301 130.253C219.114 120.894 220.351 113.605 221.247 108.328C221.491 106.89 221.71 105.601 221.969 104.461C222.013 104.266 222.005 104.156 221.991 104.105C221.982 104.069 221.974 104.069 221.97 104.067C221.95 104.056 221.882 104.03 221.724 104.034C221.57 104.039 221.363 104.072 221.098 104.143C220.021 104.433 218.318 105.265 216.111 106.551C211.722 109.108 205.534 113.344 198.784 118.176C192.039 123.006 184.748 128.421 178.159 133.33C177.443 133.864 176.734 134.392 176.035 134.913C170.315 139.176 165.257 142.946 161.753 145.444C152.92 151.74 142.325 164.783 135.006 175.591C131.348 180.991 128.533 185.798 127.173 188.89C126.834 189.662 126.59 190.315 126.446 190.837C126.297 191.377 126.273 191.714 126.309 191.888C126.312 191.905 126.316 191.918 126.319 191.928C126.319 191.928 126.32 191.928 126.32 191.928C126.46 191.921 126.769 191.818 127.301 191.473Z" fill="black" stroke="black"/>
<path d="M166.447 164.366C166.447 164.364 166.455 164.455 166.468 164.592C166.748 164.558 166.946 164.336 166.945 164.32L166.945 164.32L166.945 164.322L166.946 164.33L166.949 164.364L166.961 164.489L166.998 164.889C167.026 165.195 167.058 165.538 167.072 165.687C167.178 166.812 167.26 167.604 167.355 168.396C167.524 169.799 167.723 171.047 167.988 172.308C168.622 175.319 169.625 178.309 171.294 182.17C174.263 189.037 178.193 194.283 182.539 197.498C186.878 200.708 191.617 201.888 196.264 200.677C199.94 199.719 202.529 197.648 204.166 194.869C205.81 192.08 206.511 188.546 206.339 184.654C206.334 184.554 206.284 184.02 206.208 183.205C206.111 182.162 205.97 180.659 205.828 179.019C205.576 176.126 205.318 172.827 205.295 171.036C205.282 170.049 205.292 169.06 205.326 168.06C205.328 168.011 205.335 167.749 205.345 167.344C205.389 165.63 205.499 161.355 205.57 159.841C205.976 151.174 207.353 144.314 210.707 137.076C211.393 135.597 211.973 134.579 213.166 132.676L213.166 132.676L213.501 132.142C213.59 132 213.668 131.874 213.742 131.755C213.781 131.693 213.819 131.632 213.856 131.572C218.566 123.978 220.785 116.555 222.814 98.7789C223.51 92.6782 223.998 87.9532 224.323 84.2982C224.434 83.0609 224.521 81.992 224.593 81.0302L224.6 80.9319L224.644 80.8437L224.682 80.7692C225.456 79.2066 228.568 74.2709 233.978 66.0092C239.364 57.7833 247.051 46.2273 257.039 31.3417C254.672 28.1352 252.441 26.031 250.355 24.968C249.872 24.7218 243.807 21.4688 240.907 19.9131C240.134 19.4986 239.586 19.2047 239.428 19.12C236.239 17.4147 233.336 15.8712 230.579 14.4184C222.484 10.1531 212.147 5.65472 199.562 0.923998L190.288 16.1243L190.274 16.147L190.258 16.1681C173.176 38.4548 157.916 56.8952 144.478 71.4863L144.473 71.4923L144.467 71.4982C139.102 76.9521 135.595 81.243 133.9 84.3837C131.208 89.3738 128.346 94.2538 125.928 98.131C123.522 101.989 121.526 104.901 120.574 105.916C119.618 106.934 118.603 108.698 117.623 110.848C116.649 112.985 115.73 115.459 114.956 117.858C114.181 120.258 113.553 122.575 113.159 124.395C112.961 125.306 112.824 126.085 112.756 126.684C112.721 126.984 112.705 127.23 112.705 127.421C112.706 127.624 112.725 127.721 112.735 127.748L112.811 127.962L112.7 128.16C112.536 128.455 111.452 130.663 110.34 132.931L110.308 132.996C109.197 135.261 108.066 137.567 107.864 137.928C106.03 141.211 104.651 143.763 103.341 146.354C100.291 152.385 98.2314 157.439 97.2217 162.012C96.7472 164.161 96.4771 165.41 96.4538 166.534C96.431 167.632 96.6451 168.632 97.2062 170.262L97.2783 170.472L97.1717 170.666C97.001 170.976 96.8209 171.298 96.6313 171.632C96.1414 172.493 95.6454 173.335 94.8392 174.685C92.2976 178.939 91.6202 180.12 90.6462 182.17C90.1178 183.283 89.1725 184.763 88.0932 186.392C87.8014 186.833 87.4991 187.286 87.191 187.747C86.3499 189.007 85.4651 190.331 84.6307 191.657C83.4903 193.468 82.4603 195.254 81.7823 196.836C81.0923 198.447 80.8175 199.735 81.0405 200.602C82.349 205.689 86.6183 208.422 92.0208 209.262C97.4289 210.103 103.876 209.021 109.283 206.549C114.019 204.384 119.78 199.703 126.11 193.295C132.43 186.898 139.281 178.819 146.199 169.904C149.498 165.655 155.4 161.3 160.746 159.209C162.791 158.409 164.566 158.018 165.815 158.03L166.25 158.034L166.307 158.466C166.5 159.949 166.659 161.371 166.808 162.889C166.851 163.327 166.893 163.764 166.945 164.319C166.945 164.319 166.945 164.319 166.945 164.319L166.447 164.366Z" fill="black" stroke="black"/>
<path fill-rule="evenodd" clip-rule="evenodd" d="M105.546 168.074C113.646 158.009 124.078 145.677 129.562 139.519C135.047 133.361 136.516 129.768 142.837 125.202C139.058 132.327 135.67 137.268 132.672 140.025C129.89 142.583 100.364 179.835 96.2954 185.582C93.9092 188.953 91.9678 190.995 90.5423 193.651L87.7001 198.155C97.3123 207.631 112.959 198.08 134.641 169.504C141.002 161.121 158.83 147.709 166.824 147.976C169.969 148.081 172.437 149.36 173.6 152.219C175.691 165.303 174.217 166.633 178.581 176.414C183.893 188.321 191.199 192.017 195.848 190.835C201.756 189.333 195.767 183.899 196.18 169.19C196.422 160.595 192.911 151.599 199.494 137.442C201.916 132.234 211.52 111.462 212.521 98.9378C213.098 91.7276 211.998 85.8261 209.221 81.2332L227.847 48.5926C246.774 28.1691 240.936 31.2321 235.646 27.3948C233.685 25.9721 223.104 20.3122 203.902 10.415L161.411 68.9679C147.34 85.7558 138.247 97.1527 134.133 103.158C123.64 118.476 121.707 126.884 122.048 128.655C126.537 123.266 136.619 113.947 132.331 119.292C127.444 124.802 99.6117 162.473 105.546 168.074Z" fill="#DAE2EB"/>
<path d="M196.818 183.721C197.712 181.386 197.911 179.032 197.526 177.122C197.14 175.206 196.182 173.794 194.817 173.22C194.04 172.893 193.606 172.761 193.301 172.746C193.051 172.734 192.872 172.799 192.58 173.013C192.426 173.127 192.244 173.282 192.019 173.473C191.341 174.053 190.269 174.968 188.368 176.081C187.271 176.723 186.63 177.757 186.338 179.025C186.044 180.304 186.114 181.799 186.438 183.276C186.762 184.75 187.331 186.174 188.002 187.302C188.684 188.448 189.43 189.22 190.07 189.489C190.773 189.785 191.414 189.851 192.002 189.74C192.592 189.629 193.165 189.333 193.725 188.844C194.861 187.854 195.904 186.11 196.818 183.721Z" fill="black" stroke="black"/>
<path fill-rule="evenodd" clip-rule="evenodd" d="M191.344 176.038C191.769 177.08 192.174 180.944 192.559 187.629C192.052 188.369 191.156 188.471 189.87 187.934C187.941 187.13 185.858 180.382 189.104 178.251C192.351 176.121 190.707 174.475 191.344 176.038Z" fill="white"/>
<path d="M98.0617 173.723C98.3824 173.314 98.6569 172.986 98.8869 172.734C98.7202 173.913 98.7893 175.718 100.034 178.01C101.276 180.298 100.187 183.26 98.2361 185.73C97.2747 186.947 96.1374 187.998 95.0606 188.725C94.5223 189.088 94.0087 189.364 93.5483 189.541C93.0829 189.72 92.7026 189.785 92.418 189.763C91.4657 189.69 90.7806 189.387 90.3058 188.888C89.8468 188.406 89.5402 187.695 89.4311 186.707C92.1011 182.426 94.2675 179.079 95.9316 176.663C96.7725 175.442 97.4822 174.463 98.0617 173.723Z" fill="black" stroke="black"/>
<path fill-rule="evenodd" clip-rule="evenodd" d="M98.1325 174.123C97.5791 174.204 94.7926 178.065 89.7731 185.707C90.313 187.101 91.4706 187.871 93.2459 188.014C95.909 188.229 102.35 182.56 99.9801 178.701C97.61 174.842 98.9626 174.003 98.1325 174.123Z" fill="white"/>
<path fill-rule="evenodd" clip-rule="evenodd" d="M224.396 21.2363C217.49 31.7208 208.635 55.4401 201.955 67.9577C207.693 73.8451 207.522 78.6672 209.306 81.3013C217.205 68.2945 231.976 45.5536 240.369 34.0718C241.473 32.5618 240.987 30.4119 239.36 29.4891C234.966 26.9973 230.994 24.3834 224.396 21.2363Z" fill="white"/>
<path fill-rule="evenodd" clip-rule="evenodd" d="M138.73 157.484C142.018 153.068 150.969 147.153 156.005 144.247C155.823 143.34 130.166 156.189 121.432 166.346C112.163 177.126 98.2613 187.379 97.4181 195.559C104.336 195.502 113.559 191.294 138.73 157.484Z" fill="white"/>
<path fill-rule="evenodd" clip-rule="evenodd" d="M175.415 157.186C171.752 147.843 167.997 148.279 167.151 148.402C170.338 151.174 170.349 154.306 170.061 156.941C168.475 171.441 179.531 186.12 182.859 187.761C186.188 189.402 184.178 185.995 183.975 184.235C176.854 172.86 174.873 163.809 175.415 157.186Z" fill="white"/>
<path fill-rule="evenodd" clip-rule="evenodd" d="M129.454 136.408C133.044 132.915 136.469 129.967 138.332 128.873C139.818 127.003 145.706 120.363 145.241 119.881C142.1 116.634 126.839 132.257 119.799 140.672C114.818 146.626 111.375 153.283 111.135 157.711C112.661 155.607 118.767 148.506 129.454 136.408Z" fill="white"/>
</svg>
