<svg width="250" height="400" viewBox="0 0 250 400" fill="none" xmlns="http://www.w3.org/2000/svg">
<path d="M64.2926 280.054C29.7157 280.054 0.0700684 261.605 0.0700684 234.492C0.0700684 207.379 29.7157 188.931 64.2926 188.931C98.8695 188.931 128.515 207.379 128.515 234.492C128.515 261.605 98.8695 280.054 64.2926 280.054Z" fill="black"/>
<path d="M64.2925 266.859C93.0168 266.859 116.303 252.368 116.303 234.492C116.303 216.617 93.0168 202.126 64.2925 202.126C35.5682 202.126 12.2825 216.617 12.2825 234.492C12.2825 252.368 35.5682 266.859 64.2925 266.859Z" fill="white"/>
<path d="M64.2925 258.163C93.0168 258.163 116.303 243.673 116.303 225.797C116.303 207.922 93.0168 193.431 64.2925 193.431C35.5682 193.431 12.2825 207.922 12.2825 225.797C12.2825 243.673 35.5682 258.163 64.2925 258.163Z" fill="#DAE2EB"/>
<path d="M113.613 220.695C113.613 230.429 107.241 238.99 97.1272 244.737C88.4184 249.685 77.2638 252.366 65.6378 252.366C54.0118 252.366 42.8572 249.685 34.1485 244.737C24.0351 238.99 17.6631 230.429 17.6631 220.695C17.6631 220.602 17.6631 220.509 17.6649 220.416L17.6631 150.62C17.6631 142.248 26.1322 135.461 36.5796 135.461H94.6961C105.143 135.461 113.613 142.248 113.613 150.62V220.51C113.613 220.536 113.613 220.563 113.613 220.589C113.613 220.625 113.613 220.66 113.613 220.695Z" fill="black"/>
<path d="M99.2628 218.938H99.2651V131.596H26.6304L26.6326 218.938C26.6312 219.015 26.6304 219.093 26.6304 219.17C26.6304 230.567 42.8902 239.806 62.9477 239.806C83.0052 239.806 99.2651 230.567 99.2651 219.17C99.2651 219.093 99.2643 219.015 99.2628 218.938Z" fill="#DAE2EB"/>
<path d="M98.3683 222.555C95.5421 232.342 80.667 239.806 62.7412 239.806C42.7977 239.806 26.6304 230.567 26.6304 219.17C26.6304 219.093 26.6311 219.015 26.6326 218.938L26.6304 131.596H31.0077L31.0097 211.976C31.0082 212.053 31.0075 212.131 31.0075 212.208C31.0075 223.605 47.1748 232.844 67.1183 232.844C80.4632 232.844 92.1174 228.707 98.3683 222.555Z" fill="white"/>
<path d="M65.1892 185.701C49.9913 185.701 35.4991 182.14 24.3473 175.662C11.8845 168.423 4.212 157.885 4.212 146.088C4.212 134.291 11.8845 123.754 24.3473 116.514C35.4991 110.036 49.9913 106.476 65.1892 106.476C80.3872 106.476 94.8794 110.036 106.031 116.514C118.494 123.754 126.166 134.291 126.166 146.088C126.166 157.885 118.494 168.423 106.031 175.662C94.8794 182.14 80.3872 185.701 65.1892 185.701Z" fill="black"/>
<path d="M66.5341 170.243C96.0013 170.243 119.889 158.78 119.889 144.639C119.889 130.499 96.0013 119.036 66.5341 119.036C37.0669 119.036 13.179 130.499 13.179 144.639C13.179 158.78 37.0669 170.243 66.5341 170.243Z" fill="#DAE2EB"/>
<path fill-rule="evenodd" clip-rule="evenodd" d="M51.7008 136.908C65.5456 116.793 120.025 147.683 103.676 125.647C87.3274 103.612 60.659 117.852 41.5222 121.998C22.3855 126.144 9.24138 136.654 12.1641 145.474C15.0867 154.293 37.856 157.023 51.7008 136.908Z" fill="black"/>
<path fill-rule="evenodd" clip-rule="evenodd" d="M84.9172 177.006C87.3934 177.006 89.4008 179.169 89.4008 181.837V217.585C89.4008 220.253 87.3934 222.415 84.9172 222.415C82.4409 222.415 80.4336 220.253 80.4336 217.585V181.837C80.4336 179.169 82.4409 177.006 84.9172 177.006Z" fill="black"/>
<path fill-rule="evenodd" clip-rule="evenodd" d="M65.1894 177.006C67.6657 177.006 69.6731 179.169 69.6731 181.837V223.382C69.6731 226.05 67.6657 228.212 65.1894 228.212C62.7132 228.212 60.7058 226.05 60.7058 223.382V181.837C60.7058 179.169 62.7132 177.006 65.1894 177.006Z" fill="black"/>
<path fill-rule="evenodd" clip-rule="evenodd" d="M44.5646 177.006C47.0408 177.006 49.0482 179.169 49.0482 181.837V217.585C49.0482 220.253 47.0408 222.415 44.5646 222.415C42.0884 222.415 40.081 220.253 40.081 217.585V181.837C40.081 179.169 42.0884 177.006 44.5646 177.006Z" fill="black"/>
<path fill-rule="evenodd" clip-rule="evenodd" d="M51.7305 132.445C63.4435 120.327 102.581 135.81 91.6428 123.836C80.7046 111.863 56.9742 116.664 42.2789 119.834C27.5836 123.003 19.7228 134.051 21.3698 138.993C23.0169 143.935 40.0175 144.562 51.7305 132.445Z" fill="white"/>
<path d="M105.743 89.4584C112.507 92.81 116.14 94.9497 119.611 98.0312C124.32 102.211 127.231 107.269 128.137 113.65C129.29 121.779 126.728 131.737 127.086 144.795C127.119 146.008 126.024 161.813 93.8104 161.806C84.2684 161.804 75.2916 163.464 65.4492 163.094C34.5933 161.933 15.8234 156.814 4.77299 141.175L4.27013 140.463L4.1985 139.574C4.13128 138.74 4.05209 137.907 3.96094 137.075C3.94063 136.889 3.7381 135.094 3.66467 134.419C3.5216 133.104 3.39751 131.87 3.28285 130.587C2.6582 123.597 2.47802 116.979 2.958 110.689C3.3713 105.272 4.2654 100.442 5.73463 96.3077C8.39473 88.8218 16.3391 82.4695 22.7536 81.4449C24.0391 81.2393 29.5937 80.5631 35.3561 78.8396C41.6685 76.9515 48.1818 74.0025 48.4319 73.7708C49.4888 71.3229 49.297 69.954 47.5569 67.7903C47.3909 67.5856 46.5531 66.5682 46.3113 66.2692C42.7676 61.8871 38.9793 58.3511 40.1146 53.6776C40.043 52.0887 39.7027 50.5921 38.8092 47.4588C37.444 42.6711 36.9561 40.0756 37.3165 37.025C33.5876 30.2371 34.5134 18.197 39.6704 12.4968C47.5445 -0.552376 74.1552 -4.58647 83.342 6.2119C91.4125 15.2921 94.9279 31.3572 92.7883 43.6941C92.4317 45.9158 91.6865 47.393 89.9737 49.9986C89.7902 50.2777 89.7045 50.4081 89.6149 50.5455C88.163 52.7717 87.8501 53.7393 88.2215 55.1644L88.465 56.099L88.1666 57.0148C88.0617 57.3366 87.9812 57.641 87.8024 58.3709C87.2887 60.4678 84.662 61.4058 83.8686 62.5549C83.0674 63.7152 81.998 64.5208 80.6912 64.9442C80.4926 66.6174 80.5647 68.5042 80.8393 71.8287C80.8675 72.17 80.8797 72.3188 80.8951 72.5081C80.9665 73.3898 81.0188 74.1142 81.0549 74.7732C88.9285 80.3326 97.1796 85.2409 105.743 89.4584Z" fill="black"/>
<path d="M39.4467 24.1793C39.885 23.0631 40.4321 21.9967 41.0794 20.9969C43.0706 17.593 45.5603 13.7985 48.5113 11.0563C49.0859 10.4501 49.774 9.9743 50.5324 9.65878C51.2166 9.41966 51.9493 9.40152 52.6336 9.1454C53.632 8.57347 54.5668 7.88766 55.4208 7.10058C56.3095 6.29538 57.6092 6.23007 58.5636 6.94266C59.0699 5.8068 60.9229 6.72411 62.0235 6.22558C63.242 6.11932 64.4682 6.1803 65.6706 6.40697C66.9733 6.40494 68.2617 4.85557 69.4315 6.75822C69.6126 7.20113 69.8716 7.60445 70.1952 7.94732C70.6004 8.17759 71.052 8.30503 71.5136 8.31937C74.1833 8.79134 75.8887 11.9515 78.575 12.2534C79.1815 12.2331 79.7867 12.3184 80.3658 12.5057C82.9531 13.6919 84.1847 18.0261 84.9628 20.5075C86.5837 25.8953 91.7975 35.3585 87.2312 40.4838C86.5463 41.2501 85.601 41.8977 85.4042 42.9012C85.2074 43.9048 85.4018 44.6017 85.0751 45.4014C84.7483 46.2011 83.9011 46.5425 83.4444 47.1043C82.8761 48.1954 82.5463 49.4039 82.4789 50.6427C81.8726 53.3813 79.5253 55.2554 77.8451 57.4515C76.4912 59.2391 75.5439 61.332 74.3038 63.2214C68.3969 72.2258 52.606 69.6146 46.8855 61.5635C45.0572 59.4051 44.3184 56.4671 44.8936 53.6427C44.5821 53.2314 44.4109 52.7232 44.4071 52.1981C44.4078 51.8667 44.441 51.5362 44.5061 51.2117L44.5065 50.9056C44.4464 50.6932 44.3648 50.4881 44.2631 50.2939C43.617 49.1091 43.9947 47.5996 45.1145 46.8917C45.9319 46.4143 46.9373 46.4656 47.7034 47.0237C49.4764 48.3473 57.597 46.6882 59.8442 46.5656C62.1429 46.4319 66.7064 47.6295 69.0067 47.6491C72.0136 47.6747 73.3995 45.8926 76.3952 46.18C77.8822 43.8238 79.1558 41.3284 80.1994 38.7263C80.4412 38.2333 80.5383 37.677 80.4784 37.1275C80.2518 36.1416 79.1777 35.7522 78.4132 35.1412C75.5993 32.918 76.973 28.6308 73.5396 26.9358C71.9124 26.1221 69.975 25.955 68.2825 25.2435C66.1508 24.2606 64.1507 22.2572 61.8704 22.7708C59.9158 23.216 56.4794 23.6767 54.5261 23.2206C53.8099 23.0517 53.1104 22.5257 52.4262 22.7818C51.7419 23.0379 51.5284 24.3646 51.0063 25.1646C50.2393 26.356 48.497 26.4098 47.5836 27.4994C46.6703 28.5891 46.9128 29.8471 46.3577 30.9022C45.8191 31.7643 44.9702 32.3635 44.0039 32.5636C43.0377 32.7636 42.0363 32.5475 41.2271 31.9644C39.6557 30.6758 38.854 28.6153 39.1178 26.5433C39.1329 25.7444 39.2434 24.9502 39.4467 24.1793ZM62.6268 52.9616C58.9859 52.5673 54.2449 50.8612 50.8256 53.6295C50.4688 53.9257 50.1344 54.2532 49.8257 54.6087C49.7818 54.8844 49.6966 55.1505 49.5737 55.3964C51.2977 56.2896 50.4967 57.2584 52.3026 57.9329C57.5548 59.5531 61.5915 58.0648 66.954 53.021C64.9562 53.6237 64.6941 52.9102 62.6268 52.9616Z" fill="white"/>
<path d="M52.0296 81.543C50.5583 84.9929 27.596 95.0274 27.575 96.9595C27.5579 98.5305 45.5478 95.2988 50.6169 95.9092C51.7822 96.0496 57.0389 97.4895 47.3859 105.156C37.733 112.822 26.9673 112.272 23.4547 116.462C19.9421 120.652 16.5188 121.436 12.4925 128.888C12.8845 120.302 10.1663 108.746 13.8109 100.014C15.3139 96.4132 18.5775 90.489 36.3015 87.2533C44.0854 85.8323 52.0296 81.543 52.0296 81.543Z" fill="white"/>
<path fill-rule="evenodd" clip-rule="evenodd" d="M100.267 154.192C90.8378 156.606 81.6235 157.377 74.0797 157.527C74.1341 157.496 74.1885 157.464 74.2428 157.432C85.2622 151.01 95.2427 144.24 102.766 136.064C109.565 128.755 115.899 120.497 118.237 111.379C118.244 111.418 109.062 140.988 100.267 154.192ZM64.5328 157.427C56.0558 157.108 48.8367 156.084 42.6681 154.549C49.5381 150.761 56.2234 146.866 63.0148 143.043C83.7902 131.464 106.551 119.686 107.643 100.105C112.208 101.956 112.428 105.123 111.649 107.22C108.015 117.039 103.287 126.506 95.8668 134.856C94.44 136.452 92.923 138.008 91.3156 139.523C89.603 141.099 87.7778 142.632 85.9577 144.147C79.7654 149.01 72.7412 153.45 64.9301 157.441C64.7964 157.437 64.664 157.432 64.5328 157.427ZM28.0451 143.041C28.8721 140.43 34.4819 130.369 44.84 120.74C54.9885 111.307 69.8956 102.282 70.0925 101.689C72.6393 96.0322 77.9655 91.3882 80.5227 85.837C83.8453 85.8251 87.1049 87.3073 91.3138 89.9503C91.8697 90.2994 94.6655 92.4117 95.1675 92.7305C94.5809 95.1345 93.6349 97.4208 92.3366 99.5719C85.3328 109.148 54.1897 128.341 44.8391 136.81C44.146 137.439 57.0331 131.072 58.6918 130.849C59.1747 130.753 59.5528 130.578 59.7978 130.336C72.0295 120.972 94.0149 108.088 100.765 96.2766C103.311 97.3023 103.288 99.1348 102.687 100.292C101.398 102.852 99.9529 105.36 98.3508 107.816C89.931 120.838 63.0147 139.942 40.3137 152.082C37.0248 144.424 26.0014 149.54 28.0451 143.041Z" fill="#DAE2EB"/>
<path d="M179.679 330C142.294 330 110.242 311.551 110.242 284.439C110.242 257.326 142.294 238.877 179.679 238.877C217.063 238.877 249.116 257.326 249.116 284.439C249.116 311.551 217.063 330 179.679 330Z" fill="black"/>
<path d="M179.679 316.805C210.735 316.805 235.911 302.314 235.911 284.439C235.911 266.563 210.735 252.072 179.679 252.072C148.622 252.072 123.446 266.563 123.446 284.439C123.446 302.314 148.622 316.805 179.679 316.805Z" fill="white"/>
<path d="M179.679 308.11C210.735 308.11 235.911 293.619 235.911 275.743C235.911 257.868 210.735 243.377 179.679 243.377C148.622 243.377 123.446 257.868 123.446 275.743C123.446 293.619 148.622 308.11 179.679 308.11Z" fill="#DAE2EB"/>
<path d="M233.003 270.641C233.003 280.375 226.114 288.936 215.179 294.683C205.763 299.632 193.703 302.313 181.133 302.313C168.563 302.313 156.503 299.632 147.087 294.683C136.153 288.936 129.263 280.375 129.263 270.641C129.263 270.548 129.263 270.455 129.265 270.362L129.263 200.566C129.263 192.194 138.42 185.407 149.716 185.407H212.551C223.846 185.407 233.003 192.194 233.003 200.566V270.456C233.003 270.483 233.003 270.509 233.003 270.536C233.003 270.571 233.003 270.606 233.003 270.641Z" fill="black"/>
<path d="M217.488 268.884H217.491V181.542H138.959L138.961 268.884C138.959 268.962 138.959 269.039 138.959 269.116C138.959 280.513 156.539 289.752 178.225 289.752C199.911 289.752 217.491 280.513 217.491 269.116C217.491 269.039 217.49 268.962 217.488 268.884Z" fill="#DAE2EB"/>
<path d="M216.521 272.502C213.465 282.288 197.382 289.752 178.001 289.752C156.439 289.752 138.959 280.513 138.959 269.116C138.959 269.039 138.959 268.962 138.961 268.884L138.959 181.542H143.691L143.694 261.923C143.692 262 143.691 262.077 143.691 262.154C143.691 273.551 161.171 282.79 182.734 282.79C197.162 282.79 209.763 278.654 216.521 272.502Z" fill="white"/>
<path d="M180.649 235.647C164.217 235.647 148.548 232.086 136.491 225.608C123.016 218.369 114.72 207.832 114.72 196.034C114.72 184.237 123.016 173.7 136.491 166.461C148.548 159.983 164.217 156.422 180.649 156.422C197.08 156.422 212.749 159.983 224.806 166.461C238.281 173.7 246.577 184.237 246.577 196.034C246.577 207.832 238.281 218.369 224.806 225.608C212.749 232.086 197.08 235.647 180.649 235.647Z" fill="black"/>
<path d="M182.103 220.189C213.962 220.189 239.79 208.726 239.79 194.586C239.79 180.445 213.962 168.982 182.103 168.982C150.243 168.982 124.415 180.445 124.415 194.586C124.415 208.726 150.243 220.189 182.103 220.189Z" fill="#DAE2EB"/>
<path fill-rule="evenodd" clip-rule="evenodd" d="M166.065 186.854C181.033 166.739 239.936 197.629 222.26 175.594C204.584 153.558 175.75 167.798 155.06 171.944C134.369 176.09 120.158 186.601 123.318 195.42C126.478 204.24 151.096 206.969 166.065 186.854Z" fill="black"/>
<path fill-rule="evenodd" clip-rule="evenodd" d="M201.978 226.952C204.655 226.952 206.825 229.115 206.825 231.783V267.531C206.825 270.199 204.655 272.362 201.978 272.362C199.301 272.362 197.13 270.199 197.13 267.531V231.783C197.13 229.115 199.301 226.952 201.978 226.952Z" fill="black"/>
<path fill-rule="evenodd" clip-rule="evenodd" d="M180.648 226.952C183.326 226.952 185.496 229.115 185.496 231.783V273.328C185.496 275.996 183.326 278.159 180.648 278.159C177.971 278.159 175.801 275.996 175.801 273.328V231.783C175.801 229.115 177.971 226.952 180.648 226.952Z" fill="black"/>
<path fill-rule="evenodd" clip-rule="evenodd" d="M158.349 226.952C161.026 226.952 163.197 229.115 163.197 231.783V267.531C163.197 270.199 161.026 272.362 158.349 272.362C155.672 272.362 153.501 270.199 153.501 267.531V231.783C153.501 229.115 155.672 226.952 158.349 226.952Z" fill="black"/>
<path fill-rule="evenodd" clip-rule="evenodd" d="M166.097 182.391C178.761 170.274 221.076 185.756 209.249 173.782C197.423 161.809 171.766 166.61 155.878 169.78C139.989 172.95 131.49 183.998 133.271 188.939C135.052 193.881 153.433 194.508 166.097 182.391Z" fill="white"/>
<path d="M224.495 139.405C231.808 142.756 235.736 144.896 239.489 147.978C244.58 152.157 247.728 157.215 248.706 163.597C249.953 171.725 247.183 181.683 247.57 194.741C247.606 195.954 246.422 211.759 211.593 211.752C201.276 211.75 191.571 213.41 180.929 213.04C147.568 211.879 127.274 206.76 115.327 191.121L114.783 190.41L114.705 189.52C114.633 188.686 114.547 187.853 114.449 187.021C114.427 186.836 114.208 185.04 114.128 184.365C113.974 183.05 113.839 181.816 113.715 180.533C113.04 173.543 112.845 166.925 113.364 160.635C113.811 155.219 114.778 150.389 116.366 146.254C119.242 138.768 127.832 132.416 134.767 131.391C136.157 131.186 142.162 130.509 148.393 128.786C155.218 126.898 162.26 123.949 162.53 123.717C163.673 121.269 163.466 119.9 161.584 117.737C161.405 117.532 160.499 116.515 160.237 116.215C156.406 111.833 152.31 108.297 153.538 103.624C153.46 102.035 153.092 100.538 152.126 97.4051C150.65 92.6174 150.123 90.0219 150.512 86.9713C146.481 80.1834 147.482 68.1432 153.057 62.443C161.571 49.3939 190.342 45.3598 200.275 56.1582C209 65.2384 212.801 81.3035 210.488 93.6404C210.102 95.862 209.297 97.3393 207.445 99.9449C207.246 100.224 207.154 100.354 207.057 100.492C205.487 102.718 205.149 103.686 205.55 105.111L205.814 106.045L205.491 106.961C205.378 107.283 205.291 107.587 205.097 108.317C204.542 110.414 201.702 111.352 200.844 112.501C199.978 113.661 198.822 114.467 197.409 114.891C197.194 116.564 197.272 118.45 197.569 121.775C197.599 122.116 197.613 122.265 197.629 122.454C197.706 123.336 197.763 124.06 197.802 124.719C206.315 130.279 215.236 135.187 224.495 139.405Z" fill="black"/>
<path d="M152.815 74.1265C153.289 73.0103 153.881 71.9439 154.58 70.9442C156.733 67.5403 159.425 63.7458 162.616 61.0035C163.237 60.3974 163.981 59.9216 164.801 59.606C165.541 59.3669 166.333 59.3488 167.073 59.0927C168.152 58.5207 169.163 57.8349 170.086 57.0478C171.047 56.2426 172.452 56.1773 173.484 56.8899C174.032 55.7541 176.035 56.6714 177.225 56.1728C178.542 56.0666 179.868 56.1276 181.168 56.3542C182.577 56.3522 183.97 54.8028 185.234 56.7055C185.43 57.1484 185.71 57.5517 186.06 57.8946C186.498 58.1249 186.986 58.2523 187.486 58.2666C190.372 58.7386 192.216 61.8987 195.12 62.2006C195.776 62.1804 196.43 62.2657 197.056 62.4529C199.854 63.6392 201.185 67.9733 202.027 70.4547C203.779 75.8425 209.416 85.3058 204.479 90.4311C203.739 91.1973 202.717 91.845 202.504 92.8485C202.291 93.8521 202.501 94.5489 202.148 95.3486C201.795 96.1483 200.879 96.4897 200.385 97.0516C199.771 98.1427 199.414 99.3512 199.341 100.59C198.686 103.329 196.148 105.203 194.331 107.399C192.867 109.186 191.843 111.279 190.502 113.169C184.116 122.173 167.043 119.562 160.858 111.511C158.881 109.352 158.082 106.414 158.704 103.59C158.367 103.179 158.182 102.67 158.178 102.145C158.179 101.814 158.215 101.483 158.285 101.159L158.286 100.853C158.221 100.64 158.133 100.435 158.023 100.241C157.324 99.0563 157.732 97.5469 158.943 96.839C159.827 96.3616 160.914 96.4129 161.742 96.971C163.659 98.2946 172.439 96.6354 174.869 96.5129C177.354 96.3791 182.288 97.5767 184.775 97.5963C188.026 97.6219 189.525 95.8398 192.763 96.1273C194.371 93.7711 195.748 91.2757 196.877 88.6736C197.138 88.1805 197.243 87.6243 197.178 87.0747C196.933 86.0889 195.772 85.6994 194.945 85.0885C191.903 82.8653 193.388 78.5781 189.676 76.883C187.917 76.0694 185.822 75.9023 183.992 75.1908C181.687 74.2078 179.525 72.2044 177.059 72.7181C174.946 73.1633 171.231 73.624 169.119 73.1679C168.344 72.999 167.588 72.4729 166.848 72.729C166.109 72.9852 165.878 74.3118 165.313 75.1118C164.484 76.3033 162.6 76.357 161.613 77.4467C160.625 78.5364 160.887 79.7943 160.287 80.8494C159.705 81.7116 158.787 82.3108 157.742 82.5108C156.698 82.7109 155.615 82.4948 154.74 81.9117C153.041 80.623 152.174 78.5626 152.459 76.4906C152.476 75.6916 152.595 74.8975 152.815 74.1265ZM177.877 102.909C173.941 102.515 168.815 100.808 165.118 103.577C164.732 103.873 164.371 104.2 164.037 104.556C163.989 104.832 163.897 105.098 163.764 105.344C165.628 106.237 164.762 107.206 166.715 107.88C172.393 109.5 176.758 108.012 182.556 102.968C180.396 103.571 180.112 102.858 177.877 102.909Z" fill="white"/>
<path d="M166.42 131.489C164.83 134.939 140.003 144.974 139.98 146.906C139.962 148.477 159.412 145.245 164.893 145.856C166.153 145.996 171.836 147.436 161.4 155.102C150.963 162.768 139.323 162.218 135.525 166.408C131.728 170.598 128.026 171.382 123.673 178.834C124.097 170.248 121.158 158.692 125.099 149.961C126.724 146.36 130.252 140.435 149.415 137.2C157.831 135.779 166.42 131.489 166.42 131.489Z" fill="white"/>
<path fill-rule="evenodd" clip-rule="evenodd" d="M217.259 205.355C207.064 207.769 197.101 208.541 188.945 208.69C189.004 208.659 189.063 208.627 189.121 208.595C201.035 202.173 211.826 195.404 219.96 187.227C227.312 179.918 234.159 171.66 236.687 162.542C236.695 162.582 226.767 192.151 217.259 205.355ZM178.623 208.59C169.458 208.271 161.652 207.247 154.983 205.713C162.411 201.924 169.639 198.029 176.982 194.206C199.444 182.627 224.053 170.849 225.233 151.268C230.169 153.119 230.407 156.286 229.565 158.384C225.635 168.202 220.524 177.669 212.501 186.019C210.958 187.615 209.318 189.171 207.58 190.686C205.729 192.262 203.755 193.795 201.787 195.311C195.092 200.173 187.498 204.613 179.052 208.605C178.908 208.6 178.765 208.595 178.623 208.59ZM139.173 194.204C140.067 191.593 146.132 181.532 157.331 171.904C168.304 162.47 184.421 153.445 184.634 152.852C187.388 147.195 193.146 142.551 195.911 137C199.503 136.988 203.028 138.47 207.578 141.113C208.179 141.462 211.202 143.575 211.745 143.894C211.111 146.298 210.088 148.584 208.684 150.735C201.112 160.311 167.44 179.505 157.33 187.973C156.581 188.602 170.514 182.235 172.308 182.012C172.83 181.916 173.239 181.741 173.503 181.499C186.728 172.135 210.499 159.252 217.797 147.44C220.549 148.465 220.525 150.298 219.875 151.456C218.482 154.015 216.919 156.523 215.187 158.979C206.083 172.001 176.982 191.105 152.437 203.245C148.882 195.587 136.963 200.703 139.173 194.204Z" fill="#DAE2EB"/>
<path d="M79.8406 400C45.2637 400 15.6181 381.551 15.6181 354.439C15.6181 327.326 45.2637 308.877 79.8406 308.877C114.417 308.877 144.063 327.326 144.063 354.439C144.063 381.551 114.417 400 79.8406 400Z" fill="black"/>
<path d="M79.8407 386.805C108.565 386.805 131.851 372.314 131.851 354.439C131.851 336.563 108.565 322.072 79.8407 322.072C51.1164 322.072 27.8307 336.563 27.8307 354.439C27.8307 372.314 51.1164 386.805 79.8407 386.805Z" fill="white"/>
<path d="M79.8407 378.11C108.565 378.11 131.851 363.619 131.851 345.743C131.851 327.868 108.565 313.377 79.8407 313.377C51.1164 313.377 27.8307 327.868 27.8307 345.743C27.8307 363.619 51.1164 378.11 79.8407 378.11Z" fill="#DAE2EB"/>
<path d="M129.161 340.64C129.161 350.374 122.789 358.935 112.675 364.682C103.966 369.631 92.8118 372.312 81.1858 372.312C69.5598 372.312 58.4051 369.631 49.6964 364.682C39.583 358.935 33.211 350.374 33.211 340.64C33.211 340.547 33.211 340.454 33.2128 340.361L33.211 270.565C33.211 262.193 41.6801 255.406 52.1275 255.406H110.244C120.691 255.406 129.161 262.193 129.161 270.565V340.455C129.161 340.482 129.161 340.508 129.161 340.535C129.161 340.57 129.161 340.605 129.161 340.64Z" fill="black"/>
<path d="M114.811 338.884H114.813V251.542H42.1783L42.1805 338.884C42.179 338.962 42.1783 339.039 42.1783 339.116C42.1783 350.513 58.4381 359.752 78.4956 359.752C98.5531 359.752 114.813 350.513 114.813 339.116C114.813 339.039 114.812 338.962 114.811 338.884Z" fill="#DAE2EB"/>
<path d="M113.916 342.502C111.09 352.288 96.2148 359.752 78.289 359.752C58.3456 359.752 42.1783 350.513 42.1783 339.116C42.1783 339.039 42.179 338.962 42.1805 338.884L42.1783 251.542H46.5556L46.5576 331.923C46.5561 332 46.5554 332.077 46.5554 332.154C46.5554 343.551 62.7227 352.79 82.6661 352.79C96.0111 352.79 107.665 348.654 113.916 342.502Z" fill="white"/>
<path d="M80.7376 305.647C65.5396 305.647 51.0474 302.086 39.8956 295.608C27.4328 288.369 19.7603 277.832 19.7603 266.034C19.7603 254.237 27.4328 243.7 39.8956 236.461C51.0474 229.983 65.5396 226.422 80.7376 226.422C95.9355 226.422 110.428 229.983 121.58 236.461C134.042 243.7 141.715 254.237 141.715 266.034C141.715 277.832 134.042 288.369 121.58 295.608C110.428 302.086 95.9355 305.647 80.7376 305.647Z" fill="black"/>
<path d="M82.0822 290.189C111.549 290.189 135.437 278.726 135.437 264.586C135.437 250.445 111.549 238.982 82.0822 238.982C52.615 238.982 28.7271 250.445 28.7271 264.586C28.7271 278.726 52.615 290.189 82.0822 290.189Z" fill="#DAE2EB"/>
<path fill-rule="evenodd" clip-rule="evenodd" d="M100.465 296.951C102.941 296.951 104.949 299.114 104.949 301.782V337.53C104.949 340.198 102.941 342.361 100.465 342.361C97.9889 342.361 95.9815 340.198 95.9815 337.53V301.782C95.9815 299.114 97.9889 296.951 100.465 296.951Z" fill="black"/>
<path fill-rule="evenodd" clip-rule="evenodd" d="M80.7373 296.951C83.2135 296.951 85.2209 299.114 85.2209 301.782V343.327C85.2209 345.995 83.2135 348.158 80.7373 348.158C78.261 348.158 76.2536 345.995 76.2536 343.327V301.782C76.2536 299.114 78.261 296.951 80.7373 296.951Z" fill="black"/>
<path fill-rule="evenodd" clip-rule="evenodd" d="M60.1126 296.951C62.5888 296.951 64.5962 299.114 64.5962 301.782V337.53C64.5962 340.198 62.5888 342.361 60.1126 342.361C57.6364 342.361 55.629 340.198 55.629 337.53V301.782C55.629 299.114 57.6364 296.951 60.1126 296.951Z" fill="black"/>
<path d="M142.546 221.5L130.514 205.5L128.2 152H117.094L110.152 172L123.11 196.5L108.764 221.5L106.45 233.5L123.11 240.5L140.232 258.5L142.546 221.5Z" fill="black"/>
<mask id="path-47-outside-1_838_44408" maskUnits="userSpaceOnUse" x="32.8339" y="153.06" width="96" height="130" fill="black">
<rect fill="white" x="32.8339" y="153.06" width="96" height="130"/>
<path fill-rule="evenodd" clip-rule="evenodd" d="M102.627 227.972V230.627L94.625 235.269C98.2029 237.301 101.211 240.196 103.371 243.688C105.461 247.139 106.55 251.095 106.52 255.122C106.659 256.469 106.498 257.829 106.048 259.107C105.598 260.385 104.87 261.548 103.917 262.515L103.371 262.909C103.21 263.048 103.036 263.172 102.851 263.279H102.628L76.4521 278.658C76.0919 278.963 75.693 279.217 75.2555 279.419C74.4 279.804 73.4671 279.99 72.5282 279.961C70.0953 279.81 67.7446 279.028 65.71 277.694C62.005 275.645 58.8763 272.705 56.6108 269.143C54.4213 265.701 53.2685 261.708 53.2885 257.635C53.2885 253.274 54.4786 250.489 56.834 249.306C57.0208 249.212 57.2129 249.13 57.4105 249.059L67.1004 243.385L55.7183 236.862V230.726C55.4738 227.215 56.3407 223.717 58.1977 220.721C59.2752 219.462 60.5966 218.432 62.0831 217.691C63.5697 216.95 65.1909 216.514 66.8505 216.409C69.0377 216.217 71.1506 215.526 73.0241 214.388C73.6069 213.866 74.057 213.214 74.3371 212.486C74.6173 211.758 74.7196 210.974 74.6357 210.199C74.5473 208.386 73.8587 206.654 72.677 205.27C71.2359 203.411 69.4311 201.86 67.3712 200.712C61.432 197.448 54.6829 195.927 47.9083 196.325L46.9414 195.561L39.3861 173.966L39.2306 173.851L38.8339 172.742L39.0121 172.614L38.9579 172.57L39.484 172.265C39.5707 172.202 39.6637 172.148 39.7616 172.104L67.3119 156.137L67.4455 156.06H67.4455L71.1802 163.693C74.2851 163.495 77.4113 163.793 80.4376 164.586C85.9788 166.146 91.2829 168.442 96.2062 171.412C102.188 174.786 107.621 179.039 112.322 184.029L89.413 197.037C89.6473 197.356 89.8786 197.677 90.1067 198.001C92.3623 201.091 94.1336 204.476 95.3818 208.04L122.661 193.516L123.95 203.422L122.983 213.18L116.611 219.193L102.187 227.071L102.627 227.972ZM124.966 203.866C124.802 195.948 122.207 188.27 117.528 181.86C117.201 181.395 116.866 180.935 116.526 180.48C116.866 180.935 117.2 181.395 117.528 181.86C122.207 188.27 124.802 195.948 124.966 203.866C124.979 204.055 124.989 204.243 124.997 204.432C124.989 204.243 124.979 204.055 124.966 203.866ZM120.414 217.565L119.611 218.035L119.462 218.133L120.428 217.591L120.414 217.565ZM119.233 218.283C118.508 218.757 117.776 219.22 117.037 219.672C117.803 219.268 118.538 218.804 119.233 218.283ZM96.7092 163.412C96.9474 163.555 97.1845 163.7 97.4207 163.847C97.6304 163.962 97.8395 164.08 98.0477 164.198C97.8395 164.08 97.6305 163.962 97.4207 163.847C97.1846 163.7 96.9474 163.555 96.7092 163.412Z"/>
</mask>
<path fill-rule="evenodd" clip-rule="evenodd" d="M102.627 227.972V230.627L94.625 235.269C98.2029 237.301 101.211 240.196 103.371 243.688C105.461 247.139 106.55 251.095 106.52 255.122C106.659 256.469 106.498 257.829 106.048 259.107C105.598 260.385 104.87 261.548 103.917 262.515L103.371 262.909C103.21 263.048 103.036 263.172 102.851 263.279H102.628L76.4521 278.658C76.0919 278.963 75.693 279.217 75.2555 279.419C74.4 279.804 73.4671 279.99 72.5282 279.961C70.0953 279.81 67.7446 279.028 65.71 277.694C62.005 275.645 58.8763 272.705 56.6108 269.143C54.4213 265.701 53.2685 261.708 53.2885 257.635C53.2885 253.274 54.4786 250.489 56.834 249.306C57.0208 249.212 57.2129 249.13 57.4105 249.059L67.1004 243.385L55.7183 236.862V230.726C55.4738 227.215 56.3407 223.717 58.1977 220.721C59.2752 219.462 60.5966 218.432 62.0831 217.691C63.5697 216.95 65.1909 216.514 66.8505 216.409C69.0377 216.217 71.1506 215.526 73.0241 214.388C73.6069 213.866 74.057 213.214 74.3371 212.486C74.6173 211.758 74.7196 210.974 74.6357 210.199C74.5473 208.386 73.8587 206.654 72.677 205.27C71.2359 203.411 69.4311 201.86 67.3712 200.712C61.432 197.448 54.6829 195.927 47.9083 196.325L46.9414 195.561L39.3861 173.966L39.2306 173.851L38.8339 172.742L39.0121 172.614L38.9579 172.57L39.484 172.265C39.5707 172.202 39.6637 172.148 39.7616 172.104L67.3119 156.137L67.4455 156.06H67.4455L71.1802 163.693C74.2851 163.495 77.4113 163.793 80.4376 164.586C85.9788 166.146 91.2829 168.442 96.2062 171.412C102.188 174.786 107.621 179.039 112.322 184.029L89.413 197.037C89.6473 197.356 89.8786 197.677 90.1067 198.001C92.3623 201.091 94.1336 204.476 95.3818 208.04L122.661 193.516L123.95 203.422L122.983 213.18L116.611 219.193L102.187 227.071L102.627 227.972ZM124.966 203.866C124.802 195.948 122.207 188.27 117.528 181.86C117.201 181.395 116.866 180.935 116.526 180.48C116.866 180.935 117.2 181.395 117.528 181.86C122.207 188.27 124.802 195.948 124.966 203.866C124.979 204.055 124.989 204.243 124.997 204.432C124.989 204.243 124.979 204.055 124.966 203.866ZM120.414 217.565L119.611 218.035L119.462 218.133L120.428 217.591L120.414 217.565ZM119.233 218.283C118.508 218.757 117.776 219.22 117.037 219.672C117.803 219.268 118.538 218.804 119.233 218.283ZM96.7092 163.412C96.9474 163.555 97.1845 163.7 97.4207 163.847C97.6304 163.962 97.8395 164.08 98.0477 164.198C97.8395 164.08 97.6305 163.962 97.4207 163.847C97.1846 163.7 96.9474 163.555 96.7092 163.412Z" fill="black"/>
<path d="M102.627 230.627L104.133 233.222L105.627 232.355V230.627H102.627ZM102.627 227.972H105.627V227.277L105.322 226.653L102.627 227.972ZM94.625 235.269L93.1198 232.673L88.5991 235.295L93.143 237.877L94.625 235.269ZM103.371 243.688L105.938 242.134L105.93 242.122L105.923 242.11L103.371 243.688ZM106.52 255.122L103.52 255.1L103.519 255.265L103.536 255.43L106.52 255.122ZM106.048 259.107L103.218 258.111L103.218 258.111L106.048 259.107ZM103.917 262.515L105.674 264.946L105.877 264.8L106.052 264.622L103.917 262.515ZM103.371 262.909L101.614 260.478L101.51 260.553L101.412 260.637L103.371 262.909ZM102.851 263.279V266.279H103.654L104.35 265.877L102.851 263.279ZM102.628 263.279V260.279H101.811L101.108 260.692L102.628 263.279ZM76.4521 278.658L74.9324 276.072L74.7102 276.202L74.5135 276.369L76.4521 278.658ZM75.2555 279.419L76.4877 282.154L76.5005 282.149L76.5133 282.143L75.2555 279.419ZM72.5282 279.961L72.3424 282.955L72.3894 282.958L72.4366 282.96L72.5282 279.961ZM65.71 277.694L67.3554 275.185L67.2608 275.123L67.1618 275.069L65.71 277.694ZM56.6108 269.143L59.1422 267.533L59.1422 267.533L56.6108 269.143ZM53.2885 257.635L56.2885 257.65L56.2885 257.643V257.635H53.2885ZM56.834 249.306L58.1803 251.987L58.1803 251.987L56.834 249.306ZM57.4105 249.059L58.427 251.881L58.6874 251.787L58.9263 251.648L57.4105 249.059ZM67.1004 243.385L68.6162 245.974L73.0853 243.358L68.5922 240.783L67.1004 243.385ZM55.7183 236.862H52.7183V238.6L54.2265 239.465L55.7183 236.862ZM55.7183 230.726H58.7183V230.621L58.7111 230.517L55.7183 230.726ZM58.1977 220.721L55.9185 218.77L55.7689 218.945L55.6477 219.141L58.1977 220.721ZM62.0831 217.691L63.4213 220.376H63.4213L62.0831 217.691ZM66.8505 216.409L67.0404 219.403L67.0761 219.4L67.1118 219.397L66.8505 216.409ZM73.0241 214.388L74.5814 216.952L74.8184 216.808L75.0251 216.623L73.0241 214.388ZM74.3371 212.486L77.1371 213.563L77.1371 213.563L74.3371 212.486ZM74.6357 210.199L71.6392 210.345L71.6436 210.434L71.6531 210.522L74.6357 210.199ZM72.677 205.27L70.3055 207.108L70.3494 207.164L70.396 207.219L72.677 205.27ZM67.3712 200.712L68.8319 198.091L68.8239 198.087L68.8159 198.082L67.3712 200.712ZM47.9083 196.325L46.0486 198.679L46.9445 199.387L48.0844 199.32L47.9083 196.325ZM46.9414 195.561L44.1097 196.552L44.3976 197.375L45.0817 197.915L46.9414 195.561ZM39.3861 173.966L42.2178 172.976L41.9129 172.104L41.1704 171.555L39.3861 173.966ZM39.2306 173.851L36.4058 174.862L36.713 175.72L37.4463 176.263L39.2306 173.851ZM38.8339 172.742L37.0765 170.311L35.2503 171.631L36.0092 173.753L38.8339 172.742ZM39.0121 172.614L40.7695 175.045L43.9517 172.745L40.896 170.279L39.0121 172.614ZM38.9579 172.57L37.4536 169.974L33.6768 172.163L37.074 174.905L38.9579 172.57ZM39.484 172.265L40.9883 174.861L41.1218 174.783L41.2468 174.693L39.484 172.265ZM39.7616 172.104L40.9919 174.84L41.1325 174.777L41.2659 174.7L39.7616 172.104ZM67.3119 156.137L68.8162 158.733L68.8169 158.732L67.3119 156.137ZM67.4455 156.06V153.06H66.6385L65.9404 153.464L67.4455 156.06ZM67.4455 156.06L70.1403 154.741L69.3176 153.06H67.4455V156.06ZM71.1802 163.693L68.4854 165.012L69.3677 166.815L71.3713 166.687L71.1802 163.693ZM80.4376 164.586L81.2506 161.698L81.2241 161.691L81.1975 161.684L80.4376 164.586ZM96.2062 171.412L94.6566 173.981L94.6942 174.003L94.7324 174.025L96.2062 171.412ZM112.322 184.029L113.803 186.637L117.125 184.751L114.505 181.971L112.322 184.029ZM89.413 197.037L87.9317 194.428L84.9975 196.094L86.9954 198.813L89.413 197.037ZM90.1067 198.001L87.6545 199.729L87.6689 199.749L87.6836 199.77L90.1067 198.001ZM95.3818 208.04L92.5503 209.032L93.7058 212.331L96.7917 210.688L95.3818 208.04ZM122.661 193.516L125.636 193.128L125.076 188.831L121.251 190.868L122.661 193.516ZM123.95 203.422L126.935 203.718L126.969 203.376L126.925 203.035L123.95 203.422ZM122.983 213.18L125.042 215.362L125.858 214.592L125.968 213.476L122.983 213.18ZM116.611 219.193L118.049 221.826L118.389 221.64L118.67 221.375L116.611 219.193ZM102.187 227.071L100.749 224.438L98.2314 225.813L99.4919 228.389L102.187 227.071ZM117.528 181.86L115.076 183.588L115.09 183.609L115.105 183.629L117.528 181.86ZM124.966 203.866L121.967 203.928L121.968 203.999L121.973 204.07L124.966 203.866ZM117.528 181.86L115.076 183.588L115.09 183.609L115.105 183.629L117.528 181.86ZM124.966 203.866L121.967 203.928L121.968 203.999L121.973 204.07L124.966 203.866ZM124.997 204.432L121.999 204.549L127.994 204.316L124.997 204.432ZM119.611 218.035L118.097 215.445L118.027 215.486L117.959 215.53L119.611 218.035ZM120.414 217.565L123.021 216.081L121.519 213.444L118.9 214.976L120.414 217.565ZM119.462 218.133L117.81 215.629L120.929 220.75L119.462 218.133ZM120.428 217.591L121.896 220.208L124.53 218.731L123.035 216.106L120.428 217.591ZM119.233 218.283L121.031 220.685L117.592 215.772L119.233 218.283ZM117.037 219.672L115.471 217.114L118.438 222.325L117.037 219.672ZM97.4207 163.847L95.8356 166.394L95.9017 166.435L95.9699 166.472L97.4207 163.847ZM96.7092 163.412L98.253 160.839L95.1653 165.984L96.7092 163.412ZM98.0477 164.198L96.5658 166.806L99.5296 161.589L98.0477 164.198ZM97.4207 163.847L95.8357 166.394L95.9018 166.435L95.9699 166.472L97.4207 163.847ZM105.627 230.627V227.972H99.6274V230.627H105.627ZM96.1301 237.864L104.133 233.222L101.122 228.032L93.1198 232.673L96.1301 237.864ZM105.923 242.11C103.497 238.189 100.12 234.94 96.1069 232.66L93.143 237.877C96.2853 239.662 98.9252 242.203 100.82 245.266L105.923 242.11ZM109.52 255.145C109.554 250.561 108.314 246.059 105.938 242.134L100.805 245.242C102.607 248.218 103.546 251.629 103.52 255.1L109.52 255.145ZM108.878 260.104C109.475 258.408 109.689 256.602 109.504 254.814L103.536 255.43C103.629 256.336 103.521 257.251 103.218 258.111L108.878 260.104ZM106.052 264.622C107.316 263.341 108.281 261.799 108.878 260.104L103.218 258.111C102.915 258.971 102.425 259.755 101.781 260.408L106.052 264.622ZM105.129 265.341L105.674 264.946L102.16 260.084L101.614 260.478L105.129 265.341ZM104.35 265.877C104.698 265.677 105.026 265.444 105.33 265.181L101.412 260.637C101.394 260.653 101.373 260.668 101.352 260.68L104.35 265.877ZM102.628 266.279H102.851V260.279H102.628V266.279ZM77.9719 281.245L104.147 265.865L101.108 260.692L74.9324 276.072L77.9719 281.245ZM76.5133 282.143C77.1916 281.829 77.8203 281.431 78.3907 280.948L74.5135 276.369C74.3636 276.496 74.1945 276.605 73.9977 276.695L76.5133 282.143ZM72.4366 282.96C73.8305 283.002 75.2162 282.727 76.4877 282.154L74.0234 276.684C73.5839 276.882 73.1036 276.977 72.6199 276.963L72.4366 282.96ZM64.0647 280.203C66.5361 281.824 69.39 282.772 72.3424 282.955L72.7141 276.967C70.8006 276.848 68.9531 276.233 67.3554 275.185L64.0647 280.203ZM54.0795 270.753C56.6151 274.74 60.1155 278.029 64.2583 280.319L67.1618 275.069C63.8945 273.262 61.1376 270.671 59.1422 267.533L54.0795 270.753ZM50.2886 257.62C50.2657 262.269 51.5817 266.826 54.0795 270.753L59.1422 267.533C57.2608 264.575 56.2713 261.146 56.2885 257.65L50.2886 257.62ZM55.4876 246.625C51.5676 248.594 50.2885 252.926 50.2885 257.635H56.2885C56.2885 253.621 57.3896 252.384 58.1803 251.987L55.4876 246.625ZM56.3941 246.236C56.0839 246.348 55.7816 246.478 55.4876 246.625L58.1803 251.987C58.26 251.947 58.3419 251.912 58.427 251.881L56.3941 246.236ZM65.5847 240.797L55.8948 246.47L58.9263 251.648L68.6162 245.974L65.5847 240.797ZM54.2265 239.465L65.6086 245.988L68.5922 240.783L57.2101 234.259L54.2265 239.465ZM52.7183 230.726V236.862H58.7183V230.726H52.7183ZM55.6477 219.141C53.4598 222.671 52.4372 226.795 52.7256 230.934L58.7111 230.517C58.5103 227.636 59.2217 224.763 60.7476 222.302L55.6477 219.141ZM60.745 215.006C58.8996 215.925 57.258 217.205 55.9185 218.77L60.4768 222.672C61.2924 221.719 62.2935 220.938 63.4213 220.376L60.745 215.006ZM66.6607 213.415C64.602 213.545 62.5902 214.086 60.745 215.006L63.4213 220.376C64.5491 219.814 65.7799 219.483 67.0404 219.403L66.6607 213.415ZM71.4667 211.824C69.9876 212.722 68.3183 213.269 66.5892 213.42L67.1118 219.397C69.757 219.166 72.3135 218.33 74.5814 216.952L71.4667 211.824ZM71.5372 211.409C71.4283 211.692 71.2526 211.947 71.0231 212.153L75.0251 216.623C75.9612 215.785 76.6857 214.737 77.1371 213.563L71.5372 211.409ZM71.6531 210.522C71.6856 210.822 71.6461 211.126 71.5372 211.409L77.1371 213.563C77.5885 212.39 77.7536 211.126 77.6183 209.876L71.6531 210.522ZM70.396 207.219C71.1474 208.099 71.5833 209.198 71.6392 210.345L77.6321 210.053C77.5113 207.575 76.5699 205.209 74.958 203.322L70.396 207.219ZM65.9105 203.332C67.618 204.284 69.1128 205.569 70.3055 207.108L75.0484 203.433C73.3591 201.253 71.2442 199.436 68.8319 198.091L65.9105 203.332ZM48.0844 199.32C54.2959 198.955 60.4831 200.35 65.9264 203.341L68.8159 198.082C62.3809 194.546 55.0699 192.899 47.7323 193.33L48.0844 199.32ZM45.0817 197.915L46.0486 198.679L49.7681 193.971L48.8012 193.207L45.0817 197.915ZM36.5544 174.957L44.1097 196.552L49.7731 194.571L42.2178 172.976L36.5544 174.957ZM37.4463 176.263L37.6018 176.378L41.1704 171.555L41.0148 171.44L37.4463 176.263ZM36.0092 173.753L36.4058 174.862L42.0553 172.841L41.6587 171.732L36.0092 173.753ZM37.2546 170.182L37.0765 170.311L40.5914 175.174L40.7695 175.045L37.2546 170.182ZM37.074 174.905L37.1281 174.948L40.896 170.279L40.8419 170.235L37.074 174.905ZM37.9797 169.669L37.4536 169.974L40.4623 175.166L40.9883 174.861L37.9797 169.669ZM38.5313 169.368C38.2459 169.496 37.9745 169.654 37.7212 169.838L41.2468 174.693C41.1668 174.751 41.0814 174.8 40.9919 174.84L38.5313 169.368ZM65.8076 153.541L38.2573 169.509L41.2659 174.7L68.8162 158.733L65.8076 153.541ZM65.9404 153.464L65.8069 153.542L68.8169 158.732L68.9505 158.655L65.9404 153.464ZM67.4455 153.06H67.4455V159.06H67.4455V153.06ZM73.8749 162.375L70.1403 154.741L64.7508 157.378L68.4854 165.012L73.8749 162.375ZM81.1975 161.684C77.8601 160.81 74.4128 160.481 70.989 160.699L71.3713 166.687C74.1574 166.509 76.9625 166.777 79.6777 167.488L81.1975 161.684ZM97.7558 168.843C92.602 165.734 87.0502 163.331 81.2506 161.698L79.6247 167.474C84.9074 168.961 89.9637 171.15 94.6566 173.981L97.7558 168.843ZM114.505 181.971C109.597 176.762 103.924 172.321 97.68 168.799L94.7324 174.025C100.451 177.25 105.645 181.317 110.138 186.086L114.505 181.971ZM90.8943 199.646L113.803 186.637L110.841 181.42L87.9317 194.428L90.8943 199.646ZM92.559 196.273C92.3194 195.933 92.0765 195.595 91.8305 195.26L86.9954 198.813C87.218 199.116 87.4377 199.421 87.6545 199.729L92.559 196.273ZM98.2132 207.049C96.8682 203.208 94.9596 199.561 92.5299 196.232L87.6836 199.77C89.7649 202.621 91.399 205.744 92.5503 209.032L98.2132 207.049ZM121.251 190.868L93.9718 205.392L96.7917 210.688L124.071 196.164L121.251 190.868ZM126.925 203.035L125.636 193.128L119.686 193.903L120.975 203.809L126.925 203.035ZM125.968 213.476L126.935 203.718L120.965 203.126L119.998 212.884L125.968 213.476ZM118.67 221.375L125.042 215.362L120.924 210.998L114.552 217.011L118.67 221.375ZM103.625 229.704L118.049 221.826L115.173 216.56L100.749 224.438L103.625 229.704ZM105.322 226.653L104.881 225.753L99.4919 228.389L99.9326 229.29L105.322 226.653ZM115.105 183.629C119.422 189.543 121.816 196.626 121.967 203.928L127.966 203.803C127.789 195.27 124.992 186.997 119.951 180.091L115.105 183.629ZM114.124 182.277C114.447 182.71 114.765 183.147 115.076 183.588L119.98 180.132C119.636 179.643 119.285 179.16 118.928 178.683L114.124 182.277ZM119.98 180.132C119.636 179.644 119.285 179.161 118.928 178.683L114.124 182.277C114.447 182.709 114.765 183.146 115.076 183.588L119.98 180.132ZM127.966 203.803C127.789 195.27 124.991 186.997 119.951 180.091L115.105 183.629C119.422 189.543 121.816 196.626 121.967 203.928L127.966 203.803ZM127.994 204.316C127.986 204.097 127.974 203.879 127.959 203.661L121.973 204.07C121.984 204.23 121.993 204.39 121.999 204.549L127.994 204.316ZM121.973 204.07C121.984 204.23 121.993 204.389 121.999 204.548L127.994 204.316C127.986 204.098 127.974 203.879 127.959 203.661L121.973 204.07ZM121.125 220.625L121.928 220.155L118.9 214.976L118.097 215.445L121.125 220.625ZM121.114 220.637L121.262 220.539L117.959 215.53L117.81 215.629L121.114 220.637ZM118.961 214.974L117.995 215.516L120.929 220.75L121.896 220.208L118.961 214.974ZM117.807 219.05L117.822 219.076L123.035 216.106L123.021 216.081L117.807 219.05ZM117.592 215.772C116.892 216.23 116.185 216.677 115.471 217.114L118.604 222.231C119.368 221.763 120.125 221.284 120.875 220.794L117.592 215.772ZM118.438 222.325C119.342 221.848 120.209 221.3 121.031 220.685L117.436 215.881C116.866 216.307 116.264 216.688 115.636 217.02L118.438 222.325ZM99.0057 161.299C98.7559 161.144 98.505 160.991 98.2531 160.839L95.1653 165.984C95.3897 166.119 95.6132 166.255 95.8356 166.394L99.0057 161.299ZM99.5296 161.589C99.3108 161.465 99.0914 161.342 98.8714 161.221L95.9699 166.472C96.1694 166.583 96.3681 166.694 96.5658 166.806L99.5296 161.589ZM95.9699 166.472C96.1693 166.583 96.3678 166.694 96.5657 166.806L99.5296 161.589C99.3111 161.465 99.0917 161.342 98.8716 161.221L95.9699 166.472ZM95.1654 165.984C95.3899 166.119 95.6134 166.255 95.8357 166.394L99.0058 161.299C98.7558 161.144 98.5048 160.991 98.253 160.839L95.1654 165.984Z" fill="black" mask="url(#path-47-outside-1_838_44408)"/>
<path d="M95.1909 229.799L119.109 215.334L98.1491 175.512L80.3084 164.152L60.0139 167.159C60.0139 167.159 45.1543 170.806 45.9569 171.2C46.7595 171.594 95.6725 201.88 95.6725 201.88L95.1909 229.799Z" fill="#DAE2EB"/>
<path d="M94.2735 231.451L94.778 202.422C77.9462 191.998 46.6217 172.605 45.5898 172.063V171.841L45.1082 171.077C45.1082 170.264 45.1082 169.845 59.8532 166.148L80.4916 163.093L98.8369 174.773L98.9515 174.97L120.37 215.63L94.2735 231.451ZM47.9976 171.348C55.886 176.153 88.8616 196.582 96.1539 201.091L96.6125 201.362L96.131 228.198L117.962 214.989L97.4839 176.276L80.1247 165.212L60.1284 168.169C56.1612 169.081 50.6806 170.51 47.9976 171.348Z" fill="black"/>
<path d="M95.7875 233.939C92.1414 231.697 89.4125 231.056 87.5321 232.067L61.0691 248.774L78.0614 276.595L103.492 260.529H103.63C103.768 260.529 103.859 260.331 103.974 260.257L104.456 259.888C105.24 259.003 105.833 257.944 106.193 256.786C106.554 255.628 106.673 254.398 106.542 253.185C106.561 249.331 105.593 245.546 103.745 242.244C101.791 238.795 99.053 235.937 95.7875 233.939Z" fill="#DAE2EB"/>
<path d="M78.4971 277.459L61.0691 247.74L87.0735 231.279C89.3666 230.071 92.256 230.712 96.2461 233.152C99.6686 235.191 102.544 238.145 104.593 241.727C106.526 245.178 107.533 249.134 107.506 253.161C107.634 254.508 107.485 255.868 107.069 257.146C106.653 258.424 105.98 259.587 105.098 260.554L104.593 260.948C104.444 261.087 104.283 261.211 104.112 261.318H103.905L78.4971 277.459ZM62.445 249.095L78.4971 275.315L103.561 259.568C103.561 259.568 103.561 259.445 103.699 259.396L104.089 259.075C104.76 258.279 105.261 257.336 105.558 256.31C105.855 255.284 105.941 254.201 105.809 253.137C105.827 249.458 104.907 245.845 103.149 242.688C101.252 239.372 98.5896 236.639 95.4206 234.754C92.0955 232.684 89.596 232.068 88.0137 232.905L62.445 249.095Z" fill="black"/>
<path d="M94.7099 233.373L102.942 228.198V224.871C102.883 224.141 102.976 223.407 103.214 222.72C103.452 222.034 103.829 221.413 104.318 220.904C106.455 219.693 108.793 218.948 111.198 218.71C114.806 218.381 118.172 216.625 120.646 213.782C122.839 210.335 123.882 206.192 123.604 202.028C123.479 194.311 121.158 186.821 116.954 180.564C112.165 173.243 105.892 167.185 98.6083 162.846C90.4861 157.34 80.9797 154.663 71.3885 155.183L45.8198 171.299L59.0055 181.846L88.5184 204.024L76.0207 224.575L77.3736 244.289L84.6429 239.706L94.7099 233.373Z" fill="#DAE2EB"/>
<path d="M77.4194 245.275L76.5021 244.708L75.1262 224.255L75.2867 223.984L87.3716 204.122L58.5466 182.413L45.017 170.609L71.3654 154.099C81.1297 153.594 90.8041 156.311 99.0896 161.886C106.478 166.299 112.837 172.459 117.687 179.899C122.015 186.309 124.415 193.987 124.567 201.905C124.843 206.279 123.727 210.624 121.402 214.226C118.817 217.287 115.258 219.196 111.427 219.573C109.16 219.757 106.952 220.437 104.937 221.569C104.551 221.99 104.258 222.498 104.079 223.057C103.901 223.616 103.841 224.211 103.905 224.797V228.666L77.4194 245.275ZM76.9378 224.748L78.1302 242.614L102.071 227.557V224.773C102 223.901 102.116 223.023 102.41 222.207C102.704 221.391 103.168 220.659 103.768 220.066C106.01 218.703 108.495 217.864 111.06 217.602C114.472 217.288 117.653 215.619 119.98 212.92C122.042 209.638 123.012 205.705 122.732 201.757C122.6 194.236 120.336 186.937 116.242 180.835C111.538 173.631 105.376 167.667 98.2183 163.389C90.2953 158.049 81.0538 155.412 71.7094 155.824L47.4478 171.348L59.5786 181.033L89.7565 203.753L89.3208 204.492L76.9378 224.748Z" fill="black"/>
<path d="M123.627 201.93C123.502 194.213 121.181 186.723 116.977 180.467C112.188 173.145 105.915 167.087 98.6313 162.749C90.5092 157.242 81.0028 154.566 71.4116 155.085L46.1868 170.979C46.1081 171.01 46.0373 171.061 45.9805 171.127H45.8658L59.0514 181.674L88.5643 203.852L93.4717 231.501L110.854 220.412C113.679 218.863 116.42 217.144 119.063 215.261C119.638 214.783 120.161 214.238 120.623 213.635C122.822 210.208 123.881 206.084 123.627 201.93Z" fill="#DAE2EB"/>
<path d="M92.8292 233.102L87.7613 204.517L58.5465 182.511L45.2691 171.89L44.9022 170.781L45.4067 170.387C45.5291 170.272 45.6687 170.181 45.8195 170.116L71.3652 154.099C81.1295 153.594 90.8039 156.311 99.0894 161.886C106.478 166.299 112.837 172.459 117.687 179.899C122.014 186.309 124.415 193.987 124.566 201.905C124.843 206.279 123.727 210.624 121.402 214.226C121.107 214.711 120.769 215.165 120.393 215.581L119.613 216.074C116.93 217.992 114.142 219.736 111.266 221.298L92.8292 233.102ZM47.4476 171.348L59.5784 181.033L89.3894 203.457L94.1133 230.145L110.418 219.746C111.61 219.204 117.297 215.606 118.467 214.817H118.581C119.094 214.36 119.57 213.857 120.003 213.314C122.065 210.032 123.034 206.099 122.755 202.151C122.623 194.63 120.359 187.331 116.265 181.23C111.561 174.026 105.398 168.061 98.241 163.783C90.318 158.443 81.0765 155.806 71.7321 156.218L47.4476 171.348Z" fill="black"/>
<path d="M61.4136 234.334V228.765C61.1874 225.455 61.916 222.151 63.5004 219.302C64.435 218.152 65.5733 217.213 66.8488 216.541C68.1244 215.868 69.5118 215.475 70.9302 215.384C73.1226 215.205 75.2444 214.47 77.1217 213.24C77.7737 212.637 78.2823 211.875 78.6053 211.018C78.9284 210.16 79.0565 209.233 78.9792 208.312C78.9057 206.277 78.2038 204.326 76.9841 202.767C75.5944 200.755 73.8293 199.076 71.8016 197.839C66.1754 194.472 59.7695 192.907 53.3417 193.329L46.0495 171.151C55.6407 170.632 65.1471 173.309 73.2692 178.815C80.553 183.153 86.8256 189.211 91.6145 196.533C95.8194 202.789 98.1402 210.28 98.2646 217.996C98.5535 222.162 97.5099 226.309 95.3064 229.751C92.8333 232.593 89.467 234.349 85.8586 234.679C83.4517 234.907 81.1121 235.652 78.9792 236.872C78.4747 237.371 78.0856 237.989 77.8427 238.678C77.5999 239.367 77.5101 240.107 77.5804 240.84V244.166L61.4136 234.334ZM59.1204 255.674C59.1204 251.682 60.0606 249.193 61.9181 248.282C63.7755 247.37 66.5044 247.912 70.1735 250.154C73.4634 252.121 76.2273 254.964 78.1995 258.41C80.0588 261.707 81.0275 265.495 80.9972 269.351C80.9972 273.269 80.034 275.733 78.1078 276.743C76.1815 277.754 73.5215 277.138 70.1735 275.068C66.8724 273.093 64.0821 270.264 62.0557 266.837C60.1057 263.495 59.0945 259.619 59.1434 255.674H59.1204Z" fill="#DAE2EB"/>
<path d="M76.2267 255.402L101.704 239.262L106.611 249.71L105.74 258.162L101.772 261.933L79.5976 275.313L81.4092 269.769L80.4461 263.781L76.2267 255.402Z" fill="black"/>
<path d="M97.9662 169.451C93.4126 166.481 88.5069 164.185 83.3818 162.625C79.3192 161.475 75.0621 161.365 70.9528 162.305L48.2736 176.597L48.6404 177.879C51.7187 177.576 54.8224 177.852 57.813 178.692C62.9385 180.262 67.8441 182.566 72.3975 185.542C77.8573 188.835 82.8274 192.989 87.1425 197.863L112.872 182.068C108.524 177.078 103.498 172.825 97.9662 169.451Z" fill="white"/>
<path d="M107.948 178.122L101.294 170.927L98.6968 167.83L93.7982 161.622L93.1346 157.544L88.797 150.146L93.0648 155.178L102.068 169.097L110.887 176.574L119.64 186.342L121.954 192.83L120.128 190.523L116.633 185.204L115.131 185.233L113.335 184.151L110.636 180.068L108.126 180.725L107.948 178.122Z" fill="black"/>
<path d="M120.079 190.452L120.74 189.78L117.41 184.279L115.692 184.012L114.082 183.014L111.235 178.536L109.15 179.231L108.821 177.34C108.821 177.34 98.673 166.613 94.9979 160.539L94.1427 156.853L93.0711 155.187L88.8033 150.154L93.1335 157.56L93.7971 161.638L101.293 170.943L107.954 178.146L108.125 180.741L110.635 180.084L113.334 184.167L115.137 185.257L116.639 185.229L120.085 190.476L120.079 190.452Z" fill="#DAE2EB"/>
<path d="M76.0664 278C73.8162 277.849 71.642 277.067 69.7602 275.733C66.3334 273.684 63.4397 270.744 61.3443 267.182C59.3192 263.74 58.2529 259.747 58.2715 255.674C58.2715 251.313 59.3722 248.528 61.5507 247.345C63.7292 246.162 66.6874 246.778 70.7233 249.243C74.1508 251.275 77.0274 254.23 79.0704 257.818C81.0098 261.266 82.0255 265.223 82.0057 269.252C82.0057 273.565 80.8591 276.325 78.5889 277.458C77.7976 277.843 76.9347 278.029 76.0664 278ZM63.9356 248.676C63.3913 248.669 62.8519 248.786 62.3533 249.021C60.8169 249.859 60.0601 252.101 60.0601 255.674C60.0429 259.388 61.0136 263.031 62.8578 266.172C64.8125 269.463 67.4899 272.188 70.6545 274.107C73.7273 276.004 76.1352 276.571 77.7863 275.733C79.4373 274.895 80.0794 272.751 80.0794 269.252C80.1014 265.57 79.1726 261.953 77.3964 258.804C75.5082 255.489 72.8539 252.755 69.6914 250.869C67.9669 249.647 65.9914 248.894 63.9356 248.676ZM77.4194 245.374L60.5188 234.901V228.765C60.2926 225.254 61.0945 221.756 62.812 218.76C63.8086 217.501 65.0307 216.471 66.4057 215.73C67.7806 214.989 69.2801 214.553 70.8151 214.448C72.8379 214.256 74.7922 213.565 76.525 212.427C77.0641 211.905 77.4803 211.253 77.7394 210.525C77.9986 209.797 78.0932 209.013 78.0156 208.238C77.9338 206.425 77.2969 204.693 76.204 203.309C74.8712 201.45 73.2018 199.899 71.2966 198.751C65.8034 195.487 59.5611 193.966 53.2953 194.364L52.401 193.6L45.017 170.782L45.5215 170.387L46.0031 170.239C55.7657 169.752 65.4353 172.468 73.7273 178.026C81.1159 182.44 87.4751 188.599 92.3249 196.04C96.6522 202.45 99.0526 210.128 99.2043 218.046C99.4767 222.415 98.3699 226.756 96.0627 230.367C93.464 233.422 89.8998 235.328 86.0645 235.714C83.732 235.934 81.4674 236.672 79.4144 237.883C79.0283 238.303 78.7351 238.812 78.5565 239.37C78.3779 239.929 78.3184 240.524 78.3824 241.111V244.906L77.4194 245.374ZM62.2845 233.792L76.5938 242.663V240.987C76.5225 240.116 76.6385 239.238 76.9327 238.422C77.2269 237.606 77.6916 236.873 78.2908 236.281C80.5335 234.918 83.0182 234.079 85.583 233.817C88.995 233.503 92.1757 231.834 94.5033 229.135C96.5648 225.853 97.5345 221.919 97.2551 217.972C97.1233 210.451 94.8594 203.152 90.7655 197.05C86.061 189.846 79.8986 183.881 72.7413 179.604C65.1114 174.524 56.2844 171.907 47.3102 172.063L53.9833 192.393C60.3827 192.079 66.7363 193.692 72.3285 197.05C74.4481 198.329 76.3046 200.056 77.7863 202.127C79.109 203.855 79.8664 206.002 79.9418 208.238C80.0145 209.319 79.8441 210.402 79.445 211.397C79.0458 212.392 78.4298 213.27 77.6487 213.955C75.6998 215.322 73.4744 216.167 71.159 216.419C69.851 216.492 68.5694 216.844 67.3885 217.453C66.2077 218.062 65.151 218.917 64.2795 219.968C62.8056 222.651 62.1333 225.756 62.3533 228.863L62.2845 233.792Z" fill="black"/>
<path d="M96.1087 206.71L122.434 191.555L123.627 201.461L122.732 211.219L116.839 217.232L102.942 225.438L102.736 228.518L77.4883 244.314L78.1074 238.326L80.6299 236.083L89.5044 233.816L94.2971 230.662L97.5763 224.107L98.1496 212.254L96.1087 206.71Z" fill="black"/>
<path d="M95.4431 231.599V229.578L101.91 225.685V227.631L95.4431 231.599Z" fill="#DAE2EB"/>
</svg>
