<svg width="287" height="278" viewBox="0 0 287 278" fill="none" xmlns="http://www.w3.org/2000/svg">
<path d="M207.626 263.106L207.644 263.089L207.664 263.073C217.771 255.154 225.134 248.32 229.775 242.568C234.569 236.627 238.468 228.805 241.457 219.084C249.254 189.602 232.455 153.471 199.323 131.186C179.542 117.881 157.331 111.799 137.43 112.959C117.531 114.118 99.9679 122.512 89.4015 138.133C88.1136 140.037 86.6693 142.802 85.157 145.696L85.01 145.978C83.4538 148.956 81.8323 152.039 80.2705 154.348C69.7044 169.969 68.4796 189.351 74.8555 208.183C81.2321 227.017 95.2068 245.274 114.988 258.579C133.695 271.162 155.023 277.584 174.894 276.892C183.275 276.6 190.658 274.466 197.072 270.956C201.445 268.563 204.41 266.203 207.626 263.106Z" fill="black" stroke="black"/>
<path fill-rule="evenodd" clip-rule="evenodd" d="M201.843 255.355C192.687 260.633 163.901 261.809 139.317 249.671C116.507 238.409 97.6841 214.617 92.3047 198.582C85.9719 179.704 91.7359 154.34 94.5402 147.493C91.0363 150.264 89.5168 155.757 86.9581 159.526C69.0079 185.969 83.4977 226.869 119.322 250.879C136.974 262.71 156.512 268.232 173.939 267.627C189.342 267.092 193.339 263.559 196.107 260.903C199.369 257.773 201.281 255.924 201.843 255.355Z" fill="#DAE2EB"/>
<path fill-rule="evenodd" clip-rule="evenodd" d="M130.128 235.168C94.6861 211.045 80.3509 169.954 98.1097 143.387C115.868 116.82 158.996 114.839 194.439 138.961C229.881 163.083 244.216 204.175 226.457 230.742C208.699 257.308 165.571 259.29 130.128 235.168Z" fill="#DAE2EB"/>
<path fill-rule="evenodd" clip-rule="evenodd" d="M130.128 235.168C94.6861 211.045 80.3509 169.954 98.1097 143.387C115.868 116.82 158.996 114.839 194.439 138.961C229.881 163.083 244.216 204.175 226.457 230.742C208.699 257.308 165.571 259.29 130.128 235.168Z" fill="#DAE2EB"/>
<path fill-rule="evenodd" clip-rule="evenodd" d="M221.38 236.951C200.925 254.888 164.156 253.83 133.266 232.755C98.072 208.742 83.8371 167.838 101.472 141.392C102.446 139.931 103.497 138.545 104.62 137.233C101.769 139.733 99.2359 142.601 97.0792 145.835C79.4449 172.281 93.6797 213.185 128.874 237.198C162.123 259.883 202.184 259.376 221.38 236.951Z" fill="white"/>
<path fill-rule="evenodd" clip-rule="evenodd" d="M112.467 142.92C130.92 128.258 162.588 130.855 188.28 150.587C217.552 173.069 227.983 209.28 211.578 231.468C210.671 232.694 209.702 233.851 208.675 234.94C211.246 232.897 213.561 230.519 215.567 227.806C231.972 205.618 221.541 169.406 192.269 146.925C164.614 125.685 130.037 124.299 112.467 142.92Z" fill="white"/>
<path d="M137.551 224.855C149.872 233.392 163.283 238.111 175.828 239.12C163.538 236.828 150.805 230.915 139.446 221.473C125.292 209.708 115.921 194.665 112.224 179.839C108.528 165.014 110.501 150.368 119.1 139.467C120.899 137.188 122.915 135.164 125.116 133.394C119.234 136.413 114.244 140.737 110.561 146.344C103.134 157.646 102.392 172.072 107.263 186.295C112.134 200.518 122.61 214.502 137.551 224.855Z" fill="black" stroke="black"/>
<path d="M150.311 160.682L149.991 160.298L149.607 160.618L134.43 173.263L127.837 165.359L152.579 144.745L191.319 191.19C192.828 192.999 194.056 195.229 194.59 197.616L194.592 197.625L194.594 197.633C195.635 201.638 194.947 206.093 192.847 209.889L192.843 209.896L192.839 209.903L185.252 224.743L175.548 218.125L181.041 207.074C181.042 207.073 181.042 207.071 181.043 207.07C182.874 203.561 182.589 199.378 180.072 196.361L150.311 160.682Z" fill="black" stroke="black"/>
<path d="M149.643 150.356L125.634 170.359L132.576 178.682L147.222 166.479L175.782 200.719C178.063 203.454 178.366 207.232 176.737 210.402L172.739 217.562L182.797 224.497L188.804 213.648C190.814 209.959 191.45 205.599 190.391 201.646C189.843 199.281 188.616 197.079 187.129 195.296L149.643 150.356Z" fill="#DAE2EB"/>
<path d="M174.02 218.452L170.84 216.347L175.174 208.992C176.948 205.74 176.773 201.944 174.542 199.269L146.608 165.781L131.231 178.594L128.64 175.487L146.646 160.485L177.024 196.903C178.229 198.348 179.191 200.16 179.56 202.139C180.3 205.441 179.558 209.162 177.661 212.376L174.02 218.452Z" fill="white"/>
<path d="M286.035 87.447C286.035 135.465 247.01 174.394 198.867 174.394C150.725 174.394 111.699 135.465 111.699 87.447C111.699 39.4287 150.725 0.5 198.867 0.5C247.01 0.5 286.035 39.4287 286.035 87.447Z" fill="black" stroke="black"/>
<path d="M198.867 164.147C241.35 164.147 275.79 129.807 275.79 87.4473C275.79 45.0875 241.35 10.748 198.867 10.748C156.384 10.748 121.944 45.0875 121.944 87.4473C121.944 129.807 156.384 164.147 198.867 164.147Z" fill="#DAE2EB"/>
<path fill-rule="evenodd" clip-rule="evenodd" d="M122.071 92.3326C121.987 90.8533 121.944 89.3628 121.944 87.8623C121.944 45.2733 156.384 10.748 198.867 10.748C241.35 10.748 275.79 45.2733 275.79 87.8623C275.79 89.3628 275.747 90.8533 275.663 92.3326C273.353 51.8241 239.854 19.6888 198.867 19.6888C157.88 19.6888 124.381 51.8241 122.071 92.3326Z" fill="white"/>
<path d="M128.118 65.0404C145.254 28.1903 188.032 11.5369 225.212 26.4785C189.703 16.7695 151.331 33.7967 135.25 68.3777C119.17 102.957 130.826 143.375 161.066 164.411C125.755 145.453 110.982 101.889 128.118 65.0404Z" fill="black" stroke="black"/>
<path d="M175.922 163.323L152.941 157.429C149.067 151.067 146.617 142.026 145.543 131.719C144.459 121.328 144.778 109.691 146.416 98.3004C148.055 86.9086 151.011 75.779 155.192 66.3977C159.377 57.0086 164.769 49.4145 171.253 45.0357C198.043 26.9441 233.826 33.2153 251.189 58.9873C253.189 61.9559 254.858 65.0538 256.204 68.2395C255.59 67.1833 254.936 66.1407 254.244 65.1133C245.324 51.8725 228.826 48.8046 214.8 53.296C200.763 57.7908 189.053 69.902 189.751 87.1662C190.762 112.176 184.045 126.671 178.789 137.269C178.583 137.686 178.379 138.096 178.177 138.502C175.814 143.248 173.798 147.298 173.102 151.219C172.397 155.193 173.046 159.02 175.922 163.323Z" fill="black" stroke="black"/>
<path fill-rule="evenodd" clip-rule="evenodd" d="M259.46 73.7676C259.832 74.8791 260.174 76.0076 260.484 77.1526C269.308 109.665 249.766 143.083 216.836 151.795C183.907 160.506 150.059 141.212 141.235 108.7C140.74 106.875 140.334 105.047 140.015 103.22C150.197 133.672 182.822 151.335 214.592 142.93C245.673 134.708 264.827 104.474 259.46 73.7676Z" fill="white"/>
<path d="M211.078 61.6094V61.1094H210.578H190.82V50.8193H223.031V111.286C223.031 113.641 222.545 116.14 221.426 118.315L221.422 118.323L221.418 118.331C219.652 122.073 216.269 125.055 212.224 126.626L212.216 126.629L212.209 126.632L196.872 133.175L193.66 121.882L204.959 116.909C204.96 116.908 204.962 116.908 204.963 116.907C208.617 115.384 211.078 111.988 211.078 108.06V61.6094Z" fill="black" stroke="black"/>
<path d="M217.181 53.25H185.923V64.0847H204.991V108.662C204.991 112.222 202.802 115.318 199.52 116.711L191.862 119.651L195.144 131.415L206.71 126.926C210.617 125.378 213.899 122.437 215.618 118.723C216.712 116.556 217.181 114.079 217.181 111.757V53.25Z" fill="#DAE2EB"/>
<path d="M192.277 121.155L191.183 117.502L199.224 114.626C202.67 113.264 204.968 110.236 204.968 106.754V63.1554H184.947V59.1113H208.391V106.525C208.391 108.406 207.969 110.413 206.984 112.169C205.437 115.179 202.483 117.563 198.966 118.817L192.277 121.155Z" fill="white"/>
<path d="M36.2203 173.046L36.2019 173.028L36.1818 173.012C26.075 165.093 18.712 158.259 14.0709 152.507C9.27687 146.566 5.37844 138.744 2.38875 129.023C-5.40758 99.5412 11.3911 63.4106 44.5233 41.1252C64.3041 27.8203 86.5152 21.7385 106.416 22.8981C126.315 24.0575 143.878 32.4511 154.445 48.0725C155.733 49.9767 157.177 52.7411 158.689 55.6358L158.836 55.9172C160.392 58.8953 162.014 61.9788 163.576 64.2877C174.142 79.9089 175.367 99.2909 168.991 118.122C162.614 136.956 148.639 155.214 128.859 168.519C110.151 181.102 88.8235 187.524 68.9521 186.831C60.5709 186.539 53.1878 184.405 46.7739 180.895C42.4013 178.503 39.4365 176.143 36.2203 173.046Z" fill="black" stroke="black"/>
<path fill-rule="evenodd" clip-rule="evenodd" d="M42.0027 165.295C51.1592 170.573 79.9448 171.749 104.529 159.611C127.339 148.35 146.162 124.558 151.541 108.522C157.874 89.6449 152.11 64.2808 149.306 57.4336C152.81 60.204 154.329 65.6973 156.888 69.4665C174.838 95.9094 160.348 136.809 124.524 160.819C106.872 172.65 87.3343 178.172 69.9072 177.567C54.5038 177.033 50.5067 173.499 47.7392 170.844C44.4773 167.714 42.5652 165.864 42.0027 165.295Z" fill="#DAE2EB"/>
<path fill-rule="evenodd" clip-rule="evenodd" d="M113.718 145.108C149.16 120.986 163.495 79.8941 145.736 53.3275C127.977 26.7608 84.8494 24.7793 49.4072 48.9016C13.965 73.0239 -0.370268 114.115 17.3885 140.682C35.1473 167.249 78.2753 169.23 113.718 145.108Z" fill="#DAE2EB"/>
<path fill-rule="evenodd" clip-rule="evenodd" d="M113.718 145.108C149.16 120.986 163.495 79.8941 145.736 53.3275C127.977 26.7608 84.8494 24.7793 49.4072 48.9016C13.965 73.0239 -0.370268 114.115 17.3885 140.682C35.1473 167.249 78.2753 169.23 113.718 145.108Z" fill="#DAE2EB"/>
<path fill-rule="evenodd" clip-rule="evenodd" d="M22.4662 146.891C42.9212 164.829 79.6903 163.771 110.58 142.695C145.774 118.683 160.009 77.7784 142.374 51.3328C141.4 49.8717 140.349 48.4853 139.226 47.1738C142.076 49.6732 144.61 52.5415 146.767 55.7757C164.401 82.2214 150.166 123.126 114.972 147.138C81.7228 169.824 41.6615 169.317 22.4662 146.891Z" fill="white"/>
<path fill-rule="evenodd" clip-rule="evenodd" d="M131.379 52.8597C112.925 38.1976 81.2581 40.7943 55.5661 60.5264C26.2942 83.008 15.8633 119.22 32.2682 141.407C33.1745 142.633 34.1438 143.791 35.1713 144.88C32.6 142.837 30.2852 140.459 28.279 137.745C11.8741 115.557 22.3049 79.3455 51.5769 56.864C79.2316 35.6245 113.809 34.2384 131.379 52.8597Z" fill="white"/>
<path d="M106.295 134.794C93.974 143.331 80.5627 148.05 68.0183 149.059C80.3083 146.767 93.0407 140.854 104.4 131.413C118.554 119.647 127.926 104.605 131.622 89.7788C135.318 74.9538 133.345 60.3077 124.746 49.4069C122.947 47.1273 120.931 45.1034 118.731 43.3339C124.612 46.3528 129.602 50.6766 133.286 56.283C140.712 67.585 141.454 82.0111 136.583 96.2348C131.712 110.458 121.236 124.442 106.295 134.794Z" fill="black" stroke="black"/>
<path d="M65.4036 100.4L91.3652 73.49L91.7929 73.0467L91.2711 72.7193L78.6068 64.774L79.3958 60.0592L85.8207 57.965L115.078 69.5899L117.136 75.8157L71.499 123.6C69.7264 125.456 67.4395 127.044 64.8719 127.865L64.865 127.867L64.8581 127.869C60.6025 129.368 55.6097 128.914 51.1409 126.774L38.107 120.093V113.78L43.4573 109.548L52.111 113.692L52.1212 113.697L52.1317 113.701C52.382 113.807 52.5814 113.886 52.7295 113.934C52.8014 113.957 52.879 113.979 52.9528 113.991C52.9889 113.997 53.0427 114.004 53.1039 114.001C53.1532 113.998 53.2814 113.986 53.4046 113.893C53.5655 113.771 53.6205 113.588 53.608 113.436C53.5983 113.317 53.5504 113.23 53.529 113.194C53.4821 113.115 53.4197 113.051 53.38 113.011C53.2901 112.922 53.1614 112.816 53.0178 112.703C52.803 112.533 52.514 112.316 52.1832 112.068C52.0649 111.98 51.9414 111.887 51.8139 111.791C51.3252 111.424 50.7688 111 50.2039 110.542C49.0646 109.62 47.9263 108.591 47.2392 107.643C46.8943 107.167 46.6942 106.753 46.6375 106.415C46.6038 106.214 46.6196 106.042 46.6933 105.886C49.5934 106.831 52.4983 107.306 55.4065 107.306C58.6186 107.306 61.9494 104.894 65.4036 100.4Z" fill="black" stroke="black"/>
<path d="M115.751 69.1031L83.8836 50.5928L76.1049 58.1795L95.1102 70.2653L61.3221 104.748C58.6235 107.502 54.3315 108.079 50.3731 106.4L41.438 102.122L35.6532 113.558L48.965 120.381C53.5357 122.572 58.6689 123.05 63.0704 121.5C65.7314 120.649 68.0874 119.009 69.9068 117.104L115.751 69.1031Z" fill="#DAE2EB"/>
<path d="M39.0716 115.796L39.9261 114.109L51.9102 119.84C57.2193 122.089 62.9759 121.317 66.5953 117.627L111.913 71.4297L86.4224 55.2381L88.1804 53.5254L117.216 70.2413L71.1 118.099C69.2699 119.998 66.8999 121.633 64.2232 122.481C59.7957 124.026 54.632 123.55 50.0343 121.366L39.0716 115.796Z" fill="white"/>
</svg>
