<svg width="375" height="339" viewBox="0 0 375 339" fill="none" xmlns="http://www.w3.org/2000/svg">
<mask id="path-1-outside-1_838_45368" maskUnits="userSpaceOnUse" x="0.890991" y="38.0371" width="374" height="295" fill="black">
<rect fill="white" x="0.890991" y="38.0371" width="374" height="295"/>
<path fill-rule="evenodd" clip-rule="evenodd" d="M294.517 48.0371C282.367 48.0371 272.517 57.8868 272.517 70.0371V118.228C272.517 130.378 282.367 140.228 294.517 140.228H342.588C354.738 140.228 364.588 130.378 364.588 118.228V70.0371C364.588 57.8868 354.738 48.0371 342.588 48.0371H294.517ZM32.891 80.8975C20.7407 80.8975 10.891 90.7472 10.891 102.897V216.808C10.891 228.958 20.7407 238.808 32.891 238.808H146.596C158.746 238.808 168.596 228.958 168.596 216.808V102.897C168.596 90.7472 158.746 80.8975 146.596 80.8975H32.891ZM178.624 217.907C178.624 205.757 188.473 195.907 200.624 195.907H283.335C295.485 195.907 305.335 205.757 305.335 217.907V300.783C305.335 312.934 295.485 322.784 283.335 322.784H200.624C188.473 322.784 178.624 312.934 178.624 300.784V217.907Z"/>
</mask>
<path d="M282.517 70.0371C282.517 63.4097 287.89 58.0371 294.517 58.0371V38.0371C276.844 38.0371 262.517 52.364 262.517 70.0371H282.517ZM282.517 118.228V70.0371H262.517V118.228H282.517ZM294.517 130.228C287.89 130.228 282.517 124.855 282.517 118.228H262.517C262.517 135.901 276.844 150.228 294.517 150.228V130.228ZM342.588 130.228H294.517V150.228H342.588V130.228ZM354.588 118.228C354.588 124.855 349.215 130.228 342.588 130.228V150.228C360.261 150.228 374.588 135.901 374.588 118.228H354.588ZM354.588 70.0371V118.228H374.588V70.0371H354.588ZM342.588 58.0371C349.215 58.0371 354.588 63.4097 354.588 70.0371H374.588C374.588 52.364 360.261 38.0371 342.588 38.0371V58.0371ZM294.517 58.0371H342.588V38.0371H294.517V58.0371ZM20.891 102.897C20.891 96.2701 26.2636 90.8975 32.891 90.8975V70.8975C15.2179 70.8975 0.890991 85.2244 0.890991 102.897H20.891ZM20.891 216.808V102.897H0.890991V216.808H20.891ZM32.891 228.808C26.2636 228.808 20.891 223.436 20.891 216.808H0.890991C0.890991 234.481 15.2179 248.808 32.891 248.808V228.808ZM146.596 228.808H32.891V248.808H146.596V228.808ZM158.596 216.808C158.596 223.436 153.224 228.808 146.596 228.808V248.808C164.269 248.808 178.596 234.481 178.596 216.808H158.596ZM158.596 102.897V216.808H178.596V102.897H158.596ZM146.596 90.8975C153.224 90.8975 158.596 96.2701 158.596 102.897H178.596C178.596 85.2243 164.269 70.8975 146.596 70.8975V90.8975ZM32.891 90.8975H146.596V70.8975H32.891V90.8975ZM200.624 185.907C182.95 185.907 168.624 200.234 168.624 217.907H188.624C188.624 211.28 193.996 205.907 200.624 205.907V185.907ZM283.335 185.907H200.624V205.907H283.335V185.907ZM315.335 217.907C315.335 200.234 301.008 185.907 283.335 185.907V205.907C289.962 205.907 295.335 211.28 295.335 217.907H315.335ZM315.335 300.783V217.907H295.335V300.783H315.335ZM283.335 332.784C301.008 332.784 315.335 318.457 315.335 300.783H295.335C295.335 307.411 289.962 312.784 283.335 312.784V332.784ZM200.624 332.784H283.335V312.784H200.624V332.784ZM168.624 300.784C168.624 318.457 182.951 332.784 200.624 332.784V312.784C193.996 312.784 188.624 307.411 188.624 300.784H168.624ZM168.624 217.907V300.784H188.624V217.907H168.624Z" fill="black" mask="url(#path-1-outside-1_838_45368)"/>
<rect x="10.891" y="80.8975" width="157.705" height="157.911" rx="22" fill="#DAE2EB"/>
<path fill-rule="evenodd" clip-rule="evenodd" d="M116.671 163.057L66.1434 192.027C63.4209 193.654 60.014 191.498 58.5129 187.213C58.1616 186.215 57.9406 185.152 57.8636 184.085L56.3359 122.799C56.4499 118.217 59.7546 114.585 63.6607 114.686C64.5664 114.709 65.45 114.939 66.2621 115.362L119.395 147.676C121.854 149.49 122.233 154.373 120.343 158.582C119.437 160.645 118.116 162.259 116.671 163.057Z" fill="white"/>
<path d="M116.013 169.425L116.022 169.42C117.041 168.862 118.107 167.629 118.862 165.867L118.866 165.857L118.867 165.857C119.645 164.08 119.925 162.174 119.761 160.56C119.596 158.941 119.013 157.814 118.28 157.259L67.9808 126.849C67.4086 126.556 66.7947 126.4 66.1692 126.382L116.013 169.425ZM116.013 169.425L116.003 169.43M116.013 169.425L116.003 169.43M116.003 169.43L68.1084 196.645L68.0985 196.65M116.003 169.43L68.0985 196.65M68.0985 196.65L68.0886 196.656M68.0985 196.65L68.0886 196.656M68.0886 196.656C67.3067 197.118 66.4004 197.093 65.4429 196.492C64.4519 195.869 63.4544 194.634 62.8225 192.835L62.822 192.833M68.0886 196.656L62.822 192.833M62.822 192.833C62.5342 192.017 62.3515 191.147 62.2865 190.272M62.822 192.833L62.2865 190.272M62.2865 190.272L60.7456 132.656C60.8361 128.902 63.4681 126.31 66.1687 126.382L62.2865 190.272Z" fill="black" stroke="black" stroke-width="2.70899"/>
<path fill-rule="evenodd" clip-rule="evenodd" d="M76.1324 135.684C71.4376 133.02 65.5864 136.377 65.5864 141.738V181.616C65.5864 186.977 71.4376 190.336 76.1324 187.672L111.269 167.731C115.993 165.052 115.993 158.304 111.269 155.624L76.1324 135.684Z" fill="white"/>
<rect x="178.624" y="195.907" width="126.711" height="126.876" rx="22" fill="white"/>
<rect x="272.517" y="48.0371" width="92.0706" height="92.1907" rx="22" fill="white"/>
<path d="M272.517 257.519C272.517 273.651 259.457 286.728 243.347 286.728C227.236 286.728 214.176 273.651 214.176 257.519C214.176 241.387 227.236 232.874 243.347 232.874C259.457 232.874 272.517 241.387 272.517 257.519Z" fill="black"/>
<path d="M271.017 249.891C271.017 265.196 258.627 277.6 243.347 277.6C228.066 277.6 215.676 265.196 215.676 249.891C215.676 242.277 218.736 236.554 223.646 232.699C228.597 228.812 235.536 226.746 243.347 226.746C251.157 226.746 258.096 228.812 263.047 232.699C267.957 236.554 271.017 242.277 271.017 249.891Z" fill="#DAE2EB" stroke="black" stroke-width="3"/>
<path d="M339.475 102.338C339.475 96.6121 337.108 87.9092 333.259 80.6345C331.336 77.0017 329.059 73.7544 326.551 71.4218C324.04 69.0875 321.338 67.7053 318.553 67.7053C315.767 67.7053 313.065 69.0875 310.555 71.4218C308.046 73.7544 305.769 77.0017 303.847 80.6345C299.997 87.9092 297.63 96.6121 297.63 102.338C297.63 108.013 299.957 112.318 303.71 115.218C307.478 118.129 312.717 119.646 318.553 119.646C324.388 119.646 329.627 118.129 333.395 115.218C337.148 112.318 339.475 108.013 339.475 102.338Z" fill="black" stroke="black"/>
<path d="M334.389 102.338C334.389 96.816 332.083 88.2739 328.289 81.1022C326.398 77.5301 324.184 74.3857 321.784 72.1542C319.378 69.9172 316.908 68.7053 314.467 68.7053C312.025 68.7053 309.555 69.9172 307.149 72.1542C304.749 74.3857 302.535 77.5301 300.644 81.1022C296.85 88.2739 294.544 96.816 294.544 102.338C294.544 107.705 296.729 111.718 300.236 114.427C303.785 117.169 308.791 118.646 314.467 118.646C320.142 118.646 325.148 117.169 328.697 114.427C332.204 111.718 334.389 107.705 334.389 102.338Z" fill="#DAE2EB" stroke="black" stroke-width="3"/>
<path d="M85.4612 83.05L71.4666 76.162H81.9197L85.4612 78.3926V75.4512L92.177 76.162L101.928 80.9092" fill="black"/>
<path d="M92.5361 82.1449L97.1874 98.2903L101.928 80.9111H94.6789L92.5361 82.1449Z" fill="black"/>
<path d="M85.4615 83.0509L90.4348 81.4718L95.0904 81.8171L92.6179 108.634L85.4615 83.0509Z" fill="black"/>
<path d="M85.4617 83.0522L92.6182 108.635L80.9763 80.8506L85.4617 83.0522Z" fill="white"/>
<path d="M76.3708 78.5806L82.1645 78.3109L85.6897 80.9092V76.9628L91.8669 77.6981L101.431 82.7313L101.928 80.9092L92.177 76.162L85.4612 75.4512V78.3926L81.9197 76.162H71.4666L76.3708 78.5806Z" fill="#DAE2EB"/>
<path d="M74.5949 247.596L64.603 243.692L117.974 241.252H157.698L172.808 230.759L175.001 281.76C174.027 292.253 171.882 313.043 171.102 312.262C170.127 311.286 169.13 282.946 166.693 277.822C164.256 272.697 164.744 258.089 161.088 254.185C158.163 251.061 99.2091 248.491 74.5949 247.596Z" fill="black"/>
<path d="M1.07232 217.954L5.92755 225.246C5.92755 215.793 6.8986 185.543 10.7828 140.169C15.638 83.4507 17.2564 94.7943 21.707 86.2866C25.2675 79.4804 45.3088 76.4285 54.8844 75.7532H154.416L169.387 88.7174L172.624 203.369L181.929 196.887C172.624 189.595 183.304 129.42 180.472 124.963C177.64 120.507 182.334 101.682 181.929 94.7943C181.525 87.9071 166.15 72.5122 162.104 72.5122H104.246C96.1538 72.5122 51.6476 64.8146 37.8911 66.4351C26.8859 67.7315 15.2334 76.4283 10.7828 80.6147L5.92755 91.1482L1.07232 112.215C0.263123 115.456 -0.869758 123.072 1.07232 127.61C3.0144 132.147 1.88152 189.73 1.07232 217.954Z" fill="black"/>
<path d="M216.421 338.542C203.589 338.848 188.16 330.256 182.049 325.922L217.616 328.088L293.565 323.533L308.08 314.45L310.754 238.35L303.879 198.579C307.317 204.825 314.267 217.852 314.573 219.994C314.955 222.671 313.427 249.44 316.864 263.589C320.302 277.738 319.92 312.155 316.864 317.891C313.809 323.627 264.924 331.658 254.613 330.511C244.301 329.364 232.462 338.159 216.421 338.542Z" fill="black"/>
<path d="M292.179 317.264C289.671 319.943 279.711 323.262 275.045 324.587L289.88 326.68L306.178 318.311L310.566 292.786C309.103 290.205 306.178 285.505 306.178 287.346C306.178 289.647 302.626 294.878 302.626 303.456C302.626 312.034 295.313 313.917 292.179 317.264Z" fill="black"/>
<path d="M77.0027 233.152C70.5886 232.658 43.4111 238.216 30.6241 241.057L64.9147 242.909L102.042 244.638C114.007 242.415 134.828 238.117 122.394 238.71C106.853 239.451 85.0202 233.77 77.0027 233.152Z" fill="black"/>
<path d="M364.574 96.8311C364.211 100.946 363.236 108.87 355.266 123.944C352.919 128.382 346.427 131.608 338.444 133.972C324.732 138.032 306.624 139.549 297.575 140.297H342.574C354.724 140.297 364.574 130.447 364.574 118.297V96.8311Z" fill="#DAE2EB"/>
<path d="M270.803 149.294H297.95L279.186 139.899L269.804 129.163L271.367 51.1016L263.549 64.5219C262.06 78.4641 258.947 107.691 258.411 113.059C257.741 119.769 265.794 132.518 266.241 139.899C266.688 147.281 267.452 149.294 270.803 149.294Z" fill="black"/>
<path d="M338.381 151.754C329.446 156.764 288.195 152.052 268.687 149.07L311.129 146.162L353.571 140.57C352.231 142.211 347.317 146.744 338.381 151.754Z" fill="black"/>
<path d="M363.406 83.4379C363.406 84.4121 364.298 89.1202 364.744 91.3525L369 66.3905C367.581 65.9034 364.744 65.4651 364.744 67.6082C364.744 70.2871 363.406 82.2202 363.406 83.4379Z" fill="black"/>
<rect x="175.734" y="7.30176" width="67.4577" height="67.5456" rx="20" fill="black"/>
<rect x="185.527" y="2.5" width="62.4577" height="62.5456" rx="17.5" fill="white" stroke="black" stroke-width="5"/>
<path d="M193.182 82.788C192.094 81.2872 191.006 74.5336 188.467 72.1325C186.521 70.2915 184.197 63.8924 183.156 60.5444L184.478 51.1212L196.084 74.3836L213.492 71.0817L233.983 64.0281L248.812 41.0752L250.485 45.5681C249.639 49.9205 247.729 58.9253 246.858 60.1259C245.77 61.6268 228.362 71.0817 224.372 71.0817C220.383 71.0817 214.943 77.9854 213.492 78.5857C212.041 79.1861 194.27 84.2888 193.182 82.788Z" fill="black"/>
</svg>
