<svg width="42" height="42" viewBox="0 0 42 42" fill="none" xmlns="http://www.w3.org/2000/svg">
<path d="M5.73462 10.8238L5.73463 10.8238C6.01952 10.3974 5.90495 9.82091 5.47871 9.53592L5.47867 9.53589C5.05225 9.25094 4.47578 9.36552 4.19093 9.79191C1.63088 13.6228 0.457716 18.273 0.886655 22.8863C1.32132 27.561 3.39155 31.9664 6.71591 35.2915C10.6541 39.2306 15.8273 41.2 20.9996 41.2C26.172 41.2 31.3452 39.2306 35.2834 35.2915C39.0985 31.4756 41.2 26.4011 41.2 21.0048C41.2 15.6082 39.0985 10.5337 35.2834 6.71781C31.4683 2.90198 26.3949 0.8 20.9997 0.8C15.6043 0.8 10.5309 2.90198 6.71591 6.71791C6.35343 7.08047 6.35339 7.66847 6.71591 8.03097C7.07841 8.39355 7.66636 8.3936 8.02881 8.03097C11.4937 4.5653 16.0995 2.65706 20.9996 2.65706C25.8996 2.65706 30.5055 4.56521 33.9704 8.03097L34.1118 7.88957L33.9704 8.03097C37.4353 11.4966 39.3431 16.1035 39.3431 21.0047C39.3431 25.9059 37.4353 30.5127 33.9704 33.9784C26.8184 41.1319 15.1808 41.132 8.02871 33.9784C5.00983 30.9588 3.12988 26.9583 2.7353 22.7143L2.53635 22.7328L2.7353 22.7143C2.34557 18.5237 3.41106 14.3007 5.73462 10.8238Z" fill="#4038FF" stroke="#4038FF" stroke-width="0.4"/>
<path d="M9.38798 9.39104L9.52942 9.53244L9.38798 9.39104C2.98552 15.795 2.98552 26.2144 9.38798 32.6183C12.5893 35.8203 16.7947 37.4212 20.9992 37.4212C25.2037 37.4212 29.409 35.8203 32.6105 32.6183C39.0129 26.2143 39.0129 15.7949 32.6104 9.39103C26.2078 2.98715 15.7906 2.98705 9.38798 9.39104ZM31.2975 31.3051C25.6193 36.9846 16.3795 36.9847 10.701 31.3051C5.02266 25.6256 5.02265 16.3838 10.701 10.7041C13.5401 7.86445 17.2691 6.44438 20.9993 6.44438C24.7292 6.44438 28.4584 7.86436 31.2976 10.7041C36.9758 16.3837 36.9758 25.6256 31.2975 31.3051Z" fill="#4038FF" stroke="#4038FF" stroke-width="0.4"/>
<path d="M22.5112 13.8775L22.5112 13.3775L22.0112 13.3775L17.5938 13.3775L17.5938 11.5605L24.6404 11.5605L24.6404 26.0709C24.6404 26.6496 24.5314 27.1737 24.2877 27.6564C23.8531 28.5172 23.1315 29.1939 22.234 29.5495C22.2338 29.5496 22.2336 29.5497 22.2334 29.5498L19.7817 30.5142L19.2028 28.4666L20.7652 27.8667C20.7657 27.8665 20.7661 27.8664 20.7666 27.8662C21.8112 27.4715 22.5112 26.4826 22.5112 25.3465L22.5112 13.8775Z" fill="#4038FF" stroke="#4038FF"/>
</svg>
