<svg width="224" height="323" viewBox="0 0 224 323" fill="none" xmlns="http://www.w3.org/2000/svg">
<path d="M222.14 300.633L222.5 300.212V299.658V135.696C222.5 127.482 216.586 122.04 208.548 118.713V92.0456C208.548 42.0403 168.056 1.5 118.104 1.5C68.1515 1.5 27.66 42.0403 27.66 92.0456V110.824C25.3181 111.477 23.0875 112.217 20.9923 113.038C9.5729 117.517 1.5 124.647 1.5 134.872V299.072V299.525L1.75084 299.903L3.21161 302.1C7.26926 308.204 14.3165 313.044 23.3632 316.355C32.4266 319.673 43.6074 321.5 56.1062 321.5C78.2752 321.5 94.692 316.435 104.952 306.663H152.89C161.137 312.615 170.674 315.73 184.333 315.73C201.35 315.73 212.413 312.013 220.046 303.083L222.14 300.633ZM157.588 92.0456V121.219C155.79 122.262 154.113 123.408 152.568 124.642H105.035C97.9516 117.372 89.4629 112.403 78.62 109.691V92.0456C78.62 70.2117 96.2992 52.5148 118.104 52.5148C139.909 52.5148 157.588 70.2117 157.588 92.0456Z" fill="black" stroke="black" stroke-width="3"/>
<path d="M77.6304 172.179C82.5863 172.179 87.441 171.915 92.1585 171.41C81.0546 261.982 67.9411 307.269 52.817 307.269C28.3423 307.269 16.8208 303.451 11.8966 296.044L11.8955 152.587C27.1058 164.507 50.8945 172.179 77.6304 172.179ZM158.165 158.584C167.03 162.219 177.653 164.335 189.073 164.335C197.742 164.335 205.952 163.115 213.282 160.938C214.116 196.685 209.093 229.774 198.215 260.205C180.678 309.261 164.752 302.359 158.165 297.499L158.165 158.584Z" fill="#DAE2EB"/>
<path fill-rule="evenodd" clip-rule="evenodd" d="M151.723 159.59V278.596V279.436C151.723 288.831 144.119 296.447 134.738 296.447H97.1887C96.3817 245.017 99.506 210.449 106.562 192.742C113.618 175.035 128.671 163.984 151.723 159.59Z" fill="#DAE2EB"/>
<path fill-rule="evenodd" clip-rule="evenodd" d="M19.5244 289.445V183.402V173.18C19.5244 170.04 22.0887 168.381 25.2519 169.474L37.914 173.848C38.1861 219.77 37.1326 250.209 34.7533 265.165C32.374 280.121 27.2977 288.215 19.5244 289.445Z" fill="white"/>
<path fill-rule="evenodd" clip-rule="evenodd" d="M165.706 256.345V179.477V172.068C165.706 169.792 167.563 168.589 169.854 169.381L179.023 172.552C179.22 205.839 178.457 227.904 176.734 238.745C175.011 249.586 171.335 255.453 165.706 256.345Z" fill="white"/>
<path fill-rule="evenodd" clip-rule="evenodd" d="M212.101 134.592V153.426C207.163 157.804 199.573 160.305 184.118 160.305C168.663 160.305 161.072 156.553 156.134 153.426H100.167C93.5822 159.68 80.268 164.682 55.7219 164.682C44.6798 164.682 25.2744 162.484 15.643 153.16C12.5483 150.164 11.0931 143.766 11.2772 133.967C11.2772 126.673 31.1758 120.761 55.7219 120.761C80.268 120.761 91.9361 126.462 100.167 133.967H156.212C160.249 130.84 169.371 126.277 184.118 126.277C199.573 126.277 212.101 130 212.101 134.592Z" fill="white"/>
<path d="M38.4956 140.872L38.4561 140.751V94.8608C38.4561 50.8765 79.3752 16.8672 123.517 16.8672C167.602 16.8672 203.339 52.5675 203.339 96.6051V145.112L203.3 145.233C203.262 145.348 203.11 145.556 202.725 145.834C202.357 146.1 201.841 146.384 201.193 146.676C199.899 147.258 198.14 147.843 196.141 148.364C192.141 149.408 187.25 150.178 183.322 150.178C179.477 150.178 175.952 148.581 173.286 146.696C171.955 145.755 170.85 144.75 170.037 143.853C169.211 142.94 168.727 142.184 168.583 141.744L168.544 141.624V96.6051C168.544 82.7768 164.252 70.2279 156.467 61.1279C148.676 52.0207 137.405 46.3925 123.517 46.3925C95.7568 46.3925 73.2519 68.8729 73.2519 96.6051V144.24L73.2124 144.36C73.0473 144.863 72.8264 145.343 72.4158 145.805C72.0031 146.269 71.3746 146.743 70.3581 147.192C68.309 148.097 64.756 148.872 58.4388 149.307C52.2183 149.736 47.3832 148.113 44.0213 146.128C42.3386 145.135 41.0265 144.051 40.0961 143.091C39.1511 142.115 38.6383 141.306 38.4956 140.872Z" fill="black" stroke="black"/>
<path d="M118.038 11.9111C162.266 11.9111 198.119 47.8983 198.119 92.2907V140.287L198.055 140.287C197.344 142.463 190.824 145.586 182.886 145.586C174.949 145.586 168.429 142.463 167.718 140.287L167.653 140.287V92.2907C167.653 64.7867 145.44 42.4903 118.038 42.4903C90.6356 42.4903 68.4219 64.7867 68.4219 92.2907V140.287L68.3576 140.287C67.6465 142.463 61.1268 145.586 53.189 145.586C45.2512 145.586 38.7314 142.463 38.0204 140.287L37.9561 140.287V92.2907C37.9561 47.8983 73.8098 11.9111 118.038 11.9111Z" fill="#DAE2EB"/>
<path d="M45.6458 132.335H45.583V89.4543C45.583 49.7927 77.6581 17.6406 117.225 17.6406C149.097 17.6406 176.108 38.503 185.408 67.3478C173.26 45.016 149.629 29.864 122.467 29.864C82.9002 29.864 50.8251 62.016 50.8251 101.678V134.765C47.959 134.188 46.0123 133.321 45.6458 132.335Z" fill="white"/>
</svg>
