<svg width="296" height="294" viewBox="0 0 296 294" fill="none" xmlns="http://www.w3.org/2000/svg">
<path d="M4.62864 114.848L4.6373 114.738L4.59898 114.634L0.507317 103.603C0.775231 100.392 1.56801 98.9122 2.88932 97.9311C3.58282 97.4161 4.44951 97.0177 5.54205 96.6022C6.05124 96.4086 6.60077 96.2144 7.19883 96.003C7.24049 95.9883 7.28238 95.9735 7.32451 95.9586C7.96951 95.7305 8.6667 95.4829 9.41438 95.1992L25.5951 89.0597L25.7692 88.9936L25.8577 88.8298L31.6562 78.0908C34.2966 73.2008 39.1276 70.1429 44.6123 69.8821L143.993 69.3951L144.003 69.395L144.014 69.3945C144.843 69.3557 145.678 69.3813 146.513 69.4713C155.916 70.4851 163.335 79.2911 163.036 89.1592L163.036 89.1684L163.036 89.1777L163.725 189.907C163.453 198.738 157.046 205.523 148.699 205.914L25.952 211.67C25.3743 211.697 24.4952 211.666 23.3019 211.57C17.9387 206.451 13.9002 202.509 11.184 199.744C9.81436 198.349 8.786 197.259 8.0948 196.47C7.74847 196.074 7.49329 195.762 7.32365 195.529C7.23857 195.412 7.18077 195.323 7.14478 195.258C7.12736 195.227 7.11868 195.208 7.11495 195.2C6.94482 194.018 6.88353 192.809 6.94168 191.586L7.4764 180.344L7.48152 180.236L7.44185 180.136C5.17994 174.423 4.76726 170.22 5.99441 167.415C6.29051 166.739 6.34416 165.83 6.27448 164.819C6.20377 163.794 5.99983 162.592 5.7237 161.286C5.40247 159.767 4.97349 158.064 4.5295 156.302C4.21503 155.053 3.89303 153.775 3.59645 152.511C2.87375 149.431 2.29109 146.395 2.2596 143.866C2.22777 141.31 2.76076 139.441 4.07646 138.484L4.29451 138.325L4.28168 138.056C4.26719 137.752 4.26575 137.304 4.26398 136.754C4.26355 136.62 4.26311 136.481 4.26245 136.336C4.25912 135.604 4.25024 134.752 4.20886 133.897C4.16756 133.045 4.0934 132.178 3.95669 131.419C3.82295 130.676 3.61858 129.968 3.27765 129.486C2.06028 127.763 2.22611 125.368 2.83557 122.677C3.04407 121.756 3.29628 120.831 3.54821 119.907C3.66135 119.492 3.77444 119.077 3.88348 118.663C4.23108 117.343 4.53483 116.038 4.62864 114.848Z" fill="black" stroke="black"/>
<path d="M41.0708 112.838C42.4685 112.306 43.6211 111.283 44.345 109.931L50.796 97.89C51.8507 95.9214 53.7915 94.6877 55.9987 94.583C90.1851 92.9611 115.825 91.7446 132.918 90.9336C136.44 90.7665 141.189 92.5445 147.162 96.2677C147.496 96.2519 154.826 109.344 154.72 113.289L153.967 188.955C153.872 192.495 147.173 187.034 143.811 187.193C131.555 193.373 121.674 196.641 114.166 196.997C105.233 197.421 103.867 194.481 90.6922 195.106C85.9363 195.332 71.2158 199.035 65.9071 199.287C58.6057 199.633 46.4771 200.209 29.5214 201.013C29.1477 201.031 28.771 201.016 28.395 200.969C24.6256 200.493 21.7107 196.915 21.8844 192.978L22.4159 180.935C22.4516 180.126 22.3551 179.305 22.1304 178.51L17.7967 163.157C17.1712 160.942 17.5602 158.623 18.8457 156.904C22.8552 151.542 24.8468 147.288 24.8208 144.142C24.7853 139.864 23.4394 135.852 20.783 132.107C19.7216 130.61 19.2069 128.789 19.3411 127.006L19.4775 125.195C19.6747 122.576 21.2396 120.392 23.5488 119.513L41.0708 112.838Z" fill="#DAE2EB"/>
<path d="M85.8469 97.5571C86.2489 97.1644 86.6558 96.767 87.073 96.3596C86.5844 96.6636 86.1027 96.9742 85.6478 97.2961L85.8469 97.5571ZM85.8469 97.5571L85.9584 97.7036L85.8468 97.5572M85.8469 97.5571L85.8468 97.5572M114.61 94.2923C114.626 93.5969 115.171 93.2118 115.708 93.0108C116.261 92.8037 116.971 92.7208 117.671 92.7103L115.113 94.3348M114.61 94.2923L115.113 94.3348M114.61 94.2923C114.61 94.2922 114.61 94.2921 114.61 94.292L115.113 94.3348M114.61 94.2923C114.604 94.5424 114.505 94.7142 114.287 94.8512C114.042 95.005 113.636 95.1175 113.029 95.1539L113.029 95.1539C111.376 95.2532 110.076 95.5462 109.159 96.0992C108.798 96.3168 108.5 96.5731 108.264 96.8674M115.113 94.3348C115.093 95.1633 114.375 95.5703 113.091 95.6473C109.849 95.8422 108.259 96.7892 108.117 98.659M108.264 96.8674C108.245 96.9283 108.224 96.989 108.202 97.0492C108.076 97.3963 107.901 97.746 107.69 98.0812M108.264 96.8674C107.983 97.2183 107.792 97.6232 107.69 98.0812M108.264 96.8674C108.391 96.4669 108.457 96.0536 108.425 95.6624M107.69 98.0812C107.654 98.2445 107.629 98.4145 107.616 98.5913L108.117 98.659M107.69 98.0812C107.578 98.2589 107.456 98.4327 107.325 98.5998C106.587 99.5426 105.488 100.38 104.285 100.43L104.285 100.43C104.1 100.437 103.917 100.443 103.738 100.448C103.237 100.463 102.764 100.477 102.341 100.535M108.117 98.659C108.075 99.2243 107.854 100.072 107.467 100.953L106.924 100.909C106.849 101.07 106.769 101.232 106.682 101.394C106.677 101.404 106.672 101.413 106.666 101.423M108.117 98.659L106.224 101.839M106.667 101.381C106.534 101.542 106.384 101.693 106.224 101.839M106.667 101.381C106.448 101.363 106.231 101.346 106.016 101.328C106.107 101.239 106.192 101.148 106.269 101.055L106.667 101.381ZM106.667 101.381L106.666 101.423M106.224 101.839C106.288 101.844 106.352 101.849 106.417 101.854M106.224 101.839L103.998 104.016C104.963 103.705 105.786 102.873 106.417 101.854M106.666 101.423C106.61 101.527 106.552 101.629 106.491 101.731C106.467 101.773 106.442 101.814 106.417 101.854M106.666 101.423L106.657 101.874C106.577 101.867 106.497 101.861 106.417 101.854M102.341 100.535C101.92 100.501 101.497 100.466 101.07 100.431C101.649 100.014 102.69 99.9835 103.717 99.953C103.89 99.9478 104.062 99.9427 104.232 99.9357C106.224 99.8538 108.182 97.0832 107.903 95.517C107.852 95.2261 108.292 95.1654 108.731 95.1048C108.782 95.0979 108.832 95.091 108.881 95.0837M102.341 100.535C102.286 100.542 102.233 100.55 102.18 100.559C101.703 100.64 101.42 100.77 101.267 100.941M102.341 100.535L101.267 100.941M108.425 95.6624C108.404 95.6675 108.385 95.6727 108.367 95.678C108.327 95.6905 108.312 95.6991 108.312 95.699C108.312 95.6989 108.319 95.6942 108.33 95.6833C108.348 95.6659 108.373 95.634 108.389 95.5862C108.405 95.5375 108.404 95.4929 108.399 95.4622C108.41 95.5282 108.419 95.595 108.425 95.6624ZM108.425 95.6624C108.479 95.6493 108.545 95.6368 108.626 95.6241C108.695 95.6133 108.757 95.6048 108.824 95.5956C108.874 95.5888 108.926 95.5815 108.986 95.5728M108.986 95.5728C108.986 95.5728 108.986 95.5728 108.986 95.5728L108.881 95.0837M108.986 95.5728L108.881 95.0837M108.986 95.5728C110.156 95.4011 111.281 95.0978 112.017 94.4931L112.017 94.4931C112.181 94.3588 112.335 94.1815 112.404 93.956C112.481 93.7078 112.441 93.4396 112.277 93.2037C112.128 92.9895 111.903 92.8383 111.665 92.7285C111.422 92.6161 111.122 92.5276 110.771 92.4602L110.706 92.9453L111.681 94.1056C111.048 94.625 110.035 94.9144 108.881 95.0837M101.267 100.941C101.078 100.925 100.888 100.91 100.697 100.894L101.267 100.941ZM85.8468 97.5572C85.6864 97.7138 85.5268 97.8697 85.3676 98.0252L85.8468 97.5572ZM73.1408 98.8468C73.5642 98.147 74.0249 97.4582 74.5328 96.7839L125.752 92.304C127.168 92.2185 128.658 92.1286 130.168 92.0436L129.171 83.3522L71.6833 86.153L73.1408 98.8468ZM104.398 104.408C105.596 103.932 106.524 102.791 107.155 101.599L107.065 101.708C106.802 102.025 106.49 102.3 106.184 102.548C106.044 102.662 105.914 102.764 105.788 102.863C105.621 102.994 105.461 103.119 105.297 103.258C104.828 103.654 104.514 104.008 104.398 104.408Z" fill="black" stroke="black"/>
<path d="M110.007 179.617C109.96 179.582 109.914 179.548 109.868 179.514C109.579 179.3 109.32 179.105 109.097 178.935C109.493 179.025 109.917 179.107 110.341 179.19C111.228 179.363 112.116 179.537 112.747 179.777C113.749 180.159 118.461 182.656 120.684 184.013C120.929 184.442 121.151 184.776 121.352 184.997L121.709 184.697L122.003 184.337C121.806 184.175 121.466 183.948 121.043 183.687C120.561 182.819 119.937 181.488 119.172 179.693L113.227 174.862C111.157 173.496 109.652 172.495 108.712 171.86C108.914 171.915 109.142 171.978 109.396 172.048C109.622 172.11 109.867 172.178 110.133 172.252M110.007 179.617C110.097 179.634 110.185 179.652 110.273 179.669L110.324 179.679C111.224 179.855 112.051 180.019 112.623 180.237L112.623 180.237C113.186 180.451 115.123 181.44 117.092 182.51C118.067 183.039 119.034 183.58 119.821 184.042C120.627 184.514 121.197 184.877 121.415 185.057L122.067 184.398C121.875 184.187 121.568 183.698 121.144 182.861C120.729 182.043 120.226 180.944 119.636 179.559L119.578 179.425L119.462 179.33L113.517 174.499L113.493 174.48L113.468 174.463C112.108 173.565 110.997 172.829 110.133 172.252M110.007 179.617C109.645 179.546 109.276 179.471 108.925 179.388L110.007 179.617ZM110.133 172.252C109.631 171.918 109.212 171.637 108.876 171.409C110.018 171.72 111.914 172.253 114.565 173.007M110.133 172.252C111.21 172.553 112.62 172.951 114.363 173.447M114.363 173.447L114.262 173.359L114.565 173.007M114.363 173.447C114.405 173.458 114.446 173.47 114.488 173.482L114.565 173.007M114.363 173.447L120.439 178.677M114.565 173.007L120.879 178.442M120.879 178.442L120.392 178.511L120.439 178.677M120.879 178.442L122.238 183.244C122.916 183.895 123.325 184.292 123.466 184.435M120.879 178.442L120.576 178.794L120.439 178.677M120.439 178.677L121.751 183.313L121.793 183.461L121.91 183.574C122.591 184.227 122.993 184.617 123.126 184.753M123.126 184.753C123.126 184.752 123.126 184.752 123.126 184.752L123.466 184.435M123.126 184.753L123.466 184.435M123.126 184.753C123.371 185 123.6 185.198 123.839 185.313C124.119 185.449 124.358 185.446 124.561 185.404C124.668 185.382 124.757 185.355 124.846 185.328C125.059 185.264 125.266 185.202 125.696 185.214C126.164 185.228 126.4 185.341 126.542 185.453C126.702 185.578 126.824 185.761 126.985 186.061C127.012 186.112 127.04 186.164 127.068 186.219C127.365 186.79 127.785 187.597 128.888 188.045L128.888 188.045C128.975 188.081 129.081 188.103 129.146 188.116C129.227 188.133 129.325 188.15 129.428 188.168C129.473 188.175 129.519 188.183 129.566 188.191C129.741 188.221 129.93 188.253 130.117 188.289C130.358 188.336 130.569 188.385 130.716 188.434C130.719 188.435 130.721 188.436 130.724 188.437C131.003 189.33 131.458 189.997 132.015 190.527C132.425 190.917 132.882 191.223 133.336 191.487C133.242 191.511 133.156 191.52 133.079 191.519C132.895 191.517 132.705 191.456 132.482 191.314L123.466 184.435M137.308 200.389C137.199 200.096 137.085 199.799 136.967 199.507C136.699 198.845 136.421 198.225 136.163 197.749C136.034 197.511 135.916 197.321 135.815 197.185C135.73 197.072 135.681 197.027 135.668 197.016L137.308 200.389ZM137.308 200.389C136.84 199.796 136.327 199.172 135.799 198.582C135.136 197.842 134.432 197.137 133.747 196.61C133.12 196.128 132.431 195.734 131.765 195.68C131.619 195.391 131.371 195.196 131.154 195.064C130.904 194.913 130.609 194.797 130.371 194.703C130.361 194.699 130.351 194.695 130.342 194.691C130.072 194.585 129.867 194.502 129.714 194.407C129.568 194.318 129.556 194.271 129.554 194.266L129.554 194.266L129.067 194.335L129.554 194.266C129.497 194.066 129.443 193.873 129.391 193.687C129.089 192.61 128.851 191.765 128.461 191.082C127.967 190.218 127.25 189.631 126.037 189.023M137.308 200.389L121.115 185.385C121.115 185.385 121.115 185.385 121.115 185.385C121.242 185.574 121.344 185.799 121.423 185.974C121.429 185.988 121.435 186.002 121.441 186.015C121.507 186.161 121.56 186.278 121.611 186.374C121.903 186.171 122.258 186.307 122.424 186.39C122.622 186.491 122.816 186.644 122.966 186.77C123.046 186.837 123.123 186.905 123.192 186.966C123.202 186.975 123.212 186.983 123.221 186.992C123.28 187.044 123.331 187.089 123.378 187.129C123.407 187.154 123.431 187.174 123.45 187.189C123.8 187.244 124.094 187.36 124.353 187.524C124.631 187.699 124.841 187.914 125.014 188.105C125.07 188.167 125.122 188.226 125.172 188.282C125.447 188.594 125.66 188.834 126.037 189.023M126.037 189.023L125.859 189.459L126.037 189.023C126.037 189.023 126.037 189.023 126.037 189.023ZM129.96 190.114L130.075 190.721C130.161 191.174 130.275 191.499 130.352 191.719C130.378 191.794 130.4 191.857 130.416 191.909C130.473 192.102 130.512 192.325 130.427 192.912L130.427 192.912C130.398 193.112 130.469 193.295 130.539 193.421C130.61 193.548 130.705 193.663 130.794 193.758C130.974 193.948 131.208 194.138 131.423 194.302C131.584 194.424 131.752 194.546 131.899 194.652C131.952 194.689 132.001 194.725 132.047 194.758C132.137 194.823 132.21 194.878 132.266 194.922C132.318 194.963 132.336 194.981 132.336 194.981C132.337 194.981 132.336 194.98 132.335 194.979M129.96 190.114L132.334 194.978C132.334 194.978 132.334 194.979 132.335 194.979M129.96 190.114L130.581 190.208M129.96 190.114L130.581 190.208M132.335 194.979C132.891 195.617 133.461 195.978 134.031 196.258C134.26 196.371 134.495 196.472 134.72 196.57C134.767 196.59 134.813 196.61 134.859 196.63C135.13 196.749 135.396 196.868 135.667 197.014L132.335 194.979ZM130.581 190.208C131.071 190.282 131.451 190.518 131.751 190.745M130.581 190.208L131.751 190.745M131.751 190.745C131.863 190.828 131.973 190.92 132.071 191M131.751 190.745L132.071 191M132.071 191C132.1 191.024 132.128 191.047 132.154 191.068M132.071 191L132.154 191.068M132.154 191.068C132.277 191.169 132.381 191.249 132.482 191.313L132.154 191.068ZM121.491 186.464C121.491 186.464 121.492 186.464 121.495 186.462C121.492 186.463 121.491 186.464 121.491 186.464Z" fill="black" stroke="black"/>
<path d="M146.203 86.4384C146.807 87.1484 147.652 88.129 148.74 89.3811L148.77 89.4155L148.794 89.4537L152.271 94.923L152.365 95.0715L152.359 95.2349C152.301 96.7765 152.287 98.0019 152.315 98.9153C152.329 99.3722 152.353 99.7445 152.387 100.036C152.422 100.336 152.463 100.518 152.498 100.611L151.612 100.942C151.568 100.87 151.46 100.733 151.273 100.528C151.094 100.332 150.864 100.097 150.596 99.8352C150.061 99.312 149.39 98.6958 148.705 98.0905C148.02 97.4856 147.326 96.8957 146.747 96.4251C146.152 95.9413 145.717 95.6169 145.532 95.5108L145.532 95.5108C145.121 95.2763 144.445 95.0829 143.656 94.8635L143.593 94.8458C143.376 94.7855 143.15 94.7227 142.926 94.6558C142.978 94.728 143.032 94.8027 143.089 94.8799C143.58 95.5495 144.203 96.3602 144.84 97.1542C145.477 97.9491 146.125 98.7207 146.666 99.3145C146.938 99.612 147.176 99.8579 147.37 100.038C147.466 100.128 147.546 100.196 147.609 100.243C147.675 100.294 147.701 100.305 147.694 100.302C147.853 100.37 148.078 100.4 148.387 100.403C148.534 100.404 148.684 100.399 148.844 100.394L148.856 100.394C149.017 100.389 149.189 100.383 149.357 100.386C149.674 100.391 150.07 100.423 150.419 100.611C150.826 100.831 151.078 101.208 151.161 101.696L146.203 86.4384ZM146.203 86.4384C147.124 86.8056 148.44 87.3415 150.154 88.0465L153.51 93.8419L152.683 98.9904L152.658 99.1448L152.731 99.2975C153.085 100.036 153.29 100.471 153.355 100.62C153.474 100.894 153.624 101.176 153.863 101.357C154.158 101.582 154.451 101.56 154.634 101.524C154.745 101.502 154.842 101.475 154.938 101.447C155.168 101.382 155.391 101.319 155.784 101.342L146.203 86.4384ZM159.776 118.504C159.816 118.074 159.85 117.63 159.875 117.196C159.918 116.456 159.931 115.763 159.898 115.231C159.882 114.963 159.855 114.753 159.821 114.606C159.809 114.552 159.797 114.514 159.788 114.49C159.624 114.352 159.453 114.233 159.268 114.109C159.235 114.087 159.201 114.064 159.167 114.041C158.997 113.928 158.81 113.803 158.634 113.667C158.183 113.317 157.774 112.867 157.518 112.12C157.514 112.114 157.507 112.103 157.495 112.085C157.467 112.041 157.426 111.985 157.37 111.912C157.344 111.877 157.314 111.838 157.282 111.796C157.19 111.675 157.079 111.53 156.978 111.387C156.842 111.195 156.694 110.963 156.6 110.727C156.509 110.497 156.431 110.167 156.588 109.871L156.588 109.871C156.944 109.201 157.02 108.921 157.057 108.674C157.067 108.607 157.075 108.531 157.084 108.443C157.109 108.198 157.144 107.86 157.261 107.374L157.358 106.971L157.79 107.064C158.301 107.175 158.611 107.506 158.815 107.791C158.888 107.893 158.958 108.006 159.015 108.098C159.031 108.124 159.046 108.148 159.06 108.169C159.131 108.282 159.183 108.356 159.233 108.411C159.329 108.517 159.417 108.561 159.548 108.567C159.677 108.572 159.866 108.539 160.133 108.421C159.788 108.094 159.447 107.706 159.204 107.208C158.902 106.588 158.776 105.855 158.888 104.932C158.802 104.901 158.694 104.867 158.569 104.833C158.411 104.789 158.251 104.75 158.099 104.714C158.057 104.704 158.016 104.694 157.976 104.684C157.887 104.662 157.798 104.64 157.724 104.618L157.72 104.617C157.67 104.603 157.551 104.568 157.45 104.507L157.45 104.507C156.917 104.177 156.662 103.72 156.544 103.275C156.454 102.935 156.438 102.568 156.425 102.282C156.423 102.226 156.42 102.174 156.418 102.125C156.398 101.767 156.359 101.599 156.299 101.51L156.298 101.509C156.281 101.483 156.203 101.367 155.784 101.342L159.776 118.504ZM159.776 118.504C159.603 117.871 159.405 117.209 159.18 116.581C158.882 115.747 158.522 114.931 158.09 114.308C157.728 113.787 157.247 113.305 156.644 113.157C156.6 112.9 156.465 112.681 156.293 112.505C156.096 112.305 155.839 112.153 155.662 112.047C155.651 112.041 155.642 112.035 155.632 112.029C155.415 111.9 155.295 111.823 155.223 111.749C155.19 111.714 155.189 111.712 155.196 111.67L154.7 111.527L155.196 111.67C155.232 111.446 155.267 111.23 155.3 111.024C155.381 110.523 155.454 110.075 155.506 109.677C155.58 109.115 155.619 108.614 155.58 108.156C155.54 107.688 155.418 107.256 155.167 106.837C154.919 106.424 154.566 106.059 154.114 105.699M159.776 118.504L154.114 105.699M154.114 105.699C153.907 105.534 153.837 105.337 153.713 104.985C153.69 104.919 153.665 104.848 153.636 104.77C153.558 104.557 153.443 104.277 153.22 104.035C153.025 103.824 152.781 103.676 152.488 103.592M154.114 105.699L152.488 103.592M152.488 103.592C152.468 103.557 152.447 103.518 152.422 103.472C152.416 103.463 152.411 103.453 152.405 103.443C152.367 103.374 152.323 103.293 152.275 103.214C152.19 103.073 152.053 102.86 151.866 102.71C151.765 102.628 151.619 102.541 151.438 102.517C151.348 102.505 151.263 102.511 151.187 102.53C151.187 102.488 151.188 102.443 151.189 102.396C151.189 102.382 151.19 102.367 151.19 102.351C151.193 102.159 151.197 101.91 151.161 101.696L152.488 103.592ZM159.776 114.461C159.776 114.461 159.776 114.463 159.777 114.465C159.776 114.462 159.776 114.461 159.776 114.461ZM152.275 103.543L152.275 103.543L152.275 103.543Z" fill="black" stroke="black"/>
<path d="M19.8771 189.294L23.0725 181.208L21.0383 163.276C20.6218 161.801 19.1857 159.22 16.73 155.534L26.6955 144.854C23.0975 137.954 20.4151 133.256 18.6484 130.762C17.5895 129.267 17.0754 127.447 17.2084 125.666L17.3434 123.857C17.5387 121.241 19.0976 119.059 21.3991 118.18L38.8633 111.514C40.2563 110.982 41.4049 109.96 42.1258 108.61L48.5505 96.5812C49.6009 94.6145 51.535 93.3823 53.7354 93.2778C75.2238 91.8248 93.9097 90.1368 109.793 88.2138C125.677 86.2908 137.879 84.1286 146.4 81.7271C145.515 79.783 142.585 78.9291 137.611 79.1654C137.274 79.1813 136.942 79.1192 136.61 79.135L48.6387 83.313C46.4384 83.4175 44.5043 84.6498 43.4539 86.6164L37.0292 98.6453C36.3082 99.9951 35.1597 101.017 33.7666 101.549L16.3024 108.216C14.0009 109.094 12.442 111.276 12.2468 113.892L12.1117 115.702C11.9788 117.483 12.4929 119.302 13.5518 120.797C16.2018 124.539 17.5457 128.547 17.5832 132.82C17.6109 135.963 15.6276 140.213 11.6333 145.569C10.3527 147.286 9.96614 149.603 10.5908 151.816L14.919 167.153C15.1434 167.948 15.24 168.767 15.2049 169.576L14.6813 181.607C14.5305 185.073 16.7708 188.26 19.8771 189.294Z" fill="#DAE2EB"/>
<path d="M42.6661 124.544L63.8982 96.1399L55.7791 96.4621C53.5783 96.5495 51.5904 97.7387 50.4502 99.6501L43.4762 111.341C42.6937 112.653 41.4996 113.643 40.0845 114.152L22.3435 120.539C20.0055 121.381 18.3478 123.499 18.0307 126.049L17.8114 127.814C17.6674 128.971 17.9656 131.687 18.7058 135.96L22.4721 144.548L19.3336 158.702L13.8962 162.425C16.5226 170.371 17.898 174.603 18.0225 175.121C18.2093 175.898 18.454 179.597 18.3811 180.386L17.2964 192.118C16.984 195.498 19.0709 198.622 22.1227 199.651L23.002 190.14C23.0749 189.351 22.1862 185.093 21.9995 184.316L24.2987 171.365L20.5593 166.698L27.0931 154.302L26.1798 140.894L24.9949 134.511L28.0197 129.13L42.6661 124.544Z" fill="white"/>
<path d="M52.6072 183.989L52.6076 183.989C52.7755 184.004 53.0238 183.916 53.301 183.57C53.5733 183.231 53.808 182.709 53.9021 182.084L63.7895 116.363C63.8824 115.746 63.8113 115.188 63.6412 114.791C63.4649 114.379 63.2252 114.221 63.0418 114.202L63.0418 114.202L63.037 114.202C62.8691 114.186 62.6208 114.275 62.3436 114.62C62.0713 114.96 61.8366 115.481 61.7425 116.107L51.8551 181.828C51.7622 182.445 51.8333 183.003 52.0034 183.4C52.1797 183.812 52.4194 183.969 52.6028 183.988L52.6072 183.989Z" fill="black" stroke="black"/>
<path d="M82.8181 181.878L82.8185 181.878C82.9864 181.893 83.2347 181.805 83.5119 181.459C83.7842 181.119 84.019 180.598 84.1131 179.972L94.0004 114.252C94.0933 113.634 94.0222 113.077 93.8521 112.679C93.6758 112.267 93.4362 112.11 93.2527 112.091L93.2527 112.091L93.2479 112.09C93.08 112.075 92.8318 112.163 92.5545 112.509C92.2822 112.849 92.0475 113.37 91.9534 113.996L82.0661 179.716C81.9732 180.334 82.0442 180.891 82.2143 181.289C82.3907 181.701 82.6303 181.858 82.8137 181.877L82.8181 181.878Z" fill="black" stroke="black"/>
<path d="M67.7126 182.933L67.7131 182.933C67.881 182.949 68.1292 182.86 68.4065 182.515C68.6788 182.175 68.9135 181.654 69.0076 181.028L78.8949 115.307C78.9878 114.69 78.9168 114.132 78.7467 113.735C78.5703 113.323 78.3307 113.166 78.1473 113.147L78.1472 113.147L78.1424 113.146C77.9746 113.131 77.7263 113.219 77.449 113.565C77.1768 113.904 76.942 114.426 76.8479 115.051L66.9606 180.772C66.8677 181.389 66.9387 181.947 67.1089 182.344C67.2852 182.756 67.5248 182.914 67.7083 182.933L67.7126 182.933Z" fill="black" stroke="black"/>
<path d="M99.8973 180.961L99.8972 180.961C99.1034 180.903 98.4102 180.022 98.5869 178.796L103.482 144.835C103.66 143.597 104.584 142.846 105.372 142.897L105.372 142.897L105.383 142.897L105.469 142.416L105.383 142.897C106.177 142.955 106.87 143.836 106.694 145.062L101.798 179.024C101.62 180.261 100.696 181.012 99.9085 180.962L99.9084 180.962M99.8973 180.961L99.8275 181.444L99.9084 180.962M99.8973 180.961L99.9084 180.962M99.8973 180.961L99.9084 180.962" fill="black" stroke="black"/>
<path d="M31.4627 128.653L31.4712 128.543L31.4332 128.44L26.8158 115.952C27.1159 112.301 28.0129 110.604 29.5234 109.478C30.3114 108.89 31.2939 108.438 32.5254 107.968C33.0995 107.749 33.719 107.529 34.3922 107.29L34.534 107.24C35.2603 106.982 36.0448 106.702 36.886 106.382L55.1066 99.4441L55.2808 99.3777L55.3691 99.2135L61.8955 87.0727C64.8782 81.524 70.3382 78.0552 76.5371 77.761L188.461 77.2332L188.472 77.2332L188.482 77.2327C189.419 77.1887 190.363 77.218 191.307 77.3203C201.93 78.4723 210.314 88.4607 209.98 99.6518L209.979 99.6611L209.98 99.6703L210.793 213.563C210.49 223.581 203.252 231.28 193.816 231.722L55.5795 238.202C54.9214 238.233 53.921 238.196 52.5652 238.086C46.5149 232.289 41.9593 227.826 38.8958 224.695C37.3525 223.118 36.1929 221.884 35.4129 220.99C35.0222 220.542 34.7333 220.187 34.5404 219.921C34.4438 219.788 34.377 219.685 34.3347 219.609C34.3078 219.561 34.2975 219.535 34.2945 219.528C34.1009 218.184 34.0308 216.81 34.0962 215.421L34.6942 202.71L34.6992 202.603L34.6598 202.503C32.1089 196.039 31.6336 191.265 33.0258 188.068C33.3524 187.318 33.4135 186.305 33.3349 185.164C33.2552 184.009 33.0258 182.654 32.7145 181.178C32.3523 179.461 31.8693 177.539 31.3689 175.547C31.0143 174.136 30.651 172.69 30.3159 171.258C29.5007 167.775 28.8418 164.336 28.8053 161.468C28.7684 158.573 29.3678 156.431 30.876 155.329L31.0933 155.17L31.0805 154.902C31.064 154.556 31.0622 154.047 31.06 153.426C31.0594 153.275 31.0589 153.118 31.0581 152.955C31.0541 152.127 31.0438 151.164 30.9969 150.2C30.9502 149.237 30.8665 148.26 30.713 147.406C30.5624 146.568 30.334 145.78 29.9586 145.247C28.5686 143.273 28.7623 140.538 29.4477 137.495C29.6825 136.452 29.9668 135.404 30.2504 134.358C30.3775 133.889 30.5046 133.421 30.6269 132.954C31.0178 131.462 31.358 129.992 31.4627 128.653Z" fill="black" stroke="black"/>
<path d="M72.5857 126.617C74.1595 126.018 75.4573 124.866 76.2724 123.345L83.5364 109.79C84.724 107.573 86.9093 106.185 89.3946 106.067C127.888 104.24 156.758 102.871 176.004 101.957C179.971 101.769 185.317 103.771 192.043 107.962C192.418 107.944 200.672 122.682 200.552 127.123L199.704 212.302C199.596 216.287 192.054 210.139 188.268 210.319C174.468 217.276 163.342 220.955 154.888 221.356C144.83 221.833 143.292 218.523 128.457 219.227C123.102 219.481 106.527 223.651 100.549 223.934C92.328 224.324 78.6714 224.972 59.5795 225.878C59.1588 225.898 58.7346 225.881 58.3113 225.828C54.067 225.292 50.7849 221.265 50.9806 216.833L51.5792 203.276C51.6195 202.364 51.5108 201.441 51.2579 200.545L46.3784 183.263C45.6742 180.769 46.1123 178.158 47.5598 176.223C52.0744 170.188 54.3171 165.399 54.2878 161.857C54.248 157.041 52.7325 152.525 49.7416 148.308C48.5465 146.624 47.9669 144.574 48.1181 142.567L48.2718 140.527C48.4939 137.58 50.2559 135.121 52.856 134.131L72.5857 126.617Z" fill="#DAE2EB"/>
<path d="M122.929 109.249C123.262 108.934 123.598 108.616 123.94 108.294C123.542 108.539 123.152 108.789 122.778 109.046L122.929 109.249ZM122.929 109.249L123.083 109.457L122.929 109.249M131.9 104.486C131.9 104.486 131.9 104.486 131.9 104.486C131.901 104.485 131.901 104.485 131.9 104.486M131.9 104.486C131.9 104.487 131.899 104.487 131.899 104.487C131.899 104.487 131.9 104.487 131.9 104.486M131.9 104.486C131.9 104.486 131.9 104.486 131.9 104.486M131.9 104.486L150.988 104.215L151.05 103.729C147.809 103.13 144.634 103.162 141.524 103.377C140.185 103.469 138.853 103.596 137.533 103.722C137.32 103.742 137.108 103.762 136.896 103.782C135.365 103.927 133.85 104.062 132.341 104.136L132.019 104.151L131.919 104.447C131.91 104.473 131.903 104.483 131.9 104.486" fill="black" stroke="black"/>
<path d="M163.175 207.712C162.987 207.504 162.757 207.159 162.485 206.677C162.919 206.949 163.265 207.183 163.47 207.353L163.175 207.712ZM163.175 207.712L162.817 208.01C162.61 207.782 162.38 207.441 162.126 207.003C162.611 207.303 162.979 207.549 163.175 207.712ZM180.925 225.795C180.766 225.353 180.593 224.895 180.413 224.448C180.11 223.697 179.795 222.993 179.503 222.451C179.356 222.18 179.221 221.962 179.104 221.804C178.988 221.646 178.922 221.596 178.913 221.589C178.913 221.588 178.912 221.588 178.913 221.588C178.604 221.422 178.303 221.286 177.997 221.151C177.945 221.128 177.893 221.106 177.84 221.082C177.587 220.972 177.324 220.858 177.069 220.731C176.432 220.417 175.8 220.014 175.182 219.302C175.183 219.304 175.183 219.303 175.181 219.301C175.173 219.294 175.149 219.272 175.095 219.229C175.031 219.177 174.947 219.115 174.846 219.041C174.794 219.003 174.738 218.963 174.679 218.92C174.514 218.8 174.325 218.664 174.145 218.527C173.903 218.342 173.645 218.13 173.447 217.92C173.348 217.814 173.247 217.691 173.171 217.554C173.096 217.42 173.024 217.23 173.053 217.023L173.053 217.023C173.149 216.353 173.105 216.091 173.037 215.86C173.019 215.797 172.993 215.724 172.962 215.637C172.875 215.387 172.75 215.029 172.654 214.524L172.539 213.916L173.16 214.011C173.695 214.092 174.112 214.351 174.445 214.604C174.569 214.697 174.692 214.799 174.801 214.89C174.834 214.917 174.866 214.943 174.897 214.968C175.036 215.082 175.155 215.175 175.273 215.251C175.532 215.417 175.758 215.492 175.98 215.495C176.11 215.497 176.254 215.475 176.419 215.416C175.867 215.101 175.309 214.737 174.813 214.263C174.188 213.666 173.678 212.911 173.367 211.896C173.354 211.891 173.338 211.885 173.321 211.879C173.151 211.822 172.911 211.766 172.638 211.712C172.427 211.671 172.213 211.635 172.017 211.601C171.964 211.592 171.912 211.583 171.861 211.575C171.746 211.555 171.637 211.536 171.547 211.517C171.472 211.502 171.36 211.478 171.268 211.44L171.268 211.44C170.054 210.944 169.594 210.057 169.259 209.411C169.227 209.349 169.196 209.289 169.165 209.232C168.983 208.892 168.839 208.671 168.645 208.518C168.469 208.38 168.188 208.249 167.652 208.233C167.159 208.218 166.915 208.292 166.673 208.365C166.574 208.395 166.476 208.424 166.362 208.448C166.142 208.494 165.889 208.496 165.59 208.351C165.333 208.227 165.083 208.011 164.809 207.732C164.658 207.578 164.205 207.136 163.439 206.397L163.322 206.285L163.28 206.137L161.793 200.872L154.921 194.929C152.754 194.309 151.043 193.823 149.789 193.473L180.925 225.795ZM180.925 225.795C180.339 225.04 179.679 224.223 178.996 223.458C178.251 222.622 177.462 221.828 176.696 221.236C175.981 220.684 175.204 220.243 174.463 220.196C174.311 219.867 174.034 219.644 173.785 219.493C173.509 219.325 173.183 219.196 172.913 219.089C172.903 219.085 172.892 219.081 172.882 219.076C172.58 218.957 172.343 218.86 172.164 218.749C171.989 218.642 171.959 218.575 171.95 218.544L171.463 218.613L171.95 218.544C171.885 218.316 171.824 218.098 171.765 217.887C171.423 216.669 171.158 215.723 170.724 214.96C170.178 214.002 169.385 213.347 168.028 212.663L180.925 225.795ZM173.461 211.937C173.46 211.936 173.459 211.936 173.459 211.935C173.466 211.941 173.468 211.941 173.461 211.937ZM165.117 210.591C165.51 210.651 165.838 210.781 166.125 210.963C166.428 211.155 166.66 211.392 166.853 211.607C166.914 211.675 166.972 211.741 167.029 211.805C167.339 212.158 167.589 212.442 168.028 212.663L165.117 210.591ZM163.052 209.707L163.06 209.716L163.052 209.707ZM162.961 209.771C162.961 209.771 162.963 209.77 162.966 209.769C162.963 209.77 162.961 209.77 162.961 209.771Z" fill="black" stroke="black"/>
<path d="M190.465 96.4691C190.496 96.5055 190.527 96.5427 190.559 96.5807C191.243 97.3894 192.215 98.5236 193.479 99.9842L193.508 100.019L193.532 100.057L197.449 106.242L197.542 106.39L197.536 106.553C197.473 108.296 197.458 109.684 197.49 110.719C197.507 111.237 197.535 111.66 197.573 111.992C197.613 112.332 197.66 112.545 197.702 112.66L196.816 112.989C196.762 112.9 196.636 112.74 196.426 112.509C196.222 112.285 195.962 112.019 195.66 111.722C195.056 111.129 194.3 110.431 193.528 109.746C192.757 109.061 191.975 108.393 191.322 107.86C190.653 107.313 190.16 106.942 189.944 106.818L189.944 106.818C189.473 106.547 188.702 106.326 187.819 106.079L187.752 106.06C187.453 105.977 187.142 105.89 186.837 105.795C186.926 105.921 187.023 106.054 187.125 106.195C187.68 106.953 188.381 107.871 189.099 108.77C189.818 109.67 190.548 110.544 191.159 111.217C191.465 111.555 191.735 111.835 191.955 112.04C192.065 112.143 192.157 112.222 192.23 112.278C192.302 112.333 192.337 112.351 192.341 112.353C192.342 112.354 192.342 112.354 192.342 112.354L192.342 112.354C192.533 112.435 192.797 112.47 193.147 112.473C193.312 112.474 193.482 112.469 193.662 112.463L193.677 112.463C193.858 112.457 194.05 112.451 194.237 112.454C194.593 112.46 195.024 112.496 195.401 112.701C195.835 112.937 196.107 113.341 196.197 113.873C196.197 113.873 196.197 113.873 196.197 113.873L190.465 96.4691ZM190.465 96.4691C190.519 96.4908 190.575 96.5132 190.633 96.5361C191.675 96.9538 193.18 97.57 195.15 98.3852L198.957 104.986L198.029 110.832L198.005 110.985L198.077 111.137C198.476 111.972 198.708 112.466 198.781 112.635C198.915 112.944 199.077 113.246 199.328 113.438C199.637 113.673 199.943 113.652 200.144 113.613C200.263 113.589 200.369 113.559 200.476 113.529C200.737 113.454 200.999 113.379 201.452 113.407C201.939 113.436 202.049 113.575 202.086 113.63C202.167 113.75 202.211 113.961 202.233 114.364C202.236 114.42 202.239 114.48 202.242 114.543C202.256 114.868 202.275 115.273 202.374 115.649C202.504 116.138 202.78 116.636 203.36 116.996L203.36 116.996C203.464 117.06 203.591 117.097 203.648 117.113L203.651 117.114C203.733 117.138 203.831 117.163 203.931 117.188C203.976 117.199 204.022 117.21 204.069 117.221C204.24 117.263 204.422 117.307 204.6 117.357C204.769 117.404 204.913 117.449 205.022 117.493C204.886 118.553 205.026 119.386 205.365 120.083C205.65 120.67 206.058 121.121 206.468 121.501C206.121 121.666 205.875 121.715 205.705 121.708C205.539 121.701 205.423 121.641 205.301 121.507C205.24 121.44 205.179 121.351 205.098 121.223C205.082 121.198 205.065 121.17 205.047 121.14C204.983 121.037 204.905 120.912 204.824 120.799C204.601 120.485 204.266 120.128 203.715 120.007L203.283 119.912L203.186 120.317C203.056 120.862 203.018 121.237 202.99 121.514C202.98 121.615 202.971 121.704 202.959 121.782C202.917 122.07 202.828 122.394 202.427 123.154L202.427 123.154C202.263 123.465 202.343 123.815 202.442 124.067C202.545 124.325 202.708 124.582 202.859 124.798C202.972 124.958 203.095 125.12 203.199 125.257C203.236 125.304 203.269 125.348 203.3 125.389C203.362 125.472 203.41 125.537 203.444 125.589C203.463 125.618 203.472 125.634 203.475 125.64C203.758 126.471 204.209 126.969 204.708 127.359C204.904 127.511 205.112 127.65 205.303 127.778C205.342 127.804 205.38 127.83 205.417 127.855C205.632 128 205.832 128.141 206.025 128.305C206.037 128.335 206.055 128.387 206.073 128.466C206.113 128.638 206.143 128.879 206.162 129.184C206.199 129.79 206.185 130.576 206.138 131.414C206.105 132.017 206.054 132.639 205.996 133.227C205.782 132.413 205.529 131.54 205.235 130.719C204.899 129.778 204.497 128.863 204.016 128.167C203.603 127.569 203.06 127.032 202.383 126.885C202.346 126.589 202.197 126.338 202.001 126.138C201.788 125.92 201.507 125.752 201.305 125.631C201.295 125.625 201.284 125.619 201.273 125.612C201.032 125.467 200.887 125.375 200.798 125.282C200.746 125.228 200.734 125.203 200.746 125.131L200.25 124.988L200.746 125.131C200.786 124.876 200.825 124.632 200.862 124.398C200.953 123.832 201.034 123.327 201.092 122.878C201.174 122.244 201.216 121.683 201.173 121.173C201.128 120.652 200.993 120.175 200.717 119.713C200.445 119.258 200.056 118.852 199.551 118.448" fill="black" stroke="black"/>
<path d="M48.9439 212.048L52.5376 202.941L50.2467 182.743C49.778 181.081 48.1621 178.174 45.3989 174.021L56.6084 161.992C52.5598 154.22 49.5416 148.929 47.5537 146.119C46.3623 144.435 45.7837 142.386 45.933 140.379L46.0847 138.341C46.304 135.394 48.0574 132.937 50.6465 131.948L70.2924 124.44C71.8595 123.841 73.1514 122.69 73.9623 121.169L81.1883 107.621C82.3697 105.405 84.5454 104.018 87.0207 103.9C111.195 102.265 132.216 100.365 150.084 98.2C167.952 96.0351 181.68 93.6005 191.265 90.8961C190.269 88.7063 186.973 87.7442 181.377 88.0099C180.998 88.0279 180.625 87.9579 180.251 87.9756L81.2857 92.6754C78.8104 92.793 76.6348 94.1809 75.4533 96.396L68.2273 109.945C67.4164 111.465 66.1245 112.616 64.5574 113.215L44.9115 120.723C42.3224 121.713 40.569 124.17 40.3497 127.116L40.198 129.155C40.0487 131.161 40.6273 133.21 41.8187 134.894C44.8005 139.109 46.3129 143.624 46.3557 148.437C46.3872 151.978 44.1566 156.764 39.6639 162.797C38.2235 164.731 37.7889 167.34 38.4919 169.833L43.3632 187.109C43.6157 188.005 43.7246 188.928 43.6851 189.838L43.0978 203.39C42.9285 207.294 45.4494 210.884 48.9439 212.048Z" fill="#DAE2EB"/>
<path d="M74.2827 140.277L98.0337 108.274L88.953 108.634C86.4915 108.731 84.2681 110.07 82.9925 112.224L75.1909 125.397C74.3154 126.875 72.9798 127.99 71.397 128.563L51.5541 135.753C48.9391 136.701 47.0847 139.087 46.7297 141.961L46.4841 143.949C46.323 145.254 46.656 148.314 47.4832 153.13L51.6943 162.811L48.1819 178.761L42.1 182.955C45.0362 191.912 46.5738 196.682 46.713 197.266C46.9218 198.141 47.1949 202.311 47.1133 203.199L45.8984 216.421C45.5484 220.23 47.8821 223.752 51.2951 224.913L52.2799 214.194C52.3616 213.306 51.3683 208.506 51.1596 207.63L53.7331 193.035L49.5515 187.774L56.8609 173.806L55.8415 158.695L54.5174 151.5L57.9012 145.437L74.2827 140.277Z" fill="white"/>
<path d="M85.4275 206.945L85.4278 206.945C85.6431 206.965 85.9407 206.848 86.2593 206.449C86.5728 206.056 86.8393 205.458 86.9462 204.746L98.1024 130.401C98.2081 129.697 98.1284 129.058 97.9338 128.6C97.7329 128.128 97.4532 127.932 97.2215 127.908L97.2215 127.908L97.2163 127.908C97.001 127.888 96.7034 128.004 96.3847 128.404C96.0713 128.797 95.8048 129.394 95.6979 130.107L84.5416 204.451C84.4359 205.156 84.5156 205.794 84.7102 206.252C84.9112 206.725 85.1909 206.92 85.4225 206.944L85.4275 206.945Z" fill="black" stroke="black"/>
<path d="M119.4 204.572L119.4 204.572C119.616 204.592 119.913 204.475 120.232 204.076C120.545 203.683 120.812 203.085 120.919 202.373L132.075 128.028C132.181 127.323 132.101 126.685 131.907 126.227C131.706 125.755 131.426 125.559 131.194 125.535L131.194 125.535L131.189 125.535L131.189 125.535C130.974 125.515 130.676 125.631 130.357 126.031C130.044 126.423 129.777 127.021 129.671 127.734L118.514 202.078C118.409 202.783 118.488 203.421 118.683 203.879C118.884 204.352 119.164 204.547 119.395 204.571L119.4 204.572Z" fill="black" stroke="black"/>
<path d="M102.416 205.758L102.416 205.758C102.631 205.778 102.929 205.662 103.248 205.262C103.561 204.869 103.828 204.272 103.934 203.559L115.091 129.215C115.196 128.51 115.117 127.872 114.922 127.414C114.721 126.941 114.441 126.746 114.21 126.722L114.21 126.722L114.205 126.721L114.205 126.721C113.989 126.701 113.692 126.817 113.373 127.217C113.06 127.61 112.793 128.208 112.686 128.92L101.53 203.265C101.424 203.969 101.504 204.608 101.699 205.065C101.899 205.538 102.179 205.734 102.411 205.758L102.416 205.758Z" fill="black" stroke="black"/>
<path d="M138.62 203.543L138.62 203.543C137.689 203.475 136.901 202.447 137.103 201.044L142.637 162.611C142.841 161.196 143.899 160.316 144.823 160.375L144.823 160.375L144.834 160.376L138.62 203.543ZM138.62 203.543L138.631 203.543L138.632 203.543M138.62 203.543L138.632 203.543M138.632 203.543C139.555 203.603 140.613 202.722 140.817 201.308M138.632 203.543L140.817 201.308M140.817 201.308L146.351 162.875M140.817 201.308L146.351 162.875M146.351 162.875C146.553 161.472 145.765 160.444 144.834 160.376L146.351 162.875Z" fill="black" stroke="black"/>
<path d="M65.0685 51.2557L65.0788 51.145L65.0413 51.0404L60.5962 38.6535C60.9487 35.0381 61.8702 33.3555 63.4013 32.2397C64.1998 31.6577 65.1912 31.21 66.4313 30.7459C67.0094 30.5296 67.6329 30.3127 68.3104 30.077L68.4532 30.0273C69.1842 29.773 69.9736 29.497 70.8205 29.1808L89.1649 22.3305L89.3371 22.2662L89.4266 22.1056L96.1348 10.0783C99.2015 4.57993 104.721 1.14694 110.936 0.864947L223.022 0.518793L223.033 0.518761L223.043 0.518294C223.982 0.47622 224.927 0.506733 225.871 0.609693C236.492 1.76878 244.739 11.6823 244.245 22.7702L244.245 22.7795L244.245 22.7889L243.438 135.715C242.992 145.644 235.635 153.272 226.173 153.696L226.034 153.702L225.918 153.779L108.242 231.97C100.182 231.241 94.159 229.482 90.1175 226.741C86.0852 224.006 84.0042 220.281 83.8402 215.526C84.6861 208.502 84.8006 202.73 84.1685 198.224C83.5366 193.718 82.1485 190.409 79.9254 188.406C79.097 187.66 78.2473 186.389 77.3982 184.684C76.5538 182.988 75.7293 180.903 74.9361 178.566C73.3499 173.892 71.9016 168.249 70.6729 162.778C68.2155 151.838 66.6471 141.639 66.6128 141.379C66.4364 140.042 66.3849 138.674 66.4705 137.291L67.2503 124.689L67.257 124.58L67.218 124.479C64.7563 118.068 64.3488 113.336 65.7878 110.17C66.1257 109.427 66.2014 108.421 66.1388 107.289C66.0754 106.143 65.8649 104.798 65.5742 103.335C65.2359 101.631 64.7794 99.7237 64.3067 97.7483C63.9716 96.3482 63.6284 94.9141 63.3134 93.4943C62.5467 90.0396 61.9361 86.6301 61.9403 83.7879C61.9446 80.9206 62.5742 78.7962 64.1031 77.7039L64.3212 77.5481L64.3121 77.2802C64.3005 76.9378 64.306 76.4337 64.3126 75.8173C64.3142 75.668 64.3159 75.512 64.3175 75.3501C64.3252 74.5295 64.3286 73.5748 64.2954 72.6182C64.2623 71.6634 64.1924 70.6942 64.0507 69.846C63.9118 69.0146 63.6939 68.231 63.3238 67.6991C61.9637 65.7445 62.1947 63.0382 62.9247 60.0203C63.1747 58.987 63.4743 57.9482 63.7731 56.9121C63.9071 56.4474 64.041 55.9833 64.1702 55.5204C64.5828 54.0416 64.9445 52.5847 65.0685 51.2557Z" fill="black" stroke="black"/>
<path d="M106.94 49.7294C108.508 49.1303 109.802 47.9789 110.614 46.4585L117.851 32.9099C119.034 30.6948 121.212 29.3068 123.689 29.1889C162.055 27.3634 190.83 25.9942 210.013 25.0815C213.966 24.8934 219.295 26.8939 226 31.083C226.374 31.0652 234.603 45.796 234.485 50.2348L233.657 135.371C233.551 139.354 226.032 133.209 222.258 133.389C208.506 140.342 197.417 144.02 188.991 144.42C178.966 144.897 177.433 141.589 162.647 142.293C157.309 142.547 140.79 146.714 134.832 146.997C126.638 147.387 113.026 148.035 93.9976 148.94C93.5782 148.96 93.1554 148.944 92.7335 148.89C88.5031 148.355 85.231 144.33 85.4251 139.9L86.0189 126.349C86.0588 125.439 85.9503 124.516 85.698 123.62L80.831 106.347C80.1286 103.854 80.5646 101.245 82.0069 99.3105C86.5054 93.2778 88.7397 88.4913 88.7097 84.951C88.669 80.1378 87.1576 75.6241 84.1756 71.4097C82.9841 69.7258 82.406 67.677 82.5563 65.6709L82.709 63.6326C82.9298 60.6864 84.6855 58.2289 87.2768 57.2392L106.94 49.7294Z" fill="#DAE2EB"/>
<path d="M156.969 32.1839C157.28 31.8802 157.594 31.5739 157.912 31.2632C157.54 31.5014 157.174 31.7439 156.823 31.9924L156.969 32.1839ZM156.969 32.1839L157.134 32.4L156.969 32.184" fill="black" stroke="black"/>
<path d="M184.029 125.032C184.216 125.07 184.404 125.107 184.589 125.143L184.641 125.154C185.652 125.352 186.589 125.539 187.239 125.789L187.239 125.789C187.878 126.033 190.061 127.155 192.274 128.365C193.371 128.965 194.459 129.577 195.345 130.1C196.25 130.634 196.897 131.047 197.148 131.256L197.803 130.598C197.579 130.351 197.23 129.789 196.754 128.842C196.286 127.914 195.721 126.669 195.057 125.102L195 124.969L194.885 124.874L188.2 119.408L188.177 119.388L188.151 119.371C186.45 118.242 185.095 117.337 184.081 116.655C185.335 117.006 187.045 117.491 189.211 118.111L196.074 124.056L197.553 129.322L197.594 129.47L197.71 129.582C198.475 130.322 198.928 130.764 199.079 130.918C199.353 131.196 199.602 131.412 199.859 131.537C200.157 131.681 200.41 131.679 200.63 131.633C200.745 131.61 200.843 131.58 200.941 131.55C201.184 131.477 201.427 131.403 201.92 131.418C202.457 131.434 202.738 131.565 202.914 131.704C203.108 131.857 203.252 132.077 203.433 132.418C203.464 132.475 203.495 132.535 203.527 132.597C203.861 133.242 204.319 134.129 205.532 134.626L205.533 134.626C205.624 134.664 205.736 134.688 205.811 134.703C205.901 134.721 206.01 134.741 206.125 134.761C206.176 134.769 206.228 134.778 206.281 134.787C206.477 134.821 206.691 134.857 206.902 134.898C207.174 134.951 207.415 135.007 207.585 135.065C207.602 135.071 207.618 135.077 207.631 135.082C207.94 136.098 208.449 136.853 209.073 137.45C209.568 137.924 210.126 138.288 210.677 138.602C210.513 138.661 210.368 138.683 210.239 138.681C210.017 138.678 209.791 138.604 209.531 138.437L184.029 125.032ZM184.029 125.032C184.051 125.048 184.072 125.065 184.094 125.081C184.995 125.752 186.117 126.564 187.247 127.357C188.378 128.151 189.513 128.923 190.442 129.519C190.907 129.818 191.316 130.069 191.644 130.255C191.989 130.451 192.197 130.548 192.284 130.573L192.284 130.573C192.569 130.657 192.887 130.679 193.25 130.674C193.425 130.672 193.601 130.663 193.786 130.654L193.802 130.653C193.989 130.644 194.186 130.634 194.38 130.633C194.764 130.63 195.189 130.656 195.599 130.806C196.031 130.963 196.419 131.247 196.724 131.705M184.029 125.032L196.724 131.705M196.724 131.705C196.863 131.913 196.975 132.161 197.064 132.36C197.071 132.376 197.078 132.392 197.085 132.408C197.173 132.606 197.243 132.761 197.315 132.883C197.317 132.886 197.318 132.888 197.32 132.891C197.63 132.621 198.035 132.772 198.226 132.87C198.44 132.979 198.653 133.147 198.821 133.289C198.909 133.364 198.995 133.44 199.073 133.509C199.084 133.519 199.095 133.529 199.106 133.539C199.172 133.598 199.23 133.649 199.284 133.695C199.325 133.731 199.357 133.757 199.382 133.777M196.724 131.705L199.382 133.777M215.166 148.984C215.008 148.542 214.836 148.084 214.656 147.637C214.355 146.886 214.041 146.182 213.75 145.64C213.603 145.368 213.469 145.15 213.352 144.992C213.235 144.834 213.17 144.784 213.162 144.777C213.161 144.776 213.16 144.776 213.161 144.776M215.166 148.984L213.161 144.776M215.166 148.984C214.581 148.229 213.922 147.411 213.241 146.646C212.498 145.81 211.71 145.016 210.945 144.424C210.23 143.872 209.453 143.43 208.713 143.384C208.561 143.055 208.285 142.832 208.036 142.68C207.76 142.513 207.434 142.383 207.164 142.276C207.154 142.272 207.144 142.268 207.134 142.264C206.832 142.144 206.595 142.047 206.416 141.936C206.241 141.829 206.211 141.762 206.202 141.731L205.715 141.801L206.202 141.731C206.137 141.503 206.076 141.285 206.018 141.074C205.678 139.855 205.415 138.91 204.982 138.146C204.437 137.188 203.646 136.533 202.289 135.849M215.166 148.984L202.289 135.849M213.161 144.776C212.852 144.61 212.552 144.474 212.245 144.339C212.194 144.316 212.141 144.293 212.088 144.27C211.835 144.16 211.574 144.046 211.318 143.919C210.682 143.605 210.05 143.202 209.434 142.49L209.434 142.49C209.435 142.491 209.435 142.491 209.432 142.489C209.425 142.482 209.4 142.459 209.347 142.417C209.282 142.365 209.199 142.303 209.097 142.228C209.046 142.191 208.99 142.15 208.931 142.108C208.766 141.988 208.577 141.851 208.398 141.714C208.156 141.529 207.898 141.318 207.701 141.107C207.602 141.002 207.501 140.878 207.425 140.742C207.351 140.607 207.278 140.417 207.308 140.21L207.308 140.21C207.405 139.54 207.362 139.278 207.294 139.047C207.276 138.985 207.25 138.911 207.22 138.824C207.133 138.574 207.008 138.216 206.913 137.71L206.799 137.102M213.161 144.776L206.799 137.102M202.289 135.849C201.851 135.628 201.601 135.343 201.291 134.99C201.235 134.927 201.177 134.861 201.116 134.792C200.923 134.578 200.692 134.341 200.389 134.148C200.103 133.966 199.775 133.837 199.382 133.777M202.289 135.849L199.382 133.777M206.799 137.102L207.421 137.197M206.799 137.102L207.421 137.197M207.421 137.197C207.956 137.278 208.372 137.537 208.705 137.79M207.421 137.197L208.705 137.79M208.705 137.79C208.828 137.884 208.951 137.985 209.06 138.076M208.705 137.79L209.06 138.076M209.06 138.076C209.093 138.103 209.125 138.13 209.156 138.154M209.06 138.076L209.156 138.154M209.156 138.154C209.294 138.268 209.414 138.362 209.531 138.437L209.156 138.154ZM199.278 133.762C199.278 133.762 199.279 133.762 199.28 133.763C199.279 133.762 199.278 133.762 199.278 133.762L199.278 133.762ZM197.227 132.956C197.227 132.956 197.229 132.956 197.232 132.954C197.229 132.955 197.227 132.956 197.227 132.956ZM207.725 135.123C207.724 135.122 207.723 135.122 207.722 135.121C207.73 135.127 207.732 135.127 207.725 135.123Z" fill="black" stroke="black"/>
<path d="M224.757 19.6335C224.787 19.6698 224.819 19.7068 224.851 19.7447C225.533 20.5535 226.504 21.6879 227.766 23.1488L227.795 23.1831L227.819 23.2211L231.727 29.408L231.82 29.5557L231.814 29.7182C231.748 31.4624 231.731 32.85 231.762 33.8853C231.778 34.4031 231.805 34.8263 231.843 35.1583C231.882 35.499 231.929 35.7123 231.971 35.8265L231.085 36.1564C231.03 36.0676 230.904 35.9079 230.694 35.6764C230.491 35.4528 230.232 35.1859 229.93 34.8891C229.327 34.2958 228.571 33.5978 227.8 32.9125C227.03 32.2276 226.249 31.5594 225.597 31.0262C224.928 30.4797 224.435 30.1084 224.22 29.9847L224.22 29.9846C223.748 29.7137 222.977 29.4925 222.095 29.2452L222.028 29.2267C221.73 29.1431 221.418 29.0559 221.113 28.9617C221.203 29.0873 221.299 29.2208 221.402 29.3612C221.955 30.1197 222.655 31.0377 223.372 31.9367C224.089 32.8366 224.818 33.7109 225.428 34.3844C225.734 34.7218 226.004 35.0018 226.224 35.2074C226.334 35.3102 226.426 35.389 226.499 35.4451C226.577 35.5054 226.611 35.5216 226.61 35.5211L226.61 35.5211C226.802 35.6029 227.065 35.6371 227.415 35.6401C227.581 35.6415 227.751 35.6362 227.931 35.6306L227.945 35.6301C228.126 35.6245 228.318 35.6186 228.505 35.6217C228.862 35.6275 229.293 35.6639 229.669 35.8683C230.103 36.1039 230.374 36.5081 230.463 37.0398L224.757 19.6335ZM224.757 19.6335C224.811 19.6551 224.867 19.6774 224.924 19.7002C225.965 20.118 227.47 20.7343 229.44 21.5496L233.238 28.152L232.301 33.9989L232.276 34.1526L232.348 34.3044C232.746 35.1392 232.977 35.6333 233.05 35.8026C233.183 36.1117 233.345 36.4132 233.596 36.6051C233.904 36.8405 234.211 36.8196 234.411 36.7801C234.531 36.7568 234.637 36.7264 234.744 36.6959C235.005 36.6213 235.268 36.5464 235.72 36.5738C236.208 36.6034 236.317 36.7419 236.354 36.7972C236.435 36.9182 236.479 37.1285 236.501 37.5317C236.504 37.588 236.506 37.6482 236.509 37.7115C236.523 38.0357 236.541 38.441 236.64 38.8177C236.768 39.3062 237.044 39.8038 237.623 40.1636L237.624 40.1636C237.728 40.2281 237.854 40.2649 237.911 40.2815L237.914 40.2823C237.996 40.3062 238.094 40.331 238.194 40.3557C238.239 40.3667 238.285 40.3779 238.332 40.3893C238.503 40.4308 238.685 40.4751 238.863 40.5247C239.032 40.5717 239.176 40.6176 239.285 40.6607C239.147 41.722 239.286 42.5545 239.624 43.2523C239.909 43.8393 240.316 44.2899 240.725 44.6704C240.379 44.8354 240.133 44.8842 239.963 44.877C239.796 44.8699 239.68 44.81 239.559 44.6759C239.498 44.6086 239.436 44.5193 239.356 44.3915C239.34 44.3662 239.323 44.3384 239.304 44.3088C239.24 44.2055 239.163 44.0809 239.083 43.9673C238.86 43.6533 238.526 43.2963 237.975 43.1758L237.542 43.0811L237.445 43.4865C237.314 44.0313 237.275 44.4065 237.247 44.6833C237.237 44.7848 237.227 44.8731 237.216 44.9516C237.173 45.24 237.083 45.5637 236.681 46.3241L236.681 46.3241C236.517 46.6354 236.596 46.9854 236.695 47.2369C236.797 47.4953 236.96 47.7518 237.111 47.9678C237.223 48.1282 237.347 48.29 237.451 48.4267C237.487 48.4741 237.52 48.5185 237.551 48.5587C237.613 48.642 237.661 48.7075 237.694 48.7588C237.714 48.7882 237.723 48.8045 237.726 48.8101C238.008 49.641 238.458 50.1395 238.957 50.5291C239.152 50.6814 239.359 50.8207 239.55 50.9485C239.589 50.9747 239.628 51.0004 239.665 51.0256C239.879 51.1704 240.079 51.311 240.272 51.4752C240.285 51.5056 240.302 51.5576 240.32 51.6368C240.36 51.8087 240.39 52.05 240.408 52.3549C240.444 52.961 240.429 53.7478 240.381 54.585C240.346 55.189 240.295 55.8107 240.236 56.3984C240.023 55.5842 239.771 54.711 239.479 53.8894C239.144 52.9481 238.743 52.0334 238.263 51.3368C237.851 50.7393 237.308 50.2015 236.632 50.0547C236.595 49.7592 236.446 49.508 236.251 49.3082C236.038 49.0897 235.757 48.9218 235.556 48.8014C235.545 48.7949 235.534 48.7885 235.524 48.7823C235.282 48.6375 235.137 48.5447 235.048 48.4516C234.996 48.3972 234.985 48.3725 234.996 48.3002L234.501 48.1576L234.996 48.3002C235.037 48.0454 235.076 47.8012 235.114 47.5675C235.205 47.0013 235.287 46.4962 235.346 46.0474C235.429 45.4125 235.472 44.8517 235.429 44.3412C235.385 43.8207 235.251 43.3433 234.976 42.8819C234.705 42.4264 234.316 42.0203 233.812 41.6162L224.757 19.6335ZM231.981 39.2374C232.312 39.3284 232.583 39.4918 232.798 39.7259C233.037 39.9867 233.163 40.2911 233.249 40.53C233.28 40.6151 233.308 40.6944 233.334 40.7683C233.474 41.1675 233.56 41.4139 233.812 41.6162L231.981 39.2374ZM231.981 39.2374C231.953 39.1899 231.924 39.1365 231.889 39.0729C231.883 39.0621 231.877 39.0511 231.871 39.0397C231.828 38.9614 231.778 38.872 231.725 38.7835C231.63 38.6243 231.483 38.3952 231.285 38.2351C231.178 38.1482 231.025 38.0567 230.838 38.0316C230.709 38.0143 230.592 38.0324 230.49 38.0731C230.49 37.9964 230.492 37.9125 230.494 37.821C230.494 37.8036 230.494 37.7859 230.495 37.7679C230.499 37.549 230.503 37.2742 230.463 37.0398L231.981 39.2374ZM240.261 51.4531C240.261 51.4531 240.262 51.4541 240.263 51.4558C240.262 51.4539 240.261 51.453 240.261 51.4531Z" fill="black" stroke="black"/>
<path d="M83.1709 134.768L86.7691 125.657L84.4784 105.452C84.0094 103.79 82.3923 100.882 79.6269 96.7283L90.8487 84.6928C86.7971 76.9184 83.7765 71.6259 81.787 68.8152C80.5947 67.1306 80.0158 65.081 80.1655 63.0739L80.3175 61.0348C80.5374 58.0873 82.2928 55.6286 84.8845 54.6384L104.55 47.1244C106.119 46.525 107.412 45.373 108.224 43.852L115.459 30.2971C116.642 28.081 118.82 26.6923 121.297 26.5742C145.495 24.9343 166.537 23.0299 184.423 20.861C202.309 18.6922 216.05 16.2543 225.645 13.5473C224.648 11.3568 221.349 10.395 215.747 10.6618C215.368 10.6799 214.994 10.6099 214.62 10.6277L115.558 15.3467C113.08 15.4647 110.902 16.8535 109.72 19.0696L102.485 32.6244C101.673 34.1455 100.38 35.2975 98.8112 35.8968L79.1452 43.4109C76.5535 44.4011 74.7981 46.8597 74.5783 49.8072L74.4262 51.8464C74.2765 53.8534 74.8554 55.9031 76.0478 57.5876C79.032 61.8037 80.5453 66.3194 80.5876 71.1346C80.6187 74.6765 78.3854 79.4652 73.8877 85.5007C72.4456 87.4358 72.0103 90.046 72.7137 92.5399L77.5877 109.821C77.8403 110.717 77.9492 111.64 77.9096 112.551L77.3201 126.107C77.1502 130.013 79.6731 133.604 83.1709 134.768Z" fill="#DAE2EB"/>
<path d="M108.509 63.4867L132.238 31.5192L123.143 31.8831C120.678 31.9817 118.453 33.3203 117.18 35.4714L109.39 48.6286C108.516 50.1051 107.181 51.2188 105.596 51.7924L85.7347 58.9827C83.1172 59.9303 81.2643 62.3139 80.9142 65.1839L80.672 67.1694C80.5131 68.4722 80.8525 71.5279 81.6902 76.3363L85.9266 86.0004L82.4389 101.928L76.3551 106.119C79.3131 115.061 80.8624 119.823 81.0029 120.406C81.2137 121.28 81.4952 125.443 81.4151 126.33L80.2235 139.533C79.8802 143.336 82.2244 146.851 85.6452 148.009L86.6112 137.306C86.6913 136.418 85.6872 131.627 85.4765 130.752L88.0264 116.178L83.828 110.927L91.1227 96.976L90.0728 81.8874L88.7328 74.7046L92.1106 68.6488L108.509 63.4867Z" fill="white"/>
<path d="M96.4605 177.754L96.4691 177.645L96.4311 177.542L91.56 164.354C91.8785 160.492 92.8282 158.69 94.4337 157.494C95.2692 156.871 96.3097 156.393 97.6108 155.896C98.2175 155.665 98.8721 155.433 99.5831 155.181L99.7325 155.128C100.499 154.856 101.328 154.561 102.216 154.223L121.457 146.901L121.631 146.835L121.719 146.671L128.616 133.856C130.214 130.887 132.494 127.774 135.193 125.37C137.891 122.967 140.968 121.309 144.174 121.154L245.405 123.542V123.542L245.419 123.542L262.278 123.463L262.289 123.463L262.299 123.463C263.29 123.416 264.288 123.447 265.286 123.556C276.517 124.774 285.374 135.331 285.015 147.157L285.015 147.166L285.015 147.175L285.817 267.394C285.492 277.983 277.836 286.122 267.857 286.589L121.899 293.42C121.2 293.453 120.139 293.413 118.703 293.296C112.314 287.173 107.503 282.46 104.269 279.153C102.64 277.488 101.416 276.185 100.592 275.241C100.18 274.768 99.8744 274.392 99.6702 274.11C99.5679 273.969 99.4967 273.859 99.4514 273.778C99.4194 273.721 99.4087 273.692 99.4063 273.687C99.2019 272.266 99.1283 270.812 99.1981 269.343L99.8358 255.926L99.8409 255.818L99.8015 255.718C97.1109 248.895 96.6076 243.846 98.0838 240.461C98.4262 239.675 98.4917 238.611 98.4093 237.409C98.3259 236.191 98.0846 234.762 97.7568 233.205C97.3753 231.393 96.8665 229.365 96.3394 227.263C95.9656 225.773 95.5826 224.247 95.2293 222.734C94.3703 219.057 93.6756 215.425 93.6385 212.395C93.6009 209.337 94.2347 207.063 95.8394 205.892L96.0567 205.733L96.044 205.464C96.0267 205.099 96.025 204.561 96.023 203.905C96.0225 203.746 96.022 203.58 96.0213 203.408C96.0174 202.535 96.007 201.519 95.9581 200.502C95.9092 199.486 95.8214 198.456 95.66 197.556C95.5017 196.672 95.2616 195.846 94.8692 195.288C93.395 193.193 93.6041 190.295 94.3292 187.083C94.5778 185.982 94.8788 184.875 95.1788 183.771C95.3133 183.276 95.4475 182.782 95.5768 182.29C95.9902 180.715 96.3495 179.166 96.4605 177.754Z" fill="black" stroke="black"/>
<path d="M139.897 175.677C141.553 175.044 142.919 173.828 143.776 172.222L151.416 157.913C152.665 155.573 154.965 154.108 157.58 153.984C198.089 152.062 228.471 150.621 248.726 149.66C252.9 149.462 258.527 151.576 265.607 156.002C266.002 155.983 274.693 171.544 274.568 176.233L273.704 266.158C273.592 270.365 265.653 263.873 261.668 264.062C247.148 271.405 235.44 275.287 226.544 275.709C215.959 276.211 214.339 272.716 198.727 273.457C193.091 273.724 175.649 278.123 169.359 278.421C160.707 278.832 146.335 279.513 126.243 280.466C125.8 280.487 125.354 280.47 124.908 280.413C120.441 279.847 116.986 275.595 117.19 270.916L117.816 256.603C117.858 255.641 117.743 254.666 117.477 253.721L112.336 235.474C111.594 232.841 112.054 230.085 113.577 228.043C118.326 221.671 120.685 216.616 120.653 212.876C120.609 207.792 119.013 203.025 115.864 198.573C114.605 196.794 113.995 194.63 114.153 192.511L114.314 190.358C114.547 187.246 116.401 184.65 119.136 183.605L139.897 175.677Z" fill="#DAE2EB"/>
<path d="M193.467 156.294C193.773 155.996 194.082 155.695 194.397 155.388C195.133 154.671 195.898 153.926 196.712 153.133L197.655 152.214L196.291 152.277C195.84 152.298 195.389 152.318 194.94 152.338C191.854 152.474 188.838 152.607 186.257 153.039C183.312 153.532 180.803 154.433 179.398 156.294L193.467 156.294ZM193.467 156.294C194.082 155.896 194.719 155.509 195.349 155.127C195.688 154.921 196.025 154.717 196.355 154.513C197.628 153.725 198.815 152.932 199.751 152.029L199.855 151.928L200.002 151.904L200.944 151.751L201.096 151.726L201.241 151.791C201.677 151.986 201.93 152.027 202.054 152.015C202.08 152.013 202.096 152.008 202.105 152.005C202.113 152.002 202.116 152 202.118 151.999L202.118 151.999C202.118 151.998 202.133 151.987 202.148 151.941L202.246 151.64L202.571 151.624C204.157 151.547 205.75 151.402 207.359 151.248C207.582 151.227 207.805 151.206 208.028 151.184C209.415 151.05 210.815 150.915 212.222 150.817C215.49 150.59 218.827 150.56 222.235 151.212L222.17 151.697M193.467 156.294L222.17 151.697M222.17 151.697L222.235 151.212C222.646 151.29 222.992 151.393 223.271 151.521C223.544 151.647 223.793 151.816 223.955 152.049C224.133 152.304 224.175 152.592 224.092 152.861C224.017 153.106 223.847 153.303 223.66 153.456L223.66 153.456M222.17 151.697L223.66 153.456M220.113 154.714C220.04 154.724 219.971 154.734 219.906 154.743C219.683 154.774 219.506 154.798 219.368 154.841M220.113 154.714L179.398 156.294C178.741 157.164 178.151 158.055 177.612 158.96L175.847 143.588L244.126 140.261M220.113 154.714C221.495 154.511 222.808 154.155 223.66 153.456M220.113 154.714L223.66 153.456M219.368 154.841C219.427 155.376 219.319 155.957 219.115 156.513C218.889 157.132 218.531 157.759 218.089 158.324C217.22 159.43 215.939 160.397 214.553 160.454L214.553 160.454C214.336 160.463 214.122 160.469 213.911 160.476C213.239 160.496 212.602 160.515 212.047 160.609C211.886 160.636 211.741 160.669 211.612 160.706M219.368 154.841C219.367 154.841 219.367 154.841 219.366 154.841C219.302 154.861 219.28 154.875 219.28 154.875C219.28 154.875 219.283 154.873 219.287 154.868C219.328 154.829 219.357 154.752 219.345 154.682C219.354 154.734 219.362 154.787 219.368 154.841ZM211.612 160.706C212.663 160.791 213.698 160.875 214.749 160.961C215.615 161.031 216.49 161.103 217.393 161.176L217.748 161.205M211.612 160.706C211.251 160.81 211.012 160.954 210.873 161.139C212.175 161.245 213.444 161.348 214.734 161.453C215.393 161.507 216.058 161.561 216.736 161.616C216.824 161.526 216.908 161.435 216.986 161.341L217.383 161.669L217.378 161.92C217.411 161.862 217.444 161.803 217.475 161.744C217.572 161.565 217.663 161.384 217.748 161.205M211.612 160.706C211.293 160.68 210.973 160.654 210.65 160.628C211.31 160.057 212.609 160.019 213.889 159.981C214.094 159.975 214.299 159.968 214.5 159.96C216.859 159.863 219.179 156.588 218.85 154.737C218.788 154.393 219.309 154.321 219.83 154.249L244.069 139.767L244.126 140.261M217.748 161.205C218.264 160.11 218.55 159.043 218.6 158.383C218.696 157.124 219.293 156.162 220.389 155.502C221.457 154.859 222.98 154.514 224.932 154.397L224.932 154.397C225.658 154.353 226.156 154.219 226.465 154.026C226.746 153.849 226.879 153.621 226.887 153.296M217.748 161.205L218.293 161.249C218.775 160.177 219.05 159.137 219.102 158.451C219.27 156.241 221.154 155.121 224.994 154.89C226.516 154.799 227.366 154.318 227.39 153.339M226.887 153.296C226.905 152.527 227.508 152.091 228.133 151.858C228.774 151.618 229.603 151.521 230.428 151.508C232.552 151.476 236.033 151.266 240.007 151.026C241.712 150.924 243.508 150.815 245.326 150.713M226.887 153.296L227.39 153.339M226.887 153.296C226.887 153.296 226.887 153.296 226.887 153.296L227.39 153.339M245.326 150.713L244.126 140.261M245.326 150.713L245.382 151.204L245.882 151.179M245.326 150.713C245.491 150.704 245.656 150.695 245.822 150.686L245.882 151.179M244.126 140.261L244.626 140.237L245.882 151.179M245.882 151.179C243.906 151.289 241.944 151.407 240.087 151.519C236.105 151.759 232.604 151.97 230.467 152.002C228.868 152.027 227.412 152.383 227.39 153.339M216.583 163.111C216.821 162.811 217.042 162.488 217.244 162.151C217.145 162.143 217.046 162.135 216.948 162.127C216.643 162.414 216.303 162.68 215.967 162.943C215.211 163.535 214.472 164.114 214.176 164.893C214.445 164.813 214.704 164.701 214.954 164.56M216.583 163.111C216.637 163.068 216.693 163.023 216.749 162.977C217.11 162.685 217.475 162.364 217.781 161.996L218.153 161.548C217.39 163.123 216.186 164.705 214.587 165.288C214.649 165.031 214.774 164.793 214.954 164.56M216.583 163.111C216.106 163.712 215.559 164.219 214.954 164.56M216.583 163.111C216.48 163.193 216.381 163.271 216.283 163.347C216.083 163.503 215.891 163.653 215.696 163.818C215.395 164.071 215.144 164.313 214.954 164.56" fill="black" stroke="black"/>
<path d="M251.998 275.83C251.997 275.829 251.997 275.829 251.997 275.829C251.997 275.829 252.016 275.841 252.055 275.879C252.096 275.921 252.149 275.982 252.211 276.066C252.337 276.235 252.479 276.467 252.635 276.755C252.944 277.328 253.277 278.073 253.597 278.866C253.808 279.39 254.01 279.929 254.193 280.443C253.549 279.61 252.816 278.696 252.056 277.844C251.271 276.962 250.44 276.126 249.633 275.503C248.874 274.915 248.053 274.452 247.275 274.41C247.12 274.061 246.829 273.824 246.564 273.663C246.276 273.488 245.934 273.352 245.648 273.239C245.637 273.235 245.627 273.23 245.616 273.226C245.299 273.1 245.045 272.997 244.853 272.878C244.666 272.762 244.625 272.686 244.613 272.642L244.126 272.712L244.613 272.642C244.544 272.402 244.479 272.17 244.417 271.948C244.056 270.661 243.778 269.667 243.321 268.865C242.75 267.861 241.92 267.173 240.49 266.452C240.021 266.216 239.753 265.91 239.425 265.537C239.366 265.47 239.305 265.401 239.24 265.329C239.037 265.104 238.795 264.856 238.479 264.655C238.179 264.464 237.834 264.329 237.42 264.266C237.392 264.245 237.356 264.215 237.308 264.174C237.251 264.125 237.189 264.07 237.12 264.008C237.108 263.998 237.097 263.988 237.085 263.977C237.003 263.904 236.912 263.824 236.819 263.745C236.642 263.596 236.42 263.42 236.197 263.307C235.997 263.205 235.583 263.052 235.269 263.328L245.899 268.858C245.942 268.865 245.984 268.874 246.026 268.884C246.085 269.099 246.144 269.269 246.198 269.422C246.363 269.893 246.472 270.203 246.333 271.174C246.282 271.534 247.144 272.158 247.79 272.625C248.091 272.843 248.344 273.027 248.438 273.134C249.256 274.078 250.095 274.445 251.009 274.844C251.389 275.01 251.783 275.181 252.193 275.403M251.998 275.83L252.193 275.403M251.998 275.83C251.998 275.83 251.998 275.83 251.998 275.83L252.193 275.403M251.998 275.83C251.671 275.653 251.353 275.509 251.029 275.367C250.974 275.342 250.919 275.318 250.863 275.294C250.596 275.177 250.32 275.057 250.051 274.924C249.382 274.594 248.719 274.17 248.071 273.423L248.071 273.423C248.071 273.423 248.071 273.423 248.069 273.422C248.063 273.415 248.036 273.39 247.975 273.341C247.906 273.286 247.817 273.22 247.71 273.142C247.655 273.102 247.596 273.059 247.533 273.014C247.359 272.888 247.161 272.744 246.972 272.599C246.716 272.404 246.445 272.182 246.239 271.962C246.135 271.852 246.03 271.723 245.952 271.583C245.875 271.444 245.801 271.25 245.831 271.04L245.831 271.04C245.932 270.33 245.887 270.049 245.813 269.8C245.793 269.732 245.766 269.653 245.733 269.56C245.641 269.297 245.51 268.923 245.409 268.392L245.294 267.784L245.916 267.879C246.473 267.964 246.908 268.233 247.257 268.499C247.387 268.597 247.516 268.704 247.632 268.799C247.667 268.828 247.701 268.856 247.733 268.883C247.88 269.003 248.007 269.103 248.133 269.184C248.411 269.362 248.655 269.443 248.896 269.446C249.05 269.449 249.223 269.42 249.419 269.342C248.821 269.003 248.215 268.612 247.678 268.1C247.019 267.47 246.482 266.673 246.156 265.598C246.138 265.591 246.116 265.583 246.092 265.575C245.91 265.513 245.654 265.453 245.367 265.397C245.143 265.354 244.917 265.315 244.71 265.28C244.654 265.27 244.599 265.261 244.546 265.252C244.425 265.231 244.31 265.21 244.215 265.191C244.136 265.175 244.02 265.15 243.927 265.112L243.927 265.112C242.657 264.592 242.177 263.666 241.824 262.985C241.789 262.919 241.757 262.856 241.724 262.795C241.532 262.435 241.377 262.197 241.166 262.031C240.973 261.879 240.669 261.739 240.099 261.722C239.574 261.707 239.312 261.786 239.056 261.864C238.953 261.895 238.85 261.926 238.732 261.95C238.504 261.997 238.244 261.999 237.937 261.85C237.671 261.721 237.41 261.497 237.122 261.203L255.112 281.656C254.407 279.432 253.011 275.845 252.193 275.403M246.245 265.638C246.245 265.638 246.244 265.638 246.244 265.637C246.252 265.644 246.254 265.644 246.245 265.638ZM237.319 264.252C237.319 264.252 237.32 264.252 237.32 264.253C237.32 264.252 237.319 264.252 237.319 264.252L237.319 264.252Z" fill="black" stroke="black"/>
<path d="M272.157 159.062L272.229 159.214C272.65 160.095 272.895 160.617 272.973 160.796L272.157 159.062ZM272.157 159.062L272.181 158.908M272.157 159.062L272.181 158.908M272.181 158.908L273.161 152.726L272.181 158.908ZM259.821 152.874C259.943 153.058 260.096 153.28 260.276 153.533C260.016 153.451 259.761 153.364 259.524 153.271C259.302 152.944 259.143 152.691 259.067 152.538C259.281 152.659 259.537 152.77 259.821 152.874ZM270.193 162.112C270.235 162.356 270.231 162.644 270.227 162.876C270.227 162.895 270.227 162.914 270.226 162.932C270.224 163.047 270.223 163.152 270.223 163.245C270.336 163.192 270.469 163.166 270.618 163.186C270.808 163.211 270.963 163.304 271.074 163.394C271.278 163.559 271.431 163.796 271.532 163.964C271.588 164.057 271.64 164.151 271.685 164.233C271.692 164.245 271.698 164.257 271.704 164.269C271.743 164.339 271.776 164.398 271.806 164.451C271.807 164.452 271.808 164.453 271.809 164.455C272.159 164.549 272.444 164.719 272.669 164.964C272.917 165.235 273.048 165.551 273.14 165.802C273.172 165.891 273.202 165.974 273.229 166.052C273.377 166.474 273.471 166.744 273.746 166.964L270.193 162.112ZM271.608 164.41L271.608 164.41L271.608 164.41ZM269.699 162.127L270.193 162.112L269.699 162.127ZM264.083 143.67C263.718 143.525 263.418 143.407 263.181 143.316C262.883 142.954 262.699 142.721 262.629 142.617C262.692 142.623 262.965 142.721 263.449 142.908C263.612 143.107 263.822 143.36 264.083 143.67ZM281.108 170.177C280.667 169.77 280.227 169.29 279.921 168.661C279.563 167.925 279.416 167.045 279.564 165.918C279.444 165.869 279.283 165.817 279.093 165.764C278.904 165.711 278.711 165.664 278.531 165.621C278.481 165.608 278.433 165.597 278.386 165.585C278.28 165.559 278.177 165.533 278.091 165.508L278.089 165.507C278.028 165.49 277.898 165.452 277.792 165.386L277.792 165.386C277.189 165.012 276.901 164.494 276.766 163.984C276.662 163.59 276.643 163.166 276.628 162.824C276.625 162.757 276.622 162.693 276.619 162.633C276.595 162.208 276.548 161.978 276.457 161.842C276.41 161.772 276.283 161.623 275.764 161.591C275.282 161.562 275 161.643 274.723 161.722C274.611 161.754 274.5 161.785 274.377 161.81C274.168 161.851 273.855 161.871 273.54 161.631C273.282 161.434 273.114 161.122 272.973 160.797L281.108 170.177ZM269.455 145.355L269.321 145.814C269.257 145.788 269.194 145.762 269.132 145.736L269.029 145.557L269.455 145.355Z" fill="black" stroke="black"/>
<path d="M114.834 265.527L118.627 255.909L116.207 234.578C115.712 232.822 114.006 229.752 111.09 225.366L122.921 212.663C118.646 204.454 115.46 198.866 113.362 195.898C112.104 194.12 111.493 191.956 111.651 189.837L111.811 187.684C112.042 184.572 113.892 181.977 116.625 180.932L137.361 173.004C139.015 172.371 140.379 171.155 141.235 169.55L148.861 155.241C150.108 152.902 152.404 151.436 155.017 151.312C180.533 149.586 202.721 147.58 221.582 145.294C240.442 143.008 254.932 140.437 265.05 137.582C263.998 135.269 260.519 134.253 254.612 134.533C254.212 134.552 253.818 134.478 253.423 134.497L148.963 139.458C146.35 139.582 144.054 141.047 142.807 143.387L135.181 157.695C134.325 159.301 132.961 160.517 131.307 161.149L110.571 169.078C107.838 170.123 105.987 172.718 105.756 175.83L105.596 177.982C105.439 180.101 106.05 182.265 107.307 184.044C110.455 188.496 112.052 193.263 112.097 198.347C112.131 202.086 109.777 207.141 105.035 213.512C103.515 215.555 103.056 218.31 103.799 220.943L108.942 239.188C109.208 240.134 109.323 241.109 109.282 242.071L108.663 256.382C108.485 260.505 111.146 264.297 114.834 265.527Z" fill="#DAE2EB"/>
<path d="M141.875 190.095L166.974 156.287L157.376 156.667C154.775 156.77 152.425 158.185 151.077 160.46L142.833 174.376C141.908 175.938 140.496 177.115 138.824 177.721L117.852 185.317C115.089 186.319 113.129 188.839 112.754 191.876L112.495 193.976C112.325 195.355 112.677 198.588 113.552 203.675L118.003 213.903L114.293 230.753L107.865 235.183C110.969 244.645 112.595 249.684 112.742 250.301C112.963 251.226 113.252 255.63 113.166 256.569L111.883 270.537C111.513 274.561 113.98 278.281 117.588 279.507L118.627 268.184C118.714 267.246 117.663 262.175 117.443 261.25L120.161 245.831L115.741 240.274L123.465 225.518L122.386 209.553L120.986 201.953L124.562 195.548L141.875 190.095Z" fill="white"/>
<path d="M194.268 241.917C211.328 241.917 225.159 228.099 225.159 211.054C225.159 194.009 211.328 180.191 194.268 180.191C177.207 180.191 163.377 194.009 163.377 211.054C163.377 228.099 177.207 241.917 194.268 241.917Z" fill="#DAE2EB" stroke="black" stroke-width="8.27235"/>
<path d="M201.353 252.293C219.148 249.794 231.509 233.082 228.96 214.965C226.412 196.848 209.92 184.187 192.124 186.686C174.328 189.184 161.968 205.897 164.517 224.014C167.065 242.13 183.557 254.792 201.353 252.293Z" fill="black"/>
<path d="M194.886 241.094C211.833 241.094 225.571 228.013 225.571 211.877C225.571 195.741 211.833 182.66 194.886 182.66C177.939 182.66 164.201 195.741 164.201 211.877C164.201 228.013 177.939 241.094 194.886 241.094Z" fill="#DAE2EB"/>
<path fill-rule="evenodd" clip-rule="evenodd" d="M164.204 213.098C164.447 228.694 178.105 241.041 194.708 240.675C211.312 240.308 224.575 227.367 224.332 211.771C224.315 210.692 224.234 209.63 224.092 208.585C224.082 223.984 210.913 236.685 194.466 237.048C179.01 237.389 166.108 226.714 164.201 212.657C164.201 212.804 164.201 212.951 164.204 213.098Z" fill="white"/>
<path fill-rule="evenodd" clip-rule="evenodd" d="M219.801 209.229C219.594 197.232 207.995 187.735 193.893 188.016C179.791 188.298 168.527 198.252 168.733 210.249C168.748 211.079 168.816 211.897 168.937 212.7C168.946 200.854 180.13 191.084 194.099 190.806C207.226 190.543 218.184 198.755 219.804 209.568C219.803 209.455 219.803 209.342 219.801 209.229Z" fill="white"/>
<path fill-rule="evenodd" clip-rule="evenodd" d="M194.532 185.623C207.131 185.623 217.708 194.096 220.563 205.504C216.912 195.33 206.958 188.028 195.262 188.028C180.488 188.028 168.53 199.678 168.552 214.049C168.556 216.164 168.818 218.22 169.311 220.189C168.351 217.513 167.827 214.637 167.822 211.644C167.8 197.273 179.759 185.623 194.532 185.623Z" fill="black"/>
<path fill-rule="evenodd" clip-rule="evenodd" d="M206.107 213.207L187.914 223.615C186.933 224.2 185.707 223.425 185.166 221.886C185.04 221.528 184.961 221.146 184.933 220.762L184.383 198.744C184.424 197.098 185.614 195.793 187.02 195.829C187.346 195.837 187.665 195.92 187.957 196.072L207.088 207.681C207.973 208.333 208.11 210.087 207.43 211.6C207.103 212.341 206.627 212.921 206.107 213.207Z" fill="white"/>
<path fill-rule="evenodd" clip-rule="evenodd" d="M205.008 215.085L187.763 224.862C186.832 225.412 185.668 224.681 185.158 223.232C185.039 222.894 184.964 222.535 184.938 222.174L184.383 201.452C184.414 199.902 185.521 198.675 186.836 198.71C187.142 198.718 187.439 198.796 187.714 198.94L205.858 209.885C206.71 210.499 206.869 212.151 206.245 213.573C205.946 214.271 205.5 214.817 205.008 215.085Z" fill="black"/>
<path fill-rule="evenodd" clip-rule="evenodd" d="M190.761 202.679C189.113 201.736 187.061 202.924 187.061 204.821V218.933C187.061 220.831 189.113 222.019 190.761 221.076L203.088 214.02C204.746 213.072 204.746 210.684 203.088 209.735L190.761 202.679Z" fill="white"/>
<path d="M161.615 115.634C178.676 115.634 192.506 101.816 192.506 84.771C192.506 67.7259 178.676 53.9082 161.615 53.9082C144.555 53.9082 130.725 67.7259 130.725 84.771C130.725 101.816 144.555 115.634 161.615 115.634Z" fill="#DAE2EB" stroke="black" stroke-width="8.27235"/>
<path d="M168.702 126.01C186.498 123.511 198.858 106.799 196.31 88.6817C193.761 70.5647 177.269 57.9037 159.474 60.4024C141.678 62.9011 129.318 79.6134 131.866 97.7303C134.415 115.847 150.907 128.508 168.702 126.01Z" fill="black"/>
<path d="M162.236 114.81C179.182 114.81 192.92 101.73 192.92 85.5936C192.92 69.4577 179.182 56.377 162.236 56.377C145.289 56.377 131.551 69.4577 131.551 85.5936C131.551 101.73 145.289 114.81 162.236 114.81Z" fill="#DAE2EB"/>
<path fill-rule="evenodd" clip-rule="evenodd" d="M131.554 86.8146C131.797 102.411 145.454 114.758 162.058 114.391C178.662 114.025 191.925 101.084 191.682 85.4879C191.664 84.4091 191.583 83.3464 191.442 82.3018C191.431 97.701 178.263 110.402 161.816 110.764C146.36 111.106 133.457 100.431 131.551 86.3737C131.551 86.5207 131.551 86.6676 131.554 86.8146Z" fill="white"/>
<path fill-rule="evenodd" clip-rule="evenodd" d="M187.151 82.9456C186.943 70.9484 175.344 61.4513 161.242 61.7327C147.141 62.0147 135.877 71.9686 136.083 83.9659C136.098 84.7953 136.166 85.6136 136.286 86.4166C136.295 74.5712 147.48 64.8011 161.449 64.5225C174.576 64.26 185.533 72.4714 187.153 83.2848C187.153 83.1719 187.153 83.0591 187.151 82.9456Z" fill="white"/>
<path fill-rule="evenodd" clip-rule="evenodd" d="M161.882 59.3398C174.48 59.3398 185.058 67.8132 187.912 79.2213C184.262 69.0473 174.308 61.7446 162.611 61.7446C147.838 61.7446 135.879 73.3943 135.902 87.7657C135.905 89.8807 136.167 91.9372 136.66 93.906C135.7 91.2297 135.177 88.3542 135.172 85.3609C135.15 70.9896 147.108 59.3398 161.882 59.3398Z" fill="black"/>
<path fill-rule="evenodd" clip-rule="evenodd" d="M173.457 86.9252L155.264 97.3332C154.283 97.9175 153.057 97.1431 152.516 95.604C152.39 95.2453 152.31 94.8637 152.282 94.4799L151.732 72.4619C151.774 70.8155 152.963 69.5104 154.369 69.5466C154.696 69.555 155.014 69.6379 155.306 69.7897L174.438 81.399C175.323 82.0509 175.459 83.8052 174.779 85.3178C174.453 86.0588 173.977 86.6389 173.457 86.9252Z" fill="white"/>
<path fill-rule="evenodd" clip-rule="evenodd" d="M172.358 88.8012L155.112 98.5783C154.181 99.1277 153.018 98.3972 152.508 96.948C152.388 96.6102 152.314 96.2508 152.288 95.8901L151.732 75.1673C151.764 73.6178 152.871 72.3907 154.186 72.4255C154.491 72.4339 154.789 72.5119 155.064 72.6553L173.208 83.6003C174.06 84.2153 174.219 85.8665 173.594 87.2893C173.295 87.9871 172.85 88.5324 172.358 88.8012Z" fill="black"/>
<path fill-rule="evenodd" clip-rule="evenodd" d="M158.108 76.3948C156.461 75.4518 154.408 76.6399 154.408 78.537V92.6493C154.408 94.5463 156.461 95.7351 158.108 94.7922L170.436 87.7353C172.093 86.7875 172.093 84.3995 170.436 83.4509L158.108 76.3948Z" fill="white"/>
</svg>
