<svg width="40" height="40" viewBox="0 0 40 40" fill="none" xmlns="http://www.w3.org/2000/svg">
<path d="M26.5974 19.2182L18.2916 13.1805C17.9867 12.9595 17.5821 12.9262 17.248 13.098C16.9112 13.2683 16.7009 13.6144 16.7009 13.9884V26.0599C16.7009 26.4379 16.9112 26.7827 17.248 26.9531C17.3904 27.0249 17.5462 27.0609 17.7032 27.0609C17.9082 27.0609 18.1159 26.9957 18.2916 26.8665L26.5974 20.8341C26.8597 20.6411 27.0127 20.343 27.0127 20.0262C27.0141 19.7041 26.857 19.4072 26.5974 19.2182Z" fill="#4038FF"/>
<path d="M20.0007 0.00292969C8.95278 0.00292969 0 8.95571 0 20.0036C0 31.0475 8.95278 39.9976 20.0007 39.9976C31.0459 39.9976 40 31.0462 40 20.0036C40.0013 8.95571 31.0459 0.00292969 20.0007 0.00292969ZM20.0007 36.6606C10.8003 36.6606 3.34099 29.2053 3.34099 20.0036C3.34099 10.8059 10.8003 3.34125 20.0007 3.34125C29.1997 3.34125 36.6577 10.8046 36.6577 20.0036C36.659 29.2053 29.1997 36.6606 20.0007 36.6606Z" fill="#4038FF"/>
</svg>
