<svg width="325" height="258" viewBox="0 0 325 258" fill="none" xmlns="http://www.w3.org/2000/svg">
<path d="M10.3591 80.6693L10.3711 80.5292L10.3185 80.399L2.82007 61.8478C3.06322 59.1427 3.5477 57.1529 4.27516 55.6274C5.00909 54.0883 6.0018 52.9977 7.29495 52.1174C8.60214 51.2276 10.2243 50.5469 12.231 49.8475C13.1666 49.5215 14.1756 49.1946 15.2684 48.8408C15.345 48.8159 15.4219 48.791 15.4994 48.7658C16.679 48.3836 11.1157 47.9697 12.4791 47.4956L42.075 37.2037L42.2775 37.1332L42.3864 36.9482L52.9947 18.9361C55.4571 14.7549 58.9725 10.366 63.1415 6.97373C67.308 3.58341 72.0881 1.21953 77.0967 1L232.812 4.35683L232.827 4.35696L258.76 4.24672L258.77 4.24668L258.782 4.2462C260.317 4.18051 261.865 4.22442 263.412 4.37772C280.832 6.10461 294.47 21.0379 293.918 37.6692V37.681V37.6929L295.152 206.671C294.652 221.564 282.851 233.105 267.352 233.768L42.8476 243.369C41.7453 243.416 40.0754 243.358 37.8232 243.189C27.9708 234.56 20.5534 227.919 15.5678 223.262C13.0618 220.92 18.0114 219.086 16.7418 217.756C16.1059 217.09 15.6328 216.559 15.3152 216.159C15.1561 215.958 15.0436 215.8 14.9707 215.68C14.9074 215.576 14.8919 215.533 14.8919 215.533C14.576 213.528 14.462 211.479 14.5698 209.406L15.5506 190.548L15.5577 190.411L15.5034 190.285C11.3623 180.688 10.5789 173.571 12.8626 168.785C13.3807 167.7 13.4832 166.217 13.3565 164.528C13.2285 162.82 12.8582 160.816 12.3543 158.628C11.7676 156.082 10.9857 153.234 10.1754 150.282C9.6004 148.187 9.01108 146.041 8.46687 143.912C7.14541 138.743 6.0754 133.631 6.01811 129.365C5.96053 125.076 6.92648 121.833 9.45852 120.144L9.73543 119.959L9.71818 119.627C9.6915 119.111 9.68896 118.354 9.68588 117.431C9.68513 117.207 9.68436 116.975 9.68321 116.733C9.67731 115.506 9.66129 114.079 9.58606 112.65C9.51094 111.224 9.3761 109.78 9.12868 108.518C8.88493 107.275 8.51782 106.13 7.92955 105.366C5.6345 102.386 5.96782 98.2849 7.08239 93.7727C7.46506 92.2235 7.92879 90.6644 8.39045 89.1121C8.59716 88.417 8.80347 87.7234 9.00191 87.0326C9.6376 84.8197 10.1889 82.6474 10.3591 80.6693Z" fill="black" stroke="black" stroke-width="0.825181"/>
<path d="M70.5224 77.7541C73.0695 76.8651 75.1698 75.1559 76.4885 72.8989L88.2399 52.7858C90.1611 49.4974 93.6978 47.4371 97.7208 47.2628C160.03 44.5619 206.762 42.5363 237.916 41.1858C244.337 40.9076 252.992 43.8789 263.882 50.1C264.49 50.0736 277.856 71.9458 277.666 78.5357L276.336 204.932C276.164 210.847 263.952 201.722 257.824 201.987C235.488 212.308 217.479 217.765 203.797 218.357C187.516 219.063 185.024 214.151 161.01 215.192C152.341 215.568 125.513 221.751 115.838 222.17C102.53 222.747 80.424 223.705 49.5198 225.044C48.8387 225.074 48.1522 225.049 47.4669 224.969C40.5962 224.173 35.2814 218.197 35.5959 211.62L36.558 191.503C36.6227 190.15 36.4462 188.78 36.0363 187.451L28.129 161.804C26.9878 158.103 27.6956 154.229 30.0376 151.358C37.3425 142.403 40.9704 135.298 40.9211 130.041C40.8541 122.895 38.3988 116.194 33.555 109.936C31.6197 107.436 30.6804 104.394 30.9242 101.416L31.1718 98.3895C31.5299 94.0155 34.3809 90.3675 38.5893 88.8988L70.5224 77.7541Z" fill="#DAE2EB"/>
<path d="M162.607 57.5749L258.227 46.9065L257.93 46.5643C254.52 42.6314 249.496 40.4776 244.296 40.7195L156.378 44.8098L98.4566 47.4918C93.1873 47.7358 88.4334 50.7296 85.9368 55.3763L76.3033 73.3064C75.2242 75.3147 73.4232 76.8387 71.2639 77.5705L39.4469 88.3532L27.334 153.591L58.5458 224.768L93.3105 223.134V107.524C93.3105 101.629 95.0469 95.8657 98.3028 90.9522L104.914 80.9755C108.936 74.9063 115.027 70.5068 122.053 68.5972L162.607 57.5749Z" fill="white"/>
<path d="M127.402 186.306L89.8883 223.536L61.5383 227.329L118.779 169.259L141.743 194.694L199.078 132.12L205.912 140.246L151.593 200.384C148.383 203.938 142.789 203.894 139.635 200.289L127.402 186.306Z" fill="black"/>
<path d="M209.594 145.119L204.886 141.002L210.075 139.103L280.483 67.7446L294.408 73.0231L221.846 144.745C218.491 148.061 213.145 148.224 209.594 145.119Z" fill="black"/>
<path d="M295.081 36.8348L286.472 44.1191L292.766 75.6503L312.551 55.1658C317.525 50.0155 316.907 41.6809 311.227 37.3153L310.146 36.4841C305.666 33.0408 299.392 33.1868 295.081 36.8348Z" fill="black"/>
<path d="M58.5366 220.955L117.732 166.398L139.256 191.024L198.762 126.487L209.735 137.526L301.15 48.437" stroke="white" stroke-width="12" stroke-linecap="round" stroke-linejoin="round"/>
<path d="M63.1894 213.289C62.6743 212.928 62.1517 212.561 61.6142 212.184C60.8478 211.647 60.0513 211.088 59.2034 210.493L58.5249 210.017L58.5486 210.877C58.5579 211.215 58.5661 211.553 58.5743 211.89C58.6306 214.204 58.686 216.483 59.0863 218.428C59.5478 220.67 60.4829 222.55 62.4733 223.559C63.4773 224.068 66.6959 225.498 68.9686 226.451L48.0945 226.45L46.4998 175.102L57.2269 169.107C57.3594 171.444 57.721 174.734 58.056 177.763L58.0691 177.882C58.433 181.172 58.7572 184.104 58.7368 185.232C58.7368 185.233 58.7368 185.233 58.7368 185.233L59.1451 185.213C59.1232 186.415 59.4718 187.502 60.5221 187.498L63.1894 213.289ZM63.1894 213.289C62.6681 212.745 62.1704 212.168 61.6803 211.6C61.4645 211.35 61.2501 211.101 61.0359 210.858C60.2101 209.92 59.3735 209.045 58.4065 208.36L58.2841 208.273L58.254 208.122L58.1133 207.417L58.0781 207.242L58.1839 207.088C58.2932 206.929 58.3609 206.804 58.3988 206.71C58.4273 206.638 58.4343 206.596 58.4357 206.576C58.4201 206.567 58.3865 206.552 58.3234 206.539L58.03 206.479L58.0205 206.172C57.9836 204.987 57.8736 203.798 57.7529 202.593C57.7362 202.426 57.7193 202.259 57.7024 202.092C57.5972 201.052 57.4907 200 57.4254 198.941C57.2735 196.48 57.3408 193.951 58.1695 191.351L58.5573 191.456L58.1695 191.351C58.3698 190.723 58.6813 190.248 59.1176 190.036C59.583 189.811 60.0395 189.952 60.3738 190.233L60.3738 190.233C61.1285 190.869 61.4909 191.874 61.6755 192.929L63.1894 213.289Z" fill="black" stroke="black" stroke-width="0.825181"/>
<path d="M242.083 123.935C242.266 123.288 242.428 122.599 242.584 121.936L242.605 121.847C242.939 120.424 243.249 119.135 243.653 118.33L243.653 118.33C243.841 117.954 244.39 117.127 245.177 116.032C245.951 114.955 246.921 113.666 247.915 112.394C248.911 111.123 249.926 109.873 250.792 108.873C251.225 108.374 251.617 107.94 251.947 107.599C252.286 107.25 252.533 107.027 252.683 106.922L252.272 105.854C252.08 105.935 251.745 106.021 251.236 106.097C250.736 106.171 250.102 106.229 249.329 106.273C247.783 106.359 245.713 106.378 243.114 106.331L242.932 106.327L242.77 106.444L233.697 112.975L233.656 113.003L233.619 113.039C231.488 115.129 229.832 116.74 228.651 117.872C228.41 118.103 228.191 118.312 227.992 118.5C228.087 118.222 228.192 117.913 228.31 117.574C228.901 115.859 229.777 113.375 230.937 110.122L240.766 103.667L249.564 104.994L249.738 105.019L249.905 104.928C251.132 104.257 251.864 103.865 252.118 103.738C252.572 103.513 252.964 103.264 253.201 102.911C253.484 102.489 253.456 102.071 253.394 101.767C253.359 101.594 253.313 101.432 253.265 101.266C253.143 100.837 253.011 100.375 253.038 99.6083C253.066 98.7833 253.283 98.5098 253.449 98.384C253.683 98.2056 254.05 98.128 254.641 98.0794C254.729 98.0717 254.821 98.0651 254.917 98.0584C255.4 98.0249 255.977 97.9847 256.512 97.8185C257.195 97.6061 257.869 97.1762 258.346 96.2975L258.346 96.2975C258.421 96.1597 258.465 95.9829 258.488 95.8858C258.52 95.7582 258.553 95.6027 258.586 95.4389C258.6 95.3676 258.615 95.2939 258.631 95.2179C258.687 94.9396 258.747 94.6391 258.816 94.3442C258.903 93.9721 258.992 93.6582 259.08 93.4502C260.715 93.6695 261.956 93.4208 262.971 92.8568C263.893 92.3436 264.572 91.5991 265.155 90.8614C265.503 91.5445 265.621 92.0403 265.615 92.3979C265.609 92.7322 265.494 92.9838 265.256 93.2287L242.083 123.935ZM242.083 123.935C242.377 123.701 242.708 123.432 243.068 123.134C244.181 122.211 245.526 121.045 246.841 119.853C248.158 118.659 249.438 117.448 250.425 116.432C250.919 115.924 251.332 115.472 251.637 115.102C251.963 114.706 252.103 114.475 252.134 114.391L252.134 114.391C252.266 114.033 252.306 113.57 252.299 112.998C252.295 112.726 252.281 112.449 252.267 112.159L252.265 112.134C252.251 111.84 252.236 111.535 252.234 111.237C252.23 110.664 252.272 110.012 252.537 109.452C252.833 108.825 253.357 108.414 254.093 108.263C254.093 108.263 254.093 108.263 254.093 108.263L242.083 123.935ZM263.052 96.2422L263.519 96.3534C264.323 96.5437 264.863 96.5916 265.275 96.6272C265.431 96.6414 265.568 96.6536 265.694 96.6707C266.149 96.7344 266.65 96.8764 267.803 97.504L267.803 97.504C268.212 97.7271 268.669 97.6091 269.016 97.4504C269.373 97.288 269.732 97.0301 270.043 96.7813C270.274 96.5983 270.504 96.399 270.704 96.2259C270.774 96.165 270.84 96.1078 270.901 96.0564C271.024 95.9513 271.124 95.8677 271.206 95.8066C271.283 95.7502 271.315 95.7333 271.314 95.7333C271.314 95.7321 271.313 95.7333 271.311 95.7345L271.311 95.7345C272.502 95.2692 273.198 94.557 273.741 93.7654C273.955 93.4523 274.149 93.1222 274.333 92.8085C274.371 92.7437 274.409 92.68 274.446 92.6175C274.664 92.2485 274.881 91.8957 275.142 91.5537C275.15 91.5489 275.163 91.5416 275.182 91.5319C275.242 91.5004 275.335 91.4646 275.47 91.4268C275.739 91.3536 276.109 91.2945 276.567 91.2546C277.478 91.1748 278.657 91.1731 279.907 91.2224C281.154 91.2717 282.453 91.3711 283.6 91.4889C282.134 91.9181 280.449 92.4556 278.894 93.0975C277.511 93.6682 276.185 94.339 275.189 95.1192C274.281 95.8324 273.526 96.7356 273.405 97.8292C272.942 97.8471 272.564 98.088 272.27 98.4132C271.975 98.7408 271.749 99.173 271.574 99.5085C271.566 99.5238 271.558 99.538 271.55 99.5533C271.347 99.9406 271.198 100.213 271.035 100.39C270.912 100.524 270.811 100.575 270.639 100.549L270.502 101.154L270.639 100.549C270.257 100.492 269.891 100.437 269.541 100.384C268.697 100.255 267.946 100.141 267.279 100.062C266.334 99.9489 265.513 99.8999 264.774 99.9842C264.024 100.071 263.349 100.296 262.706 100.734C262.07 101.166 261.499 101.783 260.926 102.596C260.589 103.074 260.156 103.249 259.565 103.489C259.458 103.532 259.345 103.577 259.227 103.626C258.879 103.773 258.467 103.973 258.123 104.331C257.799 104.667 257.578 105.099 257.469 105.645C257.448 105.659 257.423 105.676 257.394 105.696C257.319 105.746 257.234 105.799 257.136 105.861C257.12 105.87 257.104 105.88 257.088 105.891C256.973 105.963 256.845 106.044 256.719 106.13C256.486 106.289 256.183 106.514 255.98 106.799C255.872 106.952 255.765 107.158 255.739 107.406C255.713 107.666 255.784 107.893 255.907 108.074L263.052 96.2422ZM263.052 96.2422L255.967 108.167L263.052 96.2422ZM263.052 96.2422L263.148 95.7069L263.052 96.2422ZM263.052 96.2422L263.148 95.7069L263.052 96.2422ZM255.907 108.074L256.37 107.676L255.907 108.073C255.907 108.073 255.907 108.073 255.907 108.074ZM255.907 108.074C255.929 108.108 255.95 108.139 255.967 108.167L255.907 108.074ZM255.967 108.167C255.991 108.165 256.014 108.162 256.037 108.159C256.154 108.143 256.213 108.123 256.235 108.113C256.237 108.112 256.238 108.112 256.238 108.112C256.238 108.112 256.168 108.148 256.118 108.256C256.074 108.35 256.085 108.414 256.085 108.415C256.085 108.415 256.084 108.411 256.081 108.399C256.07 108.36 256.039 108.284 255.967 108.167ZM263.148 95.7069C263.293 94.8969 263.759 94.3957 264.196 94.043L263.148 95.7069ZM263.148 95.7069L264.196 94.043L263.148 95.7069ZM264.196 94.043C264.356 93.915 264.529 93.7914 264.68 93.6857L264.196 94.043ZM264.196 94.043L264.68 93.6857L264.196 94.043ZM264.68 93.6857C264.725 93.6533 264.768 93.6233 264.807 93.5957L264.68 93.6857ZM264.68 93.6857L264.807 93.5957L264.68 93.6857ZM264.807 93.5957C264.996 93.4601 265.142 93.3465 265.256 93.2299L264.807 93.5957ZM257.433 105.858C257.433 105.857 257.433 105.857 257.433 105.855L257.433 105.859L257.433 105.858Z" fill="#DAE2EB" stroke="#DAE2EB" stroke-width="0.825181"/>
<path d="M242.083 121.989C242.266 121.342 242.428 120.653 242.584 119.991L242.605 119.902C242.939 118.479 243.249 117.189 243.653 116.384L243.653 116.384C243.841 116.009 244.39 115.181 245.177 114.086C245.951 113.009 246.921 111.72 247.915 110.449C248.911 109.177 249.926 107.927 250.792 106.927C251.225 106.428 251.617 105.995 251.947 105.653C252.286 105.304 252.533 105.081 252.683 104.976L252.272 103.908C252.08 103.989 251.745 104.075 251.236 104.151C250.736 104.225 250.102 104.284 249.329 104.327C247.783 104.413 245.713 104.432 243.114 104.385L242.932 104.382L242.77 104.498L233.697 111.029L233.656 111.058L233.619 111.093C231.488 113.183 229.832 114.795 228.651 115.926C228.41 116.157 228.191 116.366 227.992 116.555C228.087 116.277 228.192 115.967 228.31 115.628C228.901 113.913 229.777 111.43 230.937 108.176L240.766 101.721L249.564 103.048L249.738 103.073L249.905 102.982C251.132 102.311 251.864 101.919 252.118 101.792C252.572 101.567 252.964 101.318 253.201 100.965C253.484 100.543 253.456 100.126 253.394 99.8207C253.359 99.648 253.313 99.4859 253.265 99.3204C253.143 98.891 253.011 98.4292 253.038 97.6625C253.066 96.8375 253.283 96.564 253.449 96.4382C253.683 96.2598 254.05 96.1822 254.641 96.1336C254.729 96.1259 254.821 96.1193 254.917 96.1126C255.4 96.0791 255.977 96.0389 256.512 95.8727C257.195 95.6603 257.869 95.2304 258.346 94.3517L258.346 94.3517C258.421 94.2139 258.465 94.0371 258.488 93.94C258.52 93.8124 258.553 93.6569 258.586 93.4931C258.6 93.4218 258.615 93.3481 258.631 93.2721C258.687 92.9938 258.747 92.6933 258.816 92.3984C258.903 92.0263 258.992 91.7124 259.08 91.5044C260.715 91.7237 261.956 91.475 262.971 90.911C263.893 90.3978 264.572 89.6533 265.155 88.9156C265.503 89.5987 265.621 90.0945 265.615 90.4521C265.609 90.7864 265.494 91.038 265.256 91.2829L242.083 121.989ZM242.083 121.989C242.377 121.755 242.708 121.486 243.068 121.188C244.181 120.265 245.526 119.099 246.841 117.907C248.158 116.714 249.438 115.502 250.425 114.486C250.919 113.978 251.332 113.526 251.637 113.156C251.963 112.76 252.103 112.529 252.134 112.445L252.134 112.445C252.266 112.087 252.306 111.624 252.299 111.052C252.295 110.78 252.281 110.503 252.267 110.213L252.265 110.188C252.251 109.895 252.236 109.589 252.234 109.291C252.23 108.718 252.272 108.066 252.537 107.506C252.833 106.879 253.357 106.468 254.093 106.317C254.093 106.317 254.093 106.317 254.093 106.317L242.083 121.989ZM263.052 94.2964L263.519 94.4076C264.323 94.5979 264.863 94.6458 265.275 94.6814C265.431 94.6956 265.568 94.7078 265.694 94.7249C266.149 94.7886 266.65 94.9306 267.803 95.5582L267.803 95.5582C268.212 95.7813 268.669 95.6633 269.016 95.5046C269.373 95.3422 269.732 95.0843 270.043 94.8355C270.274 94.6525 270.504 94.4532 270.704 94.2801C270.774 94.2192 270.84 94.162 270.901 94.1106C271.024 94.0055 271.124 93.9219 271.206 93.8608C271.283 93.8044 271.315 93.7875 271.314 93.7875C271.314 93.7863 271.313 93.7875 271.311 93.7887L271.311 93.7887C272.502 93.3234 273.198 92.6112 273.741 91.8196C273.955 91.5065 274.149 91.1763 274.333 90.8627C274.371 90.7979 274.409 90.7342 274.446 90.6717C274.664 90.3027 274.881 89.9499 275.142 89.6079C275.15 89.6031 275.163 89.5958 275.182 89.5861C275.242 89.5546 275.335 89.5188 275.47 89.481C275.739 89.4078 276.109 89.3487 276.567 89.3088C277.478 89.229 278.657 89.2273 279.907 89.2766C281.154 89.3259 282.453 89.4253 283.6 89.5431C282.134 89.9723 280.449 90.5098 278.894 91.1517C277.511 91.7224 276.185 92.3932 275.189 93.1734C274.281 93.8866 273.526 94.7898 273.405 95.8834C272.942 95.9013 272.564 96.1422 272.27 96.4674C271.975 96.795 271.749 97.2272 271.574 97.5627C271.566 97.578 271.558 97.5922 271.55 97.6075C271.347 97.9948 271.198 98.267 271.035 98.4439C270.912 98.5781 270.811 98.6291 270.639 98.6036L270.502 99.2085L270.639 98.6036C270.257 98.5465 269.891 98.4914 269.541 98.4382C268.697 98.3094 267.946 98.1949 267.279 98.1158C266.334 98.0031 265.513 97.9541 264.774 98.0384C264.024 98.1253 263.349 98.3503 262.706 98.7877C262.07 99.2204 261.499 99.8368 260.926 100.65C260.589 101.129 260.156 101.303 259.565 101.543C259.458 101.586 259.345 101.631 259.227 101.68C258.879 101.827 258.467 102.027 258.123 102.385C257.799 102.721 257.578 103.153 257.469 103.699C257.448 103.714 257.423 103.73 257.394 103.75C257.319 103.8 257.234 103.853 257.136 103.915C257.12 103.924 257.104 103.934 257.088 103.945C256.973 104.017 256.845 104.098 256.719 104.184C256.486 104.343 256.183 104.568 255.98 104.853C255.872 105.006 255.765 105.212 255.739 105.46C255.713 105.721 255.784 105.947 255.907 106.129L263.052 94.2964ZM263.052 94.2964L255.967 106.222L263.052 94.2964ZM263.052 94.2964L263.148 93.7611L263.052 94.2964ZM263.052 94.2964L263.148 93.7611L263.052 94.2964ZM255.907 106.129L256.37 105.73L255.907 106.127C255.907 106.127 255.907 106.127 255.907 106.129ZM255.907 106.129C255.929 106.162 255.95 106.193 255.967 106.222L255.907 106.129ZM255.967 106.222C255.991 106.219 256.014 106.216 256.037 106.213C256.154 106.197 256.213 106.177 256.235 106.167C256.237 106.166 256.238 106.166 256.238 106.166C256.238 106.166 256.168 106.202 256.118 106.31C256.074 106.404 256.085 106.468 256.085 106.469C256.085 106.469 256.084 106.465 256.081 106.453C256.07 106.414 256.039 106.338 255.967 106.222ZM263.148 93.7611C263.293 92.9511 263.759 92.4499 264.196 92.0972L263.148 93.7611ZM263.148 93.7611L264.196 92.0972L263.148 93.7611ZM264.196 92.0972C264.356 91.9692 264.529 91.8456 264.68 91.7399L264.196 92.0972ZM264.196 92.0972L264.68 91.7399L264.196 92.0972ZM264.68 91.7399C264.725 91.7075 264.768 91.6775 264.807 91.6499L264.68 91.7399ZM264.68 91.7399L264.807 91.6499L264.68 91.7399ZM264.807 91.6499C264.996 91.5143 265.142 91.4007 265.256 91.2841L264.807 91.6499ZM257.433 103.912C257.433 103.911 257.433 103.911 257.433 103.91L257.433 103.913L257.433 103.912Z" fill="black" stroke="black" stroke-width="0.825181"/>
<path d="M31.9728 204.046L37.8062 190.527L34.0843 160.544C33.3232 158.077 37.8062 149.554 37.8062 149.554L44.4105 129.741C37.8363 118.203 32.9354 110.349 29.7076 106.177C27.7731 103.677 26.8335 100.636 27.0757 97.6574L27.3216 94.6315C27.6774 90.2578 30.5238 86.61 34.7272 85.1413L66.6226 73.9972C69.1667 73.1082 71.2641 71.3992 72.5805 69.1423L84.3107 49.0304C86.2285 45.7423 89.7607 43.6821 93.7794 43.5076C133.027 41.0814 167.156 38.2619 196.165 35.049C225.176 31.836 247.462 28.2226 263.026 24.2085C261.407 20.9578 256.056 19.5296 246.971 19.9238C246.355 19.9504 245.749 19.8465 245.142 19.8728L84.467 26.8453C80.4482 27.0197 76.9161 29.0798 74.9983 32.368L63.268 52.4799C61.9517 54.7367 59.8544 56.4458 57.3101 57.3348L25.4147 68.4789C21.2114 69.9476 18.3649 73.5954 18.0093 77.9691L17.7633 80.9951C17.5211 83.9733 18.4607 87.0149 20.3953 89.515C25.2369 95.7721 27.6928 102.473 27.763 109.619C27.8145 114.875 25.4336 122.894 18.1402 131.848C19.3803 135.667 16.9986 138.151 18.1402 141.852L22.9092 167.025C23.3192 168.354 23.496 169.724 23.432 171.077L22.4802 191.192C22.2059 196.988 26.299 202.317 31.9728 204.046Z" fill="#DAE2EB"/>
<path fill-rule="evenodd" clip-rule="evenodd" d="M41.7036 77.4888C39.8807 77.4888 38.4029 78.9666 38.4029 80.7895V92.1333H31.7189C29.896 92.1333 28.4182 93.6111 28.4182 95.434V222.942C28.4182 224.765 29.896 226.243 31.7189 226.243H38.4029V248.377C38.4029 250.2 39.8807 251.677 41.7036 251.677H44.3195C46.1424 251.677 47.6202 250.2 47.6202 248.377V226.243H54.3041C56.127 226.243 57.6048 224.765 57.6048 222.942V95.434C57.6048 93.6111 56.127 92.1333 54.3041 92.1333H47.6202V80.7895C47.6202 78.9666 46.1424 77.4888 44.3195 77.4888H41.7036Z" fill="black"/>
<mask id="path-13-outside-1_838_45950" maskUnits="userSpaceOnUse" x="16.5061" y="71.7188" width="39" height="184" fill="black">
<rect fill="white" x="16.5061" y="71.7188" width="39" height="184"/>
<path fill-rule="evenodd" clip-rule="evenodd" d="M34.7911 76.7188C32.9682 76.7188 31.4904 78.1965 31.4904 80.0195V91.3628H24.8068C22.9839 91.3628 21.5061 92.8406 21.5061 94.6635V222.172C21.5061 223.995 22.9839 225.473 24.8068 225.473H31.4904V247.607C31.4904 249.43 32.9682 250.907 34.7911 250.907H37.407C39.2299 250.907 40.7077 249.43 40.7077 247.607V225.473H47.392C49.2149 225.473 50.6927 223.995 50.6927 222.172V94.6635C50.6927 92.8406 49.2149 91.3628 47.392 91.3628H40.7077V80.0195C40.7077 78.1965 39.2299 76.7188 37.407 76.7188H34.7911Z"/>
</mask>
<path fill-rule="evenodd" clip-rule="evenodd" d="M34.7911 76.7188C32.9682 76.7188 31.4904 78.1965 31.4904 80.0195V91.3628H24.8068C22.9839 91.3628 21.5061 92.8406 21.5061 94.6635V222.172C21.5061 223.995 22.9839 225.473 24.8068 225.473H31.4904V247.607C31.4904 249.43 32.9682 250.907 34.7911 250.907H37.407C39.2299 250.907 40.7077 249.43 40.7077 247.607V225.473H47.392C49.2149 225.473 50.6927 223.995 50.6927 222.172V94.6635C50.6927 92.8406 49.2149 91.3628 47.392 91.3628H40.7077V80.0195C40.7077 78.1965 39.2299 76.7188 37.407 76.7188H34.7911Z" fill="#DAE2EB"/>
<path d="M31.4904 91.3628V95.4887H35.6163V91.3628H31.4904ZM31.4904 225.473H35.6163V221.347H31.4904V225.473ZM40.7077 225.473V221.347H36.5818V225.473H40.7077ZM40.7077 91.3628H36.5818V95.4887H40.7077V91.3628ZM35.6163 80.0195C35.6163 80.4752 35.2469 80.8447 34.7911 80.8447V72.5928C30.6895 72.5928 27.3645 75.9179 27.3645 80.0195H35.6163ZM35.6163 91.3628V80.0195H27.3645V91.3628H35.6163ZM24.8068 95.4887H31.4904V87.2369H24.8068V95.4887ZM25.632 94.6635C25.632 95.1192 25.2626 95.4887 24.8068 95.4887V87.2369C20.7052 87.2369 17.3802 90.5619 17.3802 94.6635H25.632ZM25.632 222.172V94.6635H17.3802V222.172H25.632ZM24.8068 221.347C25.2626 221.347 25.632 221.716 25.632 222.172H17.3802C17.3802 226.273 20.7052 229.598 24.8068 229.598V221.347ZM31.4904 221.347H24.8068V229.598H31.4904V221.347ZM35.6163 247.607V225.473H27.3645V247.607H35.6163ZM34.7911 246.781C35.2469 246.781 35.6163 247.151 35.6163 247.607H27.3645C27.3645 251.708 30.6895 255.033 34.7911 255.033V246.781ZM37.407 246.781H34.7911V255.033H37.407V246.781ZM36.5818 247.607C36.5818 247.151 36.9513 246.781 37.407 246.781V255.033C41.5086 255.033 44.8336 251.708 44.8336 247.607H36.5818ZM36.5818 225.473V247.607H44.8336V225.473H36.5818ZM47.392 221.347H40.7077V229.598H47.392V221.347ZM46.5668 222.172C46.5668 221.716 46.9363 221.347 47.392 221.347V229.598C51.4936 229.598 54.8186 226.273 54.8186 222.172H46.5668ZM46.5668 94.6635V222.172H54.8186V94.6635H46.5668ZM47.392 95.4887C46.9363 95.4887 46.5668 95.1192 46.5668 94.6635H54.8186C54.8186 90.5619 51.4936 87.2369 47.392 87.2369V95.4887ZM40.7077 95.4887H47.392V87.2369H40.7077V95.4887ZM36.5818 80.0195V91.3628H44.8336V80.0195H36.5818ZM37.407 80.8447C36.9513 80.8447 36.5818 80.4752 36.5818 80.0195H44.8336C44.8336 75.9179 41.5086 72.5928 37.407 72.5928V80.8447ZM34.7911 80.8447H37.407V72.5928H34.7911V80.8447Z" fill="black" mask="url(#path-13-outside-1_838_45950)"/>
<path d="M23.9031 240.98H27.3515L27.9987 231.221L17.9759 223.637L14.4953 144.514V69.3353L45.8322 35.6528L9.75912 47.1021C4.51391 48.7668 1.07329 53.786 1.41211 59.2786L11.9259 229.719C12.3162 236.048 17.5626 240.98 23.9031 240.98Z" fill="black"/>
<path fill-rule="evenodd" clip-rule="evenodd" d="M90.86 109.86C89.0371 109.86 87.5593 111.338 87.5593 113.161V118.339H80.8752C79.0522 118.339 77.5745 119.816 77.5745 121.639V192.113C77.5745 193.935 79.0523 195.413 80.8752 195.413H87.5593V206.756C87.5593 208.579 89.0371 210.057 90.86 210.057H93.4759C95.2988 210.057 96.7766 208.579 96.7766 206.756V195.413H103.46C105.283 195.413 106.761 193.935 106.761 192.113V121.639C106.761 119.816 105.283 118.339 103.46 118.339H96.7766V113.161C96.7766 111.338 95.2988 109.86 93.4759 109.86H90.86Z" fill="black"/>
<mask id="path-17-outside-2_838_45950" maskUnits="userSpaceOnUse" x="65.6621" y="104.089" width="39" height="110" fill="black">
<rect fill="white" x="65.6621" y="104.089" width="39" height="110"/>
<path fill-rule="evenodd" clip-rule="evenodd" d="M83.9473 109.089C82.1244 109.089 80.6466 110.567 80.6466 112.39V117.568H73.9628C72.1399 117.568 70.6621 119.046 70.6621 120.869V191.342C70.6621 193.165 72.1399 194.642 73.9628 194.642H80.6466V205.986C80.6466 207.809 82.1244 209.286 83.9473 209.286H86.5632C88.3861 209.286 89.8639 207.809 89.8639 205.986V194.642H96.548C98.3709 194.642 99.8487 193.165 99.8487 191.342V120.869C99.8487 119.046 98.3709 117.568 96.548 117.568H89.8639V112.39C89.8639 110.567 88.3861 109.089 86.5632 109.089H83.9473Z"/>
</mask>
<path fill-rule="evenodd" clip-rule="evenodd" d="M83.9473 109.089C82.1244 109.089 80.6466 110.567 80.6466 112.39V117.568H73.9628C72.1399 117.568 70.6621 119.046 70.6621 120.869V191.342C70.6621 193.165 72.1399 194.642 73.9628 194.642H80.6466V205.986C80.6466 207.809 82.1244 209.286 83.9473 209.286H86.5632C88.3861 209.286 89.8639 207.809 89.8639 205.986V194.642H96.548C98.3709 194.642 99.8487 193.165 99.8487 191.342V120.869C99.8487 119.046 98.3709 117.568 96.548 117.568H89.8639V112.39C89.8639 110.567 88.3861 109.089 86.5632 109.089H83.9473Z" fill="#DAE2EB"/>
<path d="M80.6466 117.568V121.694H84.7725V117.568H80.6466ZM80.6466 194.642H84.7725V190.517H80.6466V194.642ZM89.8639 194.642V190.517H85.738V194.642H89.8639ZM89.8639 117.568H85.738V121.694H89.8639V117.568ZM84.7725 112.39C84.7725 112.846 84.403 113.215 83.9473 113.215V104.963C79.8457 104.963 76.5207 108.288 76.5207 112.39H84.7725ZM84.7725 117.568V112.39H76.5207V117.568H84.7725ZM73.9628 121.694H80.6466V113.442H73.9628V121.694ZM74.788 120.869C74.788 121.324 74.4186 121.694 73.9628 121.694V113.442C69.8612 113.442 66.5362 116.767 66.5362 120.869H74.788ZM74.788 191.342V120.869H66.5362V191.342H74.788ZM73.9628 190.517C74.4186 190.517 74.788 190.886 74.788 191.342H66.5362C66.5362 195.443 69.8612 198.768 73.9628 198.768V190.517ZM80.6466 190.517H73.9628V198.768H80.6466V190.517ZM84.7725 205.986V194.642H76.5207V205.986H84.7725ZM83.9473 205.16C84.403 205.16 84.7725 205.53 84.7725 205.986H76.5207C76.5207 210.087 79.8457 213.412 83.9473 213.412V205.16ZM86.5632 205.16H83.9473V213.412H86.5632V205.16ZM85.738 205.986C85.738 205.53 86.1074 205.16 86.5632 205.16V213.412C90.6648 213.412 93.9898 210.087 93.9898 205.986H85.738ZM85.738 194.642V205.986H93.9898V194.642H85.738ZM96.548 190.517H89.8639V198.768H96.548V190.517ZM95.7228 191.342C95.7228 190.886 96.0923 190.517 96.548 190.517V198.768C100.65 198.768 103.975 195.443 103.975 191.342H95.7228ZM95.7228 120.869V191.342H103.975V120.869H95.7228ZM96.548 121.694C96.0923 121.694 95.7228 121.324 95.7228 120.869H103.975C103.975 116.767 100.65 113.442 96.548 113.442V121.694ZM89.8639 121.694H96.548V113.442H89.8639V121.694ZM85.738 112.39V117.568H93.9898V112.39H85.738ZM86.5632 113.215C86.1074 113.215 85.738 112.846 85.738 112.39H93.9898C93.9898 108.288 90.6648 104.963 86.5632 104.963V113.215ZM83.9473 113.215H86.5632V104.963H83.9473V113.215Z" fill="black" mask="url(#path-17-outside-2_838_45950)"/>
<path fill-rule="evenodd" clip-rule="evenodd" d="M287.486 97.5269C285.663 97.5269 284.185 99.0046 284.185 100.828V106.005H277.502C275.679 106.005 274.202 107.483 274.202 109.306V179.779C274.202 181.602 275.679 183.08 277.502 183.08H284.185V194.423C284.185 196.246 285.663 197.724 287.486 197.724H290.102C291.925 197.724 293.403 196.246 293.403 194.423V183.08H300.088C301.91 183.08 303.388 181.602 303.388 179.779V109.306C303.388 107.483 301.91 106.005 300.088 106.005H293.403V100.828C293.403 99.0046 291.925 97.5269 290.102 97.5269H287.486Z" fill="black"/>
<mask id="path-20-outside-3_838_45950" maskUnits="userSpaceOnUse" x="262.288" y="91.7568" width="39" height="110" fill="black">
<rect fill="white" x="262.288" y="91.7568" width="39" height="110"/>
<path fill-rule="evenodd" clip-rule="evenodd" d="M280.573 96.7568C278.75 96.7568 277.272 98.2346 277.272 100.058V105.235H270.588C268.765 105.235 267.288 106.713 267.288 108.536V179.009C267.288 180.832 268.765 182.31 270.588 182.31H277.272V193.653C277.272 195.476 278.75 196.954 280.573 196.954H283.189C285.012 196.954 286.49 195.476 286.49 193.653V182.31H293.173C294.996 182.31 296.474 180.832 296.474 179.009V108.536C296.474 106.713 294.996 105.235 293.173 105.235H286.49V100.058C286.49 98.2346 285.012 96.7568 283.189 96.7568H280.573Z"/>
</mask>
<path fill-rule="evenodd" clip-rule="evenodd" d="M280.573 96.7568C278.75 96.7568 277.272 98.2346 277.272 100.058V105.235H270.588C268.765 105.235 267.288 106.713 267.288 108.536V179.009C267.288 180.832 268.765 182.31 270.588 182.31H277.272V193.653C277.272 195.476 278.75 196.954 280.573 196.954H283.189C285.012 196.954 286.49 195.476 286.49 193.653V182.31H293.173C294.996 182.31 296.474 180.832 296.474 179.009V108.536C296.474 106.713 294.996 105.235 293.173 105.235H286.49V100.058C286.49 98.2346 285.012 96.7568 283.189 96.7568H280.573Z" fill="#DAE2EB"/>
<path d="M277.272 105.235V109.361H281.398V105.235H277.272ZM277.272 182.31H281.398V178.184H277.272V182.31ZM286.49 182.31V178.184H282.364V182.31H286.49ZM286.49 105.235H282.364V109.361H286.49V105.235ZM281.398 100.058C281.398 100.513 281.029 100.883 280.573 100.883V92.6309C276.471 92.6309 273.146 95.9559 273.146 100.058H281.398ZM281.398 105.235V100.058H273.146V105.235H281.398ZM270.588 109.361H277.272V101.109H270.588V109.361ZM271.414 108.536C271.414 108.992 271.044 109.361 270.588 109.361V101.109C266.487 101.109 263.162 104.434 263.162 108.536H271.414ZM271.414 179.009V108.536H263.162V179.009H271.414ZM270.588 178.184C271.044 178.184 271.414 178.553 271.414 179.009H263.162C263.162 183.111 266.487 186.436 270.588 186.436V178.184ZM277.272 178.184H270.588V186.436H277.272V178.184ZM281.398 193.653V182.31H273.146V193.653H281.398ZM280.573 192.828C281.029 192.828 281.398 193.197 281.398 193.653H273.146C273.146 197.755 276.471 201.08 280.573 201.08V192.828ZM283.189 192.828H280.573V201.08H283.189V192.828ZM282.364 193.653C282.364 193.197 282.733 192.828 283.189 192.828V201.08C287.29 201.08 290.615 197.755 290.615 193.653H282.364ZM282.364 182.31V193.653H290.615V182.31H282.364ZM293.173 178.184H286.49V186.436H293.173V178.184ZM292.348 179.009C292.348 178.553 292.718 178.184 293.173 178.184V186.436C297.275 186.436 300.6 183.111 300.6 179.009H292.348ZM292.348 108.536V179.009H300.6V108.536H292.348ZM293.173 109.361C292.718 109.361 292.348 108.992 292.348 108.536H300.6C300.6 104.434 297.275 101.109 293.173 101.109V109.361ZM286.49 109.361H293.173V101.109H286.49V109.361ZM282.364 100.058V105.235H290.615V100.058H282.364ZM283.189 100.883C282.733 100.883 282.364 100.513 282.364 100.058H290.615C290.615 95.9559 287.29 92.6309 283.189 92.6309V100.883ZM280.573 100.883H283.189V92.6309H280.573V100.883Z" fill="black" mask="url(#path-20-outside-3_838_45950)"/>
<path fill-rule="evenodd" clip-rule="evenodd" d="M146.162 70.5513C144.339 70.5513 142.861 72.0291 142.861 73.852V79.0297H136.177C134.354 79.0297 132.876 80.5074 132.876 82.3304V152.804C132.876 154.626 134.354 156.104 136.177 156.104H142.861V167.448C142.861 169.27 144.339 170.748 146.162 170.748H148.778C150.601 170.748 152.078 169.27 152.078 167.448V156.104H158.762C160.585 156.104 162.063 154.626 162.063 152.804V82.3304C162.063 80.5074 160.585 79.0297 158.762 79.0297H152.078V73.852C152.078 72.0291 150.601 70.5513 148.778 70.5513H146.162Z" fill="black"/>
<mask id="path-23-outside-4_838_45950" maskUnits="userSpaceOnUse" x="120.963" y="64.7808" width="39" height="110" fill="black">
<rect fill="white" x="120.963" y="64.7808" width="39" height="110"/>
<path fill-rule="evenodd" clip-rule="evenodd" d="M139.248 69.7808C137.425 69.7808 135.947 71.2585 135.947 73.0815V78.2594H129.264C127.441 78.2594 125.963 79.7372 125.963 81.5601V152.033C125.963 153.856 127.441 155.334 129.264 155.334H135.947V166.677C135.947 168.5 137.425 169.978 139.248 169.978H141.864C143.687 169.978 145.165 168.5 145.165 166.677V155.334H151.849C153.672 155.334 155.15 153.856 155.15 152.033V81.5601C155.15 79.7372 153.672 78.2594 151.849 78.2594H145.165V73.0815C145.165 71.2585 143.687 69.7808 141.864 69.7808H139.248Z"/>
</mask>
<path fill-rule="evenodd" clip-rule="evenodd" d="M139.248 69.7808C137.425 69.7808 135.947 71.2585 135.947 73.0815V78.2594H129.264C127.441 78.2594 125.963 79.7372 125.963 81.5601V152.033C125.963 153.856 127.441 155.334 129.264 155.334H135.947V166.677C135.947 168.5 137.425 169.978 139.248 169.978H141.864C143.687 169.978 145.165 168.5 145.165 166.677V155.334H151.849C153.672 155.334 155.15 153.856 155.15 152.033V81.5601C155.15 79.7372 153.672 78.2594 151.849 78.2594H145.165V73.0815C145.165 71.2585 143.687 69.7808 141.864 69.7808H139.248Z" fill="white"/>
<path d="M135.947 78.2594V82.3853H140.073V78.2594H135.947ZM135.947 155.334H140.073V151.208H135.947V155.334ZM145.165 155.334V151.208H141.039V155.334H145.165ZM145.165 78.2594H141.039V82.3853H145.165V78.2594ZM140.073 73.0815C140.073 73.5372 139.704 73.9067 139.248 73.9067V65.6549C135.146 65.6549 131.821 68.9799 131.821 73.0815H140.073ZM140.073 78.2594V73.0815H131.821V78.2594H140.073ZM129.264 82.3853H135.947V74.1335H129.264V82.3853ZM130.089 81.5601C130.089 82.0158 129.719 82.3853 129.264 82.3853V74.1335C125.162 74.1335 121.837 77.4585 121.837 81.5601H130.089ZM130.089 152.033V81.5601H121.837V152.033H130.089ZM129.264 151.208C129.719 151.208 130.089 151.578 130.089 152.033H121.837C121.837 156.135 125.162 159.46 129.264 159.46V151.208ZM135.947 151.208H129.264V159.46H135.947V151.208ZM140.073 166.677V155.334H131.821V166.677H140.073ZM139.248 165.852C139.704 165.852 140.073 166.221 140.073 166.677H131.821C131.821 170.779 135.146 174.104 139.248 174.104V165.852ZM141.864 165.852H139.248V174.104H141.864V165.852ZM141.039 166.677C141.039 166.221 141.408 165.852 141.864 165.852V174.104C145.965 174.104 149.29 170.779 149.29 166.677H141.039ZM141.039 155.334V166.677H149.29V155.334H141.039ZM151.849 151.208H145.165V159.46H151.849V151.208ZM151.024 152.033C151.024 151.578 151.393 151.208 151.849 151.208V159.46C155.95 159.46 159.275 156.135 159.275 152.033H151.024ZM151.024 81.5601V152.033H159.275V81.5601H151.024ZM151.849 82.3853C151.393 82.3853 151.024 82.0158 151.024 81.5601H159.275C159.275 77.4585 155.95 74.1335 151.849 74.1335V82.3853ZM145.165 82.3853H151.849V74.1335H145.165V82.3853ZM141.039 73.0815V78.2594H149.29V73.0815H141.039ZM141.864 73.9067C141.408 73.9067 141.039 73.5372 141.039 73.0815H149.29C149.29 68.9799 145.965 65.6549 141.864 65.6549V73.9067ZM139.248 73.9067H141.864V65.6549H139.248V73.9067Z" fill="black" mask="url(#path-23-outside-4_838_45950)"/>
<path fill-rule="evenodd" clip-rule="evenodd" d="M189.171 17.3701C187.348 17.3701 185.871 18.8479 185.871 20.6708V25.848H179.187C177.365 25.848 175.887 27.3257 175.887 29.1487V69.5627C175.887 71.3857 177.365 72.8634 179.187 72.8634H185.871V114.266C185.871 116.089 187.348 117.567 189.171 117.567H191.787C193.61 117.567 195.088 116.089 195.088 114.266V72.8634H201.773C203.596 72.8634 205.073 71.3857 205.073 69.5627V29.1487C205.073 27.3257 203.596 25.848 201.773 25.848H195.088V20.6708C195.088 18.8479 193.61 17.3701 191.787 17.3701H189.171Z" fill="black"/>
<mask id="path-26-outside-5_838_45950" maskUnits="userSpaceOnUse" x="163.973" y="11.5996" width="39" height="110" fill="black">
<rect fill="white" x="163.973" y="11.5996" width="39" height="110"/>
<path fill-rule="evenodd" clip-rule="evenodd" d="M182.259 16.5996C180.436 16.5996 178.958 18.0774 178.958 19.9003V25.0777H172.274C170.451 25.0777 168.973 26.5555 168.973 28.3784V68.7924C168.973 70.6154 170.451 72.0932 172.274 72.0932H178.958V113.496C178.958 115.319 180.436 116.797 182.259 116.797H184.875C186.698 116.797 188.175 115.319 188.175 113.496V72.0932H194.859C196.682 72.0932 198.16 70.6154 198.16 68.7924V28.3784C198.16 26.5555 196.682 25.0777 194.859 25.0777H188.175V19.9003C188.175 18.0774 186.698 16.5996 184.875 16.5996H182.259Z"/>
</mask>
<path fill-rule="evenodd" clip-rule="evenodd" d="M182.259 16.5996C180.436 16.5996 178.958 18.0774 178.958 19.9003V25.0777H172.274C170.451 25.0777 168.973 26.5555 168.973 28.3784V68.7924C168.973 70.6154 170.451 72.0932 172.274 72.0932H178.958V113.496C178.958 115.319 180.436 116.797 182.259 116.797H184.875C186.698 116.797 188.175 115.319 188.175 113.496V72.0932H194.859C196.682 72.0932 198.16 70.6154 198.16 68.7924V28.3784C198.16 26.5555 196.682 25.0777 194.859 25.0777H188.175V19.9003C188.175 18.0774 186.698 16.5996 184.875 16.5996H182.259Z" fill="white"/>
<path d="M178.958 25.0777V29.2036H183.084V25.0777H178.958ZM178.958 72.0932H183.084V67.9673H178.958V72.0932ZM188.175 72.0932V67.9673H184.05V72.0932H188.175ZM188.175 25.0777H184.05V29.2036H188.175V25.0777ZM183.084 19.9003C183.084 20.3561 182.715 20.7255 182.259 20.7255V12.4737C178.157 12.4737 174.832 15.7987 174.832 19.9003H183.084ZM183.084 25.0777V19.9003H174.832V25.0777H183.084ZM172.274 29.2036H178.958V20.9518H172.274V29.2036ZM173.099 28.3784C173.099 28.8341 172.73 29.2036 172.274 29.2036V20.9518C168.172 20.9518 164.847 24.2768 164.847 28.3784H173.099ZM173.099 68.7924V28.3784H164.847V68.7924H173.099ZM172.274 67.9673C172.73 67.9673 173.099 68.3367 173.099 68.7924H164.847C164.847 72.8941 168.172 76.2191 172.274 76.2191V67.9673ZM178.958 67.9673H172.274V76.2191H178.958V67.9673ZM183.084 113.496V72.0932H174.832V113.496H183.084ZM182.259 112.671C182.715 112.671 183.084 113.04 183.084 113.496H174.832C174.832 117.597 178.157 120.922 182.259 120.922V112.671ZM184.875 112.671H182.259V120.922H184.875V112.671ZM184.05 113.496C184.05 113.04 184.419 112.671 184.875 112.671V120.922C188.976 120.922 192.301 117.597 192.301 113.496H184.05ZM184.05 72.0932V113.496H192.301V72.0932H184.05ZM194.859 67.9673H188.175V76.2191H194.859V67.9673ZM194.034 68.7924C194.034 68.3367 194.403 67.9673 194.859 67.9673V76.2191C198.961 76.2191 202.286 72.8941 202.286 68.7924H194.034ZM194.034 28.3784V68.7924H202.286V28.3784H194.034ZM194.859 29.2036C194.403 29.2036 194.034 28.8341 194.034 28.3784H202.286C202.286 24.2768 198.961 20.9518 194.859 20.9518V29.2036ZM188.175 29.2036H194.859V20.9518H188.175V29.2036ZM184.05 19.9003V25.0777H192.301V19.9003H184.05ZM184.875 20.7255C184.419 20.7255 184.05 20.3561 184.05 19.9003H192.301C192.301 15.7987 188.976 12.4737 184.875 12.4737V20.7255ZM182.259 20.7255H184.875V12.4737H182.259V20.7255Z" fill="black" mask="url(#path-26-outside-5_838_45950)"/>
<path fill-rule="evenodd" clip-rule="evenodd" d="M236.025 79.0298C234.202 79.0298 232.724 80.5076 232.724 82.3305V87.5079H226.04C224.218 87.5079 222.74 88.9857 222.74 90.8087V131.223C222.74 133.046 224.218 134.523 226.04 134.523H232.724V146.638C232.724 148.461 234.202 149.938 236.025 149.938H238.641C240.464 149.938 241.942 148.461 241.942 146.638V134.523H248.626C250.449 134.523 251.926 133.046 251.926 131.223V90.8087C251.926 88.9857 250.449 87.5079 248.626 87.5079H241.942V82.3305C241.942 80.5076 240.464 79.0298 238.641 79.0298H236.025Z" fill="black"/>
<mask id="path-29-outside-6_838_45950" maskUnits="userSpaceOnUse" x="210.826" y="73.2593" width="39" height="81" fill="black">
<rect fill="white" x="210.826" y="73.2593" width="39" height="81"/>
<path fill-rule="evenodd" clip-rule="evenodd" d="M229.111 78.2593C227.289 78.2593 225.811 79.7371 225.811 81.56V86.7372H219.127C217.304 86.7372 215.826 88.2149 215.826 90.0379V130.452C215.826 132.275 217.304 133.753 219.127 133.753H225.811V145.867C225.811 147.69 227.289 149.168 229.111 149.168H231.727C233.55 149.168 235.028 147.69 235.028 145.867V133.753H241.712C243.535 133.753 245.013 132.275 245.013 130.452V90.0379C245.013 88.2149 243.535 86.7372 241.712 86.7372H235.028V81.56C235.028 79.7371 233.55 78.2593 231.727 78.2593H229.111Z"/>
</mask>
<path fill-rule="evenodd" clip-rule="evenodd" d="M229.111 78.2593C227.289 78.2593 225.811 79.7371 225.811 81.56V86.7372H219.127C217.304 86.7372 215.826 88.2149 215.826 90.0379V130.452C215.826 132.275 217.304 133.753 219.127 133.753H225.811V145.867C225.811 147.69 227.289 149.168 229.111 149.168H231.727C233.55 149.168 235.028 147.69 235.028 145.867V133.753H241.712C243.535 133.753 245.013 132.275 245.013 130.452V90.0379C245.013 88.2149 243.535 86.7372 241.712 86.7372H235.028V81.56C235.028 79.7371 233.55 78.2593 231.727 78.2593H229.111Z" fill="#DAE2EB"/>
<path d="M225.811 86.7372V90.8631H229.937V86.7372H225.811ZM225.811 133.753H229.937V129.627H225.811V133.753ZM235.028 133.753V129.627H230.902V133.753H235.028ZM235.028 86.7372H230.902V90.8631H235.028V86.7372ZM229.937 81.56C229.937 82.0157 229.567 82.3852 229.111 82.3852V74.1334C225.01 74.1334 221.685 77.4584 221.685 81.56H229.937ZM229.937 86.7372V81.56H221.685V86.7372H229.937ZM219.127 90.8631H225.811V82.6113H219.127V90.8631ZM219.952 90.0379C219.952 90.4936 219.583 90.8631 219.127 90.8631V82.6113C215.026 82.6113 211.701 85.9363 211.701 90.0379H219.952ZM219.952 130.452V90.0379H211.701V130.452H219.952ZM219.127 129.627C219.583 129.627 219.952 129.996 219.952 130.452H211.701C211.701 134.554 215.026 137.879 219.127 137.879V129.627ZM225.811 129.627H219.127V137.879H225.811V129.627ZM229.937 145.867V133.753H221.685V145.867H229.937ZM229.111 145.042C229.567 145.042 229.937 145.411 229.937 145.867H221.685C221.685 149.969 225.01 153.294 229.111 153.294V145.042ZM231.727 145.042H229.111V153.294H231.727V145.042ZM230.902 145.867C230.902 145.411 231.272 145.042 231.727 145.042V153.294C235.829 153.294 239.154 149.969 239.154 145.867H230.902ZM230.902 133.753V145.867H239.154V133.753H230.902ZM241.712 129.627H235.028V137.879H241.712V129.627ZM240.887 130.452C240.887 129.996 241.257 129.627 241.712 129.627V137.879C245.814 137.879 249.139 134.554 249.139 130.452H240.887ZM240.887 90.0379V130.452H249.139V90.0379H240.887ZM241.712 90.8631C241.257 90.8631 240.887 90.4936 240.887 90.0379H249.139C249.139 85.9363 245.814 82.6113 241.712 82.6113V90.8631ZM235.028 90.8631H241.712V82.6113H235.028V90.8631ZM230.902 81.56V86.7372H239.154V81.56H230.902ZM231.727 82.3852C231.272 82.3852 230.902 82.0157 230.902 81.56H239.154C239.154 77.4584 235.829 74.1334 231.727 74.1334V82.3852ZM229.111 82.3852H231.727V74.1334H229.111V82.3852Z" fill="black" mask="url(#path-29-outside-6_838_45950)"/>
<path d="M26.4983 249.495V232.794L28.4186 231.638L29.1867 247.824L33.0272 252.834L41.8605 250.521L45.701 235.492V250.521L45.2933 252.076C44.4342 255.352 41.2357 257.446 37.8897 256.924L32.0817 256.017C28.8678 255.516 26.4983 252.748 26.4983 249.495Z" fill="black"/>
<path d="M296.637 101.137L294.58 100.737C294.051 100.635 293.505 100.797 293.118 101.173C292.194 102.07 292.612 103.634 293.861 103.951L295.668 104.409C296.77 104.688 297.578 105.631 297.684 106.763L298.161 111.823L297.031 181.184C297.023 181.688 296.891 182.183 296.649 182.625L295.387 184.926C294.621 186.321 295.833 187.975 297.394 187.666C298.247 187.497 298.872 186.764 298.903 185.894L301.642 109.104C301.667 108.389 301.598 107.674 301.437 106.977L301.075 105.416C300.57 103.239 298.831 101.562 296.637 101.137Z" fill="black"/>
<path d="M90.1143 223.321L100.532 213.026L179.343 201.964L276.503 200.037V208.648C276.503 213.09 272.987 216.735 268.548 216.895L90.1143 223.321Z" fill="#DAE2EB"/>
<path d="M298.378 188.237L294.553 188.477L290.713 185.779L300.698 181.925V185.766C300.698 187.073 299.682 188.155 298.378 188.237Z" fill="black"/>
<path d="M97.6182 163.417L101.224 155.42L102.838 152.224L106.146 146.102L108.915 144.439L113.207 138.529L110.595 143.766L102.717 155.664L99.4138 165.732L94.453 176.331L90.3408 180.137L91.5689 177.857L94.5669 173.261L94.1962 171.881L94.5526 169.944L96.8503 166.4L95.7934 164.252L97.6182 163.417Z" fill="black"/>
<path d="M232.956 82.8659L236.201 76.8079L237.654 74.3867L240.631 69.749L243.123 68.4894L246.986 64.012L244.635 67.9792L237.545 76.9925L234.572 84.6202L230.107 92.6491L226.406 95.5329L227.511 93.8056L230.209 90.3236L229.876 89.278L230.196 87.8108L232.264 85.1259L231.313 83.4986L232.956 82.8659Z" fill="#DAE2EB"/>
<path d="M91.6077 177.794L92.244 178.232L95.4105 173.74L95.2017 172.085L95.541 170.341L98.0874 166.559L97.1027 164.813L98.3815 164.022C98.3815 164.022 103.704 151.889 107.201 146.932L109.645 145.193L110.589 143.774L113.202 138.537L108.902 144.443L106.133 146.105L101.211 155.423L97.6014 163.429L95.7807 164.255L96.8377 166.403L94.5399 169.947L94.1794 171.893L94.5501 173.273L91.5923 177.806L91.6077 177.794Z" fill="#DAE2EB"/>
<path d="M227.547 93.758L228.12 94.0898L230.97 90.6871L230.782 89.4331L231.087 88.112L233.379 85.2469L232.493 83.9241L233.644 83.3253C233.644 83.3253 238.434 74.1335 241.582 70.3779L243.781 69.0606L244.631 67.986L246.982 64.0188L243.113 68.4925L240.621 69.7521L237.993 72.5904L236.19 76.811L232.941 82.8755L231.303 83.5017L232.254 85.129L230.186 87.8138L229.862 89.2875L230.195 90.3331L227.533 93.7672L227.547 93.758Z" fill="black"/>
</svg>
