<svg width="311" height="324" viewBox="0 0 311 324" fill="none" xmlns="http://www.w3.org/2000/svg">
<path d="M0.995834 200.568C1.20757 191.393 4.97242 182.71 7.34131 173.842C10.2857 162.952 11.1954 151.641 10.0275 140.441C9.05453 131.082 4.08409 120.637 11.6984 112.568C21.3643 102.329 29.6131 89.0583 46.2377 86.9694C52.5829 86.1708 58.6744 84.4095 64.8927 83.0784L68.0019 81.3786C71.7244 77.8767 77.6044 81.3786 81.2 77.4876C83.3151 73.576 83.4632 70.4222 80.0156 66.4493C76.9698 62.9678 72.8031 58.9334 74.7067 53.1787C74.7067 46.3796 70.1381 40.2359 71.7033 33.2115C67.1212 26.6185 68.132 17.7847 74.0933 12.3227C82.6806 -0.415371 107.935 -4.63409 117.812 6.17894C127.009 15.7463 130.855 29.0315 128.134 41.8332C127.055 47.2807 120.541 50.0249 122.211 56.1687C121.069 59.1382 121.069 63.0292 116.268 63.0497L115.845 63.4798C114.407 68.6815 115.634 73.9037 115.634 79.1054C126.036 86.0455 136.991 92.1745 148.396 97.4343C160.05 102.841 172.149 108.882 174.052 122.46C176.696 141.321 175.512 162.067 176.527 181.256L177.14 192.827C177.88 207.162 0.763404 210.254 0.995834 200.568Z" fill="black"/>
<path d="M46.3565 129.22C45.4377 121.144 44.7085 113.041 44.1689 104.91C43.9501 101.203 44.7814 96.2752 48.6535 95.8403C51.368 127.289 56.9866 158.439 65.4379 188.935H57.2475C52.4043 169.313 48.6754 149.421 46.3565 129.22ZM58.2572 112.572C57.5647 105.558 57.3965 98.5071 57.754 91.4711C64.7763 88.0752 75.4957 82.8984 80.4835 86.4393C81.2054 103.916 86.062 121.31 86.7182 138.973C86.6784 142.581 87.0822 146.18 87.9214 149.699C88.3742 151.211 88.937 152.692 89.6059 154.131C89.9505 165.764 91.009 177.351 91.3872 188.935C86.2999 190.471 82.7913 191.239 80.8614 191.239C78.3287 191.239 75.1434 190.471 71.3055 188.935C65.7373 163.676 61.9697 138.221 58.2572 112.572Z" fill="#DAE2EB"/>
<path d="M39.3909 195.847H35.4927C31.3196 169.729 30.0268 143.214 29.932 116.764C29.8217 113.067 30.5481 109.391 32.0615 105.988V106.662C32.0615 136.355 33.7864 166.151 39.3018 195.375C39.3314 195.533 39.361 195.69 39.3909 195.847ZM65.6001 195.847H60.6362C54.677 173.117 50.3039 150.027 47.5495 126.729C46.6412 118.71 45.9203 110.663 45.3869 102.59C45.1274 99.7315 45.6031 96.1127 47.5495 94.4678C48.0469 101.808 48.6957 109.149 49.5175 116.448C52.5874 143.428 58.1842 169.865 65.6001 195.847ZM21.1548 195.847H18.3755C18.3054 194.656 18.2363 193.464 18.1681 192.272C16.6331 167.219 15.5672 141.839 20.5558 117.215C20.5558 116.929 20.5558 116.643 20.7264 116.357V119.749C18.1681 140.368 18.9995 161.313 20.3 182.055C20.57 186.65 20.8531 191.248 21.1548 195.847Z" fill="white"/>
<path d="M72.5987 104.654C77.5497 135.414 80.9758 153.257 79.6757 184.326C78.6799 205.239 78.016 190.4 76.0686 186.493C75.6067 185.732 75.1929 184.948 74.8294 184.144C74.8294 183.962 74.8294 183.8 74.6745 183.618C67.9029 156.146 62.0208 141.721 57.8605 113.764C57.16 106.907 56.9899 100.014 57.3515 93.1348L59.4095 92.1631C59.3874 95.9285 72.0454 100.848 72.5987 104.654Z" fill="white"/>
<path d="M122.608 39.8C122.956 38.0538 123.239 36.6402 123.283 36.266C123.65 32.2571 123.57 28.2223 123.043 24.2296C122.172 17.9931 119.71 11.5071 113.567 8.70067C112.767 8.33772 111.839 8.33772 111.04 8.70067C105.049 0.385333 86.885 3.9454 79.5869 10.66C77.1197 12.6221 75.7045 15.5365 75.731 18.6012C75.3112 18.9814 75.0225 19.4744 74.9031 20.0148C74.8238 20.363 74.7873 20.7188 74.7942 21.075C74.7942 21.2829 74.6635 21.5115 74.7942 21.4076C74.6875 21.6219 74.5559 21.8241 74.4021 22.0105C73.459 23.1115 73.5535 24.7175 74.6199 25.7108C75.3991 26.3857 76.5328 26.5344 77.4738 26.085C80.2405 24.7961 85.6215 27.852 88.1486 28.7875C93.3475 30.6535 101.197 28.2504 106.748 28.4496C107.798 28.4308 108.841 28.6074 109.82 28.9693C112.456 30.2166 112.63 33.7922 113.153 36.6818C114.029 41.4029 116.814 45.6063 120.908 48.3856C120.908 48.3856 121.867 43.3756 122.608 39.8Z" fill="white"/>
<path d="M82.2565 47.2345C81.4685 46.2701 83.1102 44.2724 83.7011 43.1874C83.9638 42.7052 84.5876 40.587 86.0323 40.3286C86.8859 40.1736 86.7546 42.8947 86.7218 43.0841C86.8945 43.7739 86.7132 44.4755 86.1964 45.1163C85.2459 45.9858 83.8903 46.7146 82.2565 47.2345Z" fill="#DAE2EB"/>
<path d="M165.446 188.936H159.625C159.652 167.46 161.128 137.896 143.459 121.624C144.807 126.847 145.415 132.216 145.267 137.59C145.117 145.055 144.406 152.641 143.524 160.147C143.456 161.192 143.067 162.195 142.405 163.035C141.504 163.961 140.201 164.442 138.874 164.337C136.255 164.25 133.71 163.491 131.513 162.14C129.36 160.798 127.918 157.869 126.282 155.855C122.659 151.462 119.282 146.893 116.165 142.167C110.741 133.807 94.1882 110.763 106.845 102.484C108.486 101.583 109.811 100.247 110.655 98.6403C112.635 93.8605 104.886 89.6706 103.401 83.5891C103.176 82.8516 103.176 82.0689 103.401 81.3314C103.734 80.6062 104.27 79.9804 104.951 79.5212L110.612 74.8838C109.148 85.0535 115.218 92.3147 125.077 95.2232C135.28 98.2538 145.913 101.671 153.06 108.952C158.979 114.952 161.906 122.987 163.306 130.96C165.264 142.146 164.554 153.496 164.21 164.743C163.957 172.997 164.689 180.922 165.446 188.936Z" fill="white"/>
<path d="M101.736 28.5444C102.368 28.7159 106.667 25.9142 106.951 26.4903C114.033 28.8015 122.558 26.2547 123.51 33.4097C123.98 35.6569 124.214 43.7872 122.725 45.4831C122.783 45.8913 122.711 46.3011 122.519 46.6581C122.397 46.8892 122.247 47.1047 122.072 47.3C121.972 47.4159 121.937 47.6045 121.912 47.4854C121.87 47.6548 121.848 47.829 121.847 48.0048C121.857 49.0594 121.031 49.9105 119.942 49.9655C119.171 49.9775 118.45 49.5303 118.127 48.8398C117.162 46.8278 113.254 39.8067 111.356 39.1466C107.479 37.7561 96.8659 27.2364 101.736 28.5444Z" fill="#DAE2EB"/>
<path d="M134.853 272.831C135.065 263.657 138.83 254.973 141.199 246.106C144.143 235.216 145.053 223.904 143.885 212.704C142.912 203.345 137.942 192.901 145.556 184.832C155.222 174.593 163.471 161.322 180.095 159.233C186.44 158.434 192.532 156.673 198.75 155.342L201.859 153.642C205.582 150.14 211.462 153.642 215.058 149.751C217.173 145.84 217.321 142.686 213.873 138.713C210.827 135.231 206.661 131.197 208.564 125.442C208.564 118.643 203.996 112.5 205.561 105.475C200.979 98.8822 201.99 90.0484 207.951 84.5864C216.538 71.8483 241.792 67.6296 251.67 78.4426C260.866 88.01 264.712 101.295 261.991 114.097C260.913 119.544 254.398 122.289 256.069 128.432C254.927 131.402 254.927 135.293 250.126 135.313L249.703 135.743C248.264 140.945 249.491 146.167 249.491 151.369C259.893 158.309 270.849 164.438 282.254 169.698C293.908 175.104 306.006 181.146 307.91 194.724C310.554 213.585 309.369 234.33 310.384 253.519L310.998 265.09C311.738 279.426 134.621 282.518 134.853 272.831Z" fill="black"/>
<path d="M180.214 201.485C179.296 193.409 178.566 185.306 178.027 177.175C177.808 173.468 178.639 168.54 182.511 168.105C185.226 199.554 192.869 237.521 201.32 268.017H193.129C188.286 248.395 182.533 221.686 180.214 201.485ZM192.115 184.836C191.423 177.823 191.254 170.772 191.612 163.736C198.634 160.34 209.354 155.163 214.341 158.704C215.063 176.181 219.92 193.575 220.576 211.238C220.536 214.845 220.94 218.445 221.779 221.964C222.232 223.476 222.795 224.957 223.464 226.395C223.808 238.029 224.867 249.615 225.245 261.199C220.158 262.735 216.07 267.517 214.14 267.517C211.607 267.517 208.422 266.749 204.584 265.213C199.016 239.954 195.828 210.486 192.115 184.836Z" fill="#DAE2EB"/>
<path d="M232.064 261.198C231.882 257.747 231.526 254.304 230.995 250.882C230.337 247.753 230.049 244.567 230.136 241.381C230.128 240.82 230.313 240.272 230.664 239.814C231.677 238.736 233.569 239.591 234.824 240.465C245.061 247.752 256.228 253.847 268.075 258.613C269.651 259.268 271.452 260.028 272.631 261.198C259.003 262.734 248.782 263.502 241.968 263.502C239.767 263.502 236.466 262.734 232.064 261.198Z" fill="#DAE2EB"/>
<path d="M173.248 268.111H169.35C165.177 241.992 163.884 215.477 163.789 189.027C163.679 185.33 164.405 181.654 165.919 178.252V178.925C165.919 208.619 167.644 238.415 173.159 267.639C173.189 267.796 173.218 267.954 173.248 268.111ZM199.457 268.111H194.493C188.534 245.381 184.161 222.291 181.407 198.992C180.498 190.973 179.777 182.927 179.244 174.853C178.984 171.995 179.46 168.376 181.407 166.731C181.904 174.072 182.553 181.412 183.375 188.712C186.445 215.692 192.041 242.129 199.457 268.111ZM155.012 268.111H152.233C152.163 266.919 152.093 265.727 152.025 264.536C150.49 239.483 149.424 214.103 154.413 189.479C154.413 189.192 154.413 188.906 154.584 188.62V192.012C152.025 212.631 152.857 233.577 154.157 254.318C154.427 258.914 154.71 263.512 155.012 268.111Z" fill="white"/>
<path d="M206.456 176.918C211.407 207.679 214.833 225.522 213.533 256.591C212.537 277.503 211.873 262.664 209.926 258.757C209.464 257.997 209.05 257.213 208.687 256.409C208.687 256.227 208.687 256.065 208.532 255.883C201.76 228.411 195.878 213.986 191.718 186.028C191.017 179.172 190.847 172.278 191.209 165.399L193.267 164.428C193.245 168.193 205.903 173.113 206.456 176.918Z" fill="white"/>
<path d="M256.465 112.064C256.813 110.317 257.097 108.904 257.14 108.53C257.507 104.521 257.427 100.486 256.901 96.4932C256.029 90.2567 253.567 83.7708 247.424 80.9643C246.624 80.6014 245.696 80.6014 244.897 80.9643C238.906 72.649 220.742 76.2091 213.444 82.9237C210.977 84.8858 209.562 87.8002 209.588 90.8648C209.168 91.2451 208.88 91.7381 208.76 92.2785C208.681 92.6266 208.644 92.9824 208.651 93.3387C208.651 93.5465 208.521 93.7752 208.651 93.6713C208.545 93.8856 208.413 94.0878 208.259 94.2741C207.316 95.3751 207.411 96.9812 208.477 97.9745C209.256 98.6494 210.39 98.798 211.331 98.3487C214.098 97.0598 219.479 100.116 222.006 101.051C227.205 102.917 235.054 100.514 240.605 100.713C241.655 100.695 242.698 100.871 243.677 101.233C246.313 102.48 246.487 106.056 247.01 108.945C247.886 113.667 250.671 117.87 254.766 120.649C254.766 120.649 255.724 115.639 256.465 112.064Z" fill="white"/>
<path d="M216.114 119.498C215.326 118.534 216.968 116.536 217.559 115.451C217.821 114.969 218.445 112.851 219.89 112.592C220.744 112.437 220.612 115.158 220.579 115.348C220.752 116.038 220.571 116.739 220.054 117.38C219.104 118.249 217.748 118.978 216.114 119.498Z" fill="#DAE2EB"/>
<path d="M299.302 261.2H293.482C293.508 239.724 294.984 210.159 277.316 193.887C278.663 199.111 279.271 204.48 279.124 209.854C278.973 217.319 278.263 224.905 277.38 232.41C277.312 233.455 276.923 234.459 276.261 235.299C275.361 236.225 274.057 236.705 272.731 236.6C270.111 236.514 267.566 235.754 265.369 234.404C263.217 233.061 261.775 230.132 260.139 228.119C256.516 223.726 253.139 219.157 250.022 214.43C244.598 206.071 228.045 183.026 240.701 174.748C242.343 173.847 243.667 172.51 244.511 170.904C246.492 166.124 238.743 161.934 237.257 155.853C237.032 155.115 237.032 154.333 237.257 153.595C237.591 152.87 238.126 152.244 238.807 151.785L244.468 147.147C243.005 157.317 249.075 164.578 258.933 167.487C269.136 170.517 279.77 173.934 286.916 181.216C292.835 187.216 295.763 195.25 297.162 203.223C299.121 214.41 298.41 225.759 298.066 237.007C297.813 245.261 298.546 253.185 299.302 261.2Z" fill="white"/>
<path d="M235.593 100.807C236.225 100.979 240.524 98.1769 240.808 98.753C247.89 101.064 256.415 98.5174 257.367 105.672C257.837 107.92 258.071 116.05 256.582 117.746C256.64 118.154 256.568 118.564 256.376 118.921C256.254 119.152 256.104 119.367 255.929 119.563C255.829 119.679 255.794 119.867 255.769 119.748C255.727 119.917 255.705 120.092 255.704 120.267C255.714 121.322 254.888 122.173 253.799 122.228C253.028 122.24 252.307 121.793 251.984 121.102C251.018 119.09 247.111 112.069 245.213 111.409C241.336 110.019 230.723 99.4991 235.593 100.807Z" fill="#DAE2EB"/>
<path d="M153.149 222.567C163.219 226.245 168.66 228.659 173.956 232.306C181.14 237.254 185.814 243.512 187.719 251.675C190.146 262.074 189.801 291.644 189.801 308.924C189.801 310.496 112.628 322.369 98.3976 322.846C53.7863 324.34 26.2343 317.24 8.82778 298.09L8.03568 297.218L7.84885 296.076C7.67356 295.004 7.48109 293.934 7.27149 292.867C7.22476 292.629 6.76401 290.327 6.59467 289.461C6.26481 287.775 5.96992 286.191 5.68404 284.543C4.12657 275.566 3.24505 267.026 3.34649 258.846C3.43382 251.802 4.26965 245.47 6.00028 239.981C9.13369 230.043 19.9949 221.058 29.15 219.11C30.9848 218.72 38.9323 217.306 47.0814 214.518C56.0082 211.464 65.125 207.018 65.4639 206.694C66.7583 203.427 66.3532 201.675 63.6402 199.046C63.3815 198.798 62.0777 197.563 61.7008 197.2C56.1782 191.878 50.3824 187.674 51.5809 181.52C51.3284 179.473 50.697 177.571 49.114 173.606C46.6953 167.548 45.7479 164.239 45.981 160.259C39.9654 151.844 40.1697 136.186 47.072 128.314C57.2028 110.677 95.2035 102.877 109.467 115.948C121.96 126.906 128.539 147.338 126.612 163.497C126.307 166.405 125.371 168.387 123.145 171.923C122.907 172.301 122.795 172.478 122.679 172.665C120.794 175.684 120.434 176.966 121.103 178.773L121.542 179.957L121.198 181.17C121.077 181.597 120.989 181.998 120.8 182.959C120.256 185.721 116.556 187.188 115.519 188.751C114.473 190.33 113.006 191.475 111.161 192.149C111.032 194.332 111.313 196.765 112.021 201.037C112.094 201.476 112.126 201.667 112.166 201.91C112.352 203.043 112.495 203.975 112.609 204.823C124.487 211.248 140.402 217.945 153.149 222.567Z" fill="black"/>
<path d="M114.539 158.017C112.645 155.539 110.114 154.084 107.437 154.265C102.271 154.612 98.5205 160.918 99.0603 168.348C99.4004 173.03 101.363 177.042 104.061 179.282C103.437 182.497 101.492 178.884 99.4248 181.821C97.7235 184.264 97.1907 188.135 95.6565 190.7C92.5713 195.861 85.2805 192.574 79.57 191.783C71.7565 190.701 67.221 192.451 62.2047 186.718C61.0282 185.585 58.3652 180.444 56.2231 173.622C54.3451 167.642 54.2148 165.429 53.0955 161.167C52.5232 158.988 53.0064 154.241 52.7799 154.11C50.4833 152.582 49.1771 149.981 49.3435 147.269C49.2879 146.231 50.7258 141.249 51.5252 139.893C53.953 135.294 57.0329 130.143 60.8514 126.315C61.588 125.476 62.4941 124.795 63.5127 124.317C64.436 123.944 65.4477 123.853 66.3694 123.458C67.6955 122.625 68.9226 121.649 70.0283 120.55C71.1803 119.424 72.9715 119.22 74.3597 120.058C74.9511 118.538 77.6016 119.558 79.076 118.811C80.751 118.561 82.4526 118.528 84.1373 118.712C85.9387 118.591 87.5722 116.462 89.3722 118.824C89.6651 119.382 90.0619 119.882 90.5423 120.297C91.1247 120.559 91.7615 120.683 92.4013 120.659C96.1387 121.027 98.7999 124.972 102.544 125.118C103.381 125.036 104.226 125.091 105.045 125.281C108.737 126.584 110.855 132.095 112.169 135.243C114.185 140.247 115.379 150.42 114.539 158.017Z" fill="#DAE2EB"/>
<path d="M53.2807 157.485C52.9322 155.739 52.649 154.326 52.6054 153.951C52.2383 149.942 52.3187 145.908 52.845 141.915C53.7164 135.678 56.1782 129.192 62.3216 126.386C63.1211 126.023 64.0493 126.023 64.8487 126.386C70.8397 118.071 86.634 118.175 93.9321 124.889C96.3993 126.851 97.8145 129.766 97.7881 132.83C98.2079 133.211 98.4966 133.704 98.6159 134.244C98.6952 134.592 98.7318 134.948 98.7249 135.304C98.7249 135.512 98.8556 135.741 98.7249 135.637C98.8316 135.851 98.9631 136.053 99.117 136.24C100.06 137.341 99.9655 138.947 98.8991 139.94C98.12 140.615 96.9863 140.764 96.0453 140.314C93.2785 139.025 87.8976 142.081 85.3705 143.017C80.1716 144.883 74.691 145.936 69.1404 146.135C68.0909 146.116 67.0475 146.293 66.0687 146.655C63.4327 147.902 63.2584 151.478 62.7356 154.367C61.8596 159.088 59.0741 163.292 54.98 166.071C54.98 166.071 54.0214 161.061 53.2807 157.485Z" fill="white"/>
<path d="M70.4248 216.961C68.6436 221.555 36.739 236.717 36.8901 239.213C37.013 241.242 62.4429 235.339 69.751 235.639C71.431 235.707 79.0851 237.06 65.9962 247.883C52.9074 258.707 37.4565 259.033 32.8249 264.78C28.1933 270.526 23.3701 271.867 18.3095 281.873C18.0653 270.754 13.0937 256.101 17.4883 244.48C19.3006 239.688 23.4135 231.728 48.4626 225.845C59.4635 223.262 70.4248 216.961 70.4248 216.961Z" fill="white"/>
<path fill-rule="evenodd" clip-rule="evenodd" d="M147.145 305.867C133.816 309.9 120.642 311.789 109.811 312.712C109.887 312.666 109.962 312.62 110.037 312.574C125.275 303.206 138.987 293.49 149.035 282.193C158.123 272.088 166.452 260.801 168.957 248.789C168.971 248.839 158.547 287.949 147.145 305.867Z" fill="#DAE2EB"/>
<path fill-rule="evenodd" clip-rule="evenodd" d="M96.3909 313.237C84.1637 313.646 73.6802 313.02 64.6602 311.631C74.189 306.063 83.442 300.375 92.8545 294.77C121.659 277.774 153.302 260.327 153.031 234.882C159.773 236.835 160.388 240.912 159.464 243.702C155.158 256.76 149.246 269.469 139.354 280.994C137.451 283.197 135.415 285.357 133.244 287.474C130.928 289.679 128.446 291.84 125.97 293.977C117.517 300.87 107.828 307.296 96.9639 313.218C96.771 313.225 96.58 313.231 96.3909 313.237Z" fill="#DAE2EB"/>
<path fill-rule="evenodd" clip-rule="evenodd" d="M42.1893 299.351C43.1356 295.83 50.2875 282.026 64.3493 268.329C78.1266 254.91 98.8266 241.566 99.0547 240.766C102.197 233.064 109.457 226.425 112.625 218.861C117.43 218.522 122.287 220.158 128.629 223.231C129.466 223.637 133.713 226.148 134.47 226.519C133.851 229.744 132.702 232.849 131.029 235.81C121.815 249.111 78.6018 277.435 65.8863 289.505C64.9438 290.401 82.9763 280.756 85.3543 280.301C86.0436 280.128 86.5738 279.86 86.9051 279.517C103.703 265.987 134.272 246.869 142.906 230.647C146.687 231.751 146.83 234.168 146.072 235.752C144.452 239.25 142.601 242.695 140.519 246.088C129.585 264.068 92.4781 291.862 60.8019 310.07C55.3113 300.299 39.855 308.114 42.1893 299.351Z" fill="#DAE2EB"/>
</svg>
