<svg width="334" height="240" viewBox="0 0 334 240" fill="none" xmlns="http://www.w3.org/2000/svg">
<path d="M323.433 44.0257L323.382 43.7391L323.251 43.4791L312.385 21.8969L312.101 21.3332L311.545 21.0345L290.115 9.52172L289.817 9.36159L289.483 9.30842L265.228 5.44846L265.109 5.42966L264.99 5.42508L240.506 4.48727L240.486 4.48605L216.049 3.04398L216.033 3.04301L216.016 3.04231L191.492 2.0018L191.438 1.99954L191.385 2.00012L166.874 2.26854L166.86 2.26864L143.056 2.36923L143.035 2.36932L143.014 2.36984L118.927 2.97401L118.192 2.99243L117.644 3.48194L95.8922 22.9163L88.3817 5.58776L87.8165 4.28355L86.3989 4.38857L65.1039 5.96611L64.9906 5.97451L64.8789 5.9957L44.3576 9.88922L44.0181 9.95364L43.7199 10.1283L23.1986 22.1445L22.7563 22.4035L22.493 22.8434L10.2812 43.2508L10.0782 43.59L10.0196 43.981L6.25172 69.0874L6.24845 69.1092L6.24566 69.1311L3.01609 94.439L2.99698 94.5887L3.00056 94.7397L3.6052 120.177L3.2357 145.614L3.23405 145.728L3.24533 145.842L5.76843 171.183L5.77304 171.229L5.7798 171.275L9.48035 196.483L9.54102 196.896L9.76203 197.25L22.4448 217.591L22.7192 218.031L23.1728 218.282L43.8959 229.761L44.2185 229.94L44.5836 229.992L68.6708 233.415L68.7304 233.424L68.7904 233.429L93.1804 235.409L93.197 235.41L93.2137 235.411L117.705 236.989L117.728 236.99L117.751 236.991L142.276 237.998L142.328 238L142.38 238L166.904 237.731L166.914 237.731L166.923 237.731L191.414 237.228L191.44 237.227L191.466 237.226L215.913 236.087L240.428 236.02L240.518 236.019L240.609 236.011L264.99 233.729L264.999 233.729L289.481 231.548L289.94 231.507L290.335 231.269L311.125 218.749L311.599 218.464L311.859 217.976L323.095 196.863L323.233 196.605L323.29 196.318L328.303 171.413L328.322 171.321L328.331 171.227L330.989 145.886L331.002 145.759L331 145.632L330.428 120.123L328.428 120.168L330.428 120.123L329.856 94.6807L329.854 94.6278L329.851 94.575L327.933 69.2L327.925 69.0983L327.907 68.998L323.433 44.0257Z" fill="black" stroke="black" stroke-width="4"/>
<path d="M313.662 46.4567L304.882 28.4995L287.086 19.0678L263.234 15.3421L239.147 14.4694L215.093 13.0932L190.972 12.0527L166.885 12.3213L145.758 12.3884L124.396 12.8919L99.4004 32.2923L107.037 50.2831L114.842 67.6361L101.284 100.966L107.441 67.4347L97.4828 49.3768L86.7513 31.4196L81.1331 14.5701L46.8526 19.7726L29.1572 28.8016L19.7376 46.356L15.2297 70.6905L14.2877 95.4277L14.0522 120.165L14.6914 144.869L16.0371 169.572L19.4012 194.041L29.0563 211.629L46.6844 221.262L70.5697 224.283L94.6233 225.189L118.677 226.901L142.798 226.7L166.885 228.21L190.972 227.505L215.059 226.129L239.147 226.096L263.268 225.391L286.951 220.859L304.142 211.092L313.965 193.94L317.329 169.505L319.146 144.869L321.366 120.165L319.314 95.4277L318.069 70.724L313.662 46.4567Z" fill="#DAE2EB"/>
<path d="M19.9375 189.008L28.6843 204.951L45.5049 215.39L104.142 219.753H151.61H191.778L230.095 220.189L261.584 220.693L289.439 216.229L307.84 207.099L289.439 224.721L219.532 231.534L72.3171 227.574L33.966 220.693L23.4362 203.441L19.9375 189.008Z" fill="black"/>
<path d="M136.102 166.183L211.492 137.049L203.688 127.282L216.034 120.166L136.102 74.1484V166.183Z" fill="black"/>
<path d="M141.485 155.779L209.306 120.167L141.485 80.8623V155.779Z" fill="white"/>
<path d="M141.485 88.2801L209.306 120.167L141.485 80.8623V88.2801Z" fill="white"/>
<path d="M170.146 97.4417L169.171 103.45L156.353 120.904L168.027 102.007V96.2334L170.146 97.4417Z" fill="white"/>
<path d="M152.92 87.373L163.08 102.679L156.351 120.904L168.025 102.007V94.4888L152.92 87.373Z" fill="black"/>
<path d="M155.379 85.2246L164.193 99.0533L168.566 91.6019L155.379 85.2246Z" fill="#DAE2EB"/>
<path d="M315.645 187.801L307.841 149.335L314.703 164.809L315.645 152.356L317.563 145.542L316.621 132.486L310.364 122.685L317.563 118.321V111.709L320.658 89.2207L324.56 142.891L318.303 189.009L315.645 187.801Z" fill="black"/>
</svg>
