<svg width="377" height="403" viewBox="0 0 377 403" fill="none" xmlns="http://www.w3.org/2000/svg">
<path d="M346.026 66.3666L325.044 60.8779L314.552 62.8738L294.069 80.8369L285.077 106.285L298.565 145.205L316.551 153.687L324.044 155.683L351.022 147.699L366.509 124.747V95.3071L346.026 66.3666Z" fill="black"/>
<path d="M357.566 143.21L357.566 143.21L357.559 143.219C353.891 147.715 349.203 151.275 343.882 153.606C338.561 155.937 332.76 156.972 326.958 156.624L326.938 156.623L326.919 156.623C324.886 156.662 322.858 156.417 320.894 155.898C320.594 155.736 320.283 155.595 319.964 155.475L319.937 155.464L319.908 155.457C314.21 154.044 308.989 151.151 304.777 147.071C291.676 134.32 287.785 118.652 290.924 100.991L290.924 100.991C292.526 91.9537 296.628 83.5424 302.769 76.7057L302.769 76.7058L302.773 76.7016C307.938 70.8196 314.725 66.5823 322.288 64.5174L322.295 64.5154L322.303 64.5131C323.725 64.0773 325.196 63.8567 326.716 63.6745C327.072 63.6319 327.432 63.5912 327.795 63.5503C328.95 63.42 330.132 63.2866 331.309 63.0744C339.975 63.4926 347.233 65.9545 353.102 70.2435C358.985 74.5428 363.502 80.6992 366.637 88.5413C374.539 108.319 371.513 126.944 357.566 143.21ZM334.866 70.8872L334.863 70.8869C334.466 70.8449 334.105 70.8411 333.797 70.9011C333.487 70.9617 333.185 71.0974 332.98 71.372C332.777 71.6454 332.732 71.9738 332.759 72.2899C332.787 72.6028 332.888 72.9517 333.037 73.3276C336.386 82.1116 337.199 91.6556 335.383 100.877C333.568 110.097 329.197 118.626 322.767 125.496C318.315 130.053 312.81 133.451 306.734 135.393L306.728 135.395C306.686 135.409 306.642 135.423 306.598 135.438C306.383 135.508 306.152 135.584 305.951 135.669C305.716 135.768 305.44 135.91 305.25 136.144C305.029 136.416 304.967 136.754 305.071 137.113C305.164 137.435 305.385 137.767 305.698 138.121L305.7 138.123C311.907 145.097 319.577 149 327.584 149.252L327.592 149.252H327.6H327.741C343.292 149.252 354.496 140.031 360.201 127.817C364.181 119.503 365.432 110.15 363.777 101.087C362.364 91.4323 357.222 82.7113 349.449 76.7857C345.223 73.5212 340.178 71.4803 334.866 70.8872Z" fill="white" stroke="black"/>
<path d="M301.536 144.999L301.537 145C305.065 148.808 309.409 151.755 314.232 153.631C299.229 151.596 287.409 141.73 281.966 126.574C278.502 116.696 278.06 106.014 280.695 95.8843C283.33 85.7539 288.924 76.6321 296.768 69.6769L296.771 69.6743C301.113 65.7635 306.332 62.9473 311.991 61.4616C317.645 59.9771 323.573 59.8643 329.28 61.1324C329.406 61.1683 329.533 61.2028 329.661 61.236C329.629 61.2378 329.596 61.2396 329.564 61.2414C329.272 61.2577 328.979 61.274 328.685 61.2916C327.147 61.3835 325.581 61.51 324.019 61.8514C316.165 63.5478 308.984 67.5098 303.37 73.2444C296.737 79.8723 292.093 88.216 289.961 97.335C285.805 115.076 288.887 131.284 301.536 144.999Z" fill="#DAE2EB" stroke="black"/>
<path d="M325.462 145.978C317.615 145.732 310.068 141.89 303.935 135.052C302.751 133.712 303.688 133.483 304.748 133.131C310.879 131.13 316.425 127.663 320.902 123.032C327.398 116.094 331.814 107.479 333.648 98.1647C335.481 88.8504 334.66 79.21 331.277 70.3377C330.711 68.9102 331.082 68.4167 332.585 68.5753C337.806 69.1584 342.765 71.1645 346.918 74.3735C354.59 80.2219 359.665 88.8301 361.057 98.3593C362.696 107.323 361.459 116.573 357.523 124.795C351.832 136.902 340.785 145.908 325.462 145.978Z" fill="#DAE2EB"/>
<path d="M301.451 333.947C301.808 342.181 300.137 350.376 296.586 357.818L296.586 357.818L296.583 357.824C293.754 363.974 289.537 369.389 284.263 373.646C280.47 376.7 276.13 379.009 271.474 380.449L271.472 380.449C271.401 380.472 271.322 380.493 271.229 380.517L271.202 380.524C271.12 380.545 271.028 380.569 270.938 380.596C270.754 380.65 270.498 380.736 270.3 380.902C270.192 380.993 270.09 381.116 270.03 381.281C269.969 381.447 269.967 381.62 270.003 381.785C270.07 382.088 270.273 382.389 270.554 382.698C273.424 386.218 277.036 389.066 281.133 391.039C285.232 393.013 289.716 394.063 294.268 394.115C296.497 394.192 298.725 393.95 300.884 393.396C305.222 392.408 309.322 390.573 312.947 387.999C316.571 385.425 319.649 382.163 322.004 378.399C325.724 372.993 328.161 366.814 329.13 360.33C330.1 353.843 329.575 347.221 327.596 340.967C323.61 327.781 315.23 318.707 301.096 315.951C301.006 315.932 300.907 315.91 300.803 315.886C300.472 315.81 300.083 315.72 299.725 315.686C299.252 315.64 298.666 315.669 298.222 316.07C297.697 316.545 297.819 317.214 297.954 317.644C298.028 317.88 298.129 318.117 298.22 318.326C298.23 318.349 298.24 318.371 298.249 318.393C298.332 318.583 298.404 318.747 298.456 318.898L298.458 318.902C300.202 323.74 301.211 328.811 301.451 333.947ZM301.451 333.947C301.451 333.947 301.451 333.946 301.451 333.946L301.95 333.924L301.451 333.947C301.451 333.947 301.451 333.947 301.451 333.947ZM322.518 319.134L322.52 319.136C329.085 325.793 333.41 334.321 334.896 343.538L334.897 343.545C337.614 359.047 334.479 373.23 324.78 385.73C316.595 396.193 305.854 401.94 292.263 401.522L292.254 401.522L292.245 401.522C290.039 401.531 287.838 401.284 285.689 400.786C285.539 400.609 285.359 400.503 285.186 400.434C285.079 400.391 284.972 400.362 284.886 400.339C284.865 400.333 284.845 400.328 284.826 400.323C284.761 400.306 284.71 400.293 284.656 400.276L284.657 400.276L284.644 400.272C279.344 398.754 274.457 396.062 270.347 392.397C260.091 383.127 255.522 371.227 255.031 357.716L255.031 357.712C254.585 347.488 257.257 337.369 262.696 328.691L262.697 328.689C269.002 318.543 277.54 311.52 289.421 308.911C290.522 308.67 291.643 308.557 292.796 308.441L292.896 308.431C294.055 308.314 295.245 308.191 296.42 307.919C301.285 307.988 306.09 309.009 310.56 310.926C315.049 312.851 319.113 315.64 322.518 319.134Z" fill="white" stroke="black"/>
<path d="M257.563 320.66C266.791 309.809 278.85 305.524 292.971 307.418C292.912 307.424 292.853 307.43 292.794 307.436L292.667 307.449C291.529 307.563 290.354 307.681 289.189 307.934L289.188 307.935C276.998 310.612 268.25 317.83 261.83 328.161C256.284 337.01 253.559 347.328 254.014 357.754C254.513 371.487 259.169 383.66 269.66 393.141L269.663 393.143C273.329 396.412 277.596 398.928 282.22 400.555C265.688 399.053 252.518 388.451 247.356 371.616L247.356 371.615C241.607 352.915 244.829 335.629 257.563 320.661L257.563 320.66Z" fill="black" stroke="black"/>
<path d="M327.116 368.728L322.619 379.206L319.434 383.407C313.573 391.134 304.433 395.673 294.735 395.673H292.644L313.627 328.81L317.124 324.319L322.619 330.806L326.616 339.788L329.114 349.268V360.245L327.116 368.728Z" fill="black"/>
<path d="M289.405 394.585C284.741 394.526 280.147 393.443 275.951 391.412C271.755 389.382 268.059 386.455 265.126 382.839C264.042 381.611 265.126 381.556 265.843 381.336C270.748 379.819 275.319 377.388 279.315 374.171C284.862 369.694 289.296 363.999 292.272 357.532C296.002 349.717 297.756 341.11 297.381 332.463C297.13 327.071 296.07 321.747 294.238 316.667C293.963 315.879 293.154 314.945 293.852 314.285C294.551 313.625 295.525 314.065 296.389 314.285C310.871 317.162 319.454 326.434 323.553 339.94C325.588 346.369 326.128 353.175 325.131 359.843C324.134 366.511 321.627 372.865 317.8 378.422C315.386 382.282 312.231 385.627 308.515 388.266C304.8 390.905 300.597 392.784 296.15 393.797C293.951 394.38 291.679 394.646 289.405 394.585Z" fill="#DAE2EB"/>
<path d="M93.4271 109.107L93.4406 109.102C97.4648 107.798 101.799 107.795 105.825 109.093C109.851 110.391 113.363 112.924 115.859 116.33C121.24 123.543 124.399 132.162 124.952 141.134C125.191 143.313 125.315 145.503 125.325 147.695M93.4271 109.107L124.825 147.698M93.4271 109.107L93.4138 109.112C88.5578 110.997 84.3433 114.227 81.2672 118.421C73.1037 128.721 70.4049 140.874 69.6776 153.538L69.6775 153.538L69.677 153.552C69.5497 157.87 69.9507 162.187 70.8711 166.408C72.4739 174.857 75.6004 182.577 82.0077 188.734L82.0079 188.734C85.1328 191.734 89.1766 193.602 93.4918 194.038C97.807 194.474 102.144 193.454 105.809 191.14L105.809 191.14L105.817 191.135C111.635 187.313 116.24 181.917 119.092 175.578M93.4271 109.107L118.639 175.367M125.325 147.695C125.325 147.695 125.325 147.696 125.325 147.696L124.825 147.698M125.325 147.695C125.325 147.694 125.325 147.694 125.325 147.694L124.825 147.698M125.325 147.695C125.408 157.342 123.276 166.88 119.092 175.578M124.825 147.698C124.908 157.271 122.792 166.736 118.639 175.367M119.092 175.578C119.093 175.576 119.094 175.574 119.095 175.572L118.639 175.367M119.092 175.578C119.091 175.58 119.09 175.582 119.089 175.584L118.639 175.367M65.493 145.938L65.4943 145.93L65.4952 145.921C66.5001 137.024 69.0986 128.379 73.1673 120.397L73.1682 120.395C76.0674 114.654 80.141 109.582 85.1264 105.507C91.9881 99.948 99.8449 98.7168 108.333 100.852C108.398 100.985 108.481 101.108 108.579 101.22C108.742 101.403 108.943 101.548 109.168 101.643C118.015 106.112 122.966 113.766 126.227 122.787C130.145 133.946 131.265 145.891 129.491 157.58L129.49 157.59L129.488 157.599C128.25 168.585 124.335 179.101 118.085 188.232L118.081 188.238L118.077 188.244C114.07 194.468 108.081 199.17 101.072 201.592C100.016 201.929 98.9165 202.096 97.776 202.245C97.6194 202.266 97.4618 202.286 97.3034 202.306C96.3469 202.429 95.3617 202.555 94.3949 202.777C82.0212 201.42 74.9507 193.504 70.2468 182.835C65.2943 171.204 63.6496 158.439 65.493 145.938Z" fill="#DAE2EB" stroke="black"/>
<path d="M125.26 151.575H122.762L123.261 142.095V133.612L124.261 136.606L124.76 141.596L125.26 151.575Z" fill="black"/>
<path d="M97.5722 203.28C97.683 203.266 97.7941 203.252 97.9056 203.237C99.0519 203.087 100.231 202.911 101.382 202.544L101.382 202.544L101.393 202.54C108.614 200.046 114.784 195.204 118.914 188.791C125.252 179.53 129.223 168.864 130.481 157.721C132.278 145.872 131.141 133.765 127.17 122.454L127.168 122.45C123.973 113.611 119.127 105.926 110.553 101.242L115.689 102.087C119.07 102.719 122.288 104.024 125.152 105.924C128.017 107.825 130.469 110.282 132.36 113.149L132.364 113.155L132.369 113.162C137.813 120.905 141.128 129.936 141.983 139.355L141.983 139.364L141.985 139.373C143.753 153.26 141.739 167.365 136.154 180.208L136.153 180.212C133.85 185.614 130.649 190.588 126.683 194.926C122.901 199.02 118.755 201.898 114.192 203.399C109.631 204.899 104.622 205.034 99.0936 203.593L99.0936 203.593L99.0856 203.591C98.5936 203.471 98.086 203.371 97.5722 203.28Z" fill="black" stroke="black"/>
<path d="M122.478 147.254C122.566 156.838 120.45 166.316 116.292 174.958C113.479 181.212 108.936 186.537 103.195 190.308C99.6249 192.562 95.3993 193.556 91.1951 193.131C86.9909 192.706 83.0513 190.887 80.0071 187.964C73.6976 181.902 70.6047 174.288 69.014 165.899C68.1013 161.716 67.7036 157.437 67.8298 153.157C68.5544 140.539 71.2409 128.484 79.3178 118.316C82.3379 114.194 86.4774 111.02 91.2477 109.169C95.172 107.897 99.3987 107.894 103.325 109.16C107.251 110.426 110.676 112.896 113.11 116.218C118.436 123.357 121.562 131.887 122.106 140.768C122.343 142.922 122.467 145.087 122.478 147.254Z" fill="white"/>
<path d="M245.127 36.1322L245.128 36.1394L245.129 36.1465C247.065 50.2507 245.925 64.6054 241.787 78.2301L241.785 78.2387L241.783 78.2475C239.724 86.027 235.909 93.2346 230.63 99.3195L230.63 99.3195L230.625 99.3253C227.82 102.659 223.93 104.906 219.634 105.671C217.542 105.827 215.439 105.705 213.381 105.308C213.317 105.181 213.237 105.063 213.142 104.957C212.982 104.776 212.784 104.632 212.562 104.536C207.803 101.925 204.018 97.8502 201.77 92.9191L201.765 92.907L201.759 92.8952C196.596 83.0005 195.116 72.1801 194.48 61.1678C194.234 55.0224 194.64 48.8684 195.693 42.8082L195.693 42.8083L195.694 42.7992C197.279 32.562 200.056 22.7154 205.66 13.9137C209.162 8.50117 213.128 3.80651 219.687 2.29374C219.835 2.30572 219.973 2.26512 220.087 2.19472C220.221 2.11155 220.309 1.99457 220.358 1.92315C220.393 1.8714 220.427 1.81502 220.455 1.76646C224.778 1.7106 228.218 2.94715 231.067 5.04697C233.984 7.19694 236.305 10.2692 238.31 13.8473C241.972 20.7801 244.285 28.3415 245.127 36.1322ZM241.988 50.2838L241.988 50.2838L241.988 50.2762C241.93 49.1012 241.914 47.9322 241.899 46.7524C241.893 46.3236 241.888 45.8933 241.88 45.4608C241.851 43.848 241.793 42.2168 241.596 40.5714C240.894 33.356 238.761 26.3518 235.32 19.966C233.549 16.5498 230.823 13.7191 227.472 11.8166L227.464 11.8117L227.455 11.8072C227.378 11.7677 227.303 11.722 227.21 11.6661C227.18 11.648 227.149 11.6288 227.115 11.6085C226.986 11.5319 226.83 11.4421 226.662 11.3739C226.306 11.2294 225.842 11.165 225.381 11.4907C225.164 11.6446 225.011 11.8463 224.952 12.096C224.898 12.3285 224.941 12.5413 224.985 12.6917C225.013 12.7888 225.059 12.9071 225.092 12.9936C225.104 13.0262 225.115 13.0543 225.123 13.0751C225.162 13.1834 225.17 13.2328 225.17 13.2559V13.2863L225.174 13.3164C225.313 14.4589 225.485 15.5837 225.656 16.6995C225.971 18.7604 226.281 20.791 226.372 22.847C226.849 33.986 226.49 44.9801 222.186 55.3791C218.218 64.9558 212.534 72.916 202.381 76.637L202.376 76.6387L202.375 76.639C202.217 76.6989 202.039 76.7658 201.879 76.8454C201.717 76.9256 201.541 77.0336 201.396 77.193C201.063 77.5594 201.029 78.0344 201.189 78.57C202.971 84.6982 205.75 90.4442 210.911 94.6745C212.789 96.247 215.119 97.1836 217.565 97.3491C220.008 97.5143 222.44 96.9021 224.512 95.6007C230.179 92.4184 233.343 87.189 235.811 81.6822C240.244 71.8224 242.356 61.0826 241.988 50.2838Z" fill="white" stroke="black"/>
<path d="M217.804 1.51068C218.097 1.54165 218.389 1.57256 218.68 1.60403C212.184 3.39124 208.166 8.2064 204.817 13.4614C199.11 22.3535 196.303 32.4205 194.706 42.7289C193.642 48.8587 193.231 55.0836 193.481 61.2996L193.48 61.2996L193.481 61.3084C194.118 72.3552 195.606 83.3472 200.865 93.4332C203.115 98.3625 206.843 102.468 211.526 105.188C210.965 105.133 210.403 105.077 209.84 105.02C207.679 104.804 205.51 104.588 203.347 104.435L203.347 104.435C197.479 104.025 193.29 100.898 189.973 96.2429C185.42 89.4315 182.498 81.6677 181.433 73.5511L181.431 73.5399L181.429 73.5289C178.283 55.7799 180.146 37.5082 186.81 20.7536L186.81 20.7536L186.811 20.7496C188.704 15.869 191.43 11.352 194.868 7.39894C199.681 1.96268 205.467 -0.457917 212.732 0.846568C214.404 1.1508 216.114 1.33178 217.804 1.51068Z" fill="#DAE2EB" stroke="black"/>
<path d="M240.116 47.9972C240.515 59.402 238.327 70.7483 233.718 81.17C231.133 87.0052 227.86 92.4278 222.04 95.7488C219.952 97.0793 217.499 97.7054 215.035 97.5368C212.571 97.3681 210.225 96.4134 208.334 94.8106C203.015 90.4201 200.207 84.416 198.273 77.924C197.994 76.9859 198.515 76.7795 199.203 76.5168C210.082 72.4828 216.145 63.8519 220.347 53.5886C224.922 42.3308 225.294 30.604 224.792 18.7271C224.643 15.331 223.937 11.9349 223.528 8.53881C223.528 8.05098 222.914 7.48805 223.528 7.09403C224.141 6.70001 224.662 7.20663 225.164 7.46931C228.603 9.44482 231.4 12.3843 233.216 15.9314C236.791 22.6862 238.997 30.0913 239.706 37.7151C240.116 41.1487 239.948 44.5635 240.116 47.9972Z" fill="#DAE2EB"/>
<path d="M100.886 341.949C101.114 342.629 101.34 343.312 101.567 343.995C102.555 346.975 103.549 349.974 104.751 352.871L104.751 352.872C105.536 354.751 105.836 356.795 105.625 358.82C105.414 360.844 104.697 362.783 103.541 364.46L103.536 364.469L103.53 364.477C100.813 368.785 97.2979 372.536 93.172 375.531L93.1719 375.531L93.1631 375.537C79.7715 385.715 64.5689 392.042 48.3463 396.128L48.3462 396.128L48.3359 396.13C40.1542 398.38 31.6559 399.265 23.1845 398.752L23.1845 398.752L23.1755 398.752C20.9671 398.658 18.7823 398.268 16.6797 397.593C16.8321 396.781 16.4995 396.049 16.2472 395.493C16.215 395.422 16.184 395.354 16.1556 395.289C14.7542 391.196 13.3184 387.122 11.9018 383.102L11.8839 383.051C11.8839 383.051 11.8839 383.051 11.8838 383.051C11.7204 382.584 11.6244 382.256 11.5888 382.026C11.5729 381.922 11.5727 381.861 11.5753 381.827C11.6059 381.82 11.6613 381.811 11.7541 381.808C11.977 381.803 12.302 381.839 12.7708 381.916C16.1138 382.588 19.521 382.89 22.9305 382.816L22.935 382.816C28.521 382.645 34.0753 381.91 39.513 380.624C54.3548 377.525 68.4999 371.736 81.2454 363.544L81.2454 363.544L81.2526 363.539L81.3512 363.473C89.5979 357.969 97.9874 352.369 100.886 341.949Z" fill="#DAE2EB" stroke="black"/>
<path d="M39.163 379.223L39.1631 379.223C53.9453 376.445 68.0904 370.984 80.895 363.112C89.6955 357.491 98.2972 351.895 100.887 340.995C100.457 338.413 99.0909 336.078 97.0472 334.432C94.8703 332.877 92.3854 331.803 89.7585 331.281L89.7573 331.281C82.0591 329.734 74.1287 329.734 66.4304 331.281L66.4186 331.284L66.4066 331.285C48.562 333.984 31.5487 340.629 16.6126 350.732L16.6011 350.74L16.601 350.74C11.4105 354.046 6.96987 358.397 3.56387 363.513L3.55947 363.52L3.55942 363.52C2.54054 364.999 1.87625 366.692 1.61765 368.468C1.35906 370.243 1.51304 372.055 2.06781 373.762L39.163 379.223ZM39.163 379.223L39.15 379.226M39.163 379.223L39.15 379.226M39.15 379.226C33.752 380.39 28.2497 381.006 22.7272 381.065C19.3883 381.07 16.0591 380.708 12.8 379.984L12.8 379.984M39.15 379.226L12.8 379.984M12.8 379.984L12.792 379.982M12.8 379.984L12.792 379.982M12.792 379.982C12.3182 379.885 11.9089 379.818 11.5803 379.814C11.2689 379.81 10.8847 379.862 10.6276 380.163C10.3759 380.459 10.375 380.845 10.4163 381.159C10.4603 381.494 10.5759 381.906 10.731 382.388L10.7313 382.389M12.792 379.982L10.7313 382.389M10.7313 382.389C11.4903 384.729 12.2556 387.066 13.0168 389.39M10.7313 382.389L13.0168 389.39M13.0168 389.39C13.6022 391.177 14.1852 392.957 14.7608 394.725M13.0168 389.39L14.7608 394.725M14.7608 394.725C14.8153 394.895 14.8814 395.068 14.942 395.227C14.9559 395.263 14.9696 395.299 14.9827 395.334C15.0564 395.529 15.1193 395.705 15.1626 395.878C15.2102 396.068 15.2318 396.243 15.2149 396.415C11.0502 395.273 8.04251 392.982 6.77349 388.65C5.46032 384.168 3.84345 379.208 2.30581 374.492C2.22626 374.248 2.14692 374.004 2.06785 373.762L14.7608 394.725ZM27.9136 377.465L27.9136 377.465L27.9248 377.465C31.981 377.335 36.0222 376.909 40.0158 376.188L40.0185 376.188C55.9838 373.216 70.7879 367.533 83.61 357.336C87.3736 354.344 90.9118 350.841 92.1934 345.764C92.7236 344.022 92.6046 342.147 91.8581 340.485C91.112 338.824 89.7895 337.488 88.1347 336.723C81.1493 332.985 73.6087 333.396 66.3755 334.313C51.7085 336.131 37.6168 341.122 25.0868 348.939C20.1045 351.876 15.7187 355.718 12.1565 360.267L12.1564 360.267L12.1499 360.275C9.65304 363.61 8.75563 366.81 9.58126 369.576C10.4074 372.344 12.9061 374.501 16.8031 375.868L16.8133 375.872L16.8236 375.875C20.4176 376.965 24.1573 377.501 27.9136 377.465Z" fill="#DAE2EB" stroke="black"/>
<path d="M101.27 343.304C93.7766 372.244 26.3323 390.706 11.8443 382.723L12.3439 381.725L25.3331 382.723L44.817 379.729L69.2968 371.246L86.2828 360.768L95.2753 353.283L101.27 343.304Z" fill="black"/>
<path d="M29.4698 375.161C25.7643 375.196 22.0751 374.667 18.5297 373.592C10.8946 370.914 9.21554 365.309 14.1112 358.771C17.6361 354.27 21.9764 350.468 26.9071 347.562C39.377 339.782 53.4015 334.814 67.9989 333.005C75.2276 332.089 82.633 331.701 89.4728 335.367C91.0246 336.081 92.2644 337.331 92.963 338.886C93.6616 340.441 93.7716 342.196 93.2726 343.826C92.0354 348.743 88.6067 352.162 84.8598 355.14C72.1169 365.274 57.3769 371.002 41.4881 373.892C37.5186 374.608 33.5017 375.032 29.4698 375.161Z" fill="white"/>
<path d="M375.96 271.242C375.665 275.569 375.088 279.866 374.496 284.167L374.495 284.168C374.103 287.056 372.03 288.904 369.642 290.551C364.696 293.72 359.088 295.718 353.248 296.392L353.237 296.394L353.226 296.395C334.315 299.416 314.94 297.444 297.031 290.676L297.031 290.676L297.023 290.673C293.23 289.311 289.71 287.286 286.631 284.692C286.776 283.152 286.923 281.612 287.07 280.072C287.38 276.822 287.691 273.571 287.985 270.305L287.985 270.305L287.986 270.301C288.014 269.96 288.073 269.785 288.117 269.706C288.122 269.698 288.126 269.691 288.13 269.686C288.139 269.687 288.153 269.689 288.171 269.694C288.212 269.704 288.268 269.724 288.339 269.758C288.483 269.828 288.653 269.937 288.852 270.08C290.543 271.358 292.339 272.492 294.22 273.47L294.23 273.475L294.24 273.48C305.561 278.748 317.82 281.717 330.303 282.215C341.607 282.939 352.97 282.5 363.957 278.913C368.694 277.406 373.146 275.468 375.96 271.242Z" fill="#DAE2EB" stroke="black"/>
<path d="M324.946 279.174L313.955 277.178L314.954 274.184L342.931 272.688L352.923 278.176L338.934 280.172L324.946 279.174Z" fill="black"/>
<path d="M330.431 281.217L330.431 281.217L330.419 281.217C318.07 280.725 305.942 277.789 294.742 272.579C292.913 271.627 291.166 270.523 289.521 269.28L289.521 269.28L289.512 269.274C289.297 269.119 289.069 268.967 288.844 268.859C288.627 268.754 288.353 268.659 288.064 268.694C287.736 268.733 287.481 268.927 287.318 269.215C287.169 269.477 287.093 269.819 287.06 270.217C286.766 273.48 286.456 276.727 286.146 279.975C286.019 281.297 285.893 282.62 285.768 283.945C282.89 281.565 281.207 278.7 281.657 274.741C281.904 272.568 282.13 270.281 282.359 267.966L282.387 267.688C282.625 265.278 282.868 262.841 283.141 260.466C283.661 255.949 286.473 253.471 290.213 251.423C295.145 248.916 300.466 247.26 305.952 246.524L305.961 246.522L305.971 246.521C311.633 245.547 317.378 245.13 323.122 245.277C336.501 245.663 349.529 247.509 361.946 252.78C366.946 254.922 371.611 257.468 374.833 261.918L374.841 261.929L374.85 261.94C375.637 262.911 376.165 264.066 376.384 265.295C376.603 266.515 376.511 267.769 376.117 268.944C373.647 274.1 368.942 276.262 363.72 277.962C352.899 281.46 341.675 281.938 330.431 281.217ZM336.934 279.396L336.953 279.397L336.971 279.396C341.849 279.253 346.712 278.78 351.525 277.981C356.497 277.268 361.24 275.432 365.392 272.613L365.401 272.607L365.41 272.6C367.33 271.171 368.543 269.432 368.905 267.516C369.269 265.596 368.763 263.576 367.394 261.62L367.385 261.607L367.375 261.595C364.801 258.378 361.422 255.895 357.578 254.395C351.404 251.702 344.898 249.837 338.232 248.847C333.132 248.081 327.982 247.684 322.824 247.661C318.929 247.582 315.036 247.866 311.195 248.51C305.409 249.033 299.829 250.912 294.91 253.993L294.9 254L294.89 254.007C292.408 255.735 290.967 257.848 290.741 260.137C290.514 262.428 291.516 264.77 293.653 266.928C295.468 268.78 297.578 270.319 299.898 271.482C311.504 277.419 324.073 278.814 336.934 279.396Z" fill="white" stroke="black"/>
<path d="M337.177 277.853C324.049 277.27 311.301 275.875 299.545 269.923C297.224 268.782 295.113 267.272 293.298 265.454C289.162 261.268 289.578 256.623 294.489 253.267C299.453 250.218 305.084 248.36 310.922 247.845C314.822 247.202 318.776 246.918 322.731 246.997C327.978 247.02 333.216 247.416 338.405 248.181C345.174 249.167 351.781 251.025 358.051 253.709C361.898 255.179 365.28 257.616 367.856 260.774C370.529 264.518 369.662 268.333 365.942 271.089C361.763 273.872 356.989 275.685 351.984 276.387C347.088 277.203 342.141 277.692 337.177 277.853Z" fill="#DAE2EB"/>
<path d="M328.285 277.327L334.459 276.819L336.936 276.773L341.693 276.879L343.087 278.603L347.74 279.701L343.683 279.806L334.359 278.286L326.653 280.046L318.461 280.555L315.39 278.627L317.161 278.663L320.761 279.21L321.772 278.222L323.239 277.631L326.014 278.04L327.561 276.068L328.285 277.327Z" fill="black"/>
<path d="M317.211 278.67L316.919 279.453L320.449 280.201L321.675 279.231L322.997 278.715L325.963 279.237L327.214 277.521L327.875 278.306C327.875 278.306 337.234 277.401 341.131 278.228L342.565 279.621L343.677 279.807L347.734 279.701L343.085 278.594L341.69 276.871L338.346 275.349L334.456 276.81L328.276 277.319L327.558 276.06L326.011 278.031L323.236 277.623L321.763 278.214L320.751 279.201L317.201 278.662L317.211 278.67Z" fill="#DAE2EB"/>
<path d="M155.645 283.658C155.588 284.164 155.53 284.671 155.472 285.178C155.178 287.753 154.882 290.342 154.694 292.935L154.693 292.942L154.693 292.95C154.631 294.356 154.249 295.73 153.575 296.967C152.901 298.204 151.954 299.271 150.804 300.088C146.106 303.365 140.655 305.408 134.955 306.027L134.943 306.028L134.932 306.03C118.339 308.632 101.357 307.059 85.5298 301.453L85.5213 301.45L85.5126 301.447C81.3506 300.142 77.5068 297.989 74.2236 295.127C74.5982 293.053 74.7994 290.954 74.9999 288.864C75.0197 288.656 75.0396 288.449 75.0597 288.241C75.2679 286.089 75.4938 283.942 75.9221 281.797C76.0744 281.905 76.2231 282.011 76.369 282.115C77.0526 282.602 77.675 283.045 78.3209 283.451C79.2794 284.098 80.2716 284.694 81.2934 285.236L81.2933 285.236L81.3054 285.242C93.5773 291.334 106.811 293.012 120.192 293.647L120.2 293.647L120.208 293.648C124.596 293.721 128.984 293.431 133.324 292.78C137.334 292.329 141.287 291.473 145.123 290.225C149.191 289.065 152.836 286.783 155.645 283.658Z" fill="#DAE2EB" stroke="black"/>
<path d="M74.0052 288.673C73.8211 290.593 73.6402 292.479 73.3301 294.34C71.7389 293.068 70.7521 291.607 70.2261 289.988C69.6301 288.153 69.6133 286.075 70.0368 283.773L70.037 283.772C70.618 280.571 71.004 277.337 71.193 274.089L71.193 274.089C71.4274 269.931 73.7127 267.397 77.1783 265.332C82.4869 262.507 88.3168 260.789 94.3129 260.283L94.3244 260.283L94.3358 260.281C110.13 258.213 126.192 260.019 141.128 265.541L141.128 265.541L141.136 265.544C145.289 266.997 149.127 269.226 152.443 272.111L152.455 272.122L152.467 272.131C153.933 273.255 155.034 274.784 155.634 276.527C156.223 278.238 156.303 280.082 155.866 281.836C153.064 285.383 149.204 287.954 144.842 289.176L144.832 289.179L144.822 289.182C141.045 290.412 137.152 291.255 133.204 291.698L133.194 291.699L133.185 291.701C128.899 292.344 124.566 292.631 120.232 292.559C106.895 291.925 93.8351 290.255 81.7563 284.26C80.7655 283.734 79.8034 283.156 78.874 282.528L78.8671 282.524L78.86 282.519C78.3982 282.229 77.9687 281.921 77.49 281.577L77.4546 281.551C76.9877 281.215 76.4771 280.847 75.8636 280.445L75.2585 280.049L75.1015 280.755C74.555 283.211 74.2965 285.657 74.0645 288.056C74.0446 288.262 74.0249 288.468 74.0052 288.673ZM98.2412 262.179L98.2335 262.18L98.2258 262.181C92.6368 263.025 86.9543 263.951 82.1084 267.323C79.6492 269.034 78.3092 271.205 78.2269 273.503C78.1448 275.798 79.3221 278.093 81.629 280.046L81.635 280.051L81.6412 280.056C84.8892 282.636 88.5556 284.642 92.4818 285.989C101.396 289.073 110.775 290.608 120.21 290.528C123.789 290.65 127.372 290.411 130.904 289.816L130.904 289.816L130.911 289.814C135.97 288.883 141.112 287.901 145.578 284.836C147.843 283.281 149.213 281.302 149.457 279.142C149.702 276.975 148.801 274.743 146.761 272.719L146.755 272.712L146.748 272.706C143.628 269.826 139.91 267.666 135.859 266.379C126.878 263.13 117.374 261.556 107.822 261.735H107.798C104.606 261.652 101.412 261.801 98.2412 262.179Z" fill="#DAE2EB" stroke="black"/>
<path d="M92.4962 288.123L109.496 292.118L115.496 289.122L108.996 286.126L92.9962 273.143L77.996 275.639L79.4961 279.634L82.9961 282.63L92.4962 288.123Z" fill="black"/>
<path d="M107.482 260.698C116.942 260.533 126.353 262.098 135.247 265.316C139.232 266.58 142.889 268.704 145.958 271.537C149.881 275.431 149.492 279.749 144.844 282.886C140.196 286.023 135.442 286.852 130.369 287.786C126.867 288.376 123.314 288.612 119.765 288.491C110.383 288.572 101.057 287.046 92.1935 283.979C88.3208 282.651 84.7045 280.672 81.5009 278.128C77.047 274.356 77.1354 269.475 81.9427 266.197C86.75 262.919 92.2996 261.985 97.8492 261.139C101.045 260.756 104.264 260.609 107.482 260.698Z" fill="white"/>
<path d="M209.837 270.634C249.866 270.634 282.316 238.313 282.316 198.443C282.316 158.573 249.866 126.252 209.837 126.252C169.808 126.252 137.358 158.573 137.358 198.443C137.358 238.313 169.808 270.634 209.837 270.634Z" fill="#DAE2EB" stroke="black" stroke-width="8.27235"/>
<path d="M221.467 275.361C263.221 269.517 292.221 230.426 286.241 188.049C280.261 145.671 241.565 116.055 199.811 121.9C158.057 127.744 129.057 166.835 135.037 209.212C141.017 251.59 179.713 281.205 221.467 275.361Z" fill="black"/>
<path d="M210.638 268.646C250.093 268.646 282.079 236.77 282.079 197.449C282.079 158.128 250.093 126.252 210.638 126.252C171.182 126.252 139.197 158.128 139.197 197.449C139.197 236.77 171.182 268.646 210.638 268.646Z" fill="#DAE2EB"/>
<path fill-rule="evenodd" clip-rule="evenodd" d="M139.296 203.223C139.867 239.704 171.911 268.585 210.869 267.728C249.827 266.871 280.945 236.601 280.375 200.12C280.334 197.596 280.144 195.11 279.812 192.667C279.787 228.687 248.889 258.396 210.3 259.244C174.036 260.042 143.763 235.073 139.29 202.192C139.29 202.535 139.29 202.879 139.296 203.223Z" fill="white"/>
<path fill-rule="evenodd" clip-rule="evenodd" d="M269.744 194.174C269.258 166.111 242.044 143.896 208.956 144.554C175.87 145.214 149.44 168.497 149.924 196.56C149.958 198.5 150.119 200.414 150.402 202.293C150.423 174.585 176.665 151.732 209.44 151.08C240.24 150.466 265.95 169.673 269.751 194.967C269.749 194.703 269.749 194.439 269.744 194.174Z" fill="white"/>
<path fill-rule="evenodd" clip-rule="evenodd" d="M210.454 138.957C240.014 138.957 264.833 158.777 271.53 185.462C262.965 161.664 239.61 144.582 212.166 144.582C177.504 144.582 149.445 171.832 149.497 205.448C149.505 210.395 150.12 215.206 151.277 219.811C149.025 213.551 147.796 206.825 147.785 199.823C147.733 166.207 175.791 138.957 210.454 138.957Z" fill="black"/>
<path fill-rule="evenodd" clip-rule="evenodd" d="M237.614 203.479L194.928 227.824C192.627 229.191 189.75 227.38 188.481 223.78C188.185 222.941 187.998 222.048 187.933 221.15L186.642 169.648C186.739 165.797 189.531 162.744 192.829 162.829C193.595 162.848 194.342 163.042 195.028 163.397L239.916 190.553C241.993 192.078 242.313 196.181 240.717 199.719C239.951 201.453 238.834 202.809 237.614 203.479Z" fill="white"/>
<path fill-rule="evenodd" clip-rule="evenodd" d="M235.035 207.872L194.573 230.742C192.388 232.027 189.658 230.319 188.461 226.929C188.181 226.139 188.006 225.298 187.946 224.454L186.642 175.981C186.716 172.357 189.313 169.487 192.399 169.568C193.116 169.588 193.814 169.77 194.458 170.106L237.03 195.707C239.029 197.146 239.402 201.008 237.937 204.336C237.235 205.968 236.19 207.244 235.035 207.872Z" fill="black"/>
<path fill-rule="evenodd" clip-rule="evenodd" d="M201.605 178.852C197.74 176.646 192.924 179.425 192.924 183.863V216.873C192.924 221.31 197.74 224.091 201.605 221.885L230.529 205.378C234.418 203.161 234.418 197.576 230.529 195.357L201.605 178.852Z" fill="white"/>
<path d="M83.0791 288.736L85.6169 281.699L86.8002 278.861L89.2766 273.395L91.772 271.639L95.2334 266.202L93.3268 270.846L87.1017 281.681L85.1115 290.362L81.5705 299.714L78.0277 303.411L78.9463 301.376L81.3069 297.197L80.7773 296.126L80.8882 294.497L82.6949 291.277L81.4028 289.68L83.0791 288.736Z" fill="black"/>
<path d="M78.9774 301.318L79.6509 301.582L82.1886 297.464L81.783 296.146L81.9009 294.676L83.9208 291.226L82.7482 289.947L83.8979 289.117C83.8979 289.117 87.6044 278.462 90.4073 273.916L92.5764 272.146L93.3235 270.853L95.2301 266.209L91.7611 271.642L89.2657 273.398L85.6061 281.702L83.0653 288.747L81.3919 289.684L82.684 291.281L80.8774 294.501L80.7634 296.138L81.293 297.208L78.9638 301.33L78.9774 301.318Z" fill="#DAE2EB"/>
</svg>
