<svg width="378" height="319" viewBox="0 0 378 319" fill="none" xmlns="http://www.w3.org/2000/svg">
<path fill-rule="evenodd" clip-rule="evenodd" d="M10.0045 15.0778L14.9952 15.0778L14.9952 20.0678L10.0045 20.0678L10.0045 25.0703L14.9952 25.0703L14.9952 30.0727L10.0045 30.0727L10.0045 35.0627L5.00266 35.0627L5.00266 40.0651L10.0045 40.0651L10.0045 35.0751L14.9952 35.0751L14.9952 40.0651L10.0045 40.0651L10.0045 45.0703L15.0072 45.0703L15.0072 40.0679L19.9971 40.0679L19.9971 35.0779L24.9997 35.0779L24.9997 40.0679L30.0024 40.0679L30.0024 35.0779L34.9923 35.0779L34.9922 40.0679L30.0024 40.0679L30.0024 45.0703L35.0051 45.0703L35.0051 40.0679L39.9949 40.0679L39.9949 45.0703L45 45.0703L45 40.0679L39.9973 40.0679L39.9973 35.0779L45 35.0779L45 30.0751L39.9973 30.0751L39.9973 25.0727L45 25.0727L45 20.0703L39.9973 20.0703L39.9973 15.0803L39.9973 15.0678L35.0075 15.0678L35.0075 10.0778L30.0048 10.0778L30.0048 15.0678L25.0029 15.0678L25.0029 10.0778L19.9995 10.0778L19.9995 15.0678L15.0096 15.0678L15.0096 10.0778L10.0069 10.0778L10.0069 15.0678L5.00509 15.0678L5.00509 20.0703L10.0069 20.0703L10.0069 15.0778L10.0045 15.0778ZM39.9973 15.0655L39.9973 10.0751L45 10.0751L45 15.0778L39.9973 15.0778L39.9973 15.0655ZM25.0029 40.0679L25.0029 45.0703L19.9995 45.0703L19.9995 40.0679L25.0029 40.0679ZM10.0045 30.0751L10.0045 25.0727L5.00266 25.0727L5.00266 30.0751L10.0045 30.0751ZM35.0075 35.0655L39.9973 35.0655L39.9973 30.0751L35.0075 30.0751L35.0075 35.0655ZM34.9947 10.0751L34.9947 5.07298L30.0048 5.07298L30.0048 10.0751L25.0029 10.0751L25.003 5.07298L19.9995 5.07298L19.9995 10.0751L14.9976 10.0751L14.9976 5.07298L10.0069 5.07298L10.0069 10.0751L5.00509 10.0751L5.00509 5.07298L10.0069 5.07298L10.0069 0.0703095L15.0096 0.0703099L15.0096 5.07298L19.9995 5.07298L19.9995 0.0703104L25.003 0.0703108L25.003 5.07298L30.0048 5.07298L30.0048 0.0703112L35.0075 0.0703116L35.0075 5.07298L39.9973 5.07298L39.9973 0.0703121L45 0.0703125L45 5.07298L39.9973 5.07298L39.9973 10.0751L34.9947 10.0751ZM15.0096 20.0678L15.0096 25.0703L19.9995 25.0703L19.9995 20.0678L15.0096 20.0678ZM25.0029 20.0679L25.0029 15.0778L19.9995 15.0778L19.9995 20.0678L25.0029 20.0679ZM30.0048 20.0679L25.0029 20.0679L25.0029 25.0703L30.0048 25.0703L30.0048 20.0679ZM30.0048 20.0679L34.9955 20.0679L34.9955 15.0778L30.0048 15.0778L30.0048 20.0679ZM30.0048 30.0751L34.9955 30.0751L34.9955 25.0727L30.0048 25.0727L30.0048 30.0751ZM25.0029 30.0751L25.0029 35.0655L30.0048 35.0655L30.0048 30.0751L25.0029 30.0751ZM19.9971 30.0751L24.9997 30.0751L24.9997 25.0727L19.9971 25.0727L19.9971 30.0751ZM19.9971 30.0751L15.0072 30.0751L15.0072 35.0655L19.9971 35.0655L19.9971 30.0751ZM35.0075 25.0727L35.0075 20.0703L39.9973 20.0703L39.9973 25.0727L35.0075 25.0727ZM4.4648e-07 40.0679L5.00266 40.0679L5.00266 45.0703L0 45.0703L4.4648e-07 40.0679ZM5.00266 30.0751L1.33836e-06 30.0751L8.9185e-07 35.0779L5.00266 35.0779L5.00266 30.0751ZM2.23153e-06 20.0678L5.00266 20.0678L5.00266 25.0703L1.78505e-06 25.0703L2.23153e-06 20.0678ZM5.00267 10.0751L3.12341e-06 10.0751L2.6769e-06 15.0778L5.00267 15.0778L5.00267 10.0751ZM5.00267 0.0703091L4.01636e-06 0.0703086L3.56986e-06 5.07298L5.00267 5.07298L5.00267 0.0703091Z" fill="#2F2FF4"/>
<path d="M333 45H378V0C353.148 0 333 20.1476 333 45Z" fill="#1F242C"/>
<path fill-rule="evenodd" clip-rule="evenodd" d="M50.0024 135.07H45V90.0703H50.0024V135.07ZM65.005 135.07H70.0074V90.0703H65.005V135.07ZM80.0075 135.07H75.0051V90.0703H80.0075V135.07ZM90 135.07H84.9976V90.0703H90V135.07ZM55.0049 135.07H60.0073V90.0703H55.0049V135.07Z" fill="white"/>
<rect width="45" height="45" transform="matrix(-1 0 0 1 288 274)" fill="#1F242C"/>
</svg>
