<svg width="375" height="313" viewBox="0 0 375 313" fill="none" xmlns="http://www.w3.org/2000/svg">
<path fill-rule="evenodd" clip-rule="evenodd" d="M364.995 207.992H360.005V203.002H364.995V197.999H360.005V192.998H364.995V188.008H369.997V183.005H364.995V187.995H360.005V183.005H364.995V178H359.992V183.003H355.002V187.993H350V183.003H344.998V187.993H340.008V183.003H344.998V178H339.995V183.003H335.005V178H330V183.003H335.003V187.993H330V192.995H335.003V197.998H330V203H335.003V208.002H339.993V212.992H344.994V208.002H349.997V212.992H355V208.002H359.99V212.992H364.992V208.002H369.995V203H364.992V207.992H364.995ZM335.003 208.005V212.995H330V207.992H335.003V208.005ZM349.997 183.003V178H355V183.003H349.997ZM364.995 192.995V197.997H369.997V192.995H364.995ZM339.993 188.005H335.003V192.995H339.993V188.005ZM340.005 212.995V217.997H344.995V212.995H349.997V217.997H355V212.995H360.002V217.997H364.992V212.995H369.995V217.997H364.992V222.999H359.99V217.997H355V222.999H349.997V217.997H344.995V222.999H339.993V217.997H335.003V222.999H330V217.997H335.003V212.995H340.005ZM359.99 203.002V197.999H355V203.002H359.99ZM349.997 203.002V207.992H355V203.002H349.997ZM344.994 203.002H349.997V197.999H344.994V203.002ZM344.994 203.002H340.005V207.992H344.994V203.002ZM344.994 192.995H340.005V197.997H344.994V192.995ZM349.997 192.995V188.005H344.994V192.995H349.997ZM355.003 192.995H350V197.997H355.003V192.995ZM355.003 192.995H359.993V188.005H355.003V192.995ZM339.993 197.997V203H335.003V197.997H339.993ZM375 183.003H369.997V178H375V183.003ZM369.997 192.995H375V187.993H369.997V192.995ZM375 203.002H369.997V197.999H375V203.002ZM369.997 212.995H375V207.992H369.997V212.995ZM369.997 223H375V217.997H369.997V223Z" fill="#DEE3E9"/>
<path fill-rule="evenodd" clip-rule="evenodd" d="M180 50.0028V45H225V50.0028H180ZM180 54.9999V60.0003H225V54.9999H180ZM180 64.9998V70.0002H225V64.9998H180ZM180 80.0001V74.9997H225V80.0001H180ZM180 85.0004V90H225V85.0004H180Z" fill="#6A70F6"/>
<path fill-rule="evenodd" clip-rule="evenodd" d="M84.998 0H90V44.9992H84.998V0ZM80.0001 0.000808409H75.0005V45H80.0001V0.000808409ZM70.0002 0.000808409H64.9998V45H70.0002V0.000808409ZM54.9999 0.000808409H60.0003V45H54.9999V0.000808409ZM49.9996 0.000808409H45V45H49.9996V0.000808409Z" fill="#6A70F6"/>
<path fill-rule="evenodd" clip-rule="evenodd" d="M44.9992 273.003V268H0V273.003H44.9992ZM44.9992 288.005V293.007H0V288.005H44.9992ZM44.9992 303.007V298.005H0V303.007H44.9992ZM45 313V307.997H0.000802285V313H45ZM44.9992 278.005V283.007H0V278.005H44.9992Z" fill="#DEE3E9"/>
</svg>
