<svg width="464" height="572" viewBox="0 0 464 572" fill="none" xmlns="http://www.w3.org/2000/svg">
<path fill-rule="evenodd" clip-rule="evenodd" d="M412.995 256.992H408.005V252.002H412.995V246.999H408.005V241.998H412.995V237.008H417.997V232.005H412.995V236.995H408.005V232.005H412.995V227H407.992V232.003H403.002V236.993H398V232.003H392.998V236.993H388.008V232.003H392.998V227H387.995V232.003H383.005V227H378V232.003H383.003V236.993H378V241.995H383.003V246.998H378V252H383.003V257.002H387.993V261.992H392.994V257.002H397.997V261.992H403V257.002H407.99V261.992H412.992V257.002H417.995V252H412.992V256.992H412.995ZM383.003 257.005V261.995H378V256.992H383.003V257.005ZM397.997 232.003V227H403V232.003H397.997ZM412.995 241.995V246.997H417.997V241.995H412.995ZM387.993 237.005H383.003V241.995H387.993V237.005ZM388.005 261.995V266.997H392.995V261.995H397.997V266.997H403V261.995H408.002V266.997H412.992V261.995H417.995V266.997H412.992V271.999H407.99V266.997H403V271.999H397.997V266.997H392.995V271.999H387.993V266.997H383.003V271.999H378V266.997H383.003V261.995H388.005ZM407.99 252.002V246.999H403V252.002H407.99ZM397.997 252.002V256.992H403V252.002H397.997ZM392.994 252.002H397.997V246.999H392.994V252.002ZM392.994 252.002H388.005V256.992H392.994V252.002ZM392.994 241.995H388.005V246.997H392.994V241.995ZM397.997 241.995V237.005H392.994V241.995H397.997ZM403.003 241.995H398V246.997H403.003V241.995ZM403.003 241.995H407.993V237.005H403.003V241.995ZM387.993 246.997V252H383.003V246.997H387.993ZM423 232.003H417.997V227H423V232.003ZM417.997 241.995H423V236.993H417.997V241.995ZM423 252.002H417.997V246.999H423V252.002ZM417.997 261.995H423V256.992H417.997V261.995ZM417.997 272H423V266.997H417.997V272Z" fill="#DEE3E9"/>
<path fill-rule="evenodd" clip-rule="evenodd" d="M332.999 502V497C357.851 497 377.999 517.148 377.999 542H372.999C372.999 519.908 355.091 502 332.999 502ZM332.999 512V507C352.329 507 367.999 522.67 367.999 542H362.999C362.999 525.432 349.567 512 332.999 512ZM332.999 517V522C344.044 522 352.999 530.955 352.999 542H357.999C357.999 528.193 346.807 517 332.999 517ZM332.999 532V527C341.284 527 347.999 533.715 347.999 542H342.999C342.999 536.477 338.521 532 332.999 532ZM332.999 542V537C335.761 537 337.999 539.238 337.999 542H332.999Z" fill="#6A70F6"/>
<path fill-rule="evenodd" clip-rule="evenodd" d="M213.524 497H210V500.525L251.474 542H255V538.475L213.524 497ZM244.4 542H237.325L210 514.675V507.6L244.4 542ZM223.175 542H230.249L210 521.75V528.825L223.175 542ZM210 542V535.9L216.099 542H210ZM255 531.4V524.325L227.675 497H220.6L255 531.4ZM255 510.175V517.25L234.75 497H241.824L255 510.175ZM248.9 497L255 503.099V497H248.9Z" fill="#F2F5F9"/>
<path fill-rule="evenodd" clip-rule="evenodd" d="M199 117.003V112H244V117.003H199ZM199 122V127H244V122H199ZM199 132V137H244V132H199ZM199 147V142H244V147H199ZM199 152V157H244V152H199Z" fill="#6A70F6"/>
<path fill-rule="evenodd" clip-rule="evenodd" d="M78.998 452H84V496.999H78.998V452ZM74.0001 452.001H69.0005V497H74.0001V452.001ZM64.0002 452.001H58.9998V497H64.0002V452.001ZM48.9999 452.001H54.0003V497H48.9999V452.001ZM43.9996 452.001H39V497H43.9996V452.001Z" fill="#6A70F6"/>
<path fill-rule="evenodd" clip-rule="evenodd" d="M128.999 322.003V317H84V322.003H128.999ZM128.999 337.005V342.007H84V337.005H128.999ZM128.999 352.007V347.005H84V352.007H128.999ZM129 362V356.997H84.0008V362H129ZM128.999 327.005V332.007H84V327.005H128.999Z" fill="#DEE3E9"/>
</svg>
