<svg width="287" height="332" viewBox="0 0 287 332" fill="none" xmlns="http://www.w3.org/2000/svg">
<path fill-rule="evenodd" clip-rule="evenodd" d="M9.88525 15.0075L14.8163 15.0075L14.8163 19.9975L9.88525 19.9975L9.88525 25L14.8163 25L14.8163 30.0024L9.88525 30.0024L9.88525 34.9924L4.94311 34.9924L4.94311 39.9948L9.88525 39.9948L9.88525 35.0048L14.8163 35.0048L14.8163 39.9948L9.88525 39.9948L9.88525 45L14.8282 45L14.8282 39.9976L19.7584 39.9976L19.7584 35.0076L24.7013 35.0076L24.7013 39.9976L29.6442 39.9976L29.6442 35.0076L34.5745 35.0076L34.5745 39.9976L29.6442 39.9976L29.6442 45L34.5872 45L34.5872 39.9976L39.5174 39.9976L39.5174 45L44.4627 45L44.4627 39.9976L39.5198 39.9976L39.5198 35.0076L44.4627 35.0076L44.4627 30.0048L39.5198 30.0048L39.5198 25.0024L44.4627 25.0024L44.4627 19.9999L39.5198 19.9999L39.5198 15.0099L39.5198 14.9975L34.5895 14.9975L34.5895 10.0075L29.6466 10.0075L29.6466 14.9975L24.7045 14.9975L24.7045 10.0075L19.7608 10.0075L19.7608 14.9975L14.8306 14.9975L14.8306 10.0075L9.88762 10.0075L9.88762 14.9975L4.9455 14.9975L4.9455 19.9999L9.88762 19.9999L9.88762 15.0075L9.88525 15.0075ZM39.5198 14.9952L39.5198 10.0048L44.4627 10.0048L44.4627 15.0075L39.5198 15.0075L39.5198 14.9952ZM24.7045 39.9976L24.7045 45L19.7608 45L19.7608 39.9976L24.7045 39.9976ZM9.88525 30.0048L9.88525 25.0024L4.94311 25.0024L4.94311 30.0048L9.88525 30.0048ZM34.5895 34.9952L39.5198 34.9952L39.5198 30.0048L34.5895 30.0048L34.5895 34.9952ZM34.5769 10.0048L34.5769 5.00267L29.6466 5.00267L29.6466 10.0048L24.7045 10.0048L24.7045 5.00267L19.7608 5.00267L19.7608 10.0048L14.8187 10.0048L14.8187 5.00267L9.88762 5.00267L9.88762 10.0048L4.9455 10.0048L4.9455 5.00267L9.88762 5.00267L9.88762 -3.05847e-06L14.8306 -2.62122e-06L14.8306 5.00267L19.7608 5.00267L19.7608 -2.1851e-06L24.7045 -1.74778e-06L24.7045 5.00267L29.6466 5.00267L29.6466 -1.31061e-06L34.5895 -8.73367e-07L34.5895 5.00267L39.5198 5.00267L39.5198 -4.37244e-07L44.4627 0L44.4627 5.00267L39.5198 5.00267L39.5198 10.0048L34.5769 10.0048ZM14.8306 19.9975L14.8306 25L19.7608 25L19.7608 19.9975L14.8306 19.9975ZM24.7045 19.9975L24.7045 15.0075L19.7608 15.0075L19.7608 19.9975L24.7045 19.9975ZM29.6466 19.9975L24.7045 19.9975L24.7045 25L29.6466 25L29.6466 19.9975ZM29.6466 19.9975L34.5777 19.9975L34.5777 15.0075L29.6466 15.0075L29.6466 19.9975ZM29.6466 30.0048L34.5777 30.0048L34.5777 25.0024L29.6466 25.0024L29.6466 30.0048ZM24.7045 30.0048L24.7045 34.9952L29.6466 34.9952L29.6466 30.0048L24.7045 30.0048ZM19.7584 30.0048L24.7013 30.0048L24.7013 25.0024L19.7584 25.0024L19.7584 30.0048ZM19.7584 30.0048L14.8282 30.0048L14.8282 34.9952L19.7584 34.9952L19.7584 30.0048ZM34.5895 25.0024L34.5895 19.9999L39.5198 19.9999L39.5198 25.0024L34.5895 25.0024ZM0.000194982 39.9976L4.94311 39.9976L4.94311 45L0.00019455 45L0.000194982 39.9976ZM4.94311 30.0048L0.000195845 30.0048L0.000195413 35.0076L4.94311 35.0076L4.94311 30.0048ZM0.00019671 19.9975L4.94311 19.9975L4.94311 25L0.000196278 25L0.00019671 19.9975ZM4.94311 10.0048L0.000197573 10.0048L0.000197141 15.0075L4.94311 15.0075L4.94311 10.0048ZM4.94311 -3.49585e-06L0.000198438 -3.93309e-06L0.000198005 5.00267L4.94311 5.00267L4.94311 -3.49585e-06Z" fill="#2F2FF4"/>
<path d="M242.074 107H286.536V62C261.981 62 242.074 82.1476 242.074 107Z" fill="#1F242C"/>
<path fill-rule="evenodd" clip-rule="evenodd" d="M246.976 332H241.97V287H246.976V332ZM261.988 332H266.994V287H261.988V332ZM277.001 332H271.995V287H277.001V332ZM287 332H281.994V287H287V332ZM251.982 332H256.987V287H251.982V332Z" fill="white"/>
</svg>
