<svg width="375" height="135" viewBox="0 0 375 135" fill="none" xmlns="http://www.w3.org/2000/svg">
<path fill-rule="evenodd" clip-rule="evenodd" d="M10.0045 60.0075L14.9952 60.0075L14.9952 64.9975L10.0045 64.9975L10.0045 70L14.9952 70L14.9952 75.0024L10.0045 75.0024L10.0045 79.9924L5.00266 79.9924L5.00266 84.9948L10.0045 84.9948L10.0045 80.0048L14.9952 80.0048L14.9952 84.9948L10.0045 84.9948L10.0045 90L15.0072 90L15.0072 84.9976L19.9971 84.9976L19.9971 80.0076L24.9997 80.0076L24.9997 84.9976L30.0024 84.9976L30.0024 80.0076L34.9923 80.0076L34.9923 84.9976L30.0024 84.9976L30.0024 90L35.0051 90L35.0051 84.9976L39.9949 84.9976L39.9949 90L45 90L45 84.9976L39.9973 84.9976L39.9973 80.0076L45 80.0076L45 75.0048L39.9973 75.0048L39.9973 70.0024L45 70.0024L45 64.9999L39.9973 64.9999L39.9973 60.0099L39.9973 59.9975L35.0075 59.9975L35.0075 55.0075L30.0048 55.0075L30.0048 59.9975L25.0029 59.9975L25.0029 55.0075L19.9995 55.0075L19.9995 59.9975L15.0096 59.9975L15.0096 55.0075L10.0069 55.0075L10.0069 59.9975L5.00509 59.9975L5.00509 64.9999L10.0069 64.9999L10.0069 60.0075L10.0045 60.0075ZM39.9973 59.9952L39.9973 55.0048L45 55.0048L45 60.0075L39.9973 60.0075L39.9973 59.9952ZM25.0029 84.9976L25.0029 90L19.9995 90L19.9995 84.9976L25.0029 84.9976ZM10.0045 75.0048L10.0045 70.0024L5.00267 70.0024L5.00267 75.0048L10.0045 75.0048ZM35.0075 79.9952L39.9973 79.9952L39.9973 75.0048L35.0075 75.0048L35.0075 79.9952ZM34.9947 55.0048L34.9947 50.0027L30.0048 50.0027L30.0048 55.0048L25.0029 55.0048L25.003 50.0027L19.9995 50.0027L19.9995 55.0048L14.9976 55.0048L14.9976 50.0027L10.0069 50.0027L10.0069 55.0048L5.00509 55.0048L5.00509 50.0027L10.0069 50.0027L10.0069 45L15.0096 45L15.0096 50.0027L19.9995 50.0027L19.9995 45L25.003 45L25.003 50.0027L30.0048 50.0027L30.0048 45L35.0075 45L35.0075 50.0027L39.9973 50.0027L39.9973 45L45 45L45 50.0027L39.9973 50.0027L39.9973 55.0048L34.9947 55.0048ZM15.0096 64.9975L15.0096 70L19.9995 70L19.9995 64.9975L15.0096 64.9975ZM25.0029 64.9975L25.0029 60.0075L19.9995 60.0075L19.9995 64.9975L25.0029 64.9975ZM30.0048 64.9975L25.0029 64.9975L25.0029 70L30.0048 70L30.0048 64.9975ZM30.0048 64.9975L34.9955 64.9975L34.9955 60.0075L30.0048 60.0075L30.0048 64.9975ZM30.0048 75.0048L34.9955 75.0048L34.9955 70.0024L30.0048 70.0024L30.0048 75.0048ZM25.0029 75.0048L25.0029 79.9952L30.0048 79.9952L30.0048 75.0048L25.0029 75.0048ZM19.9971 75.0048L24.9997 75.0048L24.9997 70.0024L19.9971 70.0024L19.9971 75.0048ZM19.9971 75.0048L15.0072 75.0048L15.0072 79.9952L19.9971 79.9952L19.9971 75.0048ZM35.0075 70.0024L35.0075 64.9999L39.9973 64.9999L39.9973 70.0024L35.0075 70.0024ZM2.9744e-07 84.9976L5.00266 84.9976L5.00266 90L-1.34474e-07 90L2.9744e-07 84.9976ZM5.00267 75.0048L1.16022e-06 75.0048L7.28282e-07 80.0076L5.00266 80.0076L5.00267 75.0048ZM2.02426e-06 64.9975L5.00267 64.9975L5.00267 70L1.59235e-06 70L2.02426e-06 64.9975ZM5.00267 55.0048L2.88705e-06 55.0048L2.4551e-06 60.0075L5.00267 60.0075L5.00267 55.0048ZM5.00267 45L3.75087e-06 45L3.31893e-06 50.0027L5.00267 50.0027L5.00267 45Z" fill="#2F2FF4"/>
<path d="M286 45H330V0C305.7 0 286 20.1476 286 45Z" fill="#1F242C"/>
<path fill-rule="evenodd" clip-rule="evenodd" d="M335.002 135H330V90H335.002V135ZM350.005 135H355.007V90H350.005V135ZM365.008 135H360.005V90H365.008V135ZM375 135H369.998V90H375V135ZM340.005 135H345.007V90H340.005V135Z" fill="white"/>
</svg>
