<svg width="374" height="294" viewBox="0 0 374 294" fill="none" xmlns="http://www.w3.org/2000/svg">
<path fill-rule="evenodd" clip-rule="evenodd" d="M0 5.00006V0C24.8524 0 45 20.1475 45 45H40C40 22.9076 22.0924 5.00006 0 5.00006ZM0 15.0001V10.0001C19.33 10.0001 35 25.67 35 45H30C30 28.4325 16.5676 15.0001 0 15.0001ZM0 20.0002V25.0002C11.0452 25.0002 20 33.955 20 45H25C25 31.1925 13.8076 20.0002 0 20.0002ZM0 34.9999V30.0003C8.2852 30.0003 15 36.715 15 45H10C10 39.4775 5.5224 34.9999 0 34.9999ZM0 45V39.9999C2.7624 39.9999 5 42.2375 5 45H0Z" fill="#2F2FF4"/>
<path fill-rule="evenodd" clip-rule="evenodd" d="M261.004 60.0075L265.994 60.0075L265.994 64.9975L261.004 64.9975L261.004 70L265.994 70L265.994 75.0024L261.004 75.0024L261.004 79.9924L256.002 79.9924L256.002 84.9948L261.004 84.9948L261.004 80.0048L265.994 80.0048L265.994 84.9948L261.004 84.9948L261.004 90L266.006 90L266.006 84.9976L270.996 84.9976L270.996 80.0076L275.999 80.0076L275.999 84.9976L281.001 84.9976L281.001 80.0076L285.991 80.0076L285.991 84.9976L281.001 84.9976L281.001 90L286.004 90L286.004 84.9976L290.994 84.9976L290.994 90L295.999 90L295.999 84.9976L290.996 84.9976L290.996 80.0076L295.999 80.0076L295.999 75.0048L290.996 75.0048L290.996 70.0024L295.999 70.0024L295.999 64.9999L290.996 64.9999L290.996 60.0099L290.996 59.9975L286.007 59.9975L286.007 55.0075L281.004 55.0075L281.004 59.9975L276.002 59.9975L276.002 55.0075L270.999 55.0075L270.999 59.9975L266.009 59.9975L266.009 55.0075L261.006 55.0075L261.006 59.9975L256.004 59.9975L256.004 64.9999L261.006 64.9999L261.006 60.0075L261.004 60.0075ZM290.996 59.9952L290.996 55.0048L295.999 55.0048L295.999 60.0075L290.996 60.0075L290.996 59.9952ZM276.002 84.9976L276.002 90L270.998 90L270.998 84.9976L276.002 84.9976ZM261.004 75.0048L261.004 70.0024L256.002 70.0024L256.002 75.0048L261.004 75.0048ZM286.007 79.9952L290.996 79.9952L290.996 75.0048L286.007 75.0048L286.007 79.9952ZM285.994 55.0048L285.994 50.0027L281.004 50.0027L281.004 55.0048L276.002 55.0048L276.002 50.0027L270.999 50.0027L270.999 55.0048L265.997 55.0048L265.997 50.0027L261.006 50.0027L261.006 55.0048L256.004 55.0048L256.004 50.0027L261.006 50.0027L261.006 45L266.009 45L266.009 50.0027L270.999 50.0027L270.999 45L276.002 45L276.002 50.0027L281.004 50.0027L281.004 45L286.007 45L286.007 50.0027L290.996 50.0027L290.996 45L295.999 45L295.999 50.0027L290.996 50.0027L290.996 55.0048L285.994 55.0048ZM266.009 64.9975L266.009 70L270.999 70L270.999 64.9975L266.009 64.9975ZM276.002 64.9975L276.002 60.0075L270.999 60.0075L270.999 64.9975L276.002 64.9975ZM281.004 64.9975L276.002 64.9975L276.002 70L281.004 70L281.004 64.9975ZM281.004 64.9975L285.994 64.9975L285.994 60.0075L281.004 60.0075L281.004 64.9975ZM281.004 75.0048L285.994 75.0048L285.994 70.0024L281.004 70.0024L281.004 75.0048ZM276.002 75.0048L276.002 79.9952L281.004 79.9952L281.004 75.0048L276.002 75.0048ZM270.996 75.0048L275.999 75.0048L275.999 70.0024L270.996 70.0024L270.996 75.0048ZM270.996 75.0048L266.006 75.0048L266.006 79.9952L270.996 79.9952L270.996 75.0048ZM286.007 70.0024L286.007 64.9999L290.996 64.9999L290.996 70.0024L286.007 70.0024ZM250.999 84.9976L256.002 84.9976L256.002 90L250.999 90L250.999 84.9976ZM256.002 75.0048L250.999 75.0048L250.999 80.0076L256.002 80.0076L256.002 75.0048ZM250.999 64.9975L256.002 64.9975L256.002 70L250.999 70L250.999 64.9975ZM256.002 55.0048L250.999 55.0048L250.999 60.0075L256.002 60.0075L256.002 55.0048ZM256.002 45L250.999 45L250.999 50.0027L256.002 50.0027L256.002 45Z" fill="#DFE3E8"/>
<path fill-rule="evenodd" clip-rule="evenodd" d="M50.0015 249H44.999V204H50.0015V249ZM65.004 249H70.0064V204H65.004V249ZM80.0065 249H75.0041V204H80.0065V249ZM89.999 249H84.9966V204H89.999V249ZM55.0039 249H60.0064V204H55.0039V249Z" fill="white"/>
<path fill-rule="evenodd" clip-rule="evenodd" d="M373.999 288.998L373.999 294L328.999 294L328.999 288.998L373.999 288.998ZM373.999 273.995L373.999 268.993L328.999 268.993L328.999 273.995L373.999 273.995ZM373.999 258.992L373.999 263.995L328.999 263.995L328.999 258.992L373.999 258.992ZM373.999 249L373.999 254.002L328.999 254.002L328.999 249L373.999 249ZM373.999 283.995L373.999 278.993L328.999 278.993L328.999 283.995L373.999 283.995Z" fill="#2F2FF4"/>
</svg>
