  <svg width="308" height="493" viewBox="0 0 308 493" fill="none" xmlns="http://www.w3.org/2000/svg">
<path fill-rule="evenodd" clip-rule="evenodd" d="M0.498238 5.00006V0C25.3104 0 45.4254 20.1475 45.4254 45H40.4335C40.4335 22.9076 22.5549 5.00006 0.498238 5.00006ZM0.498238 15.0001V10.0001C19.797 10.0001 35.4416 25.67 35.4416 45H30.4497C30.4497 28.4325 17.039 15.0001 0.498238 15.0001ZM0.498238 20.0002V25.0002C11.5256 25.0002 20.4659 33.955 20.4659 45H25.4578C25.4578 31.1925 14.2835 20.0002 0.498238 20.0002ZM0.498238 34.9999V30.0003C8.77003 30.0003 15.474 36.715 15.474 45H10.4821C10.4821 39.4775 6.0117 34.9999 0.498238 34.9999ZM0.498238 45V39.9999C3.25617 39.9999 5.49015 42.2375 5.49015 45H0.498238Z" fill="#2F2FF4"/>
<path fill-rule="evenodd" clip-rule="evenodd" d="M228.134 98.0075L233.117 98.0075L233.117 102.998L228.134 102.998L228.134 108L233.117 108L233.117 113.002L228.134 113.002L228.134 117.992L223.14 117.992L223.14 122.995L228.134 122.995L228.134 118.005L233.117 118.005L233.117 122.995L228.134 122.995L228.134 128L233.129 128L233.129 122.998L238.11 122.998L238.11 118.008L243.105 118.008L243.105 122.998L248.099 122.998L248.099 118.008L253.081 118.008L253.081 122.998L248.099 122.998L248.099 128L253.094 128L253.094 122.998L258.076 122.998L258.076 128L263.073 128L263.073 122.998L258.078 122.998L258.078 118.008L263.073 118.008L263.073 113.005L258.078 113.005L258.078 108.002L263.073 108.002L263.073 103L258.078 103L258.078 98.0099L258.078 97.9975L253.096 97.9975L253.096 93.0075L248.102 93.0075L248.102 97.9975L243.108 97.9975L243.108 93.0075L238.113 93.0075L238.113 97.9975L233.131 97.9975L233.131 93.0075L228.136 93.0075L228.136 97.9975L223.143 97.9975L223.143 103L228.136 103L228.136 98.0075L228.134 98.0075ZM258.078 97.9952L258.078 93.0048L263.073 93.0048L263.073 98.0075L258.078 98.0075L258.078 97.9952ZM243.108 122.998L243.108 128L238.113 128L238.113 122.998L243.108 122.998ZM228.134 113.005L228.134 108.002L223.14 108.002L223.14 113.005L228.134 113.005ZM253.096 117.995L258.078 117.995L258.078 113.005L253.096 113.005L253.096 117.995ZM253.084 93.0048L253.084 88.0027L248.102 88.0027L248.102 93.0048L243.108 93.0048L243.108 88.0027L238.113 88.0027L238.113 93.0048L233.119 93.0048L233.119 88.0027L228.136 88.0027L228.136 93.0048L223.143 93.0048L223.143 88.0027L228.136 88.0027L228.136 83L233.131 83L233.131 88.0027L238.113 88.0027L238.113 83L243.108 83L243.108 88.0027L248.102 88.0027L248.102 83L253.096 83L253.096 88.0027L258.078 88.0027L258.078 83L263.073 83L263.073 88.0027L258.078 88.0027L258.078 93.0048L253.084 93.0048ZM233.131 102.998L233.131 108L238.113 108L238.113 102.998L233.131 102.998ZM243.108 102.998L243.108 98.0075L238.113 98.0075L238.113 102.998L243.108 102.998ZM248.102 102.998L243.108 102.998L243.108 108L248.102 108L248.102 102.998ZM248.102 102.998L253.084 102.998L253.084 98.0075L248.102 98.0075L248.102 102.998ZM248.102 113.005L253.084 113.005L253.084 108.002L248.102 108.002L248.102 113.005ZM243.108 113.005L243.108 117.995L248.102 117.995L248.102 113.005L243.108 113.005ZM238.11 113.005L243.105 113.005L243.105 108.002L238.11 108.002L238.11 113.005ZM238.11 113.005L233.129 113.005L233.129 117.995L238.11 117.995L238.11 113.005ZM253.096 108.002L253.096 103L258.078 103L258.078 108.002L253.096 108.002ZM218.146 122.998L223.14 122.998L223.14 128L218.146 128L218.146 122.998ZM223.14 113.005L218.146 113.005L218.146 118.008L223.14 118.008L223.14 113.005ZM218.146 102.998L223.14 102.998L223.14 108L218.146 108L218.146 102.998ZM223.14 93.0048L218.146 93.0048L218.146 98.0075L223.14 98.0075L223.14 93.0048ZM223.14 83L218.146 83L218.146 88.0027L223.14 88.0027L223.14 83Z" fill="#DFE3E8"/>
<path fill-rule="evenodd" clip-rule="evenodd" d="M76.3777 493H71.3834V448H76.3777V493ZM91.356 493H96.3503V448H91.356V493ZM106.334 493H101.34V448H106.334V493ZM116.311 493H111.316V448H116.311V493ZM81.3721 493H86.3664V448H81.3721V493Z" fill="white"/>
<path fill-rule="evenodd" clip-rule="evenodd" d="M308 442.998L308 448L263.073 448L263.073 442.998L308 442.998ZM308 427.995L308 422.993L263.073 422.993L263.073 427.995L308 427.995ZM308 412.992L308 417.995L263.073 417.995L263.073 412.992L308 412.992ZM308 403L308 408.002L263.073 408.002L263.073 403L308 403ZM308 437.995L308 432.993L263.073 432.993L263.073 437.995L308 437.995Z" fill="#2F2FF4"/>
</svg>
