<svg width="369" height="404" viewBox="0 0 369 404" fill="none" xmlns="http://www.w3.org/2000/svg">
<path fill-rule="evenodd" clip-rule="evenodd" d="M312.085 164.992H306.995V160.002H312.085V155H306.995V149.997H312.085V145.008H317.186V140.006H312.085V144.996H306.995V140.006H312.085V135H306.982V140.003H301.893V144.992H296.791V140.003H291.689V144.992H286.6V140.003H291.689V135H286.587V140.003H281.497V135H276.393V140.003H281.495V144.992H276.393V149.995H281.495V154.998H276.393V160H281.495V164.99V165.003H286.584V169.992H291.686V165.003H296.788V169.992H301.891V165.003H306.98V169.992H312.082V165.003H317.184V160H312.082V164.992H312.085ZM281.495 165.004V169.995H276.393V164.992H281.495V165.004ZM296.788 140.003V135H301.89V140.003H296.788ZM312.085 149.995V154.998H317.186V149.995H312.085ZM286.584 145.005H281.495V149.995H286.584V145.005ZM286.596 169.995V174.997H291.686V169.995H296.788V174.997H301.891V169.995H306.992V174.997H312.082V169.995H317.184V174.997H312.082V180H306.98V174.997H301.891V180H296.788V174.997H291.686V180H286.584V174.997H281.495V180H276.393V174.997H281.495V169.995H286.596ZM306.98 160.002V155H301.89V160.002H306.98ZM296.788 160.002V164.992H301.89V160.002H296.788ZM291.686 160.002H296.788V155H291.686V160.002ZM291.686 160.002H286.596V164.992H291.686V160.002ZM291.686 149.995H286.596V154.998H291.686V149.995ZM296.788 149.995V145.005H291.686V149.995H296.788ZM301.893 149.995H296.791V154.998H301.893V149.995ZM301.893 149.995H306.982V145.005H301.893V149.995ZM286.584 154.998V160H281.495V154.998H286.584ZM322.288 140.003H317.186V135H322.288V140.003ZM317.186 149.995H322.288V144.992H317.186V149.995ZM322.288 160.002H317.186V155H322.288V160.002ZM317.186 169.995H322.288V164.992H317.186V169.995ZM317.186 180H322.288V174.997H317.186V180Z" fill="#4038FF"/>
<path fill-rule="evenodd" clip-rule="evenodd" d="M35.6919 29.9925H30.6019V25.0025H35.6919V20H30.6019V14.9976H35.6919V10.0076H40.7933V5.00524H35.6919V9.99524H30.6019V5.00524H35.6919V0H30.5897V5.00243H25.5005V9.99244H20.3983V5.00243H15.2961V9.99244H10.2069V5.00243H15.2961V0H10.1938V5.00243H5.10468V0H0V5.00243H5.10223V9.99244H0V14.9952H5.10223V19.9976H0V25.0001H5.10223V29.9901V30.0025H10.1914V34.9925H15.2936V30.0025H20.395V34.9925H25.498V30.0025H30.5872V34.9925H35.6894V30.0025H40.7908V25.0001H35.6894V29.9925H35.6919ZM5.10223 30.0048V34.9952H0V29.9925H5.10223V30.0048ZM20.395 5.00243V0H25.498V5.00243H20.395ZM35.6919 14.9952V19.9976H40.7933V14.9952H35.6919ZM10.1914 10.0048H5.10223V14.9952H10.1914V10.0048ZM10.2045 34.9952V39.9973H15.2936V34.9952H20.395V39.9973H25.498V34.9952H30.5995V39.9973H35.6894V34.9952H40.7908V39.9973H35.6894V45H30.5872V39.9973H25.498V45H20.395V39.9973H15.2936V45H10.1914V39.9973H5.10223V45H0V39.9973H5.10223V34.9952H10.2045ZM30.5872 25.0025V20H25.498V25.0025H30.5872ZM20.395 25.0025V29.9925H25.498V25.0025H20.395ZM15.2936 25.0025H20.395V20H15.2936V25.0025ZM15.2936 25.0025H10.2036V29.9925H15.2936V25.0025ZM15.2936 14.9952H10.2036V19.9976H15.2936V14.9952ZM20.395 14.9952V10.0048H15.2936V14.9952H20.395ZM25.5005 14.9952H20.3983V19.9976H25.5005V14.9952ZM25.5005 14.9952H30.5897V10.0048H25.5005V14.9952ZM10.1914 19.9976V25.0001H5.10223V19.9976H10.1914ZM45.8955 5.00243H40.7933V0H45.8955V5.00243ZM40.7933 14.9952H45.8955V9.99244H40.7933V14.9952ZM45.8955 25.0025H40.7933V20H45.8955V25.0025ZM40.7933 34.9952H45.8955V29.9925H40.7933V34.9952ZM40.7933 45H45.8955V39.9973H40.7933V45Z" fill="#2F2FF4"/>
<path fill-rule="evenodd" clip-rule="evenodd" d="M138.706 84.9981V90H92.8108V84.9981H138.706ZM138.706 80.0003V75H92.8108V80.0003H138.706ZM138.706 70.0005V65.0003H92.8108V70.0005H138.706ZM138.706 55.0005V60H92.8108V55.0005H138.706ZM138.706 50.0003V45H92.8108V50.0003H138.706Z" fill="#1F242C"/>
<path fill-rule="evenodd" clip-rule="evenodd" d="M92.8108 354.997V360H46.9153V354.997H92.8108ZM92.8108 350V345H46.9153V350H92.8108ZM92.8108 340V335H46.9153V340H92.8108ZM92.8108 325V330H46.9153V325H92.8108ZM92.8108 320V315H46.9153V320H92.8108Z" fill="#1F242C"/>
<path fill-rule="evenodd" clip-rule="evenodd" d="M5.96809 89.832H0.868408C0.868408 114.685 21.4168 134.832 46.7631 134.832V129.833C24.2319 129.833 5.96809 111.925 5.96809 89.832ZM16.1675 89.832H11.0678C11.0678 109.162 27.0487 124.832 46.7631 124.832V119.832C29.8664 119.832 16.1675 106.4 16.1675 89.832ZM21.2663 89.832H26.366C26.366 100.877 35.4992 109.832 46.7639 109.832V114.833C32.6815 114.833 21.2663 103.64 21.2663 89.832ZM36.5646 89.832H31.4657C31.4657 98.1177 38.3135 104.832 46.7639 104.832V99.8326C41.1311 99.8326 36.5646 95.355 36.5646 89.832ZM46.7639 89.832H41.6642C41.6642 92.5947 43.9463 94.8323 46.7639 94.8323V89.832Z" fill="white"/>
<path fill-rule="evenodd" clip-rule="evenodd" d="M322.289 310V315C347.635 315 368.184 294.852 368.184 270H363.084C363.084 292.092 344.821 310 322.289 310ZM322.289 300V304.999C342.003 304.999 357.985 289.33 357.985 270H352.886C352.886 286.567 339.186 300 322.289 300ZM322.289 295V289.999C333.554 289.999 342.687 281.045 342.687 270H347.787C347.787 283.807 336.371 295 322.289 295ZM322.289 280V284.999C330.738 284.999 337.587 278.285 337.587 270H332.487C332.487 275.522 327.921 280 322.289 280ZM322.289 270V274.999C325.106 274.999 327.388 272.762 327.388 270H322.289Z" fill="#4038FF"/>
<path d="M230.497 0V45H184.602C184.602 20.1476 205.151 0 230.497 0Z" fill="#1F242C"/>
<path fill-rule="evenodd" clip-rule="evenodd" d="M235.6 359H230.497V404H235.6V359ZM250.901 359H256.003V404H250.901V359ZM266.201 359H261.1V404H266.201V359ZM276.393 359H271.291V404H276.393V359ZM240.702 359H245.803V404H240.702V359Z" fill="#1F242C"/>
<path fill-rule="evenodd" clip-rule="evenodd" d="M132.104 156.131H127.629V116.704H132.104V156.131ZM136.574 156.131H141.046V116.704H136.574V156.131ZM145.518 156.131H149.99V116.704H145.518V156.131ZM158.935 156.131H154.463V116.704H158.935V156.131ZM163.407 156.131H167.88V116.704H163.407V156.131Z" fill="black"/>
</svg>
