<svg width="375" height="192" viewBox="0 0 375 192" fill="none" xmlns="http://www.w3.org/2000/svg">
<path fill-rule="evenodd" clip-rule="evenodd" d="M364.995 153.992H360.005V149.002H364.995V144H360.005V138.997H364.995V134.008H369.997V129.006H364.995V133.996H360.005V129.006H364.995V124H359.993V129.003H355.003V133.992H350V129.003H344.998V133.992H340.008V129.003H344.998V124H339.995V129.003H335.005V124H330V129.003H335.003V133.992H330V138.995H335.003V143.998H330V149H335.003V153.99V154.003H339.993V158.992H344.995V154.003H349.997V158.992H355V154.003H359.99V158.992H364.993V154.003H369.995V149H364.993V153.992H364.995ZM335.003 154.004V158.995H330V153.992H335.003V154.004ZM349.997 129.003V124H355V129.003H349.997ZM364.995 138.995V143.998H369.997V138.995H364.995ZM339.993 134.005H335.003V138.995H339.993V134.005ZM340.005 158.995V163.997H344.995V158.995H349.997V163.997H355V158.995H360.002V163.997H364.993V158.995H369.995V163.997H364.993V169H359.99V163.997H355V169H349.997V163.997H344.995V169H339.993V163.997H335.003V169H330V163.997H335.003V158.995H340.005ZM359.99 149.002V144H355V149.002H359.99ZM349.997 149.002V153.992H355V149.002H349.997ZM344.995 149.002H349.997V144H344.995V149.002ZM344.995 149.002H340.005V153.992H344.995V149.002ZM344.995 138.995H340.005V143.998H344.995V138.995ZM349.997 138.995V134.005H344.995V138.995H349.997ZM355.003 138.995H350V143.998H355.003V138.995ZM355.003 138.995H359.993V134.005H355.003V138.995ZM339.993 143.998V149H335.003V143.998H339.993ZM375 129.003H369.997V124H375V129.003ZM369.997 138.995H375V133.992H369.997V138.995ZM375 149.002H369.997V144H375V149.002ZM369.997 158.995H375V153.992H369.997V158.995ZM369.997 169H375V163.997H369.997V169Z" fill="#4038FF"/>
<path fill-rule="evenodd" clip-rule="evenodd" d="M34.9955 74.9925H30.0048V70.0025H34.9955V65H30.0048V59.9976H34.9955V55.0076H39.9973V50.0052H34.9955V54.9952H30.0048V50.0052H34.9955V45H29.9928V50.0024H25.0029V54.9924H20.0003V50.0024H14.9976V54.9924H10.0078V50.0024H14.9976V45H9.99492V50.0024H5.00507V45H0V50.0024H5.00268V54.9924H0V59.9952H5.00268V64.9976H0V70.0001H5.00268V74.9901V75.0025H9.99252V79.9925H14.9952V75.0025H19.9971V79.9925H25.0005V75.0025H29.9904V79.9925H34.9931V75.0025H39.9949V70.0001H34.9931V74.9925H34.9955ZM5.00268 75.0048V79.9952H0V74.9925H5.00268V75.0048ZM19.9971 50.0024V45H25.0005V50.0024H19.9971ZM34.9955 59.9952V64.9976H39.9973V59.9952H34.9955ZM9.99252 55.0048H5.00268V59.9952H9.99252V55.0048ZM10.0053 79.9952V84.9973H14.9952V79.9952H19.9971V84.9973H25.0005V79.9952H30.0024V84.9973H34.9931V79.9952H39.9949V84.9973H34.9931V90H29.9904V84.9973H25.0005V90H19.9971V84.9973H14.9952V90H9.99252V84.9973H5.00268V90H0V84.9973H5.00268V79.9952H10.0053ZM29.9904 70.0025V65H25.0005V70.0025H29.9904ZM19.9971 70.0025V74.9925H25.0005V70.0025H19.9971ZM14.9952 70.0025H19.9971V65H14.9952V70.0025ZM14.9952 70.0025H10.0045V74.9925H14.9952V70.0025ZM14.9952 59.9952H10.0045V64.9976H14.9952V59.9952ZM19.9971 59.9952V55.0048H14.9952V59.9952H19.9971ZM25.0029 59.9952H20.0003V64.9976H25.0029V59.9952ZM25.0029 59.9952H29.9928V55.0048H25.0029V59.9952ZM9.99252 64.9976V70.0001H5.00268V64.9976H9.99252ZM45 50.0024H39.9973V45H45V50.0024ZM39.9973 59.9952H45V54.9924H39.9973V59.9952ZM45 70.0025H39.9973V65H45V70.0025ZM39.9973 79.9952H45V74.9925H39.9973V79.9952ZM39.9973 90H45V84.9973H39.9973V90Z" fill="#2F2FF4"/>
<path fill-rule="evenodd" clip-rule="evenodd" d="M215 39.9981V45H170V39.9981H215ZM215 35.0003V30H170V35.0003H215ZM215 25.0005V20.0003H170V25.0005H215ZM215 10.0005V15H170V10.0005H215ZM215 5.00027V0H170V5.00027H215Z" fill="#1F242C"/>
<path fill-rule="evenodd" clip-rule="evenodd" d="M83.0002 124H78C78 148.853 98.1474 169 122.999 169V164.001C100.908 164.001 83.0002 146.093 83.0002 124ZM93.0005 124H88.0004C88.0004 143.33 103.669 159 122.999 159V154C106.432 154 93.0005 140.568 93.0005 124ZM97.9999 124H103C103 135.045 111.955 144 123 144V149.001C109.192 149.001 97.9999 137.808 97.9999 124ZM113 124H108C108 132.286 114.714 139 123 139V134.001C117.477 134.001 113 129.523 113 124ZM123 124H118C118 126.763 120.237 129 123 129V124Z" fill="white"/>
<path d="M374 34V79H329C329 54.1476 349.148 34 374 34Z" fill="#1F242C"/>
<path fill-rule="evenodd" clip-rule="evenodd" d="M209.387 191.131H204.913V151.704H209.387V191.131ZM213.858 191.131H218.33V151.704H213.858V191.131ZM222.801 191.131H227.274V151.704H222.801V191.131ZM236.219 191.131H231.746V151.704H236.219V191.131ZM240.691 191.131H245.164V151.704H240.691V191.131Z" fill="black"/>
</svg>
