<svg width="282" height="450" viewBox="0 0 282 450" fill="none" xmlns="http://www.w3.org/2000/svg">
<path fill-rule="evenodd" clip-rule="evenodd" d="M0.734871 4.56395V0C23.3901 0 41.7564 18.3902 41.7564 41.0751H37.1985C37.1985 20.9095 20.8741 4.56395 0.734871 4.56395ZM0.734871 13.6918V9.12786C18.3559 9.12786 32.6405 23.4311 32.6405 41.0751H28.0826C28.0826 25.9526 15.8377 13.6918 0.734871 13.6918ZM0.734871 18.2558V22.8197C10.8036 22.8197 18.9667 30.9934 18.9667 41.0751H23.5246C23.5246 28.4719 13.3217 18.2558 0.734871 18.2558ZM0.734871 31.9472V27.3836C8.28758 27.3836 14.4087 33.5127 14.4087 41.0751H9.85078C9.85078 36.0342 5.76904 31.9472 0.734871 31.9472ZM0.734871 41.0751V36.5111C3.25305 36.5111 5.29283 38.5535 5.29283 41.0751H0.734871Z" fill="#6A70F6"/>
<path fill-rule="evenodd" clip-rule="evenodd" d="M208.582 89.4594L213.131 89.4594L213.131 94.0142L208.582 94.0142L208.582 98.5803L213.131 98.5803L213.131 103.146L208.582 103.146L208.582 107.701L204.022 107.701L204.022 112.267L208.582 112.267L208.582 107.712L213.131 107.712L213.131 112.267L208.582 112.267L208.582 116.836L213.142 116.836L213.142 112.27L217.691 112.27L217.691 107.715L222.251 107.715L222.251 112.27L226.811 112.27L226.811 107.715L231.36 107.715L231.36 112.27L226.811 112.27L226.811 116.836L231.372 116.836L231.372 112.27L235.921 112.27L235.921 116.836L240.483 116.836L240.483 112.27L235.923 112.27L235.923 107.715L240.483 107.715L240.483 103.149L235.923 103.149L235.923 98.5825L240.483 98.5825L240.483 94.0164L235.923 94.0164L235.923 89.4616L235.923 89.4503L231.374 89.4503L231.374 84.8955L226.814 84.8955L226.814 89.4503L222.254 89.4503L222.254 84.8955L217.693 84.8955L217.693 89.4503L213.144 89.4503L213.144 84.8955L208.584 84.8955L208.584 89.4503L204.024 89.4503L204.024 94.0164L208.584 94.0164L208.584 89.4594L208.582 89.4594ZM235.923 89.4482L235.923 84.893L240.483 84.893L240.483 89.4594L235.923 89.4594L235.923 89.4482ZM222.254 112.27L222.254 116.836L217.693 116.836L217.693 112.27L222.254 112.27ZM208.582 103.149L208.582 98.5825L204.022 98.5825L204.022 103.149L208.582 103.149ZM231.374 107.704L235.923 107.704L235.923 103.149L231.374 103.149L231.374 107.704ZM231.362 84.893L231.362 80.3272L226.814 80.3272L226.814 84.893L222.254 84.893L222.254 80.3272L217.693 80.3272L217.693 84.893L213.133 84.893L213.133 80.3272L208.584 80.3272L208.584 84.893L204.024 84.893L204.024 80.3272L208.584 80.3272L208.584 75.7609L213.144 75.7609L213.144 80.3272L217.693 80.3272L217.693 75.7609L222.254 75.7609L222.254 80.3272L226.814 80.3272L226.814 75.7609L231.374 75.7609L231.374 80.3272L235.923 80.3272L235.923 75.7609L240.483 75.7609L240.483 80.3272L235.923 80.3272L235.923 84.893L231.362 84.893ZM213.144 94.0142L213.144 98.5803L217.693 98.5803L217.693 94.0142L213.144 94.0142ZM222.254 94.0142L222.254 89.4594L217.693 89.4594L217.693 94.0142L222.254 94.0142ZM226.814 94.0142L222.254 94.0142L222.254 98.5803L226.814 98.5803L226.814 94.0142ZM226.814 94.0142L231.363 94.0142L231.363 89.4594L226.814 89.4594L226.814 94.0142ZM226.814 103.149L231.363 103.149L231.363 98.5825L226.814 98.5825L226.814 103.149ZM222.254 103.149L222.254 107.704L226.814 107.704L226.814 103.149L222.254 103.149ZM217.691 103.149L222.251 103.149L222.251 98.5825L217.691 98.5825L217.691 103.149ZM217.691 103.149L213.142 103.149L213.142 107.704L217.691 107.704L217.691 103.149ZM231.374 98.5825L231.374 94.0164L235.923 94.0164L235.923 98.5825L231.374 98.5825ZM199.462 112.27L204.022 112.27L204.022 116.836L199.462 116.836L199.462 112.27ZM204.022 103.149L199.462 103.149L199.462 107.715L204.022 107.715L204.022 103.149ZM199.462 94.0142L204.022 94.0142L204.022 98.5803L199.462 98.5803L199.462 94.0142ZM204.022 84.893L199.462 84.893L199.462 89.4594L204.022 89.4594L204.022 84.893ZM204.022 75.7609L199.462 75.7609L199.462 80.3272L204.022 80.3272L204.022 75.7609Z" fill="#DFE3E8"/>
<path fill-rule="evenodd" clip-rule="evenodd" d="M70.018 450H65.4578V408.925H70.018V450ZM83.6942 450H88.2543V408.925H83.6942V450ZM97.3703 450H92.8101V408.925H97.3703V450ZM106.479 450H101.919V408.925H106.479V450ZM74.5782 450H79.1384V408.925H74.5782V450Z" fill="white"/>
<path fill-rule="evenodd" clip-rule="evenodd" d="M281.505 404.359L281.505 408.925L240.483 408.925L240.483 404.359L281.505 404.359ZM281.505 390.665L281.505 386.099L240.483 386.099L240.483 390.665L281.505 390.665ZM281.505 376.971L281.505 381.537L240.483 381.537L240.483 376.971L281.505 376.971ZM281.505 367.85L281.505 372.416L240.483 372.416L240.483 367.85L281.505 367.85ZM281.505 399.793L281.505 395.226L240.483 395.226L240.483 399.793L281.505 399.793Z" fill="#6A70F6"/>
</svg>
