<svg width="375" height="231" viewBox="0 0 375 231" fill="none" xmlns="http://www.w3.org/2000/svg">
<path fill-rule="evenodd" clip-rule="evenodd" d="M0 9.00446V4.00439C24.8524 4.00439 45 24.1519 45 49.0044H40C40 26.912 22.0924 9.00446 0 9.00446ZM0 19.0045V14.0045C19.33 14.0045 35 29.6744 35 49.0044H30C30 32.4369 16.5676 19.0045 0 19.0045ZM0 24.0046V29.0046C11.0452 29.0046 20 37.9594 20 49.0044H25C25 35.1969 13.8076 24.0046 0 24.0046ZM0 39.0043V34.0047C8.2852 34.0047 15 40.7194 15 49.0044H10C10 43.4819 5.5224 39.0043 0 39.0043ZM0 49.0044V44.0043C2.7624 44.0043 5 46.2419 5 49.0044H0Z" fill="#6A70F6"/>
<path fill-rule="evenodd" clip-rule="evenodd" d="M340.005 154.012L344.995 154.012L344.995 159.002L340.005 159.002L340.005 164.005L344.995 164.005L344.995 169.007L340.005 169.007L340.005 173.997L335.003 173.997L335.003 179L340.005 179L340.005 174.01L344.995 174.01L344.995 179L340.005 179L340.005 184.005L345.007 184.005L345.007 179.002L349.997 179.002L349.997 174.012L355 174.012L355 179.002L360.002 179.002L360.002 174.012L364.992 174.012L364.992 179.002L360.002 179.002L360.002 184.005L365.005 184.005L365.005 179.002L369.995 179.002L369.995 184.005L375 184.005L375 179.002L369.997 179.002L369.997 174.012L375 174.012L375 169.01L369.997 169.01L369.997 164.007L375 164.007L375 159.005L369.997 159.005L369.997 154.015L369.997 154.002L365.007 154.002L365.007 149.012L360.005 149.012L360.005 154.002L355.003 154.002L355.003 149.012L349.999 149.012L349.999 154.002L345.01 154.002L345.01 149.012L340.007 149.012L340.007 154.002L335.005 154.002L335.005 159.005L340.007 159.005L340.007 154.012L340.005 154.012ZM369.997 154L369.997 149.01L375 149.01L375 154.012L369.997 154.012L369.997 154ZM355.003 179.002L355.003 184.005L349.999 184.005L349.999 179.002L355.003 179.002ZM340.005 169.01L340.005 164.007L335.003 164.007L335.003 169.01L340.005 169.01ZM365.007 174L369.997 174L369.997 169.01L365.007 169.01L365.007 174ZM364.995 149.01L364.995 144.008L360.005 144.008L360.005 149.01L355.003 149.01L355.003 144.008L349.999 144.008L349.999 149.01L344.998 149.01L344.998 144.008L340.007 144.008L340.007 149.01L335.005 149.01L335.005 144.008L340.007 144.008L340.007 139.005L345.01 139.005L345.01 144.008L349.999 144.008L349.999 139.005L355.003 139.005L355.003 144.008L360.005 144.008L360.005 139.005L365.007 139.005L365.007 144.008L369.997 144.008L369.997 139.005L375 139.005L375 144.008L369.997 144.008L369.997 149.01L364.995 149.01ZM345.01 159.002L345.01 164.005L349.999 164.005L349.999 159.002L345.01 159.002ZM355.003 159.002L355.003 154.012L349.999 154.012L349.999 159.002L355.003 159.002ZM360.005 159.002L355.003 159.002L355.003 164.005L360.005 164.005L360.005 159.002ZM360.005 159.002L364.995 159.002L364.995 154.012L360.005 154.012L360.005 159.002ZM360.005 169.01L364.995 169.01L364.995 164.007L360.005 164.007L360.005 169.01ZM355.003 169.01L355.003 174L360.005 174L360.005 169.01L355.003 169.01ZM349.997 169.01L355 169.01L355 164.007L349.997 164.007L349.997 169.01ZM349.997 169.01L345.007 169.01L345.007 174L349.997 174L349.997 169.01ZM365.007 164.007L365.007 159.005L369.997 159.005L369.997 164.007L365.007 164.007ZM330 179.002L335.003 179.002L335.003 184.005L330 184.005L330 179.002ZM335.003 169.01L330 169.01L330 174.012L335.003 174.012L335.003 169.01ZM330 159.002L335.003 159.002L335.003 164.005L330 164.005L330 159.002ZM335.003 149.01L330 149.01L330 154.012L335.003 154.012L335.003 149.01ZM335.003 139.005L330 139.005L330 144.008L335.003 144.008L335.003 139.005Z" fill="#DFE3E8"/>
<path fill-rule="evenodd" clip-rule="evenodd" d="M140.002 45.0044H135V0.00439453H140.002V45.0044ZM155.005 45.0044H160.007V0.00439453H155.005V45.0044ZM170.008 45.0044H165.005V0.00439453H170.008V45.0044ZM180 45.0044H174.998V0.00439453H180V45.0044ZM145.005 45.0044H150.007V0.00439453H145.005V45.0044Z" fill="white"/>
<path fill-rule="evenodd" clip-rule="evenodd" d="M330 225.002L330 230.005L285 230.005L285 225.002L330 225.002ZM330 210L330 204.997L285 204.997L285 210L330 210ZM330 194.997L330 200L285 200L285 194.997L330 194.997ZM330 185.005L330 190.007L285 190.007L285 185.005L330 185.005ZM330 220L330 214.998L285 214.998L285 220L330 220Z" fill="#6A70F6"/>
</svg>
