<svg width="330" height="90" viewBox="0 0 330 90" fill="none" xmlns="http://www.w3.org/2000/svg">
<path fill-rule="evenodd" clip-rule="evenodd" d="M319.995 15.0078H315.005V19.9975H319.995V25.0001H315.005V30.0027H319.995V34.9924H324.997V39.9942H319.995V35.0045H315.005V39.9942H319.995V45H314.993V39.9974H310.003V35.0077H305V39.9974H299.998V35.0077H295.008V39.9974H299.998V45H294.995V39.9974H290.005V45H285V39.9974H290.003V35.0077H285V30.0051H290.003V25.0025H285V19.9999H290.003V15.0101V14.9973H294.993V10.0076H299.995V14.9973H304.997V10.0076H310V14.9973H314.99V10.0076H319.993V14.9973H324.995V19.9999H319.993V15.0078H319.995ZM290.003 14.9957V10.0052H285V15.0078H290.003V14.9957ZM304.997 39.9974V45H310V39.9974H304.997ZM319.995 30.0051V25.0025H324.997V30.0051H319.995ZM294.993 34.9948H290.003V30.0051H294.993V34.9948ZM295.005 10.0052V5.00257H299.995V10.0052H304.997V5.00257H310V10.0052H315.002V5.00257H319.993V10.0052H324.995V5.00257H319.993V0H314.99V5.00257H310V0H304.997V5.00257H299.995V0H294.993V5.00257H290.003V0H285V5.00257H290.003V10.0052H295.005ZM314.99 19.9975V25.0001H310V19.9975H314.99ZM304.997 19.9975V15.0078H310V19.9975H304.997ZM299.995 19.9975H304.997V25.0001H299.995V19.9975ZM299.995 19.9975H295.005V15.0078H299.995V19.9975ZM299.995 30.0051H295.005V25.0025H299.995V30.0051ZM304.997 30.0051V34.9948H299.995V30.0051H304.997ZM310.003 30.0051H305V25.0025H310.003V30.0051ZM310.003 30.0051H314.993V34.9948H310.003V30.0051ZM294.993 25.0025V19.9999H290.003V25.0025H294.993ZM330 39.9974H324.997V45H330V39.9974ZM324.997 30.0051H330V35.0077H324.997V30.0051ZM330 19.9975H324.997V25.0001H330V19.9975ZM324.997 10.0052H330V15.0078H324.997V10.0052ZM324.997 0H330V5.00257H324.997V0Z" fill="#4038FF"/>
<path fill-rule="evenodd" clip-rule="evenodd" d="M240 50.0019V45H195V50.0019H240ZM240 54.9997V60H195V54.9997H240ZM240 64.9995V69.9997H195V64.9995H240ZM240 79.9995V75H195V79.9995H240ZM240 84.9997V90H195V84.9997H240Z" fill="#1F242C"/>
<path d="M45 90V45H0C0 69.8524 20.1478 90 45 90Z" fill="#1F242C"/>
</svg>
