<svg width="958" height="180" viewBox="0 0 958 180" fill="none" xmlns="http://www.w3.org/2000/svg">
<path fill-rule="evenodd" clip-rule="evenodd" d="M947.995 15.0078H943.005V19.9975H947.995V25.0001H943.005V30.0027H947.995V34.9924H952.997V39.9942H947.995V35.0045H943.005V39.9942H947.995V45H942.993V39.9974H938.003V35.0077H933V39.9974H927.998V35.0077H923.008V39.9974H927.998V45H922.995V39.9974H918.005V45H913V39.9974H918.003V35.0077H913V30.0051H918.003V25.0025H913V19.9999H918.003V15.0101V14.9973H922.993V10.0076H927.995V14.9973H932.997V10.0076H938V14.9973H942.99V10.0076H947.993V14.9973H952.995V19.9999H947.993V15.0078H947.995ZM918.003 14.9957V10.0052H913V15.0078H918.003V14.9957ZM932.997 39.9974V45H938V39.9974H932.997ZM947.995 30.0051V25.0025H952.997V30.0051H947.995ZM922.993 34.9948H918.003V30.0051H922.993V34.9948ZM923.005 10.0052V5.00257H927.995V10.0052H932.997V5.00257H938V10.0052H943.002V5.00257H947.993V10.0052H952.995V5.00257H947.993V0H942.99V5.00257H938V0H932.997V5.00257H927.995V0H922.993V5.00257H918.003V0H913V5.00257H918.003V10.0052H923.005ZM942.99 19.9975V25.0001H938V19.9975H942.99ZM932.997 19.9975V15.0078H938V19.9975H932.997ZM927.995 19.9975H932.997V25.0001H927.995V19.9975ZM927.995 19.9975H923.005V15.0078H927.995V19.9975ZM927.995 30.0051H923.005V25.0025H927.995V30.0051ZM932.997 30.0051V34.9948H927.995V30.0051H932.997ZM938.003 30.0051H933V25.0025H938.003V30.0051ZM938.003 30.0051H942.993V34.9948H938.003V30.0051ZM922.993 25.0025V19.9999H918.003V25.0025H922.993ZM958 39.9974H952.997V45H958V39.9974ZM952.997 30.0051H958V35.0077H952.997V30.0051ZM958 19.9975H952.997V25.0001H958V19.9975ZM952.997 10.0052H958V15.0078H952.997V10.0052ZM952.997 0H958V5.00257H952.997V0Z" fill="#4038FF"/>
<path fill-rule="evenodd" clip-rule="evenodd" d="M676.995 150.008H672.005V154.998H676.995V160H672.005V165.002H676.995V169.992H681.997V174.995H676.995V170.005H672.005V174.995H676.995V180H671.993V174.998H667.003V170.008H662V174.998H656.998V170.008H652.008V174.998H656.998V180H651.995V174.998H647.005V180H642V174.998H647.003V170.008H642V165.005H647.003V160.002H642V155H647.003V150.01V149.998H651.993V145.008H656.995V149.998H661.997V145.008H667.001V149.998H671.99V145.008H676.993V149.998H681.995V155H676.993V150.008H676.995ZM647.003 149.995V145.005H642V150.008H647.003V149.995ZM661.997 174.998V180H667.001V174.998H661.997ZM676.995 165.005V160.002H681.997V165.005H676.995ZM651.993 169.995H647.003V165.005H651.993V169.995ZM652.005 145.005V140.003H656.995V145.005H661.997V140.003H667.001V145.005H672.002V140.003H676.993V145.005H681.995V140.003H676.993V135H671.99V140.003H667.001V135H661.997V140.003H656.995V135H651.993V140.003H647.003V135H642V140.003H647.003V145.005H652.005ZM671.99 154.998V160H667.001V154.998H671.99ZM661.997 154.998V150.008H667.001V154.998H661.997ZM656.995 154.998H661.997V160H656.995V154.998ZM656.995 154.998H652.005V150.008H656.995V154.998ZM656.995 165.005H652.005V160.002H656.995V165.005ZM661.997 165.005V169.995H656.995V165.005H661.997ZM667.003 165.005H662V160.002H667.003V165.005ZM667.003 165.005H671.993V169.995H667.003V165.005ZM651.993 160.002V155H647.003V160.002H651.993ZM687 174.998H681.997V180H687V174.998ZM681.997 165.005H687V170.008H681.997V165.005ZM687 154.998H681.997V160H687V154.998ZM681.997 145.005H687V150.008H681.997V145.005ZM681.997 135H687V140.003H681.997V135Z" fill="#2F2FF4"/>
<path fill-rule="evenodd" clip-rule="evenodd" d="M778 95.0019V90H733V95.0019H778ZM778 99.9997V105H733V99.9997H778ZM778 109.999V115H733V109.999H778ZM778 124.999V120H733V124.999H778ZM778 130V135H733V130H778Z" fill="white"/>
<path d="M868 180V135H823C823 159.852 843.148 180 868 180Z" fill="#1F242C"/>
<path fill-rule="evenodd" clip-rule="evenodd" d="M771.526 23.8689H767.139V63.2959H771.526V23.8689ZM775.909 23.8689H780.294V63.2959H775.909V23.8689ZM784.678 23.8689H789.064V63.2959H784.678V23.8689ZM797.834 23.8689H793.449V63.2959H797.834V23.8689ZM802.219 23.8689H806.604V63.2959H802.219V23.8689Z" fill="black"/>
<path fill-rule="evenodd" clip-rule="evenodd" d="M10.0045 15.0078H14.9952V19.9975H10.0045V25.0001H14.9952V30.0027H10.0045V34.9924H5.00271V39.9942H10.0045V35.0045H14.9952V39.9942H10.0045V45H15.0073V39.9974H19.9971V35.0077H24.9998V39.9974H30.0024V35.0077H34.9923V39.9974H30.0024V45H35.0051V39.9974H39.9949V45H45V39.9974H39.9973V35.0077H45V30.0051H39.9973V25.0025H45V19.9999H39.9973V15.0101V14.9973H35.0075V10.0076H30.0048V14.9973H25.0029V10.0076H19.9995V14.9973H15.0097V10.0076H10.007V14.9973H5.00511V19.9999H10.007V15.0078H10.0045ZM39.9973 14.9957V10.0052H45V15.0078H39.9973V14.9957ZM25.0029 39.9974V45H20.0003V39.9974H25.0029ZM10.0045 30.0051V25.0025H5.00271V30.0051H10.0045ZM35.0075 34.9948H39.9973V30.0051H35.0075V34.9948ZM34.9955 10.0052V5.00257H30.0048V10.0052H25.0029V5.00257H19.9995V10.0052H14.9976V5.00257H10.007V10.0052H5.00511V5.00257H10.007V0H15.0097V5.00257H19.9995V0H25.0029V5.00257H30.0048V0H35.0075V5.00257H39.9973V0H45V5.00257H39.9973V10.0052H34.9955ZM15.0097 19.9975V25.0001H20.0003V19.9975H15.0097ZM25.0029 19.9975V15.0078H20.0003V19.9975H25.0029ZM30.0048 19.9975H25.0029V25.0001H30.0048V19.9975ZM30.0048 19.9975H34.9955V15.0078H30.0048V19.9975ZM30.0048 30.0051H34.9955V25.0025H30.0048V30.0051ZM25.0029 30.0051V34.9948H30.0048V30.0051H25.0029ZM19.9971 30.0051H24.9998V25.0025H19.9971V30.0051ZM19.9971 30.0051H15.0073V34.9948H19.9971V30.0051ZM35.0075 25.0025V19.9999H39.9973V25.0025H35.0075ZM0 39.9974H5.00271V45H0V39.9974ZM5.00271 30.0051H0V35.0077H5.00271V30.0051ZM0 19.9975H5.00271V25.0001H0V19.9975ZM5.00271 10.0052H0V15.0078H5.00271V10.0052ZM5.00271 0H0V5.00257H5.00271V0Z" fill="#4038FF"/>
<path fill-rule="evenodd" clip-rule="evenodd" d="M281.005 150.008H285.995V154.998H281.005V160H285.995V165.002H281.005V169.992H276.003V174.995H281.005V170.005H285.995V174.995H281.005V180H286.007V174.998H290.997V170.008H296V174.998H301.002V170.008H305.992V174.998H301.002V180H306.005V174.998H310.995V180H316V174.998H310.997V170.008H316V165.005H310.997V160.002H316V155H310.997V150.01V149.998H306.007V145.008H301.005V149.998H296.003V145.008H290.999V149.998H286.01V145.008H281.007V149.998H276.005V155H281.007V150.008H281.005ZM310.997 149.995V145.005H316V150.008H310.997V149.995ZM296.003 174.998V180H290.999V174.998H296.003ZM281.005 165.005V160.002H276.003V165.005H281.005ZM306.007 169.995H310.997V165.005H306.007V169.995ZM305.995 145.005V140.003H301.005V145.005H296.003V140.003H290.999V145.005H285.998V140.003H281.007V145.005H276.005V140.003H281.007V135H286.01V140.003H290.999V135H296.003V140.003H301.005V135H306.007V140.003H310.997V135H316V140.003H310.997V145.005H305.995ZM286.01 154.998V160H290.999V154.998H286.01ZM296.003 154.998V150.008H290.999V154.998H296.003ZM301.005 154.998H296.003V160H301.005V154.998ZM301.005 154.998H305.995V150.008H301.005V154.998ZM301.005 165.005H305.995V160.002H301.005V165.005ZM296.003 165.005V169.995H301.005V165.005H296.003ZM290.997 165.005H296V160.002H290.997V165.005ZM290.997 165.005H286.007V169.995H290.997V165.005ZM306.007 160.002V155H310.997V160.002H306.007ZM271 174.998H276.003V180H271V174.998ZM276.003 165.005H271V170.008H276.003V165.005ZM271 154.998H276.003V160H271V154.998ZM276.003 145.005H271V150.008H276.003V145.005ZM276.003 135H271V140.003H276.003V135Z" fill="#2F2FF4"/>
<path fill-rule="evenodd" clip-rule="evenodd" d="M180 95.0019V90H225V95.0019H180ZM180 99.9997V105H225V99.9997H180ZM180 109.999V115H225V109.999H180ZM180 124.999V120H225V124.999H180ZM180 130V135H225V130H180Z" fill="#1F242C"/>
<path fill-rule="evenodd" clip-rule="evenodd" d="M310.148 90.168H315.148C315.148 65.315 295.001 45.168 270.149 45.168V50.1674C292.241 50.1674 310.148 68.0752 310.148 90.168ZM300.148 90.168H305.148C305.148 70.8379 289.479 55.1677 270.149 55.1677V60.168C286.716 60.168 300.148 73.5998 300.148 90.168ZM295.149 90.168H290.148C290.148 79.1228 281.193 70.1677 270.148 70.1677V65.1674C283.956 65.1674 295.149 76.3601 295.149 90.168ZM280.149 90.168H285.148C285.148 81.8823 278.434 75.168 270.148 75.168V80.1674C275.671 80.1674 280.149 84.645 280.149 90.168ZM270.148 90.168H275.149C275.149 87.4053 272.911 85.1677 270.148 85.1677V90.168Z" fill="#1F242C"/>
<path d="M90 180V135H135C135 159.852 114.852 180 90 180Z" fill="#1F242C"/>
<path fill-rule="evenodd" clip-rule="evenodd" d="M186.474 23.8689H190.861V63.2959H186.474V23.8689ZM182.091 23.8689H177.706V63.2959H182.091V23.8689ZM173.322 23.8689H168.936V63.2959H173.322V23.8689ZM160.166 23.8689H164.551V63.2959H160.166V23.8689ZM155.781 23.8689H151.396V63.2959H155.781V23.8689Z" fill="black"/>
</svg>
