<svg width="308" height="493" viewBox="0 0 308 493" fill="none" xmlns="http://www.w3.org/2000/svg">
<path fill-rule="evenodd" clip-rule="evenodd" d="M0 5.00006V0C24.8524 0 45 20.1475 45 45H40C40 22.9076 22.0924 5.00006 0 5.00006ZM0 15.0001V10.0001C19.33 10.0001 35 25.67 35 45H30C30 28.4325 16.5676 15.0001 0 15.0001ZM0 20.0002V25.0002C11.0452 25.0002 20 33.955 20 45H25C25 31.1925 13.8076 20.0002 0 20.0002ZM0 34.9999V30.0003C8.2852 30.0003 15 36.715 15 45H10C10 39.4775 5.5224 34.9999 0 34.9999ZM0 45V39.9999C2.7624 39.9999 5 42.2375 5 45H0Z" fill="#6A70F6"/>
<path fill-rule="evenodd" clip-rule="evenodd" d="M228.005 98.0075L232.995 98.0075L232.995 102.998L228.005 102.998L228.005 108L232.995 108L232.995 113.002L228.005 113.002L228.005 117.992L223.003 117.992L223.003 122.995L228.005 122.995L228.005 118.005L232.995 118.005L232.995 122.995L228.005 122.995L228.005 128L233.007 128L233.007 122.998L237.997 122.998L237.997 118.008L243 118.008L243 122.998L248.002 122.998L248.002 118.008L252.992 118.008L252.992 122.998L248.002 122.998L248.002 128L253.005 128L253.005 122.998L257.995 122.998L257.995 128L263 128L263 122.998L257.997 122.998L257.997 118.008L263 118.008L263 113.005L257.997 113.005L257.997 108.002L263 108.002L263 103L257.997 103L257.997 98.0099L257.997 97.9975L253.007 97.9975L253.007 93.0075L248.005 93.0075L248.005 97.9975L243.003 97.9975L243.003 93.0075L237.999 93.0075L237.999 97.9975L233.01 97.9975L233.01 93.0075L228.007 93.0075L228.007 97.9975L223.005 97.9975L223.005 103L228.007 103L228.007 98.0075L228.005 98.0075ZM257.997 97.9952L257.997 93.0048L263 93.0048L263 98.0075L257.997 98.0075L257.997 97.9952ZM243.003 122.998L243.003 128L237.999 128L237.999 122.998L243.003 122.998ZM228.005 113.005L228.005 108.002L223.003 108.002L223.003 113.005L228.005 113.005ZM253.007 117.995L257.997 117.995L257.997 113.005L253.007 113.005L253.007 117.995ZM252.995 93.0048L252.995 88.0027L248.005 88.0027L248.005 93.0048L243.003 93.0048L243.003 88.0027L237.999 88.0027L237.999 93.0048L232.998 93.0048L232.998 88.0027L228.007 88.0027L228.007 93.0048L223.005 93.0048L223.005 88.0027L228.007 88.0027L228.007 83L233.01 83L233.01 88.0027L237.999 88.0027L237.999 83L243.003 83L243.003 88.0027L248.005 88.0027L248.005 83L253.007 83L253.007 88.0027L257.997 88.0027L257.997 83L263 83L263 88.0027L257.997 88.0027L257.997 93.0048L252.995 93.0048ZM233.01 102.998L233.01 108L237.999 108L237.999 102.998L233.01 102.998ZM243.003 102.998L243.003 98.0075L237.999 98.0075L237.999 102.998L243.003 102.998ZM248.005 102.998L243.003 102.998L243.003 108L248.005 108L248.005 102.998ZM248.005 102.998L252.995 102.998L252.995 98.0075L248.005 98.0075L248.005 102.998ZM248.005 113.005L252.995 113.005L252.995 108.002L248.005 108.002L248.005 113.005ZM243.003 113.005L243.003 117.995L248.005 117.995L248.005 113.005L243.003 113.005ZM237.997 113.005L243 113.005L243 108.002L237.997 108.002L237.997 113.005ZM237.997 113.005L233.007 113.005L233.007 117.995L237.997 117.995L237.997 113.005ZM253.007 108.002L253.007 103L257.997 103L257.997 108.002L253.007 108.002ZM218 122.998L223.003 122.998L223.003 128L218 128L218 122.998ZM223.003 113.005L218 113.005L218 118.008L223.003 118.008L223.003 113.005ZM218 102.998L223.003 102.998L223.003 108L218 108L218 102.998ZM223.003 93.0048L218 93.0048L218 98.0075L223.003 98.0075L223.003 93.0048ZM223.003 83L218 83L218 88.0027L223.003 88.0027L223.003 83Z" fill="#DFE3E8"/>
<path fill-rule="evenodd" clip-rule="evenodd" d="M76.0024 493H71V448H76.0024V493ZM91.005 493H96.0074V448H91.005V493ZM106.008 493H101.005V448H106.008V493ZM116 493H110.998V448H116V493ZM81.0049 493H86.0073V448H81.0049V493Z" fill="white"/>
<path fill-rule="evenodd" clip-rule="evenodd" d="M308 442.998L308 448L263 448L263 442.998L308 442.998ZM308 427.995L308 422.993L263 422.993L263 427.995L308 427.995ZM308 412.992L308 417.995L263 417.995L263 412.992L308 412.992ZM308 403L308 408.002L263 408.002L263 403L308 403ZM308 437.995L308 432.993L263 432.993L263 437.995L308 437.995Z" fill="#6A70F6"/>
</svg>
