<svg width="375" height="277" viewBox="0 0 375 277" fill="none" xmlns="http://www.w3.org/2000/svg">
<path fill-rule="evenodd" clip-rule="evenodd" d="M45 5.00006V0C69.8524 0 90 20.1475 90 45H85C85 22.9076 67.0924 5.00006 45 5.00006ZM45 15.0001V10.0001C64.33 10.0001 80 25.67 80 45H75C75 28.4325 61.5676 15.0001 45 15.0001ZM45 20.0002V25.0002C56.0452 25.0002 65 33.955 65 45H70C70 31.1925 58.8076 20.0002 45 20.0002ZM45 34.9999V30.0003C53.2852 30.0003 60 36.715 60 45H55C55 39.4775 50.5224 34.9999 45 34.9999ZM45 45V39.9999C47.7624 39.9999 50 42.2375 50 45H45Z" fill="#6A70F6"/>
<path fill-rule="evenodd" clip-rule="evenodd" d="M295.005 60.0075L299.995 60.0075L299.995 64.9975L295.005 64.9975L295.005 70L299.995 70L299.995 75.0024L295.005 75.0024L295.005 79.9924L290.003 79.9924L290.003 84.9948L295.005 84.9948L295.005 80.0048L299.995 80.0048L299.995 84.9948L295.005 84.9948L295.005 90L300.007 90L300.007 84.9976L304.997 84.9976L304.997 80.0076L310 80.0076L310 84.9976L315.002 84.9976L315.002 80.0076L319.992 80.0076L319.992 84.9976L315.002 84.9976L315.002 90L320.005 90L320.005 84.9976L324.995 84.9976L324.995 90L330 90L330 84.9976L324.997 84.9976L324.997 80.0076L330 80.0076L330 75.0048L324.997 75.0048L324.997 70.0024L330 70.0024L330 64.9999L324.997 64.9999L324.997 60.0099L324.997 59.9975L320.007 59.9975L320.007 55.0075L315.005 55.0075L315.005 59.9975L310.003 59.9975L310.003 55.0075L304.999 55.0075L304.999 59.9975L300.01 59.9975L300.01 55.0075L295.007 55.0075L295.007 59.9975L290.005 59.9975L290.005 64.9999L295.007 64.9999L295.007 60.0075L295.005 60.0075ZM324.997 59.9952L324.997 55.0048L330 55.0048L330 60.0075L324.997 60.0075L324.997 59.9952ZM310.003 84.9976L310.003 90L304.999 90L304.999 84.9976L310.003 84.9976ZM295.005 75.0048L295.005 70.0024L290.003 70.0024L290.003 75.0048L295.005 75.0048ZM320.007 79.9952L324.997 79.9952L324.997 75.0048L320.007 75.0048L320.007 79.9952ZM319.995 55.0048L319.995 50.0027L315.005 50.0027L315.005 55.0048L310.003 55.0048L310.003 50.0027L304.999 50.0027L304.999 55.0048L299.998 55.0048L299.998 50.0027L295.007 50.0027L295.007 55.0048L290.005 55.0048L290.005 50.0027L295.007 50.0027L295.007 45L300.01 45L300.01 50.0027L304.999 50.0027L304.999 45L310.003 45L310.003 50.0027L315.005 50.0027L315.005 45L320.007 45L320.007 50.0027L324.997 50.0027L324.997 45L330 45L330 50.0027L324.997 50.0027L324.997 55.0048L319.995 55.0048ZM300.01 64.9975L300.01 70L304.999 70L304.999 64.9975L300.01 64.9975ZM310.003 64.9975L310.003 60.0075L304.999 60.0075L304.999 64.9975L310.003 64.9975ZM315.005 64.9975L310.003 64.9975L310.003 70L315.005 70L315.005 64.9975ZM315.005 64.9975L319.995 64.9975L319.995 60.0075L315.005 60.0075L315.005 64.9975ZM315.005 75.0048L319.995 75.0048L319.995 70.0024L315.005 70.0024L315.005 75.0048ZM310.003 75.0048L310.003 79.9952L315.005 79.9952L315.005 75.0048L310.003 75.0048ZM304.997 75.0048L310 75.0048L310 70.0024L304.997 70.0024L304.997 75.0048ZM304.997 75.0048L300.007 75.0048L300.007 79.9952L304.997 79.9952L304.997 75.0048ZM320.007 70.0024L320.007 64.9999L324.997 64.9999L324.997 70.0024L320.007 70.0024ZM285 84.9976L290.003 84.9976L290.003 90L285 90L285 84.9976ZM290.003 75.0048L285 75.0048L285 80.0076L290.003 80.0076L290.003 75.0048ZM285 64.9975L290.003 64.9975L290.003 70L285 70L285 64.9975ZM290.003 55.0048L285 55.0048L285 60.0075L290.003 60.0075L290.003 55.0048ZM290.003 45L285 45L285 50.0027L290.003 50.0027L290.003 45Z" fill="#DFE3E8"/>
<path fill-rule="evenodd" clip-rule="evenodd" d="M5.00244 208H0V163H5.00244V208ZM20.005 208H25.0074V163H20.005V208ZM35.0075 208H30.0051V163H35.0075V208ZM45 208H39.9976V163H45V208ZM10.0049 208H15.0073V163H10.0049V208Z" fill="white"/>
<path fill-rule="evenodd" clip-rule="evenodd" d="M375 271.998L375 277L330 277L330 271.998L375 271.998ZM375 256.995L375 251.993L330 251.993L330 256.995L375 256.995ZM375 241.992L375 246.995L330 246.995L330 241.992L375 241.992ZM375 232L375 237.002L330 237.002L330 232L375 232ZM375 266.995L375 261.993L330 261.993L330 266.995L375 266.995Z" fill="#6A70F6"/>
</svg>
