<svg width="428" height="364" viewBox="0 0 428 364" fill="none" xmlns="http://www.w3.org/2000/svg">
<path fill-rule="evenodd" clip-rule="evenodd" d="M162.005 15.0075L166.995 15.0075L166.995 19.9975L162.005 19.9975L162.005 25L166.995 25L166.995 30.0024L162.005 30.0024L162.005 34.9924L157.003 34.9924L157.003 39.9948L162.005 39.9948L162.005 35.0048L166.995 35.0048L166.995 39.9948L162.005 39.9948L162.005 45L167.007 45L167.007 39.9976L171.997 39.9976L171.997 35.0076L177 35.0076L177 39.9976L182.002 39.9976L182.002 35.0076L186.992 35.0076L186.992 39.9976L182.002 39.9976L182.002 45L187.005 45L187.005 39.9976L191.995 39.9976L191.995 45L197 45L197 39.9976L191.997 39.9976L191.997 35.0076L197 35.0076L197 30.0048L191.997 30.0048L191.997 25.0024L197 25.0024L197 19.9999L191.997 19.9999L191.997 15.0099L191.997 14.9975L187.007 14.9975L187.007 10.0075L182.005 10.0075L182.005 14.9975L177.003 14.9975L177.003 10.0075L171.999 10.0075L171.999 14.9975L167.01 14.9975L167.01 10.0075L162.007 10.0075L162.007 14.9975L157.005 14.9975L157.005 19.9999L162.007 19.9999L162.007 15.0075L162.005 15.0075ZM191.997 14.9952L191.997 10.0048L197 10.0048L197 15.0075L191.997 15.0075L191.997 14.9952ZM177.003 39.9976L177.003 45L171.999 45L171.999 39.9976L177.003 39.9976ZM162.005 30.0048L162.005 25.0024L157.003 25.0024L157.003 30.0048L162.005 30.0048ZM187.007 34.9952L191.997 34.9952L191.997 30.0048L187.007 30.0048L187.007 34.9952ZM186.995 10.0048L186.995 5.00267L182.005 5.00267L182.005 10.0048L177.003 10.0048L177.003 5.00267L171.999 5.00267L171.999 10.0048L166.998 10.0048L166.998 5.00267L162.007 5.00267L162.007 10.0048L157.005 10.0048L157.005 5.00267L162.007 5.00267L162.007 -3.06234e-06L167.01 -2.62454e-06L167.01 5.00267L171.999 5.00267L171.999 -2.18787e-06L177.003 -1.75e-06L177.003 5.00267L182.005 5.00267L182.005 -1.31227e-06L187.007 -8.74474e-07L187.007 5.00267L191.997 5.00267L191.997 -4.37798e-07L197 0L197 5.00267L191.997 5.00267L191.997 10.0048L186.995 10.0048ZM167.01 19.9975L167.01 25L171.999 25L171.999 19.9975L167.01 19.9975ZM177.003 19.9975L177.003 15.0075L171.999 15.0075L171.999 19.9975L177.003 19.9975ZM182.005 19.9975L177.003 19.9975L177.003 25L182.005 25L182.005 19.9975ZM182.005 19.9975L186.995 19.9975L186.995 15.0075L182.005 15.0075L182.005 19.9975ZM182.005 30.0048L186.995 30.0048L186.995 25.0024L182.005 25.0024L182.005 30.0048ZM177.003 30.0048L177.003 34.9952L182.005 34.9952L182.005 30.0048L177.003 30.0048ZM171.997 30.0048L177 30.0048L177 25.0024L171.997 25.0024L171.997 30.0048ZM171.997 30.0048L167.007 30.0048L167.007 34.9952L171.997 34.9952L171.997 30.0048ZM187.007 25.0024L187.007 19.9999L191.997 19.9999L191.997 25.0024L187.007 25.0024ZM152 39.9976L157.003 39.9976L157.003 45L152 45L152 39.9976ZM157.003 30.0048L152 30.0048L152 35.0076L157.003 35.0076L157.003 30.0048ZM152 19.9975L157.003 19.9975L157.003 25L152 25L152 19.9975ZM157.003 10.0048L152 10.0048L152 15.0075L157.003 15.0075L157.003 10.0048ZM157.003 -3.50028e-06L152 -3.93808e-06L152 5.00267L157.003 5.00267L157.003 -3.50028e-06Z" fill="#6A70F6"/>
<path d="M0 187H45V142C20.1475 142 0 162.148 0 187Z" fill="#6A70F6"/>
<path fill-rule="evenodd" clip-rule="evenodd" d="M360.002 363.165H355V318.165H360.002V363.165ZM375.005 363.165H380.007V318.165H375.005V363.165ZM390.008 363.165H385.005V318.165H390.008V363.165ZM400 363.165H394.998V318.165H400V363.165ZM365.005 363.165H370.007V318.165H365.005V363.165Z" fill="white"/>
</svg>
