<svg width="375" height="225" viewBox="0 0 375 225" fill="none" xmlns="http://www.w3.org/2000/svg">
<path fill-rule="evenodd" clip-rule="evenodd" d="M55.0045 15.0075L59.9952 15.0075L59.9952 19.9975L55.0045 19.9975L55.0045 25L59.9952 25L59.9952 30.0024L55.0045 30.0024L55.0045 34.9924L50.0027 34.9924L50.0027 39.9948L55.0045 39.9948L55.0045 35.0048L59.9952 35.0048L59.9952 39.9948L55.0045 39.9948L55.0045 45L60.0072 45L60.0072 39.9976L64.9971 39.9976L64.9971 35.0076L69.9997 35.0076L69.9997 39.9976L75.0024 39.9976L75.0024 35.0076L79.9923 35.0076L79.9922 39.9976L75.0024 39.9976L75.0024 45L80.0051 45L80.0051 39.9976L84.9949 39.9976L84.9949 45L90 45L90 39.9976L84.9973 39.9976L84.9973 35.0076L90 35.0076L90 30.0048L84.9973 30.0048L84.9973 25.0024L90 25.0024L90 19.9999L84.9973 19.9999L84.9973 15.0099L84.9973 14.9975L80.0075 14.9975L80.0075 10.0075L75.0048 10.0075L75.0048 14.9975L70.0029 14.9975L70.0029 10.0075L64.9995 10.0075L64.9995 14.9975L60.0096 14.9975L60.0096 10.0075L55.0069 10.0075L55.0069 14.9975L50.0051 14.9975L50.0051 19.9999L55.0069 19.9999L55.0069 15.0075L55.0045 15.0075ZM84.9973 14.9952L84.9973 10.0048L90 10.0048L90 15.0075L84.9973 15.0075L84.9973 14.9952ZM70.0029 39.9976L70.0029 45L64.9995 45L64.9995 39.9976L70.0029 39.9976ZM55.0045 30.0048L55.0045 25.0024L50.0027 25.0024L50.0027 30.0048L55.0045 30.0048ZM80.0075 34.9952L84.9973 34.9952L84.9973 30.0048L80.0075 30.0048L80.0075 34.9952ZM79.9947 10.0048L79.9947 5.00267L75.0048 5.00267L75.0048 10.0048L70.0029 10.0048L70.003 5.00267L64.9995 5.00267L64.9995 10.0048L59.9976 10.0048L59.9976 5.00267L55.0069 5.00267L55.0069 10.0048L50.0051 10.0048L50.0051 5.00267L55.0069 5.00267L55.0069 -3.06234e-06L60.0096 -2.62454e-06L60.0096 5.00267L64.9995 5.00267L64.9995 -2.18787e-06L70.003 -1.75e-06L70.003 5.00267L75.0048 5.00267L75.0048 -1.31227e-06L80.0075 -8.74474e-07L80.0075 5.00267L84.9973 5.00267L84.9973 -4.37798e-07L90 0L90 5.00267L84.9973 5.00267L84.9973 10.0048L79.9947 10.0048ZM60.0096 19.9975L60.0096 25L64.9995 25L64.9995 19.9975L60.0096 19.9975ZM70.0029 19.9975L70.0029 15.0075L64.9995 15.0075L64.9995 19.9975L70.0029 19.9975ZM75.0048 19.9975L70.0029 19.9975L70.0029 25L75.0048 25L75.0048 19.9975ZM75.0048 19.9975L79.9955 19.9975L79.9955 15.0075L75.0048 15.0075L75.0048 19.9975ZM75.0048 30.0048L79.9955 30.0048L79.9955 25.0024L75.0048 25.0024L75.0048 30.0048ZM70.0029 30.0048L70.0029 34.9952L75.0048 34.9952L75.0048 30.0048L70.0029 30.0048ZM64.9971 30.0048L69.9997 30.0048L69.9997 25.0024L64.9971 25.0024L64.9971 30.0048ZM64.9971 30.0048L60.0072 30.0048L60.0072 34.9952L64.9971 34.9952L64.9971 30.0048ZM80.0075 25.0024L80.0075 19.9999L84.9973 19.9999L84.9973 25.0024L80.0075 25.0024ZM45 39.9976L50.0027 39.9976L50.0027 45L45 45L45 39.9976ZM50.0027 30.0048L45 30.0048L45 35.0076L50.0027 35.0076L50.0027 30.0048ZM45 19.9975L50.0027 19.9975L50.0027 25L45 25L45 19.9975ZM50.0027 10.0048L45 10.0048L45 15.0075L50.0027 15.0075L50.0027 10.0048ZM50.0027 -3.50028e-06L45 -3.93808e-06L45 5.00267L50.0027 5.00267L50.0027 -3.50028e-06Z" fill="#6A70F6"/>
<path d="M0 180H45V135C20.1475 135 0 155.148 0 180Z" fill="#6A70F6"/>
<path fill-rule="evenodd" clip-rule="evenodd" d="M335.002 225H330V180H335.002V225ZM350.005 225H355.007V180H350.005V225ZM365.008 225H360.005V180H365.008V225ZM375 225H369.998V180H375V225ZM340.005 225H345.007V180H340.005V225Z" fill="white"/>
</svg>
