<svg width="381" height="332" viewBox="0 0 381 332" fill="none" xmlns="http://www.w3.org/2000/svg">
<path fill-rule="evenodd" clip-rule="evenodd" d="M140.005 15.0075L144.995 15.0075L144.995 19.9975L140.005 19.9975L140.005 25L144.995 25L144.995 30.0024L140.005 30.0024L140.005 34.9924L135.003 34.9924L135.003 39.9948L140.005 39.9948L140.005 35.0048L144.995 35.0048L144.995 39.9948L140.005 39.9948L140.005 45L145.007 45L145.007 39.9976L149.997 39.9976L149.997 35.0076L155 35.0076L155 39.9976L160.002 39.9976L160.002 35.0076L164.992 35.0076L164.992 39.9976L160.002 39.9976L160.002 45L165.005 45L165.005 39.9976L169.995 39.9976L169.995 45L175 45L175 39.9976L169.997 39.9976L169.997 35.0076L175 35.0076L175 30.0048L169.997 30.0048L169.997 25.0024L175 25.0024L175 19.9999L169.997 19.9999L169.997 15.0099L169.997 14.9975L165.007 14.9975L165.007 10.0075L160.005 10.0075L160.005 14.9975L155.003 14.9975L155.003 10.0075L149.999 10.0075L149.999 14.9975L145.01 14.9975L145.01 10.0075L140.007 10.0075L140.007 14.9975L135.005 14.9975L135.005 19.9999L140.007 19.9999L140.007 15.0075L140.005 15.0075ZM169.997 14.9952L169.997 10.0048L175 10.0048L175 15.0075L169.997 15.0075L169.997 14.9952ZM155.003 39.9976L155.003 45L149.999 45L149.999 39.9976L155.003 39.9976ZM140.005 30.0048L140.005 25.0024L135.003 25.0024L135.003 30.0048L140.005 30.0048ZM165.007 34.9952L169.997 34.9952L169.997 30.0048L165.007 30.0048L165.007 34.9952ZM164.995 10.0048L164.995 5.00267L160.005 5.00267L160.005 10.0048L155.003 10.0048L155.003 5.00267L149.999 5.00267L149.999 10.0048L144.998 10.0048L144.998 5.00267L140.007 5.00267L140.007 10.0048L135.005 10.0048L135.005 5.00267L140.007 5.00267L140.007 -3.05847e-06L145.01 -2.62122e-06L145.01 5.00267L149.999 5.00267L149.999 -2.1851e-06L155.003 -1.74778e-06L155.003 5.00267L160.005 5.00267L160.005 -1.31061e-06L165.007 -8.73367e-07L165.007 5.00267L169.997 5.00267L169.997 -4.37244e-07L175 0L175 5.00267L169.997 5.00267L169.997 10.0048L164.995 10.0048ZM145.01 19.9975L145.01 25L149.999 25L149.999 19.9975L145.01 19.9975ZM155.003 19.9975L155.003 15.0075L149.999 15.0075L149.999 19.9975L155.003 19.9975ZM160.005 19.9975L155.003 19.9975L155.003 25L160.005 25L160.005 19.9975ZM160.005 19.9975L164.995 19.9975L164.995 15.0075L160.005 15.0075L160.005 19.9975ZM160.005 30.0048L164.995 30.0048L164.995 25.0024L160.005 25.0024L160.005 30.0048ZM155.003 30.0048L155.003 34.9952L160.005 34.9952L160.005 30.0048L155.003 30.0048ZM149.997 30.0048L155 30.0048L155 25.0024L149.997 25.0024L149.997 30.0048ZM149.997 30.0048L145.007 30.0048L145.007 34.9952L149.997 34.9952L149.997 30.0048ZM165.007 25.0024L165.007 19.9999L169.997 19.9999L169.997 25.0024L165.007 25.0024ZM130 39.9976L135.003 39.9976L135.003 45L130 45L130 39.9976ZM135.003 30.0048L130 30.0048L130 35.0076L135.003 35.0076L135.003 30.0048ZM130 19.9975L135.003 19.9975L135.003 25L130 25L130 19.9975ZM135.003 10.0048L130 10.0048L130 15.0075L135.003 15.0075L135.003 10.0048ZM135.003 -3.49585e-06L130 -3.93309e-06L130 5.00267L135.003 5.00267L135.003 -3.49585e-06Z" fill="#2F2FF4"/>
<path d="M0 176H45V131C20.1475 131 0 151.148 0 176Z" fill="#1F242C"/>
<path fill-rule="evenodd" clip-rule="evenodd" d="M341.002 331.953H336V287H341.002V331.953ZM356.005 331.953H361.007V287H356.005V331.953ZM371.008 331.953H366.005V287H371.008V331.953ZM381 331.953H375.998V287H381V331.953ZM346.005 331.953H351.007V287H346.005V331.953Z" fill="white"/>
</svg>
