<svg width="374" height="276" viewBox="0 0 374 276" fill="none" xmlns="http://www.w3.org/2000/svg">
<path fill-rule="evenodd" clip-rule="evenodd" d="M133.005 15.0075L137.995 15.0075L137.995 19.9975L133.005 19.9975L133.005 25L137.995 25L137.995 30.0024L133.005 30.0024L133.005 34.9924L128.003 34.9924L128.003 39.9948L133.005 39.9948L133.005 35.0048L137.995 35.0048L137.995 39.9948L133.005 39.9948L133.005 45L138.007 45L138.007 39.9976L142.997 39.9976L142.997 35.0076L148 35.0076L148 39.9976L153.002 39.9976L153.002 35.0076L157.992 35.0076L157.992 39.9976L153.002 39.9976L153.002 45L158.005 45L158.005 39.9976L162.995 39.9976L162.995 45L168 45L168 39.9976L162.997 39.9976L162.997 35.0076L168 35.0076L168 30.0048L162.997 30.0048L162.997 25.0024L168 25.0024L168 19.9999L162.997 19.9999L162.997 15.0099L162.997 14.9975L158.007 14.9975L158.007 10.0075L153.005 10.0075L153.005 14.9975L148.003 14.9975L148.003 10.0075L142.999 10.0075L142.999 14.9975L138.01 14.9975L138.01 10.0075L133.007 10.0075L133.007 14.9975L128.005 14.9975L128.005 19.9999L133.007 19.9999L133.007 15.0075L133.005 15.0075ZM162.997 14.9952L162.997 10.0048L168 10.0048L168 15.0075L162.997 15.0075L162.997 14.9952ZM148.003 39.9976L148.003 45L142.999 45L142.999 39.9976L148.003 39.9976ZM133.005 30.0048L133.005 25.0024L128.003 25.0024L128.003 30.0048L133.005 30.0048ZM158.007 34.9952L162.997 34.9952L162.997 30.0048L158.007 30.0048L158.007 34.9952ZM157.995 10.0048L157.995 5.00267L153.005 5.00267L153.005 10.0048L148.003 10.0048L148.003 5.00267L142.999 5.00267L142.999 10.0048L137.998 10.0048L137.998 5.00267L133.007 5.00267L133.007 10.0048L128.005 10.0048L128.005 5.00267L133.007 5.00267L133.007 -3.05847e-06L138.01 -2.62122e-06L138.01 5.00267L142.999 5.00267L142.999 -2.1851e-06L148.003 -1.74778e-06L148.003 5.00267L153.005 5.00267L153.005 -1.31061e-06L158.007 -8.73367e-07L158.007 5.00267L162.997 5.00267L162.997 -4.37244e-07L168 0L168 5.00267L162.997 5.00267L162.997 10.0048L157.995 10.0048ZM138.01 19.9975L138.01 25L142.999 25L142.999 19.9975L138.01 19.9975ZM148.003 19.9975L148.003 15.0075L142.999 15.0075L142.999 19.9975L148.003 19.9975ZM153.005 19.9975L148.003 19.9975L148.003 25L153.005 25L153.005 19.9975ZM153.005 19.9975L157.995 19.9975L157.995 15.0075L153.005 15.0075L153.005 19.9975ZM153.005 30.0048L157.995 30.0048L157.995 25.0024L153.005 25.0024L153.005 30.0048ZM148.003 30.0048L148.003 34.9952L153.005 34.9952L153.005 30.0048L148.003 30.0048ZM142.997 30.0048L148 30.0048L148 25.0024L142.997 25.0024L142.997 30.0048ZM142.997 30.0048L138.007 30.0048L138.007 34.9952L142.997 34.9952L142.997 30.0048ZM158.007 25.0024L158.007 19.9999L162.997 19.9999L162.997 25.0024L158.007 25.0024ZM123 39.9976L128.003 39.9976L128.003 45L123 45L123 39.9976ZM128.003 30.0048L123 30.0048L123 35.0076L128.003 35.0076L128.003 30.0048ZM123 19.9975L128.003 19.9975L128.003 25L123 25L123 19.9975ZM128.003 10.0048L123 10.0048L123 15.0075L128.003 15.0075L128.003 10.0048ZM128.003 -3.49585e-06L123 -3.93309e-06L123 5.00267L128.003 5.00267L128.003 -3.49585e-06Z" fill="#2F2FF4"/>
<path d="M0 180H45V135C20.1475 135 0 155.148 0 180Z" fill="#1F242C"/>
<path fill-rule="evenodd" clip-rule="evenodd" d="M334.002 275.953H329V231H334.002V275.953ZM349.005 275.953H354.007V231H349.005V275.953ZM364.008 275.953H359.005V231H364.008V275.953ZM374 275.953H368.998V231H374V275.953ZM339.005 275.953H344.007V231H339.005V275.953Z" fill="white"/>
</svg>
