<svg width="370" height="323" viewBox="0 0 370 323" fill="none" xmlns="http://www.w3.org/2000/svg">
<path fill-rule="evenodd" clip-rule="evenodd" d="M136.328 14.6004L141.187 14.6004L141.187 19.4551L136.328 19.4551L136.328 24.3219L141.187 24.3219L141.187 29.1887L136.328 29.1887L136.328 34.0435L131.457 34.0435L131.457 38.9102L136.328 38.9102L136.328 34.0555L141.187 34.0555L141.187 38.9102L136.328 38.9102L136.328 43.7798L141.199 43.7798L141.199 38.913L146.058 38.913L146.058 34.0582L150.929 34.0582L150.929 38.913L155.801 38.913L155.801 34.0582L160.659 34.0582L160.659 38.913L155.801 38.913L155.801 43.7798L160.672 43.7798L160.672 38.913L165.531 38.913L165.531 43.7798L170.404 43.7798L170.404 38.913L165.533 38.913L165.533 34.0582L170.404 34.0582L170.404 29.1911L165.533 29.1911L165.533 24.3243L170.404 24.3243L170.404 19.4574L165.533 19.4574L165.533 14.6027L165.533 14.5906L160.674 14.5906L160.674 9.73588L155.803 9.73588L155.803 14.5906L150.932 14.5906L150.932 9.73588L146.06 9.73588L146.06 14.5906L141.202 14.5906L141.202 9.73588L136.33 9.73588L136.33 14.5906L131.46 14.5906L131.46 19.4574L136.33 19.4574L136.33 14.6004L136.328 14.6004ZM165.533 14.5884L165.533 9.73323L170.404 9.73323L170.404 14.6004L165.533 14.6004L165.533 14.5884ZM150.932 38.913L150.932 43.7798L146.06 43.7798L146.06 38.913L150.932 38.913ZM136.328 29.1911L136.328 24.3243L131.457 24.3243L131.457 29.1911L136.328 29.1911ZM160.674 34.0462L165.533 34.0462L165.533 29.1911L160.674 29.1911L160.674 34.0462ZM160.662 9.73323L160.662 4.86672L155.803 4.86672L155.803 9.73323L150.932 9.73323L150.932 4.86672L146.06 4.86672L146.06 9.73323L141.19 9.73323L141.19 4.86672L136.33 4.86672L136.33 9.73323L131.46 9.73323L131.46 4.86672L136.33 4.86672L136.33 -0.000334854L141.202 -0.000334429L141.202 4.86672L146.06 4.86672L146.06 -0.000334005L150.932 -0.000333579L150.932 4.86672L155.803 4.86672L155.803 -0.000333154L160.674 -0.000332728L160.674 4.86672L165.533 4.86672L165.533 -0.000332304L170.404 -0.000331879L170.404 4.86672L165.533 4.86672L165.533 9.73323L160.662 9.73323ZM141.202 19.4551L141.202 24.3219L146.06 24.3219L146.06 19.4551L141.202 19.4551ZM150.932 19.4551L150.932 14.6004L146.06 14.6004L146.06 19.4551L150.932 19.4551ZM155.803 19.4551L150.932 19.4551L150.932 24.3219L155.803 24.3219L155.803 19.4551ZM155.803 19.4551L160.662 19.4551L160.662 14.6004L155.803 14.6004L155.803 19.4551ZM155.803 29.1911L160.662 29.1911L160.662 24.3243L155.803 24.3243L155.803 29.1911ZM150.932 29.1911L150.932 34.0462L155.803 34.0462L155.803 29.1911L150.932 29.1911ZM146.058 29.1911L150.929 29.1911L150.929 24.3243L146.058 24.3243L146.058 29.1911ZM146.058 29.1911L141.199 29.1911L141.199 34.0462L146.058 34.0462L146.058 29.1911ZM160.674 24.3243L160.674 19.4574L165.533 19.4574L165.533 24.3243L160.674 24.3243ZM126.586 38.913L131.457 38.913L131.457 43.7798L126.586 43.7798L126.586 38.913ZM131.457 29.1911L126.586 29.1911L126.586 34.0582L131.457 34.0582L131.457 29.1911ZM126.586 19.4551L131.457 19.4551L131.457 24.3219L126.586 24.3219L126.586 19.4551ZM131.457 9.73323L126.586 9.73323L126.586 14.6004L131.457 14.6004L131.457 9.73323ZM131.457 -0.00033528L126.586 -0.000335705L126.586 4.86672L131.457 4.86672L131.457 -0.00033528Z" fill="#6A70F6"/>
<path d="M0 190.675H43.8182V146.895C19.6184 146.895 0 166.496 0 190.675Z" fill="#6A70F6"/>
<path fill-rule="evenodd" clip-rule="evenodd" d="M370 318.133V323H326.182V318.133H370ZM370 303.537V298.67H326.182V303.537H370ZM370 288.941V293.808H326.182V288.941H370ZM370 279.22V284.087H326.182V279.22H370ZM370 313.266V308.399H326.182V313.266H370Z" fill="white"/>
</svg>
