<svg width="375" height="270" viewBox="0 0 375 270" fill="none" xmlns="http://www.w3.org/2000/svg">
<path fill-rule="evenodd" clip-rule="evenodd" d="M295.005 15.0075L299.995 15.0075L299.995 19.9975L295.005 19.9975L295.005 25L299.995 25L299.995 30.0024L295.005 30.0024L295.005 34.9924L290.003 34.9924L290.003 39.9948L295.005 39.9948L295.005 35.0048L299.995 35.0048L299.995 39.9948L295.005 39.9948L295.005 45L300.007 45L300.007 39.9976L304.997 39.9976L304.997 35.0076L310 35.0076L310 39.9976L315.002 39.9976L315.002 35.0076L319.992 35.0076L319.992 39.9976L315.002 39.9976L315.002 45L320.005 45L320.005 39.9976L324.995 39.9976L324.995 45L330 45L330 39.9976L324.997 39.9976L324.997 35.0076L330 35.0076L330 30.0048L324.997 30.0048L324.997 25.0024L330 25.0024L330 19.9999L324.997 19.9999L324.997 15.0099L324.997 14.9975L320.007 14.9975L320.007 10.0075L315.005 10.0075L315.005 14.9975L310.003 14.9975L310.003 10.0075L304.999 10.0075L304.999 14.9975L300.01 14.9975L300.01 10.0075L295.007 10.0075L295.007 14.9975L290.005 14.9975L290.005 19.9999L295.007 19.9999L295.007 15.0075L295.005 15.0075ZM324.997 14.9952L324.997 10.0048L330 10.0048L330 15.0075L324.997 15.0075L324.997 14.9952ZM310.003 39.9976L310.003 45L304.999 45L304.999 39.9976L310.003 39.9976ZM295.005 30.0048L295.005 25.0024L290.003 25.0024L290.003 30.0048L295.005 30.0048ZM320.007 34.9952L324.997 34.9952L324.997 30.0048L320.007 30.0048L320.007 34.9952ZM319.995 10.0048L319.995 5.00267L315.005 5.00267L315.005 10.0048L310.003 10.0048L310.003 5.00267L304.999 5.00267L304.999 10.0048L299.998 10.0048L299.998 5.00267L295.007 5.00267L295.007 10.0048L290.005 10.0048L290.005 5.00267L295.007 5.00267L295.007 -3.05581e-06L300.01 -2.61894e-06L300.01 5.00267L304.999 5.00267L304.999 -2.1832e-06L310.003 -1.74626e-06L310.003 5.00267L315.005 5.00267L315.005 -1.30947e-06L320.007 -8.72608e-07L320.007 5.00267L324.997 5.00267L324.997 -4.36864e-07L330 0L330 5.00267L324.997 5.00267L324.997 10.0048L319.995 10.0048ZM300.01 19.9975L300.01 25L304.999 25L304.999 19.9975L300.01 19.9975ZM310.003 19.9975L310.003 15.0075L304.999 15.0075L304.999 19.9975L310.003 19.9975ZM315.005 19.9975L310.003 19.9975L310.003 25L315.005 25L315.005 19.9975ZM315.005 19.9975L319.995 19.9975L319.995 15.0075L315.005 15.0075L315.005 19.9975ZM315.005 30.0048L319.995 30.0048L319.995 25.0024L315.005 25.0024L315.005 30.0048ZM310.003 30.0048L310.003 34.9952L315.005 34.9952L315.005 30.0048L310.003 30.0048ZM304.997 30.0048L310 30.0048L310 25.0024L304.997 25.0024L304.997 30.0048ZM304.997 30.0048L300.007 30.0048L300.007 34.9952L304.997 34.9952L304.997 30.0048ZM320.007 25.0024L320.007 19.9999L324.997 19.9999L324.997 25.0024L320.007 25.0024ZM285 39.9976L290.003 39.9976L290.003 45L285 45L285 39.9976ZM290.003 30.0048L285 30.0048L285 35.0076L290.003 35.0076L290.003 30.0048ZM285 19.9975L290.003 19.9975L290.003 25L285 25L285 19.9975ZM290.003 10.0048L285 10.0048L285 15.0075L290.003 15.0075L290.003 10.0048ZM290.003 -3.49281e-06L285 -3.92968e-06L285 5.00267L290.003 5.00267L290.003 -3.49281e-06Z" fill="#6A70F6"/>
<path d="M0 180H45V135C20.1475 135 0 155.148 0 180Z" fill="#6A70F6"/>
<path fill-rule="evenodd" clip-rule="evenodd" d="M376 264.998V270H331V264.998H376ZM376 249.995V244.993H331V249.995H376ZM376 234.992V239.995H331V234.992H376ZM376 225V230.002H331V225H376ZM376 259.995V254.993H331V259.995H376Z" fill="white"/>
</svg>
