<svg width="375" height="180" viewBox="0 0 375 180" fill="none" xmlns="http://www.w3.org/2000/svg">
<path fill-rule="evenodd" clip-rule="evenodd" d="M10.0045 15.0075L14.9952 15.0075L14.9952 19.9975L10.0045 19.9975L10.0045 25L14.9952 25L14.9952 30.0024L10.0045 30.0024L10.0045 34.9924L5.00266 34.9924L5.00266 39.9948L10.0045 39.9948L10.0045 35.0048L14.9952 35.0048L14.9952 39.9948L10.0045 39.9948L10.0045 45L15.0072 45L15.0072 39.9976L19.9971 39.9976L19.9971 35.0076L24.9997 35.0076L24.9997 39.9976L30.0024 39.9976L30.0024 35.0076L34.9923 35.0076L34.9922 39.9976L30.0024 39.9976L30.0024 45L35.0051 45L35.0051 39.9976L39.9949 39.9976L39.9949 45L45 45L45 39.9976L39.9973 39.9976L39.9973 35.0076L45 35.0076L45 30.0048L39.9973 30.0048L39.9973 25.0024L45 25.0024L45 19.9999L39.9973 19.9999L39.9973 15.0099L39.9973 14.9975L35.0075 14.9975L35.0075 10.0075L30.0048 10.0075L30.0048 14.9975L25.0029 14.9975L25.0029 10.0075L19.9995 10.0075L19.9995 14.9975L15.0096 14.9975L15.0096 10.0075L10.0069 10.0075L10.0069 14.9975L5.00509 14.9975L5.00509 19.9999L10.0069 19.9999L10.0069 15.0075L10.0045 15.0075ZM39.9973 14.9952L39.9973 10.0048L45 10.0048L45 15.0075L39.9973 15.0075L39.9973 14.9952ZM25.0029 39.9976L25.0029 45L19.9995 45L19.9995 39.9976L25.0029 39.9976ZM10.0045 30.0048L10.0045 25.0024L5.00266 25.0024L5.00266 30.0048L10.0045 30.0048ZM35.0075 34.9952L39.9973 34.9952L39.9973 30.0048L35.0075 30.0048L35.0075 34.9952ZM34.9947 10.0048L34.9947 5.00267L30.0048 5.00267L30.0048 10.0048L25.0029 10.0048L25.003 5.00267L19.9995 5.00267L19.9995 10.0048L14.9976 10.0048L14.9976 5.00267L10.0069 5.00267L10.0069 10.0048L5.00509 10.0048L5.00509 5.00267L10.0069 5.00267L10.0069 -2.99648e-06L15.0096 -2.56809e-06L15.0096 5.00267L19.9995 5.00267L19.9995 -2.14081e-06L25.003 -1.71236e-06L25.003 5.00267L30.0048 5.00267L30.0048 -1.28405e-06L35.0075 -8.55665e-07L35.0075 5.00267L39.9973 5.00267L39.9973 -4.28382e-07L45 0L45 5.00267L39.9973 5.00267L39.9973 10.0048L34.9947 10.0048ZM15.0096 19.9975L15.0096 25L19.9995 25L19.9995 19.9975L15.0096 19.9975ZM25.0029 19.9975L25.0029 15.0075L19.9995 15.0075L19.9995 19.9975L25.0029 19.9975ZM30.0048 19.9975L25.0029 19.9975L25.0029 25L30.0048 25L30.0048 19.9975ZM30.0048 19.9975L34.9955 19.9975L34.9955 15.0075L30.0048 15.0075L30.0048 19.9975ZM30.0048 30.0048L34.9955 30.0048L34.9955 25.0024L30.0048 25.0024L30.0048 30.0048ZM25.0029 30.0048L25.0029 34.9952L30.0048 34.9952L30.0048 30.0048L25.0029 30.0048ZM19.9971 30.0048L24.9997 30.0048L24.9997 25.0024L19.9971 25.0024L19.9971 30.0048ZM19.9971 30.0048L15.0072 30.0048L15.0072 34.9952L19.9971 34.9952L19.9971 30.0048ZM35.0075 25.0024L35.0075 19.9999L39.9973 19.9999L39.9973 25.0024L35.0075 25.0024ZM4.4648e-07 39.9976L5.00266 39.9976L5.00266 45L0 45L4.4648e-07 39.9976ZM5.00266 30.0048L1.33836e-06 30.0048L8.9185e-07 35.0076L5.00266 35.0076L5.00266 30.0048ZM2.23153e-06 19.9975L5.00266 19.9975L5.00266 25L1.78505e-06 25L2.23153e-06 19.9975ZM5.00267 10.0048L3.12341e-06 10.0048L2.6769e-06 15.0075L5.00267 15.0075L5.00267 10.0048ZM5.00267 -3.42499e-06L4.01636e-06 -3.85338e-06L3.56986e-06 5.00267L5.00267 5.00267L5.00267 -3.42499e-06Z" fill="#2F2FF4"/>
<path d="M285 90H330V45C305.148 45 285 65.1476 285 90Z" fill="#1F242C"/>
<path fill-rule="evenodd" clip-rule="evenodd" d="M335.002 180H330V135H335.002V180ZM350.005 180H355.007V135H350.005V180ZM365.008 180H360.005V135H365.008V180ZM375 180H369.998V135H375V180ZM340.005 180H345.007V135H340.005V180Z" fill="white"/>
</svg>
