<svg width="296" height="333" viewBox="0 0 296 333" fill="none" xmlns="http://www.w3.org/2000/svg">
<path fill-rule="evenodd" clip-rule="evenodd" d="M10.0095 15.0809L15.0026 15.0809L15.0026 20.0718L10.0095 20.0718L10.0095 25.0752L15.0026 25.0752L15.0026 30.0786L10.0095 30.0786L10.0095 35.0696L5.00514 35.0696L5.00514 40.0729L10.0095 40.0729L10.0095 35.0819L15.0026 35.0819L15.0026 40.0729L10.0095 40.0729L10.0095 45.0791L15.0146 45.0791L15.0146 40.0757L20.007 40.0757L20.007 35.0847L25.0121 35.0847L25.0121 40.0757L30.0173 40.0757L30.0173 35.0847L35.0096 35.0847L35.0096 40.0757L30.0173 40.0757L30.0173 45.0791L35.0224 45.0791L35.0224 40.0757L40.0148 40.0757L40.0148 45.0791L45.0223 45.0791L45.0223 40.0757L40.0172 40.0757L40.0172 35.0847L45.0223 35.0847L45.0223 30.081L40.0172 30.081L40.0172 25.0776L45.0223 25.0776L45.0223 20.0742L40.0172 20.0742L40.0172 15.0833L40.0172 15.0708L35.0248 15.0708L35.0248 10.0799L30.0197 10.0799L30.0197 15.0708L25.0153 15.0708L25.0153 10.0799L20.0094 10.0799L20.0094 15.0708L15.0171 15.0708L15.0171 10.0799L10.0119 10.0799L10.0119 15.0708L5.00756 15.0708L5.00756 20.0742L10.0119 20.0742L10.0119 15.0809L10.0095 15.0809ZM40.0172 15.0685L40.0172 10.0772L45.0223 10.0772L45.0223 15.0809L40.0172 15.0809L40.0172 15.0685ZM25.0153 40.0757L25.0153 45.0791L20.0094 45.0791L20.0094 40.0757L25.0153 40.0757ZM10.0095 30.081L10.0095 25.0776L5.00514 25.0776L5.00514 30.081L10.0095 30.081ZM35.0248 35.0724L40.0172 35.0724L40.0172 30.081L35.0248 30.081L35.0248 35.0724ZM35.012 10.0772L35.012 5.07408L30.0197 5.07408L30.0197 10.0772L25.0153 10.0772L25.0153 5.07408L20.0094 5.07408L20.0094 10.0772L15.005 10.0772L15.005 5.07408L10.0119 5.07408L10.0119 10.0772L5.00756 10.0772L5.00756 5.07408L10.0119 5.07408L10.0119 0.0704506L15.0171 0.0704511L15.0171 5.07408L20.0094 5.07408L20.0094 0.0704515L25.0153 0.0704519L25.0153 5.07408L30.0197 5.07408L30.0197 0.0704524L35.0248 0.0704528L35.0248 5.07408L40.0172 5.07408L40.0172 0.0704532L45.0223 0.0704536L45.0223 5.07409L40.0172 5.07408L40.0172 10.0772L35.012 10.0772ZM15.0171 20.0718L15.0171 25.0752L20.0094 25.0752L20.0094 20.0718L15.0171 20.0718ZM25.0153 20.0718L25.0153 15.0809L20.0094 15.0809L20.0094 20.0718L25.0153 20.0718ZM30.0197 20.0718L25.0153 20.0718L25.0153 25.0752L30.0197 25.0752L30.0197 20.0718ZM30.0197 20.0718L35.0128 20.0718L35.0128 15.0809L30.0197 15.0809L30.0197 20.0718ZM30.0197 30.081L35.0128 30.081L35.0128 25.0776L30.0197 25.0776L30.0197 30.081ZM25.0153 30.081L25.0153 35.0724L30.0197 35.0724L30.0197 30.081L25.0153 30.081ZM20.007 30.081L25.0121 30.081L25.0121 25.0776L20.007 25.0776L20.007 30.081ZM20.007 30.081L15.0146 30.081L15.0146 35.0724L20.007 35.0724L20.007 30.081ZM35.0248 25.0776L35.0248 20.0742L40.0172 20.0742L40.0172 25.0776L35.0248 25.0776ZM-7.18269e-06 40.0757L5.00514 40.0757L5.00514 45.0791L-7.62939e-06 45.0791L-7.18269e-06 40.0757ZM5.00514 30.081L-6.29037e-06 30.081L-6.7371e-06 35.0847L5.00514 35.0847L5.00514 30.081ZM-5.39676e-06 20.0718L5.00514 20.0718L5.00514 25.0752L-5.84346e-06 25.0752L-5.39676e-06 20.0718ZM5.00514 10.0772L-4.50443e-06 10.0772L-4.95116e-06 15.0809L5.00514 15.0809L5.00514 10.0772ZM5.00514 0.0704502L-3.61104e-06 0.0704498L-4.05776e-06 5.07408L5.00514 5.07408L5.00514 0.0704502Z" fill="#2F2FF4"/>
<path d="M249.261 45.0086H295.215V0C269.836 0 249.261 20.1515 249.261 45.0086Z" fill="#1F242C"/>
<path fill-rule="evenodd" clip-rule="evenodd" d="M50.0272 332.134H45.0223V287.125H50.0272V332.134ZM65.0372 332.134H70.0421V287.125H65.0372V332.134ZM80.0472 332.134H75.0423V287.125H80.0472V332.134ZM90.0446 332.134H85.0397V287.125H90.0446V332.134ZM55.0322 332.134H60.0371V287.125H55.0322V332.134Z" fill="white"/>
</svg>
