<svg width="374" height="315" viewBox="0 0 374 315" fill="none" xmlns="http://www.w3.org/2000/svg">
<path fill-rule="evenodd" clip-rule="evenodd" d="M54.0045 74.9922H58.9952V70.0025H54.0045V64.9999H58.9952V59.9973H54.0045V55.0076H49.0027V50.0058H54.0045V54.9955H58.9952V50.0058H54.0045V45H59.0073V50.0026H63.9971V54.9923H68.9998V50.0026H74.0024V54.9923H78.9923V50.0026H74.0024V45H79.0051V50.0026H83.9949V45H89V50.0026H83.9973V54.9923H89V59.9949H83.9973V64.9975H89V70.0001H83.9973V74.9899V75.0027H79.0075V79.9924H74.0048V75.0027H69.0029V79.9924H63.9995V75.0027H59.0097V79.9924H54.007V75.0027H49.0051V70.0001H54.007V74.9922H54.0045ZM83.9973 75.0043V79.9948H89V74.9922H83.9973V75.0043ZM69.0029 50.0026V45H64.0003V50.0026H69.0029ZM54.0045 59.9949V64.9975H49.0027V59.9949H54.0045ZM79.0075 55.0052H83.9973V59.9949H79.0075V55.0052ZM78.9955 79.9948V84.9974H74.0048V79.9948H69.0029V84.9974H63.9995V79.9948H58.9976V84.9974H54.007V79.9948H49.0051V84.9974H54.007V90H59.0097V84.9974H63.9995V90H69.0029V84.9974H74.0048V90H79.0075V84.9974H83.9973V90H89V84.9974H83.9973V79.9948H78.9955ZM59.0097 70.0025V64.9999H64.0003V70.0025H59.0097ZM69.0029 70.0025V74.9922H64.0003V70.0025H69.0029ZM74.0048 70.0025H69.0029V64.9999H74.0048V70.0025ZM74.0048 70.0025H78.9955V74.9922H74.0048V70.0025ZM74.0048 59.9949H78.9955V64.9975H74.0048V59.9949ZM69.0029 59.9949V55.0052H74.0048V59.9949H69.0029ZM63.9971 59.9949H68.9998V64.9975H63.9971V59.9949ZM63.9971 59.9949H59.0073V55.0052H63.9971V59.9949ZM79.0075 64.9975V70.0001H83.9973V64.9975H79.0075ZM44 50.0026H49.0027V45H44V50.0026ZM49.0027 59.9949H44V54.9923H49.0027V59.9949ZM44 70.0025H49.0027V64.9999H44V70.0025ZM49.0027 79.9948H44V74.9922H49.0027V79.9948ZM49.0027 90H44V84.9974H49.0027V90Z" fill="#4038FF"/>
<path fill-rule="evenodd" clip-rule="evenodd" d="M339.005 29.9925H343.995V25.0025H339.005V20H343.995V14.9976H339.005V10.0076H334.003V5.00524H339.005V9.99524H343.995V5.00524H339.005V0H344.007V5.00243H348.997V9.99244H354V5.00243H359.002V9.99244H363.992V5.00243H359.002V0H364.005V5.00243H368.995V0H374V5.00243H368.997V9.99244H374V14.9952H368.997V19.9976H374V25.0001H368.997V29.9901V30.0025H364.007V34.9925H359.005V30.0025H354.003V34.9925H348.999V30.0025H344.01V34.9925H339.007V30.0025H334.005V25.0001H339.007V29.9925H339.005ZM368.997 30.0048V34.9952H374V29.9925H368.997V30.0048ZM354.003 5.00243V0H348.999V5.00243H354.003ZM339.005 14.9952V19.9976H334.003V14.9952H339.005ZM364.007 10.0048H368.997V14.9952H364.007V10.0048ZM363.995 34.9952V39.9973H359.005V34.9952H354.003V39.9973H348.999V34.9952H343.998V39.9973H339.007V34.9952H334.005V39.9973H339.007V45H344.01V39.9973H348.999V45H354.003V39.9973H359.005V45H364.007V39.9973H368.997V45H374V39.9973H368.997V34.9952H363.995ZM344.01 25.0025V20H348.999V25.0025H344.01ZM354.003 25.0025V29.9925H348.999V25.0025H354.003ZM359.005 25.0025H354.003V20H359.005V25.0025ZM359.005 25.0025H363.995V29.9925H359.005V25.0025ZM359.005 14.9952H363.995V19.9976H359.005V14.9952ZM354.003 14.9952V10.0048H359.005V14.9952H354.003ZM348.997 14.9952H354V19.9976H348.997V14.9952ZM348.997 14.9952H344.007V10.0048H348.997V14.9952ZM364.007 19.9976V25.0001H368.997V19.9976H364.007ZM329 5.00243H334.003V0H329V5.00243ZM334.003 14.9952H329V9.99244H334.003V14.9952ZM329 25.0025H334.003V20H329V25.0025ZM334.003 34.9952H329V29.9925H334.003V34.9952ZM334.003 45H329V39.9973H334.003V45Z" fill="#2F2FF4"/>
<path fill-rule="evenodd" clip-rule="evenodd" d="M284 84.9981V90H329V84.9981H284ZM284 80.0003V75H329V80.0003H284ZM284 70.0005V65.0003H329V70.0005H284ZM284 55.0005V60H329V55.0005H284ZM284 50.0003V45H329V50.0003H284Z" fill="#1F242C"/>
<path fill-rule="evenodd" clip-rule="evenodd" d="M329 309.997V315H374V309.997H329ZM329 305V300H374V305H329ZM329 295V290H374V295H329ZM329 280V285H374V280H329ZM329 275V270H374V275H329Z" fill="#1F242C"/>
<path fill-rule="evenodd" clip-rule="evenodd" d="M4.99112 270.247H-7.62939e-06C-7.62939e-06 245.439 20.1109 225.329 44.9177 225.329V230.319C22.8662 230.319 4.99112 248.194 4.99112 270.247ZM14.9726 270.247H9.98224C9.98224 250.952 25.623 235.311 44.9177 235.311V240.302C28.3807 240.302 14.9726 253.709 14.9726 270.247ZM19.9637 270.247H24.954C24.954 259.222 33.8936 250.283 44.9177 250.283V245.292C31.1359 245.292 19.9637 256.464 19.9637 270.247ZM34.9363 270.247H29.9451C29.9451 261.977 36.648 255.274 44.9177 255.274V260.265C39.4056 260.265 34.9363 264.734 34.9363 270.247ZM44.9177 270.247H39.9274C39.9274 267.489 42.1609 265.256 44.9177 265.256V270.247Z" fill="#1F242C"/>
<path fill-rule="evenodd" clip-rule="evenodd" d="M89 310V315C64.1478 315 44 294.852 44 270H49.0003C49.0003 292.092 66.9073 310 89 310ZM89 300V304.999C69.67 304.999 53.9997 289.33 53.9997 270H59C59 286.567 72.4327 300 89 300ZM89 295V289.999C77.9548 289.999 68.9998 281.045 68.9998 270H63.9995C63.9995 283.807 75.1921 295 89 295ZM89 280V284.999C80.7151 284.999 74 278.285 74 270H79.0003C79.0003 275.522 83.4778 280 89 280ZM89 270V274.999C86.2373 274.999 83.9997 272.762 83.9997 270H89Z" fill="#4038FF"/>
<path fill-rule="evenodd" clip-rule="evenodd" d="M274.971 156.586H279.35V117.231H274.971V156.586ZM270.595 156.586H266.218V117.231H270.595V156.586ZM261.842 156.586H257.465V117.231H261.842V156.586ZM248.711 156.586H253.088V117.231H248.711V156.586ZM244.334 156.586H239.956V117.231H244.334V156.586Z" fill="black"/>
</svg>
