<svg width="375" height="225" viewBox="0 0 375 225" fill="none" xmlns="http://www.w3.org/2000/svg">
<path fill-rule="evenodd" clip-rule="evenodd" d="M364.995 119.992H360.005V115.002H364.995V109.999H360.005V104.998H364.995V100.008H369.997V95.0051H364.995V99.9949H360.005V95.0051H364.995V90H359.992V95.0027H355.002V99.9925H350V95.0027H344.998V99.9925H340.008V95.0027H344.998V90H339.995V95.0027H335.005V90H330V95.0027H335.003V99.9925H330V104.995H335.003V109.998H330V115H335.003V120.002H339.993V124.992H344.994V120.002H349.997V124.992H355V120.002H359.99V124.992H364.992V120.002H369.995V115H364.992V119.992H364.995ZM335.003 120.005V124.995H330V119.992H335.003V120.005ZM349.997 95.0027V90H355V95.0027H349.997ZM364.995 104.995V109.997H369.997V104.995H364.995ZM339.993 100.005H335.003V104.995H339.993V100.005ZM340.005 124.995V129.997H344.995V124.995H349.997V129.997H355V124.995H360.002V129.997H364.992V124.995H369.995V129.997H364.992V134.999H359.99V129.997H355V134.999H349.997V129.997H344.995V134.999H339.993V129.997H335.003V134.999H330V129.997H335.003V124.995H340.005ZM359.99 115.002V109.999H355V115.002H359.99ZM349.997 115.002V119.992H355V115.002H349.997ZM344.994 115.002H349.997V109.999H344.994V115.002ZM344.994 115.002H340.005V119.992H344.994V115.002ZM344.994 104.995H340.005V109.997H344.994V104.995ZM349.997 104.995V100.005H344.994V104.995H349.997ZM355.003 104.995H350V109.997H355.003V104.995ZM355.003 104.995H359.993V100.005H355.003V104.995ZM339.993 109.997V115H335.003V109.997H339.993ZM375 95.0027H369.997V90H375V95.0027ZM369.997 104.995H375V99.9925H369.997V104.995ZM375 115.002H369.997V109.999H375V115.002ZM369.997 124.995H375V119.992H369.997V124.995ZM369.997 135H375V129.997H369.997V135Z" fill="#DEE3E9"/>
<path fill-rule="evenodd" clip-rule="evenodd" d="M165 5.00276V0H210V5.00276H165ZM165 9.99991V15.0003H210V9.99991H165ZM165 19.9998V25.0002H210V19.9998H165ZM165 35.0001V29.9997H210V35.0001H165ZM165 40.0004V45H210V40.0004H165Z" fill="#6A70F6"/>
<path fill-rule="evenodd" clip-rule="evenodd" d="M39.998 180H45V224.999H39.998V180ZM35.0001 180.001H30.0005V225H35.0001V180.001ZM25.0002 180.001H19.9998V225H25.0002V180.001ZM9.99991 180.001H15.0003V225H9.99991V180.001ZM4.99955 180.001H0V225H4.99955V180.001Z" fill="#6A70F6"/>
<path fill-rule="evenodd" clip-rule="evenodd" d="M89.9992 140.003V135H45V140.003H89.9992ZM89.9992 155.005V160.007H45V155.005H89.9992ZM89.9992 170.007V165.005H45V170.007H89.9992ZM90 180V174.997H45.0008V180H90ZM89.9992 145.005V150.007H45V145.005H89.9992Z" fill="#DEE3E9"/>
</svg>
