<svg width="359" height="405" viewBox="0 0 359 405" fill="none" xmlns="http://www.w3.org/2000/svg">
<path fill-rule="evenodd" clip-rule="evenodd" d="M54.0044 75.5956H58.9951V70.615H54.0044V65.6215H58.9951V60.6281H54.0044V55.6475H49.0026V50.6548H54.0044V55.6355H58.9951V50.6548H54.0044V45.6582H59.0071V50.6516H63.997V55.6323H68.9997V50.6516H74.0023V55.6323H78.9922V50.6516H74.0023V45.6582H79.005V50.6516H83.9948V45.6582H88.9999V50.6516H83.9972V55.6323H88.9999V60.6257H83.9972V65.6192H88.9999V70.6126H83.9972V75.5932V75.606H79.0074V80.5867H74.0047V75.606H69.0028V80.5867H63.9994V75.606H59.0095V80.5867H54.0069V75.606H49.005V70.6126H54.0069V75.5956H54.0044ZM83.9972 75.6076V80.5891H88.9999V75.5956H83.9972V75.6076ZM69.0028 50.6516V45.6582H64.0002V50.6516H69.0028ZM54.0044 60.6257V65.6192H49.0026V60.6257H54.0044ZM79.0074 55.6451H83.9972V60.6257H79.0074V55.6451ZM78.9954 80.5891V85.5825H74.0047V80.5891H69.0028V85.5825H63.9994V80.5891H58.9975V85.5825H54.0069V80.5891H49.005V85.5825H54.0069V90.5759H59.0095V85.5825H63.9994V90.5759H69.0028V85.5825H74.0047V90.5759H79.0074V85.5825H83.9972V90.5759H88.9999V85.5825H83.9972V80.5891H78.9954ZM59.0095 70.615V65.6215H64.0002V70.615H59.0095ZM69.0028 70.615V75.5956H64.0002V70.615H69.0028ZM74.0047 70.615H69.0028V65.6215H74.0047V70.615ZM74.0047 70.615H78.9954V75.5956H74.0047V70.615ZM74.0047 60.6257H78.9954V65.6192H74.0047V60.6257ZM69.0028 60.6257V55.6451H74.0047V60.6257H69.0028ZM63.997 60.6257H68.9997V65.6192H63.997V60.6257ZM63.997 60.6257H59.0071V55.6451H63.997V60.6257ZM79.0074 65.6192V70.6126H83.9972V65.6192H79.0074ZM43.9999 50.6516H49.0026V45.6582H43.9999V50.6516ZM49.0026 60.6257H43.9999V55.6323H49.0026V60.6257ZM43.9999 70.615H49.0026V65.6215H43.9999V70.615ZM49.0026 80.5891H43.9999V75.5956H49.0026V80.5891ZM49.0026 90.5759H43.9999V85.5825H49.0026V90.5759Z" fill="#4038FF"/>
<path fill-rule="evenodd" clip-rule="evenodd" d="M323.709 29.9925H328.709V25.0025H323.709V20H328.709V14.9976H323.709V10.0076H318.698V5.00524H323.709V9.99524H328.709V5.00524H323.709V0H328.721V5.00243H333.72V9.99244H338.732V5.00243H343.744V9.99244H348.743V5.00243H343.744V0H348.756V5.00243H353.755V0H358.769V5.00243H353.757V9.99244H358.769V14.9952H353.757V19.9976H358.769V25.0001H353.757V29.9901V30.0025H348.758V34.9925H343.746V30.0025H338.735V34.9925H333.723V30.0025H328.724V34.9925H323.712V30.0025H318.701V25.0001H323.712V29.9925H323.709ZM353.757 30.0048V34.9952H358.769V29.9925H353.757V30.0048ZM338.735 5.00243V0H333.723V5.00243H338.735ZM323.709 14.9952V19.9976H318.698V14.9952H323.709ZM348.758 10.0048H353.757V14.9952H348.758V10.0048ZM348.745 34.9952V39.9973H343.746V34.9952H338.735V39.9973H333.723V34.9952H328.712V39.9973H323.712V34.9952H318.701V39.9973H323.712V45H328.724V39.9973H333.723V45H338.735V39.9973H343.746V45H348.758V39.9973H353.757V45H358.769V39.9973H353.757V34.9952H348.745ZM328.724 25.0025V20H333.723V25.0025H328.724ZM338.735 25.0025V29.9925H333.723V25.0025H338.735ZM343.746 25.0025H338.735V20H343.746V25.0025ZM343.746 25.0025H348.746V29.9925H343.746V25.0025ZM343.746 14.9952H348.746V19.9976H343.746V14.9952ZM338.735 14.9952V10.0048H343.746V14.9952H338.735ZM333.72 14.9952H338.732V19.9976H333.72V14.9952ZM333.72 14.9952H328.721V10.0048H333.72V14.9952ZM348.758 19.9976V25.0001H353.757V19.9976H348.758ZM313.687 5.00243H318.698V0H313.687V5.00243ZM318.698 14.9952H313.687V9.99244H318.698V14.9952ZM313.687 25.0025H318.698V20H313.687V25.0025ZM318.698 34.9952H313.687V29.9925H318.698V34.9952ZM318.698 45H313.687V39.9973H318.698V45Z" fill="#2F2FF4"/>
<path fill-rule="evenodd" clip-rule="evenodd" d="M268.604 84.9981V90H313.687V84.9981H268.604ZM268.604 80.0003V75H313.687V80.0003H268.604ZM268.604 70.0005V65.0003H313.687V70.0005H268.604ZM268.604 55.0005V60H313.687V55.0005H268.604ZM268.604 50.0003V45H313.687V50.0003H268.604Z" fill="#1F242C"/>
<path fill-rule="evenodd" clip-rule="evenodd" d="M314 355.088V360.082H359V355.088H314ZM314 350.1V345.109H359V350.1H314ZM314 340.118V335.128H359V340.118H314ZM314 325.146V330.137H359V325.146H314ZM314 320.155V315.164H359V320.155H314Z" fill="#1F242C"/>
<path fill-rule="evenodd" clip-rule="evenodd" d="M5.00027 270.247H3.8147e-06C3.8147e-06 245.439 20.1478 225.329 45 225.329V230.319C22.9081 230.319 5.00027 248.194 5.00027 270.247ZM15 270.247H10.0005C10.0005 250.952 25.67 235.311 45 235.311V240.302C28.4327 240.302 15 253.709 15 270.247ZM20.0003 270.247H24.9997C24.9997 259.222 33.9557 250.283 45 250.283V245.292C31.193 245.292 20.0003 256.464 20.0003 270.247ZM35.0003 270.247H30C30 261.977 36.7152 255.274 45 255.274V260.265C39.4778 260.265 35.0003 264.734 35.0003 270.247ZM45 270.247H40.0005C40.0005 267.489 42.2381 265.256 45 265.256V270.247Z" fill="#1F242C"/>
<path fill-rule="evenodd" clip-rule="evenodd" d="M88.9999 310.174V315.165C64.1477 315.165 43.9999 295.054 43.9999 270.247H49.0002C49.0002 292.299 66.9072 310.174 88.9999 310.174ZM88.9999 300.192V305.183C69.6699 305.183 53.9996 289.542 53.9996 270.247H58.9999C58.9999 286.784 72.4326 300.192 88.9999 300.192ZM88.9999 295.201V290.21C77.9547 290.21 68.9997 281.272 68.9997 270.247H63.9994C63.9994 284.029 75.192 295.201 88.9999 295.201ZM88.9999 280.229V285.219C80.715 285.219 73.9999 278.517 73.9999 270.247H79.0002C79.0002 275.759 83.4777 280.229 88.9999 280.229ZM88.9999 270.247V275.237C86.2372 275.237 83.9996 273.004 83.9996 270.247H88.9999Z" fill="#4038FF"/>
<path fill-rule="evenodd" clip-rule="evenodd" d="M173.997 359.084H179V404.002H173.997V359.084ZM158.995 359.084H153.992V404.002H158.995V359.084ZM143.992 359.084H148.994V404.002H143.992V359.084ZM134 359.084H139.002V404.002H134V359.084ZM168.995 359.084H163.993V404.002H168.995V359.084Z" fill="#1F242C"/>
<path fill-rule="evenodd" clip-rule="evenodd" d="M275.474 156.586H279.862V117.231H275.474V156.586ZM271.091 156.586H266.706V117.231H271.091V156.586ZM262.322 156.586H257.936V117.231H262.322V156.586ZM249.167 156.586H253.551V117.231H249.167V156.586ZM244.782 156.586H240.396V117.231H244.782V156.586Z" fill="black"/>
</svg>
