<?xml version="1.0" encoding="UTF-8"?><svg id="_024_Q4" xmlns="http://www.w3.org/2000/svg" viewBox="0 0 48 48"><defs><style>.cls-1{fill:#e8edf6;}.cls-2{fill:#4038ff;}</style></defs><g id="icon_31_Joystream_SDK"><g id="bg-31"><circle class="cls-1" cx="24" cy="24" r="24"/></g><path class="cls-2" d="M35.49,25.45l-2.56-4.54c-.31-2.14-.94-3.39-.94-3.39-2.3-5.41-7.58-5.79-10.95-5.41-2.12,.24-4.17,1.04-5.7,2.51-4.05,3.88-2.87,9.27-2.22,11.29,.16,.49,.42,.94,.73,1.36,2.78,3.85,2.12,8.73,2.12,8.73h11.33v-2.04c4.98,.6,5.61-2.6,5.68-3.16,0-.05,0-.1,0-.15v-3.27c3.18-1.1,2.51-1.93,2.51-1.93Zm-16.72-6.02l-2.67,1.89,2.67,1.89v1.28l-3.64-2.6v-1.14l3.64-2.6v1.27Zm3.14,5.06h-.91l2.18-8.45h.91l-2.19,8.45Zm8.06-2.6l-3.64,2.6v-1.28l2.67-1.89-2.67-1.89v-1.27l3.64,2.6v1.14Z"/></g></svg>