<?xml version="1.0" encoding="UTF-8"?><svg id="_024_Q1" xmlns="http://www.w3.org/2000/svg" viewBox="0 0 48 48"><defs><style>.cls-1,.cls-2{fill:#e8edf6;}.cls-1,.cls-3,.cls-4{stroke:#e8edf6;stroke-width:.5px;}.cls-1,.cls-3,.cls-4,.cls-5{stroke-miterlimit:10;}.cls-3,.cls-6,.cls-5{fill:none;}.cls-6{stroke-linejoin:bevel;}.cls-6,.cls-5{stroke:#4038ff;}.cls-4{fill:#4038ff;}</style></defs><g id="icon_20_js_cli_improvements"><g id="bg-20"><circle class="cls-2" cx="24" cy="24" r="24"/></g><g id="_лой_63"><g><g><g><rect class="cls-4" x="14.9" y="12.25" width="18.19" height="20.93" rx="2.2" ry="2.2" transform="translate(1.29 46.71) rotate(-90)"/><rect class="cls-1" x="17.2" y="14.26" width="13.49" height="17.69" rx=".74" ry=".74" transform="translate(.84 47.05) rotate(-90)"/></g><line class="cls-4" x1="24" y1="14.74" x2="24" y2="15.32"/></g><rect class="cls-4" x="12.1" y="31.81" width="23.8" height="2.57" rx="1.21" ry="1.21"/><path class="cls-3" d="M21.19,31.81v.64h0c0,.35,.26,.64,.57,.64h4.48c.32,0,.57-.29,.57-.64h0v-.64"/><polyline class="cls-6" points="16.4 17.88 19.9 21.38 16.4 24.88"/><line class="cls-5" x1="21.6" y1="24.88" x2="27.46" y2="24.88"/></g></g></g></svg>