<?xml version="1.0" encoding="UTF-8"?><svg id="_024_Q1" xmlns="http://www.w3.org/2000/svg" viewBox="0 0 48 48"><defs><style>.cls-1{fill:#e8edf6;}.cls-2{fill:#4038ff;}</style></defs><g id="icon_14_pioneer_financials_page"><g id="bg-14"><circle class="cls-1" cx="24" cy="24" r="24"/></g><g id="_лой_45"><g><g><g><path class="cls-2" d="M23.71,30.42h.41c2.5,0,4.53,2.03,4.53,4.53v.23c0,.25-.2,.45-.45,.45h-8.56c-.25,0-.45-.2-.45-.45v-.23c0-2.5,2.03-4.53,4.53-4.53Z"/><circle class="cls-2" cx="23.92" cy="27.12" r="2.16"/></g><g><path class="cls-2" d="M18.12,33.84h-2.81c-.18,0-.32-.14-.32-.32h0c0-1.76,1.43-3.18,3.18-3.18h0c.57,0,1.11,.15,1.57,.41"/><circle class="cls-2" cx="18.18" cy="28.12" r="1.45"/></g><g><path class="cls-2" d="M29.88,33.84h2.81c.18,0,.32-.14,.32-.32h0c0-1.76-1.43-3.18-3.18-3.18h0c-.57,0-1.11,.15-1.57,.41"/><circle class="cls-2" cx="29.82" cy="28.12" r="1.45"/></g></g><g><circle class="cls-2" cx="24" cy="18.03" r="6"/><path class="cls-1" d="M24,13.4c2.55,0,4.63,2.08,4.63,4.63s-2.08,4.63-4.63,4.63-4.63-2.08-4.63-4.63,2.08-4.63,4.63-4.63m0-.22c-2.68,0-4.85,2.17-4.85,4.85s2.17,4.85,4.85,4.85,4.85-2.17,4.85-4.85-2.17-4.85-4.85-4.85h0Z"/><rect class="cls-1" x="23.78" y="12.4" width=".44" height=".44"/><rect class="cls-1" x="21.08" y="13.13" width=".44" height=".44" transform="translate(-3.82 12.44) rotate(-30)"/><rect class="cls-1" x="19.1" y="15.11" width=".44" height=".44" transform="translate(-3.61 24.39) rotate(-60)"/><rect class="cls-1" x="18.37" y="17.81" width=".44" height=".44" transform="translate(.56 36.62) rotate(-90)"/><rect class="cls-1" x="19.1" y="20.51" width=".44" height=".44" transform="translate(11.02 47.83) rotate(-120)"/><rect class="cls-1" x="21.08" y="22.49" width=".44" height=".44" transform="translate(28.38 53.03) rotate(-150)"/><rect class="cls-1" x="23.78" y="23.22" width=".44" height=".44" transform="translate(48 46.88) rotate(-180)"/><rect class="cls-1" x="26.48" y="22.49" width=".44" height=".44" transform="translate(61.19 29.03) rotate(150)"/><rect class="cls-1" x="28.46" y="20.51" width=".44" height=".44" transform="translate(60.98 6.26) rotate(120)"/><rect class="cls-1" x="29.19" y="17.81" width=".44" height=".44" transform="translate(47.44 -11.38) rotate(90)"/><rect class="cls-1" x="28.46" y="15.11" width=".44" height=".44" transform="translate(27.61 -17.18) rotate(60)"/><rect class="cls-1" x="26.48" y="13.13" width=".44" height=".44" transform="translate(10.25 -11.56) rotate(30)"/></g></g></g></g></svg>