<?xml version="1.0" encoding="UTF-8"?><svg id="_024_Q1" xmlns="http://www.w3.org/2000/svg" viewBox="0 0 48 48"><defs><style>.cls-1{stroke-dasharray:0 0 17.81 13.91;}.cls-1,.cls-2,.cls-3,.cls-4,.cls-5{fill:none;stroke:#4038ff;stroke-linejoin:round;stroke-width:.75px;}.cls-6{fill:#e8edf6;}.cls-2{stroke-dasharray:0 2.24;}.cls-3{stroke-dasharray:0 2.11;}.cls-4{stroke-dasharray:0 3.68;}</style></defs><g id="icon_13_subscan_block_explorer_improvements"><g id="bg-13"><circle class="cls-6" cx="24" cy="24" r="24"/></g><g id="_лой_42"><g><line class="cls-5" x1="34.34" y1="21.49" x2="34.34" y2="26.26"/><g><polyline class="cls-5" points="27.72 27.79 25.63 27.79 25.63 29.78"/><polyline class="cls-5" points="30.78 27.79 32.89 27.79 32.89 29.78"/><polyline class="cls-5" points="25.63 32.84 25.63 35.05 27.72 35.05"/><path class="cls-5" d="M30.78,35.05h2.11c0-.27,0-2.4,0-2.6"/><path class="cls-5" d="M33.41,25.19c.51,0,1.58,0,2.09,0v1.97"/><line class="cls-2" x1="35.5" y1="32.45" x2="35.5" y2="30.21"/><line class="cls-3" x1="30.35" y1="25.19" x2="28.23" y2="25.19"/><line class="cls-4" x1="32.89" y1="27.79" x2="35.5" y2="25.19"/><polyline class="cls-5" points="25.63 27.79 28.23 25.19 28.23 27.59"/><polyline class="cls-5" points="32.89 35.05 35.5 32.45 33.41 32.45"/><polyline class="cls-5" points="28.23 30.65 28.23 32.45 30.35 32.45"/><line class="cls-1" x1="28.23" y1="32.45" x2="25.63" y2="35.05"/></g><g><g><rect class="cls-5" x="25.57" y="15.55" width="7.26" height="7.26"/><polyline class="cls-5" points="28.17 12.95 35.43 12.95 35.43 20.21"/><line class="cls-5" x1="32.83" y1="15.55" x2="35.43" y2="12.95"/><line class="cls-5" x1="35.43" y1="20.21" x2="32.83" y2="22.81"/><line class="cls-5" x1="25.57" y1="15.55" x2="28.17" y2="12.95"/></g><polyline class="cls-5" points="28.17 12.95 28.17 20.21 35.43 20.21"/><line class="cls-5" x1="28.17" y1="20.21" x2="25.57" y2="22.81"/></g><g><g><g><rect class="cls-5" x="12.5" y="15.55" width="7.26" height="7.26"/><polyline class="cls-5" points="15.1 12.95 22.37 12.95 22.37 20.21"/><line class="cls-5" x1="19.76" y1="15.55" x2="22.37" y2="12.95"/><line class="cls-5" x1="22.37" y1="20.21" x2="19.76" y2="22.81"/><line class="cls-5" x1="12.5" y1="15.55" x2="15.1" y2="12.95"/></g><line class="cls-5" x1="15.1" y1="20.21" x2="12.5" y2="22.81"/><polyline class="cls-5" points="15.1 12.95 15.1 20.21 22.37 20.21"/></g><line class="cls-5" x1="21.09" y1="21.51" x2="26.77" y2="21.51"/></g></g></g></g></svg>