<?xml version="1.0" encoding="UTF-8"?><svg id="_023_Q4" xmlns="http://www.w3.org/2000/svg" viewBox="0 0 48 48"><defs><style>.cls-1{fill:#e8edf6;}.cls-2{fill:#4038ff;stroke:#e8edf6;stroke-miterlimit:10;stroke-width:.5px;}</style></defs><g id="icon_10_content_delivery_improvements"><g id="bg-10"><circle class="cls-1" cx="24" cy="24" r="24"/></g><g id="_лой_31"><g><path class="cls-2" d="M24.72,27.03l7.9,7.9c.6,.6,1.58,.6,2.18,0s.6-1.58,0-2.18l-7.9-7.9"/><path class="cls-2" d="M25.36,23.31l-3.79-3.79c.31-.64,.49-1.35,.49-2.11,0-2.64-2.14-4.78-4.78-4.78v2.6c1.2,0,2.18,.98,2.18,2.18s-.98,2.18-2.18,2.18c-1.2,0-2.18-.98-2.18-2.18h-2.6c0,2.64,2.14,4.78,4.78,4.78,.76,0,1.47-.18,2.11-.49l3.79,3.79"/><g><line class="cls-2" x1="15.91" y1="32.66" x2="17.55" y2="34.31"/><line class="cls-2" x1="23.19" y1="25.67" x2="24.55" y2="27.03"/><path class="cls-2" d="M35.5,15.81l-1.12-1.12-4.25,2.02,.35,1.47-7.48,7.48-.77,.12-6.96,6.96c-.6,.6-.6,1.58,0,2.18s1.58,.6,2.18,0l6.96-6.96,.12-.77,7.48-7.48,1.47,.35,2.02-4.25Z"/></g></g></g></g></svg>