<?xml version="1.0" encoding="UTF-8"?><svg id="_024_Q4" xmlns="http://www.w3.org/2000/svg" viewBox="0 0 48 48"><defs><style>.cls-1{fill:#e8edf6;}.cls-2{fill:#4038ff;}</style></defs><g id="icon_35_Metamask_Snap_Development"><g id="bg-35"><circle class="cls-1" cx="24" cy="24" r="24"/></g><path class="cls-2" d="M36,17.92l-1.28-5.88-8.31,3.54h-4.86l-8.4-3.54-1.15,6.06,1.64,5.9-1.64,4.84,2.39,5.97,4.73-1.24,2.48,2.39h4.86l2.25-2.39,4.91,1.15,2.39-5.92-1.64-4.8,1.64-6.07Zm-21.04-2.34l6.54,4.82-2.25,2.39-3.05,1.22-1.81-6.08,.57-2.34Zm4.24,15.65l-3.62,.75-1.19-3.23h4.82v2.48Zm2.3-7.23l1.19,2.41-3.49-1.2,2.3-1.2Zm0,7.23l1.19-2.48h2.48l1.19,2.48h-4.86Zm3.67-4.82l1.19-2.41,2.48,1.2-3.67,1.2Zm7.2,5.57l-3.54-.75v-2.48h4.77l-1.24,3.23Zm-.57-7.98l-3.05-1.22-2.39-2.39,6.59-4.82,.66,2.41-1.81,6.01Z"/></g></svg>