<?xml version="1.0" encoding="UTF-8"?><svg id="_023_Q4" xmlns="http://www.w3.org/2000/svg" viewBox="0 0 48 48"><defs><style>.cls-1{fill:#e8edf6;}.cls-2{fill:none;stroke:#e8edf6;stroke-miterlimit:10;stroke-width:.5px;}.cls-3{fill:#4038ff;}</style></defs><g id="icon_3_content_marketing"><g id="bg-3"><circle class="cls-1" cx="24" cy="24" r="24"/></g><g id="_лой_10"><g><g><path class="cls-3" d="M20.43,25.04l3.88,9.24h-.52c-2.31,0-4.4-1.39-5.3-3.52l-2.39-5.72h4.33Z"/><path class="cls-3" d="M33.52,20.18c.82,0,1.48,.66,1.48,1.48v1.82c0,.82-.66,1.48-1.48,1.48h-1.06c.04-.77,.06-1.57,.06-2.39s-.02-1.62-.06-2.38h1.06Z"/><path class="cls-3" d="M24.07,25.03v.07c-.34-.03-.69-.05-1.07-.06h-7.53c-.68,0-1.3-.28-1.75-.72-.44-.45-.72-1.07-.72-1.75,0-1.37,1.11-2.48,2.47-2.48h7.35c.44,0,.86-.02,1.24-.06v.07c-.73,.13-1.32,1.19-1.32,2.47,0,.68,.17,1.3,.44,1.75,.23,.39,.54,.65,.89,.71Z"/><path class="cls-3" d="M30.2,13.72c1.32,0,2.05,2.74,2.26,6.47,.04,.76,.06,1.56,.06,2.38s-.02,1.62-.06,2.38c-.21,3.73-.94,6.47-2.26,6.47h-1.02s1.04-5.65-5.12-6.32v-.07c-.34-.06-.65-.32-.88-.71-.27-.45-.44-1.07-.44-1.75,0-1.28,.59-2.34,1.33-2.47v-.07c6.15-.67,5.11-6.31,5.11-6.31h1.02Z"/></g><g><path class="cls-2" d="M32.63,20.18h.89c.82,0,1.48,.66,1.48,1.48v1.82c0,.82-.66,1.48-1.48,1.48h-.89"/><line class="cls-2" x1="23" y1="25.04" x2="23.16" y2="25.04"/><line class="cls-2" x1="20.43" y1="25.04" x2="22.82" y2="25.04"/><path class="cls-2" d="M23.16,20.09h-7.69c-1.36,0-2.47,1.11-2.47,2.48,0,.68,.28,1.3,.72,1.75,.45,.44,1.07,.72,1.75,.72h.63"/><path class="cls-2" d="M20.43,25.04l3.88,9.24h-.52c-2.31,0-4.4-1.39-5.3-3.52l-2.39-5.72h4.33Z"/><path class="cls-2" d="M30.2,13.72h-1.02s1.04,5.64-5.12,6.31c-.38,.04-.8,.06-1.24,.06"/><path class="cls-2" d="M22.82,25.04h.18c.38,0,.73,.03,1.06,.06,6.16,.67,5.12,6.32,5.12,6.32h1.02"/><path class="cls-2" d="M30.2,31.42c1.32,0,2.05-2.74,2.26-6.47,.04-.76,.06-1.56,.06-2.38s-.02-1.62-.06-2.38c-.21-3.73-.94-6.47-2.26-6.47"/><path class="cls-2" d="M24.22,20.09s-.1,0-.15,.01c-.74,.13-1.33,1.19-1.33,2.47,0,.68,.17,1.3,.44,1.75,.23,.39,.54,.65,.89,.71,.05,.01,.1,.01,.15,.01"/></g></g></g></g></svg>