<?xml version="1.0" encoding="UTF-8"?><svg id="_023_Q4" xmlns="http://www.w3.org/2000/svg" viewBox="0 0 22 22"><defs><style>.cls-1{fill:#e8edf6;}.cls-2{fill:none;stroke:#81858d;stroke-linejoin:bevel;}.cls-3{fill:#81858d;}</style></defs><g id="icon_2_more_exchanges"><g id="_лой_9"><g id="icon-2"><g><g><path class="cls-3" d="M12.73,14.67c-2.59-.76-4.64-2.81-5.4-5.4-.11-.02-.22-.02-.33-.02-3.17,0-5.75,2.58-5.75,5.75s2.58,5.75,5.75,5.75,5.75-2.58,5.75-5.75c0-.11,0-.22-.02-.33Zm-3.84,2.15c-.08,.19-.2,.35-.36,.48-.15,.13-.33,.23-.54,.31-.21,.08-.44,.13-.68,.16v.65h-.67v-.66c-.22-.03-.43-.08-.62-.16-.2-.09-.37-.2-.51-.34-.15-.14-.27-.31-.36-.51-.09-.2-.15-.43-.17-.7h.99c.03,.24,.1,.43,.21,.56,.12,.14,.28,.24,.46,.29v-1.6l-.21-.06c-.44-.11-.77-.29-.99-.57-.21-.27-.32-.6-.32-1,0-.2,.04-.38,.11-.55,.08-.17,.19-.32,.32-.45,.14-.14,.3-.24,.49-.33,.18-.08,.38-.14,.6-.17v-.65h.67v.65c.2,.03,.4,.08,.57,.16,.18,.07,.33,.18,.47,.31,.13,.13,.24,.28,.32,.47,.08,.18,.13,.39,.14,.62h-.99c-.01-.21-.07-.37-.16-.47-.1-.11-.22-.18-.35-.22v1.48l.33,.08c.43,.1,.77,.29,1.01,.55,.25,.27,.37,.61,.37,1.04,0,.24-.04,.44-.13,.63Z"/><path class="cls-3" d="M12.99,14.75c.01,.08,.01,.16,.01,.25,0,3.31-2.69,6-6,6S1,18.31,1,15s2.69-6,6-6c.09,0,.17,0,.25,.01-.08-.33-.14-.67-.19-1.01h-.06c-3.87,0-7,3.13-7,7s3.13,7,7,7,7-3.13,7-7v-.06c-.34-.05-.68-.11-1.01-.19Z"/></g><path class="cls-3" d="M7.31,15.47v1.45c.21-.04,.38-.11,.5-.23s.19-.28,.19-.48c0-.19-.05-.34-.16-.46-.11-.12-.29-.22-.54-.28Z"/><path class="cls-3" d="M6.11,13.64c0,.17,.04,.31,.12,.43s.22,.21,.41,.28v-1.32c-.15,.04-.28,.11-.38,.21-.1,.1-.15,.23-.15,.4Z"/></g><g><g><path class="cls-3" d="M14.48,8.97c-.18,0-.36-.02-.52-.07-.18-.05-.34-.14-.48-.25-.14-.12-.25-.26-.34-.42-.09-.17-.13-.37-.13-.59v-1.26c0-.22,.04-.41,.13-.59,.08-.16,.2-.31,.34-.42,.14-.11,.3-.2,.48-.25,.17-.05,.34-.08,.53-.08s.36,.03,.53,.08c.18,.06,.34,.14,.48,.26,.14,.12,.25,.26,.34,.42,.09,.17,.13,.37,.13,.58v1.26c0,.21-.04,.41-.13,.58-.08,.17-.2,.31-.34,.43-.14,.11-.3,.2-.48,.25-.16,.05-.34,.07-.52,.07Z"/><path class="cls-1" d="M14.48,5.53c.14,0,.26,.02,.38,.05,.12,.04,.22,.09,.31,.16,.09,.07,.16,.16,.21,.26,.05,.1,.08,.22,.08,.36v1.26c0,.13-.03,.25-.08,.36s-.12,.19-.21,.27c-.09,.07-.19,.13-.31,.16-.12,.04-.25,.05-.38,.05s-.26-.02-.38-.05c-.12-.04-.22-.09-.31-.16-.09-.07-.16-.16-.21-.26-.05-.1-.08-.22-.08-.36v-1.26c0-.14,.03-.26,.08-.36,.05-.1,.12-.19,.21-.26,.09-.07,.19-.13,.31-.16,.12-.04,.24-.05,.38-.05m0-1c-.24,0-.46,.03-.68,.1-.24,.07-.46,.19-.65,.35-.19,.16-.35,.36-.47,.58-.12,.25-.19,.52-.19,.81v1.26c0,.3,.06,.57,.19,.81,.12,.23,.27,.42,.47,.58,.19,.16,.41,.27,.66,.35,.21,.06,.43,.09,.67,.09s.46-.03,.67-.09c.25-.07,.47-.19,.66-.35,.19-.16,.35-.36,.47-.59,.12-.24,.18-.51,.18-.8v-1.26c0-.29-.06-.57-.18-.81-.11-.23-.27-.43-.47-.59-.18-.15-.41-.27-.65-.35-.21-.06-.44-.1-.67-.1h0Z"/></g><g><path class="cls-3" d="M15,1.25c-3.17,0-5.75,2.58-5.75,5.75s2.58,5.75,5.75,5.75,5.75-2.58,5.75-5.75S18.17,1.25,15,1.25Zm-3.17,7.79h-2.03v-.66h1.25v-3.42h.78v4.08Zm3.99-.45c-.32,.36-.76,.54-1.34,.54s-1.03-.18-1.34-.54c-.32-.36-.47-.89-.47-1.59s.16-1.23,.47-1.59,.76-.54,1.34-.54,1.03,.18,1.34,.54,.47,.89,.47,1.59-.16,1.23-.47,1.59Zm3.02-1.15v1.6h-.78v-1.6l-1.36-2.48h.88l.88,1.69,.88-1.69h.87l-1.36,2.48Z"/><path class="cls-3" d="M15,0c-3.87,0-7,3.13-7,7s3.13,7,7,7,7-3.13,7-7S18.87,0,15,0Zm0,13c-3.31,0-6-2.69-6-6S11.69,1,15,1s6,2.69,6,6-2.69,6-6,6Z"/></g></g><rect class="cls-3" x="14.5" y="18" width="5" height="1"/><rect class="cls-3" x="2.41" y="3" width="5" height="1"/><polyline class="cls-2" points="20 17.09 21.41 18.5 20 19.91"/><polyline class="cls-2" points="1.91 4.91 .5 3.5 1.91 2.09"/></g></g></g></svg>