<?xml version="1.0" encoding="UTF-8"?><svg id="_024_Q1" xmlns="http://www.w3.org/2000/svg" viewBox="0 0 48 48"><defs><style>.cls-1{fill:#e8edf6;}.cls-2,.cls-3{fill:#4038ff;}.cls-4{fill:none;stroke-width:.43px;}.cls-4,.cls-3{stroke:#e8edf6;stroke-miterlimit:10;}.cls-3{stroke-width:.38px;}</style></defs><g id="icon_15_content_curator_tooling"><g id="bg-15"><circle class="cls-1" cx="24" cy="24" r="24"/></g><g id="_лой_48"><g><g><g><path class="cls-2" d="M24.71,17.81v6.79c0,.08,0,.16-.03,.23h0v-.02c-1.28-1.62-1.97-3.62-1.97-5.67v-.45l2-.94s0,.04,0,.06Z"/><path class="cls-2" d="M18.35,20.23l1.21,1.22-1.2,1.2c-.24-.22-.42-.52-.5-.87-.13-.59,.06-1.17,.46-1.57l.03,.03Z"/><path class="cls-2" d="M22.7,18.69c0-.53-.43-.96-.96-.96l1.95-.88h.06c.5,0,.92,.39,.95,.9l-2,.94Z"/><path class="cls-2" d="M14.57,17.81l2.11-.93,.09-.03h6.92l-1.95,.89h-6.79c-.14,0-.26,.03-.38,.09h0Z"/><path class="cls-2" d="M14,18.69c0-.39,.23-.73,.57-.87,.12-.06,.24-.09,.38-.09h1.05v6.87c0,.07,0,.13,.02,.19l-.06,.02c-1.27-1.62-1.97-3.62-1.97-5.67v-.45Z"/><path class="cls-2" d="M34,13.41l-9.3,4.34c-.03-.5-.44-.9-.95-.9h-.06l9.49-4.27c.45,0,.82,.37,.82,.83Z"/><path class="cls-2" d="M16.77,16.84l10.23-4.18h.03c.1-.05,.21-.08,.32-.08h5.83l-9.49,4.27h-6.92Z"/><path class="cls-2" d="M20.75,22.64c-.21,.23-.5,.39-.83,.46-.58,.12-1.16-.06-1.56-.45l1.2-1.2,1.19,1.19Z"/><path class="cls-2" d="M31.28,21.33c.99,.23,1.78,1.05,1.94,2.13,.19,1.39-.78,2.69-2.18,2.88-1.39,.2-2.69-.77-2.88-2.17-.05-.35-.03-.7,.06-1.01l-.03-.04,.87-.51v.02l.81,1.66c.22,.46,.76,.65,1.21,.44,.46-.21,.65-.76,.44-1.21l-.92-1.79v-.02l.67-.39v.02Z"/><path class="cls-2" d="M21.23,21.05c-.07-.33-.23-.62-.45-.83-.4-.42-1-.62-1.6-.49l.63-.14c.94-.2,1.85,.39,2.06,1.32,.2,.93-.39,1.85-1.32,2.05l-.63,.14c.33-.07,.63-.23,.83-.46,.42-.4,.62-.99,.49-1.59Z"/><path class="cls-2" d="M19.81,19.59l-.63,.14c-.35,.07-.64,.24-.86,.48-.4,.4-.59,.98-.46,1.57,.08,.35,.25,.65,.5,.87,.4,.39,.97,.57,1.56,.45l.63-.14c.93-.2,1.52-1.12,1.32-2.05-.21-.93-1.12-1.52-2.06-1.32Zm3.95,5.97h-6.79c-.46,0-.85-.33-.94-.77,0-.06-.02-.12-.02-.19v-6.87h5.74c.53,0,.96,.43,.96,.96v.45c0,2.05,.7,4.05,1.97,5.67v.02h.02c-.06,.23-.21,.43-.4,.57-.15,.1-.34,.17-.53,.17Z"/><path class="cls-2" d="M33.54,19.98l-2.27,1.33-.68,.39-1.53,.9-.87,.51-3.9,2.28c.19-.13,.34-.33,.4-.57,.02-.07,.03-.15,.03-.23v-6.79s0-.04,0-.06l9.3-4.34v5.83c0,.32-.18,.6-.46,.74Z"/><path class="cls-2" d="M20.76,20.23l.02-.02c.22,.22,.38,.5,.45,.83,.13,.6-.07,1.19-.49,1.59l-1.19-1.19,1.21-1.22Z"/><path class="cls-2" d="M30.6,21.72l.92,1.79c.21,.45,.02,1-.44,1.21-.45,.21-.99,.02-1.21-.44l-.8-1.66v-.02l1.52-.9v.02Z"/><path class="cls-2" d="M19.18,19.73c.6-.13,1.2,.07,1.6,.49l-.02,.02-1.21,1.22-1.21-1.22-.03-.03c.22-.23,.51-.41,.86-.48Z"/></g><g><path class="cls-4" d="M27.02,12.65c.1-.04,.21-.07,.32-.07h5.83c.45,0,.82,.37,.82,.83v5.83c0,.32-.18,.6-.46,.74-.03,0-.06,.03-.1,.03"/><path class="cls-4" d="M16.78,16.85h6.97c.5,0,.92,.39,.95,.9,0,.02,0,.04,0,.06v6.79c0,.08,0,.16-.03,.23-.06,.23-.21,.43-.4,.57-.15,.1-.34,.17-.53,.17h-6.79c-.46,0-.85-.33-.94-.77,0-.06-.02-.12-.02-.19v-6.79"/><path class="cls-4" d="M15.96,24.81c-1.27-1.62-1.97-3.62-1.97-5.67v-.45c0-.39,.23-.73,.57-.87,.12-.06,.24-.09,.38-.09h6.79c.53,0,.96,.43,.96,.96v.45c0,2.05,.7,4.05,1.97,5.67v.02"/><path class="cls-4" d="M31.28,21.33c.99,.23,1.78,1.05,1.94,2.13,.19,1.39-.78,2.69-2.18,2.88-1.39,.2-2.69-.77-2.88-2.17-.05-.35-.03-.7,.06-1.01"/><path class="cls-4" d="M20.78,20.22c.22,.22,.38,.5,.45,.83,.13,.6-.07,1.19-.49,1.59-.21,.23-.5,.39-.83,.46-.58,.12-1.16-.06-1.56-.45-.24-.22-.42-.52-.5-.87-.13-.59,.06-1.17,.46-1.57,.22-.23,.51-.41,.86-.48,.6-.13,1.2,.07,1.6,.49Z"/><polyline class="cls-4" points="27.02 12.65 27 12.66 16.77 16.84 16.68 16.88 14.57 17.81"/><polyline class="cls-4" points="24.19 25.45 24.28 25.39 28.19 23.11 29.06 22.6 30.59 21.7 31.27 21.31 33.54 19.98"/><polyline class="cls-4" points="34 13.41 24.7 17.75 22.7 18.69"/><polyline class="cls-4" points="33.18 12.58 23.69 16.85 21.75 17.73"/><path class="cls-4" d="M19.18,19.73l.63-.14c.94-.2,1.85,.39,2.06,1.32,.2,.93-.39,1.85-1.32,2.05l-.63,.14"/><path class="cls-4" d="M29.07,22.62l.8,1.66c.22,.46,.76,.65,1.21,.44,.46-.21,.65-.76,.44-1.21l-.92-1.79"/><polyline class="cls-4" points="20.76 22.66 20.75 22.64 19.55 21.45 18.35 20.23"/><polyline class="cls-4" points="20.76 20.23 19.55 21.45 18.35 22.65 18.35 22.66"/></g></g><g><path class="cls-3" d="M29.4,31.76v-1.69l-.94-.12c-.08-.31-.21-.6-.36-.88l.58-.75-1.2-1.2-.75,.58c-.27-.16-.57-.28-.88-.36l-.12-.94h-1.69l-.12,.94c-.31,.08-.6,.21-.88,.36l-.75-.58-1.2,1.2,.58,.75c-.16,.27-.28,.57-.36,.88l-.94,.12v1.69l.94,.12c.08,.31,.21,.6,.36,.88l-.58,.75,1.2,1.2,.75-.58c.27,.16,.57,.28,.88,.36l.12,.94h1.69l.12-.94c.31-.08,.6-.21,.88-.36l.75,.58,1.2-1.2-.58-.75c.16-.27,.28-.57,.36-.88l.94-.12Z"/><circle class="cls-3" cx="24.9" cy="30.92" r="1.28"/></g></g></g></g></svg>