<?xml version="1.0" encoding="UTF-8"?><svg id="_024_Q4" xmlns="http://www.w3.org/2000/svg" viewBox="0 0 48 48"><defs><style>.cls-1{fill:none;stroke:#4038ff;stroke-miterlimit:10;stroke-width:1.5px;}.cls-2{fill:#e8edf6;}.cls-3{fill:#4038ff;}</style></defs><g id="icon_32_Video_Communities___No-tech_App_creation"><g id="bg-32"><circle class="cls-2" cx="24" cy="24" r="24"/></g><g><g><path class="cls-3" d="M22.05,35.62c-.98,0-1.78-.8-1.78-1.78v-1.9h7.51v1.9c0,.98-.8,1.78-1.78,1.78h-3.96Z"/><g><path class="cls-1" d="M27.78,31.94v-.3c0-.59-.3-1.08-.75-1.4,2.13-1.1,3.59-3.3,3.59-5.86,0-3.66-2.96-6.64-6.62-6.64s-6.64,2.98-6.64,6.64c0,2.57,1.49,4.78,3.62,5.88-.41,.32-.71,.82-.71,1.38v2.2c0,.98,.8,1.78,1.78,1.78h3.96c.98,0,1.78-.8,1.78-1.78v-1.9Z"/><line class="cls-1" x1="20.27" y1="31.94" x2="27.78" y2="31.94"/></g></g><g><polyline class="cls-1" points="21.93 26.86 24.02 28.95 26.15 26.82"/><line class="cls-1" x1="24.04" y1="32.35" x2="24.04" y2="28.95"/></g><g><line class="cls-1" x1="24" y1="12.38" x2="24" y2="15.76"/><line class="cls-1" x1="15.51" y1="15.89" x2="17.91" y2="18.28"/><line class="cls-1" x1="12" y1="24.38" x2="15.38" y2="24.38"/><line class="cls-1" x1="15.51" y1="32.86" x2="17.91" y2="30.47"/><line class="cls-1" x1="32.49" y1="32.86" x2="30.09" y2="30.47"/><line class="cls-1" x1="36" y1="24.38" x2="32.62" y2="24.38"/><line class="cls-1" x1="32.49" y1="15.89" x2="30.09" y2="18.28"/></g></g></g></svg>