<?xml version="1.0" encoding="UTF-8"?><svg id="_024_Q1" xmlns="http://www.w3.org/2000/svg" viewBox="0 0 48 48"><defs><style>.cls-1{fill:#e8edf6;}.cls-2{fill:#4038ff;}.cls-3{fill:none;stroke:#4038ff;stroke-miterlimit:10;stroke-width:.71px;}</style></defs><g id="icon_17_automated_thumbnail_generation"><g id="bg-17"><circle class="cls-1" cx="24" cy="24" r="24"/></g><g id="_лой_54"><g><g><line class="cls-3" x1="22.68" y1="29.48" x2="26.41" y2="34.1"/><line class="cls-3" x1="22.68" y1="29.48" x2="18.95" y2="34.1"/><g><path class="cls-2" d="M19.23,29.68c-1.26,0-2.28-1.02-2.28-2.28v-2.3h-4.15v-1.06c0-1.26,1.02-2.28,2.28-2.28h11.74c1.26,0,2.28,1.02,2.28,2.28v3.37c0,1.26-1.02,2.28-2.28,2.28h-7.58Z"/><path class="cls-1" d="M26.81,22.11c1.06,0,1.92,.86,1.92,1.92v3.37c0,1.06-.86,1.92-1.92,1.92h-7.59c-1.06,0-1.92-.86-1.92-1.92v-2.66h-4.15v-.71c0-1.06,.86-1.92,1.92-1.92h11.74m0-.71H15.07c-1.45,0-2.63,1.18-2.63,2.63v1.42h4.15v1.95c0,1.45,1.18,2.63,2.63,2.63h7.59c1.45,0,2.63-1.18,2.63-2.63v-3.37c0-1.45-1.18-2.63-2.63-2.63h0Z"/></g><g><path class="cls-2" d="M34.42,28.45c-.17,0-.33-.03-.48-.08l-4.74-1.16v-3l4.72-1.16c.17-.06,.34-.08,.5-.08,.52,0,.91,.24,.91,.45v4.58c0,.21-.39,.45-.91,.45Z"/><path class="cls-1" d="M34.42,23.21h0c.4,0,.65,.16,.67,.21v4.57c-.02,.06-.27,.22-.67,.22-.14,0-.28-.02-.45-.08l-4.54-1.11v-2.63l4.58-1.12c.12-.04,.27-.06,.41-.06m0-.47c-.19,0-.38,.03-.56,.09l-4.9,1.2v3.37l4.9,1.2c.18,.06,.37,.09,.56,.09,.6,0,1.14-.29,1.14-.68v-4.58c0-.4-.55-.68-1.14-.68h0Z"/></g></g><g><path class="cls-2" d="M26.59,21.15c-1.93,0-3.51-1.57-3.51-3.51s1.57-3.51,3.51-3.51,3.51,1.57,3.51,3.51-1.57,3.51-3.51,3.51Z"/><path class="cls-1" d="M26.59,14.37c1.8,0,3.27,1.47,3.27,3.27s-1.47,3.27-3.27,3.27-3.27-1.47-3.27-3.27,1.47-3.27,3.27-3.27m0-.47c-2.07,0-3.74,1.68-3.74,3.74s1.68,3.74,3.74,3.74,3.74-1.68,3.74-3.74-1.68-3.74-3.74-3.74h0Z"/></g><g><path class="cls-2" d="M17.16,21.15c-1.93,0-3.51-1.57-3.51-3.51s1.57-3.51,3.51-3.51,3.51,1.57,3.51,3.51-1.57,3.51-3.51,3.51Z"/><path class="cls-1" d="M17.16,14.37c1.8,0,3.27,1.47,3.27,3.27s-1.47,3.27-3.27,3.27-3.27-1.47-3.27-3.27,1.47-3.27,3.27-3.27m0-.47c-2.07,0-3.74,1.68-3.74,3.74s1.68,3.74,3.74,3.74,3.74-1.68,3.74-3.74-1.68-3.74-3.74-3.74h0Z"/></g></g></g></g></svg>