<?xml version="1.0" encoding="UTF-8"?><svg id="_024_Q1" xmlns="http://www.w3.org/2000/svg" viewBox="0 0 48 48"><defs><style>.cls-1{fill:#e8edf6;}.cls-2,.cls-3{fill:#4038ff;}.cls-3{stroke:#e8edf6;stroke-miterlimit:10;stroke-width:.31px;}</style></defs><g id="icon_19_governance_tooling"><g id="bg-19"><circle class="cls-1" cx="24" cy="24" r="24"/></g><g id="_лой_60"><g><g><g><polygon class="cls-2" points="12.12 19.88 12.12 18.19 24 12.14 35.88 18.19 35.88 19.88 12.12 19.88"/><path class="cls-1" d="M24,12.28l11.75,5.99v1.48H12.25v-1.48l11.75-5.99m0-.28l-12,6.12v1.88h24v-1.88l-12-6.12h0Z"/></g><g><rect class="cls-2" x="14.12" y="32.12" width="19.75" height="1.75"/><path class="cls-1" d="M33.75,32.25v1.5H14.25v-1.5h19.5m.25-.25H14v2h20v-2h0Z"/></g><g><path class="cls-2" d="M12.12,35.88v-.03c0-.95,.77-1.72,1.72-1.72h20.32c.95,0,1.72,.77,1.72,1.72v.03H12.12Z"/><path class="cls-1" d="M34.16,34.25c.85,0,1.54,.66,1.59,1.5H12.25c.05-.84,.74-1.5,1.59-1.5h20.32m0-.25H13.84c-1.02,0-1.84,.82-1.84,1.84v.16h24v-.16c0-1.02-.82-1.84-1.84-1.84h0Z"/></g><g><rect class="cls-2" x="14.12" y="20.12" width="19.75" height="1.75"/><path class="cls-1" d="M33.75,20.25v1.5H14.25v-1.5h19.5m.25-.25H14v2h20v-2h0Z"/></g><g><rect class="cls-2" x="15.12" y="22.12" width="1.75" height="9.75"/><path class="cls-1" d="M16.75,22.25v9.5h-1.5v-9.5h1.5m.25-.25h-2v10h2v-10h0Z"/></g><g><rect class="cls-2" x="29.12" y="22.12" width="1.75" height="9.75"/><path class="cls-1" d="M30.75,22.25v9.5h-1.5v-9.5h1.5m.25-.25h-2v10h2v-10h0Z"/></g><g><rect class="cls-2" x="17.12" y="22.12" width="1.75" height="9.75"/><path class="cls-1" d="M18.75,22.25v9.5h-1.5v-9.5h1.5m.25-.25h-2v10h2v-10h0Z"/></g><g><rect class="cls-2" x="31.12" y="22.12" width="1.75" height="9.75"/><path class="cls-1" d="M32.75,22.25v9.5h-1.5v-9.5h1.5m.25-.25h-2v10h2v-10h0Z"/></g></g><g><path class="cls-3" d="M24.31,28.32l3.43,3.43c.26,.26,.69,.26,.95,0s.26-.69,0-.95l-3.44-3.44"/><g><line class="cls-3" x1="20.48" y1="30.77" x2="21.2" y2="31.48"/><line class="cls-3" x1="23.65" y1="27.72" x2="24.24" y2="28.32"/><path class="cls-3" d="M29,23.44l-.49-.49-1.85,.88,.15,.64-3.25,3.25-.34,.05-3.02,3.02c-.26,.26-.26,.69,0,.95s.69,.26,.95,0l3.02-3.02,.05-.34,3.25-3.25,.64,.15,.88-1.85Z"/></g><path class="cls-3" d="M24.59,26.7l-1.65-1.65c.14-.28,.21-.59,.21-.92,0-1.15-.93-2.08-2.08-2.08v1.13c.52,0,.95,.42,.95,.95s-.42,.95-.95,.95c-.52,0-.95-.42-.95-.95h-1.13c0,1.15,.93,2.08,2.08,2.08,.33,0,.64-.08,.92-.21l1.65,1.65"/></g></g></g></g></svg>