<?xml version="1.0" encoding="UTF-8"?><svg id="_024_Q3" xmlns="http://www.w3.org/2000/svg" viewBox="0 0 48 48"><defs><style>.cls-1{stroke-width:.5px;}.cls-1,.cls-2,.cls-3{stroke-miterlimit:10;}.cls-1,.cls-4{fill:#4038ff;}.cls-1,.cls-3{stroke:#4038ff;stroke-linecap:round;}.cls-5{fill:#e8edf6;}.cls-2{stroke:#e8edf6;stroke-width:.26px;}.cls-2,.cls-3{fill:none;}</style></defs><g id="icon_29_NFT_Improvements_-_V1"><g id="bg-29"><circle class="cls-5" cx="24" cy="24" r="24"/></g><g><g><path class="cls-4" d="M16,20v8c0,.55,.45,1,1,1h14c.55,0,1-.45,1-1v-8c0-.55-.45-1-1-1h-14c-.55,0-1,.45-1,1Zm6.03,6.04h-1.18l-1.22-3.11h-.02v3.11h-.77v-4.08h1.16l1.22,3.11h.02v-3.11h.78v4.08Zm3.61-3.42h-1.83v1h1.68v.66h-1.68v1.76h-.78v-4.08h2.6v.66Zm3.52,0h-1.19v3.42h-.78v-3.42h-1.19v-.66h3.16v.66Z"/><rect class="cls-2" x="17" y="20" width="14" height="8"/></g><g><line class="cls-3" x1="18" y1="19" x2="18" y2="16"/><line class="cls-3" x1="20" y1="19" x2="20" y2="16"/><line class="cls-3" x1="22" y1="19" x2="22" y2="16"/><line class="cls-3" x1="24" y1="19" x2="24" y2="16"/><line class="cls-3" x1="26" y1="19" x2="26" y2="16"/><line class="cls-3" x1="28" y1="19" x2="28" y2="16"/><line class="cls-3" x1="30" y1="19" x2="30" y2="16"/><circle class="cls-1" cx="18" cy="16" r=".5"/><circle class="cls-1" cx="20" cy="16" r=".5"/><circle class="cls-1" cx="22" cy="16" r=".5"/><circle class="cls-1" cx="24" cy="16" r=".5"/><circle class="cls-1" cx="26" cy="16" r=".5"/><circle class="cls-1" cx="28" cy="16" r=".5"/><circle class="cls-1" cx="30" cy="16" r=".5"/></g><g><line class="cls-3" x1="18" y1="29" x2="18" y2="32"/><line class="cls-3" x1="20" y1="29" x2="20" y2="32"/><line class="cls-3" x1="22" y1="29" x2="22" y2="32"/><line class="cls-3" x1="24" y1="29" x2="24" y2="32"/><line class="cls-3" x1="26" y1="29" x2="26" y2="32"/><line class="cls-3" x1="28" y1="29" x2="28" y2="32"/><line class="cls-3" x1="30" y1="29" x2="30" y2="32"/><circle class="cls-1" cx="30" cy="32" r=".5"/><circle class="cls-1" cx="28" cy="32" r=".5"/><circle class="cls-1" cx="26" cy="32" r=".5"/><circle class="cls-1" cx="24" cy="32" r=".5"/><circle class="cls-1" cx="22" cy="32" r=".5"/><circle class="cls-1" cx="20" cy="32" r=".5"/><circle class="cls-1" cx="18" cy="32" r=".5"/></g><g><line class="cls-3" x1="32" y1="21" x2="35" y2="21"/><line class="cls-3" x1="32" y1="23" x2="35" y2="23"/><line class="cls-3" x1="32" y1="25" x2="35" y2="25"/><line class="cls-3" x1="32" y1="27" x2="35" y2="27"/><circle class="cls-1" cx="35" cy="21" r=".5"/><circle class="cls-1" cx="35" cy="23" r=".5"/><circle class="cls-1" cx="35" cy="25" r=".5"/><circle class="cls-1" cx="35" cy="27" r=".5"/></g><g><line class="cls-3" x1="16" y1="21" x2="13" y2="21"/><line class="cls-3" x1="16" y1="23" x2="13" y2="23"/><line class="cls-3" x1="16" y1="25" x2="13" y2="25"/><line class="cls-3" x1="16" y1="27" x2="13" y2="27"/><circle class="cls-1" cx="13" cy="27" r=".5"/><circle class="cls-1" cx="13" cy="25" r=".5"/><circle class="cls-1" cx="13" cy="23" r=".5"/><circle class="cls-1" cx="13" cy="21" r=".5"/></g></g></g></svg>