<?xml version="1.0" encoding="UTF-8"?><svg id="_024_Q2" xmlns="http://www.w3.org/2000/svg" viewBox="0 0 48 48"><defs><style>.cls-1{fill:#e8edf6;}.cls-2{fill:#4038ff;}</style></defs><g id="icon_24_DAO_Creator_Channel_Payout_tooling_improvements"><g id="bg-24"><circle class="cls-1" cx="24" cy="24" r="24"/></g><g><path class="cls-2" d="M22.3,23.52l3.66-1.47c.15-.06,.29-.16,.39-.29,.67-.83,3.35-4.06,4.58-4.45,0,0,.41-.42,1.7-.11,0,0,1.04-.25,2.04,.48l-.04,.06s-1.59-.49-2.49,.79c0,0-2.2,2.75-3.59,4.58-.11,.15-.25,.26-.42,.34-.87,.4-3.73,1.53-5.84,.08Z"/><ellipse class="cls-1" cx="29.03" cy="18.44" rx="1.39" ry="3"/><g><g><path class="cls-2" d="M26.28,20.29c-.12,0-.24-.02-.35-.05-.12-.04-.23-.09-.33-.17-.1-.08-.17-.18-.23-.29-.06-.12-.09-.25-.09-.4v-.85c0-.15,.03-.28,.09-.4,.05-.11,.13-.21,.23-.28,.09-.08,.2-.13,.32-.17,.11-.03,.23-.05,.36-.05s.25,.02,.36,.05c.12,.04,.23,.1,.33,.17,.09,.08,.17,.17,.23,.29,.06,.12,.09,.25,.09,.4v.85c0,.14-.03,.27-.08,.39-.06,.12-.14,.21-.23,.29-.09,.08-.2,.13-.33,.17-.11,.03-.23,.05-.35,.05Z"/><path class="cls-1" d="M26.28,17.97c.09,0,.18,.01,.26,.04,.08,.02,.15,.06,.21,.11,.06,.05,.11,.11,.14,.18,.04,.07,.05,.15,.05,.24v.85c0,.09-.02,.17-.05,.24s-.08,.13-.14,.18c-.06,.05-.13,.09-.21,.11-.08,.02-.17,.04-.26,.04s-.18-.01-.26-.04c-.08-.02-.15-.06-.21-.11-.06-.05-.11-.11-.14-.18-.04-.07-.05-.15-.05-.24v-.85c0-.09,.02-.17,.05-.24,.04-.07,.08-.13,.14-.18,.06-.05,.13-.09,.21-.11,.08-.02,.17-.04,.26-.04m0-.68c-.16,0-.31,.02-.46,.07-.16,.05-.31,.13-.44,.23-.13,.11-.24,.24-.32,.39-.08,.17-.13,.35-.13,.55v.85c0,.2,.04,.38,.13,.55,.08,.15,.19,.29,.32,.39,.13,.11,.28,.18,.44,.23,.14,.04,.29,.06,.45,.06s.31-.02,.45-.06c.17-.05,.32-.13,.45-.24,.13-.11,.24-.24,.32-.4,.08-.16,.12-.35,.12-.54v-.85c0-.2-.04-.38-.12-.55-.08-.15-.18-.29-.32-.4-.12-.1-.27-.18-.44-.23-.14-.04-.3-.07-.46-.07h0Z"/></g><path class="cls-2" d="M26.63,14.23c-2.62,0-4.74,2.12-4.74,4.74s2.12,4.74,4.74,4.74,4.74-2.12,4.74-4.74-2.12-4.74-4.74-4.74Zm-2.15,6.12h-1.38v-.45h.85v-2.31h.53v2.76Zm2.7-.3c-.21,.24-.52,.37-.91,.37s-.7-.12-.91-.37c-.21-.24-.32-.6-.32-1.07s.11-.83,.32-1.07,.52-.37,.91-.37,.69,.12,.91,.37,.32,.6,.32,1.07-.11,.83-.32,1.07Zm2.05-.78v1.08h-.53v-1.08l-.92-1.68h.6l.59,1.15,.59-1.15h.59l-.92,1.68Z"/><path class="cls-1" d="M26.63,15.07c2.15,0,3.89,1.75,3.89,3.89s-1.75,3.89-3.89,3.89-3.89-1.75-3.89-3.89,1.75-3.89,3.89-3.89m0-.17c-2.24,0-4.06,1.82-4.06,4.06s1.82,4.06,4.06,4.06,4.06-1.82,4.06-4.06-1.82-4.06-4.06-4.06h0Z"/></g><g><path class="cls-2" d="M12.26,33.93l.09-.22c1.22-2.97,2.86-8.17,2.88-8.22,0,0,.09-.4,.6-1.67,.52-1.31,2.51-2.56,2.59-2.61,.43-.24,.84-.52,1.11-.71,.2-.14,.4-.28,.61-.41l4.58-3,.09,.13c.53,.8,.53,1.79,0,2.88-.33,.68-.84,1.28-1.5,1.79l-1.48,1.15c.58,.9,1.54,1.36,2.83,1.36,1.62,0,3.28-.72,3.74-.94,.06-.03,.1-.06,.14-.11,.91-1.2,2.6-3.4,3.64-4.68,.47-.58,1.06-.87,1.74-.87,.91,0,1.65,.53,1.68,.55l.12,.09-.08,.13c-.16,.25-3.85,6.15-4.83,7.46-1,1.34-4.36,2.72-4.5,2.78-.25,.04-2.12,.9-4.8,2.2-.11,.05-.2,.14-.26,.24l-1.6,2.7h-7.38Z"/><path class="cls-1" d="M24.66,17.31c.61,.92,.38,1.94-.01,2.72-.34,.68-.85,1.27-1.45,1.74l-1.59,1.24c.7,1.19,1.86,1.56,3.04,1.56,1.66,0,3.35-.74,3.81-.95,.08-.04,.15-.09,.2-.16,.42-.55,2.44-3.21,3.63-4.68,.51-.62,1.09-.81,1.62-.81,.87,0,1.59,.52,1.59,.52,0,0-3.84,6.13-4.82,7.45-.99,1.32-4.43,2.72-4.43,2.72-.24,0-3.89,1.76-4.81,2.2-.14,.07-.25,.17-.33,.3l-1.56,2.62h-7.05c1.23-3.01,2.88-8.23,2.88-8.23,0,0,.09-.38,.59-1.66,.5-1.27,2.53-2.54,2.53-2.54,.44-.24,.87-.54,1.12-.72,.2-.14,.4-.28,.6-.41l4.44-2.91m.09-.44l-.26,.17-4.44,2.91c-.21,.14-.41,.27-.61,.42-.22,.16-.64,.45-1.08,.69-.1,.06-2.13,1.34-2.67,2.7-.51,1.28-.6,1.69-.61,1.7,0,.03-1.65,5.22-2.87,8.18l-.18,.44h7.7l.09-.16,1.56-2.62c.05-.08,.11-.14,.19-.18,2.57-1.25,4.47-2.12,4.71-2.17h.06l.02-.02c.14-.06,3.54-1.45,4.57-2.83,.98-1.32,4.68-7.22,4.84-7.48l.16-.25-.24-.17s-.82-.58-1.77-.58c-.73,0-1.36,.31-1.86,.93-1.2,1.47-3.24,4.16-3.64,4.68-.02,.03-.05,.05-.08,.07-.46,.22-2.09,.92-3.68,.92-1.17,0-2.05-.39-2.61-1.17l1.36-1.06c.68-.53,1.2-1.15,1.54-1.85,.56-1.14,.56-2.19,0-3.04l-.17-.26h0Z"/></g></g></g></svg>