<?xml version="1.0" encoding="UTF-8"?><svg id="_023_Q4" xmlns="http://www.w3.org/2000/svg" viewBox="0 0 48 48"><defs><style>.cls-1{fill:#e8edf6;}.cls-2{stroke-width:.75px;}.cls-2,.cls-3{fill:none;stroke:#4038ff;stroke-miterlimit:10;}.cls-4{fill:#4038ff;}.cls-3{stroke-width:.5px;}</style></defs><g id="icon_1_staking_module"><g id="bg"><circle class="cls-1" cx="24" cy="24" r="24"/></g><g id="icon"><g><rect class="cls-2" x="13.11" y="12.25" width="21.78" height="21.78"/><polyline class="cls-3" points="15.4 18.55 15.4 14.54 32.6 14.54 32.6 31.74 15.4 31.74 15.4 28.3"/><line class="cls-3" x1="15.4" y1="26.01" x2="15.4" y2="20.85"/><g><circle class="cls-4" cx="24" cy="23.14" r="6.88"/><path class="cls-1" d="M24,17.83c2.93,0,5.31,2.38,5.31,5.31s-2.38,5.31-5.31,5.31-5.31-2.38-5.31-5.31,2.38-5.31,5.31-5.31m0-.25c-3.07,0-5.56,2.49-5.56,5.56s2.49,5.56,5.56,5.56,5.56-2.49,5.56-5.56-2.49-5.56-5.56-5.56h0Z"/><rect class="cls-1" x="23.75" y="16.69" width=".5" height=".5"/><rect class="cls-1" x="20.65" y="17.52" width=".5" height=".5" transform="translate(-6.09 12.83) rotate(-30)"/><rect class="cls-1" x="18.38" y="19.79" width=".5" height=".5" transform="translate(-8.04 26.15) rotate(-60)"/><rect class="cls-1" x="17.55" y="22.89" width=".5" height=".5" transform="translate(-5.34 40.94) rotate(-90)"/><rect class="cls-1" x="18.38" y="25.99" width=".5" height=".5" transform="translate(5.22 55.49) rotate(-120)"/><rect class="cls-1" x="20.65" y="28.26" width=".5" height=".5" transform="translate(24.75 63.65) rotate(-150)"/><rect class="cls-1" x="23.75" y="29.09" width=".5" height=".5" transform="translate(48 58.68) rotate(-180)"/><rect class="cls-1" x="26.85" y="28.26" width=".5" height=".5" transform="translate(64.82 39.65) rotate(150)"/><rect class="cls-1" x="29.12" y="25.99" width=".5" height=".5" transform="translate(66.78 13.93) rotate(120)"/><rect class="cls-1" x="29.95" y="22.89" width=".5" height=".5" transform="translate(53.34 -7.06) rotate(90)"/><rect class="cls-1" x="29.12" y="19.79" width=".5" height=".5" transform="translate(32.04 -15.41) rotate(60)"/><rect class="cls-1" x="26.85" y="17.52" width=".5" height=".5" transform="translate(12.52 -11.17) rotate(30)"/></g><rect class="cls-3" x="15.4" y="34.03" width="4.59" height="1.72"/><rect class="cls-3" x="28.01" y="34.03" width="4.59" height="1.72"/><path class="cls-3" d="M13.11,18.55h2.29c.63,0,1.15,.51,1.15,1.15h0c0,.63-.51,1.15-1.15,1.15h-2.29v-2.29h0Z"/><path class="cls-3" d="M13.11,26.01h2.29c.63,0,1.15,.51,1.15,1.15h0c0,.63-.51,1.15-1.15,1.15h-2.29v-2.29h0Z"/></g></g></g></svg>