<?xml version="1.0" encoding="UTF-8"?><svg id="_024_Q2" xmlns="http://www.w3.org/2000/svg" viewBox="0 0 23 23"><defs><style>.cls-1{fill:#e8edf6;}.cls-2{fill:#81858d;}</style></defs><g id="icon_24_DAO_Creator_Channel_Payout_tooling_improvements"><g><g><path class="cls-2" d="M15.86,0c-2.62,0-4.74,2.12-4.74,4.73s2.12,4.73,4.74,4.73,4.74-2.12,4.74-4.73S18.47,0,15.86,0Zm0,8.78c-2.24,0-4.06-1.81-4.06-4.05S13.61,.68,15.86,.68s4.06,1.81,4.06,4.05-1.82,4.05-4.06,4.05Z"/><g><path class="cls-2" d="M15.5,6.06c-.13,0-.25-.02-.36-.05-.12-.04-.23-.09-.32-.17-.1-.08-.17-.18-.23-.29-.06-.11-.09-.25-.09-.4v-.85c0-.15,.03-.28,.09-.4,.05-.11,.13-.2,.23-.28,.09-.08,.2-.13,.32-.17,.11-.03,.23-.05,.36-.05s.25,.02,.36,.05c.12,.04,.23,.1,.33,.17,.09,.08,.17,.17,.23,.29,.06,.12,.09,.25,.09,.4v.85c0,.14-.03,.28-.09,.39-.06,.11-.13,.21-.23,.29-.09,.08-.2,.14-.33,.17-.11,.03-.23,.05-.35,.05Z"/><path class="cls-1" d="M15.5,3.74c.09,0,.18,.01,.26,.04,.08,.02,.15,.06,.21,.11,.06,.05,.11,.11,.14,.18,.04,.07,.05,.15,.05,.24v.85c0,.09-.02,.17-.05,.24-.04,.07-.08,.13-.14,.18-.06,.05-.13,.09-.21,.11-.08,.02-.17,.04-.26,.04s-.18-.01-.26-.04c-.08-.02-.15-.06-.21-.11-.06-.05-.11-.11-.14-.18-.04-.07-.05-.15-.05-.24v-.85c0-.09,.02-.17,.05-.24,.04-.07,.08-.13,.14-.18,.06-.05,.13-.09,.21-.11,.08-.02,.17-.04,.26-.04m0-.68c-.16,0-.31,.02-.46,.07-.16,.05-.31,.13-.44,.23-.13,.11-.24,.24-.32,.39-.08,.17-.13,.35-.13,.55v.85c0,.2,.04,.38,.13,.55,.08,.15,.19,.29,.32,.39,.13,.11,.28,.18,.44,.23,.14,.04,.29,.06,.45,.06s.31-.02,.45-.06c.17-.05,.32-.13,.45-.24,.13-.11,.24-.24,.32-.4,.08-.16,.12-.35,.12-.54v-.85c0-.2-.04-.38-.12-.55-.08-.15-.18-.29-.32-.4-.12-.1-.27-.18-.44-.23-.14-.04-.3-.07-.46-.07h0Z"/></g><path class="cls-2" d="M15.86,.84c-2.15,0-3.89,1.74-3.89,3.88s1.75,3.88,3.89,3.88,3.89-1.74,3.89-3.88-1.75-3.88-3.89-3.88Zm-2.15,5.26h-1.38v-.44h.85V3.35h.53v2.76Zm2.7-.3c-.21,.24-.52,.37-.91,.37s-.7-.12-.91-.37c-.21-.24-.32-.6-.32-1.07s.11-.83,.32-1.07c.21-.24,.52-.36,.91-.36s.69,.12,.91,.36,.32,.6,.32,1.07-.11,.83-.32,1.07Zm2.05-.77v1.08h-.53v-1.08l-.92-1.68h.6l.59,1.14,.59-1.14h.59l-.92,1.68Z"/></g><path class="cls-2" d="M0,23H7.05l1.56-2.61c.08-.13,.19-.23,.33-.3,.92-.44,4.57-2.2,4.81-2.2,0,0,3.45-1.4,4.43-2.72s4.82-7.44,4.82-7.44c0,0-1.87-1.34-3.21,.3-1.19,1.46-3.21,4.12-3.63,4.67-.05,.07-.12,.12-.2,.16-.79,.37-5.16,2.25-6.85-.6l1.59-1.24c.6-.47,1.11-1.05,1.45-1.74,.39-.78,.62-1.8,.01-2.72l-4.44,2.91c-.2,.13-.4,.27-.6,.41-.24,.18-.67,.47-1.12,.71,0,0-2.02,1.26-2.53,2.53s-.59,1.65-.59,1.65c0,0-1.65,5.21-2.88,8.22Z"/></g></g></svg>