<?xml version="1.0" encoding="UTF-8"?><svg id="_024_Q1" xmlns="http://www.w3.org/2000/svg" viewBox="0 0 48 48"><defs><style>.cls-1{stroke:#4038ff;stroke-width:.72px;}.cls-1,.cls-2{fill:#e8edf6;}.cls-1,.cls-3{stroke-miterlimit:10;}.cls-3{fill:#4038ff;stroke:#e8edf6;stroke-width:.5px;}</style></defs><g id="icon_12_js_project_overview_dashboard"><g id="bg-12"><circle class="cls-2" cx="24" cy="24" r="24"/></g><g id="_лой_39"><g><g><g><rect class="cls-3" x="16.12" y="12.5" width="15.76" height="23" rx="2" ry="2" transform="translate(0 48) rotate(-90)"/><line class="cls-3" x1="12.5" y1="18.49" x2="35.5" y2="18.49"/></g><line class="cls-3" x1="14.45" y1="17.09" x2="14.45" y2="17.59"/><line class="cls-3" x1="34.07" y1="17.09" x2="34.07" y2="17.59"/><line class="cls-3" x1="32.78" y1="17.09" x2="32.78" y2="17.59"/><line class="cls-3" x1="31.49" y1="17.09" x2="31.49" y2="17.59"/></g><g><path class="cls-1" d="M29.25,26.24v-1.98l-1.1-.13c-.1-.36-.24-.7-.42-1.02l.68-.87-1.4-1.4-.87,.68c-.32-.18-.66-.32-1.02-.42l-.13-1.1h-1.98l-.13,1.1c-.36,.1-.7,.24-1.02,.42l-.87-.68-1.4,1.4,.68,.87c-.18,.32-.32,.66-.42,1.02l-1.1,.13v1.98l1.1,.13c.1,.36,.24,.7,.42,1.02l-.68,.87,1.4,1.4,.87-.68c.32,.18,.66,.32,1.02,.42l.13,1.1h1.98l.13-1.1c.36-.1,.7-.24,1.02-.42l.87,.68,1.4-1.4-.68-.87c.18-.32,.32-.66,.42-1.02l1.1-.13Z"/><circle class="cls-1" cx="24" cy="25.25" r="1.49"/></g></g></g></g></svg>