<?xml version="1.0" encoding="UTF-8"?><svg id="_024_Q3" xmlns="http://www.w3.org/2000/svg" viewBox="0 0 48 48"><defs><style>.cls-1{fill:#e8edf6;}.cls-2{fill:#4038ff;}.cls-3{fill:none;stroke:#4038ff;stroke-miterlimit:10;stroke-width:.97px;}</style></defs><g id="icon_30_Staking_Nomination_Pools"><g id="bg-30"><circle class="cls-1" cx="24" cy="24" r="24"/></g><g><g><polygon class="cls-2" points="19.99 18.7 19.99 13.67 23.82 14.98 23.82 20.05 19.99 18.7"/><polygon class="cls-2" points="24.25 15.02 28.06 13.67 28.06 18.65 24.25 20.05 24.25 15.02"/><polygon class="cls-2" points="20.48 13.33 24.04 12.03 27.53 13.33 24.04 14.59 20.48 13.33"/></g><g><polygon class="cls-2" points="27.93 26.72 27.93 21.69 31.76 23 31.76 28.07 27.93 26.72"/><polygon class="cls-2" points="32.18 23.05 36 21.69 36 26.67 32.18 28.07 32.18 23.05"/><polygon class="cls-2" points="28.41 21.35 31.98 20.05 35.47 21.35 31.98 22.61 28.41 21.35"/></g><g><polygon class="cls-2" points="20.01 34.62 20.01 29.59 23.84 30.9 23.84 35.97 20.01 34.62"/><polygon class="cls-2" points="24.26 30.95 28.08 29.59 28.08 34.57 24.26 35.97 24.26 30.95"/><polygon class="cls-2" points="20.49 29.26 24.06 27.95 27.55 29.26 24.06 30.51 20.49 29.26"/></g><g><polygon class="cls-2" points="12 26.6 12 21.57 15.83 22.88 15.83 27.95 12 26.6"/><polygon class="cls-2" points="16.25 22.92 20.07 21.57 20.07 26.55 16.25 27.95 16.25 22.92"/><polygon class="cls-2" points="12.48 21.23 16.05 19.93 19.54 21.23 16.05 22.49 12.48 21.23"/></g><g><polyline class="cls-3" points="16.01 18.72 16.01 15.97 18.64 15.97"/><polyline class="cls-3" points="18.7 32.22 15.95 32.22 15.95 29.59"/><polyline class="cls-3" points="29.49 16.03 32.24 16.03 32.24 18.66"/><polyline class="cls-3" points="32.18 29.53 32.18 32.29 29.55 32.29"/><line class="cls-3" x1="24.04" y1="22.02" x2="24.04" y2="26.02"/><line class="cls-3" x1="21.92" y1="24.02" x2="26.15" y2="24.02"/></g></g></g></svg>