<?xml version="1.0" encoding="UTF-8"?><svg id="_024_Q2" xmlns="http://www.w3.org/2000/svg" viewBox="0 0 48 48"><defs><style>.cls-1{fill:#e8edf6;}.cls-2{fill:none;stroke-width:.75px;}.cls-2,.cls-3{stroke:#4038ff;stroke-miterlimit:10;}.cls-3{fill:#4038ff;}</style></defs><g id="icon_25_Pioneer_Working_Group_Management_Module"><g id="bg-25"><circle class="cls-1" cx="24" cy="24" r="24"/></g><g id="_лой_79"><g><g><line class="cls-2" x1="25.59" y1="21.99" x2="22.52" y2="21.99"/><polyline class="cls-2" points="24.38 20.79 25.59 21.99 24.38 23.2"/></g><g><line class="cls-2" x1="22.41" y1="25.2" x2="25.48" y2="25.2"/><polyline class="cls-2" points="23.62 24 22.41 25.2 23.62 26.4"/></g><g><path class="cls-3" d="M18,25.97h0c2.82,0,5.12,2.29,5.12,5.12v1.05H12.88v-1.05c0-2.82,2.29-5.12,5.12-5.12Z"/><path class="cls-3" d="M16.48,23.05c-.97-1.1-1.51-2.53-1.51-4v-.16c0-1.67,1.36-3.03,3.03-3.03h0c1.67,0,3.03,1.36,3.03,3.03v.16c0,1.47-.54,2.9-1.51,4h0c-.83,.87-2.21,.87-3.04,0h0Z"/></g><g><path class="cls-3" d="M30,25.97h0c2.82,0,5.12,2.29,5.12,5.12v1.05h-10.24v-1.05c0-2.82,2.29-5.12,5.12-5.12Z"/><path class="cls-3" d="M28.48,23.05c-.97-1.1-1.51-2.53-1.51-4v-.16c0-1.67,1.36-3.03,3.03-3.03h0c1.67,0,3.03,1.36,3.03,3.03v.16c0,1.47-.54,2.9-1.51,4h0c-.83,.87-2.21,.87-3.04,0h0Z"/></g></g></g></g></svg>