<?xml version="1.0" encoding="UTF-8"?><svg id="_024_Q4" xmlns="http://www.w3.org/2000/svg" viewBox="0 0 48 48"><defs><style>.cls-1{fill:#e8edf6;}.cls-2{fill:#4038ff;}.cls-3{fill:none;stroke:#4038ff;stroke-miterlimit:10;}</style></defs><g id="icon_33_Premium_Content_Gating_Features"><g id="bg-33"><circle class="cls-1" cx="24" cy="24" r="24"/></g><g><g><path class="cls-2" d="M18.93,14.1c0,.47-.2,.89-.52,1.19-.28,.26-.66,.42-1.08,.42-.89,0-1.61-.72-1.61-1.61s.72-1.6,1.61-1.6,1.6,.72,1.6,1.6Z"/><polygon class="cls-2" points="28.74 21.91 24.48 26.16 20.23 21.91 24.48 21.91 28.74 21.91"/><polygon class="cls-2" points="27.59 35.5 21.37 35.5 24.48 33.51 27.59 35.5"/></g><g><polyline class="cls-3" points="24.48 21.91 21.23 18.37 18.41 15.29"/><polyline class="cls-3" points="20.22 21.91 16.69 18.37 21.23 18.37 32.28 18.37 28.74 21.91 24.48 26.16 20.23 21.91"/><polyline class="cls-3" points="20.22 21.91 20.23 21.91 24.48 21.91 28.74 21.91"/><line class="cls-3" x1="24.48" y1="26.16" x2="24.48" y2="33.51"/><polygon class="cls-3" points="27.59 35.5 24.48 33.51 21.37 35.5 27.59 35.5"/><path class="cls-3" d="M18.93,14.1c0,.47-.2,.89-.52,1.19-.28,.26-.66,.42-1.08,.42-.89,0-1.61-.72-1.61-1.61s.72-1.6,1.61-1.6,1.6,.72,1.6,1.6Z"/></g></g></g></svg>