<?xml version="1.0" encoding="UTF-8"?><svg id="_023_Q4" xmlns="http://www.w3.org/2000/svg" viewBox="0 0 48 48"><defs><style>.cls-1{fill:#e8edf6;}.cls-2{fill:#4038ff;}.cls-3{fill:none;stroke:#4038ff;stroke-linecap:square;stroke-linejoin:bevel;}</style></defs><g id="icon_2_more_exchanges"><g id="bg-2"><circle class="cls-1" cx="24" cy="24" r="24"/></g><g id="icon-2"><g><path class="cls-2" d="M20,21c-3.87,0-7,3.13-7,7s3.13,7,7,7,7-3.13,7-7-3.13-7-7-7Zm1.89,8.82c-.08,.19-.2,.34-.36,.48s-.34,.24-.55,.32c-.21,.08-.44,.13-.68,.15v.65h-.67v-.66c-.22-.03-.43-.08-.62-.16-.19-.08-.36-.19-.51-.33-.15-.14-.27-.31-.36-.51-.09-.2-.15-.43-.17-.7h.99c.02,.24,.09,.43,.21,.56,.12,.14,.27,.23,.46,.29v-1.6l-.21-.06c-.44-.11-.77-.29-.98-.57s-.33-.61-.33-1c0-.2,.04-.39,.11-.56,.08-.17,.18-.32,.32-.45,.14-.13,.3-.24,.48-.33,.19-.08,.39-.14,.61-.17v-.66h.67v.66c.21,.03,.4,.08,.58,.15s.33,.18,.46,.31c.13,.13,.24,.29,.32,.47,.08,.18,.13,.39,.15,.63h-.99c-.02-.21-.07-.37-.17-.48-.1-.11-.21-.18-.35-.22v1.48l.33,.08c.43,.11,.77,.29,1.01,.56,.24,.26,.37,.61,.37,1.04,0,.23-.04,.44-.13,.63Z"/><path class="cls-2" d="M20.31,28.47v1.45c.21-.04,.38-.11,.5-.23s.19-.28,.19-.48c0-.19-.05-.34-.16-.46-.11-.12-.29-.22-.54-.28Z"/><path class="cls-2" d="M19.11,26.64c0,.17,.04,.31,.12,.43s.22,.21,.41,.28v-1.32c-.15,.04-.28,.11-.38,.21-.1,.1-.15,.23-.15,.4Z"/></g><path class="cls-1" d="M20,22.25c3.17,0,5.75,2.58,5.75,5.75s-2.58,5.75-5.75,5.75-5.75-2.58-5.75-5.75,2.58-5.75,5.75-5.75m0-.25c-3.31,0-6,2.69-6,6s2.69,6,6,6,6-2.69,6-6-2.69-6-6-6h0Z"/><g><g><path class="cls-2" d="M27.48,21.97c-.18,0-.36-.02-.52-.07-.18-.05-.34-.14-.48-.25-.14-.12-.25-.26-.34-.42-.09-.17-.13-.37-.13-.59v-1.26c0-.22,.04-.41,.13-.59,.08-.16,.2-.31,.34-.42,.14-.11,.3-.2,.48-.25,.17-.05,.34-.08,.53-.08s.36,.03,.53,.08c.18,.06,.34,.14,.48,.26,.14,.12,.25,.26,.34,.42,.09,.17,.13,.37,.13,.58v1.26c0,.21-.04,.41-.13,.58-.08,.17-.2,.31-.34,.43-.14,.11-.3,.2-.48,.25-.16,.05-.34,.07-.52,.07Z"/><path class="cls-1" d="M27.48,18.53c.14,0,.26,.02,.38,.05,.12,.04,.22,.09,.31,.16,.09,.07,.16,.16,.21,.26,.05,.1,.08,.22,.08,.36v1.26c0,.13-.03,.25-.08,.36s-.12,.19-.21,.27c-.09,.07-.19,.13-.31,.16-.12,.04-.25,.05-.38,.05s-.26-.02-.38-.05c-.12-.04-.22-.09-.31-.16-.09-.07-.16-.16-.21-.26-.05-.1-.08-.22-.08-.36v-1.26c0-.14,.03-.26,.08-.36,.05-.1,.12-.19,.21-.26,.09-.07,.19-.13,.31-.16,.12-.04,.24-.05,.38-.05m0-1c-.24,0-.46,.03-.68,.1-.24,.07-.46,.19-.65,.35-.19,.16-.35,.36-.47,.58-.12,.25-.19,.52-.19,.81v1.26c0,.3,.06,.57,.19,.81,.12,.23,.27,.42,.47,.58,.19,.16,.41,.27,.66,.35,.21,.06,.43,.09,.67,.09s.46-.03,.67-.09c.25-.07,.47-.19,.66-.35,.19-.16,.35-.36,.47-.59,.12-.24,.18-.51,.18-.8v-1.26c0-.29-.06-.57-.18-.81-.11-.23-.27-.43-.47-.59-.18-.15-.41-.27-.65-.35-.21-.06-.44-.1-.67-.1h0Z"/></g><g><path class="cls-2" d="M28,27.5c-4.14,0-7.5-3.36-7.5-7.5s3.36-7.5,7.5-7.5,7.5,3.36,7.5,7.5-3.36,7.5-7.5,7.5Zm-.52-9.13c-.43,0-.75,.12-.97,.37-.23,.26-.35,.69-.35,1.26s.12,.99,.35,1.26c.22,.25,.53,.37,.97,.37s.75-.12,.97-.37c.23-.27,.35-.69,.35-1.26s-.12-.99-.35-1.26c-.22-.25-.53-.37-.97-.37Z"/><path class="cls-1" d="M28,13c3.87,0,7,3.13,7,7s-3.13,7-7,7-7-3.13-7-7,3.13-7,7-7m-.52,9.13c.58,0,1.03-.18,1.34-.54,.32-.36,.47-.89,.47-1.59s-.16-1.23-.47-1.59-.76-.54-1.34-.54-1.03,.18-1.34,.54-.47,.89-.47,1.59,.16,1.23,.47,1.59c.32,.36,.76,.54,1.34,.54m3.98-2.48l-.88-1.69h-.88l1.36,2.48v1.6h.78v-1.6l1.36-2.48h-.87l-.88,1.69m-8.66,2.39h2.03v-4.08h-.78v3.42h-1.25v.66m5.21-10.04c-4.41,0-8,3.59-8,8s3.59,8,8,8,8-3.59,8-8-3.59-8-8-8h0Zm-.52,9.13c-.42,0-.54-.14-.59-.2-.15-.17-.23-.5-.23-.93s.08-.76,.23-.93c.05-.06,.17-.2,.59-.2s.54,.14,.59,.2c.15,.17,.23,.5,.23,.93s-.08,.76-.23,.93c-.05,.06-.17,.2-.59,.2h0Z"/></g><path class="cls-1" d="M28,14.25c3.17,0,5.75,2.58,5.75,5.75s-2.58,5.75-5.75,5.75-5.75-2.58-5.75-5.75,2.58-5.75,5.75-5.75m0-.25c-3.31,0-6,2.69-6,6s2.69,6,6,6,6-2.69,6-6-2.69-6-6-6h0Z"/></g><rect class="cls-2" x="28" y="31" width="5" height="1"/><rect class="cls-2" x="15" y="16" width="5" height="1"/><polyline class="cls-3" points="33.5 30.09 34.91 31.5 33.5 32.91"/><polyline class="cls-3" points="14.5 17.91 13.09 16.5 14.5 15.09"/></g></g></svg>