<?xml version="1.0" encoding="UTF-8"?><svg id="_023_Q4" xmlns="http://www.w3.org/2000/svg" viewBox="0 0 48 48"><defs><style>.cls-1{fill:#e8edf6;}.cls-2{fill:#4038ff;stroke:#e8edf6;stroke-miterlimit:10;}</style></defs><g id="icon_7_creator_ambassador_program"><g id="bg-7"><circle class="cls-1" cx="24" cy="24" r="24"/></g><g id="_лой_22"><g><g><path class="cls-2" d="M17.67,30.33l-1.02-1.02s1.93-6.94,7.08-12.09c5.86-5.86,10.16-4.97,11.09-4.04"/><path class="cls-2" d="M17.67,30.33l1.02,1.02s6.94-1.93,12.09-7.08c5.86-5.86,4.97-10.16,4.04-11.09"/></g><g><path class="cls-2" d="M20.16,21.67s-1.61-.59-2.92-.77c0,0-2.69,3.2-4.74,9.53l.61,.61s1.96-3.74,3.96-6.2l1.19,.28"/><path class="cls-2" d="M26.33,27.84s.59,1.61,.77,2.92c0,0-3.2,2.69-9.53,4.74l-.61-.61s3.74-1.96,6.2-3.96l-.28-1.19"/></g><path class="cls-2" d="M17.06,32.59l-1.78-1.78s-1.1,1.19-1.05,2.84"/><path class="cls-2" d="M15.27,30.81l1.78,1.78s-1.19,1.1-2.84,1.05"/><circle class="cls-2" cx="29.67" cy="18.33" r="2.72"/></g></g></g></svg>