<?xml version="1.0" encoding="UTF-8"?><svg id="_023_Q4" xmlns="http://www.w3.org/2000/svg" viewBox="0 0 48 48"><defs><style>.cls-1{fill:#e8edf6;}.cls-2{fill:#4038ff;stroke:#e8edf6;stroke-miterlimit:10;stroke-width:.5px;}</style></defs><g id="icon_6_bounties_program"><g id="bg-6"><circle class="cls-1" cx="24" cy="24" r="24"/></g><g id="_лой_19"><g><path class="cls-2" d="M26.48,29.8v.23c0,1.51,1.23,2.74,2.74,2.74h.5c.33,0,.6,.27,.6,.6h0c0,.33-.27,.6-.6,.6h-11.46c-.33,0-.6-.27-.6-.6h0c0-.33,.27-.6,.6-.6h.5c1.51,0,2.74-1.23,2.74-2.74v-.23h4.97Z"/><g><rect class="cls-2" x="16.12" y="10.42" width="15.76" height="23" rx="2" ry="2" transform="translate(2.08 45.92) rotate(-90)"/><rect class="cls-2" x="18.1" y="12.34" width="11.69" height="19.84" rx=".68" ry=".68" transform="translate(1.69 46.2) rotate(-90)"/></g><line class="cls-2" x1="24" y1="15.01" x2="24" y2="15.51"/></g></g></g></svg>