<?xml version="1.0" encoding="UTF-8"?><svg id="_024_Q1" xmlns="http://www.w3.org/2000/svg" viewBox="0 0 48 48"><defs><style>.cls-1{fill:#e8edf6;}.cls-2{stroke:#4038ff;}.cls-2,.cls-3,.cls-4,.cls-5,.cls-6{fill:none;stroke-miterlimit:10;}.cls-2,.cls-4{stroke-width:.5px;}.cls-3{stroke-width:.55px;}.cls-3,.cls-4,.cls-5,.cls-6{stroke:#e8edf6;}.cls-7{fill:#4038ff;}.cls-4{stroke-linecap:square;}.cls-5{stroke-width:.63px;}.cls-6{stroke-width:.63px;}</style></defs><g id="icon_16_wallet_implementations"><g id="bg-16"><circle class="cls-1" cx="24" cy="24" r="24"/></g><g id="_лой_51"><g><g><path class="cls-1" d="M32.57,26.55c-.31,0-.56-.24-.56-.55s.25-.55,.56-.55,.55,.24,.55,.55-.25,.55-.55,.55Z"/><path class="cls-7" d="M33.12,20l-1.42-2.5h1.42c1.1,0,2,.9,2,2v4.33h-2.6c-1.19,0-2.16,.97-2.16,2.17,0,.6,.24,1.14,.63,1.54,.39,.39,.93,.63,1.53,.63h2.6v4.33c0,1.1-.9,2-2,2H14.12c-1.11,0-2-.9-2-2v-13c0-1.1,.89-2,2-2h9.25l-3.8,2.5h13.55Z"/><path class="cls-7" d="M30.36,26c0-1.2,.97-2.17,2.16-2.17h3.36v4.34h-3.36c-.6,0-1.14-.24-1.53-.63-.39-.4-.63-.94-.63-1.54Zm1.65,0c0,.31,.25,.55,.56,.55s.55-.24,.55-.55-.25-.55-.55-.55-.56,.24-.56,.55Z"/><polygon class="cls-7" points="29.44 13.5 31.7 17.5 33.12 20 19.57 20 23.37 17.5 29.44 13.5"/></g><g><path class="cls-2" d="M35.12,28.17v4.33c0,1.1-.9,2-2,2H14.12c-1.11,0-2-.9-2-2v-13c0-1.1,.89-2,2-2h9.25"/><path class="cls-2" d="M31.7,17.5h1.42c1.1,0,2,.9,2,2v4.33"/><polyline class="cls-4" points="15.75 20 19.57 20 33.12 20 34.75 20"/><polyline class="cls-5" points="33.12 20 31.7 17.5 29.44 13.5 23.37 17.5 19.57 20"/><path class="cls-6" d="M35.12,23.83h-2.6c-1.19,0-2.16,.97-2.16,2.17,0,.6,.24,1.14,.63,1.54,.39,.39,.93,.63,1.53,.63h3.36v-4.34h-.76Z"/><path class="cls-3" d="M33.12,26c0,.31-.25,.55-.55,.55s-.56-.24-.56-.55,.25-.55,.56-.55,.55,.24,.55,.55Z"/></g></g></g></g></svg>