<?xml version="1.0" encoding="UTF-8"?><svg id="_023_Q4" xmlns="http://www.w3.org/2000/svg" viewBox="0 0 48 48"><defs><style>.cls-1,.cls-2{fill:#e8edf6;}.cls-1,.cls-3{stroke:#e8edf6;stroke-miterlimit:10;stroke-width:.5px;}.cls-3{fill:none;}.cls-4{fill:#4038ff;}</style></defs><g id="icon_5_stablecoin_treasury"><g id="bg-5"><circle class="cls-2" cx="24" cy="24" r="24"/></g><g id="_лой_16"><g id="JOY"><g><g><path class="cls-4" d="M23.13,35.49c-.72,.04-1.44-.01-2.16-.16-4.75-.97-8.04-5.98-8.04-11.32s3.29-10.36,8.04-11.32c.56-.11,1.12-.17,1.68-.17,5.09,0,9.64,4.7,9.64,11.49s-4.27,11.19-9.16,11.48Z"/><path class="cls-4" d="M32.29,24.01c0-6.79-4.55-11.49-9.64-11.49v-.02h1.04c6.21,0,11.28,4.98,11.37,11.18v.57c-.27,6.29-5.45,11.24-11.74,11.24h-.19c4.89-.29,9.16-4.91,9.16-11.48Z"/></g><g><path class="cls-3" d="M22.65,12.52c5.09,0,9.64,4.7,9.64,11.49s-4.27,11.19-9.16,11.48c-.72,.04-1.44-.01-2.16-.16-4.75-.97-8.04-5.98-8.04-11.32s3.29-10.36,8.04-11.32c.56-.11,1.12-.17,1.68-.17Z"/><path class="cls-3" d="M22.58,12.5h1.11c6.21,0,11.28,4.98,11.37,11.18v.57c-.27,6.29-5.45,11.24-11.74,11.24h-.74"/></g></g><g><path class="cls-1" d="M16.53,26.47v-.77l1.13,.05v-4.13l.74-.05v5.03l-1.87-.13Z"/><path class="cls-1" d="M19.22,24.08c0-.88,.16-1.55,.48-2.03s.81-.75,1.44-.79,1.18,.16,1.55,.63,.58,1.21,.58,2.18-.19,1.7-.58,2.18-.9,.68-1.55,.63-1.11-.31-1.44-.79-.48-1.15-.48-2.03Zm.86,.81c0,.18,.03,.33,.08,.47s.13,.25,.22,.35,.21,.17,.33,.22,.27,.08,.42,.09,.3,0,.43-.05,.25-.11,.35-.2,.18-.21,.24-.35,.09-.3,.09-.49v-1.71c0-.19-.03-.35-.09-.49s-.14-.25-.24-.35-.22-.16-.35-.2-.28-.06-.43-.05-.29,.04-.42,.09-.24,.13-.33,.23-.17,.21-.22,.35-.08,.29-.08,.47v1.62Z"/><path class="cls-1" d="M23.79,21.2l1.14-.08,1.2,2.44,1.27-2.6,1.33-.09-2.05,3.88v2.4l-1.1-.07v-2.35l-1.79-3.53Z"/></g></g></g></g></svg>