<?xml version="1.0" encoding="UTF-8"?><svg id="_024_Q3" xmlns="http://www.w3.org/2000/svg" viewBox="0 0 48 48"><defs><style>.cls-1{fill:#e8edf6;}.cls-2,.cls-3{fill:#4038ff;}.cls-4{fill:none;stroke-linecap:round;stroke-width:.26px;}.cls-4,.cls-3{stroke:#e8edf6;stroke-miterlimit:10;}.cls-3{stroke-width:.5px;}</style></defs><g id="icon_28_Smartphone_App_for_Atlas_Gleev"><g id="bg-28"><circle class="cls-1" cx="24" cy="24" r="24"/></g><g><rect class="cls-2" x="17.84" y="12.5" width="12.3" height="20.51" rx="1.03" ry="1.03"/><rect class="cls-1" x="18.86" y="13.53" width="10.25" height="17.43" rx=".67" ry=".67"/><line class="cls-4" x1="22.94" y1="13.01" x2="25.04" y2="13.01"/><path class="cls-3" d="M25.56,26.3h.74s2.95,.84,3.27,1.02c0,0,.56,.29,.59,1.15s0,3.01,0,3.01c0,0-.1,.74-.76,1.56-.08,.1-.13,.22-.13,.35l.02,1.62s-.03,.34-.46,.5h-5.46s-.34-.1-.43-.5v-1.44c0-.19-.07-.36-.2-.49-.51-.51-1.85-2-2.35-3.89,0,0-.24-.92,.64-1.15s1.28,.54,1.28,.54c0,0,.45,.66,1,.74v-6.36s.06-.88,1.07-.84,.9,1.46,.9,1.46l.3,2.73Z"/></g></g></svg>