<?xml version="1.0" encoding="UTF-8"?><svg id="_024_Q2" xmlns="http://www.w3.org/2000/svg" viewBox="0 0 48 48"><defs><style>.cls-1{fill:#e8edf6;}.cls-2{stroke-width:.75px;}.cls-2,.cls-3,.cls-4{fill:none;stroke:#4038ff;stroke-miterlimit:10;}.cls-3{stroke-width:1.02px;}</style></defs><g id="icon_21_dApp_Operator_Developer_Grants___Support"><g id="bg-21"><circle class="cls-1" cx="24" cy="24" r="24"/></g><g id="_лой_67"><g><path class="cls-4" d="M23.02,30.39h-4.35c-.53,0-.96-.43-.96-.96V13.71c0-.53,.43-.96,.96-.96h10.66c.53,0,.96,.43,.96,.96v10.85"/><line class="cls-3" x1="19.67" y1="15.36" x2="28.33" y2="15.36"/><line class="cls-3" x1="19.67" y1="18.02" x2="28.33" y2="18.02"/><line class="cls-3" x1="19.67" y1="20.68" x2="28.33" y2="20.68"/><line class="cls-3" x1="19.67" y1="23.34" x2="25.54" y2="23.34"/><line class="cls-3" x1="19.67" y1="26" x2="22.55" y2="26"/><circle class="cls-2" cx="27.18" cy="28.18" r="3.1"/><polyline class="cls-2" points="28.83 31.09 28.83 35.25 27.18 33.92 25.54 35.25 25.54 31.09"/></g></g></g></svg>